<svg version="1.1" viewBox="0 0 1024 768" width="1024" height="768" xmlns="http://www.w3.org/2000/svg">
  <g fill-opacity=".5">
    <path fill="#333031" d="M538 302l-33 104 16-67 9-38" />
    <path fill="#404040" d="M615 535l61-26-59 31 16-2" />
    <path fill="#b4b4b4" d="M675 432l9-9-17-12 7 3" />
    <path fill="#fff" d="M343 395l126 75-4-36-190 1" />
    <path fill="#ebf0f1" d="M658 494l-94 3 32 5 26-7" />
    <path fill="#464646" d="M638 469l28-8 33 8-59-1" />
    <path fill="#fcfeff" d="M455 238l81-4 28 10h-54" />
    <path fill="#231e20" d="M395 264h-9l1 5 96-1" />
    <path fill="#fff" d="M578 398l22-120-86 124 45 16" />
    <path fill="#323232" d="M530 543v-14l-39-16 51 25" />
    <path fill="#4da283" d="M413 271l34 5 92 1 18-8" />
    <path fill="#262727" d="M447 465l27 14-11-10-34-18" />
    <path fill="#2e2e2f" d="M307 402l-1 8 38-31 8 4" />
    <path fill="#232222" d="M557 481l7-2 32-2-30-3" />
    <path fill="#313131" d="M509 423l19-97-1-7-12 39" />
    <path fill="#262626" d="M633 154l-31-22-16-2 43 23" />
    <path fill="#373637" d="M517 555l19-14 11 23-1-13" />
    <path fill="#2c2c2c" d="M299 582l8 8-12-2-2-61" />
    <path fill="#fff" d="M536 200l65-60-110-26-1 82m250 238l-28 60 38 111 47-536M529 522l26 42 39 11-43-50" />
    <path fill="#333334" d="M433 666l-6-13 4-6 27 20" />
    <path fill="#050605" d="M550 430l-1 29-4 1 1-30" />
    <path fill="#363636" d="M428 121l39-9-95 36v-4" />
    <path fill="#2a2a2a" d="M487 614l-15 36-4-3 2-22" />
    <path fill="#333132" d="M471 398l-31-113 4 37 23 88" />
    <path fill="#fffeff" d="M457 334v-15l-12-32 4 35" />
    <path fill="#151414" d="M607 435l-18 2-44-1 65-4" />
    <path fill="#fff" d="M200 619l244-40-19 76 94 81" />
    <path fill="#fffeff" d="M469 353v-16l6-54 9 112" />
    <path fill="#fdffff" d="M507 236l-7 4-15-32 24 4" />
    <path fill="#2d1c22" d="M525 279l49 6 8-8h1" />
    <path fill="#4f4f4f" d="M717 323h-20l-4-24-22 4" />
    <path fill="#fff" d="M772 540l-43 58 207 17-199-33M397 444l-43-128-94 95 119-65" />
    <path fill="#343535" d="M722 479l-21 23 36-79 11-61" />
    <path fill="#fff" d="M506 499l11-8 28 2-27-125" />
    <path fill="#2f302f" d="M516 595l12-26-11 32 30-23" />
    <path fill="#fdfdfd" d="M595 390l47-95h22l38 63" />
    <path fill="#fff" d="M382 248l87-82 8-10-27 65m39 283l-34-35-22-11-47 105m166 10l-27 27 199 199-151-219" />
    <path fill="#1e1e1f" d="M572 574v-6l16 21-3 5" />
    <path fill="#fff" d="M366 450l45-5-39-41-60-2" />
    <path fill="#aeaeaf" d="M665 342l-18 4 7 5 1 4" />
    <path fill="#f0f3f4" d="M620 483l-46-3-31-1 42 10" />
    <path fill="#1c1c1c" d="M436 621l4 6 4 1 18-15" />
    <path fill="#414040" d="M503 532l-21-41 38 34-19-6" />
    <path fill="#3a3939" d="M479 284l11 111-12-41 2 16" />
    <path fill="#fff" d="M359 339l70-43 20 51 12 82" />
    <path fill="#505151" d="M301 251l-7-13 13 23-36 3" />
    <path fill="#e6e8e9" d="M309 506l52-58-6 25-49 49" />
    <path fill="#403e3f" d="M518 222v-23l-8 20h74" />
    <path fill="#565555" d="M612 409l-27-9-28 9 31-5" />
    <path fill="#4c625b" d="M439 540l-11 11-14-1 62-26" />
    <path fill="#282727" d="M404 450l-24 3-23 9 8-11" />
    <path fill="#444445" d="M314 489l-17 43 24-44 9-13" />
    <path fill="#fff" d="M742 350l-43 70-13 93 16-18" />
    <path fill="#2d2d2d" d="M744 395l-10 43 7-63 2 8" />
    <path fill="#343334" d="M616 446l-51-1 37 9h-9" />
    <path fill="#4e4f4f" d="M736 583l-10 27 9-90-4 37" />
    <path fill="#2b292a" d="M549 296l-123-3 14-4 97 3" />
    <path fill="#fff" d="M717 407l-40 63-52-93 2 92" />
    <path fill="#1f2020" d="M469 448l1 29 9 14-13-72" />
    <path fill="#2d2d2d" d="M685 193l-42-34 64 66-29-37" />
    <path fill="#fff" d="M350 526l91-57-21 92-112-107" />
    <path fill="#e1e2e2" d="M640 415l-32 2-23-12-13 7" />
    <path fill="#252525" d="M551 654l-29 1 29 10 11-1" />
    <path fill="#fff" d="M729 160l-244-60 13 18 20-68" />
    <path fill="#323232" d="M592 399l-17 2 48 18-16 4" />
    <path fill="#fff" d="M193 603l100-25-3-59-75-179M626 48l-42 67 74 52 62 64" />
    <path fill="#7e7f80" d="M584 365l5-13 4 8-13 2" />
    <path fill="#fff" d="M309 288l-49 136 78-47 51 25" />
    <path fill="#fff" d="M279 254l3-7 10 140-23-103" />
    <path fill="#2d2d2d" d="M664 519l33-2 36 31-49-33" />
    <path fill="#8a9792" d="M434 337l-5-16 39-72-45 83" />
    <path fill="#393939" d="M555 528l21-33-26 24-7-3" />
    <path fill="#fff" d="M635 323l99 99 7-45-1-49" />
    <path fill="#505050" d="M307 574l-44 15 5 2 10 1" />
    <path fill="#fff" d="M506 350l5-34 2-24-8 13" />
    <path fill="#656565" d="M428 321l-85-3-6 11-2-9" />
    <path fill="#fff" d="M373 289l-17-127-31 28-23 65" />
    <path fill="#fefefe" d="M469 643l-25-14 65-24-71-50" />
    <path fill="#fff" d="M522 566l-71-22-226 82 283-18" />
    <path fill="#393838" d="M425 231l24 2 16-30-4 26" />
    <path fill="#29302d" d="M423 282l-19-27-6-6 8 22" />
    <path fill="#fff" d="M255 333l132-10-123 106-9-49" />
    <path fill="#313131" d="M544 499l8 26-3-116-3 76" />
    <path fill="#2a2a2a" d="M498 639l-19-30 22 21-24 24" />
    <path fill="#3b514a" d="M426 541l47-13-53 23 11-13" />
    <path fill="#fffefe" d="M610 219l-79 6 62 22-77-77" />
    <path fill="#353334" d="M542 251l-18-8 41-2-159 10" />
    <path fill="#fff" d="M467 129l16-25v93l-31 6M350 387l5 98 2-45-81 4m446 103l3 55-132 34 66-116M451 283l-40 1 58 5 42-4" />
    <path fill="#494949" d="M578 466l-20-6 46-1 28 4" />
    <path fill="#fff" d="M287 586l-21 13 15 48 171 25" />
    <path fill="#fefefe" d="M824 619l-64 11 26-54 38 16" />
    <path fill="#535454" d="M338 324l58-2-24-6-34 3" />
    <path fill="#fff" d="M757 629l-30-26 26 11-91 32" />
    <path fill="#262626" d="M491 136l-6-14 4 108-3 15" />
    <path fill="#fff" d="M320 347l52-105-20 88-37-100" />
    <path fill="#312f30" d="M518 295l-106-1 118-5 47 1" />
    <path fill="#382a2f" d="M571 266l18-4-3 9-83-6" />
    <path fill="#3c3c3c" d="M746 340l-9 74-15 57 23-63" />
    <path fill="#fefefe" d="M757 404l-45 87 35 110 2-521" />
    <path fill="#fff" d="M695 218l-87 85-41-38-1 13" />
    <path fill="#2d2e2e" d="M737 288l-20-43 30 92-9-48" />
    <path fill="#fff" d="M604 414l133-85-110 171 10-79" />
    <path fill="#444445" d="M357 400l18-1 17 17-56-42" />
    <path fill="#fff" d="M151 305l150 211-28 40-45 108" />
    <path fill="#fafbfc" d="M562 425l-13 110 15-56-10-22" />
    <path fill="#312f30" d="M522 206l-48-10-11 11-3 3" />
    <path fill="#fff" d="M468 654l25 33-81-30-41 99m278-583l-71 82 160 59-63-16m45 166l-33 47-40 1 8-36M544 295l-15 36 117 40-84-72m101-5l-19-1-12 31 106 89" />
    <path fill="#525252" d="M711 631l-13-9 17-3 26-48" />
    <path fill="#f6f3f6" d="M559 284l-16 5-137-5 137-1" />
    <path fill="#e5e5e5" d="M473 644l18-13-36-76 33 64" />
    <path fill="#fff" d="M501 444l10-81 13-43-45 121m61 109l-4-29 54 65 15-67" />
    <path fill="#f7fffe" d="M434 265l-14-12 24 2-3 4" />
    <path fill="#272a29" d="M569 274l-4-33-63-22 65 20" />
    <path fill="#f7f7f7" d="M743 346l-14-66-32-59-26-32" />
    <path fill="#3e3e3e" d="M250 333l10-36-10 100-2-38" />
    <path fill="#fff" d="M604 517l-29 49-15-48 20-12M347 251l41 58 6 93 31-96" />
    <path fill="#fefefe" d="M633 157l-59 105 125 13-108-139" />
    <path fill="#434343" d="M639 384h-7l16-8 4 10" />
    <path fill="#fff" d="M983 678L614 799 476 679l288-44" />
    <path fill="#2f3030" d="M261 440l-8-75-4 27 35 96" />
    <path fill="#36433f" d="M484 541l-53-11 49 5 18-15" />
    <path fill="#282728" d="M528 526l-3-10-6 6 19 23" />
    <path fill="#fff" d="M266 261l57-99-184 140 73 146" />
    <path fill="#7f8080" d="M485 311l12-47-8 30-2 81" />
    <path fill="#302f30" d="M289 232l-4 25 21 7-28-17" />
    <path fill="#fff" d="M578 585l-33 66 79 35 31 17" />
    <path fill="#2b2a2a" d="M528 218l36-1-17 6-39-7" />
    <path fill="#fff" d="M463 528l35-9-77-43-37 73m72-434l38-12-147-32-2 50m391 487l-38 28 1 94 49-117m-524 7l269-7 46-58-71-2M287 237l49-59 117-22-160 87" />
    <path fill="#393a3a" d="M500 479l12-66v-24l-4 6" />
    <path fill="#303030" d="M734 575l-2 36-3-44 5-14" />
    <path fill="#282828" d="M778 635l-39-1 19-6-3-3" />
    <path fill="#494949" d="M547 337l-22 2 2 3 31 3" />
    <path fill="#f6f6f6" d="M455 647l-54-19 44 24-10 6" />
    <path fill="#eff3f4" d="M604 471l16-21-49 5 50 5" />
    <path fill="#fff" d="M395 454l-38 10 126 28-76-38" />
    <path fill="#323232" d="M438 612l3 30 38 10-47-16" />
    <path fill="#3b3b3b" d="M491 614l14 15-1 8-23-19" />
    <path fill="#e9edec" d="M408 245l-4 6 11-6 90-29" />
    <path fill="#fff" d="M619 376l-23-86 12 117-83-33" />
    <path fill="#424242" d="M685 196l37 51-10-1 2 1" />
    <path fill="#ededed" d="M563 474l4-5 29-5-4 9" />
    <path fill="#3f3f40" d="M438 414l-6 18 17 1 1-17" />
    <path fill="#2c2d2d" d="M456 464l-34-15-17 2 10 3" />
    <path fill="#fefefe" d="M567 414l-36 6-26 34 54-130" />
    <path fill="#1a1b1a" d="M307 498l1 10 14-24 5 2" />
    <path fill="#757676" d="M382 386l9-3 2 12h1" />
    <path fill="#fff" d="M517 606l9-8-37 57 10-2" />
    <path fill="#3e3e3e" d="M627 478l-7-47-1 85 5 11" />
    <path fill="#fcfbfb" d="M601 446l2-7-47-2-6 3" />
    <path fill="#373738" d="M486 666l-17-43-6 23-29-11" />
    <path fill="#fdfdfd" d="M325 249l129 141-62-116 27 3" />
    <path fill="#303030" d="M680 194l-20-14-26-26 32 22" />
    <path fill="#161616" d="M656 286l-22 7 16-4 24 3" />
    <path fill="#393838" d="M459 284l12 93-2 34-1 26" />
    <path fill="#404040" d="M544 560l38 15-1 18 9-5" />
    <path fill="#373737" d="M553 511l-10 5 25 4-54-2" />
    <path fill="#2f2f2f" d="M537 651l11-5-6-14-8-18" />
    <path fill="#cfd6d8" d="M337 449l-12 24 22 11 8-10" />
    <path fill="#222223" d="M759 629l16 1 13 2-4 1" />
    <path fill="#262626" d="M425 655l35 8-12 2-11-2" />
    <path fill="#fff" d="M388 588l-32-44 186 15 8 11" />
    <path fill="#393939" d="M530 670l-17-11-5-24 5-4" />
    <path fill="#fff" d="M298 502l12-3-1-23-47-53m99-28l-60-99 97 75-24 22" />
    <path fill="#f3f3f3" d="M340 386l7 11-32 3 3 21" />
    <path fill="#fcfcfc" d="M584 422l-24 4-9 2 63 5" />
    <path fill="#3c3b3b" d="M604 507l-19-6 43 43-23-16" />
    <path fill="#2c2c2c" d="M546 664l13-5-40 7 28-22" />
    <path fill="#fff" d="M533 537l-33-12-9 5-4 22m-14 28l-149-93-27 73 25 90" />
    <path fill="#fcfcfc" d="M667 294l45 184-19-168-40-9" />
    <path fill="#fff" d="M430 679l82-18 104 63-127 30" />
    <path fill="#575657" d="M679 464v11l19-13-50 6" />
    <path fill="#fff" d="M454 366l-48-55-3 34 53 86" />
    <path fill="#313131" d="M506 112l59 7-24 1-47-6" />
    <path fill="#fff" d="M672 500l3-37 30 26 29-72m-207-80l-16 106 31 54 2-121" />
    <path fill="#3b3a3b" d="M314 193l-29 34 79-76-24 17" />
    <path fill="#191919" d="M372 457l17-6 45 4-34-7" />
    <path fill="#303030" d="M462 645l12-26 25 15-8-18" />
    <path fill="#fcfbfb" d="M373 155l110 64-16 28-3-38" />
    <path fill="#212121" d="M639 299l-23 16-5-1 22-2" />
    <path fill="#fff" d="M443 539h38l-38 75-240 181" />
    <path fill="#383335" d="M380 282l121 1 90-1-96-7" />
    <path fill="#606061" d="M305 416l8-5 2-11-20 15" />
    <path fill="#fff" d="M474 441l-6-41 32 99-21-20M325 252l145-134-98 33-28 20m52 79l-12-10 73-20-41-51" />
    <path fill="#efefef" d="M312 255l61-35-80 35-9-9" />
    <path fill="#424343" d="M304 400l31-7-2 7 54-1" />
    <path fill="#fff" d="M524 520l11 14 22 32 110 2" />
    <path fill="#2f3332" d="M426 245l32 8 54-2 45-5" />
    <path fill="#313232" d="M738 601l9 1 17 17-12-6" />
    <path fill="#fff" d="M260 414l13 38 38-158 43 80m-101 49l38 148-85 67 33-311" />
    <path fill="#ecf0f1" d="M493 231l3 15 45-3 7-3" />
    <path fill="#404041" d="M710 527l-24-17 44 41 8 28" />
    <path fill="#fff" d="M686 519l-78 127 15-99 20-21" />
    <path fill="#d3d7d9" d="M607 517l10 9 3-11-2-75" />
    <path fill="#313030" d="M450 342l18 62 9 1-19-24" />
    <path fill="#fff" d="M562 442l-9 78-1-91 6-8m-63-16l-20-29 1 85 25-16" />
    <path fill="#727273" d="M588 319l7 8 27-14-17 8" />
    <path fill="#fff" d="M361 190l56 168 20-63-181 29m218-31l-5 6-11-3 19 56" />
    <path fill="#1f1f1f" d="M644 520l-23 28 12-22 45-13" />
    <path fill="#fefefe" d="M411 442l-52-73 46 32-32 26" />
    <path fill="#3b3a3a" d="M451 323l-17-31 8 24 25 87" />
    <path fill="#fff" d="M358 667l-65-82-59 34 97 40" />
    <path fill="#333534" d="M579 246l-30 36 22-14-5-26" />
    <path fill="#fff" d="M680 518l32 16 12 19 3 42m-326 21l48-151-131 163 139 23m310-377l-26 151-28 78 116 203m-388 93l180-207-43 77-106-3m7-571l-90 40-226 126L564-24" />
    <path fill="#fefefe" d="M621 314l-24 46-41 57 123-97" />
    <path fill="#fff" d="M277 252l56 122-37 41-7-51m287-182l101 13 40 54v76" />
    <path fill="#fefefe" d="M621 533l-3 75-17-94-53 34" />
    <path fill="#454344" d="M517 233l-6-13 2-22 4 22" />
    <path fill="#61c0a2" d="M440 260v-3l54-4 44 11" />
    <path fill="#323132" d="M523 301l-26 92-2-99-6 106" />
    <path fill="#fdfdfd" d="M593 273l-62-113 92 99-69 18" />
    <path fill="#fff" d="M632 464l-4-115-66 34 143 79m-361-75l7 6 5 84-36-63m322-269l48 53 27 41 246 97" />
    <path fill="#3a3a3a" d="M382 402l-12 1v-8l20 26" />
    <path fill="#262626" d="M671 515l-38 14 15-12v-2" />
    <path fill="#282829" d="M740 318l-1 11 8 59-2-57" />
    <path fill="#2c2c2c" d="M534 616v1l-31 40 14-35" />
    <path fill="#262324" d="M519 303l-2 15-6 24 5-50" />
    <path fill="#fffeff" d="M571 225l-69-2 177 14-99 24" />
    <path fill="#333" d="M622 420l-74-4 10 7h6" />
    <path fill="#20201f" d="M726 551l8 17-8-22-24-26" />
    <path fill="#fff" d="M767 418l-72 97 21 13 153 214M657 176l-43 3-16 148 92-114" />
    <path fill="#3e3d3d" d="M462 220l-2 5-62 22 18-14" />
    <path fill="#cdd0d2" d="M486 288l10 1 84-1-26-3" />
    <path fill="#fff" d="M785 789L564 574l-22 7 7 52m-44-224l-9 66-31-174 9 87" />
    <path fill="#474747" d="M389 322l-33 2 1-4-26-3" />
    <path fill="#363535" d="M578 404l-23 20 21-15 16-7" />
  </g>
</svg>