<svg version="1.1" viewBox="0 0 1024 768" width="1024" height="768" xmlns="http://www.w3.org/2000/svg">
  <path fill="#fff" d="M0 0h1024v768H0z" />
  <g fill-opacity=".5">
    <g class="SVG--0">
      <path fill="#1e2f2a" d="M391.2 240.4l95.2-50.3L598 256 471 425" />
      <path fill="#9a9a9b" d="M552 671.6l-130.4-7L445 340.2l288 124.6" />
      <path fill="#1b1b1b" d="M543.7 622.7l4.5 44-119.3-7.4 8-45" />
      <path fill="#7c7c7d" d="M235 437l29.8-212.3L442 89 307.4 209.3" />
      <path fill="#262727" d="M688.5 185.4L733 275l-95.7-130L531 109.5" />
      <path fill="#b0b0b0" d="M406.5 374.3L298.7 531.6l9.3 103.2-64.3-243.2" />
      <path fill="#4c4c4c" d="M742.4 306L708 212l51.4 180.4-32 77.2" />
      <path fill="#253c34" d="M500.4 294.7l-98.2.5-14-30 221.2-2.2" />
      <path fill="#7c7c7c" d="M723.8 603.7l-26-115.6 77.7 156-76.7-16" />
      <path fill="#767a7a" d="M541 481.2l45.2-107.4 51 125.5L417 548.6" />
      <path fill="#3e3e3e" d="M403 126l-70 41 149.6-66 78.4 18" />
      <path fill="#2f2f2f" d="M590.7 335l64.3-56 99 76.7-98-64" />
      <path fill="#333232" d="M492 185.6L485 45l-4.5 159 18.5 5.5" />
      <path fill="#070708" d="M379.8 455l-31.8 5.6 37.8-16.6 61.7 9.6" />
      <path fill="#fff" d="M509.8 593l27.5-35.6-96.7-96.2-90 188.4" />
      <path fill="#fef9fb" d="M288 241.7l190.7-33.4 20 3.2 48.8 34.7" />
      <path fill="#292728" d="M383.3 436.6l84 26.5-5.6-159 14.7 178" />
      <path fill="#2e2f2e" d="M273 248.3l-30.4 93 56-139 8 64" />
      <path fill="#111" d="M477.4 240.4l7 147.2 39.3-27.2-12 36.6" />
      <path fill="#0c0c0d" d="M729.4 458.8l20-77.3L696.7 523l-16.4-4" />
      <path fill="#fff" d="M508 402l-18.6-3.4-27.7-138.4L479 505" />
      <path fill="#fcfbfc" d="M243.8 333l218.6 77.6-27-126.5 46.6 1" />
      <path fill="#323233" d="M284 491l5 7-41.5-129.3 7.8 70.5" />
      <path fill="#fff" d="M609.6 284.3L507.8 505.6 530 312.2l18-13.6m187.7 250l-314 65.8 185.7 1.6-79.2-88.5" />
      <path fill="#606060" d="M326 485.2l-72.2 115.2 46-6.7-1.8-90.4" />
      <path fill="#fff" d="M708.3 488.8l-81.8 38.6 3.4-181L742 371" />
      <path d="M419.4 431l-4-3.3 21-7.4L479 433m34.5-72.4l-9.3 158.7-31.2 42 24.2-50.3" />
      <path fill="#212221" d="M379.4 316l-65.7 5.4 76.8 2.7-11-10" />
      <path fill="#323333" d="M530 553.7l-7.3-44.6 17.3 41 89 60" />
      <path fill="#131314" d="M620.8 432.5l-41-31.6 48.4 17-6 125" />
      <path fill="#555" d="M291.7 416.7l47.4-23.4 89 35.7-84-51.3" />
      <path fill="#505152" d="M689.6 506l-55.4 13-52.6-26 36 48" />
      <path fill="#3c3c3c" d="M562 568.2l-42.4 36.2-6.4-25 40.5-14.5" />
      <path fill="#47534f" d="M574.8 243l-63.3 111.7 54-140.4-74.2 7.8" />
      <path fill="#454545" d="M709.6 323.5l34.6-17-7.4 157 12-130.6" />
      <path fill="#fff" d="M506.2 544l-117 29 152 67-19.2 18.6" />
      <path fill="#252525" d="M408 169.3l15 7 37.4 1.8-11.4-7" />
      <path fill="#454545" d="M738 553.3l-51-36 50.8-85-35.2 84" />
      <path fill="#0f0f0f" d="M600.4 173.4l15.4-10.2 4.7 13-8.6 12.4" />
      <path fill="#faf2f6" d="M592.7 286l-116 2.4L302 290l169-8.6" />
      <path fill="#484848" d="M520.2 112.7l70.5 9.7 89.6 74.7-21-36" />
      <path fill="#1e5a45" d="M566.6 246H452.4l-19.2 39 131.6-3.6" />
      <path fill="#080808" d="M341.7 165.7l53.7-31.2-86.8 57.6-25.8 48" />
      <path fill="#243c34" d="M491.8 533.4l-49.4-3-27.4 20.3 52-13.2" />
      <path fill="#fff" d="M274.8 261L252 343l22.6 124.3 70-164.8" />
    </g>
    <g class="SVG--1">
      <path fill="#050203" d="M397.8 246.5l33-10.2 48-22-69.4 22.8" />
      <path d="M254.5 353.3l1.2-48.8-10.7 37.8 10 66.8" />
      <path fill="#333232" d="M543.7 463.7l3.6-50.7 3.5-38.4v199.6" />
      <path fill="#181818" d="M389.7 141.5l7.6-12.5 86.4-18-68 20" />
      <path fill="#fff" d="M571 770l-30-212.5-37.4 3 139.2 49.7" />
      <path fill="#2f2f2f" d="M442.8 669l-12.3-7 67-30.7 60.6-22.7" />
      <path fill="#fff" d="M367 400.2L264 427l7 12.4 160 8.5m-195.2-60l60 129-7.8 56-59.6 44M639 482l-97.7-1.4 2.4-198.3L510.5 495" />
      <path fill="#353535" d="M724 276.6l24.3 74.7-3.7-39.5L721 243" />
      <path fill="#292728" d="M526.7 349.2L552 338l-29.4-1.7-23.4 116" />
      <path fill="#070707" d="M324 442.3l18.3 4.3-3 5.2-49.3-4" />
      <path fill="#fff" d="M505.2 521.2l-50.5 113.3 70.5-40.3-25.8 62m78-151.2l-14 14.4-22.8 23.3L789 709.4m-498.3-492l-59 110.3L41 416.5 379.5 117" />
      <path fill="#1c1a1a" d="M473.5 408.8l-1.7-45.6-10 30.7L427 245" />
      <path fill="#2b2b2b" d="M747.4 627.6l-13 8.5 72.7 1-26-6" />
      <path fill="#fff" d="M663.2 283L531 221l45.7 10.4 2 57.6M698 514.5l213.5-392.3L748.3 361l-14 179.5" />
      <path fill="#0b0b0b" d="M736.2 602.8l-27.5 20.6 26-42-13-53.4" />
      <path fill="#fff" d="M570.4 108.7L721.6-31l16.6 288-69.2-82" />
      <path fill="#3d3d3d" d="M658.6 286.6l40 19.6 11.7 27.6-19.7-20.8" />
      <path fill="#1b1b1b" d="M619 382.6l33.4-4-.3.7 1 7.2" />
      <path fill="#212121" d="M303.6 517.6l-48-99.8 21 62.4 26.7 42.4" />
      <path fill="#414142" d="M513.7 526l-30.3-27.2-28.3-60 10 21" />
      <path fill="#fff" d="M506 103l-165.3 71.8-57.8 64.8 37 3.2" />
      <path fill="#171717" d="M438 653l95.8 1 5-15.8 22.6 26" />
      <path fill="#313232" d="M601.4 324l36-34 12-3.7-32.2 36.4" />
      <path fill="#fff" d="M523.3 354.5l-13.6 87 9-3.5 124-79.4M456.2 663l-28-38.4 32-86.2L327 575.6m134.5-279.8L484 468.2l-8.5-187 24.2 5.5m30.2 19l-42 152.7L516 331l9.2-40.7" />
      <path fill="#090103" d="M406.5 290.8l82.5 7 8 91.5 1.6-99" />
      <path fill="#434343" d="M574.4 415.4l26-1-67 14 55.3-30.8" />
      <path fill="#fff" d="M704 646.2l53.3-20.3-24.8-27-28.2 38" />
      <path fill="#585959" d="M661.8 461.8l-23 9.6 78.2-4.8 6 1.4" />
      <path fill="#fff" d="M458.8 428l3-22-25.3-109.6-85.3 44.6m369 262.4l8.4-39.8-50-46-128 46.6" />
      <path fill="#3a3a3a" d="M483.8 54.8l-.4 189.6 12-47.5-3.2 19" />
      <path fill="#1e1e1e" d="M290 555l33.2-77.8-27.6 43.4 6.4 81.7" />
      <path fill="#fff" d="M314.6 458L267 444.7l29.7 55 117-92m141 105.8l-2-78.8 77.7-8.3-52.5-5" />
      <path fill="#424343" d="M586.5 473l-1.5 31.8-66 11 38.8 12.7" />
      <path fill="#2e272a" d="M427.8 290l121-1 38.8-13-20.3 19.7" />
      <path fill="#fff" d="M653 473l42.2 36.5-51.2 5.3-37-193.4" />
      <path fill="#2b2729" d="M523.8 267l-31.3 144-16-94.7 29.8 52" />
      <path fill="#110c0e" d="M490.6 197.8l-37.7 7.8 36 1.8 38 2.6" />
      <path fill="#1e1e1f" d="M647 520.2l-29 28.3 4.7-17 70.4-19" />
      <path fill="#f8f0f3" d="M500.7 345.7l-.7-54.3 35.4 15-19-8.2" />
      <path fill="#363737" d="M752.7 604.2l-22.2-7 49.6 37-23 3.4" />
      <path fill="#2c2d2d" d="M561.4 566l62.6 36-75.8-33.3-29 29.3" />
      <path fill="#fff" d="M466 15L334.7 162.5 426 115l102.6-5m-97.3 424L309 531l142.7-69 44.4 60.5M772 292l52 379-87.6-82-1.7-145" />
      <path fill="#3c3c3d" d="M421.2 119.5l39.2-7 20 2.8-73 13.6" />
      <path fill="#3c3d3c" d="M368.8 142.5l-57.2 49.2L247 315.3l32.3-79.7" />
      <path fill="#232323" d="M500 468.7v58l19-180.2-13 65.4" />
      <path fill="#383737" d="M562 435l53.6-20.2-42.4 3.4L609 438" />
      <path fill="#0e0e0f" d="M260.4 591.6l11.8-4.6 26.3-10.6-39 26" />
      <path fill="#4c4c4c" d="M724.3 554.2L703.7 519l32.5 33-1.6 41.5" />
      <path fill="#fefefe" d="M690.8 211.8l-28.6-33L739 402l-2.4-100.4" />
      <path fill="#333" d="M736.2 277.6l-43.4-76.2 48 110.6 5 91.8" />
      <path fill="#1e0e14" d="M405.6 246.7l161.5 4.7-6 35 16-39.4" />
      <path fill="#fff" d="M707.2 480.6L564 296.6l-22.7-2.7-8.5 18M503 209l-84 34.8-18.2.4h122.4" />
      <path fill="#3e4140" d="M472.5 536.5l46.7-40-10.7-5.6-27 59" />
      <path fill="#1c2b26" d="M412.3 252.4l-3.3 20.3-12.2-31 75.4 9" />
      <path fill="#393939" d="M487.7 108l71.3 8 84.8 38.7-58-23.4" />
      <path fill="#fff" d="M537.6 556l-44 38.8-44.7 36 8 8" />
      <path fill="#8ef7d6" d="M560.2 256.2L411 254.8l5.5 8.8 140-3" />
      <path fill="#fff" d="M186.7 195l10.8 438.8 95.4-60.4-9-52.4m438-68l-35 63.4-52-54.4-11 72.5m-162-101l3 33.8-47-24.5 6-8.4" />
      <path fill="#0b0b0b" d="M550.4 451l-5 1.8 18.4-7.4 56.5 5" />
      <path fill="#fff" d="M502 461.6l-8.3 43.8-23.7-64.2 7.3-89.8" />
      <path fill="#040404" d="M480.8 629.3l-28 33 26.5-45.6 19.7 1.5" />
      <path fill="#363637" d="M489.5 85l2 38-4 31.4-4-69.4" />
      <path fill="#fff" d="M558.6 398.2l129.7 7.4L523 342.2 508 491" />
      <path fill="#f6fcfd" d="M619.5 518.3l-8-190-2 164.4-.3 31" />
      <path fill="#1d181a" d="M450.2 274.6l20.3 117-1.5-39-10-55" />
      <path fill="#161617" d="M478.8 482l-33.6-20-.6-6.6 68 70" />
      <path fill="#fff" d="M401.4 445.3l-59-57.8-66 46.6 83.5 16" />
      <path fill="#202020" d="M438.4 413l26 17.2-48.8 2.3 16-8" />
      <path fill="#4a4a4b" d="M302.4 413l2.2 3.5 42.8-36.7-67.4 33.8" />
      <path fill="#323232" d="M609 460.8l-33.6-.6 34.3 20.3-45.3-2" />
      <path fill="#fdfdfd" d="M489.7 94.2L491 202l102-64.3 18 169" />
      <path fill="#080808" d="M284.2 446.8l54-1.5-19 6-32.6-1.8" />
      <path fill="#232223" d="M544.2 498.6L546 413l5 88.2-7.7 21.3" />
      <path fill="#353535" d="M305.8 242l2.3 13.6-28 8.4 6-17.8" />
      <path fill="#fff" d="M654.8 680.7L528.5 517l93 36-118.8 49.3" />
      <path fill="#171818" d="M551.5 636.6l-33.5-20-10.8 37 26.8-44" />
      <path fill="#fff" d="M309.2 407.7l-49.4 4 5.8-131 39.2 1" />
      <path fill="#323333" d="M487 75.2l.8 155.4-3.4 10.3-2.4 18" />
      <path fill="#444545" d="M585 481.5l40.8 64.8-1-64.3-15.3 57" />
      <path fill="#161516" d="M473 440.6l-16.4-85.3 6.6 67.3 10.5 37.7" />
      <path fill="#323434" d="M467.2 543.3l32.2-24.8 38 15-20-17.8" />
      <path fill="#fff" d="M284.4 236.7l96.4 14.6 65.5-31.5 38-46.2" />
      <path fill="#1f1f1f" d="M681 512.6l31 15.4-16.7-3.7-38-9.4" />
      <path fill="#2b2b2b" d="M275 245.8l-24.3 65-2 51.7 15.7-80.5" />
      <path fill="#2c2c2c" d="M372.6 144l33.8-13.8-72.3 48-5-.7" />
      <path fill="#3d3d3d" d="M572.8 591.6l42.4 2-12.7-8L584 584" />
      <path fill="#1d1c1d" d="M698 211l-43.7-45 26.2 34 36.5 42.7" />
      <path fill="#fff" d="M541.3 346.8l-16.7 1.6-19 135.7 39 14m-18.8 126l-7.8 27 4.8 4 15.2-6" />
      <path fill="#2d2d2d" d="M560.4 494l-.6-1.5 16.4-5.6 50.5 8" />
      <path fill="#121212" d="M433.5 632.7l-3-13 66 44.3-17.4-3.4" />
      <path fill="#4e484b" d="M504.6 225.8l77.7 20.3-82.8-34 74 8" />
      <path fill="#fbfbfb" d="M609.7 269.5l-47 .7 68.7 40.6-7.4-78.4" />
      <path fill="#fff" d="M552.6 505.7l-1.5-45.5 9-20 3 72.4" />
      <path fill="#232625" d="M413.3 271.6L603 266l-214.6-2.6 18.3 8" />
      <path fill="#fff" d="M451.4 653.4l2-3.6-59-38.7L278 593" />
      <path fill="#100e0e" d="M431.5 231.6l27.5-3.4-4.3-26.4 11 15.2" />
      <path fill="#30292b" d="M418.3 265.4L407.7 284l5.2 7.8-21-5.8" />
      <path fill="#fff" d="M553.7 551.8L650 616l-56.4-109.7-26.4 2.3" />
      <path fill="#f8f2f4" d="M449.4 289.5l-4.7 5.6 22 94-17.3-113" />
      <path fill="#fff" d="M533.2 538.7L460 639.2l29.8-112.5 76.7 22" />
      <path fill="#6a6a6a" d="M718.7 326.4l15.3-5-57-11-25.6-31.4" />
      <path fill="#fff" d="M549.2 434.3l17.7-14 32 4.6 7 2m-148-42l-24-89-15-1-38-10" />
      <path fill="#313132" d="M658.7 283.3L608 321l26.8-10.7 2.4-23.6" />
      <path fill="#182b25" d="M473 528.8l10.6 30.3 1.2-25-56 5" />
      <path fill="#585959" d="M435.4 457L393 445.5 339.8 464l50-8" />
      <path fill="#222" d="M482.6 668l29-10 11.4-40.5 14 .3" />
      <path fill="#fff" d="M284 585.3l31.8 14.5 231.7-41.4L97.5 799m623-219l7.4-21.7-75-39.2-70 67" />
      <path fill="#1e1619" d="M529.8 333l5.4-52.5v-.2l-12 53.6" />
      <path fill="#fff" d="M714.4 97.2L778 271.5l-145-124-65-29.8" />
      <path fill="#3f4041" d="M280 329.4l-4.8-7.6-9.7 5.8 23.2 3" />
      <path fill="#fff" d="M552.6 421.2l5 50.7 144.5 2-150-11m-33 138l35 17-228-24 130.7-60M234 317l12.4 51.6 17.4-198.2L333 145m179.3 512l-51.8 42.6 3.7-49.8L564 761.4" />
      <path fill="#2a2829" d="M517.7 327.5l6-56.3-14 63-13.6 55" />
      <path fill="#343434" d="M523.2 612.3l27 44-5 12.3 2.2-45.5" />
      <path fill="#f8f8f8" d="M508 653l-32-.3 28-9.5-6.6-108.6" />
      <path fill="#5a5959" d="M553.3 336.4l16-30-21.5 40.3-34.2-3.8" />
      <path fill="#fff" d="M511.7 374l18.7-90L483 449.4l1 37M423 409l-9.5 28-71.2-130.3 15 84.5" />
      <path fill="#1d1c1c" d="M623.5 417.5l-62.7.2-7.4-3.2-6 9.8" />
      <path fill="#fff" d="M545.7 597.5l55.5-6.4 96.4 84L549 654" />
      <path fill="#fdfdfd" d="M619 149.6l-98.4 69-14-102.8 73 14" />
      <path fill="#fff" d="M696.8 218.2l-86-35.3-38 76 157 24M580.3 451l32.4 1.5-11.5 6-43 .5m166.5-6.7l-74 10.7 6.7-155 35.8-.4m33 208.3L745 629 561.2 746l205-163m-268-69.8L467.5 407l45.6-11.3-9 3.7" />
      <path fill="#151515" d="M550 463.4l-.2 2.3 19.5-5.8 32.7 5" />
      <path fill="#2f2e2e" d="M539.4 496.7l8.6 12 1-1-44-16.4" />
      <path fill="#515151" d="M380.6 319l9 8.8-68.6-10.4 38.8 1.3" />
      <path fill="#383838" d="M303.7 521l-32-54.3 24 26.3.2-3.8" />
      <path fill="#fefefe" d="M317.5 197.7l-30 37.5 108 18.2 41.8-124.7" />
      <path fill="#3a3a3a" d="M293.6 218.8l-40 91.4 6.5-29.5 28-58.7" />
      <path fill="#fff" d="M259.6 326l159.7-56.4-144.6-6.6-13.3 37m479 96.2l-1.5-73.7-90 7 50 151.2" />
      <path fill="#f4fbfc" d="M521.6 499l-10.3 5-8.7 12.5 40.2-8" />
      <path fill="#fff" d="M461.4 419.2l-155.6 24.4-52.4-78.7 13 76" />
      <path fill="#585858" d="M376.8 394.8l21.2 31-49-42 3.4 22" />
      <path fill="#fff" d="M586.6 237.4l48.6 231.8 94.7-35.5-127-18.4m-48 177l27 6.5-102 33-1.6 5.5" />
      <path fill="#fff" d="M579 288.4L537 304l-6 34.6L667.6 277M495.2 513L462 476.3l-95 25.4 114.6 32.8" />
      <path fill="#101010" d="M635.7 150.5l-16.5-4 26.6 17.8 27.8 24.2" />
      <path fill="#fff" d="M560.8 234l93-83-88.2 74.2-45-4.3" />
      <path fill="#212121" d="M443 665l46-15.5 14-19.5-66.3 31.4" />
      <path fill="#1a1a1a" d="M253.2 419.5l-5.8-71.8 15 86.4 18.6 48" />
      <path fill="#f8f8f8" d="M480 198.8l3 5.2.3-89.2-46 11" />
      <path fill="#fff" d="M270.7 450.3L297 501l147-105.8-109 56.5" />
      <path fill="#666" d="M635.5 299L614 325.3l-38.8-3 36.6-4.7" />
      <path fill="#2f2f30" d="M626 414.2l-1.2 2.8 1.6 136-7.8-120.4" />
      <path fill="#020303" d="M606 171l-2 4.5 9.4 5.8-.8-20.6" />
      <path fill="#2b2b2b" d="M423.4 236.7l25.2-5.5 13.5-10.8-61 19" />
      <path fill="#5c5c5c" d="M634.7 375.6l-11 9.4h20.5l1-8" />
      <path fill="#fff" d="M439.7 242.7l48.5-32.6h-30.4l33.4 33" />
      <path fill="#7f7f7f" d="M566 191l-20 1.5 9.7.2L562 180" />
      <path fill="#fff" d="M502 283l4.3 67.6-3.8-11.5 9.5-14m104.3 123l-2.6-12-72.4 8.6 66 1" />
      <path fill="#424242" d="M727 594.7l-26.8 40.6 30-30 12.6 2" />
      <path fill="#eaf1f2" d="M616.8 425.7l-7.2 83.8 9 20.8.5-58.8" />
      <path fill="#2d2d2d" d="M717.6 599.2l24.6 5 25.3 29.6-15.2-29.4" />
      <path fill="#fff" d="M466.4 106.8L257.8-31 209 315.4l140.8-167.8m367.6 393l-57-22 59 88.5 10.6-27" />
      <path fill="#231f20" d="M428.5 290.7l14.7 19.6-4.8-14.3 39.3-6.5" />
      <path fill="#fff" d="M299 429.7l-14.3-63 50 12-33.5 27.5" />
      <path fill="#2c2c2c" d="M444.6 171.3l-26.2 4.7 23.3 2 28.5-5.6" />
      <path fill="#181818" d="M749.3 352.6l-17.7-75.8 10 44 1.6 77.5" />
      <path fill="#fff" d="M482.4 138L482 29l61.5-36L470 110.6" />
      <path fill="#3e3d3d" d="M506 290l-3.7 7.6-7.8 106L475.2 302" />
      <path fill="#fff" d="M925.4 715.5l-106.6-76-72-5 139 104M240 722.8L539.7 664l48 13.3L464 662.7m50.2-52.8l7-83-20-3 1 131M743 455l-3 137.8 181-.7-228-75m-404 41L145.6 737l95.8-461.2 7 118.8" />
      <path fill="#464646" d="M338.3 446.7l-46.5-4-17.5 9-2-.8" />
      <path fill="#fff" d="M533 655l2.5-26.7-11.3 1-3.8 23.7m18.4-106l110.8 63.7-31.2-76-23.8 2" />
      <path fill="#292828" d="M497.8 499.2l53.5 2.6-16.4-4.5-19-3" />
      <path fill="#a2a2a3" d="M393.3 209l-5.2-9.8-37 5.5 28-3" />
      <path fill="#0c0c0c" d="M591.8 499l-27.2 7 42.8-3-4.4 11" />
      <path fill="#262626" d="M496.6 654.7l23-16.4-2.3 14.6 10 12" />
      <path fill="#2d2d2d" d="M303.6 513l21.8-32.3-33 56.3 7.5 7.8" />
      <path fill="#392d31" d="M423.5 275.5l-41.8 6 140.7 1.6-37.4-3" />
      <path fill="#fff" d="M625.8 531.3l75-52.4-2.4-4-66.8-9" />
      <path fill="#3c3c3c" d="M564 120.6l15.8 8.2-100.8-21 88.7 12.2" />
      <path fill="#4f4f50" d="M513.2 598l22.4-27.8-25.6 17.6h38.2" />
    </g>
    <g class="SVG--2">
      <path fill="#333031" d="M537.5 302.3L505 406l16-67.5 9.3-37.6" />
      <path fill="#404040" d="M615 534.6l60.6-25.8-58.2 31.2 15.8-2" />
      <path fill="#b4b4b4" d="M675 432l8.6-8.6-16.2-12.5 7 3" />
      <path fill="#fff" d="M342.8 395l126.6 75-4-35.6-190.8 1" />
      <path fill="#ebf0f1" d="M657.7 494.2l-93.7 2.4 32 5.8 26-7" />
      <path fill="#464646" d="M638.3 469l27.4-8 33.8 8-59.3-.8" />
      <path fill="#fcfeff" d="M454.6 237.7l81-4 28.2 10.4h-53.4" />
      <path fill="#231e20" d="M394.7 263.5l-9 .7 1.4 4.7 96-1" />
      <path fill="#fff" d="M578 398l21.5-120-86 123.8 45.4 16" />
      <path fill="#323232" d="M529.8 542.8l.6-14.2-39-15.7 50.6 25" />
      <path fill="#4da283" d="M413.2 271l33.7 4.6 92 1 18-7.4" />
      <path fill="#262727" d="M447.2 465.2l26.4 13.8-10.7-10.4-34-17.6" />
      <path fill="#2e2e2f" d="M306.5 402.4l-.5 7.4 37.7-30.4 8 3.6" />
      <path fill="#232222" d="M557 481.3l7.4-2 32-2-30.6-3.7" />
      <path fill="#313131" d="M508.7 422.7L528 326l-1.3-6.7-12 39" />
      <path fill="#262626" d="M633 154l-30.7-22.3L586 130l43.4 23.4" />
      <path fill="#373637" d="M516.8 554.7l19.2-14 11.2 23.5-1.4-13" />
      <path fill="#2c2c2c" d="M299.3 581.6l7.5 8-12-1.3-1.4-61.6" />
      <path fill="#fff" d="M536.3 200.2l64.5-60.4L490.6 114l-.3 82.2M740 433.8l-27.6 60 38 111 46.8-536m-268 453l25.6 42 39 11.7-43-50.4" />
      <path fill="#333334" d="M432.6 666l-6-13.5 4.4-5.7 26.8 20" />
      <path fill="#050605" d="M550.3 430l-1 28.5-4 1 .6-29.8" />
      <path fill="#363636" d="M427.5 121l39.2-9-94.7 35.7-.3-4" />
      <path fill="#2a2a2a" d="M487 614.3L471.6 650l-4-3 2.3-22" />
      <path fill="#333132" d="M470.7 398l-31-112.8 4 36.8 23.8 88" />
      <path fill="#fffeff" d="M456.5 334l.3-15-12-32.3 4.6 35" />
      <path fill="#151414" d="M606.6 434.8l-18 1.8-43.6-1 65-3.6" />
      <path fill="#fff" d="M199.8 618.7L444.3 579l-19.6 76 94.4 81" />
      <path fill="#fffeff" d="M469.4 352.5l-.6-15.8 5.8-54 9 112.6" />
      <path fill="#fdffff" d="M507 235.7l-6.7 4-15-31.3 23.5 3.3" />
      <path fill="#2d1c22" d="M524.7 279l48.8 5.5 8-8 1.8.5" />
      <path fill="#4f4f4f" d="M716.7 323.4h-20l-3.5-24.7-22 4.5" />
      <path fill="#fff" d="M771.5 539.5l-42.2 58.8L936 615l-199-33M397.3 444l-43.5-128-94 95 118.8-65.4" />
      <path fill="#343535" d="M721.7 479l-21.2 23.3 36-79 11.6-61.6" />
      <path fill="#fff" d="M506 498.6l11-7.7 28.4 2L518 368" />
      <path fill="#2f302f" d="M516 594.7l12.4-26-11.7 32.6 30-23.8" />
      <path fill="#fdfdfd" d="M594.8 390l47-94.7 22-.8 38 63.4" />
      <path fill="#fff" d="M382 248l87.3-82 8-10.4-27.8 65.4m39.8 282.7l-34.3-35-22.5-10.4-47 104.7m166.3 10.4L525.3 600 724 799 573 579.5" />
      <path fill="#1e1e1f" d="M572 573.5V568l16 20.5-3.5 5.7" />
      <path fill="#fff" d="M366 450.2l44.6-4.7-39-41.2L312 402" />
      <path fill="#aeaeaf" d="M664.6 342l-17.8 4 7.5 4.8.3 4.4" />
      <path fill="#f0f3f4" d="M620.2 483l-46.4-3.5-31-.3 42.4 10" />
      <path fill="#1c1c1c" d="M436 621l4.4 6 3.4 1 18.2-14.8" />
      <path fill="#414040" d="M502.5 532.3L482.2 491l37.5 34-19-6" />
      <path fill="#3a3939" d="M478.7 283.5l11.8 111.7-13-41 2.2 16.3" />
      <path fill="#fff" d="M358.8 338.8l70-42.8 20.6 51 11.6 81.8" />
      <path fill="#505151" d="M300.7 250.5l-7-12.2 13.3 23-36 2.6" />
      <path fill="#e6e8e9" d="M309.3 505.8l51.5-58-6 24.7-49 49.3" />
      <path fill="#403e3f" d="M517.7 222.3l.2-23.3-8 19.6 74 .5" />
      <path fill="#565555" d="M612.3 408.8l-27.4-8.4-28 9 31-5" />
      <path fill="#4c625b" d="M438.6 540l-11 10.6-13.5-1 62-25.6" />
      <path fill="#282727" d="M403.8 450l-24 3.4-23 9L365 451" />
      <path fill="#444445" d="M314.3 489L297 531.6l24.3-43.7 9-13" />
      <path fill="#fff" d="M742.2 350l-43.4 70-13 92.8 16.6-17.8" />
      <path fill="#2d2d2d" d="M744.4 395.4L734 438l6.8-63.3 2.2 8.4" />
      <path fill="#343334" d="M616 445.5l-51-.3 37.2 8.4-9.7.8" />
      <path fill="#4e4f4f" d="M735.6 582.8l-9.4 26.8 9.2-89.3-4 36.7" />
      <path fill="#2b292a" d="M548.8 295.7l-123.2-2.4 14.6-4.5 96.5 3.6" />
      <path fill="#fff" d="M716.5 407.3l-40 62.7-51.8-93.4 2.4 92" />
      <path fill="#1f2020" d="M468.7 448l1.4 29 9 13.8-13-71.8" />
      <path fill="#2d2d2d" d="M685.4 192.6l-42.8-34 64.2 66.4-28.7-37" />
      <path fill="#fff" d="M350.3 526l91-57.5-21.2 92L308 454" />
      <path fill="#e1e2e2" d="M640 415l-31.7 2-23.5-11.8-12.3 7.2" />
      <path fill="#252525" d="M550.5 654l-28.4 1.4 29 10 11-1" />
      <path fill="#fff" d="M729 159.6l-244.3-59.3 13.2 17.4L518 50" />
      <path fill="#323232" d="M591.5 399.2l-16.3 1.5 47.5 18.4-16.2 4" />
      <path fill="#fff" d="M192.8 603l100-24.8-2.5-59-75-179m411-292.7l-42.5 67 74.4 52.6 61.6 64" />
      <path fill="#7e7f80" d="M583.5 364.6l5.4-12.8 4 7.7-13 2.7" />
      <path fill="#fff" d="M308.7 287.6l-48.3 136 77.4-46.2 50.8 25" />
      <path fill="#fff" d="M278.6 253.5l3.6-6.7 9.6 139.8-22.5-102.4" />
      <path fill="#2d2d2d" d="M663.7 518.5L697 517l36 30.7-49.2-33" />
      <path fill="#8a9792" d="M433.7 337l-5-15.8 39.7-72.4-45.2 83.6" />
      <path fill="#393939" d="M555 528.3l21.4-33.7-26.3 24.2-7-3" />
      <path fill="#fff" d="M635.2 322.5l99 99.8 7-45.5-1-48.5" />
      <path fill="#505050" d="M306.7 574.3l-44 15 5.4 2.2 10 .4" />
      <path fill="#fff" d="M505.7 349.8l5-33.6L513 292l-8.3 13" />
      <path fill="#656565" d="M427.8 320.5l-84.7-3-6 11.8-2-9.4" />
      <path fill="#fff" d="M372.6 289l-16.3-126.7-31 27.2-23 65" />
      <path fill="#fefefe" d="M469 643.3l-25-14 64.5-24.3-70.4-50.2" />
      <path fill="#fff" d="M522.3 565.7l-71.6-22-226 82.2 283.8-18" />
      <path fill="#393838" d="M425.2 230.6l24.3 2.2 15.4-29.5-4 26" />
      <path fill="#29302d" d="M423.2 282.2l-19-27.5-6-6 8 22.6" />
      <path fill="#fff" d="M255.4 332.6l132-10L263.7 429l-8.7-49" />
      <path fill="#313131" d="M544.3 499l7.3 25.7-2.8-115.4-3 75.4" />
      <path fill="#2a2a2a" d="M498 638.5l-18.8-29.2 22.3 21.2-25 23.2" />
      <path fill="#3b514a" d="M426 540.7l47.3-13-53.8 23.5 11.6-12.8" />
      <path fill="#fffefe" d="M610.3 219.2l-78.8 5.5 61 22.4-76.8-77" />
      <path fill="#353334" d="M542 251.3l-17.8-8.2 41-2-159 10" />
      <path fill="#fff" d="M467 129.2l15.7-25 .3 92.7-31.5 6M350.2 387l5 98 2-44.6-81 3.7m446.2 103l3 55-132.2 34 65.3-116M451 283l-40 1.3 58.4 4.3 41.8-4" />
      <path fill="#494949" d="M577.8 466l-19.8-6 46-1.2 28 4.5" />
      <path fill="#fff" d="M286.5 586l-21 13.2 15.2 47.6 171 25.6" />
      <path fill="#fefefe" d="M824.2 619l-64.6 11.3 26.8-54.2 37.6 16" />
      <path fill="#535454" d="M337.8 324l58.3-2.4-24-6-34 3.4" />
      <path fill="#fff" d="M757.2 628.8L727 603l25.8 10.8-90.4 32" />
      <path fill="#262626" d="M490.7 136l-5.6-14 4 108-3 15" />
      <path fill="#fff" d="M320.3 347.3L372 241.8 352 330l-36.6-100" />
      <path fill="#312f30" d="M518 294.8l-106.4-.5 118.2-5.5 46.8 1" />
      <path fill="#382a2f" d="M571 266l18-4.4-3.5 9.3-82.5-6" />
      <path fill="#3c3c3c" d="M746 340l-9 73.5-14.6 57L745 408" />
      <path fill="#fefefe" d="M757.3 404l-45 87.3 34.5 109.2L749 80.3" />
      <path fill="#fff" d="M694.6 218.3L608 303l-41-38-.6 13.2" />
      <path fill="#2d2e2e" d="M736.7 288L717 244.6l29.8 92.2-8.7-47.4" />
      <path fill="#fff" d="M604 414l133-85.4-110.5 171.2 10-79" />
      <path fill="#444445" d="M357 400l18.3-1.5 17 17-56-41.4" />
      <path fill="#fff" d="M150.8 305l150 210.7-28.3 40-44.2 107.8" />
      <path fill="#fafbfc" d="M561.8 424.6l-12.7 110 15-55.2-10-22" />
      <path fill="#312f30" d="M521.7 205.6l-48-9.5-10.3 11-3.2 3" />
      <path fill="#fff" d="M467.6 654l25 33-80.4-30.2L371 756m278-582.6l-71.5 82L738 314l-63-16.2m45 166l-33 47.5-40.2.8 8.6-36m-111-181l-15.8 36 117 40-83.5-72m101-5l-19-1-12 31 106 89" />
      <path fill="#525252" d="M710.8 630.6l-12.7-8.3 17-3 26-48.3" />
      <path fill="#f6f3f6" d="M559.3 283.7L543 289l-136.8-5 136.8-.6" />
      <path fill="#e5e5e5" d="M473.2 644.4l18-13.8-36.5-75.4 33 64" />
      <path fill="#fff" d="M500.5 444l10.7-81.2 13.3-42.8-46 121m61 109.4l-3.5-29 54 64.7 14.7-67" />
      <path fill="#f7fffe" d="M434 264.8l-14.4-11.6 24.8 1.3-3.3 4" />
      <path fill="#272a29" d="M569 274l-4.4-33-62.8-22.3 65 20" />
      <path fill="#f7f7f7" d="M742.5 345.8L729 280.2l-31.8-59.6-26.7-31.3" />
      <path fill="#3e3e3e" d="M249.6 333.4l10-36.7-10 100.6-1.8-38.5" />
      <path fill="#fff" d="M603.6 517l-28.8 49.2-14.5-48.3 20-12m-233-255l40.7 58 6.4 93 31-96" />
      <path fill="#fefefe" d="M633 156.5L573.6 262l125.8 12.7-108-139.2" />
      <path fill="#434343" d="M639 383.7l-6.6.6 15.3-8.6L652 386" />
      <path fill="#fff" d="M982.7 678.2L614 799 475.5 679.4l288.2-44.7" />
      <path fill="#2f3030" d="M261 440.2l-8.5-75-4 27 35.8 95.5" />
      <path fill="#36433f" d="M484.2 541.3l-53-11 49.2 5 18-15" />
      <path fill="#282728" d="M528.2 526.4l-3-10.5-6.2 6 19.2 23" />
      <path fill="#fff" d="M265.6 260.6l57.2-98.8-184 140.6 73.4 146" />
      <path fill="#7f8080" d="M485.2 311.4l11.7-47.8-8 30.2-2 81.4" />
      <path fill="#302f30" d="M289.2 232l-3.8 24.8 20.3 6.7-27.5-17" />
      <path fill="#fff" d="M578 584.8l-32.6 66.6 78.7 35 31 17" />
      <path fill="#2b2a2a" d="M527.8 218l35.8-1.5-16.3 6.7-39.6-6.8" />
      <path fill="#fff" d="M463.4 528l35-9-77.7-43-36.3 72.5m71.7-434l38-12L347 71l-1.6 50.3M736 607.8l-38 28 1.3 93.8L747.7 613m-523.5 7.3l268.3-7 46-58.3-70.2-1.6M287.3 237l48.3-59.4 117.2-21.4L293 242.6" />
      <path fill="#393a3a" d="M500 478.8l12.3-66v-24.3l-4.7 6" />
      <path fill="#303030" d="M733.5 574.8l-1.6 35.8-3-43.6 5-14.4" />
      <path fill="#282828" d="M778.4 635.3l-39.2-1 19.2-6.7-3.4-2.6" />
      <path fill="#494949" d="M547.3 337.3L525 339l2 3 31 3.3" />
      <path fill="#f6f6f6" d="M455.4 646.7l-54-18.4 44 23.7-10.7 5.5" />
      <path fill="#eff3f4" d="M603.5 470.8l16-20.7-49 5 50.5 5" />
      <path fill="#fff" d="M395 453.6L357.2 464l125.5 28-75.8-38.3" />
      <path fill="#323232" d="M438.2 612.2l3 29.5 38 10-47.6-16" />
      <path fill="#3b3b3b" d="M490.5 613.5l14.3 15.5-1.3 8.4-22.7-19.3" />
      <path fill="#e9edec" d="M407.8 244.6l-4.3 6.6 11.7-5.8 89.5-29.2" />
      <path fill="#fff" d="M618.5 375.5L595.8 290l12.4 116.8-83-32.8" />
      <path fill="#424242" d="M685 195.5l37 51-10.2-.6 2 1" />
      <path fill="#ededed" d="M563 473.8l4-5 29.2-4.5-4 8.4" />
      <path fill="#3f3f40" d="M438 414l-6.4 18 17.3.7 1-16.2" />
      <path fill="#2c2d2d" d="M455.5 463.6l-34-15-16.4 2 10 3.4" />
      <path fill="#fefefe" d="M567.3 414.2l-36.5 6-26 33.5L559.2 324" />
      <path fill="#1a1b1a" d="M307.4 498.3l1 9.4 13.2-23.8 5 2" />
      <path fill="#757676" d="M382.4 386.2l8.2-3.6 2.2 12h1.2" />
      <path fill="#fff" d="M517.3 605.5l8.8-7.4-37 57 10-2" />
      <path fill="#3e3e3e" d="M627 477.5l-7.3-46.8-.8 85.4 5 11" />
      <path fill="#fcfbfb" d="M600.7 446.3l2.4-7.6-47-2-6 3.8" />
      <path fill="#373738" d="M486 666.4l-17-43-6 22.3-28.7-11" />
      <path fill="#fdfdfd" d="M324.5 249l129 141.4-62-116.6 27.7 3.7" />
      <path fill="#303030" d="M680.2 194.3l-20-14.7-26.5-25.7 32 22" />
      <path fill="#161616" d="M656.4 285.5L634 293l15.8-4 24.7 2.6" />
      <path fill="#393838" d="M458.6 283.7l12 93.7-1.4 33.2-1.4 26.4" />
      <path fill="#404040" d="M543.8 559.6l38.6 15.6-1 18 8.3-5.2" />
      <path fill="#373737" d="M552.7 511.2l-10 5.2 25 3.8-54-2.2" />
      <path fill="#2f2f2f" d="M536.5 651.2L548 646l-6-14.5-8-17.8" />
      <path fill="#cfd6d8" d="M337 449.2L325.2 473l22 11.4L355 474" />
      <path fill="#222223" d="M759.3 629.2l16.2 1 12 1.7-3.8 1" />
      <path fill="#262626" d="M424.8 654.5l34.8 8.3-11.2 2-11-1.7" />
      <path fill="#fff" d="M388 587.6l-32.2-43.3L542.2 559l8.2 11.4" />
      <path fill="#393939" d="M530 670.2L512.8 659l-5-23.6 5-4.4" />
      <path fill="#fff" d="M298.4 502.3l12-3.3-1.4-23-47-53m99.4-28l-60-98.8 97 74.5-24 22.3" />
      <path fill="#f3f3f3" d="M339.8 386l7.4 11.3-32 3 2.5 20.4" />
      <path fill="#fcfcfc" d="M584 421.7l-24.3 4.7-8.5 1.4 62.4 5" />
      <path fill="#3c3b3b" d="M603.8 506.6l-19-5.5 43.6 43-23.7-16" />
      <path fill="#2c2c2c" d="M546 664l13-5-40.3 7.4 28-22.4" />
      <path fill="#fff" d="M532.7 537.3l-32.6-12-9 5-4 21.7m-14 28.3l-149-93.7-27 73.4 25 90" />
      <path fill="#fcfcfc" d="M667.2 294l45 184.2-19.3-168-40-9.2" />
      <path fill="#fff" d="M430.3 679.3l82-18.3 103.4 63.3L489 754" />
      <path fill="#575657" d="M679.4 464.4v10.4l18.4-12.5-49.7 5.3" />
      <path fill="#fff" d="M454.2 365.5L406 311l-3 33.5 53 86.7" />
      <path fill="#313131" d="M506.2 112.2l58.6 7.2-23.4 1-47-6" />
      <path fill="#fff" d="M671.5 499.7l3-36.2 30.8 25.8 28.5-72m-207-80l-15.6 105.3 31.2 54.7 2-121" />
      <path fill="#3b3a3b" d="M313.8 192.5l-28.6 34.8 79-76-24 16.6" />
      <path fill="#191919" d="M372 457l17.2-6.5 44.8 4-34.3-6.5" />
      <path fill="#303030" d="M461.6 645.3l12.7-26.6 25 15-8-18" />
      <path fill="#fcfbfb" d="M372.8 154.8l110 64.3-15.8 28-3-38" />
      <path fill="#212121" d="M639 298.6l-23 16.6-5-1.4 22-2.3" />
      <path fill="#fff" d="M443.2 539h37.5l-38 75-240.2 181" />
      <path fill="#383335" d="M379.7 282.2l121.4.5 90-.7-96-7" />
      <path fill="#606061" d="M305 416l7.8-4.6 2.2-11.6-20.3 15.5" />
      <path fill="#fff" d="M474 440.5l-6-40.8 31.7 99.2-20.3-20m-154-227L470 118l-97.6 33-28.8 20m52.7 78.6l-12.3-10 73-20-40.7-50.5" />
      <path fill="#efefef" d="M311.5 255.4l61-35.7L293 255l-8.6-8.7" />
      <path fill="#424343" d="M304 400l31-7.4-2.5 7 54.4-.5" />
      <path fill="#fff" d="M523.6 519.8l11.7 14 21.5 32 110 2.3" />
      <path fill="#2f3332" d="M425.6 245l32 8 54-2.4 45.8-4.4" />
      <path fill="#313232" d="M738.2 600.7l9 1.3 16.6 17.3-11.4-6" />
      <path fill="#fff" d="M260.3 414.2l12.5 38.3 37.8-159 43.8 80.6M253 423l38 147.8-84.7 67 32.6-311" />
      <path fill="#ecf0f1" d="M492.6 231.3l3.2 14.7 45-2.8 6.8-3" />
      <path fill="#404041" d="M710 527l-24.5-16.6 44.4 41 8 27.3" />
      <path fill="#fff" d="M685.8 519l-77.4 127.2 14.6-99 20.4-21.2" />
      <path fill="#d3d7d9" d="M607.4 517l9.8 9 2.8-11-2.4-75.5" />
      <path fill="#313030" d="M450 341.5l18.2 62 8.5 1.5-18.3-23.6" />
      <path fill="#fff" d="M561.5 442l-8.4 77.5-1-90.8 6-7.6m-63-16l-20-29 1 85 25-16" />
      <path fill="#727273" d="M587.8 318.8l7.3 7.8 27-13.6-17 7.8" />
      <path fill="#fff" d="M361.3 189.5l56 168.5 19.5-63-180.4 29.4M474 293.2l-5.2 6-10.8-3.6 18.7 56.2" />
      <path fill="#1f1f1f" d="M644.2 520.2l-23 27.3 11.3-21.6 45.5-13" />
      <path fill="#fefefe" d="M411 441.7L359.4 369l45.8 31.5-32 26.8" />
      <path fill="#3b3a3a" d="M451 323.2l-16.7-30.8 7.3 24 25.5 87" />
      <path fill="#fff" d="M358.2 666.7l-65.5-81.5-58.8 34 97 40.2" />
      <path fill="#333534" d="M579.2 246L549 282.4l22.4-14-5.7-26.4" />
      <path fill="#fff" d="M679.6 518.2l32 16 12.7 19 2.5 41.3m-326 21.4l48.5-151-131.6 163L457 651m310.3-377L741 425l-27.7 78L829 705.8M441.3 799l179.2-207.5-42.3 77-105.8-2.5M479 94.8L389 135 163.4 261.2 564-24" />
      <path fill="#fefefe" d="M621 313.6l-24.3 46L556 417l123-97.4" />
      <path fill="#fff" d="M276.5 251.6l56.6 122-37 41.4-7-51m287-182.3l101 13 40 54.3v76" />
      <path fill="#fefefe" d="M621 532.6l-3.3 75-17-93.7-52.5 34" />
      <path fill="#454344" d="M517 233.2l-6.4-13.5 2.7-22 3.3 22" />
      <path fill="#61c0a2" d="M439.7 260.2l.4-3.2 54-3.8 44 10.8" />
      <path fill="#323132" d="M523 301l-26.2 92.2-2-99.3-6.3 106" />
      <path fill="#fdfdfd" d="M592.7 273L531 160l92.4 99-69.2 17.5" />
      <path fill="#fff" d="M632.4 463.7l-4.2-114.5-66 34.2 142.4 78.4M344 387l7.4 5.8 4.2 84-35.4-63.3m321.8-269l47.6 53.5 27.8 41 246 97" />
      <path fill="#3a3a3a" d="M382 401.8l-12 1 .3-7.6 19.7 26.3" />
      <path fill="#262626" d="M670.6 514.6l-38 14.3 15.2-12 .5-2" />
      <path fill="#282829" d="M740 318.3l-.7 10.5 7.7 59.4-2.2-56.7" />
      <path fill="#2c2c2c" d="M533.7 616.4l.5.4-31.2 39.8 13.5-34.7" />
      <path fill="#262324" d="M519 303.4l-1.8 15-5.8 23.8 5-50.2" />
      <path fill="#fffeff" d="M571.2 224.5l-69-1.5L679 236.7l-99.3 24" />
      <path fill="#333" d="M622 420.3l-74.3-4.5 10 7.2h6.2" />
      <path fill="#20201f" d="M726.4 551.4l7.2 17-7.4-22-24.6-26" />
      <path fill="#fff" d="M767.3 418.4l-72 96.8 20.4 12.5L869.3 742M656.6 176.4L614 179l-16 148 91.6-114.3" />
      <path fill="#3e3d3d" d="M462.4 220l-2 4.5L398 247l18-14.3" />
      <path fill="#cdd0d2" d="M486.2 287.5l9.4 1 84-.5-25.4-3.4" />
      <path fill="#fff" d="M785.2 788.7l-221.5-215-21.4 7.3 6.4 52m-44-223.8l-9 65.4-31-174 9.7 87" />
      <path fill="#474747" d="M389 321.5l-33.4 2.7 1-4.5-25.8-3" />
      <path fill="#363535" d="M577.6 404l-23 19.6L576 409l16-7.4" />
    </g>
  </g>
</svg>