<svg version="1.1" viewBox="0 0 1024 768" width="1024" height="768" xmlns="http://www.w3.org/2000/svg">
  <g fill-opacity=".5">
    <path fill="#050203" d="M397.8 246.5l33-10.2 48-22-69.4 22.8" />
    <path d="M254.5 353.3l1.2-48.8-10.7 37.8 10 66.8" />
    <path fill="#333232" d="M543.7 463.7l3.6-50.7 3.5-38.4v199.6" />
    <path fill="#181818" d="M389.7 141.5l7.6-12.5 86.4-18-68 20" />
    <path fill="#fff" d="M571 770l-30-212.5-37.4 3 139.2 49.7" />
    <path fill="#2f2f2f" d="M442.8 669l-12.3-7 67-30.7 60.6-22.7" />
    <path fill="#fff" d="M367 400.2L264 427l7 12.4 160 8.5m-195.2-60l60 129-7.8 56-59.6 44M639 482l-97.7-1.4 2.4-198.3L510.5 495" />
    <path fill="#353535" d="M724 276.6l24.3 74.7-3.7-39.5L721 243" />
    <path fill="#292728" d="M526.7 349.2L552 338l-29.4-1.7-23.4 116" />
    <path fill="#070707" d="M324 442.3l18.3 4.3-3 5.2-49.3-4" />
    <path fill="#fff" d="M505.2 521.2l-50.5 113.3 70.5-40.3-25.8 62m78-151.2l-14 14.4-22.8 23.3L789 709.4m-498.3-492l-59 110.3L41 416.5 379.5 117" />
    <path fill="#1c1a1a" d="M473.5 408.8l-1.7-45.6-10 30.7L427 245" />
    <path fill="#2b2b2b" d="M747.4 627.6l-13 8.5 72.7 1-26-6" />
    <path fill="#fff" d="M663.2 283L531 221l45.7 10.4 2 57.6M698 514.5l213.5-392.3L748.3 361l-14 179.5" />
    <path fill="#0b0b0b" d="M736.2 602.8l-27.5 20.6 26-42-13-53.4" />
    <path fill="#fff" d="M570.4 108.7L721.6-31l16.6 288-69.2-82" />
    <path fill="#3d3d3d" d="M658.6 286.6l40 19.6 11.7 27.6-19.7-20.8" />
    <path fill="#1b1b1b" d="M619 382.6l33.4-4-.3.7 1 7.2" />
    <path fill="#212121" d="M303.6 517.6l-48-99.8 21 62.4 26.7 42.4" />
    <path fill="#414142" d="M513.7 526l-30.3-27.2-28.3-60 10 21" />
    <path fill="#fff" d="M506 103l-165.3 71.8-57.8 64.8 37 3.2" />
    <path fill="#171717" d="M438 653l95.8 1 5-15.8 22.6 26" />
    <path fill="#313232" d="M601.4 324l36-34 12-3.7-32.2 36.4" />
    <path fill="#fff" d="M523.3 354.5l-13.6 87 9-3.5 124-79.4M456.2 663l-28-38.4 32-86.2L327 575.6m134.5-279.8L484 468.2l-8.5-187 24.2 5.5m30.2 19l-42 152.7L516 331l9.2-40.7" />
    <path fill="#090103" d="M406.5 290.8l82.5 7 8 91.5 1.6-99" />
    <path fill="#434343" d="M574.4 415.4l26-1-67 14 55.3-30.8" />
    <path fill="#fff" d="M704 646.2l53.3-20.3-24.8-27-28.2 38" />
    <path fill="#585959" d="M661.8 461.8l-23 9.6 78.2-4.8 6 1.4" />
    <path fill="#fff" d="M458.8 428l3-22-25.3-109.6-85.3 44.6m369 262.4l8.4-39.8-50-46-128 46.6" />
    <path fill="#3a3a3a" d="M483.8 54.8l-.4 189.6 12-47.5-3.2 19" />
    <path fill="#1e1e1e" d="M290 555l33.2-77.8-27.6 43.4 6.4 81.7" />
    <path fill="#fff" d="M314.6 458L267 444.7l29.7 55 117-92m141 105.8l-2-78.8 77.7-8.3-52.5-5" />
    <path fill="#424343" d="M586.5 473l-1.5 31.8-66 11 38.8 12.7" />
    <path fill="#2e272a" d="M427.8 290l121-1 38.8-13-20.3 19.7" />
    <path fill="#fff" d="M653 473l42.2 36.5-51.2 5.3-37-193.4" />
    <path fill="#2b2729" d="M523.8 267l-31.3 144-16-94.7 29.8 52" />
    <path fill="#110c0e" d="M490.6 197.8l-37.7 7.8 36 1.8 38 2.6" />
    <path fill="#1e1e1f" d="M647 520.2l-29 28.3 4.7-17 70.4-19" />
    <path fill="#f8f0f3" d="M500.7 345.7l-.7-54.3 35.4 15-19-8.2" />
    <path fill="#363737" d="M752.7 604.2l-22.2-7 49.6 37-23 3.4" />
    <path fill="#2c2d2d" d="M561.4 566l62.6 36-75.8-33.3-29 29.3" />
    <path fill="#fff" d="M466 15L334.7 162.5 426 115l102.6-5m-97.3 424L309 531l142.7-69 44.4 60.5M772 292l52 379-87.6-82-1.7-145" />
    <path fill="#3c3c3d" d="M421.2 119.5l39.2-7 20 2.8-73 13.6" />
    <path fill="#3c3d3c" d="M368.8 142.5l-57.2 49.2L247 315.3l32.3-79.7" />
    <path fill="#232323" d="M500 468.7v58l19-180.2-13 65.4" />
    <path fill="#383737" d="M562 435l53.6-20.2-42.4 3.4L609 438" />
    <path fill="#0e0e0f" d="M260.4 591.6l11.8-4.6 26.3-10.6-39 26" />
    <path fill="#4c4c4c" d="M724.3 554.2L703.7 519l32.5 33-1.6 41.5" />
    <path fill="#fefefe" d="M690.8 211.8l-28.6-33L739 402l-2.4-100.4" />
    <path fill="#333" d="M736.2 277.6l-43.4-76.2 48 110.6 5 91.8" />
    <path fill="#1e0e14" d="M405.6 246.7l161.5 4.7-6 35 16-39.4" />
    <path fill="#fff" d="M707.2 480.6L564 296.6l-22.7-2.7-8.5 18M503 209l-84 34.8-18.2.4h122.4" />
    <path fill="#3e4140" d="M472.5 536.5l46.7-40-10.7-5.6-27 59" />
    <path fill="#1c2b26" d="M412.3 252.4l-3.3 20.3-12.2-31 75.4 9" />
    <path fill="#393939" d="M487.7 108l71.3 8 84.8 38.7-58-23.4" />
    <path fill="#fff" d="M537.6 556l-44 38.8-44.7 36 8 8" />
    <path fill="#8ef7d6" d="M560.2 256.2L411 254.8l5.5 8.8 140-3" />
    <path fill="#fff" d="M186.7 195l10.8 438.8 95.4-60.4-9-52.4m438-68l-35 63.4-52-54.4-11 72.5m-162-101l3 33.8-47-24.5 6-8.4" />
    <path fill="#0b0b0b" d="M550.4 451l-5 1.8 18.4-7.4 56.5 5" />
    <path fill="#fff" d="M502 461.6l-8.3 43.8-23.7-64.2 7.3-89.8" />
    <path fill="#040404" d="M480.8 629.3l-28 33 26.5-45.6 19.7 1.5" />
    <path fill="#363637" d="M489.5 85l2 38-4 31.4-4-69.4" />
    <path fill="#fff" d="M558.6 398.2l129.7 7.4L523 342.2 508 491" />
    <path fill="#f6fcfd" d="M619.5 518.3l-8-190-2 164.4-.3 31" />
    <path fill="#1d181a" d="M450.2 274.6l20.3 117-1.5-39-10-55" />
    <path fill="#161617" d="M478.8 482l-33.6-20-.6-6.6 68 70" />
    <path fill="#fff" d="M401.4 445.3l-59-57.8-66 46.6 83.5 16" />
    <path fill="#202020" d="M438.4 413l26 17.2-48.8 2.3 16-8" />
    <path fill="#4a4a4b" d="M302.4 413l2.2 3.5 42.8-36.7-67.4 33.8" />
    <path fill="#323232" d="M609 460.8l-33.6-.6 34.3 20.3-45.3-2" />
    <path fill="#fdfdfd" d="M489.7 94.2L491 202l102-64.3 18 169" />
    <path fill="#080808" d="M284.2 446.8l54-1.5-19 6-32.6-1.8" />
    <path fill="#232223" d="M544.2 498.6L546 413l5 88.2-7.7 21.3" />
    <path fill="#353535" d="M305.8 242l2.3 13.6-28 8.4 6-17.8" />
    <path fill="#fff" d="M654.8 680.7L528.5 517l93 36-118.8 49.3" />
    <path fill="#171818" d="M551.5 636.6l-33.5-20-10.8 37 26.8-44" />
    <path fill="#fff" d="M309.2 407.7l-49.4 4 5.8-131 39.2 1" />
    <path fill="#323333" d="M487 75.2l.8 155.4-3.4 10.3-2.4 18" />
    <path fill="#444545" d="M585 481.5l40.8 64.8-1-64.3-15.3 57" />
    <path fill="#161516" d="M473 440.6l-16.4-85.3 6.6 67.3 10.5 37.7" />
    <path fill="#323434" d="M467.2 543.3l32.2-24.8 38 15-20-17.8" />
    <path fill="#fff" d="M284.4 236.7l96.4 14.6 65.5-31.5 38-46.2" />
    <path fill="#1f1f1f" d="M681 512.6l31 15.4-16.7-3.7-38-9.4" />
    <path fill="#2b2b2b" d="M275 245.8l-24.3 65-2 51.7 15.7-80.5" />
    <path fill="#2c2c2c" d="M372.6 144l33.8-13.8-72.3 48-5-.7" />
    <path fill="#3d3d3d" d="M572.8 591.6l42.4 2-12.7-8L584 584" />
    <path fill="#1d1c1d" d="M698 211l-43.7-45 26.2 34 36.5 42.7" />
    <path fill="#fff" d="M541.3 346.8l-16.7 1.6-19 135.7 39 14m-18.8 126l-7.8 27 4.8 4 15.2-6" />
    <path fill="#2d2d2d" d="M560.4 494l-.6-1.5 16.4-5.6 50.5 8" />
    <path fill="#121212" d="M433.5 632.7l-3-13 66 44.3-17.4-3.4" />
    <path fill="#4e484b" d="M504.6 225.8l77.7 20.3-82.8-34 74 8" />
    <path fill="#fbfbfb" d="M609.7 269.5l-47 .7 68.7 40.6-7.4-78.4" />
    <path fill="#fff" d="M552.6 505.7l-1.5-45.5 9-20 3 72.4" />
    <path fill="#232625" d="M413.3 271.6L603 266l-214.6-2.6 18.3 8" />
    <path fill="#fff" d="M451.4 653.4l2-3.6-59-38.7L278 593" />
    <path fill="#100e0e" d="M431.5 231.6l27.5-3.4-4.3-26.4 11 15.2" />
    <path fill="#30292b" d="M418.3 265.4L407.7 284l5.2 7.8-21-5.8" />
    <path fill="#fff" d="M553.7 551.8L650 616l-56.4-109.7-26.4 2.3" />
    <path fill="#f8f2f4" d="M449.4 289.5l-4.7 5.6 22 94-17.3-113" />
    <path fill="#fff" d="M533.2 538.7L460 639.2l29.8-112.5 76.7 22" />
    <path fill="#6a6a6a" d="M718.7 326.4l15.3-5-57-11-25.6-31.4" />
    <path fill="#fff" d="M549.2 434.3l17.7-14 32 4.6 7 2m-148-42l-24-89-15-1-38-10" />
    <path fill="#313132" d="M658.7 283.3L608 321l26.8-10.7 2.4-23.6" />
    <path fill="#182b25" d="M473 528.8l10.6 30.3 1.2-25-56 5" />
    <path fill="#585959" d="M435.4 457L393 445.5 339.8 464l50-8" />
    <path fill="#222" d="M482.6 668l29-10 11.4-40.5 14 .3" />
    <path fill="#fff" d="M284 585.3l31.8 14.5 231.7-41.4L97.5 799m623-219l7.4-21.7-75-39.2-70 67" />
    <path fill="#1e1619" d="M529.8 333l5.4-52.5v-.2l-12 53.6" />
    <path fill="#fff" d="M714.4 97.2L778 271.5l-145-124-65-29.8" />
    <path fill="#3f4041" d="M280 329.4l-4.8-7.6-9.7 5.8 23.2 3" />
    <path fill="#fff" d="M552.6 421.2l5 50.7 144.5 2-150-11m-33 138l35 17-228-24 130.7-60M234 317l12.4 51.6 17.4-198.2L333 145m179.3 512l-51.8 42.6 3.7-49.8L564 761.4" />
    <path fill="#2a2829" d="M517.7 327.5l6-56.3-14 63-13.6 55" />
    <path fill="#343434" d="M523.2 612.3l27 44-5 12.3 2.2-45.5" />
    <path fill="#f8f8f8" d="M508 653l-32-.3 28-9.5-6.6-108.6" />
    <path fill="#5a5959" d="M553.3 336.4l16-30-21.5 40.3-34.2-3.8" />
    <path fill="#fff" d="M511.7 374l18.7-90L483 449.4l1 37M423 409l-9.5 28-71.2-130.3 15 84.5" />
    <path fill="#1d1c1c" d="M623.5 417.5l-62.7.2-7.4-3.2-6 9.8" />
    <path fill="#fff" d="M545.7 597.5l55.5-6.4 96.4 84L549 654" />
    <path fill="#fdfdfd" d="M619 149.6l-98.4 69-14-102.8 73 14" />
    <path fill="#fff" d="M696.8 218.2l-86-35.3-38 76 157 24M580.3 451l32.4 1.5-11.5 6-43 .5m166.5-6.7l-74 10.7 6.7-155 35.8-.4m33 208.3L745 629 561.2 746l205-163m-268-69.8L467.5 407l45.6-11.3-9 3.7" />
    <path fill="#151515" d="M550 463.4l-.2 2.3 19.5-5.8 32.7 5" />
    <path fill="#2f2e2e" d="M539.4 496.7l8.6 12 1-1-44-16.4" />
    <path fill="#515151" d="M380.6 319l9 8.8-68.6-10.4 38.8 1.3" />
    <path fill="#383838" d="M303.7 521l-32-54.3 24 26.3.2-3.8" />
    <path fill="#fefefe" d="M317.5 197.7l-30 37.5 108 18.2 41.8-124.7" />
    <path fill="#3a3a3a" d="M293.6 218.8l-40 91.4 6.5-29.5 28-58.7" />
    <path fill="#fff" d="M259.6 326l159.7-56.4-144.6-6.6-13.3 37m479 96.2l-1.5-73.7-90 7 50 151.2" />
    <path fill="#f4fbfc" d="M521.6 499l-10.3 5-8.7 12.5 40.2-8" />
    <path fill="#fff" d="M461.4 419.2l-155.6 24.4-52.4-78.7 13 76" />
    <path fill="#585858" d="M376.8 394.8l21.2 31-49-42 3.4 22" />
    <path fill="#fff" d="M586.6 237.4l48.6 231.8 94.7-35.5-127-18.4m-48 177l27 6.5-102 33-1.6 5.5" />
    <path fill="#fff" d="M579 288.4L537 304l-6 34.6L667.6 277M495.2 513L462 476.3l-95 25.4 114.6 32.8" />
    <path fill="#101010" d="M635.7 150.5l-16.5-4 26.6 17.8 27.8 24.2" />
    <path fill="#fff" d="M560.8 234l93-83-88.2 74.2-45-4.3" />
    <path fill="#212121" d="M443 665l46-15.5 14-19.5-66.3 31.4" />
    <path fill="#1a1a1a" d="M253.2 419.5l-5.8-71.8 15 86.4 18.6 48" />
    <path fill="#f8f8f8" d="M480 198.8l3 5.2.3-89.2-46 11" />
    <path fill="#fff" d="M270.7 450.3L297 501l147-105.8-109 56.5" />
    <path fill="#666" d="M635.5 299L614 325.3l-38.8-3 36.6-4.7" />
    <path fill="#2f2f30" d="M626 414.2l-1.2 2.8 1.6 136-7.8-120.4" />
    <path fill="#020303" d="M606 171l-2 4.5 9.4 5.8-.8-20.6" />
    <path fill="#2b2b2b" d="M423.4 236.7l25.2-5.5 13.5-10.8-61 19" />
    <path fill="#5c5c5c" d="M634.7 375.6l-11 9.4h20.5l1-8" />
    <path fill="#fff" d="M439.7 242.7l48.5-32.6h-30.4l33.4 33" />
    <path fill="#7f7f7f" d="M566 191l-20 1.5 9.7.2L562 180" />
    <path fill="#fff" d="M502 283l4.3 67.6-3.8-11.5 9.5-14m104.3 123l-2.6-12-72.4 8.6 66 1" />
    <path fill="#424242" d="M727 594.7l-26.8 40.6 30-30 12.6 2" />
    <path fill="#eaf1f2" d="M616.8 425.7l-7.2 83.8 9 20.8.5-58.8" />
    <path fill="#2d2d2d" d="M717.6 599.2l24.6 5 25.3 29.6-15.2-29.4" />
    <path fill="#fff" d="M466.4 106.8L257.8-31 209 315.4l140.8-167.8m367.6 393l-57-22 59 88.5 10.6-27" />
    <path fill="#231f20" d="M428.5 290.7l14.7 19.6-4.8-14.3 39.3-6.5" />
    <path fill="#fff" d="M299 429.7l-14.3-63 50 12-33.5 27.5" />
    <path fill="#2c2c2c" d="M444.6 171.3l-26.2 4.7 23.3 2 28.5-5.6" />
    <path fill="#181818" d="M749.3 352.6l-17.7-75.8 10 44 1.6 77.5" />
    <path fill="#fff" d="M482.4 138L482 29l61.5-36L470 110.6" />
    <path fill="#3e3d3d" d="M506 290l-3.7 7.6-7.8 106L475.2 302" />
    <path fill="#fff" d="M925.4 715.5l-106.6-76-72-5 139 104M240 722.8L539.7 664l48 13.3L464 662.7m50.2-52.8l7-83-20-3 1 131M743 455l-3 137.8 181-.7-228-75m-404 41L145.6 737l95.8-461.2 7 118.8" />
    <path fill="#464646" d="M338.3 446.7l-46.5-4-17.5 9-2-.8" />
    <path fill="#fff" d="M533 655l2.5-26.7-11.3 1-3.8 23.7m18.4-106l110.8 63.7-31.2-76-23.8 2" />
    <path fill="#292828" d="M497.8 499.2l53.5 2.6-16.4-4.5-19-3" />
    <path fill="#a2a2a3" d="M393.3 209l-5.2-9.8-37 5.5 28-3" />
    <path fill="#0c0c0c" d="M591.8 499l-27.2 7 42.8-3-4.4 11" />
    <path fill="#262626" d="M496.6 654.7l23-16.4-2.3 14.6 10 12" />
    <path fill="#2d2d2d" d="M303.6 513l21.8-32.3-33 56.3 7.5 7.8" />
    <path fill="#392d31" d="M423.5 275.5l-41.8 6 140.7 1.6-37.4-3" />
    <path fill="#fff" d="M625.8 531.3l75-52.4-2.4-4-66.8-9" />
    <path fill="#3c3c3c" d="M564 120.6l15.8 8.2-100.8-21 88.7 12.2" />
    <path fill="#4f4f50" d="M513.2 598l22.4-27.8-25.6 17.6h38.2" />
  </g>
</svg>