<svg version="1.1" viewBox="0 0 1024 768" width="1024" height="768" xmlns="http://www.w3.org/2000/svg">
  <g fill-opacity=".5">
    <path fill="#fff" d="M489 534l25 21-86-32 71 54m-75-158l17-15 32 60-44 8" />
    <path fill="#342d28" d="M393 336l112-68-2-81-11 95" />
    <path fill="#fff" d="M652 387l-13 15-2-32 9 2" />
    <path fill="#d53e46" d="M471 373l-68 44 7-169-20 139" />
    <path fill="#fff" d="M689 384l-7-141-72 3-58 41" />
    <path fill="#222a28" d="M405 288l-3-93-6 32 1 60" />
    <path fill="#fcfdfd" d="M599 385l-10-30 39 24-11-26" />
    <path fill="#2a2f2f" d="M626 374l12-18-8 73-4-47" />
    <path fill="#fbfffe" d="M617 440l105-33-27-19-60 30" />
    <path fill="#2b2c2c" d="M611 343l-7 110 10-101 87 46" />
    <path fill="#282b2b" d="M506 572l-6-5-6-13 39 14" />
    <path fill="#e2f2f2" d="M438 288l-7-12-13-11 11 29" />
    <path fill="#2a2828" d="M537 511l31-7-30 20-1-15" />
    <path fill="#272626" d="M193 467l4 35 7-34 13-15" />
    <path fill="#1c1d1d" d="M505 545l52 16-1-5-55-18" />
    <path fill="#fff" d="M381 302L201 59l215 122-174-1m363 225l-2 43-14-56 12 4" />
    <path fill="#223231" d="M384 547l18-45 5-58v71" />
    <path fill="#fff" d="M776 420l21 24 10 54-200 54m-16-215l-25 10 11 36-5-60" />
    <path fill="#34312f" d="M426 347l16 34-28-30-4-34" />
    <path fill="#181616" d="M436 511l33 3 6-3-34-8" />
    <path fill="#feffff" d="M532 273v78l-27-98 2 31" />
    <path fill="#fff" d="M517 470l46-16 19 57-72-17" />
    <path fill="#fcffff" d="M448 283l-24-31 54-7-18 24" />
    <path fill="#fff" d="M592 230L935-31 484 181l78-4" />
    <path fill="#24302b" d="M426 494l-25-25 11 20 39-24" />
    <path fill="#353838" d="M840 493l-18 2-12 2 55 9" />
    <path fill="#fff" d="M382 431l-35-21-54 2 64 124" />
    <path fill="#131212" d="M299 404l23-6 19 8h-34" />
    <path fill="#fff" d="M543 402l2-29 33 40-7-26" />
    <path fill="#e7f1f0" d="M532 510l-58-4 7-19-36 17" />
    <path fill="#fff" d="M777 353l263 123-221 15-4-22" />
    <path fill="#fcfefe" d="M530 425l31 23-16-48 25 6" />
    <path fill="#fff" d="M362 390l-37-30-29 35 40 3" />
    <path fill="#cd3d44" d="M508 291l-12 92-5-68-46-12" />
    <path fill="#383838" d="M622 249l25-17 3 12-55-14" />
    <path fill="#343c38" d="M424 425l-1 50-40-49 22 53" />
    <path fill="#f8ffff" d="M460 320l27 21-34 23-24-4" />
    <path fill="#3d3d3d" d="M355 296l-59 82-32-7 28 19" />
    <path fill="#212121" d="M598 231l-9 8-7-29-7 19" />
    <path fill="#181919" d="M812 478l-7-17-22-42 17 16" />
    <path fill="#fff" d="M378 378l-94 29 59-38 27 35" />
    <path fill="#feffff" d="M483 347l-53 4 13-29h29" />
    <path fill="#fff" d="M659 446l-34 147-34-88 50-66" />
    <path fill="#252525" d="M208 506l-43 27 14-14-5-2" />
    <path fill="#eaeeef" d="M390 439l13 37-19 61-50 38" />
    <path fill="#303a39" d="M539 285l15 9-53-79-1 16" />
    <path fill="#505050" d="M801 533l-9 3 23-10-3-50" />
    <path fill="#010505" d="M665 435l-29 8 4-10 21 2" />
    <path fill="#3a3737" d="M292 409l-61 43h10l20-27" />
    <path fill="#fff" d="M834 522l-225 67-43-24-34 234" />
    <path fill="#262929" d="M488 267l2-21-65 1 41-13" />
    <path fill="#fff" d="M343 75l142 116-59 13 28-231" />
    <path fill="#cc3b42" d="M405 270l19-42 21 1-37-24" />
    <path fill="#feffff" d="M436 514l-14 26 113 133-79-159" />
    <path fill="#252c27" d="M418 471l-3-49 7-15 7-8" />
    <path fill="#363b38" d="M343 399l31 13 21-28-9 52" />
    <path fill="#fff" d="M336 331l49-78 2 97-33-24" />
    <path fill="#d33e47" d="M395 215l86-1 16-16-2 30" />
    <path fill="#2d3333" d="M558 296l8 56-7 46-2-55" />
    <path fill="#fff" d="M525 647l1 68-46-60 55-98" />
    <path fill="#272727" d="M660 459l17-18-13 27-7-1" />
    <path fill="#fdffff" d="M593 388l-3 31 1 24 13-7" />
    <path fill="#343535" d="M564 545l8-14 12-5-21 37" />
    <path fill="#272a29" d="M398 299l-10-15-1 4 6 77" />
    <path fill="#2b2d2d" d="M542 326l-8-5v-42l7-1" />
    <path fill="#fefdfd" d="M151 400l150-32 82-142-218 281" />
    <path fill="#fff" d="M570 216l-15 72 45 42 76 39" />
    <path fill="#9bbdbc" d="M429 324l-13 19 3-21 52 7" />
    <path fill="#1c1e1e" d="M853 504l3 3-52-16 18-1" />
    <path fill="#fff" d="M58 392l208 1L49 600l149-98" />
    <path fill="#3e3730" d="M466 374l3-15 7-13 16 3" />
    <path fill="#fff" d="M233 388l57-5-40 58-108 13" />
    <path fill="#fafbfb" d="M574 560l2-22 7 3-1 2" />
    <path fill="#fff" d="M695 430l-18 14-37-33 52-13" />
    <path fill="#faffff" d="M344 353l-15-13 48 14 5 31" />
    <path fill="#2a2a2a" d="M570 549l-6 10 33 17-25-20" />
    <path fill="#2c2d2d" d="M458 510l-49 11 21 8 8-25" />
    <path fill="#262727" d="M548 289l14 23 49 40 1-5" />
    <path fill="#fefefe" d="M552 514l-2 20 7-22 44-16" />
    <path fill="#2b2b2b" d="M534 560l25-20v4l5-29" />
    <path fill="#d83b45" d="M501 471l-22 14 26-68 3 48" />
    <path fill="#ce3f46" d="M502 338l8 71-131-38 87 4" />
    <path fill="#fff" d="M533 524l-53 1 38-53 58-17m-97-30l-12 50-38-65 33-7" />
    <path fill="#1f2b2c" d="M438 477l32 2 24 14-46-25" />
    <path fill="#fff" d="M622 452l33 85-90-14 17-33M441-9l63 197 38 34 114-54M542 362l-15-13 22-1 3 9" />
    <path fill="#392925" d="M494 350l-6-27-93-8 79-2" />
    <path fill="#2b2c2d" d="M537 457l127-20-116 21-14-27" />
    <path fill="#fff" d="M747 397l-48-8 75 118 9-79" />
    <path fill="#332f2c" d="M494 253l24 149-16-158-7 21" />
    <path fill="#2f2d27" d="M440 304l-33-22 64 18 19-19" />
    <path fill="#2a2a2a" d="M195 508l7-51 29-15-30 27" />
    <path fill="#1e3432" d="M379 360l14-24-2-45-8 102" />
    <path fill="#fff" d="M885 595l-22-77-65 13-42-18" />
    <path fill="#fffffe" d="M281 421l38-14-66 51 12-23" />
    <path fill="#fdffff" d="M533 449l-1-86-13 2 5 45" />
    <path fill="#e8e8e8" d="M565 540l5-58-7 78-11-9" />
    <path fill="#2e2e2e" d="M197 487v18l-22 12 36-6" />
    <path fill="#2c2c2c" d="M530 554l14-47-4 59 3 28" />
    <path fill="#fff" d="M620 372l4-17 3 33-14 1" />
    <path fill="#d93f47" d="M391 352l18 58 9 63-6 3" />
    <path fill="#d3dadb" d="M285 441l6 24 16-22-21-18" />
    <path fill="#feffff" d="M456 539l60 15-4 10-17-24" />
    <path fill="#313030" d="M707 387l-29 2-78-44 72 31" />
    <path fill="#353433" d="M605 442l-24 9 13 24-15-9" />
    <path fill="#fff" d="M606 365l-15 20 3-44 18 28m56 2l-50-24 97-317 54 359" />
    <path fill="#292929" d="M571 537l30-5 5 26-18-34" />
    <path fill="#fff" d="M44 594l338-163 19 33-32 42" />
    <path fill="#282727" d="M667 388l49-7 30 12-18-4" />
    <path fill="#252525" d="M620 394l-21-9-18 2 41 13" />
    <path fill="#292929" d="M537 429l4-25 2-6-7-22" />
    <path fill="#fff" d="M606 559l147-23 52-67-121-22" />
    <path fill="#3a3a3a" d="M815 474l3 2-23-52 20 89" />
    <path fill="#343434" d="M790 421l2 5-71-45 41 15" />
    <path fill="#fefefe" d="M1053 725L863 507l-32-22-120-204" />
    <path fill="#2d3834" d="M516 197l-20-3-9-1-21 16" />
    <path fill="#272a2a" d="M597 446l-18 21 89-80-36 22" />
    <path fill="#444747" d="M368 369l-7 18-39-50 44 39" />
    <path fill="#e6e9eb" d="M325 566l45-24-7-8-99 13" />
    <path fill="#fff" d="M608 561L400 677l288-77-84-63" />
    <path fill="#302b2c" d="M638 394l-61-7-100-50 150 62" />
    <path fill="#363d3d" d="M396 536l5-11-16 6 1 14" />
    <path fill="#344343" d="M404 160l9 26-3 2 3-28" />
    <path fill="#fff" d="M398 220l-60 33 95-126-95-28" />
    <path fill="#fff" d="M335 177h324l-258 2-49-210" />
    <path fill="#4b4b4b" d="M573 206l-15 11 2 7 25-9" />
    <path fill="#272626" d="M601 536l-16 38 20-18-17-18" />
    <path fill="#303131" d="M310 356l27-31 10-15 6-25" />
    <path fill="#f6f7f7" d="M356 294l-46-8-30 99 23-130" />
    <path fill="#262a2a" d="M503 527l-2 19 26-25v14" />
    <path fill="#fdffff" d="M430 429l37 49 10-12-6-49" />
    <path fill="#2c3938" d="M463 492l-4-14-10-11 34 20" />
    <path fill="#be3b44" d="M477 296l-35 15 66 5-11-32" />
    <path fill="#181717" d="M575 569l-9-10 29 8-6 3" />
    <path fill="#fff" d="M617 246l75-2-47 114-47-26" />
    <path fill="#fdfdfd" d="M571 226l-6 35 37-27 41 70" />
    <path fill="#fdfefe" d="M532 461l-61 145 11-86 76-64" />
    <path fill="#fff" d="M572 322l8 5 1 38-16 11" />
    <path fill="#303031" d="M277 420l2-17 51-57-27 36" />
    <path fill="#394547" d="M505 197l-11-28-6-11 3 18" />
    <path fill="#212d2b" d="M482 248l-62-5 56-1 17 30" />
    <path fill="#f2fbfb" d="M615 405l1 13 14-2-10-20" />
    <path fill="#373838" d="M590 484l-2-83-7-70 2 139" />
    <path fill="#fbfafa" d="M736 395l-35 73 9-13 50-49" />
    <path fill="#f9ffff" d="M396 239l-12 35 11 14v-29" />
    <path fill="#fff" d="M753-26L598 217l-102-27 5-2" />
    <path fill="#362a2a" d="M420 244l-9 6-3-8 26 39" />
    <path fill="#3b2c2b" d="M408 377l10-27 2-34-18 59" />
    <path fill="#fefefe" d="M636 456l32-6-103 79 174-26" />
    <path fill="#2c2e2e" d="M370 377l-14 4-14-17-3-7" />
    <path fill="#373b37" d="M469 284l-3-10 43-59-50 64" />
    <path fill="#fcffff" d="M480 278l-3 5-20 11-5-7" />
    <path fill="#252d2b" d="M490 336l-5 25-4-37-17-11" />
    <path fill="#fdfdfd" d="M490 495l81-12-37 34-2 13" />
    <path fill="#ca3e4a" d="M497 243l-9 73 7-46-7-24" />
    <path fill="#272727" d="M733 540l32-3-10 8-17 1" />
    <path fill="#f1fbfb" d="M534 350l-21-36 2 32 40 21" />
    <path fill="#323232" d="M553 249l19-40-7 8-17 21" />
    <path fill="#fff" d="M329 389l40 20 5 5-2-35m61 249l36-107-64 12-203 117" />
    <path fill="#f3f4f4" d="M549 535l7-22-12 15 38 69" />
    <path fill="#c73d45" d="M423 214l72-2-12 26h-65" />
    <path fill="#2c2e2e" d="M363 274l1-7 41-60-33 62" />
    <path fill="#fcfefe" d="M580 389l-1 62-8-20 1-47" />
    <path fill="#2d2d2d" d="M562 534l-40 37 15-21 32-34" />
    <path fill="#291c1a" d="M486 422l1 31-5 23-3-34" />
    <path fill="#fefefe" d="M708 445l-17 1-16 9-214 328" />
    <path fill="#232d27" d="M480 405l-13-1-38-2 28-9" />
    <path fill="#fff" d="M196 506l-8-23 39-73L89 519" />
    <path fill="#20221e" d="M483 206l-66 8-2-15 14 7" />
    <path fill="#29312c" d="M404 517l-1-72-25-24 35 62" />
    <path fill="#f1f1f1" d="M691 589l106-59-30 8-75 52" />
    <path fill="#333c39" d="M514 289l-33-17 4-3 31 37" />
    <path fill="#fff" d="M430 253l26 37 4-25 18-15" />
    <path fill="#cf3f46" d="M493 430l13 12 6-88-47 25" />
    <path fill="#151616" d="M606 345l8 15h-8l-1-9" />
    <path fill="#4d4d4d" d="M791 509l-42 37 28-12 1-19" />
    <path fill="#cf3d4b" d="M411 484l15-3-21-23 7-31" />
    <path fill="#fff" d="M318 408l46 9 20 19-102-13m275 16l-6-41-21 48-6-23" />
    <path fill="#f5f4f4" d="M443 480l-18 36-22-11 73-5" />
    <path fill="#2a2b2b" d="M611 350l-41-36 79 55 15 14" />
    <path fill="#fafafa" d="M769 414l42 141-64-64 47 61" />
    <path fill="#f8f8f8" d="M585 390l-32-1-3 28-4-20" />
    <path fill="#2f3232" d="M590 340l-9-1 5 109 2 6" />
    <path fill="#363737" d="M348 288l-40 92-22-8 11 17" />
    <path fill="#222323" d="M645 402l-43 41 28 12-16-17" />
    <path fill="#33322f" d="M545 453l-1-5-57 32-5 11" />
    <path fill="#fdfdfd" d="M730 382l-48-2-118-77-4-72" />
    <path fill="#452b27" d="M438 311l-31-33 12 3 8 6" />
    <path fill="#f9fafa" d="M476 179l50 4-55-11-51 19" />
    <path fill="#fbfbfb" d="M710 610l-131-50-4-14 51 58" />
    <path fill="#362e2e" d="M400 193l-8 1 8 10 33-9" />
    <path fill="#f9fafa" d="M552 127l-48 90 43 42-42-55" />
    <path fill="#2e2e2d" d="M563 304l25 26-57-54-37-63" />
    <path fill="#f5f7f8" d="M380 342l-6 60-9-80-45 24" />
    <path fill="#fff" d="M634 458l-22 35-23-21 11-22" />
    <path fill="#2a2d2e" d="M557 457l-37 2 47-12-9-27" />
    <path fill="#f1f5f4" d="M613 447l76-53-45 14-19 34" />
    <path fill="#c53a42" d="M401 294l-4-5-2 34 42-12" />
    <path fill="#f9fdfc" d="M480 445l-53-34-3 48 10 11" />
    <path fill="#4f4f4f" d="M603 250l9-10 17-5 5 3" />
    <path fill="#fff" d="M542 597l-11-29-88 40 365-13" />
    <path fill="#363535" d="M623 445l-71 8 40 6 17-25" />
    <path fill="#2f2f2f" d="M507 572l57-39 3-20-33 52" />
    <path fill="#fff" d="M570 523l13-66-68 13 204 72" />
    <path fill="#fff" d="M731 554l320-33-624 131 331-154" />
    <path fill="#373737" d="M637 364l-3 42-4-5-4-41" />
    <path fill="#f9fbfb" d="M388 347l-9-75-16 102-12-15" />
    <path fill="#fefffe" d="M639 414l40-20 18 38-48-1" />
    <path fill="#fff" d="M531 325l-26-65 10-3 17 23M203 473l10 69 29-82-7-7" />
    <path fill="#fdffff" d="M405-31l16 221 61 12h-47" />
    <path fill="#2e2e2e" d="M687 382l-24 18-25 10v-5" />
    <path fill="#fefefe" d="M557 712l95-248 17-19-25 3" />
    <path fill="#353434" d="M591 528l-9 20 26 10-23 15" />
    <path fill="#fcfcfc" d="M851 509L635 799l170-213 11-88" />
    <path fill="#fdfdfd" d="M806 504l-5-50-4 3-11 171" />
    <path fill="#35302d" d="M389 352l1-5-10 4 7 84" />
    <path fill="#353535" d="M866 506l4 31 9-6-18-20" />
    <path fill="#e9e9e9" d="M434 799l113-235-5-12 2 19" />
    <path fill="#2f3232" d="M474 539v-21l-21-13 24 27" />
    <path fill="#2b2b2b" d="M815 499l-7 30h-4l5-54" />
    <path fill="#e2e4e4" d="M516 541l20 6-20-14-2 17" />
    <path fill="#24312e" d="M498 288l1-33 15 74-2-46" />
    <path fill="#fcfdfd" d="M374 412l5-26 4-114-23 8" />
    <path fill="#3e3c3b" d="M553 376l-17-4-38-42 3 2" />
    <path fill="#fff" d="M579 242l364 31-307 70-55-113" />
    <path fill="#2f3131" d="M558 335l5-28 3 28-3 51" />
    <path fill="#222" d="M535 533l20-26-18 8 7 70" />
    <path fill="#2f3231" d="M512 344l76 47-81-38-2-36" />
    <path fill="#fefefe" d="M788 502L585 647l-30-104 47 83m118-363l-87-101-20 74 80-1" />
    <path fill="#36312e" d="M390 231l67 72 13-12h-21" />
    <path fill="#343232" d="M707 437l-21 3 29 6-3-11" />
    <path fill="#fff" d="M814 473l13 18 129 28-120-292" />
    <path fill="#fafafb" d="M337 397l-40-9 31-21 35 125" />
    <path fill="#f9fcfd" d="M462 362l-23 3 32-35-2 30" />
    <path fill="#2f2e2e" d="M250 444l6-15 64-30-50 25" />
    <path fill="#1d2e24" d="M489 347l-34 27 20-5-1-19" />
    <path fill="#222" d="M222 448l26 5-13-10-8 2" />
    <path fill="#fff" d="M82 430l187-128 2 115-30 25" />
    <path fill="#fefefe" d="M692-31L408 180l85 14-124-49" />
    <path fill="#fff" d="M554 442v-69l-6 8-4 66" />
    <path fill="#ebebeb" d="M548 574l-5-25 28 115-11-48" />
    <path fill="#242626" d="M561 588l-22-12 14 20-2-45" />
    <path fill="#fcfcfc" d="M571 505l55 54-12-113-56 107" />
    <path fill="#252622" d="M516 465l-29 17-10 39-12-8" />
    <path fill="#f7fbfb" d="M584 328l-13 45-4-56 37 42" />
    <path fill="#303030" d="M822 490l33 13 15 15 7 8" />
    <path fill="#323232" d="M556 511l20 47-5 9-11-64" />
    <path fill="#fff" d="M544 473l-11 62-33-53 280 101" />
    <path fill="#2a2b2b" d="M658 370l-5 11 1 14 10-18" />
    <path fill="#fff" d="M177 394l74 49-18-1 58-58" />
    <path fill="#35322c" d="M461 396l22 26 3-10h2" />
    <path fill="#c73b43" d="M489 353l-58 48 69-40 5-69" />
    <path fill="#cd3c43" d="M479 217l-33 9-40 27 12-39" />
    <path fill="#26413f" d="M423 464l3-64 13-5-17 26" />
    <path fill="#767575" d="M750 456l-35-7 26-4-13 7" />
    <path fill="#525353" d="M556 420l7-46-5 50 8-14" />
    <path fill="#f8fbfa" d="M482 340l-46 25-10-21 17-23" />
    <path fill="#d1d8da" d="M375 343v-4l-3-11-17 12" />
    <path fill="#363535" d="M525 574l29-73 14 17-20-10" />
    <path fill="#2f2f2f" d="M286 396l47-68-58 97-24 18" />
    <path fill="#323232" d="M701 443l-16 6-40-19 22 15" />
    <path fill="#343434" d="M515 551l-10-12 37 11 16 10" />
    <path fill="#fff" d="M696 396l71 74-44-33-7 13" />
    <path fill="#27322d" d="M424 344l12 29 35-7-50-4" />
    <path fill="#282b2b" d="M614 445l-2-5 20-38 3 5" />
    <path fill="#e7e9e9" d="M488 547l31 14 7-6" />
    <path fill="#fbfdfd" d="M637 392l2-8 13-10-17 29" />
    <path fill="#eff1f1" d="M438 495l-6 12-92-59 55 42" />
    <path fill="#3f4143" d="M492 159l5 6-13 31 7-29" />
    <path fill="#e4e5e5" d="M539 545l9-12 9-11-1-2" />
  </g>
</svg>