<svg version="1.1" viewBox="0 0 1024 112" width="1024" height="112" xmlns="http://www.w3.org/2000/svg">
  <g fill-opacity=".5" fill="#CCC">
    <path d="M647 50l45 3-144 8 112 2zM159 73l-26-7V42l13 5zm289-35l-35 18-131 6h117zm287 26l98 2-105-12 17-8z" />
    <path d="M573 79l-85-62 65 41-7-10z" />
    <path d="M528 25l-45 31 43 42-51-40zm183 65l-85-34 38 11 30 27z" />
    <path d="M554 72l23-10 87-1-62-5zM139 54l112 5 37-6-5 5zm357-4l-17-26 13 17 46 35zm406 10h2l-71 5 21 5zM322 42l26 42-55-41 65 15zm448 22l50-5-71-1 3 8zM99 58l-49-1 57-2h32zm466-10v-5l-34 26 4 1zm-49 32l-11-7-17-5 20 20z" />
    <path d="M240 64l65-22-21 19-27-19zm650 1l-10 4-19-11 30 2zM382 54l70 12-10-10-17 12zm-264-3l-31 8 34-2 33 15z" />
    <path d="M307 61l-116-6 111 17 48-33zm330 7l5-10-52 5 70-11z" />
    <path d="M319 58l13 4-42-15-9-17zm95 10l45-12-35-10 42 24zM146 42l9 13 28 1-54-4zm190 21l13-13-29-1 90 10zm241 4l24-4-15-8-22-7zm107-35l-8 1-8-3 82 51z" />
    <path d="M728 46l-23-19-23 18 9-18zM142 58l-2-8L34 61l-4-5zm861 6l5-2 35-1-167 3zm-394-2l-32-4-2-6-1 9z" />
    <path d="M1002 62l-10 3H840l180-4zm-318-8l32-12-54 31 18-21zm155 9l5-17 28 16-12-11zm-337 6l19-18 65 8-72-9zM318 34l-66 38 63-31-12-6zm-78 24l-124 2 118-6 25-5zM8 61l-10-1 65-4 69 1z" />
    <path d="M760 63l92-7-27 5-101-9zm-433 3l37-12 48 2-47 7zm-83-27l39 23 11 11 12-2z" />
    <path d="M407 51l-16 11h1l47-13zm425 7l21 2 30-1-100 2zM512 42l-37 23 33-29V21zm26 27l6-11 28 22-22-27z" />
    <path d="M482 86l26-19-23-34 19 19z" />
    <path d="M464 43l47 47-39-43-34 11zm250 25l-3 13-4 8-9 6zm190-7l-49 4 2 3 78-8z" />
    <path d="M719 90l-18-13-29-20 33 13zM570 60l82 3-5-3 2-1z" />
    <path d="M745 48h-7l11-5-56 31z" />
    <path d="M690 46l34 20 14 11-39-35zm-127 4l-76 51 57-44 23-10zm-402 6l-53 23 8-5 48-12zm345-40l10 24-20-17-59 37zM310 35l-46 32-31-18 21 21zm104 22l-24 5 17-5z" />
    <path d="M300 28l14 32-12-45-34 37zm108 29l-62-1 59 8 35-27z" />
    <path d="M433 67l17-12-25 15-17-11zm41-37l46 37h6l-59-45zm2 56l34 4-27 8 2-21zm440-23l-77-10 23 7 3 4z" />
    <path d="M890 56l-29 10-9 2-8 8zm-324-8l-12 10 3 7-10-6zm146 24l8-32-40 22 39-27zm-424-9l-22-4-18 15 41-22zm532 3l49-15-63 11 35 2zM145 52l-31-3 80 10-27 1z" />
    <path d="M247 58l7 9 14-1-58-9zm201-5h-13l3 8v7z" />
    <path d="M443 64l43 10-66-27v-8zM142 49l-18 11-22-6 15 3zm374 9l-31 28 25 19-38-19zm-172-8l-34 8-32 25 15-17zm364 28l-38-27-60 14 53-12zM549 57l9-3-3 8-21 8zm-199-7l-10 10 85-3-67 5z" />
    <path d="M634 65l122-3-91 2 16 12zM284 83l22 3-13-24 16 15zm218-35l-22-19 27-7-32 17zm551 9l-76 5 5-1-81 1zm-902 1l25-1-35 7 5 6zm261 4l-9-30 10 21-61 8z" />
    <path d="M176 62h-42l-18-8 27 12zm608-4l-32 3 96 1-13-3zM277 44l65 26-16-10 9 3zm437-4l-2-10-12 2 15 14zM460 52l28 6 10 13-41-30z" />
    <path d="M267 62v-5l33-14-31 21zm265-15l43 30-40-27-27 7z" />
    <path d="M475 87l53-43-40 37 23-11zM329 47l25 5-48 4 30 17zM142 67l-7-15-15 4-20-1z" />
    <path d="M370 56l-41 10 60-11 44 12zm116-32l36 16-14-12-17-8zM316 40l-28 10-29 18 13-6zm691 22l27-3h-65l-36 1zM486 27l-6 10 53 32-27-11zm3 62l-77-49 18 8 65 47zm221-22l-7-29 14 28 23-24z" />
    <path d="M288 88l15-8-7-52 8 59zm258-34h-6l6 6-44 1z" />
    <path d="M315 68l-22 13v-2l11 9zm31 2l-53-26 56 12-78-16zm282-10l-24-4 78 12-17 4zm120 1l-4 9-30 7-25 19zm-199 9l-1-5 68-5-117 8zm317-3v-9l-31-3 83 8zM180 56l-13 5-31 2 6 7z" />
    <path d="M531 50l32 20-1 10-14-24zM340 70l-64-34 14 4 43 25zm118-6l-12 2-7-10 45 24z" />
    <path d="M494 53l-22 12-22 3 32 1zm189 23l3 12 18-16 77-16zm-1-24l-11 17 33-18-5-3z" />
    <path d="M747 61l7-1-51 28-14 13zm-33-19l-10 9 11-5-61 30z" />
    <path d="M710 93l-27-7 22 2 2-34zm-197-5l-22 8 39-29-1-6zM338 69l-36-21-16-9 40 28zm235-8l-8 5 79-7h1zM325 34l13 20 9-1 16 15zm114 23l4 2-17-13 3 3zm114-2l-33-10 48 27-17-15zm-36-21l-38 28-1 8 43-49z" />
    <path d="M702 67l35-19-9 11-34 14z" />
    <path d="M713 66l-5-12-17-7 31 11zm-289 5l14-1 52-5-64 3z" />
    <path d="M466 46l24 13 26 29-53-44zm-217 5l1 11-46-2 26 2zm514 10h-22l-17 13 44-14zM426 45l68 52-8-9-50-33zm257-5l33-15-105 52 22-10z" />
    <path d="M516 31l12 5-53 24-16 15zm168 31l28 17-42-22-7-5z" />
    <path d="M681 64l5-7-21 8 224-7zm-376 4l6 10-16-11 26 19zm168 0l-21 1 19-4 42-29zm-48-19l-59 21 50-18 22-18z" />
    <path d="M400 54l2 7-2-3 31 14zm318 4l-27-14 52 27-12 4z" />
    <path d="M706 28l11 31-5-23-19-6z" />
  </g>
</svg>