<svg version="1.1" viewBox="0 0 1024 542" width="1024" height="542" xmlns="http://www.w3.org/2000/svg">
  <g fill-opacity=".5" class="T47__logo">
    <path d="M384 30.72l-89.6-6.656 24.064 136.704 56.32 37.376M752.128 189.44l187.392-18.432 19.968-21.504-284.16 6.656M101.376 474.624l16.896-35.328h159.232l33.792 23.04M740.864 323.072l29.184-32.256 183.296-3.584 55.296 26.112" />
    <path d="M162.816 477.184l58.368-263.68L231.936 460.8l-79.872-257.536M78.336 215.552l10.752-117.76-57.856-45.056 2.56 176.128M564.736 120.832l41.472 72.192 18.432-94.72-229.376 352.768M752.128 527.872l-15.36-57.344 47.104-81.92 71.68-126.464" />
    <path d="M311.808 78.848L181.248 38.4l224.256-4.096-55.296 174.08" />
    <path d="M1001.472 114.176L733.184 184.32l174.592-11.776 18.944 27.648M425.984 371.712l271.36-41.472-70.656-9.728-226.304 109.056M238.592 38.4l-26.624 408.064-16.384-368.128L60.416 90.112" />
    <path d="M172.544 397.824l-17.92-248.832 28.16-70.656 2.56 116.736M286.72 443.904l-186.368 8.192 68.608 16.896 139.264-3.072M589.824 454.144l30.208-406.528-90.112 434.688 35.84-377.344M771.584 407.552l-27.648 129.024L853.504 243.2l23.552-138.752" />
    <path d="M1007.104 65.024l-91.136 103.424-100.352 257.536L931.84 205.312" />
    <path d="M558.08 431.104l139.776 10.752-144.896 20.992-74.752-22.528M66.048 237.568l-39.424-102.4 13.312 28.672L97.792 50.176M236.032 464.896L220.16 149.504 204.8 441.856l-120.32 6.656M713.728 161.28L745.984 192l-2.56-4.096 244.224-37.376M445.44 406.528l91.136-175.104-64.512 67.584-51.712 120.832" />
    <path d="M755.2 285.696l22.528 31.232 181.76-2.048-19.968-20.992" />
    <path d="M312.832 111.616l17.408 68.608 49.664-162.816-5.12 176.128M195.072 18.432l-39.424 385.536 42.496 2.56-43.52-225.792M553.984 139.776L542.72 418.304l45.568-273.408 46.08-53.248" />
    <path d="M174.592 84.48l210.944-56.32-242.688 30.72-98.816 12.288M482.304 385.024l219.648-68.096-279.04 55.296 30.208 31.232" />
    <path d="M114.688 73.216L41.472 235.52V31.744l14.336 80.384M620.544 458.752l22.528-6.656-96.256-31.744-80.896 31.232M820.224 500.224l-36.352 12.8 126.464-324.608-95.744 328.192M593.408 324.096l78.848 9.728L547.84 371.2l9.216-54.784M830.464 246.272l-71.168 271.872-12.288-27.136-7.68-2.56M984.576 105.472l-111.104 74.24-146.432-5.12 251.392-43.008" />
    <path d="M953.344 128.512l-112.64 58.88-15.872 135.168 54.784-144.384M202.752 226.816V32.256l25.088 45.056-15.872 248.32M552.448 148.48l80.384-60.928L540.16 230.4 431.616 413.696" />
    <path d="M774.656 289.792l-.512 20.48 5.632 11.264 214.528-29.184M174.592 87.04l-13.824 216.576 28.16 72.192-5.12-81.408M585.728 392.704l19.456-128.512 10.752-146.944-28.16 8.192M318.976 155.136l72.192-122.88-37.888 166.4-25.6-182.784M199.168 233.984l15.872 233.472 16.896-149.504-23.552-118.272M33.792 64l10.24 169.984 10.24-99.84 7.68-72.192" />
    <path d="M605.184 438.272l48.128 19.456-71.68-47.104 13.824-275.968M919.04 162.304l70.144-21.504-12.8-42.496-103.936 225.28M64.512 102.4l7.168 167.936 6.656-199.168 328.192-40.96" />
    <path d="M169.472 407.04l-9.728-224.768 3.072-125.44 28.16 15.36" />
    <path d="M536.064 436.736l12.288-144.384 39.424 113.152 17.408-144.384" />
    <path d="M554.496 349.184l-24.064 83.456-31.232 30.208 64-22.528" />
    <path d="M116.224 457.728l17.408 24.576 36.352-27.648-39.424-12.288" />
    <path d="M289.28 464.384l-25.088-21.504-154.624 2.048 135.168 19.456" />
    <path d="M995.328 148.48l-1.536-4.608-88.064 4.608 84.48-39.936" />
    <path d="M309.248 33.28l22.016 171.52 7.68-97.792.512-42.496M819.2 158.72l152.576-15.872L742.4 189.44l-28.16-35.84M496.64 430.592l165.888 19.456-162.816 11.264L509.952 448M829.44 457.216l46.08-194.56-83.456 231.936 9.728 32.256M207.872 439.296l24.064-364.544 25.088-35.328-51.712 43.008" />
    <path d="M88.576 70.656l47.616-8.192L353.28 30.208l-6.144 27.136M386.048 28.672L370.176 179.2l-18.944 22.016 7.68-171.008M873.984 151.552l-16.384-1.024-104.96 349.696 87.04-205.312M900.608 202.752L810.496 453.12 970.24 104.96l8.704 11.264M568.832 250.368l17.408-143.36-41.472 221.696 23.04 22.528" />
    <path d="M56.832 112.128L58.88 232.96 84.992 72.192 296.96 34.816" />
    <path d="M180.224 311.296l11.264 117.248-29.184-37.376 5.632-322.048M23.04 43.008L67.584 189.44l3.072 37.888-14.336-.512M957.44 304.64l-179.712-6.144 77.312 27.136 99.328-35.328" />
    <path d="M263.68 475.648l-84.992-33.28L294.4 445.44l-39.936 29.696" />
    <path d="M275.456 450.56l-73.728 11.264 16.896-72.192 39.936 79.36" />
    <path d="M454.144 372.224L608.768 87.552l3.584 65.024-50.176-28.672" />
    <path d="M433.152 375.808l5.12 38.4 42.496-29.184L609.28 327.68" />
    <path d="M670.72 335.36l-19.968-17.408-225.792 71.68 47.616-8.192" />
    <path d="M608.256 432.128l54.784 4.608-34.304 28.672-14.336-18.432" />
    <path d="M644.096 457.728l-9.728-23.04-50.176-2.56-104.96 9.216M306.688 58.88l23.04 108.544 30.208 9.216 17.408-7.68M202.752 445.44l32.256 27.648 22.016-10.24-158.72-4.096" />
    <path d="M572.928 182.272l16.384-34.816-20.992-35.328-22.016 105.984" />
    <path d="M227.328 478.208l15.872-18.944-37.888-144.384 3.584 150.016" />
    <path d="M885.248 154.624l88.064-31.744-131.584 79.36 17.92-37.888" />
    <path d="M609.792 329.216l-7.68-7.168-176.128 72.704 258.048-73.728" />
    <path d="M192 380.928L172.544 199.68 158.72 403.456l15.872 14.848" />
    <path d="M29.696 65.024l10.24 148.48L56.832 61.44 51.2 59.904" />
    <path d="M827.904 321.024l-80.896 183.808 1.536-38.912 107.52-286.72M159.744 263.68l30.208-195.072-33.28 1.536 2.56 77.824" />
    <path d="M760.32 300.544l11.264-4.096 208.896-6.144-172.544 36.864" />
    <path d="M568.832 190.464l1.536 129.024-13.312-34.816 35.84-164.864" />
    <path d="M502.784 462.336l156.672-13.312-159.232-14.336-8.192 5.12" />
    <path d="M753.664 167.936l179.2-9.216-78.336 28.16 18.432-33.28M140.288 467.968l131.584-18.432-105.984-6.144L96.256 460.8" />
  </g>
</svg>