<svg version="1.1" viewBox="0 0 1024 327" xmlns="http://www.w3.org/2000/svg">
  <g fill-opacity=".5">
    <g class="T47__logo_alt">
      <path d="M331.264 208.896L330.24 82.432l-101.376 54.272-5.632 205.312M547.84 47.616l-20.992 74.752 11.776 57.344-126.464 20.48M91.136 313.856l-75.264-76.8L7.68 94.72l105.984 39.424" />
      <path d="M288.256 37.376l-78.336 289.28 76.288-46.592 49.152-81.408M852.992 104.96l-132.096 5.12 26.624 178.176 62.464-110.592" />
      <path d="M731.136 132.096l-1.024 142.336-99.328-247.808-12.8 267.776M415.232 197.632l-99.328 7.168 217.088-15.36-2.048-117.76" />
      <path d="M407.552 29.696L518.144-.512 430.08 40.96l-83.456 100.352M280.064 296.448l-50.688-26.112-2.048-156.672 100.864-12.288" />
      <path d="M415.232 305.152l94.72 20.48 25.6-70.656-130.56-.512" />
      <path d="M26.112 80.896L21.504 238.08l86.016 74.752v-184.32M837.632 111.104l-77.824 157.184-69.12-99.84 79.36-62.464" />
      <path d="M115.2 29.696l105.984-54.784L68.096 35.328l-51.2 68.096" />
      <path d="M347.648 193.024l8.192-52.736 43.008 139.776-.512 5.12" />
      <path d="M993.792 65.024l-90.624-56.32-147.456 27.648L847.36 7.168" />
      <path d="M395.776 76.288l-51.2 133.632 32.768-137.216 113.664-69.12" />
      <path d="M841.216 322.048L997.888 62.976l-9.216 216.064-192.512 42.496M-.512 178.688L65.536 291.84l45.056-186.88-94.208-.512" />
      <path d="M642.56 263.168l25.088-24.576-4.096-145.408-33.28-46.592M211.968 16.384l41.984 14.848 7.168 4.608 48.128 60.416M527.872 72.704l1.536-16.896 1.024 142.336-93.696-15.36M707.584 97.792l25.6-17.408 5.632 207.36 95.232-151.552" />
      <path d="M362.496 133.12l83.456-121.856-90.112 95.744-1.024 70.144" />
      <path d="M744.448 38.4l-35.328 70.656 56.832 188.928-68.608-89.6" />
      <path d="M333.824 177.664L304.128 76.8l-64 230.912 61.952-40.448" />
      <path d="M365.568 244.736l-10.752-101.888 35.328 107.008 1.024-8.704" />
      <path d="M1025.024 132.608l-33.792-47.616-113.664 247.296 89.088-36.864" />
      <path d="M437.248 312.32l-88.576-94.72 81.408 62.976 136.704 44.544M704 111.104l1.024 71.168L765.44 256l69.632-135.168" />
      <path d="M743.424 54.272l-23.04 39.424 58.88-47.104L880.128-17.92" />
      <path d="M525.312 194.56l2.56-128-51.712 64 4.096 41.984M225.28 321.536l102.912-200.192-93.696-10.752-.512 78.848M103.424 309.76L102.4 126.464 18.944 96.256 35.84 271.872" />
      <path d="M659.456 246.272l12.288-45.056-46.592-112.128 3.584 178.688" />
      <path d="M363.52 224.256l8.192-145.92 59.904-48.128-79.36 114.688" />
      <path d="M477.696 15.36l-26.624 1.024-64.512 52.224 34.304-12.8" />
      <path d="M251.392 24.576L121.856 13.312l101.888 15.872 76.288 52.736" />
      <path d="M1007.616 95.232l-47.104-59.904 55.296 173.568 9.216-57.344" />
      <path d="M718.848 257.024l83.456 60.928 176.64-44.544-140.8 52.224" />
      <path d="M324.608 117.76l-9.728 80.896-19.456 68.608-.512-214.016" />
      <path d="M60.928 60.928l-55.296 89.6 3.072-23.04 33.792-66.56" />
      <path d="M72.192 28.16l87.552-8.192 28.672-13.824-26.112 3.072" />
      <path d="M502.272 254.976l-111.616 3.584 40.96 44.032 99.328 27.136M755.2 219.648l100.352-115.2-157.696 24.576 30.72 129.024" />
      <path d="M260.096 299.52l56.832-62.976 6.656-111.104-95.744-16.896M721.92 72.192l-17.408 140.8 90.624 91.648-69.12-45.568M1004.032 250.88l-8.704-184.32-155.136 267.776 73.216-17.92" />
      <path d="M450.56 312.32l-58.88-31.744 124.928-27.648-22.528 55.808" />
      <path d="M902.144 8.704l-58.368 2.56 51.712 12.288 100.864 44.032" />
      <path d="M612.352 52.224l65.536 151.04-2.048-35.328-6.144-54.272" />
      <path d="M258.56 304.64l8.192-18.432-40.448 32.256L100.352 320" />
      <path d="M7.68 212.48l88.576 100.864 13.312-206.336-85.504 32.256M605.184 33.792L570.88 14.848l-89.088-5.632 51.2 9.216" />
      <path d="M569.856 314.88l-114.176 2.56 150.016-11.776 59.392-76.8" />
      <path d="M203.776 319.488l-121.344-10.24 159.744 3.072 82.432-109.568" />
      <path d="M721.92 78.848l65.536-53.76 86.016-18.944-104.96 38.912" />
      <path d="M634.368 81.92l45.056 72.704-73.728-128-19.968-.512" />
      <path d="M62.464 293.888l-46.592-87.04 98.816 114.176 69.12 5.12" />
      <path d="M64 45.056L47.104 55.808l-20.992 35.84L99.84 29.184" />
      <path d="M716.8 126.976l21.504 142.848-30.72-171.008 54.784-57.344" />
      <path d="M771.584 245.248l-38.4 28.16-6.144-165.888 117.248 3.072" />
      <path d="M935.936 32.256l48.128 27.648 15.36 34.816 18.944 23.552" />
      <path d="M645.632 258.56l-50.688 53.248-35.84 5.12-51.2 25.6" />
      <path d="M385.536 88.576l46.592-63.488-66.56 67.072-9.216 80.896" />
      <path d="M979.968 271.872l-84.48-35.328 77.824-143.872 40.96 131.072" />
      <path d="M317.952 94.72l-80.896 200.192L327.68 130.56 221.184 4.608" />
      <path d="M300.032 260.096l-65.024 38.912 2.048-190.464 86.528-2.048" />
      <path d="M393.216 52.224L509.44 14.336h-14.848l-53.248 12.8" />
      <path d="M633.344 77.312l-6.656 65.024 44.544 71.68 6.656-69.12" />
      <path d="M670.72 210.944L630.272 93.696l-6.144 176.64 6.144 11.776" />
      <path d="M532.48 260.608l-41.472 68.096-59.904-25.6-48.64-37.888" />
      <path d="M979.456 280.576l36.864-146.944L835.072 325.12l88.576-10.24" />
      <path d="M593.92 317.952L407.552 294.4l-48.128-72.704 117.248 99.328" />
      <path d="M18.432 133.632l8.192 89.088 18.432-53.248-11.264-95.744" />
      <path d="M818.688 315.392l37.888 7.68-94.72-30.72 29.696 23.552" />
      <path d="M15.36 216.576l53.248 78.848 145.92 29.696-98.304-10.752M524.288 136.704l-19.456-32.256-49.664 84.48 59.904 3.584" />
      <path d="M27.648 94.72L8.192 176.128l7.168 47.104 27.136 47.104" />
      <path d="M216.576 317.952l-34.816 8.704 118.272-68.608 15.36-18.432" />
      <path d="M316.416 104.96l-35.84-51.712-15.872-8.704 20.48 33.792" />
      <path d="M526.848 330.752l-135.68-74.24 103.936 6.656 39.424 11.264" />
      <path d="M999.424 96.256l-1.536-10.24-69.632-64.512-11.776-3.072" />
      <path d="M705.536 224.256l108.544 95.232-64.512-38.912 75.264-150.016M147.456 10.24l39.936-3.584 85.504 36.864-24.064-7.68" />
      <path d="M23.552 83.456L7.168 144.384 107.52 281.6l-7.168-84.48" />
      <path d="M657.408 224.256l-83.968 93.696-29.184 4.096 65.536-30.208" />
      <path d="M270.848 41.984l-86.016-31.232 78.336 35.84 34.816 19.456" />
      <path d="M720.384 253.44l-23.552-103.424 46.592-39.936 97.28 2.048" />
      <path d="M456.192 296.448H422.4l-66.56-110.08 29.184 74.24" />
      <path d="M350.72 188.416l23.552-96.768-20.48 45.056 28.672 123.904" />
      <path d="M640 62.464L458.24-21.504l75.776 36.352 51.2 9.216" />
      <path d="M927.744 19.456L844.288 5.12l1.536 12.288 86.528 8.192" />
      <path d="M241.152 123.904l72.192-23.04 18.432 49.152-25.088 103.936" />
      <path d="M164.864 9.728l-53.248 19.456L17.92 86.528l89.088-68.608" />
      <path d="M626.176 49.664l47.104 66.048-26.112-17.92L655.36 243.2" />
      <path d="M849.408 7.168l-77.312 19.456 111.616-7.168 46.592 9.216" />
      <path d="M850.432 312.832l159.232-81.92 8.704-52.736-12.8-90.624" />
      <path d="M873.984 301.056l-52.736 17.92 104.448-12.288 57.856-230.4" />
      <path d="M24.576 226.304l44.032-104.96L80.384 304.64l41.472 5.12" />
      <path d="M386.048 61.44l-33.28 100.864 16.896 77.824-.512-122.368" />
      <path d="M906.24 14.848l-69.632-6.144 104.448 14.848 12.288 30.72" />
      <path d="M443.904 313.856l28.16-37.376 59.392-24.576-15.36 70.656" />
      <path d="M510.976 191.488l-30.72-4.608-55.808 10.24L524.8 79.872" />
      <path d="M303.104 221.184l18.944-111.616-95.744-7.68 17.92 148.48" />
    </g>
    <g class="T47__logo_alt-fill">
      <path d="M230.912 307.712l-7.68-265.216L97.28 31.744l22.528 273.408M859.136 296.448l-108.544-29.696 158.72-233.984 65.024 43.52" />
      <path d="M627.712 260.608V69.12l-92.16-26.624-6.144 235.008" />
      <path d="M424.448 59.904l14.848-29.184 129.024-2.56-196.096 209.408" />
      <path d="M620.032 257.536l1.024-28.672-240.64-47.616 17.92 70.656" />
      <path d="M313.344 116.736L37.888 67.584l157.184-41.472 57.856 17.408M906.24 113.152l16.384-84.48-140.288 3.072-46.592 62.464" />
      <path d="M933.376 31.744l-73.728 281.6-88.576-34.816 106.496-227.84M230.4 301.056l-98.304 6.656-36.864-271.36 129.536 5.12M372.736 121.344l78.336-88.576 97.792 3.584L392.192 230.4" />
      <path d="M529.92 308.224l7.68-279.04 78.336 31.232-11.776 225.792" />
      <path d="M286.208 105.984l-245.76-3.072L84.992 46.08l99.328-26.624" />
      <path d="M819.712 29.696l131.584 20.48 15.36 49.152-238.592 4.608" />
      <path d="M106.496 120.32l6.144 182.272 72.192 3.584 59.904-255.488M757.76 273.408L825.344 166.4l151.04-95.744L817.664 307.2M476.16 253.44l-85.504-12.288 26.112-40.96 198.144-13.312M365.568 162.304l50.176-107.008 92.16-35.84 45.056 19.456" />
      <path d="M28.16 106.496l262.144-22.528-59.392-49.664-139.776 5.12M625.664 114.688l-43.008-80.896-58.88 1.536 41.984 204.288" />
      <path d="M756.736 57.344l92.672-37.376 19.456 248.32 100.864-167.936" />
      <path d="M369.664 158.208l35.328 20.992 151.04 66.048-151.552 8.192M188.928 311.808l-79.36-7.168 1.024-260.096 114.176 182.272" />
      <path d="M502.272 96.768l-55.808 70.656-74.24 40.448-1.024-55.808" />
      <path d="M36.352 107.008l264.704-6.144L176.128 20.48 104.96 44.032" />
      <path d="M531.968 60.416l89.6 95.744-7.68 117.76-78.848 38.912" />
      <path d="M820.736 24.576l-88.576 86.528 235.52-40.96-41.472-34.304M376.832 103.424l44.032 98.816 99.84-180.224-67.584 12.288" />
      <path d="M966.144 53.248L846.848 315.904l-88.576-44.032 61.952-104.448" />
      <path d="M601.088 46.592L476.16 24.064l140.8 62.976 6.656 196.608" />
      <path d="M400.896 251.392l-28.672-46.08 192.512-7.68-16.384 53.248" />
      <path d="M944.128 83.456l8.704 26.112-225.792-5.12 39.936-49.664" />
      <path d="M123.904 27.136l82.944-1.536 19.968 272.896H107.52" />
      <path d="M980.992 78.848l-158.208 217.6L857.6 31.232l22.528-5.632" />
      <path d="M534.528 29.184l20.992 278.528 68.096-41.472-10.24-196.608" />
      <path d="M305.152 109.056l-153.6-50.688 23.04-31.232 44.032 5.12" />
      <path d="M369.152 184.32L477.696 25.088l63.488 1.536-78.336 105.472" />
      <path d="M621.056 159.232l-2.048-95.744-56.32-37.888-15.872 265.728M976.384 86.016L793.6 107.008l-56.832-6.656 63.488-67.584" />
      <path d="M453.12 193.024l152.576 22.016-3.584 58.88-206.848-79.872" />
      <path d="M225.28 86.528l-113.152 26.624 30.72 198.656 41.472-1.536" />
      <path d="M229.888 58.368L46.592 95.232l20.48-39.424L225.28 275.456" />
      <path d="M375.296 118.272L481.792 81.92l-89.6 171.008-2.56-38.912" />
      <path d="M858.624 20.48l-128.512 84.48 227.84-2.048-89.088 176.64" />
      <path d="M425.472 49.152L378.88 211.456l54.784-30.208 95.744-159.744" />
      <path d="M801.792 197.632L903.68 19.968l-51.712 291.84-68.608-27.136" />
      <path d="M67.072 58.88l162.304 187.392-69.12-224.768-35.328 8.704" />
      <path d="M245.248 47.104l53.248 54.784-125.952 5.12-23.552-83.456" />
      <path d="M897.536 26.624l-55.808-2.56-57.856 29.696 142.848 86.016" />
      <path d="M618.496 251.392l2.048-164.352-81.408 218.112 41.984-7.68" />
      <path d="M464.896 193.024l101.888 40.96 2.56 16.896-175.104 2.56" />
      <path d="M417.28 196.096l90.624-115.2-125.952 24.064-11.264 86.016M293.888 91.136L40.448 97.28l66.048-62.464 108.544 5.632" />
      <path d="M948.736 53.248l27.136 25.6-83.456 143.872-38.4-198.656" />
    </g>
  </g>
</svg>