<svg version="1.1" viewBox="0 0 1024 768" width="1024" height="768" xmlns="http://www.w3.org/2000/svg">
  <path fill="#e6e6e2" d="M0 0h1024v768H0z" />
  <g fill-opacity=".5">
    <g class="SVG--0">
      <path fill="#8b8720" d="M720 646.8l209.3-7-12.6 89.4-243.4 7.3" />
      <path fill="#9d9e87" d="M802.4 433l-133 113 352.3 34.6-10.8-150" />
      <path fill="#c39297" d="M274.3 613.6l-86.5-239.8-152 293L165.5 617" />
      <path fill="#2b2b2f" d="M1018.6 745l-58.8-135-.7 117.6 52-114" />
      <path fill="#7b8382" d="M213.4 89.7L-2 136l45.4 26L289 143.3" />
      <path fill="#26262a" d="M293 194l-59 64.7-28-15.6 68.2-73" />
      <path fill="#82986f" d="M282.6 183.5L336 237l-15.4 110.2L447 225.7" />
      <path fill="#676a6d" d="M162 472.8L30.4 413 14 441l106.3 58.8" />
      <path fill="#1e1e22" d="M381 175.4l12-42.3-38.5-47 30-58" />
      <path fill="#3c5a4d" d="M487 188.8l40.3 157.6L468 204.6l81.3 84.7" />
      <path fill="#91797d" d="M249 267.3l-49.5 88 3 106.6L148 302" />
      <path fill="#7e8283" d="M31.7 799l175.7-346L18.7 712.8l53 82.5" />
      <path fill="#514d52" d="M591.3 144.2l13.5 169-2.5 37.7-16 43" />
      <path fill="#f90006" d="M112.4 534.2l-5.2 37.7-37.5 9-4-47" />
      <path fill="#fff" d="M-31 288.5L180.8 371l419-45.5-235.4 177.2" />
      <path fill="#0d0d19" d="M1016.7 468.2l-21.7-7 3.2 73.3L1012 591" />
      <path fill="#87c505" d="M267.6 77.7l-10-51.8-32.6 2-18.7 42" />
      <path fill="#8a8b4a" d="M852 583l35.7-12.7-12-105.4-77.4 33" />
      <path fill="#434347" d="M308.7 492.3L237 453.7l38.6 44.2-21.6 51" />
      <path fill="#98aeaa" d="M503 459l-4.5 124-141.8-109.7 95.3-7.6" />
      <path fill="#fff" d="M390 160.4l-31.7 79 334.3 234-300-5" />
      <path fill="#151519" d="M271.2 86l153-9.7-35.8 9.3L318.8 72" />
      <path fill="#fff" d="M642.8 768.8l-450.4-174L162.8 475l-36 301.6" />
      <path fill="#858480" d="M705.8 597.2l.6-137.6-70.7-28.7 126.8 3" />
      <path fill="#fff" d="M923 485.5l.5 313.5 39-357.7-353 13" />
      <path fill="#656368" d="M586 20.5l-3.7 86 16.3 73.2L603.2 20" />
      <path fill="#fdfce7" d="M742.2 451.8L734.7 663l-7.3 136 90.2-258.8" />
      <path fill="#fff" d="M-31 198.6l176.7 297.8 31.6-397.8 75 24.4" />
      <path fill="#5e5b17" d="M823.3 733.2l67.4-51.8-127.2 26.4-1 22.7" />
      <path fill="#ff2a2f" d="M268 563.4l9.6 52.2-51-4.4 4.4-39" />
      <path fill="#636367" d="M758.6 142.6l57 42.6-48-59-90.3-89.6" />
      <path fill="#9cbfbe" d="M360.5 620l141.6 2.7 21 83.7-141-4" />
      <path fill="#1d171d" d="M777.4 358.8l27.3.6 8.4 22-44-8.8" />
      <path fill="#fff" d="M1013.4 18l-4.4 326-361.3 2.5L856.5 5.7" />
      <path fill="#454547" d="M848 617.4l-3 26.3 33.8 9 7-36.6" />
      <path fill="#fff" d="M273.5 517.5l-53.4-58-34 37.4 27 61" />
      <path fill="#313133" d="M888 213l-60.5 44.4 45-14.2-31.2-23.6" />
      <path fill="#4c6157" d="M250.3 139l59.4-74-87.6 69-57 21.5" />
      <path fill="#fff" d="M315.7 205l10-4.5-33.6 303L207 309" />
      <path fill="#29292a" d="M996.2 623l18.2-15.8-.2 122.4-14 .3" />
      <path fill="#fff" d="M131.6 799L-31 408.6l131.3 196L47 659.2" />
      <path fill="#151619" d="M187 302.2l-3.4-50.7 55-25.8L172 241" />
      <path fill="#171418" d="M31.6 173.5l-16.4-27L39.8 161l96-23" />
      <path fill="#16141b" d="M356 344.3l5.3-58.7 14.2 49.7-52-1.7" />
      <path fill="#ff2d32" d="M205.8 411.8l-5.7 40.8-46-5.4 7-41.2" />
      <path d="M373 186.6l-31.8 16.7 37-39.8 10.5-17.3" />
      <path fill="#fff" d="M389.6 189.8l194.6 28.4-5-219-142.6-.6M-31 761.4L733.6 799l-38-126.7-3 39" />
      <path d="M714.6 647.6l2.2-30.7H707l-.2 35" />
      <path fill="#fff" d="M-1 125.5l229-43L187.8-28l-201.4-3" />
      <path fill="#1b2423" d="M181 617l26.2-11-38.6-2 32.2-59" />
      <path fill="#fff" d="M881.4 733.4l-367.2-.7L921.6 799l-26.3-192" />
      <path fill="#303d45" d="M322.8 186.3l22.8 111.2 3-110.8L381.4 294" />
      <path fill="#6f6d74" d="M793.2 428l114 19.7-174.8-1.5-94-1.3" />
      <path fill="#fff" d="M417.2 645.7L130.7 610l-35.3 43.5L58 799" />
      <path fill="#868388" d="M531.6 280l12-4.4-42.2 72.6-42.8-42.7" />
      <path fill="#9cd914" d="M391 215.2l3.3 45.8 44-.2 1.8-48" />
      <path fill="#fff" d="M-31 295L72.8 442.7l66.8 18.8 73.2 14.6" />
      <path fill="#242022" d="M50.7 157.6l94-10.2-97.8-15 76-14" />
      <path fill="#fff" d="M561.3 551.3l-260.7 67.3L584 634l265.7-34.3" />
      <path fill="#1e1e21" d="M410 76.7l-2.7-23L379.7 38l46 9" />
      <path fill="#050205" d="M138.3 134l52.3-50.6 22.2 9.3-28 2.5" />
      <path fill="#473e3e" d="M268.8 467.3l-49.8-15L87.4 626.8l112-161" />
      <path fill="#525150" d="M219.6 562.5l55-21.5-74.4 13.4-46-102" />
      <path fill="#68686b" d="M314.6 523l14.8-23.3-8-29.4-44.6 19.2" />
      <path fill="#424e49" d="M280.5 187.5L211 79.5 204.3 94l62.3 50.6" />
      <path fill="#1a2626" d="M157.4 298.5l25.2 74-26.4-52 31.3-26.2" />
      <path fill="#fff" d="M246.7 767.5L354.4 799l10.8-337-90.4 96.2" />
      <path fill="#000100" d="M124.7 605.2L96 646.7l28.4-31.2 28.8-26.5" />
      <path fill="#020000" d="M216.3 557l9-4-24.5 25-1.7 37" />
      <path fill="#f2f2f9" d="M997.2 720l1.3-285.5-20.5 26.8V696" />
      <path fill="#6e7230" d="M919.7 483l-46 96.5.3-49.8 44 26" />
      <path fill="#312939" d="M312.5 312.7l32-8.7-2.6-67.7-15 93.5" />
      <path fill="#fff" d="M-31 334.3l260.3-111.6 31-77-196.7 10m98.7 178.5L652 379.4 207.7 460l-12-176.4m-197 475.8l93.6-275.7-16.3-15-95-40.4" />
      <path fill="#fff" d="M-31 357.3l206.3-221-41.8 382 58.3-14.3" />
      <path d="M128.5 571.6l6.6-53 10-6.8-34 94.8" />
      <path fill="#fff" d="M17.4 147.5L334.4-31 28.4-9.5l23.4 175" />
      <path fill="#6c6d6e" d="M817.8 190.8l51.7 47L892 262l146 163" />
      <path fill="#fff" d="M660.7 405.4L733 90.7l-1.7 4.4L650 50" />
      <path fill="#83818a" d="M884.6 445.3l114.2 4 22.2-69-44 44" />
      <path fill="#2a2829" d="M95.7 468l-.2 31 11-12L21 438.2" />
      <path fill="#f5ae87" d="M361 778.5l11.6-46L517 720.3l-163-13" />
      <path fill="#fff" d="M333 72l52-32.4 332-42L150.5-31" />
      <path fill="#696974" d="M962.8 598L957 459l16.2 4 8 91" />
      <path fill="#2c2c2d" d="M725 147.7l26.3 5.6 14-26L791 152" />
      <path fill="#4c5455" d="M196.7 297.8l-35-37.8 51.6 35.3L193 401" />
      <path fill="#fff" d="M236 123.5L339 194l31.4-20 7.2-61.6" />
      <path fill="#494c4d" d="M79.3 687l-50.8-26L50 644.5l-8.3 51.2" />
      <path fill="#696434" d="M823.4 647.7l-5 81.4-25.2-85-171.7 4" />
      <path fill="#4f4909" d="M910.8 738.5l10-10.2 1.4 9.4-5.8-108.4" />
      <path fill="#3e3d48" d="M874 457l-22 41-11-42 41.7 21.6" />
      <path fill="#fff" d="M784.3 616l168-90.8-32-4.8 80.3 97.6" />
      <path fill="#423e41" d="M157.3 137l-15-47.2 19.3 39.3 67.4 34" />
      <path fill="#fff" d="M662.3 446l187.6 5.2-9 79.5-19-39.7" />
      <path fill="#f9ffff" d="M350.3 309l17-124.7L433.7 348 335 202" />
      <path fill="#fff" d="M525.3 311l-5.6 482 73-374.6-11.3-239.7" />
      <path fill="#51490a" d="M725.4 737.2l-14.2-10-4.8-50.6 20.2-5" />
      <path fill="#1d3127" d="M257 140.4l20 59.6-18.4-90.4 19.7-17" />
      <path fill="#8e8e90" d="M985.3 738.2l-9.5-130-18 46.7-2 71" />
      <path fill="#fff" d="M744.8 7.3l-73 8 83 87.4 115.6-87.5" />
      <path fill="#0c1213" d="M201 297l36.7-11.8 4.3-46.8-21.3 55.6" />
      <path fill="#8b8b8f" d="M911 403.3l-158.5-.6-83-3.4 166.7-1" />
      <path fill="#fff" d="M99 398l28.3 157.6-155.7 128 145-91.3" />
      <path fill="#fff" d="M89.3 451l41-337.6 31 12.3L-31 232m321.7-32.6l47.6 52.8-1 47.2L196.6 352" />
      <path fill="#838184" d="M584.2 202.2l17-129.7 2 135-6 50" />
      <path fill="#fff" d="M586 279l-62.3-25.5L411 40l171.2-71" />
      <path fill="#b0f8f2" d="M466.5 484.7l-96.8 11 4 50.3 97.4-2.2" />
      <path fill="#998b8e" d="M567.5 651L381 617.6l-25.2 27L406 641" />
      <path fill="#fff" d="M91.2 667L26 701l27.7 22L70 643.6M475.2 226l-7 245.3-205.3-1.8L467 214" />
      <path fill="#222022" d="M121.5 464.7l-60.2-20.5-12.4-33-25 7" />
      <path fill="#413f41" d="M511.8 307l31-19.4-45.7-67.4 42 48" />
      <path fill="#28292f" d="M718.2 557.3l-9.7-51-4.3 37 3.8 42" />
      <path fill="#4f4d4f" d="M64 763.4l-6-43.6-20.6 29.5-15.5-73" />
      <path fill="#071211" d="M78 641.7l13.4 13-23-16 57.3-55.5" />
      <path fill="#151517" d="M368.2 97.2l-26-28.5L330 82l-17.4-19" />
      <path fill="#242627" d="M86.5 652l9 17.5-24 22.7 42.2-77.2" />
      <path d="M284.7 184l11.8 15 35 5-39-15.4" />
      <path fill="#8d8387" d="M485.7 585.8l-20-21.4 12-106.7 11.2 22" />
      <path fill="#201e21" d="M19.3 134.7l52.3-2-48-11.3-4.3 68.6" />
      <path fill="#2e272d" d="M480.5 308.5l21-45-1 16.6 7 6" />
      <path fill="#fffff8" d="M914.2 474.2l134.7-22.5-158-6.7-13 134" />
      <path fill="#4b4f50" d="M160.4 472.7l-46.8-5 24.2 54-42-35.2" />
      <path fill="#342e19" d="M859.2 553l-6.3 29-4-1 5-78.7" />
      <path fill="#a5a4a8" d="M771 345.2l-93.7 3.7L842 392l-104 .7" />
      <path fill="#7c7a28" d="M772.4 520.8L823 490l2.6 45.5 89-18" />
      <path fill="#68756c" d="M1014.3 314.2l2.3 106.5 2-190.3-6.6 70" />
      <path fill="#fff" d="M242 550.2l23.5-77.5-88 23.2 24.2 46m93.6 211l708 46 51.7-66H878" />
      <path fill="#1d1d1f" d="M370.5 101.6l24-32.8 2.6 7.6 22-6" />
      <path fill="#6a6669" d="M575 494l-181.5-8 57 3 288.5.2" />
      <path fill="#fff" d="M24-31l187 174 5.6-44L-31 136" />
      <path fill="#262426" d="M152.3 87l-20 15 17.4 5-33 14.8" />
      <path fill="#090608" d="M131 152.4l38-19.8-27 27.7 4-2" />
      <path fill="#969698" d="M695.3 440l-89-66 41.2-2.6 75.8 124.8" />
      <path fill="#191917" d="M149.8 608l-9-30 14-42-4 29.8" />
      <path fill="#06070a" d="M703 485.5l5.5-24.2 5.7 1 2.4 29.5" />
      <path d="M387.6 152l.2-33-14.3-22.7 12 49.8" />
      <path fill="#fff" d="M345.4 574.8l42 135.5-334 88.7 9.6-80.3" />
      <path d="M373 43l34.7 2.2 12.6 34.5L401 37.5" />
      <path fill="#fff" d="M-30.5 502.8L34.2 693l-4-275 22.4 12.6" />
      <path fill="#383638" d="M164.4 118l10.6 26.4-6-61.5 17.8 6" />
      <path fill="#fff" d="M342.6 274.3l297.2 186-282 2 12.2-196" />
      <path fill="#8e8588" d="M366 464.8l67.5 5.7 55.7 16.8-131.8-1.5" />
      <path fill="#908587" d="M469 621l4.4 96 7.8 4 9-108" />
      <path fill="#f5f6f7" d="M187 273.3l162-166L222.5 265 211 290.8" />
      <path fill="#010101" d="M230 252.3l-15.5-14 27.8 15.3 21.7-35" />
      <path fill="#fff" d="M445 698.6l-85-201.2L221 573l148-8.2M374.4-31L205.8 1l183 77.2-19.5 26" />
      <path d="M231.7 217.8l45.8-48.3-34.2 47.7-21 14" />
      <path fill="#1e1a1d" d="M383.6 304.2l-26-59.4-2.4-17.5-9.3-40.8" />
      <path fill="#b2cdb4" d="M821 50.4L932.4 73 788 66l-125.6-1.4" />
      <path fill="#fff" d="M826.2 625l18 57.3 3.4-132.7L580 609M293 502.8l-39.8-8.7 70.3 8-14.2-22" />
      <path fill="#373e3e" d="M173.4 347.3l23.4 35.4 3.8-47-34.6 50" />
      <path fill="#2a1111" d="M240 557.2l-43.8-14 41.3 7 33.8-16.7" />
      <path fill="#fff" d="M161.2 525.5l-30 217-38.2-86L201.5 547m3.5 52l18 170 5.2-226.5-25.4 54.4" />
      <path fill="#fdb792" d="M365.7 548.4L348 615.8l32.6-42 129-1.6" />
      <path fill="#fff" d="M1034 256l-482.2-9 51 10.6-2.4 48.4m-79-276.5L417.6 252.7l-21-13.4 198-89" />
      <path fill="#79797c" d="M651.8 239l-65.4 8 60.6-13.8 4.4 144" />
      <path fill="#fff" d="M262 115.2L345.3-31 188.6 144.5l-5.2-50m465.3 294.8l213-106.6-107.4-136L737.8 399" />
      <path fill="#29302f" d="M333.4 241.8L320.2 190l10 6.8 16.5 86" />
      <path fill="#53906f" d="M495.6 195.8l21 52.6-27-1.7-24.6-38.3" />
      <path fill="#fff" d="M893.3 367.2l-87.5-149L832.3 397l185 3.4m-643-293.6l-50-30.2-62.5 75 77 56.6" />
      <path fill="#76767a" d="M646.4 6.6l137.7.2-122 5.8L694 57" />
      <path fill="#fff" d="M125.2 529.4l-3.2-36-99.8 12L77 533.6M1013.6 298l-225-164.5L709 129l304-61" />
      <path fill="#515154" d="M1055 5.3l-104 .2-77.5 2.8 78 1" />
      <path fill="#3f3a3e" d="M441 520.6h216l-11.3-2.3" />
      <path fill="#fff" d="M480 320l29.6 10.8L502 259l25 5" />
      <path fill="#5a595c" d="M478.7 550.6l-5.2-3.2 127.3-.4-5.3 4" />
      <path fill="#99e4a3" d="M908.8 313.7L876.6 366l75.2-87.8 70.4 23.5" />
      <path fill="#fff" d="M572.6 491.2L262 339.8l387 53.5 5.5 62" />
      <path fill="#3a4f44" d="M230.6 141l-11-23 45.2 1-53.3-23.7" />
      <path fill="#2c302f" d="M151.3 519l-8.7 88 15.4-82 34.7-20.3" />
      <path fill="#fff" d="M602.5 262l38.4-50 3-174.4-38-13.2" />
      <path fill="#454548" d="M1014.7 566.3v-109l-19 75 3.6 57.6" />
      <path fill="#6b6c72" d="M540 644.2l1.3 5.6.3-1 171.6-3.2" />
      <path fill="#fcffff" d="M519.8 700.6l-201.2-30.8 265 9.7L715 701" />
      <path fill="#fff" d="M603-13.5L461.5 217.2l-69.8-5 15.5-128m648 497.5l-31.3 37-131-7.7 92-36.2M292-31L-31 4.2l86.2 125.3 57.4-9.5" />
      <path fill="#3e3c3e" d="M511 333h-40l7.2-39.4 3.4 31.5" />
      <path fill="#a1a0a3" d="M652 83.8l6.5 31.4-44-18-3.6-8" />
      <path fill="#716f72" d="M659 703.8l-60-1.5-131 1.5 151.4 3.2" />
      <path fill="#fff" d="M166.4 333l28 5 11-21.7-28.3-19.5" />
      <path fill="#f3f4ff" d="M722 540.8l-11.3-47.6-10.3 24.7 126.8 13" />
      <path fill="#050a0a" d="M183.2 282.5l25 13 19-12.6 8.6 15" />
      <path fill="#0c0c0e" d="M394.7 154.5l-23.2 25.3 17.2-48-3.3 16.5" />
      <path fill="#1d1c1d" d="M30.8 115.5l11.4 10.7-28.4 15.2 10 22.6" />
      <path fill="#fff" d="M179 246.6l67-48.6 7-51.5-33.5-10.2m-20.6 244l-230-45.7V408l282-1.4" />
      <path fill="#85b819" d="M217.4 25.7l55 10.3-45.8 8.6-9.6 46.7" />
      <path fill="#000603" d="M132 537.7L121.4 592l17.3-53.2-3.8-19.3" />
      <path fill="#1d1822" d="M367.5 300l-7 33.8-2.7-37 21.2-16" />
      <path fill="#525153" d="M28.8 415.7l-17.2 16 6.8 11.6 8 15.6" />
      <path fill="#5a5a5b" d="M848.6 249.6L879 215l26.7 14.2-48.6 1.6" />
      <path fill="#010000" d="M271.6 102.7l-6-.5L303 74.8l9 1" />
      <path fill="#fff" d="M393.5 216l254-98.6-293.6 84 19 70.2" />
      <path fill="#9a9a9d" d="M646.7 177.6l-60.2-16.8 68-4.2-5 96.3" />
      <path fill="#ffe0de" d="M141.4 600.7l6.3-62 8.7-40-32.8 91" />
      <path fill="#2e3636" d="M213.3 583.7L195.7 611l-19-6.7 2.6 16.7" />
      <path fill="#cfccce" d="M105.3 145l-1.3-18-62 14.3L65 152" />
      <path d="M221.7 131.3l9.6 5-53.6 17.2 28.4-2.2M858 625l-3-8.7-7 29 6 7.5" />
      <path fill="#7e7e82" d="M691.8 675.6l-39.5 3.5-140.7-5 137.5-1" />
      <path fill="#414142" d="M279.4 503.2L265 550.4l7.6-51.2-17.6-50.8" />
      <path fill="#4a695f" d="M733.8 180l-3.5-.5 7.8 11.3-38-4.6" />
      <path fill="#fff" d="M363 473l-70.5-220.6-104.7 224-118-41m33.4 52.5l26.3-21-26.5-3-8 9" />
      <path fill="#daa4a1" d="M969 75.4l-25.3-38-63 25 111-17" />
      <path fill="#fff" d="M367.2 319.7L339.7 302 329 313l.8 17.3" />
      <path fill="#545455" d="M869 240.2l-48.2-52.5L740 103l43 52" />
      <path fill="#010005" d="M327 333l-5-26 8.7 24.2 34.6 20.5" />
      <path d="M279.2 202L234 253l51.2-51-26.4-22" />
      <path fill="#6a6767" d="M708.6 341.3l26 11.2-40.2 2.7-6.6-2.6" />
      <path fill="#3e3e3f" d="M312.5 520l-13-19.5L266 515l62.5-12.2" />
      <path fill="#e6e7d5" d="M866 403.3L861.4 621l10.6 90 .7-231.5" />
      <path fill="#79e3ff" d="M461 684.8l-1 13-76.4 3-31.8-18.4" />
      <path d="M60 635l-18 19.3 33.2-20.7-7 8.3" />
      <path fill="#88878b" d="M645.7 18.3l8.5-23.5-3.5 41.7L589.3 15" />
      <path fill="#363637" d="M732.4 105l-2.8 17.6 27-13.5-11.6-3" />
      <path fill="#1e1d1d" d="M53.2 722.4l16.4-28L54 750l5.6 8.8" />
      <path fill="#0b0a0a" d="M44.3 425l66.8 37-4 1.4L82 451" />
      <path fill="#6b7258" d="M918.3 706.5l71.6 1-152-5.3 217 1.4" />
      <path d="M245.3 460.3l29.5 23.6-44.6-27-21.2 7" />
      <path fill="#878847" d="M886.4 670l-199.2 5 166 6 33.7 27.6" />
      <path fill="#4e5050" d="M170 327.3l-17.7-32 17.3 7.6-25 29" />
      <path fill="#fff" d="M157 467.2l11.8-123-182-219 1.4 254.4" />
      <path fill="#494547" d="M484.4 335.3l36.3-17.4-15-24 14.7 36" />
      <path fill="#7a7a7b" d="M853.7 224.2l34.5 45.8-23 17.2 40-4.8" />
      <path fill="#b1b1a5" d="M762.3 580.4l27.2-5.4-11-126.7 2-27.7" />
      <path fill="#66666a" d="M895 8.4l-87.6-4-73.5 2 33 2.8" />
      <path fill="#3d4e4d" d="M195.3 481.3L146.8 468l24.4 15.4 51.4-29.5" />
      <path fill="#fff" d="M79 628l-104 12.6-6-77.8 150.6 17.4" />
      <path fill="#dad8b6" d="M803.4 695.7l-12.7-80.4-34 4.2 38 88" />
      <path fill="#fff" d="M210.3 564.3l262-45.3-209-8.8 189 89.6m-163-152l144.4-174 17-119.7 46 134" />
      <path fill="#282725" d="M206.2 542.8l-22-23 12.3 27-14.2 45.2" />
      <path fill="#cca49f" d="M1011.3 203.8l-70.3 1.8 16-15.3 42.6-1.6" />
      <path fill="#eb1f24" d="M168.5 451l3-20 32.6-23.4-44 .6" />
      <path fill="#4b4b4c" d="M972.2 649l-55.3-3.4 85-1 8 1" />
      <path fill="#f0fff8" d="M262.5 131l-39.4 2.3 48-50-91-15.5" />
      <path fill="#49494d" d="M1015.8 116.8l-.3 59.8 2.5 11-.8-158.8" />
      <path fill="#191819" d="M129.6 115l-19.3 15.7-45.6-4-18.8 14" />
      <path fill="#6d6e76" d="M825 549.4l-21.8-2.4-215 1.8L609 552" />
      <path fill="#343838" d="M227 332.5l-18.7-7.2.5-20.2-34.7-10" />
      <path d="M57 152.2l42.3-4-68.4 18 12 8.4" />
      <path fill="#49494a" d="M306 477l24.8 2.7-8.4 27.7 17.7 1.2" />
      <path fill="#f2f3f9" d="M748.5 488.2l-36.5.5 23-46.4 111 44.4" />
      <path fill="#3f3d3e" d="M77.5 723.5l-22.8-32.8 34.5-5.8-28.4-5" />
      <path fill="#fae9e7" d="M158 408.4l49.4 46-11 7.2-7.2-38.4" />
      <path fill="#264134" d="M256.2 164.3l12.3-76.8-5.2 70 27.5 33.7" />
      <path fill="#fff" d="M388.6 551.7l81 8-5-104.4L456 545" />
      <path fill="#4c4b4d" d="M187 304.8l-16-41.3 34.4-48.7-22.7 43.7" />
      <path fill="#242a2a" d="M216.4 328.8l-46 13.8-20-17.6 42 17.5" />
      <path fill="#463a00" d="M914.8 534.6l6.4-38.8-10.3-7.5 1 59.7" />
      <path fill="#5e6727" d="M823.2 522.6l-32-32.2 80.6-1.4-47.7 5.4" />
      <path fill="#fff" d="M384.5 131.4L552 101l60-12-164.7-57M771 51l284-39-359.3-3 91.8 143" />
      <path fill="#85848a" d="M931.7 445.8l-35.6 1.6 35-49 2-17.8" />
      <path fill="#2f2423" d="M211.2 580l12-37.8L206 574l.4-2.8" />
      <path fill="#75d3fc" d="M371.5 522.3l100.2 20.2-102.2 3 3.3-2.7" />
      <path fill="#fff" d="M215.2 293.2l17.8-19-21.7-36.8-26.2 23.8" />
      <path d="M142.6 108l30.8 6.3-21.8 3.6-17.6-10" />
      <path fill="#fff" d="M-8.5 799L-31 661.6l66 64.2-2.7 59" />
      <path fill="#5b5b4f" d="M1013.3 493.4l-9.8-38.6-1 34.6-146.4 2.2" />
      <path fill="#232325" d="M376.4 53.4L372 38.8l16.6 3 24.4-17" />
      <path fill="#71ce89" d="M454.3 503l-13.5 13.6-63-3-5.4-15.7" />
    </g>
    <g class="SVG--1">
      <path fill="#003b1c" d="M339 199.6l-39 3.8 6.3-2L364 188" />
      <path fill="#ea0d14" d="M74.7 576.8l37.5-4.4-2-7.6L64 569" />
      <path fill="#606063" d="M970 403.4L868 400l187-1.3-27 .7" />
      <path fill="#fff" d="M23 157.2l3-22.8 13.7-2.3 6.7 32" />
      <path fill="#f5fdf9" d="M106 568.4l-20.7-8.8-8-19.5L96 553" />
      <path fill="#fff" d="M971.2 586.8l-188.8-15.4 97 37.3L885 678M126 494l5.7 18.3 30.8 10.5-3.7-49.4" />
      <path fill="#7a7540" d="M763 701.7l23.4-27.6-11 34-139-3" />
      <path fill="#f68c54" d="M361.2 612.3l-4.3-19.7-15-12.3 28-1.4" />
      <path fill="#737074" d="M664.3 438.2l36.5-7.4-43.8 19-9-54.8" />
      <path fill="#595a50" d="M671.8 518l98.4 1.5-66.8 2.3-66-1.8" />
      <path fill="#2c2c2c" d="M431.8 85.2l-41-8.6-22.5 27.8 41-32" />
      <path fill="#666466" d="M584.6 373.8l19.8-6-3.5-36-19 34.2" />
      <path fill="#272726" d="M1003.3 619.2l8 4 3 102-11.3 10.6" />
      <path fill="#fcfcff" d="M639.8 524l30 121.6 31.7-40L708 523" />
      <path fill="#2a2929" d="M27 695.2l22.8 60L26 708.7 50.3 680" />
      <path fill="#7ae2a2" d="M437.5 656l-63.5-7-1.8 22.3 75.3-1.2" />
      <path fill="#414041" d="M113.5 461l30 24-22.2-21.3 3.4-25.8" />
      <path fill="#fff" d="M72.5 634.3l60-101.2-10.3 45-151.8-7" />
      <path fill="#312f31" d="M168.4 126.7l17.2 33.5 4.7-8.4-25-30" />
      <path fill="#a0adaa" d="M796 79.2l31.5-8.3-63 59 36.8-15" />
      <path fill="#111414" d="M155.6 327.4l7-25.4 8.3 68 4-31.6" />
      <path fill="#fff" d="M37.5 697.7l23.6.6v21.4l-26-1m744-357.3L765 154l-72 79.6-43 7.5" />
      <path fill="#ef580b" d="M369.8 720.7l-2.5 18.2-17.3 14-2 4" />
      <path fill="#40604f" d="M492.8 262.3l51.7.6-47.5-11-29-54" />
      <path fill="#302f2f" d="M191 575.5l4.4-23L177 601l-13.2-4" />
      <path fill="#2a292a" d="M21.7 445.4L78 465.7l45.2 33.2-77.4-52" />
      <path fill="#d1ffe7" d="M488 238.7l-26.4-81 49 86-14.8.4" />
      <path fill="#fff" d="M175.2 512.7l-.4-3.6L135 662l63.7-117m109-346.8l-44.2-54 38-61.7 24.5-3" />
      <path d="M321 315l19.7-12.4-.5-1 6-15.3" />
      <path fill="#e10d13" d="M68.4 581.5l1.2-6.4 1.8-47 11 25" />
      <path fill="#313233" d="M316 462.7l-67.4 92.7 24.5-27.7 18-39.2" />
      <path fill="#737172" d="M602 175.4L580.3 252l.4-4.4L596 246" />
      <path fill="#fff" d="M104 99.6L113.6-31l125 97L255 40.2m224 284.5l-9-58.2-86.7-7-16.7 66.8" />
      <path fill="#333736" d="M142 476.8l6.2-4.5-2.3-13-26 40.7" />
      <path fill="#fff" d="M185.3 366l-20.6-10.8 116.7 13.4L339.6 253" />
      <path fill="#47464b" d="M848 460.4l2 25.6 29-16.7 2 26.6" />
      <path fill="#181819" d="M231.2 248L185 225.3l17 15.5 12-4.7" />
      <path fill="#faf5f1" d="M236.3 583.6l6.6-3.2 2 .7 20 32" />
      <path fill="#8abc1e" d="M223 73l37.3 3.3L264 40l-7.5 7.8" />
      <path fill="#646467" d="M1015.3 400.4l-53.7-58.6 34.8 10.6-17.8 4" />
      <path fill="#574f13" d="M776.7 730.4l-7.4-35 43.4 40.2 16.8-41" />
      <path fill="#9e9ca2" d="M922 432.7l-75.7-9.4L879 394l7 53.3" />
      <path fill="#fcffff" d="M682 87.3l-30.8-47.5.6 225.7L758.3 129" />
      <path fill="#fff" d="M568 375l109.7-3.7-73.6-60.6 4 361.7m-401-375l100 179-36 13L296 302" />
      <path fill="#1a4657" d="M899 323.6l10.5 1.5-5 10-8.7 3" />
      <path fill="#fff" d="M894.7 445L773 465l-16-103.8 24 92" />
      <path fill="#e40007" d="M245.8 614.7l-19-6.7 41-13-1-21.6" />
      <path fill="#585e27" d="M921.5 646l-210.4-.3 209 3.8-6 38.5" />
      <path fill="#fff" d="M125.7 144.8l20.5 2.2 9.2-32-28.2 5" />
      <path fill="#18101b" d="M365.2 259l10 23.2 1-18.7-41.6 10.6" />
      <path fill="#fff" d="M270.4 268.4l-62 39.4-40.3-2.6-2 23.5" />
      <path fill="#fff" d="M325.5 207.3l12.2 83.2L190 398.2l70-160.5m-291 204l80-20-11.3 24.7-37-41" />
      <path fill="#262627" d="M237.5 456.4l30.4 20.4 12 65-7-58.6" />
      <path fill="#fff" d="M266.2 532.8l6-35.7-45.5-35-39.5 30" />
      <path fill="#68686a" d="M648.2 328.5l2 82.6 1.3-79-1.3-67" />
      <path fill="#2a2828" d="M154.7 465l1.7 7 30 28.2-5.4-11" />
      <path fill="#4c4d4f" d="M45.8 684.8l-9-63.2 15 60-28 11.2" />
      <path fill="#fff" d="M130.6 157L52.3 424 97 455l64.5-13.3" />
      <path fill="#b4b4b8" d="M621 565.3l-2-108.7 19 6.5.8 128" />
      <path fill="#4c484b" d="M801.8 374.4l1.7 3.5 9-27-47.8 27" />
      <path fill="#000100" d="M235.5 117.5l27.6-2.3-51-7.8 4 .6" />
      <path fill="#fff" d="M471 633.7l-5.5 22.5L153.7 641l293.8 5.2" />
      <path fill="#fffc92" d="M797.2 494.5l-68 .5 14.3 24.5 54-5.5" />
      <path fill="#fff" d="M1013.3 448.3l13-188 28.7 203-376-3" />
      <path fill="#0e0d0e" d="M123.4 461.7l-39-4L109 454l20.2 21.5" />
      <path fill="#fff" d="M76.5 642L53 652.5V681l30.8-15.8M425 502.7l-13.4-34.4-11.6 46-14.3-29.6m-304.6-5L-31 432l7 349 65-125m257-169.3l6.4 19.4 15.8 3-1.4-25m621.7-66l2.5 27 2 44-27 1" />
      <path fill="#6f6d73" d="M875.2 439.6l-116.6-.2 81.8-8.3 28.2 3" />
      <path fill="#838c86" d="M1015.7 122.5l4.7 92-8 95.5 3.7-110.6" />
      <path fill="#050505" d="M375 54.7l-12 24-10 5L381.5 66" />
      <path fill="#b0aeb0" d="M722.2 333.3l-105-32.4-9.2 17 15.8-3" />
      <path fill="#969698" d="M639.4 519.4l-64.8-.2-6.3-51.8-6.7 57" />
      <path fill="#39393a" d="M345.8 335l2.7 20 10.2-29.4 29 2.5" />
      <path fill="#fff" d="M872 427.6l6.4 40 9.5-67.4 44 29" />
      <path fill="#ffffba" d="M832.5 674.8l-10-23 25.8-5.3 3 23" />
      <path fill="#061009" d="M255 142.8l-33-8.2 23.2-1 24 11.4" />
      <path fill="#fff" d="M600.4 646l47-67.5-272.7-3 36 24.5" />
      <path fill="#4b4b4a" d="M498.8 210.8l17 49.3 36 2-18 9" />
      <path fill="#fff" d="M404.8 61.4L396.6 76l-20.3-12 7.5-19" />
      <path fill="#e30810" d="M97 543.8l-9.2 5L76.2 534l34.5-1" />
      <path fill="#fffdfd" d="M194 411.4L162.3 446l73.5-59.4 118 107.7" />
      <path fill="#110e10" d="M134.2 153.7l-15-12 5.7-25.3-5 3.5" />
      <path fill="#000101" d="M86.7 649.6L161 576l-70.8 73.7-1 19" />
      <path fill="#393939" d="M322 501.8l1-22.7 8 25-34.4 13" />
      <path fill="#49494d" d="M1017 75.5v-96l-2.7 49.4 1.7 77" />
      <path fill="#232324" d="M746.6 166.3l-2.4-9L779 134l-16-2.3" />
      <path fill="#05080a" d="M374 280.7L357.5 247l23.5 32-25 30" />
      <path fill="#8f8c8d" d="M486.3 670.5l-7.2-60.8-10 67.7 183-2" />
      <path d="M355.7 237.2l.8 1.5-12.2 3.2-8-5" />
      <path fill="#fffefe" d="M296 772L174 636.6l26.5-60.8-25.3 18.7" />
      <path fill="#2d2e2f" d="M22.7 157L14 167.8l24.8 2L55.2 184" />
      <path fill="#1f2020" d="M268 540l-17.4 9.6 4 2.7 28.7-49" />
      <path fill="#fff" d="M1020.3 747.5l-4.6-314.6 39.3 366-322-68" />
      <path fill="#857f25" d="M728.2 485.3l-8.7 7L723 522l13.4-6.4" />
      <path fill="#808873" d="M820 493.8l-307.2-3 260.4-2.4 85.8.3" />
      <path fill="#5a5a5b" d="M648.8 221.8l3.5-84 1 37.3-3.3-85" />
      <path fill="#1c2625" d="M142 523.5l-22.5-11.2 13-36L123 499" />
      <path fill="#3c3c3e" d="M686.2 220.8v.3l22 1-12.2 7" />
      <path fill="#80b40e" d="M434 226.6l3 7-.5 27.5H407" />
      <path fill="#fff" d="M534 481.2l55-186.8-18.6-19.4-50.4 23.2" />
      <path fill="#577160" d="M941.3 550.2l-141.8-2 31.4-.7 130-1" />
      <path fill="#4a444e" d="M332.3 277.7l36.6 18.6-34-4.3 19 18.8" />
      <path fill="#fff" d="M467.2 139.5l56.5 119 66.3-80.8L390.5-31" />
      <path fill="#3f0504" d="M180.7 513l3-7.2 3.2 28 3-53.3" />
      <path fill="#5b595a" d="M491.7 294l-20 43.7 8.8-38 47.7 11.3" />
      <path fill="#909090" d="M1012 739.6l-4.7-59.2-11.3 60 1.6-130" />
      <path fill="#1b1b1b" d="M143 146v20.3l8-9.7-34.4-12" />
      <path fill="#ec2f34" d="M167.7 440l9.7-3 30.5 5.6-52 10.2" />
      <path fill="#878787" d="M985 620l-30.8-7 21 120.4L978 624" />
      <path fill="#fff" d="M812 370.5l110.2-69.2-68.5 81.8-57-1M204 112l-4 41.5L238.4 75l34 31" />
      <path fill="#fffdb5" d="M731.5 686.8l23-40 15.8 102-36.3-19.5" />
      <path fill="#fff" d="M127.6 799L93.2 650.3l51.2-50.2L390 774M164.6 305l-108-144 39.6-2.2L184 285.5" />
      <path fill="#fff" d="M223 225.7l46.4-49.7-26-36.4-153.6 98M199 146.3L173.2 129l.2-18.5 31.6 23" />
      <path fill="#6e6e70" d="M649.6 143.2l-1.4-81 2.4-42L652 43" />
      <path fill="#ebe89e" d="M849 661v71.7l57.8-6-46.2-13.3" />
      <path fill="#313132" d="M388.2 142l-13.8-45L317 64l71.6 49.8" />
      <path fill="#8e8d90" d="M613.6 241l3.7-11 28.3 2.3.7 14.4" />
      <path fill="#fff" d="M-31 463.8L45.6 452l44 25.7L94 527" />
      <path fill="#ea1a20" d="M229 614l3-16.5-8-22.4 26.4-3" />
      <path fill="#fff" d="M255-31l287 15-206.8 67-67 25.8" />
      <path fill="#888887" d="M658 545.2l68 5.2-29.7 2-103.6-4" />
      <path fill="#242425" d="M406.2 42l-33 7.5 3.2 5L402.6 29" />
      <path fill="#555256" d="M949.8 438.3l5.8-9.6 36 7.5 12.4 10.3" />
      <path fill="#fff" d="M534.4 265l-14 56.2 52.5 40.5-69-103.5" />
      <path fill="#000006" d="M338.5 301.4l10.2 6 16.4 1-14-5.4" />
      <path fill="#f6d0ce" d="M261.3 582.2l-32-2.8 16 9.6-25.5 42" />
      <path fill="#fff" d="M230.4 461.6l-35.7 70 75.2-4-16-57.7" />
      <path fill="#fdf89e" d="M859.2 520l15-20-48.3-2-2 15.5" />
      <path fill="#625e3c" d="M734.8 645.3l-32.6 1.2 3.2-32.4 24.6 72" />
      <path fill="#2a4245" d="M964.6 65.4l17.5-8.6-5 9.6-11 .3" />
      <path fill="#282423" d="M157.5 596l-15.7 6.2 10.6-61.7-10.7 40" />
      <path fill="#fff" d="M465 445.4l-5.4 219.8 4.7 133.8 4.5-144.8" />
      <path fill="#0d080b" d="M204.8 90.4l26 22L194 87.6 192.7 76" />
      <path fill="#9e9ca0" d="M713 413.8l40.7-8.2-8.8-8.8 5 31" />
      <path fill="#0e0e0e" d="M392.2 87L372 57.2l18 20-16.5 23.5" />
      <path fill="#bababd" d="M627 743.5L614.7 622l25.5-11 1 28.8" />
      <path fill="#fff" d="M264.8 799L370 462.3l44.4-34-143.2 133.3" />
      <path d="M36.6 737.6h4V750l-5 2.6" />
      <path fill="#fff" d="M499 160l101.4-18 48.3-39-1.7 45.5" />
      <path fill="#ee1017" d="M205 406l-10.6 44 6.8-22-12-18.7" />
      <path fill="#303030" d="M225.2 240.5l-38.5-13 52.8 25.8 1.4 23.3" />
      <path fill="#f6ffff" d="M103.2 442.5l103.6 8.8-23 40.6-17.4-31" />
      <path fill="#fff" d="M859.3 52l-39.8 125.8 195.7 5.2-2.6-38.7" />
      <path fill="#756f76" d="M896.7 67.6L882.5 73 881 61.4l27 4.5" />
      <path fill="#322f32" d="M382.4 165.2l-35 30 28.5-3.8-14-9" />
      <path fill="#171617" d="M64 128.7l5.8 31.8-.5-36.4-1.3 10" />
      <path fill="#625d48" d="M883.3 575.8l-6.6-21.6-3-90.6-1.3 110" />
      <path fill="#fff" d="M204 307.6l-6.8 29-34.8-11.2L166 308m287-125.3l44.2 83-7.6 28.3-63.5 30.2m-246-71L125 148l-67 12.5L-27 457" />
      <path fill="#242122" d="M514 285.2l5 29-24 22.8 18.7-11.5" />
      <path fill="#6d6d70" d="M661.2 400.8l-5.2 2h54.6l-64.7-8.2" />
      <path fill="#fff" d="M361.6 226.6l7 33.7 26.2 22.6-13.3-98M481 316l7-16.7 12.8 4L511 323" />
      <path fill="#615f4b" d="M904.4 672.6l-5.8 1-7.8 3.2 147.8-1" />
      <path fill="#fff" d="M129.3 517.8l-16-6.3-2.6 83.6 14.8-20" />
      <path fill="#fcf8a1" d="M884.7 739.8l-2.4-90.6 24.3-4.5 6 49" />
      <path fill="#2f2f30" d="M381.2 123.4l-4-40.8-4 29 23.7.8" />
      <path fill="#373536" d="M13.3 138.5l35.2-8.7L67 174l-23.7-47" />
      <path fill="#142a1e" d="M205.3 143.8l.3 20 17.5-37-14 19.6" />
      <path fill="#fff" d="M374.8 107.4l-50.4 89.2-33.2-8L355.4 86" />
      <path fill="#9aa0ff" d="M931 378.3L892.7 364l7.6-8 35.2 13.8" />
      <path fill="#fff" d="M4.8 140.8L105.6 466-31 132.7l75.6-9.6" />
      <path fill="#a1f0ea" d="M727.7 169.4l-45-11.3-7 17 30.8 6" />
      <path fill="#020202" d="M712.3 528.8L709 532l-3 45.6 8.3-6" />
      <path fill="#fff" d="M428.6 480.7l54.7-129-74-92.6-46.3 46" />
      <path fill="#8a8a8c" d="M649.6 404.7l61.6-54.2-.3-5.7-26 19.4" />
      <path fill="#f7b3f8" d="M944.7 233l1.2 13.2 27 4-135-5" />
      <path fill="#686567" d="M590.3 20.2l-15.5.2 27-7.2-9 68.2" />
      <path fill="#0f1212" d="M172.3 357.8l1.8-22.5-5 37 13-4.3" />
      <path fill="#fff" d="M465 135.2l29.5-87.8L379 100l2.4 7" />
      <path fill="#333e3e" d="M23 649.7l55.8-9.8-24.4-5 3.4 6" />
      <path fill="#686670" d="M1009.4 419l-3 27 1 7.7 4-8.6" />
      <path fill="#fff" d="M980.4 507.6L987 422l4.3-4-4.4 90" />
      <path fill="#000708" d="M184.6 534.7l1.6-20.5 9.4 21-.3-4" />
      <path fill="#fff" d="M183.6 92.6l-187-84 157 102 81-141.6" />
      <path fill="#e70d14" d="M274 611.7L254 591l20 12.3-50 9" />
      <path fill="#0e1919" d="M157.6 525l-26-.8 37.8-6.5-15.5 10.7" />
      <path fill="#fff" d="M412 675.4L68.4 686.2l-1 11.7 16 82" />
      <path fill="#757578" d="M894 2.8l-18 .5L947.6 9l-98.2-.7" />
      <path fill="#404141" d="M320 488.6l-7.7-19.7-16.5 15 40.8-5" />
      <path fill="#649178" d="M809.3 87.8l38-34L809 80.2l-15.6 4.2" />
      <path fill="#0a0a0a" d="M157.4 114l44-29.5-26.3 10-5 20.7" />
      <path fill="#fff" d="M18.6 169.4l33-9.4v-26.3l-43 67" />
      <path fill="#abacb7" d="M694.8 735l-10.6-90.5L700 674l-34.3 52.6" />
      <path fill="#353535" d="M15.4 433.3l14.7-20-8 44 12-6.6" />
      <path fill="#222" d="M86.5 148l-3 10.3-2.5-12.5-3.7-25.5" />
      <path fill="#fff" d="M725.4 407l-128.2-11.7 182 36.7-113 .8" />
      <path fill="#59595a" d="M851 221.6l11-7h35.7v1.3" />
      <path fill="#262425" d="M160 136.6l-5.6-28.4-70 22.6 62.3-25.5" />
      <path fill="#9f9ea2" d="M830.2 448.2l10.5-10.5L779 412l32-6.5" />
      <path fill="#fff" d="M53 745.7l4.5 53.3L-31 614v161.5" />
      <path fill="#1c1518" d="M519.3 258.6L491 201.4l1-9.2 10 25" />
      <path d="M294.3 191L270 207l-7.5 20.7-31.3 28.4" />
      <path fill="#23210e" d="M850 515.2l4.3-12.3-5.3-43 8.8 1" />
      <path fill="#fff" d="M241 273l69.3-44.7-11.5-27L238 251m613.5 182l42.7-10.8-100.8 13 52.5-34" />
      <path fill="#565354" d="M484.2 330.2l3.7 10.4-9-42-10 3.3" />
      <path fill="#3b3b3c" d="M320 58l8.7 21-17-2.6 7.3-11.6" />
      <path fill="#171717" d="M253.7 210l-16.5 4.5 12.5-3 16 15.6" />
      <path fill="#fff" d="M199.4 343.2v31l138 122L223 327.6m796-269.2l4.3-89.4 14.5 490-19.8-183.5M945.7 429l41.2-62.6-71-18.8 70 81.4" />
      <path fill="#5b6363" d="M174.8 583.5l-.5 35.8 9.3-45.3 25 23.4" />
      <path fill="#fdffff" d="M241 553.4l-45.6 77 26.2-75.8L392 588" />
      <path fill="#999698" d="M792.5 390.4l-6.7 5v-38l-29.8 1.8" />
      <path fill="#f6f7fa" d="M850 558.7l-113.2-33.2 88-4.8L779 668.2" />
      <path fill="#adf5d1" d="M339.3 206.8l14.3 12.3-14.6 23-10.5-55" />
      <path fill="#eaebee" d="M720.5 673.6l-70-2.2 86-33L716 499" />
      <path fill="#878743" d="M814.8 644.7l-11.2 9.3 18.3 78.6 28 2.2" />
      <path fill="#181718" d="M55.8 429.3l-8 3.4 54.2 23.8-7.5-2" />
      <path fill="#fff" d="M96 611.3l21.4-29.5L-22 567.3l97.6 66.4M-31 100.7L65.6 124l56.5-5-22-149.3" />
      <path d="M196.5 354.6l3-1.5-13-2-13.6 3" />
      <path fill="#fff" d="M380.3 585.3L350 618.5l80.5 9 205.8-49.2" />
      <path fill="#e81e24" d="M257 580.5l9-4-47.4-6 27 13" />
      <path fill="#443f42" d="M540 265.2l-12.8-5 21.5 35-19-8" />
      <path fill="#fff" d="M599.3 488.5l61.7-64.7L150.6 454l498-66" />
      <path fill="#d9d9da" d="M1001.3 485l1-12.7 1 55.4-1 77" />
      <path fill="#faffff" d="M75.8 567L55 585l49-39-4.4-2" />
      <path fill="#fffdf8" d="M455 501.4l21.4-68.3-12 54-117.2 6" />
      <path fill="#fff" d="M1055 799l-550.2-71.5 470 15.7 3.6-34" />
      <path fill="#2e2e2f" d="M392.6 180l-19.8-6.2 8.5-15 3 12.6" />
      <path fill="#fff" d="M1046.8 618.8l8.2-42.6-188.5 3.8-42.6 31.8" />
      <path fill="#191c1c" d="M244 275.8l-39 19.4-5.4 16 38.2-42.3" />
      <path fill="#878788" d="M976.2 692.2L954.8 732l25.5 1.6-10.8-57" />
      <path fill="#fff" d="M94.7 470l1-14.4 18.8-31.7L86 470" />
      <path fill="#dcdbdc" d="M759.4 149l-10-33.2-47.4 9.5 36.3 26" />
      <path fill="#636365" d="M573.8 520.2l-101.2.4L527 517l-29.3-.3" />
      <path fill="#fff" d="M809 86l148.7-29-37 54.5-241.2-12.7" />
      <path fill="#211f20" d="M183.6 285l7 4.8-10.7-24.4h-11" />
      <path fill="#fff" d="M662.6 25l54.6 69.2-65 102.2-.2-150.6M500 275.4l19 16.6 15.8-10-33.3-26.2" />
      <path fill="#4b430a" d="M914.8 678l-5-15 2.7-21 8.6 19.5" />
      <path fill="#605f60" d="M1008 390.6l9 17-5 17 6.5-42.3" />
      <path fill="#fff" d="M248.8 547l20.6-25.2 6.2-17-73.6 31.8" />
      <path fill="#153528" d="M322.4 203.7L288 192.3l53.6 8 37-23.3" />
      <path fill="#2e2e2e" d="M368 324.3l-1.7-5.2-.5-7-22.3 37" />
      <path fill="#191919" d="M247 237.3l-3.3 10.5-18.8-23.2 26 19.8" />
      <path fill="#6c6326" d="M874.5 709.7l10.8-27.3-14.4-42 2 14" />
      <path fill="#898687" d="M481 545l-13.3-84.5 26.8 3-13.4 15.2" />
      <path fill="#fff" d="M215 236l18.6 33.5-10.2 18.5-38-6.2" />
      <path d="M68.3 642.2l18-14 38-50.5-3 12.5" />
      <path fill="#2d2d2c" d="M260.4 237.5L241 227.2l-5.4-10 17 12.3" />
      <path fill="#fff" d="M330.2 208.2l20.2-1.2L284 93.2l87 80" />
      <path fill="#333434" d="M156.3 328l10.8-20.3 39-29.4-40 23" />
      <path fill="#716f71" d="M662.6 433l-3 13.6 95-.4L748 434" />
      <path fill="#767778" d="M224.8 448.7L230 463l16.7-13.3 5 12.8" />
      <path fill="#f0b99a" d="M454 712l-110.5 6L472 732.8h17.6" />
      <path fill="#2c2a2f" d="M323 327.6l16.2-32.3-22 16.3 26.3 30.7" />
      <path fill="#7b7b7d" d="M736.4 81.4l-31.2-2 1.2 5.8 33.5 4" />
      <path fill="#fff" d="M542 32.8l-133.5 18L448 12l166 8.2" />
      <path fill="#8f8b8c" d="M459.3 645.5l2-19.5-91 2.2 17 3.4" />
      <path fill="#fff" d="M284.2 509l85.4 30.7L266.8 635l11-121" />
      <path fill="#414041" d="M90.8 683.3L26.6 692l40.3 1.2 11-17.8" />
      <path fill="#7c797b" d="M583.3 183l18.4-32-2.2 44 4.8 40.8" />
      <path fill="#fff" d="M171.5 485.2l-29.7-7.8L131 487l7.8 35" />
      <path fill="#131314" d="M382.4 90.6l30.5-17-4-1.8 9-10.4" />
      <path fill="#ababad" d="M907.8 338l25 6 39.7-12-39.5 2.6" />
      <path fill="#fff" d="M209.7 97.5l-27.6.3 5 46.2 26-2.4" />
      <path fill="#bfbfc1" d="M844.5 180.3l57.8 8-105.3 1-2.5-4.8" />
      <path fill="#1a2828" d="M224 547.5l-1 7.4 29.4-8 3.5 9" />
      <path fill="#fff" d="M142.4 110.7l14.2 26-11.5 10-15-30.6" />
      <path fill="#737c79" d="M1017 527l2.4-11-26 2-104 1" />
      <path fill="#0d0d0d" d="M98 136.7l-.6-1.8-4.8-13 4.4 35" />
      <path fill="#908f91" d="M954 423.3l-11.5-17.7-16.5 43.8-39.4-16.2" />
      <path fill="#fff" d="M604.7 44.7l-.5 68L630 46 522 14.3" />
      <path fill="#f06119" d="M365 748l10 1.6-15.2-28.8 8 3.7" />
      <path fill="#202020" d="M37.2 164l81.6-18.3-13-24 3.6 23.7" />
      <path fill="#666266" d="M257.6 99.2l7.3-9.8 14 24.6-17-20.8" />
      <path fill="#292d2e" d="M276.3 531.2l-2.3-6.6 11.3 2.6-47.4 26" />
      <path fill="#b8b7b8" d="M756.8 467.2l21-7.7 14 5.4-11.8 24" />
      <path fill="#6b6a6d" d="M975 359.8l41.2 34.8-.5-44.2 2.3 55.2" />
      <path fill="#2f2b08" d="M854.6 559.4L853 457l-3.5 70.4L854 581" />
      <path fill="#fff" d="M414.8 54.6l176 39.8-32-125.4-115 299.2" />
      <path fill="#1b1d1c" d="M178.3 295.3l30.4 9.4-17.3 51.2 21.4-43" />
      <path fill="#130b0f" d="M498.2 289.6l5-22.2 1 1.6-9-15.4" />
    </g>
    <g class="SVG--2">
      <path fill="#303030" d="M269.2 209l-12-20.2-5.4 10 14.7 10.5" />
      <path fill="#fff" d="M651 245.6l100.7 121-50.5 33 58.3-99.4m249.4 9.5l-9 73.2-33-114-23 22" />
      <path fill="#a3a3a6" d="M803.7 361l41.8-11.6-52.3-6.3 10.5 3" />
      <path fill="#1e1d1d" d="M196 385l2-26.2-.2-39.7-4.8 52" />
      <path fill="#e30d13" d="M161.3 446.3l9-12-3-30.4-6.5 24" />
      <path fill="#fff" d="M900.8 452l-6.3-90.6-132.5 23 150.4-7.4" />
      <path fill="#949396" d="M649 448.5l21.3-24.7 12.3-6-6-15.3" />
      <path fill="#fff" d="M205.6 592.7l25.7-40.4-16.7 127-5.7-44M366 78l-48.6 95-28-85.6L373 90M102 467l9.5 22.3 11.4-24-14-4m49-316l88 57.4-129 65.5 66-120.4" />
      <path d="M197.6 234.4l9.4 1-28.8 14.5.4 8" />
      <path fill="#f38247" d="M366.3 591l11.4-51.7-7 19.8-12.7 51" />
      <path fill="#fff" d="M599 122.6l-182.7 62-26.7-100.3 19.6-4.7" />
      <path fill="#3a3a28" d="M222.6 81.5L222 67l-1.5 25.2-13.4 9.4" />
      <path fill="#2f3c3c" d="M159 542.7l-28.4-2.2 6 5 7.5 1.7" />
      <path fill="#fff" d="M329.4 219l8.5 72-98 62.6-7-73" />
      <path fill="#fff" d="M324.2 313.7l-118.8 18.6L202 435l91 33.4" />
      <path fill="#1b1b1b" d="M307.8 75.8l36.5-1.2-39.6 8.4-7.7-13" />
      <path fill="#040705" d="M345 279.6l-6.3-39.4 1 72.4 4.2-58" />
      <path fill="#f2f2f3" d="M799.6 459.4l-16-63 20.4 28.2-54 52.6" />
      <path fill="#fdbab6" d="M928 41.3l59.5 7-86 13.4-.3-16.4" />
      <path fill="#1f1f20" d="M416 61.5L400 40l14 12.4 15-5" />
      <path fill="#7f7e81" d="M977.4 450.7l-19.6 93-.6 41L976 564" />
      <path fill="#ed2a2f" d="M94.8 576.2l15-2 1.7-20.3-6.8-23" />
      <path d="M1009 527.4l3.6 57.5v-64l-2.2-41" />
      <path fill="#fff" d="M655.3 9.7h190.5l76 59.8-117-28.7" />
      <path fill="#fdfdfe" d="M156.7 327l-5.4 17-29.5 155 49-154.8" />
      <path fill="#c8c7c8" d="M822.4 100.8l23 2.4 10.7 7-99 10" />
      <path fill="#fff" d="M360 290.3l-18-9.2v-6l32 5" />
      <path fill="#4e4f4f" d="M254.2 274l-24-6.6 8.2 6.7 7 5" />
      <path fill="#464b46" d="M848.3 248.3l10-7.3 12.6 4.4-14-20.2" />
      <path fill="#303030" d="M132 107v-1.6l10.3 9.4-8.8-22.7" />
      <path fill="#fff" d="M185.2 504l19.6-33.4 29 80-35.6-18" />
      <path fill="#8a8a8d" d="M569.8 674.7l7.5-31-11.8 2.4-.2 31" />
      <path fill="#111112" d="M36.2 167L74 153l-33.3 18.6 3.8 11.2" />
      <path fill="#2d2c2c" d="M591.3 646.3L642 645l8.6 2h-25" />
      <path fill="#7a7a7a" d="M880.3 251.5l99 111.8 61.5 60.3-194.4-203" />
      <path fill="#fff" d="M61.2 692.8l-12-7L81.8 668l-25-21.6" />
      <path fill="#514f51" d="M281.8 87.3l20.3.6-20-8-6-6" />
      <path d="M122.6 473.7l-3-14.2L135 480l-5.7-3" />
      <path fill="#fff" d="M35.8 799l-1.6-97.8 29.3 8.6-94.5 28.5" />
      <path fill="#feffff" d="M147.6 572.6l15.7 58.6 7.5-110.6-11.7 13.7" />
      <path fill="#747272" d="M588.7 375.7l2-83.3 10.4-34.6 1 92" />
      <path fill="#3a8129" d="M828.5 530.2l10.8 16-8.4 7.5-5-3.2" />
      <path fill="#fff" d="M360.5 529.8L333 483l21-145 21-6.6" />
      <path fill="#ebee9a" d="M891.8 569.6l14.5-86.6 6 40-33.5-36.4" />
      <path fill="#030202" d="M238.5 219L211 236l3.5 5.3 58.2-68.3" />
      <path fill="#015025" d="M362 250.6l-16.3-1.8-6.8 43 1-34.8" />
      <path fill="#f5f6f6" d="M82.2 135l3.7-4 6-.2-1 22.2" />
      <path fill="#251e25" d="M293.2 200.3l-23-31.6 33 31-18.2-10" />
      <path fill="#fff" d="M365 70.3l13.5-24L328.2 16l18.4 62" />
      <path fill="#9cf9c5" d="M249 136l-33.2-6 8-13 40 5" />
      <path fill="#fff" d="M291.7 402L190.3 286.6l-1.8 10.5 152 50" />
      <path fill="#fafafb" d="M963.7 211l37.6 39-89-24-66.4-2.5" />
      <path fill="#fff" d="M638 447.8L534 249l118 235 93.5-36m-623.8 47l-17.4-2.8-42 40.5 52 1.7" />
      <path fill="#665e21" d="M778 672.2l11 48-15 13.3-6.3-3.7" />
      <path fill="#fff" d="M591 77.5l27.3-21 30.8-31V87" />
      <path fill="#818081" d="M652.4 10.6L745 113.8l-43.4-53.5-47-48.6" />
      <path fill="#300b0a" d="M174.2 502.5v4.5l14.8 3-20.8 6.4" />
      <path fill="#1c1e1e" d="M206.7 371l-30.4-5-7.7-28.5 4 31.2" />
      <path fill="#fff" d="M213.6 75L220-26 199 88l66.3-11.4" />
      <path fill="#161518" d="M363.3 334.4l-15 1.3-27.7-.4 19 5" />
      <path fill="#767475" d="M587.6 108l-5.3 39 23-57.5-22.4 7" />
      <path fill="#feffff" d="M619.6 799l-330.8-21.7 242.3-71 80-1.3" />
      <path fill="#2c3938" d="M128.7 534.6l27.5-6.6v16.6l-1.4-9.4" />
      <path fill="#fff" d="M601.2 243.5l-11.5-14.7L646 262l-37 42.2" />
      <path fill="#737154" d="M628 673l118.4.6 33.6-.3-66.3 3.3" />
      <path fill="#fff" d="M260.3 176L223 140l-25 93 19.2 1.3" />
      <path fill="#48444b" d="M391.8 283.4l-28.6-4 27-2.2-.4 5.5" />
      <path fill="#2a1c1c" d="M180 512l16-36.5 35.7-20-38 15.8" />
      <path fill="#fff" d="M556 298l-33.8-.4-5.7 22.2 101 134" />
      <path fill="#fff" d="M598 357.4l49-40v51.8L574.7 354" />
      <path fill="#363335" d="M527.2 296.4l-32.5-15 28.6 18.6 21-44" />
      <path fill="#feffff" d="M906.8 616.6l-147-3.4 205.8-58-86-3.7" />
      <path fill="#f2eea1" d="M791 737.4l-3.7-91.4-59 10 75.4 22.7" />
      <path fill="#f6f6f5" d="M577.3 678.2l84.2-1.6 47.3 2.6-7.4 20.2" />
      <path fill="#fff" d="M173.8 599.4l-53 19.6-82.5 180 150.2-128.4" />
      <path fill="#61645b" d="M1006.8 490.8l48.2 1.5-400-2.7 332-.6" />
      <path fill="#ed1018" d="M199 403l-5.3 46-31.3-7 41.6 5" />
      <path fill="#fff" d="M648.7 227.5l-1-49-45-20.8 7.4 73.6" />
      <path fill="#393c3c" d="M215 617.7l-37.5-9.2 8-.6 12-2" />
      <path fill="#3e343a" d="M265 152l-12 11 7.7 1.2 24.3 24.5" />
      <path fill="#fff" d="M22.3 441.8L-30 400.6v245l51.5 66" />
      <path fill="#f8f8f7" d="M278 494.3l8-1.6 8.7 9.8-1.3-13.5" />
      <path fill="#0a0a0a" d="M51.7 674.6l-7 15 2-9.3-6.5-20.6" />
      <path fill="#424142" d="M41.6 747L30 736.8l30.5 13.8-1-13.8" />
      <path fill="#292d29" d="M468.3 205l25.5 31-10.7-14 14 40.5" />
      <path fill="#fff" d="M221 243.5l-35 35-3.3-17.8 12.5-20" />
      <path fill="#212121" d="M358.4 79.5l2.7 10.2 25 25-42-36" />
      <path fill="#c0ddd0" d="M981.4 311l-16-54-30.5 34.4 60-25" />
      <path fill="#fff" d="M657.5 645l-25.7-28.2L492.5 577l285.5 1.6" />
      <path fill="#fefdf5" d="M916.4 527l4.7 18.5 38 1.8-3-26.8" />
      <path fill="#fff" d="M136 375.7l89.8 5-24 22-220.3 8" />
      <path fill="#909091" d="M816.2 172l-23.5.4 8.4-19.2-2 34.8" />
      <path fill="#fff" d="M210 294.5L344 356l4.5 147.6L207 309.8M989.4 400l41.3 5.8-7 174-8-165.4" />
      <path fill="#c8d0d5" d="M502 731l-32 5-4.7-31 33 7" />
      <path fill="#fff" d="M82 126l-22.6 4.3-24.8-7 57-153M-31 285l201.8 13.7L141.6 152l-24.7-2.3" />
      <path fill="#111212" d="M282.5 496.8l-28.8-29.3-36-8.7 39 5.8" />
      <path fill="#ffb3b2" d="M195 582l-3.5-5 20-42-6.7 45.2" />
      <path fill="#fff" d="M39 448.7l-13.3-9.2-3.5-7 16.3-14m727-60.7l143.8-54.5L655 296l155 63m188 86l-57.8 4.2 56 20 6.2-21.4" />
      <path fill="#2d2d2c" d="M385.6 85.4l-7.4 7.4-14-25.3-.3 13" />
      <path fill="#fafafa" d="M505.6 324.4l-24-19.6 32-2-5-37.2" />
      <path fill="#a0a0a1" d="M612.5 376.4L664 373l-20.4 18-37.3-2.4" />
      <path fill="#e5e2e3" d="M117.6 144l7-2.8-14.7-19.8 7 24.3" />
      <path fill="#282728" d="M55.6 720.7l-19 4 41.3-17-10 7" />
      <path fill="#fff" d="M757.8 431.4L741 400l41.5 4.8-5.4 32.7" />
      <path fill="#7e7e81" d="M923.5 5.6l85.2 1.2 43.7 9.6-21.2-5" />
      <path fill="#fff" d="M329.5 77.7l-51 20L264 147l113.2 17.7" />
      <path fill="#394040" d="M60 635.5l-28.3 20 16.7-9 23.8-8.2" />
      <path fill="#29292a" d="M1009.2 672.2l2.2 27.7 5.5-54-6-31" />
      <path fill="#fff" d="M1041 734.6L709.7 733l-5.8-28.4-50 94.4M444 684.6l-251-26.4 221 15.2 59.3-4.6" />
      <path fill="#fbffff" d="M155 542.3l8.7-19.7 36.4 18.6-19 45" />
      <path fill="#78722e" d="M717.3 697l18.2 30-30.2 4.4 1-59" />
      <path fill="#7c7b7c" d="M972.5 362.6l-7-14-109-119.6L963 341.3" />
      <path fill="#2f2f30" d="M23.8 411.8V422l27.8-4.2-33.5-6" />
      <path fill="#fff" d="M385.7 46l25.3 7-15.5 24-18-18" />
      <path fill="#000404" d="M87.7 654l25.5-32 6-4.2 2.5 1.7" />
      <path fill="#f6f6f7" d="M886.2 427.2l56 92.8-41.4-83.8-8 63.5" />
      <path fill="#fff" d="M608.4 165.6l-224.2-7.8-.4 10.4 26.7 20.4m442.4 214l-31 24 5 82.4-10-103" />
      <path fill="#353b3a" d="M181.6 475.3h17L192 487l-6.6-15.8" />
      <path fill="#1d1e1e" d="M357.2 241.7l14 38L353 197l-4.6 1.2" />
      <path d="M100.3 127.4l-40 4.8 32.3-8.2 4.6-2.5" />
      <path fill="#f6f1f4" d="M560.4 668l-58.4 5-25-23.7 88.4-2.3" />
      <path fill="#bcb8b9" d="M520.5 617l-58 4 13-6 21.8 40.6" />
      <path fill="#fff" d="M67 799l-8.4-74.8 158.6-118.8 182 192.2" />
      <path fill="#ececea" d="M975.7 691l17.4 2.4 7-43.6-21-1" />
      <path fill="#fff" d="M464.5 514.4l-126.8 7.2 106.4 6.7 32 2.4M869 66.5l-97.8 3-26-54.5L732 94" />
      <path fill="#fffeff" d="M200 214.5l61.5-60.7-5.5-11.5-22.3 5.4" />
      <path fill="#929394" d="M791.7 383l-12.4 4.2 27.3 5 33.3-8" />
      <path fill="#93c12e" d="M390.6 218l42.4-5 6 15.6-43.4-4.5" />
      <path fill="#fff" d="M357.6 311.6l4.2 16.6-20.4 2.7-14.8-13" />
      <path fill="#61672b" d="M822.3 703l82 2-122.7 1 42 28" />
      <path fill="#fff" d="M741 109.7l11.7 11.2 6.3 13-16 12" />
      <path fill="#fefdfe" d="M55.7 719.8l10-12.6L49.5 690l-12 5" />
      <path fill="#393839" d="M54.4 146.7l-8.8-14L60 131l-9 39.7" />
      <path fill="#fff" d="M709 398.2l6.4-11.4 1-42-53.2 53.3m-61.8 248l-81.7-1 3.5-94 90.2 1.5M53.8 293l57.6 163-53.2-24-9.4-10.2" />
      <path fill="#c7c7c8" d="M874.6 206.3L885 204l22-1.2-10.5-26.2" />
      <path fill="#fff" d="M601.5 216l-22.4 8 12 107.2L510 210" />
      <path fill="#fdf3f2" d="M102.4 565.6l-5 39.4 15.2-20-40.4-48.3" />
      <path fill="#fff" d="M167.6 375l-27 97.5-6.7 2-12-17.2m254 250.3l68 91.4-87-100 149 2" />
      <path fill="#027537" d="M471.8 207.7l-1.3 12.7 6.7-14.3 22.5 6" />
      <path fill="#f3f3f3" d="M828 262.2l-23.7 129 20.2-74.6 47.7-80.4" />
      <path fill="#060506" d="M116 119.6l10.4 19.7-.5-18.7-76 12.7" />
      <path fill="#a19ca2" d="M722.7 109.3l14-45-48-.5 45.4-9.3" />
      <path fill="#0b0b0a" d="M316.7 480.8l-9.4-3.8-36.4 17.8 41-14.2" />
      <path fill="#4a4302" d="M920 735.4l-8.7-11.7 2.7-6 .3-24.8" />
      <path fill="#665f69" d="M297.4 210.2l13-13.4-3 16.2-12-3.5" />
      <path fill="#131212" d="M160.3 130.3l-15.6 22 33.3-23-17.3 9.5" />
      <path fill="#332e31" d="M274 109l17-27.2-20 20.5-14.5-15" />
      <path fill="#fff" d="M580 127l72-26.7-52.7 85.3 19-64" />
      <path fill="#6f6e70" d="M471.2 487.3l10.4 1.6 88 2-93.6 2" />
      <path fill="#312e18" d="M851.5 678l4-34.2 1.7-26-6.6 3.4" />
      <path fill="#363636" d="M866.2 235l5.8-18.5-9.2 11.2-6 16" />
      <path fill="#e41a20" d="M79.2 553.6l6.2 10-16-31.6.6 44" />
      <path fill="#fcfbfc" d="M56.7 153.8L30.4 135 28 159.7l16.2 6.8" />
      <path fill="#6d6f3a" d="M794.6 521l41.4-2-74.3-2.3-46 3.4" />
      <path fill="#94c527" d="M389.7 255.7l6.8-41.8 4.5 36-5.6 10" />
      <path fill="#141212" d="M89.2 676l2.4-26-7 29.5-28.5 10" />
      <path fill="#fff" d="M289.5 187.4l33.7 10.2L315.5 79l-49 79.8" />
      <path fill="#6e8451" d="M918 552.2L905.3 518l-63.6 1.5 54.6 2.3" />
      <path fill="#868688" d="M758 160.6l-21 3.5 24.5-32-11.2 26" />
      <path fill="#2d2b2c" d="M515 312l-16.6-15.3 20.3 9.6-9.5 24.7" />
      <path fill="#036430" d="M217.3 140l-3.5 1.4 6.3-21.2 7-14" />
      <path fill="#fff" d="M-16 170.6L2 453l91.6-216.3L30 168.3m658.5-23.5l85 70.5 30.4-40.7-73-15.8" />
      <path fill="#f7f7f9" d="M875.8 426.7l71.7 1.8-76.7-25.7 81.5.6" />
      <path fill="#2d2e38" d="M708.7 605.7l8 37.8-11.2-2.4 4.3-30" />
      <path fill="#fff" d="M380.3 548.8L150.3 681l215.3-43-40-135" />
      <path fill="#fafbfa" d="M203.3 328l-4-24.8L205 252l-7 81.3" />
      <path fill="#9b9b9c" d="M1006 596.6l1.8 16.4 4 167.6-4-60" />
      <path fill="#fff" d="M642.6 4.2l-33.4 17L574.5-31l223 35.8M425.8 164l-49.6-96.5-6.8 6.8 64.7 50.2m-267-13l2-95.5L-2-31l154 143" />
      <path fill="#adb671" d="M852 686l-33.6 6.7 9.5 40.6 1-9.7" />
      <path fill="#fff" d="M483.7 320.3l14.7 12.4 17.3-24.8-24 1" />
      <path fill="#fdffff" d="M173 575.5l-5.4-29.6-32.4 53-13.7-13" />
      <path fill="#7e7e7f" d="M725.7 9.3L623.3 6.8l110.2-1.3L867 7" />
      <path fill="#fff" d="M989.3 309.7L988 359l25.3 37.3 1-67.2M403 311l-49-114 306-9-291-7.8m49.4 257.6l94-109.6 65.2 38.5 84.8 60.3" />
      <path fill="#545555" d="M756 123.8l7-7-34.6-21.6 23.6 21" />
      <path fill="#fff" d="M229.6 141.4l-19.6 5.4 6 46.3 41.7-45" />
      <path fill="#252525" d="M126.5 490.3l-4.6 14 8-7L95 484" />
      <path fill="#0d110f" d="M222.6 554.6L206.2 584l-8.6 26 12.2-43" />
      <path fill="#fff" d="M725 87.2l-4.4-43.7 270-35-309.6 8" />
      <path fill="#1a1c1c" d="M201.3 307.4l-24-9-20.6 18.6 24-25.5" />
      <path fill="#3b3b3b" d="M326.4 489L315 520.2l-29.4-20.6L313 514" />
      <path fill="#76d3f5" d="M435.4 698.6L370 701l4.6-21.7L395 697" />
      <path fill="#fff" d="M617.2 99L418.4-31 383 43.4 314.6-3" />
      <path fill="#0d1313" d="M135.6 528l18.8 5.4-23.4-.3-.8 34" />
    </g>
  </g>
</svg>