<svg version="1.1" viewBox="0 0 1024 768" width="1024" height="768" xmlns="http://www.w3.org/2000/svg">
  <path fill="#a5ab89" d="M0 0h1024v768H0z" />
  <g fill-opacity=".5">
    <g class="SVG--0">
      <path fill="#ffed00" d="M2 594.8l1053 .6-16.3-249.3L-31 345" />
      <path fill="#004edb" d="M-31 345h1086L1036.7-8 1.2-31" />
      <path fill="#fff" d="M-9.2 799L1055 775.4v-180l-1086-.6" />
      <path fill="#ffc800" d="M729.4 593L588.6 463.4-31 337.8l.6 257.4" />
      <path fill="#ffc500" d="M655.7 595l187.8-247.5 195.8-4-5.3 251" />
      <path fill="#ffecb2" d="M803.3 450.4l6.4-88.6L160 365l420.3 84.4" />
      <path fill="#b7be8c" d="M994.2 98.6l-457.7 2-7.5 84 377.7-.2" />
      <path fill="#bdd2e4" d="M182 113L71.8 96l-3 88.6L508 182" />
      <path fill="#ffca00" d="M708.7 486.4L1055 611l-3.3-179.2-956 39.6" />
      <path fill="#ffc600" d="M-31 589.6l515.5 5.2-19-256-34.5 43.5" />
      <path fill="#ffd57f" d="M476.8 488.6l9.7 79.5 247-6 1.7-79" />
      <path fill="#f1c87a" d="M296.7 446l292.3 4-448.5-88-7.4 81.3" />
      <path fill="#2867b4" d="M884.3 57.2l-39.5 124.4-875.8 61 915.2 1" />
      <path fill="#9ebad7" d="M424.2 101.7l14.8 83h-90.8L275.4 96" />
      <path fill="#807445" d="M410 419.6L135.7 408l212-17.5 61.3 6" />
      <path fill="#fffd78" d="M957.4 186.6l-6.2-102-15 101.4 37.4-4.2" />
      <path fill="#67b4d6" d="M451.7 703.2l-9.4 29.8-231 1.2 38-29" />
      <path fill="#ffc700" d="M789.5 344.7l60 248.3 202.8 2.8L1055 347" />
      <path fill="#fc0" d="M429.7 348.7l-277.5 24.5-114.7 227L-31 344.5" />
      <path fill="#759284" d="M834.7 395.3L823 421.7l56.8 3 41.8-7" />
      <path fill="#feeedd" d="M460 596.7l162.2 1 200.2 182.5-379.2-7" />
      <path fill="#2d6ab4" d="M367.3 133L1055 10.4 212.4-31l180.2 254" />
      <path fill="#e1e7e8" d="M364.4 100.8l-59 73.6L300 137l-.6-36.4" />
      <path fill="#ffc300" d="M442 344l-141.8 16.4 364.2 10L894.6 346" />
      <path fill="#fff67e" d="M675.4 186.4l76.6-6.8-58.3-6.4-7.5-95" />
      <path fill="#0951be" d="M896.2 133l46-26.8-4 54.2-28.7 28.2" />
      <path fill="#ffca00" d="M482.4 500L-31 379v216.5l490.2-8.6" />
      <path fill="#326db4" d="M131.2 125.2l120 6.5L471-31-31 1.6" />
      <path fill="#fffdf5" d="M171.2 130l-5.4-35.7 24 1.5-13.2 105.7" />
      <path fill="#054fc0" d="M768.8 172l48.5-62.2-1.8 63.5-34 16.2" />
      <path fill="#fff47e" d="M532.4 196l40.4-78.7 3.2 64-37.6-78.2" />
      <path fill="#ffc900" d="M889 594.3l-326.8-1 52.7-170-1 125.7" />
      <path fill="#fffffc" d="M87.7 98.5L74.7 211 68.2 99l53.2 25.3" />
      <path fill="#ffff79" d="M748.7 102.8l161.6 1.4-148.6 10.4-5.6 104.8" />
      <path fill="#ffefde" d="M66 655.4L-31 566l14 233 367.3-19.2" />
      <path fill="#054fbe" d="M750 113l-61.3 19.4 23.3-24.2 26.7 93.4" />
      <path fill="#0550c1" d="M605 172.8l5.3-35.4L588 79l-6.6 94.3" />
      <path fill="#544d35" d="M699 534.5l-43.2 4-9-24.3 57.2 2.5" />
      <path fill="#0951be" d="M680.4 177.3l-21.2-12-19.4-48.8L679 121" />
      <path fill="#fff87f" d="M879.8 184.4l34.2-10-14.7 12.8L894 76" />
      <path fill="#fffb7c" d="M619.3 95l6 93.2-18.5-4 4.8-77" />
      <path fill="#fbecda" d="M1055 647.5v-52l-450.8 2.8-16.7 32.5" />
      <path fill="#fec700" d="M736 449l4 141.3 301.7 3.4 13.3-142.5" />
      <path fill="#fff" d="M424.7 107.8l-13 26.8 5.8 47.7 6.8-14.3" />
      <path fill="#2f6ab2" d="M400.5 259.8l-429.2-76.5L425 193.6 387 92.4" />
      <path fill="#ffff79" d="M827 190.6l-6-7-5-90.8 15.2 22" />
      <path fill="#b3ab9d" d="M545.5 659.3L129.2 665l-76-17.5L231 639" />
      <path fill="#6e6a4d" d="M515 516l27-5 34.2 13-64 17.4" />
      <path fill="#356caf" d="M107.8 162.7l-26.5 90.6L147.8 27l-9 158.5" />
      <path fill="#f7e9d7" d="M940.6 614l-784.8-19.6-183.5 4 138.2 46.8" />
      <path fill="#fff097" d="M134.3 365l13.7 34 230-35-139.2-1.2" />
      <path fill="#fffff8" d="M379.3 177.7l4.2-93L391 165l12 24.5" />
      <path fill="#1c5aa6" d="M316 144l73.7 96.5-119-127 16.5 63.6" />
      <path fill="#fff5a8" d="M477 511l114-.2-9.5-26-78.7.7" />
      <path fill="#ffe686" d="M649.7 111.6l369.2-6.4-380-4.2-155 6.4" />
      <path fill="#2c69b1" d="M-31 274.8l1086-4.6-12.5 74.3L571 346" />
      <path fill="#2b68b4" d="M1025.3 101.8l29.7-91-533 90.5 153.4-2" />
      <path fill="#ffe497" d="M464.3 456l5.6-101 259 89.2-268 6.5" />
      <path fill="#ffca00" d="M435 486.3l8.8-136.7 24.5 23-1.2 150.2" />
      <path fill="#376daf" d="M173 83.6l-18.4-1 1 76.5 17.7 43" />
      <path fill="#ffe699" d="M635.3 362.8l163.8 5.6 2 87-336-89.7" />
      <path fill="#fffff9" d="M188.5 128l82 62-28.3-7.7-32.8-52" />
      <path fill="#fffffc" d="M125.2 184.8l-27.5-48.6-8 7.7 16 34" />
      <path fill="#f8ebdb" d="M331.5 701.5l-9.4 82 96-118-311 3" />
      <path fill="#92c5d6" d="M740.3 738.4l3.4-45.6 20.6 10.8 229.3 3" />
      <path fill="#e1e7e8" d="M137 118l58.4-19.3-60.2 1.7 2.6 4.5" />
      <path fill="#2e68ad" d="M709.2 188.7l-242.4-9.3 6-98.6L423.5 221" />
      <path fill="#1152a0" d="M337.6 118l-1.3-30-20.6 24.8-4.8 31.4" />
      <path fill="#f7ebdc" d="M1055 678.5L989 616l-71.6 183H1055" />
      <path fill="#2e69b1" d="M-31 255.3V346l239.7-2 203.7-10" />
      <path fill="#d8b904" d="M52.4 246.4L42 249.8l-3.4 24.7 21-14.2" />
      <path fill="#198ec6" d="M354.5 739l-2.3-54.4 17 51.7-8-1.7" />
      <path fill="#fff" d="M202.4 186.4l12.6-33.7 26.6 14-1.2-31.6" />
      <path fill="#fbe585" d="M511 180.5l141.4-6.2 150.2 6L633 184" />
      <path fill="#fffffe" d="M156.7 144.8l-4.7 29-4.6 18.8L140 126" />
      <path fill="#b0a79a" d="M727.5 674.3l275.5-30-293.3-1-44.4 2" />
      <path fill="#ffca00" d="M716 483.6l-256.6-1.3 173.3-33 178 3.2" />
      <path fill="#787349" d="M161.3 388l15.2 27.6 64.3-.4-7-12" />
      <path fill="#be9704" d="M876 505l-75.8 1.3 24 69.6 13.2-6" />
      <path fill="#fffff7" d="M283.3 164l-37.8-44.8 36.8 26.4-33.6 45" />
      <path fill="#c3a30a" d="M192.2 519.8l30.4 20.4 209.3 3-12-23.5" />
      <path fill="#2e6ab4" d="M53.5 60.5l18.3 89.2L13.2 335-31 5.3" />
      <path fill="#3ba1d5" d="M234.2 683l-2.7 40.3 12.2-23.4 37 4" />
      <path fill="#1357b8" d="M743.2 162.4l-48 15-3-25.3 1.2-3" />
      <path fill="#2c69b2" d="M1055 269l-31.4-150.5-70.4-6.7L956 250" />
      <path fill="#ffe981" d="M979 102.3l-201.5 2 195 9.3 10 7.8" />
      <path fill="#fff499" d="M719.5 508.8l20.5-23-116.7.5-5 30.3" />
      <path fill="#fffffa" d="M294 184.7L314.4 81l-3.8 83.8 11.2 18.6" />
      <path fill="#f3e9d9" d="M856 694.5l108-27-211-5.7L936.6 799" />
      <path fill="#02489d" d="M269.8 170.6l-20.2 5.4-8.2-22 21.7-10.2" />
      <path fill="#ffe585" d="M531.5 98.2l16.7 107-.8-104.8 67.4 35" />
      <path fill="#c5c099" d="M546.4 423l216.4-22-263.5-5.7-13.5 21.5" />
      <path fill="#3169ab" d="M185.3 178.7l39.7-32 20.4 57.5-54-73" />
      <path fill="#205fb6" d="M698.4 213.5L623 146.3l-1.8 30.2 42.5-1.6" />
      <path fill="#efc500" d="M531 247.2l-13.4 4 4 1.8 4 20.3" />
      <path fill="#3267ad" d="M814.2 116.7l-71.4-8.4 71.4 34.3L778.7 54" />
      <path fill="#f9f8f1" d="M372 102.5l-42.5 17 26.3 75.4-36.4-59" />
      <path fill="#aca32c" d="M132.7 272l-18.5.2 9.8-43-1.4.2" />
      <path fill="#96c5d2" d="M903 740.5l-51.4-53.7L965 705l6.4 17" />
      <path fill="#d7b902" d="M436 248l-2.3 19.3 2 6 14.8-27" />
      <path fill="#ffcd00" d="M900.7 386l-295.5-41.2 449.8 4.4-57.3 248.6" />
      <path fill="#ccb311" d="M276.8 287.4l-2.7-40.2 8 2 5-3.3" />
      <path fill="#fffa81" d="M761.2 102l-6.6-4.4-5 86.4 12.5-5.3" />
      <path fill="#6e9091" d="M912 424.2l-13.2-1 1-28.6 10-3.2" />
      <path fill="#fc0" d="M119.4 351.5L-31 342.8v249.8l235 1.5" />
      <path fill="#dae8ee" d="M480.8 132.2l15.7 8.3-25.4 11.8 3-21.3" />
      <path fill="#3c71b3" d="M556.3 81l54 69.2L562-31-3 104.6" />
      <path fill="#fffffc" d="M70 106.2l41.5-4L99 154.4l25.7-35.5" />
      <path fill="#faf9f0" d="M106.7 173.3l98.8 12.3 3-14-81.8 15.6" />
      <path fill="#ffe983" d="M822.3 168.2l-8.8-5 37.2 20-46 1.5" />
      <path fill="#0186cc" d="M415.5 685.8l2.7-2.5 8 26.7-9.8 27" />
      <path fill="#225fb5" d="M828.5 144l2.4 35.4 53-19.4-2 13" />
      <path fill="#fffff6" d="M450.8 137.2l-20.8-6-12.4-19.8-10 24.4" />
      <path fill="#f9ebda" d="M328 768.8l97.4 30.2 36-63.8L234 735" />
      <path fill="#1f5cb0" d="M826.6 131.3l4.6-13.8 12-9 39.7 20.2" />
      <path fill="#2c65b3" d="M558.7 146.8L548 135.2l-2-23.6 29 12.4" />
      <path fill="#336db3" d="M218.8 208.8l19.6-89-56.8 137.6L-31 211.8" />
      <path fill="#2c66af" d="M546.3 129.3l20-1L545 160l42.3 47" />
      <path fill="#215da4" d="M81.6 161l39.4 49.6-17.8-43.8L92.4 154" />
      <path fill="#f6e083" d="M562.7 101.8l28.8 88-44-46.4 41.2-9" />
      <path fill="#ffe87b" d="M127.8 362l169.4 37.5 10.3 36.8 3.7-69.5" />
      <path fill="#ffdb50" d="M142.8 451.3l-7.3-87.5L164 415l291 8.8" />
      <path fill="#ffe485" d="M821.3 123.3l-8.6 61.5 43-62.3-1 34.3" />
      <path fill="#ffee82" d="M945.2 183.8l22.3 1.4-13-14-16.5-90" />
      <path fill="#255fa5" d="M88.8 106.2l20.2 25.3-21.2 11-8.6-19.7" />
      <path fill="#2c67b4" d="M596.2 182.3l.3 32 10-100-38.8 37.5" />
      <path fill="#f3e8d7" d="M1055 633.4L726.2 799 984 776.5 863.4 710" />
      <path fill="#2966b6" d="M642.8 173.3L675 56.7l-13 1 15 82.8" />
      <path fill="#fffff6" d="M219.8 151.6L211 125l-2 61 10.6-17" />
      <path fill="#fff" d="M489.6 172.7l-16 10.8-.5-10 8-9" />
      <path fill="#cad6de" d="M399 101.3l-26.7-5 19.5 39-24.5 2.4" />
      <path fill="#7699b3" d="M696.3 274l358.7-12.2-201.7-10.2-343 3" />
      <path fill="#ffc900" d="M735.4 593.3L788 576l-505.3-12 183 31" />
      <path fill="#f7e381" d="M762 141.5l25.3 16 1.3-35.6-6.2 7" />
      <path fill="#ffc600" d="M583 345l-512.6 2.4L514 364l238.5-9.6" />
      <path fill="#376eaf" d="M279.6 170l-66.8 74.8 88-73.7.6-66" />
      <path fill="#356cb0" d="M934.3 254.8L660 186.6l276.2-3 89.3 10.5" />
      <path fill="#fffff6" d="M106.8 176l-46.5 7.7L85.7 136l-5.3 49" />
      <path fill="#3b70b2" d="M225 148L73.4-23.5l276 2.3-127 177.4" />
      <path fill="#ffff79" d="M607 164.7l14.3-25 25.3 9.3-.7-22" />
      <path fill="#ffe477" d="M442.2 418l1-57-319 33.6 275-1.4" />
      <path fill="#fff97b" d="M710.8 149.4l-21.8-5.7 23.5-12 8 15.2" />
      <path fill="#f4e9d8" d="M186.8 670l-83 7L245 751.4l-55-120.8" />
      <path fill="#399dc8" d="M861 723.8l13.7-31.5 4.7-2.8-15.4 51.3" />
      <path fill="#fffff4" d="M315.8 142.2l45.6 34.3 79.6 4.3-86.4 3.4" />
      <path fill="#2f6ab3" d="M493.7 206.5L483.7 97l32-23.7 21.6 95" />
      <path fill="#d0b200" d="M843.3 270l10.4-25 1 8.6-14-9.3" />
      <path fill="#0f54b9" d="M651.3 126l-27.5 11-1.6-19 13.7-8" />
      <path fill="#6a8e94" d="M861.7 400.2l8.3 30 13-18.2-8-17.2" />
      <path fill="#2d63a6" d="M375.4 89.6L360 100.3l39 23.7-56.3 11.5" />
      <path fill="#fff97f" d="M682 180l7.5-7 1.5-59-12.5-16" />
      <path fill="#386eb3" d="M939.8-31l-41.4 226.6-1-79L1023-13.8" />
      <path fill="#396fb2" d="M753 124l-29.5 137.2 8.3-122.4-1.6-49" />
      <path fill="#2e67ae" d="M424.2 165.6l2.6-28.7 9.6 4 82.3 80" />
      <path fill="#fff" d="M182 110l-7.8-7.5-.8 82.3L185 161" />
      <path fill="#3066a8" d="M383 177.8l-25.5-4.3-28.3-34 31.5-29" />
      <path fill="#9f9b8e" d="M333 643.2l26.4 10.5 105.4-9-45-1.3" />
      <path fill="#ffea83" d="M884.5 83l2.4 98 11 9.5-2-28.5" />
      <path fill="#fc0" d="M588 478l19 123.2 9.5-156.6-519.8 19.6" />
      <path fill="#366db1" d="M471.4 257.8L308 155.6l47.3 69.5 51-49" />
      <path fill="#62b0ce" d="M788 708.2l30.8-5-10 61.4-4.6-62.4" />
      <path fill="#c8ad0a" d="M708.2 271.4l5.8 1.5-.4-31 7 29" />
      <path fill="#bab5a6" d="M919 626.4l50 29.3-3 8.6-148.8 1.2" />
      <path fill="#46a2ca" d="M244.7 740.3l55.4-36.6-3 35.3-33-23.8" />
      <path fill="#ffeb89" d="M485.3 449l230.3-31.7 76 33-124.4-1.6" />
      <path fill="#ffea8b" d="M805.3 369.5v72.2l-56.4-77 53-2.2" />
      <path fill="#245fa7" d="M106 149.5l20.6-26 13.7 36.4-18.3 16" />
      <path fill="#2c65ac" d="M153 141l6.2-53.2 14.4 68.6-15.4 24.4" />
      <path fill="#f5f6f1" d="M70.7 154.7l4-40.6-26.3-14 40.7 3" />
      <path fill="#f4e9d6" d="M718.4 699l63.6-14-21 88.7L780.7 619" />
      <path fill="#fffdf5" d="M254 128l25.2 26.2-7.7 37.8-4-63" />
      <path fill="#fdca00" d="M708.7 588.6l182.7-131-40.7-64.3-2.7 24.5" />
      <path fill="#ffc800" d="M212 344.5l-243 17.7 395 .3 469.3-2" />
      <path fill="#eee4d2" d="M419.7 606l-8.5 160.4-10.8-145 271.5 142" />
      <path fill="#2693cb" d="M235.7 696l3.8-10.2-.7 48-9.3 3" />
      <path fill="#2260b4" d="M764 109.6l52.6 18.5-7-10-45.8 24" />
      <path fill="#ffdb63" d="M693.4 484l-11 65-2.8-59.3-48.2 85.6" />
      <path fill="#e3e8eb" d="M157.8 132l-17 41.5L152 150l-30-24" />
      <path fill="#366db2" d="M761 155.5l57.5 4L776 105l93.3 226" />
      <path fill="#7c7b71" d="M440.6 674.7l11-3.5 8.7-37.6 1.2 14.3" />
      <path fill="#7a9cbc" d="M425.5 264.8L292 275.4l3.5-19.2 121.8-2.3" />
      <path fill="#356cb6" d="M868.2 80l-.8 66.5-68 93 88-77.8" />
      <path fill="#fffff5" d="M240 130.8L230 155l9.3-11.7 35.6-13.7" />
      <path fill="#c8c298" d="M757 395.5l18 7 2 17.3-164.8-1.5" />
      <path fill="#ffd146" d="M618.5 569.4l-4.8-34.5 102.4 5 33 29" />
      <path fill="#fdfcf4" d="M173.7 147l11-44.2-23.4-5.6 34.4 39" />
      <path fill="#3a6fb1" d="M185.8 120.6l39 14.2 78.4-17.6-122.4-85" />
      <path fill="#989187" d="M64.6 664.3v-28.6l9.5-2 14 11" />
      <path fill="#fff67f" d="M572.3 106.3L586 119l-12 25.7-7.2-40" />
      <path fill="#45a4cd" d="M737.5 704.8l32.4-11-33-4.8 32 35.6" />
      <path fill="#ffe273" d="M580 568.6l8.2-1 2-81-44.7 5.6" />
      <path fill="#776f42" d="M281.6 394l-31 1.3 51.2 7.5-40 15.8" />
      <path fill="#7b6e44" d="M396.2 389.7l.4 23-97.8-22.5 122 24" />
      <path fill="#fffff9" d="M422.2 169.3l14.3 18.6-23.3-9 7.3-78" />
      <path fill="#f3e9d6" d="M910 663.7l145 39.5-130-.3 3.8-103" />
      <path fill="#779ab9" d="M90.4 265L230 251l32.2-1-4.3 23" />
      <path fill="#3b70ad" d="M135.6 299.7l475 44-118.6 2.7-83-1.4" />
      <path fill="#ffca00" d="M472 455l-503-13 466 81.3 16-184" />
      <path fill="#fffff7" d="M116.5 136.4l-11.3-40-.2 53.7-43.4-2" />
      <path fill="#376cac" d="M117.5 113.3l-36-23L174 125l-54 7.6" />
      <path fill="#2b66b3" d="M650.5 200.2L603.3 245l75.8-76-15-.6" />
      <path fill="#3268aa" d="M196.6 186l33.7-13 49.6 41.5L35 185" />
      <path fill="#f5e183" d="M522.6 184.7l44 .5-26.7-14 12-28.6" />
      <path fill="#ede4d1" d="M275.5 727l-10.7 23.5-8.6-54.7-19.8 32.8" />
      <path fill="#fffef6" d="M302 164l-3-64.2 8.3 3.5-1.5 87.2" />
      <path fill="#379bc9" d="M371.8 731.6l11.6-9 20.3-19.2 4.4 29.4" />
      <path fill="#53a8c8" d="M903.3 729.3l-10.6-28.8-5 32.4 26.7-26" />
      <path fill="#fffff5" d="M361 107.2l-24-7.4 1 16.3-21.8 34" />
      <path fill="#f0f3f2" d="M447.7 132.7l-25 6-26.2-1.8 25.5-11" />
      <path fill="#396ead" d="M315.8 141l62.2 81.7-4.7 21.5-60-78" />
      <path fill="#57543e" d="M543 544.2l14-30.4-34.4 3.8L548 514" />
      <path fill="#3167ab" d="M696 109.8l43.4 12-43 13-2.2-90.6" />
      <path fill="#f5e384" d="M541 115l28-13.5h-34.6l-20.7-3" />
      <path fill="#84a3bc" d="M59.3 250.3l38-1.8 11.8 21.8-56-2.6" />
      <path fill="#084791" d="M242 145l11-7.8 10 2.6-12.3 14" />
      <path fill="#ffca00" d="M755 487.4L903.5 452l-222-4.7-403 11.6" />
      <path fill="#4ba6ca" d="M828.8 709l7-24.5-1 24-12.4 37" />
      <path fill="#ffebcd" d="M397.2 711.2L359.4 729l4.4-45.2-3 21" />
      <path fill="#ffca00" d="M133.4 541.4l6.2-184L37 344.2-31 603" />
      <path fill="#50a6cb" d="M284.4 701.3l53 34.2-25.7-27.4-36.4 3" />
      <path fill="#376caf" d="M391.4 186.7L414 93.5l-25-54.2 3.2 104.2" />
      <path fill="#ffcb00" d="M803.6 391.6l153 5.4 81.8-52-222.5 5" />
      <path fill="#8e8b81" d="M678.8 649l5.6-20 .8 41-9-16.6" />
      <path fill="#efe5d2" d="M292.2 658.7l-25.8 86.8 6.4-60.8-248.5 50" />
      <path fill="#fce182" d="M611.2 133.4l27.5 16 7.8 10.5.7-21" />
      <path fill="#ffe16d" d="M258.5 381.8l150 19.2-172.2-32.2 15.3 60.6" />
      <path fill="#c1ae1a" d="M538 247l-13.7 23.6-2.6-17.4 12-7" />
      <path fill="#44a0c9" d="M347.7 682.7l3 18L363 686l-8.5 47.2" />
      <path fill="#f2f2ee" d="M287.3 101l34.3 4-.2 3-30.7 4.3" />
      <path fill="#3c70b2" d="M282 185l-74-.2-239 1 231.4 71" />
      <path fill="#44a1c8" d="M967 738.8l-11.7-6.8 14.5-15-7.2-15" />
      <path fill="#fffcf6" d="M386 125.6l-2 51.3 7.2-31-26.5-12" />
      <path fill="#ffe279" d="M516.7 529.5l-35.5 16 2.5-61.5 39 1" />
      <path fill="#ffe270" d="M172.7 416l-10-46-25.2-7.4L141 445" />
      <path fill="#2962a8" d="M391 165.6l20.8-26-.6 34.8 33 44.4" />
      <path fill="#366eb4" d="M869.4 101l185.6-1.2-45.4 29-88-72.2" />
      <path fill="#3f72b3" d="M260.8-31l548.6 131.7-490.7 1.3L2 91.7" />
      <path fill="#f1e5cf" d="M351.5 720.4l-11 48.6-22.3-93.6 34.4-19" />
      <path fill="#ffe884" d="M471.6 417.6L467 433l7 16.3 322-.5" />
      <path fill="#ceb41a" d="M118.4 247.7l14.3-2.5-12.3 22.2-3.2-22.7" />
      <path fill="#ffe884" d="M698.6 178.5l31.7-.5-1-19-15 25.2" />
      <path fill="#3a70b2" d="M609.6 167.6l-1-54L373-31l209.3 144.4" />
      <path fill="#3b71b3" d="M230.7 52l300.5 39.2-105.5 88.5 19-62.4" />
      <path fill="#6e8e8a" d="M846 387.4L827 402l3.4 20.4 5-20.2" />
      <path fill="#2d66ab" d="M185 142.3l9.2-5.5 10.4 33.6-18.2 11.2" />
      <path fill="#fc0" d="M732.4 588.3l79.2-1.7L753.4 462l-10.6 19.6" />
      <path fill="#e9e1d0" d="M720 601.4L476.8 799 437 694l59-99.6" />
      <path fill="#ffd551" d="M184.3 404.6l-3.5 28.7 11 14.7.7-54" />
      <path fill="#ffd43f" d="M149 445.6l302.4 2.3-42-30-49.6-4" />
      <path fill="#2e67b1" d="M678.7 157.2L621 176.4l8.2-32.4 14.5 11.6" />
      <path fill="#fefcf4" d="M173.3 173l32 4.8-2.2 9.3-27-10" />
      <path fill="#fffff7" d="M232 140l-2.4 27.6 11 13.8-.6-44.4" />
      <path fill="#feca00" d="M805.2 439l4.4-93.5 16.3 61.7 46 137.6" />
      <path fill="#ffe187" d="M621.2 124l1 44-12 25.4-.7-89.2" />
      <path fill="#f3e8d3" d="M276.4 737.5l25.5-3.8L288 625l26 135" />
      <path fill="#ffea84" d="M753 115.6l10 69 16.7-11.7-29.6 13" />
    </g>
    <g class="SVG--1">
      <path fill="#756b41" d="M681.8 502l4.2 4.6 2 26.3 20.2 7" />
      <path fill="#2193cc" d="M273 714.7L250.3 697l-16.3-2.5 23.8-3" />
      <path fill="#e2e9ec" d="M478.6 123.8l9.3 27.5-15-6.3 5-20.5" />
      <path fill="#fff480" d="M609.4 108.7l96.7-6.4 30 10.2-131-11" />
      <path fill="#2864b6" d="M717 137.3l22-30.8-6.6-4.4-13.2 69" />
      <path fill="#3e72b2" d="M799 40.5L820 177l-57.7-32L804 262.7" />
      <path fill="#9d9b8f" d="M966 659.6l-17.2-17L960 671l-20 11" />
      <path fill="#3b71b3" d="M200.7 343.7L11.2 271.4l334.3.2L496 345" />
      <path fill="#fdfbf4" d="M96.2 141.5l-12.2-4 29.3 45L125 179" />
      <path fill="#8e8041" d="M324.4 412.2l14-18.2 79.6 21.8-106 1" />
      <path fill="#ffcb00" d="M479 443l-59.6 152.3-247.5-2 311-37" />
      <path fill="#ffc900" d="M619.3 579.7l-236.5-10.2 202 23 15-145.5" />
      <path fill="#ffcb00" d="M1052.8 583.5L861.8 365l23.4 52.5 158.5-57.2" />
      <path fill="#59abce" d="M816 713.2l-20 26-19.4-29.2 34.8 35" />
      <path fill="#3a6fb1" d="M265.4 185.4l275.5.4 111-1-48 69.6" />
      <path fill="#fffdf5" d="M143.3 177.2l-22 4 40 2-15.6-53" />
      <path fill="#47a2ca" d="M247.8 742.4l17.3-44.7 2 34.4-35-7" />
      <path fill="#6e653d" d="M257.2 392.3l-1.4 41.5 7.2-44.4 15.6 12.5" />
      <path fill="#ffef7f" d="M576 181l-28.8-44.3 43 45.7-3.4 1" />
      <path fill="#fce582" d="M978.3 180l-47.2 5 1-13.4 1 3.2" />
      <path fill="#fad65a" d="M347.5 417l20-15.3-8 46.6L345 363" />
      <path fill="#7e7e76" d="M398 636.8l3 31 4.2-36.2-7 .2" />
      <path fill="#73b4c8" d="M740 735.5l39-2.7 5.2-31.5-8 13" />
      <path fill="#fdfcf2" d="M487 181l-12.3 1.8 8.5-12.6 8.4 2" />
      <path fill="#3d72b2" d="M535.6 257.6l30-88 19 20.6 335-4" />
      <path fill="#efe5d3" d="M827.5 731l-63.2 68 102-24.2-10.3-132" />
      <path fill="#339acc" d="M883.4 698H882l11.8-4-42.7-1.7" />
      <path fill="#3f73b2" d="M288.3 182.2l219 65-422 1L293 173" />
      <path fill="#366daf" d="M828.5 155.6l27.5 46-27.2-84 18.6-8.3" />
      <path fill="#e7e3d2" d="M784 680l-6.3 95 64-146-51 154.8" />
      <path fill="#3067a9" d="M318.7 132.7l-8.8-18 8-5 27 .3" />
      <path fill="#ffea83" d="M709 139l.6 19 10.3-6-5-24" />
      <path fill="#ffe77f" d="M708.8 531.5l20 6.4 8.4-52-54.4-2" />
      <path fill="#fff583" d="M952.3 143.7v-42.4l-9.2 30-2 51.2" />
      <path fill="#ffdf61" d="M535 502.8l-14 61 20.3-73.2 3.5 67" />
      <path fill="#ffe688" d="M827.3 108.8l5.6 30 22 4.2-42 5.3" />
      <path fill="#53a9cd" d="M439 733.4l-76.3 1.3 67-6 19-14.3" />
      <path fill="#ffec84" d="M949.4 102.7l-37 12 23-17L952 140" />
      <path fill="#ffe883" d="M860.5 119L850 96.5l11.4 6.8 7 15" />
      <path fill="#fff17e" d="M782.6 135.4l4 20-22.6-19-14 20.6" />
      <path fill="#3a6faf" d="M333.2 136.8l24 28.3 22.2-33-.4 37" />
      <path fill="#f0e6d4" d="M935.5 692l-243-7.6 260.5-22L921 799" />
      <path fill="#87827a" d="M419 619.8l.4 50.6 6.6-38-2 10.7" />
      <path fill="#b1a635" d="M60 276.7L43 238l2.8 34.8-7-21.7" />
      <path fill="#3a70b1" d="M535.6 178.5l-107-22.2 69.4-9.5 36.2-17" />
      <path fill="#396eb0" d="M677.6 116.5l-26-33.3 25.4 82 3-57.6" />
      <path fill="#ffeb83" d="M867.8 177l32.2 5.8-12.6-88.6.6 91.8" />
      <path fill="#a9a79a" d="M701.6 663.8l66.7-18.3-11.5 19-75.5-33.5" />
      <path fill="#3c71b2" d="M565.5 146.5l13.6 3 14-80L610 179" />
      <path fill="#3c71b3" d="M965 110.8h-14.7l59.2 203 45.5-136.2" />
      <path fill="#ffea6a" d="M340.4 414.8l-3 16.6-.8-30 4.6-37.3" />
      <path fill="#7a9dbb" d="M447 256.4l66-4-52 26 6.2-10.6" />
      <path fill="#fffffa" d="M142.5 102l6.4-6.7 4 12-13 4.7" />
      <path fill="#1b57a1" d="M100.5 114.3l-16-3.2-1.8 26 20.3-8" />
      <path fill="#306ab1" d="M751 167.4l-25.2 18 20.4-37.4.5-23.5" />
      <path fill="#aca437" d="M288.3 269l-20 3 21.3-14.8-24.5 1" />
      <path fill="#7295bb" d="M949.5 282l63-30.6-82.8 6 9.4 9" />
      <path fill="#ffea83" d="M667.5 365.4v79.8L684 401l-201.8-38.3" />
      <path fill="#265d9e" d="M649.6 110.8l.7 47.5 5.2-37.8-35.4-8.7" />
      <path fill="#789387" d="M847.2 409l-14 15 24-10.3L860 430" />
      <path fill="#ffcd00" d="M913.8 587l141.2 2.2L949 421l-133 3.3" />
      <path fill="#4e4d36" d="M538 526.3l.3 7-3.3 6.7-1-31.3" />
      <path fill="#abab9c" d="M101.3 666.8l85.5-26.5-48.4 8.3-44.4-9" />
      <path fill="#3e72b3" d="M-11.2 183L-31 7 71 117l.7 57.8" />
      <path fill="#f4de87" d="M800.4 104l-23 32 24-23.4-114-9.7" />
      <path fill="#fcfcf6" d="M79.3 181.6l18 .8L81 171l-27.7 11.3" />
      <path fill="#396ca8" d="M313.7 138.2l-.3 36.5 53 15.6-19-8" />
      <path fill="#ffcb00" d="M227.6 447L-31 483v96.3l237.5 15.4" />
      <path fill="#74b5c9" d="M964 702.7l-36.8 6.7-5 28.7 1.7-3" />
      <path fill="#366db4" d="M913 200.2l29-34.6-34.5-56.3L898 154" />
      <path fill="#3366a4" d="M791 113.2l10.2 20-22-9.4-12.6-15.2" />
      <path fill="#c1a414" d="M439 550l-4.4-14.7-36-20.3 40.5 5.2" />
      <path fill="#9baebf" d="M760 274l18.8 6.5 8-26.2.4 14.8" />
      <path fill="#fffffd" d="M389.6 98.3l-9 5-4 10.6 10.4-3" />
      <path fill="#3e72b2" d="M182.2-31l58 236.5-22.5-95-33.3 22.2" />
      <path fill="#f1e6d1" d="M938 688.6L917.2 799l20.2-67.2 16.8-81.6" />
      <path fill="#605938" d="M702 523l-16 18 7.8-26.5 3-.2" />
      <path fill="#3a70b1" d="M155.5 145.6l-3.8 44 17.5-68 1.4 74" />
      <path fill="#356caf" d="M259 221.7l40.3-68.4-45-34.7 46.3-10" />
      <path fill="#ffcb00" d="M857.6 375l7 48.2L812 348H701" />
      <path fill="#346cb6" d="M880 145l-8.5 46-10.8-4-8.5-69.7" />
      <path fill="#f4df85" d="M872 185l4-1.4h34.4L890 166" />
      <path fill="#ebe3d1" d="M669.3 677.4l88.2 7-138 114.6 96-169.6" />
      <path fill="#ffea86" d="M634.8 377.6l121.4 23.7 45.8-35.6-130-2" />
      <path fill="#ffe578" d="M356 356l6 11 35.2-3.6-12 49.7" />
      <path fill="#3d71b0" d="M1055 187.3l-385-3.5 42.8 105 1-42" />
      <path fill="#fff87d" d="M851 126.3l-4.4 10.5 2.5 20.8 5-5.4" />
      <path fill="#4878b3" d="M142 126.3l1.6 48.5-15.8-1.5 1.6 21.3" />
      <path fill="#f2e8d6" d="M406.7 671.5l42.7 45L465 686l-61-33" />
      <path fill="#efde85" d="M644.4 124.5l15-6.6-35.4-18 38.3 8" />
      <path fill="#ffeb84" d="M642.3 184l24.3-15-17.7 6.6h-83" />
      <path fill="#2961a4" d="M84 148v19l29.8 26L94 155" />
      <path fill="#2d98c9" d="M798.2 699.3l.3.8-8.5 32-1.8-12" />
      <path fill="#ece3d1" d="M222.3 644.4l173-7 68.7-42-128.2 1.4" />
      <path fill="#ffed83" d="M681.3 134.5l.2 43.2 10.7-29 10.8-9.2" />
      <path fill="#ede4d2" d="M1040 732.2l-143 59.2 8-103.4-15 48" />
      <path fill="#4c4b38" d="M518.6 544.6l2-31 11.5.3-15 15" />
      <path fill="#fbda67" d="M371.6 379L320 408.7l-161.3-50 151.6 46" />
      <path fill="#69603a" d="M667.8 527l2.3-14.7 18 29.3-42-30.6" />
      <path fill="#b0aea0" d="M336 661.5l-48.5 3.2-99-20 144.5-.4" />
      <path fill="#2f66ab" d="M210.5 158.7l-6.7-20-18.2 12.6 1.5 23" />
      <path fill="#eee6d1" d="M799.7 646l-26.2 101 33.2-75.6-31-23.3" />
      <path fill="#fdd857" d="M689 532.3l-20-25.5-38.4 95 49-105" />
      <path fill="#dbb005" d="M860.7 479.4L792.5 500l-8.3 57.3 61 23.6" />
      <path fill="#ffe584" d="M260.6 364L190 387l-10.7 16.4-20.7-40.7" />
      <path fill="#fff083" d="M885.7 168.4l.6-51.4 10-9.2.5 41.5" />
      <path fill="#f3e8d0" d="M774 694.8L750 799l25.4-84.2-30.5-13" />
      <path fill="#70b3c9" d="M742.3 735.7L732 734l7.2-9.5 19 9" />
      <path fill="#60889a" d="M898.2 394.8l13.2 5-10 18-4.2 3.6" />
      <path fill="#faf8f2" d="M413 176.7l2-33.8 3.2-33 8.4 77" />
      <path fill="#fefbf3" d="M386.6 171.5l12.5 12.8-33-4 25-12" />
      <path fill="#f9cd0a" d="M907 401.5L895 412l-27.8-7.2 20.8-8" />
      <path fill="#fffff9" d="M301.8 183.8l11.3-16.3-1-65-7 8.8" />
      <path fill="#ffc900" d="M365 363.2l-199.8-16.6L26 349l104 14" />
      <path fill="#7598bb" d="M600 273.7l-25.5-1.5-47-6L624 252" />
      <path fill="#3b70b2" d="M443.7 130.6l-21.6 42 55 12.2-91-210.6" />
      <path fill="#22538b" d="M752.6 186.2L569 189.5l39.6-5.7L646 186" />
      <path fill="#aaa99b" d="M763.6 641.7L872.3 663l-82.2 1.5L918 647" />
      <path fill="#50a7c9" d="M921.4 737l-15-13.4L904 708l-2 22.2" />
      <path fill="#ffe982" d="M924.2 102.2l53.5 11.5-4 7.8 4-18" />
      <path fill="#f7f6f1" d="M106.5 133.6l-34.2 17.7 46.2-10.8-5-28" />
      <path fill="#2e66a8" d="M557.3 156l16.7 24-20.3-6.7-9.3-24.3" />
      <path fill="#fd6" d="M391.6 411.4l4.3 23.4 47-70.7-1 75" />
      <path fill="#ffe688" d="M272.4 363.4l7.5 57.4 2-37.6 152-18" />
      <path fill="#fbf9f5" d="M381 185.6l10.6-33.3-4.3-18.6-7.4-5.2" />
      <path fill="#9c988d" d="M437.7 645.4l-13.7 33 21.2-33.3 12 23" />
      <path fill="#349bca" d="M949 708.5l19.6-5-26 9.6-4.3 28" />
      <path fill="#3d70ae" d="M588.5 140.7l17 53.6-37.4-49.5 3 .5" />
      <path fill="#3d71b3" d="M750.4 161.3l-13.2-61.8L1055-3.5 689 2" />
      <path fill="#ffe786" d="M953 170v-59.7l-11-8.3 3.2 75.3" />
      <path fill="#f7d763" d="M286.2 388.7l-25.8 12 8 16.5.5-21" />
      <path fill="#ffe885" d="M815.8 176.3l-2.5 4.3 21.8 5-13-43.7" />
      <path fill="#3368ac" d="M796.2 179l-20.8-33-15.4 3.5 8.7 20" />
      <path fill="#3f72b1" d="M953 129.4l16.2-20.5 50 93-65.6-27" />
      <path fill="#ffef7e" d="M655.7 107.7l4.2 12.8-20-13.8 4-4.5" />
      <path fill="#4e7da5" d="M867.3 395.2l2 26.3-5.6-17.3 20.7-10.6" />
      <path fill="#5baaca" d="M280.7 735.5l-3.6-12-27 4 90 1.5" />
      <path fill="#f3e9d5" d="M283 651.7l-15 111.6 3.4-170.6L265 675" />
      <path fill="#6d8c8a" d="M847.7 413l5.2-8.8-16-13.6 11 24" />
      <path fill="#ebe5d2" d="M231 649.2l-66 93.5 49-96.3 18 97" />
      <path fill="#ffec84" d="M499.3 398.6l131.3-1.6-9.7 36-17-63" />
      <path fill="#53523a" d="M191 390.7l-8 21.5-5 6 2-14" />
      <path fill="#e9e2d1" d="M410 687.6l-4.4 58.3L193 732l231 67" />
      <path fill="#74726e" d="M930 635.7l1.8-4.8 1.2 42-4-25" />
      <path fill="#a09f93" d="M124 679l6.3-11.8-1.5-49.2-4 49.7" />
      <path fill="#ffd43f" d="M484 563.8l90 6.2 14.8-23.4L483.4 535" />
      <path fill="#ebe4d2" d="M74.3 799L-31 593l345 13.5L63.7 636" />
      <path fill="#fffef6" d="M222.7 142L199 184l21.8-16.4-2.3-13.7" />
      <path fill="#3b70af" d="M153 177l17.5-15 3-53-17.5-5" />
      <path fill="#ffe57a" d="M440 376.5l-226-12.3-18 38.4 18-5.3" />
      <path fill="#918243" d="M206.2 416.3l101.2-.3-114.8-15.3-1-12.5" />
      <path fill="#ffe55f" d="M254.2 379.4l-4-16 6.8 59.4-22.5 7" />
      <path fill="#386eaf" d="M484.8 134.2l49 5.4 2.8-29.8-97 29.3" />
      <path fill="#ffe45f" d="M310.5 381.3l-6.8 41.5L305 440l-13.4-53" />
      <path fill="#ffcd00" d="M845.2 416.5l-17.7-50.3L849 369l-16 43.7" />
      <path fill="#8f8f84" d="M911.7 657.5l.8-25-6.7 8.8 3.5 30.7" />
      <path fill="#158dc9" d="M434.3 705.3l6 .4 2.8 21-15-23.7" />
      <path fill="#fffdf6" d="M204.5 130.6l-8-3.8 21.6 38.5-2-23" />
      <path fill="#eee4d0" d="M876 770.3L902 667l-12 31-15-1.8" />
      <path fill="#3a6faf" d="M107-7.6L143.7 121l-42.5 33 33-35.6" />
      <path fill="#faf9f3" d="M259 178.6l-22.6 1.5 35.4 2 10.8-33" />
      <path fill="#89a3be" d="M684.8 279l18.3-.2-1-25-13-1" />
      <path fill="#ebe2ce" d="M380.7 742l-38-95.5 45.5 59-10-115.7" />
      <path fill="#e9e2d0" d="M796.4 643.5L1055 596l-344.7.5-13 46.3" />
      <path fill="#3e72ae" d="M833 106.5l-4.3 31.5 21.2-7.7-9-1.7" />
      <path fill="#eae3d1" d="M655.4 665.5l14 50 90 15.4-41.5-66" />
      <path fill="#3e72b2" d="M416 129.4l-52.7-1L470.7 61l-77.3-92" />
      <path fill="#5d593c" d="M558.7 524L543 539l4.5-25.4 5.3-1.5" />
      <path fill="#f1e7d1" d="M281.3 590.3l13.3 96.8 14.4 74-6-62" />
      <path fill="#46a2c8" d="M805 735l14.4-38-6.2 32.2-30.5 3.2" />
      <path fill="#f9f7f5" d="M76 184.6l.5-75.7-28.5-1 37-8" />
      <path fill="#afac9d" d="M392.5 666.3l-89.3-6 150 1-70.7 4.5" />
      <path fill="#eae3d2" d="M777 695.5l43.6-64.8-25.7 76.6-30-73" />
      <path fill="#e1dfcf" d="M423.4 698l-1.5 40.2 13-22.4-12-7.6" />
      <path fill="#3d72b2" d="M312.7 87.6l-148-54.3L224 152.6l13-16.8" />
      <path fill="#ffe475" d="M659 487.2l-37.7 69L618 571l-2.5-84" />
      <path fill="#ffe886" d="M546.5 102L534 140.8l12 52 .7-103.3" />
      <path fill="#eee6d1" d="M834.5 634.2l1.8 13.8-18.5 116-4-26.4" />
      <path fill="#fefcf7" d="M343.3 159.5L359 185l-43-44.3 14.3-4.6" />
      <path fill="#396ca9" d="M553.7 114l-14.4-1 29 .8-22.4 31" />
      <path fill="#9f9f92" d="M759 645.2l-38.5-2.7 6.6 28-9 1.2" />
      <path fill="#3b9dcb" d="M860 691.7l-4 3 18.3 4 22.7-7" />
      <path fill="#c2bc9c" d="M725.5 439.5L697.7 384l-14 23 23.4-19" />
      <path fill="#ffe484" d="M573.5 486.7L530 517l-56.4-33.4 18.2.8" />
      <path fill="#fdc900" d="M379.4 345.4L442 365l15 213.6 10.8-226" />
      <path fill="#ffdc63" d="M195.6 420l17.6-55.3 11.8 90.8-20.2-100" />
      <path fill="#ffeb85" d="M759.8 108l1.8 75-8-51-5.8-30" />
      <path fill="#504d36" d="M239 419.4l-10.6-14.8 6.2 2.5 9-6" />
      <path fill="#fefbf4" d="M194 128.7L181.8 142l20.7-7.2 21 28" />
      <path fill="#aba333" d="M853.7 268.6L834.5 249l20-1.8-15.3 24" />
      <path fill="#3c70b2" d="M285 168.4l-1.3-42.7-12.7 137-51-40.7" />
      <path fill="#ffecd2" d="M262 724.7L246.4 698l-4.4 5.7-1.4 19.7" />
      <path fill="#3f73b2" d="M603.8 183.4L374 193.2l-14.2-50L376.2 251" />
      <path fill="#aaa440" d="M717.4 246l2.4 38.5-6.2-31-7.3 1" />
      <path fill="#3d72b2" d="M782.5 108l11 65-22.4 94 48-123" />
      <path fill="#feca00" d="M602 345.3l-449 14.5 435.8 4.5 214.4-2" />
      <path fill="#474647" d="M183.2 653.4l-1 13.2-1-20.8 1-5.8" />
      <path fill="#fdebd2" d="M909.3 712.3l7.2-3.2 11 19h-15" />
      <path fill="#7c7041" d="M657 535l-8.5 13 9.3-47.4-4.5 30" />
      <path fill="#f8f8f5" d="M271 133l10 12.2-5 28.5-9.3 6.7" />
      <path fill="#e9e3d1" d="M215.5 702l-40.2-60.5L162 664l36.4-21.8" />
      <path fill="#1a8ecb" d="M381 709.2l19.7 2-2.2-5-5.7-2.8" />
      <path fill="#f9f7f3" d="M82.5 124l.2 39.5-12 26 2-60.8" />
      <path fill="#fffff9" d="M276.7 150.5l-25.7-23-7 7.2 32 2.3" />
      <path fill="#f4f5f1" d="M55 104l64.8 12 6.7 2.6-24.6-14" />
      <path fill="#e8e1d0" d="M701.4 594.7L397 608l265.5 147.4 20.3-124.7" />
      <path fill="#ffcb00" d="M-31 529l430.2 63.6 495.2.8-448.7-32" />
      <path fill="#c2b02a" d="M274.2 248.3L291 246l-18 22 1.2-15.3" />
      <path fill="#3b70b3" d="M719.5 138.5l-7.5 39 37.2-25.7-1.4-43" />
      <path fill="#e8e1cf" d="M113.7 724.6l2.2-85L28 799l71-154.2" />
      <path fill="#ffd248" d="M667.7 537.4l4.8-8.5 36.8 40-96-6" />
      <path fill="#ffe16a" d="M370 374l-94.3 23.5L376 384l.6 60" />
      <path fill="#3b6fb1" d="M925.7 111.3l16.8 5.2-3.2 48.5-44.6 12" />
      <path fill="#eae3d2" d="M418.2 759.2L376 799l23-77-12-1.5" />
      <path fill="#3d72b2" d="M517.6 264.6l28.6-70-58-30 1 75.6" />
      <path fill="#ffe885" d="M489.3 420.2L467 363.7l-.2 84L725 423.3" />
      <path fill="#ffe989" d="M782 415l-116 33.2h114l29.3-2.6" />
      <path fill="#3c71b3" d="M-24 245L59-31l-1 209.4 58.7 69.7" />
      <path fill="#f8cb00" d="M439.6 247l1.2 15.7-3.6 8.3-1.7-15.3" />
      <path fill="#5a553b" d="M195.4 379.4l-18.2 40.4-7.2-26.2 8.8 16.6" />
      <path fill="#faf1bc" d="M590.3 488l-2.8-1.8-95.3-1.2-3.4 3" />
      <path fill="#ffef80" d="M712.6 101.7l-4.4-4.6 20.4 25 .7-12" />
      <path fill="#837743" d="M391.6 383l24.6 34.6-86.3-17.2 67 4.5" />
      <path fill="#ffde5a" d="M389.7 368l2.3 61.2 34-26-28.4 30" />
      <path fill="#fee783" d="M977.4 122.8l6-12.5-63.2-3.4 48.3-5" />
      <path fill="#7798b9" d="M137.4 270l95.2-15.6-110.5-2 72 19" />
      <path fill="#3d72b3" d="M843 255.2l144-1.3 63 55 5-182" />
      <path fill="#ffd852" d="M591 560.2l-54.7-22-8-16.5-7 8.4" />
      <path fill="#a9a89b" d="M58 643.4l124.6-.2-101.3 29.5 59.5-22.4" />
      <path fill="#d2af09" d="M838.4 572.2l37.7-23.8-6-56.4-5 73.4" />
      <path fill="#c4c09a" d="M513.5 388l-25 11.4 113.2-.3-80.3 22" />
      <path fill="#9a998d" d="M448.6 660l25.4-33-8 10.8-18 36.6" />
      <path fill="#ebdc89" d="M751.6 173.5L748 178l35.6-1.5-49.6 9" />
      <path fill="#3399c9" d="M359 684l2.5 51 14.7-7.2-25.5 5.5" />
      <path fill="#4ba3ca" d="M284 702l16.3 4.8-2 22.2-4.6-1" />
      <path fill="#ffe280" d="M393.4 365.6l15 43.8-11.6 1.3 43.7-47" />
      <path fill="#47a2ca" d="M407 721l26.3 17.7 6.5-24-.8 19" />
      <path fill="#e9e2d1" d="M847.8 605l-124.5 39.3-2.4 73.3-5-95.8" />
      <path fill="#fff67f" d="M911.7 119l8.7-19.2 2.4 11.3-2.6 6" />
      <path fill="#718f86" d="M823.5 397.3l14 31.3-5-27-4.2 3" />
      <path fill="#efe7d5" d="M910.6 627.2l-28 31.2 10 10.3-11-59" />
      <path fill="#fc0" d="M866.4 395l112.4-5-126.3-36.4-3.2 75.2" />
      <path fill="#fecb00" d="M378.8 518L584 454.7l-190.2-10.2L-17 513" />
      <path fill="#d7d188" d="M664.2 166l-14.8 23-2.4-13 9.2-11.6" />
      <path fill="#3a75bd" d="M834 415.5l3.4 8.2 10.3-15.5-4 13" />
      <path fill="#6eb4cd" d="M807 694.3l-67 3.7 11 20.5-5-27.2" />
      <path fill="#9a988c" d="M968.8 652.5l-45.3 9 15 3 30.2-17" />
      <path fill="#245eac" d="M708 148l-1.3 25.8-13-22.2-6.2-1.5" />
      <path fill="#3f72b0" d="M664.7 112.8l17.3-2-21 73.5L659 22" />
      <path fill="#376eb2" d="M117.6 202l-1.2 66-36-80.4 1 80.8" />
      <path fill="#3298c8" d="M756 737l4.7-17.3-16.6-16.4 25 17.2" />
      <path fill="#f0e7d5" d="M420.5 647L379 686.7l34.4 27.5-9-94.6" />
      <path fill="#fc0" d="M841.8 489l38.5-65.6L883 400l9 108" />
      <path fill="#3f73b2" d="M1034.3 99.6L1032-31 663 100.5l189 1" />
      <path fill="#366cae" d="M347.3 134.8l-15.4 7.7 37 36 11-38.5" />
      <path fill="#366bad" d="M620.4 168.6l10.8-23-13 2 45.2 19" />
      <path fill="#3c71b3" d="M71 101.6l-102-89L86-31l80 130.3" />
      <path fill="#f2e8d2" d="M299.4 650.4l7.3 80.8-.8-70 5-27.8" />
      <path fill="#929288" d="M706.6 663.5l169.2-2.5-118.8.2-56.4-.3" />
      <path fill="#3e72b2" d="M466 174.5l-181 52.3 196 14-208 15.4" />
      <path fill="#ffee84" d="M610 102.2l11 1.3-2.8 37-4.5 50.4" />
      <path fill="#f1f2f0" d="M352 118l-34.5 26 46.4-44-28 3.2" />
      <path fill="#ffea83" d="M768.6 176.4l11.5 8-42-3.8 6-3" />
      <path fill="#3d71b2" d="M743.5 254.5L537 189.8l476.8-5.2-166.4 62" />
      <path fill="#ece7d5" d="M905.4 713l20.6-48.6 2 1-10.5-60.6" />
      <path fill="#7eb9ca" d="M889.2 721.5l10.6-35.2 4 2.7-19.7 64.4" />
      <path fill="#fff" d="M-1 786.4l-30-198.2L-9.3 799l8.5-204.2" />
      <path fill="#3e72b3" d="M857.5 178.4l19.2-64.7 8.5 60.8 11.6-1.5" />
    </g>
    <g class="SVG--2">
      <path fill="#dce2e5" d="M418.2 185.2l-6.8-19.4 29.3 15-16 6" />
      <path fill="#f3da84" d="M824 131l9.7-33 23 13.6L816 110" />
      <path fill="#3d71b3" d="M363.8 221.8L482 157.2l-18.7-25 22.2 121.4" />
      <path fill="#54a7c9" d="M865.7 711.5L868 739l9.2-60.7-9.3 39" />
      <path fill="#3c71b2" d="M299.6 179.2l-1.2-68-21.8 30.4 11.5 23.8" />
      <path fill="#3e72b3" d="M882.5 99.4l-331-5-127 36.2 4.5-159" />
      <path fill="#e5dfcd" d="M838.6 649.8L748 678.4 725.3 643l52.8 45.7" />
      <path fill="#eae2d1" d="M158.2 663.6l-6.3-47.4 6 152 97-99" />
      <path fill="#225896" d="M165 189l-49-3.2 127-1 67.6 3.6" />
      <path fill="#ffee81" d="M787 153.5l-7.4 6L783 127l1.7-1" />
      <path fill="#3e72b1" d="M336 345.8l252.2-75.5-381.6 1-169.4.8" />
      <path fill="#7d7442" d="M510.6 540.2l9.6-20-10.8-5 26 .6" />
      <path fill="#ffe688" d="M706.4 485.5l-24 38.3-26-28.8-50-9" />
      <path fill="#ffe586" d="M682.6 387.5l122 20-.2-42.8H515.2" />
      <path fill="#2e67ae" d="M691.7 116.8l27-6 3.2 11.8-21 13.7" />
      <path fill="#255894" d="M705.7 189.6l83.6-1-37.8-3.8-127.6 2.4" />
      <path fill="#3097cc" d="M241 690l-9 3.3 7.6 35.6-7.8 11" />
      <path fill="#6e92b9" d="M896.7 245.6L842 272l152.7-1.7-99-17.7" />
      <path fill="#3d72b3" d="M997.6 250.2l51 182.6-23-463.8L980 107" />
      <path fill="#5c563a" d="M358 381.5l-5.7 37-13.5-7.8 16 7" />
      <path fill="#3b6faf" d="M255 171.2l16.7-24-15.2-11-13.3 36.6" />
      <path fill="#fce586" d="M549.8 138l15.4 9.7 26 31.4-12.7 5" />
      <path fill="#f0f1f1" d="M148.2 182.5l-.3-61-6 50.5 26 7.4" />
      <path fill="#bfbb9d" d="M643.4 421l-6-41-11.4 39 23.2-.5" />
      <path fill="#4b4a36" d="M201.7 413l2 1.8 8-17.3L199 406" />
      <path fill="#ebe3d1" d="M1008.2 799l46.8-235.3-83 80.3-12.8 33.2" />
      <path fill="#8b8b81" d="M953 642.3l4.2 16.4 16-18-14.3 29.8" />
      <path fill="#396eae" d="M124.6 298.5l-29-130 23.5 19-52-3.2" />
      <path fill="#386eb2" d="M779.3 169l58 43.4-72.7-68.2-1 32.6" />
      <path fill="#939488" d="M253.2 644.5l3 20-29-4.6 11-3" />
      <path fill="#e9e2cf" d="M364.5 626l-50.8 23.5 40.2-11.3 5 30.3" />
      <path fill="#fffff8" d="M266 179.6l-23.3.2-4.7-48-4.6 42.4" />
      <path fill="#58abcb" d="M917.7 733.4l-7.6 2-3-2.7 29-11.7" />
      <path fill="#1e91c7" d="M958 739l9.3-23.2-6-14.6 5.5 3.3" />
      <path fill="#afcccb" d="M282.4 716.2l1.4 12.2 6.5 1.2L292 707" />
      <path fill="#e7e1cf" d="M120.3 677.2l1.6-41.5L168 781l-35.8-138.6" />
      <path fill="#ffe987" d="M535.8 400.4l263.7-24-3.6-11-327 .8" />
      <path fill="#ffea83" d="M561.8 102.7l17.4 36 2.6-30.2-36 1" />
      <path fill="#3e72b2" d="M911.4 95.2l23.4 210-38.3-183L981 16" />
      <path fill="#efe8d5" d="M249 623.5l-1.8-22.3-9.6 64-10-49.3" />
      <path fill="#ffd24a" d="M253.2 413.3L193 449.6 164.4 387l-30 52.7" />
      <path fill="#5fadca" d="M323 702.4l-3.4 30 11.8-7.2-26.2-21.4" />
      <path fill="#d9e1e6" d="M142.8 120.4l-6.3 6.3 15 16-22.4-6.2" />
      <path fill="#f5e8d0" d="M941.7 745l14 1.6 5.6-35.5-13.6 3" />
      <path fill="#eaeeed" d="M164.3 108.7l22-7.6-5.3-3-15.2 1" />
      <path fill="#3c71b3" d="M551.7 50.2L600.5 157l-5 80 .8-139" />
      <path fill="#8c877f" d="M91.5 644.5l-.8 13.5-2.6 7.7-3-13.3" />
      <path fill="#f8f8f4" d="M441.3 130.8l-2 5.6-26.5 2.6-12.2-8" />
      <path fill="#2f99cd" d="M414.3 688l2.8 24.8 8-27.2-12 4" />
      <path fill="#46402f" d="M365.8 410.7l2.6-3-.2-21.2 3.5 21.4" />
      <path fill="#366fb3" d="M528 252l186.5-14-8.5 74.4-6.6-58.8" />
      <path fill="#f8c600" d="M589.7 562.4l25.3 32-1-122-22-15.8" />
      <path fill="#eae3d1" d="M101.5 742.8l-.7-122-24.3 164 7-149.2" />
      <path fill="#2a5d9b" d="M643 187.2l-103.8-2.4-40.8 4 67.8 1" />
      <path fill="#ece5d2" d="M864.8 713.7l-105-53.8 10-24 18 57" />
      <path fill="#ffdd68" d="M262.8 397l36.3 1.4-10-21-27 39.6" />
      <path fill="#f7e284" d="M809 108.8l-8-2.7 69.6 7-7.5-8" />
      <path fill="#386eaf" d="M142.5 148.8l-15.4-16 9 29.4L107 264" />
      <path fill="#6e6f6a" d="M860.6 635.3l-5.2 9.4 4 9.4 1.5 9" />
      <path fill="#fdfbf4" d="M184 175l10 5.6-20.7 4.2 2.7-82.2" />
      <path fill="#1c222a" d="M318.6 415.4l-9.3-.6 1.4-22.7 2.3 21" />
      <path fill="#ffde6a" d="M396.4 374.3l-13 40.4-5-25-29 1.7" />
      <path fill="#ffde64" d="M589 485.2l-15.3 20.4-37 47 52-13.6" />
      <path fill="#ede5d2" d="M329 723.4l9-128 1.4 144.5-15 23" />
      <path fill="#e9e2d0" d="M244 747l29-27-38.2 79-67-152" />
      <path fill="#fee684" d="M731.6 167.3l-23 14.5-17-6 40.6 1" />
      <path fill="#4ba4c8" d="M796.2 707.6l27.6 6-12.2-6.2-3.3-3.7" />
      <path fill="#e9e3d1" d="M329 711.5l-6-68.7-132.5-2L328.8 609" />
      <path fill="#4174b0" d="M609.2 110l1.4 63.7-29.6-.8 7-60" />
      <path fill="#67afca" d="M318.6 736.3l-60.2-15L303 733l38-10.8" />
      <path fill="#ffe783" d="M707.6 393L640 452l36.5-53.4 27.6 18" />
      <path fill="#3e72b2" d="M240.6 231L230 163.8 213.3 178l-88.8 76.7" />
      <path fill="#3a9cc9" d="M307.5 711.2L235 737l4-7.2 27-4.8" />
      <path fill="#726942" d="M662.8 516.2l-9.4 11.3 2.8 8.2-12.7-26" />
      <path fill="#396dae" d="M411.5 138.3l-17-.6-.3 24.7 22 44.7" />
      <path fill="#ede6d3" d="M258 630.3l1 9.4 5.7 52.3-9.5-1" />
      <path fill="#fecb00" d="M863.5 364l-61.3-17.3 102.2 57.7-13.2 16.3" />
      <path fill="#e8e1d1" d="M424.8 712l6.4 18 32.7-38.2 115 66.4" />
      <path fill="#ffe16e" d="M538.2 489l-15.6 49.2 25.6-50-6.8 42.6" />
      <path fill="#ffcb00" d="M742 582.4l79.7-178.2 22.5 37.7-108.5 14" />
      <path fill="#e8e2cf" d="M346 700l-32.3 52 39.2-20.8-37-17.8" />
      <path fill="#eae4d1" d="M217 693.6l72.6-11.6-9-36-8.8 24" />
      <path fill="#e8e1cf" d="M878.8 615l162.4-21.5-176.8 13-2 75.7" />
      <path fill="#3e72b0" d="M718 67.2l31.3 58.4-31.6 86.7 31.6-44.7" />
      <path fill="#ffd146" d="M488.8 529.2l95.5 39-99.6 1 39.6-52.3" />
      <path fill="#3269ab" d="M832.2 149.5l15.4-4.3-1.5 8.7-16 23" />
      <path fill="#ffdb5b" d="M375.4 422L359 404l12.8 37.6 4.2-82" />
      <path fill="#ffea83" d="M546 182.4l.6-76.3-23.6 5 9.6-10" />
      <path fill="#ffc900" d="M688 449.2l133.7 34-147 1-207.5.2" />
      <path fill="#3a6fb0" d="M151.4 88l13.5 25.5-47-49.7 1 68" />
      <path fill="#f2e6d1" d="M797.2 725.8l8-32.3-10.3 1 18 22.5" />
      <path fill="#756d40" d="M260.8 398.5l10.2-14.3 4 26.5 24.2-10.3" />
      <path fill="#527fa4" d="M834.4 401l18.6-4-18-2-5.5 12.2" />
      <path fill="#f9e599" d="M139 364.4l19.3-1 89 1.2-98.3 10.7" />
      <path fill="#ffeb86" d="M824.5 102.7l4 22.7.7 48.8-10.5 11.2" />
      <path fill="#3366a3" d="M825.6 114l23.7-2.4 9-3.5-5.2 19" />
      <path fill="#fbd453" d="M283.7 431l3-29 3.6 3.2L294 428" />
      <path fill="#d6b00b" d="M253.7 513.8L364 542l-143.5 1 57.6-50" />
      <path fill="#756d46" d="M683 536.8l-10.6-25.6 9.6-17-15.7 29" />
      <path fill="#3c72b4" d="M66 270.4l-11.7-8.7 14-45.8-27.6-1" />
      <path fill="#eae2cf" d="M858.5 673.6l-9.2-34-18.2 6.8 28-54.8" />
      <path fill="#3a6fb2" d="M793.2 130.3l21-23.7 3.2 68.4-31-.6" />
      <path fill="#9ab0c6" d="M220.3 281.7L223 236l-4 11.8.4 5.4" />
      <path fill="#3268ab" d="M631.5 141l12.8-25.7 2.5-3-27.7-.6" />
      <path fill="#69623d" d="M369.4 399.4l-18 8.5 51-10 9.6 6" />
      <path fill="#5dacc7" d="M918.7 702.5l21.3 8-27.7-1.2-10 4.2" />
      <path fill="#ffe06d" d="M352.6 369l12.4 35-24.8-29.5 11.6 48.7" />
      <path fill="#cfc795" d="M764.6 403.6l-17-6.4-67.6 23 85.4 1.5" />
      <path fill="#ede6d2" d="M731 711l18-18.4-10.5-80.4 2.8 60.2" />
      <path fill="#cfc796" d="M598.4 422l-123.2-2 137.6-15.2-12-15" />
      <path fill="#fed24b" d="M733.3 570.8l1.5-53.8-23 51.5-24-43.8" />
      <path fill="#3e72b3" d="M76-31L-31 352.4l90.5-21-20.8-73.6" />
      <path fill="#366daf" d="M846.3 281l-2 30 3.8-58.5 23 39.2" />
      <path fill="#fc0" d="M816.2 572l143.5 18.2-226.6-1 6-74.6" />
      <path fill="#ffe783" d="M760 143.3l8.6-6h19.8l-19.7 10.3" />
      <path fill="#fae480" d="M794.3 118.5L782.6 103l19 10.8-2 6.4" />
      <path fill="#888a80" d="M205 659.5l-2.5-4.8 9-18.8-6.3 25" />
      <path fill="#c4b231" d="M43 263.6l-1.8 29.8 4-50-4.5 8.8" />
      <path fill="#396fb3" d="M677.8 108l-36.3 55.3 35.3 3.2-23 42" />
      <path fill="#a09f92" d="M744 674.8l-7.4-13.5L674 631l40.2 12.3" />
      <path fill="#3f70a9" d="M102.3 114.2l3.6 12.4-19-2-7-15" />
      <path fill="#ffdf67" d="M271.7 359.5l44 76L283 372l-3 47.2" />
      <path fill="#2c5f9c" d="M451.7 187.6L411 184l-47.5 2-87.8 3" />
      <path fill="#ffe173" d="M172.3 394.4l194.4-21.8-68.4 26L139.7 369" />
      <path fill="#5f5838" d="M342.6 399.7l12.3 3.8 1-12-17 27.2" />
      <path fill="#cea207" d="M827 574.3l35-74.7-58.4 26.5 37.7 46" />
      <path fill="#ffe982" d="M638.7 137.8l-27.2 2.5 3.6 10 26-8" />
      <path fill="#ffcb00" d="M903.4 415.4l129.3 42.6 22.3-116.5-81.4 16" />
      <path fill="#edda86" d="M692 165.2l-5.7 6.4 51.2 14.8L672 182" />
      <path fill="#ffd853" d="M615.8 560.2l37.4-7.3-1.7-36-34 19" />
      <path fill="#ece3d2" d="M790.3 775.7l79-72.7-21.4 85-70-61.7" />
      <path fill="#605935" d="M519 538l-2.2-1.4 18.3-3.4 6 4.8" />
      <path fill="#7698bc" d="M395 249.7l-12.7 15.7-34 5.5 67-1" />
      <path fill="#3a9dc8" d="M412 730.3l-21.3-2.8-43 2.4 21.3 3" />
      <path fill="#eae3d0" d="M407 589.5L400.7 707l49.3-61-24 56.4" />
      <path fill="#ffe379" d="M182.7 366.4l44 39 4-14.7 185.8-5.6" />
      <path fill="#e9e2d0" d="M200.8 712.4l2.6-109.3 77 38-92.3 3" />
      <path fill="#2f68b2" d="M565.8 114.2l-17.3 3.2 5.5 21 13.2-1.6" />
      <path fill="#3f73b2" d="M339.7 111.6L171.3-31l173 32.8-32 143.2" />
      <path fill="#4da5c7" d="M832.2 720l-6 14.5 1-30.3 7.3.2" />
      <path fill="#6b6339" d="M306.8 399l6.3-7 19 3 4-1.5" />
      <path fill="#3f73b2" d="M527.6 101.5l278.7-.4 189.3-1-15.4-131" />
      <path fill="#e9e2d1" d="M392 757.8l249.3-83.2L392 747.2l-48.4-88.5" />
      <path fill="#e9e3d2" d="M304 713l-14.3-11.3-62.2-16 96.5.6" />
      <path fill="#ffd141" d="M215 445.5l93.5 2.7-14.3.5-46-42.6" />
      <path fill="#c19f0c" d="M405 521.4L375.2 540l10.6-33.2 5 28.8" />
      <path fill="#e5e1d0" d="M290 799l2.8-68.8-29.2 50.5 46-63.3" />
      <path fill="#3f73b3" d="M181 180.5l-12.2 85.7-10-7.7 134.8-31" />
      <path fill="#74b6cd" d="M782 687.7l-12.2 57.7L789 684l2.5 4.5" />
      <path fill="#ffde6e" d="M637 514.7l41-28-21.2 39.7 14.8-12" />
      <path fill="#379cc8" d="M932 705l-.5 18.5-8.5-19.8-18 6.6" />
      <path fill="#6d92ba" d="M535 278.4l30.8-29.8 34.3 44-14-42.3" />
      <path fill="#3e72b2" d="M-11.7 250l4.4-116.7 79-24.5-24.4 137.7" />
      <path fill="#a8a698" d="M896.5 644l-14 24-13-10 33.8 7.7" />
      <path fill="#fcca00" d="M355.4 348.6l94.8 15 252.5-8.8-204.3-10" />
      <path fill="#ffea83" d="M959 184.4l-29.6-4 17-7 20 5.5" />
      <path fill="#fc0" d="M295.2 545.5l11-24 5 73-273-9.6" />
      <path fill="#3e72b3" d="M914.8 110.4l-46.3-46-1.5 97.4 15.7-145.3" />
      <path fill="#a3a195" d="M329.6 618l5.4 49.4h-4l-1.5-11.4" />
      <path fill="#ebd787" d="M871.7 109.3l9.2-15 11 37 5-21.3" />
      <path fill="#ffe886" d="M655 102l8.7 7.8-71.4-6.7 23.4 9" />
      <path fill="#efe9d4" d="M998.5 650.7l-31.6-10-7 16.5-10-24.2" />
      <path fill="#346cb0" d="M101.8 123l1.4 9.8-8.4 8.3-13.6-1" />
      <path fill="#3e72b2" d="M892.7 258l-29.4-121 9.5 99.3 18 66.2" />
      <path fill="#3f73b2" d="M450.3 261.4l-12.3-8 41.2-11-50-273.4" />
      <path fill="#ffd64c" d="M336.3 428.7l-40.6-22.2 33.4 44-2-49" />
      <path fill="#3a70b3" d="M716.3 291l12-104.6 3.4-13.8 5.7 25.2" />
      <path fill="#afafa3" d="M690.6 394.3l48 13-43.2-17.8-9.4 37" />
      <path fill="#ffcb00" d="M884.6 349L857 416.2 819.5 352 809 410.7" />
      <path fill="#5fadc9" d="M884 728l9 7.3 3.8-31.7-14.2 31.8" />
      <path fill="#e9e2d1" d="M661 799l48.5-204.5-25.3 184-253-180.4" />
      <path fill="#deae00" d="M205 448.2l-76.8-1.2 48.8 6 88-2.5" />
      <path fill="#7494b9" d="M791.3 239.3L775.7 279l-12 8.5 2.3-30.3" />
      <path fill="#f7e287" d="M574.6 129l-.5 9.5 13-3-45 17" />
      <path fill="#7d7345" d="M196.7 415.5l2-2.8-5.8 7 4-44.8" />
      <path fill="#796f41" d="M679.3 542l27.2-27 1 3.6-16-5.5" />
      <path fill="#feea9b" d="M726.5 492.3l-41.5-7h49.2l.4 40" />
      <path fill="#ffdf6c" d="M397 383.8l-23.3 18.8 6.4-32.3 14 38.3" />
      <path fill="#799486" d="M913 419l-3.6 5.2-31.3-3.5-50-4.3" />
      <path fill="#366db0" d="M785 297.2l-10.4-129-12.8-20 16.2-1" />
      <path fill="#a78c12" d="M288.2 520.7l6 13 10.5-10.2-12 21.5" />
      <path fill="#8e9084" d="M277 648.8l42.5-5 4.5 4.2-40.8-5.5" />
      <path fill="#57533a" d="M549.2 531.2l-1.5-22.3-3.3 21 .3 8" />
      <path fill="#dfaa00" d="M647.3 569.6l-36.2 3h144l-30-3.5" />
      <path fill="#eae2d1" d="M771.5 658.8l-136.2 62.4L764 727l-26.8-19.5" />
      <path fill="#af9310" d="M312.4 513l-1.4 6-2.4.7L327 544" />
      <path fill="#a4b7c9" d="M64.4 261.7l-3-20.3 20.6 30L63.2 255" />
      <path fill="#2c609f" d="M655.7 127.7l-32-15.4 25-1.2 10 21" />
      <path fill="#f4f5f2" d="M319.3 138.2l21.3-13.6 22.2-19.7-6.4-6" />
      <path fill="#3d70af" d="M611.2 26.4l-201.6 91-54.2-5L330 143" />
      <path fill="#d0b520" d="M713 243.2l1.5.8 2 33.6 2.5-22" />
      <path fill="#3f73b3" d="M511.3 220l26.2-78.2L504 56.4l-25.7 207" />
      <path fill="#9d9c91" d="M295.3 660l4.7-31.3-7.4 37.6 50.3-9.6" />
      <path fill="#3064a3" d="M959 125.2l-2.8 34 3.7-49 13 1.7" />
      <path fill="#eee5d2" d="M926.6 718.3l-14.3 1 37.8-60.7-34 31.6" />
      <path fill="#54a7cb" d="M283.4 743.8l-32.2-56.5 18 35.3 7.4-2.5" />
      <path fill="#ffcb00" d="M-19.7 349l5.6 138.2L93 408l64.8-59.5" />
      <path fill="#3c71b3" d="M375 256l47.7-68L443 324l-21-73.6" />
      <path fill="#817e74" d="M682 641.7l-2.5-6.4 9.5-.2 6.2-1" />
      <path fill="#ffcb00" d="M884.6 396l-4.2 200.2 114.3-10L866 509.5" />
      <path fill="#f8f9f2" d="M318.2 183l4.7-8.7-37 4.3 11 4.2" />
      <path fill="#fcd34c" d="M607 510l71.2 46.5 9-35.7-1.7 47.4" />
      <path fill="#366bae" d="M103 148.2l36.4 28.2 3.5-36 2-2.2" />
      <path fill="#faf9f4" d="M378 184.3l-23-4.3 33.4.6 2.5-47" />
      <path fill="#ffe287" d="M750.4 133.7l8.7-28.4 5 40-8 38.7" />
      <path fill="#376db0" d="M772.3 109.6L788 117l-15.5 22.3-10-7" />
      <path fill="#3a6eb0" d="M846.6 113.2l-8.5 23.6 46-28.8 1 66.6" />
      <path fill="#eae3d1" d="M752.8 654l72.8 47.6-53.4 1.7 46.3-27.4" />
      <path fill="#ffee85" d="M838 182.3l-37.8-1.7L830 176l12-.6" />
      <path fill="#3e72b2" d="M898 163l42.4 13 1.6-14.5-41.7-48" />
      <path fill="#524f37" d="M396 416.3l11.7-.5-5.6-3-7-24" />
      <path fill="#fcca00" d="M105.6 455.8l210.6 18.4 38.2 88-18-113.3" />
      <path fill="#3b70b1" d="M225.6 169.8l-24-120.3-17 77.3 48 .8" />
      <path fill="#3c70ae" d="M210 166.2l-9.5 10.3-15.5-32.3 18.6-5.3" />
      <path fill="#7395b9" d="M385.3 254.6l-78-.7 33.7 15 42.2-25" />
      <path fill="#444233" d="M545.7 541l-1-6.7 2-20.8 1.7 25.3" />
      <path fill="#f2f3f0" d="M340.4 157.2l25 26.4-29.3-17-17-24.2" />
      <path fill="#3f73b3" d="M327.3 258l-5 34.8 40-97.2 286.3-3.8" />
      <path fill="#88887f" d="M439.7 646.5l15.2 20-11-25-10 20.3" />
      <path fill="#bdb99f" d="M489.7 401.5l25-22L498 400l25.3 17.2" />
      <path fill="#fecc00" d="M400.5 489.5l.8 70.5-24-107.8-4.3 87.3" />
      <path fill="#a1b4c7" d="M226.4 253.5l15.8 18L241 244l-4.3 22.3" />
      <path fill="#a19f41" d="M285.3 268.2l7.3-1.3-7.2 6-19-9" />
      <path fill="#e8ecea" d="M266.2 183.7l9-12.4 1.2-4.4-35.4 19" />
      <path fill="#d3b61b" d="M116.7 261l3-15.3 3.7 20.6.6 8" />
      <path fill="#3e72b3" d="M199.5 257.4l-10 31.2L201 191 61.4 235.2" />
      <path fill="#ffec80" d="M653.3 182l-46 3.2-8-5 55.4-3" />
      <path fill="#c2a111" d="M230 544l-24.5-4 23.5-1 29-27" />
      <path fill="#918f85" d="M70 658.5l3.4 18.5-7-43-1 35.8" />
      <path fill="#ffe278" d="M575 517.4l15.4-25-109.8 2.8L521 510" />
      <path fill="#ffe886" d="M537.2 166.7l-5.3 13.8 15-3-7-81" />
      <path fill="#2f98c9" d="M438.2 720.6l-2.7 13 10.6-15-10-19.2" />
      <path fill="#f4c845" d="M548.5 523.7v-10.5l19.8 56.7 17.2-6" />
      <path fill="#4072af" d="M463.4 344l61.2-100.5-12 66.8 47.6 35.7" />
      <path fill="#3f72b0" d="M572.4 152.2l16.3-30.7 14.4 58.3-26-17.8" />
      <path fill="#3c71b3" d="M355.4 189.3l-5 81.2-36.6-126.7v29" />
      <path fill="#ffe787" d="M792.8 448.5l14-3.7-6.6-25L459 446" />
      <path fill="#e9e2d0" d="M755 685.7l277.6 9.5-139 9.4L926 662" />
      <path fill="#3098c8" d="M309.8 712.2L273.3 724l5 14 3.5-21" />
      <path fill="#3e72b2" d="M660 252.4L794 307l47.3-58 3.7 66.6" />
      <path fill="#ecefee" d="M114.6 108.5l2.2 35L113 120l-20.6-19.4" />
      <path fill="#4f7fb2" d="M625 115.3l13 5.4-.3 18.7-17.2-2" />
      <path fill="#94958b" d="M926.6 641l19.6 3.7-20 5.2 6.6-26" />
      <path fill="#3970b4" d="M274.3 257.3l-28.6-5.8 17.8-40-2.8 127.7" />
    </g>
  </g>
</svg>