<svg version="1.1" viewBox="0 0 1024 768" width="1024" height="768" xmlns="http://www.w3.org/2000/svg">
  <path fill="#c2c1bf" d="M0 0h1024v768H0z" />
  <g fill-opacity=".5">
    <g class="SVG--0">
      <path fill="#3b3c3e" d="M996 25.8l-551 1.4 3 549.8 547.2 3.5" />
      <path fill="#fff" d="M449.3 783l-9.5-814L-31 2.3-6.5 799" />
      <path fill="#fff" d="M1031.8 578.7L99.6 588 524 799h522.6" />
      <path fill="#060401" d="M828.2 54.7l2.6 531 52-205.5-10.6-363.8" />
      <path d="M471.7-23.5l5.4 532.2L453 631l3-568.8" />
      <path fill="#b6b6b6" d="M666 258.2l10.4 321.3-185.6-1.8 1.5-423" />
      <path fill="#242525" d="M793 232.8l89 89.5L692.8 384l9 121" />
      <path fill="#a19987" d="M771.2 693.5L463.5 742l274.2.6 225 .4" />
      <path fill="#121212" d="M980.6 28.7l-.8 452.3-26.2 116.3L956 161" />
      <path fill="#fff" d="M570.4 720.7L-31 611.7 281.3 528l296.3 88" />
      <path fill="#c8c8c8" d="M879.5 500.5L888.8-31 949 536.5 948-31" />
      <path fill="#ffc277" d="M363.4 281.3l-.8 298.6-51.6-4-2-337" />
      <path fill="#c5c5c4" d="M571 148l87 82.6L686.7-31l-115.4 4.5" />
      <path fill="#fff" d="M315 215l-346-1L6.5 799l302.3-217.2" />
      <path fill="#c9c7c9" d="M791-31l-4 311-52.6-311 1.6 392.3" />
      <path fill="#fff" d="M429.2 723.2l15-549L445.5-31l-168 93.5" />
      <path fill="#191919" d="M568.4 555l-12.6 30.2-10.7-60 13-210.4" />
      <path fill="#cfcecd" d="M553.3-31L519 592.5 503.8 32 395.3 12.6" />
      <path fill="#a89c87" d="M294 696l-39.4 2.2 27.2 47 315.5-9.6" />
      <path fill="#a80000" d="M757.7 722.6l-4-142.8-8 134.4 2 5.4" />
      <path fill="#ef5022" d="M82.5 670.6l1.5-68 18.7 4.6 13.6 99" />
      <path fill="#a70000" d="M580.5 750l5-64.4-1.2-79.2-7.8 50.3" />
      <path fill="#070607" d="M699.5 302.8l1 111.4L718 329 701.5 33" />
      <path fill="#2c2d2d" d="M888.2 580.7l-98.3 1.7 39-4.4 44-232.7" />
      <path fill="#5ccb8e" d="M228.4 371.4l-59.4-26-75.3 91-21.7-41" />
      <path fill="#383738" d="M548.2 62.5l.5 351.8L566.2 296l-6.6-274.6" />
      <path fill="#fff" d="M1012.7 13l4.7 341.3L1055-31 761.7 4.4M-31 7l85.5 792 48-737L186-26.4" />
      <path fill="#333" d="M620.5 266.8l-17.6-31 15-207.3 13 195" />
      <path fill="#fff" d="M565.2 744l396.5-1.8 89-343.7L1025 799" />
      <path fill="#b1b0b2" d="M723 371l67.6-10.7-2 218.2-55 12" />
      <path d="M966.6 71.5l-2.8 192.2-9.5-161 5-107.8" />
      <path fill="#78b7e4" d="M28 183l57.6-5.5L243 228.3 7.3 201.8" />
      <path fill="#f4d288" d="M128.3 354L139 511l101.4 35-141.7 23.7" />
      <path fill="#fff" d="M746.2 588.2l300 3-126.5 109.5-125.3 14" />
      <path fill="#1d2221" d="M783.7 254l7 186.7 48.8 7-20.8-36.6" />
      <path fill="#e36500" d="M996 641l-9.5-10.3-7.5 87-13-55.5" />
      <path fill="#eff3f1" d="M849.2 10.3l-1.4-17-4 100.6 5 94" />
      <path fill="#fff" d="M737 716.4L753.3 583 593 626l-2 71.4" />
      <path fill="#eff0f2" d="M846.2 562l-1-146.4 2.6-59 6.2 34" />
      <path fill="#fff" d="M152.8 729.2l382.7 22.4L652 763.8 95 799" />
      <path fill="#fffdff" d="M24 174.2l192.4-1.5 6.2 606.4 34-810" />
      <path fill="#72d7e3" d="M89.7 289l66 23.8 63-133.2-2.2 136.4" />
      <path fill="#232323" d="M923 460.7l-14.8-32.3 1.3-89 4.7-141" />
      <path fill="#fff" d="M802.8 7l-280-38-90.3 39.5 173.8 3" />
      <path fill="#beb96a" d="M384 254.3l21 21.4-39 18.6-91.3-38" />
      <path fill="#272727" d="M810.8 110l-.5 135.8L790 103.6l19-38.8" />
      <path d="M477 27.5l-6 274.3-9.2-43.6-7.2-208" />
      <path fill="#aeb4d9" d="M188.2 131.2l15.5-26-174.3-8.6-60.4 35.8" />
      <path fill="#fff" d="M1055 104l-39.3-128.6-1 462.5 2 327" />
      <path fill="#bdbebe" d="M917.5 504.8l9.7 109 18.4-144.6-22.8-168" />
      <path fill="#c7c7c8" d="M575.4 183.3l8 280.7 25-261.2 66.8-4.2" />
      <path fill="#2a2c2c" d="M447.8 354l-6 230 29-5 3.8-68" />
      <path fill="#4b5046" d="M246.3 17.3l1.6 2.5 90 9.4-79 4" />
      <path fill="#000402" d="M875.8 344.3l4-67.4L743 365l16-54" />
      <path fill="#b0e281" d="M174.6 474l-33.6 8-42.4-72 88.5 30.6" />
      <path fill="#c4c3c4" d="M663.6 183l10.8 19.5-41 401.2-4.6-365" />
      <path fill="#7d7163" d="M496.3 715.7l97.5-7 90.4 9.8-186.3 2.3" />
      <path fill="#040404" d="M873 454.4L791.5 502l3 32.5 92-111" />
      <path fill="#8c815d" d="M901.6 695.3l35 19.3 6.4 6.3-78.2-1" />
      <path fill="#eb9ecb" d="M211.2-28.5l8.5 160L176.3 38 85 65.3" />
      <path d="M838 29.3l6.6-1-.6 258L830 42" />
      <path fill="#a00" d="M750.4 636.3l.8 62 5 .2 1.4-96" />
      <path fill="#19191a" d="M718.3 268.8l12.5 29-7.2 79-6.5-13.6" />
      <path d="M705 582l-5.8-7 1-56.4 14.7 10.2" />
      <path fill="#cbcccc" d="M690.4 297l-3.8 372.2 13.6-220.5-2.5-261.8" />
      <path fill="#363636" d="M988 558l-30.3-207.7-.7 230.5 59 .3" />
      <path d="M703.5 200.5l6.4-175-11 5.8 1 137" />
      <path fill="#e8e9ea" d="M848.2 131.3l2.6 96.3-4.4 41.4-1.8-93.2" />
      <path fill="#6e6f70" d="M237.2 655l2.7 74.7 5-84-6-36.8" />
      <path fill="#a2a5a1" d="M1012.5 561.2l-31-48.5-1.2-442 35.5-45.2" />
      <path fill="#b4b1b4" d="M795.8 565.6l-25.3-79 1-113.8.3-232.3" />
      <path fill="#ef9b83" d="M218 720l-3.8-23-110-22.6 61.6 44.8" />
      <path fill="#c3c4c4" d="M570.5 532.6l30.2 107.6 5.7-296-17.6-351" />
      <path fill="#84c0d4" d="M152.2 321.8l-35.2-78 4.7-78.8-32.3 64.6" />
      <path fill="#cdcec9" d="M863.8 16.7l65 67.6L959.5 3l87.4 31.7" />
      <path d="M844.6 457l-1.4 133.7-18.6-94.7-8-8.7" />
      <path fill="#a98e4d" d="M298 656l1.5 54.3 92 11-114.5-2.7" />
      <path fill="#88d8dd" d="M230.8 158l55 28L277 17l-21.3 114.3" />
      <path fill="#fff" d="M421 258.2L456 666l-94 53.6 4-406.5" />
      <path fill="#b7b7b7" d="M883 459.8l-29.8 22 52-14.4 1-143" />
      <path fill="#fff" d="M1055 60.8l-29.2-52-352.6.8 253-40.6M422.7 22.3L581.4-31-31 11l213.6 12" />
      <path fill="#010101" d="M547.4 189.3l54.6-14.6-57-9.3 10 20.5" />
      <path fill="#302f31" d="M691.8 288.4l-12-73-2.3 181.7 13-115" />
      <path fill="#67cfb5" d="M212.7 381L101 372.2l1.5 36L215 353" />
      <path fill="#434443" d="M758.8 406.7l-7 51 27.5-19-18.6-115.3" />
      <path fill="#373737" d="M676 72.5l13.4 80.5-38 18.8 34.7 30" />
      <path fill="#3a393a" d="M920.5 159.8l-9.4 12.4-3 170.8 13-17" />
      <path fill="#fff" d="M-11.3 781.5L113 793.3 79.7 666.6-.5 35.4" />
      <path fill="#9a9da5" d="M810.7 331.2l-.5-172.2 13-19.8L828 336" />
      <path fill="#050000" d="M754 343.5l85.2-1.7-37.4-9.6-18.4-21.3" />
      <path fill="#0c0c0c" d="M870.3 553l-4.8-145.6.5 158.4 99.6 1" />
      <path d="M599.4 227.8l18-29.3 19.3 19.7-21.5 14.8" />
      <path fill="#6b6c6d" d="M672.7 608.8l-123-7.2 3.5 8.4 33.4-1.5" />
      <path fill="#fff" d="M428.2 65.4l8.5 226.7L278 171l10.7-107.8" />
      <path d="M455.4 584l21-148.6 5 47L463 320.2" />
      <path fill="#fff" d="M188 771.6L238.7 656 105 620l248 170.6" />
      <path d="M787.6 340l6.5-54 38-23.4-53 3.8" />
      <path fill="#4b95d4" d="M165.3 201.8L95 235.2l81.3-48.5-50.7-19.2" />
      <path fill="#c4c0ba" d="M779 342.8L790 9.5l-118 13 95.3 9" />
      <path fill="#afafaf" d="M875 545.2l180 9-95.3-12.5-74.5-32" />
      <path fill="#bc0000" d="M578 625l1 28 3.8 71.2 5.5-124.5" />
      <path fill="#212222" d="M556 34.4L553 96l-60.8 20.2 75.3-6.8" />
      <path fill="#020202" d="M701 294l9.2 217-10.2 6.4-.8-84" />
      <path fill="#fff" d="M274 676.8l302.7 25-53.2-118.5-247.5-.7" />
      <path fill="#fff" d="M305.5 630.3L125.7 431.7l52 20.6 135-191.2" />
      <path fill="#fba872" d="M208.3 525l21 73-14.2-49.5-121 19.2" />
      <path fill="#5f5f60" d="M618.8 233.7l11.5 230.8L616 580.2l-3-306.6" />
      <path fill="#ff9e93" d="M339.4 519.3l-24 77.2-5-64 2-286.4" />
      <path fill="#fff" d="M348.6 341.5l88.7 121-3-199.7-148.8 80.8" />
      <path fill="#e5af84" d="M124.7 770.2l14.8-56.6-41.2 51 17.4-93.8" />
      <path fill="#83c33b" d="M106 403.5l21.5 43-47.6-32 73 26" />
      <path fill="#b1b1b1" d="M583 298.4l-2.6-139-81.6-48.8 110.2 7" />
      <path fill="#73b0e1" d="M256.3 304.4L287 339l-66.7-1.2 52.3-16" />
      <path fill="#606161" d="M755.3 204.8l25-25-18.7-69.3-13.4 44" />
      <path fill="#181818" d="M649.2 557.7l17.4-2.4-8 19.5-19.8-16" />
      <path fill="#daee85" d="M355.6 601.8L342.2 435l3-205.4 21.3 193.8" />
      <path fill="#fff" d="M657.8 742l203.5 2.2L1055 759l-462.6 40" />
      <path fill="#050505" d="M660.6 143l30-2.7-8.2-48-.2 34.5" />
      <path fill="#b7b7b7" d="M690.2 72.2l11.2 106.3-9 87.8-7.4-50.5" />
      <path d="M469.8 188.2l-.2 187.7-10.6 34 1.5-346" />
      <path fill="#b0aeb0" d="M560 433.5l261 2.2 18.3-24.4-91.8 22" />
      <path fill="#6c6d6e" d="M626.7 749.5l28.7 4.8-80.5 3-2-5.3" />
      <path fill="#fff" d="M755.5 699l3.7-104.7 209.2-9-87 130.7" />
      <path fill="#212121" d="M955 26.5L975.3 38l.5 27.5-21 69.4" />
      <path fill="#fff" d="M-31 150.6l200.7 39.8-55.2 27.4 5.6-80.4" />
      <path fill="#464646" d="M478 108L488-.8l3.2 173.4-3 136" />
      <path fill="#fff" d="M285.4 251.4l80.2-38.6-230.2 140 203.2-57" />
      <path fill="#fffe79" d="M92.7 517l50.3-44.6-8.8-15.2-57 31.5" />
      <path fill="#fff" d="M739.3 706l5.5-99.4-170.5 3 90.3 104.8" />
      <path fill="#9e9e9f" d="M710.3 322V215l106 37.7-116 24.6" />
      <path fill="#f5f7f6" d="M846.7 481.2l-2 80.8 4.2 31-1-137" />
      <path fill="#050505" d="M718.5 98.2l1 8-17.5 12.5 33-2.4" />
      <path d="M841 419.5l5.6-90.4-18.3 29-4.8 6" />
      <path fill="#7398b7" d="M281 181.6l1.8 6.3-83.8-1-68.8-5" />
      <path fill="#151515" d="M733.5 174L712 163.4l-10.4 124-3-90.3" />
      <path fill="#a3a0a0" d="M831 418.4l-67.7-41 46.4-35-40.3.6" />
      <path fill="#81a2d2" d="M101.6 53.4l33.6 50.5H-30l126.8 6" />
      <path fill="#090909" d="M560.7 468.2l-12.4 9 8 75.2 4 16.3m228.2-395.2l6-8.8L814 170l-23.3 19" />
      <path fill="#b7b7b5" d="M257.2 699.2l-6.5-88.8 17.6 7.8 3 128" />
      <path fill="#707070" d="M471.5 521.8L469.3 420 503 285.3l4 280.5" />
      <path fill="#fff" d="M346 606.4l-8.6-32.2.5-86.2 2-217.5" />
      <path fill="#adaeae" d="M511.4 497.3l66-39.4-71.8-23 58.4 72" />
      <path fill="#fff" d="M140.8-13.4L-28.2-31-2 115.2l123.6-70M243 698.7L76.8 654.2 98 677l59.7-127.5" />
      <path fill="#7d7c6a" d="M485.5 702.8l-30 17.6 63.8-1.8-18.7-.3" />
      <path fill="#0e0e0e" d="M871.6 436.8l-28.7 39 33-3.8 14-39" />
      <path fill="#cbcdcb" d="M693-31l-2 161.2 39.8-3.7-30 13.3" />
      <path fill="#fff" d="M1026 647l-96 98-498.7 19 593.4 35.2" />
      <path fill="#fb916c" d="M288.3 317.8l65-16.6-53-2.4 49.2 27" />
      <path fill="#fff" d="M100.4 514l311.5 7-105 4.3L142 475" />
      <path fill="#da3b03" d="M982.6 656.8l-5.2 28-9.7-31 86 9.6" />
      <path fill="#c4c4c2" d="M841 344l9-3-2.4 101.7-3.7-98" />
      <path fill="#030101" d="M816.5 417.2l-6.8 17-25-29 23.3 1.2" />
      <path fill="#fff" d="M254.7 742.2l320 1.8-417.2 55-33.3-90.4" />
      <path d="M847.5 313.5l32 30-4-54.8-75.5 23" />
      <path fill="#fff" d="M135 340.5l-148 42L197.3 268l-45-59.4" />
      <path fill="#c28c7e" d="M848.7 293l-8.3-25.6-20.3 19-103 3.4" />
      <path fill="#646464" d="M892.7 116l82.6-46.3-25.8-9.8-6.5 52" />
      <path fill="#fff" d="M220.5 148.3l-7.5 235 63.2-177.7-223-105" />
      <path fill="#9b9a8c" d="M852.4 33.5l9.8-10-210-11.2 258-1.5" />
      <path fill="#535353" d="M1023.2 509.2l-236.5 6.3 10.6-48.2 46.5 37" />
      <path fill="#eb5832" d="M82 606l5.2 71-10.5-5.4 21-72.6" />
      <path fill="#829ac8" d="M52.6 124l71 7.5 25.2-10.6-32.8 22" />
      <path d="M877 275.6l-99 7.3 51 2 51.2-7" />
      <path fill="#39dcce" d="M344.2 254.7h43.3l-9.2 13.6-35.7-10.7" />
      <path fill="#aea306" d="M354.6 276.3l-17.8-3.5 54-2 24.8 6" />
      <path fill="#60b1e2" d="M178 205.3l46.5 17.6-47-39 29.5-9" />
      <path fill="#77b1e5" d="M258.3 248.3l34 12.4-60.3 6.5 1 1.7" />
      <path fill="#fff" d="M566.5 9l-51.3.2L49.7-31l996 40.6" />
      <path fill="#c9cecd" d="M927.7 552.7l-22.2 30 57.7 37.5-2.4 110.4" />
      <path fill="#01020a" d="M858.2 301.2l-72.4-3.7 21-25L753 285" />
      <path fill="#0e0f10" d="M872.5 107l-9.8 49.3 23 17.5-24.3 37.6" />
      <path d="M796 97.2l-8.7 19 54.3.3-21.2 1.6" />
      <path fill="#f88d3f" d="M127.5 521.2L230 533.5l-77.6 1.5-40.8-32.5" />
      <path fill="#f9ffff" d="M1000 581.8L609.5 593l412.8 51.6L984 518.4" />
      <path fill="#b2b5b4" d="M503 588.2l-64.8-32L497 559l59-27.4" />
      <path d="M845.4 239.5l-.7 34.5-12-31.8 10-140.7" />
      <path fill="#5ecccf" d="M818.6 321l-33.7-5 32-15.4-32 .8" />
      <path d="M845.8 461.7l-9.3-30.2-42.8 14.3L807 434" />
      <path fill="#51c6a9" d="M151.7 363.8l-23-20.6 82.2 19-5-8.8" />
      <path fill="#73b929" d="M148.8 477l30.2-10.6-3-22.3-8 19" />
      <path fill="#fff" d="M-31 592.8l171.8-70-.7 35.3-158-149" />
      <path fill="#9f9f9f" d="M847 278.3l4.7-51.7 170.8 11H845.7" />
      <path fill="#949995" d="M1015.7 576.8L1010 354l-15.5 240-2.6-12.5" />
      <path fill="#fff" d="M131 105.5l64.6-4L164.8 37l-41.5 20" />
      <path fill="#fafbfc" d="M332.7 714l55.5-.8 194.3-132.8-321.7 23.4" />
      <path fill="#b9b8b9" d="M920.8 241.3l1-202.3 33 201.4-31 75.7" />
      <path fill="#dd997e" d="M197 701.8l-26.3 25-11-27-33 34" />
      <path fill="#969797" d="M1023.3 18.7L848 122.7l-1.8-37 29 10" />
      <path fill="#525353" d="M462 116.6l-13.3-74-4 63.6.8 119.3" />
      <path fill="#808283" d="M655 601.5l-71.7 3-10 2.6 105-1" />
      <path fill="#fff" d="M123.8 393L264 366l39.4 157-179.8-118" />
      <path fill="#bdbdbd" d="M665.7 488l-34.5 105 1.4-105 28.8-166.6" />
      <path fill="#111211" d="M914.8 159.3l-9 26.5 71 2.5-54.8-2" />
      <path fill="#ea572e" d="M99 657l20.3 28.2 8.6.7-34-42" />
      <path fill="#f7ffff" d="M360 261l57.8 6-63.7 4-57-3.6" />
      <path fill="#1f201f" d="M553 214l28 17.4-17.8.8-9.4 19.6" />
      <path fill="#a20000" d="M755.7 626.4l-4.4-40.3-1.6 115 6.3 21" />
      <path fill="#373837" d="M1014.7 318.7l-102.3-3 59.5 12 33-12.7" />
      <path fill="#fff" d="M348 87l-238 70.3 164.5 6-127 18.4" />
      <path fill="#afafae" d="M909 404.2l-28.6 23 2-307.6 27.8 230" />
      <path fill="#70a4d5" d="M113.5 198.7L138 216l-33 27.5L94.6 227" />
      <path fill="#f27daf" d="M220.5 34.3L178.8 14 116 46l57-43.5" />
      <path fill="#cba6cc" d="M187 54.6l28.3 78-87-8.2 63.3-19" />
      <path fill="#abe1ce" d="M71 366.2l56.3-22.6L87.5 434l33-46.3" />
      <path fill="#555455" d="M572 276l-34 7.6L572.8 411l-15.3-1" />
      <path fill="#111012" d="M792.3 376.5l-33.2-41-8 29.5 63-4.5" />
      <path fill="#b9bab9" d="M732.5 379.8L745 514l5.3-15.7-2-134.5" />
      <path fill="#fff" d="M1.6 93L54 402.4l80.6 49.4-165.6 114" />
      <path fill="#b6b6b6" d="M777.8 117.5l40.6-.6-4.4 46 23-37" />
      <path fill="#fffbe4" d="M771 728.3L480 721l374.4.2 42-.2" />
      <path fill="#5d5e5f" d="M444.3 498.5l13-286.3L446 191l-.5 120.7" />
      <path fill="#bab8b7" d="M824.3 82.2l12 10.7-26.3 11 11-134" />
      <path fill="#6fa4d3" d="M27.4 181.8l111.8-1.5-123.2 14L62.8 215" />
      <path fill="#9e9e9e" d="M706.7 482.2l5.8-35.7L838 376.8l-63.8 29" />
      <path fill="#fff" d="M-31 146.4l181.3-25.7-41-22-25.6 63.8m55.6 586l59-48-67.4.7 106 31.4" />
      <path fill="#080808" d="M729.2 410.8l-32 25.6 13 5.3 2-41.5" />
      <path fill="#9f9f9f" d="M733.2 336.3L774 330l-36 24-30.4 6.2" />
      <path fill="#fff" d="M366.5 612.5l55.3-118.7-180.7-.3 124-6.8" />
      <path fill="#7c8791" d="M1004 638.2l-3.3-1-7.8 7.8-38-4" />
      <path fill="#86d4c5" d="M160.3 315.5L124 284.8l77.3-1.7-80.8 17" />
      <path fill="#fff" d="M176.5 357.3L235.3 623 297 427.4 156 366m144-87l82 1-157.3 32.3 8.4-57.8" />
      <path fill="#48d19a" d="M232.2 150.2l-1.3 6 32 6.7 27-9" />
      <path fill="#dcd3e4" d="M782.8 70.3l2.6 193 43.5-13-52 13.5" />
      <path fill="#abc1b6" d="M320.7 239.4l-26.2-2.7 46.4-21-58-4.7" />
      <path fill="#fff" d="M302 414.6L436.5 431l-132 2.6L443.2 411" />
      <path fill="#040404" d="M455 532.4l15.3-131.2-.4 173.2-5 18.3" />
      <path fill="#b0b1b1" d="M965 566.3l2.5-268.2 2.5 263-29 228" />
      <path fill="#fff" d="M352.3 715.6L381.5 353 236 320l193.4 8.3" />
      <path fill="#767677" d="M631.6 43.3l-9-18.5-16.5 12 25 138" />
      <path fill="#cf1000" d="M589 694l-.5 22.5-7-67.8-3.3 81" />
      <path fill="#f2ffff" d="M840 599.4L692.8 585l-405.3-5.5 302.4 22" />
      <path d="M956 329.8l6.7-66.6 2 24.4-2 94.8" />
      <path fill="#2b2c2d" d="M865 94l3.5-63.4 16.2 31.8-18.5 126" />
      <path fill="#b1b0b1" d="M760.2 323.8l-18-173.6L731 328.6l53.2-25.4" />
      <path fill="#a5a4a5" d="M965 339.8l3.8 109.5-1-295.2-2 80" />
      <path fill="#fff" d="M-31 211.8L86.5 209l36 176.2 20.4-4.7" />
      <path fill="#94958d" d="M433.6 719l-55 1 24-19.5 33 22.2" />
      <path fill="#fbfdfd" d="M465 235l101.6-.7L360 231l-115.3 22.8" />
      <path fill="#fff" d="M93 98.5L-31 107V-21.2L117.7-31" />
      <path fill="#989da4" d="M522.3 732.4l-255.7 11.8L271 725l-2 4" />
      <path fill="#262727" d="M950.2 529l30.3-38-11.4 95 29-17.4" />
      <path fill="#d2cfd8" d="M776.5 547.5l21 28-11 27-2-214" />
      <path fill="#fff" d="M440.3 12.6L637.5.8l-450-14.3 251.8 66" />
      <path fill="#242424" d="M907.7 497.3l6 7.2 2.7-17L886 485" />
      <path fill="#94c2f0" d="M293.2 23.6l-50 72.8 38.3-3.5-33-42" />
      <path fill="#ababab" d="M895.2 482.2l34.5 56-60-55.2 138.7 1.6" />
      <path fill="#535353" d="M501.3 162.2l5.8 46.6-8 69 2-137" />
      <path fill="#a9aaaa" d="M505.6 444.8l.3-342.5 36 286 25 40" />
      <path fill="#867e6e" d="M925.3 720l-264-2.7 35.3-6 258.2 8" />
      <path fill="#6f6f71" d="M863 428.2l2.7-52-3-31.2-17 34.5" />
      <path fill="#3d3c3d" d="M672.5 272.3l11 220.5.5-239 13.5 11.6" />
      <path fill="#fff" d="M255 743.5l-3.8-42.2-202 97.7 575.6-53" />
      <path fill="#797979" d="M583.5 218.2L556 259l76.8-30.6-4 54" />
      <path fill="#9397a0" d="M693 729.3L954 741l-174-.5-184.2.7" />
      <path fill="#fff" d="M-31 779.7L72 799l42.8-78-135.2-186.7m454-66.5l-181.3-7.3 155.6-5 10 269.8" />
      <path fill="#b8b8b9" d="M628 118l19 49.8 33.4-2-44-99" />
    </g>
    <g class="SVG--1">
      <path fill="#2c2c2c" d="M919.8 475.4l-15-67.2 1.3-5.5 14-21.4" />
      <path fill="#bfc0bf" d="M575.4 9.3l30.7 10-4 135-25 14.4" />
      <path fill="#fff" d="M1016.3 130.4L1026.5-12l-2.2 806.4-8.7-247" />
      <path fill="#060707" d="M705 544.3l5.4 15.5L698 590l5.6-242.4" />
      <path fill="#fff" d="M170.5 551.4l-12-67-50.4 16.8 83 40.5m53 119l-140-36.4 1 25.6 52 46" />
      <path fill="#e39f45" d="M366 556.3l-3.6 5.5-61.8-.4 38-8" />
      <path d="M844 445.7l-6.8 11-3 117 11 15" />
      <path fill="#363637" d="M643.6 70.3l20.4-7.6-2.5-1.6-14.5-1" />
      <path fill="#070504" d="M855.3 271l12.3 119.4L878.4 266l-73.6-1.3" />
      <path fill="#0e120d" d="M696.2 336l76.6-13 55-2.7 72-1" />
      <path fill="#bababb" d="M819.8 445.5L807.3 467l-41 .4 68 5" />
      <path fill="#acb4b2" d="M809.4 586.4L823 484l2.6 107.6 41.4-14" />
      <path d="M833.3 46.4L844 167l-1-135.4-11.7-5" />
      <path fill="#e4e7de" d="M997.5 303.6L996.3 34 994 273l1.7 70.7" />
      <path fill="#b1b1b1" d="M575.3 189.3l-57.6-6.3-6.2 23.6 123.8-.7" />
      <path fill="#202021" d="M877.8 480.4l-11.6-100.8 4.6 95 89.8-5" />
      <path fill="#3d3d3d" d="M626.3 216.4L603 175l-53.2-7 72.8-1.6" />
      <path fill="#060506" d="M724.4 276.6l5.8 39.3-18.7-11 20.5-21" />
      <path fill="#eea66e" d="M317 565.2l56.6 11.6-63 4 6-52.4" />
      <path fill="#e6e1d0" d="M1001.4 24l-121.6 3.5-69-1.7-8.5-10" />
      <path fill="#191919" d="M553.5 119.7l7-78.3-11 46.6 28.8 20.3" />
      <path fill="silver" d="M473.7 350.8l5.3 147.8-1-166.5 1-111" />
      <path fill="#59cadc" d="M199.7 193l-5 107.7 6.8 14.7L188 248" />
      <path fill="#a7a8a7" d="M756 437.8L747.3 574l-40.5-70 5.5 61.6" />
      <path fill="#505151" d="M536.5 130.6l19.7 12.3H525l17-18" />
      <path fill="#b0110e" d="M750.4 608.5l-2.4 60.7 8-14.5-3.3-31.8" />
      <path fill="#212121" d="M733 508.5l-9.3 11.8-15.3-14.2-12.7-4" />
      <path fill="#6d6d6d" d="M712 275l9 92.2 32.3-16-48 70.5" />
      <path fill="#ba9a4f" d="M308 719.5l-13.7-38.2-34.2 40.2v-2.7" />
      <path fill="#fff" d="M443.4-31l-12 299-103.7-31.4 25.7-102m-95.7-4L218.3-31l.6 167.3h92m-324-31l-7 266.3 132 37-15 13.8" />
      <path fill="#3abcd5" d="M208.7 287.5l3.8 32 2.4-99-3-27.5" />
      <path fill="#a7a7a7" d="M807.7 406.7L832 375l-23-9.6 33 54" />
      <path fill="#fff" d="M260.5 512l159.6-7.4-142-2.4-133 97.5" />
      <path d="M815 171.5l27.7 12.3-6.2-170.5-.6 153" />
      <path fill="#949996" d="M992.5 10.3v10.5l-165.8-4 117-8.2" />
      <path fill="#090909" d="M560 568.5l-1 13-4-.8v-115" />
      <path fill="#7b7e74" d="M301.7 32.4l45-5.8-42.3-3-63.4.5" />
      <path fill="#adb1af" d="M922.2 568l-38.8 5.6 38.3 14.6 61-25.7" />
      <path fill="#91abd4" d="M115.8 45.7l-21.3 21 35-21.5-13.3 61.8" />
      <path fill="#191719" d="M776.8 436.3l-34.8 2 20.8 4 78.7-5.3" />
      <path fill="#28cb8c" d="M247.2 142.3L277 136l4.8 8.2-25.3 1.3" />
      <path fill="#b2afac" d="M592 8.5l-125.3 66 95 3-57-66.7" />
      <path fill="#fff" d="M282 158.7L171.8 164l202.6 81.6-156-44.3" />
      <path fill="#ff6045" d="M298.5 264.6L293 256l25.6-1.7 21 2.2" />
      <path fill="#7a9cc8" d="M48.3 127.6l54.2-1.5L3 117l24.5 14" />
      <path fill="#94cc62" d="M146.3 429.8l-12 33-9.7-24.2 65-6" />
      <path fill="#686868" d="M569.7 477.6l-105.3 93 89-92.4 24 78" />
      <path fill="#a58e61" d="M744 701l37.6 5.4-4-18 28.3 27.4" />
      <path fill="#fff" d="M987.7 8.4L681 7l331.4-38L1055 76.2" />
      <path fill="#939393" d="M872.6 74l-2.8 14 31.3 28.5L929 31" />
      <path fill="#fff" d="M397.2 534l-42.5 6-72-2.4-17-5.4" />
      <path fill="#1d1d1d" d="M514.6 96.2L463 74l-11 14.6 39.2-13.3" />
      <path d="M804.4 362l34 11.6 3 148 1.5-160" />
      <path fill="#202020" d="M863.3 582l65-25.3-58.7-1L871 511" />
      <path fill="#e5c8ff" d="M793.8 289.8l11.2.7 21.8-1.5-7.8-4.6" />
      <path fill="#fff" d="M104.6 331l82.6 23 69.7 1-66-50.4M163 440l-19.3.5-17 37 43-22.8m190-5.4l-3.7.5-93.2-4.5 156-4" />
      <path fill="#ffdead" d="M96 578l-16 1.4-3.7-28.3 42.7-22" />
      <path fill="#959a97" d="M510.6 19L425 13.8l39-4.3 281.4 3.2" />
      <path fill="#9d9c99" d="M834.8 270.3l-1-85.5-13.5 2.2-12.7 45" />
      <path fill="#d2cad7" d="M672.2 281.8l2.4-23.2-17 14.6-76 7" />
      <path fill="#a2a2a4" d="M712.2 76.4L707.8 31l90.3-1.4 9 35.8" />
      <path fill="#f1e6d5" d="M740.4 26.4L605 18l-239 2.6 168.6 6.8" />
      <path fill="#f67d00" d="M970 694.3l-1.7-17.3 5-17.4 10.3 23.7" />
      <path fill="#090600" d="M842.5 344l53.7-12.4-94.7 4.7-53 2.8" />
      <path fill="#c1bc21" d="M342.6 284.5l43.4 3.7-41.2 5.5-3.8-11.4" />
      <path fill="#c1c2c5" d="M419.6 55l-118.3-3-35 11.2 130.2-1.5" />
      <path fill="#2f83ca" d="M103 188.2l20-16 25.6.3-22.4 6.3" />
      <path fill="#d87262" d="M204 720.2l-34.7 1L206 693l-36-.2" />
      <path fill="#60c592" d="M160.4 383.2l-73.6 20.4 30.5-29.8 1 8.7" />
      <path fill="#ee5b39" d="M99 638l-3-8 10.5-35.8-6.2 65.5" />
      <path fill="#fff" d="M246.5 506.8l-146 35.2 41.4 11.3 52-139.7" />
      <path d="M956.2 548.6l7.6-238 1 105.7-.8 107" />
      <path fill="#9c9c9c" d="M847 523.2l59.3-48.4-46 50.4-15.3-74" />
      <path fill="#afadb1" d="M474 282l133 7.4-105.4 4.7 86.7-43" />
      <path fill="#cc8cba" d="M214 146.2l-8-122.8-82.6 18.3 92-17.3" />
      <path fill="#f27aad" d="M187.6 50.5L176-6.5l23 40-41-3.6" />
      <path fill="#414141" d="M686.6 453.7l-7.3 16.7-.2 85.6 4-16" />
      <path fill="#b2b1b2" d="M503.4 554.2l39-31.7 5 61.6L440 561" />
      <path fill="#4287c2" d="M56.6 208l-37.8-11.7 88 11.6-27.3-9" />
      <path fill="#ecefe9" d="M447 720.5l-186.4.3 112.7 10.7-30-6" />
      <path fill="#d2d3d2" d="M893 547l6 37.6-.2-72v-14.3" />
      <path fill="#fff" d="M122-31l385 58-252.7-5 5 33.6" />
      <path fill="#8cd8c6" d="M107.2 302.8l-.3-2.3-6-53.8 15 23" />
      <path fill="#010101" d="M568 164.2l12 17.8-15.6 6.7-10.5-19.4" />
      <path fill="#3ebc9b" d="M181.4 380.6L134 375l44.5-1.3 41.8-4" />
      <path fill="#464646" d="M943 94.3L910.7 111l34.3 3-16.3-24.6" />
      <path fill="#6a6a6a" d="M664.3 226.5l-8 45.5 36.6-46.7h23" />
      <path fill="#aeaeae" d="M539.6 571.4l72-37.7L543 538l60.5 19.5" />
      <path fill="#fcfcfc" d="M552.2 604l-18-12.5L266 575.8l181.6 156.8" />
      <path fill="#fff" d="M624 714.4l-36.7-123-.2 95 165-2" />
      <path fill="#898989" d="M969 198.2l1-54-2.6-38.4-2.8 57.2" />
      <path fill="#afadaf" d="M954.5 245.5l-2.2 70.2-71.2-80 35 13" />
      <path fill="#b2b3b1" d="M980.3 538l3.2 17.2 25 2.8-26-41.2" />
      <path fill="#040404" d="M963 70.5l2.4 43.8-1.3 27-9-35.8" />
      <path fill="#818181" d="M870.8 429.3l136-4.8-127.4-5.4 8.6-144" />
      <path fill="#c9c4cd" d="M770.3 412l24.8 15.2-13 21 2-113.2" />
      <path fill="#dc705f" d="M212.8 710.7l4.2 3.4-1.5-15-19.2-12" />
      <path fill="#fff" d="M190.3 278l-1.4-51.6-58-9-23 27.2" />
      <path fill="#f2e6c8" d="M824 31.6L653.2 19l86.4.6L848 19" />
      <path fill="#63cbd4" d="M153.5 290.6l45.3 4.3-49 23 51.2-42" />
      <path fill="#c7c7c7" d="M927.6 615l-2.4-147.3 2-165 2.3 62.6" />
      <path fill="#b2b3b2" d="M694 11.7l2.7 88.7-19.5-47-3.2 43" />
      <path fill="#323232" d="M705.5 481.5l-4.8 26.5 16-41.7 21 16.5" />
      <path fill="#161616" d="M964 549.2l-9.4 11.8 12.8 20.3-22.6-22.6" />
      <path fill="#fff" d="M157.2 375l105.5 102.4-148.4-69.6 34.8-23" />
      <path fill="#fffcf6" d="M91.3 646.5L88 669.8l83.8 40.4-38.8 2" />
      <path fill="#cdcdcd" d="M898 374.5L899.5 57l9.5 67-14-86" />
      <path fill="#fff" d="M256.6 135l-87.3 49.6-64.8-30L139 127" />
      <path fill="#a1a1a1" d="M792 506.8l34-8-11 10-28.7-25.3" />
      <path d="M808 472l-13.4 1-5.3 8h14" />
      <path fill="#ff8a72" d="M336 359.4l-24.6 9.3 15.2-32.5 9.8 227.2" />
      <path fill="#9e9f9e" d="M980 704.4l22.3-4-.5 10-24.5-3.2" />
      <path fill="#484748" d="M490.2 237.7l-9.7 8 7 212.5L491 243" />
      <path fill="#c8f4e7" d="M954 583.4l-200.5-.7 230.8 13.6-4.3-15" />
      <path fill="#fffefc" d="M128 187l13.8 17.7-88-17L-6.6 200" />
      <path fill="#010101" d="M457 89.3l-7.2 18.5 20.2 24V30.5" />
      <path fill="#959696" d="M491.6 91.2l70-2.6-19 17.6-52 7" />
      <path fill="#fff" d="M336.5 388l-94 2.7 109.5-10 57.4 11.7" />
      <path fill="#a8a7a5" d="M839.2 131l-12 .8-9.3 143.8-5-108.6" />
      <path fill="#9a9d9b" d="M918 44.8l89.8 4 7 85-14-73" />
      <path fill="#7bbd35" d="M180.2 453.4l-9.8-18.4-41.3 2.4 25-5.2" />
      <path fill="#545454" d="M849 445l2.5-131.7-20.3-2 36.4 72.5" />
      <path fill="#fff" d="M210 464.4l6-189.2 54.2 205.2 96-3.8" />
      <path fill="#ef8c4a" d="M303.3 314l75 3.8-76.4 5 4-10.3" />
      <path fill="#7db1dc" d="M285 325.7l-2.3 25-.3-11.8-59-8" />
      <path fill="#555556" d="M499.2 276.3l6.4-52.7-2 225-4-87" />
      <path fill="#fafffc" d="M272 397l84.5 9 106 10.4-92.8-19.3" />
      <path fill="#050505" d="M710 44.6l-8.5-17-2.6 71.7L710 89" />
      <path fill="#d8bf84" d="M1014.2 283.5l-60.4-3.6 6-2 64.7-4" />
      <path fill="#606060" d="M455.6 553.3L444 589l2.4-61 9.4-114.5" />
      <path fill="#fefefd" d="M218.3 718.4L199 799l10.8-98.3-45.2-1" />
      <path fill="#fff" d="M428 228.8l-57.6 122.8-152.7 5.4 155.7 2.5" />
      <path fill="#0f0f0e" d="M970.7 66.8l-20.2-.2 31-39L958 29" />
      <path fill="#fff" d="M947.4 784.4L937 592.8 911.7 697l142.7 56.4" />
      <path fill="#909190" d="M488 330.5l-53-11.2 163.3-8.6-68.7 29.6" />
      <path fill="#b1b1b1" d="M499.2 364l1.2-55-9.5 9 1 176.6" />
      <path fill="#bfb7c2" d="M501 277.6l71.4-4L513 285l-86.7-10" />
      <path fill="#b5b5b5" d="M627.8 192.8l54-5.7-30.8 56-8-207" />
      <path fill="#9ba39d" d="M824.3 736l118.3-12.4-9 16.3-29.6-3" />
      <path fill="#fff" d="M80.7 405l23.6-25L-31 367.7 76.2 756.5" />
      <path fill="#fffffd" d="M290 371.7l103 4.3-41.3-10.5L191.2 381" />
      <path fill="#fff" d="M345.8 563l-202.2 1.5-33.3-3.6-2.3 58" />
      <path fill="#979797" d="M712.2 411.4l-17.5 10L679 342l-31.6 12" />
      <path fill="#898989" d="M719.3 329l-20.5 15 7.8-14.8-2-14" />
      <path fill="#101010" d="M654 165.2l1.5 2.4 14 17 21.3-3.4" />
      <path fill="#3c3c3c" d="M689.8 124.5l-12-8.4-8 4-2.6-23" />
      <path fill="#171518" d="M572.3 285l-14.2-5-21 6 2 2" />
      <path fill="#fac47f" d="M76.8 499.5l92 32.7-52.8-28.7-9 18.2" />
      <path fill="#0a0405" d="M877.2 334.7l-29.8-34.4-78.6-7 110.5-.6" />
      <path fill="#494949" d="M705.8 353.7l21.7 25.7 39.8-18-35.8 6.7" />
      <path fill="#bb7322" d="M741.7 716.6l3.5-31.8L752 710l10.3 11" />
      <path fill="#a7a9a8" d="M981 126l.3 181L1014 27l-.8 172.3" />
      <path fill="#d7d36a" d="M368.2 362l-3.5-4.4-5.7 85.7-12-85" />
      <path fill="#b3b3b3" d="M480 482.5l-2.4 81.6-2-115 8.8 41" />
      <path fill="#969796" d="M709.6 156.6l27.7 81.5-34.7-60 38.8-30" />
      <path fill="#d7945e" d="M109.4 763.7l-7.6-11.7 34 11-2.4-2" />
      <path fill="#afafaf" d="M916.8 470L903 442.3l-42 44.5-6-14" />
      <path fill="#e8a654" d="M364.8 546.5l-47.4 1.8-11-9.6 63.4 1.7" />
      <path fill="#9a9d95" d="M1004.7 274.4l7.7-94.5 3.2 323-14-44" />
      <path fill="#fff" d="M833.5 606.7l221.5-6-366.4-11.4-37 27" />
      <path fill="#f5eef1" d="M284.7 293.7L320.4 89l-45-85.6 7.3 14.8" />
      <path d="M917.6 401l4.3 7-11 18.2-3-22" />
      <path fill="#fff" d="M395 554l-78.4 1-48-3 138-5.7" />
      <path fill="#f464a1" d="M142.2 50.2l-17 3.4L162 31.3l1 6.5" />
      <path fill="#1e1c1c" d="M810 340.5l-2.3 19.5-32.3 11.4 35-1.2" />
      <path fill="#c08994" d="M839 276l-40 4 11.5-6.8 51.4-3" />
      <path fill="#5b5b5b" d="M920.8 62l-11 101-.8-62.7 6-64" />
      <path fill="#fff" d="M108 222.6l38.5-18.3L142 186l-7.6-11.6" />
      <path fill="#9e9e9f" d="M805.6 128.5l-198-1.6 186.4 7 3 35" />
      <path fill="#a6aaa9" d="M431.5 25.8l49.4 35-7-15.6-13 8" />
      <path fill="#262726" d="M543.7 296.2l20.2-6.8-6 36.6-7-40.5" />
      <path fill="#adaead" d="M922.8 6l-2 73 85.7-9.8-78.4-3.4" />
      <path fill="#9884b9" d="M212.5 127.6l-78.2-8-24.8 21.5 35.7-14" />
      <path fill="#fafffd" d="M339.6 332.2l-167.8-27-90.2 120.5 109-101.4" />
      <path fill="#c0c1c1" d="M861 568l1.6-90 2.3 111.4 8 71" />
      <path fill="#fff" d="M157 346L32.3 315l356-2.3-74.7-5" />
      <path fill="#95ca53" d="M166.2 474.4l-40-12.8 30.3 19.4 29-36" />
      <path fill="#fff" d="M12.7 501.5L100 614.3 89.2 618l6-30.6" />
      <path fill="#222322" d="M995 561.2l-10.2 22.5-7.5-73.5-4 43.6" />
      <path fill="#282727" d="M788.6 508.7l23.7 33L809 515l27.3-6.7" />
      <path d="M957.8 237.2l6 17.3 1 72.4-3.5 92" />
      <path fill="#5a5a5a" d="M756.3 235.7l16.2 85.6-23 7.5 23.4-87" />
      <path fill="#636466" d="M862 94.3l-5.6 86.3-1 101 11-81" />
      <path fill="#fdfdfe" d="M579.4 665.7L520.6 716l-42-9.8 91.7-87" />
      <path fill="#fff" d="M133.8 49.4l61.6 16.8-101 40.5 16 27.2" />
      <path fill="#272727" d="M702.2 193.8l-2.8-110.5.4 105 46-13.7" />
      <path fill="#ee603c" d="M90 691l-3.3-13.4L120 696l-40.6-28.3" />
      <path fill="#919495" d="M862 127.2l-1.6-101.7 4 9.4 2.3-66" />
      <path fill="#77bcda" d="M192.6 243.3l29-49.6L167 223l27.4-35.8" />
      <path fill="#fff" d="M83.3 445.2L70 249.7l42-44.3-143 25.4" />
      <path fill="#83917a" d="M338.7 31.4l-31.5 1.2L320 22l16.7 1.6" />
      <path fill="#959e9c" d="M458.2 403.5l1.4 23.6-20.2-26 4 13" />
      <path fill="#fafeff" d="M433.2 339.5l-169.8 1 125.3-27.2 75.4 28" />
      <path fill="#060200" d="M834.5 248.8l1.8-220 5 250.3-7.6-47" />
      <path fill="#343434" d="M920.2 363.2l-7-3.7 4.6-155.2 3.3 86.3" />
      <path fill="#212121" d="M797 91l25.3 25.8h-38.8l4.7-20.3" />
      <path fill="#d3c6d3" d="M785 349.3L782.4 619 779 311l8.6 68.7" />
      <path fill="#fff" d="M395 67.4l-76.4 3-82.3 3.6-31.7-15.2" />
      <path fill="#87d0bb" d="M338.2 218.4l-4 9-45-7.4 2.3 3" />
      <path fill="#b2b4b3" d="M699.5 465.5l-14.5 90 3.2 37.3 10-32.2" />
      <path fill="#a5a5a5" d="M911 225l41-123.6 3.3 113.5-47.8-30" />
      <path d="M959 239.6l4.7-145.4L965 261l-2 26" />
      <path fill="#fff" d="M964.3 580.6l-6 67.8 4.8 119.3 7-124" />
      <path fill="#7d7d7d" d="M242.2 619.4L242 735l-3.8-94.2 4.4-38" />
      <path fill="#72abdd" d="M195.4 179l32.3 23.8-19.7-27.6-24 17.8" />
      <path fill="#a3a3a3" d="M711 436.4l66.4-14.6 69.4 9.4-135-4.2" />
      <path fill="#f9fafb" d="M243.2 582l1.3 121.3 21.5-10 3.4 104" />
      <path fill="#020202" d="M616 206.5l26 11.8-18.7 6-26.7-4.2" />
      <path fill="#040405" d="M840.6 100.2l-17 4-1.8 10 16.8 9.2" />
      <path fill="#6c7277" d="M332 712.5l65.7 6.8-65.3-1.3-8-7.6" />
      <path fill="#7c7c7c" d="M770.6 568l1.2-143.5-19.5 130 135.3 10" />
      <path fill="#fff" d="M163 548.6l-78.4 48 153 41-2 115.5" />
      <path fill="#c0bfbf" d="M944 721l18.4-92.8 7.3 4.2-25.2-23" />
      <path fill="#a9a9a9" d="M614.3 50.4l-52.3 114 34 8.7 17.3-13" />
      <path fill="#a1968e" d="M229.2 183.3l24.7 6 23-1.7-5-9" />
      <path fill="#7e7f7f" d="M748 198l12-170.2 19.5 81-2 8.3" />
      <path fill="#ac8cbd" d="M136.8 105.8H214l-77.7 10-26-25.6" />
      <path fill="#f18e3f" d="M175.6 554.3L218 547l-50 .5-5 5.6" />
      <path fill="#646464" d="M493 532l23.6-15.4-14.5-28 5 82" />
      <path fill="#40bd9a" d="M153 351.3l62.8 14-16 15 11-24.2" />
      <path fill="#524b4d" d="M282.3 33.4l-6.4-10-15 3.2-7 6.3" />
      <path fill="#030304" d="M469 276.4l-8-38.5-1.3 39 11.6 144" />
      <path fill="#57eeba" d="M808.4 312.5l25.2 5.4-38 1-10-1" />
      <path fill="#e5e6e6" d="M848.5 63L844-22l3.8 163.2 1-50.5" />
      <path fill="#b5b6b6" d="M540.8 203.2l-32-59.6 45.3-1.3v-32.6" />
      <path fill="#2b2a2c" d="M789.7 417l17-6.8-42.5 13-11.8-7.4" />
      <path fill="#fff" d="M568.8 799l5-57-68.4-.5-353 7.3M49.7 243.4l114 7.7 28.6-50 .4 39" />
      <path fill="#a5a8a8" d="M699.8 287.2l-17.8 1 3 4.4 80.7-3.3" />
      <path fill="#fffffc" d="M353.8 325l87.5-43.3-99.7-4.3 37.2 8.3" />
      <path fill="#a69260" d="M903.5 694.3l-9.3-4 2.2 33.6-.8-7" />
      <path fill="#b0aba7" d="M777.6 303.4l9.5-65 17 28-32-15" />
      <path fill="#f28a36" d="M171.4 521l-23.6 35-42.6.5 32.5 6.6" />
      <path fill="#7695c4" d="M115.8 134l-53.6-6.5 33.2-7.2 9.5 18.4" />
      <path fill="#62a1de" d="M249.6 71.3L252 81l31.7-3-4.3-4" />
      <path fill="#fff" d="M290.8 293.6L216.3 265l-9-29.3-14 13.4" />
      <path fill="#f8f7f9" d="M414 119.4L179 112l-210 3.3 229.3 6.7" />
      <path fill="#0f0e0e" d="M701.5 288.5l3.4-170-5 200.5 33-17" />
      <path fill="#f8f7f7" d="M565.7 619L275 618l76.2 98.7 31.4-1.6" />
      <path fill="#c5f5eb" d="M445 532.2l-1.3-195.4-11.4 245.8h11" />
      <path fill="#fffefe" d="M150.2 534L132 560l-30.5-74-19 12" />
      <path fill="#7dafd6" d="M23 205.8l40-28.4-42.5 5-1.8 14.5" />
      <path fill="#66a4db" d="M242.6 259.7l4.6-4 39.3.5L280 267" />
      <path fill="#fdffff" d="M367.2 140.7L226 148.5l112.3 6.6v148" />
      <path fill="#d20808" d="M753 715.5l4.4-32-3.5-37-5-47" />
      <path fill="#7a98c5" d="M73 109.4l21.5-3.4-54.2-3.6-57 9.3" />
      <path fill="#ff9164" d="M311.7 277l-6-8 50.8 1.2-49.2 11.5" />
      <path fill="#c5cdd1" d="M995.2 652.7l-31.4-19.3 28 31.5 36.8-9" />
      <path fill="#121212" d="M574.5 506.7l-24.5.5V542l9.2-23.5" />
      <path fill="#729dc8" d="M821 308.5l8.2-10-77.4 1.6 33-1" />
      <path fill="#9c9b9c" d="M819 494.4l16-.2-3 11.8-23.3 1" />
      <path fill="#110800" d="M874 264.3l-7.4 7.3-80.4-2.2 40-5.3" />
      <path fill="#111112" d="M864.7 428.6l2.7 17.7 19-15.8-110.7 13.2" />
      <path fill="#9f9f9f" d="M953.6 289.6l-13 202.7 23 19.3-9.2-24.2" />
      <path fill="#353434" d="M787.8 386.6l22.5-40.7-21.3 25 25 20" />
      <path fill="#191919" d="M701.5 398.7l17.5 26.8 8.3-7.4 5.6-8" />
      <path fill="#9f9fa0" d="M807 86.4l29-23.7-79 5.7 83.7 4.7" />
      <path fill="#a4aeb6" d="M365.3 41l-46.7-2-66.7 5.3 114 .2" />
      <path fill="#46ceb1" d="M381.5 255.2l10.5 8.6-52.8-2.2 41.2-9" />
      <path fill="#fff" d="M302.8 272.8l25.7-9.2-106.4.3 80 77" />
      <path fill="#7dc042" d="M82 408.2l8 19.4-1-17.5 22.7-28" />
      <path fill="#c00c00" d="M574.4 737.6l12.5-57.2-7-73.4-1 102.7" />
      <path fill="#ccc5cf" d="M564.6 277.2l-28.8-4.6 108.8 4-59.2 8.7" />
      <path fill="#c4f8e7" d="M437.8 442.5l5.5-28.4-1-427-7 267" />
      <path fill="#282828" d="M822 323.4l185.2-7-52 6.2h-56.6" />
      <path fill="#a3a3a3" d="M506.4 518.7l-19.5 28 7 5.3-4-95.8" />
      <path fill="#a3a4aa" d="M549 740.7l-77.7.5h-47l44.7-13.5" />
      <path fill="#ad9d89" d="M713 701.2l-10.5 2.7 23 26 2.7 12" />
      <path fill="#fff" d="M1033.3 527.7l-53 144.3 16.2-106.5 27 117.5" />
    </g>
    <g class="SVG--2">
      <path fill="#c3c3c3" d="M891.6 398.2l8-80.3-1.6 189-6-179" />
      <path fill="#080602" d="M805 257l4.5 9.8-28-4.6 4.2 57.5" />
      <path fill="#474747" d="M679 421.2l1 80.8 5.6-85.5-2.7-79" />
      <path fill="#fff" d="M-9.8 191.7l82.5-16.4 158-20-215.8-28" />
      <path fill="#c68168" d="M834.6 330.7l-30.8 3.2v-15l-7.6 1" />
      <path fill="#fff" d="M996.3 63.4L990.5-31l64.5 58.5-58-.6" />
      <path fill="#7a7e7f" d="M577.8 717.2l-31.6 3.6-148.3-2 21-1.2" />
      <path fill="#eae8d1" d="M570.8 732l79-9.7-57.3-3-143 3" />
      <path fill="#fff" d="M213.4 234l10.8-101.6-22.2 16 86.4 81.3" />
      <path fill="#919090" d="M810 402.7l11-43-36.5 18.6 53-6.5" />
      <path fill="#484848" d="M926.2 510.7l-67.8 1.3 76-9 33 17.5" />
      <path fill="#d08869" d="M154.7 701.7l-25-22.8-3.5 8 65.8 10" />
      <path fill="#bfc1c0" d="M739 481l.4 113-4-51.5V362.7" />
      <path d="M840.6 500l3 73.7-10.7-56.3-15-1.7" />
      <path fill="#181817" d="M461.2 580.6l34.5.5-42-3 6-48" />
      <path fill="#fff" d="M186.4 694.2L263 580.6 222.6 530l-87.8 151" />
      <path fill="#c41c05" d="M578.5 710.2l1.4-94.7 3 72.8 7 30.2" />
      <path fill="#4e4e4f" d="M445.4 239.3l-.2 119 7-139.3 21-65" />
      <path fill="#070705" d="M741 322.8l84.5-1.3-13 4-16.8 4.5" />
      <path fill="#616161" d="M658.4 607l-7 1.4-.4-5.6 13.7-3.3" />
      <path fill="#474646" d="M793.2 227.6l17 38.4-2.5-47.4-27 18.3" />
      <path fill="#ea4e27" d="M79.4 673.4h4.3L86 662l1.7-58" />
      <path fill="#fbfdfd" d="M437.8 117l-37.3 203.5 20-207.4 64.8 1" />
      <path fill="#d7cd4d" d="M786 30.4l-14-20-.7 6.6 14.4-10.5" />
      <path fill="#3d3d3d" d="M575.7 372.8l-10-2.6.4-15.2-30 17" />
      <path fill="#be9dd0" d="M262 240.7l8 1.6 41-6.4-52.2-4" />
      <path d="M964.6 95.2l-12-15.6-8.2 7.3H961" />
      <path fill="#b0b0b0" d="M881.6 460l1.8 50.8 30.5 48.6-33-27" />
      <path fill="#fff" d="M124 235.5l29.6-30.4 39.4 71-62.7 10" />
      <path fill="#1b1b1b" d="M537 446.3l15.7-3.2 13.3-4 4.4 8" />
      <path fill="#dba92e" d="M345.7 302.8l9.6-6.2 1.7 9-39.8 1" />
      <path d="M667.3 136.5l1.7-4.3 25 1.6-28 9" />
      <path fill="#5191ca" d="M164.5 221.3L147 188.7l27 30.4 12.2-10" />
      <path fill="#fff" d="M109.6-30L4.2 81.6l168.8-71 37.7 51" />
      <path fill="#f08a48" d="M316.5 343.6l-7 2.6 21 5.7 33.2-5" />
      <path fill="#909288" d="M650.2 716l-11.3-9 37 3-70 9.4" />
      <path fill="#b3b3b3" d="M980.2 334.3l16.8 136-.4-143-14.8 217.2" />
      <path fill="#89898a" d="M965.8 44.2l-.7 171.4 4 74.7 2-75" />
      <path fill="#ababab" d="M926.5 561.7l24.7-7.4-3.6-32-6-12" />
      <path fill="#0d0d0d" d="M903 171.8l15.2 15.6 1-27.4v11.7" />
      <path fill="#9b9b9b" d="M840.7 536.8l-53.7-11 10 56.2-102.3.8" />
      <path fill="#e38931" d="M368.7 466.3l-56-1.2 3.8 8 37.3-2" />
      <path fill="#bf9ce2" d="M804.8 270v1l10.5 9.4 14.7-4.2" />
      <path fill="#000c0e" d="M789 308.5l14.5-2.4 17.7 7-33.6-1" />
      <path fill="#fcfdfe" d="M848.4 565.8l-29 152-34.8-18.4 68 6" />
      <path fill="#0d0910" d="M687 259.3l-18.7 28 28.2-3.6-14.6-6" />
      <path fill="#909090" d="M556.4 179.2l-73 4.7-1-81-13.3 90" />
      <path fill="#2a2b2c" d="M872.5 64.7l-9.2-49 3 61 39-17" />
      <path fill="#666" d="M691 513l-23-29.4 1.8 63.2 2-21.7" />
      <path fill="#fff" d="M46 123.3l-34-3.5L94.3 86 30-14.7" />
      <path fill="#151516" d="M866.2 283L864 128l5 82.3 3.3 129" />
      <path fill="#aa91be" d="M208 132.3l12.8-15.2-11.2-33 .3 46" />
      <path fill="#a1a2a2" d="M680 517.7l-14.8-.2-5 64 19 .8" />
      <path fill="#fff" d="M369.6 396.2l59.2-204.8 4.7 215.5-164.4-6" />
      <path fill="#090909" d="M825.5 491.3l-29.6-1 36-7.2-2-15" />
      <path fill="#b1aeb0" d="M888.5 298.8l61.7-25.3-35.6 19-41.8-46.4" />
      <path fill="#6e6e6e" d="M735.5 577L733 384.6l-3.7 44.3.4 109" />
      <path fill="#fdffff" d="M376.3 409.6l-9 16 86-6.4L293 419" />
      <path fill="#b5b1ba" d="M964.8 279l-56.8-6.8 34.3 19.7-39-2" />
      <path fill="#fff" d="M387 364.6l-77.4 8 127 2.6-19.2 351.2" />
      <path fill="#bdbdbd" d="M848 197l3 68.8-4.7-12.2-1.7-23" />
      <path fill="#f29751" d="M160.8 537.7L112.3 506l46 22 14.2-2.3" />
      <path fill="#373737" d="M658 583l-14.4-27 11.3 1 5-36" />
      <path fill="#878787" d="M770 458.3l-.5 6.8-92.5 72 93-96" />
      <path fill="#606060" d="M910.3 419.3L921 573v-55l-.5-95.4" />
      <path d="M701.7 372.4l-.3 210h10L704 578" />
      <path fill="#fffffd" d="M284.6 476.3l118.7 4-52.7 15.4 26.6-24.6" />
      <path fill="#262626" d="M895 477.7l19.5-4-21.3-2.2-19.8 1" />
      <path fill="#b6b6b6" d="M956 127.7l-54.3-16.3-29.3 19.4 61-.3" />
      <path fill="#fff" d="M173 216.2l10.8-20.7-18-7.7-.8 19.5" />
      <path fill="#e2933f" d="M335.5 519l-24.4-4.6 11-4.6 47 3.2" />
      <path fill="#020101" d="M845.4 345.4L843 447l.4 3.3-8.7-114" />
      <path fill="#acacab" d="M535.8 582.6l-45.6-45-48-.4 89 15.5" />
      <path fill="#e9a959" d="M308.6 533.5l60.4-3 6.5-1.3-53-7" />
      <path fill="#6c6768" d="M299.2 234l9.2-.6 10.2.2-11.6 5.6" />
      <path fill="#212121" d="M448.2 42l42 3.8L449 28.3l41-1" />
      <path fill="#aeafae" d="M629 234.7l50.3-15.6-76.6 22-97-8" />
      <path fill="#7b7a7b" d="M631 310.2l-1 176.6-16.8-198 17.5-68.5" />
      <path fill="#fffefd" d="M343 556.2V365.5l-7 152.2 5.4 140.8" />
      <path fill="#82786b" d="M567.5 716.4l-13.6-17-2 18.3 116 2.3" />
      <path fill="#050505" d="M960.3 54.7l.5-13 1.6 21.6 32.4 3.7" />
      <path fill="#ec6948" d="M96.8 608.8l-8.3-7.8 8 .3 16.3 17" />
      <path fill="#ce9360" d="M158 709.3L147.6 725l-25.6 3 14.5-5" />
      <path fill="#c1f3e4" d="M559.4 590.2l201-1.3-188.4-7-126.3 4" />
      <path fill="#b9b9b9" d="M926.4 506.6l-46.4-2 2.2-2.5 62.8 2" />
      <path fill="#717071" d="M975.2 645.7l24-6.8h-15.7l-16 4" />
      <path fill="#4ec1a4" d="M147.8 352.8l13.2 3.7-12.7 19.3 25.6 6" />
      <path fill="#1a1a1a" d="M545 76.6l1.6-2.3-2.5 13 29-5" />
      <path fill="#cda1d1" d="M794 285l3 9 26.4-3 22.6-1" />
      <path fill="#fbfbfc" d="M628.8 599l27 90.7-18.6 27.7-44.5-15" />
      <path fill="#545454" d="M485.7 528l-1.6-24.4 3-233 6 182.2" />
      <path fill="#fffffc" d="M405 573.5L364.2 435l2.3 127.7-88 3" />
      <path fill="#feffff" d="M129 365.2l194.2-68 46.3-.4-84.6-19.6" />
      <path fill="#070300" d="M806 326l72.7.7 2-63.2-25 54" />
      <path fill="#070707" d="M471 306.8l-1.3 68.8.2 194-13-137" />
      <path fill="#fff" d="M171.4 459.3l-23 12.2-15-29.4 30-6" />
      <path fill="#a3a3a3" d="M565.8 382l-68-12.6L607 350.8l-78 3.5" />
      <path fill="#a3a3a4" d="M804.7 191.5l-16 41.3-5.6-46.5 48 2.5" />
      <path fill="#f2d19e" d="M688 731l88.5-4.5-79-2.3-97 .5" />
      <path fill="#d9b045" d="M363 489.5l-44.4-9.5 50 1.8-19 22.4" />
      <path fill="#b5a7ca" d="M213.6 52l-24.2 29.4 6-33 25.7 46" />
      <path fill="#809bc7" d="M110 82.5l-18 22.2-14.4-3 12 21" />
      <path fill="#6cc7a0" d="M104 420.3l13.7-46.8-40.8-.2 51 15.7" />
      <path fill="#fcfefe" d="M195.4 470l125.8-39-131-64.4 18-6.8" />
      <path fill="#d3cf5e" d="M339.3 422.8l30.2-18.3L342 406l34 22.7" />
      <path fill="#fafafa" d="M298.6 673.4L317 729l-47-392-.2 366.4" />
      <path fill="#0c0700" d="M827 282l2.2 34 6.4-72.5 9.2-14.2" />
      <path fill="#fefefb" d="M329 428l113 2.5-74 3.5-69-1" />
      <path fill="#fff" d="M193 60.7l-17.5-20-55.3 14 39.4 51.7" />
      <path fill="#949693" d="M656.5 9.5l74.2 9h134.7L869 13" />
      <path fill="#fff" d="M62.7 201.4L73 145l164.2.4-210.2 47" />
      <path fill="#fbffff" d="M210.5 186.7L-31 119.4l225.3 43.8L205 253" />
      <path fill="#fff" d="M368.3 381.2l-4 121.8 56-115-195.2 1.7" />
      <path fill="#3c3c3c" d="M803.3 519l4.7 62 3-17.8-1.2-168" />
      <path fill="#434242" d="M802 71l8.8 22.2-.2-31-2.6-41.8" />
      <path fill="#c8c833" d="M343.4 498l18.3-3.7 2.6 4.5-11 6.4" />
      <path fill="#70abe5" d="M283 51.2l-5 28 3.5-18.3-36.5-1" />
      <path fill="#151515" d="M802.3 186.5l-5.3 4.2-8.3-21.3 12.2-1.8" />
      <path fill="#d48358" d="M116.6 737.6l-5.4-64.4 4.3 4.6-10.7 9" />
      <path fill="#f6ffff" d="M206.2 28.3l-7.3 43 1 52.5 8-43.7" />
      <path fill="#669fcf" d="M63 191.8l41.6-10.6 21 52L93 176.6" />
      <path fill="#7e7d7e" d="M704.7 329l28.8-119.8L704 241l10-44.5" />
      <path fill="#b2b2b2" d="M881 557l27.2-43.5-5.5 40.5 49.4-.2" />
      <path fill="#ed5f3d" d="M119.2 684.3l-11-17.6L95.4 599l8 69.8" />
      <path fill="#bbc0bb" d="M480 26.5l2.5-57.5-5 94.6-9-94.6" />
      <path fill="#a9adac" d="M402 107.2l58 39.3-1-26.8-8.7 20.8" />
      <path fill="#100f11" d="M699.3 268.8l2-60.2 12 76.6h16" />
      <path fill="#abaaaa" d="M749 337l-17.4-8 2.4 30 14 9.4" />
      <path fill="#c1c2c0" d="M740.4 63.6l14.6-44-19.3 7 2 239" />
      <path fill="#5d9bd6" d="M188 190.7l19.6-8 63.7.8-127-1.5" />
      <path fill="#f9f462" d="M80 492l44-22-35.4 12 4.8 33" />
      <path fill="#bbb" d="M616.2 558.5L573 584l22.8-234.8 11 232" />
      <path fill="#c9c9c9" d="M509 510l-.8-195.4-1.6 200.2 27-56" />
      <path fill="#61cbdb" d="M219.7 256l-8.2 8.4 1.8 27.4-6-103.7" />
      <path fill="#999" d="M699 413.8l19-23 86 8.6-46.3-17" />
      <path fill="#e2d9e8" d="M780.7 63.2l1.4 134.2L784 54l-1-31.8" />
      <path fill="#84a2cc" d="M125 49l-5 57-4.8-48.6-20 2" />
      <path fill="#0a0a0a" d="M568.8 186.4L542.3 171l22 1.2-17.4 13.5" />
      <path fill="#535353" d="M559 239l74 8-65.8-.4-12.4-2.4" />
      <path fill="#0d0e0d" d="M916.6 290.4l5.4 5.3-2.2 11.6-16-7.3" />
      <path fill="#fff" d="M303.3 175l-87.5-.2 185.8 17L380 61.6M951 727V579.4l-8.6 217.3 112.6-107" />
      <path fill="#91949a" d="M604.5 737.7l36.7 3.7L661 732l-49-1.8" />
      <path fill="#222423" d="M887 543.3L862 557l11 36-9-54.8" />
      <path fill="#858586" d="M866.3 441.4l-169.6-14.6 165 12.6-28.3 36.8" />
      <path fill="#cf9668" d="M119 729.2l-10 14.2-10.8 6.2 22.2-31.5" />
      <path fill="#0d0d0d" d="M873.7 41.5l-7-6-2.7 39 2.6 19.2" />
      <path fill="#a8a8a8" d="M695 436.2l4 71.6-23.7-66.8-39.6 132.6" />
      <path fill="#f08f3f" d="M169.4 548l-18.7-5.4-5.3 11 23-2.8" />
      <path fill="#131111" d="M558.6 112.6l-1-106-2.4 97.5 30.8 8" />
      <path fill="#ed82b1" d="M155.6 16l-30.8 17.7 25-2L195-11" />
      <path fill="#6dd9af" d="M275 178.3l-15-12.8 22.7 10-.4-44" />
      <path fill="#c0c3c2" d="M748.6 579l.3-201.5-5 217.3-27-59" />
      <path fill="#aaafae" d="M457.6 471l-35-1.5 17 2.7 21.5-15" />
      <path fill="#ea9652" d="M315 384l51-5.8-32.7-5.6-24 3" />
      <path fill="#7e7e7e" d="M618.3 95.7l-3.6 48.6 15.4-127 2 208.3" />
      <path fill="#aaa" d="M864.8 91.3l88.2-.8L931.7 76l-14.4 2.8" />
      <path fill="#afafaf" d="M540.7 77l30.3-8.4 94.7-12-85.8 19" />
      <path fill="#cccbcc" d="M523.5 263l.3 27.5 68-.4-86.3-5" />
      <path fill="#e6db99" d="M454.8 279l-21 5.3 6 12.8-8.8-23" />
      <path fill="#bbbcbb" d="M649.7 29.6l47.7-5.2-67 3.5 2 134" />
      <path fill="#86c23c" d="M138.8 452l-33.4-30.2-13.3 6.8L81 413" />
      <path fill="#686867" d="M616.4 560.4l-2.6-16 1-353.4 8 351" />
      <path fill="#fff" d="M1034.4 32.3l-16.8 247.2L1016 427l6.2 152" />
      <path fill="#f1fcfc" d="M179.3 355.2v21L4 326.2 154 364" />
      <path fill="#a2ddd1" d="M118.7 365l-11-8.4 48.6-15L112 344" />
      <path fill="#c3c3c4" d="M788.6 234h133.8l-88.4.8-60.8 2" />
      <path fill="#fff" d="M132 678.8L264 557l-114.3-2.4-47 96.8M259 47.4l97-2.2-67.2 6-99 .2M35.5 203.7l49.3 534 34.4 37-150.4-4.2" />
      <path fill="#9c9f8d" d="M622.6 707.6l-1-2-21 4.7 22.8 8.2" />
      <path fill="#e99051" d="M365.3 408.3l-52.2-5 1 11 22-2" />
      <path fill="#fff" d="M189.7 716l71.2 65.5-115 9-17-55" />
      <path fill="#fbfcfd" d="M820.6 719l49-38.5-101.4 17-11.4-81.8" />
      <path fill="#fff" d="M143 691.6l-34.6-7.2 24 40.5 19-19m108.2 93l339.7-43-372.7-5 27-76" />
      <path fill="#eaa05d" d="M369.8 576.4l-7.5-8-54.2 11 5-11.5" />
      <path fill="#b5b5b5" d="M658 188.5l-50.7-1.6-44.4 3 107 1" />
      <path fill="#989899" d="M927.7 365.8l33-2.3L872 389l-1.3-16" />
      <path fill="#939494" d="M990 591.8l-10.2-29.6-85.2-50.6 48 6.8" />
      <path fill="#b8b8b8" d="M511 133l36 33.2 58-1.5-59-2.2" />
      <path fill="#fff" d="M492-31l-92 85.7L310.8 13l-169-9.7" />
      <path fill="#e99349" d="M371 426.3l-47.7.4-17-5 29-3.2" />
      <path fill="#030303" d="M705.8 170l-4-34.5-1.8 63 1.3 47" />
      <path fill="#babc9e" d="M583.3 695.2l11.6 5-23 52 16-24.6" />
      <path fill="#ffffe7" d="M748.6 659.8l-.2 36 .2 19.7-10.6-100" />
      <path fill="#535353" d="M848.3 387.8l28.6 40 40-4.2-61-6.5" />
      <path fill="#ddeec9" d="M125 425.6l-42-17 41.4 26.8L151 460" />
      <path fill="#434443" d="M684 346.8l-21-12.3 16.6-12 11.5-1.2" />
      <path fill="#fff" d="M123.6 418.2l31.8-40.8 97.4 32.7-109.3 22" />
      <path fill="#9b9e9b" d="M803 19L590.6 8 811 345.5 598 19.2" />
      <path fill="#101010" d="M551.3 231.8l22.4-2-28.4-5.8 16.6-8" />
      <path fill="#d1f6e4" d="M722.6 592.7L674.8 582l72.6.7 158.2 6.8" />
      <path d="M460.4 78.4l6.6 121.3 2.5-40.6 1-122" />
      <path fill="#f9fefd" d="M302 418l118 2-143-9.7L98.6 263.8" />
      <path fill="#a5a5a5" d="M488.2 452l-1-15.7 12.6 30-2.3-99.2" />
      <path fill="#9e9f9e" d="M855.3 583.2l18.7-.3 96-1-46.5-9" />
      <path fill="#ff6b4d" d="M308 263.6l25-1.3 3-7.2-31.3 7" />
      <path fill="#d09d70" d="M132.7 735.8L127 764l-2-34.5 27.2-13.2" />
      <path fill="#6c6c6c" d="M446 294.6L444.3 399l9 154 2.7-154.6" />
      <path fill="#abaaaa" d="M925.7 425.2l-34.5 5.2 59.4 4-32.6 52.2" />
      <path fill="#868686" d="M1004 591.6L965.5 541l1.3-42.4 7.8 54.5" />
      <path fill="#050404" d="M768.6 324.3l-1.7 44-20-17.5 43-28.3" />
      <path fill="#f9f9fa" d="M763 671.3l251.7-80-256.8 107-6 100.7" />
      <path fill="#8f8f8f" d="M700.7 178l8.5-6.5 2.7 67.8 18-38.2" />
      <path fill="#fffff8" d="M344.3 303.6l-4.7-63.4-3.6 106.6 4.5 84.4" />
      <path fill="#fff" d="M122 489.2l34 42.8 111.4-74.4L135 481.8" />
      <path fill="#b3b3b3" d="M699 160l-2.7-27.3-10.7 29.6 6.8 106.3" />
      <path fill="#6da3d2" d="M86.8 209.6l28.7-4.5-21.8 31 30.5-67" />
      <path d="M564.6 108.5l-6-13-10 9.8-2.5 7.2" />
      <path fill="#f8f9fe" d="M240.7 80.6l55.2 1.6-29 20 57-6.2" />
      <path fill="#d27f1f" d="M844.8 270l2 11-14.6 20 2.2-32" />
      <path fill="#959596" d="M777.3 394.7l87.6 19-2 4.3-40-5.4" />
      <path fill="#c395c0" d="M199.8 107l-6 2-3.8-33 2.4-52.4" />
      <path fill="#9e9e9f" d="M712.5 194.4l3.8 83.7 122.3-29-128 29" />
      <path fill="#7a7a7a" d="M636.6 32.4l-10.2-.6-19 120 2.4-125.2" />
      <path fill="#666" d="M503.6 336.6l-1.5-60.8-4 53 95 6.8" />
      <path fill="#2b2a29" d="M782.4 374.3l27-32-5.2 100.5 2-77.3" />
      <path fill="#999" d="M690.3 317.8l-45-37.2 28.7 33.7-134 11.2" />
      <path fill="#060606" d="M867.5 379.6l-3.5 10 5.7 75.8 7 1.4" />
      <path fill="#aaabab" d="M882.5 468.8l60-21-72-1.2L911 471" />
      <path fill="#5a5a5a" d="M505.2 178l-1.4-124.6L499 225l3.8-29" />
      <path fill="#fefff8" d="M363.3 503l-94.7 3.5 117 3.4-20.4 83" />
      <path fill="#747575" d="M542.6 582.6l4-115.7 4.4 116 24.8-7" />
      <path fill="#5d5d5d" d="M503.6 466l-4.2-42.7 1-111.4 5.4 98" />
      <path fill="#b7b7b7" d="M511.8 470.5l68.8-5-45-13-24.5-61.7" />
      <path fill="#b3b3b2" d="M594 342.3l-75 7 4.7-12h31" />
      <path fill="#e88537" d="M307 457l10.4-8.5 29.4 4 15.8 2.7" />
      <path fill="#747474" d="M771.2 140l-12.8 129 .6-146 12-88" />
      <path fill="#da8274" d="M214.4 709l-52 14.8 17-15 33.7 13.5" />
      <path fill="#ec9b62" d="M335 375l-13 14.6 54 5.2-73.3 3.4" />
    </g>
  </g>
</svg>