<svg version="1.1" viewBox="0 0 1024 768" width="1024" height="768" xmlns="http://www.w3.org/2000/svg">
  <path fill="#fff" d="M0 0h1024v768H0z" />
  <g fill-opacity=".5">
    <g class="SVG--0">
      <path fill="#572b2c" d="M423 162.2l259.6 225.4L548 607 296.5 371.6" />
      <path fill="#7e2b2e" d="M527.6 484l-15-160.8-8-169.5L373 314" />
      <path fill="#6c2124" d="M387.8 539.5l-5.2-191.7L410 112.4l27 415" />
      <path fill="#e6ebeb" d="M522.2 464l-47 51.5L867 556l28.5-150" />
      <path fill="#b8c2c2" d="M376.6 394.4L166 538.2l16-61.2 217.3-236" />
      <path fill="#fff" d="M490.6 313.5L431 332l43.5 151.5-58-36.2" />
      <path d="M752.5 405.5l-133-41.2 134.8 26L811 440" />
      <path fill="#304040" d="M557.6 502.8l60.7 46.5-32 26-97.7-11" />
      <path d="M288.6 417.3L233 470.7l91.7-140 20-23.7" />
      <path fill="#1f1d1d" d="M879.2 514.6l-67-17.3-38.3-92L874 537" />
      <path fill="#2a2a2a" d="M654.6 251l-74-12.3-31.5 6.7 13-42.4" />
      <path fill="#1d2828" d="M695.3 447.2l62.4 1-102.6-15-140 25.6" />
      <path fill="#fff" d="M301 393.4l85-143.2 1.7 96.4-7.3 56.4M438 590.4L510.4 473l426 294-326.2-321.6m-142-150.2l-47-40.4 31-14.3L486 269" />
      <path fill="#9b1c22" d="M477 410.8L471.5 555l57-200.6-182 20" />
      <path fill="#6d0c10" d="M520 248.3l-22.6-49.7-114.3 9.8 39 39" />
      <path fill="#1f1b1b" d="M151.7 524l28 7.8 22.7-83.2 2 67.4" />
      <path fill="#727171" d="M729.5 539.4l28.8 21 39-79.6L873 504" />
      <path fill="#fff" d="M424.5 464.4l12.7-65.3 32.8 9 14 58" />
      <path fill="#fbffff" d="M404 487.4l-15-51-51-34 31.5 179" />
      <path fill="#fff" d="M505 232l13.3 128.4 37.6-73-3 75.6" />
      <path fill="#2b3939" d="M491 338l95 64.7L773.3 382l-169.7 7" />
      <path d="M585.4 313.3l-5 161 7.4 2.7 3.3-25.5" />
      <path fill="#fff" d="M518.7 243.8l301.8 158.4-177.3-39.8-73.2-54.2" />
      <path d="M216 443.5l48.5.3-46.7 12.4-33.8 33.2" />
      <path fill="#1e0e0f" d="M275 397.6l11.6 22.4 42-23.2 89 27.2" />
      <path fill="#d7ecec" d="M681.8 375.5L620.2 410 521 362.6l-.8 82.2" />
      <path fill="#fff" d="M474.7 205.3L486-27.4 396.4 136l33 65.3m198.8 219.3l61.4-32-136 155.7L676 459.6" />
      <path fill="#031715" d="M584 329.7L535.2 288l-40-108.3-22.7 11.3" />
      <path fill="#fff" d="M439.3 322.7l41.8-.2-14 42-47-4.5" />
      <path fill="#602325" d="M521 357.6L424.5 293l70.4-3.4-11-155.2" />
      <path fill="#fff" d="M448.8 480.2l-33.5 14.2-6 17.6 75.2-15.3" />
      <path fill="#122220" d="M465 519.2l45.4-61.7-1-161.2 15.3 164.5" />
      <path fill="#404948" d="M388.4 229.4l-81 124.5 121.8-158-21.5-36" />
      <path fill="#090606" d="M656 473.5v-18.3l-11 5 49.8-24.8" />
      <path fill="#182726" d="M347.5 376.5l32 6.3-76-53.7 45.4 45" />
      <path fill="#84292d" d="M397 234.2L376.4 432l46 36.7L431 359" />
      <path fill="#0e1e1e" d="M712 397l-73-38-79.5-54.4 64 59.4" />
      <path fill="#fff" d="M592.3 487l-41.6-34-61.3 39.4-13 42" />
      <path fill="#202b2b" d="M648 403.8l68-20.7-57.7-7-85 100" />
      <path fill="#354d4c" d="M509.3 509l-76.3-3-63 29.3 104.8-25" />
      <path fill="#fff" d="M458.5 244.8l-39.7 5 34.6 40.3 18.8-38m-72.2 7l-6-21-67 102 38.7 25m438.7 243V457l-38.2-46-56-26.8M565 327l14.8-10.7 1.4 82-3.7 175.4" />
      <path fill="#181313" d="M595.6 571l-23-.3 20-46.6 13.4 12" />
      <path fill="#504546" d="M570.4 455.2L398 488l155.8-47 7.2-122" />
      <path fill="#302625" d="M415 516.7l-36.8 29 45.3-67.7-40.8-66" />
      <path fill="#403e3e" d="M788.3 409.7l-125.5-33 86 6.2 62.4 82" />
    </g>
    <g class="SVG--1">
      <path fill="#2f3a3a" d="M529.8 395.5l7.5-131.6 7 61-5.7 97" />
      <path fill="#fff" d="M582.3 625.7l-33 130.5L516 552l-43.4-29m84-194L529 353.5l13.5 5.2L555 531.5" />
      <path d="M262 427.4l2.3 2-21.8 48.4.4-30.6" />
      <path fill="#1c1a1a" d="M816 481.4l-15.4 42.2 5.8 4.6 2.2 21" />
      <path fill="#fff" d="M684.5 261.7l370.5 229-238.3.5-4.7-38.7" />
      <path fill="#020000" d="M303.6 374.3l8.3 5-47 4 7-8" />
      <path fill="#fff" d="M531.3 472.3l1.4-193.3-31.2-44.2 18.8 110.7m-51.8 128.8L481 427l-25-28.6-38 23.7" />
      <path fill="#161a1a" d="M534 372.3l6.6 30 4.4-38 120 47.4" />
      <path fill="#e4f2f2" d="M696.8 431.6l-104.2-94-2 156.4L604 370.2" />
      <path fill="#fff" d="M572.4 217L540 276.5l54.7 51.4 63.3 41" />
      <path fill="#292d2c" d="M640.3 399.6l52-25.4-64.2 48 1-64" />
      <path fill="#151414" d="M787.4 512l-4.6 1.8L740 547l24-2.8" />
      <path fill="#3b3b3b" d="M651 245.7l-69.7-7.3-.3-13.2 74.2 13.6" />
      <path fill="#c9353c" d="M410 368.3l107.6-2.5-130.3 65.6 31-262.6" />
      <path fill="#fff" d="M258.4 441.2l33.2-28.7 97.7 24.2L141 799" />
      <path fill="#e9313c" d="M491.5 267l20.7 111-1 57.2-23.2 66.5" />
      <path fill="#fff" d="M383.5 412l-50-14.5-47.5 5 45.6-47.5" />
      <path fill="#f2f4f4" d="M564.7 549.6l17.4-58-29 57.4 27 62.2" />
      <path fill="#190b0a" d="M465.7 490.5l57-21.8L401.3 483l49.4-14.2" />
      <path fill="#203e3b" d="M513.6 194l-87.3 154.3 6.7 7.6-34.4 15" />
      <path fill="#fc3842" d="M409 242l-5.6-31.4 95.2 10.3-25.6 14" />
      <path fill="#fbfdfd" d="M295 372.4l151-391-53.2 243-25.5 35.8" />
      <path fill="#000c0c" d="M611.2 446.5l-6.3-12.7 2-95.8 8 132.2" />
      <path fill="#1b1b1b" d="M830 491l24 8 23.3 28.8-.7 10.8" />
      <path fill="#3b3939" d="M665.4 440.5l-4 20 61-23.6-99.7 1" />
      <path fill="#402f2f" d="M434.8 271.4l-36 12.7-1-31-2.2-69" />
      <path fill="#392c2b" d="M540.6 374.3L392 230.6l78 90.8L611 398" />
      <path fill="#fff" d="M429.2 201.8l-80.6-173 206.8 200 78.6-159" />
      <path fill="#3d4747" d="M504.5 555.7l1-31.2 60-8.8-17-16.5" />
      <path fill="#1a1717" d="M191.2 515.7l23.5-12.2-45.4 13-1.7 17.8" />
      <path fill="#2c3535" d="M549.6 538l17.5 43-24 13.3-15-42.8" />
      <path fill="#141616" d="M301.5 410l50.4-5.7-52-6.3-40 29.4" />
      <path fill="#1e2323" d="M582.7 479.6l1-165.2 8.6 160.6 1 8.3" />
      <path fill="#fff" d="M665.2 394.2l-33.8 29-17 21L736.8 393" />
      <path fill="#2d3b37" d="M485.2 504.7l-12.3-96-61-12.5 72-.6" />
      <path fill="#13312c" d="M380 351.3l15-17.7-8 98.4-6.3-22.4" />
      <path fill="#041212" d="M564.7 306l2.4-9.4-10 21 7 125" />
      <path fill="#fff" d="M482 630.6l31.7-159-39 63.5-81.5-13" />
      <path fill="#1d2424" d="M575 324.8l-88.3-109.3 67 73.3 64 66.3" />
      <path fill="#fff" d="M646 439.3l16.4 4.7-34 115-62.4-55.5" />
      <path fill="#2b2b2b" d="M812.3 449.8l2.7 4.3-26-31 28.3 83" />
      <path fill="#fff" d="M523.4 367.2l6 98.6 60-6-69.6 80m-42.2-188.2l-40 15.5-9-28 55.4-7" />
      <path fill="#1d1d1d" d="M342 303.8l12.7-10.4-71.5 119.4-28 27.6" />
      <path fill="#051b18" d="M580.2 443.8L496 476.4l-23 42.8 43.3-59.5" />
      <path fill="#1e3c3b" d="M465 549.7l33.4-76.5-31.7 37.5-.8 40" />
      <path fill="#302624" d="M515.7 285l-35 6.2 6.4-58.7 26 119.2" />
      <path fill="#623031" d="M429 410.6l86.3-89-100.4 77L395 556" />
      <path fill="#bceceb" d="M442.3 298l-8.6-14.4-12.7-23.3-4.7 20.2" />
      <path fill="#fff" d="M467.2 466.7l10.6-62.4-51.3 17 .6 49.2" />
      <path fill="#f7fbfb" d="M346.4 409.3l53 44 .8 55.8-81.6 142" />
      <path fill="#fff" d="M387.7 329.6l-34.4-76-.4-4.2 22 152m-195-89.7l107 84L88 539l105-32.4" />
      <path fill="#495652" d="M496.4 315.6l14.3-127.8-35 11 20.4-53.3" />
      <path fill="#e53f47" d="M415.3 471l-30.7-54 40-61-9.7 82.8" />
      <path fill="#fff" d="M616.4 594.4l-184.7-9 100.5-15.2 56.4 172" />
      <path fill="#f1ffff" d="M447 504.4l35.6-4.6-39.7-23-36 38.2" />
      <path fill="#1f2222" d="M540 512l-16.4 59-23.4-1 44.8-23.2" />
      <path fill="#181818" d="M548.2 238l18-25.3 17-6.5-31 40" />
      <path fill="#0a0909" d="M324 346.4l-9.2 15 27-14.3 12.3 27" />
      <path fill="#fff" d="M750.3 499l-142 72.4-14.6-98 10.3-26.2m86 120l121.6-42L823 498l74 62.5m-316.4-120l-5.2-52-7.4 14.8-3.7 44" />
      <path fill="#333232" d="M189.7 485l18-39.2-15 63.3 20.5 3" />
      <path fill="#fff" d="M646.7 275.6l-23-104.3-38.7 51.2 46.2 14.8" />
      <path fill="#fbffff" d="M465 292l-17.4-3.5-19.7-38.2 19-5.3" />
      <path fill="#fff" d="M964.4 799L714.2 30.6 815.7 481l150.7 78.8" />
      <path fill="#ed343f" d="M402.3 316l17.6-21 84 28.2-14-29.2" />
      <path fill="#13201c" d="M395.4 397L364 416.8l27 19.8-9.8-93.3" />
      <path fill="#fff" d="M631 198.7L440.6 190l89.5-20.6-95 16.3m73 53l8 60.7-1 45 24 14" />
      <path fill="#333839" d="M457.2 510.3l-39.4 3 36-14 28 33.2" />
      <path fill="#242424" d="M755.7 402.3l-46.2-20.6 59.8 15.8 23.3 28.8" />
      <path fill="#fff" d="M773 412l-102 30.8-19.4-31.7 75-20" />
      <path fill="#e5e8e8" d="M661.4 392.2l-22-26.8-4.3 42.4 43-39.3" />
      <path fill="#1f2927" d="M417.2 251.4l42 69.6-49 2.5 45.8-31" />
      <path fill="#171414" d="M735.7 457.2l-9.4-17-1.7 2.4-5.6 6.4" />
      <path fill="#332d2d" d="M410.5 496.3l22.4-4-14-56.6-30 107" />
      <path fill="#1c2121" d="M514 520l2.7 6 24.5 6.3-41.3 3.5" />
      <path fill="#2c3533" d="M393.5 191.6l8 115-2.5-127.3 47.5 37.6" />
      <path fill="#1d2121" d="M540.6 452.6l16-6 46 1-13 11.4" />
      <path fill="#fefefe" d="M571 550.3l45 55.3-28.6 114.7-3.8-185" />
      <path fill="#fff" d="M602.4 389.2L589 449.4 546 486l57.7-50.6" />
      <path fill="#e8eaea" d="M542.6 579.4l3.2-23.4 9.2 28.4 109.8 25.3" />
      <path fill="#1b2121" d="M606.6 347.6l4.7 6.6 4 94-10-50.8" />
      <path fill="#fefefe" d="M715 374.7L827.7 426l-227-190.3 89 148" />
      <path fill="#133532" d="M414.2 325.5l25.3 50.2 27.6-10-58-7.2" />
      <path fill="#fff" d="M574.6 227.7l-44.3 36.5 86.3 82 151 48" />
      <path fill="#191515" d="M543.3 419.3l-10-2.5.5-12.8 1-37.4" />
      <path fill="#fff" d="M558 515l-8.8 1.3-4.5 14.5-.4 14.7" />
      <path fill="#eb4048" d="M407.4 412.4l33-40.6 69 54.8-15.7-65" />
      <path fill="#f6fefe" d="M627 401.2l-.5-44.4-38.6 17 2-38.4" />
      <path fill="#fff" d="M517.8 221L493 159.5l-84.6 20.2 90.4-95.2M230 451.8L330 799 199.6 485.5l9.8-20" />
      <path fill="#242a2a" d="M581 453.5l9.2-57 1-72.4-9.8 51" />
      <path fill="#fff" d="M576 453.2l-47 72-51.8-8.2 38.4-46.5" />
      <path fill="#2b3734" d="M425.2 233.6l86.4 16-86-3.4-19.6 45" />
      <path fill="#fff" d="M377.4 369.6L395 237l-43.3 64.2-19.2 44" />
      <path fill="#353c3a" d="M408.8 267.5l-22.6 72.2 1.6-61.3 49.5 23" />
      <path fill="#fff" d="M425 347.7l20.8-26.8 36.2 11-20 33" />
      <path fill="#dfe1e1" d="M530.8 551l11.7-60.6-24.7 76-11.3-16" />
      <path fill="#fff" d="M809 487.3l-8 43L692.4 395l97 38.6" />
      <path fill="#2c2c2c" d="M726.5 545.8l26-9.8 23.7-9-11 15.3" />
      <path fill="#de3d45" d="M485.2 240l13.6-36-94.6 42 3-36.7" />
      <path fill="#f6ffff" d="M510.5 244.8l-5.2-7.5 26.2 44.5-29-2" />
      <path fill="#f7fffe" d="M410.2 493l-1 20.4 78-22.6-45.7 2.4" />
      <path fill="#fcffff" d="M424.2 457l38.8-57.2 15.2 19.2-3.8 59" />
      <path fill="#fff" d="M395 791.5l-62.2-198L450.3 510l18.7 11.3m74.6-124l5-26.3 12 39.2-17 51.7" />
      <path fill="#293535" d="M443 500.4l-14.7 29.3-26-19-7.4 21" />
      <path fill="#fff" d="M503.4 147.7l-56 45.4-105.7-1 72-3" />
      <path fill="#161616" d="M817 503.4l-9-49-2.2-6.5 1.2 80" />
      <path fill="#100e0e" d="M554.5 546.4l1.4-28.6-12-10.5 23 2.3" />
      <path fill="#1c1d1d" d="M501.7 533.8l32.5 32.8L563 536l-32.6 15" />
      <path fill="#fdffff" d="M534 353.6L519.5 424l.8 29 12.7-1" />
      <path fill="#262b29" d="M473 269.3l24.6-62L568 324l-66-92.5" />
      <path fill="#fff" d="M535.4 544.6l-29.4-8.3 27.2 1.4-15.4-39.4m50 34l-5.2-52.8 181 101.2L718 439.4" />
      <path fill="#2f2e2e" d="M563.2 549l43.4-10.2-6.8 28.8-32-35" />
      <path fill="#362523" d="M476.3 473.8l5.6-81.3 6 90.5-58-8" />
      <path fill="#272b2b" d="M408 198l-13-6.8 6.7 33.5-93.4 138.7" />
      <path fill="#171b1a" d="M659.6 432.7l16.6 22-25-19.5-22-3.2" />
      <path fill="#322b29" d="M501.8 356.2l54.3 13.5-34-18.3-55-3.4" />
      <path fill="#d03a43" d="M493.5 244.2L512.7 455l-13 26.7-14-4" />
      <path fill="#363333" d="M255.2 446.6l25.2-36-45.2 57.4 9.2 9" />
      <path fill="#fff" d="M547.4 296.6l7.3 8-3 66-11.4-39.6" />
      <path fill="#1f2d2a" d="M413.8 204.4l53-1.3 47.6 10-91.7-2" />
      <path fill="#282b2b" d="M631 418.2l-28.4 23-86 22 91.2-14.8" />
      <path fill="#fff" d="M565.4 353l2-35.2 11 27.6V377" />
      <path fill="#2c3131" d="M544 337.6L533.7 348l2-98.3 3.6 48.6" />
      <path fill="#fdffff" d="M285.6 404.3L311 382l67.6 34.2 2.5-38.7" />
      <path fill="#fff" d="M585 702l221-239-214.8 134.7-32.4-47.3" />
      <path fill="#202928" d="M368.8 418.3l-54.4-20.7 41.3 4.6 55.6 56.8" />
      <path fill="#393838" d="M856.8 499.3l23.7 38.6-7 5-18.3-38" />
      <path fill="#fff" d="M379.2 429.4l-165 99.6 62-106 61-13.2" />
      <path fill="#313233" d="M549.5 373.8l60 24.4 27-4-21.7-7" />
      <path fill="#000c0c" d="M540.3 428.3v18.5l.2 11.5-7.8-12.2" />
      <path fill="#1a1a1a" d="M653 360.7l-1.5 41 43.3-14.8-37 9" />
      <path fill="#fff" d="M186.6 505l-66.3 64.2-21.8 50.4 122.6-263" />
      <path fill="#fdfefe" d="M240.8 176.5l134 108.6-63.3-12 54.6 31" />
      <path fill="#fff" d="M583.8 608.3L103.2 711l201.6-71.5 105.8-118M565.4 383l-2.4 24.3 9.6 42.8 9-40m-149-208l-62-125 143 14-40.3 112" />
      <path fill="#212020" d="M337.6 346.3L355 383l1-14.2-39.5-20.8" />
      <path fill="#feffff" d="M524.4 157l-53-47.5 79 174.8-48-72" />
      <path fill="#fff" d="M792 596.3l26.6-95.8h17l23.3 16" />
      <path fill="#e7414c" d="M428 295.2l-20.3-5.8-9.5 5.3-.7 56.8" />
      <path fill="#f0f1f1" d="M461 489.5L448.4 473l-9.7 12.3-24.3 35.5" />
      <path fill="#fff" d="M244.7 442.5l-275.7-47 316.3-7L275 410" />
      <path fill="#2d3433" d="M649.5 427L622 459.4l-7-27.2-1 18.5" />
      <path fill="#fbffff" d="M471.6 276.3l-27.4-17.7 36-10.2-27.7-1.5" />
      <path fill="#393a3a" d="M587 527.4l5.7 30.7 18.8 2-45-27" />
      <path fill="#282c2c" d="M547.5 577l-26.8-36 23.8 49.8 18.8-1.2" />
      <path fill="#fff" d="M203.8 487.8l26 102L240 454l-24 5" />
      <path fill="#201d1d" d="M205 456.3l34.2-17.8 1 7-36.8 17" />
      <path fill="#3c2c29" d="M442.5 387.6l47.8 36-15.7-28-58.4 14.4" />
      <path fill="#000606" d="M560.2 453.3l5.5-21L560 410l-1.7 13.4" />
      <path fill="#1a261e" d="M435 382l57-37.3-10.4-31.6 3.4 44" />
      <path fill="#bf4048" d="M390.7 452l37 41.2-41-150L410 472" />
      <path fill="#252525" d="M666.6 454.7l27.2-19.4 18.7 2.8-10.3 5" />
      <path fill="#fff" d="M541.6 291l4 70.6L557 368l-.5-60.7m25.5-104l34.7 33.5 128.7-11-156.6.3" />
      <path fill="#1d2d28" d="M463 268.7l9.7 1.8 28.3-46.8-22.7 27.2" />
      <path fill="#fff" d="M-31 230l330.4 141.7 2.2-14.2L402 208" />
      <path fill="#feffff" d="M784.8 369l-207-62.7-48.5-47L600 237" />
      <path fill="#2c3936" d="M507.8 339l12.8 15.7.3 29.3-4 104.5" />
      <path fill="#fff" d="M704 346.2l100.4 83.5 155.2 202-108-395" />
      <path fill="#feffff" d="M505.2 478l-25.4 37-10.5 36.2 87.2-58" />
      <path fill="#676767" d="M791 513.5l-22.2 25 11-29.3v1" />
      <path fill="#efffff" d="M482.6 277.8l-3 6.8L455 288l25.6-22.4" />
      <path fill="#f9f9f9" d="M379.7 570l-222-29.5 37-24.6 201.5-62" />
      <path fill="#fff" d="M771.2 501.5l-172-50.7-5.7 10.5 185.3 67" />
      <path fill="#1b2626" d="M478 522.7l1.3-10-17.2-.6 11 30" />
      <path fill="#272422" d="M406.6 371.3l43.2-65.4-43.7-20 39 6" />
      <path fill="#fdffff" d="M369 296.6l30.2-17-9-22-43 54.6" />
      <path fill="#fff" d="M623.3 409l-1 15-6.6-48.8-.8 51.2" />
      <path fill="#433c3b" d="M552 453.5L464.3 493l81.2-50.2-15-9.6" />
      <path fill="#171717" d="M584.4 232.5l-14.5-21 16 12.6 48 22" />
      <path fill="#152924" d="M486.7 447.6L462 489.3l21.3-.6-3.8-13.6" />
    </g>
    <g class="SVG--2">
      <path fill="#fff" d="M488.8 534.2l25.5 21-86.4-32 71 53.3m-75-158l17-14.7 32 59.7-44 8.4" />
      <path fill="#342d28" d="M393.4 336.4L505 267.8l-2-81.2-10.6 95" />
      <path fill="#fff" d="M652.3 386.6L638.8 402l-2.2-32 9.4 2.4" />
      <path fill="#d53e46" d="M471 373.2l-68 43.5 7-169-19.8 139" />
      <path fill="#fff" d="M688.6 384.3l-7-141-71.5 3-58 40.7" />
      <path fill="#222a28" d="M405.3 287.7l-3-93L396 227l1.2 60" />
      <path fill="#fcfdfd" d="M599 384.6l-10.3-29.8 39.7 24-11.4-26" />
      <path fill="#2a2f2f" d="M625.6 373.5l12-17.6-7.6 73-3.6-47" />
      <path fill="#fbfffe" d="M617 439.8L722.4 407 695 387.8 634.8 418" />
      <path fill="#2b2c2c" d="M611.3 342.6l-7 110.3 9.8-101 87 46" />
      <path fill="#282b2b" d="M506 571.5l-5.6-5-6.4-13 39 14.5" />
      <path fill="#e2f2f2" d="M438.2 288l-7.4-11.6-13.2-11 11 28.7" />
      <path fill="#2a2828" d="M537 510.5l30.7-7-29.4 20L537 509" />
      <path fill="#272626" d="M193.2 466.6l4 35.7 7.3-34.3 12.7-14.6" />
      <path fill="#1c1d1d" d="M505.3 545.4l51.6 15.2-1-4.3-55-18.3" />
      <path fill="#fff" d="M381.3 302.3l-180.6-243L416 180.8l-173.8-1M604.7 405l-1.7 42.7-14.4-55.5 12.8 4" />
      <path fill="#223231" d="M384 547.2l18-45.3 4.7-58 .7 71" />
      <path fill="#fff" d="M776.2 419.5l20.3 24 10.8 54.6L607 552m-15.7-215l-25.5 9.7L577 383l-5-59.6" />
      <path fill="#34312f" d="M426 346.8l16.3 34.4-28.8-30-3.3-33.8" />
      <path fill="#181616" d="M436.4 511l32.5 3.3 6-3.7-34-7.6" />
      <path fill="#feffff" d="M532.3 273l-.2 78.2-27-98 2 30.6" />
      <path fill="#fff" d="M516.5 469.6l46-15.3 19.5 56.2-72.2-17" />
      <path fill="#fcffff" d="M448.2 283.2l-23.8-31 53.5-7.6-18 24.7" />
      <path fill="#fff" d="M591.5 230.4L934.5-31l-451 212.3 78-4.6" />
      <path fill="#24302b" d="M426 494l-25.5-25 11.5 19.6 38.8-24" />
      <path fill="#353838" d="M839.5 493.2l-17.5 1.4-12.3 2.5 55.6 9" />
      <path fill="#fff" d="M382.4 430.5l-35.8-20.3-53.7 1.4 64 124.8" />
      <path fill="#131212" d="M299 403.8l22.6-6.2 19.6 8.3H307" />
      <path fill="#fff" d="M543 401.8l2.3-29L578 413l-6.6-26.3" />
      <path fill="#e7f1f0" d="M532.4 510l-58-3.6 7-19.2-36 17.2" />
      <path fill="#fff" d="M776.8 353.3l263 123-221.2 15-4-22.8" />
      <path fill="#fcfefe" d="M530.2 425l30.6 23.3-16-48 25.4 5.5" />
      <path fill="#fff" d="M361.5 389.7L325.2 360l-28.7 34.7 39 3.5" />
      <path fill="#cd3d44" d="M507.6 291.3L496 382.7l-5.3-67.5-45.2-12" />
      <path fill="#383838" d="M621.7 249l25.4-17.3 3 12.5-55-14.3" />
      <path fill="#343c38" d="M424.3 425l-1 50-40.3-49.4 22 53" />
      <path fill="#f8ffff" d="M460.3 320l26.6 21-34 23.4-24-4" />
      <path fill="#3d3d3d" d="M355 296.2l-59.5 82L264 371l28.3 18.8" />
      <path fill="#212121" d="M598 231.2l-8.8 7.8-7-29.2-7 19.2" />
      <path fill="#181919" d="M812 477.6l-7.5-17-22-41.7 17.5 16" />
      <path fill="#fff" d="M378.2 378.4l-94.6 28.4 59.8-38 26.4 35.7" />
      <path fill="#feffff" d="M482.6 347.2l-53 3.8 13.4-28.7 28.7-.7" />
      <path fill="#fff" d="M658.7 445.7L625.3 593l-34.5-88 50-65.6" />
      <path fill="#252525" d="M207.8 505.7l-43.3 27.6L179 519l-4.8-2.4" />
      <path fill="#eaeeef" d="M389.8 439l13 37-18.6 61.3-49.7 38" />
      <path fill="#303a39" d="M538.5 284.7l15.3 9.3-53-78.6-1 16" />
      <path fill="#505050" d="M800.5 533.3l-8.3 2.7 23-10.2L812 476" />
      <path fill="#010505" d="M664.7 435l-29 8 4.3-9.7 21.2 2" />
      <path fill="#3a3737" d="M292.3 409L231 452l10 .3 20.2-27.5" />
      <path fill="#fff" d="M834.3 522L609 589.4l-43-24.7L532 799" />
      <path fill="#262929" d="M487.5 266.7l2.6-21-65 1.3 41-12.6" />
      <path fill="#fff" d="M343 75.2l142 115.4-59 13.2 28.4-231.2" />
      <path fill="#cc3b42" d="M405 269.6l19-41.6 21 .5-37-23.7" />
      <path fill="#feffff" d="M435.5 514l-13.8 25.7L535.2 673l-79.6-159.4" />
      <path fill="#252c27" d="M417.6 471l-2.3-49 6.2-15 7-8.5" />
      <path fill="#363b38" d="M343 399l30.8 13 21.4-27.8-8.8 51.6" />
      <path fill="#fff" d="M335.6 331.2l49.8-78.4 1.3 97-32.7-24" />
      <path fill="#d33e47" d="M395.4 215l85.6-1.4 16-15.6-2.4 29.6" />
      <path fill="#2d3333" d="M557.7 295.8l8 56-7.2 46-1.7-55.3" />
      <path fill="#fff" d="M525 646.7l1 68.2-46.3-60 55.3-98" />
      <path fill="#272727" d="M660 459.2l16.7-18-13 27-6.5-1.3" />
      <path fill="#fdffff" d="M592.8 388l-2.5 30.6.4 24.3 13.6-7" />
      <path fill="#343535" d="M563.6 544.8l8.6-14 12-5-21.5 37.3" />
      <path fill="#272a29" d="M397.6 298.7l-9.5-14.3-1 3.8 6 76.4" />
      <path fill="#2b2d2d" d="M542 326l-8.3-5 .6-41.7 7-1" />
      <path fill="#fefdfd" d="M151.4 400l149.3-31.8 82-142L165 506.5" />
      <path fill="#fff" d="M569.7 215.8L555.4 288l44.4 41.5 76.2 39.8" />
      <path fill="#9bbdbc" d="M429.2 324.2L416 342.7l3.4-20.2 51.6 6" />
      <path fill="#1c1e1e" d="M853.4 503.6l3 3.3-52.4-16 18.2-1" />
      <path fill="#fff" d="M57.8 391.8l208.5.8L49 599.6l149-98" />
      <path fill="#3e3730" d="M466 374.3l3.3-15 6.6-13.5 16 3" />
      <path fill="#fff" d="M233.4 388.3l56.8-5.6-40.3 58-108 13.7" />
      <path fill="#fafbfb" d="M574 560.3l2-22.7 7.3 3.8-1.5 1.5" />
      <path fill="#fff" d="M695 430.4L676.7 444l-36.4-33.5 51.3-12.4" />
      <path fill="#faffff" d="M344.2 352.6l-15.5-12.2 48 13.4 5.5 30.7" />
      <path fill="#2a2a2a" d="M570 549.3l-6.5 9.7 33.2 17.4-25-20" />
      <path fill="#2c2d2d" d="M458 509.6L409 521l20.5 8 8.8-24.8" />
      <path fill="#262727" d="M548 288.7l14.4 23 48.7 40.7 1-5.4" />
      <path fill="#fefefe" d="M551.8 514.4l-1.4 20 7-22 44-16.4" />
      <path fill="#2b2b2b" d="M534.2 559.8l24.5-19.5.7 3.4 5-28.8" />
      <path fill="#d83b45" d="M501 470.8l-22.4 14 26.3-68 3 48.2" />
      <path fill="#ce3f46" d="M501.8 338.3l8.5 71L378.6 371l87 3.6" />
      <path fill="#fff" d="M532.7 523.7L480 525l37.7-52.8L576 455m-97.2-30l-12 50.3-38-65.2 33-7" />
      <path fill="#1f2b2c" d="M438.3 476.6l32 2.2 24 13.7-46.6-25" />
      <path fill="#fff" d="M621.5 452.3L655 537l-90-13.7 16.6-33M440.8-9l63.4 197.3 38 33.3L656 168.4M542.3 362.2L526.8 349l22.6-1.3 3 9.7" />
      <path fill="#392925" d="M493.5 349.7l-6-26.4-92.6-8.6 79-1.5" />
      <path fill="#2b2c2d" d="M536.6 457L664 437l-116 20.6-14-26.8" />
      <path fill="#fff" d="M747 397.4l-48-8.2L774.3 507l9.2-78.8" />
      <path fill="#332f2c" d="M494.2 253l24.2 149-16-158-7.2 20.6" />
      <path fill="#2f2d27" d="M440 303.8l-33-21.4 64.2 18 19-19" />
      <path fill="#2a2a2a" d="M195 508l6.6-51.5 29-14.8-29.2 27.4" />
      <path fill="#1e3432" d="M379.2 360.4l14-24.4-1.8-45.5L383 393" />
      <path fill="#fff" d="M885.2 595L863 518.4l-64.7 12.8-42.5-18.3" />
      <path fill="#fffffe" d="M280.7 421.3l38-14.3-65.6 51.3 12-23.8" />
      <path fill="#fdffff" d="M533.3 448.7l-1.6-85.4-12.3 2 4.8 44.6" />
      <path fill="#e8e8e8" d="M565 539.7l5-58-7 78.5-11.3-9.6" />
      <path fill="#2e2e2e" d="M197 487l-.5 18.3L175 517l35.7-5.6" />
      <path fill="#2c2c2c" d="M529.7 553.6l14.6-46.8-4.4 58.7 3 28.3" />
      <path fill="#fff" d="M620 372.4l3.5-17.7 3.6 33.5-14 1" />
      <path fill="#d93f47" d="M391 351.7l18 58.3 8.8 62.7-6 3.4" />
      <path fill="#d3dadb" d="M285.4 441.2l5.2 24 16.6-22.6-21-17.8" />
      <path fill="#feffff" d="M455.6 538.6l60 15.4-3.6 10-17.5-24" />
      <path fill="#313030" d="M707.4 387.2l-29.8 2-77.7-44 72 30.5" />
      <path fill="#353433" d="M604.6 441.5l-24 9.7 13 24.3L579 466" />
      <path fill="#fff" d="M605.8 365L591 384.7l2.6-43.8 18.4 28m56 2l-49.6-24 97-317 54 359" />
      <path fill="#292929" d="M571.2 537.3l29.5-5.2 5.3 26-17.7-34" />
      <path fill="#fff" d="M43.5 594l338.3-162.7L401 464l-32.5 42.3" />
      <path fill="#282727" d="M667.4 388.3l49-7.4 29.2 12-17.2-4" />
      <path fill="#252525" d="M619.7 393.6l-20.4-8.4-18.6 1.6 41 13" />
      <path fill="#292929" d="M537 428.6l4.3-25 1.8-6-7-21.6" />
      <path fill="#fff" d="M606 558.7l147.2-22.5 51.5-67.3-120.5-22" />
      <path fill="#3a3a3a" d="M815 474.4l3 2-23-52.2 19.5 89.3" />
      <path fill="#343434" d="M790.3 420.8l2 5.6-71-45L762 396" />
      <path fill="#fefefe" d="M1053 725L863 507.3l-32.3-22-119.5-204.8" />
      <path fill="#2d3834" d="M515.6 196.8l-19.2-2.4-9.8-1.7-21 16.3" />
      <path fill="#272a2a" d="M596.8 445.8l-17.7 21 89-79.4-36 21.2" />
      <path fill="#444747" d="M368 368.5l-6.6 18.2-39.3-49.3 44 38.2" />
      <path fill="#e6e9eb" d="M325.3 566.2l44.6-24-7-8.3-99 13" />
      <path fill="#fff" d="M608 560.6L399.7 677l288.5-76.7-84-63" />
      <path fill="#302b2c" d="M638 393.7l-61.2-7-99.6-49.7 149.5 62.2" />
      <path fill="#363d3d" d="M396 536l5.3-11.3-16.8 6.3 1.6 14" />
      <path fill="#344343" d="M403.7 160.4l9 25.6-2.6 2.4 3-28" />
      <path fill="#fff" d="M398.3 220l-60 32.7 94.4-125.2L337.5 99" />
      <path fill="#fff" d="M335 177h323.7l-257.4 2.2L351.8-31" />
      <path fill="#4b4b4b" d="M573 206.2l-14.6 10.5 2 7.2 24.8-9" />
      <path fill="#272626" d="M600.8 535.5l-16.2 38 20-18L588 538" />
      <path fill="#303131" d="M309.6 356.3l27-31.5 10-15 6.2-25" />
      <path fill="#f6f7f7" d="M356.3 293.6l-46.7-8-29.3 99.3 23-130" />
      <path fill="#262a2a" d="M503 527l-2 19.2 25.8-25.7.2 14.6" />
      <path fill="#fdffff" d="M430.4 429.3l36.8 49L477 466l-6-49" />
      <path fill="#2c3938" d="M463 492.4l-4.3-14.3-9.7-11 34 20" />
      <path fill="#be3b44" d="M477 296.4L441.6 311l66 4.6-10.3-31.5" />
      <path fill="#181717" d="M575 569.4l-9.5-10 29 7.8-5.2 3.3" />
      <path fill="#fff" d="M616.6 245.6l75.8-1.6-47.6 114.2-46.6-26" />
      <path fill="#fdfdfd" d="M570.8 226.3l-6.2 34.4 37.4-26.2 40.8 69.2" />
      <path fill="#fdfefe" d="M531.7 461l-61 145.2 11.4-86.4 76-64" />
      <path fill="#fff" d="M572.2 321.6l8 5.2 1 37.7-15.8 11" />
      <path fill="#303031" d="M276.5 420l2.5-17 50.5-57.3-27 36.4" />
      <path fill="#394547" d="M504.5 197.3L494 168.7l-6-11 2.6 18.4" />
      <path fill="#212d2b" d="M482 248l-62-5 56-1 16.6 30.2" />
      <path fill="#f2fbfb" d="M615 405l.5 13 14-2.3-9.8-20" />
      <path fill="#373838" d="M589.7 484l-2-83.5-7-69.2 2.5 138.2" />
      <path fill="#fbfafa" d="M735.5 394.7l-35 73.7 9.5-13 49.5-49.5" />
      <path fill="#f9ffff" d="M395.6 239.4l-11.5 35 11 13.4v-28.4" />
      <path fill="#fff" d="M752.8-26L597.6 216.6l-101.3-26.4 4.4-1.8" />
      <path fill="#362a2a" d="M420.2 244l-9 6.3-3.4-8.6 26.4 39.7" />
      <path fill="#3b2c2b" d="M408.3 377l9.5-27 2.4-33.6-18.4 58.2" />
      <path fill="#fefefe" d="M635.5 456.3l32.8-6.7L564.6 529l174-25.6" />
      <path fill="#2c2e2e" d="M369.5 377l-14 3.6-14-16.2-2.3-7.4" />
      <path fill="#373b37" d="M468.8 283.7l-3-10 43-59-50 64.7" />
      <path fill="#fcffff" d="M479.5 278.2L477 283l-20 10.5-5.2-7" />
      <path fill="#252d2b" d="M489.7 336l-4.3 25-4-37-17.6-11.4" />
      <path fill="#fdfdfd" d="M489.7 494.7l81.4-11.2-37 33.8-2 13" />
      <path fill="#ca3e4a" d="M496.7 242.7l-9 73.4 7-46-7-24" />
      <path fill="#272727" d="M732.6 540.4l32.8-3.3-10.4 8-17 1" />
      <path fill="#f1fbfb" d="M534 349.6l-20.7-35.2 2 31.5 40 21" />
      <path fill="#323232" d="M553 249.2l18.6-40.4-6.4 8-17.3 21.4" />
      <path fill="#fff" d="M329.4 389.2l39.4 19.5 5.4 5.4-2-35m61.2 249l36-107-64.2 12-203.6 117" />
      <path fill="#f3f4f4" d="M548.5 534.7l7.6-21.5-12 14.5 38 69.3" />
      <path fill="#c73d45" d="M422.8 213.8l72-2.2-11.7 26.8-65-.5" />
      <path fill="#2c2e2e" d="M362.5 274l1-7 41.6-60.4-33 62.8" />
      <path fill="#fcfefe" d="M579.8 389.2l-.4 62-8.6-20.4 1.2-47" />
      <path fill="#2d2d2d" d="M561.6 533.6L522 571.2l15.4-21 31.3-34.7" />
      <path fill="#291c1a" d="M485.8 421.6l1 31.6-4.5 23L479 442" />
      <path fill="#fefefe" d="M708 444.6l-16.7 1.3-16 9L461 783" />
      <path fill="#232d27" d="M480.3 405.3l-13.8-1.8-38-2 28-8.7" />
      <path fill="#fff" d="M196 505.8l-8-23 38.5-72.4-138 109" />
      <path fill="#20221e" d="M483.4 206l-66.2 8.3-2-15.3 13.5 7" />
      <path fill="#29312c" d="M404.3 517.4l-1.5-72.5-24.6-24 35 62" />
      <path fill="#f1f1f1" d="M691 589l106.4-58.7L767 538l-74.8 52.4" />
      <path fill="#333c39" d="M514 288.6l-33.3-16.4 4-3.5 31 37.4" />
      <path fill="#fff" d="M430.4 252.5l25.8 37 4-24.4 17.8-15" />
      <path fill="#cf3f46" d="M493.3 429.8l12.6 12.6 6-88-47 24.8" />
      <path fill="#151616" d="M606 345.4l8.3 14.6-8.5-.3-1-8.7" />
      <path fill="#4d4d4d" d="M791.2 509.3L749 546l28-11.6.5-19.4" />
      <path fill="#cf3d4b" d="M411.3 484.3l14.3-3.5-20.3-22.4 6.6-31.6" />
      <path fill="#fff" d="M318 408l46 9 19.5 19.4-102-13.7m275.6 16l-6-40.7-21 48-6-22.8" />
      <path fill="#f5f4f4" d="M443 480l-18 36.4-22-11.5 73.3-5" />
      <path fill="#2a2b2b" d="M611 350.2l-40.7-36 78.5 54.6 15 13.7" />
      <path fill="#fafafa" d="M768.6 413.8l42 141.5-63.6-64.5 47 61.2" />
      <path fill="#f8f8f8" d="M585 389.8l-31.7-.4-3.6 27.3-4-19.6" />
      <path fill="#2f3232" d="M589.7 340l-8.5-.6 4.7 108.8 2 5.4" />
      <path fill="#363737" d="M348 287.8l-39.8 92.4-21.8-8 10.4 17" />
      <path fill="#222323" d="M645 402.4l-42.8 40.4 27.5 12-15.3-16.6" />
      <path fill="#33322f" d="M544.6 453l-.3-4.7-57 31.6-5.3 11" />
      <path fill="#fdfdfd" d="M730 382l-47.7-2-117.8-77.3-5-71.6" />
      <path fill="#452b27" d="M438 310.6L407.4 278l11.2 2.6 8.2 6" />
      <path fill="#f9fafa" d="M476 179l49.6 3.8-54.4-10.5-51.7 19" />
      <path fill="#fbfbfb" d="M710.3 609.6l-131-49.3-3.8-14.6 50.5 58" />
      <path fill="#362e2e" d="M399.8 192.8l-7.4.7L400 204l32.8-9.4" />
      <path fill="#f9fafa" d="M551.8 126.6l-48 90.4 43 41.5-42.2-54.2" />
      <path fill="#2e2e2d" d="M562.7 304.4l25.4 26-57-54.7-37-63" />
      <path fill="#f5f7f8" d="M379.7 341.8l-5.2 60.5-9.7-80-44.7 24" />
      <path fill="#fff" d="M633.5 458L612 493l-22.6-21.3L600 450" />
      <path fill="#2a2d2e" d="M557 457.2l-37.3 1.6 47-11.5-9.2-27.7" />
      <path fill="#f1f5f4" d="M613.4 446.8l75.5-52.6-45 14-19 34" />
      <path fill="#c53a42" d="M401 293.5l-3.8-4.5-1.8 33.7 41.8-11.8" />
      <path fill="#f9fdfc" d="M480 444.7l-52.7-34L424 459l9.7 11.3" />
      <path fill="#4f4f4f" d="M603 249.7l9.3-10 16.3-5 5 3.7" />
      <path fill="#fff" d="M542 597l-11-29.2-88.3 40.6 365.7-13" />
      <path fill="#363535" d="M622.7 445.4l-71 7.5 40 6 17.5-25" />
      <path fill="#2f2f2f" d="M507.4 571.8l56.7-38.4 3-20.3-33 52" />
      <path fill="#fff" d="M570 523.4l12.5-66.3-67.5 13 204 72" />
      <path fill="#fff" d="M730.6 553.7l320.7-33.2L426.6 652l331.6-153.7" />
      <path fill="#373737" d="M637 363.5l-3 42.2-4.2-4.2-3.6-41.4" />
      <path fill="#f9fbfb" d="M387.7 347.2l-8.6-75.4L363 374l-12.3-15" />
      <path fill="#fefffe" d="M639.4 413.5l39.5-20 18 38.7-48-1.2" />
      <path fill="#fff" d="M530.5 324.8l-26-65 10.4-3 17 23M203 472.5l9.6 69 29-81.5-7-7.4" />
      <path fill="#fdffff" d="M405.2-31l16.3 221.3 60.4 11.2-47 .5" />
      <path fill="#2e2e2e" d="M686.8 382l-24.2 17.5-24.2 10-.5-5" />
      <path fill="#fefefe" d="M556.8 712.3l95.7-248 16.3-19-25 3.2" />
      <path fill="#353434" d="M590.8 528.3l-8.6 20.2 25.6 9.3-22.8 15.6" />
      <path fill="#fcfcfc" d="M851.3 508.7L635 799l170-213 11.4-87.6" />
      <path fill="#fdfdfd" d="M806 503.6l-5.5-49.2-4 3L785.7 628" />
      <path fill="#35302d" d="M389.3 351.7l.5-4.6-9.5 4 6.4 84" />
      <path fill="#353535" d="M865.8 506l4.7 31.2 8.3-6.3-18-20" />
      <path fill="#e9e9e9" d="M434 799l113-234.6-5.3-12.6 2 19.3" />
      <path fill="#2f3232" d="M474 538.5l-.4-20.6-21-13 24 27" />
      <path fill="#2b2b2b" d="M815.2 499.3L808 529l-4 .4 5.4-54.4" />
      <path fill="#e2e4e4" d="M515.7 541l20 6-20.2-14-1.7 16.6" />
      <path fill="#24312e" d="M497.5 287.8l1-33 15.4 74-2-45.5" />
      <path fill="#fcfdfd" d="M374.3 412l4.4-26 4.6-114.5-23 8" />
      <path fill="#3e3c3b" d="M553.2 375.8l-17-4.2-38.5-41.2 3.5 1.5" />
      <path fill="#fff" d="M579 242.3l364.2 30.2-307.6 70.7-54.2-113" />
      <path fill="#2f3131" d="M558 334.8l5.2-28.2 3 28.5-3 51" />
      <path fill="#222" d="M535 533.2l19.7-26.5-17.8 8.7 7 70" />
      <path fill="#2f3231" d="M512 344l75.8 47-80.8-38.2-2.4-36" />
      <path fill="#fefefe" d="M787.8 501.7L584.8 647l-29.5-104.4 46.3 83.5m118.8-363l-87.7-101-20 74 80.5-1" />
      <path fill="#36312e" d="M390 230.5l66.7 72.5 13-12-21 .2" />
      <path fill="#343232" d="M707.3 436.7l-21.5 3.3 29.2 6.3-3.2-11" />
      <path fill="#fff" d="M814.2 472.8l13 18L956.4 519 835.6 226.8" />
      <path fill="#fafafb" d="M337 397.2l-39.6-9 31-21.4L363 492.4" />
      <path fill="#f9fcfd" d="M461.6 361.8l-22.7 3 32-35.2-2 30.6" />
      <path fill="#2f2e2e" d="M250 443.6l6-14.4 63.8-30.5-49.6 25.5" />
      <path fill="#1d2e24" d="M488.7 346.6l-33.3 27 19.6-5-1-18.7" />
      <path fill="#222" d="M222.2 447.5l26 5-13-9.7-8.2 2" />
      <path fill="#fff" d="M82 430l187.4-128.4 1.8 115-29.8 25.3" />
      <path fill="#fefefe" d="M692.3-31l-284 211 85 14L369 145.4" />
      <path fill="#fff" d="M554.4 442.4l-.2-69-6.6 8L544 447" />
      <path fill="#ebebeb" d="M547.7 573.7l-4.3-25 27.2 115.7-10.3-48.4" />
      <path fill="#242626" d="M560.6 587.8l-21.7-12 14 20-2-44.3" />
      <path fill="#fcfcfc" d="M570.5 504.6L626 559l-12-113-55.7 106.8" />
      <path fill="#252622" d="M516 465.4L487.4 482l-10 39-12-8" />
      <path fill="#f7fbfb" d="M584.3 327.6l-13 45.5-4-56 37.2 42" />
      <path fill="#303030" d="M821.7 490.3l33.5 12.4 14.3 15 7.5 8.6" />
      <path fill="#323232" d="M556.3 511l19.3 47-5 9-10.4-64.2" />
      <path fill="#fff" d="M543.6 472.6l-11 62.5-32.6-53 280.3 101" />
      <path fill="#2a2b2b" d="M657.5 370l-4.2 11.4.3 13.6 10.7-18" />
      <path fill="#fff" d="M176.6 393.5l74 49-17.2-1 58-58" />
      <path fill="#35322c" d="M461 396.4l21.7 26 3.5-10h1.7" />
      <path fill="#c73b43" d="M488.8 352.6l-58 48.2L500 361l4.6-69" />
      <path fill="#cd3c43" d="M479 216.6l-33 9.7-40.3 27 12-39.5" />
      <path fill="#26413f" d="M422.8 463.5l3-63.6 13.5-5-17.8 26" />
      <path fill="#767575" d="M749.5 456.2l-34.6-6.8 26-4-13 6.6" />
      <path fill="#525353" d="M555.8 419.6l7.6-45.2-5.7 50 8.6-14" />
      <path fill="#f8fbfa" d="M481.7 340.3l-45.8 25-10-21 17-23.6" />
      <path fill="#d1d8da" d="M375 343.2l.4-4-3.5-10.7-17 11" />
      <path fill="#363535" d="M525 573.8l29-73 14.3 17.7-20.7-11" />
      <path fill="#2f2f2f" d="M285.5 396.4l47.8-68.5-58.7 97-23.2 18" />
      <path fill="#323232" d="M701 443.3l-16.3 6-40-19.7 21.8 15.6" />
      <path fill="#343434" d="M514.6 551l-10-11.7 37 10.5 16.7 10.2" />
      <path fill="#fff" d="M696 395.8l70.6 74.6-44-33.7-6.2 13" />
      <path fill="#27322d" d="M423.6 344.2l12.4 29 35.2-6.7-49.8-4.2" />
      <path fill="#282b2b" d="M613.5 444.6l-1.3-4.8 19.6-37.6 3 5" />
      <path fill="#e7e9e9" d="M487.5 546.8l31.3 14.2 7.6-5.6-.7-.4" />
      <path fill="#fbfdfd" d="M637 392l2.2-8 12.7-10.5-17 29.5" />
      <path fill="#eff1f1" d="M438.4 494.6l-6.8 12.2-92-58.5 55 41.4" />
      <path fill="#3f4143" d="M492 159.4l5 5.7-13 31 6.6-29" />
      <path fill="#e4e5e5" d="M539.3 545l9-11.8 9-11.7-1.5-1.8" />
    </g>
  </g>
</svg>