<svg version="1.1" viewBox="0 0 1024 1024" width="1024" height="1024" xmlns="http://www.w3.org/2000/svg">
  <g class="brand-logo__filled" fill-opacity=".5">
    <path d="M579 309l435 565-29 66-490-626z" />
    <path d="M1086 224L546 945l-608-73 582-36zM-33 456l-13 78 553-15 41-59z" />
    <path d="M733 164l-795 3 123 881 7-965zM575 904l-65-21 427-559 108-36z" />
    <path d="M920 860L503 323l83-9 500 662zM43 62l17 782 542 52-664 29z" />
    <path d="M109 102l-171 57 600 11 33-74zM24 519l517 10-33-68-570-3zm311 398l286-58L6 846l-68 70z" />
    <path d="M518 946l508-624-35-11-71 22zM-60 100L65 937l-3-784 530-46z" />
    <path d="M973 275L536 848l-598 61 637 7z" />
    <path d="M503 318l537 678-446-678-82-5zM-62 520l575 3-7-65-454-1z" />
    <path d="M67 847L53 104-62 921l641-67z" />
  </g>
</svg>