<svg version="1.1" viewBox="0 0 1024 1024" width="1024" height="1024" xmlns="http://www.w3.org/2000/svg">
  <g class="brand-logo__filled" fill-opacity=".5">
    <path d="M974 787L940 98l-54 623-529 365z" />
    <path d="M51 760l66-738 14 686 489 378z" />
    <path d="M696 746l164-168-199 78-370-22zM513 312l-67 76 352-5-120-78zM688-62L136 286 62 876l5-627zM357 876l147 67 524-227-548 352z" />
    <path d="M986 274L435-62l469 356-12 617z" />
    <path d="M654 523l191 128-193-371 174 144zM392 860l-198-5 118-59 81-555zm40-225l-3-69 260 157-164-3zm505-403L543 8l-92 9 507 315z" />
    <path d="M965 440l-62 285-472 361 537-329zm-501 80l370 56-302-128-94-88zM78 668l244 230-186-77-27-595zm316 143l-15-495-53 25 1 393z" />
    <path d="M795 692l6-168-85 119-222 71zM588 305l-116 50-34 74 288-107z" />
    <path d="M771 338l27 118-59-12-94-132zm-713-3l40 461 42-595L632-62zm838 211l58 259 16-481-69-110zM497 707l56-4-55-129-76 2zM348 930l110 73 117-13-180-95z" />
    <path d="M128 734l192 112-247-64-13-378zm690-135l-10-57-107-60-254-14zm78 143L518 953l-167-39 186 112zM44 341L514 62l291 173L480 8z" />
    <path d="M330 865l-89-1 159-159-16 130zm212-476l-98 101 12-139 296-7zm74 337l191-160-9 104-70 39zM129 557l3-352-75 95 72 446z" />
  </g>
</svg>