<svg version="1.1" viewBox="0 0 1024 1024" width="1024" height="1024" xmlns="http://www.w3.org/2000/svg">
  <g fill-opacity=".5">
    <g class="brand-logo__filled">
      <path d="M-35 798l1072-6-59 123-933 13z" />
      <path d="M8 912l952 13 41-124-953-7zm1035-807l-83 120-960 1 30-120z" />
      <path d="M35 923l2-124h951l4 112zm22-692L18 111l950-10 18 119z" />
      <path d="M948 801l-573-4L36 908l740 12z" />
      <path d="M962 914L504 802l-476 4-19 82zM26 227l940-2-426-122-492 1z" />
    </g>
    <g class="brand-logo__extra">
      <path d="M-12 453l1016 4-5 126-962-3z" />
      <path d="M962 458l-926-2-17 119 949 4z" />
      <path d="M28 477l943-23 29 123-934 1z" />
    </g>
  </g>
</svg>