<svg version="1.1" viewBox="0 0 130 130" width="130" height="130" xmlns="http://www.w3.org/2000/svg">
  <path class="brand-logo__filled" d="M65.1 118.7H10.5c-6.4 0-9.8-3.8-8.8-9.5.9-5.2 4.5-6.5 9.2-6.5 33.1.1 66.1 0 99.2 0 3.5 0 7-.1 10.5 0 5.3.2 8.4 3.1 8.5 7.9s-3 7.9-8.4 8c-18.5.2-37 .1-55.6.1" />
  <path class="brand-logo__extra" d="M65.1 74.8H10.5c-6.3 0-9.7-3.8-8.7-9.5.9-5.2 4.5-6.5 9.2-6.5 33.1.1 66.1 0 99.2 0 3.5 0 7-.1 10.5 0 5.3.2 8.4 3.1 8.5 7.9s-3 7.9-8.4 8c-18.6.2-37.1.1-55.7.1" />
  <path class="brand-logo__filled" d="M65.1 29.1H10.5c-6.3-.1-9.7-3.8-8.7-9.5.9-5.2 4.5-6.5 9.2-6.5 33.1.1 66.1 0 99.2 0 3.5 0 7-.1 10.5 0 5.3.2 8.4 3.1 8.5 7.9s-3 7.9-8.4 8c-18.6.1-37.1.1-55.7.1" />
</svg>