<svg version="1.1" viewBox="0 0 1024 1024" width="1024" height="1024" xmlns="http://www.w3.org/2000/svg">
  <g fill-opacity=".5">
    <g class="brand-logo__filled">
      <path d="M949 262L455-32 60 790l894 2z" />
      <path d="M395 69L112 234l815 10L516 2zm473 727L96 776l409 232 361-186z" />
      <path d="M68 252l8 494 63 71 88-371zm879-17l3 542-100 44-42-406zM745 477l54-99-15-120-246 69zm19 291l-203-53 165-185 92 164z" />
      <path d="M434 488l219-216-356 231 190 165zM68 606l1 165 201-263L77 247zm755 235L560 990 153 823l389-82zm29-75l102-327-2-170-109-18zm-660-80l110 81 176-69-190-156zm2-402l158-5 130 45-195 160zm325 24L214 177 497 12l260 151z" />
      <path d="M581 512l-47 150 181-153-242-196zM68 255l220-122-110 153-2 551zm466 470L190 838l309 171 300-157zm233-242l117 295 67-111-2-397z" />
      <path d="M880 792l-758-1 391 231 56-32zm19-427l48-76 5-27-228-130z" />
      <path d="M490 350l144 106-247-20 24 186zm204 411l118-15-82-214-176 166zM332 221l177 92 246-125L506-8zM178 747l-72-498-40 516 237 137z" />
      <path d="M504 676l148-109-108 39-214-117zm47-360l181 169 90-175-74-56z" />
    </g>
    <g class="brand-logo__open">
      <path d="M356 616l300-376-213 92 169 199z" />
      <path d="M823 817l-329-82-322-407 78 218z" />
      <path d="M751 558L318 819l356-270 188-266z" />
      <path d="M563 314l347 395-343-319-318-171z" />
      <path d="M206 595l101-125 185-157-346 425zm102 167l-163-11 154 61 319-162z" />
      <path d="M689 228L277 467l363-184 207-45zm-263 24l-270 19 76 220-41-265zm344 558l104-96-157-272 103 269zM483 584l83-21-34-130-101 49z" />
      <path d="M857 285l-78-55 61 162-187 230zM407 602L181 404l226 248 316 166z" />
      <path d="M199 716l80-252-112 262 83 86zm312-362l217 130-234-189-233-83z" />
      <path d="M640 238L229 570l113-138 154-115zm218 494l-116 36-296-75 284 108z" />
      <path d="M453 710l374-242-322 254-293 94zM166 338l175 266-142-264 31-122zm689-50l-109-27-235 44 224-84z" />
      <path d="M360 234l368 249 127 228-163-223zM204 794l10-226-46 180 208 34zm282-212l-20-136 107 24-11 97z" />
    </g>
  </g>
</svg>