<svg version="1.1" viewBox="0 0 296 296" width="296" height="296" xmlns="http://www.w3.org/2000/svg">
  <path class="brand-logo__filled" d="M148 0l128 73.9v147.8l-128 73.9-128-73.9V73.9" />
  <path class="brand-logo__open" d="M54.9 220.5c17 21.8 71.1 5.2 122.1-34.7 51.1-39.9 80.2-88.3 63.2-110.1-17-21.8-71.1-5.2-122.2 34.7-51 39.8-80.2 88.3-63.1 110.1zm7.2-5.7c-5.6-7.2-3.2-21.4 7.6-39.3 11.3-18.8 30.5-39.5 54.1-57.9s48.3-32 69.3-38.4c19.9-6.1 34.3-5.1 39.9 2.1 5.6 7.2 3.2 21.4-7.6 39.3-11.3 18.8-30.5 39.5-54.1 57.9-23.5 18.4-48.3 32-69.3 38.4-19.9 6.2-34.2 5.1-39.9-2.1z" />
  <path class="brand-logo__open" d="M240.2 220.5c17-21.8-12.2-70.2-63.2-110.1C126 70.5 71.9 53.9 54.9 75.6c-17 21.8 12.2 70.2 63.2 110.1 51 40 105.1 56.6 122.1 34.8zm-7.2-5.7c-5.6 7.2-20 8.3-39.9 2.1-21-6.4-45.8-20.1-69.3-38.4-23.5-18.4-42.7-39.1-54.1-57.9-10.8-17.8-13.2-32-7.6-39.3 5.6-7.2 20-8.3 39.9-2.1 21 6.4 45.8 20.1 69.3 38.4 23.5 18.4 42.7 39.1 54.1 57.9 10.7 17.9 13.2 32.1 7.6 39.3z" />
  <path class="brand-logo__open" d="M147.6 167.7c10.8 0 19.6-8.8 19.6-19.6s-8.8-19.6-19.6-19.6-19.6 8.8-19.6 19.6c-.1 10.8 8.7 19.6 19.6 19.6z" />
</svg>