<svg version="1.1" viewBox="0 0 256 256" xmlns="http://www.w3.org/2000/svg">
  <path class="brand-logo__filled" d="M177.4 175.7c9.4-1 16.6-9.1 16.3-18.9-.3-9.8-8.5-17.6-18.2-17.6h-.6c-10.1.3-17.9 8.8-17.6 18.9.3 4.9 2.3 9.1 5.2 12.1-11.1 21.8-28 37.8-53.4 51.1-17.3 9.1-35.2 12.4-53.1 10.1-14.7-2-26.1-8.5-33.2-19.2-10.4-16-11.4-33.2-2.6-50.5 6.2-12.4 16-21.5 22.2-26.1-1.3-4.2-3.3-11.4-4.2-16.6-47.2 34.2-42.4 80.5-28 102.3 10.8 16.3 32.6 26.4 56.7 26.4 6.5 0 13-.7 19.5-2.3 41.5-8.1 73.1-32.9 91-69.7zm57.3-40.4c-24.8-29-61.2-45-102.9-45h-5.2c-2.9-5.9-9.1-9.8-16-9.8h-.7c-10.1.4-17.9 8.9-17.5 19 .3 9.8 8.5 17.6 18.2 17.6h.7c7.2-.3 13.4-4.9 16-11.1h5.9c24.8 0 48.2 7.2 69.4 21.2 16.3 10.8 28 24.8 34.5 41.7 5.5 13.7 5.2 27-.6 38.4-9.1 17.3-24.4 26.7-44.6 26.7-13 0-25.4-3.9-31.9-6.8-3.6 3.3-10.1 8.5-14.7 11.7 14 6.5 28.3 10.1 42 10.1 31.3 0 54.4-17.3 63.2-34.5 9.3-18.9 8.6-51.5-15.8-79.2zm-165.5 46c.3 9.8 8.5 17.6 18.2 17.6h.7c10.1-.3 17.9-8.8 17.6-18.9-.3-9.8-8.5-17.6-18.2-17.6h-.7c-.7 0-1.6 0-2.3.3-13.4-22.2-18.9-46.3-16.9-72.3 1.3-19.5 7.8-36.5 19.2-50.5 9.4-12.1 27.7-17.9 40.1-18.2 34.5-.7 49.2 42.3 50.2 59.6 4.2 1 11.4 3.3 16.3 4.9-4-52.8-36.5-80.2-67.8-80.2-29.3 0-56.4 21.2-67.1 52.5-15 41.7-5.2 81.8 13 113.4-1.6 2.2-2.6 5.8-2.3 9.4z" />
</svg>