<svg version="1.1" viewBox="0 0 1024 1024" width="1024" height="1024" xmlns="http://www.w3.org/2000/svg">
  <g fill-opacity=".5">
    <g class="brand-logo__filled">
      <path d="M159 128L-62 566 747 59 475-40zm557 862l172-130 198-366-231-387z" />
      <path d="M107 835l360 221 265-82-794-532z" />
      <path d="M680 363l23 259-329 137 8-469zM311-62L719 44l136 80 137 180zm180 1102L200 551 24 694l153 208z" />
      <path d="M498 1037L71 780l520 34 214 126zM289 52l-48 419L9 420l88-213zm434 700l109 164 218-368-95-298z" />
      <path d="M676 314L499-41 58 262l496-49zm37-22l279 396-37-439-109-125z" />
      <path d="M451 571l386-47-416-205L290 50z" />
      <path d="M306 507l51-129 341 237-295 98zm384 491l-265 16 552-268-102 132zM154 882L68 749l192-253-60 402z" />
      <path d="M1064 441L574 830l52-103 321 66zM28 667l47 118 54-607L3 462z" />
      <path d="M524-36L145 150 24 382l179 73zm84 359L313 475l217 250 173-295zm184-61l-186 24 396 105L658 20z" />
      <path d="M688 52L522-11 233 78l375 157zM287 974l-123-89 456-95-24 226zm435-8l251-228 36-95-122-459z" />
      <path d="M-62 402l383 532 193-474-162 300zm1071-66L771 68 209 90l505 59z" />
      <path d="M730 498l-91 183-162 40-159-170z" />
    </g>
    <g class="brand-logo__open">
      <path d="M136 400l414-93 261 250-88-439z" />
      <path d="M827 436L721 905 160 639l430 74z" />
      <path d="M482 853L75 513l318-285-81 323zm76-57l262-390-311-190 327 390z" />
      <path d="M443 210l153 30-361 208 15-101zm203 516l-220-28-36 85 105 31zm-242-45L129 431l161 277 51 59zm380 138l-94-88-79 87 59 77zM672 288l-62-76 104-77 60 89z" />
      <path d="M400 336l-154 38 44 356 30-278zM194 437l-89 36 7 104 102-3zm512 61l6-216 79 122 19 71z" />
      <path d="M630 346L372 243l183-38 260 294zm198 166l-92 209-316-23 45 107zm-518-85l-75 163 27 83 74 83z" />
      <path d="M574 805l-129-3-58-59 303-71z" />
    </g>
  </g>
</svg>