<svg version="1.1" viewBox="0 0 1024 1024" width="1024" height="1024" xmlns="http://www.w3.org/2000/svg">
  <g fill-opacity=".5">
    <g class="brand-logo__filled">
      <path d="M-62 593l1148-21-228-461L406-62z" />
      <path d="M192 110L50 290-62 662 641-62z" />
      <path d="M556 1086L178 918-62 470l1064 278z" />
      <path d="M1086 304l-95 396-81 146-182 145z" />
      <path d="M317 993l314 59L5 632l182 286zM774 70L652 792l405-287-119-286z" />
      <path d="M230 800l70-757-189 139-160 395zm155-485l141-61 144 524-382 18zm560 478l100-277-618 570 402-161z" />
      <path d="M112 835l119 112 8-883L24 687z" />
      <path d="M611 528l383 173 2-363-334 74zm-267-88L68 776l-1-515 104-132zm110 408l476-32-408 233-398-207z" />
      <path d="M637 367L506 774 342 350l221-121zm376 44L298 46l574 94 112 164zM753 665l57-18 26 45-384 129z" />
      <path d="M484 249L212 96l139-69 192-39zm206 175L585 5l150 43 145 104z" />
      <path d="M622 1018l174-72-6-189-534 202zm13-528l45 187 340-244-284-292zm75 262L344 474l-48 114 232 232z" />
      <path d="M118 847l260-10 408 114-521 14z" />
    </g>
    <g class="brand-logo__open">
      <path d="M199 848l139-523 295-213-231 244zm475-664l-98 350 280 180-234 106z" />
      <path d="M454 868l346-101-496 75-79-130zm173-562L515 167l155 81-14 211zm184 298l87 99-109-48-193 57z" />
      <path d="M264 807l-44-171 113 208 361-9z" />
      <path d="M514 853l130-34 229-128-13-26zm74-342l101 225-60-253 55-203zm17-346L337 311l11 199 8-165z" />
      <path d="M388 432l-34-37-73 149-15 36zm-32 397l222-15-180 54-2-134zm502-202l-108 3-111 44 1 46z" />
      <path d="M244 646l98-204-97 322-16-69zm323-467l-99 129 54-128 159 143zm103 428l-95-91 31-47 45 221z" />
      <path d="M567 843l-296-14-38-191 60 164zm295-128l-216 72 189-104 1-76z" />
    </g>
  </g>
</svg>