<svg version="1.1" viewBox="0 0 1024 682" width="1024" height="682" xmlns="http://www.w3.org/2000/svg">
  <path fill="#5a4946" d="M0 0h1024v682H0z" />
  <g fill-opacity=".5">
    <g class="SVG--0">
      <path fill="#a99674" d="M19.3 707.4l994 5.6 41.7-420L-31 558.7" />
      <path fill="#00001e" d="M1055 234l-1086 4L3.2-28.3 1035-31" />
      <path fill="#000e7d" d="M857-31L512.3 349.4l-158-191L147-8" />
      <path fill="#b53100" d="M857.2 6.5l-280.8 260-55.3 112L1035-24" />
      <path fill="#3c0900" d="M1055 446.3l-5.7-66.3-159 17.7-324.7 70.5" />
      <path fill="#a72700" d="M135-12.8l298.5 259.4 55.8 91.7L-31 4" />
      <path fill="#553517" d="M473.3 467.7l338 83-122.8 57.7-412 6" />
      <path fill="#fff" d="M-31 563l166.2-4.3-41 31L-31 583" />
      <path fill="#8adde5" d="M590.7 513.7l201.8 3 23.7-57.2-107 10.7" />
      <path fill="#e1ba9b" d="M547.4 455l69.2-220.3-69.7 82 111 127" />
      <path fill="#fff9f1" d="M905.4 593.8L889 482l21.2 67.8 144.8 34.8" />
      <path fill="#2b0000" d="M464.2 356.7L64-31-31 84.2l297.3 130.3" />
      <path fill="#d69970" d="M344.4 445.8l146.3 9.8-109.8-253L488 321" />
      <path fill="#ff753e" d="M710 346.6l318-75 27-56-177.4 66.8" />
      <path fill="#965d35" d="M-31 271l536.5 128L77.2 188 46.5 87.6" />
      <path fill="#350000" d="M594.6 333.8L1055 38l-89.5-69-369 343" />
      <path fill="#002d7c" d="M607.6 144.3L381 122.7 504.3 376l24 11.5" />
      <path fill="#99b9a5" d="M816 404.2l18.8-63.4 220.2-37.2-16.2 72" />
      <path fill="#a5d3cb" d="M995.3 524l-.5-78L811 474.5l115 9.3" />
      <path fill="#7ba197" d="M453 391L231.4 241l-2 13.5-87-.4" />
      <path fill="#061c0c" d="M83 474.4L74.7 511l130.8 7.5 20.3-66" />
      <path fill="#500000" d="M647 371.2l408-159-56-9.5L577 391" />
      <path fill="#90906b" d="M28.3 341.4L389.6 428l-366-38.4-54.6-18.3" />
      <path fill="#6b9897" d="M800.3 238.3L773 305l-62 24.4L524.6 421" />
      <path fill="#892d05" d="M-31 419.4L62.8 389 522 477.5l-407.4-41.8" />
      <path fill="#02261f" d="M313.8 485.4l61 30.2 10.2-47.2-214-27" />
      <path fill="#1c1a11" d="M672.7 420.8l88-84.8 294.3-65.2L624.6 402" />
      <path fill="#ab8c7a" d="M-.8 673.7L250.5 518l-220-5L545 663.3" />
      <path fill="#20251f" d="M693.4 482.2l-183.2 38-47-14.8 242.7-47" />
      <path fill="#cb745a" d="M847 36.6l-99.4 93.8-215 228.3 93.8-139.5" />
      <path fill="#1f230f" d="M24.3 285.4L147.5 309l151 41.5-50 33.4" />
      <path fill="#9abd9d" d="M174 446L66 477.4l-10.8-16.6L-31 443" />
      <path fill="#bdd9bc" d="M482.3 534.4l74.7-16-192.8-3 48.3-38.3" />
      <path fill="#da562e" d="M8 279l-39-56.7 177.4 61.3 169 63" />
      <path fill="#b99686" d="M656.8 664.2l-420.7-4 138-28.7 616-10" />
      <path fill="#a0661a" d="M103 564.2l366.4-10.7 16.4-39.8-253.4 6.5" />
      <path fill="#4b0000" d="M203.6 283.3l130.5 66L1 231.7l-32-42" />
      <path fill="#a05f1d" d="M839 573l-334.4-49.6 331-6.2 153.6 32" />
      <path fill="#37858b" d="M467.5 511l-259.7 4.6 19.8-68.4-2 20" />
      <path fill="#ffe4ae" d="M461.3 306.6l-5.7 57.7-9.2-21.3-8-82.4" />
      <path fill="#fb9e71" d="M605.7 390l127.7-50.5 10.5-.5-175 87.4" />
      <path fill="#ceceb4" d="M659.8 457.4l145-16.8-106.3 23 13.3-2" />
      <path fill="#2c898c" d="M720.4 502.2l56 13.6 187-13.5-86.7-23.3" />
      <path fill="#1e0000" d="M1037.2-21.5L579.6 327.2l263.3-158 195-74" />
      <path fill="#520c00" d="M360 391.4l109.6-14.2 166.7 2.8-29 10.6" />
      <path fill="#aa5938" d="M398.5 221l-126-113.7L129.3 5.5l280.2 261.2" />
      <path fill="#100000" d="M226 168L92 104.4l352.4 228L399 273" />
      <path fill="#9fbcad" d="M397 432l-118-2.3 172 30.5-65.5-55" />
      <path fill="#605642" d="M1055 192.8l-314.6 94.7 214-104 29.8-82.2" />
      <path fill="#77674b" d="M156.2 161.7l151 78.6-35-1.3-240-116.4" />
      <path fill="#00417e" d="M458 415l113.5 2 29-19-109.7-2.8" />
      <path fill="#a88278" d="M1008.2 589.7l-81.4 67L616.2 713l190-143" />
      <path fill="#5c1300" d="M692 452l335-41.3-45-132.4 16 102" />
      <path fill="#477271" d="M785.8 422.2l50-66.6-92.4 1-139.2 95.8" />
      <path fill="#00124d" d="M371.7 187.2L128.7-31h780l-252 212" />
      <path fill="#0b312d" d="M70.2 439.3l-101.2 75 99.8 40.2-26-59.7" />
      <path fill="#ffefdf" d="M119 584.6l-.8-79.2 11.6 49.4L-31 569" />
      <path fill="#ffd1a5" d="M589 265l-12.4 103.8-15-25 6-47.3" />
      <path fill="#6e5c4a" d="M747.3 239.3l-150.5 95.4 202-147.7L1055 92.4" />
      <path fill="#3e302b" d="M531 535l-238.6 42.5 264.3 27.8L630 574" />
      <path fill="#eb7b4b" d="M350.6 363.6l71.4 28 28.7 27.7-195.8-92" />
      <path fill="#fff" d="M911.6 556.3L904 545l11.5 33.8h126.8" />
      <path fill="#373e38" d="M1007.4 510l-89 45.2L1055 551l-40-138.2" />
      <path fill="#00256b" d="M698.4 127.4L559 292.4l-21.3 48-307-285.8" />
      <path fill="#200" d="M-2.5 110l242.2 76.3L-31-31v87" />
      <path fill="#51afb2" d="M197.5 384.5l56.3-2.4 58.8-9-34.4 29" />
      <path fill="#e29b77" d="M951.2 255l-57 24.4 160.8-19.7V214" />
      <path fill="#d28c6d" d="M1027 409l28 11-206.2 18.4 59.6-10" />
      <path fill="#c9a69e" d="M768.7 564.4l-113.3-8.7 135 22.5 97 2.8" />
      <path fill="#062f3a" d="M832.3 199l126-36-315.7 173 20-40.4" />
      <path fill="#7b2e0d" d="M484.7 575.8l-6.4-104.5 154-13-183.8-5.4" />
      <path fill="#d9e7e9" d="M807.5 473l-76 3.4-55 16.8 57.4 3" />
      <path fill="#ffca8a" d="M816.6 522.3l.7 46-18-8.6 6.3-39.6" />
      <path fill="#5f0e00" d="M1055 22.2l-270.4 154 75.6-141.8 90-65.4" />
      <path fill="#5d4942" d="M540 669.7l312-22-372.7 51.6-288.4-40" />
      <path fill="#395653" d="M207.4 272l17 11.2-13.3-65.8L-31 190" />
      <path fill="#b9dcca" d="M638.6 425.5L589 465l24-76-21 13" />
      <path fill="#003783" d="M472.3 223.2l29.4 229.5-9-53 110.6-178.2" />
      <path fill="#61a49b" d="M87.8 461l-11 66-30.5-95.7 1 77.2" />
      <path fill="#a65e4b" d="M988.2 147.2l6 60.4 10.5 254.7-17.5-125.8" />
      <path fill="#c19a5e" d="M43.5 525.6l171 41.7 16.3-109.7-16 56.5" />
      <path fill="#b1d5da" d="M705.7 319.7l5.3 11.5-73 31.6 65-40" />
      <path fill="#af935f" d="M669 520.6l-36.5-40-82 52.6-55.7-11" />
      <path fill="#280000" d="M864-10.2l-195.7 181-76.3 80.7L870.5 2" />
      <path fill="#a54119" d="M458.8 450l29-125-24.6-9-24.6 84.8" />
      <path fill="#414432" d="M898.7 521L811 507.6l-2-238.2 23.6 221.3" />
      <path fill="#362719" d="M817.5 347.2L683 371l265-88.3 107 16" />
      <path fill="#15342f" d="M897.7 456.4l157.3-26.6-173.5 6.8-200 32" />
      <path fill="#b8c4ba" d="M943 470l14.2-2-121.5-3.5-2.7 38" />
      <path fill="#6f1b00" d="M415 311.2l33.5 69.4-8.8-80.4L185 89.2" />
      <path fill="#681700" d="M-19.8 33l140 89 216.6 55-191-152" />
      <path fill="#aebbaf" d="M397.6 333.4l16 31L224 287l157.5 74.3" />
      <path fill="#142f31" d="M384.2 308.8L224.7 209l140.5 121.7 21 6.3" />
      <path fill="#561800" d="M202 301.4L319.8 331l-13.2-7.4 128 72.5" />
      <path fill="#6b554b" d="M405.7 546l18 84-144.2-14-92.8-25.4" />
      <path fill="#abdcde" d="M438.5 498.7l-60 3.7 17.3-18.2 43-1.3" />
      <path fill="#000100" d="M946.6 127.8L1054 60.5l-222.6 81.3-86 72.6" />
      <path fill="#8acac0" d="M232 525.8l10.2-53.2-20 8.3-6.2 28" />
      <path fill="#abcecf" d="M942 366l-81.6 1.4 72.4-24.5h-80" />
      <path fill="#9f9579" d="M6.3 349.6l139.4 14.2L32 385.6l-43.2 1.7" />
      <path fill="#c4a49c" d="M255.3 672l82 8.5L154 713l37.3-47.7" />
      <path fill="#4a0700" d="M967.7 247l-150 57.4-98.5 22 287-121.5" />
      <path fill="#243532" d="M283.5 466L259 511.4l-18.2 3.6-5.5-42.8" />
      <path fill="#d7a182" d="M649 462.4L782 442l273-34-285.5 40.6" />
      <path fill="#c08667" d="M526.6 521.6l-55.2-53.8 136 .7-85.6 17" />
      <path fill="#9eaaa0" d="M329 331l-163.3-62.5 7-59 3.8 49.7" />
      <path fill="#1c0000" d="M761 187.8l-180 145-3.2 38.6 12.5-23.7" />
      <path fill="#f5d6b6" d="M598.7 396l57.3-22-92.6 49.7 10.3 25.5" />
      <path fill="#434e3d" d="M271.7 336.5l107.8 122.2 25-68.2 40.3 51" />
      <path fill="#6c816b" d="M1014.2 433l-1.6 120-32.7-87-145 1" />
      <path fill="#65b3b2" d="M715 388.2l38 24.2 3-33-37-14" />
      <path fill="#974d2e" d="M542.6 308l53 77.8-52.6 83.7 18.5-62" />
      <path fill="#b9e4eb" d="M871.4 352l-43.8-5.8 8 14 39.3 7" />
      <path fill="#6c4c21" d="M239.5 547l158-20.5-36.3 28.2-157.8 14.8" />
      <path fill="#977e79" d="M-31 590.6l306.7-28.2-119 150.6 31-16.8" />
      <path fill="#ffbf88" d="M482.3 396l-43.2-3.4 156-.3-18 4" />
      <path fill="#4b7d7b" d="M625.8 487.2l66.3-5-2 37-64-15.7" />
      <path fill="#bab4a0" d="M963 360l92-23-.4 46.2-70.7-.6" />
      <path fill="#bb4a2a" d="M911 283l-161.6 64L636 384.3l174-77" />
      <path fill="#84b9b1" d="M271.7 519.7l-2.2-42.6 41.5 13-22.4 29" />
      <path fill="#d0aa97" d="M824.6 661.2L698 677.7l-68 3.4 134 32" />
      <path fill="#4f3725" d="M56 411l222.6-72.5L48.6 462l53.2 4" />
      <path fill="#585037" d="M244.7 196.7L86.2 171.3-31 201.6l46.2-85.8" />
      <path fill="#140000" d="M304.6 122.7L144.3-16.7l12.2 30.2L358.2 175" />
      <path fill="#8b9482" d="M368 424.7l-200.8-14.2L274 428.3l213 27.3" />
      <path fill="#fff" d="M918 466.3l14.6 13.7-43.7-3 12-11.8" />
      <path fill="#281204" d="M-31 441.5l62.8-51-59.8 33 195.2 19" />
      <path fill="#3f574d" d="M755.4 453.4l10.2 23.3-1.6 60.6-8.2-70.4" />
      <path fill="#101215" d="M545.3 513.8L579 510l20-21.6-69.8-7" />
      <path fill="#29201f" d="M963.7 389.5l5.7 96.3 2.5 53 6 3.7" />
      <path fill="#893414" d="M558.6 430l-32-4.8-121 8.8 159.4 3.2" />
      <path fill="#521600" d="M952 357.2l33 60.2L688.7 439l297.8-48" />
      <path fill="#2f251e" d="M435 479.4l80.5 36.7-17-40-53 39" />
      <path fill="#c9a179" d="M891 528.4l15.2 91.2 3.3-104.4-26.8-22.4" />
      <path fill="#000400" d="M54.7 113.6l-7.6 8.7 242 89.4-171-98" />
      <path fill="#2c271c" d="M401.2 485l-1.3-15.2-90-13.6 34 40.8" />
      <path fill="#c0c4bb" d="M53 443l-9.3 21.5L4.5 442l-35.5 3" />
      <path fill="#426063" d="M722.3 303.4l-61 4.7 122.4-66 183.5-20" />
      <path fill="#ca6b4e" d="M-31 224l74 57.2 4.8-138-11 100.8" />
      <path fill="#54371f" d="M-19.2 559l-11.8-7.8 145-5.4-6.5 10.3" />
      <path fill="#d77362" d="M989.7 248.4l3-15 .5-58-7-48.2" />
      <path fill="#a0b07c" d="M182.8 373l-3-17-76.6 10.6 27.5-10.3" />
      <path fill="#645f5a" d="M-31 608l189.3 79.6-176.2-22 46-242.3" />
      <path fill="#d9c78c" d="M544 523.5l-81.3 17.3 26.3-21.5 71.2 2" />
      <path fill="#71594b" d="M923 626l-75 29.2-176.8 25.2 243.5-60" />
      <path fill="#19241d" d="M208.5 245.3l2.3 58.5 18.5-91.5L56 151.5" />
      <path fill="#d06143" d="M34 443.4L36 252l3 22.2 5-.4" />
      <path fill="#5b2c0b" d="M893.2 570.4l2.3 9-82.7-11 25.5-7.8" />
      <path fill="#004276" d="M548.2 422L502 432l-20-33.5 87.3-.5" />
      <path fill="#0e1711" d="M52.2 512l-30.4-68-2.8 81 21.3-12.8" />
      <path fill="#018ba4" d="M755.7 498l32.5 15.6 32.2 2.2-16.7-23.4" />
      <path fill="#692009" d="M17.8 414.6l314 29L34 391.3-31 377" />
      <path fill="#d7e2e1" d="M814 457.6l-76.7 37.8-55.6-14.4 117.8 2.5" />
      <path fill="#45c3e7" d="M234 376l-4.5 22.4 26.6-4.2-26-24" />
      <path fill="#3f2f24" d="M878.6 399.8L870 293.4 845.2 324l36.2 15.4" />
      <path fill="#a15241" d="M985.7 187.8l-4.6-131 9 41 2 100" />
      <path fill="#35332b" d="M886.4 446l-2.6 58.7-14.6-63-107.5 9" />
      <path fill="#86a9a8" d="M776.4 299.5L779 273l-62.6 50.2 71-25.3" />
      <path fill="#cd9276" d="M571 487.3l54.6-19-141-.2 74 12" />
      <path fill="#b3bfb8" d="M389 453.7l112.3 1.8-88.6-7-14.4-40.6" />
      <path fill="#a3cbc7" d="M948.4 469.6v19.6l66 18-79.3-5" />
      <path fill="#40341f" d="M66.2 359.8l124.5-41.5-121.2-27-4 170.3" />
      <path fill="#515c51" d="M302.5 266l-6 6.8-10 33.6 121 60" />
      <path fill="#c8d3bc" d="M387.6 517.2L380 488l31.7 22.8L296 516" />
      <path fill="#283f36" d="M713.4 419.5l3.5 49v35.8l5 .3" />
      <path fill="#825617" d="M693 554.7L524 503l31.8 1-30 44.6" />
      <path fill="#a75843" d="M42 226l.4-135.8 2 16L55 59.5" />
      <path fill="#262a1f" d="M336 362.7l-151.8-26L379.5 394l-100.8 16.4" />
      <path fill="#574c3e" d="M778 430.3l-8.6-39.2L882 410l-39-22" />
      <path fill="#572000" d="M577 391.4l-219.6-11.7 264.3 7.4L772 313" />
      <path fill="#96432e" d="M675.8 174L817.4 48l-82.8 123.4L588.8 297" />
      <path fill="#00134d" d="M889.5-31H119.8L246.5 72.3 659.8 180" />
      <path fill="#edaf80" d="M437.8 467.4l-35 .5 75.3 20-27-11" />
      <path fill="#9d6730" d="M188.7 524.7l-.8 47-68 7.4 19-39" />
      <path fill="#722405" d="M930.8-31L889 74.4l-184 149-127.4 105.8" />
      <path fill="#131011" d="M688 285.7l217.7-117-97 38.4-127.3 79" />
      <path fill="#282c24" d="M1007.8 457l24-55.7-16.2 133 6.7 16.2" />
      <path fill="#000300" d="M653 286l30.3-45.6 169.4-79.7L750 222.3" />
      <path fill="#6f2609" d="M391.3 460l250.4-5-23.3 10.4-134.8 3.5" />
      <path fill="#90c0b4" d="M292 388.6l-14.4 22.2L276 371l6-3.8" />
      <path fill="#abbcb2" d="M637.6 425.8L637 396l-30.5 60-49-1.4" />
      <path fill="#4b4334" d="M227.8 439.7l-58-129.2 96.3 138 11-110.2" />
      <path fill="#282a21" d="M100 469l116.3-7.4 1.7 55-139-10.2" />
      <path fill="#d4a980" d="M128.3 616l-2.6-84.8 14.6-18H111" />
      <path fill="#e3a37c" d="M447.7 419.2L358 367.8l69 27.2 30.6 65.7" />
      <path fill="#cf7a56" d="M297 134.5l175.4 170.3 1.2 29-35-71.6" />
      <path fill="#eff0f1" d="M995 584.6l-10.5-19 8-5.2-82 6.8" />
      <path fill="#bd7055" d="M747.4 269l-.3 120.7 2 55 6-57" />
      <path fill="#573f21" d="M729 560.7l65.8 5.2 6.7-30-29.5-11" />
      <path fill="#587d70" d="M791.5 483l65-1 95.6-4.3-41 41.5" />
      <path fill="#171b12" d="M864.8 514.8l19-17.4-47 16.4 7 3" />
      <path fill="#9c9c8f" d="M639.4 627.7l171-25.8-49.8 18-55.8 6" />
      <path fill="#af9e8f" d="M996.2 207l22.5-7-10.2-12-4.6 5.2" />
      <path fill="#89553e" d="M986.7 341l30 16.8L989 271l15 172.6" />
      <path fill="#003881" d="M458.3 254l36 105 44.3 10.8-9-125.2" />
      <path d="M345.5 264.4l79.3 65-76-81.5-150.6-76" />
      <path fill="#b15640" d="M756 114.6l121.4-95L912.6-18l10-13" />
      <path fill="#0f0001" d="M328 150l129.7 126.5-46.4-55-61.6-60" />
      <path fill="#5d443f" d="M963.6 645l-94.2 23 1.2 27.6-40.3 17.4" />
      <path fill="#91bfc0" d="M82.2 484L73 503.3 63 463l19.7 4.4" />
      <path fill="#292b22" d="M115.3 513l-31-46.6 178 14.7L69 477" />
      <path fill="#d7deda" d="M748.4 478.6l9.7 33-29 8.6 6-.8" />
      <path fill="#7a8869" d="M199.8 451.6l-12-3.7-52.2 25-79.4-35" />
      <path fill="#ae887f" d="M943 660l39-52-17 63-151 42" />
      <path fill="#61483d" d="M976.7 121.3l-63 17.7-147.2 76.2 200-67.8" />
      <path fill="#6a4834" d="M687.3 469.6l-60.5-25-6.5-66.7 2.3 96" />
      <path d="M40.7 125.8L-31 99.2l7.2-27L45 88" />
      <path fill="#a5807b" d="M860 89.8l18.4-9.8-2.5.7-13 19" />
      <path fill="#ad632a" d="M895.2 518.7l-.6 48L825 564l-15-47.3" />
      <path fill="#ffd9ae" d="M445 332l-4.4-33.2 18.6-7.4-6.7 55" />
      <path fill="#2f4b49" d="M787.3 413l9.6-68.4-85 29 30-24" />
      <path fill="#63584c" d="M136 654l86 13-137.6-35.5 3.5-16" />
      <path fill="#f7be69" d="M617 503.5l-19-6-1.4 17 25.2-1" />
      <path fill="#707662" d="M933.8 365l-49 8.5 37.8 40.6-5.3-5" />
      <path fill="#141413" d="M797 213.2l133-18.4 54.8-21.4-44.4-20" />
      <path fill="#efbba0" d="M-31 374.7l67.5 4-3 31.4-2-34" />
      <path fill="#fedcbc" d="M577 305.7l-9.2-12 5.5 65.6 7.2-19.3" />
      <path fill="#575346" d="M892.5 378l67 .2 7-75.7 1.2 78.8" />
      <path fill="#1b251a" d="M157 374l44.2-11.7 19-37-1 58.3" />
      <path fill="#402b27" d="M529 581.8l-219-11.6 234.7-15 35 24.8" />
      <path fill="#3f4034" d="M392.7 417.4l-31.3 96.2-41-5.5 72.5-40" />
      <path fill="#9ca692" d="M962 486.6l59.5-49L947 454l48.4 4" />
      <path fill="#3d0000" d="M-31 59.3l290.2 122.3L59.5 36.3 23.3-31" />
      <path fill="#2f302a" d="M685.6 417l13-8-44-19 68.2-28.4" />
      <path fill="#8b7863" d="M181 237.8l113.4 61.8-294.6-143L73.2 198" />
      <path fill="#252e28" d="M127.8 488.4l-10-41.4-13 31.3-101-1.6" />
      <path fill="#dde0d4" d="M797.5 462.4l-75.6 7 36 1.7 52-3" />
      <path fill="#322e2a" d="M846.4 244.2l-70 32 6 23.7-3 12" />
      <path fill="#0d1d22" d="M246.6 224.3L348.2 291l-98.5-48-91.4-55" />
      <path fill="#b75e3c" d="M281.3 382.2l4.6-90.6 2-23.6-4-96" />
      <path fill="#bc9693" d="M801.5 575.7l187 6.2 51.5 6-14.6 12" />
      <path fill="#484b40" d="M233 225l-11-51-28-5.7L271 281" />
      <path fill="#7b7067" d="M948.3 27l11-7.3 11.4 1-9 10.6" />
      <path fill="#2e413d" d="M437.2 507.7l-24.7-10L410 510h21.3" />
      <path fill="#9d4028" d="M573.8 370.8l80-157.4-64 83.7-7 33" />
      <path fill="#2c3026" d="M67.4 510l-2.2-81.5-17.2 45 8.2-43.5" />
      <path fill="#a94829" d="M334.7 372l-24.4-12.8 97.5 22.7-182.5-64" />
      <path fill="#ae4c23" d="M555.6 295.8l10.6 76.2-29.4-16.4 7.4-30" />
      <path fill="#200601" d="M994.3 156l-1 62.6L986 27.3l69 14.4" />
      <path fill="#c7a595" d="M613 660.5l-67.7.4 39.5-9 225.6-7" />
      <path fill="#347e7c" d="M60.2 480.8l-2 53.4-13-30.7 1.4-36.6" />
      <path fill="#526f66" d="M758.4 453l-74 6.3 83.7 9-8 40.7" />
      <path fill="#bbd7d2" d="M701.3 505l-6.3-19-7-16 21 1.6" />
      <path fill="#993f22" d="M838 315.4l217-45.7-135.5 10-198.3 73.7" />
      <path fill="#606963" d="M898.3 250l-69 22.6 77.4-62-69.2 22.3" />
      <path fill="#ae9f86" d="M1006.2 499.8l-1.8 54 10.2 7-4-64" />
      <path fill="#aa8e69" d="M922.6 520l44.3 32.5 3-26.8h-5" />
      <path fill="#634f48" d="M621.4 616.4l-155-3 177-58.6L805.8 595" />
      <path fill="#92beb1" d="M636.4 363.7l-6 4.8 7.7-26-14-6" />
      <path fill="#5b2001" d="M52.7 222.2l282.2 119-211-67L33 242" />
      <path fill="#407675" d="M241.6 392.5l6.2-33.8-25.2-8-2 10" />
      <path fill="#d4dcdf" d="M971 362.4l-5.4 12.2 26-9.4-5-19.8" />
      <path fill="#151c24" d="M451 515.5l-12.5-37.2 26 27-10 8" />
      <path fill="#6d2404" d="M232 90l84 126L161.6 97 42.6-31" />
      <path fill="#434036" d="M417 439l-8.4-24.2 26.5 5.8-14 28.6" />
      <path fill="#29251c" d="M996.5 431l-38.3 19.7-169.3 5L918 434" />
      <path fill="#f2dbb7" d="M639.8 379.2l2.5 2.7-58.5 38-12.4-3" />
      <path fill="#f2f2ef" d="M124.2 555.3L-31 578l68.4-1.2 63-5" />
      <path fill="#433f34" d="M1055 460.4l-38.4 38.2 38.4-44.4-181.3 11.3" />
      <path fill="#bdc6b0" d="M2.5 372.2l-33.5-27 50.2 46.2 14.6-13.2" />
      <path fill="#1f0000" d="M440 328.4l-8 13-28-31.4-7-18.5" />
      <path fill="#b8c2c6" d="M955 356l-30 12.4 10.6 7.6 24-12.4" />
      <path fill="#c59c6f" d="M220.6 503l-23 59.6L139 531l75.7 53" />
      <path fill="#feb986" d="M455.2 398l40.2-4.4-87-.7 48.8 6" />
      <path fill="#b3b88f" d="M70.8 448.6l-17-4.7 30.4-1 45.4 4" />
      <path fill="#0d1116" d="M571.8 512.7l-93 3.3-3.6-6 77-.4" />
      <path fill="#675651" d="M880.7 155.2l-121.4 81.2 1.4-13 80.5-53.2" />
      <path fill="#5c2304" d="M411 385.6l250.5-8.7-108.2 14-97-1" />
      <path fill="#d5e3da" d="M960.6 460.8l-22.3 32 6.7-24.5 22.8 23.2" />
      <path fill="#1f0e00" d="M597 253.3l-48.6 48.2 68.3-78.7 104.8-101.3" />
      <path fill="#678881" d="M394.6 423.3l-74-18.6 35.3-3 29 20.3" />
      <path fill="#9ab9af" d="M394.2 335.6l17 40.6 10 3.2-27.8-12" />
      <path fill="#d6d9c2" d="M603.3 442.3l1-54.8L598 456l26.7-5" />
      <path fill="#91684b" d="M642.4 385l-81.8 78.5 3.3 44.7 19-88" />
      <path fill="#8f6d5d" d="M829.3 626.4L945 584.7 656.2 645l141.2-7.7" />
      <path fill="#ddb497" d="M632.6 467.5H517.2l86.4 1.4L842 435" />
      <path fill="#b39082" d="M769 671.8l98 1.6 90.7-45 9.6-2" />
      <path fill="#eef0f3" d="M898.4 365.6l21-4.7-30.4-5 13 17" />
      <path fill="#9a8e59" d="M827.2 459.8l-2.7-9.2-2.2 37.7 7.8 84" />
      <path fill="#966733" d="M456.3 460.5l31.5 93.3-103.7-31 81-11.6" />
      <path fill="#877c7d" d="M76.5 30.8l4.8 4.2-15.6-1.4 12.5 12.2" />
      <path fill="#a85536" d="M103.4 434l155.3 12.3L112.3 425-31 409.3" />
      <path fill="#43625d" d="M897.2 501.4l-8.5-25 75.4 19-26-4" />
      <path fill="#2f2d26" d="M642 465l70.5-3.2-67.3 29.6 6.7 16" />
      <path fill="#715351" d="M1000.2 601.2L988.5 713h58l6.8-97.4" />
      <path fill="#baa197" d="M206.2 578.4l157.8-23-98.6 8-36 3" />
      <path fill="#4d655d" d="M953.8 350.3l-85.8 11 85-17.2h26.8" />
      <path fill="#988b67" d="M167.4 399.5l8.6-15 21.2 35L239 410" />
      <path fill="#306f70" d="M8 452.7l-33.5 75 18-8.5 30-10.2" />
      <path fill="#1c322d" d="M91.8 171.6L53.3 183l108.3 47.7 25.8-1.8" />
      <path fill="#9eada1" d="M233.2 295.2l-6.6-19.2 6-17.4L256 305" />
      <path fill="#b7644b" d="M682.7 172.6l-95.2 93.2 88.5-76.6L853.3 33" />
      <path fill="#59848a" d="M765 243.7l-3.5 58.6 21-41.6 19 2" />
      <path fill="#4c6c69" d="M152.6 252.5l12 10.5-56.2-16.6L60 220" />
      <path fill="#d7d1a9" d="M537.5 533.4l-19-16.3-36.2 14 63.2-16" />
    </g>
    <g class="SVG--1">
      <path fill="#bdcfcd" d="M627 487.6l9.7-7.8-.7 27.5-10.6-29.3" />
      <path fill="#809780" d="M812 461l46.6 7.7 76.8-14.3-73.8 1.6" />
      <path fill="#b59d8e" d="M129.7 663.5l-53-29.4 79.5 25 164 24" />
      <path fill="#a9c7c0" d="M408 409.3l-5.2 24.5-12.5 20.5 4-44" />
      <path fill="#593924" d="M630 511.6l-6-22.6-9.6-14-23.2 3.8" />
      <path d="M972.2 119.5l10-34.3-112 49.2-119 63.2" />
      <path fill="#c7b1a3" d="M295.2 677.5l19 35.5 16-2 57.5-28" />
      <path fill="#394331" d="M-31 358l64.4-56-3.2 87-5-57" />
      <path fill="#97370c" d="M458 361.7l31 8.3-29-88.6 23.2 41.8" />
      <path fill="#614a3d" d="M967.6 549.8l22.2 5.5-79.6 1.8-2-22" />
      <path fill="#c7ac97" d="M441.5 422.3l-11.8 35.3h.3l30.8-14" />
      <path fill="#e2a97a" d="M893.2 516.6l2.6 57.5 13.8-27-2.7-34" />
      <path fill="#b26548" d="M357.4 182.6l-118-90.8 80.4 71.5 74.8 61" />
      <path fill="#b05e42" d="M438.5 291l10 32.7-48-46.7-22.8-78" />
      <path fill="#3a4d3d" d="M856 349.8L790.5 333l59.5 14 3 25.6" />
      <path fill="#0f3a4b" d="M532.6 363.5l9.8 16.4H484l3-21" />
      <path fill="#4d4039" d="M813.6 173.2L801 223.6l29-60.7 47.3 8" />
      <path fill="#ac9384" d="M18.7 645L84 696.8l54.4.4-66.6-24" />
      <path fill="#bc8e73" d="M897.4 428.4l78.3-1.7 24-10.7-27 1" />
      <path fill="#49665e" d="M276.3 486l36.8-.4-17-28.3-25-3" />
      <path fill="#83645a" d="M1029 613.5l-155.4-31.8 87.8 73L957 611" />
      <path fill="#002d79" d="M306.6 122l101.8 96 132.3 151-30-128" />
      <path fill="#52433c" d="M429.6 666.7L435 713l-50.8-31.5-106.3-7" />
      <path fill="#4f2312" d="M445.5 395.4l-131-66-33 3.8 210.2 79.2" />
      <path fill="#312a1c" d="M169.2 509.3l-1.3-69.5-113-6L158 450" />
      <path fill="#23494d" d="M398.5 334.7l27.7 23.6-15.2 17-4-41.5" />
      <path fill="#470000" d="M927 53.7L653 264l166.7-106.7L968 81.8" />
      <path fill="#796b5f" d="M330 661.4l-102.7-7-143-17.2L184 665" />
      <path fill="#8b9077" d="M832.2 396.8l148.4-4.4-189.8-9.7 30.5 25" />
      <path fill="#2b3930" d="M1019.5 442.5l5.8 54.6-57.3-7 43.8-3" />
      <path fill="#b5998a" d="M328.7 646.4L287 654l-27.6 2.3L156.8 639" />
      <path fill="#905d59" d="M791 139l14.7-6-9.3 24 4.3-1.4" />
      <path fill="#420400" d="M1055 426v-61.7l-100 54.5 25.2-30.4" />
      <path fill="#b4cbc8" d="M896 498.3l-8.8 12L873 467l-15.7 8" />
      <path fill="#29241a" d="M994 189.6l54.2-135L993 159l59.7 34.7" />
      <path fill="#728a6f" d="M120 442.5l58.2 11L180 465l25-12" />
      <path fill="#d9e1c8" d="M171 252.7l-6.3 8.2 7.7 8 7 2" />
      <path fill="#383e41" d="M973 533.6l-9-30.4 8.2-3.2 26.5 51.7" />
      <path fill="#803417" d="M351.4 187.8L333 177.3 177 54.8 408 287" />
      <path fill="#60594e" d="M644.2 296l-28 23.6 46.6-21 61.3-59.4" />
      <path fill="#857163" d="M433 381.5l-17.8-20.2 52.6 1.7-6.3 17" />
      <path fill="#6c5540" d="M392 304l-53.4-41.5-113-70L471 386" />
      <path fill="#afa58e" d="M783.3 447.8l64-9-77.2 3.6 42 40.5" />
      <path fill="#d6a674" d="M817 514l-1.8 34.2-10.8 40.4-4.6-71" />
      <path fill="#999a90" d="M106.6 572.2l214 59.5 59.7-.3-149.6-12.2" />
      <path fill="#00497b" d="M468.6 395.5l100.7 4.7-53.5 17.2-49-8" />
      <path fill="#a67a73" d="M168.4 106.4l-6 2.7 1.8-12 8.2 6" />
      <path fill="#5f4126" d="M189 569l-62.2 12 4.6-9.2 22.6-4.6" />
      <path fill="#300" d="M359.5 181.3l-79.5-80-102.2-76 112.7 97.2" />
      <path fill="#464442" d="M61.2 510.4l1.5 32.7-35.2 6L17 522" />
      <path fill="#1c1b13" d="M359.8 383.4L196 333l-101.4-9.4 99.5 16.7" />
      <path fill="#476461" d="M188 217.7L351.4 296l-16.7 16-141-88.8" />
      <path fill="#222725" d="M22 201.4l16.2 32.3 1.3-49.3L-31 190" />
      <path fill="#1e0f15" d="M998.8 438.5l-55-3 74.8-8.3L1055 439" />
      <path fill="#a4543e" d="M82.5-31h4L310 149.4 100.5-10.8" />
      <path fill="#a56c53" d="M474.2 461l6.7-65.4 7 63.7-32-70.8" />
      <path fill="#8aa38d" d="M866.7 491.8l31 8.7L830 498l-8.7 16.5" />
      <path fill="#bbba9f" d="M101 442l-10 17.7 16.5 8 5.8-23.5" />
      <path fill="#846d5f" d="M741.3 283L948 192.3 733.7 296.7l35.6-26" />
      <path fill="#938e8d" d="M562.4 455.4L579 451l-8.4-7-167 5" />
      <path fill="#8c6c60" d="M767 571.6l56 24.4-45.2 4.8-143-47.2" />
      <path fill="#988370" d="M586.4 354.6l-1.3 28.7 92-44-63 39.3" />
      <path fill="#96472b" d="M406.3 453.5l122.5 33 62.6-15L470 484.3" />
      <path fill="#3a6d00" d="M465.7 540.4l73-3.7 4.5 6.5-13.7 4.2" />
      <path fill="#33655a" d="M685.3 510.8l1.8-15.6-27 11.6-3 5.4" />
      <path fill="#545345" d="M74 398.2l58 3.5-8.7-30.5 111 23.5" />
      <path fill="#002064" d="M737.2 105.5L850 1.5 525.7 202.8l38.8 66.2" />
      <path fill="#4b0f00" d="M943.8 230.5L674.8 357l218.6-81 96.6-40" />
      <path fill="#f2faf4" d="M783.3 482.7l-22.3-5 46.6-5 .6 9" />
      <path fill="#c2dfdf" d="M395.6 477.7l-5.3 31 8 6.4 6.8-1" />
      <path fill="#353127" d="M821.7 520.7L821 410l21.6-7.2-33.7 55.8" />
      <path fill="#af948f" d="M26.5 582.3l-57.5-2L38.8 598l146.4-21.6" />
      <path fill="#446258" d="M178 520l92-78-84.3 59.4-.2-29.5" />
      <path fill="#926430" d="M538 517.5l24-3.6 218 2-237.7 36" />
      <path fill="#715638" d="M128.6 529.6l33 15.4-18-1.7-12.2 14" />
      <path fill="#282b22" d="M129.4 514.4l-41-63-6.7 62.8 57.7-61.8" />
      <path fill="#bcd2dc" d="M993.6 514.2l-18 5.2L979 491l-20 6.7" />
      <path fill="#9a432a" d="M748.4 165.6l1 95-2.3 51.8-1-102.2" />
      <path fill="#504938" d="M389 522.7L311.5 457l81.4 65.4V390" />
      <path fill="#6c5028" d="M216 502l3 67.7 97-14.7-99.6-29.7" />
      <path fill="#5e431f" d="M750 561.6l-31.7-3-91.2-5 34-26" />
      <path fill="#080000" d="M904-31L868.5-9 776 70l-93.5 89.8" />
      <path fill="#9fb0a9" d="M666 346.2l-40 24.5 84.5-40.8 70.2-38" />
      <path fill="#51463b" d="M676.8 415l-38.6 14.7-2-39.8 31-14" />
      <path fill="#42442e" d="M105 303.5l-13.3 80.3-54-64.3L175 354.2" />
      <path d="M289 198.4L55 97.4l8.5 27.2 50 19.6" />
      <path fill="#99906e" d="M196.2 352L45 374.4l2-37.2 33 37.4" />
      <path fill="#381200" d="M370.3 187l42.4 40 36.4 39.7 30 40" />
      <path fill="#d7d5ca" d="M1021.7 368.2l33.3-29-40.2 3.4-1.6 8" />
      <path fill="#ba864d" d="M115 572l1.3-26.6 64.6 15.3 21-36" />
      <path fill="#abb47e" d="M190.8 354.3L165 364l26.3 2v1.2" />
      <path fill="#9b9877" d="M86 532.4l-3 10.4-23.7-1.7 11-35" />
      <path fill="#1a2825" d="M785.7 339.7l34 27-4.3-18.8 132.8-35" />
      <path fill="#d4e9cd" d="M332.5 516.8h-82l75.5-3 26-.7" />
      <path fill="#abb4a4" d="M379.3 358.2l-89-39 16-1.8 93.4 48.7" />
      <path fill="#69574d" d="M158 713L48 655.2l141.6 29.3-5-5.8" />
      <path fill="#324646" d="M243.5 515.4l26.8-1.2 3.3-42.8-25.8-15.7" />
      <path fill="#f2d2b0" d="M607.4 392.3l-40.7 34 44-29.3-97-3.3" />
      <path fill="#833a2c" d="M666.6 195.8L772 105.4 713 182l-10 47" />
      <path fill="#580700" d="M246 143.8L225.5 164l94.2 65.5 122.6 95" />
      <path fill="#aba095" d="M498.7 475.3l54.8-1.6 27.8-4-134.6-2.6" />
      <path fill="#bba9af" d="M1055 564v-35.5l-11.7 25.3L986 552" />
      <path fill="#571100" d="M993.2 236.7l45.4-14.3 1.5-33-28 13.2" />
      <path fill="#83d1dd" d="M230.6 380.3l22.3 15h-24l7-13.6" />
      <path fill="#50695d" d="M897.5 484.2l-7-31.3-1.2 36 31.6 40" />
      <path fill="#514b36" d="M883 505.2L863.6 522l-20-160 13.8 134" />
      <path fill="#a06444" d="M356.5 462.3l105 23.6-84-29-171-16" />
      <path fill="#213640" d="M814.3 252.5l93.4-51.7L776 231l34.8 20" />
      <path fill="#c0775d" d="M281.7 248l1.6-5.5 3.5 23.7-6.2 67" />
      <path fill="#493023" d="M594.2 389.6l13-9.2 12-56-1.8 65.8" />
      <path fill="#5e3520" d="M304.7 449l54.3-7.5 74.8 25.2-172-21.8" />
      <path fill="#dc7558" d="M42.3 217.5l-1-59 4.8 11.2V93" />
      <path fill="#6c866e" d="M962.6 495.6l-14.4 31.2 3.5-71.8-12.4-5.8" />
      <path fill="#6aafad" d="M233.7 510.6l-17.2-.5 5.5-46 18 2" />
      <path fill="#513c31" d="M878.2 473l5.5 41.8 1-10.5-5-150.7" />
      <path fill="#5aa3a4" d="M737 370l52.2 8.6-59.7 10.7-7.6-8" />
      <path fill="#3b2c26" d="M761 346.8l-5 11 1 26.4 3.5 69.5" />
      <path fill="#847c5a" d="M1014 378.7l-27.7 10 12.7-55.4 13.5-30.3" />
      <path fill="#735549" d="M990.2 563.6l-78-19.2 139.2 29.3-67.7-2" />
      <path fill="#e1865c" d="M566.7 356l-3-41.5 14-37.2-28.2 43.7" />
      <path fill="#b2c9b7" d="M943 320.8l43.8 5.7v20-31" />
      <path fill="#2c3231" d="M910.6 212.4l73-32.8 4.6 31.4-73.5 31" />
      <path fill="#422a14" d="M803 559.6l-12.7 8-70.8-10.5 72.5 5" />
      <path fill="#40858c" d="M696.4 298.7l21.2-14.8-13.6 44-10-20" />
      <path fill="#bdd5db" d="M749.6 491.8l-34.4 13 18-19 88.7 6.7" />
      <path fill="#2a251b" d="M218.8 446.5l-76 61.5-9.8-27.3L274.2 459" />
      <path fill="#e09a73" d="M589 471.4l36-4.8-57 19.4-3.4-6.2" />
      <path fill="#eeb19a" d="M130.7 290.8l-8.6-10.5 2-2.8 8 1" />
      <path fill="#a9ad95" d="M271 516.4l-78.3 1.3 89.6-4.7-9.7-27.7" />
      <path d="M1055 92.5v-40l-59 21.7 8.8 35.6" />
      <path fill="#1c1712" d="M20.8 469.8l29.7-10.6-20.2 64.3-12.8-46.3" />
      <path fill="#8e4b28" d="M586.8 396.6l-16.2 2 35.7-3.4-30 17.5" />
      <path fill="#314139" d="M765.2 501.8l-1.7 9-2.3-84-3 65.6" />
      <path fill="#d19070" d="M1014.3 234L962 276l-30 5 4-21" />
      <path fill="#934237" d="M996.4 299l1.2 140.3-4.5-73.6-6-133.4" />
      <path fill="#da9c81" d="M273 401.2l6.2 3.4 2.8-43.2-.3 63.8" />
      <path fill="#619d9d" d="M810 384.4L797 395l-1.6-3 6-53.7" />
      <path fill="#3e8083" d="M751.6 506.6l16.7-3-159.7 8L728.3 501" />
      <path fill="#3b7f84" d="M274 510l31.7-13 30-13.6 9.6 27.4" />
      <path fill="#816c5d" d="M703.6 406.6L809 389l-175 54.8 14.4-12" />
      <path fill="#422816" d="M985 136.6l-8.8 27-95.4 17.5-29.5 9" />
      <path fill="#3e5253" d="M1001.8 463l-6-45.8-.2 58 6.2 76.3" />
      <path fill="#baded6" d="M599 432.5v-14.2l25.3-2.3-24 39" />
      <path fill="#3d3d2f" d="M133.7 495l-20-57.6-3.3 112 26.6-116" />
      <path fill="#d09f7a" d="M426 469.8l-68.3-12.2 101 23-1-4.4" />
      <path fill="#591a06" d="M981.2 389.7l-111.5 43.5-166.4 8.8 168.4-35" />
      <path fill="#85aa9f" d="M401.6 371.8l-6.8-21 12.8-7.6-16.5-19" />
      <path fill="#9e897b" d="M802 609l55-25-24.6-14.4-37.2-3.3" />
      <path fill="#00185a" d="M342 28.3L123.6-31l175.7 149.2 267 53.8" />
      <path fill="#873712" d="M537.8 365.5l33-30.3-8.5 27.7-12.8 19" />
      <path fill="#84cecf" d="M770 496.4l-2.6 15 43.8 5.4-34.4-1" />
      <path fill="#531a00" d="M488 381.6L598.3 393l16.2-3.7-6.2-8" />
      <path fill="#78614e" d="M634.5 307.3l-52.3 45.4 103.4-27.5-45.7 40" />
      <path fill="#6a564e" d="M43.6 617l16-.4 57.7-31-46.4 14" />
      <path fill="#3e382f" d="M48 63.7l20.5 171L48 211l8-185" />
      <path fill="#333330" d="M630.2 317.6l68.2-36.7-98 77 12.6 1" />
      <path fill="#b55b39" d="M487.3 354.2l-1-17-18.6-43.7-8.2 38" />
      <path fill="#969f94" d="M132.2 249.3l-4 6.7-12.3-10.4-27-7.8" />
      <path fill="#d6c2be" d="M1004.5 571.2l50.5 20-135.6-11.5 135.6-3" />
      <path fill="#cb7656" d="M618.4 247l33-42.2-82.3 83.4 52-11.5" />
      <path fill="#584438" d="M423 542.5l-70 51 192.7 14-37.6 7.8" />
      <path fill="#cf7359" d="M43.3 210.6l-.3 29.2-4-.5 4.6-89" />
      <path fill="#c8dacf" d="M167.5 260l-.5 2 41 13.7-2.8-4.3" />
      <path fill="#b29385" d="M690.2 648.4l229-32-22.5-10-75 37" />
      <path fill="#b7bfad" d="M128.5 466.4L125 448l-2.4-4.5.4 24.8" />
      <path fill="#a7a181" d="M81.3 394.8l-12-4L-31 366l96.5 29.6" />
      <path fill="#abb3a2" d="M460.5 452.7l-49 3-47.4-21.3-48 2.2" />
      <path fill="#bfe5e5" d="M875 252.4l-3.4 3.6-2 3-7.2-1.8" />
      <path fill="#984223" d="M432.6 395.3l42.7 58.7-16-54.6-14.8-1.7" />
      <path fill="#423c31" d="M965.6 523l57.4-2.3-39.7-2.2-51.4.5" />
      <path fill="#add6d0" d="M928.2 336.7l-42.4 11 43.4 2-27.8-12" />
      <path fill="#5a615a" d="M159.8 243.4l33.8-28 14 70 31 2" />
      <path fill="#485438" d="M866.5 364l-43 6.2 14.5 3.5 4-10.6" />
      <path fill="#29211d" d="M50.5 431.4l2 23.7 23.3-24-95 15" />
      <path fill="#772b0f" d="M563 435l-79.2-.8 35.8-8.7 42 3" />
      <path fill="#32312e" d="M972.5 540l-3-55.8 14 56.7 14.5 6" />
      <path fill="#39301f" d="M440 479.6h-99l-83.2-17 72.8 1.4" />
      <path fill="#050200" d="M828.3 172l-169.6 93-67 72.3 103-80.5" />
      <path fill="#a7e2e1" d="M72.8 468L58 475.7l18.4-1.5 13.4 1.5" />
      <path fill="#b1bdae" d="M944.6 529.4l7.2-1.7-29-15.2L933 510" />
      <path fill="#ca9c5d" d="M182 530.8l-88.4-16.4 53 3.3 94.8-.5" />
      <path fill="#7c5c4a" d="M832.4 249l95-49.4 67-33.2 60.6-25" />
      <path fill="#99b9b4" d="M670 499l-30 20 10.5-7.3 12-25.4" />
      <path fill="#5f4f48" d="M218.7 189l60.2 43.6L136 178l-96-43" />
      <path fill="#eae9b3" d="M490.4 516.8l13.4 9.6-.6 6.5-23.8-9" />
      <path fill="#7c755f" d="M148.3 397.6l42.8-15.2-32-7.4-6-11" />
      <path fill="#b4d1ca" d="M864 360.6l-7.4 2.2 16-28.4 4.2 56.2" />
      <path fill="#21342b" d="M54.2 545.2l8-68.3 7 28-8.7 15" />
      <path fill="#0d171a" d="M111 192.2l65 22 13-19.3-122.4-23" />
      <path fill="#313a33" d="M131.3 251l16.3 9.4 10.2-13.4-30-25.6" />
      <path fill="#8a482a" d="M387.5 458l5-26-3.2-150.8-4.5 122.2" />
      <path fill="#755d4e" d="M302.4 570L432 629l-227.2-40.6 7-7" />
      <path fill="#909c90" d="M933.7 392l-24.3 9.3-16.4-10.6-13.5-2.6" />
      <path fill="#be9f8f" d="M700 675.3l101.2-8.6-16.7 7-188 11.2" />
      <path fill="#c1d3ce" d="M759 508.7l3.6-2-83.2 6 79 2.5" />
      <path fill="#a58a70" d="M53.8 363L-12 338.4 110.4 368l-29-12.6" />
      <path fill="#327b89" d="M797.7 505.6l-27-14L837 483l-75 1.2" />
      <path fill="#aec9c6" d="M77.4 492.3l-26-20 10 9 19.2 6.5" />
      <path fill="#6b5139" d="M338 327.5v-14.3l49.4 40v6.7" />
      <path fill="#b09889" d="M192 647.3L170.4 658l-13.7-34.4-38.2 5" />
      <path fill="#9f8a75" d="M527.4 672.2l-207-49L547 633.8 660.3 623" />
      <path fill="#222317" d="M838 505.8l-3 5 23.8 6.5L871 506" />
      <path fill="#355d57" d="M270.3 408.6l9.6-11.4 41 4.8-9-36" />
      <path fill="#373620" d="M140.4 318l10 50.6 8.3-45.8 7.2 54" />
      <path fill="#22261f" d="M147.7 428.6l2.7 62-87 21.5h76.3" />
      <path fill="#88442b" d="M-31 411l3.8 15.2 98.7 7.3 135.3 9.5" />
      <path fill="#13303c" d="M368.3 317.8l-13.5-23.5-17 20.8 54 24" />
      <path fill="#93c7bc" d="M219 517.2l.2-36.3 9.3 6 9.8 21" />
      <path fill="#592510" d="M215.6 286.8l-3 20.6 233 85-172-79" />
      <path fill="#726158" d="M133.2 609.6l-2.7 1-29 36.8-19-22.7" />
      <path fill="#238f9d" d="M783.2 506.2l35-13.4-.7-43-6.7 66.6" />
      <path fill="#3b3825" d="M40.2 161.5l-38.5-8-32.7-47L44.3 123" />
      <path fill="#abada2" d="M232 295.2l106 39.4-84.7-41.5-25-6" />
      <path fill="#d14922" d="M419 458.6l17-3.2 19-.4-11.4 6.7" />
      <path fill="#755d58" d="M20.4 601.4l-51.4-7.6 9 119.2h60.2" />
      <path fill="#7d5830" d="M802 547.2l-147 3.3 139.2-35 5.3 58.2" />
      <path fill="#3a0900" d="M992.6 81.6L1055 8 953.8-25.5 979.6 77" />
      <path fill="#934424" d="M42 274l-70 2 103.7 18.3 126 22.5" />
    </g>
    <g class="SVG--2">
      <path fill="#364f43" d="M692.3 482v14.7l-16-16.7-100.6 12.4" />
      <path fill="#554736" d="M249 324.8l10.6-50 9 13 40.5-74.4" />
      <path fill="#aa988d" d="M762.5 307L731 322l22.2-34.4-7.2-.3" />
      <path fill="#643a24" d="M593 475.5l138.8-42-95 16-54 45" />
      <path fill="#39524b" d="M991.5 307.5L988 311v35.4l6 7.8" />
      <path fill="#7e6d5c" d="M202.8 248l85.8 42.2L154.2 235l-70.6-36.2" />
      <path fill="#090e11" d="M535.7 506l-1.2-21 27-2 1.5 14.2" />
      <path fill="#774822" d="M872.4 553.8l-51.2 5-6.2 9 97.3 11.5" />
      <path fill="#a78e70" d="M817 520l-57-4.5 60.5-1.2 76 4.7" />
      <path fill="#66774c" d="M96 351.8l8.7-2.6 41 5-21.7-18.8" />
      <path fill="#62a4a2" d="M336 503.7l4.3-12-79.8-5 1.6 10" />
      <path fill="#454835" d="M73.5 449.5l-37.6 12 58-6.3v-9" />
      <path fill="#0e0000" d="M117.5-16.2l38 27.2 106 75.4L130-23" />
      <path fill="#461800" d="M848.5 286.4l-29.7-9.2L748 317l20 6.2" />
      <path fill="#3f3527" d="M1042.4 144.6l8.3-27.5-57-9-.5 59" />
      <path fill="#a07e6d" d="M736.7 600.4L632 623l167-22-18.4 4.3" />
      <path fill="#571a0a" d="M-31 412v-33.7l63.8 12.2-4 21.5" />
      <path fill="#b45b42" d="M642.6 316l-2-32.8-.4 61.3 3 38.5" />
      <path fill="#4a1300" d="M42 214l-73-2.5 66.6 33.8 4-24.8" />
      <path fill="#d6e2dd" d="M846 459.3l5.6 17.7-16.7.7 2-4.7" />
      <path fill="#616551" d="M889.2 401l-107.6 20.4 149.7-42-39.4-9.8" />
      <path fill="#efcba7" d="M565 296l6.7 45.3 20.6-75.3-29 52.3" />
      <path fill="#52666a" d="M859.4 209.4L773 244l-14.4 67.2 19.7-63.5" />
      <path fill="#bb6c59" d="M989 239l12.3 146.3L991 210l-5.8-143.6" />
      <path fill="#979e75" d="M821 358.6l8 45.4 27.7-37.8 32 44.7" />
      <path fill="#5d513c" d="M574.7 511.7l20.7-23.7 4.3 19.5-7 10.6" />
      <path fill="#b4998a" d="M79.3 614.4l-24.2 5 87 41.4-49-12" />
      <path fill="#b18668" d="M460.2 509.3l4-19.3 3.5 36.8 2-1" />
      <path fill="#ae988b" d="M827 586.7L751 571l-26-12 54.6 10" />
      <path fill="#bdc1a3" d="M977.7 455.3l12 .8 12.7-7-32.4-3" />
      <path fill="#c0734e" d="M448.5 273.5l17.3 21.7-41.6-22.3-7.8-36" />
      <path fill="#00327b" d="M623.7 210.3l-66.5 83.2-29.6 64.6-76.2-89" />
      <path fill="#543f2a" d="M101.4 393.7l6.4 46.3L93 490.8l13.2-61.3" />
      <path fill="#83a5a1" d="M737.6 456.2l47.4 35-39-29.6-31.3-2" />
      <path fill="#222320" d="M436.8 489.6L475 482l-29 32.2 15.2.8" />
      <path fill="#cce4e2" d="M634 401.4l-2 30.8 2 8 3-5.6" />
      <path fill="#681b02" d="M636.4 261.2l2.2-25.3 30 15-84 85" />
      <path fill="#9bb4b6" d="M950.2 504.6l3.4 14.7-13-18.2-17.8-38" />
      <path fill="#7a8c7d" d="M678.5 402.4l21.6 6.3-43-1-59 49.7" />
      <path fill="#94998d" d="M424 632.8l-158.6-7-54.3-16.3 74 9" />
      <path fill="#1e261c" d="M311 372l31 13.5 27 9-19.8-14.2" />
      <path fill="#786151" d="M146.6 423.4l4 82.8L100 659l47-146" />
      <path fill="#c49980" d="M907.2 582.3l-82.4-9.8 68.4 19.5 17-91.4" />
      <path fill="#496a67" d="M899.3 507.2H922l19.4-57.8-15.7 71.8" />
      <path fill="#7a6c66" d="M543.7 451L529 438l28.3-4.6 15.5 14" />
      <path fill="#516151" d="M886.3 360.3l-48 5.7-58.8 19.5L900 355" />
      <path fill="#41412c" d="M103.8 340.3l8.7 60.5 2.8-78.3-27-5.5" />
      <path fill="#625d53" d="M833.4 469l94.8-6.2-56.7 1.6-98.5 6.4" />
      <path fill="#bec09e" d="M168.8 367l-8-7.4 26.3 3.8-22 2.2" />
      <path fill="#deb48c" d="M127 523l-2.6 53-10.4 1.6 4.4-66" />
      <path fill="#b1b7a3" d="M17.6 439.7l-6 18.2-24.2-26 20.3 18" />
      <path fill="#2c3f36" d="M354 515.5l-4.6-44 15.5 24 7 14.2" />
      <path fill="#6b684b" d="M431.4 520.5l-7.5-45.3 6 5.4 5 113" />
      <path fill="#888a77" d="M107.5 385l20.6-5.4-17 26.6 2 4.7" />
      <path fill="#352c1e" d="M316.7 460.3l30 8-37.7-3v66" />
      <path fill="#495f50" d="M718.3 478.2l3.7-23v34.6l-5.2 56.6" />
      <path fill="#c4d2d2" d="M715.2 471.7l3 49.7-17.4-47.6-1 36.6" />
      <path fill="#7a6760" d="M775.4 228.7l-20.7 1.5 24.2-21.8 10-8.4" />
      <path fill="#9e8277" d="M161 679.8l65.4 1.2-165.6-42.5L71 659" />
      <path fill="#c05b40" d="M770.7 334.5l-40.6 5.3-64 27-26 20" />
      <path fill="#bf6748" d="M344 358l-55.2-19.5 9.3 4.3 146 73.6" />
      <path fill="#471900" d="M64 27.3L94.3 80-25.4-5 117 2" />
      <path fill="#996c34" d="M297.3 555.5l-78-37 121.8-1 12 28.2" />
      <path fill="#ca724b" d="M447.4 358.7l16.4-50V326l-6 52.7" />
      <path fill="#46514e" d="M961 488.3l-29.5 4 53.8-2-35.6-1.6" />
      <path fill="#664f44" d="M953.7 652l-155.3 33.7L804 713l137-51.8" />
      <path fill="#876f63" d="M231.7 582.3l-29 17 35.3 11L369.7 627" />
      <path fill="#58aab8" d="M756.8 308l22-9 1-13.7h-8.2" />
      <path fill="#a2bebf" d="M645.2 354.7l66.5-30.3-20.8 15.2-58 25.2" />
      <path fill="#c6b992" d="M291.2 514l7.5 2.6-74 3 2.3-3" />
      <path fill="#62614a" d="M-27.7 156.4L45 166.6l-58 36.8 30.8-.3" />
      <path fill="#4e1401" d="M890.6 428l35-35.6 102 18.6-62.5 3.8" />
      <path fill="#3b3d33" d="M145.8 401.5l-64-5.6 112.5 20-9-12" />
      <path fill="#949d8d" d="M1003.7 476.2l6.4 92.5-8-58-1-58" />
      <path fill="#b79b8a" d="M571.8 682l74 4 67.4-12.8 29.2 3.5" />
      <path fill="#00124a" d="M612.4 111.8L287.2 17.3l-110.5-30 731-8.5" />
      <path fill="#9e4727" d="M274 332l69.8 38 21.2 6.5L153.6 303" />
      <path fill="#dddfd7" d="M952.4 370.3l-9 6-11-3 10.3-2" />
      <path fill="#f5cca2" d="M444.5 278.7l2.2 64.3 8-11.2 7-31" />
      <path fill="#d7785d" d="M35 425.3l-4.2-37 6.7-70 2.2-64" />
      <path fill="#6b5639" d="M511.5 537.8L498 507.4l73 1.4-72-13" />
      <path fill="#f0a976" d="M530.2 393.3l17.8-2-31.6 5.6-70-3" />
      <path fill="#1b7f8d" d="M716.5 492.2l7.7 9 34.8 1.5-39 5" />
      <path fill="#814024" d="M143 16.8L129-6l75.2 58.3 118 97.7" />
      <path fill="#a28475" d="M600 359.2l1.4-.3 4.3 22-12.7 1" />
      <path fill="#2e3429" d="M621.3 477.3l55.2 1.8 22-21 36.5 8" />
      <path fill="#3a3d36" d="M747 343.8L632.6 410H705l-46.6 12" />
      <path fill="#a09080" d="M755.4 364.8l4.4 52.6-9.7 7-1-63" />
      <path fill="#56463c" d="M610 593.7L734.7 573l-76.5-8.8-213 45" />
      <path fill="#526253" d="M3 360.7l-34 8 43.7 4 4.2-43.2" />
      <path fill="#eaf8fc" d="M722 492.6l7-15.2 27 14.2-30.4 1.5" />
      <path fill="#5e5648" d="M961.6 293.3l5 46.3 1 39.8L962 342" />
      <path fill="#eaf6e7" d="M41.2 441.6l-2.4 9.2.5 6 10.8-1.3" />
      <path fill="#364e47" d="M790.8 462.6l-31-4-43.2-2.3 95.2-11" />
      <path fill="#776455" d="M243.8 222h-10.3l27.3.3 80.7 55.6" />
      <path fill="#c8d7ca" d="M424 487.7l-50.3 30 29-5.8 8-26" />
      <path fill="#494940" d="M214 397l-60.8-11-44-16 180.4 39.5" />
      <path fill="#a8a68d" d="M439.7 518.6l-8.5-12.2 6.2-27.7 4 10.7" />
      <path fill="#e9eeee" d="M924.2 556.7l63 22.5.5-15L909 568" />
      <path fill="#9b6c30" d="M309.3 527.8l67-14.2 108.6 30-6-29.4" />
      <path fill="#624e47" d="M527.7 667.8l-54.6-3.5L586 713l-5.6-47.6" />
      <path fill="#5c8e86" d="M384.3 466.8l4 9.2 18.4 7.2 1.3 20.5" />
      <path fill="#32200d" d="M163.7 188.6l-71-7.7-3.4 2-19-28" />
      <path fill="#705f4b" d="M104.3 379.3l-70.8-.5 9.6-17.4 30 15.2" />
      <path fill="#132229" d="M954.8 179.7L830.3 223l-13 16L952 188" />
      <path fill="#bfd3b6" d="M1055 286.6l-42 37.6.4 14.2 4.8-8.4" />
      <path fill="#9b6a4b" d="M438.6 353.6l.3-42-4 58.7 9-2.2" />
      <path fill="#c55c49" d="M995 418l5-16-1.8-48-3-52" />
      <path fill="#632e15" d="M577.8 457l-87.3-1.8 44.6 9.2 85 2.8" />
      <path fill="#475851" d="M949.4 351l-40.3 5-66 11.4 94-18" />
      <path fill="#7bb3af" d="M313.4 496.5l-32.2 5.7 2-18.2 26.3 1.6" />
      <path fill="#523c3d" d="M1024.2 553.3l-62-3.3 70-2.7L1055 525" />
      <path fill="#74766e" d="M222 332.6l-2.4 84.7 5.8-1-.2-6.6" />
      <path fill="#aab292" d="M77.8 370.6L83 380l-30.7-27-.6 16" />
      <path fill="#7b957e" d="M845.8 479.4l-11.2 26.4.3 2.7 67-30" />
      <path fill="#682c0e" d="M462.6 388.6l-2.7 5 26-27-5-30.6" />
      <path fill="#b2c8c8" d="M730.3 493.8l28 9.6.4-11.6-14 16.5" />
      <path fill="#b86448" d="M601.3 257.2l-24 103.2-16.8-26.3 6.2 50" />
      <path fill="#675242" d="M635.5 391.6l119 16.4-137-10 3.3 18.3" />
      <path fill="#2f3734" d="M241 491.2l-6 19.2 5.4 4.4H267" />
      <path fill="#c06747" d="M-28 218l44 20.3 79.6 31.2-125-5.3" />
      <path fill="#4b5628" d="M473.7 566l11.3-29.6 50.8-2.5-24-9" />
      <path fill="#8f452c" d="M811.5 439.7l55.5-9.3 95.6-1L849.2 442" />
      <path fill="#4d0b00" d="M611.6 293l75-52L580 345l1.4 21.5" />
      <path fill="#292b25" d="M119.6 486.7L86 511.5l53-49.6-76.3 20" />
      <path fill="#fae6d2" d="M576.4 421.5l-6-3.2-1.4 19.3 7.3-11" />
      <path fill="#a68677" d="M702.4 693.8l143.3-18.2 53.5-15.4 100.6-46.7" />
      <path fill="#badcd0" d="M852.2 362l-13.5-17.6-12 12.3 15.8 5" />
      <path fill="#61635b" d="M-31 535l95.4-2.4-94.8 28.3 44.8-99" />
      <path fill="#193335" d="M205.7 368.8l-.2-5.3 71 18-14.5 4" />
      <path fill="#450a00" d="M868.7 282.6L987 240.4l-3.5-29-64.4 33.2" />
      <path fill="#a3a397" d="M239 394l28 5.5-28-1-19.4-10" />
      <path fill="#773e2a" d="M568.2 411.8l10-6.6 19-10.4-38.3 35.6" />
      <path fill="#433c3b" d="M875 228.3l-10.8-75.6 23.8 96-42.4-3" />
      <path fill="#533f22" d="M379 550.2l92.4-1L264.6 561l35.6-4.3" />
      <path fill="#26271b" d="M183 517l33.2-7.6 2.5-71L209 516" />
      <path fill="#f6f9f5" d="M44.7 564.3l69.3-.4-4.6 8-84.7-5" />
      <path fill="#94cbcc" d="M934.3 493.4l-11.3 1 43 11 8-5.4" />
      <path fill="#5e2d19" d="M382 447.4l57.7 17.6-102.2-3.5 34 15.4" />
      <path fill="#c46040" d="M981 276l-148.5 21.7-8.3 5.7 91.6-35.8" />
      <path fill="#68604a" d="M1015 326.3l29.5-3.5L999 344l52.8-6.7" />
      <path fill="#b79787" d="M398.4 669.3l81.3-10-175.3-11L424 646" />
      <path fill="#96b7af" d="M798 375.6l5.5 16-18 2.5h7.5" />
      <path fill="#211b15" d="M177.4 443.2l-208.4-13 192.4 16.5 47.4-.4" />
      <path fill="#d1d9d4" d="M757.2 466.8l47.4-5.7-45 23 50.8-4" />
      <path fill="#41362e" d="M808.8 189.3l22.8-28.6 25 11.5-44.7-5.7" />
      <path fill="#948e6a" d="M156 514.5l-53-1.5-64.4 5.7 63.8.4" />
      <path fill="#675546" d="M153.6 273.3l7.4-79.5-5.4-20v86.8" />
      <path fill="#221e17" d="M855.8 482l2.7-25.2 43.7-15-45.8-1.4" />
      <path fill="#daeee7" d="M619 390l20-12.6-2.4 6.4-8.2 4.8" />
      <path fill="#c47b57" d="M552 436.7l27.5 1.8-30.8-5.2L479 437" />
      <path fill="#6f574a" d="M964.6 637L933 665l18.3-36.8-4.8-24" />
      <path fill="#540000" d="M178.4 96.7l.4 5.3-9.5 40 72 20" />
      <path fill="#003c7f" d="M546 276l-59.3 71.6 3.3 16 45-2.4" />
      <path fill="#483f34" d="M282.2 221l-11.6 30 2.5 83.3 3-64" />
      <path fill="#9b8577" d="M559.5 428.8l3.2-32 18.2 1.6-31 30" />
      <path fill="#79361e" d="M463.5 465l2 47.4L491 507l-17.5-34.2" />
      <path fill="#7d826e" d="M915 435.3l7.7 12-20.7.4 10 39.7" />
      <path fill="#5f402e" d="M39.2 276.6l1.4-8.4 2.7 180.5L44 243" />
      <path fill="#2e301b" d="M187.3 440.8l-13.6 15-16.2-15.3L168 477" />
      <path fill="#b19381" d="M909.2 684.6l59.2-31.5-70.2 27L704 713" />
      <path fill="#363735" d="M1042.4 516.2l12.6 56-35.4-51-57 1.3" />
      <path fill="#48594d" d="M344.7 425.5l-48.4-7.4-6.8-61 2.4 74" />
      <path fill="#734c35" d="M346 392.2l94.3 29-56-35.5-39 18" />
      <path fill="#7a2d0c" d="M438 316.3l11.5 46.3L386 244.4l-10.2 20" />
      <path fill="#5c5041" d="M868.5 388.5L806.7 414l85.2-6.8-57-17.2" />
      <path fill="#1c2b35" d="M174.8 231.5l50.2 3.3-3.5 23.3-62.5-65" />
      <path fill="#839589" d="M235.5 258.4l39.7 3.6-32 1.3-60-11.8" />
      <path fill="#4c4b33" d="M-31 275.8l16-14.8 47.4 104 4-75.8" />
      <path fill="#dde1e1" d="M944 497.5L924 467l-30 9.8 53.3 6" />
      <path fill="#3b625e" d="M672.8 398.6l69 7.5-2.4-32-7.4 29" />
      <path fill="#5f695c" d="M214.4 498l43.2-5h-38.4l-57 .4" />
      <path fill="#170000" d="M423.2 320L365 261l-39-21 112.8 105" />
      <path fill="#48403a" d="M940.4 508l-15.3-.7 8-13.7 5 8.2" />
      <path fill="#954029" d="M662 208l-17 59-35-30.5-20 25.5" />
      <path fill="#119eaf" d="M777.7 515l-2.4-15.8 36 19.6-3-25" />
      <path fill="#b2b7ab" d="M887.7 380.8l-4 26.6-.8-57 8 43.3" />
      <path fill="#588b93" d="M760.8 257.6l16.2 35.2-8.8-24.3 30-14.7" />
      <path fill="#bcb594" d="M602.3 461.7l-7.8-8.8 27 1-11.5-29" />
      <path fill="#9e9c8c" d="M964 380.6l2.3 13.4-35-12 21.8 2" />
      <path fill="#22190c" d="M273.3 451.6l-2.3 16-21-18.5-21 1" />
      <path fill="#824e42" d="M236.3 138.8l-6 3 1.5 16.2 8-23.2" />
      <path fill="#4f4e44" d="M659 502l-21.7-32.7 3.4-68.3-1 96.7" />
      <path fill="#4c3c2d" d="M997.5 313.3l29.8-7.7 27.7-21-55.4-5.4" />
      <path fill="#8fccc3" d="M83.4 445.6l-3 32.8L66 467.8l13-4.7" />
      <path fill="#d6ad93" d="M532.2 473l19.5 1 22 12.6 11.3-4.8" />
      <path fill="#49423a" d="M1005 427.5L971.7 444l1.7 27-12-28" />
      <path fill="#74cfd1" d="M724.2 392.4l-.3-25.7-6 28 6 5" />
      <path fill="#503a1e" d="M295.4 557l-56 .2-6.7 9.8 77.4-11.2" />
      <path fill="#afc6bf" d="M391.7 430l2.6-29 5.6 11.5 5 38.3" />
      <path fill="#050804" d="M211.5 189.4L129 129.2l71.5 50.3 14-3.8" />
      <path fill="#b4beb7" d="M977 345.3h22.2l-107 20.3 34.5-8.7" />
      <path fill="#512008" d="M426 392.4l186.5-4.3 2.5-3-212.7 1" />
      <path fill="#c8d8d4" d="M82 483.8l-2.7 15-11.5-6.8 1-5.5" />
      <path fill="#b0b8af" d="M628.3 503.4l8.6-35.6-1 50.6-3-25" />
      <path fill="#b2afad" d="M559.3 473.8l-75.7.3 13.2-1 61-5" />
      <path fill="#33211a" d="M956.7 297.8l8 28.2-6-38L796 330" />
      <path fill="#909f83" d="M138.2 456.2l1.5 12 8-17.4-31.4 16.3" />
    </g>
    <g class="SVG--3">
      <path fill="#2d4541" d="M894.5 508.4l5.6-14 21-2-25-11" />
      <path fill="#90b3a4" d="M884.2 510.8l5-44.8 4.2 18-.8 31.7" />
      <path fill="#ae9a8e" d="M313 560.6L211.6 568l-16.8 28.2 2.8-14" />
      <path d="M232 178l-8.6 12.5 50 28.4 11-15" />
      <path fill="#8e8668" d="M224.2 419l-89.4-32.2 61.6 9 5.8 22.4" />
      <path fill="#dadfdd" d="M872 477.5l6.5-12-33 12-10-10" />
      <path fill="#73775e" d="M263.5 367.4l-9.4 9.3 31 21.7-23-6" />
      <path fill="#8d7266" d="M249.6 627.5l-70-12-61.5 13.2 3-43.7" />
      <path fill="#22221b" d="M115 481.2l66 9.5L59.4 493l71.7-7.4" />
      <path fill="#4b5354" d="M665.3 345l3.8-45.3-26 26.7 58-9.2" />
      <path fill="#dbdbc0" d="M99.6 462.4l9.4-9.7-1.7-6.8 4.7 14" />
      <path fill="#aa5a3a" d="M232.8 441.5l160 22.8-244-28.6 110.6 6.4" />
      <path fill="#b6c0ae" d="M166.8 447.5l3 8.4 6-5-1.2-3" />
      <path fill="#c27455" d="M666.2 189l-60 67.7-38 30.2 139-128" />
      <path fill="#5c524a" d="M206.7 180.3l-49.3-11.5 20.2 23.2 26.6-23.6" />
      <path fill="#a16b4b" d="M582 436l17.4-1.7L592 421v-21" />
      <path fill="#0f6687" d="M259.8 396l-23.6-16-4-8.2 11 3.3" />
      <path fill="#343837" d="M427 351.6l-14.7-2.4-2.3 3.3 12 33" />
      <path fill="#eae9bf" d="M518.8 525l6.2-6 15.3 7.5 2 1.7" />
      <path fill="#91796c" d="M19.8 645.8l12.5-38.5 9 45.3L77.8 713" />
      <path fill="#5f554a" d="M753.6 414l55.6 5.6.4-71.8.6 42.6" />
      <path fill="#4e1600" d="M598.3 251.5l13.4-21.5 100-93.4 16.4-12.8" />
      <path fill="#5f675b" d="M689.6 480.7l-100.4 7.6 90-9.3 91.5-9" />
      <path d="M821.2 164l153.4-68.7 9 17-4.4 4.3" />
      <path fill="#00246b" d="M635.7 205.6L459 185.4l-154.3-68.7 136 137" />
      <path fill="#b5694a" d="M646 467l-63.4 4.6 78.8-14 41-1.6" />
      <path fill="#373329" d="M416.2 426.4l3.4 10.7 14.4-1-14.7-20" />
      <path fill="#3c4f4c" d="M54 195.7l63.7 1.5-46.4-18.8L91.6 229" />
      <path fill="#392d21" d="M119 443.4l-10-6.2 12.3 15.8-5.6-26.6" />
      <path fill="#485c58" d="M781.4 498l77.6-7-141 5.5 87.7.4" />
      <path fill="#290000" d="M40 94.7l5 20.2-1.3-90L-31 63" />
      <path fill="#897c64" d="M1020 530.5l-136-.6 171-3-35.4 24" />
      <path fill="#b89587" d="M112.3 584.5l2-10.2 37.8 20.2 45-24" />
      <path fill="#978977" d="M163.5 377.3l84.4 23.5-31-9.2 59 9.8" />
      <path fill="#521900" d="M881.5-16.5l-38 39.8 112-54.3-.2 87.8" />
      <path fill="#87816e" d="M156 357.6l-2.2 32.6-.4 17.4-5.7 1" />
      <path fill="#284844" d="M804.2 341l-30.8 15.3 51.2-8-13 30.4" />
      <path fill="#7f6f63" d="M165.4 648.6l141 10.5-26.4 13-64.2-3" />
      <path fill="#a78357" d="M525.4 504l25 9-48.8-22.5 19.3-22.7" />
      <path fill="#af9085" d="M961 651l1.7-36 12 14.4-47.4 46" />
      <path fill="#dab996" d="M439.4 407l4.8 6 8.6 39.4-14-39.5" />
      <path fill="#3e3f31" d="M186.5 368.2L235 373l-57.6 8.8 5.7-30" />
      <path fill="#7c826d" d="M189.8 262.6l-35-7.7 51.7-10-6.3-8" />
      <path fill="#011023" d="M825 204l30.5-17 94.2-13.5-106.3 41" />
      <path fill="#4e453d" d="M227 250.7l-10-83 9 11 1 69.6" />
      <path d="M786.3 175.6l-41 29.7 10.4 5.6 53-23" />
      <path fill="#af5c3a" d="M564 297l-23.8 57.4-.2-24.5 27-34" />
      <path fill="#1b0000" d="M757.4 91L629 208.5l91.6-78L837 26.3" />
      <path fill="#463128" d="M564 548l-25.3 51-88-36 193-12" />
      <path fill="#cce2e1" d="M409 475.2l17 23.6-1-14-12.3 13.3" />
      <path fill="#694737" d="M985.4 406l56-35.5-67.5 2.2 81-8.5" />
      <path fill="#588477" d="M766 456.8l-11.8 35-3.8-7.8 1.3-8.2" />
      <path fill="#4d4b44" d="M219 297l-6.2-25.4-62.4-39.7 74.3 34" />
      <path fill="#836b4f" d="M935.6 531.5l-15-21.8L912 542l96.6 8.4" />
      <path fill="#bfc5ae" d="M113.7 367l2.2-1.2 22-2-17-3.3" />
      <path fill="#251f13" d="M160.7 326.3L289 362 63.5 317.7 98 322" />
      <path fill="#5e7263" d="M955.3 493.8l3.6-.7 6-2-81-4" />
      <path fill="#346262" d="M312.7 516.4l-6.4-9.7 80.5-23.6 10 4" />
      <path fill="#cadbcc" d="M720 452.6l-9.7 2.2 33.7-5 11.4-4.7" />
      <path fill="#aa4a34" d="M745.8 252.3l1-35.8 4.5 137.8-1.7-29" />
      <path fill="#878976" d="M1027.2 427.2l20.8 59.2-17 28.8-8.6-48.2" />
      <path fill="#4c5351" d="M808.2 263.2l-2.2-70.8-3 96.6 64-30.2" />
      <path fill="#d4795b" d="M180.2 297.8l13 10h14l15.3 4.5" />
      <path fill="#538f8a" d="M59.7 474.8l5.5-19.3-13.2 26 1.3 47" />
      <path d="M-31 80.2l33.2 32 29.7 6.6 7-26" />
      <path fill="#74d2db" d="M288.4 371.7l-5.2 20-1-6.6 8.3 10" />
      <path fill="#7d694f" d="M115 526.3l.6 26-21-21.2 16.8-14" />
      <path fill="#703924" d="M587.4 357l2.3-56.6 3 62 74.5-70" />
      <path fill="#002534" d="M468.5 413.7l-3-18.7 11.5 17.4-10 2.2" />
      <path fill="#947260" d="M454.7 626l-81-17.2 35 1.7 132 10.4" />
      <path fill="#445c57" d="M418 475.5v20.8l1.3 10.6 3.8 6" />
      <path fill="#934f34" d="M288 357.7v-10.4l-8.6 27.3 4.3-57.8" />
      <path fill="#57bcbf" d="M743.3 376.8l2.6-2.6 2 30.8-17-24.7" />
      <path fill="#8f8474" d="M706.5 309L588 375l43-22.6-2.6-5.3" />
      <path fill="#e0a67f" d="M449.4 476l-7.5 5.8 26 4-6-.8" />
      <path fill="#984226" d="M735.7 341.7l97.7-21 70-27-24.6-2.3" />
      <path fill="#2f2e2d" d="M692.4 298.3l-47.2 9.6 113.4-74-101.8 86" />
      <path fill="#d9a573" d="M206.2 555.2l10.8 15.6-1-54.2-11.2 19" />
      <path fill="#ac9889" d="M1025.5 197.5l-10.8-2.5-10.5-2 .4 10.2" />
      <path fill="#43605b" d="M218.4 480.8l27 2.4L244 499l-27-47.8" />
      <path fill="#232428" d="M1000.3 193.6l54.7-22.3-63.7 2 .5 21.4" />
      <path fill="#ba6659" d="M992.5 246l-9.7-159 4 22.8 3 24.6" />
      <path fill="#63725d" d="M619.4 466.8l2.5-56 14-17-10 19.8" />
      <path fill="#544842" d="M190.3 713l-62.6-38 35.7 5 32.7 4.4" />
      <path fill="#411300" d="M992.8 214l62.2-34.3-50.5 54.2-10.7-55" />
      <path fill="#d2e1bf" d="M1015.7 333.6l-2.6-2.3V312l5-2" />
      <path fill="#4b534a" d="M893.3 487l37.5 5-61 1.3 55-7.2" />
      <path fill="#7a6e63" d="M458.4 373l7.8 9-38.2-4-32.2-24.7" />
      <path fill="#5b4641" d="M868 160l-89 58 177.3-73.8-37.6-5.3" />
      <path fill="#64412d" d="M669 433.5l2 25.2 66.7-13.3-31.8-1.2" />
      <path fill="#65938c" d="M635.2 348.5l-22.2-5.2 20-8.8 1.8 14.5" />
      <path fill="#c3dadc" d="M945.3 503.7l3.2-38.5-14.2 4.6 11 1.3" />
      <path fill="#6b6d62" d="M27 455.2L12.6 480l-43.5 7 76-26.5" />
      <path fill="#6a584b" d="M201.6 665.3l-61.3-12 38 .3 31-3.6" />
      <path fill="#e2f2f8" d="M621 432.8l-12-11.4 10-4.4-.6 12.6" />
      <path fill="#4d3532" d="M978.2 25l5.7 117-73 9.3 74-37.3" />
      <path fill="#6f8166" d="M195.2 444l-3.8 1.4-15 18.3 24.3-2" />
      <path fill="#826b5b" d="M628.7 673.3l52.6-11.4 135-11-142.6 26" />
      <path fill="#79716d" d="M227.2 399.2l77 15.5-91.8-12.3 8-10.3" />
      <path fill="#b48345" d="M205.4 516.7L190 570.2l-38.6-23.7 6.8-22.8" />
      <path fill="#5c6e5a" d="M943.7 443l14.5 82.2-6.8-62.4-3-.5" />
      <path fill="#adc7c2" d="M626.4 410l-7.2 6.3 17-12.2.8 48" />
      <path fill="#88564f" d="M866.5 85l3.5 21-9.8-8.7-11 20.6" />
      <path fill="#284750" d="M694.7 315l-8.5-24-49.5 54 27.6-20.2" />
      <path fill="#3f5750" d="M717.4 403.7l23 3.5-48-18.3 28.6-25" />
      <path fill="#6c564c" d="M1055 596l-94.2 117 10.8-35.7 83.4 13" />
      <path fill="#62dfdc" d="M300 378l-2.5 9-4.5-12.6.3-2.8" />
      <path fill="#a88d84" d="M396.4 555.6l-57.6 5.2-12-.7 25.8-3" />
      <path fill="#d59368" d="M446 276l26.5 32.8-39.5-31 14 60.3" />
      <path fill="#80877f" d="M738 432l19.4-9.7-37.4 3.3-2 9" />
      <path fill="#dca478" d="M409 387.6l30.4 19-47.5-18 3-5.7" />
      <path fill="#202427" d="M554 510.5l29.5 3.6-8.2-4-44 9" />
      <path fill="#c0a9a5" d="M982.3 552.3l67 1.6-132.6 11 90.4-7" />
      <path fill="#4c3224" d="M982.7 553.6l-5 4-2.2-22.2-15.7 23.2" />
      <path fill="#a7af8e" d="M852.5 368l27 41-9.4-35.5-5-7.5" />
      <path fill="#46392c" d="M60.2 505.6l1.4-39.2-3.6-62.2 9.3 91.5" />
      <path fill="#39241a" d="M173.3 320.8L103 302.5 222.4 327 323 363" />
      <path fill="#513b22" d="M363.3 544.2l5.3-18.7-13 8.3-8 5.3" />
      <path fill="#001853" d="M840.4 16L670.2 53.3 479 94.6 618 163" />
      <path fill="#cddacd" d="M970.7 502.8l-15.4-40-5.2-8 14 40.6" />
      <path fill="#d0dae9" d="M15 201.6l-33.4 2.4-7.2 24.7-5.4-30.3" />
      <path fill="#9e4933" d="M819 52l78.8-55.3-76 67.8L786 94.2" />
      <path fill="#157a7e" d="M75.6 499.2L63 504.5l4.4 2 3 8.5" />
      <path fill="#b4b2a3" d="M444.3 435.7L457 454l-58.2-6.6 21.7 1" />
      <path fill="#866231" d="M260.4 554l-40.7-2-1.3-34L374 549.8" />
      <path fill="#978880" d="M300.8 255l16 8.4-2.5-9.6-10.2-4.6" />
      <path fill="#ccaeb1" d="M794 139l-.8-.4 9.7 5.5-1-7" />
      <path fill="#81592e" d="M546.2 516.5l2-31 4 68.7-9.4-33.6" />
      <path fill="#481200" d="M990.6 414l-63.6-2.2 44-24.3 23.4.8" />
      <path fill="#785447" d="M58 218l-3.8 12-.7-22.3 4.3-37.2" />
      <path fill="#141a14" d="M44 508.5l-.2 10.3-17-6.3L45.4 461" />
      <path fill="#1d1924" d="M468.8 290.3l18.7 40.4-38.3-65.5 18.8 26.5" />
      <path fill="#323424" d="M375.4 382.3l-56.6 28 38.3 8.2-42-23.5" />
      <path fill="#462517" d="M861 432.3l46.4-38.8-8.6 27.6-3-31" />
      <path fill="#31251f" d="M39.7 275L54 179.3l7-80.6.3 59.2" />
      <path fill="#765c4f" d="M830.5 658.3l99.2-42.2-89.6 27-81 12" />
      <path fill="#ecc87b" d="M600 518.3l-.6-16.7 6.4-1.4 7.3 3.5" />
      <path fill="#60756e" d="M266.6 455.2l37.7 5.4-26.8 3.5-4.6-6" />
      <path fill="#605944" d="M45.8 346.5l21.6 8-5.8 19.7 30.7-25.6" />
      <path fill="#8b4024" d="M557 481.3l91-34-107.8 35-15.4-5.8" />
      <path fill="#586c60" d="M892.2 371.2l-58.4-61.4 53.5 56-1.2-65.6" />
      <path fill="#8ea090" d="M302.2 423.7l82 18.6-8-7.4 2 13" />
      <path fill="#d3c5aa" d="M741.5 448.8l61.2-10 16.4 1-34 6" />
      <path fill="#00457d" d="M556.2 398.4L505 396l-21 14 80.2 5.5" />
      <path fill="#80afb0" d="M646.7 503l19.7-2-8.3 12-31-11" />
      <path fill="#665746" d="M857.3 388.8l42.6-5.2-50 10-57 38.6" />
      <path fill="#564f43" d="M777.2 380l18.6-1.5-12.5 27-30.3 25.2" />
      <path fill="#a28d6f" d="M124 374.3L108 363l-70.8-8 108 16.5" />
      <path fill="#6d594f" d="M709.6 263.6l-109 75L621 315l65.3-47.2" />
      <path fill="#96826b" d="M722 407.5l114.6-26.7-47 13-174.8 43" />
      <path fill="#4a2e1b" d="M883.8 576.3l11.4 2.5-77.5-10.2 7-3.3" />
      <path fill="#967060" d="M482.8 660.7l81-14.7-99 .2 19-12.3" />
      <path fill="#5d4731" d="M824.7 560.4l-8-28.4-5-91.7-1 65" />
      <path fill="#818460" d="M117.4 336.2l13.6 16.3-11-1-6-7" />
      <path fill="#734f40" d="M989 201l3.4 79-22.2 35 18-2.3" />
      <path fill="#775c5a" d="M68.4 29.6l12.2 8.8v5.8l-10.6 1" />
      <path fill="#b27343" d="M840.6 539.6l47-20.3-5-3-58.7 2" />
      <path fill="#f0f1ed" d="M909 560.5l6 15.5 72.2-9.2-32-5" />
      <path fill="#917a6e" d="M952.6 560.3l22.6-1-53.7-6.7-8.6 5.2" />
      <path fill="#632d1c" d="M575.7 411.5l23.3-15.8-22 9.5-20.3 36" />
      <path fill="#9bbba1" d="M960 318l22.6 24 7.4-17.4-55 3.7" />
      <path fill="#6e2e15" d="M192.7 413.6l28.4 26.6-195-25.7 62-14.3" />
      <path fill="#8c7a65" d="M442.4 386l-10.6-17-272.4-138.5 235 114.5" />
      <path fill="#7a9068" d="M820.4 387l-1.8-35.8 15-10.4-.4 29.5" />
      <path fill="#8d622e" d="M482 540.4l.2-19-138.7 8.2 134 21" />
      <path fill="#7dadaf" d="M633 485.4l83.3 6.7-35-6-22.3 5" />
      <path fill="#422924" d="M407.2 332l-82.4-56.3-42.4-26.3 41.7 17.3" />
      <path fill="#282012" d="M339.4 469.2L253 464l70.4-2.4 48.2 5.4" />
      <path fill="#7a7b6d" d="M154.5 263l72.8 22.7-59-21.3-13-23.4" />
      <path fill="#93a080" d="M954.4 450.3l-62 9-8.7 1.7 83.4-2" />
      <path fill="#635144" d="M463 582l14.6 32-224-25.5 136 4.2" />
      <path fill="#7dae9c" d="M965.5 331.3l-69.6 6 4-6 34 18.5" />
      <path fill="#3f0700" d="M415 232L296.8 127.2 109.8-31l241 197.4" />
      <path fill="#86716a" d="M967.2 10l-10 18-.5 5.5 3.8 1.5" />
      <path fill="#aab0a3" d="M281.2 307.3l107.3 50.5-120-47.7-35-20" />
      <path fill="#eae9e9" d="M896.7 473.5l-2 8 36.5-17.4-4 15" />
      <path fill="#bba293" d="M272 676.5l95 5.2h10l-8.8 27.5" />
      <path fill="#bc785f" d="M286.8 294.7l-4.6-23 2.6-30-4.7 159" />
      <path fill="#160d07" d="M493.8 513l4.5 1.5 7-23-17.8 17" />
      <path fill="#b8bdb3" d="M952.4 519l24-36.6L944 533l-2.7-10.2" />
      <path fill="#52413a" d="M45.4 126l79.2 24L69 160l-23.4-32" />
      <path fill="#5d361c" d="M419.5 339.8h.8l2.2 24.4 15.4-2.7" />
      <path fill="#907a6b" d="M479.3 429l25-4-28.4-7.7-11 7.7" />
      <path fill="#4b4e4b" d="M935.4 492.6l8.8-3.8 30.2 1.7 46.3-1.3" />
      <path fill="#29211b" d="M892.7 321.2L778 338.4l72.8-26.2-77.2 43" />
      <path fill="#494834" d="M144.6 371.3l59-4.4-47-42 65.8 64" />
      <path fill="#8f7160" d="M671 651.3l43.8-22-95 2.5 215-10" />
      <path fill="#bcd6dd" d="M696 515.3l2.6-39 5.7 30.6h2" />
      <path fill="#425255" d="M30.7 517.4L6 533.7l-37-16.2L50.5 530" />
      <path fill="#aabeb0" d="M837 502l-4.7 4.3 6.6-41.8-3-7.8" />
      <path fill="#733b29" d="M53 87.4l-7.5 144.8 1.7-114 .4-72" />
      <path fill="#1e0c0a" d="M553 302.2l38.6-52.4 34.6-34-27.5 32.5" />
      <path fill="#4a4a42" d="M966.4 460l6.6 48.8-1.7-80.8.8 4.6" />
      <path fill="#924021" d="M454.5 425v18.7l-15.3-44 17.8-3.2" />
      <path fill="#2f2e28" d="M832 447.7l-69 2v41l-7-38" />
      <path fill="#aa9283" d="M646 556l70.4 5.7 54.8 8.7-105.7-10.7" />
      <path fill="#826d5e" d="M345.6 274.4l52.7 44.3-39-29.4L325 270" />
      <path fill="#8f7965" d="M891.4 369.3l87.2-18.4-110 21-55 19" />
      <path fill="#3f5258" d="M830.5 232l40.2-11.4-45 28.4 12.2-37.3" />
      <path fill="#081219" d="M274 245.4L149.4 184 275 239.2l-1.2 32.4" />
      <path fill="#655f4e" d="M967.3 377.5l-5.3-18.3-10.2 17.5-83 11.5" />
      <path fill="#688178" d="M316.2 288.6l11.2 36.3-.3-16 10 1" />
      <path fill="#d1e6ed" d="M967 476l-7.8 33 5-7 4.2-.5" />
      <path fill="#310000" d="M979 71.4V54l-127.5 78.7L964 96.5" />
      <path fill="#6e766d" d="M694 326l56.6-37.8-49.2 20.2 29.8 16.3" />
      <path fill="#e3f0f4" d="M764.7 479.8l-1.2-5.8 40.4 2.7-38 5.2" />
      <path fill="#535247" d="M361 330l-15-22.6 4.5-22-6 61" />
      <path fill="#826144" d="M515 493.7l-20.3-6.2v-31.8l14.8 59.4" />
      <path fill="#e3eef2" d="M879 366.6l32-11-.2 9.8-21.6 1.4" />
      <path fill="#444c45" d="M126.6 492.4l-135-4.4-22.6 5 41.7.3" />
      <path fill="#f7fce6" d="M4 444l-35 62.6v-74.4 6.2" />
      <path fill="#8c7061" d="M693 558l-84.5-4.7 32.4 8 19 3" />
      <path fill="#42361d" d="M822.6 431.2l.2 81.5-2.2-3.7-2.4 32.2" />
      <path fill="#1d403b" d="M287 360l61.2 24.8-35.7-10.3H283" />
      <path fill="#313a2d" d="M629 486.2l59.8-17.6-7.5 9.7 14 4.4" />
      <path fill="#58635a" d="M964 490.2l-113.7 3.5-203.8 4.6 281.4-9" />
      <path fill="#1f4244" d="M407 502.4l15.2 10 8-11.4-3.5 1.4" />
      <path fill="#34565b" d="M688 293l52-30.3-29.6 55.8 26.3-13.6" />
      <path fill="#a07b68" d="M577 610.6l56 10.5-70.5-1-17.8-1" />
      <path fill="#bb7960" d="M643.6 413l-1.6-1 .3 39 3-4.4" />
      <path fill="#6b4e36" d="M202.4 571l-18.8-5.8-45 15-11-5" />
      <path fill="#4e2108" d="M714 346.7l33.3-15.3-2.2-13L643 365" />
      <path fill="#31211b" d="M1006.4 429.6l-171.2 21-41.6.3 18-7" />
      <path fill="#738228" d="M495.5 540.7l-17-5 27-1 36.5 4" />
      <path fill="#474642" d="M475.5 418l70.3-3-10.6 17.5-55.2-14.3" />
      <path fill="#6c674c" d="M83.6 362.2l30 22.7-55.6 4 43 10" />
      <path fill="#552916" d="M419.5 392l-148.7-74.3 58 19.3 65 29.3" />
      <path fill="#a7ae95" d="M331.5 331l80.3 45.5 16.8 5-69.6-36.3" />
      <path fill="#6b5850" d="M469.3 628.8l76.6-8.4 66 4.3-82 3.3" />
      <path fill="#5c3a28" d="M377.5 384.7L359 397.4l43.7 10.8-151.3-75.6" />
      <path fill="#5c4c45" d="M869.3 207.2l1.3 7 4 39.5-.4-83" />
      <path fill="#93683d" d="M564.7 531l1-36.4 2 18.5-6.2 22" />
      <path fill="#470e01" d="M1043.3 376.7l-43 10.6 11.4 24.4 43.3-8.4" />
      <path fill="#555138" d="M130 382.3L106 413l73-73.8 16 .6" />
      <path fill="#087c8c" d="M791.8 495.7l-27.4-1.2 22.4 20.8 7.2-16" />
      <path fill="#334d09" d="M489.8 538.8l-8.6.8 4.6 9.6 57.7-4.6" />
      <path fill="#bfc3bf" d="M969.7 353.4l13 10.4 6.6 4.3-17.6 16" />
      <path fill="#a2b9a1" d="M997.4 493.3l-25.8-10.7 24.2-17.2-12.2 49.3" />
      <path fill="#e2b68b" d="M128.5 517.8l-11.2-1 11 56.6.3-37.4" />
      <path fill="#2e2f2b" d="M-9.3 339.3L-31 350.8 30.4 326l5.5 15" />
      <path fill="#883921" d="M299.5 145.3l-14 13.8 122.7 114-54.8-78" />
      <path fill="#aa6746" d="M482.8 458l-3.4 67-.5-89.4 2 37" />
      <path fill="#f1ad7a" d="M441 392.2l135.2 2.6H472.5l-60.2 1.2" />
      <path fill="#b1c2b5" d="M841 347.4l-7.5 6.8-3.7 56.3L836 371" />
      <path fill="#562a1f" d="M988.3 75.6l-5 55.4-8.7-162-3 15.2" />
      <path fill="#71351c" d="M198.4 417L73.8 397l230 55-48.2-25" />
      <path fill="#60876e" d="M869.6 352.4l14.7 8-18.5-13.7-36-1.4" />
      <path fill="#b79688" d="M588.3 664.4l-34-23.5L663 655l-152.6 12" />
      <path fill="#856e5e" d="M588.6 365.2l32-7.3-51 23 35.2-46" />
      <path fill="#212b21" d="M866 515.8l7.5-16.5-44 15 62.8 2.7" />
      <path fill="#000300" d="M293.7 234.5l21 10.6 41.7 29-68.6-66" />
      <path fill="#8b4732" d="M748 378l2.3-47-2-50.6-3 81.5" />
      <path fill="#445039" d="M822.3 449.3l41.2-5.8-28 12.5-2.5 30" />
      <path fill="#b5cfc6" d="M277.5 516.5l-2.8-36.4-.7 37-61 1" />
      <path fill="#c3e1ea" d="M978.8 512l-3.4 6 11-2.6 3.5-8.4" />
      <path fill="#895139" d="M618 402l4.4 3 32.7-9.8 2-16.8" />
      <path fill="#2e2a23" d="M726 362.7l-24.5 12-48 15.5 21.3 5.2" />
      <path fill="#a58d6a" d="M739.2 516.6l-119-5.8 25.4 5.8 28.5.8" />
      <path fill="#949c98" d="M1003.2 456.3v-15.5l13.7.7-21 19.2" />
      <path fill="#66543a" d="M913.6 517.6l-1.7 40.8 8-35.4 33-3.2" />
      <path fill="#d17055" d="M46.7 126.3V100l-6 107.2 4-29" />
      <path fill="#436059" d="M222 231.6l20.6 8.6 34.7 12-43.8 5.8" />
      <path fill="#3a3f37" d="M298 268.7L291.8 402l59.7-15-60-.2" />
      <path fill="#81a48e" d="M393.8 336l14.8 31.4.3-24 10 2.6" />
      <path fill="#b5978a" d="M810 566l52.5 13L720 561l84 19.6" />
      <path fill="#0f1a20" d="M440.4 485l22.4 7.3-18.8 20.5 18-2" />
      <path fill="#57acb5" d="M803.7 367L789 357l9.7 3.8 9.6-4" />
      <path fill="#b3653b" d="M617.4 236.7L547 318.4l42.3-56.3 24.4-26" />
      <path fill="#403a28" d="M50.6 330.8l39-7.2-49.7-2 1 26.2" />
      <path fill="#b8cfd3" d="M972.8 476l.3 9.5 3 18.5 7-19.5" />
      <path fill="#204a50" d="M639.6 333.3L619.3 357l-17 5.2 51.7-39.8" />
      <path fill="#424332" d="M138.3 462.6l1-21.6-11.4 9.8 7 39.8" />
      <path fill="#44342c" d="M878 332.4l5 90-9-108 98-15" />
      <path fill="#e6e5ec" d="M948.5 466.5l-5.3 15.7-1.7-9.3-2.4-8" />
      <path fill="#070007" d="M262 93l91.5 80.2-20-25.7L121.5-30" />
      <path fill="#8a6c65" d="M1008 635l33.7 52.4 13.3-80.7-147-23" />
      <path fill="#1c4144" d="M-31 476.3v96l51.3-60-51.3 3.3" />
      <path fill="#2e7c84" d="M743 500l-11.5 11.4-3.6-9.2-63 2.5" />
      <path fill="#9a9583" d="M789 600.2l47.4-10.5-34 20.5-63.2 11" />
      <path fill="#dededb" d="M403.3 452.2l-4-2.3-4.6-31-.6 30" />
      <path fill="#d4c6b6" d="M563.6 451.5l12 1.4 30.2-18v21" />
      <path fill="#6d5638" d="M153.3 540l-24.6-2.8 10.5-43.8-10.6 60.8" />
      <path fill="#90986c" d="M830.3 476.6l-9-4.5 4.3 60 1.2-50" />
      <path fill="#8d7561" d="M418.6 441.4L348 418.6l8.6 1.7-123.6-27" />
      <path fill="#6b2a0f" d="M430.8 467.3l-30.7-3.6 6-3.8 93 3" />
      <path fill="#000200" d="M56.5 99.4L52 126.6l40.4 11 97 36.5" />
      <path fill="#152e36" d="M375.8 321.3h-4.2l-15 2.5-31.4-33.6" />
      <path fill="#6d9e9b" d="M893 512.2l70-44-38.5 25.3 1.5 7.4" />
      <path fill="#580b00" d="M650 270l71-62.6 77-72.8-8.8 32.5" />
      <path fill="#9dc4c9" d="M689.2 332.6l31.5-11-14 8.3-52.7 25" />
      <path fill="#282720" d="M545.5 504.5l64.8-8.6-23.3-17-27 28" />
      <path fill="#a75341" d="M619 262.6l-.2 14.7-25.2 38.5-4.3-27.8" />
      <path fill="#662000" d="M230.8 141.3L397 279 286 164.8l-92.2-65" />
      <path fill="#997c66" d="M437.2 336.5l-1.3 48-13-14.8 16-5.4" />
      <path fill="#7d8b80" d="M988.4 531l2.6-13.8 31.5-12.6-43 24" />
      <path fill="#0c141c" d="M865.8 184l-115.6 56.6 22 6.7-19.3 2.5" />
      <path fill="#4d3f2f" d="M473 467.6L441.8 516l-3.8-45 6.8 39.6" />
      <path fill="#550a00" d="M860.8 76.8L993 25.5 806.3 138.2 886 110" />
      <path fill="#7e6960" d="M169 603l-7-12 49.6-19.7-32.3 10" />
      <path fill="#232820" d="M1015.5 494.6l3.2-63.6 5.5 64 30.8 32.6" />
      <path fill="#786758" d="M874.7 495.5L960 372l40.7-2-49.4 13.5" />
      <path fill="#b4cbc8" d="M707.5 474.4l39-1 9-6.6-17 .5" />
      <path fill="#f7dbbc" d="M572 295.8l9 18-9.5 33.6L569 333" />
      <path fill="#4c4130" d="M965.6 393.7l19.2-14.4-16.7 9.3-5-87" />
      <path fill="#6c7566" d="M950 395l-19.7-13 4-37-14.3 36" />
      <path fill="#8a5830" d="M890 574.3l5.5-31.4-3-21-12-1" />
      <path fill="#ac876e" d="M988.6 425l-50.4 6.4 10-11 28.6-3.5" />
      <path fill="#3a3732" d="M689 264l45.6-32.8-27.3 38.3-30.2-18.2" />
      <path fill="#438176" d="M671.4 495.2l25.7 9-31 9.8-2-31" />
      <path fill="#695646" d="M615.7 587l162.5-1.7L654 617l-64.3-4.3" />
      <path fill="#bfc4af" d="M409.4 449l-5.8 3.2-10.4-31.2 39 39.4" />
      <path fill="#54908f" d="M764 381.2l6 13.2-83 3.6 71 .4" />
      <path fill="#5c210c" d="M752.6 428.8l9.7 15.6 186.5-25.6-68.4-13" />
    </g>
  </g>
</svg>