<svg version="1.1" viewBox="0 0 1024 682" width="1024" height="682" xmlns="http://www.w3.org/2000/svg">
  <path fill="#de9d58" d="M0 0h1024v682H0z" />
  <g fill-opacity=".5">
    <g class="SVG--0">
      <path fill="#981d03" d="M253.5 713L-31 700.8 1.6-31l260 4.8" />
      <path d="M1055 689L1026.6 2.5 955.2-31l54.4 658.2" />
      <path fill="#ffffa6" d="M367 713l489.5-82.4 110-613.4L457 413.7" />
      <path fill="#ffffb3" d="M291.6 383L457 274.7 640.2-31H225.8" />
      <path fill="#fdd55f" d="M298 713L136 241.3l-79.6-28.8-.3 246.8" />
      <path fill="#fb0004" d="M893.7 126l-239 65.6-83.6-55 13-80" />
      <path fill="#f10002" d="M196.8 471L159 179l86 10 108.5 420.8" />
      <path fill="#ffffb7" d="M735.7 147.2l95.2 80.3-16 270-346 109" />
      <path fill="#2c0000" d="M-31 683.4L134 713l-25-71-127-182.3" />
      <path fill="#4a0700" d="M460.2 167.7L544 165l-575 65.5 77.4-51" />
      <path d="M967.7-31l13.8 194.6 39 302.2 34.5-415" />
      <path fill="#e00" d="M672 246.5l.8 85.3-32.7 5 10-95.8m141-23l-8-145.6 73-100-143-.5" />
      <path fill="#ef0000" d="M464.4 468l-2.4 65 40 2.6-7.3-80.5" />
      <path fill="#680c09" d="M78.4 117L4.6 148.5-31-31 280-.3" />
      <path fill="#f90004" d="M547 470.7l6.7-177.3L584 448.7l-31 4.5" />
      <path fill="#ff4434" d="M519.8 331.3l-22.8 82-333.2 88 254-201.3" />
      <path fill="#fffffe" d="M550.3 369.3L683.6 394l-268-103 108-16.4" />
      <path fill="#ff020f" d="M532.6 178L603 345.6 537.2 274l-70.3-9" />
      <path fill="#fffc78" d="M231.3 40.8l-27.7 132 346.8-54.4L636.8-31" />
      <path fill="#ff8" d="M684-13.8l62.2 84-33.5 32.8-107.2-60.2" />
      <path fill="#ffffe7" d="M649.8 232.5l-58.5-69.3-59.8 29.5 167 69.8" />
      <path fill="#ffffd8" d="M516 206.8L505.6 184l-172 12.8L323 373.2" />
      <path fill="#e17c26" d="M967.7 713l66.7-285.5-255.6 193.7 44 91.8" />
      <path fill="#fcdf5d" d="M306 497.6l-128.2 60.2 182 155.2-134.6-290.5" />
      <path fill="#ffffeb" d="M377.7 347.7l83.2-3-7 34.3-85-11" />
      <path fill="#f4dc60" d="M827-31L683 713l333.2-246.8-29.5-151.8" />
      <path fill="#f60000" d="M384.2 507.6l-5.4 78.5 32.8 9-2-62" />
      <path fill="#fff97a" d="M345 713l1.7-178.3L257 486l133.2 19.6" />
      <path fill="#db010a" d="M268.6 176.8l.7 9.4-4.8 271.3-112.2-235.3" />
      <path fill="#ff0f0f" d="M571 129.8l47.8-132 50.8 245.6 17.8-113.7" />
      <path fill="#47a0ff" d="M948.5 162.3L938 204.8l49 10.2-22-44" />
      <path fill="#ffffe2" d="M500.2 532.3l53-23.2-6.3-153-45 84" />
      <path fill="#ffea5c" d="M888.3 15l-133 63 233.4 49.7-34.8-65" />
      <path fill="#f53819" d="M422.7 458.6l-173 117.2 104.6-23.6-127.6-162.5" />
      <path fill="#fffab7" d="M662.2 220l68.5 359.3-22-431.8L825 191.8" />
      <path fill="#ffffa0" d="M339.8 399.3l103.6 14.3L284 361l-24.5-107.4" />
      <path fill="#ffffd8" d="M666 476l-26-187.8-63.7 69.2L578 482" />
      <path fill="#c76223" d="M936.8 173l62.4-29-139.6-37-76.8 21" />
      <path fill="#2c86ed" d="M154.8 162.8l-30.4-9.3-13.3 24.3 40 8.8" />
      <path fill="#1b0700" d="M21.8 204.6l-49.6-36.3-3.2 81 252.8-72.8" />
      <path fill="#f20000" d="M642.7 277l2.6 66 29.4-33.4-25.4-108.2" />
      <path fill="#ff2017" d="M451 266.3l-66.6 79 124.8-1-51.7 78.7" />
      <path fill="#feef5f" d="M850.5 659.2l-369-124-73.5-40.8 8.8 218.6" />
      <path fill="#050000" d="M971.8 84.5l-20-13.5 54.6-102 2.8 254.3" />
      <path fill="#ff0a04" d="M373 384.3l-79.3.2 67.3-28.2L520.8 429" />
      <path fill="#fff0a8" d="M409.3 523.4L437 399l28.3 25.3-.8 217.6" />
      <path fill="#c3642f" d="M1007.3 650.8l-60-152.2 40.8-261 30 409.6" />
      <path fill="#c34421" d="M37 214L276 22.7 262.6-29l-291 177.7" />
      <path fill="#f7da57" d="M292 713l521.8-25-382.3-97-158.6 8.6" />
      <path fill="#f00207" d="M835.7-26L706.4 24.6l65.8 52L815.4 35" />
      <path fill="#ed0001" d="M465.4 526.6l-5-54.4 28-22.4 14.7 80.8" />
      <path fill="#ff1722" d="M592.4 292.3L534 342.8l24.4-99 56.4 42" />
      <path fill="#d22b0d" d="M879.8 62.2L896-29.6l105.2 23.4-93 41" />
      <path fill="#000100" d="M55 652l24.2 51.8L-31 713V603.8" />
      <path fill="#eea63f" d="M207.3 32.4l121-63.4-41.7 155.4-99.4 25" />
      <path fill="#f6dd69" d="M308 523.6l31-70.6 3 11.5-39 166.3" />
      <path fill="#e18d3d" d="M330.4 713l-106.7-6.8L28 419.2l199.6 164.3" />
      <path fill="#d6a350" d="M873.6 26.8l18 85.7L965.4 571 988 279.4" />
      <path fill="#ffff67" d="M964 602.3l42 49 49-20-73.3 81.7" />
      <path fill="#e00" d="M573.4 453l-25.2-3.2 8.2-87.2 21 22.4" />
      <path fill="#da0103" d="M345.7 609l-28-11 3.5-62 23.8-6" />
      <path fill="#fff1b6" d="M545.8 537.3l109.4-310.6-65.4 33 136.7 184.6" />
      <path fill="#070000" d="M1023.3 256.8l3 191.4L992.6 325l19.7-132.6" />
      <path fill="#d20001" d="M292.7 484l17.5 84.6-24.7 2-13-23.8" />
      <path fill="#fb3924" d="M460 390.6l-32 100.8-36-12.8 54-13" />
      <path fill="#a2341c" d="M-31 417L91.2 713h110l-22.4-50.7" />
      <path fill="#ffe881" d="M839.3-31l-46.5 148.4 59.4-9L899-31" />
      <path fill="#df8832" d="M351.6 158.4l224 13.4L335 190l-87.7 9.6" />
      <path fill="#d40007" d="M749.3 161.4l45.6 12-5-50.2L746 23" />
      <path fill="#edc25b" d="M209.6 493l-97.8-193.4L200 604.8l43.3-167.4" />
      <path fill="#fb1423" d="M531 396l-36.7 44.7-37-21.8 18.4 19" />
      <path fill="#f85d3f" d="M558.8 82L696 217.6l-46 18-22-23.5" />
      <path fill="#fa0600" d="M318 389.4l104.8 39.2-151-38.6-.7-33" />
      <path fill="#ffffd3" d="M534 389.5l-11.3-120-87.8 25.2 134 64.6" />
      <path fill="#ffff7b" d="M83.3 214.5L106 221l-18.8 34L49 245" />
      <path fill="#fcf59f" d="M623 365l30.3 240.4 175.3-150 27-231" />
      <path fill="#fffaa8" d="M331 178.8L471.3 245 344 364l-75-25.2" />
      <path fill="#fbf0a1" d="M605.4 56.8l-97 103.7-103-2.6-36.2-113" />
      <path fill="#f80000" d="M620.2 92l2-123H686l-86.6 86.4" />
      <path fill="#cd4924" d="M847.8 671.4l57.5-68L985.6 713h-137" />
      <path fill="#fffca0" d="M371.8 438l-3 39.2-18.4-41.7 93.4 12.3" />
      <path fill="#ffff7d" d="M616.4 49l76 35.3 46.4 10L686.6-31" />
      <path fill="#ff3b1f" d="M436.7 381.2l1.3-84.4 122.4-92.4-154 98.3" />
      <path fill="#c88139" d="M21 391.5L25.4 270l128-44.3L70 503" />
      <path fill="#f1e073" d="M277 475.8l10.3 19.6-20.5 92.5L253 460" />
      <path fill="#fdd974" d="M544.7 153.4L637 133l-4.7 11.7-3.8 10.2" />
      <path fill="#730407" d="M267.7 176.5l-45-1-81 23.4 57.8 50" />
      <path fill="#000006" d="M1011.2 143.6l1 28-28.2 39.6-20-37.4" />
      <path fill="#ffffca" d="M480 458.4l11.7-24.2 25.8-12.7 68 77" />
      <path fill="#ff291e" d="M596.4 90.8L790 102.3l-255 45.2-37 96.3" />
      <path fill="#e80000" d="M404 512.5l-22 13.2 1.8 67.7 23.2-5" />
      <path fill="#faffc2" d="M536.8 180.3l19.5 25.3 79.2 22.3-33.7-59" />
      <path fill="#ecab4f" d="M152.8 242.8l-12.8-8L225 713l-33.7-332.5" />
      <path fill="#ffcb54" d="M837.3 154.3l39.4 34.2 108.8-78.2L971.8 83" />
      <path fill="#fcffbb" d="M394.5 348l-33 13.7L432 378l-4-36.3" />
      <path fill="#6b0d05" d="M998.6 560.3l6.8 80.4 49.6 9V387.2" />
      <path fill="#b8ffad" d="M229.8 167l9.6-35.5 35.4 11.7v26.5" />
      <path fill="#ff8972" d="M560.5 250.6l63 35.3 26-64H517" />
      <path fill="#fc1323" d="M578 337l25-4.7 14.5-50-29.2 65.7" />
      <path fill="#faffb4" d="M341.6 398l-26-15 73.6 4.8 16.3 23.5" />
      <path fill="#f92b18" d="M413 421l89.2-44L396 394.6 360 500" />
      <path fill="#632113" d="M65.6 67.6L192.4-31h-194l-20 133.3" />
      <path fill="#a83217" d="M696.2 155.3L802 124.5l5.6-7.4 113.3 2" />
      <path fill="#fbd981" d="M682 218.8L745 100l-11 113.3-45-67.6" />
      <path fill="#fff8ff" d="M450 183.6l47 53-42-4.7 71.4-49" />
      <path fill="#ff342b" d="M-31 122l109.2 68-38.5 13.6L-31 185" />
      <path fill="#fcf398" d="M345.6 461.7L475.2 588l-10.8-87.3-89.8 7.3" />
      <path fill="#f4cd63" d="M332 416.5l-39-8.3-22.4 21.2-1-44" />
      <path fill="#ff6" d="M917 20l-18 58.2 62.3 39.8-6.4-82.8" />
      <path fill="#f7e772" d="M855.4 369.8l78.7-77-9 197L433 713" />
      <path fill="#ecc04d" d="M940.2 561.8L787 674l-141.8 39 257.3-271" />
      <path fill="#ff212c" d="M498 352l33.3 21.2-14 42.7 9.4-68" />
      <path fill="#ff4d34" d="M439.6 285.2l81.2-12.8 43.7-57.4-46.3-32.2" />
      <path fill="#ffffd3" d="M416 421.3l59.4 21.6-24-27-21.7 50" />
      <path fill="#ffe7c6" d="M606 291.8L590.4 336l-90.8 26.6 49.8-9.3" />
      <path fill="#89220f" d="M1015.5 81.7l1.4 121 38-156-55-77" />
      <path fill="#58410b" d="M505.5 171.8l-10.3-1.3-23.3-.8 19 16" />
      <path fill="#fbf36b" d="M297.7 95L613.5-5.3l-310.5-6-52 41" />
      <path fill="#923c20" d="M61.7 202l56.4-20.3L177 59 85 19" />
      <path fill="#e24314" d="M975.6 37.4l-7.6-60-25.2-8.4 16 94" />
      <path fill="#ffd1c4" d="M796.7 115.8l33-5.5 1.8-27.4-47.8 3" />
      <path fill="#f01b14" d="M188.8 327.4L266 181l8 23.7L237.4 451" />
      <path fill="#e90308" d="M644.4 313.8l27.2 28-.7-66.4-14-33.7" />
      <path fill="#9edbff" d="M965.5 175.4l6.7 28.3-21.8 8.6L955 157" />
      <path fill="#f0daff" d="M754.5 188.6l22-14L736 153l-10 34.2" />
      <path fill="#f73c27" d="M421.7 501L382 404l-18.6 96.7 50.8-89.6" />
      <path fill="#ffcca4" d="M529 281.6l48 97-17.3-47.2-26.7-69.2" />
      <path fill="#faf090" d="M450.6 540.7L792 465 581 618.8 468.4 637" />
      <path fill="#dc060b" d="M216 408.5l-16.3 50.8L263 525l-25.7 12.7" />
      <path fill="#ff9372" d="M572.6 321.3l-1.3-35.7-41.8 70.4-61.8-12" />
      <path fill="#e82a15" d="M831.3 32.5L621.7 176.8l-44-79.3 26.3 69.7" />
      <path fill="#f61c1f" d="M501 354.3l3 82.6-30-82-35-21" />
      <path fill="#ff2e20" d="M708.8 202.6l-49 32.2 59-133.7L655 207" />
      <path fill="#fb0a07" d="M513.3 160.2l22.3 152 31.6 53.6-38.8-76" />
      <path fill="#fcf39c" d="M648.6 240.6L782.8 347l14.4-167.2-76.4 20.3" />
      <path fill="#865021" d="M962.2 217.7l29 61.7 18.8-9.5-10.3-76" />
      <path fill="#f10a07" d="M306.3 427l8 72.4L351 413l6.7 61.7" />
      <path fill="#fcfcb6" d="M443.7 341.6l20.4 4.6-9 35.5-15 6.4" />
      <path fill="#f1c758" d="M276 569.8l-1-97.5-63.6 169L562 713" />
      <path fill="#fde483" d="M405.4 464.5L339 519.3l27.7 105.5 29-204.5" />
      <path fill="#fbe682" d="M334.7 181.6L291.5 373 267 315l18.5-123.4" />
      <path fill="#ffffeb" d="M503.6 382.3l1-24 17.7 27-15.6 29.8" />
      <path fill="#ffd3a6" d="M551.7 236.4l91.8-56.7-24.4-7V216" />
      <path fill="#faf3bb" d="M575.3 377.4l161.8-65 39 76.6-198 102.4" />
      <path fill="#fcfbac" d="M441 472l-46.6 41 70.8 13-6.6-107.7" />
      <path fill="#fff6f2" d="M451.8 241.4l38.7-6-18.8-58 44.6 26.2" />
      <path fill="#fa3117" d="M400.5 505.6l52-61-27.7 47.3-46.2 2" />
      <path fill="#f7c56a" d="M267.4 51.8l19.3 106.6-22.6 18 161-6.2" />
      <path fill="#ffc076" d="M653.8 235.3l4.3-12.6-19-12.7 22-60.5" />
      <path fill="#fc271b" d="M715.4 176.6l-28 46 35.5-78.2-124-26" />
      <path fill="#00080d" d="M119.7 174.8l44.8 21.7L118 205l.5 3.6" />
      <path fill="#fbe386" d="M374.8 434.6l-20.2 42.8 27-59-42 5" />
      <path fill="#e90b07" d="M289 453.7L273.4 481l2-49.6L305 372" />
      <path fill="#774f2c" d="M175 189.4l94.6-17.4-124-25.3-24-6" />
      <path fill="#f71b0f" d="M628.3 211.8l38.4 29-61.6-65-10-50.6" />
      <path fill="#fc3822" d="M554 236.2l-111 42.4 172.7-20.4-75.2 88.7" />
      <path fill="#fcf7ac" d="M598 497l26 55.8-119-27.5 58.2-83.6" />
      <path fill="#922716" d="M964 134.6l4.5 40 23-23-9.2-66" />
      <path fill="#f2130e" d="M387.8 491.7l-6.2 2.5-48.6-49-3.2-15.3" />
      <path fill="#ff351b" d="M445.3 304.5l79 41.6-32-29-155.8 46" />
      <path fill="#e6b156" d="M114.3 323l78 46.8-14.4 177L89 370" />
      <path fill="#f5100e" d="M625.6 170l56.5-25.6L589 56l75.6 16.3" />
      <path fill="#ffffc7" d="M439 300.2l56.8-31 20.7 54.7-58-12" />
      <path fill="#fdd967" d="M643 136l78-167 16 62-38.7-42.3" />
      <path fill="#8e2c07" d="M146 191l200.4-10 20.5 12.7 17-20.6" />
      <path fill="#312580" d="M951 199l-19.2-4.6 3.7-8.4 21-.5" />
      <path fill="#fef9d2" d="M647.7 249.2L592 351.6l-18.4-21 9.8 132.2" />
      <path fill="#f8e56c" d="M849.7 531.2l-571 77.6 74.5 32.6 391.8-8.2" />
      <path fill="#0b3d05" d="M626 156.3v17.5L609.6 159l12-1.7" />
      <path fill="#030000" d="M956.8 72.4l73.3 49.2L965-20l38 33.2" />
      <path fill="#fff8c3" d="M501 289.6l43 50.3-17.7-52-58.8 51" />
      <path fill="#d77631" d="M103.5 230.2L183 369.8l-24.4-165.3-76 5" />
      <path fill="#d36933" d="M174.3 135.6l40.6 42 32-160.3-57 1.6" />
      <path fill="#f42d20" d="M491 447l-25.5-18.8-37.8-77.6 2.3 30" />
      <path fill="#9b4523" d="M-29.7 537L124 653.5 26.7 453.2l-27.5-109" />
      <path fill="#020000" d="M40 215l-71 14.7 36.8-32.2 13-2" />
      <path fill="#f9362d" d="M577 348.5l-18 10.3-31.5-85L548 339" />
      <path fill="#c87d38" d="M70.5 399l125.2 213.6L31 437.2l22-204.7" />
      <path fill="#f81b0b" d="M392.3 378.6l-18.5 2.3 69 40 10.4 18" />
      <path fill="#ff5d40" d="M614 290l-7.7 40-3.3-99.3-37.3-18.3" />
      <path fill="#fffec2" d="M453.8 468.4l75.2-60.7-3.5 99.3-63-82" />
      <path fill="#ca954c" d="M901 172.2l85.3 163.3 2-60L982 228" />
      <path fill="#eb020b" d="M468.2 465l-1.2 75.5 31-28-15.5-64" />
      <path fill="#ffdcb4" d="M562.8 260l40.8-86.5-35.3 61.3-12.6-49" />
      <path fill="#77a2e9" d="M143.4 181.6l1-2 14-11.4-44.6-5.6" />
      <path fill="#ff8454" d="M595.3 143.8L573.6 112l61.7-143-109 192.8" />
      <path fill="#f8e283" d="M309.5 542l-4.3-46.5 52.3 49.3 61-69.5" />
      <path fill="#f7221c" d="M642 190l18-133.8-29 150.3-17.2-18" />
      <path fill="#e8ffe6" d="M545.8 197.6l22.2 15.7 21.7-36.2-54.7 7" />
      <path fill="#ee060b" d="M572.3 405l-8.5-49.2-17.4 39.3 29.6 54" />
      <path fill="#be522a" d="M975 562.3l37 67.2-14.3-266 27.3 88.8" />
      <path fill="#231807" d="M1015 538l5 87.6 35-72v-193" />
      <path fill="#f9140b" d="M368.2 376.5l1.6-20.6-23.2 5-66.8 23" />
      <path fill="#eb1f15" d="M231.4 285L184 417.6l23.5 17.7 70-102" />
      <path fill="#e5010b" d="M802.3-31h-92l48.4 79.2 23.2 5" />
    </g>
    <g class="SVG--1">
      <path fill="#e8d1b7" d="M421.4 165l-18-55 74.7 2.4-44 53" />
      <path fill="#f62722" d="M513.7 421l9.8-53.3L529 395l-52.4 46.8" />
      <path fill="#fffff8" d="M1046.7 635.3l-31 18-2 12.2 22.6-6.5" />
      <path fill="#f8bc57" d="M300.8 355.4l-27-6.5-7.8 13-22-19" />
      <path fill="#281400" d="M222.3 183.6l45 1-16-18-55.5 24" />
      <path fill="#f9e8a6" d="M506 236.2l18 5-29-2.4-50.8-18.6" />
      <path fill="#f8e38e" d="M405.6 401l-80-21.5-19 8 80 23.2" />
      <path fill="#e6a347" d="M226 681l-69.4-167.7L314.2 658l344 55" />
      <path fill="#ffffaf" d="M427.7 472l-4-10.6-3.7-43 14 3.8" />
      <path fill="#f8e078" d="M857.3 422.4l15-292.8-67.7 17.4-44.4 64.2" />
      <path fill="#f9d8d7" d="M576 366l69.7 128-57-129.3-24.7-84" />
      <path fill="#c0120f" d="M236 247l-61 77.2L154 204l120-20" />
      <path fill="#d50915" d="M754.5 170.2l27-3.8L790 116l-37-25.7" />
      <path fill="#fdaf5b" d="M896 90.5l24-59-101 78.8 14 15.8" />
      <path fill="#fdf4b4" d="M646.2 330l-12.7-96.2-20 55L610 408" />
      <path fill="#feffcc" d="M547.6 346.3l-18.8 12.5 2 101.4 17.8 41.4" />
      <path fill="#ffaf4c" d="M955 652.7l26 59.7 16.5-105.6-41.4-6.6" />
      <path fill="#f5190e" d="M343.7 415.6l-63.5-32.2 105 28 75.6 8.4" />
      <path fill="#efb145" d="M295.5 132l-30.8 181.6 1.8-91.8 4.7-28.6" />
      <path fill="#994f21" d="M27 239L2.7 347.6-20 234.3l119.2-21.7" />
      <path fill="#9c451d" d="M812.4 121.3l-12.6 21.4 87-33 12.8 22.8" />
      <path fill="#fc100d" d="M722.5 120.7l-57.5-6.3 7.2-31.2 57 22.8" />
      <path fill="#fcf2bb" d="M461 171.3l21.5 57.8-93.4 98-9-13" />
      <path fill="#f73426" d="M569.8 227.3l-12 119.7L545 239.8 586 345" />
      <path fill="#fff777" d="M52 229.2L71.6 258 85 247.7 96.6 220" />
      <path fill="#fa0008" d="M477 316.5l-.7 7.4-48.8-4-2.5-16" />
      <path fill="#fbffb4" d="M429.3 380l-3.7-22.6-42.3-9.6-18.2 12" />
      <path fill="#e0903e" d="M836 713l-82.7-34 35.3-25.3L964 534.3" />
      <path fill="#faf2a4" d="M665.7 248.4l68.8-89.7 56.2 289-55.2 32" />
      <path fill="#fbe45e" d="M846.8-31l-53 132.5L771.3 84 889 27" />
      <path fill="#ffe4b5" d="M552 320.7L535.2 300l-1-33.7 10 20.5" />
      <path fill="#f01011" d="M554 436.7l25.3 24-20.6-98.2-10 31.8" />
      <path fill="#200800" d="M991.2 300l17.3 105.8 46.5 147-48-278.7" />
      <path fill="#f01b0d" d="M439 416l11 34.7-11.7 15.3 11-35.4" />
      <path fill="#d6090c" d="M308.2 523l-18 55.3-12.8-45 4.2-28.2" />
      <path fill="#f68233" d="M735 47.5L757.6 76l-51.2 76 46.2-20" />
      <path fill="#f61108" d="M643.3 236.5l10-3 49.2-36-22 26.3" />
      <path fill="#020000" d="M984.7 193.4L967 176.6l42-19 9.4 49.4" />
      <path fill="#f62d23" d="M557.2 311.7l17.3 25-35.6-17 34-75.3" />
      <path fill="#fbb651" d="M678.8 68.4l-31.4 35.3-7.5 5.4 24-7" />
      <path fill="#f7c392" d="M422.7 411.5l15.4 5 38-17.8 10 9.3" />
      <path fill="#f9ed9b" d="M487.2 175l-73 7-145.5 88 32.7 59.6" />
      <path fill="#592011" d="M3.3 596L-31 610l113.6 79.2-2.4-46.5" />
      <path fill="#dba74e" d="M1004.4 409.8l-89 170.7 55.2-267.3 45 134.8" />
      <path fill="#ef1711" d="M400 384l-11.6 52.3-16.3-9 27 4.6" />
      <path fill="#fdf98d" d="M571.8-23.3l-249 94.6 45 22.2L550 97.7" />
      <path fill="#e97b30" d="M255.7 388.8l-42.2 101.5 33.8-25.6-3.7-2.8" />
      <path fill="#6b4633" d="M84 167.4l44.5-21.2-5.5 29.5-9.4 22" />
      <path fill="#fbe8a3" d="M410.7 356.4l28 30.3-19-14-20.3 12.6" />
      <path fill="#e12814" d="M524.7 158l5.6 27.5 29.2-51.8-3 41" />
      <path fill="#f8b959" d="M268.2 186l92.2 8.6-13-36.8L292 218" />
      <path fill="#eaf174" d="M628.5 149l-19 10.7-3-19 23.7-4.3" />
      <path fill="#d7ffe0" d="M234 147.7l29 1.5 5.4 3-1.5 16.4" />
      <path fill="#fbf1a6" d="M625.2 193.6l19.3-29-64.4 57-7-56" />
      <path fill="#fcf9ba" d="M468.2 464.4l14.5-22.6 46.4 50.8-97-96" />
      <path fill="#fd2e1a" d="M496.3 230l66.4-19.6-25-9.2-3.3-28.5" />
      <path fill="#ee1710" d="M611 26.5l7.5 62.6L624-6l48.7.3" />
      <path fill="#e7050d" d="M410.4 584l-25 .7-4.4-61 23.7-3.7" />
      <path fill="#ffab7f" d="M636 224l18.2 12.3-29 41-53.7-18.5" />
      <path fill="#de120f" d="M349.4 561.5l-13-36-21 73.7 18.6 2.4" />
      <path fill="#ef2815" d="M284.8 461.8l61.8-35-29 66.4 21.3 36.5" />
      <path fill="#de0d0e" d="M252 530.2l-24 2.7 3.8-61 23.2 6" />
      <path fill="#f52414" d="M397.3 481l14.7-27 8 29-83-15.7" />
      <path fill="#ffc37c" d="M654 224.2l-5.4-9.7-19.3-11 52.5 11.7" />
      <path fill="#ffdd82" d="M704.5 182l-20 28.5-4.2-18.6 16.5-34" />
      <path fill="#f51b1a" d="M587.4 346.3l-7.2 2.4 31.6-41-8 21" />
      <path fill="#b74c25" d="M136 93.7L286.8-31 146.5 145.6-31 157.2" />
      <path fill="#dcdf60" d="M243.6 170l-22.3 3.4-2.5-35.3 42.7-13" />
      <path fill="#d98f4d" d="M922.4 225.6l-10.8-8-1.4-54.3 71-59.6" />
      <path fill="#f2d06a" d="M300.5 492.2L220 561l55.6 24-18-117" />
      <path fill="#cf592b" d="M108.7 594L183 696.3l65.2-4.4L86.5 514" />
      <path fill="#8f4420" d="M1015.6 154.2l22-148.2 17.4 263.8-36.2-88.3" />
      <path fill="#e27b3d" d="M939.5 579.2l-6-91.3 68.7 96-75.2 87" />
      <path fill="#fbf5b1" d="M429 351.7l25.8 38-4-45.6-61.6 35" />
      <path fill="#fedeae" d="M600 346.3l-73 16.5-48.6-30 94 33.6" />
      <path fill="#fb3e1d" d="M476 248l149.5 28.2-99.3-4.7-63 7" />
      <path fill="#ffedb5" d="M587.7 324l-18.3 2.5 29.2 3.6-5.6-47" />
      <path fill="#f6b28a" d="M560.2 100.8l5 98.2 12.6-126-2.8-87.8" />
      <path fill="#f7fb97" d="M372.5 457.6l-.7 15L350 441l10.7-4.5" />
      <path fill="#afc0e9" d="M974.5 214.6l-16.5-3 13-47.5-31 8" />
      <path fill="#f8ca61" d="M325.2 408l18.7 12-45-7.3-3-14.8" />
      <path fill="#fdf078" d="M651.5 73l-27-15.3 11-42 113 42" />
      <path fill="#fffd6c" d="M910.2 111.7L906 57l35-30.6 32.7 89.8" />
      <path fill="#f33224" d="M660.3 210.8L666 222l-38.4-63.5L642 201" />
      <path fill="#f62821" d="M495 404.8l-4 9-23-92.3 30.5 51.7" />
      <path fill="#ec8d45" d="M223.6 301.2l20 19.4 83-225.3-76.2 207.5" />
      <path fill="#f74f22" d="M720.5 35.3l-8-48.3L692-5.6 792 109" />
      <path fill="#f83c1e" d="M428 312l-137.6 77.7 147.3-65.5-7 68.6" />
      <path fill="#5b3319" d="M416 169.6h.4L431 177l6-14" />
      <path fill="#fbf3a7" d="M500.2 556l178-64.6-9.4-19L497 450" />
      <path fill="#f9472f" d="M754 152L622 88l-43 56-12.2-38" />
      <path fill="#5d2e11" d="M821.4 131.4l-22.3 3.3 21-20 7 23.6" />
      <path fill="#fdf5e5" d="M546.4 330l41.8 26 13.2 57.4-32-79.3" />
      <path fill="#e2da6d" d="M538.7 173l8 14.6 49.5-54.5-1.2 45" />
      <path fill="#ee2915" d="M396.5 497l-36-27 37.7 41.7-15 45.4" />
      <path fill="#faeb99" d="M459 457l9.5 62L359 494.6l28.5 21.7" />
      <path fill="#ed7230" d="M232.5 439l64 55.4-2.8-64.5 14.4 49" />
      <path fill="#f3ce60" d="M793 147.2l53.8 23.4L903 422.4l-2.6-287.7" />
      <path d="M1040.5 284l-36-24.4 1.7-5.7-3.8 78" />
      <path fill="#f9eaa4" d="M433 294.2l-71.5 36-70 47.5L276 345" />
      <path fill="#6b491c" d="M1027.8 296.3l16.6-14.2-1.2 139-26.2-74" />
      <path fill="#fffbcd" d="M513.2 377.2l-7.4 36.2 20-32.4-17-20.3" />
      <path fill="#fff0c7" d="M491.5 428.2l-21.3-4.5-7-10 15-1" />
      <path fill="#f32011" d="M419.5 476l9.8 6.6-48 18.7 34.3-7.6" />
      <path fill="#f2220d" d="M373.7 487.4l3.7-22.2 10.6-1.5-52 54" />
      <path fill="#f42714" d="M352.7 410.7l-16.3 32.8 17.2 37-12.8 13" />
      <path fill="#dffaff" d="M414.3 160.6l24.5-17.5-3.3 7-.2 12" />
      <path fill="#f73920" d="M810.2 1l15.4 25-84.6 81.3-71.2 53.6" />
      <path fill="#f8c680" d="M397.6 408.8l11-13.7-1.3 25 30.4 24" />
      <path fill="#f3c579" d="M289 144l111 24.3 9 6.5 24.4-48.6" />
      <path fill="#fc3b27" d="M546.8 329l-81 2.5L555 333l-29-48" />
      <path fill="#ffb2ad" d="M531 176.8l-40.7 31.8L513 210l7.5-34.7" />
      <path fill="#fef1e5" d="M467 225.5l3-40 28.3 44.6 6-11" />
      <path fill="#f69875" d="M466.7 390l13.2 25 19-40 5 15.7" />
      <path fill="#fbe86e" d="M667-31l81 96.5L722.7 95l-28-3" />
      <path fill="#fa1714" d="M514.2 362.4l16.3 19-13.8-26-34.6-7" />
      <path fill="#fcf4b9" d="M690 375.6l-34.4 49-4.3-90 7.6-9" />
      <path fill="#ca4925" d="M929.4 713l38.4-41-123.4 41 76.6-79.8" />
      <path fill="#8d6e30" d="M884.2 37.7l-8.6 10L890.2 58l5.4-9.6" />
      <path fill="#ce341d" d="M897.4 23.6L928 8.8l51.3 8.6-109-48.4" />
      <path fill="#f4d45f" d="M380.4 584.5l-1-34.5-61 89 276 67.6" />
      <path fill="#ffed5c" d="M968.2 641.3l28.3 1.3 19 26 1.3 44.4" />
      <path fill="#fbe5f4" d="M802.5 95l16.4.2 5 13.5-17 2.3" />
      <path fill="#feffeb" d="M355.6 191.5l27 16.5-55.7 10.4 28-4.4" />
      <path fill="#e31112" d="M200.4 234.2L171 278l30.2 97 73 38" />
      <path fill="#0d0a02" d="M25.6 713l35-32.4-21.8-21-69.8.8" />
      <path fill="#f3d45a" d="M646.7 713L611 627.5l84.7-12L895.5 511" />
      <path fill="#f9261a" d="M408.4 422.6l-2 18 18.4 19-21-51.4" />
      <path fill="#845c68" d="M163.4 156.2l-53.2-13.8 33.6 20.7 14.5 25" />
      <path fill="#b96d31" d="M35.4 370.7l101.6 222L-31 368l86.4-157.4" />
      <path fill="#f3d469" d="M314.4 520l32-18.5L336 492l-32 89.3" />
      <path fill="#f51816" d="M616 287.3L587.8 270l-2 46.4-25.6-58" />
      <path fill="#ed0b09" d="M325.8 429L257 404.8l30.5 5.2.5 26.4" />
      <path fill="#59d455" d="M270.2 174.6l-30.2-6.4-.2-2.4 8.3-8.7" />
      <path fill="#f7b16e" d="M432.3 427.4l-25.6-9.3-9.7 82-6.4-68" />
      <path fill="#f8e88b" d="M478 529.6L711.6 576l-222.2 25-61.4-39.7" />
      <path fill="#faf0ad" d="M358 347.5l61.4-51.3-103.7-31.5L305 377" />
      <path fill="#f71713" d="M678.6 183.5l-17.4 28.7-11-129.6L606 41.4" />
      <path fill="#fb291e" d="M622.8 202.7l-14.6-24 35 25.7H661" />
      <path fill="#f81f11" d="M459 386.7l28.5 14.2-130-28-9.3 6" />
      <path fill="#ed080b" d="M643.7 252.7l16.6 12 10.5 74L644 303" />
      <path fill="#f8fdaf" d="M392 410.7L365.2 398l-55-12.4 82.7 4.8" />
      <path fill="#f41308" d="M372 440l-6.7-6.8-31.7-2.7 91 10" />
      <path fill="#fbf1af" d="M732.3 272l-36.6 150.4-25-115 2-77.4" />
      <path fill="#fffac8" d="M544.3 337.4l-10.5-28.6-20.8-32-55.3 3.3" />
      <path fill="#a24611" d="M289 178.8l1.8-12.3 29 10-14 11" />
      <path fill="#2b1305" d="M72 224l5.3 4-36-18.5 49-5.6" />
      <path fill="#e4bc62" d="M922.4 365.7L905.7 208l72.6 169.6-48 78.2" />
      <path fill="#fa1c0f" d="M352.3 365.6l79-51.2 11.2-8-3.2-13.8" />
      <path fill="#f5231d" d="M605.5 316.2l3.7 1.5-7.8-56.5 11.4 50.7" />
      <path fill="#9f5315" d="M753.6 157l-5-21-25 4.7-.7 1.8" />
      <path fill="#ffa941" d="M966 38.8l-63-55.4 35.2 31.4L895 33.2" />
      <path fill="#f43017" d="M334.8 492.7l-19-37 27-52.4-22.3 90.7" />
      <path fill="#f6291b" d="M411.8 335.4l51 1.4 38 52.2-39.8-40" />
      <path fill="#ffddf1" d="M620.6 179.8l-7.7-5 14 18.2 8-16" />
      <path fill="#fce4db" d="M312.4 170.5l4.6-20-22 17.3 1-2.4" />
      <path fill="#727534" d="M559.3 168l-1.6 18-9.3-15 3.8-9" />
      <path fill="#0d0000" d="M983.8 128.7l21.7 42 10.5-61L979.2-31" />
      <path fill="#e19444" d="M269.7-13.5l-46.3 182.2-31.5 2L210 91" />
      <path fill="#ebbb58" d="M236.6 535.7l-76.8-118.3 61.7 198 51.3-98.8" />
      <path fill="#f93c23" d="M506.4 221.3l-6-18.8 40.7 41-13 42.2" />
      <path fill="#f5edfb" d="M742 192l29.7-17-42.8-18.2 5 15.7" />
      <path fill="#f6e37e" d="M553.3 86l-104.5 90 90-27L557 57.4" />
      <path fill="#fff190" d="M388.6 492.6l20.4-7 8.4-2.4-40.2-3" />
      <path fill="#df843c" d="M302 713l-67-83.2-88.5-99.4 66 153.7" />
      <path fill="#e7b459" d="M195.5 529L176 341l-50.4 86.5 76 5" />
      <path fill="#ae331d" d="M196.3 691.6l-9-9.8-89 22.4-1-101" />
      <path fill="#570b04" d="M210 190l42-6-55.2-8-89.7 34.3" />
      <path fill="#ff4f2d" d="M579.5 245.5L579 226l32.3 23.6-48-13" />
      <path fill="#f21410" d="M332.8 399.4l-40 .7 9.2-1-87-65" />
      <path fill="#f0130f" d="M341 414.8l92.5-2.7-37.8 15-23-16" />
      <path fill="#ee9942" d="M35.3 263.2l97.8-30-55 40.2-24-48" />
      <path fill="#f8ea8f" d="M780.3 182.5l-40.5 19.8 20 286L871.3 363" />
      <path fill="#e3f1a3" d="M890 116.2l5.4-9-25.7-19.5 4.2 17" />
      <path fill="#d01910" d="M197.5 482.3l14.2-41 21.2 46.2 27-15.7" />
      <path fill="#c46c42" d="M935 173.7l-2 21.8L980 85l-8.6 81" />
      <path fill="#ee0e0d" d="M395 485.7L371.3 447l16.7-32.3-5 39.5" />
      <path fill="#fef6ff" d="M473.5 199l18.7 19.5 24.2-44.2 2.5-1.6" />
      <path fill="#f3251a" d="M457 378l19 30.6-48-30.6 33.8 48" />
      <path fill="#fcf99b" d="M636 215l-55.3-45 38.8 57.7L637 225" />
      <path fill="#f7a47c" d="M539.7 402.5l-19-6.8-71.5-16.5 21.6.3" />
      <path fill="#f2412b" d="M50.3 195.8l-29 5.4-34.3-39 74.4-6.7" />
      <path fill="#faf49c" d="M719.5 150.2l21.6 5.6-47 97.4-19 75.2" />
      <path fill="#efc487" d="M527.5 574l6 8.8 20.7 3.4 70.7-39.7" />
      <path fill="#fdb068" d="M640.3 169.3l17-7 3.7 27.4-6.4 13" />
      <path fill="#f30207" d="M485 436.5l10.7-7.6-20.7 8-22-26" />
      <path fill="#f7da62" d="M821.5 35.2l-49 47.5 109-.3L876.3-31" />
      <path fill="#ef1c10" d="M267.3 305.8l12.2 61-41.3-76 25.3-87" />
    </g>
    <g class="SVG--2">
      <path fill="#76aef4" d="M125.4 173.4l25.5 9.2-17-25.3 1 5" />
      <path fill="#ffa779" d="M535 347.8l-55-19-7.3-37.6 11.6 59.6" />
      <path fill="#ff2a18" d="M528.2 155.8l16.2-3.3-29.8 59.5 45.8-77" />
      <path fill="#f4df79" d="M832.7 451l82-189.6 7.7 198.8-105.6-313" />
      <path fill="#eb1311" d="M470.3 471.2l-4 69.4 32.2-41L494 464" />
      <path fill="#eecb60" d="M860 458l75.2 114.2-18.8-107.4-17-161.2" />
      <path fill="#f3ab49" d="M895.7 125.2l-3.5-74.5 36 93-101.7-2" />
      <path fill="#f92318" d="M500 199l35.2-8.5-27.7 43.4 27.3-51" />
      <path fill="#f4da65" d="M309.8 570.8l8.4 67.6-57-56.6 41.7-8.3" />
      <path fill="#db1b13" d="M787.4 90.3l-41.8 20 31.5 69 15-15.3" />
      <path fill="#9ae3ff" d="M963.4 208.7l-16-36.2 11 1 13.5 23.2" />
      <path fill="#ff845c" d="M472.5 274.4L581 205l36.7 33.3-39.3-25" />
      <path fill="#faf1a4" d="M443.2 428.2l-18 53.6-1.2-47-14.6-18.2" />
      <path fill="#f7ffb3" d="M603 201.2L565 239l14.4-21.5-.4-49.7" />
      <path fill="#e85f2b" d="M1010 642.7l35.5-5.2-45.7 17.2-6.5-100.3" />
      <path fill="#ecffcf" d="M537.7 191.3l-1.4-16.2 52 11-5 13" />
      <path fill="#ee903f" d="M302.2 456l-10.7-1.5 6.3-23.5 12 16" />
      <path fill="#f9e9a8" d="M354.5 364l-11.8-93 108.5 14-76.4 15.4" />
      <path fill="#fcf6a2" d="M671.2 247.2l-26-9 32.4-9 65-60.8" />
      <path fill="#d71712" d="M290 499.2L280 563l3.4 18.2 17.7-75.7" />
      <path fill="#f71b14" d="M595.8 103l2.6-66 11 15.8 50.4 27" />
      <path fill="#f32111" d="M409 497.6l28-23.8-.4-4.4-43.2 33" />
      <path fill="#edb14c" d="M772.6 713l-57.2-28 47.3-55.7 80.8 5" />
      <path fill="#f5231c" d="M455.2 311l28.4 30-30 18 45 8.8" />
      <path fill="#593419" d="M1001 285.4L974.2 206l19.6-15.4 12.4 5.6" />
      <path fill="#fa2610" d="M659.7 231.7l34-23 20.3-55-14.4 52.7" />
      <path fill="#f45135" d="M548 337l29.2 17.4-22.6-.8 20.6 35.5" />
      <path fill="#de753b" d="M239.2 257.5L230 238l22 .2 75.4-111" />
      <path fill="#773810" d="M1002.5 349.4l-3 38.7-12.5-63 11.3-5" />
      <path fill="#f22d20" d="M525 386v-16l-6 40-14 17.4" />
      <path fill="#fc4c27" d="M419.2 304.2l55.2-28.7-25-9.5 34.5-8.3" />
      <path fill="#fcefbe" d="M515.4 405.3L498 400l22.5-26 4 9.3" />
      <path fill="#fd967b" d="M563.3 323.4l2.5-29.6 18.3 40 8 1.6" />
      <path fill="#f9f1ab" d="M434.7 380l-59.3-13 26-22 23.8 8.6" />
      <path fill="#f71d12" d="M402 383l-16.8-.7L364 353l-36.4 30.8" />
      <path fill="#f5e167" d="M305.6-31h230L336.4 40.3l-63.6 145.4" />
      <path fill="#faf8da" d="M577.5 347.5l17.6-3.3 9 56.5-41-35.3" />
      <path fill="#e93818" d="M217 416l1.6-42.6 40 69.8 24.5 36.5" />
      <path fill="#f80a0f" d="M527.3 291l12.3 28.2L520 245l8.5 23.4" />
      <path fill="#f34312" d="M991 713l64-41.7-35.6-3.7-4.7 45.4" />
      <path fill="#f96746" d="M410.8 301.2l7.7 18 22-44.5-87 92.5" />
      <path fill="#fbf6c0" d="M488.6 460.6l47.2-78 12 28-72.4 33" />
      <path fill="#f01313" d="M576 402.4l-4.4-31.2-20.6 30.6-.8 61.4" />
      <path fill="#c04c1c" d="M967.3 86l-10.8-9.5-2.5-22 31.3 59.4" />
      <path fill="#ff7f56" d="M677 196l23.7-38.7-17-4.8-2.7 52.2" />
      <path fill="#e89f44" d="M223 452l42 8 15.4-15-45.2 26" />
      <path fill="#df1011" d="M251 425.4l-39.6 29 23-182.4-47.8 154.4" />
      <path fill="#f5341c" d="M395 528l3.5-19.3L411 534l2 54.6" />
      <path fill="#892f19" d="M81 27.5l-112 72 162.7-17 30-97.5" />
      <path fill="#fcf5bf" d="M563.3 445l-32.8 35.2 3.2 6 55.3-5.7" />
      <path fill="#f6aa60" d="M793.6 124l-15.8-55.7-2.2 5.8 32.2 44" />
      <path fill="#2a79c9" d="M971.2 201.8l-6.8-29.4 2.5.3 13 26.5" />
      <path fill="#fa522d" d="M552.4 248L535 274.3l-20-123.6 1 102.5" />
      <path fill="#faf5b6" d="M460.5 347.7l-8.8 32.7-12 4.2L436 346" />
      <path fill="#fc2f26" d="M513 181l53 34-63.7-21.7 17.5.4" />
      <path fill="#fdf9be" d="M593.5 331l-12-14.5 27-20-15 36.3" />
      <path fill="#cd813b" d="M71.8 330.3L49.6 431.5l-7.4-174 119 14" />
      <path fill="#fcf9c8" d="M499.4 273.4L524 286l11.3 42.3-91.4-22.7" />
      <path fill="#ff9b6e" d="M582.2 272l14.8 8 10.2 23.8-19.2-18" />
      <path fill="#fbf681" d="M698.5 7.3l8.2-38.3L621 41.5 699 76" />
      <path fill="#0b0200" d="M962 74.4l14.4.3 38.7-4L957 54" />
      <path fill="#efb555" d="M270.5 436l-4.2-10 16.5-34 5 11" />
      <path fill="#5f200a" d="M978.7 171.4l17-8.8L983 84l-6.4 38.8" />
      <path fill="#e97231" d="M321.8 187l-8.2-14.8 7.7-1.7 70.3-1.5" />
      <path fill="#ffdfb0" d="M558.8 336l-19.4 25-8.6-22.4 46.4 7.5" />
      <path fill="#f7df76" d="M277.3 405.8l-14-15.8 16.4 2.7 10 12" />
      <path fill="#f61814" d="M650.4 101.3l34.5 120-21-26 11-27" />
      <path fill="#fa7254" d="M482.7 389l.7-32.7 37 7H465" />
      <path fill="#ee281b" d="M380.2 488.7l-3.7-30.6 36 4-48 13" />
      <path fill="#e55a23" d="M194 378l-32.5-132 7.5 72.5 23.5 73" />
      <path fill="#a63d1f" d="M82.7 80.2L-31 148l144.5 17.6-62 41.8" />
      <path fill="#f9f097" d="M365 417.6l10 5.8-15.7 28 10 5.8" />
      <path fill="#dd582b" d="M889.3 134.5l-44.5-4.3h-22.4l52-22.5" />
      <path fill="#fbf5c9" d="M462.2 231.3l15-43.7L453 216l58.4 24.5" />
      <path fill="#d18b43" d="M926.7 569.3l83.7-80-9-69-5.4-32.7" />
      <path fill="#db8d3f" d="M132.3 222.8l-52-9 85.8 54.5-2 102.4" />
      <path fill="#edf9d6" d="M562.8 211.2l7.5 2-29-14.8 39.7-27" />
      <path fill="#fbfcca" d="M548.2 349L517 488.3l16.4-136 56.7 21.2" />
      <path fill="#f59241" d="M334.2 433l-4.7-40-18.4 55.8 16-20" />
      <path fill="#f8f192" d="M385 497l-11.7-4.8-18.7 19 12 60.8" />
      <path fill="#f0c254" d="M441 653.5l15 59.5H292l-19.5-78.3" />
      <path fill="#fe412e" d="M570.8 212l11-3-10.4 17.4 1.7 62" />
      <path fill="#f7cc59" d="M716.7 48.3l5.6-62.4 9.7 39-25-6" />
      <path fill="#fbefab" d="M431.6 342.6l-59 8.5 49.2 23-16.5 9" />
      <path fill="#efcb5b" d="M249.4 32.7l92-21.7-79.8-42L303 162" />
      <path fill="#e5b04e" d="M914.7 483.4l-42 71L933 563l-.6 113" />
      <path fill="#eb1311" d="M502.5 536l-25.2-75-12 56.7 20 7.3" />
      <path fill="#ffb890" d="M650.5 238l-49.3-14.2-.7-1.8 27.5 44" />
      <path fill="#5773f2" d="M957.3 197.3l-4-12.8-3.5-7.3-1.6 29.6" />
      <path fill="#fdf9bf" d="M566 318.6l-4.3 9 2 19.5-8.4-7" />
      <path fill="#fdf96e" d="M944 26.2l16.5 15-8.6 53-50 16" />
      <path fill="#910b0a" d="M198.7 248.2l-31.5-51.5 45.4-4-4.8 36.6" />
      <path fill="#d67535" d="M897 593.8l15-38 14.6 72.5L811.2 713" />
      <path fill="#f20508" d="M418.4 433.8L406 446l11.4 2.8-10.3-24.3" />
      <path fill="#8c4422" d="M1040 461.5l-38.3 91.7 17.6-81-5.6-47.5" />
      <path fill="#f32316" d="M442.7 403.7L426 353l18 36 10.5 14.2" />
      <path fill="#fb4025" d="M535 194.5l-49.2 32.3 5.5-8.6 72-2.3" />
      <path fill="#ffff9a" d="M61 233.7l12.4-5.6 9.8-3-6 26" />
      <path fill="#533614" d="M495.8 167.6l-6 21.4-4.3-15.5-1-2.4" />
      <path fill="#f8cfa5" d="M474.3 130.7l4.2 120.4 14.2-15-14.7 9" />
      <path fill="#642414" d="M21 41l-52 5.3L-14.2-31 106-5.3" />
      <path fill="#f6e281" d="M467 110.5L446.7 132l105-4.8 1-17" />
      <path fill="#ea1412" d="M643.4 285.7l8.3-45.6 16 15 2.5 81" />
      <path fill="#ef0f10" d="M287.8 470.7l2-82.2 23-10-18.4 31.2" />
      <path fill="#070100" d="M1019.7 164.3L1009 395l46 33.7-51-87.8" />
      <path fill="#fc441b" d="M408.4 421.8l30.3-17.2-22.3-32.5-8 51" />
      <path fill="#fbed99" d="M542.8 44L323 135l259.8-49.8-6.4 13.4" />
      <path fill="#f41a16" d="M548.3 262.2l6 3.7 52 1-60.5 21" />
      <path fill="#944510" d="M437 173l-42.3.6-47 8.7 75-4.2" />
      <path fill="#cba9a8" d="M963.2 171l-16-8.6-2.2-5-8.4 29" />
      <path fill="#fc4d35" d="M573.6 150.2l-2.3-50.5 6.4 3 57.3-5.4" />
      <path fill="#f30e0e" d="M659.2 129l-44.8-7-15 27.8-4.4-21.5" />
      <path fill="#f43929" d="M524.3 368.7L508 350.4l24 31.4-14.6 32.5" />
      <path fill="#fb8072" d="M571.8 81.6L551 166l22-19.6 1.4-48.8" />
      <path fill="#f3ddb2" d="M651.6 494.4l-38-33.4 2.3-34.4 31 22.2" />
      <path fill="#f01710" d="M348.3 415.6l35.7-1-24.8-8.6-37.4 78" />
      <path fill="#d00d0e" d="M262 266l3-79-21.2 8-22.5 13.8" />
      <path fill="#f5100c" d="M682.5 218.3l-24.3 10-27-22 15.4 23" />
      <path fill="#d4ffc9" d="M247 157.6l4.4 5.7 26.6-3.8-30-22" />
      <path fill="#f7351e" d="M448.8 325.7L431 363.2l-1.8-46 6-38.7" />
      <path fill="#ec2014" d="M314.4 501.6L285 459.4l-7.4-37.8 46.7 95.8" />
      <path fill="#fbf5c3" d="M521 288.5l-76-1.8 5.4 21.2 92.8 22" />
      <path fill="#dbb355" d="M512 154.7l-19 29 50.5-30-135.4 36" />
      <path fill="#ec1712" d="M789.6 33L807 47.6l-57 27L731-31" />
      <path fill="#b1562b" d="M58.8 161.2l138-18.8 9.8 37.6-73-68.7" />
      <path fill="#f39f49" d="M284.8 469.2l-3.6 4.7 23.2 28-9-28" />
      <path fill="#fc4025" d="M542.7 134.4l-14.2 33L564 150l-48 30" />
      <path fill="#5a3b0f" d="M624 178.4l-16-25 8 10 12.2-5.3" />
      <path fill="#ed813a" d="M924.3 18.7l-34.2 46 4-24.4L910 14" />
      <path fill="#b04121" d="M205 30l104.6-61-148 48.8-9.5 98.4" />
      <path fill="#faf5b8" d="M476.8 441l-48.6-30.4 23-2 3.5 71" />
      <path fill="#fbf2b1" d="M638 268.6L608 290l34.5 42.8L638 213" />
      <path fill="#fcf2ca" d="M475.6 221.6L472 252l-17.3-7.2 11-59.6" />
      <path fill="#f27643" d="M383.6 459l12.5 26-7-71.7-6 77.5" />
      <path fill="#210700" d="M66 202l-50 18.6-40.5-17.4L97.8 211" />
      <path fill="#fbf1a8" d="M678.5 227l40.2 9 8.3 71.6-66.2-56.5" />
      <path fill="#fb2a1b" d="M585.2 69l94.2 75.6-46.2-64.4-48.8 28.4" />
      <path fill="#fbb26b" d="M402.6 477l29.8-7.7-21.5-24 9 33.4" />
      <path fill="#fdecbb" d="M538.8 301l-15.8 3.5 29.7-6.6-21-21" />
      <path fill="#f1090b" d="M608.6 312.3l-1.6 5.4.2-32 5.2 6.5" />
      <path fill="#f43123" d="M541.5 318.6l25.8 39.6-15-12-42-103.4" />
      <path fill="#faa85e" d="M878.6 111.3l-24-26-33-1.4 15.6 38" />
      <path fill="#9d0d0c" d="M1015.6 17l39.4 19-9-52.4-48.7-5.5" />
      <path fill="#f6ce78" d="M374 468.4l3-15.8-21.8.5 10.4 13" />
      <path fill="#faf0ac" d="M376.8 195.4l31 117.5-122.6 19h98" />
      <path fill="#edc15b" d="M189.8 509.5l117 78.7-95.3-12.4 16-97" />
      <path fill="#f11612" d="M480 414.4l19-11.5-27.2-25 22 16" />
      <path fill="#f9d882" d="M360.8 434l21.3-16.3 1 5-28-7" />
      <path fill="#fbf8fa" d="M476 187.3l17.7-3.3 9 29-39.4-1" />
      <path fill="#4f1f0f" d="M1013.6 150.5l-2-76.8L994-31l40.4 97.6" />
      <path fill="#ffb59a" d="M547.4 230l34.2 8-17-10 4 31.8" />
      <path fill="#d70e11" d="M319.7 589.6l17.4 7 1-74.3-10 14.4" />
      <path fill="#d1df61" d="M261 172.7l15.2-20.7 26.3 15-36.4 8.2" />
      <path fill="#fe8152" d="M503 334.2l-15.7-13 8.5 2.4 55.7 12.5" />
      <path fill="#fbffbc" d="M936.7 60.7l10.4-6 6 3.8-2 10.3" />
      <path fill="#fb582f" d="M573.3 256L458 282.7l7.7-37.2-10 26.3" />
      <path fill="#f9341d" d="M440.2 328.7l-88.8 18 72-8.3L420 290" />
      <path fill="#f9ec7f" d="M432 603.3l-22.3-69.8 48.7 30.7 166.4 40.2" />
      <path fill="#f41c15" d="M491.5 382.5l16.7-13.2-59-33.2 18 17" />
      <path fill="#fc4f25" d="M398 333.7l-1.8-19.4 24.5 30.7 62-28.3" />
      <path fill="#fae7a3" d="M369.4 355.4l66 26-70-32.4 9.8-52" />
      <path fill="#db9846" d="M116.7 503.4L111.5 293l93.8 79.7-140.8-33.2" />
      <path fill="#edc766" d="M746.2 138.2l-12.7-3L706 217l37-109.4" />
      <path fill="#fbf5c3" d="M531.3 360.2l-12 125.3L551 341.8l5.2 33.6" />
      <path fill="#f8c15b" d="M656.6 105.3l-10.8 1 4.6-5L688.7 55" />
      <path fill="#a68a76" d="M964.7 214.3l19.2-16-21 29.4-39-40.5" />
      <path fill="#f89370" d="M550.4 313l-63.2 15 52.3-12.3 26 11" />
      <path fill="#712205" d="M372 179.8l-5.7 13.5-7.6-12.6 12-5.8" />
      <path fill="#fae8b0" d="M432.8 274.2l-4.3 28.2-13-46 34.5 22.2" />
      <path fill="#faffc3" d="M462.4 371.7l-27-12.4.4 5.8 24.5 8" />
      <path fill="#f7241d" d="M673.8 148.8l-40 32.3 7.4 21 3.8-26" />
      <path fill="#faf6b8" d="M375 353.7l24.5-1.4 24-8.6 8 37.8" />
      <path fill="#ae592a" d="M-31 226.8l68.7 298.4 88.2 72.5-72-111.3" />
      <path fill="#d1632e" d="M251.7 22L288-31l-87.2 79-43.8 99.8" />
      <path fill="#f9ec7c" d="M625.2 549.5l-81.6 88L722.8 571l82.8-68" />
      <path fill="#f51d15" d="M486.5 227.4l38.8 6.3 1 48.5 9.2-41.4" />
      <path fill="#8c4312" d="M254 181l70.3-7.8-26 14-5.8-2.8" />
      <path fill="#f62114" d="M706 160.4L670.4 136l41.4 16-6 55" />
      <path fill="#ca6e38" d="M1010.6 493l-39 95.5-14-38.2 58-112.8" />
      <path fill="#f8d799" d="M417.6 316l.6-30.7-5.4 26.4-79.7-82" />
      <path fill="#483608" d="M495.5 182.4l4.8-14-11.7 2.8 2 7.2" />
      <path fill="#f67737" d="M340 502.4l7-63.6-8.5 11.3.4 14" />
      <path fill="#faef97" d="M407 498.3l74.5 77 257-72.3L475 541.5" />
      <path fill="#d2deee" d="M420.6 161.2l1-15 15.7-1-2.2 21.4" />
      <path fill="#f7e49d" d="M542 145.3l-34.5 18.2-72.8-13-19.7-56" />
      <path fill="#f81911" d="M434.6 301.2l40 23.6-66-7.5 38.6-29" />
      <path fill="#f9ef9b" d="M710.8 149L804 348.2l-140 219L739 378" />
      <path fill="#fbd09d" d="M483 390.6l-2.3 46.2-2-12 .5-45.3" />
    </g>
    <g class="SVG--3">
      <path fill="#f7231a" d="M588.3 316l2-29-41-45.5 27.2 47.5" />
      <path fill="#fcefbf" d="M523 294.5l-50.3 36-3.7-1.5 37.2-25.7" />
      <path fill="#802d19" d="M-31 518l70.6 46 81.8 143-17.3 6" />
      <path fill="#cd0d0e" d="M784.8 102.5l-22-24.5-16.5 72.7 17.2 1.3" />
      <path fill="#f3db6e" d="M380 226l-10-43 90.3-.6-84.7 17.2" />
      <path fill="#e94c28" d="M804.7-5.7l-17.7 76 40.2-52-28-17.7" />
      <path fill="#f01b16" d="M548 406.3l8-42.3 20.6 35-24 52.7" />
      <path fill="#fef8f7" d="M510 182.4l8.4 8-48 15.4 13.5-10.2" />
      <path fill="#773b29" d="M183.8 164.3l-8.2 21.8-34 3 40.4-37" />
      <path fill="#ec522a" d="M959.6 12l4.8 38.5 1.3-1.6 3.7-25" />
      <path fill="#f11a13" d="M340 436.5l-37 50.8 22.3-4.5 13-82.5" />
      <path fill="#f08f3e" d="M305 594.4l45.5 6.2-3.5-59.3-5.7 67.7" />
      <path fill="#f05226" d="M771.2 92l-21.4-32.4L686.6-31l35.6 69.4" />
      <path fill="#f86645" d="M561.3 291.5l16.2-9-10.7 23.3 19.6 2" />
      <path fill="#cc4524" d="M-31 157l122.8-17.2L58 195.4l-25.8-34.6" />
      <path fill="#fad357" d="M898 105.7l79.2 4.6-64.5 27.6L904 30" />
      <path fill="#7a5020" d="M894 111l-9.4 11.3-14.4 3.7 10.5-10" />
      <path fill="#f61b12" d="M662.6 97.8l16-17.2 39.8 43.8-4.2-19" />
      <path fill="#f7ca77" d="M569.4 161l17-1.4 10.3-19.6-49.5 20.4" />
      <path fill="#f6ac51" d="M314 423.3l-1-10.5-5-1.8 29.4 20" />
      <path fill="#feefbe" d="M468.7 420l10.2 13.6 14-6.8 2-7" />
      <path fill="#f4271e" d="M514 414.8l-23.2 15.8-22.5 4.5 16 5" />
      <path fill="#f61912" d="M319 379.2l-.5-3.8 10.8-7.7 109.2 24.5" />
      <path fill="#fbf4b2" d="M565.8 515l52.6-64-41-66.2L576 493" />
      <path fill="#fe5036" d="M652.4 130.6l33.8-18 35.6 25.7 4.7 9.7" />
      <path fill="#fbe8ba" d="M513.3 409.2l-14-30.3 21.5 8-24.7 21" />
      <path fill="#f12e26" d="M468.8 414.2l45 8.6-43-13.3-4 4.2" />
      <path fill="#f07238" d="M932.2 669.6l13-81.8 8 73.7 49.2 46.7" />
      <path fill="#eb1d0f" d="M254.6 418l31-6.2-29.4-13.4 9 56.8" />
      <path fill="#000006" d="M977.7 195l35.4-18.7-24-6.8-19 14" />
      <path fill="#faf3a9" d="M421.3 494.5l41.2-54.6.3 61-66.2 1" />
      <path fill="#f43c2f" d="M482.7 408.4l20-7.6-32.8-7 37 18" />
      <path fill="#fc6038" d="M512.7 266.6l18-62L559 215l-22.5 16" />
      <path fill="#eb7934" d="M228.7 476l30-80.6-18 21 11.5 31.2" />
      <path fill="#fbf077" d="M579-11.8l36.2 37.6-314-39.2 295 68.6" />
      <path fill="#faf2b5" d="M327.7 309.8L445 276.4l-39-35.8 13.6 61.6" />
      <path fill="#f9e998" d="M353 187.7l-10.7-4.6-59.3 62 20.8 133" />
      <path fill="#eeb55f" d="M285.3 181.4l33-38.5-80.7-21 58.4 15" />
      <path fill="#dca24b" d="M982.6 472l-48-24-2.2-34.3-3.7 148" />
      <path fill="#bd8130" d="M598 165l-42 3.8 23-7.4 52-7.8" />
      <path fill="#0d0907" d="M137.3 181l-6.2 27.7-7-17.3-12-1" />
      <path fill="#faf2a6" d="M592.4 213.5l27.6 15.7-16.8-45.6-42.4 60.3" />
      <path fill="#fb4a29" d="M451.7 330.7l-20.3 2-23.6-6.4L492 313" />
      <path fill="#f31e1a" d="M538 315l22.2-18-14.4 20.7 31 19.6" />
      <path fill="#f8cf80" d="M343.4 170l-77.2-42.3 110.7-14 62 27.6" />
      <path fill="#fca67a" d="M513.2 372.6L496.6 356l-7.8 3 51.5 28.5" />
      <path fill="#faf1a8" d="M428.7 473.7l14.7-28.8-11.4-26-12.6-1" />
      <path fill="#f2d676" d="M248.6 457l47.6 46.6-12-15.4-12.3 18.3" />
      <path fill="#f5de66" d="M843.2 544.2L519.6 710.4l293-191.8 63.7-63" />
      <path fill="#f5d05c" d="M876.2 111.7L875.5-31l17.3 68.7-72 26.2" />
      <path fill="#dfb356" d="M711 153l27.4 5 12.8 4-8.4-14.5" />
      <path fill="#f63219" d="M425.8 418.4l22 5-28.6-14.4-43.5-44" />
      <path fill="#fcf6c6" d="M512 270.6l23 61.3-93.8-32 38-15" />
      <path fill="#fad675" d="M356.7 488.2l31.5 30.4-37.2-37 17.4-.5" />
      <path fill="#f4e669" d="M885.5 59.6l-95.2-89 97 23-44 63.8" />
      <path fill="#eb6129" d="M223 399.8l-5.2 26 6.2-2.7 9.4-3" />
      <path fill="#0f0400" d="M971.6-31l44 278 6-14.3-1.8-32.5" />
      <path fill="#f7241d" d="M644.4 188.6l3-12 22.4-29.8-46.3 53.8" />
      <path fill="#f48e40" d="M746 115.7l-25.4 5-9 57.7-1.6-8.6" />
      <path fill="#ee1811" d="M353 445l16.7 39 23 17.8-56.3-62" />
      <path fill="#eaa44c" d="M891 109l17.2 70.8 70.6-65.5-43 24.4" />
      <path fill="#ea110e" d="M258.3 444.6l70.2-17.2-78.7 13 14-46.3" />
      <path fill="#fdffff" d="M341.2 207.7l31 .4-3.6-12-10 6" />
      <path fill="#faf1be" d="M519.5 368.8L509 377l9.2 22.6 6-16" />
      <path fill="#f28634" d="M264 291l21 70.4-16.2-35.5-.8-110" />
      <path fill="#feffd1" d="M543.4 280l-13-6.8 8 24.8 5.8 8.4" />
      <path fill="#f5dba6" d="M582.8 558l21-16.4 43.7-21-35.3 43.8" />
      <path fill="#fbf5bd" d="M486.8 441l-5.8 19 64.4-3.8-3.2-58.6" />
      <path fill="#f21f13" d="M343.5 410H380l49 8.7-75-1" />
      <path fill="#92471f" d="M-31 252l82-36.2 7.6 1.3-87.4 70" />
      <path fill="#e81411" d="M472.4 461.6L497 479l-28.6 51.4-4-64.8" />
      <path fill="#f9edaa" d="M360.7 327.6L458.5 210l-102.7 50.8-12.3 108.7" />
      <path fill="#ee2719" d="M630.5 69.5l-69.4 14L670 72l-14 19" />
      <path fill="#fa4828" d="M464 251.6l52.6-7L438 271l82-9.2" />
      <path fill="#142206" d="M258 178l-10 4.7-5.3-9.6 8-7" />
      <path fill="#f12924" d="M465 361.6l17.7 12.2-18.2-4.5-8-14.8" />
      <path d="M996.3-31l3.3 115.6-39-16 21-18.4" />
      <path fill="#f1391f" d="M412.5 479.7l-21 2.7-.2-12.6-22.5-3" />
      <path fill="#fec755" d="M993.4 645.6l-30.4 20 19.2-61 49.3 101.5" />
      <path fill="#fcda86" d="M647.3 190.7l-8 17.8 9 11-7.2-21.2" />
      <path fill="#fa361b" d="M635.4 200.6l18.6 4.6 19 8-16-3.3" />
      <path fill="#f6dd7c" d="M360.4 237.5L281 188l-13 97.4 25.5-54.8" />
      <path fill="#fb4f29" d="M598.5 236l-21.7-8.8.7 7.8 29 16.8" />
      <path fill="#e11611" d="M383.5 580l19.3-67.5-15.6-.6 23 37" />
      <path fill="#f79746" d="M998.5 602l-14-12.2-36 37.7 5.7 33.7" />
      <path fill="#fc1912" d="M525 154.5l1.7 4.2 3.6 24 8.2-11" />
      <path fill="#f9d689" d="M663.8 222.2l7.2-1-27.2-6.5 2.4-10.2" />
      <path fill="#5d425b" d="M950 191.6l-6.3-10.5-8 21 8-1" />
      <path fill="#fcf4bc" d="M469 443.2l10.2 18.2-28.7-7.3 3.8-35" />
      <path fill="#8c411d" d="M66.8 201l39.7-4.6 6.3-11.6-10.8-37.6" />
      <path fill="#f30508" d="M531.6 238.8l24 9 2.5 7.3-28-13" />
      <path fill="#c18539" d="M988 263.2l-10.3-27.6-19.3-18 30.8 108" />
      <path fill="#ee431c" d="M326.6 513.2l28-8.6-19.7 11-48-50" />
      <path fill="#f6cd6a" d="M336 497.3l-21-5.2 27.7 15 9.3-8" />
      <path fill="#fe553f" d="M32.2 175l8.4 15-13 1.8-31.8 1.4" />
      <path fill="#9c3a1d" d="M100.5 73.3l-131.5 50 206-33.8L163.6 6" />
      <path fill="#f62b22" d="M492.8 364.4l13.4 36.5-39.5-89 19 63" />
      <path fill="#f86032" d="M348.4 356l36-27.7-13 14.6-49 37" />
      <path fill="#e39642" d="M731 713h87.4L912 530.3l11.5 44" />
      <path fill="#f6241e" d="M630.4 181.2l8.8 1 21.2 8.7-22.8-6" />
      <path fill="#f5160c" d="M631.4 205.4l-1.2-6.2 35.3 8.5-29.4-4.4" />
      <path fill="#f12217" d="M394.4 418l12.2 4 2.8 30 10.8-21.4" />
      <path fill="#ed9240" d="M277 454.5l26.5 49.5-32-61-16.4 26.7" />
      <path fill="#ef1a16" d="M557.8 360.4l17 18.3-2 76.6-12.2-17" />
      <path fill="#fae6b1" d="M472.3 265.8l.3-11-44.7 13.6-1-36.5" />
      <path fill="#faf1de" d="M565 373.7l18.6-24.2 39.2 85-38-54.8" />
      <path fill="#f6d3ea" d="M721.4 178.5l53.8 6.5-.4-4.6-4.3-14" />
      <path fill="#f7c476" d="M389 437l13.3 31-2-29.2L414 453" />
      <path fill="#f6aa49" d="M745 59.7l-55-66 55 82.8-27.6 25.5" />
      <path fill="#fc744b" d="M559.3 214.2l-2 27L499 236l26-3.4" />
      <path fill="#f0150e" d="M608.3 176.3L624 201l-23-52.8-2.5 11.8" />
      <path fill="#fca870" d="M643 202.6l-20.3-12 15.8 7.5 23.5-38" />
      <path fill="#eb3217" d="M291 487.7l-23-22-41.2-57 46.6 54" />
      <path fill="#f27631" d="M244 344.4l3.8-6 30 16.3-9.8 10.7" />
      <path fill="#febb51" d="M677.8-10.5L721-31l-89 49.8-10 17" />
      <path fill="#bd4925" d="M142.4 666.5l60 46.5-17.2-56.5L79.2 539" />
      <path fill="#ee1714" d="M493.2 526l-8.3-39-4-40.8-14 49" />
      <path fill="#f94a27" d="M433.5 281.4l25.7-.2 35.3-46.6-31.5 36" />
      <path fill="#f8f4a8" d="M870.4 103l8-10.4 13.5 9.8-6 5" />
      <path fill="#d81411" d="M303.6 509l3.5 44-30 9 20-60.4" />
      <path fill="#f68f68" d="M475 371.2l-9.8 4.4-30.7-6.4L488 380" />
      <path fill="#fbf5b9" d="M675.4 436L621 273l-38 156 13.6-58.6" />
      <path fill="#fa391c" d="M471.7 276.5l-14.3-10.2 56.4-21.7-39.8 3" />
      <path fill="#f51f17" d="M516.2 361.2l13 21.5-5.2-22.2-14.2-4" />
      <path fill="#f32619" d="M471.4 389.8l34-13.3-53.2 12.3 20 6.3" />
      <path fill="#f12216" d="M456.7 408.8l-23.2-28.3-6.2-46.8 9.8 42.8" />
      <path fill="#f48238" d="M277 397l-14-20 7.2-6.5 6 13.6" />
      <path fill="#f32410" d="M348.4 506l6.8-16.7 9.5 5 14.4-21" />
      <path fill="#f9251a" d="M544 153l-17.7 30.8 20.7 18-21.3 4" />
      <path fill="#651e0a" d="M973.2 91l21.8 27.6-25-42-11.4-5.6" />
      <path fill="#f6e16e" d="M375 629.3l73-55 59.6 86.4L348.4 574" />
      <path fill="#ec1413" d="M667.2 256.5l-18.5 35.8-2 48 11.8-16.8" />
      <path fill="#f11f1a" d="M479.3 349.8L456 379l20-9-21.8-11.7" />
      <path fill="#fa4225" d="M529 228.5l10.6-26.8-47.6 14 16 4.2" />
      <path fill="#f5e775" d="M578 171l31.7 13-8.2-20-17.8 5.6" />
      <path fill="#fff566" d="M993.2 660.7l22.5-6.4-4.3 46.7-26.7 12" />
      <path fill="#fbf5c6" d="M523.6 359l18.7 72 6.2-40 2-31" />
      <path fill="#eab450" d="M267 7l-2 104-16 9-14-58" />
      <path fill="#f5d682" d="M406.4 434L387 467.7l16.4-29.4L388 431" />
      <path fill="#f21e18" d="M544 312.5l.7-.8-8.6 1.2 18 34" />
      <path fill="#6e1a0e" d="M976 13.6l.4 39.5-8.4-27 4-56" />
      <path fill="#fb280f" d="M375.4 383.3l31.2-8.8-49.6-8 22 1" />
      <path fill="#f11009" d="M519.7 405l6.5-17.4-3.2-14.2 2 27.3" />
      <path fill="#f7e786" d="M367.4 516.6l30.3-6 54.5 61.8-33.4-77.5" />
      <path fill="#f11813" d="M614.8 42l-22.4 14.5L660.8 82l-15 27.6" />
      <path fill="#fbf1b8" d="M398.2 254l20.8-12.3 38.5 9.6 2.7 14" />
      <path fill="#f93a20" d="M471.5 262.6l-14.2-8 8.4 20-122.5 103" />
      <path fill="#5d2e0d" d="M996.3 265.3V312l21 127.4-28-124.5" />
      <path fill="#ee6a2f" d="M252 472l2.3 67.2 3-2.6 2-59.3" />
      <path fill="#7a3915" d="M138 211.6l18.4 4.6 6.7-15.5-81 4.3" />
      <path fill="#fe946b" d="M566.6 233.2L616 292l-16.4-28 13.8-10.5" />
      <path fill="#e16329" d="M965.7 137.4l11.8-41.7 4.3 19.8-29.6 17.4" />
      <path fill="#f92929" d="M536.2 313l38.6 23.5-6-10.4-17.5-4" />
      <path fill="#f11311" d="M253.4 276.3l22.5 78-59-30.3 50-12" />
      <path fill="#f31714" d="M652 157l32.7 26.6-30.4-79.2-27.2 64" />
      <path fill="#f6df72" d="M222 157.6l16-32 125 2.8-16.7-30" />
      <path fill="#dcab5c" d="M898.5 114.5l23 138.5 39-37.8-45.3-19" />
      <path fill="#875f51" d="M973 167.8l-3.7 11.8-12-31 18.3 14.8" />
      <path fill="#e7b558" d="M181.7 509.2l15.2-56.6-17-75.6-33-14.7" />
      <path fill="#ed1f15" d="M725.2 39.5l8.3-17L812.3 41l-16 14.2" />
      <path fill="#f93722" d="M539.5 245l-8.6.5-30-45.3 2 28.2" />
      <path fill="#f5a249" d="M772 68.5l29-4.8L829.7 19l-59 70.3" />
      <path fill="#f8ea88" d="M857.2 402.8L660.2 585l-8-13 73-121.6" />
      <path fill="#fbf4b8" d="M454.4 310l-12.3-6.7 2-11.3 41-14" />
      <path fill="#f94021" d="M441 382.2l36 24v2.4l-70.6-28.2" />
      <path fill="#fcca8a" d="M822 96l14.2 19-.8-38-52.3 3" />
      <path fill="#f51d12" d="M668.4 229l18.8-16-32.7 23-8.8-12.6" />
      <path fill="#f61b12" d="M702.4 195l-12.7 18.3-46.3-9.5 39.8 13.4" />
      <path fill="#f19f46" d="M297 487.2l46.8 50-2.8-13-15.6-12.6" />
      <path fill="#f52117" d="M553 305.3l11-23.6-10.6-17.3-9 21" />
      <path fill="#f8321c" d="M505.5 218.8l35.7-51.2-30.8 13.5 48.4-35" />
      <path fill="#b3542d" d="M1002.4 567.2l-8.6-11L1016 438l-1 89" />
      <path fill="#f31211" d="M471.3 355l-9 12 46-16.4-15.6-.6" />
      <path fill="#6d5359" d="M110 166.7l6.5-16 16.2 1 19 2.2" />
      <path fill="#cd722d" d="M38.3 245.3l28.4-19.7 46.8-10L37 226.2" />
      <path fill="#f8e37d" d="M510.2 106.6l50.6-1-62.2 41L546 149" />
      <path fill="#fbe891" d="M654.7 201.7l3.5-23-13.4 1.5 13 8.6" />
      <path fill="#ffffd4" d="M1045.2 713l5.3-47-43.2-7.3 47.7-20.5" />
      <path fill="#f9f5a7" d="M444.3 438.7L426 475l-4.8-1 4.3-30.3" />
      <path fill="#fa2e1a" d="M419.6 310.6l-24 10.3 4.5 17-3-22" />
      <path fill="#ef2918" d="M381.5 490.6L328 432l63.5 70.6 16.3-2" />
      <path fill="#d91212" d="M187.4 362.8l1.6-43.3-27-63.8 79.5-3" />
      <path fill="#703418" d="M827.8 127.5l-13.5 7.7L806 124l7.6-9" />
      <path fill="#ffe688" d="M699.5 191.4l-7.2-3-11-3 5 23.2" />
      <path fill="#fc7347" d="M544.3 245.3l4 85-2.5-42L530 252" />
      <path fill="#faf0b0" d="M454.2 445l-11.5-41 37 42.7 38.2-15" />
      <path fill="#f89d47" d="M387.4 598l-5.2-6.7-20.8 3 62.2-9.4" />
      <path fill="#6b9fe1" d="M127.2 162.6l8 20.5 5.6-8 8.8-11" />
      <path fill="#5b2b15" d="M1036.5-31l-16.2 292.3L1055 343l-40-262.2" />
      <path fill="#eb140f" d="M292.4 435.4l24.8-5-21.5-17-40 38" />
      <path fill="#f7c1b1" d="M563.8 241l3.2-77-8 81.2 9.7 21.7" />
      <path fill="#c97937" d="M28.3 366.6l95 153.5-30.8 29 5 3" />
      <path fill="#f6d277" d="M300.8 408.7l1 11 2.2-17 37.2 14" />
      <path fill="#fbedbe" d="M576.7 338.2l82 78-63-65.7-39.6-5.8" />
      <path fill="#fcf2c1" d="M501.4 274.7L480 326.4l42.3-31-71.4-10" />
      <path fill="#e9a249" d="M792 169.2l-4.2-21.4 24.3-15.4-25 50.8" />
    </g>
  </g>
</svg>