<svg version="1.1" viewBox="0 0 1024 682" width="1024" height="682" xmlns="http://www.w3.org/2000/svg">
  <path fill="#829aa3" d="M0 0h1024v682H0z" />
  <g fill-opacity=".5">
    <path fill="#fff" d="M24.8-8.8l279.5 209.5L1044 416.4 1026-31" />
    <path d="M-31 560.5L891.7 450l-612-199.6L4.7-31" />
    <path fill="#0078ce" d="M393.5 395L212.7 646.8 867 713l-92-242.6" />
    <path fill="#fff" d="M452.2-30.3l583-.7 19.8 668.3-63.7-30.3" />
    <path fill="#414a49" d="M757.4 564.7l125.2-214.3-111.8-106L502 338" />
    <path fill="#080000" d="M-9 11.6l9 515L124.4 511l98.2-384" />
    <path fill="#fff" d="M1055 11.8L325.2 286l-79.7-27-66.3-290" />
    <path fill="#060206" d="M579.2 297.2l-381 77 243.3-138.7 49 33" />
    <path fill="#eeb363" d="M152 380l21-80.6 47 94.2L178.2 713" />
    <path fill="#aef1ff" d="M349.7 495.3L455.3 713 343 653.4 316.8 562" />
    <path fill="#fff" d="M-31-13.4L212.8 85l831.4 244-4-360" />
    <path fill="#007ab7" d="M425.3 644L769 713l-4-229-441.4-40.6" />
    <path fill="#716260" d="M325.7 678L291 490.5 137.6 467 205 713" />
    <path fill="#765306" d="M239 231l30 195.8L56 196l178-45" />
    <path fill="#c9d7da" d="M743.6 563.4l71.6 49 239.8-181-64.5-34" />
    <path fill="#0f0600" d="M88.7 9.2l69 453.2-161.4 37.4-27.3-301" />
    <path fill="#7b7367" d="M510 353.5l209.2-86 130 24.3 8 169" />
    <path fill="#1a0d00" d="M843 555.8l77.6 29.4 56.6-8.6-94-21.8" />
    <path fill="#b0d9f6" d="M208.7 223L331 288.8l269-140.4L277.5 89" />
    <path fill="#f1bf6c" d="M79 581.3l198.3-88.7L-31 593.8l39.3 73" />
    <path fill="#dceefb" d="M597.5 319L410.7 103.4 761.4 124l-62.7 109" />
    <path fill="#000002" d="M378 444.2L339.8 407l-136.4 53 96 9.4" />
    <path fill="#30310b" d="M242.3 183l-54-88.2-118.6 3L78.5 222" />
    <path fill="#009cb4" d="M437.6 713l204.2-177 291.4 119.5 37.4 40.3" />
    <path fill="#426185" d="M533.8 240l-104.5 91.5L770.5 440 554.8 279.2" />
    <path fill="#e2f6ff" d="M102.2 97.2l42.4-112.5 278.4 53-72.2 41" />
    <path fill="#e3d398" d="M214 537.6l-17-155.4-33.3-9.5-14 31" />
    <path fill="#00071d" d="M636.5 432.6l-51.8-43L426.2 362l74 58.7" />
    <path fill="#3f9eba" d="M782.7 450.7L735.5 552l105.7-23.5 22.5-106.3" />
    <path fill="#0075bc" d="M752 690.6L370 574l12-148.5L640 437" />
    <path fill="#0d2c4d" d="M744.3 491.5L798 402l-168.5 53 52.5 76" />
    <path fill="#48637d" d="M194.4 447L254 688l111.6.6L292.8 518" />
    <path fill="#3c3837" d="M623.2 390.5l35-103 68.6-12.8-38.2 81" />
    <path fill="#131a24" d="M279.2 292.3l187.2-37.5-43.8 126.8L343 375" />
    <path fill="#64b4f9" d="M668 429l-61.2-61 78.8 78.5L560 444" />
    <path fill="#a69476" d="M842.6 273.7l32 137-204-22.5L727 335" />
    <path fill="#e9ebe9" d="M1055 220.4l-163.5 333 70.3 19L860 363" />
    <path fill="#5a7ea4" d="M334.5 396.6l-16-30.2 150.4 24-60 55.4" />
    <path fill="#4474b1" d="M36 649l105.6-97.7 1 132.6-111 3" />
    <path fill="#4e6c8c" d="M159.8 528.4H-31v62.8l103.7-32" />
    <path fill="#77582a" d="M267 248.7l32.3 15.4-32.3 90-105-13" />
    <path fill="#acc3cb" d="M894.7 687.5L1055 654 810 430l211.6 41.2" />
    <path fill="#687762" d="M61 56.7l43.3-25.2 25.5 75.7-45.8-15" />
    <path fill="#b1a38d" d="M286.7 513l-82.4 18-70-40.6 49-20.5" />
    <path fill="#120b00" d="M-31 86l181 191.7 13 95.5-193 163" />
    <path fill="#746a51" d="M87 624.8l39.3-61.7-58.6 17-45.3 86" />
    <path fill="#c8945e" d="M177 565.2l-9.5 80.8-14.3 56.4 84-16" />
    <path fill="#a0d9f3" d="M411 713l-98.5-117.5 108.3 60 93.4 11" />
    <path fill="#d2e6f3" d="M504.5 269l-35-10.2-102-152 280.8 13.4" />
    <path fill="#e0dfdb" d="M770 594.4l43-67 46.6 34L849 588" />
    <path fill="#8c6d33" d="M189.8 166.4l61.4 59-22.3-44.8 9 279.4" />
    <path fill="#604c0b" d="M236.8 296.7l-120-127-46-53.3 40.5 159" />
    <path fill="#5d3818" d="M202 513l-6 72.7 16.5-26.3-179.8-70.7" />
    <path fill="#deeaf3" d="M519 106.4L571.2 300 675 284l121-67.5" />
    <path fill="#caefff" d="M114.2 43.7l69-74.7L35.7 30 19.3-31" />
    <path fill="#4badeb" d="M367 467l6.3-25.6 89.4-44.8-18 26.2" />
    <path fill="#2e4a67" d="M519.4 367l-52.7-76.4-86.5 73.3-5.3 76" />
    <path fill="#b8dbf1" d="M200 91.4l33 77.6 156.6 102.4 76.8-81" />
    <path fill="#232930" d="M197.4 443.4l183.7 36-8 13.6-165-12.3" />
    <path fill="#fff" d="M744.6-31l30 311.4 35-55.5L1055 65" />
    <path fill="#6b6252" d="M784.7 363.8l-.7-76.6-63.4 3.3-104.3.3" />
    <path fill="#d8bf8a" d="M217.5 378.6l17.2 56-16-25-55 144" />
    <path fill="#34260b" d="M150.2 278.3l61.4 7-242.6 122L112 213" />
    <path fill="#70a1bf" d="M874.2 568l146.4 97-240-20 86-77.5" />
    <path d="M17.2 342.8l61-225.5-71 12-38.2-15.6" />
    <path fill="#999792" d="M352 408.3l40-27.4-23 27-98-110" />
    <path fill="#557693" d="M481 298l113.6-2.5 46.2 112.8-96-43.8" />
    <path fill="#6ab8ee" d="M381.7 585.5L317.2 538l41-78-20.7-2" />
    <path fill="#8495af" d="M704 351l-2.4-9.3L803 380.2l-95 32.6" />
    <path fill="#cba65a" d="M826.6 367.7l.6-60-37.4-58-6.3 110" />
    <path fill="#271d0a" d="M-31 263l145.2 261.4 54.5-79.2-31.3-21.3" />
    <path fill="#212123" d="M237.6 288l40.2 75.5-41.6 109.2 84-95.6" />
    <path fill="#0074bb" d="M432 658l90.7-28.5 36-217.2-167.7 75" />
    <path fill="#4a7db7" d="M399 691.8L293 582.5l34.6 20-37 110.4" />
    <path fill="#365470" d="M322.8 562.8L305 463.5l-44.6 183.3-53.5-117" />
    <path fill="#80ccf9" d="M328.3 553l-1 75.4L430 642.6l-7.2-42" />
    <path fill="#5c83a1" d="M36.6 118L-31 105v28l53.3-7.5" />
    <path fill="#4d5759" d="M586 313.7L530 253l-115.7 78.4 94-29.3" />
    <path fill="#d4e7f2" d="M437 230l-52.6 43-151.7-28 6-21.6" />
    <path fill="#0c0c08" d="M110.2 147.5l12.7 38.2 81-8.2L-31 31" />
    <path fill="#120102" d="M207.3 263.5l-3.8 61.4-39.6-36 15 3" />
    <path fill="#6b6256" d="M267 378.7l11.8-124.3L226.4 449l8.5 9.6" />
    <path fill="#283443" d="M854.4 555.3l112 24-5 5-36.6 10.6" />
    <path fill="#b5b1a3" d="M155.7 513.4l1-60.5 14.3 68 39.5-2" />
    <path fill="#dbba5a" d="M-20.4 675.6l-10.6 5.8v-49l117.7-31.6" />
    <path fill="#bc984e" d="M139 408.7L236.2 290l-24-7.7L177.8 417" />
    <path fill="#daddde" d="M844.6 302.2l129 219.3 46.4 22.7 35-114.7" />
    <path fill="#0a9ab5" d="M548.4 713L467 639.8l360.4-155.2L616.2 713" />
    <path fill="#6288b1" d="M177.7 628.4l-1 1.8 49.7-74.5 19.3 76.5" />
    <path fill="#223330" d="M9.3 36.2l62.5-12.7 26.8 83.3-45.3-4.4" />
    <path fill="#4f6c84" d="M-31 596.2l49.2-22L155.7 534l-178.4-3" />
    <path fill="#150b00" d="M213.8 362.6l3.7 23.3-5.7 84 16.2-3" />
    <path fill="#282d38" d="M574.7 441.8l128-19-53.3-42.8 8.6 6.4" />
    <path fill="#f5eedb" d="M911.5 530.2l87 27.4L1055 584l-133-24.8" />
    <path fill="#dfeffd" d="M146.4-31L113 107l26-21 182 30.7" />
    <path fill="#675845" d="M885.2 410.3l-60.7-36.5-57.6 82-10-67.6" />
    <path fill="#95a9ae" d="M977.4 533l66.6 14.6-94.2 1-45.8-73.4" />
    <path fill="#1f1c12" d="M307.7 282.5l-68 95.6-5-51 185.3 9" />
    <path fill="#ad8d5c" d="M258 262l17.7 18.4 18 49.6-14.2-12" />
    <path fill="#004c89" d="M392 484.5l64.7-90L675.2 483l-170.6-57.8" />
    <path fill="#7294c0" d="M176 536l-6.8 75.3-23.2 91.4-62.7-71" />
    <path fill="#147096" d="M612.7 562l180.5-34.7 3.5-36.2-30-30" />
    <path fill="#c5c6c9" d="M879.7 597.6l15.7 33.4 39.3 3.7 4-8" />
    <path fill="#050303" d="M368.5 351.4l-5 36-29.8-28.5-9.4-12" />
    <path fill="#9a8c6d" d="M794.2 406.4l-38-162-77.8 26.7 114 5" />
    <path fill="#e8deb9" d="M181 476.3l30.7 28.6-8.7 23-7-117" />
    <path fill="#160f05" d="M172.5 385l-66.7-129 18.4 202 60.6-142" />
    <path fill="#040a0e" d="M602.3 385.4l-86 6.8 87.5 44.6-36-4.7" />
    <path fill="#eef1f2" d="M821.7 298.5l-32-31.3 265.3 96.4-341.8-251.2" />
    <path fill="#435653" d="M136.8 119L86 98l80.4-6.2-33-8.5" />
    <path fill="#352d18" d="M-31 512l167.2-58.4 21.6 66.6L22 523.5" />
    <path fill="#7dbbc1" d="M770.2 713H948l-182.8-51.8 22.3 2.3" />
    <path fill="#768dad" d="M733 342l-45 44-92-4.3 24.7 20.2" />
    <path fill="#595b57" d="M244.7 412.6l71 14L262 451l10.6-203" />
    <path fill="#6797ac" d="M764.6 542.7l117-10.8-84.3-87 61.4-11" />
    <path fill="#4f5c63" d="M245 222l-38.3-97.4 39 59.3-38 18" />
    <path fill="#464541" d="M156 450.3l3-10.2 15 9 4.7 74" />
    <path fill="#bdd2dd" d="M841.8 499.6L862 412l122 35.8-113.5 30" />
    <path fill="#242f3e" d="M450.2 237.6l-20.3.5-76 59 124 2" />
    <path fill="#1a86cb" d="M515.8 451.7L473 493.2 615 550l-24.4-91" />
    <path fill="#5789b9" d="M430.7 390h31l-26.5-12-114 13.7" />
    <path fill="#11355f" d="M530.5 433.8l56.8 9 144.7 18 5.4 36" />
    <path fill="#5282ab" d="M494.7 331l97 8-21 54-13-31.7" />
    <path fill="#e2ebf0" d="M947 243.7L578.4 155 648 294.6l78-49.7" />
    <path fill="#4b91ca" d="M635.7 436l11 14 81-9.8-13-1.6" />
    <path fill="#6a93a6" d="M73 17.8l15-7.2 42.2 74L121 82" />
    <path fill="#3f84a9" d="M809.8 676.2l223 20.5-37.6 4-84-59" />
    <path fill="#24272a" d="M347.4 272l132 30.3-207.6 35-3 48.2" />
    <path fill="#0d151f" d="M358.6 406l8.3 29.3 3 24-130 3.7" />
    <path fill="#af8e4c" d="M203 229.7l6.4 27.6 17 11-15.3-68" />
    <path fill="#6e7571" d="M262 554.6L218.8 543l16.4-81.7 58 55" />
    <path fill="#1db9c1" d="M544.7 623l51.7 90h-79l-50.2-61.6" />
    <path fill="#3b7eb7" d="M337.6 434l-6 31 50 14.5-14-10.8" />
    <path fill="#422d01" d="M202 364.7l30-52-8 30.8 1.5 54.3" />
    <path fill="#3a372b" d="M891 549.4l-23 10.2 30.8 15.6 34 10" />
    <path fill="#707c78" d="M870.2 382l-36 82.2-72.7-1.8 68-41.5" />
    <path fill="#32a8dd" d="M426.6 620.2l18.2 65.4-26.5-32-65.4-143" />
    <path fill="#96abc5" d="M796 411.5l83.8-4.3-20 12.3L820 394" />
    <path fill="#c1dfef" d="M315 280.2l23.8 6.5 19.5-44.8L252 227" />
    <path fill="#e8f9ff" d="M-31 3.3l84.5.7-16.2 18L465-31" />
    <path fill="#f9f8f8" d="M876 351.5l-17.5 23.3 169.5-24.4-.3-381.4" />
    <path fill="#cacfc4" d="M961 512.4l40.5 163.4 53.5-1-90.7-71" />
    <path fill="#d7c5a4" d="M180.4 544.7l-211.4 63V596l162.4-57" />
    <path fill="#0f2f40" d="M121 41.3l-44.5 5L12 57l-22.4-33.3" />
    <path fill="#536676" d="M617 286l18 3.4 13.4 61.6-58 19.2" />
    <path fill="#4f79aa" d="M964.7 592.7l-98.3-22.5 80 65.5-23-33.4" />
    <path fill="#757674" d="M518.6 238l49.3 92.6-2-53.4-23-15.8" />
    <path fill="#1a1f25" d="M308.8 331.2l-42-62.6-6.3-14.6L415 403.6" />
    <path fill="#065aa4" d="M700 524l-40.6-57.7L615 461l10 101" />
    <path fill="#b7985f" d="M210.2 330.8l-33-26.5-20 131.5 12.8-120" />
    <path fill="#3386a2" d="M730 609.8l110.6-164.6-137.8 90 149 100.8" />
    <path fill="#008faf" d="M518.3 713l221.4-28.3 71-22.2-81-81.5" />
    <path fill="#d2e5f1" d="M586.2 335.5l49.4-72L409 219.7 653.6 149" />
    <path fill="#f4ebf0" d="M413.7 664.7L425 678l50 4-82.7 10" />
    <path fill="#5d574b" d="M34 328l-10.2.5L42 362l-.2-45" />
    <path fill="#fdffff" d="M559 125.4L263-.6 99.5-.8l772-.6" />
    <path fill="#09100e" d="M-31 60l165.8 92 49.7-59-108 43" />
    <path fill="#e08f25" d="M179 713l2-130.7 2.4-69.4-14 172" />
    <path fill="#ebdead" d="M197 394l4 22.6 7 27.3 5-23" />
    <path fill="#b5b4a9" d="M760.4 233l-33.6 62 30.7-12-35.4-21" />
    <path fill="#006eb7" d="M354.4 491.6l3.5 26.8 101 142-3-188.4" />
    <path fill="#626468" d="M662 389.5l46-19.8 79-77L690.8 422" />
    <path fill="#607e8a" d="M34 90.3L4.8 120.6 7 107.2l22.8.6" />
    <path fill="#625111" d="M96.5 134l-18 55 163.3 121.6-119.4-119.2" />
    <path fill="#e9ebeb" d="M886.2 189.2L1055 433.8l-153-67-58.8-63.4" />
    <path fill="#292d31" d="M712.4 445l84.2-30.3-92 70-53-97" />
    <path fill="#d0d8d9" d="M861.6 538.5l-92 18 90.2 37.6-31.2 13" />
    <path fill="#a3a18f" d="M226 402l-13.4-24L248 505.3l-3-1.4" />
    <path fill="#604827" d="M148.2 260.5l112 4.6-44.6-46 57 96" />
    <path fill="#000100" d="M-31 516.2v-177l91.8 105-6 34.4" />
    <path fill="#495d6e" d="M290.3 525.7l-47.7 92.6-8.3 74.7 78.4-54" />
    <path fill="#000100" d="M30.6 133.7L-31 330.5l108.3-52-34.5-209" />
    <path fill="#325b66" d="M-25.8-2L-31 22.2 31.2 29l7.5-17.4" />
    <path fill="#06081d" d="M348.4 483l-32 8 54-7.6-14-13" />
    <path fill="#3e3b3e" d="M665.4 328.4l-49.2 54 41.5-3 32.8-21.5" />
    <path fill="#fff" d="M494.2 82l527-113 33.8 252.7-223.8-101.5" />
    <path fill="#b6a087" d="M200.8 625l-34.5 15 79.8.7-27 27" />
    <path fill="#2b5887" d="M-31 497.4l14.5 87 39.5-11 25.3-5.6" />
    <path fill="#e6f1fc" d="M191.2-12l298 132.8-244-19-48.2 14.7" />
    <path fill="#b8d8ec" d="M460.3 236.7l-153.7 18.8-76-93.2-22.3-60.2" />
    <path fill="#61a8d8" d="M650.5 443.8l-90.6-5.6 112-5.6 8 10.8" />
    <path fill="#324555" d="M576.4 366.4l128.6 66L547.8 353l-188.6 73.5" />
    <path fill="#597eac" d="M381.7 407.8L384 386l-22-5.8-49 19.8" />
    <path fill="#d0e0e7" d="M568 286.3l-.5-43.2 127.3 32-148 27" />
    <path fill="#dfc272" d="M158.5 377.2l27 46 8-89.2-31.3 83.2" />
    <path fill="#68b5e5" d="M342.5 488.5l29 5.8-56 28.5 18.7 45.7" />
    <path fill="#cee3f0" d="M462 244.8l28.2 23.7 121-80.8-275.6-83.2" />
    <path fill="#93c8ee" d="M322 600h89l-12.8 113-60.3-99.4" />
    <path fill="#140c04" d="M179.4 337.3l.3-22.7-66.2 112.6-30.5-141" />
    <path fill="#394a5c" d="M410 345.3l-65.4-4 90 65-73.2 33.3" />
    <path fill="#736850" d="M300.8 331.3L323 353l-65.4-14 11.8 14.6" />
    <path fill="#171103" d="M109.8 470.7L66.3 510 7.8 384 172 444.2" />
    <path fill="#ebf0f5" d="M520 106l297 134-47.2 34 42.7-151.5" />
    <path fill="#a29a7f" d="M224.4 376.2l27.8 28v.7l7.3-15" />
    <path fill="#b3aa9b" d="M876.7 332.2L798 278l54 45.2 14.7 34" />
    <path fill="#ad8044" d="M211.2 302.3L205 347l29-75.4 8.3 44.5" />
    <path fill="#2264a6" d="M291 530.5l12.4-13.4 27 28-30.7 40" />
    <path fill="#9bb1b5" d="M841 580l-60-14-14.7 22 73 22.8" />
    <path fill="#0d1f2d" d="M433 361.6l64.2 58-23-45.2-108.3 3.4" />
    <path fill="#6596a6" d="M958.8 638l40.8 40.7 17.7 9.4-3-27" />
    <path fill="#3d6a99" d="M301 561.7L379 713l-22.3-71.4-80.3-24.7" />
    <path fill="#3a352a" d="M262.7 255.8l-13.8 108-14-87.8 55-14" />
    <path fill="#776b5a" d="M789.8 314.5L723.4 279l-50.2 57 88.4 6.8" />
    <path fill="#cbae86" d="M320 358.6l33 36-10.7-1.2-25.7-52" />
    <path fill="#5e572c" d="M127.5 72.6l-78.8 24 62.5 1-29-34.4" />
    <path fill="#453d35" d="M801 422.8l-71.4-10.3-52.3 20.7 105.2 5.8" />
    <path fill="#446064" d="M208.4 129l-76-35.3 56.6 1 2.2 3" />
    <path fill="#9caaa3" d="M1055 629l-42-91.6 42 63.5-76-35" />
    <path fill="#3b5974" d="M541.4 267l-51-1.6-31 109 73-134.7" />
    <path fill="#444f4c" d="M86.4 616.5L35 634l28.6.4 1.5 5.3" />
    <path fill="#8c8284" d="M176 575.2l-6 95.6-18.7-120 5.5-29.6" />
    <path fill="#151512" d="M453.3 322.8l-136 36 53.2 11.3-1.2-53" />
    <path fill="#d3d0bd" d="M150.8 492l12.3-7.5 1 33.3-8-17.6" />
    <path fill="#8c9aa9" d="M776.8 383L713 399.7l39-58.4 8.2-4" />
    <path fill="#71746d" d="M61.6 550.6l109-12-75.8-18-25.8 7.8" />
    <path fill="#8f593a" d="M165.8 497.6L177 575l5.6-26.5 33 14.8" />
    <path fill="#11192a" d="M561 415.5l-1.5 15.3 74.8 6.4 8-6.3" />
    <path fill="#0163aa" d="M386.4 568.4l124-153.3-124.7 48 93 143" />
    <path fill="#68c8bb" d="M562.8 713l-82-18.7-34-38.3 34-2.6" />
    <path fill="#193b64" d="M300.5 526.5l4-41.2 30-36.2 7 41" />
    <path fill="#53a7d9" d="M346 472.2L333.8 487l103.4-70.3-16-2" />
    <path fill="#656c6a" d="M75.2 603.5L33.8 613 98 570.8 95 605" />
    <path fill="#dde1e1" d="M869.3 402L859 366.7l85.3-67 17.8 83" />
    <path fill="#eff2f4" d="M679.8 277l58.4-75.3 6.3 62-80.2-53.4" />
    <path fill="#b9d9ed" d="M276 255.6L240 91l10 131.8-37.5-7.5" />
    <path fill="#21201c" d="M252 382.8l79.4 8.8-25.2-10.6-70.4-10" />
    <path fill="#091a22" d="M525.2 386.2l-83.6 41.6 47-13.2 75.6.3" />
    <path fill="#544d37" d="M237 194l13.8 24.4-90.6-53.8 65 49.5" />
    <path fill="#000a09" d="M23.4 71.7l-1 53.2-24.8-42-27.8 20" />
    <path fill="#eae8df" d="M916.7 531.2l63 4-52 13.3L1011 578" />
    <path fill="#5c482b" d="M208.4 334.2L197 306.4l9.7 99.8-15-35" />
    <path fill="#b1884b" d="M287 322.5l-34-30.7 28.6 35.8-3.2-37.4" />
    <path fill="#c18c22" d="M229.8 413.6l.8-57.5-2.2 20-4 14" />
    <path fill="#695714" d="M208 232.5l-68.2 57 32.7-75.3-84 27.4" />
    <path fill="#4a7fb6" d="M37.4 668.5L88 630.8l74.7 82.2H38" />
    <path fill="#3c626b" d="M87.8 27l-4 18.5L69.3 55l10.5-39.7" />
    <path fill="#b28c45" d="M187.5 360.6l2.6 26.6-33-8.8 12-13.8" />
    <path fill="#b28861" d="M186.8 476.4l13 68 29-28.3-50.2 14" />
    <path fill="#4770a1" d="M722.4 442.8l-51.5-8.2-10 15 86-20.4" />
    <path fill="#93a9af" d="M966.2 517.4L1055 580l-94-46.2-49.3-21.5" />
    <path fill="#9b8f79" d="M9 713l-32.7-27.2-.2-8L44 625" />
    <path fill="#362e08" d="M106.8 233.5l-54-114L97.6 149 64.2 272" />
    <path fill="#6b98c5" d="M171.4 648l-12.7-29-44.5-53-20.6 89.2" />
    <path fill="#649db3" d="M770.4 576.5l97-112.7-31.8-19-15 .5" />
    <path d="M9.6 132l-23-61.7 5 247L78 98" />
    <path fill="#644e03" d="M230.7 351.8l-31-3L224 310l26 17.2" />
    <path fill="#abc3cf" d="M1025.4 504.8L931.8 457l83 11-77.5 21.2" />
    <path fill="#0b80be" d="M455.4 501L501 655.4l45.3-234.8 23-7" />
    <path fill="#537591" d="M575.3 386l5.5-95.3 20.4 29.7-51 61" />
    <path fill="#0e7aa2" d="M961.8 713l-118.3-53.2 53.8-4-70.3 11" />
    <path fill="#e4f0fa" d="M357.5 114.5l-255-55 108.3-57L254.6 23" />
    <path fill="#aa804a" d="M211.8 291.6L262 334l8 29.4-16-45.4" />
    <path fill="#8e7d66" d="M802.8 378.8l59.7-31.6-1.4 63.2L750 363" />
    <path fill="#aab9b9" d="M766 554.5l-4.5-6.5 69.5-23.3.6 13" />
    <path fill="#c9c7c2" d="M937.8 609l12.6 10.6 39.2-1-66-18.7" />
    <path fill="#977f72" d="M182.7 494.8l1.5 115.8 24.7-45.8-20-2" />
    <path fill="#91abbd" d="M224 185.7l-5.6 9.2 36.6 16-23.8-31" />
    <path fill="#bbdedb" d="M437.7 708.3l-41.5 4.7 77.7-56 5 7.5" />
    <path fill="#71726c" d="M150 458l-12.7 54.4 46.4-67-44.3 21.5" />
    <path fill="#dac484" d="M62.7 578l-71 69.3 9.3 5-13.6-49" />
    <path fill="#c1beac" d="M706.8 241l19.2 17.6-40.6 20 19.4-1.3" />
    <path fill="#84b0e0" d="M533.8 338l10.2 1.5 4.4-1.3-8.5 18" />
    <path fill="#787e75" d="M768.4 249.5l.3 29.3-22.8-24 4-13.2" />
    <path fill="#38331d" d="M174 196l-21.7-71.5 76.6 43-69 84.5" />
    <path fill="#18150a" d="M348 471.8l-77-9.8-27.6 2.2-3-25.3" />
    <path fill="#67bbed" d="M669.8 433.5l-7.3 17.4-4.6-4-13-19" />
    <path fill="#cbe0eb" d="M315.5 286.7l160.7-65-191 11.4 57.3 50" />
    <path fill="#645a3f" d="M947 569l-3-3-58-9.3 84 27.4" />
    <path fill="#5d4327" d="M163.6 293.2l-68.3-5 51 10 43.2 35.2" />
    <path fill="#dbd5c6" d="M1007.4 593l-29.7-21-19.6 17 76 33" />
    <path fill="#ad9461" d="M163.4 322l77.4 103.6-62-90.3-2.5-34" />
    <path fill="#f1ece0" d="M986.2 536.2l57.4-.8-51.6-25.2-4.7-5" />
    <path fill="#201d1b" d="M277.5 355.5l-1.8-37 38.4 49-71-13" />
    <path fill="#e9e9e7" d="M859.7 557.3l-19-3.4 18.8 38-50-51" />
    <path fill="#283445" d="M576.5 386.7l35.3-10.5-36.2 39.5 109-10" />
    <path fill="#454037" d="M32.4 526.4l135.8-.8L-31 508.4l83-15" />
    <path fill="#0588cb" d="M355 490.6l2.8 44.7 47.6-16-19.6-26" />
    <path fill="#1c508e" d="M526.3 439.5l159.3 7.4-81.7 16-66-18" />
    <path fill="#dcdad1" d="M193 471.2l21.2 57-2.7-7 1.8-12.2" />
    <path fill="#000a0b" d="M-9.8 48.4l85.4 1.3-46.2 4.8-60.4 44" />
    <path fill="#cbe7f6" d="M93.7-27.8L16 9l31.6 3.6 25 19.2" />
    <path fill="#2b4161" d="M395 434.8l-56.2-38.5-64 58.5L297 391" />
    <path fill="#797d7a" d="M198.6 478.5L229 530l55.6-4-65-52" />
    <path fill="#f3f4f5" d="M1044.2 222l-79.6-93-171 145 18 12.8" />
    <path fill="#6099b5" d="M799.8 613l72-9.4L959 713l-77.7-72" />
    <path fill="#0f78b6" d="M636.2 471.2l1 70.4 114.5 8-302.7 95" />
    <path fill="#1d1503" d="M127.4 524.8l-34.6-8.6 4.6-15.5 56 22.6" />
    <path fill="#1a170a" d="M205.2 473.6l30-4-17-68.5.7 41" />
    <path fill="#a9bfca" d="M920.5 493.5l-47.4-29-6 96 79-45.6" />
    <path fill="#7590b0" d="M540 300.6l5.2 22.2-34.5 12.3 11.3-25" />
    <path fill="#56a3d6" d="M358.6 534.6l-17 19.5-22.2-43 27.4 4" />
    <path fill="#778483" d="M314.6 671l-59.2-20.6v39l43.2 23.6" />
    <path fill="#7b6641" d="M187.5 435.3l-22-27.2 7.4-4 4 32" />
    <path fill="#7b7473" d="M490.7 268l65.4 44.7-105-73.3 13 21.3" />
    <path fill="#476176" d="M486 280.3l-57.7 51 66-19-22.4 20" />
    <path fill="#3b4e56" d="M38.5 65L-31 95.8 20 66l19.8-13.3" />
    <path fill="#5f8fc0" d="M936.5 594.7l-49-.4-12.8-8-36.4-32.7" />
    <path fill="#acc7cd" d="M994 667l37 46-48.5-38.8-19-9.3" />
    <path fill="#141508" d="M141 160.3L124.7 228l-6.5-96 27.6-37" />
    <path fill="#cad4d9" d="M1013 420l-126-60.3 74.4 148-92.4-49.2" />
    <path fill="#f1eee9" d="M868 385l59.2 31-55.6 6.5 8.6-18.2" />
    <path fill="#a58749" d="M770.6 321l81.8 5.4-62.7-37.6-11.7 36.4" />
    <path fill="#779ab4" d="M15 113.2l-46 .3V63.7l40.7 62" />
    <path fill="#446081" d="M551.3 366.3l-92.3-11-2 6.4 44 10.7" />
    <path fill="#42606a" d="M44.8 11L33.2 22l-47-2-10.6-9.3" />
    <path fill="#7e7359" d="M265.6 359.8l2.8 24-7.8 17.3 3.4-97" />
    <path fill="#80a6b1" d="M995.6 623.8l-83 59.5 80.4-83.5 56.6 79.2" />
    <path fill="#9a7f5e" d="M264.4 275.3l2 11.3-34-52.7 32.8 34" />
    <path fill="#1c3651" d="M380.7 385.3l44-9.8 81.4-47.7-5-6.2" />
    <path fill="#425c73" d="M519 328.7l-30.5-1.7 82-1.3 59 43" />
    <path fill="#464847" d="M874.6 560l24.5-8.7 18 20.4-43 3" />
    <path fill="#292a1f" d="M70.3 26.5L29.6 81.7l72.6 34.7-41-89.3" />
    <path fill="#6b829e" d="M605 397l87.3-11-80.5-6-9 11" />
    <path fill="#93a6a5" d="M1006.4 582l6.3-4.2-41-8.7 39.6 22" />
    <path fill="#d8ebf2" d="M124.2-21.4l19 110 34.2 2.4-14 9" />
    <path fill="#110d00" d="M201.4 332.6l-3.4 2.8 21.4 24 4 34" />
    <path fill="#313333" d="M662.7 430.6l24.3.8-10.2-26.3-40-28" />
    <path fill="#736f64" d="M517.5 305l41.3-14.4 46 25.3-8.5 1" />
    <path fill="#322a1a" d="M224 433.8l36.5-105.4-19 17.5 1.5 63" />
    <path fill="#0d151b" d="M372.2 449.5l-8.6-30.4-131.3 42 88.4-13" />
    <path fill="#b58f46" d="M202.2 251l17.7 3-12-61.7 18 32.7" />
    <path fill="#3f4c4b" d="M697 302.2l.7-22.6-46.7 23.7 17.3 9.3" />
    <path fill="#92bcde" d="M328 491l8-1 24.5 45.8-12-43" />
    <path fill="#4b7eac" d="M446 374.8l-7.8 16.7-69.5-8h31" />
    <path fill="#c69b57" d="M207.7 315.3L213 326l-5.6-32.3 25 10" />
    <path fill="#191b1e" d="M440 316.7l-138.5 30.7 41.6-44 83 40.6" />
    <path fill="#4e4f2b" d="M218 175.4l1.3 42.6L154 89.5l91 93" />
    <path fill="#8ac4eb" d="M315 569l98.5 129.6-83.2-74.6 50.5-80.4" />
    <path fill="#bdc4c6" d="M930.4 644l-2.3 1.6-82-65.3 78 50.4" />
    <path fill="#465f75" d="M299.7 489v201.6l-22-223.8 22.7-1" />
    <path fill="#6f351a" d="M199.3 542.2l-2 17.7-10-30 10.4-12" />
    <path fill="#5e6f6a" d="M134.4 97.3L78 17.8 116.2 88l-56-51" />
    <path fill="#e4e7e5" d="M910.5 455.7l144.5-3.3-23.7 78-6.7-60.5" />
    <path fill="#dae9f3" d="M478.2 259.6L464.4 239l71.2-29.3-19 53.2" />
    <path fill="#c1cac3" d="M934.6 558.5l-55-8.5 40.3-37.3-18 50.6" />
    <path fill="#334e59" d="M97.4 45.8L-24 40.5l95 10.8 49-18.5" />
    <path fill="#d5c596" d="M173.7 457.4l15.6 40.2 18-78.5.3 23" />
    <path fill="#091e25" d="M44 21L31.6 90l-10 1.3 54.8-46.6" />
    <path fill="#63492f" d="M189.6 327.3l37.7-50.6-54.7 91.7.8-53.8" />
    <path fill="#211914" d="M256 304.2l-9.2-8.5 15.7 70-11.5-23.3" />
    <path fill="#192227" d="M242.4 412l30.2 2.7-6-50 28 15.7" />
    <path fill="#03789f" d="M824 630.4l-85-26-19.6-15.2 100.5 34" />
    <path fill="#4c4812" d="M106.2 142.3l-1.3 7-55-11.6 21-7.5" />
    <path fill="#4a6b8a" d="M384.3 360.2l31.3-19 1 1.5-10-5.3" />
    <path fill="#1f1b18" d="M107.3 447.5l31.2 38.6 27-77 6.8 5" />
    <path fill="#d6ab76" d="M224 659.5l-3.6-9.2 3.4 58.4-18.8-79" />
    <path fill="#b2d7ee" d="M327 173.5L188.6 110l97 6-61.5 48" />
    <path fill="#8f5a32" d="M200.5 501.4l-18.2-7.8 19-1.5-25.7 57" />
    <path fill="#6e570f" d="M170 283l23-11-49.6-69.7 6.4 86" />
    <path fill="#c7deeb" d="M405.7 257.4l77.7-90.6-196.7 106.7 95-1.2" />
    <path fill="#1c1600" d="M51.6 259.7L149 233l-38 37.3-30.8 53.3" />
    <path fill="#d9e7ef" d="M120.3 90.7l167.2-96L116.8 96.5l-18.2-7" />
    <path fill="#4a4338" d="M228.2 231.4l-8.7 29.3 84.8 37.2-41.3-16" />
    <path fill="#b8d9ee" d="M358.7 120.7l-83.2 131.6-26 2-7.5-98.8" />
    <path fill="#5e4528" d="M165.2 531.2l-30-12.8 39.6-1 1.6-66.6" />
    <path fill="#0575b8" d="M552 441.7L376 597l118.3-182.3-65.6-20.2" />
    <path fill="#2f2717" d="M54 297l-15.2 46-69.8 23.3L90 372" />
    <path fill="#81bac3" d="M818 673.6l-40.4 1.8 91.8 36.5-53.7-31" />
    <path fill="#537084" d="M28.6 93.2l7.5-43-11 69 10 .3" />
    <path fill="#deca9a" d="M178 541.5L42.7 581.3 86 556l38-11.4" />
    <path fill="#22a4da" d="M444.7 617l-54.5-36.2L421 598l-12 44.6" />
    <path fill="#b58e5a" d="M174.5 308.6l-5.4-11.8 20 17 11 22.8" />
    <path fill="#181f29" d="M562 416.8l-1 5.2 27 17.4 52-17.2" />
    <path fill="#3793b1" d="M766 471.7l9-11.7 27 70.6 28.5-32.3" />
    <path fill="#dfebf0" d="M696 246.7L518.8 211l21.3 48 178 5.3" />
    <path fill="#1d1304" d="M173.8 296.8l24 27.7 2-32.2L32 274" />
    <path fill="#726a54" d="M732.2 301l26.6-27.2 25 36.4-24 34.8" />
    <path fill="#597fa5" d="M248 642.5L213.6 624l2-65 7.7-2.2" />
    <path fill="#157891" d="M793.2 469.3l-31.2-2.5 30.4 71.7-67.2-42" />
    <path fill="#a2bec6" d="M912.7 543.5l41.3 13.7-121.2-10-42.7-18.5" />
    <path fill="#daeffb" d="M91.4 6.4l122 9.8-112 28.8 50 36.5" />
    <path fill="#7b899a" d="M164.6 644.4l9.2-56.3-95.5-11 75.5-25" />
    <path fill="#211f15" d="M184.2 208l-49-45 82-37.7-22.8-2.3" />
    <path fill="#679aaf" d="M820 580.2l-46.3-20-52.6-36 71 53.8" />
    <path fill="#cec1b2" d="M204.4 504.2l11.8-2-17 31.5-1.2-21" />
    <path fill="#708594" d="M935 590.3l20.7-9.8-14.6-5.3 37 29.3" />
    <path fill="#093962" d="M725 483.2L675 458l-60-12 48.3 38.6" />
    <path fill="#496683" d="M523 248.8L451.3 367l76-93.2 21.6 7" />
    <path fill="#2a303a" d="M409.8 269.7l-63.5 6.2-11.6 11 165.5 13" />
    <path fill="#6cb3e5" d="M619.8 435.4l9.2 8-65-6.3 12.5 5" />
    <path fill="#054c7e" d="M532 413.8l43.4 35.2-99.7-42.8-44.6 25.3" />
    <path fill="#a4a8a5" d="M369.2 414l-48.6-56.2 22.8 38.8.5-1.7" />
    <path fill="#75776b" d="M728.6 279l-1 8-40.3-21 70.7 9" />
    <path fill="#d8e6ed" d="M623.6 269l-14.2 37.8L594 313l7.8-37.6" />
    <path fill="#13202a" d="M552.7 405l38-37.4-7.2 15L612 399" />
    <path fill="#e7ce71" d="M196.8 386.3L168 430.6l-7.4 9.3-1.3-14" />
    <path fill="#b4b0aa" d="M880.8 348l-56.4-19-8 21.8 50-23" />
    <path fill="#eceff0" d="M835 567l33.5 5.4-35 .7-49.4-10" />
    <path fill="#d2ba6e" d="M-10 648.8l24.7 3.6-39.7-36.2 103-.5" />
    <path fill="#32342e" d="M936 591l9.3 1.5-56-22.7 50.8-5.2" />
    <path fill="#c1c3b8" d="M952.8 617.5l41.3 1-46-60 36 18" />
    <path fill="#c6c9c6" d="M725 288.4l118.3-53.2-94.6 41.5 6.5 7.2" />
    <path fill="#348aaa" d="M754.3 580.5l31.3-85-73.3 83.3 184.4 56.5" />
    <path fill="#425355" d="M134.6 91.7l33.6-2-64.4 16.3 26 13.3" />
    <path fill="#ebebe5" d="M983 552.7L896 537l83 24.4-31-32.4" />
    <path fill="#6b6f5b" d="M80.2 92.3l60-13.3-48.8-5.7 8.3 4.7" />
    <path fill="#547284" d="M35.3 668.2L39 652l56-35.7L46.3 669" />
    <path fill="#edeff0" d="M844.7 291.7l112.8-71 97.5 186.6-208.2-94.7" />
    <path fill="#958c87" d="M187 532.8l-7.2 122.4 31.8-39-22-3.6" />
    <path fill="#4a4c39" d="M152.3 144.5l23.3-40.3-12.8-7.8 38 11.5" />
    <path fill="#3b9fdd" d="M350.6 460l-14 5.6 33.8 10 13.4-11" />
    <path fill="#cecfc9" d="M801.5 596.3l-41-31-1.2 4 61.3 15.2" />
    <path fill="#dceaf3" d="M670.8 283.4l-74-139.4 92.4 57-1 78.7" />
    <path fill="#83aec6" d="M858.8 635.5l41.3-19.8-13 28-48-8.7" />
    <path fill="#151312" d="M273.5 323l-9.6 19.8 33-7.8-6 29" />
    <path fill="#1d2124" d="M286 316.2l3.5-32.6 85.5 5-56 60.7" />
    <path fill="#2284c4" d="M597.8 466.3l4.2 4-1.5 99-61-99.8" />
    <path fill="#0081a8" d="M742 675.4l80 28-199.8-92.8 28.5 55" />
    <path fill="#8ca4ae" d="M907 676.5l-8.4-5.8 25.2 42.3 10.7-58.7" />
    <path fill="#c0b39f" d="M156 573l21.3-6.6-5 11.5-16-1" />
    <path fill="#2a4158" d="M475.2 325l-54 49-90-5.8 26 5.3" />
    <path fill="#374b5e" d="M453.2 252.2l37 54 23.5 13 15-18.8" />
    <path fill="#3e8da9" d="M799.8 648l61.2-5.4-54.2 17.5 204 31" />
    <path fill="#38a7bb" d="M444 649.3l14.8-9L465 663l-66.5-7.3" />
    <path fill="#3e3728" d="M114 464.7l-31 57.8-26-30.8 93 17.4" />
    <path fill="#2d3d50" d="M407 255.8l9.7-9.6 34.6-8.7 29 53" />
    <path fill="#3b361d" d="M71 65.8l49.5 37-19 1-67.3-19.3" />
    <path fill="#8b7550" d="M838 386.6l-17.3-9.8-40 12.5 20.8 18.5" />
    <path fill="#537fa8" d="M352 655.4l-31.6-42.6L299 713l83-32" />
    <path fill="#584b1a" d="M89.6 229.5l85.8-49.2-86.6 31 162.8-16.5" />
    <path fill="#26384c" d="M505 373.3l3-18 28 38.7 36.8-26.5" />
    <path fill="#128baf" d="M802.3 682L729 530.5l-36-.4 18.3 66" />
    <path fill="#84786b" d="M721.2 288l-41.4 71.4 53.7-27.2-18.3-92.8" />
    <path fill="#3270ac" d="M291.7 547.6l38 84.2-6-45.6-23.2-58.8" />
    <path fill="#f2f3ed" d="M1030.5 491.3L1017 485l-62.6-12.3 61.4 18.3" />
    <path fill="#0c101c" d="M368 451l-11.8 9.3-2.7-43.6-40.6-12" />
    <path fill="#495e70" d="M271.2 448l33.7-28-57 3 31 2.6" />
    <path fill="#112a35" d="M-6.8 47.4l50-14.3L-31 6l43.8 1" />
    <path fill="#b5b3a3" d="M765 281l13.3-6.5 38.8 21.2 65 8.8" />
    <path fill="#bca598" d="M164.2 662.6l-1.5 24.8 6.2-11.8-34-5.8" />
    <path fill="#3fa0d9" d="M437 409.5l13.6 9.8-23 15-41.7 18" />
    <path fill="#6d737a" d="M743.8 398l42.7-11.4-71.8 37-24-21.4" />
    <path fill="#090802" d="M153.8 305.6l-44.4 23 19.7 131L150 336" />
    <path fill="#6a8c97" d="M301.5 272l-10-16.3-24-3 17 22" />
    <path fill="#535d5d" d="M235.8 529l-23.8 1.7-4.5 15.4 39.2 22" />
    <path fill="#1489c1" d="M479.3 554.4l9.3 37.4 70 24.6-86.4-100.8" />
    <path fill="#686c68" d="M183.7 667.3L223 713l29-102 15.3 102" />
    <path fill="#1f5e9e" d="M641.3 455.7l7.2-26-4.4 62.7-83-37.2" />
    <path fill="#62707b" d="M620 310.3l-35.2 8.8 82.5-32-38.7 78" />
    <path fill="#eceae1" d="M856 553l-23.7-2.6-20-.7 41.8 11.5" />
    <path fill="#42321b" d="M199.8 285.8L220 293l-5-18.5-28.4-27.3" />
    <path fill="#aa8d6c" d="M170.7 512.3l17.7-34.3-18.6-4.6 34 48.7" />
    <path fill="#a5cce0" d="M375 267.7L299.6 281l3-22.4 10.8 9.3" />
    <path fill="#fff" d="M865.6-.7l165.3-.7 24 125.3-451-19" />
    <path fill="#79a9c0" d="M854.8 514.8L840.5 554l-12.7-40.4 10.5-54.4" />
    <path fill="#b3a47d" d="M853.4 289.5l-36.5 2.7-40 10.3 51-21.5" />
    <path fill="#dec982" d="M224.6 392.2l.4 17.4-18-32.4 9 9.2" />
    <path fill="#96773d" d="M262.5 345l6.5-31.8 22.4-22.4-34 51.6" />
    <path fill="#069cbc" d="M594.8 627l-176.3 29.7 56.6-14.3L689 713" />
    <path fill="#cba95b" d="M195.4 381l-19.5-8.2 27-26.5-26-8" />
    <path fill="#04579b" d="M423.6 429.8l-37.4 38-81-43.5L456 502.8" />
    <path fill="#101202" d="M220 370l-15-23.5 21.7 50-9-9.3" />
    <path fill="#5e707b" d="M295 524.8l-40.8-19 66.6-13.8-60-6.6" />
    <path fill="#858f90" d="M984.5 551.8l-6-10 1.7-6.2 20 6.3" />
    <path fill="#14100c" d="M124.8 440.8l57 5.7L108 460l68.6-179" />
    <path fill="#5b8ebd" d="M603.4 317.8l-24.6 25.4 1.2-16 9.6-3" />
    <path fill="#dfd1a4" d="M153.8 425.6l41 22L177 477l11.4-27.3" />
    <path fill="#1a97b8" d="M657.7 628.7L824.5 649l-94.8-36L900 583" />
    <path fill="#c0d2da" d="M869.8 478l-11.5-69.8 113 45.8L850 467" />
    <path fill="#9da9af" d="M151 464.6l4.6 16.5 8.4 22 2-21" />
    <path fill="#100d03" d="M134 129.6L109.5 170l65 17.3-128.3-79.6" />
    <path fill="#274f81" d="M293.6 518.6l42-32 5 16-41.6 30" />
    <path fill="#38505f" d="M-29.5 95L11 93l.7 25L-31 46.2" />
    <path fill="#def0fa" d="M146.7 91l115.6-76.2L86 36.2l30.6-18.6" />
    <path fill="#151b21" d="M8 524.4l-39 11.2 61.6-10.3 19.6-7.2" />
    <path fill="#4c4636" d="M28 351.3l19-22.8-20-11L51.7 363" />
    <path fill="#077f9f" d="M830.4 684.4l-64.7-36-29-7L790 646" />
    <path fill="#d8c381" d="M157.7 419.2L163 403l-7.8-14 29-1.6" />
    <path fill="#edebdd" d="M972.7 555.2l-73.3-24.6 65.2 36.6-60.5-8.5" />
    <path fill="#0f100a" d="M56.7 77.3l7.6 30.7-76 .7L118.7 124" />
    <path fill="#69819e" d="M602 400l50.2-18-13 19.5-23.3-24" />
    <path fill="#80671c" d="M238 275l-.2 11.7-14.8-5.3-43.4-56.4" />
    <path fill="#282521" d="M390 281l-74 83-69.6-8.7 76 1.5" />
    <path fill="#e4eaed" d="M743.8 211l147 18.7-127.6 27 24.3 5" />
    <path fill="#68540a" d="M85 189.7l4.3-21.7 25.6-10.4 8-2.6" />
    <path fill="#4d719c" d="M542 353.6l-62.4-47L532 319l-21.8 48.5" />
    <path fill="#5aabda" d="M437.5 407.8l-28.6 32-37-3.5 2 10" />
    <path fill="#515358" d="M690.6 381l5.7 16.2-38-80.2 14-38.5" />
    <path fill="#e1ded4" d="M967.5 585.7l79.7-3.3-93.4 6 101.2 29" />
    <path fill="#e3f4fd" d="M96.3-5.2L84 20.4l46.4-9L42.6 3" />
    <path fill="#404951" d="M71.3 609.4l-4.5 27.8 19.3 13-25-22" />
    <path fill="#f1f7fe" d="M588.7 24L323.2 13.7 303 64.4 455 115" />
    <path fill="#3d2c0b" d="M86.2 245l-18.7-5 132.7 9.3L77.6 255" />
    <path fill="#2c221f" d="M239.4 308.6l4.5-19 22 22-9 5.5" />
    <path fill="#5187b2" d="M566.7 382.8L579 380l7.5-18.7-7-21.3" />
    <path fill="#bfddf1" d="M425 172.5L339 121l-161.2-.6 26.8-1.7" />
    <path fill="#ae8246" d="M235.2 326.6l10-14.3-19-4.3 9.7-7.8" />
    <path fill="#959d99" d="M853 448.6L820.7 427l55.6 9.2-26.5-25" />
    <path fill="#775e18" d="M169 196.6l-38 38 48 2-47.4-23.6" />
    <path fill="#618792" d="M830.2 472l28-17-52.3-8.4-11 30" />
    <path fill="#76a4b8" d="M946.2 525l-57.7 4-96-42 69.4 33.7" />
    <path fill="#579bb6" d="M988.7 656.4l-166.5-.5-30-10 183-4" />
    <path fill="#b49261" d="M323.2 366.3l-1.5-11.8 6.2-1.6v21" />
    <path fill="#cbe1e8" d="M399.5 678.7l45 19.8 6-34.6 19.4 23" />
    <path fill="#564d3e" d="M783.8 402l-10.3-9-9.6 38 40-13.2" />
    <path fill="#3e4f61" d="M258 394l-6.2-22.3-10 7.6 173.4 41.5" />
    <path fill="#8893a5" d="M718 363.4l-35 29 31.7-50 15.7 54" />
    <path fill="#365b84" d="M81 661l10.8 52h-20 .3" />
    <path fill="#b3ad98" d="M155.6 501.5l-3-5.4 7.4 22 9.3-67" />
    <path fill="#39424c" d="M661 387l4.7 41.3-64.6-25 99 1.7" />
    <path fill="#b8a086" d="M205.5 632.4l11.4 24.8 28 17.8-78-75" />
    <path fill="#544813" d="M215.2 301l19.5 15.2-2 22.6-14.2-26.8" />
    <path fill="#7496a8" d="M114.5 39.6L96.8 44 109 28.6l44 94.3" />
    <path fill="#494c4d" d="M318.7 357.8l-45.3 17 4.4-13L337 393" />
    <path fill="#151619" d="M347 390.6l28.8-81.5-69.2 21 80.5-3" />
    <path fill="#625645" d="M237.5 224.5l-1 26.8 70.2 67-91.4-83.2" />
    <path fill="#7c6c4f" d="M153.2 421l-.8 9.7 24-7 18.4 15" />
    <path fill="#0579bf" d="M387.6 512.8l-24-67 51.7 77.3-39.2 60" />
    <path fill="#494649" d="M48.4 67.4L57 97l5-3-6.8-28.8" />
    <path fill="#414443" d="M214.4 475l33 13.8 30-29.6 27.8 32.5" />
    <path fill="#935a37" d="M204.3 572L186 587.5l5.3.5-2-19.3" />
    <path fill="#99b7c8" d="M984 489l-6.6 8-11-2.3-39.5-11" />
    <path fill="#394f61" d="M593 363.6l31.3-26.6-4 5.7-29.8 49.2" />
    <path fill="#3a77be" d="M578.3 431.3l-29.7 3 9.2-18.4-2.5 26" />
    <path fill="#88a0b9" d="M810.3 415.7l-6.8-2.2-3-6 41.2-8.2" />
    <path fill="#d3d6d9" d="M730.3 279.7l8.2 6.3 2.7 3.8 6.7-8.5" />
    <path fill="#151818" d="M485.8 393.6L597.5 411 478 406.4l-21.6-33.6" />
    <path fill="#bfd5e0" d="M239.5 246.3l17.7-22.8 6 44.2-24.7-39" />
    <path fill="#cadeea" d="M649 273.3l7.3 22.3-34-12.5-78.6-47" />
    <path fill="#607482" d="M77.5 559.3l-46.6-5 22-27.7 59 16.7" />
    <path fill="#a6d0e8" d="M214.4 132l62 22.3L213 141l35.3-14.4" />
    <path fill="#0275ac" d="M465.3 637.8l32 5.5-11-36.8-71.3 37.7" />
    <path fill="#faffff" d="M34 10.3l79.5-12L-31-31H9.3" />
    <path fill="#0e0f00" d="M77.4 187.8L40.7 149l48-8-46.3 65.4" />
    <path fill="#5c7fa8" d="M488.4 346.6l4.2-8.6 93.2 4.4-71.6-10" />
    <path fill="#717167" d="M791.8 457.3l13.5-35.4 39-18 8 22" />
    <path fill="#26313e" d="M335 427.7l-74.8-39.4 61 42.5 16.8 19.5" />
    <path fill="#dfe2de" d="M1055 507.6l-69.8.2 52 26-106-42.5" />
    <path fill="#393009" d="M71 198.3l88.6 7.2-46.8 11 14.7-30.5" />
    <path fill="#1c1700" d="M248.8 370.7l-8.5-36.4 10.8 5.3-16 30.6" />
    <path fill="#55583d" d="M202.2 138.2l9.4 4.3 17.8 51.2-12-3" />
    <path fill="#594f27" d="M238 163.7l-50.6 14.5 14.5 73-24-16" />
    <path fill="#79736d" d="M189 579l3.4 16-3.5 14.6-10-5" />
    <path fill="#212728" d="M202.5 485.3l65-60.8 2.5 8.5-60.5 36.2" />
    <path fill="#6bacd9" d="M615.6 432.3l14.4 10-26-.7-3 7" />
    <path fill="#dff1f9" d="M393.7 109.2L215 114l-63.4-50 235.2 45" />
    <path fill="#0f6eb1" d="M564.7 553.7l-15-40 52.4 90.5-108-58" />
    <path fill="#bfa76d" d="M272.4 355.6L261.8 338l1.7-6 3.2 23" />
    <path fill="#947e5a" d="M205 399l-2-9.3-13.2 32.7-3.6-18" />
    <path fill="#352d15" d="M224.8 433.2l-4.4-24.5-5.4-18.5 8.4 98.7" />
    <path fill="#3ba8de" d="M372.3 525.6l.7 43.8 10.6 32.2 10-13" />
    <path fill="#cd9855" d="M213 638l-19.3 10-45.7 65 49.6-82" />
    <path fill="#857b72" d="M880 399.4l-6 15-34.8-44.3 14 38" />
    <path fill="#2e1d0a" d="M105.7 295l-32.2 31.7 92.2-12-1.4 23.2" />
    <path fill="#be9d51" d="M224.4 420l2-1.5-.7-43 8.6-4" />
    <path fill="#517baa" d="M468.8 366l10.5-2.4-18-11.5H473" />
    <path fill="#57a5e4" d="M557 434l18-.3 14.7 8.3.2 1.6" />
    <path fill="#0c0c0b" d="M325.5 313.7l18 16.3-15.8 32 26.7 6.4" />
    <path fill="#91a9ad" d="M785.3 594.4l-13.5-.2 18-28-38.5-5.3" />
    <path fill="#9a866b" d="M169.6 551.7l23.3-3 40-55-11 36.7" />
    <path fill="#293849" d="M600.4 417.5L616 387l2.8 35.3-9 17.2" />
    <path fill="#c4ddec" d="M436 176l60 63.2-92.6-2.6 143-36.4" />
    <path fill="#46759e" d="M423.2 379.6l-7.6 3.5-9 16 58.8-13" />
    <path fill="#a58a4d" d="M275.5 288.2l9.7 12.7.4 25-6.4-8" />
    <path fill="#b6b7af" d="M226 409l-11-31.3 14.6 60.4 5 4" />
    <path fill="#5f492d" d="M216.7 397.7l-86-90.7 72.2 74.4v20" />
    <path fill="#031328" d="M361 491l6-3.8 11.4-9-27.3-1" />
    <path fill="#e5dbb4" d="M206.8 408.4l-13.4.2 19.5 11-7 11.7" />
    <path fill="#5078a0" d="M334.3 408.5l36.5.5 20.7-5.7-14-17" />
    <path fill="#e2ca75" d="M171.8 391.6L157 373l15 66.5-8.3-20.3" />
    <path fill="#72624b" d="M299.4 334.2l6 18.5-14-1 2-4.3" />
    <path fill="#133b54" d="M725 493.3l-26.6 9.6 78.6-49-148-1" />
    <path fill="#3c351d" d="M233.8 418.4l34.4-15.2-36.8 22-19.7-74.2" />
    <path fill="#a38268" d="M189.4 500.7l-9.8 11.7L199 503l-55.6 72.5" />
    <path fill="#8b5127" d="M175.4 563.5l-1.6 6.6 8-67-2 63" />
    <path fill="#4b6785" d="M409.5 429L340 379.7l21.5-7.3L334 368" />
    <path fill="#79c6eb" d="M370.5 534.4l3.8 2.6-19.7-7 22 43.4" />
    <path fill="#746b59" d="M724.6 276.7l6.5 71.6 23-73 5 40.8" />
    <path fill="#293138" d="M445.6 252.8l26.5 38-45 34.6-16-68.4" />
    <path fill="#15211d" d="M127.5 106l56.5-3.6-56.5 25.3-3.7 42" />
    <path fill="#9ca3a0" d="M748 245l35.7 2.8-28.5 12.2-1.5-27.3" />
    <path fill="#83bae7" d="M885 572.6l-1 9-14-15.6-17.2 6" />
    <path fill="#3e3c37" d="M770.3 416l25.2 25-72-32.8 8.3 21" />
    <path fill="#24272c" d="M697 441.3L659.2 394l3 31.3 23 13" />
    <path fill="#6cb2de" d="M331 510.2l3.3 69.8-15.8-53.6L325 515" />
    <path fill="#36516b" d="M559.2 375.6l-70.7-35 70.3 15-11-26.4" />
    <path fill="#bbc1ba" d="M773 540.8l-12.2 29 24.6-27.6h25.8" />
    <path fill="#5bb2db" d="M451 674l-17 2.5-23-29.7 17.2 3.7" />
    <path fill="#54290b" d="M167.6 544.3l4.2-22.6-65.5-7.6 54.5 8" />
    <path fill="#d1e0e8" d="M554.3 267.7l154.2 8.6-42-14.2 16.4 20" />
    <path fill="#4d6473" d="M33.6 45l14 5-15.2-13-5-67.8" />
    <path fill="#ccab6b" d="M214 254.6l-2.7-6.2 13.6-6.2v8" />
    <path fill="#2d2415" d="M166.4 202.7l31-12-31.2 36.2 22 13" />
    <path fill="#676863" d="M711.2 265.7l-28.6 6.5 27.6.4-39 94.2" />
    <path fill="#2b3e3c" d="M288.5 261l-26-7.8 3 15 13-7.2" />
    <path fill="#7b725a" d="M281.7 345.2L250 355.5l17.6 27.8-9.3-43.4" />
    <path fill="#427eb1" d="M450 402.3l5.4 1L466 410l2-10.3" />
    <path fill="#717660" d="M117.6 107.8L104 98.3l26-30.6-39.3 20.8" />
    <path fill="#ad9e88" d="M146.6 477.3l-4.2 5.7 65.6 41.8-60.6-37.2" />
    <path fill="#a6bac5" d="M970.6 472.8l13-3 71.4 8.2-38.7 2" />
    <path fill="#d7d8cf" d="M1014.2 628.6l40.2 11.7-19-34.8L1025 639" />
    <path fill="#d9d4c6" d="M1006.5 546.8l-36 7 84.5 53-49-49.3" />
    <path fill="#b4c7d3" d="M968 434.3l-23.6-5.8-15.3-15 61 18.7" />
    <path fill="#151915" d="M213.5 460.2l-10.8-12-3.3 6.3 70-.5" />
    <path fill="#f5f3f1" d="M1010.5 393l-5.3-193.3 49.8 226.5-106-38.4" />
  </g>
</svg>