<svg version="1.1" viewBox="0 0 1024 682" width="1024" height="682" xmlns="http://www.w3.org/2000/svg">
  <g fill-opacity=".5">
    <path fill="#b19052" d="M816.7 352l-37.6 4.4 23-28.8-16 7" />
    <path fill="#0c1b2f" d="M367.3 490.4l-1.7-12.5-11.3-8-4.4 9" />
    <path fill="#d0ad59" d="M188.8 351.4l-8 51.2-3.3-39 15 5.2" />
    <path fill="#cacdc6" d="M956.3 606.7l10-5.3 22.6 3-3 .6" />
    <path fill="#d4d4ce" d="M991.7 622l1.4 16.4 6 15-3-24.4" />
    <path fill="#a1bbc9" d="M999 501l-88.3-20 94 13 3.3 2" />
    <path fill="#252b30" d="M681.3 454.8l-11.6-3.8 39.3-7.8 31.3 6.8" />
    <path fill="#b99f75" d="M218.6 519.6l-17.2 20.2L222 526l-21.3-3" />
    <path fill="#cbaa7a" d="M213.6 652.5l-15.4-26 14.3 13.7 16.4 62.3" />
    <path fill="#2f3d45" d="M480 370l35.6-22.5-34.2 32.3-.5 26.6" />
    <path fill="#e6ddba" d="M228.4 409.3l-4.4-1.6-9.7-28.5 14 44" />
    <path fill="#6f6012" d="M97.8 211.8l3.8-4.3 26.6-8.8-22.8 12.8" />
    <path fill="#5e8fa0" d="M858 448.3L793.4 473l28.7 9.3 3-40.3" />
    <path fill="#52493c" d="M172.2 451.4L158.6 466l-17.8-9.6 8 10.3" />
    <path fill="#ac6933" d="M199.2 637.3l9 8.3-6.8-12.7-4.8 7" />
    <path fill="#1272b2" d="M536.3 428l19 .2 5.2-9.6-62 19.8" />
    <path fill="#060d0f" d="M575.6 395.4l2-7-34.8 25 34-8" />
    <path fill="#cce0ea" d="M324 241.2l-45.2 29.5 79-45.7 42.4 12.6" />
    <path fill="#2f4758" d="M567.8 374.8l-29.3-18.2 22-13.5-24 21" />
    <path fill="#2e2920" d="M30 364l-14.5-3-9-21.6 10.7 2" />
    <path fill="#b0c0c2" d="M811.2 585L765 568l10-17.3-16 20.5" />
    <path fill="#95ceef" d="M336.3 631.8l56.6-17.4-48-4.7-4-47.4" />
    <path fill="#4e6983" d="M7.2 538.7L39.8 525 69 544.5l-33.6 17" />
    <path fill="#ad8f54" d="M287 314.2l-4.2-10.3-20 22-4.3-2" />
    <path fill="#55594f" d="M672 301.3l26.4 4.6-3.4-31-13.6 7" />
    <path fill="#5e6e7c" d="M647 350l-38.3-24.2L643 301l-17 3.7" />
    <path fill="#445d75" d="M581 320.8l-58 12-3 3.5 67.7-12" />
    <path fill="#60311c" d="M192.6 524l9.7 15.6-13-9.2 2.3 27.5" />
    <path fill="#b7c5cc" d="M992 477.8l63 8L946 448l25.5 2.7" />
    <path fill="#878d88" d="M746.8 254.6l8.5 42.3-7.3-34 35.3-15" />
    <path fill="#020d17" d="M17 43l24 8.8-20.8 6-.4 19.6" />
    <path fill="#85897e" d="M821 433.4l7.8 2.5 27.7-5-18.5-16" />
    <path fill="#e2e7e6" d="M1024.4 485l21.7-11.8-42 16.6-51-17" />
    <path fill="#0b80a7" d="M770.8 621.6l15.3-25-50 20 53-2.5" />
    <path fill="#282a29" d="M317 275l-6.3 6.4-17 69.4-1-56.3" />
    <path fill="#788290" d="M206.3 636.6l41 17.7-23.8-1 25.8-23.8" />
    <path fill="#6e92bb" d="M166.8 613L106 602.8l63.6-3-8.3 13" />
    <path fill="#4d6378" d="M485.7 358.5l11 1-3.8 21.3 7-2" />
    <path fill="#94cded" d="M349.3 502.6v-14l8.5 43.6-12-28.4" />
    <path fill="#b8a374" d="M728 267.7l-15.4 2.2-3-8h15.6" />
    <path fill="#0a81c4" d="M462 523l20.2-16 53.3 27.4-92 3.2" />
    <path fill="#5096b3" d="M866.5 659.5l8.2 13.2 5.6-16 16.2 8.6" />
    <path fill="#424440" d="M880 556.2l3.4-6.3 44.3 27-1.4-2" />
    <path fill="#6d9aaf" d="M954 664.5l33.6 18-42.8-24.8 45.3 4.6" />
    <path fill="#37373b" d="M239.4 428.3L234 415l-4.5 10.7 8.3 4" />
    <path fill="#16120c" d="M133.8 491.5l18.2-59.2-20.3 17 8.5 35.2" />
    <path fill="#26221e" d="M256.2 327l34.6 10-6.8-16.6-5.2 20" />
    <path fill="#8da7b3" d="M974.5 573.7l19.2 4.3 29 3.6-33.4-1" />
    <path fill="#b29356" d="M208 220.4l6.4 31.5-11.2-45 2.7 4" />
    <path fill="#161a1e" d="M299.7 322.8l4 16.2 44-48.4-7.3 22" />
    <path fill="#4e95d3" d="M573.8 434.7l-20.3-2.2 15 4.8 24.6 4.3" />
    <path fill="#1a2024" d="M537.3 414L516 387l-15.4-6.7 2.5 28.2" />
    <path fill="#61b4de" d="M392.3 625.5l34.3 33.3 16 24.5L411 631" />
    <path fill="#0588af" d="M654.6 600.6l83.7 16-7.5-44-13.5 21.3" />
    <path fill="#3795b2" d="M741 539.8l-34-8.8 9 1 17.5-7.6" />
    <path fill="#184a81" d="M341.3 484.6l28 6-42-1.4-2.5 12" />
    <path fill="#60442f" d="M210.5 558.4l-100-58.5 77.3 42 17.2 25" />
    <path fill="#091111" d="M56.5 60.5L34.2 62l4 13.7L18 76" />
    <path fill="#8e8178" d="M227 556l-32.2-8 15.4 8.4-43.5 13.7" />
    <path fill="#026ca8" d="M440.4 644.5l2 3-12-42.6 6 51" />
    <path fill="#dceff8" d="M96.7 3l39.5 65-20.5 3L161 6.4" />
    <path fill="#61635d" d="M236.5 673.2L208.7 713h104.5l-88-39.8" />
    <path fill="#18191b" d="M336.4 350.4l-26-13.3-24-20 2.4-16" />
    <path fill="#382f16" d="M223 411.2l-4.5-8.6 2.2-2.7.7 61" />
    <path fill="#95a5a3" d="M105.2 88.5l10-12.5-14.5 15.6L157 80.4" />
    <path fill="#675b4e" d="M277.2 302.2L273 304l7-23.3-10.8 4.8" />
    <path fill="#5c81ad" d="M500.5 342.2l-3.7-9 35 6.8-32.3-4.4" />
    <path fill="#dee1d8" d="M1055 614v44.6l-36.6-30 5 9" />
    <path fill="#867551" d="M186.8 398.6L191 415l.5-10.5-45.8-73.5" />
    <path fill="#0b3865" d="M685.7 457.6l-57.5-7.4 35.2 20 13 20.5" />
    <path fill="#73c6eb" d="M383.2 609.8l17.4-18.5-20 36.3 32.2-33.4" />
    <path fill="#697578" d="M99.6 576.6l11.5 20.8-46-10.2 20-11.7" />
    <path fill="#b3d4ea" d="M261.6 152.4L240 189.6l-20.5-4.3 95.3 8.2" />
    <path fill="#695e2f" d="M103.2 99.6V79l-13 6.5 9.5 14.7" />
    <path fill="#4ca4bc" d="M811.4 643.3L772 624l37 13.7 58 63" />
    <path fill="#535952" d="M278.4 368l-18-33.8L283 376l-5.6-41.2" />
    <path fill="#272a1c" d="M114 93l-26 11.6 40 18.2-25.5-14.4" />
    <path fill="#b99857" d="M199.2 399.7l-35.8-35L173 390l-4-18.5" />
    <path fill="#4b72a3" d="M932 594.5l-53-25.3 31 18-34-4.4" />
    <path fill="#533820" d="M183 543l1.3-3-21.6-6-52-35.7" />
    <path fill="#aa9a8b" d="M223.3 644.8l-4 30.2-2.4-22.2 33-13.4" />
    <path fill="#f4f2ee" d="M427 686.6l-4-6-5.4 32.4-1.8-44" />
    <path fill="#f2f3f2" d="M903 285l-58-19-54-5.2 66.3 23.5" />
    <path fill="#35577d" d="M464.2 347.4l19 .8-23 12.2L447 375" />
    <path fill="#b1bdba" d="M952.4 625.5l39.8-38.6-47.2 51 9.7 3" />
    <path fill="#52636f" d="M210.5 552.2l44.2 17.7 35.7-25-85.2-10" />
    <path fill="#665020" d="M202.7 281.4l17.6 19.2L228 237l-.3 51.3" />
    <path fill="#5a88b1" d="M608 316.6L578.2 328l18.2 13-6.6-14.6" />
    <path fill="#7793b4" d="M645.6 389.4L629 397l-4.5-3.4L614 382" />
    <path fill="#526d7c" d="M144.6 93.3l.4-10-30.7 23.2L144 90" />
    <path fill="#4d7aa5" d="M323.8 602.4l-10.7-9 4 61 28 1.5" />
    <path fill="#486478" d="M512.2 268.2l-8.5 9-16.7-3.8 17.2-8" />
    <path fill="#518ea8" d="M1010.4 673.7l-11.2 36-23.6-34.3 62.2 37.6" />
    <path fill="#544523" d="M175.8 242.5l40.4-12.6-35 22-7-4" />
    <path fill="#c7d3d7" d="M915.6 482.5l24.7.2-24 4.6-56-16.8" />
    <path fill="#d7cead" d="M183 412l7-3 16.3 1.6-8.2 1.3" />
    <path fill="#2c3648" d="M317.2 426l1-32.2 12 13.6-3.7-6.4" />
    <path fill="#6e6866" d="M715.3 311.7l-30 45.7 21.4-22.2-34.5-25.6" />
    <path fill="#3989ae" d="M881 650.2l24-.4-23.4-12.2 11.7 7" />
    <path fill="#87c0e6" d="M353.2 589.3l8.7 67.5 37 43.2-34-62.7" />
    <path fill="#2e475d" d="M487.3 317.7l-26 30.7-6.6-13.6 54.2-3.2" />
    <path fill="#345464" d="M31.8 22L21 5.4l14.8 6.8-18.4 33.3" />
    <path fill="#4e4b42" d="M57 87.4l-13.2-6.7L58.3 98l4.2-5.5" />
    <path fill="#d1bf98" d="M178.3 542.4l-6 3.7-69.6 10 1-8" />
    <path fill="#30a1bd" d="M780.3 664L761 653.6l6-19-8.4 5" />
    <path fill="#a07535" d="M216.7 334.6l-25.4-13.8-1 9.3 10.3-1" />
    <path fill="#e9edf1" d="M701.6 217l115 1-43.4 57 20.3-83.6" />
    <path fill="#5a798b" d="M37 43.3L55 0 29 67.5l4.7-2.3" />
    <path fill="#0376b2" d="M497.4 423.3L465 440.5l73.5 21 16-4.5" />
    <path fill="#3f474d" d="M855.5 558.8l22 3-18.2.8L865 551" />
    <path fill="#d3c294" d="M17.2 605L-31 572.4v110.8l41.8-71" />
    <path fill="#8b9196" d="M774 397.6L764 356l-26.2 3 50.2 19" />
    <path fill="#231d17" d="M75.5 415.2l34-8 48.7 81.3-37.2-53.3" />
    <path fill="#0e1312" d="M287.4 387.2L265.8 372l20 6.7 3.7 4" />
    <path fill="#54a1d6" d="M348 525.8l4-10-13.8-7.2-16 16.7" />
    <path fill="#ced7da" d="M1013.3 494.4l-110-1.3 33 7 17-4" />
    <path fill="#121302" d="M71.2 234.3l1.2-16.5 16-23.8-43 17.6" />
    <path fill="#4e687c" d="M13.8 128.8L-1 126l-27 12.3 61.6-23" />
    <path fill="#0c202d" d="M51.4 40.4l-40-19.7 5 4.4L61 55" />
    <path fill="#e5e6e4" d="M815.4 570.2l-18.7-.3 2-9 47.6 13" />
    <path fill="#151819" d="M290.3 340l1.3 20.7-33.3-1.3 19-3.8" />
    <path fill="#6a6a61" d="M238 232.6l-13.4-39.3 8.5 25.3-20-36" />
    <path fill="#905d36" d="M199 498.4l-7 82.6 7.7-89.4-25.7-.3" />
    <path fill="#080c09" d="M16.8 102.2L14 80.5l9.6 57.4-3-60" />
    <path fill="#9a9595" d="M162.4 600.3L130 585.5l16 11.3 42.2 15" />
    <path fill="#6b6259" d="M169.7 679.7L116 710l131.6-30.5-48.4 33.5" />
    <path fill="#9b8250" d="M178.6 434l-7.2-67.2L175 432l-25.6-.8" />
    <path fill="#8fc7ea" d="M419 639.5L387 661l78.8 52-124.3-76.5" />
    <path fill="#2f3f4c" d="M534.7 287.5l-.4 9.5-19.8-.6-1.8-2.8" />
    <path fill="#d9eefa" d="M81.3-.7l-8.8 34.5L68.7 17 26.3 6.3" />
    <path fill="#eff1f2" d="M994 219.5l-196 65L954.3 259 852 185" />
    <path fill="#060e0e" d="M-.7 65l-3.7 136.3-10-144.6 51 3.4" />
    <path fill="#fffffe" d="M534.6 4.3L427.8 9l-189-10h91.8" />
    <path fill="#668287" d="M115.4 70.5L80 36.5l44 1.2-38 4" />
    <path fill="#12120a" d="M104.4 153l26.2-38.8 7 10.6-33 30.7" />
    <path fill="#aaa6a4" d="M355.4 393.3l-7 4.3-10-17.3-8.3 2.6" />
    <path fill="#485d70" d="M272.7 623.4L241 560l4 65 46.6 39.8" />
    <path fill="#afc0c5" d="M978 507l47.7 10.7-37.7-13-218 45" />
    <path fill="#e6d082" d="M159 410.7l4.5 11.5-2.4-27.7 6 10" />
    <path fill="#d6ecf8" d="M318.5 113l-26.7 1.6-75-26.4-20.6 22.4" />
    <path fill="#1b86c5" d="M640.8 495.7l-83.5-29 12 42 37-18" />
    <path fill="#223749" d="M336 451l-6-17 21.4 2-34 39.4" />
    <path fill="#4d8aa0" d="M845.7 517.7L723.5 448l137 78.2 25 6.6" />
    <path fill="#7a9fc2" d="M531.5 308l8 2.2-25 14.3 9.6-14" />
    <path fill="#f0f1f0" d="M966 362.8l3.5-4.4-118-45.5 49.2 27" />
    <path fill="#02599f" d="M456.2 449.8l-85 27-2.5 3 62.8-10.2" />
    <path fill="#e7eced" d="M936.6 278.8l-44.3-6.4 24.6 32 60 30.2" />
    <path fill="#acbcc5" d="M921 516l17.7 19.8-33.6-8.3 38-17.5" />
    <path fill="#a29378" d="M831.5 345.2l-25 36.5-17.3-19.7 53 1.2" />
    <path fill="#43484c" d="M317 367.3l3 7.6-7.5 6 26 9" />
    <path fill="#0f0f07" d="M109.4 170.7L145 177l23-22.7-34.6-2.3" />
    <path fill="#82858e" d="M215.6 587.3l-22.8 7.5 2.8 18 26-27.8" />
    <path fill="#65767e" d="M277 507.6l-43 36.2 8.2.7 50.6-5.3" />
    <path fill="#59a7c1" d="M866.8 679.5l39 33.5-58.8-32.2-12 32.2" />
    <path fill="#b3cbd6" d="M985 477.5l-43.7-3.2 16.8-13-25 .4" />
    <path fill="#69560f" d="M120.8 156.7l-34.6 29.5-.4 11 5.3-26" />
    <path fill="#6a4c2b" d="M161 301.6l14.5-1.8-49.8-9.6L166 301" />
    <path fill="#6f807d" d="M808.7 433.6l1.3 13 7.8-1.7 30.6-6" />
    <path fill="#5b604e" d="M62 95.5l-2.4-.3 77-27.2-22.2 10.6" />
    <path fill="#c6cfd0" d="M890 514.6l16.8-10.2L916 536l3.3-17.5" />
    <path fill="#256ba6" d="M444.2 417.7L447 403l-11.3 18 38.8-13.5" />
    <path fill="#3a5f67" d="M88.6 43.3l18 .5-44.4-18.3L44.4 23" />
    <path fill="#85a1b3" d="M908.4 511.3l17-18-19 20 24.8 4.8" />
    <path fill="#466584" d="M550 374.5L515 356l27 16-25.6-34.5" />
    <path fill="#a07855" d="M259 295.2l-.3 9.4L273 308l-2.2-.3" />
    <path fill="#aa6d44" d="M185.5 582.4l10.8-3.4 15.2-19.6 3.6 2.2" />
    <path fill="#3b3321" d="M96 492l55.6 27.5L123 526l31.4-18.4" />
    <path fill="#42422f" d="M108 71.6l-17.8-2 23.5 12-62.3-.4" />
    <path fill="#86a8bb" d="M857.3 580.5l36 45.2-5-7.2 24.4 43" />
    <path fill="#d6caad" d="M170.3 710.6l-48 2.4 47.7-38.8-29.2 38.8" />
    <path fill="#7896b4" d="M852 407l-20-4 16 10.7 7.8 3.5" />
    <path fill="#4b3505" d="M204.4 338l1 7.5 15.5-19.8-10 9.4" />
    <path fill="#687783" d="M543.4 316.2l-8-20-21 10.2 101 13.8" />
    <path fill="#35455b" d="M431.2 240l29 3.5L404 260l-36 29.3" />
    <path fill="#544534" d="M117.2 500.8l55.6 15.4 2.3-5.5-32 3.7" />
    <path fill="#415f78" d="M554 308l46.2 53-21.4 23 26.2-8.6" />
    <path fill="#9cb3b7" d="M970 605.7l10.3 36.4 3.3 5-11.2-48" />
    <path fill="#b9b6a5" d="M710.6 261.2l55.2 1.6-54.2-6.3 7.8-11.5" />
    <path fill="#7d7f74" d="M778 319l-28.6-80 3.8 66-2.6-68.3" />
    <path fill="#1a1006" d="M128 293.6l22.8 4.7 5.8 66-27.8-68" />
    <path fill="#564f40" d="M227.8 404.8l27 22.2 3.5-5-5 18.8" />
    <path fill="#e1ebf1" d="M465.2 241l4.6 1.7-2.5 10.6 53.4-4" />
    <path fill="#b8bfb8" d="M993 640.8l15.6 27.4-17.8-4.5 14.5-7.2" />
    <path fill="#363331" d="M676.8 437.6l76.4-20.2 10.5 3-59.4 18.4" />
    <path fill="#8ca0b7" d="M693 383l2.8-12.7L717 346l2.8.6" />
    <path fill="#c8b667" d="M-31 667.3l44-24.5-8.5-11.3 26 14.7" />
    <path fill="#8a603f" d="M234 306l3.3 7 25.3 16.6-11.8-12.7" />
    <path fill="#739ead" d="M980.3 627.7l61-6.7h-65.7l-10.8-2" />
    <path fill="#565943" d="M118 114l15 6-46.5-43.2 11.8 2.6" />
    <path fill="#a5c0ce" d="M941.2 478.5l1.3-2.4 35.5 18-56-19" />
    <path fill="#e6e6d7" d="M940.3 566.2l42.7-.4-59.6-9.4L937 562" />
    <path fill="#accbd9" d="M110 31L95 57.8l53-70-43.5 57" />
    <path fill="#5d451d" d="M224.7 272.4l7 35-13.7-31.7-65.3 29.5" />
    <path fill="#7d8890" d="M145.8 564.3l.4-14-7.5 6.8-55 25" />
    <path fill="#d6d9d4" d="M969.2 574l85.8 37.6-110.3-51.3L943 550" />
    <path fill="#a48f63" d="M262.5 346l-9.5-9 17.5 10.4-2.4 7.2" />
    <path fill="#2d260a" d="M99.7 215.3l63.3-15-63.6 19-55.8 37.2" />
    <path fill="#0f82ac" d="M733.7 549.3l-61 12.5 30-35.8 41 60.7" />
    <path fill="#78a5cc" d="M814.4 583.8l85 1.2-17-13.7 2.5 16" />
    <path fill="#4d5c68" d="M304.2 429.4l-41.3 5.4 33-14.2-48-2" />
    <path fill="#3b3c35" d="M257.6 422.6L235 454.2l16.2-8.6H244" />
    <path fill="#010201" d="M10.3 115.8L52.5 168 12 298l14.3-152.5" />
    <path fill="#0f5084" d="M678 513.4l24 3.3 13.7.7L679 508" />
    <path fill="#e9e5da" d="M210.8 510l-3.4 6.7-4-26-3.4-2.7" />
    <path fill="#eff3f1" d="M901.2 400l-13.5-1-21.3-.4 20.2-8.4" />
    <path fill="#52483b" d="M215.3 233l19 3.7 17 52.8-8-37.5" />
    <path fill="#4c504a" d="M671 309.2l-24.6-3.3 28-13 39.6-1" />
    <path fill="#e3e8e7" d="M942.5 430.5l-64-21.2 77 29.6 40 3" />
    <path fill="#0089a7" d="M685 632.4l76 33.7 60.8-8-42.4 10" />
    <path fill="#586a7f" d="M459.6 316l-8.6 17 6.4-2-16.4 2.2" />
    <path fill="#516d8b" d="M365 412.5l-47.5-27.8 32.4 13-29-13" />
    <path fill="#191d1d" d="M303.8 477.6l16.3-31-40-7 20 19.7" />
    <path fill="#808479" d="M316 279l-16.3.5.7 7.5 10.5-11" />
    <path fill="#507eb2" d="M876.5 570l-11.3 4.8 31.4 11-21.6-2.2" />
    <path fill="#5b86b0" d="M337.6 667.8l14.2-4.8-47-3 22 31.7" />
    <path fill="#2f3f4f" d="M548.4 362.6l-8 5.7 28.7 4-47-12" />
    <path fill="#3695cf" d="M634 444.5l45.8-1.3-17 2.8-13.4-7" />
    <path fill="#505451" d="M68.3 527l13-4 24.4-5.2 35.8 16" />
    <path fill="#0499ba" d="M708.7 658l-102 2.6-2.6 17-64-24" />
    <path fill="#d6dee6" d="M900.8 335l40 6.8 35.5-4.3-35.2-2" />
    <path fill="#758a8d" d="M103 78.8l36.8-1-17.5 3.5L115 72" />
    <path fill="#4f698f" d="M744.3 430.3l-4.4-3.5-2 3.7-29 14.2" />
    <path fill="#89b2bf" d="M823.4 621L811 517l11.7 95.3 22 7" />
    <path fill="#1e1c18" d="M137.5 418.8l22-75.7L128 475l26-62.4" />
    <path fill="#3274ac" d="M453.7 420.3l-6-17.4 29.6-2-46.8 13" />
    <path fill="#6198ae" d="M876.7 468l-1.4 1h-24.7l-27.8-2" />
    <path fill="#5f87b4" d="M521 318l-6.8 6.7-2 18.3 9-8.5" />
    <path fill="#ddba75" d="M177.6 637l2.2 44-3 32 6.2-54.3" />
    <path fill="#88adbe" d="M904.4 523.3L884.8 509l-3 14.6-59.2-2.8" />
    <path fill="#23170b" d="M207 313.4l-27.7-9 8.5-22.2 17.7 21.5" />
    <path fill="#60b0dd" d="M347 552.5l-5-83.5 5.8 107.4 13.5 12.8" />
    <path fill="#6a7277" d="M644.4 334.7l7.2-21.6-15.2-24-18.6 10" />
    <path fill="#202834" d="M349 271l-15.8 39-19.6-22.5 43.7 14.6" />
    <path fill="#f1eee7" d="M1011 525.8l-11.4-14.3-10 25.4-4.2-17" />
    <path fill="#cfd5d4" d="M832.2 587.6h14.4L823 581l1-12" />
    <path fill="#819fa3" d="M1019 670.2l-35.4-30.5 27.2 29-16 2" />
    <path fill="#48637c" d="M510.6 294.3l12.8 30-26.2-27.5 19.8-39" />
    <path fill="#cbe2ed" d="M133 94.3L119-31l12.7 112.8 4.4 12.4" />
    <path fill="#dae9f2" d="M180.7 74l122.7-93.3L191 65.4 102.2 89" />
    <path fill="#e5d291" d="M180.7 408l.7 5 2.4 14.2 1.6-39.2" />
    <path fill="#150b08" d="M233 369l10.7-7.8-.5-1 2 14.3" />
    <path fill="#333833" d="M203 481.3l20.2-11.7-27-15.4 17 7.8" />
    <path fill="#85a4b2" d="M935.5 492.7L774 455l154.3 38.8-4-5.8" />
    <path fill="#679ba8" d="M1020.8 639.2h-7.3l41.5 42.2V625" />
    <path fill="#a7bdc3" d="M932.4 656.3l34.4 10.2 11.6-2 27.2 17.6" />
    <path fill="#a6a99e" d="M775.8 261.6l18.4 3.7 20.4 7-61.6-15" />
    <path fill="#44a3db" d="M370.8 461.6l18.6-19.8-13.3-8 6 2.3" />
    <path fill="#05122e" d="M341.7 431.2l25.8 27.2-3.2 1.7-27.8-36" />
    <path fill="#6495aa" d="M974.5 656l33.8 17.4-44.7-36 2.6-15.2" />
    <path fill="#979079" d="M246.6 397.5l4-11h2.5l2 16.7" />
    <path fill="#ced4d6" d="M896.2 384l39.3 33.6L867 373l59 5.8" />
    <path fill="#4f4c43" d="M122.2 455l-2.4 26.5 70.5-2.6-74.6 1" />
    <path fill="#3a4e68" d="M375.5 378.5l-15.3-8L340 368l41.7 16.8" />
    <path fill="#8ab1c0" d="M887 676.4l32.6 4-4.4 32.6 6.7-28.7" />
    <path fill="#608cb8" d="M167.3 664l-91.8-25 29-25.4L92.2 657" />
    <path fill="#2c3838" d="M115.2 136L140 99.4l21.2-13-30.8 26" />
    <path fill="#605f52" d="M701 307.3L686.6 297l44.8-15.4L711 274" />
    <path fill="#8a856d" d="M779 278.8l5.2 23-20-10.7-25.7 7" />
    <path fill="#535d67" d="M674.7 405v-25l-50.6.2 46 1.5" />
    <path fill="#f1e9c0" d="M189.8 446.6l-4.4 10.7-2.3 8.8 9-15" />
    <path fill="#445154" d="M-25.6 124.4L12.7 92h-3L-31 123.4" />
    <path fill="#ccb271" d="M183.3 466l17.3-8-5-8.2-3 11" />
    <path fill="#796842" d="M176.6 432.5l-4.7-29.2-29 35 29-29.6" />
    <path fill="#141107" d="M293.8 465.7l-8-3.6H255l59-15" />
    <path fill="#80705f" d="M166 493l11 23 12.3-2.7L191 526" />
    <path fill="#a49a85" d="M323.5 369.7l9.8-4-2.7 7.3-4.5.6" />
    <path fill="#89a3b7" d="M856.8 595.3l4-22-12.4 16.7-24.7 3.2" />
    <path fill="#8da8bc" d="M805 574.2l.6 5.7 24 4-10.4-12" />
    <path fill="#5284b3" d="M564.5 386.3l11.7-18.3-11.3 11 19-6" />
    <path fill="#1b65a1" d="M308.2 572.2l16.4-22.7-9.3-19.7 6.8 5" />
    <path fill="#856d1b" d="M193.7 241.2l7.3 1.5 31 43.8-18-19.8" />
    <path fill="#ae9153" d="M803.3 324.4l14.8-21 19 34-36-30.6" />
    <path fill="#daddd7" d="M948.4 563.6l-24-32.5 57.5 7-55 2" />
    <path fill="#5a9eb9" d="M854.3 494.3l-57.5 7.8 47.2-25-17.4 11" />
    <path fill="#395063" d="M383 423l8.3-24 63.5 3.5-90.3 10.4" />
    <path fill="#201e1b" d="M267.6 324l-10 6.7 27-9.8 8.8 41" />
    <path fill="#93bddf" d="M354.3 516.6l-10.2-32v23.7l9 9.8" />
    <path fill="#0c84c7" d="M552.5 463.2l20.3 11.5-63.4 6.7-6.8-27.3" />
    <path fill="#1487c8" d="M407.3 563l-47 11 43.4-14.3-25.3-5" />
    <path fill="#13120c" d="M219.5 405.6l-5.5 52-2.5 5 11.7 6.3" />
    <path fill="#5c99af" d="M776.5 563.3v49.3l1.7-44L750 549" />
    <path fill="#48739e" d="M487.6 311.3L470 334l15.8-15 7.8-9.7" />
    <path fill="#047dbd" d="M482.6 628.6l-11.4-32-61.2 5 2.5-4.6" />
    <path fill="#080a09" d="M355 428.8l-25.4-3.6-.8-8 21.5 3.3" />
    <path fill="#c8d9e4" d="M831 575l42-5-28-4.2 3 5.3" />
    <path fill="#151201" d="M14.2 185.3l42.4-12 43.7-8.5-8.3-2.5" />
    <path fill="#e5e4db" d="M1038.3 620.8l-10.6-49.7-64.3-24 52 16" />
    <path fill="#d8be81" d="M187.8 392.6l9.2-2.5-5-15-6.6 36" />
    <path fill="#168dc4" d="M524 608.8l-33.4-19.5 16-1.4 35.5 6" />
    <path fill="#171d1e" d="M253 441.4l12-12.5-6.8-15-2.2 40" />
    <path fill="#4f5759" d="M545 303.2l16.3-19 4 .3-36.4-3.2" />
    <path fill="#211a0a" d="M50.5 495.5l11 21L82 404.7l23.5 84" />
    <path fill="#3b6993" d="M298.2 495.4l3-6.7 20.4 1.3-5.8 1.6" />
    <path fill="#a6a08c" d="M142 482.4l5 4.2 56.2-22-37.5 16.3" />
    <path fill="#2f2316" d="M86.3 319.4l3.8-3 8 32.8-8 1.8" />
    <path fill="#374852" d="M146 107.6l-5.7-21 22.4 23.4L135 86" />
    <path fill="#e6e6e0" d="M1015.2 502l-42.5 9 24.5-8.7 16 9.6" />
    <path fill="#0981a6" d="M782.3 626.3l13 14.5-24 1.4 23 13" />
    <path fill="#1f88c6" d="M597.5 551.6L608 550l-73.6-3.7 51.4 8.6" />
    <path fill="#83c5c5" d="M478.5 673.5L443 660.7l-7.6 14.5 15.3-18.2" />
    <path fill="#c8cfd4" d="M1008 413.5l-69.6 9.5 66-20-60.7-9.3" />
    <path fill="#657479" d="M277 661.2l-22-24.4 1.5 22.2-.7 47" />
    <path fill="#1a0f00" d="M115 308l-61.4-32 42 35.5-.8 17.7" />
    <path fill="#b2d4ea" d="M246.3 162l50.4 40.2-75-1.8 31.7-4.5" />
    <path fill="#e3e5e4" d="M962 403.3l79.7-22.8-70 27.5 39 2" />
    <path fill="#0b1819" d="M65.7 51.4L19 50l32 14.3L47.7 45" />
    <path fill="#253947" d="M30.3 37l-18.6-8 8 4 8.6-10" />
    <path fill="#b0d0ca" d="M461 678.5l12.7-17.7 3.8 16.8-9-12" />
    <path fill="#065e98" d="M479.7 420.7l49 4.6 37 27.3-41-20" />
    <path fill="#9eb7c1" d="M936 656l-10.7-44-2.5 36.4-8.2-24.3" />
    <path fill="#96867a" d="M181.4 562l3-23 4 49.2-2-58" />
    <path fill="#536364" d="M255.3 395.3l14-4.8-4-11-11 35.2" />
    <path fill="#614b31" d="M169.7 385l10-2.8-6.8-1.3 1-40" />
    <path fill="#4ca7bd" d="M842 671v4.5l-46.5-1.3 56 5" />
    <path fill="#594e30" d="M276 306l-28-43.5 28.5 51 8.2-4.4" />
    <path fill="#e8eef0" d="M767 272.8l35-41.5 74.8 71-27.4-80.5" />
    <path fill="#084676" d="M690.7 493.3l-34.2.5 59 14.2-8 5" />
    <path fill="#65573a" d="M185.8 418.3l3.8-7L77.2 535l136.3-150.3" />
    <path fill="#e7e9e7" d="M848.3 585l-34.6-40.7 16.7 16.6 22 23" />
    <path fill="#1d1b11" d="M144 344l-6.6-19.5 39.3 36v-4.8" />
    <path fill="#1a130e" d="M126.4 384l-14.2 51 66.7 10.2-93-3.5" />
    <path fill="#a49b8f" d="M181.8 498.7l2.6 16.2 10-16-42.8-3" />
    <path fill="#08508c" d="M668.5 501.4l2 2.6-29-26.3L700 491" />
    <path fill="#191a1b" d="M348 342.2l65-9.5-24.8 16.2 23.5-51" />
    <path fill="#677796" d="M-21 713l187.4-35.4-15-3.7-19.4 26" />
    <path fill="#3f3f37" d="M91.2 507l66.5 33.6-3.7-4.8 4 6.7" />
    <path fill="#529aba" d="M920.6 653.2L825.4 670 953 654l-5.2 5" />
    <path fill="#386189" d="M31.8 568.6l-62.8 25v-89.2" />
    <path fill="#c0c8c6" d="M992 610.3l-32 5 38.5 3-29.7-8" />
    <path fill="#d9d7cc" d="M983 592.3l-8.4 21.2 2-17 34 8.2" />
    <path fill="#5797af" d="M700.5 515l62.3 41 45.4 28.4-8-3" />
    <path fill="#a78f76" d="M183.2 532.5l15.5-55L196 508l-9.7 5.5" />
    <path fill="#415c76" d="M509.3 360l32-22.2-63 27 28-21.2" />
    <path fill="#0c0902" d="M126.4 390l-23-76 56.3 29.4-10.6 36.8" />
    <path fill="#453925" d="M63.2 481.3L44 493.5l-13 1 .8-.8" />
    <path fill="#198ac2" d="M519 583.5l-14-4.5v-3.4l56.8.5" />
    <path fill="#eaecea" d="M898.6 333L871 364.3l174.3 15.8-184-11" />
    <path fill="#0464a8" d="M443.8 546L425 556l65.4 10.6-46-17.8" />
    <path fill="#b6ccd7" d="M366.4 226l-83.8 39.2L391.2 223l-127 50" />
    <path fill="#55749a" d="M395.5 345.5l6.5-.4 1.3 11-7.4-6" />
    <path fill="#f2f7fc" d="M327 6.2l158.6 108 17.4-63-280.2-46" />
    <path fill="#272d30" d="M335 345.5l-75.3-93.3 44 61 56.8 38" />
    <path fill="#5c490f" d="M146.6 201.8l18 72.7-15 26.8 7.6-52" />
    <path fill="#99805c" d="M158 360l22-23 16.2 11.5-30-8.8" />
    <path fill="#322d23" d="M61.5 513.2l4.4-50.7v67l-32-21" />
    <path fill="#b18558" d="M177.5 518.2l-4-13.8-3.3 32 2.4 9.8" />
    <path fill="#2a323b" d="M625.4 420.7L571 410.2l72 18.7 82.7 3" />
    <path fill="#dac794" d="M151.7 545.6l.4-9.5-88 43 29-10" />
    <path fill="#8f7a55" d="M794 399.4l25.5-4.4 20-17-25.4-4.5" />
    <path fill="#aec3cd" d="M859.8 512.4l5.4-29.2 47.7-7-57 23.4" />
    <path fill="#c8ae83" d="M178.2 512.8l-.4-13.6 20.3-42-7 13" />
    <path fill="#b5c3bf" d="M993.7 643.2l-22-5.4 15 8.4L1055 631" />
    <path fill="#c6cecb" d="M1055 640.5l-28-3-24.7-11 5.8 1.2" />
    <path fill="#5b5b41" d="M227.5 132.6l-94-2.5 57.4 1-39 3" />
    <path fill="#8da7bf" d="M827.6 401.7l-11.2-5.7 6.2 11.8 23.3-2.6" />
    <path fill="#8997a3" d="M723.8 404.4l25.8-39.6-13 21.3-18.8-1" />
    <path fill="#283341" d="M284.4 391.7L300 417l8.8 7.3-8.7-24" />
    <path fill="#bda285" d="M182.8 619.5l10-7-7 1.4 18 6" />
    <path fill="#108ac5" d="M484.3 552.7l-35.7-5.8 15.8 8 87.6 11" />
    <path fill="#63747b" d="M77.7 536l-2.5 18.3 65.3-27.3-2 14" />
    <path fill="#88898f" d="M711.5 369.5l4-13.6 6.4-5 1 23" />
    <path fill="#b1d6eb" d="M223.5 142l31.3-13.7-36.8 21 149 .6" />
    <path fill="#12779f" d="M696 549.7l-3.7-27 44-.4-63.3 18.4" />
    <path fill="#00579b" d="M412.6 458.4l-19.8-7 63.5-18-53.5 32.3" />
    <path fill="#588ea4" d="M987.8 678.2l-27.3-12 72.7 46.8h-201" />
    <path fill="#d0b895" d="M184 573.3l-1.8 6.2-24-6L187 576" />
    <path fill="#0b2334" d="M73.6 38.3l-24 3-40-4.2 48.7-8" />
    <path fill="#108ac7" d="M410.8 638.3l47.3-23-44 15 70-40.7" />
    <path fill="#303337" d="M8 506l-20 61-19-27.7 62.6-28" />
    <path fill="#131207" d="M131 175.6l27.3-2.8-43.6 15.6 26.7-29.5" />
    <path fill="#c8d6dc" d="M898 472l-34.5-9.2 44.8 4 66-2" />
    <path fill="#5a5d5e" d="M880 566.2l1.8 4-6-14 32.7 6" />
    <path fill="#3997b1" d="M779 627l22.3 40-33-59 16.3 42.8" />
    <path fill="#2c2d20" d="M148.6 115.3l-2.4 37.2L221 137l-65.5-1" />
    <path fill="#adcbdc" d="M313.6 211l29.6 73-62-12 56-1.4" />
    <path fill="#546167" d="M621.4 318.6l1.6 33-1.4-43.7-27 8" />
    <path fill="#505658" d="M156.6 538.5L143 524.3l-17-1.7 30.4 20.6" />
    <path fill="#bc9c62" d="M253.3 363.2l.2 2.2.7 2 5.4-1.6" />
    <path fill="#647da6" d="M171 656l-1-1.4.3-5-24.5-9.4" />
    <path fill="#7f7466" d="M849.4 370.6l4.2 33.2 28.7-1.7-46.8-2" />
    <path fill="#b5ccdc" d="M457.3 250l58.7 7.6-14.7 6.6 1.2-4.6" />
    <path fill="#46a7da" d="M680 439.8l-16-4.8v12.7l11-12.6" />
    <path fill="#3785a5" d="M850.4 613.8l24.8-11.2-20.8 13.2L730 594" />
    <path fill="#6783a2" d="M913.8 574.7l-2 15.4-22 12 22.5 8" />
    <path fill="#20aebd" d="M505.3 679.5L489.5 651l87 27-37.7-15.5" />
    <path fill="#4d5455" d="M47 529.5l8.3-21.6 1.4 18 50.6 4" />
    <path fill="#5787af" d="M580 354.8l10.4 1.3-22 5 23.5 5" />
    <path fill="#0d0b01" d="M29 515l-4-90 27.8-8-22 78" />
    <path fill="#736a59" d="M747.5 284l30.6 35.6-60-10.5 10-7" />
    <path fill="#795e19" d="M170.6 215l-7.8 10.8-27 6.6 30-19.7" />
    <path fill="#2b3a2d" d="M8 34l-39 13.7 9 57.2L.3 8" />
    <path fill="#dfeff7" d="M222.2 66.6l-76 24-30.8-64.3L132.8 66" />
    <path fill="#101213" d="M268 334.4l2.5-4.5 27 27-28.8-22" />
    <path fill="#4b522a" d="M199.6 122.3l-23.2-9.8 40.6 52-40.8-36.7" />
    <path fill="#5f757a" d="M12.4 19.7l-4-5.8 4-3 9.3-8" />
    <path fill="#35536f" d="M474.7 328l-46.5 33.4-18.5 1.2 46-18.8" />
    <path fill="#f8e278" d="M169 416.7l-1 13.2-5.3-6 2.3-7" />
    <path fill="#928884" d="M212.3 554l-28-6 3.2 16-1-18" />
    <path fill="#1a2123" d="M469.7 388l16.8-33.8-17.7 45 34.5 10.8" />
    <path fill="#8b8170" d="M185.4 465.5l-25-9.4 10.6 2 14 14" />
    <path fill="#262106" d="M230.5 411.6L215 362.8l7.4 14.7-17.8-32.4" />
    <path fill="#3c2e19" d="M129.8 478.2l4 32 32.7 11-29.5-.5" />
    <path fill="#d7d3b8" d="M207.4 492.8l-22.7-18.2 18-1-8.8 4" />
    <path fill="#cfe2ef" d="M440.3 146.2l99 29.4-89.8 70.2 92.3-33" />
    <path fill="#3d3321" d="M134.4 384.5l19.8 4L152 377l5.3 4.3" />
    <path fill="#1187aa" d="M843 666.4l-41.4-11L858 676l2.4 22.2" />
    <path fill="#5b6360" d="M821.7 426.2L802.5 437l-13.6 4.3-13 22.5" />
    <path fill="#e2edf2" d="M576.3 236l-61.3-3.6-25-20.2 120.6 40" />
    <path fill="#798491" d="M747.8 402.4l-16.6-4L744 409l19.7-26" />
    <path fill="#809eb1" d="M936.2 632.3l5.5-35.7.7 31-14-2.6" />
    <path fill="#3f3421" d="M28 322.6l-1.6 15.2 9.5 25 16 1.6" />
    <path fill="#295062" d="M795.8 461.4l-68.7 5.8 15 3.5-9-13.3" />
    <path fill="#6d5316" d="M136.8 218.8l20.6-7 6.3-8.6-55.5 18" />
    <path fill="#f2f3ec" d="M972 562.6l6-13-25 .7-23-1.7" />
    <path fill="#2f3a3d" d="M259 411.2l5-32 1.3 20-6.6 28.6" />
    <path fill="#99948e" d="M175 609.2l-7.6-49 8.2 21.6.6 9.6" />
    <path fill="#283740" d="M443.3 339.2l4-46.7-1 49.6-33.6 23" />
    <path fill="#2e92b4" d="M752.8 543.3l2 1.7-4.3-16-21 61.8" />
    <path fill="#808d98" d="M235.5 448l5.2 37.7-12.3-63.3-10-38" />
    <path fill="#976d2e" d="M207.5 346.7l10 40L207 345l9.7-7" />
    <path fill="#5a7e9e" d="M581.8 374.2l-26.7 5 88-120.4-85 116.5" />
    <path fill="#e6edef" d="M723 264.3l7.6-47.5 184.8 52.4-200-40.6" />
    <path fill="#588fa8" d="M976.5 656.3l13.6 9-5-20-14 5" />
    <path fill="#a89a93" d="M143.6 663.8l16.5 11 20-1.5-53-2" />
    <path fill="#1c71ac" d="M422 419.5l25.6 25.3-20-21 21.7 3" />
    <path fill="#57513c" d="M952.2 570.5l-16-5-7.2 14.2 22.2-4.5" />
    <path fill="#98b4bc" d="M917.5 495.6l76 44-71.3-38.2 29.8-.2" />
    <path fill="#2bb2c1" d="M539.3 671l55 3.6-116.3-3.2 87 5" />
    <path fill="#c48b4c" d="M227 697l-23-63.7 13.6 45.4-16.6 8.6" />
    <path fill="#d9ba67" d="M195.2 362.2l-3-18.4-12 13.6.8.6" />
    <path fill="#223543" d="M699.2 454.3l11 11.7 28.6-1 18.4-14.3" />
    <path fill="#147fc3" d="M573 534.4l70.8-3.6-96.7-13.6-85-22.7" />
    <path fill="#a09079" d="M877.7 400.3l-11 4.3-5.4-15.5-13.6 11" />
    <path fill="#9b8d74" d="M297 332l51 59.7-73-83.2 13.5 12.4" />
    <path fill="#71572f" d="M229.2 354l2 8.3 5.2-10.6 32.6.7" />
    <path fill="#3b3c37" d="M949.2 577.2l-12-7.7 4 20.5-35.6-25.2" />
    <path fill="#036eb5" d="M401.4 586.8L376.2 548l35 33 7.2-134.2" />
    <path fill="#b2b5ad" d="M157 497.8l5-14 9.2 14-.5-8.6" />
    <path fill="#89785f" d="M734.2 296.7l-2-2.6-5.7-8-8.2 29" />
    <path fill="#5880a0" d="M550.7 364.6l60.4-53-51 45.7 13 4" />
    <path fill="#3787a5" d="M862.5 636l-10.3-15.4-33.6 10.5 28.6-10" />
    <path fill="#5582ab" d="M446 378.6l-96.6 11.2 78.8-6-8.2 8.7" />
    <path fill="#315461" d="M80 35.5L84 19 63 52l4.3-11.3" />
    <path fill="#f5f5f2" d="M1055 416.7h-25.6L953.8 383l101.2 31.8" />
    <path fill="#cedce3" d="M861.8 442.5l60.5-12-50.7 5.3.5 11" />
    <path fill="#4b575e" d="M211.8 548l19.4 2 7.3 18.6L216 532" />
    <path fill="#6a6f67" d="M671 290.8l76.5-21.4-17.7-8 22.6 5.6" />
    <path fill="#e0dfd5" d="M997.3 597.5l8.7 15.4-20-17 5.3-9" />
    <path fill="#af8c42" d="M218.5 325l-3.6-34.5-12 10.5 7-12.7" />
    <path fill="#96b4c5" d="M961.8 491.8l-11.6.8 33.7-.4-68-10.5" />
    <path fill="#0575b0" d="M451.7 606l8.6 37.6 55.8-17-29 1" />
    <path fill="#0971b6" d="M634.2 542l37 9-27.6 8.8-59.6-3.4" />
    <path fill="#6a848e" d="M235.6 164l-14-6.7 4.8-5-69-88.2" />
    <path fill="#404c5b" d="M376.3 372.3l-29.3 13-.2 3.8 51.4-31" />
    <path fill="#403326" d="M243 286.5l-7.2 25.2 22.6-26.6-.3-3" />
    <path fill="#4c6e85" d="M5.8 43.2l9.4 1L47 46.6l-8.7-2" />
    <path fill="#9b7a5b" d="M170.5 670.5l-7 3.6 5-13 4-23" />
    <path fill="#82c8ec" d="M367.3 533.4L340 571l-4.7-5.8 39.2-2" />
    <path fill="#83c6ee" d="M350 585.6l-23.4-35-10.7 16 29-11" />
    <path fill="#56779c" d="M386 410l-21.8-25.4 4-9.4 5.3.4" />
    <path fill="#1d7e9e" d="M791.8 526.7l-7-27-26.5.5 13.7 31.3" />
    <path fill="#7d8487" d="M229.2 494.2l-16.6-17-1.5 3.8-6 19.4" />
    <path fill="#88703a" d="M234 407.3l-4-14.4v18l4.2-2" />
    <path fill="#bddbef" d="M357.2 149l-112.7 5 10.2-9.3-29.2 19.4" />
    <path fill="#0e0901" d="M10.8 495l42-16v-40.7l-40.3 67" />
    <path fill="#c6dceb" d="M302.4 264l97.2-14.3-43.3-10 5.4 34.5" />
    <path fill="#649cb1" d="M754 481.5l116.2 62L818 504l32 26.5" />
    <path fill="#d3984d" d="M182.7 552l-10 104 8.6-46.8L184 544" />
    <path fill="#19658c" d="M681 514.2l22-6.6 46.8-6.5 1-14" />
    <path fill="#f8f8f7" d="M930.3 285.4l48.4 14.5-57.4-42 54.2 13" />
    <path fill="#87b4c8" d="M882.7 636.7l33.8-11.8-36.3 16-51-7" />
    <path fill="#0966ab" d="M572.6 595.2l13.7 2.7-26.3-45 15 4" />
    <path fill="#c6dfee" d="M256.5 242.7l-22-26.2 4.2 11.3 62.7 19.5" />
    <path fill="#8c8569" d="M276 305.7l-13-14.3-11-56 10.5 59.3" />
    <path fill="#29659f" d="M388.2 441.3l-10-11.8-3 21-10.7-26.7" />
    <path fill="#1f2328" d="M298.8 337.7l-4-42.3 78.7-18-88 27.5" />
    <path fill="#28211d" d="M307.7 386.8l-.7 1.7-33.7-8 39 15" />
    <path fill="#3e4544" d="M649.5 386.2l7.6 35.6-12-44 2 49" />
    <path fill="#569ead" d="M801 680.3l6-2.8h5.7v14.8" />
    <path fill="#8fa6b4" d="M256.7 217.2L244 205.5l14.5 15-38.8-11.7" />
    <path fill="#28445c" d="M311.4 497.2l-21.3-2.7 16 17.5 17-15" />
    <path fill="#213e5b" d="M414 368l23-10.7-45-1.3 22.4 20.5" />
    <path fill="#76869f" d="M235 439.5l-7.6-15 5.3 28.4 2.3-13" />
    <path fill="#088aaa" d="M851 670.5l-24.7.7-114-13 120.2 16" />
    <path fill="#28639f" d="M374.5 433.2l40.4-13.4-7 7.4-27 8.6" />
    <path fill="#909bac" d="M130.8 607.8l39.8 15.2-5.2 17.5 5-25.5" />
    <path fill="#070700" d="M256.4 453l-20.6-.5 2.8 5 16.2 2.7" />
    <path fill="#574e14" d="M107.3 148L77 131.8l13.6 13 13.2 6.3" />
    <path fill="#2d3e53" d="M514.2 379.6l8 37-17-90.7-6.2-22" />
    <path fill="#18354e" d="M578.7 378.6l18-11.5-32.5 33-25 38" />
    <path fill="#43370e" d="M172.7 246.4l-51 2L180 250l31.8 26.5" />
    <path fill="#4b5054" d="M268 472.5l40.2 2.4-16.7 7-29.2-7" />
    <path fill="#fdffff" d="M747 111.6L612.6 46l-35-46.7 290.7-.8" />
    <path fill="#84827c" d="M551.4 306.7l-3.2 3.6-14.6-13.8.7 12.8" />
    <path fill="#425362" d="M499 296l-17.4-22.2 58.5 36.7-28-28" />
    <path fill="#bec1c3" d="M878.6 593l29.3 39.6-17-9.5 23 9" />
    <path fill="#ddeffb" d="M159 2l96 43-103-12-48 20" />
    <path fill="#5c6866" d="M89.3 586.3l-3.7.4 6.6 7.6-41 12.4" />
    <path fill="#090b05" d="M209.3 466.7l-.5 4.2 5.7-17 19.8 10" />
    <path fill="#719ba8" d="M990.8 637l-2 .8H970l-42.3-13.3" />
    <path fill="#c6d6df" d="M125.8 90l-16 2 3 1 2.7 4.5" />
    <path fill="#85a1b4" d="M909.8 601.2l-8.7-8 110 12-104-14" />
    <path fill="#293036" d="M450.6 315.4l-49.2-27.6L467 265l-24-13.8" />
    <path fill="#423613" d="M100.7 228.4L80.5 262l36.4-44.5-39 7.5" />
    <path fill="#7d6e59" d="M188.2 433.5l-16.6-12 8 12.4 8 1" />
    <path fill="#78a9d5" d="M545.6 337.2L533 347.6l2.3.5 14 3" />
    <path fill="#c1c6c9" d="M905.8 622.4l-10.4-14L879 613l-1.7-4.6" />
    <path fill="#17190e" d="M158 151l30.7-1.5-11.2-9.3-55 48.8" />
    <path fill="#080900" d="M61 312l-27-90.3 54-6.7-61.6 43" />
    <path fill="#77a9c3" d="M933.3 654.4L915 639l1.6-7.6-36.7-2" />
    <path fill="#1d1c0e" d="M165.3 192.4l-23.2 6 29-16-48-60" />
    <path fill="#2c2416" d="M214 276.5l-18 6.3 16.3-11.6 5.6 3.7" />
    <path fill="#0e0f09" d="M138 124l-28.4 11.3-2-25.4-26.6 2" />
    <path fill="#040607" d="M-24.7 149l111.4-19.2-67.4-9 39.8 9.8" />
    <path fill="#404f60" d="M283 387.6l33.3 13.8-.5 18.5-11.5-16" />
    <path fill="#6a7e95" d="M186.7 620.3l18-10.3 12.7-63 5.3 38.8" />
    <path fill="#78bde5" d="M620 435.4l-1.6 1.6 16 3.7H589" />
    <path fill="#261d05" d="M138.3 245l-30.7 4.7L60 318.2l47.5-78" />
    <path fill="#086bac" d="M483.7 576l75.8 18.6-44.8-5 9 1.4" />
    <path fill="#8a7a6b" d="M202 359.7l-5-.8-.6 11 11.6 13" />
    <path fill="#0d79bd" d="M660.6 509.8L621 501l-34 .2-2.8 9.3" />
    <path fill="#303b4e" d="M409.7 251.2l26.7-6-2 30.2-9.2-5" />
    <path fill="#c8c8bf" d="M734.6 268.6l26.3-49-26 44.7-13 3" />
    <path fill="#c3b087" d="M218 525.7l-20.5-1.4 17-12-9 4.5" />
    <path fill="#c8d0cf" d="M764.7 579l80.6 8.6-53 1.2.4-2.4" />
    <path fill="#6788b0" d="M542.2 341.6l9.6-8.3 10 7.2-60.3-4.6" />
    <path fill="#1692c6" d="M612 590.3l3.3-7.7-6.7-1 26.2-9.4" />
    <path fill="#d7bd79" d="M167.5 312l3.7 11.3-2.4 8-1-2.3" />
    <path fill="#37280a" d="M99.3 504l10.6-9.5 25-2-11 14" />
    <path fill="#a18251" d="M175.2 304l20.3 19.4L197 334l-20.8-35.6" />
    <path fill="#221205" d="M173.7 310.2l-72 3.3 10 39.3-26.4-49" />
    <path fill="#171d22" d="M308.6 446.2l21.2 35.3-11.7-42.2 18 12.7" />
    <path fill="#323f3a" d="M63 63l20-9.3-4-13.4L93 43" />
    <path fill="#076cae" d="M467.7 602.2L508 600l-43.5-6.8 13.7 2.7" />
    <path fill="#9f7a66" d="M155.6 548.8L176 560l-.4-4-22.3-9" />
    <path fill="#a0b4bc" d="M929.6 678.5l-21 18 4-20.2 34.8 36.7" />
    <path fill="#51a4ba" d="M829 661.5L796.5 624l7.5 13.7 15.2 20.6" />
    <path fill="#f8f4ee" d="M940.8 530.2l-5 10.5 3.8 8.5 5 1" />
    <path fill="#c5cfd5" d="M971 493.5l-124-3 14.8 3.7 28.5.6" />
    <path fill="#273445" d="M467.3 274.7l-17-14.2L337 286l123.3-36" />
    <path fill="#f0f1f0" d="M935.5 304.4l96-22-7.3 97-16-63" />
    <path fill="#879cb5" d="M956 587l11.2-3.7h-9.4L933 605.6" />
    <path fill="#47310a" d="M135.7 242l15.8-6.5L115 292l9.7 5.4" />
    <path fill="#d0a457" d="M217.6 315l-8.2-24.3 8 13.2-5 12" />
    <path fill="#0c67ae" d="M566 547.2l6-13.6-51-2.3 81.3 17.2" />
    <path fill="#1e2935" d="M612 438.8l4.8-15L561 414l30-11.6" />
    <path fill="#527c87" d="M802.6 459.5l26.8 8.2-27.5-1.2-20 8.5" />
    <path fill="#a5bbc4" d="M822.3 561.7l-3.6-9.8-20-11-9.4-17" />
    <path fill="#ddf1fc" d="M39.5 21.2L72.8-16 51.3 6.2l28-5.3" />
    <path fill="#3a576f" d="M464.2 388.3l-5 11.4-85.6 29.3 56.6-33" />
    <path fill="#759db4" d="M865.2 606.5l6.4 12.8 31 4-56.6-21" />
    <path fill="#8d8482" d="M197.5 680.5l4.8-22.3 6 54.8 5.8-49.4" />
    <path fill="#aabec1" d="M816.5 614l-7.3-12.5 42.3-5.4-40.5 9" />
    <path fill="#23323f" d="M542.8 423.5l-65.6-40.3-15-20-9.5-.7" />
    <path fill="#c9dff1" d="M366.5 154.3l-10.8-32 56.2-3v74.2" />
    <path fill="#6b8faf" d="M580.7 313.4l16 6.5-17.2 12 12 1" />
    <path fill="#a8c5d4" d="M902.6 455.3l9.7-13.6-50-2 48-2" />
  </g>
</svg>