<svg version="1.1" viewBox="0 0 1024 682" width="1024" height="682" xmlns="http://www.w3.org/2000/svg">
  <path fill="#66788a" d="M0 0h1024v682H0z" />
  <g fill-opacity=".5">
    <path fill="#d3ffff" d="M1055-3v259L-31 235V-2" />
    <path fill="#170e0c" d="M-31 301v386l1075 26-11-394" />
    <path fill="#16112c" d="M405 188l-147-20-147 300 188 234" />
    <path fill="#ffbc12" d="M1055 713L903 568l-35 40-158 28" />
    <path fill="#6094ae" d="M986 392L671 578 464 366l-137-45" />
    <path fill="#bcf9ff" d="M1055 2L-31 0l425 186 29 139" />
    <path fill="#ffc83d" d="M175 518l-87 43-86-18 71-67" />
    <path fill="#000010" d="M378 371l-409-42v140l233 23" />
    <path fill="#c16215" d="M718 572l-127 54-320-66 84-25" />
    <path fill="#b0d3aa" d="M706 374L600 588l94-47-172-119" />
    <path fill="#6cc0ff" d="M1055 73l-35 214L271 25l501 55" />
    <path fill="#dc8b97" d="M9 276l120-95 136 100-95 37" />
    <path fill="#000005" d="M475 713l-227-89 193-62 68 35" />
    <path fill="#beffff" d="M263 36l780 73-3-132-654-8" />
    <path fill="#0d0701" d="M848 505l53 18-47 107-240-46" />
    <path fill="#1a3ca0" d="M283 581l-314-43v117l99 58" />
    <path fill="#2779cf" d="M459 395l289-53 135 2 21 51" />
    <path fill="#1e1a3c" d="M808 395l15 90-135 26-21-93" />
    <path d="M1020 381l20 332-105-151 74-38" />
    <path fill="#ffe728" d="M846 658l55 22 82-13-115-64" />
    <path fill="#7b4950" d="M388 318l583-83 26 16-50 69" />
    <path fill="#99d9ff" d="M671 29L338 185l-369-23L0-31" />
    <path fill="#000027" d="M886 321l-39-7 112 122 84-95" />
    <path fill="#dfc7ee" d="M604 268l-203-6 1-164 343 69" />
    <path fill="#090600" d="M617 479l-168 15 127 71 67-50" />
    <path fill="#80b9fb" d="M1052 78L538 219l77 48 252-1" />
    <path fill="#59906c" d="M1019 428l-81 179-17 1-91-180" />
    <path fill="#ff8e99" d="M493 316l-20-79-77-4 8 70" />
    <path fill="#d2f5d2" d="M780 522l-23-21-4 68 16 5" />
    <path fill="#fff29b" d="M479 561l33 29 5-6 8-64" />
    <path fill="#2f6fc7" d="M513 390l9 49-220-45 60 62" />
    <path fill="#302841" d="M100 298l10-101-27-9-5 127" />
    <path fill="#000b21" d="M354 708L175 595l-64 58 52 52" />
    <path fill="#ffa747" d="M55 547l-64-28 202-16-122 65" />
    <path fill="#e18a51" d="M794 315l169-1-22-39-137-8" />
    <path fill="#210f1c" d="M766 695l-57-195-46 109-165 30" />
    <path fill="#112a5f" d="M685 350l57-75h-50L249 413" />
    <path fill="#d9ebff" d="M695 143L285 95l38 130 28-61" />
    <path fill="#5f3b61" d="M660 331l-278-78 131 17 29-25" />
    <path fill="#ffc6b3" d="M185 307l-87-21 24-55 57 2" />
    <path fill="#183c88" d="M831 249l120 11 24 114 13-137" />
    <path fill="#3c5175" d="M402 224l-24 142-123-10 110-205" />
    <path fill="#170c10" d="M505 522l-7-86-89 108 14 60" />
    <path fill="#804e36" d="M312 468l-160-10 116-12L40 597" />
    <path fill="#190a10" d="M353 544L13 369l97 144 81-14" />
    <path fill="#a1bf9f" d="M516 467l-9-27 219 33-131 11" />
    <path fill="#396fb0" d="M647 365l-294-21 100-26 153 8" />
    <path fill="#96d2ff" d="M241 272l-6-119L561 33-31-6" />
    <path fill="#ffffe6" d="M720 535l-4-34 27 7-6 22" />
    <path fill="#ff8614" d="M426 581l-125-16 50-21 46 13" />
    <path fill="#21236f" d="M313 187l-35-22-47 28 66 67" />
    <path fill="#ffb850" d="M610 597l-50-14-21 53 120-96" />
    <path fill="#ff803e" d="M764 640l65-40-8 12 22 50" />
    <path fill="#a7d5cd" d="M363 495l-8-14 98 17-71 1" />
    <path fill="#ffeb37" d="M99 467l-35 83 71-21-85-40" />
    <path fill="#050214" d="M146 371l-177 6 7 153 141-81" />
    <path fill="#ffd78b" d="M979 269l45-4-30 53 37 6" />
    <path fill="#19295d" d="M545 296L379 495l138-225 283 28" />
    <path fill="#c8aa6a" d="M666 584l-19-73 43-7v88" />
    <path fill="#99bd99" d="M822 408l48-11-64 122 36-16" />
    <path fill="#ffa854" d="M588 301l-59-4-5-4 42 33" />
    <path fill="#050812" d="M736 538l46 15 78 77 30-116" />
    <path fill="#a42403" d="M973 623l49 39-8 51-96-98" />
    <path fill="#56afff" d="M1055 235V108H921l-12 140" />
    <path fill="#c7ffff" d="M950 87L503 23l511-54 41 132" />
    <path fill="#002b7f" d="M476 379l20 54 121-37-157-3" />
    <path fill="#0b2242" d="M814 336l-33-47-30 89-170-36" />
    <path fill="#131022" d="M409 349l-125 57 197-1 9-34" />
    <path fill="#ffffd6" d="M410 306l78 8 9-3-34-37" />
    <path fill="#775379" d="M228 506L73 609l-104-96 135 41" />
    <path fill="#749ea4" d="M364 366l157-50-121 21-81 20" />
    <path fill="#eeffe3" d="M368 436l-14 3 2 11 36-2" />
    <path fill="#122571" d="M561 654l283 30-423 29 68-66" />
    <path fill="#d8952e" d="M264 460l-8 1-11 10 20 61" />
    <path fill="#5073a2" d="M191 227l104 75-115-17 9-55" />
    <path fill="#e6ffdb" d="M624 483l7-24 40 4-16 28" />
    <path fill="#6aa7c5" d="M665 368l73 47-18 3-182-30" />
    <path fill="#ffc91d" d="M849 637l74-18 22 52-95 3" />
    <path fill="#4c3c37" d="M721 416l164 4-218 39-45-4" />
    <path fill="#192535" d="M1008 424l-2-4-113 31 99-163" />
    <path fill="#080b11" d="M467 598l-192-31-45-4 226 128" />
    <path fill="#18427b" d="M260 575l-101 95 57-10h56" />
    <path fill="#597ab1" d="M1010 506l-31-16 12 31 22-168" />
    <path fill="#86252e" d="M926 682v31l-169-63-92-51" />
    <path fill="#a46a8f" d="M340 322l43-67 80-15 15 27" />
    <path fill="#332a1b" d="M650 558l-42 44 111-74 110 16" />
    <path fill="#361f16" d="M275 482l-153 87 256-34-39-79" />
    <path fill="#94c0ff" d="M73 288l32-319-136 216 106 70" />
    <path fill="#f89934" d="M552 614l29-39 29 58 19-39" />
    <path fill="#e4f5ea" d="M419 337l39 2-10 10-68-9" />
    <path fill="#69354b" d="M0 233l33 22 13 46-76 2" />
    <path fill="#65888d" d="M138 360l-72-35 57-4-43 50" />
    <path fill="#1a1a21" d="M513 572l146-87 189 28-267-22" />
    <path fill="#c0d0f6" d="M352 136l-116 46-186 15L197 84" />
    <path fill="#b9562f" d="M426 536l-155 31 87 12 21-74" />
    <path fill="#1e1a5d" d="M333 251l5-65 26-16 12 81" />
    <path fill="#568579" d="M953 619l27-40-131 48 49-60" />
    <path fill="#eb874a" d="M766 322l-86-2 94-19-22 20" />
    <path fill="#ff8e50" d="M622 320l-23-19 42-4-3 2" />
    <path fill="#d9dbed" d="M343 144l77-16 395 51-419 21" />
    <path fill="#050309" d="M994 583l29 130 32-205-131 46" />
    <path fill="#4b1f37" d="M35 532l53-30-34-5 8-47" />
    <path fill="#264287" d="M874 243l-30 47 60-30-8-32" />
    <path fill="#86ccff" d="M690 168l337-52-183-44-333 6" />
    <path fill="#000009" d="M841 578v71l12 56-14-168" />
    <path fill="#dd9143" d="M678 609l71 9 93 1-1 25" />
    <path fill="#849bb5" d="M665 206l84 87 56-3-12-50" />
    <path fill="#87af98" d="M884 508l48 37-17-4-36-130" />
    <path fill="#3d90cc" d="M814 417l-24-36 102-37v11" />
    <path fill="#001d46" d="M697 337l160-25 106 37-90-2" />
    <path fill="#f46221" d="M1008 660l29 50-83-26-98-11" />
    <path fill="#f7b2c1" d="M76 231l4 11-37 52 34 5" />
    <path fill="#371518" d="M590 608l-1-45 21 74-108-5" />
    <path fill="#424c49" d="M956 466l-75-111 14 120-165 82" />
    <path fill="#cacf9b" d="M669 549l-73 23 67-57-29-12" />
    <path fill="#1a140f" d="M691 580l4-78 92 121-136-23" />
    <path fill="#1e272c" d="M687 352l-167 2 75-15 225-24" />
    <path fill="#654547" d="M973 333l-30-15 78-39-29 52" />
    <path fill="#223e43" d="M163 383l201-29 16-23-168-44" />
    <path fill="#a4b9c0" d="M521 239l19-14 331 26-305 20" />
    <path fill="#283439" d="M975 557l2 137-17-91-37-48" />
    <path fill="#08265c" d="M646 488l196-2-85-40-46 27" />
    <path fill="#87d2ff" d="M19-31L522 84 201 98l-232 22" />
    <path fill="#20509e" d="M309 447l203-40-209 2 59 51" />
    <path fill="#0c3c7f" d="M752 358l-88 34 152-6-53-3" />
    <path fill="#d78f5f" d="M794 297l102 27 67-65-18 51" />
    <path fill="#0d1311" d="M590 567l50-62-17-27-68 28" />
    <path fill="#cfb16c" d="M512 507l-13 61 31-24-12-33" />
    <path fill="#5786c1" d="M719 459l-14 37 82 3-135-23" />
    <path fill="#6b6664" d="M504 593l62-1 14-14-3-42" />
    <path fill="#ce5f00" d="M165 535L43 494l147 21-26 14" />
    <path fill="#fceecd" d="M544 241l-84-7 30 42 51-29" />
    <path fill="#4c7f89" d="M377 312l-45-56 26 113-37-29" />
    <path fill="#b87999" d="M180 241h-53l-29-51 84 4" />
    <path fill="#f2adab" d="M112 296l26 10 30-43-62-67" />
    <path fill="#a2c7b5" d="M410 478l-8 28-27 9 17 14" />
    <path fill="#b78656" d="M308 511l2-29 4-3-22 22" />
    <path fill="#1d4193" d="M-31 601L78 713l61-92-112-61" />
    <path fill="#42477b" d="M725 270l63-29-57 67-268-27" />
    <path fill="#ffe65e" d="M23 540l33-16 74-12-26 31" />
    <path fill="#b16635" d="M279 517l-44 15v-22l21 8" />
    <path fill="#1c1718" d="M494 664l-92-110 101-6-100-66" />
    <path fill="#8ebeb2" d="M627 413l-172 19 126 3 48 26" />
    <path fill="#b7c6eb" d="M247 121l-85 19 37 112 38-24" />
    <path fill="#7d3419" d="M398 563l-82-22 34-25 96 19" />
    <path fill="#4073dd" d="M1055 286v21l-52 89 52 6" />
    <path fill="#5b9dc6" d="M678 350l171 13-197-5 19 101" />
    <path fill="#d9fed9" d="M777 509l-27 3 4 13 17 15" />
    <path fill="#3e6eb4" d="M510 398l148-46-134 13-47-5" />
    <path fill="#1a162c" d="M270 488l162-12-257-63 80 36" />
    <path fill="#e9b028" d="M406 564l5 23-22-10-90-25" />
    <path fill="#e9ffed" d="M827 431l14 7 24 3-8-11" />
    <path fill="#ffef7a" d="M997 317l-1-14 59 5v14" />
    <path fill="#0f1b3c" d="M414 419l99-123 34 18-212 69" />
    <path fill="#5d8720" d="M895 642l15-62 51-80-41 107" />
    <path fill="#44899d" d="M1055 494l-75 12-16-60-33 44" />
    <path fill="#0e0d10" d="M287 545l111-50-111 9-41 36" />
    <path fill="#050c22" d="M148 531l23 34 139 15-190-40" />
    <path fill="#37536d" d="M621 422l70 1-21-46 18 21" />
    <path fill="#9ac8bc" d="M345 270l-11-2h-40l23 9" />
    <path fill="#ebc383" d="M614 599l10 5-19-47-5 41" />
    <path fill="#16254d" d="M361 322l87-12-26 27-164-10" />
    <path fill="#1a161d" d="M717 686l-88-156 32 99-96-9" />
    <path fill="#d74e2b" d="M568 625l-57-46-4 53 49-42" />
    <path fill="#9ca389" d="M737 461l-15-6 16-17-19-37" />
    <path fill="#7d696c" d="M877 297l-36-61h-22l-4 50" />
    <path fill="#77854f" d="M341 692l49-47-74 47-8-50" />
    <path fill="#a96023" d="M634 594l27 2 7-68 26 61" />
    <path fill="#ffd200" d="M273 480l-11 5-3 16-19-19" />
    <path fill="#0e1920" d="M208 690l-3-104-63 55-1 72" />
    <path fill="#041124" d="M998 415l19-51-148-11 135 71" />
    <path fill="#5b544c" d="M502 441l41 24 9 31-2-72" />
    <path fill="#1e1e2d" d="M158 448l9-149-23 9 185 155" />
    <path fill="#ffe61f" d="M912 632l-66 15 72 21 20-78" />
    <path fill="#581a07" d="M946 627l-15 31 69-45-93 20" />
    <path fill="#111619" d="M827 554l78 23-39-52-103-24" />
    <path fill="#f03580" d="M467 261l-43-6-9-16 55 11" />
    <path fill="#cfebdc" d="M823 417l42-3-37-14 3 15" />
    <path fill="#2152a5" d="M492 322l-38 15-5 9 176-24" />
    <path fill="#b1dfff" d="M627 131L-2 121l312-36 278 23" />
    <path fill="#242426" d="M371 533l223-28-74 59 31-101" />
    <path fill="#71a492" d="M795 498l27 24 10-16-2-31" />
    <path fill="#335f7b" d="M884 368l56 18-9 26-104-7" />
    <path fill="#272031" d="M737 396l45-1-61 79 76-3" />
    <path fill="#4d415b" d="M769 652l-45 61-21-95 33-7" />
    <path fill="#c9ebce" d="M753 552l24 15-6-18-16-4" />
    <path fill="#ffa544" d="M543 322l30-25 12 21 1-3" />
    <path fill="#100c13" d="M545 606l-1-84-5 80 3 26" />
    <path fill="#c3d8f1" d="M226 132l87 55 18 38 13-118" />
    <path fill="#f6fff2" d="M722 504l14 2 4 12-27 11" />
    <path fill="#6f4d5d" d="M239 318l4-143 32 120-32 13" />
    <path fill="#172b48" d="M395 375l-26 4 13-36 164 16" />
    <path fill="#ebc16c" d="M848 639l53-18 2-48-16 37" />
    <path fill="#464441" d="M729 453l-37-19-70 3 21 22" />
    <path fill="#d8e9bf" d="M721 398l-24 12-9-1-2-14" />
    <path fill="#ffdc25" d="M70 479l24-1 3 13-25 15" />
    <path d="M879 674l-37 35V599l6 75" />
    <path fill="#5c5361" d="M109 298l-3-73-31-38 18 126" />
    <path fill="#5672a3" d="M419 474l33 6-13-61 28-10" />
    <path fill="#1a182b" d="M106 460l246-21-243-80-22 134" />
    <path fill="#654577" d="M405 218l-12 50-43-78 45-3" />
    <path fill="#85c2fb" d="M916 81L731 263l-12-77 86 80" />
    <path fill="#12418f" d="M719 488l-14-6 89 18 57-39" />
    <path fill="#dbd0ce" d="M720 275l-33-1 28-9 2-102" />
    <path fill="#171c1f" d="M297 531l32 149 148-65-95 82" />
    <path fill="#150013" d="M1010 480l4-75 21-14 20 132" />
    <path fill="#fff1d1" d="M994 286l17-8-11-13-21 16" />
    <path fill="#172d5c" d="M1055 296l-99-10 16 75-74-38" />
    <path fill="#263859" d="M114 357L-3 340l-28-42 77-2" />
    <path fill="#6b8c73" d="M509 435l12-5 96 24-46 43" />
    <path fill="#c49554" d="M545 579l49 29-66-42 78 4" />
    <path fill="#ffb230" d="M848 669l126 4-6-38-1 12" />
    <path fill="#314f8d" d="M269 606v-24l-154-26 46 46" />
    <path fill="#7fdbed" d="M671 417l-61 19 58-2-10-61" />
    <path fill="#5c3b44" d="M516 633l-43-60 65 17-83 14" />
    <path fill="#aae7d7" d="M621 378v101l-9-11-1-75" />
    <path fill="#275627" d="M1006 422l-4 64-29 10-15 27" />
    <path fill="#0c2d76" d="M97 713l50-45-178-44 42 89" />
    <path fill="#8babce" d="M536 382l-13 11-32-1-3-11" />
    <path fill="#9db4af" d="M675 493l-45 36 24-120-8 149" />
    <path fill="#2b2130" d="M446 428l58 10 7 81-20 41" />
    <path fill="#153da5" d="M273 162l-14 16 63 9-35-15" />
    <path fill="#ffbd4c" d="M819 602l4 6-28 16 31 30" />
    <path fill="#0f397e" d="M1008 346l-71 3 52-20 38-11" />
    <path fill="#cd8a5e" d="M938 300l2-1 50 29-15 4" />
    <path fill="#141c20" d="M275 701l36-26 2-40-44-105" />
    <path fill="#a5e9ff" d="M763 92L529 66 164 1l404-32" />
    <path fill="#d6bbd7" d="M415 193l12 129-1-18-25-22" />
    <path fill="#353540" d="M646 534l42-17 73 81-13-67" />
    <path fill="#79c6d2" d="M518 353h-11l-5-7 40-6" />
    <path fill="#202d46" d="M700 275l-111 72 158 16-67 10" />
    <path fill="#5f5f9b" d="M520 281l-52 9 15-24 186 5" />
    <path fill="#533c4a" d="M199 537l6-16-72 33 211-1" />
    <path fill="#30566e" d="M969 563l24 38-1 11-48-44" />
    <path fill="#19212d" d="M177 665l37-210 175-79-117-34" />
    <path fill="#daf2e5" d="M369 338l89 8-50-9h-4" />
    <path fill="#6496ce" d="M407 426l24-9 56-4-42 10" />
    <path fill="#edd78d" d="M513 578l15-2-20-22-32 5" />
    <path fill="#23579d" d="M952 439l-25-48-147-32 91-30" />
    <path fill="#9ab2e8" d="M-31 146l196 8-101 52-44 41" />
    <path fill="#324e91" d="M969 228l-16 37 2 64 40-77" />
    <path fill="#5faee7" d="M891 212l-40 59-2-32-129 3" />
    <path fill="#81c9ff" d="M785 182l270-83-248-5-263-11" />
    <path fill="#f2bfb4" d="M117 300l68-3-26-115 6 85" />
    <path fill="#38313f" d="M609 403l-238-3 78 12 3-25" />
    <path fill="#9abbee" d="M881 169l-63 4-355 38 538 7" />
    <path fill="#191a1a" d="M513 559l93-5 21-43-33-34" />
    <path fill="#83c2c1" d="M695 374l48-12-112 38-23 29" />
    <path fill="#c5d1c4" d="M84 333l26-2 8-6H90" />
    <path fill="#742a12" d="M75 499l127 20 33-29-27 14" />
    <path fill="#b6d8ca" d="M362 353l-16 11 16-1h15" />
    <path fill="#f1f7d0" d="M704 251l4-4-12-25-1 46" />
    <path fill="#87b296" d="M777 462l21-7 39 9 84-20" />
    <path fill="#0027a4" d="M348 178l12-6 17 6 2 15" />
    <path fill="#fea134" d="M550 631l-1-36 47 12-11-29" />
    <path fill="#915c2a" d="M466 553l-90 23 67-1-15-27" />
    <path fill="#131319" d="M775 611l128-92-37 67-210-18" />
    <path fill="#aadabc" d="M411 495l-37 1-20-6 10-8" />
    <path fill="#120f1e" d="M220 487l-251-92L80 521l-111-57" />
    <path fill="#cb6a68" d="M16 515l99 42L0 541l61-28" />
    <path fill="#4a5149" d="M800 457l-56-64 83 49 148-11" />
    <path fill="#6e558a" d="M673 217l49 13-5 131 9-145" />
    <path fill="#7b7bb7" d="M169 188l14 17-101-12 78-8" />
    <path fill="#486eb0" d="M184 290l43-52 13 37-58-44" />
    <path fill="#262e4b" d="M321 493l135-29-76-26 119-27" />
    <path fill="#fadb22" d="M638 567l-3-20-24 11 6-6" />
    <path fill="#0a3a6f" d="M635 385l-2 11 27-7-9-5" />
    <path fill="#484740" d="M863 541l17-84-106 71 101-86" />
    <path fill="#86955d" d="M303 706l36-32 44-4-83 43" />
    <path fill="#21211b" d="M600 610l1-23-27-50 14 40" />
    <path fill="#6db9bc" d="M844 382l58-1-70-7-17 80" />
    <path fill="#262f49" d="M368 270l-82 35-100-21 109 58" />
    <path fill="#cfedd6" d="M641 513l22 26-21 23 26-53" />
    <path fill="#8a6260" d="M902 270l56-11-18 41-170-41" />
    <path fill="#2b272d" d="M826 566l-135-39 88 9-10-37" />
    <path fill="#213657" d="M640 492l-15 12 105-24 32-24" />
    <path fill="#85c8bd" d="M905 488v28l-7 3-16-17" />
    <path fill="#41518f" d="M6 589l121-16 20 1-40 66" />
    <path fill="#2965bf" d="M633 321l-15 2 2 13-81-7" />
    <path fill="#c55611" d="M416 537l7-5-51 45 32-45" />
    <path fill="#ff9b3e" d="M754 298l-19 16 7 2 17 2" />
    <path fill="#2a2636" d="M356 435l-18 136-1-145 84 15" />
    <path fill="#c86e81" d="M39 301l41-55-50 3 3-7" />
    <path fill="#405271" d="M417 301l-63-32-37 58 93-40" />
    <path fill="#14202f" d="M944 304l-69 65 122-26-49 127" />
    <path fill="#200904" d="M984 648l-40-31 111-6-9 37" />
    <path fill="#5a78c1" d="M420 452v-25l-23 6 59 19" />
    <path fill="#00000f" d="M590 611l-26 31-1 15 12-48" />
    <path fill="#183354" d="M755 288l44 51-3-42-10-10" />
    <path fill="#ab9192" d="M254 281l-93 14 93-5 21 19" />
    <path fill="#c1f9ff" d="M649 66l383 11 23-68-425-40" />
    <path fill="#18161e" d="M385 604l-91 42 201-41 73 13" />
    <path fill="#4a7f6e" d="M984 412L883 554l93-16 10-104" />
    <path fill="#393054" d="M663 497l5 40 10-147 26 49" />
    <path fill="#b2c4e9" d="M371 195l147 33 339-47-347 4" />
    <path fill="#263453" d="M94 357l74-7-123-55 77 7" />
    <path fill="#ffa728" d="M800 621l43 16-12 16-41-9" />
    <path fill="#ffc00b" d="M151 517l-8 12-69-15 34-3" />
    <path fill="#8389a2" d="M627 285l-84-54 56 16 8 51" />
    <path fill="#93d2ed" d="M600 403l-95 30 64-15 51-17" />
    <path fill="#ffded9" d="M501 250l-95-14-2 14 42-30" />
    <path fill="#3d7fbe" d="M565 354l-54-11 74 23 112-9" />
    <path fill="#f0872c" d="M372 572l-51-26 3 26 44-41" />
    <path fill="#eeb183" d="M947 291l-4 19 12-3-9-52" />
    <path fill="#daf1de" d="M661 484l10-25-35 3 15 14" />
    <path fill="#2362ad" d="M369 404l-49 3-16 24 82-27" />
    <path fill="#a4cbf6" d="M156 88L39 108l71 75 31 22" />
    <path fill="#af7445" d="M488 570l2-5-30-15 1 40" />
    <path fill="#9cbfab" d="M395 511l-19 22 2-28 19 21" />
    <path fill="#b7cfac" d="M885 425h7l6 8-19 4" />
    <path fill="#49472e" d="M635 532l-63 38 65-29 15-17" />
    <path fill="#44281c" d="M389 552l-23-61 11 84-11 43" />
    <path fill="#3b3a4a" d="M384 471l238-68-223 78-11 16" />
    <path fill="#4592c4" d="M868 371l-66-14 83 4-19 27" />
    <path fill="#f2d020" d="M358 569l43 4 9-6-64-10" />
    <path fill="#1f488c" d="M173 653l-13 31 33-54 1 36" />
    <path fill="#280905" d="M972 706l9-14-11-63 2 9" />
    <path fill="#b4757c" d="M123 246v-36l8-12-1 111" />
    <path fill="#b6e1c7" d="M562 426v-3l-14 19 50-20" />
    <path fill="#d19562" d="M803 319l-12-44 28 30 88-4" />
    <path fill="#597cc1" d="M345 429l47 5 21-2-107-14" />
    <path fill="#32487f" d="M274 256l58-24-40-52 5 124" />
    <path fill="#c5f29f" d="M747 436l-6-5 12-11-5 7" />
    <path fill="#ca8b5c" d="M937 311l-46 12-12-1 3-45" />
    <path fill="#0f0a12" d="M843 653l27-130-54 102 23-14" />
    <path fill="#aac7af" d="M892 478l-23-4 21-10 3 3" />
    <path fill="#a7b8de" d="M177 257l19-131 10 149 37-85" />
    <path fill="#0f121a" d="M485 587l-117 11 24-29-16 134" />
    <path fill="#2c2524" d="M741 514l2 118 8-105-12-29" />
    <path fill="#ac9c8f" d="M564 556l-13 31-1 8-8-28" />
    <path fill="#788966" d="M329 653l-6 33-11-35 16-6" />
    <path fill="#796b45" d="M563 510l-64 60 30-27 23-8" />
    <path fill="#f8953f" d="M617 611l12-2-27 18 3-50" />
    <path fill="#151f30" d="M497 293l-2 29 56 3-11-16" />
    <path fill="#41314e" d="M44 452L26 229l11 5-2 71" />
    <path fill="#1f3351" d="M302 630h43l19-13-83-8" />
    <path fill="#7eab96" d="M134 353l3 7-53-3 14 6" />
    <path fill="#f6f0cc" d="M491 319l-28-50-14 26 26 15" />
    <path fill="#525846" d="M900 380l7 40-44 13-6-8" />
    <path fill="#1b162c" d="M117 480l138-11-43 16-138 22" />
    <path fill="#efebc0" d="M416 297l53-15 11-20-59 55" />
    <path fill="#337ad5" d="M533 392l108 14-39-12-76-14" />
    <path fill="#c4ceeb" d="M319 204l41-38 209 69-264-112" />
    <path fill="#3f519b" d="M264 177l-45 104-4-47 24 5" />
    <path fill="#fff5b3" d="M508 535v4l9 7 7-20" />
    <path fill="#2a3223" d="M908 622l-6-6 78-74-30-3" />
    <path fill="#edfdc3" d="M376 509l10 15 3 10-3-23" />
    <path fill="#9dd2b4" d="M559 469l72-41-61 28-21-6" />
    <path fill="#0f131d" d="M170 713l89-62-124 47 13-114" />
    <path fill="#433a60" d="M240 204l-2 40 73-63-68-1" />
    <path fill="#8577ad" d="M1004 390l3 103 6-72v-40" />
    <path fill="#fff01e" d="M890 660l79 5-115-32-9 11" />
    <path fill="#577a79" d="M487 504l-127-9-20-19-13 15" />
    <path fill="#182d3b" d="M540 353l1-23 10 37-62-12" />
    <path fill="#18478e" d="M686 364l-80 8-118-11 120 2" />
    <path fill="#201c1f" d="M489 554l-121-55 158 28-89 22" />
    <path fill="#4e73aa" d="M386 453l-68-1-4-8 33 4" />
    <path fill="#94c9b6" d="M679 357l-8 59-6-13 7-46" />
    <path fill="#082665" d="M140 551l-19-16 14 1 38 3" />
    <path fill="#0e0f1e" d="M62 339l-89 180 77-29 62-114" />
    <path fill="#598b7e" d="M304 335l-46 8 10 3 86-12" />
    <path fill="#1a1f33" d="M581 320l31-1-35-32 26-4" />
    <path fill="#1c232b" d="M831 473l-83-5h55l-6-28" />
    <path fill="#85adb1" d="M736 297l16-68 5 70-12-17" />
    <path fill="#313054" d="M692 281l97 21-101-2 38 36" />
    <path fill="#266686" d="M656 428l-12-37 4-2-15 40" />
    <path fill="#b7cf96" d="M684 527l-16 39 24-21-11-40" />
    <path fill="#62a8e6" d="M1055 195l-64 70-7-30-172 1" />
    <path fill="#3eaeee" d="M710 471l10-15-17 7-14 15" />
    <path fill="#75516c" d="M22 524l25-6-61 66-10-33" />
    <path fill="#446052" d="M171 377l74-29-44-3 6 33" />
    <path fill="#3d5696" d="M908 243l-28-8-7 29 173-7" />
    <path fill="#464e6c" d="M213 276l144-43-169 59-2-22" />
    <path fill="#59a7c0" d="M845 396l25 8 20-15-78 20" />
    <path fill="#272e3d" d="M940 463l16-111-48 150-9-26" />
    <path fill="#728781" d="M-31 327l6 14 48-6 13-1" />
    <path fill="#74ae5f" d="M921 564l63-112-82 136 32-17" />
    <path fill="#d7ebf7" d="M376 139l170-22 115 44-136 13" />
    <path fill="#7a6e9b" d="M636 512l4-14 25-5 36 9" />
    <path fill="#c20f12" d="M375 572l-69-10 16 7 64 7" />
    <path fill="#f1331f" d="M538 593l-2 18-44-19 37 3" />
    <path fill="#253f76" d="M418 334l82-2-96 35 99-15" />
    <path fill="#1a2b47" d="M572 352l43 3 218-5-301-10" />
    <path fill="#625653" d="M684 617l-94-18 69 5 62 10" />
    <path fill="#829c95" d="M268 241v-17l-18 7-9 12" />
    <path fill="#e4710e" d="M917 614l29 35-41-19-9 3" />
    <path fill="#38253b" d="M759 652l-72-50 112 111 24-53" />
    <path fill="#0e1a31" d="M910 333l-126 5 90-28 50 78" />
    <path fill="#6d9ec2" d="M646 392h133l82-23-63 26" />
    <path fill="#4b4065" d="M625 285l-174 1 159-12h78" />
    <path fill="#7ba78b" d="M844 463l-13 33-13 37-2-48" />
    <path fill="#133e5b" d="M992 505l11-4 8 43-58-49" />
    <path fill="#587f76" d="M796 472l-7-10 1-47 12-33" />
    <path fill="#141d22" d="M821 487l72 39-86 30 42-74" />
    <path fill="#3a88c4" d="M973 513l44-18-12-1-20-4" />
    <path fill="#03050d" d="M995 607l-8 15 68 91-61-212" />
    <path fill="#ed7e23" d="M981 713l-26-19 52-24-32-22" />
    <path fill="#103a81" d="M696 473l-4 1 30-27-58 20" />
    <path fill="#0b1209" d="M658 559l-19-1 57 108-23 5" />
    <path fill="#15161d" d="M312 592l-47 11 174 22-84-53" />
    <path fill="#6b6b69" d="M533 455l59-6-87-15 5 48" />
    <path fill="#ffd0d7" d="M113 204l-2 4 1 96-6-96" />
    <path fill="#ffffb3" d="M734 446l-7 3-2 5 6 6" />
    <path fill="#12100f" d="M233 575l-6-59 62-27-87 25" />
    <path fill="#3b2c3c" d="M675 411l-4 44 80-11-50-25" />
    <path fill="#3e3153" d="M126 193l-33 10v111l-5-120" />
    <path fill="#392f2d" d="M723 499l-4 3 115 16-34-14" />
    <path fill="#3a272f" d="M345 516l47 8-61 31 61-57" />
    <path fill="#9cbfe4" d="M329 209l-30 14-2-7 35 5" />
    <path fill="#0c1424" d="M264 457l26-154 20 97-19 62" />
    <path fill="#e08b64" d="M84 539l-6 28 52-39h58" />
    <path fill="#17172e" d="M398 468l-130 22 159-47-45-10" />
    <path fill="#251c20" d="M702 494l-18 32 22-2 21 60" />
    <path fill="#151c19" d="M556 480l-47-4 27 100-2-46" />
    <path fill="#d1752e" d="M115 510l-63 2-79 19 72-11" />
    <path fill="#b3d5a2" d="M591 475l55 5-19 20 8-60" />
    <path fill="#8b6175" d="M126 535l-12 36-49 11 25-24" />
    <path fill="#727b4d" d="M182 451l12 1 15-1-4 15" />
    <path fill="#0c1726" d="M1009 383l46-86-97 83 39 51" />
    <path fill="#9ac4f0" d="M678 259l-136-40 184-30-46 22" />
    <path fill="#3a688a" d="M629 411l3-16-39-10 10-29" />
    <path fill="#0e265a" d="M627 701l-319 12 212-71-23 2" />
    <path fill="#546f54" d="M591 412l4 51-8 31 13-82" />
    <path fill="#66bfff" d="M950 112l105-17-31 80-152-15" />
    <path fill="#74380c" d="M612 592l24 11 11-29-1-19" />
    <path fill="#101116" d="M860 610l4 16-87-48 124-28" />
    <path fill="#24171f" d="M534 571l2 6 9-10v88" />
    <path fill="#edfff1" d="M754 532l16-2 2-21-18 6" />
    <path fill="#5c8776" d="M32 366l16-6-1 10v3" />
    <path fill="#7eb096" d="M326 334l3 19 10-17-8-4" />
    <path fill="#2c3460" d="M369 232l-48 5-8-56-20 34" />
    <path fill="#755571" d="M59 243l2 22v47l-11-77" />
    <path fill="#357fc5" d="M509 412l-2-14-63 19 39-4" />
    <path fill="#f6cdb0" d="M187 311l-6-34-45 31-6-35" />
    <path fill="#0e101a" d="M412 576l3 23 28 114 14-133" />
    <path fill="#55536c" d="M415 520l56-30-57 10-12 23" />
    <path fill="#0c2851" d="M860 385l16 8-10 3-26-2" />
    <path fill="#3b333c" d="M364 323l40-21 47 25-48-5" />
    <path fill="#9fd9ff" d="M908 110l131-18-182-23-19 78" />
    <path fill="#f1c846" d="M100 530l-5-49-41 17 36-25" />
    <path fill="#bf8463" d="M211 300l-46 16 51-48h-11" />
    <path fill="#70393e" d="M313 574l-20-24-44-8 10 23" />
    <path fill="#f0d111" d="M227 487l20 1 19-9-23 2" />
    <path fill="#16224b" d="M493 408l-122 10-32 2 73-17" />
    <path fill="#9e5242" d="M306 464h-6v12l-22-1" />
    <path fill="#0f4290" d="M500 432l99-29-67-3-65 22" />
    <path fill="#cf9c75" d="M379 193l18 1 10 6-46-5" />
    <path fill="#d1c119" d="M597 579l1-11-3-7-5-2" />
    <path fill="#85a69e" d="M346 242l-30-8-15-5 18 12" />
    <path fill="#c4d1c4" d="M559 224l36 41-42 5 34-35" />
    <path fill="#a0764f" d="M314 507l-36-12 11 8 16-22" />
    <path fill="#fffb8c" d="M1055 295v23l-53 1 1-7" />
    <path fill="#141614" d="M336 598l-4 71 237 44H369" />
    <path fill="#e3f9ef" d="M381 340l14 6-2-1 53-2" />
    <path fill="#323453" d="M527 251l11 8-2 14-7 52" />
    <path fill="#a58c9f" d="M996 248l37 23 7 4-50-10" />
    <path fill="#8f865f" d="M535 510l-19 12-7-3 2-6" />
    <path fill="#254f8b" d="M252 650l19-65-23 25 28 45" />
    <path fill="#ea914d" d="M615 300l-10 3 26 20-1-15" />
    <path fill="#895a00" d="M63 492l-5 8-10-14 42-24" />
    <path fill="#ba6ea8" d="M378 249l32-1 87 23-82-3" />
    <path fill="#e19345" d="M658 554l25 33h-24l21-20" />
    <path fill="#ffe363" d="M60 541l20 4 42-16-75-9" />
    <path fill="#92b088" d="M823 435l38 8-16-12-31 25" />
    <path fill="#16407c" d="M921 378l-132-15-60 13 62-4" />
    <path fill="#0f0f1c" d="M178 551l114 20-36 6-125-17" />
    <path fill="#cc711d" d="M344 527l46 45-40-19 9-36" />
    <path fill="#274e9d" d="M163 572l44-1-35 40-17-27" />
    <path fill="#dcfddb" d="M755 547l18 21-3-20-13 18" />
    <path fill="#a2bbbd" d="M771 284l4-26 88-11-73 18" />
    <path fill="#499dd7" d="M831 397h22l-95-20 98-4" />
    <path fill="#6f80b0" d="M603 263l1 35-16-47 77-8" />
    <path fill="#d2ffea" d="M373 440l7 1-14 10-10-7" />
    <path fill="#ff9e26" d="M545 596l48 13-9-13-17 24" />
    <path fill="#252e38" d="M-31 292l144 53 74-16-149 9" />
    <path fill="#1b385d" d="M155 593l25 45-52-20 11-33" />
    <path fill="#4c261d" d="M301 569l40-45 8 39-31-38" />
    <path fill="#7c9f81" d="M909 583l-31 42 5-40-5-13" />
    <path fill="#a7d9c0" d="M360 495l48-6-10 13-13-17" />
    <path fill="#98d3ff" d="M571 120L285 88l162-47 200 13" />
    <path fill="#393b63" d="M609 695l142-39 79 57-241-58" />
    <path fill="#c84732" d="M838 653l4 22-76-59 2 30" />
    <path fill="#d17e88" d="M147 203l3 83 14-3-4-95" />
    <path fill="#644946" d="M340 399l-16-18-1 10-10 6" />
    <path fill="#cb415b" d="M269 291l-20-1 14-10 8 1" />
    <path fill="#0f1c3e" d="M540 420l-28-5-21-1-12 4" />
    <path fill="#abc0e6" d="M249 194l-40 11-194-61 174 8" />
    <path fill="#030005" d="M842 713l4-69h-10l24 69" />
    <path fill="#2a3867" d="M358 278l-42-15 50-63h19" />
    <path fill="#eff3e2" d="M530 244l7 10-64 11 1-20" />
    <path fill="#92d3d1" d="M665 430l-66-3 74 10-7-55" />
    <path fill="#98a79c" d="M946 591v27l-16-14-4-5" />
    <path fill="#f5a72c" d="M817 646l23-34v32l-4-4" />
    <path fill="#442f19" d="M520 551l-164-30 159 25 5 41" />
    <path fill="#445fa5" d="M597 275l99 5 11-30 8 12" />
    <path fill="#6a726b" d="M632 574l-34-12 5 18 16-24" />
    <path fill="#13181d" d="M897 548l7-24-105 29 76-44" />
    <path fill="#2a2925" d="M832 631l-5 1 4-155-3 37" />
    <path fill="#90d4ff" d="M359 10L6-16l-37 143 285-26" />
    <path fill="#265e9f" d="M787 410l25 3 18-18-24-6" />
    <path fill="#925936" d="M238 532l-4-2-10-4 55-30" />
    <path fill="#563b5f" d="M83 506l-114 8 72-18 53 10" />
    <path fill="#232645" d="M971 322l-53 28 79-35-38-34" />
    <path fill="#7a7571" d="M616 536l5-7 9-3 70 8" />
    <path fill="#d9bd6c" d="M516 552l-52 8 5-7 15 19" />
    <path fill="#1c1a19" d="M496 557l-90-65 12 27 32 31" />
    <path fill="#6d856c" d="M892 504l7-17 11-84 1 58" />
    <path fill="#997d7d" d="M16 249l-47 17 46 22 5-51" />
    <path fill="#af8052" d="M976 330h-14l41-13-28 19" />
    <path fill="#8f9e68" d="M352 703l-21 7 43-58-9 2" />
    <path fill="#424542" d="M887 500l1-20-49-17-12 1" />
    <path fill="#41635a" d="M843 437l-14 15 20-5-6-56" />
    <path fill="#05102d" d="M905 398l18-26-39 5 30-21" />
    <path fill="#7fa6a1" d="M340 276l-60-8 67 1-4 12" />
    <path fill="#7998be" d="M690 403l49 13-78-3 51-11" />
    <path fill="#3e66ac" d="M442 315l9 14 48-5-26-9" />
    <path fill="#0f0f20" d="M233 713l12-65-138 41 224-11" />
    <path fill="#1a2f6f" d="M935 245h47l-15 68 4-63" />
    <path fill="#1d2120" d="M729 530l-55 32 56 2-36 71" />
    <path fill="#0777bf" d="M740 372l17 12-56-2 31-8" />
    <path fill="#acd7d5" d="M593 390l2-12h-14l5 7" />
    <path fill="#212538" d="M655 332l63 1-14 32 59-47" />
    <path fill="#836371" d="M399 206l-22 90 48 18-22-25" />
    <path fill="#0e1119" d="M610 538l-27 33-11-77 54-10" />
    <path fill="#29252d" d="M794 421l5 4 11 49 7-58" />
    <path fill="#182b45" d="M319 331l-156 21 184-63-27-18" />
    <path fill="#42536a" d="M58 299l-28-6 45 43 42 24" />
    <path fill="#7db5ee" d="M708 227l119-40 228 20-265 31" />
    <path fill="#636f55" d="M873 509l-35-7 59-44-35 7" />
    <path fill="#ffb070" d="M475 243l-6 5-33-1-17-7" />
    <path fill="#5e7b60" d="M581 421l-10 76-2-11 16 2" />
    <path fill="#abe3ff" d="M780 47l-85 37 108-9 192 24" />
    <path fill="#4590bc" d="M688 395l-100-24 75-1-25-19" />
    <path fill="#959541" d="M485 329l-4-15 3 2 14-11" />
    <path fill="#4a3a36" d="M214 494l49-58-43 26 22 27" />
    <path fill="#d7d6e7" d="M776 167l-362-9 86 33 257-15" />
    <path fill="#6070a9" d="M451 478l-34-1 37-31-23 20" />
    <path fill="#091624" d="M143 377l205 9-227 10-18-51" />
    <path fill="#0658b9" d="M1049 373l-49 17 14-13 25-33" />
    <path fill="#2b2639" d="M418 627l252 46 20-30-136-15" />
    <path fill="#6eb2ae" d="M846 464l-36-4 66-15h-7" />
    <path fill="#aabf94" d="M602 459l-18 15 22 5 44-8" />
    <path fill="#753212" d="M1003 639l-46 9-7-41 22 18" />
    <path fill="#141a34" d="M368 352l90 31-154 28 128-65" />
    <path fill="#ac4835" d="M541 607l6-4-2 33 19-15" />
    <path fill="#8b96a0" d="M561 234l18 2-34 38h-11" />
    <path fill="#a576f6" d="M419 279l10-30h-15l2 17" />
    <path fill="#7fc6d6" d="M620 417v-20l12-12-34 4" />
    <path fill="#66beb9" d="M373 337l3 10 5 5v-25" />
    <path fill="#f8ed05" d="M56 499l13-19 19 16h-1" />
    <path fill="#f1a54a" d="M583 317l-38-13 6 19 30-17" />
    <path fill="#28140d" d="M634 599l109 19 57 3 20-16" />
    <path fill="#d2e3d2" d="M829 419l5-15 33 12-40 1" />
    <path fill="#c2def5" d="M494 120l-131 47-64 14-84-66" />
    <path fill="#41779e" d="M906 396l2 19 37-32-114 19" />
    <path fill="#96554d" d="M199 501l-9 44-11-9 28-28" />
    <path fill="#39242b" d="M374 192l-29 2 34-6 17 7" />
    <path fill="#15101e" d="M405 509l-135-2 86 5-76-36" />
    <path fill="#7689ad" d="M751 493l-58-4 75 12 73-1" />
    <path fill="#9ac3c4" d="M680 378l-3-24 1 32 26-13" />
    <path fill="#87cafe" d="M166 86l238-29-317-9-118 24" />
    <path fill="#3f3542" d="M484 408l-109 4 43-20h88" />
    <path fill="#536e9e" d="M777 247l19 34-12-42-29-3" />
    <path fill="#232d40" d="M872 388l-1-4 105-5-30 7" />
    <path fill="#fcad3b" d="M905 617l-47 7-9 15 43-6" />
    <path fill="#234c91" d="M465 365l105-49 45 23-129-19" />
    <path fill="#3e4955" d="M882 402l-93-2 116 10-1-22" />
    <path fill="#191315" d="M602 662l-12-75 12 37v36" />
    <path fill="#1b418c" d="M116 618l-45 61 74-23-28 57" />
    <path fill="#31416c" d="M70 308l-10 18 68-23 59 25" />
    <path fill="#161f2e" d="M236 585l13 9-3 68 21 37" />
    <path fill="#6386aa" d="M555 364l17-13 1 10-51-19" />
    <path fill="#c5ddaa" d="M692 534l-59 24 22-24 29 22" />
    <path fill="#5393d3" d="M785 358l-18 12-10-9 125 2" />
    <path fill="#131012" d="M303 516l17 39-61-12-27-10" />
    <path fill="#f7d79d" d="M602 593l21-17-16 23 24 4" />
    <path fill="#2a2b3c" d="M666 488l-2-8 74-2-68 21" />
    <path fill="#7a8ca5" d="M324 218l-64-2 73-106-78 115" />
    <path fill="#76bffe" d="M779 151l-121-8 66-29 99 2" />
    <path fill="#8b4d21" d="M598 590l-38-22-2 32 13-17" />
    <path fill="#cfe3c8" d="M894 446h-15l1 8v2" />
    <path fill="#dcffdc" d="M740 527l-2-14-16-2-10 12" />
    <path fill="#3c3246" d="M673 412l1 52 58-45-23-5" />
    <path fill="#b0caf1" d="M327 95l-9 127 15-1-10-171" />
    <path fill="#d34880" d="M476 252l-1 1-29 20 4-32" />
    <path fill="#dbbacb" d="M42 293l13 5 19-23v19" />
    <path fill="#4a7472" d="M189 345l81 1-68 6-1-2" />
    <path fill="#3c5cb3" d="M770 263l-7-14-9 29 15 5" />
    <path fill="#fa8b3a" d="M850 655l-1 9 119 26-91-32" />
    <path fill="#62943c" d="M944 544l-16 7 18-39 25-4" />
    <path fill="#7c9197" d="M708 312l-3 12-15-4 27-9" />
    <path fill="#99d8c0" d="M375 451l10-1 2-9-35-5" />
    <path fill="#7573a3" d="M1011 491l-3-66-7 89 8-8" />
    <path fill="#e3af9f" d="M97 277l23-27 4 53-24-48" />
    <path fill="#151e30" d="M245 474l-41-164 23 52 30-38" />
  </g>
</svg>