<svg version="1.1" viewBox="0 0 1024 682" width="1024" height="682" xmlns="http://www.w3.org/2000/svg">
  <path fill="#66788a" d="M0 0h1024v682H0z" />
  <g fill-opacity=".5">
    <path fill="#d3ffff" d="M1055-3v259L-31 235.4v-237" />
    <path fill="#170e0c" d="M-31 301v386.3L1043.6 713l-11-393.8" />
    <path fill="#16112c" d="M405 188l-146.7-20L111 468.3 298.5 702" />
    <path fill="#ffbc12" d="M1054.6 713L903.2 567.6 867.5 608l-157.2 28" />
    <path fill="#6094ae" d="M985.6 392.2L671.4 578 464.2 366.3 326.8 321" />
    <path fill="#bcf9ff" d="M1055 1.5L-31-.2l424.8 186.5 29 138.7" />
    <path fill="#ffc83d" d="M174.5 518l-86.3 43.4-86-18.2L73 475.5" />
    <path fill="#000010" d="M378 370.6l-409-42V469l233 23.3" />
    <path fill="#c16215" d="M718.2 572l-127 54L271 560l83.5-25.4" />
    <path fill="#b0d3aa" d="M706.3 374l-106 214.3 93.7-47.6-172.3-118.3" />
    <path fill="#6cc0ff" d="M1055 73.2l-35 213.6L271.3 25.3l500.4 54.2" />
    <path fill="#dc8b97" d="M9.2 275.6L129.4 181l136 99.5L170 318" />
    <path fill="#000005" d="M475.4 713l-227.7-89 193-61.6 68.3 34.4" />
    <path fill="#beffff" d="M262.6 36.3l780.6 72.2-3.4-131.6-654-8" />
    <path fill="#0d0701" d="M848.2 504.6l53 18.5-47.5 107-240-46" />
    <path fill="#1a3ca0" d="M283 581.4l-314-43.6v117.5L67.6 713" />
    <path fill="#2779cf" d="M458.6 394.5l289.2-52.2 135.5 2 21 50.6" />
    <path fill="#1e1a3c" d="M808.3 394.7l14.7 90-135 26-21.5-93" />
    <path d="M1019.8 381l20 332-105-151.3 74.4-38" />
    <path fill="#ffe728" d="M846 658l55.4 22.4 81.6-13L868.4 603" />
    <path fill="#7b4950" d="M388.4 318L971 235.4l25.5 15.4-50 69" />
    <path fill="#99d9ff" d="M670.5 29l-333 156L-31 162.4 0-31" />
    <path fill="#000027" d="M886 321.4l-39-7L959.4 436l84-95.3" />
    <path fill="#dfc7ee" d="M603.6 268.3l-202.8-6.8 1-164L745.4 167" />
    <path fill="#090600" d="M617.4 479.4l-168.7 15 127.8 71 66.5-50.6" />
    <path fill="#80b9fb" d="M1051.6 78L537.8 218.6l77.2 48.6 251.6-.7" />
    <path fill="#59906c" d="M1018.6 427.8l-80.8 179.4-16.8.3-91-179.2" />
    <path fill="#ff8e99" d="M493.3 316l-20-79-77-4 7.5 69.7" />
    <path fill="#d2f5d2" d="M780.4 521.6L757 500.8l-4.4 68.2 16.6 5.3" />
    <path fill="#fff29b" d="M479 561.4l32.5 28.2 5.2-5.6 8.2-64" />
    <path fill="#2f6fc7" d="M512.8 390.3l9 49-220-45.7 60.5 62.2" />
    <path fill="#302841" d="M99.8 298L110 196.6 82.6 188l-4.8 127" />
    <path fill="#000b21" d="M353.6 708L175.2 594.7l-64 57.8 51.5 52.6" />
    <path fill="#ffa747" d="M55 546.5L-9 519l202.4-16-122 65" />
    <path fill="#e18a51" d="M794 315.3l168.8-1.3-22-39-136.5-8.2" />
    <path fill="#210f1c" d="M765.5 694.5l-56.7-195-45.7 109L498 639" />
    <path fill="#112a5f" d="M684.6 349.6l57-74.7h-50l-443 138" />
    <path fill="#d9ebff" d="M695 142.6L284.6 95 323 225.2l27.6-61.2" />
    <path fill="#5f3b61" d="M660 330.8l-278.4-77.5 131 16.5 29-25" />
    <path fill="#ffc6b3" d="M185.4 307.3l-87-21.6 23.8-55 56.5 2.6" />
    <path fill="#183c88" d="M831 248.5l119.5 11.3 24.7 113.8 12.5-137" />
    <path fill="#3c5175" d="M401.6 223.8l-24 141.7-123-9.5 110.8-204.7" />
    <path fill="#170c10" d="M504.5 522.4l-7-86-89 108 14 59.4" />
    <path fill="#804e36" d="M311.6 467.8l-159.4-9.5 115.4-12-227.8 151" />
    <path fill="#190a10" d="M353 543.7L13 369l96.7 144 81-14.2" />
    <path fill="#a1bf9f" d="M516.2 466.7l-9-27 219 33.7L594.7 484" />
    <path fill="#396fb0" d="M646.6 365l-293.3-20.7 99.3-26.5 153.2 7.7" />
    <path fill="#96d2ff" d="M240.7 272l-5.5-119L560.6 32.8-31-6.2" />
    <path fill="#ffffe6" d="M720 534.7l-4-33.4 27 6.7-5.8 21.6" />
    <path fill="#ff8614" d="M426 581l-125.5-16 50.4-21.3 46 13.5" />
    <path fill="#21236f" d="M313.3 187l-35-21.8-47.2 28 66 66.6" />
    <path fill="#ffb850" d="M610.4 597.3l-50-14-21.3 53 120-96.5" />
    <path fill="#ff803e" d="M764.2 639.6L829 600l-8.2 11.5 22.6 50.2" />
    <path fill="#a7d5cd" d="M362.5 495l-7.8-13.8 98.8 16.7-71.7 1" />
    <path fill="#ffeb37" d="M99 466.6L64 550l71-21-85.3-40" />
    <path fill="#050214" d="M146 370.7l-177 6.6 7.4 152.6 140.2-81" />
    <path fill="#ffd78b" d="M979 268.6l45-3.5-29.7 53 36.5 6" />
    <path fill="#19295d" d="M545 296.4l-166.3 199 138.4-225 283 28" />
    <path fill="#c8aa6a" d="M666 583.8l-19.5-72.4 43.3-7.8.5 88" />
    <path fill="#99bd99" d="M821.6 407.5l48.7-10.2L806 519l36.3-16.3" />
    <path fill="#ffa854" d="M587.6 301.3l-58.8-4.7-4.6-3.3 42 32.5" />
    <path fill="#050812" d="M736.2 538.3l46 14.4 77.4 77 30.7-116" />
    <path fill="#a42403" d="M972.8 623.4l49 39-8 50.6-96-98.4" />
    <path fill="#56afff" d="M1055 234.8V108H921.4l-12.8 140" />
    <path fill="#c7ffff" d="M949.7 87.4L503 23l511-54 41.2 131.6" />
    <path fill="#002b7f" d="M476.4 378.5l19.3 54.4 121-37-156.5-3" />
    <path fill="#0b2242" d="M813.6 336.4l-33-47.7-30 89-169.4-35.2" />
    <path fill="#131022" d="M409 348.7L283.5 406l197.5-1 9.4-34" />
    <path fill="#ffffd6" d="M409.5 306.4l78.8 7.5 8.5-3-33.8-37" />
    <path fill="#775379" d="M228 505.6L73 609l-104-96.2 134.7 41" />
    <path fill="#749ea4" d="M363.8 366l157-49.6-120.6 20.2-81.5 20" />
    <path fill="#eeffe3" d="M368.3 436.3l-14 2.2 1.5 11.8L392 448" />
    <path fill="#122571" d="M561 654l282.6 29.6L420.8 713l68.5-66.5" />
    <path fill="#d8952e" d="M264 459.5l-8 1.3-11 10 19.6 60.7" />
    <path fill="#5073a2" d="M191 226.8l104.3 75-115-16.8 9-54.6" />
    <path fill="#e6ffdb" d="M624.2 482.7L631 459l40 4-16 28" />
    <path fill="#6aa7c5" d="M665 368.2l73.3 47-18.4 3.2-182-30.6" />
    <path fill="#ffc91d" d="M848.6 637.3l74-18 22.6 52-94.8 2.7" />
    <path fill="#4c3c37" d="M721 415.5l163.5 4.8-217.6 39-45-4" />
    <path fill="#192535" d="M1008.3 423.8l-2-4L892.7 451 992 288" />
    <path fill="#080b11" d="M466.8 598.3l-192.2-30.8-45-5 226.6 128.8" />
    <path fill="#18427b" d="M260.2 574.6L159.4 670l56.8-10.4h55.6" />
    <path fill="#597ab1" d="M1010.4 506.3l-31-16.6 12 31.5 21.2-168.6" />
    <path fill="#86252e" d="M926.3 682l-.3 31-169-63-92-50.8" />
    <path fill="#a46a8f" d="M340 322l43-67 80-14.6 14.8 27" />
    <path fill="#332a1b" d="M650.4 558.2L608.2 602l111-74.4 109.7 16" />
    <path fill="#361f16" d="M274.5 481.6l-153 87.4L378 534.7l-38.6-79" />
    <path fill="#94c0ff" d="M72.5 287.7L105-31-31 185.4l106 69.4" />
    <path fill="#f89934" d="M552.2 614.2L581 575l29 58 19-39" />
    <path fill="#e4f5ea" d="M419.4 337l38.5 2-10 9.7-68-8.7" />
    <path fill="#69354b" d="M0 232.5L33.2 255l13 45.8L-30 303" />
    <path fill="#65888d" d="M138 359.7L66.4 325l56.4-4.5-43 50.6" />
    <path fill="#1a1a21" d="M513 571.5l146-87L848 513l-267.4-22" />
    <path fill="#c0d0f6" d="M351.8 135.5l-115.6 46-186.5 15.2L197.4 84" />
    <path fill="#b9562f" d="M426 536.4l-154.7 30.8 86.3 12.2 21.7-74" />
    <path fill="#1e1a5d" d="M332.7 250.7l5-64.4 26.8-16 11 80.6" />
    <path fill="#568579" d="M952.7 618.8l27-39.4-131 47.6 49-59.8" />
    <path fill="#eb874a" d="M766 321.6l-86-2 94.3-18.7-22.4 20" />
    <path fill="#ff8e50" d="M622.4 319.8L599 301l42-3.8-3.3 1.8" />
    <path fill="#d9dbed" d="M343.4 144l76.7-16 395 51.3L396 200" />
    <path fill="#050309" d="M994.3 582.7l29 130.3 31.7-205-131 46" />
    <path fill="#4b1f37" d="M34.7 531.6L88 502l-34-5.3 7.6-46.6" />
    <path fill="#264287" d="M874 243l-29.6 47 60-29.8-8-32.6" />
    <path fill="#86ccff" d="M689.6 168l337.6-51.8L843.6 72 511 78" />
    <path fill="#000009" d="M840.7 577.7l.3 71.7 11.6 55.2-13.3-168" />
    <path fill="#dd9143" d="M678.3 609l71 9 92.4.8-.7 25.2" />
    <path fill="#849bb5" d="M665 205.5l84.4 87.6 55.4-3-11.4-50" />
    <path fill="#87af98" d="M884 508l47.6 37-16.4-4.3-35.8-130" />
    <path fill="#3d90cc" d="M814.4 417l-24-36.4 102-37V355" />
    <path fill="#001d46" d="M697.3 336.5l159.3-24.2 106 36.8-89.6-2" />
    <path fill="#f46221" d="M1008.4 660.4l29 49.5-83.8-26-97.2-11" />
    <path fill="#f7b2c1" d="M75.8 230.6l4.5 11.5-37 52 33.2 5" />
    <path fill="#371518" d="M590.2 608.2l-1.2-45.5 21.3 74.3-108.7-5.2" />
    <path fill="#424c49" d="M955.7 466L881 355.4l14.4 120L730 556.6" />
    <path fill="#cacf9b" d="M669 549l-73.3 22.5 67-56.4-29-12" />
    <path fill="#1a140f" d="M690.7 579.5l4.4-78L787 623l-136-22.8" />
    <path fill="#1e272c" d="M687 351.5L520.3 354l75-15.5 224.8-24" />
    <path fill="#654547" d="M972.7 333.4l-29.6-15 78-39-29 51.6" />
    <path fill="#223e43" d="M162.8 383.2l201.6-28.8 15.4-23.3-167.5-44" />
    <path fill="#a4b9c0" d="M521 239.4l19-14.4 331 26.3-305 19.3" />
    <path fill="#283439" d="M975.4 557.3l1.4 136.4-16.5-90.2-37.4-48" />
    <path fill="#08265c" d="M646 488.3l196-2.8-85.5-39.7-45.2 27" />
    <path fill="#87d2ff" d="M19-31L522.4 84l-321 13.7-232.4 22" />
    <path fill="#20509e" d="M309 446.7l203.4-40-209 2 59 51.8" />
    <path fill="#0c3c7f" d="M752 358.4l-87.7 33.2 151.5-5.6-53-3" />
    <path fill="#d78f5f" d="M793.5 297l102.2 26.7 67.3-64.3-18.3 50.2" />
    <path fill="#0d1311" d="M590 567l49.7-61.7L623 478l-67.6 27.8" />
    <path fill="#cfb16c" d="M512.2 506.8l-13.4 61 31.5-23.6-12-33.3" />
    <path fill="#5786c1" d="M718.7 459l-13.4 36.7 81.3 3-135-23" />
    <path fill="#6b6664" d="M504.3 592.7l62-.4 13.7-14-3-42" />
    <path fill="#ce5f00" d="M165.4 534.6l-122-40.2 147 20.5-26.6 14" />
    <path fill="#fceecd" d="M543.6 241.4l-83.5-7.2 30 42 51-28.8" />
    <path fill="#4c7f89" d="M376.6 311.7L332.3 256l25.3 112.5-36.8-28.4" />
    <path fill="#b87999" d="M180.4 241.2l-53 .3-29-51.4 83.4 4" />
    <path fill="#f2adab" d="M112 295.8l25.8 10.4 29.8-43-61.6-67" />
    <path fill="#a2c7b5" d="M410.2 477.6l-8 28.6-26.8 8.3 17 14.7" />
    <path fill="#b78656" d="M308.4 510.8l1.3-29.2 4.6-2.3L292 501" />
    <path fill="#1d4193" d="M-31 601.3L77.7 713l61-92-112-60.6" />
    <path fill="#42477b" d="M724.7 269.7l63.5-29-57.2 67-268-27" />
    <path fill="#ffe65e" d="M22.6 540.2l33.6-16 73.6-12L104 543" />
    <path fill="#b16635" d="M279.4 516.7L234.6 532l.3-22 21 7.7" />
    <path fill="#1c1718" d="M494.2 664l-92.6-110 101-5.7-99.7-66" />
    <path fill="#8ebeb2" d="M626.8 413.2l-171.5 19.2 125.5 2.6 48 25.7" />
    <path fill="#b7c6eb" d="M247 121.4l-84.7 18.2L199 251.8l37.6-23.6" />
    <path fill="#7d3419" d="M397.5 562.5l-81.2-21.2 34-25 95.5 18.3" />
    <path fill="#4073dd" d="M1055 286.3v21l-52.3 88.7 52.3 5.6" />
    <path fill="#5b9dc6" d="M678 350l171 13.4-197-5.4 19 101" />
    <path fill="#d9fed9" d="M777.2 509l-27 3.2 4 12.3 17.2 15.2" />
    <path fill="#3e6eb4" d="M510.2 397.6l148-46-134.7 13-46.2-4.2" />
    <path fill="#1a162c" d="M269.6 488l162-12L175 412.5l79.8 36.5" />
    <path fill="#e9b028" d="M406.4 564.2l5 22.8-22.3-10.4-90-25" />
    <path fill="#e9ffed" d="M826.6 430.6l14 7.7 24.3 2.3-8-11" />
    <path fill="#ffef7a" d="M997 316.6l-1-13.5 59 5v14" />
    <path fill="#0f1b3c" d="M414.4 419L513 295.6l34.4 18.5-212.6 69" />
    <path fill="#5d8720" d="M894.8 641.5l14.8-62 51.8-79.5-41 107.2" />
    <path fill="#44899d" d="M1055 493.7L980 506l-16-60.3-33.4 44.6" />
    <path fill="#0e0d10" d="M287.3 544.8l111-49.4-111.2 9-41 35.6" />
    <path fill="#050c22" d="M148.2 531.2l23.2 34 138.7 15-190-40" />
    <path fill="#37536d" d="M621.2 421.7l69.6 1.5-20.4-45.7 18 20.4" />
    <path fill="#9ac8bc" d="M344.5 270.3l-11-2.4h-40l23.5 9" />
    <path fill="#ebc383" d="M613.6 599l10 5.3-18.7-47-5 41.2" />
    <path fill="#16254d" d="M361 322l87.2-12-26 26.6-164.4-10" />
    <path fill="#1a161d" d="M717 685.8L628.6 530l32 98.5-95.3-9" />
    <path fill="#d74e2b" d="M568.3 625.4l-57.2-46-4 53 49-42.4" />
    <path fill="#9ca389" d="M737 460.8l-14.8-5.4 15.5-17.5-18.7-37" />
    <path fill="#7d696c" d="M876.7 297l-36-61.4h-22.2l-4 50.6" />
    <path fill="#77854f" d="M341 692l48.5-47.2L316 692l-8.5-49.8" />
    <path fill="#a96023" d="M634 594l27.3 2.3 6.7-68 25.7 60.5" />
    <path fill="#ffd200" d="M272.6 480.4l-10.4 4.2-3 16-19-18.5" />
    <path fill="#0e1920" d="M208.2 689.5l-3.3-104-63 55-1 72.5" />
    <path fill="#041124" d="M998.2 414.8l19-51.3L868.7 353l135.5 71" />
    <path fill="#5b544c" d="M502.2 440.6l40.4 24.6 9.8 31-2.5-72" />
    <path fill="#1e1e2d" d="M158 448.3l9-149.6-23 9.3 185 155.4" />
    <path fill="#ffe61f" d="M912 632.2l-65.6 14.3 71.7 21 20-77.5" />
    <path fill="#581a07" d="M946 627.2l-15.3 31.2 69.5-45.7-93 20.7" />
    <path fill="#111619" d="M827 554l78.4 23-39.7-52-103-24" />
    <path fill="#f03580" d="M467 261l-43.3-5.8-9-16.2 55.5 11" />
    <path fill="#cfebdc" d="M823 417.2l42-3.6-37.5-13.8 3.3 15.6" />
    <path fill="#2152a5" d="M492 322.3l-37.6 15-5.7 9 176-24.8" />
    <path fill="#b1dfff" d="M627.4 131L-2 121l312-36.3 277.8 23" />
    <path fill="#242426" d="M370.5 532.7l223.7-27.4-73.8 58.3 31-101" />
    <path fill="#71a492" d="M795.4 497.8l27 24.2 10-16.5-2-30.2" />
    <path fill="#335f7b" d="M883.6 367.7l56.3 18.8-9 25.2-104-7" />
    <path fill="#272031" d="M737.4 395.5l45-.3-61.6 79 76-3.3" />
    <path fill="#4d415b" d="M769 652.4L724 713l-21-95 33.3-7.2" />
    <path fill="#c9ebce" d="M753 552.4l23.5 14.8-6-18.6-15.5-3.8" />
    <path fill="#ffa544" d="M543.3 321.5L573 297l12.4 21 .7-3.5" />
    <path fill="#100c13" d="M545.3 606l-1.3-83.7-4.8 79.7 3 25.8" />
    <path fill="#c3d8f1" d="M225.8 132l87.3 55 18 38.3 13-118" />
    <path fill="#f6fff2" d="M721.5 504.2l14 2.2 4.3 12-26.8 10.2" />
    <path fill="#6f4d5d" d="M238.5 317.8l4.3-142.6L275 295l-32.5 13" />
    <path fill="#172b48" d="M394.5 375.3l-25.4 3.5 13-35.6 164 15.5" />
    <path fill="#ebc16c" d="M847.5 639.4l53.6-18 2-48.7-16 37.5" />
    <path fill="#464441" d="M729.3 452.7l-37.7-18.5-70 2.5 21 22" />
    <path fill="#d8e9bf" d="M721 398l-24 12-8.6-.6-2.2-14.2" />
    <path fill="#ffdc25" d="M70.4 478.5l24-1 2.5 13.2-25 15" />
    <path d="M878.7 674l-37 34.5.4-110 6 75.7" />
    <path fill="#5c5361" d="M109.2 297.8l-3.6-72.6-30.8-38.6 18.6 126.6" />
    <path fill="#5672a3" d="M418.7 473.8l33.8 6-14-60.4 28-10" />
    <path fill="#1a182b" d="M106 460.4l245.8-21.6L108.6 359 87 492.8" />
    <path fill="#654577" d="M404.7 218.4l-12 49.4-43-77.7 45.8-3" />
    <path fill="#85c2fb" d="M916.2 81.3L731 262.5l-12.3-76.7 86 80" />
    <path fill="#12418f" d="M718.5 487.7l-13.2-5.4 88.8 17.2 57-38.8" />
    <path fill="#dbd0ce" d="M720 275l-33-1.5 28.4-8.6 1.5-102" />
    <path fill="#171c1f" d="M297.4 530.6l32 149L477 614.8l-95.2 82.4" />
    <path fill="#150013" d="M1009.6 479.7l4-74.7 21.6-14 19.8 132.2" />
    <path fill="#fff1d1" d="M994 285.5l16.8-7.6-10.3-13-21.6 16" />
    <path fill="#172d5c" d="M1055 295.6l-99.3-10 16.6 75-74-38" />
    <path fill="#263859" d="M114 356.7L-2.7 340.2l-28.2-42 77-2.4" />
    <path fill="#6b8c73" d="M508.7 434.6l12.7-4.7 95.3 24-45.5 43" />
    <path fill="#c49554" d="M544.5 579l49.7 29.3-66.7-42.4 78 4" />
    <path fill="#ffb230" d="M848 669.2l126.2 3.7-6-38-1.4 12" />
    <path fill="#314f8d" d="M269.3 606.3l-.4-23.8-154-26.3 46 45.8" />
    <path fill="#7fdbed" d="M670.8 417l-61 18.6 58.3-2-10-60.7" />
    <path fill="#5c3b44" d="M516 633l-43-60.2 65 17.4-83 14" />
    <path fill="#aae7d7" d="M621 378.4l-.3 100.7-9-11-1-75" />
    <path fill="#275627" d="M1005.7 422l-3.5 64.4-29 10-15.6 27" />
    <path fill="#0c2d76" d="M96.6 713l50.5-44.7-178-44.7L11 713" />
    <path fill="#8babce" d="M535.7 382L523 393.3l-31.8-1-3.6-11.4" />
    <path fill="#9db4af" d="M674.7 493l-44.5 35.5L654 409l-8.2 149" />
    <path fill="#2b2130" d="M445.8 427.7l57.8 10.3 7.8 81.2-20 41" />
    <path fill="#153da5" d="M273 162.3l-14 16 63 8.7-35-15" />
    <path fill="#ffbd4c" d="M819.2 602l3.5 5.8-27.7 16.7 31 29" />
    <path fill="#0f397e" d="M1008 346l-70.8 3.4 52-20.3 38-11" />
    <path fill="#cd8a5e" d="M938 299.6l2-.6 50.3 29.4-15.4 4" />
    <path fill="#141c20" d="M275 701l36.4-26 1.6-40.3-43.8-104.5" />
    <path fill="#a5e9ff" d="M762.7 92.3L528.7 66 163.7.5 568-31" />
    <path fill="#d6bbd7" d="M415.4 192.6L427.2 322l-.8-18-25.3-21.8" />
    <path fill="#353540" d="M646.2 534.3l41.8-17.5 72.6 81L748 531" />
    <path fill="#79c6d2" d="M518.2 352.5l-11.5.4-4.7-7 40-6" />
    <path fill="#202d46" d="M699.8 274.8l-110.5 72.6 158 15.2-67 10.7" />
    <path fill="#5f5f9b" d="M520 280.7l-52.3 9.8L483 266l186.2 4.7" />
    <path fill="#533c4a" d="M198.5 537.4l6-16.6-71.2 33.5 210.5-1.2" />
    <path fill="#30566e" d="M969.2 562.8l24 38-.8 11-48.3-44" />
    <path fill="#19212d" d="M176.6 665l37-209.8L389 376.4 272.2 342" />
    <path fill="#daf2e5" d="M368.7 338.4l89.4 8-50-9.4-4-.2" />
    <path fill="#6496ce" d="M407 426l23.7-9 56-4.4-41.7 10.8" />
    <path fill="#edd78d" d="M512.6 577.8l15.6-1.7-20.5-22-31.7 5" />
    <path fill="#23579d" d="M952.2 439l-24.8-47.6L780 359.2l90.5-30.2" />
    <path fill="#9ab2e8" d="M-31 146.4l196.3 8-101.6 52L20.2 247" />
    <path fill="#324e91" d="M968.6 228.3l-15.2 36.3 2 64.2 40-77.2" />
    <path fill="#5faee7" d="M891.2 212.3l-40.7 59-1.8-32-129 3" />
    <path fill="#81c9ff" d="M785.3 182.4l269.7-83L806.8 94 544.2 83" />
    <path fill="#f2bfb4" d="M117.3 300l67.2-2.7-26-115 6.3 85" />
    <path fill="#38313f" d="M609.2 402.8L371 399.5l78.3 12 2.8-25" />
    <path fill="#9abbee" d="M881 168.6l-63 4-354.7 38.7 537.2 7" />
    <path fill="#191a1a" d="M513.3 559.3l93.2-4.8 20.2-43.6-33.2-34" />
    <path fill="#83c2c1" d="M695 373.7l48-11.3L631.4 400l-23 29.3" />
    <path fill="#c5d1c4" d="M83.6 332.8l26.3-1.6 8-6H90" />
    <path fill="#742a12" d="M74.5 499.3L201.7 519l33-29-26.7 13.7" />
    <path fill="#b6d8ca" d="M361.5 352.5l-16 11 16.7-.5 14.7.2" />
    <path fill="#f1f7d0" d="M703.6 250.8l4.4-3.6-12-25-1 45.6" />
    <path fill="#87b296" d="M777 462l20.7-7 39 8.7L921 444" />
    <path fill="#0027a4" d="M348.4 178.3l11.5-6 17 6 2 15" />
    <path fill="#fea134" d="M549.8 630.8L549 595l46.8 12.4L585 578" />
    <path fill="#915c2a" d="M465.8 553.4l-89.4 23 67-1.8-15.6-26.5" />
    <path fill="#131319" d="M775.4 611.2l128-92.4L866 586l-209.6-18" />
    <path fill="#aadabc" d="M411.2 494.5l-37.6 1.8-20-6.5 10-7.5" />
    <path fill="#120f1e" d="M220.3 486.6l-251.3-92 111 126-111-57" />
    <path fill="#cb6a68" d="M15.8 514.8l99 42-115-16 61.2-28" />
    <path fill="#4a5149" d="M799.6 457.2L744 393l82.5 48.8 148.7-10.5" />
    <path fill="#6e558a" d="M673.3 217.4l49.2 13-6 130.5 9.7-145" />
    <path fill="#7b7bb7" d="M168.7 188l14 17.4-101-12 78-8.3" />
    <path fill="#486eb0" d="M184.2 289.6l43-52 13 37.8-58.6-44.4" />
    <path fill="#262e4b" d="M320.7 492.6L456 464.2 379.8 438l119.6-27" />
    <path fill="#fadb22" d="M638 566.8l-3.2-19.6-24.2 10.8 6.3-5.7" />
    <path fill="#0a3a6f" d="M635 385l-2 10.8 27-7-9.2-4.4" />
    <path fill="#484740" d="M862.6 541.2l17.2-84.2-105.4 70.7 101-85.4" />
    <path fill="#86955d" d="M302.8 706l36.3-31.6 44-4.4-83 43" />
    <path fill="#21211b" d="M600 610l1.4-22.8-27.7-50.6 14.2 40" />
    <path fill="#6db9bc" d="M844 382.3l58-1.5-69.7-6.5-17.3 79.3" />
    <path fill="#262f49" d="M368 269.8l-82.4 35-100-20.8 109.2 57.7" />
    <path fill="#cfedd6" d="M641 513.4l22 26-21.5 22.2L668 509" />
    <path fill="#8a6260" d="M902.3 269.6l56-10.7-18.7 41L770 259" />
    <path fill="#2b272d" d="M826 566l-134.6-39 88 9-10.4-37" />
    <path fill="#213657" d="M639.6 491.7l-15 12.3L730 480l31.7-24.3" />
    <path fill="#85c8bd" d="M904.6 487.7v28L898 519l-16-17.5" />
    <path fill="#41518f" d="M6.4 588.5l120.5-16 20 1.7-40 65.4" />
    <path fill="#2965bf" d="M633 321l-15 2 1.5 13.3L539 329" />
    <path fill="#c55611" d="M416.2 536.6l7-4.4-50.8 44.8 31.5-45" />
    <path fill="#ff9b3e" d="M753.7 298.4L735 313.8l6.5 2.4 17.7 2" />
    <path fill="#2a2636" d="M356 434.7l-17.6 135.8L337 426l84.4 14.7" />
    <path fill="#c86e81" d="M39 300.7l41.4-54.5-50.7 2.4 3.4-7" />
    <path fill="#405271" d="M416.7 301l-62.5-32-37.4 58 92.7-39.6" />
    <path fill="#14202f" d="M943.6 304.4L875.3 369l122.2-26.3-49.5 127" />
    <path fill="#200904" d="M983.5 648l-39.8-30.7 111.3-6.5-8.8 36.8" />
    <path fill="#5a78c1" d="M420 452.3l.4-25-23.5 6 59 19" />
    <path fill="#00000f" d="M590.3 611L564 642l-.8 14.6 11.5-48" />
    <path fill="#183354" d="M754.8 287.7l43.8 51.2-2.8-42-10-10" />
    <path fill="#ab9192" d="M253.6 281l-92.8 13.6 92.7-4.5 21 19" />
    <path fill="#c1f9ff" d="M649 66.2l383.3 10.5L1055 9 630.3-31" />
    <path fill="#18161e" d="M385 603.5l-91 42 201-40.7 73.3 13" />
    <path fill="#4a7f6e" d="M984 412L883.4 553.7l92.3-15.8 10.6-104" />
    <path fill="#393054" d="M662.6 497l5.6 40 10-147.3 26 49.7" />
    <path fill="#b2c4e9" d="M371.2 195l147 32.6 339-46.6-347 4.3" />
    <path fill="#263453" d="M94.4 356.7l73.3-6.7-122.3-55 76.6 6.6" />
    <path fill="#ffa728" d="M800 621.3l43 15.7-12 16-41.2-9.2" />
    <path fill="#ffc00b" d="M151 517.3l-7.6 12L74 514l34.2-2.8" />
    <path fill="#8389a2" d="M627 284.8L543.3 231l56 15.5 7.7 51" />
    <path fill="#93d2ed" d="M599.7 403l-95 30 64.4-15 51-17.3" />
    <path fill="#ffded9" d="M501 250l-94.6-14-2.3 14 42-30.2" />
    <path fill="#3d7fbe" d="M565 353.5l-54-10.3 74 23 112.4-9.2" />
    <path fill="#f0872c" d="M371.7 572.4L321 546l2.5 25.5 44-40.7" />
    <path fill="#eeb183" d="M947.3 290.6l-4.5 19.6 12.7-3.3-9.2-52" />
    <path fill="#daf1de" d="M661.2 484.2l9.6-25-34.6 2.6 15 14" />
    <path fill="#2362ad" d="M369.2 404.2l-49 3.3-16 23 81.5-26.5" />
    <path fill="#a4cbf6" d="M156 87.8L39.3 108l70.3 74.6 31.8 22.8" />
    <path fill="#af7445" d="M488 570l2-5-29.6-14.6 1 39.5" />
    <path fill="#9cbfab" d="M394.6 511l-18.4 22.3 2-28.7 18.7 21" />
    <path fill="#b7cfac" d="M885 425.4l6.5-.4 6.5 8.3-19.4 4" />
    <path fill="#49472e" d="M635.3 532l-63 38 64.8-29 15-17.3" />
    <path fill="#44281c" d="M389 552.2l-23.2-61.7 11 84.3-10.5 43" />
    <path fill="#3b3a4a" d="M384 471l237.7-68.5-222.7 78-10.7 16.3" />
    <path fill="#4592c4" d="M867.7 371.3l-66.2-14.5 83 4.4-19 26.8" />
    <path fill="#f2d020" d="M357.6 569l43.4 4 9-6.5-64-9.3" />
    <path fill="#1f488c" d="M173.2 653l-12.7 31.4 32.2-54.3 1.5 36" />
    <path fill="#280905" d="M972.3 706l9-14.4-10.8-62.7 1 9" />
    <path fill="#b4757c" d="M122.5 246.4l.8-36.2 7.4-11.7L130 309" />
    <path fill="#b6e1c7" d="M562 425.5V423l-14 19 49.7-19.7" />
    <path fill="#d19562" d="M802.5 319.2L791 274.8l28.2 30 88-4.2" />
    <path fill="#597cc1" d="M345.4 429l46.2 4.5 21.4-1.2-107.2-14" />
    <path fill="#32487f" d="M274 256l58-24-39.6-52 4.3 123.7" />
    <path fill="#c5f29f" d="M746.6 435.5l-5.6-4.7 11.8-10.4-4.4 6.4" />
    <path fill="#ca8b5c" d="M937 311l-46 12-12-.6 3.3-45" />
    <path fill="#0f0a12" d="M842.8 653.4l27.4-130.7-54.6 102.7 23.8-14.4" />
    <path fill="#aac7af" d="M892.2 478.4l-23.5-4.6 21.4-10 3 3.4" />
    <path fill="#a7b8de" d="M176.5 257L196 125.6l9.7 149 37.8-85" />
    <path fill="#0f121a" d="M485.4 586.6L368 598.4l24-29.5-16.5 134" />
    <path fill="#2c2524" d="M741 514.4l1.7 117.3 8.2-105-12-28.7" />
    <path fill="#ac9c8f" d="M563.7 556L551 586.8l-1.3 8-7.3-28" />
    <path fill="#788966" d="M329 652.8l-6 33.2-11-34.7 16-6.3" />
    <path fill="#796b45" d="M563 509.5L498.7 570l30-27 23.7-7.8" />
    <path fill="#f8953f" d="M616.8 610.7l12.4-2.2-27.5 18.2 3.5-49.4" />
    <path fill="#151f30" d="M497.2 293l-2 28.6 55.5 3.2-10.3-15.7" />
    <path fill="#41314e" d="M43.6 452L26 229l11 4.5-2.2 71.3" />
    <path fill="#1f3351" d="M302.4 630l42.7-.2 19-13-83-8" />
    <path fill="#7eab96" d="M134 352.7l2.8 7-52.7-2.2 14 5.2" />
    <path fill="#f6f0cc" d="M491 318.6l-28.4-50L449 295l25.6 14.7" />
    <path fill="#525846" d="M900 380l7.3 39.7-44 13.3-6.6-8.2" />
    <path fill="#1b162c" d="M117 480.2l137.6-11-43 15.8-138 21.6" />
    <path fill="#efebc0" d="M416.4 297.3l52.4-15.2 11-20-58.8 55" />
    <path fill="#337ad5" d="M533.3 392.3l107.4 13.2-38.6-11.2-76-14.8" />
    <path fill="#c4ceeb" d="M318.7 204l41.8-37.6L569 235 304.8 123" />
    <path fill="#3f519b" d="M263.6 177l-44.2 104-4.6-47 23.8 5" />
    <path fill="#fff5b3" d="M508.4 534.8l-.2 4.5 8.5 7 7.5-20.5" />
    <path fill="#2a3223" d="M907.6 622.3l-6-6 78.3-74-30-3" />
    <path fill="#edfdc3" d="M375.7 509l10.3 15.4 2.5 9.7-2.3-23" />
    <path fill="#9dd2b4" d="M559.3 468.7l71.7-41-61 28.6-21.5-6.2" />
    <path fill="#0f131d" d="M170.2 713l89-62-123.7 47.3 12.8-114" />
    <path fill="#433a60" d="M240 203.8l-2 40 73.3-62.4-68-1.2" />
    <path fill="#8577ad" d="M1004.4 390.2l2.6 102.4 6-71.2-.3-40.3" />
    <path fill="#fff01e" d="M889.8 660.2l79.6 4.5-115.8-32-8.5 11.5" />
    <path fill="#577a79" d="M487.3 503.7L360 495l-20.3-18.7-13 14.2" />
    <path fill="#182d3b" d="M540.4 353l1-23 9.6 37.3-61.7-12.2" />
    <path fill="#18478e" d="M686.4 364l-80.2 8.4-118.3-11 120 1.5" />
    <path fill="#201c1f" d="M488.6 553.7l-121-54.3 158 27.3-88.2 22" />
    <path fill="#4e73aa" d="M386 453l-67.7-1-4.5-8 33.5 4.3" />
    <path fill="#94c9b6" d="M679.2 357l-8 59-6-13.5 7-45.7" />
    <path fill="#082665" d="M140 550.7l-19-16.2 13.8 1 38.4 3.5" />
    <path fill="#0e0f1e" d="M62.2 339l-89 180L50 490l61.5-114.2" />
    <path fill="#598b7e" d="M304.3 335l-46.8 8.4 10 2.8 86.8-12.6" />
    <path fill="#1a1f33" d="M581.2 319.6l31.2-.3-35.8-32 26-4.8" />
    <path fill="#1c232b" d="M830.7 473.3l-82.8-5.8 55 .2-6-27.7" />
    <path fill="#85adb1" d="M736 297l16-68 4.7 70.3-11.5-17.4" />
    <path fill="#313054" d="M692.4 281l96.6 21-101.2-2 38.5 36" />
    <path fill="#266686" d="M655.7 428.2L644 390.5l4-1.4-14.8 40" />
    <path fill="#b7cf96" d="M683.6 527.4l-15.3 39 23.5-21.2-11-40.2" />
    <path fill="#62a8e6" d="M1055 195.4l-63.6 69.8-7.5-30-172 1.2" />
    <path fill="#3eaeee" d="M709.7 470.5l10-14.8-16.5 7-14 15.8" />
    <path fill="#75516c" d="M21.7 524l25.4-6.3-61 66.5-10-33.4" />
    <path fill="#446052" d="M170.8 377l73.7-29-43.6-3 6 32.6" />
    <path fill="#3d5696" d="M907.8 242.8l-27.8-8-7.3 29.3 173.7-7" />
    <path fill="#464e6c" d="M213 275.7l144-42.2L188 292l-1.8-22.2" />
    <path fill="#59a7c0" d="M844.8 395.8l25 7.8 20.2-14.4-77.8 19.3" />
    <path fill="#272e3d" d="M939.7 463.4l16-111.6-47.4 150-9.6-25.6" />
    <path fill="#728781" d="M-31 326.8l6 14.6 48-6 12.7-1" />
    <path fill="#74ae5f" d="M920.6 564L984 452.2l-82 135.3 32-16.5" />
    <path fill="#d7ebf7" d="M375.7 139L546 117l114.8 43.7-135.6 13.7" />
    <path fill="#7a6e9b" d="M636 511.5l4.2-14 25-4.4 35.4 9" />
    <path fill="#c20f12" d="M375.2 571.6l-69.6-9.7 16.4 7 64 7" />
    <path fill="#f1331f" d="M537.6 592.5l-1.4 18.3-44.5-18.7 37.5 3" />
    <path fill="#253f76" d="M417.7 333.6l82.4-1.2-96 34.6 99-14.8" />
    <path fill="#1a2b47" d="M572.3 351.8l43.2 3.2 217-5-300.2-10.5" />
    <path fill="#625653" d="M684.3 617l-94-18.3 69 5.5 62 10.2" />
    <path fill="#829c95" d="M268.4 240.5l-.4-17-17.7 7-9 12" />
    <path fill="#e4710e" d="M916.7 614.2l29.7 34.7-41.8-19-9 3" />
    <path fill="#38253b" d="M759.4 651.8l-72.8-49.3 112 110.5 24.4-53" />
    <path fill="#0e1a31" d="M909.7 333l-126 4.7 90-28 50.6 78" />
    <path fill="#6d9ec2" d="M645.8 392.3l133.2-.6 82.3-22.3-63.3 25.4" />
    <path fill="#4b4065" d="M625 285l-174.3 1.3 159-12.4h78.6" />
    <path fill="#7ba78b" d="M844.2 463l-13.6 33-12.2 36.7-2.2-48" />
    <path fill="#133e5b" d="M992.4 505l11-3.8 7.5 42.7-58-49" />
    <path fill="#587f76" d="M796 472.2l-7.4-10.6 1.4-47 12.2-32.6" />
    <path fill="#141d22" d="M821.4 486.5l71.5 39.7-86 30 42-73.8" />
    <path fill="#3a88c4" d="M973.2 513.2l43.4-17.8-12-1.2-19.2-4.4" />
    <path fill="#03050d" d="M995 607.3l-7.8 14.5L1055 713l-61-211.7" />
    <path fill="#ed7e23" d="M981 712.8l-26.3-19 52.3-24-31.7-21.6" />
    <path fill="#103a81" d="M696 472.7l-4.3 1.6L722 447l-58 20" />
    <path fill="#0b1209" d="M658.2 559l-19.3-.6 57 108-23 5" />
    <path fill="#15161d" d="M312.4 591.5l-47.5 11 174 22.3-84-52.4" />
    <path fill="#6b6b69" d="M532.7 455.2l59.4-5.7-87-15.5 5 48" />
    <path fill="#ffd0d7" d="M113.3 204l-2 3.5 1 96-6-95.4" />
    <path fill="#ffffb3" d="M734 446l-6.6 3-2.8 5 6.5 6" />
    <path fill="#12100f" d="M232.6 575l-5.3-58.8 62-27.5-87 25" />
    <path fill="#3b2c3c" d="M675 411l-4 44.3 80.3-11-50-25" />
    <path fill="#3e3153" d="M125.7 193.2l-33.2 9.4V314L88 193.5" />
    <path fill="#392f2d" d="M722.8 498.5l-4 3.3 115 16.6-33.6-14" />
    <path fill="#3a272f" d="M344.7 516.3L392 524l-60.7 31.3 60.3-57.4" />
    <path fill="#9cbfe4" d="M328.8 208.5L299 223l-1.8-7 35 4.6" />
    <path fill="#0c1424" d="M264.2 457l26-153.8 19.4 96.7-18.6 62" />
    <path fill="#e08b64" d="M84 539.2l-5.6 28 51.6-38.8h58.3" />
    <path fill="#17172e" d="M398 468.4L268 490l159.3-47.4-45-10" />
    <path fill="#251c20" d="M702.2 494l-18 32.4 21.4-2.3 21.6 60" />
    <path fill="#151c19" d="M556.3 480.3l-47-4.8 27 100.4-2-46" />
    <path fill="#d1752e" d="M115 509.6l-62.8 2L-27 531l72-10.7" />
    <path fill="#b3d5a2" d="M590.8 475l55.7 5-19.2 20 7.8-60" />
    <path fill="#8b6175" d="M125.5 535L114 571.3 65.4 582l24.2-23.7" />
    <path fill="#727b4d" d="M181.6 451l12.8 1.3 15-1-4.6 14.3" />
    <path fill="#0c1726" d="M1008.6 382.7l46.4-86-96.8 83.2 39 51" />
    <path fill="#9ac4f0" d="M677.7 258.8l-135.5-39.6 184-30.7-46.5 22.4" />
    <path fill="#3a688a" d="M629 410.8l3.3-16-39.3-10 10-28.5" />
    <path fill="#0e265a" d="M627.2 701.4L307.8 713l211.8-70.7L497 644" />
    <path fill="#546f54" d="M591.3 412l3.4 51.4-8 30.8 13.7-81.8" />
    <path fill="#66bfff" d="M949.8 111.8L1055 94.5l-31 80.6-152.4-15" />
    <path fill="#74380c" d="M612.3 592.4l23.3 10.4 11.2-28.7-.4-19" />
    <path fill="#101116" d="M859.6 610.2l4 15.7-86.3-48 124-28" />
    <path fill="#24171f" d="M534 571.3l1.6 5.8 9.2-10v88" />
    <path fill="#edfff1" d="M754 532l16.2-2 1.6-20.7-17.4 5.5" />
    <path fill="#5c8776" d="M31.8 365.5l16.6-6-1 10-.2 3.5" />
    <path fill="#7eb096" d="M326 334.2l2.5 19 10.3-17.4-7.7-4" />
    <path fill="#2c3460" d="M368.6 232l-47.7 4.7-8-55.6-20 34" />
    <path fill="#755571" d="M59 242.7l2 22-.5 47.7-10.5-77" />
    <path fill="#357fc5" d="M508.5 412l-2-13.6-62.2 19 39-4.5" />
    <path fill="#f6cdb0" d="M186.6 311l-5.6-33.6-45.2 30.5-6-35" />
    <path fill="#0e101a" d="M411.7 575.8l3 23.6L443.3 713l14-132.8" />
    <path fill="#55536c" d="M414.7 519.7l56.8-30.2-57.2 10-12.8 23.7" />
    <path fill="#0c2851" d="M859.6 384.8l16.8 7.8-10 3.6-26.7-2.7" />
    <path fill="#3b333c" d="M364 323l39.5-21.4 47.2 25-48-4.4" />
    <path fill="#9fd9ff" d="M908.3 109.7l131-17.8L857 69l-19 77.5" />
    <path fill="#f1c846" d="M99.5 529.8l-4.8-49-41 17.4L90.2 473" />
    <path fill="#bf8463" d="M211 300.2l-46.4 16 51.8-48-11.7-.6" />
    <path fill="#70393e" d="M312.6 573.8L293.4 550l-44.5-7.7 10 22.3" />
    <path fill="#f0d111" d="M226.8 487.3l20 .3 19.6-8.6-23 2.4" />
    <path fill="#16224b" d="M492.6 408.3l-121.2 9.4-32.5 2.6 73-17.5" />
    <path fill="#9e5242" d="M306.2 464.2l-5.7-.3-.5 12-22-1" />
    <path fill="#0f4290" d="M500.3 431.7l98.4-29-67-3-64.6 22.7" />
    <path fill="#cf9c75" d="M378.5 193l18.5 1 9.6 5.5-45.4-4.4" />
    <path fill="#d1c119" d="M596.8 578.5l1-11-2.4-6.6-5.7-2" />
    <path fill="#85a69e" d="M346 242.3l-29.7-8.2-15-5 18 12" />
    <path fill="#c4d1c4" d="M559 223.5l36 41.6-42.5 5 34-35" />
    <path fill="#a0764f" d="M313.5 506.5l-35.3-11.2 10.5 7.6 16.6-22" />
    <path fill="#fffb8c" d="M1055 295v22.8l-52.7.8 1-6.6" />
    <path fill="#141614" d="M336.3 598.4l-4.6 70.8 237 43.8H369" />
    <path fill="#e3f9ef" d="M381 339.6l14.4 6.6-2.2-1.4L446 343" />
    <path fill="#323453" d="M527 251l11 7.7-2.5 14.7-6.3 51.6" />
    <path fill="#a58c9f" d="M995.8 248l37 22.6 6.8 4.8-49.8-10.4" />
    <path fill="#8f865f" d="M535 509.8l-19 12.5-6.7-3 2-6.7" />
    <path fill="#254f8b" d="M252.3 650.3l19-65.6-23.8 25.8 28 44.2" />
    <path fill="#ea914d" d="M615 300.3l-10.5 2.5 26 19.7-1-14.2" />
    <path fill="#895a00" d="M62.5 491.5l-4.7 8-10-13.7 42.3-24" />
    <path fill="#ba6ea8" d="M378 248.8l31.6-.4 87.3 22.3-82-2.7" />
    <path fill="#e19345" d="M657.5 553.6l25.6 33-24 .7 21-20.5" />
    <path fill="#ffe363" d="M59.5 541l20.7 3.7 41.6-15.6-75-9" />
    <path fill="#92b088" d="M822.8 435.2L861 443l-16-11.7-30.6 25" />
    <path fill="#16407c" d="M921 378.3L789 363l-59.8 13 61.4-4.3" />
    <path fill="#0f0f1c" d="M177.5 550.7l114 20.3-35.8 6L131 559.8" />
    <path fill="#cc711d" d="M343.5 526.7l46.5 45.6-40.5-19.2 9-36" />
    <path fill="#274e9d" d="M163.3 572l44-1-35 39.5-17-27" />
    <path fill="#dcfddb" d="M755 547l17.6 20.6-2.2-20-13 18" />
    <path fill="#a2bbbd" d="M771.2 284l3.6-26.2 88.4-11.2-73.7 18" />
    <path fill="#499dd7" d="M831 397.4h22.2L758.4 377l98-3.8" />
    <path fill="#6f80b0" d="M603.4 263.3l.6 34.2-16.5-46.6 77.4-8" />
    <path fill="#d2ffea" d="M373 439.7l6.7 1-13.7 10.7-10.5-7.6" />
    <path fill="#ff9e26" d="M545 595.6l47.7 13.6-8.7-13.7-17 24.7" />
    <path fill="#252e38" d="M-31 292.4l144.3 53 73.3-16.8L38 338" />
    <path fill="#1b385d" d="M154.8 592.6l25 45.2-52-20 11.3-33" />
    <path fill="#4c261d" d="M300.6 568.6l40.7-45 7.7 39-30.8-38" />
    <path fill="#7c9f81" d="M909.2 582.6l-31.6 42 5.3-40-5-13" />
    <path fill="#a7d9c0" d="M359.6 495l48-5.6-9.8 12.2-13-16.3" />
    <path fill="#98d3ff" d="M571.2 119.8L284.6 87.6l162.6-46.8 199.8 13" />
    <path fill="#393b63" d="M609 694.7L751 656l78.8 57L589 655" />
    <path fill="#c84732" d="M838.2 653l4 21.7-76.2-58.3 2.2 29.2" />
    <path fill="#d17e88" d="M147.3 203.3l2.4 82.6 13.8-3-3.6-95" />
    <path fill="#644946" d="M340 399.2l-15.7-18.4-1 9.7-10 6.5" />
    <path fill="#cb415b" d="M269.2 290.5l-20.5-.4 14.5-10 8.2 1" />
    <path fill="#0f1c3e" d="M540.3 420l-28.3-5.5-21.2-.3-11.7 4" />
    <path fill="#abc0e6" d="M249.3 193.8L209 205 15 144l174 7.6" />
    <path fill="#030005" d="M842 713l4-68.8h-10l23.6 68.8" />
    <path fill="#2a3867" d="M358 277.6L316 263l49.7-63 19.5.2" />
    <path fill="#eff3e2" d="M529.8 244.4l7 9.4-63.7 10.8 1-20" />
    <path fill="#92d3d1" d="M665 429.7l-66-2.8 73.6 10-6.3-55" />
    <path fill="#98a79c" d="M946 591.4V618l-16.5-13.8-3.7-5.3" />
    <path fill="#f5a72c" d="M817 646l22.7-33.7v32l-4.2-4" />
    <path fill="#442f19" d="M520 550.7L356.4 521l158.4 24.8 5.4 41.5" />
    <path fill="#445fa5" d="M597 274.8l98.7 5 10.8-30L715 262" />
    <path fill="#6a726b" d="M631.6 573.8l-33.5-12 5 18.2 16-24" />
    <path fill="#13181d" d="M897.2 548l7.2-24L799 553.4l76-44.4" />
    <path fill="#2a2925" d="M831.5 631.3l-4.5.8 4.2-155-3.2 37" />
    <path fill="#90d4ff" d="M359 9.7L5.7-16-31 127l284.5-25.8" />
    <path fill="#265e9f" d="M786.6 410l25.7 3 18-18-24.6-5.6" />
    <path fill="#925936" d="M238.3 532l-4.4-2.2-10-3.4 55-30.4" />
    <path fill="#563b5f" d="M82.8 506L-31 513.6l71.8-17.3 52.8 9.5" />
    <path fill="#232645" d="M971 322l-53 27.7 78.7-34.4-38-34" />
    <path fill="#7a7571" d="M616.4 535.8l4.4-6.6 9-3.6 70.2 8" />
    <path fill="#d9bd6c" d="M516.4 552l-52.4 8 5-7 15 19" />
    <path fill="#1c1a19" d="M495.8 556.5L406.2 492l11.6 27.4 31.7 30.7" />
    <path fill="#6d856c" d="M892 504l7-17 10.7-84.2 1.6 57.8" />
    <path fill="#997d7d" d="M15.7 249.3L-31 265.6l45.8 22 5.3-50.8" />
    <path fill="#af8052" d="M975.7 330.4l-13.4-.7 40.4-12.7-28 18.5" />
    <path fill="#8f9e68" d="M352 702.5l-20.6 7.4 42.6-58-8.6 2" />
    <path fill="#424542" d="M887.4 499.6l1-20-49.2-17L827 464" />
    <path fill="#41635a" d="M843.4 436.8l-14.7 15.6 20.8-5.2-6-56" />
    <path fill="#05102d" d="M905 397.5l18-26-38.8 5 29.8-21" />
    <path fill="#7fa6a1" d="M339.6 276l-60-7.6 67 .6-3.7 12" />
    <path fill="#7998be" d="M690 403.3l49 13-78.2-3.3 51-11" />
    <path fill="#3e66ac" d="M442.4 315l8.7 14 48-5-26-9" />
    <path fill="#0f0f20" d="M233 713l11.5-65L107 688.7l223.8-11.2" />
    <path fill="#1a2f6f" d="M934.6 245.2H982l-15 68 4.2-62.7" />
    <path fill="#1d2120" d="M729 530.3l-55.3 32 56 1.3L694 635" />
    <path fill="#0777bf" d="M740.4 371.7l16.5 12-56-1.2 31-8.5" />
    <path fill="#acd7d5" d="M593 390.4l1.6-12H581l4.6 6.2" />
    <path fill="#212538" d="M655 332.4l63.3.8-14 32 58.4-47" />
    <path fill="#836371" d="M399.3 206l-22.7 89.7 48 18-21.8-25" />
    <path fill="#0e1119" d="M610.3 538.4L583 571l-11-77 54-10" />
    <path fill="#29252d" d="M794 420.5l5 4.6 11 49 6.7-58" />
    <path fill="#182b45" d="M319 331l-156.3 21 184.5-63.3L320 271" />
    <path fill="#42536a" d="M58.4 298.8l-28-6L74.7 336l42.2 23.6" />
    <path fill="#7db5ee" d="M708.2 227l119-40.5 227.8 20-265 31" />
    <path fill="#636f55" d="M872.6 508.5l-34.5-6.3 59-44.2-35 7" />
    <path fill="#ffb070" d="M475.2 243l-6.6 4.6-33-.3-17-6.8" />
    <path fill="#5e7b60" d="M580.7 420.6l-10 76-2-10.5 16.3 2" />
    <path fill="#abe3ff" d="M779.5 47L695 83.5l108.4-9 192 24.4" />
    <path fill="#4590bc" d="M688 395.3l-99.7-24 74.7-1-25.3-19.7" />
    <path fill="#959541" d="M485.4 329l-4-15.4 3 2.4 13.8-10.7" />
    <path fill="#4a3a36" d="M214.3 494l48.3-58.2-42.4 26.6 21.8 27" />
    <path fill="#d7d6e7" d="M776.4 167.3l-362.4-9 86 33 257.2-15" />
    <path fill="#6070a9" d="M450.7 478l-33.3-.6 36.2-31.4-23 19.8" />
    <path fill="#091624" d="M143.3 377.2l205 8.8-227.7 9.5-18-50.2" />
    <path fill="#0658b9" d="M1049 372.6l-48.8 17 13.3-12.5 25-33" />
    <path fill="#2b2639" d="M417.8 627l251.7 46 20.3-29.6L554.4 628" />
    <path fill="#6eb2ae" d="M846.2 464.2l-36.4-4.6 66.4-15-7.4.7" />
    <path fill="#aabf94" d="M601.7 459l-18 14.6 22 5.8 44.6-8.8" />
    <path fill="#753212" d="M1003.2 639l-46 9.3-7-41.5 21.5 18.6" />
    <path fill="#141a34" d="M367.8 352.2l90.2 31-154 27.5L432 346" />
    <path fill="#ac4835" d="M540.8 607l6-4.4-1.3 33.2 18.7-15" />
    <path fill="#8b96a0" d="M561 234.2l17.8 1.7-33.8 38h-10.8" />
    <path fill="#a576f6" d="M418.8 278.5l10-30H414l1.5 17.4" />
    <path fill="#7fc6d6" d="M620 416.8l-.5-19.8 12.3-12.2-34 4.6" />
    <path fill="#66beb9" d="M372.5 337.2l3.5 10 4.8 4.4V327" />
    <path fill="#f8ed05" d="M55.8 499l13-19.5 19 16.4h-1" />
    <path fill="#f1a54a" d="M582.8 316.5l-38.2-13 6.2 19.4 30.6-17" />
    <path fill="#28140d" d="M634 598.6l108.7 19 57.5 3 19.6-15.7" />
    <path fill="#d2e3d2" d="M828.8 419l5.2-15 33.3 12.2-40 .5" />
    <path fill="#c2def5" d="M494 120.3l-131 46.4-63.8 14-84.5-66" />
    <path fill="#41779e" d="M906 395.7l2.3 19 37-32-114.3 19" />
    <path fill="#96554d" d="M198.7 501.3l-9 44L179 536l27.7-28.4" />
    <path fill="#39242b" d="M374 192.3l-28.6 1.2 33.6-6 17 7.7" />
    <path fill="#15101e" d="M404.7 508.6l-135-1.3 86.6 4.3-76.5-35.7" />
    <path fill="#7689ad" d="M750.6 493l-58-3.6 75.6 11.4 73-1" />
    <path fill="#9ac3c4" d="M679.8 377.7l-2.8-24 .8 32.4 26.2-13" />
    <path fill="#87cafe" d="M166 86l238-29.5L87 48-31 72" />
    <path fill="#3f3542" d="M483.6 407.8l-108.2 4.6 42.2-20.6h88" />
    <path fill="#536e9e" d="M776.7 247l18.8 34-11.5-42-29.4-2.7" />
    <path fill="#232d40" d="M871.8 387.7l-.6-4 105.3-4.2-30 6.5" />
    <path fill="#fcad3b" d="M905.4 616.7L858 624l-8.7 14.5 42.4-5.2" />
    <path fill="#234c91" d="M465 365l104.6-48.7 45 23L486 320" />
    <path fill="#3e4955" d="M882.4 402l-93-2.4 115.5 10-1-21.6" />
    <path fill="#191315" d="M601.5 662l-11.8-74.6 11.8 36.2.8 36.3" />
    <path fill="#1b418c" d="M116 618.3L71 679l73.6-22.8-28 56.8" />
    <path fill="#31416c" d="M70.4 308L60 325.6l67.5-22.4 59.5 25" />
    <path fill="#161f2e" d="M236 585.4l13.3 8.4-3 68.3 20.7 37" />
    <path fill="#6386aa" d="M555 364l17-13 .8 10-51-18.7" />
    <path fill="#c5ddaa" d="M692 533.6l-59.4 24 22-23.6 29.4 22" />
    <path fill="#5393d3" d="M784.7 357.5l-17.5 12.2-10-8.8 124.5 2" />
    <path fill="#131012" d="M302.8 516.4l17 38.2-61-11.8-26.8-10.3" />
    <path fill="#f7d79d" d="M601.8 593.3L623 576l-15.6 22.5 23.3 4.2" />
    <path fill="#2a2b3c" d="M666 488.4l-2.3-8.7L738 478l-68.4 20.5" />
    <path fill="#7a8ca5" d="M323.8 218.3l-63.4-2 73-106L255 225" />
    <path fill="#76bffe" d="M779.2 150.7l-121.7-8 66-28.6 99.6 2" />
    <path fill="#8b4d21" d="M597.6 590l-37.4-22.3-2.5 32 13-16.6" />
    <path fill="#cfe3c8" d="M894.2 446.3l-15-.7 1 8.7v1.4" />
    <path fill="#dcffdc" d="M739.6 526.5l-1.4-14-15.8-1.4-10.2 12" />
    <path fill="#3c3246" d="M673 412.2l.6 51.6 58-44.5L709 414" />
    <path fill="#b0caf1" d="M326.5 95L318 222l15-1-10-171.4" />
    <path fill="#d34880" d="M475.6 252l-.7 1.2-29 20 4-32.2" />
    <path fill="#dbbacb" d="M41.7 292.6l13 5.7L74 274.5l.4 19.2" />
    <path fill="#4a7472" d="M189.4 345.3l80.3.4-67.5 6.6-1.4-2" />
    <path fill="#3c5cb3" d="M770 262.6l-7-13.3-9 28.8 15.3 5" />
    <path fill="#fa8b3a" d="M850 654.5l-1.2 9.3 119 26.4-91.2-32" />
    <path fill="#62943c" d="M943.7 543.8l-16 7.4 18.7-39.4 24.5-4" />
    <path fill="#7c9197" d="M707.7 312l-2.5 11.7-15.4-3.8 27.4-9" />
    <path fill="#99d8c0" d="M375 451l10.3-1 1.4-9.5-34.3-4.3" />
    <path fill="#7573a3" d="M1010.6 491l-2.7-66-7 88.8 8-8" />
    <path fill="#e3af9f" d="M97.4 277.4l22.3-27.8 4.7 53.2-24.3-47.6" />
    <path fill="#151e30" d="M245.2 474l-41-164.4 23.2 52 29.3-38" />
  </g>
</svg>