<svg version="1.1" viewBox="0 0 1024 682" width="1024" height="682" xmlns="http://www.w3.org/2000/svg">
  <g fill-opacity=".5">
    <path fill="#c1775b" d="M879.8 307l-8.5-15 50.2 23 6-34.7" />
    <path fill="#1a427a" d="M609.7 369.3l34-2 7.4 7.2 2-10.3" />
    <path fill="#8c9582" d="M202.6 462.2l-4.4-5 6.7-3.5 4-3.5" />
    <path fill="#5d6690" d="M714.2 258l21.3 28.4-6.4-22-45-9.4" />
    <path fill="#e4b8b6" d="M121 296.8l-3-99.5V190l7.5 71.2" />
    <path fill="#433f4e" d="M488.2 468.4h16l11.5 8.3-29.2.8" />
    <path fill="#9bd5bf" d="M629.6 451.3l-1-5.7-30.7 23.2-36 9.8" />
    <path fill="#695d75" d="M830.8 262.6l84.8 16.2-92-24 13.3 46" />
    <path fill="#729983" d="M859.5 445.4l-33.6.3 33 3.8 8 43.8" />
    <path fill="#182c41" d="M284.2 632.5l-4.5-10.5-29.8 3.3-77 5.6" />
    <path fill="#d3e6c3" d="M630 481.5l.5 6.4 11.7-6-33-22" />
    <path fill="#060210" d="M684.4 629.2L674 621l-23.7 16.2 19 6.2" />
    <path fill="#889660" d="M324.2 672.5H313l22.6-6-23.6-4.3" />
    <path fill="#597565" d="M852.4 422l-8.8-16 1.2 12-4 26.6" />
    <path fill="#1b181e" d="M47 498.7l5.3-34.5 12 23L-31 424" />
    <path fill="#0f0b11" d="M855.3 543.7l-16.7 91 26.4-67.5-37.6-28.2" />
    <path fill="#23487d" d="M169.2 615.6l-4.3-5 23-31.8-37 52.5" />
    <path fill="#f0a824" d="M401.4 585.6l5.3-5.5-23.3-21 28.2 16" />
    <path fill="#5e889d" d="M566.4 327.7l-5 8 3.2 13-.6-4.5" />
    <path fill="#6591d0" d="M616.7 254.2l-35.8-2.8-2 .8 3-10.5" />
    <path fill="#0e0d11" d="M695.4 613.2l23.3-4.8-77-7.6 131-5.2" />
    <path fill="#1b2022" d="M550 465.7l-30.8 60.7 22-15.5-38.2-2" />
    <path fill="#2b2124" d="M599.2 318l19.3-2-17.7-8.4-14.7 6.8" />
    <path fill="#7f603d" d="M248 543.3l121.8 17-120-14.5-27.7-7" />
    <path fill="#67aee8" d="M891 215l9 29.8 91.2-12-113.8-12" />
    <path fill="#aac0e9" d="M158.6 153L99 180.5l143.2 8-23 52.3" />
    <path fill="#ca6f5f" d="M531.3 299.3l46 1.3 7.4 9.3-66.2-9" />
    <path fill="#5f7d69" d="M884.8 445.7l41.5 16-5.4-14.3-10 8" />
    <path fill="#b1d2cc" d="M232.6 285l3.5 4.3 5-2.7-2-8.2" />
    <path fill="#202e46" d="M412.7 372.7l-13-53.2 16 96.4 13.6-78" />
    <path fill="#a97872" d="M194.5 525.7l-24.5 5.6 13.2-7.6 10.4-1" />
    <path fill="#336dbc" d="M325.5 426.7l10.5-1.3-29.7-3.6 75.3-1" />
    <path fill="#925c3f" d="M164.6 295.6l7.5 10.6-21-5-3 13" />
    <path fill="#78789f" d="M1011 474.4l-10-51.3 3.8 9 4-52" />
    <path fill="#bae1ca" d="M554.6 433.3l12.4 1 22-16.3-34.2 10.5" />
    <path fill="#1e1815" d="M413.3 569.8l10-8.2 20.3-6.3-37.6 3" />
    <path fill="#352f32" d="M809 419.7l6.3 32.8-2.7 16.7-14.4-7.5" />
    <path fill="#6f9f7d" d="M582.7 429.6l36 53-13.6-37-5-2.7" />
    <path fill="#be490b" d="M411.8 537.8L346 559.6l10-11.5 51.5-1" />
    <path fill="#4d63a5" d="M723 222.8l3 65-4-41.5-2-39" />
    <path fill="#b1910c" d="M594 562.3l-2-3.3 9.5-2.7L596 568" />
    <path fill="#88afcb" d="M547 418.4l-40.5 17.8-10-6 25 2.7" />
    <path fill="#1a1d19" d="M750 569l-74.8-1 36 30.2-15 21.4" />
    <path fill="#d7e7f4" d="M366.6 163.3l73.6-29.8 187.3 4L470 167.8" />
    <path fill="#844833" d="M446.7 558.8l-4.7-7.5-12 34.5-1-15.7" />
    <path fill="#44427d" d="M588 291.7l-65.2-11-16.3-8.4-30 6.8" />
    <path fill="#739182" d="M563.7 438.4l-2.3-5.5-1-18 11.2 39" />
    <path fill="#12172c" d="M337.6 401.7l3.7-49-18 37 139.7-25" />
    <path fill="#907a80" d="M639.2 536l1.3 29.8 2.7-32-5-33.8" />
    <path fill="#38252f" d="M778 662.4l-119.7-26L830 663.8l-6.8 6" />
    <path fill="#ba6353" d="M937.7 273.6l-9 16.3 17 16-4.4-29" />
    <path fill="#27346d" d="M973.8 302.6l-3.2-47.6 9.8-9-3.4 59.6" />
    <path fill="#0b1423" d="M1018 368.2l-27.7 34.5-23-9.7 87.7-65.5" />
    <path fill="#1b1c2e" d="M333 351l-1.2 36.6-115.4 69 97.5-39" />
    <path fill="#1e2a51" d="M313.4 240.5l23.2 19.6-46.8 6 39 1" />
    <path fill="#b3beb6" d="M100.3 332.6L84 328.4l23-4-7 10.3" />
    <path fill="#496390" d="M581.6 357.6l38 7.3-70.2-1-3-7" />
    <path fill="#2c66b5" d="M492.5 339.8l56-11.2-33.7 5-42.3 4.8" />
    <path fill="#97d4e0" d="M671 371.7l-.4 4 24.3 2-6 2" />
    <path fill="#133a81" d="M797.3 389l-6-2.7-5.2-2.2-51 4" />
    <path fill="#66544d" d="M504 577.3l-33.4 36-8.7-5.4 23-9" />
    <path fill="#584453" d="M735 649.4l-16.5-11 4.5 24 .4 8.5" />
    <path fill="#d0e9db" d="M348.7 360.6l-2.3-1 24.3-.3-25.6 5" />
    <path fill="#182e48" d="M353.8 355.2l5 62-4.3-88.7 15.6-5" />
    <path fill="#4d4d48" d="M649.3 440.5l-23.5-7 31.8 4.4 75.2-2" />
    <path fill="#140d1d" d="M202 436.5l-5 78.7V425l-69.8 63.7" />
    <path fill="#343659" d="M537.8 317.7l-13.8-62 25.4 36.7-34-3" />
    <path fill="#ffcf7d" d="M618 305.8l10.3 3.2-3.5 5.8-2-7.8" />
    <path fill="#4089ce" d="M678.3 360.8l-111.5-9-4.2 2.6 21 4.6" />
    <path fill="#485e9e" d="M600.6 276l-28-6 65-1.3-10 8.2" />
    <path fill="#ab5c25" d="M346.4 533.8l10.8-12.6 6-.2-41.6 36.7" />
    <path fill="#eec3b4" d="M152 297l3 5.5-21.5-47.3-3.2 47.2" />
    <path fill="#6f6f6e" d="M916.4 241.6l-9 49.4v42l5-61" />
    <path fill="#31524f" d="M826.3 458l10.2-16.7-15.4 13-19-14.3" />
    <path fill="#1d2637" d="M125.6 308.2L80.8 311l8.7 90-11.7-99.4" />
    <path fill="#624b4b" d="M720.4 336.2l33-68.2-9 12-.3 23" />
    <path fill="#f2db13" d="M65.4 498.8l32.5-9.3-43-2.8 11 8" />
    <path fill="#204488" d="M205.8 574L96.6 628.2l108.4-43 15 56.5" />
    <path fill="#1d3060" d="M711.5 356.6l-30 1-3.2 10 46.6-1.2" />
    <path fill="#293878" d="M721.6 266.2L749 298l15.8 1.3-35.8-9.5" />
    <path fill="#e0958d" d="M148.3 245l1.8 63.2 14-58.6-4 52.4" />
    <path fill="#2c527e" d="M272.2 658.2l-6.5-3-13-15.5 20.8 3.7" />
    <path fill="#174482" d="M959.6 337l39.8 1.5-8 6.8-42.6 3.5" />
    <path fill="#dc9629" d="M400 570.5L388.3 584l20.4-12.4L359 566" />
    <path fill="#c7c9e6" d="M620.3 187.7L709 189l-32-17-285 34.3" />
    <path fill="#191e25" d="M285.2 594.4L262.6 532l18.4 28-15.7 89.5" />
    <path fill="#1e2d4b" d="M724 444l-5.7 43.3-17.5.3 26.8-17.5" />
    <path fill="#985622" d="M66 478l31.2-.8-.3 10.4L86 469" />
    <path fill="#ae797a" d="M245 469.5l21.4-.2-9.3-2.8-7 13" />
    <path fill="#25353d" d="M755 538.8l-10.3 31.7-31-11 40.5 17" />
    <path fill="#7b511f" d="M501.6 555.2l-120.3-11L495 555.6l-.2-21.6" />
    <path fill="#d48c61" d="M678.4 566.5l-5.8.6-9.4 1-.5-10" />
    <path fill="#3c3a6a" d="M593.2 317.2l-25 1-19 3.7 20.6 6" />
    <path fill="#123a79" d="M676.7 469.3l31.5-6L698 449l-29.7 19" />
    <path fill="#fa8422" d="M912.4 665.2l23.5 18 21-16 2 10" />
    <path fill="#cd8d5c" d="M918.6 313l-33.4 11.5 15.2-8.8-63.2-19.5" />
    <path fill="#e79b55" d="M27 518.2l-27.6 3 105.4 16.3-80-9.5" />
    <path fill="#d57831" d="M327 547.7l20 12.3-51.8-4.6 45 7.5" />
    <path fill="#5370a7" d="M888.3 266l-1.3 6.7-5-9.5-4.6-32.8" />
    <path fill="#1c2341" d="M473 407.7l-34.8 10 14-23-36.8 11" />
    <path fill="#45726a" d="M661.6 485l19.7 7.3-24-12-9.5 4" />
    <path fill="#b6b99e" d="M209 256.5l4.4 19-11.3-4 14-12.7" />
    <path fill="#eca160" d="M890 309l8.8 11.4 6.2-10-3.7-12" />
    <path fill="#150e11" d="M289.8 527.4L270.6 509l-13.4 10.5-29-24.7" />
    <path fill="#8f876a" d="M729 455l-1.5-8.6-3.2 22 1.6-24" />
    <path fill="#c7e6fd" d="M408.7 118.7l-127.8 13 143 7.5 175-16.6" />
    <path fill="#bac2e7" d="M405 192.2l-29.3-15.7 78.8 15.5-52.6 39" />
    <path fill="#2076c3" d="M372 419l2.3-13-26.4 9.7 25-5.2" />
    <path fill="#948aa9" d="M481 307.7l4.8-30.8 15.2 20-14 4" />
    <path fill="#635516" d="M901 598.8l3 12.2 6.6 2.5 6-.4" />
    <path fill="#1b1e35" d="M248.3 637l-29 31-30 45 68.2-59" />
    <path fill="#81b391" d="M808 496l16.5 26.6-3-22.3-20.3-.5" />
    <path fill="#84c7fc" d="M686.5 150.8l-125.7-61 42.7-20 184.7 101" />
    <path fill="#c99786" d="M402 265.6l11.6 1.3-20.6 26 3.5 4" />
    <path fill="#4d4f70" d="M273 580l-9.3 14-14.3-4 14.4-8.6" />
    <path fill="#f0e7ac" d="M732.3 446.2l-8.2 5.3v5l9 2.4" />
    <path fill="#11151a" d="M296 621.2l-32 46.6 21.6-12 26.7-50.8" />
    <path fill="#5c8d76" d="M911.2 583l-16.6-9.3-19.8 3.5 11.7 7.2" />
    <path fill="#a79270" d="M509.5 515l7.6 15.5-6 9.6 15-29" />
    <path fill="#bcc5ba" d="M767 244.4l9 1-23.6 10.4-10.7-6.5" />
    <path fill="#b18761" d="M639 604.4l23 .6-55.7-7.4 14 3.7" />
    <path fill="#686b8e" d="M727.3 209L717 318l-32 8 31-16.6" />
    <path fill="#132631" d="M972 342l76.8 21.7-25.8-30-51 35.4" />
    <path fill="#61a190" d="M559 379l7-13.7-1.2.3 6.6 18.4" />
    <path fill="#101820" d="M575 497.3l22.7 41-73.5-65.8-13 37.6" />
    <path fill="#173981" d="M142.3 664.6l-37 37.8-97 10.6L144 655.4" />
    <path fill="#95daff" d="M-2-26.2L-31 95l64.4-31.5 12.3-70" />
    <path fill="#97cdbb" d="M632 446.5l-3.2 24.2 3.5-69 1 30.7" />
    <path fill="#f1ce6c" d="M740.4 317.8l12-3-9.5-2-4-9.2" />
    <path fill="#653622" d="M225 494.2l38.3 33.6-16.3-15.5 6 14.6" />
    <path fill="#a8d1b0" d="M896 461.6l-3.5-22-4.3-9 2.3-3.6" />
    <path fill="#e69362" d="M101 523l7 27-42.5 10 39.3-20.6" />
    <path fill="#7da585" d="M816.5 407.6l12.2 9-4.7 37.8 7-14.6" />
    <path fill="#5b5978" d="M357 228.7l60.3-8.3-89 12 28.4 5.2" />
    <path fill="#1a1515" d="M321.5 535.3l-49.6-.8 24-41 10 64" />
    <path fill="#668675" d="M723 470.6l7 92 11.8-67.4-9.5 53.5" />
    <path fill="#1c1c15" d="M535.5 582.6l-1-25.2-17 1.8 18.5-20" />
    <path fill="#658a75" d="M880.4 575.6l15.8 22-31.8 18.3 34.2-43" />
    <path fill="#89a9a6" d="M443.2 330l4.5-2.4L458 333l-37.8-1.5" />
    <path fill="#1f2337" d="M165.6 466.4l61.6 8 10-81.4-1 91.4" />
    <path fill="#434962" d="M44 311.7h59l45.3 10-72.8 1" />
    <path fill="#272e2c" d="M570.6 565l-8.2-14.7 22.7 20 14-18.8" />
    <path fill="#aea5b2" d="M627 260.7l10.2-6.7-29 18-9.2-7.4" />
    <path fill="#ccb9d1" d="M1017.7 252.8l37.3-26.2 1 19.2-20.5 17.3" />
    <path fill="#06000c" d="M846 710.7l.8-63-2-52-2.4 76.5" />
    <path fill="#a6622f" d="M596.2 586.3l.8 9-5.4-8.7 1.7-6.7" />
    <path fill="#43384e" d="M517 651.5l13-3.3 8.2-35.5 1 35.4" />
    <path fill="#3d3e5a" d="M605 285l10-3.3 40.6 9.2 2-19" />
    <path fill="#3771b3" d="M793 372l41.2 26.2-79.8-56 9.7-2.5" />
    <path fill="#a8cac3" d="M321.8 243.6l-2.4-9.6 14.2 6.8-8.3-.2" />
    <path fill="#75b5c2" d="M683 356.4l-5 14.2 4.7 14.3-21.7-19" />
    <path fill="#de7317" d="M141.8 524.6l46-3.2L129 512l16.4 20" />
    <path fill="#4d5954" d="M555.5 458.6L411 516.4l171.7-68.8-12.8-6" />
    <path fill="#19458e" d="M736.8 489l87-11.5-25 20.5-95.5-13.7" />
    <path fill="#2d242b" d="M707 528.7l99 10.6-115.5 1 25-47.7" />
    <path fill="#2463b2" d="M906.7 393.7l33-7-13 10.7-4.6.5" />
    <path fill="#07070f" d="M1032.8 638.3l-57.3-36L1024 659l-22.7-1.5" />
    <path fill="#392e3e" d="M719 415.6l8.3 46.8-4.3 6-12-50" />
    <path fill="#202f62" d="M311.6 247l41.4-44.7-17-14.6 29-7.4" />
    <path fill="#5b5f4d" d="M602 513l-13 11.6 104.6 17L596 526" />
    <path fill="#20232f" d="M548.6 317l-2-9.4-51-5.4 4 19.5" />
    <path fill="#445a47" d="M834.4 504.6L817 530.3l3.5 5.7 15.2-54.6" />
    <path fill="#f2b82b" d="M366.6 571l-40-14.6L370 568l30.5-3" />
    <path fill="#3a8ecf" d="M668.7 359.4l-33.3 20.2 18.6 7 6 6.5" />
    <path fill="#141514" d="M472 604l-10.3-10.5L472 606l44.6 4.4" />
    <path fill="#97839a" d="M421.8 271L556 258.6l5.7 21-22.3-18.5" />
    <path fill="#1f201c" d="M353 634.6l-4 46.5-8-39 23 38" />
    <path fill="#c1edd9" d="M379.2 443.5l-20.2 6.7-2.2-13.6 29.7 9" />
    <path fill="#75719d" d="M189.4 193.6l117.7-.8 18 5.5-88-4.5" />
    <path fill="#00021d" d="M9.4 678.2L-7.8 713h-17l-6.2-45.2" />
    <path fill="#598b80" d="M962 492.7l-35.8.4 3.2-23 4.4 14" />
    <path fill="#2d2b40" d="M708 625.5l-62.2-9-18-13-17.5-.3" />
    <path fill="#c3d0aa" d="M540.3 239.7l19.3 13h-9l-33.2-13.5" />
    <path fill="#ba6e3c" d="M493.3 568.8l2.5 6-39.4-8 3.8 5.2" />
    <path fill="#273f6e" d="M490.2 332.5l11.7-21.2-51 42.3v-15" />
    <path fill="#414165" d="M584.5 658.7l40 4.7 24.5 17.2-81-18" />
    <path fill="#27528f" d="M263 649.6l-15.5-4.6 12-11.3 3-28" />
    <path fill="#212f64" d="M310.6 200l-63 7 41.5-1.4 19-27.3" />
    <path fill="#3e464a" d="M900.3 454l87.7-37.4-110 49-68.5 4.8" />
    <path fill="#f8c9c1" d="M114.3 279.7l.6 21-4 2-2-34.3" />
    <path fill="#232d40" d="M676.3 338.8l36.4-15.8-10-9.7 68 42" />
    <path fill="#333c43" d="M142.8 340l19.4-27.7-17.4 37.8 34.6-35" />
    <path fill="#191717" d="M502 609l-61.2 9 26 16.3 37-41.7" />
    <path fill="#b39279" d="M923.5 280l2.8-15.4 4.4.2-13.5-.6" />
    <path fill="#35494a" d="M130.5 319l-.7 14-8.6 44 4 5.3" />
    <path fill="#1d202b" d="M420 603.2l-27 24.2 6-18-97.6-14.7" />
    <path fill="#aac0e6" d="M222.7 204.8l10.4-52 7 84.2-42-2" />
    <path fill="#938184" d="M27.5 293.6l-10 2.6-39.8-50L15 291" />
    <path fill="#374541" d="M904.8 515.3l7.2-53 3.2 37 6.8 3" />
    <path fill="#a45974" d="M33.4 250.7l6.4 28.2-6.8-33 69 5" />
    <path fill="#9e4754" d="M370.5 533.5l1.8-3.8 3.6 10-24 3.7" />
    <path fill="#0c2757" d="M848.5 396.4l25-5.3-17-1-9.6-2" />
    <path fill="#d9c5be" d="M407.7 266.6l-7.3-.6 25.2 29-22.6-9.8" />
    <path fill="#8ca473" d="M869.4 599.3l25.3 5-8 14-22.5-6.3" />
    <path fill="#a1bfa2" d="M790 293.6l-.6-9.7-2.3-3 14 1" />
    <path fill="#cde9dc" d="M828 427.4l4.5 9.6 7.4-2.6-2-5.5" />
    <path fill="#201e1e" d="M101.7 471.7l-16-8-18.3-35-5 44" />
    <path fill="#503f4f" d="M730.5 666.8l16-10.2 17.3-.4 21.2 8.4" />
    <path fill="#494b81" d="M592.2 306.7l-37-25.3 11.3 16.7 28.7-3" />
    <path fill="#0d1122" d="M73 365.8l-59.7 57.6L150 394l164-.2" />
    <path fill="#ce9fab" d="M183.4 297.3l.7-54.3-60 8.6 46-4" />
    <path fill="#3b5932" d="M954.5 573l-13.2-17-6.2-16.7-15 22" />
    <path fill="#524859" d="M85.7 271.2l21 12.6-10-16.6-7.5-58" />
    <path fill="#41536f" d="M561.4 377l-66.4-9.3 6.3 9.2 42.2-6" />
    <path fill="#8b7a80" d="M240.6 295l21.5 2 1-15-13 17.5" />
    <path fill="#b9c4e5" d="M336.3 193.8l-18.8 20.8 1-47.6-31.4-3.3" />
    <path fill="#3575bd" d="M341.6 407l-32.4 13.6 9.5 5.6-.4-17" />
    <path fill="#4268ad" d="M200.2 243.5l-7.8 6.3 8.3 24.3-19 15" />
    <path fill="#97aeb3" d="M259 238l-54.2-2.8 67.6 4.2-16.7-9.6" />
    <path fill="#cef2e2" d="M357.8 440.6l9.5-3 5.7 5.4-15.3 6.8" />
    <path fill="#2e3463" d="M315.7 231.2l-7-32.8-54-.4 62.6-.8" />
    <path fill="#12131d" d="M210.7 685.4l-30-32 26 59.6-18-114.6" />
    <path fill="#1a273c" d="M225.4 358.2l74.4-55v-4.6l28.4.3" />
    <path fill="#85bbef" d="M751.7 260l-30.4-1.5 84-53.6-65-7" />
    <path fill="#25274b" d="M750.2 679L701 713l173.6-21.8-113.5-20" />
    <path fill="#d7962c" d="M563 311.7l-11.7 5.6 27.2.8-1.7-5" />
    <path fill="#3b333a" d="M125.4 345l34-47 4.4 1-44.7 42" />
    <path fill="#0f111c" d="M361 612.7l85.3 58.2 52.7-39-1.5 22" />
    <path fill="#b9f0fe" d="M768.4 57.7L904.7 46l-154-8.3-28 31" />
    <path fill="#733e18" d="M230.7 493.8L266 486l-57.3 10 24.6-14.3" />
    <path fill="#2a4563" d="M503 331.6l-53.3-2.4-114.6-7.5 63 1.6" />
    <path fill="#cb784a" d="M248 528.5l-4.8-18.2-2.8 17.7-1 1" />
    <path fill="#13111f" d="M213 484.8l-99 25 34.7-12.3 12.7-69.8" />
    <path fill="#7072ac" d="M1006.4 495l-11.5 3.2 49 1-4-7.5" />
    <path fill="#aac4eb" d="M888.3 191.3l4-21.3-86 15.8L841 176" />
    <path fill="#608c80" d="M877 485.4l28.3 28.2-15.6-30.3-6.5 3.5" />
    <path fill="#253568" d="M757.4 713l-283-55.8 61-14 13.2 15" />
    <path fill="#283d24" d="M934.8 586.5L947 559l-24.5 36.3 8-2.7" />
    <path fill="#e6fde9" d="M731.8 529.6L727 519l-11-12 17.3 8.3" />
    <path fill="#253b57" d="M420.6 368l10.5 75-15-105.5-3 20.5" />
    <path fill="#f7bc68" d="M545.2 315l32-4.6-5.4-7.3-20 6" />
    <path fill="#e2cfd1" d="M717 243l-5.5-35.5L718 230l1.2 28.4" />
    <path fill="#183563" d="M162 659.6l-2.7 12.6 7.4 5.5 8.5-26.4" />
    <path fill="#3a4a74" d="M341.3 448.7l26.5 11.5 46.4.2 5.3-3.8" />
    <path fill="#a9c6ea" d="M492 211.3l134.6 30L591 251l16.2-38.5" />
    <path fill="#9ebcb5" d="M483.5 332l-41.3.4-8.5 13.3 8.4-14.4" />
    <path fill="#3c82cb" d="M887 351.5l5.8-6-16.3 1.7-19.8 2.4" />
    <path fill="#b19e94" d="M596.8 569.7l18.5 11.5 6.7 3.6-1-11" />
    <path fill="#6d2d09" d="M367.7 554l18.6 9.7V546l2.2-3" />
    <path fill="#272320" d="M517.7 503l34 47.3 1 18.8-11-27" />
    <path fill="#3e4864" d="M20.6 303L-31 324v-98.7L22.4 321" />
    <path fill="#92616a" d="M989.7 307h2.6l19-10 13.2 6.6" />
    <path fill="#d1bb65" d="M935 613.7l-16-3 19-14.6-2.4 12" />
    <path fill="#08152f" d="M826 468.4l.6 4.4L722 461l15.2 2" />
    <path fill="#161f33" d="M429.2 363.4L276 368.2l133 8.7 10.8-35" />
    <path fill="#4ca4c4" d="M904 381.8l.7-4-59.8.5 2 2.4" />
    <path fill="#2b3963" d="M366 233l-72.3 3.3 8.2 56.2 3-54.8" />
    <path fill="#1b2e3d" d="M494 363.2l-90.3-2.7 6.3 8.2 186.7-22.4" />
    <path fill="#0e101f" d="M25 324L5.7 361.7l118.7 86-155.3-50" />
    <path fill="#79beed" d="M954.3 221.8l-137.6-.7-1 42-55-45" />
    <path fill="#647d71" d="M593 437l6.5-23.3 22-6.5-29.8 4.7" />
    <path fill="#3b3e4b" d="M784.3 602.2l19.3-11-3.4 15.7-15.8-12" />
    <path fill="#396f97" d="M67 327.3l7-6.3 2.2 1.5-10 13" />
    <path fill="#3ea3c6" d="M722.4 454.8l-3.7 11.6-21.7 4.8 24.7-13.7" />
    <path fill="#75a896" d="M325.2 330.5l11 7.5-6.3 9 9 3.3" />
    <path fill="#4a89c7" d="M606.5 362l2.7 29.4-5.8-20.7 12-7.5" />
    <path fill="#d0c185" d="M509.5 586l-.6-51.7 8 47 44-20.2" />
    <path fill="#846538" d="M260.7 516.8l12 5.4-30.2 3.6 18.5-7" />
    <path fill="#153478" d="M-14.8 556.8L62 711l-71-47.5 8.3-147.8" />
    <path fill="#9cd7ce" d="M638.3 414.7l-7.6-30.8.6 11 11.4 4" />
    <path fill="#a35bb1" d="M724 216l1.3 6-14 .5-6-5" />
    <path fill="#0b1c41" d="M887.7 373.7L945 365l-56.8 12.5-27.8-3.7" />
    <path fill="#6d491c" d="M643.5 565.4L631 540l27 82.4-19.2-54" />
    <path fill="#1a325d" d="M332.4 273.7L316 276l29.3 21.3-13-19.5" />
    <path fill="#73796c" d="M547.8 466l-34 7.4-1.7-5.8 6-23.3" />
    <path fill="#facbdf" d="M404.7 237.7l87.2-1.3-55-2.3-36 16" />
    <path fill="#638d66" d="M717.3 527l2-1-4.2-24.6-4 27" />
    <path fill="#aed4c3" d="M626.3 433.2l-9-4.8L679 434l-13.7 1.5" />
    <path fill="#a6d1b8" d="M604.5 410l10.7 29.7 3.5-5-20.5-21" />
    <path fill="#df9e67" d="M929.8 304.5l23.3 10.7-1-11-31-1.2" />
    <path fill="#d53b8d" d="M444.3 254.3l9.8-15 6 16v9.2" />
    <path fill="#e9ffe6" d="M590.8 383.4l4.8-2.7-10.5-4 4 6.2" />
    <path fill="#2d407d" d="M148.8 533.8l-71.2 157 64-138.6-18-13.4" />
    <path fill="#596980" d="M319.4 293.7L313 297v-32l-7.6 24.7" />
    <path fill="#465c68" d="M662.5 408.6l-41 9.8 38.2-12.7 64 64.7" />
    <path fill="#2b4256" d="M959 387.6l-91.6-5 17.8 10.6 3.3-10.5" />
    <path fill="#5b7778" d="M792 401l109-52.5L788.2 403l3 63.4" />
    <path fill="#181b1b" d="M626.5 525.8l-2.2 7-43.4-19 31 12.7" />
    <path fill="#35393c" d="M317.2 693.7l13.3-17.4-34-.2-11-24" />
    <path fill="#303343" d="M768 439.7L744.6 451l-36.3 27.4-37.3 16.8" />
    <path fill="#b6b451" d="M497.5 308.3l-16 5 4 11 3.3-8.8" />
    <path fill="#984051" d="M-31 526.8v-4.4l40-7.2 7.3 6" />
    <path fill="#809b75" d="M903.6 412l4.5-8.4 1 46.6 3-44.2" />
    <path fill="#cbe6cf" d="M774.3 511.3L758.6 533l-4.2-.4-.7-26" />
    <path fill="#8b717a" d="M966.5 307.7l-13-8.8 17 27-4.5-13" />
    <path fill="#202c37" d="M80.8 321.3l-37 42.3 74.2-31.4-74.2 47.6" />
    <path fill="#954423" d="M397.6 589l17.7-17.5 11-12.5-1.6 10.2" />
    <path fill="#b33c27" d="M1004.6 678L974 713l-21.5-37-60 22" />
    <path fill="#101016" d="M267.6 536.2l63.6-46-17 28.4L275 499" />
    <path fill="#f6f6dd" d="M424.5 310.8l-9.4-12.3 8-6.5 10 7.7" />
    <path fill="#ed8836" d="M313 560.8l20.7-12.3-9.7-1.6 15.7 12" />
    <path fill="#101317" d="M563.8 524.3l56-45.4-9.3 2 .7 24" />
    <path fill="#4f435c" d="M271.8 268l-17 11-1.8-43 15.5 13" />
    <path fill="#43696f" d="M930.2 449.7l5.2-43.3.6-8.2-8.7 7" />
    <path fill="#5c5e99" d="M414 199.4l-58.7 5.6 26.8 2.5 11-4" />
    <path fill="#423d69" d="M362.3 248.8l33 9.7-38 5.2 18.3 8" />
    <path fill="#447070" d="M323.4 346l39.8 2.2 17.6 16.5 12-4.2" />
    <path fill="#7d9e8a" d="M98 357.2l1.5 1.6-9.3 7.2 22.4-9.7" />
    <path fill="#112d5f" d="M371.2 407.7l-38 6.6 80.7-35.6-72 31.3" />
    <path fill="#2d3a5c" d="M303.3 465l64 9-10.7 15.2 26.8-15" />
    <path fill="#3466a8" d="M743.4 352l-27.8 20 8.5-8.6 3 4.8" />
    <path fill="#e0a342" d="M862 609.8l22 26.2-10-23-2.5 52.6" />
    <path fill="#45445e" d="M877 250l-9.4 35.7 15.3-30.4-4-6" />
    <path fill="#f2e74c" d="M73 533l42.6-15.2L40 525l7-4" />
    <path fill="#7b5351" d="M876.3 287l-76.5-2.5 2.8 2.2 3 .3" />
    <path fill="#c1daf2" d="M302 182.8l-21-65.2L383.3 149l-68 22.4" />
    <path fill="#d29655" d="M468 576.2l9.8-8.7 29 7.4-14.4-11" />
    <path fill="#8fc7ae" d="M581.7 456.3l-16.4 5.7 33.4-11.2-15.6-10" />
    <path fill="#1b2e5e" d="M779 292.2l.4 22 17.5-5.4-2-15.8" />
    <path fill="#d49375" d="M409.7 278l.4-10-18 7 26 4.7" />
    <path fill="#914330" d="M592 624.7l-8 11 7.8-21.6 1 1" />
    <path fill="#3f3549" d="M512.6 640.3l10.7-13L499 624l-15 15" />
    <path fill="#5d5463" d="M483.4 594.2l6.5-19 18 4-21 5" />
    <path fill="#375553" d="M938.7 528.2l43.5-2-65.8-2.6 13 12" />
    <path fill="#ff9527" d="M563.5 595.8H543l27 15.3-25.4 2" />
    <path fill="#7db5ea" d="M773.8 168.8L958.5 239l-28 8.3 5-17.5" />
    <path fill="#444750" d="M87.7 275.4l4 15-1.8 71-1-18.3" />
    <path fill="#5f8fc6" d="M827 230.5l26 12-34.4-3.7 19.2-7.3" />
    <path fill="#97c2c6" d="M675 382l10.8-1 22.7-6.7 1-5.3" />
    <path fill="#77a179" d="M635 495.8l-33.8-39-11 32 6.2-42.5" />
    <path fill="#8eb879" d="M747.5 423.7l1.4 16-2-6.8-3-12" />
    <path fill="#3693d5" d="M873.8 385l9-30-15 7 8.3 14.5" />
    <path fill="#9f9794" d="M736.2 296.4l13-33-51.4 8.5 55.8-9" />
    <path fill="#464d36" d="M612.6 546.3L616 510l4.7 42.3 15-14.4" />
    <path fill="#867aa3" d="M174 188.3l-14.3 11.5L181 202l-4 29.6" />
    <path fill="#ad5f72" d="M1.5 540.2l85.8 12.4-71-18H-2.4" />
    <path fill="#537385" d="M376.7 304l-3 9.2-34 9.5-7-12.2" />
    <path fill="#d6edd8" d="M719 509l20-4.7-1.5 16-18.8 10" />
    <path fill="#093db0" d="M275 172l15.2 2.8 17 9.6-45-8.2" />
    <path fill="#5e5b85" d="M69.5 603.7l41-18.7 13.7 3.6L56 602.3" />
    <path fill="#192837" d="M273.3 632.7l-38.3.4 69.5-13-9.2-29" />
    <path fill="#8c99b1" d="M770.2 289l6-35.8-42.2-.8 34.4 1" />
    <path fill="#2c2330" d="M481.8 410.3L473 387l-51 25.4 32-21.6" />
    <path fill="#c51414" d="M314.5 562l58 11.4-53.3-6.6 15.4 10.5" />
    <path fill="#2b4f9c" d="M234.2 589l-19.4-12 14.4 38-21 8" />
    <path fill="#a6bfa8" d="M834 490.5l-.8-1.4 3.7 20-1-12" />
    <path fill="#556ab7" d="M512 429l2.5-.7L491 434l-26-4.4" />
    <path fill="#352010" d="M678.2 590.6l-44.7 13 53.4-7.4-18-17" />
    <path fill="#ec9158" d="M9 525.8l21-5.7-61 8 28.3 1" />
    <path fill="#abd4c1" d="M617.3 472l-8.5-11 2.2-34 8.2-10" />
    <path fill="#d19164" d="M577.2 561.7l-4 5.7 7 1.3-13.5 11.2" />
    <path fill="#be9265" d="M544.3 580.4l30 34-22.8-32 5-23.4" />
    <path fill="#fabe55" d="M728.2 315.8l-2.6-1.2-6-.4 4 8.6" />
    <path fill="#1d2a35" d="M115.7 364.6l-13-38.6 4 18.6 1 51" />
    <path fill="#382c29" d="M700 647l30-43.3 33.8 5.5-57.7 11.6" />
    <path fill="#898093" d="M632 502.6l46.4-3.2-11-2.2-5.3 15.3" />
    <path fill="#284995" d="M961 240l4.5-4 7.2 14.6 22-4.3" />
    <path fill="#1a304d" d="M449.5 428l-35.7-4 9 8 1.8 14.8" />
    <path fill="#e38e31" d="M986.4 668l-11.8-18 10.3 3.2 2 3.3" />
    <path fill="#1e458e" d="M79.6 629l70-9.6-38.8 22.3 12.6 17.7" />
    <path fill="#14161c" d="M347.5 621.5l1.7 65.4-13.5-84-6 18" />
    <path fill="#93a069" d="M333 707.8l36.3-48.8-2.8-3.5 7.7-2.5" />
    <path fill="#131a22" d="M793.4 538.5l82-23.2 22 34.5-2-12.4" />
    <path fill="#50577a" d="M312.6 270l-2.7-13.5 1-72 2-3.3" />
    <path fill="#1a2538" d="M143 537l25 6.2 13.5 15.3-11-22.7" />
    <path fill="#a5c4b6" d="M398.6 515l-12.4 7.3-8.6-15 20.2 20" />
    <path fill="#0f1624" d="M880.4 343.5l47 2.2-15-17.4-24.7 1" />
    <path fill="#1d3342" d="M672.7 323l12.6 9.3-10.5 31.6 2 4" />
    <path fill="#c75430" d="M817.3 656.2l-33.3-9.5-24-16 13.8-11" />
    <path fill="#404560" d="M359.6 275.8l16 11 10.3 37.6-6-15.4" />
    <path fill="#0a2152" d="M769 375l-9.7-4-7 2.5-5.2 2.6" />
    <path fill="#6b3968" d="M400 316.2l49.7-2.4 28 .6-13.3-5" />
    <path fill="#f5e29d" d="M501 568.8l14-5.4 2 12-20-18.6" />
    <path fill="#947e94" d="M449.5 267.6l-40.2 20 145-3.7-126.6 1" />
    <path fill="#f4d4b9" d="M168.6 301.8l1-11.7 13.4 1 2.2 14" />
    <path fill="#526077" d="M456 407l5.6-14 74.5-15-85 17.6" />
    <path fill="#9acbc3" d="M835 469.6L811 494l21.5-17 5.8.7" />
    <path fill="#85543c" d="M643 597.2l-7.6 26.5-7.4-65 8.3 49" />
    <path fill="#103782" d="M822.3 342.6l33-9.5 25.7 4-16.5 9" />
    <path fill="#2a5081" d="M585 384l-9.7-10.4.2 9.7-36-1" />
    <path fill="#a1d7c9" d="M673.3 412.5L659.5 395l7.8 18.6 4.6 2.3" />
    <path fill="#bad2ab" d="M744 433.4l-2.4-6.7 3.3-3.7 1 4.7" />
    <path fill="#68b7eb" d="M874.8 247.6L831.5 227l-50 15.3 100.2-16" />
    <path fill="#985345" d="M199 308.8l-6.5-8-6-1.7.8 14" />
    <path fill="#0d0817" d="M186 461.5l-88 14.2.3 17.4 51-17" />
    <path fill="#393950" d="M725.6 307l39-10.7-70.3-2.3 6.7-12.7" />
    <path fill="#3697ce" d="M989.8 511.8l3-21.5-6.2 4.4-.8 4.6" />
    <path fill="#d29865" d="M850.8 301.2H843l6 13-57.7-4.5" />
    <path fill="#889e95" d="M760 296.3l4-6.7 41.6-.7-44.2 1" />
    <path fill="#574f64" d="M592 274l-26.4 9.2 48.5 1 7 1" />
    <path fill="#13161b" d="M893 562.5l12.2 17.8-83-47 64.7 42.4" />
    <path fill="#c6eada" d="M637 465l25 6.5 9.2-9.4-46-4" />
    <path fill="#6e7f6c" d="M310.5 658.2l11 19.3L314 649l17 7.5" />
    <path fill="#1c1f1e" d="M598.6 592l5.5-104.7 11 54.4-20-68" />
    <path fill="#262434" d="M686 339.8h29l46-26.2-44.6 39.4" />
    <path fill="#7980a8" d="M980.7 260.2l72 13-14.2-9-39-12.3" />
    <path fill="#d8ead4" d="M667.2 538l-19-1 8.5 11.7-16.4 5.2" />
    <path fill="#4d3134" d="M240 553.6L343.5 542 242 561.8l.4-7.6" />
    <path fill="#765d4f" d="M480 405.7l.8.2 9.4-20-9 1" />
    <path fill="#18181a" d="M204.4 541.7l-9.2 8.7-2.4-6.2 3.6-2.7" />
    <path fill="#2f3c37" d="M966 431.5L858.4 576.8l62-81.5 15-18.6" />
    <path fill="#1e1822" d="M358.5 493.7L340 496l20.8-35.8-37.8 83.3" />
    <path fill="#e7c522" d="M596 560l2.2-4.3-6.2 6.5 4.8 15.8" />
    <path fill="#1b488a" d="M194.6 666.2l-4 .8-3.5-38.4 9 32" />
    <path fill="#e7e3c5" d="M571 229.3l7 2.8-10.6 2-41-2" />
    <path fill="#65b4c4" d="M863.8 401l29.6-14-18.4 11.4-55-.7" />
    <path fill="#584256" d="M180 547l19.8-30.7-7.5 36.4-37.4-1" />
    <path fill="#8f9f98" d="M85.3 348v-26l14.4 8-12.2-5.8" />
    <path fill="#f6c430" d="M904.5 645l-47.3-21.5-3 40.8-7.5-27.6" />
    <path fill="#6e73a0" d="M421 493.3l-3.8 3 18 6.2 14.3-7.6" />
    <path fill="#6f4a52" d="M906.2 263.5l-6.3 8 45 7-21 .5" />
    <path fill="#090c12" d="M1055 597.8l-25-52-58.7 71.5 1.6-15.8" />
    <path fill="#20333e" d="M234.3 366l-20.4-7.6 45-15-17-44.4" />
    <path fill="#ddead4" d="M434.4 303l1-6.2 18.3-4.4-5-11.8" />
    <path fill="#588090" d="M953 440.4l-11.3 25 1.6-9.2-.5-1.8" />
    <path fill="#526e4f" d="M605.7 450l11 67.5-9.3-59.2 1.7-59" />
    <path fill="#689b3b" d="M948.8 539.6l1-9.6-16.6 7 12 10" />
    <path fill="#552925" d="M47 513l19.4-3 60.6-17.6L46.2 512" />
    <path fill="#f29a2f" d="M836.6 613.8l-9.3 32 6-21 2.5 41" />
    <path fill="#d1c7eb" d="M63 299l-1.8-13 7 4.4L74 287" />
    <path fill="#75c6b7" d="M856.6 453.5l-2.4 8.2-21.6-5.7v-4.2" />
    <path fill="#435e82" d="M421.4 352l17 6 .8-49.2 1 53" />
    <path fill="#405240" d="M582.5 468l-.4 16.3-32 26 16-4.6" />
    <path fill="#0f1935" d="M231.7 300.5l10.3-4.2-.2-3.2-32.6 3" />
    <path fill="#071b44" d="M537.7 396.4l54.2 6.2-7-3.2-75 .5" />
    <path fill="#343644" d="M439.8 318.4l-73 11 11.6-20 95.2 5.7" />
    <path fill="#1e2242" d="M39.7 499.2l-16.4 5 16-22.6L45 464" />
    <path fill="#926f4e" d="M275.4 495l30.8 1.4-16.8 5.5-15.6-5" />
    <path fill="#433b4b" d="M793.8 398.3l-39.4-2-.3 50 4 3" />
    <path fill="#212036" d="M146.8 392.7l-38.8 12-17.2 15.6 90.7-12.5" />
    <path fill="#131418" d="M549 554.8l-9.2 28 9.4-52.4 19 8.8" />
    <path fill="#13171a" d="M828.7 618l13.5-129.6-17 80-10.8-48.4" />
    <path fill="#0d0c12" d="M845.5 572.6l13-43.3-39 92.7 35.3-31.5" />
    <path fill="#6c5a2e" d="M899.8 630.7l7.3-20.4 11-12.8-18 39.2" />
    <path fill="#2c3c68" d="M377.7 298.3l-94.8-6.6v-87.2l3 81.5" />
    <path fill="#0f1721" d="M181.5 713l40.3-12.3-101-53.6 45.8 14" />
    <path fill="#102b5a" d="M751 369.4l-9 1-18.4 2.3-38 11" />
    <path fill="#1c418c" d="M511 354.8l-9.7-12-41 3L472 335" />
    <path fill="#f18927" d="M844.2 660L814 632.4l5-7.5-34 12" />
    <path fill="#78ab80" d="M937 512.2l1.2 30.5 3-21.6h.7" />
    <path fill="#443529" d="M525.7 579.3l3.5-15.3-3.5 53 2.8-103.3" />
    <path fill="#1e1917" d="M451.5 518l23.2 9.2-62.5 32.7v14" />
    <path fill="#153367" d="M685.8 376.7l46.2-35-53.4 36.5 4.7-22.2" />
    <path fill="#2d2c2b" d="M736 559.5l11.5-63.5 1.5 58.2-80.3 6" />
    <path fill="#855f3b" d="M475.3 545.7l12 4 7 49-5-51.7" />
    <path fill="#1e448c" d="M382 332l46-6.5-2.7 10.7-20.4-3.4" />
    <path fill="#0e121f" d="M150 562l65.3 1-71.6-7.8-5 3" />
    <path fill="#334889" d="M20.6 303l47.3-6 16 5.6H42" />
    <path fill="#0e0d11" d="M814.2 614.8l-7-48.5 20 26.6-11.5 5" />
    <path fill="#94aeb2" d="M551.4 252.8l20.7-26.2 2 15.4-13 13.4" />
    <path fill="#173977" d="M849.3 365.4L876 354l-43.5-33.6 40.4 25.3" />
    <path fill="#7ecefe" d="M982.6 95l72.4 19.5-158-6L973 94" />
    <path fill="#17212e" d="M196.7 632.8l-9.4-22.5 33.5-1-76.8 48" />
    <path fill="#353145" d="M393.4 529.5l7.4-18.5 16.3-27 4 15.2" />
    <path fill="#11181e" d="M307.5 649.2l-42-60.6 27.4 8.8-30 46.6" />
    <path fill="#685151" d="M240.5 300l-4.7.2 2 9 12.7-27.3" />
    <path fill="#809884" d="M878.3 450.3h3.5l-8 9.6-13 7" />
    <path fill="#431d20" d="M645.7 604.7L633 602l-7.8-21-5.2 13" />
    <path fill="#e4a9a4" d="M69.5 257.6l-1 19 6.4 23-4-55.4" />
    <path fill="#180b0d" d="M635.7 618l-20.5-1.4 9 33.5-5.7-12" />
    <path fill="#4d8a87" d="M626.8 425l-4.8 1.3-3.7-5.4 22.2-8" />
    <path fill="#b78789" d="M102.2 236l12.5-4.3L91.4 245l30.6-26.4" />
    <path fill="#5d6181" d="M537 301l-52.2-10 13 2.7 9.4 5" />
    <path fill="#b0ddff" d="M520 124.3L302 99.7 447 96l105 27" />
    <path fill="#c8fcfe" d="M1055 42.4v-22L907 61l31.4 11.3" />
    <path fill="#3d2924" d="M482.6 563L441 580.3l41-15.5 1.2 100" />
    <path fill="#295074" d="M313.5 347.3l78.2 9.3-36.6-.2 4 1" />
    <path fill="#fcfca1" d="M1033.4 300.8l-19 9.6L1055 350l-18-55.5" />
    <path fill="#433e5c" d="M242.2 228.8l30-21.6-37-3.7 38.7 25" />
    <path fill="#163367" d="M423.2 408.3l18 7.6-45-8-87.6 17" />
    <path fill="#f7d4e7" d="M483 307l-18-3 .6.2-22.3 6.3" />
    <path fill="#7182a6" d="M742.4 493.7l-42.7-3.5 124 16.2-26.8-7" />
    <path fill="#32577a" d="M996.5 612l-8.3-2.8-8-12 1.5-10" />
    <path fill="#99beb5" d="M349 267l-18 4.6 1.6 1.7-36.8-2" />
    <path fill="#864044" d="M302.6 565l14 1.2-17 8.5-21.3-29.7" />
    <path fill="#100e15" d="M476.4 527.3l-3.2-30-4.3 51-36-19.3" />
    <path fill="#0d0810" d="M760.5 594.5L774 577l8.6 32.3-31.8 5.5" />
    <path fill="#d1b9af" d="M448.2 308.7l-12.3-15 22-34-13 31.6" />
    <path fill="#825f7a" d="M110.8 562.5l-22 9-47.5 15.3 75.3-19.7" />
    <path fill="#665264" d="M228.4 275l-20.5.2-26 15 3 1.2" />
    <path fill="#260e0c" d="M833 643.8l12.2 19.3 3.7 17-3-32" />
    <path fill="#264590" d="M60 606.8l-2 29L40.4 584l-59.6 50.7" />
    <path fill="#2f7acf" d="M1005.3 387.8l24-22.6 4-16.2-3.8 9.2" />
    <path fill="#314e60" d="M344 237.8l-2.4 64.2-2.3-73.6-7.2 55" />
    <path fill="#646ba6" d="M500.3 279l1.8 4.4 26-6.3-20-6" />
    <path fill="#f17938" d="M750.2 318.6l13.4-9.4-17.2-9-.6 7" />
    <path fill="#34406c" d="M836.8 328.6L800 323l42.3-3.5-14-11.6" />
    <path fill="#5c653a" d="M208.3 371l-31 3.7 11.3-.6 6.6 5" />
    <path fill="#b8d0ec" d="M182.3 140.8l71.8 40 23-34.5 30 13.6" />
    <path fill="#957639" d="M446.8 558l49.5 9-49.7-11.3-39 15" />
    <path fill="#646f61" d="M226.2 455l-7 4.4-1.4-4 16.6 12.2" />
    <path fill="#121326" d="M276.5 479.5L257 477l32.6-11.6-30-93.3" />
    <path fill="#192c50" d="M-31 341.2l125-7.7-15.6 6.3-37 5.6" />
    <path fill="#1b2135" d="M683 613.4L613 639l46 7.3-5.7-38.8" />
    <path fill="#fcfc6d" d="M103.8 527.7L77 518.5l6.3 15-1 2.5" />
    <path fill="#292835" d="M383.2 459.6l39.3-21.6-30.3-.5-13.8 61.7" />
    <path fill="#cbcbe4" d="M531.5 256.5L468 213l-81.3 11.7 63.3-2" />
    <path fill="#6d8b6e" d="M779.7 533.3l-6.7 32-2.3-18 .7 12.4" />
    <path fill="#525d50" d="M890 438.7v8.5L857.4 421l-27 .4" />
    <path fill="#191d2d" d="M225 390.7l-24.7-52 37 148.5L202 368.6" />
    <path fill="#75a799" d="M920.7 484l-4.3 3.3-1-9.6 3 32.8" />
    <path fill="#3ca8d2" d="M661 422l-6.6-3.2-13.4 6 31.8 5.4" />
    <path fill="#395d91" d="M353.5 612.2l-5.3 4.3 2.6 5.3 3.8-5.8" />
    <path fill="#292d31" d="M875 479.7l-3.8 30.5-.6-38.5-5 2.2" />
    <path fill="#94beed" d="M584.4 215.2l286-15.3-202 18 9.6 39" />
    <path fill="#605131" d="M379 511.5l-27.8 11.3 17.5-12.3 9 6.6" />
    <path fill="#37458a" d="M98 193l22-.5-23 5.7-11-.2" />
    <path fill="#886b79" d="M625 279l-17.6-2-4.4-1 1.5 15" />
    <path fill="#3b3338" d="M387.2 448.3l1.7 65 2 11.4-2-74" />
    <path fill="#204072" d="M194 655.4L157.8 609l13.2 26.7 17.4 3" />
    <path fill="#2f2c3a" d="M687 495.6l9.6-2.6-6.2-11.8-25.2-5.5" />
    <path fill="#3e3969" d="M-31 253.5L8.6 247l26 4.8-65.6-22" />
    <path fill="#3d6790" d="M697 452.4l-24.4 13.4-9 7.3 5.7-9" />
    <path fill="#121d39" d="M849.6 336l-36-21.8 65.8 19.7-67.7-2" />
    <path fill="#133161" d="M715.2 464.8l14 3.8h52.6L713.2 487" />
    <path fill="#2e63a7" d="M455 323l160.3 13-29-9-81.5-2.8" />
    <path fill="#3d323c" d="M635.7 627l17.2 39.8-35-1.4 35-50.6" />
    <path fill="#923337" d="M844.5 662.7l-40-5.5-22.6-5.7-31-14" />
    <path fill="#c1c6b2" d="M719.4 268l-1-30 3.6 7.4-17.2 34" />
    <path fill="#e2c56b" d="M512.7 547.8l13.7-3.2-5-11-5 20.5" />
    <path fill="#2f346b" d="M338.6 220.6l55.4-4.2-30.4-21.8-17.6 19.6" />
    <path fill="#180f1d" d="M291 452.4L248.3 464l36.6-42.6 15 7.2" />
    <path fill="#0d3b86" d="M693.3 470.7l9-6.7 5.8-3-34 3.7" />
    <path fill="#5e6b66" d="M709.7 396.3L687 466.7l18.8-58.2 10.7-.2" />
    <path fill="#284070" d="M305.2 627.4l3.8 7-18-13.3-139.2-55" />
    <path fill="#27090a" d="M963 702.2l19.7 10.8-7.3-47.2-1.7 36.3" />
    <path fill="#cbc7b2" d="M489 291l-19.8-5.6 19.6 12.5-33.2-8" />
    <path fill="#23241b" d="M455 561.8l-48.8-2 25 4-5.4 4.3" />
    <path fill="#6676ae" d="M425.6 475.6l26.3-4.2-31-1.6v8.8" />
    <path fill="#4883c4" d="M833 386.7l-2.7-26.8-6 2 2.2 3" />
    <path fill="#d9dbbb" d="M577 269l15.7-2.4-20.7-12 8.2 4" />
    <path fill="#102c68" d="M405.7 709.6L545 645.3 439.2 713l-7.4-39" />
    <path fill="#412c1b" d="M654 592.6l2.6-50.7-1 45h-32" />
    <path fill="#afe9ba" d="M626 488.8l6-9.6 21.2-5.3.8 13" />
    <path fill="#363341" d="M716.7 415.5l56 8.6-109.4-3 17.3-2" />
    <path fill="#613011" d="M972.8 624.7l25.4 10-4.4 5L975 634" />
    <path fill="#ad7966" d="M797 298.6l1.8-35 16.5 19.8 16-22" />
    <path fill="#0d0f16" d="M997.6 597.8L976 541l79 7-76.6 55.8" />
    <path fill="#34335a" d="M278.8 177.7l-40.5 5 26 10.5 13-8.8" />
    <path fill="#233c41" d="M961.3 504l.4 7.3 8.7 1 10-15" />
    <path fill="#141616" d="M350 665.6l41-32.7-65 43 11.8-24" />
    <path fill="#b2c7e8" d="M173.3 199.3l66.8-4.5 2-34.5-68-7.3" />
    <path fill="#524a60" d="M104.2 207.5l-29-7 27 13.8 2.4 33.7" />
    <path fill="#1c2123" d="M876.4 538.7l-61.8.2 64.7 1-1.3-89" />
    <path fill="#544158" d="M896.5 713h-72.8l-20-46.7 12.7 2.6" />
    <path fill="#7893b8" d="M749 392l32.8.7 9 4-18.7-.8" />
    <path fill="#3a4070" d="M32 574.4L-17.2 538l16.8 21.4 43-6.8" />
    <path fill="#3955a7" d="M756.4 257.2l9.6-2 2.4 24.3-13 1.5" />
    <path fill="#678d81" d="M336 488l44.8-1.5-50.4 6 4.3-20" />
    <path fill="#111119" d="M614.8 525l23-14.3L593 492l17.6 49" />
    <path fill="#48474d" d="M529 439.4L460 514l79.6-86-11.5 28.5" />
    <path fill="#2f77c6" d="M761.7 380.2l3.3-3.2-36.4 11.6-11.7 8.6" />
    <path fill="#3b2117" d="M384.5 589.7l-46 89.2L395 569l-21 14" />
    <path fill="#2f2631" d="M685.2 524.7l-20.4-2.4 122.8 22-38.8 3.6" />
    <path fill="#202b39" d="M337.5 491.6v-13l6 14L380 464" />
    <path fill="#6474aa" d="M700 265.5l-10.2 13h-29l2.7 4.3" />
    <path fill="#395b7e" d="M579.2 374l-3.6-9.5 2.2 13.6h39.8" />
    <path fill="#6caff3" d="M952.7 155.7L917 199l83.7 3-15.5-45.6" />
    <path fill="#432c2a" d="M329 649.8l61.5-103 8.7-31.5-2.4 22.4" />
    <path fill="#ffb930" d="M839 631.2l-3.7 19L800 633l40.7.6" />
    <path fill="#fceb19" d="M853.5 647.5l-2.8-6 33-3.2 54.5 22.2" />
    <path fill="#1e3f7e" d="M792 349.2l42 10.2-116.2-8 180 2" />
    <path fill="#161320" d="M266.2 503.7l17.5-15.6 61-11-30-8" />
    <path fill="#4a3547" d="M956.5 312l-6.8 16.5 23-7-8.6 6.6" />
    <path fill="#1d1725" d="M92.4 413L217 425.2 80.4 462.4l72.2 2.4" />
    <path fill="#241f2b" d="M355.4 507.5l1-54.5-7 1.2 2.8 36" />
    <path fill="#8aa1af" d="M847 235l5 13.4-.8 6.8-20.7-1" />
  </g>
</svg>