<svg version="1.1" viewBox="0 0 1024 682" width="1024" height="682" xmlns="http://www.w3.org/2000/svg">
  <g fill-opacity=".5">
    <path fill="#c1775b" d="M880 307l-9-15 50 23 7-35" />
    <path fill="#1a427a" d="M610 369l34-2 7 8 2-11" />
    <path fill="#8c9582" d="M203 462l-5-5 7-3 4-4" />
    <path fill="#5d6690" d="M714 258l22 28-7-22-45-9" />
    <path fill="#e4b8b6" d="M121 297l-3-100v-7l8 71" />
    <path fill="#433f4e" d="M488 468h16l12 9h-29" />
    <path fill="#9bd5bf" d="M630 451l-1-5-31 23-36 10" />
    <path fill="#695d75" d="M831 263l85 16-92-24 13 46" />
    <path fill="#729983" d="M860 445l-34 1 33 3 8 44" />
    <path fill="#182c41" d="M284 633l-4-11-30 3-77 6" />
    <path fill="#d3e6c3" d="M630 482l1 6 11-6-33-22" />
    <path fill="#060210" d="M684 629l-10-8-24 16 19 6" />
    <path fill="#889660" d="M324 673h-11l23-6-24-5" />
    <path fill="#597565" d="M852 422l-8-16 1 12-4 27" />
    <path fill="#1b181e" d="M47 499l5-35 12 23-95-63" />
    <path fill="#0f0b11" d="M855 544l-16 91 26-68-38-28" />
    <path fill="#23487d" d="M169 616l-4-5 23-32-37 52" />
    <path fill="#f0a824" d="M401 586l6-6-24-21 29 16" />
    <path fill="#5e889d" d="M566 328l-5 8 4 13-1-5" />
    <path fill="#6591d0" d="M617 254l-36-3-2 1 3-10" />
    <path fill="#0e0d11" d="M695 613l24-5-77-7 131-5" />
    <path fill="#1b2022" d="M550 466l-31 60 22-15-38-2" />
    <path fill="#2b2124" d="M599 318l20-2-18-8-15 6" />
    <path fill="#7f603d" d="M248 543l122 17-120-14-28-7" />
    <path fill="#67aee8" d="M891 215l9 30 91-12-114-12" />
    <path fill="#aac0e9" d="M159 153l-60 28 143 8-23 52" />
    <path fill="#ca6f5f" d="M531 299l46 2 8 9-67-9" />
    <path fill="#5f7d69" d="M885 446l41 16-5-15-10 8" />
    <path fill="#b1d2cc" d="M233 285l3 4 5-2-2-9" />
    <path fill="#202e46" d="M413 373l-13-54 16 97 13-78" />
    <path fill="#a97872" d="M195 526l-25 5 13-7 11-1" />
    <path fill="#336dbc" d="M326 427l10-2-30-3 76-1" />
    <path fill="#925c3f" d="M165 296l7 10-21-5-3 13" />
    <path fill="#78789f" d="M1011 474l-10-51 4 9 4-52" />
    <path fill="#bae1ca" d="M555 433l12 1 22-16-34 11" />
    <path fill="#1e1815" d="M413 570l10-8 21-7-38 3" />
    <path fill="#352f32" d="M809 420l6 32-2 17-15-7" />
    <path fill="#6f9f7d" d="M583 430l36 53-14-37-5-3" />
    <path fill="#be490b" d="M412 538l-66 22 10-12 52-1" />
    <path fill="#4d63a5" d="M723 223l3 65-4-42-2-39" />
    <path fill="#b1910c" d="M594 562l-2-3 10-3-6 12" />
    <path fill="#88afcb" d="M547 418l-40 18-10-6 25 3" />
    <path fill="#1a1d19" d="M750 569l-75-1 36 30-15 22" />
    <path fill="#d7e7f4" d="M367 163l73-29 188 4-158 30" />
    <path fill="#844833" d="M447 559l-5-8-12 35-1-16" />
    <path fill="#44427d" d="M588 292l-65-11-17-9-30 7" />
    <path fill="#739182" d="M564 438l-3-5-1-18 12 39" />
    <path fill="#12172c" d="M338 402l3-49-18 37 140-25" />
    <path fill="#907a80" d="M639 536l2 30 2-32-5-34" />
    <path fill="#38252f" d="M778 662l-120-26 172 28-7 6" />
    <path fill="#ba6353" d="M938 274l-9 16 17 16-5-29" />
    <path fill="#27346d" d="M974 303l-3-48 9-9-3 60" />
    <path fill="#0b1423" d="M1018 368l-28 35-23-10 88-65" />
    <path fill="#1b1c2e" d="M333 351l-1 37-116 69 98-39" />
    <path fill="#1e2a51" d="M313 241l24 19-47 6 39 1" />
    <path fill="#b3beb6" d="M100 333l-16-5 23-4-7 11" />
    <path fill="#496390" d="M582 358l38 7-71-1-3-7" />
    <path fill="#2c66b5" d="M493 340l56-11-34 5-43 4" />
    <path fill="#97d4e0" d="M671 372v4l24 2-6 2" />
    <path fill="#133a81" d="M797 389l-6-3-5-2-51 4" />
    <path fill="#66544d" d="M504 577l-33 36-9-5 23-9" />
    <path fill="#584453" d="M735 649l-16-11 4 24v9" />
    <path fill="#d0e9db" d="M349 361l-3-1 25-1-26 5" />
    <path fill="#182e48" d="M354 355l5 62-4-89 15-4" />
    <path fill="#4d4d48" d="M649 441l-23-7 32 4 75-2" />
    <path fill="#140d1d" d="M202 437l-5 78v-90l-70 64" />
    <path fill="#343659" d="M538 318l-14-62 25 36-34-3" />
    <path fill="#ffcf7d" d="M618 306l10 3-3 6-2-8" />
    <path fill="#4089ce" d="M678 361l-111-9-4 2 21 5" />
    <path fill="#485e9e" d="M601 276l-28-6 65-1-10 8" />
    <path fill="#ab5c25" d="M346 534l11-13h6l-41 37" />
    <path fill="#eec3b4" d="M152 297l3 6-21-48-4 47" />
    <path fill="#6f6f6e" d="M916 242l-9 49v42l5-61" />
    <path fill="#31524f" d="M826 458l10-17-15 13-19-14" />
    <path fill="#1d2637" d="M126 308l-45 3 8 90-11-99" />
    <path fill="#624b4b" d="M720 336l33-68-9 12v23" />
    <path fill="#f2db13" d="M65 499l33-9-43-3 11 8" />
    <path fill="#204488" d="M206 574L97 628l108-43 15 57" />
    <path fill="#1d3060" d="M712 357l-30 1-4 10 47-2" />
    <path fill="#293878" d="M722 266l27 32 16 1-36-9" />
    <path fill="#e0958d" d="M148 245l2 63 14-58-4 52" />
    <path fill="#2c527e" d="M272 658l-6-3-13-15 20 3" />
    <path fill="#174482" d="M960 337l39 2-8 6-42 4" />
    <path fill="#dc9629" d="M400 571l-12 13 21-12-50-6" />
    <path fill="#c7c9e6" d="M620 188l89 1-32-17-285 34" />
    <path fill="#191e25" d="M285 594l-22-62 18 28-16 90" />
    <path fill="#1e2d4b" d="M724 444l-6 43-17 1 27-18" />
    <path fill="#985622" d="M66 478l31-1v11l-11-19" />
    <path fill="#ae797a" d="M245 470l21-1-9-2-7 13" />
    <path fill="#25353d" d="M755 539l-10 31-31-10 40 17" />
    <path fill="#7b511f" d="M502 555l-121-11 114 12v-22" />
    <path fill="#d48c61" d="M678 567h-5l-10 1v-10" />
    <path fill="#3c3a6a" d="M593 317l-25 1-19 4 21 6" />
    <path fill="#123a79" d="M677 469l31-6-10-14-30 19" />
    <path fill="#fa8422" d="M912 665l24 18 21-16 2 10" />
    <path fill="#cd8d5c" d="M919 313l-34 12 15-9-63-20" />
    <path fill="#e79b55" d="M27 518l-28 3 106 17-80-10" />
    <path fill="#d57831" d="M327 548l20 12-52-5 45 8" />
    <path fill="#5370a7" d="M888 266l-1 7-5-10-5-33" />
    <path fill="#1c2341" d="M473 408l-35 10 14-23-37 11" />
    <path fill="#45726a" d="M662 485l19 7-24-12-9 4" />
    <path fill="#b6b99e" d="M209 257l4 19-11-4 14-13" />
    <path fill="#eca160" d="M890 309l9 11 6-10-4-12" />
    <path fill="#150e11" d="M290 527l-19-18-14 11-29-25" />
    <path fill="#8f876a" d="M729 455l-1-9-4 22 2-24" />
    <path fill="#c7e6fd" d="M409 119l-128 13 143 7 175-16" />
    <path fill="#bac2e7" d="M405 192l-29-16 78 16-52 39" />
    <path fill="#2076c3" d="M372 419l2-13-26 10 25-6" />
    <path fill="#948aa9" d="M481 308l5-31 15 20-14 4" />
    <path fill="#635516" d="M901 599l3 12 7 3 6-1" />
    <path fill="#1b1e35" d="M248 637l-29 31-30 45 69-59" />
    <path fill="#81b391" d="M808 496l17 27-3-23h-21" />
    <path fill="#84c7fc" d="M687 151L561 90l42-20 185 101" />
    <path fill="#c99786" d="M402 266l12 1-21 26 4 4" />
    <path fill="#4d4f70" d="M273 580l-9 14-15-4 15-9" />
    <path fill="#f0e7ac" d="M732 446l-8 5v6l9 2" />
    <path fill="#11151a" d="M296 621l-32 47 22-12 26-51" />
    <path fill="#5c8d76" d="M911 583l-16-9-20 3 12 7" />
    <path fill="#a79270" d="M510 515l7 16-6 9 15-29" />
    <path fill="#bcc5ba" d="M767 244l9 1-24 11-10-7" />
    <path fill="#b18761" d="M639 604l23 1-56-7 14 3" />
    <path fill="#686b8e" d="M727 209l-10 109-32 8 31-17" />
    <path fill="#132631" d="M972 342l77 22-26-30-51 35" />
    <path fill="#61a190" d="M559 379l7-14-1 1 6 18" />
    <path fill="#101820" d="M575 497l23 41-74-66-13 38" />
    <path fill="#173981" d="M142 665l-37 37-97 11 136-58" />
    <path fill="#95daff" d="M-2-26L-31 95l64-31L46-6" />
    <path fill="#97cdbb" d="M632 447l-3 24 3-69 1 30" />
    <path fill="#f1ce6c" d="M740 318l12-3-9-2-4-9" />
    <path fill="#653622" d="M225 494l38 34-16-16 6 15" />
    <path fill="#a8d1b0" d="M896 462l-3-22-5-9 3-4" />
    <path fill="#e69362" d="M101 523l7 27-42 10 39-21" />
    <path fill="#7da585" d="M817 408l12 9-5 37 7-14" />
    <path fill="#5b5978" d="M357 229l60-9-89 12 29 6" />
    <path fill="#1a1515" d="M322 535l-50-1 24-40 10 64" />
    <path fill="#668675" d="M723 471l7 92 12-68-10 54" />
    <path fill="#1c1c15" d="M536 583l-1-26-17 2 18-20" />
    <path fill="#658a75" d="M880 576l16 22-32 18 35-43" />
    <path fill="#89a9a6" d="M443 330l5-2 10 5-38-1" />
    <path fill="#1f2337" d="M166 466l61 8 10-81-1 91" />
    <path fill="#434962" d="M44 312h59l45 10-72 1" />
    <path fill="#272e2c" d="M571 565l-9-15 23 20 14-19" />
    <path fill="#aea5b2" d="M627 261l10-7-29 18-9-7" />
    <path fill="#ccb9d1" d="M1018 253l37-26 1 19-20 17" />
    <path fill="#06000c" d="M846 711l1-63-2-52-3 76" />
    <path fill="#a6622f" d="M596 586l1 9-5-8 1-7" />
    <path fill="#43384e" d="M517 652l13-4 8-35 1 35" />
    <path fill="#3d3e5a" d="M605 285l10-3 41 9 2-19" />
    <path fill="#3771b3" d="M793 372l41 26-80-56 10-2" />
    <path fill="#a8cac3" d="M322 244l-3-10 15 7h-9" />
    <path fill="#75b5c2" d="M683 356l-5 15 5 14-22-19" />
    <path fill="#de7317" d="M142 525l46-4-59-9 16 20" />
    <path fill="#4d5954" d="M556 459l-145 57 172-68-13-6" />
    <path fill="#19458e" d="M737 489l87-11-25 20-96-14" />
    <path fill="#2d242b" d="M707 529l99 10-115 1 25-47" />
    <path fill="#2463b2" d="M907 394l33-7-13 10-5 1" />
    <path fill="#07070f" d="M1033 638l-58-36 49 57-23-1" />
    <path fill="#392e3e" d="M719 416l8 46-4 6-12-50" />
    <path fill="#202f62" d="M312 247l41-45-17-14 29-8" />
    <path fill="#5b5f4d" d="M602 513l-13 12 105 17-98-16" />
    <path fill="#20232f" d="M549 317l-2-9-51-6 4 20" />
    <path fill="#445a47" d="M834 505l-17 25 4 6 15-55" />
    <path fill="#f2b82b" d="M367 571l-40-15 43 12 31-3" />
    <path fill="#3a8ecf" d="M669 359l-34 21 19 7 6 6" />
    <path fill="#141514" d="M472 604l-10-10 10 12 45 4" />
    <path fill="#97839a" d="M422 271l134-12 6 21-23-19" />
    <path fill="#1f201c" d="M353 635l-4 46-8-39 23 38" />
    <path fill="#c1edd9" d="M379 444l-20 6-2-13 30 9" />
    <path fill="#75719d" d="M189 194l118-1 18 5-88-4" />
    <path fill="#00021d" d="M9 678l-17 35h-17l-6-45" />
    <path fill="#598b80" d="M962 493h-36l3-23 5 14" />
    <path fill="#2d2b40" d="M708 626l-62-9-18-13-18-1" />
    <path fill="#c3d0aa" d="M540 240l20 13h-9l-34-14" />
    <path fill="#ba6e3c" d="M493 569l3 6-40-8 4 5" />
    <path fill="#273f6e" d="M490 333l12-22-51 43v-15" />
    <path fill="#414165" d="M585 659l40 4 24 18-81-18" />
    <path fill="#27528f" d="M263 650l-15-5 12-11 3-28" />
    <path fill="#212f64" d="M311 200l-63 7 41-1 19-28" />
    <path fill="#3e464a" d="M900 454l88-37-110 49-68 4" />
    <path fill="#f8c9c1" d="M114 280l1 21-4 2-2-35" />
    <path fill="#232d40" d="M676 339l37-16-10-10 68 42" />
    <path fill="#333c43" d="M143 340l19-28-17 38 34-35" />
    <path fill="#191717" d="M502 609l-61 9 26 16 37-41" />
    <path fill="#b39279" d="M924 280l2-15h5l-14-1" />
    <path fill="#35494a" d="M131 319l-1 14-9 44 4 5" />
    <path fill="#1d202b" d="M420 603l-27 24 6-18-98-14" />
    <path fill="#aac0e6" d="M223 205l10-52 7 84-42-2" />
    <path fill="#938184" d="M28 294l-10 2-40-50 37 45" />
    <path fill="#374541" d="M905 515l7-53 3 37 7 3" />
    <path fill="#a45974" d="M33 251l7 28-7-33 69 5" />
    <path fill="#9e4754" d="M371 534l1-4 4 10-24 3" />
    <path fill="#0c2757" d="M849 396l25-5-17-1-10-2" />
    <path fill="#d9c5be" d="M408 267l-8-1 26 29-23-10" />
    <path fill="#8ca473" d="M869 599l26 5-8 14-23-6" />
    <path fill="#a1bfa2" d="M790 294l-1-10-2-3 14 1" />
    <path fill="#cde9dc" d="M828 427l5 10 7-3-2-5" />
    <path fill="#201e1e" d="M102 472l-16-8-19-35-5 44" />
    <path fill="#503f4f" d="M731 667l16-10 17-1 21 9" />
    <path fill="#494b81" d="M592 307l-37-26 12 17 28-3" />
    <path fill="#0d1122" d="M73 366l-60 57 137-29h164" />
    <path fill="#ce9fab" d="M183 297l1-54-60 9 46-4" />
    <path fill="#3b5932" d="M955 573l-14-17-6-17-15 22" />
    <path fill="#524859" d="M86 271l21 13-10-17-8-58" />
    <path fill="#41536f" d="M561 377l-66-9 6 9 43-6" />
    <path fill="#8b7a80" d="M241 295l21 2 1-15-13 18" />
    <path fill="#b9c4e5" d="M336 194l-18 21 1-48-32-3" />
    <path fill="#3575bd" d="M342 407l-33 14 10 5-1-17" />
    <path fill="#4268ad" d="M200 244l-8 6 9 24-19 15" />
    <path fill="#97aeb3" d="M259 238l-54-3 67 4-16-9" />
    <path fill="#cef2e2" d="M358 441l9-3 6 5-15 7" />
    <path fill="#2e3463" d="M316 231l-7-33h-54l62-1" />
    <path fill="#12131d" d="M211 685l-30-32 26 60-18-115" />
    <path fill="#1a273c" d="M225 358l75-55v-4h28" />
    <path fill="#85bbef" d="M752 260l-31-1 84-54-65-7" />
    <path fill="#25274b" d="M750 679l-49 34 174-22-114-20" />
    <path fill="#d7962c" d="M563 312l-12 5 27 1-1-5" />
    <path fill="#3b333a" d="M125 345l34-47 5 1-45 42" />
    <path fill="#0f111c" d="M361 613l85 58 53-39-1 22" />
    <path fill="#b9f0fe" d="M768 58l137-12-154-8-28 31" />
    <path fill="#733e18" d="M231 494l35-8-57 10 24-14" />
    <path fill="#2a4563" d="M503 332l-53-3-115-7 63 1" />
    <path fill="#cb784a" d="M248 529l-5-19-3 18-1 1" />
    <path fill="#13111f" d="M213 485l-99 25 35-12 12-70" />
    <path fill="#7072ac" d="M1006 495l-11 3 49 1-4-7" />
    <path fill="#aac4eb" d="M888 191l4-21-86 16 35-10" />
    <path fill="#608c80" d="M877 485l28 29-15-31-7 4" />
    <path fill="#253568" d="M757 713l-283-56 61-14 14 15" />
    <path fill="#283d24" d="M935 587l12-28-24 36 8-2" />
    <path fill="#e6fde9" d="M732 530l-5-11-11-12 17 8" />
    <path fill="#253b57" d="M421 368l10 75-15-105-3 20" />
    <path fill="#f7bc68" d="M545 315l32-5-5-7-20 6" />
    <path fill="#e2cfd1" d="M717 243l-5-35 6 22 1 28" />
    <path fill="#183563" d="M162 660l-3 12 8 6 8-27" />
    <path fill="#3a4a74" d="M341 449l27 11h46l5-3" />
    <path fill="#a9c6ea" d="M492 211l135 30-36 10 16-38" />
    <path fill="#9ebcb5" d="M484 332h-42l-8 14 8-15" />
    <path fill="#3c82cb" d="M887 352l6-6-17 1-19 3" />
    <path fill="#b19e94" d="M597 570l18 11 7 4-1-11" />
    <path fill="#6d2d09" d="M368 554l18 10v-18l3-3" />
    <path fill="#272320" d="M518 503l34 47 1 19-11-27" />
    <path fill="#3e4864" d="M21 303l-52 21v-99l53 96" />
    <path fill="#92616a" d="M990 307h2l19-10 14 7" />
    <path fill="#d1bb65" d="M935 614l-16-3 19-15-2 12" />
    <path fill="#08152f" d="M826 468l1 5-105-12 15 2" />
    <path fill="#161f33" d="M429 363l-153 5 133 9 11-35" />
    <path fill="#4ca4c4" d="M904 382l1-4h-60l2 3" />
    <path fill="#2b3963" d="M366 233l-72 3 8 57 3-55" />
    <path fill="#1b2e3d" d="M494 363l-90-3 6 9 187-23" />
    <path fill="#0e101f" d="M25 324L6 362l118 86-155-50" />
    <path fill="#79beed" d="M954 222l-137-1-1 42-55-45" />
    <path fill="#647d71" d="M593 437l7-23 22-7-30 5" />
    <path fill="#3b3e4b" d="M784 602l20-11-4 16-16-12" />
    <path fill="#396f97" d="M67 327l7-6 2 2-10 13" />
    <path fill="#3ea3c6" d="M722 455l-3 11-22 5 25-13" />
    <path fill="#75a896" d="M325 331l11 7-6 9 9 3" />
    <path fill="#4a89c7" d="M607 362l2 29-6-20 12-8" />
    <path fill="#d0c185" d="M510 586l-1-52 8 47 44-20" />
    <path fill="#846538" d="M261 517l12 5-31 4 19-7" />
    <path fill="#153478" d="M-15 557l77 154-71-47 8-148" />
    <path fill="#9cd7ce" d="M638 415l-7-31v11l12 4" />
    <path fill="#a35bb1" d="M724 216l1 6-14 1-6-5" />
    <path fill="#0b1c41" d="M888 374l57-9-57 13-28-4" />
    <path fill="#6d491c" d="M644 565l-13-25 27 82-19-54" />
    <path fill="#1a325d" d="M332 274l-16 2 29 21-13-19" />
    <path fill="#73796c" d="M548 466l-34 7-2-5 6-24" />
    <path fill="#facbdf" d="M405 238l87-2-55-2-36 16" />
    <path fill="#638d66" d="M717 527l2-1-4-25-4 27" />
    <path fill="#aed4c3" d="M626 433l-9-5 62 6-14 2" />
    <path fill="#a6d1b8" d="M605 410l10 30 4-5-21-21" />
    <path fill="#df9e67" d="M930 305l23 10-1-11-31-1" />
    <path fill="#d53b8d" d="M444 254l10-15 6 16v10" />
    <path fill="#e9ffe6" d="M591 383l5-2-11-4 4 6" />
    <path fill="#2d407d" d="M149 534L78 691l64-139-18-13" />
    <path fill="#596980" d="M319 294l-6 3v-32l-8 25" />
    <path fill="#465c68" d="M663 409l-41 9 38-12 64 64" />
    <path fill="#2b4256" d="M959 388l-92-5 18 10 3-10" />
    <path fill="#5b7778" d="M792 401l109-52-113 54 3 63" />
    <path fill="#181b1b" d="M627 526l-3 7-43-19 31 12" />
    <path fill="#35393c" d="M317 694l13-18h-33l-11-24" />
    <path fill="#303343" d="M768 440l-23 11-37 27-37 17" />
    <path fill="#b6b451" d="M498 308l-16 5 4 11 3-8" />
    <path fill="#984051" d="M-31 527v-5l40-7 7 6" />
    <path fill="#809b75" d="M904 412l4-8 1 46 3-44" />
    <path fill="#cbe6cf" d="M774 511l-15 22h-5v-26" />
    <path fill="#8b717a" d="M967 308l-13-9 17 27-5-13" />
    <path fill="#202c37" d="M81 321l-37 43 74-32-74 48" />
    <path fill="#954423" d="M398 589l17-17 11-13-1 10" />
    <path fill="#b33c27" d="M1005 678l-31 35-21-37-60 22" />
    <path fill="#101016" d="M268 536l63-46-17 29-39-20" />
    <path fill="#f6f6dd" d="M425 311l-10-12 8-7 10 8" />
    <path fill="#ed8836" d="M313 561l21-13-10-1 16 12" />
    <path fill="#101317" d="M564 524l56-45-10 2 1 24" />
    <path fill="#4f435c" d="M272 268l-17 11-2-43 16 13" />
    <path fill="#43696f" d="M930 450l5-44 1-8-9 7" />
    <path fill="#5c5e99" d="M414 199l-59 6 27 3 11-4" />
    <path fill="#423d69" d="M362 249l33 10-38 5 19 8" />
    <path fill="#447070" d="M323 346l40 2 18 17 12-5" />
    <path fill="#7d9e8a" d="M98 357l2 2-10 7 23-10" />
    <path fill="#112d5f" d="M371 408l-38 6 81-35-72 31" />
    <path fill="#2d3a5c" d="M303 465l64 9-10 15 26-15" />
    <path fill="#3466a8" d="M743 352l-27 20 8-9 3 5" />
    <path fill="#e0a342" d="M862 610l22 26-10-23-2 53" />
    <path fill="#45445e" d="M877 250l-9 36 15-31-4-6" />
    <path fill="#f2e74c" d="M73 533l43-15-76 7 7-4" />
    <path fill="#7b5351" d="M876 287l-76-2 3 2h3" />
    <path fill="#c1daf2" d="M302 183l-21-65 102 31-68 22" />
    <path fill="#d29655" d="M468 576l10-8 29 7-15-11" />
    <path fill="#8fc7ae" d="M582 456l-17 6 34-11-16-10" />
    <path fill="#1b2e5e" d="M779 292v22l18-5-2-16" />
    <path fill="#d49375" d="M410 278v-10l-18 7 26 5" />
    <path fill="#914330" d="M592 625l-8 11 8-22 1 1" />
    <path fill="#3f3549" d="M513 640l10-13-24-3-15 15" />
    <path fill="#5d5463" d="M483 594l7-19 18 4-21 5" />
    <path fill="#375553" d="M939 528l43-2-66-2 13 12" />
    <path fill="#ff9527" d="M564 596h-21l27 15-25 2" />
    <path fill="#7db5ea" d="M774 169l185 70-28 8 5-17" />
    <path fill="#444750" d="M88 275l4 15-2 71-1-18" />
    <path fill="#5f8fc6" d="M827 231l26 12-34-4 19-7" />
    <path fill="#97c2c6" d="M675 382l11-1 22-7 2-5" />
    <path fill="#77a179" d="M635 496l-34-39-11 32 6-43" />
    <path fill="#8eb879" d="M748 424l1 16-2-7-3-12" />
    <path fill="#3693d5" d="M874 385l9-30-15 7 8 15" />
    <path fill="#9f9794" d="M736 296l13-33-51 9 56-9" />
    <path fill="#464d36" d="M613 546l3-36 5 42 15-14" />
    <path fill="#867aa3" d="M174 188l-14 12 21 2-4 30" />
    <path fill="#ad5f72" d="M2 540l85 13-71-18H-2" />
    <path fill="#537385" d="M377 304l-3 9-34 10-7-13" />
    <path fill="#d6edd8" d="M719 509l20-5-1 16-19 10" />
    <path fill="#093db0" d="M275 172l15 3 17 9-45-8" />
    <path fill="#5e5b85" d="M70 604l41-19 13 4-68 13" />
    <path fill="#192837" d="M273 633h-38l70-13-10-29" />
    <path fill="#8c99b1" d="M770 289l6-36-42-1 34 1" />
    <path fill="#2c2330" d="M482 410l-9-23-51 25 32-21" />
    <path fill="#c51414" d="M315 562l58 11-54-6 16 10" />
    <path fill="#2b4f9c" d="M234 589l-19-12 14 38-21 8" />
    <path fill="#a6bfa8" d="M834 491l-1-2 4 20-1-12" />
    <path fill="#556ab7" d="M512 429l3-1-24 6-26-4" />
    <path fill="#352010" d="M678 591l-44 13 53-8-18-17" />
    <path fill="#ec9158" d="M9 526l21-6-61 8 28 1" />
    <path fill="#abd4c1" d="M617 472l-8-11 2-34 8-10" />
    <path fill="#d19164" d="M577 562l-4 5 7 2-13 11" />
    <path fill="#be9265" d="M544 580l30 34-23-32 6-23" />
    <path fill="#fabe55" d="M728 316l-2-1-6-1 4 9" />
    <path fill="#1d2a35" d="M116 365l-13-39 4 19 1 51" />
    <path fill="#382c29" d="M700 647l30-43 34 5-58 12" />
    <path fill="#898093" d="M632 503l46-4-11-2-5 16" />
    <path fill="#284995" d="M961 240l5-4 7 15 22-5" />
    <path fill="#1a304d" d="M450 428l-36-4 9 8 2 15" />
    <path fill="#e38e31" d="M986 668l-11-18 10 3 2 4" />
    <path fill="#1e458e" d="M80 629l70-10-39 23 12 17" />
    <path fill="#14161c" d="M348 622l1 65-13-84-6 18" />
    <path fill="#93a069" d="M333 708l36-49-2-3 7-3" />
    <path fill="#131a22" d="M793 539l82-24 22 35-2-13" />
    <path fill="#50577a" d="M313 270l-3-13 1-72 2-4" />
    <path fill="#1a2538" d="M143 537l25 6 14 16-11-23" />
    <path fill="#a5c4b6" d="M399 515l-13 7-8-15 20 20" />
    <path fill="#0f1624" d="M880 344l47 2-15-18-24 1" />
    <path fill="#1d3342" d="M673 323l12 9-10 32 2 4" />
    <path fill="#c75430" d="M817 656l-33-9-24-16 14-11" />
    <path fill="#404560" d="M360 276l16 11 10 37-6-15" />
    <path fill="#0a2152" d="M769 375l-10-4-7 3-5 2" />
    <path fill="#6b3968" d="M400 316l50-2h28l-14-5" />
    <path fill="#f5e29d" d="M501 569l14-6 2 12-20-18" />
    <path fill="#947e94" d="M450 268l-41 20 145-4-126 1" />
    <path fill="#f4d4b9" d="M169 302l1-12 13 1 2 14" />
    <path fill="#526077" d="M456 407l6-14 74-15-85 18" />
    <path fill="#9acbc3" d="M835 470l-24 24 22-17 5 1" />
    <path fill="#85543c" d="M643 597l-8 27-7-65 8 49" />
    <path fill="#103782" d="M822 343l33-10 26 4-16 9" />
    <path fill="#2a5081" d="M585 384l-10-10v9l-35-1" />
    <path fill="#a1d7c9" d="M673 413l-13-18 7 19 5 2" />
    <path fill="#bad2ab" d="M744 433l-2-6 3-4 1 5" />
    <path fill="#68b7eb" d="M875 248l-43-21-50 15 100-16" />
    <path fill="#985345" d="M199 309l-6-8-6-2v14" />
    <path fill="#0d0817" d="M186 462l-88 14v17l51-17" />
    <path fill="#393950" d="M726 307l39-11-71-2 7-13" />
    <path fill="#3697ce" d="M990 512l3-22-6 5-1 4" />
    <path fill="#d29865" d="M851 301h-8l6 13-58-4" />
    <path fill="#889e95" d="M760 296l4-6 42-1-45 1" />
    <path fill="#574f64" d="M592 274l-26 9 48 1 7 1" />
    <path fill="#13161b" d="M893 563l12 17-83-47 65 43" />
    <path fill="#c6eada" d="M637 465l25 7 9-10-46-4" />
    <path fill="#6e7f6c" d="M311 658l11 20-8-29 17 8" />
    <path fill="#1c1f1e" d="M599 592l5-105 11 55-20-68" />
    <path fill="#262434" d="M686 340h29l46-26-45 39" />
    <path fill="#7980a8" d="M981 260l72 13-14-9-39-12" />
    <path fill="#d8ead4" d="M667 538l-19-1 9 12-17 5" />
    <path fill="#4d3134" d="M240 554l104-12-102 20v-8" />
    <path fill="#765d4f" d="M480 406h1l9-20-9 1" />
    <path fill="#18181a" d="M204 542l-9 8-2-6 3-2" />
    <path fill="#2f3c37" d="M966 432L858 577l62-82 15-18" />
    <path fill="#1e1822" d="M359 494l-19 2 21-36-38 83" />
    <path fill="#e7c522" d="M596 560l2-4-6 6 5 16" />
    <path fill="#1b488a" d="M195 666l-4 1-4-38 9 32" />
    <path fill="#e7e3c5" d="M571 229l7 3-11 2-41-2" />
    <path fill="#65b4c4" d="M864 401l29-14-18 11h-55" />
    <path fill="#584256" d="M180 547l20-31-8 37-37-1" />
    <path fill="#8f9f98" d="M85 348v-26l15 8-12-6" />
    <path fill="#f6c430" d="M905 645l-48-21-3 40-7-27" />
    <path fill="#6e73a0" d="M421 493l-4 3 18 7 14-8" />
    <path fill="#6f4a52" d="M906 264l-6 8 45 7h-21" />
    <path fill="#090c12" d="M1055 598l-25-52-59 71 2-16" />
    <path fill="#20333e" d="M234 366l-20-8 45-15-17-44" />
    <path fill="#ddead4" d="M434 303l1-6 19-5-5-11" />
    <path fill="#588090" d="M953 440l-11 25 1-9v-2" />
    <path fill="#526e4f" d="M606 450l11 68-10-60 2-59" />
    <path fill="#689b3b" d="M949 540l1-10-17 7 12 10" />
    <path fill="#552925" d="M47 513l19-3 61-18-81 20" />
    <path fill="#f29a2f" d="M837 614l-10 32 6-21 3 41" />
    <path fill="#d1c7eb" d="M63 299l-2-13 7 4 6-3" />
    <path fill="#75c6b7" d="M857 454l-3 8-21-6v-4" />
    <path fill="#435e82" d="M421 352l17 6 1-49 1 53" />
    <path fill="#405240" d="M583 468l-1 16-32 26 16-4" />
    <path fill="#0f1935" d="M232 301l10-5v-3l-33 3" />
    <path fill="#071b44" d="M538 396l54 7-7-4-75 1" />
    <path fill="#343644" d="M440 318l-73 11 11-20 96 6" />
    <path fill="#1e2242" d="M40 499l-17 5 16-22 6-18" />
    <path fill="#926f4e" d="M275 495l31 1-17 6-15-5" />
    <path fill="#433b4b" d="M794 398l-40-2v50l4 3" />
    <path fill="#212036" d="M147 393l-39 12-17 15 91-12" />
    <path fill="#131418" d="M549 555l-9 28 9-53 19 9" />
    <path fill="#13171a" d="M829 618l13-130-17 80-11-48" />
    <path fill="#0d0c12" d="M846 573l13-44-39 93 35-31" />
    <path fill="#6c5a2e" d="M900 631l7-21 11-12-18 39" />
    <path fill="#2c3c68" d="M378 298l-95-6v-88l3 82" />
    <path fill="#0f1721" d="M182 713l40-12-101-54 46 14" />
    <path fill="#102b5a" d="M751 369l-9 1-18 3-38 11" />
    <path fill="#1c418c" d="M511 355l-10-12-41 3 12-11" />
    <path fill="#f18927" d="M844 660l-30-28 5-7-34 12" />
    <path fill="#78ab80" d="M937 512l1 31 3-22h1" />
    <path fill="#443529" d="M526 579l3-15-3 53 3-103" />
    <path fill="#1e1917" d="M452 518l23 9-63 33v14" />
    <path fill="#153367" d="M686 377l46-35-53 36 4-22" />
    <path fill="#2d2c2b" d="M736 560l12-64 1 58-80 6" />
    <path fill="#855f3b" d="M475 546l12 4 7 49-5-52" />
    <path fill="#1e448c" d="M382 332l46-6-3 10-20-3" />
    <path fill="#0e121f" d="M150 562l65 1-71-8-5 3" />
    <path fill="#334889" d="M21 303l47-6 16 6H42" />
    <path fill="#0e0d11" d="M814 615l-7-49 20 27-11 5" />
    <path fill="#94aeb2" d="M551 253l21-26 2 15-13 13" />
    <path fill="#173977" d="M849 365l27-11-43-34 40 26" />
    <path fill="#7ecefe" d="M983 95l72 20-158-6 76-15" />
    <path fill="#17212e" d="M197 633l-10-23 34-1-77 48" />
    <path fill="#353145" d="M393 530l8-19 16-27 4 15" />
    <path fill="#11181e" d="M308 649l-42-60 27 8-30 47" />
    <path fill="#685151" d="M241 300h-5l2 9 13-27" />
    <path fill="#809884" d="M878 450h4l-8 10-13 7" />
    <path fill="#431d20" d="M646 605l-13-3-8-21-5 13" />
    <path fill="#e4a9a4" d="M70 258l-1 19 6 23-4-56" />
    <path fill="#180b0d" d="M636 618l-21-1 9 33-5-12" />
    <path fill="#4d8a87" d="M627 425l-5 1-4-5 22-8" />
    <path fill="#b78789" d="M102 236l13-4-24 13 31-26" />
    <path fill="#5d6181" d="M537 301l-52-10 13 3 9 5" />
    <path fill="#b0ddff" d="M520 124l-218-24 145-4 105 27" />
    <path fill="#c8fcfe" d="M1055 42V20L907 61l31 11" />
    <path fill="#3d2924" d="M483 563l-42 17 41-15 1 100" />
    <path fill="#295074" d="M314 347l78 10-37-1 4 1" />
    <path fill="#fcfca1" d="M1033 301l-19 9 41 40-18-55" />
    <path fill="#433e5c" d="M242 229l30-22-37-3 39 25" />
    <path fill="#163367" d="M423 408l18 8-45-8-87 17" />
    <path fill="#f7d4e7" d="M483 307l-18-3h1l-23 6" />
    <path fill="#7182a6" d="M742 494l-42-4 124 16-27-7" />
    <path fill="#32577a" d="M997 612l-9-3-8-12 2-10" />
    <path fill="#99beb5" d="M349 267l-18 5 2 1-37-2" />
    <path fill="#864044" d="M303 565l14 1-17 9-22-30" />
    <path fill="#100e15" d="M476 527l-3-30-4 51-36-19" />
    <path fill="#0d0810" d="M761 595l13-18 9 32-32 6" />
    <path fill="#d1b9af" d="M448 309l-12-15 22-34-13 31" />
    <path fill="#825f7a" d="M111 563l-22 9-48 15 76-20" />
    <path fill="#665264" d="M228 275h-20l-26 15 3 1" />
    <path fill="#260e0c" d="M833 644l12 19 4 17-3-32" />
    <path fill="#264590" d="M60 607l-2 29-18-52-59 51" />
    <path fill="#2f7acf" d="M1005 388l24-23 4-16-4 9" />
    <path fill="#314e60" d="M344 238l-2 64-3-74-7 55" />
    <path fill="#646ba6" d="M500 279l2 4 26-6-20-6" />
    <path fill="#f17938" d="M750 319l14-10-18-9v7" />
    <path fill="#34406c" d="M837 329l-37-6 42-3-14-12" />
    <path fill="#5c653a" d="M208 371l-31 4 12-1 6 5" />
    <path fill="#b8d0ec" d="M182 141l72 40 23-35 30 14" />
    <path fill="#957639" d="M447 558l49 9-49-11-39 15" />
    <path fill="#646f61" d="M226 455l-7 4-1-4 16 13" />
    <path fill="#121326" d="M277 480l-20-3 33-12-30-93" />
    <path fill="#192c50" d="M-31 341l125-8-16 7-37 5" />
    <path fill="#1b2135" d="M683 613l-70 26 46 7-6-39" />
    <path fill="#fcfc6d" d="M104 528l-27-9 6 15-1 2" />
    <path fill="#292835" d="M383 460l39-22h-30l-14 61" />
    <path fill="#cbcbe4" d="M532 257l-64-44-81 12 63-2" />
    <path fill="#6d8b6e" d="M780 533l-7 32-2-18v13" />
    <path fill="#525d50" d="M890 439v8l-33-26h-27" />
    <path fill="#191d2d" d="M225 391l-25-52 37 148-35-118" />
    <path fill="#75a799" d="M921 484l-5 3-1-9 3 32" />
    <path fill="#3ca8d2" d="M661 422l-7-3-13 6 32 5" />
    <path fill="#395d91" d="M354 612l-6 5 3 5 4-6" />
    <path fill="#292d31" d="M875 480l-4 30v-38l-5 2" />
    <path fill="#94beed" d="M584 215l286-15-202 18 10 39" />
    <path fill="#605131" d="M379 512l-28 11 18-13 9 7" />
    <path fill="#37458a" d="M98 193h22l-23 5H86" />
    <path fill="#886b79" d="M625 279l-18-2-4-1 2 15" />
    <path fill="#3b3338" d="M387 448l2 65 2 12-2-74" />
    <path fill="#204072" d="M194 655l-36-46 13 27 17 3" />
    <path fill="#2f2c3a" d="M687 496l10-3-7-12-25-5" />
    <path fill="#3e3969" d="M-31 254l40-7 26 5-66-22" />
    <path fill="#3d6790" d="M697 452l-24 14-9 7 5-9" />
    <path fill="#121d39" d="M850 336l-36-22 65 20-67-2" />
    <path fill="#133161" d="M715 465l14 4h53l-69 18" />
    <path fill="#2e63a7" d="M455 323l160 13-29-9-81-3" />
    <path fill="#3d323c" d="M636 627l17 40-35-2 35-50" />
    <path fill="#923337" d="M845 663l-40-6-23-5-31-14" />
    <path fill="#c1c6b2" d="M719 268l-1-30 4 7-17 34" />
    <path fill="#e2c56b" d="M513 548l13-3-5-11-5 20" />
    <path fill="#2f346b" d="M339 221l55-5-30-21-18 19" />
    <path fill="#180f1d" d="M291 452l-43 12 37-43 15 8" />
    <path fill="#0d3b86" d="M693 471l9-7 6-3-34 4" />
    <path fill="#5e6b66" d="M710 396l-23 71 19-59h10" />
    <path fill="#284070" d="M305 627l4 7-18-13-139-55" />
    <path fill="#27090a" d="M963 702l20 11-8-47-1 36" />
    <path fill="#cbc7b2" d="M489 291l-20-6 20 13-33-8" />
    <path fill="#23241b" d="M455 562l-49-2 25 4-5 4" />
    <path fill="#6676ae" d="M426 476l26-5-31-1v9" />
    <path fill="#4883c4" d="M833 387l-3-27-6 2 2 3" />
    <path fill="#d9dbbb" d="M577 269l16-2-21-12 8 4" />
    <path fill="#102c68" d="M406 710l139-65-106 68-7-39" />
    <path fill="#412c1b" d="M654 593l3-51-1 45h-32" />
    <path fill="#afe9ba" d="M626 489l6-10 21-5 1 13" />
    <path fill="#363341" d="M717 416l56 8-110-3 18-2" />
    <path fill="#613011" d="M973 625l25 10-4 5-19-6" />
    <path fill="#ad7966" d="M797 299l2-35 16 19 16-22" />
    <path fill="#0d0f16" d="M998 598l-22-57 79 7-77 56" />
    <path fill="#34335a" d="M279 178l-41 5 26 10 13-9" />
    <path fill="#233c41" d="M961 504l1 7 8 1 10-15" />
    <path fill="#141616" d="M350 666l41-33-65 43 12-24" />
    <path fill="#b2c7e8" d="M173 199l67-4 2-35-68-7" />
    <path fill="#524a60" d="M104 208l-29-7 27 13 3 34" />
    <path fill="#1c2123" d="M876 539h-61l64 1-1-89" />
    <path fill="#544158" d="M897 713h-73l-20-47 12 3" />
    <path fill="#7893b8" d="M749 392l33 1 9 4-19-1" />
    <path fill="#3a4070" d="M32 574l-49-36 17 21 43-6" />
    <path fill="#3955a7" d="M756 257l10-2 2 24-13 2" />
    <path fill="#678d81" d="M336 488l45-1-51 6 5-20" />
    <path fill="#111119" d="M615 525l23-14-45-19 18 49" />
    <path fill="#48474d" d="M529 439l-69 75 80-86-12 29" />
    <path fill="#2f77c6" d="M762 380l3-3-36 12-12 8" />
    <path fill="#3b2117" d="M385 590l-46 89 56-110-21 14" />
    <path fill="#2f2631" d="M685 525l-20-3 123 22-39 4" />
    <path fill="#202b39" d="M338 492v-13l6 14 36-29" />
    <path fill="#6474aa" d="M700 266l-10 13h-29l2 4" />
    <path fill="#395b7e" d="M579 374l-3-9 2 13h40" />
    <path fill="#6caff3" d="M953 156l-36 43 84 3-16-46" />
    <path fill="#432c2a" d="M329 650l62-103 8-32-2 23" />
    <path fill="#ffb930" d="M839 631l-4 19-35-17 41 1" />
    <path fill="#fceb19" d="M854 648l-3-6 33-4 54 22" />
    <path fill="#1e3f7e" d="M792 349l42 10-116-8 180 2" />
    <path fill="#161320" d="M266 504l18-16 61-11-30-8" />
    <path fill="#4a3547" d="M957 312l-7 17 23-7-9 6" />
    <path fill="#1d1725" d="M92 413l125 12-137 37 73 3" />
    <path fill="#241f2b" d="M355 508l1-55-7 1 3 36" />
    <path fill="#8aa1af" d="M847 235l5 13-1 7-20-1" />
  </g>
</svg>