<svg version="1.1" viewBox="0 0 1024 682" width="1024" height="682" xmlns="http://www.w3.org/2000/svg">
  <g fill-opacity=".5">
    <path fill="#14191c" d="M620 518l-32-42-48 102 6-46" />
    <path fill="#f57c23" d="M547 615l-4-20 22-2 4 6" />
    <path fill="#274f97" d="M217 631l19-47 26 3-69-14" />
    <path fill="#403937" d="M172 300l-17-1-29 91 21-69" />
    <path fill="#330d15" d="M553 615l-68 32 6 8 46-41" />
    <path fill="#14191f" d="M985 564l-16 84 12-147 29 157" />
    <path fill="#70bfd1" d="M882 398l-35-1-17 1 29 3" />
    <path fill="#a4d8bd" d="M564 445l-7 25-6-39 44-13" />
    <path fill="#00000b" d="M648 646l7-19 9-7 20 11" />
    <path fill="#587f7f" d="M940 464l6-52 9 88 20-26" />
    <path fill="#192b73" d="M269 165l50 57-12-38-56 2" />
    <path fill="#0d181e" d="M260 642l18-53 34 84-36-26" />
    <path fill="#2f4673" d="M684 390l-17-1 42-16 28-3" />
    <path fill="#f67646" d="M762 300l5 12h-51l3 5" />
    <path fill="#2f558b" d="M416 339l-56-8 42-4 68 12" />
    <path fill="#0c1015" d="M825 520l75 46-90 23 80 2" />
    <path fill="#386736" d="M957 514l9 14 36-86-23 26" />
    <path fill="#8aa493" d="M659 530l20-1 18-29-23 18" />
    <path fill="#4a899f" d="M985 492l-16 52-22-24 12 18" />
    <path fill="#545e25" d="M900 634l7-27 35-44-11 32" />
    <path fill="#eab291" d="M416 287l-7-45v13l-10 33" />
    <path fill="#3c3242" d="M765 460l18-4 2-56-49-2" />
    <path fill="#8d4f60" d="M841 668l-8-3-57 48h68" />
    <path fill="#9ab6e6" d="M154 186l-185 20 58 40 6-88" />
    <path fill="#796249" d="M533 556l9-1-85 65 29-14" />
    <path fill="#33586f" d="M637 414l49 13-29-18-22 21" />
    <path fill="#141b15" d="M145 628l-20 15-2 19 45-22" />
    <path fill="#6e7b5f" d="M217 459l-17-5 30 4-1 8" />
    <path fill="#1e4184" d="M947 345l33 5 15-30 52-3" />
    <path fill="#2e363f" d="M594 290l28 41 136 18-183-44" />
    <path fill="#211d32" d="M221 406l-10-13-96 7-66 56" />
    <path fill="#c4bebd" d="M631 271l-5-19 18 12 12 1" />
    <path fill="#514381" d="M388 222l10 15 4-35-14-11" />
    <path fill="#a7c3a5" d="M823 418l11 24 8-16-27 1" />
    <path fill="#aec3ea" d="M232 183l-40-39-11 89 59 4" />
    <path fill="#eb8917" d="M386 556l29-20-20 23 19 26" />
    <path fill="#526a58" d="M564 460l-4-10-6-2 29-10" />
    <path fill="#141f21" d="M213 611l-20 24-7-53 26 32" />
    <path fill="#4896c6" d="M908 374l-24 8 12 4 13-10" />
    <path fill="#453542" d="M447 439l22-20 1 84h-20" />
    <path fill="#0f449b" d="M425 413l-13 17-5 1-87-12" />
    <path fill="#1f427b" d="M222 632l-23 30 69-29-69 9" />
    <path fill="#8c2412" d="M953 685l102-15-156 43-30-39" />
    <path fill="#e0b047" d="M916 622l13-27 12 11-13 12" />
    <path fill="#43426c" d="M678 323l58-67 1 52-54-20" />
    <path fill="#e5e2bf" d="M721 226l-5-4-3 45 6-8" />
    <path fill="#353c69" d="M320 238l-62 85 38-99-57-2" />
    <path fill="#101217" d="M652 668l57-20 3 6-23 24" />
    <path fill="#274a8a" d="M553 388l-65-16 141-2-71-6" />
    <path fill="#cedab4" d="M502 270l25-3-4-41 29 14" />
    <path fill="#5a5275" d="M76 604l86-31-38-17-92 5" />
    <path fill="#cff1d9" d="M659 555l1 6 3-23-19-2" />
    <path fill="#1e1d32" d="M185 414l162 14 21 7-37 10" />
    <path fill="#121b2a" d="M217 372l107-32-2-50-15 168" />
    <path fill="#1d1b30" d="M416 507l12-28-190-24 174 8" />
    <path fill="#92c3a3" d="M651 465l-69 1-7 17-14-5" />
    <path fill="#333565" d="M631 275v32l34-33-6-2" />
    <path fill="#262236" d="M501 509l-39-24 5-55 41 9" />
    <path fill="#0d172a" d="M922 314l-35 13 13 46 53-15" />
    <path fill="#3a385d" d="M595 280l-109 29 30-30-40-1" />
    <path fill="#1c1a15" d="M616 542l-17-42-1 84 5-25" />
    <path fill="#6f515e" d="M846 254v10l-14 40-5-40" />
    <path fill="#17191c" d="M396 557l44-8 2 113 14-98" />
    <path fill="#58b3cc" d="M858 381l-6 2-38 34 35-49" />
    <path fill="#87c7ea" d="M514 432h-12l40-13 40-8" />
    <path fill="#16314e" d="M858 365l-8 12 78-5-51 7" />
    <path fill="#3e3d59" d="M367 190l-56 48 43-4-24-36" />
    <path fill="#9f7883" d="M157 233l17-51-22 28 10 164" />
    <path fill="#35383e" d="M546 429l3 39 2 103-2-163" />
    <path fill="#8193a6" d="M688 225l11 1-22-12 11 62" />
    <path fill="#a64c32" d="M604 636l-3-17 41-4-25-4" />
    <path fill="#ddb7b4" d="M131 276l16-19-1-53-5-3" />
    <path fill="#2345ab" d="M364 166l18 24 1-8-48 8" />
    <path fill="#466748" d="M735 539l-4 21 2 8-13-18" />
    <path fill="#715742" d="M666 567l-1-69 11 62-52 37" />
    <path fill="#0e387f" d="M789 472l-63-6-13 22 92 9" />
    <path fill="#36413d" d="M946 466l-48-35 42 30-43 68" />
    <path fill="#1e1b18" d="M230 568l-19-71 107 31-86-15" />
    <path fill="#261717" d="M314 464l-50 40-122 29 164-48" />
    <path fill="#32617e" d="M964 567l-20 50-4-26 37 4" />
    <path fill="#162020" d="M553 507l-32-39 117 70-73-57" />
    <path fill="#b0d2c1" d="M380 357l-4 6-48-4h3" />
    <path fill="#d77175" d="M76 258l-4-7 2 46 11 3" />
    <path fill="#21292a" d="M954 576l15 28-48-49 110-31" />
    <path fill="#a08cb5" d="M484 306l-7-14 19-11 4 9" />
    <path fill="#100e1f" d="M189 398l-10 32-86 60 100 6" />
    <path fill="#131930" d="M540 318l7-13-19 2-31 16" />
    <path fill="#898f9e" d="M615 557l-1-8 8 36-20-8" />
    <path fill="#3a97c6" d="M676 401l-4 20-60 3 57 6" />
    <path fill="#2b565b" d="M374 357l32 19-37-36-31 16" />
    <path fill="#696962" d="M573 476l-59-12-6 58-1-90" />
    <path fill="#524d71" d="M1055 281l-53 4-40 17 62 3" />
    <path fill="#090005" d="M623 641l-10-10 12-17 10 14" />
    <path fill="#ffe4bc" d="M1019 281l-27-17-2 16 20 6" />
    <path fill="#233a4c" d="M649 610l2 11 91 2-26-7" />
    <path fill="#8abef1" d="M745 178l-17 25-1 55 26 2" />
    <path fill="#161314" d="M600 491l1 109-1 28-3 16" />
    <path fill="#5b8477" d="M332 485l16-4-23 11 2-10" />
    <path fill="#bee5c1" d="M755 550l2 21 17-25-7 25" />
    <path fill="#dcad86" d="M948 261l9 6-5 33-4 13" />
    <path fill="#2c3a6d" d="M34 498l-5 2 35 9-10-18" />
    <path fill="#b7a8c8" d="M75 233l-9 63-12-77-21 26" />
    <path fill="#7b84b7" d="M84 267l-7-32 19-83-10 46" />
    <path fill="#c4c4e6" d="M437 232l109-48-144-5v48" />
    <path fill="#95d5c5" d="M676 399l-40-1-13 18 34-11" />
    <path fill="#c18c68" d="M768 625h44l-87-8 32 7" />
    <path fill="#bc9977" d="M912 280l2 15 8-29 15-1" />
    <path fill="#272b35" d="M329 493l56-34-65 71-3-7" />
    <path fill="#37383d" d="M845 508l-5-41-46-1 61-3" />
    <path fill="#795655" d="M928 284l-3 34 14-48-89 6" />
    <path fill="#6c9079" d="M902 387l-12 10-17-12-13 4" />
    <path fill="#749094" d="M313 247l-2 39 8-31h1" />
    <path fill="#0d1d3c" d="M746 561l-2-87 83-4-84-9" />
    <path fill="#5993a8" d="M561 386l29-15-37-1-4-7" />
    <path fill="#96a59e" d="M103 332l22-5-26-3-22 6" />
    <path fill="#2a5492" d="M519 344l4-27-98 46 5-17" />
    <path fill="#f3d44f" d="M895 626l10 36-10-77 9 2" />
    <path fill="#dcb5c7" d="M58 296l-10-8-1 5 3-45" />
    <path fill="#796e91" d="M706 258l53 21-32-22-38 24" />
    <path fill="#1d130d" d="M11 465l-42 26 131-30-131 63" />
    <path fill="#c6946d" d="M377 196l-18 1 7-6 36 8" />
    <path fill="#141d3a" d="M345 414l-23-1 93-18 7-50" />
    <path fill="#143176" d="M772 355l-43-4 169 2-58 5" />
    <path fill="#845736" d="M450 559l-36-25 4-3 94 52" />
    <path fill="#204575" d="M586 386l-3-15 16-37-22 49" />
    <path fill="#6b5f44" d="M532 541l31-20-2-8-18 30" />
    <path fill="#b37156" d="M800 318l20-19 14-20-35-17" />
    <path fill="#364c8e" d="M585 298l21-10 98 2-55 6" />
    <path fill="#4789b9" d="M717 400l-3 17 45-39-36 14" />
    <path fill="#aa5e7d" d="M281 187l1-1 2 12-10-7" />
    <path fill="#374871" d="M427 464l24 1-75-16-26 7" />
    <path fill="#131212" d="M662 587l2 6 13 14 148 1" />
    <path fill="#a98a61" d="M576 595l-2 5v-64l2 9" />
    <path fill="#7fba8a" d="M828 519l-15-17 9-7 9 6" />
    <path fill="#da5c1c" d="M135 505l11 23 25-8-20-15" />
    <path fill="#5c988e" d="M915 478l22 21 32-10-52 1" />
    <path fill="#d1905f" d="M951 302l-100 14 40-17v25" />
    <path fill="#daf3e6" d="M864 432l-12 6-3-2-2-6" />
    <path fill="#7e4d38" d="M693 447l-33 7 17 7-40-3" />
    <path fill="#6384c1" d="M446 455h-17l-9-8 31 1" />
    <path fill="#1c1726" d="M200 468l-14-60 63 70-43-80" />
    <path fill="#c69c4f" d="M506 529l4 35 18-24-35 16" />
    <path fill="#6592c4" d="M439 428l-3-4-11-6 40-5" />
    <path fill="#c7e9ce" d="M772 530l-16-23 1-7-7 33" />
    <path fill="#1a3052" d="M755 395l-11 5 4 11-29-2" />
    <path fill="#182149" d="M711 286l-28 30 29-3-14-33" />
    <path fill="#1b407a" d="M164 656l32-13-9-3-21 36" />
    <path fill="#613234" d="M733 305l25-6-38 5 16 24" />
    <path fill="#15161c" d="M853 542l52 41-9-20-196 50" />
    <path fill="#212e4f" d="M737 325l12 56 21-8-60-36" />
    <path fill="#6a5b89" d="M482 274l-14 11 48 2 10-10" />
    <path fill="#44241d" d="M125 508l54-10 33 26-117-42" />
    <path fill="#3c76c6" d="M805 344l-58 2 130 4-95-6" />
    <path fill="#4e4863" d="M578 593l-63-2 35-7 8 2" />
    <path fill="#78aecd" d="M795 499l11-1 5-3 27-25" />
    <path fill="#8baabb" d="M518 391l-22-13-15 13h18" />
    <path fill="#dec586" d="M490 565l39-20-15-18 1 59" />
    <path fill="#2c4573" d="M324 619l-11-24 1 30 17-2" />
    <path fill="#d8a770" d="M790 622l32-6v-17l-13 31" />
    <path fill="#732e17" d="M406 518l16 16-36 3-14 54" />
    <path fill="#3e4544" d="M810 457l-9-32h77l-40-8" />
    <path fill="#4e5a58" d="M341 653l-23 5 11-14 14-3" />
    <path fill="#327ad5" d="M613 395l-32-12-65 11 76 4" />
    <path fill="#0a2d75" d="M851 347l30-5-4-14-80 16" />
    <path fill="#a19fa0" d="M389 259l56 45-22-29-46-13" />
    <path fill="#5a96ca" d="M691 478l5 2 24-17-54 11" />
    <path fill="#14212f" d="M201 688l-4-49 129-15-118 6" />
    <path fill="#242634" d="M487 393l-97-28 81-8 21 16" />
    <path fill="#404980" d="M-10 234l27 2-11 22 10 2" />
    <path fill="#403c3e" d="M281 301l-128 17 29 16 16-31" />
    <path fill="#274289" d="M898 237l-13-1-18 30 23 1" />
    <path fill="#6ba09a" d="M331 332v19l12-6-8 19" />
    <path fill="#3a6282" d="M945 591l5 1 17 28 1-13" />
    <path fill="#292e34" d="M765 501l-4 69-39 12 42 22" />
    <path fill="#121316" d="M353 669l-14 44 20-90-27 42" />
    <path fill="#11050b" d="M970 631l5 62-1-93 4-11" />
    <path fill="#757aab" d="M453 495l-15 8-11-2-8-7" />
    <path fill="#333637" d="M807 498l-23 63-10-37 46-7" />
    <path fill="#5daeea" d="M902 220l30 26 123-33-191 25" />
    <path fill="#a1b692" d="M649 543l-9 9-21-23 51 35" />
    <path fill="#152b52" d="M336 246l17-10-38 10 20 18" />
    <path fill="#e86e01" d="M637 593l15-2 6 5-21 2" />
    <path fill="#7496a0" d="M291 272l1 4 8-1-5-11" />
    <path fill="#2b5dab" d="M504 325l114-4v20l-20-7" />
    <path fill="#3b2b44" d="M241 182l1 9 32-4 23-3" />
    <path fill="#214032" d="M1001 474l2 20-11-4 10-40" />
    <path fill="#2f3866" d="M487 637l28-16-14 38 101 2" />
    <path fill="#4c2d21" d="M438 587l-33-26-19-65 6 40" />
    <path fill="#cba728" d="M631 558l7-17-5 47v16" />
    <path fill="#c2b2a8" d="M759 245l10-4 13 37 6-5" />
    <path fill="#85a59e" d="M839 465l-8 9 9 15-4-79" />
    <path fill="#3c466c" d="M237 273l-53 5 60 1 90 15" />
    <path fill="#d4f1d7" d="M882 432l10 4-5-13 2-2" />
    <path fill="#3f4e44" d="M635 402l-2 52 14-16-11-2" />
    <path fill="#274962" d="M929 491v20l56-16-25 14" />
    <path fill="#936856" d="M602 289l20-1 5-5-26-5" />
    <path fill="#f5bfc1" d="M110 300l-2-8v-80l8 80" />
    <path fill="#a5b7a9" d="M217 290l29-13 2-12-11 25" />
    <path fill="#cb8432" d="M392 554l-6-54 2 72 22-35" />
    <path fill="#e49e6e" d="M933 308l2-11 17 3 7 15" />
    <path fill="#d07e25" d="M663 574l-1 4 37 13-24-16" />
    <path fill="#a8b77d" d="M348 677l-18 36-5-24 18-15" />
    <path fill="#eeb053" d="M977 324l19-3-22 10 8-5" />
    <path fill="#463e55" d="M624 666l-22-37 17 84 31-70" />
    <path fill="#141931" d="M369 389l107-15-93-8-8-10" />
    <path fill="#846e8a" d="M1004 392l19 8 32-30v7" />
    <path fill="#deb7b8" d="M162 184l23 101-15 31-5-49" />
    <path fill="#151716" d="M438 549l45-5-31-36-22-8" />
    <path fill="#2d3d40" d="M948 544l16 44-13 22-7-54" />
    <path fill="#83c0ef" d="M796 214l29 48-40-12-34-115" />
    <path fill="#48686b" d="M648 390l-1-6 2 34-15 8" />
    <path fill="#46548a" d="M184 264l2 24 34 7-26-35" />
    <path fill="#824e21" d="M598 603l-8 34-1-22 6-37" />
    <path fill="#2f315e" d="M386 227l-138 1 20-22-19 16" />
    <path fill="#917660" d="M813 632l-91-14-83-14h24" />
    <path fill="#e27f49" d="M280 512l-38 7 4 9-16-7" />
    <path fill="#3063ad" d="M947 245l1 14 21 12-1 29" />
    <path fill="#afc3ec" d="M889 161l21 30-48-4 30-20" />
    <path fill="#6d9b80" d="M892 419l-19-11-1 6 27-6" />
    <path fill="#777780" d="M491 377l-18 42 25-43-2-13" />
    <path fill="#a44a19" d="M936 627l17 60-7-56 34-1" />
    <path fill="#212841" d="M62 318l-4-80 3 124-60 1" />
    <path fill="#403149" d="M206 484l83-20 31-3-27 10" />
    <path fill="#8e4741" d="M791 654l-65-23 20-9 23 7" />
    <path fill="#112654" d="M506 394l-13-1 85 6-43 7" />
    <path fill="#a6869d" d="M178 255l10 6-19-92 5 92" />
    <path fill="#a6c6ed" d="M586 229l-23 15 62 6 24-14" />
    <path fill="#373b43" d="M947 387l-50 37-2-36 19 39" />
    <path fill="#437079" d="M974 423l12 21-92 116 8-19" />
    <path fill="#040308" d="M977 575l78 14-51 69 33 2" />
    <path fill="#adeeff" d="M682-2l-62 44-211-11L262-5" />
    <path fill="#659d69" d="M888 537l35 14 20-14 13-1" />
    <path fill="#7f9152" d="M789 449l5-2 5-1 1 24" />
    <path fill="#f2da3e" d="M622 556l12 9 6-10-14-6" />
    <path fill="#142138" d="M172 539l-27-6 23 14 2 19" />
    <path fill="#85baa6" d="M581 404l9 38-6 35-3 15" />
    <path fill="#3f5c72" d="M792 261l-18 33-32 8 55-24" />
    <path fill="#78a77a" d="M604 455l-5 39 13-36-4-57" />
    <path fill="#8eae7d" d="M752 427l-8-4 1 22 2-10" />
    <path fill="#de8766" d="M109 553l-119-19 123 6-59 24" />
    <path fill="#a6bce6" d="M177 190l-3 10 44-9-2 74" />
    <path fill="#08215e" d="M761 386l32 3 1-3-42-4" />
    <path fill="#1f2c47" d="M797 291l-2 22 35 11-113 29" />
    <path fill="#192950" d="M731 337l-30 37-25-4 95-41" />
    <path fill="#1c121b" d="M313 443l-56 47 32 5-25-88" />
    <path fill="#6389b1" d="M222 275l-38-19 3-20 10-2" />
    <path fill="#f0b540" d="M595 618l-9-31-38 12 38 4" />
    <path fill="#b3201c" d="M350 572l-54-7 42-2 50 19" />
    <path fill="#211b1f" d="M701 574l-5-79 16 1-13 172" />
    <path fill="#76aed6" d="M705 374l-24 6 37-15 2 9" />
    <path fill="#feffcd" d="M424 312l20-7-24-13-2 8" />
    <path fill="#c67088" d="M114 264l6-74-8 3 6 106" />
    <path fill="#162a3a" d="M116 426l20-84 102 14-107 9" />
    <path fill="#4c5f58" d="M899 465l-49 1 70-18-49 79" />
    <path fill="#1a293a" d="M525 353l39 12-72-4-34 6" />
    <path fill="#0e0a13" d="M842 489l21 129-15 12-4 59" />
    <path fill="#2b3d81" d="M319 197l-46 19 16-41 24 53" />
    <path fill="#487e69" d="M252 351l11 8 8-6h-24" />
    <path fill="#c3f3ff" d="M776 53l157 35 85-10 21-47" />
    <path fill="#96b3b0" d="M854 241l-5 10-20 5-17-13" />
    <path fill="#c47a52" d="M35 500l2 14-68 20 85-16" />
    <path fill="#4d6884" d="M361 323l8-4-1-51-33 52" />
    <path fill="#42685a" d="M892 519l80 6-103 21 67 21" />
    <path fill="#52679c" d="M958 240l31 18-3 50-10-59" />
    <path fill="#405f6c" d="M848 436l-1-39 82-36-88 40" />
    <path fill="#3ca4de" d="M865 383l1 5 15-31-7-1" />
    <path fill="#0c101b" d="M519 639l-49 19 5-33-140 74" />
    <path fill="#b8d8f0" d="M283 149l-23-25-75 2 69 53" />
    <path fill="#3e4c8a" d="M574 299l9-19-32 17-41 1" />
    <path fill="#3488d0" d="M657 362l-84-8 102 3-6 6" />
    <path fill="#deddd2" d="M553 227l38 6-9-2-153 13" />
    <path fill="#cccdb8" d="M680 266l2-27-2-15-6 25" />
    <path fill="#fbe959" d="M87 548l12-9 15-19H57" />
    <path fill="#f1d41b" d="M361 556l-11 4 63 8-26-4" />
    <path fill="#996e6e" d="M190 533l6 6-11-23 10 6" />
    <path fill="#fffd07" d="M256 485l3 1 5-8-23 7" />
    <path fill="#f3c924" d="M353 557l58 19-2-10-65 1" />
    <path fill="#f7dae6" d="M439 310h51l-42-18 33 5" />
    <path fill="#3c3147" d="M172 552l97 14-75-29-29 13" />
    <path fill="#515d9b" d="M394 221l17-29-23 34-115-5" />
    <path fill="#3f6c6c" d="M627 407l8-21-18 17 9 5" />
    <path fill="#15181a" d="M544 471l1 94 24-30-42-19" />
    <path fill="#99e2fe" d="M375-31H1l212 68 140-2" />
    <path fill="#d3ecd6" d="M639 509l23 6v16l-4-10" />
    <path fill="#a77b64" d="M87 453L72 576l76-23-77 27" />
    <path fill="#515f6c" d="M269 304l-17-7 82-5-93 22" />
    <path fill="#4f4e47" d="M884 420l-19 35v-50l12 43" />
    <path fill="#b9d3cb" d="M332 273l3-1-24-6v7" />
    <path fill="#d0ecca" d="M622 475l37 1-13-37 4 49" />
    <path fill="#ab463c" d="M401 589l6-15 4 13 7 2" />
    <path fill="#8ececb" d="M916 487v10l3-7 2-14" />
    <path fill="#573335" d="M638 590l3 78-20-101 2 41" />
    <path fill="#373274" d="M475 309l-52 22-19-4 44-16" />
    <path fill="#12161b" d="M882 523l-13-48 7 92-94-26" />
    <path fill="#6a7cb2" d="M447 470l-6 12-4-6-23-6" />
    <path fill="#2d2227" d="M748 503l60 2-65-3 2 95" />
    <path fill="#99978e" d="M569 557l-16-2-7 36 1-11" />
    <path fill="#ffdc84" d="M1000 307l48-5 7 25-55-12" />
    <path fill="#83beb6" d="M509 339v7l35-3-34 11" />
    <path fill="#9bc1ae" d="M798 278l-3 18-17-29 10 21" />
    <path fill="#1e303f" d="M374 332l-5 13-77-37-7-12" />
    <path fill="#4f5f4e" d="M653 433l-21 12-1 15 20-21" />
    <path fill="#9ab6e3" d="M42 230l-73 3 75-98 40 116" />
    <path fill="#61926a" d="M986 444l-13-17 18 33-60 79" />
    <path fill="#82584a" d="M108 307l-6-7 2-41 4 10" />
    <path fill="#0c1015" d="M359 634l-54-2 4 48-16-26" />
    <path fill="#2e343c" d="M925 411l13 74-7-52-7 75" />
    <path fill="#0d080e" d="M591 617l-11 13-14 1 20-26" />
    <path fill="#687fb7" d="M408 434l-48-2v-3l27-1" />
    <path fill="#515d46" d="M365 654l22 6-2-8h-5" />
    <path fill="#213249" d="M1012 350l-16 3 3-60-13 9" />
    <path fill="#2d2a3b" d="M738 457l-12-23 58 10 7 20" />
    <path fill="#452649" d="M16 522l-5-5-33 17 61-41" />
    <path fill="#0b337f" d="M927 380l-28 19 52-10-17 5" />
    <path fill="#132963" d="M457 355l41-8-37-5-8-2" />
    <path fill="#cee8dc" d="M855 419l-30-13-4 1 40 1" />
    <path fill="#205196" d="M256 645l10-32-6-6-8 5" />
    <path fill="#639087" d="M259 343l4 4 37-9h12" />
    <path fill="#735770" d="M63 568l114-19-63-2-40 15" />
    <path fill="#0c1f53" d="M66 687l9-26-52 52-48-44" />
    <path fill="#f0b055" d="M751 319l2-11-31 8-2 1" />
    <path fill="#9a7864" d="M473 562l23 22 7-2 11-5" />
    <path fill="#e7b150" d="M146 533l16-5-67-6 13 5" />
    <path fill="#f4bc6e" d="M601 607l17-10-11-27-1 10" />
    <path fill="#759883" d="M971 437l30-2-5-2-22-5" />
    <path fill="#e58f6b" d="M253 469l4-11 4 12-3-1" />
    <path fill="#272c3e" d="M387 467l68-10-42-7 39 19" />
    <path fill="#427b89" d="M934 388l-5 33 9-15-9-17" />
    <path fill="#68a0a7" d="M899 405v3l19-6-7 10" />
    <path fill="#f9d025" d="M969 673l-90-46 19 21 73 11" />
    <path fill="#151d27" d="M327 658l138 35 12-109 5 88" />
    <path fill="#476b6c" d="M663 329l-3-4-8 7 4 7" />
    <path fill="#151414" d="M589 534l8 90-18-108-57 41" />
    <path fill="#17181d" d="M982 544l-37-8 20 33 90-40" />
    <path fill="#bb9630" d="M183 314l-15 1 20-15-3 19" />
    <path fill="#4d3e41" d="M127 298l-64 12 32-22 7 22" />
    <path fill="#b3dfba" d="M588 441l36-13 20 2 4 1" />
    <path fill="#0d3d94" d="M660 498l-17-3 16-10 7 7" />
    <path fill="#080310" d="M484 595l9 3 2 16 9-17" />
    <path fill="#524c74" d="M403 263l-33 13-11-55 34 60" />
    <path fill="#bd5830" d="M316 533l13 5 17 35-18-23" />
    <path fill="#b8d7f8" d="M613 151l-72-39 54 11 74 26" />
    <path fill="#312f44" d="M416 435l19 11-134-20 4 9" />
    <path fill="#171618" d="M373 554l12 34-101-17 98 39" />
    <path fill="#383f71" d="M95 295l-79 13-29-52-18 47" />
    <path fill="#090416" d="M52 445l51-16-117-36-15 49" />
    <path fill="#cda850" d="M578 574l36-17-25 13-54-1" />
    <path fill="#202a37" d="M721 350l-123 4-9-22-12 6" />
    <path fill="#62abee" d="M1024 167l-45-7v84l60 2" />
    <path fill="#d49a65" d="M844 313h-41l14-12 6-13" />
    <path fill="#5e745f" d="M579 470l-34 15 9-16 57-18" />
    <path fill="#ac7660" d="M883 318l39-54v46l-27-52" />
    <path fill="#e46426" d="M778 624l6-5 8 27 51 14" />
    <path fill="#598469" d="M903 604l-36 4 4-13-2-7" />
    <path fill="#526a4a" d="M634 521l4-3-13-46 1 35" />
    <path fill="#54699a" d="M961 266l-36-27-30 18h8" />
    <path fill="#4b4351" d="M459 440l-13 52 4-70 27-5" />
    <path fill="#1b0e1c" d="M1011 488l44 17-25-110-18 8" />
    <path fill="#3a2f5f" d="M11 535l17-12-29 7-24-1" />
    <path fill="#7f7457" d="M550 511l8 25-7-31-5 4" />
    <path fill="#d6b8b7" d="M500 268l-18-20-6 20 8 1" />
    <path fill="#da581c" d="M992 676l-4 37 29-49-36 4" />
    <path fill="#12151b" d="M626 485l-1 44-83-40 23 43" />
    <path fill="#11202b" d="M76 324l-31 79-76-46 111 21" />
    <path fill="#8f9cb5" d="M682 275l28-2 1 6-81-21" />
    <path fill="#2d2e3a" d="M174 320l3 13 86-6-33-39" />
    <path fill="#bcecd4" d="M624 450l3 1-11-6-1 29" />
    <path fill="#454c5b" d="M796 605l6 2 3-1-9-19" />
    <path fill="#8b9767" d="M314 672l13-11-5 25-5-30" />
    <path fill="#5c7460" d="M909 452l22-3-19 15-49 49" />
    <path fill="#2f73c1" d="M804 414l15-4-14-40 2-2" />
    <path fill="#7cb0ed" d="M1025 208l-61-8-46-50-22 93" />
    <path fill="#e37b7b" d="M38 285l9-18-16-11 12-11" />
    <path fill="#2174ca" d="M334 411l-29 2 65-8-42 2" />
    <path fill="#394884" d="M-18 570l48 13 115 31L6 549" />
    <path fill="#85a3c9" d="M797 392l-6 2-44 1 11-5" />
    <path fill="#bdd9bf" d="M684 389l32 19-3-2-20-2" />
    <path fill="#17345d" d="M554 332l-16 2 2 15 33-2" />
    <path fill="#c8d6bf" d="M663 510l-21 22 2-18 19-3" />
    <path fill="#2a3457" d="M447 481l-81 2 18-51-7 40" />
    <path fill="#c8d3e9" d="M258 172l103-7 31 25 62-46" />
    <path fill="#4ca4d6" d="M644 380l23 16 4-36-14 1" />
    <path fill="#123562" d="M649 387l-10 7-10-16 18 12" />
    <path fill="#5d220e" d="M950 673l-18 40-74-41 97 22" />
    <path fill="#92c4f9" d="M685 163L511 85l311 91-98-9" />
    <path fill="#272d55" d="M333 214l5-24 21-12-27 70" />
    <path fill="#17214a" d="M489 413l47 6-56-1-6-23" />
    <path fill="#4475c0" d="M586 373l5-6H490l78 6" />
    <path fill="#7d8154" d="M185 378h-6l4-13v6" />
    <path fill="#224b8a" d="M876 352l30-15-81 36 10 2" />
    <path fill="#2b53a1" d="M971 275l-11-41h19l-25 35" />
    <path fill="#5b2b36" d="M699 640l-25-16 37 10 130 29" />
    <path fill="#6478a4" d="M762 492l-81-1 103 10-7-7" />
    <path fill="#9fa59c" d="M209 260l9-4-15 12 18 12" />
    <path fill="#0e42c0" d="M299 181l-48-3 7-1 13-7" />
    <path fill="#ebfaef" d="M393 341l29 1 20 3 13-3" />
    <path fill="#1f3678" d="M716 678l20-12 31 47H510" />
    <path fill="#494356" d="M239 228l5 127 1-88-6-42" />
  </g>
</svg>