<svg version="1.1" viewBox="0 0 1024 682" width="1024" height="682" xmlns="http://www.w3.org/2000/svg">
  <g fill-opacity=".5">
    <path fill="#14191c" d="M619.5 518L588 475.5l-48.4 102.2L546 532" />
    <path fill="#f57c23" d="M547 615l-4.5-20.5L565 593l3.8 6" />
    <path fill="#274f97" d="M217 631l19-47.4 26.3 3.3-69-14" />
    <path fill="#403937" d="M172.4 300l-17-1.3-29.4 91.5 21.4-69" />
    <path fill="#330d15" d="M553 615l-68.4 31.6 6 8 46.8-40.8" />
    <path fill="#14191f" d="M985 563.7L969 648l11.5-146.6 29 156.2" />
    <path fill="#70bfd1" d="M882 398.2l-35-1.3-17 1 29 3" />
    <path fill="#a4d8bd" d="M563.8 444.7l-7 25-6-38.6 44-13" />
    <path fill="#00000b" d="M648.4 646l7-18.8 8.5-7.5 20 10.8" />
    <path fill="#587f7f" d="M940 464l5.5-52 9 88.4 20.8-26.6" />
    <path fill="#192b73" d="M268.5 165.3l50.6 56.4-12-37.4-56 2" />
    <path fill="#0d181e" d="M259.8 641.5l18-52.4 34 84-35.8-26" />
    <path fill="#2f4673" d="M684.3 390l-17-1.2 42.2-15.4 27-3.7" />
    <path fill="#f67646" d="M762.3 300.3l4.3 11.7-51 .2 3.2 5.3" />
    <path fill="#2f558b" d="M415.8 338.8l-55.8-8 41.7-4.3 68.6 12.2" />
    <path fill="#0c1015" d="M825 520l74.8 46-89.7 23.3 80 2" />
    <path fill="#386736" d="M956.8 514l9.7 13.7 35.4-86-23 26" />
    <path fill="#8aa493" d="M659.2 530l19.4-1.2 18.7-28.4-23.8 18" />
    <path fill="#4a899f" d="M984.6 492l-16 51.8-21.8-24 12.4 18.4" />
    <path fill="#545e25" d="M900.4 634l6.3-26.6 35-44.8-11 32.6" />
    <path fill="#eab291" d="M416 287.3l-7-45.7.2 13.2-10 33.4" />
    <path fill="#3c3242" d="M764.5 460.3l18-4 2.2-56.3-48.6-2.2" />
    <path fill="#8d4f60" d="M840.6 667.8l-7.8-3-57 48.2h68" />
    <path fill="#9ab6e6" d="M154.3 186L-31 205.6 27 246l5.7-88.3" />
    <path fill="#796249" d="M533.3 556l8.5-.7-84.4 64.4 28.5-14" />
    <path fill="#33586f" d="M637 414l48.6 13-28.6-18-21.6 21" />
    <path fill="#141b15" d="M144.7 627.7L125 642.5l-2.3 19.2 45.6-21.5" />
    <path fill="#6e7b5f" d="M217 459l-17-5 30.3 4-1 8.2" />
    <path fill="#1e4184" d="M947.2 345l32.8 5.4 15.3-30 51.4-3.4" />
    <path fill="#2e363f" d="M594 290.4l27.8 41L758 349l-183-44.4" />
    <path fill="#211d32" d="M220.8 405.7L210.6 393l-95.5 6.6L49 456" />
    <path fill="#c4bebd" d="M631.3 270.7l-4.8-18.4L644 264l12 1" />
    <path fill="#514381" d="M387.7 221.5l10.6 15 3.2-34.3-13.6-11.4" />
    <path fill="#a7c3a5" d="M823.2 418.4l10.8 24 8-16.6-26.8 1.7" />
    <path fill="#aec3ea" d="M232.4 182.8l-40.6-38.5L181 233l59 4" />
    <path fill="#eb8917" d="M385.8 556.4l29-20.6-20 23.4L414 585" />
    <path fill="#526a58" d="M564 459.5l-4-9.5-6.3-2 29.6-10.2" />
    <path fill="#141f21" d="M212.6 611l-19.8 24.2L186 582l25.8 31.6" />
    <path fill="#4896c6" d="M907.8 373.6l-23.4 8.5 11.3 4 13.8-10" />
    <path fill="#453542" d="M447 438.5l22.4-19.5.5 84-20-.3" />
    <path fill="#0f449b" d="M425 413l-12.6 17.3-5 .8-87.8-12" />
    <path fill="#1f427b" d="M221.6 632.4L199 662l69.2-29.3-68.7 9" />
    <path fill="#8c2412" d="M953 685.2l102-15.7L899.2 713 869 673.8" />
    <path fill="#e0b047" d="M916.2 622l12.4-26.8 12.6 10.8-13.6 12" />
    <path fill="#43426c" d="M677.6 322.6l58-66.4L737 308l-54.3-20.3" />
    <path fill="#e5e2bf" d="M721.4 225.8l-5-4-3.2 45 6-8.2" />
    <path fill="#353c69" d="M319.6 238l-61.2 85 38-98.7-57-2" />
    <path fill="#101217" d="M652 667.6l56.6-19.4 3.5 6.2-23 24" />
    <path fill="#274a8a" d="M552.6 387.7l-65-15.5 141.8-2.4-71.4-6" />
    <path fill="#cedab4" d="M501.6 270.3l25.3-3.8-4-41 29 14" />
    <path fill="#5a5275" d="M75.7 603.6l86.5-30.6-38.6-17-91.3 5" />
    <path fill="#cff1d9" d="M659 554.7l1.3 6 2.5-23-19.2-1.3" />
    <path fill="#1e1d32" d="M185.3 414l161.3 13.5 21 7-36.8 10" />
    <path fill="#121b2a" d="M217 372l106.5-31.7-1.8-50.7L307 457.8" />
    <path fill="#1d1b30" d="M415.7 507l12-28.2L238 455.2l174.2 8" />
    <path fill="#92c3a3" d="M651.4 464.6l-69 1-7.2 17.2-14.2-5" />
    <path fill="#333565" d="M630.6 275.3v31.2l34.4-32.7-6-2" />
    <path fill="#262236" d="M501.3 509.2l-39-24.2 4.8-55.2 41 8.7" />
    <path fill="#0d172a" d="M921.6 313.8l-34.4 13 12.3 46 53.5-15" />
    <path fill="#3a385d" d="M594.6 280l-108.2 29 29.6-30-39.8-1" />
    <path fill="#1c1a15" d="M615.6 542L599 499.5l-.7 84.4 4.7-25" />
    <path fill="#6f515e" d="M846 254v10l-13.7 40-5.7-40" />
    <path fill="#17191c" d="M396 557.4l43.7-8 2.8 113L456 564" />
    <path fill="#58b3cc" d="M858 380.5l-6 2.6-38.5 34 35-49" />
    <path fill="#87c7ea" d="M514 432.4h-12.5l40-13.5 40.8-8" />
    <path fill="#16314e" d="M857.6 364.5l-7.6 12 78-5-51 7.2" />
    <path fill="#3e3d59" d="M367.3 190.3l-56.3 48 42.5-4.8-24-35.5" />
    <path fill="#9f7883" d="M157 232.7l17.4-50.4-22 28 10 164" />
    <path fill="#35383e" d="M545.7 429.4l3.2 38.2 2 103.7-2-163.6" />
    <path fill="#8193a6" d="M687.5 224.8l11.8 1.2-22.7-12.5 11 62.3" />
    <path fill="#a64c32" d="M603.6 635.5l-2.2-17 41-3.6-25.4-4" />
    <path fill="#ddb7b4" d="M130.6 276l16.6-19.2-1-53.3-4.7-2.6" />
    <path fill="#2345ab" d="M364 165.8l18.4 24.4 1-8.5-48.7 8" />
    <path fill="#466748" d="M734.8 539l-3.5 20.5 1.4 8.4-13-18" />
    <path fill="#715742" d="M665.8 567.4l-1-69.2 11.4 61.7-52.4 37" />
    <path fill="#0e387f" d="M788.6 471.6l-63-5.3-12.3 21.4 92 9" />
    <path fill="#36413d" d="M945.5 465.7L897.8 431l42.4 29.8-43 67.8" />
    <path fill="#1e1b18" d="M230.4 568.2l-19-71.2 107 30.5-86.2-14.2" />
    <path fill="#261717" d="M314 463.5l-50 40-121.7 29.8 163.3-48" />
    <path fill="#32617e" d="M964 567l-20 50.4-3.8-26 36.3 3.4" />
    <path fill="#162020" d="M553.3 507.2l-32-39.2 116.5 70-72.8-57.4" />
    <path fill="#b0d2c1" d="M379.7 357l-3.3 6.2-48.6-3.8 3.5-.6" />
    <path fill="#d77175" d="M76.4 257.7l-4.7-7L74 297l10.6 2.7" />
    <path fill="#21292a" d="M953.5 575.7l15 28.4-47.7-49 110.2-31" />
    <path fill="#a08cb5" d="M484.3 305.7l-7-13.2 18.3-12 4.6 9.4" />
    <path fill="#100e1f" d="M189.3 398L179 430l-85.6 59.8 100 6" />
    <path fill="#131930" d="M540.3 318.3l6.5-13.6-19 2-30.3 16.3" />
    <path fill="#898f9e" d="M615.2 557.3l-1-8.2 7.6 36-20-8" />
    <path fill="#3a97c6" d="M675.6 400.8l-3.4 20-60 3.4 57 5.8" />
    <path fill="#2b565b" d="M374.4 356.8l31.5 19.4-37-36-31 15.7" />
    <path fill="#696962" d="M572.8 476l-58.6-12-6.5 57.5-.7-89.6" />
    <path fill="#524d71" d="M1055 280.8l-52.8 4-40.6 17 62.5 3" />
    <path fill="#090005" d="M623.2 640.7l-10-10 12-16.8 9.6 14" />
    <path fill="#ffe4bc" d="M1019.3 280.8l-27-16.7-2.4 16 20 6" />
    <path fill="#233a4c" d="M649 610l2 11 91.2 1.7-26.7-6.8" />
    <path fill="#8abef1" d="M744.6 178.2l-16.8 25-.6 54.7 26.2 2" />
    <path fill="#161314" d="M599.8 491l1 108.5-1 28.7-2.4 16.2" />
    <path fill="#5b8477" d="M332.4 484.8l16-4-23.7 11 2-10" />
    <path fill="#bee5c1" d="M754.5 549.5l2.4 21 17-24.5-7 25" />
    <path fill="#dcad86" d="M948.3 260.7l8.4 6.7L952 300l-4.3 13.4" />
    <path fill="#2c3a6d" d="M34.3 498l-5 2 35 9.4-9.8-18.8" />
    <path fill="#b7a8c8" d="M74.6 232.6l-9 63-12-76.5-21 26" />
    <path fill="#7b84b7" d="M83.6 267l-7-32.4 19.8-82.8L85.6 198" />
    <path fill="#c4c4e6" d="M436.8 231.5L546.3 184 402 178.5l-.4 48.6" />
    <path fill="#95d5c5" d="M676 399.3l-39.6-1-13.2 17.7 34-11.5" />
    <path fill="#c18c68" d="M768 624.8h44l-87.3-7.7 32.3 7" />
    <path fill="#bc9977" d="M912 279.8l2.2 15 7.8-28.4 15-1.8" />
    <path fill="#272b35" d="M329 492.6l56-33.6-65.5 71.3-2.7-7" />
    <path fill="#37383d" d="M845.4 507.5l-5.6-40.2-46-1.8 61-3" />
    <path fill="#795655" d="M927.5 283.5l-3 34 14.2-47.6-89 6" />
    <path fill="#6c9079" d="M901.5 386.8l-11.2 10.4-17.5-12.4-12.5 4" />
    <path fill="#749094" d="M313.4 247l-2.5 39.4 8-31 1-.4" />
    <path fill="#0d1d3c" d="M746 561.2l-2-87 82.7-4.6-83.4-9" />
    <path fill="#5993a8" d="M560.7 386l29-15-36.4-1.5-4.7-6.5" />
    <path fill="#96a59e" d="M103.4 332l22-5.2-26-2.5-22 6" />
    <path fill="#2a5492" d="M518.5 343.7l4.2-26.4L425 363l5.3-16.6" />
    <path fill="#f3d44f" d="M895.2 625.8l10 36-9.8-76.3 8.4 1.4" />
    <path fill="#dcb5c7" d="M57.5 296l-9.2-8.2-1.3 5.4 2.7-45.3" />
    <path fill="#796e91" d="M705.6 258.4l53 20.6-31.8-21.7-38 23.7" />
    <path fill="#1d130d" d="M10.5 465L-31 491.4l131.2-30.7-131.2 63" />
    <path fill="#c6946d" d="M376.5 196l-17.2.6 7-5.5 35.7 8" />
    <path fill="#141d3a" d="M344.8 413.6l-23.3-.3 93-18.7 7.8-49.4" />
    <path fill="#143176" d="M772 354.6l-43.4-3.3 169.6 2-58.6 4.4" />
    <path fill="#845736" d="M450.3 559l-36.6-25 4.3-2.8 93.5 52" />
    <path fill="#204575" d="M585.8 386.3l-3-15.5 16.5-37-22.6 49.2" />
    <path fill="#6b5f44" d="M532 541.2l30.5-20-2-7.8-18 29.4" />
    <path fill="#b37156" d="M799.7 318.2l20.4-19 14-20-35-17" />
    <path fill="#364c8e" d="M584.6 297.8l21-9.7 98.4 2-55 6" />
    <path fill="#4789b9" d="M716.5 400l-2.4 16.5 45-38.3-36 14.2" />
    <path fill="#aa5e7d" d="M281.4 186.8l.5-.5 2 12-10-7.3" />
    <path fill="#374871" d="M427.4 464.2l23.7 1-75-16.2-26 7.4" />
    <path fill="#131212" d="M661.5 587l2 6.2 13 13.4 148.7 1.4" />
    <path fill="#a98a61" d="M576.2 595.2l-2.6 4.6.3-63.7 2 9" />
    <path fill="#7fba8a" d="M827.6 519.3L813 501.8l9.2-6.4 9 6" />
    <path fill="#da5c1c" d="M135 505.3l11.4 23 24.4-8-20-15.4" />
    <path fill="#5c988e" d="M914.8 478l22 21 32.7-9.8-52.4.6" />
    <path fill="#d1905f" d="M951 302l-100.5 14 40-16.7v24.5" />
    <path fill="#daf3e6" d="M863.6 432.4l-11.6 6-3.4-2.4-2-6" />
    <path fill="#7e4d38" d="M693 446.7l-32.6 7 16.8 7-40.4-2.2" />
    <path fill="#6384c1" d="M446.3 455h-17l-9.6-7.7 31 .4" />
    <path fill="#1c1726" d="M199.8 467.7l-14.3-60 63 70L206 398" />
    <path fill="#c69c4f" d="M506.3 529l3.3 35.2 18-24.7L493 556" />
    <path fill="#6592c4" d="M439.2 428.4l-3.5-4.5-11-6 40.6-5" />
    <path fill="#c7e9ce" d="M771.7 529.5l-15.3-22.3.5-7-7 32.8" />
    <path fill="#1a3052" d="M754.7 395.3l-11 4.5 4 10.8-29-2" />
    <path fill="#182149" d="M711 286.4L683 316l28.7-3.5-13.3-33" />
    <path fill="#1b407a" d="M164 656l32-13.2-8.7-2.8-21.4 35.6" />
    <path fill="#613234" d="M733.4 305.3l25-6.2-38 5 15.6 24" />
    <path fill="#15161c" d="M853.3 541.7l51.4 41.5-9-20.7-196 50.5" />
    <path fill="#212e4f" d="M736.7 324.8l11.8 56.4 21.8-8.2-60.5-35.7" />
    <path fill="#6a5b89" d="M481.5 273.7l-14 11.7 48 2 10.3-10.4" />
    <path fill="#44241d" d="M124.6 508.4l54-10.5 33.6 26-117.5-42" />
    <path fill="#3c76c6" d="M804.5 343.7l-57.3 2.8 129.6 3.5-94.6-6" />
    <path fill="#4e4863" d="M578 593l-63-2 35-7 8.4 1.6" />
    <path fill="#78aecd" d="M794.8 498.6l11.6-.4 4.7-3 27-25" />
    <path fill="#8baabb" d="M518.2 390.6l-22.5-12.4-15.2 12.4h18" />
    <path fill="#dec586" d="M490.2 565.4l38.6-20.5-15-18 1.5 59" />
    <path fill="#2c4573" d="M324 619l-11-23.6 1.2 30L331 623" />
    <path fill="#d8a770" d="M790.4 622l31.8-6.5v-16.8l-13 31.6" />
    <path fill="#732e17" d="M405.8 517.5l16.4 16.4-36.5 3-13.8 54" />
    <path fill="#3e4544" d="M810.3 457l-8.8-31.6 76-.4-39.7-8.5" />
    <path fill="#4e5a58" d="M341 653.3l-22.8 4.3 10.5-13.4 14.2-3" />
    <path fill="#327ad5" d="M613 395.2l-32.3-11.8-64.5 10.6 75.3 3.6" />
    <path fill="#0a2d75" d="M850.5 347.2l30-5.2-3.6-14.4-80 16.4" />
    <path fill="#a19fa0" d="M388.8 259.4l56 44.6-22-28.6L377 262" />
    <path fill="#5a96ca" d="M690.7 478.4l5.5 1.4 23.7-16.6-54 11" />
    <path fill="#14212f" d="M200.5 687.6l-3.5-48.8L326.2 624l-118.6 6.4" />
    <path fill="#242634" d="M487.4 392.8l-97.2-28 81-8 20.8 16" />
    <path fill="#404980" d="M-10.5 233.8l27.8 2-11 22.5L16 260" />
    <path fill="#403c3e" d="M281.4 300.5l-128 17 28.6 16 15.8-31" />
    <path fill="#274289" d="M897.8 237l-12.8-.6-18 30 23.4 1" />
    <path fill="#6ba09a" d="M330.7 332.3l.8 19 11-6.2-7.3 19" />
    <path fill="#3a6282" d="M944.5 591l5.2.7 17.7 27.8.7-13" />
    <path fill="#292e34" d="M764.8 500.8l-3.7 69.4-39 11.8 42 22.2" />
    <path fill="#121316" d="M353 668.7L338.7 713l20.8-90-27.5 42.2" />
    <path fill="#11050b" d="M970.3 631.3l5 61.5-1.4-92.3 4-12" />
    <path fill="#757aab" d="M453 495l-14.7 8.4-11.5-2.4-7.4-6.8" />
    <path fill="#333637" d="M806.8 498.4l-22.6 63-10.4-37.4 46-7.5" />
    <path fill="#5daeea" d="M902 220l30 26 123-33-191.5 25" />
    <path fill="#a1b692" d="M648.6 542.6l-9 9.6-21-23.2 51 35" />
    <path fill="#152b52" d="M336 246l17.4-10.5-38.5 10.7 20 18" />
    <path fill="#e86e01" d="M636.8 592.8l15.5-1.6 5.6 5.2-21 1.6" />
    <path fill="#7496a0" d="M291 271.5l.6 4 8.2-.8-5-10.3" />
    <path fill="#2b5dab" d="M503.5 325l114-4v19.5l-19.8-6.4" />
    <path fill="#3b2b44" d="M241.3 181.6l.5 9.8L274 187l23-3.5" />
    <path fill="#214032" d="M1000.5 474.4l2 19.8-10.7-4.6 10.4-40" />
    <path fill="#2f3866" d="M487 636.8l28-15.5-14 38 100.7 1.4" />
    <path fill="#4c2d21" d="M438.3 586.8l-33.7-26.2-19-64.2 6 39.3" />
    <path fill="#cba728" d="M630.8 557.5l7.7-16.5-5.8 46.6-.2 16.2" />
    <path fill="#c2b2a8" d="M759.4 244.5l9.3-3.8 13.4 37.7 6-5" />
    <path fill="#85a59e" d="M839 464.6l-8.2 9.6 9 15-3.8-79.5" />
    <path fill="#3c466c" d="M236.6 272.7L184 278l60.2 1.2 90.2 14.5" />
    <path fill="#d4f1d7" d="M882 431.8l9.8 4.6-4.3-13 1.2-2.2" />
    <path fill="#3f4e44" d="M634.6 401.7l-1.2 52.6 14-16.7-11.8-1.6" />
    <path fill="#274962" d="M929.3 491l-.4 20.2 56-16.3-25 14" />
    <path fill="#936856" d="M602 288.8l19.8-1 4.8-4.7-25.6-5" />
    <path fill="#f5bfc1" d="M110.3 299.8l-2.4-8v-80.2l8 80.6" />
    <path fill="#a5b7a9" d="M216.8 290.4l29.2-13 1.7-12.4-10.8 25" />
    <path fill="#cb8432" d="M391.8 553.6l-6-53.6 2.6 72.4 21.4-35.8" />
    <path fill="#e49e6e" d="M933 308.2l1.7-11 17 3 7.2 14.4" />
    <path fill="#d07e25" d="M662.5 574l-1 3.8 37 13.5-23.3-16" />
    <path fill="#a8b77d" d="M347.7 677.4l-18 35.6-5-23.6 18.4-15" />
    <path fill="#eeb053" d="M977.4 324l18.6-2.6-22 9.4 7.7-4.5" />
    <path fill="#463e55" d="M624.4 666l-22-36.6 17 83.6 30.5-70.4" />
    <path fill="#141931" d="M369.2 389.4L476 374l-93.5-8.3-7.8-9.5" />
    <path fill="#846e8a" d="M1003.7 392.3l19.5 7.4L1055 370v6.7" />
    <path fill="#deb7b8" d="M162.4 184.2L185 285l-15 30.6-4.8-48.4" />
    <path fill="#151716" d="M438 548.5l45-4.2-30.7-35.8-22-8.8" />
    <path fill="#2d3d40" d="M948 543.5l15.7 44-12.4 22.7-7.2-54" />
    <path fill="#83c0ef" d="M795.6 214l29 47.7-40-11.4-33.6-115" />
    <path fill="#48686b" d="M648 390.4l-1.2-6.2 2.4 33.4-15.6 8" />
    <path fill="#46548a" d="M183.5 264l2.8 23.7 33.4 7-26-34.5" />
    <path fill="#824e21" d="M598 603.2l-7.6 33.7-1.7-22 6.5-37" />
    <path fill="#2f315e" d="M385.8 227.2L248 228l20-22-19.2 15.8" />
    <path fill="#917660" d="M813.2 631.7l-91.4-14-82.5-13.7h23.4" />
    <path fill="#e27f49" d="M280 512l-37.6 6.7 3.8 9.7-16.7-7.3" />
    <path fill="#3063ad" d="M947 245l.8 14.4 21 11.8-.5 29.3" />
    <path fill="#afc3ec" d="M889.3 161l20.5 29.8L862 187l30.4-19.7" />
    <path fill="#6d9b80" d="M892 419l-19.5-11-1 6 27.4-5.7" />
    <path fill="#777780" d="M490.5 377.4L473.2 419l24.8-43.5-2.4-12.2" />
    <path fill="#a44a19" d="M935.7 626.8l17 60.5-7-56.5 34.6-1" />
    <path fill="#212841" d="M62 318l-4.5-80 3.3 123.8-59.5 1.4" />
    <path fill="#403149" d="M206.2 484.2l83.2-20.4L320 461l-27 9.6" />
    <path fill="#8e4741" d="M790.8 654l-65-23.5 19.8-9 23.4 7" />
    <path fill="#112654" d="M505.5 394l-12.4-.6 85 5.6-43 7.4" />
    <path fill="#a6869d" d="M177.8 254.6l10.6 6.7-19.3-92.8 5 92.2" />
    <path fill="#a6c6ed" d="M586 229l-23.5 15 62.3 6.2 24.3-14.5" />
    <path fill="#373b43" d="M947.4 387.3l-50.2 36.2-2.3-36 19 39" />
    <path fill="#437079" d="M973.8 423.3l12 21-92.2 115.3 8.2-19" />
    <path fill="#040308" d="M977.4 574.5L1055 589l-51 69.2 33.4 2" />
    <path fill="#adeeff" d="M682.2-2.2l-61.8 44.4-211.6-10.8-147.3-36" />
    <path fill="#659d69" d="M887.5 537l35.3 13.8 20-13.7 13-1" />
    <path fill="#7f9152" d="M789.4 449.3l5-2.7 4.3-1 1 24.2" />
    <path fill="#f2da3e" d="M622 556l12 9.3 5.6-10.7-13.4-5.8" />
    <path fill="#142138" d="M171.8 539.4l-26.4-6.7 22.2 14.6 2.7 18.4" />
    <path fill="#85baa6" d="M581.4 403.6l9 38L584 477l-3 15.2" />
    <path fill="#3f5c72" d="M792 261.2l-17.8 32.5-32 8.5 54.3-23.7" />
    <path fill="#78a77a" d="M604 455l-4.8 38.7 12.7-35.5-4-56.7" />
    <path fill="#8eae7d" d="M751.6 427.2l-7.3-4.4.4 22.4 2.7-10.3" />
    <path fill="#de8766" d="M108.5 553.2l-118.7-19.7 123.6 6.5-59 24" />
    <path fill="#a6bce6" d="M177 190.4l-3.3 9.7 44.3-9-1.7 74" />
    <path fill="#08215e" d="M760.5 386l32 2.6 1.3-2.8-42-3.4" />
    <path fill="#1f2c47" d="M796.6 291l-1.8 22 35 11-113 28.7" />
    <path fill="#192950" d="M730.5 337l-30 36.5-25-3.7 95.2-41" />
    <path fill="#1c121b" d="M313.4 443.2l-56 47 31.7 5-25-87.8" />
    <path fill="#6389b1" d="M221.7 275l-38-19.4 3.4-20 10-2" />
    <path fill="#f0b540" d="M594.7 617.7l-8.4-31-38.8 12.2 38.5 4" />
    <path fill="#b3201c" d="M349.7 572l-54-7 42.6-1.7 49.3 19" />
    <path fill="#211b1f" d="M701.4 574l-5.8-78.7 16.2.8-12.6 172" />
    <path fill="#76aed6" d="M704.8 373.8l-24.2 6 37.7-15 1.4 9.6" />
    <path fill="#feffcd" d="M424 312.2l19.6-7-23.2-13.6-2 8.8" />
    <path fill="#c67088" d="M113.7 264.3L120 190l-7.8 3 6 106" />
    <path fill="#162a3a" d="M115.8 426l19.8-83.7 102.2 13.5-107.3 8.8" />
    <path fill="#4c5f58" d="M898.8 465.3l-49.2.4 70.7-17.6-48.8 79" />
    <path fill="#1a293a" d="M525.2 352.6l39 12.5-72-4-34.4 6" />
    <path fill="#0e0a13" d="M842 489l21 129.2-15.3 11.8-4 58.6" />
    <path fill="#2b3d81" d="M319 197l-46 19 15.6-41.4 24.6 53" />
    <path fill="#487e69" d="M252.3 351l10.4 7.8 8.6-5.4-24.2-.8" />
    <path fill="#c3f3ff" d="M776.4 53.2l157 34.5 84.6-9.3 20.6-47" />
    <path fill="#96b3b0" d="M854 240.6l-5 10.3-20.4 5-17-13" />
    <path fill="#c47a52" d="M35.2 500l2 13.8-68.2 19.8L54.3 518" />
    <path fill="#4d6884" d="M361.2 323l8-3.7L368 268l-33.5 52" />
    <path fill="#42685a" d="M892 518.7l80 6.3-103.4 20.8 67 21.6" />
    <path fill="#52679c" d="M957.5 240l31 18.2-2.7 50.3-10-59.8" />
    <path fill="#405f6c" d="M848.2 436l-1-38.6L929 361l-88.5 40" />
    <path fill="#3ca4de" d="M865.2 382.8l1 4.7 15-31-7.2-1" />
    <path fill="#0c101b" d="M519 639.2l-49 19 5-33.2-140 73.8" />
    <path fill="#b8d8f0" d="M283 149.2l-22.6-24.8-75.4 2 69.3 52.4" />
    <path fill="#3e4c8a" d="M574.2 299l9-19-32.5 16.5-40.6 1.7" />
    <path fill="#3488d0" d="M657 362l-84.5-8 102.6 3.3-6 5.5" />
    <path fill="#deddd2" d="M553.2 227l37.8 6-9.4-2.2L429 244" />
    <path fill="#cccdb8" d="M679.6 265.6l2.6-26.3-1.8-15-6 25" />
    <path fill="#fbe959" d="M87.4 548.3l11.8-9 15-19.4H56.5" />
    <path fill="#f1d41b" d="M361 556l-11.2 3.6 63 8.8-25.4-4.8" />
    <path fill="#996e6e" d="M190 533l5.8 6-11.2-23 10 5.7" />
    <path fill="#fffd07" d="M256 485.4l3.2.5 5.3-8-23.7 7" />
    <path fill="#f3c924" d="M353 556.5l58.2 19-2.6-9.8-65 1.2" />
    <path fill="#f7dae6" d="M439.3 310l50.5.3-42.2-18.7 33.7 5.2" />
    <path fill="#3c3147" d="M171.7 551.5l97.8 14.5-76-28.8-29 12.3" />
    <path fill="#515d9b" d="M393.5 221.2l17.2-29-22.5 33.6-114.7-4.3" />
    <path fill="#3f6c6c" d="M626.8 407.3l8.7-21.7-19 17 9.6 5" />
    <path fill="#15181a" d="M544 470.5l.8 94.2L569 535l-42-19" />
    <path fill="#99e2fe" d="M374.8-31H.5l212 68.2L353 35" />
    <path fill="#d3ecd6" d="M638.6 508.6l23.6 6-.2 16.5-4-10" />
    <path fill="#a77b64" d="M87.3 452.5L72 576l75.6-23.3-76.3 27.6" />
    <path fill="#515f6c" d="M269 303.6l-17-6.7 81.8-5-93.2 22" />
    <path fill="#4f4e47" d="M883.6 419.5l-19 35.4.5-50 12 43" />
    <path fill="#b9d3cb" d="M331.6 273l3.6-1.2-24.7-6 .4 6.7" />
    <path fill="#d0ecca" d="M622 475l36.8 1-12.7-37.4 4 49" />
    <path fill="#ab463c" d="M400.5 588.8l6-14.4 4 13 7 2" />
    <path fill="#8ececb" d="M916.3 486.8V497l2.8-7 2-14.2" />
    <path fill="#573335" d="M637.8 590.2l3.5 77.8-19.8-101 1.3 41.4" />
    <path fill="#373274" d="M475 309l-51.8 22.4L404 327l44-15.7" />
    <path fill="#12161b" d="M882.2 522.6l-13-47.3 6.4 92-93.3-26.6" />
    <path fill="#6a7cb2" d="M447.2 470l-6 12.4-3.8-6.7-23-5.6" />
    <path fill="#2d2227" d="M748 503.3l60 1.8-65-3 2 95" />
    <path fill="#99978e" d="M568.7 557.3l-15.7-2-6.7 35.6 1-11" />
    <path fill="#ffdc84" d="M1000 306.6l48-4.3 7 24.7-54.6-12.3" />
    <path fill="#83beb6" d="M508.6 339.3v7l35.3-3-34 11" />
    <path fill="#9bc1ae" d="M797.6 278l-3 18-17-29 10 21.2" />
    <path fill="#1e303f" d="M373.6 332.4l-4.4 12.5-77.2-37-6.7-12" />
    <path fill="#4f5f4e" d="M653 433.2l-21 12-1.3 15.3 20.2-21.2" />
    <path fill="#9ab6e3" d="M41.7 230.2l-72.7 2.5 74.5-98 40.5 116" />
    <path fill="#61926a" d="M986.4 443.5l-13-16.7 17.7 32.7-60 79" />
    <path fill="#82584a" d="M108 307.2l-5.7-7.6 2-40.5 4.2 10" />
    <path fill="#0c1015" d="M359 634.4l-54.3-2.5 4.4 48-16-26" />
    <path fill="#2e343c" d="M924.5 410.5l13.5 74-7.4-51.2-6.4 75" />
    <path fill="#0d080e" d="M590.6 617l-10.2 13-14 .6 19.7-25.4" />
    <path fill="#687fb7" d="M408.2 433.8l-48-1.4-.4-3.7 27-1" />
    <path fill="#515d46" d="M364.7 653.5l22 6.2-1.6-7.8h-5" />
    <path fill="#213249" d="M1012.4 349.6l-16.3 3 3-59.5-13 9" />
    <path fill="#2d2a3b" d="M738 457l-12-23.5 58.4 10.8 6.2 19.7" />
    <path fill="#452649" d="M16.4 521.5l-5.6-5L-22 534l60.5-41" />
    <path fill="#0b337f" d="M927 379.7l-28.2 19 52.2-10-16.8 5" />
    <path fill="#132963" d="M457.4 354.8l41-8.3L461 342l-8.3-2.2" />
    <path fill="#cee8dc" d="M854.5 419l-29.7-12.8-3.7.6 40 1" />
    <path fill="#205196" d="M256.2 645.4l9.4-32-6-6.5-7.6 5" />
    <path fill="#639087" d="M259 343l3.5 3.6 37.4-9h12" />
    <path fill="#735770" d="M63 568l114-19-63.2-2.5-40 15" />
    <path fill="#0c1f53" d="M66.2 687.3l8.7-26.5L23 713l-48-43.7" />
    <path fill="#f0b055" d="M751 318.5l1.5-11L722 316l-1.8.6" />
    <path fill="#9a7864" d="M473 562.4l23 21.8 7-1.7 10.6-5" />
    <path fill="#e7b150" d="M146.2 532.8l16-5.2-67-5.7 12.5 5" />
    <path fill="#f4bc6e" d="M601.2 606.5l16.8-9.3-10.8-27.5-1.4 9.8" />
    <path fill="#759883" d="M971.2 437l30.2-2-5.6-1.8-21.5-5.3" />
    <path fill="#e58f6b" d="M253 468.7l3.5-10.7 4.4 11.5-3-1" />
    <path fill="#272c3e" d="M387.3 467.3l68-10-42-7.3 38.5 19.2" />
    <path fill="#427b89" d="M934 387.8l-5.4 33L938 406l-8.7-17" />
    <path fill="#68a0a7" d="M899.2 405.3v3l19.2-6.7-7.7 10" />
    <path fill="#f9d025" d="M969 673.3L878.5 627l19.2 21 73.3 10.6" />
    <path fill="#151d27" d="M327.3 657.7l137.5 35 12.3-109 5 88.3" />
    <path fill="#476b6c" d="M663.3 329.3l-3-4.7-8.2 7.6 4 6.7" />
    <path fill="#151414" d="M588.5 533.7l8 90.5-17.2-108.6-57.6 41.2" />
    <path fill="#17181d" d="M981.8 544.3l-36.5-8 19.5 33 90.2-40" />
    <path fill="#bb9630" d="M182.7 314l-14.7 1.2 19.6-15.5-2.6 19" />
    <path fill="#4d3e41" d="M127 298l-64 12 31.5-22 7.8 21.7" />
    <path fill="#b3dfba" d="M588.3 440.7l35.5-12.7 20 1.7 4.7 1.6" />
    <path fill="#0d3d94" d="M660 498l-17.4-3.3 16.3-9.3 7 7" />
    <path fill="#080310" d="M484 594.6l9.2 3 1.5 16.5 9.5-17" />
    <path fill="#524c74" d="M403.2 262.8l-32.8 12.8-11-55 33.8 60.4" />
    <path fill="#bd5830" d="M315.6 533l13.6 5 17 34.6-18.7-23" />
    <path fill="#b8d7f8" d="M612.5 150.7l-71.7-38.4 54.5 11.2 73.6 25.7" />
    <path fill="#312f44" d="M416.2 434.8l19 11.5-134-20.3 3.6 9.2" />
    <path fill="#171618" d="M373 554.2l11.5 33.5L284.3 571l98 39.2" />
    <path fill="#383f71" d="M94.8 295l-79.2 13.4-29-52.8-17.6 47" />
    <path fill="#090416" d="M52.4 445.4l51-16.3-117-36-15.4 49" />
    <path fill="#cda850" d="M578 573.6l36-17-24.8 13-54-1" />
    <path fill="#202a37" d="M720.7 349.6l-122.8 4-9-21.6-12 6" />
    <path fill="#62abee" d="M1023.7 167.2l-45-7 .2 83.6 60 1.8" />
    <path fill="#d49a65" d="M844.3 313.3L803 313l14.3-12 5.5-13.2" />
    <path fill="#5e745f" d="M578.8 469.6L544.5 485l9.6-16.3 57-17.7" />
    <path fill="#ac7660" d="M883.2 317.5l39-54-.6 46.2-26.7-51.5" />
    <path fill="#e46426" d="M778.2 624.4l5.8-5.2 8.3 27 51 13.8" />
    <path fill="#598469" d="M902.5 604l-35.4 4 4-13.4-2-7" />
    <path fill="#526a4a" d="M633.8 520.6l4-2.3-13.2-46 1 34.2" />
    <path fill="#54699a" d="M961 265.7l-36-26.5-30 17.8 8.4.3" />
    <path fill="#4b4351" d="M459 439.7l-12.7 52 4-69.5 27-5.2" />
    <path fill="#1b0e1c" d="M1011.4 487.6l43.6 17.8-25.4-110-17.8 7.3" />
    <path fill="#3a2f5f" d="M10.5 535L28 523.3l-29 6.4-24-.2" />
    <path fill="#7f7457" d="M550.4 511.3l8 24.6-7-31-5.5 4" />
    <path fill="#d6b8b7" d="M500.3 268L482 248.4l-6.2 19.4 7.8 1.6" />
    <path fill="#da581c" d="M991.5 676l-3.7 37 29.7-48.7-36.7 3.5" />
    <path fill="#12151b" d="M626.4 485.3l-1.7 43.2-82.8-39.2 23 43" />
    <path fill="#11202b" d="M76.3 323.8l-31 79-76.3-46 110.8 21.6" />
    <path fill="#8f9cb5" d="M681.6 274.8l28.5-1.6 1 6-81-21.4" />
    <path fill="#2d2e3a" d="M174 320.3l3 12.8 86-6-32.7-39" />
    <path fill="#bcecd4" d="M623.6 450l3.8.7-11.6-5.6-.6 29" />
    <path fill="#454c5b" d="M796 604.8l5.7 2 3.5-.5-9.5-19" />
    <path fill="#8b9767" d="M313.8 671.8l13.6-11-5.6 25-4.5-29.8" />
    <path fill="#5c7460" d="M908.6 452.2L931 449l-19.3 15-49 49.3" />
    <path fill="#2f73c1" d="M804 413.6l15.4-4-14.6-40 2-1.2" />
    <path fill="#7cb0ed" d="M1024.8 208.4l-61-8.7-45.6-49.3L896 243" />
    <path fill="#e37b7b" d="M38.2 284.6l8.7-17.8-16-11 12-10.4" />
    <path fill="#2174ca" d="M334 410.8l-28.7 1.7 64.7-7.2-41.8 1.8" />
    <path fill="#394884" d="M-18 570l48.2 13.4 114.8 31L5.7 549" />
    <path fill="#85a3c9" d="M797 391.8l-6 2.3-43.6 1 10.3-5" />
    <path fill="#bdd9bf" d="M684.2 389.4l32 18.8-3.7-2.2-19.5-2" />
    <path fill="#17345d" d="M553.6 332.2l-15.3 2 1.5 14.8 33-1.6" />
    <path fill="#c8d6bf" d="M663 509.5l-21.3 22 2-17.3 19.4-3" />
    <path fill="#2a3457" d="M446.8 480.7L366 483l17.8-51-6.6 40.3" />
    <path fill="#c8d3e9" d="M258 171.6l102.8-6.6 31 25 61.7-46.4" />
    <path fill="#4ca4d6" d="M644.4 379.6l22.8 16.4 3.4-36-13.6 1.2" />
    <path fill="#123562" d="M648.8 386.5l-9.4 7.2-10.7-16 18.8 12.7" />
    <path fill="#5d220e" d="M950 673l-18.2 40-74-41 97.3 22" />
    <path fill="#92c4f9" d="M684.8 162.5l-174-77.3L822 176l-98.2-9.4" />
    <path fill="#272d55" d="M333.3 214.2l4.6-24.5 21-11.7-27 70" />
    <path fill="#17214a" d="M488.6 413.2l47 6.2-55.5-1-6-23" />
    <path fill="#4475c0" d="M585.5 373l5.2-5.8H490.4l78 6" />
    <path fill="#7d8154" d="M185.3 378H179l4.2-13v5.6" />
    <path fill="#224b8a" d="M876 352.4l29.6-15-80.7 36 10 1.6" />
    <path fill="#2b53a1" d="M970.7 275.2l-11-40.7 19-.2-24.5 34.4" />
    <path fill="#5b2b36" d="M699.4 640l-25.8-15.8 37 9.5L841.4 663" />
    <path fill="#6478a4" d="M761.7 491.8l-80.4-.6 103 9.7-7.5-7" />
    <path fill="#9fa59c" d="M209.2 260.3l9.3-4-15.7 12 18 12" />
    <path fill="#0e42c0" d="M299 181l-48.4-3 7-1.5L271 170" />
    <path fill="#ebfaef" d="M393 341l29 1.2 19.7 3.3 13-4" />
    <path fill="#1f3678" d="M715.5 677.6l20.8-12 30.4 47.4H510.2" />
    <path fill="#494356" d="M238.5 228.2l5 126.5 1.7-87.3-6.6-42.5" />
  </g>
</svg>