<svg version="1.1" viewBox="0 0 1024 682" width="1024" height="682" xmlns="http://www.w3.org/2000/svg">
  <g fill-opacity=".5">
    <path fill="#bdcfcd" d="M627 487.6l9.7-7.8-.7 27.5-10.6-29.3" />
    <path fill="#809780" d="M812 461l46.6 7.7 76.8-14.3-73.8 1.6" />
    <path fill="#b59d8e" d="M129.7 663.5l-53-29.4 79.5 25 164 24" />
    <path fill="#a9c7c0" d="M408 409.3l-5.2 24.5-12.5 20.5 4-44" />
    <path fill="#593924" d="M630 511.6l-6-22.6-9.6-14-23.2 3.8" />
    <path d="M972.2 119.5l10-34.3-112 49.2-119 63.2" />
    <path fill="#c7b1a3" d="M295.2 677.5l19 35.5 16-2 57.5-28" />
    <path fill="#394331" d="M-31 358l64.4-56-3.2 87-5-57" />
    <path fill="#97370c" d="M458 361.7l31 8.3-29-88.6 23.2 41.8" />
    <path fill="#614a3d" d="M967.6 549.8l22.2 5.5-79.6 1.8-2-22" />
    <path fill="#c7ac97" d="M441.5 422.3l-11.8 35.3h.3l30.8-14" />
    <path fill="#e2a97a" d="M893.2 516.6l2.6 57.5 13.8-27-2.7-34" />
    <path fill="#b26548" d="M357.4 182.6l-118-90.8 80.4 71.5 74.8 61" />
    <path fill="#b05e42" d="M438.5 291l10 32.7-48-46.7-22.8-78" />
    <path fill="#3a4d3d" d="M856 349.8L790.5 333l59.5 14 3 25.6" />
    <path fill="#0f3a4b" d="M532.6 363.5l9.8 16.4H484l3-21" />
    <path fill="#4d4039" d="M813.6 173.2L801 223.6l29-60.7 47.3 8" />
    <path fill="#ac9384" d="M18.7 645L84 696.8l54.4.4-66.6-24" />
    <path fill="#bc8e73" d="M897.4 428.4l78.3-1.7 24-10.7-27 1" />
    <path fill="#49665e" d="M276.3 486l36.8-.4-17-28.3-25-3" />
    <path fill="#83645a" d="M1029 613.5l-155.4-31.8 87.8 73L957 611" />
    <path fill="#002d79" d="M306.6 122l101.8 96 132.3 151-30-128" />
    <path fill="#52433c" d="M429.6 666.7L435 713l-50.8-31.5-106.3-7" />
    <path fill="#4f2312" d="M445.5 395.4l-131-66-33 3.8 210.2 79.2" />
    <path fill="#312a1c" d="M169.2 509.3l-1.3-69.5-113-6L158 450" />
    <path fill="#23494d" d="M398.5 334.7l27.7 23.6-15.2 17-4-41.5" />
    <path fill="#470000" d="M927 53.7L653 264l166.7-106.7L968 81.8" />
    <path fill="#796b5f" d="M330 661.4l-102.7-7-143-17.2L184 665" />
    <path fill="#8b9077" d="M832.2 396.8l148.4-4.4-189.8-9.7 30.5 25" />
    <path fill="#2b3930" d="M1019.5 442.5l5.8 54.6-57.3-7 43.8-3" />
    <path fill="#b5998a" d="M328.7 646.4L287 654l-27.6 2.3L156.8 639" />
    <path fill="#905d59" d="M791 139l14.7-6-9.3 24 4.3-1.4" />
    <path fill="#420400" d="M1055 426v-61.7l-100 54.5 25.2-30.4" />
    <path fill="#b4cbc8" d="M896 498.3l-8.8 12L873 467l-15.7 8" />
    <path fill="#29241a" d="M994 189.6l54.2-135L993 159l59.7 34.7" />
    <path fill="#728a6f" d="M120 442.5l58.2 11L180 465l25-12" />
    <path fill="#d9e1c8" d="M171 252.7l-6.3 8.2 7.7 8 7 2" />
    <path fill="#383e41" d="M973 533.6l-9-30.4 8.2-3.2 26.5 51.7" />
    <path fill="#803417" d="M351.4 187.8L333 177.3 177 54.8 408 287" />
    <path fill="#60594e" d="M644.2 296l-28 23.6 46.6-21 61.3-59.4" />
    <path fill="#857163" d="M433 381.5l-17.8-20.2 52.6 1.7-6.3 17" />
    <path fill="#6c5540" d="M392 304l-53.4-41.5-113-70L471 386" />
    <path fill="#afa58e" d="M783.3 447.8l64-9-77.2 3.6 42 40.5" />
    <path fill="#d6a674" d="M817 514l-1.8 34.2-10.8 40.4-4.6-71" />
    <path fill="#999a90" d="M106.6 572.2l214 59.5 59.7-.3-149.6-12.2" />
    <path fill="#00497b" d="M468.6 395.5l100.7 4.7-53.5 17.2-49-8" />
    <path fill="#a67a73" d="M168.4 106.4l-6 2.7 1.8-12 8.2 6" />
    <path fill="#5f4126" d="M189 569l-62.2 12 4.6-9.2 22.6-4.6" />
    <path fill="#300" d="M359.5 181.3l-79.5-80-102.2-76 112.7 97.2" />
    <path fill="#464442" d="M61.2 510.4l1.5 32.7-35.2 6L17 522" />
    <path fill="#1c1b13" d="M359.8 383.4L196 333l-101.4-9.4 99.5 16.7" />
    <path fill="#476461" d="M188 217.7L351.4 296l-16.7 16-141-88.8" />
    <path fill="#222725" d="M22 201.4l16.2 32.3 1.3-49.3L-31 190" />
    <path fill="#1e0f15" d="M998.8 438.5l-55-3 74.8-8.3L1055 439" />
    <path fill="#a4543e" d="M82.5-31h4L310 149.4 100.5-10.8" />
    <path fill="#a56c53" d="M474.2 461l6.7-65.4 7 63.7-32-70.8" />
    <path fill="#8aa38d" d="M866.7 491.8l31 8.7L830 498l-8.7 16.5" />
    <path fill="#bbba9f" d="M101 442l-10 17.7 16.5 8 5.8-23.5" />
    <path fill="#846d5f" d="M741.3 283L948 192.3 733.7 296.7l35.6-26" />
    <path fill="#938e8d" d="M562.4 455.4L579 451l-8.4-7-167 5" />
    <path fill="#8c6c60" d="M767 571.6l56 24.4-45.2 4.8-143-47.2" />
    <path fill="#988370" d="M586.4 354.6l-1.3 28.7 92-44-63 39.3" />
    <path fill="#96472b" d="M406.3 453.5l122.5 33 62.6-15L470 484.3" />
    <path fill="#3a6d00" d="M465.7 540.4l73-3.7 4.5 6.5-13.7 4.2" />
    <path fill="#33655a" d="M685.3 510.8l1.8-15.6-27 11.6-3 5.4" />
    <path fill="#545345" d="M74 398.2l58 3.5-8.7-30.5 111 23.5" />
    <path fill="#002064" d="M737.2 105.5L850 1.5 525.7 202.8l38.8 66.2" />
    <path fill="#4b0f00" d="M943.8 230.5L674.8 357l218.6-81 96.6-40" />
    <path fill="#f2faf4" d="M783.3 482.7l-22.3-5 46.6-5 .6 9" />
    <path fill="#c2dfdf" d="M395.6 477.7l-5.3 31 8 6.4 6.8-1" />
    <path fill="#353127" d="M821.7 520.7L821 410l21.6-7.2-33.7 55.8" />
    <path fill="#af948f" d="M26.5 582.3l-57.5-2L38.8 598l146.4-21.6" />
    <path fill="#446258" d="M178 520l92-78-84.3 59.4-.2-29.5" />
    <path fill="#926430" d="M538 517.5l24-3.6 218 2-237.7 36" />
    <path fill="#715638" d="M128.6 529.6l33 15.4-18-1.7-12.2 14" />
    <path fill="#282b22" d="M129.4 514.4l-41-63-6.7 62.8 57.7-61.8" />
    <path fill="#bcd2dc" d="M993.6 514.2l-18 5.2L979 491l-20 6.7" />
    <path fill="#9a432a" d="M748.4 165.6l1 95-2.3 51.8-1-102.2" />
    <path fill="#504938" d="M389 522.7L311.5 457l81.4 65.4V390" />
    <path fill="#6c5028" d="M216 502l3 67.7 97-14.7-99.6-29.7" />
    <path fill="#5e431f" d="M750 561.6l-31.7-3-91.2-5 34-26" />
    <path fill="#080000" d="M904-31L868.5-9 776 70l-93.5 89.8" />
    <path fill="#9fb0a9" d="M666 346.2l-40 24.5 84.5-40.8 70.2-38" />
    <path fill="#51463b" d="M676.8 415l-38.6 14.7-2-39.8 31-14" />
    <path fill="#42442e" d="M105 303.5l-13.3 80.3-54-64.3L175 354.2" />
    <path d="M289 198.4L55 97.4l8.5 27.2 50 19.6" />
    <path fill="#99906e" d="M196.2 352L45 374.4l2-37.2 33 37.4" />
    <path fill="#381200" d="M370.3 187l42.4 40 36.4 39.7 30 40" />
    <path fill="#d7d5ca" d="M1021.7 368.2l33.3-29-40.2 3.4-1.6 8" />
    <path fill="#ba864d" d="M115 572l1.3-26.6 64.6 15.3 21-36" />
    <path fill="#abb47e" d="M190.8 354.3L165 364l26.3 2v1.2" />
    <path fill="#9b9877" d="M86 532.4l-3 10.4-23.7-1.7 11-35" />
    <path fill="#1a2825" d="M785.7 339.7l34 27-4.3-18.8 132.8-35" />
    <path fill="#d4e9cd" d="M332.5 516.8h-82l75.5-3 26-.7" />
    <path fill="#abb4a4" d="M379.3 358.2l-89-39 16-1.8 93.4 48.7" />
    <path fill="#69574d" d="M158 713L48 655.2l141.6 29.3-5-5.8" />
    <path fill="#324646" d="M243.5 515.4l26.8-1.2 3.3-42.8-25.8-15.7" />
    <path fill="#f2d2b0" d="M607.4 392.3l-40.7 34 44-29.3-97-3.3" />
    <path fill="#833a2c" d="M666.6 195.8L772 105.4 713 182l-10 47" />
    <path fill="#580700" d="M246 143.8L225.5 164l94.2 65.5 122.6 95" />
    <path fill="#aba095" d="M498.7 475.3l54.8-1.6 27.8-4-134.6-2.6" />
    <path fill="#bba9af" d="M1055 564v-35.5l-11.7 25.3L986 552" />
    <path fill="#571100" d="M993.2 236.7l45.4-14.3 1.5-33-28 13.2" />
    <path fill="#83d1dd" d="M230.6 380.3l22.3 15h-24l7-13.6" />
    <path fill="#50695d" d="M897.5 484.2l-7-31.3-1.2 36 31.6 40" />
    <path fill="#514b36" d="M883 505.2L863.6 522l-20-160 13.8 134" />
    <path fill="#a06444" d="M356.5 462.3l105 23.6-84-29-171-16" />
    <path fill="#213640" d="M814.3 252.5l93.4-51.7L776 231l34.8 20" />
    <path fill="#c0775d" d="M281.7 248l1.6-5.5 3.5 23.7-6.2 67" />
    <path fill="#493023" d="M594.2 389.6l13-9.2 12-56-1.8 65.8" />
    <path fill="#5e3520" d="M304.7 449l54.3-7.5 74.8 25.2-172-21.8" />
    <path fill="#dc7558" d="M42.3 217.5l-1-59 4.8 11.2V93" />
    <path fill="#6c866e" d="M962.6 495.6l-14.4 31.2 3.5-71.8-12.4-5.8" />
    <path fill="#6aafad" d="M233.7 510.6l-17.2-.5 5.5-46 18 2" />
    <path fill="#513c31" d="M878.2 473l5.5 41.8 1-10.5-5-150.7" />
    <path fill="#5aa3a4" d="M737 370l52.2 8.6-59.7 10.7-7.6-8" />
    <path fill="#3b2c26" d="M761 346.8l-5 11 1 26.4 3.5 69.5" />
    <path fill="#847c5a" d="M1014 378.7l-27.7 10 12.7-55.4 13.5-30.3" />
    <path fill="#735549" d="M990.2 563.6l-78-19.2 139.2 29.3-67.7-2" />
    <path fill="#e1865c" d="M566.7 356l-3-41.5 14-37.2-28.2 43.7" />
    <path fill="#b2c9b7" d="M943 320.8l43.8 5.7v20-31" />
    <path fill="#2c3231" d="M910.6 212.4l73-32.8 4.6 31.4-73.5 31" />
    <path fill="#422a14" d="M803 559.6l-12.7 8-70.8-10.5 72.5 5" />
    <path fill="#40858c" d="M696.4 298.7l21.2-14.8-13.6 44-10-20" />
    <path fill="#bdd5db" d="M749.6 491.8l-34.4 13 18-19 88.7 6.7" />
    <path fill="#2a251b" d="M218.8 446.5l-76 61.5-9.8-27.3L274.2 459" />
    <path fill="#e09a73" d="M589 471.4l36-4.8-57 19.4-3.4-6.2" />
    <path fill="#eeb19a" d="M130.7 290.8l-8.6-10.5 2-2.8 8 1" />
    <path fill="#a9ad95" d="M271 516.4l-78.3 1.3 89.6-4.7-9.7-27.7" />
    <path d="M1055 92.5v-40l-59 21.7 8.8 35.6" />
    <path fill="#1c1712" d="M20.8 469.8l29.7-10.6-20.2 64.3-12.8-46.3" />
    <path fill="#8e4b28" d="M586.8 396.6l-16.2 2 35.7-3.4-30 17.5" />
    <path fill="#314139" d="M765.2 501.8l-1.7 9-2.3-84-3 65.6" />
    <path fill="#d19070" d="M1014.3 234L962 276l-30 5 4-21" />
    <path fill="#934237" d="M996.4 299l1.2 140.3-4.5-73.6-6-133.4" />
    <path fill="#da9c81" d="M273 401.2l6.2 3.4 2.8-43.2-.3 63.8" />
    <path fill="#619d9d" d="M810 384.4L797 395l-1.6-3 6-53.7" />
    <path fill="#3e8083" d="M751.6 506.6l16.7-3-159.7 8L728.3 501" />
    <path fill="#3b7f84" d="M274 510l31.7-13 30-13.6 9.6 27.4" />
    <path fill="#816c5d" d="M703.6 406.6L809 389l-175 54.8 14.4-12" />
    <path fill="#422816" d="M985 136.6l-8.8 27-95.4 17.5-29.5 9" />
    <path fill="#3e5253" d="M1001.8 463l-6-45.8-.2 58 6.2 76.3" />
    <path fill="#baded6" d="M599 432.5v-14.2l25.3-2.3-24 39" />
    <path fill="#3d3d2f" d="M133.7 495l-20-57.6-3.3 112 26.6-116" />
    <path fill="#d09f7a" d="M426 469.8l-68.3-12.2 101 23-1-4.4" />
    <path fill="#591a06" d="M981.2 389.7l-111.5 43.5-166.4 8.8 168.4-35" />
    <path fill="#85aa9f" d="M401.6 371.8l-6.8-21 12.8-7.6-16.5-19" />
    <path fill="#9e897b" d="M802 609l55-25-24.6-14.4-37.2-3.3" />
    <path fill="#00185a" d="M342 28.3L123.6-31l175.7 149.2 267 53.8" />
    <path fill="#873712" d="M537.8 365.5l33-30.3-8.5 27.7-12.8 19" />
    <path fill="#84cecf" d="M770 496.4l-2.6 15 43.8 5.4-34.4-1" />
    <path fill="#531a00" d="M488 381.6L598.3 393l16.2-3.7-6.2-8" />
    <path fill="#78614e" d="M634.5 307.3l-52.3 45.4 103.4-27.5-45.7 40" />
    <path fill="#6a564e" d="M43.6 617l16-.4 57.7-31-46.4 14" />
    <path fill="#3e382f" d="M48 63.7l20.5 171L48 211l8-185" />
    <path fill="#333330" d="M630.2 317.6l68.2-36.7-98 77 12.6 1" />
    <path fill="#b55b39" d="M487.3 354.2l-1-17-18.6-43.7-8.2 38" />
    <path fill="#969f94" d="M132.2 249.3l-4 6.7-12.3-10.4-27-7.8" />
    <path fill="#d6c2be" d="M1004.5 571.2l50.5 20-135.6-11.5 135.6-3" />
    <path fill="#cb7656" d="M618.4 247l33-42.2-82.3 83.4 52-11.5" />
    <path fill="#584438" d="M423 542.5l-70 51 192.7 14-37.6 7.8" />
    <path fill="#cf7359" d="M43.3 210.6l-.3 29.2-4-.5 4.6-89" />
    <path fill="#c8dacf" d="M167.5 260l-.5 2 41 13.7-2.8-4.3" />
    <path fill="#b29385" d="M690.2 648.4l229-32-22.5-10-75 37" />
    <path fill="#b7bfad" d="M128.5 466.4L125 448l-2.4-4.5.4 24.8" />
    <path fill="#a7a181" d="M81.3 394.8l-12-4L-31 366l96.5 29.6" />
    <path fill="#abb3a2" d="M460.5 452.7l-49 3-47.4-21.3-48 2.2" />
    <path fill="#bfe5e5" d="M875 252.4l-3.4 3.6-2 3-7.2-1.8" />
    <path fill="#984223" d="M432.6 395.3l42.7 58.7-16-54.6-14.8-1.7" />
    <path fill="#423c31" d="M965.6 523l57.4-2.3-39.7-2.2-51.4.5" />
    <path fill="#add6d0" d="M928.2 336.7l-42.4 11 43.4 2-27.8-12" />
    <path fill="#5a615a" d="M159.8 243.4l33.8-28 14 70 31 2" />
    <path fill="#485438" d="M866.5 364l-43 6.2 14.5 3.5 4-10.6" />
    <path fill="#29211d" d="M50.5 431.4l2 23.7 23.3-24-95 15" />
    <path fill="#772b0f" d="M563 435l-79.2-.8 35.8-8.7 42 3" />
    <path fill="#32312e" d="M972.5 540l-3-55.8 14 56.7 14.5 6" />
    <path fill="#39301f" d="M440 479.6h-99l-83.2-17 72.8 1.4" />
    <path fill="#050200" d="M828.3 172l-169.6 93-67 72.3 103-80.5" />
    <path fill="#a7e2e1" d="M72.8 468L58 475.7l18.4-1.5 13.4 1.5" />
    <path fill="#b1bdae" d="M944.6 529.4l7.2-1.7-29-15.2L933 510" />
    <path fill="#ca9c5d" d="M182 530.8l-88.4-16.4 53 3.3 94.8-.5" />
    <path fill="#7c5c4a" d="M832.4 249l95-49.4 67-33.2 60.6-25" />
    <path fill="#99b9b4" d="M670 499l-30 20 10.5-7.3 12-25.4" />
    <path fill="#5f4f48" d="M218.7 189l60.2 43.6L136 178l-96-43" />
    <path fill="#eae9b3" d="M490.4 516.8l13.4 9.6-.6 6.5-23.8-9" />
    <path fill="#7c755f" d="M148.3 397.6l42.8-15.2-32-7.4-6-11" />
    <path fill="#b4d1ca" d="M864 360.6l-7.4 2.2 16-28.4 4.2 56.2" />
    <path fill="#21342b" d="M54.2 545.2l8-68.3 7 28-8.7 15" />
    <path fill="#0d171a" d="M111 192.2l65 22 13-19.3-122.4-23" />
    <path fill="#313a33" d="M131.3 251l16.3 9.4 10.2-13.4-30-25.6" />
    <path fill="#8a482a" d="M387.5 458l5-26-3.2-150.8-4.5 122.2" />
    <path fill="#755d4e" d="M302.4 570L432 629l-227.2-40.6 7-7" />
    <path fill="#909c90" d="M933.7 392l-24.3 9.3-16.4-10.6-13.5-2.6" />
    <path fill="#be9f8f" d="M700 675.3l101.2-8.6-16.7 7-188 11.2" />
    <path fill="#c1d3ce" d="M759 508.7l3.6-2-83.2 6 79 2.5" />
    <path fill="#a58a70" d="M53.8 363L-12 338.4 110.4 368l-29-12.6" />
    <path fill="#327b89" d="M797.7 505.6l-27-14L837 483l-75 1.2" />
    <path fill="#aec9c6" d="M77.4 492.3l-26-20 10 9 19.2 6.5" />
    <path fill="#6b5139" d="M338 327.5v-14.3l49.4 40v6.7" />
    <path fill="#b09889" d="M192 647.3L170.4 658l-13.7-34.4-38.2 5" />
    <path fill="#9f8a75" d="M527.4 672.2l-207-49L547 633.8 660.3 623" />
    <path fill="#222317" d="M838 505.8l-3 5 23.8 6.5L871 506" />
    <path fill="#355d57" d="M270.3 408.6l9.6-11.4 41 4.8-9-36" />
    <path fill="#373620" d="M140.4 318l10 50.6 8.3-45.8 7.2 54" />
    <path fill="#22261f" d="M147.7 428.6l2.7 62-87 21.5h76.3" />
    <path fill="#88442b" d="M-31 411l3.8 15.2 98.7 7.3 135.3 9.5" />
    <path fill="#13303c" d="M368.3 317.8l-13.5-23.5-17 20.8 54 24" />
    <path fill="#93c7bc" d="M219 517.2l.2-36.3 9.3 6 9.8 21" />
    <path fill="#592510" d="M215.6 286.8l-3 20.6 233 85-172-79" />
    <path fill="#726158" d="M133.2 609.6l-2.7 1-29 36.8-19-22.7" />
    <path fill="#238f9d" d="M783.2 506.2l35-13.4-.7-43-6.7 66.6" />
    <path fill="#3b3825" d="M40.2 161.5l-38.5-8-32.7-47L44.3 123" />
    <path fill="#abada2" d="M232 295.2l106 39.4-84.7-41.5-25-6" />
    <path fill="#d14922" d="M419 458.6l17-3.2 19-.4-11.4 6.7" />
    <path fill="#755d58" d="M20.4 601.4l-51.4-7.6 9 119.2h60.2" />
    <path fill="#7d5830" d="M802 547.2l-147 3.3 139.2-35 5.3 58.2" />
    <path fill="#3a0900" d="M992.6 81.6L1055 8 953.8-25.5 979.6 77" />
    <path fill="#934424" d="M42 274l-70 2 103.7 18.3 126 22.5" />
  </g>
</svg>