<svg xmlns="http://www.w3.org/2000/svg" width="1024" height="682"><path fill="#5a4946" d="M0 0h1024v682H0z"/><g fill-opacity=".502"><path fill="#000064" d="M165.767 3.922l351.512 333.41 128.576-136.59L904.41-31"/><path fill="#a89674" d="M19.317 713L-31 554.556l1086-260.962-39.09 416.01"/><path fill="#290000" d="M1055 148.276V-31H920.933L580.555 330.596"/><path fill="#370000" d="M1.976 142.55l441.627 186.327L154.966-31H-31"/><path fill="#58391b" d="M425.402 614.163L226.904 558.39l443.18-114.965 50.2 166.52"/><path fill="#390000" d="M1046.686 373.694l-395.36 73.156 193.23 11.423L1055 438.01"/><path fill="#fff" d="M130.614 552.895l-9.692 31.61L-28.01 589.2-31 568.356"/><path fill="#8dd3d6" d="M977.248 466.486l-221.162-3.855-179.333 48.423 171.914 8.217"/><path fill="#fff" d="M987.405 564.55l-81.42-9.627.467 33.012 148.548.685"/><path fill="#af3509" d="M557.808 291.405l-28.236 93.592L985.532-31 836.98 17.343"/><path fill="#d56f3c" d="M481.45 314.217l-48.633 238.396-12.65-321.714L86.716-31"/><path fill="#00115c" d="M158.93-7.585l669.83-6.666-332.602 388.403-29.774-87.052"/><path fill="#ff8149" d="M888.422 278.676L1055 211.936v59.642l-199.246 33.288"/><path fill="#fc6126" d="M-31 220.777l19.117 54.946 220.85 44.976 127.035 33.956"/><path fill="#ffcba1" d="M555.063 306.01l13.786 80.452 24.72-91.898 39.638-71.02"/><path fill="#430000" d="M1005.73 233.51l49.27-19.328-65.447-12.353-401.087 187.684"/><path fill="#100" d="M-7.24 104.19l221.486 80.947 243.195 149.75L4.447-10.003"/><path fill="#9bbaa6" d="M1051.182 379.725l3.818-78.303-229.874 43.864-1.636 53.306"/><path fill="#92a68e" d="M167.077 267.098l276.918 120.005-177.73-122.035-105.81-31.343"/><path fill="#003381" d="M381.252 143.163l285.854 17.53-98.302 113.8-51.436 112.03"/><path fill="#160000" d="M581.025 325.85L1006.907-7.955 1055 83.79l-225.45 94.76"/><path fill="#e4d9bb" d="M558.6 426.765l42.087 30.823 35.717-18.72 3.583-65.39"/><path fill="#031b0c" d="M220.92 511.524l-9.196-48.596-102.364 3.35-46.14 48.326"/><path fill="#b9a484" d="M444.334 405.517l-158.838 26.465 181.556 31.06-141.65-113.767"/><path fill="#03261f" d="M396.948 475.09l-30.864 33.995-174.607-66.034 192.405 23.827"/><path fill="#aca97c" d="M17.977 392.617l104.43-.476 10.112-30.65L-31 340.116"/><path fill="#b39388" d="M373.538 667.096L.408 629.886l145.747-40.52 532.735 70.226"/><path fill="#679fa1" d="M609.654 375.974l166.218-73.884 20.184-59.55.295-15.255"/><path fill="#841b00" d="M435.623 305.21L73.74 63.84 143.99-5.826l184.827 150.61"/><path fill="#ffd29b" d="M449.142 352.91l24.243-52.28-61.61-55.67 24.264 33.818"/><path fill="#aad5d0" d="M988.596 514.623L953.98 503.71l-71.584-33.732 113.003-9.156"/><path fill="#a5621f" d="M892.91 580.527l-419.246-62.772 300.725-2.402 166.23 10.45"/><path fill="#214a49" d="M888.937 307.344L618.284 400.26l29.918 21.972 135.254-30.216"/><path fill="#479191" d="M389.42 497.46l80.326 19.927-262.258-3.37 12.82-50.3"/><path fill="#98c1aa" d="M85.053 445.266L74.08 563.072 63.46 461.42-31 439.63"/><path fill="#24220c" d="M133.41 347.397l235.7 32.448-166.74-57.358L23.915 286.38"/><path fill="#001149" d="M76.207-31l515.05 283.996 158.23-146.75L912.267-31"/><path fill="#650b00" d="M-31 182.103L304.663 330.8l-36.517-5.96-239.872-82.165"/><path fill="#7d2200" d="M185.337 412.65L362.33 454.8-31 434.69l30.008-47.094"/><path fill="#c69458" d="M43.132 513.375l179.76 2.126-6.48 78.734-26.548-5.158"/><path fill="#2f7879" d="M991.974 509.355l-222.27 7.67-15.385-31.513 99.06-6.6"/><path fill="#d54f24" d="M646.896 372.878l-3.2 9.647L954.8 277.365l-89.564 7.84"/><path fill="#b4843e" d="M299.256 554.888l-182.05-35.932 319.822-6.838 161.793 12.62"/><path fill="#5f0600" d="M642.128 274.76l288.41-305.742L1055 23.292 816.48 157.046"/><path fill="#2b190a" d="M1042.04 273.006L844.347 313.13l-143.29 51.202L965 317.037"/><path fill="#222825" d="M447.12 513.512l98.225 4.327 211.253-65.343-55.096 6.036"/><path fill="#b7f3f2" d="M385.275 516.56L439.5 493.12l-15.92-12.94-40.276 9.82"/><path fill="#d39976" d="M588.55 470.082l190.64-27.812 275.81-34.9-36.866 13.955"/><path fill="#00242b" d="M233.63 207.232L58.752 170.756l61.745 42.657 102.448 31.246"/><path fill="#491a02" d="M852.01 438.83l-44.65 77.683 11.08-114.366L1055 391.134"/><path fill="#2c474d" d="M930.685 129.722l-14.887 72.096-320.044 161.697L717.36 236.94"/><path fill="#ac867b" d="M604.594 648.336l105.592 62.504 290.383-79.063-193.618-73.003"/><path fill="#3a2929" d="M555.057 605.794l76.94-56.575-192.178.586-112.176 27.548"/><path fill="#004a96" d="M492.51 396.024l63.065-.44 11.01 23.322-110.143-4.296"/><path fill="#6f8975" d="M196.103 415.985l-37.053-18.758 121-26.614 73.712 71.303"/><path fill="#042522" d="M22.283 462.303L9.205 528.048l55.93 28.35-22.4-86.97"/><path fill="#a95331" d="M189.644 41.98l225.173 191.184 43.1 42.397-44.576 16.09"/><path fill="#6f2c0e" d="M639.456 458.793l-134.038 12.762-54.852 80.46-16.68-94.86"/><path fill="#1f0000" d="M635.128 205.944l93.052-76.687L908.287-31 802.842 39.538"/><path fill="#dfe9c0" d="M502.64 519.574l64.256-4.253-90.154 21.544 13.43-19.66"/><path fill="#3b3c32" d="M1055 552.848l-39.114-137.92-10.58 105.37-102.324 32.125"/><path fill="#46564e" d="M380.074 355.137l59.622-19.782L264.31 213.728 68.66 125.654"/><path fill="#72bdbc" d="M717.185 399.566l-1.532-31.355 39.572-.186-.334 38.435"/><path fill="#b3cccc" d="M823.246 459.316L690.34 518.08l.454-49.694-10.824 4.392"/><path fill="#b99991" d="M321.75 683.43l-100.508 7.046-114.216-22.1L62.7 638.104"/><path fill="#879879" d="M-31 448.47l179.655 23.85 18.618-20.308-73.032-9.992"/><path fill="#f5b88b" d="M672.423 368.19l-60.687 35.433-141.84-12.392 137.305.277"/><path fill="#e4cbbe" d="M1048.815 578.102l-137.62-21.315-8.75-72.382-10.083 110.51"/><path fill="#dbb19c" d="M567.352 488.615l40.343-15.043-164.216 1.63 122.922-9.94"/><path fill="#000c1b" d="M891.738 170.193l70.032-.71-41.04 31.262-173.054 39.438"/><path fill="#530400" d="M358.197 245.154l-186.774-103.78L-31 50.76 52.79-31"/><path fill="#ba6450" d="M996.227 302.588l-9.49-261.732-6.165 135.163 1.476-31.015"/><path fill="#fffef7" d="M107.854 571.077L-25.898 584.26l42.655-17.975 106.284-9.935"/><path fill="#591200" d="M632.835 383.903l-100.51 9.918-164.516-8.148 162.287-8.012"/><path fill="#5e3d14" d="M710.377 558.875l83.734 7.02 7.82-40.444-225.163 22.923"/><path fill="#c8673f" d="M482.727 416.308l-316.45-126.576L411.963 402.16l61.894 60.95"/><path fill="#b1c8c2" d="M395.226 402.576L391.31 451.2l110.087 1.662-85.64-17.928"/><path fill="#150000" d="M42.04 62.73l341.278 231.652 70.214 70.46-38.907-76.44"/><path fill="#00377d" d="M531.687 167.217l-69.145 46.702 33.112 175.37 46.528-13.895"/><path fill="#ffefcb" d="M565.928 298.007l5.75 57.538 6.18-18.446 9.296-55.31"/><path fill="#73531f" d="M265.933 520.173l-16.23-57.522-31.176 103.526 380.837-23.903"/><path fill="#080000" d="M616.864 284.544L1055 11.764v79.31l-174.76 61.445"/><path fill="#661a00" d="M449.92 398.837l-79.55-43.61-183.714-77.353 78.525 51.554"/><path fill="#b29695" d="M205.17 581.818l175.755-26.194-118.793 6.022-194.318 31.41"/><path fill="#894b32" d="M1014.185 346.33l-19.446 62.234-6.697-100.964-1.822-74.933"/><path fill="#b59680" d="M493.615 627.135L268.87 658.8l389.057 2.533-9.707-33.57"/><path fill="#c16d4a" d="M38.234 239.925l5.893-134.937 5.512 9.26 2.3 31.934"/><path fill="#c56645" d="M665.995 188.89l-45.354 35.884-53.983 63.285 33.457 16.77"/><path fill="#75594c" d="M586.865 338.15l198.95-138.796 82.126-37.766-113.137 78.6"/><path fill="#eab783" d="M811.554 592.906l5.73-7.374-.484-69.662-19.422 2.977"/><path fill="#0f2d27" d="M926.228 449.688l-244.85 17.84 159.03-27.55L1055 426.965"/><path fill="#9d9c8f" d="M590.367 383.95l49.396-19.777 116.992-57.37-182.093 65.176"/><path d="M288.36 204.504L98.98 142.24-31 99.847l141.75 6.926"/><path fill="#1b3843" d="M238.322 474.894l35.573-19.333-4.648 56.26-33.262 4.15"/><path fill="#5b3019" d="M333.583 508.43l46.477.27-118.26-82.535 178.037 34.884"/><path fill="#df926f" d="M877.25 282.52l169.367-21.462-.504-27.994 8.887-17.162"/><path fill="#b19565" d="M638.297 468.5l-56.047 47.373 114.99-.5-63.106-3.82"/><path fill="#0a0000" d="M813.64 159.448L684.27 246.822l-90.392 78.86-11.344 23.303"/><path fill="#19180f" d="M54.877 442.814l32.717 10.512-74.89 17.515 19.71 40.992"/><path fill="#4aa6b3" d="M307.383 371.567l-24.58 30.742-50.964-36.638-2.828 35.675"/><path fill="#59443e" d="M530.942 667.578l186.555-8.11L448.487 713l-145.158-49.328"/><path fill="#212e2d" d="M928.336 204.374L1055 148.034l-98.227 80.778-92.057 10.42"/><path fill="#98cdc0" d="M237.083 503.197l-.133 13.897-23.256 4.13 8.75-52.302"/><path fill="#b78e8b" d="M670.257 558.816l345.85 46.83 27.373-18.564-118.655-6.432"/><path fill="#aacfcf" d="M831.613 344.837l7.397 22.09 85.613-33.743-14.388 39.703"/><path fill="#1f3426" d="M266.66 344.23l-50.392-.35-45.904 35.963 104.048 5.924"/><path fill="#0c0000" d="M123.638-31l-7.764 6.67L413.39 226.117 288.812 107.603"/><path fill="#a2a288" d="M349.605 348.083l62.365-10.86-9.122 34.77 20.702 7.733"/><path fill="#55aca8" d="M47.723 466.66l-2.04 63.556 18.614-50.5 27.116-11.87"/><path fill="#c56b57" d="M831.555 52.348l-187.56 165.6-21.94 13.853 81.806-76.61"/><path fill="#1592a9" d="M816.016 491.74L679.7 506.584l87.914 1.757 43.75 3.567"/><path fill="#243021" d="M314.066 368.79l92.012 33.62-15.32-15.734-109.076 24.638"/><path fill="#b9bdae" d="M433.597 383.435l-128.335-58.19-47.325-26.172 35.013 11.456"/><path fill="#6a5048" d="M902.606 143.23l92.34-18.92-242.572 109.01 68.4-52.64"/><path fill="#e3edec" d="M787.835 457.536l22.84 22.79-95.842 6.983 85.63-17.685"/><path fill="#09191d" d="M232.913 216.443l111.66 71.01L65.12 155.48l32.085 7.464"/><path fill="#242c26" d="M216.42 515.65l-42.02 1.728L38.81 473.2l180.82 17.59"/><path fill="#2d4337" d="M949.435 489.518l-126.842 19.02 35.843 9.207 52.472-38.048"/><path fill="#ffd9af" d="M461.363 323.175l-4.064-33.1-13.116 3.186 2.23 64.858"/><path fill="#f5f9f9" d="M906.618 577.632l89.14 4.198-8.625-15.03-65.722-6.075"/><path fill="#523426" d="M621.604 395.425l-19.972 16.602 85.44-8.252 48.688-51.72"/><path fill="#dbab84" d="M452.54 475.923l14.72 7.866-59.944-12.395-35.776-13.917"/><path fill="#6e564b" d="M296.19 561.513l160.206 67.376-85.337-2.524-138.08-15.22"/><path fill="#530b00" d="M1034.998 190.906l-453.54 203.68 336.487-126.87L1055 210.29"/><path fill="#735f4f" d="M331.032 275.23l82.717 47.616-154.2-110.13-137.457-64.423"/><path fill="#ffd69a" d="M523.663 396.356l24.478-1.542-143.927-1.956 58.413 3.726"/><path fill="#003f6a" d="M567.027 398.672l-110.326-3.53 53.965 37.28 38.177-13.4"/><path fill="#43443b" d="M819.828 410.578l-60.97-29.095 5.44 123.082-11.723-54.368"/><path fill="#5d4a44" d="M792.523 600.566l-40.142-28.794-134.993-7.73-147.91 52.264"/><path fill="#9f3f17" d="M454.136 270.965l32.813 54.777-.66 43.82-20.427 7.726"/><path fill="#131516" d="M566.822 485.703L538.4 482.28l-13.665 19.31 75.625 11.254"/><path fill="#d6e8ea" d="M697.182 497.546l-3.882-26.463 61.32 40.373-4.58-39.105"/><path fill="#cdb79d" d="M593.393 392.504L553.67 454.52l59.99 2.392 8.936-63.945"/><path fill="#c8c5a8" d="M211.315 515.496l146.233-1.085-167.21 7.28 48.89-7.52"/><path fill="#ae4e28" d="M582.958 373.676l-2.705 11.58-45.16-33.56 15.68-42.146"/><path fill="#d3826d" d="M996.515 247.595l-8.99-93.16-.367 121.094-18.1-25.784"/><path fill="#c6a290" d="M552.052 690.58L574.848 713l311.13-50.51 18.166-8.57"/><path fill="#5d5444" d="M47.162 89.408l-19.544 65.75 192.6 36.338-162.23-64.547"/><path fill="#789780" d="M985.01 494.845l24.847 56.287 1.25-112.978-65.48 16.297"/><path fill="#acb29d" d="M884.466 506.227l17.95 38.373-12.554-67.333-73.173-23.265"/><path fill="#002267" d="M478.16 313.172l-49.036-74.417L218.597 34.167l499.76 94.454"/><path fill="#d2a77e" d="M115.072 600.11l18.702-79.32 33.086-.276-51.03-8.96"/><path fill="#4a5146" d="M118.878 557.18l-129.67 2.087L6.53 442.497l14.93 79.392"/><path fill="#501603" d="M1033.187 371.857l-53.532 44.226-27.823-58.134 67.916 59.084"/><path fill="#523627" d="M877.017 421.892l7.404 138.814.43-99.36-7.787-177.427"/><path fill="#d38e72" d="M558.54 475.31l190.224-27.847-202.65 36.24-88.643-20.35"/><path fill="#6e5649" d="M949.134 621.302l-135.88 41.172-186.23 17.743 100.09-21.542"/><path fill="#937a73" d="M309.516 602.49L90.333 660.728-31 587.663l194.1-11.35"/><path fill="#c6db98" d="M188.27 362.96l-27.787 7.79 4.64-10.055 6.824-4.953"/><path fill="#122731" d="M384.338 333.583l2.917-20.88-83.117-49.762 42.95 55.383"/><path fill="#b9bab7" d="M994.143 383.63l-54.274-30.088-8.1 34.27 54.262-47.928"/><path fill="#350900" d="M676.018 161.946L818.49 39.314 625.097 224.98l-71.662 69.22"/><path fill="#d07e58" d="M480.406 316.215l-59.235-73.242-26.93-21.595 4.156 38.784"/><path fill="#8c2b0a" d="M563.79 434.228l6.127-11.355-110.727 9.953 9.157 2.42"/><path fill="#603517" d="M807.985 567.658l104.91 13.63-43.323-22.825-43.96 4.133"/><path fill="#1e2b33" d="M196.384 259.45l24.875-43.087 1.526 39.608-1.007 33.382"/><path fill="#0e221f" d="M24.184 441.805l139.14 2.906-191.222-18.337L-31 442.017"/><path fill="#3e0d00" d="M431.936 243.796l37.83 50.2L367.972 191.83l-47.342-51.474"/><path fill="#5f1e00" d="M-31 188.332l381.514 166.262L28.32 242.227l-58.278-21.808"/><path fill="#3d6257" d="M723.376 460.392l-2.01 73.066-7.028-81.905-2.712 16.507"/><path fill="#99a597" d="M286.352 314.63l-33.172-24.124-56.428-23.65L92.756 238.64"/><path fill="#986349" d="M600.036 427.83l-27.03 29.395 16.212-39.873 170.834-99.867"/><path fill="#001220" d="M438.07 483.206l2.778 16.213 18.47 8.148 2.363-20.23"/><path fill="#865424" d="M143.24 576.54l-18.125 5.22 10.96-47.698 58.412 35.297"/><path fill="#782d0f" d="M447.882 339.83l-96.52-149.757L149.49 25.125l238.12 257.682"/><path fill="#477675" d="M697.382 513.854l-112.344-32.69 54.804 5.18 52.544-11.314"/><path fill="#92b1b1" d="M779.614 296.573l4.078 1.31-114.17 49.264 108.025-65.05"/><path fill="#d5a886" d="M417.483 394.123l42.79 67.385-16.797-48.605-20.413-20.274"/><path fill="#83c3c3" d="M274.716 491.265l4.44-6.397 42.705 3.29-52.214 25.296"/><path fill="#d37256" d="M-31 226.676l74.32 48.705 2.88-166.6-6.938 136.103"/><path fill="#a2d9d6" d="M636.643 424.337l.458-21.104-35.174 20.132-5.722 21.214"/><path fill="#cf6c51" d="M40.758 373.25l-12.663 92.284L34.87 350.02l3.86-119.083"/><path fill="#c6cab2" d="M16.67 372.498l22.044 10.504-4.763 5.923-64.95-15.2"/><path fill="#252425" d="M974.467 557.18l4.564-32.03 56.233-6.934-67.342 1.312"/><path fill="#cebba1" d="M754.337 450.555l-123.694 15.28 181.592-28.192 23.73.886"/><path fill="#ce7c5c" d="M284.635 314.843l-4.42 100.593-.748-120.084 6.102-70.357"/><path fill="#591400" d="M817.76 436.826l208.94-29.338-202.82 3.43-120.338 38.68"/><path fill="#ffe9e7" d="M937.18 465.52l-14.216 16.073L889.9 465.45l47.04 2.657"/><path fill="#1d2920" d="M1022.455 529.782l.43-109.54 31.517-100.344-46.983 151.06"/><path fill="#425c5b" d="M967.932 220.273l-106.83 16.605-3.29-2.08-73.51 58.793"/><path fill="#62675e" d="M710.235 318.15l-99.198 18.994 13.52-2.555-25.152 48.29"/><path fill="#b24f2a" d="M351.146 372.438l31.352-.262-278.223-104.72L215.2 323.113"/><path fill="#c7cbac" d="M96.3 459.01l-2.417-18 15.63 8.175 3.707 20.872"/><path fill="#506254" d="M1050.718 331.194l-247.863 40.98 25.296 9.42 2.648-10.8"/><path fill="#003782" d="M429.563 195.137l8.113 54.383 187.693-48.71L502.12 370.212"/><path fill="#6f705d" d="M942.655 376.146l-27.59 28.113.722 11.747-29.547-51.534"/><path fill="#5e433d" d="M790.928 691.035L765.835 713l150.38-40.515 44.12-26.406"/><path fill="#5b8b8b" d="M726.655 437.245l79.417-91.12 3.305 58.256-29.345-49.155"/><path fill="#2b2e23" d="M238.265 447.423L70.905 478.25l72.145 38.97 54.35-2.035"/><path fill="#00134d" d="M722.85 122.808L863.514-8.617 86.977-31l360.608 169.513"/><path fill="#b7dedf" d="M824.993 353.852l29.685-.458 21.538-19.953-5.245 31.083"/><path fill="#213733" d="M300.37 509.828l106.446-34.425-104.626-17.02 73.183 54.18"/><path fill="#c3e0d8" d="M951.202 480.866l44.92 21.558-12.198 18.21-20.103-46.837"/><path fill="#3f0000" d="M1055-31L799.065 166.813 1055 45.968v15.434"/><path fill="#b28d83" d="M853.592 713l109.65-69.146 3.51-73.624 5.34 93.062"/><path fill="#c9d1cc" d="M24.806 454.642l18.867-14.487 7.953 4.248-1.356 14.685"/><path fill="#5b3525" d="M1030.758 271.3l-4.898 37.326-75.985 9.76-64.962-24.632"/><path fill="#bb9a8c" d="M928.44 612.82l-153.428 39.832-149.885 5.28 163.44-23.746"/><path fill="#583f2d" d="M434.482 424.848l-14.29 29.264-24.358-61.27-154.657-63.068"/><path fill="#914e36" d="M280.02 128.372l54.06 30.66L128.036-5.432 72.193-31"/><path fill="#b6c1ac" d="M403.247 517.222l-188.85-.553 177.228-5.03 23.62-34.54"/><path fill="#ccb2a4" d="M423.847 689.754l-90.22-10.684 77.93 17.326-255.728-33.338"/><path fill="#ad8357" d="M504.17 486.736l8.316 19.7 26.362 3.746-30.225-38.72"/><path fill="#767550" d="M143.935 342.873l85.316 77.677-75.5-20.073-41.602-65.132"/><path fill="#d0d1af" d="M544.422 528.238l-.71 1.997-2.796-14.713-61.65 13.955"/><path fill="#050000" d="M-31 110.35l73.128 9.39.457-44.286L-31 22.924"/><path fill="#3e3922" d="M448.013 571.954l82.618 13.613 11.905-50.82-28.54-10.583"/><path fill="#cea696" d="M863.667 95.625l13.025-5.61-14.17-.975-3.167 9.157"/><path fill="#27b0c1" d="M760.99 504.16l37.026-1.47 17.45 11.414L763.464 517"/><path fill="#662710" d="M595.75 467.51l57.857-8.286 175.44-26.945-274.592 27.716"/><path fill="#ece4db" d="M1015.65 344.624L1055 328.68l-39.597 43.713.126-19.502"/><path fill="#652608" d="M602.952 394.802l124.03-57.777-130.237 48.49-30.757 36.215"/><path fill="#6b2401" d="M350.958 224.232L116.464.108l-18.12-12.416-34.68 51.92"/><path fill="#3d472e" d="M-31 208.71l73.25 2.76-9.7-91.555L-31 113.28"/><path fill="#835823" d="M740.273 533.465l-138.06 26.926-62.846-12.557 1.656-31.693"/><path fill="#b3603c" d="M215.007 438.21l-133.72-14.587 41.935 10.276 336.316 38.258"/><path fill="#9bc3ba" d="M397.777 476.905l-17.296 40.2 57.7-34.768 3.223 33.245"/><path fill="#582100" d="M628.857 387.918l-160.824-9.458 22.197-29.436-41.338 44.187"/><path fill="#aab3a7" d="M229.8 294.433l143.997 55.1-118.775-51.02-28.683-36.236"/><path fill="#947f67" d="M927.45 530.42l87.828 44.072-27.086-2.658-45.437-73.09"/><path fill="#ffeac5" d="M598.292 395.455l-33.573-1.602 55.575-3.894-13.454 12.072"/><path fill="#6c2207" d="M939.08-31l-93.533 146.458-214.32 166.312 137.397-174.196"/><path fill="#635740" d="M620.19 436.44l7.24 149.903-.8-120.876-3.596-97.828"/><path fill="#490000" d="M99.915 56.032l-1.254-16.23-60.5 52.38 222.755 85.545"/><path fill="#a9a291" d="M1002 191.963l-3.072 14.68 28.304-11.675.418 1.727"/><path fill="#4a3d32" d="M985.465 212.352l-43.786-65.206 48.294-31.632L976.772 1.406"/><path fill="#986832" d="M457.6 515.336l-248.987 5.905 276.794 31.382-23.79-61.778"/><path fill="#c4a58e" d="M282.866 427.443l-4.366-3.974-1.463-41.255 5.555-29.38"/><path fill="#354539" d="M807.026 468l15.496 62.09.288-92.298-10.64 24.144"/><path fill="#795d4d" d="M740.514 242.097l-86.22 45.905-92.937 94.004 87.257-74.136"/><path fill="#2e2d2f" d="M967.15 446.872l1.836 46.1 8.66 63.25-8.076-115.205"/><path fill="#536655" d="M388.937 422.108l-20.374-29.022-67.35 33.55 71.504 6.03"/><path fill="#100f10" d="M483.75 479.94l21.303 31.533 85.452-.67-107.346 5.527"/><path d="M958.865 94.01L789.2 167.714l81.163-9.07 110.198-46.22"/><path fill="#4d4536" d="M968.322 360.71l-4.138-56.594-2.33 63.824 1.46 6.572"/><path fill="#626a62" d="M663.908 407.336L826.05 389.53l89.344 10.523-276.627 45.27"/><path fill="#3c4127" d="M-31 313.624l28.43 43.16 109.503-55.46 8.09 61.837"/><path fill="#898966" d="M825.802 475.295l-5.016 39.646-51.054 22.355 113.094-46.89"/><path fill="#837869" d="M770.182 267.65l49.173-18.127 88.523-38.273-171.862 84.777"/><path fill="#76625b" d="M-18.08 609.16l7.943 90.347 103.885-84.162 98.73 49.522"/><path fill="#654b3a" d="M303.73 236.338l75.207 57.113 73.45 62.35 4.28 34.187"/><path fill="#7f6058" d="M907.142 570.72L1000.277 713l52.284-78.106-169.467-33.007"/><path fill="#6d260a" d="M538.615 454.882l-206.134.783L450.79 466.8l142.797-.986"/><path fill="#b04e2e" d="M753.398 333.182l20.62-.973 162.39-39.077-14.038-30.63"/><path fill="#c95c3d" d="M745.182 298.988l2.683-79.387 3.083 189.467-4.73-97.505"/><path fill="#2a2b23" d="M681.683 484.678l17.476-23.083-65.747 11.306 12.287 13.192"/><path fill="#e69d70" d="M372.366 370.308l45.42 22.4 62.91 1.08-71.227 6.408"/><path fill="#95b396" d="M1014.038 445.323l-57.16 13.54-84.66 5.267 28.392-7.377"/><path fill="#9bbfc7" d="M709.708 330.67l-71.28 32.088 55.748-35.76 22.978-.658"/><path fill="#b0642a" d="M814.103 519.146l82.303-2.354-18.46 47.967-54.664-4.867"/><path fill="#cde7ed" d="M772.453 492.558l35.413-.41-51.814-16.44 42.574-.438"/><path fill="#91b5a9" d="M412.992 377.25l-8.63-28.78-8.325-23.693-2.32 34.465"/><path fill="#3a5145" d="M61.456 189.786l-3.11 34.8 34.69 13.426 101.982 14.385"/><path fill="#c5c3b0" d="M394.87 427.483l-2.433 18.872 20.62 7.1 38.603 7.2"/><path fill="#070000" d="M216.87 184.577l105.72 67.48 32.37-5.618-78.138-49.17"/><path fill="#ecb15b" d="M600.813 516.086l20.324.35 3.78-12.04-27.356-7.5"/><path fill="#172122" d="M78.202 156.458l124.123 47.18 85.65 45.047-226.853-62.007"/><path fill="#e39f78" d="M609.383 261.55l-19.155 1.617-47.987 64.744 19.63 5.653"/><path fill="#4d0700" d="M582.03 340.055l-4.132 22.78 35.376-40.962 29.325-60.99"/><path d="M773.436 207.445l40.045-41.68-153.9 105.652 41.71-17.33"/><path fill="#2d6566" d="M-31 511.273l49.052-58.722-1.534 83.655-46.505-25.168"/><path fill="#a19289" d="M958.698 36.886l7.67-16.88-9.987 1.73-1.18 1.59"/><path fill="#53afc9" d="M229.216 396.016l-2.3 1.27 8.667-27.84 20.865 29.392"/><path fill="#b8c8c2" d="M760.257 516.39l112.302-.095-154.51-1.963 29.468-12.097"/><path fill="#0c202e" d="M979.916 175.35l-36.398-6.56-124.874 34.383-15.512 44.69"/><path fill="#ad9f89" d="M1000.47 494.354l8.494 20.57-6.516 33.728 12.916 1.303"/><path fill="#d1a26d" d="M218.236 577.378l-2.885-62.137-32.73 48.632 63.103 4.785"/><path fill="#9c8c83" d="M326.955 627.71L154.063 605.72l166.185-47.85-225.466 23.642"/><path fill="#150b00" d="M863.393 502.02l5.96 12.792 2.674 2.01-41.476-4.388"/><path fill="#2f2922" d="M783.772 318.413l-5.16-23.185.08-21.457 36.985-15.23"/><path fill="#2b5553" d="M433.23 500.7l-31.387.415 19.48 11.74-.305 1.47"/><path fill="#151918" d="M1055 165.794l-62.262 9.417 5.257 9.785 52.282 22.452"/><path fill="#273629" d="M80.15 509.148l46.836-73.502-17.048 46.48-21.975-34.01"/><path fill="#b5a582" d="M44.927 342.26l39.998 37.085-51.086-20.99 12.63 4.812"/><path fill="#704931" d="M318.298 314.24l74.356 49.507-9.74-172.782 11.138 154.997"/><path fill="#854637" d="M989.964 233.8l11.155 70.196-6.357 102.874-8.8-127.416"/><path fill="#374e4a" d="M998.543 511.427l6.97-54.36 30.242-20.565-42.025 20.018"/><path fill="#446a63" d="M937.04 461.876l-31.937 52.788-15.107-35.245 48.517-.385"/><path fill="#404e46" d="M1055 487.474l-152.925 2.722 139.435 4.247-26.672 3.48"/><path fill="#cdd6c3" d="M165.275 255.223l1.415-1.425.148 14.58 28.64 1.192"/><path fill="#92aea5" d="M335.776 429.67l-38.336 1.984 51.128 10.473 46.34.395"/><path fill="#ded9d7" d="M871.912 477.055l-28.325-1.268-11.357-7.904 118.97 9.08"/><path fill="#3d2408" d="M782.775 562.13l22.284 1.86-36.202.433-126.75-14.935"/><path fill="#9d573d" d="M166.773 436.562L7.523 412.47-31 422.97l1.976-1.566"/><path fill="#678667" d="M185.77 465.187l21.825-16.8-13.465 4.106-36.313-11.024"/><path fill="#2c241e" d="M805.736 355.312l-66.074-5.592 51.98-20.498 210.015-47.733"/><path fill="#3f5b54" d="M755.48 472.99l7.87 34.093-.7-32.216-105.333 6.78"/><path fill="#1f1c11" d="M222.606 335.435l-5.825 63.86-10.34-51.877-90.765-22.695"/><path fill="#5b4e37" d="M854.657 459.988l-2.016 38.43 6.427-15.513-6.006-204.87"/><path fill="#334133" d="M884.096 438.05l-2.14 75.14-5.758-59.94 71-.47"/><path fill="#587b75" d="M272.51 277.668l-48.782-22.142-1.205-22.72 45.602 15.583"/><path fill="#5b0f00" d="M967.243.223l-41.278-7.01-65.05 81.723 25.707 39.254"/><path fill="#fdd1ab" d="M579.53 441.682l-17.282-6.11 95.025-66.6-79.923 44.182"/><path fill="#4b483f" d="M197.19 170.272L169.61 188.04l61.562 30.043-6.656-43.64"/><path fill="#67280f" d="M232.524 438.647L-21.694 410.11l10.03-26.033 139.907 16.05"/><path fill="#bf6341" d="M261.065 330.224l-129-53.193-89.5-29.952-59.747-7.782"/><path fill="#d8dea5" d="M481.59 537.825l2.247-20.87 24.27 10.61-1.775 2.22"/><path fill="#718782" d="M859.56 263.618l-7.577-11.59 1.153-5.605 43.753 2.266"/><path fill="#684a31" d="M390.27 403.54l25.73 3.08-36.987-12.86 14.433 160.355"/><path fill="#270000" d="M884.595-31l18.39 19.013L752.142 92.66l67.76-56.928"/><path fill="#6d4e33" d="M112.598 536.315l-27.962-93.343 32.873 107.95L-31 566.58"/><path fill="#a8e1df" d="M86.6 474.273l-1.762-3.695-.332-6.662-27.027 15.56"/><path fill="#551701" d="M679.52 442.287l297.306-52.17 6.11-8.176 19.85 31.615"/><path fill="#a9c2c5" d="M947.588 489.982l-.95-28.737-11.418 39.032 19.645 19.084"/><path fill="#918b7a" d="M628.79 337.298l-41.388 6.99 58.91-3.816-15.488 29.828"/><path fill="#00246c" d="M234.03 57.472l229.555 212.014 182.03-75.108L425.36 174.48"/><path fill="#508a96" d="M761.895 256.31l49.935-3.917-41.835 18.882 2.348 32.46"/><path fill="#450300" d="M214.703 138.964L396.39 296.31l58.686 77.894-37.912-76.646"/><path fill="#996a62" d="M170.3 114.083l-5.807-5.732-1.27-10.178 8.63-4.937"/><path fill="#2f3329" d="M58.493 434.867l7.79-8.648-13.094 131.518 15.692-66.695"/><path fill="#cbe1e6" d="M636.857 486.78l-.218 19.406-9.233-18.925 5.206-3.25"/><path fill="#a17a5f" d="M462.708 407.165l28.414 29.06-10.496-34.73-7.507 45.87"/><path fill="#bd8341" d="M207.484 556.932l-86.648.692-5.58 26.878 57.114-64.585"/><path fill="#9a896b" d="M79.864 512.966l31.29 28.047-51.663 7.64 4.67-29.14"/><path fill="#fff" d="M910.46 369.894l-.602-12.615-27.53 9.188 27.2.024"/><path fill="#ce8565" d="M561.42 486.356l.567-3.024 13.8-18.045 52.3 2.863"/><path fill="#a4847a" d="M612.09 553.342l70.56 13.5 74.64-1.776-17.328-3.074"/><path fill="#74c0bf" d="M222.666 491.085l8.813 25.334 6.054-28.138 4.284-27.996"/><path fill="#787461" d="M301.065 458.807l122.774-27.003-151.006 33.694-1.077-12.54"/><path fill="#f5ede6" d="M119.7 559.147l-9.66 20.72L-31 566.856l91.253-1.19"/><path fill="#63544e" d="M160.916 713L26.484 647.99 83.3 663.1l116.34 23.33"/><path fill="#0a140f" d="M21.633 513.757L-31 518.937l72.28-.506 5.106-58.23"/><path fill="#6f948b" d="M759.232 504.618l-15.267-48.727-47.647 3.348 53.824 5.698"/><path d="M49.47 114.095l98.303 12.56 58.797 56.077-125.368-49.43"/><path fill="#410900" d="M860.203 284.004l-7.767-12.597 113.308-54.033 25.475 20.554"/><path fill="#bca2a1" d="M1055 552.108l-25.186 2.646-28.84-3.337-39.494 13.563"/><path fill="#9a94a1" d="M74.07 43.197l-6.223-6.212 3.357-2.41 8.41 5.143"/><path fill="#cfe6f0" d="M962.446 473.472l8.54 27.196-11.132 9.688 2.545-11.03"/><path fill="#a18b7f" d="M83.123 680.3l-68.076-42.316L91.45 713l42.926-27.222"/><path fill="#93635b" d="M795.167 154.26l4.124-1.226-6.688-21.543 12.408 3.156"/><path fill="#8c3211" d="M454.945 437.384l11.436-3.088-6.443-30.903-19.18 2.54"/><path fill="#e6a671" d="M903.56 589.908l3.54-6.96 1.077-69.032-16.128 9.407"/><path fill="#f2c298" d="M457.413 342.705l5.215-37.428-14.83-27.335-.74 91.936"/><path fill="#d05e4a" d="M995.95 302.31l3.585 106.447-4.964 1.85.842-31.45"/><path fill="#96431f" d="M156.42 311.617l-183.51-37.5 173.645 20.765 172.17 58.962"/><path fill="#c0e4e1" d="M394.196 515.07l11.877.028-3.994-25.05-10.276 10.368"/><path fill="#cc6d5d" d="M985.677 119.483l6.42 118.984-.638-63.72-6.28-108.657"/><path fill="#bf6349" d="M778.705 317.175l-58.534 38.327-74.72 27.357-11.154-1.033"/><path fill="#bf866b" d="M755.23 403.662l1.492-1.255-7.447 41.105-.108-112.603"/><path fill="#224c54" d="M664.857 302.062l-31.38 44.184 108.796-70.038-3.068-15.063"/><path fill="#b59486" d="M525.76 666.764l-40.794-5.66 243.692-17.932-108.93 19.926"/><path fill="#ae8c81" d="M942.602 582.385l29.388 74.723 3.04-54.292-123.467-26.013"/><path fill="#523827" d="M633.76 505.41l-13.18-24.2-24.68-7.187-17.575 15.86"/><path fill="#687a62" d="M234.13 368.368l-14.878-1.53 2.834-13.444 27.85 7.475"/><path fill="#3c564c" d="M173.594 493.006l61.5-22.07-46.882 44.408-13.695-15.467"/><path fill="#62483f" d="M943.99 552.402l58.006-21.307-16.546 39.978 55.07 3.068"/><path fill="#33342d" d="M661.736 420.03l33.81-6.64-56.73-3.62 90.18-59.42"/><path fill="#5f4c41" d="M343.34 566.338l186.612 34.51-151.768 12.662-106.122-28.832"/><path fill="#cd7653" d="M486.618 339.155l-12.575-31.774-20.72 23.235 11.994-1.045"/><path fill="#56aba6" d="M272.83 369.666l8.07 20.594 24.208-7.687 17.13.51"/><path fill="#39493c" d="M764.47 465.64l100.29-17.293-104.767 3.012-2.552 110.86"/><path fill="#735227" d="M277.04 546.368l47.103 11.315-106.05 11.048-1.292-44.14"/><path fill="#261e10" d="M218.052 485.572l.595-44.865-53.904 64.72-5.45-52.937"/><path fill="#ab7c62" d="M970.86 430.47l45.534-8.785-72.635-4.336-7.912 13.936"/><path fill="#54433c" d="M297.358 676.315l181.082 10.348-51.717-10.848-152.925-12.712"/><path fill="#ac9382" d="M185.874 629.035L62.052 649.653l84.138 9.357-41.09-32.34"/><path fill="#aaad9f" d="M990.04 457.64l6.47-2.86 25.428-15.537-49.215 10.944"/><path fill="#23373a" d="M541.9 365.133l5.052 18.37-60.385-4.542-5.792-18.248"/><path fill="#622e10" d="M131.377 241.075l38.125 29.714 99.05 38.12-137.115-29.353"/><path fill="#f5d1af" d="M563.186 321.754l11.713 28.818 11.842-77.223-18.61 29.368"/><path fill="#b9cabb" d="M873.922 379.818l1.304-22.078-13.4-5.154 15.5 60.937"/><path fill="#747055" d="M103.866 399.216l-77.204-9.82 29.17-15.503 108.632-6.23"/><path fill="#584a40" d="M263.85 434.404l-11.74-50.345 23.32 22.496-96.833-23.854"/><path fill="#c5d9c9" d="M600.906 419.538l11.52 28.372 11.936 3.995-27.696 5.378"/><path fill="#1c211d" d="M208.387 447.087l-117.005-12.58-82.19-3.36 149.302 15.692"/><path fill="#2d2518" d="M61.518 146.466l1.52-.353-15.53 45.87-.73 61.797"/><path fill="#a65c3a" d="M361.066 182.936l-44.39-36.207-23.342-7.375 142.252 119.212"/><path fill="#90c6cd" d="M82.147 495.952L71.79 478.805l-2.305 28.753 9.483-26.44"/><path fill="#33696d" d="M294.695 504.406l7.23 11.8 39.82-7.303 63.057-29.515"/><path fill="#363f31" d="M316.097 410.818l74.725 16.58-17.91-10.1-120.897-26.085"/><path fill="#e8bd92" d="M116.78 545.626l1.736-23.545 8.77-8.29.484 61.014"/><path fill="#95a4ae" d="M10.485 199.486l-32.88 3.76 19.894-.072 29.6-1.14"/><path fill="#4d534b" d="M209.122 290.115l21.915-4.2-50.657-29.16 14.88-38.787"/><path fill="#495f54" d="M966.732 342.09l-33.428 13.205-34.52.82-67.465 15.107"/><path fill="#7ab4b4" d="M660.48 486.293l39.72.143-58.63 25.632 7.59-3.738"/><path fill="#b49993" d="M28.467 580.97L-31 570.444l63.423 26.64 166.62-21.46"/><path fill="#384137" d="M875.18 350.195l-2.663-41.813 9.394 16.792-3.805 53.352"/><path fill="#262621" d="M517.137 503.418l15.155-21.83 92.224 10.528-25.668 5.733"/><path fill="#908065" d="M169.705 394.813l44.237 31.775 8.35-56.793 15.065 33.63"/><path fill="#b39588" d="M853.48 585.78l53.43-3.168-201.47-24.474 72.176 20.26"/><path fill="#499298" d="M706.084 325.77l7.92-38.094 9.586-10.944-26.516 25.927"/><path fill="#944930" d="M819.463 437.467l-8.997 7.792 139.055-15.62-101.7 2.967"/><path fill="#9b8c84" d="M468.773 454.535l-51.713-16.457 38.49 1.16 137.154 13.176"/><path fill="#886b52" d="M59.248 186.254L-31 146.264l97.466 49.985 103.226 40.322"/><path fill="#b19688" d="M186.098 642.357l108.517 3.977 23.555 14.396-180.14-15.017"/><path fill="#853e2a" d="M53.744 66.29L45.507 181.48l-2.53-86.01 12.98-67.93"/><path fill="#512006" d="M602.83 384.497l142.184-70.076 19.278 9.142-153.554 65.327"/><path fill="#c7e2df" d="M409.387 476.21l16.148 19.658-18.553-1.193 1.694 6.278"/><path fill="#d0a780" d="M457.155 473.385l-1.794 13.422-52.708-23.082 47.982 10.935"/><path fill="#917c68" d="M199.234 254.818l-80.706-39.886 118.777 49.243-9.953-.584"/><path fill="#353d32" d="M271.863 462.173l175.36 21.723-29.766-8.877-59.86 24.374"/><path fill="#d8dad8" d="M996.07 361.36l-15.23-.37-9.95-3.815-3.794 19.31"/><path fill="#884125" d="M454.64 476.42l20.065 18.438 42.772-17.005-81.996-8.6"/><path fill="#6c534f" d="M1055 618.064l-27.42 69.457-42.76 18.475 26.924-107.295"/><path fill="#9a9b8c" d="M802.31 578.397l31.156 8.273-108.22 35.176 80.62-11.516"/><path fill="#244744" d="M818.82 413.783l-3.618-29.78-6.746-7.6 10.34-48.51"/><path fill="#eff8fb" d="M751.235 492.6l-1.557-7.265-25.46-1.093-4.45 10.812"/><path fill="#8d382b" d="M793.52 87.89L667.64 195.914l-57.172 53.68 56.438-1.35"/><path fill="#eff2f0" d="M908.092 560.232l32.542 14.796 40.256.503 5.89-13.075"/><path fill="#bfbaae" d="M-20.198 442.49l13.693 75.958L-31 458.623l70.597-14.302"/><path fill="#400b00" d="M-31 184.308l69.572 41.517-18.552 10.77-20.747-3.915"/><path fill="#bacac4" d="M758.302 509.116l-26.308 8.99 3.733-7.598 23.595-25.033"/><path fill="#4b1100" d="M890.59 275.666l-140.036 54.392 32.595-35.57 212.3-73.064"/><path fill="#58240d" d="M224.526 291.897l-27.152 4.157 235.04 99.468-46.828-32.788"/><path fill="#803b1d" d="M536.364 351.735l6.653 24.734 36.923 7.425-17.12-38.87"/><path fill="#ccd3aa" d="M110.61 444.052l-78.314 7.612 13.975 2.468 22.902-9.833"/><path fill="#26211b" d="M904.523 438.47l130.114-12.834-57.224 11.25-31.875 16.232"/><path fill="#d6f2f2" d="M86.91 488.19l-16.822-4.93-.547 7.935 5.73-2.276"/><path fill="#b9dad7" d="M393.82 439.174l-.823-27.48 7.084.247 7.752 44.077"/><path fill="#edeae5" d="M892.7 482.06l39.256-4.348-11.922-6.618-20.366-1.726"/><path fill="#732207" d="M835.443 29.204l-66.905 61.76 124.657-91.99L882.84-9.35"/><path fill="#755e56" d="M114.07 584.675l17.176-.378-73.177 34.908L-31 643.38"/><path fill="#b0b79e" d="M141.724 469.14l-12.65-4.084-5.558-33.153-2.194 28.376"/><path fill="#e2f0f2" d="M1041.082 584.456l-102.915-15.65 116.833 7.75v-49.35"/><path fill="#406664" d="M749.046 501.05l-80.938 6.272-30.493-32.53 1.89 26.563"/><path fill="#8c8a78" d="M919.903 395.382l-8.935 6.723-25.07-11.693 139.473-28.466"/><path fill="#949974" d="M797.162 384.37l24.875 22.28 34.492-38.67 33.73 33.844"/><path fill="#a0a482" d="M95.965 374l6.316-.388-10.238-12.08 57.115-3.17"/><path fill="#accfbb" d="M986.948 320.726l-.164 22.953-21.18-27.788 17.785 2.044"/><path fill="#826850" d="M866.41 230.5l118.892-56.082L1055 144.292v-8.377"/><path fill="#001b5c" d="M646.494 101.61l-56.72 145.438L757.343 85.87 848.405 8.5"/><path fill="#6d9079" d="M893.136 456.285l-129.914 4.642 133.9-1.153-11.615 68.518"/><path fill="#2c2c2c" d="M975.202 546.258l.44-3.19 18.66 1.393-26.708-40.04"/><path fill="#b29b8a" d="M507.9 477.038l-39.76-8.857 54.914-1.107 63.295 3.406"/><path fill="#3d3d3c" d="M812.078 167.75l-8.145 81.994-8.707-16.953 43.567-71.57"/><path fill="#997967" d="M479.196 665.46l-23.336-53.545-68.66-1.278 185.86 46.604"/><path fill="#64837d" d="M376.284 420.578l-19.503-19.652-35.47 3.653-11.102-7.995"/><path fill="#531d00" d="M739.19 113.086L599.544 249.32l-48.912 61.868 33.594-55.524"/><path fill="#050401" d="M361.3 261.02l-146.026-82.293 108.376 73.338 107.383 74.02"/><path fill="#d5dec8" d="M104.94 441.42l3.96 16.53-.86 3.94 5.19-13.355"/><path fill="#474d3b" d="M834.757 479.21l-8.598-48.946 3.222 64.637.84 19.19"/><path fill="#9d796a" d="M549.13 442.77l14.32-38.46 7.47-10.736 8.815 4.59"/><path fill="#a64d32" d="M439.882 291.68l-69.09-74.876 40.654 74.404 31.248 36.82"/><path fill="#617661" d="M920.14 353.145l-15.053 1.36 30.8 6.615-147.42-18.566"/><path fill="#837d6e" d="M450.923 363.894l-9.667 20.502-54.976-43.428 28.777 19.892"/><path fill="#6b523f" d="M556.747 445.298l9.22 68.182 131.92-84.462-125.69 92.547"/><path fill="#3c3e30" d="M86.152 460.01l-72.603 8.926 27.732-7.684 50.58-14.155"/><path fill="#011e2d" d="M452.777 515.045l8.693-8.248-3.157-13.1-11.026-8.644"/><path fill="#9e3e1b" d="M287.002 217.534v-54.798l-4.484 61.965 2.276 43.072"/><path fill="#305c5e" d="M81.822 509.49L20.89 532.573l6.886-10.67 45.722-26.472"/><path fill="#a6704d" d="M591.266 403.51l7.657 35.757-21.002-4.372 6.58-15.06"/><path fill="#1f2b33" d="M919.683 201.77l-52.058 24.484L743.99 243.42l230.685-74.238"/><path fill="#6fb9b7" d="M735.832 369.716l7.814 35.13 8.44-36.752-37.87 33.096"/><path fill="#00447a" d="M524.855 399.113l38.357-1.61-17.14 14.453-92.385 6.736"/><path fill="#36362e" d="M602.455 345.436l-3.212 10.823 16.934 19.77 6.534-31.11"/><path fill="#0e0000" d="M130.12-24.155l167.717 142.658 79.196 69.202 59.14 61.978"/><path fill="#001759" d="M251.402 76.544l86.36 76.574 24.3-121.798-237.52-59.93"/><path fill="#fdddc5" d="M569.158 428.29l.973-8.846 13.842-10.088-6.402 24.853"/><path fill="#62463a" d="M440.41 444.773l-74.086-68.708-86.088-19.85 137.595 45.957"/><path fill="#8b7a6e" d="M349.826 284.973l3.092-4.84-66.65-34.176 21.624 5.23"/><path fill="#58433d" d="M959.195 124.927l36.354 8.492-127.105 49.003-37.82-6.95"/><path fill="#4c6460" d="M291.68 311.446l62.232-8.42-75.027-46.913 54.526 65.014"/><path fill="#c66956" d="M32.846 413.632l.096-23.475 4.712-9.665-2.912 38.965"/><path fill="#6c523c" d="M920.698 533.484l50.297 24.342-63.425-4.007 6.873-36.685"/><path fill="#44a2a3" d="M331.55 504.888l-24.972-8.216 34.533-8.802-2.54 5.923"/><path fill="#87d2d3" d="M794.24 383.44l4.355-3.625 7.99 4.466-9.304 11.632"/><path fill="#37382e" d="M414.733 344.868l-7.127 30.164 25.553-15.265-5.085-13.51"/><path fill="#2c291b" d="M336.04 374.203l-2.15 29.966 46.924-15.23-13.365.967"/><path fill="#533819" d="M796.895 553.382l-3.496-19.11 10.368 34.378-69.83-11.75"/><path fill="#c8ede4" d="M832.487 353.33l-3.514-3.92 20.536 2.385-18.44 15.796"/><path fill="#7b2e14" d="M742.757 182.672l3.953 75.517 2.12-15.877-.867-118.71"/><path fill="#88675e" d="M921 611.882l-88.91-20.19 222.91 5.712-223.79 51.63"/><path fill="#488b86" d="M55.01 527.06l-8.634-56.915 10.954 1.68 4.398-5.037"/><path fill="#b95f44" d="M664.45 366.34l177.965-70.74-129.56 61.223-80.895 35.248"/><path fill="#1b1a1d" d="M633.513 325.182l74.08-46.818 131.97-83.335-157.833 89.138"/><path fill="#28383a" d="M55.014 183.887l98.965 43.744 118.855 20.33-80.15-36.016"/><path fill="#00387f" d="M489.262 367.95l47.47-6.843L552.4 245.293l-69.49 24.184"/><path fill="#a27a65" d="M601.75 382.538l-34.435-5.757 11-14.002 20.385-1.99"/><path fill="#4a1500" d="M135.343-31L40.94 63.946 146.868 74.36-31 7.13"/><path fill="#550300" d="M809.466 140.216l-17.412-8.603L965.266 49.25 669.98 252.23"/><path fill="#a98879" d="M926.667 654.75L663.903 713l250.654-78.67 18.86-46.088"/><path fill="#6e5f53" d="M178.52 663.05l-50.91-13.49 38.302 4.588 71.49 14.79"/><path fill="#af8f7e" d="M257.585 650.797l126.743-18.887L486.9 665.938l-171.856-3.418"/><path fill="#5e5645" d="M869.6 388.138l83.667-12.81 14.12-26.99-1.607 27.486"/><path fill="#383f35" d="M680.683 470.803l-7.26-11.347 86.012 3.937-157.342 17.404"/><path fill="#d5bcaf" d="M324.768 680.265l-36.028-2.336L626.52 713l-261.83-31.2"/><path fill="#dce8e4" d="M813.836 469.677l-20.25 13.855-16.124.934-10.677-3.047"/><path fill="#a85d39" d="M519.083 475.826l-19.426 4.48-7.665 11.778 90.532-17.633"/><path fill="#896a5f" d="M213.845 564.385l-40.99 16.746 231.346-29.3-203.61 46.51"/><path fill="#b79c8e" d="M69.773 611.3l3.94 27.35 144.88 41.993-123.105-38.63"/><path fill="#8c6436" d="M806.085 521.04l-48.322 25.46-194.3-31.446 214.835 1.253"/><path fill="#d3a083" d="M940.41 259.52l33.643 8.997 12.306-9.55-9.042-13.304"/><path fill="#665043" d="M961.417 642.153l-39.774 29.178 34.862-46.93-.754-5.26"/><path fill="#9b432c" d="M590.178 283.936l.848.766 15.32 8.402-27.576 64.91"/><path fill="#a2563e" d="M639.974 291.283l5.307 66.25-3.233 113.24-1.37-163.987"/><path fill="#2f292a" d="M16.635 197.65L-31 195.97l72.505-13.264-2.33 46.237"/><path fill="#565454" d="M587.56 356.875l219.933-128.317 71.47-25.356-112.513 47.355"/><path fill="#758e81" d="M128.192 253.855l-4.058-16.642 11.005 7.976-46.754-9.607"/><path fill="#c1c6ad" d="M943.215 524.546l-3.074 7.923 11.842-4.11-14.474-9.044"/><path fill="#363220" d="M158.264 323.64l-10.6 50.976-3.774-66.62 19.86 71.98"/><path fill="#6a5a4f" d="M91.227 639.913l-5.155-17.547 4.108-2.007 46.37-4.836"/><path fill="#550c00" d="M798.242 146.584l-14.26 16.34L656.99 272.81l-55.333 27.765"/><path fill="#5d2c13" d="M572.07 455.854l-81.03.867 26.467 8.636 73.938 1.627"/><path fill="#872e0a" d="M478.81 372.4l-22.012-10.353 18.93-25.18 13.185 15.997"/><path fill="#35210f" d="M339.346 472.428l42.784 6.398-18.282-15.998-107.49.894"/><path fill="#416807" d="M555.388 552.743l-18.968-17.078-48.68 10.34-5.577-10.807"/><path fill="#148c9b" d="M718.497 502.987l79.092 7.12 14.385-4.637-.086-7.933"/><path fill="#e4ac70" d="M801.006 530.834l15.91-9.353-1.528 23.778-12.31 29.59"/><path fill="#9f4228" d="M863.824 302.287l32.353-12.902 145.655-26.474-44.197 20.15"/><path fill="#f2a571" d="M435.634 396.47l52.352-.574 50.776-1.706-106.48-2.103"/><path fill="#89b2a2" d="M861.33 493.673l34.53 6.808-8.412-4.683-60.62 7.553"/><path fill="#bed4db" d="M978.415 514.403l17.48 3.562-25.586-24.774 5.065-17.91"/><path fill="#4e7e79" d="M886.68 511.593L933.103 502l2.185-24.034 2.622-5.2"/><path fill="#8d7560" d="M315.71 421.393l87.852 12.57-101.094-27.18 16.453 28.475"/><path fill="#23271f" d="M121.556 451.024l-47.666 62.53 81.335-3.49-35.172-20.724"/><path fill="#342213" d="M108.55 299.725l-57.926-7.292 56.606 14.753 90.293 16.665"/><path fill="#635b4a" d="M759.814 409.342l124.932-22.3-38.002-.12-53.487 29.072"/><path fill="#283c37" d="M296.895 400.908l-8.563-49.178 2.226 27.012 1.697 27.19"/><path fill="#909477" d="M1000.33 504.13l-35.888 6.01 51.655-14.4-6.278 54.106"/><path fill="#070000" d="M862.917-6.26l-99.05 88.658-58.61 59L902.066-31"/><path fill="#564e42" d="M57.72 132.035l188.903 87.055-169.266-65.003-6.548 59.406"/><path fill="#7f3623" d="M234.06 90.792l157.6 133.867-73.495-26.76-83.656-85.24"/><path fill="#6e4524" d="M818.117 569.204l2.985-21.066 75.257 29.796-25.076-.504"/><path fill="#fff8eb" d="M810.846 465.634l-31.28-2.242-8.685 4.676-1.823 2.253"/><path fill="#1d1210" d="M1003.566 133.247L923.3 166.25l-167.59 73.13 99.332-52.867"/><path fill="#576256" d="M876.4 492.833l-1.653-46.27 28.698 46.57-15.183-32.956"/><path fill="#a18857" d="M462.79 518.026l-2.17-19.855 29.21 33.827 36.468 10.056"/><path fill="#ba5b3c" d="M160.09 288.77L34.82 260.36l1.406 121.434 8.665-132.83"/><path fill="#644629" d="M131.672 579.192l-4.774-6.317 78.79-7.215-28.39 5.717"/><path fill="#575c51" d="M803.29 469.648l-132.764 8.386-112.662 11.85 121.65-8.653"/><path fill="#320000" d="M48.054 103.566L-31 56.628V28.71l75.8 3.707"/><path fill="#281d14" d="M834.97 444.462l53.102-9.353 13.637 18.365-47.846-.82"/><path fill="#867b6e" d="M681.628 324.04l-92.435 52.752 67.026-45.437-2.185-3.75"/><path fill="#c86c4c" d="M882.287 289.045L780.49 320.437l135.4-51.932 130.52-5.804"/><path fill="#464b3f" d="M918.717 461.44L1055 463.858l-15.214 9.477-25.32-15.15"/><path fill="#3f1d0f" d="M875.34 428.487l12.734-24.48 33.28 1.538-32.108-11.472"/><path fill="#1d1f19" d="M19.61 504.846l2.597-29.817-1.138-35.834 22.397 83.437"/><path fill="#bd9e7d" d="M213.46 389.584l-59.544-14.04 67.23 13.895 34.78 10.4"/><path fill="#5a1c00" d="M417.756 381.642l-5.674 7.103 14.07 3.184 198.6-10.492"/><path fill="#627661" d="M883.724 343.264l11.602 31.58 23.494-5.855-24.403 26.675"/><path fill="#98cbcc" d="M770.278 512.33l3.886-12.41-32.24 16.39-64.018-9.74"/><path fill="#3a2e21" d="M351.602 536.053l9.976 8.796 4.716-7.513-.458-8.45"/><path fill="#929e6c" d="M824.8 522.9l3.708-28.094-1.728-31.853-4.775-8.675"/><path fill="#c0a292" d="M626.64 681.264l111.376-8.146-126.382 35.193-35.148-27.234"/><path fill="#454237" d="M986.792 312.905l-92.4 17.228 94.358-47.017 8.238 108.498"/><path fill="#969785" d="M834.888 597.043L704.32 618.816l-160.257 16.126 181.196-11.23"/><path fill="#636e61" d="M325.132 291.5l22.822 35.328-152.746-51.305 99.63 25.28"/><path d="M1055 92.81l-52.31 18.788-6.678-31.886 39.447-10.902"/><path fill="#402827" d="M561.65 582.437l-89.786-3.527-60.45-11.424 163.77-6.353"/><path fill="#7b2e15" d="M703.685 223.97l23.142-53.008-149.787 172.02 97.627-136.88"/><path fill="#c3f2f0" d="M606.72 422.23l7.026-9.565 6.718 9.626-21.938 9.404"/><path fill="#2e3027" d="M138.894 473.966l-84.73 5.528 66.428 14.342 17.63-62.363"/><path fill="#b25643" d="M852.038 30.628L933.314-31 805.844 76.795 664.505 192.2"/><path fill="#6d2204" d="M428.567 304.527l12.263 13.05-58.167-53.356 66.105 87.332"/><path fill="#bcbca7" d="M770.69 444.563l8.024-1.683-19.553 7.36-61.363 2.795"/><path fill="#b5a398" d="M216.246 577.195l-34.614 11.472 108.302-27.826-68.586 9.07"/><path fill="#2c3a38" d="M251.25 396.332l23.254 4.34-54.114-73.955 22.217 22.41"/><path fill="#907364" d="M84.92 601.936l167.452 41.12 57.43-.698-191.187-58.313"/><path fill="#e1ebef" d="M875.54 473.18L833 479.19l4.45-5.386 38.018 7.004"/><path fill="#34251b" d="M348.962 370.315l-112.33-16.044-22.938-24.897 9.33-.14"/><path fill="#e2ad99" d="M127.05 293.616l1.38-4.208-5.54-13.703 9.45 3.966"/><path fill="#140200" d="M657.1 267.892l-31.463 29.09-48.838 58.883 107.688-99.04"/><path fill="#83c3ba" d="M237.877 485.988l-19.724-4.014 3.696 33.285 13.488-7.617"/><path fill="#b99988" d="M929.375 667.3l-36.79 13.455-26.444 5.18L879.63 713"/><path fill="#4f635b" d="M292.58 446.503l30.085 59.23-39.113-40.616 5.755 18.99"/><path fill="#52412c" d="M46.36 299.37l44.578 3.73-2.287 119.57 10.437-77.9"/><path fill="#c0b5af" d="M983.168 555.84l16.64-.764-7.5-4.02-50.425 22.506"/><path fill="#51705f" d="M949.92 507.526l-.558-70.6 4.667 55.257-15.76 23.04"/><path fill="#b5c6a3" d="M1010.92 316.77l44.08 2.756V233.7l-40.97 106.31"/><path fill="#383e30" d="M35.217 319.466l-50.93.47 35.49.334 10.984 57.42"/><path fill="#252621" d="M1035.12 420.954l-12.406 39.8-4.823 89.49-1.92-118.437"/><path fill="#8a956f" d="M817.488 346.077l19.387-1.106-18.21 59.41 17.095 2.803"/><path fill="#e3c39f" d="M568.275 478.383l-4.01 7.28 12.82-.876 11.086-11.335"/><path fill="#6cbdc5" d="M254.51 399.11l-37.27-13.34 17.57-1.24 8.14 3.033"/><path fill="#cbb393" d="M456.77 444.08l-15.528 3.81-.365-37.11 11.76 25.688"/><path fill="#384c47" d="M764.347 358.117l27.405-8.964-.066 49.867-74.49-110.508"/><path fill="#460400" d="M999.777 388.872l.017.788 9.074 22.244L1055 373.13"/><path fill="#002e79" d="M604.63 236.66L411.385 225.09l83.186 85.437 64.863-21.544"/><path fill="#bd8366" d="M949.476 421.446l-69.867 8.96 92.53-5.83 54.402-14.438"/><path fill="#726d61" d="M11.92 443.96l-40.98 61.994 67.67-45.713L-31 484.95"/><path fill="#eb9071" d="M36.245 379.002l1.555-58.218-6.562 61.747 5.306 1.27"/><path fill="#7e8d7a" d="M650.518 448.09l20.09-2.785-54.154-13.738-9.747 16.414"/><path fill="#56605c" d="M975.763 507.25l-73.187 1.978 50.357-4.36 48.36.287"/><path fill="#357d74" d="M683.004 501.746l-2.49 9.603-19.497-.406 6.878-25.598"/><path fill="#9a7374" d="M235.195 149.553l-.492-5.906-11.53 2.194 7.132 1.322"/><path fill="#795d4c" d="M394.53 318.703l-77.745-69.326 108.71 85.627-4.558 16.876"/><path fill="#c2a595" d="M117.156 559.168l-129.954 1.293L-31 575.23l37.82-10.8"/><path fill="#f7e0b8" d="M450.43 284.95l7.04 30.688-7.804 29.412-1.91-30.86"/><path fill="#625953" d="M710.774 617.453l-119.77 9.05-87.046 3.575-30.766-1.88"/><path fill="#99ae8f" d="M138.916 464.517l11.858-22.63-11.336 4.073-.305 9.41"/><path fill="#34342b" d="M993.337 204.71L989.86 99.05l65.14 35.237v-.798"/><path fill="#484d40" d="M976.61 430.04l-7.7 30.096-5.09-19.876 43.797 9.127"/><path fill="#0c0200" d="M218.886 186.08l-19.622-.67 20.837-29.53-19.822 5.18"/><path fill="#595d5a" d="M722.913 325.18l-41.302-10.917-38.434 42.073 89.675-56.576"/><path fill="#521602" d="M930.785 393.703l-76.11 34.857 93.928-7.67 47.03-17.54"/><path fill="#ffd7ae" d="M487.467 393.537l109.24-.224 15.51-1.544-2.638 4.865"/><path fill="#c89b62" d="M147.97 531.3l-3.815-10.64 82.338-5.088-26.063 16.78"/><path fill="#cdd4c1" d="M722.258 450.89l37.17-3.33-46.852 8.922-22.23.615"/><path fill="#714c31" d="M111.624 558.28l-127.037-3.86 125.036-10.294 10.043 20.515"/><path fill="#655343" d="M1049.873 334.326l-15.114.87-75.15 10.97 53.9-3.544"/><path fill="#ddf5ea" d="M276.993 490.246l-3.77.597-.16 20.376 2.477 1.877"/><path fill="#615042" d="M629.94 618.13l-72.435-10.596 59.563-57.735 135.798 46.383"/><path fill="#803e26" d="M387.005 413.4l5.68 24.975.066-30.63-4.35-171.452"/><path fill="#251f15" d="M143.75 510.83l-2.128-19.468 4.706-62.45 1.99 25.765"/><path fill="#b2bdbc" d="M929.373 374.327l35.188-14.662-51 4.906 38.158 12.67"/><path fill="#4c4233" d="M137.224 538.108l-22.74-64.796 25.172 74.57 14.167-8.816"/><path fill="#66685b" d="M851.89 469.686l-49.816-2.302 87.74-.575-35.398-4.12"/><path fill="#8b3f21" d="M573.464 433.055l-61.41-7.205-34.767 2.497-3.544 8.473"/><path fill="#b5593f" d="M752.568 332.486l156.284-51.4-160.4 54.948-1.15-110.44"/><path fill="#636a43" d="M160.826 348.397l21.68-3.814 6.59-10.943 2.058 36.97"/><path fill="#d86e55" d="M42.213 193.702l-3.295 66.892 9.205-116.86-1.87-22.94"/><path fill="#646c61" d="M18.578 366.626l3.617-26.48-43.708 2.37-2.27 36.92"/><path fill="#222620" d="M762.353 356.468L942.39 318.32l-191.492 29.7 9.164 32.69"/><path fill="#adb2a5" d="M244.618 291.43l-23.853-5.462 73.052 35.178 111.225 45.017"/><path fill="#5a4d3a" d="M258.265 278.824l8.605-8.014-11.892 69.512 4.006-111.742"/><path fill="#ab8763" d="M525.547 516.02l-3.972-20.47-18.126-5.84 20.05-23.842"/><path fill="#aad9d7" d="M390.064 493.146l-8.112 9.16-4.296-10.45 26.156 3.448"/><path fill="#788177" d="M789.255 420.26l-60.788 8.482-24.216-33.473-16.826 27.414"/><path fill="#3d453f" d="M687.47 367l14.355 33.46-63.128 27.424 48.603-10.97"/><path fill="#3d4944" d="M813.006 519.44l-2.967-89.238.033 18.432 13.57 50.008"/><path fill="#334b48" d="M385.782 499.037l-139.647-41.69-8.608 24.398 58.09-.51"/><path fill="#917263" d="M887.105 616.98l-226.95 32.567 161.142-46.36-20.692-37.376"/><path fill="#493e2c" d="M69.37 366.715l-9.17 35.863 14.458-99.836 43.92 9.968"/><path fill="#43878d" d="M233.29 475.825l-2.32 27.83-7.296-39.31 23.193 1.828"/><path fill="#a89986" d="M136.8 536.87l19.176-.586-3.666-18.498-14.712-5.527"/><path fill="#3f0a00" d="M1004.723 233.558L1055 217.165l-17.634-26.115-39.582 19.634"/><path fill="#939d88" d="M369.24 634.125l-106.887-12.192 311.004 12.76-135.195.012"/><path fill="#73381f" d="M220.596 418.034l140.653 28.65 103.263 23.296-350.277-43.734"/><path fill="#788b82" d="M637.52 326.323l-5.85 42.6 12.365-22.763-24.283-1.984"/><path fill="#c3e1df" d="M850.688 350.857l-.708 10.95-12.06-.5-4.795-15.615"/><path fill="#94bab4" d="M629.63 349.344l2.047-6.068 2.82-.356.652 27.012"/><path fill="#120501" d="M379.293 284.262l38.78 32.302 7.097 8.82 16.027 25.04"/><path fill="#5f6052" d="M56.33 540.35l162.562-42.212-80.02-5.52 99.284.322"/><path fill="#b4b9a2" d="M27.922 388.186l7.372-11.304-36.74-5.1 15.224 14.925"/><path fill="#b2cac1" d="M899.208 328.81l7.075 37.612-1.14-37.94L885 391.96"/><path fill="#856f6a" d="M777.237 224.965l-18.07 6.95 10.422-16.995 21.07-1.007"/><path fill="#dceded" d="M744.437 513.963l-4.414-4.556 9.404-22.83-2.156-17.548"/><path fill="#577b78" d="M632.983 418.12l177.87-45.326-11.333-28.275-32.813 50.75"/><path fill="#af6648" d="M480.774 388.093l-4.22 64.335 3.833 63.932 1.24-68.925"/><path d="M192.774 169.388l-130.64-74.23-8.027-8.803-1.984 38.174"/><path fill="#c3c8b8" d="M835.716 473.174l6.262 6.47-2.686-19.34-4.368 58.447"/><path fill="#531f0d" d="M89.776 251.867l-40.247-32.94-8.594 72.524 1.158-47.632"/><path fill="#977754" d="M961.266 546.75l-48.094-6.032 72.502-11.734-10.6 2.827"/><path fill="#c29a90" d="M871.523 91.708l-7.823-6.583-1.508.783 2.736 10.133"/><path fill="#ce6957" d="M989.362 194.16l3.577 111.762 6.534-46.23-6.13-4.047"/><path fill="#56563d" d="M106.145 366.757l22.783-38.868-8.46 10.096-8.974 50.083"/><path fill="#908965" d="M1005.653 368.787l12.303 2.418-13.714-50.93-8.347 93.023"/><path fill="#7d3f1c" d="M483.728 542.604l-17.17-22.89-5.172-66.997 15.218 21.425"/><path fill="#4c3d2b" d="M668.744 544.407l-12.244.02.26-12.762 19.51-3.818"/><path fill="#5f584c" d="M834.168 160.807l2.485 32.157 4.426-.907-11.816-26.333"/><path fill="#937d69" d="M389.335 344.44l46.296 39.543 2.145-48.447 5.103 46.35"/><path fill="#ccac9f" d="M902.36 586.198l-31.56-6.01 94.013-6.282-15.944 4.982"/><path fill="#7f917d" d="M407.82 415.553l11.013.622-28.867-11.107 38.228 54.145"/><path fill="#8ba69f" d="M253.315 258.455l12.938 5.53-11.23-1.1-31.13-.42"/><path fill="#312a23" d="M586.114 507.462l12.464-5.667-.758 9.557-157.53.824"/><path fill="#906029" d="M543.725 513.02l11.43 1.04 104.97 3.62-121.67 35.79"/><path fill="#2e2313" d="M210.12 208.037l-148.71-51.74-3.753 26.904-4.16-36.323"/><path fill="#576955" d="M848.92 366.34l-69.975 18.972 78.19-27.478-3.892-12.37"/><path fill="#5b4e46" d="M158.138 186.443l-47.227-35.396 12.2-2.755 113.157 51.563"/><path fill="#5fc9d4" d="M290.238 397.87l-6.738-15.39.904-4.478 2.883-4.477"/><path fill="#5f3621" d="M804.454 435.67l-120.876 20.165-93.68 10.365 46.258-17.836"/><path fill="#896859" d="M696.71 561.438l86.386 41.964 29.642-12.922-30.676-16.128"/><path fill="#3e1f15" d="M464.527 292.736l4.068-4.694 15.883 37.714-46.31-71.067"/><path fill="#302926" d="M47.98 436.885l8.77 32.058 10.757-40.183L-31 437.68"/><path fill="#515341" d="M721.15 492.75l-3.22 66.46.957-14.325-3.114-114.966"/><path fill="#5f1c01" d="M269.256 100.52l89.37 86.91-5.963-5.552 29.58 18.32"/><path fill="#a8d9dc" d="M234.826 384.38l-5.04 9.046 1.603 2.892 7.407 3.12"/><path fill="#49321c" d="M188.444 394.552l4.84 28.665-34.194 61.12 25.887-35.447"/><path fill="#c26f52" d="M417.687 245.555l42.784 40.988-134.89-120.775 13.023 5.545"/><path fill="#001c5f" d="M568.914 137.288l-114.702 58.33-96.46-54.54L250.81 61.42"/><path fill="#b5664b" d="M588.242 266.674l69.424-74.877L784 93.244 683.824 179.91"/><path fill="#187882" d="M788.448 509.145l-20.476-16.593-11.24 31.366 18.378-31.307"/><path fill="#759690" d="M750.27 356.624l16.336 46.99.56-36.405-13.37 35.79"/><path fill="#494633" d="M153.28 363.983l-43.136 42.156 87.175 2.473-55.262-11.966"/><path d="M977.977 112.987l.86-28.085-176.09 87.258 148.865-48.146"/><path fill="#2c302b" d="M653.132 392.194l36.215 7.727 37.307-41.62-28.877 17.933"/><path fill="#2c524e" d="M335.76 374.407l-50.817 28.44 23.294-40.444 21.02 42.704"/><path fill="#b96e54" d="M283.978 291.498l-.907 31.775-.363-68.303 5.007-21"/><path fill="#7b9078" d="M189.473 453.85l8.616.39 8.615-6.073-70.63-1.524"/><path fill="#2c3027" d="M188.718 473.573l-30.17-34.674 2.113 38.595L-31 540.847"/><path fill="#6b6058" d="M10.486 545.785L-31 547.535l105.466-16.022-85.982 3.902"/><path fill="#61847f" d="M781.97 458.117l-4.472 10.988 4.935-24.075 10.988 14.052"/><path fill="#8dbcbb" d="M707.34 491.79l-79.12 15.005 34.228-.747-3.335-14.26"/><path fill="#3d4035" d="M128.944 228.18l56.37 17.98-30.255-4.145-13.19 27.558"/><path fill="#ac9184" d="M890.895 606.777l24.026 5.786-10.926 6.19-78.644 23.78"/><path fill="#705a55" d="M24.412 600.468L-31 688.81l75.365-.858-67.072-89.298"/><path fill="#060f1d" d="M881.986 198.78l93.582-30.48-107.037 15.88-78.877 33.11"/><path fill="#4c4d4a" d="M871.64 158.376l4.835 75.36 44.48-25.238-50.35 53.324"/><path fill="#2a2a1d" d="M218.273 465.976l-33.54-25.945-46.162 4.248 133.305 9.586"/><path fill="#a5603d" d="M460.527 386.673l7.112 19.498 2.184 46.644-8.488-11.196"/><path fill="#9a6d37" d="M350.47 521.72l1.202-.683-140.312-2.414 136.068 34.457"/><path fill="#c6a38b" d="M434.233 470.57l-19.824-.87 41.58-2.42 14.074.954"/><path fill="#a4d0cc" d="M88.314 455.446l-17.82 23.132-3.843-13.957 12.218 1.815"/><path fill="#1e0300" d="M139.286 12.107L120.076-31l163.86 136.65L111.43-19.32"/><path fill="#3a2c1d" d="M483.915 483.48l21.282 12.586-1.025 5.41-24.245 17.765"/><path fill="#a58574" d="M532.452 676.825l-100.23-38.92 25.49 34.336 134.994-44.124"/><path fill="#765c4e" d="M890.614 640.623l44.02-30.048-51.62 20.066-98.103 28.133"/><path fill="#5c6763" d="M788.31 493.866l-58.178 1.388-79.8 4.783 242.196-8.704"/><path fill="#7c4031" d="M600.947 394.86l-32.59 16.665-7.163 35.768-4.527-16.522"/><path fill="#4f1a0f" d="M29.186 390.323L-31 382.865l62.395 34.374-1.985-35.898"/><path fill="#bdd0cf" d="M698.724 469.407l-2.61 51.46 22.238-52.608-2.728 40.096"/><path fill="#303030" d="M983.416 214.885l-1.245-23.893 5.403-16.092-69.284 35.807"/><path fill="#a0746e" d="M804 145.852l-5.056-2.995-4.758-1.486 6.972-9.792"/><path fill="#64482e" d="M100.415 457.56l4.083-36.423 2.56 31.482 55.74-32.95"/><path fill="#010000" d="M754.244 218.885l51.727-30.058 8.254-27.672-56.39 31.472"/><path fill="#e5a893" d="M188.367 302.464l7.71-.282 1.612.018 1.19 7.84"/><path fill="#7c725d" d="M152.094 371.625l-2.605 47.48 7.993-36.59-5.806-74.896"/><path fill="#584539" d="M640.264 587.118l-172.25-39.5 109.792 1.9 150.122 36.448"/><path fill="#8e4f43" d="M708.67 203.498l-5.71 16.09-6.644-4.33-6.98 5.658"/><path fill="#b25935" d="M546.432 321.783l16.088-30.09-1.27 33.032-24.497 28.917"/><path fill="#d0cdac" d="M525.79 517.303l-38.13 3.23 19.425-.666 39.655 12.454"/><path fill="#7d6254" d="M226.16 583.855l137.21-2.292L214.913 605.4l-19.624-17.42"/><path fill="#5c514b" d="M670.943 276.233l12.83-10.05 75.3-30.604-131.34 74.302"/><path fill="#b6c0a6" d="M974.127 453.087l9.25 5.398 18.68-3.438-21.463-7.4"/><path d="M-13.954 79.663L-31 97.936l71.84 25.198-2.335-32.187"/><path fill="#77734f" d="M425.422 518.962l5.22 7.436-3.907-42.635 7.01-8.23"/><path fill="#d3c6a9" d="M824.163 440.646l-11.574-1.887-14.167 6.75-20.533-3.488"/><path fill="#959882" d="M124.76 390.39l-25.51-7.116 2.145 11.624 21.16-16.406"/><path fill="#8f5940" d="M592.724 361.036l-2.307-39.372-1.642 28.544-9.506 31.76"/><path fill="#8f9589" d="M180.84 607.738l87.69 18.443 12.086-2.74-103.23-34.013"/><path fill="#494b32" d="M34.377 285.396l7.973 46.487 132.592 43.51L-31 284.983"/><path fill="#000e1d" d="M569.735 514.17l.734-20.755 8.185-6.516-.634 28.32"/><path fill="#d0e0e2" d="M725.46 465.035l-3.75 36.135 19.044-3.89-4.67-2.185"/><path fill="#657f71" d="M409.288 477.156l-26.362-18.382 20.483 27.6 4.18 27.357"/><path fill="#974425" d="M466.894 423.853l-42.972-28.78 17.495 5.434 12.63-6.823"/><path fill="#b67e54" d="M895.236 567.82l-19.843-22.766 35.53 41.65-3.136-35.967"/><path fill="#b7c5bf" d="M888.444 368.067l46-14.498 53.83-8.245-4.607 2.008"/><path fill="#c2d4c2" d="M869.244 374.528l-20.014.9 25.766-23.757-18.73.666"/><path fill="#928b6f" d="M79.702 513.22l67.548.196-80.303 11.83-2.993 13.725"/><path fill="#c4d9df" d="M721.374 484.49l29.648 2.514 21.378 6.682 25.172-1.438"/><path fill="#383a2e" d="M764.548 521.83l-4.368-18.418-.24-94.04 4.17 126.323"/><path fill="#ae6848" d="M413.892 469.332l-17.713-1.344-132.243-20.41 77.627 7.61"/><path fill="#ae978c" d="M179.82 655.857l-31.144 8.002 33.222 7.253-33.364-45.405"/><path fill="#75341b" d="M132.737 9.477L96.16-27.158l34.83 12.236 69.145 68.18"/><path fill="#13313a" d="M376.606 322.032l-59.977-38.15 20.792 17.342L364.46 328.3"/><path fill="#986d53" d="M559.61 456.24l8.678 81.183-7.753-162.836 5.526 65.4"/><path fill="#594a40" d="M474.82 713l-60.368-3.616-22.474-46.19-60.865.895"/><path fill="#9da593" d="M917.998 399.34l-58.76-17.953 64.663 12.37.955-5.49"/><path fill="#130300" d="M583.435 260.434l57.842-62.502 22.392-20.373-52.535 57.777"/><path fill="#3c3f34" d="M434.61 438.32l.488-6.295-17.78-16.63-3.16 18.95"/><path fill="#363c31" d="M691.326 481.69l-8.12 32.545 4.14-52.927-45.524 22.728"/><path fill="#3b0e00" d="M980.306 61.05l4.938-38.52-60.36-21.15L1055-1.12"/><path fill="#9fa679" d="M820.324 378.31l36.444-10.622-5.7 3.91-29.194 38.468"/><path fill="#00124b" d="M923.213-31l-708.17 12.357 257.815 120.87L720.194 68.88"/><path fill="#bfddd9" d="M922.843 338.522l-17.328 3.33 17.65 6.154-32.92-.79"/><path fill="#594e47" d="M191.583 197.523l61.35 23.898-49.416-33.324 2.36-25.456"/><path fill="#aab183" d="M154.208 360.474l27.92-6.176-1.678 11.358-2.16 1.283"/><path fill="#63b1af" d="M741.85 382.34L719.07 397.75l.136-31.336 30.05 24.873"/><path fill="#948063" d="M201.714 387.09l-95.237-19.98-19.06-8.438 112.767 25.68"/><path fill="#a88368" d="M52.682 391.89l-8.458-3.567-.146-26.732 4.392-33.886"/><path fill="#394141" d="M821.234 284.193l-29.622-16.09 81.603-36.74L769.42 301.42"/><path fill="#3f4138" d="M991.55 489.4l-85.755.164-45.3 3.355 70.875-.386"/><path fill="#ecf4f3" d="M906.536 570.685l10-12.12 58.745 11.448 34.972 6.33"/><path fill="#f0e9e3" d="M39.396 579.436l50.803 1.788-57.46-17.305 81.316-1.427"/><path fill="#533e1f" d="M264.12 553.85l-51.006 11.42 127.875-8.842-93.54-1.583"/><path fill="#8e9190" d="M544.124 426.882l18.643.162-.11 1.195-7.574-12.18"/><path fill="#acc1bd" d="M937.938 485.317L952.9 517.45l-26.94-44.53-2.896-6.384"/><path fill="#a38c82" d="M387.877 556.067l-72.27 4.808 3.73-4.816 7.47 1.5"/><path fill="#c9d09b" d="M86.433 443.066l-20.926-.427-1.332 2.113 38.5 2.847"/><path fill="#3c3b33" d="M965.995 517.52l-48.51 2.335.513.246L1055 522.383"/><path fill="#c1a191" d="M566.555 649.107l14.86 10.99 6.63 1.17 109.172-6.93"/><path fill="#d5ecf5" d="M876.06 366.602l37.51-4.65-13.446-6.612-1.108 2.127"/><path fill="#b7b197" d="M1013.913 379.97l41.087 7.444-31.876 95.334 12.264-162.85"/><path fill="#d1eaec" d="M68.545 485.294L75.98 496.8l4.138-12.935-.345-.032"/><path fill="#925828" d="M896.43 573.402l-69.355-10.453 3.058-21.765 64.75 9.14"/><path fill="#e7e6e9" d="M1029.41 603.262l2.237-46.22-40.12-3.93 49.447-.055"/><path fill="#000100" d="M815.68 167.593l13.427 14.586-.258-24.29 103.043-26.07"/><path fill="#382624" d="M966.378 548.815l-45.033-1.786 96.794 5.658-2.406-2.33"/><path fill="#7b9f85" d="M863.44 458.39l72.88 3.647-73.013.705-45.502-4.647"/><path fill="#bcb9af" d="M609.364 451.01l-37.133-10.39 4.082 9.764-2.788 4.257"/><path fill="#b69383" d="M806.756 661.596l11.152-2.862 54.536 12.775-126.432 2.994"/><path fill="#266c72" d="M-19.37 522.36L-31 519.38l37.07-26.87 18.51 14.258"/><path fill="#34392f" d="M189.865 515.9l31.763.615-.032 4.196-9.355-25.23"/><path fill="#474842" d="M241.21 397.466l-61.744-3.77-13.32-14.652 72.61 22.686"/><path fill="#e4ecd2" d="M175.78 264.98l1.423-13.424-5.656 8.023-4.88 3.435"/><path fill="#7e6c6a" d="M655.337 292.91l-1.456 11.575 41.133-40.14-3.076 11.128"/><path fill="#66280f" d="M204.97 283.08L38.98 242.124l241.77 91.248 19.393-9.596"/><path fill="#566c5f" d="M908.493 479.148l36.48 38.394-16.735-33.29-100.507-4.992"/></g></svg>