<svg version="1.1" viewBox="0 0 1024 682" width="1024" height="682" xmlns="http://www.w3.org/2000/svg">
  <path fill="#5a4946" d="M0 0h1024v682H0z" />
  <g fill-opacity=".5">
    <path fill="#a99674" d="M19.3 707.4l994 5.6 41.7-420L-31 558.7" />
    <path fill="#00001e" d="M1055 234l-1086 4L3.2-28.3 1035-31" />
    <path fill="#000e7d" d="M857-31L512.3 349.4l-158-191L147-8" />
    <path fill="#b53100" d="M857.2 6.5l-280.8 260-55.3 112L1035-24" />
    <path fill="#3c0900" d="M1055 446.3l-5.7-66.3-159 17.7-324.7 70.5" />
    <path fill="#a72700" d="M135-12.8l298.5 259.4 55.8 91.7L-31 4" />
    <path fill="#553517" d="M473.3 467.7l338 83-122.8 57.7-412 6" />
    <path fill="#fff" d="M-31 563l166.2-4.3-41 31L-31 583" />
    <path fill="#8adde5" d="M590.7 513.7l201.8 3 23.7-57.2-107 10.7" />
    <path fill="#e1ba9b" d="M547.4 455l69.2-220.3-69.7 82 111 127" />
    <path fill="#fff9f1" d="M905.4 593.8L889 482l21.2 67.8 144.8 34.8" />
    <path fill="#2b0000" d="M464.2 356.7L64-31-31 84.2l297.3 130.3" />
    <path fill="#d69970" d="M344.4 445.8l146.3 9.8-109.8-253L488 321" />
    <path fill="#ff753e" d="M710 346.6l318-75 27-56-177.4 66.8" />
    <path fill="#965d35" d="M-31 271l536.5 128L77.2 188 46.5 87.6" />
    <path fill="#350000" d="M594.6 333.8L1055 38l-89.5-69-369 343" />
    <path fill="#002d7c" d="M607.6 144.3L381 122.7 504.3 376l24 11.5" />
    <path fill="#99b9a5" d="M816 404.2l18.8-63.4 220.2-37.2-16.2 72" />
    <path fill="#a5d3cb" d="M995.3 524l-.5-78L811 474.5l115 9.3" />
    <path fill="#7ba197" d="M453 391L231.4 241l-2 13.5-87-.4" />
    <path fill="#061c0c" d="M83 474.4L74.7 511l130.8 7.5 20.3-66" />
    <path fill="#500000" d="M647 371.2l408-159-56-9.5L577 391" />
    <path fill="#90906b" d="M28.3 341.4L389.6 428l-366-38.4-54.6-18.3" />
    <path fill="#6b9897" d="M800.3 238.3L773 305l-62 24.4L524.6 421" />
    <path fill="#892d05" d="M-31 419.4L62.8 389 522 477.5l-407.4-41.8" />
    <path fill="#02261f" d="M313.8 485.4l61 30.2 10.2-47.2-214-27" />
    <path fill="#1c1a11" d="M672.7 420.8l88-84.8 294.3-65.2L624.6 402" />
    <path fill="#ab8c7a" d="M-.8 673.7L250.5 518l-220-5L545 663.3" />
    <path fill="#20251f" d="M693.4 482.2l-183.2 38-47-14.8 242.7-47" />
    <path fill="#cb745a" d="M847 36.6l-99.4 93.8-215 228.3 93.8-139.5" />
    <path fill="#1f230f" d="M24.3 285.4L147.5 309l151 41.5-50 33.4" />
    <path fill="#9abd9d" d="M174 446L66 477.4l-10.8-16.6L-31 443" />
    <path fill="#bdd9bc" d="M482.3 534.4l74.7-16-192.8-3 48.3-38.3" />
    <path fill="#da562e" d="M8 279l-39-56.7 177.4 61.3 169 63" />
    <path fill="#b99686" d="M656.8 664.2l-420.7-4 138-28.7 616-10" />
    <path fill="#a0661a" d="M103 564.2l366.4-10.7 16.4-39.8-253.4 6.5" />
    <path fill="#4b0000" d="M203.6 283.3l130.5 66L1 231.7l-32-42" />
    <path fill="#a05f1d" d="M839 573l-334.4-49.6 331-6.2 153.6 32" />
    <path fill="#37858b" d="M467.5 511l-259.7 4.6 19.8-68.4-2 20" />
    <path fill="#ffe4ae" d="M461.3 306.6l-5.7 57.7-9.2-21.3-8-82.4" />
    <path fill="#fb9e71" d="M605.7 390l127.7-50.5 10.5-.5-175 87.4" />
    <path fill="#ceceb4" d="M659.8 457.4l145-16.8-106.3 23 13.3-2" />
    <path fill="#2c898c" d="M720.4 502.2l56 13.6 187-13.5-86.7-23.3" />
    <path fill="#1e0000" d="M1037.2-21.5L579.6 327.2l263.3-158 195-74" />
    <path fill="#520c00" d="M360 391.4l109.6-14.2 166.7 2.8-29 10.6" />
    <path fill="#aa5938" d="M398.5 221l-126-113.7L129.3 5.5l280.2 261.2" />
    <path fill="#100000" d="M226 168L92 104.4l352.4 228L399 273" />
    <path fill="#9fbcad" d="M397 432l-118-2.3 172 30.5-65.5-55" />
    <path fill="#605642" d="M1055 192.8l-314.6 94.7 214-104 29.8-82.2" />
    <path fill="#77674b" d="M156.2 161.7l151 78.6-35-1.3-240-116.4" />
    <path fill="#00417e" d="M458 415l113.5 2 29-19-109.7-2.8" />
    <path fill="#a88278" d="M1008.2 589.7l-81.4 67L616.2 713l190-143" />
    <path fill="#5c1300" d="M692 452l335-41.3-45-132.4 16 102" />
    <path fill="#477271" d="M785.8 422.2l50-66.6-92.4 1-139.2 95.8" />
    <path fill="#00124d" d="M371.7 187.2L128.7-31h780l-252 212" />
    <path fill="#0b312d" d="M70.2 439.3l-101.2 75 99.8 40.2-26-59.7" />
    <path fill="#ffefdf" d="M119 584.6l-.8-79.2 11.6 49.4L-31 569" />
    <path fill="#ffd1a5" d="M589 265l-12.4 103.8-15-25 6-47.3" />
    <path fill="#6e5c4a" d="M747.3 239.3l-150.5 95.4 202-147.7L1055 92.4" />
    <path fill="#3e302b" d="M531 535l-238.6 42.5 264.3 27.8L630 574" />
    <path fill="#eb7b4b" d="M350.6 363.6l71.4 28 28.7 27.7-195.8-92" />
    <path fill="#fff" d="M911.6 556.3L904 545l11.5 33.8h126.8" />
    <path fill="#373e38" d="M1007.4 510l-89 45.2L1055 551l-40-138.2" />
    <path fill="#00256b" d="M698.4 127.4L559 292.4l-21.3 48-307-285.8" />
    <path fill="#200" d="M-2.5 110l242.2 76.3L-31-31v87" />
    <path fill="#51afb2" d="M197.5 384.5l56.3-2.4 58.8-9-34.4 29" />
    <path fill="#e29b77" d="M951.2 255l-57 24.4 160.8-19.7V214" />
    <path fill="#d28c6d" d="M1027 409l28 11-206.2 18.4 59.6-10" />
    <path fill="#c9a69e" d="M768.7 564.4l-113.3-8.7 135 22.5 97 2.8" />
    <path fill="#062f3a" d="M832.3 199l126-36-315.7 173 20-40.4" />
    <path fill="#7b2e0d" d="M484.7 575.8l-6.4-104.5 154-13-183.8-5.4" />
    <path fill="#d9e7e9" d="M807.5 473l-76 3.4-55 16.8 57.4 3" />
    <path fill="#ffca8a" d="M816.6 522.3l.7 46-18-8.6 6.3-39.6" />
    <path fill="#5f0e00" d="M1055 22.2l-270.4 154 75.6-141.8 90-65.4" />
    <path fill="#5d4942" d="M540 669.7l312-22-372.7 51.6-288.4-40" />
    <path fill="#395653" d="M207.4 272l17 11.2-13.3-65.8L-31 190" />
    <path fill="#b9dcca" d="M638.6 425.5L589 465l24-76-21 13" />
    <path fill="#003783" d="M472.3 223.2l29.4 229.5-9-53 110.6-178.2" />
    <path fill="#61a49b" d="M87.8 461l-11 66-30.5-95.7 1 77.2" />
    <path fill="#a65e4b" d="M988.2 147.2l6 60.4 10.5 254.7-17.5-125.8" />
    <path fill="#c19a5e" d="M43.5 525.6l171 41.7 16.3-109.7-16 56.5" />
    <path fill="#b1d5da" d="M705.7 319.7l5.3 11.5-73 31.6 65-40" />
    <path fill="#af935f" d="M669 520.6l-36.5-40-82 52.6-55.7-11" />
    <path fill="#280000" d="M864-10.2l-195.7 181-76.3 80.7L870.5 2" />
    <path fill="#a54119" d="M458.8 450l29-125-24.6-9-24.6 84.8" />
    <path fill="#414432" d="M898.7 521L811 507.6l-2-238.2 23.6 221.3" />
    <path fill="#362719" d="M817.5 347.2L683 371l265-88.3 107 16" />
    <path fill="#15342f" d="M897.7 456.4l157.3-26.6-173.5 6.8-200 32" />
    <path fill="#b8c4ba" d="M943 470l14.2-2-121.5-3.5-2.7 38" />
    <path fill="#6f1b00" d="M415 311.2l33.5 69.4-8.8-80.4L185 89.2" />
    <path fill="#681700" d="M-19.8 33l140 89 216.6 55-191-152" />
    <path fill="#aebbaf" d="M397.6 333.4l16 31L224 287l157.5 74.3" />
    <path fill="#142f31" d="M384.2 308.8L224.7 209l140.5 121.7 21 6.3" />
    <path fill="#561800" d="M202 301.4L319.8 331l-13.2-7.4 128 72.5" />
    <path fill="#6b554b" d="M405.7 546l18 84-144.2-14-92.8-25.4" />
    <path fill="#abdcde" d="M438.5 498.7l-60 3.7 17.3-18.2 43-1.3" />
    <path fill="#000100" d="M946.6 127.8L1054 60.5l-222.6 81.3-86 72.6" />
    <path fill="#8acac0" d="M232 525.8l10.2-53.2-20 8.3-6.2 28" />
    <path fill="#abcecf" d="M942 366l-81.6 1.4 72.4-24.5h-80" />
    <path fill="#9f9579" d="M6.3 349.6l139.4 14.2L32 385.6l-43.2 1.7" />
    <path fill="#c4a49c" d="M255.3 672l82 8.5L154 713l37.3-47.7" />
    <path fill="#4a0700" d="M967.7 247l-150 57.4-98.5 22 287-121.5" />
    <path fill="#243532" d="M283.5 466L259 511.4l-18.2 3.6-5.5-42.8" />
    <path fill="#d7a182" d="M649 462.4L782 442l273-34-285.5 40.6" />
    <path fill="#c08667" d="M526.6 521.6l-55.2-53.8 136 .7-85.6 17" />
    <path fill="#9eaaa0" d="M329 331l-163.3-62.5 7-59 3.8 49.7" />
    <path fill="#1c0000" d="M761 187.8l-180 145-3.2 38.6 12.5-23.7" />
    <path fill="#f5d6b6" d="M598.7 396l57.3-22-92.6 49.7 10.3 25.5" />
    <path fill="#434e3d" d="M271.7 336.5l107.8 122.2 25-68.2 40.3 51" />
    <path fill="#6c816b" d="M1014.2 433l-1.6 120-32.7-87-145 1" />
    <path fill="#65b3b2" d="M715 388.2l38 24.2 3-33-37-14" />
    <path fill="#974d2e" d="M542.6 308l53 77.8-52.6 83.7 18.5-62" />
    <path fill="#b9e4eb" d="M871.4 352l-43.8-5.8 8 14 39.3 7" />
    <path fill="#6c4c21" d="M239.5 547l158-20.5-36.3 28.2-157.8 14.8" />
    <path fill="#977e79" d="M-31 590.6l306.7-28.2-119 150.6 31-16.8" />
    <path fill="#ffbf88" d="M482.3 396l-43.2-3.4 156-.3-18 4" />
    <path fill="#4b7d7b" d="M625.8 487.2l66.3-5-2 37-64-15.7" />
    <path fill="#bab4a0" d="M963 360l92-23-.4 46.2-70.7-.6" />
    <path fill="#bb4a2a" d="M911 283l-161.6 64L636 384.3l174-77" />
    <path fill="#84b9b1" d="M271.7 519.7l-2.2-42.6 41.5 13-22.4 29" />
    <path fill="#d0aa97" d="M824.6 661.2L698 677.7l-68 3.4 134 32" />
    <path fill="#4f3725" d="M56 411l222.6-72.5L48.6 462l53.2 4" />
    <path fill="#585037" d="M244.7 196.7L86.2 171.3-31 201.6l46.2-85.8" />
    <path fill="#140000" d="M304.6 122.7L144.3-16.7l12.2 30.2L358.2 175" />
    <path fill="#8b9482" d="M368 424.7l-200.8-14.2L274 428.3l213 27.3" />
    <path fill="#fff" d="M918 466.3l14.6 13.7-43.7-3 12-11.8" />
    <path fill="#281204" d="M-31 441.5l62.8-51-59.8 33 195.2 19" />
    <path fill="#3f574d" d="M755.4 453.4l10.2 23.3-1.6 60.6-8.2-70.4" />
    <path fill="#101215" d="M545.3 513.8L579 510l20-21.6-69.8-7" />
    <path fill="#29201f" d="M963.7 389.5l5.7 96.3 2.5 53 6 3.7" />
    <path fill="#893414" d="M558.6 430l-32-4.8-121 8.8 159.4 3.2" />
    <path fill="#521600" d="M952 357.2l33 60.2L688.7 439l297.8-48" />
    <path fill="#2f251e" d="M435 479.4l80.5 36.7-17-40-53 39" />
    <path fill="#c9a179" d="M891 528.4l15.2 91.2 3.3-104.4-26.8-22.4" />
    <path fill="#000400" d="M54.7 113.6l-7.6 8.7 242 89.4-171-98" />
    <path fill="#2c271c" d="M401.2 485l-1.3-15.2-90-13.6 34 40.8" />
    <path fill="#c0c4bb" d="M53 443l-9.3 21.5L4.5 442l-35.5 3" />
    <path fill="#426063" d="M722.3 303.4l-61 4.7 122.4-66 183.5-20" />
    <path fill="#ca6b4e" d="M-31 224l74 57.2 4.8-138-11 100.8" />
    <path fill="#54371f" d="M-19.2 559l-11.8-7.8 145-5.4-6.5 10.3" />
    <path fill="#d77362" d="M989.7 248.4l3-15 .5-58-7-48.2" />
    <path fill="#a0b07c" d="M182.8 373l-3-17-76.6 10.6 27.5-10.3" />
    <path fill="#645f5a" d="M-31 608l189.3 79.6-176.2-22 46-242.3" />
    <path fill="#d9c78c" d="M544 523.5l-81.3 17.3 26.3-21.5 71.2 2" />
    <path fill="#71594b" d="M923 626l-75 29.2-176.8 25.2 243.5-60" />
    <path fill="#19241d" d="M208.5 245.3l2.3 58.5 18.5-91.5L56 151.5" />
    <path fill="#d06143" d="M34 443.4L36 252l3 22.2 5-.4" />
    <path fill="#5b2c0b" d="M893.2 570.4l2.3 9-82.7-11 25.5-7.8" />
    <path fill="#004276" d="M548.2 422L502 432l-20-33.5 87.3-.5" />
    <path fill="#0e1711" d="M52.2 512l-30.4-68-2.8 81 21.3-12.8" />
    <path fill="#018ba4" d="M755.7 498l32.5 15.6 32.2 2.2-16.7-23.4" />
    <path fill="#692009" d="M17.8 414.6l314 29L34 391.3-31 377" />
    <path fill="#d7e2e1" d="M814 457.6l-76.7 37.8-55.6-14.4 117.8 2.5" />
    <path fill="#45c3e7" d="M234 376l-4.5 22.4 26.6-4.2-26-24" />
    <path fill="#3f2f24" d="M878.6 399.8L870 293.4 845.2 324l36.2 15.4" />
    <path fill="#a15241" d="M985.7 187.8l-4.6-131 9 41 2 100" />
    <path fill="#35332b" d="M886.4 446l-2.6 58.7-14.6-63-107.5 9" />
    <path fill="#86a9a8" d="M776.4 299.5L779 273l-62.6 50.2 71-25.3" />
    <path fill="#cd9276" d="M571 487.3l54.6-19-141-.2 74 12" />
    <path fill="#b3bfb8" d="M389 453.7l112.3 1.8-88.6-7-14.4-40.6" />
    <path fill="#a3cbc7" d="M948.4 469.6v19.6l66 18-79.3-5" />
    <path fill="#40341f" d="M66.2 359.8l124.5-41.5-121.2-27-4 170.3" />
    <path fill="#515c51" d="M302.5 266l-6 6.8-10 33.6 121 60" />
    <path fill="#c8d3bc" d="M387.6 517.2L380 488l31.7 22.8L296 516" />
    <path fill="#283f36" d="M713.4 419.5l3.5 49v35.8l5 .3" />
    <path fill="#825617" d="M693 554.7L524 503l31.8 1-30 44.6" />
    <path fill="#a75843" d="M42 226l.4-135.8 2 16L55 59.5" />
    <path fill="#262a1f" d="M336 362.7l-151.8-26L379.5 394l-100.8 16.4" />
    <path fill="#574c3e" d="M778 430.3l-8.6-39.2L882 410l-39-22" />
    <path fill="#572000" d="M577 391.4l-219.6-11.7 264.3 7.4L772 313" />
    <path fill="#96432e" d="M675.8 174L817.4 48l-82.8 123.4L588.8 297" />
    <path fill="#00134d" d="M889.5-31H119.8L246.5 72.3 659.8 180" />
    <path fill="#edaf80" d="M437.8 467.4l-35 .5 75.3 20-27-11" />
    <path fill="#9d6730" d="M188.7 524.7l-.8 47-68 7.4 19-39" />
    <path fill="#722405" d="M930.8-31L889 74.4l-184 149-127.4 105.8" />
    <path fill="#131011" d="M688 285.7l217.7-117-97 38.4-127.3 79" />
    <path fill="#282c24" d="M1007.8 457l24-55.7-16.2 133 6.7 16.2" />
    <path fill="#000300" d="M653 286l30.3-45.6 169.4-79.7L750 222.3" />
    <path fill="#6f2609" d="M391.3 460l250.4-5-23.3 10.4-134.8 3.5" />
    <path fill="#90c0b4" d="M292 388.6l-14.4 22.2L276 371l6-3.8" />
    <path fill="#abbcb2" d="M637.6 425.8L637 396l-30.5 60-49-1.4" />
    <path fill="#4b4334" d="M227.8 439.7l-58-129.2 96.3 138 11-110.2" />
    <path fill="#282a21" d="M100 469l116.3-7.4 1.7 55-139-10.2" />
    <path fill="#d4a980" d="M128.3 616l-2.6-84.8 14.6-18H111" />
    <path fill="#e3a37c" d="M447.7 419.2L358 367.8l69 27.2 30.6 65.7" />
    <path fill="#cf7a56" d="M297 134.5l175.4 170.3 1.2 29-35-71.6" />
    <path fill="#eff0f1" d="M995 584.6l-10.5-19 8-5.2-82 6.8" />
    <path fill="#bd7055" d="M747.4 269l-.3 120.7 2 55 6-57" />
    <path fill="#573f21" d="M729 560.7l65.8 5.2 6.7-30-29.5-11" />
    <path fill="#587d70" d="M791.5 483l65-1 95.6-4.3-41 41.5" />
    <path fill="#171b12" d="M864.8 514.8l19-17.4-47 16.4 7 3" />
    <path fill="#9c9c8f" d="M639.4 627.7l171-25.8-49.8 18-55.8 6" />
    <path fill="#af9e8f" d="M996.2 207l22.5-7-10.2-12-4.6 5.2" />
    <path fill="#89553e" d="M986.7 341l30 16.8L989 271l15 172.6" />
    <path fill="#003881" d="M458.3 254l36 105 44.3 10.8-9-125.2" />
    <path d="M345.5 264.4l79.3 65-76-81.5-150.6-76" />
    <path fill="#b15640" d="M756 114.6l121.4-95L912.6-18l10-13" />
    <path fill="#0f0001" d="M328 150l129.7 126.5-46.4-55-61.6-60" />
    <path fill="#5d443f" d="M963.6 645l-94.2 23 1.2 27.6-40.3 17.4" />
    <path fill="#91bfc0" d="M82.2 484L73 503.3 63 463l19.7 4.4" />
    <path fill="#292b22" d="M115.3 513l-31-46.6 178 14.7L69 477" />
    <path fill="#d7deda" d="M748.4 478.6l9.7 33-29 8.6 6-.8" />
    <path fill="#7a8869" d="M199.8 451.6l-12-3.7-52.2 25-79.4-35" />
    <path fill="#ae887f" d="M943 660l39-52-17 63-151 42" />
    <path fill="#61483d" d="M976.7 121.3l-63 17.7-147.2 76.2 200-67.8" />
    <path fill="#6a4834" d="M687.3 469.6l-60.5-25-6.5-66.7 2.3 96" />
    <path d="M40.7 125.8L-31 99.2l7.2-27L45 88" />
    <path fill="#a5807b" d="M860 89.8l18.4-9.8-2.5.7-13 19" />
    <path fill="#ad632a" d="M895.2 518.7l-.6 48L825 564l-15-47.3" />
    <path fill="#ffd9ae" d="M445 332l-4.4-33.2 18.6-7.4-6.7 55" />
    <path fill="#2f4b49" d="M787.3 413l9.6-68.4-85 29 30-24" />
    <path fill="#63584c" d="M136 654l86 13-137.6-35.5 3.5-16" />
    <path fill="#f7be69" d="M617 503.5l-19-6-1.4 17 25.2-1" />
    <path fill="#707662" d="M933.8 365l-49 8.5 37.8 40.6-5.3-5" />
    <path fill="#141413" d="M797 213.2l133-18.4 54.8-21.4-44.4-20" />
    <path fill="#efbba0" d="M-31 374.7l67.5 4-3 31.4-2-34" />
    <path fill="#fedcbc" d="M577 305.7l-9.2-12 5.5 65.6 7.2-19.3" />
    <path fill="#575346" d="M892.5 378l67 .2 7-75.7 1.2 78.8" />
    <path fill="#1b251a" d="M157 374l44.2-11.7 19-37-1 58.3" />
    <path fill="#402b27" d="M529 581.8l-219-11.6 234.7-15 35 24.8" />
    <path fill="#3f4034" d="M392.7 417.4l-31.3 96.2-41-5.5 72.5-40" />
    <path fill="#9ca692" d="M962 486.6l59.5-49L947 454l48.4 4" />
    <path fill="#3d0000" d="M-31 59.3l290.2 122.3L59.5 36.3 23.3-31" />
    <path fill="#2f302a" d="M685.6 417l13-8-44-19 68.2-28.4" />
    <path fill="#8b7863" d="M181 237.8l113.4 61.8-294.6-143L73.2 198" />
    <path fill="#252e28" d="M127.8 488.4l-10-41.4-13 31.3-101-1.6" />
    <path fill="#dde0d4" d="M797.5 462.4l-75.6 7 36 1.7 52-3" />
    <path fill="#322e2a" d="M846.4 244.2l-70 32 6 23.7-3 12" />
    <path fill="#0d1d22" d="M246.6 224.3L348.2 291l-98.5-48-91.4-55" />
    <path fill="#b75e3c" d="M281.3 382.2l4.6-90.6 2-23.6-4-96" />
    <path fill="#bc9693" d="M801.5 575.7l187 6.2 51.5 6-14.6 12" />
    <path fill="#484b40" d="M233 225l-11-51-28-5.7L271 281" />
    <path fill="#7b7067" d="M948.3 27l11-7.3 11.4 1-9 10.6" />
    <path fill="#2e413d" d="M437.2 507.7l-24.7-10L410 510h21.3" />
    <path fill="#9d4028" d="M573.8 370.8l80-157.4-64 83.7-7 33" />
    <path fill="#2c3026" d="M67.4 510l-2.2-81.5-17.2 45 8.2-43.5" />
    <path fill="#a94829" d="M334.7 372l-24.4-12.8 97.5 22.7-182.5-64" />
    <path fill="#ae4c23" d="M555.6 295.8l10.6 76.2-29.4-16.4 7.4-30" />
    <path fill="#200601" d="M994.3 156l-1 62.6L986 27.3l69 14.4" />
    <path fill="#c7a595" d="M613 660.5l-67.7.4 39.5-9 225.6-7" />
    <path fill="#347e7c" d="M60.2 480.8l-2 53.4-13-30.7 1.4-36.6" />
    <path fill="#526f66" d="M758.4 453l-74 6.3 83.7 9-8 40.7" />
    <path fill="#bbd7d2" d="M701.3 505l-6.3-19-7-16 21 1.6" />
    <path fill="#993f22" d="M838 315.4l217-45.7-135.5 10-198.3 73.7" />
    <path fill="#606963" d="M898.3 250l-69 22.6 77.4-62-69.2 22.3" />
    <path fill="#ae9f86" d="M1006.2 499.8l-1.8 54 10.2 7-4-64" />
    <path fill="#aa8e69" d="M922.6 520l44.3 32.5 3-26.8h-5" />
    <path fill="#634f48" d="M621.4 616.4l-155-3 177-58.6L805.8 595" />
    <path fill="#92beb1" d="M636.4 363.7l-6 4.8 7.7-26-14-6" />
    <path fill="#5b2001" d="M52.7 222.2l282.2 119-211-67L33 242" />
    <path fill="#407675" d="M241.6 392.5l6.2-33.8-25.2-8-2 10" />
    <path fill="#d4dcdf" d="M971 362.4l-5.4 12.2 26-9.4-5-19.8" />
    <path fill="#151c24" d="M451 515.5l-12.5-37.2 26 27-10 8" />
    <path fill="#6d2404" d="M232 90l84 126L161.6 97 42.6-31" />
    <path fill="#434036" d="M417 439l-8.4-24.2 26.5 5.8-14 28.6" />
    <path fill="#29251c" d="M996.5 431l-38.3 19.7-169.3 5L918 434" />
    <path fill="#f2dbb7" d="M639.8 379.2l2.5 2.7-58.5 38-12.4-3" />
    <path fill="#f2f2ef" d="M124.2 555.3L-31 578l68.4-1.2 63-5" />
    <path fill="#433f34" d="M1055 460.4l-38.4 38.2 38.4-44.4-181.3 11.3" />
    <path fill="#bdc6b0" d="M2.5 372.2l-33.5-27 50.2 46.2 14.6-13.2" />
    <path fill="#1f0000" d="M440 328.4l-8 13-28-31.4-7-18.5" />
    <path fill="#b8c2c6" d="M955 356l-30 12.4 10.6 7.6 24-12.4" />
    <path fill="#c59c6f" d="M220.6 503l-23 59.6L139 531l75.7 53" />
    <path fill="#feb986" d="M455.2 398l40.2-4.4-87-.7 48.8 6" />
    <path fill="#b3b88f" d="M70.8 448.6l-17-4.7 30.4-1 45.4 4" />
    <path fill="#0d1116" d="M571.8 512.7l-93 3.3-3.6-6 77-.4" />
    <path fill="#675651" d="M880.7 155.2l-121.4 81.2 1.4-13 80.5-53.2" />
    <path fill="#5c2304" d="M411 385.6l250.5-8.7-108.2 14-97-1" />
    <path fill="#d5e3da" d="M960.6 460.8l-22.3 32 6.7-24.5 22.8 23.2" />
    <path fill="#1f0e00" d="M597 253.3l-48.6 48.2 68.3-78.7 104.8-101.3" />
    <path fill="#678881" d="M394.6 423.3l-74-18.6 35.3-3 29 20.3" />
    <path fill="#9ab9af" d="M394.2 335.6l17 40.6 10 3.2-27.8-12" />
    <path fill="#d6d9c2" d="M603.3 442.3l1-54.8L598 456l26.7-5" />
    <path fill="#91684b" d="M642.4 385l-81.8 78.5 3.3 44.7 19-88" />
    <path fill="#8f6d5d" d="M829.3 626.4L945 584.7 656.2 645l141.2-7.7" />
    <path fill="#ddb497" d="M632.6 467.5H517.2l86.4 1.4L842 435" />
    <path fill="#b39082" d="M769 671.8l98 1.6 90.7-45 9.6-2" />
    <path fill="#eef0f3" d="M898.4 365.6l21-4.7-30.4-5 13 17" />
    <path fill="#9a8e59" d="M827.2 459.8l-2.7-9.2-2.2 37.7 7.8 84" />
    <path fill="#966733" d="M456.3 460.5l31.5 93.3-103.7-31 81-11.6" />
    <path fill="#877c7d" d="M76.5 30.8l4.8 4.2-15.6-1.4 12.5 12.2" />
    <path fill="#a85536" d="M103.4 434l155.3 12.3L112.3 425-31 409.3" />
    <path fill="#43625d" d="M897.2 501.4l-8.5-25 75.4 19-26-4" />
    <path fill="#2f2d26" d="M642 465l70.5-3.2-67.3 29.6 6.7 16" />
    <path fill="#715351" d="M1000.2 601.2L988.5 713h58l6.8-97.4" />
    <path fill="#baa197" d="M206.2 578.4l157.8-23-98.6 8-36 3" />
    <path fill="#4d655d" d="M953.8 350.3l-85.8 11 85-17.2h26.8" />
    <path fill="#988b67" d="M167.4 399.5l8.6-15 21.2 35L239 410" />
    <path fill="#306f70" d="M8 452.7l-33.5 75 18-8.5 30-10.2" />
    <path fill="#1c322d" d="M91.8 171.6L53.3 183l108.3 47.7 25.8-1.8" />
    <path fill="#9eada1" d="M233.2 295.2l-6.6-19.2 6-17.4L256 305" />
    <path fill="#b7644b" d="M682.7 172.6l-95.2 93.2 88.5-76.6L853.3 33" />
    <path fill="#59848a" d="M765 243.7l-3.5 58.6 21-41.6 19 2" />
    <path fill="#4c6c69" d="M152.6 252.5l12 10.5-56.2-16.6L60 220" />
    <path fill="#d7d1a9" d="M537.5 533.4l-19-16.3-36.2 14 63.2-16" />
  </g>
</svg>