<svg version="1.1" viewBox="0 0 1024 682" width="1024" height="682" xmlns="http://www.w3.org/2000/svg">
  <g fill-opacity=".5">
    <path fill="#2d4541" d="M895 508l5-14 21-2-25-11" />
    <path fill="#90b3a4" d="M884 511l5-45 4 18v32" />
    <path fill="#ae9a8e" d="M313 561l-101 7-17 28 3-14" />
    <path d="M232 178l-9 13 50 28 11-15" />
    <path fill="#8e8668" d="M224 419l-89-32 61 9 6 22" />
    <path fill="#dadfdd" d="M872 478l7-12-33 12-10-10" />
    <path fill="#73775e" d="M264 367l-10 10 31 21-23-6" />
    <path fill="#8d7266" d="M250 628l-70-12-62 13 3-44" />
    <path fill="#22221b" d="M115 481l66 10-122 2 72-7" />
    <path fill="#4b5354" d="M665 345l4-45-26 26 58-9" />
    <path fill="#dbdbc0" d="M100 462l9-9-2-7 5 14" />
    <path fill="#aa5a3a" d="M233 442l160 22-244-28 110 6" />
    <path fill="#b6c0ae" d="M167 448l3 8 6-5-1-3" />
    <path fill="#c27455" d="M666 189l-60 68-38 30 139-128" />
    <path fill="#5c524a" d="M207 180l-50-11 21 23 26-24" />
    <path fill="#a16b4b" d="M582 436l17-2-7-13v-21" />
    <path fill="#0f6687" d="M260 396l-24-16-4-8 11 3" />
    <path fill="#343837" d="M427 352l-15-3-2 4 12 33" />
    <path fill="#eae9bf" d="M519 525l6-6 15 8 2 1" />
    <path fill="#91796c" d="M20 646l12-39 9 46 37 60" />
    <path fill="#5f554a" d="M754 414l55 6 1-72v42" />
    <path fill="#4e1600" d="M598 252l14-22 100-93 16-13" />
    <path fill="#5f675b" d="M690 481l-101 7 90-9 92-9" />
    <path d="M821 164l154-69 9 17-5 5" />
    <path fill="#00246b" d="M636 206l-177-21-154-68 136 137" />
    <path fill="#b5694a" d="M646 467l-63 5 78-14 41-2" />
    <path fill="#373329" d="M416 426l4 11 14-1-15-20" />
    <path fill="#3c4f4c" d="M54 196l64 1-47-19 21 51" />
    <path fill="#392d21" d="M119 443l-10-6 12 16-5-27" />
    <path fill="#485c58" d="M781 498l78-7-141 6h88" />
    <path fill="#290000" d="M40 95l5 20-1-90-75 38" />
    <path fill="#897c64" d="M1020 531l-136-1 171-3-35 24" />
    <path fill="#b89587" d="M112 585l2-11 38 20 45-23" />
    <path fill="#978977" d="M164 377l84 24-31-9 59 9" />
    <path fill="#521900" d="M882-16l-38 39 112-54-1 88" />
    <path fill="#87816e" d="M156 358l-2 32-1 18-5 1" />
    <path fill="#284844" d="M804 341l-31 15 52-8-13 31" />
    <path fill="#7f6f63" d="M165 649l141 10-26 13-64-3" />
    <path fill="#a78357" d="M525 504l25 9-48-22 19-23" />
    <path fill="#af9085" d="M961 651l2-36 12 14-48 46" />
    <path fill="#dab996" d="M439 407l5 6 9 39-14-39" />
    <path fill="#3e3f31" d="M187 368l48 5-58 9 6-30" />
    <path fill="#7c826d" d="M190 263l-35-8 52-10-7-8" />
    <path fill="#011023" d="M825 204l31-17 94-13-107 41" />
    <path fill="#4e453d" d="M227 251l-10-83 9 11 1 69" />
    <path d="M786 176l-41 29 11 6 53-23" />
    <path fill="#af5c3a" d="M564 297l-24 57v-24l27-34" />
    <path fill="#1b0000" d="M757 91L629 209l92-78L837 26" />
    <path fill="#463128" d="M564 548l-25 51-88-36 193-12" />
    <path fill="#cce2e1" d="M409 475l17 24-1-14-12 13" />
    <path fill="#694737" d="M985 406l56-35-67 2 81-9" />
    <path fill="#588477" d="M766 457l-12 35-4-8 2-8" />
    <path fill="#4d4b44" d="M219 297l-6-25-63-40 75 34" />
    <path fill="#836b4f" d="M936 532l-15-22-9 32 97 8" />
    <path fill="#bfc5ae" d="M114 367l2-1 22-2-17-3" />
    <path fill="#251f13" d="M161 326l128 36-225-44 34 4" />
    <path fill="#5e7263" d="M955 494l4-1 6-2-81-4" />
    <path fill="#346262" d="M313 516l-7-9 81-24 10 4" />
    <path fill="#cadbcc" d="M720 453l-10 2 34-5 11-5" />
    <path fill="#aa4a34" d="M746 252l1-35 4 137-1-29" />
    <path fill="#878976" d="M1027 427l21 59-17 29-9-48" />
    <path fill="#4c5351" d="M808 263l-2-71-3 97 64-30" />
    <path fill="#d4795b" d="M180 298l13 10h14l15 4" />
    <path fill="#538f8a" d="M60 475l5-19-13 26 1 47" />
    <path d="M-31 80l33 32 30 7 7-26" />
    <path fill="#74d2db" d="M288 372l-5 20-1-7 8 10" />
    <path fill="#7d694f" d="M115 526l1 26-21-21 16-14" />
    <path fill="#703924" d="M587 357l3-57 3 62 74-70" />
    <path fill="#002534" d="M469 414l-3-19 11 17-10 3" />
    <path fill="#947260" d="M455 626l-81-17 35 1 132 11" />
    <path fill="#445c57" d="M418 476v20l1 11 4 6" />
    <path fill="#934f34" d="M288 358v-11l-9 28 5-58" />
    <path fill="#57bcbf" d="M743 377l3-3 2 31-17-25" />
    <path fill="#8f8474" d="M707 309l-119 66 43-23-3-5" />
    <path fill="#e0a67f" d="M449 476l-7 6 26 4-6-1" />
    <path fill="#984226" d="M736 342l97-21 70-27-24-3" />
    <path fill="#2f2e2d" d="M692 298l-47 10 114-74-102 86" />
    <path fill="#d9a573" d="M206 555l11 16-1-54-11 19" />
    <path fill="#ac9889" d="M1026 198l-11-3-11-2 1 10" />
    <path fill="#43605b" d="M218 481l27 2-1 16-27-48" />
    <path fill="#232428" d="M1000 194l55-23-64 2 1 22" />
    <path fill="#ba6659" d="M993 246L983 87l4 23 3 24" />
    <path fill="#63725d" d="M619 467l3-56 14-17-10 20" />
    <path fill="#544842" d="M190 713l-62-38 35 5 33 4" />
    <path fill="#411300" d="M993 214l62-34-50 54-11-55" />
    <path fill="#d2e1bf" d="M1016 334l-3-3v-19l5-2" />
    <path fill="#4b534a" d="M893 487l38 5-61 1 55-7" />
    <path fill="#7a6e63" d="M458 373l8 9-38-4-32-25" />
    <path fill="#5b4641" d="M868 160l-89 58 177-74-37-5" />
    <path fill="#64412d" d="M669 434l2 25 67-14-32-1" />
    <path fill="#65938c" d="M635 349l-22-6 20-8 2 14" />
    <path fill="#c3dadc" d="M945 504l3-39-14 5 11 1" />
    <path fill="#6b6d62" d="M27 455l-14 25-44 7 76-26" />
    <path fill="#6a584b" d="M202 665l-62-12 38 1 31-4" />
    <path fill="#e2f2f8" d="M621 433l-12-12 10-4-1 13" />
    <path fill="#4d3532" d="M978 25l6 117-73 9 74-37" />
    <path fill="#6f8166" d="M195 444l-4 1-15 19 25-2" />
    <path fill="#826b5b" d="M629 673l52-11 135-11-142 26" />
    <path fill="#79716d" d="M227 399l77 16-92-13 8-10" />
    <path fill="#b48345" d="M205 517l-15 53-39-23 7-23" />
    <path fill="#5c6e5a" d="M944 443l14 82-7-62-3-1" />
    <path fill="#adc7c2" d="M626 410l-7 6 17-12 1 48" />
    <path fill="#88564f" d="M867 85l3 21-10-9-11 21" />
    <path fill="#284750" d="M695 315l-9-24-49 54 27-20" />
    <path fill="#3f5750" d="M717 404l23 3-48-18 29-25" />
    <path fill="#6c564c" d="M1055 596l-94 117 11-36 83 13" />
    <path fill="#62dfdc" d="M300 378l-2 9-5-13v-2" />
    <path fill="#a88d84" d="M396 556l-57 5-12-1 26-3" />
    <path fill="#d59368" d="M446 276l27 33-40-31 14 60" />
    <path fill="#80877f" d="M738 432l19-10-37 4-2 9" />
    <path fill="#dca478" d="M409 388l30 19-47-18 3-6" />
    <path fill="#202427" d="M554 511l30 3-9-4-44 9" />
    <path fill="#c0a9a5" d="M982 552l67 2-132 11 90-7" />
    <path fill="#4c3224" d="M983 554l-5 4-2-23-16 24" />
    <path fill="#a7af8e" d="M853 368l27 41-10-35-5-8" />
    <path fill="#46392c" d="M60 506l2-40-4-62 9 92" />
    <path fill="#39241a" d="M173 321l-70-18 119 24 101 36" />
    <path fill="#513b22" d="M363 544l6-18-13 8-8 5" />
    <path fill="#001853" d="M840 16L670 53 479 95l139 68" />
    <path fill="#cddacd" d="M971 503l-16-40-5-8 14 40" />
    <path fill="#d0dae9" d="M15 202l-33 2-8 25-5-31" />
    <path fill="#9e4933" d="M819 52l79-55-76 68-36 29" />
    <path fill="#157a7e" d="M76 499l-13 6 4 2 3 8" />
    <path fill="#b4b2a3" d="M444 436l13 18-58-7 22 1" />
    <path fill="#866231" d="M260 554l-40-2-2-34 156 32" />
    <path fill="#978880" d="M301 255l16 8-3-9-10-5" />
    <path fill="#ccaeb1" d="M794 139h-1l10 5-1-7" />
    <path fill="#81592e" d="M546 517l2-31 4 68-9-33" />
    <path fill="#481200" d="M991 414l-64-2 44-24h23" />
    <path fill="#785447" d="M58 218l-4 12v-22l4-38" />
    <path fill="#141a14" d="M44 509v10l-17-7 18-51" />
    <path fill="#1d1924" d="M469 290l19 41-39-66 19 27" />
    <path fill="#323424" d="M375 382l-56 28 38 9-42-24" />
    <path fill="#462517" d="M861 432l46-38-8 27-3-31" />
    <path fill="#31251f" d="M40 275l14-96 7-80v59" />
    <path fill="#765c4f" d="M831 658l99-42-90 27-81 12" />
    <path fill="#ecc87b" d="M600 518l-1-16 7-2 7 4" />
    <path fill="#60756e" d="M267 455l37 6-26 3-5-6" />
    <path fill="#605944" d="M46 347l21 8-5 19 30-25" />
    <path fill="#8b4024" d="M557 481l91-34-108 35-15-5" />
    <path fill="#586c60" d="M892 371l-58-61 53 56-1-66" />
    <path fill="#8ea090" d="M302 424l82 18-8-7 2 13" />
    <path fill="#d3c5aa" d="M742 449l61-10 16 1-34 6" />
    <path fill="#00457d" d="M556 398l-51-2-21 14 80 6" />
    <path fill="#80afb0" d="M647 503l19-2-8 12-31-11" />
    <path fill="#665746" d="M857 389l43-5-50 10-57 38" />
    <path fill="#564f43" d="M777 380l19-1-13 27-30 25" />
    <path fill="#a28d6f" d="M124 374l-16-11-71-8 108 17" />
    <path fill="#6d594f" d="M710 264l-109 75 20-24 65-47" />
    <path fill="#96826b" d="M722 408l115-27-47 13-175 43" />
    <path fill="#4a2e1b" d="M884 576l11 3-77-10 7-4" />
    <path fill="#967060" d="M483 661l81-15h-99l19-12" />
    <path fill="#5d4731" d="M825 560l-8-28-5-92-1 65" />
    <path fill="#818460" d="M117 336l14 16h-11l-6-7" />
    <path fill="#734f40" d="M989 201l3 79-22 35 18-2" />
    <path fill="#775c5a" d="M68 30l13 8v6l-11 1" />
    <path fill="#b27343" d="M841 540l47-21-5-3-59 2" />
    <path fill="#f0f1ed" d="M909 561l6 15 72-9-32-5" />
    <path fill="#917a6e" d="M953 560l22-1-53-6-9 5" />
    <path fill="#632d1c" d="M576 412l23-16-22 9-20 36" />
    <path fill="#9bbba1" d="M960 318l23 24 7-17-55 3" />
    <path fill="#6e2e15" d="M193 414l28 26-195-25 62-15" />
    <path fill="#8c7a65" d="M442 386l-10-17-273-138 235 114" />
    <path fill="#7a9068" d="M820 387l-1-36 15-10-1 29" />
    <path fill="#8d622e" d="M482 540v-19l-138 9 134 21" />
    <path fill="#7dadaf" d="M633 485l83 7-35-6-22 5" />
    <path fill="#422924" d="M407 332l-82-56-43-27 42 18" />
    <path fill="#282012" d="M339 469l-86-5 70-2 49 5" />
    <path fill="#7a7b6d" d="M155 263l72 23-59-22-13-23" />
    <path fill="#93a080" d="M954 450l-62 9-8 2 83-2" />
    <path fill="#635144" d="M463 582l15 32-224-25 136 4" />
    <path fill="#7dae9c" d="M966 331l-70 6 4-6 34 19" />
    <path fill="#3f0700" d="M415 232L297 127 110-31l241 197" />
    <path fill="#86716a" d="M967 10l-10 18v6l4 1" />
    <path fill="#aab0a3" d="M281 307l107 51-119-48-35-20" />
    <path fill="#eae9e9" d="M897 474l-2 8 36-18-4 15" />
    <path fill="#bba293" d="M272 677l95 5h10l-9 27" />
    <path fill="#bc785f" d="M287 295l-5-23 3-30-5 159" />
    <path fill="#160d07" d="M494 513l4 2 7-23-17 17" />
    <path fill="#b8bdb3" d="M952 519l24-37-32 51-3-10" />
    <path fill="#52413a" d="M45 126l80 24-56 10-23-32" />
    <path fill="#5d361c" d="M420 340l3 24 15-3" />
    <path fill="#907a6b" d="M479 429l25-4-28-8-11 8" />
    <path fill="#4b4e4b" d="M935 493l9-4 30 2 47-2" />
    <path fill="#29211b" d="M893 321l-115 17 73-26-77 43" />
    <path fill="#494834" d="M145 371l59-4-47-42 65 64" />
    <path fill="#8f7160" d="M671 651l44-22-95 3 215-10" />
    <path fill="#bcd6dd" d="M696 515l3-39 5 31h2" />
    <path fill="#425255" d="M31 517L6 534l-37-16 82 12" />
    <path fill="#aabeb0" d="M837 502l-5 4 7-41-3-8" />
    <path fill="#733b29" d="M53 87l-7 145 1-114 1-72" />
    <path fill="#1e0c0a" d="M553 302l39-52 34-34-27 32" />
    <path fill="#4a4a42" d="M966 460l7 49-2-81 1 5" />
    <path fill="#924021" d="M455 425v19l-16-44 18-4" />
    <path fill="#2f2e28" d="M832 448l-69 2v41l-7-38" />
    <path fill="#aa9283" d="M646 556l70 6 55 8-106-10" />
    <path fill="#826d5e" d="M346 274l52 45-39-30-34-19" />
    <path fill="#8f7965" d="M891 369l88-18-110 21-55 19" />
    <path fill="#3f5258" d="M831 232l40-11-45 28 12-37" />
    <path fill="#081219" d="M274 245l-125-61 126 55-1 33" />
    <path fill="#655f4e" d="M967 378l-5-19-10 18-83 11" />
    <path fill="#688178" d="M316 289l11 36v-16l10 1" />
    <path fill="#d1e6ed" d="M967 476l-8 33 5-7h4" />
    <path fill="#310000" d="M979 71V54l-127 79 112-36" />
    <path fill="#6e766d" d="M694 326l57-38-50 20 30 17" />
    <path fill="#e3f0f4" d="M765 480l-1-6 40 3-38 5" />
    <path fill="#535247" d="M361 330l-15-23 5-22-6 61" />
    <path fill="#826144" d="M515 494l-20-7v-31l14 59" />
    <path fill="#e3eef2" d="M879 367l32-11v9l-22 2" />
    <path fill="#444c45" d="M127 492l-135-4-23 5h42" />
    <path fill="#f7fce6" d="M4 444l-35 63v-75 6" />
    <path fill="#8c7061" d="M693 558l-84-5 32 8 19 3" />
    <path fill="#42361d" d="M823 431v82l-2-4-3 32" />
    <path fill="#1d403b" d="M287 360l61 25-36-10h-29" />
    <path fill="#313a2d" d="M629 486l60-17-8 9 14 5" />
    <path fill="#58635a" d="M964 490l-114 4-204 4 282-9" />
    <path fill="#1f4244" d="M407 502l15 10 8-11-3 1" />
    <path fill="#34565b" d="M688 293l52-30-30 55 27-13" />
    <path fill="#a07b68" d="M577 611l56 10-70-1-18-1" />
    <path fill="#bb7960" d="M644 413l-2-1v39l3-4" />
    <path fill="#6b4e36" d="M202 571l-18-6-45 15-11-5" />
    <path fill="#4e2108" d="M714 347l33-16-2-13-102 47" />
    <path fill="#31211b" d="M1006 430l-171 21h-41l18-7" />
    <path fill="#738228" d="M496 541l-17-5 27-1 36 4" />
    <path fill="#474642" d="M476 418l70-3-11 18-55-15" />
    <path fill="#6c674c" d="M84 362l30 23-56 4 43 10" />
    <path fill="#552916" d="M420 392l-149-74 58 19 65 29" />
    <path fill="#a7ae95" d="M332 331l80 46 17 5-70-37" />
    <path fill="#6b5850" d="M469 629l77-9 66 5-82 3" />
    <path fill="#5c3a28" d="M378 385l-19 12 44 11-152-75" />
    <path fill="#5c4c45" d="M869 207l2 7 4 40-1-83" />
    <path fill="#93683d" d="M565 531l1-36 2 18-6 22" />
    <path fill="#470e01" d="M1043 377l-43 10 12 25 43-9" />
    <path fill="#555138" d="M130 382l-24 31 73-74 16 1" />
    <path fill="#087c8c" d="M792 496l-28-2 23 21 7-16" />
    <path fill="#334d09" d="M490 539l-9 1 5 9 58-4" />
    <path fill="#bfc3bf" d="M970 353l13 11 6 4-17 16" />
    <path fill="#a2b9a1" d="M997 493l-25-10 24-18-12 50" />
    <path fill="#e2b68b" d="M129 518l-12-1 11 56 1-37" />
    <path fill="#2e2f2b" d="M-9 339l-22 12 61-25 6 15" />
    <path fill="#883921" d="M300 145l-14 14 122 114-55-78" />
    <path fill="#aa6746" d="M483 458l-4 67v-89l2 37" />
    <path fill="#f1ad7a" d="M441 392l135 3H473l-61 1" />
    <path fill="#b1c2b5" d="M841 347l-7 7-4 56 6-39" />
    <path fill="#562a1f" d="M988 76l-5 55-8-162-3 15" />
    <path fill="#71351c" d="M198 417L74 397l230 55-48-25" />
    <path fill="#60876e" d="M870 352l14 8-18-13-36-2" />
    <path fill="#b79688" d="M588 664l-34-23 109 14-153 12" />
    <path fill="#856e5e" d="M589 365l32-7-51 23 35-46" />
    <path fill="#212b21" d="M866 516l8-17-44 15 62 3" />
    <path fill="#000300" d="M294 235l21 10 41 29-68-66" />
    <path fill="#8b4732" d="M748 378l2-47-2-51-3 82" />
    <path fill="#445039" d="M822 449l41-5-27 12-3 30" />
    <path fill="#b5cfc6" d="M278 517l-3-37-1 37-61 1" />
    <path fill="#c3e1ea" d="M979 512l-4 6 11-3 4-8" />
    <path fill="#895139" d="M618 402l4 3 33-10 2-17" />
    <path fill="#2e2a23" d="M726 363l-24 12-48 15 21 5" />
    <path fill="#a58d6a" d="M739 517l-119-6 26 6h28" />
    <path fill="#949c98" d="M1003 456v-15l14 1-21 19" />
    <path fill="#66543a" d="M914 518l-2 40 8-35 33-3" />
    <path fill="#d17055" d="M47 126v-26l-6 107 4-29" />
    <path fill="#436059" d="M222 232l21 8 34 12-43 6" />
    <path fill="#3a3f37" d="M298 269l-6 133 60-15h-60" />
    <path fill="#81a48e" d="M394 336l15 31v-24l10 3" />
    <path fill="#b5978a" d="M810 566l53 13-143-18 84 20" />
    <path fill="#0f1a20" d="M440 485l23 7-19 21 18-2" />
    <path fill="#57acb5" d="M804 367l-15-10 10 4 9-4" />
    <path fill="#b3653b" d="M617 237l-70 81 42-56 25-26" />
    <path fill="#403a28" d="M51 331l39-7-50-2 1 26" />
    <path fill="#b8cfd3" d="M973 476v10l3 18 7-19" />
    <path fill="#204a50" d="M640 333l-21 24-17 5 52-40" />
    <path fill="#424332" d="M138 463l1-22-11 10 7 40" />
    <path fill="#44342c" d="M878 332l5 90-9-108 98-15" />
    <path fill="#e6e5ec" d="M949 467l-6 15-1-9-3-8" />
    <path fill="#070007" d="M262 93l92 80-20-26L122-29" />
    <path fill="#8a6c65" d="M1008 635l34 52 13-80-147-23" />
    <path fill="#1c4144" d="M-31 476v96l51-60-51 4" />
    <path fill="#2e7c84" d="M743 500l-11 11-4-9-63 3" />
    <path fill="#9a9583" d="M789 600l47-10-34 20-63 11" />
    <path fill="#dededb" d="M403 452l-4-2-4-31-1 30" />
    <path fill="#d4c6b6" d="M564 452l12 1 30-18v21" />
    <path fill="#6d5638" d="M153 540l-24-3 10-44-10 61" />
    <path fill="#90986c" d="M830 477l-9-5 5 60 1-50" />
    <path fill="#8d7561" d="M419 441l-71-22 9 1-124-27" />
    <path fill="#6b2a0f" d="M431 467l-31-3 6-4 93 3" />
    <path fill="#000200" d="M57 99l-5 28 40 11 97 36" />
    <path fill="#152e36" d="M376 321h-4l-15 3-32-34" />
    <path fill="#6d9e9b" d="M893 512l70-44-38 26 1 7" />
    <path fill="#580b00" d="M650 270l71-63 77-72-9 32" />
    <path fill="#9dc4c9" d="M689 333l32-11-14 8-53 25" />
    <path fill="#282720" d="M546 505l64-9-23-17-27 28" />
    <path fill="#a75341" d="M619 263v14l-25 39-5-28" />
    <path fill="#662000" d="M231 141l166 138-111-114-92-65" />
    <path fill="#997c66" d="M437 337l-1 48-13-15 16-6" />
    <path fill="#7d8b80" d="M988 531l3-14 32-12-43 24" />
    <path fill="#0c141c" d="M866 184l-116 57 22 6-19 3" />
    <path fill="#4d3f2f" d="M473 468l-31 48-4-45 7 40" />
    <path fill="#550a00" d="M861 77l132-51-187 112 80-28" />
    <path fill="#7e6960" d="M169 603l-7-12 50-20-33 10" />
    <path fill="#232820" d="M1016 495l3-64 5 64 31 33" />
    <path fill="#786758" d="M875 496l85-124 41-2-50 14" />
    <path fill="#b4cbc8" d="M708 474l39-1 9-6h-17" />
    <path fill="#f7dbbc" d="M572 296l9 18-9 33-3-14" />
    <path fill="#4c4130" d="M966 394l19-15-17 10-5-87" />
    <path fill="#6c7566" d="M950 395l-20-13 4-37-14 36" />
    <path fill="#8a5830" d="M890 574l6-31-3-21-12-1" />
    <path fill="#ac876e" d="M989 425l-51 6 10-11 29-3" />
    <path fill="#3a3732" d="M689 264l46-33-28 38-30-18" />
    <path fill="#438176" d="M671 495l26 9-31 10-2-31" />
    <path fill="#695646" d="M616 587l162-2-124 32-64-4" />
    <path fill="#bfc4af" d="M409 449l-5 3-11-31 39 39" />
    <path fill="#54908f" d="M764 381l6 13-83 4h71" />
    <path fill="#5c210c" d="M753 429l9 15 187-25-69-13" />
  </g>
</svg>