<svg version="1.1" viewBox="0 0 1024 682" width="1024" height="682" xmlns="http://www.w3.org/2000/svg">
  <g fill-opacity=".5">
    <path fill="#ccae70" d="M265 512l-8-77-14-28 13 16" />
    <path fill="#e49323" d="M382 328l1-25 35 102-40-141" />
    <path fill="#fae7ad" d="M925 274l-27-10 26-2 9-124" />
    <path fill="#815326" d="M570 533l2 13-14 15 5-35" />
    <path fill="#efdeab" d="M973 269l-1-35h16l-41 12" />
    <path fill="#a96425" d="M760 594l-31 39 52-55 4-23" />
    <path fill="#df9c39" d="M963 279l-9-22v27l5 30" />
    <path fill="#bea203" d="M980 648l-15-60 10-21 3 29" />
    <path fill="#cdba04" d="M1055 686l-58-10-5-17 63 54" />
    <path fill="#f2b54e" d="M621 141l74 122 23 132-30-132" />
    <path fill="#967752" d="M525 557l31-65-12 54-1 7" />
    <path fill="#23190f" d="M365 323l13 7-40 8 10 81" />
    <path fill="#e2992e" d="M597 346l74 170-62-150-27-65" />
    <path fill="#e3ad49" d="M479 630l-14-9 11-14-26 91" />
    <path fill="#86561d" d="M793 420l15 50-5-94-4 19" />
    <path fill="#362704" d="M921 539l16 6v-45l-3 15" />
    <path fill="#f2d99d" d="M759 251l18 2-41-8 28-7" />
    <path fill="#966b1c" d="M277 461l-15-77 30 107-19-13" />
    <path fill="#bead87" d="M74 617l22 13-3 3H83" />
    <path fill="#9b7e38" d="M412 516l-53 41 38 47 19 4" />
    <path fill="#f4de8b" d="M555 565l42 40 14-7h-7" />
    <path fill="#caad09" d="M585 586l2-16 25 8-3 11" />
    <path fill="#e0c891" d="M84 560l-20-1-26 48 45-57" />
    <path fill="#f1d488" d="M300 545l-44-84-13 5 17 12" />
    <path fill="#563e08" d="M971 609l27 11-24 35 25 7" />
    <path fill="#242120" d="M198 383v113l-89-75 110-1" />
    <path fill="#d29c44" d="M260 574l50 59 43 74-91-127" />
    <path fill="#9f8c20" d="M858 508l-29 17-28-155 12 114" />
    <path fill="#fff4bc" d="M782 273l-5-23 6-44 6 87" />
    <path fill="#180d07" d="M508 201l-124-1 134-94 2 134" />
    <path fill="#120a01" d="M-31 44l60-75 156 211-27-144" />
    <path fill="#462d01" d="M625 288l-15 39-1-19 20-10" />
    <path fill="#1e1508" d="M297 373l2 62 4-16-30-60" />
    <path fill="#100f0c" d="M19 608l34-75-51 61-21-59" />
    <path fill="#fff9cb" d="M388 669l-8 44 24-12 26 12" />
    <path fill="#1d1107" d="M447 309l33-91-118-39 20 81" />
    <path fill="#73400d" d="M328 460l9 8-25 42h-11" />
    <path fill="#3c221b" d="M938 471l5 9 2-19 8-46" />
    <path fill="#755835" d="M232 563l24-26-26 53 56 32" />
    <path fill="#dac294" d="M812 676l-13 37h-3l27-32" />
    <path fill="#f8d591" d="M665 128l29 87 1-27-41-40" />
    <path fill="#f9e9b0" d="M565 314l7 34-16 23 27-56" />
    <path fill="#eace99" d="M737 169l32 59-30-20-23-64" />
    <path fill="#ad5b03" d="M785 571l-13 108v-80l22 28" />
    <path fill="#262522" d="M38 245l-69 19L5 151l104 204" />
    <path fill="#e4bb37" d="M685 566l18 35-1 3-46-65" />
    <path fill="#987b1a" d="M901 522l11 62-3-182-17 73" />
    <path fill="#eac164" d="M1002 371l-15 50 6-26 13-54" />
    <path fill="#ddd2a6" d="M163 583l-6 11 4-1 8 7" />
    <path fill="#030403" d="M1018 11L894 9l136-40-21 53" />
    <path fill="#8d7b58" d="M532 324l-23-17 12-9-34-40" />
    <path fill="#fff0b3" d="M991 94l2 30-2-59-11 68" />
    <path fill="#87572e" d="M949 327l-17 14 11-26 7-14" />
    <path fill="#080606" d="M764-16L753 90 627 3l44 129" />
    <path fill="#79390e" d="M939 514l21 13 1-114 6 23" />
    <path fill="#f2e6be" d="M663 290l-4 38-7-56-10-43" />
    <path fill="#4e3e0a" d="M895 467l-2-14 8-35v37" />
    <path fill="#080403" d="M635 141l99-172L579 9l82 160" />
    <path fill="#3f2303" d="M739 272l22-12-2 33-20-1" />
    <path fill="#100f0a" d="M13 550H9l52 10-23 41" />
    <path fill="#eca83f" d="M991 87l3-4-6 39 30-92" />
    <path fill="#f2e3b5" d="M661 152l1-41 25 75-5-46" />
    <path fill="#9f7f56" d="M994 306l8 8-77 37 50-43" />
    <path fill="#100a04" d="M114 337l-3 66 9 26 22 80" />
    <path fill="#59401d" d="M488 481l23 21-5 35h-12" />
    <path fill="#eee2bf" d="M76 547l-16 15-5 12 27-16" />
    <path fill="#a4887b" d="M890 381l11-12 9-6-9 36" />
    <path fill="#211a11" d="M231 388l17 38-6-35 37 59" />
    <path fill="#f0deae" d="M952 98l-10 22 40-37-28 51" />
    <path fill="#f9db96" d="M363 480l4-27 8 86-4-5" />
    <path fill="#f0dfa5" d="M592 400l8-17 12-50-19 39" />
    <path fill="#20100a" d="M760 667l-43-61 13-12 14 119" />
    <path fill="#edb03e" d="M587 519l-23-30 25 20 32 61" />
    <path fill="#d9c9a1" d="M1 590l13 26 10 7-12-26" />
    <path fill="#281d13" d="M461 179l70 59-62-79 36 64" />
    <path fill="#a1753c" d="M463 660l11-92 29-13-51 92" />
    <path fill="#866d0a" d="M758 505v59l-18-50 7 5" />
    <path fill="#f2dba0" d="M141 626l-32-73-10 64 22-23" />
    <path fill="#917423" d="M496 367l30-32 18-5-38 62" />
    <path fill="#dfaf31" d="M830 406l-7 80 23-77-4 45" />
    <path fill="#6a4a12" d="M943 679l35-145-53 158-16-156" />
    <path fill="#f3cd82" d="M240 355l-2-18 19 29-4 7" />
    <path fill="#f8b23a" d="M347 495l1-24-22-51 8 30" />
    <path fill="#897710" d="M656 554l-17-12 16-1 26 45" />
    <path fill="#b8a027" d="M592 615l-28-13 110 111-90-70" />
    <path fill="#f4e6a3" d="M570 598l-19-4-25 11 20-33" />
    <path fill="#725631" d="M995 152l23 32-8-52 18-17" />
    <path fill="#8b6b44" d="M373 451l47-20 22 141-43-140" />
    <path fill="#e7eacf" d="M119 579l1 49 7-48-13-5" />
    <path fill="#5b5d00" d="M382 475l7-8 11 9-16 8" />
    <path fill="#2d2f31" d="M243 308l26 18 20-69-16 26" />
    <path fill="#c5b568" d="M444 639l-58-23 26-10 6 17" />
    <path fill="#1d130a" d="M462 159l166 25-7-7-57 70" />
    <path fill="#f5ac41" d="M724 469l-1-33-13-108 2 71" />
    <path fill="#180c07" d="M902 205l-20 4-20-40 2 23" />
    <path fill="#dab469" d="M949 387l-14 41-15-27 14-21" />
    <path fill="#de952b" d="M928 393l-7 126-6 26 10-174" />
    <path fill="#ad6311" d="M291 503l34-27 5-1-13-19" />
    <path fill="#472604" d="M856 526l-56 65 17-79 3 91" />
    <path fill="#f8f2c5" d="M335 428l20 52-3 20-7-58" />
    <path fill="#e6cf02" d="M1021 483l34 60v-61l-1-99" />
    <path fill="#604228" d="M665 245l20 36 9-6-40-19" />
    <path fill="#e4a820" d="M672 383l26 145-24-103-7-51" />
    <path fill="#26241e" d="M102 550v31l23-81-48 54" />
    <path fill="#a4830a" d="M998 520l-48 41 21 47-46 10" />
    <path fill="#b37c29" d="M781 277l-20-5 2 26 11-60" />
    <path fill="#f4e8ca" d="M528 581l-11-33 1 37 1-2" />
    <path fill="#2a281e" d="M413 348l17 31 19-75-50 10" />
    <path fill="#f2b351" d="M935 157l1 10 21-62-10 10" />
    <path fill="#3e290b" d="M647 416l-4 17 5 23 17-34" />
    <path fill="#fcd887" d="M287 491l21 44-39-61-18-6" />
    <path fill="#a9a400" d="M861 359l-8 22 4 45 3-107" />
    <path fill="#cfba88" d="M304 375l-5-38 1 2 8 23" />
    <path fill="#4b3518" d="M899 681l28-39-2-35-43 52" />
    <path fill="#a39007" d="M937 676l45-18-26-10-14 65" />
    <path fill="#7b664d" d="M860 651l18 8-12-1-30 27" />
    <path fill="#d89638" d="M585 356l14 5-30 83 3 38" />
    <path fill="#c7a35a" d="M453 621l-18-138-6 26 32 98" />
    <path fill="#fff2b7" d="M764 133l-17 56 8-65 10-49" />
    <path fill="#e9941a" d="M462 574l-7-38-9 16 21 68" />
    <path fill="#b89257" d="M981 115l2-38-49 132 26-79" />
    <path fill="#5b4000" d="M837 479l13-39-2-10-12 46" />
    <path fill="#1c1811" d="M291 438l-70 12 14 16-43-23" />
    <path fill="#31302d" d="M156 536l-21-33 43 9 12 1" />
    <path fill="#8a7306" d="M693 613l11 36 7 1-4-17" />
    <path fill="#312313" d="M138 627l-9-22-4-2 1 23" />
    <path fill="#6f5728" d="M803 157l11-15 45 12 9-17" />
    <path fill="#c2aa78" d="M283 342l7-13 4 49-9-37" />
    <path fill="#fbebbb" d="M120 592l16-46-11-45 11-4" />
    <path fill="#f8e7aa" d="M221 540l-22-11-22-45-20-1" />
    <path fill="#160e08" d="M512 249L486 94l-47 69 68 64" />
    <path fill="#ffe38e" d="M619 189l-3 13 13 73 13 16" />
    <path fill="#2d1202" d="M817 594l10 44-47-107 10 33" />
    <path fill="#522b15" d="M844 222l19-6 37-9-70 11" />
    <path fill="#26292a" d="M197 547l17-8-14 28 3 4" />
    <path fill="#f3d98d" d="M195 518l-41-38 63 28-45 13" />
    <path fill="#e7ca88" d="M92 620l-23-27 31 20 37-84" />
    <path fill="#af9374" d="M696 669l-1 13-7 31h-29" />
    <path fill="#6e4b2a" d="M967 317l24 20-36 17 15-26" />
    <path fill="#8b6c3b" d="M713 389l-40-17 31-24v5" />
    <path fill="#d3b87c" d="M761 403l-7 110 35-52-19 39" />
    <path fill="#ecb35b" d="M535 510l-29 43 26-62 16 34" />
    <path fill="#77611d" d="M562 702l-81-32 15 20 39-12" />
    <path fill="#8a6c51" d="M779 317l-47 8 28-36 11 67" />
    <path fill="#e7d9aa" d="M147 588l-5-19-33 31v-26" />
    <path fill="#cf8529" d="M495 388l34 58 23 49-56-92" />
    <path fill="#6f5841" d="M710 226l47 10-7 1-48 1" />
    <path fill="#594d14" d="M638 327h18l-17 13 5 17" />
    <path fill="#e0ca97" d="M170 540l-52-15 10-11 40 35" />
    <path fill="#8d7452" d="M470 525l14-60-35 55 17 29" />
    <path fill="#896334" d="M1011 392l6-82-13 23 51-5" />
    <path fill="#1a1813" d="M61 610l61-74-11-21-8-1" />
    <path fill="#c69849" d="M747 607l-30-76 50 29-59-28" />
    <path fill="#573e35" d="M631 435l-8 40-8 1 33-9" />
    <path fill="#9f7035" d="M1033 459l-17-47-9 102-28-14" />
    <path fill="#928149" d="M763 671l-17 42 15-32 18 2" />
    <path fill="#715438" d="M861 281l37-36-32 108 2-52" />
    <path fill="#423106" d="M406 478l2 10-29 19 21-24" />
    <path fill="#271907" d="M842 600l6-11 16 34-27-1" />
    <path fill="#c3a56e" d="M231 464l-28-11 12 13-2-3" />
    <path fill="#e5cf99" d="M668 231l-55-15 62 22-23 13" />
    <path fill="#8b5b22" d="M828 608l48-25-46 17-46 36" />
    <path fill="#3a4049" d="M89 417l-35 6 15-22 19-11" />
    <path fill="#2f2011" d="M599 227l-14-93 19 131-13 26" />
    <path fill="#dd8d17" d="M879 494l13-74-23 51 45-100" />
    <path fill="#070708" d="M43 488l-19-19 28-44 13-65" />
    <path fill="#050502" d="M51 646l11-19 30 10-5 7" />
    <path fill="#f8eaae" d="M556 469l-20 12h12l17 20" />
    <path fill="#c1a35a" d="M999 384l-31-4 1 30 24-37" />
    <path fill="#f5e9a2" d="M522 338l2-7 13-2-9-30" />
    <path fill="#e0b469" d="M367 270l33 19-19 22 14-16" />
    <path fill="#9b7247" d="M674 492l-19-61v17l26 21" />
    <path fill="#eeedb8" d="M570 665l-7 48 10-40-77 2" />
    <path fill="#a48b62" d="M934 116l-34-5 98-47-77 40" />
    <path fill="#f0e5c2" d="M453 305l4 29v-2l10-9" />
    <path fill="#765810" d="M540 389l16-3-35-17 27-45" />
    <path fill="#bb7016" d="M689 672l-32-66-42-37 64 84" />
    <path fill="#f7d694" d="M26 604l-15 69v-27l25-40" />
    <path fill="#a79d36" d="M880 405l-13 131 7-111-41-96" />
    <path fill="#b8a06d" d="M848 182l15-52-84 162 61-115" />
    <path fill="#f3e093" d="M290 497l-5-38-2-7h7" />
    <path fill="#1b110d" d="M986 82l-1-21-7-12-4 11" />
    <path fill="#efd08d" d="M121 524l26 3-6 22 23 8" />
    <path fill="#594f3e" d="M101 483L87 606l-4-5 7-19" />
    <path fill="#ebb243" d="M620 604l-30-5 24 23-7-52" />
    <path fill="#d2ad41" d="M549 592l90 67-126-44 43 21" />
    <path fill="#714621" d="M728 385l1-8-2-15-5 20" />
    <path fill="#eedeb1" d="M361 254l14-4-1 24-6-18" />
    <path fill="#d5dcc6" d="M34 592l2 12-7 26 2-32" />
    <path fill="#463628" d="M697 412l-6-36 14 7 12 63" />
    <path fill="#f3efcb" d="M542 488l-21 13-18 40 43-74" />
    <path fill="#181510" d="M724 168l-29-35 49-31-59 85" />
    <path fill="#393736" d="M209 408l-85 3 12-36 47 22" />
    <path fill="#f3cb61" d="M726 550l-16-1 9-20 2 2" />
    <path fill="#f9e8bc" d="M1023 25l-13 90 45-146-58 81" />
    <path fill="#da8421" d="M583 301l11 32-4-3-29-61" />
    <path fill="#edc125" d="M724 475l-2 45 40-19h-29" />
    <path fill="#663719" d="M705 599l53 45-6-15-8 16" />
    <path fill="#1d1206" d="M463 331l15 20h15l-14-78" />
    <path fill="#bc980d" d="M1016 612l-24 32 12-28 36-18" />
    <path fill="#9a7a47" d="M198 680l-46-45-23 11 59 2" />
    <path fill="#695a10" d="M789 543l8 32-11-96 7 3" />
    <path fill="#f4e6bc" d="M966 105l5-43-11 15-9 66" />
    <path fill="#60480f" d="M549 401l32 36-13 3 3-49" />
    <path fill="#5f3c0c" d="M152 645l-62 68 13-45 38 23" />
    <path fill="#edbe6c" d="M919 219l-4-24 19-10 21-88" />
    <path fill="#e6c089" d="M506 227l-27-24 6 30 33 41" />
    <path fill="#0d0b04" d="M36 651l62-92-61 58-1-28" />
    <path fill="#e4a64a" d="M633 400l39-74-19 56-34 53" />
    <path fill="#0d0d0d" d="M791 154l6 15 10-185-20 104" />
    <path fill="#342b1c" d="M459 345l26 8 6-48-23 55" />
    <path fill="#865e32" d="M887 184l28-24-39 35-9-25" />
    <path fill="#e0a448" d="M796 502l-13-174 14 93-8 9" />
    <path fill="#25221a" d="M157 515l-25-17 60 34-21 16" />
    <path fill="#a58a06" d="M1042 570l-38 1 51-120-58 118" />
    <path fill="#f1d08c" d="M591 426l-3 4-5-12-10 18" />
    <path fill="#98784a" d="M866 267l-19 33-39-3 54-62" />
    <path fill="#181109" d="M-31 612v-84l44 103-2-20" />
    <path fill="#47360b" d="M645 324l-3 46-10-16 25-26" />
    <path fill="#e6dfb7" d="M1 610l-32 20v-71l47 94" />
    <path fill="#f3f1d2" d="M894 403l-6 13 6-3 2-9" />
    <path fill="#dbd2b0" d="M300 408l7 17-7-26v11" />
    <path fill="#45290e" d="M859 303l-6 57-12-24 13-35" />
    <path fill="#f1e7c0" d="M946 195l-4 49 30-28-7 40" />
    <path fill="#090602" d="M58 612l-6 35 31 15-31 1" />
    <path fill="#0d0d0d" d="M794 5l-76 129 28 51-55-126" />
    <path fill="#0f0905" d="M451-27l141 222 22-5 2 13" />
    <path fill="#705225" d="M310 532l57 28-15 13-25-43" />
    <path fill="#e3b358" d="M643 318l18 14-12-66-3 38" />
    <path fill="#d79334" d="M779 271l1 178-7-204 12 54" />
    <path fill="#7b5e2d" d="M845 409l-5-62-31 31-16-60" />
    <path fill="#b99560" d="M224 580l32-34 11 8-49 36" />
    <path fill="#25211d" d="M564 62l94 112-52-86 28 68" />
    <path fill="#757608" d="M507 673l18-1 3-3-5-15" />
    <path fill="#9a8360" d="M839 666l-5 30-2 17 5-87" />
    <path fill="#cea75d" d="M575 472l41 38-11 2 70 132" />
    <path fill="#543819" d="M973 63l-57-16 42-19-39 65" />
    <path fill="#8a6812" d="M832 513l-57-58 67 109-39-90" />
    <path fill="#d8a429" d="M314 555l25 59 30 63-28-77" />
    <path fill="#937145" d="M288 666l-33-43 56 28-5 18" />
    <path fill="#b59358" d="M815 493l-11-60v9l17 39" />
    <path fill="#20170b" d="M722 190l-8-10-19 48 5-4" />
    <path fill="#dfbb83" d="M723 175l34 67-15-50-20-51" />
    <path fill="#fde59e" d="M688 259l-22-3 24-9-16-45" />
    <path fill="#975b13" d="M791 524l-17 17-16-51 76 94" />
    <path fill="#dec79b" d="M619 615l24 10-6 6-12-25" />
    <path fill="#bb9e5d" d="M1023 508l-38 21-19 4 89-40" />
    <path fill="#c79a63" d="M840 218l14-26-27 15 1-3" />
    <path fill="#cd9928" d="M628 552l13 37-6-63-17-26" />
    <path fill="#fab239" d="M605 377l7-37 15-20-8 38" />
    <path fill="#f8d494" d="M317 537l-30-1 24 8 9-4" />
    <path fill="#b6951d" d="M317 705l118-97-1 39 50-53" />
    <path fill="#7e6b59" d="M67 668l21-15 13 56-43-7" />
    <path fill="#7b6222" d="M456 454l44 25-4-8-42-35" />
    <path fill="#9c7749" d="M276 542l-29 32 51-12-9 33" />
    <path fill="#e9df52" d="M458 665l-22 6 9 28-29-45" />
    <path fill="#0f0a08" d="M132 482l12-36-60 24-9-49" />
    <path fill="#a1881e" d="M576 713l-60-41 25 41 23-38" />
    <path fill="#f1d48a" d="M642 413l43-89-48 81-11 8" />
    <path fill="#0f0300" d="M752 666l-30-14 3-14 49 25" />
    <path fill="#a07d51" d="M629 474l20-8-19 47-24-46" />
    <path fill="#010002" d="M7 661l-38 38 2-68 33 21" />
    <path fill="#a96211" d="M788 616l14-26 3 26-25-61" />
    <path fill="#f3dca4" d="M642 371l29-51-33 67-1 8" />
    <path fill="#b0861d" d="M1055 713l-184-16 16-34 7 28" />
    <path fill="#d9c286" d="M869 574v5l56-24-38 20" />
    <path fill="#fae7b2" d="M191 504l5 48-9-2 8-33" />
    <path fill="#eb9e2f" d="M207 521l-23-24 13 5 49 51" />
    <path fill="#352c1d" d="M852 664l-6-48-6 56 31-59" />
    <path fill="#f3eece" d="M584 305l4-19 9-33-12 6" />
    <path fill="#c48e1e" d="M908 463v56l11-122-19 58" />
    <path fill="#867254" d="M135 570l34 65-42-62 18 41" />
    <path fill="#c8b566" d="M347 596l5-10 35 17 70 19" />
    <path fill="#3e2410" d="M995 303l-6-32-19 40 11-8" />
    <path fill="#957244" d="M904 187l-34-55 44 21-53 1" />
    <path fill="#4d2910" d="M1042 527l-31-58-8-2 52 90" />
    <path fill="#e3ab3f" d="M442 491l-4-6-32-105 36 146" />
    <path fill="#af7b3f" d="M92 634l-8 2 26-24-28 101" />
    <path fill="#997545" d="M368 427l-17 95 22 38-13-102" />
    <path fill="#9a9109" d="M865 438l-2-32-8 11-3 48" />
    <path fill="#b28741" d="M963 487l-35 4 10-9h9" />
    <path fill="#ba8a0c" d="M710 559l-27 4-3-59 12 21" />
    <path fill="#bf9f67" d="M815 194l-31-21 23 17 74-40" />
    <path fill="#a17536" d="M528 467l-37 39 38-20 19-15" />
    <path fill="#68370c" d="M961 528l29-5 5-21 26-29" />
    <path fill="#9c722a" d="M633 392l-6-23-18 50 3-24" />
    <path fill="#6e621c" d="M695 341l3-37-1 14-17 25" />
    <path fill="#be8b35" d="M944 419l19-28 35 7-48-11" />
    <path fill="#e6ce89" d="M245 412l14 16h2l-4 10" />
    <path fill="#907f00" d="M867 517l-40-53 15 42 41 50" />
    <path fill="#b8a464" d="M475 656l54-27-50 15 30-104" />
    <path fill="#e3b259" d="M107 696l10-113 4 14-6 36" />
    <path fill="#876b44" d="M230 586l-118 71 107-49-28-50" />
    <path fill="#f8e2a0" d="M731 427l20 8-14-25 30-19" />
    <path fill="#fcdb7e" d="M537 229l39 80-67-83 30 14" />
    <path fill="#f0d58d" d="M537 528l2 10-33 10-6 19" />
    <path fill="#e9ad54" d="M37 657l-42 56h21l22-48" />
    <path fill="#231b13" d="M360 365l-13-35-14 60 66-24" />
    <path fill="#b0870b" d="M609 646l8-3 34 70h-58" />
    <path fill="#362808" d="M555 420l2 8-21 8 20-43" />
    <path fill="#682d06" d="M661 637l22-9-17-22-2 28" />
    <path fill="#f3c85c" d="M557 492l-82-101 19-38-32 8" />
    <path fill="#957925" d="M658 425l-4 57 2-95 14-6" />
    <path fill="#a28153" d="M1055 250l-33 15h-15l-38 25" />
    <path fill="#c4b30c" d="M308 637l28 6 38 70-7-46" />
    <path fill="#f1dba7" d="M671 184l-60-36 27 43-23-53" />
    <path fill="#c18b52" d="M708 581l-8 29-5-56 14 43" />
    <path fill="#e6cf95" d="M945 251l34 38-18 1 15-12" />
    <path fill="#18120a" d="M282 359l16-97-45 92 30 92" />
    <path fill="#3e2111" d="M56 659l4 2-13 11 2-24" />
    <path fill="#b87210" d="M963 525l15-40 19-81-38 108" />
    <path fill="#7c603c" d="M963 222l5-11 3-27 47-3" />
    <path fill="#816a4c" d="M245 461l23 36-21-25-35-49" />
    <path fill="#877d5f" d="M814 698l14-44 10-12-10 18" />
    <path fill="#4b3c28" d="M826 201l59-127-49 98 15 24" />
    <path fill="#eee2b4" d="M987 81l-9 74 17-99-3-5" />
    <path fill="#ce9d34" d="M596 562l201-64-1 64-4-64" />
    <path fill="#df9e03" d="M740 458l9 8-25 55 10-1" />
    <path fill="#644e06" d="M947 700l27 13 73-102 8 37" />
    <path fill="#100905" d="M834 626l-4 26-30-19 22-18" />
    <path fill="#f6e9a7" d="M574 396l3-34 7-45 6 21" />
    <path fill="#24252a" d="M-18 413l101-13-67 19 20 91" />
    <path fill="#4f3113" d="M822 358l13-5-15-13-28 1" />
    <path fill="#eee6b0" d="M603 625l-10 7-7 3 14-31" />
    <path fill="#ddb760" d="M909 380l-17 40 28-87 10-24" />
    <path fill="#ecb734" d="M854 428l23-88-21 58-6 39" />
    <path fill="#140900" d="M349 422l34-53-1-11-43 43" />
    <path fill="#fcf7d5" d="M96 575l4 35 8-39 23 20" />
    <path fill="#845f2f" d="M281 454l3 7-10 9-20-24" />
    <path fill="#e8c984" d="M173 581l-11-18-48-46 64 49" />
    <path fill="#684e2f" d="M972 34L854 159l57-48-18-17" />
    <path fill="#b3945f" d="M796 162l2 22 34-27 9 26" />
    <path fill="#d0cb8b" d="M330 676l15 17-36-22-16 3" />
    <path fill="#533823" d="M1036 133l19-50-41 24 16-33" />
    <path fill="#86642c" d="M887 638l2-8 25-11 10-56" />
    <path fill="#e8c78c" d="M781 135l-25-26 32 33-8 35" />
    <path fill="#492f0e" d="M235 623l-35 4 21-18 19 24" />
    <path fill="#eac474" d="M991 176l-13-1 40-68-34 39" />
    <path fill="#3d260c" d="M19 671l-3-23 12 12-22 33" />
    <path fill="#371e0f" d="M903 187l-1 9-16-25-27-1" />
    <path fill="#2a2828" d="M136 398l-20 13-11 76-16-63" />
    <path fill="#432811" d="M921 140l8-30v26l-1 14" />
    <path fill="#87663e" d="M906 62h35l-57 30 8 9" />
    <path fill="#4d340a" d="M684 664l123 49H685l20-67" />
    <path fill="#dec28b" d="M206 466l10 6-15-3-5-4" />
    <path fill="#4a2409" d="M745 592l16-39-3 44-64 20" />
    <path fill="#f1e8c2" d="M89 585l11-23-2 14 5 27" />
    <path fill="#ebd097" d="M804 273h14l-23 28 10-27" />
    <path fill="#c9a66e" d="M479 628l23-6-3 6-39 8" />
    <path fill="#cb8736" d="M280 452l4 4-12-36 1 8" />
    <path fill="#cec8a9" d="M336 368l-7-14 9 7-4-26" />
    <path fill="#f9f3d4" d="M642 292l-6 9-8 51 11-24" />
    <path fill="#d9d1a3" d="M42 670l5-20 2-5-8-1" />
    <path fill="#a9720e" d="M338 422l85-12-52 22-13 23" />
    <path fill="#5b3c19" d="M395 441l-12-13-34 35 55-40" />
    <path fill="#954704" d="M727 559l48 6-57-10-2 73" />
    <path fill="#d59321" d="M656 643l27 33-30-47-44-36" />
    <path fill="#370d00" d="M966 389l-4 45-3-25 9-48" />
    <path fill="#381e0a" d="M652 250l17-1-8 5 7 8" />
    <path fill="#54433b" d="M784 392l-1 10v39l7 12" />
    <path fill="#ebb656" d="M559 328l-26 95v9l44-142" />
    <path fill="#cdb406" d="M977 571l-9 32 18 18-19-39" />
    <path fill="#886209" d="M986 531l-9 52 78-14-66 5" />
    <path fill="#ead7a4" d="M588 483l38 27 12-2 21 25" />
    <path fill="#390e03" d="M711 641l10-9 13-3-29-20" />
    <path fill="#24201c" d="M442 194l20 6-5 24-43 1" />
    <path fill="#352307" d="M906 640l-3-5 34 22 14 15" />
    <path fill="#e8cb8a" d="M635 211l1 31v-9l-31-38" />
    <path fill="#d9b97d" d="M421 421l-14 8-4-8 10-3" />
    <path fill="#fbe6aa" d="M920 294l3-64 3 58 11 27" />
    <path fill="#d59246" d="M673 164l13 61-3-35-10-39" />
    <path fill="#503a20" d="M241 579l20 17-22 25 13-52" />
    <path fill="#806324" d="M373 444l63-56 9-81-3 86" />
    <path fill="#e9d28e" d="M494 337l2-5 10 7-5 19" />
    <path fill="#f3dfb5" d="M534 261l-26-20 10-6 32 83" />
    <path fill="#d6c00a" d="M1055 609l-35-38 22-16-19 45" />
    <path fill="#e6a735" d="M835 470l-18-11 7 2-32-129" />
    <path fill="#83623c" d="M909 225h-9l-2-33 8 10" />
    <path fill="#b49c75" d="M210 429l-11-11 9 4 31 32" />
    <path fill="#9c7c4c" d="M309 539l60-26v13l-39-41" />
    <path fill="#352e1f" d="M808 216l-2-13 20-6 1-10" />
    <path fill="#120e05" d="M220 387l29-16-19-22-1 120" />
    <path fill="#f9e7b3" d="M783 309l8-37-10-38-4 34" />
    <path fill="#592706" d="M777 640l15-21-11 62-1-136" />
    <path fill="#f4e0a8" d="M630 201l42 157 16-1-16-20" />
    <path fill="#e4ba70" d="M129 541v-52l-4 51-10 44" />
    <path fill="#856125" d="M488 656l-2-45 41 41-47-39" />
    <path fill="#e2c080" d="M955 166l-21-44 16-12-24 18" />
    <path fill="#a67a2a" d="M586 504l44 62 40 16-48-17" />
    <path fill="#7b591d" d="M550 613l-4 9-1 5-3-16" />
    <path fill="#ffeab7" d="M1018 183l2 49 1-35 8-107" />
    <path fill="#faefc5" d="M455 294l8 51-9 51 3-44" />
    <path fill="#faf1c5" d="M565 638l-36 27 37 11-33-29" />
    <path fill="#2b271f" d="M506 286l9 53-25-7 6-57" />
    <path fill="#8f7d22" d="M708 434l10 9 7 44-2 7" />
    <path fill="#8e642b" d="M334 630l22 23-4 5-4-30" />
    <path fill="#a78d18" d="M629 270l-20 9-7-25 26 11" />
    <path fill="#876948" d="M252 641l13 9-16 58-107-42" />
  </g>
</svg>