<svg version="1.1" viewBox="0 0 1024 682" width="1024" height="682" xmlns="http://www.w3.org/2000/svg">
  <g fill-opacity=".5">
    <path fill="#3b382b" d="M198.5 551.4l-1-26 13 23.7.8-12" />
    <path fill="#d3a456" d="M522.8 411.2l42.4 95.7-40.5-92 11.4-38" />
    <path fill="#4e2103" d="M809.6 611.4l-34 32.5 4.3 37 12-50" />
    <path fill="#c29a0f" d="M376.8 678.7l-36.6-79.5 8 33-18.6-27" />
    <path fill="#eee6c3" d="M532.7 495l-15 14 21-31.6 13.4 29.2" />
    <path fill="#0c0a07" d="M64.3 616L92 649.2 45.5 635l37.2-67.4" />
    <path fill="#8d7044" d="M440.5 607.2l-9 2.6-25.6-68.5 29 53.5" />
    <path fill="#75542b" d="M1021.8 133.7l-16.4.3-2 34 13.7-62" />
    <path fill="#84642a" d="M444 458l-2-17-4.7 16.7 3.3 31.5" />
    <path fill="#594023" d="M166.3 651.3l-19.8 58 26-104.8 14.2-24.8" />
    <path fill="#8a5d1e" d="M942 572.4l42.2-30.8-47 19.5 4 3" />
    <path fill="#b7a218" d="M878 443.6l-22.5-2.2 16.6 19.8 12-39.4" />
    <path fill="#967032" d="M157 656.7l7.8-4.8-37.2-56 17 33" />
    <path fill="#f2e3b0" d="M516.5 560l60.4 43-31-14.8 2-17" />
    <path fill="#5c3b0a" d="M787.8 508.7l4 8.4 3 70-6.2-67" />
    <path fill="#d8c452" d="M619 238.7l7.5 20.8-13 1 8-15" />
    <path fill="#ffe897" d="M388.2 327.5l-8 11.8-3.4-31.6-7.7-42" />
    <path fill="#c5bb6c" d="M389.8 620l33.6-7.7-14.4-8.7-21 12" />
    <path fill="#2b2925" d="M44.4 214.6L-21 230.3l21-72 59 132.4" />
    <path fill="#553d1f" d="M971.8 161.3l5.6-38.2 1.4 27h-12" />
    <path fill="#aa8f59" d="M1055 435.8l-59.3-11.3L992 438l63-4.2" />
    <path fill="#e6c383" d="M740.3 191L712 138.8l46 107.7-10.5-48.8" />
    <path fill="#eed5a1" d="M134 523.5l22.8 14 11.6.2-11 5.4" />
    <path fill="#7a5935" d="M275.8 536.4l1.8-10.8-18.2 28.7 15.3-7.3" />
    <path fill="#ffeda6" d="M319.4 412.6l16.3-2.3-16 14.3 27.5 72" />
    <path fill="#705e43" d="M858.3 629.4L847 658.8l-9-18.7 21.4-6" />
    <path fill="#0b0807" d="M71.3 342.5L91 364l-54.4 78.5 12 6.6" />
    <path fill="#ecf0dc" d="M676.3 312.5L680 325l4.4-16.5-7 3.3" />
    <path fill="#303035" d="M196 437.3l-70.5-1-9.4 24.2-8-33" />
    <path fill="#4f4d47" d="M-29.5 646.8L5 563l-27.3-42-6.8 64.7" />
    <path fill="#0e0805" d="M117 399l15.8 21.8-21 43 15.8 10" />
    <path fill="#242220" d="M433.6 135l34-46.6-20 62.2 19-5.3" />
    <path fill="#f8e8a8" d="M738.7 406l9 3.2-2.8-23-6 55" />
    <path fill="#d5a251" d="M918.5 395.2l-15.3 14.3 2.4-15.3 9 20.6" />
    <path fill="#a18c6b" d="M835 668.4l1-77.4 1.2 82-1.5 40" />
    <path fill="#f2b132" d="M455 573.6l2.2 19.3-26.2-89 17.8 34" />
    <path fill="#ad7b26" d="M923.5 413.6l-12.3-40.4 6.4 34.2-28 32" />
    <path fill="#503313" d="M224.8 621.5l-33.3-1.6 19-9 20.5 3" />
    <path fill="#1c0e04" d="M374.3 385.3L351 331l28 5.5-25 11.2" />
    <path fill="#221d11" d="M165.3 517l2.8 17.4 6 17.6 18-22.2" />
    <path fill="#d6b882" d="M759.5 456l43.2-6.8h-30l-9.4 22.8" />
    <path fill="#76310b" d="M695 623l-7.7-24 26.4 27.4 6.6-19" />
    <path fill="#eacf9b" d="M810.3 170.8l-18.5 5.7-15.2-43.7 8.8 32" />
    <path fill="#bf7011" d="M706.3 534.2l13.4-4-1.5-10-4.4-.6" />
    <path fill="#d2b058" d="M265.6 538.2L256 543l-8.2-7 12.2 20" />
    <path fill="#69481c" d="M220 604.6l28.3-25-7-2.6-18 13.8" />
    <path fill="#776e03" d="M824.2 325l11.7 65.2 14 33.8-30-117" />
    <path fill="#a89002" d="M1009.5 542.8l-2.6 1.4 11 16.3-17 9.4" />
    <path fill="#5a492f" d="M305 420.8l5 11.2 10.3 2.4 2 11.2" />
    <path fill="#433c2e" d="M512.8 302.8l-15.4-29.3-4.8 17 24.8 3.8" />
    <path fill="#190e03" d="M490.8 291.3l-4.6 68.8L460 182l33.2 80.6" />
    <path fill="#4e390c" d="M412.8 488l15.3 32.5-29-49.8 1 24" />
    <path fill="#f4ce79" d="M499 392l-29.6-31 19.7 10 47 66.4" />
    <path fill="#c6a633" d="M803.7 162.6L821 156l2.2 11 1-6.5" />
    <path fill="#725a34" d="M936.3 79.2l12.5-57.8-9 28.4-5.3 91.5" />
    <path fill="#e0a74e" d="M694.3 537.2l-7.8 3.3-10.8-.6-20-36" />
    <path fill="#a68147" d="M940 186.7l22-49.2-8.6 33.7 10 10.2" />
    <path fill="#fbc65e" d="M536.3 237l14.7 13.7 30 33.4-32-13" />
    <path fill="#fce6a5" d="M171 485.5l48.3 30.3 3.7.3-33-24" />
    <path fill="#efcf88" d="M636.3 223.4l-20-33.6 23 51.8-35.8-41.5" />
    <path fill="#7b6235" d="M572.4 525.8l11.7-9-6-9-3 13" />
    <path fill="#f5da94" d="M364.5 242.6l1.4 1.7 14 15 15 40" />
    <path fill="#fcd579" d="M656 323l-6.4-2.6-23-77-9.8-60" />
    <path fill="#13100b" d="M87.5 521.6L76 545.8l-8.3-45.4 20.2 1.2" />
    <path fill="#1b1a14" d="M116.5 547.5l-33 30L70 577l46.8-61" />
    <path fill="#dbc289" d="M67 645.4L90 666l-18.4-10.7 17.3-5.6" />
    <path fill="#fadb88" d="M179.3 577.8l4.8-3-34-29.3-2 3.8" />
    <path fill="#916f34" d="M1014.5 514.6l-14.8-15.8 24 27.6-5.3 14.4" />
    <path fill="#eee9cd" d="M948 225.6l4-29.3 2.5-4-16.5 3.2" />
    <path fill="#4f3d1f" d="M758.8 392.7L755 369l-15.8 31.7-4-15.3" />
    <path fill="#7d5f3a" d="M173.3 689l74-54-51 47.7-87.8-36" />
    <path fill="#090605" d="M82.4 428.4l-1.2-14 20 39.7-17 20" />
    <path fill="#f6da9e" d="M189.8 533.6l2.2 46.8 5.6-70 .8 22" />
    <path fill="#b68e1a" d="M1005 495l-3.7 14-16-2 14.6-6" />
    <path fill="#230b06" d="M718.6 604l10.4-10 2.4 20.8 42.2 48.4" />
    <path fill="#d69b46" d="M940.2 256l-12 74.8 4.6-96.3 10.6 14.6" />
    <path fill="#f1e09f" d="M591.7 651l-6.8-6.8-13-4.2-29 1" />
    <path fill="#684c14" d="M510.7 358l1.5-4.5 30-.5 5.2-18.3" />
    <path fill="#311e0c" d="M574.2 417.4L561.4 430l4 4.5 10.5-12.2" />
    <path fill="#cb9d64" d="M717.3 225.6l27-28.6-15.3-11 6.6 6.4" />
    <path fill="#d1ba7d" d="M290 361.3l7 10.7-8.3-31-2.4 19" />
    <path fill="#c5a96d" d="M466 634.4l21.6-8.4-35 20.7 44.5-21.2" />
    <path fill="#ba8826" d="M776 502l14.4 6.8-6-28.5-22.4 32" />
    <path fill="#2d271a" d="M616 226l-18.3 5 1-51.8 19 60.4" />
    <path fill="#ba8948" d="M820.6 263.5l-13.8 7L859 219l-14 38" />
    <path fill="#f8f1c3" d="M612.2 637.3L593.7 602l-1.5 13 26.2 15.2" />
    <path fill="#252423" d="M49.7 579.8l6.2-7.4-68-71.5 85 37" />
    <path fill="#9e8a53" d="M506.3 624.5l7.5-66.4 11.6 51-12-40" />
    <path fill="#c19860" d="M901.8 399.8l-28-12.3-1.3-33 22 55.5" />
    <path fill="#ae7d3e" d="M1033 397.3l-17.2 82-5-18 25.4-17.8" />
    <path fill="#100c08" d="M633.2 116l52-29 61.8 78.5-21-55.3" />
    <path fill="#6a300d" d="M696.4 622.5l-12.8 30-4-46.4-13 26" />
    <path fill="#f1ce7d" d="M104.5 587.6L115 563l-5.8 54 16.5 15" />
    <path fill="#372c24" d="M727.3 328.6l33.2-53.4-.5 16.8-16.5 2.8" />
    <path fill="#f5ac1e" d="M577.3 550l2.8-9.3-12 19v12" />
    <path fill="#e8d613" d="M871.2 695.5l49.5 1.8 22-21.6.6 19.6" />
    <path fill="#8a6e47" d="M1012.3 296.3l6.4-24.4 12-90-22.4 169" />
    <path fill="#e6ac38" d="M808.8 400.3l3.2-41v48.3L793.5 337" />
    <path fill="#d0ae58" d="M879.4 463.2l24.6-4 9 5.5-3-3.2" />
    <path fill="#efc576" d="M516.6 285.8l-30-66 56.3 97-48-46.8" />
    <path fill="#bb9734" d="M844.4 464l90-82-94 81.7.4 21.4" />
    <path fill="#e2c686" d="M308 510.4l-5.8 1L272 479l36.8 49" />
    <path fill="#cdb88c" d="M937.8 387.3l-13.7 3.2 6-10.5 15 16" />
    <path fill="#decc8e" d="M518 447.3l-4.6 19 11-10-37.8-39.7" />
    <path fill="#9c813a" d="M471.6 445l36.4 5 4.2-9-62 13.2" />
    <path fill="#ebd191" d="M1008 298.3l28.8 31.3-18-32 36.2-6" />
    <path fill="#e5cf8f" d="M769 130l-15-26 9 4.4L746.7 91" />
    <path fill="#da8e1d" d="M685.6 451.4l-3.3 14.3 16.6 64.5-1-14.2" />
    <path fill="#b19658" d="M1037 470l11 28.5-67.7 29 67-34.2" />
    <path fill="#927a53" d="M998.5 299l10 46.4 4.2-7-33.6-13.2" />
    <path fill="#e2c081" d="M61.6 591.8L55 591l13.4-31.6-10 11" />
    <path fill="#010202" d="M1038-.3l-218 17 112 46-54.4-14.2" />
    <path fill="#b29b2c" d="M623.3 313.7l-17-25.8-14.2 3 1 4" />
    <path fill="#070404" d="M365.4 161.5l15.2-102.8L418-6l20.5 102" />
    <path fill="#eddb8e" d="M343.5 457l-11-30.5 7.8-5.6 2.7 23" />
    <path fill="#695724" d="M809 671.4l-13.8 9.2 3.3-16.4L810 686" />
    <path fill="#625511" d="M412.6 484.7l-23.8 8.6-1.6-21.8-9 28" />
    <path fill="#f0b745" d="M564.6 513.6l46.5 88 7 2.4-7-18" />
    <path fill="#daa753" d="M566.4 575L536 491.5 470.2 624l64.5-136" />
    <path fill="#8f6e34" d="M536.8 599.7l-8.2 51.3 4.6-5.8 4.6-29.5" />
    <path fill="#8b4e0b" d="M677.4 713l-44-77.3 23 45.5 9-29" />
    <path fill="#795c37" d="M896.7 103l-11.4 15.3 27.5-53.5L888 78" />
    <path fill="#f8de8d" d="M547.6 340l6 33.3.5 4-3-35" />
    <path fill="#a58e50" d="M558 309.8l-1.4 8.4-11.7-19.5-2-22.2" />
    <path fill="#f4dca7" d="M669.6 145.8l26.4 52.4-5.5 31-9-80.7" />
    <path fill="#4e3806" d="M809.7 546l13-25 23.2 10.4-30-19" />
    <path fill="#433212" d="M574.4 398l-6.6 11-27 32.7 1.6-26.4" />
    <path fill="#ac8434" d="M359.4 603.2L386 713l-10-64.3-13.6 16" />
    <path fill="#e3dda8" d="M641.8 526l-8-29.2 18.6 40-6-20.4" />
    <path fill="#303134" d="M165.4 226.4L137.6 276 108 247.7l13 43" />
    <path fill="#f3cf7d" d="M604.2 557.4l-16.8 9.8h38.4l30.4 35.6" />
    <path fill="#fff4c4" d="M565.2 291l2-1-11.4 44.5 4-34.4" />
    <path fill="#6d4a2b" d="M440.3 405l-13.3-1.6-3 5 19.6 6.2" />
    <path fill="#ea9315" d="M457.4 561l-4 21 14.3 46 1.5-5" />
    <path fill="#201f23" d="M-31 403.2l70.8 39.2 16.8-88.6L72 398.5" />
    <path fill="#c2994f" d="M564 411.2v10.5l6.4-14.3 74.5-42" />
    <path fill="#bea243" d="M983.4 382.5l-1.5 19-16 7.5v-8" />
    <path fill="#3f3523" d="M699 407.6l22.3 54.8-6.4-23-1-20" />
    <path fill="#a58148" d="M968.8 353.6l42.8-4L975 362l-8.4-44.4" />
    <path fill="#c8b688" d="M650.6 565.2l-4.8-5.6-10-34.4 15 37.7" />
    <path fill="#846736" d="M894.3 658.5l58 54.5-47.6-26.2-4.6-44.5" />
    <path fill="#937226" d="M532.3 374.7l-15.7-56-16 65.6L502 351" />
    <path fill="#68491b" d="M877.2 550l5.7 109.5-53 26.3 62-20.6" />
    <path fill="#9a7e14" d="M896.5 533.3l14.4-49.5 6 15.6-7 23.6" />
    <path fill="#e09a2f" d="M648.3 453.6L626.6 406l25 67.7L693 590" />
    <path fill="#1f1406" d="M102.4 236L96 261.8l64-123.4L90 209" />
    <path fill="#5f4913" d="M501.2 456.4l-25.5-32 34 45.2 6.5-22.5" />
    <path fill="#574122" d="M763 361l-15.3 39.2 13-9.8-3.5 44.2" />
    <path fill="#896640" d="M711.6 193l46.8 47.7-43.4-4.2 25-16.2" />
    <path fill="#bb9416" d="M469.6 355.2l16.4 9.4 4.2-15 2.7 15" />
    <path fill="#f5f3e1" d="M84.4 541.6L77 550l-2 14.5-8-9.6" />
    <path fill="#ccaa6d" d="M762.4 479.5l22.3-12.6-9.8 39-24-37" />
    <path fill="#baa56c" d="M398 554l-15.6-26-5-18 13.6 6.7" />
    <path fill="#421a03" d="M767 635.3l2-34.6-15.7 1.7.4 51.2" />
    <path fill="#c5a958" d="M607 609.3l-142.4 36.3 61.7-11.3 25-13" />
    <path fill="#252014" d="M402.3 315.3l20.4 62 16.6-34.3-22.5-10.7" />
    <path fill="#1b0f05" d="M294.5 448.3L275 428l-6.2-40.7 22.4-20.7" />
    <path fill="#e3d4b4" d="M1019.3 2.2l-5.2 32.3 25-55 16 125" />
    <path fill="#eccb7c" d="M761.6 141L744 174.8l42.2-62-7 21.8" />
    <path fill="#c2882a" d="M765 294.7l-.4 1.7-.3 48-4-88.4" />
    <path fill="#f4da96" d="M517.3 244.8l33.6 12.6-13 41.4-4-75.6" />
    <path fill="#da9836" d="M528 542l29 23 20-124.5-27 119" />
    <path fill="#fbb844" d="M496.4 412.4l-.4-24-38.5-32 23.7 28.3" />
    <path fill="#4c3307" d="M830.6 522.2l54-20.5-49.4 23.8 40.5 41" />
    <path fill="#805a18" d="M637.6 370.6L604.8 467l20.5-60.7 5 8" />
    <path fill="#f1c267" d="M922 332.8l-4.7 3.7 1.5 15 7-19" />
    <path fill="#b5904f" d="M590.5 305l67.2 124.8-55 26 56-22.7" />
    <path fill="#807908" d="M421 468.2l8.3 12-30.7-8-3.7-13.5" />
    <path fill="#2d2010" d="M997.6 43.4l-8-4.2-4 34L975 59.5" />
    <path fill="#fcea9f" d="M498.6 422.3l4.3 6-20-28.8-15 5" />
    <path fill="#26160a" d="M252.8 407.2l13.8 12.8 9 20.7-9 6.7" />
    <path fill="#dfaa37" d="M349.6 691.5l-7.8 7-3.6-14.3-57.5-85" />
    <path fill="#f5ebc7" d="M947.3 101.8l-41.3 127 13-55.5 6-15" />
    <path fill="#221d17" d="M221.4 441l19.2 37-83.7-79.6-1-1" />
    <path fill="#cba608" d="M417.8 403.2l-27.6-4.4-3.3-6.3 41-18.4" />
    <path fill="#896124" d="M103.6 666l15 47 15.4-68-18.4 23.3" />
    <path fill="#f8e7ad" d="M534 536.2l1.8-17.4-3.5-4.8-9 29" />
    <path fill="#2a2a2b" d="M315 309.4l19-83-19.3 6.5 28.6 65" />
    <path fill="#faefb6" d="M521.6 498.6l-2.6 15.7 1.3 2.6-21.4 38" />
    <path fill="#664931" d="M463 552l21.5-24.7-3.8 14.5v8" />
    <path fill="#e2ddbf" d="M34.5 656.6l2.2-3.8L50 643l-2.3 7" />
    <path fill="#26201b" d="M242.8 499.8l-9.8 10.4-13.2-6.4 26-8.6" />
    <path fill="#f7fac2" d="M398 675.2l3 24-8-23.6 4.7-2.8" />
    <path fill="#a8a618" d="M436.4 653.3l-27.6-29.6 29.6 40 24.3 49.3" />
    <path fill="#6e3d15" d="M314 475.3l-9-46 23 63.6 5.2-26" />
    <path fill="#f8dd9f" d="M654.7 370.3l22.7-13-8.2-7.4-5 34" />
    <path fill="#b5aa4d" d="M856.2 470.5l29 5.8 3.8-2.5-47.6-.5" />
    <path fill="#f2cf8b" d="M757.5 223.7l-21 7.3 29-29.7-35.2 5.2" />
    <path fill="#401700" d="M512 679l-35.5 24.8 42-6 1 20.2" />
    <path fill="#5e492d" d="M847.7 168.8l-7.4-4.6-6 8 13-4.8" />
    <path fill="#7d5e3f" d="M740.4 218.2l-33.2 51.6L700 286l-1.4-23.5" />
    <path fill="#d0b97c" d="M236 409.3l-.3 6L256 421l5 13.8" />
    <path fill="#f6e4a4" d="M566.3 298.6l-30.2-4 31-5.5 9 40" />
    <path fill="#4e402e" d="M887.3 149.8l-20.2-10-10 14.4 31-19.3" />
    <path fill="#dfca9a" d="M646.7 121.2l35.2 39.6-24-33 16 12.2" />
    <path fill="#e7bf7e" d="M509.7 485l-59.5-70.8-18.2 11.2 22.4-22.3" />
    <path fill="#ceb822" d="M693.3 594L661 548.3l-17-24 24 26.5" />
    <path fill="#432b0e" d="M883 629.6l-99.7-38.2 92 35 33.5-30.4" />
    <path fill="#e3a947" d="M793.3 478.4L791.7 305l1.6 78-7.3-18" />
    <path fill="#d8ad67" d="M681.7 190.2L671 178.5l-7 1 35 6.4" />
    <path fill="#4e3513" d="M885.7 663l.6 7.6 23-93.5-15 99" />
    <path fill="#cca638" d="M788.8 479.7l1.5.5L819 483l-3.5-11.4" />
    <path fill="#bb8927" d="M664.4 357.7l13 65.4-10.5-51 28 56" />
    <path fill="#110e0c" d="M747.3 138l-32.6 6.4-18.8-1 24-33" />
    <path fill="#d8bc69" d="M717 534l-18.4 4 23.6 10.5 3.4-.3" />
    <path fill="#ac9129" d="M590.7 564l-15.2-18.7 30.8 49-32.2-26" />
    <path fill="#b98f0a" d="M923.2 662.8l-26 50.2 7-26.8 4.6-19" />
    <path fill="#feeba8" d="M592.2 705.4l2-15.5-45-29 38.2 8" />
    <path fill="#ad7305" d="M741.6 538.2l5.7-14.4 5.6 22-35-8" />
    <path fill="#8f591d" d="M1003.5 461.7l-9.5-20.2-10 9.2 71 .7" />
    <path fill="#d8b800" d="M1022 520l19.7-41-19.4.3 32.7 138.4" />
    <path fill="#17140e" d="M685.2 150.4l11.3 1.4 26 36.7-6 21.2" />
    <path fill="#bfab83" d="M953.2 218.7l12-18.7-10.5 4.2-8-17.6" />
    <path fill="#ead7a2" d="M413.2 416.2l-10 13.3 9.3-4.2h-1" />
    <path fill="#b46e15" d="M796.3 443.3l-26.4-1v2.7l5 3.3" />
    <path fill="#343127" d="M59.6 225.2l-5-5-2.8-55L80.3 206" />
    <path fill="#af9c6e" d="M1047.4 52.7l-89-26.5 2-5-.6 10" />
    <path fill="#734c1f" d="M908.6 503.7l2-6.3L921 396.2l-2.5 58.2" />
    <path fill="#d4ab5d" d="M635 484.5L611 504l15.7-3-15.7-18" />
    <path fill="#0f0e0b" d="M21.7 580.3l8 14.7 14.5-13.3-12-71.6" />
    <path fill="#7b4c2a" d="M949.3 310.7l-16 35.7 6.8-5.4-1-20.6" />
    <path fill="#d7b472" d="M875.7 335.5l-9.3 27L876 344l12-38.8" />
    <path fill="#c4ba2d" d="M921.2 463l-7.7 42.8V490l9-49.7" />
    <path fill="#7b5804" d="M917.7 603l31.5 5.7v5.8l26.3-17.3" />
    <path fill="#b6ae41" d="M848.5 369.4l2.7 20.4 62.6-3.8-74 4.4" />
    <path fill="#302e2d" d="M199.3 499.5l-47-110 17.6 93 10-4.8" />
    <path fill="#7c5e3a" d="M974.3 385.4l-5.2-15.8 31-17-7 22" />
    <path fill="#f8f1ce" d="M97.5 623l-1.2-55 8.7 21-1.8 4.7" />
    <path fill="#e7b04b" d="M625.4 605.3l34.7 25.4-14-13.7-80-22" />
    <path fill="#f3da92" d="M376.3 534.4L368 497l-1.8-26.5-2.4 28.8" />
    <path fill="#bca144" d="M563.2 383.4l-10.2-1 4.4 1 29-67.4" />
    <path fill="#8d6730" d="M885.8 624.4l1.3 4.5 35-47-25 44" />
    <path fill="#1d1f22" d="M201.4 554.4l4.6 2 4.7-8-13.3-7.4" />
    <path fill="#070606" d="M730.8 28l92 82.4-41.6 25.5L816 21" />
    <path fill="#624a2f" d="M323.3 566.7l17.5 19.4-1.5-14 8.2-64" />
    <path fill="#f2d795" d="M753.7 173.7l-20.8-21 17 29.6 11 84" />
    <path fill="#e3d6aa" d="M179.4 517.5l19.2-5.4-10 16 30.7 2" />
    <path fill="#7c632e" d="M406.8 545.5l22.6 17.6-23.8-57 12-21" />
    <path fill="#493728" d="M271.7 593l-30.2 4.5 6-2.5 24 10" />
    <path fill="#ebcc8f" d="M931 326l30-106.8-25 63.7-2 13" />
    <path fill="#7c723b" d="M836.5 336.8l-1 3.2-16.4-14.2 39 51" />
    <path fill="#de9e2f" d="M893.7 373.5l16-96.2L886.2 392l1.2 9" />
    <path fill="#281000" d="M764.5 276.3l4 10-.4-5.3 1-5.2" />
    <path fill="#734914" d="M541 407.6l-4.8.7L529 423l-2.3-17" />
    <path fill="#706817" d="M491.5 642.3l45.8 4-52-1.6-2.8-10.6" />
    <path fill="#232222" d="M209.2 108.7L231 97.5l-8.6 47.5 18.5-6.4" />
    <path fill="#4e4833" d="M130.5 590.5l-1-24-2.7 29.7-.5 18" />
    <path fill="#23231d" d="M174.5 538l8 21.8 7-5.5L143 460" />
    <path fill="#f4e0ad" d="M656.3 212.6l-25.5-3.4 25.6 64.3-33.7-69.2" />
    <path fill="#eac784" d="M695.4 227.5l-67.2-.7 75.4.3-33 44" />
    <path fill="#0a0503" d="M880.4 105.8l-90.3 5.7 40 33.5 21-6.3" />
    <path fill="#c59d4f" d="M303.2 356.3l13.4 95.4-52.2 50.3 50.5-45.8" />
    <path fill="#fdefbc" d="M984 89.6l14.5-26.3 2.6-29-18 92" />
    <path fill="#733f07" d="M960.2 521.6l-.6-35L946 489l-1 48.6" />
    <path fill="#d4c018" d="M880.3 680.3l28 32.7-9-29.2L745.8 713" />
    <path fill="#e99e32" d="M281.7 494.8l-6.3 3.6 6 6.5 54.6 90" />
    <path fill="#de9f13" d="M738 441l-3.3 105.6 13.7 27.7L731 549" />
    <path fill="#c8a66b" d="M997 266l58 1-42 5.5 1.2-9" />
    <path fill="#a56918" d="M806 538l-16.5 7.2-22-38.2 50.7 55.6" />
    <path fill="#bba575" d="M196.8 451l1.5 18.3-1-11.7 22.2.3" />
    <path fill="#fdc85b" d="M763.6 128l-3.7 53.3 16-59-8-34.6" />
    <path fill="#bca06c" d="M883 125.4l-6.7-3 1.7 17-15-8.2" />
    <path fill="#5a4100" d="M996.8 566.3l44 26-21.2-18.2-9 20" />
    <path fill="#b59157" d="M890 174.8l-8.2-15.4 14.3-18.6-8 23.7" />
    <path fill="#d3c25d" d="M446.8 604.6l11 13.8 1.2-1-7.3-27" />
    <path fill="#d9d6b9" d="M336.3 366.5l-3.8-19.7 7 11.6-3.5-7" />
    <path fill="#c69826" d="M286.2 483.5l11.6-12-.8-43.6 6.4 61" />
    <path fill="#7e6133" d="M911 74.6l57-43.8-45.3 25.4 50-3.7" />
    <path fill="#785427" d="M898.8 269l9.5-.8-3.5 16-26.7 79" />
    <path fill="#1f1208" d="M342.4 418.8l20.2-60 23.6 41.4-1.6-13" />
    <path fill="#140d06" d="M796.3 593l24 7.2-12.6 16.7-4-20" />
    <path fill="#a87b19" d="M603.5 709l67.8-74.6 16 4-113.2 74" />
    <path fill="#3a2d2a" d="M963.7 23.2l-1.5 2.3 28.4-2.2-1 9.4" />
    <path fill="#d57c0b" d="M795.5 486l-1.6-52.2-2-163 7 286.2" />
    <path fill="#8e6a2b" d="M655.8 320.2l1.4 15.2-10.8 15.7 19.3-27" />
    <path fill="#886210" d="M628.7 677l-72.3 32.3L659 713l-53.4-39.5" />
    <path fill="#f7f0b1" d="M893 409.4l-2-4.6 7.4 2.7L887 418" />
    <path fill="#dfce6f" d="M437.3 673l-21.8-35 7.8 9.4-4 30.2" />
    <path fill="#8e6315" d="M645.2 575.2l14-9.8 5-6-4.7-10" />
    <path fill="#dbca98" d="M769 64.4l-11.5 77.3-11.4-39.5 14 30.2" />
    <path fill="#a05e0e" d="M965 550.6l-18-1-89 44.2 99.4-54" />
    <path fill="#c09f0e" d="M983.4 598.8l17.6 4-6.8-30-1.6 37.7" />
    <path fill="#d8bd8b" d="M10.5 614.2l-5-13.8 17.2 10.3 5.7-.6" />
    <path fill="#d58a0d" d="M832.5 470l10-22-9 8.7-14.5 11" />
    <path fill="#e3bc79" d="M901.4 264l22.2-88.4 4.3 3.4-38 108.6" />
    <path fill="#b4a37d" d="M201.7 419.3l1.6 1.5 8 9.6 20.3 11.3" />
    <path fill="#a08435" d="M521 588l-6.5 25.3-11.2-9.6 27-8" />
    <path fill="#f5e1af" d="M641.5 228.6l10.2-11.3-35-66 43.3 72" />
    <path fill="#695308" d="M1011.5 671.4l7.6 38v-32.7l-46-69" />
    <path fill="#b7894c" d="M909.4 141.5l9.2-18 4.3 28.2 6 2.7" />
    <path fill="#523712" d="M862 306.8L824.7 295l57 10.8 2.8-9" />
    <path fill="#704d1f" d="M502 452.8l37.6 24.2-9-11.7-3.7 3" />
    <path fill="#b58f57" d="M229.4 554l-5.6 10 36.3 5-47 17.4" />
    <path fill="#150e07" d="M286.8 246l47 104-53-55.4 12.7 54.5" />
    <path fill="#6d5121" d="M962 673.7l-26.7-26-61.4-41-13-2.3" />
    <path fill="#ffd91c" d="M724 504.3l2.4 18.7 5-20.5-8-13.2" />
    <path fill="#a67d12" d="M930 440.3l-7 18.6 2.6-32 14.4 13" />
    <path fill="#ce7800" d="M728.4 535.3l3.5-33.8 5 23.7 10-9" />
    <path fill="#29272b" d="M67 323.8l-.7 7-46 21.2 27.5-35" />
    <path fill="#dea346" d="M794.5 198.4l5 35.2v35.6l-9.8 71.4" />
    <path fill="#fde494" d="M537.4 559.7l39.2 21.2-37.4-26-3.7 3" />
    <path fill="#ecc874" d="M531.8 578.4l47.5-19-8.8 22.2-1-18.7" />
    <path fill="#69521d" d="M458.4 451.5l3-6 23 26-8.5-18.8" />
    <path fill="#221c15" d="M250.6 430l-28.2-57 21.2 36.5-9.5-42" />
    <path fill="#b27e2d" d="M270 524.3l-24.4-44-12.3-7 25.4 23" />
    <path fill="#a78156" d="M752 286l5.6 13.5-17 72.8 21-24" />
    <path fill="#272119" d="M684.5 164.2l-.7 5.5 38.8-40.2-18.2 17" />
    <path fill="#443e41" d="M140.3 251.5l22.8-14-17 19.5 3-1.8" />
    <path fill="#664c2e" d="M1006.6 225.7l-5.7-17-21 75.5-8 2" />
    <path fill="#2a2b2c" d="M235.3 351.4l2.6-54-42 41.4 38 18.8" />
    <path fill="#e8c278" d="M56 674.3L36 713l-21-37.6 14.2 15.2" />
    <path fill="#492b0d" d="M1012.6 633.2l42.4-23.7V654l-48.8-35" />
    <path fill="#150c04" d="M370.3 254.6l-19.2-24 130 12-130-1.7" />
    <path fill="#dd9d46" d="M10.7 654.4l-5-20L-31 606l18.4 32.3" />
    <path fill="#452e02" d="M750 588.4l17-26.4-6.3 20.2-9.2-5.8" />
    <path fill="#ad8b57" d="M844.6 182.6l5 18.6 11-16.7-49.3-28.5" />
    <path fill="#bfa676" d="M409.8 270.7l-50-2.4 24.2 22.4-28-22.6" />
    <path fill="#81641f" d="M577 363.4l-8-7 6.8 22.4-15.8-2.5" />
    <path fill="#252226" d="M-31 323.7v-17.5l97.8-33-26.6 39" />
    <path fill="#5a3f13" d="M835.5 336.3L822 295l23.5 17-40.7 27" />
    <path fill="#7b4823" d="M741 634.4l-3.6-8.5-27.2-18-6.4-4" />
    <path fill="#d2ab5e" d="M503.7 566.5l-5.7 21.7-14 19.3-15.6 13" />
    <path fill="#f6e1aa" d="M674.4 245l-14.7 1.2 10-17.4 1.5 8.6" />
    <path fill="#f5e9c4" d="M652 260.3l-9.6-20.2 22 51-6 26" />
    <path fill="#b5a528" d="M731 390.2l2.5-22.5 29.8 47-31.3-44" />
    <path fill="#b5af05" d="M382.6 488.6l12.3-14.2-3-42.4 3 58.4" />
    <path fill="#150c06" d="M388.2 194.4l3 90 21.2-11L268.4 95" />
    <path fill="#e7bb58" d="M1017 326.8l-16 45.5-20 70.7 5.8-18.3" />
    <path fill="#0a0400" d="M-31-.8l9.2 50 94.5-61L34.3 2" />
    <path fill="#c8b424" d="M457.4 660.2l-42.5-46 15-21.8-6 49.2" />
    <path fill="#966c39" d="M104 621.6l-12.5 64.7 8.7-60.4-25.5 9" />
    <path fill="#ead3a3" d="M729 181.8l-10.6-32.5 35 48.2-33-17.7" />
    <path fill="#c09f63" d="M830.3 158.5l-27.6 24.8 4-14.2 26 8" />
    <path fill="#d4c890" d="M936.5 547.7l-52.6 27 2-5 8-2.8" />
    <path fill="#8e841a" d="M669.5 295.7l11 7L668 278l6.2-1.7" />
    <path fill="#211005" d="M259.2 464.3l-6.4-18.5-5 17.7-15.3-21.3" />
    <path fill="#ebbd6d" d="M762 215.7L745 150l33.7 37.6-36.8-41.3" />
    <path fill="#996511" d="M339.4 418.6l15 33 12.4 1-.8-9" />
    <path fill="#dac284" d="M142.4 622.5l11.2-8.5-11.3-.5L134 591" />
    <path fill="#170f09" d="M375.8 331.8L339 298.2l-85.7 54 37.8-59" />
    <path fill="#897213" d="M651.4 408.8l-36 15.6 48.5-15 24 26.6" />
    <path fill="#503513" d="M121.6 677.7L171 713l-45-52.7 25 14.3" />
    <path fill="#ebdcaf" d="M685.7 140.3L663.5 159l19.4-37.8-30 23" />
    <path fill="#72603e" d="M584 251.4l2 6-10.6-2.8-4.2 15.8" />
    <path fill="#c29929" d="M1010.5 410.8l-28.8 4.8h36.2l-8 21.7" />
    <path fill="#181009" d="M582.5 192.3l28.8-25-54-.4 69 13" />
    <path fill="#c3ad03" d="M1012 672l-15.5 41h42.5l-50-52.6" />
    <path fill="#8b6b3f" d="M545.3 514l-7.6-4.7H550l-4 23.8" />
    <path fill="#df9742" d="M658.8 327.5l-11.6-56-14-27.8 3 5.7" />
    <path fill="#e4a94e" d="M605.4 458.6l-29-67-84-176.4L580 406.6" />
    <path fill="#332d0d" d="M869.7 576.2l-3.3-44.7 7 13.5-19 19.7" />
    <path fill="#ada708" d="M904 509.4l-4.8-21.6-5.4-3.3L906 521" />
    <path fill="#d3a34f" d="M318 610l14 28.5-4.3-24.6-2-15" />
    <path fill="#f0d88c" d="M590.2 559l11.3-3.3 43 31.7-27.2-27.7" />
    <path fill="#fff3be" d="M782.2 293.3l2.8-49 9 42-7.6 3.3" />
    <path fill="#7a6140" d="M147.3 642l6.4-8 3-15 71.8-22.5" />
    <path fill="#f2c169" d="M613 710l-15-32.7-58.7-28 34.3-4.5" />
    <path fill="#eac773" d="M985.5 161.2l13.7 5.5-4.6-11-1-25" />
    <path fill="#1c1006" d="M562.3 230l4.3 30 44.8-25.5-44.3-90.2" />
    <path fill="#59452c" d="M320.4 571.7l.5 1-21 16 2-12.4" />
    <path fill="#623705" d="M924 504l-1.5 12.6 7.4-3.4 6 17" />
    <path fill="#f4d17f" d="M601.3 369.8l-7.6 40.4-6.2 11.7-18 44" />
    <path fill="#f6f3d9" d="M214.8 566.2l14.5-18.7.3 2.2-13.6-12.2" />
    <path fill="#fdf4c0" d="M537.6 646l-2.3 3.8 43.6-8-19-1" />
    <path fill="#6a4926" d="M1018 264.3l37-68.8V101l-32 128.7" />
    <path fill="#8b6438" d="M633 428.6l-54.2 10.2L589 452l5-16.3" />
    <path fill="#8e6534" d="M735.8 284.6l-23.4 87.8 19.2-59.6-13-40.6" />
    <path fill="#050504" d="M1013 11.3l-2 17.8 15.3-60-231.5 41" />
    <path fill="#9f8f4c" d="M641 338.4l8.6-25.6-9.6-2.2 8 13.8" />
    <path fill="#aa7c4c" d="M477.8 618.3L455 492.6l26.4 102h2.3" />
    <path fill="#fad984" d="M268.6 473.2l16.4 17.6-33.4-.6 22.5 13.3" />
    <path fill="#bf952c" d="M941 481l-4.8-89.6 1.6 85.6-.8 52.2" />
    <path fill="#c06f16" d="M963.3 438l5.2 39-6 5 9.8-41" />
    <path fill="#f6dba5" d="M1019.3 107.7L1031 242l-6.6-195 30.6 91" />
    <path fill="#eee0b3" d="M562.4 474.5l8.4 9.5-23.7-43.2v2.8" />
    <path fill="#e7c98b" d="M926.2 290.2l-.3-12 27-39-42 63.5" />
    <path fill="#e5d37e" d="M649.2 391.3l-1.8 1.8H664l10-4" />
    <path fill="#967954" d="M913.3 236l-3.3 24.6-23-37.6 4.2 46.5" />
    <path fill="#c1b414" d="M328.2 637.5l71.6 75.5-15-5.4-44.2-46" />
    <path fill="#e9e0bf" d="M949 101l-8.2 23.3-6-19.4 10 13" />
    <path fill="#7e512c" d="M486 603l-8.2 19 8.5 21.2L485 614" />
    <path fill="#1f140b" d="M356.6 391.3l36.3-17.6-39-4.2 39-4.7" />
    <path fill="#776511" d="M500.2 628.3l18.4-1.2-21.4 18 17.4 7" />
    <path fill="#c2ad17" d="M509.7 635.6L504 557l10.4 80.3 1 5.4" />
    <path fill="#a18053" d="M298 538.4l-15 25-26-4 19.5-17.8" />
    <path fill="#cfb16e" d="M471 637.2l-5.3-6.2 24.7-7 11.3-1" />
    <path fill="#905f26" d="M907.2 417.5l11.3-44.2 5.7-24.2-4.5 3" />
    <path fill="#ebbd3f" d="M469.8 630l-10 36.7 15-32.5 1.7-2.4" />
    <path fill="#5c2b00" d="M79.3-31h124.5L120.3 5.7" />
    <path fill="#dbaa39" d="M925.2 409l26 1.7-12.6 10.5-8.7 10.2" />
    <path fill="#6d5c49" d="M92.8 673.7l-30.3 10.8L71 666l24-3.4" />
    <path fill="#dfd8bf" d="M477 661.3l11.5-6.3-13.3 1-3.5-3" />
    <path fill="#6d4d26" d="M362.5 450.4l-9 16.2 24.3 16-19.3-12.8" />
    <path fill="#cf911f" d="M644.7 675l-84-65.8 1.3 4 82.2 54" />
    <path fill="#f8d78b" d="M99 620l-3-50.6-4.8 58 31-25.5" />
    <path fill="#2a2920" d="M400.6 313.8l14-26-13 41.4 41-13.2" />
    <path fill="#221d16" d="M693 158.6l38.2 33-34.8-6.4 5.7 25.4" />
    <path fill="#deba62" d="M595 624l-33.5 38.6-26.5 5.7-9 14" />
    <path fill="#c89446" d="M800.4 416.6l.3 13.5-34 9 26.4 1" />
    <path fill="#edcf8f" d="M672 131l-19.6 55-22.7-44.7 36.5 55.3" />
    <path fill="#e3c78c" d="M370.5 492l3 40.8-7-50-27.4 26" />
    <path fill="#da9f36" d="M631.8 551.3l-9.5 3.3 19.4-4-40-85.7" />
    <path fill="#7c880f" d="M872.7 573.2l5.2-11.5-5-25.7 11 20.2" />
    <path fill="#7d6141" d="M677.3 293l-11-44.5 2.6-2 1 3" />
    <path fill="#e0c478" d="M635.3 632.4l10-21-16 19.6-12.8 7.2" />
    <path fill="#f4dd9b" d="M387 275.5l-21-20 13.3 58.6-4-68" />
    <path fill="#e5dea9" d="M502 483.7l8.2-9.2 3.2 10.4-9.4-3" />
    <path fill="#cd8d35" d="M775.4 361.4l-.2 14.8 5 61.5v-197" />
    <path fill="#eacf91" d="M443.3 393.4l22.4 25.2L467 441l-21.8-40" />
    <path fill="#f1dba8" d="M784.3 176.8l5.3 4 13.2 32-23.3-73.7" />
    <path fill="#130b06" d="M396.5 91.2l-12.8 176.5-24-136 84 98.6" />
    <path fill="#e5a547" d="M587.2 399.2l10 48.4-8.8-6.7-9.4-70" />
    <path fill="#c7a969" d="M487.2 642.3l4-72.7 4.7-29-6 12" />
    <path fill="#050405" d="M860.4 7.6L879.8 121l-68.3-15-31.6 9" />
    <path fill="#50361f" d="M901 369.7l5.2-24 8.7-5.7 2 3.7" />
    <path fill="#f5ecc0" d="M626 359.5l3-39 5.2-7.8 9.5 4.7" />
    <path fill="#35240c" d="M886.6 661.7l23.3-5.5-10-3-7 18.8" />
    <path fill="#fbf3cf" d="M587.6 295.7L573 272.2l20.8-18.4-5.7 29" />
    <path fill="#f8e8b8" d="M947.4 294l-1.8-68 4-26.6 7.4 59.3" />
    <path fill="#1e0703" d="M717.2 617.8l12.8 7.6-.2 21-11.7-25" />
    <path fill="#ede8c7" d="M120 588.4l17.2-37.6-7.3-19.4 9 3.7" />
    <path fill="#febb4a" d="M392.2 347l-10.5-65.2 1.2-16.4-9-2.5" />
    <path fill="#634707" d="M982.5 702.3L971.8 630l-34-13.3 40.5 26" />
    <path fill="#826122" d="M642.8 651.4l83.4 15.3-99.8-18.8-11.3-12" />
    <path fill="#b1ab13" d="M385 505.3l18-8.6-15.2 16.7-8.5-14.5" />
    <path fill="#7d8603" d="M845.6 397l-.6 19.3 3.2-32-4.3-39.5" />
    <path fill="#965b00" d="M707.8 481.4l15.7-8.4-2.7 17.7-5-.6" />
    <path fill="#695131" d="M1017.5 173.8l-22.2-27.5 9.3 29-4 22.7" />
    <path fill="#9d8259" d="M886 256.2l-73.5 45-3.3 1.3 60.4-59.7" />
    <path fill="#e9d294" d="M788.7 264L763 248.2l-19.5 3.6 11.7-13.8" />
    <path fill="#a55f24" d="M621 430l1.5 7.8-2-17.2-15.3-17.7" />
    <path fill="#e8c994" d="M494.6 216.6l-20-8 17 16.3 14 44" />
    <path fill="#f5ecc0" d="M659.6 537.2l5.5 6.4-19-23-24-15" />
    <path fill="#332a1b" d="M844 90l63.5 48-11 19.5 9-23" />
    <path fill="#e8cd7c" d="M545.6 355.8l5.7 4L555 377l-11-2.3" />
    <path fill="#f3e2b7" d="M1007 88.7l21.5-71 13.3 35-10.3-.5" />
    <path fill="#a77734" d="M895.7 326.5l-8.8-21.2v29.5l3-1.4" />
    <path fill="#e0a74e" d="M1010 42.4l-39.7 131 33.7-96 10.7-24.2" />
    <path fill="#d2b972" d="M482.6 603.7l9.8.3-1.5-6.4-10-19.6" />
    <path fill="#bc9f2d" d="M502 420l5.3-22.8-4-21.5 8.5-.4" />
    <path fill="#684419" d="M112.8 630.4l-2.2-6 .5 23.6-4-33.4" />
    <path fill="#efeeda" d="M935.2 132l13.4-39.6L964 71l.7 3" />
    <path fill="#793b06" d="M989.8 556.3l-9.7 6 13-12-14-24.5" />
    <path fill="#292b2d" d="M139.3 485v3.8l42 27.8-46 6.5" />
    <path fill="#f9eeba" d="M110.3 556.6l3 48.8 10-72.6-22.8 56" />
    <path fill="#c78424" d="M768.3 382.6L764 398l1.6-45.3 5.3 39" />
    <path fill="#414752" d="M85 421.5L69.6 395l-.6 16 6 8" />
    <path fill="#1d1209" d="M544 192l7.3 52.5 18-91 34.8 104" />
    <path fill="#a1783a" d="M976.2 492.3l-41.7-15-17-4.8 79.8 30.6" />
    <path fill="#f7e5ad" d="M753.8 205l-17.2-34.3 16.7 53.6L758 210" />
    <path fill="#591103" d="M782.3 575.3l-4.7 8.5 2.3 17.5 3-19" />
    <path fill="#eaa72b" d="M903 417.6l-1.7-3.5 13-59h4.3" />
    <path fill="#dda542" d="M630 387.2l10.6 60.5-15-61.6-30.6 16" />
    <path fill="#946b32" d="M943.8 302l-43 60 37-51.2 11.7-10.7" />
    <path fill="#fbe2a1" d="M30.5 664.3l-2.6-9.7-2-10.7 10 20" />
    <path fill="#1c130b" d="M531 137.2l85.8 84.7-30-57-11.2 97" />
    <path fill="#856938" d="M499.4 529l15.2-23.8 2.3-.2-19 40.6" />
    <path fill="#d38e37" d="M674.4 194.8l7-11.2 5.3 34v13.6" />
    <path fill="#f5d28b" d="M621.7 371.6L637 366l-28 20.7-29 43.3" />
    <path fill="#9c805d" d="M186.4 658.6l-7-6.5-12 26-11.7-10" />
    <path fill="#c28f49" d="M742.6 390.3l13.8-42.8-.7-.8.6-20.3" />
    <path fill="#e5bf00" d="M496.5 713l-12.8-39-19 39 69.7-.4" />
    <path fill="#f2d597" d="M123 521.8l1.6 7.7 15 4.4-13.3-31" />
    <path fill="#cd871c" d="M928.2 324L926 438l-3 50-.6-35" />
    <path fill="#b2a406" d="M1021.7 626.6l18.3.8 15 19.8-35-41.3" />
    <path fill="#c6a86a" d="M325 504.6l-8.2-2.5 47.5-32-28.2 15" />
    <path fill="#ba9b67" d="M695 674.5l-2 18-2.4-23.3-9.7 20.6" />
    <path fill="#4b381a" d="M652 239.4l3.6 14.8-7-22 7.8 2.6" />
    <path fill="#3b1b0b" d="M843.7 223.6l5.2-3 14-1.3-16-2.8" />
    <path fill="#302c27" d="M124 487l-39.3-39 39.8 29 58.2 25" />
    <path fill="#292416" d="M440.5 341.5l-30.3 21.2 8.6-24.2-3.3 39.8" />
    <path fill="#1b160e" d="M828.2 615.7l6.3 21-19.5 45.8 10.2-54.6" />
    <path fill="#eed9a2" d="M961.4 252.6l-26.5-57 38 81.4-6 19.3" />
    <path fill="#6b4c2b" d="M864.3 317.6l-8.5 11.5 28.8-27-20 67" />
    <path fill="#b7ae01" d="M864.7 409.2l-13-15L858 372l2 30.6" />
    <path fill="#b88f4b" d="M408.6 670.2l-26 38.5L410 676l30.4 10" />
    <path fill="#7b470d" d="M642.8 662.5l68.6 50.5-57-36.3-20.7-39.8" />
    <path fill="#0e0d0e" d="M824.3 39.8l-10 55.5-37 2v-2.6" />
    <path fill="#352d20" d="M924 116l4.2 14.7 3.5-21 6 10.5" />
    <path fill="#e6cb90" d="M71.5 651.6l-6.2-2L81 643l-2.6 15.2" />
    <path fill="#f6e9b8" d="M751.2 401l9 21.4-15.6-14.8-3.4-4.5" />
    <path fill="#4f370d" d="M596.4 409.5l7.6 3 14-11 1.7 9.5" />
    <path fill="#eccf92" d="M822 253.2l-29.4 33 14-10.8L805 254" />
    <path fill="#3c2717" d="M870 660.3l-24 40 1.5 12.7 19-45" />
    <path fill="#f9f6d3" d="M683.5 140.8l-11.3 3-4.2-7.5 10 21.5" />
    <path fill="#ddc390" d="M815.3 279.2l-14 16.6 12.7-35.6-6-7.5" />
    <path fill="#342900" d="M687.8 341l3.8-21 10.3 21.6-7-14" />
    <path fill="#17130e" d="M104 367l41.7 132.6-10.5-.5-4-44" />
    <path fill="#b8a247" d="M913.2 406.7l-13.6 38 2-17.2 22.2-32.5" />
    <path fill="#947449" d="M901.8 62.8l29.5 3.2-7 5.8-10.7.6" />
    <path fill="#faebb7" d="M911.7 233.2l31.8-72.3-23.5 91 10.5 12" />
    <path fill="#837205" d="M801 492.5v53l9.6-32.4-5-30" />
    <path fill="#91631e" d="M623.5 379l7.7-6.4 4.2 13.8 1.5 7.6" />
    <path fill="#c2b81e" d="M440.2 656l-26 7.5-7-21 9.5 5.5" />
    <path fill="#19130a" d="M-21.7 192.8L37.5 261l-7.8-53.5-9.7 50.2" />
    <path fill="#090405" d="M661.7 136l-36-56.6 95.5 10.4L579.2-31" />
    <path fill="#7b7702" d="M904 524.7l.4 9.3 2 28.8L915 520" />
    <path fill="#f6dc86" d="M487.6 376l-21 3 19.6 37-15.3-71.2" />
    <path fill="#7c613d" d="M994 189.2l22.3 66.7-39-63-14.8 32" />
    <path fill="#341b00" d="M764.7 586.4l-5.4-26.3-1.6 1 3 21" />
    <path fill="#fccf6f" d="M630.6 155.6l15 45 39 52.8-5-12" />
    <path fill="#c4a975" d="M858 170l18.3-21-23 19.2-20.2 6" />
    <path fill="#d3b44c" d="M378.2 637.3l-5.6 6.2-6.5 6 5 13.7" />
    <path fill="#283037" d="M104.8 532l-11-55.8-7.2 67L97 508.8" />
    <path fill="#d6b162" d="M640.8 658.5L629 639.7l-98.2-42.5 92 40.2" />
    <path fill="#b3950d" d="M436 360l-9.8 29.5-14.8 14.7 25-13.6" />
    <path fill="#b1a276" d="M331.4 438.4l-15.6-24-25.3-16.4 13 3.7" />
    <path fill="#38210c" d="M871.5 628l-35.3-19.8 81 36.5-41.3-22.3" />
    <path fill="#a36e0f" d="M939.5 666l-7-6.5-7.3 24.8-16.6 28.7" />
    <path fill="#d6b05a" d="M625 523.7l48.7 64L627 578l46.4 6.2" />
    <path fill="#94783a" d="M498.3 558.8l-4 72.4 1.6-90-23-81" />
    <path fill="#8b5b28" d="M743.6 614.4L731.3 647l3-20 33-37" />
    <path fill="#ffecad" d="M926.4 312l-5.3-49.4 5 7.5 3 31" />
    <path fill="#3d1603" d="M961 433.4l4.5-38.3-6-2 4.8 52" />
    <path fill="#ead6b9" d="M724 691.7l-36-.4 1-14-8 18.8" />
    <path fill="#2c2b2b" d="M212.8 328.4l68.6-23.2-4.7-46.4 12.5 18.2" />
    <path fill="#433135" d="M693.3 412.8l-.5 2.4-9.8-18 6.5-2.6" />
    <path fill="#19140c" d="M11.3 613l.6 19.3L-31 505v102.3" />
    <path fill="#7d671d" d="M489 671l8.5 18-21-28.4-8.6 5" />
    <path fill="#9c7b53" d="M110 713l-29.3-59.2 34.4 2-69 50.6" />
    <path fill="#ca7726" d="M773.5 145.3l-4-18.6 1 62.3 11.8 5" />
    <path fill="#0a0801" d="M822 617l6.5 32-14.6-31.5 26-10" />
    <path fill="#d99837" d="M580 303.3l3.8-8.2 13.5 44 71.4 176" />
    <path fill="#d6bf62" d="M445.7 637l-19-3.3-34-21.2 52.3 24.8" />
    <path fill="#e1a33e" d="M714 341.6L725.7 484l-19-129.4 15-52" />
    <path fill="#b89a3c" d="M934.8 469l7 .8-31.3 19-17 4.3" />
    <path fill="#a96a1e" d="M568.5 553.2l-1.5-6.6-8-18.5-.4 34" />
    <path fill="#996d2f" d="M625.6 510.2L653 507l9.8 21-14.4-15.5" />
    <path fill="#a38435" d="M463.2 652.2l-27-13.2 38.6 17 17.2-8.6" />
    <path fill="#523c10" d="M563.5 433l-1.5-50.7-9.8 64.7 19.3 11.3" />
    <path fill="#cf8e1f" d="M631 627l28.7 39 35.2 25.5-41-23.7" />
    <path fill="#c1a467" d="M925.6 445l8-4.5 1 12.4 2.8 9" />
    <path fill="#ab7927" d="M689.3 484.2l19-6-3.2 1.2 5 67" />
    <path fill="#ae8d1e" d="M611 659.5l30.2-1.4-73.8-19-2.5-10" />
    <path fill="#8d6e42" d="M961.5 11L978 127l-21.5 3.2 20.5-18" />
    <path fill="#fcd98e" d="M288.4 457.2l-6.7-4.3 12 33-4-22" />
    <path fill="#b67511" d="M697.2 530.6l21.8 65.7-28.4-62.3 12-1" />
    <path fill="#ead5a5" d="M810.5 232.6l-6 11.5-2.7-67-2.3 36" />
    <path fill="#8a6c0b" d="M929.2 620l-1.3-7.8 27 13-6 6.2" />
    <path fill="#947109" d="M957 581l-5.4 25.4 32.7 44.2-.2-8.3" />
    <path fill="#8d602e" d="M789.3 349.7l.4 2.2 2 7-8 25" />
    <path fill="#2e2e2e" d="M118.8 386.6L91.2 415l13.8-26 53.7 21" />
    <path fill="#b59329" d="M828.4 515.5l-1.8-32.8 5 9.4 1.4 39" />
    <path fill="#292721" d="M422.3 248L408 262.5l17.2-.4 6.7-12" />
    <path fill="#ddbd7d" d="M764.3 428l-4.6 29 17.5-41.3-35.2 51" />
    <path fill="#27231c" d="M206.6 500L196 478l-34-29.6 82 43" />
    <path fill="#f9dc9d" d="M775.3 78.5L773 84l8 54.7-17-59.2" />
    <path fill="#89683b" d="M150.3 602.4l28.3 2-38-2-11.4 39.2" />
    <path fill="#3f260f" d="M823.3 241.3l-2.6 1.7-.6 6-9-3.5" />
    <path fill="#8a714e" d="M279.4 622.3l17 2-39.7-25.6 8.8 47.4" />
    <path fill="#f6eab5" d="M673 354.5l3-18.4-9.3 17 4.6 14" />
    <path fill="#694813" d="M689.3 665l1 32 39-22.7-33.5 35.2" />
    <path fill="#4f3320" d="M368.4 396.8l26.6-17.4 1.8 4.8-13.6-.6" />
    <path fill="#fae8b7" d="M1031.2 166.3l-4.7-14.4-7.8 53-1.6-52" />
    <path fill="#735632" d="M1055 281.3V202l-64 39.7 18-37.4" />
    <path fill="#1b1913" d="M199.2 386l25.8 9.2 2.5 36-19.3-10.2" />
  </g>
</svg>