<svg version="1.1" viewBox="0 0 1024 682" width="1024" height="682" xmlns="http://www.w3.org/2000/svg">
  <g fill-opacity=".5">
    <path fill="#ccae70" d="M264.7 511.7l-8-77-14-27.2 13.5 15.3" />
    <path fill="#e49323" d="M382 327.6l.6-25 35.6 102.6-40-141.3" />
    <path fill="#fae7ad" d="M925.2 274.4L897.8 264l25.8-2.3 9.4-123.5" />
    <path fill="#815326" d="M570.4 532.7l1.5 13-14 15.6 5-35.8" />
    <path fill="#efdeab" d="M973 269.4l-.7-35.7 15.6.2-41 12" />
    <path fill="#a96425" d="M760.4 594L729 633l52-54.7 3.8-22.8" />
    <path fill="#df9c39" d="M962.6 279l-8.5-22.5v27.7l5 30.3" />
    <path fill="#bea203" d="M980.3 648l-15.5-60 9.8-21 3.6 28.8" />
    <path fill="#cdba04" d="M1055 686l-58.2-10.4-5-16.4L1055 713" />
    <path fill="#f2b54e" d="M621.4 140.7L695 263l23 132-29.6-132" />
    <path fill="#967752" d="M524.5 556.5l31.6-65-12 54.8-1 6.6" />
    <path fill="#23190f" d="M365.2 322.8l13 7-40.6 8 10.3 81" />
    <path fill="#e2992e" d="M597.4 346l73.3 170.2-61.3-150.5-27.7-65" />
    <path fill="#e3ad49" d="M478.6 629.6l-14-8.6 11.8-14.5L450 698" />
    <path fill="#86561d" d="M793 419.8l14.7 50.5-4.4-94-4.4 18.3" />
    <path fill="#362704" d="M920.5 539.2l16.3 6-.2-45.5-3 15.3" />
    <path fill="#f2d99d" d="M759.4 250.6l17.5 2.7-41-8.5 28-6.5" />
    <path fill="#966b1c" d="M277.3 461l-15.6-76.8 30 106.6-18.5-13" />
    <path fill="#bead87" d="M73.8 617.3l22 13L93 633H83" />
    <path fill="#9b7e38" d="M412.2 516l-53 40.6 38.2 47.3 18.6 4" />
    <path fill="#f4de8b" d="M555.3 565l41.6 40.2 14-6.8-7-.5" />
    <path fill="#caad09" d="M585.2 586l1.7-16.4 25 8.7-3 10.7" />
    <path fill="#e0c891" d="M84 560l-20.2-.7L38.3 607 83 550.4" />
    <path fill="#f1d488" d="M300.3 545l-44-84.2-13 5.5L260 478" />
    <path fill="#563e08" d="M970.7 609l27 11-23.7 34.6 25 7.5" />
    <path fill="#242120" d="M198 383l.2 113.4-88.8-75 109.2-1" />
    <path fill="#d29c44" d="M259.6 573.6l50 59.5 43.8 74-91-127" />
    <path fill="#9f8c20" d="M858 508.4l-28.6 16.2L800.6 370l12.7 114.3" />
    <path fill="#fff4bc" d="M781.8 272.5l-5-22.2 6.6-44.5 5.4 87.4" />
    <path fill="#180d07" d="M508 200.8l-123.8-.6 134-94.7 1.3 134.4" />
    <path fill="#120a01" d="M-31 44.2L28.8-31 185 180 158.4 36.3" />
    <path fill="#462d01" d="M625 287.5l-15.3 39.3-.3-18.5 20-10.4" />
    <path fill="#1e1508" d="M297.4 372.8l2 62.3 4-16-30.2-60" />
    <path fill="#100f0c" d="M19 608.2l33.7-75.5-50.4 61-21.5-59.2" />
    <path fill="#fff9cb" d="M387.5 669l-7.3 44 23.5-11.7 26 11.7" />
    <path fill="#1d1107" d="M446.5 309l33-91.2-117.7-39 20.2 81.6" />
    <path fill="#73400d" d="M327.7 460.2l9 7.4-24.8 42.7-11-.4" />
    <path fill="#3c221b" d="M938 470.8l5 9 2-18.7 8.3-46" />
    <path fill="#755835" d="M232 563.4l24-26.4-26.2 52.7 55.8 32.4" />
    <path fill="#dac294" d="M811.7 675.5L799 713h-3l26.7-32.2" />
    <path fill="#f8d591" d="M664.7 128.3l29.5 87 .8-27-41-40.3" />
    <path fill="#f9e9b0" d="M564.6 314l7.6 34.3-16.4 22.4 27.2-56" />
    <path fill="#eace99" d="M736.5 169l32 58.6-29.2-20-23-64" />
    <path fill="#ad5b03" d="M785 571l-13.2 108v-80l22.6 27.7" />
    <path fill="#262522" d="M38.4 245L-31 263.8 4.8 151l104 204" />
    <path fill="#e4bb37" d="M685.3 566l17.7 34.8-1 3.7-46-65.7" />
    <path fill="#987b1a" d="M900.6 522.3l11 61.4-2.5-182-17 73.8" />
    <path fill="#eac164" d="M1002 370.7l-14.6 50.6 5.3-26 13.3-54" />
    <path fill="#ddd2a6" d="M163.3 583.4l-6 11 3.3-1.3 8.3 7" />
    <path fill="#030403" d="M1018 11L894.3 8.8 1030-31l-20.6 53.3" />
    <path fill="#8d7b58" d="M532.3 323.5l-23.3-17 12.4-8.3-34.3-40" />
    <path fill="#fff0b3" d="M991 93.7l2.3 30.5-2.7-59-10.7 67.6" />
    <path fill="#87572e" d="M949.2 326.6l-17 14.2 10.7-25.6 7-14.5" />
    <path fill="#080606" d="M764.3-16L752.7 90.2l-126-87.7 44 129.6" />
    <path fill="#79390e" d="M938.5 513.7l21.7 13.5.3-114 6.5 23" />
    <path fill="#f2e6be" d="M662.6 289.7L659 328l-7-56-10-43.3" />
    <path fill="#4e3e0a" d="M895.4 466.6l-2.6-14 8.2-35-.2 37.3" />
    <path fill="#080403" d="M635.4 141l99-172L579 9l82 160.3" />
    <path fill="#3f2303" d="M739.3 272.3l21.8-12.8-2 33.2-20-.8" />
    <path fill="#100f0a" d="M13.4 549.7l-4.7.6 52.5 9.6-23 41" />
    <path fill="#eca83f" d="M991 86.8l2.5-3.3-5.5 38.2 30-92.2" />
    <path fill="#f2e3b5" d="M661 152.2l1.4-41L687 186l-5-46.5" />
    <path fill="#9f7f56" d="M993.5 305.7l8 8.8-76.5 36.8 50.4-43.6" />
    <path fill="#100a04" d="M114.3 337l-3.2 65.7 9 26.4 22 80" />
    <path fill="#59401d" d="M488 480.8l23 20.7-5.5 35-11.7.3" />
    <path fill="#eee2bf" d="M76.4 547.2L60 561.8 54.5 574 82 558" />
    <path fill="#a4887b" d="M890 381l10.7-11.6 9.5-6.4-9.6 35.7" />
    <path fill="#211a11" d="M231.2 388.2l17 38.2-6.6-35.3 37 59" />
    <path fill="#f0deae" d="M952 97.6l-10.5 22 40.2-36.2-27.5 50.5" />
    <path fill="#f9db96" d="M363.2 480l3.4-27 8.2 86-3.5-4.7" />
    <path fill="#f0dfa5" d="M592.2 400.3l7.5-17 12.7-50.3-19.7 38.7" />
    <path fill="#20100a" d="M760.4 667.2L717 605.8l13-12L744 713" />
    <path fill="#edb03e" d="M587 519.2l-23.3-30.7 25.4 20 32 61.8" />
    <path fill="#d9c9a1" d="M1.2 590l12.6 25.7 10.2 7.6-12-26" />
    <path fill="#281d13" d="M461 179l70 59-61.6-78.8 35.4 64" />
    <path fill="#a1753c" d="M463 660l10.7-92.4 29-13-51 92.5" />
    <path fill="#866d0a" d="M757.5 504.5l.6 59.7-18-50.7 7 5.8" />
    <path fill="#f2dba0" d="M141.2 625.6L109 553.3l-10 63.5 21.6-22.6" />
    <path fill="#917423" d="M496.2 366.8l29.7-32 18-4.5-38 62" />
    <path fill="#dfaf31" d="M829.6 406l-6.4 80.2 23.2-77-4.8 44.8" />
    <path fill="#6a4a12" d="M943 678.5l35.3-144.7-53.5 158.5L909.4 536" />
    <path fill="#f3cd82" d="M240 354.7l-2-18 18.8 29.6-3.4 6.3" />
    <path fill="#f8b23a" d="M347.4 494.6l1-23.8-22-51.3L334 450" />
    <path fill="#897710" d="M656.2 554l-17.5-11.8 16-1 26.4 44.5" />
    <path fill="#b8a027" d="M592 615.3l-27.8-13L673.5 713 584 643" />
    <path fill="#f4e6a3" d="M569.8 598.4l-18.3-4.3-25.3 11 19.6-33" />
    <path fill="#725631" d="M995 152.4l22.7 31.7-7.7-52 18.3-17" />
    <path fill="#8b6b44" d="M373.2 451.4l46.6-20.3 21.8 141-42.4-140" />
    <path fill="#e7eacf" d="M119.3 579.2l.6 49 7-47.8-13-5.8" />
    <path fill="#5b5d00" d="M382 475.4l6.6-8.3 11 9-15.6 8" />
    <path fill="#2d2f31" d="M243.3 308.2l26 17.5 19.8-69-16 26.3" />
    <path fill="#c5b568" d="M444 638.6L385.7 616l26.6-9.8 6 16.3" />
    <path fill="#1d130a" d="M462 158.6L627.5 184l-6.4-7.5-57 70.5" />
    <path fill="#f5ac41" d="M724 468.6l-1-32.8L709.6 328l2.7 71.3" />
    <path fill="#180c07" d="M902.2 204.7l-20 4-20.5-40 1.8 23.7" />
    <path fill="#dab469" d="M949.3 387.2l-13.8 41-15.5-27 14.3-21.6" />
    <path fill="#de952b" d="M928 392.8l-6.7 126.5-6.7 26.2 10.4-175" />
    <path fill="#ad6311" d="M290.6 502.6l34-27 5.4-1-13-18.5" />
    <path fill="#472604" d="M856 525.7l-56 64.8 17.3-78.3 3.2 90.3" />
    <path fill="#f8f2c5" d="M335.3 427.5l19.7 52-3.5 20.2-6.8-57.4" />
    <path fill="#e6cf02" d="M1021 483.4l34 60V482l-1.2-98.8" />
    <path fill="#604228" d="M664.5 245.4l20.7 35.4 9.2-5.8-40-19" />
    <path fill="#e4a820" d="M671.6 382.7L698 528l-24.5-103-6.6-51" />
    <path fill="#26241e" d="M101.6 550.2V581l23-80.8L77 554.4" />
    <path fill="#a4830a" d="M998.4 520.2l-48.8 40.5 21 47.2-45.7 10" />
    <path fill="#b37c29" d="M781 277.4l-20-5.6 2 26.5 11-60.4" />
    <path fill="#f4e8ca" d="M527.6 581.4L517.4 548l1 36.7.7-2" />
    <path fill="#2a281e" d="M412.7 348.4l17.3 31 18.8-75-49.5 10" />
    <path fill="#f2b351" d="M935.4 157.3l.6 9.5 20.5-62-9.3 10" />
    <path fill="#3e290b" d="M647.3 415.6l-4.5 17.6 5.4 22.7 16.8-34" />
    <path fill="#fcd887" d="M287.3 490.5l20.2 44-39-60.6-17.5-6" />
    <path fill="#a9a400" d="M861.2 359l-8.4 21.6 3.7 45.5 3-107" />
    <path fill="#cfba88" d="M304 375l-4.8-38 .4 1.8 8 23.6" />
    <path fill="#4b3518" d="M898.5 680.5l28.5-38.8-2.2-34.8-42.4 52" />
    <path fill="#a39007" d="M937 676.4l45.4-18.8-26.2-9.6-14 65" />
    <path fill="#7b664d" d="M860 650.6l18 8-12.2-.3-29.5 26.4" />
    <path fill="#d89638" d="M584.6 356l14 5-29.8 83 3.2 38.3" />
    <path fill="#c7a35a" d="M453.2 620.7l-18-138-6 26.7 32 97.7" />
    <path fill="#fff2b7" d="M764.2 132.6L746.5 189l8-64.7L765 74.7" />
    <path fill="#e9941a" d="M462 574.4l-6.6-38.8-9.6 16.7 21 67.2" />
    <path fill="#b89257" d="M981.4 114.8l2-37.6L934 208.8l25.8-79.2" />
    <path fill="#5b4000" d="M836.8 479.2l13-38.8-1.6-10.8-12.2 46.8" />
    <path fill="#1c1811" d="M290.5 438l-69.7 12.3 14.3 15.3-43-22.8" />
    <path fill="#31302d" d="M156.3 535.8L135 503l43.3 9.3 11.3.6" />
    <path fill="#8a7306" d="M693.2 612.5l10.6 36 6.8 1.3-4-16.7" />
    <path fill="#312313" d="M138 627l-9.4-22.4-4-2 1.5 23" />
    <path fill="#6f5728" d="M803.2 157l10.7-15 45 12 9-16.6" />
    <path fill="#c2aa78" d="M283 341.5l7-12.8 3.8 49-9.3-36.4" />
    <path fill="#fbebbb" d="M119.5 591.6l16.2-46-10.4-44.8 11-4" />
    <path fill="#f8e7aa" d="M221.3 540.3L199 528.7 176.5 484l-19.4-.6" />
    <path fill="#160e08" d="M512.4 249.4L486.2 94l-46.7 69.2 67.8 64" />
    <path fill="#ffe38e" d="M619 189.4l-3.3 12.3 13.5 73.2 13.2 16" />
    <path fill="#2d1202" d="M816.6 593.5l10.2 44L780.2 531l9.7 33.4" />
    <path fill="#522b15" d="M844.2 222.2l19-6.2 36.6-8.8-70.3 11.3" />
    <path fill="#26292a" d="M196.5 546.5l17.8-7.5-14.7 27.6 3.4 4.5" />
    <path fill="#f3d98d" d="M195.3 518.4l-41-38.8 62.6 28-45 13.2" />
    <path fill="#e7ca88" d="M91.7 620L69 592.7l31.3 20.7 36.5-84.2" />
    <path fill="#af9374" d="M695.6 669l-.6 12.7-7 31.3h-29.3" />
    <path fill="#6e4b2a" d="M967.4 317.3l24 19.8-36.2 17 14.8-26" />
    <path fill="#8b6c3b" d="M712.8 388.8l-39.3-16.4 30-24.7v4.8" />
    <path fill="#d3b87c" d="M760.8 402.7l-6.8 110 34.8-52-19 39" />
    <path fill="#ecb35b" d="M534.8 510.2l-28.3 43 25.3-62.5 16.3 34" />
    <path fill="#77611d" d="M562 702l-81-31.8 14.7 20 39.4-12" />
    <path fill="#8a6c51" d="M779.3 317l-47.2 8.2 28-36.6 11 67.8" />
    <path fill="#e7d9aa" d="M147.4 588l-5-18.8-33.3 30.4v-26" />
    <path fill="#cf8529" d="M495 388l33.8 58 23.5 48.8-56.4-92" />
    <path fill="#6f5841" d="M710 226l47 9.7-7 1.8-48 .7" />
    <path fill="#594d14" d="M638 327.3h18l-17 12.5 5 17.4" />
    <path fill="#e0ca97" d="M169.7 540.2L118 525.4l9.7-11.7L168 549" />
    <path fill="#8d7452" d="M469.6 525l14.5-60-35 54.5 17 29" />
    <path fill="#896334" d="M1011 392.4l6.4-82.8-13.7 23 51.3-4.4" />
    <path fill="#1a1813" d="M61 610l61-73.8-10.7-21.7-8.2-.3" />
    <path fill="#c69849" d="M747.3 606.8L716.6 531l50 29.2-58.3-28.4" />
    <path fill="#573e35" d="M631.2 435.2l-8.6 40-7.7 1 33-9.5" />
    <path fill="#9f7035" d="M1033 458.8l-17.5-47-8.4 101.7-28-13.5" />
    <path fill="#928149" d="M763.2 671l-16.8 42 15-32 17.4 2.3" />
    <path fill="#715438" d="M860.6 280.7l37.6-36L866 353l1.5-52" />
    <path fill="#423106" d="M406 477.8l2 10.6-29 18.8 21.4-24.7" />
    <path fill="#271907" d="M842.3 599.8l5.7-10.6 15.6 34-26.3-.7" />
    <path fill="#c3a56e" d="M231.2 464.2l-28.5-11.4 12.4 13-2-2.8" />
    <path fill="#e5cf99" d="M668 231.4l-55-15 62 21.2-23 13.8" />
    <path fill="#8b5b22" d="M827.8 608l48.3-25-46 16.8-46 35.8" />
    <path fill="#3a4049" d="M89 417l-34.7 5.5 14.8-22 19-11" />
    <path fill="#2f2011" d="M599 227.3L584.5 134l19 131.4L591 291" />
    <path fill="#dd8d17" d="M879.2 494.3l12.5-74-22.4 50.3 44.3-99.3" />
    <path fill="#070708" d="M43.3 487.8l-19-18.8L52 425.3l12.5-65.5" />
    <path fill="#050502" d="M51.4 646.3l10.3-18.8 30.7 9-5.6 7.7" />
    <path fill="#f8eaae" d="M555.8 469l-20 12.2 12.5-.4 16.8 19.8" />
    <path fill="#c1a35a" d="M999 384l-30.7-4 .4 29.6 24-36.6" />
    <path fill="#f5e9a2" d="M522 337.7l1.7-7 13.6-2-9.3-29.3" />
    <path fill="#e0b469" d="M367.4 270l32.5 19-19 22 14-16" />
    <path fill="#9b7247" d="M673.5 492.4L655.2 431l-.3 16.7 26 21" />
    <path fill="#eeedb8" d="M569.7 664.6l-6.4 48.4 9.7-40.5-77.5 2.3" />
    <path fill="#a48b62" d="M933.7 115.7l-34-4.8 98.7-47-77 40" />
    <path fill="#f0e5c2" d="M453.4 305l4 29.2-.2-1.8 9.5-9.6" />
    <path fill="#765810" d="M540.3 388.6l16-2.5-35-17 27-45" />
    <path fill="#bb7016" d="M688.5 672.3l-31.3-66-42-37L679 653" />
    <path fill="#f7d694" d="M26.4 603.6l-15 69.8-.8-27.5 25-40" />
    <path fill="#a79d36" d="M880.2 404.5L867 536l7-111.4-41.4-95.5" />
    <path fill="#b8a06d" d="M848.3 182.4l14.7-52.7-84 162 60.7-114.3" />
    <path fill="#f3e093" d="M290.4 497l-5-37.6-2.3-7 7-.4" />
    <path fill="#1b110d" d="M985.8 82.2l-.3-21.5-8-12.2-3.8 11.7" />
    <path fill="#efd08d" d="M121.2 524l26 3-6.5 22 23 7.5" />
    <path fill="#594f3e" d="M100.5 483L87.3 606l-4.4-5 7-18.7" />
    <path fill="#ebb243" d="M620 604l-30-5.3 24.2 23-7.6-51.3" />
    <path fill="#d2ad41" d="M549 592.2l89.6 66.7-125.2-44 43 21" />
    <path fill="#714621" d="M728.3 385l1-8.5-2.5-15-4.4 20" />
    <path fill="#eedeb1" d="M360.6 254.4l14.6-4-1.7 24-5.7-18" />
    <path fill="#d5dcc6" d="M33.7 591.6l2.2 12.2-7 26 2-31.4" />
    <path fill="#463628" d="M697.3 412l-6.4-36 14 7 12 62.7" />
    <path fill="#f3efcb" d="M541.8 488.3l-21 12.5-17.5 40.5 42.4-74.5" />
    <path fill="#181510" d="M723.7 168L695 133l48.6-30.8-58.4 85" />
    <path fill="#393736" d="M209.4 408l-85.2 3.2 11.6-35.7 47.6 21.4" />
    <path fill="#f3cb61" d="M726 549.5l-15.7-.6 8.6-20 2 2" />
    <path fill="#f9e8bc" d="M1022.6 24.6l-12.3 90L1054.5-31 997 50.2" />
    <path fill="#da8421" d="M583.4 301l10.8 31.5-4.5-3-28.7-60.2" />
    <path fill="#edc125" d="M724.4 475.4l-2 45 39.3-19-28.4-.8" />
    <path fill="#663719" d="M705 599.4l53 44.6-6.5-15.5-7.7 16" />
    <path fill="#1d1206" d="M463 330.8l15 20 15.4-.2-14.5-77.3" />
    <path fill="#bc980d" d="M1015.6 612.4L992 643.6l11.5-27.6 36.2-17.7" />
    <path fill="#9a7a47" d="M198.3 679.7l-46-44.6-23.3 11 59.3 2" />
    <path fill="#695a10" d="M788.6 543.4l8.7 31.5-11.6-96 7.5 3" />
    <path fill="#f4e6bc" d="M966 104.7l5.4-42.5-11 14.4-9.2 66.3" />
    <path fill="#60480f" d="M548.6 400.7l32 36-12.6 3 3.4-48.7" />
    <path fill="#5f3c0c" d="M152 645l-62 68 13-44.8 37.8 22.6" />
    <path fill="#edbe6c" d="M919.3 219.4L915 195l19.3-9.8 21.2-87.8" />
    <path fill="#e6c089" d="M506 227l-27-24.4 6.2 30 32.4 41.8" />
    <path fill="#0d0b04" d="M35.7 650.7l62-92.2-61 58.3-1-27.4" />
    <path fill="#e4a64a" d="M633.2 399.5l38.5-73.8-18.7 56.6-34 53" />
    <path fill="#0d0d0d" d="M791.2 153.8l5.4 15.4 10.3-185-20 103.3" />
    <path fill="#342b1c" d="M459.3 344.7l25.5 8.8 6.5-48.7L468 360" />
    <path fill="#865e32" d="M886.7 183.5l28.2-23.8-39 35.3-9-24.8" />
    <path fill="#e0a448" d="M795.8 501.8l-12.8-174 13.7 93.4-7.7 8.6" />
    <path fill="#25221a" d="M156.7 515.4l-24.4-17 60 33.6-21.4 16" />
    <path fill="#a58a06" d="M1041.5 570l-37.3.6 50.8-119.4L997 569" />
    <path fill="#f1d08c" d="M591 426l-3 4.3-5-12.5-9.8 18.5" />
    <path fill="#98784a" d="M865.8 266.8l-18.3 33-39.4-2.4 54-62.2" />
    <path fill="#181109" d="M-31 611.6v-83.8l43.5 102.8L11 611" />
    <path fill="#47360b" d="M645 324l-3 45.5-10-15.2 25.4-26.7" />
    <path fill="#e6dfb7" d="M1.3 610L-31 630v-71l47 94" />
    <path fill="#f3f1d2" d="M894.4 402.7l-6.6 13 6.3-2.5 2-9.6" />
    <path fill="#dbd2b0" d="M300 408.3l6.5 16.4-6.3-26-.4 11.4" />
    <path fill="#45290e" d="M859 302.8l-6 57.4-11.6-24.6 12.8-34.4" />
    <path fill="#f1e7c0" d="M946.3 195l-4 48.7 29.5-27.3-6.3 39.7" />
    <path fill="#090602" d="M58.4 611.7l-6.8 35.7L83 662l-31 1" />
    <path fill="#0d0d0d" d="M794 5.4l-76.2 129 28.5 50.4-54.8-126" />
    <path fill="#0f0905" d="M451-27.2l140.6 221.7 22.7-4.2 2 12.6" />
    <path fill="#705225" d="M309.5 532l57 28-15 12.8-24.7-43" />
    <path fill="#e3b358" d="M642.6 318.4l18.2 14-12.2-66.6-2.8 37.8" />
    <path fill="#d79334" d="M778.8 271l1.5 177.8-7-203.8 11.7 53.7" />
    <path fill="#7b5e2d" d="M845 409l-5.2-61.7L809 378l-15.7-60" />
    <path fill="#b99560" d="M223.7 579.6l32.8-33.6 10.5 8-49.5 36" />
    <path fill="#25211d" d="M563.6 62.2l94 111.3-52-86 28.7 68.8" />
    <path fill="#757608" d="M506.8 673l18.3-1.4 3-2.2-5-15.8" />
    <path fill="#9a8360" d="M839.3 665.7l-5.3 30-2.5 17.3 5.5-87" />
    <path fill="#cea75d" d="M574.8 472.4L616 510l-11 1.8 70 131.7" />
    <path fill="#543819" d="M973.4 62.7l-57.3-16 42-18.5-39 65" />
    <path fill="#8a6812" d="M832.2 513.4L775 455l67.3 108.5-39-89.4" />
    <path fill="#d8a429" d="M314.3 555l24.4 59 30.3 63-27.6-77" />
    <path fill="#937145" d="M287.7 665.5l-32.8-43 56 28.8-5 18.2" />
    <path fill="#b59358" d="M814.6 493l-10.4-60.5-.2 9 16.7 39.6" />
    <path fill="#20170b" d="M721.8 189.7l-7.6-9.5-19.6 47.7 5-4" />
    <path fill="#dfbb83" d="M723.3 175.2l34 66.8-15-50-20-51.3" />
    <path fill="#fde59e" d="M687.6 259l-22-3 24-9.3-15.4-44.4" />
    <path fill="#975b13" d="M790.6 524l-17 17.4-16-51.2 76 94.2" />
    <path fill="#dec79b" d="M618.6 615l24 9.8-5.6 5.8-12.3-25" />
    <path fill="#bb9e5d" d="M1023 508l-38.5 21-18.3 3.6L1055 493" />
    <path fill="#c79a63" d="M840.4 217.6l13.5-25.3-27 15 1-3.4" />
    <path fill="#cd9928" d="M627.6 552l13.2 36.8-6.3-63-16.5-25.3" />
    <path fill="#fab239" d="M604.8 376.7l7.7-36.7 14.8-19.8-8.6 38.3" />
    <path fill="#f8d494" d="M317 537.3l-30-1.4 23.5 8 9.2-4" />
    <path fill="#b6951d" d="M316.7 704.8l118-96.7-1 39 50-53" />
    <path fill="#7e6b59" d="M67 668l21.4-15 12.3 55.7-43.2-6.3" />
    <path fill="#7b6222" d="M456.3 454.4l44 25-4-8.4-42-35.3" />
    <path fill="#9c7749" d="M276 542.4l-29.5 32 51.4-12-9 33" />
    <path fill="#e9df52" d="M457.6 665.4l-21.6 6 8.6 27.8-29-45.4" />
    <path fill="#0f0a08" d="M132 481.7l12-36-60.5 24.6-9-49.7" />
    <path fill="#a1881e" d="M575.5 713l-59.8-41.4L541 713l22.5-37.7" />
    <path fill="#f1d48a" d="M642 412.5l43.2-88.7-48 81.5-11.7 8" />
    <path fill="#0f0300" d="M752 666l-29.8-14 3-14 48.8 24.6" />
    <path fill="#a07d51" d="M629.2 474l19.3-8-19 46.6-23.6-46" />
    <path fill="#010002" d="M7.3 661L-31 699.4l2-68 33 21" />
    <path fill="#a96211" d="M788.4 616.2l13.5-26.6 3 26-25-60.8" />
    <path fill="#f3dca4" d="M642 371l28.6-51-32.6 67-1 8.4" />
    <path fill="#b0861d" d="M1055 713l-184.4-16 16.4-33.7 6.8 28" />
    <path fill="#d9c286" d="M869.3 574l-.2 4.6 56-23.6-38 20" />
    <path fill="#fae7b2" d="M190.5 503.8l5.4 48.4-9-2 8-33" />
    <path fill="#eb9e2f" d="M207.3 521.2L184 497l13.3 5.3 49 51" />
    <path fill="#352c1d" d="M852 663.7l-6-47.3-6.2 55.6 31-59.4" />
    <path fill="#f3eece" d="M584 305l4-19.3 8.5-32.5-11.2 6.3" />
    <path fill="#c48e1e" d="M907.7 463.4l.2 56 11-122.7-19 58.7" />
    <path fill="#867254" d="M135 570l34 64.8-42-61.6 18 41.3" />
    <path fill="#c8b566" d="M347.4 595.8l5-9.6 34.2 17 70.8 19.2" />
    <path fill="#3e2410" d="M995 302.5l-6-31.8-19.3 40.2 11.3-8" />
    <path fill="#957244" d="M903.5 187L870 132l44 21.2-53.4 1.3" />
    <path fill="#4d2910" d="M1041.6 527.2l-30.2-58-8.4-2.2 52 90.2" />
    <path fill="#e3ab3f" d="M441.8 491.3L438 485l-32-105.3 35.5 146" />
    <path fill="#af7b3f" d="M92 633.8l-8.4 2 26.4-24L82.2 713" />
    <path fill="#997545" d="M368.3 426.8l-17.5 94.7 22.3 38.3-13-102" />
    <path fill="#9a9109" d="M865 437.7l-2-31.2-8 10-3 48" />
    <path fill="#b28741" d="M963 486.5l-35.4 4.2 10.5-8.4h9" />
    <path fill="#ba8a0c" d="M710.2 558.8l-27 4.2-3.7-59.5 12.2 21.6" />
    <path fill="#bf9f67" d="M815.4 193.8l-31-20.4 23 16.3 73.2-39.8" />
    <path fill="#a17536" d="M528.2 467l-37.6 39 38.7-19.8 18.8-14.7" />
    <path fill="#68370c" d="M961 528.2l29-5.6 4.8-20.4 26-29" />
    <path fill="#9c722a" d="M632.8 391.5l-5.3-22.4-19 50 3.5-24" />
    <path fill="#6e621c" d="M694.6 341l3-36.8-.3 13.5-17.8 25" />
    <path fill="#be8b35" d="M943.7 419l18.8-28.2 35.8 7.3-47.8-11" />
    <path fill="#e6ce89" d="M245.3 411.7l14 16 1.7.8-3.6 9.2" />
    <path fill="#907f00" d="M866.6 517.4L827 463.6l15.2 42.2 40.3 50.2" />
    <path fill="#b8a464" d="M474.6 655.6l54.7-26.2-50.6 14.3 30-103.6" />
    <path fill="#e3b259" d="M106.5 695.8l10.8-113 3.5 14.2-6 36" />
    <path fill="#876b44" d="M230.3 585.7l-118 71.7L218.6 608l-27.4-50" />
    <path fill="#f8e2a0" d="M731 427l19.6 7.8-14-24.5 30-19.3" />
    <path fill="#fcdb7e" d="M536.7 229.4l39 79.4-66.4-83 29.6 14.6" />
    <path fill="#f0d58d" d="M537.3 527.6L539 538l-33 10.4-6.2 18.6" />
    <path fill="#e9ad54" d="M36.7 656.6L-5.5 713H16l21.6-48" />
    <path fill="#231b13" d="M360.3 364.6l-13.5-34.3-14.2 59.2 66.6-24" />
    <path fill="#b0870b" d="M608.6 645.8l8.5-2.7 34 70h-58" />
    <path fill="#362808" d="M555.4 420.4l1.3 7.7-20.2 8 19.8-43" />
    <path fill="#682d06" d="M661.3 637.3l22-9.4-17.3-22-2.5 28" />
    <path fill="#f3c85c" d="M557 492l-82-101 19.2-38-32 8" />
    <path fill="#957925" d="M658.4 424.6l-4.6 57.5 2.4-95 14.3-6" />
    <path fill="#a28153" d="M1055 250.2l-33 15-15-.3-37.7 25" />
    <path fill="#c4b30c" d="M308 637.4l28 5.6 37.6 70-6.6-46.5" />
    <path fill="#f1dba7" d="M671.3 183.6l-60-35.6 26.6 43-23-53" />
    <path fill="#c18b52" d="M707.5 581.4l-8 28.6-4.5-56.2 14 43" />
    <path fill="#e6cf95" d="M944.7 251l34 37.6-17.8 1 15-11.2" />
    <path fill="#18120a" d="M282 359l15.8-96.8-44.8 92.3 30 91" />
    <path fill="#3e2111" d="M55.7 658.6l4.2 2-13 11 2-23.3" />
    <path fill="#b87210" d="M963.2 524.7l15.2-40L997 404l-38.5 108.3" />
    <path fill="#7c603c" d="M963 222.3l4.8-11.3 2.8-27.5 47.6-2.7" />
    <path fill="#816a4c" d="M245 460.7l23 36.8-21-26-35.2-48.6" />
    <path fill="#877d5f" d="M813.6 697.5l14-43.5 10-12-9.2 17.7" />
    <path fill="#4b3c28" d="M826.3 201L885 73.5 836.4 172l14.6 24" />
    <path fill="#eee2b4" d="M986.7 80.8l-9 74L995 56.4l-2.7-5" />
    <path fill="#ce9d34" d="M596 561.5l200.6-63.7-1 64.4-4-64.6" />
    <path fill="#df9e03" d="M740 458l9.3 7.8-25 55.6 9.8-1.5" />
    <path fill="#644e06" d="M946.8 699.7l27 13.3 73.5-102.4 7.7 37" />
    <path fill="#100905" d="M833.8 626l-3.8 26-30.5-18.6 22.2-18.6" />
    <path fill="#f6e9a7" d="M573.7 395.6l3.5-33.7 6.6-45 5.7 21" />
    <path fill="#24252a" d="M-18 413l100.6-13.3-67 19.6 20.8 91" />
    <path fill="#4f3113" d="M822 358l13.4-4.6-15.6-13.3-28.2 1" />
    <path fill="#eee6b0" d="M602.7 625l-10 7.2-6.6 2.8 14-31" />
    <path fill="#ddb760" d="M909.2 380L892 419.6l28.4-86.8 10-24.2" />
    <path fill="#ecb734" d="M854.3 428l23.2-88.3-21.4 58-6 39" />
    <path fill="#140900" d="M349 421.6l33.5-53-.6-10.6-43 42.7" />
    <path fill="#fcf7d5" d="M95.6 574.7L100 610l8-39.4 23.4 20" />
    <path fill="#845f2f" d="M281 453.5l3 7.5-10 8.7-20.2-24" />
    <path fill="#e8c984" d="M173 580.6L162 563l-48-45.7 63.5 48.5" />
    <path fill="#684e2f" d="M972 34L854 158.8l57-48.2-18-16.2" />
    <path fill="#b3945f" d="M796.2 162l1.5 21.7 34-27 9 26.6" />
    <path fill="#d0cb8b" d="M330.3 675.7l15 17.5-36.2-21.8-16 2.4" />
    <path fill="#533823" d="M1036.3 133l18.7-50-41 24 16.4-32.7" />
    <path fill="#86642c" d="M887.2 638l1.3-8.5 25.8-10.4 9.5-56" />
    <path fill="#e8c78c" d="M780.6 135.3l-25-26 32 32.5-7.6 35.6" />
    <path fill="#492f0e" d="M235 622.5l-35 4.2 21-17.5 19 24" />
    <path fill="#eac474" d="M991.4 176l-13.6-1 39.8-68.5-33.3 39.2" />
    <path fill="#3d260c" d="M18.8 670.7l-3-22.6 12 12-22 33" />
    <path fill="#371e0f" d="M902.6 187l-.5 9.2-16-25-27-1.6" />
    <path fill="#2a2828" d="M136 397.5l-20.3 13.7-11 76L89 423.5" />
    <path fill="#432811" d="M921 140.4l7.7-30.5v26l-.4 14" />
    <path fill="#87663e" d="M905.5 61.8l35.4-.2-57 30 8 9.5" />
    <path fill="#4d340a" d="M683.7 664l123 49H685.4l20-67" />
    <path fill="#dec28b" d="M206.4 466l10 6-15.6-3.4-4.4-3.4" />
    <path fill="#4a2409" d="M745.2 592.2l15.4-38.8-2.8 44-63.8 19.3" />
    <path fill="#f1e8c2" d="M88.8 584.5L100 562l-2 13.5 4.6 27.6" />
    <path fill="#ebd097" d="M804 273l14.4-.5-23.8 28.5 10-26.8" />
    <path fill="#c9a66e" d="M479 628.2l22.7-6.5-2.5 6.3-39 7.7" />
    <path fill="#cb8736" d="M280.4 452.3l3.8 4-11.7-36.8.8 8.7" />
    <path fill="#cec8a9" d="M336 368l-6.7-13.7 9 7-4.6-26.2" />
    <path fill="#f9f3d4" d="M642.4 291.8l-6.8 8.8-7.6 51.2 11.2-24.2" />
    <path fill="#d9d1a3" d="M41.7 670l5-20 2.2-5-8-.8" />
    <path fill="#a9720e" d="M338 422l85.2-12.4-52 22-13.3 23" />
    <path fill="#5b3c19" d="M394.5 441.2l-11.7-13-34 34.4 55-39.2" />
    <path fill="#954704" d="M726.6 558.6l48 6-57-10-2 73.4" />
    <path fill="#d59321" d="M655.6 643l27 33-29.3-47-44.5-36" />
    <path fill="#370d00" d="M966.4 388.8l-4.3 45.4-3-25.2 9-48.5" />
    <path fill="#381e0a" d="M652.4 250l16.4-1-7.4 4.5 6.6 8.2" />
    <path fill="#54433b" d="M784.3 391.8l-1 10.2-.2 39 7 11.5" />
    <path fill="#ebb656" d="M559 328.3l-26.3 94.2.7 9.3L577 290.3" />
    <path fill="#cdb406" d="M976.7 571l-8.5 31.8 18 18.7-19.2-40" />
    <path fill="#886209" d="M985.5 531.3l-8.7 51.4 78.2-13.2-66 5" />
    <path fill="#ead7a4" d="M588 483.2l38.3 26.5 12-1.4 20.4 25" />
    <path fill="#390e03" d="M711.3 641l10-9 12.4-2.7-29-19.8" />
    <path fill="#24201c" d="M441.5 193.5l20.3 6.7-5 23.7-42.4 1" />
    <path fill="#352307" d="M905.7 640.4l-3-5.2 34.2 22 14 14.8" />
    <path fill="#e8cb8a" d="M635.4 211.2l.2 31.3.6-9.6-31-38" />
    <path fill="#d9b97d" d="M421.3 421l-14.5 7.5-4.3-8 10-2.2" />
    <path fill="#fbe6aa" d="M920.4 293.6L923 230l3 57.5 10.7 27" />
    <path fill="#d59246" d="M672.6 164l13.6 61-3-35.4L673 151" />
    <path fill="#503a20" d="M240.5 579.4l20.7 17-22.3 25 13-52.2" />
    <path fill="#806324" d="M373.3 444l62.4-56 9.3-81-3.4 85.6" />
    <path fill="#e9d28e" d="M493.7 337l2.3-4.8 9.5 7.3-5 18" />
    <path fill="#f3dfb5" d="M534.2 261l-26.6-20.3 10-5.4 32.4 83" />
    <path fill="#d6c00a" d="M1055 609l-34.8-37.8 22-16-19.5 44.6" />
    <path fill="#e6a735" d="M835.4 470L817 459.4l6.8 2L791.5 332" />
    <path fill="#83623c" d="M909.4 225.3H900l-2-33.3 8 10" />
    <path fill="#b49c75" d="M209.6 428.6l-10.2-10.2 8.2 3.3L239 454" />
    <path fill="#9c7c4c" d="M308.6 539.3l60.6-26-.3 12.6-39-41" />
    <path fill="#352e1f" d="M808.2 216.3l-2.6-13.5 20.8-5.6 1-10.7" />
    <path fill="#120e05" d="M220 387l29.3-15.8-19-22-1.5 120" />
    <path fill="#f9e7b3" d="M783 309l8-37-10-38.5-3.6 34.7" />
    <path fill="#592706" d="M776.7 639.8l15-20.8-11 61.8-1.2-135.4" />
    <path fill="#f4e0a8" d="M630 200.5l42 157 15.7-.7-15.7-19.4" />
    <path fill="#e4ba70" d="M128.8 540.5l-.3-51.5-3.6 50.6-10 44.4" />
    <path fill="#856125" d="M488 656.2l-2.3-45 41.5 40.3-47.3-39" />
    <path fill="#e2c080" d="M955 166l-20.6-43.6 15.4-12.2-24 17.5" />
    <path fill="#a67a2a" d="M586.3 504.4l44 61.2L670 582l-48-17" />
    <path fill="#7b591d" d="M549.8 612.7l-3.5 9.7-1.7 4.4-2.2-16.3" />
    <path fill="#ffeab7" d="M1017.7 183.3l2.7 48.2.2-34.4 8-107" />
    <path fill="#faefc5" d="M455 294l7.7 50.6-9 51.7 3-44.7" />
    <path fill="#faf1c5" d="M565 637.5l-35.8 27.7 36.7 11-33-29" />
    <path fill="#2b271f" d="M506.4 285.6l8.5 53.8-25-7.7 6-56.6" />
    <path fill="#8f7d22" d="M707.5 434l10.3 8.7 7 44.7-2 6.4" />
    <path fill="#8e642b" d="M334.2 630l22.2 23.2-4 4.5-4.2-29.4" />
    <path fill="#a78d18" d="M629 270.4l-19.7 8.4-7.3-25 26.4 11.7" />
    <path fill="#876948" d="M252 641l12.6 9-15.7 58.3L142 666" />
  </g>
</svg>