<svg version="1.1" viewBox="0 0 1024 682" width="1024" height="682" xmlns="http://www.w3.org/2000/svg">
  <g fill-opacity=".5">
    <path fill="#b48949" d="M946.7 297l-42 50 46.4-46-2 34" />
    <path fill="#b77b37" d="M13.3 669.6L0 695.6l17.3-23-16-33.6" />
    <path fill="#191c07" d="M862 546v-22.7L841 577l31.8-4.8" />
    <path fill="#834c0e" d="M834 713l-79.3-97.3-.6-5.6-51-66" />
    <path fill="#eaaa41" d="M567 374.5l-13.5-23 45.2 99.6-7.8-30" />
    <path fill="#b3ac01" d="M377.3 463.7l24-2.4-8.4 25.2 7-5" />
    <path fill="#b9a986" d="M707 230.6l1.8-21.6 10.3 1.2-31 29.5" />
    <path fill="#edcd8c" d="M148.5 533.3l54 44.8 7.4 14-41-45" />
    <path fill="#0e0a07" d="M447.2 23.6l269.2 86.6-13-43.5 44 81.8" />
    <path fill="#260c03" d="M783.4 625.2l41-22.5-19.7-40 1.6 43.7" />
    <path fill="#ebbe5a" d="M522.4 495.3l-5.4 7.5 7-45.6 1.3 29.8" />
    <path fill="#7c670a" d="M830 464.4l8.5.8-4.3 51.5 29.3 35.7" />
    <path fill="#c7b78e" d="M399.2 369l-16.6 2 20.7 10.8-5 3.2" />
    <path fill="#e3ca97" d="M452.4 401l18.2-9.6-37.4 3.3 20 15.3" />
    <path fill="#d7994b" d="M774.8 601.3L763 596l-3.6-11.7.7.2" />
    <path fill="#140c0a" d="M185.4 423.7l-23.5 5.5 40-62.7-67-91.5" />
    <path fill="#987423" d="M404.4 465l41-10.3-2.2-41.8-32.2 86" />
    <path fill="#e3ce9b" d="M376.2 465.4l1.2-9-6-7-8.2 10.8" />
    <path fill="#d4b458" d="M641 525.7l39.7 18.4-1-42-18.7 43" />
    <path fill="#ebc368" d="M483 443.7l-35.3-21.5 61 60 2.3 2.5" />
    <path fill="#50370f" d="M983.4 657.3l-54.2-33 64.2 34.2L1055 623" />
    <path fill="#c6a255" d="M688.2 356.5l-13.3-8 44-15.3-2-25.8" />
    <path fill="#5d4725" d="M521.4 474.5l-28-25 19.8 22 2.4 22" />
    <path fill="#37363a" d="M224.2 337.7l-32-3.8 28.3 30-44 52" />
    <path fill="#17150d" d="M685.5 151.4l15.2 21 6.3-25-25.2 10.7" />
    <path fill="#2c2c2c" d="M236.4 329.2l49.3 15.4-28.3 21.2-28.2-66.6" />
    <path fill="#140b04" d="M886 555.4l-12.5-24 29.8 5 .3 24" />
    <path fill="#e5d298" d="M374.6 274l-14.3 6 17.3 16 4 33.8" />
    <path fill="#c1a35f" d="M706.6 179L612 217.3l21 89-17.7-90.2" />
    <path fill="#643d15" d="M338.8 482l-52.2-56.7L334 473l-19.4 26.3" />
    <path fill="#9c7f5d" d="M323 599.7l16-6.3-64-6.3 30.8 46" />
    <path fill="#5c4027" d="M895 370.8l7.7-28.5 17.4-4.5-8 23.4" />
    <path fill="#cc7e15" d="M817 419l20.6 62.6-2.8 40.4-6.8-46" />
    <path fill="#3f210e" d="M781.5 373.6l-.4 40 7-.8-2-30.3" />
    <path fill="#160f0b" d="M148 373.3l-98.2-148 27.7 90L299.2 215" />
    <path fill="#0d0f0f" d="M770 76l29.3-107L788 101.5l-22.7-60" />
    <path fill="#60530e" d="M808.4 475.3l-2.2 39.2 14.2-22.6 30.2 90" />
    <path fill="#e3c891" d="M238.6 517.6L205 579l35.4-26.6L222 525" />
    <path fill="#2a2928" d="M296 286.2l54.4-81.3-24-23 21 93" />
    <path fill="#2c0f00" d="M1037 622.8l17.7-40.2-38-18.8 35.3-136.2" />
    <path fill="#b7ab6d" d="M892 412.6L857.5 369l-7 21.5-3.7-38.7" />
    <path fill="#3c3425" d="M199.4 545.6l7.8-15.5-8 6 .5 13" />
    <path fill="#d8a84d" d="M383 461.7L374 595l.5-80.2-7-47.3" />
    <path fill="#dec893" d="M759.6 459.2l21.8 27.6-36.7-1.2-.4 13.4" />
    <path fill="#231b13" d="M857.2 152.6l48.5-20.2L923 112l3.3 8" />
    <path fill="#d39f3f" d="M370 612.4l5.7 11-9-57.4-13-33" />
    <path fill="#604d2e" d="M429 512l-.7-35.4 4.4 14-44.5 26.8" />
    <path fill="#cd8b39" d="M239 626.6L174.8 562l-25-22.4 19 9.3" />
    <path fill="#bca679" d="M677.8 279.7l-21.4-12.4 5.8 38.8 17.8-54" />
    <path fill="#efdfa1" d="M333.5 464L320 393l2.3 48.3 1.2 12" />
    <path fill="#694f2d" d="M1003.5 394.7l51.5 66-47-54-11.2 3.6" />
    <path fill="#665110" d="M513.2 379.6l3 28.7 31.6-28-34-2.6" />
    <path fill="#1a120b" d="M546.4 101l38.3 164.6 8.7-56-62.7 13.8" />
    <path fill="#fdeba5" d="M938 165.5l-11.5 92.8L905 232l25.7-18.5" />
    <path fill="#e2cb96" d="M996 55.8l14-45 10 45-22-30.3" />
    <path fill="#cdad0c" d="M448.2 582.6l-6.3 38.7 15 51.7-9 9" />
    <path fill="#9b6f23" d="M288.4 527L272 553.8l-16-56-18 8" />
    <path fill="#946b34" d="M468 543l-7 54 60.2-100.6-42.8 65" />
    <path fill="#c5a162" d="M702.8 214l-.6-11-32.4 34.4 25.2-27.8" />
    <path fill="#362e25" d="M342.7 368.8l38.5-24-14.8-15.2 8.8 32.8" />
    <path fill="#756324" d="M408.4 583.5l-5-28.4-1.6 3 30 20" />
    <path fill="#d98218" d="M584.4 591l-.5 9.5-34-31.6 26 16" />
    <path fill="#bbab06" d="M1010.7 713l44.3-110.6-54.4 110.6-2.4-55.3" />
    <path fill="#14110e" d="M643.2 145l-30-49.7 2.2 46.5-66.7-24.2" />
    <path fill="#b47f24" d="M801.4 566.3l-9.7 24 19-77.2.4 13" />
    <path fill="#ceaf5e" d="M358 328.8l20.3 7.4 40.7 59.5-44.7-66" />
    <path fill="#cb9827" d="M865.5 492.5L888 402l-7 61.5-12.2 39" />
    <path fill="#2b1f12" d="M952.4 75L926 81.4 925 97l25.5-11.4" />
    <path fill="#a48148" d="M190 641.7l-.3-5.8 34.7-6-13.4 21" />
    <path fill="#93804f" d="M560.4 307l-23-31 14.3 31.2-63 13.8" />
    <path fill="#9a8860" d="M749.6 120.3l18 3-21.7 1-9-16.8" />
    <path fill="#614603" d="M981.6 606.4l63.6-3-147.6 21.2 101.2-.7" />
    <path fill="#f0d58a" d="M520.8 539.2l-1.5 25.4 48 59.3-39.3-33" />
    <path fill="#835c2e" d="M770.8 251l4.2 24-3.5 1-6-15.4" />
    <path fill="#fef0be" d="M561.5 300l-9.3 45 14.7-50-21-1" />
    <path fill="#070506" d="M900.4 56.8L781 89.4l-5 14.6 78.4-80" />
    <path fill="#fffbd5" d="M220.8 559l-7.4-7 24.6-7.7-2 9.8" />
    <path fill="#d7c18e" d="M924 279.6l-10-62-13.2-18.2 8.2-1.5" />
    <path fill="#f6e7b8" d="M57 577.7l17.4-21.4-6.8 25.6H49.8" />
    <path fill="#f9f4d0" d="M642 296l-5-2.2-27.6 51.8 6.4-29.6" />
    <path fill="#996b22" d="M683.2 503.2l-42.8 2.5 39.2 50.5-23.2-51.2" />
    <path fill="#442410" d="M887 179.6l28.4-23.3-18 5L883 204" />
    <path fill="#322a18" d="M29 173l66.3 7.8 3.5 27.3L-31 166" />
    <path fill="#977445" d="M893.8 385.7l11-9.6-17.6 35 3.3-18" />
    <path fill="#4c3215" d="M541.8 374.7l-22.3-2.6 21.5 18 2-5" />
    <path fill="#232931" d="M65.5 399.5l-14 88.5 50.6 15.2-7 41" />
    <path fill="#999107" d="M659 415.7l65.7 72-20.4-26.8-34.3-43" />
    <path fill="#856333" d="M796.8 304.2l27.2-1-21 37-8 1.6" />
    <path fill="#c9c595" d="M482.4 643.8l26.7 7-41 8.7 32-2.3" />
    <path fill="#252324" d="M47 340.5l93.6.7L24 319.4 36 246" />
    <path fill="#c49707" d="M933 599.6l33-35.3-4.6-16.3-9.3 40.8" />
    <path fill="#261a13" d="M895.3 209.6l21.4-32.5-30.6 14-20 5" />
    <path fill="#c4a268" d="M206 455.5l-2.7-2-12-.3 36.6 14.6" />
    <path fill="#201307" d="M432.5 321.4l61.7-72.8-55-34 6 124.2" />
    <path fill="#56370f" d="M597.8 438l-8.8-18 74-7.6-44 3" />
    <path fill="#f8d98e" d="M625 146.6l33 71-32.3-52.3-20.3-15.8" />
    <path fill="#ecd88d" d="M749.4 450.3l-1 51-5-20.4 11-11" />
    <path fill="#f3eacf" d="M600.8 468.5l-15.3 12 14.3 9.4 11 8" />
    <path fill="#ffeec0" d="M999.8 31.8L997 63l58-94-53.6 69.8" />
    <path fill="#734f1e" d="M947 549.4l-29.4 10.2L888 662.2l.4-59" />
    <path fill="#b99579" d="M591 509.3l-6.7-17.8-6.5-16.4h-15" />
    <path fill="#4d3802" d="M997.2 538.7l57.8 25.7v20.3l-56.8-55.5" />
    <path fill="#c8974d" d="M980 454l18.6-74-23 68.3-27.6 35.2" />
    <path fill="#b98749" d="M834 267.5l-1.3-8.6 74.3-49h-20" />
    <path fill="#734e2a" d="M890 356.2l4-24.6 10.2-78.4L872 389" />
    <path fill="#7f5e29" d="M953 207.7l2.3-44.7 8 3.3 2.8 27" />
    <path fill="#faf5d5" d="M949 92l18.8-9.8L955 128l9.7-57.8" />
    <path fill="#faf3cf" d="M765 243.4l3-19.7 5.6-.6-2 17" />
    <path fill="#806846" d="M712.3 210.5l-25.5 128.7 11.6-57.6 8.4 28" />
    <path fill="#a1763e" d="M603 448l-47.3-11 38.7 14 9.5-17.2" />
    <path fill="#dad677" d="M677 556.3l24 27-40.7-39.6-15.8-21" />
    <path fill="#d99f3b" d="M682.4 422.6L630 232.8l12.8 17.5-1.8 9.6" />
    <path fill="#e2d098" d="M169.2 593.2L152 607.5l8.3-7.6-3.8-15" />
    <path fill="#6e5417" d="M572.7 354.3l4.7-6.3-12 86.2 6-55.5" />
    <path fill="#15120f" d="M723.6 91.6l-17 64-40.6-79 88.7 57.3" />
    <path fill="#c39861" d="M668.5 605.6L633 525.3l20.3 50-10.2 15.4" />
    <path fill="#e0c179" d="M469.5 600.6l1.7-3.6 28.8 17.5-1.5-11" />
    <path fill="#e9daa7" d="M809.3 238.7l4.5-6.3-6.4-9.4-6.7.8" />
    <path fill="#844208" d="M771.6 591.7l2-78.4 2-13 5 34.2" />
    <path fill="#e0a742" d="M723.7 395.4L744 447l-9-12.5-14.2-71.6" />
    <path fill="#8d6617" d="M508.7 654.3l21.5-11-33.7-9 10-41" />
    <path fill="#fbc859" d="M936.4 190.3l-10.2 71 2.6 4.4 11.7-28.8" />
    <path fill="#ecdeb3" d="M555.6 452l16.7 25.8-8 1-20.6-34" />
    <path fill="#45321b" d="M998 39.2l-32 39 13.8 1-9.7-23.5" />
    <path fill="#624f38" d="M213.3 675.3L195 655l31.4 5.4-11.2-10" />
    <path fill="#1d1713" d="M184.4 440.8l55 26.3 1.8-40 14.8 35" />
    <path fill="#060303" d="M222 73.2l71.6.5L345-31 117.4 8.2" />
    <path fill="#c79249" d="M640 416v18l-48.3 37.3 38-33.7" />
    <path fill="#775227" d="M462 411.2l-7.2-8.4 10.5-8.6 1.4 15" />
    <path fill="#282623" d="M218.3 512l15.5 10.2 1-67.5-13.4 34.2" />
    <path fill="#f8dc94" d="M670.5 155.8l26.4-9-41-2.8 12 65.4" />
    <path fill="#d7801d" d="M775.4 154l-2 86 5-10.2-13.7-53.8" />
    <path fill="#875925" d="M825.3 588l3.7 20.3 53.6-27.7-60.7 22" />
    <path fill="#dfb348" d="M734 556l4-71.5 5 50.2v-15.2" />
    <path fill="#1c1206" d="M297 346.8l-15.7 92-25.3-85.5 52.4 51.2" />
    <path fill="#917346" d="M991.4 219.2l-25.3 12 42-51.8-13-15.8" />
    <path fill="#edb756" d="M1021.4 207l-4.5 58.4 15-125.5-1-48" />
    <path fill="#4c2e07" d="M1002.4 628.5l26.3 27.5-33.2-30.3-31.3 7.6" />
    <path fill="#f7dd89" d="M487.4 369L469 399.8l71.6 74.4L446 348" />
    <path fill="#c6a40c" d="M1008.2 565.7l-25-32.4L995 517l2.4 35.2" />
    <path fill="#6b470d" d="M927 494l-2.2 4.6.4-19.2 9.2 2.7" />
    <path fill="#805523" d="M917 373l8.7-38-31.3 32.8L933 327" />
    <path fill="#60400a" d="M971 671.8l8.5-6.8-13 19.3-14-78.7" />
    <path fill="#e8d6a6" d="M398 311.4l10.5 59.7h3l-5.5-31" />
    <path fill="#b76a09" d="M935.8 543l11-51-8 83-.6 39" />
    <path fill="#eec87d" d="M609.6 602.2l30 30.3-22-49.3 26.4 23" />
    <path fill="#1d170d" d="M296.2 289.4l16.7 44 41-33-44 96.8" />
    <path fill="#151309" d="M137.8 548.2l9.7 34 11.3 1.6 11.6-1.4" />
    <path fill="#f8b31c" d="M716.5 529.8l-.8 54.5-4.3-26.6-4 9" />
    <path fill="#1b1a12" d="M81.8 562.7l5.5 42.7-18-26.6 45-61.8" />
    <path fill="#f5d687" d="M589.5 713l-5-67.5 20.3 11.2-26.5 56.3" />
    <path fill="#53460b" d="M667 403l4 .6-3.5 32.5-7-37" />
    <path fill="#7d603e" d="M302.4 595l-15-53.2 20 2.7 25 51.6" />
    <path fill="#272420" d="M258.3 436l-37.5 37.7 20.3-25.5-49-42.2" />
    <path fill="#746141" d="M378.8 466.6l-3.5-21.6-4 3 23-12" />
    <path fill="#e1ce7a" d="M503 676l127.4-12-134 11.8 14-12" />
    <path fill="#f8d88b" d="M542.2 323l-64-115.6 51 107.5-15.8 5" />
    <path fill="#f0e9c4" d="M673 127l-7 18.3-.8-9.3 15.3 26.4" />
    <path fill="#665726" d="M671 302.7l18.2-26 9.6 72.5.2-37.7" />
    <path fill="#f0d69f" d="M493.5 220l.5-12.5-5.6 10.4 76.4 72" />
    <path fill="#754710" d="M1004.2 514.3l-18-4.7 8-56-28.5 56.7" />
    <path fill="#140c06" d="M224.5 143.2L121.7 37 198 153l-16 82" />
    <path fill="#6e5839" d="M504.8 288.6l2.8-4.5-31.6-63 18 24" />
    <path fill="#f7d680" d="M612.5 407l-5-11.6 21.6-30.6-30 36.4" />
    <path fill="#9a5a21" d="M652 599.6l14.5.3-4.5-32 33.5 67" />
    <path fill="#e9cd8a" d="M86.4 581l1.4 29.3-12-13.4 30 12" />
    <path fill="#ccab47" d="M920.4 481l-6.6 67 3-49.5 1-37.7" />
    <path fill="#180f06" d="M338.5 362.6l24.7-72.6 10.8 12.7-27-49.8" />
    <path fill="#8e6b35" d="M139.4 641.2l10.4 56.6 20-126.8-21 105.8" />
    <path fill="#130c0a" d="M52.5 293.4L77 390.7l60-22.6-8.8 27" />
    <path fill="#d1a54e" d="M677.8 338l32.6 132.7 56.2 13-53-14.7" />
    <path fill="#382717" d="M637 209l3.7 21 .2-8 2 .7" />
    <path fill="#c8aa6d" d="M180.5 574.2l-48.8 64L146 610l40.7-31" />
    <path fill="#e2a045" d="M616 364.8l-21-15.4-8.3 79.8-2.2-79.8" />
    <path fill="#0f1218" d="M398 16.6L362.6-31l5.7 165-24.5-36.6" />
    <path fill="#482c14" d="M626 463.3l12.8-18L620 437l8.7-6.8" />
    <path fill="#b09940" d="M920.2 570.6l3.3 4 4.7 1.7h-26" />
    <path fill="#23180b" d="M303 424l-31.4-69.4 29 62.6-1.3 44.5" />
    <path fill="#b19969" d="M895.8 110.8l-18 19.3-29.5 15-3.4-1" />
    <path fill="#d57907" d="M782.2 607.3l-.2-3.5 4.6-35 3 29.2" />
    <path fill="#533b19" d="M330.6 572.6l-1.2-8.3-3-41-8.3 39.4" />
    <path fill="#85662f" d="M591 527.5l12 22.2-14.4 1-8 18.5" />
    <path fill="#3a2a0c" d="M646.8 350.8l-18 7 13 7 16.7-45.2" />
    <path fill="#dab06a" d="M879.5 335l-19 53.5L902 248.3l-14.4 59.3" />
    <path fill="#2f1e03" d="M826 536.5l-14.8-17.7 35.7 53.4-32-11" />
    <path fill="#f9e19e" d="M980.7 148l-3 8.2-4.8 24 27-77" />
    <path fill="#a97e46" d="M955.4 142l24-30 1.5-37-3 18" />
    <path fill="#774e21" d="M301.8 476.2l-12-93.4 5.2-6.7 1.3 33" />
    <path fill="#937338" d="M591.3 273.4l27-18.5-28.3 33 40-8" />
    <path fill="#f9e0a8" d="M1055 309.2l-38-1.5 3.5-44.4.6-6" />
    <path fill="#1f1d18" d="M780.3 133.2l11.3 8.8 9.5 20 25-38" />
    <path fill="#443932" d="M789 168.7l-3.2-6 .7 6.8 6-79.5" />
    <path fill="#ffeaa5" d="M755.2 188l12-116-21 102 14 87.7" />
    <path fill="#835d30" d="M725 339.8l26.4 56L731 346l-.8 66.5" />
    <path fill="#1d191a" d="M235.4 193.8l63.4-2.2-22.8-21 46.5-118.2" />
    <path fill="#e1a943" d="M927.4 374l-9.7 15.2 8.7-46 1.7 45" />
    <path fill="#e8d8a3" d="M657.3 340.6l-34 3.3 34-66-27.4 56" />
    <path fill="#573c16" d="M828 147.2l10.2 11.5-7.8-4.2-33.7 1.6" />
    <path fill="#422f15" d="M892.3 576.5l-43 70.4 32.7-42-12.7-17" />
    <path fill="#ba9b4c" d="M799.7 444l33-35.2-3.8-24.6 6 51.8" />
    <path fill="#a48837" d="M945.3 461l13.4-54.3-1 59-2.7-10.4" />
    <path fill="#211407" d="M529.8 315.5l-36.5 3-5.2-55-40 24.3" />
    <path fill="#170e09" d="M468 84l154.6 82.2-18.8-4.6 11.3 98" />
    <path fill="#bc985c" d="M920.7 454l8.5-14.5 9.6 20-2-2.6" />
    <path fill="#a9901c" d="M904 662l10.5 33 53.2-35.4-62.7 50.6" />
    <path fill="#987711" d="M953.6 646.5l-3.5-22.2 39 25.2-14-19" />
    <path fill="#fbf2c7" d="M586.8 283l2.4-24-12.2 13.3 22.7 60" />
    <path fill="#b37a34" d="M600.4 599.8l12 21.4 94.5 48.3-58-28.5" />
    <path fill="#654c2f" d="M164.3 569.7l42 28.7-14 4.4-7 13.4" />
    <path fill="#775826" d="M879 680l-11.4-51 3 57 20.2-43.5" />
    <path fill="#e3b94a" d="M715.8 549.3l-27.4-29-8-75.8L693 529" />
    <path fill="#a88962" d="M936 392.4l-7.7-29.6 18.3 1L945 404" />
    <path fill="#080809" d="M691 24.7l32 37.5 33.4 37.7-18.8-124" />
    <path fill="#2c2a1e" d="M32 89l-24.4-.4 1.8-5.8 38-45.7" />
    <path fill="#d87811" d="M801.6 431.2l-5 114.5-.6-37.8-1.8-59" />
    <path fill="#4b371d" d="M611 424l9 3.4-8 23-10.7-30.3" />
    <path fill="#c69845" d="M417.3 432l-16 29.3 26.6-22-16-42.6" />
    <path fill="#6e5d2d" d="M808.5 624.4l-11-2.7-14.5 49 19.4-43.6" />
    <path fill="#4a2a06" d="M861.4 490.5l.3-22 2.7 51.7-11.4-27.7" />
    <path fill="#1a1009" d="M522.8 213l9.7 13.7-16.5-75L627.2 181" />
    <path fill="#120e0c" d="M566.2 113.3l1.3-90L656.2 149l-24.2-8" />
    <path fill="#a5834d" d="M448 572.2l-67.8-38-12.5 39 24.7-21" />
    <path fill="#e89b19" d="M501.2 634.3l.5-9 9.3-65-13.3 18.7" />
    <path fill="#140f08" d="M37 615.8l54.7 2.5-34-24.7-12.7 5.2" />
    <path fill="#744807" d="M967 583.2l3-11-33.2 19.6 1.8-10" />
    <path fill="#4d3316" d="M479.7 487.5L511 505l-16 25.8 1-45.7" />
    <path fill="#a98a5d" d="M819.2 251.6L827 273l94.3-16.6-6.4-5.3" />
    <path fill="#ab8456" d="M731 348l37.3-42.5-27.3 82.3 9.8-21.4" />
    <path fill="#e4d19f" d="M521.3 238.6l-15.8-29 16 46.7L555 268" />
    <path fill="#efe6c5" d="M934.2 159.3l11.5-60.7-35.3 104 4.2-27.2" />
    <path fill="#7c7849" d="M834 354.6l11.8 38.3-4.5-54-2.6 11" />
    <path fill="#6d4b24" d="M921.5 284.5l-4.7-6.3-14.2 92 7.6-68.2" />
    <path fill="#d3aa65" d="M437 324l15.3 68.5-10 93.3 6-134" />
    <path fill="#1a1008" d="M468 252.2l-126-25.5 29.3 51-35-34.8" />
    <path fill="#fbefb5" d="M603.3 635l-4-28 9-11.7-19.6-2.3" />
    <path fill="#d8d0ad" d="M173.8 479l49.3 38-42-28.8-23-4.4" />
    <path fill="#1f1408" d="M511.4 274.8l-87.8-14.5-15 85.8 41.8-106" />
    <path fill="#dcae66" d="M36.2 643.3l-36-7.8-31.2 48.7 50-56" />
    <path fill="#292314" d="M193.2 521l-26.4 23.4 7.2-17-19-2" />
    <path fill="#c19b09" d="M382.3 386l-16 37 45.4-45.5-19 52.2" />
    <path fill="#674d08" d="M598.5 314.6l8.4-9.7 1 31 8-28" />
    <path fill="#b7915a" d="M811.7 213.3l7 1 40 68.5-26.4-28.3" />
    <path fill="#b4a32c" d="M861 485.5l27.6-42.7-39.2 51-13.8-16.3" />
    <path fill="#826727" d="M788.8 462l38 70.2 39.4 74.2-13-21" />
    <path fill="#ac862d" d="M803.2 158.4l14-15-9.8 30-2-16.4" />
    <path fill="#66451e" d="M757 252.4l-23.3 3 22.6 24.6-46.5 36" />
    <path fill="#cfb480" d="M152 593.4l1.5 10L142 592l-43.3-.7" />
    <path fill="#8b5922" d="M740.2 611.7l19.4-13-28 32.7 1.8 15.7" />
    <path fill="#be9b5e" d="M985.4 220.3L975 204l-21.5 32.8 3.3-19.4" />
    <path fill="#5f4017" d="M136.2 654.7l17-13.8-12.6 72-21.8-65" />
    <path fill="#f7d982" d="M595.2 558l3.2-7 13.3 7.7-9.3 16.6" />
    <path fill="#805c27" d="M541.7 544.3l-14.3 10.4 2.6-13.4-1-3.2" />
    <path fill="#f0e0a5" d="M355 497.3l-9-64.3-7 8.2v-8.5" />
    <path fill="#6b680b" d="M512.6 658.4l.6 8.3 12.5 2 4-7.3" />
    <path fill="#0f0d0c" d="M752.7 30.3L673.3 140l58-12.8-78.8-15.8" />
    <path fill="#5b422c" d="M654 444l-8.8-12 36.2 34.4-5.6-24.7" />
    <path fill="#b27c41" d="M522.6 277L450 316l80.2-43.4L558 355" />
    <path fill="#c19540" d="M948.4 462l35.8-17.4-25 9.5 2-30" />
    <path fill="#4e3d26" d="M811.6 245v-2l10-1.6-5.2 14.3" />
    <path fill="#78610e" d="M808.7 406.5l-17.3 7 6.7 2.5v-48.6" />
    <path fill="#f3e4b3" d="M692.3 165l-5.4 21.4-17-48.7 8 31.5" />
    <path fill="#282627" d="M143.6 481l69.3-21.6-121-9 17-32.6" />
    <path fill="#402f1b" d="M247.2 625l-19-15.7 28.8-6.8-9-1.8" />
    <path fill="#1e1710" d="M317 412.5l-16-36.7 8.6 79L306 273" />
    <path fill="#ffefb4" d="M969.7 224.3l-23 58.4 10 40.6-7.6-56.5" />
    <path fill="#5b3f27" d="M986.3 259.2l-19 15 36.3-11.6-12.3-45" />
    <path fill="#c5b207" d="M958.5 662.6l5 16 1.6 5.3-12-24" />
    <path fill="#120b08" d="M483.4 207l6.7 6 68-96-95-59" />
    <path fill="#070401" d="M530.4 115L539-1.7l45.2 122.2 29.4 29.4" />
    <path fill="#c87219" d="M489.6 390.6l18 15.2 11.2 23-20-18" />
    <path fill="#8c5028" d="M733 588.8l-23.8 11.8-.3 2.4 54-14.7" />
    <path fill="#87800c" d="M820.5 483.7L802.8 405l8 27.3 5 11.8" />
    <path fill="#562e00" d="M845 432l8 17-1.3-21-5.5-4.4" />
    <path fill="#ada247" d="M495.3 666.8l35.7 2.4-42.6-15 49-8" />
    <path fill="#b17433" d="M319 465.3l11-11-29 4-21.8-20.5" />
    <path fill="#b89f06" d="M994 615.8l2 3.2 59-12-27.6-.4" />
    <path fill="#ebcd5f" d="M468.4 641.8l10-21.7-13.4 11 2 4" />
    <path fill="#be9359" d="M873 154.3l-18.7 12 72-19.4-20.7 11" />
    <path fill="#221607" d="M811 705.5l-31.8-28 40-5.3-23.3-23.7" />
    <path fill="#5f4a1a" d="M819 265.2l39 101-22.4-32.4 6.7 70.7" />
    <path fill="#fff5c3" d="M113.5 592.2l11.4 8.5v-22.2l-20-18" />
    <path fill="#bda561" d="M385.3 642.4L391 615l36.2 18-8.5-13.7" />
    <path fill="#a27a25" d="M498.5 683l-57-40 27.7-27-7.4 42.7" />
    <path fill="#ffeeba" d="M336 353l-4-4.2-.2 8.7 1.2 22.3" />
    <path fill="#c79b1c" d="M314.5 488.7l-50-22.5L280 484h41" />
    <path fill="#31291a" d="M860.2 136.3l1.7-56.6-3 73.3 18-14" />
    <path fill="#a37507" d="M679 572l-24-36 66 134.7L681.3 568" />
    <path fill="#18160a" d="M137 551l19.8 43.6 6.5-31L138 560" />
    <path fill="#ebe0b8" d="M678.6 126.2l-12 23.5 31.7-12.4-36.8 6" />
    <path fill="#ca852b" d="M276.5 598.4l-10-20.2-66.3-66.2 12.5 3" />
    <path fill="#e5a529" d="M380 653l7.2 19.6 5.5-3.5-10.3-52" />
    <path fill="#e2af5c" d="M760.8 457.4h-8.3l-7.7-49.4h4" />
    <path fill="#e5c790" d="M381.5 519.7l6.8-5.8-12.4 31-8-20" />
    <path fill="#917149" d="M679.8 461.8L679 486l-45-23-6.3 20.7" />
    <path fill="#793a15" d="M474 642.2l1-9 6.2 1.6 23.2-5.8" />
    <path fill="#826a52" d="M241.3 634.8l24.8-16.2 23-5-32-12" />
    <path fill="#322d27" d="M383.7 193.6l106.8 18.2-78.6-12.6-10 11" />
    <path fill="#f8b03e" d="M793.4 200.4l-32.7 4.7-3.2-58 20.8 79" />
    <path fill="#662f0b" d="M900 424.7l-10.7 37 19-51 5.7-21" />
    <path fill="#d48620" d="M935.4 428.8l5 34.8 14-93.4-15.2 59" />
    <path fill="#857c1d" d="M528 650.5l14.8-12.8 11.5 3.8-60.5.2" />
    <path fill="#c4b52b" d="M511.6 610l19.5 10.2 6-32.4-28 60" />
    <path fill="#d0842a" d="M692.8 241.7l5.7 29.6-4 1.5-4.3-8" />
    <path fill="#e2a83c" d="M526.7 449.5l79 143L554 490l-10.2-13.8" />
    <path fill="#ddb368" d="M962.7 197.6l31.8-68-10 56.4-16-15.3" />
    <path fill="#0b0705" d="M585.8 93.8l-8-86.8L663 128l-11.4-36.3" />
    <path fill="#7f4414" d="M966.6 475.3l11.2-27.3-9.8 38.2-15.7 28.3" />
    <path fill="#b6920e" d="M948.4 578.2l-2.8-14.4 28.4 36.5 17 26.2" />
    <path fill="#6c5132" d="M975 176l18.8 13 15.2-1.6-24.4 20.2" />
    <path fill="#e7bf71" d="M964.2 296.2l-3.8-70-8.7 67.5 29.6-25.8" />
    <path fill="#a08c19" d="M746.7 449.5l5 38.8 13.8 96.6-15.5-81" />
    <path fill="#936e39" d="M619.2 401.2l-1.2 10.6-23.5 48.5 21.5-32.7" />
    <path fill="#c9995d" d="M845.4 199.2l-13.7 15.6 16.3-4.5 12-28.3" />
    <path fill="#f9d72f" d="M838.3 429.8l6.8-11.6-3 35.3-1-6.7" />
    <path fill="#e9d470" d="M886.2 406.3L886 386l-11.3 41.5h4.6" />
    <path fill="#d1a668" d="M705.3 449l-33-141-13.8-12.6L673 331" />
    <path fill="#efd287" d="M228 546.6l-45.2-42-13 4.4 33.6 5.7" />
    <path fill="#55310c" d="M1008 508.7l26.2-62.4-19.8 38.2 16 19.8" />
    <path fill="#715f07" d="M726 527.4l7.5 36-1.5-25-49.5-123" />
    <path fill="#282627" d="M137 410l31.6-46.2.5 62.7 27 29.8" />
    <path fill="#432d0f" d="M272.8 582.5l.7.6 12.2-8-24.5 2" />
    <path fill="#997900" d="M445.2 673.4l40.4 32.6-8-30-75.3 37" />
    <path fill="#efca78" d="M918 396.5l27 17.6-.8-6 5.7-3" />
    <path fill="#f9d77a" d="M769.8 103.6l-11 47.6 8.7-65 12.8 2.8" />
    <path fill="#17140f" d="M713.7 187.4L729 195l-8.5 9.3-31-49.4" />
    <path fill="#c9a349" d="M268.5 622.6l67.6 20.8 9-6.3-31-6" />
    <path fill="#1b120b" d="M489.5 234.6l-56-54.2 205.3-82-175.4 88.2" />
    <path fill="#dbd7b4" d="M502.5 713l12.3-34 69.3 34H463" />
    <path fill="#f0f5eb" d="M586.2 447.4l8.2 9.8-5.5 18-9-25.6" />
    <path fill="#e8cf7f" d="M484 422.7l-26-82.4 52 44.2-52-48.5" />
    <path fill="#e1ac56" d="M763.3 260.8L781 294l-21-30.5 2.7-49.6" />
    <path fill="#a37f46" d="M244.8 603.8l-28.5 7.6 115.8-109-96 92.6" />
    <path fill="#f3d891" d="M742 420.8l-8-4 10 36.3 19.7 45" />
    <path fill="#f6dd9e" d="M540 470l-6.5-20 43.3 55.2-44.4-44.8" />
    <path fill="#ba9a6b" d="M515.8 559.6l-5.6 28.4 33.7-12.6-26 21.6" />
    <path fill="#483818" d="M689.2 435l-10-26.5 26.2 48.2-9.3-34" />
    <path fill="#b8760e" d="M1007.3 372l21.5-70.5-25.3 69L967.8 509" />
    <path fill="#2e200d" d="M109 138l-.4-46.5L78 87.2 24.4 192.4" />
    <path fill="#faf9e3" d="M570 668l-26 3.4-3.2 6.3 22.3-2" />
    <path fill="#aa7b22" d="M619.8 531.8l-13-15 25.6 15.2 22.8 49.8" />
    <path fill="#493411" d="M655.6 409.4L642 414l-2.6 17 15 21.8" />
    <path fill="#9d870a" d="M830 474.4l50.7 79-1.4 9.6-28-74.5" />
    <path fill="#e59114" d="M772.4 602l-4.8-44.4 2.7 54 2.8 32.2" />
    <path fill="#7e4613" d="M895 489.8l.6 25.2-8.7-44.3-29 42" />
    <path fill="#c3aa19" d="M443.6 658.6l-2.5-72-26-40 36 72.4" />
    <path fill="#cfab55" d="M304.5 471.4l-42 23L309 464l-3.5-39.8" />
    <path fill="#a8885f" d="M738 268.5L701.3 288l17.8-37-10-6.8" />
    <path fill="#e8ca8f" d="M1004.7 207.5l19.3 4-11-76.6 30.2 91" />
    <path fill="#231e18" d="M860 634.7l-.4 15-8 15.2 4-33" />
    <path fill="#c2b77a" d="M809.8 713l-13-2.7 71.6 2.7-105-36.6" />
    <path fill="#1e120c" d="M883.4 215.2l-13.4-17 29-13.5-3.3 16.7" />
    <path fill="#957f19" d="M500.7 453.6l-44-48 4.6 2.3 20.7 7" />
    <path fill="#bca244" d="M848.2 513.6l-9.3 4-14 3 30-12.7" />
    <path fill="#463006" d="M1023.6 657l17.8 56-31-121 44.2 121" />
    <path fill="#5e3211" d="M1016.5 533l2.8-15.8-20.5 4L1055 557" />
    <path fill="#1f1714" d="M157.8 163.4L125.2 261l25.3-18.3 92.8 9.6" />
    <path fill="#a28136" d="M328.8 663.2l.3 1-20-40.2 54 67" />
    <path fill="#6e4e2c" d="M105.5 626l-5.7 40.3-1.5 8.5 14-52.2" />
    <path fill="#957b56" d="M197.6 663l.3 3.3-8-25.4-37 32" />
    <path fill="#eacca0" d="M511.5 238.7l-10-17-23.7-10 48.6 47" />
    <path fill="#dfae49" d="M683 471.2l-27.2-181 31 200.3 18-21.7" />
    <path fill="#ffe592" d="M401.7 378.7l-31.7-65 19.3 25 14.2 37.2" />
    <path fill="#19100a" d="M471.4 184l91.4-91.4-61.2 103.8 9.8 37.8" />
    <path fill="#1d150d" d="M247.6 342.2l51 68.7 9.5 46-19-71" />
    <path fill="#debe76" d="M176.7 578.8l-19.6-25-12 2.6 52 22.5" />
    <path fill="#efbb52" d="M299 678.5L239.7 625l17.7 10.7L336 713" />
    <path fill="#120b05" d="M347.7 309l1.3-42 18.4 12.3-73 57" />
    <path fill="#2c1906" d="M923.8 635.2l-6.2-41-1.4 8.3 13.3 27.5" />
    <path fill="#da9237" d="M681.5 237.2l-17-40.6-3 6.6 23.5 47.2" />
    <path fill="#150b04" d="M610.3 266l3.3-10.8-73.6-140 42.8 6.7" />
    <path fill="#292c2f" d="M52.4 560.2l-21.7-85-18.7 5L56.8 511" />
    <path fill="#3b2c1e" d="M250.3 478.2l-.3-15.4-15.4 16.2-45-22.2" />
    <path fill="#9a842a" d="M524.3 392l4.4-25 3 25.6-82.3-49.7" />
    <path fill="#f1e2bc" d="M678 341.8l10-13-25.7 5.3 20.4-13" />
    <path fill="#aca715" d="M439.5 622.2L405 593.4l42.3 65.8-42.2-98.4" />
    <path fill="#eef0e9" d="M55.8 665l-3.6 3.6L3.5 713l56.8-47.6" />
    <path fill="#f5c342" d="M438.2 522.6l9 31.4-5.3-52 4-51.3" />
    <path fill="#a3844f" d="M1055 358.4L995 415l51.7-16.3-44.4-9.2" />
    <path fill="#967b50" d="M916.8 93.2l25.3 16 6-16.2-36 14.5" />
    <path fill="#d9a04b" d="M959.8 267.4l-2.2-4-9.2 112.3L964.2 269" />
    <path fill="#ac9e23" d="M548 628.4l47 19.7 28.2 12-72.2-39" />
    <path fill="#755c2e" d="M843 591l28.5.5-2.6 24-28-37.7" />
    <path fill="#9b7b42" d="M789.5 327.7l49.7-43-16.2 3.7-9.5-5.7" />
    <path fill="#060606" d="M17 413l-38.2-30.6 66.4 10.4-40.5-77.3" />
    <path fill="#e0c180" d="M673.6 171L646 133.2l44.3 38-43-23.8" />
    <path fill="#784925" d="M859.7 226.6l13.3-27-4 30-11.6 2.2" />
    <path fill="#684022" d="M823 407.4l4.2-21.5-20.7-5-2.7-28" />
    <path fill="#f6f2db" d="M55.3 667.6l-61 41.6 74.5-44-6 .3" />
    <path fill="#b09b32" d="M420.8 656.5l-33-42.5-3.2 16.6 26-20" />
    <path fill="#aa9244" d="M488.3 532.8l-14.5 23.6 28.3-6-12 33.5" />
    <path fill="#f0d083" d="M744.5 416.4l31.6 54.8-20-64-23 70.2" />
    <path fill="#c6ad5f" d="M702.8 567.3v2l-11.5 14 5.2-24.5" />
    <path fill="#906b3e" d="M214 586.6l-.7-29.7-15.2 15 48 45" />
    <path fill="#dea542" d="M763 357l30.8-26 26 104.8-28-94.5" />
    <path fill="#110c04" d="M96.8 644.2L32 638.7l1-22.5 32.2 3.6" />
    <path fill="#0d0c08" d="M42.3 616.3L33 651l27.2-13 16.5-65.6" />
    <path fill="#5f3c1b" d="M925.3 303.2l-24 62 1-26 22.2-18.2" />
    <path fill="#caa612" d="M990 636l12 2-3-28.6 7 16.4" />
    <path fill="#e3af5d" d="M702.4 310.7l11.2 103 8.6 12.3-19.2-85" />
    <path fill="#b58345" d="M765 330.6l51.7 31.7-7.3 21L813 356" />
    <path fill="#040302" d="M880.8 114l39.8-13.3-76 30L820-31" />
    <path fill="#d9aa65" d="M918.8 168.4l-15.4-1.8 52.6-14.8-62.6 20" />
    <path fill="#eaa031" d="M646 475l2 15 3.2-20.4 21 50.8" />
    <path fill="#867018" d="M749 403l-7.7-31-15.6 5.6 27.6 12.4" />
    <path fill="#f4b427" d="M671.3 588v-12l14.3 18 3 14.2" />
    <path fill="#fdf2bc" d="M580.5 326.2l17.3 27-27.3-50.3-3.2 32" />
    <path fill="#272523" d="M192.7 432.2L139 474.5l87.2 16.8L205 500" />
    <path fill="#715733" d="M877 220.3l33-83-45.4 22 42-11.7" />
    <path fill="#141212" d="M699.4 32.5l-.3 101.3 19-33.5 35 35.7" />
    <path fill="#f0f9dc" d="M29.5 615.7l-3.2-15.3 5-9 2.2 16.5" />
    <path fill="#4f320b" d="M986.5 652.6l13.2 57.8-8.4-52.5-68.3-27" />
    <path fill="#f3d98f" d="M284.4 539.4l7-9-20.3-31.2 34 42" />
    <path fill="#312615" d="M730 441.4l1-10-9-27.6 1 11.2" />
    <path fill="#c3a065" d="M460.6 516.5l-11-48.3-2.8-32 11.6 28.4" />
    <path fill="#d3bc88" d="M220.2 515l-23-20.7 42 99.4L194 486.5" />
    <path fill="#d5b683" d="M939.7 348.6l14-39 16.3-11-1.7-7.6" />
    <path fill="#e0c17b" d="M466.6 451l20-3.5 18 14.8-7.8.3" />
    <path fill="#684b33" d="M892.6 343.8l-5.4 29.2-12 5.4 5.8-37" />
    <path fill="#eeca84" d="M993.8 112.5l27.6-93.2-7.7 98-32.3 56.4" />
    <path fill="#120b04" d="M307.3 272.3l20.6-74-125 20 72 20.7" />
    <path fill="#7d5c35" d="M881 224.4l3.7-6-13 22 32.2 10.2" />
    <path fill="#422010" d="M882 530.2l2.4-43.6-12.2 38.8-15-25.4" />
    <path fill="#916920" d="M414.6 711.3l4.8-46.7-17.5-10.4 32 47.6" />
    <path fill="#040406" d="M13 702l4-26-37.4 37L5 676.3" />
    <path fill="#8c7043" d="M441 561.4l-18-6.6-46 9.4 59.8-42.7" />
    <path fill="#5f370d" d="M1032 492.6l-41.8 6.2 15.3-11 6.5 23.4" />
    <path fill="#0f0402" d="M736 653l6.3-13.5 32.5 36.8-3.6-22.4" />
    <path fill="#e3b768" d="M591.6 661l-76.4-27 51 24 23 9.4" />
    <path fill="#494a4e" d="M139.3 386.6L141 375l7 20-18.3 21" />
    <path fill="#261c0d" d="M482.3 350.3l-1.5-64 14.5 73-33-36.2" />
    <path fill="#d39944" d="M617 445.6l54-115.4-19.5 33.8L594 487" />
    <path fill="#cc7a01" d="M917.5 547l1.4 6.3 3-35.3-1.8-71" />
    <path fill="#593d0c" d="M685.6 660.7l3.2 52.3-12.2-79.3L740 662" />
    <path fill="#8c7a5c" d="M401 384.2l-15.8-3.2-.5-33.4 3.3 19.2" />
    <path fill="#492f13" d="M815.4 352.8l10.7 6.4 6-3-22-37" />
    <path fill="#170b02" d="M377.6 314l-17-6.5-3.4 28.7-17-57.3" />
    <path fill="#271a0d" d="M774.7 417.5l-3-6.2.6-21.4 3.5 26" />
    <path fill="#0f0e00" d="M763 678.2l-30 5.2-29.8-33 38.8 28" />
    <path fill="#fbefbd" d="M969.4 269.7l-8.6-16.5.7-42 4.8 25.7" />
    <path fill="#513510" d="M849 268.5l4.7 98v2.2l6.6-51.7" />
    <path fill="#74572a" d="M489.6 500.6l10-19.4 16.5 32.5-60-42.5" />
    <path fill="#fbe39d" d="M672.3 129.7l-15.6 19 26 81.3-22.3-51.3" />
    <path fill="#13100c" d="M23.2 530.5l18 25-21.6 53.8L10 588" />
    <path fill="#f9ebbf" d="M767.8 82.3l-3.3-25-8 87.3 2-51.2" />
    <path fill="#3e1d07" d="M941.3 462.3l2.5 18.6 3.7-32-9 11" />
    <path fill="#e2c085" d="M787 91.7l-14.6 22 15.5 86.5-8-85.4" />
    <path fill="#ecd69f" d="M610.2 167l32 3.7-24 17.3 33.7 12.8" />
    <path fill="#d4861f" d="M648 598.4l15.8 89-6.8-65.7-58.8-64.5" />
    <path fill="#42351d" d="M473 363l-10.2-15.5L476 355l30.3-79.8" />
    <path fill="#fabb43" d="M579.7 601.7l-30.8-38-13-.7 10 8" />
    <path fill="#59381b" d="M742.5 322.2L710 310l3-26.2 21 22.3" />
    <path fill="#957648" d="M804 200l57-27-53.3 9.7 53.4-25.2" />
    <path fill="#451e00" d="M971.4 378.6l-9.7 8.3 4.8-35-6.5-13" />
    <path fill="#e7cf92" d="M573.3 262.3l-57-41 33.4 14.6 55.4 94" />
    <path fill="#fcf4d1" d="M456.7 328l-1.3 29.5 10-13.3-17-29" />
    <path fill="#c4a263" d="M1006.5 371.8l-26.2 13.8-75.2 22 66-21.7" />
    <path fill="#643b16" d="M255.6 392.5l2-7 .3-13.5 10 31.7" />
    <path fill="#dcae49" d="M326 603.5l9.4-13.7 15 45.5-24.6-44.5" />
    <path fill="#553a16" d="M618.6 400l.7-2.4-16 50.4 12-55.4" />
    <path fill="#9a7b33" d="M386.3 605l-5.7 17 51.8-36-56.5.7" />
    <path fill="#644b03" d="M751.2 483l6 71.2 2 77 1-76.8" />
    <path fill="#cbaa46" d="M707.3 527.2l17.2-53.2 3 29-21.3 1.8" />
    <path fill="#1f1e1c" d="M97.3 363.6l24.6-7.2L63 233l57 42.6" />
    <path fill="#6f5833" d="M752.7 289.5l25.4 23.7-11-30-5 24.3" />
    <path fill="#4d3002" d="M1001.6 619.6l-11.2-1-25 39 .5-4.8" />
    <path fill="#f6d06e" d="M908.4 281.4l14-61.8-10 33.8-13.8 68.4" />
    <path fill="#d0bb87" d="M160.7 622.4L150 607l22-22-28 31.3" />
    <path fill="#81663b" d="M447.6 456L466 569.4 447 508l1.8 4" />
    <path fill="#b38c08" d="M974.6 674.5l16.4 3.2-10-14.3-7.7 49.6" />
    <path fill="#e2d199" d="M214.8 528.3l-26.2-17.8 12.7 19.5-22.8-5.7" />
    <path fill="#1f1b1c" d="M198.8 265.7l34.6-95.7 31.4-116-88.2 198" />
    <path fill="#e9c46e" d="M360.6 288.6l28 36.4 13.2 48.6-8-26.5" />
    <path fill="#fee8a0" d="M576.3 377.7l3.2 30.4 4.5-89 2.3 23.8" />
    <path fill="#a88a17" d="M671.7 511.2l16.2 11.6-6-14.4-25-17.2" />
    <path fill="#150e03" d="M247.5 360.5L212.8 397l47.8-1-38.2-34" />
    <path fill="#140f00" d="M838 527l18.3 58.6 19-18-27.8-2" />
    <path fill="#deb561" d="M375.7 398.6l-77.7 71 45.6-37.6 20.5-29" />
    <path fill="#dd8729" d="M386 306.7l-5.5-29.3 13.4 25.8 13 78" />
    <path fill="#5c4903" d="M877.2 456.4L871 466l-16.6-12.7-.3 12.3" />
    <path fill="#d1ad05" d="M971.3 572l17.8-3-24 17.6 14 26.4" />
    <path fill="#c69734" d="M274 514.2L235.5 544l34.7-40.4-37-20" />
    <path fill="#ba7f1c" d="M817 503.4l23.8-65.8-26.2 58L788 612" />
    <path fill="#d0a84e" d="M387.3 455.6l30.7-14-52 36 6 29.7" />
    <path fill="#907444" d="M1002 169.3l-4.3-4 18.7 59.5-31.6-62" />
    <path fill="#e5b664" d="M107.4 583.4l8.8-22-18 77.8-6.6 16.8" />
    <path fill="#331f01" d="M895.2 580.4l-3 32.5 12.2-44-25.4 17" />
    <path fill="#ce9c2f" d="M761.3 418.2l24.3 40-17.3-32.2-5-58.7" />
    <path fill="#f6e6b8" d="M555 334l2.7-11 2.6-6-13-4.6" />
    <path fill="#9b7244" d="M702 383l-24.4-24.3 29 22.4 7 23" />
    <path fill="#b8670f" d="M788 588.7l-2.3-33-5.3-16-7-4.4" />
    <path fill="#171310" d="M574.7 118.8L615 79.2l43 58.7-31-20" />
    <path fill="#d6ceba" d="M352 491.6l11-24.7 1.4-1-13.3 8" />
    <path fill="#d3c961" d="M556 640.6l5-17.6-15-19 27.8 23.2" />
    <path fill="#64350c" d="M378 431l9-10.2 3.8.4-37.5 49.3" />
    <path fill="#47301c" d="M995.2 50.5L960.7 52l-64 57 99.8-63" />
    <path fill="#8e581a" d="M908 449.2l-3 62.2 2 7.2-7-44.3" />
    <path fill="#595e07" d="M862.2 413l-2.5 51 5 4.6v-21.2" />
    <path fill="#d2a662" d="M642.8 545.8l17.6 22.6-39-28.5 4.5 23" />
  </g>
</svg>