<svg version="1.1" viewBox="0 0 1024 682" width="1024" height="682" xmlns="http://www.w3.org/2000/svg">
  <g fill-opacity=".5">
    <path fill="#1b1c1d" d="M118 9L27 47l34 30L317-31" />
    <path fill="#8b6121" d="M791 263l-2 42 18-67 31-4" />
    <path fill="#5c5d5d" d="M722 130l-22 38 8-28 8-15" />
    <path fill="#d6d6da" d="M718 517l12-27 10-4 2 122" />
    <path fill="#f5e2ad" d="M774 382l-5-20-21 48-9-25" />
    <path fill="#7d6c59" d="M498 80l14-12-20-4-16-4" />
    <path fill="#bec7b5" d="M647 494l-15 79 27-5-3-36" />
    <path fill="#59b8a4" d="M658 499l-26-7 66 27-42 40" />
    <path fill="#c1964d" d="M641 304l-15-6-4 18-22-7" />
    <path fill="#dcdcdc" d="M632 617l-233-75 275 171-4-104" />
    <path fill="#3b0300" d="M669 292l-2 16 3 23-15-14" />
    <path fill="#535353" d="M746 62l16 1 10-17-22 6" />
    <path fill="#bd89c3" d="M427 428l-14-229 33 31-11 39" />
    <path fill="#919191" d="M949 123l15 53h-28l35-53" />
    <path fill="#9040b4" d="M448 301l9-37-22-2-1 20" />
    <path fill="#cec41a" d="M619 232l-43 29 28-48-8 11" />
    <path fill="#59595c" d="M685 85l15-6 14 2-7 10" />
    <path fill="#cecfd2" d="M670 26l-34-55 2 125 15-73" />
    <path fill="#9a9386" d="M809 192l28 2 22 88-2-74" />
    <path fill="#1c1321" d="M921 433l-39-58 40 4-31 74" />
    <path fill="#d5d5d5" d="M731 77l58 2-48-11-3 48" />
    <path fill="#b3a897" d="M345 17l-7 79 25-57 85-8" />
    <path fill="#daceb6" d="M728 201l29-34 1-22-29 81" />
    <path fill="#f3f4dd" d="M650 187l-11 20-6-4 2-7" />
    <path fill="#9ab7cb" d="M286 311l45-79 22 3-19 61" />
    <path fill="#898989" d="M883 103l-80 48 21-28 103-12" />
    <path fill="#c5c4c4" d="M914 101l-51 34 61 2-125-97" />
    <path fill="#766c42" d="M579 365l-17-15-1-10 22 7" />
    <path fill="#b28124" d="M682 166l-61 29 35-6 7 19" />
    <path fill="#c574d8" d="M333 331l-14 35 40 7 16-84" />
    <path fill="#9c9d9f" d="M-12 292l101 4-71 18 103-119" />
    <path fill="#e3e3e3" d="M561 713L357 602l176-82-47-37" />
    <path fill="#d5d5d5" d="M958 713l58-322-62 195-16 95" />
    <path fill="#543616" d="M632 182l-11-36 19 26-12 24" />
    <path fill="#4b442b" d="M730 435l6 20v-41l34 7" />
    <path fill="#3f4041" d="M758 150l18-1v1l-9 14" />
    <path fill="#81a6e0" d="M388 300l18-29-9 80-21-22" />
    <path fill="#383939" d="M302 670l-85-100 2 17-28-110" />
    <path fill="#079688" d="M649 354l-5-41-7 21-9 63" />
    <path fill="#c9cace" d="M667-31l35 52 15-52v52" />
    <path fill="#e2b6ac" d="M309 256l-32 59 64 2-60-31" />
    <path fill="#94cfc1" d="M621 553l60 45-38 6-50-11" />
    <path fill="#e5ad41" d="M754 173l8 11-12 7-27-24" />
    <path fill="#8f8e8e" d="M854 137h25l-23 52 18-18" />
    <path fill="#000039" d="M895 601l23-167-9-19-65 78" />
    <path fill="#0ebca9" d="M664 570l-16 4 34 18-6-60" />
    <path fill="#613306" d="M537 187l9 3-4-41-17 6" />
    <path fill="#c3621e" d="M649 332l2-17 28 23 12-22" />
    <path fill="#ddcaaf" d="M288 115l53-18-8 36-56-63" />
    <path fill="#494848" d="M770 38l3-18-35 4 3-11" />
    <path fill="#c6c7c9" d="M688 109l10-59-33 35-47-22" />
    <path fill="#f8f8f8" d="M258 516l54 126-37-192-51 36" />
    <path fill="#c1b29e" d="M535 129l31 51-18-8-9-72" />
    <path fill="#cfcfd2" d="M634-31l-25 53-18 82 1 26" />
    <path fill="#3e3e3f" d="M735 52l-4 4 17-18-22-6" />
    <path fill="#484a4b" d="M737 164l13-17-21 1 3 3" />
    <path fill="#3a0900" d="M681 321l-8-7-4-4 20-5" />
    <path fill="#02b6a4" d="M735 614l-12-67-32-121 10 197" />
    <path fill="#ced0d4" d="M740 139l-40 46 46-90-24 15" />
    <path fill="#eaac99" d="M471 429l-30-39-13 84 23 11" />
    <path fill="#c6c4b7" d="M645 240l-18 24-5-4 21-42" />
    <path fill="#caccce" d="M842 215l124 55-162-54 55-34" />
    <path fill="#624621" d="M815 257l50-3-44-24-4 18" />
    <path fill="#7b5389" d="M466 80v18l-32 47 57-14" />
    <path fill="#c9c4a9" d="M530 167l-34 31-6 20 35-15" />
    <path fill="#d67b34" d="M330 94l-3 3-26-15 29-31" />
    <path fill="#5f6061" d="M743 88l30-14-14 13-18 17" />
    <path fill="#080600" d="M868 490l-3-31-38 15 30 17" />
    <path fill="#d48945" d="M420 173l-11 11 4-24 27 1" />
    <path fill="#646568" d="M695 82l10 36-31-4 20-5" />
    <path fill="#6f7277" d="M666 138l-5-39 9-36-27 76" />
    <path fill="#c6cba5" d="M629 511l-36 42-10-14 43-158" />
    <path fill="#7b4a51" d="M413 115l-14 2 7 18 31-18" />
    <path fill="#49494a" d="M736-31l-25 59 1 19 2-11" />
    <path fill="#a1a09a" d="M955 185l-47 116-12-17 39 3" />
    <path fill="#ce81d9" d="M436 421l14-57-67-3 31 20" />
    <path fill="#c2a556" d="M612 288l19-11-65-66 75 75" />
    <path fill="#c2c3c4" d="M678 87l-26 44 61-29-30 3" />
    <path fill="#575758" d="M128 571l12 118-11-6-5-107" />
    <path fill="#25ae9a" d="M668 404l-42 18 3-37 76 80" />
    <path fill="#7e7e80" d="M550 38l49 3 12-3-22 22" />
    <path fill="#afb0b1" d="M284 614l2-30-11-27-43-51" />
    <path fill="#c4c4c4" d="M805 72l82-58 25 3-62 34" />
    <path fill="#c4b075" d="M839 365l11-75 12-29-18 109" />
    <path fill="#726a2d" d="M670 250l-24-21 15 44-28-26" />
    <path fill="#cdc8a1" d="M577 320l-10-33-30 24 79-78" />
    <path fill="#dedb84" d="M534 573v-46l-63-9 82 47" />
    <path fill="#a3a4a4" d="M-29 472l69-23 11-56-36 31" />
    <path fill="#090f0d" d="M603 327l-6-17 18-35-18 14" />
    <path fill="#9e700d" d="M619 239l-87-71 102 69 23-55" />
    <path fill="#d0d0d0" d="M757 31l-17 18v5l26-4" />
    <path fill="#d55b05" d="M802 373l-30 23 42 12 29-21" />
    <path fill="#757474" d="M135 347l33-36 51 115v43" />
    <path fill="#ced1d4" d="M699 154l-2-31 12 11-4 16" />
    <path fill="#414142" d="M726 82l5 11V61l-3 6" />
    <path fill="#636363" d="M53 468l-32 49-39-22 46-31" />
    <path fill="#6f6f70" d="M629 20l-10 5 8 9 16-20" />
    <path fill="#c5c5c4" d="M804-31l-11 9-37 125-6 76" />
    <path fill="#cbc379" d="M496 458l95-192-48 73 28 40" />
    <path fill="#6538b7" d="M360 141l30 83 20-33-65 24" />
    <path fill="#633d06" d="M818 405l12 9-31 53-15 4" />
    <path fill="#002bac" d="M839 652l-32 23 23-84 20-30" />
    <path fill="#1f2933" d="M555 106l3-10 2 16-19 1" />
    <path fill="#d3d1be" d="M641 105l-33 41-80-37 68 16" />
    <path fill="#cbaecb" d="M430 294l-14 5-14 71 21 4" />
    <path fill="#767779" d="M561 79l13 10 22-14-53-11" />
    <path fill="#aabbc1" d="M807 326l-19 6-3-1v-24" />
    <path fill="#ced0d4" d="M550-2L349 24l60-41 150 36" />
    <path fill="#507697" d="M365 85l48-2-10-31-2 18" />
    <path fill="#6f2804" d="M475 226l-25 11 3-4 37 42" />
    <path fill="#6f6f6e" d="M139 155l-76 76 29-38 189-77" />
    <path fill="#784811" d="M616 340l10 8-34-17 39 4" />
    <path fill="#ca9e44" d="M742 571l20-60 24-31-9 64" />
    <path fill="#d5d5bf" d="M633 468l-79 57 16-140 62 122" />
    <path fill="#bdbdbe" d="M1055 504l-96 209 56-261 2-149" />
    <path fill="#919190" d="M944 65l-75 1 15 17 39-3" />
    <path fill="#9b752f" d="M705 359l-47-4 33-11 32-6" />
    <path fill="#4f5053" d="M682 114l10-4-1 36-2-23" />
    <path d="M-31 91l10 159L97 149l142-48" />
    <path fill="#898a8c" d="M214 360l42 92 28-78-61-94" />
    <path fill="#7b2fcb" d="M357 244l9 60 25-21-31-38" />
    <path fill="#3a362b" d="M158 132l70-18 50-15-3 17" />
    <path fill="#696b70" d="M959-31l-65 47-3-47 43 45" />
    <path fill="#2a0900" d="M609 155l7-5 3-9-25 15" />
    <path fill="#d4d3d4" d="M717 647l29 66-213-44 111-5" />
    <path fill="#ecc57f" d="M687 295l18 25 3-2-1-11" />
    <path fill="#aabcad" d="M677 403h-23l12-33h16" />
    <path fill="#cfcbc7" d="M590 180l39-16v27l-32 24" />
    <path fill="#00a792" d="M746 456l-19-7-20 54 1 12" />
    <path fill="#c2c2c4" d="M684 60l39-72 4 4-66 77" />
    <path fill="#8e8f93" d="M872 254l24 6-11-15-11 4" />
    <path fill="#cccbcb" d="M866 52l52-9 6 18-57-1" />
    <path fill="#bec2c5" d="M871 386l-8-5-26 48 18-91" />
    <path fill="#d4d4d5" d="M723 25l10 41-17-4 5-17" />
    <path fill="#454545" d="M1014 16l31 36-10-83-59 55" />
    <path fill="#141414" d="M125 496l49 20 93 174-2 23" />
    <path fill="#794408" d="M644 225l23-7 15-55 17-15" />
    <path fill="#949598" d="M836 218l23-16 34 27 8-20" />
    <path fill="#f9e79c" d="M648 165l10-12 17-10 3 32" />
    <path fill="#4b247e" d="M493 163l-13-13-44 27 13 7" />
    <path fill="#ba842a" d="M294 152l-54 207 10-38-3-50" />
    <path fill="#763f06" d="M587 204l-8-24 1-5 14-25" />
    <path fill="#e3e3e2" d="M822 130l-12 4-6-7v-15" />
    <path fill="#ccb26a" d="M726 428l37-38-4 18-37-2" />
    <path fill="#903d04" d="M804 446l-59-75-9 2 69 38" />
    <path fill="#ffa51c" d="M271 347l20-13 6-8-45-47" />
    <path fill="#606061" d="M863 24l-27-13 3-20 17 46" />
    <path fill="#faf5ca" d="M737 162l-15-2 38 22-3-16" />
    <path fill="#c8953c" d="M749 232l11-13 14 3-22 24" />
    <path fill="#d8dee3" d="M526 129l-1-24 38-8-4-25" />
    <path fill="#bba04f" d="M661 210l12 42-20-23 11-3" />
    <path fill="#362100" d="M568 131l-11 6-3 11 15-8" />
    <path fill="#b87e28" d="M792 494l-55-57 10-3 18-3" />
    <path fill="#d4c564" d="M601 249l-92-44 88 24-43 32" />
    <path fill="#00997f" d="M677 419l24 22 11-84-25 7" />
    <path fill="#777779" d="M908 27l-24 5 7 16h3" />
    <path fill="#9da0a4" d="M522 9l13-37-17 49-45-10" />
    <path fill="#726536" d="M851 245l11 17-41 67 26-17" />
    <path fill="#c2973e" d="M811 589l-38 47h-4l27 5" />
    <path fill="#956a3a" d="M909 408l2-3 17-26 3-71" />
    <path fill="#1b0300" d="M712 330l-3-3 2-30 14 31" />
    <path fill="#c8c9ca" d="M708 51l4-22-27-7-4 6" />
    <path fill="#6b6246" d="M787 295l27 35-25-20 1-38" />
    <path fill="#424243" d="M64 321l-19 15 15 114-12 27" />
    <path fill="#cfcfd0" d="M784 106l-70 45 59-10-15-46" />
    <path fill="#d1c8bb" d="M627 202l-31-47-6 53 30 11" />
    <path fill="#6d2d00" d="M649 202h13l-1 22h-21" />
    <path fill="#c5c4c4" d="M901 86h32l-145 81 101-35" />
    <path fill="#919191" d="M893 95l-27 15 65-1-26 16" />
    <path fill="#866d0e" d="M542 248l14 47-23-32 30-15" />
    <path fill="#929292" d="M905 162l4-20-66 5 36-16" />
    <path fill="#72706e" d="M912 582l17-100-8-73-4 121" />
    <path fill="#f3e0a6" d="M686 349l-27-7 2-12 15 11" />
    <path fill="#8e5c22" d="M863 327l4 41 1-16 7-60" />
    <path fill="#c5c1b4" d="M713 191l-32-10 32-14-3 96" />
    <path fill="#005b48" d="M766 296l11 12-3 22-43-18" />
    <path fill="#302f4d" d="M886 441l-16-50 1 40-15 33" />
    <path fill="#cecece" d="M818 181l49 30-30-45 84-9" />
    <path fill="#e75600" d="M807 544l3 22-25 46-15-45" />
    <path fill="#474848" d="M665 75l13-5-27-10 20-2" />
    <path fill="#cacecf" d="M361 61l29 13 6-32-35-4" />
    <path fill="#55350f" d="M720 207l3-14 6-20 9-1" />
    <path fill="#5dbcad" d="M683 522l6 100-2 21 23 9" />
    <path fill="#413743" d="M822 578l-2 1-9-17 14-110" />
    <path fill="#dadbdc" d="M562 68l-15-19 32 14-13 6" />
    <path fill="#b88e3e" d="M685 210l10-37-33 103 21-41" />
    <path fill="#bfc5c4" d="M605 239h42l2 11-2-2" />
    <path fill="#eae5c5" d="M742 396l25-35-24 1 14 30" />
    <path fill="#f6e19f" d="M524 229l-30-14v-22l14 10" />
    <path fill="#969595" d="M859 174l-14 15 59-4 3-7" />
    <path fill="#6e475b" d="M387 133l-23 1-8 18-16-26" />
    <path fill="#cec2a5" d="M643 201l7-23-7-12-4 8" />
    <path fill="#e1db71" d="M532 546l21-143-18 39-18 115" />
    <path fill="#51412e" d="M640 165l8-17 8-4-11 28" />
    <path fill="#f5f5f5" d="M415 713l-103-25-2-29 79-127" />
    <path fill="#d8dada" d="M430 327l-45 31 60 125-195-25" />
    <path fill="#dfdc74" d="M430 557l8-37 26-84 9 74" />
    <path fill="#d0cfcb" d="M703 79l-28-3-7 101 27-133" />
    <path fill="#7e580d" d="M610 268l-5 12 17-6 22-10" />
    <path fill="#00027b" d="M875 527l-29 186-6-56 15-101" />
    <path fill="#d5b166" d="M467 388l11-76 7-31 15-30" />
    <path fill="#4a8ecc" d="M347 238l-1-69-6-27-4 81" />
    <path fill="#a07b50" d="M899 369l12-5-9 15-45-27" />
    <path fill="#ffb16f" d="M295 355l-25-76 33 40 26-4" />
    <path fill="#b5974b" d="M259 194l-11-55 35 34-16 40" />
    <path fill="#1d1000" d="M607 144l-6 7 17-3-16 14" />
    <path fill="#9fa2ad" d="M584 598l6-31 15 25-10 8" />
    <path fill="#575757" d="M767 124l8 8 8-5 1-12" />
    <path fill="#c2bf97" d="M577 254l12 127h41l-27 47" />
    <path fill="#331b00" d="M614 274l27 7 1-2 5-5" />
    <path fill="#d9b697" d="M802 713l-23-64-50-25 49 67" />
    <path fill="#b4ae84" d="M547 402l27-101 26 41-46-52" />
    <path fill="#a6a6a5" d="M200 198L87 335l122-67 3-78" />
    <path fill="#c6c6c7" d="M983 229l-180-56 145 64-4 100" />
    <path fill="#c9cac1" d="M689 196l39 48-47-9 8-17" />
    <path fill="#5d4021" d="M934 296l-56 1 9-14 38 26" />
    <path fill="#7a7979" d="M836 158l-3 19h2l-17-21" />
    <path fill="#7d651e" d="M552 251l-8 6 6-16 23 30" />
    <path fill="#2a0d00" d="M658 310l7-13 17-5 13-2" />
    <path fill="#68667d" d="M874 448l-19-65 13 8-19 22" />
    <path fill="#c2632c" d="M661 316l37-24-27 9 6 31" />
    <path fill="#c9c9cb" d="M737 15l-25-4-41 12-15-1" />
    <path fill="#1e0e00" d="M667 219l8-22 6-9 3 25" />
    <path fill="#5e6063" d="M705 139l27-8-9-5-15 2" />
    <path fill="#cfb377" d="M497 90l-10 61 12-43 35-7" />
    <path fill="#65b6a0" d="M690 446l-61-54 19-21 37 115" />
    <path fill="#c5c8cd" d="M657 139l-87-21 97 34 29-37" />
    <path fill="#010102" d="M263 79L236-31h47l17 71" />
    <path fill="#494a4b" d="M694 8l-16 12-56-51-126 1" />
    <path fill="#ab6d1a" d="M591 149l-38-29 19 7 1 83" />
    <path fill="#dadadb" d="M739 107l-1 8 15-10-18-14" />
    <path fill="#dfd8bb" d="M504 483l32 37-68 2 49-84" />
    <path fill="#5a5a5a" d="M824 138l-20-4 4 10 3-2" />
    <path fill="#aab1b5" d="M815 589l-13 45 5 21 15-56" />
    <path fill="#5d5d5d" d="M779 96l2 15 9-30-5 4" />
    <path fill="#c4b88a" d="M800 472l25 18-9-36-13 27" />
    <path fill="#383939" d="M155 582l23 66h38l-82-128" />
    <path fill="#c3c3c4" d="M894 634v35l119 43-101-108" />
    <path fill="#894f89" d="M447 182l-53 25 28-15 24 41" />
    <path fill="#767676" d="M862 63l-45-25h19l11 35" />
    <path fill="#00075b" d="M869 456l8 22 35-8-10-33" />
    <path fill="#b3955e" d="M637 136l-24 40 2-21 24 1" />
    <path fill="#515151" d="M720 105l2-5 18-6-21 25" />
    <path fill="#00003b" d="M880 659l14 54-49-55 62-103" />
    <path fill="#fae4ac" d="M599 326l12 7h12l4-1" />
    <path fill="#9e9e9e" d="M990 653l11-55-27 115 81-87" />
    <path fill="#313131" d="M719 4l59-27-7 27-62-23" />
    <path fill="#81a89d" d="M727 238h-44l55 28" />
    <path fill="#5eab98" d="M715 344l10 46-7 83 20-131" />
    <path fill="#bdbab4" d="M558 148l-10 1 6 30 18-33" />
    <path fill="#656565" d="M830 67l-2 16-3 2-11-16" />
    <path fill="#e09c43" d="M694 286l20 14 13 6-7-12" />
    <path fill="#cdccca" d="M904 362l-19-1v-32l19-27" />
    <path fill="#473b2b" d="M844 464l-25 45 26-16-23-27" />
    <path fill="#b56e44" d="M496 183l-21 37 35 1-29 18" />
    <path fill="#001977" d="M819 516l5 82 6-14-5-83" />
    <path fill="#d0bf66" d="M497 279l-14-38 6 5h15" />
    <path fill="#dcd7b8" d="M552 237l11 24-17-3 38-16" />
  </g>
</svg>