<svg width="1024" height="682" viewBox="0 0 1024 682" xmlns="http://www.w3.org/2000/svg">
  <path fill="#908c83" d="M0 0h1024v682H0z" />
  <g fill-opacity=".5">
    <g class="SVG--0">
      <path d="M-31 680.497l98.314-359.4 113.66 124.03L346.417 713" />
      <path fill="#fff" d="M768.42 713L510.433 281.267 203.5 441.067 333.033 713" />
      <path d="M-31-8.045v281.2L257.273 110.75 364.077-31" />
      <path fill="#00002d" d="M826.12 713l-21.357-207.753 126.74-180.29L897.4 678.305" />
      <path fill="#eaeef6" d="M1020.565 664.23l30.02-555.415-101.508-7.4L905.94 713" />
      <path d="M2.778-31L-31 259.304 332.925 42.762 287.363-31" />
      <path fill="#cdced1" d="M272.364-10.1L969.21 11.94l-30.345 195.745 26.106 88.29" />
      <path d="M225.684 537.128L87.107 348.738-31 667.764 63.866 713" />
      <path fill="#d8af2e" d="M714.983 153.126L539.86 508.72 433 554.67l37.227-382.816" />
      <path fill="#00d4b7" d="M730.53 657.19l2.887-297.42-104.7-2.135-3.195 241.438" />
      <path fill="#d75300" d="M797.744 669.152l54.938-394.502-108.328 138.698 6.64 182.01" />
      <path fill="#ff9818" d="M344.186 21.182l-44.42 332.98-55.96-17.082 23.966-207.277" />
      <path fill="#fffffe" d="M232.06 487.055l118.782 222.92L728.788 713 305.282 348.384" />
      <path fill="#00004d" d="M928.382 510.49L861.322 713l-54.32-171.373 100.318-162.44" />
      <path fill="#9d64fb" d="M439.337 209.01l18.945 192.974-136.41-31.117 12.147-229.77" />
      <path fill="#4c5524" d="M616.033 373.706l150.63-47.44 7.284-145.786-192.77 115.426" />
      <path fill="#c1c5cd" d="M130.122 159.632l96.818 24.922-47.787 109.11L-31 340.598" />
      <path fill="#000004" d="M299.61 609.14l11.033 73.65-71 4.453-104.225-157.708" />
      <path fill="#350082" d="M392.515 191.158L366.75 305.83 347.4 139.306l69.07-40.638" />
      <path fill="#bec0c3" d="M137.595 713l-11.04-117.463 14.557-3.434L210.878 713" />
      <path fill="#0012d9" d="M807.125 681.39l42.042 3.065L864.45 538.14l-33.223-31.932" />
      <path d="M196.96 510.193l-166.782 6.7L-31 465.534 15.898 713" />
      <path fill="#ffdf9b" d="M794.363 713l-41.8-256.145-32.128 51.83 29.27 198.85" />
      <path fill="#d7dfa1" d="M637.45 434.233l-70.182-165.205-135.486 312.02L706.37 433.89" />
      <path fill="#3f0b00" d="M633.833 213.86l37.43 23.798-18.12 56.303 51.22-144.6" />
      <path fill="#cdd1d8" d="M39.564 486.788L-31 362.138l39.852-83.952L54.18 405.542" />
      <path d="M-31 306.965L2.426-31l328.53 67.345L95.81 166.067" />
      <path fill="#a54400" d="M827.237 550.453l-68.004 80.082L844.69 348.2l-119.44 75.333" />
      <path fill="#c8e1d1" d="M700.373 162.104L665.46 272.84l54.676 25.647-5.932-122.087" />
      <path fill="#dfd9d6" d="M374.723 135.225L265.867 71.81l22.722 71.6 115.997-156.4" />
      <path fill="#dbc4d4" d="M274.54 297.69l82.386 213.614 76.198-164.71-127.178-98.23" />
      <path fill="#fff" d="M303.962 620.304L314.115 713l168.747-40.035-247.1-224.66" />
      <path fill="#6e727a" d="M208.18 459.56l-89.31-127.29 131.57-21.582 46.622 118.667" />
      <path fill="#e5dcc4" d="M758.337 249.816l40.673-82.4 36.25 132.823-14.462 28.838" />
      <path fill="#d6cd0d" d="M484.75 277.406l134.63-141.163-41.55 6.213L448.96 560.492" />
      <path fill="#ddd8d1" d="M491.59 51.808l5.045 228.033L574.375-31h-339.04" />
      <path fill="#d6d6d6" d="M891.777 713l80.06-33.367L1055 256.05 889.42 641.838" />
      <path fill="#5a524b" d="M655.362 148.194l-40.696 93.723 48.99-245.282 26.014-15.978" />
      <path fill="#8c4e0c" d="M510.595 178.268l84.008 40.164-13.198-86.233-41.103-7.157" />
      <path fill="#000002" d="M45.684 344.44l4.63-50.007 95.54 197.985L108.805 713" />
      <path fill="#000027" d="M840.5 465.71l83.23-32.364-10.533 132.75-34.508 116.78" />
      <path fill="#5c0977" d="M409.006 194.167l66.845-93.587 12.574 55.638 24.486 20.377" />
      <path fill="#06866a" d="M789.52 301.025l-35.88-42.104-90.28 170.204 35.6 25.755" />
      <path fill="#dbccac" d="M826.865 427.184l32.605 40.774 15.182-333.166-36.59 247.548" />
      <path fill="#6d3c01" d="M711.518 210.04l13.378-39.79 65.5 15.252-47.35 67.408" />
      <path fill="#ba1028" d="M490.572 216.56l-37.857 15.393 15.787 116.494 22.335-84.082" />
      <path fill="#e2e2fa" d="M588.03 175.618l14.258-14.954 47.198 47.01-53.495 6.73" />
      <path d="M216.92 121.125l58.198 9.43L244.45-30.28-31 175.23" />
      <path fill="#cbc8c2" d="M905.063 382.968l33.993-273.546-101.48 22.88 36.814 200.894" />
      <path fill="#5b2f00" d="M800.357 246.255l61.545 25.024-7.12-29.302-23.247-13.23" />
      <path fill="#0ba" d="M739.77 615.726l-20.678-71.256-43.39-190.256 26.362 277.64" />
      <path fill="#632900" d="M940.082 293.04l-137.406 32.977 19.963 31.987 60.14-72.505" />
      <path fill="#b5ceba" d="M491.25 580.775l162.98-77.224 6.818 100.43 154.8 78.88" />
      <path fill="#833000" d="M690.85 361.948l49.784-44.554-49.89-33.085-48.948 16.14" />
      <path fill="#d3bf81" d="M816.077 342.473l-79.567-4.616-11.13 49.636-7.776 55.58" />
      <path fill="#ff820c" d="M280.47 171.882l35.132-47.616 9.094 102.656-75.328 118.125" />
      <path fill="#f67492" d="M434.944 469.114l14.574 20.61 25.59-133.895-18.275-162.707" />
      <path fill="#ff9730" d="M334.742 327.123L262.18 296.05l-4.62 49.67 66.82 10.833" />
      <path fill="#000041" d="M842.547 398.563l85.756 80.043L835.02 713l75.21-345.01" />
      <path fill="#e8e02c" d="M521.035 556.76l34.707-60.048 4.913-46.23-19.634-91.338" />
      <path fill="#dedea7" d="M509.76 232.094l180.714 52.442-37.226 6.394-18.622-52.662" />
      <path fill="#311506" d="M626.626 328.7l-2.495-73.362-38.307 45.206L600.1 323.61" />
      <path fill="#e1dacf" d="M635 91.542L474.745 77.14l-55.34-19.963 28.198 46.305" />
      <path fill="#522e04" d="M921.715 279.532l18.324 25.98-11.866 33.432-26.578 90.66" />
      <path fill="#664525" d="M426.68 56.558l28.683-9.18-52.77-18.664-1.365 43.13" />
      <path fill="#693000" d="M575.014 157.4l39.3-13.82 42.386 6.888-11.895 19.563" />
      <path fill="#e38505" d="M819.74 584.337l-57.756-146.424.677 171.662 21.305 18.436" />
      <path fill="#353942" d="M1042.405 52.96l-63.018-26.8L960.627-31l79.77 10.734" />
      <path fill="#706e6c" d="M722.63 51.48l96.037-26.643L711.932 5.833l-43.857 217.45" />
      <path fill="#613200" d="M848.428 502.577l-36.57-48.53-92.143-41.174 99.85-9.37" />
      <path d="M140.622 713l-45.33-152.955L-31 521.272l10.313 165.785" />
      <path fill="#cfcebf" d="M539.74 434.326l142.31-68.916-9.71 46.093-88.49-43.225" />
      <path fill="#ebdab2" d="M533.087 245.414l-3.748-64.826-85.933 48.442 15.23-54.685" />
      <path fill="#3cbbae" d="M630.723 532.158l65.713-122.533-111.07 168.703 31.295 21.75" />
      <path fill="#646568" d="M-31 508.817l80.485 25.07 9.92-178.845-18.856 77.212" />
      <path fill="#6b6b6d" d="M145.885 185.23L-31 294.915l166.83-152.548 153.472-19.904" />
      <path fill="#cbc0a6" d="M726.75 240.342l4.937-96.16L465.26 104.36l284.45 68.29" />
      <path fill="#08ae95" d="M686.986 362.443l29.807 84.89 44.485 1.783-92.89 120.012" />
      <path fill="#d7ddf4" d="M743.94 482.876l-13.842-3.45-12.555 49.157 26.095 84.102" />
      <path fill="#ffd5bd" d="M410.297 133.54l-5.706 30.472 34.64.997 10.264-24.943" />
      <path fill="#e0e456" d="M426.437 535.15l85.126-215.713-7.726 115.672-62.945 128.33" />
      <path fill="#d3d2ce" d="M675.243-31L626.94 136.99l-79.535 15.516 4.592 30.897" />
      <path fill="#c0a784" d="M934.674 474.916l-20.423-69.04 34.705-202.058-22.38 237.29" />
      <path fill="#328175" d="M692.007 250.7l41.442-20.973 39.68 36.744-116.066 12.004" />
      <path fill="#90925a" d="M538.438 249.358l8.446 128.362 200.544-27.667L579.69 320.89" />
      <path fill="#a6a8ab" d="M1055 227.724L643.94 48.744l325.123-25.837 60.39 76.193" />
      <path fill="#ddc69e" d="M263.456 84.308l18.577 48.974 58.08-15.442-51.53-56.602" />
      <path fill="#1aaca2" d="M650.916 338.26l-.828-53.305-26.374 92.39 43.224-12.964" />
      <path fill="#797b7e" d="M282.056 613.457l1.872 27.252-74.19-125.933 86.038 70.57" />
      <path fill="#9a6f30" d="M256.708 121.2l82.653 27.423-47.6 28.138-45.777 128.068" />
      <path fill="#d9ca88" d="M788.185 472.458l88.3-33.227-44.384-44.505-14.016 89.674" />
      <path fill="#003727" d="M775.79 297.37l-62.95 10.963-1.512 20.264 66.717-1.177" />
      <path fill="#50aed7" d="M353.49 291.08l-26.9 6.558 12.34-153.565 9.21 10.923" />
      <path fill="#c0c1c3" d="M39.248 273.01l63.745 78.113 21.28-34.258 41.07-129.885" />
      <path fill="#6e6f72" d="M801.606 35.562L736.25 75.77l-37 117.797L725.346 64.49" />
      <path fill="#d2d1b7" d="M594.206 246.113l23.33 9.033-57.62 73.746-1.83-36.19" />
      <path fill="#9a5b13" d="M797.26 302.576l4.483-52.762-18.84 33.922 39.705 95.448" />
      <path fill="#681e00" d="M477.23 232.87l-24.28-4.087-.56 13.178 39.81 41.488" />
      <path fill="#cfcecb" d="M709.765 216.087l34.903-135.09-66.37 156.993 58.337 21.744" />
      <path fill="#7c4d02" d="M628.184 216.843l-33.27 17.167 84.55 5.975L696.1 149.83" />
      <path fill="#d8d7d5" d="M601.34 713l134.165-88.192 12.617 47.405L459.718 522.14" />
      <path fill="#dad8bc" d="M631.752 490.345l-9.803-107.712-64.322 28.597 4.924 212.673" />
      <path fill="#cdb08c" d="M748.854 713l67.674-135.41 6.402 20.316-8.89 51.506" />
      <path fill="#fafbfd" d="M276.154 455.9L207.2 473.91 414.373 713l-71.116-197.415" />
      <path fill="#010202" d="M298.838 713l-21.18-104.416 22.442 4.863 7.52 39.492" />
      <path fill="#9c4200" d="M795.986 403.256l-38.52-16.667 38.87 185.212 23.467 5.653" />
      <path fill="#f4efc6" d="M774.385 364.54l-27.25 52.655 1.498-44.96-15.037-21.67" />
      <path fill="#9f631a" d="M878.31 280.014l-2.373 4.654-18.73 38.175 16.95 51.128" />
      <path fill="#b4ac90" d="M597.625 275.483l47.27-55.65 1.875 117.72 32.836-97.123" />
      <path fill="#3c0b2f" d="M444.008 178.56l-74.21-23.97 26.99-23.136 20.796 58.657" />
      <path fill="#b4a4dc" d="M428.2 245.416l-189.884 224.88 214.59-168.082-3.91 22.284" />
      <path fill="#cea855" d="M777.678 463.51l-31.584-35.727 1.06 43.252-1.71 240.824" />
      <path fill="#25bfb1" d="M743.47 595.81L652.4 455.863l19.645 173.127 22.078 23.9" />
      <path fill="#e0dea2" d="M418.824 462.484l69.16 20.59 35.295-186.69 27.47 294.698" />
      <path fill="#4b300d" d="M852.42 265.312l-52.427-21.388 46.824-4.935-29.463 197.096" />
      <path fill="#0017a6" d="M876.61 562.865l-60.605 95.815 8.217-159.534 26.816-.38" />
      <path fill="#e0dfd3" d="M653.24 170.958l21.346 3.694 28.57-149.513-2.21-48.154" />
      <path fill="#e7ca8f" d="M684.34 297.633l24.836 27.8-12.432-55.16 41.73 22.467" />
      <path fill="#000043" d="M891.95 681.89L882.32 713l25.546-328.38-76.757 315.647" />
      <path fill="#b4a500" d="M552.814 294.19l-4.225-61.485-30.71 20.51-36.19 47.996" />
      <path fill="#010203" d="M246.127-16.94l6.675 117.176 45.72-61.214 30.845-32.974" />
      <path fill="#947749" d="M498.827 119.905l11.17-59.143-35.056 3.16 52.773 43.926" />
      <path fill="#4a4d52" d="M744-31l-96.574 66.2 38.733 13.197-50.52-74.034" />
      <path fill="#ffba6d" d="M673.612 351.153l20.14 1.7-53.094-37.225 20.135 30.494" />
      <path fill="#e3dcc8" d="M765.147 271.554l1.138-51.495 71.848 17.527 14.505-61.182" />
      <path fill="#585a5d" d="M589.816 40.063l-21.16-27.687 42.18 2.167-45.6 42.197" />
      <path fill="#764d14" d="M544.258 134.685l28.845-32.998-25.78 4.09 52.75 61.183" />
      <path fill="#674c3d" d="M341.877 61.057l-68.224 8.966 32.44-21.384 11.32-58.394" />
      <path fill="#6e5013" d="M745.504 368.618l-8.664 51.263-10.494-16.516 11.297-31.852" />
      <path fill="#c9d4d5" d="M836.772 253.213l1.35 60.136-26.415 7.277-14.852-40.683" />
      <path fill="#66625c" d="M722.09 212.426l25.452-110.578-33.013 2.888 48.992-28.038" />
      <path fill="#8346d7" d="M353.523 246.585l95.996 40.15 3.818-21.516-100.48 49.31" />
      <path fill="#a5b9dc" d="M327.34 229.666l-41.726 77.992 55.7-1.656 11.596-59.02" />
      <path fill="#090000" d="M686.2 201.985l-9.16 17.64-13.4 11.718 19.487-63.098" />
      <path fill="#dadfdb" d="M273.247 422.736l138.802 117.97 34.273-117.92-69.272-61.176" />
      <path fill="#814cab" d="M474.81 106.013l-13.283 75.868-64.383-124.573-18.09 68.304" />
      <path fill="#cacac9" d="M912.577 278.625l15.8-24.263L961.9 53.53 860.822 289.134" />
      <path fill="#e3de91" d="M508.77 251.783l-35.51-2.085 81.567-65.35-1.93 14.197" />
      <path fill="#f1e8c6" d="M755.437 187.353l-24.52-26.608 73.397 3.282-7.7-29.49" />
      <path fill="#222324" d="M123.138 372.487L292.36 661.834l-171.763-69.758 3.98-127.01" />
      <path fill="#d4c1a5" d="M778.21 308.166l10.364 35.996 11.992-6.573-41.14-126.6" />
      <path fill="#d2d3d6" d="M670.062 56.106L584.692-31l92.978 53.185L551.732 33.53" />
      <path fill="#9e9d97" d="M924.936 591.373l7.266-183.195-19.59 143.553-20.377 79.792" />
      <path fill="#001" d="M838.888 463.694l-3.402 29.43 76.554 70.24 2.483-85.168" />
      <path fill="#ffffd2" d="M561.547 257.542l4.75 6.315-14.736 13.088-4.587-21.63" />
      <path fill="#bd66c3" d="M412.224 372.017l25.343 51.07L466.63 242.75l-44.842 99.873" />
      <path fill="#96520a" d="M584.584 131.052l-16.994 36.34-8.432 60.542 35.587-48.456" />
      <path fill="#c9c3b2" d="M835.902 421.807l31.152-233.957-12.4 224.29 10.372 44.222" />
      <path fill="#d1d2d2" d="M722.198 28.744l-25.807 131.05 40.507-142.81-6.185-26.898" />
      <path fill="#d1d3d5" d="M686.808 98.32l-71.664-25.473-159.825-20.29 178.634 8.6" />
      <path fill="#57585a" d="M740.585 25.928l-30.293 124.487L763.732-31H728.45" />
      <path fill="#9f9fa1" d="M1055 670.647l-97.478 25.893 40.704-82.892L1055 495.89" />
      <path fill="#d0d1d4" d="M860.933-31l-142.02 73.492-5.635-6.405L757.905 10.6" />
      <path fill="#757677" d="M764.42 172.203l19.724-118.967-27.583 7.004 46.978-11.1" />
      <path fill="#485043" d="M379.827 177.79l-13.37 62.066-.716 11.21 17.057 7.885" />
      <path fill="#e6db00" d="M535.123 433.52l16.962 59.254 8.962-25.798-1.22-30.998" />
      <path fill="#4f3010" d="M603.387 273.46l23.47 63.26 25.032-53.425-61.284 9.848" />
      <path fill="#ddd4c6" d="M878.264 353.508l6.75-54.996 29.896 18.084-27.168 53.93" />
      <path fill="#b7c6c1" d="M651.94 475.12l-12.043-57.837 26.047 1.343 6.55 37.626" />
      <path fill="#8d8f92" d="M303.785 389.798l-106.62-137.133-36.156 26.143L257.445 448.5" />
      <path fill="#d458c8" d="M351.82 370.49l-40.03-5.97 19.394-43.798 27.752 19.216" />
      <path d="M117.668 130.9L12.523 236.972-31 192.606 5.743-31" />
      <path fill="#663600" d="M534.636 188.238l19.008-13.054 6.887 18.534-33.344-64.552" />
      <path fill="#3a2910" d="M750.713 237.357l3.39 22.814-30.188-29.422 47.56-53.733" />
      <path fill="#858588" d="M27.172 271.528l47.787-57.32-23.21 113.494.21 137.076" />
      <path fill="#cdcecf" d="M796.6 96.703l-79.903 10.233 83.02 14.89L829.052 4.975" />
      <path fill="#6d7177" d="M581.198 113.242l-44.96 1.77 65.2-44.002-50.772-4.184" />
      <path fill="#5f6164" d="M866.153 20.07l-37.36-2.872L832.014-31l26.316 75.767" />
      <path fill="#0f705d" d="M763.508 365.4l19.514-62.015-40.514-7.63 21.782 76.787" />
      <path fill="#dadae0" d="M618.678 220.01l-27.525-15.334 2.416-34.228 34.51 2.608" />
      <path fill="#c9c9c6" d="M631.326 90.18l34.646 34.108-9.37-8.124-147.78 13.407" />
      <path fill="#967537" d="M608.934 296.13l58.11-80.877 18.214 12.11-14.713 34.633" />
      <path fill="#d86e10" d="M834.973 396.128l7.333-7.627 1.906-42.48-78.457 49.17" />
      <path fill="#d2d3d6" d="M780.416 130.658l87.86-28.692-83.062 45.285-85.9-3.405" />
      <path d="M128.414 707.127L-31 713 76.25 446.966l36.833 45.102" />
      <path fill="#c3c4c6" d="M864.91 15.3L794.274-31l99.56 29.954-54.897 243.303" />
      <path fill="#73757b" d="M722.203 154.52l60.25-10.61 10.228 44.415 14.894-22.533" />
      <path fill="#c5c2bd" d="M403.027 61.447L374.475-.398 318.952-20.64l40.583 93.95" />
      <path fill="#767677" d="M273.502 427.26L171.486 315.232l-52.723 11.094 93.445 130.14" />
      <path fill="#682f90" d="M471.746 72.934l-28.406 145.81-20.69-26.288 54.59-17.38" />
      <path fill="#53371d" d="M934.376 257.883l-24.21 108.863-33.97 7.11 38.236 25.437" />
      <path fill="#5f5f5f" d="M749.306 99.59l-8.107 30.205-18.25-7.293-44.544 70.187" />
      <path fill="#130000" d="M719.606 307.754l-21-14.317 14.705 35.362 10.253 10.536" />
      <path fill="#cecfd1" d="M786.745 6.837l1.788 43.24-52.255-1.73 101.27-47.166" />
      <path fill="#b69507" d="M605.182 218.442l-47.093 73.87 4.113-37.835 68.656-24.48" />
      <path fill="#fbfbfc" d="M478.057 713L298.82 542.624l8.493 117.74 8.882 48.197" />
      <path fill="#dddcdd" d="M500.814 166.552l67.67-90.56-74.82 63.22 8.756 25.905" />
      <path fill="#009a81" d="M717.59 420.566l1.56-67.678-35.1 8.5-10.266 92.708" />
      <path fill="#2f3132" d="M731.106 52.395l-2.24-15.712L786.37 23.37l-24.797-.765" />
      <path fill="#d1d1d1" d="M737.263 83.163l89.105-2.147-110.42-22.378 35.648-7.37" />
      <path fill="#bebec0" d="M7.952 461.998l32.4-97.68-19.476-100.924L-31 379.267" />
      <path fill="#838383" d="M795.875 99.188l73.237-40.302-51.69-16.69 53.322-25.917" />
      <path fill="#0bb4a8" d="M646.24 466.742l-19.832-48.394 7.938 77.586 78.592 4.85" />
      <path fill="#e56400" d="M810.113 566.104l-25.36-39.708-18.31 35.258 27.854 82.675" />
      <path fill="#724c11" d="M719.884 205.023l20.542-28.93 25.772 2.185-48.878-5.75" />
    </g>
    <g class="SVG--1">
      <path fill="#3e2611" d="M850.762 246.318l-20.292 80.415-20.402-1.53 27.774 24.712" />
      <path fill="#6c5d38" d="M194.508 133.57l53.61-2.435 2.968 33.133 31.92-68.435" />
      <path fill="#c3c3ba" d="M351.296 381.39l-85.987 85.226 22.166-125.205 43.326 26.025" />
      <path fill="#797a7d" d="M556.934 38.43l28.644 22.146 57.33-11.194-36.842-7.145" />
      <path fill="#7d6ed7" d="M376.866 182.062l21.877-8.99 18.848 66.41L393.5 355" />
      <path fill="#390500" d="M689.995 291.237l-33.073 26.404 1.055-15.313 20.713-19.238" />
      <path fill="#461b72" d="M341.362 129.218l38.645 59.15 25.353-33.457-14.28-27.26" />
      <path fill="#3d3e40" d="M43.93 242.868L-31 274.433l10.478-6.607 159.41-133.116" />
      <path fill="#c6b288" d="M681.842 274.413l-69.55 41.823.512-7.26 109.214-38.117" />
      <path fill="#e3d9a1" d="M585.14 204.94l-23.698 54.765-7.96-21.968 43.092.063" />
      <path fill="#b2b3b7" d="M290.657 585.49L261.437 576l-10.403-27.456-86.777-160.233" />
      <path fill="#575c62" d="M625.95 130.522l40.33-27.17-31.496-15.77 30.14 49.066" />
      <path fill="#ffb668" d="M275.45 311.188l-8.873-40.647 60.483-24.284-2.052-34.223" />
      <path fill="#eee7e2" d="M351.49 117.748l13.413 13.44 20.635-29.572-28.266-2.668" />
      <path fill="#a3c7b9" d="M605.75 609.533l38.683-117.067 34.776 20.38-28.312 58.91" />
      <path fill="#673706" d="M815.813 543.32l-14.366-44.055 61.45-38.68-33.81-11.09" />
      <path fill="#535455" d="M676.014 27.203l-26.66 8.655 72.845 14.912-14.048 16.42" />
      <path fill="#e3b9ab" d="M451.034 222.922l-1.383-31.57 44.67-20.303-15.883 44.506" />
      <path fill="#b5866a" d="M422.99 135.564l-18.257-19.37L430.32 55.08l24.02-16.744" />
      <path fill="#e15d0f" d="M282.817 185.743l27.66-66.5 8.953 23.262-1.606 74.235" />
      <path fill="#af978b" d="M321.02 161.43l19.264-38.51L359.6 96.78 344-31" />
      <path fill="#5f6060" d="M790.38 87.335l-19.46 46.03 18.688-9.353L771.32 84.02" />
      <path fill="#697ead" d="M400.746 60.516l-62.168 35.172 14.81-13.13 71.316 15.663" />
      <path fill="#5f5f5e" d="M732.422 51.735l27.357 17.548L774.57 36.72 743.08 58.57" />
      <path fill="#cfd1d5" d="M713.247-13.185l4.992 35.125-74-52.94-124.108 51.31" />
      <path fill="#00b7a6" d="M685.053 487.63l18.884 120.346 31.422 11.66-21.486-122.742" />
      <path fill="#dcdcdd" d="M698.615 713l-367.25-187.433 305.04 81.51 32.322 9.038" />
      <path fill="#e1a96f" d="M751.213 592.603l-17.3 70.124 65.13 11.41-21.36-64.937" />
      <path fill="#8d9196" d="M253.04 151.352l-111.57 9.5 25.255 23.502 93.277 49.586" />
      <path fill="#ebc156" d="M581.288 142.943l42.1-.59 27.7 16.33-92.743-37.84" />
      <path fill="#ddd9c7" d="M641.117 217.58l2.003 27.26-33.525 21.184 12.637.753" />
      <path d="M596.945 313.165l8.95-32.746 31.47-12.566-42.73 29.94" />
      <path fill="#48537b" d="M847.135 419.1l15.277 2.895 38.052-15.758-20.418-40.04" />
      <path fill="#7d5c2e" d="M636.495 125.39l-.47 66.108-14.828 24.876 1.04 3.3" />
      <path fill="#727272" d="M853.257 105.46l-42.027-1.452 5.268 19.668 25.74-41.357" />
      <path fill="#969697" d="M157.975 594.724l-24.81 18.76 16.35 92.563 9.693 5.594" />
      <path fill="#e2dec7" d="M600.283 539.183l-124.728-27.816 23.08-49.98 71.18 120.508" />
      <path fill="#c5c5c8" d="M776.327 170.347l9.898 12.178L824.28 58.313l-7.836-71.183" />
      <path fill="#5d67a8" d="M356.136 141.782l-29.384-10.178-4.765 15.48 32.972 83.452" />
      <path fill="#c3c3c3" d="M662.292 152.854l91.173-43.473 14.548-14.173 44.542-36.898" />
      <path fill="#297661" d="M671.78 269.416l42.025-31.36-6.552 33.185-20.97 2.107" />
      <path fill="#5c1f00" d="M706.834 317.13l-18.35 32.874-56.48-53.335 44.7 36.78" />
      <path fill="#191a1b" d="M21.448 45.66l155.97-54.077 96.72 41.18L39.605 82.93" />
      <path fill="#696864" d="M680.98 110.163l29.033 1.908-38.947 36.663 29.302-2.466" />
      <path fill="#313234" d="M622.01 30.973l-.072-11.213 16.412-.25-10.203 7.155" />
      <path fill="#d1d1cc" d="M511.69 68.656l-32.546 46.293 50.663-24.596 150.548 24.7" />
      <path fill="#c2c2c2" d="M895.264 642.993L896.33 713l44.238-15.8 49.18-359.065" />
      <path fill="#049b8b" d="M636.327 337.085l-9.83 84.898 25.53-77.3-7.392-13.352" />
      <path fill="#fba516" d="M247.786 299.32l12.155-46.753 34.45 91.35-23.092.96" />
      <path fill="#3a3c3f" d="M688.86 80.838l20.593-1.563.218 2.98-8.276 13.68" />
      <path fill="#6ab8b4" d="M750.63 333.527l17.598 18.082-38.428 26.11-22.93-26.49" />
      <path fill="#543f2c" d="M692 174.917l-10.75-9.962 23.168-10.733 10.057 4.473" />
      <path fill="#cbbe37" d="M544.413 201.325l-62.51 79.525 80.122-49.026-.69-66.44" />
      <path fill="#d5bf91" d="M613.204 329.843l-7.328 6.336-31.46-67.014-4.182 26.778" />
      <path fill="#454748" d="M711.58 41.97l-1.23-20.35 38.663-14.74-10.715-2.594" />
      <path fill="#a4a4a5" d="M935.98 291.823l35.003-143.125 84.017-11.51-99.594-90.7" />
      <path fill="#ff9168" d="M322.348 346.346l8.828-34.51-45.976 5.376 36.818 56.073" />
      <path fill="#a45541" d="M507.73 167.14l-36.845 85.317 17.268-82.762 49.927 9.836" />
      <path fill="#787a7c" d="M802.108 131.167l1.494 5.83 50.73-17.652-50.185 36.965" />
      <path fill="#87888a" d="M616.168 119.908l5.653-57.59L640.378-31l-37.203 152.928" />
      <path fill="#bebf82" d="M799.823 477.803l11.883-29.7 14.9 46.393-24.745-13.727" />
      <path fill="#e2d2c9" d="M696.992 170.884l15.694-6.708-.455 71.608-30.492-14.16" />
      <path fill="#99803e" d="M561.64 333.744l73.294 51.912-25.24-57.752-43.272 56.358" />
      <path fill="#1b0200" d="M607.5 159.61l17.154-16.42-19.158 4.73-6.893 8.87" />
      <path fill="#c9cdd0" d="M562.956 171.817l5.528-9.877-6.084-16.438-21.393 23.76" />
      <path fill="#a23102" d="M815.086 317.03l20.106 28.268-1.02 32.068-38.447-40.496" />
      <path fill="#bc7e20" d="M755.423 185.12L734.4 166.04l33.38 57.933-15.03 35.376" />
      <path fill="#c9c9c9" d="M935.305 53.636l-65.984-5.252 51.91 50.084-83.033 7.99" />
      <path fill="#daa15a" d="M808.33 367.9l-33.856 18.413 2.064-55.408 25.383-2.708" />
      <path fill="#cdc7bf" d="M450.08 118.64L493.21-9.185 436.626 73.72l-14.74-3.372" />
      <path fill="#4f3111" d="M931.117 296.873l-55.842-.78 16.113-10.72 34.92 31.328" />
      <path fill="#d4d5d6" d="M711.55 92.178l-30.7.34 48.95 5.316-19.123-37.925" />
      <path fill="#919191" d="M872.012 31.964l87.604-2.182-85.793 42.32 52.255 17.352" />
      <path fill="#c7c8ca" d="M760.948 252.282l133.988-71.274-79.46 24.338 15.247-82.246" />
      <path fill="#95350e" d="M479.506 330.958l2.892-104.726-43.492-2.84 35.714 33.833" />
      <path fill="#161616" d="M35.9 310.726L309.963 713h-80.22l-10.84-63.41" />
      <path fill="#845521" d="M516.977 101.09l8.187 13.527-5.116 5.38-20.78-12.462" />
      <path fill="#d6daa0" d="M541.944 329.26l-31.137 84.177 2.014-94.252 20.99-20.938" />
      <path fill="#5e3706" d="M553.064 125.95l20.274 15.494-44.24 7.992 5.863 50.132" />
      <path fill="#535557" d="M783.645 15.54L797.74 39.56l15.42-22.333-66.103 11.113" />
      <path fill="#c4c4c2" d="M967.245 540.35L918.62 402.516l45.97-160.267 26.892 21.062" />
      <path fill="#989a9e" d="M846.87 141.71l70.328 49.927-67.32-4.933 36.983-52.053" />
      <path fill="#ca7024" d="M654.68 334.58l34.514-18.995-8.674 23.962-32.903-25.49" />
      <path fill="#6f7177" d="M106.73 367.41L20.733 283.92l114.57 88.293 60.21 95.287" />
      <path fill="#e8deb5" d="M908.755 278.923l5.64 19.556-55.407-33.06 31.312-4.74" />
      <path fill="#4b4c4d" d="M178.21 581.08l-1.263 90.42-21.777-54.292-32.588-27.066" />
      <path fill="#3c3d3f" d="M275.658 597.67l-94.748-93.54 106.97 158.928-86.316-192.78" />
      <path fill="#bdc1c3" d="M838.38 413.593l21.782-22.252 17.17-12.99-27.416-37.24" />
      <path fill="#d3d3d4" d="M618.766 5.47l7.34-4.153-37.265 141.4L598.4 60.1" />
      <path fill="#0e0a05" d="M618.96 303.6l-12.774-2.45 19.632-13.81 13.9 3.587" />
      <path fill="#c9cb9e" d="M573.82 544.806l43.282-88.688 15.294 41.58-35.966 58.945" />
      <path fill="#3f3915" d="M771.834 404.21l-2.628-11.31-41.31 63.125 12.454-36.164" />
      <path fill="#987812" d="M542.924 253.556l-8.583 4.45 12.256 81.893 9.008-57.764" />
      <path fill="#535659" d="M684.256 39.21l-42.043 26.152 38.53 7.957-24.05-32.17" />
      <path fill="#2d2e2e" d="M35.43 524.496L66.945 392.72 50.99 557.02-31 522.59" />
      <path fill="#e6ba4c" d="M663.63 195.26l-17.492-37.295 28.456 8.124 16.664-14.54" />
      <path fill="#787a80" d="M959.2 59.4l95.8 18.37-51.17-59.465-8.82 8.51" />
      <path fill="#ceced0" d="M753.47 655.375l-71.483-10.647-84.612 54.362 171.092-17.577" />
      <path fill="#60340c" d="M775.656 207.192l.4-30.122-33.413 15.42-5.624 23.983" />
      <path fill="#dddbd5" d="M734.168 228.057l-6.342-19.22 6.103-30.864.504 38.566" />
      <path fill="#9b7838" d="M792.422 301.9l21.106-63.755-12.135 4.784-15.782 29.74" />
      <path fill="#ddd83c" d="M513.185 439.798l-37.798 16.997-5.67-89.153 3.148-22.22" />
      <path fill="#615e57" d="M928.194 466.5l-4.176 39.746-8.166 13.162 7.89-105.673" />
      <path fill="#d2d3d4" d="M761.576 117.674l3.962-2.854-39.17 27.75 48.863 6.69" />
      <path fill="#eae1bd" d="M763.707 138.703l-21.092 23.808-31.074-4.478 45.37 24.485" />
      <path fill="#cfc0a9" d="M642.505 154.983L608.74 83.77l43.09 103.557-15.638 18.2" />
      <path fill="#723f0a" d="M637.885 344.378l-37.967-15.39-14.978-25.387 14.36 33.192" />
      <path fill="#cac9a9" d="M660.642 292.892l-6.46-25.26-77.554-6.636 45.367-26.044" />
      <path fill="#d3c8b4" d="M262.736 132.14l83.153-35.195-16.567 39.465-29.018-37.484" />
      <path fill="#eba468" d="M399.127 184.678l37.424-20.787-8.66-15.132-18.665 10.045" />
      <path fill="#13b09a" d="M753.294 441.75L651.86 576.767l39.61 22.226-18.45-24.578" />
      <path fill="#cacccf" d="M699.135 45.446l11.46 5.582L699.482-31 659.93 164.23" />
      <path fill="#ea7888" d="M451.946 306.715l4.483-54.76 14.107 13.106-5.84 186.226" />
      <path fill="#5dbba9" d="M644.234 491.798l46.258 18.882 12.884 153.41-23.393-123.692" />
      <path fill="#000585" d="M829.34 661.324l12.784 23.527 37.803-131.805-21.475-19.43" />
      <path fill="#cacccf" d="M927.234 167.646l-75.386-19.387-11.452 44.32-56.262-13.877" />
      <path fill="#00023c" d="M912.202 458.396l-25.7 74.647-39.704 12.47 64.4-177.632" />
      <path fill="#623903" d="M829.007 420.148L839.3 406.75l-49.35 72.976 4.684-57.592" />
      <path fill="#8cb8a4" d="M630.003 383.9l27.324 23.11 27.213-22.07-22.04-31.582" />
      <path fill="#c69dcd" d="M419.048 248.81l-16.956 136.364 16.553 21.058 22.44-171.674" />
      <path fill="#935e07" d="M566.204 197.65l63.986 36.99-33.674-4.278-22.782-97.038" />
      <path fill="#bebebe" d="M153.427 270.68l-104.59 39.48 1.392-35.063 125.218-78.018" />
      <path fill="#be924e" d="M698.923 285.397l36.57 36.037-1.285-24.76L657.1 278.92" />
      <path fill="#7d520f" d="M644.18 232.893l3.544-53.94 10.56 10.132 3.336 72.598" />
      <path fill="#421661" d="M414.845 176.185l67.907-19.645 11.276 3.174-31.42 18.542" />
      <path fill="#96979c" d="M227.636 276.652L93.67 344.392l75.577-74.228 66.593-113.346" />
      <path fill="#b9bca5" d="M634.96 331.806l107.374-205.032L632.69 327.428l-73.055 7.295" />
      <path fill="#cc7c4b" d="M349.827 95.523L319.93 53.008 291.46 71.29l25.452 24.955" />
      <path fill="#e3ddc4" d="M512.9 241.81l9.452-29.762-40.433 30.354-6.54-1.15" />
      <path fill="#bbbc8e" d="M507.85 190.58l-27.738-23.064 61.4 66.94-12.587-66.845" />
      <path fill="#c99b44" d="M787.075 485.713l-16.165 62.975-24.646 20.77 5.05-127.258" />
      <path fill="#ede0a9" d="M547.332 254.41l37.21.18-28.02-25.867 8.514 55.63" />
      <path fill="#d4d9c3" d="M673.325 281.326l-52.417 2.22 91.645-11.116 3.596 15.112" />
      <path fill="#4f5052" d="M734.03 157.42l15.872-39.436-13.516-1.284 10.462 42.456" />
      <path fill="#f9d185" d="M829.03 435.83l13.94 22.69 19.64-18.607-11.743-15.337" />
      <path fill="#cccfcf" d="M665.848 107.593l3.815 43.405-47.82-12.977 72.316.413" />
      <path fill="#313233" d="M641.515-9.088L679.59 7.978l13.156-3.708-9.62 13.75" />
      <path d="M-31 2.577l77.75 224.857-21.536-187.45 117.53-49.1" />
      <path fill="#c98f44" d="M434.24 232.513l10.592-11.1 46.238-4.508 24.46 6.28" />
      <path fill="#c9caca" d="M764.933 49.336L705.128 2.733l90.73 54.023-6.742-31.185" />
      <path fill="#76c9bd" d="M674.568 632.454l77.562-19.928-47.077 41.773-40.806-83.613" />
      <path fill="#cdcecf" d="M639.08 6.22l-89.532-4.582 133.534 24.978-68.474-49.427" />
      <path fill="#8fb2e7" d="M368.547 334.825l27.938-44.164 4.15-1.037 3.775 66.717" />
      <path fill="#5c5f61" d="M639.8 90.23l16.68-6.12 19.207 17.346-32.367 5.737" />
      <path fill="#c1c1c1" d="M940 53.893l33.154 12.264-.48 22.87-126.872-50.072" />
      <path fill="#d4934f" d="M671.827 316.642l-12.714 24.29 38.487-34.55-9.948 24.63" />
      <path fill="#00a995" d="M742.614 465.79l-9.59-21.138-8.786 4.558-14.513 67.367" />
      <path fill="#5ab49e" d="M664.553 416.317l11.915 59.835 23.6-28.293 45.392 53.178" />
      <path fill="#a65ec3" d="M431.933 192.075l-27.636 62.83 53.03 2.89-21.932 130.262" />
      <path fill="#002bb4" d="M831.536 684.916l15.234-89.344-9.69-98.534-16.35 147.11" />
      <path fill="#ccc51e" d="M588.184 229.874l7.75-2.53 26.787 5.205-37.928 21.48" />
      <path fill="#5c5d5f" d="M773.2 77.08L747.02 98.59l2.867 7.362-8.053-22.04" />
      <path fill="#666159" d="M828.888 153.28l-92.233 72.002 70.802-61.056 35.045.168" />
      <path fill="#4e669f" d="M798.615 688.323l6.79-41.516 35.288 30.242-4.668 20.988" />
      <path fill="#ead4b3" d="M402.558 137.012l30.848 7.153-3.908 12.637-22.738 8.283" />
      <path fill="#88a4c3" d="M816.505 645.963l4.75-49.724-1.96-23.2-12.48 56.84" />
      <path fill="#5c5d5f" d="M707.313 148.317l49.375-41.963-9.743 18.675L706.95 131" />
      <path fill="#cdcfd0" d="M718.997 124.514l-28.89-6.7 12.97 14.924.173-59.458" />
      <path fill="#d8d7c2" d="M519.836 579.755l41.187-110.464 20.694-99.468 1.535 267.318" />
      <path fill="#ffedb4" d="M669.658 350.464l-7.865-10.648-.197-6.78 19.94 9.48" />
      <path fill="#d6ce67" d="M523.352 520.052l27.83-186.407-33.238-31.12 21.45-3.87" />
      <path fill="#e2d678" d="M427.457 552.345l43.916-153.086-3.23 150.868-57.49 1.694" />
      <path fill="#d4d5d9" d="M653.085 118.535l-26.66-35.338 5.607 12.742-72.956-7.904" />
      <path fill="#a97a41" d="M919.894 347.84l-7.956 69.323 11.416-25.865 13.267-77.107" />
      <path fill="#6d6d6d" d="M834.6 67.21l-1.615 6.394-9.415 20.098-8.244-23.533" />
      <path fill="#a7a6a5" d="M1051.262 399.518l-47.23-92.982L1055 91.566l-58.466 22.548" />
      <path fill="#4d3019" d="M616.85 277.588l9.446-14.367 12.58 14.56 14.647 5.713" />
      <path fill="#ad965c" d="M835.97 378.654l4.696-9.004 16.155-81.21 2.18-76.4" />
      <path fill="#c7c6c0" d="M778.987 144.676l7.532 152.488-26.276-40.096 48.216-158.89" />
      <path fill="#cdcdc5" d="M838.287 266.056l2.576 28.984-40.693 21.197 4.1-59.846" />
      <path fill="#f8f8f8" d="M287.028 585.515l-61.904-129.073 66.753 23.5L302.68 608.01" />
      <path fill="#a6a8ac" d="M202.65 473.553l85.562 135.873-98.484-186.663-20.796-.125" />
      <path fill="#4d4d4e" d="M767.348 39.01l-6.72 2.395-1.058-17.498 20.366-11.705" />
      <path fill="#cecfd1" d="M767.867 114.987l-4.394 13.778-30.15-48.67 2.592 33.9" />
      <path fill="#707171" d="M777.92 122.805l1.534 5.315-6.694 34.823-4.96-48.106" />
      <path fill="#939599" d="M852.656 215.877l58.303-5.198-20.197 20.51-85.986-48.51" />
      <path fill="#3a3b3d" d="M709.04 96.32l23.658 3.103-11.346 14.288-4.115-18.466" />
      <path fill="#a7651b" d="M698.656 339.363l-32.64 14.928 21.21 3.12 42.19-20.35" />
      <path fill="#000046" d="M849.032 677.646l.326 35.354h37.883l-7.783-204.92" />
      <path fill="#dbd7c5" d="M528.547 112.93l85.92 28.065-28.678 7.3 30.022-27.018" />
      <path fill="#79482f" d="M407.263 196.38l2.29-20.662 26.688-13.98-12.015 38.03" />
      <path fill="#7a5b3e" d="M439.87 45.324l-46.73-14.526 21.82 46.243 7.168-31.65" />
      <path fill="#929395" d="M823.833 213.206l-9.436-23.476 101.278-10.175-61.922-5.918" />
      <path fill="#beb08d" d="M589.704 369.32l-40.076-75.395 34.972 4.45 17.856 95.668" />
      <path fill="#e6b66c" d="M679.507 303.857l31.227 4.98-19.836-11.804-13.155 1.75" />
      <path fill="#f3dd9d" d="M738.423 389.05l31.246-27.288.513 11.352-15.063 35.996" />
      <path fill="#f6d36e" d="M844.204 234.743l-25.96.2-16.87 10.67 12.092-27.602" />
      <path fill="#5d5f62" d="M624.403 117.053l.143-2.284 27.28 25.774 15.155-12.6" />
    </g>
    <g class="SVG--2">
      <path fill="#cacdcc" d="M737.394 592.49l-21.466-71.52 10.732-26.352 23.948-39.472" />
      <path fill="#cfd1d5" d="M732.923 116.722l-15.143 62.39-7.122-39.63 33.68 7.466" />
      <path fill="#d7d7d7" d="M1055 522.044l-29.925-70.92-78.138 220.59 48.515-268.257" />
      <path fill="#feeea5" d="M658.776 153.28l-8.448 11.323 19.1 8.694 23.725-24.033" />
      <path fill="#99999a" d="M-31 462.348l68.093-40.843 11.395-16.887-7.6 57.152" />
      <path fill="#936c40" d="M251.022 163.264l123.256-31.708-98.326 5.79-.805-50.9" />
      <path d="M611.51 324.792l-.244-1.85-20.29-32.247L601.1 316.98" />
      <path fill="#b44c00" d="M762.726 450.076l81.7-64.74-10.462-14.182-89.102 79.976" />
      <path fill="#784b18" d="M870.046 359.362l1.65-28.15-10.58-9.94.335 24.053" />
      <path fill="#e0d8c1" d="M734.077 359.54l38.578 27.412 4.2-20.65-39.775-11.117" />
      <path fill="#767a7d" d="M234.252 209.783l-14.687 7.716 25.774 57.935 19.127-72.885" />
      <path fill="#853a00" d="M777.114 409.198l-22.507-25.024 62.603 34.045-23.7 72.844" />
      <path fill="#b87edf" d="M354.435 295.922l34.51.12-34.852 78.305-28.196-10.814" />
      <path fill="#94836e" d="M489.973 54.04l19.18 21.262-44.324-16.046-.875 33.914" />
      <path fill="#cdcdcd" d="M915.01 125.22l-11.587 16.895-74.49-29.563 2.787-5.384" />
      <path fill="#5b5b5c" d="M-31 504.835l77.545-48.767 20.34-46.517-27.802 94.75" />
      <path fill="#7d7d7e" d="M629.74 73.935L611.86 92.21l-9.125-23.837-65.208 6.41" />
      <path fill="#d1969e" d="M316.72 247.483l-30.248 34.52 42.32-26.95-1.24-92.615" />
      <path fill="#c4c4c4" d="M808.368 62.39l64.55 17.913-44.066 9.142 22.383-48.112" />
      <path fill="#c6c9cd" d="M448.218-31H342.51l126.46 85.167 128.95-18.69" />
      <path fill="#99999a" d="M272.752 600.2l-2.012-41.21-13.99-27.17 44.897 82.494" />
      <path fill="#777778" d="M603.047 33.297l.89-23.283-45.925 6.648-9.18-18.385" />
      <path fill="#69917b" d="M699.144 237.026l39.326 5.032-1.34 68.437-46.268-67.827" />
      <path fill="#4b1100" d="M477.32 255.642l-3.963-23.957-13.815 5.54-3.17 4.61" />
      <path fill="#919396" d="M893.878-18.176L1048.418-31 919.316 48.913 954.902-31" />
      <path fill="#66aba6" d="M635.39 326.64l57.715-79.127 26.05-6.98-39.62 5.737" />
      <path fill="#563f15" d="M855.654 269.942l-7.312 24.196-6.857-31.272.46-25.89" />
      <path fill="#563c18" d="M733.39 238.206l-17.727-53.268 18.925-14.873-17.5 60.788" />
      <path fill="#c9c9cb" d="M704.062 82.67l-30.77-20.974 26.66-53.51-7.332 13.906" />
      <path fill="#434241" d="M721.823 72.392l-4.97-2.57 28.07-4.76-17.405 13.052" />
      <path fill="#6b6c6d" d="M41.58 252.458l109.39-107.68-152.362 128.44L-31 237.193" />
      <path fill="#ab5300" d="M812.534 558.7l-36.24-18.352 11-66.183 23.597 12.26" />
      <path fill="#9d7f41" d="M656.183 328.054l-28.946-31.465-15.574 24.382-10.894-22.193" />
      <path fill="#2a3055" d="M845.33 388.392l60.375 22.774-41.42 54.382 4.955-62.914" />
      <path fill="#ab7e17" d="M569.66 224.26l-42.057-29.185 46.377 12.053-.79 14.928" />
      <path fill="#5f5f5e" d="M791.545 66.628L806.15 54.54l-67.225-.43 39.664-2.67" />
      <path fill="#faa131" d="M251.232 313.57l32.632-83.468 36.055-36.178-1.435 48.36" />
      <path fill="#e4e5e7" d="M355.514 596.25l-79.83-173.356L471.147 713l26.085-176.63" />
      <path fill="#6a38c1" d="M401.953 187.816l-49.754 44.1-1.213-49.414 56.112 37.69" />
      <path fill="#45290f" d="M924.87 273.992l4.544 48.98-11.896 35.532 3.17-52.63" />
      <path fill="#cbc404" d="M549.1 244.954l-47.703 73.11-7.654-26.385 7.627-38.172" />
      <path fill="#b2161c" d="M471.662 316.913l1.02-7.207 2.75-85.88 11.038 54.04" />
      <path fill="#501d00" d="M677.452 303.665l-4.697 18.017 37.034-27.238-16.88 12.837" />
      <path fill="#8b9496" d="M598 596.493l-3.54-25.472-9.796 12.51 1.62 12.484" />
      <path fill="#c8c7c4" d="M742.755 186.296L791.35 18.02l8.32-1.616-8.112-47.272" />
      <path d="M96.68 66.782L-31 96.664v159.823L195.706 72.85" />
      <path fill="#a8a8a8" d="M491.254 6.274l44.57 6.71L480.788 33.4l33.428 16.763" />
      <path fill="#200e00" d="M679.204 224.038l-6.518-28.11 9.125-13.85 8.263 2.823" />
      <path fill="#e0d974" d="M552.33 551.39l-35.903-7.866 29.724-140.786-13.473 180.164" />
      <path fill="#aeb1c8" d="M596.69 157.985l32.378 21.145-1.597-12.972-32.267 2.538" />
      <path fill="#797979" d="M814.335 51.543l45.38 6.307-24.167 12.482 3.878-34.95" />
      <path fill="#b09f5f" d="M684.67 250.635l-26.096-28.553-14.826 12.342-3.646-6.396" />
      <path fill="#7638c1" d="M392.04 281.96l-36.478-55.395.97 34.102 6.756 39.63" />
      <path fill="#a7984e" d="M268.91 210.59l-22.297-58.183 9.275-22.435 17.388 8.793" />
      <path fill="#cbc1a8" d="M642.52 175.977l47.344 6.695 65.795-26.136-74.09 24.395" />
      <path fill="#6e465f" d="M333.604 128.022l95.07.233-20.297-14.25-60.557 29.736" />
      <path fill="#89898a" d="M892.49 245.378l-7.03 13.05-28.824-12.914-2.702 8.79" />
      <path fill="#080808" d="M301.984-31L134.73 108.828l138.95 1.532-14.016-5.095" />
      <path fill="#4c4e51" d="M725.078 152.652l16.61 6.327-6.852 3.706 16.748-17.21" />
      <path fill="#58502c" d="M729.596 392.618l21.38-15.125-11.77-12.674-3.56 31.844" />
      <path fill="#454648" d="M754.812 13.94l1.478-31.483-12.192 33.535L731.64-5.463" />
      <path fill="#90641e" d="M487.537 158.47l10.997 20.492 100.962-4.522-56.645 13.45" />
      <path fill="#5b5d60" d="M754.757 146.688l22.12 8.395-2.236 4.416-7.196 4.045" />
      <path fill="#d69a47" d="M761.983 590.728l-22.03 29.925 54.412-12.99-1.106 77.598" />
      <path fill="#4f3f27" d="M831.255 234.43l-10.482 2.345-6.083 20.81 41.22 4.478" />
      <path fill="#9e876e" d="M919.228 318.627l-9.377 56.138-51.922-12.214 45.65 4.627" />
      <path fill="#a77c9b" d="M454.402 270.077l-64.565-95.395 8.642-4.22 47.597 48.677" />
      <path fill="#515050" d="M379.123 207.696l-2.658-1.743 7.478 69.64-21.068-38.902" />
      <path fill="#f4ebad" d="M466.178 191.398l-20.283 17.382 25.623 15.463-1.5-2.352" />
      <path fill="#070700" d="M858.772 458.792l-19.675 9.915 9.14 21.023 24.993-6.102" />
      <path fill="#34363b" d="M705.933-31h16.695l-5.806 45.894 25.68-44.35" />
      <path fill="#be9e5f" d="M731.79 440.548l-5.935-5.155 1.618-38.128 11.14 10.178" />
      <path fill="#caccd1" d="M890.074 252.478L859.23 154.1l33.834 47.84-43.464 30.286" />
      <path fill="#21a293" d="M643.884 321.752l-18.126 57.585 10.804 118.41-5.598-27.845" />
      <path fill="#2f3030" d="M200.767 624.764L135.474 510.52l18.387 90.464 35.432 56.42" />
      <path fill="#c4c5c7" d="M845.063 30.755l-28.83 9.613L800.494-31l48.218 74.663" />
      <path fill="#4bbeb0" d="M596.45 567.482l11.538-2.322 3.643 7.827 49.243-110.472" />
      <path fill="#885734" d="M351.775 33.162l-25.85 7.52-25.104 20.206 19.036 9.947" />
      <path fill="#414548" d="M543.614 111.19l14.295 4.517.498 3.69 4.095-22.08" />
      <path fill="#3e1700" d="M676.143 342.557l22.666-24.492 1.065 30.436.13-8.19" />
      <path fill="#351200" d="M691.326 290.95l29.732 32.25-5.993-21.03-20.122-15.19" />
      <path fill="#c3ab77" d="M635.35 277.398l-30.803 9.623 57.304-5.44-26.096 5.91" />
      <path fill="#cbb8c9" d="M297.94 319.582l64.292-9.466-75.016-35.068-4.317 29.97" />
      <path fill="#333" d="M283.425 106.607l-32.767-1.61-142.342 45.485-12.685 15.822" />
      <path fill="#5d5f63" d="M70.222 186.097L243.55 136.46l-13.302 65.857 18.893-89.808" />
      <path fill="#a6a6a7" d="M42.56 370.56l-5.187-54.827 27-60.318L-31 278.258" />
      <path fill="#9e773a" d="M826.64 434.84l14.39 31.505 33.677-21.944-64.055 9.407" />
      <path fill="#cccccb" d="M834.54 94.675l-77.882 19.907 24.55 2.796 28.83-40.727" />
      <path fill="#7c6902" d="M555.015 244.96l-17.73 10.844 14.86 18.043-25.06 15.142" />
      <path fill="#c9cfd6" d="M373.63 75.445L357.95 44.55l29.397-5.857 9.617 27.1" />
      <path fill="#d7d8d9" d="M740.45 651.697l-5.01-39.51L693.93 713 490.59 662.08" />
      <path fill="#555657" d="M39.408 303.156l37.597 38.62-21.77-44.233L60.2 461.26" />
      <path fill="#b4833a" d="M748.858 245.422l16.17-4.1 12.033-39.32-28.853 28.563" />
      <path fill="#9f83c4" d="M401.084 80.25l3.8 14.143-30.393 31.403 7.075-40.688" />
      <path fill="#1a1b1b" d="M66.707 323.953L49.305 340.91l14.44 63.475L213.1 543.195" />
      <path fill="#f1bf4e" d="M720.912 165.88l15.617 5.398 19.54 19.427 9.328-12.82" />
      <path fill="#515152" d="M140.148 691.214l-9.955-103.855-5.972-13.73L127.806 713" />
      <path fill="#a4a097" d="M403.06 49.154L322.07 6.456l12.95 15.952 69.792 1.98" />
      <path fill="#4b4b4b" d="M710.97 82.525l-6.348-3.386 10.41-54.367-20.287 70.756" />
      <path fill="#c0c1c2" d="M683.526 79.473l-27.96 22.42 1.24-6.973 40.585-44.787" />
      <path fill="#434343" d="M1009.575 11.88l11.647 20.493L1037.82-31l-58.46 52.36" />
      <path fill="#d4c7a1" d="M296.45 120.827l8.794-48.597L277 71.105l-.488 62.658" />
      <path fill="#747476" d="M602.536 107.517l21.903-6.314-18.32 14.672-5.15-5.788" />
      <path fill="#ddddde" d="M670.09 609.87l-4.713 47.956L531.5 707.45l-59.65-88.806" />
      <path fill="#e0d609" d="M554.383 425.877l6.36 31.14-10.907 34.84-12.204 30.428" />
      <path fill="#bcbcbd" d="M763.992 91.46l140.033-67.754 93.666 19.24-82.28-36.2" />
      <path fill="#c5c9be" d="M638.313 538.63l6.635-17.623 15.356 36.348-28.114 23.918" />
      <path fill="#c3bdb4" d="M737.94 200.086l-1.952-17.586-10.524 28.725 9.33 19.375" />
      <path fill="#cacaca" d="M-31 411.55l63.077 3.092-14-59.966-17.305-21.97" />
      <path fill="#d2d0bc" d="M574.682 545.344l53.44-110.578-53.626-59.093-21.32 20.258" />
      <path fill="#bc9a57" d="M641.82 139.717l-30.536 24.5.826-12.855 19.766 2.923" />
      <path fill="#7c6c5a" d="M475.848 56.285L489.69 66.98l-.698 12.967 21.894-8.555" />
      <path fill="#5b5c5f" d="M200.974 702.728l2.657-84.22L223.19 713l-86.957-123.6" />
      <path fill="#6d5025" d="M642.892 143.616l13.853 6.47-28.445 30.57-.338 27.92" />
      <path fill="#cacbcc" d="M669.916-31l-22.112 74.94 30.773 10.548-52.79 3.443" />
      <path fill="#b48546" d="M563.594 122.06l-32.373 3.638-.476-1.62-8.143 28.672" />
      <path fill="#cdced0" d="M644.947 60.888l10.25 26.056L563.94 51.32l-58.996 20.072" />
      <path fill="#4a1c00" d="M655.14 326.11l10.686-31.023.09 28.014 19.49 18.346" />
      <path fill="#723e0d" d="M581.354 185.767l13.59-37.882-9.608 69.12-1.708-22.562" />
      <path fill="#858585" d="M902.795 115.852l-18.452-20.347-14.004 15.49 56.623-2.742" />
      <path fill="#5c9dd0" d="M343.493 152.022l4.905 115.474-8.435 39.165-5.45-145.442" />
      <path fill="#d9dada" d="M302.817 438.802l-3.175-63.08 111.782 23.353 38.558 101.79" />
      <path fill="#8b8c8e" d="M236.504 460.6L43.014 284.73l-9.263 27.25 20.06 2.595" />
      <path fill="#f5efcb" d="M633.28 205.552l6.58-14.285 2.312-21.536 1.138 34.303" />
      <path fill="#5f6060" d="M636.012 43.665l-27.275 5.164L614 51.182l5.83 7.065" />
      <path fill="#cdcba9" d="M586.555 314.505l-24.967-32.854 55.766-48.853-31.312 60.716" />
      <path fill="#858585" d="M917.713 79.464l13.886-14.5-65.27 19.808 22.18-18.22" />
      <path fill="#5e5569" d="M911.575 539.183l9.06 4.49L883.588 654.8l24.153-92.546" />
      <path fill="#d7d2cd" d="M499.593 117.66l11.943 2.69 12.037 43.544-21.19 2.114" />
      <path fill="#7b5962" d="M487.097 159.86l-26.203-66.298 24.233 20.97 4.88 6.268" />
      <path fill="#9b9b9b" d="M234.45 172.45l-90.97 18.384-83.633 58.513 58.12-71.156" />
      <path fill="#7c7c7c" d="M862.085 87.604l-37.98 22.918-19.777 3.913 48.16-30.798" />
      <path fill="#c8c8c8" d="M727.022 27.12l-9.602-45.686 38.187 65.775 59.516 7.22" />
      <path fill="#f1796b" d="M464.61 438.97l5.574-30.458-20.09-9.013 22.61-118.346" />
      <path fill="#2c2d45" d="M825.97 508.126l-9.284 78.916-2.47-91.83 33.08-5.513" />
      <path fill="#777778" d="M827.785 129.826l2.766-10.22 8.673 27.98 7.672-29.425" />
      <path fill="#ccc3bf" d="M529.092 179.293l-17.317 12.22-17.244-5.704 5.597-8.066" />
      <path fill="#009e86" d="M725.9 358.74l-59.618 46.396 13.664 38.4 23.072-41.528" />
      <path fill="#603600" d="M573.796 265.614l-11.165 12.768 7.126-20.847 4.963 3.507" />
      <path fill="#0e0e0e" d="M289.198 633.618l3.29 77.992 14.54-23.065-16.624-98.663" />
      <path fill="#c8cac9" d="M548.81 69.024l-133.524-50.19 142.472 75.223-103.088-8.99" />
      <path fill="#7b4f10" d="M642.974 156.98l-5.703 22.897-25.972-42.72 40.256 31.115" />
      <path fill="#9e9f9f" d="M970.183 713l83.06-75.57-28.94-23.763L954.51 713" />
      <path fill="#251900" d="M625.93 265.21l-31.298 40.443-1.8-10.814 45.695-27.596" />
      <path fill="#4d4d4c" d="M741.898 30.52l.027-59.572 3.303 70.976-15.146 16.648" />
      <path fill="#546e50" d="M694.99 251.635l10.403.87 55.248 23.536-66.49-4.722" />
      <path fill="#555556" d="M727.683 17.633l5.775 40.257.045-29.646-33.473-6.562" />
      <path fill="#d6d139" d="M505.892 248.542l1.278 104.666-34.176 80.237 12.308-152.593" />
      <path fill="#4dad9c" d="M707.234 480.26l10.445-6.48 16.372-135.208-37.566 161.907" />
      <path fill="#c68429" d="M579.337 144.837l-15.174-19.28 34.057 24.054-21.52 25.333" />
      <path fill="#503a22" d="M637.65 168.784l-42.304-16.188 21.907 18.16 13.342-12.732" />
      <path fill="#19111b" d="M911.428 383.97l-9.602 57.794 21.067-4.434-38.546-67.54" />
      <path fill="#b5ae77" d="M592.99 362.766l-19 16.593 57.193 8.262-99.657-104.106" />
      <path fill="#bcbcbe" d="M777.54 190.86L964.565 60.644l-76.696 194.62 41.427-176.55" />
      <path fill="#e85a00" d="M809.772 565.677l-34.217-12.387 3.53 55.804 9.02 12.773" />
      <path fill="#ffb261" d="M271.482 293.373l50.24 35.618-41.037 27.112 6.113-23.174" />
      <path fill="#78b6ae" d="M659.94 485.16l-18.51-16.382-18.317-25.57 16.462-18.675" />
      <path fill="#906c29" d="M586.92 317.41l13.79-43.18-11.465 19.045 37.387 85.156" />
      <path fill="#d7d9da" d="M682.957-31l79.45 27.73-12.584 22.216 32.464-5.07" />
      <path fill="#c6c6c7" d="M833.258 148.285l68.51-29.485-172.326 53.424 133.37-25.864" />
      <path fill="#0f5745" d="M770.284 287.958l-38.777 25.07-3.82 24.276 50.396-21.523" />
      <path fill="#a06609" d="M682.816 177.455L630.46 190.6l15.93-.516.794 21.14" />
      <path fill="#cacbcf" d="M703.017 109.064L667.137 81.4l16.25 47.7-3.1-20.953" />
      <path fill="#fe666e" d="M329.666 356.892l-3.827-42.86-16.592 15.255 4.696 23.676" />
      <path fill="#d5d5d5" d="M733.86 76.747l-6.38 13.955 27.553-10.275.46-12.562" />
      <path fill="#5e6062" d="M653.766 77.962l-11.6-17.127 26.293.3 13.906 4.116" />
      <path fill="#3d146d" d="M399.172 115.628l-34.69 48.758 39.806 4.942-3.507-15.645" />
      <path fill="#bfb682" d="M547.125 324.435l80.99 29.104-86.664-49.5 83.13-62.693" />
      <path fill="#d0b198" d="M757.59 633.084L822.656 713l-87.19-39.98 2.233-44.375" />
      <path fill="#3c3c3c" d="M709.218 128.54l10.853 2.062-12.182 9.948-.566-10.228" />
      <path fill="#485481" d="M885.184 392.596l25.992 2.657-59.492-9.91 5.952 42.645" />
      <path fill="#498d70" d="M754.533 329.38l-1.072 33.736 25.254-15.975-1.613-19.396" />
      <path fill="#4c0600" d="M833.92 335.302l-10.685 10.966-9.05-21.283 21.605 1.39" />
      <path fill="#cc8128" d="M269.517 199.423l8.104-29.954 37.843-55.477-66.808 209.675" />
      <path fill="#947325" d="M613.025 360.516l2.962 7.212 3.344 12.167 22.36-74.874" />
      <path fill="#d3c69f" d="M597.803 231.24l-19.627-27.812-2.477 23.89 18.34.348" />
      <path fill="#828283" d="M210.08 494.717l-37.745-53.686 21.133 11.252 45.46-99.612" />
      <path fill="#c6c6c6" d="M696.033 53.19L663.51 68.376l18.122-24.52 26.91-15.258" />
      <path fill="#ccc8c2" d="M630.26 176.298l-6.668 35.26-19.14 5.61-9.067-56.552" />
      <path fill="#0018a4" d="M826.53 502.79l-5.396 52.197 36.273-6.44-12.413-46.74" />
      <path fill="#caccce" d="M808.506 194.006l26.395-17.072-61.814 6.385 2.154-27.4" />
      <path fill="#804a9a" d="M420.925 93.708l-.278-15.9-34.59 30.704-34.34 47.987" />
      <path fill="#5a3f12" d="M831.236 413.44l-20.563-.57-5.168 18.357 5.315 28.503" />
      <path fill="#dfd3a9" d="M474.974 107.772l25.668-16.742 2.023-14.863 24.203 22.61" />
      <path fill="#b58930" d="M611.285 227.797l-3.126.505 20.59-26.398 12.096 8.285" />
      <path fill="#494948" d="M576.206 67.702l-6.02 4.91 2.12 6.075-16.097-2.843" />
      <path fill="#8e8e8d" d="M278.863 629.346l-13.846-20.123 25.125.932-13.838-37.017" />
      <path fill="#745425" d="M725.67 386l41.838 38.575-40.105 21.32 19.954-33.86" />
    </g>
    <g class="SVG--3">
      <path fill="#a97b9c" d="M438.95 166.393l22.284-23.21-32.83-3.415 12.182-53.983" />
      <path fill="#dbda77" d="M444.025 541.13L553.87 384.207 450.396 484.355l-24.684 63.173" />
      <path fill="#60636a" d="M933.724 17.613L948.69-11.86 897.575 3.6l5.065-31.188" />
      <path fill="#b19673" d="M872.756 303.307l48.92-9.16-39.173 19.19-5.908 78.917" />
      <path fill="#a8beb9" d="M753.186 347.332l-4.193-15.66-20.676 33.66 22.24 1.244" />
      <path fill="#ba9c7b" d="M323.623 77.036l34.172-55.854-14.564 96.12 20.65 12.202" />
      <path fill="#cdcdcd" d="M727.323 31.738L716.23 89.875l12.556-78.835 13.963 23.705" />
      <path fill="#9a9a9b" d="M970.038 125.016L928.594 285.53l31.377-143.32-28.61-18.166" />
      <path fill="#ae863e" d="M680.457 244.09l-57.663 28.985 36.774-13.054 27.817-51.942" />
      <path fill="#2b2b2b" d="M228.483 544.625l19.87 34.37-28.65 28.257-53.038-152.267" />
      <path fill="#d4d3c5" d="M805.7 198.974l-24.72 88.83-9.188-36.224 67.296-32.364" />
      <path fill="#bca889" d="M416.174 71.748l8.236-23.877 34.328 21.306-41.09 12.39" />
      <path fill="#838283" d="M904.03 154.382l3.457-9.72-53.73-3.047 31.97.652" />
      <path d="M-29.98 526.798L85.074 589.72l40.115 97.55L-31 692.533" />
      <path fill="#868889" d="M555.93 101.123l11.658 7.925-16.44 11.9 49.747-24.916" />
      <path fill="#42240d" d="M643.727 290.308l-36.324 16.654 43.053-21.178-17.78 33.96" />
      <path fill="#797877" d="M253.9 129.918l-193.312 86.22 40.725-29.736 74.767-39.75" />
      <path fill="#cec9c2" d="M877.75 347.04l10.43-46.06 22.254 31.674-13.775 35.295" />
      <path fill="#966d74" d="M349.1 103.216l-30.782 103.37 5.145-78.17 29.158 4.254" />
      <path fill="#133729" d="M721.725 232.377l31.363 24.29-10.54-43.378-6.615 27.497" />
      <path fill="#d19443" d="M819.403 378.77l-45.8-42.077 19.468 55.384-40.51-7.258" />
      <path fill="#0f0b0f" d="M618.183 321.643l15.737-5.846-6.854 9.57-11.01 2.997" />
      <path fill="#7d7e7e" d="M909.635 30.774l-68.84-1.908 17.5-13.75 31.64 27.746" />
      <path fill="#736f6a" d="M802.85 160.932l8.846-25.953-6.427 34.088-41.432 43.246" />
      <path fill="#c95627" d="M287.577 142.332l33.11-13.97 1.958 16.06 1.65 41.323" />
      <path fill="#209683" d="M649.638 339.098l61.635 51.773-69.66-47.082 2.903-40.267" />
      <path fill="#c7c7c9" d="M846.232 16.41L851.37.11l31.57 29.59 47.828-14.583" />
      <path fill="#a1c1e6" d="M299.502 298.155l15.765-18.81 36.462 13.868-7.795 15.477" />
      <path fill="#98d2c8" d="M611.53 561.84l2.74 35.7 61.12.45-.798-6.67" />
      <path fill="#010860" d="M875.406 472.523l37.703-3.763 3.24-6.102-38.49-24.555" />
      <path fill="#a6baa9" d="M678.28 402.35l-15.618-5.298-.83-25.822 19.89-.704" />
      <path fill="#c3c4c6" d="M677.984 91.244l6.456 18.492-33.796 20.413 53.188-74.193" />
      <path fill="#d1d1d1" d="M730.74 63.2l-16.487-20.817 3.33-17.068 10.803 18.025" />
      <path fill="#2b1d16" d="M649.522 294.86l-8.81-19.383-20.042-.916 22.96 9.352" />
      <path fill="#3a3a3b" d="M665.557 86.508l-21.872 14.237-2.274-5.107.645-7.556" />
      <path fill="#a3a5a8" d="M562.336 13.365l-23.11 84.654-9.684-20.974 18.945 1.57" />
      <path fill="#c7c7c7" d="M710.65 106.162l.798-53.93 15.205 37.185-41.3 18.384" />
      <path fill="#c7b378" d="M618.813 281.297l-16.99 15.685 23.005-14.35 40.954.026" />
      <path fill="#d0c8ab" d="M851.762 441.957l1.704-112.398-22.784 105.635 34.068 21.28" />
      <path fill="#ab680c" d="M789.632 434.133l-3.812 51.23-21.588 8.29 11.5-66.633" />
      <path fill="#688459" d="M737.322 330.26l-6.003-17.037-24.01 46.392-44.063 8.08" />
      <path fill="#b66726" d="M679.868 357.113l22.697-27.755-7.354 21.84-46.592-8.302" />
      <path fill="#4b4c4d" d="M738.692 93.956l4.62-11.05 11.23 6.832-5.442 7.717" />
      <path fill="#989898" d="M187.098 701.74l-43.624-45.78-7.082-38.397-.25-23.903" />
      <path fill="#3d1b02" d="M536.67 184.747l8.418 3.148-1.143-16.846-7.498-4.04" />
      <path fill="#ccbb53" d="M568.64 191.394l-45.1-.728 76.315 51.51-82.45-13.234" />
      <path fill="#dfdbb7" d="M485.464 516.416l44.64 16.434-14.843-102.967-58.287 116.007" />
      <path fill="#4d3820" d="M784.045 189.37l-47.87 45.793 34.007-54.673 18.693 8.776" />
      <path fill="#c8c3b7" d="M546.31 149.374l.876 26.35 1.197-.14 17.99-24.473" />
      <path fill="#c1c3b6" d="M650.357 246.577l17.546 9.387-24.967-16.782-23.797 3.756" />
      <path fill="#c2c2c2" d="M915.388 559.56l57.93-301.812L938.298 713h-45.62" />
      <path fill="#e6b8af" d="M450.78 400.523l-19.418 30.287-2.965 57.24 24.914-70.69" />
      <path fill="#e6e7e8" d="M405.696 630.548L381.77 713l59.925-216.176-173.39-49.763" />
      <path fill="#00c1b3" d="M725.714 607.95l-22.962 15.51-6.192-81.272 36.05 31.067" />
      <path fill="#d4d8dc" d="M553.6 76.343l-38.262 47.74L556.43 97.04l4.976-20.303" />
      <path fill="#71623d" d="M575.264 362.76L561.93 341.94l22.246 8.272-7.107 9.048" />
      <path fill="#51b39e" d="M675.704 513.17l-20.597 12.105.61 34.053 15.15-2.486" />
      <path fill="#38383a" d="M158.245 414.588l28.167 64.665-96.61-109.62-6.185-21.778" />
      <path fill="#a78b42" d="M626.18 294.475l8.28 8.424-11.268 9.644-5.148 8.186" />
      <path fill="#555656" d="M685.964 39.685l-13.426-14.88-19.125 3.68 15.537 27.33" />
      <path fill="#437561" d="M770.982 269.66l-42.202 50.19 21.112-78.89 16.333 21.704" />
      <path fill="#c4c5c7" d="M974.46 179.043L866.216 247l81.896-20.788L904 180.972" />
      <path fill="#d1d2c9" d="M626.286 107.053l8.547 35.644-60.316-12.332 87.12-19" />
      <path fill="#444443" d="M714.29 49.245l-12.6 10.876-3.89-14.045 18.933 11.65" />
      <path fill="#77838f" d="M930.74 271.584l13.63 32.75-8.93 3.002-19.8-31.092" />
      <path fill="#563511" d="M670.32 192.78l3.346-4.122 33.504-29.308-22.306-.22" />
      <path fill="#cecfd0" d="M350.907 21.99L428.46 4.52 547.15 52.63 427.004-31" />
      <path fill="#d0d1cb" d="M940.35 262.57l-79.157 21.892-.95-15.432 62.5-21.063" />
      <path fill="#d0d1d2" d="M726.375 123.868l-20.465 3.84-16.75 10.11 7.915-15.93" />
      <path fill="#6d6e6e" d="M572.74 58.684L605 40.768l-17.348 15.496-20.558-18.09" />
      <path fill="#b8b89a" d="M806.735 487.394l8.217-30.328 10.96 23.01-11.86 3.463" />
      <path fill="#835f40" d="M883.726 376.8l-22.164-26.677 5.233 2.67 38.686 26.014" />
      <path fill="#00b49b" d="M722.2 491.03l-28.105 8.81-40.89-3.354 10.43-17.884" />
      <path fill="#975f1f" d="M726.41 172.744l31.744 22.17-19.62 9.274 5.482-26.502" />
      <path fill="#cecfd0" d="M520.162-31l55.767 72.798 4.14-23.658-53.45 44.247" />
      <path fill="#986557" d="M435.47 120.485l-36.083 15.485 29.325-45.956 6.864 30.272" />
      <path fill="#481b00" d="M683.966 284.078l34.262 18.346-45.59-17.146-15.34 34.915" />
      <path fill="#4e4e4f" d="M661.35 93.97l-1.103 22.56-32.737 9.526 22.99-.255" />
      <path fill="#58595a" d="M222.778 541.157l-42.245-79.707 62.46 78.958 29.01 71.56" />
      <path fill="#6e6f70" d="M635.916 25.482l-58.74-13.223 55.207 6.643 4.927-8.232" />
      <path fill="#c5c1bc" d="M805.816 324.13l-13.71 12.51-6.024-20.483 17.588 7.035" />
      <path fill="#f6d291" d="M696.597 284.527l-.86-6.323 30.344 13.483-7.702 7.222" />
      <path fill="#b37851" d="M489.745 233.505l-9.66 21.49-.433-57.692 24.27 26.763" />
      <path fill="#e6ead8" d="M565.07 548.033l8.71 2.812-36.742 37.69 60.874-26.997" />
      <path fill="#fddd70" d="M502.567 204.367l-8.075 17.286 30.538-10.834-5.99.796" />
      <path fill="#c7c8be" d="M665.84 458.866l-6.435-32.898-15.018 20.53 16.94 16.002" />
      <path fill="#229687" d="M677.17 260.97l20-6.25 5.586-1.745-43.57 34.492" />
      <path fill="#ab9c8f" d="M506.04 101.89l-12.203 31.756-32.51-67.978-3.79 42.173" />
      <path fill="#d9dac9" d="M293.483 91.26l-18.63 29.618 22.47 1.597 4.9-7.086" />
      <path fill="#8b8c8e" d="M212.808 287.004l-70.346 6.456 113.653 53.436-25.045-142.68" />
      <path fill="#b49906" d="M551.966 169.356l16.647 26.74-6.302-1.103-18.586-8.553" />
      <path fill="#898a8c" d="M855.04 205.602l-10.832 7.66 52.75 3.78-10.256 9.456" />
      <path fill="#c6c6c7" d="M723.126-16.413l-43.323 93.665 26.485 3.27-24.883-60.392" />
      <path fill="#62573b" d="M840.79 497.48l-24.76-48.616 5.17 17.955.64 23.937" />
      <path fill="#c8ccb4" d="M623.41 426.3l6.61 84.025-30.31-34.91 29.402-109.803" />
      <path fill="#e4e5d4" d="M729.482 163.004l-6.522-7.8 47.722 18.92-60.594-8.614" />
      <path fill="#0c0d0c" d="M58.396 330.49l9.09 91.467-13.913 79.03 104.258 98.387" />
      <path fill="#b9c7c3" d="M685.647 210.778l49.378 33.81-4.398 2.82-28.392-20.888" />
      <path fill="#b2abaf" d="M269.153 444.79l37.708-76.965 54.107 17.604-62.2-36.107" />
      <path fill="#0ab8a4" d="M748.36 465.11l-63.757-23.65-23.038-31.95 79.283 46.025" />
      <path fill="#787979" d="M636.797-31H552.74l57.552 55.05-24.38-12.072" />
      <path fill="#4f7495" d="M411.015 76.954l-4.15-18.203-2.728 11.543-47.403 16.614" />
      <path fill="#b9af99" d="M870.167 275.814l-9.26 58.69-24.238 24.835L851 306.352" />
      <path fill="#d3ae6b" d="M775.38 520.292l-41.514 78.28 34.923 33.068-20.598-143.222" />
      <path fill="#49241e" d="M427.945 195.97l-9.646-15.03 1.528-12.963 14.326 6.414" />
      <path fill="#b7b7b6" d="M959.602 155.344l-94.596 29.296 135.647-63.085L1055 351.475" />
      <path fill="#aaabac" d="M527.656 48.63l38.494.374-22.704-31.224L557.4 83.22" />
      <path fill="#2b2422" d="M903.682 575.493l12.475-97.65-5.63-113.253 10.91 141.027" />
      <path fill="#d9e1d9" d="M659.37 275.505l-7.1 1.574-10.122 3.386 17.653 5.765" />
      <path fill="#6a2d09" d="M655.257 199.347l5.898 28.457-10.362-4.015-10.76 2.447" />
      <path fill="#f5e8b6" d="M758.727 391.754l-12.355 17.892-4.826-26.9 9.69 5.683" />
      <path fill="#ac9e75" d="M274.387 69.745l12.66 24.033-10.583 8.115-13.222-.763" />
      <path fill="#de955b" d="M311.787 130.06l9.517-45.197-29.453-19.266 16.136 38.396" />
      <path fill="#844ea3" d="M479.747 142.142l-27.833-34.548-11.037 21.74 18.727 26.707" />
      <path fill="#444545" d="M753.368 29.495l53.663 19.6-35.828-13.075-5.23-19.41" />
      <path fill="#8fa0c2" d="M352.085 265.738L326.898 184.2l3.615 65.503-35.943 48.25" />
      <path fill="#979899" d="M995.884 92.597l-.235-70.416 29.17 84.71 23.394 102.58" />
      <path fill="#9b9b9b" d="M110.236 294.1l73.523-5.93 70.534-126.077-144.557 191.58" />
      <path fill="#b8a585" d="M918.702 403.802l12.136-23.592 8.716-48.822-1.016-41.56" />
      <path fill="#303030" d="M761.415 53.236l-.354 9.817-13.366-8.912 4.234-.142" />
      <path fill="#f3f4f4" d="M384.393 713L238.36 475.552l75.918 166.252L306.914 713" />
      <path fill="#c6a053" d="M648.6 159.2l-19.776-2.59 7.072-10.317-40.614-16.722" />
      <path fill="#949493" d="M929.645 168.05l22.762 11.194 19.808-27.602-6.514 7.657" />
      <path fill="#c2c2c2" d="M238.18 482l31.918 81.796-40.977-56.177 54.53 101.594" />
      <path fill="#9c3800" d="M790.17 404.32l-23.43-18.918 47.745 126.432-22.675 5.11" />
      <path fill="#be7337" d="M681.723 302.097l24.566-15.91-40.067 18.465 16.864 1.954" />
      <path fill="#53b297" d="M654.576 476.476l35.566 4.374 2.967-31.04-47.647 20.17" />
      <path fill="#63625f" d="M692.345 130.703L709.62 58.7l-12.456 36.164-11.724 57.19" />
      <path fill="#4f361c" d="M929.84 325.48l-1.257-34.26-14.186 1.513-6.06-2.476" />
      <path fill="#82650d" d="M546.862 237.604l1.453 12.627 12.186 4.286 13.83 15.332" />
      <path fill="#848483" d="M279.9 354.7l-12.45 85.704L153.777 317.6l26.612-26.796" />
      <path fill="#5b5a5a" d="M792.41 85.31l4.51 5.466-21.69 9.405 8.897-15.645" />
      <path fill="#7c6f5c" d="M696.256 138.673l-4.23 12.387-20.955-8.923 5.04.552" />
      <path fill="#1d1d1e" d="M33.503 223.982L-31 245.827l86.018-23.5 55.236-79.813" />
      <path d="M598.52 302.29l11.646 24.488 14.505-2.9-19.87-1.153" />
      <path fill="#976823" d="M831.234 252.758l1.028-20.595-38.277 9.848 56.668-2.783" />
      <path fill="#6e7477" d="M322.624 9.302L293.446-8.356 363.756-31l-43.62 66.74" />
      <path fill="#d0cfcf" d="M866.857 100.893l-.64-23.406 21.238 12.487 39.663 3.01" />
      <path fill="#494a4b" d="M703.67 25.11l18.653-9.482-6.578 3.808.015 14.18" />
      <path fill="#dadad9" d="M738.217 58.46l14.265-22.66 6.438 16.522 7.944-18.01" />
      <path fill="#572691" d="M475.495 179.81l-54.21 7.183 18.487-4.337 32.038-35.518" />
      <path fill="#606060" d="M816.053 140.99l-2.086-4.32-11.21-1.577 6.606 12.826" />
      <path fill="#c8c8c8" d="M774.682 51.858l-6.625 29.288 13.653 5.482 9.22-6.21" />
      <path fill="#989a98" d="M903.046 626.8l25.98-161.633-2.457-45.988 7.99 69.893" />
      <path fill="#6c4e21" d="M628.4 333.535l-33.442 4.483 26.593 3.036 21.578-14.005" />
      <path fill="#b6b9ba" d="M445.06 41.053L432.555 6.01 329.334 30.093 340.987.472" />
      <path fill="#180400" d="M659.148 320.96l7.483 6.202-7.238-22.7 15.935-13.2" />
      <path fill="#d1d1d0" d="M731.397 490.4l-11.516 30.793 23.134 92.817 2.283-92.57" />
      <path fill="#272a2a" d="M300.08-31l-.58 90.196 17.078-19.755L307.403-31" />
      <path fill="#fc9d17" d="M247.164 314.96l10.483-12.722 39.65 26.536-21.673 14.848" />
      <path fill="#d4d5d5" d="M205.91 473.353l196.925-107.01-117.848 91.66 95.925-18.106" />
      <path fill="#6f6f70" d="M194.704 415.103l-74.46-73.88 38.637-5.378 30.05 49.238" />
      <path fill="#744717" d="M597.337 330.21l-10.296-28.914 3.585 27.266 28.4 16.1" />
      <path fill="#a18da0" d="M453.478 187.76l.82-6.227 20.953 6.894 26.826-27.125" />
      <path fill="#d0b67e" d="M709.807 315.288l-14.06-21.705-13.186 3.85 3.43 4.965" />
      <path fill="#b7b4b0" d="M798.03 649.77l3.448-5.47 7.832 2.04 10.822-65.48" />
      <path fill="#e3922b" d="M774.277 559.436l-27.448 3.542 2.454-27.862 26.084 15.713" />
      <path fill="#946710" d="M624.647 236.613l1.504 2.78-35.644-20.663 51.533 1.463" />
      <path fill="#bbb9e0" d="M354.07 347.32l76.7-29.787-5.508-29.802-41.623 75.476" />
      <path fill="#f47d0d" d="M316.342 220.233l-1.31-57.712-22.248 43.95 2.84 29.283" />
      <path fill="#e6c87f" d="M594.255 314.003l4.763 8.953 6.732 5.576 11.47 6.208" />
      <path fill="#cccdd0" d="M640.407 83.88l-54.7 10.122L602.03 69.64l25.03 53.902" />
      <path fill="#545556" d="M737.443 161.62l-8.93-11.78 20.314-5.218-7.348 6.58" />
      <path fill="#5e2a0f" d="M772.085 410.523l-16.265-19.776 22.543 8.93-38.948 28.51" />
      <path fill="#d65a0a" d="M773.605 392.627l56.136-19.887-.31 28.185-43.304-.59" />
      <path fill="#1d1d1d" d="M155.496 33.55L60.7 68.023l-46.434-7.238 96.89-42.935" />
      <path fill="#bdaf00" d="M514.207 266.826l21.788 46.243-2.872-40.956 17.382-30.245" />
      <path fill="#97999c" d="M943.805 251.797l-9.147-2.01-21.253-9.32 30.498-7.35" />
      <path fill="#4a4949" d="M767.508 56.695l-9.117-4.817-8.12 1.007 3.84 15.27" />
      <path fill="#645247" d="M407.832 43.93l-5.212 29.374 9.13 3.975 10.066-42.137" />
      <path fill="#d1d1d1" d="M881.968 62.835l34.04-19.843 5.92 22.07-46.486-16.427" />
      <path fill="#9f7f52" d="M446.554 252.126l-2.47-47.214 20.654 63.33-.548-22.1" />
      <path fill="#cac386" d="M571.633 390.55l-56.78-6.633 23.987 23.626 12.017-57.517" />
      <path fill="#58595b" d="M997.434-31L831.93 5.554l4.003 11.796 31.564-30.15" />
      <path fill="#ca9751" d="M827.797 414.305l19.012-30.594-27.117 13.015 4.04-.47" />
      <path fill="#1f4a9e" d="M857.452 713l-47.562-61.62 13.258-40.327L819.594 643" />
      <path fill="#9baab5" d="M356.923 70.24l-25.482 34.593 29.463-11.167 40.37-28.08" />
      <path fill="#01957c" d="M704.355 359.364l-24.08 24.184-6.91 40.917 31.898-7.98" />
      <path fill="#6e6765" d="M334.274 145.056l13.19-24.655 12.98 13.32-6.67 21.728" />
      <path fill="#616162" d="M776.803 135.766l8.463-18.098-23.855 4.382 4.2.814" />
      <path fill="#8e8f8f" d="M544.956 33.64l23.164-24.5 20.594 2.817-14.306 5.118" />
      <path fill="#d5d5d6" d="M463.48-.536L589.73 10.85 580.36-31l39.57 27.022" />
      <path fill="#e9efdf" d="M372.328 119.82l.39-4.808-3.33-20.586-18.21 23.094" />
      <path fill="#d4cfc6" d="M679.937 241.203l25.196-7.448-3.003-72.673-24.556 94.285" />
      <path fill="#008d7b" d="M628.196 362.136l18.243-38.4-9.145 10.603 17.857 12.28" />
      <path fill="#a4a5a6" d="M972.974 24.862L912.28 2.29l57.266 51.963 18.644-18.93" />
      <path fill="#4c4c4b" d="M789.29 63.633l1.18 4.54L778.522 56.1l28.12-1.02" />
      <path fill="#dcd521" d="M497.114 439.84l-5.838-21.405-19.135-4.166.03 19.654" />
      <path fill="#6e8aa8" d="M333.328 221.45l-3.937-90.476 4.81 1.582 9.225 14.8" />
      <path fill="#ffeaa9" d="M659.458 332.02l17.99 11.222.743 6.893-20.45-12.67" />
      <path fill="#000041" d="M877.39 564.235l-23.907 148.067 54.258-150.216-69.022-76.936" />
      <path fill="#bfbfc0" d="M726.186-31l10.63 51.004-8.54-24.542-58.906 44.806" />
      <path fill="#9e723e" d="M866.863 293.64l-5.838 48.563 27.89-55.316 24.294-3.726" />
      <path fill="#a28d6b" d="M325.663 34.83l9.567-14.72 21.636 17.95-9.72 18.776" />
      <path fill="#2f2f2f" d="M668.582-31l-7.794 41.466L727.938-31l-173.22 16.12" />
      <path fill="#795f2c" d="M791.096 280.29l2.912-3.598-.634 36.11-8.32-14.16" />
      <path fill="#5cb8a6" d="M687.62 448.006l-18.192-14.243-39.335-38.55 8.024-16.004" />
    </g>
  </g>
</svg>