<svg version="1.1" viewBox="0 0 1024 682" width="1024" height="682" xmlns="http://www.w3.org/2000/svg">
  <path fill="#908c83" d="M0 0h1024v682H0z" />
  <g fill-opacity=".5">
    <path d="M66.4 318.6L207 478l132.5 235L-31 682" />
    <path fill="#fff" d="M778.4 685.5l-440 14.8-126.6-226L428.6 250" />
    <path d="M-31 276.3l295-171.7L338.4 1.8-23.3-3.4" />
    <path fill="#00002c" d="M893.2 704l36.2-375.6-122 180L826.8 713" />
    <path fill="#dbdce1" d="M908.8 375.8l83 337.2 63.2-606.6L702.4-31" />
    <path d="M-28-30.6L-11.6 247 322.6 51l-9.4-82m-141 451L-31 498v212l151-24" />
    <path fill="#00d6b9" d="M615.5 400L726 340.4l10.7 285.8-61.2 19.2" />
    <path fill="#e5bd39" d="M537.2 538.4L438 549.6l25-359L691.3 146" />
    <path fill="#d85300" d="M745.3 596.8l53 72.3 55.4-386-100 122" />
    <path fill="#d2d1d1" d="M848.2 199L620.8-31H258.4L462 105.2" />
    <path fill="#00004d" d="M872 710l-68.7-44.6L930 256.2l-8.7 265" />
    <path fill="#fff" d="M696.7 683.8l-355.3 6.4-98.6-182L320 369" />
    <path fill="#dbdde2" d="M912.2 567.6L878.5 713l176.5-60.6-59.4-461.8" />
    <path fill="#ff9718" d="M317.7 358l-55.5-12-21.7-62.5 84-271" />
    <path fill="#955cec" d="M377.6 149.3L466 278l-19.2 134-168.2-120" />
    <path fill="#332e00" d="M591 341.6l4-72.6 183.6 35.8-1 32.3" />
    <path fill="#330085" d="M415.2 107l-74 32 29.3 163L388 199" />
    <path fill="#010206" d="M48.6 309.7L61.3 550l251.5 163-10.2-87.3" />
    <path fill="#c3c6cf" d="M116.3 343.2l-86.4-55 89-126.6L237 187" />
    <path fill="#d9e2b7" d="M690.2 454l-292.7 81.5L630.2 635 502.6 310.7" />
    <path d="M279 128.6L-31 170-26 .6l264-10" />
    <path fill="#babcc0" d="M139.8 713l-12-101 4.5-28.3 65.5 102" />
    <path fill="#c5c8d0" d="M32.7 521.5l19.8-105L27.8 262-31 326.7" />
    <path fill="#ffe3a4" d="M719 535.7L769 711l-8-257.8-36.7 49.8" />
    <path fill="#0014d6" d="M837 713l-25-33.6L829.2 477l39.3 85" />
    <path fill="#5b1f00" d="M672 253l-32-19-32 1.5 92.7-85.8" />
    <path fill="#28440e" d="M724.5 271l29 64.6 21-156.8-32.6 10" />
    <path fill="#8d4000" d="M801 548.2l54.8-291.4-63 122.8-61.5 38.3" />
    <path fill="#fff" d="M505.2 681l-194.4 32-5-99.2-90.8-170" />
    <path fill="#e7dabe" d="M835.4 314.6l-23 4.8-64.5-80 73-74" />
    <path d="M-31 532.8V713l155.8-20.2-4.5-154.8" />
    <path fill="#e1c5ac" d="M270.3 69l-10 63.6 122-14.8 11-74.6" />
    <path fill="#1eb8a4" d="M727.5 610.8l-149.3-20.6L677 437l32.3-85.6" />
    <path fill="#945b10" d="M659 151.2l-97.2 50-41.4-17.7 16.2-60.3" />
    <path fill="#00001e" d="M928 458.3l-111.3.5 72 169.7L896 606" />
    <path fill="#d7c3d3" d="M282.3 452.7l174.2-13-134.2-198.3-35 34" />
    <path fill="#d8d116" d="M533.2 289.2l-92 290L482.7 278l91.8-102" />
    <path fill="#dbd5cc" d="M557.8.7L365-3.3 493 71l9.3 213" />
    <path fill="#b1041b" d="M484.2 217.5l4 62-18.3 63.2L453 225" />
    <path fill="#540178" d="M437.4 163.4l34.2-67.6 22.7 80.8-95.4 15.8" />
    <path fill="#4b2400" d="M858.7 241.3l-5.2 30.6-57-31 44-10" />
    <path fill="#909296" d="M786.5 132l-159.7 17.6 42.4-168.8 145 17.6" />
    <path fill="#835a18" d="M914.3 452l26-179.7-86.5 24L913 305" />
    <path fill="#ecdeb2" d="M874.5 211l-21.8 198 17.3 38-48 6" />
    <path fill="#e0ebff" d="M599.5 219.5l17.2-.8 11.7-52-37-1.4" />
    <path fill="#fffff3" d="M706.5 234l17.6-81.6-29 35-16 60.8" />
    <path fill="#31b7a3" d="M656.5 364l-6.7-75-24.3 81 6.8 178.4" />
    <path fill="#ebeae5" d="M688.2 13.5L713.5-31l2 33.5-56.8 186" />
    <path d="M154.7 68.4L-31 72.8v206.4l71.3-36" />
    <path fill="#75777a" d="M286 578.2l21.4 51L271 618l-82.2-133.2" />
    <path fill="#e99720" d="M815.3 584.4l-41 128.6L749 461.2l17.8-21.4" />
    <path fill="#e88010" d="M258.6 134l62.7 3 2.2 97.6-65.2 98" />
    <path fill="#148c71" d="M664 423.8l17.7 45.5 99-143-16-83.2" />
    <path fill="#aaadb0" d="M1055 144.2l-245.8 66.6-26-218 177.3 17" />
    <path fill="#5e422b" d="M407 30l-7.4-3.3.3 55 49-36.5" />
    <path fill="#6f6f6d" d="M-31 276l296-140.6 20.4-29.5L151 138" />
    <path fill="#e8d793" d="M746 374.3l-9 39 81-62.8-99.6-7" />
    <path fill="#c9d7d0" d="M670.4 507l-32.8-9L584 713h49.8" />
    <path fill="#fa6c8f" d="M470.4 423l-3.7-165.5-12-11.7-19.2 238.8" />
    <path fill="#605a56" d="M620.5 223.6L663.8-3.7l24-25-19.3 132.3" />
    <path fill="#eadcc0" d="M893.8 370.5l13.4-.7 10-63.3-48 27.7" />
    <path fill="#904002" d="M739.5 308.3l-45.7 58.2-45.3-54 30.7-33" />
    <path fill="#060b3f" d="M851 396l61 119.2 11-41.8L901.6 370" />
    <path fill="#030202" d="M335 54.8L-31 170 270.2-11.3 312.7-31" />
    <path fill="#59aeea" d="M349.8 297l2-137-13.8-16-12 162" />
    <path fill="#31353e" d="M1055 59.8l-28-73.2-53.4 24-.5 10.7" />
    <path fill="#ebdca6" d="M606.2 277.7l-93.8-88-62.4 40.6 4-47.6" />
    <path fill="#00b39e" d="M678.2 418.4l32.7 244 3-152.4 37-54.8" />
    <path fill="#442b16" d="M590 290l-6.6 30.2 71-25.5-25-33.5" />
    <path fill="#e3e1c4" d="M490.6 413.8l57.7-20L631 511.4l-8-136.2" />
    <path fill="#d0d8c3" d="M645.7 236l-52.6 9-40 51.7 1 25" />
    <path fill="#ff9826" d="M249 292.4l76 32.6 3.3 32.5-66.7-20" />
    <path fill="#dfe57a" d="M429.6 517.6L543.3 334 563 469l-124.2 98" />
    <path fill="#a35dd8" d="M358.3 373.4l-29.6 2-13-27.6 147.6-190" />
    <path fill="#8b5611" d="M589.6 214L479 164.7l112 10-1.7 41.4" />
    <path fill="#573009" d="M716 233l5-69 12 85.8 76.7-88.5" />
    <path fill="#000042" d="M910 382.4l-24.2 286 21.7 44.6-72.8-35.2" />
    <path fill="#74787f" d="M224.4 532.6l-17.2-72.2 94.8-38L99.2 297" />
    <path fill="#d4b38e" d="M820.7 613.5l-89.5 6.3 14 73.2 51 20" />
    <path fill="#b84a00" d="M792.7 388.3l-20 171.8 12 88 33.3-83" />
    <path fill="#fdc1af" d="M414 133.4l50.3 19.6-54.8 19.7-4-45.7" />
    <path fill="#eeebb6" d="M668 275l-46.8 8 88.5 6 4.6-10.7" />
    <path fill="#606163" d="M62 418.4L40.7 268.6l13 270.4-84.7-39" />
    <path fill="#d1d2d2" d="M967.8 686.2l87.2-379.5-127 223.5-37.3 181.6" />
    <path fill="#bc7b46" d="M326 102l18-13.7 9-65.2-77 48" />
    <path fill="#bdbdba" d="M1020 336.2l-82.7 260-19.7-210 74.2-276.8" />
    <path fill="#dddcc1" d="M524.3 519l5-233.4L497.7 458l-67 122.4" />
    <path fill="#e6df01" d="M557.4 441l-15-23-7.5 118 26-75" />
    <path fill="#d5bb89" d="M640.6 309.6l43 81.3-47 5 49.6-46" />
    <path fill="#d2d2cc" d="M570.3 121.2L661-4.6 634 132l-41 19" />
    <path fill="#0f1011" d="M314.2 713L300 605.7 236 640l-35 73" />
    <path fill="#8b5f1f" d="M527 145.5l93.3 11.4-129.6-51L529 96" />
    <path fill="#d6d6e5" d="M721.8 500l-5.3 32.3 31.7 68.7-4.4-133.6" />
    <path fill="#ab9e00" d="M498.5 297.4l57.3 3.6-10.5-58.7-49 18.5" />
    <path d="M128.3 704.5l-159.3 7 107-293 13-56" />
    <path fill="#693200" d="M740 415l157.7 93-39.8-23.2-49-83.3" />
    <path fill="#d0893f" d="M777 394.7l70.8-18-19.6 35-39-158.8" />
    <path fill="#c8cfd7" d="M355 125.8l2-149.3 46.4 13.3-34 144.6" />
    <path fill="#fdfeff" d="M252.2 439.5L428 675l-112.6 38-10.3-80" />
    <path fill="#52260f" d="M855.5 235l-19.2 116.4-44.6-13 39.5-20.5" />
    <path fill="#d5cb8f" d="M483.3 255l107.3-117.6-51.2 24.3 22.3 34.7" />
    <path fill="#ded390" d="M836.6 430l40.2 2.8-75.8 33.6 11.4 31.4" />
    <path fill="#613800" d="M679 224.6l-83-4.3 21.3 17.4 88.3-86" />
    <path fill="#cccdce" d="M742.3 151L799-31l-34 183.2L619.8 51" />
    <path fill="#000995" d="M844.8 633l-35-107.4 35-34 37.2 74.8" />
    <path fill="#cbcac4" d="M829.7 229.2l-73.5 36 29-91L1055 338" />
    <path fill="#595a59" d="M802.8 24.6L726 48.8l5-14.7 39.4-18" />
    <path fill="#9c5d15" d="M874.2 288.3l18.3-3.5-23 73.6-10-33.3" />
    <path fill="#4c1553" d="M387 109.7l34.7 92.2 72.3-40-121 6" />
    <path fill="#348872" d="M790.6 321l-65-50.6-69 5.2 73.3-44" />
    <path fill="#9a8c54" d="M626 380.6l-89-6.3L674.2 276l-48.5 76.6" />
    <path fill="#bdbebf" d="M210.5 269.2l-73-94.6L94 228.3l-41 73.4" />
    <path fill="#029b7e" d="M737 355l-34.6 33.4-57.4-61.2-18 45.2" />
    <path fill="#b79c62" d="M628 369.3l67-61.5-26-7 79.3-19" />
    <path fill="#897a3d" d="M272.7 99l-24.2 27.4 8 147L289 150" />
    <path fill="#7f5c27" d="M570.7 97l-4.4 20L603 241l-63.4-138.4" />
    <path fill="#062518" d="M699.6 290.7L715 337l64.3-44-27.6 41.2" />
    <path fill="#6d1500" d="M465 251l-21-19.5 34.8.6 7.7 58" />
    <path fill="#cccdce" d="M742 90.3l-134 36.3 153.4-52L711 30" />
    <path fill="#8d5210" d="M779.6 185l-2.6 20-22.7 65.8-18-95" />
    <path fill="#dbdbde" d="M443.5 697.6l-24-152.4 232 70L772 711.4" />
    <path fill="#816c51" d="M516.3 78.7L464.7 68 489 54l-.2.8" />
    <path fill="#c3cfcf" d="M826 324.4l11-12.5 5-56-50.6 41" />
    <path fill="#d9d3d4" d="M561.7 95l-114 127 99.8-141.3L636.7 97" />
    <path fill="#bc9a4a" d="M714.2 434.7l25-56.8 18.3 268L780 464" />
    <path fill="#626261" d="M808 56.8l-49-7.5-39.4 24 17-.8" />
    <path fill="#e5d29a" d="M582.6 139.3L692.8 151l-62.2 59.6 33.8-78.8" />
    <path fill="#8c61a1" d="M484.2 143.7L459.5 164 352.8 75.8l61.7-4.8" />
    <path fill="#676766" d="M704.3 140.8l2.4 40.3 44-212-17 135" />
    <path fill="#865a1a" d="M649.8 149l31 98-56.8-79.3-92.2-30.4" />
    <path fill="#7d7f83" d="M630.7 13.6L607 145.3l12-118.6-77-13.3" />
    <path fill="#ffbd57" d="M259.7 290.7l15.2 27.6 53-90.6-44 13.7" />
    <path fill="#585348" d="M691 117.4L723.6-31 701 112l-25.6 119" />
    <path fill="#8b6823" d="M788 289.7l-6.7-4.6 26.3-50-12.6 73" />
    <path fill="#aeafb3" d="M222 470l12.8-14.3-62-32.3L288 616.7" />
    <path fill="#f2f3f5" d="M210.8 458.3l106.5-5.2 96.4 193L226 496" />
    <path d="M609 326.7l-13.5-21.5-.7-2.6 37.6 24" />
    <path fill="#dedccf" d="M685.2 215.7l35 33.5-20.2-83.4-6.6 9.6" />
    <path fill="#ced0d4" d="M595.3-27.8l-59 31.4 130 18.8 104.4 54" />
    <path fill="#000015" d="M921 480.7l-78.2-22-3.3 39.5 70.6 59" />
    <path fill="#00bcae" d="M734.4 625.5l-30.6-4.6-18-147 41.6 82" />
    <path fill="#fce8b0" d="M731 228.3l-1-36.7 45.4-19.4-30.6-12.2" />
    <path fill="#9e9fa1" d="M976.3 668.8L997.6 566l57.4 96.4-95 50.6" />
    <path fill="#cacbcb" d="M-31 505l65-109-12.3-92.5L-31 292" />
    <path fill="#c6c8a8" d="M591 351.5L512 307l11 37.6 62-50.3" />
    <path fill="#cbcbc6" d="M874 282.5l42.6 9.7L939.4 156 955 15.6" />
    <path fill="#c2c2c2" d="M832.6 249.7L866.8-7.6l106.8 41-87.4-2.5" />
    <path fill="#c5c7ca" d="M821-9L652.6 56 356.3-31l337 86.2" />
    <path fill="#63656a" d="M568 40l10.2 43.5-27-9 57.3-32" />
    <path fill="#e4d8b1" d="M310 127.5l-27.2 8.3L272 122l25-54" />
    <path fill="#a78536" d="M508.4 197.2l180 30.4-55.4 76.2 12.5-70.3" />
    <path fill="#97c3b6" d="M643.5 457.4l1-101.7 36.7 16-25.2 109" />
    <path fill="#908f8f" d="M866.6 19.5l-38.5 16-26 120.8 44-25.7" />
    <path fill="#4b4c4d" d="M167.4 590.3l-46 1.4 115.4 80.7-78.2-99" />
    <path fill="#6a481e" d="M912 394l-51.8-54.4 30.3 54L938 285.8" />
    <path fill="#62370a" d="M576 143.6l-51.5-1 18.4 58 6-80.8" />
    <path fill="#3a3a3a" d="M779.7-31l-35.5 53.3-10.7-19.7L781 0" />
    <path fill="#6b84b2" d="M818 648l22.2 38.6-49 26.4L822 559.2" />
    <path fill="#c8c1aa" d="M787 349.3l-7.7-45.6-19-73 48.3 120.6" />
    <path fill="#64666b" d="M724.3 155.2l15-11.5 30.4 6 17.3 11" />
    <path fill="#ccccc7" d="M663 106.3L626 126l-132.4.2L572 113" />
    <path fill="#626264" d="M602.6 24.2L582 35.8l-5-25.5 37 .5" />
    <path fill="#d2dcf6" d="M563.5 172.2l2.8-20.4-.8-4.3-19.8 9" />
    <path d="M-29.2 261.3l211-168L36 79.3 5-31" />
    <path fill="#ae5eb7" d="M429.4 428.5L440 213l-44.6-47.2 62 130.4" />
    <path fill="#c74f19" d="M284.5 145.8l17.5 56.5 26.6-38.3-13.7-44.7" />
    <path fill="#78ab9e" d="M746.5 326l26 37-84.4-7 49-18.8" />
    <path fill="#87b5a9" d="M627 351.2l18.5-55 63.3-85-58.4 102.2" />
    <path fill="#3e4043" d="M687.7 42.4l-49-73.4H728l-73 71.8" />
    <path fill="#1b1c1c" d="M241.7 652.6l-91-248.3L52.4 325l93.4 240" />
    <path fill="#f2e0b2" d="M750.8 414.7l-4-86-8.5 27.4 37.3 12" />
    <path fill="#cccdc4" d="M871.5 372.6l-13.2 20.7-18.2-39 8-34.3" />
    <path fill="#874100" d="M769.6 392.2l57 163-95.2-172.5 5.5 65.5" />
    <path fill="#44552f" d="M378.8 197.2l2 72-4.7-9.4-11-25" />
    <path fill="#0d0000" d="M676.6 216l13-28.5-9.3-20-12.5 57" />
    <path fill="#ff7677" d="M302.2 331.3l20.4 41.2 15.3-54.7-20-5.4" />
    <path fill="#8d6a2b" d="M823.3 471l-17.8-20.6 59.8-3.6-41 57.5" />
    <path fill="#d5d1c0" d="M658.5 145.7l99-49.7L640 179.3l-5 37.7" />
    <path fill="#dee0df" d="M374 378.3l73 37.3-51 204.6L273 422" />
    <path fill="#724a11" d="M732 169l-13 7-4.6 14.2 11.8 53.4" />
    <path fill="#cdcdce" d="M863.5 95.3l-8 19-105.8 42.2 4.8-14.4" />
    <path fill="#b9b7dd" d="M421.5 345.3l-26.2 41-110.5-112 133.4 47" />
    <path fill="#d4d4e0" d="M598.4 156.2l-6.5 50.5 24 12.2 11-37" />
    <path fill="#d6cf93" d="M528 170.2l3.4-6.6-50.7 91.6 59-25.5" />
    <path fill="#c24e06" d="M746.2 458.3l97.5-78-43.3-70.7 6.4 54.2" />
    <path fill="#cdcab9" d="M642 217l-2.8 51.4-23-5.4 16-27" />
    <path fill="#3a3a3b" d="M734 115.3l20 3-11.7 14.8-3.4-1" />
    <path fill="#909399" d="M251 294L79 343.6l80.7-71.4L233.3 133" />
    <path fill="#c8c8c8" d="M655 98.2L800.8 31l-47.3 77.7L785.3 22" />
    <path fill="#595958" d="M812.6 16.8L737 38.2l39.8-24 21.6 30" />
    <path fill="#969596" d="M1032.4 238.6v-156L862 65.2l151 56.5" />
    <path fill="#009a82" d="M684.7 365.8l-15.4 65 44-8 10.4-57.3" />
    <path fill="#ced0d4" d="M595 67.5L717 104 583.5 51l-76.2 14" />
    <path fill="#e6d9ad" d="M590.8 227.8l-6.3-21.8-34.8 54.5-1 15.5" />
    <path fill="#b48e66" d="M415 53l33-11-8.7 80-23 13" />
    <path fill="#115e4e" d="M747 235.6l8.7 56-33.3 47.2 62.6-18" />
    <path fill="#76787c" d="M107.8 379l61-81 110 64-14.3 78.4" />
    <path fill="#95720b" d="M538.6 227.4l16.5 70-30-17.2 90-145" />
    <path fill="#7250ca" d="M352 287.8l-8.6-172 24 135.7L426 287" />
    <path fill="#dada39" d="M504.2 446.2L479 464l-7-89.2 31-142.2" />
    <path fill="#d2d2b4" d="M631.7 486.4l-26-128.2-52 27.6 24 226.2" />
    <path fill="#a2635e" d="M499.2 166.2l-10.5 85.2-9.7-35.8 4.3-108" />
    <path fill="#846821" d="M629.3 290.6l9.7 18.8-14.5 71.3-19.2-16.7" />
    <path fill="#260000" d="M676.3 285.7l-18.6 20.5 30.5-12 5-10.4" />
    <path fill="#cccccd" d="M946-31L820.7 22l-68 59-105.2 46.8" />
    <path fill="#655245" d="M300 70.2l33.8-7.6-8.5-85L311 2" />
    <path fill="#68c8bb" d="M744.4 614.3l-99.8-1.5L655 548l44.2 112" />
    <path fill="#dba858" d="M773.4 611.5l-20-188.3-14 238.8 53.5-49.8" />
    <path fill="#e96f00" d="M771 534.4l-4.5 57.3 30.3 48.7 13-80.2" />
    <path fill="#8b8a8a" d="M283.4 629.4L372.2 528 277 636.6l-51.7-112" />
    <path fill="#cdcccf" d="M427.6 92.4L501 26.7 450.4-31l10 149.8" />
    <path fill="#3a3115" d="M841.4 263.5L849 293l.6-45.5-46-4.6" />
    <path fill="#2c1100" d="M919.8 287l-.6 60.8 10.4-39.2 2.5-6" />
    <path fill="#393a3c" d="M90.4 194.2L-3 258.4 121 146l82-26.2" />
    <path fill="#e2d5a0" d="M672.8 274.6l64.6 33.5-23-22 4-9" />
    <path fill="#cbcbcb" d="M782.2 100.7l-77 9.4 70.4 10L915 48" />
    <path fill="#636363" d="M778.3 109.3l19-22-70.3 2 45-7" />
    <path fill="#7e6ed7" d="M382.7 169.7l-1.6 73.6L401 345l21-117.4" />
    <path fill="#301e13" d="M835.7 456.8L819 548.6l-13.8-56.3 54-.8" />
    <path fill="#0a0a0a" d="M132.7 59.6l139.7 65.2-7.4-39L324.8-31" />
    <path fill="#e0d9bf" d="M718 151.6l57.8 28-41.8-9-48.8 14" />
    <path fill="#19b9a8" d="M667.5 475.2l59.2 68.6-93.4-80-8.3 73" />
    <path fill="#0025b4" d="M822.7 508.7l34-5-4.7 6.2-20.5 195" />
    <path fill="#29301c" d="M716.3 228.5l19.8-.7 4-28 23 63" />
    <path fill="#320400" d="M697.8 313.8l3 19.3-13.6 15-4-9" />
    <path fill="#b3971a" d="M561.3 257.3l59.6-21.5 4-30.3-63 78" />
    <path fill="#201300" d="M605.4 321.8l-18-24.6 61.2-32.3-46.6 8" />
    <path fill="#2d2f31" d="M666.3 85l-19 16-9.6-13.2h10.6" />
    <path fill="#e5cb95" d="M837.3 452l17.4 5.2 10.8-3.6L830 398" />
    <path fill="#454649" d="M718.6 20.4l-8 27.3-5-28.7.3-3" />
    <path fill="#6e3000" d="M823.3 415.4l-69.6-30L812 450l16.6-31.2" />
    <path fill="#8a858b" d="M904 626l-13.6 58.2-1-46.6 34-113" />
    <path fill="#ddd75a" d="M447 496.5L427 536l17.8 24.7 8.8-63.7" />
    <path fill="#515153" d="M835.5 21.6L849 3 717.4-11.4l112.2 9.2" />
    <path fill="#fbc173" d="M667.5 352l-15-29.5 14 11.8 17 9" />
    <path fill="#deda8c" d="M518.8 553l-1-19.3 24.5-81.6 5 155" />
    <path fill="#a97229" d="M724 349.6l-54 8.6-30-33 33.6 25" />
    <path fill="#000047" d="M844.5 681l41.2 8-2-141.8-19 23.7" />
    <path fill="#c4bcae" d="M909 371.2l-31.7-10.4-3-54.4 45.3 9.2" />
    <path fill="#e2c0b0" d="M484.5 184.2L471.7 225l-26-3.4 5.7-41.4" />
    <path fill="#313338" d="M648.8 120.5l-17-3.4-1 8 24.6 11" />
    <path fill="#afa573" d="M582.3 300.6l49.5 108L534.6 285l86.6 54.8" />
    <path fill="#a05b0f" d="M578.7 139.2l16 19.4L567 242l-2.4-68" />
    <path fill="#5a5a5c" d="M722.4 121l11-17.7-48.6-27.8 24 7.5" />
    <path fill="#3b3c3f" d="M692.7 49.7l4 .7L707 64.8l14-14.4" />
    <path fill="#ceb27b" d="M701.6 299.5l4 23.6-26.3-35-36.3-16" />
    <path fill="#a88b67" d="M939 295.3l-24.6 84.4 7.5 97.5 18-170.4" />
    <path d="M2 713l115-.8 8.8-134.2L-31 536.3" />
    <path fill="#eec455" d="M623.4 139l-39.2 15.7-20-31 14.3 6.5" />
    <path fill="#3b3b3b" d="M49 548.2L-7 532l37.4-49.3 31.3-19" />
    <path fill="#efd1a4" d="M443.7 138l-27.7-5.6-10.4 33.4 14 5" />
    <path fill="#cdced2" d="M604.3 40.2l-157.2-8 177-5 65 36.6" />
    <path fill="#683194" d="M478.3 96.7l-42 88.6-4.5 26.2 45.7-49" />
    <path fill="#542104" d="M811 336.3l30.5 1.7.4-18h-35" />
    <path fill="#c8c8c7" d="M978 227.7l-58.6 163.8 16 73.4L977 275" />
    <path fill="#f7f4eb" d="M378.5 105l.8 15-25 4-.4-20" />
    <path fill="#717272" d="M770.8 144.7l-5.4-27 24-1.2 9.4-12.7" />
    <path fill="#d0b592" d="M761 696.4l60.2-123-6.7 58.7-74-7" />
    <path fill="#f4d479" d="M795 246.5l29-13 27 7.2-36.4-25.6" />
    <path fill="#7db3ab" d="M677.4 247.7l76.5 13-9-1.4-26-28.6" />
    <path fill="#c8cabb" d="M577 389.3l86.2 77.8 14-39-88 21" />
    <path fill="#3e1374" d="M402 163.5l-3.7-56.2-32 39L373 188" />
    <path fill="#fe9c1e" d="M248.3 323.6l42.7 30-13.2-56.7 40.6-154" />
    <path fill="#51ae99" d="M736 328l-21 157-77.2-12 73.8-32.3" />
    <path fill="#8592c3" d="M408.3 77.4l-14.5-20.6-33 26 26 43.3" />
    <path fill="#d2a797" d="M316.5 243.7L263.7 316l75-71.2-18.8-72" />
    <path fill="#959597" d="M232.6 156l-73.3.7-47.7 32.7L271 206" />
    <path fill="#168370" d="M695 252l20.5.4-15 11-43.8 20.2" />
    <path fill="#dbd799" d="M540.6 312l-48 232.2L515 304.6l21-3" />
    <path fill="#74767b" d="M960.7 64.4l54-1 40.3 73.4-44.3-129" />
    <path fill="#cacacb" d="M840.3 201.6l88-50.8-86 2.5L915 223" />
    <path fill="#cdc347" d="M521.6 190.3l53.4 43.2-72.2 17 60.2-65" />
    <path fill="#75767a" d="M603 69.3l13.4 23.4 8-18.5-83.3 3.4" />
    <path fill="#706771" d="M349.6 119.8l.7-19.6-28.5 52.8 37.8-1.2" />
    <path fill="#cacacc" d="M807 47.4l-34 133 11.3 7 39.2-141.6" />
    <path fill="#757575" d="M859.6 53.3l9.6 5-44 21.4-18.4-3" />
    <path fill="#503419" d="M921 289.3l-47 2.5 57.4 11.7L905 441.7" />
    <path fill="#bab9bb" d="M935.3 173.3l-9-103.3L895 55.4l81.5-29.8" />
    <path fill="#b9c0bd" d="M297.6 351.4l52 29.5-68.6 65-7-60" />
    <path fill="#00ae97" d="M735.4 446.4l-47 58-42-15.7 101-21.6" />
    <path fill="#7f572f" d="M503.8 116.6l15-3.8 8.8-9.8-35.6 5.4" />
    <path fill="#6b6d71" d="M793 163.3l-3.8 29.4-31.2 1 91-38.6" />
    <path fill="#bfbfbf" d="M157 207.4L54.8 268l28 60.2 22.2 8" />
    <path fill="#d7cfc7" d="M529.4 121L513 175l-22.7-26.5 3-27" />
    <path fill="#060005" d="M610 151.6l22.3 1.3-25.5-8-6.2 13" />
    <path fill="#3e4c7f" d="M850 419.2l13.5-28.4 23.2-17.6 12.2 37.2" />
    <path fill="#d3d3d2" d="M735.5 35l-25-66 47 81-9.2-32" />
    <path fill="#cbcac5" d="M661.4 138.3L700.2-31l-21 204-39.8-36.8" />
    <path fill="#827665" d="M691 148.8l77-43.3-71 33.3-123 19.7" />
    <path fill="#cbcac6" d="M761 244.3l19.6 51.7 55-166.7-50.2 72.3" />
    <path fill="#2fa58f" d="M654 294l-28 89.2 83-25.4-82.3-1" />
    <path fill="#9a9a9a" d="M182.4 713l-41.6-41.8-3.2-63 10-12" />
    <path fill="#454648" d="M264.3 579.2L159.7 415.7l-51.5-30L213 513.5" />
    <path fill="#6c727b" d="M577 100.6l-45 13 92-9.8-15.6 11" />
    <path fill="#c8b88e" d="M260.4 93.6L276 71l21.3-2 9 33" />
    <path fill="#717274" d="M823.8 202.6l-13-9.3 27.7-6-12.3 18.8" />
    <path fill="#828384" d="M-31 539.7l90.4-96-23.8-188.4L39.3 428" />
    <path fill="#6677c4" d="M361 170l-24.6-34-6 5v71" />
    <path fill="#fa7b0c" d="M299 243h15.5l2.3-84.6-29.8 17.2" />
    <path fill="#6e430d" d="M732.8 183.8l-17.6 38.7 2-40 24.4-10" />
    <path fill="#0c0c0c" d="M134.8 593.7l-21.5-160.2-53.8-115.2 7.3 147.3" />
    <path fill="#ea7875" d="M462.4 306l-17 194.8 33.2-182.4-17.4-73.5" />
    <path fill="#30917f" d="M764.3 360.2l6-5.5 1-30.4-23.8 31" />
    <path fill="#dcdbda" d="M718 58l-1.4 2.8-21 97 26.2-77.5" />
    <path fill="#e9e1bf" d="M498.5 260.3l18.6-38-36 17.7 16 12.4" />
    <path fill="#484847" d="M805.6 52.2l-3 .6-11.5 20L781 57" />
    <path fill="#1a1b1b" d="M302.7 643.6l-4-35.3L220.2 713l-5.6-121.2" />
    <path fill="#565658" d="M611.5 52.5l18.7-12.2-1-2.2 1.2 18" />
    <path fill="#494c4e" d="M666.3 81L651 68l-11.5-9.5H667" />
    <path fill="#0c0a0e" d="M625.6 298l-17 9.3 13.3-17 30 4.6" />
    <path fill="#e0d62a" d="M551.2 381.7l-9.5 140 18.7-63-30.3-32.5" />
    <path fill="#552a0a" d="M774.2 179l-26 14.2-12 24.2 30.8-.2" />
    <path fill="#63666b" d="M114.3 172L49 249.4-31 281l71.8-46" />
    <path fill="#664c35" d="M406.6 34.4L404.4 45 403 78l26.3-33" />
    <path fill="#715632" d="M308.6 138.6L224 119.2l46.8-17.3 13.8 59" />
    <path fill="#d2d2d2" d="M747 80.4l-7.3-29.8 24.8 38 75.7-29" />
    <path fill="#d6d7d0" d="M607 90.7l-118.8 15.5L563.6-31l-34 114.4" />
    <path fill="#ccc206" d="M514.2 310l-28-14.5 16.4-44.5 46.7-4.8" />
    <path fill="#d5c585" d="M496.5 199L615 336.4l29-10-34.8 2.3" />
    <path fill="#6f6f6f" d="M841 86.2l-22.4 36.6L813 104l48.6-8.3" />
    <path fill="#777974" d="M246 312l16-105-9.3-6.2-25 19.5" />
    <path fill="#a64900" d="M777 394.2L790.7 573l19.6-6.5 6.8-47" />
    <path fill="#d2d1d1" d="M741.7 21l80-19 6 23.3-58.5-20" />
    <path fill="#bcc18d" d="M821 490.3l-20.3-8.5 6-23.4 16.8 14" />
    <path d="M-31 2.8l152.8-4.6L14.3 47.6 50 241.8" />
    <path fill="#663f16" d="M446.5 173.3l-30-5.7-5.4 28.8 8-5" />
    <path fill="#b87f29" d="M507 223.4l-64-4 13.2 34.6-3.8-20.6" />
    <path fill="#929394" d="M204.6 433.4l43.8 112-93.6-133.6-75.5-107.6" />
    <path fill="#747576" d="M992-31L819.2 40.6 827 50l124.5-81" />
    <path fill="#180000" d="M722.7 309.8l-2.7 16-28-36.6 19.8 15" />
    <path fill="#d2d3d1" d="M808.8 260l32.5 6-19 49-24.2-19.3" />
    <path fill="#8f5825" d="M571 131l-87.6 53 45.3-12.5 31-46.5" />
    <path fill="#6f7175" d="M180.6 450.4l-41-49.8L30.3 293l113.3 87.2" />
    <path fill="#7b5d19" d="M575.4 264.5L572 260l-27.6-18.5 24 29.4" />
    <path fill="#ce9551" d="M775 394.3l-2.6-68.2 39 17 1 36" />
    <path fill="#8244a4" d="M368.4 134l27.7-9.3L421 85l-22 3.3" />
    <path fill="#63471b" d="M684 175.4l4-18.2-9.2-.3h38.6" />
    <path fill="#44301d" d="M639 168.5l-39-14.3 10 15.3 25-11" />
    <path fill="#080807" d="M298 712.6l-13.4-90 5.2-28.4 25 118.8" />
    <path fill="#2a110a" d="M594.4 313l37.8 12.7 11-28.7-22.4 33" />
    <path fill="#595a5b" d="M126.5 568l47.2 94 43.7 51h8" />
    <path fill="#5a7f62" d="M735.4 293.5L703.6 376l61.8-124.4-81-.5" />
    <path fill="#b22b1f" d="M495.8 253l-18.4-6.8-2.6-24.4-4 100.5" />
    <path fill="#fffcbe" d="M549 268l11 5.5 3.2-1.6-1.7-34" />
    <path fill="#9dc3c1" d="M744.3 334.5L725.7 373l35.8-8-15.7-35" />
    <path fill="#c3c3a2" d="M653 296l29-19.3-13.8 8.3-28-27.2" />
    <path fill="#e3ddc1" d="M651.4 161l107-29.8-93.2 36 17-60" />
    <path fill="#e5da00" d="M538.2 462.6l19.8-37.2.5 24-.5 29.8" />
    <path fill="#673f00" d="M747.5 370.3l-16 38.3L740 369l9.3 9.7" />
    <path fill="#d8d7c6" d="M515.3 588L572 439l17 189-64-24.2" />
    <path fill="#b8b9bc" d="M1025.3 200l-108.7 55 30.7 70 60.7 38.4" />
    <path fill="#d7d8dc" d="M652.4 117.6L629 84l16-14.2-47 29" />
    <path fill="#4e4f51" d="M671.3 51.5l9-7.2-7-19.8-26.4 6.2" />
    <path fill="#dedac1" d="M855.4 287l13.2 13-.7-45.5 56 23.5" />
    <path fill="#937b26" d="M540 280l6.8 53 11.4-41.5-14-48.4" />
  </g>
</svg>