<svg version="1.1" viewBox="0 0 1024 682" width="1024" height="682" xmlns="http://www.w3.org/2000/svg">
  <g fill-opacity=".5">
    <path fill="#3b3b3c" d="M682 14l-36-45 22 25-8 16" />
    <path fill="#5d5d5d" d="M772 95l-2-3 18-8 9 6" />
    <path fill="#1a1a1a" d="M-31 534l79 15 14-96 5 74" />
    <path fill="#3a3b3b" d="M657 28l3-2h13l-16 15" />
    <path fill="#b0b1b1" d="M45 412L24 286l26-4-59 1" />
    <path fill="#585857" d="M127 588l33 40 15-33 12 22" />
    <path fill="#e671af" d="M337 321l-11-10-4 50 12 4" />
    <path fill="#00ae98" d="M671 419l4 13 44 23-33-49" />
    <path fill="#e8e1bd" d="M641 174l8 6-16 20 10 10" />
    <path fill="#c0c1c0" d="M809 215l-37-7 33-37 21-22" />
    <path fill="#b89838" d="M561 209l-35-24 26 32 16-57" />
    <path fill="#864d10" d="M564 217l6-39 23 44-11-41" />
    <path fill="#dcdcdf" d="M528 557l-22 64-40-29 13-62" />
    <path fill="#634170" d="M479 105l6 32-22-15 2-12" />
    <path fill="#7f48a1" d="M440 122l15 37 25-17-11-27" />
    <path fill="#d1c9b5" d="M642 276l17 18v-13l-5-4" />
    <path fill="#fafaf9" d="M427 713L285 468l-55 10 44 82" />
    <path fill="#4e9177" d="M773 348l2-6 7-31-29 50" />
    <path fill="#5f5f5f" d="M564 76l21-9-18 4-13 2" />
    <path fill="#623d0e" d="M690 158h14l-31 34 5-22" />
    <path fill="#6f6f6e" d="M180 368l3 36-59-63 15-10" />
    <path fill="#97733a" d="M262 114l-9 26 37 21 11-10" />
    <path fill="#d8d664" d="M511 308l10 7-34 96 20 33" />
    <path fill="#3c3c3c" d="M-31 260l87-28 19-45-23 32" />
    <path fill="#c3bfad" d="M670 251l-34-7 3-23 11 30" />
    <path fill="#bebfc0" d="M530 87l25-96 13-22-32 169" />
    <path fill="#a0a1a1" d="M261 179L87 217l17-16 78-33" />
    <path fill="#c2c2c2" d="M752 127l14-14-3-60 19 59" />
    <path fill="#2ea290" d="M636 377l-4 95-4-113 27 7" />
    <path fill="#d9d9d9" d="M747 34l8 13 39-7-2 12" />
    <path fill="#d1ccc6" d="M733 129l-12 40-32 80-4-45" />
    <path fill="#c5c5c5" d="M845 34l-22 35-9-12 42-5" />
    <path fill="#ab67e2" d="M359 355l-16-7-9 14 7 15" />
    <path fill="#dcc37b" d="M542 118l-2 12 25-9 31 19" />
    <path fill="#311a13" d="M417 176v1l2 9 15-7" />
    <path fill="#545454" d="M591 41l-20 1-4-1 7 7" />
    <path fill="#ddd" d="M478 618l91 95 115-68-54-41" />
    <path fill="#d3d3d2" d="M273 454l94-50-65-36 1 25" />
    <path fill="#424242" d="M661 116l1-17-16 6 2-14" />
    <path fill="#886f84" d="M364 168l-47-36 12 60 6-61" />
    <path fill="#715236" d="M633 193l-3 3-1-23 15 18" />
    <path fill="#be914d" d="M681 242l-20-22 5 32 21-35" />
    <path fill="#5d5c5b" d="M704 48l5 11-24 99 18-78" />
    <path fill="#c8c8c8" d="M908 292l-13-61 19-20 3 73" />
    <path fill="#e0dfde" d="M365 555l87-87-26 81 19 49" />
    <path fill="#a18c38" d="M672 197l-13 27-14 11 17 4" />
    <path fill="#53237e" d="M354 132l13 44 37-58-45 24" />
    <path fill="#79b2a8" d="M625 451l4-24 13 3 11 41" />
    <path fill="#ca8915" d="M626 150l-6-10-42 20 32-19" />
    <path fill="#494e52" d="M566 113l-10-8-12 3v8" />
    <path fill="#87694d" d="M523 121l-3-18-11 2-10 8" />
    <path fill="#f2f2f2" d="M578-2v14l7-4 10-35" />
    <path fill="#98999b" d="M923 514l3-136 6 119-11 51" />
    <path fill="#d4d5d5" d="M871 218l2-30 28 13-28 8" />
    <path fill="#af6ace" d="M443 286l-18 64 11 54 10-34" />
    <path fill="#de625c" d="M472 334l-3 27-7-21 9-94" />
    <path fill="#17453c" d="M718 229l33 25-6-19h-24" />
    <path fill="#7da483" d="M736 299l-11-1 9-22 4 4" />
    <path fill="#fff2b6" d="M747 391l7 13h4l1-10" />
    <path fill="#56320b" d="M800 443l1-11 26-17-9 30" />
    <path fill="#3e3e3d" d="M804 25l-15 5 12 5-2-8" />
    <path fill="#e0839d" d="M453 426l12-149-6-27-12 92" />
    <path fill="#5b5b5c" d="M722 114L746 3l-25 123-3-11" />
    <path fill="#744b95" d="M425 90l-82 72 71-76-9-4" />
    <path fill="#d99a47" d="M746 594l25-14 26 97-50-104" />
    <path fill="#817770" d="M489 66l25 6-25 10-1-9" />
    <path fill="#484848" d="M683 0l-5 43-16-5 12 8" />
    <path fill="#0d4b38" d="M772 309l-45 33 24-35-23 11" />
    <path fill="#a4a3a3" d="M815 79l35 39-3-56 31 62" />
    <path fill="#dadad9" d="M783-29l17-2-9 52 10-1" />
    <path fill="#8e8780" d="M682 176l144 15-1 26-13-27" />
    <path fill="#9f8004" d="M546 170l-1 8 4 11 15-6" />
    <path fill="#c6bd89" d="M547 304l67-58 11 9-66 56" />
    <path fill="#d9dcdc" d="M508 91l31 3-13 32 33-35" />
    <path fill="#0c090d" d="M598 310l24 18h-10l-21-24" />
    <path fill="#d6d19c" d="M512 383l21 35-11-114 24 42" />
    <path fill="#cb9bcd" d="M359 327l-24 18-4-32 28-3" />
    <path fill="#c0b494" d="M763 234l23-46-22 73 11 23" />
    <path fill="#a3a186" d="M785 265l-6 81 14-101 17-12" />
    <path fill="#8d7559" d="M451 47l-49-15 3 3 44 24" />
    <path fill="#694600" d="M576 257l-2 16-6-7 3-7" />
    <path fill="#cecece" d="M915 103l-6-21-73 35 40-32" />
    <path fill="#000892" d="M864 562l-10 33-14-38 2-68" />
    <path fill="#dfdfdf" d="M759-31l-3 53 17-12-13-3" />
    <path fill="#8d8e90" d="M240 244l12 93-36 10-41-74" />
    <path fill="#b16a4b" d="M493 231l-10 23-6-17 12-59" />
    <path fill="#c8c8c8" d="M708 65l39-10-2 6-6 4" />
    <path fill="#8d8c8c" d="M242 450l26-15 14-56-69 75" />
    <path fill="#967d06" d="M549 312l-6 1 1 15 12-22" />
    <path fill="#7b8788" d="M843 267l-5-14 3 42-14 31" />
    <path fill="#ac906f" d="M629 157l9-27 6 50-2-18" />
    <path fill="#dad8c2" d="M736 357l28 6 19 1-24 16" />
    <path fill="#d7d6d7" d="M820 150l4-10 38 31 6-11" />
    <path fill="#484942" d="M376 210l-2 6-11 27 16 8" />
    <path fill="#d5d8d5" d="M722 168l35-1-46-17 12-6" />
    <path fill="#c0abae" d="M335 238l-37 35-19 34 17-3" />
    <path fill="#a47530" d="M850 238l1 61 6-45-40-24" />
    <path fill="#a29e8e" d="M510 195l-27 1 39-4 6 22" />
    <path fill="#919092" d="M608 123l-8-16-1-3 25-2" />
    <path fill="#cbc234" d="M546 215l7 28-47 6-9 39" />
    <path fill="#6225b1" d="M360 169l17 9-5 44-8 17" />
    <path d="M99 631l-115 13 18-90 88 31" />
    <path fill="#d1c924" d="M509 313l-28 15 32 29-21-98" />
    <path fill="#c19f5a" d="M765 549l-18-98 12-23-15 7" />
    <path fill="#7b5017" d="M586 305l16 29-13-11 3-20" />
    <path fill="#3a3a3b" d="M726 26l-3-10-11 12-1-8" />
    <path fill="#ccc" d="M727 48l-13 34 18 16-20-4" />
    <path fill="#e8e4af" d="M553 258l27 26-34-23 2-4" />
    <path fill="#ac8431" d="M561 290l-10 3-12-12 30-10" />
    <path fill="#6e6e6f" d="M633 10l-27-41 70 43-38-22" />
    <path fill="#b1b1b1" d="M999 537l3 57-45 119 98-146" />
    <path fill="#963e06" d="M819 398l-79 14 54 13 28-12" />
    <path fill="#af9663" d="M635 332l-1-14-1-14 10 18" />
    <path fill="#c4c4c4" d="M917 679l22-254-19-16 63-162" />
    <path fill="#96949f" d="M869 388l-6-3 20 5-18-35" />
    <path fill="#b0b0b0" d="M751 5l-8 22 14 6-3 11" />
    <path fill="#298677" d="M699 247l-30 24-4 5 47-20" />
    <path fill="#cccdd1" d="M616 111l25 5 12-12 6 6" />
    <path fill="#bf8e43" d="M694 323l1-9-35 13 9-3" />
    <path fill="#0021ac" d="M825 494l11 30 17 70-22 49" />
    <path fill="#de9b5e" d="M481 177v26l-29 28 30-12" />
    <path fill="#d2d2d3" d="M565 45l15-11-97-41 53-24" />
    <path fill="#5e5e5f" d="M146 413l-61-70 18 11 80 95" />
    <path fill="#b5b5b5" d="M1010 347l-39-202 1-40 26-7" />
    <path fill="#957331" d="M605 308l11-25-4 2-10 10" />
    <path fill="#555" d="M244 561l-67-93 40 34 33 47" />
    <path fill="#6e6e6e" d="M835 144l9-23-6 4-7-3" />
    <path fill="#7952c6" d="M381 212l4-30 33 27-38 21" />
    <path fill="#e3e1c9" d="M898 262l6 18-20 4-14-19" />
    <path fill="#c1c1c1" d="M59 303l15 3 33-21 37-82" />
    <path fill="#4b3b14" d="M716 203l14 26 19 15-29-16" />
    <path fill="#977733" d="M272 198l-10 1-10 69 13-34" />
    <path fill="#d3d2d3" d="M637 76l-93-16 58 2 2-10" />
    <path fill="#e1bd79" d="M864 428l-5 22-24 1-9-5" />
    <path fill="#55977c" d="M722 446l39 14-93-64 61 42" />
    <path fill="#c6c6c6" d="M681 48l33 1-32-33 31-6" />
    <path fill="#3d3c29" d="M919 481l-11 92v-1l15-83" />
    <path fill="#01937a" d="M722 412l-40-31-5 38 33 2" />
    <path fill="#d6d7d8" d="M780 139l16 4 6 17-6 4" />
    <path fill="#757576" d="M58 425l1-3-31-130 26 80" />
    <path fill="#b1744b" d="M339 52l-45 11 10 17 27-15" />
    <path fill="#9d9d9d" d="M148 392l98 129 9 16-24-19" />
    <path fill="#807961" d="M817 496l-8-10 15-10 12 12" />
    <path fill="#9d97b9" d="M329 168l-4 127 10-72-1-37" />
    <path fill="#7e7f80" d="M779 154l-8 6 2-25 4 9" />
    <path fill="#e2d6ab" d="M785 218l56 19 4-15-24 12" />
    <path fill="#919292" d="M249 151l-85 27 94 18-11-58" />
    <path fill="#10a594" d="M629 408l9 20 1-21-6-15" />
    <path fill="#d1c8ad" d="M578 269l-14 20h26l-8 36" />
    <path fill="#cecece" d="M652 70l-29-1 25 18 4-2" />
    <path fill="#f0f0f1" d="M308 592l6 121h96L293 605" />
    <path fill="#a3a3a4" d="M862 51L809-2l66 46-10-75" />
    <path fill="#9c9d9d" d="M560 90l13-4 14-43 7 8" />
    <path fill="#c3c2c2" d="M469 201l-22 7 12-23 17 1" />
    <path fill="#96918b" d="M406 29l-18-1 10 30-2 17" />
    <path fill="#6c6d6d" d="M836 91v-3l6 13 17-11" />
    <path fill="#3abfaf" d="M667 466l-63 96 7 8 32-89" />
    <path fill="#d9b97d" d="M712 289l-35-7 49 4-4 21" />
    <path fill="#584116" d="M627 152l-13 21-6-12 29 3" />
    <path fill="#4a4a4a" d="M714 33l-6-8-1 2 2-15" />
    <path fill="#b199ac" d="M404 194l-15-15 43-42-26 26" />
    <path fill="#000404" d="M623 273l-21 21-8 20 7-29" />
    <path fill="#975c48" d="M485 199l3 11 1-23 15 4" />
    <path fill="#e4d700" d="M552 471l7-11-4-38-7 38" />
    <path fill="#6f7071" d="M987 5l68 119-8-85-87-36" />
    <path fill="#363424" d="M881 679l2 34 9-46-41 46" />
    <path fill="#82602f" d="M544 131l19-8-20 36-5-25" />
    <path fill="#9c8f4b" d="M578 344l51-2-21 14 16 10" />
    <path fill="#bbb98f" d="M629 379l-39-7 40 44-34-2" />
    <path fill="#d5d3b8" d="M544 416l2 20 52-46 28 115" />
    <path fill="#070708" d="M211 119L87 65l161-6 18 35" />
    <path fill="#110500" d="M687 193l-11-10 1 36 8-17" />
    <path fill="#474748" d="M621 21l9 9-7-12 13 3" />
    <path fill="#bababa" d="M817 26l-20 8 21 32-26 101" />
    <path fill="#15c3b3" d="M669 562l4 11 20 32-34-30" />
    <path fill="#cac9af" d="M619 389l-29-10 31 37 8-22" />
    <path fill="#d3a772" d="M781 333l27 34-11-31-23 51" />
    <path fill="#f8b45c" d="M279 300l15-27-4-28-20 58" />
    <path d="M2 15l-21-29 197-17L37 30" />
    <path fill="#d0d0ce" d="M586 136l46-32-2 38-64-30" />
    <path fill="#b97600" d="M781 552l23-11-22-28-8 32" />
    <path fill="#80c4ba" d="M720 648l-7-26-22 32-11-21" />
    <path fill="#4c4d4c" d="M706 82l-13-1-3 3 11 10" />
    <path fill="#b7cabc" d="M652 507l4 46-10 15-23 5" />
    <path fill="#b1a979" d="M548 330l18-36 50 97-43-49" />
    <path fill="#b0b0b0" d="M182 257l-48-66 75-1L78 328" />
    <path fill="#322429" d="M897 383l15-18 5 115 5-42" />
    <path fill="#c5c4c5" d="M694 105l30 1-31 5-10-56" />
    <path fill="#bebebe" d="M1007 239l-46-69-10 67 18 246" />
    <path fill="#5d3507" d="M552 180l-19 7-1-27 20 20" />
    <path fill="#767676" d="M868 50l-20 19-5-13 29-6" />
    <path fill="#868686" d="M872 104l9 18-7-7 25-12" />
    <path fill="#cdcbc8" d="M629 176l-34-16 12 47 16-6" />
    <path fill="#c7ab6d" d="M603 327l-25-22 36 31-48-56" />
    <path fill="#bdbdbd" d="M675 24l-7 21 11-31-47 13" />
    <path fill="#140c00" d="M607 295l5-1 23-8-20 19" />
    <path fill="#855c29" d="M874 365l-13-19 2-22 12 31" />
    <path fill="#a09f9e" d="M890 72l12-60 16-32-70 272" />
    <path fill="#cfcfcf" d="M897 141l-11-17-6-5 29 4" />
    <path fill="#727272" d="M280 616l-4 5-21-36 28 53" />
    <path fill="#8c4e0a" d="M572 211l-1-74 11 11-19 58" />
    <path fill="#1a1a1a" d="M110 454l86 93L64 328l-12 21" />
    <path fill="#432609" d="M923 315l-10 65 16-85-12-3" />
    <path fill="#be871d" d="M552 122l37 18-10 12 19 3" />
    <path fill="#cecece" d="M924 57l-4 12-14 1V44" />
    <path fill="#00004a" d="M846 712l57-156-56-33 30 7" />
    <path fill="#1a1a1a" d="M141 9L27 53 15 64l133-6" />
    <path fill="#e2db53" d="M516 494l40-67-20-5 12 43" />
    <path fill="#9b72b5" d="M383 107l8-17 20-3-39 42" />
    <path fill="#a08865" d="M324 29l-5-7 28 42 8-32" />
    <path fill="#abacac" d="M669 46l-73 38 70-36-16 68" />
    <path fill="#cbcca0" d="M583 540l13-52 32 10-27 55" />
    <path fill="#af906b" d="M537 127l-6 24-14 46 9-70" />
    <path fill="#d6d6bd" d="M688 275l28-1-15 13-14-8" />
    <path fill="#968341" d="M639 258l18-11 9 27-31-26" />
    <path fill="#c0c1c2" d="M665 65l39-5-3 18-22-33" />
    <path fill="#d1d2d4" d="M864 246l1-25 30 16-4 2" />
    <path fill="#d18444" d="M652 319l-1-9 14 41-11-10" />
    <path fill="#a88b4f" d="M623 302l4-5v-3l13 22" />
    <path fill="#ad8e3e" d="M730 422l25-14-10-3-17-9" />
    <path fill="#e0d76d" d="M449 484l79-72-57 78-1-83" />
    <path fill="#554d45" d="M914 305l20-11-13-17-2 85" />
    <path fill="#898989" d="M935 210l4-9 13 3-10 9" />
    <path fill="#c9c9ca" d="M675 113l20-15 1-6-26-17" />
    <path fill="#af5c00" d="M700 288l-26-5v8l11-8" />
    <path fill="#c0b9b3" d="M743 656l-44 49 157 8-127-56" />
    <path fill="#e09457" d="M339 82l-23 23-19-29-2-4" />
    <path fill="#784619" d="M643 315l-2-28-7 14 2 7" />
    <path fill="#414141" d="M712 25l8-4-4 13-6 10" />
    <path fill="#d4c9b1" d="M613 187l-6 11 9-45-2 1" />
    <path fill="#9e201b" d="M484 280l8-9-17-20 3 46" />
    <path fill="#b77629" d="M744 191l6-13 5 17-19 11" />
    <path fill="#a89f95" d="M863 321l6-33-13 20v55" />
    <path fill="#dcdbdb" d="M1003 423l9 37-23 14-3-40" />
    <path fill="#cc7f2c" d="M270 250l2-83 17-18 11 11" />
    <path fill="#9f9fa0" d="M542 27l38-14-7 5-32 18" />
    <path fill="#a466d8" d="M375 304l-2 7-24-10 8-24" />
    <path fill="#828282" d="M968 103l-17-15 26 5 19-81" />
    <path fill="#f5c681" d="M404 158l22-11 6 12-9 8" />
    <path fill="#e2e2e2" d="M249 451l-27 18-8 18 132-46" />
    <path fill="#454444" d="M564 74l1 7 10-12-10 1" />
    <path fill="#d0d0d0" d="M853 82l-11 7-7-9 6-8" />
    <path fill="#8e8e8e" d="M883 176l22 3-3-2-8 17" />
    <path fill="#715638" d="M417 57l-1 21-12-32 12-5" />
    <path fill="#bfbfbf" d="M714 46l21-2-12 19 9-50" />
    <path fill="#0b0b0b" d="M82 425l-10-66-11 121 96 118" />
    <path fill="#c9cac7" d="M501 127l93-9-67-1 37-24" />
    <path fill="#adadad" d="M1055 128l-131 44 81-75 11 139" />
    <path fill="#c6c6c6" d="M763 100l46 19-68-8 47-44" />
    <path fill="#4d4d4e" d="M719 54l-13 2 2 33-8-44" />
    <path fill="#d9ba61" d="M490 216l18 10 4-12 62-21" />
    <path fill="#562700" d="M607 335l-3 1 8 5 19-4" />
    <path fill="#6b6b6c" d="M215 132L99 180l153-46-7-9" />
    <path fill="#ffffd6" d="M551 258l9 2-1 10-7 4" />
    <path fill="#52238d" d="M464 184l25-24-27-9-3 22" />
    <path fill="#b3946a" d="M927 346l8-30-11 87-7 2" />
    <path fill="#767676" d="M816 105l20-6-23 19-4-15" />
    <path fill="#67b099" d="M669 427l13 53 8 4-22-5" />
    <path fill="#aeaeaf" d="M804 17l21-48-93 36 178-35" />
    <path fill="#52c7ba" d="M670 598l35 8-10 41-34-49" />
    <path fill="#d8d6a4" d="M540 454l-12-29-86 126 62-77" />
    <path fill="#d3d4d5" d="M536 90l70 12 56 17-65-27" />
    <path fill="#70ae9a" d="M735 475l-23 47-12 20 54-87" />
    <path fill="#9c9c9b" d="M194 418l-24 6 12 18 22 14" />
    <path fill="#51b5a2" d="M672 568l-8-74-6 71 63 2" />
    <path d="M69 170L-31 46v185l82-15" />
    <path fill="#4d3d1b" d="M832 336l20-58 1-25-6 12" />
    <path fill="#391702" d="M662 310l32-2-19 12-14-22" />
    <path fill="#7e7e7e" d="M128 614l24-6 40 95-55-105" />
    <path fill="#656566" d="M746 96l18-24-5 6-10 27" />
    <path fill="#bd642b" d="M278 166l27-34 17 1 2 18" />
    <path fill="#c6c5c3" d="M439 107l45-131-35-1 13 126" />
    <path fill="#b0b0b1" d="M826 121l21 38-26-25-25-37" />
    <path fill="#5e603e" d="M672 251l-30-20 12 19v-3" />
    <path fill="#a4a499" d="M648 313l-4-17 22-8-18 17" />
    <path fill="#d37620" d="M770 387l-15 2 35 8 40-20" />
    <path fill="#84d2c7" d="M655 590l30 23-17-31-75 6" />
    <path fill="#a69964" d="M561 342l30 41-25-18-21-8" />
    <path fill="#be8c20" d="M798 476l7 6 4-20-2-14" />
    <path fill="#888889" d="M875 29l11 14 53-9-15 15" />
    <path fill="#bfb093" d="M457 58l43-6-34 21-3-17" />
    <path fill="#cdcecf" d="M447-6l76 36-90-3 7-58" />
    <path fill="#464b52" d="M561 98l1-1-2 19-11-6" />
    <path fill="#bc693e" d="M822 364l-21-36-3 8 15 32" />
    <path fill="#dadadc" d="M815 182l5-13 13 16-15 4" />
    <path fill="#6e471a" d="M767 220l-11-3-10-9 34-21" />
    <path fill="#a3a4a6" d="M930 22l20 37 3-25 28-65" />
    <path fill="#696969" d="M269 556l20 35 14 64-11-48" />
    <path fill="#3c1e00" d="M737 222l7-19 2-6-2 39" />
    <path fill="#999898" d="M908 140l4 15-19 1-5-14" />
    <path fill="#87611f" d="M611 270l39-3-11 4-44 7" />
    <path fill="#9b9c9c" d="M28 283l-45-7 66-12-12 107" />
    <path fill="#9fa0a1" d="M571 85l-35-30 47 56-20 2" />
    <path fill="#6788b4" d="M810 645l12-68-3 50-2 7" />
    <path fill="#c5c5c5" d="M1055 294l-37 236-2-93-15-78" />
    <path fill="#ca851e" d="M782 507l-9 72 14-92-41 3" />
    <path fill="#ad8338" d="M497 108l29-1-11-11-3 7" />
    <path fill="#0c0d0c" d="M612 310l7-20 18 11-6-11" />
    <path fill="#181818" d="M192 570l-8 41 128 86-72 3" />
    <path fill="#b5a28a" d="M456 63l-33-15-2 29-8 5" />
    <path fill="#5c5d5d" d="M660 67l20-1-19 10 21-45" />
    <path fill="#4d7962" d="M727 337l-9 21 16-48 1 19" />
    <path fill="#833c00" d="M754 412l56 5-14 72-8-55" />
    <path fill="#9e9a9b" d="M332 139l23-80-4-6 5 49" />
    <path fill="#272726" d="M277 618l19-9 2 25-27-36" />
    <path fill="#f4e09d" d="M510 203l6 7-19 10-5-21" />
    <path fill="#979797" d="M173 671l45 42-70-48-9-59" />
    <path fill="#5e5f60" d="M685 112l8 17-4 9v-33" />
    <path fill="#682b0b" d="M816 497l-7 20 3 21 8 11" />
    <path fill="#8f9091" d="M571 16l24-7-32 11-31-42" />
    <path fill="#c5c5c2" d="M854 361l-9 9 3 22 25-15" />
    <path fill="#50504f" d="M794 32l-4-3 11-10 5 11" />
    <path fill="#ce9f64" d="M303 140h-8l27-26-41 21" />
    <path fill="#cbcccd" d="M521 18l200-49L538 8l21 63" />
    <path fill="#434343" d="M664 26l-2 20 14-3-26-7" />
    <path fill="#393a3a" d="M65 412L43 301l16 95-16 146" />
    <path fill="#7338c5" d="M358 257l-3 30 25-5 7-11" />
    <path fill="#d7a796" d="M323 360l-18-14-18-7 40 39" />
    <path fill="#9b660b" d="M669 198l-23 10 3-43 5 23" />
    <path fill="#b29faf" d="M435 155l-8-27-28 12 53 4" />
    <path fill="#494a4a" d="M934 5l34-36 87 44-197-37" />
    <path fill="#e7ead9" d="M560 569l27-20 9 15-8 1" />
    <path fill="#9d8057" d="M698 155l-14 21 12-24-20-19" />
    <path fill="#19b09c" d="M683 560l-8-46-6 63 56-85" />
    <path fill="#9c8441" d="M680 233l-22 41-10 2 30-33" />
    <path fill="#6e6e6e" d="M789 100l-4-43-101-6 108 7" />
    <path fill="#a4815c" d="M716 197l-4-4 12-9-12 31" />
    <path fill="#807102" d="M532 291l2-13 14-25-4 23" />
    <path fill="#cbbf99" d="M816 467l-5 2-6 18 20-7" />
    <path fill="#b2b4b7" d="M498 56l38 35 16-12-50-8" />
    <path fill="#999898" d="M215 283L85 338l132-94-14-82" />
    <path fill="#d7d163" d="M508 369l-7-21h44l-75-6" />
    <path fill="#000565" d="M862 552l-6-57 4 3-22-4" />
    <path fill="#eae7d0" d="M352 107l15-4 2 24-15-4" />
    <path fill="#070400" d="M601 319l-8-34 6 13 7 21" />
    <path fill="#a5a6a9" d="M534 53l5 7 20-10 7-8" />
    <path fill="#e5c696" d="M666 308l16-5 15-9v5" />
    <path fill="#d8d8d7" d="M658 17l-36-1-1-5-3-4" />
    <path fill="#aeb3a0" d="M268 90l27-17-9-6-5 5" />
    <path fill="#738260" d="M689 268l44-14-14 36 27-11" />
    <path fill="#434343" d="M734 42l-1 9-1 7 16-26" />
    <path fill="#c9c9c9" d="M799 82l-17 3-37-18 64 18" />
    <path fill="#dddac4" d="M494 489l-37 56 50-49 40 147" />
    <path fill="#967e49" d="M281 103l-10 2-10-10 13-2" />
    <path fill="#daa971" d="M742 596l30 24 18 29v29" />
    <path fill="#e7c85b" d="M548 272l21 8-8-19 2 8" />
    <path fill="#a46cc1" d="M409 263l25-18 4-40-15 2" />
    <path fill="#bfbfbf" d="M983 74l-35 5 3-11 8-6" />
    <path fill="#eaa881" d="M472 398l-12 56 8-78 4-11" />
    <path fill="#ffdf6d" d="M740 167l12 17h11l-1-5" />
    <path fill="#684115" d="M808 416l28 76 2-34-15 8" />
    <path fill="#11100c" d="M917 489l-10 23 1 57 3-31" />
    <path fill="#6d6864" d="M927 490l-26-160 24 142-16 106" />
    <path fill="#d1a946" d="M668 186l9-14-23-2-1 9" />
    <path fill="#aca274" d="M653 314l-22 11-20 12 21-8" />
    <path fill="#9c9c9c" d="M795 125l19 24-6 25-11-54" />
    <path fill="#bd8945" d="M832 369l-62-16 13-20 2 41" />
    <path fill="#c3b3a0" d="M743 189l-10-4-7 22 3 20" />
    <path fill="#cfd0be" d="M521 588l3-21 43 43 18-33" />
    <path fill="#bca489" d="M496 169l18 1-26-26 5 12" />
    <path fill="#989897" d="M770-8l33 62-24-32-7-15" />
    <path fill="#427863" d="M739 289l11 17 19-32-16-29" />
    <path fill="#33947f" d="M759 332l-8 23 13 2-2-12" />
    <path fill="#888" d="M128 312l156 43-100-63-77 57" />
    <path fill="#6c61bc" d="M357 161l-5-14-9 56 12 17" />
    <path fill="#ded463" d="M513 395l29-26 6 43v-26" />
    <path fill="#929293" d="M874 252l20-8v7l-7 4" />
    <path fill="#855011" d="M625 239l3-2 29-45-25 29" />
    <path fill="#b7ac90" d="M814 322h-6l26-17-12 18" />
    <path fill="#c9c9c8" d="M589 42l69 2-33 1-7-27" />
    <path fill="#1c1c1d" d="M108 151l142-59-55 37-119 37" />
    <path fill="#797979" d="M921 71l-2 11-16-6 2 1" />
    <path fill="#c4a86a" d="M619 158l1-1h-11l15-8" />
    <path fill="#58b29b" d="M698 455l23 18-6-15-51-22" />
    <path fill="#8d7e95" d="M448 191l12-7-13 23 4-43" />
    <path fill="#22284e" d="M886 410l17-1-36 29 7-41" />
    <path fill="#8e8e8f" d="M862 182l-6 1-9-5 29-9" />
    <path fill="#afa7a5" d="M592 575l4 18 14 10-30-15" />
    <path fill="#378c71" d="M682 359l18 8-53-16 72 13" />
    <path fill="#c3b8a5" d="M594 221l-13 5-2 9 1-30" />
    <path fill="#a84f12" d="M839 396l-31-58 25 22 4 14" />
    <path fill="#d0d0d1" d="M573 50l-2 19-36-46v27" />
    <path fill="#393a3a" d="M661 57l-7 2-8 7 9 9" />
    <path fill="#6b7277" d="M321 9l11-9-29-7-57-24" />
    <path fill="#c2985a" d="M913 293l-4 2-4 5-10-15" />
    <path fill="#a5813b" d="M529 151l-7 14 29 47-18-21" />
    <path fill="#d9d4ae" d="M635 261l-38 9 26-10 7-12" />
    <path fill="#ccc" d="M726-31l-1 11-2 31 17 23" />
    <path fill="#d33b4b" d="M474 285l1-39-9 39 11 29" />
    <path fill="#727373" d="M968 13l45 30-4-35-20 31" />
    <path fill="#c8abdc" d="M394 365l55 53-90-63 61-15" />
    <path fill="#b19767" d="M804 233l-7 84 3-83 18 24" />
    <path fill="#563304" d="M635 162l-15-1 5-13-16-4" />
    <path fill="#9da0a4" d="M941 293l-9-54 3 72 4 5" />
    <path fill="#9a5f39" d="M487 176l32 4 5-16 22-3" />
    <path fill="#b9b9b9" d="M905 169l62-58-2-5-37-18" />
    <path fill="#e682bc" d="M453 360l-3 55-14-5 8-40" />
    <path fill="#b0b29a" d="M719 524l69 21-74-22 18-38" />
    <path fill="#d6d1c4" d="M610 216l-16-4v-41l34 21" />
    <path fill="#8d5b19" d="M552 176l37 1 15-34-31 41" />
    <path fill="#f79c17" d="M251 285l11 50 32-5-33-30" />
    <path fill="#d5cfc7" d="M706 170l9 66-29-11 11-53" />
    <path fill="#9c7658" d="M460 243l3 27-20-75 4 49" />
    <path fill="#778b6f" d="M733 380l-8 14-3 22 9-10" />
    <path fill="#ccc7be" d="M895 352l13-45-29 10 3 43" />
    <path fill="#92b4e0" d="M368 341l23 2 12-11 3-19" />
    <path fill="#5c5b5b" d="M710 136l-4 23 12-31-15 2" />
    <path fill="#4f5051" d="M50 318l15-1 6 21-28-19" />
    <path fill="#899765" d="M712 352l-19 3 14-9 22-6" />
    <path fill="#cfcbc3" d="M553 175l11-19-13-2-3 7" />
    <path fill="#cecfd0" d="M705 80l-21-19 13 18 13-6" />
    <path fill="#c8d2d3" d="M556 253l-11 3 8 4 9 1" />
    <path fill="#545454" d="M774 84l6 14 13-11-3 7" />
    <path fill="#d7d7d4" d="M706 654l-117-47 36-16 46 111" />
    <path fill="#ea810d" d="M786 608l-1-1-11-57-4 61" />
    <path fill="#7d7e81" d="M232 211l-13 27 41-9v-32" />
    <path fill="#6a665f" d="M350 118l-15 21 5 4 15 4" />
    <path fill="#515152" d="M199 632l14 81h6l-11-85" />
    <path fill="#33ac96" d="M709 363l23 2-23 37 29-57" />
    <path fill="#aeb4a8" d="M780 285l4 56 4-20-3-64" />
    <path fill="#c3b85d" d="M522 193l7-25 7 40 73 41" />
    <path fill="#8f8f8f" d="M912 124l10-25-22 14 14 9" />
    <path fill="#2d2d2e" d="M180 595l-59-3 6 121 1-132" />
    <path fill="#a4753d" d="M865 300l8 41-5 4 18-59" />
    <path fill="#6f92a9" d="M392 85l-33-1 37-17 7-9" />
    <path fill="#c09f56" d="M767 228l-10-1 7 40-1-17" />
    <path fill="#82bee5" d="M349 270l-7 37-16-20-9 7" />
    <path fill="#545555" d="M633 55l-21-10 7 13 6-10" />
    <path fill="#766440" d="M789 276l-2 24 21 30-8-8" />
    <path fill="#ebeac8" d="M494 227l3 13 3 3 20-13" />
    <path fill="#7b7b7b" d="M832 59l7-23-4 7-17-10" />
    <path fill="#0e0c26" d="M917 431l-11 23-8-76 8 12" />
    <path fill="#c8c3b1" d="M660 154l10-27-14 19 72 9" />
    <path fill="#050504" d="M72 462l-14 85 67 102-9-126" />
    <path fill="#c1c3c3" d="M722 150l-25 98 32-100 2-33" />
    <path fill="#6f7071" d="M160 710l-30-54 2 47 42-20" />
    <path fill="#80807f" d="M207 370l72-5-20 59-53 36" />
    <path fill="#3b1e6b" d="M379 194l-5-40 24 18-10-45" />
    <path fill="#6e4921" d="M934 308l-28 65-13 5 24 2" />
    <path fill="#a6d3c6" d="M637 569l23 20 1 17-39-39" />
    <path fill="#6d4b2c" d="M903 287l-19 12 20-1-25-8" />
    <path fill="#7f8082" d="M591 84h-9l6-10 12-6" />
    <path fill="#37c3b6" d="M722 627l12-48-2 32-43 6" />
    <path fill="#b5b5b7" d="M985 40l-7-10-22-5 29 18" />
    <path fill="#b7b180" d="M564 367l-16-39 2 73 24-55" />
    <path fill="#989898" d="M560 126l34-106 13 13-22-3" />
    <path fill="#07b7a9" d="M635 492l-3-26 6 4 11 20" />
    <path fill="#403b33" d="M328 43l-28 15v1l19-45" />
  </g>
</svg>