<svg version="1.1" viewBox="0 0 1024 682" width="1024" height="682" xmlns="http://www.w3.org/2000/svg">
  <path fill="#908c83" d="M0 0h1024v682H0z" />
  <g fill-opacity=".5">
    <path d="M66 319l141 159 133 235-371-31" />
    <path fill="#fff" d="M778 686l-440 14-126-226 217-224" />
    <path d="M-31 276l295-171L338 2-23-3" />
    <path fill="#00002c" d="M893 704l36-376-122 180 20 205" />
    <path fill="#dbdce1" d="M909 376l83 337 63-607L702-31" />
    <path d="M-28-31l16 278L323 51l-10-82M172 420l-203 78v212l151-24" />
    <path fill="#00d6b9" d="M616 400l110-60 11 286-61 19" />
    <path fill="#e5bd39" d="M537 538l-99 12 25-359 228-45" />
    <path fill="#d85300" d="M745 597l53 72 56-386-100 122" />
    <path fill="#d2d1d1" d="M848 199L621-31H258l204 136" />
    <path fill="#00004d" d="M872 710l-69-45 127-409-9 265" />
    <path fill="#fff" d="M697 684l-356 6-98-182 77-139" />
    <path fill="#dbdde2" d="M912 568l-33 145 176-61-59-461" />
    <path fill="#ff9718" d="M318 358l-56-12-22-62 85-271" />
    <path fill="#955cec" d="M378 149l88 129-19 134-168-120" />
    <path fill="#332e00" d="M591 342l4-73 184 36-1 32" />
    <path fill="#330085" d="M415 107l-74 32 29 163 18-103" />
    <path fill="#010206" d="M49 310l12 240 252 163-10-87" />
    <path fill="#c3c6cf" d="M116 343l-86-55 89-126 118 25" />
    <path fill="#d9e2b7" d="M690 454l-292 82 232 99-127-324" />
    <path d="M279 129l-310 41 5-169L238-9" />
    <path fill="#babcc0" d="M140 713l-12-101 4-28 66 102" />
    <path fill="#c5c8d0" d="M33 522l20-105-25-155-59 65" />
    <path fill="#ffe3a4" d="M719 536l50 175-8-258-37 50" />
    <path fill="#0014d6" d="M837 713l-25-34 17-202 40 85" />
    <path fill="#5b1f00" d="M672 253l-32-19-32 2 93-86" />
    <path fill="#28440e" d="M725 271l29 65 21-157-33 10" />
    <path fill="#8d4000" d="M801 548l55-291-63 123-62 38" />
    <path fill="#fff" d="M505 681l-194 32-5-99-91-170" />
    <path fill="#e7dabe" d="M835 315l-23 4-64-80 73-74" />
    <path d="M-31 533v180l156-20-5-155" />
    <path fill="#e1c5ac" d="M270 69l-10 64 122-15 11-75" />
    <path fill="#1eb8a4" d="M728 611l-150-21 99-153 32-86" />
    <path fill="#945b10" d="M659 151l-97 50-42-18 17-60" />
    <path fill="#00001e" d="M928 458l-111 1 72 170 7-23" />
    <path fill="#d7c3d3" d="M282 453l175-13-135-199-35 34" />
    <path fill="#d8d116" d="M533 289l-92 290 42-301 91-102" />
    <path fill="#dbd5cc" d="M558 1L365-3l128 74 9 213" />
    <path fill="#b1041b" d="M484 218l4 62-18 63-17-118" />
    <path fill="#540178" d="M437 163l35-67 22 81-95 15" />
    <path fill="#4b2400" d="M859 241l-5 31-57-31 44-10" />
    <path fill="#909296" d="M787 132l-160 18 42-169L814-2" />
    <path fill="#835a18" d="M914 452l26-180-86 24 59 9" />
    <path fill="#ecdeb2" d="M875 211l-22 198 17 38-48 6" />
    <path fill="#e0ebff" d="M600 220l17-1 11-52-37-2" />
    <path fill="#fffff3" d="M707 234l17-82-29 35-16 61" />
    <path fill="#31b7a3" d="M657 364l-7-75-25 81 7 178" />
    <path fill="#ebeae5" d="M688 14l26-45 2 34-57 186" />
    <path d="M155 68l-186 5v206l71-36" />
    <path fill="#75777a" d="M286 578l21 51-36-11-82-133" />
    <path fill="#e99720" d="M815 584l-41 129-25-252 18-21" />
    <path fill="#e88010" d="M259 134l62 3 3 98-66 98" />
    <path fill="#148c71" d="M664 424l18 45 99-143-16-83" />
    <path fill="#aaadb0" d="M1055 144l-246 67L783-7l178 17" />
    <path fill="#5e422b" d="M407 30l-7-3v55l49-37" />
    <path fill="#6f6f6d" d="M-31 276l296-141 20-29-134 32" />
    <path fill="#e8d793" d="M746 374l-9 39 81-62-100-7" />
    <path fill="#c9d7d0" d="M670 507l-32-9-54 215h50" />
    <path fill="#fa6c8f" d="M470 423l-3-165-12-12-20 239" />
    <path fill="#605a56" d="M621 224L664-4l24-25-20 133" />
    <path fill="#eadcc0" d="M894 371l13-1 10-63-48 27" />
    <path fill="#904002" d="M740 308l-46 59-46-54 31-33" />
    <path fill="#060b3f" d="M851 396l61 119 11-42-21-103" />
    <path fill="#030202" d="M335 55L-31 170 270-11l43-20" />
    <path fill="#59aeea" d="M350 297l2-137-14-16-12 162" />
    <path fill="#31353e" d="M1055 60l-28-73-53 24-1 10" />
    <path fill="#ebdca6" d="M606 278l-94-88-62 40 4-47" />
    <path fill="#00b39e" d="M678 418l33 244 3-152 37-55" />
    <path fill="#442b16" d="M590 290l-7 30 71-25-25-34" />
    <path fill="#e3e1c4" d="M491 414l57-20 83 117-8-136" />
    <path fill="#d0d8c3" d="M646 236l-53 9-40 52 1 25" />
    <path fill="#ff9826" d="M249 292l76 33 3 33-66-20" />
    <path fill="#dfe57a" d="M430 518l113-184 20 135-124 98" />
    <path fill="#a35dd8" d="M358 373l-29 2-13-27 147-190" />
    <path fill="#8b5611" d="M590 214l-111-49 112 10-2 41" />
    <path fill="#573009" d="M716 233l5-69 12 86 77-89" />
    <path fill="#000042" d="M910 382l-24 286 21 45-72-35" />
    <path fill="#74787f" d="M224 533l-17-73 95-38L99 297" />
    <path fill="#d4b38e" d="M821 614l-90 6 14 73 51 20" />
    <path fill="#b84a00" d="M793 388l-20 172 12 88 33-83" />
    <path fill="#fdc1af" d="M414 133l50 20-54 20-4-46" />
    <path fill="#eeebb6" d="M668 275l-47 8 89 6 4-11" />
    <path fill="#606163" d="M62 418L41 269l13 270-85-39" />
    <path fill="#d1d2d2" d="M968 686l87-379-127 223-37 182" />
    <path fill="#bc7b46" d="M326 102l18-14 9-65-77 48" />
    <path fill="#bdbdba" d="M1020 336l-83 260-19-210 74-277" />
    <path fill="#dddcc1" d="M524 519l5-233-31 172-67 122" />
    <path fill="#e6df01" d="M557 441l-15-23-7 118 26-75" />
    <path fill="#d5bb89" d="M641 310l43 81-47 5 49-46" />
    <path fill="#d2d2cc" d="M570 121L661-5l-27 137-41 19" />
    <path fill="#0f1011" d="M314 713l-14-107-64 34-35 73" />
    <path fill="#8b5f1f" d="M527 146l93 11-129-51 38-10" />
    <path fill="#d6d6e5" d="M722 500l-6 32 32 69-4-134" />
    <path fill="#ab9e00" d="M499 297l57 4-11-59-49 19" />
    <path d="M128 705l-159 7L76 419l13-56" />
    <path fill="#693200" d="M740 415l158 93-40-23-49-83" />
    <path fill="#d0893f" d="M777 395l71-18-20 35-39-159" />
    <path fill="#c8cfd7" d="M355 126l2-149 46 13-34 144" />
    <path fill="#fdfeff" d="M252 440l176 235-113 38-10-80" />
    <path fill="#52260f" d="M856 235l-20 116-44-13 39-20" />
    <path fill="#d5cb8f" d="M483 255l108-118-52 25 23 34" />
    <path fill="#ded390" d="M837 430l40 3-76 33 11 32" />
    <path fill="#613800" d="M679 225l-83-5 21 18 89-86" />
    <path fill="#cccdce" d="M742 151l57-182-34 183L620 51" />
    <path fill="#000995" d="M845 633l-35-107 35-34 37 74" />
    <path fill="#cbcac4" d="M830 229l-74 36 29-91 270 164" />
    <path fill="#595a59" d="M803 25l-77 24 5-15 39-18" />
    <path fill="#9c5d15" d="M874 288l19-3-23 73-10-33" />
    <path fill="#4c1553" d="M387 110l35 92 72-40-121 6" />
    <path fill="#348872" d="M791 321l-65-51-69 6 73-44" />
    <path fill="#9a8c54" d="M626 381l-89-7 137-98-48 77" />
    <path fill="#bdbebf" d="M211 269l-73-94-44 53-41 74" />
    <path fill="#029b7e" d="M737 355l-35 33-57-61-18 45" />
    <path fill="#b79c62" d="M628 369l67-61-26-7 79-19" />
    <path fill="#897a3d" d="M273 99l-25 27 9 147 32-123" />
    <path fill="#7f5c27" d="M571 97l-5 20 37 124-63-138" />
    <path fill="#062518" d="M700 291l15 46 64-44-27 41" />
    <path fill="#6d1500" d="M465 251l-21-19h35l8 58" />
    <path fill="#cccdce" d="M742 90l-134 37 153-52-50-45" />
    <path fill="#8d5210" d="M780 185l-3 20-23 66-18-95" />
    <path fill="#dbdbde" d="M444 698l-24-153 232 70 120 96" />
    <path fill="#816c51" d="M516 79l-51-11 24-14v1" />
    <path fill="#c3cfcf" d="M826 324l11-12 5-56-51 41" />
    <path fill="#d9d3d4" d="M562 95L448 222 548 81l89 16" />
    <path fill="#bc9a4a" d="M714 435l25-57 19 268 22-182" />
    <path fill="#626261" d="M808 57l-49-8-39 24 17-1" />
    <path fill="#e5d29a" d="M583 139l110 12-62 60 33-79" />
    <path fill="#8c61a1" d="M484 144l-24 20-107-88 62-5" />
    <path fill="#676766" d="M704 141l3 40 44-212-17 135" />
    <path fill="#865a1a" d="M650 149l31 98-57-79-92-31" />
    <path fill="#7d7f83" d="M631 14l-24 131 12-118-77-14" />
    <path fill="#ffbd57" d="M260 291l15 27 53-90-44 13" />
    <path fill="#585348" d="M691 117l33-148-23 143-26 119" />
    <path fill="#8b6823" d="M788 290l-7-5 27-50-13 73" />
    <path fill="#aeafb3" d="M222 470l13-14-62-33 115 194" />
    <path fill="#f2f3f5" d="M211 458l106-5 97 193-188-150" />
    <path d="M609 327l-13-22-1-2 37 24" />
    <path fill="#dedccf" d="M685 216l35 33-20-83-7 9" />
    <path fill="#ced0d4" d="M595-28L536 4l130 18 105 54" />
    <path fill="#000015" d="M921 481l-78-22-4 39 71 59" />
    <path fill="#00bcae" d="M734 626l-30-5-18-147 41 82" />
    <path fill="#fce8b0" d="M731 228l-1-36 45-20-30-12" />
    <path fill="#9e9fa1" d="M976 669l22-103 57 96-95 51" />
    <path fill="#cacbcb" d="M-31 505l65-109-12-92-53-12" />
    <path fill="#c6c8a8" d="M591 352l-79-45 11 38 62-51" />
    <path fill="#cbcbc6" d="M874 283l43 9 22-136 16-140" />
    <path fill="#c2c2c2" d="M833 250L867-8l107 41-88-2" />
    <path fill="#c5c7ca" d="M821-9L653 56 356-31l337 86" />
    <path fill="#63656a" d="M568 40l10 44-27-9 58-32" />
    <path fill="#e4d8b1" d="M310 128l-27 8-11-14 25-54" />
    <path fill="#a78536" d="M508 197l180 31-55 76 13-70" />
    <path fill="#97c3b6" d="M644 457l1-101 36 16-25 109" />
    <path fill="#908f8f" d="M867 20l-39 16-26 120 44-25" />
    <path fill="#4b4c4d" d="M167 590l-46 2 116 80-78-99" />
    <path fill="#6a481e" d="M912 394l-52-54 31 54 47-108" />
    <path fill="#62370a" d="M576 144l-51-1 18 58 6-81" />
    <path fill="#3a3a3a" d="M780-31l-36 53-10-19 47-3" />
    <path fill="#6b84b2" d="M818 648l22 39-49 26 31-154" />
    <path fill="#c8c1aa" d="M787 349l-8-45-19-73 49 120" />
    <path fill="#64666b" d="M724 155l15-11 31 6 17 11" />
    <path fill="#ccccc7" d="M663 106l-37 20H494l78-13" />
    <path fill="#626264" d="M603 24l-21 12-5-26 37 1" />
    <path fill="#d2dcf6" d="M564 172l2-20-1-5-19 9" />
    <path d="M-29 261L182 93 36 79 5-31" />
    <path fill="#ae5eb7" d="M429 429l11-216-45-47 62 130" />
    <path fill="#c74f19" d="M285 146l17 56 27-38-14-45" />
    <path fill="#78ab9e" d="M747 326l26 37-85-7 49-19" />
    <path fill="#87b5a9" d="M627 351l19-55 63-85-59 102" />
    <path fill="#3e4043" d="M688 42l-49-73h89l-73 72" />
    <path fill="#1b1c1c" d="M242 653l-91-249-99-79 94 240" />
    <path fill="#f2e0b2" d="M751 415l-4-86-9 27 38 12" />
    <path fill="#cccdc4" d="M872 373l-14 20-18-39 8-34" />
    <path fill="#874100" d="M770 392l57 163-96-172 6 65" />
    <path fill="#44552f" d="M379 197l2 72-5-9-11-25" />
    <path fill="#0d0000" d="M677 216l13-28-10-20-12 57" />
    <path fill="#ff7677" d="M302 331l21 42 15-55-20-6" />
    <path fill="#8d6a2b" d="M823 471l-18-21 60-3-41 57" />
    <path fill="#d5d1c0" d="M659 146l99-50-118 83-5 38" />
    <path fill="#dee0df" d="M374 378l73 38-51 204-123-198" />
    <path fill="#724a11" d="M732 169l-13 7-5 14 12 54" />
    <path fill="#cdcdce" d="M864 95l-8 19-106 43 5-15" />
    <path fill="#b9b7dd" d="M422 345l-27 41-110-112 133 47" />
    <path fill="#d4d4e0" d="M598 156l-6 51 24 12 11-37" />
    <path fill="#d6cf93" d="M528 170l3-6-50 91 59-25" />
    <path fill="#c24e06" d="M746 458l98-78-44-70 7 54" />
    <path fill="#cdcab9" d="M642 217l-3 51-23-5 16-27" />
    <path fill="#3a3a3b" d="M734 115l20 3-12 15-3-1" />
    <path fill="#909399" d="M251 294L79 344l81-72 73-139" />
    <path fill="#c8c8c8" d="M655 98l146-67-48 78 32-87" />
    <path fill="#595958" d="M813 17l-76 21 40-24 21 30" />
    <path fill="#969596" d="M1032 239V83L862 65l151 57" />
    <path fill="#009a82" d="M685 366l-16 65 44-8 11-57" />
    <path fill="#ced0d4" d="M595 68l122 36-133-53-77 14" />
    <path fill="#e6d9ad" d="M591 228l-7-22-34 55-1 15" />
    <path fill="#b48e66" d="M415 53l33-11-9 80-23 13" />
    <path fill="#115e4e" d="M747 236l9 56-34 47 63-18" />
    <path fill="#76787c" d="M108 379l61-81 110 64-14 78" />
    <path fill="#95720b" d="M539 227l16 70-30-17 90-145" />
    <path fill="#7250ca" d="M352 288l-9-172 24 136 59 35" />
    <path fill="#dada39" d="M504 446l-25 18-7-89 31-142" />
    <path fill="#d2d2b4" d="M632 486l-26-128-52 28 24 226" />
    <path fill="#a2635e" d="M499 166l-10 85-10-35 4-108" />
    <path fill="#846821" d="M629 291l10 18-14 72-20-17" />
    <path fill="#260000" d="M676 286l-18 20 30-12 5-10" />
    <path fill="#cccccd" d="M946-31L821 22l-68 59-105 47" />
    <path fill="#655245" d="M300 70l34-7-9-85-14 24" />
    <path fill="#68c8bb" d="M744 614l-99-1 10-65 44 112" />
    <path fill="#dba858" d="M773 612l-20-189-14 239 54-50" />
    <path fill="#e96f00" d="M771 534l-4 58 30 48 13-80" />
    <path fill="#8b8a8a" d="M283 629l89-101-95 109-52-112" />
    <path fill="#cdcccf" d="M428 92l73-65-51-58 10 150" />
    <path fill="#3a3115" d="M841 264l8 29 1-45-46-5" />
    <path fill="#2c1100" d="M920 287l-1 61 11-39 2-6" />
    <path fill="#393a3c" d="M90 194l-93 64 124-112 82-26" />
    <path fill="#e2d5a0" d="M673 275l64 33-23-22 4-9" />
    <path fill="#cbcbcb" d="M782 101l-77 9 71 10 139-72" />
    <path fill="#636363" d="M778 109l19-22-70 2 45-7" />
    <path fill="#7e6ed7" d="M383 170l-2 73 20 102 21-117" />
    <path fill="#301e13" d="M836 457l-17 92-14-57h54" />
    <path fill="#0a0a0a" d="M133 60l139 65-7-39 60-117" />
    <path fill="#e0d9bf" d="M718 152l58 28-42-9-49 14" />
    <path fill="#19b9a8" d="M668 475l59 69-94-80-8 73" />
    <path fill="#0025b4" d="M823 509l34-5-5 6-20 195" />
    <path fill="#29301c" d="M716 229l20-1 4-28 23 63" />
    <path fill="#320400" d="M698 314l3 19-14 15-4-9" />
    <path fill="#b3971a" d="M561 257l60-21 4-30-63 78" />
    <path fill="#201300" d="M605 322l-18-25 62-32-47 8" />
    <path fill="#2d2f31" d="M666 85l-19 16-9-13h10" />
    <path fill="#e5cb95" d="M837 452l18 5 10-3-35-56" />
    <path fill="#454649" d="M719 20l-8 28-5-29v-3" />
    <path fill="#6e3000" d="M823 415l-69-30 58 65 17-31" />
    <path fill="#8a858b" d="M904 626l-14 58-1-46 34-113" />
    <path fill="#ddd75a" d="M447 497l-20 39 18 25 9-64" />
    <path fill="#515153" d="M836 22l13-19-132-14 113 9" />
    <path fill="#fbc173" d="M668 352l-15-29 14 11 17 9" />
    <path fill="#deda8c" d="M519 553l-1-19 24-82 5 155" />
    <path fill="#a97229" d="M724 350l-54 8-30-33 34 25" />
    <path fill="#000047" d="M845 681l41 8-2-142-19 24" />
    <path fill="#c4bcae" d="M909 371l-32-10-3-55 46 10" />
    <path fill="#e2c0b0" d="M485 184l-13 41-26-3 5-42" />
    <path fill="#313338" d="M649 121l-17-4-1 8 24 11" />
    <path fill="#afa573" d="M582 301l50 108-97-124 86 55" />
    <path fill="#a05b0f" d="M579 139l16 20-28 83-2-68" />
    <path fill="#5a5a5c" d="M722 121l11-18-48-28 24 8" />
    <path fill="#3b3c3f" d="M693 50h4l10 15 14-15" />
    <path fill="#ceb27b" d="M702 300l4 23-27-35-36-16" />
    <path fill="#a88b67" d="M939 295l-25 85 8 97 18-170" />
    <path d="M2 713l115-1 9-134-157-42" />
    <path fill="#eec455" d="M623 139l-39 16-20-31 14 6" />
    <path fill="#3b3b3b" d="M49 548l-56-16 37-49 32-19" />
    <path fill="#efd1a4" d="M444 138l-28-6-10 34 14 5" />
    <path fill="#cdced2" d="M604 40l-157-8 177-5 65 37" />
    <path fill="#683194" d="M478 97l-42 88-4 27 46-49" />
    <path fill="#542104" d="M811 336l31 2v-18h-35" />
    <path fill="#c8c8c7" d="M978 228l-59 164 16 73 42-190" />
    <path fill="#f7f4eb" d="M379 105v15l-25 4v-20" />
    <path fill="#717272" d="M771 145l-6-27 24-2 10-12" />
    <path fill="#d0b592" d="M761 696l60-123-6 59-74-7" />
    <path fill="#f4d479" d="M795 247l29-13 27 7-36-26" />
    <path fill="#7db3ab" d="M677 248l77 13-9-2-26-28" />
    <path fill="#c8cabb" d="M577 389l86 78 14-39-88 21" />
    <path fill="#3e1374" d="M402 164l-4-57-32 39 7 42" />
    <path fill="#fe9c1e" d="M248 324l43 30-13-57 40-154" />
    <path fill="#51ae99" d="M736 328l-21 157-77-12 74-32" />
    <path fill="#8592c3" d="M408 77l-14-20-33 26 26 43" />
    <path fill="#d2a797" d="M317 244l-53 72 75-71-19-72" />
    <path fill="#959597" d="M233 156l-74 1-47 32 159 17" />
    <path fill="#168370" d="M695 252h21l-15 11-44 21" />
    <path fill="#dbd799" d="M541 312l-48 232 22-239 21-3" />
    <path fill="#74767b" d="M961 64l54-1 40 74-44-129" />
    <path fill="#cacacb" d="M840 202l88-51-86 2 73 70" />
    <path fill="#cdc347" d="M522 190l53 44-72 17 60-65" />
    <path fill="#75767a" d="M603 69l13 24 8-19-83 4" />
    <path fill="#706771" d="M350 120v-20l-28 53 38-1" />
    <path fill="#cacacc" d="M807 47l-34 133 11 7 39-141" />
    <path fill="#757575" d="M860 53l9 5-44 22-18-3" />
    <path fill="#503419" d="M921 289l-47 3 57 12-26 138" />
    <path fill="#bab9bb" d="M935 173l-9-103-31-15 82-29" />
    <path fill="#b9c0bd" d="M298 351l52 30-69 65-7-60" />
    <path fill="#00ae97" d="M735 446l-47 58-42-15 101-22" />
    <path fill="#7f572f" d="M504 117l15-4 9-10-36 5" />
    <path fill="#6b6d71" d="M793 163l-4 30-31 1 91-39" />
    <path fill="#bfbfbf" d="M157 207L55 268l28 60 22 8" />
    <path fill="#d7cfc7" d="M529 121l-16 54-23-26 3-27" />
    <path fill="#060005" d="M610 152l22 1-25-8-6 13" />
    <path fill="#3e4c7f" d="M850 419l14-28 23-18 12 37" />
    <path fill="#d3d3d2" d="M736 35l-25-66 47 81-10-32" />
    <path fill="#cbcac5" d="M661 138l39-169-21 204-40-37" />
    <path fill="#827665" d="M691 149l77-43-71 33-123 20" />
    <path fill="#cbcac6" d="M761 244l20 52 55-167-51 73" />
    <path fill="#2fa58f" d="M654 294l-28 89 83-25-82-1" />
    <path fill="#9a9a9a" d="M182 713l-41-42-3-63 10-12" />
    <path fill="#454648" d="M264 579L160 416l-52-30 105 128" />
    <path fill="#6c727b" d="M577 101l-45 13 92-10-16 11" />
    <path fill="#c8b88e" d="M260 94l16-23 21-2 9 33" />
    <path fill="#717274" d="M824 203l-13-10 27-6-12 19" />
    <path fill="#828384" d="M-31 540l90-96-23-189 3 173" />
    <path fill="#6677c4" d="M361 170l-25-34-6 5v71" />
    <path fill="#fa7b0c" d="M299 243h16l2-85-30 18" />
    <path fill="#6e430d" d="M733 184l-18 39 2-40 25-10" />
    <path fill="#0c0c0c" d="M135 594l-22-160-53-116 7 148" />
    <path fill="#ea7875" d="M462 306l-17 195 34-183-18-73" />
    <path fill="#30917f" d="M764 360l6-5 1-31-24 31" />
    <path fill="#dcdbda" d="M718 58l-1 3-21 97 26-78" />
    <path fill="#e9e1bf" d="M499 260l18-38-36 18 16 12" />
    <path fill="#484847" d="M806 52l-3 1-12 20-10-16" />
    <path fill="#1a1b1b" d="M303 644l-4-36-79 105-5-121" />
    <path fill="#565658" d="M612 53l18-13-1-2 1 18" />
    <path fill="#494c4e" d="M666 81l-15-13-11-9h27" />
    <path fill="#0c0a0e" d="M626 298l-17 9 13-17 30 5" />
    <path fill="#e0d62a" d="M551 382l-9 140 18-63-30-33" />
    <path fill="#552a0a" d="M774 179l-26 14-12 24h31" />
    <path fill="#63666b" d="M114 172l-65 77-80 32 72-46" />
    <path fill="#664c35" d="M407 34l-3 11-1 33 26-33" />
    <path fill="#715632" d="M309 139l-85-20 47-17 14 59" />
    <path fill="#d2d2d2" d="M747 80l-7-29 25 38 75-29" />
    <path fill="#d6d7d0" d="M607 91l-119 15 76-137-34 114" />
    <path fill="#ccc206" d="M514 310l-28-14 17-45 46-5" />
    <path fill="#d5c585" d="M497 199l118 137 29-10-35 3" />
    <path fill="#6f6f6f" d="M841 86l-22 37-6-19 49-8" />
    <path fill="#777974" d="M246 312l16-105-9-6-25 19" />
    <path fill="#a64900" d="M777 394l14 179 19-6 7-47" />
    <path fill="#d2d1d1" d="M742 21l80-19 6 23-59-20" />
    <path fill="#bcc18d" d="M821 490l-20-8 6-24 17 14" />
    <path d="M-31 3l153-5L14 48l36 194" />
    <path fill="#663f16" d="M447 173l-30-5-6 28 8-5" />
    <path fill="#b87f29" d="M507 223l-64-4 13 35-4-21" />
    <path fill="#929394" d="M205 433l43 112-93-133-76-108" />
    <path fill="#747576" d="M992-31L819 41l8 9 125-81" />
    <path fill="#180000" d="M723 310l-3 16-28-37 20 15" />
    <path fill="#d2d3d1" d="M809 260l32 6-19 49-24-19" />
    <path fill="#8f5825" d="M571 131l-88 53 46-12 31-47" />
    <path fill="#6f7175" d="M181 450l-41-49L30 293l114 87" />
    <path fill="#7b5d19" d="M575 265l-3-5-28-18 24 29" />
    <path fill="#ce9551" d="M775 394l-3-68 39 17 1 36" />
    <path fill="#8244a4" d="M368 134l28-9 25-40-22 3" />
    <path fill="#63471b" d="M684 175l4-18h-9 38" />
    <path fill="#44301d" d="M639 169l-39-15 10 15 25-10" />
    <path fill="#080807" d="M298 713l-13-90 5-29 25 119" />
    <path fill="#2a110a" d="M594 313l38 13 11-29-22 33" />
    <path fill="#595a5b" d="M127 568l47 94 43 51h8" />
    <path fill="#5a7f62" d="M735 294l-31 82 61-124-81-1" />
    <path fill="#b22b1f" d="M496 253l-19-7-2-24-4 100" />
    <path fill="#fffcbe" d="M549 268l11 6 3-2-1-34" />
    <path fill="#9dc3c1" d="M744 335l-18 38 36-8-16-35" />
    <path fill="#c3c3a2" d="M653 296l29-19-14 8-28-27" />
    <path fill="#e3ddc1" d="M651 161l107-30-93 36 17-60" />
    <path fill="#e5da00" d="M538 463l20-38 1 24-1 30" />
    <path fill="#673f00" d="M748 370l-16 39 8-40 9 10" />
    <path fill="#d8d7c6" d="M515 588l57-149 17 189-64-24" />
    <path fill="#b8b9bc" d="M1025 200l-108 55 30 70 61 38" />
    <path fill="#d7d8dc" d="M652 118l-23-34 16-14-47 29" />
    <path fill="#4e4f51" d="M671 52l9-8-7-20-26 7" />
    <path fill="#dedac1" d="M855 287l14 13-1-45 56 23" />
    <path fill="#937b26" d="M540 280l7 53 11-41-14-49" />
  </g>
</svg>