<svg version="1.1" viewBox="0 0 1024 682" width="1024" height="682" xmlns="http://www.w3.org/2000/svg">
  <g fill-opacity=".5">
    <path fill="#6fad47" d="M334.7 510.6L349 481l-63.7 29.4 33-24.2" />
    <path fill="#fb2fc9" d="M408 314.8l-27 28-65.3-14L423 325" />
    <path fill="#1c3e00" d="M528.2 10.6l20 7 57-48.6H503.8" />
    <path fill="#1e2b0c" d="M559.7 238l25-17.8-24-9 8 35.4" />
    <path fill="#195609" d="M34 136.8l9.5-25.8-33-14.7-17 45.2" />
    <path fill="#7daf79" d="M602.6 484L552 575.6l59.4 9.4 8.4-90" />
    <path fill="#eeb229" d="M330.4 282l15.4 15 4.2-6.3 3.4.2" />
    <path fill="#fa63f2" d="M574.3 315.2L561.7 329l-16-3.4-6.2-9.8" />
    <path fill="#662e45" d="M314.6 181.3L301.2 214l-9-45 31.5 6" />
    <path fill="#0d1700" d="M628.8 288.3l-3-23.7-23.5 13.2 17.4 6" />
    <path fill="#534f36" d="M302.2 226.8l29.3 31.3-76.8-65 5-71" />
    <path fill="#e931df" d="M571.7 292.6l3 8L586 283l1.5-10.2" />
    <path fill="#276e27" d="M239.5 624.8l28.7 65-33.6-4.3-4.3-39.3" />
    <path fill="#e943ca" d="M481 341l-12.4 9 3-8.3 10.2-18.7" />
    <path fill="#fa79e6" d="M486 380.5l-5.3-.6-14.3 4 16.6-24" />
    <path fill="#67850a" d="M44.4 600.5l.5 3.8L92 589l-42.8 32.5" />
    <path fill="#002800" d="M1055 165.2l-37 2.4-67-75.4 61.5 112.5" />
    <path fill="#589826" d="M615.6 26l-43.3 70.3 42.4 18.4L678 33.2" />
    <path fill="#feb1d9" d="M330.4 345.5L318.6 287l26.4 19-29.4-6" />
    <path fill="#436602" d="M695.4 267l-13.8 23.6-57-95.2 35-22.2" />
    <path fill="#0b0000" d="M417.5 464.5l57.3-42H464L415 453" />
    <path fill="#ffeba2" d="M295.5 390.8l-10.3-9 4.4-2.2 6.3-1.4" />
    <path fill="#303912" d="M231.7 137l2 63 15.5-26 7.8-69.5" />
    <path fill="#ce9e88" d="M502.4 418l-7.8-1.4L501 427l4 1.7" />
    <path fill="#6f6c43" d="M360.6 161.6l-10.4 45 33.2-35.6 9 26.8" />
    <path fill="#275c2d" d="M220.3 16l51-22.7L223.8 38l-42.4-22.4" />
    <path fill="#b1a6a8" d="M450.8-31L344.4 25.2 330-31l138.7 4.6" />
    <path fill="#1d2018" d="M469.7 453.2l38.5 24-32.5 9.3 18-6.3" />
    <path fill="#181d00" d="M575.5 336l22.8-6.6 28.2 1.8-55 20" />
    <path fill="#75680f" d="M923.8 34.3L910 39l50.3 3.8-23.7-25" />
    <path fill="#507c23" d="M617.2 625.4l37.2 23-67.2 36-29.6-96.8" />
    <path fill="#ca27b8" d="M525.3 341.2l7.3-33-9.4 10.7 4.8 13" />
    <path fill="#e247b9" d="M336 282.4l-6 1.6-29.3-48.5-11 6.8" />
    <path fill="#fc4bd5" d="M385.2 303l-34.5 11 1.3-35 70.3 89.4" />
    <path fill="#002100" d="M989.4 412l-116.2-.2 108-39.4 73.8 61.3" />
    <path fill="#fd4de3" d="M553 269.4l-50.5-2.7L491 339l1.2-44.7" />
    <path fill="#dd689e" d="M441.5 237.7l11.7 1.2 11.6-26 19.6-3" />
    <path fill="#d422a4" d="M466.4 420.4l-12.2 5-4.7-4.2 12.4-19" />
    <path fill="#5a0931" d="M401.2 450.3L381 389.7 377.5 496l11.3-90.7" />
    <path fill="#966e00" d="M200.4 408.4l9-7.6 8.8 9-22.2 9.7" />
    <path fill="#4c482e" d="M305.2 205.2L313 250l-74.6-82 98.4 64.3" />
    <path fill="#b74864" d="M616.4 384.4l-26.7 12.2 31.4-.6 1-8" />
    <path fill="#51235e" d="M819.8 668.3l-17 12 38-8.3 13-23" />
    <path fill="#488e44" d="M62.6 255L58 331l75.2-58-50.7 70.4" />
    <path fill="#ffb5f4" d="M260 426.6l19.4-18.2 4 13.3-7 7.2" />
    <path fill="#fa96f6" d="M617.2 339l-31 10.6 13 1.5 14.4-6" />
    <path fill="#aa2f6b" d="M364.2 527.2l23.2-7 13.3-14-24.3 27" />
    <path fill="#71783a" d="M556.5 159.6l21.4-98-47 86-13-25.7" />
    <path fill="#77ab8c" d="M805 46.7l15.4 49.6 5.8-29-73-6.2" />
    <path fill="#f738d1" d="M290.8 390.4l-30-1.5 28.8-26-28-23" />
    <path fill="#89bf9d" d="M411.4 564.2l.7 36.4 63 15-5-45" />
    <path fill="#4a7b37" d="M812.5-31l19.8 113.5-12-29.4-49.7-73" />
    <path fill="#225f0a" d="M127 492l84 99.3L161.5 711l13.8-95.4" />
    <path fill="#91b88a" d="M19.8 599.7L-31 558.5l35.8 34L22.2 611" />
    <path fill="#030003" d="M1018.7-33l33.8 84-49.3-23.5L982-6.8" />
    <path fill="#84bb79" d="M62.4 250l38.6 3.3-4-35.7-32-6.6" />
    <path fill="#163400" d="M665 460.6l1.4 14 66.3 41 3.8-72" />
    <path fill="#082800" d="M36.8 446.3L72.6 497l16 64.2L19 476.4" />
    <path fill="#f8bae7" d="M389.8 500l-3.8 18.3-6.7 4.4 11.6-40.4" />
    <path fill="#27212b" d="M848.4 635.3l10 10-40 26-13 .7" />
    <path fill="#0d170a" d="M541.2 439.7l-63.8-11.3L588 418.2l-49.8 4.8" />
    <path fill="#750351" d="M461 408.6l-72.6 56-1 14.5 16.6-27" />
    <path fill="#3a7c1f" d="M760.2 171.4l11 54.6-33 8.7-17.6-55.8" />
    <path fill="#38631b" d="M146.2 212.7l-26.6-69.5 89.5-7.6-78-21.4" />
    <path fill="#47002b" d="M544.4 310.5L512.7 350l22.8-38.7-1.4-9" />
    <path fill="#f394cf" d="M416.2 318.2l-7.3-25 12 17.5 24-24.4" />
    <path fill="#ef869f" d="M558.5 250l4-6.4-18.3-16.3 40.4 64.5" />
    <path fill="#358603" d="M909.5 354.5L881 291l-58 82.5-8-38" />
    <path fill="#264e00" d="M96-17.2L-2 17.4 60.2 70l-28-44" />
    <path fill="#407c35" d="M920.7 191.2l62.4-3.4-90 26.4-3-77" />
    <path fill="#086700" d="M21.3 263.6l-.6-48.4-51.7-26.4V272" />
    <path fill="#ffdedf" d="M280.4 447l-5.6 4.7 21.6-11-24.3 27.5" />
    <path fill="#f4d4d8" d="M223.6 368l-17-11.4 38.2 2.7-12.8 2.4" />
    <path fill="#fde74c" d="M262.7 424L252 409.2l-2.4 18 11.7-3" />
    <path fill="#55001c" d="M433.5 459l-70.2-49-15.3 6 25.3 2.5" />
    <path fill="#4d8660" d="M415.6 517.6l36.2 41.4-19-20-29 25.6" />
    <path fill="#dd0add" d="M406.8 465.7l-5 8.5 9-10.6-6.6-5.7" />
    <path fill="#b0005c" d="M415.8 360.4l-8.3 2.3 1.7 8.3 12.7 13.3" />
    <path fill="#dfd011" d="M218 307.2l10.8-13.3 1 2 9 8" />
    <path fill="#457937" d="M643.5 562.8l-19 81 46-22.5-14-121.7" />
    <path fill="#53711f" d="M30.6 109.3l-10-18.7 15.3-21 50-7.8" />
    <path fill="#3b7f4a" d="M473 696.4l-80.3-96.2 4-52.8L424 691.2" />
    <path fill="#e12060" d="M316.4 324.8l-9.5-1-1 20.5 11-6.8" />
    <path fill="#16050d" d="M431.4 494.2l-20.2-81.4 36 120-6.3-46" />
    <path fill="#af8499" d="M456 153l46.6-9.2-20.7-27.2-25 18" />
    <path fill="#043e00" d="M922.4 282.5l40.5-44.3-2-40-20 12" />
    <path fill="#275b12" d="M105.6 379.3l-40-.5-29.2-21.4 26.3 63" />
    <path fill="#fbf12c" d="M319.3 412.5l-4 15.8-12.3-11.7 7 2" />
    <path fill="#0d2400" d="M627.7 230.3l-29.5-12L590 243l50 4" />
    <path fill="#d300a1" d="M528.7 277.8l-.4 10.4 4.2.2-13.6 2.4" />
    <path fill="#f39eb2" d="M493.5 423.4l-.5-12 12 11.8-11 1.2" />
    <path fill="#fca6d8" d="M609.4 316.3l27-43 .2 9.5-21.7 15.4" />
    <path fill="#000602" d="M502.3 553.8l-47.5 1.4 33.7 29 32.4 16.5" />
    <path fill="#886054" d="M381.5 176l.6 28.3 20-85.2 22 13" />
    <path fill="#fc96d3" d="M346.4 311.8l3.3 15.2 4.7 11 .7-36.4" />
    <path fill="#73ad61" d="M57.8 195.4l60.7 34.7L73 97l-15 13" />
    <path fill="#e190db" d="M330 222l24.4 10.4-13.7 4.7-.4-34" />
    <path fill="#ae29a8" d="M593.7 399.7l20.7-10.2-6.7-1L585 391" />
    <path fill="#c80b70" d="M404.8 283.7l-13 14.6-3.3-8.8-6.2-16.3" />
    <path fill="#589e5f" d="M758.6 119.7l88.6 157-16-129.5-25.8 21.7" />
    <path fill="#fcdaff" d="M207 418.8l55 11.4-17.2-8.4-11-10.4" />
    <path fill="#33743e" d="M761 152.7L724 67l54.4 91.6-13.3 11" />
    <path fill="#ff3bcf" d="M497.4 245L479 261l6-8v-19" />
    <path fill="#dc65bc" d="M496.7 98.2L457 92.7l-31.4-84L476 26.2" />
    <path fill="#87ba94" d="M509.5 474.5l49.6 68 58-50-83-36.6" />
    <path fill="#48884b" d="M855 261.2l-61.6-23.8 28.6 55 41.3 1.7" />
    <path fill="#fb78b7" d="M426.3 282.6l22.5 55 9.7-6-5.8 20.5" />
    <path fill="#3b2540" d="M246.7 325.6L188.2 298l49 20.8 16 7.6" />
    <path fill="#ff12e1" d="M277.5 301.2l27 31 2.5-10.8-6-9.4" />
    <path fill="#915565" d="M282.2 139.5l26.7 28.7 9-115.6L289 86" />
    <path fill="#252610" d="M599.4 304.5l-15 8 2.2-6 70-52.5" />
    <path fill="#765864" d="M512 140.5l13.4-5.2L551 116l-11.3-60.3" />
    <path fill="#140601" d="M1000 45l-14 1.2-11.5 55.3 27.8-18" />
    <path fill="#90c974" d="M148 7.6l-25.2 30 13.6 21 38 10" />
    <path fill="#ee527f" d="M471 236.8l.3-6.7 23 14 5.5-16" />
    <path fill="#ff7eea" d="M292.7 350.2l12-31-4.3 26 27 18.2" />
    <path fill="#f140cd" d="M281.7 464l21.2-21.7-8-19 37 19.4" />
    <path fill="#fc50fa" d="M375.4 383.3l-34-61.7-11.4-20.4 10 32.2" />
    <path fill="#70ae4a" d="M143 70l-29 51.7L85.6 16.3 133.4 63" />
    <path fill="#c58ccd" d="M477.6 458.6L494 461l-15.6-12.3-8 1" />
    <path fill="#2b5a26" d="M840 150l30.6-83.7-27 123.7 45.7 20.8" />
    <path fill="#770851" d="M403.6 294.6l9.6 3.6-2-.3-16.6-47" />
    <path fill="#6e7e39" d="M575 171.8l-88 38.7-17 48.8 14.5-57.6" />
    <path fill="#455d2b" d="M269.8 280l29.7 15.7-84-139 81.4 135" />
    <path fill="#253600" d="M981 64.7l-23-27.5L918.8 63l44.8 21.8" />
    <path fill="#6c9f65" d="M585 463.2l25.4 31.4 4.7 104 32-97" />
    <path fill="#4d5a18" d="M645 203.8l40-27.6-46-62.5-14.3 64.2" />
    <path fill="#a28383" d="M355.2 16.7L285.7 35l-12.4 24.3 46.4-5.7" />
    <path fill="#f407e1" d="M384 401.3l15 15 2-9.7-10.6-4.2" />
    <path fill="#81af72" d="M9 397.5L8 409l-7 26.4-10-105.8" />
    <path fill="#ff58fa" d="M421.3 251l33.2-47.4-95.6 67 26-67.3" />
    <path fill="#f545ee" d="M993 698.8l-57.5-31L703 713l227.3-27.7" />
    <path fill="#142d00" d="M623.5 392.3l14.8-12.4-54.3 1 60-26" />
    <path fill="#f66dfa" d="M539.2 241l9.6 11.2 4.7-30.6 6-14.3" />
    <path fill="#677c50" d="M250.5 92l21.3-1.3 15.6-7.8-46.8-26" />
    <path fill="#ff8cff" d="M264.5 441l43.7-12.4-56.3 28.8 6-12" />
    <path fill="#fb20d8" d="M361.3 355.2L336 322l49.4 34-3-16.4" />
    <path fill="#235211" d="M669 580l11.4 5.4 2.6-59.8-13.2-17.5" />
    <path fill="#167000" d="M73.7 619.4l-34.3 5.8 43.7-20 4 1.8" />
    <path fill="#5fa64b" d="M174-31l26.4 119.7 13.7-31L152 5" />
    <path fill="#ffc9e3" d="M479.3 269l34-7-21 .7 1.6-13.4" />
    <path fill="#c09758" d="M287.4 453.3l-62 13 2.7-19.8-4 23.4" />
    <path fill="#2f0206" d="M391.2 452.4L360 444l-9.7 10 68.2-13" />
    <path fill="#486b05" d="M552.2 206.7l10.3 2.5 48-34L572 163" />
    <path fill="#9cceb6" d="M805.7 141.2l-16.2-20-3.7-51.8 32 24.7" />
    <path fill="#020" d="M222.7 305.4l-17.2-41L114 404l17.3-20" />
    <path fill="#a75e18" d="M206.7 350.2l-23 6.5 5.8 2 12.8 1.7" />
    <path fill="#fcc753" d="M485.5 270.6L473 255.2l5 28.3-2.7-8" />
    <path fill="#859402" d="M532 638.3l33 35.5-40.2-81-5 2.7" />
    <path fill="#d536d0" d="M345 270l-39.7-44.2 38 20-28-12.7" />
    <path fill="#e830cf" d="M596.5 316.2l-18.7 13.5 37.5-16.4 4.6-13.6" />
    <path fill="#aa6290" d="M916.8 623.7l-11-8 53.2 30.7-80.4-10.4" />
    <path fill="#579c4c" d="M130.7 79.2l56.6 31-96.6-19 24 75.4" />
    <path fill="#feaffe" d="M215 365.5l101 17.3-4.3-5-89-16.7" />
    <path fill="#e66047" d="M640.7 289.3l-6.5 6.5v-6l1.5-10.3" />
    <path fill="#ee7ee8" d="M310.5 476.7l42-21.8-50.8 12 38-5" />
    <path fill="#c23d4b" d="M296.7 200.4l32.6 18.7-6.7-20-5.3 13" />
    <path fill="#1f530d" d="M944.6 237.2l-34 43-31.3 4.6 56.2-82" />
    <path fill="#b31542" d="M516.8 319.2l17.5-14.4-27-6.6 27.5 2.3" />
    <path fill="#2c540a" d="M284.3 233.6l-42-.6 41.8 25.8-73-121" />
    <path fill="#5f1e46" d="M400.7 478.2L365 523.8l52-71.8 32.5-60.6" />
    <path fill="#ff9bff" d="M392.7 507.5L377.2 524l18.2-38 1-4.2" />
    <path fill="#fa85ec" d="M446 328.8l-2 7.7-11.2-3 7.5-8" />
    <path fill="#030900" d="M436 520.8v-29.3l31.6 12.3 54.2 82.3" />
    <path fill="#455827" d="M1016 597l.4-28.2-29.4 19.6 68-.5" />
    <path fill="#253500" d="M154.2 442.7L196 414l.8 16.7-43 52.3" />
    <path fill="#526f05" d="M56.6 655.8l-63.5 3-24 6 18 6" />
    <path fill="#295f15" d="M905.4 100.6l11.6 24.2 62.6 1.5L879 143" />
    <path fill="#040" d="M261.7 279l-30.4-15-90.6-26.8 125.7-4" />
    <path fill="#41811a" d="M628 41.8l15.4-30.5 20.3 8.3L718 88.4" />
    <path fill="#f755d8" d="M332.7 297l.7-9.7-30-7 .4-17.5" />
    <path fill="#907970" d="M285 286.4L259 259l59.2 59-1.2-9.8" />
    <path fill="#004200" d="M910.3 400.2l108.4-36.4-15.4-75-55.2 80" />
    <path fill="#a45374" d="M392.8 106.7l8.7 16.5 26 18.6 28.2-3.3" />
    <path fill="#e49c3e" d="M227.5 326l11.4 4.7 2 18.3-11-20" />
    <path fill="#c00a8c" d="M507.3 371.3l18-19.6 7.6 24.8-50-12" />
    <path fill="#ff6af0" d="M462.5 303.4l-4.7-55-3.3 35.8 30.4-8.7" />
    <path fill="#e63ad5" d="M332 443.8l22-8.6-4.7-2.8H380" />
    <path fill="#6c0b47" d="M422.8 447.3l-51.4-54.6 3 5-9.5-17" />
    <path fill="#336e2d" d="M234.4 557.2l-29.7 29.3 6.7 19 84.4-73.6" />
    <path fill="#f96cfc" d="M246.4 347.2l38.5 5-31-47 30 9.3" />
    <path fill="#7a4419" d="M604.2 402l5.8-5.8 7.6-14 8.6 13.8" />
    <path fill="#db12b6" d="M388.2 382l-20 21.6 26-30.4 2.4 21" />
    <path fill="#84022f" d="M428 323.3l7.8-8.2-6 39-4.2-40" />
    <path fill="#25612e" d="M988.7 183.2l-1.3-22.4-16.7-28.7-20.7-7" />
    <path fill="#4f0532" d="M504 391.8l-4-9 66.7-1.5-17.4-13.7" />
    <path fill="#e1129b" d="M446 292.6l-17.8-46.8 15.7 56.8-15 9.6" />
    <path fill="#b53698" d="M1009.8 713l10-49.6 35.2-29.8-46 79.4" />
    <path fill="#daceb9" d="M324.8 204.3l-8.2-7.6-9.4 11 20-5.3" />
    <path fill="#e45680" d="M462.2 340.4l-6.4-25.6-4 12.2-7.3 2" />
    <path fill="#fad810" d="M588.8 224.3l3.6-23 .3-1.8 7 3.8" />
    <path fill="#ff60f7" d="M256 402l-17.3 4.2 96.5 3-1-4" />
    <path fill="#ffd690" d="M567.4 337.3l7.6 3-12.5 10.4-5-14.8" />
    <path fill="#c31f4c" d="M489.5 310l15-1-8 23.3 1.7-12.7" />
    <path fill="#fff800" d="M189.7 355l-2-6.7-6.5-5.3 16.8-1.8" />
    <path fill="#2c4b00" d="M274.7 529.8l-17.7-15-61.5 36.8 38.2-1.6" />
    <path fill="#294200" d="M630.2 298.8l21.6 63L664 262l-52.3 68.4" />
    <path fill="#36641f" d="M683 632.4l33 80.6-43.2-98-118 98" />
    <path fill="#701d45" d="M353 452l56.5-18.7-59.6 22.2-25 4" />
    <path fill="#265d00" d="M857 102l93-51.2-10.3-8L858 84" />
    <path fill="#e90d9e" d="M362.8 280.4l8.5.6-10.4 11-28-37" />
    <path fill="#135700" d="M823 409.6l64.6-17-15.7 4.8-18-44" />
    <path fill="#808989" d="M81.4 645.5l-40-3.3 2.2-7.2 25-13.6" />
    <path fill="#c25c7b" d="M349.8 509l-21-1.4 9.5 16 33.6-31" />
    <path fill="#b34e9c" d="M513.6 123.7l-53.3 8.4 42.4-47 17.6 2" />
    <path fill="#757b39" d="M420.8 157.8l-29.8-13 7 44.3 22.2-23" />
    <path fill="#071f00" d="M12 50.8l-43-10V111l45-36" />
    <path fill="#f3abb7" d="M437.4 203l-3.5-7 5-4.3 25 10" />
    <path fill="#fdb7f4" d="M436 269.3l-2.8 31 6-5-21-15.5" />
    <path fill="#190007" d="M478 478.7L446 444l-51.3 3 24.7-16" />
    <path fill="#cabb00" d="M603.8 246.5l16.7 13.5-8.5-20.7 2.7 5.4" />
    <path fill="#7e7714" d="M903.5 606.3l-52 23.7 9.7-20 28-15.8" />
    <path fill="#eb69d5" d="M363.8 459l-24.4 11.2-10 13.3 15.3-8.7" />
    <path fill="#ed9919" d="M288.5 415l7.5 9-8.8 1-2-1.7" />
    <path fill="#031b02" d="M485 496l9.7-26-15-7.5 22-6.8" />
    <path fill="#9b3203" d="M298.8 259l-20 7.2h46.5H291" />
    <path fill="#715958" d="M299 93l-27.6-22.5 6.6 55 2.8 63.5" />
    <path fill="#d74de0" d="M360.4 199.3l-1.7 8 12.5 10.2-8.4-29" />
    <path fill="#f6f539" d="M335.8 281.3l17 .7-4 6.7-13.6 4" />
    <path fill="#800057" d="M371 447l-10 28 18-11.5-3.3-30.8" />
    <path fill="#bc6454" d="M573.2 280.8l-3-3.7 6.8 9-13.4 1" />
    <path fill="#3b5c09" d="M238 398l58 1.8-57.5-12.5-29.7 7.5" />
    <path fill="#de41d3" d="M258.3 268.4l19 13.6 1.8 74.8-9-86" />
    <path fill="#234700" d="M706.7 11L696 40l2-.6L634-31" />
    <path fill="#4d6600" d="M200 504.7l-7.6-57 88-14.3h-49" />
    <path fill="#f385ce" d="M303.4 294.8l-13.4 2.8v3l12.8 8.7" />
    <path fill="#e6c900" d="M276 248.5l5.3-1.5 18-16-20 12.6" />
    <path fill="#5a0454" d="M420.7 504l17.7-2.8-8.2-25.4 15.7-33.6" />
    <path fill="#fdd364" d="M479.4 212.4l17-4 4 21.7-10-16" />
    <path fill="#b19100" d="M595.6 204.8l1.4 18.5-4-8.8 19 1.5" />
    <path fill="#142c00" d="M614.2 256.7l13 23 11-45-26 44.4" />
    <path fill="#0e0d0b" d="M421 530l-1.4-59.5-32.6 62 21.6-37" />
    <path fill="#f180ea" d="M502 238.6l9.4-36-2 39.8 66 22.7" />
    <path fill="#2e660f" d="M560.6 698.6l-51.8 1.3-.8-109 18.2 51" />
    <path fill="#ff85ff" d="M536.3 267.8l-3.7 8 19.6-30-23.8 50.3" />
    <path fill="#264a0b" d="M170.2 138.4L226 141l-94 27 10.4-41.3" />
    <path fill="#fbcf90" d="M297.6 372.6L286 384l3.6 4h13" />
    <path fill="#b36c7a" d="M298.7 262.6l-13-8 31.5 18.7-11.7-15.6" />
    <path fill="#d7aa00" d="M199.8 404.7l8.6-16.2 5 19-5-.2" />
    <path fill="#670350" d="M449.7 473.4l-2.8-23-15 26 5-22.4" />
    <path fill="#ce528f" d="M307.5 400.8l70 11.5L274 388.7h23" />
    <path fill="#3a7348" d="M688 43.5l97.5 2.7L799 23.7l-28.8 7.7" />
    <path fill="#ff81f3" d="M414.5 307.2l10.6 27-6-32 22-10.6" />
    <path fill="#92926e" d="M437.3 149l16.5 20.8 86.4-39.2-25.6 37.4" />
    <path fill="#c5a0a0" d="M1005 648l-1.2 32-13-30 7.8-26.5" />
    <path fill="#b57571" d="M978.5 653.7l15-6.7-21.6-20.5-17 9" />
    <path fill="#767d00" d="M368.2 530.5l-9 28.6 4.6-39-8.5 7" />
    <path fill="#fc3fb3" d="M293.4 288.3l4.5-10 23 19.3 47 27" />
    <path fill="#f5e65f" d="M289 343.6l3.3.2-15.3-15.6 15.7-1.5" />
    <path fill="#f9baf2" d="M589.3 361l33-3.8 11.6-6.8-2-4.4" />
    <path fill="#d04771" d="M333.5 454.8l-1.5-15.2-29.2-8.7 24-5" />
    <path fill="#f23bec" d="M238.4 323l42 12 7-27.7 10.6 15" />
    <path fill="#d3068c" d="M324.7 417l-.8-3.6 58 6.6-43-.7" />
    <path fill="#fd5bff" d="M223.8 320.7l39.7 13.5 5.8 17-47.2-35.8" />
    <path fill="#ffc6b2" d="M492 360.6l-9.2-7.6 11-6.6.4 5.8" />
    <path fill="#3d660e" d="M222.3 543.5l-44.2.4-23-28 65-2" />
    <path fill="#9e5aa7" d="M240.2 357l-1.5-8.7 26.5 16.4-16.4-3.7" />
    <path fill="#623a3e" d="M327 196.5l-54.4 2.5 17-4.5 1.4-22.7" />
    <path fill="#d6ca90" d="M319 180l-8.7 5-7 1 32-6" />
    <path fill="#4f7a02" d="M697.8 183l-9.4-11.4-32.3 56.6 23 12.3" />
    <path fill="#e33cd3" d="M422.3 422.6l-.7-5.5 10.2-2 2 8" />
    <path fill="#fbd4fb" d="M588.5 222L548 263.3l44.6-21.8-23.3 32.3" />
    <path fill="#092d02" d="M973.5 586l73.3-21.6-50.4-13.7-13.7 51.4" />
    <path fill="#d921ae" d="M530.6 320l-22 21.6 20.2-24.4-40-36" />
    <path fill="#815f5c" d="M869.2 649.6l-19.7 4 4.8-28.8 20 30.6" />
    <path fill="#ea254c" d="M301.8 258.3l-8 .4 12 12.8-19-7.8" />
    <path fill="#dc0ebe" d="M557.6 280.8l-18.6 24 6.8-35 8.6 28" />
    <path fill="#f6b270" d="M403.7 306.5l-9.2 12.6-.8-17 26.3 10" />
    <path fill="#e95fea" d="M231 370.5l24.5 13.7-56-12.2-.5-.8" />
    <path fill="#590032" d="M553.8 341.8l-69 5.2 52.6-3.3 3.4 9" />
    <path fill="#f57e3f" d="M395 297.7l1 20 9-8.7-7 3" />
    <path fill="#1f1300" d="M528 403.8l-33.5 2.8 3.8 3-1.4 2.5" />
    <path fill="#df4ee5" d="M401.4 505l-9-37.8 4 19.3-4 13.5" />
    <path fill="#2c630f" d="M729.6 360l-58.3-11.6 132.2-34.6 34.6 19" />
    <path fill="#3b7f2e" d="M205.4 124l-12.7-.7 41-89L246 53" />
    <path fill="#656f32" d="M66 655.5l18-5.3 19.7-22-5.8-19.5" />
    <path fill="#d0bb14" d="M542 199.4l-23 11.3 8.2-16.4L538 214" />
    <path fill="#fd7f8b" d="M474.2 293.2l6.5-27 6.3 23.5-3.5 4.7" />
    <path fill="#438d2d" d="M54.5 266.2L49.8 304l-11-145.5 5.7-35" />
    <path fill="#a30e79" d="M350.8 457l-9.5 12.3 27-16.6-10.8-2.2" />
    <path fill="#10510a" d="M377 532l3.3 41.2-4-1 24.3-51" />
    <path fill="#5ea369" d="M499 469.5l34.2-26.7-25.3-2-9 14" />
    <path fill="#9f6d9f" d="M567.3 334l51-41.4-27.6 20.7-12 .3" />
    <path fill="#67443d" d="M336.4 190.4l29.2-2.6-13-8-21-5" />
    <path fill="#353527" d="M897.3 595.3L925 615l-11.3-1.4 23-13.4" />
    <path fill="#e4aead" d="M292.3 256l19.8-8.5-29 14.5 14-21.5" />
    <path fill="#6a9b49" d="M358.2 444.4L318 456.2l-13.3 6.6 50.4-12" />
    <path fill="#427f3d" d="M296.3 558L244 633.8 204.6 616l42-53" />
    <path fill="#d907ac" d="M418.3 368l34-24-27 6-2.7 40.4" />
    <path fill="#759483" d="M448 587.5L421.6 522l-20.6 3.3 5.4-22.3" />
    <path fill="#f69fdf" d="M303.2 430.3l7.3-37.2-38.7 20 34.2-9" />
    <path fill="#ef8eec" d="M270 424l26.7 10.3-33.4-23.4-2 1" />
    <path fill="#ba4da4" d="M354.7 519l21.8-15.4-21.5 22-8.5-107.7" />
    <path fill="#d1c109" d="M220 350.8l14.2 1h-2l.5 11.7" />
    <path fill="#ffb8fc" d="M585 294.4l2-1.4 8.8-15.6-24 22.3" />
    <path fill="#f9b3d5" d="M630 295l-4-2.2-20.6 18.6 5.4-18" />
    <path fill="#001d00" d="M1041.2 212l13.8 95.6-116.6-46.8 24 34.3" />
    <path fill="#f7b4fe" d="M565.2 288.8L544.5 315l15.3-1.8 1.7-21.5" />
    <path fill="#f6c5ec" d="M326.2 316.4l-9-19 12.6 52.7-13.8-9" />
    <path fill="#ffb0cd" d="M508.5 231l-30.8 2 6.2-5 15-3.6" />
    <path fill="#55621d" d="M516.5 226.2l-1 .8-1.7-22.4 11.6-.5" />
    <path fill="#db9b1d" d="M646 338.4l-16.7 12 16.3 1.5-10.2-17" />
    <path fill="#554c25" d="M554 34.4L428-31l115 46.5-2.3-6.8" />
    <path fill="#e94bd3" d="M562.4 336l32-48-18.6 10.2 6-5.4" />
    <path fill="#ffc09f" d="M472.2 407.8h-13.5l-1 1.8 7.7-10.3" />
    <path fill="#f151d1" d="M429.4 526.4l3.5-20-10-3.3v16" />
    <path fill="#1c4716" d="M549.5 404.2l30.2 39-2-5.3 65 4" />
    <path fill="#5f8510" d="M249.8 436.6l-19-4.5-3 5 1 20" />
    <path fill="#387317" d="M116 657.8l-24.3-72.5 93 34.2-20.3 40" />
    <path fill="#4f8429" d="M.5 352.7l-11-34.5 28 53 10.4 48" />
    <path fill="#b946bc" d="M602 370l-24.2.2 44.6-15-.3 6.8" />
    <path fill="#155123" d="M385 549.8l27.3-39 1.8 17-3-4.8" />
    <path fill="#376c29" d="M697.7 89.5l42-55.2-24.3-18L692 52" />
  </g>
</svg>