<svg version="1.1" viewBox="0 0 1024 682" width="1024" height="682" xmlns="http://www.w3.org/2000/svg">
  <g fill-opacity=".5">
    <path fill="#033a11" d="M779.4 679.8L818 541l-55.8 69-9-15" />
    <path fill="#34001c" d="M430.7 465.6l-48.2-66 35.7 69.3 14 37" />
    <path fill="#736861" d="M342 134l18.3 97.3 6-73.3 69.4-24.6" />
    <path fill="#b33382" d="M452 118.5l-44-21.3 1.4 36.8H448" />
    <path fill="#d12cc4" d="M287.6 320.3l-40-46 59.6 40-68.2-26.8" />
    <path fill="#ffd8e8" d="M614.5 295.6l-8.8 13 22-18-.4-2" />
    <path fill="#6c5e20" d="M821.6 681.7L746.3 713l32.3-43 71 18.2" />
    <path fill="#326b1c" d="M959.4 196.2l-96 14 7.6 77.3 71.2-81.2" />
    <path fill="#324f00" d="M683 266.6L612 170l-58.7 65.7 22.5-50.3" />
    <path fill="#2c5a00" d="M81 606.4l92-26.3V474l-54.4 24.7" />
    <path fill="#ffd730" d="M509.7 214l-11.3 6.2-13.5-5.6v-1.2" />
    <path fill="#628e08" d="M54.5 14.8l-5.8 11 25.7 31.6L109.7-31" />
    <path fill="#f37bc8" d="M288.6 242.3l38.2 8 33.3 43.2-37-32" />
    <path fill="#6daa7e" d="M494 471l16.5-25.8 31.7-7.3 70.4 47" />
    <path fill="#8b055c" d="M377.2 458.4L347 460l49.4-24.7-27-5.3" />
    <path fill="#604a18" d="M534 242.8l1.5-36.2 12.2-2.3-5.6 29.5" />
    <path fill="#da009b" d="M493.2 291.3l-15.6-.4-24.6 34 34.5-8" />
    <path fill="#e4d000" d="M218.4 308.4l20-18.7-2.4 14-1 4" />
    <path fill="#f305c6" d="M410.5 359.8l-7 9.4-26-39.6 10.7 4.2" />
    <path fill="#001800" d="M202.6 333.3l-29.5 6 52-29-7-12.3" />
    <path fill="#e32bb0" d="M320.8 355.4l-22.4-53.7-43-43.4 23.6 31.2" />
    <path fill="#e9ac7c" d="M528.4 301.6l-.7 5-2-13.3-17.8 2" />
    <path fill="#e5576d" d="M523.2 371.5l13.8-17.3-4.4-9.3-7.6 3" />
    <path fill="#a50665" d="M458.6 376.7L437 349l12.5 37.2L465 303" />
    <path fill="#f6bbe5" d="M491 217l-31 23.4 6.7-15.5 22.5 10" />
    <path fill="#ff6dff" d="M301 431l23.6 15.7L246 445l40-6.3" />
    <path fill="#71ae80" d="M520.6 560l-4.8-23.2-33.4-49.6 107 69.2" />
    <path fill="#ff2deb" d="M329.8 235.6l16.5 25 45 33.4-11.6-22" />
    <path fill="#000e00" d="M735 480l36 12.3 7.5-63-34 4.7" />
    <path fill="#fdd1fd" d="M534 267l7.7-22.8 37.7 18 10.3-36.2" />
    <path fill="#949963" d="M467.2 142.6L428 192l4.4-34 20.6-6.7" />
    <path fill="#295501" d="M834.3 13.3L863 12l18.2-43H801" />
    <path fill="#448742" d="M223.2 594l3-36 91.3 95-55.7 12" />
    <path fill="#f8a039" d="M302.2 260.2l-4.4-27.6-21.5 13.4 3.8 2" />
    <path fill="#599722" d="M861 15l-56 19.3 44.4 49.3 69.5-46" />
    <path fill="#ff95fd" d="M215.7 407l37 12.4-13.6 6.4 19-23.4" />
    <path fill="#f541e7" d="M355.2 275.2l43.5.3-40.5-84 33.5 7.7" />
    <path fill="#0d4200" d="M1055 164.7l-201.3-68 65.3-34L991.3 172" />
    <path fill="#033d00" d="M235.4 110.2l-2.4 100-49.7-19.7 28.3-62.2" />
    <path fill="#106111" d="M326.2 631.6l77.4-39.3L270 698l93-3" />
    <path fill="#d1971d" d="M240.7 311.2L230.3 360l-11.3-5.3 18-9" />
    <path fill="#004c00" d="M43.7 292.2l-74.7-81V290l69.3 40.8" />
    <path fill="#ffed1d" d="M582.4 203.4l14.4 1.6-10.2 32.5 5-15.7" />
    <path fill="#829e5a" d="M480.5 193.4l13.2-38.4 60.6-24-40 60.4" />
    <path fill="#b78e50" d="M412.8 530l20.5 1 3.2-9-2-.6" />
    <path fill="#f3b7e2" d="M610 367l10.7-33-25.8 26 17-.5" />
    <path fill="#fbb8e4" d="M325.3 320.6l-7.4-11 44 15-48-.4" />
    <path fill="#50433a" d="M298.3 211.7l39 42.4-31.3-50-82-55" />
    <path fill="#465116" d="M12.5 107.6l46-37.2.5-23.2-33.2 2" />
    <path fill="#003100" d="M112.4 495.4l33.6-19.6-32.5-94.7-33.2 79" />
    <path fill="#9e5c7c" d="M505.4 14l-68.6-9.4L458.3-31l78 129" />
    <path fill="#347439" d="M12.5 141.6l33.5 5 3.7 29.2L-31 215" />
    <path fill="#f637de" d="M306.8 392l9.4-10.3 89.4 32.3-111.4-28.3" />
    <path fill="#fadf42" d="M293.3 424.5l-14.8-3 2.8-6 7.3-11.3" />
    <path fill="#ec2e58" d="M359.4 256.6l-15-20 8.6-3 5 2.6" />
    <path fill="#840731" d="M436.3 326l.4-12.7-11.8 21.3v18" />
    <path fill="#ea25d2" d="M274.8 283l37.4 49-72.5-53.4 27.3 31.6" />
    <path fill="#fa25c3" d="M357.4 300.4l-28 8.3 11 16.3 23.7-57.2" />
    <path fill="#ffe2f9" d="M402.3 468l4.2-10.5-25 30.8 16.7-14" />
    <path fill="#37663b" d="M833.3 274.4l-38.3-33 8.7 91.5 30.3-29" />
    <path fill="#001600" d="M483.3 466.3l17.8-13-4 11 4 19.2" />
    <path fill="#f835cf" d="M415.8 356.7l33.8-8-6.8-36-20.2 64.6" />
    <path fill="#f38596" d="M375.2 328.6l-6.8-9 12-24.8 1 27.3" />
    <path fill="#352928" d="M585 306.4l13 4-16.5 11.3 51-45" />
    <path fill="#170207" d="M453.6 433l-58-2.6 68 36.5-4.6 30" />
    <path fill="#ae9f5d" d="M1055 640.6v-29.2l-52.5-2.4-34 30.8" />
    <path fill="#060f07" d="M507.7 483.5l-39-57.7 33 23.5-8 20.8" />
    <path fill="#922c8e" d="M619.2 367.2l-93.7 5.5 99.2-12 13.3-4.4" />
    <path fill="#20000c" d="M348.8 446l150-18-74.4 22.2-99-9.2" />
    <path fill="#640654" d="M548 404l-15-8.3 57.2-11-23 16.8" />
    <path fill="#d3abe4" d="M441 485l-9.7-13.7 4.3 21.4 4.6-10.4" />
    <path fill="#c221ad" d="M522.2 336.5l-.5 7.2 83.6-24.6-47 8" />
    <path fill="#5e002c" d="M468.3 330.7l-2.7-20.4-2.6 59.3 7.2 8" />
    <path fill="#0a1302" d="M777.5 236.4l1.7 62.6-56.2 19.3 24-49" />
    <path fill="#3c7141" d="M745.8 629.4l11.4-12.8-71 42.4 45.5 54" />
    <path fill="#2c8946" d="M-22.3 566l54.5 62.3-23-10.5-40.2-33.4" />
    <path fill="#000700" d="M1055 187.2L941.2 213l42 82 57.8-175" />
    <path fill="#e92ccb" d="M524.5 273.5l12-58-32 101 2-36.2" />
    <path fill="#f290b1" d="M454.3 292.6l-32.4 3 15 1.4-1 42" />
    <path fill="#996c80" d="M494.3 258.3l9 11.2-5 2.5 7-34.3" />
    <path fill="#0c2e00" d="M595.6 239.5l57.2 21 6 48.5-51-90" />
    <path fill="#ffdcf9" d="M445.8 213.4l6.7 1.6 1.7 8.8L439 239" />
    <path fill="#fa84f8" d="M339.4 425.2l16 14-13.3 1-10-.2" />
    <path fill="#f8de52" d="M426 411l-14.2-5 8.7-8 11 10" />
    <path fill="#6b0062" d="M467.3 493l-6.5-50.2 11.6 2 4 4" />
    <path fill="#2f5e48" d="M-2.8 456.4L22 434l-3 43.5-50 18.4" />
    <path fill="#cd36a1" d="M420.7 429.8l12.4-14.2-4-7-5 12.4" />
    <path fill="#200007" d="M514 406.8l-8.7-16.2 38.3-9 .2 22.6" />
    <path fill="#e8cb05" d="M335.7 181.3l-16 16-1-12.7 14.3-5.4" />
    <path fill="#306c27" d="M74 682l101 2.3-91.5-83 42 9.3" />
    <path fill="#397a2c" d="M109.3 347.6l-50.5 60.2L129.5 266l13-5.6" />
    <path fill="#f490f3" d="M401.5 241l-33.8-28-38 34 27.7-18.6" />
    <path fill="#70692a" d="M1055 167l-46.5-40.8 9.7-78.2-11.6 17.3" />
    <path fill="#549927" d="M299.2 518l-25.8-48.3L308 462l-2.8 14.2" />
    <path fill="#fc89f8" d="M386.2 369l-16.4 20.6-5.8-34 12.7-5.8" />
    <path fill="#d32184" d="M355.6 358.5l-17.4-18 9 20.8L359 359" />
    <path fill="#31000a" d="M362.8 430.8L354 429l66-8.2 22 16.6" />
    <path fill="#b10d74" d="M581.8 336l26.7-20-41 19-6.3 5" />
    <path fill="#356410" d="M684 32.4l-24 82.2 65.7-91.3-89-21.6" />
    <path fill="#2d5434" d="M762.6 514l-45.3 54 38.5 37.4 44-57.6" />
    <path fill="#ab1072" d="M352.4 382.5l58.5 42.3-47-27-21-11.3" />
    <path fill="#790239" d="M544.6 293.7L534 331.3l-3.3-30.6-39.3 53.4" />
    <path fill="#eddc00" d="M384.5 171.2l-11.6-1 1-15.5 14 3.6" />
    <path fill="#714d4e" d="M249.3 139L365 177l-9.7 47.2-.7-34.5" />
    <path fill="#6ea57f" d="M798 173.7l42.8-87 3 14-3.4 28.8" />
    <path fill="#e60ea2" d="M414.3 276.3l-24.4-16 46-8.3 2-2.3" />
    <path fill="#ed41ed" d="M380 267.4l-21.7-42.2-23.8-30 1.5 15" />
    <path fill="#003600" d="M210.4 21l-14.2-38.2L246.6 0 311-27.3" />
    <path fill="#f3f000" d="M228.3 343l-1.7-6.6-5.4-8 17.2 3.2" />
    <path fill="#c61db0" d="M431.6 470l8-7.7 20.8 12.3-10.4 6.7" />
    <path fill="#fc99fe" d="M580.3 289.3l8.4 7 15-31.7-4.5-6.7" />
    <path fill="#e31b85" d="M403.8 278.6l-18 34.7L359 270l34 34.5" />
    <path fill="#2e612c" d="M519.4 411.3l7-5.8 78-6.3-68.6 17" />
    <path fill="#79745f" d="M75.6 573.4l11.7 1.3-16 23.6-1.6-34.6" />
    <path fill="#be2956" d="M484 330.4l16.4-23.8 10.4-6.8-33.5 57" />
    <path fill="#053804" d="M197.2 232.7l-12.7 14.7 67 60.2 3-5" />
    <path fill="#074f03" d="M188 238.7l84.6 30.8 16 15.8-27.8-73.4" />
    <path fill="#445c15" d="M683 541.3L627.6 425l-15 43.2 23.2 13.5" />
    <path fill="#e92a6a" d="M315.2 283.6l6.8 9.2-39-2.8 26.8-7.2" />
    <path fill="#58933c" d="M71 64L32 97.5 212 86l-35 46" />
    <path fill="#ff85e1" d="M300.8 386.2l16-13 1 38.4-14.2 8.8" />
    <path fill="#e33ab4" d="M425 409.6l-2.3 13.5 6.3-48-10.8-83" />
    <path fill="#60a560" d="M319.7 608l34.5-91-68.4 39.6 25 32.4" />
    <path fill="#e0b000" d="M352.2 192.8l.4 13.2-20-13.7 6-4.2" />
    <path fill="#3c7737" d="M896.6 132.5l-15 54.5 54-62.6 50.6 24.2" />
    <path fill="#062900" d="M76.8 518.8l-61.7 53 7 26.2 39-1" />
    <path fill="#a4005d" d="M465.8 339.5l-9.6-15.6 14-10h22.2" />
    <path fill="#4f5500" d="M885 592l-9.2-11.4-25.5 10-9 43.2" />
    <path fill="#348733" d="M510.5 608l-6.2 77.3-12 27.7-.2-126.5" />
    <path fill="#ffcca1" d="M245.5 463l-10-7-12 6.2 8.4 5.2" />
    <path fill="#f82dee" d="M404.2 378.6l1 14-44-69.4L401 371" />
    <path fill="#70a961" d="M128 82.7l42.8 19.6 39.5-48.7-.3-10.4" />
    <path fill="#536c00" d="M622 653.4L601 713l-46.7-87 12 78.3" />
    <path fill="#feecf8" d="M199.4 423.4l52.7.6-10-11.3-48 12" />
    <path fill="#437b47" d="M853.5 59.7L824.3 172l47.8 95.8-26-107.4" />
    <path fill="#ffc8ff" d="M313 440.5l-84 15-3.4 5.4 6.3-1" />
    <path fill="#c352b4" d="M898.2 650.7l-52.8 24.8 45-44 96.6 31" />
    <path fill="#f941e7" d="M277 412l5.8-1.8-49.7.6 63-12" />
    <path fill="#2f4907" d="M669.4 292.8l-43 116 94.3-147.3-105.6 90" />
    <path fill="#3f5000" d="M159.6 443.8l16 89.3 9.6-51 50-55" />
    <path fill="#0b2b00" d="M12.3 347L-31 307.7 36 327l.5 64.6" />
    <path fill="#fe32df" d="M468 268.3L437.2 240 384 250.3l81 31.4" />
    <path fill="#e734dc" d="M513.6 210.5l-1 12-7 104.6 4.4-117" />
    <path fill="#010600" d="M477.7 484.5l23-8.2-47 43.8 10-31" />
    <path fill="#fcc0f6" d="M310.6 487l1.7-8.5 22.6-17-18 1.5" />
    <path fill="#823b4c" d="M955 17l-19.5-48h-29.3l27 50" />
    <path fill="#041e00" d="M223 396.4l-109.4-37 63.5 8 37 10.6" />
    <path fill="#e11ab0" d="M351.2 404.6l-5.7-7.6-23.7 5.2 30.2 30.2" />
    <path fill="#1f4018" d="M782.3 307L678 321l135.5 3-26.6-93.3" />
    <path fill="#dbb105" d="M197 357.3l9.6.5-34-16.2 25-3.6" />
    <path fill="#ffc4ff" d="M476.6 259.2l18-1.7-7.4 13.7-5.4-34" />
    <path fill="#e534d4" d="M519.2 374.8l4.8-8 29-7.2 2-15.5" />
    <path fill="#a37e5f" d="M857.7 651.3l-7-2.6 47-48.5 10.6 25.3" />
    <path fill="#620033" d="M400 403.2l-12.5-8.7 68.4-5.8-14-21.6" />
    <path fill="#65740a" d="M218.7 509.8l49.5-54-57.6 20 13.6-32.6" />
    <path fill="#9c937e" d="M911.5 21.5L895 1l25.4-17 4 41.5" />
    <path fill="#aa1387" d="M501.8 397.7l-2.2 6.5-12.3 18-17.6.6" />
    <path fill="#ffc2dc" d="M539.5 214.2l-14-10-.2 9.7 4.7 5" />
    <path fill="#001400" d="M885.5 580l46.6 20.7 76-32-150-104" />
    <path fill="#e569e6" d="M234.2 349l-18.4-10.8-.3-6 2-1.2" />
    <path fill="#1c5827" d="M536 674.2L462.4 713 392 629.5l24.8 68.6" />
    <path fill="#40001a" d="M461 400.4l-4.7-29 34-35-49.7 70.7" />
    <path fill="#899d33" d="M412.7 200.6l-10.6-29 9-17 9-12.5" />
    <path fill="#d89605" d="M309.3 417.8l.4 15.7 10.8-13.2 5.6 19" />
    <path fill="#f169e4" d="M423.8 519.6l-3.2-10.3 2-5.2 10.6 19" />
    <path fill="#153400" d="M635.6 400l-80.2 5 89 30.5 5.3-50.5" />
    <path fill="#354a09" d="M585.2 228.7l-2.8-21 49.4-41-57 36.8" />
    <path fill="#25690c" d="M183.4 159.2l61.5-55.7 11 3.5-26-32.4" />
    <path fill="#77b379" d="M428.2 636.4l66.3-47-2.5-2.6-13.6 59.4" />
    <path fill="#ec60cc" d="M448.5 86L461 31.8l-70.2-2.2 10 60" />
    <path fill="#e5609c" d="M419.6 155.3l10.3 7-3 31-5-23.5" />
    <path fill="#134e1f" d="M399.2 521l-4-9.3-16.4 48.5 37.3-32.6" />
    <path fill="#606301" d="M983.7 610.2L970 620l37.3-34.4-72 21.8" />
    <path fill="#eab9d4" d="M434 208.6l2.4-11.5 1-24 10.4 15" />
    <path fill="#679936" d="M489.2 209.7l-9.5-10.7 67-39.6 13.8 25.7" />
    <path fill="#e3cc07" d="M409.8 148h-.8l22.4-9.5-10 18" />
    <path fill="#357b36" d="M281.5 690.2l95.8-156 14.6 61 32-76" />
    <path fill="#f6cc7b" d="M229.3 429.7l26-16L268 409l-20.2 22.5" />
    <path fill="#1f4912" d="M677.2 624.8l29.3 88.2-112-32 57.7-13" />
    <path fill="#021400" d="M223.2 412.7l-31.8-4.4-16-83.5-40 93" />
    <path fill="#5e9c5f" d="M957.5 187l-3.2-51-33.6 15.4 3 29.6" />
    <path fill="#cd48e1" d="M223.3 315l-1.7 9.5 46.8 9.4h-4" />
    <path fill="#cc70b4" d="M478.5-31L435 13.7l-72.7 19.5-10.8-11.6" />
    <path fill="#9f0987" d="M476 340.7l-1 14.7-15.8 43.3 14-2" />
    <path fill="#1f4500" d="M21.8 335L110 491.7l5.5 83.8-86-153.4" />
    <path fill="#154200" d="M700 280.4l-6.2 29.3 80.5-72.3-27 5.4" />
    <path fill="#000a00" d="M588.3 269l16.6-48.5-23 47-8 18.8" />
    <path fill="#f8c4c2" d="M289.5 288.8l12.7-9-5.6-9.7-8.5 13" />
    <path fill="#8b954e" d="M461.7 156.8L447.5 187l-20.3-29 23.8-.8" />
    <path fill="#b6418e" d="M309.3 68.6L344 38.3l21.7 2.2-46.5 58" />
    <path fill="#fc81ff" d="M562.2 272l-2 15.7 23-28-46.3-16.3" />
    <path fill="#f4dff9" d="M589.7 246L577 220.4l-9.2 55.6 11-18.6" />
    <path fill="#4a3c08" d="M1016.8 37l38.2 90.5-36.4-42.6-28.3 22" />
    <path fill="#86b79d" d="M785.4 148.7l10.2-5.7-30-80.8-8 24" />
    <path fill="#e4388e" d="M318 375.6l33.2 17.3-61-44 3.8 7" />
    <path fill="#da1093" d="M452.6 311l-22.6 6.5-24-30 51.6 43.5" />
    <path fill="#a933a4" d="M258 303.5l-2-28 26.8 38.7-25-19.3" />
    <path fill="#ff55f9" d="M298.5 306l-32 43.3-11.4-18 46-39.5" />
  </g>
</svg>