<svg width="1024" height="682" viewBox="0 0 1024 682" xmlns="http://www.w3.org/2000/svg">
  <path fill="#515d3a" d="M0 0h1024v682H0z" />
  <g fill-opacity=".5">
    <g class="SVG--0">
      <path fill="#ff59f3" d="M204.5 482.24l430.74-127.02L478.177-31 327.446 3.676" />
      <path fill="#001d00" d="M484.886 362.296l554.34-203.44-10.21 410.592-218.43 88.13" />
      <path fill="#002e00" d="M378.718 171.075l-209.902-53.457L-31 689.858 287.73 254.78" />
      <path fill="#ff53dc" d="M416.448 171.95l112.488 68.23-196.67 270.684-147.86-168.632" />
      <path fill="#ff65ff" d="M1035.783 713l-1.32-84.72-158.945-14.07L806.032 713" />
      <path fill="#92f1ad" d="M623.95 452.66l-131.072-13.734 20.962 119.82 127.425 47.942" />
      <path fill="#74de5e" d="M37.62 152.802L106.052-31 213.17 40.437 80.957 390.6" />
      <path fill="#399107" d="M511.105 146.78l-177.268 1.336 679.86 249.596L636.795-31" />
      <path fill="#7b004c" d="M341.083 419.886l144.35-118.823 153.8 65.663L377.82 533.79" />
      <path fill="#014600" d="M-13.228 199.58l-5.345 364.46L237.077 713l-9.6-278.35" />
      <path fill="#86e6bb" d="M839.5 63.548l-56.975-30.9-42.556 37.087 101.574 242.91" />
      <path fill="#87f6b8" d="M500.937 596.813l-75.103-60.89-29.49 36.61L468.53 713" />
      <path fill="#001900" d="M959.7-10.793L1023.396-31 1055 582.832l-263.454 21.604" />
      <path fill="#28760b" d="M930.802 37.58l-312.35 275.802 51.507 142.702 296.322-88.76" />
      <path fill="#ff52cb" d="M428.183 164.578l-222.215 214.85 436.45-15.203L556.8 254.098" />
      <path fill="#3a001e" d="M543.734 294.052L419.26 379.346l-57.03 47.626L485.077 584.75" />
      <path fill="#003e00" d="M291.46 270.844l-153.794 119.19-14.577-291.11 88.672 44.37" />
      <path fill="#e76ebf" d="M240.353 69.237L336.545-31 552.93 48.864l-63.247 70.48" />
      <path fill="#36911e" d="M536.668 713l-339.07-309.82L231.963 713l586.934-198.887" />
      <path fill="#bba6a0" d="M304.7 519.507l109.597-66.71-32.186 79.5-83.166 67.39" />
      <path fill="#baecd0" d="M-31 671.093l124.696-39.146-60.823-4.59-51.264-93.785" />
      <path fill="#010" d="M211.067 398.964l88.768.443-186.813-49.728L-31 611.795" />
      <path fill="#ffd4c1" d="M205.005 426.534l168.438 16.01-79.49-32.066-98.713-16.918" />
      <path fill="#a18559" d="M259.95 13.004l361.726 243.992L377.03 183.5 276.61 271.784" />
      <path fill="#001400" d="M829.69 657.082L785.467 713l-89.976-281.013L1055 377.414" />
      <path fill="#002b00" d="M437.94 713l-57.087-138.664 51.232-129.42-129.59 250.376" />
      <path fill="#283d00" d="M816.378 302.588l-246.752 47.604 34.92-74.465 74.41-232.646" />
      <path fill="#f887e6" d="M639.107 292.99l-164.372-25.73 127.968-50.146-69.346 156.676" />
      <path fill="#67b673" d="M956 123.026l-66.217 32.13 21.91 60.34 74.668-33.83" />
      <path d="M437.676 500.764l-.15 43.394 88.77 66.39-42.85-125.978" />
      <path fill="#065f00" d="M10.507 369.2l35.645 6.536L54.272-31-31 20.2" />
      <path fill="#ff3df5" d="M1055 680.77l-131.618-38.663-28.192 5.973-154.925 63.403" />
      <path fill="#9e8622" d="M864.425 585.23l-18.033 12.026-5.48 43.83L1055 625.838" />
      <path fill="#62a277" d="M813.128 83.684l-61.13 127.184 115.288 129.9 2.743-79.177" />
      <path fill="#98c0a5" d="M576.417 576.91l22.928-107.557-167.703 26.284 7.457-36.05" />
      <path fill="#df9896" d="M255.32 466.5L219.676 303.44l50.13-38.706-48.895 199.786" />
      <path fill="#1b622f" d="M613.143 713h156.104l31.17-208.862-123.573 22.555" />
      <path fill="#0a1600" d="M986.982 127.348l49.866-147.638L855.97 93.092l6.343 40.27" />
      <path fill="#ff6bce" d="M441.635 444.153l45.382-106.94-15.094-9.715 28.91 28.068" />
      <path fill="#57a80b" d="M815.92-7.458l149.61 43.792-119.707 63.83-48.863-73.56" />
      <path fill="#68b765" d="M196.916 102.61L370.5 14.347 377.137-31 93.644 68.897" />
      <path d="M611.835 206.415l-46.575 84.497 21.64-16.576 53.835-69.262" />
      <path fill="#fa7df1" d="M584.87 304.37l-267.387-87.75 115.768-37.64 124.187 80.74" />
      <path fill="#68ac5d" d="M38.64 75.81l17.206 277.625 51.106 33.884 39.094-174.48" />
      <path fill="#acdfcd" d="M760.148 100.18l27.13-44.555 43.92 26.803-7.93 76.804" />
      <path d="M1036.27 577.586l-9.023-5.25-3.71-230.575-211.364 230.787" />
      <path fill="#c0016f" d="M427.284 376.968L415.22 258.57l-77.27 32.46 215.008 22.154" />
      <path fill="#ffadd4" d="M652.28 333.48l-62.62 12.268-11.524 27.374 52.996-12.015" />
      <path d="M-31 562.214l92.156 34.3 4.803-57.33L47.716 409.46" />
      <path fill="#79b86d" d="M30.443 409.452l-.29 4.116L-11.48 296.15 3.764 478.333" />
      <path fill="#426d00" d="M185.238 470.624l137.916-15.77L176.932 638.59-3.686 619.35" />
      <path fill="#ffb5f5" d="M295.058 424.87l13.97 65.216 59.68-30.835-150.133 4.704" />
      <path fill="#546e0a" d="M556.426 249.143l40.973-43.14 216.564 39.123-265.84-153.94" />
      <path fill="#005100" d="M894.203-31L487.853 4.942 673.08 19.366l29.056 30.7" />
      <path fill="#58b752" d="M288.172 599.102l82.434 13.846-26.46-122.92-48.646-4.742" />
      <path fill="#b0b267" d="M538.637 132.87l-3.593 114.064-82.518-33.862-43.305-73.705" />
      <path fill="#889000" d="M512.055 541.98l8.54 84.66L566.808 713l23.272-81.85" />
      <path fill="#004200" d="M230.408 361.53l-93.977-44.286L251.17-23.612l-39.493 358.316" />
      <path fill="#020300" d="M513.158 440.113l-91.653 25.304-43.948-37.935 204.168-8.925" />
      <path fill="#00020b" d="M729.073 315.32l67.137 1.178-3.317-89.632-84.19 56.394" />
      <path fill="#fd6bf7" d="M408.68 448.326L379.2 475.35l2.73 44.5 12.416 2.013" />
      <path fill="#fa93c7" d="M653.603 273.674l-47.042 43.91-.452-66.16-70.203 71.826" />
      <path fill="#ff40e7" d="M413.788 316.993l-18.602 98.494 48.72 3.02-245.512-42.804" />
      <path fill="#307400" d="M604.286 494.377l14.984-132.19 301.772-78.8 65.855 44.312" />
      <path fill="#a2d770" d="M96.054 19.83l21.197 54.134 62.2 4.34L181.467-31" />
      <path fill="#596000" d="M170.392 424.234l53.416 151.952-1.144-125.35 69.28-18.457" />
      <path fill="#ffe6ff" d="M578.073 273.056l-36.07-18.05-17.56 17.942 71.522-59.566" />
      <path fill="#e747c5" d="M458.362 9.004l-78.993 10.34-57.136 77.036 178.498 29.916" />
      <path fill="#320925" d="M573.022 308.37l49.89-25.226-68.772 84.22 47.867-29.768" />
      <path fill="#103100" d="M967.42 622.85L647.443 384.394l-132.298 59.357-17.744-65.637" />
      <path fill="#876068" d="M552.775 133.252L580.7 82.965 477.92-31l40.484 171.43" />
      <path fill="#ba5aa1" d="M445.74 458.094l34.687 31.987 10.327-52.943-83.838 113.95" />
      <path fill="#f5c900" d="M177.245 342.247l11.013-9.907 27.715 28.016-29.57-2.642" />
      <path fill="#c5af5c" d="M1014.004 590.753l-44.59 31.254 15.84 46.52 68.745-40.954" />
      <path fill="#ffed57" d="M294.2 229.508l-22.854 6.457 13.652 21.422 16.177 9.235" />
      <path fill="#3f421f" d="M329.2 234.305L229.54 71.198l18.597 151.108 31.422 8.257" />
      <path fill="#d126ad" d="M585.95 384.987l-15.358 16.876 37.803-1.408 18.557-14.407" />
      <path fill="#fac6f8" d="M311.988 388.933l-97.475-16.337-11.54-15.957 69.83 4.862" />
      <path fill="#579a26" d="M536.673 39.154l62.96 128.515L686.06 61.54 607.21-31" />
      <path fill="#69a858" d="M633.85 476.86l29.544 29.955-27.02 133.578-106.984-67.336" />
      <path fill="#5f8600" d="M117.54-17.908L62.81 101.616l-41.283 7.69L50.322-1.075" />
      <path fill="#ffe7fe" d="M249.996 420.53l24.51 7.525-86.897.902 55.36-29.522" />
      <path fill="#165700" d="M300.21 307.83L139.832 105.207l-6.986 136.58 143.82 1.487" />
      <path fill="#000400" d="M1023.045 170.507l9.666 121.656-81.025.14-17.732-69.31" />
      <path d="M468.722 511.052l73.5 96.61-99.95-56.626-9.48-63.232" />
      <path fill="#8bc1a4" d="M425.635 666.203l47.703-61.826 13.462-19.914-66.427-55.77" />
      <path fill="#fa5ac9" d="M488.104 407.27l22.018 13.97-26.143 7.305-6.376-5.663" />
      <path fill="#fffa89" d="M424.254 393.596l9.156 32.516-19.473-14.384.48-5.35" />
      <path fill="#ae9671" d="M941.606 29.717l-57.794 3.832-4.24-64.55L943.05 8.153" />
      <path fill="#061800" d="M574.575 229.586l17.842-62.606-38.183 64.817L560.956 249" />
      <path fill="#85790e" d="M1018.073 48.3L1055 198.51l-56.64-74.085 5.773-49.125" />
      <path fill="#1f5800" d="M283 400.683l24.598-4.304-117.87-23.496 35.433 25.782" />
      <path fill="#1f660f" d="M219.89 606.185l74.055-116.235L-9.042 713l294.586-.32" />
      <path fill="#004f00" d="M1055 326.41l-118.496-73.363-27.35 138.624 128.992 13.55" />
      <path fill="#002800" d="M403.338 652.796l-24.223-55.578-52.636 70.292L424.41 713" />
      <path fill="#a89012" d="M422.572 182.138l-46.08-38.767-21.268 66.546-63.993-28.18" />
      <path fill="#040" d="M179.19-31l18.822 52.55 23.063 27.627 40.43-79.087" />
      <path fill="#c2079b" d="M516.925 281.15l55.49 86.9-71.04 11.236 72.7-110.634" />
      <path fill="#122c00" d="M-29.868-7.793L-31 227.46 48.58 10.437 173.337-31" />
      <path fill="#3b9052" d="M422.208 713l-33.706-170.227L475.465 713l28.64-124.95" />
      <path fill="#fb32d3" d="M264.848 470.157l105.41-34.623L222.824 315.44l148.887 69.686" />
      <path fill="#7b5265" d="M276.78 65.797l-19.547 117.74 56.542 2.602 97.39-45.848" />
      <path fill="#ff46fd" d="M435.31 257.745L318.993 283.13l66.736-76.996 70.714-26.204" />
      <path fill="#1c0001" d="M434.747 419.653l-8.79-26.517 54.96-44.52-98.144 200.515" />
      <path fill="#001400" d="M184.37 438.063l18.68-66.674-75.748-75-10.777 220.063" />
      <path fill="#d729a6" d="M330.405 510.224l3.414 12.8 51.57-35.83-27.492-3.79" />
      <path fill="#81bb91" d="M547.57 448.122l75.11 41.032-32.645 84.323-99.993-141.074" />
      <path fill="#194700" d="M166.378 499.763l17.97 91.582L69.81 568.9l-81.166-273.615" />
      <path fill="#f9b116" d="M327.156 437.108l-7.35-22.975-31.65-1.45-11.492 3.56" />
      <path fill="#ffd10b" d="M599.915 213.56l4.014-7.99-28.73-5.08 15.538 25.036" />
      <path fill="#32763c" d="M689.527 36.246L921.223-31 750.713 70.824l95.76 325.627" />
      <path fill="#ff5afe" d="M496.852 311.953l57.755-103.834.206 79.79-70.32-10.46" />
      <path fill="#ffacee" d="M316.86 419.642l-86.94 30.805 55.264 8.32 21.506-89.72" />
      <path fill="#5f081c" d="M1047.53 78.3L961.976-25.644 935.95-4.155l12.105 41.8" />
      <path fill="#669125" d="M518.463 217.424l-37.596-13.688 135.69-154.913 62.322 29.717" />
      <path fill="#181100" d="M497.92 380.016l-33.09 16.144 34.738 3.762 186.322-33.664" />
      <path fill="#418f2f" d="M277.785 73.606L139.517-31l66.98 85.924-36.225 96.444" />
      <path fill="#f0a7ae" d="M467.988 191.277l58.702 57.26 13.643-52.693-71.867 91.84" />
      <path fill="#1b3200" d="M667.58 277.47l-15.395 3.555-60.535-45.912 25.88-73.593" />
      <path fill="#ffd5c7" d="M338.507 271.044l-12.613 95.388-11.24-67.314 36.61-9.967" />
      <path fill="#ff5bff" d="M233.828 303.982l28.907 56.947 47.132-70.64-45.56 18.196" />
      <path fill="#327c04" d="M762.022 235.148l-7.343-104.41-52.558-20.074-59.32 177.056" />
      <path fill="#002500" d="M206.53 335.107l51.152-122.62L124.022 319.5l128.556 40.355" />
      <path fill="#ffde29" d="M615.47 241.806l-11.223 12.334-2.378 19.483 17.987-17.698" />
      <path fill="#85ba76" d="M68.643 80.67l-9.52 215.186 52.806-44.813 10.365 12.91" />
      <path fill="#bbd7da" d="M-12.402 645.728L-31 602.344l93.962 44.612-29.506 3.91" />
      <path fill="#1c752d" d="M275.308 713l97.036-176.076 48.72-36.26-.265 57.808" />
      <path fill="#0e1900" d="M578.902 351.26l50.912-19 9.316-23.714-70.343 28.237" />
      <path fill="#eebc2e" d="M236.286 294.408l-3.005 50.13-10.685 27.992-1.78-72.266" />
      <path fill="#000400" d="M500.643 475.716l-42.99 13.428 13.904 85.876 27.408-152.414" />
      <path fill="#b1488c" d="M339.487 33.626l144.71 123.706-188.518-57.57 9.87-66.497" />
      <path fill="#001508" d="M786.63 579.652l76.76 65.697-23.132 21.325-77.633 9.196" />
      <path fill="#1a4b00" d="M569.48 692.146l129-9.56-29.638-54.786L550.6 713" />
      <path fill="#517f2e" d="M69.267 591.637l-87.07 17 198.59 56.185-111.94-101.838" />
      <path fill="#2a7430" d="M518.333 406.396l74.022 71.56 32.032-20.723-59.794-54.004" />
      <path fill="#042d00" d="M664.275 500.83l79.168-88.722 218.668-33.184-254.187 164.64" />
      <path fill="#45001b" d="M381.827 500.065l-37.71-19.206 73.394-36.78-44.927-53.406" />
      <path fill="#ffbec9" d="M431.776 472.974l14.772-.53 8.324 23.392-19.733-9.354" />
      <path fill="#e2ba00" d="M203.462 388.765l-6.816 12.432 5.937 41.624 11.435-40.8" />
      <path fill="#f92dc3" d="M373.648 306.146l-46.618-49.622 8.438-68.834 64.115 119.305" />
      <path fill="#7ead41" d="M385.052 574.49L251.634 459.907l113.047-11.524-61.008 18.742" />
      <path fill="#094905" d="M136.617 159.167l160.592 110.25-73.562 16.573 46.175 33.273" />
      <path fill="#687100" d="M483.99 487.26l18.136 30.93L591.266 713l-108.8-194.507" />
      <path fill="#670033" d="M555.356 295.66l-15.72 21.65-61.173 80.98 46.217-99.448" />
      <path fill="#ffd056" d="M314.273 346.493L286.66 321.33l.418 2.963-15.01 10.494" />
      <path fill="#bb71ac" d="M460.005 454.908l25.82 27.68 4.884-28.293-22.5-9.402" />
      <path fill="#40000a" d="M420.294 467.138L406.13 358.645l29.45 46.637-42.883-15.708" />
      <path fill="#356741" d="M663.528 600.767l107.986-89.363 24.958 34.2-66.556 146.89" />
      <path fill="#3a8b27" d="M58.512 122.143l-60.826 28.365 81.882 259.237-24.67-175.39" />
      <path fill="#2d682e" d="M905.623 112.306l-79.78 39.873 48.468 151.383 50.477-72.322" />
      <path fill="#3b8846" d="M198.852 590.204l41.215 70.363 91.668 9.903-34.443-136.973" />
      <path fill="#328601" d="M661.293 402.705l266.914-33.294 12.345-59.18-51.37-18.142" />
      <path fill="#e31ad0" d="M266.54 267.742l46.554 60.086-71.156-44.662 26.8 45.598" />
      <path fill="#2e6f24" d="M31.936 364.492l63.98 53.524 25.61-68.918L149.12 245.7" />
      <path fill="#faae62" d="M341.372 191.9l7.648 6.995-39.798 11.362 11.462-39.656" />
      <path fill="#000400" d="M1055 526.192l-65.26-150.514-145.745 59.972 76.502 176.495" />
      <path fill="#3f5c00" d="M551.8 205.49L666 195.36l-127.356-15.046-2.922 70.584" />
      <path fill="#ed52b8" d="M467.667 371.542l7.29 40.035-33.238 21.348 55.724-78.554" />
      <path fill="#b35716" d="M401.05 348.6l27.417 2.38 12.508-48.865-13.012 27.708" />
      <path fill="#000100" d="M568.37 281.466l26.625-40.557 21.745-14.763-37.317 56.857" />
      <path fill="#712e76" d="M803.86 698.73l47.105-20.53 16.917-47.612L756.196 713" />
      <path fill="#8e0b42" d="M410.21 284.406l-7.762 25.294-10.786-21.283 13.724-37.93" />
      <path fill="#f3a7cc" d="M395.79 189.572l56.88-12.505 14.235 113.596 39.743-9.696" />
      <path fill="#ea24c7" d="M327.785 487.66l23.292-159.09-31.566 121.006 58.4 15.313" />
      <path fill="#002300" d="M761.44 30.274L610.513-11.06l306.58-9.508-143.66 17.773" />
      <path fill="#8c6364" d="M467.734 156.033l5.932 102.52 16.895-60.484-37.225 34.75" />
      <path fill="#001000" d="M9.55 470.874l85.387 54.03-38.55 78.996L-31 554.488" />
      <path fill="#ff81ff" d="M237.547 417.12l28.978 16.814-58.724-34.03 121.796 1.988" />
      <path fill="#ff7" d="M553.823 302.576l24.815 7.452-13.173-23.796-11.416 15.323" />
      <path fill="#e752fd" d="M281.996 335.815l-75.35-25.047 39.704 27.2 38.072 25.366" />
      <path fill="#ff8bf1" d="M457.786 347.803l-46.346-74.09 25.16 1.022-1.3 75.3" />
      <path fill="#334d00" d="M734.956 435.11L652.43 323.957l-31.772 53.09 33.26 133.772" />
      <path fill="#db2bac" d="M567.07 345.034l70.223-47.16-105.656 41.787-113.123-106.6" />
      <path fill="#4d5800" d="M220.537 401.234l-77.8 72.985 143.927 85.568-93.296-148.64" />
      <path fill="#074100" d="M1055 218.145L930.69 39.1l-89.944 65.198 119.506 30.088" />
      <path fill="#19000a" d="M454.065 420.84l4.5 8.613-48.454 75.01-14.846-25.42" />
      <path fill="#5c0020" d="M465.678 369.02l-6.345-44.742 16.525-2.934-10.5 44.935" />
      <path fill="#ff3ada" d="M421.095 518.95l-1.006-5.716 15.372-9.305-1.074 23.746" />
      <path fill="#002e00" d="M-25.607 315.028l66.663 62.298-4.07-86.432-37.75-24.002" />
      <path fill="#3e0018" d="M361.086 470.476l62.322-25.446-89.843-2.546 58.512 22.87" />
      <path fill="#063200" d="M247.503 713l-27.727-77.077-30.56.14L164.702 713" />
      <path fill="#559659" d="M921.86 193.45l49.742 6.246 6.93-60.693-63.75-4.792" />
      <path fill="#57453b" d="M258.05 104.213l28.856-15.363 29.298 164.502-66.86-73.83" />
      <path fill="#ff5eff" d="M398.706 418.997L315.113 292.88l69.66 67.69 6.48 29.384" />
      <path fill="#9f921f" d="M379.584 198.91l-2.25-65.353 32.135 62.53 30.897-71.867" />
      <path fill="#a01e66" d="M507.31 356.18l1.207 46.044-34.404 21.573 95-100.396" />
      <path fill="#141610" d="M213.27 301.988l36.94 21.204-3.916.145-59.52-17.988" />
      <path fill="#599c68" d="M775.788 35.558l-22.056 47.107 39.918 101.3L716.393 55.58" />
      <path fill="#6db97b" d="M487.21 484.597l22.037 56.454-8.68-106.523 53.426 30.035" />
      <path fill="#ef6cd3" d="M472.334 88.302L369.11 53.54l47.553-49.256 67.074 53.034" />
      <path fill="#ffb6f6" d="M597.918 291.11l10.534-46.078-25.963 43.503 36.475-5.63" />
      <path fill="#fad613" d="M348.31 290.51l2.21 15.818-18.79-24.33 14.727-.595" />
      <path fill="#dd75d7" d="M411.632 516.202l-28.99-41.872 35.364-32.256-45.213 80.64" />
      <path fill="#001b02" d="M472.18 440.444l86.015-9.188-53.634-23.376-2.71 59.532" />
      <path fill="#fd1ed4" d="M480.812 317.848l-39.16-82.787-126.95 48.064 109.72-19.08" />
    </g>
    <g class="SVG--1">
      <path fill="#fb86f1" d="M461.873 230.418l-24.178 105.98L485.322 194.3l-10.1-11.78" />
      <path fill="#8e4500" d="M384.905 528.666l-25.796-11.73-.22 4.782-1.46 26.13" />
      <path fill="#054600" d="M224.45 92.817l34.72.183-39.396 157.19-110.418 90.488" />
      <path fill="#236400" d="M595.874 61.968l-7.12-3.37-.764-69.055L462.812-31" />
      <path fill="#ffc3fb" d="M238.618 445.405l-10.375 13.245-8.21 9.568 95.678-26.392" />
      <path fill="#000500" d="M452.295 478.73l35.426 5.236-56.18 52.258 79.907 67.418" />
      <path fill="#e7b821" d="M433.52 486.147l17.605.505 10.683 1.926-9.873 11.27" />
      <path fill="#ffc6ff" d="M593.216 218.464l-11.192 2.192-36.007 103.487 15.77-20.88" />
      <path fill="#1e6b09" d="M496.258 595.96L507.988 713h43.62l-38.973-114.31" />
      <path fill="#fae06d" d="M416.93 296.644l-26.892 8.46 4.75 10.206 14.61-4.57" />
      <path fill="#0e3f0c" d="M761.33 175.13l.368-28.876-16.157-35.07-22.607 27.525" />
      <path fill="#4e6a00" d="M265.537 432.177l-83.764 5.402 62.765-13.91L140.7 504.807" />
      <path fill="#ffd992" d="M513.315 267.02l13.388-57.91-2.555-15.05 17.145 5.455" />
      <path fill="#e26389" d="M310.7 251.736l-14.9-19.92-5.947 54.266 29.05 62.382" />
      <path fill="#062700" d="M995.947 594.255l-236.473-176.98L806.3 570.82l157.82 30.972" />
      <path fill="#22000b" d="M511.856 342.004l-55.94 125.387-79.428-47.657 77.767 14.88" />
      <path fill="#1a3100" d="M666.89 252.71l-23.436 140.41 1.625-157.716-52.29 54.394" />
      <path fill="#ffb3b8" d="M607.187 337.24l32.424 2.54 2.792 12.06-37.518 17.142" />
      <path fill="#ffed13" d="M487.996 177.147l-19.397 2.7-.586-10.33 7.77-8.196" />
      <path fill="#fc45ef" d="M552.083 257.198l-54.472 52.01 11.013-106.555 21.92 94.19" />
      <path fill="#d2049c" d="M486.578 340.024L313.175 422.41l93.925-34.983-16.016-33.326" />
      <path fill="#ea59b2" d="M500.647 366.64l-55.468 50.777 17.398 7.824 23.485-80.704" />
      <path fill="#57882b" d="M646.435 650.542l25.6-38.152-136.084-44.82 45.727 124.335" />
      <path fill="#cf6caa" d="M1006.165 679.76L1055 656.223l-175.968-28.076-4.253 7.836" />
      <path fill="#ad9899" d="M269.09 76.375L341.78-31l98.4 19.32-87.837 40.6" />
      <path fill="#060000" d="M996.088 25.168L966.29-31H1055l-4.048 113.413" />
      <path fill="#f942f5" d="M833.117 699.552l54.225-36.342 78.842 2.83L978.62 713" />
      <path fill="#6c8d65" d="M-29.395 621.28l42.627-42.886 41.66 76.585 56.06-30.523" />
      <path fill="#e465da" d="M225.813 335.728l-19.46-5.823 9.995 12.62 19.84 7.27" />
      <path fill="#1f4d02" d="M287.724 543.583l-168.51 46.494 131.47-76.47 25.557-4.11" />
      <path fill="#c12e76" d="M484.767 239.533l20.245 27.156-9.2-36.89-22.945 7.512" />
      <path fill="#84ba7a" d="M11.51 414.414L-31 545.806 2.782 358.682l11.39 48.627" />
      <path fill="#fd8bf4" d="M544.587 219.105l27.866 46.12-60.698 4.31 49.088-56.584" />
      <path fill="#c40f79" d="M289.47 363.898l159.73 68.986-122.85-60.727-34.965-20.53" />
      <path fill="#665b56" d="M379.588 141.246l-51.535 30.343 24.442 23.644 4.433 30.057" />
      <path fill="#eba884" d="M565.052 358.88l-15.19-23.872 22.537-3.274 2.154 11.566" />
      <path fill="#418d4c" d="M501.58 646.706l-5.872 61.668L470.754 713l-70.582-78.466" />
      <path fill="#14431e" d="M891.468 110.038l-22.5 77.558-22.583-19.137 13.9-89.892" />
      <path fill="#3c7c3b" d="M818.63 334.94l62.97-19.825-14.143-26.497-79.466-61.732" />
      <path fill="#ff90d7" d="M599.127 306.642l44.99-34.56-29.06 43.443-13.677-4.022" />
      <path fill="#001900" d="M1055 353.32L969.913 40.698l14.43 136.416-56.696 85.633" />
      <path fill="#f8e600" d="M387.707 167.772l-1.442-9.65-4.73-7.462-13.78 19.508" />
      <path fill="#102b00" d="M556.99 219.608l10.146 17.26 21.8-38.357-26.932-.37" />
      <path fill="#488032" d="M222.335 112.46L115.12 93.21l6.107 108.98 11.11-64.387" />
      <path fill="#fc5bfc" d="M367.238 236.954l-15.34 35.714 109.135-68.03-100.398-10.614" />
      <path fill="#74680b" d="M982.29 646.15l-4.425-26.122 41.822-27.763-87.14 2.567" />
      <path fill="#907269" d="M88.173 594.646l-7.598-29.26-9.404 8.3-4.48 18.86" />
      <path fill="#100006" d="M378.265 451.895l58.6-17.94 66.468 45.448-37.452-31.712" />
      <path fill="#fbbeae" d="M444.64 301.064l62.69-41.515-34.505 5.973L434.2 332.92" />
      <path fill="#0a0000" d="M411.76 510.5l6.31 10.07 28.907-138.286-25.698 65.685" />
      <path fill="#3f7b1a" d="M175.76 570.118L-3.484 713l-3.427-59.177 166.69 5.246" />
      <path fill="#f7d700" d="M196.747 337.374l-2.19 11.396-1.905 11.57-15.865-11.774" />
      <path fill="#f31cc0" d="M413.362 349.142L311.75 229.134l88.07 65.168-52.347 59.368" />
      <path fill="#ffc6d8" d="M471.174 466.523l-.647-6.784 18.356 12.7-4.55 5.384" />
      <path fill="#e217d0" d="M293.2 325.538l-43.18-31.916 3.45-17.455 65.815 59.48" />
      <path fill="#f739e2" d="M565.393 257.793l-54.507 25.317 89.123 10.78-25.435 19.978" />
      <path fill="#142904" d="M591.892 224.276l61.54 29.004-76.872 64.28 66.825-43.007" />
      <path fill="#fec301" d="M222.668 329.898l17.673-.137 1.65 10.08-2.263 10.43" />
      <path fill="#ffe1c7" d="M265.337 423.753l25.215-16.177-92.67 12.572.06 10.077" />
      <path fill="#006000" d="M828.913 388.99l151.67-60.92 10.33 27.385-144.203 64.108" />
      <path fill="#67a673" d="M841.297 77.1l12.355 21.194-35.104 113.058-24.91-39.602" />
      <path fill="#126f00" d="M42.306 290.945L41.93 215.6-31 180.396l25.797 100.58" />
      <path fill="#ffca16" d="M410.71 337.247l9.382-1.097.63 27.53-10.703-27.512" />
      <path fill="#5da546" d="M288.002 501.23l10.195 89.437 23.76-68.337 34.953-45.007" />
      <path fill="#4c6003" d="M86.866-31L41.6 118.713 7.898 85.817l24.9-56.662" />
      <path fill="#902e3f" d="M316.482 206.744l37.358-27-20.066-7.25-5.73 69.153" />
      <path fill="#fbd1f0" d="M583.238 258.135l8.052-11.72.183-36.878-44.666 64" />
      <path fill="#b81da5" d="M420.682 489.214l30.11-16.978-14.936-18.232-8.1 88.75" />
      <path fill="#102e00" d="M647.375 358.538l-17.448 64.23-8.716-38.594-59.175-4.638" />
      <path fill="#ffdb78" d="M431.543 407.255l-14.49-9.235 7.325 25.12.548-.817" />
      <path fill="#001900" d="M171.82 444.392L118.11 319.61l105.58 13.016-33.554-83.735" />
      <path fill="#000300" d="M437.175 530.478l85.947 74.05-35.705-81.472-48.74-33.908" />
      <path fill="#f1cf00" d="M429.175 142.752l-6.94-1.783-13.88 12.767 25.132-3.216" />
      <path fill="#84ba92" d="M485.792 649.538l-73.19-23.708-3.594-75.992 51.89 12.044" />
      <path fill="#0e330b" d="M420.106 478.54l-32.71 66.727-11.35 3.954 15.77-29.572" />
      <path fill="#5e780e" d="M193.212 497.292l195.66 37.002-86.852-15.307-40.695-63.51" />
      <path fill="#e3d781" d="M318.85 379.993l-30.97-5.545 4.47 26.074 12.074-22.372" />
      <path fill="#2d6100" d="M58.908 628.3L-31 606.936l212.904 4.56-8.543-155.996" />
      <path fill="#214500" d="M99.417 603.634l32.683-81.768L18.854 343.208l16.274 72.39" />
      <path fill="#5da06d" d="M551.995 426.93l80.32 63.192-130.12-42.755 37.136-7.704" />
      <path fill="#1a2000" d="M204.264 364.63l-2.604-27.635 35.44 12.364-83.918 16.933" />
      <path fill="#c92f2a" d="M340.374 239.805l11.806-5.156 8.872 13.178-43.366-17.652" />
      <path fill="#997363" d="M903.308 632.503l-63.43 22.183 44.04-53.417 128.555 47.003" />
      <path fill="#e31196" d="M502.385 336.524l-62.954-60.03-6.912 14.48 94.79 10.67" />
      <path fill="#ddcd0e" d="M248.055 305.168l.372-1.21-28.75 5.883 9.53-21.1" />
      <path fill="#003900" d="M421.04 713L384.1 594.89l-56.45 48.972L378.41 713" />
      <path fill="#768000" d="M550.417 697.457l48.883-.268-93.947-170.42 28.014 122.486" />
      <path fill="#f391f4" d="M299.152 372.976l-9.158 10.055-89.4-6.81 17.422-20.287" />
      <path fill="#529265" d="M360.624-31L227.507 65.662l9.224-33.518-3.62-17.553" />
      <path fill="#51253f" d="M532.73 363.465l-32.035 117.47L538.4 340.94l22.284-7.347" />
      <path fill="#bd4497" d="M386.123 106.736l52.346 30.652 69.457-23.31 40.092-40.43" />
      <path fill="#7a9039" d="M472.186 182.54l-10.52 39.158L456.9 192.5l-34.855-41.396" />
      <path fill="#ff71fb" d="M281 353.564l7.328.576-13.71-39.39-43.292-15.42" />
      <path fill="#63a421" d="M829.47 24.37l14.62 58.103 66.53-48.483-24.213-16.594" />
      <path fill="#970049" d="M347.61 411.798l19.2-4.296 21.066 44.695-49.186-41.042" />
      <path fill="#9a9484" d="M530.414 177.632l-97.755-22.694 48.882-26.088 39.536-.875" />
      <path fill="#766d50" d="M335.128 144.238l54.233 10.94 11.162 35.587 24.824-73.51" />
      <path fill="#fb6dff" d="M393.943 416.076l-9.43-62.674-40.078 9.498 36.963 29.636" />
      <path fill="#facd49" d="M302.553 255.363l-26.246-5.932-7.814-14.937 18.395.01" />
      <path fill="#3e8629" d="M705.953 171.978l16.898 41.65 30.735 27.008 38.67-84.537" />
      <path fill="#002800" d="M146.69 252.99l112.837 52.98-33.108-38.643-39.805 72.275" />
      <path fill="#384d09" d="M627.684 223.985l-54.59-41.858 144.322-25.683-71.218-62.824" />
      <path fill="#0d0e00" d="M929.51 122.7l44.404-.785 31.883-44.586-18.33-42.844" />
      <path fill="#76ad33" d="M170.893-17.675L56.877 19.735l75.11 99.688-26.74-96.674" />
      <path fill="#385e1b" d="M577.53 439.38l71.127-5.49 13.72 152.853 41.088-45.29" />
      <path fill="#ffc4c3" d="M641.928 276.856l-11.063-.742.652-2.577-2.65 22.366" />
      <path fill="#94caaf" d="M832.68 104.82l-25.78 50.874-36.378-34.528 32.102-68.02" />
      <path fill="#23000e" d="M404.544 392.828l8.857 134.176 20.462-86.414-45.536-63.712" />
      <path fill="#eedb00" d="M569.543 312.657l5.854-10.482-9.006-5.263-6.282 5.066" />
      <path fill="#64002f" d="M441.22 451.167l-16.07-128.18 12.68-4.327-9.9 39.518" />
      <path fill="#011300" d="M225.792 410.016L92.462 447.73l74.67-103.06 18.2 62.176" />
      <path fill="#2e5607" d="M215.353 99.464l71.66 172.4 15.402-6.676-20.297 17.89" />
      <path fill="#f886fa" d="M400.685 237.087l25.895-76.14-2.313 71.08-104.972-16.218" />
      <path fill="#775b61" d="M562.722 52.297l-58.382 82.14 49.37-15.95-71.462-126.57" />
      <path fill="#172900" d="M577.497 349.254l63.634-21.437 15.58-75.422-13.26 36.163" />
      <path fill="#031400" d="M782.93 268.276l-26.625-22.347-29.018 9.688 26.368 77.007" />
      <path fill="#61771d" d="M563.227 104.33l87.19 6.212-31.328 64.666-81.804 16.026" />
      <path fill="#355c02" d="M251.16 398.62l-20.864 3.353 67.38-9.51-80.756-7.756" />
      <path fill="#8d3f55" d="M374.425 515.876l-23.632.718 21.744-15.882 28.827-22.444" />
      <path fill="#d8b301" d="M356.048 205.813l-3.812-12.602-44.88-13.635 51.213 30.054" />
      <path fill="#ff8ee5" d="M376.098 316.354l-53.603 27.92 29.536-25.295-33.71-29.24" />
      <path fill="#516b02" d="M838.592 96.634l106.03-82.92 24.28 37.766-29.074 3.47" />
      <path fill="#fed032" d="M190.95 402.763l24.97.834-5.61-13.653-11.612 6.324" />
      <path fill="#633744" d="M292.735 165.88l-47.308-43.78 86.648 80.147-59.77-16.562" />
      <path fill="#fa3af9" d="M368.898 212.927l2.82-31.693 36.47 74.882 12.99-18.427" />
      <path fill="#e3bd91" d="M301.14 488.982l12.735-27.976 3.08 8.577 12.878 20.472" />
      <path fill="#fb25d1" d="M353.85 431.572l-9.628-54.06 27.833-62.795L311.8 410.5" />
      <path fill="#4b002b" d="M481.226 401.776l32.216-67.996-2.504 5.692 29.555-25.275" />
      <path fill="#6f7d41" d="M400.96 136.545l-15.806 68.31-8.88-24.78 47.615 2.585" />
      <path fill="#8f218f" d="M562.274 381.043l-1.12-27.332 58.564 10.78-52.26 13.06" />
      <path fill="#4d9367" d="M391.332 575.52l26.573-55.126 18.308 26.25-33.166 48.325" />
      <path fill="#083902" d="M570.775 428.785l-20.188-21.065 27.545-8.422 78.24 15.87" />
      <path fill="#4d843a" d="M664.89 571.112l-1.284-58.804-98.02 136.743 102.458-42.335" />
      <path fill="#f2e4b8" d="M288.774 278.555l14.294-6.487-8.607 15.442-9.286-1.962" />
      <path fill="#235703" d="M248.626 79.285L134.592 292.102l9.424-155.855 55.86-4.684" />
      <path fill="#f684fb" d="M539.943 283.182l18.564-78.518-34.71 58.497 16.112-.5" />
      <path fill="#fe5bed" d="M245.725 446.71l106.647-15.87-40.747-17.516 64.705 25.905" />
      <path fill="#f3d100" d="M617.94 253.46l-1.27-4.69-16.17-4.445 9.015 18.96" />
      <path fill="#001200" d="M785.855 665.918l2.967-49.575 61.215-52.7-31.443 110.733" />
      <path fill="#ff4aea" d="M422.367 293.75l-20.24 66.268-27.87-45.853 51.2 16.755" />
      <path fill="#092200" d="M599.43 219.167l50.346 22.64-61.985.875 22.524-45.506" />
      <path fill="#c444c8" d="M599.346 282.437l-50.07 55 39.61-32.872 23.884-22.283" />
      <path fill="#d59399" d="M496.432 426.783l-7.175-17.27 12.908 2.588 5.858 12.377" />
      <path fill="#ff7edd" d="M295.517 458.664l10.835-80.296.02 60.855-39.53 26.353" />
      <path fill="#480040" d="M458.827 433.694l-1.287 39.786 12.11 21.433 4.16-45.372" />
      <path fill="#a5707f" d="M413.455 122.34l-118.092 17.97-18.79-6.302 61.38-46.202" />
      <path fill="#e18d33" d="M294.885 425.148l-7.382-16.272 57.9 39.762-35.49-34" />
      <path fill="#030" d="M221.16-31H164.85l48.576 50.386 90.68-35.24" />
      <path fill="#000900" d="M739.325 442.895l-7.002 50.744 51.014-2.79-8.1-49.605" />
      <path fill="#001700" d="M491.89 455.657l9.814 26.17 5.218-5.18-27.69-10.008" />
      <path fill="#ebc25c" d="M472.778 211.738l60.588 22.96-17.072 3.96L499.6 209.14" />
      <path fill="#eb176d" d="M317.284 333.572l-9.844-13.693-5.86 45.392-3.152-1.62" />
      <path fill="#a01a88" d="M609.484 398.55l16.045-4.355-40.884-8.43-34.536 14.81" />
      <path fill="#308721" d="M569.127-31l102.76 47.99-61.566 22.595-37.923 24.25" />
      <path fill="#316a00" d="M676.76 349.65l240.977 15.06-127.14 64.216-137.31-19.014" />
      <path fill="#d63cb1" d="M318.4 70.838l20.218-15.575 21.968-18.855 92.756 76.702" />
      <path fill="#676800" d="M906.275 591.274l-26.693-11.106-41.384 33.037 23.25 24.103" />
      <path fill="#4d5f0e" d="M534.278 245.243l-2.948-13.76 5.574-9.912 47.628-81.287" />
      <path d="M957.96 270.113l14.016 15.05L1055 192.086l-83.913 12.743" />
      <path fill="#e762e9" d="M422.725 250.41l-91.192-20.807.208-40.565 46.07 56.196" />
      <path fill="#fd54f4" d="M338.024 348.197l39.17 41.453-122.86-55.367-24.248 14.88" />
      <path fill="#547c1e" d="M394.733 441.3l-67.63 16.23-113.084 34.533 114.444-41.82" />
      <path fill="#fc66ff" d="M361.08 497.854l-11.023-5.83-2.515 17.922 10.2-6.97" />
      <path fill="#e2ba4d" d="M252.975 412.22l-4.168 19.488-38.337-2.54 59.38-4.67" />
      <path fill="#45521c" d="M221.914 150.164l112.413 108.112-56.447-36.612.557 12.925" />
      <path fill="#526f1b" d="M756.384 168.465L514.827 192.53l-4.513 49.116 23.52-61.484" />
      <path fill="#191100" d="M338.965 488.383l47.74-29.17 3.41 5.95-33.38 19.72" />
      <path fill="#ea89e5" d="M643.81 350.653l-60.814 15.31 44.353-30.337-58.41 22.368" />
      <path fill="#5aa055" d="M55.234 283.547L48.84 257.52 122.39 286 83.794 331.67" />
      <path fill="#604a46" d="M973.774 622.55l-65.028-24.778-1.248 18.377 6.724 10.097" />
      <path fill="#448000" d="M649.677 228.73l62.238-77.806 27.455 64.692-42.56 40.146" />
      <path fill="#0d2400" d="M595.41 284.08l59.425-14.21-61.303-46.46 33.645 34.253" />
      <path fill="#8f908e" d="M61.39 646.543l10.857.36 14.863-28.747-62.207 11.48" />
      <path fill="#f983de" d="M487.612 378.677l8.82-29.947-31.99 39.468 12.002-8.024" />
      <path fill="#044801" d="M277.493 290.044L169.65 227.626l115.28 4.788-135.897-82.107" />
      <path fill="#fce83f" d="M474.242 274.972l14.107-2.255-10.886-12.686-7.815 3.98" />
      <path fill="#e052dd" d="M429.702 474.43l25.587-5.22 3.127 8.237-24.21 7.643" />
      <path fill="#8b0047" d="M430.057 381.088l-.362 20.146-24.692-25.266-14.264-22.083" />
      <path fill="#eab823" d="M628.156 342.936l13.838-8.425 3.827 18.762-1.82.665" />
      <path fill="#766919" d="M783.574 672.23l17.055 1.127L870.997 713H731.56" />
      <path fill="#2f5b00" d="M870.138 8.157L855.773-31 820.966 3.845l17.875 17.34" />
      <path fill="#526900" d="M271.398 508.92l-84.406-82.675 60.96 6.35-104.458 100.68" />
      <path fill="#d22aa2" d="M346.47 273.53L302.018 223l25.402 12.75 64.795 74.405" />
      <path fill="#e72513" d="M298.35 264.08l-2.186-9.69-10.583 10.316 14.66 2.648" />
      <path fill="#f9c4f5" d="M426.273 288.17l9.516 14.006-2.89-34.083-15.808 3.564" />
      <path fill="#156315" d="M181.43 690.726l130.502-24.97 24.69-41.99L357.892 713" />
      <path fill="#6c9442" d="M489.362 212.208l-18.57 38.54 22.304-75.464 59.317 10.028" />
      <path fill="#519846" d="M524.842 612.886l-12.827-2.694L462.2 713l27.774-129.713" />
    </g>
    <g class="SVG--2">
      <path fill="#001900" d="M197.68 372.026L91.67 492.158l48.383-146.983 80.686 24.276" />
      <path fill="#f473f2" d="M477.61 265.963l33.898-48.39 20.684 56.507-28.43-27.252" />
      <path fill="#fc6cd0" d="M321.597 244.417l-21.412 4.23L368.64 302.4l-36.777-48.59" />
      <path fill="#224a28" d="M764.17 497.86l-108.923 59.244 153.022 34.01-.08-31.478" />
      <path fill="#7e9471" d="M249.95 82.817l36.408 1.76L336.983-31l-64.747 51.577" />
      <path fill="#fd9efe" d="M598.702 281.327l-21.69 16.564 10.345-25.324 18.492-19.96" />
      <path fill="#38714d" d="M729.56 614.5l30.812-9.13-70.17-70.846-4.676 57.728" />
      <path fill="#2f6e2c" d="M846.716 236.212l128.95-39.9-19.225-82.93 37.477 56.058" />
      <path fill="#fc61f5" d="M281.3 445.94l-.518-45.837-45.94 4.416 87.223 33.137" />
      <path fill="#a6055c" d="M394.277 301.148l31.686-36.542-18.48 5.313-11.672-8.38" />
      <path d="M31.238 555.594l12.898-13.914-4.155-79.597L-31 547.077" />
      <path fill="#f520ce" d="M424.842 357.082l4.53 25.852-36.81-45.09L284.18 319.14" />
      <path fill="#6b0031" d="M520.98 307.013l-7.408 47.463-36.63-11.23 37.338-12.923" />
      <path fill="#418a40" d="M255.104 681.69L371.1 532.867l8.183 37-6.258 17.54" />
      <path fill="#76033d" d="M399.346 418.26l-26.234-30.095 22 63.038-39.994-45.208" />
      <path fill="#65a058" d="M525.232 570.058l-14.815-30.235 117.435 52.1-11.676 15.775" />
      <path fill="#880056" d="M443.66 354.385l-16.348 23.155 51.92 10.626-7.215 14.584" />
      <path fill="#f58bbc" d="M502.12 305.236l-33.207 34.55 26.42-11.132-7.162-111.747" />
      <path fill="#f2aad9" d="M376.49 522.94l20.526-50.793-16.214 13.443 17.036 25.242" />
      <path fill="#083500" d="M11.17 84.656L29.43-31-31 103.876l51.488 29.657" />
      <path fill="#cf2097" d="M522.925 351.61l25.562 9.555-30.268 22.087-.812-19.576" />
      <path fill="#003d00" d="M949.816 196.634l26.62 216.25L1055 271.814l-138.807 14.54" />
      <path fill="#a0937f" d="M905.853 24.55l19.16-.92 3.56-15.09L881.16-31" />
      <path fill="#508317" d="M311.03 471.4l-83.245 43.257 65.69-54.8 26.32 12.998" />
      <path fill="#fcd300" d="M584.395 215.58l3.328-16.344 15.873 6.408-9.352 11.983" />
      <path fill="#da5975" d="M439.263 276.894l-8.23 36.553 33.91 38.103-22.628-49.67" />
      <path fill="#ff49ec" d="M474.908 281.87l-48.784-78.74 27.397 109.363 16.056-9.625" />
      <path fill="#fff05c" d="M292.447 225.11l-18.523 17.58 11.56 1.315 9.734-5.187" />
      <path fill="#0b1600" d="M585.012 215.924l-25.365 26.37-5.355-11.743 11.008-20.193" />
      <path fill="#316e16" d="M786.99 264.023L618.95-21.357l-74.01 38.2 124.685-32.056" />
      <path fill="#1e400f" d="M613.683 264.642l196.693 66.543-7.095-56.688-41.56 64.85" />
      <path fill="#f971b1" d="M430.732 530.718l-6.625-4.384-3.666-23.667 13.942 19.882" />
      <path fill="#f6e8ff" d="M588.536 244.77l-9.12-23.917-17.17 30.678 15.95 3" />
      <path fill="#87ae6f" d="M-20.952 574.937l-6.477-22.557 53.59 46.26 1.977 15.93" />
      <path fill="#405018" d="M332.776 235.507l-11.72-22.315-47.012 22.966-35.437-34.873" />
      <path fill="#e5c2c3" d="M319 328.107l23.015 12.112-23.125 5.862-5.756-48.238" />
      <path fill="#143900" d="M109.697 507.092L40.96 610.386-31 540.552l50.613 37.272" />
      <path fill="#396f36" d="M95.323 382.334l-32.716-84.152-20.596 26.34 6.83 60.073" />
      <path fill="#f8dd3f" d="M222.298 332.29l11.2 30.467-15.112-1.01 22.767-33.32" />
      <path fill="#da33c6" d="M268.64 368.95l-75.215-43.265 58.817 28.787 83.488 16.176" />
      <path fill="#609400" d="M84.15 597.864L59.656 593.9l-20.232 24.24 16.484 2.77" />
      <path fill="#7bb98f" d="M576.158 560.655l-68.595-28.1-15.76-26.154 49.61-71.167" />
      <path fill="#275000" d="M140.44 586.388l63.408-184.78-83.505 95.846-100.056-86.577" />
      <path fill="#408a27" d="M121.44 139.89l4.07 93.422 5.794 70.56 18.893-88.146" />
      <path fill="#90c474" d="M155.55 97.08l20.34-46.69-33.085-47.56-25.474 27.696" />
      <path fill="#65ab72" d="M514.104 476.854l41.182 18.086-57.95-26.485 8.69-35.264" />
      <path fill="#143700" d="M669.404 454.726l2.817 96.52 90.107-134.23 139.03-14.004" />
      <path fill="#8b553c" d="M932.692 29.133L944.87 43.97l10.218-23.738-30.167-35.73" />
      <path fill="#ffcbff" d="M231.266 400.077l-19.588 26.303 16.145-1.366 30.89 5.662" />
      <path fill="#356944" d="M-31 486.39l56.134-67.116 6.1 1.28L14.66 479.92" />
      <path fill="#aa1e84" d="M493.013 422.122l-46.51-10.996 20.856 10.314 37.585-30.193" />
      <path fill="#5a8400" d="M48.41 23.985l25.966-33.32L123.36-31 63.208 54.815" />
      <path fill="#ae0da8" d="M411.1 459.592l-24.072 66.872 21.35-73.407 9.542 12.7" />
      <path fill="#ff97c1" d="M557.964 358.63l14.414-13.926-6.723-13.74-28.053 31.64" />
      <path fill="#9e2380" d="M593.135 323.074L575.198 341.7l-12.712-9.44 11.444-18.816" />
      <path fill="#f242da" d="M414.788 206.542l-28.964-34.38 41.453 157.416-24.748-110.666" />
      <path fill="#39000f" d="M430.988 436.517l-16.665-16.49-47.803 6.31-21.097 3.104" />
      <path fill="#e64dc8" d="M343.286 454.71l22.043 15.64-46.973 21.91 2.682-21.646" />
      <path fill="#642e43" d="M296.32 162.698l40.237 12.43-20.657 3.82-14.973 40.142" />
      <path fill="#f6acde" d="M531.398 212.537l-2.53 18.412-4.138-26.672 18.193 17.162" />
      <path fill="#000800" d="M488.347 476.865l-19.886 81.293-30.998-44.378 75.628-41.188" />
      <path fill="#b44aae" d="M902.162 648.905L784.94 713l132.95-90.518 40.938 38.306" />
      <path fill="#ff2cb2" d="M300.677 292.463l-2.485-33.63 40.573 59.085 8.89-9.87" />
      <path fill="#1e0610" d="M569.7 351.99l-75.323 87.286 47.352-1.657-44.428-27.184" />
      <path fill="#fae245" d="M291.244 411.777l-9.983 18.99 3.2-26.422 7.74 1.54" />
      <path fill="#003200" d="M105.185 501.417l46.54-27.964-38.19-80.228-29.222 15.546" />
      <path fill="#ffccf2" d="M452.76 205.106l-6.854 36.813-8.186-6.923 10.705-24.113" />
      <path fill="#000700" d="M981.666 596.063L873.54 532.818l23.214-129.39L1055 450.054" />
      <path fill="#8d5667" d="M281.727 128.273l14.37 41.607 24.448-120.154-39.148 26.812" />
      <path fill="#f0b2fb" d="M449.905 192.438l-9.805-15.093-29.846 36.098 4.343-20.89" />
      <path fill="#579c57" d="M335.293 613.96l-29.763-8.364-25.083-71.797 72.705 17.575" />
      <path fill="#f22cea" d="M402.898 374.8l10.105 24.488-25.133-28.45-18.572-41.062" />
      <path fill="#c71070" d="M461.63 317.502l-42.61 1.464 87.72-14.92-15.235 32.975" />
      <path fill="#fdf25b" d="M280.01 335.37l10.25 7.39 5.123-19.376-11.8 2.67" />
      <path fill="#fcbde6" d="M355.407 321.15l-3.686 6.198-32.726-9.026 2.226-4.292" />
      <path fill="#899d09" d="M511.538 601.022L574.44 713l-43.225-109.093-6.785-2.394" />
      <path fill="#d900af" d="M508.144 309.72l-18.902 35.416 58.965-71.977 14.14 15.112" />
      <path fill="#eed216" d="M324.127 430.71l-13.323-18.53-7.785 15.687 10.698-.33" />
      <path fill="#90c5a2" d="M473.446 572.494l9.333 44.943-69.415-28.406 34.02-28.473" />
      <path fill="#e48f95" d="M469.715 481.63l5.61-6.017-1.328-9.3 21.25 11.203" />
      <path fill="#196318" d="M393.748 591.93l6.758 17.405-46.77 9.988L401.47 507.79" />
      <path fill="#3c4500" d="M948.643 615.473l66.556-30.647-112.297 11.413-66.686-21.013" />
      <path fill="#7caf92" d="M744.1 77.036l99.326-1.923-79.532-20.207 20.872 92.915" />
      <path fill="#f9bffe" d="M210.434 362.49l2.33-5.894 45.24 8.622-29.727 5.512" />
      <path fill="#ffffdf" d="M499.567 224.68l-5.224 3.95-2.61-21.287-5.34 25.108" />
      <path fill="#b5992c" d="M231.78 499.12l-13.436-48.43 23.522 16.877-17.218 6.287" />
      <path fill="#36772f" d="M-31 196.31l78.386 2.213-22.562-123.32 35.355 36.822" />
      <path fill="#74802f" d="M1023.428 87.122l-14.067 22.803 21.288 55.288 5.175 45.807" />
      <path fill="#e201a6" d="M477.605 291.71l16.406-1.684-4.963 22.268-44.322 10.19" />
      <path fill="#ae6a43" d="M416.168 164.486l22.637-33.867-6.106 56.61-8.014-21.87" />
      <path fill="#fde83b" d="M528.353 193.233l-3 23.846 2.162-5.877 16.443-4.584" />
      <path fill="#859d57" d="M486.77 159.736l-3.75 40.41 55.404-30.158 15.846-37.856" />
      <path fill="#f72cdb" d="M395.962 409.62l-50.68-17.033-5.384-81.298-14.1 88.202" />
      <path fill="#6b7635" d="M1055 572.416l-48.314 2.313-22.577 35.607 56.706-12.827" />
      <path fill="#b05e66" d="M504.278 252.01l-8.297 14.125-1.593-36.936-9.337 3.98" />
      <path fill="#4f9454" d="M851.29 289.235l-49.924-38.43-37.166-81.24 103.79 58.088" />
      <path fill="#89bd7e" d="M69.652 209.553L68.26 252.79l35.415-2.282-13.608-46.158" />
      <path fill="#2e4900" d="M205.06 379.878l11.154 17.598L289 395.29l15.258-.353" />
      <path fill="#df88c0" d="M948.366 713l45.556-58.62-.094-17.973 21.606 34.68" />
      <path fill="#2f8e4a" d="M-23.193 608.87l64.66 19.82-25.056-20.74-27.186-29.16" />
      <path fill="#3a0021" d="M535.74 311.043l-6.306 14.74L502 360.317l52.64-61.243" />
      <path fill="#9fa0a8" d="M401.787 523.328l-3.356-5.314 8.572-9.322 3.56 5.102" />
      <path fill="#f3d4e0" d="M311.52 208.632l18.326-9.31-16.198-.52-3.99 7.335" />
      <path fill="#2c4f00" d="M652.985 252.335l-24.506 73.862 39.87 34.586 74.82-106.978" />
      <path fill="#ff29f0" d="M281.013 290.722l29.03 36.252-71.174-12.434 41.974 24.855" />
      <path fill="#ad9c55" d="M966.495 644.033l3.095-20.068 42.23-17.775 38.218 22.954" />
      <path fill="#e545dc" d="M557.326 336.615l-6.413-29.875-29.65 37.868 63.22-38.578" />
      <path fill="#387f00" d="M18.493 263.098l.16-32.292 25.08-34.777 8.04 78.146" />
      <path fill="#0d5404" d="M266.45 210.843l-85.863 9.27 110.528 53.747-8.852 19.082" />
      <path fill="#384c00" d="M1010.4 32.82l-7.217 82.276 33.006 71.44-47.517-55.87" />
      <path fill="#dca751" d="M200.576 426.67l50.353-.796 4.42-.43-57.395 7.25" />
      <path fill="#faa9f9" d="M479.595 250.73l43.53 19-6.32-20.827-29.24 27.296" />
      <path fill="#b15594" d="M383.536 488.35l-35.813 42.33 38.425-31.48-11.906 29.523" />
      <path fill="#e9d200" d="M376 168.783l6.435 2.704 13.137-16.702-24.04 2.008" />
      <path fill="#fa54e3" d="M311.165 407.486l-21.65-3.61 29.555 48.55-32.103 8.2" />
      <path fill="#5d9257" d="M650.387 506.807l-19.565 84.523-6.454-83.49-56.934-78.18" />
      <path fill="#629d5f" d="M952.137 144.37l-22.073-2.002-17.724 33.68 47.672 15.585" />
      <path fill="#3d7b45" d="M860.753 98.37l-36.967 95.912 22.71-119.04 20.873 30.345" />
      <path fill="#d821c3" d="M599.426 321.99l-20.99 7.662 21.622-19.324 28.195-6.58" />
      <path fill="#65a64b" d="M146.236 88.566L112.96 52.17 54.98 81.788l-2.773 81.344" />
      <path fill="#87b990" d="M579.63 459.314l-86.39 25.272-1.46 18.42L621.67 555.53" />
      <path fill="#cf4381" d="M301.67 428.355l-12.13-5.558 53.93 29.07-16.46-22.124" />
      <path fill="#e8e25d" d="M311.473 182.457l3.93 5.096 14.893-1.023.506-11.08" />
      <path fill="#0a140a" d="M512.016 378.958l5.74 62.917 32.966-8.592-45.31-38.874" />
      <path fill="#0c4519" d="M805.1 532.416l-56.838 98.48 48.17 71.394L777.663 713" />
      <path fill="#b383ac" d="M315.19 311.266l6.396 22.275-31.19-38.19 13.373-1.2" />
      <path fill="#f1c61f" d="M527.708 228.927l6.293-1.253-9.164 11.37-12.773-13.504" />
      <path fill="#b7128b" d="M441.51 413.884l21.53-8.092-8.62 17.353-9.4-5.146" />
      <path fill="#4a4737" d="M327.076 243.083l11.317 8.42-23.087-28.76L207.74 107.27" />
      <path fill="#e92ebc" d="M494.38 273.32l25.484 3.82 24.08-81.225-36.077 113.992" />
      <path fill="#0b1200" d="M624.265 248.505l5.226 40.095-20.173-8.422 18.86-16.713" />
      <path fill="#ffad54" d="M443.58 493.55l15.863 3.492L453 477.63l-6.22 2.934" />
      <path fill="#ffe39d" d="M271.925 465.243l7.072 1.356 6.02-13.286-16.375-3.68" />
      <path fill="#210107" d="M458.42 448.683l-109.89-2.86 107.988-12.25 49.355-83.76" />
      <path fill="#fface1" d="M473.18 266.787l-2.29 19.468 27.958-.947-38.4 10.632" />
      <path fill="#c4333c" d="M329.223 221.24l-13.04-5.592-2.158-.998 11.014-21.028" />
      <path fill="#000f00" d="M132.9 404.187l31.52-49.09 45.135 22.297-32.04 40.37" />
      <path fill="#ec80f3" d="M399.137 482.022l-10 42.35-10.89-1.122 10.72-26.018" />
      <path fill="#347222" d="M48.234 652.648l117.627 45.404 11.327-80.672-86.74 25.426" />
      <path fill="#002a00" d="M130.13 377.53l88.357-62.897 24.85-60.503-123.204 83.645" />
      <path fill="#334600" d="M612.07 172.396l-55.426 44.272 64.648-27.717-30.947 52.005" />
      <path fill="#003400" d="M991.44 182.45l-40.56 18.724 104.12-13.75-86.568-68.21" />
      <path fill="#498938" d="M741.017 29.78l-37.962 36.03 10.127 32.83 22.313 5.552" />
      <path fill="#370020" d="M398.433 477.03l66.752-18.203-2.446 29.71-14.092-42.936" />
      <path fill="#e8cf00" d="M190.667 338.47L176.4 348.522l13.742 6.337 9.753-14.834" />
      <path fill="#e35098" d="M474.495 213.328l-39.49-13.32 25.305 24.39 25.026-13.496" />
      <path fill="#f41bb7" d="M409.807 273.693l44.067-19.058L441 301.74l-2.423-72.83" />
      <path fill="#fd7de6" d="M410.383 300.235l27.293 4.924-12.863-24.335-1.244 57.16" />
      <path fill="#fa32e9" d="M330.617 241.94l27.773 34.064 23.838-29.066 19.536 34.815" />
      <path fill="#fff840" d="M416.58 403.24l14.715 6.91-14.674 5.482-2.894-6.818" />
      <path fill="#f4b92e" d="M280.756 422.185l12.154 6.195.11-12.605-.082-9.99" />
      <path fill="#640044" d="M490.315 375.37l37.75-28.22-40.713 44.62 110.28-20.038" />
      <path fill="#310011" d="M463.43 357.365l6.093-33.134V366L412.1 470.292" />
      <path fill="#540134" d="M406.243 278.737l-12.515-17.524 13.89 34.527 1.075-1.234" />
      <path fill="#559b2a" d="M596.787 103.642l86.8-54.964-68.443-21.264-41.346 55.8" />
      <path fill="#fb9fbb" d="M644.346 286.44l-10.542-11.57-18.46 38.237 3.206-19.075" />
      <path fill="#343605" d="M612.782-31l-77.724 52.94-18.71-13.182L423.7-31" />
      <path fill="#f4d7db" d="M350.036 228.035l2.87 2.653-5.242 3.65-12.14 6.044" />
      <path fill="#d647b7" d="M255.48 282.746l18.763 14.46-11.735-33.43 45.207 48.474" />
      <path fill="#d32db3" d="M616.974 349.44l3.64-2.765-90.39 11.568 42.358 2.572" />
      <path fill="#2a460c" d="M159.833 178.36l-27.512-15.404 1.558-43.135 60.893 26.115" />
      <path fill="#4f8428" d="M28.867 406.463l-12.282-4.61-24.743-77.47 31.91 50.474" />
      <path fill="#fba284" d="M376.353 335.81l-.403-7.222 3.866-13.673-10.58.57" />
      <path fill="#f53be6" d="M395.264 411.28l8.697-1.558-19.675-20.65-34.017-78.654" />
      <path fill="#276738" d="M412.35 637.624L461.91 713l-55.626-45.806L387.67 559.01" />
      <path fill="#932088" d="M480.148 227.547l-11.88 21.653 6.91 4.608 5.743-40.15" />
      <path fill="#f3c2ff" d="M595.04 358.573l1.283 4.62 33.148-11.77-26.544 2.618" />
      <path fill="#c15858" d="M538.942 360.886l-17.583-9.202 14.254-10.468-4.272-5.757" />
      <path fill="#1a5412" d="M123.096 300.733l3.127 65.167-24.887 44.934-10.95-4.727" />
      <path fill="#f65ef4" d="M290.183 340.338l-72.55-16.313 3.52-11.264 50.467 50.4" />
      <path fill="#1a2700" d="M657.203 291.978l-40.983 45.24-8.6 4.268-34.124-1.595" />
      <path fill="#70753f" d="M72.383 648.303l13.794 13.23 16.966-56.203-29.704 16.867" />
      <path fill="#667934" d="M279.116 430.556l-80.407 20.936 103.178-22.585-97.233 6.906" />
      <path fill="#e3b375" d="M481.443 344.764l2.723 9.722 7.514 1.508 9.597-4.597" />
      <path fill="#a4007e" d="M326.24 472.55l42.658-26.535-6.178 28.272 18.827-20.944" />
      <path fill="#fff345" d="M250.43 413.936l15.64 2.177-14.517 11.046-1.386-2.682" />
      <path fill="#706453" d="M334.26 192.864l10.397-44.455 9.597 70.916 31.937-91.228" />
      <path fill="#a833a6" d="M239.893 282.57l63.86 45.077-15.457-11-32.525-42.075" />
      <path fill="#4c5817" d="M615.148 174.165l15.164 36.938L689.8 166.04l-50.277-34.673" />
      <path fill="#f711ab" d="M329.718 387.18l55.953 5.875-123.96-31.626 31.196-7.603" />
      <path fill="#690528" d="M410.302 391.34l.47 47.12 6.39-75.823-15.152 7.565" />
      <path fill="#c982b2" d="M386.592 26.425l-48.648 3.336L381.804-31l92.322 10.996" />
      <path fill="#6d244f" d="M417.87 488.148l-45.75-.12 6.302 19.956 25.244-36.095" />
      <path fill="#575e00" d="M489.134 518.992l-13.556-18.352L595.42 713 485.878 496.392" />
      <path fill="#b65d9b" d="M368.446-31l147.48 62.817.642 88.88-34.16-81.96" />
      <path fill="#79b18b" d="M831.715 145.87l2.036-51.09-26.77 75.45-52.426-67.153" />
      <path fill="#ddc3e7" d="M593.264 278.922l20.202 9.175-3.794-6.468-26.09 4.613" />
      <path fill="#ffac9b" d="M519.15 304.34l9.078-7.087-13.06-9.512-2.21 12.13" />
    </g>
    <g class="SVG--3">
      <path fill="#265f16" d="M958.714 129.376l-42.118-12.686-28.823-30.304-4.316 57.416" />
      <path fill="#3a7308" d="M688.79 422.492l-6.02-79.08 169.983 6.18-178.938 70.402" />
      <path fill="#338c0b" d="M874.15 277.144l-43.383 55.316 62.224 34.423 21.276-3.796" />
      <path fill="#3a2f22" d="M596.552 293.438l1.464-3.494 39.52-46.108-46.457 49.3" />
      <path fill="#6d0533" d="M495.146 385.914l34.793-83.4-32.032 43.014-8.4 68.545" />
      <path fill="#050108" d="M430.41 491.898l13.895-4.666-6.812 8.992 44.858 83.196" />
      <path fill="#194005" d="M697.583 697.627l-122.033 3.62 59.883-33.773 41.27-4.425" />
      <path fill="#ff7fe8" d="M318.578 376.555l-13.462 1.65 18.078 32.875-19.43 8.093" />
      <path fill="#030200" d="M437.017 430.063l40.504 6.073 23.207 6.87-.507 15.398" />
      <path fill="#d76d7c" d="M564.42 243.52l-17.386 17.31 6.53-12.26-3.114-17.878" />
      <path fill="#1e5202" d="M646.803 128.704l40.84-53.063.856 70.08 77.01 4.26" />
      <path fill="#f55ef4" d="M260.54 371.784l-63.553-1.076 53.97 12.303 42.197-2.29" />
      <path fill="#400025" d="M966.37-31l46.182 10.882-33.485 51.596-36.5-27.52" />
      <path fill="#557d0d" d="M603.99 111.717l-27.687 93.54-37.163 2.257 34.42-91.3" />
      <path fill="#aacbc2" d="M1.916 619.762l48.844 15.59 6.58 2.685-41.76 9.81" />
      <path fill="#658944" d="M-31 690.05L85.755 713 8.97 652.81l39.232-4.06" />
      <path fill="#e719ad" d="M426.833 384.12l-10.36-8.335 13.722-18.41-12.176-38.646" />
      <path fill="#ef9fec" d="M244.446 433.803l32.328-21.344 24.33 43.97-11.897-29.613" />
      <path fill="#31031f" d="M420.52 432.156l-22.954-49.628-8.18-15.09 48.37 144.646" />
      <path fill="#6b0057" d="M427.718 419.983l79.295 14.962-17.178 3.204 2.778-19.44" />
      <path fill="#778e3d" d="M394.607 164.888l12.154-5.32 8.78 27.405-18.96 5.913" />
      <path fill="#0e0c05" d="M593.75 258.57l-22.63 35.01 14.192-35.694 23.027-40.462" />
      <path fill="#feb2fc" d="M537.056 242.598l.02 33.526 15.11-24.637 2.024-1.847" />
      <path fill="#aa3f7c" d="M396.924 121.046l48.226 30.672-4.25-42.256-36.3 1.08" />
      <path fill="#e0d722" d="M210.212 390.5l-13.956 23.427 10.578 20.507-10.05-38.593" />
      <path fill="#609f6b" d="M417.69 637.535l65.448 22.146-19.95-22.575-61.77-43.688" />
      <path fill="#054706" d="M404.822 523.256l-27.225 9.53.742 21.056 27.07-16.892" />
      <path fill="#004900" d="M-31 271.787l61.985 69.63 13.662-49.1-66.202-65.164" />
      <path fill="#fb81f3" d="M395.62 366.654l-29.3 10.6-4.183 14.93 4.93-45.546" />
      <path fill="#edc500" d="M414.505 143.703l14.857-2.78-5.057 17.85-9.575-9.032" />
      <path fill="#e2a162" d="M294.226 324.14l1.353 15.06 3.42 17.11-13.3-11.43" />
      <path fill="#75a473" d="M573.25 450.38l37.23 103.07 30.41-11.948-6.125-35.172" />
      <path fill="#ff3ae3" d="M358.126 286.56l-7.16 70.536-14.003-37.04 42.642 33.054" />
      <path fill="#937e3c" d="M895.42 594.273l8.972 26.466-57.735 20.75 17.946-23.63" />
      <path fill="#92b29e" d="M590.312 545.197l-99.81-85.787-18.856-4.378 11.425-2.595" />
      <path fill="#fa88fd" d="M334.23 459.492l-26.91 2.24 16.26 6.816 28.07-8.183" />
      <path fill="#140000" d="M450.815 380.304l-25.49 113.84 12.427-101.822 15.813 10.81" />
      <path fill="#e84b9f" d="M428.028 402.965l-5.23 16.974 8.496 4.758-.272-18.934" />
      <path fill="#d762b8" d="M483.393 105.123l22.432-6.76L452.4 6.296l6.08 96.406" />
      <path fill="#002b00" d="M382.5 617.437l-41.296 34.614L408.677 713l.688-29.955" />
      <path fill="#7eb85e" d="M337.844 502.112l2.278-16.096-31.17 1.94 24.408 58.34" />
      <path fill="#250007" d="M495.573 378.962l38.46 27.55-1.565-25.198-61.677 23.2" />
      <path fill="#ff85f0" d="M563.83 323.204l-16.98 5.364 11.868-27.16 15.795 25.113" />
      <path fill="#f5b640" d="M326.433 298.79l2.247-3.838L362.8 282.7l-24.323 2.05" />
      <path fill="#31722c" d="M308.57 520.026l-103.35 56.07L296.78 713l-99.548-97.014" />
      <path fill="#e9bc88" d="M468.592 395.38l2.315 19.757-5.068-10.244-5.544-2.28" />
      <path fill="#eed056" d="M490.292 160.962l-19.57 27.747 12.156-13.525-21.902-10.617" />
      <path fill="#2d4d2d" d="M768.523 217.073l29.47 31.65 22.566 81.1-17.22-14.548" />
      <path fill="#fe62fe" d="M559.07 288.086l14.53-31.725-22.967 6.276-8.702-32.376" />
      <path fill="#207207" d="M108.07 593.46l-45.11 31.91-52.97-6.128 30.086 1.938" />
      <path fill="#94790b" d="M361.285 547.35l2.425 7.302-9.63-30 18.578-5.167" />
      <path fill="#0c2900" d="M872.545 407.985L766.847 434.9l9.124 77.79 80.173 83.69" />
      <path fill="#0c3000" d="M670.305-7.182l72.347-21.935 20.16 36.48L679.28 21.09" />
      <path fill="#fcd5e6" d="M216.61 467.757l8.54-12.144 69.05-8.245-72.89 14.573" />
      <path fill="#fe73ff" d="M479.636 367.173l9.642 1.486-12.068 17.284-7.158-5.322" />
      <path fill="#ffefff" d="M207.11 419.724l24.04-7.966 12.274 9.624-36.85 5.398" />
      <path fill="#003600" d="M252.67 285.846l-12-43.585-128.233 115.696 62.678-124.38" />
      <path fill="#f13aca" d="M327.942 287.816l34.9-21.784-26.37 12.664-43.027-44.86" />
      <path fill="#fd7af6" d="M466.217 246.13L453.1 229.776l15.248-16.386 7.468 14.77" />
      <path fill="#000400" d="M510.445 589.86l-37.63-99.785-41.655 44.95 85.82 65.74" />
      <path fill="#5e9c74" d="M804.885 36.86l17.843 12.604-68.194 23.804-.36-20.91" />
      <path fill="#0c0000" d="M421.36 481.49l-1.438 36.637-11.524-44.12 25.84-48.867" />
      <path fill="#f89b8d" d="M410.5 301.4l13.93 6.766-32.423 11.535-2.615-16.735" />
      <path fill="#697432" d="M590.742 157.256l21.193-35.656 36.302 4.844-32.968 33.976" />
      <path fill="#2b3700" d="M969.24 90.652l4.72-35.84-10.495-24.006-40.402 23.882" />
      <path fill="#f4de16" d="M322.854 412.52l-8.648 18.4-7.568-5.892 6.5-8.978" />
      <path fill="#8d5b6f" d="M518.044 96.463l40.887 11.888L447.687-26.62l67.073 50.987" />
      <path fill="#0c3000" d="M28.83 321.352l9.61 199.12 20.8-105.954L-31 290.306" />
      <path fill="#e81d8d" d="M426.267 266.31l-58.015 11.664 15.51 23.143-37.724-20.235" />
      <path fill="#6a9637" d="M471.78 190.788l-10.93 27.47-1.594-37.187 7.936 6.62" />
      <path fill="#080002" d="M1009.155 32.423L1055 63.373 1040.918-31l-71.04 7.08" />
      <path fill="#1f580a" d="M129.783 538.703l56.845 91.204-23.42 75.892 67.385-158.26" />
      <path fill="#ffb7f4" d="M404.963 456.217l-21.335 49.99.97 9.658 9.857-46.747" />
      <path fill="#0f3700" d="M618.19 378.233l-45.957 8.268-34.228.768L660.38 359.09" />
      <path fill="#336e1f" d="M934.352 212.307l59.983-27.844-125.097 18.287-6.65 86.867" />
      <path fill="#203400" d="M145.923 437.062l56.27-30.236-3.744 11.295-48.67 77.383" />
      <path fill="#f315cc" d="M532.268 298.23L520.68 286.72l-19.61 14.967 31.72-37.614" />
      <path fill="#374e11" d="M84.624 713l-13.228-14.733-30.598-43.856 35.1-5.422" />
      <path fill="#f69df1" d="M535.546 226.8l-11.68-20.25-13.608 73.893 7.108-57.645" />
      <path fill="#418859" d="M750.063 106.856l36.295 45.642-4.758 24.738-4.41 6.13" />
      <path fill="#ff43ff" d="M575.714 286.102l23.923-19.316-12.736 14.332-11.6 18.862" />
      <path fill="#46793b" d="M589.212 441.542l74.653 56.89-110.353-55.677-3.284-13.77" />
      <path fill="#160502" d="M400.515 449.26l75.383-32.338-48.49 34.67-10.447-40.743" />
      <path fill="#6fa85e" d="M190.858 54.903L161.318-31 183.09 95.623l-76.583-8.967" />
      <path fill="#384600" d="M839.685 638.863l11.27-20.573 29.147-44.52-39.587 26.14" />
      <path fill="#45520d" d="M56.39 39.887l15.955 19.39-66.73 40.938L32.345 41.6" />
      <path fill="#f2e1a1" d="M557.808 340.613l2.025-11.478 2.823 2.79 8.68 14.097" />
      <path fill="#f2b1f2" d="M328.967 290.644l-3.522 53.678-11.266-38.27 13.407-13.21" />
      <path fill="#890368" d="M545.753 335.603l-20.62-40.347 12.44 56.22 18.005-16.193" />
      <path fill="#89552b" d="M376.268 491.545l-19.105 24.978-20.577-.207 38.88-14.303" />
      <path fill="#b7169c" d="M402.622 439.19l-69.212 1.837-48.6 19.89 93.925-27.283" />
      <path fill="#230f31" d="M820.02 675.972l-8.245-14.888L853.8 639.7l-3.937 8.417" />
      <path fill="#416d13" d="M564.146 682.76l106.19-57.27-24.685 29.168L576.118 713" />
      <path fill="#346a3e" d="M236.26 13.673l-40.34 25.913 27.26 14.905L290.855-31" />
      <path fill="#0b1a0d" d="M496.625 482.434l-23.1-24.284 7.862 3.28 13.983-4.904" />
      <path fill="#355601" d="M651.83 203.755L697.986 339.5 618.74 208.86l-26.89-36.283" />
      <path fill="#d40a86" d="M409.296 271.333l-23.158-15.595 32.685 13.035-4.313 21.36" />
      <path fill="#9dcfba" d="M763.298 83.71l61.31 54.534-11.833-54.43-43.51 8.913" />
      <path fill="#5c9469" d="M483.072 438.074l19.325-5.77-3.124 26.828 81.342-13.65" />
      <path fill="#574012" d="M1007.37 88.347l-4.722-24.74 2.906-28.272 32.307 49.123" />
      <path fill="#836e6c" d="M307.836 157.303l40.434 11.824 55.563-29.38-26.53-26.515" />
      <path fill="#001801" d="M849.813 549.367l31.985-28.123L1055 557.616l-143.525 47.402" />
      <path fill="#484d27" d="M325.344 254.058L239.16 132.87l21.768 105.354-3.63-36.308" />
      <path fill="#f09da9" d="M284.12 265.304l7.514-9.172 13.05-19.988-12.553 4.177" />
      <path fill="#c5168c" d="M474.538 356.427l-4.106 12.762 56.204-8.174-.045 11.04" />
      <path fill="#899149" d="M446.305 188.764l8.15-22.64-26.762 11.204 3.222-28.67" />
      <path fill="#f39be2" d="M393.64 473.597l17.097-18.043-4.096 12.225-30.298 25.52" />
      <path fill="#967e6a" d="M500.292 276.3l6.083-68.62 7.226-47.07-15.813 107.644" />
      <path fill="#820770" d="M476.402 449.832l-17.13 43.822 12.463-17.122-10.738-30.13" />
      <path fill="#aa7e92" d="M492.213 113.49l16.422 16.624-20.073 26.67-47.383-7.968" />
      <path fill="#92826b" d="M231.185 355.445L262 365.832l-.55-6.2-32.88-9.495" />
      <path fill="#276901" d="M924.063 64.434l-75.012 39.01 6.125-19.028 40.788-22.895" />
      <path fill="#590625" d="M387.385 406.135l-3.136 50.73-29.793-5.58 23.894-15.482" />
      <path fill="#687b17" d="M250.132 503.42l-22.407-30.806 47.838-20.092-21.246 15.43" />
      <path fill="#be05a5" d="M453.618 484.725l-20.27-22.416 21.863 4.66-2.907 13.443" />
      <path fill="#ec4acc" d="M462.375 355.433l92.98-136.586-76.678 118.003 6.856.672" />
      <path fill="#546f0a" d="M235.716 449.913l-76.564 24.89 104.69-39.918-43.87-9.322" />
      <path fill="#fcacff" d="M245.99 443.958l43.474-8.55-30.21 22.822-33.31 3.763" />
      <path fill="#ff51df" d="M482.674 237.444l10.187 70.758-6.91-59.04 27.28-6.31" />
      <path fill="#3b4c02" d="M673.896 527.15l-28.222-35.444-21.388-70.9 40.636 29.805" />
      <path fill="#fe2ee9" d="M399.488 272.316l-45.55-47.62 39.33 74.64-24.728-24.795" />
      <path fill="#1c5028" d="M773.513.22L797.32 21.7l-33.015 9.34-44.195-3.467" />
      <path fill="#f1bbe0" d="M457.443 182.993l-19.866 17.79-19.176-20.81-.7 16.227" />
      <path fill="#f62b76" d="M310.928 289.944l-18.636-4.212 25.14.1-.293 16.827" />
      <path fill="#b12090" d="M334.83 523.515l47.397-46.087-30.523 12.133 8.995 17" />
      <path fill="#fd37ef" d="M313.995 366.96l53.206 25.252-9.27-17.062-21.675-32.044" />
      <path fill="#e42cd3" d="M552.932 253.932l-13.61 18.7-9.593 46.388-9.336 14.244" />
      <path fill="#f151f5" d="M550.347 224.814l-4.004 44.065 10.842-59.124-7.342 3.07" />
      <path fill="#a72cad" d="M582.93 390.8l20.35-8.26 5.915 5.527-11.13 11.568" />
      <path fill="#454d0f" d="M544.737 200.236l54.894 31.813L556 200.127l-23.903 44.983" />
      <path fill="#ffd9bb" d="M642.97 338.33l-12.95 14.09-5.376-5.353-23.51-1.142" />
      <path fill="#4e972f" d="M305.923 485.286l-9.252-25.463-10.812 36.712 3.15 60.96" />
      <path fill="#529545" d="M156.873-31l44.03 90.736-44.6 62.83 73.267-52.134" />
      <path fill="#49863b" d="M854.063 83.433L791.16 37.305 837.58-31l-64.782 17.508" />
      <path fill="#2f490c" d="M669.276 288.666l82.096 49.166-114.68-3.586-17.555 13.265" />
      <path fill="#376e15" d="M105.405 587.295l-23.368 17.593 84.978 68.665 11.58-65.91" />
      <path fill="#b3007f" d="M451.914 372.802l11.727-22.695-6.225 29.558-31.455-65.115" />
      <path fill="#fbb6f2" d="M302.244 376.34l17.422 8.583-102.108-23.95 58.57 7.05" />
      <path fill="#3d763f" d="M813.867 256.97l33.804 32.1-19.682 33.187-78.822-154.753" />
      <path fill="#efb400" d="M282.762 254.066l-6.97-10.99 9.95-2.943 10.73-9.845" />
      <path fill="#366f3a" d="M693.394 653.932l25.893-22.81 62.35 43.016-80.85 14.314" />
      <path fill="#627503" d="M-27.037 654.664L-31 683.094l12.42-8.266 54.122-16.795" />
      <path fill="#64684d" d="M519.205 8.82L475.94-31 579.092 72.446l-33.36 37.67" />
      <path fill="#676243" d="M368.647 160.515l-35.088 31.443 55.03-17.782-4.453 23.6" />
      <path fill="#005200" d="M1003.92 337.26l-187.61 67.493 154.98-26.568-31.958-102.92" />
      <path fill="#b43a91" d="M347.19 78.915l-33.485 7.447-7.538-17.487 35.318-18.237" />
      <path fill="#162506" d="M620.66 287.848l-28.4 16.608 38.408-38.602-3.42-43.366" />
      <path fill="#092b00" d="M225.133 334.49l-40.093-75.366 31.017 101.626-24.552-43.267" />
      <path fill="#f422d2" d="M414.878 287.477l19.873 19.796-25.997 17.054 20.282 15.1" />
      <path fill="#002400" d="M1000.6 415.285l-118.617-17.94 140.416-17.41 25.19 132.365" />
      <path fill="#890063" d="M459.258 391.52l11.4 8.26-1.867-7.157 6.566-42.756" />
      <path fill="#262c12" d="M567.447 226.953l19.364-35.09-21.764 53.906-13.71-11.26" />
      <path fill="#fee858" d="M500.508 210.786l.758.094-.485 14.718-17.488-13.17" />
      <path fill="#e0c105" d="M589.328 222.495l3.784-4.66 14.6-5.868-17.3-13.553" />
      <path fill="#3e6e12" d="M715.14 48.275L679.096 9.027l-5.383 51.3-45.965 72.886" />
      <path fill="#73ad61" d="M54.687 140.927l79.42 124.673L82.133 98.52l-4.61-5.98" />
      <path fill="#ec60cf" d="M446.243 40.992l-54.87-30.817 3.5 68.424 43.52 5.983" />
      <path fill="#ef8fe8" d="M251.152 306.05l40.067 10.8-21.968 1.958-36.276-11.494" />
      <path fill="#467d3a" d="M907.318 216.868l17.033-87.27 28.01-1.346-71.903 38.672" />
      <path fill="#ffc0ff" d="M401.027 455.57l2.314-.517-11.788 25.017 13.715-13.073" />
      <path fill="#e89e95" d="M428.587 299.053l10.33-6.55 3.97 16.18 1.134 10.387" />
      <path fill="#fa43ef" d="M353.247 264.424L322.81 230.73l58.72 42.927 44.82-54.182" />
      <path fill="#c13bd0" d="M276.297 332.14l-54.104-8.704-3.592-3.667-.317-5.435" />
      <path fill="#f432dd" d="M222.373 344.827l44.514 7.306 35.76 13.39-23.242 1.343" />
      <path fill="#133705" d="M771.893 320.227l-78.417-31.305 87.488-58.032-74.413 90.23" />
      <path fill="#c31288" d="M379.197 445.057l-20.914-24.514-13.51-20.268-13.337.343" />
      <path fill="#030800" d="M496.407 473.48l9.673-1.235-34.683 29.803-10.576 1.73" />
      <path fill="#d695a1" d="M486.015 183.643l-18.137 17.35 1.057 24.55 2.13-49.923" />
      <path fill="#a131a7" d="M391.117 507.744l8.115-20.525-13.588 37.973 25.614-42.69" />
      <path fill="#415300" d="M206.39 502.085l-9.95-85.17-26.222 36.07-15.73 68.955" />
      <path fill="#a27c82" d="M352.27 33.08l-62.95 40.05-6.58-30.283 54.308-22.97" />
      <path fill="#002300" d="M800.45 563.122L934 595.312l-67.56-28.243-92.958 93.195" />
      <path fill="#286413" d="M506.086 678.463l.16-83.17L553.29 713H400.05" />
      <path fill="#e7499d" d="M350.607 363.933l-12.714-15.67-13.19-7.98 26.517 4.626" />
      <path fill="#ff9eff" d="M471.93 256.117l6.8.96 3.825-3.317 3.103-18.653" />
      <path fill="#327830" d="M342.935 629.895l79.854-105.453-117.156 118.565-39.22-75.312" />
      <path fill="#1c7800" d="M952.37 333.072l-19.513-47.414-81.094 107.068 36.265-6.617" />
      <path fill="#fd27d6" d="M274.7 279.742l40.156 52.94L270 301.304l-12.704 57.265" />
      <path fill="#1b3907" d="M1008.052 566.35l-36.448 22.66-3.3 9.39 81.877-33.09" />
      <path fill="#ff48ec" d="M491.312 310.482l19.86-61.646-3.274 71.06 20.094-66.23" />
      <path fill="#f13054" d="M350.604 226.3l-.742 6.622 4.684 18.78 6.224-1.586" />
      <path fill="#0a2000" d="M993.078 55.507l-79.452 41.146 84.634 54.642-4.903.72" />
      <path fill="#2b5200" d="M830.79 388.35l-139.808 32.98-55.08-77.57 29.26 124.996" />
      <path fill="#60003b" d="M369.316 480.962l28.014-17.836 22.376-34.472-11.368 19.185" />
      <path fill="#fe73ee" d="M220.222 413.23l-6.302-9.24 126.442 3.953-36.835-7.6" />
      <path fill="#da6ccf" d="M361.426 501.136l-9.11 9.21-12.56-5.28 12.885-17.46" />
      <path fill="#b27582" d="M984.023 636.643l50.667 19.71-163.507-26.963 12.483-7.436" />
      <path fill="#ff6bd4" d="M298.876 290.925l-6.736-25.15 46.466 24.15-35.384-10.345" />
      <path fill="#500023" d="M442.436 370.713l20.28 23.85-75.015-.973 20.292 17.327" />
      <path fill="#d26c73" d="M446.59 239.19l17.277-37.123-12.432 14.98 7.655 20.738" />
      <path fill="#e91971" d="M310.837 346.437l18.213 13.448-24.237-14.872 11.205-26.203" />
      <path fill="#3a711d" d="M207.952 136.598l20.41-68.107 30.05 29.31-145.247 37.108" />
      <path fill="#d8e4ac" d="M294.152 226.346l-19.225 19.52-2.08-3.59 4.15-5.167" />
      <path fill="#15290b" d="M236.646 318.744l-67.543-28.687-17.064 5.182 96.692 21.452" />
      <path fill="#024003" d="M251.125 304.79l-80.373-76.496L273.218 287.1 175.212 139.75" />
      <path fill="#ff52d7" d="M352.125 280.062l.098 42.115 24.92-23.724 45.897 65.31" />
      <path fill="#df06b0" d="M382.565 411.1l-10.874-8.295-26.257-2.93 9.22 7.748" />
    </g>
  </g>
</svg>