<svg version="1.1" viewBox="0 0 1024 682" width="1024" height="682" xmlns="http://www.w3.org/2000/svg">
  <g fill-opacity=".5">
    <path fill="#7bac70" d="M616 483.5l14.6 93.7-46 15.6-32-11.2" />
    <path fill="#fccce7" d="M301 454l-88 8 51-22.5-4 7" />
    <path fill="#173f00" d="M228.5 405.8l-49.3 4.8L162 522.8l-72.3-52" />
    <path fill="#605740" d="M361.2 205.2l-38-37.4 64.8 20.7-25-35" />
    <path fill="#d21eb4" d="M354 477.2l24-19.6-93-15.7 41-11" />
    <path fill="#ff89f9" d="M537.8 210.8l-5.3 16.6-13.5-4 11.3-11.7" />
    <path fill="#ff6ded" d="M333 334.3l76 50L298.3 292l87 19" />
    <path fill="#e9d213" d="M243 301l-9.4-12-15 24.8 18.2-6.5" />
    <path fill="#901a83" d="M569.3 322l8 20.8 27.3-67L504.3 391" />
    <path fill="#2b730d" d="M737.3 58.8L609.8 16l-73 1.8 90.6-47.5" />
    <path fill="#3b7250" d="M695.4 550.5l67.7 48-22 33.5-50-44" />
    <path fill="#295c3b" d="M772 9.8L680.7 40l122-2.7 3-68.3" />
    <path fill="#879500" d="M530 597.2L587.6 713H573l-55.6-99.2" />
    <path fill="#054d02" d="M300.5 306l-94.3-152-78 128 114.6-42.4" />
    <path fill="#001002" d="M533.6 441.2l-37.5-8.4 22-20.7 30 10" />
    <path fill="#18560b" d="M917.7 260.4l52.7 72.6-100-77L1020 146" />
    <path fill="#d61972" d="M481.8 277.3l-24 60-29-29.3 81.6 32.7" />
    <path fill="#042500" d="M669.4 517l69.6 5 234.8-154.2-290.8 111" />
    <path fill="#fec5ab" d="M645 284l-9.7-8.6-4-.8L630 292" />
    <path fill="#ea25bb" d="M200.8 336l166.5 45.5 13.6 34.3-45-25.2" />
    <path fill="#ff84ca" d="M574 317h-24.3l25.5 24.7-41.3 27.5" />
    <path fill="#893b79" d="M495.5 107.3l41-22L542 119l-33.8 13" />
    <path fill="#ff41fc" d="M310 327l-78-21 48.6 39-1.8-58.3" />
    <path fill="#112c00" d="M644.3 361.4L595 444.2l60.8-66.5-154.6 15.8" />
    <path fill="#c97c73" d="M497 395.3l5.4 29.6-12-5 21.4-24" />
    <path fill="#530029" d="M517 339l39.2-49.4-94 146.8L531.6 290" />
    <path fill="#8a7648" d="M888 595.2l-35.3 38 38-8 63.3 7" />
    <path fill="#002500" d="M755.5 17l32-36.6-139.7 14 95.6 28" />
    <path fill="#c2329d" d="M435 530.4l-7 1.3-7.5-50L435 495" />
    <path fill="#0f2100" d="M617.2 259.7L597 288.3l63-45-50.3 55.2" />
    <path fill="#ffd2ff" d="M578.6 265l14-47.4-14.2 8.6-25.6 29.6" />
    <path fill="#071700" d="M996 37.8l-74.6 72.4 45 21.6 25.8 17" />
    <path fill="#f5da00" d="M203.2 349.2l-8.4-2.6-17.5 4 13-14.3" />
    <path fill="#ffd117" d="M457 499l-4.3-14.7-11.4 5 5 7.4" />
    <path fill="#971793" d="M602.5 400l5.5-16.4-43.6 5.4-11.7 12.3" />
    <path fill="#ff5fff" d="M336.2 377l-74-45-14.3 22 93-5.8" />
    <path fill="#ffe331" d="M539.4 196.8l1.8 6.3-9 11-7.4-17" />
    <path fill="#417a11" d="M162.6 646l14.4-24-202.3-4.7L165.3 581" />
    <path fill="#073300" d="M172.2 713l56.8-25-10-41.7-25.2-16.3" />
    <path fill="#434e16" d="M260.7 244.3l75.3-44.7-17 31.2-84.5-57.2" />
    <path fill="#d542b2" d="M367 51.2l-49.4 18.5 157 57.7 39-21.4" />
    <path fill="#847d65" d="M25.7 657.4l68.2-16v-33" />
    <path fill="#7e5756" d="M479.4 239l8-36.2-1.5-.8-20 56.6" />
    <path fill="#75ae2e" d="M60.6 22.3l16 18L96 105.8 126.5-7.8" />
    <path fill="#3a440d" d="M643.5 185l-92.2 23.3-16.4 38.2 3-34" />
    <path fill="#4e6600" d="M7 97l30.3-84.3L107.7-31 65.3 68.8" />
    <path fill="#ff90ce" d="M613 316.5l-5-17.6 7.8-6 22.8-5" />
    <path fill="#e7be1a" d="M619.8 249.2l-16.6 26 4-37.5-6 16.4" />
    <path fill="#001b00" d="M774 661.5l5.3-67.6 223.2-15-129-80" />
    <path fill="#f6f" d="M285.5 400l-10.3 25.5-25.8-21-38 2.4" />
    <path fill="#224a05" d="M129.4 134.3l30.3 75.5 75.5-127 32.5 52.8" />
    <path fill="#62932c" d="M465.3 208.3l6.6-21.5-20-21-8-24.2" />
    <path fill="#536500" d="M225 536.5l-51.4 1 33.6-98.7 41.8 62" />
    <path fill="#4e0037" d="M554.7 334.2L539 357l-2.8-9-2-5" />
    <path fill="#b98c00" d="M645.7 349.6l-14.2-21.2 7 35.4 4.6-13" />
    <path fill="#70043b" d="M379 385.5l19 59.2-50.3 14.3 21.8-11.4" />
    <path fill="#569f60" d="M435.6 668l62.4-75.3-5.4 119L385.4 542" />
    <path fill="#c31ea4" d="M499.4 378l49.7-67.7-42 50.3 125-13.4" />
    <path fill="#706853" d="M520 40l-79.6-71 136 88-14.8 65.2" />
    <path fill="#e10ab0" d="M478.6 336.6l-11.3 7.4-46 4.2-1 30.8" />
    <path fill="#7a0143" d="M430.3 438.5l2-136.8L425 404l19.8-51" />
    <path fill="#001300" d="M508.6 478.7l-23-19.6 7.4 28-31.4 2" />
    <path fill="#ff93ff" d="M556.4 205.3L522.2 277l-37-57.8 60 51" />
    <path fill="#3c6100" d="M870.7 84.5L968 51l2-10-60.7-7" />
    <path fill="#f3ca68" d="M282.2 261.6l12.8-36-22.3 10.5 29.7 26" />
    <path fill="#ff41eb" d="M330.6 438.3l-15-39.6 30 26.2 32.2 15" />
    <path fill="#fca4e0" d="M497.2 230.7l.2 30.6-21.6-14 24 66.8" />
    <path fill="#ec2363" d="M315 323.6l3.8 41 1.6-12L303 343" />
    <path fill="#ea67eb" d="M471 368l7.5 16.8 17-12.8-19.8-8.8" />
    <path fill="#236c27" d="M409.8 514.5l-25.3 92.2-77.7 45.7 45.2-54.6" />
    <path fill="#be5ca4" d="M494.2 139l34-73.3-103-96.7L467 54" />
    <path fill="#e3ab6c" d="M484 354l3.2-10.3 17 10.8-16.8 6" />
    <path fill="#340019" d="M509.8 376.6l-114.4 133L522.2 343l-27-2" />
    <path fill="#303f00" d="M925.2 596.2l129.8-27.6L932.7 614l-62.4-35" />
    <path fill="#628935" d="M365.8 452.6L350 445l-111.6 32.5 115.3-25" />
    <path fill="#1a4223" d="M878.3 170l4-67-37 29.4 16.7 79" />
    <path fill="#59a049" d="M55.6 78.2l20 9.6L52 284.4 41 148.2" />
    <path fill="#0f4509" d="M246.5 266.5l48.8 4.3-102.5-113L277.2 294" />
    <path fill="#c73269" d="M447.7 304.7l-6-1.6-10 37 7.7-78" />
    <path fill="#87bb94" d="M578.4 563.5L486 487l67.3-23 52.5 30" />
    <path fill="#477929" d="M561.3 711.6L668 516.8l1.8 96.7-38.3 49.6" />
    <path fill="#41862f" d="M111.5 131.7l18.4-30.2 9 201-19-128.8" />
    <path fill="#f020d8" d="M547.5 300l22.8-33.2-94 14.7 6.6-7.2" />
    <path fill="#e5b845" d="M294 417l-17 18.7 11.3-37.3 5 28" />
    <path fill="#3c4411" d="M655 192l37-29.3-24.6-62.5-30.5 40.5" />
    <path fill="#f86bf4" d="M350 367.7l60.2 47.8L380 399l9.5-50.7" />
    <path fill="#000700" d="M470.3 492.6l53 106-24.6-8-68-51.7" />
    <path fill="#58650f" d="M1001 150l-10.4-37 44.3-63.5 20 123.4" />
    <path fill="#b81097" d="M484.3 419.3l-6-7.4-29.3 15-4.4-17" />
    <path fill="#870077" d="M406.2 450.7V499l-12.7-12.7 21.7-34.2" />
    <path fill="#61862b" d="M47.8 654.7L17.6 713-7 683.4l-24-36.2" />
    <path fill="#928e2b" d="M1012.5 587.4l-37.4 15 2 41.2 41-45" />
    <path fill="#e00940" d="M330.6 237.8l32.3 9-11-8.8 7-.2" />
    <path fill="#aad0c6" d="M13 649l46.4-5.8-31.5-12-36-19.5" />
    <path fill="#c9aab9" d="M342 212.5l-32-19.2.8 15 16.2-6" />
    <path fill="#eb69ee" d="M257.5 357.2L246.7 339 212 313.7l69.4 22.7" />
    <path fill="#284f08" d="M712.2 314l126.4 12.3-165 22.6-80.3-193" />
    <path fill="#002600" d="M122.8 312l56.5 28.2 4.2-108.4 40.2 101" />
    <path fill="#e81f90" d="M277.3 347.4l93 48 1.2 3.5-61.3-22" />
    <path fill="#002c00" d="M332.5 630.7l51 82.3h38L384 623.2" />
    <path fill="#f9a6fc" d="M605.5 275.8L577 298.6l9.8-17.3 17.7-28.7" />
    <path fill="#eada5d" d="M264.3 411l-28.6 20 21.5-20-7 28.8" />
    <path fill="#062b03" d="M161 313.7l67.5 33.3-12.8 12.2-56.7-75.5" />
    <path fill="#edd27e" d="M560.7 329.3l9 13 2.2 7.4-15-1" />
    <path fill="#fae4d3" d="M552 311.6l4-16 15.8-14-11.3 27.2" />
    <path fill="#70ae81" d="M755.8 114.4l60.6 79.8 8.4-17.2-83-113.2" />
    <path fill="#fb36d2" d="M285 400l60.5 23.7 1.5-103.5L300.5 428" />
    <path fill="#e0c807" d="M202 432.2l6 5-2-23-11 4" />
    <path fill="#0b3800" d="M-31 23.5l82.8-53.3L9.8 75l4.6 68.5" />
    <path fill="#ff39e6" d="M431.8 296L401 330.6l27 3.7-13.6-55.4" />
    <path fill="#3e845d" d="M337.8-13.7L226.8 45l13.7-32.5 77-43.5" />
    <path fill="#200004" d="M430.3 388l1.8 28.4 24-12.8 8-24.2" />
    <path fill="#1d6200" d="M109 383.3l10-37.3 51.7-134-16-39.8" />
    <path fill="#956e24" d="M383.6 529.3l-33 26.4 12.6-47-12 3.3" />
    <path fill="#e53ecf" d="M358.3 473.3l-35.5 16.4 10-34.6 38 12" />
    <path fill="#1e3000" d="M653 294.7L579 337l18 .4 71-1.2" />
    <path fill="#cb26a9" d="M627.3 309.3l-61 27.8 12.6-53 4 38" />
    <path fill="#879a16" d="M379.6 194.2l-1.3-33.2 10.4 26.2-1.7 10.4" />
    <path fill="#80b268" d="M355 514.2l4 57L313 466l13.5 113" />
    <path fill="#438e39" d="M195.8 77.5l33 20L148.5-31l108 104" />
    <path fill="#8faa73" d="M6.6 581.6l24.5 28-62-24v1" />
    <path fill="#780049" d="M508.7 325.2l-30 23.7 47-9-22 55" />
    <path fill="#fff4db" d="M328.6 331.6l-17.3 11 8.2 2 14-6.6" />
    <path fill="#6f0850" d="M419.6 443l-67.4 47 36.7 7.4-16-21" />
    <path fill="#ffe1ab" d="M604.5 349.2l40-12.7-14.3 15.6-8.2-14" />
    <path fill="#dd60d2" d="M209.8 332.5l73 38.7-77-37 83.3-17.8" />
    <path fill="#950069" d="M550 309l8.4-20.2-17.5-2.2-18 24" />
    <path fill="#d1426f" d="M298 256.5l-14 4.2 14.4 10 32.8 5" />
    <path fill="#5e6500" d="M486.4 496.4l-7 14.3L559.8 649l-52.4-117" />
    <path fill="#f7cde9" d="M444.2 492.4l-1.2-5-11.6-3.3 18.6-11" />
    <path fill="#20540f" d="M173.8 613L286 532.7l-11.6-19.2-123.8 57.8" />
    <path fill="#3c8124" d="M808 337.2l.2-23.6 69.6-49.6 7.3 69.3" />
    <path fill="#697630" d="M638.2 114.2l8.8 26.3-63 36.8 23.3-51.4" />
    <path fill="#845b82" d="M400.8 531.6v-15.8l14-20.5-15.6 41.4" />
    <path fill="#0f1501" d="M580 216.6l-13.6 25.2-5.8-1.4-7.5-18.8" />
    <path fill="#a848a7" d="M390 495.7l-40 31 28.6-30.4-39.4 2.2" />
    <path fill="#031000" d="M206.4 358l-61.8 4.5 26.3 72.7 20-21.2" />
    <path fill="#f5de65" d="M275.5 468l-13.5-6.6 6.6-1.6 15-6.7" />
    <path fill="#e76bb0" d="M474.2 343l118-133-80 98.4-36.7 24.5" />
    <path fill="#275625" d="M782 504.8l11.3 62.2L663 517.5l-2 67.5" />
    <path fill="#f340e8" d="M407.6 186.3L376 222.8l-5.8-49.5L417 277.8" />
    <path fill="#408a04" d="M19.3 625.7L81 593.4 69 624l-60.7-5.4" />
    <path fill="#f9adab" d="M487.7 481.4l-10.2-20-2.7 17.2 8.2 5" />
    <path fill="#4f193a" d="M368 524.6l64.3-94-27.6 46-25 24" />
    <path fill="#eeb874" d="M290.2 381.8l14.3-9.8-6 25.8 30 46.4" />
    <path fill="#fd36e2" d="M344.2 272L324 297.5l-6.8-32.3 153.2-18.7" />
    <path fill="#ffbab7" d="M298 285.7l-11.5-1 19.8-27-6 9.7" />
    <path fill="#711065" d="M564.7 360.4l39 11-52.6 6.4-49 3.5" />
    <path fill="#e5afc5" d="M293.3 333l-29.7-17.4-33-4.5 8.7-12" />
    <path fill="#5d8112" d="M266.3 504l-68-35.3 130.6.5-27 5.4" />
    <path fill="#407431" d="M34.5 415.7L2.7 329.5l15.8 90.8L-31 552" />
    <path fill="#338821" d="M569 65.4l81-39.7L638.7-31 563 19.3" />
    <path fill="#f4e311" d="M570.6 296.6l-.6 7.3-3 9-5-14" />
    <path fill="#013600" d="M212.2 237.3l44.2 70.5-61.2-40.4-72 46.2" />
    <path fill="#500012" d="M412.2 414l-20-20 33.7 2.3-17-35" />
    <path fill="#ca9cd5" d="M462.4 455.4l22.6-1 6 3.5-40-3" />
    <path fill="#887e56" d="M958.8 30.8l-13.3-18L884.7-31l-3 65.6" />
    <path fill="#e1ca04" d="M467 175.7l14.2 3.5 12.5-8.8-26.3-3.3" />
    <path fill="#5a964e" d="M497.4 511.6l140 128.8 18.8-115-90 75.4" />
    <path fill="#334912" d="M109.6 702.7L77.3 713 39 656l23.5-6" />
    <path fill="#110002" d="M446 385.4l-7 49.5-26.7 91-1.3-45" />
    <path fill="#397306" d="M874.8 358.5l-184.4-27L661 363l33.6 47.6" />
    <path fill="#f378fd" d="M226.7 380l57.8.8-58-18.5L200 375" />
    <path fill="#000500" d="M852 448.2l124.3 149.4 78.7-134.8-128.8-67.4" />
    <path fill="#af9966" d="M238 360l32.2 6-25-10.3-69.3-1" />
    <path fill="#162100" d="M649.4 285.2L568 353.8l50-20.2 14.4-28.2" />
    <path fill="#e801bf" d="M499.7 297.7l12 25 1-40.7 8.2-12.3" />
    <path fill="#efa442" d="M534 230l-8.8 16-10.8-24.6-4 1.3" />
    <path fill="#459349" d="M356.4 605.6l23.3-70-85.6 50.7 15 22.4" />
    <path fill="#ee72f6" d="M376.7 243.7L330 216.2l71.5 4.3-9-44.6" />
    <path fill="#2a5400" d="M694.7 414L638 350l9 115 242.2-84.5" />
    <path fill="#ac6b84" d="M305.6 137.3L387 112l-95.6-48.7L328 27" />
    <path fill="#f98eef" d="M403 468.8l-27.7 11 33.5-26.6-20.8 32" />
    <path fill="#aa3042" d="M327.7 224.7V210l20.2-49.5-34 56" />
    <path fill="#4e9059" d="M538.8 449l102.6 45.2-66.2-48.5-23.8-25.4" />
    <path fill="#d54a89" d="M436 201.6l22.4 3 45.2 58.8v-21.8" />
    <path fill="#684a4c" d="M304.3 175.5L329 200l-62-14.7L268 72" />
    <path fill="#ed8692" d="M445 410l28.8 1-7-16.3-14 20" />
    <path fill="#f0fc6c" d="M293.6 235.6l-18 10 1.3.5-7-12" />
    <path fill="#f4acfa" d="M445 190l-21.6 7.8-15.8 31 8-47.8" />
    <path fill="#fbf39d" d="M315.3 186.6l10.8-11-2 42.8 2-36.4" />
    <path fill="#420025" d="M930.4-11l52 6.2 22.3 30.8-48.8-6" />
    <path fill="#829576" d="M316 2.5l-59 17.3L273 82l33-25.6" />
    <path fill="#0f2f00" d="M787.7 618.6l81-125.6-91.2-73.2 26.8 164.6" />
    <path fill="#a33bac" d="M853 683l-50 11.2-63 18.8 146.6-65.4" />
    <path fill="#5fa354" d="M138 181.4l-15.7 96-33.8 39-24 12" />
    <path fill="#fb7bf9" d="M518.6 237.8l-19 3.2-21.6 1.3-9.3 21.8" />
    <path fill="#617b2f" d="M513.6 232.7l17.5-51.2-27 37.5 8-37" />
    <path fill="#e327a3" d="M362.2 295l-58.5-73.7 69.5 66.2 38 19" />
    <path fill="#4b8d42" d="M706 94.2l52.4 21.4-17-60.8-35 13.2" />
    <path fill="#367f00" d="M21.7 271l-3-48.7L46 203l7.5 71.5" />
    <path fill="#664c5b" d="M914.8 632.7l31.4-20-41-7 1.5 19" />
    <path fill="#ffc064" d="M194.2 403l10.8-13 24.8 24-6.8-7.7" />
    <path fill="#ffadea" d="M463.4 224.2l13 67.6 19-7.6-31.6 3" />
    <path fill="#330917" d="M357 475.8l67-37.7-46.3 37-38.5 15" />
    <path fill="#113d1c" d="M721.5 571l9.5 7-49-59 86-21.8" />
    <path fill="#dc50ca" d="M360.6 486.4l-11.2 6 21 5-32.5 18" />
    <path fill="#1d0002" d="M464 431l9.2-28.7-1.4-8.2 25-8" />
    <path fill="#030" d="M929.5 188L1031 435l24-200.6-102.2 60" />
    <path fill="#418442" d="M781 139.4l-43 75.2 44.8 7.8 45.7 90.4" />
    <path fill="#f5a48a" d="M315.3 492.3l-14.8-15 42.3-4.5-3.3-1.5" />
    <path fill="#c165d0" d="M568.7 317.8l48.6-34.6-34.4 6.6-2 32.5" />
    <path fill="#900548" d="M406 299.4l1.4-4.6L409 262l-20 28.4" />
    <path fill="#000600" d="M-18.5 577l67-25.8L39 446.7 4 511.3" />
    <path fill="#8ac168" d="M98.7 37l42-34.4L202 67.3l-78.4 16.4" />
    <path fill="#5c946f" d="M719.2 81.6L794.4 55 842 77.3 784 27" />
    <path fill="#205504" d="M651.6 131L694 54.3 682.8 159l91-16.4" />
    <path fill="#ff34f8" d="M316 367.7l18.6-17.2 39.6 37.7-30.8-6.5" />
    <path fill="#026200" d="M935 345.8l-105 62 155-48.5-42.4-76.6" />
    <path fill="#f5a686" d="M410 299.7l-27.4 5.4 11.4 12 27.3-11" />
    <path fill="#112500" d="M632.8 260.7L604 272.5l26 17.8-25.4-99.3" />
    <path fill="#f264f1" d="M530 298.8l19.2-89 10 8-29 53.3" />
    <path fill="#2f6b3b" d="M923 209.4l39-19 12.3-56.4 11.6 57.5" />
    <path fill="#e48b4e" d="M302.5 342.6l-10-16-6.3 23 25.4-8.5" />
    <path fill="#ffaf3b" d="M412.7 338.2L423 335l-2.8 26.4-9-17.3" />
    <path fill="#dca809" d="M387.4 182.7L377.2 165l-1.3-14 20 6" />
    <path fill="#6b8929" d="M466.3 210.3L457 214l9-38.5 2.8-2.8" />
    <path fill="#001000" d="M785.3 668.5l42 .6 6.5-92-33.6 37" />
  </g>
</svg>