<svg version="1.1" viewBox="0 0 1024 682" width="1024" height="682" xmlns="http://www.w3.org/2000/svg">
  <path fill="#5b5d82" d="M0 0h1024v682H0z" />
  <g fill-opacity=".5">
    <g class="SVG--0">
      <path d="M-31 688.4l25-164.6 1061-90.3-8.5 259.7" />
      <path fill="#a1adee" d="M1049 307.8L-31 345.6l34.4-372L1055 3.3" />
      <path fill="#c22f00" d="M321.6 566.8l11.8-433.5 62.6-17 12 553.3" />
      <path fill="#ff910a" d="M100.5 545.5l258.4-88 440-106L186 546" />
      <path d="M475 704.5l-66.5-79.2L-31 495l19.2 211.8" />
      <path fill="#001053" d="M1028.7 713l-216.5-32.6 54-359 188.8 17.8" />
      <path fill="#d3b5d4" d="M81-6.8L610.2-.2 582.5 132l-331 2" />
      <path fill="#be5434" d="M864.5 361L833 453.3 567.6 713 527 634.6" />
      <path fill="#14255c" d="M571.7 416.4l-192.5 75.2 71 181 468-338.2" />
      <path fill="#003f98" d="M282.7 489.5L-31 529.7l2.4-115.5L286 362" />
      <path fill="#3d72b3" d="M148.8 298l304-28.8-470.4-120.8-5.6 143.5" />
      <path fill="#de4600" d="M328.5 511.8l50.2-138.3-23-3.6-23.2-264" />
      <path fill="#200000" d="M387.8 124.2l12.5 82 .3 222L378 308" />
      <path fill="#702100" d="M509.3 439.4L195.7 539.8 368 518.3l344.7-141.7" />
      <path fill="#4c84cd" d="M2.2 414.6l324.3-39.8-1-23.4-356.5-10" />
      <path fill="#4768b4" d="M912.5 309.2L803.8 24 1023-31l32 328.8" />
      <path fill="#ac5433" d="M877 382l-75-110.3-1.4 56.8-150.8 54.2" />
      <path fill="#e25d05" d="M326.5 589.3l3.6-240L382 545v86.5" />
      <path fill="#261b4b" d="M527.6 340l145.7-19 163 3.6L680 371.3" />
      <path fill="#fe8d35" d="M317.6 461.6L276 480.4l-124.5 71 389-124.3" />
      <path fill="#233a7b" d="M916.5 385.4L698.3 559l350-60.5L1055 339" />
      <path fill="#000f23" d="M583 713l147.7-101.3 324.3-67-22.7 139.8" />
      <path fill="#274182" d="M744.4 447.5l-31-60L406.8 496l-12.3 109.4" />
      <path fill="#a594af" d="M464.7 307l-14.5 134-42.4 12.5-5-168.5" />
      <path fill="#070101" d="M222 530l-241.2 71.5L5 713h513.2" />
      <path fill="#2c2b48" d="M248.8 175.3L-31 307l263.3-106.7L-31 287.6" />
      <path fill="#649fed" d="M353.3 172l19-9.6 13 38.5-42.3 8" />
      <path fill="#821700" d="M329.5 307l11-204.4 12.6 161 2 80.8" />
      <path fill="#ffb763" d="M625 398l158.6-53.2 83.2 5-69.4 7" />
      <path fill="#582614" d="M435 675.8l138.5-86.6 138.3 40.3-102 83.5" />
      <path fill="#100302" d="M565.4 439.6l-129.6 41.2 61-37.2 273.8-77" />
      <path fill="#d5b0c9" d="M461.3 4.2L278-8.6l20.4 154 122-42.2" />
      <path fill="#8596bd" d="M350 432.7l27.8-113-28-18 22 137.7" />
      <path fill="#1f4081" d="M123.7 423.4l184.8 54.4-183.3 55.8L-31 501.2" />
      <path fill="#7f9cd6" d="M114.8 225L-31 162.7 57.2-31l261.6 172" />
      <path fill="#ac6a64" d="M743.6 463.4l95.5-71 9 88.4-66 39.5" />
      <path fill="#ee6c00" d="M372.2 476.4l3.7-47.6 53 48.7 1 22.4" />
      <path fill="#9392c3" d="M635.4-31l-236 170-4.5 62.5 330-69" />
      <path fill="#657dbe" d="M399.2 272l259.4 29 387-136.6-649 34.8" />
      <path fill="#94adcd" d="M233.3 306l-221-17.2-43.3 52.7L47 352" />
      <path fill="#462435" d="M309.8 158L427 111.5 104.3 250l150.4-60.7" />
      <path fill="#521700" d="M384.6 196.6l-3.3 180 1 103.2 23.6-59.2" />
      <path fill="#8a6b96" d="M1019 327.2l31.8-20.8-230-27.6-186.3 31" />
      <path fill="#ffa759" d="M572 420l-100.2 19.7 169.6-53.5 93.6-18.8" />
      <path fill="#524876" d="M236.3 559.2l101.3-38.4-5-30-7 98.8" />
      <path fill="#171c46" d="M899 369.5l156-13.3-152-36-86.7 1.6" />
      <path fill="#280600" d="M405.7 629.4L402 501.8l-21-9.3.5 107.8" />
      <path fill="#f5904a" d="M100.4 534.2l34.7.5 310-83.2-296 100" />
      <path fill="#c8b5b9" d="M540.5 326.2l124-12.4-249-3.7 10.5 15" />
      <path fill="#5f9ce6" d="M359.3 270.7l15 1 4.3-45.5-30.8 8" />
      <path fill="#5964a2" d="M528.6 348.6L673 374l-226.4 68-28.2-79.3" />
      <path fill="#4e364e" d="M651.6 632.8L737.4 494l122-35-6.2 46.6" />
      <path fill="#998fac" d="M197.8 312.6L181 343l148 19-2.3-58" />
      <path fill="#fa6e00" d="M380 416l-40-51.5-21.5 138.7 63.7-164.4" />
      <path fill="#551d28" d="M324.3 153.5L377 157l24 288.3-5.5-328.7" />
      <path fill="#616294" d="M375.8 463.6l-6 1-20 6 23-76.4" />
      <path fill="#da3e09" d="M381 319l-47.5-33.4 46-4L382 97.2" />
      <path fill="#dc7f52" d="M873.5 354.3L819 405l-64.8 53 58.6-14" />
      <path fill="#a14f3a" d="M673.5 518.2L550 674l169-139.2 17.5-67" />
      <path fill="#6470a3" d="M381 371.5L364 301l-15.8 63.6-28 1.7" />
      <path fill="#881f01" d="M333.6 443.8l1-244.4 60 21-41.3 6.2" />
      <path fill="#302543" d="M797 396L654 530.7 852 378l-94.8-13.6" />
      <path fill="#5364a0" d="M309.3 329L137 332l-73.6-1.8 265.8 108.3" />
      <path fill="#5d547b" d="M403.3 485l8 10 69.8-25-72 84.5" />
      <path fill="#022862" d="M1037.7 325l17.3 287-181-74 121.4-184" />
      <path fill="#861901" d="M355.4 495.2L326.8 594l51 21-50-109.7" />
      <path fill="#0d2651" d="M408 567.8l89.2 77 68.5-53.2L799 421" />
      <path fill="#8d97cb" d="M-31-.2l9.5 35.7 279.7 135L231-4" />
      <path fill="#959fcf" d="M352.6 202l22.5-4 7-48.5-33 19.5" />
      <path fill="#a54013" d="M234 557.5l46 23.8 2.6-11.8-14.4-11.5" />
      <path fill="#f3952f" d="M302.3 447.3l-3 47.8 241.5-79-161.6 73" />
      <path fill="#3d1209" d="M564 425.4L688 396l115-39-93 21.6" />
      <path fill="#4d4370" d="M313.3 416l-131.5 85.2 48.5 3 67-20.2" />
      <path fill="#689ad1" d="M24 395.4l115.4-29.6-134.5 6-36 47.5" />
      <path fill="#7480be" d="M855.6-31l106.6 310.2-363.8-53.5L685 88.4" />
      <path fill="#e3bd98" d="M459.5 344.2l-34.8 10.3-24.3-5 26.8-9.3" />
      <path fill="#48548c" d="M468.5 473.6l338-88L912.7 398 763 372.7" />
      <path fill="#4a4e68" d="M512 239.8l-58-49 97.2 91.3 22.3 15" />
      <path fill="#25397e" d="M821.7 521.4L1055 359.6l-183 12-10.8 5.6" />
      <path fill="#5b526a" d="M555.3 311.4L440 227.6 424.6 204l-55.2-40.8" />
      <path fill="#b492a8" d="M920.6 311l50 14.6 84.4-14.2-42-2" />
      <path fill="#04070c" d="M-6 522.4l83-6L237 713 1.4 699.7" />
      <path fill="#2e2137" d="M263 181.4L56.7 272l236-100.2 36.7-22.3" />
      <path fill="#2d5697" d="M-31 419.5l236-52.7-111 168 98-20.8" />
      <path fill="#f35d00" d="M358.3 437.3l-18.7-64.7 50.3-.2-66 64.6" />
      <path fill="#28222b" d="M446 613.6L417.7 648l48.5 40.4 145.6-109.6" />
      <path fill="#c1bcc9" d="M192 320.2l141.3-9-24.7 17.8-51.7-6" />
      <path fill="#2a356c" d="M368 510.4l1.6 4.6-16.8 17.6 17.3 6" />
      <path fill="#6989c5" d="M328.7 267l-32-98-99.6 49.3-7 111.4" />
      <path fill="#bbb9ca" d="M353.3 320.4l24.6-18-4 23.6-18 4" />
      <path fill="#fa7b00" d="M380.6 558l-.5-167.8-8-12.6 1-9.5" />
      <path fill="#648aca" d="M117.6 228.8l-148.6 2L-2.8 36l175.3 169.8" />
      <path fill="#4e6eb4" d="M950.7 199l94 28L1025-31l-72 65" />
      <path fill="#181219" d="M254.7 522l-87 27.6L23 528.4 208 647" />
      <path fill="#8a90c4" d="M415 151.4l72.6 62.4 194.7-.8 35.5-244" />
      <path fill="#936a6d" d="M615.6 396l-225 50 233-65 127.7-19.4" />
      <path fill="#db510b" d="M328 324.6l56.2-31.2-45.8-10.3-6.2 99" />
      <path fill="#d57753" d="M194 540.2l12.3-55L215 510l-99.2 33.8" />
      <path fill="#cf5402" d="M379 352.3l-5-68.3 20.7 105.7-2-48.4" />
      <path fill="#9681a0" d="M778.2 324l-25.7 1.5L559.3 306l252-1.6" />
      <path fill="#d93600" d="M331.7 521.5l-4.3 48.5 4.4 36.5 17.7-10.5" />
      <path fill="#443553" d="M663.4 372.6l-71-61 50 23.2L783 353.3" />
      <path fill="#6b4365" d="M817.5 267.8l5.5 38.6 40.8 46.8-67.4-28.7" />
      <path fill="#d54b00" d="M355.2 413.6l1 57.3-71 18 52.5-23" />
      <path fill="#2d1618" d="M345 543.7l24.2 40.2-38.6 30 41 63" />
      <path fill="#733f48" d="M341.6 130.5l-26.3 16-82.8 36.4-45.5 18" />
      <path fill="#98524c" d="M385.4 123.4l3-2.8 27.8 27.6 46 49.8" />
      <path fill="#fec174" d="M835 355.2h-20l-85.3 14 113.8-27.8" />
      <path fill="#ff6e00" d="M381 615.3l-1.2-49.8-7.5-84.5 5.3 145" />
      <path fill="#3b1132" d="M333.6 178.3l-2.2 32.2 16.4-4.8L349 178" />
      <path fill="#2254a2" d="M-31 374.8l92.6-11 162.5-8.5-255-2.3" />
      <path fill="#27283c" d="M74.2 262.7l-30 17.5 11.8-1.7-87 24.3" />
      <path fill="#cf927c" d="M859.8 386l-6-27.8-25 84-7.7-44" />
      <path fill="#877592" d="M313.4 355l-3 145 20-172.5-184.7 19" />
      <path fill="#557dbb" d="M212.3 198.6L95 254 4.7 284.3 148 218" />
      <path fill="#132146" d="M674.2 641l255-31 70-64.7-143-30.4" />
      <path fill="#f7b94f" d="M441.5 421l-10 21.4-30.8 30.3 51-18" />
      <path fill="#193069" d="M571.8 555.8l-122.3-1L660 447.6l153.6-42" />
      <path fill="#66282b" d="M772.6 362.6l65-5.2-23.3 49-15.6-37.7" />
      <path fill="#733b28" d="M518.8 696l67.7-118.2 69.3-53.6-53 188.8" />
      <path fill="#53659d" d="M402.4 421.4L521 401.8l141.4-51.2-259.6 14.2" />
      <path fill="#59240c" d="M279 521l96.8-24.3 45.8-16.3-84.2 13" />
      <path fill="#b09fc3" d="M471.4-31L470 161.3l-30.5 5-71-62.5" />
      <path fill="#977173" d="M534 352.6l-101.8-6 37.8-2.2 128-3.5" />
      <path fill="#212148" d="M95.6 369.3L91.3 331l.3 141.4L94 446" />
      <path fill="#e7a35e" d="M411.3 499.3l24.5-9.4-3.5 3-12.3-14" />
      <path fill="#493850" d="M375.7 572.7l-20.4-24.2 101-24.8-85.6 21" />
      <path fill="#d69134" d="M329.2 482.5l.8 39.8-19.4-5 67-56.5" />
      <path fill="#1b1021" d="M69.2 264.2l-100.2 41 114.3-42.6 77-34.7" />
      <path fill="#9b96c2" d="M173.5 54l57 106.7 155-38.8-34 15" />
      <path fill="#564064" d="M1031 330.7l-100.8-12-19.3 17.6 94 7.6" />
      <path fill="#5b62a2" d="M1035.6 283.5l19.4 21.2-228.2-7.2 228-37" />
      <path fill="#2c346f" d="M581 359.5l231.3-35-221 3.4-59.8 6" />
      <path fill="#aab2ce" d="M136 314l-69.6-2.4L-26 331l158 1.3" />
      <path fill="#26171d" d="M150.7 594.6l183-75-38.3-11-75.3 31" />
      <path fill="#802203" d="M355.7 310.7l-18 60.7 18.5 2-6.5-46.4" />
      <path fill="#425286" d="M93.8 238.3l-6.6 99 1.6-26.5 7.7 59.3" />
      <path fill="#684f6b" d="M836.3 431.2l31.7-80.4-17.5 117.6-118 49.3" />
      <path fill="#ea6f13" d="M386.7 548.6l-28.8-49-13 38.4 14-18.6" />
      <path fill="#b34333" d="M385 170.2l-48.5-44L344 176l36-54.4" />
      <path fill="#4d65a4" d="M324.8 346.3l3 121.3L301 324l-10.7 160.6" />
      <path fill="#a55743" d="M862.2 335l-74.8 19.5-81 17.4 56-34" />
      <path fill="#2c407d" d="M276.6 548l50.7-16.4 1 48L278 564" />
      <path fill="#d2c8cf" d="M399.7 317.8l33.4 8 121-6.8-113-3.4" />
      <path fill="#cea5c0" d="M319.8 121.2l52.4 17.5 47.5-95-105.5 25.7" />
      <path fill="#6386c4" d="M377.3 279.7l-29-2 7.2-37 16.5-12" />
      <path fill="#fc8019" d="M334 459.6L331.8 244l-5 226 25.3-36.2" />
      <path fill="#204080" d="M269 461.6l-13.3-40-179 41.3 26.3 77" />
      <path fill="#7e2b05" d="M388 488l130.5-56-121 65.4-12.6 86.2" />
      <path fill="#d05f30" d="M270 492.7l-78.5 21-51 14.2L293 504" />
      <path fill="#622008" d="M383.7 230.5l-2.6 225 23 2-12-93" />
      <path fill="#2e2137" d="M165 211.5l-193 76 20.7-7.2 8.3.5" />
      <path fill="#485ea1" d="M354.4 401l5.2 64.6.8-33.7 2.3-28" />
      <path fill="#021226" d="M670.5 679.6l267.3-48L1055 645l-52 68" />
      <path fill="#e35600" d="M356.8 494.6l136.4-54.3-84.6 40-12.3-27.8" />
      <path fill="#183278" d="M1055 445.7v-58.3l-101.8-41-56.6 140" />
      <path fill="#e45901" d="M377.6 614.6l34.5-7.8-45 17-2-15.6" />
      <path fill="#11204a" d="M847.5 354l171.2-12.3 36.3 4.7-179 30.8" />
      <path fill="#444383" d="M554.8 340.3l-104 .4 1.5-16 48.5 1" />
      <path fill="#001b3f" d="M1055 529l-31 132.4-128-40.7 2.6-63.8" />
      <path fill="#e58454" d="M285.8 403.3l.7 25 1 77.6-2.3-28" />
      <path fill="#d03b00" d="M385 545l-34.7 45.3 32 7-59.7 5" />
      <path fill="#af3712" d="M380.2 200l-29.4 11.2-11.8 23.6 44-9" />
      <path fill="#bca099" d="M17.7 342l-1.3-1.5 99.2 3L-31 349" />
      <path fill="#151218" d="M145.3 616.8l-22.6-75.6 187 53.3 74.6 12.7" />
      <path fill="#80719a" d="M448.6 398.2l-45.7 60-2-128.8 29 37.2" />
      <path fill="#373657" d="M371.7 591.3l-10.5-16-12 12.7 26 5" />
      <path fill="#582e2c" d="M709.8 608.5l-33.6-46.7-17 51-108 100" />
      <path fill="#6a6693" d="M372.5 444.5l-16.3 23V400l19.8 5.5" />
      <path fill="#37589b" d="M236.5 360l-79 32-180 36.5 334.2-3" />
      <path fill="#ecbf85" d="M554.2 414l-115 36.6 193.6-56.3-103.4 25.5" />
      <path fill="#303e74" d="M402.8 567l90.5-48.7L639 468l-189.6 14" />
      <path fill="#fe5900" d="M376.5 401.3l1.4-100.5 4 67.2-48 17" />
      <path fill="#ef9e3d" d="M338.6 457.2L291 469.4l34.8 24.2-70 23.7" />
      <path fill="#9792c1" d="M609.5 134.5l68.2-154.8-149 4.6-93.3 176" />
      <path fill="#99504a" d="M656 525.3l48.4 16.8 44.8-79-18.7 9" />
      <path fill="#b04330" d="M817.7 321.8v111.6l4.6-99.2-3-49.4" />
      <path fill="#e67d48" d="M757.6 456l45-.7-12.3-4.6 52.5-58.6" />
      <path fill="#817eb2" d="M713.8 239.7l295.5 18.2-198.8 37L640 313" />
      <path fill="#594c65" d="M478 215.2l-50.4-51.5 62.3 57.5 32 32.7" />
      <path fill="#5f82c0" d="M92 262l47 50.3 190-18.7-150.5-71.4" />
      <path fill="#d7420f" d="M407.7 626l4-6.6L393 631l7 3" />
      <path fill="#7094c9" d="M131.5 311.7l-162.5-4L51.3 276l129.5 23" />
      <path fill="#77607d" d="M742.4 377.6L744 362l14.4 40.6 59.7-20.3" />
      <path fill="#2f172b" d="M399.6 227.5L383.4 286l.6-118.6 10.7 19.7" />
      <path fill="#d85b12" d="M294.5 483.7l165.8-47.2-80 33 18.5-8" />
      <path fill="#621f17" d="M334.5 318.7l14-41.5 7 7.2-18.8-59.7" />
      <path fill="#08080b" d="M413.3 641.2l77.5 71.8L301 678l-61.5-90.7" />
      <path fill="#2c1d2e" d="M670 713l-56-21.4 123.4-124.2 10.3 54" />
      <path fill="#352032" d="M806 362.7l-47.7 3L749 376l46-2" />
      <path fill="#164091" d="M147.7 333.2l8 8.8-50.6 7.2 26-9" />
      <path fill="#cd8973" d="M313.7 444l-6.5 30.4 8.8 6.8-1.8-133.2" />
      <path fill="#f38126" d="M501.8 439.2l38.8-19.5 73.6-15.8-25.3 11" />
      <path fill="#301b1b" d="M313.5 585.7l90.4 59-91-37.7-45-51" />
      <path fill="#768ac5" d="M799.7 161l-331.4 4 24.7 58 125.6 18" />
    </g>
    <g class="SVG--1">
      <path fill="#f14300" d="M381 608.6l-4.3-20-31.2-56.7-2.8 2" />
      <path fill="#2d2b50" d="M867.6 476.7l-165 115 142-24.4 17.6-33.8" />
      <path fill="#485b95" d="M556 397.4l112.8-28.8-199.2-5.3 74.3 54.3" />
      <path fill="#ca825b" d="M840.7 365l28.3 3.8-84.7 69.5 63-52.3" />
      <path fill="#513848" d="M681 598l111.3-78-64.3-33 40.7-27.6" />
      <path fill="#9c3027" d="M101.7 538.6l29.8.8 120-43.5-142 42" />
      <path fill="#e95b09" d="M377.6 547.8l-40.7-8.2 38-3.8 7-1.6" />
      <path fill="#2e0900" d="M400 607l-1.4-38-9.6 11.3-10 36" />
      <path fill="#6d6e9c" d="M376.6 338.4l-1.2 30.4-19-3-5.8-43.7" />
      <path fill="#7a93cd" d="M21.3-20L139 160-31 94.3-18.5-31" />
      <path fill="#6e7cb9" d="M774.6 46l127.2-77-17.6 285.3L813 248" />
      <path fill="#c23f00" d="M358.4 288L345 348.5l-3.7 46.3-2.6-122" />
      <path fill="#c9591c" d="M353.8 154.5l40.2-2.8-69.5 16.3 43.3-18.8" />
      <path fill="#2d2d56" d="M835.5 393L822 369l46 15.7-6.4-7" />
      <path fill="#804231" d="M671 576.5l-3.8 58.2-105.7-6.7 72.6-57.7" />
      <path fill="#1c4885" d="M-31 530.4v-96.6l174.8 93.8-97-12.3" />
      <path fill="#725159" d="M644 363l-26-18 31.5-.8 11.6 7" />
      <path fill="#4a2b4d" d="M395.6 132.5l.4 24.3-11 8.4 1.3-51.3" />
      <path fill="#8e91be" d="M345.3 164.4l33.8-8v39.8l-6 10.6" />
      <path fill="#ab4407" d="M393.2 494l-5.6-208 6.6-8.8-1.8 47.7" />
      <path fill="#413152" d="M860.4 367l25.8 13.5-.6-43.6-44-12" />
      <path fill="#ee9e57" d="M849.2 345l-2.4 6.7-8 .3-72.4-4.4" />
      <path fill="#0d1f3a" d="M462 664.3l145.8-106 27.2-19.7L483.6 600" />
      <path fill="#0c0d14" d="M-30.3 671.7l187-89-52-50.6-36.2-13" />
      <path fill="#fcad2c" d="M304.2 486l35-5 79.4-13.6L308 498" />
      <path fill="#815f72" d="M1055 328l-36.6 10.6-25.2-4-45-2.3" />
      <path fill="#392945" d="M90.6 554.8l7.6-26-5.8-119-.8 47.6" />
      <path fill="#1f2c56" d="M27.4 493l5.6-90.6-.2 123.3-8.3-63" />
      <path fill="#fd5300" d="M346.3 589.8l32.3-42.8-4.8 13.6-11 14.6" />
      <path fill="#542d25" d="M549.7 693L579 590l-39 17.8-35.3 89.5" />
      <path fill="#61375b" d="M803.5 283.5l7.3-5.6-1 6-8.3 65" />
      <path fill="#e57a2f" d="M196 510.8l90.6 3.6L158 537l9 12.7" />
      <path fill="#c83f1e" d="M376.3 310.2l4.6 18 1-136-3 18.6" />
      <path fill="#24131c" d="M746.6 374l-64.8 14.7-88.6 29.2 103.3-23" />
      <path fill="#6a85c0" d="M333 204.7l-.7-33.5-5 98.4-110.5-63" />
      <path fill="#565384" d="M311.7 400.4L265.4 501l9.2-53 38 15.7" />
      <path fill="#b1877b" d="M509.2 357.3l-16-16.5 7.2 7 32.8-1.3" />
      <path fill="#9f89a1" d="M530.2 297l35 5 19-19.8-6.2 46" />
      <path fill="#150306" d="M396 530.6l5.4 7.3 1.3 63-8-4" />
      <path fill="#6a5268" d="M366 155.5l43.7 41 82.4 69-84-76.7" />
      <path fill="#9583ad" d="M891.8 317.5l-122.2-58 112 4.4-66.4 54" />
      <path fill="#445090" d="M505.4 427.3l-9.5-1.5-5-37.2 32 27.7" />
      <path fill="#ee4405" d="M341.2 591l23 1.6 19 8.3-10.4 2" />
      <path fill="#1b2568" d="M949.7 330.6l27 5.8-126-14.5 95.6-1" />
      <path fill="#606a9c" d="M233 337.5l-57.5-15-19.7 19.3 100.3-21" />
      <path fill="#4b1e19" d="M226 538.2l-32.3 13-27 32.4 47.6-57.8" />
      <path fill="#253270" d="M681 353l44-27.8-49.3-5.2-82.7 10.6" />
      <path fill="#2d427a" d="M223.3 503.6l-86 20.8 5.4-246.7 6.2 214" />
      <path fill="#f2dead" d="M738 366.8l-65.2 17.6 117-27-13.6 1.4" />
      <path fill="#903e0f" d="M573.7 665.4l93 46.6-57.5-27.7-77-15.7" />
      <path fill="#465483" d="M32.6 370l-.2-72.2-2-26-1 48.2" />
      <path fill="#d2a0bc" d="M389.8 98.8l-68-8.7 10.2 58-39.2 12" />
      <path fill="#4e7dbf" d="M-31 285.2l29-81 131.4 19.3-87 34.3" />
      <path fill="#e86319" d="M334.6 526.8l-14-15.5 5.2-3.5 4.2 68" />
      <path fill="#d09976" d="M831.6 382.2L821 422l15.8 3.7-12.4-42.8" />
      <path fill="#6781b8" d="M453.8 232.7l46 42-95.3 25.6-8.4-114.5" />
      <path fill="#732224" d="M335.8 269.6L332 134l16 74.2v-48.5" />
      <path fill="#2b1d26" d="M549.6 445.8l-103.5 35 12-25.5 137-32" />
      <path fill="#446ba0" d="M65.4 415.5L95 386l-119 28-3.7 39.5" />
      <path fill="#dd824a" d="M483.4 452.6l-11.7-21.4h24.6l-11-17.3" />
      <path fill="#b3b0c6" d="M363.8 322.7l15.7-12-26.2-3.5 4 21" />
      <path fill="#405e9f" d="M145.4 236.4l-7 9.5 7.6 68 2-80" />
      <path fill="#3c3454" d="M745.7 322.6l5.3 30.8-42.3 12.8-92.8 1.3" />
      <path fill="#e39072" d="M315 326l-2 136.5 2.5 6.2-.7-23.6" />
      <path fill="#605979" d="M308.2 208.6l-34.4 324.8 39.3-16.6-38 7.5" />
      <path fill="#491c12" d="M280.4 534l73.5-28-20 16.3-47 17" />
      <path fill="#a0a2c2" d="M88.8 320.6l114.8-8.3 115-2.4-41.6 13" />
      <path fill="#4b3048" d="M198.6 197l63.7-26.8 27.8-14.6-47 20.4" />
      <path fill="#9198c7" d="M273 183.8l57.3 13.6 2.6-43.6v-2" />
      <path fill="#3e4471" d="M377.2 546.2l-14.2.2-2.2 5.8 10 5.3" />
      <path fill="#a796b2" d="M594 308.6l75.8-.2L687 316l-43.4 6.4" />
      <path fill="#8086bd" d="M713-31l53 10.8-29.8 211-134.4-2.3" />
      <path fill="#e45e00" d="M367.3 464l-46.7 17.6 30.2-78 6.7 66" />
      <path fill="#ffbb47" d="M351.7 509l-.4 11.3 11-12.6-6.2-.5" />
      <path fill="#c8430b" d="M341 323l43-48-19.4 6.5-21-1.5" />
      <path fill="#d8ab64" d="M223.6 511.5L152 534l42-10.7L327.6 483" />
      <path fill="#9b2300" d="M333.6 542.4l3.6 63.3 17-14.5-14.7-79.8" />
      <path fill="#e2a26d" d="M610.6 384.7l9.2 9.2 74.4-18-90.7 32" />
      <path fill="#b0a4cb" d="M287 153.3L229.3-31 309-21l-12 170.4" />
      <path fill="#2b345e" d="M403 576.3l1.3 43.3 75.7-89.2-75.2-6.5" />
      <path fill="#dad1bb" d="M449.5 341l-6.8 1.4L433 358l-11.5-13.5" />
      <path fill="#4d1d10" d="M380.5 363.6l1.7 83 16-71.6 4 62.2" />
      <path fill="#f98600" d="M379 451l-4.7 29.3.2-15.2 6.5-103" />
      <path fill="#e09146" d="M600.4 405L547 428.6l12.7-36 10 26.7" />
      <path fill="#6c78a6" d="M136.3 348.5H72.5l24.5-21-41.3 10.8" />
      <path fill="#8b96c9" d="M218.7-25l-58.3-6L248 174-1-31" />
      <path fill="#d98853" d="M541.4 429.6l-14.6-26.2-9.5 33 15-24.8" />
      <path fill="#543840" d="M537 634.5l9.8-30 141-100.6-88.5 88" />
      <path fill="#5b566f" d="M519.7 252.2l58 48.3L618 331 496 230.6" />
      <path fill="#815561" d="M793 335.5l-96.8 19 6.8-6.4 83 3" />
      <path fill="#130c0f" d="M380 631.2l-109.5 9 133.3-18 9.2-22.6" />
      <path fill="#b68589" d="M764.6 372.8l4 5.2-5.8 8-8.3-5" />
      <path fill="#2a407c" d="M211.7 447.3L284 427l-19.7 70-93.6-19.4" />
      <path fill="#2f4b87" d="M502 465.4l72-29.6 79.2-27v32.4" />
      <path fill="#392941" d="M786.5 424.8l-61.8 50.5 82-58.4 2.4-41" />
      <path fill="#626da0" d="M375.5 371.8l-21-3.5-.8-8.3 18-26.5" />
      <path fill="#3a192c" d="M208.5 192.5l-35.8 16-32.3 13.2-1-1" />
      <path fill="#3e0f14" d="M350.2 255.6L350 289l-8-18 2.6-3" />
      <path fill="#bf9ea1" d="M982.6 309.6L955 318l19.2 9.5-3.6-.4" />
      <path fill="#6078b8" d="M877.5 48.7l81 68.8 96.5 168L885.3 217" />
      <path fill="#510d11" d="M335.7 380l-.6-102.4v.5l6-83" />
      <path fill="#668eca" d="M121.6 241.4L240 185l-110.7 43.5-31.8 14" />
      <path fill="#5583c0" d="M93.8 384l70.6-10.8 20.4-5.7-80.6-4.7" />
      <path fill="#58548f" d="M698 316.5l64.7-2.3-11.3 5.5-108 5.2" />
      <path fill="#4f538d" d="M607 313.7l34.3 13L535 343.4l82.6-30" />
      <path fill="#4f6396" d="M39.3 291.5l4.5 1.7L41 410.6l-1.2-90" />
      <path fill="#1c4b92" d="M139 441.7l-42.5 20 9 76 19-7.7" />
      <path fill="#54639c" d="M439 349.4L587.6 400l-21.5 9.6-19-52.5" />
      <path fill="#686379" d="M542.8 304.7l49 27.8-42.2-27.5-87.8-64" />
      <path fill="#c27251" d="M278.2 479l-5.4 10.2 10.4 10.2-15.8-16.8" />
      <path fill="#ac4321" d="M205.2 512.7l72-20 71-29.7 47.6-14.6" />
      <path fill="#c2b8c1" d="M407 312.8l-.8-23-5 37.8 41.5-7" />
      <path fill="#9094b9" d="M471.2 314.2l-68.7-10.7 17-16.3 160.2 10.4" />
      <path fill="#47160e" d="M387 500.5l19.4-20.3.3 37 41.7 35" />
      <path fill="#9d6982" d="M449.7 439l-48.3 13.5 37.8-39.2-2.8 21" />
      <path fill="#a44b22" d="M276.2 559.8l5.7-.6-29-2 18 15.3" />
      <path fill="#273b78" d="M795.7 399.6L676 486.2l-120 5-105.4 1.3" />
      <path fill="#ffde5f" d="M446.2 461l-29-5-9 15 36.8-23" />
      <path fill="#9b5756" d="M811 419.4l-42.5 76 60.7-51.5-21.2-67" />
      <path fill="#a40" d="M486.6 444.6l-21.3 8.2-52 15 15 7.5" />
      <path fill="#29101c" d="M398 274l-16.5-85.5 13.5 93.7.4 145.8" />
      <path fill="#242a49" d="M833.3 394.2l3.5-.4-12.3-13.7 18.5-20" />
      <path fill="#433242" d="M442.7 664.6l-31-28.8-2.7-36 34.6 42.6" />
      <path fill="#463d5f" d="M863.3 444.8l-39.6 104.7 16.4-39.7-78 23" />
      <path fill="#142755" d="M981 503.8l-92.6-13-64 64 52.6-2" />
      <path fill="#526097" d="M191.6 356l.4-174 3.3 161.4-16.8-15" />
      <path fill="#2d3050" d="M56.7 511.5L39 533.7l1.7-91.4 5 94.2" />
      <path fill="#ed7824" d="M631.3 399l-24.7 3.8L710 377l2.4 2.4" />
      <path fill="#90410d" d="M387.3 307.4l-.3-25 8 48.6-8.3 80.3" />
      <path fill="#283d82" d="M872.8 423.5l-10.4-48.2 192.6-18-213.8 53.4" />
      <path fill="#5e75b1" d="M327.5 352.3l-.8 87-12.7-85-51.6-2" />
      <path fill="#564162" d="M371.7 553.4l-13.3-3.3 15.6-14-14.8-20" />
      <path fill="#ef9e6e" d="M835.2 413.2l-4-12-8.2-9.3 7 30" />
      <path fill="#4e4b68" d="M605.5 350.4l8-7.8 51 19.3-159.4-8" />
      <path fill="#c35644" d="M810 344.7l-2-17.7 16 24.3-4.8-33.5" />
      <path fill="#1f0f10" d="M583.6 424.3l-7.7-8.7 2 17.4 106-38.4" />
      <path fill="#d85103" d="M364.5 622.4l11.4-8 9 15.7-28-24" />
      <path fill="#091d51" d="M1000.5 343.4l-43.7 14.8 90.5 6.5-56.6-36.3" />
      <path fill="#7681bd" d="M798.2 198.5L860.7-.8 774-31l-92.7 341.2" />
      <path fill="#6f546f" d="M421.8 522l5.7-27.8-22.3 13.8 3.6-27.5" />
      <path fill="#392b3e" d="M752.8 556L669 663l50.5-113 66.2-20.3" />
      <path fill="#6a85bf" d="M351 277l27.2-.4-3-28.3-23-15.2" />
      <path fill="#9b7a8c" d="M795 311.4l43.2-8.4-73.7 22.4-13.8-4.8" />
      <path fill="#0f031c" d="M384.5 341.8l-.6-74h2v43" />
      <path fill="#204f93" d="M86 433.2l-45.3 29.2L91 531.6l-.4-70.8" />
      <path fill="#46457c" d="M486.7 321.4l88 25.8-45.5-3.8-42-5" />
      <path fill="#8a798c" d="M208.6 349.3l34-15.8-51 5.5L319 350" />
      <path fill="#6e5366" d="M416.6 152l40 43.2-7.2-6.4 47.6 40" />
      <path fill="#433655" d="M240 178.3l-132.4 59.4L118 228l-9.8 5" />
      <path fill="#8a2a0b" d="M326.5 371.7L353 369l-4.3-82 6.2 61.4" />
      <path fill="#92311d" d="M342 209l46.4 22-38-3.8L380 207" />
      <path fill="#96707d" d="M825 459.5l13-17.3 17.8-69.8-34 69.3" />
      <path fill="#2d2d67" d="M887 323.7l168 2.6-79 31 64.7-26" />
      <path fill="#2f4578" d="M29 425.8l5 24-2.4-85.4-2-19.7" />
      <path fill="#0d0f15" d="M54.5 517.3l44.8 13.2L46 649.3l-25-108" />
      <path fill="#3b5492" d="M97.7 294.6l-9 6.4 7.5-37-5.7.4" />
      <path fill="#bb5010" d="M341.6 247.5l1-13 18.2-17-22.7 40.3" />
      <path fill="#484981" d="M778 374.7l13 11 14.4 19.4-71.4-1" />
      <path fill="#beb3c2" d="M319.8 315l9-3 1.7 13.6L248 320" />
      <path fill="#c2c7d3" d="M86.5 328.7l-19.2-8.3L73 322l-28.5 10.7" />
      <path fill="#f0bd87" d="M596.5 405.5l37-10.3L729 372l-70.6 13.4" />
      <path fill="#bd3900" d="M349.7 293.7l-15.4 130.7 10-5.6-1.3-28.5" />
      <path fill="#ed6718" d="M380.3 274.4l1.4 39.3-5 91.2V301" />
      <path fill="#244d94" d="M146 410l-1.3-78.3L157 509.3l26.5-79.8" />
      <path fill="#5e3857" d="M797.6 347.3l23-41.6-54 39.5 33.7-3" />
      <path fill="#d69761" d="M586.5 397.5L583 406l13 4.7-9.2-25.5" />
      <path fill="#f59015" d="M329.3 459.4l-1.6-36-.6-57 9 84" />
      <path fill="#445489" d="M235.2 333.8l-1-95-1.7 55 3 201" />
      <path fill="#b196b1" d="M399.8 81.3l-3.5 78.4 37.6 14-43-49.2" />
      <path fill="#23355d" d="M44 451l-3.8-4.5-4 201 5-297.3" />
      <path fill="#7d5d62" d="M923.8 332.8l24 1 10 10.5-7-6.5" />
      <path fill="#4d3d55" d="M430 164l88.6 88.5 3.3-.3-57-52" />
      <path fill="#dc5207" d="M343.2 523.7l22-59.8-21.2 78 25.7-37" />
      <path fill="#542833" d="M793.5 359.3l15 49.6-2.5 18 8-68" />
      <path fill="#ef9c35" d="M424.3 493.3l-10.5 2.2-2.8-10 17-2" />
      <path fill="#ffaabf" d="M356.4 120.4L341 126l-12-3 3.8-9.2" />
      <path fill="#b8867d" d="M408.8 344.8l-10-3 4 12.5 23-6.4" />
      <path fill="#df7e2a" d="M219 537.4l1-42.2 8.6 28 30.8-13.6" />
      <path fill="#6b92c6" d="M-18.2 378.4l101.8-7.6-73.8 28.5 34.6 6.6" />
      <path fill="#3a3e6b" d="M295.2 573.6l33.2 19-2-44.7.6-33" />
      <path fill="#9b3b30" d="M347.3 179.8L331 147l48-22-28.6 27.3" />
      <path fill="#3a1614" d="M370.5 573l-5-10.6 8 3.4-1 6.6" />
      <path fill="#dda854" d="M310 486l61.6-18.4-25.3 20 2-11.6" />
      <path fill="#ab6941" d="M683 369.2l98.7-14.3-144.5 35 41.3-12" />
      <path fill="#b48676" d="M552.6 351.7l1-5.3-32.7 1.3-82-5" />
      <path fill="#532009" d="M332.4 498.5l-7.6 2 25.4 13.4-17.8 8" />
      <path fill="#83748c" d="M380.4 325.7l22.8-.6-1 23 73-21" />
      <path fill="#f9a24f" d="M159.4 545l214.3-68-110.5 32.2L195 533" />
    </g>
    <g class="SVG--2">
      <path fill="#7274a9" d="M771.5 293.6l28.7 11-192.4 1.2 58.6-9.2" />
      <path fill="#31101a" d="M386.2 348.7l-2 48-.8-50.6-1.4-18" />
      <path fill="#b59fc2" d="M484 11.5L350.6 143 362 81l46 60.7" />
      <path fill="#5d699b" d="M305 186.7l-2.3 27.2 1.3 220 1.2-198" />
      <path fill="#26213b" d="M146 236.6l-85 32.6 27.5-14 51.8-19.2" />
      <path fill="#e4bd74" d="M311 468l8-.4-13.5 9.5-10-17" />
      <path fill="#4b5699" d="M374.7 462.6l-16-1 10.2-1v-50.4" />
      <path fill="#ed7531" d="M147.3 542.5l16.2 7.4 15.7-13L378 467" />
      <path fill="#aa5441" d="M734.3 472.4L684 522l-4 21.6 22.5-5.8" />
      <path fill="#6f4754" d="M756.8 474.8L716.6 512l-12.2 31.7 123-62.8" />
      <path fill="#924b37" d="M643.5 619l33.3-68-38-12.2-1 37.4" />
      <path fill="#527bb9" d="M100.2 240.8l-80 30.2 13 7.3L223.7 195" />
      <path fill="#50568b" d="M592.6 369l29.8 25 13-38.3-39.4 46.8" />
      <path fill="#ffaf05" d="M407.5 466v-8.3l13 11.5-41 7.8" />
      <path fill="#ff6800" d="M356 416.7L344 385l-.4 43.5 6.3 22" />
      <path fill="#a94f19" d="M384 489.5l4.7 72 .3-62.4-53.8-95" />
      <path fill="#4d64a3" d="M313 412.2l-56.8-3.2 14.7-5.2 18-68.8" />
      <path fill="#7d2a34" d="M339.4 143l48.7 8.5-53-19.5 8 52.8" />
      <path fill="#e36003" d="M350 499l29.2 42-24.4-46.2-5.8-2.5" />
      <path fill="#411f18" d="M431.2 704.6l108.5-18.2-17-41L474 670" />
      <path fill="#534f6b" d="M825 360.7l1 14.6 21-8.3 2-10.2" />
      <path fill="#60689a" d="M638.5 360.2l21 27.4L671 367l-238.4-12.7" />
      <path fill="#131016" d="M330 596l.6 53.7 82.8-10L368 624" />
      <path fill="#20070c" d="M382.5 538.3l.4-11.5 2-25v110.7" />
      <path fill="#466dac" d="M198 376l92.7-10-115.3-18.2-29.5 37" />
      <path fill="#fe5e00" d="M381 543.8l-42.3-7.6 37.6 2-.7 101.5" />
      <path fill="#da7808" d="M276 496.3l110-34.8-86 22.3-23 8" />
      <path fill="#1f243c" d="M228.2 539.7l30.3 19.7-34.8-.4 42.8-26.2" />
      <path fill="#f4611f" d="M333.4 303.3l1-28.3-5.2 27.7 5.3 58.7" />
      <path fill="#83330e" d="M484.2 446.7l85.4-27.6h4l-12.6 9" />
      <path fill="#7b6e9b" d="M425 425.6l37.2 7 39.2-6.3-109.2-7.2" />
      <path fill="#371915" d="M218.2 535.8l-51.8 23 84-23 70-34.4" />
      <path fill="#7172aa" d="M994 268l-111 33-79 3.8 80-27.4" />
      <path fill="#df4300" d="M381.5 468.5l-1 12.8 19.8-29.4-6-11" />
      <path fill="#3f1509" d="M395.7 498.8l9 28-6-42-32 9.4" />
      <path fill="#151118" d="M264.3 626.4L329 713 151.3 546l111 21.5" />
      <path fill="#86a4d3" d="M92 309l-104.4-10.6 104-4.4-6 36.7" />
      <path fill="#ff5907" d="M331 594.3l-3.2-79-1.4 8L333 535" />
      <path fill="#0e0e14" d="M229.4 636L97 581.4l-128 41 174-79.2" />
      <path fill="#68496d" d="M879 356.4l-58.2-35.7.3-55.8-8 43" />
      <path fill="#9e99c3" d="M260 165.6l-24.3-116 82.7 90.7-49 22.2" />
      <path fill="#efb46a" d="M844.3 349l-78 15.7 17-8.8 35-5" />
      <path fill="#344174" d="M266 554.7l56.2 1.3 6.5-28.8-109 38.2" />
      <path fill="#6578ae" d="M413.8 304l-1.2-90.6-15.7 38 3 27.4" />
      <path fill="#bf4311" d="M349.2 452.5l-32 26.3-3.3-11 43 .4" />
      <path fill="#46262f" d="M382.2 607l-26.5-7-9.2 32 6.8-24" />
      <path fill="#180d0a" d="M286.4 527l2.7 4.5-79 27.6 15-6" />
      <path fill="#862a23" d="M340.7 230.6l36-25.3L388 169l-13.7 55.5" />
      <path fill="#ab8b8d" d="M274 344.6l-42.5 2.2-34.7-1 87.4 4.4" />
      <path fill="#401b2c" d="M379.8 189.6L395 142l.7 85 2 80" />
      <path fill="#1b3480" d="M1037.7 403.4l-110-31-38-3 161-11.4" />
      <path fill="#212040" d="M737 580.5l133.3 6.5L726 641l21.8-146" />
      <path fill="#ab89b5" d="M795.8 271.2l21.4-2 14 6.8-39.4 5.5" />
      <path fill="#393f73" d="M876.5 371.3l-27 31.2-5 78.2 17-3.6" />
      <path fill="#bd7856" d="M330 435l33.5 28.3-3-162.4.8 160" />
      <path fill="#e1b580" d="M449 436l-16.5-15 14.2 35-11.2-3.8" />
      <path fill="#758ac0" d="M309.5 305L324 180l8.4 99-17.3.8" />
      <path fill="#10254b" d="M699.3 496.6l-103.5 34L453 610.2l10 27" />
      <path fill="#0f1428" d="M937.5 713l-112.8-74-162.5 31.5 18 42.5" />
      <path fill="#342746" d="M676.4 337l31.6 33.4-43.8-10.3-6.2-8" />
      <path fill="#726e99" d="M167.3 340l101 5.8L275 323l-30 6.5" />
      <path fill="#738cc6" d="M72 180.4l87 29 55-21.5-129-78" />
      <path fill="#162c59" d="M405.4 571.6l-2 23L533 577.3 647.6 506" />
      <path fill="#ff4c00" d="M335 565.4l-4.6 32.4-.5-20.4V554" />
      <path fill="#d4764c" d="M760.3 454.5l73.3-59-7 6.7-39.2 60" />
      <path fill="#7077a7" d="M405 413l48.6-50 28.8-9.7-80 2.2" />
      <path fill="#c3bccb" d="M416.8 318l145.2 3-31.8 4.7-105-4.3" />
      <path fill="#7991c3" d="M424.7 226.8l-1 49.5 95.8 16.7-108 8" />
      <path fill="#522720" d="M638 579.6l-4 58-48 22.2 50 53.2" />
      <path fill="#de610b" d="M370.4 155.3l37.2-2.2-56.6 4-16 10" />
      <path fill="#1e161b" d="M140.6 550.8l117.8-10-2.7-26L175 604" />
      <path fill="#898bbf" d="M657.7-21.8l-88 210L744 14.5 727.8-31" />
      <path fill="#b05a4e" d="M334.3 136.7l51 32.6-54-34.4-55.3 28" />
      <path fill="#e09b5b" d="M215 491.7l-1.8 3.8-11.5 6 8-10" />
      <path fill="#765d7e" d="M400.5 500.3l24.3-7.8 15-6.8L429 500" />
      <path fill="#a94719" d="M252 561l21.4 1.3-3.5 3-4 7.8" />
      <path fill="#c38698" d="M533.6 293.7l-5.3-8.7 14.6 23-1-14.5" />
      <path fill="#414e89" d="M308.4 424.5L291.6 411l-4.6 19 3.5 48" />
      <path fill="#35437a" d="M184.3 517.6l2.7-80.8-2.6-81.4-5.7 115.6" />
      <path fill="#34171e" d="M402.3 406l-4 20.8-4-1.2-1-187" />
      <path fill="#c4acca" d="M421.8 63.2L347.4-31 305 55.8l13 47.2" />
      <path fill="#86719d" d="M1055 341.7l-34.3-45.3-179.2 12.2L986 308" />
      <path fill="#7d8cc0" d="M364.4 206.3l13.8-12.7-24.7-36.4-5 49" />
      <path fill="#b06f62" d="M784 347.8l5-12.7-27.3 22-6.7-11" />
      <path fill="#052556" d="M1055 562.5l-123.4-23 48.8-59 74.6 6.6" />
      <path fill="#110e13" d="M269.3 584l-81 97.7L215.6 530l-6.8 4.3" />
      <path fill="#8591bf" d="M195.4 318.8l123.8-13-99-8-108.7-.8" />
      <path fill="#2c3e75" d="M192.5 361.5l4.7 150.3 36.2-14-45 4.5" />
      <path fill="#596da6" d="M223 239l-.2 20.7-1.6 77.8-2.8-128.5" />
      <path fill="#eabf76" d="M595.4 403.6l-30.6 11.7-46 10.2 42-13.2" />
      <path fill="#753f3f" d="M707.7 570.7l15.7-64 6 18.3-43.7 30.5" />
      <path fill="#eb5d0b" d="M379 389.2l-17.7-19.7-9.8 25 19 9.2" />
      <path fill="#010100" d="M109.3 623.7l.7 47-141-4.3L77.7 713" />
      <path fill="#ab4f2b" d="M790.8 359.2l40.8-6-83.2 17.8-3-2" />
      <path fill="#534776" d="M90 527l7-28.3v29.6l23.8 10.2" />
      <path fill="#ba7b54" d="M148 532l-3 12.2-34.5-.7 95.7-19.5" />
      <path fill="#14151f" d="M31.3 522.7l39.6-5.5 42 61.8 2 17" />
      <path fill="#e55800" d="M382 485l16-2.3 32.5-16.4-67.4 17.2" />
      <path fill="#1b4487" d="M184.5 429.5L146.3 469l3 54 30.5-7.7" />
      <path fill="#4d4576" d="M290 474.6l14.3 6.4-40.3 10 26.3-13" />
      <path fill="#42211f" d="M327 594.4L279.6 564l-3.8 16.8-21.2-1.7" />
      <path fill="#8a8eac" d="M106 350.6l49.7-32-56 22.8-40.4 2.6" />
      <path fill="#573d50" d="M760.8 502.6l57 6.2-89 24.7 8.7-63" />
      <path fill="#5f84c2" d="M-24.6 210.3l108 21.3 50.6-15.4-143.4-56" />
      <path fill="#a299c1" d="M406 140.5l91.7-109.2L511-15.3l40 120" />
      <path fill="#403a5e" d="M361.8 573.4l10 18.6-8.7 2.7 2 .5" />
      <path fill="#5f4b65" d="M379.3 171.5l56.5 46.5 37.2 31.4-45.4-41" />
      <path fill="#8792c5" d="M421.8 152l43 42 118.6-20.5-28.6-27.5" />
      <path fill="#ba8790" d="M313.2 320.8l-.3 20.8-5 3 7 22" />
      <path fill="#882e33" d="M382.7 151l16.3-.5-62.4 8 35-24.5" />
      <path fill="#cb6f23" d="M341.4 237l33.2-11-43 4.5 2-4" />
      <path fill="#445ba0" d="M317.2 436.2l6 14.8 3.2 1.5L320 329" />
      <path fill="#a89db3" d="M371 305l5.8 24.7-24.5-17.5-4.5 1.7" />
      <path fill="#5f70a7" d="M333.4 369.2l-14-28-12 50.5-51-42.8" />
      <path fill="#b599b8" d="M577.3 288.4l12.6 3-22 21.6 5 7" />
      <path fill="#dd8448" d="M814 346.8l-40 3 57.4-7.4-10 8.3" />
      <path fill="#b9a49e" d="M37.8 345.3h-39L29 339l32.4 5.4" />
      <path fill="#7e555e" d="M633 353.3l21 11 49.3 13.4-18.8-8.3" />
      <path fill="#fff17d" d="M446.3 447l-.6 16.2-5.2-19 2 5" />
      <path fill="#5f4963" d="M354.3 347l11.7-5 14 10.2-21.2-3" />
      <path fill="#743016" d="M345 495.7l27 6.6 7-16.7-56.7 21" />
      <path fill="#384071" d="M403 560l101-80-94 29.2-3.3-11.8" />
      <path fill="#1c4d8e" d="M27 518.8l2.6-41.5-60.6-60.8L-19.8 527" />
      <path fill="#bd7c59" d="M846.3 384l-5.6-18.3H866l-18.2 15.8" />
      <path fill="#28202a" d="M468.3 669.2l47.8-42-48 6.5-31 25.3" />
      <path fill="#e07e50" d="M112.2 542.3L133 539l56.5-4.3-17 9.7" />
      <path fill="#9b747a" d="M962.4 311.5l30 23L997 347l-28.7-36" />
      <path fill="#3c3a67" d="M150.8 516.8l-11 16 2-134.6.3 74" />
      <path fill="#1f316a" d="M841 515.4l42-85.8 92.8-2.6-25.4 50.5" />
      <path fill="#6569a0" d="M327 356l.2-23.7-6-10.3-3.7 9.6" />
      <path fill="#060609" d="M154.4 664L87 526l27 16 31.5 90" />
      <path fill="#1e2452" d="M979.5 335.8l75.5 11v-12l-120.5 12" />
      <path fill="#6680b8" d="M377 229.3l-4.3 42.7 7.4 3-30 6.4" />
      <path fill="#8491c2" d="M402.3 185.5l1.2-39.5 46.4 43.4-5 33.4" />
      <path fill="#eb9744" d="M250.2 516.5l.4-21.2-15 15.4 52.2-3" />
      <path fill="#2c1519" d="M493.2 441.8l7.6 10.2 43.7-24.8 20.8 9.7" />
      <path fill="#526fb3" d="M1052.5 175.6l2.5-193.8L993.7 40 979 202" />
      <path fill="#551b21" d="M335.5 232l12 38.8-12-62.7 14.8-39" />
      <path fill="#876b84" d="M1019.3 317.4l-27.7-8.3 26 35-18.2-13" />
      <path fill="#6481bb" d="M473.4 216l90.3 74.4-74-33-44-36" />
      <path fill="#8f7698" d="M870 323.3l29.7-14-111.2-1.6 48.5-5" />
      <path fill="#2d315d" d="M595 348.4l-51.8 5L591 341l42 14.6" />
      <path fill="#bd560e" d="M547.2 424.4l-6.7 4.6L671 387.8 590.3 416" />
      <path fill="#6a7bb8" d="M947.8 273.3L811.5 204l82-13 136 66" />
      <path fill="#86555c" d="M824 437.3l-29 52.5h-56l81.6-48" />
      <path fill="#906b87" d="M401.7 455.4l59.3-45.6-43 38.5-7.8-62" />
      <path fill="#505b91" d="M536.7 419.3L519 382.7l56.4 19.4 19.3-47" />
      <path fill="#ae392c" d="M380 273.4l4-22.8-2.8-55.5-5.2 110" />
      <path fill="#be6a3b" d="M792.5 342.5L814 352l-59.2 7 74.2-18.6" />
      <path fill="#101935" d="M884.5 650l-24.3-34.7-133 15 60.6 40.8" />
      <path fill="#270909" d="M387 536.3l-5.4 79.5 11.7-22.7-7 8" />
      <path fill="#646898" d="M504 343.2l2-49-4.6-58.6.6 33" />
      <path fill="#353661" d="M357.4 526.5l12.2 9.6 5.2 7-12.6-23" />
      <path fill="#f77a04" d="M381.6 444.4l-10 25 12 8.2-13-105.5" />
      <path fill="#5e2a09" d="M367.7 508.3l36.7 53-26-26.8-6.7-28" />
      <path fill="#74423f" d="M633 566.3L612.8 597l-2.8-38 90.2-60.7" />
      <path fill="#806776" d="M709 350.2l-18.5-2 32.2 7.4-5.8-6.8" />
      <path fill="#2f3f7d" d="M741 400.2l41.5 16.7-84 25L593 429" />
      <path fill="#606fa3" d="M268.3 277l3.5 74 1.3-61.8-2-92" />
      <path fill="#b9a3c4" d="M345.4 138.4l30.8-12.3 33.2-33 41.2-124" />
      <path fill="#b53425" d="M342.2 208.8l-10.5 52.7-1-52.2 7 21.2" />
      <path fill="#6c2831" d="M171 526.4l-62.4 12.3 62.6-21.2-.8 18.8" />
      <path fill="#ff6102" d="M374.8 581l4.6-47.3.6 81-6.5-9.3" />
      <path fill="#9daecf" d="M27 339.8l-58-6 17.2-14.6 42-10.5" />
      <path fill="#b13f00" d="M391 449.7l1.5-33.4-7.6 72.2V387" />
      <path fill="#4f3033" d="M692.5 642l-2.3-69.7 32.4 6.4-107.3 63.6" />
      <path fill="#3c4d88" d="M281.3 489.3l-10-118.3-19.5 82.5L254 362" />
      <path fill="#050609" d="M51.3 573.2l-82.3-50 124 48 6.7 110.6" />
      <path fill="#434e6a" d="M476 249l50.5 41.6-18-13.6-38.2-30.6" />
      <path fill="#171929" d="M55.5 571l1.7 28.3-9.8 14.8-4.4-41" />
      <path fill="#632d19" d="M510.6 713l71.8-67.5-55 9L505 713" />
      <path fill="#562517" d="M475.4 460.8l.4-11.7-43.5 34 20.4-4" />
      <path fill="#525584" d="M597.6 383.6l24-33.3L642 392l17.3-30.8" />
      <path fill="#f6860a" d="M315.8 488l-1.4 7.6-36.6 5.4 8-2.7" />
      <path fill="#4a4570" d="M563.5 354l-61.3-13 50-5.7-27.3 19.4" />
      <path fill="#7d3008" d="M394.8 547.2v-31l1.8-11-6.5 31.2" />
      <path fill="#4d64aa" d="M1038.5 298l-75.7-10 74.5-24.8 17.7 12.5" />
      <path fill="#605279" d="M856.5 401l-37 101.7 35.7-125 17.4-3.4" />
      <path fill="#9b4f4b" d="M742.4 466.4l-47 32.2 38.8 11.7 2.8-38.6" />
      <path fill="#678bc9" d="M376 230.2l-24.3 22.6 4.8-23.5L376 250" />
      <path fill="#923505" d="M394.4 595.4l.6-20.3-2.4-115-.8 109" />
      <path fill="#685f8c" d="M438.3 418.8l39 13-19.7 6.6-1.5-60" />
      <path fill="#856367" d="M641.4 360.6l-23 52.4 27.5-63.5 18-5.5" />
      <path fill="#ec7d31" d="M364.8 161.5l-23.6-.6 30-8h10.2" />
      <path fill="#455b8f" d="M652.5 439.6l-75.6-6.4 1 1.8 14 8" />
      <path fill="#35619e" d="M25.2 433.2l6.5 27.4-58.4.7L-8.2 391" />
      <path fill="#1c1f41" d="M889.8 373L852 361.4l49.7-5 23.3 5" />
      <path fill="#685d83" d="M563.5 338L538 321.6l44.5 24.8L569 348" />
    </g>
    <g class="SVG--3">
      <path fill="#cbc6d2" d="M417.3 328.2l-1.8-13 52.3 8-40.4.8" />
      <path fill="#6e86c1" d="M606 310.2L529 257l-39.4-37.7L639 201.5" />
      <path fill="#d17738" d="M208 513.3l78-3-83.3-1.2 1.6-20" />
      <path fill="#3b4478" d="M219.2 390l2-58.3 2.3 128.2-4.5 42" />
      <path fill="#453e5e" d="M565.7 318l64.6 34.5 10.2 17.5-69.6-48.5" />
      <path fill="#7c6082" d="M291 464.7l-7.7 4.4 34.7-27-24.8 39" />
      <path fill="#d34c06" d="M349.5 279.3l-10 9.8 2.3 41 14-25" />
      <path fill="#553a5e" d="M774.4 325.7l46.3-11-17.5 16L800 346" />
      <path fill="#11295d" d="M934.5 367l-36.8-28 62 1.6 8.2 24" />
      <path fill="#6388c8" d="M148.5 274l5.2-40.6 27.4-5-2 78.8" />
      <path fill="#a09ccb" d="M372 165l-13-5.6-6.3 2-1 7.2" />
      <path fill="#b73916" d="M368.2 280.5l-12 3.2 5.7 21 14 3.6" />
      <path fill="#8192c3" d="M327 142l-180.4 82L327 152l-9 78" />
      <path fill="#934b30" d="M628 636.5l3.4-83-14.6 80.6 9-10" />
      <path fill="#626da2" d="M281.7 209.4l5.6-2.3-2.7 145 3.4-99" />
      <path fill="#3b1b2b" d="M835.8 391.3l-21.7 6.5-11-27 1 20.2" />
      <path fill="#a2a0cd" d="M169-31h81.5L264 49.8 254 96" />
      <path fill="#d17734" d="M325.4 489.3l-3 33.2 5.3-.4-5.5-66" />
      <path fill="#b3b5ca" d="M259 308.4l21.8 24.2 13-11.8-19.7.3" />
      <path fill="#6a6c99" d="M371.3 402.3L375 437l-8.3-24.5-10.5-14" />
      <path fill="#e06b11" d="M222.5 511.4l-42 11.3 26-12.5L220 507" />
      <path fill="#586fa7" d="M137 271l10.5 65.3-1.3-39.2-3.7-38" />
      <path fill="#283261" d="M93 461.6l-1-43 3.6-42-.3 68.5" />
      <path fill="#47568e" d="M98 332l84.4 13-94-15 7 34" />
      <path fill="#cc3d04" d="M366.4 594.8l-30 2.6-2.3 2 4 3.2" />
      <path fill="#271b22" d="M620.5 673l60.5-28 51.4 68-70.7-.6" />
      <path fill="#5f3530" d="M349.5 369.5l66.4-1-77 3.2 11-12.7" />
      <path fill="#2e4682" d="M551.4 443.7l27.4-7.8 59 17L439 485" />
      <path fill="#662412" d="M345.3 522l-1-25-37 7.4 38.4 4" />
      <path fill="#455489" d="M191.6 301.5l3.6 102.4-4.6-47 1-37" />
      <path fill="#cc8a6c" d="M529.6 420.5l1.5-20-8 9.5 12 16" />
      <path fill="#250b1d" d="M385.7 348.7l1-9.4-3.7-70.5.6 96.7" />
      <path fill="#424473" d="M253.6 410l-1.6 85 71.4-19.5-55.5 12.7" />
      <path fill="#6073aa" d="M518.2 359l68.2 5.2-19.6-7.4-75-2.4" />
      <path fill="#954233" d="M814.8 375.6l14.2 18.2-24-36 25-4.5" />
      <path fill="#4e5f96" d="M188 313.8l-2.6-25.6-2.4 141-.3-182" />
      <path fill="#892608" d="M333.4 310.5l22-6.4-17.7-4 2.6 89" />
      <path fill="#a18297" d="M957.8 310.5l41 13.6-37.8-22 13.3 39" />
      <path fill="#5a689c" d="M501 398.3l-67 15 12.4-65 53.7 8" />
      <path fill="#382034" d="M791.8 361l-33.4 8.8 81.4 5.8-.5 10" />
      <path fill="#ab5a4f" d="M754.5 462.3l-29.7 16.2 42.2-31.3 18.3 15.2" />
      <path fill="#ca846d" d="M490.3 416.5l-1.3-6.2 7.5 24-11-16.2" />
      <path fill="#282036" d="M-25.7 308l-6.5-16.6 92.7-37-81 27" />
      <path fill="#080a0e" d="M.3 526l36.7-8-14.2 88 20-77.2" />
      <path fill="#2f2f5d" d="M744.8 334l-153 6.4 144.5 10.2 7.5-26.8" />
      <path fill="#b4321b" d="M374 222.2l-43.5-17.4 12 7.2-2.2 10.6" />
      <path fill="#8692c6" d="M225.8 105.8l52 52.2-56.7 25.2L30 47" />
      <path fill="#80525d" d="M689 374.8l-93.4 23-6.2 6.5 13.5-5" />
      <path fill="#6982b9" d="M358.8 281.2l-5.8-43.4 23.3-3.8-.7 45.2" />
      <path fill="#cf3900" d="M335.3 561.8l22-43.7-25.6 7 25.3 15" />
      <path fill="#393362" d="M826.7 317.8l56 36.6-37-2.7 59.2-25.2" />
      <path fill="#28579f" d="M-31 367l85.7-9.6 32.6 2.3-13.7 6.8" />
      <path fill="#612123" d="M344.2 185l-7.5-38.2 3.2 57 12 7.6" />
      <path fill="#7a749e" d="M618.2 326.6l-28.3-4.3-51 3.5 16 2.2" />
      <path fill="#8c2f3c" d="M819.4 293l1 26-18.2-6.5 13.8-1.3" />
      <path fill="#c18051" d="M266 479.4l6.4 6 1.3-6 105.2-7.6" />
      <path fill="#95707a" d="M485 346.7l-39.8 1.5 41-9 15 8" />
      <path fill="#f15904" d="M368.7 378l-25.5-10.2 3.6 33 32.6-1.4" />
      <path fill="#7b8cc1" d="M301 167.3l28.3 33.4-52.3-.2-39.6-3.2" />
      <path fill="#c1827b" d="M313 306v146l5 23.4-2.2 3.4" />
      <path fill="#c48b65" d="M648.5 383.8l1.4-5.8 3-2.7-2 16.7" />
      <path fill="#6b84bd" d="M425.5 268.4L399 217l1.3 87 17.2-98" />
      <path fill="#061543" d="M983 350l37.2-10.4L1055 362l-67.5-7.3" />
      <path fill="#e84d00" d="M384 540.3L356.5 583l-15.2 13 25.4-33.2" />
      <path fill="#a56d74" d="M444.6 413.6l-1.7 23.6-30-3.4 37 8.3" />
      <path fill="#5c7cb3" d="M13 346.7l123.3 1.8-130 8.2-37.3-17" />
      <path fill="#393b7c" d="M944.8 318.6L974 329l-103-8.3 33 3.6" />
      <path fill="#301d26" d="M702.6 381.7l58.6-7.2-13.2 1.3-21 8" />
      <path fill="#2c2742" d="M20 267.6L83.7 244 37 265.3l-2.4-4.3" />
      <path fill="#9193c5" d="M573 59.3l-37.4-71.5L746.8-31 679 14" />
      <path fill="#9d2e00" d="M381.8 628l24.8-24.6-18.4 10 .6 7.3" />
      <path fill="#6c5e84" d="M944.2 332l-41 3.2 52 3L821 267.7" />
      <path fill="#ad6864" d="M416 148.4l7 7.5-36.3-34 56.3 58" />
      <path fill="#6d3043" d="M801.2 406l7.2-80.8-5.5-56 3 102.6" />
      <path fill="#a6b4d4" d="M49.4 341l45-19L48 311.8l.2 2.8" />
      <path fill="#071f48" d="M940.7 540.7l50.6 49.5-130.6-9.5 29.3-40" />
      <path fill="#4e5d94" d="M557.5 369.8l-51.3 42 102-49.8-6.4 40" />
      <path fill="#e4b76f" d="M486.2 436.3l-45.3 13-14 2.7 67-20.7" />
      <path fill="#aa9790" d="M762 316.7l26.3 3.6 14.3-1.8-44 5.3" />
      <path fill="#201720" d="M609.4 409.7l33-1-148.7 55.7-30 10" />
      <path fill="#bf3400" d="M334.6 431l3.4 40.8 1.3-123.5-5.4 93" />
      <path fill="#eb5202" d="M337.4 547.3l24-11L379 547l-19-4" />
      <path fill="#e6c999" d="M667.2 385.3l-11.8 3.6 130.3-34-76 17" />
      <path fill="#928ea9" d="M236.7 335.7l-35.5 12L231 310l-42.3 14" />
      <path fill="#cf672f" d="M531 422.6l1.7-5.2-42.5 12.2-53.5 15.3" />
      <path fill="#b7592a" d="M209.7 516l-6.6 23-16-3.5 17 8" />
      <path fill="#fd5804" d="M361.8 574l-8 8 23.8-30-19 16.6" />
      <path fill="#fe7012" d="M329 279.3l.5 22 1.2 179 .7-201.7" />
      <path fill="#1d295a" d="M907 321.5L856.4 334l118.3 41.6-30.2-10.2" />
      <path fill="#3b3153" d="M373.7 548.8l-22.8-6.3 2 3 6 2.5" />
      <path fill="#212953" d="M667.7 503.4l38-32.2 86.8-61.4L813 412" />
      <path fill="#3a4d85" d="M93 323l-3.3-109.7.4 33 5 14.2" />
      <path fill="#f16000" d="M382 356.7l-2.2 13.5-3.2-25 2.6-27.3" />
      <path fill="#261c33" d="M128 243l-15.7 5.2-7.2 2 70-29.2" />
      <path fill="#50160d" d="M352 581l-5.3-8 1.7-16.3 11.3 8" />
      <path fill="#2d3153" d="M444.2 582l-36.8 1.5-1.2 28L429 631" />
      <path fill="#10121b" d="M23 667.3L.4 577-31 606v37" />
      <path fill="#ff6c01" d="M365 513l15.3 34.7.3-6.3-18.2-26" />
      <path fill="#924215" d="M606.7 694.3L556 669.6l.3-7 20 7.8" />
      <path fill="#344c90" d="M143 351l23.3-12-24.8-3-11.8-.4" />
      <path fill="#7b6d85" d="M772 387.7l-29-13.4 3 14 10.4 1.5" />
      <path fill="#352843" d="M109.8 233.8l15.8-3.8L55 254.8l80.2-32" />
      <path fill="#531a09" d="M378 513.4l11.8-28.3 21.4-6-3.3 5" />
      <path fill="#0a080b" d="M265 630.3L374.8 713l-91.3-148.4 3 10" />
      <path fill="#fed41e" d="M406 475.6l-.5-15 7.8 6.7-8.3 8.3" />
      <path fill="#623a56" d="M93 477.4V520l-2 9.8 5.6-16" />
      <path fill="#224c90" d="M96.5 421l30.6 21.4-23 94.2-7-16" />
      <path fill="#363048" d="M369.4 591.6l.2-3.3-5.4-12-13.5 14" />
      <path fill="#b67a4a" d="M741.5 378.6l6-32L745 373l13.4-13.3" />
      <path fill="#453a65" d="M181.7 518l4.5-5.3L184 463l-.3-45" />
      <path fill="#433866" d="M856 325.4L826.8 336l-11-15.5-149 15" />
      <path fill="#7a4a66" d="M528 417l127-34.5-135.4 39.2 29.7-16.7" />
      <path fill="#d39b65" d="M633.4 393.8l4.4-14.2-7.4 3.7 4 15.3" />
      <path fill="#333054" d="M711.6 357.8l5.6 13.6-73.4-39.4 17 11" />
      <path fill="#642921" d="M335.8 223.2l24.3 5 16-7-35 7.8" />
      <path fill="#5e91ca" d="M-10.6 293l-8-9.6 42-10.3-9.4 8" />
      <path fill="#031732" d="M979 610.7l-142.4 30.6 218.4 50.3-31.4-60" />
      <path fill="#2a417b" d="M228 503.2l6.4-161.4 1 80.8 4.7 69" />
      <path fill="#79739c" d="M640.4 329.3l-38.2-19 14.6 6 27.8 5.5" />
      <path fill="#311513" d="M316.8 506.6l-35.6 18-6-6.5 36-13" />
      <path fill="#7579a1" d="M28.6 335.4l33.3 6.8 9-8.4L99 344" />
      <path fill="#7e1d0b" d="M339.4 352l-6.4 64.7 1.8-68 1-81" />
      <path fill="#977fa3" d="M974.7 312.7l52.8-1.6-109.8 10 34.3-16" />
      <path fill="#7274a0" d="M365 331.3h-9l19-9.5-.5 25.8" />
      <path fill="#ef832a" d="M579 415.2l79.2-23 65-18.6-93.8 23.6" />
      <path fill="#f5983b" d="M151.5 546l97.3-26.3 2-2.8h-14.3" />
      <path fill="#573b59" d="M785 347.8l-29-16.2 63-2.6-40 6.8" />
      <path fill="#2e599f" d="M102.2 398.5l-2.8 31 39 26 .8-50.4" />
      <path fill="#5277ad" d="M74.6 397l-5.4 9.2h-24l-76.2 2" />
      <path fill="#51497a" d="M502.5 330L483 342.8l30.6 12.6-28.8-2.7" />
      <path fill="#100d12" d="M290 621.6l156.7 56.8-.7-13.2-63.3-39.3" />
      <path fill="#0d162b" d="M45.4 526.3L-31 553l39 59-39-79.7" />
      <path fill="#f89a28" d="M373.5 228l-13-.4-12.7 2.6.6 2" />
      <path fill="#7483bf" d="M649 183l-46.8 114 149.2-91.6 96.4-40.3" />
      <path fill="#b8a9cd" d="M285.4 101L259.6-31h448L302 29" />
      <path fill="#849dcf" d="M99 291.5l41.2 5.3-34 18-3.8-.2" />
      <path fill="#e58733" d="M438.2 461l-20.7-8.6 54.5-13-37.4 5" />
      <path fill="#527ebb" d="M19 291.3l21.8-5 48.8-2.7-1.5-24.4" />
      <path fill="#747cb7" d="M691.8 251.8l310.2.5-84-11.5L786 206" />
      <path fill="#1e2852" d="M33.3 501l-2.8 36 1-130.6 1 53.6" />
      <path fill="#6b88c2" d="M192.3 216.8l33-14.3 61-24.8L198 249" />
      <path fill="#29346c" d="M578.3 349.6l91-21-58.4-4 2 6.4" />
      <path fill="#402c33" d="M565.5 629.6l13-47.7-69.4 51 13 6" />
      <path fill="#9ea1c1" d="M268 313l-155.4 16.4 14 3.3 22-16.3" />
      <path fill="#3e3d4f" d="M268 530l27.8-8-45.2 15.2 8.5-9" />
      <path fill="#c45609" d="M369 493l-38-60.2 48 78.6.8-10.5" />
      <path fill="#bf9f8f" d="M966.2 325.7l20.3-6.2 1.3 4.6-19.8-5" />
      <path fill="#d65732" d="M820.2 317.6l-2.8-9-.3 40.7 4 10.2" />
      <path fill="#b4a9a9" d="M20.4 343.6l-1.8 7.2 33.2-9.2 8.4 2.8" />
      <path fill="#24202d" d="M180 597.2l5.3-7.4-9-42.6 19 49.3" />
      <path fill="#1f1820" d="M252.3 616l9.7 4-61.6-80 9.3 26.4" />
      <path fill="#2d4891" d="M122.7 343.8l67.2-1-31-3-26-1.2" />
      <path fill="#ae6458" d="M361 288.2l2 58.6-2 25.7.2-1.5" />
      <path fill="#6b4a76" d="M566.6 405l6.5-.5-40 12.7-54 13.2" />
      <path fill="#3e160f" d="M246.4 524.6l-18.6 25.8-15.5-4.8 60.4-25.3" />
      <path fill="#7e4129" d="M591 608.2l37 12.7-65 32 11-50" />
      <path fill="#933830" d="M256 501.6l21-10.5-31.4 5 6 1" />
      <path fill="#ecbc85" d="M589.5 405.6l20-8 37-6-69 18.7" />
      <path fill="#312632" d="M673 619.5l-4 29.7 26.5 9.3 11-24" />
      <path fill="#2e3671" d="M768.8 331l-93 12.4-45.8-9.8 31-14.7" />
      <path fill="#4b446b" d="M307.6 514.4l1.4 37 20-17.8-18-9.7" />
      <path fill="#5c7ab4" d="M302 352.7l-59.2 5-50.5-8-127-.4" />
      <path fill="#2a1c20" d="M303.7 576.7l-13.3 14 27 16.8 30.3 27.8" />
      <path fill="#766a98" d="M790 313.2l-108.5.8 8.7 1 32 11.4" />
      <path fill="#5f6ba1" d="M157.4 325.7l9 3.2 48.7-1-53 14" />
      <path fill="#c4bcb1" d="M419.8 339.6l15.4 14.2 6.5 3.6-2-15.8" />
      <path fill="#24111d" d="M712.4 380.7L666.2 401l64.3-19.3 11.3-7.8" />
      <path fill="#9e8caf" d="M656.4 321.5l2-10.4 42.8-4 9.3 6" />
      <path fill="#bc8f7a" d="M538.2 345.4l11.2 3-55-1 18.8 5.5" />
      <path fill="#6f719f" d="M442.5 369.6l19.6 3-58 60.2-2-83.8" />
      <path fill="#5f597e" d="M306 346.3l-26.4-.5 10.2 3.6-12.8 6.8" />
      <path fill="#942509" d="M352 366.3l1.2-57.5-8 22.7.7 13" />
      <path fill="#2f3b6c" d="M321.2 570.2l-74.4-18 8 8.7 37.6-21" />
      <path fill="#fe5401" d="M355 609l19.2 8.6 5.2-24.5 1.2 33" />
      <path fill="#fc8301" d="M379.7 482.3l.4-83-4-30.5 1 113" />
      <path fill="#a44022" d="M407 629l4.7-8.4-2-7.4-8.2 17.8" />
      <path fill="#8685b9" d="M922.8 260.3L756.3 256l53.6 13.6 23 22.4" />
      <path fill="#11121b" d="M97 670.7l-23.8-12.2-9.5-23-21.6-50" />
      <path fill="#bf5d15" d="M410.3 479.4l.3 18 19.7-19.8-15 10.5" />
      <path fill="#ba4f42" d="M344.5 138l38.6 31.5v3.8L365 154" />
      <path fill="#5b372f" d="M445.8 472l69.3-24.5-81 24.3-22-3.4" />
      <path fill="#322642" d="M844.2 383.5l-67-14.5-29 .8.8 1.3" />
      <path fill="#ce9259" d="M268.6 497.8l-139.2 44-21-1.6 57.3-6.3" />
      <path fill="#606190" d="M230 345.3l-22.3-11 19.2 7 43-.2" />
      <path fill="#5c73b6" d="M945 138.6L977 47l78-77.5L926.2 21" />
      <path fill="#4d619a" d="M647.3 369.6l-153.4-10-24 57.3 76-35" />
      <path fill="#110e15" d="M297.8 689.8l-245.5-172L65 516l58.6 30" />
      <path fill="#183164" d="M699.4 480.2l-267 83.3 30.3-19.6 146.6-68" />
      <path fill="#672427" d="M339.2 154.5l28.3-1.2-31 6 5.8 42.7" />
      <path fill="#f0b048" d="M326 496.6l39.2-22.4 7.7-3 2-6" />
      <path fill="#36447b" d="M267.4 433.6l11.3 53.7 6.7-5.6-14.2-66" />
      <path fill="#593b53" d="M767 357.3l-40-6 80-23.2-70.2 14" />
      <path fill="#a24844" d="M333.6 132.8l-10.2 6 59.3-3.3-39.3 11.6" />
      <path fill="#c53923" d="M335 258.7l1.7-15L332 204l-.7 49" />
      <path fill="#9c3536" d="M378 245.2l9-83.2-1.8 19-5-43.7" />
      <path fill="#46181e" d="M352 280.7l-4-26.7-5 8.2 1 19.8" />
      <path fill="#f36a02" d="M346.3 464.6l-3.4-52 12-17-3 23" />
    </g>
  </g>
</svg>