<svg version="1.1" viewBox="0 0 1024 682" width="1024" height="682" xmlns="http://www.w3.org/2000/svg">
  <g fill-opacity=".5">
    <path fill="#f14300" d="M381 608.6l-4.3-20-31.2-56.7-2.8 2" />
    <path fill="#2d2b50" d="M867.6 476.7l-165 115 142-24.4 17.6-33.8" />
    <path fill="#485b95" d="M556 397.4l112.8-28.8-199.2-5.3 74.3 54.3" />
    <path fill="#ca825b" d="M840.7 365l28.3 3.8-84.7 69.5 63-52.3" />
    <path fill="#513848" d="M681 598l111.3-78-64.3-33 40.7-27.6" />
    <path fill="#9c3027" d="M101.7 538.6l29.8.8 120-43.5-142 42" />
    <path fill="#e95b09" d="M377.6 547.8l-40.7-8.2 38-3.8 7-1.6" />
    <path fill="#2e0900" d="M400 607l-1.4-38-9.6 11.3-10 36" />
    <path fill="#6d6e9c" d="M376.6 338.4l-1.2 30.4-19-3-5.8-43.7" />
    <path fill="#7a93cd" d="M21.3-20L139 160-31 94.3-18.5-31" />
    <path fill="#6e7cb9" d="M774.6 46l127.2-77-17.6 285.3L813 248" />
    <path fill="#c23f00" d="M358.4 288L345 348.5l-3.7 46.3-2.6-122" />
    <path fill="#c9591c" d="M353.8 154.5l40.2-2.8-69.5 16.3 43.3-18.8" />
    <path fill="#2d2d56" d="M835.5 393L822 369l46 15.7-6.4-7" />
    <path fill="#804231" d="M671 576.5l-3.8 58.2-105.7-6.7 72.6-57.7" />
    <path fill="#1c4885" d="M-31 530.4v-96.6l174.8 93.8-97-12.3" />
    <path fill="#725159" d="M644 363l-26-18 31.5-.8 11.6 7" />
    <path fill="#4a2b4d" d="M395.6 132.5l.4 24.3-11 8.4 1.3-51.3" />
    <path fill="#8e91be" d="M345.3 164.4l33.8-8v39.8l-6 10.6" />
    <path fill="#ab4407" d="M393.2 494l-5.6-208 6.6-8.8-1.8 47.7" />
    <path fill="#413152" d="M860.4 367l25.8 13.5-.6-43.6-44-12" />
    <path fill="#ee9e57" d="M849.2 345l-2.4 6.7-8 .3-72.4-4.4" />
    <path fill="#0d1f3a" d="M462 664.3l145.8-106 27.2-19.7L483.6 600" />
    <path fill="#0c0d14" d="M-30.3 671.7l187-89-52-50.6-36.2-13" />
    <path fill="#fcad2c" d="M304.2 486l35-5 79.4-13.6L308 498" />
    <path fill="#815f72" d="M1055 328l-36.6 10.6-25.2-4-45-2.3" />
    <path fill="#392945" d="M90.6 554.8l7.6-26-5.8-119-.8 47.6" />
    <path fill="#1f2c56" d="M27.4 493l5.6-90.6-.2 123.3-8.3-63" />
    <path fill="#fd5300" d="M346.3 589.8l32.3-42.8-4.8 13.6-11 14.6" />
    <path fill="#542d25" d="M549.7 693L579 590l-39 17.8-35.3 89.5" />
    <path fill="#61375b" d="M803.5 283.5l7.3-5.6-1 6-8.3 65" />
    <path fill="#e57a2f" d="M196 510.8l90.6 3.6L158 537l9 12.7" />
    <path fill="#c83f1e" d="M376.3 310.2l4.6 18 1-136-3 18.6" />
    <path fill="#24131c" d="M746.6 374l-64.8 14.7-88.6 29.2 103.3-23" />
    <path fill="#6a85c0" d="M333 204.7l-.7-33.5-5 98.4-110.5-63" />
    <path fill="#565384" d="M311.7 400.4L265.4 501l9.2-53 38 15.7" />
    <path fill="#b1877b" d="M509.2 357.3l-16-16.5 7.2 7 32.8-1.3" />
    <path fill="#9f89a1" d="M530.2 297l35 5 19-19.8-6.2 46" />
    <path fill="#150306" d="M396 530.6l5.4 7.3 1.3 63-8-4" />
    <path fill="#6a5268" d="M366 155.5l43.7 41 82.4 69-84-76.7" />
    <path fill="#9583ad" d="M891.8 317.5l-122.2-58 112 4.4-66.4 54" />
    <path fill="#445090" d="M505.4 427.3l-9.5-1.5-5-37.2 32 27.7" />
    <path fill="#ee4405" d="M341.2 591l23 1.6 19 8.3-10.4 2" />
    <path fill="#1b2568" d="M949.7 330.6l27 5.8-126-14.5 95.6-1" />
    <path fill="#606a9c" d="M233 337.5l-57.5-15-19.7 19.3 100.3-21" />
    <path fill="#4b1e19" d="M226 538.2l-32.3 13-27 32.4 47.6-57.8" />
    <path fill="#253270" d="M681 353l44-27.8-49.3-5.2-82.7 10.6" />
    <path fill="#2d427a" d="M223.3 503.6l-86 20.8 5.4-246.7 6.2 214" />
    <path fill="#f2dead" d="M738 366.8l-65.2 17.6 117-27-13.6 1.4" />
    <path fill="#903e0f" d="M573.7 665.4l93 46.6-57.5-27.7-77-15.7" />
    <path fill="#465483" d="M32.6 370l-.2-72.2-2-26-1 48.2" />
    <path fill="#d2a0bc" d="M389.8 98.8l-68-8.7 10.2 58-39.2 12" />
    <path fill="#4e7dbf" d="M-31 285.2l29-81 131.4 19.3-87 34.3" />
    <path fill="#e86319" d="M334.6 526.8l-14-15.5 5.2-3.5 4.2 68" />
    <path fill="#d09976" d="M831.6 382.2L821 422l15.8 3.7-12.4-42.8" />
    <path fill="#6781b8" d="M453.8 232.7l46 42-95.3 25.6-8.4-114.5" />
    <path fill="#732224" d="M335.8 269.6L332 134l16 74.2v-48.5" />
    <path fill="#2b1d26" d="M549.6 445.8l-103.5 35 12-25.5 137-32" />
    <path fill="#446ba0" d="M65.4 415.5L95 386l-119 28-3.7 39.5" />
    <path fill="#dd824a" d="M483.4 452.6l-11.7-21.4h24.6l-11-17.3" />
    <path fill="#b3b0c6" d="M363.8 322.7l15.7-12-26.2-3.5 4 21" />
    <path fill="#405e9f" d="M145.4 236.4l-7 9.5 7.6 68 2-80" />
    <path fill="#3c3454" d="M745.7 322.6l5.3 30.8-42.3 12.8-92.8 1.3" />
    <path fill="#e39072" d="M315 326l-2 136.5 2.5 6.2-.7-23.6" />
    <path fill="#605979" d="M308.2 208.6l-34.4 324.8 39.3-16.6-38 7.5" />
    <path fill="#491c12" d="M280.4 534l73.5-28-20 16.3-47 17" />
    <path fill="#a0a2c2" d="M88.8 320.6l114.8-8.3 115-2.4-41.6 13" />
    <path fill="#4b3048" d="M198.6 197l63.7-26.8 27.8-14.6-47 20.4" />
    <path fill="#9198c7" d="M273 183.8l57.3 13.6 2.6-43.6v-2" />
    <path fill="#3e4471" d="M377.2 546.2l-14.2.2-2.2 5.8 10 5.3" />
    <path fill="#a796b2" d="M594 308.6l75.8-.2L687 316l-43.4 6.4" />
    <path fill="#8086bd" d="M713-31l53 10.8-29.8 211-134.4-2.3" />
    <path fill="#e45e00" d="M367.3 464l-46.7 17.6 30.2-78 6.7 66" />
    <path fill="#ffbb47" d="M351.7 509l-.4 11.3 11-12.6-6.2-.5" />
    <path fill="#c8430b" d="M341 323l43-48-19.4 6.5-21-1.5" />
    <path fill="#d8ab64" d="M223.6 511.5L152 534l42-10.7L327.6 483" />
    <path fill="#9b2300" d="M333.6 542.4l3.6 63.3 17-14.5-14.7-79.8" />
    <path fill="#e2a26d" d="M610.6 384.7l9.2 9.2 74.4-18-90.7 32" />
    <path fill="#b0a4cb" d="M287 153.3L229.3-31 309-21l-12 170.4" />
    <path fill="#2b345e" d="M403 576.3l1.3 43.3 75.7-89.2-75.2-6.5" />
    <path fill="#dad1bb" d="M449.5 341l-6.8 1.4L433 358l-11.5-13.5" />
    <path fill="#4d1d10" d="M380.5 363.6l1.7 83 16-71.6 4 62.2" />
    <path fill="#f98600" d="M379 451l-4.7 29.3.2-15.2 6.5-103" />
    <path fill="#e09146" d="M600.4 405L547 428.6l12.7-36 10 26.7" />
    <path fill="#6c78a6" d="M136.3 348.5H72.5l24.5-21-41.3 10.8" />
    <path fill="#8b96c9" d="M218.7-25l-58.3-6L248 174-1-31" />
    <path fill="#d98853" d="M541.4 429.6l-14.6-26.2-9.5 33 15-24.8" />
    <path fill="#543840" d="M537 634.5l9.8-30 141-100.6-88.5 88" />
    <path fill="#5b566f" d="M519.7 252.2l58 48.3L618 331 496 230.6" />
    <path fill="#815561" d="M793 335.5l-96.8 19 6.8-6.4 83 3" />
    <path fill="#130c0f" d="M380 631.2l-109.5 9 133.3-18 9.2-22.6" />
    <path fill="#b68589" d="M764.6 372.8l4 5.2-5.8 8-8.3-5" />
    <path fill="#2a407c" d="M211.7 447.3L284 427l-19.7 70-93.6-19.4" />
    <path fill="#2f4b87" d="M502 465.4l72-29.6 79.2-27v32.4" />
    <path fill="#392941" d="M786.5 424.8l-61.8 50.5 82-58.4 2.4-41" />
    <path fill="#626da0" d="M375.5 371.8l-21-3.5-.8-8.3 18-26.5" />
    <path fill="#3a192c" d="M208.5 192.5l-35.8 16-32.3 13.2-1-1" />
    <path fill="#3e0f14" d="M350.2 255.6L350 289l-8-18 2.6-3" />
    <path fill="#bf9ea1" d="M982.6 309.6L955 318l19.2 9.5-3.6-.4" />
    <path fill="#6078b8" d="M877.5 48.7l81 68.8 96.5 168L885.3 217" />
    <path fill="#510d11" d="M335.7 380l-.6-102.4v.5l6-83" />
    <path fill="#668eca" d="M121.6 241.4L240 185l-110.7 43.5-31.8 14" />
    <path fill="#5583c0" d="M93.8 384l70.6-10.8 20.4-5.7-80.6-4.7" />
    <path fill="#58548f" d="M698 316.5l64.7-2.3-11.3 5.5-108 5.2" />
    <path fill="#4f538d" d="M607 313.7l34.3 13L535 343.4l82.6-30" />
    <path fill="#4f6396" d="M39.3 291.5l4.5 1.7L41 410.6l-1.2-90" />
    <path fill="#1c4b92" d="M139 441.7l-42.5 20 9 76 19-7.7" />
    <path fill="#54639c" d="M439 349.4L587.6 400l-21.5 9.6-19-52.5" />
    <path fill="#686379" d="M542.8 304.7l49 27.8-42.2-27.5-87.8-64" />
    <path fill="#c27251" d="M278.2 479l-5.4 10.2 10.4 10.2-15.8-16.8" />
    <path fill="#ac4321" d="M205.2 512.7l72-20 71-29.7 47.6-14.6" />
    <path fill="#c2b8c1" d="M407 312.8l-.8-23-5 37.8 41.5-7" />
    <path fill="#9094b9" d="M471.2 314.2l-68.7-10.7 17-16.3 160.2 10.4" />
    <path fill="#47160e" d="M387 500.5l19.4-20.3.3 37 41.7 35" />
    <path fill="#9d6982" d="M449.7 439l-48.3 13.5 37.8-39.2-2.8 21" />
    <path fill="#a44b22" d="M276.2 559.8l5.7-.6-29-2 18 15.3" />
    <path fill="#273b78" d="M795.7 399.6L676 486.2l-120 5-105.4 1.3" />
    <path fill="#ffde5f" d="M446.2 461l-29-5-9 15 36.8-23" />
    <path fill="#9b5756" d="M811 419.4l-42.5 76 60.7-51.5-21.2-67" />
    <path fill="#a40" d="M486.6 444.6l-21.3 8.2-52 15 15 7.5" />
    <path fill="#29101c" d="M398 274l-16.5-85.5 13.5 93.7.4 145.8" />
    <path fill="#242a49" d="M833.3 394.2l3.5-.4-12.3-13.7 18.5-20" />
    <path fill="#433242" d="M442.7 664.6l-31-28.8-2.7-36 34.6 42.6" />
    <path fill="#463d5f" d="M863.3 444.8l-39.6 104.7 16.4-39.7-78 23" />
    <path fill="#142755" d="M981 503.8l-92.6-13-64 64 52.6-2" />
    <path fill="#526097" d="M191.6 356l.4-174 3.3 161.4-16.8-15" />
    <path fill="#2d3050" d="M56.7 511.5L39 533.7l1.7-91.4 5 94.2" />
    <path fill="#ed7824" d="M631.3 399l-24.7 3.8L710 377l2.4 2.4" />
    <path fill="#90410d" d="M387.3 307.4l-.3-25 8 48.6-8.3 80.3" />
    <path fill="#283d82" d="M872.8 423.5l-10.4-48.2 192.6-18-213.8 53.4" />
    <path fill="#5e75b1" d="M327.5 352.3l-.8 87-12.7-85-51.6-2" />
    <path fill="#564162" d="M371.7 553.4l-13.3-3.3 15.6-14-14.8-20" />
    <path fill="#ef9e6e" d="M835.2 413.2l-4-12-8.2-9.3 7 30" />
    <path fill="#4e4b68" d="M605.5 350.4l8-7.8 51 19.3-159.4-8" />
    <path fill="#c35644" d="M810 344.7l-2-17.7 16 24.3-4.8-33.5" />
    <path fill="#1f0f10" d="M583.6 424.3l-7.7-8.7 2 17.4 106-38.4" />
    <path fill="#d85103" d="M364.5 622.4l11.4-8 9 15.7-28-24" />
    <path fill="#091d51" d="M1000.5 343.4l-43.7 14.8 90.5 6.5-56.6-36.3" />
    <path fill="#7681bd" d="M798.2 198.5L860.7-.8 774-31l-92.7 341.2" />
    <path fill="#6f546f" d="M421.8 522l5.7-27.8-22.3 13.8 3.6-27.5" />
    <path fill="#392b3e" d="M752.8 556L669 663l50.5-113 66.2-20.3" />
    <path fill="#6a85bf" d="M351 277l27.2-.4-3-28.3-23-15.2" />
    <path fill="#9b7a8c" d="M795 311.4l43.2-8.4-73.7 22.4-13.8-4.8" />
    <path fill="#0f031c" d="M384.5 341.8l-.6-74h2v43" />
    <path fill="#204f93" d="M86 433.2l-45.3 29.2L91 531.6l-.4-70.8" />
    <path fill="#46457c" d="M486.7 321.4l88 25.8-45.5-3.8-42-5" />
    <path fill="#8a798c" d="M208.6 349.3l34-15.8-51 5.5L319 350" />
    <path fill="#6e5366" d="M416.6 152l40 43.2-7.2-6.4 47.6 40" />
    <path fill="#433655" d="M240 178.3l-132.4 59.4L118 228l-9.8 5" />
    <path fill="#8a2a0b" d="M326.5 371.7L353 369l-4.3-82 6.2 61.4" />
    <path fill="#92311d" d="M342 209l46.4 22-38-3.8L380 207" />
    <path fill="#96707d" d="M825 459.5l13-17.3 17.8-69.8-34 69.3" />
    <path fill="#2d2d67" d="M887 323.7l168 2.6-79 31 64.7-26" />
    <path fill="#2f4578" d="M29 425.8l5 24-2.4-85.4-2-19.7" />
    <path fill="#0d0f15" d="M54.5 517.3l44.8 13.2L46 649.3l-25-108" />
    <path fill="#3b5492" d="M97.7 294.6l-9 6.4 7.5-37-5.7.4" />
    <path fill="#bb5010" d="M341.6 247.5l1-13 18.2-17-22.7 40.3" />
    <path fill="#484981" d="M778 374.7l13 11 14.4 19.4-71.4-1" />
    <path fill="#beb3c2" d="M319.8 315l9-3 1.7 13.6L248 320" />
    <path fill="#c2c7d3" d="M86.5 328.7l-19.2-8.3L73 322l-28.5 10.7" />
    <path fill="#f0bd87" d="M596.5 405.5l37-10.3L729 372l-70.6 13.4" />
    <path fill="#bd3900" d="M349.7 293.7l-15.4 130.7 10-5.6-1.3-28.5" />
    <path fill="#ed6718" d="M380.3 274.4l1.4 39.3-5 91.2V301" />
    <path fill="#244d94" d="M146 410l-1.3-78.3L157 509.3l26.5-79.8" />
    <path fill="#5e3857" d="M797.6 347.3l23-41.6-54 39.5 33.7-3" />
    <path fill="#d69761" d="M586.5 397.5L583 406l13 4.7-9.2-25.5" />
    <path fill="#f59015" d="M329.3 459.4l-1.6-36-.6-57 9 84" />
    <path fill="#445489" d="M235.2 333.8l-1-95-1.7 55 3 201" />
    <path fill="#b196b1" d="M399.8 81.3l-3.5 78.4 37.6 14-43-49.2" />
    <path fill="#23355d" d="M44 451l-3.8-4.5-4 201 5-297.3" />
    <path fill="#7d5d62" d="M923.8 332.8l24 1 10 10.5-7-6.5" />
    <path fill="#4d3d55" d="M430 164l88.6 88.5 3.3-.3-57-52" />
    <path fill="#dc5207" d="M343.2 523.7l22-59.8-21.2 78 25.7-37" />
    <path fill="#542833" d="M793.5 359.3l15 49.6-2.5 18 8-68" />
    <path fill="#ef9c35" d="M424.3 493.3l-10.5 2.2-2.8-10 17-2" />
    <path fill="#ffaabf" d="M356.4 120.4L341 126l-12-3 3.8-9.2" />
    <path fill="#b8867d" d="M408.8 344.8l-10-3 4 12.5 23-6.4" />
    <path fill="#df7e2a" d="M219 537.4l1-42.2 8.6 28 30.8-13.6" />
    <path fill="#6b92c6" d="M-18.2 378.4l101.8-7.6-73.8 28.5 34.6 6.6" />
    <path fill="#3a3e6b" d="M295.2 573.6l33.2 19-2-44.7.6-33" />
    <path fill="#9b3b30" d="M347.3 179.8L331 147l48-22-28.6 27.3" />
    <path fill="#3a1614" d="M370.5 573l-5-10.6 8 3.4-1 6.6" />
    <path fill="#dda854" d="M310 486l61.6-18.4-25.3 20 2-11.6" />
    <path fill="#ab6941" d="M683 369.2l98.7-14.3-144.5 35 41.3-12" />
    <path fill="#b48676" d="M552.6 351.7l1-5.3-32.7 1.3-82-5" />
    <path fill="#532009" d="M332.4 498.5l-7.6 2 25.4 13.4-17.8 8" />
    <path fill="#83748c" d="M380.4 325.7l22.8-.6-1 23 73-21" />
    <path fill="#f9a24f" d="M159.4 545l214.3-68-110.5 32.2L195 533" />
  </g>
</svg>