<svg version="1.1" viewBox="0 0 1024 682" width="1024" height="682" xmlns="http://www.w3.org/2000/svg">
  <path fill="#5b5d82" d="M0 0h1024v682H0z" />
  <g fill-opacity=".5">
    <path d="M-31 688.4l25-164.6 1061-90.3-8.5 259.7" />
    <path fill="#a1adee" d="M1049 307.8L-31 345.6l34.4-372L1055 3.3" />
    <path fill="#c22f00" d="M321.6 566.8l11.8-433.5 62.6-17 12 553.3" />
    <path fill="#ff910a" d="M100.5 545.5l258.4-88 440-106L186 546" />
    <path d="M475 704.5l-66.5-79.2L-31 495l19.2 211.8" />
    <path fill="#001053" d="M1028.7 713l-216.5-32.6 54-359 188.8 17.8" />
    <path fill="#d3b5d4" d="M81-6.8L610.2-.2 582.5 132l-331 2" />
    <path fill="#be5434" d="M864.5 361L833 453.3 567.6 713 527 634.6" />
    <path fill="#14255c" d="M571.7 416.4l-192.5 75.2 71 181 468-338.2" />
    <path fill="#003f98" d="M282.7 489.5L-31 529.7l2.4-115.5L286 362" />
    <path fill="#3d72b3" d="M148.8 298l304-28.8-470.4-120.8-5.6 143.5" />
    <path fill="#de4600" d="M328.5 511.8l50.2-138.3-23-3.6-23.2-264" />
    <path fill="#200000" d="M387.8 124.2l12.5 82 .3 222L378 308" />
    <path fill="#702100" d="M509.3 439.4L195.7 539.8 368 518.3l344.7-141.7" />
    <path fill="#4c84cd" d="M2.2 414.6l324.3-39.8-1-23.4-356.5-10" />
    <path fill="#4768b4" d="M912.5 309.2L803.8 24 1023-31l32 328.8" />
    <path fill="#ac5433" d="M877 382l-75-110.3-1.4 56.8-150.8 54.2" />
    <path fill="#e25d05" d="M326.5 589.3l3.6-240L382 545v86.5" />
    <path fill="#261b4b" d="M527.6 340l145.7-19 163 3.6L680 371.3" />
    <path fill="#fe8d35" d="M317.6 461.6L276 480.4l-124.5 71 389-124.3" />
    <path fill="#233a7b" d="M916.5 385.4L698.3 559l350-60.5L1055 339" />
    <path fill="#000f23" d="M583 713l147.7-101.3 324.3-67-22.7 139.8" />
    <path fill="#274182" d="M744.4 447.5l-31-60L406.8 496l-12.3 109.4" />
    <path fill="#a594af" d="M464.7 307l-14.5 134-42.4 12.5-5-168.5" />
    <path fill="#070101" d="M222 530l-241.2 71.5L5 713h513.2" />
    <path fill="#2c2b48" d="M248.8 175.3L-31 307l263.3-106.7L-31 287.6" />
    <path fill="#649fed" d="M353.3 172l19-9.6 13 38.5-42.3 8" />
    <path fill="#821700" d="M329.5 307l11-204.4 12.6 161 2 80.8" />
    <path fill="#ffb763" d="M625 398l158.6-53.2 83.2 5-69.4 7" />
    <path fill="#582614" d="M435 675.8l138.5-86.6 138.3 40.3-102 83.5" />
    <path fill="#100302" d="M565.4 439.6l-129.6 41.2 61-37.2 273.8-77" />
    <path fill="#d5b0c9" d="M461.3 4.2L278-8.6l20.4 154 122-42.2" />
    <path fill="#8596bd" d="M350 432.7l27.8-113-28-18 22 137.7" />
    <path fill="#1f4081" d="M123.7 423.4l184.8 54.4-183.3 55.8L-31 501.2" />
    <path fill="#7f9cd6" d="M114.8 225L-31 162.7 57.2-31l261.6 172" />
    <path fill="#ac6a64" d="M743.6 463.4l95.5-71 9 88.4-66 39.5" />
    <path fill="#ee6c00" d="M372.2 476.4l3.7-47.6 53 48.7 1 22.4" />
    <path fill="#9392c3" d="M635.4-31l-236 170-4.5 62.5 330-69" />
    <path fill="#657dbe" d="M399.2 272l259.4 29 387-136.6-649 34.8" />
    <path fill="#94adcd" d="M233.3 306l-221-17.2-43.3 52.7L47 352" />
    <path fill="#462435" d="M309.8 158L427 111.5 104.3 250l150.4-60.7" />
    <path fill="#521700" d="M384.6 196.6l-3.3 180 1 103.2 23.6-59.2" />
    <path fill="#8a6b96" d="M1019 327.2l31.8-20.8-230-27.6-186.3 31" />
    <path fill="#ffa759" d="M572 420l-100.2 19.7 169.6-53.5 93.6-18.8" />
    <path fill="#524876" d="M236.3 559.2l101.3-38.4-5-30-7 98.8" />
    <path fill="#171c46" d="M899 369.5l156-13.3-152-36-86.7 1.6" />
    <path fill="#280600" d="M405.7 629.4L402 501.8l-21-9.3.5 107.8" />
    <path fill="#f5904a" d="M100.4 534.2l34.7.5 310-83.2-296 100" />
    <path fill="#c8b5b9" d="M540.5 326.2l124-12.4-249-3.7 10.5 15" />
    <path fill="#5f9ce6" d="M359.3 270.7l15 1 4.3-45.5-30.8 8" />
    <path fill="#5964a2" d="M528.6 348.6L673 374l-226.4 68-28.2-79.3" />
    <path fill="#4e364e" d="M651.6 632.8L737.4 494l122-35-6.2 46.6" />
    <path fill="#998fac" d="M197.8 312.6L181 343l148 19-2.3-58" />
    <path fill="#fa6e00" d="M380 416l-40-51.5-21.5 138.7 63.7-164.4" />
    <path fill="#551d28" d="M324.3 153.5L377 157l24 288.3-5.5-328.7" />
    <path fill="#616294" d="M375.8 463.6l-6 1-20 6 23-76.4" />
    <path fill="#da3e09" d="M381 319l-47.5-33.4 46-4L382 97.2" />
    <path fill="#dc7f52" d="M873.5 354.3L819 405l-64.8 53 58.6-14" />
    <path fill="#a14f3a" d="M673.5 518.2L550 674l169-139.2 17.5-67" />
    <path fill="#6470a3" d="M381 371.5L364 301l-15.8 63.6-28 1.7" />
    <path fill="#881f01" d="M333.6 443.8l1-244.4 60 21-41.3 6.2" />
    <path fill="#302543" d="M797 396L654 530.7 852 378l-94.8-13.6" />
    <path fill="#5364a0" d="M309.3 329L137 332l-73.6-1.8 265.8 108.3" />
    <path fill="#5d547b" d="M403.3 485l8 10 69.8-25-72 84.5" />
    <path fill="#022862" d="M1037.7 325l17.3 287-181-74 121.4-184" />
    <path fill="#861901" d="M355.4 495.2L326.8 594l51 21-50-109.7" />
    <path fill="#0d2651" d="M408 567.8l89.2 77 68.5-53.2L799 421" />
    <path fill="#8d97cb" d="M-31-.2l9.5 35.7 279.7 135L231-4" />
    <path fill="#959fcf" d="M352.6 202l22.5-4 7-48.5-33 19.5" />
    <path fill="#a54013" d="M234 557.5l46 23.8 2.6-11.8-14.4-11.5" />
    <path fill="#f3952f" d="M302.3 447.3l-3 47.8 241.5-79-161.6 73" />
    <path fill="#3d1209" d="M564 425.4L688 396l115-39-93 21.6" />
    <path fill="#4d4370" d="M313.3 416l-131.5 85.2 48.5 3 67-20.2" />
    <path fill="#689ad1" d="M24 395.4l115.4-29.6-134.5 6-36 47.5" />
    <path fill="#7480be" d="M855.6-31l106.6 310.2-363.8-53.5L685 88.4" />
    <path fill="#e3bd98" d="M459.5 344.2l-34.8 10.3-24.3-5 26.8-9.3" />
    <path fill="#48548c" d="M468.5 473.6l338-88L912.7 398 763 372.7" />
    <path fill="#4a4e68" d="M512 239.8l-58-49 97.2 91.3 22.3 15" />
    <path fill="#25397e" d="M821.7 521.4L1055 359.6l-183 12-10.8 5.6" />
    <path fill="#5b526a" d="M555.3 311.4L440 227.6 424.6 204l-55.2-40.8" />
    <path fill="#b492a8" d="M920.6 311l50 14.6 84.4-14.2-42-2" />
    <path fill="#04070c" d="M-6 522.4l83-6L237 713 1.4 699.7" />
    <path fill="#2e2137" d="M263 181.4L56.7 272l236-100.2 36.7-22.3" />
    <path fill="#2d5697" d="M-31 419.5l236-52.7-111 168 98-20.8" />
    <path fill="#f35d00" d="M358.3 437.3l-18.7-64.7 50.3-.2-66 64.6" />
    <path fill="#28222b" d="M446 613.6L417.7 648l48.5 40.4 145.6-109.6" />
    <path fill="#c1bcc9" d="M192 320.2l141.3-9-24.7 17.8-51.7-6" />
    <path fill="#2a356c" d="M368 510.4l1.6 4.6-16.8 17.6 17.3 6" />
    <path fill="#6989c5" d="M328.7 267l-32-98-99.6 49.3-7 111.4" />
    <path fill="#bbb9ca" d="M353.3 320.4l24.6-18-4 23.6-18 4" />
    <path fill="#fa7b00" d="M380.6 558l-.5-167.8-8-12.6 1-9.5" />
    <path fill="#648aca" d="M117.6 228.8l-148.6 2L-2.8 36l175.3 169.8" />
    <path fill="#4e6eb4" d="M950.7 199l94 28L1025-31l-72 65" />
    <path fill="#181219" d="M254.7 522l-87 27.6L23 528.4 208 647" />
    <path fill="#8a90c4" d="M415 151.4l72.6 62.4 194.7-.8 35.5-244" />
    <path fill="#936a6d" d="M615.6 396l-225 50 233-65 127.7-19.4" />
    <path fill="#db510b" d="M328 324.6l56.2-31.2-45.8-10.3-6.2 99" />
    <path fill="#d57753" d="M194 540.2l12.3-55L215 510l-99.2 33.8" />
    <path fill="#cf5402" d="M379 352.3l-5-68.3 20.7 105.7-2-48.4" />
    <path fill="#9681a0" d="M778.2 324l-25.7 1.5L559.3 306l252-1.6" />
    <path fill="#d93600" d="M331.7 521.5l-4.3 48.5 4.4 36.5 17.7-10.5" />
    <path fill="#443553" d="M663.4 372.6l-71-61 50 23.2L783 353.3" />
    <path fill="#6b4365" d="M817.5 267.8l5.5 38.6 40.8 46.8-67.4-28.7" />
    <path fill="#d54b00" d="M355.2 413.6l1 57.3-71 18 52.5-23" />
    <path fill="#2d1618" d="M345 543.7l24.2 40.2-38.6 30 41 63" />
    <path fill="#733f48" d="M341.6 130.5l-26.3 16-82.8 36.4-45.5 18" />
    <path fill="#98524c" d="M385.4 123.4l3-2.8 27.8 27.6 46 49.8" />
    <path fill="#fec174" d="M835 355.2h-20l-85.3 14 113.8-27.8" />
    <path fill="#ff6e00" d="M381 615.3l-1.2-49.8-7.5-84.5 5.3 145" />
    <path fill="#3b1132" d="M333.6 178.3l-2.2 32.2 16.4-4.8L349 178" />
    <path fill="#2254a2" d="M-31 374.8l92.6-11 162.5-8.5-255-2.3" />
    <path fill="#27283c" d="M74.2 262.7l-30 17.5 11.8-1.7-87 24.3" />
    <path fill="#cf927c" d="M859.8 386l-6-27.8-25 84-7.7-44" />
    <path fill="#877592" d="M313.4 355l-3 145 20-172.5-184.7 19" />
    <path fill="#557dbb" d="M212.3 198.6L95 254 4.7 284.3 148 218" />
    <path fill="#132146" d="M674.2 641l255-31 70-64.7-143-30.4" />
    <path fill="#f7b94f" d="M441.5 421l-10 21.4-30.8 30.3 51-18" />
    <path fill="#193069" d="M571.8 555.8l-122.3-1L660 447.6l153.6-42" />
    <path fill="#66282b" d="M772.6 362.6l65-5.2-23.3 49-15.6-37.7" />
    <path fill="#733b28" d="M518.8 696l67.7-118.2 69.3-53.6-53 188.8" />
    <path fill="#53659d" d="M402.4 421.4L521 401.8l141.4-51.2-259.6 14.2" />
    <path fill="#59240c" d="M279 521l96.8-24.3 45.8-16.3-84.2 13" />
    <path fill="#b09fc3" d="M471.4-31L470 161.3l-30.5 5-71-62.5" />
    <path fill="#977173" d="M534 352.6l-101.8-6 37.8-2.2 128-3.5" />
    <path fill="#212148" d="M95.6 369.3L91.3 331l.3 141.4L94 446" />
    <path fill="#e7a35e" d="M411.3 499.3l24.5-9.4-3.5 3-12.3-14" />
    <path fill="#493850" d="M375.7 572.7l-20.4-24.2 101-24.8-85.6 21" />
    <path fill="#d69134" d="M329.2 482.5l.8 39.8-19.4-5 67-56.5" />
    <path fill="#1b1021" d="M69.2 264.2l-100.2 41 114.3-42.6 77-34.7" />
    <path fill="#9b96c2" d="M173.5 54l57 106.7 155-38.8-34 15" />
    <path fill="#564064" d="M1031 330.7l-100.8-12-19.3 17.6 94 7.6" />
    <path fill="#5b62a2" d="M1035.6 283.5l19.4 21.2-228.2-7.2 228-37" />
    <path fill="#2c346f" d="M581 359.5l231.3-35-221 3.4-59.8 6" />
    <path fill="#aab2ce" d="M136 314l-69.6-2.4L-26 331l158 1.3" />
    <path fill="#26171d" d="M150.7 594.6l183-75-38.3-11-75.3 31" />
    <path fill="#802203" d="M355.7 310.7l-18 60.7 18.5 2-6.5-46.4" />
    <path fill="#425286" d="M93.8 238.3l-6.6 99 1.6-26.5 7.7 59.3" />
    <path fill="#684f6b" d="M836.3 431.2l31.7-80.4-17.5 117.6-118 49.3" />
    <path fill="#ea6f13" d="M386.7 548.6l-28.8-49-13 38.4 14-18.6" />
    <path fill="#b34333" d="M385 170.2l-48.5-44L344 176l36-54.4" />
    <path fill="#4d65a4" d="M324.8 346.3l3 121.3L301 324l-10.7 160.6" />
    <path fill="#a55743" d="M862.2 335l-74.8 19.5-81 17.4 56-34" />
    <path fill="#2c407d" d="M276.6 548l50.7-16.4 1 48L278 564" />
    <path fill="#d2c8cf" d="M399.7 317.8l33.4 8 121-6.8-113-3.4" />
    <path fill="#cea5c0" d="M319.8 121.2l52.4 17.5 47.5-95-105.5 25.7" />
    <path fill="#6386c4" d="M377.3 279.7l-29-2 7.2-37 16.5-12" />
    <path fill="#fc8019" d="M334 459.6L331.8 244l-5 226 25.3-36.2" />
    <path fill="#204080" d="M269 461.6l-13.3-40-179 41.3 26.3 77" />
    <path fill="#7e2b05" d="M388 488l130.5-56-121 65.4-12.6 86.2" />
    <path fill="#d05f30" d="M270 492.7l-78.5 21-51 14.2L293 504" />
    <path fill="#622008" d="M383.7 230.5l-2.6 225 23 2-12-93" />
    <path fill="#2e2137" d="M165 211.5l-193 76 20.7-7.2 8.3.5" />
    <path fill="#485ea1" d="M354.4 401l5.2 64.6.8-33.7 2.3-28" />
    <path fill="#021226" d="M670.5 679.6l267.3-48L1055 645l-52 68" />
    <path fill="#e35600" d="M356.8 494.6l136.4-54.3-84.6 40-12.3-27.8" />
    <path fill="#183278" d="M1055 445.7v-58.3l-101.8-41-56.6 140" />
    <path fill="#e45901" d="M377.6 614.6l34.5-7.8-45 17-2-15.6" />
    <path fill="#11204a" d="M847.5 354l171.2-12.3 36.3 4.7-179 30.8" />
    <path fill="#444383" d="M554.8 340.3l-104 .4 1.5-16 48.5 1" />
    <path fill="#001b3f" d="M1055 529l-31 132.4-128-40.7 2.6-63.8" />
    <path fill="#e58454" d="M285.8 403.3l.7 25 1 77.6-2.3-28" />
    <path fill="#d03b00" d="M385 545l-34.7 45.3 32 7-59.7 5" />
    <path fill="#af3712" d="M380.2 200l-29.4 11.2-11.8 23.6 44-9" />
    <path fill="#bca099" d="M17.7 342l-1.3-1.5 99.2 3L-31 349" />
    <path fill="#151218" d="M145.3 616.8l-22.6-75.6 187 53.3 74.6 12.7" />
    <path fill="#80719a" d="M448.6 398.2l-45.7 60-2-128.8 29 37.2" />
    <path fill="#373657" d="M371.7 591.3l-10.5-16-12 12.7 26 5" />
    <path fill="#582e2c" d="M709.8 608.5l-33.6-46.7-17 51-108 100" />
    <path fill="#6a6693" d="M372.5 444.5l-16.3 23V400l19.8 5.5" />
    <path fill="#37589b" d="M236.5 360l-79 32-180 36.5 334.2-3" />
    <path fill="#ecbf85" d="M554.2 414l-115 36.6 193.6-56.3-103.4 25.5" />
    <path fill="#303e74" d="M402.8 567l90.5-48.7L639 468l-189.6 14" />
    <path fill="#fe5900" d="M376.5 401.3l1.4-100.5 4 67.2-48 17" />
    <path fill="#ef9e3d" d="M338.6 457.2L291 469.4l34.8 24.2-70 23.7" />
    <path fill="#9792c1" d="M609.5 134.5l68.2-154.8-149 4.6-93.3 176" />
    <path fill="#99504a" d="M656 525.3l48.4 16.8 44.8-79-18.7 9" />
    <path fill="#b04330" d="M817.7 321.8v111.6l4.6-99.2-3-49.4" />
    <path fill="#e67d48" d="M757.6 456l45-.7-12.3-4.6 52.5-58.6" />
    <path fill="#817eb2" d="M713.8 239.7l295.5 18.2-198.8 37L640 313" />
    <path fill="#594c65" d="M478 215.2l-50.4-51.5 62.3 57.5 32 32.7" />
    <path fill="#5f82c0" d="M92 262l47 50.3 190-18.7-150.5-71.4" />
    <path fill="#d7420f" d="M407.7 626l4-6.6L393 631l7 3" />
    <path fill="#7094c9" d="M131.5 311.7l-162.5-4L51.3 276l129.5 23" />
    <path fill="#77607d" d="M742.4 377.6L744 362l14.4 40.6 59.7-20.3" />
    <path fill="#2f172b" d="M399.6 227.5L383.4 286l.6-118.6 10.7 19.7" />
    <path fill="#d85b12" d="M294.5 483.7l165.8-47.2-80 33 18.5-8" />
    <path fill="#621f17" d="M334.5 318.7l14-41.5 7 7.2-18.8-59.7" />
    <path fill="#08080b" d="M413.3 641.2l77.5 71.8L301 678l-61.5-90.7" />
    <path fill="#2c1d2e" d="M670 713l-56-21.4 123.4-124.2 10.3 54" />
    <path fill="#352032" d="M806 362.7l-47.7 3L749 376l46-2" />
    <path fill="#164091" d="M147.7 333.2l8 8.8-50.6 7.2 26-9" />
    <path fill="#cd8973" d="M313.7 444l-6.5 30.4 8.8 6.8-1.8-133.2" />
    <path fill="#f38126" d="M501.8 439.2l38.8-19.5 73.6-15.8-25.3 11" />
    <path fill="#301b1b" d="M313.5 585.7l90.4 59-91-37.7-45-51" />
    <path fill="#768ac5" d="M799.7 161l-331.4 4 24.7 58 125.6 18" />
  </g>
</svg>