<svg version="1.1" viewBox="0 0 1024 682" width="1024" height="682" xmlns="http://www.w3.org/2000/svg">
  <g fill-opacity=".5">
    <path fill="#f14300" d="M381 609l-4-20-32-57-2 2" />
    <path fill="#2d2b50" d="M868 477L703 592l142-25 17-33" />
    <path fill="#485b95" d="M556 397l113-28-199-6 74 55" />
    <path fill="#ca825b" d="M841 365l28 4-85 69 63-52" />
    <path fill="#513848" d="M681 598l111-78-64-33 41-28" />
    <path fill="#9c3027" d="M102 539h30l120-43-142 42" />
    <path fill="#e95b09" d="M378 548l-41-8 38-4 7-2" />
    <path fill="#2e0900" d="M400 607l-1-38-10 11-10 36" />
    <path fill="#6d6e9c" d="M377 338l-2 31-19-3-5-44" />
    <path fill="#7a93cd" d="M21-20l118 180-170-66 13-125" />
    <path fill="#6e7cb9" d="M775 46l127-77-18 285-71-6" />
    <path fill="#c23f00" d="M358 288l-13 61-4 46-2-122" />
    <path fill="#c9591c" d="M354 155l40-3-69 16 43-19" />
    <path fill="#2d2d56" d="M836 393l-14-24 46 16-6-7" />
    <path fill="#804231" d="M671 577l-4 58-105-7 72-58" />
    <path fill="#1c4885" d="M-31 530v-96l175 94-97-13" />
    <path fill="#725159" d="M644 363l-26-18 32-1 11 7" />
    <path fill="#4a2b4d" d="M396 133v24l-11 8 1-51" />
    <path fill="#8e91be" d="M345 164l34-8v40l-6 11" />
    <path fill="#ab4407" d="M393 494l-5-208 6-9-2 48" />
    <path fill="#413152" d="M860 367l26 14v-44l-44-12" />
    <path fill="#ee9e57" d="M849 345l-2 7h-8l-73-4" />
    <path fill="#0d1f3a" d="M462 664l146-106 27-19-151 61" />
    <path fill="#0c0d14" d="M-30 672l187-89-52-51-37-13" />
    <path fill="#fcad2c" d="M304 486l35-5 80-14-111 31" />
    <path fill="#815f72" d="M1055 328l-37 11-25-4-45-3" />
    <path fill="#392945" d="M91 555l7-26-6-119v47" />
    <path fill="#1f2c56" d="M27 493l6-91v124l-9-63" />
    <path fill="#fd5300" d="M346 590l33-43-5 14-11 14" />
    <path fill="#542d25" d="M550 693l29-103-39 18-35 89" />
    <path fill="#61375b" d="M804 284l7-6-1 6-9 65" />
    <path fill="#e57a2f" d="M196 511l91 3-129 23 9 13" />
    <path fill="#c83f1e" d="M376 310l5 18 1-136-3 19" />
    <path fill="#24131c" d="M747 374l-65 15-89 29 104-23" />
    <path fill="#6a85c0" d="M333 205l-1-34-5 99-110-63" />
    <path fill="#565384" d="M312 400l-47 101 10-53 38 16" />
    <path fill="#b1877b" d="M509 357l-16-16 7 7 33-1" />
    <path fill="#9f89a1" d="M530 297l35 5 19-20-6 46" />
    <path fill="#150306" d="M396 531l5 7 2 63-8-4" />
    <path fill="#6a5268" d="M366 156l44 41 82 69-84-77" />
    <path fill="#9583ad" d="M892 318l-122-58 112 4-67 54" />
    <path fill="#445090" d="M505 427l-9-1-5-37 32 27" />
    <path fill="#ee4405" d="M341 591l23 2 19 8-10 2" />
    <path fill="#1b2568" d="M950 331l27 5-126-14 95-1" />
    <path fill="#606a9c" d="M233 338l-57-15-20 19 100-21" />
    <path fill="#4b1e19" d="M226 538l-32 13-27 33 47-58" />
    <path fill="#253270" d="M681 353l44-28-49-5-83 11" />
    <path fill="#2d427a" d="M223 504l-86 20 6-246 6 214" />
    <path fill="#f2dead" d="M738 367l-65 17 117-27-14 2" />
    <path fill="#903e0f" d="M574 665l93 47-58-28-77-15" />
    <path fill="#465483" d="M33 370l-1-72-2-26-1 48" />
    <path fill="#d2a0bc" d="M390 99l-68-9 10 58-39 12" />
    <path fill="#4e7dbf" d="M-31 285l29-81 131 19-87 35" />
    <path fill="#e86319" d="M335 527l-14-16 5-3 4 68" />
    <path fill="#d09976" d="M832 382l-11 40 16 4-13-43" />
    <path fill="#6781b8" d="M454 233l46 42-95 25-9-114" />
    <path fill="#732224" d="M336 270l-4-136 16 74v-48" />
    <path fill="#2b1d26" d="M550 446l-104 35 12-26 137-32" />
    <path fill="#446ba0" d="M65 416l30-30-119 28-4 40" />
    <path fill="#dd824a" d="M483 453l-11-22h24l-11-17" />
    <path fill="#b3b0c6" d="M364 323l16-12-27-4 4 21" />
    <path fill="#405e9f" d="M145 236l-7 10 8 68 2-80" />
    <path fill="#3c3454" d="M746 323l5 30-42 13-93 2" />
    <path fill="#e39072" d="M315 326l-2 137 3 6-1-24" />
    <path fill="#605979" d="M308 209l-34 324 39-16-38 7" />
    <path fill="#491c12" d="M280 534l74-28-20 16-47 17" />
    <path fill="#a0a2c2" d="M89 321l115-9 115-2-42 13" />
    <path fill="#4b3048" d="M199 197l63-27 28-14-47 20" />
    <path fill="#9198c7" d="M273 184l57 13 3-43v-2" />
    <path fill="#3e4471" d="M377 546h-14l-2 6 10 6" />
    <path fill="#a796b2" d="M594 309l76-1 17 8-43 6" />
    <path fill="#8086bd" d="M713-31l53 11-30 211-134-2" />
    <path fill="#e45e00" d="M367 464l-46 18 30-78 7 66" />
    <path fill="#ffbb47" d="M352 509l-1 11 11-12-6-1" />
    <path fill="#c8430b" d="M341 323l43-48-19 7-21-2" />
    <path fill="#d8ab64" d="M224 512l-72 22 42-11 134-40" />
    <path fill="#9b2300" d="M334 542l3 64 17-15-14-80" />
    <path fill="#e2a26d" d="M611 385l9 9 74-18-90 32" />
    <path fill="#b0a4cb" d="M287 153L229-31l80 10-12 170" />
    <path fill="#2b345e" d="M403 576l1 44 76-90-75-6" />
    <path fill="#dad1bb" d="M450 341l-7 1-10 16-11-13" />
    <path fill="#4d1d10" d="M381 364l1 83 16-72 4 62" />
    <path fill="#f98600" d="M379 451l-5 29 1-15 6-103" />
    <path fill="#e09146" d="M600 405l-53 24 13-36 10 26" />
    <path fill="#6c78a6" d="M136 349H73l24-21-41 10" />
    <path fill="#8b96c9" d="M219-25l-59-6 88 205L-1-31" />
    <path fill="#d98853" d="M541 430l-14-27-10 33 15-24" />
    <path fill="#543840" d="M537 635l10-30 141-101-89 88" />
    <path fill="#5b566f" d="M520 252l58 48 40 31-122-100" />
    <path fill="#815561" d="M793 336l-97 19 7-7 83 3" />
    <path fill="#130c0f" d="M380 631l-109 9 133-18 9-22" />
    <path fill="#b68589" d="M765 373l4 5-6 8-8-5" />
    <path fill="#2a407c" d="M212 447l72-20-20 70-93-19" />
    <path fill="#2f4b87" d="M502 465l72-29 79-27v32" />
    <path fill="#392941" d="M787 425l-62 50 82-58 2-41" />
    <path fill="#626da0" d="M376 372l-21-4-1-8 18-26" />
    <path fill="#3a192c" d="M209 193l-36 16-33 13-1-1" />
    <path fill="#3e0f14" d="M350 256v33l-8-18 3-3" />
    <path fill="#bf9ea1" d="M983 310l-28 8 19 10-3-1" />
    <path fill="#6078b8" d="M878 49l81 69 96 168-170-69" />
    <path fill="#510d11" d="M336 380l-1-102 6-83" />
    <path fill="#668eca" d="M122 241l118-56-111 44-31 14" />
    <path fill="#5583c0" d="M94 384l70-11 21-6-81-4" />
    <path fill="#58548f" d="M698 317l65-3-12 6-108 5" />
    <path fill="#4f538d" d="M607 314l34 13-106 16 83-30" />
    <path fill="#4f6396" d="M39 292l5 1-3 118-1-90" />
    <path fill="#1c4b92" d="M139 442l-42 20 9 76 19-8" />
    <path fill="#54639c" d="M439 349l149 51-22 10-19-53" />
    <path fill="#686379" d="M543 305l49 27-42-27-88-64" />
    <path fill="#c27251" d="M278 479l-5 10 10 10-16-16" />
    <path fill="#ac4321" d="M205 513l72-20 71-30 48-15" />
    <path fill="#c2b8c1" d="M407 313l-1-23-5 38 42-7" />
    <path fill="#9094b9" d="M471 314l-69-11 18-16 160 11" />
    <path fill="#47160e" d="M387 501l19-21 1 37 41 35" />
    <path fill="#9d6982" d="M450 439l-49 14 38-40-3 21" />
    <path fill="#a44b22" d="M276 560l6-1-29-2 18 15" />
    <path fill="#273b78" d="M796 400l-120 86-120 5-105 1" />
    <path fill="#ffde5f" d="M446 461l-29-5-9 15 37-23" />
    <path fill="#9b5756" d="M811 419l-42 76 60-51-21-67" />
    <path fill="#a40" d="M487 445l-22 8-52 15 15 7" />
    <path fill="#29101c" d="M398 274l-16-85 13 93v146" />
    <path fill="#242a49" d="M833 394h4l-13-14 19-20" />
    <path fill="#433242" d="M443 665l-31-29-3-36 35 42" />
    <path fill="#463d5f" d="M863 445l-39 105 16-40-78 23" />
    <path fill="#142755" d="M981 504l-93-13-64 64 53-2" />
    <path fill="#526097" d="M192 356V182l3 161-16-15" />
    <path fill="#2d3050" d="M57 512l-18 22 2-92 5 95" />
    <path fill="#ed7824" d="M631 399l-24 4 103-26 2 2" />
    <path fill="#90410d" d="M387 307v-25l8 49-8 80" />
    <path fill="#283d82" d="M873 424l-11-49 193-18-214 54" />
    <path fill="#5e75b1" d="M328 352l-1 87-13-85-52-2" />
    <path fill="#564162" d="M372 553l-14-3 16-14-15-20" />
    <path fill="#ef9e6e" d="M835 413l-4-12-8-9 7 30" />
    <path fill="#4e4b68" d="M606 350l8-7 51 19-160-8" />
    <path fill="#c35644" d="M810 345l-2-18 16 24-5-33" />
    <path fill="#1f0f10" d="M584 424l-8-8 2 17 106-38" />
    <path fill="#d85103" d="M365 622l11-8 9 16-28-24" />
    <path fill="#091d51" d="M1001 343l-44 15 90 7-56-37" />
    <path fill="#7681bd" d="M798 199L861-1l-87-30-93 341" />
    <path fill="#6f546f" d="M422 522l6-28-23 14 4-27" />
    <path fill="#392b3e" d="M753 556l-84 107 51-113 66-20" />
    <path fill="#6a85bf" d="M351 277h27l-3-29-23-15" />
    <path fill="#9b7a8c" d="M795 311l43-8-73 22-14-4" />
    <path fill="#0f031c" d="M385 342l-1-74h2v43" />
    <path fill="#204f93" d="M86 433l-45 29 50 70v-71" />
    <path fill="#46457c" d="M487 321l88 26-46-4-42-5" />
    <path fill="#8a798c" d="M209 349l34-15-51 5 127 11" />
    <path fill="#6e5366" d="M417 152l40 43-8-6 48 40" />
    <path fill="#433655" d="M240 178l-132 60 10-10-10 5" />
    <path fill="#8a2a0b" d="M327 372l26-3-4-82 6 61" />
    <path fill="#92311d" d="M342 209l46 22-38-4 30-20" />
    <path fill="#96707d" d="M825 460l13-18 18-70-34 70" />
    <path fill="#2d2d67" d="M887 324l168 2-79 31 65-26" />
    <path fill="#2f4578" d="M29 426l5 24-2-86-2-19" />
    <path fill="#0d0f15" d="M55 517l44 13-53 119-25-108" />
    <path fill="#3b5492" d="M98 295l-9 6 7-37h-5" />
    <path fill="#bb5010" d="M342 248l1-13 18-17-23 40" />
    <path fill="#484981" d="M778 375l13 11 14 19-71-1" />
    <path fill="#beb3c2" d="M320 315l9-3 2 14-83-6" />
    <path fill="#c2c7d3" d="M87 329l-20-9 6 2-28 11" />
    <path fill="#f0bd87" d="M597 406l37-11 95-23-71 13" />
    <path fill="#bd3900" d="M350 294l-16 130 10-5-1-29" />
    <path fill="#ed6718" d="M380 274l2 40-5 91V301" />
    <path fill="#244d94" d="M146 410l-1-78 12 177 27-79" />
    <path fill="#5e3857" d="M798 347l23-41-54 39 33-3" />
    <path fill="#d69761" d="M587 398l-4 8 13 5-9-26" />
    <path fill="#f59015" d="M329 459l-1-36-1-57 9 84" />
    <path fill="#445489" d="M235 334l-1-95-2 55 4 201" />
    <path fill="#b196b1" d="M400 81l-4 79 38 14-43-50" />
    <path fill="#23355d" d="M44 451l-4-4-4 201 5-298" />
    <path fill="#7d5d62" d="M924 333l24 1 10 10-7-6" />
    <path fill="#4d3d55" d="M430 164l89 89 3-1-57-52" />
    <path fill="#dc5207" d="M343 524l22-60-21 78 26-37" />
    <path fill="#542833" d="M794 359l15 50-3 18 8-68" />
    <path fill="#ef9c35" d="M424 493l-10 3-3-10 17-2" />
    <path fill="#ffaabf" d="M356 120l-15 6-12-3 4-9" />
    <path fill="#b8867d" d="M409 345l-10-3 4 12 23-6" />
    <path fill="#df7e2a" d="M219 537l1-42 9 28 30-13" />
    <path fill="#6b92c6" d="M-18 378l102-7-74 28 34 7" />
    <path fill="#3a3e6b" d="M295 574l33 19-2-45 1-33" />
    <path fill="#9b3b30" d="M347 180l-16-33 48-22-29 27" />
    <path fill="#3a1614" d="M371 573l-5-11 8 4-1 6" />
    <path fill="#dda854" d="M310 486l62-18-26 20 2-12" />
    <path fill="#ab6941" d="M683 369l99-14-145 35 42-12" />
    <path fill="#b48676" d="M553 352l1-6-33 2-82-5" />
    <path fill="#532009" d="M332 499l-7 2 25 13-18 8" />
    <path fill="#83748c" d="M380 326l23-1-1 23 73-21" />
    <path fill="#f9a24f" d="M159 545l215-68-111 32-68 24" />
  </g>
</svg>