<svg xmlns="http://www.w3.org/2000/svg" width="1024" height="682"><path fill="#5b5d82" d="M0 0h1024v682H0z"/><g fill-opacity=".502"><path d="M-31 688.418l24.918-164.57L1055 433.45l-8.546 259.708"/><path fill="#a1adee" d="M1049.11 307.794L-31 345.556 3.39-26.51 1055 3.39"/><path fill="#c22f00" d="M321.635 566.825l11.76-433.522 62.625-17.073 11.99 553.41"/><path fill="#ff910a" d="M100.507 545.476l258.37-88.052 440.695-105.93L185.774 546.04"/><path d="M474.858 704.456l-66.315-79.116L-31 494.86l19.187 211.966"/><path fill="#001053" d="M1028.656 713l-216.413-32.595 53.868-359.003L1055 339.15"/><path fill="#d3b5d4" d="M80.9-6.825L610.327-.187l-27.805 132.2-330.88 2.08"/><path fill="#be5434" d="M864.47 360.887L833.144 453.4 567.496 713l-40.59-78.433"/><path fill="#14255c" d="M571.724 416.352l-192.54 75.246 70.89 181.034 468.2-338.234"/><path fill="#003f98" d="M282.664 489.54L-31 529.66l2.425-115.455 314.7-52.303"/><path fill="#3d72b3" d="M148.832 298.003l304.022-28.792L-17.55 148.43l-5.64 143.43"/><path fill="#de4600" d="M328.487 511.81l50.206-138.318-22.984-3.58-23.25-263.634"/><path fill="#200000" d="M387.82 124.2l12.468 81.92.314 221.96-22.484-119.934"/><path fill="#702100" d="M509.328 439.43L195.66 539.81l172.33-21.552 344.744-141.684"/><path fill="#4c84cd" d="M2.215 414.612L326.5 374.78l-1.11-23.4L-31 341.413"/><path fill="#4768b4" d="M912.532 309.18L803.827 24.02 1023.065-31 1055 297.84"/><path fill="#ac5433" d="M876.937 381.89l-75.062-110.22-1.287 56.852-150.822 54.184"/><path fill="#e25d05" d="M326.535 589.337l3.58-239.898 51.84 195.552.098 86.535"/><path fill="#261b4b" d="M527.613 340.13l145.695-19.013 163.047 3.474-156.31 46.7"/><path fill="#fe8d35" d="M317.55 461.62l-41.646 18.83-124.418 70.982L540.47 427.146"/><path fill="#233a7b" d="M916.527 385.442l-218.192 173.46 350.017-60.442L1055 339.035"/><path fill="#000f23" d="M582.99 713l147.738-101.25L1055 544.583 1032.29 684.5"/><path fill="#274182" d="M744.353 447.49l-31.088-60.015L406.917 496.04 394.71 605.38"/><path fill="#a594af" d="M464.727 307.018l-14.49 133.915-42.47 12.534-5.098-168.442"/><path fill="#070101" d="M221.962 529.97l-241.144 71.566L5.1 713h513.078"/><path fill="#2c2b48" d="M248.832 175.317L-31 307.017l263.34-106.753L-31 287.6"/><path fill="#649fed" d="M353.294 172.06l18.93-9.627 13.092 38.48-42.38 8.553"/><path fill="#821700" d="M329.51 307.053l11.086-204.46 12.463 161.1 1.437 80.66"/><path fill="#ffb763" d="M625.007 398.038l158.583-53.255 83.208 5.076-69.406 7.03"/><path fill="#582614" d="M434.872 675.78l138.653-86.622 138.3 40.308L609.942 713"/><path fill="#100302" d="M565.394 439.612l-129.59 41.172 60.927-37.18 273.852-77.096"/><path fill="#d5b0c9" d="M461.33 4.184L277.9-8.586l20.505 154.043L420.27 103.19"/><path fill="#8596bd" d="M350.11 432.682l27.68-112.86-28.09-18.27 22.185 137.878"/><path fill="#1f4081" d="M123.682 423.362l184.815 54.48-183.287 55.79L-31 501.163"/><path fill="#7f9cd6" d="M114.75 225.06L-31 162.647 57.217-31l261.617 172.082"/><path fill="#ac6a64" d="M743.633 463.36l95.478-71.006 8.61 88.414-66.71 39.55"/><path fill="#ee6c00" d="M372.23 476.405l3.634-47.634 53.527 48.772 1.138 22.4"/><path fill="#9392c3" d="M635.405-31L399.492 139.116l-4.63 62.426 330.63-69.088"/><path fill="#657dbe" d="M399.164 272.083l259.432 28.97 387.037-136.632-648.916 34.813"/><path fill="#94adcd" d="M233.347 305.962l-221.14-17.164L-31 341.52l78.083 10.42"/><path fill="#462435" d="M309.823 157.966l117.22-46.473L104.28 250.03l150.387-60.732"/><path fill="#521700" d="M384.64 196.575l-3.378 180.15.96 103.05 23.668-59.184"/><path fill="#8a6b96" d="M1019.082 327.16l31.682-20.767-229.9-27.605-186.338 31.06"/><path fill="#ffa759" d="M572.05 419.903l-100.28 19.75 169.674-53.407 93.535-18.836"/><path fill="#524876" d="M236.29 559.21L337.6 520.824l-5.122-30.167-7 98.94"/><path fill="#171c46" d="M899.104 369.512L1055 356.162l-151.87-36.08-86.814 1.67"/><path fill="#280600" d="M405.708 629.424l-3.73-127.585-20.845-9.355.416 107.8"/><path fill="#f5904a" d="M100.388 534.184l34.71.545 309.86-83.18-296.47 99.895"/><path fill="#c8b5b9" d="M540.5 326.202l123.984-12.372-249.1-3.773 10.568 14.623"/><path fill="#5f9ce6" d="M359.28 270.706l15.125.882 4.205-45.35-30.786 8.003"/><path fill="#5964a2" d="M528.586 348.602l144.408 25.48-226.362 67.85-28.277-79.187"/><path fill="#4e364e" d="M651.57 632.762l85.798-138.644 122.173-35.18-6.387 46.68"/><path fill="#998fac" d="M197.76 312.55l-16.68 30.457 147.962 19.027-2.347-57.973"/><path fill="#fa6e00" d="M379.92 415.88l-39.974-51.413L318.5 503.24l63.665-164.414"/><path fill="#551d28" d="M324.263 153.547l52.655 3.553 24.17 288.19-5.564-328.645"/><path fill="#616294" d="M375.84 463.616l-6 .898-20.122 6.116 23.084-76.413"/><path fill="#da3e09" d="M381.108 319.057l-47.61-33.483 45.956-4.04 2.584-184.184"/><path fill="#dc7f52" d="M873.55 354.26l-54.437 50.848-64.896 52.926 58.58-13.982"/><path fill="#a14f3a" d="M673.474 518.24l-123.38 155.735L719.036 534.77l17.44-66.944"/><path fill="#6470a3" d="M380.994 371.495l-16.97-70.384-15.844 63.5-27.997 1.643"/><path fill="#881f01" d="M333.63 443.837l1.05-244.455 59.777 21.048-41.18 6.212"/><path fill="#302543" d="M796.904 395.897l-143.046 134.89 198.094-152.692-94.73-13.69"/><path fill="#5364a0" d="M309.328 328.857l-172.19 3.176-73.77-1.83 265.816 108.3"/><path fill="#5d547b" d="M403.303 485.123l7.863 9.944 69.94-24.94-72.112 84.414"/><path fill="#022862" d="M1037.696 324.987L1055 612.097l-180.882-74.068 121.31-183.883"/><path fill="#861901" d="M355.363 495.16l-28.55 98.71 50.92 21.196-49.935-109.73"/><path fill="#0d2651" d="M407.96 567.763l89.22 77.145 68.567-53.344 233.268-170.48"/><path fill="#8d97cb" d="M-31-.243l9.465 35.766L258.157 170.52 230.88-3.964"/><path fill="#959fcf" d="M352.587 201.858l22.466-3.93 6.723-48.43-33.51 19.5"/><path fill="#a54013" d="M234.092 557.494l45.844 23.847 2.642-11.81-14.347-11.487"/><path fill="#f3952f" d="M302.273 447.282l-3.08 47.773 241.573-79.196-161.612 73.215"/><path fill="#3d1209" d="M563.954 425.358l124.063-29.48 114.987-38.837-93.044 21.516"/><path fill="#4d4370" d="M313.323 415.978l-131.557 85.187 48.548 2.96 66.988-20.078"/><path fill="#689ad1" d="M23.853 395.397l115.59-29.642-134.523 5.95L-31 419.322"/><path fill="#7480be" d="M855.562-31l106.6 310.18-363.8-53.498 86.766-137.24"/><path fill="#e3bd98" d="M459.53 344.226l-34.865 10.313-24.29-5.125 26.78-9.186"/><path fill="#48548c" d="M468.47 473.624l338.02-88.04 106.213 12.498-149.696-25.52"/><path fill="#4a4e68" d="M511.986 239.847l-57.928-48.934 97.11 91.177 22.336 14.698"/><path fill="#25397e" d="M821.69 521.422L1055 359.552l-183.057 12.12-10.75 5.557"/><path fill="#5b526a" d="M555.317 311.437L439.875 227.58l-15.224-23.523-55.18-40.85"/><path fill="#b492a8" d="M920.567 310.925l50.094 14.635 84.34-14.114-41.995-2.17"/><path fill="#04070c" d="M-5.974 522.392l83.087-5.9 160 196.508-235.83-13.264"/><path fill="#2e2137" d="M262.863 181.446L56.76 272.12l236.16-100.29 36.567-22.32"/><path fill="#2d5697" d="M-31 419.542l235.878-52.705L94.05 534.87l97.965-20.917"/><path fill="#f35d00" d="M358.28 437.25l-18.662-64.606 50.237-.287-65.03 64.628"/><path fill="#28222b" d="M445.976 613.573l-28.258 34.445 48.524 40.37L611.84 578.8"/><path fill="#c1bcc9" d="M192.115 320.223l141.207-9.074-24.736 17.807-51.728-6.07"/><path fill="#2a356c" d="M367.94 510.382l1.62 4.604-16.73 17.618 17.232 5.878"/><path fill="#6989c5" d="M328.696 267.015l-32.06-97.942-99.525 49.193-6.97 111.48"/><path fill="#bbb9ca" d="M353.32 320.376l24.624-18.106-3.754 23.76-17.398 3.932"/><path fill="#fa7b00" d="M380.588 558.053l-.466-167.892-7.973-12.58.7-9.508"/><path fill="#648aca" d="M117.573 228.82L-31 230.88-2.788 35.97l175.3 169.804"/><path fill="#4e6eb4" d="M950.714 199.122l93.9 27.76L1024.91-31l-72.06 64.98"/><path fill="#181219" d="M254.744 522.106l-87.052 27.506-144.635-21.19 184.93 118.58"/><path fill="#8a90c4" d="M415.037 151.39l72.59 62.45 194.72-.815L717.827-31"/><path fill="#936a6d" d="M615.61 396.025l-225.152 50.02 233.037-65.022 127.77-19.443"/><path fill="#db510b" d="M327.884 324.564l56.314-31.14-45.792-10.3-6.237 98.117"/><path fill="#d57753" d="M193.944 540.225l12.345-54.97 8.622 24.738-99.098 33.857"/><path fill="#cf5402" d="M378.91 352.31l-5.055-68.353 20.838 105.694-2.087-48.305"/><path fill="#9681a0" d="M778.172 323.894l-25.716 1.65L559.26 306.07l252.006-1.716"/><path fill="#d93600" d="M331.702 521.52l-4.328 48.46 4.415 36.492 17.75-10.45"/><path fill="#443553" d="M663.373 372.632l-70.96-61.142 49.883 23.355 140.692 18.422"/><path fill="#6b4365" d="M817.533 267.82l5.514 38.59 40.76 46.794-67.437-28.695"/><path fill="#d54b00" d="M355.19 413.637l.97 57.237-71.062 18.35 52.586-22.972"/><path fill="#2d1618" d="M345.065 543.69l24.09 40.164-38.544 30.612 41.045 63.058"/><path fill="#733f48" d="M341.64 130.528l-26.3 15.945-82.833 36.456-45.567 18.384"/><path fill="#98524c" d="M385.383 123.42l2.994-2.783 27.858 27.555 45.98 49.828"/><path fill="#fec174" d="M834.96 355.157l-20.034.058-85.22 13.9 113.762-27.703"/><path fill="#ff6e00" d="M381.06 615.32l-1.31-49.81-7.463-84.514 5.3 144.935"/><path fill="#3b1132" d="M333.627 178.298l-2.247 32.24 16.405-4.875 1.36-27.692"/><path fill="#2254a2" d="M-31 374.788l92.61-11.08 162.45-8.444L-31 352.987"/><path fill="#27283c" d="M74.186 262.67l-29.913 17.515 11.768-1.703L-31 302.75"/><path fill="#cf927c" d="M859.75 385.85l-5.88-27.648-25.15 84.136-7.598-44.272"/><path fill="#877592" d="M313.41 355.072l-2.987 144.947 20.108-172.543-184.853 19.102"/><path fill="#557dbb" d="M212.325 198.63L94.97 254.147 4.716 284.16l143.2-66.214"/><path fill="#132146" d="M674.193 641.057L929.18 609.95l70.054-64.66-143.122-30.346"/><path fill="#f7b94f" d="M441.475 421.12l-9.927 21.293-30.875 30.286 51.07-18.002"/><path fill="#193069" d="M571.757 555.775l-122.27-.848L659.904 447.48 813.6 405.445"/><path fill="#66282b" d="M772.625 362.624l65.08-5.175-23.4 48.83-15.638-37.56"/><path fill="#733b28" d="M518.806 695.928l67.713-118.172 69.26-53.522L602.947 713"/><path fill="#53659d" d="M402.368 421.406l118.772-19.602 141.224-51.237L402.787 364.8"/><path fill="#59240c" d="M278.988 520.985l96.84-24.32 45.725-16.3-84.196 13.145"/><path fill="#b09fc3" d="M471.364-31l-1.405 192.334-30.423 4.89-71.114-62.456"/><path fill="#977173" d="M533.906 352.603l-101.684-6.038 37.787-2.21 128.058-3.408"/><path fill="#212148" d="M95.552 369.277l-4.224-38.32.276 141.474 2.483-26.387"/><path fill="#e7a35e" d="M411.266 499.25l24.534-9.326-3.506 3.748-12.316-14.194"/><path fill="#493850" d="M375.703 572.663l-20.384-24.18 100.877-24.79-85.453 21.07"/><path fill="#d69134" d="M329.17 482.492l.854 39.837-19.415-5.008 67.038-56.538"/><path fill="#1b1021" d="M69.194 264.193L-31 305.185l114.344-42.59 76.963-34.694"/><path fill="#9b96c2" d="M173.47 54.014l56.94 106.716 155.023-38.842-34.073 15.915"/><path fill="#564064" d="M1031.144 330.71l-100.908-12.064-19.316 17.677 94.486 7.57"/><path fill="#5b62a2" d="M1035.564 283.457L1055 304.714l-228.162-7.198 227.875-37.135"/><path fill="#2c346f" d="M580.88 359.474l231.393-35.12-221.09 3.55-59.683 6.122"/><path fill="#aab2ce" d="M135.972 314.113L66.364 311.6-26.1 330.98l158.14 1.365"/><path fill="#26171d" d="M150.66 594.602l183.12-75.145-38.377-10.83-75.337 31.082"/><path fill="#802203" d="M355.71 310.654l-18.07 60.794 18.567 2.09-6.548-46.495"/><path fill="#425286" d="M93.84 238.31l-6.63 98.934 1.61-26.474 7.646 59.35"/><path fill="#684f6b" d="M836.283 431.168L868 350.816l-17.535 117.57-117.885 49.268"/><path fill="#ea6f13" d="M386.68 548.583l-28.762-49.006-12.988 38.466 14.782-18.684"/><path fill="#b34333" d="M385.06 170.17l-48.56-44.087 7.38 49.908 36.048-54.366"/><path fill="#4d65a4" d="M324.828 346.273l3.062 121.35-26.984-143.566-10.756 160.585"/><path fill="#a55743" d="M862.176 334.992l-74.742 19.497-80.947 17.43 55.916-33.15"/><path fill="#2c407d" d="M276.57 547.91l50.7-16.345 1.055 47.98-50.287-15.653"/><path fill="#d2c8cf" d="M399.746 317.793l33.385 7.885 120.23-6.652-113.19-3.41"/><path fill="#cea5c0" d="M319.78 121.2l52.466 17.466L419.67 43.81 314.242 69.367"/><path fill="#6386c4" d="M377.305 279.736l-29.085-2.11 7.252-36.91 16.478-12.02"/><path fill="#fc8019" d="M334.003 459.62L331.78 243.91l-5.08 226.05 25.404-36.15"/><path fill="#204080" d="M269.133 461.65l-13.454-40.053-178.974 41.35 26.33 77.802"/><path fill="#7e2b05" d="M387.965 487.87l130.505-55.776-120.928 65.35-12.662 86.205"/><path fill="#d05f30" d="M270.12 492.67l-78.638 20.983-51.083 14.294L293.01 504"/><path fill="#622008" d="M383.665 230.478l-2.516 225 22.348 2.053-12.24-93.086"/><path fill="#2e2137" d="M164.982 211.548l-193.04 75.884 20.736-7.117 8.292.518"/><path fill="#485ea1" d="M354.36 400.915l5.267 64.698.757-33.677 2.273-27.71"/><path fill="#021226" d="M670.512 679.632l267.32-47.95L1055 644.93 1003.017 713"/><path fill="#e35600" d="M356.793 494.578L493.24 440.31l-84.624 40.066-12.294-27.885"/><path fill="#183278" d="M1055 445.745V387.39l-101.79-41.095-56.6 140.072"/><path fill="#e45901" d="M377.646 614.634l34.453-7.858-45.935 17.036-2.663-15.59"/><path fill="#11204a" d="M847.52 353.978l171.226-12.238 36.254 4.655-179.035 30.83"/><path fill="#444383" d="M554.82 340.293l-104.15.388 1.648-15.93 48.445.978"/><path fill="#001b3f" d="M1055 529.09l-30.853 132.358-128.008-40.743 2.427-63.79"/><path fill="#e58454" d="M285.832 403.286l.653 25.066.897 77.542-2.228-28.012"/><path fill="#d03b00" d="M384.928 544.976l-34.672 45.363 31.976 7-59.68 4.987"/><path fill="#af3712" d="M380.152 200.043l-29.363 11.164-11.8 23.604 43.974-8.952"/><path fill="#bca099" d="M17.662 341.978l-1.244-1.45 99.22 2.834L-31 349.005"/><path fill="#151218" d="M145.258 616.77l-22.562-75.567 187 53.298 74.6 12.688"/><path fill="#80719a" d="M448.625 398.234l-45.77 59.977-1.758-128.802 29.104 37.17"/><path fill="#373657" d="M371.698 591.253l-10.46-15.93-12.13 12.726 25.948 5.008"/><path fill="#582e2c" d="M709.783 608.478l-33.604-46.64-17.086 50.967-107.766 100.008"/><path fill="#6a6693" d="M372.49 444.462l-16.287 22.96-.102-67.177 19.93 5.423"/><path fill="#37589b" d="M236.456 360.125l-79.007 31.932-179.804 36.412 334.03-3.01"/><path fill="#ecbf85" d="M554.204 413.878l-115.147 36.674 193.76-56.225-103.458 25.47"/><path fill="#303e74" d="M402.783 566.88l90.507-48.618 145.726-50.398-189.61 14.055"/><path fill="#fe5900" d="M376.54 401.3l1.348-100.493 4.902 67.264-48.117 16.814"/><path fill="#ef9e3d" d="M338.627 457.222l-47.593 12.145 34.725 24.193-70.072 23.752"/><path fill="#9792c1" d="M609.528 134.523l68.168-154.79-149.123 4.582-93.208 175.976"/><path fill="#99504a" d="M655.865 525.258l48.49 16.798 44.838-79.534-18.734 8.824"/><path fill="#b04330" d="M817.66 321.807l.026 111.624 4.576-99.253-2.93-49.344"/><path fill="#e67d48" d="M757.587 456.03l44.984-.724-12.234-4.563 52.425-58.63"/><path fill="#817eb2" d="M713.77 239.746l295.52 18.168-198.812 37.033-170.57 18.173"/><path fill="#594c65" d="M478.102 215.16l-50.5-51.477 62.328 57.515 32.082 32.685"/><path fill="#5f82c0" d="M92.09 262.072l46.774 50.184 190.34-18.624-150.524-71.404"/><path fill="#d7420f" d="M407.69 626.002l3.934-6.585-18.465 11.62 7.187 3.083"/><path fill="#7094c9" d="M131.545 311.705L-31 307.815l82.32-31.777 129.527 22.93"/><path fill="#77607d" d="M742.405 377.634l1.607-15.632 14.35 40.614 59.738-20.364"/><path fill="#2f172b" d="M399.55 227.52l-16.18 58.37.598-118.443 10.775 19.608"/><path fill="#d85b12" d="M294.455 483.736l165.887-47.272-80.077 33.16 18.543-8.04"/><path fill="#621f17" d="M334.517 318.714l14.035-41.53 6.804 7.264-18.643-59.707"/><path fill="#08080b" d="M413.27 641.217L490.814 713l-189.85-35.02-61.49-90.71"/><path fill="#2c1d2e" d="M669.926 713l-55.893-21.4L737.39 567.368l10.343 53.96"/><path fill="#352032" d="M805.926 362.722l-47.647 3.065-9.276 10.15 45.936-1.957"/><path fill="#164091" d="M147.716 333.24l7.847 8.715-50.447 7.2 25.903-9.05"/><path fill="#cd8973" d="M313.68 444.134l-6.46 30.23 8.814 6.832-1.867-133.203"/><path fill="#f38126" d="M501.784 439.227l38.774-19.563 73.686-15.795-25.39 11.095"/><path fill="#301b1b" d="M313.46 585.748l90.473 58.975-90.487-37.613-45.016-51.45"/><path fill="#768ac5" d="M799.703 160.888l-331.44 4.285 24.642 57.77 125.82 18.233"/><path fill="#f14300" d="M380.92 608.554l-4.26-19.922-31.134-56.682-2.87 2.76"/><path fill="#2d2b50" d="M867.604 476.655l-165.092 115.13 142.044-24.513 17.62-33.82"/><path fill="#485b95" d="M555.894 397.353l112.864-28.762-199.13-5.313 74.247 54.354"/><path fill="#ca825b" d="M840.71 364.96l28.247 3.863-84.69 69.485 63.006-52.26"/><path fill="#513848" d="M681.037 598.14l111.31-78.314-64.352-32.778 40.74-27.625"/><path fill="#9c3027" d="M101.65 538.65l29.813.718 120.15-43.482L109.62 538.46"/><path fill="#e95b09" d="M377.553 547.79l-40.622-8.21 38.485-3.794 6.88-1.574"/><path fill="#2e0900" d="M400.043 606.95l-1.46-38.003-9.606 11.345-9.926 35.877"/><path fill="#6d6e9c" d="M376.592 338.438l-1.187 30.33-18.913-3.053-5.92-43.61"/><path fill="#7a93cd" d="M21.256-19.92L138.93 159.75-31 94.34-18.543-31"/><path fill="#6e7cb9" d="M774.59 46.06L901.776-31l-17.61 285.337-71.14-6.248"/><path fill="#c23f00" d="M358.388 288.077l-13.342 60.286-3.772 46.307-2.57-121.855"/><path fill="#c9591c" d="M353.785 154.502l40.253-2.807-69.573 16.345 43.314-18.793"/><path fill="#2d2d56" d="M835.45 392.94l-13.46-23.78 45.936 15.716-6.294-6.983"/><path fill="#804231" d="M670.868 576.548l-3.63 58.126-105.744-6.69 72.603-57.69"/><path fill="#1c4885" d="M-31 530.42v-96.575l174.766 93.748-96.854-12.312"/><path fill="#725159" d="M644.048 362.87l-25.934-17.84 31.41-.782 11.616 6.95"/><path fill="#4a2b4d" d="M395.627 132.454l.378 24.376-10.916 8.397 1.19-51.336"/><path fill="#8e91be" d="M345.268 164.422l33.87-8.067-.46 39.804-5.825 10.633"/><path fill="#ab4407" d="M393.177 493.854l-5.593-207.84 6.595-8.82-1.736 47.753"/><path fill="#413152" d="M860.41 366.942l25.816 13.53-.63-43.545-43.97-11.167"/><path fill="#ee9e57" d="M849.152 344.94l-2.37 6.734-7.84.327-72.51-4.373"/><path fill="#0d1f3a" d="M461.96 664.252l145.883-105.908 27.202-19.696-151.467 61.45"/><path fill="#0c0d14" d="M-30.322 671.678l187.03-89.097-52.007-50.434-36.21-13.198"/><path fill="#fcad2c" d="M304.22 486.072l35.054-4.923 79.366-13.7-110.595 30.7"/><path fill="#815f72" d="M1055 327.862l-36.61 10.734-25.16-4.04-44.91-2.267"/><path fill="#392945" d="M90.618 554.793l7.58-25.933-5.754-119.032-.804 47.574"/><path fill="#1f2c56" d="M27.424 492.916l5.58-90.546-.18 123.304-8.374-63.085"/><path fill="#fd5300" d="M346.34 589.805l32.266-42.846-4.78 13.674-11.077 14.532"/><path fill="#542d25" d="M549.668 693.093l29.327-103.136-39.134 17.852-35.188 89.465"/><path fill="#61375b" d="M803.463 283.49l7.337-5.542-1.068 6.648-8.253 65.086"/><path fill="#e57a2f" d="M196.06 510.783l90.58 3.656-128.634 22.49 8.935 12.788"/><path fill="#c83f1e" d="M376.343 310.216l4.53 18.113 1.604-136.244-2.657 18.737"/><path fill="#24131c" d="M746.58 373.852l-64.76 14.803-88.64 29.268 103.34-22.79"/><path fill="#6a85c0" d="M333.082 204.68l-.812-33.46-4.857 98.425-110.6-63.116"/><path fill="#565384" d="M311.657 400.448l-46.275 100.448 9.198-53.032 37.978 15.826"/><path fill="#b1877b" d="M509.23 357.294l-16.024-16.444 7.222 6.93 32.812-1.317"/><path fill="#9f89a1" d="M530.183 296.92l35.15 5.022 19.015-19.722-6.345 45.932"/><path fill="#150306" d="M395.92 530.564l5.497 7.31 1.304 63.69-7.938-4.13"/><path fill="#6a5268" d="M366.06 155.454l43.672 40.96 82.365 69.028-84.124-76.603"/><path fill="#9583ad" d="M891.76 317.53l-122.126-57.952 111.825 4.28-66.29 54.024"/><path fill="#445090" d="M505.376 427.28l-9.463-1.475L491 388.56l32.682 27.75"/><path fill="#ee4405" d="M341.185 590.905l23.01 1.728 19.152 8.238-10.593 2.83"/><path fill="#1b2568" d="M949.747 330.637l26.975 5.75-125.904-14.5 95.51-.228"/><path fill="#606a9c" d="M232.972 337.526L175.466 322.4l-19.7 19.4 100.38-21.08"/><path fill="#4b1e19" d="M225.98 538.185l-32.253 13.042-27.045 32.327 47.573-57.708"/><path fill="#253270" d="M680.89 353.116l44.05-27.934-49.207-5.206-82.694 10.63"/><path fill="#2d427a" d="M223.34 503.575l-85.892 20.817 5.276-246.71 6.142 214.066"/><path fill="#f2dead" d="M737.944 366.754l-65.144 17.65 116.927-27.1-13.48 1.54"/><path fill="#903e0f" d="M573.712 665.41l92.862 46.605-57.33-27.736-76.895-15.697"/><path fill="#465483" d="M32.634 370.006l-.268-72.187-2.112-26.024-.74 48.183"/><path fill="#d2a0bc" d="M389.83 98.75l-67.948-8.68 10.215 57.247-39.77 11.967"/><path fill="#4e7dbf" d="M-31 285.224l28.904-80.986 131.45 19.218-86.936 34.35"/><path fill="#e86319" d="M334.605 526.833l-14.04-15.534 5.24-3.475 4.173 67.95"/><path fill="#d09976" d="M831.587 382.2l-10.724 39.735 15.97 3.8-12.46-42.83"/><path fill="#6781b8" d="M453.832 232.734l46.11 41.88-95.433 25.7-8.458-114.49"/><path fill="#732224" d="M335.795 269.614l-3.69-135.586 15.827 74.208.01-48.497"/><path fill="#2b1d26" d="M549.608 445.84l-103.543 35.106 11.865-25.635 136.728-32.098"/><path fill="#446ba0" d="M65.374 415.49l29.745-29.372-119.315 27.95-3.666 39.45"/><path fill="#dd824a" d="M483.4 452.59l-11.743-21.43 24.643.055-11.07-17.323"/><path fill="#b3b0c6" d="M363.79 322.69l15.733-11.948-26.204-3.572 3.906 21.053"/><path fill="#405e9f" d="M145.38 236.357l-6.99 9.582 7.63 68.324 1.89-79.254"/><path fill="#3c3454" d="M745.737 322.592l5.217 30.764-42.24 12.84-92.855 1.258"/><path fill="#e39072" d="M315.035 326.133l-2.07 136.37 2.538 6.235-.737-23.674"/><path fill="#605979" d="M308.184 208.577l-34.368 324.816 39.294-16.544-38.284 7.45"/><path fill="#491c12" d="M280.374 534.09l73.488-28.216-19.43 16.42-46.593 17.03"/><path fill="#a0a2c2" d="M88.774 320.64l114.813-8.328 115.135-2.37-41.74 13.317"/><path fill="#4b3048" d="M198.578 197.072l63.68-26.922 27.853-14.507-47.282 20.246"/><path fill="#9198c7" d="M273.017 183.84l57.285 13.573 2.583-43.602.818-2.15"/><path fill="#3e4471" d="M377.177 546.22l-14.138.16-2.25 5.804 9.918 5.28"/><path fill="#a796b2" d="M593.982 308.632l75.786-.225 17.192 7.645-43.37 6.357"/><path fill="#8086bd" d="M713.043-31l52.846 10.76-29.704 211.1-134.38-2.316"/><path fill="#e45e00" d="M367.303 464.024l-46.728 17.61 30.226-77.926 6.737 66.01"/><path fill="#ffbb47" d="M351.742 508.965l-.445 11.36 11.045-12.588-6.222-.5"/><path fill="#c8430b" d="M341.092 322.995l42.782-48.02-19.276 6.56-21.13-1.486"/><path fill="#d8ab64" d="M223.632 511.47l-71.624 22.59 42.01-10.77 133.598-40.188"/><path fill="#9b2300" d="M333.572 542.364l3.672 63.302 16.853-14.444-14.613-79.83"/><path fill="#e2a26d" d="M610.572 384.705l9.22 9.18 74.422-17.08-90.673 32.157"/><path fill="#b0a4cb" d="M287.064 153.342L229.204-31l79.83 10.144L297.03 149.39"/><path fill="#2b345e" d="M402.868 576.334l1.443 43.316 75.66-89.284-75.215-6.455"/><path fill="#dad1bb" d="M449.472 341.136l-6.782 1.243-9.63 15.516-11.54-13.387"/><path fill="#4d1d10" d="M380.508 363.618l1.673 82.914 15.87-71.5 4.142 62.177"/><path fill="#f98600" d="M379.118 450.93l-4.775 29.335.195-15.15 6.426-103.527"/><path fill="#e09146" d="M600.372 404.95l-53.234 23.668 12.574-36.07 9.86 26.762"/><path fill="#6c78a6" d="M136.342 348.468l-63.843-.034 24.366-20.723-41.192 10.702"/><path fill="#8b96c9" d="M218.728-24.88L160.394-31l87.744 204.864L-1.222-31"/><path fill="#d98853" d="M541.41 429.615l-14.65-26.246-9.43 33.134 14.88-24.928"/><path fill="#543840" d="M537.127 634.517l9.665-29.967 141.04-100.63-88.564 88.5"/><path fill="#5b566f" d="M519.733 252.237l57.993 48.255 40.148 30.608L496.2 230.5"/><path fill="#815561" d="M792.968 335.48l-96.81 19.15 6.826-6.483 82.928 2.307"/><path fill="#130c0f" d="M380.04 631.172L270.5 640.09l133.303-18.03 9.218-22.433"/><path fill="#b68589" d="M764.643 372.778l3.993 5.21-5.874 8.135-8.282-4.982"/><path fill="#2a407c" d="M211.686 447.25l72.24-20.398-19.65 70.233-93.527-19.445"/><path fill="#2f4b87" d="M502.144 465.364l71.75-29.543 79.306-27.03.138 32.44"/><path fill="#392941" d="M786.482 424.824l-61.825 50.446 82.178-58.402 2.285-40.86"/><path fill="#626da0" d="M375.532 371.756l-21.16-3.437-.704-8.313 17.952-26.534"/><path fill="#3a192c" d="M208.54 192.51l-35.817 15.904-32.298 13.288-1.116-1.14"/><path fill="#3e0f14" d="M350.19 255.623l-.19 33.384-8.017-18.063 2.6-2.905"/><path fill="#bf9ea1" d="M982.638 309.628l-27.647 8.342 19.206 9.568-3.62-.43"/><path fill="#6078b8" d="M877.5 48.72l81.136 68.733L1055 285.38l-169.65-68.37"/><path fill="#510d11" d="M335.748 379.904l-.682-102.263-.907.457 6.15-83.795"/><path fill="#668eca" d="M121.61 241.43l118.498-56.492-110.77 43.596-31.863 14.005"/><path fill="#5583c0" d="M93.816 383.983l70.58-10.76 20.355-5.745-80.598-4.714"/><path fill="#58548f" d="M697.93 316.5l64.774-2.322-11.295 5.54-107.905 5.136"/><path fill="#4f538d" d="M607.137 313.698l34.143 12.987-106.296 16.727 82.637-30.086"/><path fill="#4f6396" d="M39.28 291.49l4.556 1.667-2.76 117.49-1.267-90.097"/><path fill="#1c4b92" d="M138.864 441.684l-42.39 19.965 9.083 76.04 18.948-7.694"/><path fill="#54639c" d="M438.964 349.45l148.664 50.408-21.504 9.752-19.113-52.498"/><path fill="#686379" d="M542.84 304.725l49.1 27.816-42.337-27.55-87.85-63.964"/><path fill="#c27251" d="M278.22 479.128l-5.405 10.074 10.356 10.206-15.768-16.768"/><path fill="#ac4321" d="M205.177 512.67l71.873-20 71.083-29.628 47.64-14.61"/><path fill="#c2b8c1" d="M407.144 312.822l-.932-23.15-4.972 37.913 41.468-7.09"/><path fill="#9094b9" d="M471.18 314.175l-68.654-10.634 16.922-16.316 160.263 10.33"/><path fill="#47160e" d="M387.046 500.493l19.378-20.245.3 36.814 41.642 35.034"/><path fill="#9d6982" d="M449.685 439.095l-48.28 13.412 37.754-39.2-2.8 21.126"/><path fill="#a44b22" d="M276.177 559.836l5.683-.623-28.716-2.038 17.984 15.348"/><path fill="#273b78" d="M795.71 399.577l-119.6 86.593-120.25 5.06-105.234 1.302"/><path fill="#ffde5f" d="M446.175 460.926l-28.953-4.804-8.958 14.857L444.974 448"/><path fill="#9b5756" d="M810.933 419.43l-42.477 75.968 60.79-51.544L808 377.46"/><path fill="#a40" d="M486.624 444.606l-21.35 8.24-52.058 15.03 14.985 7.418"/><path fill="#29101c" d="M398.078 274.15l-16.59-85.692 13.478 93.787.463 145.768"/><path fill="#242a49" d="M833.34 394.173l3.488-.39-12.344-13.644 18.495-20.187"/><path fill="#433242" d="M442.697 664.632l-30.934-28.822-2.81-36.088 34.675 42.675"/><path fill="#463d5f" d="M863.293 444.814l-39.558 104.718 16.357-39.708-78.563 22.99"/><path fill="#142755" d="M980.854 503.808l-92.444-13.005-64.02 64.044 52.645-2.184"/><path fill="#526097" d="M191.577 355.866l.396-173.947 3.29 161.46-16.804-15.086"/><path fill="#2d3050" d="M56.71 511.5L39.07 533.74l1.647-91.48L45.78 536.5"/><path fill="#ed7824" d="M631.314 399.146l-24.75 3.677 103.296-25.687 2.51 2.257"/><path fill="#90410d" d="M387.335 307.438l-.33-25.02 8.07 48.63-8.37 80.297"/><path fill="#283d82" d="M872.82 423.494l-10.457-48.157L1055 357.207l-213.79 53.51"/><path fill="#5e75b1" d="M327.526 352.253l-.847 87.12-12.63-85.01-51.626-2.07"/><path fill="#564162" d="M371.743 553.445l-13.376-3.38 15.585-14.42-14.784-20.547"/><path fill="#ef9e6e" d="M835.216 413.16l-4.144-11.86-8.073-9.407 6.94 30.548"/><path fill="#4e4b68" d="M605.535 350.44l7.908-7.882 51.018 19.303-159.382-7.73"/><path fill="#c35644" d="M809.89 344.7l-1.906-17.683 15.93 24.31-4.705-33.555"/><path fill="#1f0f10" d="M583.57 424.27l-7.622-8.644 2.457 17.4 106.265-38.4"/><path fill="#d85103" d="M364.52 622.385l11.427-7.863 9.196 15.558-27.467-24.588"/><path fill="#091d51" d="M1000.462 343.44l-43.646 14.73 90.53 6.54-56.687-36.28"/><path fill="#7681bd" d="M798.21 198.51L860.704-.85 774.14-31l-92.796 341.215"/><path fill="#6f546f" d="M421.83 521.998l5.697-27.774-22.29 13.798 3.556-27.48"/><path fill="#392b3e" d="M752.838 555.91l-83.822 107.255 50.53-113.268 66.19-20.23"/><path fill="#6a85bf" d="M351.117 277.08l27.11-.473-3.107-28.32-22.9-15.15"/><path fill="#9b7a8c" d="M795.084 311.413l43.114-8.446-73.664 22.468-13.87-4.863"/><path fill="#0f031c" d="M384.515 341.833l-.642-74.048 2.654-.076.037 43.078"/><path fill="#204f93" d="M85.995 433.21l-45.26 29.16L91.1 531.596l-.537-70.79"/><path fill="#46457c" d="M486.728 321.433l87.948 25.786-45.452-3.813-42.073-5.082"/><path fill="#8a798c" d="M208.62 349.32l33.99-15.863-51.066 5.59 127.36 11.015"/><path fill="#6e5366" d="M416.573 151.874l39.99 43.307-7.19-6.372 47.628 39.893"/><path fill="#433655" d="M240.075 178.306l-132.503 59.427 10.506-9.763-9.836 5.073"/><path fill="#8a2a0b" d="M326.47 371.743l26.492-2.673-4.216-82.148 6.16 61.51"/><path fill="#92311d" d="M341.91 208.92l46.467 21.953-38.124-3.717 29.928-20.18"/><path fill="#96707d" d="M825.115 459.455l12.736-17.3 17.98-69.777-33.94 69.317"/><path fill="#2d2d67" d="M886.88 323.707L1055 326.3l-78.878 31.062 64.58-26.11"/><path fill="#2f4578" d="M29.056 425.782l4.874 23.936-2.3-85.35-1.97-19.64"/><path fill="#0d0f15" d="M54.53 517.325l44.804 13.142-53.31 118.8L20.94 541.258"/><path fill="#3b5492" d="M97.736 294.56l-9.174 6.435 7.652-36.977-5.758.398"/><path fill="#bb5010" d="M341.61 247.49l1.01-12.997 18.196-17.08-22.676 40.343"/><path fill="#484981" d="M778.02 374.746l12.92 10.9 14.43 19.423-71.407-1.727"/><path fill="#beb3c2" d="M319.8 314.875l8.878-2.73 1.85 13.497-82.587-5.726"/><path fill="#c2c7d3" d="M86.536 328.653l-19.245-8.29 5.597 1.63-28.39 10.736"/><path fill="#f0bd87" d="M596.52 405.473l36.975-10.238 95.592-23.263-70.713 13.425"/><path fill="#bd3900" d="M349.655 293.68l-15.378 130.705 10.06-5.596-1.334-28.497"/><path fill="#ed6718" d="M380.3 274.395l1.363 39.276-5.068 91.182.2-103.098"/><path fill="#244d94" d="M146.033 410.067l-1.33-78.385 12.25 177.657 26.56-79.88"/><path fill="#5e3857" d="M797.64 347.303l22.98-41.622-54.11 39.544 33.81-3.123"/><path fill="#d69761" d="M586.486 397.536l-3.528 8.583 12.915 4.552-9.032-25.5"/><path fill="#f59015" d="M329.258 459.425l-1.516-36.088-.64-57.068 9.02 84.272"/><path fill="#445489" d="M235.242 333.846l-1.076-94.938-1.672 54.876 2.984 200.9"/><path fill="#b196b1" d="M399.828 81.28l-3.555 78.4 37.635 14.098-42.893-49.264"/><path fill="#23355d" d="M43.987 450.882l-3.814-4.4-3.913 201.14 5.065-297.453"/><path fill="#7d5d62" d="M923.75 332.764l24.19.91 9.84 10.59-6.96-6.475"/><path fill="#4d3d55" d="M430.01 163.977l88.603 88.542 3.258-.352-56.83-52"/><path fill="#dc5207" d="M343.152 523.74l22.073-59.81-21.18 78.204 25.607-36.376"/><path fill="#542833" d="M793.458 359.262l15.172 49.596-2.643 18.146 7.956-67.635"/><path fill="#ef9c35" d="M424.346 493.284l-10.554 2.218-2.795-9.96 16.956-2.172"/><path fill="#ffaabf" d="M356.442 120.384l-15.298 5.63-12.084-2.87 3.768-9.39"/><path fill="#b8867d" d="M408.815 344.77l-10.032-2.986 3.876 12.48 23.022-6.356"/><path fill="#df7e2a" d="M219.07 537.402l.784-42.165 8.704 27.815 30.853-13.497"/><path fill="#6b92c6" d="M-18.153 378.402l101.78-7.6L9.843 399.31l34.56 6.554"/><path fill="#3a3e6b" d="M295.19 573.617l33.252 19.03-1.918-44.713.51-32.16"/><path fill="#9b3b30" d="M347.278 179.78l-16.22-32.704 48.076-22.03-28.728 27.237"/><path fill="#3a1614" d="M370.48 572.916l-5.033-10.502 7.98 3.338-1.005 6.686"/><path fill="#dda854" d="M310.022 485.86l61.546-18.284-25.272 20.012 1.985-11.56"/><path fill="#ab6941" d="M683.074 369.24l98.583-14.353-144.473 35.128L678.5 378.25"/><path fill="#b48676" d="M552.562 351.68l.936-5.24-32.63 1.235-81.02-5.098"/><path fill="#532009" d="M332.374 498.497l-7.547 1.935 25.35 13.507-17.764 8.303"/><path fill="#83748c" d="M380.395 325.7l22.826-.643-1.015 22.308 73.077-20.912"/><path fill="#f9a24f" d="M159.378 544.916l214.285-67.747-110.48 32.262-68.23 23.456"/><path fill="#7274a9" d="M771.493 293.588l28.664 10.888-192.328 1.337 58.54-9.192"/><path fill="#31101a" d="M386.214 348.666l-2.084 48.01-.778-50.622-1.402-18.487"/><path fill="#b59fc2" d="M483.94 11.506L350.73 143.06l11.37-62.118 45.898 60.753"/><path fill="#5d699b" d="M305.064 186.72l-2.41 27.206 1.358 220.415 1.162-197.682"/><path fill="#26213b" d="M146.004 236.566l-84.998 32.586 27.54-13.945 51.76-19.233"/><path fill="#e4bd74" d="M310.857 468.11l8.234-.475-13.628 9.47-10.053-17.042"/><path fill="#4b5699" d="M374.714 462.553l-16.014-.858 10.196-1.12.86-50.345"/><path fill="#ed7531" d="M147.258 542.487l16.236 7.375 15.747-12.97 198.645-69.045"/><path fill="#aa5441" d="M734.318 472.41l-50.302 49.634-4.033 21.528 22.558-5.78"/><path fill="#6f4754" d="M756.842 474.773l-40.238 37.2-12.242 31.764L827.356 480.9"/><path fill="#924b37" d="M643.46 618.927l33.367-67.966-38.058-12.187-1.014 37.468"/><path fill="#527bb9" d="M100.176 240.83l-79.94 30.21 12.897 7.257 190.68-83.423"/><path fill="#50568b" d="M592.553 369.12l29.896 24.937 13.058-38.378-39.522 46.842"/><path fill="#ffaf05" d="M407.514 465.935l.106-8.23 12.95 11.527-40.994 7.8"/><path fill="#ff6800" d="M356.13 416.673l-12.133-31.744-.427 43.616 6.315 21.92"/><path fill="#a94f19" d="M383.97 489.46l4.764 72.072.305-62.464-53.86-95.555"/><path fill="#4d64a3" d="M313.068 412.178l-56.88-3.187 14.72-5.177 18.79-68.81"/><path fill="#7d2a34" d="M339.412 142.975l48.69 8.566-53.38-19.534 7.675 52.783"/><path fill="#e36003" d="M349.95 499.067l29.27 41.84-24.447-46.136-5.77-2.52"/><path fill="#411f18" d="M431.21 704.65l108.477-18.296-16.94-40.936-48.637 24.66"/><path fill="#534f6b" d="M824.894 360.696l1.026 14.562 21.297-8.173 2.124-10.29"/><path fill="#60689a" d="M638.453 360.167l21.135 27.425 11.51-20.455-238.643-12.966"/><path fill="#131016" d="M329.993 596.113l.65 53.585 82.777-9.896-45.298-15.784"/><path fill="#20070c" d="M382.457 538.292l.448-11.493 2.114-25.104.227 110.81"/><path fill="#466dac" d="M197.926 376.148l92.777-10.112-115.277-18.266-29.557 37.12"/><path fill="#fe5e00" d="M380.867 543.768l-42.168-7.54 37.646 1.848-.765 101.64"/><path fill="#da7808" d="M275.9 496.337l110.005-34.873-85.814 22.297-23.192 7.977"/><path fill="#1f243c" d="M228.206 539.683l30.25 19.7-34.762-.357 42.757-26.247"/><path fill="#f4611f" d="M333.43 303.32l1.018-28.3-5.228 27.656 5.244 58.73"/><path fill="#83330e" d="M484.188 446.654l85.42-27.604 3.91-.63-12.52 9.367"/><path fill="#7b6e9b" d="M425.108 425.582l37.14 6.936 39.127-6.202-109.15-7.212"/><path fill="#371915" d="M218.154 535.784l-51.8 22.866 83.978-22.977 69.968-34.238"/><path fill="#7172aa" d="M994.006 268.033l-111.114 33.013-78.85 3.724 79.81-27.36"/><path fill="#df4300" d="M381.517 468.474l-.948 12.866 19.762-29.453-5.966-10.185"/><path fill="#3f1509" d="M395.672 498.833l8.91 27.963-5.897-42.113-32.107 9.49"/><path fill="#151118" d="M264.312 626.42L328.91 713 151.42 546.03l110.975 21.47"/><path fill="#86a4d3" d="M91.974 308.885l-104.407-10.49 104.053-4.38-5.955 36.73"/><path fill="#ff5907" d="M330.996 594.303l-3.236-79.147-1.383 8.156 6.67 11.778"/><path fill="#0e0e14" d="M229.363 635.925l-132.33-54.41L-31 622.402l174-79.07"/><path fill="#68496d" d="M878.9 356.44l-58.125-35.728.357-55.855-8.735 43.517"/><path fill="#9e99c3" d="M259.855 165.642l-24.193-115.93 82.733 90.61-48.856 22.222"/><path fill="#efb46a" d="M844.28 349.11l-78.1 15.594 17.078-8.813 35.166-4.506"/><path fill="#344174" d="M266.066 554.72l56.153 1.29 6.49-28.77-108.958 38.146"/><path fill="#6578ae" d="M413.815 303.925l-1.218-90.497-15.734 38.106 3.44 27.293"/><path fill="#bf4311" d="M349.234 452.537l-32.063 26.3-3.23-11.16 43.722.494"/><path fill="#46262f" d="M382.18 606.992l-26.438-7.086-9.22 31.995 6.74-23.924"/><path fill="#180d0a" d="M286.376 527.08l2.684 4.464-79.155 27.527 14.66-5.947"/><path fill="#862a23" d="M340.744 230.592l35.838-25.334 11.463-36.243-13.774 55.496"/><path fill="#ab8b8d" d="M273.975 344.585l-42.46 2.197-34.764-1.125 87.49 4.562"/><path fill="#401b2c" d="M379.838 189.634l15.127-47.616.707 85.065 2.16 80.032"/><path fill="#1b3480" d="M1037.67 403.354l-110.117-31.008-37.874-2.86 161.14-11.448"/><path fill="#212040" d="M737.062 580.45l133.242 6.523-144.45 54.044 21.965-146.03"/><path fill="#ab89b5" d="M795.756 271.16l21.397-1.887L831.12 276l-39.27 5.477"/><path fill="#393f73" d="M876.505 371.268L849.52 402.52l-4.953 78.132 16.94-3.506"/><path fill="#bd7856" d="M329.923 435.09l33.598 28.253-2.905-162.413.73 160.832"/><path fill="#e1b580" d="M448.89 435.897l-16.26-14.736 14.176 35.057-11.238-3.862"/><path fill="#758ac0" d="M309.506 305.02l14.47-125.09 8.403 99.19-17.304.722"/><path fill="#10254b" d="M699.324 496.625l-103.56 33.998-142.787 79.553 10.05 26.927"/><path fill="#0f1428" d="M937.52 713l-112.79-74.05-162.548 31.554L680.22 713"/><path fill="#342746" d="M676.365 337.05l31.684 33.36-43.875-10.358-6.152-8.272"/><path fill="#726e99" d="M167.26 339.873l101.147 5.956 6.516-22.73-29.993 6.45"/><path fill="#738cc6" d="M71.885 180.387l87.216 28.928 54.968-21.373L85.13 110.05"/><path fill="#162c59" d="M405.38 571.636l-1.857 22.838 129.574-17.164 114.297-71.442"/><path fill="#ff4c00" d="M335.072 565.446l-4.698 32.312-.457-20.396.612-23.223"/><path fill="#d4764c" d="M760.333 454.544l73.282-58.943-6.872 6.59-39.333 60.122"/><path fill="#7077a7" d="M405.054 413.083l48.592-50.135 28.708-9.63-79.903 2.218"/><path fill="#c3bccb" d="M416.815 317.862l145.147 3.218-31.77 4.594-105.125-4.244"/><path fill="#7991c3" d="M424.704 226.772l-.983 49.498 95.737 16.74-107.944 8.133"/><path fill="#522720" d="M637.973 579.593l-4.105 58.144-47.837 22.06L636.03 713"/><path fill="#de610b" d="M370.364 155.288l37.25-2.222-56.732 3.33-15.75 9.38"/><path fill="#1e161b" d="M140.644 550.788L258.39 540.75l-2.702-26.022-80.592 89.265"/><path fill="#898bbf" d="M657.69-21.848l-88.005 210.18L744.083 14.378 727.673-31"/><path fill="#b05a4e" d="M334.315 136.676l50.956 32.666-54-34.49-55.415 28.93"/><path fill="#e09b5b" d="M214.942 491.733l-1.744 3.745-11.463 6.146 8-10.222"/><path fill="#765d7e" d="M400.503 500.283l24.284-7.784 15.14-6.754-10.82 14.307"/><path fill="#a94719" d="M252.13 560.978l21.233 1.337-3.47 2.928-3.125 7.824"/><path fill="#c38698" d="M533.615 293.703l-5.318-8.717 14.562 23.15-.295-14.677"/><path fill="#414e89" d="M308.43 424.54l-16.825-13.503-4.65 18.97 3.586 47.885"/><path fill="#35437a" d="M184.305 517.578l2.676-80.804-2.54-81.33-5.754 115.512"/><path fill="#34171e" d="M402.3 406.137l-4.104 20.63-3.98-1.133-.773-187.07"/><path fill="#c4acca" d="M421.758 63.19L347.37-31l-42.394 86.783 12.887 47.195"/><path fill="#86719d" d="M1055 341.748l-34.347-45.397-179.16 12.27 144.61-.71"/><path fill="#7d8cc0" d="M364.43 206.276l13.76-12.66-24.655-36.41-5.016 49.092"/><path fill="#b06f62" d="M784.038 347.78l4.844-12.69-27.23 21.816-6.625-10.913"/><path fill="#052556" d="M1055 562.454L931.615 539.5l48.765-59.094 74.62 6.668"/><path fill="#110e13" d="M269.303 584.112l-80.984 97.55 27.244-151.683-6.753 4.37"/><path fill="#8591bf" d="M195.365 318.82l123.88-13.028-99.112-8.118-108.66-.652"/><path fill="#2c3e75" d="M192.53 361.545l4.713 150.292 36.205-14.143-44.925 4.567"/><path fill="#596da6" d="M222.935 238.91l-.175 20.81-1.608 77.797-2.78-128.526"/><path fill="#eabf76" d="M595.418 403.55l-30.63 11.737-46.064 10.166 41.978-13.135"/><path fill="#753f3f" d="M707.665 570.74l15.735-64.09 5.917 18.397-43.638 30.45"/><path fill="#eb5d0b" d="M379.128 389.175l-17.848-19.633-9.775 25.067 18.995 9.05"/><path fill="#010100" d="M109.314 623.72l.67 46.88L-31 666.41 77.67 713"/><path fill="#ab4f2b" d="M790.838 359.18l40.746-6.055-83.154 17.852-2.95-1.86"/><path fill="#534776" d="M89.986 526.998l7.1-28.278-.08 29.59 23.75 10.18"/><path fill="#ba7b54" d="M147.91 531.988l-2.812 12.24-34.58-.698 95.686-19.496"/><path fill="#14151f" d="M31.264 522.74l39.63-5.572 42.32 61.695 2.457 17.054"/><path fill="#e55800" d="M382.073 485.045l16.037-2.348 32.412-16.427-67.404 17.22"/><path fill="#1b4487" d="M184.49 429.476l-38.233 39.476 3.02 54.08 30.48-7.753"/><path fill="#4d4576" d="M289.942 474.57l14.316 6.412-40.307 9.935 26.357-13.008"/><path fill="#42211f" d="M327.07 594.403l-47.598-30.352-3.78 16.754-21.21-1.737"/><path fill="#8a8eac" d="M105.9 350.563l49.8-31.907-56.02 22.73-40.424 2.604"/><path fill="#573d50" d="M760.803 502.568l57.038 6.185-88.934 24.778 8.627-63.062"/><path fill="#5f84c2" d="M-24.55 210.324l107.86 21.31 50.72-15.446-143.456-56.013"/><path fill="#a299c1" d="M406.06 140.463l91.6-109.144 13.38-46.636L551.11 104.67"/><path fill="#403a5e" d="M361.767 573.38l9.965 18.61-8.61 2.668 1.51.584"/><path fill="#5f4b65" d="M379.285 171.54l56.496 46.427 37.196 31.388-45.39-40.967"/><path fill="#8792c5" d="M421.842 152.02l42.874 42.032 118.675-20.514-28.574-27.503"/><path fill="#ba8790" d="M313.164 320.814l-.275 20.77-4.73 2.954 7.114 21.92"/><path fill="#882e33" d="M382.71 151.106l16.33-.626-62.467 8.004 34.997-24.505"/><path fill="#cb6f23" d="M341.43 237.004l33.166-11.124-42.872 4.626 1.996-4.035"/><path fill="#445ba0" d="M317.167 436.196l6.183 14.797 3.004 1.55-6.336-123.476"/><path fill="#a89db3" d="M371.15 304.875l5.604 24.858-24.463-17.57-4.522 1.7"/><path fill="#5f70a7" d="M333.422 369.205l-13.958-27.946-12.012 50.46-50.97-42.812"/><path fill="#b599b8" d="M577.34 288.354l12.522 3.05-21.685 21.62 4.903 7.04"/><path fill="#dd8448" d="M813.858 346.81l-39.763 2.955 57.306-7.325-10.102 8.214"/><path fill="#b9a49e" d="M37.816 345.273l-39.1.048 30.44-6.285 32.468 5.347"/><path fill="#7e555e" d="M632.896 353.31l21.117 10.916 49.33 13.44-18.818-8.3"/><path fill="#fff17d" d="M446.32 447.056l-.627 16.157-5.188-19.143 2.116 5.166"/><path fill="#5f4963" d="M354.28 346.89l11.73-4.69 13.88 10.205-21.114-2.98"/><path fill="#743016" d="M345.084 495.702l26.818 6.605 7.103-16.737-56.7 21.15"/><path fill="#384071" d="M403.136 559.876l100.723-79.79-93.96 29.146-3.187-11.84"/><path fill="#1c4d8e" d="M26.955 518.768L29.6 477.31-31 416.48l11.18 110.548"/><path fill="#bd7c59" d="M846.275 384.15l-5.587-18.403 25.272-.174-18.21 15.91"/><path fill="#28202a" d="M468.26 669.198l47.802-41.935-48.184 6.4L436.933 659"/><path fill="#e07e50" d="M112.17 542.285l20.71-3.16 56.582-4.463-17.033 9.76"/><path fill="#9b747a" d="M962.37 311.51l29.894 22.904 4.697 12.514-28.613-35.7"/><path fill="#3c3a67" d="M150.844 516.813l-11.096 16.034 1.914-134.632.395 74.015"/><path fill="#1f316a" d="M840.95 515.434l41.99-85.88 92.888-2.54-25.435 50.472"/><path fill="#6569a0" d="M327.123 356.014l.116-23.758-6.015-10.3-3.675 9.66"/><path fill="#060609" d="M154.402 663.914L87.044 526.1l26.966 16.024 31.492 89.97"/><path fill="#1e2452" d="M979.544 335.81L1055 346.695v-11.862l-120.52 12.05"/><path fill="#6680b8" d="M377.088 229.35l-4.345 42.643 7.363 2.896-30.138 6.492"/><path fill="#8491c2" d="M402.335 185.512l1.155-39.475 46.362 43.366-4.648 33.418"/><path fill="#eb9744" d="M250.18 516.52l.433-21.217-15.03 15.447 52.26-3"/><path fill="#2c1519" d="M493.158 441.762l7.6 10.27 43.716-24.853 20.808 9.688"/><path fill="#526fb3" d="M1052.547 175.556L1055-18.214 993.726 40.11 978.988 202.04"/><path fill="#551b21" d="M335.47 231.912l12.106 38.86-12.145-62.693 14.895-39.61"/><path fill="#876b84" d="M1019.312 317.398l-27.76-8.292 26.174 35.033-18.294-13.5"/><path fill="#6481bb" d="M473.39 216.13l90.317 74.267-74.113-32.934-43.84-36.11"/><path fill="#8f7698" d="M869.95 323.284l29.708-14.02-111.178-1.612 48.565-5.014"/><path fill="#2d315d" d="M594.947 348.417l-51.76 4.894 47.76-12.396 42.302 14.772"/><path fill="#bd560e" d="M547.218 424.434l-6.747 4.585 130.485-41.247-80.636 28.223"/><path fill="#6a7bb8" d="M947.818 273.28l-136.314-69.39 81.924-13.038 136.194 66.167"/><path fill="#86555c" d="M824.045 437.264l-29.144 52.58-55.71-.065 81.59-47.977"/><path fill="#906b87" d="M401.71 455.4l59.266-45.64-42.886 38.53-7.918-61.925"/><path fill="#505b91" d="M536.7 419.33l-17.61-36.67 56.35 19.445 19.225-47.207"/><path fill="#ae392c" d="M380.15 273.424l3.826-22.78-2.742-55.533-5.26 109.913"/><path fill="#be6a3b" d="M792.503 342.474l21.41 9.564-59.158 7.055 74.243-18.73"/><path fill="#101935" d="M884.51 650.132l-24.286-34.88-132.95 15.194 60.497 40.684"/><path fill="#270909" d="M386.92 536.296l-5.304 79.474 11.65-22.625-7.035 7.797"/><path fill="#646898" d="M503.977 343.18l2.115-48.928-4.68-58.63.632 33.086"/><path fill="#353661" d="M357.39 526.458l12.215 9.626 5.147 6.398-12.585-23.645"/><path fill="#f77a04" d="M381.6 444.367l-9.91 25.042 11.883 8.21-12.87-105.564"/><path fill="#5e2a09" d="M367.715 508.25l36.723 52.95-26.12-26.66-6.573-28.123"/><path fill="#74423f" d="M633.09 566.262l-20.42 30.595-2.814-37.655 90.304-60.722"/><path fill="#806776" d="M708.874 350.19l-18.42-1.908 32.292 7.286-5.896-6.787"/><path fill="#2f3f7d" d="M741.13 400.218l41.402 16.73-84.073 25.2L592.976 429.2"/><path fill="#606fa3" d="M268.285 277.056l3.474 74.015 1.317-61.866-2.894-92.08"/><path fill="#b9a3c4" d="M345.395 138.395l30.82-12.3 33.153-33.172L450.62-31"/><path fill="#b53425" d="M342.213 208.824l-10.5 52.71-.944-52.21 7.02 21.19"/><path fill="#6c2831" d="M170.942 526.385l-62.348 12.283 62.647-21.126-.843 18.71"/><path fill="#ff6102" d="M374.835 580.86l4.607-47.12.57 81.027-6.493-9.38"/><path fill="#9daecf" d="M26.956 339.787L-31 333.765l17.183-14.606 42-10.437"/><path fill="#b13f00" d="M391.03 449.694l1.46-33.388-7.6 72.18.46-101.37"/><path fill="#4f3033" d="M692.487 642.09l-2.316-69.768 32.44 6.364-107.326 63.63"/><path fill="#3c4d88" d="M281.334 489.268l-10.087-118.256-19.432 82.51 2.278-91.526"/><path fill="#050609" d="M51.316 573.184L-31 523.294 92.9 571.17l6.814 110.622"/><path fill="#434e6a" d="M475.986 248.912l50.497 41.713-17.937-13.65-38.257-30.543"/><path fill="#171929" d="M55.522 571.038l1.648 28.22-9.774 14.798-4.373-41.714"/><path fill="#632d19" d="M510.607 713l71.804-67.49-55.124 8.904L505.02 713"/><path fill="#562517" d="M475.423 460.764l.33-11.62-43.424 33.065 20.362-3.85"/><path fill="#525584" d="M597.6 383.622l24.004-33.36 20.354 41.702L659.26 361.2"/><path fill="#f6860a" d="M315.846 488.09l-1.474 7.55-36.542 5.395 7.845-2.704"/><path fill="#4a4570" d="M563.47 354.038l-61.248-12.976 49.912-5.807-27.237 19.47"/><path fill="#7d3008" d="M394.814 547.245l.083-31.126 1.656-10.773-6.45 31.074"/><path fill="#4d64aa" d="M1038.53 298.1l-75.685-10.042 74.406-24.904 17.75 12.57"/><path fill="#605279" d="M856.498 400.884L819.444 502.7l35.79-124.93 17.347-3.49"/><path fill="#9b4f4b" d="M742.438 466.447l-47.003 32.187 38.72 11.7 2.838-38.646"/><path fill="#678bc9" d="M375.948 230.155l-24.286 22.678 4.805-23.535 19.5 20.634"/><path fill="#923505" d="M394.43 595.41l.606-20.34-2.443-115.406-.772 108.84"/><path fill="#685f8c" d="M438.305 418.835l38.907 12.985-19.64 6.6-1.45-59.924"/><path fill="#856367" d="M641.37 360.593l-23.077 52.405 27.572-63.534 18.713-5.432"/><path fill="#ec7d31" d="M364.79 161.475l-23.632-.553 30.014-7.8 10.25.676"/><path fill="#455b8f" d="M652.537 439.56l-75.66-6.31 1.465 1.734 14.306 8.04"/><path fill="#35619e" d="M25.168 433.154l6.527 27.445-58.433.747 18.544-70.413"/><path fill="#1c1f41" d="M889.845 373.01l-37.83-11.623 49.674-4.856 23.308 4.818"/><path fill="#685d83" d="M563.482 338.126l-25.415-16.66 44.387 24.875-13.527 1.724"/><path fill="#cbc6d2" d="M417.26 328.153l-1.745-12.993 52.326 8.03-40.455.78"/><path fill="#6e86c1" d="M606.102 310.186l-77.078-53.167-39.434-37.747 149.425-17.738"/><path fill="#d17738" d="M207.946 513.267l78.04-3.045-83.327-1.096 1.675-20.747"/><path fill="#3b4478" d="M219.21 389.97l2.108-58.284 2.218 128.182-4.644 42.49"/><path fill="#453e5e" d="M565.74 318.062l64.572 34.402 10.194 17.527-69.612-48.517"/><path fill="#7c6082" d="M290.868 464.66l-7.58 4.434 34.642-27.466-24.418 39.254"/><path fill="#d34c06" d="M349.484 279.25l-10.01 9.82 2.338 40.168 14.004-25.652"/><path fill="#553a5e" d="M774.43 325.676l46.252-11.02-17.454 16.04-3.278 15.374"/><path fill="#11295d" d="M934.487 366.862l-36.75-27.738 62.032 1.524 8.16 24.014"/><path fill="#6388c8" d="M148.488 273.96l5.217-40.596 27.38-4.83-2.885 78.652"/><path fill="#a09ccb" d="M372.057 164.86l-13.08-5.427-6.238 2.016-1.157 7.145"/><path fill="#b73916" d="M368.194 280.493l-12.053 3.21 5.803 20.93 14.623 3.652"/><path fill="#8192c3" d="M326.86 141.977l-180.24 82.016 180.42-72.017-9.044 77.912"/><path fill="#934b30" d="M628.094 636.464l3.323-82.898-14.6 80.5 9.03-10.654"/><path fill="#626da2" d="M281.697 209.39l5.582-2.3-2.647 144.21 3.416-98.37"/><path fill="#3b1b2b" d="M835.76 391.257l-21.616 6.505-11.767-26.988 1.304 20.307"/><path fill="#a2a0cd" d="M168.88-31h81.63l13.453 80.83-10.026 46.18"/><path fill="#d17734" d="M325.41 489.306l-3.134 33.242 5.445-.482-5.476-66.377"/><path fill="#b3b5ca" d="M259.092 308.412l21.742 24.148 12.957-11.72-19.67.23"/><path fill="#6a6c99" d="M371.325 402.27l3.7 34.652-8.336-24.387-10.454-13.887"/><path fill="#e06b11" d="M222.477 511.386l-42.045 11.284 25.938-12.51 13.63-3.28"/><path fill="#586fa7" d="M137.08 271.08l10.464 65.215-1.382-39.183-3.712-38.236"/><path fill="#283261" d="M92.995 461.56l-.968-42.983 3.62-41.948-.33 68.442"/><path fill="#47568e" d="M98.122 332.07l84.306 13.01-94.07-15.056 7 33.853"/><path fill="#cc3d04" d="M366.44 594.792l-30.05 2.59-2.26 1.984 3.855 3.22"/><path fill="#271b22" d="M620.515 673.112l60.447-28.168L732.395 713l-70.654-.608"/><path fill="#5f3530" d="M349.532 369.477l66.348-.954-76.078 3.226 10.795-12.65"/><path fill="#2e4682" d="M551.4 443.742l27.42-7.8 58.91 17.196-198.723 32.43"/><path fill="#662412" d="M345.318 522.05l-.938-24.976-37.087 7.28 38.442 4.1"/><path fill="#455489" d="M191.643 301.48l3.555 102.456-4.59-46.414 1.11-36.87"/><path fill="#cc8a6c" d="M529.556 420.462l1.588-19.86-8.57 9.374 11.78 15.993"/><path fill="#250b1d" d="M385.687 348.68l.983-9.363-3.674-70.552.563 96.728"/><path fill="#424473" d="M253.6 410.072l-1.56 84.98 71.372-19.55-55.49 12.736"/><path fill="#6073aa" d="M518.232 359.117l68.197 5.118-19.604-7.42-75.04-2.405"/><path fill="#954233" d="M814.763 375.592l14.202 18.193-23.855-36.035 24.935-4.47"/><path fill="#4e5f96" d="M187.938 313.757l-2.543-25.6-2.38 140.922-.31-182.018"/><path fill="#892608" d="M333.428 310.486l21.963-6.392-17.725-4.016 2.636 88.248"/><path fill="#a18297" d="M957.757 310.525l40.936 13.556-37.74-22.09 13.362 38.52"/><path fill="#5a689c" d="M500.948 398.305l-66.943 14.856 12.41-64.72 53.716 7.796"/><path fill="#382034" d="M791.805 360.925l-33.387 8.92 81.36 5.745-.445 10.055"/><path fill="#ab5a4f" d="M754.52 462.316l-29.728 16.22 42.163-31.29 18.335 15.167"/><path fill="#ca846d" d="M490.25 416.526l-1.227-6.26 7.454 24.1-11.03-16.296"/><path fill="#282036" d="M-25.724 308.11l-6.455-16.7 92.712-36.98-81.043 26.984"/><path fill="#080a0e" d="M.314 525.903l36.682-7.967-14.182 88.17 19.938-77.3"/><path fill="#2f2f5d" d="M744.772 334.082l-153.013 6.346 144.5 10.22 7.498-26.846"/><path fill="#b4321b" d="M374.053 222.164l-43.593-17.408 11.902 7.22-2.093 10.657"/><path fill="#8692c6" d="M225.753 105.762L277.78 158l-56.643 25.224L29.3 46.96"/><path fill="#80525d" d="M688.964 374.793l-93.344 22.99-6.264 6.47 13.52-4.912"/><path fill="#6982b9" d="M358.77 281.158l-5.766-43.398 23.267-3.797-.708 45.264"/><path fill="#cf3900" d="M335.294 561.817l22.077-43.753-25.7 6.19 25.295 15.692"/><path fill="#393362" d="M826.674 317.843l55.88 36.577-36.798-2.728 59.168-25.147"/><path fill="#28579f" d="M-31 366.864l85.738-9.46 32.518 2.254-13.687 6.836"/><path fill="#612123" d="M344.186 184.88l-7.462-38.05 3.196 56.843 12.36 7.696"/><path fill="#7a749e" d="M618.247 326.64l-28.368-4.316-50.143 3.488 15.44 2.305"/><path fill="#8c2f3c" d="M819.445 292.9l1.098 26.095-18.32-6.53 13.816-1.224"/><path fill="#c18051" d="M266.002 479.442l6.36 5.81 1.298-5.976 105.263-7.43"/><path fill="#95707a" d="M485.05 346.718l-39.838 1.44 41.04-9.06 15.007 8.083"/><path fill="#f15904" d="M368.732 377.994l-25.548-10.242 3.65 33.042 32.575-1.37"/><path fill="#7b8cc1" d="M301.058 167.343l28.26 33.366-52.285-.174-39.585-3.23"/><path fill="#c1827b" d="M313.147 305.936l-.085 146.004 4.892 23.51-2.146 3.388"/><path fill="#c48b65" d="M648.458 383.763l1.44-5.727 3.73-2.714-2.196 16.753"/><path fill="#6b84bd" d="M425.486 268.4l-26.49-51.457 1.317 87.047 17.21-98.11"/><path fill="#061543" d="M982.974 350.096l37.26-10.517L1055 361.92l-67.534-7.27"/><path fill="#e84d00" d="M384.124 540.253l-27.743 42.782-15.194 12.92 25.41-33.192"/><path fill="#a56d74" d="M444.65 413.556l-1.732 23.614-29.8-3.408 36.803 8.377"/><path fill="#5c7cb3" d="M12.966 346.707l123.354 1.8L6.426 356.67-31 339.667"/><path fill="#393b7c" d="M944.813 318.583l29.28 10.29-103.006-8.165 32.834 3.56"/><path fill="#301d26" d="M702.625 381.736l58.552-7.233-13.137 1.313-20.98 8.04"/><path fill="#2c2742" d="M19.88 267.582l63.895-23.506-46.57 21.268-2.472-4.342"/><path fill="#9193c5" d="M573.076 59.25L535.62-12.195 746.758-31l-67.75 44.876"/><path fill="#9d2e00" d="M381.79 628.01l24.84-24.617-18.43 9.93.583 7.36"/><path fill="#6c5e84" d="M944.17 331.892l-40.99 3.346 51.945 2.955-134.173-70.537"/><path fill="#ad6864" d="M415.896 148.4l6.99 7.48-36.192-33.41 56.394 58.186"/><path fill="#6d3043" d="M801.228 406.02l7.2-80.812-5.482-55.933 3.422 102.52"/><path fill="#a6b4d4" d="M49.418 340.88l45.026-18.904-46.53-10.128.306 2.724"/><path fill="#071f48" d="M940.696 540.687l50.654 49.545-130.654-9.574 29.277-40.015"/><path fill="#4e5d94" d="M557.482 369.835L506.16 411.88l101.966-49.923-6.282 40.146"/><path fill="#e4b76f" d="M486.175 436.294l-45.284 13.04-13.143 2.596 67.04-20.16"/><path fill="#aa9790" d="M761.85 316.743l26.408 3.513 14.297-1.75-43.834 5.275"/><path fill="#201720" d="M609.362 409.685l33.057-.88-148.68 55.64-29.924 9.99"/><path fill="#bf3400" d="M334.578 430.914l3.375 40.85 1.36-123.482-5.422 93.074"/><path fill="#eb5202" d="M337.42 547.264l24.05-10.86 17.675 10.734-19.25-4.156"/><path fill="#e6c999" d="M667.153 385.255l-11.703 3.664 130.23-33.204-75.867 17.02"/><path fill="#928ea9" d="M236.724 335.71l-35.5 11.856 29.682-37.395-42.18 14.068"/><path fill="#cf672f" d="M530.995 422.595l1.664-5.223-42.48 12.274-53.487 15.29"/><path fill="#b7592a" d="M209.658 516.07l-6.602 22.895-16.483-3.508 16.956 8.064"/><path fill="#fd5804" d="M361.835 573.873l-8.006 8.22 23.803-30.027-19.068 16.49"/><path fill="#fe7012" d="M328.954 279.28l.58 21.934 1.188 179.154.695-201.794"/><path fill="#1d295a" d="M907.093 321.46l-50.814 12.666 118.3 41.47-30.19-10.15"/><path fill="#3b3153" d="M373.732 548.805l-22.79-6.33 2.65 3.154 6.66 2.356"/><path fill="#212953" d="M667.735 503.36l37.89-32.116 86.836-61.46 20.452 2.185"/><path fill="#3a4d85" d="M93.12 323.01l-3.375-109.67.316 33 4.16 14.142"/><path fill="#f16000" d="M381.938 356.74l-2.163 13.48-3.16-24.975 2.59-27.33"/><path fill="#261c33" d="M128.13 242.886l-15.785 5.306-7.25 1.914 69.533-29.155"/><path fill="#50160d" d="M352.04 580.955l-5.326-7.934 1.657-16.276 11.327 8.1"/><path fill="#2d3153" d="M444.193 581.858l-36.794 1.69-1.218 27.99 22.868 19.515"/><path fill="#10121b" d="M23.145 667.348L.338 576.898-31 605.894v37.225"/><path fill="#ff6c01" d="M365.112 512.953l15.143 34.785.313-6.347-18.178-25.88"/><path fill="#924215" d="M606.694 694.25l-50.792-24.502.407-7.09 19.844 7.867"/><path fill="#344c90" d="M142.977 351.014l23.306-12.025-24.8-2.93-11.778-.5"/><path fill="#7b6d85" d="M771.92 387.74l-28.728-13.45 2.862 13.886 10.568 1.577"/><path fill="#352843" d="M109.78 233.837l15.843-3.798-70.696 24.734 80.274-31.992"/><path fill="#531a09" d="M377.874 513.423l11.938-28.307 21.403-6.356-3.278 5.152"/><path fill="#0a080b" d="M265.088 630.268L374.698 713l-91.282-148.422 2.97 10.14"/><path fill="#fed41e" d="M405.896 475.6l-.445-14.88 7.837 6.605-8.267 8.29"/><path fill="#623a56" d="M93.123 477.37l.006 42.595-2.112 9.794 5.59-15.874"/><path fill="#224c90" d="M96.477 420.998l30.666 21.406-23.976 94.235-7.172-15.976"/><path fill="#363048" d="M369.366 591.63l.19-3.37-5.404-12.006-13.423 14.103"/><path fill="#b67a4a" d="M741.49 378.582l6.107-32.034-2.665 26.355 13.616-13.08"/><path fill="#453a65" d="M181.718 518.043l4.453-5.36-2.225-49.785-.284-44.903"/><path fill="#433866" d="M855.982 325.44l-29.15 10.462-11.083-15.386-148.888 15.08"/><path fill="#7a4a66" d="M528.075 417.12l127.01-34.588-135.515 39.145 29.713-16.63"/><path fill="#d39b65" d="M633.43 393.803l4.37-14.227-7.448 3.717 4.01 15.26"/><path fill="#333054" d="M711.583 357.783l5.664 13.613-73.456-39.424 17.137 10.942"/><path fill="#642921" d="M335.82 223.182l24.26 4.914 15.96-6.952-35.657 7.882"/><path fill="#5e91ca" d="M-10.595 292.905l-7.867-9.495 41.925-10.275-9.328 7.102"/><path fill="#031732" d="M978.85 610.698L836.64 641.35 1055 691.637l-31.428-59.95"/><path fill="#2a417b" d="M228.065 503.228l6.38-161.398.948 80.783 4.706 69.02"/><path fill="#79739c" d="M640.402 329.282l-38.157-19.084 14.536 6.178 27.858 5.415"/><path fill="#311513" d="M316.84 506.65l-35.653 17.832-5.9-6.393 35.838-13.38"/><path fill="#7579a1" d="M28.605 335.39l33.29 6.844 9.03-8.467 27.97 10.308"/><path fill="#7e1d0b" d="M339.363 352.01l-6.35 64.702 1.805-68.007 1.13-80.912"/><path fill="#977fa3" d="M974.687 312.686l52.767-1.55-109.743 9.137 34.253-15.254"/><path fill="#7274a0" d="M364.975 331.258l-9.102.06 19.17-9.535-.588 25.825"/><path fill="#ef832a" d="M579.026 415.248l79.212-23.03 65.094-18.586-93.934 23.56"/><path fill="#f5983b" d="M151.512 545.85l97.29-26.18 1.958-2.756-14.237.255"/><path fill="#573b59" d="M784.925 347.77l-28.692-16.215 62.8-2.675-39.94 6.952"/><path fill="#2e599f" d="M102.208 398.496l-2.837 30.982 39.124 25.932.734-50.28"/><path fill="#5277ad" d="M74.59 396.857l-5.405 9.335-24.065.15-76.12 1.8"/><path fill="#51497a" d="M502.547 330.002L483.022 342.8l30.606 12.62-28.79-2.743"/><path fill="#100d12" d="M290 621.59l156.693 56.765-.67-13.142-63.368-39.266"/><path fill="#0d162b" d="M45.386 526.29L-31 552.99l39.03 59.12L-31 532.304"/><path fill="#f89a28" d="M373.472 227.882l-13.04-.32-12.64 2.602.59 2.178"/><path fill="#7483bf" d="M648.966 183.003l-46.723 114.06 149.14-91.657 96.384-40.263"/><path fill="#b8a9cd" d="M285.396 101.092L259.586-31h448.062L302.042 28.97"/><path fill="#849dcf" d="M98.898 291.474l41.32 5.337-34.006 18.128-3.786-.374"/><path fill="#e58733" d="M438.17 460.913l-20.688-8.504 54.487-12.926-37.373 4.932"/><path fill="#527ebb" d="M18.857 291.317l21.983-4.988 48.766-2.707-1.507-24.465"/><path fill="#747cb7" d="M691.79 251.756l310.2.582-84.002-11.49-132.044-34.812"/><path fill="#1e2852" d="M33.33 500.864L30.52 537.17l.95-130.574.902 53.583"/><path fill="#6b88c2" d="M192.31 216.753l33.008-14.28 61.07-24.737-88.44 71.14"/><path fill="#29346c" d="M578.293 349.564l90.88-20.998-58.27-4.096 2.676 6.508"/><path fill="#402c33" d="M565.45 629.583l12.957-47.645-69.28 51.008 12.735 6.78"/><path fill="#9ea1c1" d="M268.044 313.037L112.56 329.43l13.916 3.255 22.198-16.268"/><path fill="#3e3d4f" d="M267.927 529.894l27.834-7.85-45.2 15.112 8.535-8.878"/><path fill="#c45609" d="M369.138 492.918l-38.068-60.162 48.058 78.607.67-10.51"/><path fill="#bf9f8f" d="M966.177 325.746l20.313-6.245 1.334 4.563-19.78-5.12"/><path fill="#d65732" d="M820.183 317.59l-2.733-8.88-.353 40.603 3.426 10.2"/><path fill="#b4a9a9" d="M20.417 343.64l-1.777 7.154 33.13-9.217 8.46 2.797"/><path fill="#24202d" d="M180.096 597.184l5.192-7.424-9.087-42.573 18.965 49.363"/><path fill="#1f1820" d="M252.305 615.928l9.734 4.163-61.643-80.11 9.336 26.435"/><path fill="#2d4891" d="M122.713 343.82l67.16-.915-30.74-3.05-25.93-1.22"/><path fill="#ae6458" d="M360.972 288.19l2.062 58.637-2.112 25.71.238-1.542"/><path fill="#6b4a76" d="M566.636 404.89l6.44-.358-40.053 12.7-54.248 13.205"/><path fill="#3e160f" d="M246.392 524.637l-18.626 25.8-15.43-4.83 60.386-25.296"/><path fill="#7e4129" d="M591.125 608.203l36.98 12.698-65.13 32.01 11.1-49.7"/><path fill="#933830" d="M255.906 501.55l21.193-10.466-31.51 4.987 5.994.635"/><path fill="#ecbc85" d="M589.543 405.638l20.024-8.127 36.892-5.884-69.01 18.673"/><path fill="#312632" d="M673 619.482l-4.06 29.71 26.51 9.323 11.05-24.15"/><path fill="#2e3671" d="M768.846 331.015l-93.028 12.363-45.8-9.816 31.03-14.685"/><path fill="#4b446b" d="M307.614 514.447l1.415 37.022 19.882-17.91-17.896-9.662"/><path fill="#5c7ab4" d="M302.14 352.71l-59.356 4.883-50.517-7.747-126.9-.56"/><path fill="#2a1c20" d="M303.66 576.698l-13.227 13.862 26.907 16.985 30.385 27.716"/><path fill="#766a98" d="M789.87 313.163l-108.337.818 8.624 1.11 32.05 11.332"/><path fill="#5f6ba1" d="M157.42 325.717l8.907 3.19 48.807-.692-53.086 13.742"/><path fill="#c4bcb1" d="M419.808 339.59l15.403 14.24 6.516 3.557-2.147-15.762"/><path fill="#24111d" d="M712.364 380.706l-46.127 20.226 64.302-19.205 11.264-7.862"/><path fill="#9e8caf" d="M656.353 321.456l2.112-10.394 42.778-4.052 9.23 5.354"/><path fill="#bc8f7a" d="M538.17 345.376l11.246 2.936-55.06-.77 18.89 5.376"/><path fill="#6f719f" d="M442.503 369.576l19.57 2.915-58.256 60.31-1.95-83.82"/><path fill="#5f597e" d="M305.996 346.295l-26.42-.487 10.236 3.568-12.787 6.81"/><path fill="#942509" d="M352.117 366.328l1.055-57.52-7.907 22.685.66 12.906"/><path fill="#2f3b6c" d="M321.236 570.214l-74.47-18.13 7.904 8.852 37.688-20.94"/><path fill="#fe5401" d="M354.956 609.013l19.2 8.54 5.266-24.417 1.148 32.843"/><path fill="#fc8301" d="M379.726 482.33l.42-83-4.737-30.538.84 113.112"/><path fill="#a44022" d="M407.15 628.963l4.564-8.4-2.13-7.33-8.107 17.795"/><path fill="#8685b9" d="M922.786 260.26l-166.45-4.285 53.515 13.65 23.028 22.352"/><path fill="#11121b" d="M97.072 670.74l-23.83-12.266-9.516-22.968-21.63-50.014"/><path fill="#bf5d15" d="M410.295 479.438l.297 17.947 19.666-19.768-14.814 10.493"/><path fill="#ba4f42" d="M344.478 138.04l38.652 31.447-.115 3.785-18.756-19.268"/><path fill="#5b372f" d="M445.8 471.956l69.346-24.43-81.603 24.296-22.75-3.408"/><path fill="#322642" d="M844.19 383.532l-67.115-14.552-28.885.774.8 1.305"/><path fill="#ce9259" d="M268.577 497.75L129.43 541.8l-21.037-1.608 57.316-6.27"/><path fill="#606190" d="M230.09 345.278l-22.352-10.838 19.178 6.743 43.254-.065"/><path fill="#5c73b6" d="M945.058 138.582l32.032-91.488L1055-30.52 926.23 20.854"/><path fill="#4d619a" d="M647.34 369.583L493.9 359.52l-23.974 57.425 76.356-34.13"/><path fill="#110e15" d="M297.78 689.774L52.322 517.68l12.536-1.617 58.702 30.08"/><path fill="#183164" d="M699.443 480.17l-267.038 83.376 30.34-19.645 146.588-67.96"/><path fill="#672427" d="M339.225 154.498l28.313-1.18-30.983 6.044 5.76 42.612"/><path fill="#f0b048" d="M326.003 496.623l39.183-22.402 7.73-2.888 2.27-6.235"/><path fill="#36447b" d="M267.354 433.56l11.352 53.763 6.737-5.626-14.28-66.07"/><path fill="#593b53" d="M767.127 357.32l-40.027-6.096 79.8-23.14-70.147 13.723"/><path fill="#a24844" d="M333.636 132.76l-10.27 6.124 59.366-3.406-39.363 11.605"/><path fill="#c53923" d="M335.058 258.684l1.637-14.85-4.765-39.96-.648 49.25"/><path fill="#9c3536" d="M377.973 245.202l8.922-83.162-1.74 19.067-4.918-43.845"/><path fill="#46181e" d="M352.062 280.663l-4.245-26.56-5.16 8.102 1.05 19.84"/><path fill="#f36a02" d="M346.337 464.642l-3.48-51.928 12.705-17.186-2.62 23.017"/></g></svg>