<svg version="1.1" viewBox="0 0 1024 682" width="1024" height="682" xmlns="http://www.w3.org/2000/svg">
  <path fill="#31849e" d="M0 0h1024v682H0z" />
  <g fill-opacity=".5">
    <path fill="#6a2200" d="M1034 684L-31 620l469-271 617-84" />
    <path fill="#00cfff" d="M-31-2l1073-3 13 252L-21 443" />
    <path fill="#ffffd7" d="M117 208L92 560l318-204-187 25" />
    <path fill="#8b881e" d="M-25 464l602 155 478 44L7 713" />
    <path fill="#133000" d="M173 630l874-328-16 336-278-4" />
    <path fill="#ff863e" d="M627 403l428-93-458-4-169 52" />
    <path fill="#d4afb1" d="M1055 663l-37-27-808 6 409 59" />
    <path fill="#009fff" d="M710 330l339-90-24-271L-31 28" />
    <path fill="#ffe099" d="M158 249l30 270-91-8 8-242" />
    <path fill="#223000" d="M-15 606l193-1 112-66-291-55" />
    <path fill="#9ff" d="M23 479l-54-128 117-24-11 184" />
    <path fill="#00adff" d="M1055 81L-31-31l200 320 30 175" />
    <path fill="#280000" d="M73 517l16-189 22-78-14 242" />
    <path d="M902 557l148-36 5-136-168 34" />
    <path fill="#dc7b47" d="M1003 326l-437 87 355-141 134-6" />
    <path fill="#e45b22" d="M619 299l66 23-393 101 87-42" />
    <path fill="#58b600" d="M492 565l351-2-847 61 575 17" />
    <path fill="#009fff" d="M6 409l122-172L571-1-21-4" />
    <path d="M712 360l-111 3-235 42 219-58" />
    <path fill="#73f1ff" d="M280 428l253-114-348 40-17 149" />
    <path fill="#c8744a" d="M116 319l-20-20 40-83 43 110" />
    <path fill="#344540" d="M535 377l397 94-613 112-37-166" />
    <path fill="#ffff8a" d="M586 361l13 46 63-41-43-7" />
    <path fill="#ffffd8" d="M101 407v104l75-17-2-164" />
    <path d="M855 355l-325 68 263-32 168-52" />
    <path fill="#00a2ff" d="M-31 117L1055-31 813 304l-110 23" />
    <path fill="#695500" d="M237 498l89-67-140 55 49 159" />
    <path fill="#151b6a" d="M-31 679l289-21-219-20-70-7" />
    <path fill="#aab700" d="M829 556l224 12-360 8 65-17" />
    <path fill="#b0a62e" d="M549 565l-203 16-159 8 624-16" />
    <path fill="#dad47f" d="M292 535l45 47-13-42-66 86" />
    <path fill="#9bde15" d="M717 609l-149-7-87 4 92 10" />
    <path fill="#000b0d" d="M254 523l155 53 25-42-13-24" />
    <path fill="#000002" d="M761 543l190 6 104-76-286 21" />
    <path fill="#445650" d="M812 550l-17-62-623 15 784-152" />
    <path fill="#1f0700" d="M728 634l281 7-21-70-247 5" />
    <path fill="#c5a7aa" d="M175 652l-206-27 189 6 350 46" />
    <path d="M457 383l177-42-315 88-65 4" />
    <path fill="#5b5e00" d="M18 500L7 433l-38 151 321-56" />
    <path fill="#000a00" d="M162 603l-51 2-28-82 95 49" />
    <path fill="#000039" d="M206 657l256 19 357 37-205-9" />
    <path fill="#ac1100" d="M157 268l-26-32-29 38 58-2" />
    <path fill="#77e3ff" d="M17 336l-48 65 88 105 27-74" />
    <path d="M555 567l-86-73-29 54 120-55" />
    <path fill="#06c2ff" d="M661 309l50 19 344-89-934 3" />
    <path fill="#ff7f56" d="M218 472l67-29 3 19-76 23" />
    <path fill="#192522" d="M380 445l-202 46 101 84 9-152" />
    <path fill="#001e15" d="M591 391l-2-16-1-28-95 23" />
    <path d="M644 595l16-104 77 80-6-92" />
    <path fill="#406195" d="M-30 582l137-9-9 32-69 2" />
    <path fill="#00b2ff" d="M-31 330l4-354 157 224-57 162" />
    <path fill="#a6ccf6" d="M517 546l-13-8-68 5 17 5" />
    <path fill="#00c1ff" d="M188 363l387-46-392-167-8 307" />
    <path fill="#579d00" d="M-31 616l266 21 8-141-86 107" />
    <path fill="#714321" d="M874 591l50 4 119 32-315-15" />
    <path fill="#00a0ff" d="M1055 259l-16-290H-6l167 302" />
    <path fill="#79dfff" d="M187 374l103 66-108 51-6-148" />
    <path fill="#897e00" d="M980 344l75-10-17 96-93-134" />
    <path fill="#ffe092" d="M691 549l-6 34-8-28-4-3" />
    <path fill="#231525" d="M288 603l245 1 28-22-264 4" />
    <path fill="#dbf2f4" d="M275 517l4-26 30 22-23-7" />
    <path fill="#26ab00" d="M654 636l-67-25-333 7 121 12" />
    <path d="M135 305l7 16 6-25-21 14" />
    <path fill="#b6582e" d="M653 347l391-57-88-23-90 22" />
    <path fill="#757100" d="M137 501l113 47-77 29-87-58" />
    <path fill="#707c70" d="M374 590l8-184 14 150-87 2" />
    <path fill="#1f1f1c" d="M83 384l1-32 21-90-9 331" />
    <path fill="#000a00" d="M938 636l-205-4-171-13 194-11" />
    <path fill="#ffffe8" d="M117 282l54 29-8-31-31-8" />
    <path fill="#778c00" d="M628 567l427-5-44 77-28-84" />
    <path fill="#ffd143" d="M239 603h42l-29-21-20 13" />
    <path fill="#505b55" d="M545 479l37 92 70-13-3-99" />
    <path fill="#031019" d="M285 575l-178 17 1-43-57 26" />
    <path fill="#089f00" d="M113 629l174 1 97-1-134-25" />
    <path fill="#001" d="M495 549l-118 7 139 14 28-29" />
    <path fill="#030000" d="M939 353l116-34-135 23-412 87" />
    <path fill="#9e7594" d="M-23 684l437-2-161-19-61-1" />
    <path fill="#ac9881" d="M424 637l-19 34-197-33 99-8" />
    <path fill="#c7c6a6" d="M440 399l-22 6 14 27-1 23" />
    <path fill="#fff4c9" d="M164 482l-6-176-55 36 5 159" />
    <path fill="#000e00" d="M990 573l-75-2-263 11 353 13" />
    <path d="M109 298l11 17 3-36-8 21" />
    <path fill="#fff09b" d="M785 541v34l-7 1-1-32" />
    <path fill="#a4a59d" d="M477 687l463-1-345-55 331 8" />
    <path fill="#424862" d="M436 513l7 119 13 6-30 14" />
    <path fill="#00a1ff" d="M-21-31l7 337 141-57 40-280" />
    <path fill="#a83f1c" d="M765 345l-153-20-137 19 140-43" />
    <path fill="#646f5d" d="M858 471l24-64 3 127 22 64" />
    <path fill="#5bcbff" d="M701 304l-123-6 145 27 181-47" />
    <path fill="#000c00" d="M934 399l-47 68 26 88 142-33" />
    <path fill="#00a0ff" d="M750 183l295 94-15-308L-31 12" />
    <path fill="#aaf2ff" d="M171 526l-8-15 12-32 14 24" />
    <path fill="#051936" d="M879 677l151 2-19-4-164-8" />
    <path d="M837 471l42 34-45 72-4-68" />
    <path fill="#2a3f00" d="M994 325l-63 75 36 29 74 48" />
    <path fill="#5c3638" d="M935 269l103 17-57-34-2 43" />
    <path fill="#80eaff" d="M44 500l32-137 3 135-27 2" />
    <path fill="#596559" d="M870 440l-205 42 37 80v-58" />
    <path fill="#3f5500" d="M-31 597l242-91-92 70-91-101" />
    <path fill="#a8a181" d="M880 641l157-9 11 45-245-26" />
    <path fill="#aab71e" d="M255 577l-35-57-32-10 49 57" />
    <path fill="#000900" d="M1006 640l-23-59-6-32-11 77" />
    <path fill="#fbeeb2" d="M139 350l-6-59-19 52-17-64" />
    <path fill="#566759" d="M369 466l-26 98-18-54 172-12" />
    <path fill="#c7c05d" d="M471 552l-5 22 9 9 12 2" />
    <path fill="#5fd9ff" d="M216 330l141 30 89-5-226 96" />
    <path fill="#c28c71" d="M734 380l246-52 75-13v-27" />
    <path fill="#fff386" d="M592 399l63-30-29-6-32-3" />
    <path fill="#92ae1a" d="M402 604l154 4-223 8-52-17" />
    <path fill="#ffecad" d="M330 563l-38-20-9 40 5-22" />
    <path fill="#cd7b47" d="M395 398l173-48-148 16-115 53" />
    <path fill="#e4d769" d="M414 576l5-18 7 18-12 12" />
    <path fill="#5f6954" d="M464 488l46 52 11-76-146 26" />
    <path fill="#8fb725" d="M704 603l-257 6 257 3 11-7" />
    <path fill="#5bcbff" d="M521 313l129-22-175 53-163 59" />
    <path fill="#a46e34" d="M955 646l10 7 5-68-26 28" />
    <path fill="#00000c" d="M971 285l-1 4 85 64-37-33" />
    <path fill="#d6e9ff" d="M256 572l-15 3 1 1-3-16" />
    <path fill="#ffda8f" d="M528 562l1-8 9 12-2 22" />
    <path fill="#4d5b53" d="M719 433l114 97-27-144-56 171" />
    <path fill="#76846d" d="M88 345l55 20-5 22 12-35" />
    <path fill="#07060e" d="M180 487l129-10-38-10-74 41" />
    <path fill="#020000" d="M510 510l60 55-6-34-25-48" />
    <path fill="#c1a193" d="M1055 684l-108-6-153 4-103 17" />
    <path fill="#00c4ff" d="M166 249l11 99 226-17 286-44" />
    <path fill="#00c9ff" d="M119 236L76 339l-83 5-15-86" />
    <path d="M431 543l-5-28-21-11-15 78" />
    <path fill="#c78556" d="M684 309l86 64-188 30 130-61" />
    <path fill="#a68210" d="M110 519l115 3-126-14-57 52" />
    <path fill="#fde299" d="M161 275l7 12-7 252 16-204" />
    <path d="M384 557l-13-45-21-1-3 44" />
    <path fill="#2f686c" d="M541 425l-221 44 230-18 35-43" />
    <path fill="#ffdda7" d="M1010 631l42 26-24-8-22-35" />
    <path fill="#d6bc63" d="M902 549l-13 1 5 20 4 2" />
    <path fill="#364332" d="M584 508l5-130-221 60 410-41" />
    <path fill="#000115" d="M435 627v-29l-12 47h20" />
    <path fill="#00000b" d="M737 511l-24-22-14 71 52-9" />
    <path fill="#ffe963" d="M601 552l6 2-4 23-4-16" />
    <path fill="#766f00" d="M-31 471l64 109-1-17L8 455" />
    <path fill="#6dd6ff" d="M82 317l-3 165H20L8 428" />
    <path fill="#6e817e" d="M434 582l-1-77 19-6-13 62" />
    <path fill="#001106" d="M133 600l34 7-28-79-23 76" />
    <path fill="#e99b4b" d="M857 603l-21 4 50 2-8-4" />
    <path fill="#000201" d="M499 534l-26-40-21 13-4 33" />
    <path fill="#708400" d="M978 387l-68 12 60-1 10 53" />
    <path fill="#7ddeff" d="M173 491l114-47-41-53-68 52" />
    <path fill="#293237" d="M262 587l12-17 21-55-72-16" />
    <path fill="#79b311" d="M-5 609l-6 16 354-18-193-2" />
    <path fill="#000c17" d="M671 635l165-59-130 26 68 30" />
    <path fill="#0d0b00" d="M623 363l-53-11 72 1 52 8" />
    <path fill="#d54525" d="M111 262l-2-6 40-3 18 26" />
    <path fill="#a69981" d="M377 576l-128 11 105-5 22-22" />
    <path fill="#002a40" d="M31 604l-62 11 70-43 27-24" />
    <path fill="#aa9e89" d="M268 659l-299-31 286 6 169 2" />
    <path fill="#a27c5d" d="M488 655l38 22 239-21H607" />
    <path fill="#ffe38a" d="M1018 355l37-30v23l-37-9" />
    <path fill="#ebdfae" d="M107 276l19-3-24 42-2 2" />
    <path fill="#00b0ff" d="M146 170l-6 78 93 65 822-64" />
    <path fill="#6d9105" d="M653 639l-168 2 143-18 33 2" />
    <path fill="#fffad9" d="M124 504l19-74-36-72-9 152" />
    <path fill="#c5b16b" d="M280 583l25 1-19-42 18-48" />
    <path d="M144 321l1-21-7-7-2 27" />
    <path fill="#0b122b" d="M300 567l7 18 12 11 8-32" />
    <path fill="#223f47" d="M913 380l16 37-286 57 134-71" />
    <path fill="#53615a" d="M721 596l-75 89 87-103 63 39" />
    <path d="M768 540l44 6-24-65-27 20" />
    <path fill="#fffcd4" d="M122 284l3 38 8 78 4-109" />
    <path fill="#556954" d="M828 558l-7-80-22 20 25 81" />
    <path fill="#eaffff" d="M277 511l28-2-13-10-1-4" />
    <path fill="#38ceff" d="M85 334l-10 38-48 24-58-60" />
    <path fill="#0a0013" d="M226 581l11-6 3 7-13 24" />
    <path fill="#000002" d="M329 519l8 33-34-7 13-28" />
    <path fill="#d5653b" d="M255 474l39-25-26 2-96 42" />
    <path fill="#253b09" d="M29 463l25 70-4 58-24-121" />
    <path d="M1001 325l52-6-19 14-155 22" />
    <path fill="#3fd0ff" d="M178 338l5 100 10-40 231-37" />
    <path fill="#483800" d="M281 607l13-19-8-29 7-19" />
    <path fill="#030000" d="M367 407l-84 31 11 11-14-22" />
    <path fill="#00154b" d="M236 655l-29-3-64 2 186 17" />
    <path fill="#9d9c00" d="M1020 384l-38-26-11 5 84 5" />
    <path fill="#77827f" d="M98 610l9-10-46-22 49-3" />
    <path fill="#525a4a" d="M855 442l20-80 18 109-153 25" />
    <path fill="#b95d2b" d="M786 340l-186 11 26-48-23 2" />
    <path fill="#33453a" d="M313 420l-64 117 40-46 109 4" />
    <path d="M656 502l15-1 4 64-26-6" />
    <path fill="#000002" d="M276 530l-28 37-4-27 36 29" />
    <path fill="#ad653d" d="M995 312l-47-41-306 75 253-18" />
    <path fill="#000e00" d="M109 535l-7 40-20-11 3-36" />
    <path fill="#001000" d="M999 378l56 251-36-97-45-169" />
    <path fill="#58634c" d="M573 553l-18-180 21 20 9 109" />
    <path fill="#3995c6" d="M331 560l-34-13 49 2-19-3" />
    <path fill="#596d63" d="M334 414l-1 145 31-66-17 6" />
    <path fill="#0b0600" d="M596 427l-9-17 157-30-133 41" />
    <path fill="#516358" d="M707 507l-8 71-17-56-2-129" />
    <path fill="#f9e6ae" d="M154 347l-14-118-9-10 39 137" />
  </g>
</svg>