<svg version="1.1" viewBox="0 0 1024 682" width="1024" height="682" xmlns="http://www.w3.org/2000/svg">
  <g fill-opacity=".5">
    <path fill="#49300f" d="M535 524l2 7 9-10-9-11" />
    <path fill="#00b9ff" d="M511 303l-130-55 526 24-61 15" />
    <path fill="#172824" d="M417 433l-4 34 6 14-11-82" />
    <path fill="#59614f" d="M473 416l-85 21 94-19 48-13" />
    <path fill="#94ae00" d="M1020 456l35-21-16 3 16 63" />
    <path fill="#3c4f00" d="M46 560l-8 1-9-55 61 9" />
    <path fill="#131103" d="M226 600l8 5 1-21-6 1" />
    <path fill="#050905" d="M531 491l16 78-32-34 2-23" />
    <path fill="#c36c39" d="M276 427l318-95-4-12-58 16" />
    <path fill="#617461" d="M337 434v-3l-4 79 10-67" />
    <path fill="#5087a0" d="M367 483l1-23 20 21-7-26" />
    <path fill="#030808" d="M436 582l-36-58 5-15 16-1" />
    <path fill="#8d9207" d="M188 559l-2-5-1-11 15 7" />
    <path fill="#181a00" d="M1043 383l4 2 8-6-64-38" />
    <path fill="#94a045" d="M334 581l33-2 42 1-18 4" />
    <path fill="#050807" d="M115 300l10 21-8-5 4-23" />
    <path fill="#0f1109" d="M326 421l-39 15-1 40 6-51" />
    <path fill="#73e3ff" d="M285 441v-5l-66-31 38 49" />
    <path fill="#021225" d="M12 594l14 1 13 7 2-13" />
    <path fill="#9f9d8d" d="M515 646l-202 17 143 12-10-39" />
    <path fill="#f8e5a3" d="M166 331l-2-43 11 39-19 42" />
    <path fill="#010a02" d="M990 539l65-67-70-5-104 24" />
    <path fill="#949a77" d="M561 580l-91-1h-2l33 2" />
    <path fill="#1c221f" d="M178 492l67 28-59-12 29-26" />
    <path fill="#898a00" d="M985 349l70 59-51-54v16" />
    <path fill="#4b5c5b" d="M878 546l-11-3-10 3 13 4" />
    <path fill="#48433b" d="M579 357l7-11-27 35 60-92" />
    <path fill="#163200" d="M49 561l11-37-22 11 39 37" />
    <path fill="#1e0e08" d="M948 611l-11-15-6 42 18-10" />
    <path fill="#1a506e" d="M778 406l2 27-2 24-6-48" />
    <path fill="#a08742" d="M699 594l-8 4 5-21 1 17" />
    <path fill="#061f05" d="M128 569l81 15-38 1-36-37" />
    <path fill="#d0c078" d="M479 559l-9 28 6-23-13 1" />
    <path fill="#668100" d="M840 558l18-1-35 10-62-2" />
    <path fill="#231f00" d="M438 399l94-29-163 38 70-12" />
    <path fill="#1b211a" d="M532 457l8-53-7-18 6 74" />
    <path fill="#57a202" d="M164 608l107-5 3-2 112 20" />
    <path fill="#00121e" d="M396 579l19-21-26-4-15 23" />
    <path fill="#956430" d="M918 674l1-70 4-16-2 22" />
    <path fill="#054165" d="M792 442l-3-47 8 37 2 18" />
    <path fill="#a67a51" d="M840 616l23-11-5 108 5-116" />
    <path fill="#261f00" d="M295 588l-9-12-1 16h46" />
    <path fill="#516355" d="M750 456l1-37-16-21-2 53" />
    <path fill="#545f4f" d="M778 418l4-17 3 27-3 51" />
    <path fill="#003905" d="M569 619l151 5-13-11h-63" />
    <path fill="#2e3628" d="M108 291l12 21 2-27-9 13" />
    <path fill="#19201c" d="M549 394l8-16-8 71 6 8" />
    <path fill="#556200" d="M147 575l-164-81 13-57 24 67" />
    <path fill="#b2532b" d="M352 402l69-35 48-21 150-41" />
    <path fill="#98896f" d="M418 645l18 3-52-16-143 13" />
    <path fill="#1f312f" d="M290 507l-22 66 19-66-20-29" />
    <path fill="#c48355" d="M611 405l93-61-14 33-20 11" />
    <path fill="#9f6f3b" d="M776 620l-1 3v-20l-7 10" />
    <path fill="#fcf6d0" d="M102 471l22-95-13-17-5-36" />
    <path fill="#44554a" d="M261 560l5-78-84 19 72-13" />
    <path fill="#020a10" d="M768 633l-87 1 58-23h30" />
    <path fill="#687405" d="M25 537l-56-3 49 7 56 13" />
    <path fill="#001000" d="M971 638l26-48-94 4 92-26" />
    <path fill="#5e6500" d="M988 406l2 32-14-3-1-4" />
    <path fill="#d0b177" d="M104 321l22-7 1 23v-5" />
    <path fill="#75b2c2" d="M39 459L9 485l46-17-46 23" />
    <path fill="#0a2539" d="M432 590l-3-125 1-36 3 106" />
    <path fill="#030600" d="M594 348l20 13-6-9-334 79" />
    <path fill="#091c20" d="M955 550l-54 8 37-21 34 11" />
    <path fill="#0a0e0e" d="M758 562l13-5-15-21 42-39" />
    <path fill="#030907" d="M1033 547l-46-33 68 53-42-3" />
    <path fill="#051527" d="M944 678h91l-97-7h-29" />
    <path fill="#0e0801" d="M882 636l94 1-74-5-55-17" />
    <path fill="#8f9e9e" d="M432 437v18l5 101-4-152" />
    <path fill="#122322" d="M333 456l-3 47-1-63 3-10" />
    <path fill="#f6de85" d="M301 581l-7 6-3-53 4 12" />
    <path fill="#8f996d" d="M689 577l-100-2 28 4 67-6" />
    <path fill="#090602" d="M288 430l115-33-127 32 39 7" />
    <path fill="#768700" d="M524 576l76-12v15l-114-7" />
    <path fill="#788e00" d="M971 385l-25 16 2-12 37 5" />
    <path fill="#9d9f95" d="M935 651l-231-9 120-6 103 4" />
    <path fill="#e6d09b" d="M111 287l4 30-13-32 27-14" />
    <path fill="#586b61" d="M389 484l-6 72 13-37 20-36" />
    <path fill="#59604c" d="M527 387l-62 19 6 75-15-91" />
    <path fill="#f5d265" d="M278 604l10-35-13 12 4 24" />
    <path fill="#15c7ff" d="M630 295l-16-2-196 29 80 2" />
    <path fill="#4c5648" d="M893 441l-69 1 46 54 17-14" />
    <path fill="#585c4c" d="M890 492l-13-101-17-23 4 49" />
    <path fill="#020504" d="M461 515l19 25 15-8-21-24" />
    <path fill="#272d33" d="M313 587l-15-20 20-2-4 17" />
    <path fill="#318d00" d="M325 630l-36 4-14-29-72-4" />
    <path fill="#0089b7" d="M490 462v-28l-3 3v23" />
    <path fill="#545941" d="M919 401l-3-34-43 22 104-42" />
    <path fill="#000b10" d="M725 505l-26 38 57 15-39 1" />
    <path fill="#72786a" d="M229 574l-4-4-3 2-25 5" />
    <path fill="#304446" d="M635 526l13 45-74-30-4 28" />
    <path fill="#fcbb59" d="M859 591l3 17v-1l1-16" />
    <path fill="#1e7b89" d="M411 493l-7-42 5-3v35" />
    <path fill="#027da7" d="M540 432l-1 15 6 12 2-33" />
    <path fill="#3f531d" d="M992 622l27-35-19 50-3 5" />
    <path fill="#001500" d="M82 556l42-18-32 23-2-29" />
    <path fill="#000f00" d="M785 573l-36 9 24 22 7-1" />
    <path fill="#3a4f53" d="M970 532l56 23-17-21-33 20" />
    <path fill="#090a09" d="M796 549l-22-59-8 1 1 49" />
    <path fill="#031408" d="M432 593l-4 44v9l8-8" />
    <path fill="#031100" d="M1025 413l-47-16 34 53-9-27" />
    <path fill="#b6582b" d="M1017 295l-25-11 63-17-21 52" />
    <path fill="#605d42" d="M550 459l-1-62-4-26-2 39" />
    <path fill="#0c130f" d="M859 446l-11-51 5-3 1-3" />
    <path fill="#010500" d="M470 572l-23-1-9-5 21-8" />
    <path fill="#fbf8cd" d="M150 475l9-173-4-27-9 54" />
    <path fill="#a9a9a8" d="M614 671l79-6-92 34-85-21" />
    <path fill="#c1803f" d="M858 607l2 7 26-13-14 5" />
    <path fill="#606772" d="M337 574l1 9 34-32 1 14" />
    <path fill="#53604f" d="M511 544l-23-19-10-140 1 96" />
    <path fill="#061618" d="M677 421l2 20-1 11-7 22" />
    <path fill="#2cb1fd" d="M921 257l35 5-39 14-30 5" />
    <path fill="#b09f72" d="M150 332l-6-21 10-60-5 35" />
    <path fill="#816213" d="M305 600l-38-2-22-14 7 13" />
    <path fill="#222d28" d="M289 545l-21-60 19-22-27 33" />
    <path fill="#2c9c01" d="M483 627l99-9 82-5H532" />
    <path fill="#282b1f" d="M878 390l-86 14-29 3 182-32" />
    <path fill="#00a4ff" d="M1055 266l-42-3-175-85 212-90" />
    <path fill="#84a92d" d="M-29 618l79-13h-9l10 8" />
    <path fill="#57521d" d="M404 597l12-6-118 2 77 4" />
    <path fill="#827c84" d="M22 677l-53 2 17 21 187-33" />
    <path fill="#5f6755" d="M453 458l-3-22 2-13 5 28" />
    <path d="M192 495l90-21-38 4-56 14" />
    <path fill="#5e6405" d="M959 354l20 21 66-38-68 41" />
    <path fill="#6c8393" d="M794 672l116 1-63 10 16-11" />
    <path fill="#000205" d="M525 570l1 4-6-26-58 6" />
    <path fill="#020b0a" d="M860 554l-12-74-17 3-2 71" />
    <path fill="#647600" d="M111 535l21-2L1 507l61 18" />
    <path fill="#495548" d="M301 453l43-4 98-24-57 9" />
    <path fill="#29460b" d="M145 592l33-29-33 10 12 15" />
    <path fill="#182521" d="M350 483l-2-14v-54l-4 67" />
    <path fill="#001301" d="M793 627l-7-52h167l-161 22" />
    <path fill="#036a89" d="M733 428l-2 13 7 15-6-40" />
    <path fill="#3d5402" d="M183 564l-2 16-6-62 12-1" />
    <path fill="#00a1ff" d="M147 184l-178 32L16-31l105 285" />
    <path fill="#889001" d="M966 381l10 27 1-24-1-3" />
    <path fill="#0b191b" d="M709 415l2 15v20l9 19" />
    <path fill="#725407" d="M-31 432l48 32-48 28 44-3" />
    <path fill="#000003" d="M677 507l12 41h-27l-1-40" />
    <path fill="#10211e" d="M661 600l29-2v-20h-12" />
    <path fill="#273808" d="M30 506l6-22-16 2-8 8" />
    <path fill="#859aae" d="M215 655l-38-4-81-12 152 18" />
    <path fill="#3a1f10" d="M844 620l-62-11-21 14 80-12" />
    <path fill="#55604d" d="M377 448l4-25 13 26 92-19" />
    <path fill="#908e00" d="M129 512l38 5 7 8h-16" />
    <path fill="#465c53" d="M666 482l-2-78 15 89-29-49" />
    <path fill="#3c5027" d="M763 596l-52-4 32-12-17-11" />
    <path fill="#080606" d="M867 609l3 21-2 6 47 1" />
    <path fill="#020700" d="M992 350l3 6 8-2-15-6" />
    <path fill="#20333b" d="M101 438l-5-73-18 131 19 16" />
    <path fill="#545947" d="M849 448l-31 54 42-44-18-80" />
    <path fill="#3a6400" d="M983 603l33 4-9-35 48 54" />
    <path fill="#00c1fe" d="M169 303l162 42 135-56-296 3" />
    <path fill="#03b3ff" d="M224 334l-82-89-8-68 28 98" />
    <path fill="#79826b" d="M129 351l-5 12-3-14-31 3" />
    <path fill="#fef6d2" d="M126 320l48 17-38-3-8 24" />
    <path fill="#f2f6ce" d="M135 272l35 8-31 1-17 63" />
    <path fill="#898f00" d="M88 540l-20-13 7 32-2-8" />
    <path fill="#515945" d="M588 452l8 75 9-13-17-110" />
    <path fill="#4f5b4a" d="M827 576l-19-190 82 4-96 2" />
    <path fill="#4d5d51" d="M760 453l57 71-49-75-3-31" />
    <path fill="#ae98a8" d="M716 328l-13-3-55-13h14" />
    <path fill="#24312e" d="M601 532l-8 5 25 29 17 5" />
    <path fill="#00bdff" d="M81 324l-112-7 134-65 1 20" />
    <path fill="#4c5d51" d="M529 443l50 112-17-18 4-41" />
    <path fill="#57a600" d="M433 618l-67 1-66-8 103-1" />
    <path fill="#4e5a5c" d="M42 671l156-7-113-17 28 23" />
    <path fill="#515a48" d="M443 477l117-17 15 20-97 22" />
    <path fill="#4a5d5d" d="M703 554l-9-7-12-17 7-48" />
    <path fill="#9b9588" d="M251 669l266 27-70-10-76-11" />
    <path fill="#0a081c" d="M112 261l-9 16 10-8 4-16" />
    <path fill="#2b5b69" d="M705 469l-5-56 11 31-3-9" />
    <path fill="#5d6500" d="M1003 411l6-50-11 16 18 22" />
    <path fill="#9eaa06" d="M626 577l47-3-22-3-18 2" />
    <path fill="#67784f" d="M886 526l-5 18 6 7 1-22" />
    <path fill="#6cd7fe" d="M3 453l-4-3 72-13 14-83" />
    <path fill="#053603" d="M947 442v-12l-37-18-21 19" />
    <path fill="#7ddcff" d="M290 437l-115 55 1-120 9 69" />
    <path fill="#e9d084" d="M463 562l9 5 3 6v-12" />
    <path fill="#c6d8d9" d="M285 502l12 13-8-24-6 18" />
    <path fill="#758607" d="M1007 571l-1 42-9-42 29-26" />
    <path fill="#3f4030" d="M399 472l-45 21 125-26-48 10" />
    <path fill="#1d2828" d="M96 332v-39l10 27-4 9" />
    <path fill="#ca8155" d="M487 356l85-5-127 29 53-31" />
    <path fill="#485449" d="M760 548l6-62-120 14 78-45" />
    <path fill="#488c1d" d="M649 636l21-10-26-1h-13" />
    <path fill="#a09b8b" d="M219 654l203 19 132-29-135 1" />
    <path fill="#282214" d="M1007 644l-25-20-20-4 46 9" />
    <path fill="#f8f9d1" d="M157 442l6 73 20-3-36-9" />
    <path fill="#000d00" d="M988 577l6 50-26 11v-68" />
    <path fill="#5a5b47" d="M901 416l-8-32-4-24 18 57" />
    <path fill="#1a2e2c" d="M598 571l-8-40-12 34-44-23" />
    <path fill="#d9cb9b" d="M327 561l-26 2h-8l37-7" />
    <path fill="#2e6f7b" d="M722 457l-3-2-3-10 3-36" />
    <path fill="#041612" d="M110 582l15-45-7 6-2 57" />
    <path fill="#9a8268" d="M505 666l138-6 38 4-114 10" />
    <path fill="#fdffff" d="M299 511l-7-4-5-11 14 14" />
  </g>
</svg>