<svg version="1.1" viewBox="0 0 1024 682" width="1024" height="682" xmlns="http://www.w3.org/2000/svg">
  <g fill-opacity=".5">
    <path fill="#1d2b28" d="M654 569l-32 1-6 17-8-41" />
    <path fill="#001800" d="M967 432l-74-16-3 92 165-26" />
    <path fill="#adada1" d="M481 539l-8 43-4-22 27-25" />
    <path fill="#ffdd65" d="M236 584l19 3-18 19-2-6" />
    <path fill="#000208" d="M416 568l68-12-11 23 87-43" />
    <path fill="#b5562f" d="M319 419l-50 10 201-81 171-50" />
    <path fill="#959a00" d="M720 560l-70 9-5 4h138" />
    <path fill="#6ca0c5" d="M380 442l3 33-13 2v12" />
    <path fill="#3a4b42" d="M210 491l74 19 56-2-85 36" />
    <path fill="#e5bd76" d="M768 540l11 22 1-21-6 4" />
    <path fill="#364f5b" d="M1036 551l-61 4-17-12 32-12" />
    <path fill="#889f03" d="M825 574l151-5-145-4-51 5" />
    <path fill="#73dcff" d="M177 373l177 20-77 35-103 52" />
    <path fill="#60694e" d="M514 496l-22-125-4 87 78 23" />
    <path fill="#000205" d="M432 550l2 85-5-61-22-80" />
    <path fill="#112000" d="M926 431l102-56-26-29 50 24" />
    <path fill="#01a2ff" d="M-31 168L970 270l72-71-24-230" />
    <path fill="#d39068" d="M956 334l-191 23-194 54 188-38" />
    <path fill="#f3d679" d="M298 532l-1-13 4 68-13-16" />
    <path fill="#00171c" d="M783 600l-252-1h-70l71 6" />
    <path fill="#ad9f91" d="M449 682l54 23-229-35 91 7" />
    <path fill="#15323f" d="M95 284h9l-22 81-2 174" />
    <path fill="#84e5fa" d="M168 523l21-11-21-48 13 23" />
    <path fill="#f8efbd" d="M175 512V307l-71 185" />
    <path fill="#9c8d59" d="M167 390l-8-97 14 69-5-25" />
    <path fill="#556552" d="M748 421l-2 176 18-80-33-94" />
    <path fill="#5a6c60" d="M485 489l32 7-2 35-22 10" />
    <path fill="#000d00" d="M947 571l-218 19 131 5 134-7" />
    <path fill="#452900" d="M161 332l1-27 2 17 2 4" />
    <path fill="#4c5746" d="M872 437l-187 70-187-48 117 12" />
    <path fill="#24220c" d="M119 329l-7-46 5 21 3-16" />
    <path fill="#c4c09c" d="M421 413l20 16-3 6-4-43" />
    <path fill="#c2885b" d="M378 398l88-20 166-45-37-4" />
    <path fill="#99a400" d="M427 575l192-10-77 13-149 2" />
    <path fill="#2f362a" d="M440 492l3-58-61 8 87-38" />
    <path fill="#571f27" d="M96 513l-34 6 83-12-12-2" />
    <path fill="#2a2c09" d="M831 586l-362 8 4-12 123-2" />
    <path fill="#bb865b" d="M1055 342l-69-49-40-30 104 30" />
    <path fill="#53c1ff" d="M1032 277l23-7-50-18-17 5" />
    <path fill="#ffd570" d="M616 361l27 1-50 46-4-50" />
    <path fill="#748200" d="M969 400l37-34-19 34-16-19" />
    <path fill="#5e1710" d="M133 263l-18-8-9 10 1 15" />
    <path fill="#5b5d43" d="M916 374l-114 19 156-39-39 64" />
    <path fill="#fcffd4" d="M148 272l-22 10 35 8-8 73" />
    <path fill="#ffe8a5" d="M130 319l-24-2-1 43 48-43" />
    <path fill="#00aeff" d="M130 192l-4 53-59 57-98-76" />
    <path fill="#598295" d="M4 582l14 9 81-15-45 3" />
    <path fill="#768600" d="M52 548l36 27-10-12 8-32" />
    <path fill="#9d9a91" d="M491 680l-8-38-130 8-220-4" />
    <path fill="#002455" d="M143 655l192 11-189-18-151-11" />
    <path fill="#203207" d="M74 500l-10 18-51-35 2 23" />
    <path fill="#0e1b18" d="M502 395l11 8v2l-6 59" />
    <path fill="#5d371e" d="M831 593l9 27h-67l-4-19" />
    <path fill="#fe8" d="M261 559l1 13 5-3-2-7" />
    <path fill="#82e1ff" d="M70 434l8 66-52-32-38-58" />
    <path fill="#000913" d="M425 544l-20 32-29 4 44-73" />
    <path fill="#178300" d="M256 616l-108 13 260 5-49-3" />
    <path fill="#000930" d="M684 713h-2l-305-39 127 6" />
    <path fill="#001000" d="M890 547l74 5 9-157-78 67" />
    <path fill="#627a00" d="M836 565l148-15 19 51 13-44" />
    <path d="M458 550l3 20-22 4 1-9" />
    <path fill="#ada194" d="M46 636l79 5-156-29v18" />
    <path fill="#071e01" d="M995 639v-69l-50 2 69 67" />
    <path fill="#576e04" d="M166 580l-39-35-39 28 141-52" />
    <path fill="#040300" d="M636 616l129 16 211-1-18-8" />
    <path fill="#bb6939" d="M756 323l189-51-347 137 32-29" />
    <path fill="#000008" d="M236 577l-68 1-24 4 103 3" />
    <path fill="#0e1c00" d="M64 550l-24 21-39 8 69-4" />
    <path fill="#343b2d" d="M377 512l45-92-1-4-33 8" />
    <path fill="#fff577" d="M280 597l-6-11 4-8 8-20" />
    <path fill="#6e9200" d="M151 583l5 5 64 29-4-26" />
    <path d="M852 480l18 16-24 48-16-57" />
    <path fill="#6f838d" d="M436 453l2 162-8-141 7-68" />
    <path fill="#435f55" d="M897 578l-40-160 9-50 7 147" />
    <path fill="#929200" d="M239 528l-95-16 56 6 44 52" />
    <path fill="#596c00" d="M996 454l-17-39-44-18 21-7" />
    <path fill="#01a0ff" d="M241 232L1055 9 1-31l-32 233" />
    <path fill="#56636d" d="M88 673l-110 10 11-45 136 14" />
    <path fill="#000001" d="M534 556l19 12-26-78-6 67" />
    <path fill="#7595ac" d="M516 545l-15 2-67 2 68-16" />
    <path fill="#212814" d="M568 350l-97 41 117-29 1 76" />
    <path fill="#07c7ff" d="M467 320l-66 19-219 1-23-77" />
    <path fill="#526759" d="M396 561l4-65-84 15h51" />
    <path fill="#3ab7ff" d="M716 326l172-43 80-20-44-3" />
    <path fill="#00130b" d="M133 564l-31 40 69-2-44-74" />
    <path fill="#212d3b" d="M1006 306l36 33-71-51-38-28" />
    <path fill="#da732a" d="M103 526l20-17 50 2-85 5" />
    <path fill="#16a000" d="M605 630l-57-2-98-1 130-15" />
    <path fill="#90795e" d="M730 657l163 9-23 6-169-10" />
    <path fill="#001500" d="M947 375l-15 32-12 2 80-50" />
    <path fill="#f3f4da" d="M130 505V278l9 222-64 16" />
    <path fill="#4fa800" d="M372 615l-17 10-192-19 112-4" />
    <path d="M974 637l-8-28 4-23 26 34" />
    <path fill="#af4d27" d="M434 361l155-30-13-17-136 43" />
    <path fill="#bdb400" d="M1005 340l50 28v-6l-60-17" />
    <path fill="#96a21a" d="M225 635l-91-9-26 2 67 8" />
    <path fill="#1a2628" d="M85 359l5 42 5 23 11-100" />
    <path fill="#e3cd87" d="M1008 622v10l8 14-7-39" />
    <path fill="#ad774d" d="M914 290l54-3 28 24-245 57" />
    <path fill="#000a0f" d="M621 463l-2-26 6-13-2 52" />
    <path fill="#000009" d="M531 566l-39-18-18 20 23 3" />
    <path fill="#095f76" d="M564 448l-53 8 37-26 6-5" />
    <path fill="#020200" d="M571 352l-31 5 82-6-161 31" />
    <path fill="#010000" d="M257 485l-69 5 53-10 51-14" />
    <path fill="#27291a" d="M546 406l9 72v-92l-4-13" />
    <path fill="#52cdff" d="M750 312l-33 16-61-18h32" />
    <path fill="#ac8459" d="M863 573v106l2-73-6 5" />
    <path fill="#000a00" d="M1055 585l-2 1-37 50-1-16" />
    <path fill="#ceb86a" d="M407 549l5 12 12 2-4 15" />
    <path fill="#a1a291" d="M732 634l266 7-57 14-399-8" />
    <path fill="#000106" d="M690 549l-18-54-3 73-25-32" />
    <path fill="#000c05" d="M906 481l-23-97 2 34 28 120" />
    <path fill="#9c5723" d="M843 625l-6-4 12 9-1-30" />
    <path fill="#000e17" d="M836 443l-5-61 11 56 17-9" />
    <path fill="#171f1a" d="M782 421l1-32 8 25 2 45" />
    <path fill="#949672" d="M280 538v33l11-60 3 38" />
    <path fill="#193642" d="M92 515l5-100-26 104-5-22" />
    <path fill="#e9ca8f" d="M527 564l8-6-2 29v-1" />
    <path fill="#cebc7e" d="M380 567l-7 13-8-23v2" />
    <path fill="#f8e7a5" d="M287 534l8 33 15-7-1-4" />
    <path fill="#0c2127" d="M863 438l-17-3 6 19 1-69" />
    <path fill="#db8c34" d="M951 644l-1-2-2-29 4 3" />
    <path fill="#101a3c" d="M235 662l102 2 50 15-21-3" />
    <path fill="#776246" d="M753 602l35 4-12 8-4 5" />
    <path fill="#4f5e4f" d="M798 459l-5-80 37 57 3-61" />
    <path fill="#010810" d="M922 545l-70 11-61 2 67-6" />
    <path fill="#010" d="M772 592l204-5-127-13-87 2" />
    <path fill="#0c0a00" d="M470 387l32-16-119 30-62 23" />
    <path fill="#000004" d="M253 540l5 2-1 34-8-13" />
    <path fill="#50563a" d="M440 407l5-11 125-33 11 21" />
    <path fill="#9ba1a8" d="M896 676l-146-11H633l-106 19" />
    <path fill="#88a937" d="M621 607l34 5h67l-91-10" />
    <path fill="#9e9443" d="M607 570l-10-20 2 30 66-4" />
    <path fill="#a9ad88" d="M144 370l-26-6-2-16 32 37" />
    <path fill="#030b0e" d="M193 510l-9-22 21-3-2 24" />
    <path fill="#50604f" d="M654 417l-7 191-12-195-36 27" />
    <path fill="#c0ac72" d="M688 567l-7 10 2-32-13 6" />
    <path fill="#192723" d="M655 440l8 37 12-76 3 58" />
    <path fill="#526051" d="M588 506l-18 66v-55l-63-58" />
    <path fill="#9b7242" d="M933 697l-8-52-7-2 1-34" />
    <path fill="#7addfc" d="M425 364l28-17-166 58-59 39" />
    <path fill="#004e7e" d="M891 431l1-44 6 32-2 4" />
    <path fill="#119500" d="M427 623l-189-7-150 8 212 6" />
    <path fill="#fff" d="M252 571l-4 1-12 1 10-9" />
    <path fill="#102121" d="M627 447l11-23-3 11 6 46" />
    <path fill="#000603" d="M596 352l29 7 51-1 5-3" />
    <path fill="#979900" d="M995 365l-4-1 64 8-66 2" />
    <path fill="#000b2e" d="M897 677l27-1 1-7 70 8" />
    <path fill="#061215" d="M823 455l-6-8-4-44 3-12" />
    <path fill="#142b2a" d="M469 441l15-11 6 47-21-63" />
    <path fill="#5cb4ff" d="M945 266l23 5 14-13" />
    <path fill="#142522" d="M710 403l1 53 17-53 6 61" />
    <path fill="#919292" d="M615 302l-20 36-8 2 34-49" />
    <path fill="#177a91" d="M828 411l-3 43-1-10-3-21" />
    <path fill="#b2905d" d="M1005 620l-40 35-2-57 7 59" />
    <path fill="#22362b" d="M601 602l-14-39-1-91 3 34" />
    <path fill="#574550" d="M1055 284l-83-11 17-17 13 10" />
    <path fill="#4b6d66" d="M514 483l-3-99 23 96-4-96" />
    <path fill="#cb6f32" d="M677 352l-40-31-52 27h39" />
    <path fill="#403e15" d="M869 362l-299 64 187-30 243-52" />
    <path fill="#7dd8fd" d="M79 415l3-10-73 67 12 4" />
    <path fill="#687700" d="M1014 394l12 19-31-15 61 15" />
    <path fill="#654b0f" d="M5 497l-36-70 7 15h36" />
    <path fill="#fbdf8e" d="M537 559l-11-3 2 7 7 8" />
    <path fill="#0b3b00" d="M964 429l-35-37 7 53-53-21" />
    <path fill="#4c6056" d="M750 519l-23-50-7-74-7 88" />
    <path fill="#736f3c" d="M198 569l-29 6 5 4 62-7" />
    <path fill="#cecc99" d="M124 349l3 46-3 73-3 37" />
    <path fill="#2dcaff" d="M505 329l-237 38-22-29 247-22" />
    <path fill="#468891" d="M459 438l23 15-6-16-13 32" />
    <path fill="#778109" d="M-23 445l50 100 18 26-21-4" />
    <path fill="#00202f" d="M25 567l-6 43-50-62 54 54" />
    <path fill="#f2de94" d="M470 571l4-11v23l-5 2" />
    <path fill="#1e2722" d="M517 390l6 3 1 60-4 10" />
    <path fill="#091110" d="M692 417l9 47v-57l-2 14" />
    <path fill="#a39377" d="M504 670l16-15-191-21-165 4" />
    <path fill="#2c363e" d="M346 583l-13-22-12 6 31-24" />
    <path fill="#000b19" d="M568 565l-6-23-189 18 174-3" />
    <path fill="#4a5544" d="M797 448l-162 26 200 19 58-60" />
    <path fill="#323e37" d="M254 486l-58 7 23 30 114-46" />
    <path fill="#6b6b05" d="M987 313l56 113-81 10 90-6" />
    <path fill="#010a0a" d="M759 457l-3-41 4-10-12 6" />
    <path fill="#0d170c" d="M142 324l-7-28 4 1 7-5" />
    <path fill="#dfcf9c" d="M106 279l10 13-14 16v-18" />
    <path fill="#b37b40" d="M941 619l7-12 5 44v-59" />
    <path fill="#000a08" d="M908 380l3 49-6-27-3-15" />
    <path fill="#375300" d="M992 566l5-2 58-20-145 24" />
    <path fill="#50624f" d="M893 486l-26-11 22 97-12-159" />
  </g>
</svg>