<svg width="1024" height="682" viewBox="0 0 1024 682" xmlns="http://www.w3.org/2000/svg">
  <path fill="#31849e" d="M0 0h1024v682H0z" />
  <g fill-opacity=".5">
    <g class="UTIL__svg--0">
      <path fill="#6a2200" d="M1033.74 684.036L-31 620.256l468.518-271.235L1055 265.438" />
      <path fill="#00cfff" d="M-31-2.026l1073.08-3.156 12.92 251.99L-20.742 443.167" />
      <path fill="#ffffd7" d="M116.856 208.324L92.333 560.19l317.923-204.498-187.503 25.802" />
      <path fill="#8b881e" d="M-24.91 463.883L577 619.275l478 43.718L6.94 713" />
      <path fill="#133000" d="M172.508 630.055l874.617-328.25-16.067 335.703-277.63-3.493" />
      <path fill="#ff863e" d="M626.705 402.718L1055 309.742l-458.186-3.247-169.02 51.7" />
      <path fill="#d4afb1" d="M1055 662.874l-36.652-27.17-808.295 5.805 408.985 59.078" />
      <path fill="#009fff" d="M710.294 330.28l339.2-89.872L1024.684-31-31 28.38" />
      <path fill="#ffe099" d="M158.01 248.864l29.5 269.91-90.354-7.313 7.73-242.524" />
      <path fill="#223000" d="M-15.188 605.514l193.452-.637L290.06 539.83-1.345 484.888" />
      <path fill="#9ff" d="M23.3 479.105L-31 351.19l117.222-24.32-11.08 184.218" />
      <path fill="#00adff" d="M1055 81.406L-31-31l199.67 320.077 30.284 174.775" />
      <path fill="#280000" d="M73.393 517.368l15.672-189.12 21.867-78.027-14.124 242.055" />
      <path d="M901.757 556.745l148.504-35.476L1055 385.19 886.495 418.77" />
      <path fill="#dc7b47" d="M1002.834 325.772l-436.976 86.97 355.27-140.495 133.872-6.54" />
      <path fill="#e45b22" d="M619.034 299.096l66.37 23.053-393.437 100.247 87.217-41.97" />
      <path fill="#58b600" d="M492.282 564.48l350.956-1.777-847.268 60.89 574.903 17.055" />
      <path fill="#009fff" d="M6.068 408.99l121.908-172.32L570.52-.95l-591.74-2.78" />
      <path d="M712.023 359.614l-111.08 2.996-235.41 42.797 219.007-58.025" />
      <path fill="#73f1ff" d="M280.438 427.867L532.773 314.03 185.31 353.963l-17.592 148.973" />
      <path fill="#c8744a" d="M115.703 318.518l-19.575-20.002 39.258-82.47L178.74 325.84" />
      <path fill="#344540" d="M534.868 377.34l397.23 93.342-613.57 112.745-36.873-166.19" />
      <path fill="#ffff8a" d="M585.49 360.985l13.396 45.724 63.714-40.28-42.963-7.58" />
      <path fill="#ffffd8" d="M100.51 407.145l.264 103.734 74.937-17.133-1.513-163.833" />
      <path d="M855.36 354.607l-325.317 68.22 262.714-32.112 167.837-51.995" />
      <path fill="#00a2ff" d="M-31 117.386L1055-31 812.527 304.007l-109.586 22.92" />
      <path fill="#695500" d="M237.32 497.786l88.7-67.154-139.99 55.236 48.62 158.852" />
      <path fill="#151b6a" d="M-31 679.163l289.047-21.15-219.23-20.377L-31 630.83" />
      <path fill="#aab700" d="M829.395 556.018l223.373 11.8-359.527 8.29 65.27-17.733" />
      <path fill="#b0a62e" d="M549.422 565.258l-202.96 15.565-159.823 8.204 624.53-16.412" />
      <path fill="#dad47f" d="M292.13 534.744l44.844 47.56-12.713-41.93-66.23 85.263" />
      <path fill="#9bde15" d="M717.174 609.075l-149.262-6.78-87.433 4.015 92.086 9.932" />
      <path fill="#000b0d" d="M254.102 523.213l154.97 52.31 25.047-41.476-13.342-24.362" />
      <path fill="#000002" d="M761.096 542.495l189.93 6.48 103.81-75.58-285.914 20.253" />
      <path fill="#445650" d="M812.05 549.984l-17.056-62.074-622.85 14.976 783.882-152.374" />
      <path fill="#1f0700" d="M728.386 633.916l280.35 6.8-20.632-70.1-247.147 4.983" />
      <path fill="#c5a7aa" d="M175.19 651.555L-31 624.768l188.942 6.475 349.985 45.48" />
      <path d="M456.587 382.758l177.45-41.443-315.34 87.638-64.223 4.435" />
      <path fill="#5b5e00" d="M18.297 499.666l-11.315-67.04L-31 584.157l321.256-55.512" />
      <path fill="#000a00" d="M162.01 602.946l-50.95 1.514-28.114-81.654 95.2 49.6" />
      <path fill="#000039" d="M205.494 656.757l256.373 18.882L819.137 713l-205.392-9.517" />
      <path fill="#ac1100" d="M156.656 268.377l-25.794-32.638-29.03 38.043 58.028-1.91" />
      <path fill="#77e3ff" d="M17.076 335.555L-31 401.21l88.014 104.967 27.402-74.023" />
      <path d="M555.398 567.248l-85.996-73.178-29.344 53.54 120.06-54.676" />
      <path fill="#06c2ff" d="M661.293 309.326l49.276 18.876L1055 238.796l-934.33 2.782" />
      <path fill="#ff7f56" d="M218.002 471.926l67.374-28.895 2.307 19.018-75.974 22.59" />
      <path fill="#192522" d="M379.61 444.63l-201.675 46.192 100.632 84.535 9.256-152.265" />
      <path fill="#001e15" d="M590.722 390.76l-1.848-15.622-.777-28.317-94.687 22.916" />
      <path d="M643.482 594.47l16.666-103.827 76.49 79.922-6.206-91.643" />
      <path fill="#406195" d="M-30.3 582.316l137.173-8.77-8.64 31.41-68.645 1.823" />
      <path fill="#00b2ff" d="M-31 329.746L-26.76-24.2 130.18 200.28l-56.8 161.56" />
      <path fill="#a6ccf6" d="M516.77 546.15l-12.613-8.098-67.813 4.732 17.18 5.356" />
      <path fill="#00c1ff" d="M187.778 362.94l386.73-45.967-391.85-167.516-7.27 307.282" />
      <path fill="#579d00" d="M-31 615.905l266.015 20.877 7.618-140.625-86.158 106.667" />
      <path fill="#714321" d="M873.494 591.062l50.35 3.964 119.2 31.7-314.596-14.78" />
      <path fill="#00a0ff" d="M1055 258.65L1038.955-31H-5.97l166.888 301.544" />
      <path fill="#79dfff" d="M186.973 374.367l103.024 66.074-107.867 50.244-6.122-147.508" />
      <path fill="#897e00" d="M980.19 343.487l74.81-9.977-17.51 96.59-92.96-134.212" />
      <path fill="#ffe092" d="M690.786 549.032l-5.765 33.43-7.83-27.403-3.84-2.935" />
      <path fill="#231525" d="M287.782 602.79l245.47 1.737 27.376-22.448-264.05 3.244" />
      <path fill="#dbf2f4" d="M275.448 517.037l3.935-26.003 30.13 21.82-23.174-6.76" />
      <path fill="#26ab00" d="M653.666 635.777l-66.968-24.642-333.018 6.95 121.123 11.47" />
      <path d="M134.548 305.332l7.057 15.883 6.69-25.422-21.307 14.08" />
      <path fill="#b6582e" d="M652.887 346.733L1043.9 290.33l-87.53-22.938-90.202 21.867" />
      <path fill="#757100" d="M137.222 500.828l112.97 46.718-77.03 29-86.654-57.76" />
      <path fill="#707c70" d="M374.32 590.32l7.49-183.878 14.506 149.225-87.706 2.268" />
      <path fill="#1f1f1c" d="M83.238 384.418l1.06-32.436 20.918-90.226-9.344 331.475" />
      <path fill="#000a00" d="M937.99 635.938l-205.424-3.68-170.172-13.17 193.603-10.966" />
      <path fill="#ffffe8" d="M116.63 281.616l54.353 29.07-8.322-31.106-30.69-8.086" />
      <path fill="#778c00" d="M628.218 566.99L1055 561.807l-43.97 77.412-28.534-84.643" />
      <path fill="#ffd143" d="M238.763 602.828l41.91.58-28.712-21.082-20.206 13.044" />
      <path fill="#505b55" d="M545.006 479.233l36.7 91.47 70.69-13.028-3.455-98.625" />
      <path fill="#031019" d="M285.096 574.89l-178.278 17.34.556-42.804-56.222 25.57" />
      <path fill="#089f00" d="M113.106 628.71l174.3.953 96.8-1.01-133.988-25.048" />
      <path fill="#001" d="M494.774 548.528l-118.292 7.18 139.202 14.572 28.155-29.233" />
      <path fill="#030000" d="M938.777 352.637L1055 318.777l-135.017 22.816L507.9 428.466" />
      <path fill="#9e7594" d="M-23.54 684.06l437.51-2.004-161.26-18.74-61.073-1.32" />
      <path fill="#ac9881" d="M424.418 636.948l-19.784 33.804-196.216-32.54 98.62-8.235" />
      <path fill="#c7c6a6" d="M439.815 399.266l-21.623 6.092 14.142 26.434-1.046 23.105" />
      <path fill="#fff4c9" d="M163.91 482.277l-6.37-175.946-54.523 36.097 4.843 158.953" />
      <path fill="#000e00" d="M990.315 573.323l-75.27-2.145-263.17 10.574 352.63 12.862" />
      <path d="M109.44 297.464l10.408 17.055 3.502-36.124-8.438 21.022" />
      <path fill="#fff09b" d="M785.013 541.366l-.073 33.597-7.247 1.06-1.07-31.938" />
      <path fill="#a4a59d" d="M476.543 687.336l462.83-1-344.39-55.064 330.77 7.46" />
      <path fill="#424862" d="M435.65 512.938l7.464 119.058 12.516 5.892-30.423 14.476" />
      <path fill="#00a1ff" d="M-20.6-31l6.897 337 140.298-56.818L166.812-31" />
      <path fill="#a83f1c" d="M764.67 345.004L612.388 324.5l-136.906 19.772 139.07-43.032" />
      <path fill="#646f5d" d="M858.188 470.612l23.603-63.523 3.336 126.83 21.84 63.99" />
      <path fill="#5bcbff" d="M701.037 303.592l-122.914-6.066 144.807 27.666 180.993-47.245" />
      <path fill="#000c00" d="M934.37 399.406l-47.048 68.057 26.15 87.518L1055 522.33" />
      <path fill="#00a0ff" d="M750.347 182.562l294.206 94.698L1029.646-31-31 12.085" />
      <path fill="#aaf2ff" d="M170.842 525.51l-7.495-14.312 11.424-32.4 14.655 24.31" />
      <path fill="#051936" d="M879.002 676.82l150.837 2.705-18.915-5.148-164.25-7.597" />
      <path d="M836.69 470.957l42.344 34.135-45.336 71.73-3.53-67.993" />
      <path fill="#2a3f00" d="M993.492 324.984l-62.743 74.913 36.13 28.708 74.703 48.308" />
      <path fill="#5c3638" d="M935.003 268.527l102.67 17.372-56.305-34.002-2.09 43.872" />
      <path fill="#80eaff" d="M44.203 500.07l32.055-137.232 2.343 134.64-26.994 2.335" />
      <path fill="#596559" d="M870.437 439.68l-205.062 42.453 36.236 79.927.187-58.75" />
      <path fill="#3f5500" d="M-31 597.13l241.714-91.53-91.298 70.316L28.34 475.188" />
      <path fill="#a8a181" d="M880.285 640.797l157.178-8.905 9.923 45.206-244.253-26.824" />
      <path fill="#aab71e" d="M255.442 576.858l-35.335-56.598-32.122-10.416 49.34 57.364" />
      <path fill="#000900" d="M1006.21 639.51l-22.824-58.376-6.61-32.007-10.485 76.49" />
      <path fill="#fbeeb2" d="M138.613 349.63l-5.99-58.85-18.21 52.15-17.588-64.166" />
      <path fill="#566759" d="M368.575 465.655L343.41 563.88l-18.31-54.327 171.928-11.455" />
      <path fill="#c7c05d" d="M470.536 551.77l-4.494 22.335 8.664 8.633 12.057 2.39" />
      <path fill="#5fd9ff" d="M216.164 330.37L357.4 360.052l88.93-5.032-226.46 95.663" />
      <path fill="#c28c71" d="M734.324 379.63l245.28-51.86L1055 315.303v-27.182" />
      <path fill="#fff386" d="M591.548 398.697l63.226-30.08-28.332-5.945-32.594-2.562" />
      <path fill="#92ae1a" d="M401.705 604.413L555.46 607.7l-223.103 8.763-51.9-16.986" />
      <path fill="#ffecad" d="M330.146 562.455l-38.208-19.963-8.79 40.533 4.432-21.612" />
      <path fill="#cd7b47" d="M394.98 397.73l172.9-47.784-147.463 16.283-115.777 53.266" />
      <path fill="#e4d769" d="M413.803 575.984l5.08-18.342 7.525 18.8-12.068 11.668" />
      <path fill="#5f6954" d="M463.66 488.066l46.446 51.977 10.598-76.125L374.91 489.55" />
      <path fill="#8fb725" d="M704.26 602.545l-257.108 6.728 256.706 3.136 11.457-7.773" />
      <path fill="#5bcbff" d="M520.946 312.785l128.83-21.78-174.227 52.463-162.992 59.42" />
      <path fill="#a46e34" d="M954.61 646.225l10.216 7.065 5.413-68.72-26.394 28.16" />
      <path fill="#00000c" d="M971.194 285.094l-.986 4.224 84.792 63.69-36.69-33.476" />
      <path fill="#d6e9ff" d="M256.31 571.834l-14.988 2.852 1.034 1.493-3.186-16.597" />
      <path fill="#ffda8f" d="M528.444 561.613l.83-7.653 8.98 11.49-2.657 21.993" />
      <path fill="#4d5b53" d="M718.535 432.772l113.817 96.9-26.65-143.996-55.368 171.764" />
      <path fill="#76846d" d="M87.972 345.365l55.46 19.558-5.784 22.3 12.185-34.41" />
      <path fill="#07060e" d="M179.903 486.815l128.582-10.257-37.834-9.65-74.05 41.27" />
      <path fill="#020000" d="M510.157 510.273l60.22 54.854-6.82-34.815-24.187-48.37" />
      <path fill="#c1a193" d="M1055 683.666l-108.056-5.636-152.977 3.92-103.29 16.714" />
      <path fill="#00c4ff" d="M165.748 248.614l11.706 98.917 225.503-16.638 285.756-43.342" />
      <path fill="#00c9ff" d="M118.87 235.91L76.543 338.967l-83.893 4.696-14.45-85.248" />
      <path d="M431.193 543.342l-5.407-28.533-20.788-11.142-15.094 78.037" />
      <path fill="#c78556" d="M683.844 308.62l86.217 64.755-188.62 30.016 130.17-61.553" />
      <path fill="#a68210" d="M109.762 518.45l115.606 3.18L98.71 507.923 41.52 560.35" />
      <path fill="#fde299" d="M160.662 275.42l7.554 11.407-6.68 252.253 15.44-204.624" />
      <path d="M383.773 556.52l-12.724-44.374-20.937-.7-3.606 43.668" />
      <path fill="#2f686c" d="M540.52 424.87l-220.824 43.846 229.772-18.052 35.686-43.108" />
      <path fill="#ffdda7" d="M1009.664 631.052l41.98 25.833-23.198-8.075-22.58-34.48" />
      <path fill="#d6bc63" d="M902.105 548.833l-13.482.78 5.653 20.18 3.383 2.49" />
      <path fill="#364332" d="M583.736 508.24l5.424-130.07-221.02 60.2 410.395-41.506" />
      <path fill="#000115" d="M435.084 626.58l.226-28.754-12.5 47.235 19.87-.37" />
      <path fill="#00000b" d="M737.148 510.49l-24.46-21.872-14.07 71.372 52.107-8.95" />
      <path fill="#ffe963" d="M601.093 551.605l6.298 1.87-4.56 23.546-3.882-15.894" />
      <path fill="#766f00" d="M-31 470.585l64.364 109.287-.915-17.02L8.4 454.667" />
      <path fill="#6dd6ff" d="M82.185 316.946l-3.212 164.747-58.85.144-12.36-54.22" />
      <path fill="#6e817e" d="M433.74 582.303l-.92-77.285 19.712-6.12-13.443 62.423" />
      <path fill="#001106" d="M132.704 599.69l33.972 7.24-27.54-78.308-23.92 76.5" />
      <path fill="#e99b4b" d="M857.32 603.372l-21.578 4.114 50.59 1.365-8.683-3.166" />
      <path fill="#000201" d="M498.64 534.426l-25.784-39.966-20.154 13.05-4.112 32.682" />
      <path fill="#708400" d="M978.144 386.823l-68.447 11.694 60.05-.754 10.1 52.924" />
      <path fill="#7ddeff" d="M172.718 490.968l113.897-47.037L245.603 391l-67.073 51.853" />
      <path fill="#293237" d="M261.814 586.53l11.94-17.045 21.543-54.68-71.89-15.83" />
      <path fill="#79b311" d="M-5.338 609.418l-5.325 15.93 353.75-18.452-192.846-1.89" />
      <path fill="#000c17" d="M670.46 635.054l165.453-59.24-129.587 26.114 67.96 29.53" />
      <path fill="#0d0b00" d="M623.354 362.618l-53.212-10.823 72.086.714 51.75 8.67" />
      <path fill="#d54525" d="M111.044 262.252l-2.21-6.72 40.414-3.022 17.518 25.99" />
      <path fill="#a69981" d="M377.325 575.573l-127.98 11.673 104.202-5.743 22.55-22.1" />
      <path fill="#002a40" d="M31.236 603.998L-31 614.858l70.035-43.01 26.917-23.46" />
      <path fill="#aa9e89" d="M268.112 658.45L-31 628.06l285.493 5.808 169.305 2.326" />
      <path fill="#a27c5d" d="M488.244 654.986l37.708 21.484L764.6 655.654l-157.278.312" />
      <path fill="#ffe38a" d="M1017.998 354.994L1055 324.97v23.444l-37.322-8.88" />
      <path fill="#ebdfae" d="M106.546 275.927l19.473-2.66-23.954 42.16-1.712 1.354" />
      <path fill="#00b0ff" d="M146.41 170.35l-6.18 77.694 92.343 65.007L1055 248.683" />
      <path fill="#6d9105" d="M652.822 638.452l-167.992 2.846 143.31-18.364 33.06 2.24" />
      <path fill="#fffad9" d="M123.456 503.66l19.314-73.136-35.944-73.09-8.386 152.13" />
      <path fill="#c5b16b" d="M280.23 582.707l24.532.808-18.91-41.217 17.885-47.973" />
      <path d="M143.626 320.485l1.704-20.255-7.698-7.662-1.954 27.456" />
      <path fill="#0b122b" d="M300.25 566.47l6.71 18.79 11.76 10.334 8.7-31.367" />
      <path fill="#223f47" d="M912.978 379.622l15.808 36.896-286.23 57.694 134.47-71.347" />
      <path fill="#53615a" d="M721.08 595.662l-75.324 89.39 87.06-102.788 63.25 38.992" />
      <path d="M767.794 539.914l44.26 5.944-24.876-64.912-27.08 20.146" />
      <path fill="#fffcd4" d="M121.925 284.076l2.874 38.16 8.627 77.44 3.23-108.68" />
      <path fill="#556954" d="M828.054 557.788l-6.753-79.925-22.13 20.332 24.935 81" />
      <path fill="#eaffff" d="M276.806 510.494l28.267-1.18-13.175-10.03-1.24-4.773" />
      <path fill="#38ceff" d="M85.335 333.59l-10.463 38.603-48.13 23.563L-31 335.64" />
      <path fill="#0a0013" d="M225.993 581.353l10.56-6.02 3.41 6.93-12.818 23.892" />
      <path fill="#000002" d="M329.075 518.562l7.59 33.66-33.538-7.16 12.355-28.124" />
      <path fill="#d5653b" d="M255.443 473.52l38.798-24.22-26.238 2.055-95.68 41.432" />
      <path fill="#253b09" d="M28.794 463.19l25.072 69.72-3.883 58.187L25.72 470.62" />
      <path d="M1001.344 324.507l51.628-5.687-18.68 14.436-154.895 21.672" />
      <path fill="#3fd0ff" d="M178.312 338.382l5.076 99.754 9.434-40.968 230.95-36.738" />
      <path fill="#483800" d="M281.07 607.356l12.936-19.742-8.3-28.816 7.51-19.283" />
      <path fill="#030000" d="M366.87 406.764l-83.748 31.05 10.832 11.053-14.13-21.966" />
      <path fill="#00154b" d="M236.278 655.252l-29.745-3.542-63.47 2.744 186.008 16.29" />
      <path fill="#9d9c00" d="M1020.2 384.07l-38.074-26.078-11.26 5.228 84.134 4.716" />
      <path fill="#77827f" d="M98.137 610.283l9.222-10.154-46.172-22.185 48.818-3.57" />
      <path fill="#525a4a" d="M855.32 442.424l19.572-80.105L892.88 471.3l-152.34 24.494" />
      <path fill="#b95d2b" d="M786.01 340.035l-186.196 11.098 26.314-48.494-23.79 1.836" />
      <path fill="#33453a" d="M312.925 420.12L248.68 536.585l40.143-45.527 109.41 3.53" />
      <path d="M655.546 501.714l15.132-.94 4.533 64.322-25.99-6.26" />
      <path fill="#000002" d="M275.793 529.924l-28.163 37.03-3.422-26.63 35.32 28.595" />
      <path fill="#ad653d" d="M995.226 312.045l-46.988-40.854-305.99 74.667 252.3-17.113" />
      <path fill="#000e00" d="M108.624 534.558l-7.082 39.915-19.805-10.122 2.823-36.222" />
      <path fill="#001000" d="M998.605 377.727L1055 629.434l-36.36-96.884-44.588-169.385" />
      <path fill="#58634c" d="M572.706 552.772l-18.21-179.567 20.866 20.167 9.79 108.757" />
      <path fill="#3995c6" d="M330.957 559.78l-34.406-12.434 49.294 2.068-18.782-2.92" />
      <path fill="#596d63" d="M334.21 414.218l-1.197 144.844 30.847-66.133-17.1 6.47" />
      <path fill="#0b0600" d="M596.258 426.805l-9.19-16.774L744.44 379.5l-133.726 41.41" />
      <path fill="#516358" d="M706.7 506.872l-7.628 71.257-16.932-56.354-2.117-129.053" />
      <path fill="#f9e6ae" d="M153.473 346.968l-14-118.35-8.78-9.772 38.962 137.033" />
    </g>
    <g class="UTIL__svg--1">
      <path fill="#1d2b28" d="M653.9 569.01l-31.804 1.217-5.943 16.364-8.504-40.386" />
      <path fill="#001800" d="M967.305 431.65L893.4 415.66l-3.112 92.63L1055 481.686" />
      <path fill="#adada1" d="M481.096 538.706l-8.038 42.772-3.853-21.347 27.26-25.897" />
      <path fill="#ffdd65" d="M235.453 584.312l19.47 2.898-17.578 19.1-1.856-6.65" />
      <path fill="#000208" d="M416.287 567.683l67.253-12.215-10.683 23.55 86.737-42.938" />
      <path fill="#b5562f" d="M318.816 418.468l-50.232 10.475 201.13-81.36 170.982-49.96" />
      <path fill="#959a00" d="M720.116 559.506l-70.444 9.582-5.104 3.826 138.29.17" />
      <path fill="#6ca0c5" d="M380.038 442.298l2.635 33.07-12.204 1.51-.314 12.06" />
      <path fill="#3a4b42" d="M210.227 490.715l73.873 19.763 55.752-2.84-84.796 36.342" />
      <path fill="#e5bd76" d="M767.9 540.207l11.005 21.988 1.166-21.548-6.04 4.338" />
      <path fill="#364f5b" d="M1035.61 551.015l-60.972 3.7-16.49-11.696 31.817-12.38" />
      <path fill="#889f03" d="M825.02 574.41l150.89-5.05-145.35-4.648-50.162 5.2" />
      <path fill="#73dcff" d="M176.613 372.965l177.533 20.243-77.587 34.746-102.33 52.168" />
      <path fill="#60694e" d="M513.73 496.364L492.42 370.8l-3.975 87.573 77.66 23.07" />
      <path fill="#000205" d="M432.35 549.89l2.162 85.176-5.104-60.736-21.99-80.3" />
      <path fill="#112000" d="M926.258 431.21l102.13-56.593-25.964-28.593 50.015 24.15" />
      <path fill="#01a2ff" d="M-31 168.056l1000.736 101.91L1042.23 199l-23.835-230" />
      <path fill="#d39068" d="M955.863 333.47l-191.19 23.418-193.868 54.03 188.487-37.483" />
      <path fill="#f3d679" d="M298.416 531.77l-1.39-12.264 3.428 67.024-12.6-15.444" />
      <path fill="#00171c" d="M782.973 600.33l-252.015-1.246-69.533.185 70.17 5.68" />
      <path fill="#ad9f91" d="M448.984 682.126l53.696 23.078-228.93-35.6 91.24 7.037" />
      <path fill="#15323f" d="M94.846 284.2l8.99.344-21.464 80.66-2.006 173.965" />
      <path fill="#84e5fa" d="M168.365 522.888l21.06-10.852-20.916-48.458 12.682 23.377" />
      <path fill="#f8efbd" d="M174.534 511.56l-.004-108.83.51-95.994-71.53 185.445" />
      <path fill="#9c8d59" d="M166.472 389.972l-7.358-96.546 13.62 68.496-5.073-25.174" />
      <path fill="#556552" d="M747.525 420.74L745.7 597.334l18.607-80.762-33.245-93.968" />
      <path fill="#5a6c60" d="M484.484 489.43l32.222 6.55-1.728 35.188-21.877 9.427" />
      <path fill="#000d00" d="M946.87 571.007l-218.084 18.608 131.067 5.17 134.174-6.435" />
      <path fill="#452900" d="M161.375 332.203l.917-27.56 1.324 16.88 2.688 4.148" />
      <path fill="#4c5746" d="M871.85 436.748l-186.556 70.217-187.537-47.652 117.336 11.46" />
      <path fill="#24220c" d="M119.228 329.065l-7.616-45.64 5.394 20.16 3.44-15.51" />
      <path fill="#c4c09c" d="M421.068 413.348l19.476 15.196-3.143 6.243-3.164-42.438" />
      <path fill="#c2885b" d="M378.052 397.91l88.25-20.196 165.27-44.325-36.767-3.972" />
      <path fill="#99a400" d="M426.824 574.927L618.84 565l-76.74 12.565-149.507 1.97" />
      <path fill="#2f362a" d="M440.09 492.232l3.046-57.986-61.33 8.13 87.145-38.32" />
      <path fill="#571f27" d="M95.964 512.63l-34.043 5.942 82.705-11.323-11.964-2.285" />
      <path fill="#2a2c09" d="M831.276 585.637l-362.1 8.617 3.788-12.302 123.483-1.748" />
      <path fill="#bb865b" d="M1055 342.02l-69.337-49.035-40.086-30.223 104.718 30.515" />
      <path fill="#53c1ff" d="M1031.756 276.627L1055 269.51l-49.805-17.56-17.61 5.598" />
      <path fill="#ffd570" d="M615.935 361.2l27.358.352-50.627 46.78-4.05-50.73" />
      <path fill="#748200" d="M969.33 399.61l36.38-33.795-18.4 34.256-15.862-19.78" />
      <path fill="#5e1710" d="M132.54 262.68l-17.524-7.24-9.196 9.518 1.283 14.934" />
      <path fill="#5b5d43" d="M916.01 373.537l-114.23 19.356 156.305-39.07-39.122 64.105" />
      <path fill="#fcffd4" d="M147.557 272.398l-21.173 9.594 34.63 7.525-7.746 73.684" />
      <path fill="#ffe8a5" d="M129.612 318.604l-23.393-1.257-.877 42.114 47.617-42.69" />
      <path fill="#00aeff" d="M129.577 192.07l-3.274 53.078-59.33 56.374L-31 226.13" />
      <path fill="#598295" d="M4.445 581.507l13.792 9.564 80.483-15.693-44.91 2.982" />
      <path fill="#768600" d="M52.038 547.988l35.458 26.886-9.175-11.872 7.928-31.67" />
      <path fill="#9d9a91" d="M490.744 679.554l-8.138-37.474-129.67 7.91-219.488-4.17" />
      <path fill="#002455" d="M143.156 655.378l192.01 10.71-189.232-18.8-150.864-10.64" />
      <path fill="#203207" d="M73.983 500.114l-9.863 18.223-50.702-34.892 1.465 23.05" />
      <path fill="#0e1b18" d="M502.112 394.98l11.013 7.982-.523 1.826-5.94 59.084" />
      <path fill="#5d371e" d="M831.097 593.096l8.612 27.332-67.086-.576-4.158-18.286" />
      <path fill="#fe8" d="M260.49 559.126l1.315 13.288 4.835-2.95-1.77-7.578" />
      <path fill="#82e1ff" d="M69.86 433.68l8.532 65.898-52.005-31.998-38.316-57.955" />
      <path fill="#000913" d="M425.403 543.5l-20.653 31.983-28.502 4.867 43.73-73.51" />
      <path fill="#178300" d="M255.812 615.64l-107.987 13.57 259.843 4.648-48.44-2.92" />
      <path fill="#000930" d="M683.746 713h-2.03l-305.264-39.47 127.135 6.747" />
      <path fill="#001000" d="M890.437 547.326l73.638 5.062 8.186-156.93-77.93 66.205" />
      <path fill="#627a00" d="M836.108 564.527l147.936-15.068 18.972 51.285 13.38-43.303" />
      <path d="M458.077 549.645l2.93 20.116-21.75 4.385.6-9.2" />
      <path fill="#ada194" d="M45.478 636.448l79.19 4.825L-31 611.653v18.616" />
      <path fill="#071e01" d="M994.795 638.858l.72-68.475-50.436 1.478 68.444 67.512" />
      <path fill="#576e04" d="M166.25 579.986l-38.934-35.112-39.04 28.19 140.474-52.206" />
      <path fill="#040300" d="M636.207 615.845l128.616 16.696 210.65-1.927-17.514-7.306" />
      <path fill="#bb6939" d="M756.096 322.62l188.674-50.8-346.743 137.222 31.438-29.38" />
      <path fill="#000008" d="M236.1 577.186l-67.983.823-24.435 4.23 103.41 2.444" />
      <path fill="#0e1c00" d="M64.39 549.52l-24.408 21.365L.78 579.183l69.547-3.746" />
      <path fill="#343b2d" d="M376.677 512.333l44.924-91.895-.9-4.546-32.747 7.987" />
      <path fill="#fff577" d="M280.377 596.477l-5.96-10.59 3.463-7.54 8.258-19.318" />
      <path fill="#6e9200" d="M151.408 583.13l4.353 4.328 64.145 29.863-4.087-26.698" />
      <path d="M851.838 480.063l18.39 15.738-24.442 48.477L829.778 487" />
      <path fill="#6f838d" d="M435.728 453.155l2.5 162.23-7.697-141.583 6.303-67.626" />
      <path fill="#435f55" d="M897.207 577.817l-40.203-159.59 8.858-49.913 6.823 146.294" />
      <path fill="#929200" d="M238.586 528.178l-94.84-16.437 56.37 6.138 43.49 52.445" />
      <path fill="#596c00" d="M995.512 453.943l-16.354-38.695-44.586-17.746 20.924-7.58" />
      <path fill="#01a0ff" d="M241.253 232.076L1055 8.73.71-31-31 201.82" />
      <path fill="#56636d" d="M87.69 672.94l-109.462 9.806 10.485-44.872 136.686 14.57" />
      <path fill="#000001" d="M533.468 555.98l19.044 11.65-25.522-78.11-5.54 67.187" />
      <path fill="#7595ac" d="M516.388 545.143l-15.362 1.42-66.65 2.88 67.88-16.316" />
      <path fill="#212814" d="M567.883 350.277l-96.945 40.398 117.31-28.506.632 76.285" />
      <path fill="#07c7ff" d="M466.688 320.332l-65.224 18.954-219.765.906-22.658-76.77" />
      <path fill="#526759" d="M395.59 560.586l4.298-64.746-83.938 14.615 51.186.176" />
      <path fill="#3ab7ff" d="M715.484 325.5L887.8 282.863l79.98-20.02-43.802-2.824" />
      <path fill="#00130b" d="M133.05 564.15l-31.286 39.947 68.853-2.05-43.638-74.485" />
      <path fill="#212d3b" d="M1005.58 306.2l36.715 32.44-71.394-50.49-38.17-28.68" />
      <path fill="#da732a" d="M102.934 525.694l20.418-16.74 49.777 2.158-85.964 4.74" />
      <path fill="#16a000" d="M605.233 630.245l-56.992-2.626-98.447-1.124L580.31 611.54" />
      <path fill="#90795e" d="M729.724 656.923l163.174 8.91-22.415 6.074-169.22-9.707" />
      <path fill="#001500" d="M946.475 375.44l-14.332 31.886-12.047 1.252 79.16-49.204" />
      <path fill="#f3f4da" d="M130.135 504.838l.236-226.67 8.203 221.828-64.02 15.578" />
      <path fill="#4fa800" d="M371.7 614.993l-16.68 9.59-191.633-18.415 112.042-3.772" />
      <path d="M973.833 636.794l-7.56-28.105 3.46-22.344 25.867 34.11" />
      <path fill="#af4d27" d="M434.18 361.208l154.62-29.694-12.86-18.084-135.73 43.26" />
      <path fill="#bdb400" d="M1004.953 340.06L1055 367.58v-6.12l-59.94-16.67" />
      <path fill="#96a21a" d="M225.45 634.617l-91.64-8.757-25.804 2.413 67.02 8.113" />
      <path fill="#1a2628" d="M84.614 358.66l5.624 41.916 5.284 23.813 11.018-100.61" />
      <path fill="#e3cd87" d="M1007.785 621.945l-.088 10.045 8.026 13.798-7.113-39.006" />
      <path fill="#ad774d" d="M913.98 290.333l54.34-3.307 28.225 23.465-245.306 57.54" />
      <path fill="#000a0f" d="M621.145 462.692l-2.668-25.23 6.335-13.814-1.282 52.665" />
      <path fill="#000009" d="M531.178 566.103l-39.02-18.053-17.993 19.653 22.41 3.148" />
      <path fill="#095f76" d="M564.42 448.024l-53.58 8.018 36.832-25.815 6.604-5.65" />
      <path fill="#020200" d="M571.128 352.142l-30.895 4.705 81.932-6.292-161.38 31.604" />
      <path fill="#010000" d="M257.226 484.905l-69.327 4.93 53-10.334 50.983-13.45" />
      <path fill="#27291a" d="M546.252 405.825l8.332 71.963.212-91.914-3.364-12.46" />
      <path fill="#52cdff" d="M750.3 312.366l-33.212 16.04-61.702-18.84 32.2.298" />
      <path fill="#ac8459" d="M862.567 573.28l.402 105.816 2.148-73.564-6.228 4.903" />
      <path fill="#000a00" d="M1055 584.625l-2.19 1.55-36.84 49.376-.767-15.343" />
      <path fill="#ceb86a" d="M407.1 549.163l4.49 11.957 12.273 1.448-3.866 15.45" />
      <path fill="#a1a291" d="M731.758 634.303l266.52 6.9-57.315 14.155-399.334-8.227" />
      <path fill="#000106" d="M689.748 549.22l-17.69-54.06-3.817 72.533-25.27-31.34" />
      <path fill="#000c05" d="M905.668 481.447l-22.504-97.858 2.166 34.762 27.193 119.706" />
      <path fill="#9c5723" d="M843.325 624.48l-5.792-3.145 11.655 8.592-.777-29.33" />
      <path fill="#000e17" d="M836.108 443.253l-5.038-61.323 10.976 55.987 17.078-8.108" />
      <path fill="#171f1a" d="M781.656 421.41l1.657-32.26 7.195 24.992 2.416 44.436" />
      <path fill="#949672" d="M280.103 538.31l.085 32.27 10.546-59.356 3.214 38.112" />
      <path fill="#193642" d="M92.042 515.11l4.463-100.256L71.34 519.36 66.53 496.93" />
      <path fill="#e9ca8f" d="M527.098 564.13l7.83-6.236-2.472 28.933.75-.362" />
      <path fill="#cebc7e" d="M380.147 567.382l-7.397 12.46-8.122-22.72.04 1.348" />
      <path fill="#f8e7a5" d="M286.57 534.15l8.26 32.488 15.107-6.304-1.376-4.517" />
      <path fill="#0c2127" d="M862.647 437.706l-16.486-3.125 5.68 19.408.644-68.684" />
      <path fill="#db8c34" d="M951.288 643.62l-1.574-1.593-1.468-29.077 4.153 3.465" />
      <path fill="#101a3c" d="M234.84 661.707l102.09 2.39 50.148 14.918-21.487-3.84" />
      <path fill="#776246" d="M752.86 601.467l35.2 4.868-12.1 7.697-3.577 4.615" />
      <path fill="#4f5e4f" d="M798.058 459.295l-5.043-80.732 37.378 57.235 2.506-60.487" />
      <path fill="#010810" d="M921.606 544.45l-69.928 11.804-60.552 1.855 66.832-6.306" />
      <path fill="#010" d="M771.792 592.04l203.853-5.077-126.967-12.938-87.1 1.625" />
      <path fill="#0c0a00" d="M470.383 387.018L502.3 370.59l-119.07 30.108-62.397 23.01" />
      <path fill="#000004" d="M253.45 539.46l4.804 2.514-1.288 33.555-7.628-12.556" />
      <path fill="#50563a" d="M440.227 406.59l4.46-11.113 125.053-32.72 10.962 21.68" />
      <path fill="#9ba1a8" d="M896.158 676.41l-145.954-11.49-117.26.21-105.813 19.522" />
      <path fill="#88a937" d="M620.46 607.292l34.32 4.475 67.68-.133-91.656-9.375" />
      <path fill="#9e9443" d="M606.477 569.914l-9.87-20.095 2.292 30.258 66.41-3.74" />
      <path fill="#a9ad88" d="M144.203 369.547L117.9 364.28l-1.778-16.436 32.534 36.848" />
      <path fill="#030b0e" d="M193.377 510.143l-8.89-22.154 21.006-2.628-2.34 24.16" />
      <path fill="#50604f" d="M654.224 416.977l-6.843 191.205-11.93-194.837-36.518 26.658" />
      <path fill="#c0ac72" d="M688.173 567.27l-7.227 10.006 2.69-31.738-13.224 5.78" />
      <path fill="#192723" d="M654.76 439.913l8.3 37.09 12.015-76.445 2.364 58.843" />
      <path fill="#526051" d="M588.38 506.063l-18.74 66.043.126-54.892-63.245-58.458" />
      <path fill="#9b7242" d="M933.168 696.887l-8.394-51.6-6.393-2.407.7-33.17" />
      <path fill="#7addfc" d="M425.238 364.1l28.002-16.935-166.123 57.725-58.68 39.67" />
      <path fill="#004e7e" d="M890.773 430.662l1.38-43.386 5.758 31.32-1.945 4.608" />
      <path fill="#119500" d="M427.403 622.68L238.28 615.7l-150.656 8.727 212.388 5.56" />
      <path fill="#fff" d="M252.28 571.406l-4.528.703-11.346.07 9.693-9.483" />
      <path fill="#102121" d="M627.168 446.706l10.505-22.758-2.634 11.63 5.8 46.754" />
      <path fill="#000603" d="M595.848 352.255l29.083 7.147 50.627-1.886 5.443-2.86" />
      <path fill="#979900" d="M994.95 364.674l-4.1-.81 64.15 8.112-65.83 2.318" />
      <path fill="#000b2e" d="M896.87 677.077l26.934-.805 1.277-6.783 69.625 7.346" />
      <path fill="#061215" d="M822.735 454.658l-5.87-7.943-3.625-43.817 2.943-12.107" />
      <path fill="#142b2a" d="M469.262 441.167l15.034-10.972 5.39 46.86-20.29-62.536" />
      <path fill="#5cb4ff" d="M945.238 265.78l23.21 4.847 13.983-12.333-.694-.7" />
      <path fill="#142522" d="M709.628 402.604l1.62 53.148 16.91-53.03 5.654 61.26" />
      <path fill="#919292" d="M614.877 301.533l-19.633 36.06-8.705 2.054 34.118-49.114" />
      <path fill="#177a91" d="M827.602 411.05L824.64 454l-.676-10.01-3.044-20.828" />
      <path fill="#b2905d" d="M1005.395 620.102l-40.618 35.095-1.733-57.2 7.11 59.283" />
      <path fill="#22362b" d="M601.392 602.244l-14.023-38.897-1.552-91.572 3.28 33.877" />
      <path fill="#574550" d="M1055 284.364l-82.906-11.01 16.69-17.282 12.61 9.838" />
      <path fill="#4b6d66" d="M513.53 483.447l-3.115-99.117 23.894 95.477-4.368-96.23" />
      <path fill="#cb6f32" d="M677.448 351.647l-40.25-30.468-52.188 27.188 38.852.153" />
      <path fill="#403e15" d="M868.954 361.817L570.23 425.79l187.175-30 242.36-51.647" />
      <path fill="#7dd8fd" d="M79.414 415.236l3.053-10.3L9.044 471.93l12.366 4.44" />
      <path fill="#687700" d="M1014.25 394.443l11.897 18.807-31.596-15.05 60.45 15.23" />
      <path fill="#654b0f" d="M4.77 496.482L-31 426.514l7.446 15.5 35.127.32" />
      <path fill="#fbdf8e" d="M536.544 558.565l-10.267-3.034 1.385 7.627 7.176 7.464" />
      <path fill="#0b3b00" d="M963.6 429.086l-34.866-37.392 7.005 53.19-52.556-20.104" />
      <path fill="#4c6056" d="M749.678 519.27l-22.37-50.276-7.362-74.112-6.73 88.3" />
      <path fill="#736f3c" d="M197.613 568.562l-28.35 6.236 5 4.605 61.376-7.21" />
      <path fill="#cecc99" d="M123.99 348.495l2.588 46.69-2.748 72.697-2.69 37.81" />
      <path fill="#2dcaff" d="M504.98 328.613l-236.946 38.64-21.744-29.212 246.675-22.438" />
      <path fill="#468891" d="M458.78 437.488l23.377 15.072-6.375-16.14-13.276 32.898" />
      <path fill="#778109" d="M-23.513 445.086L27.16 545.33l18.166 25.307-21.675-3.428" />
      <path fill="#00202f" d="M25.36 567.362l-6.256 42.815L-31 547.897l53.847 54.25" />
      <path fill="#f2de94" d="M470.333 571.367l3.297-11.25.465 22.958-5.21 1.385" />
      <path fill="#1e2722" d="M516.947 390.002l6.306 2.747.877 60.037-4.353 9.855" />
      <path fill="#091110" d="M692.193 416.694l8.62 47.388-.01-57.285-1.913 14.01" />
      <path fill="#a39377" d="M503.573 669.627l16.21-14.935-190.84-21.217-164.522 4.347" />
      <path fill="#2c363e" d="M345.87 582.933l-12.553-22.15-12.73 5.91 31.766-23.157" />
      <path fill="#000b19" d="M568.347 564.923l-6.265-23.338-189.908 18.823 173.54-3.747" />
      <path fill="#4a5544" d="M797.372 447.91L635.07 473.666l200.136 18.956 57.733-59.34" />
      <path fill="#323e37" d="M253.707 485.72l-57.952 7.587 22.914 29.234 114.436-45.988" />
      <path fill="#6b6b05" d="M986.794 312.546L1043.2 425.82l-81.575 9.892 90.363-5.44" />
      <path fill="#010a0a" d="M758.787 457.192l-3.01-41.56 3.99-9.86-11.883 6.498" />
      <path fill="#0d170c" d="M141.584 323.86l-6.58-28.193 3.702 1.12 7.428-4.426" />
      <path fill="#dfcf9c" d="M106.267 279.393l9.98 12.866-14.015 15.478.252-18.14" />
      <path fill="#b37b40" d="M941.42 619.42l6.193-12.274 5.513 43.917-.557-59.197" />
      <path fill="#000a08" d="M908.432 379.616l2.526 48.977-6.15-26.705-2.756-14.122" />
      <path fill="#375300" d="M992.02 565.745l5.108-2.182L1055 543.918l-145.227 24.728" />
      <path fill="#50624f" d="M892.518 485.917l-25.776-11.092 21.758 97.073-11.7-158.577" />
    </g>
    <g class="UTIL__svg--2">
      <path fill="#000001" d="M705.584 499.508l14.217 55 19.965-37.986-7.388-16.086" />
      <path fill="#485546" d="M446.224 467.424l7.355 67.272-12.69 18.555-6.264-67.777" />
      <path fill="#859605" d="M163.57 586.018l61.802-1.54-29.042 8.805-20.464 14.305" />
      <path fill="#001b0d" d="M769.053 576.68l16.158 24.686-173.69 22.76 136.67 5.54" />
      <path fill="#fbefc0" d="M142.346 317.61l-9.372 1.787 43.465 16.75-20.453 24.84" />
      <path fill="#776d00" d="M996.743 343.51l9.595-4.205-12.59-3.954-34.168 19.707" />
      <path fill="#0e7393" d="M865.87 406.083l-1.19 26.94-2.637-2.25-6.787-11.496" />
      <path fill="#555510" d="M698.467 579.788l-10.5 18.318 25.1-3.246 34.82-12.518" />
      <path fill="#fbecba" d="M173.838 448.18l-24.214 63.072-22.53-41.68 45.636 52.618" />
      <path fill="#5f6752" d="M577.73 377.695l-92.26 17.623 13.18 86.944 6.874-86.607" />
      <path fill="#000602" d="M853.264 479.582l43.67 62.86 148.144-20.393-216.645-8.605" />
      <path fill="#03193a" d="M302.402 668.88l201.64 17.466L398.37 671.4l-48.567-3.808" />
      <path fill="#b8932c" d="M265.94 582.764l-14.73 4.825-1.374 18.045 31.058-12.957" />
      <path fill="#172b31" d="M88.018 328.272L77.09 522.57l25.195-104.713-1.703-114.702" />
      <path fill="#000e10" d="M108.747 568.29l36.437 12.596 24.38 23.523-61.578 1.044" />
      <path fill="#42caff" d="M-31 347.268l106.467 39.568 25.32-120.9-22.783 77.006" />
      <path fill="#6c7103" d="M143.848 498.348l-20.603 27.566 46.61-10.32-15.58 65.466" />
      <path fill="#c1a870" d="M334.722 564.3l-5.035 14.488-4.158 5.25 12.42-.78" />
      <path fill="#010f12" d="M772.32 459.11l1.22-42.975.777-6.833-7.89-3.437" />
      <path fill="#101b27" d="M458.204 602.42l41.585 1.206-23.072-7.323-188.8 3.775" />
      <path fill="#000801" d="M978.097 439.084l76.903-5.53v18.32l-162.198 6.02" />
      <path fill="#1e2102" d="M292.73 581.65l-4.333 2.236 37.504 1.588-49.64 19.697" />
      <path fill="#b0a7a1" d="M865.127 713L1055 687.763 920.436 676.92 841.018 713" />
      <path fill="#202215" d="M536.935 402.485l3.284-45.97-7.71 65.088 5.87 51.712" />
      <path fill="#000800" d="M82.716 547.053l29.447 28.217-24.984-3.264-9.158-20.81" />
      <path fill="#505741" d="M852.198 375.633l-40.817 24.114-153.296 19.543 59.313-22.815" />
      <path fill="#d6bf8f" d="M140.788 285.2l-6.197-21.418 7.274-44.06-13.53 8.784" />
      <path fill="#00b2ff" d="M113.428 176.635l47.142 91.938 16.01 41.934 158.93-18.326" />
      <path fill="#ccc384" d="M141.648 529.037l1.64-126.982 2.865-93.95 1.156 141.504" />
      <path fill="#151909" d="M136.757 297.397l-2.076 16.015 5.325 2.466 8.805 1.87" />
      <path fill="#7392a9" d="M468.02 536.22l-3.147 9.447-21.337 3.922 89.625-5.945" />
      <path fill="#585b41" d="M293.15 438.77l135.52-36.016-27.82 15.783-63.15 20.797" />
      <path fill="#030200" d="M529.87 490.98l24.397 12.872 9.69 26.28-42.273-34.383" />
      <path fill="#00b0ff" d="M822.878 290.99l-160.202-5.186 37.6-77.28L1055 214.33" />
      <path fill="#dcc66e" d="M901.36 567.662l-9.607-18.61-.413 12.353 4.102 9.18" />
      <path fill="#6a797c" d="M443.617 639.164l-41.51 24.35 35.905-21.127-4.493-110.92" />
      <path fill="#0a2616" d="M875.486 546.718l-6.237 18.18 18.942-3.136-31.107-9.047" />
      <path fill="#3e4115" d="M279.544 618.857l11.978-55.164-26.985-104.63L289.59 560.45" />
      <path fill="#225000" d="M994.635 581.35l-1.027 29.948 44.356 3.692-37.142-16.817" />
      <path fill="#78dbff" d="M84.752 364.464L74.192 494.82l-51.258-73.436-5.98 66.282" />
      <path fill="#cf3e13" d="M151.007 258.283l-37.57 15.176L128.2 249.6l9.376-.8" />
      <path fill="#9ba42a" d="M426.16 603.386l-92.874 1.666 117.06 4.456 2.538 8.99" />
      <path fill="#1a5f69" d="M41.918 511.908l.664-15.693 5.428-12.72-8.69 2.567" />
      <path fill="#3cc6ff" d="M625.072 291.684l-27.187 14.928-154.923 44.357 116.054-47.747" />
      <path fill="#2a272d" d="M939.838 259.616L1055 347.523l-79.117-55.173-21.208-15.738" />
      <path fill="#8e5039" d="M687.06 339.48l-7.632-3.917 139.547-31.104-143.47 52.133" />
      <path fill="#000200" d="M482.057 516.31l-30.415 29.812 7.016-47.8 21.856 2.642" />
      <path fill="#939b2f" d="M117.333 615.53l-21.51-5.26 40.53-6.84 38.4 10.812" />
      <path fill="#7cdfff" d="M282.897 440.96l-98.54 45.71-11.55 27.682 6.94-93.2" />
      <path fill="#3b3d25" d="M605.344 448.06l5.59 1.923-178.59 26.77 103.402-19.09" />
      <path fill="#31310f" d="M38.665 608.89l6.512-38.333-4.154-1.904-10.06 43.153" />
      <path fill="#d38d6d" d="M1002.846 324.614l-172.492 31.348 154.387-38.107 29.417 2.196" />
      <path fill="#d2b54d" d="M606.64 580.17l-11.442-26.837 9.25-2.656 4.318 18.23" />
      <path fill="#746534" d="M159.295 298.787l-.483 20.817 5.403 18.032 1.034-18.724" />
      <path fill="#031021" d="M948.977 670.58l22.595 2.9 37.274 5.735-54.388-.23" />
      <path fill="#030800" d="M1055 445.325v-58.73l-47.854.92 5.284-4.813" />
      <path fill="#e9904e" d="M619.317 389.977l25.89 3.257-5.363 4.09-46.82 8.702" />
      <path fill="#022652" d="M-31 640.063v-4.538l258.793 25.304L8.737 632.834" />
      <path fill="#717801" d="M997.75 432.187l-14.436-1.76-9.462-53.83.127 58.18" />
      <path fill="#efda57" d="M279.53 598.766l-5.887 29.91 13.523-69.02-15.874 48.183" />
      <path fill="#d5652f" d="M272.69 449l18.87-9.756-35.672 33.34-59.58 12.952" />
      <path fill="#718a15" d="M601.81 641.146l87.925-6.688-87.574-8.02-162.2 11.888" />
      <path fill="#769000" d="M935.974 552.876L918.95 566.67l46.3-5.27-7.88-6.813" />
      <path fill="#79a213" d="M439.99 603.135l-.254 11.7 97.08-2.903 79.694-5.342" />
      <path fill="#656f66" d="M44.027 579.342l61.422 3.36-64.39 29.738.95-29.463" />
      <path fill="#9c612f" d="M786.71 591.295l13.87 7.187-28.723 13.004 13.31-9.093" />
      <path fill="#070d14" d="M282.414 568.193l-8.492-29.324-6.696 28.573 9.795 10.85" />
      <path fill="#26291f" d="M457.91 420.58l-.49-25.715-2.456 83.912 5.728-14.386" />
      <path fill="#6d571b" d="M653.21 590.677l-43.445-1.736 2.287 8.905 54.618-3.994" />
      <path fill="#20201d" d="M295.19 421.642l-9.523 40.9-7.71-.01 3.616 40.82" />
      <path fill="#5e91a5" d="M334.502 553.553l-15.978 14.665-13.28-22.717 15.265 1.944" />
      <path fill="#4b5d56" d="M296.602 502.13l56.628-9.147-4.755 58.885-35.282-47.943" />
      <path fill="#1a6388" d="M30.865 612.694L-6.43 566.84l-10.598 10.52 48.692 2.07" />
      <path fill="#6c7f06" d="M664.236 562.222l-7.12 19.068-59.785-17.656 17.496 15.65" />
      <path fill="#020c21" d="M716.833 621.65l73.935-13.71-14.974 4.964-57.645-18.062" />
      <path fill="#a69a7c" d="M417.533 654.23L627.54 637.2l85.078-2.206-128.315 21.58" />
      <path fill="#52513e" d="M855.242 408.853l57.19-10.764.522-5.49-173.412 31.6" />
      <path fill="#284c72" d="M751.072 608.68l-9.912-19.474-28.205 5.42 47.866 8.038" />
      <path fill="#feedaf" d="M117.806 331.427l-9.952-52.468.412 38.247-5.415 88.257" />
      <path fill="#4a3f70" d="M885.316 286.372l-23.998 4.634 75.986-21.875.423 3.32" />
      <path fill="#819300" d="M180.335 523.858l48.744-3.267 18.795 41.084-48.537-45.895" />
      <path fill="#d0dbdf" d="M275.51 510.054l14.68-14.36 16.175 10.033-32.257 3.905" />
      <path fill="#66551b" d="M528.387 595.62l63.674 2.57-21.252-6.852-11.823-.892" />
      <path fill="#5a6e61" d="M690.558 416.446l5.116 49.8-16.772-17.067 5.048-34.44" />
      <path fill="#647766" d="M806.83 457.41l-20.38-1.608-39.238 6.92 26.15 6.843" />
      <path fill="#1a201a" d="M504.695 451.693l10.053 18.622-10.615-76.086-1.175 46.084" />
      <path fill="#054771" d="M847.898 445.705l-7.625-55.806-2.87 23.542 4.728 27.07" />
      <path fill="#b6b595" d="M420.956 409.31l6.125-13.803 12.392 10 .54 16.325" />
      <path fill="#525007" d="M221.79 556.17l-15.615-24.75-8.864 32.98 10.944 18.742" />
      <path fill="#1f2b25" d="M468.19 403.242l9.083 18.65-12.152 15.92 10.957 44.77" />
      <path fill="#238d9c" d="M479.185 410.873l-4.437 32.188-.74 17.305 3.907 1.174" />
      <path fill="#69686c" d="M245.79 670.656L128.1 662.84l134.68 23.988 47.32-4.83" />
      <path fill="#81330d" d="M958.916 595.086l-34.34-1.052-31.093 1.793 61.59 3.09" />
      <path fill="#000301" d="M308.474 544.44l31.448 5.795-24.833-36.08-6.557 13.585" />
      <path fill="#388291" d="M543.728 378.595l2.014 52.935 2.927 19.102-9.53-4.802" />
      <path fill="#8f8e03" d="M1019.936 566.453l-60.303.433 95.367 10.31v-20.15" />
      <path fill="#172725" d="M303.19 526.082l11.183-86.984.04 44.396-10.53-41.793" />
      <path fill="#ffdf58" d="M241.535 605.778l-5.03-15.977 6.216-5.347 7.167 16.283" />
      <path fill="#69867e" d="M163.72 351.032l-26.845 5.588.112-6.65 29.583 7.99" />
      <path fill="#be550f" d="M159.315 511.12l-14.643-3.153-57.856 7.614 59.153 1.212" />
      <path fill="#020304" d="M774.674 484.55l-13.24 65.176 42.248-28.252-4.25-24.86" />
      <path fill="#3b98aa" d="M521.52 427.967l9.368 1.23-4.132 38.812-2.446-38.276" />
      <path fill="#1d231b" d="M432.96 424.745l-8.02 36.947-5.525-70.334-18.888 5.174" />
      <path fill="#000912" d="M357.473 501.143l36.572 79.605-16.765-10.015 1.275-7.478" />
      <path fill="#ccb173" d="M1009.417 654.62l2.35-43.588 12.525 81.452-9.714-63.01" />
      <path fill="#011100" d="M992.033 358.987l-1.057 25.978-49.876-11.56 15.594 14.93" />
      <path fill="#209b00" d="M1.326 617.26l76.48 2.297 135.898 6.136-122.087-1.63" />
      <path fill="#3c5900" d="M994.334 456.45l-.996 14.112 4.362-8.334 56.542-8.45" />
      <path fill="#284300" d="M180.834 552.392l1.312 2.24-39.46-20.58-4.217-10.263" />
      <path fill="#a28c6b" d="M1025.142 630.38L1055 673.597V670.8l-93.305-.396" />
      <path fill="#161e1d" d="M599.673 410.658l-.218 17.348 10.254 126.912-5.456-130.59" />
      <path fill="#fbfbcb" d="M141.523 271.246l31.11 22.733-38.126-3.225-10.6 4.643" />
      <path fill="#585e51" d="M612.36 524.565l1.683-10.432 2.972-70.785-13.552-32.68" />
      <path fill="#050200" d="M694.424 391.655l269.534-46.772L1055 315.338l-84.698 16.71" />
      <path fill="#0c1d21" d="M442.082 404.974l9.837 49.962-.94 13.337-4.23.385" />
      <path fill="#af532e" d="M894.688 300.647l58.6-27.928-53.167 8.427L799 308.705" />
      <path fill="#b44924" d="M634.59 307.233l-22.44-7.435 17.508 19.512 86.036 12.937" />
      <path fill="#798305" d="M160.437 502.11l-44.57 59.543 17.897-.307-8.67-23.444" />
      <path fill="#77dfff" d="M71.966 423.682l6.465 73.19-29.922 4.972.617-74.99" />
      <path fill="#d4c772" d="M679.462 572.744l2.694-26.364 5.53 30.41-21.757-10.33" />
      <path fill="#010" d="M985.272 405.59l17.595-33.88.507 47.007L1055 599.413" />
      <path fill="#344163" d="M240.392 581.88l32.356 1.133-9.557-8.085-29.6-2.637" />
      <path fill="#1d2b22" d="M375.736 459.59l3.064-32.04-42.308 9.51 36.127 2.695" />
      <path fill="#fc632d" d="M157.602 273.892l-21.695-2.61-8.845-11.493 30.052.95" />
      <path fill="#7f9606" d="M867.88 553.105l63.106 18.33-46.96-15.09-63.752 18.428" />
      <path fill="#112d00" d="M964.84 387.188l-32.648 135.48 11.32-110.75 42.39 7.272" />
      <path fill="#4b5c5a" d="M738.662 485.49l9.78 76.508 13.474-7.992-9.428-68.103" />
      <path fill="#20313b" d="M106.218 320.26l-2.895 47.818-3.652-85.488-14.476 65.91" />
      <path fill="#ffeaac" d="M1018.958 345.533l36.042 28.3-29.657.396L1055 310.796" />
      <path fill="#6ed9fc" d="M189.208 494.815l-3.23 13.213-16.697 8.103 12.212-21.35" />
      <path fill="#f6f3d2" d="M145.415 500.197l-31.3-8.83 9.15-127.96L97.387 511.79" />
      <path fill="#0c1c20" d="M882.12 555.508l.76-46.045-17.443 36.074-23.186 7.176" />
      <path fill="#3d534e" d="M294.915 544.033l-2.772-10.258-6.162-30.018 23.002 24.81" />
      <path fill="#19c3ff" d="M586.564 297.034l237.51-10.894-111.016 28.588-44.276-6.12" />
      <path fill="#69a09c" d="M144.94 346.033l1.688 15.37-12.653.708 54.978-79.132" />
      <path fill="#65d4ff" d="M2.3 458.652L-31 375.348l109.5 21.086-91.227 55.348" />
      <path fill="#9f9b83" d="M979.88 637.252l-92.133 2.487 83.76 22.988 28.206-32.853" />
      <path fill="#172523" d="M612.035 579.137l-55.09.307 7.596 6.68 184.227-8.25" />
      <path fill="#4e5544" d="M290.93 491.78l5.718.2 8.512-61.236-15.163 18.757" />
      <path fill="#fbf9d8" d="M126.264 507.244l1.72-159.927 34.52 134.926-5.53-124.643" />
      <path fill="#324501" d="M179.516 572.276l-73.694-51.412 27.142 1.496-18.852 20.58" />
      <path fill="#045a7e" d="M913.048 416.46l8.27-4.594 2.434-1.99-15.02-10.987" />
      <path fill="#c9bd84" d="M368.445 567.245l7.517 20.866-3.87-29.99-2.48 2.59" />
      <path fill="#a9a393" d="M199.33 663.793l48.174 5.965 40.826.503-57.455-7.79" />
      <path fill="#d8783c" d="M293.05 457.08l-65.838 25.604 49.854-36.52.735 13.485" />
      <path fill="#7b9001" d="M208.33 510.18l-34.053 7.925 31.5 7.605 36.162 48.098" />
      <path fill="#41cfff" d="M176.735 343.435l2.923 29.472 23.662 16.29 266.518-44.545" />
      <path fill="#ffdc7b" d="M587.124 400.607l17.338-36.956 51.375-.547-47.342 27.78" />
      <path fill="#55675a" d="M825.987 535.098l-14.783-29.726-.004 41.88 2.44 17.894" />
      <path fill="#91892d" d="M104.757 560.96l.196 13.005 11.457-38.882 24.748-51.078" />
      <path fill="#44534a" d="M280.06 512.957l5.8 6.39-54.712 4.06 31.395 21.8" />
      <path fill="#2a160a" d="M889.525 637.697l74.94-30.358-4.627 10.05-20.59-11.813" />
      <path fill="#192a1a" d="M324.42 583.974l-31.244 8.95 170.86-6.794 52.315-2.29" />
      <path fill="#041415" d="M803.818 523.656l6.215 8.17 1.594 26.26-14.41 1.567" />
      <path fill="#87a61d" d="M409.175 611.434l19.887 16.957 2.265-25.345-132.36.643" />
      <path fill="#6ca436" d="M713.694 602.29l-97.662 10.85 78.275-.456 24.915.936" />
      <path fill="#737f82" d="M110.037 575.364l-68.643 4.622 60.188-.125 1.198 24.908" />
      <path fill="#d2cc8b" d="M164.868 492.295L166 356.345l-2.532 78.547-2.143 80.223" />
      <path fill="#9a9897" d="M-31 628.735l6.034 6.32L45.84 622.68l81.754 23.067" />
      <path fill="#000402" d="M381.15 533.582l-28.82 26.242 1.564-27.117 6.178-25.13" />
      <path fill="#131100" d="M678.35 402.292l-93.54 9.074 68.536-15.534 336.237-55.825" />
      <path fill="#222f24" d="M580.745 343.067l2.9 105.287-.62.43 9.293-40.462" />
      <path fill="#5fd9ff" d="M315.83 383.374l216.678-61.536-300.256 105.61-41.976-43.02" />
      <path fill="#465449" d="M611.22 505.767l278.187-28.58-244.47-13.365-3.07 86.473" />
      <path fill="#5d6148" d="M563.06 506.476l-2.106-117.14 21.78 24.327-43.464 77.474" />
      <path fill="#456100" d="M942.42 409.523l11.712-19.794-4.68 18.447 10.133 29.33" />
      <path fill="#a39d77" d="M583.272 407.626l22.333-8.663 48.218-29.606-12.994 1.868" />
      <path fill="#001700" d="M955.8 447.91l-13.4-45.435-14.312-4.263-6.417 6.402" />
      <path fill="#b17f49" d="M940.506 607.803l3.733 3.965 7.876 2.14 17.356-12.474" />
      <path fill="#000400" d="M874.15 601.72l-1.07-27.17-10.702 29.635 6.52-1.653" />
      <path fill="#2f3b01" d="M-1.157 518.198l24.37 56.635L-31 585.323l36.46 16.22" />
      <path fill="#849000" d="M99.08 547.49l-34.333-15.41L83 582.41l-9.447-46.613" />
      <path fill="#011115" d="M659.785 465.478l4.47 2.574-3.14-40.675-4.35-1.318" />
      <path fill="#929f24" d="M-31 615.268l199.748 16.678-68.392-1.406-126.028-9.977" />
      <path fill="#020501" d="M663.47 564.286l16.034 2.925-27.57-63.502 23.646 1.56" />
      <path fill="#05cdff" d="M89.005 306.41L77.14 338.194-31 327.674 97.196 309.81" />
      <path fill="#222822" d="M391.038 479.32l13.654-30.618.162 28.56-14.155-56.936" />
      <path fill="#2b7276" d="M417.3 458.092l4.293 36.79-.81-48.58-25.218 10.755" />
      <path fill="#bb7c2b" d="M974.938 563.83l-8.533 19.378-.7 63.782-2.065-53.07" />
      <path fill="#406b5c" d="M86.48 506.696l-28.224 7.42 23.07-18.647-15.286 4.234" />
      <path fill="#865013" d="M877.934 618.906l-2.192-55.615 1.118 23.12 5.83 11.127" />
      <path fill="#50594b" d="M720.107 424.165l78.326-9.55-70.316 13.306-138.596 22.257" />
      <path fill="#f6d591" d="M785.132 552.53l-18.682-6.105 10.012.505 3.725 13.847" />
      <path fill="#b2a69b" d="M622.445 286.705l-16.567 32.9-13.928 23.555-7.144 5.874" />
      <path fill="#1b2821" d="M482.122 408.73l2.198 50.935 5.778-58.383-59.257 15.464" />
      <path fill="#f5d890" d="M1008.41 619.03l7.662 23.866-.967-10.49-1.108-12.325" />
      <path fill="#1e323b" d="M452.49 646.725l-8.606-4.282L427.58 540.17l6.135 68.472" />
      <path fill="#0c7ea3" d="M558.67 423.68l-4.33-.4 3.098 31.983 5.114-9.487" />
    </g>
    <g class="UTIL__svg--3">
      <path fill="#49300f" d="M534.675 524.033l2.483 7.346 9.212-10.39-8.91-11.1" />
      <path fill="#00b9ff" d="M510.747 302.46l-130.29-54.805 526.063 24.152-60.277 15.42" />
      <path fill="#172824" d="M416.76 432.543l-4.24 34.38 6.465 14.05-11-81.717" />
      <path fill="#59614f" d="M473.387 416.2l-85.2 20.79 93.55-18.584 48.664-13.322" />
      <path fill="#94ae00" d="M1019.628 456.264l35.372-20.85-16.136 3.01L1055 500.718" />
      <path fill="#3c4f00" d="M45.697 560.324l-7.83.91-8.255-54.877 60.942 9.008" />
      <path fill="#131103" d="M226.095 600.307l8.113 4.94.463-21.248-5.904 1.373" />
      <path fill="#050905" d="M530.958 490.94l16.223 77.848-32.544-33.97 2.798-22.48" />
      <path fill="#c36c39" d="M275.86 427.167l318.426-94.626-4.338-12.503-57.982 15.498" />
      <path fill="#617461" d="M336.95 434.44l-.405-3.057-3.69 78.903 10.38-67.38" />
      <path fill="#5087a0" d="M366.75 482.754l.84-22.394 20.498 20.198-7.676-25.17" />
      <path fill="#030808" d="M435.794 581.574l-36.14-57.91 5.373-14.788 15.88-.44" />
      <path fill="#8d9207" d="M188.227 558.555l-2.62-4.523-.74-11.166 15.157 7.272" />
      <path fill="#181a00" d="M1043.08 382.745l3.397 2.302 8.523-6.007-64.006-37.638" />
      <path fill="#94a045" d="M334.186 580.525l33.02-1.804 41.883 1.437-18.33 3.49" />
      <path fill="#050807" d="M114.782 300.405l9.942 20.66-7.314-5.626 4.112-23.654" />
      <path fill="#0f1109" d="M326.105 421.37l-39.08 14.56-1.003 40.248 5.9-51.072" />
      <path fill="#73e3ff" d="M285.403 441.33l-.51-5.655-65.355-30.393 37.965 48.575" />
      <path fill="#021225" d="M12.355 593.933l13.473.915 13.05 6.803 1.97-12.61" />
      <path fill="#9f9d8d" d="M515.09 646.36l-202.5 16.735 143.212 11.762-9.59-38.777" />
      <path fill="#f8e5a3" d="M165.474 330.69l-1.135-43.115 10.188 39.513-18.324 41.39" />
      <path fill="#010a02" d="M989.982 539.024L1055 471.99l-69.75-5.32-104.648 23.92" />
      <path fill="#949a77" d="M560.472 580.015l-90.46-1.254-1.786.147 33.057 2.385" />
      <path fill="#1c221f" d="M178.092 491.488l66.562 28.183-58.157-11.927 28.684-26.03" />
      <path fill="#898a00" d="M984.542 348.504L1055 407.57l-51.04-54.038.098 16.773" />
      <path fill="#4b5c5b" d="M877.934 546.14l-10.974-2.79-10.287 3.13 13.597 3.824" />
      <path fill="#48433b" d="M578.762 356.52l7.3-11.028-27.39 35.02 59.8-92.118" />
      <path fill="#163200" d="M49.35 560.795l10.276-36.32L37.7 534.6l39.188 37.073" />
      <path fill="#1e0e08" d="M947.974 610.7l-11.194-15.24-5.324 42.304 17.14-9.907" />
      <path fill="#1a506e" d="M778.055 406.3l2.388 26.548-2.81 23.86-5.458-47.752" />
      <path fill="#a08742" d="M699.157 593.61l-7.896 3.937 4.827-20.326 1.233 17.216" />
      <path fill="#061f05" d="M128.226 569.026l80.956 14.644-37.776 1.11-36.756-37.182" />
      <path fill="#d0c078" d="M479.054 558.986l-9.533 28.184 5.982-23.342-12.99.858" />
      <path fill="#668100" d="M839.97 557.643l18.154-.22-35.512 9.966-61.992-2.342" />
      <path fill="#231f00" d="M437.934 398.907l93.997-29.064-162.905 38.266 70.195-12.524" />
      <path fill="#1b211a" d="M532.353 457.424l7.832-53.574-6.862-17.134 5.858 73.96" />
      <path fill="#57a202" d="M164.427 607.675l106.875-4.88 2.253-1.83L385.76 621.02" />
      <path fill="#00121e" d="M396.067 579.068l19.3-21.018-26.785-4.37-14.713 23.582" />
      <path fill="#956430" d="M918.05 674.097l.42-70.335 4.68-16.174-2.135 22.407" />
      <path fill="#054165" d="M792.394 442.19l-3.064-47.027 8.065 36.978 2.088 18.4" />
      <path fill="#a67a51" d="M839.716 616.108l23.42-11.297-5.74 108.19 5.683-115.76" />
      <path fill="#261f00" d="M295.254 587.585L285.8 576.36l-1.166 15.416 46.66.6" />
      <path fill="#516355" d="M749.585 455.533l1.19-36.49-16.287-20.633-1.336 52.276" />
      <path fill="#545f4f" d="M777.468 417.763l4.513-16.65 2.96 27.035-2.558 50.673" />
      <path fill="#003905" d="M569.284 618.566l150.617 5.772-12.33-11.038-63.444.103" />
      <path fill="#2e3628" d="M108.336 290.618l11.257 21.522 2.585-26.99-9.064 12.473" />
      <path fill="#19201c" d="M548.703 393.68l8.07-15.662-8.08 70.86 6.144 8.15" />
      <path fill="#556200" d="M146.81 574.528L-16.788 493.85l12.81-57.252 23.677 67.054" />
      <path fill="#b2532b" d="M351.984 401.455l68.528-34.85 48.506-20.9 150.03-40.39" />
      <path fill="#98896f" d="M417.63 644.693l18.627 3.592-52.044-16.66-143.21 13.16" />
      <path fill="#1f312f" d="M290.446 507.28l-22.38 65.254 18.745-65.61-20.053-29.42" />
      <path fill="#c48355" d="M610.748 405.312l93.66-61.15-14.743 32.386-19.355 11.483" />
      <path fill="#9f6f3b" d="M775.992 619.568l-1.358 3.16.518-19.494-6.885 9.847" />
      <path fill="#fcf6d0" d="M101.917 470.497l22.356-94.38L110.698 359l-4.556-35.86" />
      <path fill="#44554a" d="M260.782 560.124l4.72-78.086-83.215 18.836 71.4-12.837" />
      <path fill="#020a10" d="M768.198 633.196l-86.913.37 57.892-22.148 29.996-.41" />
      <path fill="#687405" d="M24.494 536.5L-31 534.29l49.194 6.27 56.198 13.186" />
      <path fill="#001000" d="M970.6 637.538l25.868-47.48-93.856 3.164 92.223-25.97" />
      <path fill="#5e6500" d="M988.288 405.98l1.63 31.54-13.35-2.41-.235-4.454" />
      <path fill="#d0b177" d="M103.95 320.548l22.313-6.766.955 23.414-.045-4.86" />
      <path fill="#75b2c2" d="M38.556 458.766l-29.12 26.636 45.978-17.45-46.41 22.665" />
      <path fill="#0a2539" d="M431.75 590.04l-2.8-124.62.99-36.804 2.784 105.92" />
      <path fill="#030600" d="M594.414 347.875L614 360.718l-5.577-8.934-334.55 79.533" />
      <path fill="#091c20" d="M955.175 550.245l-54.197 7.364 37.384-20.87 33.296 10.982" />
      <path fill="#0a0e0e" d="M758.177 562.296l13.02-4.85-15.3-21.46 41.58-39.394" />
      <path fill="#030907" d="M1032.793 546.587l-46.24-32.3 67.947 52.817-41.202-3.444" />
      <path fill="#051527" d="M943.938 677.647l90.63.764-96.78-7.405-28.492.06" />
      <path fill="#0e0801" d="M882.348 636.007l94.11.8-74.598-4.36-54.21-17.296" />
      <path fill="#8f9e9e" d="M432.327 436.74l-.866 18.026 5.018 101.254-3.59-152.078" />
      <path fill="#122322" d="M333.112 455.692l-3.42 47.545-.65-63.038 3.318-9.8" />
      <path fill="#f6de85" d="M301.114 581.31l-7.084 6.224-2.76-53.713 3.57 11.89" />
      <path fill="#8f996d" d="M688.703 576.46l-99.602-1.372 27.9 4.29 67.012-5.856" />
      <path fill="#090602" d="M287.986 430.29l114.66-33.264-126.515 31.496 38.81 7.502" />
      <path fill="#768700" d="M523.828 576.422l76.138-12.327-.508 14.38-113.633-6.21" />
      <path fill="#788e00" d="M970.507 385.25l-25.144 15.233 2.012-12.05 37.426 5.17" />
      <path fill="#9d9f95" d="M934.598 651.05l-231.09-9.596 120.148-6.092 103.317 4.585" />
      <path fill="#e6d09b" d="M110.847 287.337l3.726 29.31-13.113-31.734 27.77-13.55" />
      <path fill="#586b61" d="M388.58 484.344l-5.576 71.14 13.002-36.727 20.174-35.367" />
      <path fill="#59604c" d="M526.876 386.584l-62.365 19.848 6.805 75.002-15.83-91.22" />
      <path fill="#f5d265" d="M277.718 604.308l10.74-35.493-13.913 12.452 4.232 23.974" />
      <path fill="#15c7ff" d="M630.432 294.95l-16.532-2.327-195.797 29.628 79.753 2.022" />
      <path fill="#4c5648" d="M893.243 440.948l-68.915 1.258 45.846 54.106 16.533-13.836" />
      <path fill="#585c4c" d="M889.703 491.633l-12.315-101.048-17.028-23.107 4.1 49.48" />
      <path fill="#020504" d="M461.06 514.848l19.26 25.278 14.292-8.06-20.617-24.082" />
      <path fill="#272d33" d="M313.277 586.882l-15.275-20.238 19.6-2.064-3.873 17.646" />
      <path fill="#318d00" d="M325.095 630.28l-36.376 4.01-14.043-29.415-71.578-3.27" />
      <path fill="#0089b7" d="M490.08 461.903l.237-28.29-2.898 3.537-.4 22.484" />
      <path fill="#545941" d="M918.953 401.27l-2.785-34.793-42.886 22.438 103.723-41.735" />
      <path fill="#000b10" d="M724.636 505.228l-25.452 37.595 57.194 14.807-38.926 1.72" />
      <path fill="#72786a" d="M228.69 573.663l-4.128-3.267-2.358 1.387-25.055 5.354" />
      <path fill="#304446" d="M634.63 526.1l13.23 45.3-73.225-30.703-3.78 27.878" />
      <path fill="#fcbb59" d="M859.132 590.927l2.622 17.323.195-1.56 1.078-15.654" />
      <path fill="#1e7b89" d="M410.623 493.373l-6.882-41.935 4.893-2.962.734 34.324" />
      <path fill="#027da7" d="M540.37 432.332l-1.168 14.776 5.402 11.647 1.917-32.945" />
      <path fill="#3f531d" d="M992.404 622.07l26.59-34.9-18.866 50.087-2.884 4.528" />
      <path fill="#001500" d="M81.992 555.928l41.75-18.238-32.283 22.898-2.08-28.686" />
      <path fill="#000f00" d="M784.627 572.546l-35.276 9.73 23.97 22.122 6.898-.933" />
      <path fill="#3a4f53" d="M969.48 532.35l56.2 22.604-16.383-21.2-32.926 20.22" />
      <path fill="#090a09" d="M795.524 549.027l-22.105-59.455-7.09 1.576.66 48.09" />
      <path fill="#031408" d="M432.132 592.513l-3.763 44.536-.228 8.57 7.544-7.825" />
      <path fill="#031100" d="M1024.975 413.44l-47.492-16.307 34.473 53.236-8.525-27.148" />
      <path fill="#b6582b" d="M1016.87 294.49l-24.524-10.275L1055 266.717l-20.832 52.235" />
      <path fill="#605d42" d="M549.785 458.515l-1.052-61.558-3.57-26.32-2.06 39.11" />
      <path fill="#0c130f" d="M859.442 445.48l-11.048-51.095 5.1-2.812.95-3.093" />
      <path fill="#010500" d="M469.727 572.185l-22.376-1.66-9.45-5.15 21.23-7.28" />
      <path fill="#fbf8cd" d="M150.324 474.686l8.437-172.67-3.335-26.952-8.9 53.953" />
      <path fill="#a9a9a8" d="M614.04 670.91l78.807-6.242-92.133 34.57-84.775-20.817" />
      <path fill="#c1803f" d="M857.485 606.56l2.072 7.064 26.033-12.82-13.413 5.273" />
      <path fill="#606772" d="M336.888 574.437l.807 8.765 33.865-32.096 1.362 14.12" />
      <path fill="#53604f" d="M510.806 543.682l-22.384-18.533-10.498-140.308 1.374 95.883" />
      <path fill="#061618" d="M676.798 421.286l1.906 20.047-1.06 10.88-6.436 21.298" />
      <path fill="#2cb1fd" d="M920.734 257.393l34.772 4.205-39.14 14.827-29.835 4.786" />
      <path fill="#b09f72" d="M149.87 331.982l-5.555-21.398 9.225-59.575-5.06 35.376" />
      <path fill="#816213" d="M305.162 600.265l-38.46-2.27-21.21-14.457 5.998 13.592" />
      <path fill="#222d28" d="M289.235 545l-21.632-60.038 19.197-21.638-26.917 32.892" />
      <path fill="#2c9c01" d="M482.747 627.14l99.203-9.305 81.534-4.782-131.792-.11" />
      <path fill="#282b1f" d="M878.103 390.01l-85.997 13.778-28.806 3.337 181.95-32.55" />
      <path fill="#00a4ff" d="M1055 266.298l-42.264-3.06-174.716-85.552 211.97-89.663" />
      <path fill="#84a92d" d="M-29.084 617.816L49.7 604.764l-8.91.377 9.773 7.086" />
      <path fill="#57521d" d="M404.262 596.89l12.11-5.806-118.176 2.145 77.1 3.353" />
      <path fill="#827c84" d="M22.09 676.75L-31 679.505l17.275 19.886 187.075-32.914" />
      <path fill="#5f6755" d="M452.683 457.65l-2.88-21.92 2.42-12.577 5.182 28.07" />
      <path d="M191.593 494.91l90.63-21.415-37.98 4.838-56.058 13.555" />
      <path fill="#5e6405" d="M958.655 354.24l20.747 21.248 65.867-39.025-68.658 41.42" />
      <path fill="#6c8393" d="M794.105 672.436l116.092.78-62.973 9.56 16.224-10.356" />
      <path fill="#000205" d="M524.88 569.976l1.104 3.785-6.244-26.163-57.302 6.553" />
      <path fill="#020b0a" d="M859.933 553.544l-11.764-73.807-16.895 2.878-1.91 71.83" />
      <path fill="#647600" d="M110.85 535.248l21.37-2.447L1.436 506.485l60.376 18.728" />
      <path fill="#495548" d="M300.54 452.546l43.6-4.15 97.84-23.173-57.376 8.5" />
      <path fill="#29460b" d="M144.788 592.422l33.58-29.648-33.698 10.183 12.293 14.67" />
      <path fill="#182521" d="M350.376 482.784l-2.395-13.668-.464-54.145-3.91 66.887" />
      <path fill="#001301" d="M793.337 627.442l-7.354-52.168 166.927-.656-160.522 22.09" />
      <path fill="#036a89" d="M733.152 427.802l-2.058 12.86 6.727 15.683-6.267-40.228" />
      <path fill="#3d5402" d="M183.18 563.93l-1.8 16.12-6.343-62.257 11.937-1.045" />
      <path fill="#00a1ff" d="M146.674 184.437L-31 216.177 15.883-31l105.042 285.01" />
      <path fill="#889001" d="M966.138 381.095l10.046 26.373.97-23.575-.767-2.475" />
      <path fill="#0b191b" d="M708.7 415.402l2.52 14.652-.32 19.963 9.748 18.954" />
      <path fill="#725407" d="M-31 431.77l47.95 32.045L-31 491.502l44.28-2.27" />
      <path fill="#000003" d="M676.605 506.48l12.14 41.325-26.913.03-1.405-40.205" />
      <path fill="#10211e" d="M661.153 600.38l28.574-2.407.01-19.995-12.264.072" />
      <path fill="#273808" d="M30.098 505.506l6.062-21.48-16.634 2.39-7.204 7.414" />
      <path fill="#859aae" d="M214.465 654.594l-37.296-4.046-80.987-12.02 152.19 18.03" />
      <path fill="#3a1f10" d="M844.173 620.08l-62.225-11.452-20.863 14.5 79.498-11.994" />
      <path fill="#55604d" d="M376.53 448.252l4.514-25.18 13.22 26.192 91.315-18.845" />
      <path fill="#908e00" d="M129.445 511.746l37.156 5.732 7.257 7.197-15.52-.156" />
      <path fill="#465c53" d="M665.545 481.792l-1.808-78.104 14.76 89.328-29.116-49.51" />
      <path fill="#3c5027" d="M763.336 595.626l-52.69-3.33 32.75-11.963-17.263-11.127" />
      <path fill="#080606" d="M866.748 608.53l3.364 21.68-2.562 5.576 46.447.826" />
      <path fill="#020700" d="M991.643 350.408l3.135 5.55 8.617-2.323-15.097-5.56" />
      <path fill="#20333b" d="M100.663 438.3l-4.957-73.204L78.26 495.39l18.675 16.595" />
      <path fill="#545947" d="M848.974 448.29l-30.785 53.63 41.34-43.535-18.164-80.56" />
      <path fill="#3a6400" d="M983.16 602.984l32.347 3.604-8.928-34.933L1055 626.19" />
      <path fill="#00c1fe" d="M168.723 302.703l162.072 41.917 134.67-55.68-295.46 2.773" />
      <path fill="#03b3ff" d="M224.21 333.96l-82.084-89.314-7.898-67.78 27.617 98.407" />
      <path fill="#79826b" d="M129.39 350.685l-5.656 11.89-3.16-13.356-31.046 3.195" />
      <path fill="#fef6d2" d="M125.837 319.918L174.3 336.96l-38.057-2.55-8.24 23.157" />
      <path fill="#f2f6ce" d="M134.925 272.278l34.624 7.214-30.258 1.438-16.86 63.608" />
      <path fill="#898f00" d="M88.35 539.473l-20.608-12.72 7.022 32.49-1.925-8.515" />
      <path fill="#515945" d="M587.972 451.52l7.554 75.56 9.692-13.024L587.79 403.54" />
      <path fill="#4f5b4a" d="M827.29 576.367l-18.928-190.26 81.362 3.206-96.157 1.85" />
      <path fill="#4d5d51" d="M760.037 452.533l56.45 71.504-48.966-75.322-2.504-30.368" />
      <path fill="#ae98a8" d="M716.41 327.74l-13.24-2.826-54.938-12.52 13.482.118" />
      <path fill="#24312e" d="M600.636 532.412l-7.462 4.227 24.502 29.706 17.062 4.858" />
      <path fill="#00bdff" d="M80.46 324.09L-31 316.63l133.607-64.437 1.648 20.036" />
      <path fill="#4c5d51" d="M528.525 442.535l50.478 112.77-16.62-18.106 4.036-40.87" />
      <path fill="#57a600" d="M433.245 618.05l-67.372.516-65.308-8.034 103.07-1" />
      <path fill="#4e5a5c" d="M42.038 671.4l156.214-7.766-113.417-16.347 28.317 22.738" />
      <path fill="#515a48" d="M442.894 476.892l117.152-16.87 15.37 19.787-97.824 21.693" />
      <path fill="#4a5d5d" d="M702.525 554.372l-8.775-7.446-11.503-16.126 6.698-48.02" />
      <path fill="#9b9588" d="M251.24 669.27l265.94 26.473-70.02-9.335-76.055-11.32" />
      <path fill="#0a081c" d="M111.913 261.306l-9.236 15.503 10.02-8.25 3.993-15.27" />
      <path fill="#2b5b69" d="M704.95 468.73l-4.81-55.648 10.668 30.184-3.25-8.885" />
      <path fill="#5d6500" d="M1002.886 410.68l6.15-49.72-10.638 16.275 17.884 22.214" />
      <path fill="#9eaa06" d="M625.766 576.475l47.288-2.315-21.976-2.914-18.524 1.75" />
      <path fill="#67784f" d="M885.47 526.09l-4.528 17.657 6.714 6.93 1.362-21.247" />
      <path fill="#6cd7fe" d="M3.164 453.438l-4.017-3.595 72.253-12.92 13.62-82.937" />
      <path fill="#053603" d="M946.58 441.556l.32-12.05-36.845-17.303-20.385 18.264" />
      <path fill="#7ddcff" d="M289.867 436.992l-114.856 55.06.907-120.367 8.776 69.225" />
      <path fill="#e9d084" d="M462.73 561.976l9.045 4.692 3.04 5.8-.176-12.03" />
      <path fill="#c6d8d9" d="M284.65 502.37l12.08 13.037-8.067-24.626-5.985 17.773" />
      <path fill="#758607" d="M1006.55 570.83l-.25 41.944-9.732-41.937 29.67-26.213" />
      <path fill="#3f4030" d="M398.984 472.205l-45.52 20.753 125.406-26.023-48.246 9.636" />
      <path fill="#1d2828" d="M96.03 331.674l-.384-38.783 10.69 27.33-3.832 9.657" />
      <path fill="#ca8155" d="M487.307 355.99l84.462-4.69-126.356 28.736 52.29-30.616" />
      <path fill="#485449" d="M760.18 548.196l6.15-62.686-120.54 14.69 78.403-45.5" />
      <path fill="#488c1d" d="M649.394 636.196l20.212-10.305-25.43-.98-13.065.115" />
      <path fill="#a09b8b" d="M218.51 653.877l203.524 18.978L554.1 644.208l-135.442 1.398" />
      <path fill="#282214" d="M1007.173 644.376l-25.51-20.218-19.69-3.617 46.43 9.016" />
      <path fill="#f8f9d1" d="M156.803 441.797l6.584 73.005 19.693-2.672-36.45-9.4" />
      <path fill="#000d00" d="M988.285 576.507l5.33 50.772-25.94 11.21.14-68.98" />
      <path fill="#5a5b47" d="M901.365 416.354l-7.926-32.324-4.336-23.605 17.366 56.764" />
      <path fill="#1a2e2c" d="M597.582 570.986l-7.663-40.19-11.99 34.727-43.08-23.64" />
      <path fill="#d9cb9b" d="M326.536 561.216l-26.066 2.128-7.13-.876 37.065-6.638" />
      <path fill="#2e6f7b" d="M721.685 457.058l-2.61-1.86-3.246-10.33 2.905-36.25" />
      <path fill="#041612" d="M109.655 582.29l15.42-45.588-7.072 5.914-2.396 57.726" />
      <path fill="#9a8268" d="M504.7 665.894l138.53-5.912 37.326 4.365-113.433 9.21" />
      <path fill="#fdffff" d="M298.754 511.265l-6.513-4.566-5.027-10.57 14.133 13.228" />
    </g>
  </g>
</svg>