<svg version="1.1" viewBox="0 0 1024 682" width="1024" height="682" xmlns="http://www.w3.org/2000/svg">
  <g fill-opacity=".5">
    <path fill="#2d2d10" d="M597 478l85-.3 108.3-15.2-121.8 1.5" />
    <path fill="#b3d238" d="M-31 111.7l85.7 154-85.7-41 123.6-123" />
    <path fill="#484c0e" d="M603.5 644l13.8 1-10.8-52.2-20 6.7" />
    <path fill="#559100" d="M14.5 503.6L-10 596l41.6-7.4L-31 457" />
    <path fill="#050c00" d="M745 469.3L729 713l67.5-251 197 32" />
    <path fill="#606b00" d="M540.5 713L517 581l1.3 32.8-2.6 52" />
    <path fill="#1a1d02" d="M606 528.4l-8.5 73.4 78.2-21.5L606 595" />
    <path fill="#1d2601" d="M485.4 554.5l18-69-59 94.2 42.7 55" />
    <path fill="#add500" d="M312.8 524l-10.6-92.4 98 9.3-134.6 56" />
    <path fill="#838284" d="M814 152.7l30.8 2 13.5 22.8-24.7.5" />
    <path fill="#aed65a" d="M519.4 22.4l88-16.3-86.7-35-126 49" />
    <path fill="#212200" d="M586.4 426l-10.8 20-29.4 13.3 15.8-23" />
    <path fill="#6a613a" d="M566 456.2l70 14.6-59-35.5 42.6-13.7" />
    <path fill="#5b5348" d="M626 380.8l-78 42 131-36.3-3 33.5" />
    <path fill="#362e0c" d="M527 335.8l75.6-2 7.4 36.5-62-14.4" />
    <path fill="#8bc521" d="M125.7 4L-31 100.8l76-4.3-1.7-56" />
    <path fill="#83a600" d="M217.3 529.5l89.2 42.7-50.7 25.2 107-81.4" />
    <path fill="#6a7900" d="M76.7 342.6L22.2 459 21 348.4l102.7 92" />
    <path fill="#5dab19" d="M10.5 24L-31 61l143.5-73L40-1.5" />
    <path fill="#191f05" d="M587.6 398.8l-43.7 23-17 32.8 8-43.8" />
    <path fill="#848b6a" d="M377 616.8l60.6-9.5-101.6-3.5 11-35.5" />
    <path fill="#b8d73f" d="M973 48.5l82 140.5v20.5L875.2 27" />
    <path fill="#76766a" d="M321.3 676.4l22-17 97.4 51.3 251.5 2.3" />
    <path fill="#898775" d="M689.3 397.2L661 327.4l90.2 30.8-56-12" />
    <path fill="#819c21" d="M288.6 591.8l-40-37.8 104.6 4.6-6.3 20.2" />
    <path fill="#b0d700" d="M436.8 493L382 448l16.8-71.2 10.5 5.2" />
    <path fill="#c9e052" d="M407 207l17.7 84.4-67-6.3L199 225" />
    <path fill="#415300" d="M522 455.2l-8-55.7 2 139.7 13.4-48.7" />
    <path fill="#b6babf" d="M662 295l310.8-19L849 304l-188.5 21.6" />
    <path fill="#000200" d="M716.6 432.8l-38.3-37.5 19 8.8 14.7 46" />
    <path fill="#c5c6cc" d="M523.7 190.5l74.5 13.3 372.6 44.8-374.7 3.6" />
    <path fill="#a8abae" d="M879 365.4l-107 29L958.4 384l-193-84.3" />
    <path fill="#685d3c" d="M731.4 459.2l-115 7.4 39.5-12.8 78-11.7" />
    <path fill="#b8d358" d="M50 234.5L172.6 251l-57.3 67.6-19.6-51.2" />
    <path fill="#b0ce52" d="M363.8 304.4l20.8 27-38.2 38.7-33.4-36" />
    <path fill="#afcc27" d="M170.7 489l-1.3-20.4 20.3 7.6-6.2 22" />
    <path fill="#a8c530" d="M90.5 265.6l29.7 72.3L-31 189l93.5 108.2" />
    <path fill="#aade39" d="M384.8-31h-9.4L106.7 63.4l230 8.2" />
    <path fill="#000001" d="M1005.3 438.7l49.7-26-83.8 5-149-8" />
    <path fill="#202b01" d="M520.8 591l-68.6-160.6 74.2 172L525 542" />
    <path fill="#638005" d="M147.2 609.4l-75-20.5 125.5-12-23.7-44" />
    <path fill="#010001" d="M739.6 446l158.7-23.3-87-15L734 417" />
    <path fill="#5d5d5c" d="M985.6 415.7l-30.8-11.5 2.5 5.5-34.8 1" />
    <path fill="#7e831e" d="M50.7 367.7L41.5 399l-14.7-13 3.7-33" />
    <path fill="#132700" d="M525.8 531l45-35.6-36.5-34.2 26-19.4" />
    <path fill="#474c37" d="M607 562l7.3 31.3 10.3-5-14.3-20.6" />
    <path fill="#5a551e" d="M445.8 539.2l17.6 147.5L476 691l-30.5-90.5" />
    <path fill="#1d1d00" d="M613 596l-3.4 33.6 60.8-64.8-10.6-7.8" />
    <path fill="#2d5518" d="M3.2-31H-31v76.2L20.8 3.6" />
    <path fill="#6e6e5d" d="M56 643L9.5 621l31 41.2-64 16.5" />
    <path fill="#1c2200" d="M569.7 559.7L586 497l6.5 56.5-8.5-4.7" />
    <path fill="#8d9f53" d="M441 678l-59.4-6.7-50 34.3L453 658.4" />
    <path fill="#aeb0b3" d="M731.2 400.4l31.6 2.2-58.3-43.4 38 4.4" />
    <path fill="#010800" d="M613.6 703.6l45.2-105 1.3-23-39 46" />
    <path fill="#d0ea62" d="M378.4 119.6l255.3-31.8L489 190.4 377.5 203" />
    <path fill="#92a702" d="M15 354.5h57.4L82 343l-57.2-3.4" />
    <path fill="#a6a89b" d="M207.8 666.6l-73-32.4L245 613.6l18.5-7.6" />
    <path fill="#3a3b1f" d="M840.8 462.4l-75.7-7.7 54-5.7-7 20" />
    <path fill="#a4b851" d="M427.3 371.7H392l33.3-31 3.8 15" />
    <path fill="#50503a" d="M517 223l-13-16.2 21 6 8.3 53" />
    <path fill="#b9d83d" d="M177.8 277.6l67.5-40.4 100 76-21.7 18" />
    <path fill="#505329" d="M557.3 411.6l25.5-27.6.2 14.6-42.5 10" />
    <path fill="#89c43e" d="M324-31L110 30.2 55.7 45.5l86.8-66" />
    <path fill="#898d8e" d="M811.7 392.4l81.7 19.8-83.5-7-38-5.7" />
    <path fill="#c0df4d" d="M951.7 139.7L874.4 36.4 764.2 65l204.8-.7" />
    <path fill="#182600" d="M542.7 677.3L559 670l-29.3 40 7.5-79.4" />
    <path fill="#484337" d="M710.7 393.2L694 406.7l4.8-5 26.7 41.5" />
    <path fill="#717431" d="M526.8 670.3l1-143.5 3.8 103-1.2 79.7" />
    <path fill="#d4e856" d="M606.6 175.8l-25-3.7-78 13 263-88" />
    <path fill="#94a605" d="M437.5 379.2l-10-11.3-2.3 138 8-14" />
    <path fill="#241e19" d="M549 425l106.7-14 6.2 5.6-20-8" />
    <path fill="#293500" d="M582.2 671.4l26.5-55.6 10.8 8.5 1.8 27.5" />
    <path fill="#0e1200" d="M457.6 417.7l63.7-76.7 3.2-88.5L440 321" />
    <path fill="#020400" d="M892 594l8.7 25.2 54-136.4-78.3-10.2" />
    <path fill="#9e9d8c" d="M423 605l29.6 38.2L439 605l-86.5 17.4" />
    <path fill="#a0b43d" d="M784.7 152.4l45-8.3 38.3 12-44 1" />
    <path fill="#7b7739" d="M117.3 605.8L84 588.4l53.5 31.4-83 22.3" />
    <path fill="#837347" d="M550.8 422.4L537.4 446l10.2 5.7 3.6-16.6" />
    <path fill="#adbe53" d="M1017.5 256.3L1055 204l-85 22.6 83 53.3" />
    <path fill="#646b5b" d="M600 539l-2.5-20v6.5l14.7-9" />
    <path fill="#000300" d="M551 511.2l-9.8-15.7-3.4 30.2-.6 81" />
    <path fill="#0e0d00" d="M575.7 306.4l-105-72.2-9.6-28 84 112" />
    <path fill="#211b07" d="M645.5 383l-8-15.2-12-6-60.6 27" />
    <path fill="#d4dde5" d="M838 356.7l-12.5-7 16-3.6-3.6 6" />
    <path fill="#8da254" d="M36 308.7l-48.2 83 5-33.2 23-49.3" />
    <path fill="#c3d731" d="M890.2 141.5l115.6 60.8-99.5-3.8L947 128" />
    <path fill="#b0e328" d="M217 84.3L242.4 58l146.3 15.5-40.2 11.8" />
    <path fill="#020600" d="M626.6 533l22.4-52 41.4-3.8-70.3 29" />
    <path fill="#92b800" d="M173.6 470.7l-35.2-67.3L76 560l33.5-3.6" />
    <path fill="#6c9900" d="M84 435.8l49.7-17.7 55.3-3-31-28" />
    <path fill="#484428" d="M611.6 488l21.6-4.6L588 406l35 71" />
    <path fill="#323436" d="M862 174.3l14.6 12-1 18.6-20.6-30" />
    <path fill="#9c9e9c" d="M875.7 334.2L860 380.5l-113-28 91.8 7.4" />
    <path fill="#5c5b1f" d="M78.4 620.5L-18 590.7 65.3 642l-6 2" />
    <path fill="#040300" d="M1038 536.5L851.5 709 1002 523.5l32.5-17" />
    <path fill="#c3d8ad" d="M900.4 208l-10 6.2 83.2 18 19 17.3" />
    <path fill="#628800" d="M245.5 575l25.5 19-28.8-49-25.3 17.6" />
    <path fill="#a9abb4" d="M1028.7 386.6L888 401l136.6 4 2 8.7" />
    <path fill="#1c1b00" d="M754 654.5l5.2 45.6 22.5-77-21 7" />
    <path fill="#a9d100" d="M342.7 432L184 487.7l71-108.4 96.2 47.2" />
    <path fill="#27230c" d="M808.4 670.8l58 3L882 572.4l10 37" />
    <path fill="#b0e33d" d="M468.5 56.2l-307-7.2 335.8-23.8 198.2-22" />
    <path fill="#131901" d="M731 508.3l-1-63 9.4 24 161.4-2.4" />
    <path fill="#9ea266" d="M254.8 609l-18 9.5-37.5-3.2 12.6-13" />
    <path fill="#d2ec61" d="M284.5 117.7l-53 .8-6.8 84 33-16.4" />
    <path fill="#6a7810" d="M440.4 350.8l-2.7 75.2-9.3-77.7v-47" />
    <path fill="#9a9ba1" d="M980.5 347.4l74.5 66.8-9.6-81.8-117.3 2" />
    <path fill="#81ad00" d="M71 491.6l-86 42.7 55.2 27.5-50.4-96" />
    <path fill="#394a00" d="M134.3 381l-26.3-2.6-5 20.6 19.5 8" />
    <path fill="#6a7146" d="M374.7 591.2L357 570.5l-1.5 32.5 26.6 5" />
    <path fill="#c2dc2e" d="M86 219.5l20.7 3.8-.7-40.2-27.6-3" />
    <path fill="#c7e03b" d="M845 117.5l29 35.7-97.7-13 41.6-17" />
    <path fill="#a8a898" d="M685.8 380.3l-34 3.5-7.6-33 38.5 38.6" />
    <path fill="#86bd25" d="M970.4-13.5l-39.7 20L1043.4 72l7.2-3" />
    <path fill="#abada5" d="M541 258l48.7-10.2-93.8-54.5 38-4.3" />
    <path fill="#6e9900" d="M325.4 552.8l8.7-14-19-11.6-37 26" />
    <path fill="#282107" d="M639.6 672.6l41.7 40.4 24.6-58.5 45 58.5" />
    <path fill="#5a5521" d="M589 496.7l-9.4-14-29.4 53.6 11.2-34.2" />
    <path fill="#3f3a2c" d="M593.5 434l6.5 4.4 64.3-8 39.3 4.7" />
    <path fill="#76723b" d="M581.4 458l15.6-9-10.8-16.8-22.8 79" />
    <path fill="#afcf37" d="M428.3 303l-43.6 72.8 28.4 12-50-90" />
    <path fill="#b2d444" d="M244 258.4l-130 14.8 109 68 16.5-81.5" />
    <path fill="#a8cb31" d="M185.4 379.4l39.7-32.8-44-42.8-22 4.5" />
    <path fill="#49433d" d="M9.8 390.4l-4-26.5-36.8 77 31-37" />
    <path fill="#6c6c28" d="M539.5 614l-15-18.3.6 49 22-69.7" />
    <path fill="#a8da28" d="M46.4 109.8l126.8-42L10 86.8l40 17.5" />
    <path fill="#898986" d="M507.2 207L480 195.7l-3.8 17.8L489 211" />
    <path fill="#797663" d="M725.5 380.8l-28.2 15-15.7-63 52.6 93" />
    <path fill="#acadb5" d="M825.4 280.8l-101-3L936 253.5l107.6 9.2" />
    <path fill="#899b2d" d="M867.3 161.7l30.3 43-1-3.6-12.4 3" />
    <path fill="#38361a" d="M496.7 234.7l20.5-28 5.8 16-66.5-13" />
    <path fill="#6e9200" d="M99.6 605.7L110 572h62l-40.6-39.8" />
    <path fill="#4e4b17" d="M587.2 530.2l-24.3 1 14-15.6-2-7.6" />
    <path fill="#869c21" d="M434.8 558.7l4.4-96.7-11.4 72.2-19 1" />
    <path fill="#1d240d" d="M1014 449.6l-72.4 26 26-16 18-20" />
    <path fill="#7b8c32" d="M12.4 439.7l7.7 20-51 14V424" />
    <path fill="#514d3f" d="M652 393l21.7 21 9.7-21.3-19-10.5" />
    <path fill="#110e01" d="M1001 665l-28.6-50-87 8.3-17 20" />
    <path fill="#5f573a" d="M564.3 436l-13.7 3.5 55.7-47-26.7-3" />
    <path fill="#6d665d" d="M603.4 433l-9-4 72-10.7-36.6-3.5" />
    <path fill="#c2d665" d="M441.7 196.7l85.3-23 133-7.3-114 16" />
    <path fill="#4f6400" d="M11.8 367.4l36 61.2L7.2 438l12.3-7" />
    <path fill="#021400" d="M515.4 616L504 513.4l7.7 39-33.6 21" />
    <path fill="#65614b" d="M659.6 469.5l-14.8 5.3 16 3 17.7-128.2" />
    <path fill="#050f00" d="M590 589.8l-5.5 6.8L578 713l-6.2-143.3" />
    <path fill="#050400" d="M709.6 621.6l75.6 84.7-122.3-81 26 71.7" />
    <path fill="#d2ea59" d="M771 87l7 40.5-116 18 55-102" />
    <path fill="#a5be2f" d="M421.5 216.7l10 11.6L419 297l2.7-66.6" />
    <path fill="#525226" d="M620.4 540l-4.4 11-7.2 15.6-5.6 55.3" />
    <path fill="#b5e351" d="M760.2 1l-37.4 37.2-240.5 9.6 271 20.8" />
    <path fill="#989863" d="M83.8 333.3L80 315.5 70.2 303l-18.4 23" />
    <path fill="#a8a9ac" d="M709 372.7L696.4 347l78.2 55.2-30.8 2" />
    <path fill="#41310b" d="M567.4 599.7l-14.7-44.2-5-7.3 21.6-35.5" />
    <path fill="#989898" d="M42.5 664.6l15.2 6 39.4 4 16-37" />
    <path fill="#a6a7a1" d="M653.5 300.2l-27.7 46.6 76.3-26 18 32.4" />
    <path fill="#6a7b41" d="M209.2 602.3L159.5 616l8.8-44.2-19.5 14.6" />
    <path fill="#d2ea50" d="M406 271.8l4 32.7 10.5-85.8L237 103.2" />
    <path fill="#191b01" d="M699.3 536.8l-17 62.7-83.5-23.6 133-9" />
    <path fill="#415b1c" d="M464.3 211L425 253l15.2-23.6v-24" />
    <path fill="#b0b0b3" d="M282 669.3l-159.3-22.8 7.2 53 26-25" />
    <path fill="#99979c" d="M293.3 648.4L282 713l79.3-27.8-26.8-5.2" />
    <path fill="#d1d1d4" d="M542.8 197l70.8-15.3 6.6 31.8-75.8 8.5" />
    <path fill="#cae04e" d="M234 243l-2.2-39.6-137-29.4 54 82" />
    <path fill="#abb1b4" d="M937 331.5L724.8 340l-53-12 3.3-19.4" />
    <path fill="#605a3b" d="M563.2 281.6l81.4 94.7-58.2-54.4-26.2-42" />
    <path fill="#acd512" d="M292.5 321.2l-44.8.7-3.2 12 47.3 8" />
    <path fill="#211d0e" d="M847 649.8L963.3 713l3.2-68 67.8 68" />
    <path fill="#1a2900" d="M544.2 520.2l18.7-86.7-32 118-2-62" />
    <path fill="#78b629" d="M15.3 30.8l86-7 31.3-26.6L161-31" />
    <path fill="#8db400" d="M266.4 545.5L422.2 492l-213.5 50.4-6.4 6" />
    <path fill="#45491d" d="M596 553l12.8-17.8-35.3 37 35-11.5" />
    <path fill="#0d0f00" d="M605.8 503.3l-9.5-.7 24-28.5-7.7-13" />
    <path fill="#323900" d="M445.5 340l9 129.5-14-81.5-6-71" />
    <path fill="#5a6d08" d="M511.8 569.4l12.4-18.7-10 47 13.5-29" />
    <path fill="#1e2109" d="M760 505l-105.4-35.6 99.4-14-65.7 32.7" />
    <path fill="#252604" d="M612.8 551l-5 18-17 .4-55.8 91" />
    <path fill="#718c01" d="M353.3 547.6L376 568l66.6-1.7-56.3 34" />
    <path fill="#4b4b1c" d="M615.2 568l-11 68.7-19.6-36 14.2 6" />
    <path fill="#a8de32" d="M928 59L792.5-28.7 776.3 14l73.2 23.7" />
    <path fill="#5f6612" d="M516 450l13.3 16.6-3.8 43.3 11-44" />
    <path fill="#5c631c" d="M513.6 408.3l6.5-2.3 6 8-7 22.6" />
    <path fill="#6b6931" d="M526.8 591l11.8 46.2 12-26-20.7 13" />
    <path fill="#b6b6bb" d="M302 646l22.8-30 16 1-9.7 45.6" />
    <path fill="#d3ec6f" d="M544.4 114l-35 66.2 39-18-55.6-47" />
    <path fill="#bfc1c7" d="M603.2 268.8L590.4 231l75.4-11.2 31 53.5" />
    <path fill="#0a1901" d="M469.6 215l-17 24-4 41.3 39-52.7" />
    <path fill="#828959" d="M707.3 447.6l-53.4-8 8 12.8 26-3.7" />
    <path fill="#7c8f01" d="M144.4 373.4l-16 4.4-18.2-50.4 26.2 27.4" />
  </g>
</svg>