<svg version="1.1" viewBox="0 0 1024 682" width="1024" height="682" xmlns="http://www.w3.org/2000/svg">
  <g fill-opacity=".5">
    <path fill="#779028" d="M293.5 588.5L250.8 561l31.5-9.7-13.8 54.7" />
    <path fill="#d0e450" d="M135 155l-23.5 14.7 68.2 59.7L224 143" />
    <path fill="#453c26" d="M797.3 456.5l31.5-7.6-99.8 10-9.4-13" />
    <path fill="#282c11" d="M835.6 484.5l-29.7-8.7 28-3 27-30.3" />
    <path fill="#212703" d="M554.2 417l29-17.8-21.7 4.2L528 439" />
    <path fill="#151704" d="M1005 455.8l50 21.3-59 33 42.4-63" />
    <path fill="#2e2e0f" d="M727.5 459.6l-12 5.5-24.6-3-10 17" />
    <path fill="#9aa77d" d="M673.2 161.6l168.2-6.7-89.2-4-24 14" />
    <path fill="#525830" d="M587 558l16.3 5-9.3-16.5-2.4 10.5" />
    <path fill="#8b9433" d="M424 372.4l10.3 8.4-1.2-6.2-5-40.3" />
    <path fill="#695729" d="M541.4 578.3l6.3 8-6 19-2.5 13.8" />
    <path fill="#9bbf32" d="M430 524l-24.5 11.5-4-13 18.7-21.3" />
    <path fill="#bae440" d="M799.7 71.3V45l-55-2.8L764 70.6" />
    <path fill="#d7ee66" d="M423.3 197.5l-14-31.3 96.2 8 51.5-28.8" />
    <path fill="#99b925" d="M207.7 514.3l1 32.3 22.4-14.4-10-5" />
    <path fill="#8d9e6e" d="M-8.2 350.4l1-.5 12.8 23 4.8-36" />
    <path fill="#acca35" d="M417 341.3l9.2-35.8-63 42.6 17.8 18" />
    <path fill="#69722c" d="M180 602l-28.4 16-52.3-24.7-4.3 21.2" />
    <path fill="#71862e" d="M436.5 680.2l-28-1.4L300.7 713H375" />
    <path fill="#c2da37" d="M19 176.5L8.2 214.3l-25.4-51 75.7.6" />
    <path fill="#708f00" d="M92.6 397L55 389l65.5 51-17.2 12.3" />
    <path fill="#000002" d="M897.6 430l-110 17.4 13-9L891 448" />
    <path fill="#000300" d="M750.4 668.2l5.3 40.6-30.4-71.3 39.2 4" />
    <path fill="#464920" d="M623 583.8L593.6 615l-8.4-1.5 43.6-40.3" />
    <path fill="#95c129" d="M266.2 511.5l-6-17.8-28.8 14.7 9.3 5" />
    <path fill="#b6e24a" d="M188 77l29.8 7-3.5 13.8-38 3" />
    <path fill="#0d0b01" d="M554.5 287l16.6 24.5-35-11-32-50" />
    <path fill="#abcd1f" d="M279.7 399l-29-23.5L319 347l-26 49" />
    <path fill="#020d00" d="M567 646.8l15 43.7-1-72.5-12.8 8" />
    <path fill="#9ac000" d="M177 473.6L108 486l-41.5-4.5 31-26" />
    <path fill="#c8e954" d="M285 121.7l181.8-49.4 75.5-7-68 40.8" />
    <path fill="#8fb922" d="M338 502.5l13.2-24.3L369 492l-21 15.7" />
    <path fill="#8f8f95" d="M1055 254.7l-39.7 100 39.7 17-34.8 15.3" />
    <path fill="#c5db52" d="M430 282.4l-117-60.6-79 18.3 86.3 36" />
    <path fill="#a0c800" d="M430.6 385.6L401.4 471l24.7 29.8 3-44.6" />
    <path fill="#b4cc6b" d="M970.5 223.3l42.8 29.3-48.3-21.4 20.8-13" />
    <path fill="#484b1b" d="M-14 650.6l-17-94.3 52.7 98-31.6-.6" />
    <path fill="#44482d" d="M880.8 460l7-1.2 9.6 2.8-22.8 2.2" />
    <path fill="#969687" d="M690 400l-26.2-29.5-10.8-57.3-21-27" />
    <path fill="#88a701" d="M299.8 561l-.5-23-65-26 1.8 31.7" />
    <path fill="#2f2f24" d="M1014.3 440l-2 2.7H975l12.7-4.3" />
    <path fill="#bfd13d" d="M276 281.2l-42 16-8-38.6 32.5-8" />
    <path fill="#868669" d="M448.4 603l4 64.4-4-40.6-10.4-12.5" />
    <path fill="#030500" d="M959.7 452.4l-42.8 2 69 16.6v131" />
    <path fill="#726635" d="M541.2 623.5l-4.6 16.4 8-7-5.6-29" />
    <path fill="#0b0e00" d="M787.2 431.8l-64 101.6L847 696.8l-105.6-161" />
    <path fill="#191d01" d="M569.7 384.6l42 5.6-17.2-14.6-19.4-18.3" />
    <path fill="#88a81c" d="M124 560.4l6.3 3.5-28.8-2-1-23" />
    <path fill="#b0df47" d="M884.7 51.3L784 47l-53.6-23 171.3 12.3" />
    <path fill="#484b07" d="M520.4 442.5l5.7 83-9 2 13-43.7" />
    <path fill="#181600" d="M492.4 670l-7.6 43-5-11.8-5.8-89.8" />
    <path fill="#7dba1a" d="M917.7-22.4l96.2-1.8-12 31.5 38 50.7" />
    <path fill="#b9bcc3" d="M993.2 248.8l4 15-185.7-21 177.5 5.7" />
    <path fill="#8bb200" d="M99.2 508.4l8-16.5-9-18L79 505" />
    <path fill="#465f02" d="M575 468.2l6.6-3.2-20.4 2.4 3.8 15.2" />
    <path fill="#586d00" d="M32.2 601l60.5-17-2.6 35 8 1.2" />
    <path fill="#1d2905" d="M723.4 466.2L743 482l-56 6.5 25.6 11.3" />
    <path fill="#bde946" d="M554.6 53.7L452.3 70.5 369.6 99l103-64" />
    <path fill="#949687" d="M312.3 601l5 18-45.3-15 116.2 7.8" />
    <path fill="#748b41" d="M340.4 559.3l29 31.2-68.2 13 35-15.7" />
    <path fill="#6f6b40" d="M629.8 444l-40 25-8-35.4 37 25.3" />
    <path fill="#171302" d="M894.3 625.6l50.4-48-109.5 115 93.2-38.3" />
    <path fill="#93ad00" d="M65.6 338.6l-21.2 3 10 25 12 9.8" />
    <path fill="#061800" d="M508.3 520.4l4.8 6.6-5 24.7-26-35" />
    <path fill="#b8b8c0" d="M848 282l69-13-82 54.3 44 .4" />
    <path fill="#a7adb0" d="M729.4 382l49.6 22.2-48.5-1.5 30.8-29" />
    <path fill="#a1ab9b" d="M995 247l60 59.3-25.7 78.8 18-132" />
    <path fill="#adadaf" d="M180 625l54.6 55.6 72.5-7.2L187 625" />
    <path fill="#abd300" d="M312.7 368L293 478l46.4 1.4 13.7-50.2" />
    <path fill="#3d3207" d="M540 616.5l4.5-5.8 8-28.6-17 42" />
    <path fill="#202202" d="M611 631l7 14 28.2-9.3L667 661" />
    <path fill="#acdf2f" d="M156.7 90.6l44.5-7.4-66-22-50 27.2" />
    <path fill="#b1b2b1" d="M302 618.2l-9.7 21.6-48-20 40.3-11.6" />
    <path fill="#323019" d="M585.4 399.5l16.4-29.7 2.2-33.2-12.4 63" />
    <path fill="#798e42" d="M180.5 604.4L156.7 571l48.2 26.2 30 1.8" />
    <path fill="#627200" d="M106 389.2l-20-10.4-23.7 5.2-10 13.4" />
    <path fill="#9fd724" d="M865.2 29.6l-1.2-19-25.3-.8-5.2 11" />
    <path fill="#23240e" d="M954.8 464.7l-3-1L953 475l25.3-16" />
    <path fill="#a3a8ab" d="M829 326.4l37 1.7-19 72 21.2-22" />
    <path fill="#91b000" d="M72.7 435l-22.4-34 42.6 8.4-11 .2" />
    <path fill="#88ae00" d="M34.4 530.7l21 49.2-33.4-9-10-103" />
    <path fill="#020600" d="M867 518l-52.2 4.5-72-50.4-4 21" />
    <path fill="#787463" d="M682.5 338l-4.6 5.7 61 61-10 19" />
    <path fill="#585245" d="M585.3 401.7l26.3-16 .6 38 7.7 2" />
    <path fill="#bcc2cd" d="M826.5 174l-17 1.3 110.5 63L796.7 161" />
    <path fill="#9a9a88" d="M621.2 307l-29.8 6.3 51 44.5-4.6-41.7" />
    <path fill="#506307" d="M519.5 573l-3.6-55.2 3-90.8v66" />
    <path fill="#b7cf38" d="M835.6 139l7.5-.7-61 3.7 83 11.8" />
    <path fill="#749116" d="M317.4 573.7l22.2 12.4-79 5-3.3-15" />
    <path fill="#212205" d="M713.4 581.7l27.4 13-18 42 2-60.4" />
    <path fill="#9f9e89" d="M237.8 638.7L208 615l-4.6-5.5 42 14.8" />
    <path fill="#a9acb1" d="M1055 355.6L980.2 340l74.8-20-106.3.4" />
    <path fill="#606a09" d="M525.6 647.6L521 544l-5.4 45-2.5 6.2" />
    <path fill="#6d6c23" d="M83 610.4L59.6 627v10.6l44.3-18" />
    <path fill="#959899" d="M776.5 384l-77-22L815 402l-48.5 7" />
    <path fill="#9c9ea2" d="M958 338l20.3 16.8 17.8 5.7-33-43.8" />
    <path fill="#6f9f00" d="M136.6 376l2.6-4.3-7.7 46.2 65-24" />
    <path fill="#262412" d="M920.8 607.7l10.5-34.4-7-2.2-12 41" />
    <path fill="#030402" d="M734 436.8l2.3-18-2.8-7 17.8-4" />
    <path fill="#889269" d="M523.5 540.3l.3-15.3 5 3-4.7 15.6" />
    <path fill="#daec60" d="M200.2 183l6.2-9 51.4-9.6-10.5 35" />
    <path fill="#76756e" d="M347.5 656.6l35.8 55.3 20-24-67.3-16" />
    <path fill="#aaaba5" d="M692.8 259l-33.2 64.6-3 58.8-14.4-21" />
    <path fill="#1e1c01" d="M635.2 569.5l-26.8 37.2 33.5-7.2 11-29.5" />
    <path fill="#93ac36" d="M16 328.3l26.4-7.3L19 356.8l-5.8-2.4" />
    <path fill="#030700" d="M614 713l40.4-137.8 11.8 25.3-35.8 4.8" />
    <path fill="#251f09" d="M566.3 324l17-11 39.7 66.8 15.4-8" />
    <path fill="#648500" d="M163.6 547l27.4-5-7.2 31.2-23-8.2" />
    <path fill="#8d8c92" d="M166.7 713l10.3-36.3L48.7 702l-1.2-55" />
    <path fill="#161d00" d="M594.8 541l-25.2-4.7 20.2 15-7.8 9.4" />
    <path fill="#a2c30f" d="M47.7 276.2l-9-4.3-10 30 23.6-1" />
    <path fill="#8fb201" d="M198 432.8l-28.8.6 36-61.4 35.5 27" />
    <path fill="#9c9b9d" d="M955.2 370l41.6-5-75.7 9.3 47 22.4" />
    <path fill="#655f43" d="M588.6 419.4l-27 12.4 37-12 72 38.4" />
    <path fill="#5e644c" d="M595.2 525.8v-7.5L610 527l-8.6 9.7" />
    <path fill="#bce833" d="M401 64.5L231 94l153 2.3 2-29" />
    <path fill="#7a9621" d="M435 508.7l4.7 57.4-13.7-6 6-69" />
    <path fill="#514421" d="M612 419.2l-43 12 1.2 12.5-20.8-10" />
    <path fill="#282d17" d="M898.2 448.7l-28.8 6.4-53.3 6 43-15" />
    <path fill="#616527" d="M450.8 549.4l-6-48.8-4.2 13.2 2.4 60.6" />
    <path fill="#223009" d="M452.8 293.6l21.5-31 13.2 10-23.3 24.4" />
    <path fill="#a0d12d" d="M106 64.3l-71.7 44.5-65.3 7L35.7 82" />
    <path fill="#aaca02" d="M179.2 512l-8-22 30.5 26.7-12.2-54.2" />
    <path fill="#343604" d="M585.7 651.6l5.6-45.2 23.8-15-28 3.3" />
    <path fill="#cae74a" d="M594.4 74.8l-14.8 25.4-25.6-1-53.2-21" />
    <path fill="#83a500" d="M174.4 389.6v25l32.2 4-5.4-24.3" />
    <path fill="#3e372a" d="M574.2 300.6l24 31.6-53-56-29-34.2" />
    <path fill="#141703" d="M681.8 498.3l-58.2-2 29.7-1.6-52-34" />
    <path fill="#9e9e9f" d="M326.4 674l19.5-38 20 27-40-9" />
    <path fill="#c9e044" d="M868.6 148.5l33 54 7.2-69-108.8 1.7" />
    <path fill="#070600" d="M983 639.7l-6.4 13 54 45.8.5 14.5" />
    <path fill="#101201" d="M945.3 529.6l30.2-16 5 10.2-42.6-20.3" />
    <path fill="#8eb200" d="M153.5 497.3l-37.5-60 38-32L125.2 522" />
    <path fill="#665f44" d="M581.4 421l-8.5-14.7 64-18.3-41 7" />
    <path fill="#d3e84c" d="M778 135.3l-16.7-46.7L793 75.2l42.5 62" />
    <path fill="#181c01" d="M769.5 644.5h23.7l-18.2-17-24.3-1.2" />
    <path fill="#9abc22" d="M162.7 525.5l6.4 5-2-16.5-16 12" />
    <path fill="#b2b4ab" d="M380.6 640.5l15.7 3.8-4-18.5-78-14.3" />
    <path fill="#565042" d="M676.7 395.4L687 432l-93.7 10.5 107-17.2" />
    <path fill="#a0b51f" d="M170.6 343.2l-63.4-12.5 33 21 26-2.5" />
    <path fill="#1b1906" d="M835 471.3l38 19 2 26.6-30-50" />
    <path fill="#82a92c" d="M4 472l-5.8-11.3-29.2-25.5 51.5 28.3" />
    <path fill="#abb2b5" d="M794.5 383l9.7 9.8-68-7 5 17" />
    <path fill="#acb888" d="M512.6 189.8l48.7-11.5-75 26-14.7-5.5" />
    <path fill="#5d6312" d="M84.6 357l13.7-23 10-.4-33 5.7" />
    <path fill="#99ae68" d="M448 659.8l-22.5 3.4 13 12 9-11" />
    <path fill="#4b5234" d="M610.5 578.4l2.8-21-1.4 2.4-8 12.5" />
    <path fill="#bee23e" d="M143.2 88.5l-34.4 7.8-2.6 18 76-8.4" />
    <path fill="#92a39a" d="M868.4 200.7l26.8 12-1.6 1.5-8.7-14.7" />
    <path fill="#061600" d="M529 505.3l21 7.5-17.6 13L563 463" />
    <path fill="#657839" d="M254.2 594.6l-4-16H231l1 19.7" />
    <path fill="#a0d644" d="M112.2 71l5-28-24.7-1.5-18.7 20" />
    <path fill="#000400" d="M643.4 495.5l7-1 23.4-18 17.3 11" />
    <path fill="#091100" d="M821.6 458.4l46-1.2 24.5 27 71-9" />
    <path fill="#c4c4c7" d="M550.8 229.4l-18.5-18.7-1.4-11.5 47 29" />
    <path fill="#dbea5c" d="M550 169.2l-12.3-23.5 114.4.7-58 19.2" />
    <path fill="#87867c" d="M533.7 250.2l8 17.4 36.3 22-44.3-43.7" />
    <path fill="#77a700" d="M51 498.6L47.5 449 27 442l-9.8 34.6" />
    <path fill="#aeaeb5" d="M967.4 369.5l37.2-10.6-121.2-9 171.6 39" />
    <path fill="#474610" d="M441 581.2l18.3 31.6-11-67.6 9.3-15.4" />
    <path fill="#7b8056" d="M674 440l-61.5 12 10.3-10 47-4.8" />
    <path fill="#519819" d="M35.6 21l-27 7.4 123-59.4H15" />
    <path fill="#192300" d="M515.5 496.2l-49.3-47.7L485 536l32-71.3" />
    <path fill="#434229" d="M639.7 510.6l11.3-94-9 83 16.7 7.6" />
    <path fill="#a8a8af" d="M1035.7 374.7l-162.3 11 51.3-36.6-8.3 42" />
    <path fill="#c1c7d0" d="M1041.4 310l-67.3 9-17-10.7 22-3.8" />
    <path fill="#312e12" d="M601.5 367l-29.3-15 39.6-12 10.4 16.6" />
    <path fill="#7c6f41" d="M558.8 431.6L538.3 443l12.8 5-8-18" />
    <path fill="#4e4d1b" d="M590.8 501.4l6-8-15.3-9-10 17.4" />
    <path fill="#828052" d="M111.2 618.7L90.6 642 64 643l84.8-26.5" />
    <path fill="#0e1904" d="M480 207.3l-31.5 92L445 282l11.4-30.6" />
    <path fill="#6d6552" d="M647.2 423.2l-25 17 14-25-47.8 17" />
    <path fill="#312f24" d="M941.2 443l-33.7-1.5 44.3-4.5-3.5 7.7" />
    <path fill="#88944b" d="M280.4 600.3H175.8l64.4 5.3-28.6 11.3" />
    <path fill="#52521d" d="M29 608.3l25.7 3.3-2.3 6.4-5.7 13" />
    <path fill="#231607" d="M546.4 685.2l-12 14.6 25 11.3-9.6-47" />
    <path fill="#8cca2c" d="M878.7-20L1002 29.5l-53.8-3.8-49.6-12.2" />
    <path fill="#4e4a2f" d="M665.5 471.4l-40.8 1.7 47 5-62-76" />
    <path fill="#060400" d="M946.6 626.6l-31-11.6 47-44.6-50.3 86.2" />
    <path fill="#292d17" d="M883 197.3l-15-17-9.5 10 .5-4.6" />
    <path fill="#1c1f06" d="M673 526.5l-42.6-57.8 27.3 46.5-6.5 13.8" />
    <path fill="#040b00" d="M550.6 518.2l-20.3 34 20.2 7-12.2-54" />
    <path fill="#1c1a12" d="M1007.3 631.5l47.7-27.8-74.8 14.6 31 55" />
    <path fill="#4b4c1c" d="M603.6 619l-12.2-24-7.5 16 21-13.2" />
    <path fill="#bdd754" d="M104 248.6L90 274l93.6 4.7-8.5-39" />
    <path fill="#3d422c" d="M918 461l-17.7-7.6-23 8.5 43-3" />
    <path fill="#adc648" d="M679 152.5l53.8 1 137-8-103.4-.7" />
    <path fill="#757059" d="M732.8 442.6L731 392l-2.6 18.2-3 39.8" />
    <path fill="#1d1e08" d="M572 400.3l-44.8 28.2-1.6-5.5 43.8-9.5" />
    <path fill="#6d9e00" d="M17.7 504.2l-15.4 71-33.3 48.5 4.3-172.7" />
    <path fill="#a0ca00" d="M272.3 377l-96 93.6 89.5 10-27.2-97.2" />
    <path fill="#2b3705" d="M546.4 497.6l39.2-16.3-62.4 39-4.5 7.4" />
    <path fill="#6c6b57" d="M728 385.3l-26.4 18 3-12 6-11" />
    <path fill="#759027" d="M233 601.6l-26.5-46 16.4 15.8-61 8" />
    <path fill="#a7d110" d="M295.3 364.7l61.4 30 2 50.6-48-89.6" />
    <path fill="#73a300" d="M124 542.7l-6.7 8 50.2 6.5-35-28" />
    <path fill="#d8e953" d="M234.8 211.6l-35-7L354 155.4l9 40" />
  </g>
</svg>