<svg version="1.1" viewBox="0 0 1024 682" width="1024" height="682" xmlns="http://www.w3.org/2000/svg">
  <g fill-opacity=".5">
    <path fill="#2d2d10" d="M597 478h85l108-16-122 2" />
    <path fill="#b3d238" d="M-31 112l86 154-86-41L93 102" />
    <path fill="#484c0e" d="M604 644l13 1-11-52-19 6" />
    <path fill="#559100" d="M15 504l-25 92 42-7-63-132" />
    <path fill="#050c00" d="M745 469l-16 244 68-251 197 32" />
    <path fill="#606b00" d="M541 713l-24-132 1 33-2 52" />
    <path fill="#1a1d02" d="M606 528l-8 74 78-22-70 15" />
    <path fill="#1d2601" d="M485 555l18-69-59 94 43 55" />
    <path fill="#add500" d="M313 524l-11-92 98 9-134 56" />
    <path fill="#838284" d="M814 153l31 2 13 22-24 1" />
    <path fill="#aed65a" d="M519 22l88-16-86-35-126 49" />
    <path fill="#212200" d="M586 426l-10 20-30 13 16-23" />
    <path fill="#6a613a" d="M566 456l70 15-59-36 43-13" />
    <path fill="#5b5348" d="M626 381l-78 42 131-36-3 33" />
    <path fill="#362e0c" d="M527 336l76-2 7 36-62-14" />
    <path fill="#8bc521" d="M126 4l-157 97 76-5-2-55" />
    <path fill="#83a600" d="M217 530l90 42-51 25 107-81" />
    <path fill="#6a7900" d="M77 343L22 459l-1-111 103 92" />
    <path fill="#5dab19" d="M11 24l-42 37 144-73L40-1" />
    <path fill="#191f05" d="M588 399l-44 23-17 33 8-44" />
    <path fill="#848b6a" d="M377 617l61-10-102-3 11-36" />
    <path fill="#b8d73f" d="M973 49l82 140v21L875 27" />
    <path fill="#76766a" d="M321 676l22-17 98 52 251 2" />
    <path fill="#898775" d="M689 397l-28-70 90 31-56-12" />
    <path fill="#819c21" d="M289 592l-40-38 104 5-6 20" />
    <path fill="#b0d700" d="M437 493l-55-45 17-71 10 5" />
    <path fill="#c9e052" d="M407 207l18 84-67-6-159-60" />
    <path fill="#415300" d="M522 455l-8-56 2 140 13-48" />
    <path fill="#b6babf" d="M662 295l311-19-124 28-188 22" />
    <path fill="#000200" d="M717 433l-39-38 19 9 15 46" />
    <path fill="#c5c6cc" d="M524 191l74 13 373 45-375 3" />
    <path fill="#a8abae" d="M879 365l-107 29 186-10-193-84" />
    <path fill="#685d3c" d="M731 459l-115 8 40-13 78-12" />
    <path fill="#b8d358" d="M50 235l123 16-58 68-19-52" />
    <path fill="#b0ce52" d="M364 304l21 27-39 39-33-36" />
    <path fill="#afcc27" d="M171 489l-2-20 21 7-7 22" />
    <path fill="#a8c530" d="M91 266l29 72-151-149 94 108" />
    <path fill="#aade39" d="M385-31h-10L107 63l230 9" />
    <path fill="#000001" d="M1005 439l50-26-84 5-149-8" />
    <path fill="#202b01" d="M521 591l-69-161 74 172-1-60" />
    <path fill="#638005" d="M147 609l-75-20 126-12-24-44" />
    <path fill="#010001" d="M740 446l158-23-87-15-77 9" />
    <path fill="#5d5d5c" d="M986 416l-31-12 2 6-34 1" />
    <path fill="#7e831e" d="M51 368l-9 31-15-13 4-33" />
    <path fill="#132700" d="M526 531l45-36-37-34 26-19" />
    <path fill="#474c37" d="M607 562l7 31 11-5-15-20" />
    <path fill="#5a551e" d="M446 539l17 148 13 4-30-90" />
    <path fill="#1d1d00" d="M613 596l-3 34 60-65-10-8" />
    <path fill="#2d5518" d="M3-31h-34v76L21 4" />
    <path fill="#6e6e5d" d="M56 643l-46-22 31 41-64 17" />
    <path fill="#1c2200" d="M570 560l16-63 7 57-9-5" />
    <path fill="#8d9f53" d="M441 678l-59-7-50 35 121-48" />
    <path fill="#aeb0b3" d="M731 400l32 3-58-44 38 5" />
    <path fill="#010800" d="M614 704l45-105 1-23-39 46" />
    <path fill="#d0ea62" d="M378 120l256-32-145 102-111 13" />
    <path fill="#92a702" d="M15 355h57l10-12-57-3" />
    <path fill="#a6a89b" d="M208 667l-73-33 110-20 19-8" />
    <path fill="#3a3b1f" d="M841 462l-76-7 54-6-7 20" />
    <path fill="#a4b851" d="M427 372h-35l33-31 4 15" />
    <path fill="#50503a" d="M517 223l-13-16 21 6 8 53" />
    <path fill="#b9d83d" d="M178 278l67-41 100 76-21 18" />
    <path fill="#505329" d="M557 412l26-28v15l-42 10" />
    <path fill="#89c43e" d="M324-31L110 30 56 46l87-66" />
    <path fill="#898d8e" d="M812 392l81 20-83-7-38-6" />
    <path fill="#c0df4d" d="M952 140L874 36 764 65l205-1" />
    <path fill="#182600" d="M543 677l16-7-29 40 7-79" />
    <path fill="#484337" d="M711 393l-17 14 5-5 26 41" />
    <path fill="#717431" d="M527 670l1-143 4 103-2 79" />
    <path fill="#d4e856" d="M607 176l-25-4-78 13 263-88" />
    <path fill="#94a605" d="M438 379l-10-11-3 138 8-14" />
    <path fill="#241e19" d="M549 425l107-14 6 6-20-8" />
    <path fill="#293500" d="M582 671l27-55 11 8 1 28" />
    <path fill="#0e1200" d="M458 418l63-77 4-88-85 68" />
    <path fill="#020400" d="M892 594l9 25 54-136-79-10" />
    <path fill="#9e9d8c" d="M423 605l30 38-14-38-86 17" />
    <path fill="#a0b43d" d="M785 152l45-8 38 12-44 1" />
    <path fill="#7b7739" d="M117 606l-33-18 54 32-83 22" />
    <path fill="#837347" d="M551 422l-14 24 11 6 3-17" />
    <path fill="#adbe53" d="M1018 256l37-52-85 23 83 53" />
    <path fill="#646b5b" d="M600 539l-2-20v7l14-9" />
    <path fill="#000300" d="M551 511l-10-16-3 31-1 81" />
    <path fill="#0e0d00" d="M576 306l-105-72-10-28 84 112" />
    <path fill="#211b07" d="M646 383l-8-15-12-6-61 27" />
    <path fill="#d4dde5" d="M838 357l-12-7 16-4-4 6" />
    <path fill="#8da254" d="M36 309l-48 83 5-34 23-49" />
    <path fill="#c3d731" d="M890 142l116 60-100-3 41-71" />
    <path fill="#b0e328" d="M217 84l25-26 147 16-40 11" />
    <path fill="#020600" d="M627 533l22-52 41-4-70 29" />
    <path fill="#92b800" d="M174 471l-36-68-62 157 34-4" />
    <path fill="#6c9900" d="M84 436l50-18 55-3-31-28" />
    <path fill="#484428" d="M612 488l21-5-45-77 35 71" />
    <path fill="#323436" d="M862 174l15 12-1 19-21-30" />
    <path fill="#9c9e9c" d="M876 334l-16 47-113-28 92 7" />
    <path fill="#5c5b1f" d="M78 621l-96-30 83 51-6 2" />
    <path fill="#040300" d="M1038 537L852 709l150-185 33-17" />
    <path fill="#c3d8ad" d="M900 208l-10 6 84 18 19 17" />
    <path fill="#628800" d="M246 575l25 19-29-49-25 18" />
    <path fill="#a9abb4" d="M1029 387l-141 14 137 4 2 9" />
    <path fill="#1c1b00" d="M754 655l5 45 23-77-21 7" />
    <path fill="#a9d100" d="M343 432l-159 56 71-109 96 47" />
    <path fill="#27230c" d="M808 671l58 3 16-102 10 37" />
    <path fill="#b0e33d" d="M469 56l-307-7 335-24L696 3" />
    <path fill="#131901" d="M731 508l-1-63 9 24 162-2" />
    <path fill="#9ea266" d="M255 609l-18 10-38-4 13-13" />
    <path fill="#d2ec61" d="M285 118l-53 1-7 84 33-17" />
    <path fill="#6a7810" d="M440 351l-2 75-10-78v-47" />
    <path fill="#9a9ba1" d="M981 347l74 67-10-82-117 2" />
    <path fill="#81ad00" d="M71 492l-86 42 55 28-50-96" />
    <path fill="#394a00" d="M134 381l-26-3-5 21 20 8" />
    <path fill="#6a7146" d="M375 591l-18-20-1 32 26 5" />
    <path fill="#c2dc2e" d="M86 220l21 3-1-40-28-3" />
    <path fill="#c7e03b" d="M845 118l29 35-98-13 42-17" />
    <path fill="#a8a898" d="M686 380l-34 4-8-33 39 38" />
    <path fill="#86bd25" d="M970-13L931 7l112 65 8-3" />
    <path fill="#abada5" d="M541 258l49-10-94-55 38-4" />
    <path fill="#6e9900" d="M325 553l9-14-19-12-37 26" />
    <path fill="#282107" d="M640 673l41 40 25-58 45 58" />
    <path fill="#5a5521" d="M589 497l-9-14-30 53 11-34" />
    <path fill="#3f3a2c" d="M594 434l6 4 64-8 40 5" />
    <path fill="#76723b" d="M581 458l16-9-11-17-23 79" />
    <path fill="#afcf37" d="M428 303l-43 73 28 12-50-90" />
    <path fill="#b2d444" d="M244 258l-130 15 109 68 17-81" />
    <path fill="#a8cb31" d="M185 379l40-32-44-43-22 4" />
    <path fill="#49433d" d="M10 390l-4-26-37 77 31-37" />
    <path fill="#6c6c28" d="M540 614l-15-18v49l22-70" />
    <path fill="#a8da28" d="M46 110l127-42L10 87l40 17" />
    <path fill="#898986" d="M507 207l-27-11-4 17 13-2" />
    <path fill="#797663" d="M726 381l-29 15-15-63 52 93" />
    <path fill="#acadb5" d="M825 281l-101-3 212-24 108 9" />
    <path fill="#899b2d" d="M867 162l31 43-1-4-13 3" />
    <path fill="#38361a" d="M497 235l20-28 6 16-66-13" />
    <path fill="#6e9200" d="M100 606l10-34h62l-41-40" />
    <path fill="#4e4b17" d="M587 530l-24 1 14-15-2-8" />
    <path fill="#869c21" d="M435 559l4-97-11 72-19 1" />
    <path fill="#1d240d" d="M1014 450l-72 26 26-16 18-20" />
    <path fill="#7b8c32" d="M12 440l8 20-51 14v-50" />
    <path fill="#514d3f" d="M652 393l22 21 9-21-19-11" />
    <path fill="#110e01" d="M1001 665l-29-50-87 8-17 20" />
    <path fill="#5f573a" d="M564 436l-13 4 55-47-26-3" />
    <path fill="#6d665d" d="M603 433l-9-4 72-11-36-3" />
    <path fill="#c2d665" d="M442 197l85-23 133-8-114 16" />
    <path fill="#4f6400" d="M12 367l36 62-41 9 13-7" />
    <path fill="#021400" d="M515 616l-11-103 8 39-34 21" />
    <path fill="#65614b" d="M660 470l-15 5 16 3 18-128" />
    <path fill="#050f00" d="M590 590l-5 7-7 116-6-143" />
    <path fill="#050400" d="M710 622l75 84-122-81 26 72" />
    <path fill="#d2ea59" d="M771 87l7 41-116 18 55-102" />
    <path fill="#a5be2f" d="M422 217l10 11-13 69 3-67" />
    <path fill="#525226" d="M620 540l-4 11-7 16-6 55" />
    <path fill="#b5e351" d="M760 1l-37 37-241 10 271 21" />
    <path fill="#989863" d="M84 333l-4-17-10-13-18 23" />
    <path fill="#a8a9ac" d="M709 373l-13-26 79 55-31 2" />
    <path fill="#41310b" d="M567 600l-14-44-5-8 21-35" />
    <path fill="#989898" d="M43 665l15 6 39 4 16-37" />
    <path fill="#a6a7a1" d="M654 300l-28 47 76-26 18 32" />
    <path fill="#6a7b41" d="M209 602l-49 14 8-44-19 14" />
    <path fill="#d2ea50" d="M406 272l4 33 11-86-184-116" />
    <path fill="#191b01" d="M699 537l-17 62-83-23 133-9" />
    <path fill="#415b1c" d="M464 211l-39 42 15-24v-24" />
    <path fill="#b0b0b3" d="M282 669l-159-23 7 54 26-25" />
    <path fill="#99979c" d="M293 648l-11 65 79-28-26-5" />
    <path fill="#d1d1d4" d="M543 197l71-15 6 31-76 9" />
    <path fill="#cae04e" d="M234 243l-2-40-137-29 54 82" />
    <path fill="#abb1b4" d="M937 332l-212 8-53-12 3-19" />
    <path fill="#605a3b" d="M563 282l82 94-59-54-26-42" />
    <path fill="#acd512" d="M293 321l-45 1-4 12 48 8" />
    <path fill="#211d0e" d="M847 650l116 63 3-68 68 68" />
    <path fill="#1a2900" d="M544 520l19-86-32 118-2-62" />
    <path fill="#78b629" d="M15 31l86-7 32-27 28-28" />
    <path fill="#8db400" d="M266 546l156-54-213 50-7 6" />
    <path fill="#45491d" d="M596 553l13-18-36 37 36-11" />
    <path fill="#0d0f00" d="M606 503h-10l24-29-7-13" />
    <path fill="#323900" d="M446 340l9 130-14-82-6-71" />
    <path fill="#5a6d08" d="M512 569l12-18-10 47 14-29" />
    <path fill="#1e2109" d="M760 505l-105-36 99-14-66 33" />
    <path fill="#252604" d="M613 551l-5 18h-17l-56 91" />
    <path fill="#718c01" d="M353 548l23 20 67-2-57 34" />
    <path fill="#4b4b1c" d="M615 568l-11 69-19-36 14 6" />
    <path fill="#a8de32" d="M928 59L793-29l-17 43 73 24" />
    <path fill="#5f6612" d="M516 450l13 17-4 43 12-44" />
    <path fill="#5c631c" d="M514 408l6-2 6 8-7 23" />
    <path fill="#6b6931" d="M527 591l12 46 12-26-21 13" />
    <path fill="#b6b6bb" d="M302 646l23-30 16 1-10 46" />
    <path fill="#d3ec6f" d="M544 114l-35 66 39-18-55-47" />
    <path fill="#bfc1c7" d="M603 269l-13-38 76-11 31 53" />
    <path fill="#0a1901" d="M470 215l-17 24-4 41 39-52" />
    <path fill="#828959" d="M707 448l-53-8 8 12 26-3" />
    <path fill="#7c8f01" d="M144 373l-16 5-18-51 26 28" />
  </g>
</svg>