<svg version="1.1" viewBox="0 0 1024 682" width="1024" height="682" xmlns="http://www.w3.org/2000/svg">
  <path fill="#83963f" d="M0 0h1024v682H0z" />
  <g fill-opacity=".5">
    <g class="SVG--0">
      <path d="M456.6 713l598.4-4.6-28-253.8L430.7 250" />
      <path fill="#eeffb7" d="M187-31l800.2 61.8 67.8 383.5-354-9.3" />
      <path fill="#d6ff2c" d="M1055-11L-31 20.8 306.2 713l135.5-503" />
      <path d="M742.4 408.7l312.6 1.6-29.5 302.7-579.2-42" />
      <path fill="#b6aaff" d="M1055 302.2L805 408.8l-322.3-214L795.4 151" />
      <path fill="#bba8fd" d="M-23.5 680.4l448.3 24 31.5-94-240-7.6" />
      <path d="M478 713l-47.5-495.6 89.4-16 84 159" />
      <path fill="#7ca800" d="M447.2 595.4l-5.7-207.8-419.8-61.2L-31 622.6" />
      <path fill="#def75a" d="M-31 103.6l1086-36.2-923.4 222.3L11.3 332" />
      <path fill="#b4dd1e" d="M644 7.6L857 190l198 73.4V15" />
      <path fill="#9792b0" d="M651.5 395.8l-118-153L1055 334l-15 82.3" />
      <path d="M551.5 703.2l486 9.8 17.5-300-305.8.7" />
      <path fill="#add800" d="M432 424.8l-5.3-117.3L-31 528.7l463 23" />
      <path fill="#50591e" d="M597.7 575.6l-472 48.4L-31 675l26-107" />
      <path fill="#3e4500" d="M162 397.6l-55-64.8-138 58 34.8 48" />
      <path fill="#685c48" d="M731 386l-202.7 7 12 75.4 195.2-4" />
      <path fill="#050c00" d="M451.3 470.4L441 202l79.6 10.4 27.3 98" />
      <path fill="#444061" d="M885.3 210.6L787 151.3l71.4 7.4 33.3 37.5" />
      <path fill="#9de236" d="M355.2 99L-31 114 116.8-31l923.7 35.6" />
      <path fill="#d9dbe6" d="M1040 265l-248.6-96.7L576 184l-46.2 34.8" />
      <path fill="#d3ea60" d="M165.7 82.2L154 214.6l267.8 174.7 6-271" />
      <path fill="#84aa00" d="M95.5 401l-40.3-76L-18 589l476-28" />
      <path fill="#74810c" d="M544 645.2L514 374l1.6 238.4 6 91" />
      <path fill="#040500" d="M1055 500l-470-37.5 10.5 42.2L715 713" />
      <path fill="#46a20a" d="M-31-30.3l205.5-.7-126 76-66.7 73.8" />
      <path fill="#1e2100" d="M586.5 383.5L460.8 523l9-323.8 192.4 193.5" />
      <path fill="#b0b0b6" d="M450.2 662l13.8-27.6L321.8 589l-240 84" />
      <path fill="#2d3300" d="M639 608.4L404 599l20-24 96.8-182.2" />
      <path fill="#131200" d="M91.3 326.6l38.5 45.2-7 32.3-38.6-38" />
      <path fill="#827d7f" d="M-14 713l-17-40.6L95 626l157.8-39.4" />
      <path fill="#7c854e" d="M466.6 666l-158-3.5-15.8 35L465 694" />
      <path fill="#969187" d="M534 255.4L662 389l61.7-19.2L497 176" />
      <path fill="#b0b3bc" d="M978.3 232.7L1055 275v147.7L587 272.3" />
      <path fill="#838059" d="M684.7 414.4L565 463.6l153-6-34-28.4" />
      <path fill="#b7d53d" d="M-31 298l9.6-241.3 33 46.5 424.8 275" />
      <path fill="#a8d000" d="M29.5 576.7l404.3-204-16 149L264 290.5" />
      <path fill="#000003" d="M695.8 395.4l36 56.2-36.6-16.4-16.3-39" />
      <path fill="#010900" d="M517.8 713l-4.6-154.5-1.3-107.7-56 180.5" />
      <path fill="#cce64e" d="M730.7 22.3L607 155.7l271-.2L1055 95" />
      <path fill="#75be19" d="M1055-4L897-27l12.6 71 124.6 8" />
      <path fill="#719b00" d="M224.4 392.5l-73-32.3-72 90L234 415.8" />
      <path fill="#6c8912" d="M256 533l67-9.8 107.2 75.2-425-4" />
      <path fill="#8c9376" d="M492.3 185L423 214l85.8.6 35.4-29.5" />
      <path fill="#6f7724" d="M516.2 467l6 164.6 9 14.5 1.5-192" />
      <path fill="#839154" d="M128.3 565.6l255.8 53-32-55-122 61" />
      <path fill="#98999f" d="M881.6 414.8L635.8 321l244 41 175.2 43.2" />
      <path fill="#000200" d="M532 476l19.7-27.8.3 118.7-13.3 16" />
      <path fill="#c2d535" d="M1008 40.8l47 195.5-117.7-15.5-81.8-58.4" />
      <path fill="#6a5e18" d="M519 664.2l-1.8-146L548.6 683l18-174" />
      <path fill="#2b3210" d="M663.5 497.8l70.7-46.7 185.2-8 111-3" />
      <path fill="#303900" d="M18 393.6l-11-30-19.4 85 61-17.5" />
      <path fill="#292c20" d="M838 174l8.8 3.3 34.4-.5 4.6 28.8" />
      <path fill="#4b5f06" d="M115 595.5l-95.7-18.8-15-79L-31 681.4" />
      <path d="M1037.3 414l-3.4 43.5-222-45.8 175 4.5" />
      <path fill="#6d6857" d="M738 404.5l-8.7 40.5-66-99.6L675 337" />
      <path fill="#484e16" d="M590.6 525.3l30-.6-11 179.3-15-80.6" />
      <path fill="#b1d23a" d="M209.3 193.8l161.4 256.5L440.2 253 268.5 404" />
      <path fill="#9cb122" d="M-31 235.7l72.2-1 35 126-35 9.8" />
      <path fill="#a1a2a7" d="M783.8 406.7l78.7 6 192.5-73.5-359 29" />
      <path fill="#939f62" d="M658.5 157l176.3-12.6 59.6 48.4-20-24.5" />
      <path fill="#706b15" d="M468.8 526l-49.2 81 28.7-193.6-17 13.7" />
      <path fill="#b1e335" d="M426.8-17l-38.2 128.7L137 93l42-124" />
      <path fill="#82ac00" d="M-31 518.5L80.8 376.7l-16 171.5-3 58.4" />
      <path fill="#c5dd4c" d="M422 289l-196 30.5L-31 198l86.4-55" />
      <path fill="#91c830" d="M21.2 42l152-73L54 124l-70.3-.5" />
      <path fill="#abdb48" d="M880.8 65.3l-767.2-53L849-31l206 131.5" />
      <path fill="#bdbfbc" d="M405.3 673l-57-25.2 85-46.5 6.7 69" />
      <path fill="#abd500" d="M430 382.2l-17 83-275 62.5L288.8 381" />
      <path fill="#5d544b" d="M-25.6 590l25 51.4-30.4 64.4 98.5-74" />
      <path fill="#acabaf" d="M60.6 652.6l277-48 31.2 16.5-72.8 79" />
      <path fill="#cde85c" d="M656.8 14l-331 91.8-16.4 22 40.2 169.8" />
      <path fill="#7f7d58" d="M461.2 713l-20-116.8-190 14 207.2.8" />
      <path fill="#111900" d="M447.4 468l103-173.6-41.4-77.7-71.5 14" />
      <path fill="#597405" d="M428.7 258.4l6.2 165.8 8-215.8-16-.6" />
      <path fill="#97be00" d="M444 503.6L9.4 549.8 72 461.4 176 407" />
      <path d="M755.3 405l192 33.4-189 7.3-26.7-40" />
      <path fill="#2d710c" d="M28.4 16.5L-31 58.3V6L97.6-31" />
      <path fill="#9db059" d="M-31 269.8v105l236.2-117.2-168.4 52.7" />
      <path fill="#678900" d="M-19.4 605.8l196-30.5 106.7-9L182 532.8" />
      <path fill="#c0c3c6" d="M534 206l5 23 183.2 107 17-115" />
      <path fill="#010008" d="M646 402.7l-15 9.7 31.6 8.5.5-12" />
      <path fill="#2f270d" d="M836.2 707l-12.8-59L937 582.4 824 713" />
      <path fill="#706b4e" d="M812.6 456l-190-2.2L616 388l43 50.5" />
      <path fill="#aeae9e" d="M672 377.4l-18.6 7.2-21-34.3 16.5-28" />
      <path fill="#80753b" d="M558 437.5l-40 45 4-3.8 22.8-55" />
      <path fill="#adb2b3" d="M732.4 406.6l25.7.5 24-2-4-183" />
      <path fill="#655c50" d="M671.4 401l-118 17.5L633 385l94.2-3.3" />
      <path fill="#363200" d="M447.6 587l23.2 114 13-5-16-223.5" />
      <path fill="#d1e954" d="M689.4 65.3l-92 101L896 126.5l-22.8-72" />
      <path fill="#556000" d="M137.7 388.3L120 426l-69-40.5 35-15" />
      <path fill="#839b1d" d="M468.2 694l-7.7-36.3-22.2 13.6-85.7 13.8" />
      <path fill="#88ad00" d="M304 481l141.7 69.3-20.6 23.2-33 17" />
      <path fill="#b8d24f" d="M117.8 340.8l28.4-51.6 178-42.6L57 227" />
      <path fill="#d4e965" d="M543.6 187.3L411.8 194l-183.5-64L777 88" />
      <path fill="#313903" d="M549.7 319.6L582.3 447l-42 41 13.6-46.7" />
      <path fill="#000500" d="M581.5 698.4L579 574.8l-8-9.2-4.7 55.5" />
      <path fill="#999a83" d="M381 605.6L47.4 647.8l153-37.3 81.4-13.2" />
      <path fill="#9c9ca8" d="M1055 377.5v-59.8l-118.3 12.5-7 84.2" />
      <path fill="#77a700" d="M141 422.3l-16-73.7 51.3 14.8 19.5 56.2" />
      <path fill="#837d8a" d="M387 713h-71.4L285 659.7l74-4.6" />
      <path fill="#a2a99c" d="M589 173.4l180.5-20.8 62.6 27.6 30-20.5" />
      <path fill="#6e6657" d="M601.4 311.6l-20-16.5 33.3 55L520 244" />
      <path fill="#111300" d="M737.6 702.5l1-248.4-132.4 37 40.4 202" />
      <path fill="#030400" d="M894.4 464L942 636.4l113-83.5V453" />
      <path fill="#accc46" d="M427.8 348.5L351.4 258 316 323l21.8 56.3" />
      <path fill="#5a5c39" d="M512.5 425.7l64-38.2L653 399l-132.8 7.3" />
      <path fill="#bfc2ce" d="M1055 266.2l-173 19 91.8 34.2 80.8 13.2" />
      <path fill="#000200" d="M501 543.3L521.6 713l32-44.6-73.3 44.6" />
      <path fill="#63ae01" d="M1055-1.7V40l-.5 13.2L910.2-31" />
      <path fill="#aac439" d="M1055 40l-94.7 7 91.2 227.4-71.4-48" />
      <path fill="#c0cc96" d="M611 187.6L451 197l137-23.7 56-2.8" />
      <path fill="#dad9de" d="M701 205.5L840.6 187l-162.8-13.5-147.5 37.8" />
      <path fill="#819600" d="M130.3 459.4L56.3 339l-42.6 17L62 465" />
      <path d="M1055 423l-183-11.5-139.2-1 41 40.3" />
      <path fill="#493e02" d="M535.8 713l17.7-107.3 14 6.4 2.5 101" />
      <path fill="#a4a5a1" d="M530 228.2l12 35.4 113.3 28.6-109-60" />
      <path fill="#1b2200" d="M14 384.4l-45 45v-7l50.4 2.2" />
      <path fill="#010b00" d="M535 526.6l1.4 89.8 13-69 6-71" />
      <path fill="#afb4b4" d="M864.3 253.2L984 367.4l-221.4-17-138-65" />
      <path fill="#91ab48" d="M404 531.5l10-27.8 27.5-5-14.5 36" />
      <path fill="#b6e34e" d="M807.4 52.4l-199 25-68.8 20L360-31" />
      <path fill="#262801" d="M645.7 380l-18-22-109.3-45-38.8 98.4" />
      <path fill="#b0cb3c" d="M899 139.7l-163 14.6-137.8 17 106-27.3" />
      <path fill="#616125" d="M565 448.8l57.5-3.6-5.8-1.7-51.6 65.8" />
      <path fill="#758269" d="M8 376.7l7.6-79.3L-31 352v113.5" />
      <path fill="#767780" d="M992.2 405l-40 8.5-112.6-8.5 215.4 1" />
      <path fill="#130f01" d="M556.3 288.4l36.3 37.5-96.4-13-32.4-109" />
      <path fill="#818188" d="M85 639.6l17.4 44-129.5.4 75-36.2" />
      <path fill="#81aa00" d="M-31 540l448.4 19-334.6-36 42.7 74" />
      <path fill="#cbe443" d="M903.6 37.3l83.7 129.4-84.5 19-54-42.5" />
      <path fill="#101900" d="M94.4 362.3l-1-15.4 15.6 4 22 49" />
      <path fill="#1d2903" d="M435.5 243.3l9-17.3 88.3-8.5-95 147.4" />
      <path fill="#b0d525" d="M406.6 374l-30 71.6-35.2-15.6 31.3-87" />
      <path fill="#0d0e05" d="M683 381.3l23.4 52.3-14.2 9 34 4.2" />
      <path fill="#9bcf30" d="M821.3 28.7l-10.5-9 68-50.7L1055 73.8" />
      <path fill="#342d09" d="M556.8 541l36.7 73.8-5.4-154.2-11 16.8" />
      <path fill="#a0be1a" d="M167.5 310.2L103 329.8l74.6 55 29-9.6" />
      <path fill="#cee240" d="M13.4 150.8l143 27.6-2.6 28.3-144.5 18" />
      <path fill="#728c27" d="M230 562.7l123.7-3-34 46-193.4-27" />
      <path fill="#d8eb54" d="M159 159.7l272.5-3 2.6 68.8-346-35" />
      <path fill="#58530d" d="M455.7 475.8l12.4 9.6-19 138-16-299" />
      <path fill="#6d8f01" d="M69.3 443.4l-19-22.6-72.6 22 74.4 43" />
      <path fill="#413f22" d="M635.7 493.3l16.3 9-15.6 28 .2-15.4" />
      <path fill="#bce635" d="M413.7 52.7L8 97.4l314 12.2 121-13" />
      <path fill="#9ea2a1" d="M892.7 411.8L724 320l-37.7 3.4L734 404" />
      <path fill="#cfd5dc" d="M1012.2 257L758 168l-52.7 3.2 189 68.7" />
      <path fill="#a2a5b5" d="M1055 272.6l-62 6.6-18-34 62 9" />
      <path fill="#5f7605" d="M414 599.6l20-35.6-64.8 32 1.3 11" />
      <path fill="#4f512b" d="M592 534.3L609 641l-20.5-71.8 33.8-72.8" />
      <path fill="#8cb900" d="M406.4 506.6l-49.6-61.8L336 550.5l43.3 14.6" />
      <path fill="#90bb38" d="M259.5 493l6.6 32.5-25-10 6-21.5" />
      <path fill="#1f1a0a" d="M884.5 679.6l86.7-61.7 72-23L959 713" />
      <path fill="#99bc00" d="M156.4 527.6L32.6 544.8 94 412l-51-5.5" />
      <path fill="#9cd63e" d="M377.7-18.5l7.6 10L21 89.5 209.2-31" />
      <path fill="#586113" d="M534.5 431L516 406.8l3.6 41L533 431" />
      <path fill="#2f3526" d="M871.3 181.8l-30.4-3 46 23.8-4-7.3" />
      <path fill="#9cc008" d="M30.2 273l29.6 11.6-19.5 29.6-12.6-7.2" />
      <path fill="#625c50" d="M705.7 432.2l-80-81.4 56 92-88.6-21.4" />
      <path fill="#a1b23c" d="M895.5 219l-18-37.4-55.8-53.8 74 62.4" />
      <path fill="#303024" d="M994 438.5l21.5 3-112.2 1 74.5-7.8" />
      <path fill="#162400" d="M449.5 466.5l65 131.6-7-224-59 57" />
      <path fill="#96bf36" d="M365.3 492L345 504.4 326.6 490l8.4-16" />
      <path fill="#6c6a36" d="M105 343.6l5.3-11L85 321.4 76.8 343" />
      <path fill="#92af29" d="M435 193.6l-7.3 194.6-12.2-54.4 1.7-16.5" />
      <path fill="#121700" d="M827 662.7l-207 7-51.8-84 1.6 127.3" />
      <path fill="#556a00" d="M51 612.3l36 18.2-2-48.7-116 10.6" />
      <path fill="#030400" d="M935.3 513.2L777.3 673l56.8 28.7-78-210" />
      <path fill="#3e4523" d="M920 456l-55.6 16.3 15.3-13 19.4-5" />
      <path fill="#555e33" d="M462.6 199.3l-5.7 4.2-22 14.5h65" />
      <path fill="#add623" d="M259.5 292.4L171.7 369l161.7-63.3-25.2 74.7" />
      <path fill="#a3bb3a" d="M422.3 203.4L476 185l-4.8 8.5-46 34.5" />
      <path fill="#939589" d="M653 296l-54.3-27.5L656 395.7l-11-51.4" />
      <path fill="#72825a" d="M532.2 551.2l-10-.3-4-14 11.8-9" />
      <path fill="#010500" d="M689.6 500.3l-80 75.3 21.6-3 175-57.2" />
      <path fill="#c0e153" d="M100 96.7L24 145l151.4 11 90-55.2" />
      <path fill="#888983" d="M458.2 204.4l69.8 4.3 9.4 55L519 193" />
      <path fill="#191702" d="M889.5 576.7l-27-21.6-30 92L991 555" />
      <path fill="#7a8153" d="M633.5 455.5l-37-10.2 79.7-11.5 29.4 10.5" />
      <path fill="#aacd3a" d="M252 342.2l24.5-7.5 16.6 59-57-29" />
      <path fill="#252403" d="M713.8 539l28 85.2-16.3 7.4-6.2 2.4" />
      <path fill="#736e5c" d="M725.5 452.4l15-55.5-124-10 97 2" />
      <path fill="#c0bfc9" d="M389.6 654l57.2-2.8-10.5-25.7-29.6-5.8" />
      <path fill="#737325" d="M433.4 559.6l5.6-127.8 19 100.5-18 34" />
      <path fill="#556920" d="M224.7 560.6l-1.5 28.7 19.6 4.5 8.7-24.8" />
      <path fill="#7f914c" d="M293 598.4l-79.3.3-67.4-18 46 34" />
      <path fill="#adadaf" d="M351.8 601.7l36 35.7-198 69 61-87.8" />
      <path fill="#3e430f" d="M-25.2 572.6l-5 61 46.5 27-33-111.8" />
      <path fill="#abacb2" d="M78 662.8l46.8 20.7 33.4-2.2-19.2-49" />
      <path fill="#5e4d1f" d="M528.2 594.4L557 570l-2.5 85-17.7-71" />
      <path fill="#050500" d="M589.4 480.4l20.3-9-15.8 46.2 25-17.3" />
      <path fill="#91bc00" d="M146.7 378.8l9.6-35.3 84.8 87.7 10-66" />
      <path fill="#c6e84d" d="M449.5 50L398 108l517.2-48-323.6 9.4" />
      <path fill="#353115" d="M784.5 490.6l26.6-37.8-107-10.2 124 34.6" />
      <path fill="#8ea631" d="M198.5 523.8l26.4 1.4-27 38 29 56.2" />
      <path fill="#96a8a9" d="M886 214l-42.8-22-32-18.5 89.5 34.8" />
    </g>
    <g class="SVG--1">
      <path fill="#2d2d10" d="M597 478l85-.3 108.3-15.2-121.8 1.5" />
      <path fill="#b3d238" d="M-31 111.7l85.7 154-85.7-41 123.6-123" />
      <path fill="#484c0e" d="M603.5 644l13.8 1-10.8-52.2-20 6.7" />
      <path fill="#559100" d="M14.5 503.6L-10 596l41.6-7.4L-31 457" />
      <path fill="#050c00" d="M745 469.3L729 713l67.5-251 197 32" />
      <path fill="#606b00" d="M540.5 713L517 581l1.3 32.8-2.6 52" />
      <path fill="#1a1d02" d="M606 528.4l-8.5 73.4 78.2-21.5L606 595" />
      <path fill="#1d2601" d="M485.4 554.5l18-69-59 94.2 42.7 55" />
      <path fill="#add500" d="M312.8 524l-10.6-92.4 98 9.3-134.6 56" />
      <path fill="#838284" d="M814 152.7l30.8 2 13.5 22.8-24.7.5" />
      <path fill="#aed65a" d="M519.4 22.4l88-16.3-86.7-35-126 49" />
      <path fill="#212200" d="M586.4 426l-10.8 20-29.4 13.3 15.8-23" />
      <path fill="#6a613a" d="M566 456.2l70 14.6-59-35.5 42.6-13.7" />
      <path fill="#5b5348" d="M626 380.8l-78 42 131-36.3-3 33.5" />
      <path fill="#362e0c" d="M527 335.8l75.6-2 7.4 36.5-62-14.4" />
      <path fill="#8bc521" d="M125.7 4L-31 100.8l76-4.3-1.7-56" />
      <path fill="#83a600" d="M217.3 529.5l89.2 42.7-50.7 25.2 107-81.4" />
      <path fill="#6a7900" d="M76.7 342.6L22.2 459 21 348.4l102.7 92" />
      <path fill="#5dab19" d="M10.5 24L-31 61l143.5-73L40-1.5" />
      <path fill="#191f05" d="M587.6 398.8l-43.7 23-17 32.8 8-43.8" />
      <path fill="#848b6a" d="M377 616.8l60.6-9.5-101.6-3.5 11-35.5" />
      <path fill="#b8d73f" d="M973 48.5l82 140.5v20.5L875.2 27" />
      <path fill="#76766a" d="M321.3 676.4l22-17 97.4 51.3 251.5 2.3" />
      <path fill="#898775" d="M689.3 397.2L661 327.4l90.2 30.8-56-12" />
      <path fill="#819c21" d="M288.6 591.8l-40-37.8 104.6 4.6-6.3 20.2" />
      <path fill="#b0d700" d="M436.8 493L382 448l16.8-71.2 10.5 5.2" />
      <path fill="#c9e052" d="M407 207l17.7 84.4-67-6.3L199 225" />
      <path fill="#415300" d="M522 455.2l-8-55.7 2 139.7 13.4-48.7" />
      <path fill="#b6babf" d="M662 295l310.8-19L849 304l-188.5 21.6" />
      <path fill="#000200" d="M716.6 432.8l-38.3-37.5 19 8.8 14.7 46" />
      <path fill="#c5c6cc" d="M523.7 190.5l74.5 13.3 372.6 44.8-374.7 3.6" />
      <path fill="#a8abae" d="M879 365.4l-107 29L958.4 384l-193-84.3" />
      <path fill="#685d3c" d="M731.4 459.2l-115 7.4 39.5-12.8 78-11.7" />
      <path fill="#b8d358" d="M50 234.5L172.6 251l-57.3 67.6-19.6-51.2" />
      <path fill="#b0ce52" d="M363.8 304.4l20.8 27-38.2 38.7-33.4-36" />
      <path fill="#afcc27" d="M170.7 489l-1.3-20.4 20.3 7.6-6.2 22" />
      <path fill="#a8c530" d="M90.5 265.6l29.7 72.3L-31 189l93.5 108.2" />
      <path fill="#aade39" d="M384.8-31h-9.4L106.7 63.4l230 8.2" />
      <path fill="#000001" d="M1005.3 438.7l49.7-26-83.8 5-149-8" />
      <path fill="#202b01" d="M520.8 591l-68.6-160.6 74.2 172L525 542" />
      <path fill="#638005" d="M147.2 609.4l-75-20.5 125.5-12-23.7-44" />
      <path fill="#010001" d="M739.6 446l158.7-23.3-87-15L734 417" />
      <path fill="#5d5d5c" d="M985.6 415.7l-30.8-11.5 2.5 5.5-34.8 1" />
      <path fill="#7e831e" d="M50.7 367.7L41.5 399l-14.7-13 3.7-33" />
      <path fill="#132700" d="M525.8 531l45-35.6-36.5-34.2 26-19.4" />
      <path fill="#474c37" d="M607 562l7.3 31.3 10.3-5-14.3-20.6" />
      <path fill="#5a551e" d="M445.8 539.2l17.6 147.5L476 691l-30.5-90.5" />
      <path fill="#1d1d00" d="M613 596l-3.4 33.6 60.8-64.8-10.6-7.8" />
      <path fill="#2d5518" d="M3.2-31H-31v76.2L20.8 3.6" />
      <path fill="#6e6e5d" d="M56 643L9.5 621l31 41.2-64 16.5" />
      <path fill="#1c2200" d="M569.7 559.7L586 497l6.5 56.5-8.5-4.7" />
      <path fill="#8d9f53" d="M441 678l-59.4-6.7-50 34.3L453 658.4" />
      <path fill="#aeb0b3" d="M731.2 400.4l31.6 2.2-58.3-43.4 38 4.4" />
      <path fill="#010800" d="M613.6 703.6l45.2-105 1.3-23-39 46" />
      <path fill="#d0ea62" d="M378.4 119.6l255.3-31.8L489 190.4 377.5 203" />
      <path fill="#92a702" d="M15 354.5h57.4L82 343l-57.2-3.4" />
      <path fill="#a6a89b" d="M207.8 666.6l-73-32.4L245 613.6l18.5-7.6" />
      <path fill="#3a3b1f" d="M840.8 462.4l-75.7-7.7 54-5.7-7 20" />
      <path fill="#a4b851" d="M427.3 371.7H392l33.3-31 3.8 15" />
      <path fill="#50503a" d="M517 223l-13-16.2 21 6 8.3 53" />
      <path fill="#b9d83d" d="M177.8 277.6l67.5-40.4 100 76-21.7 18" />
      <path fill="#505329" d="M557.3 411.6l25.5-27.6.2 14.6-42.5 10" />
      <path fill="#89c43e" d="M324-31L110 30.2 55.7 45.5l86.8-66" />
      <path fill="#898d8e" d="M811.7 392.4l81.7 19.8-83.5-7-38-5.7" />
      <path fill="#c0df4d" d="M951.7 139.7L874.4 36.4 764.2 65l204.8-.7" />
      <path fill="#182600" d="M542.7 677.3L559 670l-29.3 40 7.5-79.4" />
      <path fill="#484337" d="M710.7 393.2L694 406.7l4.8-5 26.7 41.5" />
      <path fill="#717431" d="M526.8 670.3l1-143.5 3.8 103-1.2 79.7" />
      <path fill="#d4e856" d="M606.6 175.8l-25-3.7-78 13 263-88" />
      <path fill="#94a605" d="M437.5 379.2l-10-11.3-2.3 138 8-14" />
      <path fill="#241e19" d="M549 425l106.7-14 6.2 5.6-20-8" />
      <path fill="#293500" d="M582.2 671.4l26.5-55.6 10.8 8.5 1.8 27.5" />
      <path fill="#0e1200" d="M457.6 417.7l63.7-76.7 3.2-88.5L440 321" />
      <path fill="#020400" d="M892 594l8.7 25.2 54-136.4-78.3-10.2" />
      <path fill="#9e9d8c" d="M423 605l29.6 38.2L439 605l-86.5 17.4" />
      <path fill="#a0b43d" d="M784.7 152.4l45-8.3 38.3 12-44 1" />
      <path fill="#7b7739" d="M117.3 605.8L84 588.4l53.5 31.4-83 22.3" />
      <path fill="#837347" d="M550.8 422.4L537.4 446l10.2 5.7 3.6-16.6" />
      <path fill="#adbe53" d="M1017.5 256.3L1055 204l-85 22.6 83 53.3" />
      <path fill="#646b5b" d="M600 539l-2.5-20v6.5l14.7-9" />
      <path fill="#000300" d="M551 511.2l-9.8-15.7-3.4 30.2-.6 81" />
      <path fill="#0e0d00" d="M575.7 306.4l-105-72.2-9.6-28 84 112" />
      <path fill="#211b07" d="M645.5 383l-8-15.2-12-6-60.6 27" />
      <path fill="#d4dde5" d="M838 356.7l-12.5-7 16-3.6-3.6 6" />
      <path fill="#8da254" d="M36 308.7l-48.2 83 5-33.2 23-49.3" />
      <path fill="#c3d731" d="M890.2 141.5l115.6 60.8-99.5-3.8L947 128" />
      <path fill="#b0e328" d="M217 84.3L242.4 58l146.3 15.5-40.2 11.8" />
      <path fill="#020600" d="M626.6 533l22.4-52 41.4-3.8-70.3 29" />
      <path fill="#92b800" d="M173.6 470.7l-35.2-67.3L76 560l33.5-3.6" />
      <path fill="#6c9900" d="M84 435.8l49.7-17.7 55.3-3-31-28" />
      <path fill="#484428" d="M611.6 488l21.6-4.6L588 406l35 71" />
      <path fill="#323436" d="M862 174.3l14.6 12-1 18.6-20.6-30" />
      <path fill="#9c9e9c" d="M875.7 334.2L860 380.5l-113-28 91.8 7.4" />
      <path fill="#5c5b1f" d="M78.4 620.5L-18 590.7 65.3 642l-6 2" />
      <path fill="#040300" d="M1038 536.5L851.5 709 1002 523.5l32.5-17" />
      <path fill="#c3d8ad" d="M900.4 208l-10 6.2 83.2 18 19 17.3" />
      <path fill="#628800" d="M245.5 575l25.5 19-28.8-49-25.3 17.6" />
      <path fill="#a9abb4" d="M1028.7 386.6L888 401l136.6 4 2 8.7" />
      <path fill="#1c1b00" d="M754 654.5l5.2 45.6 22.5-77-21 7" />
      <path fill="#a9d100" d="M342.7 432L184 487.7l71-108.4 96.2 47.2" />
      <path fill="#27230c" d="M808.4 670.8l58 3L882 572.4l10 37" />
      <path fill="#b0e33d" d="M468.5 56.2l-307-7.2 335.8-23.8 198.2-22" />
      <path fill="#131901" d="M731 508.3l-1-63 9.4 24 161.4-2.4" />
      <path fill="#9ea266" d="M254.8 609l-18 9.5-37.5-3.2 12.6-13" />
      <path fill="#d2ec61" d="M284.5 117.7l-53 .8-6.8 84 33-16.4" />
      <path fill="#6a7810" d="M440.4 350.8l-2.7 75.2-9.3-77.7v-47" />
      <path fill="#9a9ba1" d="M980.5 347.4l74.5 66.8-9.6-81.8-117.3 2" />
      <path fill="#81ad00" d="M71 491.6l-86 42.7 55.2 27.5-50.4-96" />
      <path fill="#394a00" d="M134.3 381l-26.3-2.6-5 20.6 19.5 8" />
      <path fill="#6a7146" d="M374.7 591.2L357 570.5l-1.5 32.5 26.6 5" />
      <path fill="#c2dc2e" d="M86 219.5l20.7 3.8-.7-40.2-27.6-3" />
      <path fill="#c7e03b" d="M845 117.5l29 35.7-97.7-13 41.6-17" />
      <path fill="#a8a898" d="M685.8 380.3l-34 3.5-7.6-33 38.5 38.6" />
      <path fill="#86bd25" d="M970.4-13.5l-39.7 20L1043.4 72l7.2-3" />
      <path fill="#abada5" d="M541 258l48.7-10.2-93.8-54.5 38-4.3" />
      <path fill="#6e9900" d="M325.4 552.8l8.7-14-19-11.6-37 26" />
      <path fill="#282107" d="M639.6 672.6l41.7 40.4 24.6-58.5 45 58.5" />
      <path fill="#5a5521" d="M589 496.7l-9.4-14-29.4 53.6 11.2-34.2" />
      <path fill="#3f3a2c" d="M593.5 434l6.5 4.4 64.3-8 39.3 4.7" />
      <path fill="#76723b" d="M581.4 458l15.6-9-10.8-16.8-22.8 79" />
      <path fill="#afcf37" d="M428.3 303l-43.6 72.8 28.4 12-50-90" />
      <path fill="#b2d444" d="M244 258.4l-130 14.8 109 68 16.5-81.5" />
      <path fill="#a8cb31" d="M185.4 379.4l39.7-32.8-44-42.8-22 4.5" />
      <path fill="#49433d" d="M9.8 390.4l-4-26.5-36.8 77 31-37" />
      <path fill="#6c6c28" d="M539.5 614l-15-18.3.6 49 22-69.7" />
      <path fill="#a8da28" d="M46.4 109.8l126.8-42L10 86.8l40 17.5" />
      <path fill="#898986" d="M507.2 207L480 195.7l-3.8 17.8L489 211" />
      <path fill="#797663" d="M725.5 380.8l-28.2 15-15.7-63 52.6 93" />
      <path fill="#acadb5" d="M825.4 280.8l-101-3L936 253.5l107.6 9.2" />
      <path fill="#899b2d" d="M867.3 161.7l30.3 43-1-3.6-12.4 3" />
      <path fill="#38361a" d="M496.7 234.7l20.5-28 5.8 16-66.5-13" />
      <path fill="#6e9200" d="M99.6 605.7L110 572h62l-40.6-39.8" />
      <path fill="#4e4b17" d="M587.2 530.2l-24.3 1 14-15.6-2-7.6" />
      <path fill="#869c21" d="M434.8 558.7l4.4-96.7-11.4 72.2-19 1" />
      <path fill="#1d240d" d="M1014 449.6l-72.4 26 26-16 18-20" />
      <path fill="#7b8c32" d="M12.4 439.7l7.7 20-51 14V424" />
      <path fill="#514d3f" d="M652 393l21.7 21 9.7-21.3-19-10.5" />
      <path fill="#110e01" d="M1001 665l-28.6-50-87 8.3-17 20" />
      <path fill="#5f573a" d="M564.3 436l-13.7 3.5 55.7-47-26.7-3" />
      <path fill="#6d665d" d="M603.4 433l-9-4 72-10.7-36.6-3.5" />
      <path fill="#c2d665" d="M441.7 196.7l85.3-23 133-7.3-114 16" />
      <path fill="#4f6400" d="M11.8 367.4l36 61.2L7.2 438l12.3-7" />
      <path fill="#021400" d="M515.4 616L504 513.4l7.7 39-33.6 21" />
      <path fill="#65614b" d="M659.6 469.5l-14.8 5.3 16 3 17.7-128.2" />
      <path fill="#050f00" d="M590 589.8l-5.5 6.8L578 713l-6.2-143.3" />
      <path fill="#050400" d="M709.6 621.6l75.6 84.7-122.3-81 26 71.7" />
      <path fill="#d2ea59" d="M771 87l7 40.5-116 18 55-102" />
      <path fill="#a5be2f" d="M421.5 216.7l10 11.6L419 297l2.7-66.6" />
      <path fill="#525226" d="M620.4 540l-4.4 11-7.2 15.6-5.6 55.3" />
      <path fill="#b5e351" d="M760.2 1l-37.4 37.2-240.5 9.6 271 20.8" />
      <path fill="#989863" d="M83.8 333.3L80 315.5 70.2 303l-18.4 23" />
      <path fill="#a8a9ac" d="M709 372.7L696.4 347l78.2 55.2-30.8 2" />
      <path fill="#41310b" d="M567.4 599.7l-14.7-44.2-5-7.3 21.6-35.5" />
      <path fill="#989898" d="M42.5 664.6l15.2 6 39.4 4 16-37" />
      <path fill="#a6a7a1" d="M653.5 300.2l-27.7 46.6 76.3-26 18 32.4" />
      <path fill="#6a7b41" d="M209.2 602.3L159.5 616l8.8-44.2-19.5 14.6" />
      <path fill="#d2ea50" d="M406 271.8l4 32.7 10.5-85.8L237 103.2" />
      <path fill="#191b01" d="M699.3 536.8l-17 62.7-83.5-23.6 133-9" />
      <path fill="#415b1c" d="M464.3 211L425 253l15.2-23.6v-24" />
      <path fill="#b0b0b3" d="M282 669.3l-159.3-22.8 7.2 53 26-25" />
      <path fill="#99979c" d="M293.3 648.4L282 713l79.3-27.8-26.8-5.2" />
      <path fill="#d1d1d4" d="M542.8 197l70.8-15.3 6.6 31.8-75.8 8.5" />
      <path fill="#cae04e" d="M234 243l-2.2-39.6-137-29.4 54 82" />
      <path fill="#abb1b4" d="M937 331.5L724.8 340l-53-12 3.3-19.4" />
      <path fill="#605a3b" d="M563.2 281.6l81.4 94.7-58.2-54.4-26.2-42" />
      <path fill="#acd512" d="M292.5 321.2l-44.8.7-3.2 12 47.3 8" />
      <path fill="#211d0e" d="M847 649.8L963.3 713l3.2-68 67.8 68" />
      <path fill="#1a2900" d="M544.2 520.2l18.7-86.7-32 118-2-62" />
      <path fill="#78b629" d="M15.3 30.8l86-7 31.3-26.6L161-31" />
      <path fill="#8db400" d="M266.4 545.5L422.2 492l-213.5 50.4-6.4 6" />
      <path fill="#45491d" d="M596 553l12.8-17.8-35.3 37 35-11.5" />
      <path fill="#0d0f00" d="M605.8 503.3l-9.5-.7 24-28.5-7.7-13" />
      <path fill="#323900" d="M445.5 340l9 129.5-14-81.5-6-71" />
      <path fill="#5a6d08" d="M511.8 569.4l12.4-18.7-10 47 13.5-29" />
      <path fill="#1e2109" d="M760 505l-105.4-35.6 99.4-14-65.7 32.7" />
      <path fill="#252604" d="M612.8 551l-5 18-17 .4-55.8 91" />
      <path fill="#718c01" d="M353.3 547.6L376 568l66.6-1.7-56.3 34" />
      <path fill="#4b4b1c" d="M615.2 568l-11 68.7-19.6-36 14.2 6" />
      <path fill="#a8de32" d="M928 59L792.5-28.7 776.3 14l73.2 23.7" />
      <path fill="#5f6612" d="M516 450l13.3 16.6-3.8 43.3 11-44" />
      <path fill="#5c631c" d="M513.6 408.3l6.5-2.3 6 8-7 22.6" />
      <path fill="#6b6931" d="M526.8 591l11.8 46.2 12-26-20.7 13" />
      <path fill="#b6b6bb" d="M302 646l22.8-30 16 1-9.7 45.6" />
      <path fill="#d3ec6f" d="M544.4 114l-35 66.2 39-18-55.6-47" />
      <path fill="#bfc1c7" d="M603.2 268.8L590.4 231l75.4-11.2 31 53.5" />
      <path fill="#0a1901" d="M469.6 215l-17 24-4 41.3 39-52.7" />
      <path fill="#828959" d="M707.3 447.6l-53.4-8 8 12.8 26-3.7" />
      <path fill="#7c8f01" d="M144.4 373.4l-16 4.4-18.2-50.4 26.2 27.4" />
    </g>
    <g class="SVG--2">
      <path fill="#597304" d="M130.6 551l35 58-42-7 31.5-10.3" />
      <path fill="#7b8a61" d="M524 525.6l-5-.3 4 24.3 5-19" />
      <path fill="#030c00" d="M545 494.2l-14-9 19.8 83.6-18 24.2" />
      <path fill="#9ac100" d="M368.6 541.6l8.5 8.8 52-64.2-50-20.8" />
      <path d="M697 435l-2.2 3 15 3.6 7-13.4" />
      <path fill="#bae131" d="M311 317.8l.6 4.3-97.4-3 24.3-37" />
      <path fill="#665d4f" d="M616.5 384l-32.2 63.7 24.6-39.2 47-12.7" />
      <path fill="#6a623d" d="M433 588.4l29.6 65.3L458 624l-4.6-24" />
      <path fill="#bdda4b" d="M276.2 244l-6.6 62.2 158-4-1-7.2" />
      <path fill="#020800" d="M630.7 519.3l-3.3 3 31.4 34.6-44.3 23" />
      <path fill="#2f2e1f" d="M897.7 445l49.5-4-20.2-2.7-30 2.8" />
      <path fill="#040700" d="M693.6 509.5l115.6 166 37.7-45-49-60" />
      <path fill="#bbc630" d="M1018 217.2l-42.3-12.8 19-29 31.4-23.8" />
      <path fill="#383800" d="M447 442l5.3 46.3 9.2 32.7 13.6-20" />
      <path fill="#4d6900" d="M-11 603.6l52.5-4.5L8 568l-6.5 43.6" />
      <path fill="#8a896f" d="M527.2 240l64.5 78.8 67 61.4-82-89.8" />
      <path fill="#2a3402" d="M567.2 394l5-50.7-43.5 41.5-5.3 30.4" />
      <path fill="#c2e74a" d="M193 91.4l-80 5L430.4 99l-149 21" />
      <path fill="#a4a5b1" d="M772.7 157.8l7-1 61.6 12-94-7.7" />
      <path fill="#313e00" d="M505 471l-7-35.5 16.8-7.8 10.4 45.6" />
      <path fill="#9ebf00" d="M26.3 513.5l-10 16L48 542l164.5-45" />
      <path fill="#020301" d="M733.2 436.7l28 10 62-35L740 406" />
      <path fill="#c1d956" d="M43.5 213.3l29.3 53 18.4-34-32.5-35.6" />
      <path fill="#181a01" d="M794 557.2l-9.5-13-21.6-24 9 42.4" />
      <path fill="#1a2904" d="M502.2 273l-63.8-48.5 1 23.2 20 63.6" />
      <path fill="#a9a7a0" d="M575.6 277.4l22.2 38.7 11 3-15.6-46" />
      <path fill="#848765" d="M291.7 606.5L278 594.8l93.2 4.8-57 6.6" />
      <path fill="#adcb3b" d="M963.5 115.7L1055 36l-30 106-71-31.7" />
      <path fill="#79a000" d="M32.5 496.5l115.8-94-30.4 53L17 440" />
      <path fill="#8ea313" d="M71.2 459v-23.5l24-5.3-3.4 23" />
      <path fill="#5f6d1d" d="M565 474l-2.7-1.7 7.7-24 21.7 8.7" />
      <path fill="#8ca400" d="M77.2 348.5L47.7 391l-3-45.4 24.7-6.8" />
      <path fill="#6a9b00" d="M-19 536.6l61.4 42.7L96.2 554 51 600.7" />
      <path fill="#2d350c" d="M534.6 510l-49.8 64.7 51.4-61 80.6-58.4" />
      <path fill="#6a6653" d="M699.8 429.7L631 451l54.2-36.4-41.5-19" />
      <path fill="#b7bab0" d="M530 206.2L659 306 516 192.4l63-15.3" />
      <path fill="#939599" d="M847 412.5L801.6 400l162-5.5L874 383" />
      <path fill="#b2e04b" d="M690 43.8l-51.4 27.6-50.5-2L640-31" />
      <path fill="#3f3d1a" d="M736 449.2l26.3 6.3-34.5 20.4 40.2-14" />
      <path fill="#688033" d="M221.5 600.7l-21.2-25 45.6 4V596" />
      <path fill="#9c9f97" d="M387.3 668.7l42.6 6.7-10-12.4-107-10" />
      <path fill="#8aa600" d="M266.6 573.7l82.7-16.5 59.6 20.5 16-37" />
      <path fill="#1d1d11" d="M965.3 642.8l89.7-12.3-71-27.8L970.7 713" />
      <path fill="#b6e000" d="M396.4 396l15.6-11.4 16.7 23.4-38.5 15" />
      <path fill="#b3b5b6" d="M761.6 372.3l23 8.7-3.3-18-36-5" />
      <path fill="#505300" d="M88 357.5l1-24.3-9.8 37 42.4 36.7" />
      <path fill="#2a3117" d="M838.3 450.6l3 31.7 4.2-25.5 55.5-7" />
      <path fill="#312815" d="M593.8 409.6l-44.5 18.6 42 1.2L554 447" />
      <path fill="#b0cf28" d="M56.5 247.3l-23-23.8-42 26.7 52.2 6.4" />
      <path fill="#899f2f" d="M434.8 676l21.8 27-.5-57.7-33 56.7" />
      <path fill="#9bd146" d="M112.3 25L212 13.2l118-13L260.2-31" />
      <path fill="#9b9c9b" d="M764 346.5L734.8 384l63.2 12-132-67.3" />
      <path fill="#71805e" d="M-31 269L6.7 374-31 347.4l47.7-20.7" />
      <path fill="#9ec310" d="M157 527.5l-9.4-19.3 76.8 26-6.8-26" />
      <path fill="#22210e" d="M925.3 573.8l20 2.7 1.6 4.8-51 35.3" />
      <path fill="#192000" d="M114.3 360.6l-14.5-12.2-13 16.4 36 13.3" />
      <path fill="#aace47" d="M7.6 110L-31 165.8l69.2-31.2 16-17" />
      <path fill="#080700" d="M478.6 713l9.7-102.2 22.7-15.6L521 713" />
      <path fill="#a7dd41" d="M103.5 31.2l-24 44.2 171.6-49-44 64" />
      <path fill="#7e7855" d="M625.6 434l21.2 20.2 1.4 10.4-33.5-10.6" />
      <path fill="#050500" d="M632.4 484.7l-35 10.4 37 10-19 12" />
      <path fill="#a0ac32" d="M31 301.2l-12.3-.3 29 49 14.5-19" />
      <path fill="#0b0b04" d="M660.7 405l-34.4 7.6 16.4 1 14.7 2" />
      <path fill="#709315" d="M437.3 262.4L427 246l7.6-39.6-1.6 89.4" />
      <path fill="#cae85b" d="M394.6 120.5L220 142.8l-108-14.3 85-17.5" />
      <path fill="#b4d802" d="M273.5 453.7l32-97.6 10 43-61.8 18" />
      <path fill="#9bc800" d="M237 489.4l41.7 21.3 49 19.5-30-101.2" />
      <path fill="#cde44e" d="M936 105.4l-88-28 69 97.3-45-12.4" />
      <path fill="#060802" d="M1026.4 486.6l-71.3-67-58-9.4 60 23.8" />
      <path fill="#646558" d="M514 199l25.8 71.2-10.3-6.5-3-48" />
      <path fill="#c1d443" d="M923 113.8l121.8 32.3-108.3 72 71 19" />
      <path fill="#7eac00" d="M125.4 353.3l20.2 38 19.3-47.5 15 47.4" />
      <path fill="#37381e" d="M641 516.6l15-20-18.7 8.2-6 25.3" />
      <path fill="#8dc611" d="M36.3 86.8L-31 108l12.3-20.4L-31 49" />
      <path fill="#abba51" d="M891 180l-12.6-17.5-22.2-7-15.5 2.4" />
      <path fill="#a5cb2a" d="M321.7 337l-13-12.5L268 346l78 44.7" />
      <path fill="#d2d5dc" d="M754.7 177.2l16-16 131 65-49.5-5" />
      <path fill="#70811f" d="M332 594.8l-27.4-19.3-17 10.2 25 15.6" />
      <path fill="#050a00" d="M628.7 469.7l96.8 69.4 12-59-61.5 52" />
      <path fill="#473c12" d="M548 565l-1.7 48.4 2 77.4-8-31.3" />
      <path fill="#1a2300" d="M481 346.4l53.3.5 10.4 20-57.2 79" />
      <path fill="#c6ced3" d="M988 252.8L731.6 223l165.3-8 79 24.4" />
      <path fill="#141b00" d="M550 373.4l-14.6 37.2 14.7.7-27 46" />
      <path fill="#9ead20" d="M430 441l11.3 48.8-31.6 31.7L432 489" />
      <path fill="#99c300" d="M257 411l-36.4 26-14-70 24.6-19.5" />
      <path fill="#575230" d="M603.7 461l-35.5 40.7 39.6-63.6 29.2 34" />
      <path fill="#696e1c" d="M20.4 358.4l-16.7 17h-1l38.8 4.6" />
      <path fill="#101701" d="M872.2 477.7l9 44.4-42.2-64 29.3 2" />
      <path d="M950.2 713l-5.8-45.3-7.4.5-15.6 25.3" />
      <path fill="#0a0a03" d="M701 438.7l8.6-17.4-31-30.2 37 55" />
      <path fill="#a8aaad" d="M952.4 371.6l71-7.5-153.2-33 117.3-11" />
      <path fill="#add72c" d="M359.8 428.6l-5.2 5.5 42.6-42-34.6 3" />
      <path fill="#a8d848" d="M794 1.5L647.7-31 554 15.4l5 3.8" />
      <path fill="#1e1b02" d="M640.2 713l5.6-51.6-9.6-32.2 35 24.3" />
      <path fill="#171b04" d="M12 400l-1 16.6-19.6-8.8-22.4-6.6" />
      <path fill="#96cd38" d="M29 47.2l-5 6.2L44.4 83 172.2 7.6" />
      <path fill="#272300" d="M592 520.7l-36.4 68.5 12.8-60 16.8 15" />
      <path fill="#a0b35b" d="M645 164l104.8-15-26.4 11.5L660 165" />
      <path fill="#181f04" d="M601.2 538.3l.7 59 6-39.5 2-27.4" />
      <path fill="#696f30" d="M41 641.5L12.4 623l-7-14.7 22.5-1.6" />
      <path fill="#aab95d" d="M82.6 309l-37.4 18L60 298l11.2-3.5" />
      <path fill="#cbe34f" d="M438.7 189.6l-68 73 75.6-67 86.2-24.8" />
      <path fill="#676465" d="M997 416.7l6-1.6h-27.4l34.5-5" />
      <path fill="#abc142" d="M10.7 313.7l22.2-46-47-27.7 17 37.3" />
      <path fill="#686669" d="M854 177.8l-8 7.8 28.6-11.6-54.6-.7" />
      <path fill="#989e9c" d="M831.4 174l1-16.8-42.2-1.2 95.4 54.6" />
      <path fill="#020300" d="M843.3 504l36.8-27-64 7.4-50 30.4" />
      <path fill="#858787" d="M854.2 366l.7-2.6-12 6 14 4.5" />
      <path fill="#9da196" d="M452.2 624.8l-24 46.2 24-22.5-.2-22.5" />
      <path fill="#4a6500" d="M425.4 590.7l26.3-7L419 569l-5.5 20.8" />
      <path fill="#64ad05" d="M1055 53.6l-11.3-54.8-9-11.3-44.7 8" />
      <path fill="#585b32" d="M562.8 409l-21-.8 19.2-10.4 3.3 12.5" />
      <path fill="#061400" d="M445.5 384.6l17.3 37.3 31.4-24-41-44" />
      <path fill="#010202" d="M820.5 456.4l28.8-30.6-49 26.3 89-24" />
      <path fill="#414510" d="M609.5 558.3l-31-6-13.2 19 37.8-6.7" />
      <path fill="#777a39" d="M85 337.3l-20.5 3 23.5-25 19.2 23.6" />
      <path fill="#202316" d="M860 184l4.6-5.3 14 19.2-5.2-3" />
      <path fill="#2a2f17" d="M897.2 466.8l66-29-64.2 16 4.6 10.8" />
      <path fill="#433b0a" d="M460.8 605.8l-13-41.5 23.3 140 6-8.5" />
      <path fill="#7f8184" d="M861 409.5l29-3.2-23-7.6L982.8 413" />
      <path fill="#39420b" d="M577.5 439.6L539 487.4l14.3-33 48-35.5" />
      <path fill="#393922" d="M684.8 548l-84-111.7 75.7-21-73.6 26.2" />
      <path fill="#6f685c" d="M621 404l25.4 26.7-12 1-13.5-42" />
      <path fill="#c6d496" d="M655.5 173.4l-44.7-1.5-65.4 10 44.4 2" />
      <path fill="#7da500" d="M201.6 522L130 540l149.8 6.6-90 16" />
      <path fill="#727140" d="M594.3 428.4L571 480l31-35.4-22-.5" />
      <path fill="#8fbe00" d="M183.6 531.8l-12.8 16.4 52.4-67.3 47 8" />
      <path fill="#0f1000" d="M1055 571.8l-136.6 32.7 54.2-94.8-11.5 119" />
      <path fill="#2f2b17" d="M858.4 669.6l-48 33.5 20.6 10 20.6-80" />
      <path fill="#101100" d="M826.5 580l-7.8 26.6 43.8-5.2 37-31" />
      <path fill="#110d05" d="M603.3 473l-7.2 20-10-12.8 5-6.4" />
      <path fill="#7c7967" d="M706.2 406.5L658.4 335l55.6 80.4 30.8-12.7" />
      <path fill="#557800" d="M134.3 416.5l-31-6.7 38-13-20.7-51" />
      <path fill="#84b402" d="M354.8 466.5l12.7 98.7-44-39 58.5-58" />
      <path fill="#0c1700" d="M546 474.7l-8.6 8-2.5-27 9 1" />
      <path fill="#030800" d="M663.6 640.5l-32.8 15-39.2 12.5 49 .8" />
      <path fill="#60670b" d="M462.8 648l6 51.6-16.5-39 3 2.2" />
      <path fill="#8d8c73" d="M678.2 391.7l23-2.6-26-27-17-44" />
      <path fill="#abb0b5" d="M848.3 288l-179.7 8L785 259.5l34 11.4" />
      <path fill="#bbbfc7" d="M965.4 276.7L925 317l129.5 8.4-23.7-52.2" />
      <path fill="#090600" d="M739 458l9.8 3-9.8 6.8-19-6.8" />
      <path fill="#95a93a" d="M474 200.6l-19.2-3.6-28.8 21.3 25.5-9.7" />
      <path fill="#182300" d="M596.6 623.2l4.7-11-20.5 8.3 5 92.5" />
      <path fill="#88866e" d="M102.2 628.7l-26.5 16.7 116.7-29.2-5.4-5.5" />
      <path fill="#b5e456" d="M571 28.3l98 4.8-124.8 41 3.3-30" />
      <path fill="#9c9d88" d="M420.4 604l25.5 12 13-2-142 5.6" />
      <path fill="#9cd140" d="M938 36.3l-64-4 .4-7.6-3-44.2" />
      <path fill="#bce254" d="M874.7 76l-76.3-2L832 42.7l38.3 2.5" />
      <path fill="#010200" d="M1045 468.4L955.6 415l99.4 1.4-47 58.7" />
      <path fill="#bce139" d="M927.2 72L923 48.3l-35.7-2.6-11.8 23.8" />
      <path fill="#233910" d="M439 290.3l7-40.6 17-36.6-22 9" />
      <path fill="#242f0a" d="M759.8 474.4l70.2-16.2-50.8 1.8-10.8 37.6" />
      <path fill="#99a433" d="M123.2 337.4l-35-38 4 20 18.8 21.2" />
      <path fill="#81af1b" d="M57 548l12.7 19 9-20.2-3-2.8" />
      <path fill="#454403" d="M119.4 354.3L107.2 341l6 25 14.2-1.4" />
      <path fill="#3e3b33" d="M662 425.4l26-10.6 60-4.5L641 422" />
      <path fill="#191c00" d="M560.4 650.4l5.8 48.8-10.4-48 23.6-19.8" />
      <path fill="#282700" d="M587 521l12-36.4-26.5 33.7-2.4-15.7" />
      <path fill="#b8b9c0" d="M697.5 287.6l-39-42.6 288.8 7.7L712 269" />
      <path fill="#6e8a1e" d="M99.8 596.7l29.7-22.7 67.6-1.3-99 30.6" />
      <path fill="#93938a" d="M561.2 245.2l76.5 72.5-6.8-1 17-12.5" />
      <path fill="#696035" d="M556.4 436.3l-31.6 33.3 20.8-47.7 5 1" />
      <path fill="#9e9f98" d="M201.2 625.3l-113.8 31 18.8-24 45 .4" />
      <path fill="#99c134" d="M962.6 31.5l84 63.8 8.4 8L983.7 17" />
      <path fill="#000400" d="M782 473.8l-3.4 6.4 11 3.2 14-19.2" />
      <path fill="#7a8f01" d="M85 334.6l-55.8 62.8-4.2 12.4 48-37.3" />
      <path fill="#c3c7c1" d="M751.6 171.8l-10.7-1-91 2.3-130 25" />
      <path fill="#262c06" d="M456.6 614.5l7.5-44.8 27 23-7 16.2" />
      <path fill="#61690d" d="M530.8 658l3.8-20-20.2-49L535 713" />
      <path fill="#adce3e" d="M250.2 341.5l36.6 7.4-11.5 22-27.7-6" />
      <path fill="#46450c" d="M572 657l-8 35.2-3-42.6-34.6 6.7" />
      <path fill="#acbf31" d="M1002.2 198.5l29.4-30-1 87-12.5-14.2" />
      <path fill="#594e18" d="M568 508l-4 34.5-43 123.8 42.3-138.5" />
      <path fill="#6a742f" d="M442 601.3l-53 3.3 15-11.5 28.5-2" />
      <path fill="#7c7a6d" d="M108 636.7l-69.5 19.6-1 38-4-48.6" />
      <path fill="#d2e859" d="M571 77.4l93.8 9.8-72.2 88.6-44.2-1.4" />
      <path fill="#c5e048" d="M659.2 145.6L605 169.8l81.2-18 320-31.4" />
      <path fill="#85a421" d="M292.4 564.5l43.6-13.3 8 9.6-20 21" />
      <path fill="#181601" d="M557.8 328l-32.5-47-7-66-16 102.7" />
      <path fill="#bdbfc4" d="M759.5 290l5.7 16.4 27.6-1.6 42.2-6" />
      <path fill="#94958c" d="M535 217l-19.5-17 27.4 44.3-2-5.4" />
      <path fill="#b9da47" d="M23.5 148.3l19.7-31.5 69-19-70 69" />
      <path fill="#313014" d="M899.3 675.7l21.3 5.3 67.5 32H879" />
      <path fill="#b2cd2f" d="M168.4 286.2l-23.4 53-32.2-16 19.6-11" />
      <path fill="#2e2d1d" d="M605 514.5l9.6-12.7 1 43.7 11-13.6" />
      <path fill="#afb1b7" d="M864.8 288.2l59 7.8 89.7 2-127.2 13.6" />
      <path fill="#473f2c" d="M602.6 419l30-6.4-50.8-3-75.2-33.8" />
      <path fill="#676445" d="M625.3 347l-20.5-18.2 74.7 92.4-60-81.3" />
    </g>
    <g class="SVG--3">
      <path fill="#779028" d="M293.5 588.5L250.8 561l31.5-9.7-13.8 54.7" />
      <path fill="#d0e450" d="M135 155l-23.5 14.7 68.2 59.7L224 143" />
      <path fill="#453c26" d="M797.3 456.5l31.5-7.6-99.8 10-9.4-13" />
      <path fill="#282c11" d="M835.6 484.5l-29.7-8.7 28-3 27-30.3" />
      <path fill="#212703" d="M554.2 417l29-17.8-21.7 4.2L528 439" />
      <path fill="#151704" d="M1005 455.8l50 21.3-59 33 42.4-63" />
      <path fill="#2e2e0f" d="M727.5 459.6l-12 5.5-24.6-3-10 17" />
      <path fill="#9aa77d" d="M673.2 161.6l168.2-6.7-89.2-4-24 14" />
      <path fill="#525830" d="M587 558l16.3 5-9.3-16.5-2.4 10.5" />
      <path fill="#8b9433" d="M424 372.4l10.3 8.4-1.2-6.2-5-40.3" />
      <path fill="#695729" d="M541.4 578.3l6.3 8-6 19-2.5 13.8" />
      <path fill="#9bbf32" d="M430 524l-24.5 11.5-4-13 18.7-21.3" />
      <path fill="#bae440" d="M799.7 71.3V45l-55-2.8L764 70.6" />
      <path fill="#d7ee66" d="M423.3 197.5l-14-31.3 96.2 8 51.5-28.8" />
      <path fill="#99b925" d="M207.7 514.3l1 32.3 22.4-14.4-10-5" />
      <path fill="#8d9e6e" d="M-8.2 350.4l1-.5 12.8 23 4.8-36" />
      <path fill="#acca35" d="M417 341.3l9.2-35.8-63 42.6 17.8 18" />
      <path fill="#69722c" d="M180 602l-28.4 16-52.3-24.7-4.3 21.2" />
      <path fill="#71862e" d="M436.5 680.2l-28-1.4L300.7 713H375" />
      <path fill="#c2da37" d="M19 176.5L8.2 214.3l-25.4-51 75.7.6" />
      <path fill="#708f00" d="M92.6 397L55 389l65.5 51-17.2 12.3" />
      <path fill="#000002" d="M897.6 430l-110 17.4 13-9L891 448" />
      <path fill="#000300" d="M750.4 668.2l5.3 40.6-30.4-71.3 39.2 4" />
      <path fill="#464920" d="M623 583.8L593.6 615l-8.4-1.5 43.6-40.3" />
      <path fill="#95c129" d="M266.2 511.5l-6-17.8-28.8 14.7 9.3 5" />
      <path fill="#b6e24a" d="M188 77l29.8 7-3.5 13.8-38 3" />
      <path fill="#0d0b01" d="M554.5 287l16.6 24.5-35-11-32-50" />
      <path fill="#abcd1f" d="M279.7 399l-29-23.5L319 347l-26 49" />
      <path fill="#020d00" d="M567 646.8l15 43.7-1-72.5-12.8 8" />
      <path fill="#9ac000" d="M177 473.6L108 486l-41.5-4.5 31-26" />
      <path fill="#c8e954" d="M285 121.7l181.8-49.4 75.5-7-68 40.8" />
      <path fill="#8fb922" d="M338 502.5l13.2-24.3L369 492l-21 15.7" />
      <path fill="#8f8f95" d="M1055 254.7l-39.7 100 39.7 17-34.8 15.3" />
      <path fill="#c5db52" d="M430 282.4l-117-60.6-79 18.3 86.3 36" />
      <path fill="#a0c800" d="M430.6 385.6L401.4 471l24.7 29.8 3-44.6" />
      <path fill="#b4cc6b" d="M970.5 223.3l42.8 29.3-48.3-21.4 20.8-13" />
      <path fill="#484b1b" d="M-14 650.6l-17-94.3 52.7 98-31.6-.6" />
      <path fill="#44482d" d="M880.8 460l7-1.2 9.6 2.8-22.8 2.2" />
      <path fill="#969687" d="M690 400l-26.2-29.5-10.8-57.3-21-27" />
      <path fill="#88a701" d="M299.8 561l-.5-23-65-26 1.8 31.7" />
      <path fill="#2f2f24" d="M1014.3 440l-2 2.7H975l12.7-4.3" />
      <path fill="#bfd13d" d="M276 281.2l-42 16-8-38.6 32.5-8" />
      <path fill="#868669" d="M448.4 603l4 64.4-4-40.6-10.4-12.5" />
      <path fill="#030500" d="M959.7 452.4l-42.8 2 69 16.6v131" />
      <path fill="#726635" d="M541.2 623.5l-4.6 16.4 8-7-5.6-29" />
      <path fill="#0b0e00" d="M787.2 431.8l-64 101.6L847 696.8l-105.6-161" />
      <path fill="#191d01" d="M569.7 384.6l42 5.6-17.2-14.6-19.4-18.3" />
      <path fill="#88a81c" d="M124 560.4l6.3 3.5-28.8-2-1-23" />
      <path fill="#b0df47" d="M884.7 51.3L784 47l-53.6-23 171.3 12.3" />
      <path fill="#484b07" d="M520.4 442.5l5.7 83-9 2 13-43.7" />
      <path fill="#181600" d="M492.4 670l-7.6 43-5-11.8-5.8-89.8" />
      <path fill="#7dba1a" d="M917.7-22.4l96.2-1.8-12 31.5 38 50.7" />
      <path fill="#b9bcc3" d="M993.2 248.8l4 15-185.7-21 177.5 5.7" />
      <path fill="#8bb200" d="M99.2 508.4l8-16.5-9-18L79 505" />
      <path fill="#465f02" d="M575 468.2l6.6-3.2-20.4 2.4 3.8 15.2" />
      <path fill="#586d00" d="M32.2 601l60.5-17-2.6 35 8 1.2" />
      <path fill="#1d2905" d="M723.4 466.2L743 482l-56 6.5 25.6 11.3" />
      <path fill="#bde946" d="M554.6 53.7L452.3 70.5 369.6 99l103-64" />
      <path fill="#949687" d="M312.3 601l5 18-45.3-15 116.2 7.8" />
      <path fill="#748b41" d="M340.4 559.3l29 31.2-68.2 13 35-15.7" />
      <path fill="#6f6b40" d="M629.8 444l-40 25-8-35.4 37 25.3" />
      <path fill="#171302" d="M894.3 625.6l50.4-48-109.5 115 93.2-38.3" />
      <path fill="#93ad00" d="M65.6 338.6l-21.2 3 10 25 12 9.8" />
      <path fill="#061800" d="M508.3 520.4l4.8 6.6-5 24.7-26-35" />
      <path fill="#b8b8c0" d="M848 282l69-13-82 54.3 44 .4" />
      <path fill="#a7adb0" d="M729.4 382l49.6 22.2-48.5-1.5 30.8-29" />
      <path fill="#a1ab9b" d="M995 247l60 59.3-25.7 78.8 18-132" />
      <path fill="#adadaf" d="M180 625l54.6 55.6 72.5-7.2L187 625" />
      <path fill="#abd300" d="M312.7 368L293 478l46.4 1.4 13.7-50.2" />
      <path fill="#3d3207" d="M540 616.5l4.5-5.8 8-28.6-17 42" />
      <path fill="#202202" d="M611 631l7 14 28.2-9.3L667 661" />
      <path fill="#acdf2f" d="M156.7 90.6l44.5-7.4-66-22-50 27.2" />
      <path fill="#b1b2b1" d="M302 618.2l-9.7 21.6-48-20 40.3-11.6" />
      <path fill="#323019" d="M585.4 399.5l16.4-29.7 2.2-33.2-12.4 63" />
      <path fill="#798e42" d="M180.5 604.4L156.7 571l48.2 26.2 30 1.8" />
      <path fill="#627200" d="M106 389.2l-20-10.4-23.7 5.2-10 13.4" />
      <path fill="#9fd724" d="M865.2 29.6l-1.2-19-25.3-.8-5.2 11" />
      <path fill="#23240e" d="M954.8 464.7l-3-1L953 475l25.3-16" />
      <path fill="#a3a8ab" d="M829 326.4l37 1.7-19 72 21.2-22" />
      <path fill="#91b000" d="M72.7 435l-22.4-34 42.6 8.4-11 .2" />
      <path fill="#88ae00" d="M34.4 530.7l21 49.2-33.4-9-10-103" />
      <path fill="#020600" d="M867 518l-52.2 4.5-72-50.4-4 21" />
      <path fill="#787463" d="M682.5 338l-4.6 5.7 61 61-10 19" />
      <path fill="#585245" d="M585.3 401.7l26.3-16 .6 38 7.7 2" />
      <path fill="#bcc2cd" d="M826.5 174l-17 1.3 110.5 63L796.7 161" />
      <path fill="#9a9a88" d="M621.2 307l-29.8 6.3 51 44.5-4.6-41.7" />
      <path fill="#506307" d="M519.5 573l-3.6-55.2 3-90.8v66" />
      <path fill="#b7cf38" d="M835.6 139l7.5-.7-61 3.7 83 11.8" />
      <path fill="#749116" d="M317.4 573.7l22.2 12.4-79 5-3.3-15" />
      <path fill="#212205" d="M713.4 581.7l27.4 13-18 42 2-60.4" />
      <path fill="#9f9e89" d="M237.8 638.7L208 615l-4.6-5.5 42 14.8" />
      <path fill="#a9acb1" d="M1055 355.6L980.2 340l74.8-20-106.3.4" />
      <path fill="#606a09" d="M525.6 647.6L521 544l-5.4 45-2.5 6.2" />
      <path fill="#6d6c23" d="M83 610.4L59.6 627v10.6l44.3-18" />
      <path fill="#959899" d="M776.5 384l-77-22L815 402l-48.5 7" />
      <path fill="#9c9ea2" d="M958 338l20.3 16.8 17.8 5.7-33-43.8" />
      <path fill="#6f9f00" d="M136.6 376l2.6-4.3-7.7 46.2 65-24" />
      <path fill="#262412" d="M920.8 607.7l10.5-34.4-7-2.2-12 41" />
      <path fill="#030402" d="M734 436.8l2.3-18-2.8-7 17.8-4" />
      <path fill="#889269" d="M523.5 540.3l.3-15.3 5 3-4.7 15.6" />
      <path fill="#daec60" d="M200.2 183l6.2-9 51.4-9.6-10.5 35" />
      <path fill="#76756e" d="M347.5 656.6l35.8 55.3 20-24-67.3-16" />
      <path fill="#aaaba5" d="M692.8 259l-33.2 64.6-3 58.8-14.4-21" />
      <path fill="#1e1c01" d="M635.2 569.5l-26.8 37.2 33.5-7.2 11-29.5" />
      <path fill="#93ac36" d="M16 328.3l26.4-7.3L19 356.8l-5.8-2.4" />
      <path fill="#030700" d="M614 713l40.4-137.8 11.8 25.3-35.8 4.8" />
      <path fill="#251f09" d="M566.3 324l17-11 39.7 66.8 15.4-8" />
      <path fill="#648500" d="M163.6 547l27.4-5-7.2 31.2-23-8.2" />
      <path fill="#8d8c92" d="M166.7 713l10.3-36.3L48.7 702l-1.2-55" />
      <path fill="#161d00" d="M594.8 541l-25.2-4.7 20.2 15-7.8 9.4" />
      <path fill="#a2c30f" d="M47.7 276.2l-9-4.3-10 30 23.6-1" />
      <path fill="#8fb201" d="M198 432.8l-28.8.6 36-61.4 35.5 27" />
      <path fill="#9c9b9d" d="M955.2 370l41.6-5-75.7 9.3 47 22.4" />
      <path fill="#655f43" d="M588.6 419.4l-27 12.4 37-12 72 38.4" />
      <path fill="#5e644c" d="M595.2 525.8v-7.5L610 527l-8.6 9.7" />
      <path fill="#bce833" d="M401 64.5L231 94l153 2.3 2-29" />
      <path fill="#7a9621" d="M435 508.7l4.7 57.4-13.7-6 6-69" />
      <path fill="#514421" d="M612 419.2l-43 12 1.2 12.5-20.8-10" />
      <path fill="#282d17" d="M898.2 448.7l-28.8 6.4-53.3 6 43-15" />
      <path fill="#616527" d="M450.8 549.4l-6-48.8-4.2 13.2 2.4 60.6" />
      <path fill="#223009" d="M452.8 293.6l21.5-31 13.2 10-23.3 24.4" />
      <path fill="#a0d12d" d="M106 64.3l-71.7 44.5-65.3 7L35.7 82" />
      <path fill="#aaca02" d="M179.2 512l-8-22 30.5 26.7-12.2-54.2" />
      <path fill="#343604" d="M585.7 651.6l5.6-45.2 23.8-15-28 3.3" />
      <path fill="#cae74a" d="M594.4 74.8l-14.8 25.4-25.6-1-53.2-21" />
      <path fill="#83a500" d="M174.4 389.6v25l32.2 4-5.4-24.3" />
      <path fill="#3e372a" d="M574.2 300.6l24 31.6-53-56-29-34.2" />
      <path fill="#141703" d="M681.8 498.3l-58.2-2 29.7-1.6-52-34" />
      <path fill="#9e9e9f" d="M326.4 674l19.5-38 20 27-40-9" />
      <path fill="#c9e044" d="M868.6 148.5l33 54 7.2-69-108.8 1.7" />
      <path fill="#070600" d="M983 639.7l-6.4 13 54 45.8.5 14.5" />
      <path fill="#101201" d="M945.3 529.6l30.2-16 5 10.2-42.6-20.3" />
      <path fill="#8eb200" d="M153.5 497.3l-37.5-60 38-32L125.2 522" />
      <path fill="#665f44" d="M581.4 421l-8.5-14.7 64-18.3-41 7" />
      <path fill="#d3e84c" d="M778 135.3l-16.7-46.7L793 75.2l42.5 62" />
      <path fill="#181c01" d="M769.5 644.5h23.7l-18.2-17-24.3-1.2" />
      <path fill="#9abc22" d="M162.7 525.5l6.4 5-2-16.5-16 12" />
      <path fill="#b2b4ab" d="M380.6 640.5l15.7 3.8-4-18.5-78-14.3" />
      <path fill="#565042" d="M676.7 395.4L687 432l-93.7 10.5 107-17.2" />
      <path fill="#a0b51f" d="M170.6 343.2l-63.4-12.5 33 21 26-2.5" />
      <path fill="#1b1906" d="M835 471.3l38 19 2 26.6-30-50" />
      <path fill="#82a92c" d="M4 472l-5.8-11.3-29.2-25.5 51.5 28.3" />
      <path fill="#abb2b5" d="M794.5 383l9.7 9.8-68-7 5 17" />
      <path fill="#acb888" d="M512.6 189.8l48.7-11.5-75 26-14.7-5.5" />
      <path fill="#5d6312" d="M84.6 357l13.7-23 10-.4-33 5.7" />
      <path fill="#99ae68" d="M448 659.8l-22.5 3.4 13 12 9-11" />
      <path fill="#4b5234" d="M610.5 578.4l2.8-21-1.4 2.4-8 12.5" />
      <path fill="#bee23e" d="M143.2 88.5l-34.4 7.8-2.6 18 76-8.4" />
      <path fill="#92a39a" d="M868.4 200.7l26.8 12-1.6 1.5-8.7-14.7" />
      <path fill="#061600" d="M529 505.3l21 7.5-17.6 13L563 463" />
      <path fill="#657839" d="M254.2 594.6l-4-16H231l1 19.7" />
      <path fill="#a0d644" d="M112.2 71l5-28-24.7-1.5-18.7 20" />
      <path fill="#000400" d="M643.4 495.5l7-1 23.4-18 17.3 11" />
      <path fill="#091100" d="M821.6 458.4l46-1.2 24.5 27 71-9" />
      <path fill="#c4c4c7" d="M550.8 229.4l-18.5-18.7-1.4-11.5 47 29" />
      <path fill="#dbea5c" d="M550 169.2l-12.3-23.5 114.4.7-58 19.2" />
      <path fill="#87867c" d="M533.7 250.2l8 17.4 36.3 22-44.3-43.7" />
      <path fill="#77a700" d="M51 498.6L47.5 449 27 442l-9.8 34.6" />
      <path fill="#aeaeb5" d="M967.4 369.5l37.2-10.6-121.2-9 171.6 39" />
      <path fill="#474610" d="M441 581.2l18.3 31.6-11-67.6 9.3-15.4" />
      <path fill="#7b8056" d="M674 440l-61.5 12 10.3-10 47-4.8" />
      <path fill="#519819" d="M35.6 21l-27 7.4 123-59.4H15" />
      <path fill="#192300" d="M515.5 496.2l-49.3-47.7L485 536l32-71.3" />
      <path fill="#434229" d="M639.7 510.6l11.3-94-9 83 16.7 7.6" />
      <path fill="#a8a8af" d="M1035.7 374.7l-162.3 11 51.3-36.6-8.3 42" />
      <path fill="#c1c7d0" d="M1041.4 310l-67.3 9-17-10.7 22-3.8" />
      <path fill="#312e12" d="M601.5 367l-29.3-15 39.6-12 10.4 16.6" />
      <path fill="#7c6f41" d="M558.8 431.6L538.3 443l12.8 5-8-18" />
      <path fill="#4e4d1b" d="M590.8 501.4l6-8-15.3-9-10 17.4" />
      <path fill="#828052" d="M111.2 618.7L90.6 642 64 643l84.8-26.5" />
      <path fill="#0e1904" d="M480 207.3l-31.5 92L445 282l11.4-30.6" />
      <path fill="#6d6552" d="M647.2 423.2l-25 17 14-25-47.8 17" />
      <path fill="#312f24" d="M941.2 443l-33.7-1.5 44.3-4.5-3.5 7.7" />
      <path fill="#88944b" d="M280.4 600.3H175.8l64.4 5.3-28.6 11.3" />
      <path fill="#52521d" d="M29 608.3l25.7 3.3-2.3 6.4-5.7 13" />
      <path fill="#231607" d="M546.4 685.2l-12 14.6 25 11.3-9.6-47" />
      <path fill="#8cca2c" d="M878.7-20L1002 29.5l-53.8-3.8-49.6-12.2" />
      <path fill="#4e4a2f" d="M665.5 471.4l-40.8 1.7 47 5-62-76" />
      <path fill="#060400" d="M946.6 626.6l-31-11.6 47-44.6-50.3 86.2" />
      <path fill="#292d17" d="M883 197.3l-15-17-9.5 10 .5-4.6" />
      <path fill="#1c1f06" d="M673 526.5l-42.6-57.8 27.3 46.5-6.5 13.8" />
      <path fill="#040b00" d="M550.6 518.2l-20.3 34 20.2 7-12.2-54" />
      <path fill="#1c1a12" d="M1007.3 631.5l47.7-27.8-74.8 14.6 31 55" />
      <path fill="#4b4c1c" d="M603.6 619l-12.2-24-7.5 16 21-13.2" />
      <path fill="#bdd754" d="M104 248.6L90 274l93.6 4.7-8.5-39" />
      <path fill="#3d422c" d="M918 461l-17.7-7.6-23 8.5 43-3" />
      <path fill="#adc648" d="M679 152.5l53.8 1 137-8-103.4-.7" />
      <path fill="#757059" d="M732.8 442.6L731 392l-2.6 18.2-3 39.8" />
      <path fill="#1d1e08" d="M572 400.3l-44.8 28.2-1.6-5.5 43.8-9.5" />
      <path fill="#6d9e00" d="M17.7 504.2l-15.4 71-33.3 48.5 4.3-172.7" />
      <path fill="#a0ca00" d="M272.3 377l-96 93.6 89.5 10-27.2-97.2" />
      <path fill="#2b3705" d="M546.4 497.6l39.2-16.3-62.4 39-4.5 7.4" />
      <path fill="#6c6b57" d="M728 385.3l-26.4 18 3-12 6-11" />
      <path fill="#759027" d="M233 601.6l-26.5-46 16.4 15.8-61 8" />
      <path fill="#a7d110" d="M295.3 364.7l61.4 30 2 50.6-48-89.6" />
      <path fill="#73a300" d="M124 542.7l-6.7 8 50.2 6.5-35-28" />
      <path fill="#d8e953" d="M234.8 211.6l-35-7L354 155.4l9 40" />
    </g>
  </g>
</svg>