<svg version="1.1" viewBox="0 0 1024 682" width="1024" height="682" xmlns="http://www.w3.org/2000/svg">
  <g fill-opacity=".5">
    <path fill="#597304" d="M131 551l35 58-42-7 31-10" />
    <path fill="#7b8a61" d="M524 526l-5-1 4 25 5-19" />
    <path fill="#030c00" d="M545 494l-14-9 20 84-18 24" />
    <path fill="#9ac100" d="M369 542l8 8 52-64-50-21" />
    <path d="M697 435l-2 3 15 4 7-14" />
    <path fill="#bae131" d="M311 318l1 4-98-3 25-37" />
    <path fill="#665d4f" d="M617 384l-33 64 25-40 47-12" />
    <path fill="#6a623d" d="M433 588l30 66-5-30-5-24" />
    <path fill="#bdda4b" d="M276 244l-6 62 158-4-1-7" />
    <path fill="#020800" d="M631 519l-4 3 32 35-44 23" />
    <path fill="#2f2e1f" d="M898 445l49-4-20-3-30 3" />
    <path fill="#040700" d="M694 510l115 166 38-45-49-60" />
    <path fill="#bbc630" d="M1018 217l-42-13 19-29 31-23" />
    <path fill="#383800" d="M447 442l5 46 10 33 13-20" />
    <path fill="#4d6900" d="M-11 604l53-5-34-31-6 44" />
    <path fill="#8a896f" d="M527 240l65 79 67 61-82-90" />
    <path fill="#2a3402" d="M567 394l5-51-43 42-6 30" />
    <path fill="#c2e74a" d="M193 91l-80 5 317 3-149 21" />
    <path fill="#a4a5b1" d="M773 158l7-1 61 12-94-8" />
    <path fill="#313e00" d="M505 471l-7-35 17-8 10 45" />
    <path fill="#9ebf00" d="M26 514l-10 16 32 12 165-45" />
    <path fill="#020301" d="M733 437l28 10 62-35-83-6" />
    <path fill="#c1d956" d="M44 213l29 53 18-34-32-35" />
    <path fill="#181a01" d="M794 557l-9-13-22-24 9 43" />
    <path fill="#1a2904" d="M502 273l-64-48 1 23 20 63" />
    <path fill="#a9a7a0" d="M576 277l22 39 11 3-16-46" />
    <path fill="#848765" d="M292 607l-14-12 93 5-57 6" />
    <path fill="#adcb3b" d="M964 116l91-80-30 106-71-32" />
    <path fill="#79a000" d="M33 497l115-94-30 53-101-16" />
    <path fill="#8ea313" d="M71 459v-23l24-6-3 23" />
    <path fill="#5f6d1d" d="M565 474l-3-2 8-24 22 9" />
    <path fill="#8ca400" d="M77 349l-29 42-3-45 24-7" />
    <path fill="#6a9b00" d="M-19 537l61 42 54-25-45 47" />
    <path fill="#2d350c" d="M535 510l-50 65 51-61 81-59" />
    <path fill="#6a6653" d="M700 430l-69 21 54-36-41-19" />
    <path fill="#b7bab0" d="M530 206l129 100-143-114 63-15" />
    <path fill="#939599" d="M847 413l-45-13 162-5-90-12" />
    <path fill="#b2e04b" d="M690 44l-51 27-51-2 52-100" />
    <path fill="#3f3d1a" d="M736 449l26 6-34 21 40-14" />
    <path fill="#688033" d="M222 601l-22-25 46 4v16" />
    <path fill="#9c9f97" d="M387 669l43 6-10-12-107-10" />
    <path fill="#8aa600" d="M267 574l82-17 60 21 16-37" />
    <path fill="#1d1d11" d="M965 643l90-13-71-27-13 110" />
    <path fill="#b6e000" d="M396 396l16-11 17 23-39 15" />
    <path fill="#b3b5b6" d="M762 372l23 9-4-18-36-5" />
    <path fill="#505300" d="M88 358l1-25-10 37 43 37" />
    <path fill="#2a3117" d="M838 451l3 31 4-25 56-7" />
    <path fill="#312815" d="M594 410l-45 18 42 1-37 18" />
    <path fill="#b0cf28" d="M57 247l-23-23-42 26 52 7" />
    <path fill="#899f2f" d="M435 676l22 27-1-58-33 57" />
    <path fill="#9bd146" d="M112 25l100-12L330 0l-70-31" />
    <path fill="#9b9c9b" d="M764 347l-29 37 63 12-132-67" />
    <path fill="#71805e" d="M-31 269L7 374l-38-27 48-20" />
    <path fill="#9ec310" d="M157 528l-9-20 76 26-6-26" />
    <path fill="#22210e" d="M925 574l20 2 2 5-51 36" />
    <path fill="#192000" d="M114 361l-14-13-13 17 36 13" />
    <path fill="#aace47" d="M8 110l-39 56 69-31 16-17" />
    <path fill="#080700" d="M479 713l9-102 23-16 10 118" />
    <path fill="#a7dd41" d="M104 31L80 75l171-49-44 64" />
    <path fill="#7e7855" d="M626 434l21 20 1 11-33-11" />
    <path fill="#050500" d="M632 485l-35 10 37 10-19 12" />
    <path fill="#a0ac32" d="M31 301H19l29 49 14-19" />
    <path fill="#0b0b04" d="M661 405l-35 8 17 1 14 2" />
    <path fill="#709315" d="M437 262l-10-16 8-40-2 90" />
    <path fill="#cae85b" d="M395 121l-175 22-108-14 85-18" />
    <path fill="#b4d802" d="M274 454l32-98 10 43-62 18" />
    <path fill="#9bc800" d="M237 489l42 22 49 19-30-101" />
    <path fill="#cde44e" d="M936 105l-88-28 69 98-45-13" />
    <path fill="#060802" d="M1026 487l-71-67-58-10 60 24" />
    <path fill="#646558" d="M514 199l26 71-11-6-2-48" />
    <path fill="#c1d443" d="M923 114l122 32-109 72 72 19" />
    <path fill="#7eac00" d="M125 353l21 38 19-47 15 47" />
    <path fill="#37381e" d="M641 517l15-20-19 8-6 25" />
    <path fill="#8dc611" d="M36 87l-67 21 12-20-12-39" />
    <path fill="#abba51" d="M891 180l-13-17-22-7-15 2" />
    <path fill="#a5cb2a" d="M322 337l-13-12-41 21 78 45" />
    <path fill="#d2d5dc" d="M755 177l16-16 131 65-50-5" />
    <path fill="#70811f" d="M332 595l-27-20-17 11 25 15" />
    <path fill="#050a00" d="M629 470l97 69 12-59-62 52" />
    <path fill="#473c12" d="M548 565l-2 48 2 78-8-32" />
    <path fill="#1a2300" d="M481 346l53 1 11 20-58 79" />
    <path fill="#c6ced3" d="M988 253l-256-30 165-8 79 24" />
    <path fill="#141b00" d="M550 373l-15 38h15l-27 46" />
    <path fill="#9ead20" d="M430 441l11 49-31 32 22-33" />
    <path fill="#99c300" d="M257 411l-36 26-14-70 24-19" />
    <path fill="#575230" d="M604 461l-36 41 40-64 29 34" />
    <path fill="#696e1c" d="M20 358L4 375H3l39 5" />
    <path fill="#101701" d="M872 478l9 44-42-64 29 2" />
    <path d="M950 713l-6-45h-7l-16 26" />
    <path fill="#0a0a03" d="M701 439l9-18-31-30 37 55" />
    <path fill="#a8aaad" d="M952 372l71-8-153-33 118-11" />
    <path fill="#add72c" d="M360 429l-5 5 42-42-34 3" />
    <path fill="#a8d848" d="M794 2L648-31l-94 46 5 4" />
    <path fill="#1e1b02" d="M640 713l6-52-10-32 35 24" />
    <path fill="#171b04" d="M12 400l-1 17-20-9-22-7" />
    <path fill="#96cd38" d="M29 47l-5 6 20 30L172 8" />
    <path fill="#272300" d="M592 521l-36 68 12-60 17 15" />
    <path fill="#a0b35b" d="M645 164l105-15-27 12-63 4" />
    <path fill="#181f04" d="M601 538l1 59 6-39 2-28" />
    <path fill="#696f30" d="M41 642l-29-19-7-15 23-1" />
    <path fill="#aab95d" d="M83 309l-38 18 15-29 11-3" />
    <path fill="#cbe34f" d="M439 190l-68 73 75-67 86-25" />
    <path fill="#676465" d="M997 417l6-2h-27l34-5" />
    <path fill="#abc142" d="M11 314l22-46-47-28 17 37" />
    <path fill="#686669" d="M854 178l-8 8 29-12-55-1" />
    <path fill="#989e9c" d="M831 174l1-17-42-1 96 55" />
    <path fill="#020300" d="M843 504l37-27-64 7-50 31" />
    <path fill="#858787" d="M854 366l1-3-12 6 14 5" />
    <path fill="#9da196" d="M452 625l-24 46 24-22v-23" />
    <path fill="#4a6500" d="M425 591l27-7-33-15-5 21" />
    <path fill="#64ad05" d="M1055 54l-11-55-9-11-45 8" />
    <path fill="#585b32" d="M563 409l-21-1 19-10 3 12" />
    <path fill="#061400" d="M446 385l17 37 31-24-41-44" />
    <path fill="#010202" d="M821 456l28-30-49 26 89-24" />
    <path fill="#414510" d="M610 558l-31-6-14 19 38-6" />
    <path fill="#777a39" d="M85 337l-20 3 23-25 19 24" />
    <path fill="#202316" d="M860 184l5-5 14 19-6-3" />
    <path fill="#2a2f17" d="M897 467l66-29-64 16 5 11" />
    <path fill="#433b0a" d="M461 606l-13-42 23 140 6-8" />
    <path fill="#7f8184" d="M861 410l29-4-23-7 116 14" />
    <path fill="#39420b" d="M578 440l-39 47 14-33 48-35" />
    <path fill="#393922" d="M685 548l-84-112 75-21-73 27" />
    <path fill="#6f685c" d="M621 404l25 27-12 1-13-42" />
    <path fill="#c6d496" d="M656 173l-45-1-66 10 45 2" />
    <path fill="#7da500" d="M202 522l-72 18 150 7-90 16" />
    <path fill="#727140" d="M594 428l-23 52 31-35-22-1" />
    <path fill="#8fbe00" d="M184 532l-13 16 52-67 47 8" />
    <path fill="#0f1000" d="M1055 572l-137 32 55-94-12 119" />
    <path fill="#2f2b17" d="M858 670l-48 33 21 10 21-80" />
    <path fill="#101100" d="M827 580l-8 27 44-6 37-31" />
    <path fill="#110d05" d="M603 473l-7 20-10-13 5-6" />
    <path fill="#7c7967" d="M706 407l-48-72 56 80 31-12" />
    <path fill="#557800" d="M134 417l-31-7 38-13-20-51" />
    <path fill="#84b402" d="M355 467l13 98-44-39 58-58" />
    <path fill="#0c1700" d="M546 475l-9 8-2-27 9 1" />
    <path fill="#030800" d="M664 641l-33 15-39 12 49 1" />
    <path fill="#60670b" d="M463 648l6 52-17-39 3 2" />
    <path fill="#8d8c73" d="M678 392l23-3-26-27-17-44" />
    <path fill="#abb0b5" d="M848 288l-179 8 116-36 34 11" />
    <path fill="#bbbfc7" d="M965 277l-40 40 130 8-24-52" />
    <path fill="#090600" d="M739 458l10 3-10 7-19-7" />
    <path fill="#95a93a" d="M474 201l-19-4-29 21 26-9" />
    <path fill="#182300" d="M597 623l4-11-20 9 5 92" />
    <path fill="#88866e" d="M102 629l-26 16 116-29-5-5" />
    <path fill="#b5e456" d="M571 28l98 5-125 41 4-30" />
    <path fill="#9c9d88" d="M420 604l26 12 13-2-142 6" />
    <path fill="#9cd140" d="M938 36l-64-4v-7l-3-45" />
    <path fill="#bce254" d="M875 76l-77-2 34-31 38 2" />
    <path fill="#010200" d="M1045 468l-89-53 99 1-47 59" />
    <path fill="#bce139" d="M927 72l-4-24-36-2-12 23" />
    <path fill="#233910" d="M439 290l7-40 17-37-22 9" />
    <path fill="#242f0a" d="M760 474l70-16-51 2-11 38" />
    <path fill="#99a433" d="M123 337l-35-38 4 20 19 22" />
    <path fill="#81af1b" d="M57 548l13 19 9-20-3-3" />
    <path fill="#454403" d="M119 354l-12-13 6 25 14-1" />
    <path fill="#3e3b33" d="M662 425l26-10 60-5-107 12" />
    <path fill="#191c00" d="M560 650l6 49-10-48 23-20" />
    <path fill="#282700" d="M587 521l12-36-26 33-3-15" />
    <path fill="#b8b9c0" d="M698 288l-39-43 288 8-235 16" />
    <path fill="#6e8a1e" d="M100 597l29-23 68-1-99 30" />
    <path fill="#93938a" d="M561 245l77 73-7-1 17-13" />
    <path fill="#696035" d="M556 436l-31 34 21-48 5 1" />
    <path fill="#9e9f98" d="M201 625L87 656l19-24 45 1" />
    <path fill="#99c134" d="M963 32l84 63 8 8-71-86" />
    <path fill="#000400" d="M782 474l-3 6 11 3 14-19" />
    <path fill="#7a8f01" d="M85 335l-56 62-4 13 48-37" />
    <path fill="#c3c7c1" d="M752 172l-11-1-91 2-130 25" />
    <path fill="#262c06" d="M457 615l7-45 27 23-7 16" />
    <path fill="#61690d" d="M531 658l4-20-21-49 21 124" />
    <path fill="#adce3e" d="M250 342l37 7-12 22-27-6" />
    <path fill="#46450c" d="M572 657l-8 35-3-42-35 6" />
    <path fill="#acbf31" d="M1002 199l30-30-1 87-13-15" />
    <path fill="#594e18" d="M568 508l-4 35-43 123 42-138" />
    <path fill="#6a742f" d="M442 601l-53 4 15-12 29-2" />
    <path fill="#7c7a6d" d="M108 637l-69 19-1 38-4-48" />
    <path fill="#d2e859" d="M571 77l94 10-72 89-45-2" />
    <path fill="#c5e048" d="M659 146l-54 24 81-18 320-32" />
    <path fill="#85a421" d="M292 565l44-14 8 10-20 21" />
    <path fill="#181601" d="M558 328l-33-47-7-66-16 103" />
    <path fill="#bdbfc4" d="M760 290l5 16 28-1 42-6" />
    <path fill="#94958c" d="M535 217l-19-17 27 44-2-5" />
    <path fill="#b9da47" d="M24 148l19-31 69-19-70 69" />
    <path fill="#313014" d="M899 676l22 5 67 32H879" />
    <path fill="#b2cd2f" d="M168 286l-23 53-32-16 19-11" />
    <path fill="#2e2d1d" d="M605 515l10-13 1 44 11-14" />
    <path fill="#afb1b7" d="M865 288l59 8 89 2-127 14" />
    <path fill="#473f2c" d="M603 419l30-6-51-3-75-34" />
    <path fill="#676445" d="M625 347l-20-18 74 92-59-81" />
  </g>
</svg>