<svg version="1.1" viewBox="0 0 1024 682" width="1024" height="682" xmlns="http://www.w3.org/2000/svg">
  <path fill="#83963f" d="M0 0h1024v682H0z" />
  <g fill-opacity=".5">
    <path d="M456.6 713l598.4-4.6-28-253.8L430.7 250" />
    <path fill="#eeffb7" d="M187-31l800.2 61.8 67.8 383.5-354-9.3" />
    <path fill="#d6ff2c" d="M1055-11L-31 20.8 306.2 713l135.5-503" />
    <path d="M742.4 408.7l312.6 1.6-29.5 302.7-579.2-42" />
    <path fill="#b6aaff" d="M1055 302.2L805 408.8l-322.3-214L795.4 151" />
    <path fill="#bba8fd" d="M-23.5 680.4l448.3 24 31.5-94-240-7.6" />
    <path d="M478 713l-47.5-495.6 89.4-16 84 159" />
    <path fill="#7ca800" d="M447.2 595.4l-5.7-207.8-419.8-61.2L-31 622.6" />
    <path fill="#def75a" d="M-31 103.6l1086-36.2-923.4 222.3L11.3 332" />
    <path fill="#b4dd1e" d="M644 7.6L857 190l198 73.4V15" />
    <path fill="#9792b0" d="M651.5 395.8l-118-153L1055 334l-15 82.3" />
    <path d="M551.5 703.2l486 9.8 17.5-300-305.8.7" />
    <path fill="#add800" d="M432 424.8l-5.3-117.3L-31 528.7l463 23" />
    <path fill="#50591e" d="M597.7 575.6l-472 48.4L-31 675l26-107" />
    <path fill="#3e4500" d="M162 397.6l-55-64.8-138 58 34.8 48" />
    <path fill="#685c48" d="M731 386l-202.7 7 12 75.4 195.2-4" />
    <path fill="#050c00" d="M451.3 470.4L441 202l79.6 10.4 27.3 98" />
    <path fill="#444061" d="M885.3 210.6L787 151.3l71.4 7.4 33.3 37.5" />
    <path fill="#9de236" d="M355.2 99L-31 114 116.8-31l923.7 35.6" />
    <path fill="#d9dbe6" d="M1040 265l-248.6-96.7L576 184l-46.2 34.8" />
    <path fill="#d3ea60" d="M165.7 82.2L154 214.6l267.8 174.7 6-271" />
    <path fill="#84aa00" d="M95.5 401l-40.3-76L-18 589l476-28" />
    <path fill="#74810c" d="M544 645.2L514 374l1.6 238.4 6 91" />
    <path fill="#040500" d="M1055 500l-470-37.5 10.5 42.2L715 713" />
    <path fill="#46a20a" d="M-31-30.3l205.5-.7-126 76-66.7 73.8" />
    <path fill="#1e2100" d="M586.5 383.5L460.8 523l9-323.8 192.4 193.5" />
    <path fill="#b0b0b6" d="M450.2 662l13.8-27.6L321.8 589l-240 84" />
    <path fill="#2d3300" d="M639 608.4L404 599l20-24 96.8-182.2" />
    <path fill="#131200" d="M91.3 326.6l38.5 45.2-7 32.3-38.6-38" />
    <path fill="#827d7f" d="M-14 713l-17-40.6L95 626l157.8-39.4" />
    <path fill="#7c854e" d="M466.6 666l-158-3.5-15.8 35L465 694" />
    <path fill="#969187" d="M534 255.4L662 389l61.7-19.2L497 176" />
    <path fill="#b0b3bc" d="M978.3 232.7L1055 275v147.7L587 272.3" />
    <path fill="#838059" d="M684.7 414.4L565 463.6l153-6-34-28.4" />
    <path fill="#b7d53d" d="M-31 298l9.6-241.3 33 46.5 424.8 275" />
    <path fill="#a8d000" d="M29.5 576.7l404.3-204-16 149L264 290.5" />
    <path fill="#000003" d="M695.8 395.4l36 56.2-36.6-16.4-16.3-39" />
    <path fill="#010900" d="M517.8 713l-4.6-154.5-1.3-107.7-56 180.5" />
    <path fill="#cce64e" d="M730.7 22.3L607 155.7l271-.2L1055 95" />
    <path fill="#75be19" d="M1055-4L897-27l12.6 71 124.6 8" />
    <path fill="#719b00" d="M224.4 392.5l-73-32.3-72 90L234 415.8" />
    <path fill="#6c8912" d="M256 533l67-9.8 107.2 75.2-425-4" />
    <path fill="#8c9376" d="M492.3 185L423 214l85.8.6 35.4-29.5" />
    <path fill="#6f7724" d="M516.2 467l6 164.6 9 14.5 1.5-192" />
    <path fill="#839154" d="M128.3 565.6l255.8 53-32-55-122 61" />
    <path fill="#98999f" d="M881.6 414.8L635.8 321l244 41 175.2 43.2" />
    <path fill="#000200" d="M532 476l19.7-27.8.3 118.7-13.3 16" />
    <path fill="#c2d535" d="M1008 40.8l47 195.5-117.7-15.5-81.8-58.4" />
    <path fill="#6a5e18" d="M519 664.2l-1.8-146L548.6 683l18-174" />
    <path fill="#2b3210" d="M663.5 497.8l70.7-46.7 185.2-8 111-3" />
    <path fill="#303900" d="M18 393.6l-11-30-19.4 85 61-17.5" />
    <path fill="#292c20" d="M838 174l8.8 3.3 34.4-.5 4.6 28.8" />
    <path fill="#4b5f06" d="M115 595.5l-95.7-18.8-15-79L-31 681.4" />
    <path d="M1037.3 414l-3.4 43.5-222-45.8 175 4.5" />
    <path fill="#6d6857" d="M738 404.5l-8.7 40.5-66-99.6L675 337" />
    <path fill="#484e16" d="M590.6 525.3l30-.6-11 179.3-15-80.6" />
    <path fill="#b1d23a" d="M209.3 193.8l161.4 256.5L440.2 253 268.5 404" />
    <path fill="#9cb122" d="M-31 235.7l72.2-1 35 126-35 9.8" />
    <path fill="#a1a2a7" d="M783.8 406.7l78.7 6 192.5-73.5-359 29" />
    <path fill="#939f62" d="M658.5 157l176.3-12.6 59.6 48.4-20-24.5" />
    <path fill="#706b15" d="M468.8 526l-49.2 81 28.7-193.6-17 13.7" />
    <path fill="#b1e335" d="M426.8-17l-38.2 128.7L137 93l42-124" />
    <path fill="#82ac00" d="M-31 518.5L80.8 376.7l-16 171.5-3 58.4" />
    <path fill="#c5dd4c" d="M422 289l-196 30.5L-31 198l86.4-55" />
    <path fill="#91c830" d="M21.2 42l152-73L54 124l-70.3-.5" />
    <path fill="#abdb48" d="M880.8 65.3l-767.2-53L849-31l206 131.5" />
    <path fill="#bdbfbc" d="M405.3 673l-57-25.2 85-46.5 6.7 69" />
    <path fill="#abd500" d="M430 382.2l-17 83-275 62.5L288.8 381" />
    <path fill="#5d544b" d="M-25.6 590l25 51.4-30.4 64.4 98.5-74" />
    <path fill="#acabaf" d="M60.6 652.6l277-48 31.2 16.5-72.8 79" />
    <path fill="#cde85c" d="M656.8 14l-331 91.8-16.4 22 40.2 169.8" />
    <path fill="#7f7d58" d="M461.2 713l-20-116.8-190 14 207.2.8" />
    <path fill="#111900" d="M447.4 468l103-173.6-41.4-77.7-71.5 14" />
    <path fill="#597405" d="M428.7 258.4l6.2 165.8 8-215.8-16-.6" />
    <path fill="#97be00" d="M444 503.6L9.4 549.8 72 461.4 176 407" />
    <path d="M755.3 405l192 33.4-189 7.3-26.7-40" />
    <path fill="#2d710c" d="M28.4 16.5L-31 58.3V6L97.6-31" />
    <path fill="#9db059" d="M-31 269.8v105l236.2-117.2-168.4 52.7" />
    <path fill="#678900" d="M-19.4 605.8l196-30.5 106.7-9L182 532.8" />
    <path fill="#c0c3c6" d="M534 206l5 23 183.2 107 17-115" />
    <path fill="#010008" d="M646 402.7l-15 9.7 31.6 8.5.5-12" />
    <path fill="#2f270d" d="M836.2 707l-12.8-59L937 582.4 824 713" />
    <path fill="#706b4e" d="M812.6 456l-190-2.2L616 388l43 50.5" />
    <path fill="#aeae9e" d="M672 377.4l-18.6 7.2-21-34.3 16.5-28" />
    <path fill="#80753b" d="M558 437.5l-40 45 4-3.8 22.8-55" />
    <path fill="#adb2b3" d="M732.4 406.6l25.7.5 24-2-4-183" />
    <path fill="#655c50" d="M671.4 401l-118 17.5L633 385l94.2-3.3" />
    <path fill="#363200" d="M447.6 587l23.2 114 13-5-16-223.5" />
    <path fill="#d1e954" d="M689.4 65.3l-92 101L896 126.5l-22.8-72" />
    <path fill="#556000" d="M137.7 388.3L120 426l-69-40.5 35-15" />
    <path fill="#839b1d" d="M468.2 694l-7.7-36.3-22.2 13.6-85.7 13.8" />
    <path fill="#88ad00" d="M304 481l141.7 69.3-20.6 23.2-33 17" />
    <path fill="#b8d24f" d="M117.8 340.8l28.4-51.6 178-42.6L57 227" />
    <path fill="#d4e965" d="M543.6 187.3L411.8 194l-183.5-64L777 88" />
    <path fill="#313903" d="M549.7 319.6L582.3 447l-42 41 13.6-46.7" />
    <path fill="#000500" d="M581.5 698.4L579 574.8l-8-9.2-4.7 55.5" />
    <path fill="#999a83" d="M381 605.6L47.4 647.8l153-37.3 81.4-13.2" />
    <path fill="#9c9ca8" d="M1055 377.5v-59.8l-118.3 12.5-7 84.2" />
    <path fill="#77a700" d="M141 422.3l-16-73.7 51.3 14.8 19.5 56.2" />
    <path fill="#837d8a" d="M387 713h-71.4L285 659.7l74-4.6" />
    <path fill="#a2a99c" d="M589 173.4l180.5-20.8 62.6 27.6 30-20.5" />
    <path fill="#6e6657" d="M601.4 311.6l-20-16.5 33.3 55L520 244" />
    <path fill="#111300" d="M737.6 702.5l1-248.4-132.4 37 40.4 202" />
    <path fill="#030400" d="M894.4 464L942 636.4l113-83.5V453" />
    <path fill="#accc46" d="M427.8 348.5L351.4 258 316 323l21.8 56.3" />
    <path fill="#5a5c39" d="M512.5 425.7l64-38.2L653 399l-132.8 7.3" />
    <path fill="#bfc2ce" d="M1055 266.2l-173 19 91.8 34.2 80.8 13.2" />
    <path fill="#000200" d="M501 543.3L521.6 713l32-44.6-73.3 44.6" />
    <path fill="#63ae01" d="M1055-1.7V40l-.5 13.2L910.2-31" />
    <path fill="#aac439" d="M1055 40l-94.7 7 91.2 227.4-71.4-48" />
    <path fill="#c0cc96" d="M611 187.6L451 197l137-23.7 56-2.8" />
    <path fill="#dad9de" d="M701 205.5L840.6 187l-162.8-13.5-147.5 37.8" />
    <path fill="#819600" d="M130.3 459.4L56.3 339l-42.6 17L62 465" />
    <path d="M1055 423l-183-11.5-139.2-1 41 40.3" />
    <path fill="#493e02" d="M535.8 713l17.7-107.3 14 6.4 2.5 101" />
    <path fill="#a4a5a1" d="M530 228.2l12 35.4 113.3 28.6-109-60" />
    <path fill="#1b2200" d="M14 384.4l-45 45v-7l50.4 2.2" />
    <path fill="#010b00" d="M535 526.6l1.4 89.8 13-69 6-71" />
    <path fill="#afb4b4" d="M864.3 253.2L984 367.4l-221.4-17-138-65" />
    <path fill="#91ab48" d="M404 531.5l10-27.8 27.5-5-14.5 36" />
    <path fill="#b6e34e" d="M807.4 52.4l-199 25-68.8 20L360-31" />
    <path fill="#262801" d="M645.7 380l-18-22-109.3-45-38.8 98.4" />
    <path fill="#b0cb3c" d="M899 139.7l-163 14.6-137.8 17 106-27.3" />
    <path fill="#616125" d="M565 448.8l57.5-3.6-5.8-1.7-51.6 65.8" />
    <path fill="#758269" d="M8 376.7l7.6-79.3L-31 352v113.5" />
    <path fill="#767780" d="M992.2 405l-40 8.5-112.6-8.5 215.4 1" />
    <path fill="#130f01" d="M556.3 288.4l36.3 37.5-96.4-13-32.4-109" />
    <path fill="#818188" d="M85 639.6l17.4 44-129.5.4 75-36.2" />
    <path fill="#81aa00" d="M-31 540l448.4 19-334.6-36 42.7 74" />
    <path fill="#cbe443" d="M903.6 37.3l83.7 129.4-84.5 19-54-42.5" />
    <path fill="#101900" d="M94.4 362.3l-1-15.4 15.6 4 22 49" />
    <path fill="#1d2903" d="M435.5 243.3l9-17.3 88.3-8.5-95 147.4" />
    <path fill="#b0d525" d="M406.6 374l-30 71.6-35.2-15.6 31.3-87" />
    <path fill="#0d0e05" d="M683 381.3l23.4 52.3-14.2 9 34 4.2" />
    <path fill="#9bcf30" d="M821.3 28.7l-10.5-9 68-50.7L1055 73.8" />
    <path fill="#342d09" d="M556.8 541l36.7 73.8-5.4-154.2-11 16.8" />
    <path fill="#a0be1a" d="M167.5 310.2L103 329.8l74.6 55 29-9.6" />
    <path fill="#cee240" d="M13.4 150.8l143 27.6-2.6 28.3-144.5 18" />
    <path fill="#728c27" d="M230 562.7l123.7-3-34 46-193.4-27" />
    <path fill="#d8eb54" d="M159 159.7l272.5-3 2.6 68.8-346-35" />
    <path fill="#58530d" d="M455.7 475.8l12.4 9.6-19 138-16-299" />
    <path fill="#6d8f01" d="M69.3 443.4l-19-22.6-72.6 22 74.4 43" />
    <path fill="#413f22" d="M635.7 493.3l16.3 9-15.6 28 .2-15.4" />
    <path fill="#bce635" d="M413.7 52.7L8 97.4l314 12.2 121-13" />
    <path fill="#9ea2a1" d="M892.7 411.8L724 320l-37.7 3.4L734 404" />
    <path fill="#cfd5dc" d="M1012.2 257L758 168l-52.7 3.2 189 68.7" />
    <path fill="#a2a5b5" d="M1055 272.6l-62 6.6-18-34 62 9" />
    <path fill="#5f7605" d="M414 599.6l20-35.6-64.8 32 1.3 11" />
    <path fill="#4f512b" d="M592 534.3L609 641l-20.5-71.8 33.8-72.8" />
    <path fill="#8cb900" d="M406.4 506.6l-49.6-61.8L336 550.5l43.3 14.6" />
    <path fill="#90bb38" d="M259.5 493l6.6 32.5-25-10 6-21.5" />
    <path fill="#1f1a0a" d="M884.5 679.6l86.7-61.7 72-23L959 713" />
    <path fill="#99bc00" d="M156.4 527.6L32.6 544.8 94 412l-51-5.5" />
    <path fill="#9cd63e" d="M377.7-18.5l7.6 10L21 89.5 209.2-31" />
    <path fill="#586113" d="M534.5 431L516 406.8l3.6 41L533 431" />
    <path fill="#2f3526" d="M871.3 181.8l-30.4-3 46 23.8-4-7.3" />
    <path fill="#9cc008" d="M30.2 273l29.6 11.6-19.5 29.6-12.6-7.2" />
    <path fill="#625c50" d="M705.7 432.2l-80-81.4 56 92-88.6-21.4" />
    <path fill="#a1b23c" d="M895.5 219l-18-37.4-55.8-53.8 74 62.4" />
    <path fill="#303024" d="M994 438.5l21.5 3-112.2 1 74.5-7.8" />
    <path fill="#162400" d="M449.5 466.5l65 131.6-7-224-59 57" />
    <path fill="#96bf36" d="M365.3 492L345 504.4 326.6 490l8.4-16" />
    <path fill="#6c6a36" d="M105 343.6l5.3-11L85 321.4 76.8 343" />
    <path fill="#92af29" d="M435 193.6l-7.3 194.6-12.2-54.4 1.7-16.5" />
    <path fill="#121700" d="M827 662.7l-207 7-51.8-84 1.6 127.3" />
    <path fill="#556a00" d="M51 612.3l36 18.2-2-48.7-116 10.6" />
    <path fill="#030400" d="M935.3 513.2L777.3 673l56.8 28.7-78-210" />
    <path fill="#3e4523" d="M920 456l-55.6 16.3 15.3-13 19.4-5" />
    <path fill="#555e33" d="M462.6 199.3l-5.7 4.2-22 14.5h65" />
    <path fill="#add623" d="M259.5 292.4L171.7 369l161.7-63.3-25.2 74.7" />
    <path fill="#a3bb3a" d="M422.3 203.4L476 185l-4.8 8.5-46 34.5" />
    <path fill="#939589" d="M653 296l-54.3-27.5L656 395.7l-11-51.4" />
    <path fill="#72825a" d="M532.2 551.2l-10-.3-4-14 11.8-9" />
    <path fill="#010500" d="M689.6 500.3l-80 75.3 21.6-3 175-57.2" />
    <path fill="#c0e153" d="M100 96.7L24 145l151.4 11 90-55.2" />
    <path fill="#888983" d="M458.2 204.4l69.8 4.3 9.4 55L519 193" />
    <path fill="#191702" d="M889.5 576.7l-27-21.6-30 92L991 555" />
    <path fill="#7a8153" d="M633.5 455.5l-37-10.2 79.7-11.5 29.4 10.5" />
    <path fill="#aacd3a" d="M252 342.2l24.5-7.5 16.6 59-57-29" />
    <path fill="#252403" d="M713.8 539l28 85.2-16.3 7.4-6.2 2.4" />
    <path fill="#736e5c" d="M725.5 452.4l15-55.5-124-10 97 2" />
    <path fill="#c0bfc9" d="M389.6 654l57.2-2.8-10.5-25.7-29.6-5.8" />
    <path fill="#737325" d="M433.4 559.6l5.6-127.8 19 100.5-18 34" />
    <path fill="#556920" d="M224.7 560.6l-1.5 28.7 19.6 4.5 8.7-24.8" />
    <path fill="#7f914c" d="M293 598.4l-79.3.3-67.4-18 46 34" />
    <path fill="#adadaf" d="M351.8 601.7l36 35.7-198 69 61-87.8" />
    <path fill="#3e430f" d="M-25.2 572.6l-5 61 46.5 27-33-111.8" />
    <path fill="#abacb2" d="M78 662.8l46.8 20.7 33.4-2.2-19.2-49" />
    <path fill="#5e4d1f" d="M528.2 594.4L557 570l-2.5 85-17.7-71" />
    <path fill="#050500" d="M589.4 480.4l20.3-9-15.8 46.2 25-17.3" />
    <path fill="#91bc00" d="M146.7 378.8l9.6-35.3 84.8 87.7 10-66" />
    <path fill="#c6e84d" d="M449.5 50L398 108l517.2-48-323.6 9.4" />
    <path fill="#353115" d="M784.5 490.6l26.6-37.8-107-10.2 124 34.6" />
    <path fill="#8ea631" d="M198.5 523.8l26.4 1.4-27 38 29 56.2" />
    <path fill="#96a8a9" d="M886 214l-42.8-22-32-18.5 89.5 34.8" />
  </g>
</svg>