<svg version="1.1" viewBox="0 0 1024 682" width="1024" height="682" xmlns="http://www.w3.org/2000/svg">
  <g fill-opacity=".5">
    <path fill="#498aeb" d="M266.8 134l69 41-11.7-12.4-14-23" />
    <path fill="#f6edb7" d="M812.4 433.6l25.6 22.2 7-52.4 5.8 29.4" />
    <path fill="#151425" d="M283 213.3l12 22.3-20.7-23.3-73.3-48" />
    <path fill="#030100" d="M15.3-1.5L157 109.3 55 6.7 5 19.5" />
    <path fill="#0f0006" d="M945.8 501l40-26.2-27.7 9.5 24 12.8" />
    <path fill="#6c5346" d="M191.3 367l25.2 10 25.3 82.6-63.8 11" />
    <path fill="#abd4ee" d="M1014 281l-16.7-4.7 20.3-2.2 37.4-11" />
    <path fill="#131716" d="M639.3 414.4l-42 10.5-10 67 23.3-14" />
    <path fill="#604c19" d="M905 293.8l62.5-.8 24 7.8-58.3-35.2" />
    <path fill="#10100a" d="M993 307l6.6 15.3 25.6-41.3-43.7 13.5" />
    <path fill="#abd4f9" d="M150.5 330l4 49.6L-31 342.4l136-31.7" />
    <path fill="#957b63" d="M454.7 333L383 368.3l3-36 99-17" />
    <path fill="#537caf" d="M958 204.8l8.5 14.7-92.5-21.8 41.6 10.7" />
    <path fill="#2960a7" d="M468.4 333l-1 20.3L502 372l11-20.6" />
    <path fill="#757c73" d="M507.7 481.7l14.2 25-21-12 7-118.4" />
    <path fill="#050406" d="M736 456.2l20-2.7 3.3 40.6-26.4-5" />
    <path fill="#6c5a07" d="M-31 512v-22l146.6-25 29.5 8.4" />
    <path fill="#7a621f" d="M980.3 279.3l-29 54 79-80.6-12.8 6.3" />
    <path fill="#070a07" d="M570.7 459.2l2.8 22.8 7 15.4-2.4-74.2" />
    <path fill="#579cef" d="M226.8 250.3L213.4 213l-8-9 1.3 84.8" />
    <path fill="#ddcdc7" d="M269.2 430.7l3 37 1.3-118-3.6 30" />
    <path fill="#7eb3db" d="M819.7 270.5L716 287l59.8 12.8 28.3-3.2" />
    <path fill="#170b0d" d="M-6.8 128l6.5-40 17 22.3 31.7 5.2" />
    <path fill="#cb9127" d="M677.4 358l50.5-26-22 76.5 56-51.2" />
    <path fill="#f2dcb4" d="M891.8 401l1.2-18.4 59-8.7-67.4 1" />
    <path fill="#000905" d="M75.4 504L65 479.2 52 503l20-3.8" />
    <path fill="#fffff2" d="M374.5 214l11-1.4L518 149.4l-24.4-.5" />
    <path fill="#7e7c73" d="M358.5 363.7L254.8 398l109-31.6 100.7-29" />
    <path fill="#0b0d00" d="M80 70.6l-101.4 3.7 51-2-48.3-29" />
    <path fill="#607214" d="M505 568.6l-75.4-4.7 282 42-83.3 97" />
    <path fill="#3f450c" d="M-31 602.3l176.8 52.2-114.2 13 67.7-87.8" />
    <path fill="#34220c" d="M83 160l75.6-26.8-33.6 15-58.2-4" />
    <path fill="#e2c69c" d="M927 505.6L905 541l-165-14.2 196.5-10.4" />
    <path fill="#0e0d10" d="M5.4 154L37 140l-56 52.3 47-27.6" />
    <path fill="#88642d" d="M743.3 348.7l28 52.7L761 436l-11.3-36" />
    <path d="M360 301l155.6-63L318 295.5l37.4 33" />
    <path fill="#0e121d" d="M291.6 129.3l-148.2-.6 166 5.7 36.5 26" />
    <path fill="#ceb78a" d="M771 434.2l.8-37.8 17 37.2-35.4-3" />
    <path fill="#001000" d="M590.6 566.6l-23.8-21-43.6 32.4-81-34" />
    <path fill="#65a5ec" d="M-27.5 199.3l74-42-77.5 109 86.3 58.4" />
    <path fill="#878479" d="M133.8 183.5l-18.4-7 23.2-16.2 11.2 32" />
    <path fill="#270f00" d="M175.8 164.2l-21.5 141 21.6-69 32-21" />
    <path fill="#0e141d" d="M548.6 382.2L507 448.8l17-46.6-45.7-34.7" />
    <path fill="#968c78" d="M370.3 314.3l2.2 1.3-20.5-20 39.8 3.8" />
    <path fill="#3371dc" d="M15.2 65.2L-6 98.2 8.6-31-31 55.8" />
    <path fill="#574a34" d="M299.6 352.5L283 349l13 19.6 19.3-34.3" />
    <path fill="#fff3dd" d="M299.8 526.8l-111 7 5.2-7 43.2-3.7" />
    <path fill="#040000" d="M235.6 473.5l-27-5.6 70.5-4-2 6" />
    <path fill="#241e21" d="M282.2 436.6l-9.4 14.3-83.2-13h52.8" />
    <path fill="#2d6dd7" d="M-31 83.7L-8 17l82.5 29L31 18" />
    <path fill="#243230" d="M670.6 367l6.2-27.5 12.3 62-12-31" />
    <path fill="#3d0d00" d="M354.3 230.7l-49.6 87.6-23-67.6 9 13" />
    <path fill="#241c10" d="M754.4 514.7l36.3-40-24.7 7.6-.8 38.7" />
    <path fill="#cca36d" d="M67.6 519.8L10.2 574l78.4-79.3-33.2 11.6" />
    <path fill="#070a0d" d="M487 531l-61-11.5v16l31-1.8" />
    <path fill="#a68b24" d="M632 433.5l38.2-60.2L710 477.8l-8-62.2" />
    <path fill="#121c32" d="M698.8 518.3l-13 4.4 52 5.3-24.8-23.8" />
    <path fill="#a97549" d="M75 560.6l134.3-20.2-148.2 9 39 9" />
    <path fill="#bfb18b" d="M794 392l-4.5 18.6-5-6-24-21" />
    <path fill="#77b3ec" d="M840.4 323.5L906 246l25.4 25.6-22 6" />
    <path fill="#d4e3ea" d="M187 363l8.2-75.3 1.5 40.6-9 66.5" />
    <path fill="#4b4421" d="M171 86l44.8-4-36.2 20.6L157.2 17" />
    <path fill="#332708" d="M767 433.3l17 16.4 50.2-43.3 7.7 20.2" />
    <path fill="#6c899a" d="M564.8 284.2l.8-15.7 48.8 42.5-56-37.5" />
    <path fill="#cfc7ac" d="M475 515.8l-1-41-9 41-20.3-31.4" />
    <path fill="#7a6732" d="M847.6 360.4l30.8 36.4-2.7-49 37.7 24.7" />
    <path fill="#a88869" d="M820.5 505.3l27.5-6-44-4.5-10.3 10.6" />
    <path fill="#fdc69a" d="M355 220.5l-35.5 26.8 104.3-51.7-93 34" />
    <path fill="#faebbe" d="M132.4 525.8l20.4-8-24 19.4-61.6-9.5" />
    <path fill="#3f3027" d="M107.5 169.4l-.4-44 40 46.6-22-9.7" />
    <path fill="#2a1a00" d="M716.4 484.8l-54.7 11.6 3 6 77-16.8" />
    <path d="M510 321.3l44 21.7.7-66.5h-41.2" />
    <path fill="#dee4e3" d="M101.6 458.5L73 464.3l-30.4 1 19 9.7" />
    <path fill="#988b6d" d="M322.4 352.6l-4.7-41.7 31.3 12-30.7-2" />
    <path fill="#303634" d="M373.2 362.2l15.3 32.5-62 17 61.5-6.5" />
    <path fill="#1b151f" d="M286.6 428l-2-52.3 5.5 2 1 62" />
    <path fill="#0b0100" d="M567.8 271l49.6 38 46.3 4.6-75.8-84.2" />
    <path fill="#1c4faf" d="M1026.4 21.7L453 94l565.7-4 36.3 16.7" />
    <path fill="#30333f" d="M612.7 461l29 22.3 10.6-52.5-38.4 15.6" />
    <path fill="#8d6d0f" d="M163.8 507l21-44.7 2 68.3 79.5-42.7" />
    <path fill="#4780da" d="M39.4 134.5l-17 95.4-53.4-25 58.6-31" />
    <path fill="#050610" d="M286.8 390.6L312 379l72-10-65 16.2" />
    <path fill="#765941" d="M214.4 398.2l-16.8-27 60 10 31.3-.3" />
    <path fill="#78a1c7" d="M937.7 257l-77 47 103.5-57.6 6 6.3" />
    <path fill="#957a29" d="M976 437.5l-40.5-3.4 7.5-22 20.4 39" />
    <path fill="#6d8105" d="M903.4 546.5l-43 39.6 181 22 6.6-62" />
    <path fill="#2b1a22" d="M481 430l37.2 6.6-1.8-7.4-27.2 14" />
    <path fill="#586d13" d="M328.4 565.3l-88.6 18-94 11.8-9.3-15" />
    <path fill="#020302" d="M274.3 208.2l14.8-10-85-38 73 40.8" />
    <path fill="#b9ad9e" d="M622.5 468.7l7 21.7-10.8-7-37.6 24.2" />
    <path fill="#255cb4" d="M230.8 16L190 57l24-88 177.4 178.2" />
    <path fill="#4b3c36" d="M123.2 370.6l43 22.4-24.2-11.3-10.4 46" />
    <path fill="#131f2a" d="M298.4 531.7l-125.6 16.6-34.6-.4-1 34" />
    <path d="M932.7 462.2l28.6-15-9.5 25.7-3-12" />
    <path fill="#705f53" d="M576 408.5l-22-76.3 35.3 50.8 74 36.8" />
    <path fill="#e9d3ad" d="M734 530l116.2 8-177-1.8 17-11.4" />
    <path fill="#403617" d="M877.8 498.8l-.4 15.8 8.2-.2-4.2-30" />
    <path fill="#dfcda1" d="M108.7 415.3l-5.6 38.5-6-26-47 3" />
    <path fill="#d2c6a8" d="M809 413l59.4-37.4L872 400l-37.6-11" />
    <path fill="#596310" d="M1054.6 606.3l-100.6 1L791.3 683l235.2 3.5" />
    <path fill="#dda242" d="M872 479.4l54.6 10.7-52-17-10.6 35" />
    <path fill="#eeece8" d="M798.6 512.6l-20 4.4 10.4.3 40.8 3.7" />
    <path fill="#faeaac" d="M460 454.5l-97.5-10-37 8.4 35.8 11" />
    <path fill="#4d8cef" d="M981.2 194.3L1055 145l-65.8 65.6 65.8-9" />
    <path fill="#070b08" d="M496 473.5L547 357l-64.6 144.8 22.8-4.3" />
    <path fill="#665e5b" d="M522.4 408.6l3.4 35 27 21.4-35.4-33.6" />
    <path fill="#4782c6" d="M233 168l85.6 38.2-35-26.7-43.7-2.7" />
    <path fill="#180514" d="M1016.6 229.3l-4.2 9 23-9.2 19.6-33" />
    <path fill="#2a0100" d="M516.4 176l-200 74.6-5.4 99-17.4-26.5" />
    <path fill="#685a48" d="M569.5 247l-8.6-2.7-6 35 10 57" />
    <path fill="#e5e4c7" d="M657.7 517.3l-13.3 33.4 17.7-44.4-5-17" />
    <path fill="#528fe6" d="M106.3 290.3L80.5 167.8l39.6-19-58 61" />
    <path fill="#1e1712" d="M877.2 427l-12-28.7-15.6 7.5 72.2-4.3" />
    <path fill="#0b0704" d="M134 153.4l16-70L221.6 231l1.7-18.5" />
    <path fill="#ece0ca" d="M255.8 390l7.3 19.3 20-8.3v-12.7" />
    <path fill="#f3eadb" d="M471 509.8l-136.2 2.4 109.4 6.6 36.2-4.3" />
    <path fill="#0a1c02" d="M326.3 578.4L440 549.6 323.7 586l-119.3 13.7" />
    <path fill="#340b00" d="M824.7 451.4l-30.5 18 3.5-17-7.7 2.5" />
    <path fill="#2b1c0e" d="M979.6 378.7l-13 25.7 25.7-3 10 8.3" />
    <path fill="#8da0af" d="M332.8 411.4L246 432.7l119.2-23.3 48-7.4" />
    <path fill="#b3d7e8" d="M720 342.5l-63.2-54.2 35 42.2 9.7 9.8" />
    <path fill="#326dd9" d="M539.5 167.5l81.8 48.8 310.5-15.8 14.4-63" />
    <path fill="#0d3bae" d="M468.6 146.6l-80.3 52.8 54.2-24.7 65-36" />
    <path fill="#dbe1e5" d="M283.7 360.2l-84.5 6.3 78 15.6 8.3 85" />
    <path fill="#e8d7b4" d="M314.3 496.8l-.5 31-82.6-23.2 66.3 33.8" />
    <path fill="#332607" d="M931 243.4l106-17.7-120 31 18 10" />
    <path fill="#272828" d="M354 242.3l-51.7-65 7.8 28.4-20-40" />
    <path fill="#52585e" d="M43.4 460.3l-26 9 18.3 4 66.5-19.4" />
    <path fill="#74511e" d="M920 386.2l56.6 18.3-47.3-22.7-38.5 48.7" />
    <path fill="#746205" d="M-26.8 463.2l85.3 35L40 465 .3 509.3" />
    <path fill="#020600" d="M896.3 489.5l3 10.3 19.7 17-30.4-24.4" />
    <path fill="#0d1723" d="M976 235l-7 46.7-1-65 30.4-24" />
    <path fill="#290d00" d="M150.7 211.5L144.5 102l-2.3 75 48.2 39.7" />
    <path fill="#272e01" d="M252.2 485.4l-22-.8-45 11.2 21.8 3.6" />
    <path fill="#5781c2" d="M295 169.8l-59-9.8 17.4-2.7 15 3.8" />
    <path fill="#748d14" d="M574.6 564.4l156 43.5-126.3-18-64.6-28" />
    <path fill="#000501" d="M491.2 585.2l-18 2.6-63.8-32 71 19.4" />
    <path fill="#653b0c" d="M570 509.7l-63.6 5 49.5-10 19 3" />
    <path fill="#f7e3c4" d="M154 380.4l-3.3 153.3 10-67.4v15.2" />
    <path fill="#617210" d="M249.4 604.7L164 628.5l-5.6-27.7 53-7.5" />
    <path fill="#987d1d" d="M976 456l79-9.7-95.8 26.6.7-20" />
    <path fill="#675f50" d="M589.8 264.6l2.2 108-13.5-13.3 9.7-97" />
    <path fill="#e7e4d6" d="M899.8 480.4L866 494l2.8-15 19.2 14.4" />
    <path fill="#437fe0" d="M42.6 151.4l-23-12.2 9.2-16.7-59.8 4.3" />
    <path fill="#0a0809" d="M211.6 174.2l47 41.7-45.4-59 62.6 13" />
    <path fill="#23263e" d="M142 238l3 19.8 1.6-2.7 2.7-54" />
    <path fill="#64a4f0" d="M141 245l13.4 25L69 298.6l71.5-119.2" />
    <path fill="#dbc08f" d="M103 385.8l-36 18 45.5-11.8-9.6 25.4" />
    <path fill="#827557" d="M486 516.8l23.5-15 1.7 11-26.5-3" />
    <path fill="#00080b" d="M292.7 533l-7.7 43-1-37.2-92 11.2" />
    <path fill="#100807" d="M106.3 405l-9.6 12.5-8.3-5.4 39-8" />
    <path fill="#2e3a2b" d="M347.8 487.3l-32 .4 6.5-82.4-1 62" />
    <path fill="#050a0c" d="M558.4 493l-34.8 7-16-15.2 48-27.4" />
    <path fill="#396dc0" d="M8.8-13l92 8 36 67.2-50-73.2" />
    <path fill="#4781e8" d="M637.7 226.3l292-15.5L958 201l-84 45.7" />
    <path fill="#3c85ea" d="M340 229.6l-4-26-42.6-42 75 36.6" />
    <path fill="#a79584" d="M673.7 350.2L637 334.8l22 21 4.8-25.8" />
    <path fill="#513f26" d="M276.6 483.3l71 26.3L375 497l-69.7 4.6" />
    <path fill="#e3f3fb" d="M79.2 421.3l-14.6 31.3-67 15.4-28.6-64.2" />
    <path fill="#140907" d="M798.3 475.2l17.3 4.8 28.6 9.3-7.4-25" />
    <path fill="#446596" d="M904.7 304.3l-49.3 21 7-6.6 36-4.6" />
    <path fill="#fed98e" d="M136 576l-1-7.2-1-13-51.3 20.8" />
    <path fill="#445611" d="M482 682.2L599.7 621l-66.3-22-131 114" />
    <path fill="#f2e5a8" d="M379 428.7l13.3 4.8-3.2-34.3 54 10" />
    <path fill="#3e79cf" d="M292 126.5l-64.7-.7 28.2-9 11 .8" />
    <path fill="#5896e3" d="M213 183.8l57.5 47.4-4.8 9-61-48.8" />
    <path fill="#6f460c" d="M795 481.3l-14-77 30.2 22.5-15.3-36" />
    <path fill="#fffae9" d="M422.8 531.4H418l-19 6.2 24.8-1.7" />
    <path fill="#060300" d="M172.7 123.2l-16.4 54 69-6.6 20-68.8" />
    <path fill="#576715" d="M822.8 659L515 635.3 460.4 590l41 93.4" />
    <path fill="#190800" d="M992.5 359.8l21.2 6.4-24-21.8 57.7-31.4" />
    <path fill="#bfaf73" d="M770.5 460.5l12-11-19.6-11.8 5 8" />
    <path fill="#14140e" d="M629.6 504.2l-28.3 14 3.2-5.7-7-2" />
    <path fill="#574516" d="M361.6 512.3l100-28.2-87.3 28-6 3" />
    <path fill="#0f0503" d="M860.4 429.6L887 415l-37 13.8 8.7 62.3" />
    <path fill="#3e530b" d="M343 674l77.4-34.4-120-11.5-135.2 53" />
    <path d="M867 475l46.2-8.4-57.5 3.5 6 29" />
    <path fill="#1d1e12" d="M443.5 477.6l79.7-19.2-59-3-93.7 8" />
    <path fill="#050502" d="M362.5 321.3l-43 26.3 63-71.3-51.3 11" />
    <path fill="#363524" d="M284.3 435.2l76-11.7-79 27.6 8-9" />
    <path fill="#261e10" d="M812 513.6l22.7.7-34.4-45 34.4 26.4" />
    <path fill="#57a0fc" d="M330.6 233.4L318.8 202l-6.2 43.5-20.4-32.2" />
    <path fill="#836527" d="M945.7 423l47-122.7-88 139.8 95.5-98" />
    <path fill="#999230" d="M734.5 493.4l-96.3-1 62.5-6-21.7 31.2" />
    <path fill="#d2ba9c" d="M604.6 524.2L643 515l-103.6 5.8 55.2-21.2" />
    <path fill="#ead7a5" d="M367 535l-29.6-1.4-16.7-15 5.8-19" />
    <path d="M714.5 494.2l34-4.3-30-17-42 10" />
    <path fill="#1d0a00" d="M115 401l-3.2 4-7.2 11 9.7-1" />
    <path fill="#bfa90f" d="M1015.3 416.3l39.7-9-44.8 23.5 30.3 49.2" />
    <path fill="#3167c0" d="M226 75.2l84-16.4-89 41 129.2 9.4" />
    <path fill="#6d4f17" d="M847.2 334l-29 68 13-41.4-22.2-36" />
    <path fill="#725821" d="M907 337.6l18.6 41.3 4.6-53 25.3 27" />
    <path fill="#fff1c1" d="M919.2 461.4l-51.5-2.7 53.2-15-2 11.6" />
    <path fill="#f1dfc0" d="M317.6 523.2L207 524.4l-26.6-.7 65.2 15.3" />
    <path fill="#59565e" d="M266.4 465l16.3-33.8-5 4.2-38 23.8" />
    <path fill="#272e09" d="M1055 457l-49.5-18.6-28 15L1055 434" />
    <path fill="#aa813c" d="M952 504l96.6 43.4-108-48.3 57.4 1" />
    <path fill="#4f432e" d="M467.6 475.4l-8.8-14.8 21.7 35.5-22-190" />
    <path fill="#1b205a" d="M575.8 219l-.5-17 62 67 36.5 47" />
    <path fill="#f7f3e6" d="M869.5 391.6l-29.2-2.4 38 12.8 22-3.8" />
    <path fill="#bca45b" d="M382 504l17.3 2.3-41.6.7-.8-10.8" />
    <path fill="#885315" d="M114 518.5l-80.3-2.8 32.8 3.2 89.5 8" />
    <path fill="#402f1f" d="M720.3 461.7l-25.7-23 47.5 56-23-57.5" />
    <path fill="#69810d" d="M398.6 615.2l45.4-45.5-69.4 28.2-84.4-9" />
    <path fill="#6f4214" d="M167.3 227.7L164.6 374l-5.8-135.8 2.2-31.5" />
    <path fill="#62572a" d="M706 362l7.7 7-18.3 23.3-18.3-3.5" />
    <path fill="#735d4a" d="M174 391l88 40-57.2 5.4 53.6-58" />
    <path fill="#95735e" d="M469 437l67.7 8.6 14 13L476 457" />
    <path fill="#0c1525" d="M317 222l-99-56.7 78.5 39L319 233" />
    <path fill="#0d0203" d="M524.3 149.8L429.8 193l15.5 2.5L613 241.8" />
    <path fill="#c6b1ad" d="M761.7 456.3l-3.4 53 5.8-6.8 1-26" />
    <path fill="#090800" d="M257.5 48l-8.2 3-72.3 58.7 64.5-46.5" />
    <path fill="#e9d8b9" d="M862 323.2l72.6 9.6-20.3 3.4-35-20" />
    <path fill="#b58118" d="M885 364.8l-84.2-5.2 38-38.4-53.3 51" />
    <path fill="#674514" d="M595.7 390.4l.3-3.4-8.6-39.8 31.6-14.8" />
    <path fill="#5b480f" d="M955.3 143.7l19.3 48.6-48.8 94.3 46.5-59.8" />
    <path fill="#17160b" d="M959 356l-17.4 17 49.2-72-24.8 19" />
    <path fill="#9d4417" d="M1007.4 406.2l47.6-46v-43l-56.5 45" />
    <path fill="#5b4a14" d="M804.5 378.4l59.5.5-1.8-62 25.2 53" />
    <path fill="#6f8713" d="M490 573.7l15-4.2-38 33.3L596.3 584" />
    <path fill="#864723" d="M187 516l-2.4-135.8-15.3 118.3-22 40.6" />
    <path fill="#dac39c" d="M719.6 449.6l-11.8 9.7-32.5 17.6 7-13" />
    <path fill="#938350" d="M98.3 452l10 60.2-29-14.2 31-1.3" />
    <path fill="#412d1f" d="M120.7 435.4l33-23-49 35.3 4-9.7" />
    <path fill="#b28525" d="M165.6 470.8l-8-6.6-19 27.3-1.6-20.3" />
    <path fill="#3b5637" d="M399 473l-53.4 11.7L488 484l-102.4-11" />
    <path fill="#1c243e" d="M36.7 226L28 210.4l2.6-21.8 7.8-15.7" />
    <path fill="#1d161d" d="M508 434.6l-38.3 4.7 3.8-6-7-3.2" />
    <path fill="#1c180c" d="M298.3 424l94.6-11.7-75 6 4 6.7" />
    <path fill="#050d02" d="M85.8 582.2L156 571l322.7-18.5-338 25.5" />
    <path fill="#b76424" d="M998.3 351.8l-25 11 32 47.7-25.5-65.4" />
    <path fill="#0f0000" d="M224.2 304.8l46.5-24.6-70.4 33.4 83.7 19" />
    <path fill="#9f783c" d="M924 439.6l-29.7 1 43.2 10.6 24-3.2" />
    <path fill="#4c5940" d="M159 56.7l9-18.5-2-25.6 8 77" />
    <path fill="#be8920" d="M803 354.8l29-48.6 8.8 14-31.6-18.4" />
    <path fill="#b09e75" d="M752.2 452l-7.8-84.3 1.5 105.5V464" />
    <path fill="#f0c04a" d="M403 401l-15-17.7 37-9.7-4.3 13.8" />
    <path fill="#78b6ef" d="M-31 243.6L12.2 314l145-25.8-45.8-16" />
    <path fill="#212212" d="M987.6 162.7L942 175l17.3-21.6 22.4-.2" />
    <path fill="#f5e6c3" d="M245.2 512l51.6.3L208 533l126.3 1.6" />
    <path fill="#0d1514" d="M731.6 499.3l2-12.3.8 30.4-34.5-4" />
    <path fill="#a8a092" d="M631.7 322.5l5.5 14.5 20 10.3 1.7 13" />
    <path fill="#0b1803" d="M454 575.4l-136.6-5.7-57.7-13.7 152.8-16.4" />
    <path fill="#fffcea" d="M456.5 351.3l-15.6 5.4 5 28 14-27.7" />
    <path fill="#714719" d="M1035 364l-147 22.5 64 2.7-37.6-4.3" />
    <path fill="#6c4e38" d="M413.5 349.7l-30.7 19 65.3-16.2 14-9" />
    <path d="M598.7 319l-6.8 13 9 10 32-21.4" />
    <path fill="#e9d9b0" d="M938 369.3l11 7-52 4.5 35-.6" />
    <path fill="#9fab38" d="M413.2 540.5l92.3-7-70.3 11.4-137.5-21" />
    <path fill="#20180d" d="M1008.7 253.6l46.3 20L940.4 259l4.3 11.8" />
    <path fill="#e5d7bd" d="M-31 547.7L109.5 527l29.3 8.3-1.8 9.4" />
    <path fill="#bd8a22" d="M815 462l-22.7 7.2-10.8 9 .4 16.3" />
    <path fill="#0d0c00" d="M528 358.3l18-3 1 94-19.7-23.7" />
    <path fill="#3463b8" d="M387 371l-104 22.3 23.3 1 65-18.5" />
    <path fill="#332a0a" d="M998 465.5L963.3 482l91.8-22.5V488" />
    <path fill="#0f0d08" d="M579 305.8V367l-10.4-76.5 23.3-16.8" />
    <path fill="#382815" d="M729.6 469l-137.8-31.5L633 450l75 16.2" />
    <path fill="#1c1806" d="M300.6 408.3l89-19-46.4 3.2L286 411" />
  </g>
</svg>