<svg version="1.1" viewBox="0 0 1024 682" width="1024" height="682" xmlns="http://www.w3.org/2000/svg">
  <path fill="#7aa385" d="M0 0h1024v682H0z" />
  <g fill-opacity=".5">
    <path fill="#fff" d="M677 181l378 170-909 333-77-253" />
    <path fill="#003600" d="M-5-31L999-1 342 157-1 508" />
    <path fill="#00000d" d="M807 713l58-274 190 42-22 217" />
    <path fill="#21750d" d="M501 402L262 698l269 15 84-220" />
    <path fill="#f4ffff" d="M1030 261l-121 21-740-115 789 293" />
    <path fill="#000041" d="M-31 359l38 76 248-222L-6 79" />
    <path fill="#fff" d="M1055 81L881 242l-109 32L930 80M456 451L215 713l-111-13 59-325" />
    <path fill="#5fcc0a" d="M505 16L178 131l469 122-6-188" />
    <path fill="#007800" d="M75 713l61-168-164-34 9 179" />
    <path fill="#002900" d="M998-31L860 120 699 223 888 34" />
    <path fill="#f1ffff" d="M639 583l-71 10 140 120-51-367" />
    <path fill="#6a71a2" d="M107 244l137 140 291-62-236-95" />
    <path fill="#fff" d="M201 145l-7 48 87-47-55-30" />
    <path fill="#171e4b" d="M1028 713L798 458 629 327l406 175" />
    <path fill="#068f08" d="M1055 196l-115-55-38 132 139-30" />
    <path fill="#e0f7f6" d="M791 82l-75 35-170-68 199 136" />
    <path fill="#3b9f00" d="M438 248l40 65-28-132-86 2" />
    <path fill="#fff" d="M332 376L18 425l83 23 131 265" />
    <path fill="#000a27" d="M852 643L677 474l194 239 184-80" />
    <path fill="#fff" d="M288 217l99 59 152-96 15 78" />
    <path fill="#9edbcb" d="M638 93l-69 1 27-108 69 12" />
    <path fill="#bed5e1" d="M867 608L709 419l12 102 137 125" />
    <path fill="#f7ffff" d="M690 327l259 120-132-241-58 5" />
    <path fill="#0b4e5d" d="M299 646l-57 59 434-9-126-103" />
    <path fill="#fff" d="M1055 127L958-17l91-14-93 189" />
    <path fill="#006300" d="M811-10l-8 135-26-56-96 44" />
    <path fill="#d9fff9" d="M165 28l76 22-72 26-13-42" />
    <path fill="#008300" d="M640 38l-251 84-302 2L396-31" />
    <path fill="#368761" d="M969 330l-110-18-24-128-45-4" />
    <path fill="#a3afa0" d="M624 298l-37 103 128 90 172-9" />
    <path fill="#037500" d="M669 7l-41 217-26-113 146-92" />
    <path fill="#8ccc25" d="M375 667l155-132 151 24-183-152" />
    <path fill="#0a8a00" d="M119 145L-31 74V-8l192 21" />
    <path fill="#92ff1a" d="M135 624l-3-107-41 89-8 107" />
    <path fill="#0e3a51" d="M307 181l-2 67-31 31-107-38" />
    <path fill="#f9ffe7" d="M546 619l19 94 15-77 53 74" />
    <path fill="#556aaf" d="M120 418l115-46-17-121-138 67" />
    <path fill="#fff" d="M522 423l82 3V252l-63-12" />
    <path fill="#1e8c20" d="M735 177l-65 29 66 27L899 42" />
    <path fill="#fff" d="M975 84L835 200l94 36-60 15" />
    <path fill="#001c25" d="M922 132l-58-27 99-90-91 41" />
    <path fill="#133f57" d="M777 686l23-80-49-70-14 111" />
    <path fill="#fff" d="M317 240l33-83 39 63 16 49" />
    <path fill="#004e2d" d="M30 532l-61 144 93-2-32-248" />
    <path fill="#000034" d="M-10 288l168 32 88 10-277-137" />
    <path fill="#bbe4de" d="M826 118l47-149 9 97-65-60" />
    <path fill="#e3f3fe" d="M748 653l-190-76 11-37 62 125" />
    <path fill="#f1ffff" d="M798-31L737-4l23 37 9-4" />
    <path fill="#419118" d="M522 488l66-3 80 115-32 4" />
    <path fill="#f0fdff" d="M924 454l74-74-3-106-73-15" />
    <path fill="#dbe9d6" d="M425 583l142-355-105-38 8 81" />
    <path fill="#149639" d="M1035 378l-80 62 100-131-70 12" />
    <path fill="#042d5b" d="M886 36l163 9-106 55 41-131" />
    <path fill="#e9f9f8" d="M775 78l-130 96 138-44-2-50" />
    <path fill="#78be37" d="M480 295l-9-73-98 55 35 29" />
    <path fill="#000020" d="M-31 77v167l278-33-105-61" />
    <path fill="#046f00" d="M734 515l-66-64 48 5-22 61" />
    <path fill="#feffff" d="M681 552l26-27-55-33-46 18" />
    <path fill="#7895bf" d="M210 713l106-109 148-153-86 166" />
    <path fill="#e9faff" d="M790 186l-3-25 54-23 2 39" />
    <path fill="#a4a9bb" d="M145 265l128 97 140-74-53-9" />
    <path fill="#99fd0b" d="M58 110L11 81l72-6 32 7" />
    <path fill="#003937" d="M703 594l10-47-33 94 7 25" />
    <path fill="#093" d="M126 486l-54 29-20 193 39-244" />
    <path fill="#7abc1d" d="M544 64l-230 90 150 29 207 3" />
    <path fill="#e9fff7" d="M248 107l-68 66 9-4 24 25" />
    <path fill="#004f11" d="M868 27l-45 112 63-38-51-66" />
    <path fill="#304d52" d="M862 578l-113-27 225 4-98-149" />
    <path fill="#057610" d="M1055 200l-63 75-92-96 26 86" />
    <path fill="#f5ffff" d="M393 518L218 702 86 713l165-331" />
    <path fill="#b0ebcf" d="M86 485l-24 68-30-13 53-115" />
    <path fill="#eaf6fc" d="M718 365l-90-181 143 84 271 194" />
    <path fill="#a2afad" d="M858 538l-16 13 78 49-43-55" />
    <path fill="#000c29" d="M860 471l103 72 92 77-37-149" />
    <path fill="#249f2c" d="M684 155L673-31l87 76-123 109" />
    <path fill="#c3e8e9" d="M720 601l-19 2 65 43-57-107" />
    <path fill="#daf8ff" d="M899 22l-70 79-34 12 34-37" />
    <path fill="#002964" d="M-7 330l3 77 119 10 14-87" />
    <path fill="#f4ffff" d="M1012 166l-61-37-57-64 112 50" />
    <path fill="#4b6285" d="M267 328l49 46 67-20 74-16" />
    <path fill="#071e3f" d="M419 713l129-132-6 41 23 91" />
    <path fill="#d6ece5" d="M736 41l-40 128 53 5-40-114" />
    <path fill="#e7f7fd" d="M77 564l134-191-221 24 315-10" />
    <path fill="#f4ffff" d="M780 501l47 103 28-16-134-79" />
    <path fill="#68a544" d="M605 356l51-68-68-189 48 172" />
    <path fill="#0e3a46" d="M227 207l1-53 31 90 140 41" />
    <path fill="#007d31" d="M45 472l51-44-127 73 103 3" />
    <path fill="#d7e9f8" d="M602 78l61-72-36 89-7 14" />
    <path fill="#11703e" d="M978 299l-58-19-3 54-22-67" />
    <path fill="#b6d6c8" d="M273 226l-36-66 37-1-40 36" />
    <path fill="#31922b" d="M758 127l-16 65 128 24-83-39" />
    <path fill="#fcffff" d="M992 51l-23-67 86-15-6 45" />
    <path fill="#e8fdff" d="M891 223l63-189-18 138-73-78" />
    <path fill="#0a8611" d="M1003 429l-22-37 60 31-37 53" />
    <path fill="#9ccd5f" d="M480 409l97 18-45 27-151 229" />
    <path fill="#78c658" d="M361 159L304 55l46 9-66 133" />
    <path fill="#edefff" d="M530 144l61-21-17 13-48-15" />
    <path fill="#127312" d="M503 115l172 11L534-31l107 131" />
    <path fill="#004309" d="M-18-31l349 60-7-53-34 76" />
    <path fill="#f7ffff" d="M617 7l9 14-39-2-1-16" />
    <path fill="#006c1f" d="M791 119l-22-93 169 100-104-63" />
    <path fill="#f8feff" d="M904 277l1 177 63-53-99-122" />
    <path fill="#092531" d="M928 550l-57 18 132 145-168-103" />
    <path fill="#81bd49" d="M380 367l16 7 9 41-48 25" />
    <path fill="#e8f2f4" d="M775 200l75 32-12 82-189 55" />
    <path fill="#fbfffc" d="M568 418l64 7-51 42-29-11" />
    <path fill="#8ec148" d="M601 401l14-84 35 138-38-45" />
    <path fill="#a9d1a9" d="M524 552l18-20-49 166 19-96" />
    <path fill="#006932" d="M792 122l89 28-44 44 37-112" />
    <path fill="#ecf9ec" d="M595 377l-165 52-46-66 23-19" />
    <path fill="#a0e0ca" d="M409 26l27 16-16-23-36-29" />
    <path fill="#004e1d" d="M344 123l46 34L311-9l134 82" />
    <path fill="#a9a9a3" d="M944 577L836 468l64 6-116-40" />
    <path fill="#75e621" d="M280 102l10-34-36-23-8 42" />
    <path fill="#002a16" d="M1018-31h-72L862 73 755 184" />
    <path fill="#000021" d="M1055 488l-27 225-131-149 98 54" />
    <path fill="#effdff" d="M1041 108l-81 45-13-26 72-76" />
    <path fill="#356861" d="M633 547l113-14h44l-54 28" />
    <path fill="#121832" d="M790 517l44 57 22 10-72-91" />
    <path fill="#fff" d="M877 33l-17 31 22-15 19-35" />
    <path fill="#7bcb50" d="M957 179l48 51-54 13-66-53" />
    <path fill="#163060" d="M286 295l-75-4 40 14 83-1" />
    <path fill="#559a0b" d="M600 472l-2-13-135 101 145-48" />
    <path fill="#b2dd61" d="M436 168l-151-49 55 51 103-43" />
    <path fill="#eefbf8" d="M647 104l119 49-84-21-7-58" />
    <path fill="#005d06" d="M645 43L282-12l299-9 18 84" />
    <path fill="#ecfcff" d="M213 459l-177 9 42 32 48-101" />
    <path fill="#b0d2e8" d="M979 48l-8 42-27-58-39 32" />
    <path fill="#c9e4ea" d="M748 549l-50 91 48-60 12 26" />
    <path fill="#004339" d="M690 594l60 74-14-46-56 2" />
    <path fill="#022750" d="M791 411l95 19 74 60-122-45" />
    <path fill="#03593a" d="M938 109l-36 23L842 4l17 98" />
    <path fill="#d3d5e2" d="M412 337l-129-53-9-21 70 32" />
    <path fill="#007b11" d="M1008 209l-72-6 117-10-23-107" />
    <path fill="#004d0d" d="M680-31l-47 132L745 3l13-34" />
    <path fill="#c6e7e9" d="M772 563l99 97-8-28-80-68" />
    <path fill="#137f2a" d="M710 68l54 38-35 3 50-54" />
    <path fill="#399f00" d="M383 198l13 25 33-9-21-48" />
    <path fill="#1c9102" d="M410 275l3 25 22-17-23-43" />
    <path fill="#e1f8fa" d="M962 316l14 90 35-167 43 76" />
    <path fill="#13653d" d="M842 279l171-50-133 45-24-49" />
    <path fill="#50c647" d="M91 452l-94 27-28-59 93 16" />
    <path fill="#000f34" d="M848 632l-80-59v23l99 89" />
    <path fill="#00520b" d="M330 186l-60-36-24 44 70-48" />
    <path fill="#e0f2ff" d="M761 659l6 21-75 33 14-23" />
    <path fill="#597768" d="M843 450l125 78-4-13-17-28" />
    <path fill="#0e6643" d="M954 306l5 13 5 5-26 8" />
    <path fill="#b5e6c8" d="M137 49l35-19 26 77-33-52" />
    <path fill="#003c07" d="M64 62L25 83-31-25l99 43" />
    <path fill="#73908e" d="M50 304l193 40-145-13-103-28" />
    <path fill="#e5f6f7" d="M597 638l-20-27 110 73-11-86" />
    <path fill="#d5ffda" d="M258-19l-36 31h13l10 1" />
    <path fill="#eef9fe" d="M391 503L90 536l-3-23 139-129" />
    <path fill="#ebfbff" d="M902 231l15-5-61-73 17 107" />
    <path fill="#000831" d="M281 284l-3-8L-6 80l-4 73" />
    <path fill="#9cb6db" d="M809 713l-19-102 54 67-68-49" />
    <path fill="#488250" d="M635 211l-39 31 8 9 54-8" />
    <path fill="#37698e" d="M927 63l-42 39 83-30 32 34" />
    <path fill="#003d1a" d="M657 713l32-35-80 14-7-58" />
    <path fill="#d4e9dc" d="M648 151l87 126-64-123-43 23" />
    <path fill="#025b1c" d="M816 204l-19 1-16-13 87-15" />
    <path fill="#0a3379" d="M256 362l-32-22 75 29-39 7" />
    <path fill="#09892e" d="M135 607l-51-88-78 95 98-9" />
    <path fill="#a0be8f" d="M486 456L381 621l45-20-56-74" />
    <path fill="#d6ffb3" d="M950 466l19-15 77 19-117-8" />
    <path fill="#26820a" d="M660 199l4-32-93 10 14-22" />
    <path fill="#e8f0f7" d="M462 182l221 207-196-105-32-60" />
    <path fill="#167525" d="M544 544l47 76-84-83-77 144" />
    <path fill="#00370a" d="M697-31L669 4l-52 16 5 20" />
    <path fill="#002434" d="M768 641l-43 36-14-20 15 4" />
    <path fill="#dee1eb" d="M258 327l80-8-122-13 8 12" />
    <path fill="#0c1c49" d="M817 464l33 36-28-13-42-50" />
    <path fill="#90e2aa" d="M167 149l-23-23h13l12-32" />
    <path fill="#00350d" d="M188 202l5-69-98 34 35-76" />
    <path fill="#809284" d="M135 269l46 29 20-43-128-21" />
    <path fill="#ebf5e4" d="M409 223l-114-5 147 24 8 69" />
    <path fill="#d3f8e9" d="M892-31h64L806 44l19 8" />
    <path fill="#64a950" d="M712 248l61-84-62 18-25-18" />
    <path fill="#dccce7" d="M827 487l-113-68 65 45 59 58" />
    <path fill="#00072a" d="M122 335l-153 60L28 76 16 318" />
    <path fill="#5dc01a" d="M459 70l25-73 86 97 12-60" />
    <path fill="#0f3a7c" d="M376 625l4-7-32 76-117-8" />
    <path fill="#edffff" d="M72 409l40 20-76 8 43-27" />
    <path fill="#006411" d="M244 37l-76 16 119-63-13 64" />
    <path fill="#e3f1f2" d="M592 606l-34-36 54-7-39-7" />
    <path fill="#2e325c" d="M772 469l33 9-13 1 76 79" />
    <path fill="ivory" d="M1014 407l39-3-35-16-17 6" />
    <path fill="#00540a" d="M278 98l-87-27 82 67 57-87" />
    <path fill="#b0e2c8" d="M174 8l22 65 39-31-81 4" />
    <path fill="#3a881a" d="M567 431l-37 43 2-30 7-22" />
    <path fill="#8bc245" d="M409 93l-50 116 38-2 23-110" />
    <path fill="#00152b" d="M778 706l1-63 14-57-33 70" />
    <path fill="#7cdc14" d="M79 109l36-85-77 76 54 9" />
    <path fill="#75ab83" d="M864 387l35-16-43 47 21 1" />
    <path fill="#22814b" d="M899 335l-40-49 17 3 7 7" />
    <path fill="#7ba653" d="M341 432h29l-63-20 33-21" />
    <path fill="#ebf4f9" d="M848 427l18-155 38-2-203 78" />
    <path fill="#006242" d="M933 171l57 3-35-24-5-21" />
    <path fill="#097845" d="M949 466l31-74 36-7-50 48" />
    <path fill="#048a0c" d="M489 157l-11-72-58 53 17-169" />
    <path fill="#c3e1ef" d="M885 85l63-53-46 53 11 21" />
    <path fill="#1f4b56" d="M732 527l14 134-8-118 101 53" />
    <path fill="#9fab87" d="M920 523l20 23-44-26-14-17" />
    <path fill="#565e61" d="M880 538l98 80 38-28-36-33" />
    <path fill="#2c7d2d" d="M591 555l98-7-65-16-107 42" />
    <path fill="#c9e2ef" d="M636 574l133 19-78-26-44 24" />
    <path fill="#005230" d="M-19 677l87-117-92-30 45 167" />
    <path fill="#12293b" d="M848 497l-7-10-3 53 132-94" />
    <path fill="#b0eb67" d="M312 112l-40 29 7 16 21-17" />
    <path fill="#056b2d" d="M755 126l-6 21 103-40-35 45" />
    <path fill="#509b41" d="M670 392l12 124 70-5-65-36" />
    <path fill="#faffff" d="M754 109l1-36 37 59-32-3" />
    <path fill="#f0f9f8" d="M668 416l-16 107 187 10-225-21" />
    <path fill="#f1faff" d="M216 163l-13 28 22 2-1-48" />
    <path fill="#00141b" d="M221 178l17-17 4 36 4 3" />
    <path fill="#9ee299" d="M1022 125l-15-6-28 84 29-14" />
    <path fill="#66b004" d="M511 224l-4-41-103-51 127-13" />
    <path fill="#77d184" d="M691 83l-24-42 90 33-51-17" />
    <path fill="#b7f136" d="M101 579l-4 78 33-12 2-65" />
    <path fill="#80b44c" d="M572 380l45 19 6-44-43 51" />
    <path fill="#004419" d="M593 652l1 58-41-121 18 57" />
    <path fill="#f4ffff" d="M724 535l-6 17-13-3 13-19" />
    <path fill="#307e61" d="M652 593l32-20-26-6 24 45" />
    <path fill="#eefaff" d="M413 277l-108-48 64-48-38-11" />
    <path fill="#fefff9" d="M366 410l-22-39-7 59 52-22" />
    <path fill="#f5ffed" d="M571 713l2-60-10-16-15 4" />
    <path fill="#01366b" d="M169 353l-26-4-105 37 141-17" />
    <path fill="#006811" d="M981 268l35-2-5-8-55-32" />
    <path fill="#bda9c1" d="M977 683l-25-25 7-3 48 58" />
    <path fill="#002c2d" d="M947 29l42 31-70-91-49 133" />
    <path fill="#93cbbf" d="M26 484l6 40-5 29-13-39" />
    <path fill="#fff" d="M740 495l-15 6-21-22 18-1" />
    <path fill="#b2d832" d="M484 472l-29 31 57 16 76-53" />
    <path fill="#c2d5c4" d="M664 348l-78 126 138-143-90-81" />
    <path fill="#f7fff6" d="M1014 444l-12 7-4-38-40 31" />
    <path fill="#006214" d="M-23 525l52-15-41 47 54-125" />
    <path fill="#0e6935" d="M588 576l38-11 15 37 31-10" />
    <path fill="#dbfdcc" d="M268 220l-20-18 43-26-28 24" />
    <path fill="#badcd4" d="M614 114L628 0l-20 36 42 23" />
    <path fill="#acc882" d="M562 348l-38-13 6 76-37-122" />
    <path fill="#dbf0ff" d="M70-31l35 46 14-46H2" />
    <path fill="#00780c" d="M849 67L609-23l132 71-1 14" />
    <path fill="#267846" d="M797 38l-95 88-17-8 39-16" />
    <path fill="#e5f1fd" d="M880 173l37 69-87-94-33 35" />
    <path fill="#c1b7c5" d="M827 522l7 31 39 33-109-120" />
    <path fill="#e4f97d" d="M-31 454l44-24-27 62 30-37" />
    <path fill="#c8ed6d" d="M463 96l-5 41-33 15-4 48" />
    <path fill="#b5b3be" d="M867 479l6 15-76-63-3-22" />
    <path fill="#28a236" d="M373 713l114-95-66-71 40 33" />
    <path fill="#252353" d="M745 450l-10-7 8 15 41 44" />
    <path fill="#26d02f" d="M109 648l-57-53 65 106-148-9" />
    <path fill="#699d6b" d="M473 250l-14-39 13 9 22-59" />
    <path fill="#75af3b" d="M470 534l35-115-78 42 79-10" />
    <path fill="#13325c" d="M834 713l-46-100-15-14 34 70" />
    <path fill="#9cc794" d="M757 248l-55-72 55 56 111 35" />
    <path fill="#ddeff5" d="M666 565l23-33-31 181 42-144" />
    <path fill="#e8f6ff" d="M986-5l32-14-57 35 1 16" />
    <path fill="#f1faff" d="M977 158l-73-62 130 6 21-109" />
    <path fill="#82bd1b" d="M549 224l-12-42 33-87 7 157" />
    <path fill="#81b7a8" d="M618 668l43-37-28-18 29 58" />
    <path fill="#0f6219" d="M420 219L364 94l34 89 2 35" />
    <path fill="#edf8f0" d="M665 504l25-3 5-3-123-90" />
    <path fill="#ebf5f6" d="M576 452l-49-286-31 161-6-159" />
    <path fill="#c2f7f1" d="M263-31l40 48 8-29-59-19" />
    <path fill="#127328" d="M693 207l-21 6-16-49-19 16" />
    <path fill="#116d3d" d="M909 330l12-14-6-62-12 34" />
    <path fill="#025d09" d="M569 598l-13 10v13l46 26" />
    <path fill="#cdd4e2" d="M306 351l5 25-75-45 63 17" />
    <path fill="#157135" d="M767 171l62 38 30 2 7 17" />
    <path fill="#e7ecf8" d="M698 450l-24-6 9-14 67-31" />
    <path fill="#d9f2fb" d="M692 631l2 53 8-3 19-48" />
    <path fill="#036125" d="M853 11l-87 11 66-53L710 97" />
    <path fill="#f0f9ff" d="M712 291l-10-87-149 114-37-93" />
    <path fill="#f4feff" d="M627 582l-25 16 70 5-81 28" />
    <path fill="#71b802" d="M607 203l46-62-20-19-37-1" />
    <path fill="#85d38d" d="M861 9l-68 14 116-49-10 29" />
    <path fill="#3b5478" d="M339 367l121-37-101 22-64-11" />
    <path fill="#2e7b3b" d="M745 479l-24 44-56-17 85 1" />
    <path fill="#000d29" d="M831 515l100 74-121-131 61 79" />
    <path fill="#286f11" d="M649 442l-17 12 7-30 11 7" />
    <path fill="#9ea4c2" d="M203 331l-88 21 118-9 14-9" />
    <path fill="#b0cc80" d="M527 456l-98-72 96 36-78-147" />
    <path fill="#8ac163" d="M346 435l22-19 103 31-49-28" />
    <path fill="#00500b" d="M833 593l73 102 39 9-20-36" />
    <path fill="#334671" d="M754 405l37 28-62-11 111 4" />
    <path fill="#ecf6fc" d="M637 212l244 205-221-210 81-103" />
    <path fill="#185a5a" d="M695 167l11 5 8 31-41-45" />
    <path fill="#64c283" d="M433 644l35 21 9-27-146 75" />
    <path fill="#f0faff" d="M781 210l-38 25 112 15-5-32" />
    <path fill="#006015" d="M109 66l103 30-97-54-30 38" />
    <path fill="#2d8718" d="M447 218l34 67-31-20-8-32" />
    <path fill="#2a6f6d" d="M324 671l40-51 99-85-105 66" />
    <path fill="#0c6519" d="M700 472l2 37 11-68-21 20" />
    <path fill="#006521" d="M866 120l-27-18 86 21-92-65" />
    <path fill="#bccfb4" d="M869 545l16 8-15 14-28-12" />
    <path fill="#b4ea95" d="M335 60l-14 34-9-15 34 4" />
    <path fill="#003815" d="M68-22l92 55 4 30 1-94" />
    <path fill="#10662c" d="M872 252l-20 6 7 19 44-14" />
    <path fill="#effaff" d="M941 159l-84 73 55-93-2-24" />
    <path fill="#74ad98" d="M388 64l44-25-19-36 9 54" />
    <path fill="#acf8bc" d="M772 7l-25-38-3 58 18 16" />
    <path fill="#89e03e" d="M280 153l-63-34 5-4h24" />
    <path fill="#edf6fe" d="M778 533l-55-7 50-25 52 74" />
    <path fill="#5ea982" d="M956 279l-42 3 34 11 51-31" />
    <path fill="#0b473f" d="M839 36l41-21-26 49-2-65" />
    <path fill="#f6fff1" d="M822 108l-15-14 39-43-6-5" />
    <path fill="#b8b3d0" d="M734 388l55 64 23 12-51 7" />
    <path fill="#55cf43" d="M103 573l-64-4 86 32-3-80" />
    <path fill="#f0fbff" d="M351 459l130-29-102-48 90 66" />
    <path fill="#00012f" d="M857 570l142 143-126-144-18-11" />
    <path fill="#7fc870" d="M300 200l-5 20 28-55-83 30" />
    <path fill="#d7f1e1" d="M717 51l71 59 4-7-81-47" />
    <path fill="#032165" d="M1054 16l1 20-56 21 11-19" />
    <path fill="#005109" d="M487 26l112 22-16-37 38-42" />
    <path fill="#3c866f" d="M593 566l10 42-4 14-9-36" />
    <path fill="#a2c48a" d="M681 312l-101 37 56-7 35 7" />
    <path fill="#0d314f" d="M165 164l-34 92-94-85 273 82" />
    <path fill="#125933" d="M505 536l7 82-45 28 67-122" />
    <path fill="#003214" d="M210 55v57l8-27 33-20" />
    <path fill="#ecf7f9" d="M886 329l33 131 86-119 21 34" />
    <path fill="#5a6c80" d="M445 341l-74-30 80 13 10 28" />
    <path fill="#daebff" d="M969-13l39 70-44-22 91-8" />
    <path fill="#dff0f2" d="M863 248l36 11-2-135-17-12" />
    <path fill="#0a6425" d="M170-31h83L177 78l12-28" />
    <path fill="#0e8459" d="M105 463l6 27-40 18 23-31" />
    <path fill="#4dc136" d="M1043 331l-46 41 58-21-60-8" />
    <path fill="#c2cced" d="M163 357l82 2-28 29h110" />
    <path fill="#006626" d="M430 615l51 98-114-53 73 7" />
    <path fill="#7ec582" d="M425 616l-120 16 99-26-23 63" />
    <path fill="#eef8ff" d="M104 695l149-317 61 38-46 252" />
    <path fill="#d9efe1" d="M198 154l31-31 37 48-22-11" />
    <path fill="#0f4c41" d="M734 644l15 37 5 32-13-117" />
    <path fill="#000021" d="M1055 545l-152-93 149 144-138-80" />
    <path fill="#0a6c1f" d="M633 111L779-31 638 84l-8-27" />
    <path fill="#76b150" d="M667 266l4 20-44 7 1 23" />
    <path fill="#8e8ca3" d="M949 623l21 42-69-94-2 10" />
    <path fill="#003e26" d="M47 504l-26 10 13-28-22-84" />
    <path fill="#13702c" d="M316 188l25 19-25-65-30 4" />
    <path fill="#0e2f4e" d="M849 455l41-39v34l-80-24" />
    <path fill="#005023" d="M285 198l26 18-53 1 9-5" />
    <path fill="#083761" d="M200 283l-28 46-107-57 173 29" />
    <path fill="#077b14" d="M920 210l41 28 16-46-59 59" />
    <path fill="green" d="M304 59l94-23-7-42-172 80" />
    <path fill="#cce888" d="M544 64l59-7-37 37 25-48" />
    <path fill="#1d7404" d="M588 167l13-17 62-9 9 7" />
    <path fill="#617e80" d="M284 217l34 70-55-32 133 21" />
    <path fill="#b5bcc6" d="M527 316l7-10-83-11-140 27" />
    <path fill="#006b00" d="M443 191l-4 1 27-70-21 27" />
    <path fill="#e5f4fb" d="M876 25l20-2-45 55 5-6" />
    <path fill="#606572" d="M665 384l32 2-9 8-48-9" />
    <path fill="#99f317" d="M86-16L61-8l24 36-16 12" />
    <path fill="#b3de88" d="M961 172l-6 31-17 17-3-16" />
    <path fill="#cfdee0" d="M514 595l4-16 11-5-9 33" />
    <path fill="#a1c0b3" d="M757 179l9-46-35 31 14 13" />
    <path fill="#39d92d" d="M143 80l-33 28 69-33-13-5" />
    <path fill="#88ca23" d="M427 310l-24-29 2 19 64-33" />
    <path fill="#c7cfde" d="M313 344l36 6 39-30 26 14" />
    <path fill="#f1fdff" d="M672 530l-24-162-22-11 39 46" />
    <path fill="#3e5883" d="M291 337l76-1-62-11-145 1" />
    <path fill="#00632a" d="M1017 328l-24 5 8-18 54 12" />
    <path fill="#8f9d9f" d="M159 233l-5 50 24 6-6-54" />
    <path fill="#268d02" d="M513 174l-26 3-8 9 56-78" />
    <path fill="#c6eb95" d="M1002 222l2 4-40 14 34-25" />
    <path fill="#25735b" d="M732 633l-12 19-3-33-10-56" />
    <path fill="#002237" d="M522 605l-22 83 39 4 2-122" />
    <path fill="#e7f3fb" d="M996 297l22 9-53 38-9-83" />
    <path fill="#2c9b01" d="M630 136l-69-25-3 75-9-95" />
    <path fill="#2e6d65" d="M688 645l24-45-37 12 35-42" />
    <path fill="#e0e6fc" d="M521 141l32-1-7-34 2 11" />
    <path fill="#366d74" d="M1055 538l-84-47 37-8-37-14" />
    <path fill="#9da4a3" d="M853 547l58 61 4-20-27-12" />
    <path fill="#b1d4ae" d="M681 129l-64 17 67-36 34-13" />
    <path fill="#eef7fc" d="M715 236l84 170 50-117 40-5" />
    <path fill="#f9ffff" d="M832 24l-10 1 4 23 14-20" />
    <path fill="#007b36" d="M53 437l21 8-6 10 1 22" />
    <path fill="#819bbd" d="M152 52l23 5-48 1 18-19" />
    <path fill="#006933" d="M5 562l90 125-126-81 167-4" />
    <path fill="#f7ffff" d="M650 586l-2-20-23-11 43 3" />
    <path fill="#b4db2c" d="M433 179l77-54-11-18-25 85" />
    <path fill="#e9f5f4" d="M632 660l-33-56 18-31 27 70" />
    <path fill="#d6eae5" d="M817 593l-39-32-14-10 17 31" />
    <path fill="#d0d0dc" d="M762 422l-84-66 59 42-63-98" />
    <path fill="#b1d07b" d="M598 136l-30 51 22 11-15-80" />
    <path fill="#1ba215" d="M193 177l-29-37-41-4-96-44" />
    <path fill="#014d25" d="M253 104l-74 51-8-23 70-15" />
    <path fill="#0b7b18" d="M385 117l-56 25-17-59 50 67" />
    <path fill="#92abd1" d="M791 682l38-25 12 10-63 13" />
    <path fill="#c7f0da" d="M590 656l21 57-8-60 5 7" />
    <path fill="#e8f3f9" d="M936 366l13-111-34 35 80 99" />
    <path fill="#e0eff4" d="M730 618l-16-53 31 15-10 39" />
    <path fill="#163d5a" d="M973 79l20-34-16 44-98-29" />
    <path fill="#156d38" d="M579 99l25-27 21-61 22-1" />
    <path fill="#b4f0c6" d="M156 141l-2-18 19 17v6" />
    <path fill="#091a40" d="M781 626l-12 23 27 37-32-77" />
    <path fill="#51d936" d="M31 626l-20 32 71 30-56 25" />
    <path fill="#4a6798" d="M313 374l-56-13-78 18 68-4" />
    <path fill="#356a86" d="M958 106l15-69-2-13-24 45" />
    <path fill="#9feb62" d="M128 523l23 62-34-43-51 20" />
    <path fill="#cbd6ec" d="M798 617l10 32-32-9 43 30" />
    <path fill="#01761f" d="M406 129l56-21-128-38 120-13" />
    <path fill="#b8e8a1" d="M741 52l3 5-34 20 7-28" />
    <path fill="#154948" d="M844 573l-59-26 7 26 32-30" />
    <path fill="#d0e2ed" d="M941 36l25 9-69 26 35-24" />
    <path fill="#c0e0b5" d="M533 526l4 7 2 2-19 37" />
    <path fill="#e3f8ef" d="M671 111l-9-36h-2l-11 35" />
    <path fill="#8fb661" d="M335 424l-1-22-19 29 52 5" />
    <path fill="#e7f1f8" d="M316 218l53-52-15 58-66-29" />
    <path fill="#9bdb44" d="M539 65l-105 75-30 27 40-50" />
    <path fill="#b8e0de" d="M863 612l-72-52 23-1 45 36" />
    <path fill="#e1edf2" d="M625 60l19 19 2-31-51 42" />
    <path fill="#bfe5e5" d="M661 18L554-31 657 1l-33 60" />
    <path fill="#545266" d="M793 481l-3 43-27-49-8 30" />
    <path fill="#e1eee1" d="M667 484l-106-48 60 14 86 24" />
    <path fill="#f3fbf6" d="M170 74l11-33-7-9-11-4" />
    <path fill="#94beb4" d="M760 624l-7-13 33-6-62 50" />
    <path fill="#c7bcc8" d="M283 253l1 22-16-16 14-11" />
    <path fill="#000221" d="M137 145l73 60L8 160l-39-61" />
    <path fill="#003f25" d="M357 55l34-27 32-2-81 75" />
    <path fill="#647f8a" d="M268 219l53 18-51-7-79-49" />
    <path fill="#7dd970" d="M299-20l50 35 11-7-34-14" />
    <path fill="#ecf7f4" d="M595 233l-19-7-69 206 117-112" />
    <path fill="#d1e6e5" d="M738 529l-27-41 73 65 39-2" />
    <path fill="#e9f7fa" d="M919 185l32-60-93 12-4-14" />
    <path fill="#8cc57b" d="M552 613l-4-46v89l13-21" />
    <path fill="#002f2b" d="M710 717l-101-48 116 44-6-65" />
    <path fill="#020e31" d="M1015 711L911 596l12 52 132 1" />
    <path fill="#001c36" d="M926 479l15-28-47 2 71 118" />
    <path fill="#869177" d="M853 505l45 17 17 38 23-3" />
    <path fill="#001a23" d="M243 172l-15 46 3-35-7-28" />
    <path fill="#00610f" d="M745 9l-55 89 46-129-82 41" />
    <path fill="#0a4a2f" d="M700 491l-1-34 51 137-17-65" />
    <path fill="#1c365e" d="M722 368l65 31 6 69-11-66" />
    <path fill="#001b32" d="M842 667l-92 46 121-34-142-157" />
    <path fill="#71c468" d="M201 90l-22 45 6-36 15-10" />
    <path fill="#edf7fc" d="M125 578l156 38 93-51-99-188" />
    <path fill="#e9f5f9" d="M896 291l31 73 79 8-109 79" />
    <path fill="#003c12" d="M171 22l166-53H138l82 78" />
    <path fill="#ddfadb" d="M75 507l-35-1-1 15 47-12" />
    <path fill="#082547" d="M828 625l5-11-30 9 17 50" />
    <path fill="#869db2" d="M409 503l-24 22-65 129 99-121" />
    <path fill="#144c69" d="M103 425l6-3-17-66-42-5" />
    <path fill="#5ac37c" d="M221 64l18-15-48-80 17 30" />
    <path fill="#f9fcff" d="M192 49l21-1-19 25V46" />
    <path fill="#001143" d="M48 422l-58-23 106-2-127 36" />
    <path fill="#4c8e3c" d="M622 478l-22 5-87-26 17-3" />
    <path fill="#203c67" d="M309 295l29 16-9 3-37-20" />
    <path fill="#18732c" d="M613 514l6 55 15 30 11 5" />
    <path fill="#b5e24e" d="M417 183l1 41 54-7-70-22" />
    <path fill="#2dad04" d="M444 93l49 36-61-145 31 9" />
    <path fill="#c8dbed" d="M789 673l43 40-54-69 13-3" />
    <path fill="#9cc238" d="M591 252l8-100 22 18-2 65" />
    <path fill="#a1c8a7" d="M557 548l53 20-32 9-16-49" />
    <path fill="#457186" d="M334 652l-92 61 36-45 53-61" />
    <path fill="#00421a" d="M125 94l41-55-13 31-48-31" />
    <path fill="#327148" d="M638 240v-33l-28-28 29 79" />
    <path fill="#76be53" d="M463 501l-70 111 120-27-102-85" />
    <path fill="#63a50c" d="M517 497l49 90-9-50 19-70" />
    <path fill="#378145" d="M535 49l106 69-74-31-21-6" />
    <path fill="#3a516f" d="M298 260l91 43-18-1-78-69" />
    <path fill="#003215" d="M676 30l6-61-51 149h10" />
    <path fill="#097e19" d="M987 197l-66-3 80 20 54 21" />
    <path fill="#6cb93e" d="M785 170l-87 34 15 31 57-30" />
    <path fill="#3f785e" d="M380 383l-6-20 23 21-1 6" />
    <path fill="#bedbb3" d="M593 74l-5-30-24 54 48-36" />
    <path fill="#bcdbe8" d="M875 28l-47-46 72 25-34-38" />
    <path fill="#000127" d="M107 293l7-42L2 234l-29 11" />
    <path fill="#afaec1" d="M484 455l-16 44-37-20 23-13" />
    <path fill="#000527" d="M898 487l-41-20 36 37 99 52" />
    <path fill="#ecf9fa" d="M407 428l27 9 4 42-89 66" />
    <path fill="#cad2dc" d="M320 329l58 1-79-24-3-2" />
    <path fill="#002404" d="M139 152l13-36-61 3 11-26" />
    <path fill="#14703f" d="M875 157l-35-34 19 38 12 5" />
    <path fill="#ecffff" d="M738 643l-23 8 13 11 8-10" />
    <path fill="#003548" d="M280 713l144-69-85 59 39-73" />
    <path fill="#ddeef5" d="M952 84l-49-12 85 75-51-81" />
    <path fill="#f0fed0" d="M31 518l-33 35 9-10 16-24" />
    <path fill="#f8fdff" d="M685 617l-35-20-10 7 28 65" />
    <path fill="#80a5b6" d="M314 214l-7-46-7 15 42 12" />
    <path fill="#005613" d="M191 47l42-17-2 43 87-101" />
    <path fill="#e8e9fb" d="M706 377l-10 37-1 36 12 5" />
    <path fill="#edf4fd" d="M708 119l49-11-41 65 27 5" />
    <path fill="#7ce53d" d="M57 650l10-5-13 55-1-23" />
    <path fill="#083052" d="M934 72l-8-18-26 66 11-37" />
    <path fill="#bfc5cb" d="M859 466l-34-15-82-135 82 157" />
    <path fill="#003928" d="M852 72l58-47-34 89h36" />
    <path fill="#146631" d="M670 585l-11-9 11-18v-16" />
    <path fill="#035a2e" d="M1026 238l-5-9-108 27 16 7" />
    <path fill="#4b9b66" d="M939 288l-52-54 32 10-10 40" />
    <path fill="#b5f764" d="M1010 474l45-69-39 17 32 52" />
    <path fill="#b1e74c" d="M415 98h-17l29 51 12 80" />
    <path fill="#b1d587" d="M419 555l-46 1 87-41 25 6" />
    <path fill="#b6dad3" d="M615 563l88 43 12-36-19 39" />
    <path fill="#d0cce0" d="M759 455l39 45-33-26-91-136" />
    <path fill="#b4cac1" d="M725 376l54-28-121 1 68-14" />
    <path fill="#154a45" d="M708 620l-23 27-5 8 16-52" />
    <path fill="#b1d08c" d="M696 209l43 36-6-50-32 45" />
    <path fill="#c0c1c2" d="M812 497l42 19-13-16-77-53" />
    <path fill="#dff2ec" d="M721 77l1-1-9 14-10-1" />
    <path fill="#a8cccc" d="M78 389l-29 9-9-4-5-5" />
    <path fill="#e5f6d9" d="M43 544l24-21 30-95-38 119" />
    <path fill="#003821" d="M621 644l-36-10 66 61-48-18" />
    <path fill="#0d9509" d="M81 84l-15 3-54-30 22-16" />
    <path fill="#e4fcf7" d="M765 636v5l-14-14-6 15" />
    <path fill="#6f8169" d="M964 512l-28-26-19-8 52 53" />
    <path fill="#004c12" d="M264 124L394-31 260 147l7-49" />
    <path fill="#005232" d="M-10 578l79 48-100 69 81-30" />
    <path fill="#006c37" d="M995 163l60-8-34-28 34 67" />
    <path fill="#e9f5f4" d="M943 450l57-123-129 103-5-37" />
    <path fill="#64cb27" d="M264 80l-9 31 43-49 3-24" />
    <path fill="#4c6a57" d="M880 618l57 46h-23l-63-72" />
    <path fill="#f1fbff" d="M976 464l11 1-6-12-27 4" />
    <path fill="#8f8ea6" d="M733 366l-41 48 146 38-113-39" />
    <path fill="#14703b" d="M714 571l2 8-25-15 16-11" />
    <path fill="#00611b" d="M152 106l61 29-57-41-69-19" />
    <path fill="#cbf1cd" d="M1055 349l-41-20-15 9 56-4" />
    <path fill="#97e100" d="M556 36l-16 8 16 18 8-5" />
    <path fill="#4a7f9a" d="M59 409l46-1-30 8-76 1" />
    <path fill="#d0edea" d="M767 712l-18-60 24 28-129 10" />
    <path fill="#0c6a38" d="M981 405l51 3-33 26 9-62" />
    <path fill="#36466d" d="M126 173l142 101-32-79 6 43" />
    <path fill="#a2b057" d="M406 64l21-21 3 9-40 12" />
    <path fill="#dcf5f2" d="M803 584l61 52-27-9-4-32" />
    <path fill="#87bd13" d="M396 289l-10-23-11 23-25-2" />
    <path fill="#064c20" d="M166-31l-62 77-96 2 64-11" />
    <path fill="#f1feff" d="M770 136l2-68 3 44 21 11" />
    <path fill="#0c452c" d="M255 200l-7-11 10-17 18-29" />
    <path fill="#a7ca8f" d="M413 224l61 27-48-3 40-40" />
    <path fill="#d3e3ee" d="M245 191l22 20-34-11 16-26" />
    <path fill="#016028" d="M867 114l-46 22-30-64 48 71" />
    <path fill="#004524" d="M620 9l15-25 14 14-61-6" />
    <path fill="#aacf93" d="M414 411l-62 80 40-27-19-6" />
    <path fill="#005530" d="M404 629l52 9-7-14-36 34" />
    <path fill="#daecf4" d="M955 42l-61 42 9-16 38-27" />
    <path fill="#060f2e" d="M913 574l3 74 12-87 60 1" />
    <path fill="#c0e17a" d="M335 366l84 55-32 18v-10" />
    <path fill="#8a7578" d="M995 569l14 14-7 19-16-13" />
    <path fill="#b2d085" d="M666 392l-71-29 35-80-15 106" />
    <path fill="#062742" d="M904-26l80 75 11-18-9 31" />
    <path fill="#045f1c" d="M764 28l55 11 33-70-69 105" />
    <path fill="#e8f5f7" d="M854 433l-51-226-44 14 21-30" />
    <path fill="#edf8f7" d="M622 415l-9 76 17-28-68-12" />
    <path fill="#b7d6ea" d="M972 78l-9 5 37-114-16 25" />
    <path fill="#edf8f8" d="M23 427l154-26-87 137 214-88" />
    <path fill="#8ac593" d="M395 657l22-71-41 105 9 22" />
    <path fill="#c6d8d1" d="M639 213l-25-1 54 17-43-43" />
    <path fill="#0d9f12" d="M748 67l19 17-14-72h-4" />
    <path fill="#066f2b" d="M26 503l77-11-40 16-26-28" />
    <path fill="#7bd317" d="M476 48l38-23-80 127 65-77" />
    <path fill="#06172f" d="M805 532l-5-4 73 78-38-52" />
    <path fill="#329d20" d="M995 450l60-14-78 31 37 6" />
    <path fill="#b3d847" d="M510 183l52 12-15 38-21-89" />
    <path fill="#000a16" d="M706 2l-28-33 62 57 9-57" />
    <path fill="#688c6c" d="M666 403l14 62-2-61 19-15" />
    <path fill="#deeff0" d="M233 39l-33 18 7-14 19 15" />
    <path fill="#216c15" d="M603 167l-12 18-17-11 20-15" />
    <path fill="#63df37" d="M56 602l-19 11 28 3 68 20" />
    <path fill="#168400" d="M465 202l-11-19-56 6 2-18" />
    <path fill="#bddaab" d="M600 483l64-19-31 31-47-10" />
    <path fill="#184150" d="M811 664l-59-132 43 99 4 30" />
    <path fill="#00472b" d="M37 572l67-6-74-5 6-91" />
    <path fill="#cfe2ed" d="M685 167l7 49-29-62-26 13" />
    <path fill="#9cd28a" d="M944 193l75-15v8l-42-8" />
    <path fill="#b7b9c6" d="M234 278l116 19-127-11-22-40" />
    <path fill="#66ae10" d="M486 177l121-17-54-33-8 57" />
    <path fill="#beec66" d="M291 110l-11 14 30 5-21 16" />
    <path fill="#3ba85c" d="M97 533l-13-13-26-1-28 16" />
    <path fill="#e3f6f1" d="M584 20l22-51-5 33 27 11" />
    <path fill="#09642b" d="M602 19l131 23-99-21-27 6" />
    <path fill="#107738" d="M984 174l14-27-14 5-8 50" />
    <path fill="#92dd68" d="M817 23l-37-54 9 26 35 13" />
    <path fill="#519b36" d="M692 459l-28-3 15-12 74 47" />
    <path fill="#001226" d="M924 536l-25-6 16 49-36-13" />
    <path fill="#3e4c5e" d="M824 484l-5 5-13-30 55 14" />
    <path fill="#a3d5b0" d="M436 28l-12-8-10 22 16-9" />
    <path fill="#135147" d="M781 655l29 12-41-25-21-88" />
    <path fill="#0e751f" d="M180 62l1-16 37 85-7-39" />
    <path fill="#b7c0ae" d="M384 290l-36-22-29-14 44 31" />
    <path fill="#f6ffff" d="M839 93l2-9-3-19-32 40" />
    <path fill="#8cb7b0" d="M717 151l-3 43-9 3 11-79" />
    <path fill="#c9d4e7" d="M110 380l72 10 88-2-134-12" />
    <path fill="#e7f4f7" d="M628 517l74 1-21 33-72-81" />
    <path fill="#84cb95" d="M713 41l-29 52 9-42 6-3" />
    <path fill="#a8b2b9" d="M242 306l19 21-152-68 85 30" />
    <path fill="#89c3b2" d="M470 671l-11-18 7-3 13-11" />
    <path fill="#4d918f" d="M646 646l16 24-30-12-6 4" />
    <path fill="#cce2e2" d="M747 509l-37-29-1-21 76 84" />
    <path fill="#7f8398" d="M725 387l50 59-16 2-17-24" />
    <path fill="#afdcc7" d="M743 555l28 66-2-23-18-9" />
    <path fill="#003520" d="M482-23l79-5 35 60-12 7" />
    <path fill="#217a58" d="M907 306l26 8-6 11 7-1" />
    <path fill="#013d36" d="M761 627l-18-54 17 75-4 3" />
    <path fill="#bebebf" d="M827 524l-17 10 47 33-114-122" />
    <path fill="#73c93a" d="M975 237l-64-33 12-26 23 65" />
    <path fill="#f4fbff" d="M485 427l-11 10-64-28 8-28" />
    <path fill="#000020" d="M910 610l82 97-119-61 87 60" />
  </g>
</svg>