<svg xmlns="http://www.w3.org/2000/svg" width="1024" height="682"><path fill="#7aa385" d="M0 0h1024v682H0z"/><g fill-opacity=".502"><path fill="#fff" d="M117.574 698.802L1055 348.428 694.66 178.375 94.904 419.88"/><path fill="#030" d="M1040.91-8.406L-.634-31l-24.952 567.602 368.26-393.352"/><path fill="#00000f" d="M808.398 713h225.535L1055 483l-196.034-48.703"/><path fill="#1f740d" d="M263.964 688.948l236.707-279.06 118.56 73.377L527.92 713"/><path fill="#f2ffff" d="M1015.378 476.162L956.705 440l77.188-161.66-819.286-91.333"/><path fill="#51c10c" d="M643.974 274.118L145.82 47.386l513.22-20.018L654.655-31"/><path fill="#fff" d="M1055 97.836L705.257 365.74 919.91 93.894l121.028-26.265M30.916 425.2L213.704 713l327.05-370.77-475.03 73.972"/><path fill="#007d00" d="M125.702 636.857l6.23-100.2-136.78-8.17L2.146 713"/><path fill="#fff" d="M271.892 145.7l-63.033 57.54-20.68-36.983 37.67-50.4"/><path fill="#00004f" d="M-31 453.95L306.355 239.7 106.167 135.05-31 78.49"/><path fill="#020" d="M849.876 128.416L1006.17-31h-43.23L696.11 221.17"/><path fill="#f6ffff" d="M734.114 713L577.47 620.15l131.43-88.068-175.367-183.804"/><path fill="#0e851e" d="M1055 272.228l-236.432-24.105 91.383 89.05 35.373-211.69"/><path fill="#6e79ae" d="M102.843 392.78l322.578-34.278 56.13-64.643-353.858-57.216"/><path fill="#e1f1ff" d="M637.677 50.988L529.26 70.38l260.094 50.724-83.428 64.488"/><path fill="#102158" d="M680.153 346.982L935.13 462.366l115.44 45.284-268.398-72.14"/><path fill="#047900" d="M389.63-31L190.446 76.135 459.673 195.44l-62.957 35.257"/><path fill="#c2dce6" d="M865.37 659.204L713.172 497.29l-12.946-74.184L853.94 589.938"/><path fill="#fff" d="M351.11 157.46l52.975 80.324-.238 34.51-89.83-33.75"/><path fill="#001c3c" d="M781.03 615.717l-78.17 66.3 134.3-50.78-156.98-159.344"/><path fill="#fff" d="M536.06 184.355l72.8 204.932-42.6-2.654L458.938 203.95"/><path fill="#82c321" d="M458.872 508.625l-65.207 103.85 263.507-65.45L504.705 403.2"/><path fill="#75c31a" d="M292.19 129.272l295.814-71.406L452.36 208.694l36.274 89.39"/><path fill="#bdf1f0" d="M170.477 81.224l69.035-32.73-75.254-26.06-7.748 12.053"/><path fill="#fcffff" d="M241.084 682.772l-139.88 6.107 89.43-317.403L436.05 472.525"/><path fill="#00860f" d="M684.53 107.32L832.7 61.086 792.88 38.15 655.09-16.66"/><path fill="#f7ffff" d="M760.236 202.705l76.404 11.348 45.52 187.5-167.996-33.55"/><path fill="#0a4c5e" d="M308.825 647.42L181.302 713l505.944-8.334-135.65-108.023"/><path fill="#000018" d="M-31 69.6v4.724l8.163 282.387 204.14-181.682"/><path fill="#2e9917" d="M712.815 246.192l-26.71-72.482 151.883 14.92-83.376 22.164"/><path fill="#fff" d="M996.808 53.875l-36.48-77.015L1055 10.795l-39.943 22.56"/><path fill="#078d00" d="M19.87-31L183.057 81.28 147.38 156.3-31 71.317"/><path fill="#000533" d="M887.44 468.736l117.07 235.146 50.49-196.79-88.702-33.895"/><path fill="#a2d9e5" d="M590.853 21.36l56.476 48.465L668.716-31 586.214 5.815"/><path fill="#f7ffff" d="M876.063 119.62l69.72-.993-54.64 142.08-24.487-9.412"/><path fill="#f6ffff" d="M902.084 449.585l21.544 1.776 84.78-79.315-126.572-90.17"/><path fill="#99a39d" d="M617.897 430.546l.51-211.484 30.217 63.952 274.157 313.68"/><path fill="#39aa54" d="M-31 532.68l151.235-36.842-17.977-45.574-132.995-38.025"/><path fill="#ebfff3" d="M691.02 627.385l-145.333 13.47 16.653 46.096 49.804-107.075"/><path fill="#8fb183" d="M327.835 437.69l-1.438-165.83 66.21 105.2 38.662 55.83"/><path fill="#bdfdc4" d="M722.204 77.942L762.8-31l16.188 56.112-94.777 38.836"/><path fill="#006d26" d="M70.72 547.615L-31 537.165l20.062 153.26 111.988-7.036"/><path fill="#017e09" d="M323.26 14.5L519.62-31l107.075 74.38-270.23 89.157"/><path fill="#aaff2a" d="M134.513 633.405l2.148-105.755L77.4 660.365 77.758 713"/><path fill="#a3a8b6" d="M340.598 285.94L63.29 230.92l163.635 88.454 170.64 17.202"/><path fill="#001319" d="M873.337 113.858l95.33-139.506-104.284 90.43 61.232 59.183"/><path fill="#f3ffff" d="M780.704 77.904l-5.078-2.6-122.964 99.087 130.223-45.005"/><path fill="#54a156" d="M222.326 174.824l9.585 27.75 70.422 59.653 42.88-202.3"/><path fill="#fff" d="M1011.316 159.865l-68.135-23.61-81.797 38.11 173.585-126.212"/><path fill="#004900" d="M607.073 134.642l74.032-123.74-38.527 116.577L547.67 96.99"/><path fill="#3f9020" d="M665.868 604.762l-46.58-7.34-72.523-85.842 33.405-43.946"/><path fill="#dbffed" d="M849.365 87.906l-37.29 20.217L859.653-31l-47.848 73.19"/><path fill="#168822" d="M950.213 136.447l4.008 1.367-43.497 206.47 4.095-146.102"/><path fill="#031535" d="M1055 688.806l-302.032-284.43 156.7 185.15L801.38 713"/><path fill="#eaf8ff" d="M624.233 557.3l-40.052 16.186 13.463 47.696-39.89-59.503"/><path fill="#ecfcff" d="M925.43 257.32l-46.984-92.333-77.646 23.375 25.3-48.217"/><path fill="#a5d073" d="M385.786 680.903L549.764 429.22l-55.53-23.185-89.653 99.88"/><path fill="#159739" d="M1039.46 360.728l-89.083 91.16 97.217-144.987-71.055 19.21"/><path fill="#eafdf9" d="M111.53 442.523l-66.714 33.16 36.265 30.46-48.336 62.07"/><path fill="#005d0b" d="M815.718 138.294L734.242-2.09l7.62 105.57L797.43-31"/><path fill="#efffff" d="M792.452-31H893.6L855.46 70.53l34.885-36.35"/><path fill="#ecfbff" d="M891.356 445.788l120.676-2.222-42.05-35.3L1055 189.08"/><path fill="#0e7800" d="M717.172 455.877l-32.228 58.682 45.46 4.154L669 450.094"/><path fill="#a4ff0b" d="M46.808 108.866l36.404-6.11 25.08-62.936-63.166 49.928"/><path fill="#000d3e" d="M-31 279.56l145.388-29.094 18.805 27.543 121.177 59.547"/><path fill="#74bf1f" d="M478.24 284.822l.4-30.137-119.053 25.722 62.057 23.725"/><path fill="#e4f7f9" d="M656.872 713l13.045-143.193-32.296-250.713 60.07 260.173"/><path fill="#008805" d="M1055 116.61l-83.89 104.022 27.05-5.85 36.807 58.823"/><path fill="#0a1837" d="M842.863 565.69l149.48 107.578L822.026 566.99l-49.36-90.736"/><path fill="#b0c7ea" d="M2.118 400.243l294.75-21.576-193.37 4.775-65.758 6.752"/><path fill="#eef7ff" d="M774.092 499.823l37.092 55.733-102.166-34.108 52.15-22.14"/><path fill="#6e90b7" d="M396.188 614.21L206.688 713l149.898-145.67 89.746-98.578"/><path fill="#fbffff" d="M621.045 242.482L505.8 382.88l93.157 72.66-49.237 11.383"/><path fill="#002157" d="M982.197 67.87L887.394-31l126.883 97.042-51.402 23.04"/><path fill="#244267" d="M242.805 280.905l-57.638-50.095 102.9-35.096 48.224 76.427"/><path fill="#196e55" d="M971.627 311.28l-27.407 20.41-35.703-38.234-5.914 34.586"/><path fill="#00570f" d="M109.356-29.375l-1.516 67.01 61.624-8.084L444.87 76.564"/><path fill="#f3faff" d="M643.522 190.015l335.806 194.457L689.4 303.164l-58.758-109.18"/><path fill="#7fbd24" d="M600.074 383.875l45.57-90.255-27.683 5.902 3.246 128.366"/><path fill="#e2f2ff" d="M670.634 676.18l-88.7-102.2 126.418 87.04 42.01-108.204"/><path fill="#1d4c5c" d="M693.654 614.225L817.694 713l-87.93-127.97 171.437 83.202"/><path fill="#005e19" d="M816.77-31l36.704 102.95-84.84 100.63 119.68-77.146"/><path fill="#187739" d="M849.188 224.39l14.816 60.813-.823-74.616-116.68-42.844"/><path fill="#dff2ff" d="M956.528 45.19l-68.156 41.193 59.02-59.124-18.905 152.88"/><path fill="#4b5e8e" d="M261.992 379.39l51.792-7.34 112.356-30.187-135.413-18.322"/><path fill="#255c51" d="M602.534 547.115l139.203-8.135 78 48.173-19.98-32.894"/><path fill="#469c00" d="M609.85 91.597l-23.397 66.714L687.87 205.73l-8.972 23.962"/><path fill="#cfe3f9" d="M629.645 114.28l-32.67-31.846L663.116 3.95l-33.984 66.153"/><path fill="#003575" d="M-18.553 426.602L204.1 347.035 59.256 358.18l66.017 53.105"/><path fill="#f8ffff" d="M218.795 195.268L189.34 169.19l50.76-53.397-15.97 63.59"/><path fill="#62bd42" d="M1005.658 144.307L898.383 190.96l1.76 13.06 43.117 26.782"/><path fill="#00182e" d="M559.69 510.408L530.62 713l-29.478-28.954 21.244-81.033"/><path fill="#f1fafd" d="M464.222 204.768l179.024 53.936-65.123 123.084-119.99-220.81"/><path fill="#014b47" d="M682.263 661.268l35.107-72.763 5.57 19.827-32.534-13.064"/><path fill="#00442e" d="M469.198 675.656l-2.903 28.724 64.69-173.824-25.867-.527"/><path fill="#d0e0de" d="M249.952 213.36l2.693-46.278-22.715 39.77 69.445-34.928"/><path fill="#8ba2cc" d="M795.982 621.284l38.43 42.564-55.147 44.898 2.23-81.46"/><path fill="#5f686a" d="M896.816 505.443l120.593 76.617-30.024 38.145L874.468 533.1"/><path fill="#72978c" d="M94.602 328.842L-31 295.872l158.355 18.62 38.078 23.313"/><path fill="#f6f8ce" d="M526.676 148.503L582 119.973l17.96 16.905-70.534-10.734"/><path fill="#5db616" d="M592.118 47l-69.49 85.25-10.87 102.294L457.963 24.85"/><path fill="#f7feff" d="M337.656 203.067l12.438-50.188 55.893 126.805-108.174-58.812"/><path fill="#09294e" d="M895.478 434.736l-100.83-23.93 39.54 36.773 109 35.157"/><path fill="#000228" d="M244.987 173.696L225.19 155.41l2.714 74.05 13.613-49.14"/><path fill="#eaf7ff" d="M217.03 571.123L46.59 411.63l-.692-.49 450.14 54.225"/><path fill="#e3f9ff" d="M713.063 560.562l28.643 18.292 5.212 9.58-18.922 40.61"/><path fill="#00072f" d="M892.49 698.18l-52.687-71.575-102.273-81.17L856.322 687.05"/><path fill="#90d13e" d="M207.866 111.828l228.617 38.6 77.434 38.264-251.204-45.065"/><path fill="#c5b6ce" d="M866.13 491.315l-60.566-68.32-36.138 45 93.11-6.248"/><path fill="#e2fae9" d="M676.553 77.502l-30.728 20.402 157.09 129.334-123.89-118.39"/><path fill="#00600a" d="M918.825 265.077l97.38-44.79-23.05 52.408-75.83-53.644"/><path fill="#148a20" d="M1005.5 435.412l-8.903 41.344 52.912-56.232-74.35-31.592"/><path fill="#007500" d="M203.666 112.768l33.832-44.343 88.28 124.14L179.39 53.11"/><path fill="#f7ffff" d="M911.448 72.257l48.19 77.51 73.256-39.126-47.59-10.952"/><path fill="#f2f6ff" d="M891.13 267.725l47.52 150.978-59.38-133.938-121.065 22.812"/><path fill="#1c6e51" d="M847.56 260.81l25.397-13.766-12.02 60.788 43.174 19.945"/><path fill="#45a73b" d="M738.922 226.927l19.19-122.648-31.205-28.6 68.724 100.894"/><path fill="#9ee5c1" d="M390.153 3.622l28.215 9.713 17.735 28.22-17.934-8.662"/><path fill="#204a7d" d="M933.39 60.418L908.368 86.32 1055 21.762l-95.76 78.878"/><path fill="#005834" d="M883.148 92.65l44.85 21.388-22.726 20.937-70.266-71.69"/><path fill="#dfe8e5" d="M239.102 333.51L434.946 455.4l-156.4-119.9-93.53 7.19"/><path fill="#c2eedd" d="M37.617 528.973l21.4 25.7 11.417-44.605-24.284-10.6"/><path fill="#7fb81f" d="M467.392 439.15l91.52-18.154 1.635 134.63L465 449.213"/><path fill="#0e5a25" d="M612.84 627.2l21.32 85.8-84.738-163.03 30.305 93.848"/><path fill="#107131" d="M95.588 431.145L-15.227 473.41 9.12 713l6.273-216.36"/><path fill="#ebffd9" d="M568.85 713l-23.36-107.875 24.07 37.57L576.037 713"/><path fill="#00551a" d="M615.217 59.482l-24.902 10.53 44.86-60.308 10.07 12.72"/><path fill="#848092" d="M961.508 638.21l-5.53 24.525L1006.132 713 886.125 556.845"/><path fill="#faffff" d="M630.2 508.905l-24.794 3.653 68.063 14.3L665.756 391"/><path fill="#f0fdff" d="M980.3-31l-3.503 103.556-12.984-14.176L1044.8 6.294"/><path fill="#ecf9fb" d="M655.623 203.116l39.113-26.155-77.53-24.613 59.04 6.623"/><path fill="#2d4470" d="M249.286 304.158l106.315 6.984-65.673-18.312-100.74.82"/><path fill="#28860b" d="M458.49 128.853l-15.76 128.94 34.972 27.385-44.587-110.587"/><path fill="#2e6c2f" d="M649.21 243.17l-32.947-78.642 4.267 78.532 9.607 4.508"/><path fill="#004f0f" d="M683.206 154.542l-49.044-2.827L686.9-11.465l-65.324 131.02"/><path fill="#b9dfd1" d="M178.08 7.644l-35.01 41.203 44.6 31.832-8.36-15.264"/><path fill="#fff" d="M624.425 17.41l-38.352-1.63 15.43-43.666L564.81-31"/><path fill="#bed9d4" d="M512.61 614.715l12.035-13.22 12.534-81.857-21.214 65.533"/><path fill="#005d12" d="M327.326 165.782l-80.405 18.91 59.81-49.864 36.96 83.05"/><path fill="#002427" d="M975.642 2.612L950.42 30.406l-90.403 66.36L928.744-31"/><path fill="#000019" d="M839.66 509.936l198.283 191.01-157.64-165.82-44.437 3.71"/><path fill="#f1fcff" d="M200.232 469.01L94.445 713l166.55-42.858 97.44-149.584"/><path fill="#006337" d="M-1.524 618.665l52.908 58.978L90.5 466.81l21.654 17.212"/><path fill="#003b05" d="M-15.565 57.963l46.32 19.895 38.284-17.56L6.302-31"/><path fill="#298337" d="M684.59 130.585L746.48-31l-65.506 140.225 82.448-11.286"/><path fill="#004303" d="M933.608 677.954L852.7 606.41l-21.058-6.56L936.132 713"/><path fill="#f3ffff" d="M1055 313.135L916.102 266.05l46.266-4.658-1.583 56.676"/><path fill="#23455b" d="M785.193 534.36l-62.974 35.255 4.232-36.6 17.96.424"/><path fill="#00411c" d="M34.636 517.59l-22.748-34.56L-31 524.267l90.796-48.605"/><path fill="#e2e1ee" d="M417.504 336.137L292.168 272.19l-22.403-20.163 9.974 28.85"/><path fill="#caeaec" d="M873.27 641.328l-93.585-63.134 72.093 2.842-27.107 42.18"/><path fill="#1d9000" d="M429.643 261.715l-8.315 48.182-12.905-64.294 12.09 8.73"/><path fill="#8ec55e" d="M428.666 440.187l-46.03-75.072-18.674 63.883 110.133.474"/><path fill="#f6ffff" d="M762.058 24.91L820.346-31l-46.1 37.027L740.01-2.74"/><path fill="#83e735" d="M278.167 102.5l10.558-25.797-34.944-35.376 3.488 42.205"/><path fill="#e4ffb7" d="M315.004 85.658l16.547-24.046 7.91.364.014 17.244"/><path fill="#046c3f" d="M847.3 192.92l10.374-81.836-79.7 1.552 101.834 38.77"/><path fill="#f4ffff" d="M835.71 39.647l-1.54 59.842-31.672 10.23 42.117-64.63"/><path fill="#bcdce6" d="M787.537 713l-56.776-24.554 28.032-57.316-19.32-5.584"/><path fill="#f0fcdb" d="M411.895 226.19l31.84 28.16 9.618 36.052-85.99-88.266"/><path fill="#348828" d="M678.018 482.48l26.73-5-34.2 38.743 78.886-10.49"/><path fill="#79b307" d="M521.654 139.81l-71.037-33.17 16.51 84.055 207.824-18.842"/><path fill="#c4e7eb" d="M815.42 182.556l68.272-69.154-63.638 39.255-49.892 14.592"/><path fill="#fbffff" d="M920.03 220.046l-63.92.05-87.096-14.64 2.068 34.384"/><path fill="#e8f0ff" d="M561.31 579.243l32.667 24.314-36.384-64.497 16.034 10.042"/><path fill="#193b4f" d="M914.348 471.17l82.37-38.377-130.533 82.55L881.59 407.94"/><path fill="#e9f7f8" d="M204.276 392.204l212.65-43.625L98.723 546.825 84.43 523.6"/><path fill="#00022b" d="M230.453 203.354l-92.71-55.862L-31 96.697 196.475 249.03"/><path fill="#c8f2cf" d="M621.646 713l-38.348-59.826 14.854 2.788 13.525 24.7"/><path fill="#00306f" d="M353.66 704.303l17.027-78.976-26.15 8.206-93.2 78.908"/><path fill="#fffffd" d="M226 8.414L288.735-31l-39.47 28.73-7.36 16.298"/><path fill="#008209" d="M421.005 141.498l21.93-29.478L491.43-31 432 12.177"/><path fill="#c2f28d" d="M254.195 171.57l49.994-59.23 14.717 31.285-98.695-9.685"/><path fill="#247b28" d="M600.204 553.783l87.956-2.508-72.408-23.422-14.705 25.925"/><path fill="#34800a" d="M654.698 429.875l-23.446 30.412 4.03-29.606 8.61-1.376"/><path fill="#b7ffcf" d="M166.516 148.33l-11.066-11.895 1.995-15.56 8.087-14.482"/><path fill="#4fd934" d="M81.088 713L27.72 681.45l97.31-78.675-76.226 2.375"/><path fill="#000a3b" d="M-31 401.846l40.88 25.88L-31 310.35l161.606 26.005"/><path fill="#e5f4f5" d="M736.25 180.17l17.564-108.214 39.59 34.204-112.898 28.556"/><path fill="#bfc5d1" d="M257.677 328.485l115.244-9.846-137.183-14.064-114.318-40.038"/><path fill="#bad485" d="M505.51 285.347l9.647 246.22-22.54-153.894 64.176-35.51"/><path fill="#000f2e" d="M769.276 615.382l1.123 95.545 8.6-49.593 23.784 40.5"/><path fill="#006613" d="M1020.446 358.26L1055 306.942l-73.13 21.044 39.966.278"/><path fill="#000d2e" d="M994.194 462.993l31.777 16.15 29.03 135.14-94.11-66.81"/><path fill="#d8efe7" d="M642.242 564.727l-26.337-15.3 52.47 9.78-24.1 40.01"/><path fill="#e8f5ff" d="M702.544 639.804l63.98 55.782-41.287-3.38 12.45-43.914"/><path fill="#dbfbd6" d="M1021.583 443.936l-73.332 18.83 42.315 2.994-17.245-47.227"/><path fill="#4b638a" d="M158.1 378.482l143.09-7.527 35.584-2.627 135.744-39.895"/><path fill="#054d2b" d="M389.953 21.126L341.196 62.06l28.66 51.728L443.524 70.4"/><path fill="#004912" d="M294.813 10.528L276.883-31l-22.137 47.254-70.584 104.04"/><path fill="#12a831" d="M93.634 524.32L94.78 713H73.862l-3.23-199.988"/><path fill="#005715" d="M850.576 178.475l-32.654 27.684-28.798-2.358-4.553-11.826"/><path fill="#b6dfb6" d="M632.452 87.042l-62.734 3.266 8.504-37.47 11.8-7.08"/><path fill="#003718" d="M98.805 56.684l64.608 91.806-56.46-24.627 52.893-64.208"/><path fill="#5f8636" d="M339.77 418.75l1.954-16.275-6.705-10.423-20.24 22.387"/><path fill="#317f59" d="M660.193 600.29l-93.754-33.455 53.193 4.953L762.95 639.99"/><path fill="#004611" d="M196.066 164.794l-44.425.856 97.754-104.738-39.55-4.06"/><path fill="#cbcadd" d="M736.12 443.105l-79.32.7 71.79-33.905 131.255 112.02"/><path fill="#e3f4fa" d="M610.463 585.943l15.05 82.575 19.573 3.38-23.095-96.81"/><path fill="#2e375d" d="M813.374 508.748l33.16 32.456-38.86-50.978-41.813-30.636"/><path fill="#002c09" d="M487.517-2.436l35.13 12.01 72.976 36.74L581.89.203"/><path fill="#229a3c" d="M401.168 638.8l-21.183 68.708 94.602-52.84 23.21-88.82"/><path fill="#9cc84d" d="M398.9 96.9l25.835 7.682-92.91 61.968 119.556 16.593"/><path fill="#e1fcd6" d="M1024.446 361.218l-16.142 45.46L1055 417.89l-97.536-94.523"/><path fill="#0d5342" d="M685.642 168.523l36.812 45.355-18.19-15.49 8.8-35.615"/><path fill="#e7fcff" d="M892.54 21.156L817.574 93.37l63.357-46.91 21.77-30.19"/><path fill="#000024" d="M868.427 466.68l2.684 26.4 33.265 17.172 143.354 78.56"/><path fill="#eefbff" d="M883.452 237.097l36.524-12.196-58.704-62.063-10.82 36.71"/><path fill="#567066" d="M961.553 505.795l4.453 23.397-136.357-87.957 112.12 46.06"/><path fill="#e2efe8" d="M535.097 308.476L533.76 171.54l-69.22 74.99 14.225 45.14"/><path fill="#a0a3a3" d="M908.9 610.447l9.345-19.853-16.205-14.066-20.343-1.365"/><path fill="#002" d="M1055 709.16l-105.46-79.498 66.847-36.753L1055 667.64"/><path fill="#006528" d="M991.343 161.297l-33.202 78.635 21.603-60.556-41.632-25.257"/><path fill="#5b6678" d="M465.836 324.48l-8.9 23.57-63.448-26.163 60.982-4.285"/><path fill="#9ecc60" d="M516.684 450.47l22.146-16.116-129.677-62.97 60.363 42.715"/><path fill="#edfaf0" d="M398.355 414.77l49.043-78.376-66.38 22.185 103.697 77.342"/><path fill="#016f0f" d="M190.89 26.376l-10.465 23.812 45.756-9.032 175.554-7.027"/><path fill="#c9f263" d="M-30.107 522.95l53.785-74.274L-31 466.528l45.757-39.73"/><path fill="#adc1b1" d="M366.943 581.23l73.67-41.062-91.33-60.6 46.593-51.87"/><path fill="#aed74f" d="M617.976 454.28L395.568 567.9l84.517-92.324 85.776-9.095"/><path fill="#3d62a5" d="M215.96 384.742l3.82 3.155-148.276 9.92 64.202 11.515"/><path fill="#439a12" d="M567.118 176.156L672.22 192.69 581.244 92.353l87.37 22.694"/><path fill="#78d911" d="M-4.704 74.855l120.28 6.247-56.845 27.625-71.624-37.058"/><path fill="#bcd4ce" d="M700.374 551.415l50.91-1.748-2.038 24.538-32.643-45.846"/><path fill="#00522a" d="M898.455 257.75l15.37 71.923 4.535-54.628-78.073-15.04"/><path fill="#004a03" d="M655.063-31l9.226 67.805L712.3-31l57.125 104.965"/><path fill="#198914" d="M354.928 130.033l40.648 36.942-30.79-79.12-285.244 14.38"/><path fill="#84d349" d="M920.728 196.268l26.332 45.438 61.314-12.46-10.37-12.6"/><path fill="#c5dce0" d="M755.893 174.927l-106.027-23.764-18.507 18.3 136.074-28.437"/><path fill="#dcf9ed" d="M849.672 29.572l-14.76-8.063-30.474 39.316L917.048-31"/><path fill="#2e7d2b" d="M544.306 526.714l-16.002 51.602 58.07 94.148-35.23-158.63"/><path fill="#9dc138" d="M618.243 155.593l4.753 88.103-93.9-34.776 7.518-9.746"/><path fill="#e7fcff" d="M925.94 50.764L897.59 96.19l-2.183-13.97 21.21-28.592"/><path fill="#001f08" d="M607.643 645.478l.983 67.522h67.636l-107.535-90.893"/><path fill="#383957" d="M769.867 489.084l-27.778-33.8-2.568-12.79 84.4 108.37"/><path fill="#cefd33" d="M135.21 609.24l-22.4 47.474-27.517-39.457 12.106-9.593"/><path fill="#008001" d="M435.386-31L566.512 77.71l-91.4-13.367L576.185 32.2"/><path fill="#369236" d="M793.69 180.88l-42.418-62.045 13.195 52.516-107.802 43.692"/><path fill="#14814c" d="M937.218 464.894L1055 335.674l-18.828 26.34-50.23 34.448"/><path fill="#74af5e" d="M668.588 515.545l32.91-8.318-35.87-124.506 14.317 109.257"/><path fill="#aebce0" d="M249.73 363.323l-142.763 20.354 89.888 11.644-27.82-47.565"/><path fill="#666788" d="M863.537 500.377l-102.262-67.934-66.628-55.958 95.995 61.074"/><path fill="#cfddf7" d="M311.116 248.154l57.682-64.084L320.924 195l-15.447-19.91"/><path fill="#003637" d="M852.3 33.678L843.275-31l6.12 91.423L895.577-1.84"/><path fill="#248800" d="M501.374 203.903l27.55-95.04-29.646 48.19 19.53 38.963"/><path fill="#278d00" d="M413.548 175.357l-6.667-25.63-16.542 72.22 28.055-4.64"/><path fill="#096928" d="M826.173 71.703l-22.245-36.456-20.22-42.394 2.274 130.128"/><path fill="#77c492" d="M383.433 682.564l89.44-37.37-4.097 18.816-43.835-13.838"/><path fill="#f6fffe" d="M232.27 472.25l141.82-56.217-32.41-42.14.28 67.516"/><path fill="#ddedf2" d="M777.65 557.262l38.602 41.58-42.557-26.702-10.744-14.593"/><path fill="#f6fdff" d="M674.97 216.988l-41.027-25.8 56.71 85.77 17.76-63.5"/><path fill="#adc2b7" d="M891.55 559.503l-75.872 11.234 1.305 17.228 47.227-49.567"/><path fill="#6dab13" d="M635.497 481.306l3.158-14.64-160.41 92.06 78.704-88.25"/><path fill="#dbffff" d="M334.454-.05L310.962-2.85l-10.636 16.624L264.26-31"/><path fill="#004e2a" d="M281.46 216.505l30.456 3.41-21.1-21.505-29.285 7.325"/><path fill="#001b47" d="M277.897 284.538l12.524-3.28L31.336 141.816l95.376 71.448"/><path fill="#d1efef" d="M960.703 288.882l87.452-2.4-39.574-46.558 3.816 21.284"/><path fill="#aada9b" d="M703.237 78.44l22.733-34.468 16.948 12.266-33.098 37.42"/><path fill="#556b6b" d="M131.943 224.49l38.007 9.958 54.16 37.962-105.195-6.502"/><path fill="#80aa97" d="M862.323 466.316l.53-85.845 37.116-4.786-29.684 26.435"/><path fill="#1f5764" d="M439.556 548.892l-16.536 8.913-30.645 46.444-43.37 8.288"/><path fill="#1f4354" d="M318.524 241.766L422.84 293.57l-160.823-51.73-243.173-67.913"/><path fill="#144b6d" d="M194.83 360.987l-89.9 20.47 1.224 46.355-57.377-80.487"/><path fill="#d3e3f1" d="M216.673 47.143l-33.44 35.75 12.237-36.047 45.572-2.766"/><path fill="#060e31" d="M835.776 531.1l54.955 89.508L992.373 713l-52.198-69.227"/><path fill="#98a89a" d="M370.956 541.24l87.237-84.832 18.08-3.48-.23 34.308"/><path fill="#e9f2f4" d="M573.14 294.59l-97.864-32.5L591.7 229.098l62.913 164.055"/><path fill="#024228" d="M741.28 624.888l-51.135 1.092 2.326-8.476 65.54 38.598"/><path fill="#cbe9e6" d="M790.554 642.696l-2.165-14.182-10.21 3.366L803.94 713"/><path fill="#edf6ff" d="M866.112 274.26l-73.774 126.68 31.883 12.748 24.16 14.524"/><path fill="#9fc560" d="M609.428 420.624l-8.872-58.49 20.012-54.547 19.126 98.904"/><path fill="#e3fde3" d="M264.45 217.208l5.215-31.108-1.97-9.452-14.913 29.346"/><path fill="#d7fdff" d="M105.616 14.856L68.79-31l27.978 6.555 12.6 22.605"/><path fill="#2f8027" d="M553.284 444.836l-26.21 19.512 16.117-38.735 22.952 5.056"/><path fill="#e9f8ff" d="M974.358 91.042L863.996 249.12l65.62-137.01-42.847-18.195"/><path fill="#c0ecc2" d="M26.709 546.687L22.22 490.6l-14.92 23.395 24.918 3.91"/><path fill="#c6eae8" d="M865.64 615.43l-66.962-57.747 32.46 16.66 25.134 16.234"/><path fill="#00790f" d="M950.5 192.838l41.307 21.687-19.436-26.51-16.6 76.495"/><path fill="#65b96f" d="M650.383 88.53l60.427-50.824-32.196 91.205-4.368-54.414"/><path fill="#00691d" d="M875.84 64.913l-11.202 59.244-113.894 44.75 30.886-32.474"/><path fill="#107920" d="M796.11 58.494l-106.72 26.32 110.15-54.32L887.094-31"/><path fill="#2b667e" d="M952.37 107.64l-1.028-49.356 47.545 43.102-37.64-18.153"/><path fill="#004234" d="M56.2 568.28l-18.628-40.31-3.622-63.37-5.962 138.44"/><path fill="#073837" d="M389.083 669.734l15.745 8.277 177.755 32.226-39.19-54.408"/><path fill="#c1e662" d="M438.98 118.644l26.845-4.965-36.8 64.982-10.264 4.104"/><path fill="#04630d" d="M689.95 461.872l7.063 3.567 14.905 58.542-4.507-72.104"/><path fill="#82ab7e" d="M403.61 67.64l-12.854-12.258 39.695 5.33-7.578-36.447"/><path fill="#60ba05" d="M571.544 257.44L549.756 100.88 455.798-31 568.85 102.276"/><path fill="#d9f5f1" d="M872.18 109.405l40.99 29.79 20.7 50.23-80.342-58.667"/><path fill="#c2e8c8" d="M258.374 174.145l-19.85 22.724 8.977-83.338-53.054 33.703"/><path fill="#e9f7e9" d="M580.313 472.925l50.168-57.285-60.982.248-15.616 32.126"/><path fill="#00212a" d="M741.716 658.522l-28.896 5.047L735.897 713h-75.642"/><path fill="#50cc36" d="M127.332 560.654l-76.4 13.136 84.89 39.995-33.666-91.788"/><path fill="#e2ebea" d="M647.522 369.243l-15.265 36.03 52.088-44.474 108.5-178.716"/><path fill="#33645e" d="M724.494 540.406l135.438 23.82-181.23-5.695 32.63 17.33"/><path fill="#000d3e" d="M-31 234.502l137.808 23.757 70.406 38.586 81.15 40.473"/><path fill="#e0fbf0" d="M35.937 453.528l40.383 44.218 16.65-15.92-57.16-18.43"/><path fill="#b4d5aa" d="M775.985 253.268l78.652 11.492-121.862-44.8-28.685 14.055"/><path fill="#2e7944" d="M748.073 508.752l-.208-30.892-52.898 78.836 21.145-49.797"/><path fill="#12374e" d="M799.33 660.576l-23.572-78.334 28.837 69.29L836.353 713"/><path fill="#ebfbff" d="M955.658 153.253l54.296-98.5L1055 80.865l-80.288 75.37"/><path fill="#48c707" d="M526.046 40.188l-84.7 30.307 12.17 44.94L480.17 5.948"/><path fill="#b1f59d" d="M183.52 31.847l-9.626 39.445L134.078 88l23.46 2.794"/><path fill="#d6ebdc" d="M744.057 506.898L738.45 485.8l-62.24-21.833-43.35-21.64"/><path fill="#b7c6b1" d="M900.348 531.8l-14.37-25.068 26.857 13.542-43.75-3.465"/><path fill="#b4afb7" d="M796.388 418.403l80.31 56.128-73.874-26.05-15.387-66.195"/><path fill="#b4bcad" d="M245.842 242.765l302.92 113.7-216.81-94.46 22.67 28.93"/><path fill="#f0edff" d="M530.617 143.504l-1.223-5.507 6.55-19.408 16.772 20.098"/><path fill="#8edc99" d="M984.89 175.902l16.368-32.687 13.203 38.656-29.314 21.75"/><path fill="#eaf6ff" d="M957.152 275.38l19.242-21.267 18.61 128.144-14.426 10.18"/><path fill="#d8e9e7" d="M624.474 463.77L592 487.576l114.977 6.085-89.02 29.473"/><path fill="#c0cdd4" d="M205.66 324.13l93.15 22.93 55.41 170.76-55.35-149.186"/><path fill="#f5ffff" d="M754.254 86.24l33.11-2.33-44.85 39.897 56.495 6.51"/><path fill="#0b5337" d="M622.686 17.585l22.08 32.277-27.666-2.817 44.354-42.86"/><path fill="#e1dfe9" d="M760.25 420.483l14.012-1.62-26.044-2.555-63.147-101.25"/><path fill="#24587c" d="M923.157 62.13l-20.922 23.032 7.076 14.51L946.286 52"/><path fill="#7dba60" d="M664.622 291.684l15.074-36.23-51.96 66.263 11.216-42.97"/><path fill="#001633" d="M914.69 713l-106.245-70.505 28.65-22.407-86.27-38.812"/><path fill="#9fcac8" d="M702.426 604.52l55.773 36.963 17.006-.41-104.66-65.058"/><path fill="#add895" d="M961.514 165.36l3.798 35.196-8.375-7.16-25.624 20.522"/><path fill="azure" d="M802.52 622.926l13.76 50.23-23.4-58.03-.435 9.85"/><path fill="#395895" d="M135.098 352.907l87.875 1.216 85.97 22.883-66.356-35.143"/><path fill="#cbf6e4" d="M170.227 146.42l-11.917-8.935-10.26-13.915 21.265 10.053"/><path fill="#92b577" d="M624.772 337.582l65.924-25.632-3.725-6.53-21.135 49.983"/><path fill="#477d7f" d="M1016.79 507.362l-42.943-9.635 30.565-13.856-26.04-11.743"/><path fill="#001d16" d="M578.273 648.934l32.377 55.417-16.81-5.76-23.733-55.388"/><path fill="#659c47" d="M500.07 146.533l-38.412 144.914 12.51 11.516-3.995-73.516"/><path fill="#c1c9aa" d="M864.118 557.837l-65.663-35.064 40.957 31.585 23.912 7.328"/><path fill="#dbebff" d="M1055 21.724l-63.752-46.397-27.255 132.578 4.77-62.523"/><path fill="#056e20" d="M154.7 53.127l23.048 104.49-14.044-102.678.89-18.78"/><path fill="#3a7945" d="M380.5 370.092l25.365 10.224-26.49 8.335.79-17.97"/><path fill="#17a21f" d="M65.9 452.182l4.628 26.668-30.33-50.368-18.043 14.174"/><path fill="#2f8a09" d="M600.106 140.258l-11.52 36.9 91.52-50.142 5.103 27.15"/><path fill="#eff9fe" d="M120.546 442.61l56.735 264.447 123.68-321.37-272.872 40.456"/><path fill="#002d30" d="M960.365 2.713l-85.584 7.72 131.632 45.244-44.307-9.11"/><path fill="#107823" d="M840.546 114.415l28.67 35.95-71.162-31.35-48.152 80.45"/><path fill="#004f11" d="M267.11 138.296l-12.196-9.388L395.508-31h6.685"/><path fill="#00092d" d="M8.91 396.214L95.267 406.4-31 414.723l58.432-352.27"/><path fill="#067026" d="M897.574 247.84l113.343 21.616-9.78-28.828-79.04-2.262"/><path fill="#79b952" d="M778.143 145.283l-68.61 104.836-14.122-48.345 16.55 3.563"/><path fill="#ebfcfb" d="M675.354 115.712L670 75.734l9.336 6.708-35.67 22.037"/><path fill="#e4f1f0" d="M696.055 525.893l-17.695 36.47-18.15-50.735 70.33 13.98"/><path fill="#18663d" d="M853.242 227.605L848.56 276.5l60.51-12.867-37.565-4.56"/><path fill="#00400d" d="M137.504 15.126l26.02 20.543L168.32-31 50.396 55.15"/><path fill="#e9f6f0" d="M510.49 398.993l32.593 30.228 88.605-134.653-190.036 136.7"/><path fill="#00291d" d="M766.193 609.165l-22.76-2.75-3.655 62.662.745-72.452"/><path fill="#148120" d="M629.938 58.51l26.576 65.627L459.27 95.64l176.55 16.376"/><path fill="#f3fbff" d="M676.556 636.292l2.94 68.22-30.732-89.922 43.488-44.877"/><path fill="#f8ffff" d="M1003.066 419.698l-18.814-2.07-15.43 20.036 18.555 4.583"/><path fill="#77ce42" d="M438.72 617.033l-90.15 6.668 57.95-25.292 53.692-37.632"/><path fill="#d2cee3" d="M789.3 490.805l-18.647-6.113-78.528-113.398 35.04 42.26"/><path fill="#d2edf4" d="M226.474 36.695l-28.49 32.56-5.342-17.743 40.207 5.097"/><path fill="#146126" d="M703.365 497.374l10.228-56.077-49.274 95.584 33.986-65.976"/><path fill="#f5f9ff" d="M644.146 52.155l-29.456-1.517 7.907 5.924 22.41 16.668"/><path fill="#002f20" d="M301.586 16.918l32.282 7.503 79.822 193.72L318.64-31"/><path fill="#6fcf1e" d="M107.547 99.52L86.572 28.64 69.037 39.07l1.422-57.52"/><path fill="#acf650" d="M1017.194 416.827l22.217 62.912-58.17-17.824 73.055-5.582"/><path fill="#bedfbe" d="M684.58 122.103l104.584-19.04-169.612 40.402 103.602-50.793"/><path fill="#257440" d="M651.643 595.858l-39.89-48.176 9.368 26.864 9.276 29.915"/><path fill="#12782d" d="M665.74 164.786l-32.843 5.472 18.823 26.486 14.42-21.77"/><path fill="#98eb64" d="M142.298 590.847l-14.36-69.49-42.05 28.44 64.416 12.927"/><path fill="#fcffff" d="M794.608 536.04l-12.334-19.834-33.678-14.502L731.19 524.6"/><path fill="#7ecd25" d="M590.844 58.437l-38.37-26.185-21.722 80.295-24.658-38.313"/><path fill="#9bdaa9" d="M899.59-11.908l-82.564 24.52 76.083-6.995 5.436 6.848"/><path fill="#e2fae6" d="M834.332 38.947l-51.8-67.378 66.89 91.088-37.54-14.593"/><path fill="#e2f5ff" d="M652.24 19.208l10.938-.476-2.007-7.008L618.243-31"/><path fill="#b9ec5d" d="M275.86 145.256l3.272 13.835 30.61-34.47-9.71-6.922"/><path fill="#33834a" d="M595.58 602.663l-17.708 30.37-39.262-1.86 65.567-15.096"/><path fill="#106143" d="M626.426 663.993L713.4 713H604.57l45.925-68.39"/><path fill="#000423" d="M943.768 467.052l99.68 76.474-59.86-12.258-75.415-71.898"/><path fill="#c6ead6" d="M605.746 712.74l-14.552-69.873-35.98-4.538 46.034 17.145"/><path fill="#95c588" d="M490.32 84.51l38.34 11.25 115.6-37.527-162.974 46.473"/><path fill="#c7e9e7" d="M866.816 644.18l-12.33-19.803-31.482-18.227 47.328 51.053"/><path fill="#8ccb1a" d="M642.126 115.897l15.623 34.386-53.916-26.824-68.837 82.863"/><path fill="#adb1b9" d="M281.935 297.07l-132.89-21.782 97.862-5.432 53.597 22.536"/><path fill="#123e4b" d="M139.355 246.626l35.678-89.357-94.9 93.577-85.505-43.844"/><path fill="#eaf4fa" d="M950.37 455.63l-8.022-89.036-82.164 34.283 84.863 55.65"/><path fill="#97de5e" d="M272.548 191.125l74.228-38.61 13.24-36.584-72.11 87.61"/><path fill="#b1d2ce" d="M155.934 33.65l-1.974 24.192-24.854-9.943 72.46-12.63"/><path fill="#2b8037" d="M315.863 182.033l.963 42.49-10.15-94.404 36.228 66.204"/><path fill="#0b5a29" d="M750.92 89.52l42.835-75.454-88.483 87.56-32.604-2.397"/><path fill="#004738" d="M-31 558.978l41.042 129.586 4.103-70.913 65.678 19.642"/><path fill="#152b37" d="M879.583 566.93l55.967-57.558-42.94 65.145 18.228 33.758"/><path fill="#e3f3f2" d="M660.03 329.195l130.917-130.393-112.888 81.792-38.426 20.033"/><path fill="#e8f3ff" d="M682.152 191.895l-18.548 2.88 7.353-46.92 21.446 61.22"/><path fill="#d9eaf6" d="M916.936 74.948l34.78 5.462 5.51 45.633L898.77 70.46"/><path fill="#005616" d="M702.56 98.605l-29.463-40.507L674.7-6.798l-29.65 61.25"/><path fill="#478b38" d="M537.14 452.227l-19.348 5.815 82.25 25.564 15.52-5.447"/><path fill="#3d8677" d="M945.06 276.89l9.744 8.45-13.297 45.284 18.23-9.73"/><path fill="#358f09" d="M588.19 395.448l-1.966.88-13.472 1.67 8.888-13.513"/><path fill="#174f52" d="M705.715 577.29l-9.962 6.45-1.953 3.995-8.524 78.378"/><path fill="#e4f3fb" d="M825.25 568.342l-12.578-8.37 51.756 42.232-69.06-36.606"/><path fill="#f6feff" d="M688.834 397.228l23.275 36.05-14.113 20.466-3.98-28.87"/><path fill="#e9f4fb" d="M682.944 210.257l-61.088 58.768 217.794-11.19L729.01 360.25"/><path fill="#066e3d" d="M995.73 313.9l3.682 21.502 15.94-9.914 39.648-1.812"/><path fill="#9cbead" d="M490.337 699.925l44.123-156.81-29.82 114.98-4.23 43.766"/><path fill="#0d7141" d="M1006.19 367.065l-38.906 53.098 87.716-20.84-52.734 30.02"/><path fill="#eef8ff" d="M1005.822 43.995l-12.854-57.87-32.835 34.11L1055-25.86"/><path fill="#0b4711" d="M283.814 163.25l-34.782-17.028 43.454 43.005-7.337-29.423"/><path fill="#76f83c" d="M15.99 666.287l11.89-17.735 1.823-13.168-19.492 19.21"/><path fill="#81809c" d="M676.535 410.407l11.397-54.303 44.012 24.463 8.22-23.13"/><path fill="#68a806" d="M622.796 490.603l-110.425 1.514 17.062 39.658 63.102-17.852"/><path fill="#297561" d="M724.42 608.348l-13.13 77.787 12.715-52.62-15.073-48.69"/><path fill="#00392f" d="M-6.55 398.6l58.68 102.415-18.967-10.433-11.24-77.858"/><path fill="#eaf0ff" d="M601.053 81.675L613.195 70.5l19.538 23.417-9.18 10.31"/><path fill="#5ecb33" d="M254.17 151.143l-12.985-39.32-55.264 2.07-5.535-43.82"/><path fill="#f5fdff" d="M645.595 613.826l7.89-33.12-17.067-7.25L667.5 625.17"/><path fill="#d4eafb" d="M902.543 14.898l-30.356 46.137L869.877-31l2.5 61.415"/><path fill="#008213" d="M1027.59 106.385l-6.946 151.815 34.356-7.588-40.585-78.748"/><path fill="#419133" d="M356.49 200.93l130.882-66.695-115.84 53.478-7.74 23.706"/><path fill="#0a225f" d="M1007.57 43.532l13.632 14.937 11.74 12.914L1055 10.004"/><path fill="#a7de8d" d="M1015.614 199.293l-20.075 31.842-34.692 5.31 68.707-32.686"/><path fill="#008119" d="M440.818 118.305l-34.922 7.405 82.612-63.69-34.83 50.207"/><path fill="#c2c7d9" d="M368.647 344.072l-75.304-25.85 52.17-1.475-18.965 31.698"/><path fill="#d0dbe8" d="M189.01 378.834l135.874 19.07-131.597-7.74-125.64 2.712"/><path fill="#9fd0c9" d="M757.158 572.35l5.445 20.584 18.913 18.306-13.264 6.026"/><path fill="#000419" d="M141.734 160.31L-31 71.464 93.56 202.54l53.32-94.286"/><path fill="#e9f4fb" d="M952.04 297.84l-40.27-38.054 32.085 9.208-19.54 101.21"/><path fill="#027500" d="M439.173 161.855l20.033-7.774-1.65-17.235-14.2 3.436"/><path fill="#63c15e" d="M357.902 5.14L336.356-31l27.503 49.694-56.674-26.32"/><path fill="#0e3837" d="M702.133 484.626l76.498 118.282-26.684-69.456-24.378 1.484"/><path fill="#094139" d="M565.24 19.516l74.567 4.952 22.967-20.25-98.898 36.806"/><path fill="#00262a" d="M709.097 618.84l-28.544 23.312 6.724 8.483 1.187-33.61"/><path fill="#0d9326" d="M99.956 59.44l29.91-47.614 25.137 14.95 32.758-7.548"/><path fill="#4a6080" d="M358.386 386.306l-24.07-27.342-92.602-30.7 54.167-4.32"/><path fill="#223553" d="M767.383 427.946l53.175 36.34 52.118 59.8-50.89-41.693"/><path fill="#a8ddcb" d="M581.98 3.45l8.353 13.92L651.42-3.395l-57.34 36.362"/><path fill="#0a5500" d="M486.843 131.733l.196-22.992-14.1.384 7.222 29.87"/><path fill="#dbe9f8" d="M914.64 167.47l-119.833 15.867 4.553-2.846-6.39-12.142"/><path fill="#006b0c" d="M356.147 122.686l-8.167 6.42 31.272-14.492-21.36 45.365"/><path fill="#33815e" d="M72.016 509.307l-37.34 24.576 6.398 17.462L-31 645.323"/><path fill="#00091c" d="M848.84 581.145l-43.37-45.614-.135-4.35 39.983 34.314"/><path fill="#55967e" d="M701.43 605.722l-46.91-17.893 42.09 39.244-24.894 25.325"/><path fill="#05355f" d="M99.11 416.254l-50.028-17.62 43.75-4.178 34.052-3.81"/><path fill="#004126" d="M845.96 23.143l10.98 59.55 60.64 28.07-40.595 1.597"/><path fill="#8cb385" d="M543.444 624.798l2.73-22.8 10.76-26.923-3.037 73.394"/><path fill="#deebf1" d="M707.94 188.346l14.192-60.35-10.87-35.954 39.125 52.1"/><path fill="#7ec4ac" d="M282.9 16.838l65.96-44.713-57.978 50.21-9.13 1.122"/><path fill="#08804d" d="M465.268 713l-112.323-70.38 62.23-38.597-34.198 44.204"/><path fill="#c6de58" d="M448.21 186.042l68.466-8.35-25.78 16.504-35.635-38.413"/><path fill="#d8ebdb" d="M214.767 133.936l55.254 43.023-39.136-55.322-19.106 15.803"/><path fill="#afcde7" d="M1001.478 47.19l-63.34-11.073-2.953 25.744 62.427-38.134"/><path fill="#44895e" d="M663.62 531.51l14.794 8.94-14.67 34.52 9.07 17.106"/><path fill="#85da99" d="M230.022 13.817l-26.42 6.946L285.112-31l-29.74 34.947"/><path fill="#f6fcff" d="M679.258 538.072l-12.4-53.252-30.976 14.578 11.09 38.278"/><path fill="#243b5a" d="M796.296 455.452l-7.903-51.52-41.354-29.02 29.907 26.122"/><path fill="#204b52" d="M749.006 656.987l4.37 48.955-16.39-61.69 93.157 22.303"/><path fill="#bdf0d3" d="M388.44 670.617l-36.307 40.715 58.574.092L400.72 713"/><path fill="#cdecf0" d="M702.564 585.712l16.865 65.466-32.557 17.393 31.79-57.373"/><path fill="#153749" d="M833.663 606.283l-16.042 85.584-2.023-69.752 91.395-41.97"/><path fill="#bdbbc3" d="M832.774 512.226l15.16-7.254-44.362-35.49-65.682-40.734"/><path fill="#9c9faf" d="M757.76 467.358l26.617-51.3.99 39.243-31.187-68.004"/><path fill="#f0f8ff" d="M841.15 193.277l-5.904 13.66 51.548-1.93 55.046-81.025"/><path fill="#167450" d="M969.362 181.358l56.242-19.603-95.584 13.142 14.204-33.07"/><path fill="#147d3d" d="M585.34 27.47l35.483 50.546-10.55-61.856-46.516 23.67"/><path fill="#b4cb89" d="M524.432 443.728l-41.766-120.033-5.012 6.176 48.634 144.715"/><path fill="#000906" d="M228.812 192.588l-4.246 6.286 18.156-22.578-15.37-19.205"/><path fill="#e5f4f8" d="M65.16 485.384l-28.943-17.06 124.582-8.663-12.11-19.78"/><path fill="#effffd" d="M812.822 653.54l-25.827-9.294-.697-9.563-7.666 13.676"/><path fill="#418759" d="M639.247 250.677l13.675-15.518-3.78-9.008-52.513 15.34"/><path fill="#64b09d" d="M994.395 304.12l-1.916-3.48-1.446-19.442 14.227-9.257"/><path fill="#dff0f2" d="M777.538 189.427l-4.05 20.027 53.63-6.253-14.412 60.883"/><path fill="#337c4f" d="M667.988 215.984l73.35-19.73-54.533 11.24-13.495-13.93"/><path fill="#90dd6a" d="M825.52 3.66l-11.63 27.083 3.19-7.15-9.642-16.558"/><path fill="#03525b" d="M679.567 679.02L568.78 713l62.673-19.557 131.867-.76"/><path fill="#ebf4fe" d="M751.48 318.34l152.102-42.498-9.652 28.81-27.3-27.563"/><path fill="#ebf2ed" d="M731.45 48.808l-2.44 15.742-19.85 2.387 7.048-10.97"/><path fill="#a3c284" d="M525.007 294.073l1.254 90.028-15.287-18.323-1.254-28.96"/><path fill="#e8f3f7" d="M426.603 238.955l-75.92-42.18-48.864 27.554 71.216 39.88"/><path fill="#d6d3e7" d="M728.67 398.82l-113.413-60.53 5.59 14.19 17.266 20.142"/><path fill="#3ab841" d="M1052.222 379.386l-7.657-37.216-53.942-5.042 56.733 32.3"/><path fill="#f1faf5" d="M184.856 34.58l-14.103.088-5.907 37.74 10.867-13.383"/><path fill="#375e87" d="M328.524 619.518l-2.505 44.96-73.56 40.597 18.982-29.003"/><path fill="#dadbdb" d="M866.178 480.136l2.35.968 1.052 8.958-39.612-44.624"/><path fill="#037d2f" d="M74.17 562.69l36.507 41.49-59.476 1.014 81.027-56.043"/><path fill="#00501d" d="M662.013-15.137l-47.217 21.56-36.582-10.364 87.96-.6"/><path fill="#2a861e" d="M987.126 447.73l27.514 3.975-2.247 9.46-45.27-16.588"/><path fill="#84d78d" d="M821.27 104.763l-17.61 7.057 10.86-36.09-24.68-15.64"/><path fill="#0f1f47" d="M542.546 664.723L473.1 713l38.548-96.203-56.462 74.886"/><path fill="#007f05" d="M667.453 77.477l40.41-46.182 81.608 33.943-93.815-74.326"/><path fill="#65a34a" d="M430.587 456.53l21.554 7.137 51.292-51.466-9.383 31.95"/><path fill="#b1cedc" d="M821.002 647.324l5.418 23.448-47.65-7.664 59.525 8.318"/><path fill="#ddf6ea" d="M757.667 31.69l9.023-43.474 7.38 25.41-15.34 25.39"/><path fill="#25426e" d="M215.08 287.354l37.287 13.166-9.383 6.27-42.852-18.493"/><path fill="#9fccaf" d="M67.937 530.95l-9.272 29.438-21.53-32.067 1.972 10.268"/><path fill="#7d839c" d="M752.792 440.34l69.48 29.898-108.327-54.726-11.683-22.06"/><path fill="#3a6994" d="M978.21 12.31l-33.565 61.796-2.206 8.034 43.204-51.185"/><path fill="#176235" d="M718.106 524.458l-6.962 13.857-20.77 11.996 5.51-12.28"/><path fill="#83bd58" d="M375.29 436.122l3.295-14.667-70.398 8.345 12.61-3.823"/><path fill="#d0e4de" d="M722.932 192.917l-13.788-52.198-3.914-20.745 18.19-9.928"/><path fill="#eff9fd" d="M157.698 595.638l-32.214-35.372L165.197 713 417.5 483.907"/><path fill="#003c35" d="M58.35 670.534l-75.22 4.724 46.044-17.302 12.423-44.96"/><path fill="#c4ed2c" d="M84.607 107l-5.308-6.434 22.1-19.928L54.086 99.3"/><path fill="#aac9cd" d="M754.93 579.02l-16.102-37.586 16.74 156.69-14.2-123.98"/><path fill="#93de2d" d="M412.747 94.954L414.6 86.1l3.84 40.775-23.73-30.224"/><path fill="#0d3f64" d="M219.365 336.044l-38.51-49.135-31.41 36.83-166.33-71.31"/><path fill="#e9f7ed" d="M657.075 416.65l-23.05-21.213 43.737-4.817-9.96 13.503"/><path fill="#8ea1b3" d="M465.01 439.833l-5.017 41.132-83.73 47.75-34.676 98.17"/><path fill="#ecf8f6" d="M457.398 451.195l-170.92-20.812L96.232 541.52l-8.24-41.37"/><path fill="#d5eaf1" d="M731.37 617.306l11.785-35.838-58.094-13.05 41.045 21.42"/><path fill="#228f3a" d="M-31 517.744l12.964 49.173 59.742-73.32 67.352 2.554"/><path fill="#00000c" d="M741.026 22.418l-21.41-15.82-42.558-10.104L739.514-31"/><path fill="#8cbb75" d="M427.89 433.024l-55.756-37.516-11.273-.602 109.422 44.964"/><path fill="#93f150" d="M1036.656 91.562l-6.02 27.533-22.38 6.535 3.99 32.474"/><path fill="#6abc84" d="M360.723 656.6l30.378 8.728 18.243-41.805-52.1 60.206"/><path fill="#c8cedd" d="M267.15 309.984l22.194 20.024-63.092-8.113-7.54-12.438"/><path fill="#002a13" d="M60.056 59.9l4.572-49.014L-31 60.602l58.98-47.216"/><path fill="#2d6467" d="M811.656 588.612l-26.325-26.87-28.537-14.017 64.647 34.503"/><path fill="#1c6d57" d="M713.268 165.09l-27.262 8.932 50.78 1.746 3.946 25.095"/><path fill="#1f8246" d="M878.975 292.074l13.927 32.845-22.408-20.36-11.808-10.86"/><path fill="#a2cdc5" d="M759.27 605.85l9.877 40.955-12.237-29.93-13.38-71.125"/><path fill="#509b68" d="M696.624 113.058l60.432-6.073-24.077-42.03L772.09 82.87"/><path fill="#e9f7ed" d="M36.726 510.407l20.894 9.257 8.35-4.59L58 502.258"/><path fill="#24b00e" d="M46.83 83.19l-5.34-34.604-72.49-6.71 131.063 42.202"/><path fill="#f1faff" d="M575.13 430.384l-36.912-29.098-14.85-62.768 30.365 5.438"/><path fill="#017b15" d="M932.932 266.985l-9.217-21.683-9.462-28.875 16.632-13.21"/><path fill="#afc7a7" d="M332.937 363.25l-48.328 33.197 94.112 53.932-88.115-69.957"/><path fill="#003608" d="M99.236 96.685l44.318 56.24-4.2-53.603-56.46 31.435"/><path fill="#849a93" d="M705.713 330.945l21.295 8.152-38.786 8.97-6.585 47.875"/><path fill="#045e2d" d="M829.367 125.825l-15.274 28.09-59.436-22.636-2.687 11.88"/><path fill="#dcf4f0" d="M868.84 229.897L918 240.56l-2.838-14.023-46.33 26.902"/><path fill="#3a5055" d="M756.623 491.352l35.65 9.897-26.206-17.32-4.19 27.13"/><path fill="#5d6077" d="M250.19 234.62l-35.645-9.14-35.023-19.692 61.98 46.388"/><path fill="#5a616c" d="M672.355 384.102l19.843 4.727-39.35 2.1-1.246-10.318"/><path fill="#168709" d="M407.297 297.968l19.783-4.242-1.694-3.038-6.556-36.473"/><path fill="#126a2f" d="M549.757 542.785l-83.252 61.256-138.098 101.89 175.598-112.346"/><path fill="#003411" d="M265.44 52.803L222.097 3.43l-36.295 27.743L165.633-31"/><path fill="#00122f" d="M993.35 566.13l-58.66-117.455-75.673 51.932 100.28-32.818"/><path fill="#a6aaae" d="M893.95 471.158l-26.345-1.912-108.708-15.964 127.233 7.273"/><path fill="#172638" d="M948.435 553.192l-40.624 19.193 43.817-2.24-76.61-63.225"/><path fill="#a7cd8f" d="M569.843 180.743l41.543 4.582-32.666 16.717 2.852 2.812"/><path fill="#088f01" d="M333.61 8.637l38.125 36.753 49.963-42.703L217.42 84.942"/><path fill="#87c292" d="M679.88 43.07l-87.52 45.37 74.186-38.498 17.392 9.457"/><path fill="#3e567c" d="M377.868 324.803L292.12 291.03l-43.72 6.55 41.99 4.068"/><path fill="#cdede4" d="M902.38 162.81l-35.552-67.135 4.246 22.952 25.24-2.282"/><path fill="#081940" d="M810.332 503.94l6.038-1.798-30.36-18.39-8.076-18.553"/><path fill="#7a6c72" d="M1002.31 602.487l-40.508-24.24 35.754-1.324 15 5.767"/><path fill="#3e8c64" d="M918.052 285.232l45.754-6.447-23.317 12.724-49.58-50.095"/><path fill="#d7eaee" d="M222.136 195.844l6.295-58.82-38.073 37.215 16.45 15.163"/><path fill="#81a7bb" d="M302.658 638.952L245.848 713l42.086-95.45 36.813-23.29"/><path fill="#055f1b" d="M839.44 609.292l109.125 102.873-71.054-41.117 9.467-50.218"/><path fill="#00542c" d="M407.216 713l-76.806-52.18L456.818 713l-1.61-79.772"/><path fill="#92c1bb" d="M478.09 641.7l-5.022.197-5.67 6.845-3.654 29.707"/><path fill="#678978" d="M676.618 442.145l14.736-87.657-9.16 38.166-19.362 81.583"/><path fill="#bfc4d0" d="M365.87 303.976L196.66 277.76l325.915 41.06-110.71-.38"/><path fill="#f0f8f8" d="M371.425 183.696l-9.345-15.52-26.367 27.066 13.058 18.252"/><path fill="#5dae55" d="M511.154 563.684l-120.337 7.726 53.19-32.782 8.225 59.922"/><path fill="#b3b1b7" d="M934.466 604.948l-5.34 12.017 9.98 4.776 7.85 3.882"/><path fill="#d3e9de" d="M781.354 101.585l-7.774-45.512-17.018 103.267 26.015-72.773"/><path fill="#1d6f27" d="M716.562 502.733l-47.16 11.203 8.516-15.287 30.747 17.74"/><path fill="#1fa911" d="M167.246 146.14l-91.48-28.068 118.342 56.363-11.296-10.358"/><path fill="#4d565a" d="M913.523 657.237l-27.587-60.393 34.137 37.462-42.355-12.767"/><path fill="#00041f" d="M1055 688.312l-78.516-100.584 37.95 23.948L966 657.56"/><path fill="#d8ede6" d="M142.836 437.006l-28.616 9.97-41.833 3.868 4.033-37.86"/><path fill="#abd642" d="M521.966 524.066l2.316-55.43-116.924 44.25 18.47-26.992"/><path fill="#abd3ca" d="M59.433 392.88l-50.12 4.23 2.8-4.894 72.356-1.857"/><path fill="#0b4c41" d="M206.644 65.975l-.135-12.806 38.172 19.965-80.452 2.896"/><path fill="#c0dbdd" d="M793.305 109.882l-27.275-5.146-29.11-12.14 58.726 9.156"/><path fill="#c1ded1" d="M532.827 555.39l-4.298-13.314 4.01-7.486 8.777 2"/><path fill="#0d3451" d="M63.266 421.62l-29.7-34.586-62.892 51.46L76.64 399.472"/><path fill="#154a51" d="M745.022 569.368l-5.664-5.34 3.9 14.007 23.48 89.983"/><path fill="#e5f8f0" d="M708.916 540.614l2.535 12.143 6.995-7.773 5.707-18.747"/><path fill="#81788c" d="M1023.28 713l-130.46-6.353 105.943 3.723-61.347-71.662"/><path fill="#001c0f" d="M270.06 6.166L264.31 52.87l5.145-6.622 21.79-13.698"/><path fill="#30607b" d="M974.34 79.828l-62.82-7.123 23.53-3.584 65.44 36.47"/><path fill="#a9d72e" d="M408.792 302.778l53.993-35.066 7.053 35.513-16.197-17.77"/><path fill="#bfe3e9" d="M877.006 31.454L866.633-14.56l-11.117 40.027 10.55-8.888"/><path fill="#b7d3a1" d="M641.07 489.252l-2.648 7.158-44.16 13.315 79.424-54.154"/><path fill="#708e8e" d="M234.978 209.76l72.685 18.937 30.302 24.085 23.958 13.898"/><path fill="#005410" d="M278.908 245.375l11.72 7.852-23.23-50.077 8.87-15.01"/><path fill="#003e21" d="M275.752-25.07l79.07 68.522 87.15-2.348L384.8 60.11"/><path fill="#0d5c22" d="M582.395 163.607l9.855-5.315 8.51 8.354-10.704 22.1"/><path fill="#719bb3" d="M315.888 212.73l-1.394-8.53 18.572-12.856 7.587 8.248"/><path fill="#06772d" d="M879.284 130.044l-6.046 4.614-19.977-35.782-19.067 4.313"/><path fill="#058f27" d="M69.054 455.556l5.413-9.262-18.39-14.177-3.037 25.986"/><path fill="#94cd20" d="M509.367 100.947l-48.843 61.91-87.698 49.737 144.332-67.582"/><path fill="#95d3aa" d="M429.08 40.167l-23.488-25.92L420.2 16.86l15.983 15.94"/><path fill="#ddebce" d="M429.827 180.88l9.643-36.537-10.855 12.392-7.944 22.767"/><path fill="#305263" d="M859.99 423.714l-7 57.878 32.81-66.18 11.345 28.46"/><path fill="#040f2c" d="M920.345 603.032l15.372-16.16-105.527-85.76 76.615 70.606"/><path fill="#94d616" d="M636.773 180.92l-75.076-69.75 24.53 8.033 19.3 69.298"/><path fill="#001e2f" d="M925.362 17.53L977.59 3.403l-76.12-34.296 90.65 88.634"/><path fill="#ddefe8" d="M743.997 537.01l-31.732-87.204 6.944 22.036-11.474 7.007"/><path fill="#2e7f3f" d="M633.002 550.182l-8.29 48.532 58.923-2.807-88.27-18.266"/><path fill="#7f9073" d="M921.737 476.886l40.146 32.994.764 1.498 5.354 17.43"/><path fill="#005f05" d="M412.74 218.168l-16.637-46.722 2.815 31.795-10.677 3.185"/><path fill="#005d0c" d="M595.085-4.408l-80.77 70.403 36.38-96.296-66.07 62.882"/><path fill="#117a19" d="M585.623 91.617l53.87 35.407 13.046-3.6-68.816-40.394"/><path fill="#bcc1c5" d="M325.342 285.81l-22.79-26.668-23.394-5.714 63.214 30.157"/><path fill="#2a7247" d="M575.056 76.134l-22.82 8.255-14.06-24.23 30.977 3.064"/><path fill="#a6c2ac" d="M556.83 533.22l11.214-10.445 4.212 33.12-13.357-7.494"/><path fill="#7284ad" d="M251.226 328.583L218.203 348l-23.938 39.525-68.232-61.967"/><path fill="#c7c5d2" d="M824.714 485.914l1.75 44.738-65.567-63.248 68.074 51.556"/><path fill="#869898" d="M173.793 235.015L171.6 291.51l-10.416-7.184-4.506-49.49"/><path fill="#568823" d="M623.42 353.188l-17.616 30.837 3.053 19.205 3.662-14.747"/><path fill="#b0daba" d="M19.967 514.718l-.355 17.388 11.26-54.18-19.856 34.116"/><path fill="#92b2c8" d="M964.328 36.382l40.348 12.102-29.394 41.476 33.55-57.047"/><path fill="#002335" d="M842.75 647.722l-81.773-50.075-8.64 13.015 38.583-26.318"/><path fill="#000e2d" d="M-30.78 166.75l-.22 27.077 167.328 53.37-108.51-154.61"/><path fill="#accfd0" d="M785.483 177.25l6.66-21.626 52.045-12.78-4.88-3.713"/><path fill="#8fcc60" d="M949.98 222.186l-8.62-44.128-40.533 30.664 1.14-27.28"/><path fill="#c4dbd0" d="M534.838 564.206l-19.54 49.367.968-18.957-4.672-1.255"/><path fill="#b8bdb0" d="M895.73 574.913l8.96 26.642 8.212 3.394-2.84-28.985"/><path fill="#d0efe0" d="M808.385 53.643l20.352-26.71 20.83 5.824 13.328-11.492"/><path fill="#f6ffff" d="M759.565 660.984l9.75 18.072-1.448-1.19-13.207 3.414"/><path fill="#03172d" d="M765.054 665.606l16.517-62.044-4.536 62.167 3.15 47.27"/><path fill="#67c838" d="M87.382 81.92l14.966 13.562 8.395-27.784 19.813 5.775"/><path fill="#133a43" d="M119.67 225.793l4.786-23.572-55.424-28.915-47.872 6.175"/><path fill="#299f63" d="M128.984 480.337l-15.295-2.04-15.644-12.908-16.123 43.76"/><path fill="#3d8b34" d="M623.585 542.106l-20.783-32.782 76.12 46.533 2.56.033"/><path fill="#112b39" d="M849.803 540.11l11.433 10.687-23.482.594 45.27-92.88"/><path fill="#001638" d="M867.066 706.152l-73.072-92.74 64.414 23.61-16.75 4.498"/><path fill="#004b18" d="M755.894 51.334L813.566-10.6l-41.382 27.883 6.118 50.052"/><path fill="#85c593" d="M713.022 55.407L709.38 39.92l-36.87 86.028 20.327-75.803"/><path fill="#91e64a" d="M150.66 596.34l-76.377-25.258 13.51-23.896-25.357 24.977"/><path fill="#fbffff" d="M590.316-13.81L537.78-29.235l83.21 45.362-29.755 3.89"/><path fill="#e8f3f2" d="M615.244 571.372l17.106 43.896 26.922 37-56.45-23.68"/><path fill="#848780" d="M851.557 499.58l85.477 64.978-113.86-105.848L856 496.7"/><path fill="#00342d" d="M889.074 42.95l5.154-17.146 64.973-1.55-146.938 93.67"/><path fill="#002139" d="M957.488 474.623l-120.41-40.608 137.35 74.478 17.328-45.912"/><path fill="#9fcf6f" d="M16.85 422.426l43.215 11.225L-31 426.546l24.28 65.405"/><path fill="#7b8f74" d="M888.874 517.792l-8.175 13.94 22.428-19.897 55.776 41.462"/><path fill="#d2e3e5" d="M673.272 351.665l126.517-12.86-60.77 31.16 37.63 9"/><path fill="#5da936" d="M635.342 319.36l-4.678-2.972-9.808-20.79 14.135-5.736"/><path fill="#e0f5ed" d="M553.64 643.36l15.17 60.5 7.102-46.567-8.89-15.4"/><path fill="#88c88d" d="M434.46 634.642l-16.5 33.306-2.324-16.924 19.024 15.72"/><path fill="#1a9419" d="M699.884 64l-10.578 25.526 22.78-21.44 3.907-38.117"/><path fill="#d6e9ec" d="M826.2 568.36l-102.177-80.833 119.387 102.76-43.178 8.242"/><path fill="#a2d138" d="M571.26 186.068l-19.868 47.83-23.202-80.994-24.428 31.864"/><path fill="#2b3552" d="M785.577 430.89L924.265 595.93 779.552 423.212l-57.81-.566"/><path fill="#077314" d="M202.865 108.1L153.8 123.697l65.34-.045 26.417-33.19"/><path fill="#518386" d="M88.723 415.306L-17.41 420.5l119.722-15.69 14.16 22.518"/><path fill="#01481d" d="M560 604.224l41.327 41.605-29.408-16.05-31.735-41.144"/><path fill="#000822" d="M898.98 664.662L987.57 713l-119.084-72.734-13.574-3.058"/><path fill="#037217" d="M139.08 21.368l28.876 60.212-60.207 41.92 81.443-18.364"/><path fill="#005a35" d="M44.864 588.273L-31 554.256l121.39 34.82-3.46 29.105"/><path fill="#12293e" d="M845.847 468.994l36.985 75.45-54.054-13.606 46.36-27.403"/><path fill="#037527" d="M1021.164 190.615l-69.604-37.577 62.572 43.394-83.387 43.52"/><path fill="#64ad77" d="M145.177 58.187l-29.27-27.062-7.667-1.78 32.025 32.103"/><path fill="#8fd0a8" d="M797.73-22.43l-28.4 16.345-27.45 32.762L744.71-31"/><path fill="#0f6f3e" d="M907.135 315.655l27.803 5.92-36.823-35.613 16.672-10.837"/><path fill="#bebac2" d="M699.267 418.29l117.078 30.228 46.298 51.15-69.742-63.59"/><path fill="#d4e5c9" d="M476.04 372.2l-108.502-8.81 81.52-24.818-90.917-92.562"/><path fill="#003d1d" d="M684.196-4.01l-43.76 126.982-4.045-20.085 14.756-55.36"/><path fill="#78f541" d="M73.03 670.547l-11.7 2.336-34.854 7.18 41.02 12.893"/><path fill="#00082b" d="M99.36 251.998l-128.894-32.755 131.295 90.36 15.487-63.83"/><path fill="#d0efed" d="M808.965 95.812l32.88-12.525 5.75-48.526-24.19 73.67"/><path fill="#000323" d="M1002.772 713l-61.43-63.83-63.068-71.066L970.09 713"/><path fill="#04243d" d="M553.872 667.09l-11.525 3.188-47.9 42.722 35.098-115.72"/><path fill="#389426" d="M585.436 84.815l43.256-43.64-76.342 91.273-2.028-14.403"/><path fill="#ccd3e4" d="M329.492 289.56l76.706 45.855-107.472-28.312 97.13 33.457"/><path fill="#00102c" d="M913.56 485.568l61.15 49.636 80.29 35.393-113.757-31.69"/><path fill="#bafd3b" d="M75.672 656.817l50.467-23.247-4.353 10.77L97.5 663.9"/><path fill="#00571f" d="M889.92 82.694l-51.578-15.51 20.31 44.352-54.54 18.39"/><path fill="#cde89a" d="M374.278 366.327l7.06 76.862 24.228-9.863-71.888-65.3"/><path fill="#01570e" d="M289.237 163.916l34.75-14.63-22.12-5.313-55.485 39.957"/><path fill="#19684b" d="M875.284 147.147l-5.202 26.104-13.978-35.12-13.15 37.843"/><path fill="#d2d5dd" d="M744.608 396.28l-40.965 36.48 31.836 15.386-29.486 23.245"/><path fill="#4e5c88" d="M315.386 267.956l74.452 41.137-94.213-63.285 53.53 3.668"/><path fill="#e2f0e0" d="M702.984 478.7l-120.34-52.003 9.498-52.357 48.247 104.416"/><path fill="#3f5576" d="M452.965 330.567L316.202 372.7l-6.063 6.724 1.754-13.552"/><path fill="#e9f4fc" d="M662.91 628.038l1.417 52.2 19.45-106.645 23.296-5.727"/><path fill="#368f23" d="M482.917 268.743l-33.185-2.046-5.426-51.408-1.883 30.015"/><path fill="#e6f9c4" d="M8.578 539.412L20.662 521.1l9.52-2.437-25.736 26.454"/><path fill="#206a2d" d="M644.75 575.9l-39.902-2.912 17.057-9.055 23.45.215"/><path fill="#7acf25" d="M444.965 50.49l45.2-2.657 26.34-21.854-17.964 32.487"/><path fill="#f0fbfd" d="M613.324 623.82l38.97 21.903 56.16-51.243-77.853 59.355"/><path fill="#4cb927" d="M292.327 46.38L234.58 99.36l87.033-49.514 12.944 57.754"/><path fill="#eaf6f4" d="M502.16 324.002l1.787 6.32 14.672 70.196-30.934-50.306"/><path fill="#ddedf4" d="M985.62 331.287l-69.743-44.267L1055 306.102l-19.203-20.194"/><path fill="#eef6fa" d="M507.714 253.874l128.476-5.018-92.426 77.804-1.91-133.975"/><path fill="#c8ecc7" d="M1025.297 338.395L1055 341.42l-44.41-13.03-4.978 7.21"/><path fill="#bcceb4" d="M830.198 545.65l52.012 26.538-22.42-28.542 28.917 19.22"/><path fill="#88b82f" d="M383 280.582l.3-13.05 37.723 3.345-50.588 18.71"/><path fill="#87bf55" d="M578.187 528.06l67.64-3.417-17.393-5.96-30.017 32.58"/><path fill="#d6d2d6" d="M762.548 401.28l8.006-4.776-26.106-8.137 18.458 14.812"/><path fill="#154e26" d="M274.587 160.608l10.383-2.605-40.74 41.43 32.3-59.306"/><path fill="#c0dee3" d="M78.213 391.908l-1.04 2.03-36.505.836 37.737-9.754"/><path fill="#f7fff4" d="M1043.818 409.54l-26.858-22.106-11.168 7.098 8.536 7.312"/><path fill="#00211e" d="M811.83 675.124l9.526-4.175L990.736 713H803.954"/><path fill="#c5eab2" d="M987.55 195.374l11.98-62.008 19.746-8.02-29.697 68.284"/><path fill="#043b57" d="M65 352.282l-87.226 27.074 107.47 10.687 34.56-6.538"/><path fill="#cbdcec" d="M315.097 619.275l64.995-112.558-9.016 54.458-31.88 31.912"/><path fill="#d8f4db" d="M978.836 449.332l-21.45 7.844-8.5 6.657 47.53-5.25"/><path fill="#208f0c" d="M495.173 99.1l152.398 27.924L539.328 98.61 525.7 121.914"/><path fill="#c8e7cc" d="M224.228 151.278l-18.488-35.472-2.467 8.79 67.105 22.1"/><path fill="#00281c" d="M796.088 106.776L783.4 89.81l22.42-1.962-4.635 22.17"/><path fill="#088616" d="M1055 189.158l-35.252 18.72L973.495 278l20.354-13.235"/><path fill="#e9f4fd" d="M851.2 262.043l-83.96-55.722 87.02 25.286-26.033 68.873"/><path fill="#e7f1fa" d="M486.642 178.014l41.786 103.484-56.58-53.886 24.268-37.12"/><path fill="#dfecef" d="M690.01 199.046l10.183 58.035-76.866-45.957 81.192 6.52"/><path fill="#bcd190" d="M598.573 143.843l-28.387-13.13 15.886 20.182 13.395-13.403"/><path fill="#3e6755" d="M84.958 239.184l31.07 1.134-67.924-16.862L71.17 251.81"/><path fill="#004112" d="M289.506 72.662l38.34-15.15-47.97 49.383 10.646-8.73"/><path fill="#daf1f6" d="M664.092 680.927l45.802-28.62 23.47 7.368 4.512-18.62"/><path fill="#086c22" d="M796.933 48.765L795.88-31l15.57 112.273 25.68-20.922"/><path fill="#eef7fd" d="M1013.942 348.62l-96.55 108.052 23.07-12.155-92.814-135.314"/><path fill="#01462e" d="M422.214 15.74l-62.396 51.586-41.162-12.075 98.154-19.147"/><path fill="#168404" d="M502.438 176.448l15.765-20.505-3.954-6.667-39.542 21.298"/><path fill="#a9d4a4" d="M400.643 662.544l-3.342-8.042-4.786-9.988L407.1 622.33"/><path fill="#d8e9e0" d="M647.097 575.308l-8.92-29.753 58.416 26.006-29.343-7.483"/><path fill="#678181" d="M98.01 332.2l-33.55-6.7-11.898-16.475 74.177 15.187"/><path fill="#9ccd8b" d="M666.424 285.46l-51.84-11.76-5.252-13.673 58.046 21.43"/><path fill="#99a69b" d="M805.176 520.416l17.036 21.21 42.804 42.78-12.896-22.545"/><path fill="#004806" d="M266.933 115.15l-32.02-11.07 50.3 36.99-17.73-44.39"/><path fill="#38951b" d="M674.355 483.92l15.6-7.624 9.825 31.168 14.513-8.847"/><path fill="#06870d" d="M440.672-31l-17.98 123.903-62.14-.567L568.987-27.278"/><path fill="#cde3e9" d="M578.248 598.468L561.4 567.235l26.082 10.685 11.56 40.294"/><path fill="#def3e7" d="M1012.744 283.016L1055 273.32v59.99l-42.44-94.656"/><path fill="#006a00" d="M439.535 186.226l16.15 20.914-6.692 1.984 9.783-19.33"/><path fill="#77b721" d="M479.1 480.45l22.463 118.506-9.686-143.102 30.34 2.53"/><path fill="#004a25" d="M35.936 515.753l3.453 74.822-8.514-101.002 17.23-23.458"/><path fill="#9ae246" d="M273.376 68.218l17.216-1.17-29.796 29.97L263.4 81.76"/><path fill="#7db287" d="M713.223 147.523L700.99 119.98l-8.654 6.558 33.607 13.896"/><path fill="#fff" d="M242.777 194.087l8.068 10.707 8.687 8.565-.4-11.51"/><path fill="#a4ec60" d="M253.173 156.332l-14.51-29 8.95-15.504 8.68 18.03"/><path fill="#5d6871" d="M956.42 546.826l-2.878-9.06 60.882 48.225-30.937-15.115"/><path fill="#387735" d="M478.33 178.157l15.498 21.204-5.77 4.757-13.056-14.626"/><path fill="#b6ae89" d="M913.785 545.234l2.372 14.97 12.263.33 5.136-5.838"/><path fill="#216d2d" d="M698.295 496.025l17.6-76.904-13.055 86.213 20.604-6.46"/><path fill="#88bcb8" d="M651.804 618.87l-11.57 44.38 33.414 30.615-36.814-68.635"/><path fill="#2d7a2a" d="M650.51 520.46l-87.678 4.35-58.225 13.08 48.714-18.272"/><path fill="#c0e669" d="M459.773 423.445l25.24 83.508-6.772-70.123-13.18 10.08"/><path fill="#2d6d58" d="M656.088 579.716l28.63-11.42 65.75-37.166-51.44 37.488"/><path fill="#041d47" d="M236.552 224.573l12.66-23.56-80.62-8.616-74.573 37.047"/><path fill="#a8dc5e" d="M342.134 168.225l41.076-20.292-33.52-.516-51.292-27.938"/><path fill="#225662" d="M925.616 441.857l6.67 10.678 103.985 79.905 9.804-6.594"/><path fill="#bae950" d="M475.828 218.98L407.42 208.95l22-6.356-2.982 1.117"/><path fill="#478944" d="M711.912 260.532l10.215-59.732-37.673-17.72 18.893-11.636"/><path fill="#f1feff" d="M461.1 340.33l39.718 64.64-43.092-6.115 19.557-54.036"/><path fill="#003620" d="M201.084 153.063l-19.69 9.465-18.156-34.347 9.575-1.055"/><path fill="#438a58" d="M787.906 166.622l-49-7.452 1.6-7.136-2.954-2.227"/><path fill="#60ac84" d="M982.59 256.745l55.728 56.152-33.783-115.956 40.517 140.232"/><path fill="#e9f0f6" d="M709.385 141.076l-56.41-48.612 17.907-6.474 18.345 71.083"/><path fill="#51953c" d="M635.977 441.596L666 419.33l-14.64 1.144-6.638 27.357"/><path fill="#2f7261" d="M717.33 621.206l23.35 4.384-22.025 23.91 7.706-86.263"/><path fill="#dbecdc" d="M412.337 400.586L350.07 461.69l89.466-68.647-112.15-13.814"/><path fill="#bacfa8" d="M446.968 286.792l-70.818 63.426 73.612-53.025-58.785-80.565"/><path fill="#005728" d="M823.556 6.73l39.31 15.285-11.067-11.35 2.023 27.412"/><path fill="#bce7d4" d="M613.304 8.107l13.13 34.246-16.328-8.74 14.46-25.863"/><path fill="#89d080" d="M181.94 108.897l19-21.52-20.247 41.332 5.506-4.147"/><path fill="#002f23" d="M789.002 626.363l-19.13 2.65-20.095.448 33.366-11.452"/><path fill="#e5f5ff" d="M790.564 673.207l3.03-28.682-.788 65.012 88.39 3.463"/><path fill="#287936" d="M326.09 94.46l2.452 88.197-31.197 15.85 33.878-35.578"/><path fill="#0c4d37" d="M29.444 402.18L6.94 491.145l15.893 5.787-18.668-80.28"/><path fill="#4eb827" d="M504.59 558.41l-21.185 52.402-77.45-.33 65.224 18.33"/><path fill="#11274b" d="M857.584 454.573L887.7 489.48l-83.026-73.68-5.21-12.57"/><path fill="#d3e8e2" d="M702.042 122.99l36.867-32.316-32.764 6.59 62.468 60.053"/><path fill="#e5f3f3" d="M736.85 623.81l3.205-45.998-26.006 40.877 7.018-19.418"/><path fill="#2f5a83" d="M135.473 377.586l57.256-1.33-25.55-25.155-89.812-2.628"/><path fill="#e8f4f3" d="M303.222 605.14l138.546-137.356-22.402-30.728-14.266-11.71"/><path fill="#a5cd60" d="M457.938 490.205l112.245-16.48 52.27-11.516-12.205-4.792"/><path fill="#9795a6" d="M642.474 350.08L605.9 327.253l34.543 10.784 58.278 18.366"/><path fill="#004f15" d="M109.674 50.774l-23.34 26.384 9.562.533 35.908-22.205"/><path fill="#388b3c" d="M726.805 476.213l25.618 25.605-9.398-18.183-45.386-28.012"/><path fill="#032941" d="M971.562 39.11l14.26 37.11 5.56-42.61-7.645 20.91"/><path fill="#03303a" d="M888.483 109.723l19.318 16.222-1.944-49.775 11.087 18.354"/><path fill="#e7fcf5" d="M688.735 445.96l18.096 6.68 1.432-21.677-33.146 1.746"/><path fill="#247846" d="M747.554 123.506l63.216 28.028-46.075-14.472 30.287 50.943"/><path fill="#405984" d="M425.078 321.03l-17.545 9.48-25.88-20.765 62.402 30.85"/><path fill="#2a435c" d="M956.175 614.34l-62.462-75.02 105.144 92.847-14.21.82"/><path fill="#c4d4e1" d="M154.527 377.17l84.45 13.605-87.26-5.57-51.924-7.357"/><path fill="#9fca68" d="M499.13 199.99l-8.115-43.64 25.626 78.77 7.884-15.947"/><path fill="#e5f0fb" d="M654.16 618.44l12.824 62.807 56.14-8.77-60.155-3.66"/><path fill="#08302f" d="M824.926 551.24l-15.62 6.738 37.477 17.086-11.677-22.156"/><path fill="#e3f2f1" d="M918.273 399.483l-45.216 28.657-168.915-83.506 151.7 78.808"/><path fill="#deeee4" d="M866.81 180.172l22.754-23.972 59.595 35.624-99.143-32.355"/></g></svg>