<svg version="1.1" viewBox="0 0 1024 682" width="1024" height="682" xmlns="http://www.w3.org/2000/svg">
  <g fill-opacity=".5">
    <path fill="#003e1a" d="M170 168l10 5-14-54 31 32" />
    <path fill="#baf38f" d="M344 64l-16-2 1 16 9 1" />
    <path fill="#bdbdc7" d="M724 376l31 40 57 15-56-21" />
    <path fill="#e1f2f6" d="M70 447l46 4-6-33 32-6" />
    <path fill="#22782e" d="M706 94l-4 21 19 1-66-61" />
    <path fill="#002d32" d="M909 127l-34-38 37 20-6-30" />
    <path fill="#0d3f35" d="M782 22l5-16-34-7 83-28" />
    <path fill="#1ed83c" d="M132 38l1-21 18 18-15 3" />
    <path fill="#16ac01" d="M514 29l-40 20 15-16-24-64" />
    <path fill="#1d3565" d="M325 270l-15-23 35 32-7 2" />
    <path fill="#53a475" d="M1018 304l37 32-85-88 52 49" />
    <path fill="#9bbc84" d="M650 308l-13 50 52-54-29 50" />
    <path fill="#022433" d="M767 593l66 25-43-2-2 1" />
    <path fill="#d7e4d1" d="M864 492l5-4-12-16 6 16" />
    <path fill="#479a27" d="M1005 464l-15-12-16-7 48 9" />
    <path fill="#00103b" d="M128 166l54 39 31 4-15-30" />
    <path fill="#aace9b" d="M567 343l101 82-46 8 18-32" />
    <path fill="#cde1bc" d="M582 183l5 2v6l-20-3" />
    <path fill="#54af4b" d="M306 212l-11-51 30 13-40-16" />
    <path fill="#b2d6a7" d="M711 486l-20-13-11-33-24-18" />
    <path fill="#17735a" d="M958 450h27l-1-11-46 26" />
    <path fill="#a4aaa5" d="M869 559l41 48 6-13-19 3" />
    <path fill="#bfdbde" d="M964 59l1-1 8-7 6 23" />
    <path fill="#dcf4e5" d="M566 642l-3 26 14 23-24-18" />
    <path fill="#00300f" d="M174-31l61 53-101-53 22 66" />
    <path fill="#478457" d="M699 205l3 6-30-16-3 23" />
    <path fill="#a3cbc4" d="M652 674l-38-15 44 5 41-67" />
    <path fill="#eaf5f6" d="M458 353l-56 58v5l22 1" />
    <path fill="#b6c2a8" d="M352 293l-6-23 73 31-100-23" />
    <path fill="#e1eef1" d="M783 77l-90 93-9-38 39 37" />
    <path fill="#f2fbfc" d="M146 641l-17-72 126 144-153-46" />
    <path fill="#0d6a24" d="M739 151l47 10 98-73-139 72" />
    <path fill="#095a2a" d="M635 6l-2 47-2-7-7-23" />
    <path fill="#cfe4f2" d="M963 40l-41 78 29-22-12-32" />
    <path fill="#2e7d45" d="M322 108l-36-7 42 32 10 95" />
    <path fill="#667776" d="M451 330l-25-16 41 19-14 20" />
    <path fill="#c1cddc" d="M263 331l-13 14 49 22 27 19" />
    <path fill="#1a914c" d="M997 367l19 11-52 47 35-14" />
    <path fill="#eff7fd" d="M562 369l48 24-123-168 129 49" />
    <path fill="#d5eae0" d="M901 273l-7 128 8-136 6 8" />
    <path fill="#009e00" d="M253 59l80-25-9 16-1-32" />
    <path fill="#1a7746" d="M633 65l-1 43 5-12V63" />
    <path fill="#70837a" d="M943 580l-12 4-7-6-5-9" />
    <path fill="#156531" d="M967 239l49 18-42-1-87 12" />
    <path fill="#033720" d="M151 33l52-16-33-31 12 31" />
    <path fill="#052c30" d="M746 651l34-9-67 27 19 2" />
    <path fill="#196f31" d="M754 71l-14 47-7-20 67-66" />
    <path fill="#494a62" d="M889 607l11 3v2l67 101" />
    <path fill="#2ba707" d="M364 109l-13 28 22-15 48 3" />
    <path fill="#237d6b" d="M818 117l-33-9-10 1 23 14" />
    <path fill="#054a32" d="M580 23l-32 9 68-10 27-5" />
    <path fill="#98d444" d="M514 138l-5-34 12-4-33 14" />
    <path fill="#237a3d" d="M443 609l1-11 87-23-54 30" />
    <path fill="#cfe879" d="M8 440l-39 43 46-21-46-57" />
    <path fill="#f0f8fb" d="M951 97l-1-20-28 47 90 8" />
    <path fill="#ecffff" d="M104 8l16-25-50-14 30 37" />
    <path fill="#4a953d" d="M498 630l5-66-45-10 54 52" />
    <path fill="#dfefeb" d="M391 676l-66 37 56-32 7 32" />
    <path fill="#043826" d="M555 607l-17-19 74 66-14-4" />
    <path fill="#e2f0ec" d="M796 246l18-43-67 40-20-23" />
    <path fill="#3d964f" d="M169 51h9l16-22 25 15" />
    <path fill="#359552" d="M665 58l18-45 5-19 25-25" />
    <path fill="#69778a" d="M262 259l97 42 50-3-71-9" />
    <path fill="#031834" d="M863 561l65 71-101-76 39 43" />
    <path fill="#071f4f" d="M768 403l4 10 4 4-15-8" />
    <path fill="#3aa540" d="M404 628l1 36-8-3 42-46" />
    <path fill="#006411" d="M740 25l-96 22 159-9-63 30" />
    <path fill="#61cc1d" d="M72 41l15-18L72-3l-4 28" />
    <path fill="#94e73b" d="M111 638l-26-1 45-63-26 20" />
    <path fill="#a9acb6" d="M301 294l-86-22-39 5 95 17" />
    <path fill="#d5efcf" d="M49 537l10 9 11-34 8-4" />
    <path fill="#006628" d="M989 166l-19 17-6-3-1-24" />
    <path fill="#319c3a" d="M785 21l26 9 1-56-18 64" />
    <path fill="#2a854a" d="M62 521H48l8 10-78 77" />
    <path fill="#16693b" d="M643 564l-19 34 51-4-47-7" />
    <path fill="#004e11" d="M290 97L371-5l-61 93-7-35" />
    <path fill="#0c4d42" d="M118 11l-42 6L89-6l57 67" />
    <path fill="#e4f4e9" d="M366 219l5-36h-17l62 60" />
    <path fill="#a3db40" d="M392 189l15-15-30 18 19 40" />
    <path fill="#edf7fa" d="M701 354l-34-15 59 30 119-115" />
    <path fill="#98ce8f" d="M417 657l7 10-19 1 25-15" />
    <path fill="#69ae1e" d="M575 191l-95-33 124 61-19 6" />
    <path fill="#0a6f1c" d="M412 2l-70 90V60l31 23" />
    <path fill="#4bd024" d="M-31 501l47 9 13-5-60 38" />
    <path fill="#6b92a4" d="M286 651l-23 62-5-41 73-78" />
    <path fill="#2c3c56" d="M830 518l-14-22h-7l-35-26" />
    <path fill="#e0f2f3" d="M83 486l-45-11 63-9-32-6" />
    <path fill="#d0e9c2" d="M307 429l2-21 17-12v47" />
    <path fill="#002b14" d="M290 19h-1l48-7-12-10" />
    <path fill="#5ccf1b" d="M20 69l2 29-30-32-23 41" />
    <path fill="#b3cad4" d="M365 566l12-35-91 124 46-54" />
    <path fill="#33782d" d="M647 431l-13-1 17 11-27-1" />
    <path fill="#41a516" d="M408 296l22-37-24 12 32 36" />
    <path fill="#eff8fd" d="M802 216l10 194 46 13-14-26" />
    <path fill="#a6d7b4" d="M899 166l-40-14 6-9 7 16" />
    <path fill="#cde4e2" d="M884 306l4-19 52 23-8-14" />
    <path fill="#c7d6e1" d="M316 212l-12-5 7-29 9 77" />
    <path fill="#106e09" d="M488 169l9-6 22-2-7-17" />
    <path fill="#00082d" d="M825 713l-25-7 19-33 2-52" />
    <path fill="#004534" d="M-31 657l48 23 35-67-2 60" />
    <path fill="#c8e3db" d="M762 625l1 8-20-77 1-7" />
    <path fill="#feffef" d="M814 54l-3-7 22-17-14 20" />
    <path fill="#19864e" d="M45 463v6l-8 15 44-52" />
    <path fill="#e1eff9" d="M1027-31h-1l-68 57 7-12" />
    <path fill="#a0c489" d="M455 381l-78 6 3 26 18-35" />
    <path fill="#1f5974" d="M115 390l-32 16 1-24 22 46" />
    <path fill="#44778d" d="M1003 100l-25-8-56-27 25 4" />
    <path fill="#9aec5e" d="M120 535l-13 22-21-45 7 27" />
    <path fill="#69cf12" d="M497 73l10-36-44 8 96 47" />
    <path fill="#deeede" d="M368 378l-25 10h69l-22 8" />
    <path fill="#6db68a" d="M892-31L855 5l85-36-24 41" />
    <path fill="#c3d0df" d="M332 190l-8-10 11 78-8-55" />
    <path fill="#176341" d="M859 232l-11 47 48-20h-35" />
    <path fill="#0d2332" d="M891 570l27-31 42 37-47-53" />
    <path fill="#172e3b" d="M864 509l-17-37 15 12-23 80" />
    <path fill="#9ec878" d="M429 481l35 104 1-52-58-21" />
    <path fill="#6a9666" d="M666 460l9-43 4 49-1-11" />
    <path fill="#0e5f2a" d="M209 147l-44 20 43-24 12-122" />
    <path fill="#8aa8b0" d="M766 378l-16-1 1 4 74 34" />
    <path fill="#002249" d="M87 412l-85-9 94-10-6 20" />
    <path fill="#4a9f20" d="M446 223l-5 24 17-10-21-46" />
    <path fill="#5f7a6e" d="M69 312l50 6-37 14-56-32" />
    <path fill="#b6debc" d="M240 136l-69-8 8-3 90 27" />
    <path fill="#0a2d40" d="M500 628l30 85 16-102-48 32" />
    <path fill="#01372f" d="M949 33L835 99l75-79-34-48" />
    <path fill="#a2c6bc" d="M153 58l-20-11 80-12-58 3" />
    <path fill="#176443" d="M935 257l48 5-75-18v6" />
    <path fill="#ddedf1" d="M896 262l-53-76 30 3-20-34" />
    <path fill="#00601a" d="M1011 326l44-33-35 11 35 35" />
    <path fill="#033360" d="M296 713l6-47 59 45-18-77" />
    <path fill="#1d9810" d="M238 111L46 77l149 27 76-32" />
    <path fill="#e8f2f3" d="M612 634l44 12-43-67 16 6" />
    <path fill="#007e19" d="M415 115l67-46-8 19-64 36" />
    <path fill="#bacbd9" d="M155 379l-81 18 70-11 86 10" />
    <path fill="#c8cdd8" d="M328 305v-2l44 1-84-28" />
    <path fill="#45b44e" d="M1019 377l28-34-56-6 64 37" />
    <path fill="#034e26" d="M267 209l19 11-13-36 12-28" />
    <path fill="#d6f0dc" d="M785 79l-25 73 13-90 6 25" />
    <path fill="#656b5f" d="M907 517l90 85-73-80-5-4" />
    <path fill="#d6e6e9" d="M720 578l6 32 15-11-46-25" />
    <path fill="#9fa096" d="M773 500l56 65-90-98 108 91" />
    <path fill="#b3d3b9" d="M596 570l-31-25 33 18 24-4" />
    <path fill="#51cf0b" d="M329 51l-34 6 2-6 11 15" />
    <path fill="#6b7491" d="M241 298l5-35-15 10 59 47" />
    <path fill="#e8f4ef" d="M887 139l62 56-77-32 94-51" />
    <path fill="#dfedf1" d="M993 460l-22-9-10 4-14 6" />
    <path fill="#68778b" d="M927 629l6-11v-12l-12 10" />
    <path fill="#72c054" d="M932 207l23 2-61-4 40-31" />
    <path fill="#364d71" d="M355 311l-10-1-42-10 26 14" />
    <path fill="#486488" d="M150 359l-6 27-11 1 60-107" />
    <path fill="#0b5225" d="M735 549l-35-65 2-28 8 38" />
    <path fill="#d6ecd4" d="M270 146l-55-17-8 51-18-15" />
    <path fill="#f8feff" d="M635 32l3 9 6 2 4-13" />
    <path fill="#52aa35" d="M791 161l-26-8 23 40-77 38" />
    <path fill="#042b47" d="M987 53l12-1-15-9-12 51" />
    <path fill="#bfd8d7" d="M247 196l1-20-9-21 13 55" />
    <path fill="#9dc17e" d="M612 512l22-26 4 7-42 9" />
    <path fill="#bbd9b5" d="M280 178l160 68-152-65-39 33" />
    <path fill="#0e3e39" d="M766 595l-15 28 2-19-12 3" />
    <path fill="#d8e8e7" d="M824 583l-21-42-3 8 59 47" />
    <path fill="#abd9a2" d="M993 183l7 16-15-1 13-40" />
    <path fill="#158805" d="M424 168l-33 29 26-31-3-4" />
    <path fill="#defdca" d="M265-31l-27 46-9-6 55-40" />
    <path fill="#e1f5ee" d="M708 482l6 16 24-10-16-11" />
    <path fill="#acd731" d="M574 184l-33-20 33 7-47 38" />
    <path fill="#147f08" d="M341 147l-19 12-3-17-38 21" />
    <path fill="#597094" d="M368 309l56 15-24 36 8-33" />
    <path fill="#1d6754" d="M834 157l31 2-7-19-16 22" />
    <path fill="#00480e" d="M47 56l-78 17 103-8-59-82" />
    <path fill="#c4e98e" d="M573 122l5 1 29 12-35-2" />
    <path fill="#164545" d="M685 647l22-71-14 13 10 22" />
    <path fill="#357753" d="M249 173v-13l-8-2 48 89" />
    <path fill="#091a36" d="M993 665l-65-83 48 98 79-64" />
    <path fill="#093852" d="M918 75h23l-5-9 7-11" />
    <path fill="#b4d5d6" d="M700 588l10 18-3-24 44-9" />
    <path fill="#005d20" d="M817 60l-16-23 13 47 4-20" />
    <path fill="#d6f2df" d="M185 30l-22 24 20 6-23 14" />
    <path fill="#248822" d="M466 214l-39-17 35-1-31-13" />
    <path fill="#57c142" d="M-12 470l-19 34 40-18 1-21" />
    <path fill="#ebf6f8" d="M844 246v-27l-74-14-19 7" />
    <path fill="#9bced2" d="M900 12l-31-30-19 30 45-23" />
    <path fill="#4c8b86" d="M705 662l15 9-39-5 42-5" />
    <path fill="#2e843e" d="M661 163l-13 15 22-2-6-11" />
    <path fill="#ecf7fe" d="M365 195l-8-18-37 51-22-6" />
    <path fill="#ecf4e9" d="M719 51l16 14-19-2-2-6" />
    <path fill="#c7e6af" d="M657 137l30-17-55 12 5-6" />
    <path fill="#66ad08" d="M618 488l-87 19 4 3 50 15" />
    <path fill="#c4cb0e" d="M421 44l9 3-9 14 2-18" />
    <path fill="#275151" d="M868 581l-44-6 42-10-16 53" />
    <path fill="#127d28" d="M133 23l12 7 43 77-1-11" />
    <path fill="#cbe6e0" d="M707 650l-25 12 12-20 37-15" />
    <path fill="#c8c6bc" d="M843 504l-19 25v1l14-34" />
    <path fill="#35637d" d="M108 387l-54 2 74-19-8 13" />
    <path fill="#00561d" d="M842 121l43-44-38-19 16-15" />
    <path fill="#adda90" d="M978 236l23-9h-18l-19-18" />
    <path fill="#d6e6db" d="M502 245l-11 111-9-84-22-25" />
    <path fill="#1d375f" d="M786 425l33-14-23 6-16-24" />
    <path fill="#bbe0ba" d="M15 538l15-57-17 26 12 11" />
    <path fill="#206c35" d="M583 547l92 4 39-19-16 16" />
    <path fill="#a6cbcb" d="M717 592l31 5-4-16-4 16" />
    <path fill="#bdc5d4" d="M432 340l-107-19 53 5-99-57" />
    <path fill="#abdeb3" d="M600 53l25 30-25-22-13 4" />
    <path fill="#dbebeb" d="M621 466l-8-4 6 62 13-9" />
    <path fill="#2bae39" d="M48 579l90 18-39 10 19-20" />
    <path fill="#38bd15" d="M34 47l-5 10 51-8-7 8" />
    <path fill="#f6fdff" d="M473 195l-14 8 12 18v-4" />
    <path fill="#0e1b2d" d="M938 569l15-37-29 39-8-8" />
    <path fill="#003d0d" d="M278 134l-5-12-36-29-30-18" />
    <path fill="#a4c5ce" d="M876 650l-25-4-2 1 6-6" />
    <path fill="#deecf1" d="M916 97l2-17 17-5 33 41" />
    <path fill="#175330" d="M634 199l-14 19 3-34 8 22" />
    <path fill="#4d8252" d="M573 67l-20-5-12-12 25 53" />
    <path fill="#c1d2df" d="M799 614l21 57-13-24-1 6" />
    <path fill="#001c3b" d="M1019 494l-213-71 217 96-57-35" />
    <path fill="#0a7e0d" d="M615 65V41L482 30l66-16" />
    <path fill="#c9e9dc" d="M607 676l-12-24 9 57 19 4" />
    <path fill="#286466" d="M918 473l57-8-20-5 3-8" />
    <path fill="#496187" d="M269 334l43 22-2-25-82-3" />
    <path fill="#cce5d9" d="M765 24l28-32-27 19-24-17" />
    <path fill="#87cb4f" d="M232 123l-5 6 12-5 37 59" />
    <path fill="#115634" d="M479 628l46-88 15-13-18 6" />
    <path fill="#b7c5d9" d="M222 361l-34 3-3 1 94-2" />
    <path fill="#61ac39" d="M678 481l14-16h-10l30 47" />
    <path fill="#abcd98" d="M786 242l-22 10-17-21 71 30" />
    <path fill="#004e23" d="M860 28l-1-14-37-2 46 11" />
    <path fill="#dceceb" d="M681 524l-59 1 73 13 12-9" />
    <path fill="#6ec36d" d="M80 446l-19 19-60-9 104 3" />
    <path fill="#003f35" d="M36 614l25 9-92 23v63" />
    <path fill="#36557f" d="M261 369l34 6 2-33-2 20" />
    <path fill="#cbe0e1" d="M753 713h-22l43-59-8 7" />
    <path fill="#076d20" d="M774 142l102-62-12 42-38 20" />
    <path fill="#1b6039" d="M316 279l-11-2-10-39-26-12" />
    <path fill="#1a4151" d="M172 199h-54l45 20-29-47" />
    <path fill="#1a6145" d="M687 190l7-18 19-4-16 22" />
    <path fill="#005c1e" d="M905 283l-4 13 10-3 7-18" />
    <path fill="#c3cad3" d="M267 298l63 32 20-14-70-6" />
    <path fill="#cdd5d7" d="M765 442l-22 83-23-12 33 1" />
    <path fill="#ebf7f1" d="M425 433l-45 2 1-22 38 72" />
    <path fill="#e9f7ef" d="M343 383l-29-15 66 46-37 13" />
    <path fill="#054a2f" d="M25 467l-15-15 22-72L8 496" />
    <path fill="#00341c" d="M749 94l-25-12v1l29 4" />
    <path fill="#aadb9b" d="M288 188l19 18-43-16 17 9" />
    <path fill="#3a8a6b" d="M636 656l-17 40 29-48-8 4" />
    <path fill="#002e13" d="M236 31l-31-55 41 61 59-49" />
    <path fill="#008012" d="M475 55l58 18-73-10-39 9" />
    <path fill="#c1ec45" d="M138 599l-21 16-15-31 30 42" />
    <path fill="#226444" d="M708 581l-1-45-8-12 12 31" />
    <path fill="#021f38" d="M937 457l-46 33 8-22 38-20" />
    <path fill="#004823" d="M104 90l47-27 14-28-7 31" />
    <path fill="#a3ceb4" d="M180 114l14-3 38 40-41-45" />
    <path fill="#00272e" d="M396 54l15 2-4-31-17 4" />
    <path fill="#507bab" d="M1001 76l-34-62 18-3-6 21" />
    <path fill="#8cc7a7" d="M407 646l-16-8-2-1 11 24" />
    <path fill="#00571b" d="M656 594l2 12 6-12h-5" />
    <path fill="#7b899c" d="M422 539l-45-7 33-22 18 9" />
    <path fill="#119621" d="M-25 496l44-31 20-34 12 17" />
    <path fill="#9add46" d="M520 90l-10-13 13 23 26-2" />
    <path fill="#1f692c" d="M713 448v13l-14 8 13-31" />
    <path fill="#003f0a" d="M389 14l15-45-79 31-66-28" />
    <path fill="#92d704" d="M557 114l34 4-32 11 17 13" />
    <path fill="#d1e8f2" d="M930 110l78 15-116-26 12-1" />
    <path fill="#4d5564" d="M653 389l3-8-1 1 40 7" />
    <path fill="#002817" d="M658 73l21-52-11-52h3" />
    <path fill="#007014" d="M961 195l-2 36 12-27-20 28" />
    <path fill="#9dc39a" d="M641 542l-9-1 34 44-10-9" />
    <path fill="#007908" d="M481 25l-4 5-80-35 64 55" />
    <path fill="#4c785e" d="M1014 592l41 11v-3l-31 4" />
    <path fill="#006414" d="M993 216l-26-24 24 13 34-20" />
    <path fill="#ade467" d="M330 143l28-6-43 7-21-30" />
    <path fill="#179e3d" d="M1 576l14-2 3 6 28 36" />
    <path fill="#88c013" d="M411 275l-24-1-16 19 41-25" />
    <path fill="#65a84a" d="M414 555l112-45-92 47-18 33" />
    <path fill="#1bb42f" d="M133 98l-23 16 6-50-14 29" />
    <path fill="#8ca090" d="M272 259l15-12 8 18 57-5" />
    <path fill="#9fca70" d="M633 316h8l-23 18-10-12" />
    <path fill="#56666f" d="M869 596l25 43-14-41-61-4" />
    <path fill="#0f7d47" d="M415 608l-52 36 12 30 13-34" />
    <path fill="#00771a" d="M181 108L95 78l59 42 41-29" />
    <path fill="#000420" d="M131 145L-24 89l145 113 20-82" />
    <path fill="#bdd281" d="M430 171l6-21-53 25 40-31" />
    <path fill="#e4f0fa" d="M957 290l-19 29-21-11 5-19" />
    <path fill="#304459" d="M879 450l-55 48 37-29-26-29" />
    <path fill="#3f9353" d="M376 197l-5-2-11 13 16-31" />
    <path fill="#e3eef5" d="M568 563l-5 11 31 34-12-32" />
    <path fill="#1c6d44" d="M856 242l-6 2h-1l14-16" />
    <path fill="#9cef3e" d="M24 427l14 2-10 10 1 9" />
    <path fill="#e2f4e6" d="M567 653l-3 60-2-74-21 9" />
    <path fill="#303a74" d="M382 282l-8-16-22 2-3 3" />
    <path fill="#b6d570" d="M579 194l28-5-6-20-12 30" />
    <path fill="#00182b" d="M787 660l-21 4 21 47-18-80" />
    <path fill="#5f804b" d="M116 20L91 0 74-31l33 60" />
    <path fill="#002127" d="M883 84l19-12 34-58-43 44" />
    <path fill="#62846d" d="M926 565l-46-36 13 22 37 8" />
    <path fill="#12871c" d="M235 52l28-14 24-23-59 27" />
    <path fill="#727a92" d="M729 418l4 4-28-20 14 19" />
    <path fill="#75ad66" d="M361 260l-12-18-14 29 7-4" />
    <path fill="#22902b" d="M921 187l6 39-13-29 10-7" />
    <path fill="#bce689" d="M275 140l8 21v-14l-26-6" />
    <path fill="#1e3048" d="M1016 596l-81-67 120 112-45-3" />
    <path fill="#001439" d="M68 312l49-25 70 16-147-74" />
    <path fill="#57a11b" d="M595 118l-19 24-42 38 34-14" />
    <path fill="#65ad8d" d="M283 22l14 1-54-54 44 41" />
    <path fill="#21594f" d="M681 631l2 14 15-39-19 39" />
    <path fill="#48bd48" d="M663 86l23-17-6-3-16 5" />
    <path fill="#e3ebf5" d="M637 58l3-5 5 7-7 28" />
    <path fill="#e6f2f1" d="M723 228l-18 45-23 77 75-78" />
    <path fill="#d8eef3" d="M1015 268l-28 3 68 20v15" />
    <path fill="#a7b0c6" d="M194 332l60 7-61 3-12 3" />
    <path fill="#e9f8f0" d="M747 95l-3 2 33 2 9-17" />
    <path fill="#eaf4f3" d="M541 427l-36-39 61-12 9 26" />
    <path fill="#e6f0f2" d="M638 248l20 21 35-53 3-12" />
    <path fill="#e8f4fa" d="M637 459l23-24 2-45 10 56" />
    <path fill="#0e4439" d="M375 119l-25-55 30 75 19 39" />
    <path fill="#cde6e4" d="M849 619l-9-2 26 22-38-16" />
    <path fill="#1f5e43" d="M837 594l30 30-36-14 4-4" />
    <path fill="#31765c" d="M701 128l-16-14 20 9 5-34" />
    <path fill="#177c14" d="M318 184l-34-30 62 15-33-2" />
    <path fill="#b4e263" d="M309 156l43 12-5-54-2 49" />
    <path fill="#9adea4" d="M406 14l3 7 27 16-24-26" />
    <path fill="#13223e" d="M803 450l118 136-119-131-32-19" />
    <path fill="#024826" d="M834 181l11 9-47-1 29 15" />
    <path fill="#376f6e" d="M804 579l33 11-38-19-48-32" />
    <path fill="#658c9d" d="M333 602l61-59-87 100-33 70" />
    <path fill="#b4d7b8" d="M953 165l13 25-4 2-6-1" />
    <path fill="#00743e" d="M95 500l-14-2 31-17-11 14" />
    <path fill="#5e9d4b" d="M376 427l6-29-4 17-24 16" />
    <path fill="#e5f1fc" d="M981 82l54-8-29-23 23 62" />
    <path fill="#75cb8f" d="M359 669h-2l20-11-9 14" />
    <path fill="#3eac00" d="M460 247l-12 36 5 2 10-28" />
    <path fill="#1d5352" d="M720 647l4-5-1-47-7 102" />
    <path fill="#4dc44d" d="M142 153l20-7-14-9-1 10" />
    <path fill="#8dcf1d" d="M634 174l-32-14 1 27h41" />
    <path fill="#a0cc6b" d="M392 428l23 1-58-38 53 8" />
    <path fill="#327655" d="M655 570l28 3 63-39-79 44" />
    <path fill="#bcd4cb" d="M516 583l13 3-12 16-5 41" />
    <path fill="#cde5b4" d="M455 265l-23 14-9-47 21 57" />
    <path fill="#ecf6f9" d="M775 396l22-8 70-84-41-55" />
    <path fill="#93c3bc" d="M42 550l17 1-21-26 26 29" />
    <path fill="#e1ecfb" d="M474 228l19-31 7-7-17 46" />
    <path fill="#47596e" d="M189 260l32 10-72-4-34-6" />
    <path fill="#bbd0db" d="M782 610l-9 9-7-8 10 1" />
    <path fill="#002227" d="M893 19l-13-50h70l-74 42" />
    <path fill="#cbe1f0" d="M981 42l74-30-76 36-1-6" />
    <path fill="#223c68" d="M799 683l1-22-2-23 6 23" />
    <path fill="#006c2b" d="M422 625l45-7-59 95 49-69" />
    <path fill="#4f6ba0" d="M162 351l120 10-37-16-47-2" />
    <path fill="#93c079" d="M641 298l-6 7 40-29-1-11" />
    <path fill="#d7e8ec" d="M650 150l-12 18 85-17-70 10" />
    <path fill="#224b57" d="M771 553l34 14-9-9-56-15" />
    <path fill="#589e44" d="M587 401l-3-12-4-2-7 12" />
    <path fill="#296f44" d="M606 658l-50-76 39 38-57-76" />
    <path fill="#eaf3fc" d="M720 674l-48 4-6-9-11-4" />
    <path fill="#7fa5ac" d="M29 419l17-6 122-7-73 2" />
    <path fill="#cfd2db" d="M682 443l55-20 60 78-71-72" />
    <path fill="#15871a" d="M922 235l20-47-4 3-21 42" />
    <path fill="#005f18" d="M1014 259l-15-8-57-10 63 24" />
    <path fill="#63b259" d="M214 101l9-16-4 34 6 37" />
    <path fill="#000d27" d="M919 581l-44-35-36-56 11 9" />
    <path fill="#37836f" d="M960 321l-17 2 8-12-4-11" />
    <path fill="#a3d0c0" d="M834 17l16 20 35 2-57-4" />
    <path fill="#80899d" d="M492 306l-44-6-3 11 29-16" />
    <path fill="#8ebca1" d="M838 195l-13 13 34 15-53-10" />
    <path fill="#004f10" d="M92 124l-34-17 66 22-27-40" />
    <path fill="#758a78" d="M865 572l-37-37 53 72-25-39" />
    <path fill="#7ba194" d="M984 489l15 5-14 7-23-166" />
    <path fill="#28781a" d="M569 518l-18 5 1 46-28-6" />
    <path fill="#2c8f14" d="M635 126l-21-17-28-17 16-3" />
    <path fill="#defcde" d="M1020 430l18 19 17 52-18-92" />
    <path fill="#26af02" d="M50 71L7 95l80-41-19 44" />
    <path fill="#356a6b" d="M815 558l-8 9-30-15 12 13" />
    <path fill="#72a692" d="M568 659l14 18 43-14-58 12" />
    <path fill="#8bd5b5" d="M72 481l-15 5 2-13-9 25" />
    <path fill="#ab9fa9" d="M958 657l9 5 24 46v5" />
    <path fill="#deecef" d="M240 136l-34 12 22 44-26-7" />
    <path fill="#0a7b0a" d="M294 108l57-7-61 17 8 15" />
    <path fill="#ace25a" d="M1055 486l-63-22-6-8 69 9" />
    <path fill="#b9dca4" d="M458 230l1-21-31 5 25 6" />
    <path fill="#419142" d="M375 80l-12 28-53 17-6 14" />
    <path fill="#47627b" d="M338 379l6-30 13-2 19-13" />
    <path fill="#279603" d="M410 111l-19 16 17-63-30 6" />
    <path fill="#003d16" d="M558-4l-28 53-3-56 59 44" />
    <path fill="#c0ddd3" d="M878 50l-23 14 12-2-8-21" />
    <path fill="#caea66" d="M455 154l3 39 12 1 1-4" />
    <path fill="#1b7d48" d="M876 309l9-10-15-17 1 23" />
    <path fill="#002f14" d="M367 93l20 1 6 18-48-35" />
    <path fill="#e8f2f8" d="M880 250l11-44h-56l14-19" />
    <path fill="#8ec562" d="M517 567l12-34 1 30 1 18" />
    <path fill="#5fb847" d="M703 51l10-35-3 40 29-14" />
    <path fill="#72c06b" d="M457 639l6-3 10-17-3-1" />
    <path fill="#7cc390" d="M1030 198l-19 4-3 3-1 11" />
    <path fill="#69d027" d="M260 47l11 4 3 52-19-51" />
    <path fill="#e2eaec" d="M532 121l4 14 12 6-5-17" />
    <path fill="#a3ca7a" d="M551 465l-9 22-30-51 11 36" />
    <path fill="#deebef" d="M732 166l-21-79 12 25 30 27" />
    <path fill="#1b4c45" d="M722 553l14 16-1-38-6 48" />
    <path fill="#014812" d="M284 167l-13 24 2-16-5-12" />
    <path fill="#0e7b0f" d="M367 135l-25-41 23 68-5 2" />
    <path fill="#bfc6df" d="M321 271l24 16-5-2-28-5" />
    <path fill="#98cc94" d="M356 614l-31-2 21 14 1-5" />
    <path fill="#b9e56f" d="M286 121l7 12 19-9-24 26" />
    <path fill="#6ce715" d="M55 16l-2-47L75 9l3-35" />
    <path fill="#004819" d="M183 133l32-23-29 10 34-53" />
    <path fill="#0f2333" d="M850 586l7-8-50-46-22-22" />
    <path fill="#40a35c" d="M942 124l6 16 7 19-2 52" />
    <path fill="#b2cfc7" d="M737 589l-29 35 21-37v-50" />
    <path fill="#83c3aa" d="M988 301l58 56-49-48 3-38" />
    <path fill="#eef7fb" d="M681 647l-34 13 20-62 17 65" />
    <path fill="#185e43" d="M592 648l-26 40 47-57-5 1" />
    <path fill="#4ebc06" d="M440 68l29 38-25-13 28-22" />
    <path fill="#0a721a" d="M785 156l10 2-37 24 7-15" />
    <path fill="#5bae07" d="M504 112l-14 34-19-48-10 38" />
    <path fill="#00314b" d="M-31 362l126 21 15-24L7 388" />
    <path fill="#eaf8f6" d="M169 142l-5-11-9 1 12 10" />
    <path fill="#e6f0f5" d="M731 110l62 22-19-33-13 7" />
    <path fill="#c0dfe3" d="M687 62l10-1 5 4-11 3" />
    <path fill="#4cb70d" d="M88 116l30 21 9 6-20-6" />
    <path fill="#000b2c" d="M5 269l-28 27 50 5 33-14" />
    <path fill="#e6f2f4" d="M630 100l-12 2 6-15-20-26" />
    <path fill="#9fd628" d="M480 154l-37-36 89 69-21-13" />
    <path fill="#22797c" d="M921 126l5-19-10 8v3" />
    <path fill="#e5f5f4" d="M704 552l16-17 2-4 1 13" />
    <path fill="#1f6b2b" d="M292 157l32 41 1-21-16 2" />
    <path fill="#89db4f" d="M152 581H70l16-38-18 34" />
    <path fill="#a7d3c0" d="M732 90l-13 9 27 9-5 23" />
    <path fill="#053f34" d="M38 488l-14-21 25 21-80 22" />
    <path fill="#14444b" d="M749 666l-8-21-12 31-20-22" />
    <path fill="#778b7b" d="M968 529l-20-26 16 5-5 20" />
    <path fill="#d0f0d2" d="M910 231l2-39-9 55 11-12" />
    <path fill="#0c1637" d="M1006 615l-46-32 45-68-50 55" />
    <path fill="#9fd3b4" d="M416 652l21 13-5-14-7 8" />
    <path fill="#6cad21" d="M508 460l-27 47 15-78-17 15" />
    <path fill="#388247" d="M611 481h-20l-14 2 6-19" />
    <path fill="#167948" d="M436 0l-34 45h37l-35-12" />
    <path fill="#deeafc" d="M793 673l43 22-37-8-2 26" />
    <path fill="#1a484a" d="M793 647l-30-86 32 27-10 3" />
    <path fill="#afcad1" d="M39 394l23 2 19-8H56" />
    <path fill="#73a85e" d="M472 234l17 9-20 3 43-127" />
    <path fill="#9dd53b" d="M525 419l-21 22-29-32 65 30" />
    <path fill="#032331" d="M661 49l-30 51 23-12h-6" />
    <path fill="#13403c" d="M641 28l-22-9 37-6-11-3" />
    <path fill="#c5d4aa" d="M542 402l-20 16-24 10 15-22" />
    <path fill="#58ae86" d="M977 395l-10 92 8-96 30-3" />
    <path fill="#02372a" d="M778 635l-4-21-16 17 30-10" />
    <path fill="#d4e6e3" d="M747 277l-74 25-12 44-11-47" />
    <path fill="#70a14d" d="M621 397l7 12-13 5 33-41" />
    <path fill="#e5f3f0" d="M376 446l82-10 2 17-38-4" />
    <path fill="#d0ef75" d="M140 598l-31-13 19-8 8 65" />
    <path fill="#5e6f8b" d="M207 317l-4 18 17-58-21 34" />
    <path fill="#001042" d="M274 274l1 5-170-112 105 87" />
    <path fill="#5c808f" d="M486 195l16-7-13 13-18 24" />
    <path fill="#649660" d="M426 435h29l-17-8-1 4" />
    <path fill="#bdbcbe" d="M856 474l-29-38 2 20-63-27" />
    <path fill="#3d6c7e" d="M942 79l73-36-78 39-21 4" />
    <path fill="#005110" d="M406 203l2 14-3-5-18-7" />
    <path fill="#caeadb" d="M86 491l-40-36 26 38 23-13" />
    <path fill="#048932" d="M91 568l-21 71 3 11 34-116" />
    <path fill="#cfdfe8" d="M788 169l26 19-18-31h-1" />
    <path fill="#164053" d="M889 415l-3 41-20-2 20-36" />
    <path fill="#bbc3d1" d="M280 322l-53 2-4-2-14-26" />
    <path fill="#ebf4f9" d="M741 123l-41 7 61 19-5 10" />
    <path fill="#97c0b3" d="M868 391l-16-17 41 19-10-21" />
    <path fill="#000b2a" d="M1055 611L877 483l68 55 79 16" />
    <path fill="#cde3ce" d="M619 247l31 56-55-71-47 7" />
    <path fill="#e5f2ef" d="M448 259l-8 6-46-31 2-11" />
    <path fill="#326649" d="M681 143l6 7-63 1 46 4" />
    <path fill="#666b88" d="M683 373l35-6 1 17-17-26" />
    <path fill="#5d6c8f" d="M449 487l-18 6 1-7 10-7" />
    <path fill="#005d18" d="M759 37l30 39-7 24 30-5" />
    <path fill="#377f3e" d="M673 540l-36 4 11 4 24 8" />
    <path fill="#39ae4b" d="M224 18l-44 27 16-13 31-3" />
    <path fill="#004911" d="M220 115l12-56-3 50-66 13" />
    <path fill="#78ba7a" d="M739 66l-26 13 34-11-4 1" />
    <path fill="#004e1a" d="M851 32L827 9l24 11 3-51" />
    <path fill="#19772e" d="M501 441l-5-1-18-1 13-7" />
    <path fill="#abccdf" d="M333 76l-5 4 18 1 3-3" />
    <path fill="#075936" d="M679-31L617 6 550-9l64 2" />
    <path fill="#8ac7a1" d="M999 345l-20-31-5 8 35 11" />
    <path fill="#285e6c" d="M958 98l1-29-14-8 19-12" />
    <path fill="#67a564" d="M628 234l10 26 5-17-62 4" />
    <path fill="#bfd6b6" d="M-1 549l26-32 1 17 4-17" />
    <path fill="#02830f" d="M773 83l-13-39v-4L715 5" />
    <path fill="#c7c5d5" d="M746 422l11-17-5-14 12 7" />
    <path fill="#90b343" d="M623 354l-13 3 30 27 1 4" />
    <path fill="#bab3c4" d="M722 380l-56-29 34 22 9 17" />
    <path fill="#bed6d2" d="M279 219l1 9 13-7 130 15" />
    <path fill="#b8da5c" d="M1002 450l-20 17 26-37-3 15" />
    <path fill="#9cd281" d="M482 103l37-10-33-3 1 6" />
    <path fill="#317e42" d="M628 249l22-8-27-25 11 18" />
    <path fill="#127f21" d="M567 65l-12 22-8-9-3-11" />
    <path fill="#61676c" d="M832 453l83 87-95-99-17 2" />
    <path fill="#061c3c" d="M837 668l3-36 19 7-39 1" />
    <path fill="#cce5c6" d="M242 177l3 14 11-43-1 26" />
    <path fill="#000f0f" d="M342-31l-36 53 16-4 12-49" />
    <path fill="#bdc5d0" d="M232 280l4-2 28 17 43-9" />
    <path fill="#cbc9ca" d="M846 467l-26-18-52-17 6-2" />
    <path fill="#ebf7f8" d="M912 348l112-12-7-9-122 88" />
    <path fill="#6a7589" d="M764 447l-16-12 76 34-71-27" />
    <path fill="#79cd11" d="M562 94l-15-10-22-31 10 46" />
  </g>
</svg>