<svg version="1.1" viewBox="0 0 1024 682" width="1024" height="682" xmlns="http://www.w3.org/2000/svg">
  <g fill-opacity=".5">
    <path fill="#e8d1b7" d="M421 165l-18-55 75 2-44 53" />
    <path fill="#f62722" d="M514 421l10-53 5 27-52 47" />
    <path fill="#fffff8" d="M1047 635l-31 18-2 12 22-6" />
    <path fill="#f8bc57" d="M301 355l-27-6-8 13-22-19" />
    <path fill="#281400" d="M222 184l45 1-16-18-55 24" />
    <path fill="#f9e8a6" d="M506 236l18 5-29-2-51-19" />
    <path fill="#f8e38e" d="M406 401l-80-21-19 8 80 23" />
    <path fill="#e6a347" d="M226 681l-69-168 157 145 344 55" />
    <path fill="#ffffaf" d="M428 472l-4-11-4-43 14 4" />
    <path fill="#f8e078" d="M857 422l15-292-67 17-45 64" />
    <path fill="#f9d8d7" d="M576 366l70 128-57-129-25-84" />
    <path fill="#c0120f" d="M236 247l-61 77-21-120 120-20" />
    <path fill="#d50915" d="M755 170l27-4 8-50-37-26" />
    <path fill="#fdaf5b" d="M896 91l24-59-101 78 14 16" />
    <path fill="#fdf4b4" d="M646 330l-12-96-20 55-4 119" />
    <path fill="#feffcc" d="M548 346l-19 13 2 101 18 42" />
    <path fill="#ffaf4c" d="M955 653l26 59 17-105-42-7" />
    <path fill="#f5190e" d="M344 416l-64-33 105 28 76 9" />
    <path fill="#efb145" d="M296 132l-31 182 1-92 5-29" />
    <path fill="#994f21" d="M27 239L3 348l-23-114 119-21" />
    <path fill="#9c451d" d="M812 121l-12 22 87-33 13 22" />
    <path fill="#fc100d" d="M723 121l-58-7 7-31 57 23" />
    <path fill="#fcf2bb" d="M461 171l22 58-94 98-9-13" />
    <path fill="#f73426" d="M570 227l-12 120-13-107 41 105" />
    <path fill="#fff777" d="M52 229l20 29 13-10 12-28" />
    <path fill="#fa0008" d="M477 317l-1 7-48-4-3-16" />
    <path fill="#fbffb4" d="M429 380l-3-23-43-9-18 12" />
    <path fill="#e0903e" d="M836 713l-83-34 36-25 175-120" />
    <path fill="#faf2a4" d="M666 248l69-89 56 289-55 32" />
    <path fill="#fbe45e" d="M847-31l-53 133-23-18 118-57" />
    <path fill="#ffe4b5" d="M552 321l-17-21-1-34 10 21" />
    <path fill="#f01011" d="M554 437l25 24-20-99-10 32" />
    <path fill="#200800" d="M991 300l18 106 46 147-48-279" />
    <path fill="#f01b0d" d="M439 416l11 35-12 15 11-35" />
    <path fill="#d6090c" d="M308 523l-18 55-13-45 5-28" />
    <path fill="#f68233" d="M735 48l23 28-52 76 47-20" />
    <path fill="#f61108" d="M643 237l10-3 49-36-21 26" />
    <path fill="#020000" d="M985 193l-18-16 42-19 9 49" />
    <path fill="#f62d23" d="M557 312l18 25-36-17 34-76" />
    <path fill="#fbb651" d="M679 68l-32 36-7 5 24-7" />
    <path fill="#f7c392" d="M423 412l15 5 38-18 10 9" />
    <path fill="#f9ed9b" d="M487 175l-73 7-145 88 32 60" />
    <path fill="#592011" d="M3 596l-34 14 114 79-3-46" />
    <path fill="#dba74e" d="M1004 410l-89 171 56-268 45 135" />
    <path fill="#ef1711" d="M400 384l-12 52-16-9 27 5" />
    <path fill="#fdf98d" d="M572-23L323 71l45 22 182 5" />
    <path fill="#e97b30" d="M256 389l-43 101 34-25-3-3" />
    <path fill="#6b4633" d="M84 167l45-21-6 30-9 22" />
    <path fill="#fbe8a3" d="M411 356l28 31-19-14-21 12" />
    <path fill="#e12814" d="M525 158l5 28 30-52-3 41" />
    <path fill="#f8b959" d="M268 186l92 9-13-37-55 60" />
    <path fill="#eaf174" d="M629 149l-19 11-3-19 23-5" />
    <path fill="#d7ffe0" d="M234 148l29 1 5 3-1 17" />
    <path fill="#fbf1a6" d="M625 194l20-29-65 57-7-56" />
    <path fill="#fcf9ba" d="M468 464l15-22 46 51-97-96" />
    <path fill="#fd2e1a" d="M496 230l67-20-25-9-4-28" />
    <path fill="#ee1710" d="M611 27l8 62 5-95h49" />
    <path fill="#e7050d" d="M410 584l-25 1-4-61 24-4" />
    <path fill="#ffab7f" d="M636 224l18 12-29 41-53-18" />
    <path fill="#de120f" d="M349 562l-13-36-21 73 19 3" />
    <path fill="#ef2815" d="M285 462l62-35-29 66 21 37" />
    <path fill="#de0d0e" d="M252 530l-24 3 4-61 23 6" />
    <path fill="#f52414" d="M397 481l15-27 8 29-83-16" />
    <path fill="#ffc37c" d="M654 224l-5-10-20-10 53 11" />
    <path fill="#ffdd82" d="M705 182l-20 29-5-19 17-34" />
    <path fill="#f51b1a" d="M587 346l-7 3 32-41-8 21" />
    <path fill="#b74c25" d="M136 94L287-31 147 146l-178 11" />
    <path fill="#dcdf60" d="M244 170l-23 3-2-35 42-13" />
    <path fill="#d98f4d" d="M922 226l-10-8-2-55 71-59" />
    <path fill="#f2d06a" d="M301 492l-81 69 56 24-18-117" />
    <path fill="#cf592b" d="M109 594l74 102 65-4L87 514" />
    <path fill="#8f4420" d="M1016 154l22-148 17 264-36-88" />
    <path fill="#e27b3d" d="M940 579l-6-91 68 96-75 87" />
    <path fill="#fbf5b1" d="M429 352l26 38-4-46-62 35" />
    <path fill="#fedeae" d="M600 346l-73 17-49-30 94 33" />
    <path fill="#fb3e1d" d="M476 248l150 28-100-5-63 8" />
    <path fill="#ffedb5" d="M588 324l-19 3 30 3-6-47" />
    <path fill="#f6b28a" d="M560 101l5 98 13-126-3-88" />
    <path fill="#f7fb97" d="M373 458l-1 15-22-32 11-4" />
    <path fill="#afc0e9" d="M975 215l-17-3 13-48-31 8" />
    <path fill="#f8ca61" d="M325 408l19 12-45-7-3-15" />
    <path fill="#fdf078" d="M652 73l-27-15 11-42 113 42" />
    <path fill="#fffd6c" d="M910 112l-4-55 35-31 33 90" />
    <path fill="#f33224" d="M660 211l6 11-38-63 14 42" />
    <path fill="#f62821" d="M495 405l-4 9-23-92 31 51" />
    <path fill="#ec8d45" d="M224 301l20 20 83-226-77 208" />
    <path fill="#f74f22" d="M721 35l-8-48-21 7 100 115" />
    <path fill="#f83c1e" d="M428 312l-138 78 148-66-7 69" />
    <path fill="#5b3319" d="M416 170l15 7 6-14" />
    <path fill="#fbf3a7" d="M500 556l178-65-9-19-172-22" />
    <path fill="#f9472f" d="M754 152L622 88l-43 56-12-38" />
    <path fill="#5d2e11" d="M821 131l-22 4 21-20 7 23" />
    <path fill="#fdf5e5" d="M546 330l42 26 13 57-32-79" />
    <path fill="#e2da6d" d="M539 173l8 15 49-55-1 45" />
    <path fill="#ee2915" d="M397 497l-36-27 37 42-15 45" />
    <path fill="#faeb99" d="M459 457l10 62-110-24 29 21" />
    <path fill="#ed7230" d="M233 439l64 55-3-64 14 49" />
    <path fill="#f3ce60" d="M793 147l54 24 56 251-3-287" />
    <path d="M1041 284l-36-24 1-6-4 78" />
    <path fill="#f9eaa4" d="M433 294l-71 36-70 48-16-33" />
    <path fill="#6b491c" d="M1028 296l16-14-1 139-26-74" />
    <path fill="#fffbcd" d="M513 377l-7 36 20-32-17-20" />
    <path fill="#fff0c7" d="M492 428l-22-4-7-10 15-1" />
    <path fill="#f32011" d="M420 476l9 7-48 18 35-7" />
    <path fill="#f2220d" d="M374 487l3-22 11-1-52 54" />
    <path fill="#f42714" d="M353 411l-17 32 18 38-13 13" />
    <path fill="#dffaff" d="M414 161l25-18-3 7-1 12" />
    <path fill="#f73920" d="M810 1l16 25-85 81-71 54" />
    <path fill="#f8c680" d="M398 409l11-14-2 25 31 24" />
    <path fill="#f3c579" d="M289 144l111 24 9 7 24-49" />
    <path fill="#fc3b27" d="M547 329l-81 3 89 1-29-48" />
    <path fill="#ffb2ad" d="M531 177l-41 32 23 1 8-35" />
    <path fill="#fef1e5" d="M467 226l3-40 28 44 6-11" />
    <path fill="#f69875" d="M467 390l13 25 19-40 5 16" />
    <path fill="#fbe86e" d="M667-31l81 97-25 29-28-3" />
    <path fill="#fa1714" d="M514 362l17 19-14-26-35-7" />
    <path fill="#fcf4b9" d="M690 376l-34 49-5-90 8-9" />
    <path fill="#ca4925" d="M929 713l39-41-124 41 77-80" />
    <path fill="#8d6e30" d="M884 38l-8 10 14 10 6-10" />
    <path fill="#ce341d" d="M897 24l31-15 51 8-109-48" />
    <path fill="#f4d45f" d="M380 585l-1-35-61 89 276 68" />
    <path fill="#ffed5c" d="M968 641l29 2 19 26 1 44" />
    <path fill="#fbe5f4" d="M803 95h16l5 14-17 2" />
    <path fill="#feffeb" d="M356 192l27 16-56 10 28-4" />
    <path fill="#e31112" d="M200 234l-29 44 30 97 73 38" />
    <path fill="#0d0a02" d="M26 713l35-32-22-21h-70" />
    <path fill="#f3d45a" d="M647 713l-36-85 85-12 200-105" />
    <path fill="#f9261a" d="M408 423l-2 18 19 19-21-52" />
    <path fill="#845c68" d="M163 156l-53-14 34 21 14 25" />
    <path fill="#b96d31" d="M35 371l102 222-168-225 86-157" />
    <path fill="#f3d469" d="M314 520l32-18-10-10-32 89" />
    <path fill="#f51816" d="M616 287l-28-17-2 46-26-58" />
    <path fill="#ed0b09" d="M326 429l-69-24 31 5v26" />
    <path fill="#59d455" d="M270 175l-30-7v-2l8-9" />
    <path fill="#f7b16e" d="M432 427l-25-9-10 82-6-68" />
    <path fill="#f8e88b" d="M478 530l234 46-223 25-61-40" />
    <path fill="#faf0ad" d="M358 348l61-52-103-31-11 112" />
    <path fill="#f71713" d="M679 184l-18 28-11-129-44-42" />
    <path fill="#fb291e" d="M623 203l-15-24 35 25h18" />
    <path fill="#f81f11" d="M459 387l29 14-130-28-10 6" />
    <path fill="#ed080b" d="M644 253l16 12 11 74-27-36" />
    <path fill="#f8fdaf" d="M392 411l-27-13-55-12 83 4" />
    <path fill="#f41308" d="M372 440l-7-7-31-3 91 11" />
    <path fill="#fbf1af" d="M732 272l-36 150-25-115 2-77" />
    <path fill="#fffac8" d="M544 337l-10-28-21-32-55 3" />
    <path fill="#a24611" d="M289 179l2-12 29 10-14 11" />
    <path fill="#2b1305" d="M72 224l5 4-36-18 49-6" />
    <path fill="#e4bc62" d="M922 366l-16-158 72 170-48 78" />
    <path fill="#fa1c0f" d="M352 366l79-52 12-8-4-13" />
    <path fill="#f5231d" d="M606 316l3 2-8-57 12 51" />
    <path fill="#9f5315" d="M754 157l-5-21-25 5-1 1" />
    <path fill="#ffa941" d="M966 39l-63-56 35 32-43 18" />
    <path fill="#f43017" d="M335 493l-19-37 27-53-22 91" />
    <path fill="#f6291b" d="M412 335l51 2 38 52-40-40" />
    <path fill="#ffddf1" d="M621 180l-8-5 14 18 8-16" />
    <path fill="#fce4db" d="M312 171l5-20-22 17 1-3" />
    <path fill="#727534" d="M559 168l-1 18-10-15 4-9" />
    <path fill="#0d0000" d="M984 129l21 42 11-61-37-141" />
    <path fill="#e19444" d="M270-13l-47 182-31 2 18-80" />
    <path fill="#ebbb58" d="M237 536l-77-119 62 198 51-98" />
    <path fill="#f93c23" d="M506 221l-6-18 41 41-13 42" />
    <path fill="#f5edfb" d="M742 192l30-17-43-18 5 16" />
    <path fill="#f6e37e" d="M553 86l-104 90 90-27 18-92" />
    <path fill="#fff190" d="M389 493l20-7 8-3-40-3" />
    <path fill="#df843c" d="M302 713l-67-83-88-100 66 154" />
    <path fill="#e7b459" d="M196 529l-20-188-50 87 76 5" />
    <path fill="#ae331d" d="M196 692l-9-10-89 22-1-101" />
    <path fill="#570b04" d="M210 190l42-6-55-8-90 34" />
    <path fill="#ff4f2d" d="M580 246l-1-20 32 24-48-13" />
    <path fill="#f21410" d="M333 399l-40 1 9-1-87-65" />
    <path fill="#f0130f" d="M341 415l93-3-38 15-23-16" />
    <path fill="#ee9942" d="M35 263l98-30-55 40-24-48" />
    <path fill="#f8ea8f" d="M780 183l-40 19 20 286 111-125" />
    <path fill="#e3f1a3" d="M890 116l5-9-25-19 4 17" />
    <path fill="#d01910" d="M198 482l14-41 21 47 27-16" />
    <path fill="#c46c42" d="M935 174l-2 21 47-110-9 81" />
    <path fill="#ee0e0d" d="M395 486l-24-39 17-32-5 39" />
    <path fill="#fef6ff" d="M474 199l18 20 24-45 3-1" />
    <path fill="#f3251a" d="M457 378l19 31-48-31 34 48" />
    <path fill="#fcf99b" d="M636 215l-55-45 39 58 17-3" />
    <path fill="#f7a47c" d="M540 403l-19-7-72-17h22" />
    <path fill="#f2412b" d="M50 196l-29 5-34-39 74-6" />
    <path fill="#faf49c" d="M720 150l21 6-47 97-19 75" />
    <path fill="#efc487" d="M528 574l6 9 20 3 71-40" />
    <path fill="#fdb068" d="M640 169l17-7 4 28-6 13" />
    <path fill="#f30207" d="M485 437l11-8-21 8-22-26" />
    <path fill="#f7da62" d="M822 35l-49 48 109-1-6-113" />
    <path fill="#ef1c10" d="M267 306l13 61-42-76 25-87" />
  </g>
</svg>