<svg version="1.1" viewBox="0 0 1024 682" width="1024" height="682" xmlns="http://www.w3.org/2000/svg">
  <g fill-opacity=".5">
    <path fill="#76aef4" d="M125 173l26 10-17-26 1 5" />
    <path fill="#ffa779" d="M535 348l-55-19-7-38 11 60" />
    <path fill="#ff2a18" d="M528 156l16-3-29 59 45-77" />
    <path fill="#f4df79" d="M833 451l82-190 7 199-105-313" />
    <path fill="#eb1311" d="M470 471l-4 70 33-41-5-36" />
    <path fill="#eecb60" d="M860 458l75 114-19-107-17-161" />
    <path fill="#f3ab49" d="M896 125l-4-74 36 93-101-2" />
    <path fill="#f92318" d="M500 199l35-8-27 43 27-51" />
    <path fill="#f4da65" d="M310 571l8 67-57-56 42-9" />
    <path fill="#db1b13" d="M787 90l-41 20 31 69 15-15" />
    <path fill="#9ae3ff" d="M963 209l-16-37 11 2 14 23" />
    <path fill="#ff845c" d="M473 274l108-69 37 33-40-25" />
    <path fill="#faf1a4" d="M443 428l-18 54-1-47-15-18" />
    <path fill="#f7ffb3" d="M603 201l-38 38 14-21v-50" />
    <path fill="#e85f2b" d="M1010 643l36-5-46 17-7-101" />
    <path fill="#ecffcf" d="M538 191l-2-16 52 11-5 13" />
    <path fill="#ee903f" d="M302 456l-11-1 7-24 12 16" />
    <path fill="#f9e9a8" d="M355 364l-12-93 108 14-76 15" />
    <path fill="#fcf6a2" d="M671 247l-26-9 33-9 65-61" />
    <path fill="#d71712" d="M290 499l-10 64 3 18 18-75" />
    <path fill="#f71b14" d="M596 103l2-66 11 16 51 27" />
    <path fill="#f32111" d="M409 498l28-24v-5l-44 33" />
    <path fill="#edb14c" d="M773 713l-58-28 48-56 80 5" />
    <path fill="#f5231c" d="M455 311l29 30-30 18 45 9" />
    <path fill="#593419" d="M1001 285l-27-79 20-15 12 5" />
    <path fill="#fa2610" d="M660 232l34-23 20-55-14 52" />
    <path fill="#f45135" d="M548 337l29 17h-22l20 35" />
    <path fill="#de753b" d="M239 258l-9-20h22l75-111" />
    <path fill="#773810" d="M1003 349l-3 39-13-63 11-5" />
    <path fill="#f22d20" d="M525 386v-16l-6 40-14 17" />
    <path fill="#fc4c27" d="M419 304l55-29-25-9 35-8" />
    <path fill="#fcefbe" d="M515 405l-17-5 23-26 4 9" />
    <path fill="#fd967b" d="M563 323l3-29 18 40 8 1" />
    <path fill="#f9f1ab" d="M435 380l-60-13 26-22 24 9" />
    <path fill="#f71d12" d="M402 383l-17-1-21-29-36 31" />
    <path fill="#f5e167" d="M306-31h230L336 40l-63 146" />
    <path fill="#faf8da" d="M578 348l17-4 9 57-41-36" />
    <path fill="#e93818" d="M217 416l2-43 40 70 24 37" />
    <path fill="#f80a0f" d="M527 291l13 28-20-74 9 23" />
    <path fill="#f34312" d="M991 713l64-42-36-3-4 45" />
    <path fill="#f96746" d="M411 301l8 18 22-44-87 92" />
    <path fill="#fbf6c0" d="M489 461l47-78 12 28-73 33" />
    <path fill="#f01313" d="M576 402l-4-31-21 31-1 61" />
    <path fill="#c04c1c" d="M967 86l-11-9-2-22 31 59" />
    <path fill="#ff7f56" d="M677 196l24-39-17-4-3 52" />
    <path fill="#e89f44" d="M223 452l42 8 15-15-45 26" />
    <path fill="#df1011" d="M251 425l-40 29 23-182-47 154" />
    <path fill="#f5341c" d="M395 528l4-19 12 25 2 55" />
    <path fill="#892f19" d="M81 28l-112 72 163-17 30-98" />
    <path fill="#fcf5bf" d="M563 445l-33 35 4 6 55-6" />
    <path fill="#f6aa60" d="M794 124l-16-56-2 6 32 44" />
    <path fill="#2a79c9" d="M971 202l-7-30 3 1 13 26" />
    <path fill="#fa522d" d="M552 248l-17 26-20-123 1 102" />
    <path fill="#faf5b6" d="M461 348l-9 32-12 5-4-39" />
    <path fill="#fc2f26" d="M513 181l53 34-64-22 18 1" />
    <path fill="#fdf9be" d="M594 331l-12-14 27-20-15 36" />
    <path fill="#cd813b" d="M72 330L50 432l-8-174 119 14" />
    <path fill="#fcf9c8" d="M499 273l25 13 11 42-91-22" />
    <path fill="#ff9b6e" d="M582 272l15 8 10 24-19-18" />
    <path fill="#fbf681" d="M699 7l8-38-86 73 78 34" />
    <path fill="#0b0200" d="M962 74l14 1 39-4-58-17" />
    <path fill="#efb555" d="M271 436l-5-10 17-34 5 11" />
    <path fill="#5f200a" d="M979 171l17-8-13-79-6 39" />
    <path fill="#e97231" d="M322 187l-8-15 7-2 71-1" />
    <path fill="#ffdfb0" d="M559 336l-20 25-8-22 46 7" />
    <path fill="#f7df76" d="M277 406l-14-16 17 3 10 12" />
    <path fill="#f61814" d="M650 101l35 120-21-26 11-27" />
    <path fill="#fa7254" d="M483 389v-33l37 7h-55" />
    <path fill="#ee281b" d="M380 489l-4-31 37 4-48 13" />
    <path fill="#e55a23" d="M194 378l-32-132 7 73 24 73" />
    <path fill="#a63d1f" d="M83 80l-114 68 145 18-62 41" />
    <path fill="#f9f097" d="M365 418l10 5-16 28 10 6" />
    <path fill="#dd582b" d="M889 135l-44-5h-23l52-22" />
    <path fill="#fbf5c9" d="M462 231l15-43-24 28 58 25" />
    <path fill="#d18b43" d="M927 569l83-80-9-69-5-32" />
    <path fill="#db8d3f" d="M132 223l-52-9 86 54-2 103" />
    <path fill="#edf9d6" d="M563 211l7 2-29-15 40-27" />
    <path fill="#fbfcca" d="M548 349l-31 139 16-136 57 22" />
    <path fill="#f59241" d="M334 433l-5-40-18 56 16-20" />
    <path fill="#f8f192" d="M385 497l-12-5-18 19 12 61" />
    <path fill="#f0c254" d="M441 654l15 59H292l-19-78" />
    <path fill="#fe412e" d="M571 212l11-3-11 17 2 62" />
    <path fill="#f7cc59" d="M717 48l5-62 10 39-25-6" />
    <path fill="#fbefab" d="M432 343l-59 8 49 23-17 9" />
    <path fill="#efcb5b" d="M249 33l92-22-79-42 41 193" />
    <path fill="#e5b04e" d="M915 483l-42 71 60 9-1 113" />
    <path fill="#eb1311" d="M503 536l-26-75-12 57 20 7" />
    <path fill="#ffb890" d="M651 238l-50-14v-2l27 44" />
    <path fill="#5773f2" d="M957 197l-4-12-3-8-2 30" />
    <path fill="#fdf9bf" d="M566 319l-4 9 2 19-9-7" />
    <path fill="#fdf96e" d="M944 26l17 15-9 53-50 16" />
    <path fill="#910b0a" d="M199 248l-32-51 46-4-5 36" />
    <path fill="#d67535" d="M897 594l15-38 15 72-116 85" />
    <path fill="#f20508" d="M418 434l-12 12 11 3-10-24" />
    <path fill="#8c4422" d="M1040 462l-38 91 17-81-5-47" />
    <path fill="#f32316" d="M443 404l-17-51 18 36 11 14" />
    <path fill="#fb4025" d="M535 195l-49 32 5-9 72-2" />
    <path fill="#ffff9a" d="M61 234l12-6 10-3-6 26" />
    <path fill="#533614" d="M496 168l-6 21-4-15-1-3" />
    <path fill="#f8cfa5" d="M474 131l5 120 14-15-15 9" />
    <path fill="#642414" d="M21 41l-52 5 17-77L106-5" />
    <path fill="#f6e281" d="M467 111l-20 21 105-5 1-17" />
    <path fill="#ea1412" d="M643 286l9-46 16 15 2 81" />
    <path fill="#ef0f10" d="M288 471l2-83 23-9-19 31" />
    <path fill="#070100" d="M1020 164l-11 231 46 34-51-88" />
    <path fill="#fc441b" d="M408 422l31-17-23-33-8 51" />
    <path fill="#fbed99" d="M543 44l-220 91 260-50-7 14" />
    <path fill="#f41a16" d="M548 262l6 4 52 1-60 21" />
    <path fill="#944510" d="M437 173l-42 1-47 8 75-4" />
    <path fill="#cba9a8" d="M963 171l-16-9-2-5-8 29" />
    <path fill="#fc4d35" d="M574 150l-3-50 7 3 57-6" />
    <path fill="#f30e0e" d="M659 129l-45-7-15 28-4-22" />
    <path fill="#f43929" d="M524 369l-16-19 24 32-15 32" />
    <path fill="#fb8072" d="M572 82l-21 84 22-20 1-48" />
    <path fill="#f3ddb2" d="M652 494l-38-33 2-34 31 22" />
    <path fill="#f01710" d="M348 416l36-1-25-9-37 78" />
    <path fill="#d00d0e" d="M262 266l3-79-21 8-23 14" />
    <path fill="#f5100c" d="M683 218l-25 10-27-22 16 23" />
    <path fill="#d4ffc9" d="M247 158l4 5 27-4-30-22" />
    <path fill="#f7351e" d="M449 326l-18 37-2-46 6-39" />
    <path fill="#ec2014" d="M314 502l-29-43-7-37 46 95" />
    <path fill="#fbf5c3" d="M521 289l-76-2 5 21 93 22" />
    <path fill="#dbb355" d="M512 155l-19 29 51-30-136 36" />
    <path fill="#ec1712" d="M790 33l17 15-57 27-19-106" />
    <path fill="#b1562b" d="M59 161l138-19 10 38-73-69" />
    <path fill="#f39f49" d="M285 469l-4 5 23 28-9-28" />
    <path fill="#fc4025" d="M543 134l-14 33 35-17-48 30" />
    <path fill="#5a3b0f" d="M624 178l-16-25 8 10 12-5" />
    <path fill="#ed813a" d="M924 19l-34 46 4-25 16-26" />
    <path fill="#b04121" d="M205 30l105-61-148 49-10 98" />
    <path fill="#faf5b8" d="M477 441l-49-30 23-2 4 71" />
    <path fill="#fbf2b1" d="M638 269l-30 21 35 43-5-120" />
    <path fill="#fcf2ca" d="M476 222l-4 30-17-7 11-60" />
    <path fill="#f27643" d="M384 459l12 26-7-72-6 78" />
    <path fill="#210700" d="M66 202l-50 19-40-18 122 8" />
    <path fill="#fbf1a8" d="M679 227l40 9 8 72-66-57" />
    <path fill="#fb2a1b" d="M585 69l94 76-46-65-49 29" />
    <path fill="#fbb26b" d="M403 477l29-8-21-24 9 34" />
    <path fill="#fdecbb" d="M539 301l-16 4 30-7-21-21" />
    <path fill="#f1090b" d="M609 312l-2 6v-32l5 6" />
    <path fill="#f43123" d="M542 319l25 39-15-12-42-103" />
    <path fill="#faa85e" d="M879 111l-24-26-33-1 15 38" />
    <path fill="#9d0d0c" d="M1016 17l39 19-9-52-49-6" />
    <path fill="#f6ce78" d="M374 468l3-15h-22l11 13" />
    <path fill="#faf0ac" d="M377 195l31 118-123 19h98" />
    <path fill="#edc15b" d="M190 510l117 78-95-12 16-97" />
    <path fill="#f11612" d="M480 414l19-11-27-25 22 16" />
    <path fill="#f9d882" d="M361 434l21-16 1 5-28-7" />
    <path fill="#fbf8fa" d="M476 187l18-3 9 29-40-1" />
    <path fill="#4f1f0f" d="M1014 151l-2-77-18-105 40 98" />
    <path fill="#ffb59a" d="M547 230l35 8-17-10 4 32" />
    <path fill="#d70e11" d="M320 590l17 7 1-75-10 15" />
    <path fill="#d1df61" d="M261 173l15-21 26 15-36 8" />
    <path fill="#fe8152" d="M503 334l-16-13 9 3 56 12" />
    <path fill="#fbffbc" d="M937 61l10-6 6 4-2 10" />
    <path fill="#fb582f" d="M573 256l-115 27 8-38-10 27" />
    <path fill="#f9341d" d="M440 329l-89 18 72-9-3-48" />
    <path fill="#f9ec7f" d="M432 603l-22-70 48 31 167 40" />
    <path fill="#f41c15" d="M492 383l16-14-59-33 18 17" />
    <path fill="#fc4f25" d="M398 334l-2-20 25 31 62-28" />
    <path fill="#fae7a3" d="M369 355l66 26-70-32 10-52" />
    <path fill="#db9846" d="M117 503l-5-210 93 80-140-34" />
    <path fill="#edc766" d="M746 138l-12-3-28 82 37-109" />
    <path fill="#fbf5c3" d="M531 360l-12 125 32-143 5 33" />
    <path fill="#f8c15b" d="M657 105l-11 1 4-5 39-46" />
    <path fill="#a68a76" d="M965 214l19-16-21 30-39-41" />
    <path fill="#f89370" d="M550 313l-63 15 52-12 27 11" />
    <path fill="#712205" d="M372 180l-6 13-7-12 12-6" />
    <path fill="#fae8b0" d="M433 274l-4 28-13-46 34 23" />
    <path fill="#faffc3" d="M462 372l-27-13 1 6 24 8" />
    <path fill="#f7241d" d="M674 149l-40 32 7 21 4-26" />
    <path fill="#faf6b8" d="M375 354l25-2 24-8 8 37" />
    <path fill="#ae592a" d="M-31 227l69 298 88 73-72-112" />
    <path fill="#d1632e" d="M252 22l36-53-87 79-44 100" />
    <path fill="#f9ec7c" d="M625 550l-81 88 179-67 83-68" />
    <path fill="#f51d15" d="M487 227l38 7 1 48 9-41" />
    <path fill="#8c4312" d="M254 181l70-8-26 14-5-3" />
    <path fill="#f62114" d="M706 160l-36-24 42 16-6 55" />
    <path fill="#ca6e38" d="M1011 493l-39 96-14-39 58-113" />
    <path fill="#f8d799" d="M418 316v-31l-5 27-80-82" />
    <path fill="#483608" d="M496 182l4-14-11 3 2 7" />
    <path fill="#f67737" d="M340 502l7-63-8 11v14" />
    <path fill="#faef97" d="M407 498l75 77 257-72-264 39" />
    <path fill="#d2deee" d="M421 161l1-15 15-1-2 22" />
    <path fill="#f7e49d" d="M542 145l-34 19-73-13-20-56" />
    <path fill="#f81911" d="M435 301l40 24-66-8 38-29" />
    <path fill="#f9ef9b" d="M711 149l93 199-140 219 75-189" />
    <path fill="#fbd09d" d="M483 391l-2 46-2-12v-45" />
  </g>
</svg>