<svg version="1.1" viewBox="0 0 1024 682" width="1024" height="682" xmlns="http://www.w3.org/2000/svg">
  <path fill="#99977d" d="M0 0h1024v682H0z" />
  <g fill-opacity=".5">
    <g class="SVG--0">
      <path fill="#caf1ff" d="M0-31l-12.6 328.5 1039.7 5 28-331.8" />
      <path fill="#715100" d="M-27.2 325.7l1082.2 4.8-24.5 359.2-1055 23.3" />
      <path fill="#221c04" d="M69.7 563.7l383-68.6-40.7-79-239 28" />
      <path d="M709.7 399.3l37 108.8-164.3-37-3.7-52" />
      <path fill="#db8d71" d="M554.2 502l-154-148.8 120.3-97L590 381" />
      <path fill="#e3a88f" d="M860 470.5l-9.7-109.3 178.8 3L897 484" />
      <path fill="#96a212" d="M1039.6 511l-17.2 202L-31 676.7l445.4-170" />
      <path fill="#9a2315" d="M1055 353.5L842.7 355l137.6-75 74.7-29.2" />
      <path fill="#542c14" d="M63.4 297L89 551l-120 13V242" />
      <path fill="#6e5636" d="M855 237.7l-29.8-63.2 108 5-24 70" />
      <path fill="#3b2432" d="M187 427.3l-66-78.8 197-39 66 30.8" />
      <path fill="#f9b487" d="M356.5 435l-192-3.6-17.8 73.8L34 399.2" />
      <path fill="#2a0d17" d="M924 585.7l-204 1 99.2-33L943.6 574" />
      <path fill="#000001" d="M981.5 457l-31-36-32.2 55.8 56 2.3" />
      <path fill="#a9c5f1" d="M556.2 258.4L370 345-31 .6l1086 2" />
      <path fill="#d3d3e9" d="M874 307.5l-20.6 13-324-17.4L804.6 91" />
      <path fill="#f2b68b" d="M779.6 434.5l273-3-.6-33-334.3 29" />
      <path fill="#dbb0b9" d="M891.6 596.7L1055 636l-78.5-60-97.2 14.5" />
      <path fill="#6b93cc" d="M160 346.3l97.3-2.6 2.4-50-169.6 9" />
      <path fill="#381e06" d="M443 588.5l-246.6 1-83.7-17.4 137.3-9" />
      <path fill="#eaac80" d="M205.3 427.6l10.2 87.2L243 434l191.5-49.6" />
      <path fill="#2f1501" d="M773.7 588.4L667 565.6l-270.6 22.6 270.6 2.3" />
      <path fill="#87412e" d="M706 425.7L469 296l61.3-13.7 198.3 121" />
      <path fill="#271508" d="M863.2 501.6l-79.5-.5 44.8-76 28 23" />
      <path fill="#ebaf87" d="M731.2 484l80-3.2-1.7-50.3-59.8-14" />
      <path fill="#1c1600" d="M436.5 476l-63-75.6-30.4 13.4L222 489" />
      <path d="M999.2 450.7l-7 38 62.8-12V396" />
      <path fill="#291813" d="M567.5 474l138 12-11-111.6 207.3-36.6" />
      <path fill="#d0d4e1" d="M6.5 276.8l-22.2-144.6 1041.6 129-458 23.6" />
      <path fill="#ddaeac" d="M607.8 509l-163.6-6 174.6-25 10.3 1.5" />
      <path d="M213.7 473.2L140.2 496l26-60.8 28.8-5" />
      <path fill="#cc9371" d="M549 379.6L434 436l-7.6 72 53.2-8.8" />
      <path fill="#c1ba58" d="M-24.5 618l131.3-31 119.6 1.3-248.7 81.4" />
      <path fill="#e1aa7f" d="M20.8 441l-4.4 63.2 61.5-165L89 418" />
      <path fill="#b0cdf6" d="M938.5 262.7l110.6-6 6-252-153 74.7" />
      <path fill="#010005" d="M41.5 435.6l39.5-2 9.3 66.7L27 467" />
      <path fill="#a3483d" d="M30 282l-61-51 52.5 158 119-57.5" />
      <path fill="#000307" d="M36 426l-49.7-98 2.5 215.7 54.8-173" />
      <path fill="#b5cb08" d="M214.6 537.3L-31 540l41.3-13.7 142.6 3.4" />
      <path d="M496 480.7l25.3 10 6-19.7-27-17.4" />
      <path fill="#d3b182" d="M716.8 409.8l-278-40.2 76.4-59 97 79.6" />
      <path fill="#c39a9b" d="M813.3 564.2L722 527.4l29-19 66.3 18" />
      <path fill="#5b3932" d="M710.4 408l224.7-7-21-64.3-28 86.3" />
      <path fill="#b1614d" d="M440.6 409.5l-195.3-1 220.5-106 54-38" />
      <path fill="#080d0f" d="M-31 342.8l16 12.8 218.7-4.7-58.7-7" />
      <path fill="#d79f73" d="M159.5 480.2l-11-134.4-48.2 81.3L83 490" />
      <path fill="#262018" d="M353 324.5l-14-12.7-88.3 64.3 95.3 12" />
      <path fill="#773a10" d="M361 596l-32-21.6 87-21.6 227.2 7.5" />
      <path fill="#182f00" d="M93.6 529.5l199.7-8-59.5-10.5-264.8-.6" />
      <path fill="#372316" d="M335.8 472.7l197.7-83.2-19-10.4L372 444" />
      <path fill="#3e3a3b" d="M714.5 353L819 387l44.8-88.3 22.2 31.6" />
      <path fill="#161600" d="M744.6 509.8l57.7-8.8L552 447l145.8-30.4" />
      <path fill="#d36249" d="M758 381.4L621.2 360l192 50.4L902 386" />
      <path fill="#a0bfd9" d="M205 214.8L-31 224V-12.6l1057.6 11" />
      <path fill="#936b3f" d="M286.3 509.5L-31 507.7l114.3-21.4 177.4 4.4" />
      <path fill="#6c8dc5" d="M681.7 343.8L721 310l-117.6-4.7-17.4 18" />
      <path fill="#f4bb94" d="M1004.4 410.5l-37 16.4 28 71-4.5-9" />
      <path fill="#a2c3df" d="M1055 10.6L938 169l-237.3 19L872-31" />
      <path fill="#ebb783" d="M927.8 477.4l8.5-75-47.5 7.5 2.2 74" />
      <path fill="#001617" d="M871.4 345l183.6 1.4-30.6 7.8h-187" />
      <path fill="#ffd8aa" d="M867 352.4l17.2 8-29.4 34-14-27" />
      <path fill="#b79173" d="M341.5 560.2l-7.8 13.7-94.4-12 27.2-44" />
      <path fill="#edb96e" d="M698.6 428.3l-22-29.5-123.2-13.2 135.2 5.5" />
      <path fill="#6e5d40" d="M817.4 211.4l61.6 20.3 7.8 22.7 48-49.7" />
      <path fill="#d5b181" d="M7.3 365.3L32 399.7l-4.3-44.2 128 11.5" />
      <path fill="#6b5f35" d="M451.3 500.5L318 558.2 262.7 504l197.5-33.5" />
      <path fill="#625550" d="M1055 427.8v-92.2l-107 72.8v-56.2" />
      <path fill="#090304" d="M976.2 441l-46.6-2 26.4 52 24.2-24" />
      <path fill="#a0af1a" d="M1.5 561L-31 604l186.8-43.6 12-12" />
      <path fill="#5b4600" d="M606 403l-42.5 30.4L567 495l104-98" />
      <path fill="#c16847" d="M1055 289l-37-26-151.4 80.8 157-2.6" />
      <path fill="#c395a2" d="M92.5 581.7l-76.2.2 137.7 7-185 53" />
      <path fill="#773a23" d="M203.3 358.8l101.3 35-27.4 23.6-153.7-1.2" />
      <path fill="#271523" d="M88.7 349.8l-4.4 7.6 43.7 38-38.8 5.6" />
      <path fill="#c79b68" d="M933 480.8l-119 5.5-8-14.7 74 2" />
      <path fill="#b99446" d="M283.5 500.8l-5.4-72.6 154-40-97.2 3.5" />
      <path fill="#e9e1d9" d="M879 224l-48 64-376.8-61.7 388 4" />
      <path fill="#00000e" d="M235 486.2h34.5l26.2-11-56-38.4" />
      <path fill="#4b3b30" d="M646.4 337.2l-47 46.5-41.7-69.5 25.7 1.2" />
      <path fill="#756c69" d="M644 342.7L759.6 311l69.5 16-105 50.6" />
      <path fill="#192a15" d="M251.8 537.3l-66.8 3 41 59-2.3-51.4" />
      <path fill="#cfa675" d="M569 323l-68.7 137 78.5-34.5-144.6-102.3" />
      <path fill="#4b2817" d="M431.4 314.4l22 9.2 52-4.3-11.8-4.5" />
      <path fill="#adac35" d="M781.6 547.4l113 14 160.4 60-10.5-99" />
      <path fill="#1a0707" d="M803 469.7l60-.5-13-34.5-32.2 2.2" />
      <path fill="#cfc0c7" d="M1055 241.4l-140.5 75.3-22 9.6-77.7-55.3" />
      <path fill="#a7ad24" d="M248.5 528l-5.2 9.4L15 539l193.5-11.7" />
      <path fill="#493f11" d="M952.7 494.2l-144.2-9-223.3 4.3 220 13.2" />
      <path fill="#949f23" d="M31.5 713l888.2-123-755-.8L-31 643.8" />
      <path fill="#281a13" d="M417.6 385.6l33.3-7-99-1.4-14 8.4" />
      <path fill="#522825" d="M742.8 397L850 412.8 720 420l11 70.4" />
      <path fill="#e0dded" d="M723 408.3L706 421l42.8-6-2.4 1.8" />
      <path fill="#d5a283" d="M394 476.3l67 18.4-79.2-7 6 .8" />
      <path fill="#080c00" d="M357 459.5l54-42.7 16.4 23.7 2 45" />
      <path fill="#b18f68" d="M255.4 340l19.8 33.3v-78l-41 41.6" />
      <path fill="#293507" d="M423.3 514L286 518.3l64.8-10.8 120.5-.5" />
      <path fill="#b6c8d4" d="M889 211.4l-48.4 59.4L952 65.8l-95 135.6" />
      <path fill="#d6cbc8" d="M627.4 227.5l-198.4 81-66.7 8L233.5 258" />
      <path fill="#22490b" d="M-31 542l229-2.4-95 9.4-61 14.6" />
      <path fill="#070008" d="M520.4 453.5l-26.2 13.8-7 14L525 489" />
      <path fill="#c3a48e" d="M499.6 489.5l-101 2 169.7 8L651 481" />
      <path fill="#000002" d="M1027.2 430l27.8 41.7-59.6.7 5.3-34.3" />
      <path fill="#d09f70" d="M6.8 464l51.4-38.4 31.5 18-5-77" />
      <path fill="#b2cadb" d="M776 233.3l63.6-19 35-152.5L-31 176.3" />
      <path fill="#cf9d6b" d="M263.5 418L208 483.6l37 13.6-51.3-71.2" />
      <path fill="#e3b278" d="M409 415l11.2-25.4-84 9.2-8.5-18" />
      <path fill="#825919" d="M816 585.5l-53.6-4-380-4 425-18" />
      <path fill="#bdcada" d="M363.4 188.3L-31 186 70.4 302l186.5 5.8" />
      <path fill="#b6b3be" d="M599 263.3l163 43-181.5 8.4-42.8-24" />
      <path fill="#868b09" d="M297 536l23.5-18L590 504.2l247.6 19" />
      <path fill="#6b5100" d="M405.8 412l-62.5 30-37.8-32.6 83.6-6.6" />
      <path fill="#ba6856" d="M362.4 345.8l41.3-27.7 33.5 60-113.2 2" />
      <path fill="#a79a37" d="M756 522.5l-279.4 12 269.7 35-63.3-96" />
      <path fill="#000001" d="M205.5 438.5l-36.7-6.5-16.5 48.7 56.8-9" />
      <path fill="#060b19" d="M847.7 559.5l6.7 20.2L823 590l-14-27.4" />
      <path fill="#070c00" d="M139 347.4l46.2 7 16.6 5.4-2.3 15.3" />
      <path fill="#c79b60" d="M15 446.2l13 56 18.5 9.3-6.8-31.6" />
      <path fill="#dfaa79" d="M137.4 361.3l-15 2.7L111 509.8l18-70.6" />
      <path fill="#6c5535" d="M780.4 434l10.6 87-24-103.5-27.2 20" />
      <path fill="#97b8d1" d="M-31 54.5L20.4-31l364.2 64.4L51 83" />
      <path fill="#271812" d="M713.4 380.4L595 377l122.6 15-50 86.2" />
      <path fill="#d1a47b" d="M972.5 476.4L1012 375l4.8 38-48.5 96.2" />
      <path fill="#050c04" d="M1.7 466.5L-26 394.8l58.6 42 6.3-65.6" />
      <path fill="#3d5301" d="M-31 585.2l7.6 35.4 47-17.7 52.7-9" />
      <path fill="#b66447" d="M315.5 379.2L177 399.8 43 406l298.7.5" />
      <path fill="#d6a467" d="M621.4 392.5l-100 66.2 9 41.3 60-114.4" />
      <path fill="#5f809c" d="M145.5 295L255 324.4l-66 27-87-41" />
      <path fill="#976353" d="M387.7 492.6l-78.6 1.8-36 18.2 100-6" />
      <path fill="#d6684d" d="M619.5 368.8l30-19.5 54.3 24-103.4 5.4" />
      <path fill="#cfb254" d="M257 549l28.7-23.6-2 38.6L168 550.4" />
      <path fill="#1c1b13" d="M35.5 395.4l31.3 8-8.3-24-78.7 116" />
      <path fill="#b38a8a" d="M852 556l-123.5-35 36.3-24.6 11.8 58.8" />
      <path fill="#98a42c" d="M918.3 713l136.7-76.4-223-50.8-122.2 14.8" />
      <path fill="#5e7a98" d="M346 317.3l7.4 31.8 35.6-22 80.5 3" />
      <path fill="#776212" d="M143.3 587.2l51.6-7.6 21-30.7-143 28" />
      <path fill="#36370c" d="M400 591l-157-4.3 97.5-8.6 217 9" />
      <path fill="#d1ab77" d="M37.3 363.6l50.7.2-75-4 7.5 43.2" />
      <path fill="#3b330a" d="M303.2 482.8l108.2 22-98-71.2L259 454" />
      <path fill="#bf9361" d="M208.2 505.5l-28.6.6 16.4-17 4.4-19" />
      <path fill="#cb9e71" d="M40.2 425.2L51 355.5l-.6 44.6 91 3" />
      <path fill="#d4a877" d="M899.4 503.5l37.5-66.2v-69.7L888 499" />
      <path fill="#262612" d="M220.3 364.3l40 20.5 61-73 36 40" />
      <path fill="#1e1c06" d="M656.6 408.6l82.8 50.2L613 497.4l28.7 8" />
      <path fill="#40251e" d="M261.2 412.2l-72.5 7.3-23-83.5-18.2 67.2" />
      <path fill="#2a2209" d="M697 570.2l-122.5 17.6 60.2-.6 103.2 1.5" />
      <path fill="#d7a976" d="M848.5 431l-107.2 10.7L883 414.2l-2.8 75.7" />
      <path fill="#7294c1" d="M782 332.5l2.8-20.8 70.7 9 1.7 8.5" />
      <path fill="#1b2a17" d="M345 563l-23-19.6 91.7-5-89.2-1.8" />
      <path fill="#ecbc87" d="M848.7 367.4L831 388l50-10.4 1 40" />
      <path fill="#d19c68" d="M527.3 392.5l59 23-149.7 42-7.6-23.2" />
      <path fill="#98614b" d="M895.3 321l64.3-25.3-68.6 39.5.8-106" />
      <path fill="#6c512c" d="M139.7 511l-23.2-19.7 16.8-5.8 5-152" />
      <path fill="#d3ab7d" d="M717.2 363l13.5-48.8-7.2 59.6-14-1" />
      <path fill="#a4523e" d="M0 346l5.3-79L73 301l67.8 36.8" />
      <path fill="#bfb2d4" d="M322.5 538.2l-5.8 29.2 20.2-7-6-.3" />
      <path fill="#c9d1db" d="M922.6 308.8l92.2-44.7 40.2-130-152 110" />
      <path fill="#684734" d="M583 416l-78.4-36-17.3 7.5 82.8 5.2" />
      <path fill="#1e1e08" d="M795.6 349.5l36 25-26.3 8.4-15.8-6" />
      <path fill="#bcbdcc" d="M313.3 414.8l-15.7-7-2.2-7L277 422" />
      <path fill="#bb9b7c" d="M475 394.2l120.7-71-117.3 22-45 25.3" />
      <path fill="#18110d" d="M926 571.2l12.5 11.5-53.3 4-16.4-5.6" />
      <path fill="#eac28c" d="M748 485l29.2-2.5-38.5-35.3 29.5-33" />
      <path fill="#100308" d="M450 463.5l3.6 3.2 2.8 23.8-6.7-1.5" />
      <path fill="#bfa46c" d="M730.8 570.5l-26.4-18.7 128.8-6.8-24.4-25" />
      <path fill="#6a6043" d="M929.6 213.8l-47 42.6 33-83.3-23 6" />
      <path fill="#7b6b48" d="M901.5 224.8l-20.6 14-40-17.5-14-19.6" />
      <path fill="#dcae80" d="M1048.2 434.5l-71.8-4.5 6.4-65.8 15 35" />
      <path fill="#2c1c17" d="M325.2 410.2l-72.3-1.6h-86l-8 6" />
      <path fill="#120f0b" d="M938.8 493.3l6-61.6 27.3 3 6 17.5" />
      <path fill="#ad5138" d="M781.6 385.5L748 409.7l106.2-3.2 10.7-21" />
      <path fill="#d7a375" d="M96 486l14.5-6-5.7-107-20 93" />
      <path fill="#231717" d="M583.8 319.6L558 313l-29 5.2 7.3 4.4" />
      <path fill="#54321c" d="M594 385l42-1.6-66-25.8 64.2-25.8" />
      <path fill="#605734" d="M503.7 316L471 336.7l-47 36 10.4-1.5" />
      <path fill="#dfb148" d="M427.2 568.6l11.3-3.7-45.8-4-18.4 4.3" />
      <path fill="#5b7ca5" d="M670 330.4l10.2-13.4-91-2-9.7 14" />
      <path fill="#7c8307" d="M808 506.7l247 23.5-283.5-7 32.5 21.3" />
      <path fill="#dbab7c" d="M609.2 475.5l3.5 12.4 13.8 23-56.5-28" />
      <path fill="#554e42" d="M980.4 370l-4 31.4-10-1-3.4-35.8" />
      <path fill="#956d2b" d="M258 583.2l58.3-3.8 3.4-25-95.4 16.3" />
      <path fill="#be6144" d="M512.8 281.5L444.6 309l121.6 8.8 2-11.3" />
      <path fill="#eeb87b" d="M477.2 328l-35.5 28.4-2-10.8 2.6-23" />
      <path fill="#c69f9a" d="M920.8 587l134.2 28.6-86.5-2.4-112.7-29.4" />
      <path fill="#8c941e" d="M310.2 649l467.5-35 168.6 79.5L-31 682.2" />
      <path fill="#d1ab89" d="M281.7 442.7L266 429l32.2-24-10.7 49.2" />
      <path fill="#705824" d="M717.8 480.6l-33.3.4-37.6-10.3 92 66.6" />
      <path fill="#0a0803" d="M83.8 444.6l-31.2-15L90 509.2l-2.5 12" />
      <path fill="#705e54" d="M862 311.4l-2.6-65.2 14 95.6-44.6 14.5" />
      <path fill="#3f3116" d="M771.5 423.6l15 67.6-10.2 6.6 11-32.7" />
      <path fill="#0d0611" d="M120 386l-13.6-19 15.2-2-20.3 42" />
      <path fill="#e3b56a" d="M328 424v-35.4l54.5 3.6-58.2 25" />
      <path fill="#a1a42a" d="M580 525l163.4 20.7L508 556l-182-.8" />
      <path fill="#9c8f2d" d="M220 380.8l12.3-44.2-7.8 23-45.4 18.2" />
      <path fill="#abc7dc" d="M763.2 78.8L864 28.5 898.2 201l7.3 5.5" />
      <path fill="#000013" d="M219.3 554.3l9.3 5.3-3.5 19.2-23 6" />
      <path fill="#6c5833" d="M291.6 297.8l24.2 19.8-52.4 75 53.2-95.6" />
      <path fill="#db943d" d="M536.2 566.7h121l35.2-5.2-72.6-.2" />
      <path fill="#893520" d="M536 571.3L386 558l274.5-.5-156.7 9.6" />
      <path fill="#cdbec8" d="M734.4 407.8L724 421.4l-2.6-14 4.6-6.4" />
      <path fill="#dea674" d="M813 443.7l-18.5 21-22.3-34.4L836 421" />
      <path fill="#dfdcdb" d="M524.2 212.5l-67 17.8L434 270l182-12.4" />
      <path fill="#342c0c" d="M606 472.7l59.5-85-89.2 76.3 6.6 22" />
      <path fill="#2f240f" d="M828 501.7l19.5-70.2 19.2 74.6-17.2-43" />
      <path fill="#97730a" d="M554.5 480.8l27.7-67.7L687 380l-114.5 55.7" />
      <path fill="#c89b73" d="M90.4 382.6l44-7.6-75.7.5-89.7.3" />
      <path fill="#7d870e" d="M-13.2 713l.2-40.2 108-29 70 18.7" />
      <path fill="#768d00" d="M-31 551.5l110-29.3-73.3-3-36.7-1" />
      <path fill="#cf9d6d" d="M187.7 421.3l-32.8 29-20-80 23 53.4" />
      <path fill="#d9ac0b" d="M266.8 548.3l13.6-16 11.3 11.7-9.8 21.7" />
      <path fill="#000104" d="M199.4 489.2l-15.6-55.5-27 42.4 4 7" />
      <path fill="#6e670d" d="M721.5 486l269.7-2 15.2-.2-86 9" />
      <path fill="#daab6f" d="M694.6 389.6l-1.3 29.4-23.3-24.3-117.6-6" />
      <path fill="#2e291d" d="M792.3 489l106.2 6.3-144.8 7.5-62.6-13" />
      <path fill="#beb48d" d="M697 331.6l-43 12 8.7 2.3-22.7-13" />
      <path fill="#c3a989" d="M109.4 589l-62.7-3 43.6-9.7-1.6-1" />
      <path fill="#271a0a" d="M872.2 409.8l-117.5-1.6 51.4 5 57-.8" />
      <path fill="#9e7552" d="M767 337.6l-1.6 60.7-13.5-54.6 22-42.2" />
      <path fill="#15150a" d="M0 315.5L-25.6 443 17 483.8l-3-28.2" />
      <path fill="#7b6e4e" d="M930.3 230.5l-74.3-50 5.3 80.7-14.8-92.6" />
      <path fill="#2d3201" d="M115.2 506.3l-128 12.8 79.5 3 53.5 2" />
      <path fill="#ae644a" d="M1055 249.4v94l-193 .4 67.4-38.3" />
      <path fill="#494147" d="M313.3 519.4l-28-34L260 530l80-9.2" />
      <path fill="#32461c" d="M99 549.4l146.8-1.8 13.5-8-101.8.2" />
      <path fill="#544024" d="M737.7 379.6l-8.6-41.2 46 27.4 6-32" />
      <path fill="#1e1b1a" d="M64.3 363.5L52.5 381 65 409.3l-1.7-51" />
      <path fill="#ca9b69" d="M32.8 457.8l-16.4-11 1 39.7 13.2-4.8" />
      <path fill="#6a5239" d="M-28.4 368.5l182.4-13-136.7-7-1.5 35.8" />
      <path fill="#b89275" d="M442.2 497l58.2 11.3-72.3-23 9-41.3" />
      <path fill="#a5a52f" d="M71.2 558.4h-45L-21 583l252.7-29" />
      <path fill="#6f6121" d="M142.8 501L308 489l-145-4-11.4-24.5" />
      <path fill="#505248" d="M831.2 375.2l41-59.6 16.6 12-116 9" />
      <path fill="#b0a5a5" d="M274 338.7L208.8 271l47.2 25.4 11.7 70" />
      <path fill="#b87857" d="M697.7 376.5L555 369.2l-10 32 52-23.4" />
      <path fill="#91794d" d="M243.2 332l41-31 3.5 47.6 26.6-39.3" />
      <path fill="#505650" d="M721 366l-16.8-44-43.8 32-22.5-17.4" />
      <path fill="#bebdc6" d="M849.8 321.2l-144.3-23.6-39.4-48.3 208 52.4" />
      <path fill="#9a7c1c" d="M590 338l10.7-8 12.3 19-29.4 4.4" />
      <path fill="#62472b" d="M889 498.5l-5.3-18 3.2-137-1 88.8" />
      <path fill="#6f401e" d="M307 385.3l64.7-11-81 25 60.7 47.2" />
      <path fill="#503e19" d="M347.6 552.2l-4.6 23.2 99.6-6.7L308 590.5" />
      <path fill="#d7a270" d="M201.6 437l43.4-3.3-30.5 50.3-7.4-42.4" />
      <path fill="#44390c" d="M665.6 396l5.6 100-59.2-3 39.4-9" />
      <path fill="#635866" d="M418 507l77-17.5 5.3 12-88.4-4.8" />
      <path fill="#b8cddd" d="M808.4 157l44.8 34.5-3.4 22.8-10.2-57.8" />
      <path fill="#c39c6e" d="M909.5 396l-26.8 5.8 34 43.8-3-99" />
      <path fill="#3e371f" d="M233.2 353.6l-124-2 101.8 15 8-41" />
      <path fill="#000004" d="M521.6 482.6v-17L492.3 486l15.3 2.5" />
      <path fill="#4a361c" d="M484.2 405.5l-190 42.8L452.7 417l-6-24" />
      <path fill="#efc691" d="M763 441.4l-25.4.2 2.4 46 8-50" />
      <path fill="#969db0" d="M420.8 294l21.6 38.4-147-20.8 142-5" />
      <path fill="#b6a872" d="M263.6 528.5l-3.3 38.5 14.7-29.7 80-8.2" />
      <path fill="#877156" d="M891.6 204.4l21 64.8-7.3-59.3-17 63" />
      <path fill="#a5a040" d="M1034 564.8l12 50.4-35-10-60.7-14.5" />
      <path fill="#201a16" d="M383.4 498.6l77.2 8L333 473.4l67-25" />
      <path fill="#a8c4d8" d="M1055 12.2L548 77l353.3 108.7-45.2 9.7" />
      <path fill="#9e6750" d="M266.5 508.3l105.7-13.8 23.5 9.7-28 3.2" />
      <path fill="#514745" d="M997.7 397l10 4.6 2.5-20.8-12.5-34" />
      <path fill="#b5888e" d="M-31 620l101.4-25.3-12 2.8-69.3 40" />
      <path fill="#111010" d="M88.3 382l-1 16.5 27.2-12 11.3 17.3" />
      <path fill="#7c6119" d="M783 591l-57.3-21 33-14.6 60.5 10.3" />
      <path fill="#acc4db" d="M139 167l118-25.3-288-97 10 116.5" />
      <path fill="#ae8371" d="M407 373l-66.3-42 85 16.2-3.3 28.6" />
      <path fill="#45390d" d="M105.6 580.3l15 4.5 188.3-1.4-203-7.8" />
      <path fill="#b5996a" d="M842 466.6l42-22.5-34 16-1 45" />
      <path fill="#f4cea1" d="M841 369l-.4 17.6 33.5-31-14 .4" />
      <path fill="#c99c6b" d="M973.4 370.2L1055 355l-97 26.7 62.6-3" />
      <path fill="#b5885a" d="M499.6 403.5l90 83.8-82.7-31-42 18.7" />
      <path fill="#e0ae7d" d="M65.2 402.2l1.2-41.8L-31 365l122-.8" />
      <path fill="#bc5a35" d="M421.6 377l-4.5-6.4-53-14.3-53 20.7" />
      <path fill="#24180e" d="M846.2 430l9 77.5 3.5-64.7-48 8.8" />
      <path fill="#3e3416" d="M215.6 382.4l55.6-2.5-11.2-48 5-4" />
      <path fill="#3b292c" d="M583.7 356l-5-49.8 14 63.8-40.5-32.5" />
      <path fill="#bbcddc" d="M558.5 224.5L571 250l254.3-71L391 164.4" />
      <path fill="#9fa4b6" d="M81 301.3l133.6 8 43 3 4.5-27.6" />
      <path fill="#262620" d="M309.5 358.8l-18-9 60.8-18 8 31.4" />
      <path fill="#838056" d="M906.6 176.4l29.6 13.4-60.5-.3-5 21.6" />
      <path fill="#84880f" d="M1045.4 514.7l-104-4H862l145 36.7" />
      <path fill="#413706" d="M420 415l-10.5 29.3-106.7 7.4 93.7-38.3" />
      <path fill="#634d07" d="M597.3 355.7l91.3 56.5-123.2 21.4 93-39.3" />
      <path fill="#161407" d="M417 435.2l13 15-.3 40-35-22.6" />
      <path fill="#d5ab75" d="M556.3 392l-55.8-56.3 12.6-56.3v17.8" />
      <path fill="#d5a777" d="M889 508.7l60.5-90.2-4-47.3-7.5-1.7" />
      <path fill="#975951" d="M749 506.4l-246.2 2 210.5-13.7 22.5 29.6" />
      <path fill="#cb9c6b" d="M136.2 468l-73-37.4L31 428l43.4-40" />
      <path fill="#caa974" d="M707.2 367.2l12.6-4.3.2-13 11.6 36" />
      <path fill="#b8cedd" d="M919.4 207.4l62-67.2 55 135-125-91" />
      <path fill="#7c5d42" d="M770 432l-50 10.2-21.4-29.6 67.7 21.7" />
      <path fill="#98982f" d="M738 710.2l-131.6-25-99-96.7L623 593" />
      <path fill="#492f1e" d="M319 385.4l110.2-5-15 28.6-.5-33.6" />
      <path fill="#0e1202" d="M703.2 422.6l23 34.4-22.6 27.2-50.8-42.2" />
      <path fill="#cba8a0" d="M940.3 580l86.4-.6-21.8.4-16 5" />
      <path fill="#2e2217" d="M862 344.4l109.2 1.5-99.8 6-79.2 27" />
      <path fill="#8f7882" d="M265.8 557l-70 1.8 79-22.3-26 20.5" />
      <path fill="#6d6229" d="M10.5 483.7l43.7 2-85.2 31v-85" />
      <path fill="#d1a577" d="M1010.6 435l15-21-95-17.4 50.4 50" />
    </g>
    <g class="SVG--1">
      <path fill="#d8d0ce" d="M881.8 293.7l4.4-56-71.8 41.3 51.7-58.7" />
      <path fill="#4f4039" d="M868 308.2l-5 16 44.8 51 1.2 21.3" />
      <path fill="#523529" d="M505 375.2l-9 9.5-23 22 48.3-28.5" />
      <path fill="#71620c" d="M1037.3 493.8l-96.5-10.3 101-2.2-62 16" />
      <path fill="#2a2e26" d="M30.4 368l14.3-2.5-2 56.4-5.2-49" />
      <path fill="#2c350e" d="M259.6 526.6l-164-6 204-18.4-14.3-15" />
      <path fill="#9abad4" d="M794.4-31l260.6 5.7v195l-52.7-107.5" />
      <path fill="#cbc6cb" d="M236.4 264.2l160.8 19L70 297.7 23 277" />
      <path fill="#c4986a" d="M14.6 385.6l2.4 17.6 14.2-8-7.6-40.6" />
      <path fill="#6d541b" d="M131.6 570.7l-132 11.5 164.4-6 28.6-16" />
      <path fill="#d3a472" d="M99 487l34.3-13.3 3.5-113.7-8-.8" />
      <path fill="#1a120b" d="M982.8 476.2l-11.5-29.8L935 442l-3 12" />
      <path fill="#d88b67" d="M896.7 382.7l-195 1.3 52 1.8 9.6 1.7" />
      <path fill="#7c601b" d="M534.5 555.8l122 24.2-217.3 3 234.2-28.2" />
      <path fill="#b1978e" d="M432 483.6l16.6 23.8L599 498l-130 1.7" />
      <path fill="#402829" d="M261 422.6L237.3 451l32.4 8.5L272 476" />
      <path fill="#dab484" d="M981 484.3l.3-51-2.6 26.3 16.7 19.2" />
      <path fill="#babcc6" d="M362.8 316.3l80-2.8-.8-74-129.4 62" />
      <path fill="#403716" d="M818 497l63.4 4.8 6 1-1.7-19.3" />
      <path fill="#9c9c2e" d="M240.5 589.8L94.2 641-31 650l214-65.7" />
      <path fill="#716a4b" d="M852.8 201.8l23-23.2-23.4-8.7 7.8 66" />
      <path fill="#d3b592" d="M612.3 502l-37.3 3 32-33 9.5 31" />
      <path fill="#62809b" d="M402.6 312.3L363 345l-28.7-18 76.2 1.7" />
      <path fill="#c4c7bb" d="M802.4 533.4l9.2 9.8 6-17.7 4-4.3" />
      <path fill="#c59d2a" d="M358.8 572l-2-1 106.6-9-109 1.5" />
      <path fill="#0f0d0e" d="M101 400.5l-.3-14-8.3-19-4 28.6" />
      <path fill="#959933" d="M407 589l3.5 40-284 42.8 185-81.7" />
      <path fill="#9c7863" d="M909.4 316.6L941 418l-36.5-111 6.3-52" />
      <path fill="#e8bb80" d="M783.3 481.4l-10.8-37.8-6.2 28 4 12.8" />
      <path fill="#3f3a21" d="M68.5 598.3l-38.3 4L-31 616l114.6-28.6" />
      <path fill="#ce9368" d="M415 410l-122.6-30.8-36.6 4 152.2 9.6" />
      <path fill="#a09e35" d="M779.5 601.8l105 22.7 63.8-15L802 582.2" />
      <path fill="#798d12" d="M170 561.7l50.5-14-96.4 1-14 .3" />
      <path fill="#c69f6f" d="M961.5 364.8l7.3.2-4.5 39.5-4 33.7" />
      <path fill="#705e1e" d="M235 492.7l31.4 12.4 53-81-19.6 63" />
      <path fill="#685249" d="M1003.8 355.5l-76.6.8 3 52-16.2-42.5" />
      <path fill="#7c6c52" d="M740.4 311.8l-28 1.4 89.2 38.3-70.8-21.7" />
      <path fill="#d7b393" d="M514 362.5l-55.3 16.8 5.5-29.8 9 34.2" />
      <path fill="#a26d64" d="M256.2 508.2l32.6-3-99-2.2-5.2 2.5" />
      <path fill="#28230e" d="M568.3 458.6l34.7 19.7h-35.8l86.2-63.6" />
      <path fill="#55481d" d="M78.3 497L51 458.7 40 508l30.7-13" />
      <path fill="#c3887a" d="M178.5 348.4L89.2 307-31 243.7l170.3 93.7" />
      <path fill="#deaf78" d="M1055 380.2l-23.2.6-161.4-1.6 142-2.5" />
      <path fill="#ca9c70" d="M23.6 377l140-1.7-78.2 3.6h-77" />
      <path fill="#3e3a0c" d="M623.2 490.5l-.5 23 49-45.4 14.8 28" />
      <path fill="#968170" d="M940.8 455l-2.4 49 4-25.6-11.8 28.7" />
      <path fill="#e3eaef" d="M297.4 407.6L296 404l-7.5 12.8 19.3 2" />
      <path fill="#170f0b" d="M174.4 348.3H-31l176.3-5 58.7 31" />
      <path fill="#160b03" d="M815.2 444l17 13.4 9.4 37.2-4.8-65" />
      <path fill="#b37a5d" d="M443.7 407.2l95.2-37L421 420l16-53" />
      <path fill="#daab7a" d="M890 482.3l29.6 2.3 5.8-51-36-39.8" />
      <path fill="#cad0d8" d="M1055 271l-82.8-18.8-61 14-.5-41.3" />
      <path fill="#7a870c" d="M781.8 673.5l64.2 17-15.6-6.4-164.2-98" />
      <path fill="#d9a46f" d="M535 399.2l2.3-.8 48.4 20-68.4 38.5" />
      <path fill="#d5a966" d="M974 503l8.7 1-8.3-36.7-1 32.4" />
      <path fill="#cd9c6b" d="M137.7 421.7l32.3 1-24.2 25.8 7.2-104" />
      <path fill="#70663d" d="M318 569l1.3-27-44.2-11 49 47" />
      <path fill="#93a21a" d="M22.4 585.4l-53.4 8.3 109-2-14.2-6.3" />
      <path fill="#b49184" d="M817.3 559.8L727.7 504l33.8 41 29.2 13.3" />
      <path fill="#d3d2d3" d="M405.4 244.2l-124 57 18.7 5 11-69.2" />
      <path fill="#a48161" d="M631 387l-81.3 11.2 30.6-72.4-9.6 62.6" />
      <path fill="#cca06c" d="M932 364.4l-49.2 5.5 21 71-11-79" />
      <path fill="#584f42" d="M951.3 401.2l-6.3-41.4 18.4 30.2-15.5 10.4" />
      <path fill="#a7805c" d="M196 483l3.6-11 32.7 15.8 3-16.3" />
      <path fill="#6e573a" d="M575 356l-27.3-20-35-28 4-1.8" />
      <path fill="#afc9dd" d="M904 190.2l-41.2-.6 192.2-86-280.8 1.3" />
      <path fill="#291116" d="M712.4 383.8l-14.7 24.4-4.3-30-35.3 1.3" />
      <path fill="#16160a" d="M1.6 425l17 43.4-49.6 11 39.8-146" />
      <path fill="#8a6f12" d="M346.3 425.7l-11 9.7 16-3.8 46-22.7" />
      <path fill="#593f1e" d="M869.2 406.2l-22 4 2.2 7.2 38.7.3" />
      <path fill="#9b5441" d="M165.5 344.5l-43.7.4-152.8-8 23-66" />
      <path fill="#937221" d="M847.4 554l22.2 24 23.4-4.4-1.7-7" />
      <path fill="#86654f" d="M728 519l13.6 8L752 373l-6 164" />
      <path fill="#6e6751" d="M806.7 373l52.7-31.2-38-19.3-10 47.6" />
      <path fill="#b58759" d="M469 431.4L436.5 494l-9.6-27.7L569 447" />
      <path fill="#68849a" d="M147 295.3l-6 37.8 91.4-30-21.7 51" />
      <path fill="#5f382f" d="M727.6 405l-48-50.6 59 39 56.5 24.8" />
      <path fill="#462d21" d="M264.2 421.3l28-13-97.6.5 89.4 8.4" />
      <path fill="#413723" d="M764.4 357.2l.6-35.2 24.4 55.4 29.5-30.7" />
      <path fill="#858f11" d="M755.7 566l-10.3-32-190.5-5 165-21" />
      <path fill="#706222" d="M59.7 502.4l-20.5-12 79.2-5.2 44.5 1" />
      <path fill="#624729" d="M9 439.2l5.7 8.6L36 434.6 11 432" />
      <path fill="#868319" d="M599.8 544l37.5-8.4-8-72.3 14.4 23" />
      <path fill="#ce9c43" d="M375.5 389.6l-60.7 35-4 13-8-14" />
      <path fill="#bbd1e1" d="M838 209.5l1.7 7.8-105.6 19-75-39.3" />
      <path fill="#6c392b" d="M426.7 382.3l9-18.8-8-25 3 48.3" />
      <path fill="#a58d81" d="M485.2 290l-4.3-2.7 33-15.8 21 15" />
      <path fill="#a0583b" d="M220.2 407.5l123.4-4.2-120-13.5-79.3 16" />
      <path fill="#462423" d="M150 396.2l4.6-15.7 5.7-6.5 64.7 20.8" />
      <path fill="#c58d5e" d="M489.8 495.7l-50.4-73.2 15.2 40.5 38 10.2" />
      <path fill="#a77753" d="M215.2 383.2l-34.8-14.5 2.4 15.2 9.5-3" />
      <path fill="#674c1b" d="M666 564.3l1.7-1-114.4-5 89-5.6" />
      <path fill="#abb3c0" d="M751.5 291.6L857 332l-2-42.6-119.2 30.2" />
      <path fill="#4d3f1f" d="M724.3 430.6l-3.6 90 .7-8.3 18.6-26" />
      <path fill="#402b24" d="M525.7 315l66.3 16.2-7.8 32.3-3-46.4" />
      <path fill="#010206" d="M236 477l7 12 34-20.8-39.5-10.4" />
      <path fill="#ca9a6d" d="M296.3 548.5l7 12.8-5.7 14.5-11-29" />
      <path fill="#bf3428" d="M612.6 564.2L486 561l-28.3 5.3-1.2.4" />
      <path fill="#bacedc" d="M142 189.2l-173 57.6 108.6 44L380 205.2" />
      <path fill="#39461a" d="M340.6 537l-27.7-6.4 15 12 101-2.3" />
      <path fill="#1a1c10" d="M17.4 442l9-45.5 38-28.5-11.7-.5" />
      <path fill="#d2a171" d="M100.6 398.4l2.4-27.8 17.6 142.8-.5-90.7" />
      <path fill="#9da224" d="M318.6 532.5l119-9.4 58.5 10-11 7" />
      <path fill="#070a09" d="M79.4 482.2l8.6-20.5-20-33.2 3.5 60.3" />
      <path fill="#eeb872" d="M606 384l38 10.7-11.5-1.2-29 8.3" />
      <path fill="#514035" d="M883.2 324l2.6 77.5 2.8-71.4-24-6" />
      <path fill="#654836" d="M421.5 319.2l70.6 5.6-23 15.8 28-26.8" />
      <path fill="#574738" d="M859 242.7l1.7-33.5 9.7 10.7-18.3-1" />
      <path fill="#803b3f" d="M1055 506.2l-53 2-7.5 2.7-131.7-5" />
      <path fill="#914e48" d="M15.8 511.3l103.5-9.5 92.7 3.7-48.2 3.4" />
      <path fill="#776350" d="M764.3 432l-2.6 88.8 3.2-32 3-52" />
      <path fill="#352d07" d="M702.2 421.5L639 441.8l-72.3-4.6 7.7-8.3" />
      <path fill="#564e38" d="M927.8 210l-33 33.5 12.7-41.8.2 8.7" />
      <path fill="#de9364" d="M729.5 558.2l7.4-8.8-20 2 15 31.5" />
      <path fill="#bab2a4" d="M349 554.2L328.7 569l-7-3 1.8-13" />
      <path fill="#a75546" d="M491 288l-6.6-2.8 4.3 30.8-55-.5" />
      <path fill="#544f09" d="M375.6 486.8l-31.6 11 4.5 18.3-20.3-31" />
      <path fill="#ca9f70" d="M-2.5 375.5l2.8 3.7-17.3 2.3 85-4.8" />
      <path fill="#6e573f" d="M297.2 359.7l-33.4 8.5 33.3-38-36-25.4" />
      <path fill="#121211" d="M822.5 556.3l1 32.2 24.3-22.7L855 589" />
      <path fill="#7d7d6a" d="M923 208l-25.6-40.2 8.7 46V212" />
      <path fill="#131012" d="M106.8 366.2l1.6 30.6-1.4 5.2 13.6-12" />
      <path fill="#c59e6d" d="M589 380.4l-65.4-58 73 51-66 117.7" />
      <path fill="#8f684d" d="M416.3 442l33-15 79.6-36.8-84 25" />
      <path fill="#563b31" d="M423.5 488.8l108-8.3L477 486l64.7 2.4" />
      <path fill="#d2a577" d="M874.7 472.8L852.5 439 828 421.4l56-1.4" />
      <path fill="#c6a58e" d="M921.7 594.7l92.6 14L1055 592l-8.3 47.8" />
      <path fill="#af6347" d="M960 343l-93-.6-7-4 195-78.8" />
      <path fill="#71694f" d="M296.3 300l64 20.5-1.5 13.7-24.5-9.2" />
      <path fill="#c2a084" d="M571.5 476.2l34.5 14 2 15.6-40.5-6" />
      <path fill="#201f05" d="M727 461.2l-57-35.4 2.2-26.7 50.8 71" />
      <path fill="#cc9a6b" d="M772.4 417.6l44.4 4-9.3 48.7-36-41.4" />
      <path fill="#0f0908" d="M1017.2 429l1 32.2-.2 12.3-21.3-23.5" />
      <path fill="#b87f50" d="M472 337.5l16.4 31.6-49 28 33.4-6" />
      <path fill="#be9069" d="M130.8 379.6l-110-2 118.2-4-19.5-2.5" />
      <path fill="#aeb3c1" d="M561 271l34.4 58.8-3.8-11.5 75.6-21" />
      <path fill="#694a27" d="M633.6 571.8l128-2.4 87.4-12.8-105.3 8" />
      <path fill="#151605" d="M434.7 448.4L410.5 430l16.2 50.6-99.6-24" />
      <path fill="#cb9b6c" d="M133.4 400l-50 2.7 3.4 79 4.6 8" />
      <path fill="#060907" d="M207.6 580l19.6-18.6-.3 17.5-11 11" />
      <path fill="#8c6241" d="M1055 405l-237 3.2 237 .7-37 50" />
      <path fill="#909619" d="M832 534.2l-28-19.7L934.3 550l22.2 26.2" />
      <path fill="#bf935e" d="M854.5 467.3l-8.7 5.2-22.5-2.8-18 14.8" />
      <path fill="#85890b" d="M395.2 677.4L323 713l17.7-38.5 57.8-35" />
      <path fill="#eac792" d="M760 438l13.2 10-24-22 .5 30.6" />
      <path fill="#3c363b" d="M450.6 317.5l-16.8-1.6 5 12 9-12" />
      <path fill="#715637" d="M180.7 413.5l-13 4 42.4 4 40-8.5" />
      <path fill="#c19262" d="M559.8 489l2.2-60-56.2 15.4 38.5 39.7" />
      <path fill="#403a08" d="M329 426.8l-22.7 12.6 20.5 5 42.7-46.7" />
      <path fill="#9d8535" d="M981.3 501.4l-161 1 2.4-28.6-13 34" />
      <path fill="#cfcdd0" d="M340 248.7L692.2 294l87.7-21.5-102-21" />
      <path fill="#c89566" d="M231.3 464.4l-43.6-42 55.8-2.5-13.7 70" />
      <path fill="#b96237" d="M850.3 385.3l-33 20.5 56.8 1.7-17-23.3" />
      <path fill="#2a1b14" d="M932 498l8.5-64 30.5 3.3-39.5 6" />
      <path fill="#2d3908" d="M38 516.6l185.6 11.8-10.8-38-5.3 19.5" />
      <path fill="#5e4534" d="M888 367.4l22.7-12.4 48.2 4.5-91-11.7" />
      <path fill="#4c3b1e" d="M754.7 431l-150.4-5.5 163.3 6.6 12.8 11" />
      <path fill="#603b37" d="M632 329l57 38-79-37-28.4 3.4" />
      <path fill="#b99c83" d="M1012.4 583l-73.7-7.6-2 35.6 12.8-26" />
      <path fill="#3b2917" d="M510.5 382.5l-51.7 23.2-99.2 47.7 154.5-69" />
      <path fill="#a6825f" d="M756.5 303.2l16.6 39-21-23 14 77.8" />
      <path fill="#78533b" d="M400 509.7l54-62.4-16 27.2-36.5 16.6" />
      <path fill="#334713" d="M103.7 555.6L-20 537.8l-11 14.7 10.5 7.2" />
      <path fill="#564e47" d="M981.8 363.2l-14.5 7.4v33l12-5.7" />
      <path fill="#291b14" d="M268.4 362.4l6.5 14 139 5.6-164-2" />
      <path fill="#181507" d="M651.3 488.8l-26.4-25 6-46 6 23" />
      <path fill="#c69362" d="M747.2 548.6l-29.7-1-7.5 17.7 34.6-1" />
      <path fill="#bda38f" d="M572.3 488.8l33.6 14-73-2-56-11.4" />
      <path fill="#91741e" d="M696 576l104-10.7-6.3 14.7-44.8-2" />
      <path fill="#aa6041" d="M721.3 383l-14-6.8 68.6 31.2 122-.7" />
      <path fill="#896e36" d="M274 292.6l7.4 18-81 70.6L274 327" />
      <path fill="#5e431f" d="M807 476.5l-6 23.5.3-38.5 26 3" />
      <path fill="#dcba8f" d="M862 451.4l3 28.7-1 6-3.4-11" />
      <path fill="#796720" d="M201.4 554l-63.6 25 71 .5 18.6 64.3" />
      <path fill="#c59d6d" d="M905.7 381l66.3-1-96.6-6.8 1.3-4.7" />
      <path fill="#847756" d="M835.3 202l4.4-7.4-10.4-8 33.5 53.6" />
      <path fill="#92982c" d="M201.6 539.7l-64.8-3.2 112-9 10 2" />
      <path fill="#604723" d="M450.8 558l-48.5-.8-78 2.4 76.2 2.3" />
      <path fill="#8f684e" d="M8 511.8l36-1.3-75-39.5 37.3 31" />
      <path fill="#1b1910" d="M1017.3 344.6l34.4 8.4 3.3-1.7-171-2.8" />
      <path fill="#403b0c" d="M497 580.7l100.4 6.4-103.8 4-131.8-4" />
      <path fill="#d6aa77" d="M982.8 382.3l8.6 113.2 5-117-43.7-1.6" />
      <path fill="#666105" d="M811.3 488.6L664 489.8l157-7.6 31.4 6.5" />
      <path fill="#9d9e29" d="M1055 681l-98 4 98-41.5L867.4 587" />
      <path fill="#c49564" d="M147 412.8l9 87.3 2-57 35.6-20" />
      <path fill="#54524a" d="M899 366.8l-1 40.3 13.8-17-4.8-19" />
      <path fill="#b2c8d8" d="M75.4 138.5L549 111 440.6 233.5 210.8 216" />
      <path fill="#bdb8ad" d="M342 191.8l-52.5 134 17.4-1.6-19 9.6" />
      <path fill="#828705" d="M544.4 510.2L307 519.4l142.2 10 91.2-7.8" />
      <path fill="#b18757" d="M298 495.2l17.8 6.4-.3 7.4 24-14" />
      <path fill="#cc714f" d="M446.8 329.5H402l26.5 35L399 379" />
      <path fill="#27250f" d="M929.3 580l-20.7-3.8-46 3.4 82.8 6" />
      <path fill="#35460c" d="M369.2 518l42.8-3.4-13.8-6-110.6 3.3" />
      <path fill="#9b9e31" d="M1034.7 590l-17 14-79.2-16.4 102.6-6.2" />
      <path fill="#d7ab7b" d="M922.8 436.6l27.7-15 86.7 10.8L1025 419" />
      <path fill="#21190b" d="M202.6 377.7L138 344.2l25 1.7 31.6 17" />
      <path fill="#884d45" d="M638 504l62.7-.5 143 2.2-117.5 3.5" />
      <path fill="#65510c" d="M335 574.8l45.4 12 81.2-14.8-26.3-4" />
      <path fill="#070c00" d="M379.7 481.6l11.8-52.3-7 75 15.5-5.6" />
      <path fill="#c79a68" d="M193 493l32.5-11.5 2.2-59.5-24.3 86" />
      <path fill="#a8b1bc" d="M258.3 329.2l5-37-49.5-45.5 8.8 33" />
      <path fill="#f3cf9f" d="M872 352.3l-6.2 32.2-25.2-9.6 8.5-10" />
      <path fill="#130b05" d="M35.4 443.6l22-8-6 9-17 32" />
      <path fill="#987526" d="M651.5 353.4l-28.6-2 7-14.3 5 5" />
      <path fill="#c89572" d="M435.7 381.3L376.3 356l119 35.7-40-28.8" />
      <path fill="#d7a874" d="M988.4 369.4l-8.4-6-53 1.8-38.5.2" />
      <path fill="#a3bed4" d="M262.8-31L64.5 85 638 74 500.4-31" />
      <path fill="#352013" d="M832.5 410.7l-10.2-2.8-77.6 5-12-6" />
      <path fill="#9b8247" d="M903.6 240L890 188.5l-15.2 16.2 29.4 15.5" />
      <path fill="#4e4315" d="M938.6 485.7l39.8-.6-8.2-7-21.2-8" />
      <path fill="#4b4251" d="M261.6 539.5l-43 7.8 31 .2 11-3.6" />
      <path fill="#552b21" d="M591.7 383.3L602 371l-11.6-4 28.6 16.6" />
      <path fill="#3f201d" d="M155 370l-.5 13.5H215L151.2 405" />
      <path fill="#4a3524" d="M178.8 421l5.6-1-11.4-13-21.3 3" />
      <path fill="#1a1008" d="M828.7 463l30.8-1.3-3.3-16.4-16-13.3" />
      <path fill="#635022" d="M230.7 452.5L226 484l1-8.7-.5 62" />
      <path fill="#c0c0c6" d="M736.6 307.8l-231.5-36 263 12-17 42.7" />
      <path fill="#deaf74" d="M400.6 479l25.6 14.6-4.3-4.2-42-1.4" />
    </g>
    <g class="SVG--1">
      <path fill="#ca8d6a" d="M709.2 381L648 353.6l-1-1.3 46 17.5" />
      <path fill="#4a403f" d="M270 529l-9.6-34.3-1.6-77-2.6 72.8" />
      <path fill="#677300" d="M15.2 527.8l115.6 4-35.4-7.4-79-6.4" />
      <path fill="#6d4e3e" d="M883 357.7l57.6-5.7h97.5l17 11.7" />
      <path fill="#2b2c1f" d="M291 332.2l61.6-11.8-30.8 31 1 14.2" />
      <path fill="#d9b27d" d="M261.6 529.2l12.7 21L282 568l-20-6.6" />
      <path fill="#7d6d27" d="M669 489.2l-9.4-20.3-2.6 10 63 8" />
      <path fill="#62716f" d="M191.6 345l-32-3 28.7 14.3 43-28.2" />
      <path fill="#d6d1d2" d="M895 266v-4.6l8-25.7 3 70" />
      <path fill="#d5a76a" d="M411.2 408l-2-14.7L379 389l-7 16.4" />
      <path fill="#756a06" d="M297.5 485.4l-21.4 4 32 1 83-3" />
      <path fill="#797253" d="M874 196l17.4-4.7H870l1.7 28.3" />
      <path fill="#e5e1de" d="M766.4 239L657 232.3 821.7 279l27-55.8" />
      <path fill="#1b1a09" d="M673 415.2l16.8 7-6.6 66.8-4 18" />
      <path fill="#808512" d="M659.3 613.5L755 693l-41-13-110.3-113.8" />
      <path fill="#94730f" d="M289.8 555l-3.3-14.7-10.4 37 15 10" />
      <path fill="#1f1d0f" d="M191 510l-6.7-30.8-42.7 10.5 52.8-22" />
      <path fill="#a0aac0" d="M436.3 306L395 296l-37.3 17.2 77.6 15" />
      <path fill="#050402" d="M963.3 431.8h-15l24.5 30.8-1.5-16" />
      <path fill="#b58a11" d="M653.7 390.7l-65 13.4 72.3-1-7-13" />
      <path fill="#343019" d="M811 344.3l-36 32-17.3 6 53.8.5" />
      <path fill="#34312c" d="M1026 366.7l-27 9.4-1-7 36.2 6" />
      <path fill="#be9374" d="M263.6 320l.8 32.4 3.4 14.4 6-17" />
      <path fill="#cfb095" d="M484.8 356.2l4.6-1.3 66.6 28-11-16" />
      <path fill="#d6a676" d="M985.7 462l69.3-90.6-46.8-3.8L1055 354" />
      <path fill="#aa6f21" d="M390.3 561l156 7.5-103 1.3 36.6-7.5" />
      <path fill="#5e4630" d="M731 323.4l6.3-4-12.6-8 23 101.3" />
      <path fill="#c79869" d="M229.2 451l-37.5-18.8-29.7-12 98.4 3.7" />
      <path fill="#d09c69" d="M439.7 427.7l151-3-119.8-12-35 55" />
      <path fill="#846143" d="M854 363.4l-3-15.4 3.2 38 .3-20.2" />
      <path fill="#090203" d="M210.2 457.7l-41-4.4 12-18 15-3" />
      <path fill="#8796a7" d="M821 331.4l7.5-18.2-66-4.8 58.2 30.8" />
      <path fill="#6c5741" d="M284.8 366l2.6-14.2 39 40.8-16-37.6" />
      <path fill="#251e12" d="M211 455.3l-.3 29.4-4.3 10-.6-14.4" />
      <path fill="#201d0d" d="M332 462l-21 26 5.4-31.6 8.4-34.4" />
      <path fill="#dfcfd4" d="M323 544.3l-2.5 31.6 5-20 3 11" />
      <path fill="#a29f38" d="M902.3 567.3L810 550.5l1.7 2.6 7-32" />
      <path fill="#29240b" d="M712 578.2l18.6 7.7 34 2H610.8" />
      <path fill="#4b4d47" d="M917 364l-2 33.2 12.7-1.6 1-4.4" />
      <path fill="#8f6542" d="M28.5 409.3l126.7-2 11.7-1H62" />
      <path fill="#dbaa76" d="M901.6 381l-25.8-6.8-18 2.4 97.7 1.6" />
      <path fill="#aa6b55" d="M336 379l51.2-53.4 40.2 18.2-94.7 24.2" />
      <path fill="#cb9f71" d="M930.3 449.6l2 12.7-19-3.6 50.8-56.3" />
      <path fill="#775f3f" d="M887 404.8l-2.3-69-.5 134.6 5-48" />
      <path fill="#775239" d="M137.3 360.4l-122.6-.8 113.4-9.4 14 42" />
      <path fill="#e4e2e0" d="M475.2 237.4l75 7 11-26h-68.6" />
      <path fill="#2a2720" d="M40.4 367.3l23 33.3 3.3-15.4L29 371.8" />
      <path fill="#966d4a" d="M473 454.4l-15 64.3 17.8-78 35-20" />
      <path fill="#b7a26e" d="M863 492.7l-20.5-9.7v-17.6L860 491" />
      <path fill="#6a5821" d="M905.4 505.7l-6-26.2 19.3 17.6-5.3 2" />
      <path fill="#42361c" d="M844 213.7l10 2.5 13.7-1.4-12.6 10.8" />
      <path fill="#b1cadb" d="M857.2 211.5L949.4 94l-239.8 98.7L876 169.3" />
      <path fill="#302f27" d="M323.6 551.5L314 553l6.7-25.5-4.2 17.5" />
      <path fill="#562f2a" d="M237.3 374.5l2.6 10.2-103 5 140 2" />
      <path fill="#7a8208" d="M-3.2 683.5L15 670l113-36.3L20.7 680" />
      <path fill="#765f3d" d="M440.5 362.6l79-61.8-42.2 37-72 55.4" />
      <path fill="#6d6884" d="M225 562.4l-27 .4 11.2-8.6-2 4" />
      <path fill="#2f2613" d="M851.7 469l-.4 26.6 10-15-2.4-18" />
      <path fill="#bf9886" d="M202.8 586.2l7.3 1.4L82 592l79.4-5" />
      <path fill="#cba171" d="M48.8 370.3l-6.2 5.8 5.4 10 5 51" />
      <path fill="#4b4a40" d="M848 562.8h-41.2l25.8-10-.8 26" />
      <path fill="#593e26" d="M382.6 500.3l72.7-27.6-3-11.3-11.8 19.2" />
      <path fill="#6a5a06" d="M582 444.3l-21 23.5 6-38.6 21.5-4.3" />
      <path fill="#995e42" d="M304.6 380.3l71.8 10.3-57.3-4.3-20 30.8" />
      <path fill="#bd9166" d="M101 451.2l1.3-1.6-2.4 62L75 418" />
      <path fill="#ba8137" d="M723.2 547.8l-6.4 34-4.4-37-15.6 33.2" />
      <path fill="#b89a92" d="M36.4 585.4l51-2 5.2-3.4-51 .2" />
      <path fill="#897527" d="M225.7 375.5l8.3-37-37.4 42.4H217" />
      <path fill="#bd9d87" d="M797.2 559.3l28.6-8.8-62.2-20.2-22.6-.2" />
      <path fill="#99b7d3" d="M268-3L97.2 46.6l-105-.2L-4.5.6" />
      <path fill="#5c593e" d="M909.7 232.2l-17-6.7-14.7 3 34.5 12.5" />
      <path fill="#978627" d="M237.4 577.4l32.5-31.2 46-21.5-92 49" />
      <path fill="#cc9c6b" d="M139.7 405.3l34 13.3-22.2 41.7-1.3-83" />
      <path fill="#90463c" d="M862.7 509.7l27-.3-30-4.5h-64" />
      <path fill="#42380d" d="M618.7 402.4l-19 19.4-1.6-14-9 46.7" />
      <path fill="#ae8a6c" d="M526 362l2.2-24.4 54.3 23-99.7-17" />
      <path fill="#88890e" d="M509.6 559L473 534.4l-13.8 30 49.4-39" />
      <path fill="#8093ab" d="M690.6 330l-48.3 6-5-27.4 88.3 5.7" />
      <path fill="#7d810f" d="M848.2 510l36.4 1.7-22.2 19-100.7-15" />
      <path fill="#b08454" d="M209.7 507.6l28.5-3.6-41.4.2 4-30.4" />
      <path fill="#9a9c2e" d="M621.8 527.6l153.7 31 13-.5-54.8-30" />
      <path fill="#6f7327" d="M907 525l41.3-12.2 48.6 9-33 1" />
      <path fill="#a4915e" d="M818.4 591.3l-4 17.2.7-26.2-15 1" />
      <path fill="#3f4d14" d="M263.3 524.8l-39.6 24.8-81.5-2.7 95-12" />
      <path fill="#453f4d" d="M1016.5 396.8l7.6.2 31-3-41-15" />
      <path fill="#aa804c" d="M79.5 491.2l12.8-6 1.4-26.7-14 51.7" />
      <path fill="#a48d63" d="M728.5 328.5l37.3 42-32-44.3-17.3-6.6" />
      <path fill="#bcacb0" d="M329.7 569l-9.7-38 1 43 6-20.4" />
      <path fill="#a9a735" d="M360.8 544.8l56.5-1.7 53 10-60.5 3" />
      <path fill="#5d4c07" d="M609.5 476.5l4.3-76.8 8.3-3.2-21 73.8" />
      <path fill="#d0a06e" d="M33.4 420.5L94 434.3l39.2-5-92.8 2" />
      <path fill="#29160d" d="M347.5 381l-47-2.2 136.3 3.6-19.2-4.4" />
      <path fill="#d8a87c" d="M533.4 491.4l.4 4.6-8-56.4-1 61.3" />
      <path fill="#d19e6b" d="M80.4 381.3L35 446.7l-9 25.7-3-17.6" />
      <path fill="#c9996e" d="M32.6 365.4l14 1.8 115.7-4-166.6-2" />
      <path fill="#323737" d="M869 306.5l9 23-11 9.2-1.4 7.3" />
      <path fill="#352317" d="M490.4 471l5.2-8.7 14.5-8 9 10.5" />
      <path fill="#bd8944" d="M583.6 561.8l21.2-1.3 30.6 8.7-51.8-6.2" />
      <path fill="#1e1213" d="M323.3 550l10.7-1.8-19-22.5 15.7 15.4" />
      <path fill="#291b0f" d="M640.3 385l40-6-78.6.6-6.5 2" />
      <path fill="#d1a16f" d="M695.6 391l-1.8 20.2-11.8-2-15.7-16.3" />
      <path fill="#555311" d="M125.2 511l22.2-21.6 155.2.6-173.8-4.8" />
      <path fill="#221d11" d="M3.6 350.2l8.7 25-43.3-33 176 7.2" />
      <path fill="#181809" d="M40.5 380L15 434.5l18 4.3-4-21" />
      <path fill="#ddb594" d="M458.3 355.5l26 1.4-10.3-3-9 26.2" />
      <path fill="#52554d" d="M677.5 340.5l-25 5.8 47 4.4-36.4 7.5" />
      <path fill="#ddaf82" d="M850 405l76.2-3.4 56.2 2.2H979" />
      <path fill="#778070" d="M935.3 191l-20.7-18.6-22 3.6 30.2 16.3" />
      <path fill="#6c85a6" d="M581.8 329.2H620l-50.4-25.8 26.7 10.3" />
      <path fill="#3d3932" d="M947.6 375.3l5.8-7.2 25 9-6.5-7" />
      <path fill="#b0c9da" d="M1055 199L924 91.8 911.6 215l7.4-36.5" />
      <path fill="#a8893b" d="M1018 489l-43.4 5.4-55.8-5.6 81.5-.3" />
      <path fill="#614c12" d="M703.6 575l-15 4-65.7 1.5 74-18.3" />
      <path fill="#939830" d="M259.7 645.6L249 580.2l18.8 15.7-142.3 117" />
      <path fill="#d9a875" d="M16.2 362.3l13.3 2 1 33-5.8.2" />
      <path fill="#452a25" d="M596.3 369.8l-62.3-46 45 34.3 1.2-29" />
      <path fill="#ab7748" d="M123.7 511l-16.4-9.2 16.7-9.4 6 18.8" />
      <path fill="#5a4d09" d="M304.4 432.6l11.2 4-19.6 51-16.4-21.3" />
      <path fill="#f1ebe8" d="M728.4 410.8l-14.2 6.5 16.5-1.3-2.5-15.4" />
      <path fill="#534412" d="M570 427.5l1 65-5-15.5 25.3-38" />
      <path fill="#9c9a2b" d="M-31 559l76.8-1 154-1-114 18.6" />
      <path fill="#af825d" d="M450 407l-30.6-19.4 59.7-8.2-58 31" />
      <path fill="#764723" d="M514.2 384.4l65.5 25.2 12 12-47.4-24.2" />
      <path fill="#c49664" d="M642.4 488.7l-3-14-41 17 42.7-8.3" />
      <path fill="#51430c" d="M366.4 396.7l13.7 90-8-5.4 13-70" />
      <path fill="#463735" d="M279.4 424.8l-8.4 41.8 6.5 26.2 3.4-45.2" />
      <path fill="#5e4838" d="M564 350.5l11.3 4-9.4-21.8 16-18.7" />
      <path fill="#302216" d="M700 435.2l8.7-58-24.4 3.2 9.2 3" />
      <path fill="#211c09" d="M385.6 502.2h29l-28-14 16.4-64" />
      <path fill="#bd6242" d="M657 356.6l32.2 22.3-94.4-1-6.4-2" />
      <path fill="#bfced5" d="M875.6 211.6l1.4 3.6 7.5 6.5-1.6-12.3" />
      <path fill="#8b494b" d="M481.7 505.5l-27 2.3L428 509l-101-4.4" />
      <path fill="#cb9c77" d="M568.5 357l-45-3.7L572 395l-31.2-.8" />
      <path fill="#3e3128" d="M273 312l14.6 20-3 10.4-.2 2.3" />
      <path fill="#776125" d="M26.6 510.7L20 478.4l3.5-23 7.3 110.8" />
      <path fill="#6b859e" d="M83.3 303.2l104.4 4.5L259 321l-95 21" />
      <path fill="#f6ce96" d="M779.5 471.3l-2.3 13.2-8-5 2.6-15.3" />
      <path fill="#a9c4d9" d="M1055 144.7L865.8-15.6 170 134.6l293-2.5" />
      <path fill="#3e2f2b" d="M326.8 533.6l15.8 37 3.4-9.7-15-9" />
      <path fill="#624232" d="M143 361.4l51 32.5-38.8-45-61.5 5" />
      <path fill="#b2c7d5" d="M959.5 179.8l-51 29v2.4l115.2-58.7" />
      <path fill="#d8ac63" d="M550.4 336.4l-65.2-1 28.8-26.8 28.6 31.7" />
      <path fill="#cfa66b" d="M970.8 476l11-1.4-18 30 20.2-10" />
      <path fill="#aeb5b8" d="M949.6 293.2L888.8 327l-24-25 49.7 14.2" />
      <path fill="#b08557" d="M721 502l-22-5.8 5.5 8.6 14-12" />
      <path fill="#605124" d="M753 366.5l6.8 17.2-34.2-1L740 367" />
      <path fill="#d1a072" d="M85.8 411l1.5-36.6L63 363l15.8 75.7" />
      <path fill="#af6448" d="M1055 344l-149.2-3 103.4-76 20-.2" />
      <path fill="#534546" d="M472 509l-80-18.5 41.6 4.5 11 5.4" />
      <path fill="#cdcccf" d="M265.3 243l111.4 20.4L316 308l-1.2-7.7" />
      <path fill="#845e3e" d="M497.8 457l6 30-7.8-38.5-23 32" />
      <path fill="#6e5739" d="M340.6 390.2l88.8-3-25.2-2.3-70.4-3" />
      <path fill="#a6806a" d="M735.8 524.2L740 510l29.8-4 9.2 24.3" />
      <path fill="#8f9419" d="M462.3 516.3l7.6 10.5-132 10.4-36-11.7" />
      <path fill="#d6a574" d="M292 386l120 11.4-85.3 6-3.3-14.4" />
      <path fill="#cdd2d6" d="M92.2 297.6l33-20.3-66-14.6-39 11" />
      <path fill="#322d0c" d="M386.6 495l28-5-23-.7-129.3 2.2" />
      <path fill="#030709" d="M832.6 560l-1-4.5-12.4 13.5 8.5 19" />
      <path fill="#22180a" d="M835.4 504.3l10.4-70-17-3 6.7 42.8" />
      <path fill="#8b9321" d="M157.3 673.4L120 633l-145 80 273.7-100.8" />
      <path fill="#daab78" d="M792.7 472.6l1.7 11 6.4-8.2-4-29.7" />
      <path fill="#322b0c" d="M598.6 471.6l-6.2-38.4 47.7 62-27-48.6" />
      <path fill="#7d603a" d="M132.2 529.6l.3-23.8 7.4-24.6v-90.4" />
      <path fill="#c8a884" d="M844.3 484.5l8.3.2-12.8-29 3.7 4.2" />
      <path fill="#c6927a" d="M-24.6 253.2l.4-11L46 287.4l-35-17" />
      <path fill="#d1a579" d="M909.3 407l7.5-59.3-5.5 110.5 55.4-43" />
      <path fill="#442d1e" d="M456 478.4l-2-15.3-5.5 3-4.5 26" />
      <path fill="#89701d" d="M470 571.8l162 4-26 6.4-72.4-4.3" />
      <path fill="#b39079" d="M-31 645.3l179.5-61-63.3 6-78 21" />
      <path fill="#888a1d" d="M459.6 627.7l154 30.8-201 8L375 672" />
      <path fill="#ac915c" d="M488.7 376.8l-10.5-43 30.4 5L495 320" />
      <path fill="#b8875e" d="M647.5 499.8l19.8 2.3 9-6h-34.8" />
      <path fill="#aa8055" d="M542.4 490.2L529.6 437l35.4 56 3-38.7" />
      <path fill="#bbbcc5" d="M342 318.6l18 3.5-15.6-58 121.2 37" />
      <path fill="#c2b8b6" d="M811.2 519.8l4.3 34.5L806 525l8.7-7.4" />
      <path fill="#3e3413" d="M111 505.3L89.7 508l14 19.8 4-31.6" />
      <path fill="#39430f" d="M-29 590.5l82.7 7-51 11.8 17.4-8.7" />
      <path fill="#d4a06d" d="M125.2 374.2l4.3 31.5 19-47-1 36" />
      <path fill="#d4a475" d="M853 482.4h30l-.7-65.5-12.3 64" />
      <path fill="#b3b3ac" d="M535 341.8l-5.6-10-18.8 27 .5-14.4" />
      <path fill="#cea06f" d="M804.4 423.7l-4.7 45.5-40.6-55 13 7.5" />
      <path fill="#9f4e33" d="M315.3 407.8l-20.8-5.4-18.2-19.8 50.4 7.7" />
      <path fill="#231c1b" d="M60.6 385l4.3-8.6-1 23.2-12 2.6" />
      <path fill="#d7baa6" d="M493.3 351.8l-2.8 17.2-11.5 10.3 22.3-14.3" />
      <path fill="#7a3438" d="M901.8 508.7l30.6-.3 7.4-2.3H828.2" />
      <path fill="#a57a45" d="M300.5 495.3l82 2.8 3.2-3-18.8 1" />
      <path fill="#332a23" d="M839 489l-111.4 5.8-.2 5-12.6 7.7" />
      <path fill="#070707" d="M495.2 472.6L513 461l6.3 4.2-19.5 23.4" />
      <path fill="#947b5a" d="M722 337.4l11.2 18.8-75.3-1.6 33 7.2" />
      <path fill="#423d15" d="M858.7 569.6l-28 3.7-41.7 15.4-46.3-.5" />
      <path fill="#a1a8b6" d="M271.3 297.2l-99.8-8 3 20.4 96.6-8.2" />
      <path fill="#826747" d="M677.6 472l7.7 15.4 35-1.6-45-7" />
      <path fill="#676800" d="M894.2 488.2l160.8.4-115.3-7.5 52.8 8" />
      <path fill="#c79667" d="M190.7 428.8l-8-6.4 65-4-19.2 43.4" />
      <path fill="#a5a03c" d="M725.8 553l-68 10.4 11.6-39.7 60.7 33.6" />
      <path fill="#878f12" d="M155 623l73.7-27.8-52.3 33.2-71.3 15.3" />
      <path fill="#1b180c" d="M354.2 449L341 474l74.8-7 17 23" />
      <path fill="#989921" d="M480 533l165.7-.3-46 26.8-29.4-42.8" />
    </g>
    <g class="SVG--2">
      <path fill="#6e5b3b" d="M887.5 213l30.5-40-41 58.6 18.3-2.6" />
      <path fill="#c0b07b" d="M652.4 334.3l1 8.3 2.8 1 39.5-11.6" />
      <path fill="#7588a2" d="M409.7 319.7l32.5 5.5-41 4.6-47.6-7" />
      <path fill="#9b6962" d="M172.3 505.4l349-2.5-202.8 4-104.4-1" />
      <path fill="#372729" d="M429.8 322.8l14.4-6.4L485 320l-17.6-5" />
      <path fill="#322f0d" d="M393.7 585.4l-75-5.3-7.7 6 45.7 4" />
      <path fill="#a49e37" d="M721.4 592.2l140.2 14-10.3-22.7 50.3 14.6" />
      <path fill="#c89567" d="M489 439.3l-9 53.3-1.6-77.8-20.7 37.8" />
      <path fill="#4d3e13" d="M702 414.5l17 6.7-119.4 20 63.2-6.6" />
      <path fill="#ca9b69" d="M157 483.8l-17.7 1.3 7-8-33.7-17" />
      <path fill="#d2a579" d="M988.6 452.8l66.4-62.5-103 36.4 15.6 7" />
      <path fill="#101206" d="M385 416.6l-1.6 62 38-6-18-8.4" />
      <path fill="#322226" d="M586.5 315l-9.7 3 12.2 51-7.7-15.3" />
      <path fill="#d1c8cb" d="M864.8 255.8l23.7-17.3-1.4-4.7-22 34.7" />
      <path fill="#9c9e23" d="M1055 565l-12.7-36.6-243 14.8 129-20" />
      <path fill="#35300e" d="M616.4 489.7l35.3-.7 156 2.7-152.4 2" />
      <path fill="#60512f" d="M835 362.2l8.2 24-33.5-27.7 17.3.8" />
      <path fill="#0e0805" d="M209.2 449.2l-53.5 40 9.6-50.7 17-7.5" />
      <path fill="#bd644e" d="M566.3 316l18.2-1.7-59-27.2-1.8 24" />
      <path fill="#0e1308" d="M12.5 379.2L12 407l-20 97.4-23-95.8" />
      <path fill="#8d984d" d="M310 550h-21.5l47-27-36.5 4" />
      <path fill="#cc9864" d="M483.6 415.2l-37.2 15.4-15 64.4-.7-29" />
      <path fill="#7d8110" d="M698 522l-30.7-4 32-8.6 49 49.6" />
      <path fill="#d3a679" d="M1013.8 414.8l-3.4-26.4 1-29 3.4 9" />
      <path fill="#b5b8c3" d="M778.4 322.2l2.4-10-25.6-28.5 80 12.5" />
      <path fill="#a38675" d="M862 263.5l-.7 34.6-1.7-15-1-64" />
      <path fill="#59641b" d="M377 542.7l7.3-1.3 104.5-3.4-126.8-.5" />
      <path fill="#e5b506" d="M287 546.8l-10.3 21 2.6-30.3 4.2 6.7" />
      <path fill="#2c1f15" d="M636.5 484.8l-17.3 9 12.8 7-10 4" />
      <path fill="#1f210a" d="M733.2 443.5l-6.3-.7-76 46.6 35-11.8" />
      <path fill="#655a28" d="M79.6 578.3l-48.7 1 10 4.4-47-.5" />
      <path fill="#423420" d="M894 501.7l-70-11.3 51.7-1.3h.8" />
      <path fill="#887555" d="M728.3 318.4L761 341l26.3-17.2-90.2 3.6" />
      <path fill="#122804" d="M-31 514.3l36.5-1 53.6 1.3-47 4" />
      <path fill="#090906" d="M161 481.4l41.3 5-43-41 10.2 26" />
      <path fill="#bcbac2" d="M585.7 315.8l-32-16.3-33-23.5 95.7-5" />
      <path fill="#798b93" d="M209.4 354.5l20.4-46 30.5 32.3-62.7-13.2" />
      <path fill="#ca9d6a" d="M897.3 363.7l-23.4 48-7-62.3 29 61.8" />
      <path fill="#c2903d" d="M539.8 568.7l51-4-40-4 108 3.4" />
      <path fill="#c29f72" d="M210.5 473l2 11.4-.7 9L220 432" />
      <path fill="#898168" d="M918.2 200l-1-4.7L890 201l49 6.6" />
      <path fill="#2b250a" d="M648.2 587.7l-41 .6h-90.7l21-3.2" />
      <path fill="#7a633e" d="M742.4 452.7l-40.3 15 56-22.3-12 22.8" />
      <path fill="#bc8562" d="M605 507l20.3-19.5-5.3 12.7 3.7 2.5" />
      <path fill="#483b37" d="M256.8 503.6l64.8.5-60.2-11-5.6-10" />
      <path fill="#818815" d="M37.8 600.3L-31 597l82.8 116L-31 609" />
      <path fill="#bbcfde" d="M953.4 178l-42 56.7L1004 264l50.8-60" />
      <path fill="#aa8055" d="M208 507.5l-13-.7 8.2-24-10.5-16.3" />
      <path fill="#be9367" d="M35.4 366.2l-29.5.5 6-12.6-3 6" />
      <path fill="#020502" d="M224.7 590.5L207.2 573l18.8-15.4-1.7 3.6" />
      <path fill="#9c992f" d="M781.6 601l21-10-104.5-2-180 2.7" />
      <path fill="#958677" d="M939 460l-4.3 42.4-4-7.4 8.6.7" />
      <path fill="#77664f" d="M282.8 324.5l12.7-15.6-18.8-6 12 19" />
      <path fill="#464538" d="M907.2 216.7h19.2L921 203l-10.7 25.6" />
      <path fill="#ba9e8b" d="M626.6 504.3l-30.4 1-111-1.7 113.6-13.4" />
      <path fill="#3d4618" d="M191 368.4l12.5-25.5 6.2 17-8.7 19" />
      <path fill="#4b361f" d="M39.7 473.3l6.5 35.8 21.6-58-15 8" />
      <path fill="#582832" d="M708.2 405.6l-.3-24.3 60 21-16 .7" />
      <path fill="#869123" d="M856.3 624.5l112.4 37.7-154-16 85 45" />
      <path fill="#bc9784" d="M729.5 366.8l-2.2 6.8-6.6-6.4-.3-23.7" />
      <path fill="#2e2620" d="M323.8 547.3l4.3.5-7-24.3 10 31.2" />
      <path fill="#9b583e" d="M315.8 381.6l31.7-10.2L379 349l-64.6 27.2" />
      <path fill="#726961" d="M478.5 495.2l-34.3 10.4 16-8h62.4" />
      <path fill="#675208" d="M595 422l8 10 54.2-39.3L673 408" />
      <path fill="#929b32" d="M712 589.6l177.7 99.8-77.5-37-59-14" />
      <path fill="#514416" d="M793.5 503.4L776 486l14 7 2-35.4" />
      <path fill="#a07a5d" d="M552.6 375.3l26-19.3-16.6 45-12.6-80.5" />
      <path fill="#d9ac7d" d="M893.8 484.7l-9-5.7 38.2-61.5-3 67" />
      <path fill="#444241" d="M251.5 535l17-23.5 65-1.7-68 16.3" />
      <path fill="#635521" d="M208.7 488l14.7 17-13.7-5 94.2-9.5" />
      <path fill="#dbab78" d="M947 391l-11 8.8-6.8-29 18.4-6.7" />
      <path fill="#9b9c21" d="M769.3 517.3l35 17.3 2 12.2 1.7-31.3" />
      <path fill="#ad874c" d="M891.2 489.3l-2.3 7 11 15.7 2-39" />
      <path fill="#ad8e3e" d="M251.8 491l22.3-1.4 13-8.3 13 6" />
      <path fill="#8c664b" d="M890.8 363.2l3.3-6.3 161 3-79 4" />
      <path fill="#516032" d="M288.4 537.7l26.6 2 22-10-53 17.2" />
      <path fill="#a7a49d" d="M718.2 323l32.5 15.3-58-33.5 28.3 3.7" />
      <path fill="#140e09" d="M1020.7 473.2l-10.6-39.8 45-7-49 39" />
      <path fill="#c49167" d="M70.4 369l8-2.2-17.8-5.6 100 .2" />
      <path fill="#1f2716" d="M343.4 506l1.5-7.4-3-7.8-2 6" />
      <path fill="#fad9a5" d="M607.6 386l2.8 16.5-6.8-3.8 1.3-16" />
      <path fill="#181707" d="M681.5 462l-41-62.8 82.8 86.5-50.8-20" />
      <path fill="#bbcad8" d="M779.5 15.5l-131 7L727.2 35 701 30.4" />
      <path fill="#473728" d="M762.2 427l19 18.5 4.3 10.2-1.4 2" />
      <path fill="#352a0e" d="M781.5 489.7l-7.3 10.7 13-6-4.6-31.6" />
      <path fill="#59483f" d="M545 396.2l31.4 3.5-12.6 8.8 12-13" />
      <path fill="#271e14" d="M837 359l-12.6 18.5-22.6 1.4 61.5-28" />
      <path fill="#87785f" d="M913 219.5l-20-3.5.3 65.5L889 246" />
      <path fill="#4c3b1a" d="M152 512l-1-28-.4-26 6.3 70.3" />
      <path fill="#d0cacc" d="M443.8 310.5l42.5-25.5 11.3-18.8L420 260" />
      <path fill="#a1a434" d="M800.2 502.6l82-1 172.8.8-159.8 2" />
      <path fill="#a5bfd7" d="M-31 131.4l150-16L146.2 61l-158-13.4" />
      <path fill="#906b49" d="M512.5 398.3l-.8 52-4.4-60.2-73 43" />
      <path fill="#a19b7a" d="M857.6 184l-30.4 6.3 20.2 14.3-9.3-19" />
      <path fill="#bbb7b3" d="M874.3 311.2l-.6 5.3 17-8.2-34.8-37.5" />
      <path fill="#2c2120" d="M114.5 376.7L95.3 365 91 377l21.3-12" />
      <path fill="#12100f" d="M211.5 475l-32.4-.3 13 14.6-12-33.5" />
      <path fill="#926c47" d="M207 465.5l-1.2-11 89-35.6-92.6 36" />
      <path fill="#67530b" d="M234 577.2l42.2 5.3-43.8-18.3 30.2-3" />
      <path fill="#996756" d="M832 354.8l69.6-34.3-74.6 40-3-3" />
      <path fill="#98962b" d="M586.7 661.8l-79.3.5 81.3 50.7 140.7-39" />
      <path fill="#d4a879" d="M993.7 474.2l-16-111.2-2.7 2.3 19.5 1.5" />
      <path fill="#523c2a" d="M619 324l.3 31.4-22.5 10 3.8 28.5" />
      <path fill="#44301d" d="M16.7 482L6.5 456.7l-28 168.7-9.5-113" />
      <path fill="#272314" d="M-31 406.6l80 13.6-36.4-22.5 2.8-6.5" />
      <path fill="#221d0b" d="M413.5 473.6l-15.3-24.4-9.6 37.8-35.3-.7" />
      <path fill="#d4a170" d="M548.5 427l14 69.3-38-105.5 56.5 32.5" />
      <path fill="#706916" d="M823.7 490l58-7.6 4.5-4.7 1.7 12.6" />
      <path fill="#835740" d="M304.6 550.6l11.8 26-2.7-9.5-13 15" />
      <path fill="#252515" d="M298.8 492.7l-1 13.4-36.8-28 31.7 19" />
      <path fill="#a4bfd5" d="M467.3 71l211.5 32.5 65.5-19L655 20" />
      <path fill="#9b5843" d="M-31 342.4l94.5.4 79-6L-31 249.3" />
      <path fill="#d8a168" d="M539.3 327l24.6-2.7 2 18-25-14.8" />
      <path fill="#967c70" d="M295.6 527l-26.6 1-38 14.3 74-13.6" />
      <path fill="#a68572" d="M269 364l9.5-12.5-2.2-11-8.8-2.7" />
      <path fill="#cea16f" d="M31.3 461l-5.6-27.7L19 484l-2.7-36.5" />
      <path fill="#553b35" d="M463.8 391l1 8-13.4 15.5 1.4 3.8" />
      <path fill="#8a9215" d="M1055 653.2l-150.8-42.8 37.2 13.4 69 25" />
      <path fill="#baa300" d="M372.2 568.4l10.3-4.7-28.8 1.7-10.2 4.3" />
      <path fill="#c5c5cb" d="M221.7 294.5l17-13.2 55.4 25.2 6-72.3" />
      <path fill="#b38e64" d="M573 314.8l6 80 44.2-2.7-37 4" />
      <path fill="#504011" d="M313.6 406.7l37 47.8L332 484l-5.8-80.6" />
      <path fill="#50461a" d="M176.4 569l-8.4 3.2 1.4-5.2 83.7-34.2" />
      <path fill="#879124" d="M361.4 604l-126.7 80-76.8 28.7 132-88" />
      <path fill="#c8946b" d="M313.4 431l-22.6-.8 26.8-10.7-5.7 9.2" />
      <path fill="#473223" d="M973.2 473.3l-2-26 11.4 18.8-4.2 7" />
      <path fill="#a27859" d="M763.2 390l-.7-41.7-13.7-5.8 20 37.2" />
      <path fill="#28210d" d="M622.5 426L586 450.5l16 26-15.8 5.2" />
      <path fill="#eab875" d="M757.8 486l-7.4-1.6 10.4-43.7.5 37.4" />
      <path fill="#b2cadb" d="M850.2 205l-18-41.6L1003 187l-169.6-83" />
      <path fill="#7c794e" d="M864 196.7l6.2-21-14.3-.5-12 3" />
      <path fill="#dbaa77" d="M36.5 482l-4 7 7.8-14-22.5 4" />
      <path fill="#16170e" d="M-31 431.7l74.6-34 2-10.5-62 37.3" />
      <path fill="#4f302f" d="M703 405l19 7 15.7-62.3L739 372" />
      <path fill="#b9cdde" d="M822.6 172.8l12 47-182.2-12 188-17.7" />
      <path fill="#e9c28a" d="M613.6 502.5L602.8 470l2.7 18.7 1.2 9" />
      <path fill="#bb634a" d="M538.6 288L525 307.4 494 282l-37 31.8" />
      <path fill="#bf9569" d="M57.5 378.6L-31 377l168-.4-68 3.3" />
      <path fill="#a78969" d="M232 549.5l-5.2 33 9.4-24.8-27.4-2.3" />
      <path fill="#b38d62" d="M50.4 369.7l-1.6 65.5-3-85.6-1-5.8" />
      <path fill="#8b8c0f" d="M707.8 507.8l-150.4 3.4 68.3 49-26.7-27.5" />
      <path fill="#7b6f47" d="M911.6 198.6l-19.2-20 20.6-5.2-22.3 81.4" />
      <path fill="#969625" d="M176.5 537.2l-76 2 68.3-10.7 84 6" />
      <path fill="#6d635b" d="M475 499l-6.5-4.4 35.6-.5-6 7" />
      <path fill="#969b2d" d="M278.7 586.7L125 650l-154.2 54.4L125.3 642" />
      <path fill="#a7a298" d="M317.4 315.8l60.3-13-44.2 14.7-30-10.7" />
      <path fill="#999a2e" d="M146.3 602l284.5-13.4L249 629l-19-43" />
      <path fill="#dda56b" d="M777.8 446.2L776 450l-3-1.4 6.4 33" />
      <path fill="#a5a338" d="M537 542l-18 10.8 34.4 3.2 55.7-14.2" />
      <path fill="#dddad7" d="M862 233.7l54.7-42-99.8 84-160-26.4" />
      <path fill="#17140a" d="M18 463.6l-47.7-96.4 45 108.6 2.6-16" />
      <path fill="#cc9c6b" d="M108.3 431.5l-34-2 30 57-3-126" />
      <path fill="#b1a28d" d="M269.4 287l-20.6 48.7-12.4-20.2 17.6 15" />
      <path fill="#644e24" d="M141 493.6l22-37-11.3 6.4-8.3 66.2" />
      <path fill="#b2765f" d="M386 330.6l-29.6 19.6 68.5-4.4-7-16.5" />
      <path fill="#746b2a" d="M770.3 515.2l93.8-1.5 27-6-113 3.3" />
      <path fill="#977a00" d="M342 406.8l-13.7 21.8 1-16 38.7-11" />
      <path fill="#503e35" d="M739.8 366.6l-.5-9.8-8.6-30.7-1.7 26" />
      <path fill="#51473c" d="M997 367.7V381l22.2-13 35.8 15.3" />
      <path fill="#965539" d="M219.7 409l104-13.4-97.5-5.5-80.2 17" />
      <path fill="#5c4329" d="M-31 401l-2.7 34.2 76.4-2.8-28.4 11.8" />
      <path fill="#d1a06e" d="M115 418.8l21.4 28.2-23.7.6L36 400" />
      <path fill="#060504" d="M40 437.3l2.5 32.7-11.5 4.8 6.7-22.4" />
      <path fill="#a86952" d="M836.2 375.3L843 365l-45.6 30.6 38.7-18" />
      <path fill="#483d1a" d="M227.3 356l9.4 23.7 26-24.5L246 344" />
      <path fill="#9a7924" d="M595 348.6l12-2.8-10.8-16.2-11.3 19" />
      <path fill="#bc9361" d="M602.2 372.7L563.8 400l-1-5-26.3-3.5" />
      <path fill="#dda95f" d="M625 397l6.6-4.5 19-4-5.4 7.3" />
      <path fill="#0d0d06" d="M682.4 480.3l36-7.8-70.2-33.4 42.4 4" />
      <path fill="#a16857" d="M232.5 494.2l2.5 12.5 81.4 1-88.8-5" />
      <path fill="#0e1008" d="M69.3 493.6L67 460.3l4.6-28.4 14.7 45" />
      <path fill="#342a18" d="M327 317.3l-5.2 54.4-8.2-28 13-37.4" />
      <path fill="#7a5a41" d="M620.7 382l-2.7 7.4 25.4 1 55.2-4.4" />
      <path fill="#1d1b14" d="M316.3 341l-9.7 5.8 39.5-10.4 5 27.3" />
      <path fill="#101707" d="M8 354.5l-39 103L4.2 431l-27.7-138" />
      <path fill="#8d6f3f" d="M738.3 340.7l4-25.4-1.2 15L755 436" />
      <path fill="#95837b" d="M902 352.3l-9.6-16.7 3.5-65-10 52.8" />
      <path fill="#130e0c" d="M86.4 470.5l-2.7-21-20-19.7 20 52.8" />
      <path fill="#6d3934" d="M742 408.6l-11 5 5.8-25.2L771 409" />
      <path fill="#854835" d="M546 507l-39.4-1.5 76-.4-22.6 7" />
      <path fill="#58470c" d="M409.7 429.2l-13 28-5.4-61.5 15.3 62.7" />
      <path fill="#716323" d="M19 504l16.5-22-29 7.4-37.5-31" />
      <path fill="#211f1d" d="M18.3 375l-49.3.2v-21.4l42 14.6" />
      <path fill="#d4673b" d="M444 340.3l-5.4 18.6-5.6-2-6-28" />
      <path fill="#534d4a" d="M959.6 396.7l-4.4 5.4-11.3-4 14-17" />
      <path fill="#617f9d" d="M628 309.7l-49 16.5 78.6 3-2.6-8.8" />
      <path fill="#5d535a" d="M1002.8 398.2l8.6-17.2-17 21.7 12.8-1.6" />
      <path fill="#261914" d="M325.8 550.3l5-1.8v-20.8l-6 15.4" />
      <path fill="#d9aa7e" d="M1011.4 420l-.2-42.7 36.2 4.5-32.3-1.8" />
      <path fill="#976d4a" d="M468.2 473.6L465 469l2-15.3 19.2-20.5" />
      <path fill="#99982e" d="M491 616l190-18.4-199.6-8.6-14.8 120.6" />
      <path fill="#2b0e12" d="M317.7 408.7l-16 .3 17.3 2.8 4.3-1.3" />
      <path fill="#543d29" d="M726 465l15.2 26.2.4-10-29.8-1.4" />
      <path fill="#847828" d="M661.3 487.4L659 476l6.8-5-23 93.3" />
      <path fill="#ce9582" d="M83.4 302.6l-66-29.8 41 22 63.4 29" />
      <path fill="#524e4c" d="M1008 402.8l2.2-4.5-1.8-16.6-13.6-.2" />
      <path fill="#b58753" d="M523 415.2l49.7 44-22.2-8.5-25.4-43" />
      <path fill="#715920" d="M994.8 510.6l3.5-26.2-9.2 25.8-11-39" />
      <path fill="#9e9c1f" d="M-22 543.6L33.2 531l77 4.4L-31 544" />
      <path fill="#1c1908" d="M658 436.7L615.7 481l20.6-67.5 8 80" />
      <path fill="#c2a777" d="M87 583l21-17.2-9.7 14.4-78.2 4" />
      <path fill="#dfb68a" d="M995 475.2l-1.7 7-23.6-6.3 26.6-3" />
      <path fill="#b68e56" d="M26.4 491l5 15.2 4-21.5 9.2 8" />
      <path fill="#917c22" d="M716 488.3l-132 .4 144-3.6 21.6 2" />
      <path fill="#25200b" d="M357.4 486.6L352 429l-2-28.2 19 82.6" />
      <path fill="#d4a473" d="M826.3 429.2l-41.4 36 3-28L985 411" />
      <path fill="#34281f" d="M257.3 361.3l60.5 17.2-84 3.6 40.8-36" />
      <path fill="#5e501a" d="M483.6 553.3l1 2.6 13 3-76.4 1" />
      <path fill="#e2b991" d="M543 356.4l-4-5.4 9.2 41-3.4-45.6" />
      <path fill="#c1c0c3" d="M979.8 250.2L908 302.6l10.2 10.3 22.8-13" />
      <path fill="#26190d" d="M782 457.4l3 31.4-2-38.3-10.7-14" />
      <path fill="#bc8b5f" d="M444 412.8l7.4-33.8 12.3-9-35.5 42.4" />
      <path fill="#6c4d24" d="M651.3 556l-82.5 4 26.5 1.4 70-1.5" />
      <path fill="#d49d65" d="M395.6 410.2l17 3.2 4.6-1.2L408 393" />
      <path fill="#79523d" d="M927 471.6l-4-17 .5 26 8.3 3.2" />
      <path fill="#6a5a30" d="M212.8 357l-63.6 15 97-17.5 21-23.3" />
      <path fill="#d4d2d6" d="M890 272.7l-29-46.3 5.2 42.7 25.5 23" />
      <path fill="#cf9e71" d="M108 439.6l21.5-72-43.3-3 52-1.5" />
      <path fill="#54530d" d="M89 487.6l14.2 38.2L83.5 485l-96.5 2" />
      <path fill="#80880e" d="M122.4 669.6L46.2 668l71-6.8L187 637" />
      <path fill="#2d2524" d="M849 587l-33.5-4.8-6-5.4 49 5.6" />
      <path fill="#cb9e67" d="M223.3 501l3.4 11.2-8.6-48 10-13.4" />
      <path fill="#6a7b84" d="M811 332.4l14 15-37.8-25.7 76 7.3" />
      <path fill="#61501e" d="M626.2 445l-31.4 15.2-49.7 43 83-70" />
      <path fill="#796113" d="M733.4 579.5l62-10-36.3-10.7-12 27.5" />
      <path fill="#775d0c" d="M657 400.8l-30 22.5-7.8-31.8-8 27.3" />
      <path fill="#9d8572" d="M418.8 390l31.2-15.5-21.3-2.6 8.3 21" />
      <path fill="#919419" d="M838 589.2l-20.5-2.5 63 19.6 109 28.7" />
      <path fill="#755e4a" d="M764.4 399.3l1.4 106-3.2-39L764 451" />
      <path fill="#6f5438" d="M264.3 422.6L244.8 344l9.3 17.7-8-53.5" />
      <path fill="#e1c293" d="M866.4 381.6l1.6 23.7 4.6-24L859 367" />
      <path fill="#72563d" d="M723.2 445l34.4-30.3-48 8.8 15 30.3" />
      <path fill="#89654f" d="M278.8 294l-7.7 96.8 22 33-18-29" />
      <path fill="#5b5c4d" d="M695.5 365.2l24.4-3-4-10.4 7-16.2" />
      <path fill="#d3a06d" d="M439.3 340.4l24-15.2 27.7-5-48.4 36.2" />
      <path fill="#85634d" d="M310.6 417.8l-10.2 4.3-36.8-8 34 14" />
      <path fill="#17130d" d="M932 457l41.3 12-1.4-32.8-35 1" />
      <path fill="#64530f" d="M535.3 585l-25 3.7-48-21.2L438 572" />
      <path fill="#987546" d="M161.6 479.2l-104 11.5 71 2.8-91-1" />
      <path fill="#bab8c0" d="M62.2 297.6l99 2-23.6-12.8-41.2 6.2" />
      <path fill="#9a9f2d" d="M748.6 661.5l144 51.5h-138" />
      <path fill="#221608" d="M243 409l-54.2 2 84.4 2 17.5-3.5" />
      <path fill="#351e1f" d="M444.3 315.8l-3.6-2-4 5 43.8-1" />
      <path fill="#d4a471" d="M143.3 407.4l3.8 17.2 31-2-36 40" />
      <path fill="#f6d6a2" d="M750.8 448.8l3.7-7.5-3-5 18.5 1.5" />
      <path fill="#384816" d="M64.7 541.2l42.5 13-134.6 5.8 92.8-21.6" />
      <path fill="#483c18" d="M369.3 476H284l13.7-55.4-5.7 60.8" />
      <path fill="#a57f46" d="M721 518.5l-6.4-24-33.2 2.5 38 6.5" />
      <path fill="#d6d2cf" d="M300.3 403.6l-18.8 12.2 2.8 3 13.4-2.2" />
      <path fill="#b9c7c8" d="M896 185.6l-41.7-24 91 46.8 27.3 14.8" />
      <path fill="#c89867" d="M814 417l-31.3 19.5 33.5 45.2-12 3.2" />
      <path fill="#796014" d="M292 440l15-11.2-23 35.8-6.8-2.2" />
      <path fill="#cc9f69" d="M824.3 485l6.2-15-24 8 27.6-9" />
      <path fill="#cca272" d="M976.4 415.7l5 53 3.2-13.5-32-40.3" />
      <path fill="#a38857" d="M662.6 361.4l35.2-7.6 7.8-2-3.5 6.8" />
      <path fill="#332710" d="M851.4 359l-10-23.7-1.7 12.8 23-1" />
      <path fill="#bea187" d="M124.4 587.8L113 597l-56-15 14.3 1" />
      <path fill="#8b6343" d="M874.3 417.8l36-7.3L774 419l37 1" />
      <path fill="#38330e" d="M683.6 435.8l-1-20.4 62 45.3-41-24.7" />
      <path fill="#66859f" d="M248 315l-9.3 9-.3 17.2L105 300" />
      <path fill="#030908" d="M266.2 477.2l-1-12.4 15-3.5-21 31.8" />
      <path fill="#b69367" d="M291.8 548.6l11.8 19.6-11.5 9.5V523" />
      <path fill="#b48a51" d="M209.2 501.5l-11.3 4-6-2.6 8-22" />
      <path fill="#cb9c51" d="M344.2 401l-59.5 40 45.7-26.2-5.7-10.4" />
      <path fill="#58503f" d="M928 370l-25-1.6 24.3 8.7 4-14" />
      <path fill="#5d4c32" d="M803 371l36-5-21 9.3 52-22" />
      <path fill="#302b0b" d="M345.8 422.3l-43.2 73.4 38-38.8-26-25" />
      <path fill="#765741" d="M854 225.6l4-31-5.6 10.6 9.4 39.3" />
      <path fill="#412f18" d="M1021.6 501.4L1055 366l-37.4 108 16.5 27.2" />
      <path fill="#a4a02e" d="M461.7 537l11.3 5.8-20-21.5-54.7 13" />
      <path fill="#c2a174" d="M578.5 370.3L522 320l78 58-18.3 3.2" />
      <path fill="#cec8c7" d="M906.6 235.5l-2.7 19.3-10 17 13 47.5" />
      <path fill="#554d48" d="M669.2 358l42.4-24.4-22.6 24-59.4-25.3" />
      <path fill="#7c642c" d="M108.5 500.3l15.3-26 29.5 62.2-27.8-58.2" />
      <path fill="#5f5750" d="M909 404.7l3.4-13.4-11.3-11.5-4 20.2" />
      <path fill="#696452" d="M746.6 330l24 26.5-31.5-17.2 5-18.4" />
      <path fill="#cccccb" d="M878.5 305l10.4 13.6-117-66 74 50.6" />
      <path fill="#d5a672" d="M107.6 483.3l-8.8-58 27.3 75.2-24-38.3" />
      <path fill="#b7674b" d="M307 381.4l-56.6 3 14.8.5 62.8-3" />
      <path fill="#3d330a" d="M643 400l-34 27 33-28.7-9.5 62" />
      <path fill="#705732" d="M734.5 552l6-.4-8.3 14.5 6.4 29" />
      <path fill="#201f05" d="M403.2 426l30 34-12.7 11.3 11-27.4" />
      <path fill="#a48323" d="M221 352.8l-2.4 13.5-23.8 12.4 18.3 2.5" />
      <path fill="#352c11" d="M667.7 446.6l16 48-44.5-52.6 6.6 27.7" />
      <path fill="#a79b94" d="M866 314.3l-1.2 28-3.4-26.3 122-44.3" />
      <path fill="#736b41" d="M835.8 595l4.3-38 67-15-58.2 13.2" />
      <path fill="#ab996c" d="M710.7 327.6l5 .5 56.3-18-3.8 9" />
      <path fill="#92912f" d="M333 529.4l-8 1 41.2 36.4-28.5-12.7" />
      <path fill="#9c9b20" d="M48.5 564l-79.5-9 1.5 44.8L-31 616" />
      <path fill="#70581d" d="M102 579.5l-80.5-3.3 45 3.8 126-18.4" />
      <path fill="#ebc240" d="M271.7 546.7L283 533l-3-2.2-17.2 23" />
      <path fill="#474520" d="M314.3 555.5l6.4-47-2 42.8-4.7-4.3" />
      <path fill="#c6925a" d="M571.8 480l.3 2.8v8.4l35-9" />
      <path fill="#77611f" d="M560.3 457.4l-.6 13.5 16-23 1.6 32" />
      <path fill="#825f2b" d="M627.4 336.2l-13 31.6 16.2-4 22.3-14" />
      <path fill="#cfccd1" d="M965.5 268.8l-10.2-22-45-9.7 1.6 50" />
      <path fill="#b3947b" d="M238 558.8l-28.5-4.7 37-5 23.4 3" />
      <path fill="#a7c2d7" d="M1030.3 60L747-31l307.4 157 .6-44.3" />
      <path fill="#e3e0df" d="M694 220.7l-2.7 20.7 112 27.8-19.6-11.8" />
      <path fill="#bd8f5f" d="M21.2 455.7l12.5 6.4 2.8-32L68 417" />
      <path fill="#edc084" d="M738.6 482l4-38.6-3.6 15 9.3 19.7" />
      <path fill="#d2a171" d="M412 488.7l1-9.5-6.2-2.4-18 11.7" />
      <path fill="#a6791d" d="M467 567l97 1-138.8 1.5 14.6-8.8" />
      <path fill="#4e4415" d="M951.7 483.3l24-10.3-12-8.6 12.5 25.8" />
      <path fill="#787f00" d="M75 529l-106 4.4V518l72 2.6" />
      <path fill="#d5a778" d="M952.7 429l-63.5-17.8v74l52.3-49.8" />
      <path fill="#846a1a" d="M418.3 399.5l-44 17.6-44.3 32 22.2-24" />
      <path fill="#b7ccdd" d="M1055 195l-44.3-49.2-85.6 64.4 12 16.6" />
      <path fill="#a09b2e" d="M456.8 591.5l-7.8-1.8-67.6 34.6-6-29" />
      <path fill="#d4d4d7" d="M254 268.4l77.8 16.6-31.5-43.7 93.5 13.8" />
      <path fill="#d7ab7a" d="M872.5 427.4l-2.4 56.2-9-57.2 1 61.3" />
      <path fill="#7e7958" d="M826 208.3l16-7-4 16.7 29.3-2.7" />
      <path fill="#bc915c" d="M194.6 504.7l11-27-9.5-2.7 13 22" />
    </g>
  </g>
</svg>