<svg version="1.1" viewBox="0 0 1024 682" width="1024" height="682" xmlns="http://www.w3.org/2000/svg">
  <g fill-opacity=".5">
    <path fill="#6e5b3b" d="M888 213l30-40-41 59 18-3" />
    <path fill="#c0b07b" d="M652 334l1 9 3 1 40-12" />
    <path fill="#7588a2" d="M410 320l32 5-41 5-47-7" />
    <path fill="#9b6962" d="M172 505l349-2-203 4-104-1" />
    <path fill="#372729" d="M430 323l14-7 41 4-18-5" />
    <path fill="#322f0d" d="M394 585l-75-5-8 6 46 4" />
    <path fill="#a49e37" d="M721 592l141 14-11-22 51 14" />
    <path fill="#c89567" d="M489 439l-9 54-2-78-20 38" />
    <path fill="#4d3e13" d="M702 415l17 6-119 20 63-6" />
    <path fill="#ca9b69" d="M157 484l-18 1 7-8-33-17" />
    <path fill="#d2a579" d="M989 453l66-63-103 37 16 7" />
    <path fill="#101206" d="M385 417l-2 62 38-6-18-9" />
    <path fill="#322226" d="M587 315l-10 3 12 51-8-15" />
    <path fill="#d1c8cb" d="M865 256l23-17-1-5-22 35" />
    <path fill="#9c9e23" d="M1055 565l-13-37-243 15 129-20" />
    <path fill="#35300e" d="M616 490l36-1 156 3-153 2" />
    <path fill="#60512f" d="M835 362l8 24-33-28 17 1" />
    <path fill="#0e0805" d="M209 449l-53 40 9-51 17-7" />
    <path fill="#bd644e" d="M566 316l18-2-58-27-2 24" />
    <path fill="#0e1308" d="M13 379l-1 28-20 97-23-95" />
    <path fill="#8d984d" d="M310 550h-21l47-27-37 4" />
    <path fill="#cc9864" d="M484 415l-38 16-15 64v-29" />
    <path fill="#7d8110" d="M698 522l-31-4 32-9 49 50" />
    <path fill="#d3a679" d="M1014 415l-4-27 1-29 4 9" />
    <path fill="#b5b8c3" d="M778 322l3-10-26-28 80 12" />
    <path fill="#a38675" d="M862 264l-1 34-1-15-1-64" />
    <path fill="#59641b" d="M377 543l7-2 105-3H362" />
    <path fill="#e5b506" d="M287 547l-10 21 2-31 5 7" />
    <path fill="#2c1f15" d="M637 485l-18 9 13 7-10 4" />
    <path fill="#1f210a" d="M733 444l-6-1-76 46 35-11" />
    <path fill="#655a28" d="M80 578l-49 1 10 5-47-1" />
    <path fill="#423420" d="M894 502l-70-12 52-1h1" />
    <path fill="#887555" d="M728 318l33 23 26-17-90 3" />
    <path fill="#122804" d="M-31 514l37-1 53 2-47 4" />
    <path fill="#090906" d="M161 481l41 5-43-41 11 26" />
    <path fill="#bcbac2" d="M586 316l-32-16-33-24 95-5" />
    <path fill="#798b93" d="M209 355l21-46 30 32-62-13" />
    <path fill="#ca9d6a" d="M897 364l-23 48-7-63 29 62" />
    <path fill="#c2903d" d="M540 569l51-4-40-4 108 3" />
    <path fill="#c29f72" d="M211 473l2 11-1 9 8-61" />
    <path fill="#898168" d="M918 200l-1-5-27 6 49 7" />
    <path fill="#2b250a" d="M648 588H517l21-3" />
    <path fill="#7a633e" d="M742 453l-40 15 56-23-12 23" />
    <path fill="#bc8562" d="M605 507l20-19-5 12 4 3" />
    <path fill="#483b37" d="M257 504h65l-61-11-5-10" />
    <path fill="#818815" d="M38 600l-69-3 83 116-83-104" />
    <path fill="#bbcfde" d="M953 178l-42 57 93 29 51-60" />
    <path fill="#aa8055" d="M208 508l-13-1 8-24-10-16" />
    <path fill="#be9367" d="M35 366l-29 1 6-13-3 6" />
    <path fill="#020502" d="M225 591l-18-18 19-15-2 3" />
    <path fill="#9c992f" d="M782 601l21-10-105-2-180 3" />
    <path fill="#958677" d="M939 460l-4 42-4-7 8 1" />
    <path fill="#77664f" d="M283 325l13-16-19-6 12 19" />
    <path fill="#464538" d="M907 217h19l-5-14-11 26" />
    <path fill="#ba9e8b" d="M627 504l-31 1-111-1 114-14" />
    <path fill="#3d4618" d="M191 368l13-25 6 17-9 19" />
    <path fill="#4b361f" d="M40 473l6 36 22-58-15 8" />
    <path fill="#582832" d="M708 406v-25l60 21-16 1" />
    <path fill="#869123" d="M856 625l113 37-154-16 85 45" />
    <path fill="#bc9784" d="M730 367l-3 7-6-7-1-23" />
    <path fill="#2e2620" d="M324 547l4 1-7-25 10 32" />
    <path fill="#9b583e" d="M316 382l32-11 31-22-65 27" />
    <path fill="#726961" d="M479 495l-35 11 16-8h63" />
    <path fill="#675208" d="M595 422l8 10 54-39 16 15" />
    <path fill="#929b32" d="M712 590l178 99-78-37-59-14" />
    <path fill="#514416" d="M794 503l-18-17 14 7 2-35" />
    <path fill="#a07a5d" d="M553 375l26-19-17 45-13-80" />
    <path fill="#d9ac7d" d="M894 485l-9-6 38-61-3 67" />
    <path fill="#444241" d="M252 535l17-23 65-2-68 16" />
    <path fill="#635521" d="M209 488l14 17-13-5 94-9" />
    <path fill="#dbab78" d="M947 391l-11 9-7-29 19-7" />
    <path fill="#9b9c21" d="M769 517l35 18 2 12 2-32" />
    <path fill="#ad874c" d="M891 489l-2 7 11 16 2-39" />
    <path fill="#ad8e3e" d="M252 491l22-1 13-9 13 6" />
    <path fill="#8c664b" d="M891 363l3-6 161 3-79 4" />
    <path fill="#516032" d="M288 538l27 2 22-10-53 17" />
    <path fill="#a7a49d" d="M718 323l33 15-58-33 28 4" />
    <path fill="#140e09" d="M1021 473l-11-40 45-7-49 39" />
    <path fill="#c49167" d="M70 369l8-2-17-6h100" />
    <path fill="#1f2716" d="M343 506l2-7-3-8-2 6" />
    <path fill="#fad9a5" d="M608 386l2 17-6-4 1-16" />
    <path fill="#181707" d="M682 462l-41-63 82 87-51-20" />
    <path fill="#bbcad8" d="M780 16l-131 7 78 12-26-5" />
    <path fill="#473728" d="M762 427l19 19 5 10-2 2" />
    <path fill="#352a0e" d="M782 490l-8 10 13-6-4-31" />
    <path fill="#59483f" d="M545 396l31 4-12 8 12-12" />
    <path fill="#271e14" d="M837 359l-13 19-22 1 61-28" />
    <path fill="#87785f" d="M913 220l-20-4v66l-4-36" />
    <path fill="#4c3b1a" d="M152 512l-1-28v-26l6 70" />
    <path fill="#d0cacc" d="M444 311l42-26 12-19-78-6" />
    <path fill="#a1a434" d="M800 503l82-1h173l-160 2" />
    <path fill="#a5bfd7" d="M-31 131l150-16 27-54-158-13" />
    <path fill="#906b49" d="M513 398l-1 52-5-60-73 43" />
    <path fill="#a19b7a" d="M858 184l-31 6 20 15-9-19" />
    <path fill="#bbb7b3" d="M874 311v5l17-8-35-37" />
    <path fill="#2c2120" d="M115 377l-20-12-4 12 21-12" />
    <path fill="#12100f" d="M212 475h-33l13 14-12-33" />
    <path fill="#926c47" d="M207 466l-1-11 89-36-93 36" />
    <path fill="#67530b" d="M234 577l42 6-44-19 31-3" />
    <path fill="#996756" d="M832 355l70-34-75 40-3-3" />
    <path fill="#98962b" d="M587 662h-80l82 51 140-39" />
    <path fill="#d4a879" d="M994 474l-16-111-3 2 20 2" />
    <path fill="#523c2a" d="M619 324v31l-22 10 4 29" />
    <path fill="#44301d" d="M17 482L7 457l-28 168-10-113" />
    <path fill="#272314" d="M-31 407l80 13-36-22 2-7" />
    <path fill="#221d0b" d="M414 474l-16-25-9 38-36-1" />
    <path fill="#d4a170" d="M549 427l14 69-38-105 56 32" />
    <path fill="#706916" d="M824 490l58-8 4-4 2 12" />
    <path fill="#835740" d="M305 551l11 26-2-10-13 15" />
    <path fill="#252515" d="M299 493l-1 13-37-28 32 19" />
    <path fill="#a4bfd5" d="M467 71l212 33 65-19-89-65" />
    <path fill="#9b5843" d="M-31 342l95 1 79-6-174-88" />
    <path fill="#d8a168" d="M539 327l25-3 2 18-25-14" />
    <path fill="#967c70" d="M296 527l-27 1-38 14 74-13" />
    <path fill="#a68572" d="M269 364l10-12-3-11-8-3" />
    <path fill="#cea16f" d="M31 461l-5-28-7 51-3-36" />
    <path fill="#553b35" d="M464 391l1 8-14 16 2 3" />
    <path fill="#8a9215" d="M1055 653l-151-43 37 14 69 25" />
    <path fill="#baa300" d="M372 568l10-4-28 1-11 5" />
    <path fill="#c5c5cb" d="M222 295l17-14 55 26 6-73" />
    <path fill="#b38e64" d="M573 315l6 80 44-3-37 4" />
    <path fill="#504011" d="M314 407l37 47-19 30-6-81" />
    <path fill="#50461a" d="M176 569l-8 3 1-5 84-34" />
    <path fill="#879124" d="M361 604l-126 80-77 29 132-88" />
    <path fill="#c8946b" d="M313 431l-22-1 27-11-6 10" />
    <path fill="#473223" d="M973 473l-2-26 12 19-5 7" />
    <path fill="#a27859" d="M763 390v-42l-14-5 20 37" />
    <path fill="#28210d" d="M623 426l-37 25 16 26-16 5" />
    <path fill="#eab875" d="M758 486l-8-2 11-43v37" />
    <path fill="#b2cadb" d="M850 205l-18-42 171 24-170-83" />
    <path fill="#7c794e" d="M864 197l6-21-14-1-12 3" />
    <path fill="#dbaa77" d="M37 482l-4 7 7-14-22 4" />
    <path fill="#16170e" d="M-31 432l75-34 2-11-62 37" />
    <path fill="#4f302f" d="M703 405l19 7 16-62 1 22" />
    <path fill="#b9cdde" d="M823 173l12 47-183-12 188-18" />
    <path fill="#e9c28a" d="M614 503l-11-33 2 19 2 9" />
    <path fill="#bb634a" d="M539 288l-14 19-31-25-37 32" />
    <path fill="#bf9569" d="M58 379l-89-2h168l-68 3" />
    <path fill="#a78969" d="M232 550l-5 33 9-25-27-3" />
    <path fill="#b38d62" d="M50 370l-1 65-3-85-1-6" />
    <path fill="#8b8c0f" d="M708 508l-151 3 69 49-27-27" />
    <path fill="#7b6f47" d="M912 199l-20-20 21-6-22 82" />
    <path fill="#969625" d="M177 537l-76 2 68-10 84 6" />
    <path fill="#6d635b" d="M475 499l-6-4 35-1-6 7" />
    <path fill="#969b2d" d="M279 587l-154 63-154 54 154-62" />
    <path fill="#a7a298" d="M317 316l61-13-45 15-29-11" />
    <path fill="#999a2e" d="M146 602l285-13-182 40-19-43" />
    <path fill="#dda56b" d="M778 446l-2 4-3-1 6 33" />
    <path fill="#a5a338" d="M537 542l-18 11 34 3 56-14" />
    <path fill="#dddad7" d="M862 234l55-42-100 84-160-27" />
    <path fill="#17140a" d="M18 464l-48-97 45 109 3-16" />
    <path fill="#cc9c6b" d="M108 432l-34-2 30 57-3-126" />
    <path fill="#b1a28d" d="M269 287l-20 49-13-21 18 16" />
    <path fill="#644e24" d="M141 494l22-37-11 6-9 66" />
    <path fill="#b2765f" d="M386 331l-30 19 69-4-7-17" />
    <path fill="#746b2a" d="M770 515l94-1 27-6-113 3" />
    <path fill="#977a00" d="M342 407l-14 22 1-16 39-11" />
    <path fill="#503e35" d="M740 367l-1-10-8-31-2 26" />
    <path fill="#51473c" d="M997 368v13l22-13 36 15" />
    <path fill="#965539" d="M220 409l104-13-98-6-80 17" />
    <path fill="#5c4329" d="M-31 401l-3 34 77-3-29 12" />
    <path fill="#d1a06e" d="M115 419l21 28-23 1-77-48" />
    <path fill="#060504" d="M40 437l3 33-12 5 7-23" />
    <path fill="#a86952" d="M836 375l7-10-46 31 39-18" />
    <path fill="#483d1a" d="M227 356l10 24 26-25-17-11" />
    <path fill="#9a7924" d="M595 349l12-3-11-16-11 19" />
    <path fill="#bc9361" d="M602 373l-38 27-1-5-27-3" />
    <path fill="#dda95f" d="M625 397l7-4 19-4-6 7" />
    <path fill="#0d0d06" d="M682 480l36-7-70-34 43 4" />
    <path fill="#a16857" d="M233 494l2 13 81 1-88-5" />
    <path fill="#0e1008" d="M69 494l-2-34 5-28 14 45" />
    <path fill="#342a18" d="M327 317l-5 55-8-28 13-38" />
    <path fill="#7a5a41" d="M621 382l-3 7 25 1 56-4" />
    <path fill="#1d1b14" d="M316 341l-9 6 39-11 5 28" />
    <path fill="#101707" d="M8 355l-39 103 35-27-27-138" />
    <path fill="#8d6f3f" d="M738 341l4-26-1 15 14 106" />
    <path fill="#95837b" d="M902 352l-10-16 4-65-10 52" />
    <path fill="#130e0c" d="M86 471l-2-21-20-20 20 53" />
    <path fill="#6d3934" d="M742 409l-11 5 6-26 34 21" />
    <path fill="#854835" d="M546 507l-39-1 76-1-23 7" />
    <path fill="#58470c" d="M410 429l-13 28-6-61 16 62" />
    <path fill="#716323" d="M19 504l17-22-29 7-38-31" />
    <path fill="#211f1d" d="M18 375h-49v-21l42 14" />
    <path fill="#d4673b" d="M444 340l-5 19-6-2-6-28" />
    <path fill="#534d4a" d="M960 397l-5 5-11-4 14-17" />
    <path fill="#617f9d" d="M628 310l-49 16 79 3-3-9" />
    <path fill="#5d535a" d="M1003 398l8-17-17 22 13-2" />
    <path fill="#261914" d="M326 550l5-2v-20l-6 15" />
    <path fill="#d9aa7e" d="M1011 420v-43l36 5-32-2" />
    <path fill="#976d4a" d="M468 474l-3-5 2-15 19-21" />
    <path fill="#99982e" d="M491 616l190-18-200-9-14 121" />
    <path fill="#2b0e12" d="M318 409h-16l17 3 4-1" />
    <path fill="#543d29" d="M726 465l15 26 1-10-30-1" />
    <path fill="#847828" d="M661 487l-2-11 7-5-23 93" />
    <path fill="#ce9582" d="M83 303l-66-30 41 22 64 29" />
    <path fill="#524e4c" d="M1008 403l2-5-2-16-13-1" />
    <path fill="#b58753" d="M523 415l50 44-22-8-26-43" />
    <path fill="#715920" d="M995 511l3-27-9 26-11-39" />
    <path fill="#9e9c1f" d="M-22 544l55-13 77 4-141 9" />
    <path fill="#1c1908" d="M658 437l-42 44 20-67 8 80" />
    <path fill="#c2a777" d="M87 583l21-17-10 14-78 4" />
    <path fill="#dfb68a" d="M995 475l-2 7-23-6 26-3" />
    <path fill="#b68e56" d="M26 491l5 15 4-21 10 8" />
    <path fill="#917c22" d="M716 488l-132 1 144-4 22 2" />
    <path fill="#25200b" d="M357 487l-5-58-2-28 19 82" />
    <path fill="#d4a473" d="M826 429l-41 36 3-28 197-26" />
    <path fill="#34281f" d="M257 361l61 18-84 3 41-36" />
    <path fill="#5e501a" d="M484 553l1 3 13 3-77 1" />
    <path fill="#e2b991" d="M543 356l-4-5 9 41-3-46" />
    <path fill="#c1c0c3" d="M980 250l-72 53 10 10 23-13" />
    <path fill="#26190d" d="M782 457l3 32-2-39-11-14" />
    <path fill="#bc8b5f" d="M444 413l7-34 13-9-36 42" />
    <path fill="#6c4d24" d="M651 556l-82 4 26 1 70-1" />
    <path fill="#d49d65" d="M396 410l17 3 4-1-9-19" />
    <path fill="#79523d" d="M927 472l-4-17 1 26 8 3" />
    <path fill="#6a5a30" d="M213 357l-64 15 97-17 21-24" />
    <path fill="#d4d2d6" d="M890 273l-29-47 5 43 26 23" />
    <path fill="#cf9e71" d="M108 440l22-72-44-3 52-2" />
    <path fill="#54530d" d="M89 488l14 38-19-41-97 2" />
    <path fill="#80880e" d="M122 670l-76-2 71-7 70-24" />
    <path fill="#2d2524" d="M849 587l-33-5-6-5 49 5" />
    <path fill="#cb9e67" d="M223 501l4 11-9-48 10-13" />
    <path fill="#6a7b84" d="M811 332l14 15-38-25 76 7" />
    <path fill="#61501e" d="M626 445l-31 15-50 43 83-70" />
    <path fill="#796113" d="M733 580l62-10-36-11-12 27" />
    <path fill="#775d0c" d="M657 401l-30 22-8-31-8 27" />
    <path fill="#9d8572" d="M419 390l31-15-21-3 8 21" />
    <path fill="#919419" d="M838 589l-20-2 63 19 109 29" />
    <path fill="#755e4a" d="M764 399l2 106-3-39 1-15" />
    <path fill="#6f5438" d="M264 423l-19-79 9 18-8-54" />
    <path fill="#e1c293" d="M866 382l2 23 5-24-14-14" />
    <path fill="#72563d" d="M723 445l35-30-48 8 15 31" />
    <path fill="#89654f" d="M279 294l-8 97 22 33-18-29" />
    <path fill="#5b5c4d" d="M696 365l24-3-4-10 7-16" />
    <path fill="#d3a06d" d="M439 340l24-15 28-5-48 36" />
    <path fill="#85634d" d="M311 418l-11 4-36-8 34 14" />
    <path fill="#17130d" d="M932 457l41 12-1-33-35 1" />
    <path fill="#64530f" d="M535 585l-25 4-48-21-24 4" />
    <path fill="#987546" d="M162 479L58 491l71 2H38" />
    <path fill="#bab8c0" d="M62 298l99 2-23-13-42 6" />
    <path fill="#9a9f2d" d="M749 662l144 51H755" />
    <path fill="#221608" d="M243 409l-54 2 84 2 18-3" />
    <path fill="#351e1f" d="M444 316l-3-2-4 5 43-1" />
    <path fill="#d4a471" d="M143 407l4 18 31-2-36 40" />
    <path fill="#f6d6a2" d="M751 449l3-8-2-5 18 2" />
    <path fill="#384816" d="M65 541l42 13-134 6 92-22" />
    <path fill="#483c18" d="M369 476h-85l14-55-6 60" />
    <path fill="#a57f46" d="M721 519l-6-24-34 2 38 7" />
    <path fill="#d6d2cf" d="M300 404l-18 12 2 3 14-2" />
    <path fill="#b9c7c8" d="M896 186l-42-24 91 46 28 15" />
    <path fill="#c89867" d="M814 417l-31 20 33 45-12 3" />
    <path fill="#796014" d="M292 440l15-11-23 36-7-3" />
    <path fill="#cc9f69" d="M824 485l6-15-23 8 27-9" />
    <path fill="#cca272" d="M976 416l5 53 4-14-32-40" />
    <path fill="#a38857" d="M663 361l35-7 8-2-4 7" />
    <path fill="#332710" d="M851 359l-10-24-1 13 23-1" />
    <path fill="#bea187" d="M124 588l-11 9-56-15 14 1" />
    <path fill="#8b6343" d="M874 418l36-7-136 8 37 1" />
    <path fill="#38330e" d="M684 436l-1-21 62 46-41-25" />
    <path fill="#66859f" d="M248 315l-9 9-1 17-133-41" />
    <path fill="#030908" d="M266 477l-1-12 15-4-21 32" />
    <path fill="#b69367" d="M292 549l12 19-12 10v-55" />
    <path fill="#b48a51" d="M209 502l-11 4-6-3 8-22" />
    <path fill="#cb9c51" d="M344 401l-59 40 45-26-5-11" />
    <path fill="#58503f" d="M928 370l-25-2 24 9 4-14" />
    <path fill="#5d4c32" d="M803 371l36-5-21 9 52-22" />
    <path fill="#302b0b" d="M346 422l-43 74 38-39-26-25" />
    <path fill="#765741" d="M854 226l4-31-6 10 10 39" />
    <path fill="#412f18" d="M1022 501l33-135-37 108 16 27" />
    <path fill="#a4a02e" d="M462 537l11 6-20-22-55 13" />
    <path fill="#c2a174" d="M579 370l-57-50 78 58-18 3" />
    <path fill="#cec8c7" d="M907 236l-3 19-10 17 13 47" />
    <path fill="#554d48" d="M669 358l43-24-23 24-59-26" />
    <path fill="#7c642c" d="M109 500l15-26 29 63-27-59" />
    <path fill="#5f5750" d="M909 405l3-14-11-11-4 20" />
    <path fill="#696452" d="M747 330l24 27-32-18 5-18" />
    <path fill="#cccccb" d="M879 305l10 14-117-66 74 50" />
    <path fill="#d5a672" d="M108 483l-9-58 27 76-24-39" />
    <path fill="#b7674b" d="M307 381l-57 3 15 1 63-3" />
    <path fill="#3d330a" d="M643 400l-34 27 33-29-9 62" />
    <path fill="#705732" d="M735 552h6l-9 14 7 29" />
    <path fill="#201f05" d="M403 426l30 34-13 11 12-27" />
    <path fill="#a48323" d="M221 353l-2 13-24 13 18 2" />
    <path fill="#352c11" d="M668 447l16 48-45-53 7 28" />
    <path fill="#a79b94" d="M866 314l-1 28-4-26 122-44" />
    <path fill="#736b41" d="M836 595l4-38 67-15-58 13" />
    <path fill="#ab996c" d="M711 328h5l56-18-4 9" />
    <path fill="#92912f" d="M333 529l-8 1 41 37-28-13" />
    <path fill="#9c9b20" d="M49 564l-80-9 2 45-2 16" />
    <path fill="#70581d" d="M102 580l-80-4 45 4 126-18" />
    <path fill="#ebc240" d="M272 547l11-14-3-2-17 23" />
    <path fill="#474520" d="M314 556l7-47-2 42-5-4" />
    <path fill="#c6925a" d="M572 480v11l35-9" />
    <path fill="#77611f" d="M560 457v14l16-23 1 32" />
    <path fill="#825f2b" d="M627 336l-13 32 17-4 22-14" />
    <path fill="#cfccd1" d="M966 269l-11-22-45-10 2 50" />
    <path fill="#b3947b" d="M238 559l-28-5 37-5 23 3" />
    <path fill="#a7c2d7" d="M1030 60L747-31l307 157 1-44" />
    <path fill="#e3e0df" d="M694 221l-3 20 112 28-19-12" />
    <path fill="#bd8f5f" d="M21 456l13 6 3-32 31-13" />
    <path fill="#edc084" d="M739 482l4-39-4 15 9 20" />
    <path fill="#d2a171" d="M412 489l1-10-6-2-18 12" />
    <path fill="#a6791d" d="M467 567l97 1-139 2 15-9" />
    <path fill="#4e4415" d="M952 483l24-10-12-9 12 26" />
    <path fill="#787f00" d="M75 529l-106 4v-15l72 3" />
    <path fill="#d5a778" d="M953 429l-64-18v74l53-50" />
    <path fill="#846a1a" d="M418 400l-44 17-44 32 22-24" />
    <path fill="#b7ccdd" d="M1055 195l-44-49-86 64 12 17" />
    <path fill="#a09b2e" d="M457 592l-8-2-68 34-6-29" />
    <path fill="#d4d4d7" d="M254 268l78 17-32-44 94 14" />
    <path fill="#d7ab7a" d="M873 427l-3 57-9-58 1 62" />
    <path fill="#7e7958" d="M826 208l16-7-4 17 29-3" />
    <path fill="#bc915c" d="M195 505l11-27-10-3 13 22" />
  </g>
</svg>