<svg version="1.1" viewBox="0 0 1024 682" xmlns="http://www.w3.org/2000/svg">
  <path fill="#99977d" d="M0 0h1024v682H0z" />
  <g fill-opacity=".5">
    <g class="SVG--0">
      <path fill="#caf1ff" d="M-.036-31L-12.61 297.474l1039.73 4.896L1055-29.272" />
      <path fill="#715100" d="M-27.177 325.7L1055 330.477l-24.537 359.21L-24.617 713" />
      <path fill="#221c04" d="M69.722 563.66l383.074-68.52-40.82-79.988-239.11 28.423" />
      <path d="M709.735 399.33l37.013 108.773-164.306-37.267-3.722-52.603" />
      <path fill="#db8d71" d="M554.19 502.132L400.31 353.16l120.21-97.013 69.484 124.82" />
      <path fill="#e3a88f" d="M859.98 470.52l-9.707-109.35 178.844 3.17-132.52 119.597" />
      <path fill="#96a212" d="M1039.638 510.894L1022.354 713-31 676.672l445.394-170.007" />
      <path fill="#9a2315" d="M1055 353.48l-212.252 1.474 137.554-75.083L1055 250.818" />
      <path fill="#542c14" d="M63.407 297.005l25.548 253.923L-31 564.206V242.2" />
      <path fill="#6e5636" d="M855.12 237.675l-29.922-63.158 108.09 5.067-24.18 70.04" />
      <path fill="#3b2432" d="M186.913 427.344l-65.992-78.798 197.064-38.905 66.008 30.663" />
      <path fill="#f9b487" d="M356.526 435.134l-192.072-3.752-17.79 73.796L33.895 399.31" />
      <path fill="#2a0d17" d="M923.904 585.7l-203.988.882 99.28-32.895 124.38 20.19" />
      <path fill="#000001" d="M981.452 456.972l-30.882-35.866-32.32 55.692 56.187 2.324" />
      <path fill="#a9c5f1" d="M556.167 258.41l-186.212 86.703L-31 .533l1086 1.892" />
      <path fill="#d3d3e9" d="M874.014 307.466l-20.57 12.89-324.15-17.296L804.74 90.983" />
      <path fill="#f2b68b" d="M779.638 434.47l273.01-2.858-.653-33-334.284 29.026" />
      <path fill="#dbb0b9" d="M891.634 596.66L1055 636.08l-78.52-59.947-97.165 14.405" />
      <path fill="#6b93cc" d="M160.124 346.305l97.21-2.568 2.348-50.017-169.6 9.06" />
      <path fill="#381e06" d="M443.078 588.453L196.392 589.5l-83.647-17.41 137.382-9.383" />
      <path fill="#eaac80" d="M205.31 427.613l10.148 87.208 27.686-80.75 191.34-49.655" />
      <path fill="#2f1501" d="M773.656 588.402l-106.545-22.85-270.705 22.6 270.603 2.38" />
      <path fill="#87412e" d="M706.1 425.725L469.098 296.01l61.166-13.74 198.363 121.096" />
      <path fill="#271508" d="M863.234 501.585l-79.512-.507 44.824-76.754 27.817 22.996" />
      <path fill="#ebaf87" d="M731.237 483.97l80.082-3.188-1.85-50.298-59.772-14.052" />
      <path fill="#1c1600" d="M436.54 476.106l-62.9-75.666-30.52 13.323-121.704 75.346" />
      <path d="M999.184 450.67l-7.05 38.083 62.866-11.99v-80.727" />
      <path fill="#291813" d="M567.5 474.043l137.987 11.964-11.042-111.654 207.384-36.595" />
      <path fill="#d0d4e1" d="M6.48 276.762l-22.2-144.52L1025.9 261.14l-457.633 23.622" />
      <path fill="#ddaeac" d="M607.775 508.974L444.2 502.9l174.647-24.757 10.205 1.375" />
      <path d="M213.7 473.232l-73.51 22.705 25.888-60.746 28.93-4.916" />
      <path fill="#cc9371" d="M549.104 379.61L433.76 436.005l-7.564 71.973 53.173-8.744" />
      <path fill="#c1ba58" d="M-24.53 618.124l131.352-31.228 119.617 1.452-248.775 81.358" />
      <path fill="#e1aa7f" d="M20.822 441.1l-4.404 63.085 61.437-165.08 11.564 78.89" />
      <path fill="#b0cdf6" d="M938.472 262.667l110.674-6L1055 4.578l-153.718 74.8" />
      <path fill="#010005" d="M41.457 435.584l39.52-2.02 9.334 66.743-63.4-33.22" />
      <path fill="#a3483d" d="M29.912 281.96L-31 231.036l52.53 157.98 118.863-57.52" />
      <path fill="#000307" d="M36.04 425.948l-49.708-98.043 2.477 215.76 54.775-173.04" />
      <path fill="#b5cb08" d="M214.612 537.29L-31 540.074l41.29-13.802 142.614 3.42" />
      <path d="M495.92 480.745l25.39 9.994 6.037-19.71-27.04-17.425" />
      <path fill="#d3b182" d="M716.756 409.757l-277.964-40.18 76.385-58.95 96.906 79.555" />
      <path fill="#c39a9b" d="M813.33 564.164l-91.37-36.748 28.955-18.978 66.405 17.877" />
      <path fill="#5b3932" d="M710.377 408.118l224.743-7.007-21.44-64.38-27.782 86.375" />
      <path fill="#b1614d" d="M440.618 409.5l-195.295-.905 220.525-106.163 54.015-37.82" />
      <path fill="#080d0f" d="M-31 342.76l16.057 12.858 218.647-4.74-58.78-6.56" />
      <path fill="#d79f73" d="M159.546 480.157L148.42 345.754l-48.15 81.305-17.29 62.715" />
      <path fill="#262018" d="M352.865 324.46l-13.834-12.657-88.372 64.3 95.456 11.703" />
      <path fill="#773a10" d="M361.15 595.907l-32.065-21.536 86.846-21.557 227.235 7.48" />
      <path fill="#182f00" d="M93.615 529.463l199.716-7.937-59.512-10.555L-31 510.405" />
      <path fill="#372316" d="M335.843 472.686l197.68-83.19-19.02-10.386-142.528 64.118" />
      <path fill="#3e3a3b" d="M714.472 353l104.397 34.11 44.902-88.39 22.182 31.532" />
      <path fill="#161600" d="M744.635 509.833l57.626-8.815-250.245-54.072 145.776-30.36" />
      <path fill="#d36249" d="M757.924 381.385L621.336 359.86l192.112 50.53 88.43-24.48" />
      <path fill="#a0bfd9" d="M205.093 214.77L-31 224.078V-12.747L1026.562-1.714" />
      <path fill="#936b3f" d="M286.307 509.52L-31 507.726l114.322-21.433 177.372 4.45" />
      <path fill="#6c8dc5" d="M681.665 343.795l39.453-33.74-117.763-4.725-17.333 18.013" />
      <path fill="#f4bb94" d="M1004.378 410.51l-37.08 16.405 28.178 71.414-4.54-8.28" />
      <path fill="#a2c3df" d="M1055 10.608l-117.014 158.27L700.7 187.883 872.016-31" />
      <path fill="#ebb783" d="M927.76 477.443l8.548-75.165-47.51 7.582 2.177 74.583" />
      <path fill="#001617" d="M871.383 345.046L1055 346.384l-30.612 7.784-186.97.18" />
      <path fill="#ffd8aa" d="M867.073 352.396l17.135 7.893-29.42 34.14-13.98-26.988" />
      <path fill="#b79173" d="M341.546 560.226l-7.864 13.646-94.43-11.924 27.243-43.89" />
      <path fill="#edb96e" d="M698.605 428.272l-22.14-29.47-123.054-13.23 135.167 5.546" />
      <path fill="#6e5d40" d="M817.358 211.43l61.687 20.293 7.752 22.638 47.928-49.646" />
      <path fill="#d5b181" d="M7.344 365.295l24.653 34.356-4.34-44.126 128.18 11.496" />
      <path fill="#6b5f35" d="M451.267 500.508L317.982 558.17l-55.27-54.16 197.457-33.526" />
      <path fill="#625550" d="M1055 427.813V335.6l-107.012 72.803.148-56.24" />
      <path fill="#090304" d="M976.216 440.89l-46.593-1.984 26.394 52.317 24.167-24.025" />
      <path fill="#a0af1a" d="M1.476 560.873L-31 604.133l186.81-43.765 12.134-11.918" />
      <path fill="#5b4600" d="M606.126 402.984l-42.624 30.444 3.365 61.483 104.182-98.05" />
      <path fill="#c16847" d="M1055 289.06l-37.053-26.018-151.304 80.74 156.917-2.614" />
      <path fill="#c395a2" d="M92.48 581.732l-76.148.164 137.617 7.41L-31 642.33" />
      <path fill="#773a23" d="M203.258 358.792l101.31 35.144-27.383 23.487-153.685-1.256" />
      <path fill="#271523" d="M88.65 349.787l-4.325 7.586 43.668 38.12L89.236 401" />
      <path fill="#c79b68" d="M933.015 480.764l-118.994 5.563-7.98-14.696 73.937 1.886" />
      <path fill="#b99446" d="M283.483 500.8l-5.425-72.56 153.248-39.96-97.697 3.466" />
      <path fill="#e9e1d9" d="M878.96 223.966L831.03 288.05l-376.875-61.793 388.106 4.044" />
      <path fill="#00000e" d="M235.067 486.226l34.403-.165 26.27-10.822-55.91-38.477" />
      <path fill="#4b3b30" d="M646.444 337.19L599.5 383.703l-41.777-69.512 25.69 1.246" />
      <path fill="#756c69" d="M643.904 342.7l115.808-31.824 69.486 16.108-105.28 50.63" />
      <path fill="#192a15" d="M251.84 537.28l-66.88 3.034 41.16 59.038-2.374-51.406" />
      <path fill="#cfa675" d="M568.973 323.08L500.31 460.138l78.498-34.664-144.615-102.31" />
      <path fill="#4b2817" d="M431.35 314.44l22.074 9.143 51.83-4.288-11.646-4.487" />
      <path fill="#adac35" d="M781.58 547.354l113.055 14.105L1055 621.3l-10.474-98.756" />
      <path fill="#1a0707" d="M803.046 469.705l60.028-.49-13.105-34.5-32.142 2.208" />
      <path fill="#cfc0c7" d="M1055 241.377l-140.532 75.32-22.01 9.594-77.7-55.305" />
      <path fill="#a7ad24" d="M248.52 528.03l-5.204 9.394-228.2 1.607 193.388-11.758" />
      <path fill="#493f11" d="M952.672 494.16l-144.19-8.957-223.25 4.334 219.9 13.205" />
      <path fill="#949f23" d="M31.498 713l888.16-123.024-755.024-.787L-31 643.76" />
      <path fill="#281a13" d="M417.6 385.606l33.345-7.14-98.67-1.3-14.067 8.462" />
      <path fill="#522825" d="M742.78 397.113l107.294 15.624-130.16 7.362 11.076 70.3" />
      <path fill="#e0dded" d="M722.87 408.326l-16.687 12.716 42.83-6.148-2.422 1.902" />
      <path fill="#d5a283" d="M394 476.25l66.92 18.496-79.084-7.043 5.84.78" />
      <path fill="#080c00" d="M356.874 459.498l54.176-42.66 16.38 23.67 2.07 44.895" />
      <path fill="#b18f68" d="M255.436 339.957l19.786 33.336-.006-77.88-41.02 41.537" />
      <path fill="#293507" d="M423.325 513.967l-137.44 4.356 64.875-10.788 120.59-.578" />
      <path fill="#b6c8d4" d="M888.904 211.385l-48.338 59.447 111.29-204.924-94.8 135.52" />
      <path fill="#d6cbc8" d="M627.44 227.473l-198.464 81.12-66.676 7.83-128.845-58.277" />
      <path fill="#22490b" d="M-31 542.02l228.858-2.394-94.725 9.394-61.086 14.545" />
      <path fill="#070008" d="M520.352 453.507l-26.13 13.8-6.91 13.928 37.597 7.873" />
      <path fill="#c3a48e" d="M499.553 489.457l-100.93 1.95 169.714 8.235 82.774-18.79" />
      <path fill="#000002" d="M1027.175 430.047l27.825 41.63-59.623.747 5.288-34.29" />
      <path fill="#d09f70" d="M6.793 464.047L58.2 425.613l31.504 18.053-5.146-77.2" />
      <path fill="#b2cadb" d="M776.062 233.278l63.536-19.036 34.94-152.45L-31 176.33" />
      <path fill="#cf9d6b" d="M263.504 417.952l-55.527 65.633 37 13.596-51.323-71.152" />
      <path fill="#e3b278" d="M409.063 415.017l11.15-25.44-84.094 9.26-8.39-17.944" />
      <path fill="#825919" d="M815.94 585.49l-53.522-4.06-379.977-3.888 425.03-18.182" />
      <path fill="#bdcada" d="M363.45 188.342L-31 186.092 70.377 301.934l186.533 5.818" />
      <path fill="#b6b3be" d="M598.87 263.285l163.036 43.04-181.43 8.335-42.754-23.954" />
      <path fill="#868b09" d="M297.07 536.04l23.48-18.085 269.34-13.74 247.732 19.05" />
      <path fill="#6b5100" d="M405.79 411.896l-62.5 30.203-37.762-32.66 83.562-6.614" />
      <path fill="#ba6856" d="M362.37 345.81l41.318-27.67 33.48 59.53-113.266 1.706" />
      <path fill="#a79a37" d="M755.878 522.457l-279.27 12.123 269.655 34.825-63.267-95.824" />
      <path fill="#000001" d="M205.482 438.525l-36.69-6.522-16.54 48.713 56.875-8.958" />
      <path fill="#060b19" d="M847.73 559.472l6.645 20.193-31.462 10.482-13.722-27.637" />
      <path fill="#070c00" d="M139.092 347.443l46.122 6.883 16.613 5.51-2.363 15.298" />
      <path fill="#c79b60" d="M14.924 446.238l13.07 56.06 18.545 9.164-6.817-31.602" />
      <path fill="#dfaa79" d="M137.353 361.265l-14.898 2.767-11.57 145.774 18.02-70.584" />
      <path fill="#6c5535" d="M780.437 433.927l10.525 87.03-23.817-103.462-27.34 20.138" />
      <path fill="#97b8d1" d="M-31 54.46L20.436-31l364.162 64.407L50.976 82.96" />
      <path fill="#271812" d="M713.35 380.35l-118.357-3.33 122.58 15.027-49.937 86.176" />
      <path fill="#d1a47b" d="M972.487 476.38l39.56-101.474 4.758 38.156-48.555 96.182" />
      <path fill="#050c04" d="M1.716 466.504l-27.734-71.736 58.58 42.04 6.38-65.58" />
      <path fill="#3d5301" d="M-31 585.236l7.628 35.408 46.952-17.79 52.695-8.195" />
      <path fill="#b66447" d="M315.485 379.164l-138.523 20.622-133.91 6.316 298.652.44" />
      <path fill="#d6a467" d="M621.398 392.547l-99.99 66.173 8.932 41.23 60.115-114.4" />
      <path fill="#5f809c" d="M145.54 295.022l109.533 29.35-66.212 27.16-86.852-41.207" />
      <path fill="#976353" d="M387.663 492.593l-78.59 1.823-36.48 18.178 99.46-6.075" />
      <path fill="#d6684d" d="M619.546 368.83l29.833-19.503 54.457 24.117-103.42 5.268" />
      <path fill="#cfb254" d="M256.906 549.144l28.77-23.72-1.997 38.57-115.614-13.64" />
      <path fill="#1c1b13" d="M35.498 395.352l31.34 7.904-8.363-23.764-78.72 115.956" />
      <path fill="#b38a8a" d="M851.963 556.005l-123.46-35.103 36.28-24.495 11.805 58.777" />
      <path fill="#98a42c" d="M918.325 713L1055 636.61l-223.046-50.83-122.193 14.794" />
      <path fill="#5e7a98" d="M346.144 317.337l7.228 31.77 35.605-22.612 80.48 2.162" />
      <path fill="#776212" d="M143.282 587.227l51.658-7.64 21.13-30.665L72.85 576.96" />
      <path fill="#36370c" d="M399.92 591.09l-156.803-4.37 97.39-8.587 216.88 8.06" />
      <path fill="#d1ab77" d="M37.27 363.624l50.71.187-75.102-4.096 7.584 43.27" />
      <path fill="#3b330a" d="M303.21 482.842l108.208 21.82-97.95-71.037-54.565 20.25" />
      <path fill="#bf9361" d="M208.157 505.48l-28.514.61 16.295-17.476 4.688-19.803" />
      <path fill="#cb9e71" d="M40.2 425.232L50.992 355.5l-.633 44.556 91.07 2.14" />
      <path fill="#d4a877" d="M899.433 503.49l37.445-66.18.06-69.757-48.194 131.386" />
      <path fill="#262612" d="M220.284 364.273l40.02 20.542 60.96-72.963 36.125 39.853" />
      <path fill="#1e1c06" d="M656.566 408.57l82.834 50.246-126.434 38.622 28.755 8.036" />
      <path fill="#40251e" d="M261.212 412.183l-72.537 7.325-23.075-83.54-18.14 67.188" />
      <path fill="#2a2209" d="M696.97 570.153l-122.507 17.612 60.283-.53 103.108 1.435" />
      <path fill="#d7a976" d="M848.524 430.89l-107.228 10.855 141.777-27.525-2.85 75.702" />
      <path fill="#7294c1" d="M782.098 332.474l2.73-20.78 70.67 9.06 1.74 8.444" />
      <path fill="#1b2a17" d="M344.868 563.08l-22.64-19.76 91.67-5.126-89.136-1.68" />
      <path fill="#ecbc87" d="M848.724 367.432l-17.712 20.628 49.99-10.464 1.078 40.084" />
      <path fill="#d19c68" d="M527.326 392.51l58.836 22.968-149.592 41.97-7.58-23.163" />
      <path fill="#98614b" d="M895.294 320.97l64.268-25.263-68.57 39.522.765-106.02" />
      <path fill="#6c512c" d="M139.666 511.138L116.5 491.333l16.806-5.784 4.926-152.044" />
      <path fill="#d3ab7d" d="M717.184 363.09l13.532-48.85-7.17 59.518-13.998-.865" />
      <path fill="#a4523e" d="M-.084 346.02l5.373-78.9 67.592 33.887 67.88 36.8" />
      <path fill="#bfb2d4" d="M322.48 538.18l-5.777 29.27 20.244-6.984-5.725-.316" />
      <path fill="#c9d1db" d="M922.62 308.78l92.148-44.706L1055 134.132 902.927 243.986" />
      <path fill="#684734" d="M583.112 416.024l-78.486-36.158-17.365 7.66 82.792 5.223" />
      <path fill="#1e1e08" d="M795.57 349.465l36.177 25.174-26.494 8.298-15.776-5.097" />
      <path fill="#bcbdcc" d="M313.33 414.802l-15.743-7.115-2.227-7.017-18.472 21.482" />
      <path fill="#bb9b7c" d="M474.927 394.24l120.73-70.913-117.262 21.883-44.915 25.268" />
      <path fill="#18110d" d="M926.1 571.216l12.386 11.522-53.284 3.888-16.382-5.54" />
      <path fill="#eac28c" d="M747.896 484.995l29.348-2.508-38.504-35.333 29.48-32.95" />
      <path fill="#100308" d="M449.864 463.502l3.786 3.246 2.776 23.727-6.71-1.52" />
      <path fill="#bfa46c" d="M730.8 570.453l-26.422-18.64 128.804-6.796-24.336-25.06" />
      <path fill="#6a6043" d="M929.574 213.784l-46.83 42.582 32.842-83.302-22.876 6.07" />
      <path fill="#7b6b48" d="M901.532 224.81l-20.68 14.094-39.737-17.618-13.476-19.58" />
      <path fill="#dcae80" d="M1048.176 434.542l-71.814-4.5 6.464-65.843 14.833 34.98" />
      <path fill="#2c1c17" d="M325.16 410.195l-72.283-1.597-85.746-.042-7.698 5.975" />
      <path fill="#120f0b" d="M938.77 493.315l6.046-61.646 27.235 3.093 5.184 17.42" />
      <path fill="#ad5138" d="M781.568 385.49l-33.69 24.244 106.276-3.232 10.78-21.088" />
      <path fill="#d7a375" d="M95.865 486.07l14.615-5.952-5.63-107.254-20.165 93.278" />
      <path fill="#231717" d="M583.83 319.595l-25.69-6.503-29.146 5.088 7.344 4.4" />
      <path fill="#54321c" d="M594.072 384.92l42.066-1.553-66.24-25.81 64.314-25.8" />
      <path fill="#605734" d="M503.7 315.908l-32.792 20.88-46.91 36.135 10.353-1.647" />
      <path fill="#dfb148" d="M427.195 568.572l11.304-3.625-45.842-3.142-18.328 4.73" />
      <path fill="#5b7ca5" d="M669.956 330.407l10.282-13.43-91.076-2.07-9.69 13.97" />
      <path fill="#7c8307" d="M807.98 506.748L1055 530.152l-283.517-6.938 32.544 21.27" />
      <path fill="#dbab7c" d="M609.204 475.514l3.51 12.42 13.795 23.112-56.58-27.332" />
      <path fill="#554e42" d="M980.422 370.082l-4.093 31.286-10.045-.82-3.262-35.95" />
      <path fill="#956d2b" d="M257.918 583.17l58.418-3.804 3.41-24.847-95.424 16.173" />
      <path fill="#be6144" d="M512.76 281.51l-68.186 27.46 121.665 8.875 1.83-11.316" />
      <path fill="#eeb87b" d="M477.19 327.943l-35.444 28.47L439.7 345.6l2.65-23.133" />
      <path fill="#c69f9a" d="M920.763 586.903L1055 615.57l-86.48-2.39-112.747-29.42" />
      <path fill="#8c941e" d="M310.225 649.064l467.512-35.15 168.575 79.61L-31 682.165" />
      <path fill="#d1ab89" d="M281.71 442.722l-15.796-13.664 32.286-24.142-10.676 49.238" />
      <path fill="#705824" d="M717.827 480.56l-33.313.44-37.633-10.292 92.904 66.613" />
      <path fill="#0a0803" d="M83.773 444.6l-31.14-14.957 37.303 79.566-2.414 11.94" />
      <path fill="#705e54" d="M862.066 311.372l-2.682-65.198 14.15 95.64-44.714 14.462" />
      <path fill="#3f3116" d="M771.52 423.6l14.965 67.624-10.15 6.587 10.987-32.73" />
      <path fill="#0d0611" d="M120.02 385.862l-13.59-18.883 15.175-1.937-20.33 41.988" />
      <path fill="#e3b56a" d="M328.075 423.86l-.078-35.266 54.466 3.624-58.143 24.992" />
      <path fill="#a1a42a" d="M579.974 525.063l163.394 20.643-235.318 10.427-181.993-.932" />
      <path fill="#9c8f2d" d="M219.886 380.814l12.416-44.202-7.83 22.908-45.375 18.247" />
      <path fill="#abc7dc" d="M763.244 78.77l100.79-50.26 34.186 172.487 7.267 5.48" />
      <path fill="#000013" d="M219.302 554.338l9.264 5.214-3.46 19.277-23.266 6.042" />
      <path fill="#6c5833" d="M291.6 297.767l24.246 19.79-52.455 75.055 53.213-95.604" />
      <path fill="#db943d" d="M536.22 566.652l120.937.128 35.23-5.27-72.558-.223" />
      <path fill="#893520" d="M536.03 571.26l-150.02-13.23 274.523-.568-156.712 9.632" />
      <path fill="#cdbec8" d="M734.377 407.78l-10.296 13.61-2.718-14.062 4.633-6.292" />
      <path fill="#dea674" d="M813.142 443.727l-18.602 21-22.372-34.392 63.79-9.448" />
      <path fill="#dfdcdb" d="M524.174 212.515l-66.87 17.738-23.516 39.856 182.173-12.63" />
      <path fill="#342c0c" d="M606.03 472.716l59.483-84.913-89.172 76.206 6.54 22.103" />
      <path fill="#2f240f" d="M828.048 501.74l19.418-70.2 19.205 74.518-17.216-43.056" />
      <path fill="#97730a" d="M554.45 480.845l27.795-67.766 104.787-33.25-114.544 55.688" />
      <path fill="#c89b73" d="M90.364 382.63l43.903-7.585-75.568.41-89.7.377" />
      <path fill="#7d870e" d="M-13.226 713l.19-40.242 108.05-28.99 69.984 18.76" />
      <path fill="#768d00" d="M-31 551.455L78.914 522.23l-73.25-3.05L-31 518.134" />
      <path fill="#cf9d6d" d="M187.678 421.345l-32.797 29.057-19.712-80.053 23.24 53.36" />
      <path fill="#d9ac0b" d="M266.8 548.277l13.577-15.932 11.295 11.67-9.77 21.695" />
      <path fill="#000104" d="M199.415 489.172l-15.574-55.43-27.118 42.39 4.2 6.962" />
      <path fill="#6e670d" d="M721.544 486.077l269.685-1.99 15.143-.276-86.084 9.132" />
      <path fill="#daab6f" d="M694.586 389.59l-1.245 29.45-23.377-24.353-117.55-5.925" />
      <path fill="#2e291d" d="M792.258 489l106.215 6.265-144.792 7.57-62.608-12.98" />
      <path fill="#beb48d" d="M697.028 331.57L653.87 343.5l8.84 2.364-22.708-12.838" />
      <path fill="#c3a989" d="M109.375 589.096l-62.71-3.228 43.667-9.558-1.59-.876" />
      <path fill="#271a0a" d="M872.236 409.8l-117.494-1.646 51.318 4.93 57.06-.73" />
      <path fill="#9e7552" d="M767.087 337.626l-1.638 60.697-13.574-54.603 22.428-42.263" />
      <path fill="#15150a" d="M.092 315.508l-25.81 127.383 42.527 40.907-2.796-28.227" />
      <path fill="#7b6e4e" d="M930.258 230.5L855.96 180.42l5.368 80.82-14.855-92.603" />
      <path fill="#2d3201" d="M115.158 506.275l-127.987 12.86 79.522 2.88 53.492 2.122" />
      <path fill="#ae644a" d="M1055 249.363v94.06l-193.147.342 67.505-38.217" />
      <path fill="#494147" d="M313.335 519.417l-28.148-34.007-25.096 44.566 79.963-9.165" />
      <path fill="#32461c" d="M98.874 549.38l146.95-1.81 13.49-7.958-101.838.2" />
      <path fill="#544024" d="M737.653 379.62l-8.503-41.188 45.654 27.337 5.748-31.82" />
      <path fill="#1e1b1a" d="M64.265 363.484l-11.747 17.438 12.356 28.465-1.525-50.972" />
      <path fill="#ca9b69" d="M32.803 457.832L16.41 446.704l1.01 39.826 13.227-4.85" />
      <path fill="#6a5239" d="M-28.367 368.478l182.39-13.113-136.765-6.97-1.437 35.892" />
      <path fill="#b89275" d="M442.188 496.895l58.222 11.41-72.315-22.92 8.066-41.287" />
      <path fill="#a5a52f" d="M71.172 558.366l-45.11-.093-47.134 24.654 252.834-29.016" />
      <path fill="#6f6121" d="M142.75 501.134l165.245-12.303-145.124-3.926-11.244-24.653" />
      <path fill="#505248" d="M831.174 375.233l41.032-59.677 16.627 11.937-116.02 9.145" />
      <path fill="#b0a5a5" d="M274.014 338.71l-65.228-67.684 47.182 25.414 11.747 69.953" />
      <path fill="#b87857" d="M697.694 376.548l-142.566-7.37-10.094 32.063 51.86-23.448" />
      <path fill="#91794d" d="M243.21 332.09l40.944-30.957 3.594 47.422 26.59-39.232" />
      <path fill="#505650" d="M721.11 366.048l-16.94-44.19-43.786 32.026-22.435-17.26" />
      <path fill="#bebdc6" d="M849.766 321.232l-144.248-23.62-39.425-48.335 207.572 52.382" />
      <path fill="#9a7c1c" d="M589.92 338.008l10.748-7.934 12.277 18.703-29.347 4.414" />
      <path fill="#62472b" d="M889.006 498.523l-5.29-18.01 3.16-136.938-.202 88.766" />
      <path fill="#6f401e" d="M307.145 385.334l64.516-11.07-81.107 25.082 60.85 47.14" />
      <path fill="#503e19" d="M347.632 552.177L343.02 575.4l99.62-6.72-134.644 21.822" />
      <path fill="#d7a270" d="M201.637 437.06l43.397-3.367-30.516 50.32-7.37-42.41" />
      <path fill="#44390c" d="M665.642 396.04l5.595 99.99-59.25-2.908 39.403-9.073" />
      <path fill="#635866" d="M417.92 507.09l77.193-17.61 5.17 11.89-88.336-4.68" />
      <path fill="#b8cddd" d="M808.412 156.872l44.815 34.628-3.402 22.836-10.266-57.816" />
      <path fill="#c39c6e" d="M909.484 396.137l-26.822 5.695 34.03 43.795-2.996-99.06" />
      <path fill="#3e371f" d="M233.234 353.553l-124.14-2.062 101.862 15.082 8.118-41.067" />
      <path fill="#000004" d="M521.63 482.614l-.005-16.957-29.348 20.188 15.37 2.475" />
      <path fill="#4a361c" d="M484.155 405.49L294.27 448.292l158.378-31.398-6.077-23.992" />
      <path fill="#efc691" d="M763.083 441.378l-25.465.183 2.367 46.113 7.877-50.015" />
      <path fill="#969db0" d="M420.778 294.085l21.594 38.283-147.12-20.742 142-5.1" />
      <path fill="#b6a872" d="M263.623 528.526L260.3 567l14.704-29.735 80.13-8.18" />
      <path fill="#877156" d="M891.565 204.386l20.928 64.83-7.24-59.29-16.93 63.67" />
      <path fill="#a5a040" d="M1033.93 564.784l12.077 50.44-34.968-10.113-60.723-14.44" />
      <path fill="#201a16" d="M383.423 498.582l77.226 8.12L333.1 473.35 400 448.183" />
      <path fill="#a8c4d8" d="M1055 12.15L547.885 76.878l353.38 108.793-45.147 9.73" />
      <path fill="#9e6750" d="M266.548 508.3l105.693-13.83 23.48 9.757-27.892 3.19" />
      <path fill="#514745" d="M997.68 396.877l10.03 4.685 2.45-20.795-12.46-34.05" />
      <path fill="#b5888e" d="M-31 620.137l101.363-25.463-12.04 2.836-69.26 40.118" />
      <path fill="#111010" d="M88.265 382.073l-1.098 16.417 27.336-12.083 11.27 17.408" />
      <path fill="#7c6119" d="M783.048 590.924l-57.343-20.983 33.067-14.525 60.438 10.24" />
      <path fill="#acc4db" d="M138.934 166.94l118.252-25.125L-31 44.78l10.01 116.37" />
      <path fill="#ae8371" d="M406.966 372.878l-66.286-41.962 84.998 16.276-3.24 28.57" />
      <path fill="#45390d" d="M105.566 580.274l15.077 4.485 188.208-1.382-202.465-7.736" />
      <path fill="#b5996a" d="M841.896 466.556l42.192-22.41-34.064 15.908-.96 44.768" />
      <path fill="#f4cea1" d="M841.107 368.99l-.532 17.613 33.536-31.14-14.506.53" />
      <path fill="#c99c6b" d="M973.36 370.155l81.64-15.15-97.05 26.74 62.663-2.9" />
      <path fill="#b5885a" d="M499.56 403.467l89.916 83.827-82.546-31.07-41.144 18.65" />
      <path fill="#e0ae7d" d="M65.18 402.233l1.265-41.883L-31 364.896l122.068-.657" />
      <path fill="#bc5a35" d="M421.62 377.018l-4.48-6.423-53.04-14.273-53.81 20.7" />
      <path fill="#24180e" d="M846.16 430.12l9.062 77.402 3.43-64.697-48.008 8.805" />
      <path fill="#3e3416" d="M215.606 382.4l55.605-2.467-11.267-47.426 5.1-3.197" />
      <path fill="#3b292c" d="M583.72 356.06l-4.897-49.815 13.832 63.723-40.485-32.49" />
      <path fill="#bbcddc" d="M558.506 224.548l12.586 25.52 254.237-70.962-434.43-14.85" />
      <path fill="#9fa4b6" d="M80.904 301.26l133.703 8.102 43.014 2.972 4.444-27.612" />
      <path fill="#262620" d="M309.477 358.84l-17.896-8.983 60.75-17.99 8.07 31.308" />
      <path fill="#838056" d="M906.565 176.45l29.593 13.39-60.455-.337-4.865 21.577" />
      <path fill="#84880f" d="M1045.383 514.66l-103.913-3.984-79.72.04 145.042 36.732" />
      <path fill="#413706" d="M419.905 415.138l-10.372 29.15-106.744 7.4 93.678-38.306" />
      <path fill="#634d07" d="M597.28 355.683l91.36 56.547-123.28 21.406 93.165-39.33" />
      <path fill="#161407" d="M417.054 435.195l12.965 15.06-.27 39.86-35.06-22.547" />
      <path fill="#d5ab75" d="M556.252 391.97l-55.715-56.282 12.524-56.24.078 17.77" />
      <path fill="#d5a777" d="M888.88 508.737l60.582-90.227-4.102-47.313-7.405-1.663" />
      <path fill="#975951" d="M748.952 506.37l-246.107 1.983L713.3 494.666l22.5 29.597" />
      <path fill="#cb9c6b" d="M136.216 468.128l-73.152-37.495L31 427.903l43.413-39.94" />
      <path fill="#caa974" d="M707.24 367.227l12.58-4.296.163-12.28 11.644 35.985" />
      <path fill="#b8cedd" d="M919.44 207.43l61.992-67.223 54.92 134.914-125.066-90.858" />
      <path fill="#7c5d42" d="M769.913 432.024l-49.833 10.203-21.49-29.617 67.692 21.673" />
      <path fill="#98982f" d="M738.067 710.16L606.37 685.344l-99.06-96.796 115.655 4.59" />
      <path fill="#492f1e" d="M319.093 385.447l110.08-4.905-15.04 28.464-.462-33.56" />
      <path fill="#0e1202" d="M703.152 422.606l22.943 34.383-22.502 27.204L652.776 442" />
      <path fill="#cba8a0" d="M940.345 579.952l86.395-.533-21.84.4-15.35 5.035" />
      <path fill="#2e2217" d="M862.116 344.448l109.126 1.49-99.88 6.418-79.13 27.117" />
      <path fill="#8f7882" d="M265.803 556.914l-70.027 1.86 78.967-22.304-25.85 20.54" />
      <path fill="#6d6229" d="M10.515 483.673l43.672 1.887L-31 516.596v-84.842" />
      <path fill="#d1a577" d="M1010.58 435.07l14.966-21.034-95.03-17.4 50.456 49.914" />
    </g>
    <g class="SVG--1">
      <path fill="#d8d0ce" d="M881.845 293.69l4.395-56.127-71.84 41.413 51.716-58.723" />
      <path fill="#4f4039" d="M867.942 308.164l-5.07 15.897 44.93 51.125 1.236 21.28" />
      <path fill="#523529" d="M505.024 375.158l-9.112 9.582-22.94 22.038 48.36-28.605" />
      <path fill="#71620c" d="M1037.25 493.77l-96.464-10.274 100.924-2.23-62.004 16.115" />
      <path fill="#2a2e26" d="M30.433 367.878l14.238-2.337-2.106 56.362-5.09-48.81" />
      <path fill="#2c350e" d="M259.57 526.578l-163.984-5.885 204.04-18.463-14.374-14.93" />
      <path fill="#9abad4" d="M794.382-31L1055-25.326v195.07l-52.684-107.58" />
      <path fill="#cbc6cb" d="M236.396 264.16l160.766 19.117-327.224 14.357-46.717-20.63" />
      <path fill="#c4986a" d="M14.603 385.645l2.352 17.586 14.29-7.99-7.63-40.69" />
      <path fill="#6d541b" d="M131.566 570.697L-.398 582.233l164.368-6.15 28.655-15.97" />
      <path fill="#d3a472" d="M98.917 487.004l34.432-13.325 3.437-113.652-8.076-.84" />
      <path fill="#1a120b" d="M982.82 476.242l-11.515-29.876-36.247-4.315-3.11 11.812" />
      <path fill="#d88b67" d="M896.712 382.655l-194.9 1.317 51.856 1.812 9.662 1.69" />
      <path fill="#7c601b" d="M534.48 555.77l122.06 24.262-217.33 2.954 234.207-28.202" />
      <path fill="#b1978e" d="M432.06 483.65l16.515 23.77 150.416-9.354-129.854 1.594" />
      <path fill="#402829" d="M261.135 422.65l-23.972 28.497 32.482 8.395 2.34 16.57" />
      <path fill="#dab484" d="M980.985 484.26l.312-51.07-2.568 26.43 16.682 19.19" />
      <path fill="#babcc6" d="M362.84 316.334l80.027-2.858-.823-74.033-129.437 62.146" />
      <path fill="#403716" d="M817.902 496.873l63.496 4.88 6.02 1.053-1.677-19.335" />
      <path fill="#9c9c2e" d="M240.48 589.797l-146.242 51.21L-31 649.993l213.976-65.725" />
      <path fill="#716a4b" d="M852.79 201.846l23.01-23.29-23.365-8.686 7.78 66.823" />
      <path fill="#d3b592" d="M612.25 502.106l-37.26 2.726 31.963-33.107 9.557 31.062" />
      <path fill="#62809b" d="M402.645 312.27l-39.687 32.88-28.623-18.14 76.143 1.68" />
      <path fill="#c4c7bb" d="M802.433 533.434l9.12 9.803 5.963-17.69 3.97-4.307" />
      <path fill="#c59d2a" d="M358.763 572.105l-1.973-1.075 106.58-9.05-108.846 1.545" />
      <path fill="#0f0d0e" d="M100.942 400.476l-.27-13.994-8.23-19.005L88.29 396.1" />
      <path fill="#959933" d="M406.893 588.876l3.628 39.985-284.137 42.908 185.08-81.65" />
      <path fill="#9c7863" d="M909.424 316.642l31.704 101.215-36.603-110.96 6.25-51.924" />
      <path fill="#e8bb80" d="M783.294 481.378l-10.815-37.733-6.214 28.074 3.918 12.714" />
      <path fill="#3f3a21" d="M68.514 598.284l-38.295 4.053L-31 615.993l114.566-28.585" />
      <path fill="#ce9368" d="M415.024 409.968l-122.595-30.72-36.625 3.954 152.176 9.63" />
      <path fill="#a09e35" d="M779.503 601.79l104.99 22.694 63.842-14.885-146.4-27.516" />
      <path fill="#798d12" d="M169.906 561.724l50.583-13.947-96.418.82-14.255.434" />
      <path fill="#c69f6f" d="M961.5 364.827l7.265.14-4.463 39.505-3.947 33.724" />
      <path fill="#705e1e" d="M235.05 492.714l31.347 12.425 52.93-81.795-19.547 62.44" />
      <path fill="#685249" d="M1003.847 355.48l-76.6.85 3.062 51.976-16.342-42.482" />
      <path fill="#7c6c52" d="M740.37 311.778l-28.114 1.448 89.317 38.302-70.783-21.714" />
      <path fill="#d7b393" d="M514.023 362.486l-55.33 16.796 5.493-29.774 8.87 34.168" />
      <path fill="#a26d64" d="M256.214 508.162l32.56-3.02-98.99-2.176-5.185 2.583" />
      <path fill="#28230e" d="M568.33 458.588l34.634 19.67-35.76-.107 86.2-63.47" />
      <path fill="#55481d" d="M78.267 497.025L50.86 458.727l-10.757 49.288 30.56-12.88" />
      <path fill="#c3887a" d="M178.495 348.423L89.17 306.92-31 243.774l170.342 93.716" />
      <path fill="#deaf78" d="M1055 380.187l-23.16.604-161.404-1.545 142.09-2.55" />
      <path fill="#ca9c70" d="M23.57 377.11l140.116-1.83-78.264 3.616-76.93.256" />
      <path fill="#3e3a0c" d="M623.24 490.526l-.56 22.992 49.118-45.385 14.725 27.407" />
      <path fill="#968170" d="M940.79 455.135l-2.4 48.74 3.952-25.447-11.774 28.69" />
      <path fill="#e3eaef" d="M297.377 407.64l-1.446-3.637-7.382 12.758 19.272 1.983" />
      <path fill="#170f0b" d="M174.397 348.335L-31 348.44l176.32-4.994 58.643 30.77" />
      <path fill="#160b03" d="M815.248 443.868l17.017 13.5 9.336 37.216-4.757-64.837" />
      <path fill="#b37a5d" d="M443.68 407.224l95.246-37.148-117.23 49.933 15.958-52.982" />
      <path fill="#daab7a" d="M889.944 482.335l29.704 2.275 5.74-51.06-36.125-39.79" />
      <path fill="#cad0d8" d="M1055 270.965l-82.85-18.78-60.804 14.077-.683-41.378" />
      <path fill="#7a870c" d="M781.838 673.513l64.205 17.062-15.6-6.512-164.266-98.107" />
      <path fill="#d9a46f" d="M535.062 399.248l2.22-.883 48.39 20.04-68.36 38.498" />
      <path fill="#d5a966" d="M973.875 503.088l8.793.99-8.224-36.806-1.12 32.443" />
      <path fill="#cd9c6b" d="M137.662 421.66l32.307 1.06-24.13 25.807 7.15-104.117" />
      <path fill="#70663d" d="M318.09 568.912l1.222-26.89-44.257-11.068 48.86 47.04" />
      <path fill="#93a21a" d="M22.427 585.363L-31 593.707l109.086-1.918-14.3-6.365" />
      <path fill="#b49184" d="M817.31 559.805l-89.577-55.817 33.77 40.95 29.207 13.342" />
      <path fill="#d3d2d3" d="M405.394 244.153l-123.864 56.92 18.593 5.067 10.235-69.16" />
      <path fill="#a48161" d="M630.885 386.965l-81.152 11.224 30.57-72.395-9.652 62.562" />
      <path fill="#cca06c" d="M931.992 364.37l-49.215 5.538 20.91 71.002-10.912-78.47" />
      <path fill="#584f42" d="M951.31 401.228l-6.333-41.38 18.417 30.183-15.467 10.403" />
      <path fill="#a7805c" d="M196.135 483.123l3.46-11.262 32.67 15.922 2.897-16.237" />
      <path fill="#6e573a" d="M574.94 355.996l-27.28-19.967-34.838-27.894 3.865-1.956" />
      <path fill="#afc9dd" d="M904.056 190.19l-41.247-.616L1055 103.538l-280.764 1.357" />
      <path fill="#291116" d="M712.422 383.81l-14.696 24.384-4.34-29.978-35.27 1.32" />
      <path fill="#16160a" d="M1.633 425.097l16.84 43.287L-31 479.54 8.765 333.52" />
      <path fill="#8a6f12" d="M346.273 425.716l-10.865 9.696 16.03-3.794 45.878-22.755" />
      <path fill="#593f1e" d="M869.228 406.16l-21.94 4.097 2.15 7.093 38.65.365" />
      <path fill="#9b5441" d="M165.527 344.507l-43.725.376L-31 336.98l23.068-65.532" />
      <path fill="#937221" d="M847.354 553.917l22.225 23.938 23.437-4.29-1.72-7.003" />
      <path fill="#86654f" d="M727.89 519.12l13.68 8.022 10.355-154.21-6.01 164.1" />
      <path fill="#6e6751" d="M806.708 372.9l52.723-31.083-38.175-19.312-9.83 47.605" />
      <path fill="#b58759" d="M469.12 431.438l-32.76 62.475-9.6-27.644 142.046-19.376" />
      <path fill="#68849a" d="M146.92 295.286l-6.04 37.802 91.495-30.685-21.692 50.457" />
      <path fill="#5f382f" d="M727.646 405.07l-48.116-50.7 59.06 39.046 56.496 24.824" />
      <path fill="#462d21" d="M264.177 421.3l28.057-13.063-97.59.522 89.353 8.458" />
      <path fill="#413723" d="M764.404 357.2l.64-35.19 24.366 55.428 29.448-30.77" />
      <path fill="#858f11" d="M755.653 565.894l-10.234-31.82-190.508-5.07 165.254-21.08" />
      <path fill="#706222" d="M59.678 502.394l-20.492-11.88 79.23-5.357 44.525 1.07" />
      <path fill="#624729" d="M8.946 439.152l5.717 8.636 21.31-13.198-25.037-2.562" />
      <path fill="#868319" d="M599.805 544.127l37.545-8.552-7.96-72.302 14.32 22.904" />
      <path fill="#ce9c43" d="M375.546 389.612l-60.728 35.138-4.096 12.726-7.797-13.88" />
      <path fill="#bbd1e1" d="M837.952 209.524l1.735 7.738-105.573 19.12-75.402-39.347" />
      <path fill="#6c392b" d="M426.672 382.27l9.058-18.745-8.093-25.15 3.107 48.376" />
      <path fill="#a58d81" d="M485.167 289.913l-4.25-2.658 32.962-15.705 21.544 14.836" />
      <path fill="#a0583b" d="M220.243 407.53l123.355-4.198-119.95-13.493-79.356 15.9" />
      <path fill="#462423" d="M150.082 396.175l4.483-15.695 5.778-6.518L225 394.82" />
      <path fill="#c58d5e" d="M489.765 495.684l-50.375-73.212 15.184 40.48 38.023 10.28" />
      <path fill="#a77753" d="M215.225 383.247l-34.777-14.582 2.304 15.248 9.562-2.254" />
      <path fill="#674c1b" d="M665.89 564.337l1.763-.932-114.394-4.966 88.933-5.77" />
      <path fill="#abb3c0" d="M751.52 291.634l105.49 40.33-2.015-42.61-119.202 30.25" />
      <path fill="#4d3f1f" d="M724.307 430.58l-3.603 90.126.685-8.38 18.58-26.152" />
      <path fill="#402b24" d="M525.676 315.108l66.322 16.124-7.805 32.302-2.933-46.482" />
      <path fill="#010206" d="M235.852 476.998l7.11 12.14 34.136-20.98-39.64-10.337" />
      <path fill="#ca9a6d" d="M296.283 548.483l7.09 12.862-5.81 14.443-11.078-28.958" />
      <path fill="#bf3428" d="M612.56 564.16l-126.632-3.254-28.207 5.415-1.2.34" />
      <path fill="#bacedc" d="M141.886 189.18L-31 246.76l108.618 43.898 302.338-85.35" />
      <path fill="#39461a" d="M340.56 536.987l-27.625-6.365 15.34 11.838 101.7-2.175" />
      <path fill="#1a1c10" d="M17.392 442.024l8.94-45.527L64.4 367.99l-11.695-.505" />
      <path fill="#d2a171" d="M100.648 398.4l2.386-27.807 17.558 142.758-.45-90.68" />
      <path fill="#9da224" d="M318.64 532.508l119.072-9.446 58.408 9.696-11.667 6.298" />
      <path fill="#070a09" d="M79.352 482.156l8.67-20.478-20.03-33.15 3.508 60.32" />
      <path fill="#eeb872" d="M606.054 383.9l37.922 10.754-11.466-1.184-29.03 8.337" />
      <path fill="#514035" d="M883.23 324.02l2.602 77.518 2.782-71.444-24.155-6.363" />
      <path fill="#654836" d="M421.506 319.197l70.57 5.618-23.14 15.737 28.073-26.764" />
      <path fill="#574738" d="M858.908 242.67l1.797-33.45 9.705 10.714-18.356-.814" />
      <path fill="#803b3f" d="M1055 506.186l-53.08 2.133-7.447 2.58-131.643-4.33" />
      <path fill="#914e48" d="M15.82 511.262l103.444-9.508 92.725 3.723-48.192 3.465" />
      <path fill="#776350" d="M764.31 432.117l-2.603 88.723 3.176-31.94 3.458-52.04" />
      <path fill="#352d07" d="M702.214 421.492l-63.3 20.344-72.24-4.59 7.718-8.325" />
      <path fill="#564e38" d="M927.8 210.115l-33.077 33.343 12.754-41.808.208 8.765" />
      <path fill="#de9364" d="M729.53 558.172l7.382-8.81-19.54 1.91 15.086 31.664" />
      <path fill="#bab2a4" d="M348.866 554.22l-20.046 14.648-6.912-2.72 1.646-13.265" />
      <path fill="#a75546" d="M490.935 287.9l-6.538-2.694 4.33 30.84-55.174-.553" />
      <path fill="#544f09" d="M375.62 486.802l-31.582 10.875 4.478 18.387-20.296-31.248" />
      <path fill="#ca9f70" d="M-2.544 375.496l2.89 3.685-17.3 2.297 84.838-4.743" />
      <path fill="#6e573f" d="M297.223 359.724l-33.446 8.466 33.294-38.044-36.714-25.31" />
      <path fill="#121211" d="M822.46 556.338l.91 32.2 24.384-22.74 7.313 23.26" />
      <path fill="#7d7d6a" d="M923.07 208.023l-25.622-40.188 8.677 45.873-.27-1.595" />
      <path fill="#131012" d="M106.796 366.168l1.647 30.59-1.44 5.234 13.57-11.876" />
      <path fill="#c59e6d" d="M588.962 380.356l-65.322-57.93 73.08 50.945-65.978 117.768" />
      <path fill="#8f684d" d="M416.327 442.05l32.857-14.968 79.698-36.87-83.865 25.136" />
      <path fill="#563b31" d="M423.527 488.776l107.852-8.238-54.196 5.385 64.692 2.457" />
      <path fill="#d2a577" d="M874.702 472.826l-22.173-33.703-24.595-17.785 56.145-1.406" />
      <path fill="#c6a58e" d="M921.713 594.74l92.552 13.964L1055 592.09l-8.305 47.69" />
      <path fill="#af6347" d="M959.925 342.995l-92.997-.615-6.958-4.045 195.03-78.75" />
      <path fill="#71694f" d="M296.314 299.948l64.112 20.558-1.61 13.71-24.556-9.21" />
      <path fill="#c2a084" d="M571.51 476.184l34.54 14.014 1.905 15.563-40.437-5.872" />
      <path fill="#201f05" d="M726.872 461.2l-56.706-35.366 2.187-26.765 50.76 70.277" />
      <path fill="#cc9a6b" d="M772.416 417.597l44.412 3.858-9.3 48.836-35.973-41.39" />
      <path fill="#0f0908" d="M1017.194 428.856l.98 32.35-.184 12.253-21.266-23.498" />
      <path fill="#b87f50" d="M472.103 337.516l16.275 31.568-49.038 27.852 33.422-6.143" />
      <path fill="#be9069" d="M130.794 379.57L20.7 377.75l118.33-4.01-19.517-2.657" />
      <path fill="#aeb3c1" d="M561.135 270.984l34.217 58.812-3.74-11.505 75.624-21.01" />
      <path fill="#694a27" d="M633.59 571.76l128.02-2.322 87.378-12.85-105.284 8.097" />
      <path fill="#151605" d="M434.72 448.365l-24.203-18.255 16.204 50.464-99.614-23.908" />
      <path fill="#cb9b6c" d="M133.408 400.06l-50.022 2.68 3.45 79.06 4.61 7.956" />
      <path fill="#060907" d="M207.596 580.07l19.643-18.715-.335 17.575-11.014 11.836" />
      <path fill="#8c6241" d="M1055 405.056l-236.857 3.11 236.857.755-37.137 50.576" />
      <path fill="#909619" d="M832.05 534.214l-28.073-19.696 130.29 35.557 22.24 26.15" />
      <path fill="#bf935e" d="M854.542 467.297l-8.783 5.228-22.493-2.862-17.86 14.83" />
      <path fill="#85890b" d="M395.22 677.4L323.01 713l17.718-38.473 57.797-35.038" />
      <path fill="#eac792" d="M759.884 438l13.275 9.895-23.912-21.777.43 30.474" />
      <path fill="#3c363b" d="M450.606 317.488l-16.8-1.588 4.858 12.213 9.15-12.024" />
      <path fill="#715637" d="M180.718 413.53l-13.133 3.904 42.522 4.033 39.85-8.508" />
      <path fill="#c19262" d="M559.775 489.14l2.25-60.345-56.208 15.406 38.502 39.728" />
      <path fill="#403a08" d="M328.99 426.796l-22.735 12.573 20.55 5.054 42.704-46.71" />
      <path fill="#9d8535" d="M981.316 501.37l-161.108.943 2.46-28.56-12.843 34.11" />
      <path fill="#cfcdd0" d="M339.976 248.663l352.27 45.2 87.666-21.317-101.585-20.98" />
      <path fill="#c89566" d="M231.262 464.364L187.724 422.3l55.78-2.408-13.697 70.353" />
      <path fill="#b96237" d="M850.293 385.336l-33.113 20.492 56.915 1.685-17.54-23.347" />
      <path fill="#2a1b14" d="M931.86 498.108l8.687-64.09 30.45 3.247-39.453 6.06" />
      <path fill="#2d3908" d="M38.025 516.578l185.554 11.804-10.748-37.905-5.353 19.377" />
      <path fill="#5e4534" d="M888.05 367.383l22.626-12.347 48.18 4.46-90.05-11.66" />
      <path fill="#4c3b1e" d="M754.666 431.004l-150.403-5.52 163.365 6.608 12.732 10.9" />
      <path fill="#603b37" d="M632.042 328.94l56.835 37.977-78.742-36.935-28.506 3.373" />
      <path fill="#b99c83" d="M1012.39 582.92l-73.666-7.516-2.106 35.56 12.916-25.864" />
      <path fill="#3b2917" d="M510.522 382.457l-51.744 23.274-99.212 47.694 154.49-68.997" />
      <path fill="#a6825f" d="M756.53 303.246l16.598 38.917-21.424-22.903 13.84 77.777" />
      <path fill="#78533b" d="M399.936 509.677l54.18-62.424-15.968 27.267-36.692 16.547" />
      <path fill="#334713" d="M103.716 555.635l-123.79-17.814L-31 552.52l10.455 7.19" />
      <path fill="#564e47" d="M981.796 363.218l-14.504 7.396.05 33.082 12.044-5.793" />
      <path fill="#291b14" d="M268.37 362.437l6.508 13.87 139.137 5.656-164.07-1.89" />
      <path fill="#181507" d="M651.348 488.846l-26.468-24.988 6.635-45.96 6.06 23.02" />
      <path fill="#c69362" d="M747.21 548.604l-29.702-1.043-7.49 17.736 34.576-1.13" />
      <path fill="#bda38f" d="M572.34 488.843l33.582 13.994-72.744-2.15-55.552-11.336" />
      <path fill="#91741e" d="M696.07 576.004l103.995-10.683-6.394 14.676-44.748-2.038" />
      <path fill="#aa6041" d="M721.294 383.15l-14.122-6.96 68.765 31.21 121.965-.65" />
      <path fill="#896e36" d="M273.935 292.566l7.45 18.028-80.95 70.564 73.655-54.302" />
      <path fill="#5e431f" d="M806.863 476.472l-5.654 23.482.33-38.485 26.024 3.168" />
      <path fill="#dcba8f" d="M861.877 451.45l3.038 28.693-.97 5.895-3.323-11.104" />
      <path fill="#796720" d="M201.397 553.914l-63.643 25.154 71.16.47 18.465 64.287" />
      <path fill="#c59d6d" d="M905.705 381.018l66.26-.94-96.612-6.918 1.366-4.687" />
      <path fill="#847756" d="M835.296 201.882l4.354-7.242-10.375-8.112 33.533 53.637" />
      <path fill="#92982c" d="M201.62 539.696l-64.84-3.213 111.877-9.06 10.113 2.13" />
      <path fill="#604723" d="M450.773 557.86l-48.52-.635-77.85 2.347 76.07 2.37" />
      <path fill="#8f684e" d="M7.91 511.77l35.964-1.223L-31 470.977l37.27 30.966" />
      <path fill="#1b1910" d="M1017.272 344.638l34.417 8.4 3.31-1.706-170.892-2.843" />
      <path fill="#403b0c" d="M497.05 580.704l100.314 6.41-103.753 3.66-131.78-4.652" />
      <path fill="#d6aa77" d="M982.757 382.272l8.635 113.233 5.107-116.923-43.77-1.703" />
      <path fill="#666105" d="M811.294 488.572l-147.437 1.277 157.108-7.676 31.448 6.48" />
      <path fill="#9d9e29" d="M1055 681.08l-98.03 3.802 98.03-41.388-187.59-56.4" />
      <path fill="#c49564" d="M146.932 412.784l9.05 87.336 1.874-57.028 35.788-20.795" />
      <path fill="#54524a" d="M898.896 366.788l-.797 40.336 13.68-17.88-4.803-19.022" />
      <path fill="#b2c8d8" d="M75.433 138.477l473.674-27.42-108.563 122.307-229.793-17.338" />
      <path fill="#bdb8ad" d="M341.98 191.766L289.496 325.86l17.36-1.654-18.8 9.568" />
      <path fill="#828705" d="M544.416 510.18l-237.296 9.183 142.045 9.986 91.245-7.796" />
      <path fill="#b18757" d="M298.084 495.187l17.72 6.386-.273 7.442 23.82-14.008" />
      <path fill="#cc714f" d="M446.8 329.517l-44.812-.062 26.516 35.052-29.634 14.568" />
      <path fill="#27250f" d="M929.307 580.104l-20.737-3.945-46.104 3.423 82.927 6.048" />
      <path fill="#35460c" d="M369.164 518.025l42.87-3.395-13.794-6.047-110.637 3.312" />
      <path fill="#9b9e31" d="M1034.66 590.026l-16.94 14.053-79.232-16.445 102.645-6.278" />
      <path fill="#d7ab7b" d="M922.84 436.57l27.695-15.03 86.668 10.883-12.34-13.295" />
      <path fill="#21190b" d="M202.638 377.71l-64.533-33.518 25.008 1.677 31.503 17.338" />
      <path fill="#884d45" d="M638.094 504.008l62.65-.55 143.047 2.21-117.545 3.525" />
      <path fill="#65510c" d="M335.147 574.774l45.222 11.922 81.205-14.678-26.225-4.165" />
      <path fill="#070c00" d="M379.698 481.57l11.825-52.257-6.976 74.992 15.45-5.643" />
      <path fill="#c79a68" d="M192.907 492.91l32.582-11.364 2.213-59.586-24.34 86.02" />
      <path fill="#a8b1bc" d="M258.272 329.182l5.133-37.122-49.646-45.337 8.794 32.827" />
      <path fill="#f3cf9f" d="M871.992 352.272l-6.165 32.19-25.254-9.53 8.504-9.536" />
      <path fill="#130b05" d="M35.432 443.575l22.02-7.83-5.94 8.757-17.18 32.176" />
      <path fill="#987526" d="M651.543 353.387l-28.63-1.994 7.006-14.334 5.52 4.594" />
      <path fill="#c89572" d="M435.74 381.323l-59.487-25.23 119.16 35.598-40.226-28.792" />
      <path fill="#d7a874" d="M988.408 369.385l-8.43-6.048-52.838 1.893-38.623.215" />
      <path fill="#a3bed4" d="M262.83-31L64.453 85.045 637.86 73.862 500.48-31" />
      <path fill="#352013" d="M832.462 410.73l-10.18-2.79-77.618 5.777-12.008-5.5" />
      <path fill="#9b8247" d="M903.63 240.08l-13.718-51.71-15.065 16.23 29.39 15.462" />
      <path fill="#4e4315" d="M938.606 485.715l39.77-.63-8.2-7.827-21.128-7.128" />
      <path fill="#4b4251" d="M261.63 539.516l-42.9 7.796 30.828.223 11.102-3.68" />
      <path fill="#552b21" d="M591.694 383.313l10.222-12.193-11.517-4.252 28.6 16.72" />
      <path fill="#3f201d" d="M155.062 370.08l-.552 13.385 60.398.096-63.646 21.218" />
      <path fill="#4a3524" d="M178.846 420.97l5.598-.966-11.48-12.954-21.267 2.96" />
      <path fill="#1a1008" d="M828.737 462.965l30.774-1.27-3.356-16.438-16.073-13.3" />
      <path fill="#635022" d="M230.656 452.49l-4.744 31.427.968-8.585-.427 61.925" />
      <path fill="#c0c0c6" d="M736.613 307.8L505.08 271.913l262.965 11.76-16.92 42.798" />
      <path fill="#deaf74" d="M400.608 479.095l25.566 14.52-4.322-4.23-41.09-1.368" />
    </g>
    <g class="SVG--1">
      <path fill="#ca8d6a" d="M709.235 380.978l-61.302-27.37-1.044-1.294 46.238 17.514" />
      <path fill="#4a403f" d="M270.106 529.09l-9.7-34.405-1.62-77.03-2.582 72.855" />
      <path fill="#677300" d="M15.228 527.757l115.568 3.98L95.42 524.4l-79.062-6.42" />
      <path fill="#6d4e3e" d="M883.124 357.728l57.442-5.735 97.552-.117L1055 363.734" />
      <path fill="#2b2c1f" d="M291.066 332.194l61.53-11.817-30.785 30.915.93 14.264" />
      <path fill="#d9b27d" d="M261.584 529.202l12.697 20.974 7.67 17.78-19.857-6.605" />
      <path fill="#7d6d27" d="M668.89 489.22l-9.286-20.33-2.496 10.628 62.797 7.903" />
      <path fill="#62716f" d="M191.61 344.864l-32.076-2.91 28.785 14.35 42.89-28.223" />
      <path fill="#d6d1d2" d="M895.012 265.946l.116-4.553 7.83-25.73 3.047 69.962" />
      <path fill="#d5a76a" d="M411.19 407.913l-1.85-14.624-30.554-4.366-6.926 16.442" />
      <path fill="#756a06" d="M297.47 485.4l-21.334 4.095 31.996.834 82.975-2.86" />
      <path fill="#797253" d="M874.01 195.995l17.396-4.677-21.31.087 1.633 28.21" />
      <path fill="#e5e1de" d="M766.44 238.97l-109.35-6.65 164.472 46.647 26.918-55.775" />
      <path fill="#1b1a09" d="M673.088 415.163l16.733 6.95-6.58 66.898-3.995 18" />
      <path fill="#808512" d="M659.336 613.482l95.68 79.388-41.11-12.726-110.17-113.934" />
      <path fill="#94730f" d="M289.75 555.09l-3.24-14.784-10.384 36.943 14.357 9.948" />
      <path fill="#1f1d0f" d="M191.023 509.862l-6.675-30.616-42.753 10.47 52.787-22.075" />
      <path fill="#a0aac0" d="M436.28 306.092l-41.305-9.946-37.246 17.087 77.523 15.082" />
      <path fill="#050402" d="M963.257 431.76l-14.876-.05 24.433 30.89-1.516-16.003" />
      <path fill="#b58a11" d="M653.708 390.665l-64.863 13.39 72.042-1.568-6.91-13.75" />
      <path fill="#343019" d="M811.06 344.265l-36.167 31.98-17.153 5.962 53.715.613" />
      <path fill="#34312c" d="M1025.96 366.703l-27.056 9.403-1.053-7.076 36.362 5.69" />
      <path fill="#be9374" d="M263.553 320.033l.842 32.318 3.44 14.456 6.095-17.068" />
      <path fill="#cfb095" d="M484.766 356.223l4.63-1.296 66.692 28.817-11.592-15.93" />
      <path fill="#d6a676" d="M985.706 462.01l69.294-90.6-46.792-3.855L1055 353.95" />
      <path fill="#aa6f21" d="M390.335 561.14l155.913 7.33-102.952 1.37 36.62-7.5" />
      <path fill="#5e4630" d="M731.026 323.402l6.26-3.86-12.558-8.26 22.867 101.462" />
      <path fill="#c79869" d="M229.18 451.085l-37.51-18.875-29.695-11.987 98.41 3.724" />
      <path fill="#d09c69" d="M439.67 427.713l151.04-2.922-119.81-12.098-34.17 54.875" />
      <path fill="#846143" d="M854.08 363.415l-3.303-15.508 3.257 38.004.267-20.104" />
      <path fill="#090203" d="M210.18 457.66l-41.112-4.37 12-18.108 15.276-2.962" />
      <path fill="#8796a7" d="M820.902 331.38l7.642-18.226-66.04-4.743 58.16 30.833" />
      <path fill="#6c5741" d="M284.783 365.98l2.665-14.183 38.868 40.824-15.865-37.616" />
      <path fill="#251e12" d="M211 455.32l-.298 29.402-4.255 9.982-.696-14.41" />
      <path fill="#201d0d" d="M332.108 462.05l-21.17 25.706 5.5-31.51 8.38-34.4" />
      <path fill="#dfcfd4" d="M323.086 544.304l-2.59 31.613 4.856-19.903 3.007 11.618" />
      <path fill="#a29f38" d="M902.334 567.307l-92.185-16.81 1.51 2.576 6.946-32.403" />
      <path fill="#29240b" d="M711.9 578.23l18.682 7.623 34.023 2.837-153.776.266" />
      <path fill="#4b4d47" d="M916.878 363.877l-1.8 33.29 12.61-1.57.99-4.437" />
      <path fill="#8f6542" d="M28.535 409.272l126.706-1.87 11.687-1.19-104.276.034" />
      <path fill="#dbaa76" d="M901.628 380.912l-25.814-6.7-18.084 2.422 97.8 1.542" />
      <path fill="#aa6b55" d="M336.14 378.952l51.063-53.334 40.186 18.193-94.693 24.213" />
      <path fill="#cb9f71" d="M930.25 449.573l1.974 12.735-18.89-3.586 50.792-56.294" />
      <path fill="#775f3f" d="M887.03 404.784l-2.29-68.97-.554 134.595 5.14-47.928" />
      <path fill="#775239" d="M137.292 360.45l-122.623-.812 113.384-9.462 14.087 42.16" />
      <path fill="#e4e2e0" d="M475.214 237.404l74.988 6.91 11.08-25.998-68.654.168" />
      <path fill="#2a2720" d="M40.43 367.33l23.057 33.27 3.256-15.438-37.805-13.375" />
      <path fill="#966d4a" d="M473.072 454.405l-15.08 64.337 17.77-78.003 35-20.053" />
      <path fill="#b7a26e" d="M863.057 492.714l-20.576-9.727.038-17.636 17.432 25.757" />
      <path fill="#6a5821" d="M905.355 505.666l-5.994-26.18 19.292 17.64-5.214 1.6" />
      <path fill="#42361c" d="M843.9 213.692l9.998 2.49 13.763-1.426-12.59 10.835" />
      <path fill="#b1cadb" d="M857.244 211.53l92.14-117.635L709.65 192.67l166.268-23.41" />
      <path fill="#302f27" d="M323.568 551.488l-9.48 1.515 6.565-25.533-4.116 17.486" />
      <path fill="#562f2a" d="M237.305 374.522l2.642 10.13-102.83 4.915 140.725 2.196" />
      <path fill="#7a8208" d="M-3.225 683.46l18.29-13.583 112.913-36.145-107.29 46.4" />
      <path fill="#765f3d" d="M440.527 362.57l78.85-61.735-42.063 36.848-71.974 55.505" />
      <path fill="#6d6884" d="M224.896 562.433l-27.002.39 11.275-8.6-2.11 3.908" />
      <path fill="#2f2613" d="M851.655 468.89l-.396 26.707 10.043-15.11-2.443-18.013" />
      <path fill="#bf9886" d="M202.75 586.18l7.368 1.45-128.375 4.355 79.395-4.842" />
      <path fill="#cba171" d="M48.83 370.337l-6.22 5.74 5.35 9.474 4.99 50.52" />
      <path fill="#4b4a40" d="M847.944 562.79l-41.192.133 25.836-10.062-.74 25.972" />
      <path fill="#593e26" d="M382.58 500.313l72.683-27.614-2.97-11.335-11.783 19.192" />
      <path fill="#6a5a06" d="M582.088 444.3l-21.314 23.49 6.053-38.598 21.444-4.246" />
      <path fill="#995e42" d="M304.583 380.34l71.813 10.3-57.332-4.326-19.996 30.78" />
      <path fill="#bd9166" d="M100.877 451.213l1.377-1.582-2.375 62.104-24.13-93.832" />
      <path fill="#ba8137" d="M723.178 547.783l-6.406 34-4.382-37.098-15.623 33.303" />
      <path fill="#b89a92" d="M36.426 585.397l50.9-2.02 5.306-3.34-51.017.185" />
      <path fill="#897527" d="M225.676 375.486l8.327-37.107-37.382 42.535 20.452.17" />
      <path fill="#bd9d87" d="M797.18 559.337l28.617-8.834-62.168-20.164-22.665-.196" />
      <path fill="#99b7d3" d="M268.014-2.907L97.228 46.513l-105.06-.172L-4.456.624" />
      <path fill="#5c593e" d="M909.67 232.215l-16.9-6.747-14.743 3.053 34.45 12.43" />
      <path fill="#978627" d="M237.366 577.383l32.517-31.22 46.363-21.455-92.188 48.897" />
      <path fill="#cc9c6b" d="M139.663 405.343l33.928 13.295-22.055 41.677-1.338-82.95" />
      <path fill="#90463c" d="M862.743 509.693l26.826-.285-29.925-4.46-64.09.576" />
      <path fill="#42380d" d="M618.66 402.435L599.63 421.8l-1.52-13.976-9.603 46.628" />
      <path fill="#ae8a6c" d="M525.995 361.91l2.232-24.342 54.262 22.93-99.695-16.94" />
      <path fill="#88890e" d="M509.584 558.874l-36.644-24.34-13.74 29.95 49.38-39.05" />
      <path fill="#8093ab" d="M690.562 329.972l-48.285 5.975-4.995-27.37 88.357 5.717" />
      <path fill="#7d810f" d="M848.24 510.115l36.342 1.598-22.23 19.05-100.665-15.033" />
      <path fill="#b08454" d="M209.73 507.597l28.513-3.628-41.485.228 4.16-30.375" />
      <path fill="#9a9c2e" d="M621.845 527.623l153.673 31.016 12.886-.53-54.69-30.16" />
      <path fill="#6f7327" d="M907.14 525.075l41.122-12.288 48.636 9.11-32.547.934" />
      <path fill="#a4915e" d="M818.412 591.252l-4.065 17.27.772-26.188-15.724 1.092" />
      <path fill="#3f4d14" d="M263.342 524.816l-39.66 24.738-81.452-2.638 94.995-11.25" />
      <path fill="#453f4d" d="M1016.536 396.76l7.524.255 30.94-2.96-41.78-15.027" />
      <path fill="#aa804c" d="M79.497 491.205l12.85-5.916 1.382-26.832-14.02 51.784" />
      <path fill="#a48d63" d="M728.455 328.46l37.35 42.09-31.996-44.335-17.325-6.6" />
      <path fill="#bcacb0" d="M329.66 569.108l-9.694-38.233 1.018 43.114 6.097-20.412" />
      <path fill="#a9a735" d="M360.81 544.762l56.53-1.628 53.06 9.413-60.574 2.284" />
      <path fill="#5d4c07" d="M609.487 476.455l4.278-76.72 8.31-3.28-21.844 73.866" />
      <path fill="#d0a06e" d="M33.433 420.494l60.53 13.8 39.27-5.052-92.863 2.105" />
      <path fill="#29160d" d="M347.497 380.953l-46.932-2.12 136.273 3.575-19.2-4.362" />
      <path fill="#d8a87c" d="M533.413 491.436l.36 4.58-7.886-56.405-1.023 61.328" />
      <path fill="#d19e6b" d="M80.414 381.337L35.1 446.724l-9.167 25.637-3.003-17.58" />
      <path fill="#c9996e" d="M32.647 365.423l13.982 1.735 115.622-3.895-166.595-1.97" />
      <path fill="#323737" d="M868.888 306.53l9.164 22.88-11.11 9.32-1.3 7.3" />
      <path fill="#352317" d="M490.367 471.04l5.276-8.697 14.424-8.103 8.382 10.53" />
      <path fill="#bd8944" d="M583.598 561.823l21.212-1.304 30.552 8.727-51.765-6.288" />
      <path fill="#1e1213" d="M323.25 550.13l10.722-1.95-18.974-22.49 15.694 15.44" />
      <path fill="#291b0f" d="M640.294 385.067l39.996-5.978-78.573.525-6.536 2.048" />
      <path fill="#d1a16f" d="M695.602 391.13l-1.782 20.108-11.78-1.904-15.77-16.385" />
      <path fill="#555311" d="M125.175 511.08l22.237-21.63 155.214.595-173.868-4.84" />
      <path fill="#221d11" d="M3.594 350.208l8.666 24.974L-31 342.258l176.063 7.18" />
      <path fill="#181809" d="M40.482 379.958l-25.606 54.566 18.227 4.298-4.127-21.1" />
      <path fill="#ddb594" d="M458.29 355.547l25.91 1.316-10.07-2.11-9.204 26.783" />
      <path fill="#52554d" d="M677.532 340.51l-24.993 5.76 46.99 4.398-36.405 7.49" />
      <path fill="#ddaf82" d="M850.117 404.888l76.077-3.264 56.235 2.16-3.418.014" />
      <path fill="#778070" d="M935.29 191.047l-20.707-18.625-21.943 3.59 30.124 16.333" />
      <path fill="#6c85a6" d="M581.827 329.205l38.263-.146-50.526-25.7 26.774 10.36" />
      <path fill="#3d3932" d="M947.616 375.323l5.8-7.246 25.02 8.958-6.563-7.14" />
      <path fill="#b0c9da" d="M1055 199.07L924.136 91.665 911.466 215l7.39-36.512" />
      <path fill="#a8893b" d="M1018.086 488.883l-43.46 5.476-55.87-5.568 81.515-.34" />
      <path fill="#614c12" d="M703.597 574.926l-14.878 4.198-65.85 1.337 74.825-18.284" />
      <path fill="#939830" d="M259.748 645.586l-10.736-65.35 18.81 15.662L125.51 713" />
      <path fill="#d9a875" d="M16.153 362.277l13.362 1.89 1.046 33.11-5.907.195" />
      <path fill="#452a25" d="M596.297 369.828l-62.315-46.13 45.11 34.39 1.09-29.57" />
      <path fill="#ab7748" d="M123.732 510.982l-16.47-9.194 16.7-9.405 6.067 18.824" />
      <path fill="#5a4d09" d="M304.368 432.627l11.26 3.83-19.585 51.224-16.454-21.42" />
      <path fill="#f1ebe8" d="M728.445 410.823l-14.28 6.458 16.563-1.238-2.535-15.442" />
      <path fill="#534412" d="M570.15 427.503l.97 64.917-5.27-15.452 25.493-38.102" />
      <path fill="#9c9a2b" d="M-31 558.973l76.83-.994 153.97-.9-114.04 18.513" />
      <path fill="#af825d" d="M450.022 407.085l-30.61-19.464 59.648-8.248-58.568 31.05" />
      <path fill="#764723" d="M514.2 384.397l65.464 25.25 12.133 11.846-47.532-24.104" />
      <path fill="#c49664" d="M642.39 488.743l-2.845-13.92-41.21 16.967 42.773-8.355" />
      <path fill="#51430c" d="M366.45 396.696l13.664 90.046-8.414-5.393 12.582-70.178" />
      <path fill="#463735" d="M279.355 424.774l-8.4 41.822 6.54 26.245 3.356-45.235" />
      <path fill="#5e4838" d="M564.088 350.453l11.21 4.002-9.38-21.745 16.193-18.684" />
      <path fill="#302216" d="M700.125 435.19l8.54-57.98-24.364 3.197 9.15 3.06" />
      <path fill="#211c09" d="M385.643 502.238l28.838-.02-27.797-14.138 16.3-63.787" />
      <path fill="#bd6242" d="M657.113 356.577l32.11 22.344-94.448-.66-6.396-2.194" />
      <path fill="#bfced5" d="M875.595 211.614l1.358 3.632 7.503 6.49-1.556-12.36" />
      <path fill="#8b494b" d="M481.673 505.546l-26.94 2.3-26.883 1.227-100.89-4.518" />
      <path fill="#cb9c77" d="M568.5 357.058l-45.012-3.758 48.566 41.658-31.24-.788" />
      <path fill="#3e3128" d="M273.1 312.034l14.522 20.106-3.1 10.305-.143 2.29" />
      <path fill="#776125" d="M26.58 510.686l-6.464-32.248 3.42-23.072 7.245 110.808" />
      <path fill="#6b859e" d="M83.318 303.158l104.38 4.577 71.4 13.31-95.118 21.048" />
      <path fill="#f6ce96" d="M779.55 471.252l-2.3 13.285-7.978-4.957 2.545-15.352" />
      <path fill="#a9c4d9" d="M1055 144.728L865.788-15.63 170.102 134.583l292.845-2.49" />
      <path fill="#3e2f2b" d="M326.768 533.592l15.844 37.05 3.365-9.727-15.01-8.183" />
      <path fill="#624232" d="M142.883 361.42l51.012 32.503-38.648-44.94-61.554 5.04" />
      <path fill="#b2c7d5" d="M959.46 179.836l-50.976 28.984.16 2.398 115.06-58.733" />
      <path fill="#d8ac63" d="M550.37 336.35l-65.157-.995 28.83-26.726 28.56 31.698" />
      <path fill="#cfa66b" d="M970.824 475.965l11.08-1.33-17.98 29.908 20.078-10.015" />
      <path fill="#aeb5b8" d="M949.553 293.227L888.8 326.932l-23.908-24.872 49.595 14.172" />
      <path fill="#b08557" d="M720.867 502.106l-21.982-5.923 5.65 8.65 13.844-12.04" />
      <path fill="#605124" d="M752.898 366.535l6.935 17.166-34.19-.99 14.338-15.715" />
      <path fill="#d1a072" d="M85.823 410.88l1.454-36.512-24.26-11.254L78.79 438.73" />
      <path fill="#af6448" d="M1055 344.13l-149.248-3.233 103.445-75.983 19.935-.108" />
      <path fill="#534546" d="M471.923 508.88l-79.966-18.354 41.64 4.425 10.87 5.47" />
      <path fill="#cdcccf" d="M265.337 243.128l111.39 20.305-60.69 44.67-1.264-7.846" />
      <path fill="#845e3e" d="M497.81 456.903l5.994 30.24-7.84-38.666-23.085 32.147" />
      <path fill="#6e5739" d="M340.604 390.18l88.828-2.846-25.258-2.404-70.37-2.23" />
      <path fill="#a6806a" d="M735.79 524.233l4.265-14.243 29.794-3.908 9.103 24.225" />
      <path fill="#8f9419" d="M462.346 516.333l7.543 10.508-131.428 10.32-36.203-11.702" />
      <path fill="#d6a574" d="M291.883 386.01l120.322 11.348-85.313 5.953-3.2-14.312" />
      <path fill="#cdd2d6" d="M92.233 297.56l32.926-20.26-66.1-14.555-39.002 10.972" />
      <path fill="#322d0c" d="M386.56 494.966l28.155-4.83-23.085-.883-129.302 2.25" />
      <path fill="#030709" d="M832.587 560.017l-.918-4.492-12.465 13.442 8.54 19.1" />
      <path fill="#22180a" d="M835.385 504.347l10.44-70.19-16.928-2.824 6.59 42.803" />
      <path fill="#8b9321" d="M157.295 673.44l-37.21-40.366L-25.222 713 248.52 612.22" />
      <path fill="#daab78" d="M792.655 472.635l1.718 10.986 6.4-8.217-4.026-29.725" />
      <path fill="#322b0c" d="M598.57 471.624l-6.186-38.445 47.69 61.955L612.52 446.6" />
      <path fill="#7d603a" d="M132.194 529.61l.346-23.814 7.325-24.56.493-90.43" />
      <path fill="#c8a884" d="M844.252 484.545l8.342.187-12.807-29.153 3.72 4.296" />
      <path fill="#c6927a" d="M-24.57 253.187l.35-11.005 70.172 45.176-34.838-16.86" />
      <path fill="#d1a579" d="M909.335 406.885l7.51-59.178-5.59 110.53 55.414-43.034" />
      <path fill="#442d1e" d="M455.874 478.442l-1.79-15.312-5.605 2.822L444 491.506" />
      <path fill="#89701d" d="M470.132 571.798l161.858 3.982-26.06 6.44-72.365-4.3" />
      <path fill="#b39079" d="M-31 645.262l179.472-61.018-63.3 6.112-78.09 20.82" />
      <path fill="#888a1d" d="M459.638 627.66l154.097 30.89-201.037 7.86-37.78 5.717" />
      <path fill="#ac915c" d="M488.718 376.844l-10.48-43.056 30.39 5.138-13.695-18.816" />
      <path fill="#b8875e" d="M647.456 499.843l19.834 2.254 8.924-6.532-34.746-.7" />
      <path fill="#aa8055" d="M542.426 490.213l-12.84-53.172 35.367 56.033 2.973-38.823" />
      <path fill="#bbbcc5" d="M341.92 318.633l17.958 3.432-15.437-58.035 121.187 36.69" />
      <path fill="#c2b8b6" d="M811.24 519.814l4.216 34.534-9.402-29.216 8.654-7.53" />
      <path fill="#3e3413" d="M110.937 505.303l-21.09 2.667 13.863 19.878 4.046-31.643" />
      <path fill="#39430f" d="M-28.942 590.477l82.612 7.07-51.01 11.76 17.394-8.678" />
      <path fill="#d4a06d" d="M125.174 374.222l4.34 31.49 18.914-47.16-.907 36.092" />
      <path fill="#d4a475" d="M853.05 482.41l30.01.026-.713-65.54-12.462 64.832" />
      <path fill="#b3b3ac" d="M535.01 341.846l-5.633-10.165-18.773 27.063.458-14.378" />
      <path fill="#cea06f" d="M804.42 423.713l-4.756 45.493-40.574-55.062 12.757 7.602" />
      <path fill="#9f4e33" d="M315.335 407.815l-20.794-5.41-18.267-19.808 50.424 7.71" />
      <path fill="#231c1b" d="M60.64 385.09l4.306-8.713-.323 23.19-12.247 2.643" />
      <path fill="#d7baa6" d="M493.27 351.84l-2.796 17.14-11.512 10.328 22.364-14.3" />
      <path fill="#7a3438" d="M901.763 508.66l30.663-.23 7.368-2.356-111.637-.662" />
      <path fill="#a57a45" d="M300.528 495.3l81.984 2.75 3.187-3.323-18.786.577" />
      <path fill="#332a23" d="M838.942 488.974l-111.37 5.85-.205 4.953-12.556 7.71" />
      <path fill="#070707" d="M495.21 472.63l17.643-11.658 6.464 4.204-19.5 23.39" />
      <path fill="#947b5a" d="M721.86 337.375l11.345 18.815-75.338-1.637 33.045 7.294" />
      <path fill="#423d15" d="M858.705 569.588l-28.15 3.735-41.584 15.36-46.294-.496" />
      <path fill="#a1a8b6" d="M271.274 297.18l-99.765-7.904 3.086 20.294 96.455-8.193" />
      <path fill="#826747" d="M677.636 472.097l7.68 15.335 35.017-1.612-44.922-6.984" />
      <path fill="#676800" d="M894.226 488.172l160.774.435-115.307-7.5 52.782 7.162" />
      <path fill="#c79667" d="M190.66 428.8l-7.94-6.433 64.894-4.07-19.096 43.55" />
      <path fill="#a5a03c" d="M725.78 553.13l-68.096 10.315 11.703-39.742 60.76 33.625" />
      <path fill="#878f12" d="M154.948 623.09l73.797-27.937-52.383 33.29-71.27 15.27" />
      <path fill="#1b180c" d="M354.18 449.05L340.89 473.92l74.867-6.9 16.966 22.888" />
      <path fill="#989921" d="M479.948 533.092l165.703-.38-45.92 26.783-29.397-42.755" />
    </g>
    <g class="SVG--2">
      <path fill="#6e5b3b" d="M887.542 213.002l30.46-39.99-41.064 58.594 18.335-2.6" />
      <path fill="#c0b07b" d="M652.417 334.334l.985 8.27 2.77.973 39.488-11.61" />
      <path fill="#7588a2" d="M409.725 319.67l32.46 5.51-40.912 4.664-47.654-7.042" />
      <path fill="#9b6962" d="M172.29 505.42l348.998-2.504-202.77 4.85-104.465-.932" />
      <path fill="#372729" d="M429.78 322.838l14.423-6.4 40.718 3.687-17.528-4.98" />
      <path fill="#322f0d" d="M393.72 585.41l-74.876-5.354-7.883 5.988 45.706 3.675" />
      <path fill="#a49e37" d="M721.42 592.187l140.162 14.11-10.31-22.817 50.36 14.6" />
      <path fill="#c89567" d="M488.91 439.304l-9.04 53.247-1.49-77.765-20.728 37.847" />
      <path fill="#4d3e13" d="M701.89 414.472l17.188 6.775-119.52 19.956 63.284-6.58" />
      <path fill="#ca9b69" d="M157.09 483.77l-17.755 1.286 6.854-8.234-33.61-17.662" />
      <path fill="#d2a579" d="M988.612 452.766L1055 390.28l-102.993 36.386 15.56 7.048" />
      <path fill="#101206" d="M385.102 416.638l-1.686 61.826 38.005-5.86-17.98-8.43" />
      <path fill="#322226" d="M586.54 314.898l-9.745 3.22 12.22 50.725-7.734-15.382" />
      <path fill="#d1c8cb" d="M864.8 255.77l23.693-17.25-1.44-4.732-22.803 34.686" />
      <path fill="#9c9e23" d="M1055 565.043l-12.743-36.684-242.954 14.87 128.99-19.932" />
      <path fill="#35300e" d="M616.44 489.696l35.237-.668 156.002 2.666-152.414 1.893" />
      <path fill="#60512f" d="M835.02 362.24l8.21 23.993-33.568-27.716 17.357.78" />
      <path fill="#0e0805" d="M209.18 449.163l-53.53 39.983 9.655-50.648 16.923-7.475" />
      <path fill="#bd644e" d="M566.275 315.92l18.212-1.574-58.87-27.28L523.662 311" />
      <path fill="#0e1308" d="M12.455 379.205l-.515 27.704-19.935 97.442L-31 408.592" />
      <path fill="#8d984d" d="M310.08 549.91l-21.578.07 47.046-26.898-36.557 3.958" />
      <path fill="#cc9864" d="M483.56 415.186L446.44 430.57l-15.168 64.403-.577-28.897" />
      <path fill="#7d8110" d="M698.034 521.998l-30.783-4.09 32.023-8.54 49.126 49.68" />
      <path fill="#d3a679" d="M1013.844 414.803l-3.485-26.438 1.18-28.98 3.287 8.913" />
      <path fill="#b5b8c3" d="M778.378 322.216l2.386-10.126-25.612-28.395 80 12.468" />
      <path fill="#a38675" d="M862.112 263.458l-.86 34.606-1.686-15.775-.82-63.93" />
      <path fill="#59641b" d="M377.046 542.734l7.257-1.367 104.53-3.417-126.805-.407" />
      <path fill="#e5b506" d="M287.143 546.75l-10.437 21.186 2.63-30.405 4.135 6.668" />
      <path fill="#2c1f15" d="M636.52 484.753l-17.272 9.005 12.743 7.083-10.003 4.044" />
      <path fill="#1f210a" d="M733.208 443.487l-6.29-.727-76.057 46.65 35.627-11.773" />
      <path fill="#655a28" d="M79.58 578.34l-48.71.844 10.164 4.526-46.356-.47" />
      <path fill="#423420" d="M893.856 501.73l-69.712-11.33 51.526-1.345.79-.49" />
      <path fill="#887555" d="M728.27 318.38l32.76 22.475 26.284-17.062-90.244 3.604" />
      <path fill="#122804" d="M-31 514.304l36.462-.933 53.614 1.233-47.495 4.13" />
      <path fill="#090906" d="M160.915 481.35l41.343 5.175-43.03-41.205 10.238 26.125" />
      <path fill="#bcbac2" d="M585.683 315.81l-31.9-16.322-33.07-23.476 95.64-4.98" />
      <path fill="#798b93" d="M209.37 354.483l20.46-45.877 30.47 32.242-62.675-13.23" />
      <path fill="#ca9d6a" d="M897.336 363.68l-23.41 48.145-6.27-62.44 28.862 61.85" />
      <path fill="#c2903d" d="M539.843 568.667l50.998-3.854-40.18-4.11 108.02 3.353" />
      <path fill="#c29f72" d="M210.452 473.073l1.974 11.284-.663 9.088 8.368-61.507" />
      <path fill="#898168" d="M918.23 199.968l-1.177-4.704-27.077 5.778 49.056 6.56" />
      <path fill="#2b250a" d="M648.155 587.654l-41.093.68-90.54.108 21.016-3.39" />
      <path fill="#7a633e" d="M742.447 452.667l-40.35 15.16 56-22.446-12.68 22.835" />
      <path fill="#bc8562" d="M604.917 507.053l20.36-19.518-5.323 12.688 3.754 2.433" />
      <path fill="#483b37" d="M256.818 503.553l64.807.594-60.22-11.117-5.634-10.836" />
      <path fill="#818815" d="M37.847 600.277L-31 597.144 51.795 713-31 608.906" />
      <path fill="#bbcfde" d="M953.386 177.902l-42.045 56.754 92.83 29.392 50.83-60.015" />
      <path fill="#aa8055" d="M208.086 507.534l-13.063-.74 8.13-23.923-10.482-16.347" />
      <path fill="#be9367" d="M35.36 366.245l-29.415.45 5.92-12.614-2.046 5.398" />
      <path fill="#020502" d="M224.692 590.5l-17.54-17.583 18.873-15.336-1.708 3.647" />
      <path fill="#9c992f" d="M781.638 601.126l21.006-10.065-104.576-2.16-180.703 2.837" />
      <path fill="#958677" d="M939.02 460.083l-4.366 42.273-3.91-7.368 8.56.69" />
      <path fill="#77664f" d="M282.838 324.478l12.618-15.622-18.778-5.314 11.997 19.188" />
      <path fill="#464538" d="M907.16 216.742l19.225-.097-5.414-13.404-10.693 25.542" />
      <path fill="#ba9e8b" d="M626.61 504.302l-30.415.865-111.1-1.59 113.703-13.33" />
      <path fill="#3d4618" d="M190.954 368.39l12.504-25.45 6.263 17.4-8.605 19.13" />
      <path fill="#4b361f" d="M39.713 473.324l6.486 35.758 21.6-58.032-15.058 7.54" />
      <path fill="#582832" d="M708.168 405.602l-.23-24.274 60.346 21.086-16.018.543" />
      <path fill="#869123" d="M856.266 624.536l112.4 37.71-154.017-16.07 84.97 45.113" />
      <path fill="#bc9784" d="M729.482 366.827l-2.207 6.73-6.593-6.397-.316-23.654" />
      <path fill="#2e2620" d="M323.78 547.334l4.343.49-7.053-24.365 9.767 31.25" />
      <path fill="#9b583e" d="M315.796 381.636l31.75-10.232 31.533-22.385-64.682 27.19" />
      <path fill="#726961" d="M478.46 495.217l-34.247 10.362 15.948-8.08 62.468.123" />
      <path fill="#675208" d="M595.003 421.975l8.078 9.875 54.12-39.163 15.84 15.18" />
      <path fill="#929b32" d="M712.02 589.622l177.668 99.763-77.517-36.85-58.916-14.01" />
      <path fill="#514416" d="M793.45 503.448l-17.418-17.542 13.896 6.962 2.06-35.314" />
      <path fill="#a07a5d" d="M552.638 375.33l25.822-19.29-16.412 45.107-12.61-80.648" />
      <path fill="#d9ac7d" d="M893.786 484.68L884.88 479l38.107-61.536-2.848 67.012" />
      <path fill="#444241" d="M251.458 534.92l17.13-23.455 64.767-1.63-67.87 16.27" />
      <path fill="#635521" d="M208.69 487.96l14.687 17.08-13.714-5.137 94.23-9.416" />
      <path fill="#dbab78" d="M947.098 390.93l-11.2 8.876-6.743-29.048 18.422-6.643" />
      <path fill="#9b9c21" d="M769.348 517.265l34.908 17.33 2.08 12.205 1.688-31.315" />
      <path fill="#ad874c" d="M891.233 489.323l-2.376 7.123 11.9 15.49 2-38.427" />
      <path fill="#ad8e3e" d="M251.827 490.864l22.26-1.232 12.36-8.38 12.542 6.114" />
      <path fill="#8c664b" d="M890.836 363.152l3.252-6.242L1055 360.345l-79.727 4.466" />
      <path fill="#516032" d="M288.354 537.706l26.61 2.026 22.172-10.04-53.247 17.227" />
      <path fill="#a7a49d" d="M718.248 323.02l32.5 15.305-58.063-33.554 28.302 3.685" />
      <path fill="#140e09" d="M1020.66 473.238l-10.59-39.8 44.93-6.975-49.124 38.96" />
      <path fill="#c49167" d="M70.426 368.936l7.885-2.15-17.728-5.582 99.915.202" />
      <path fill="#1f2716" d="M343.356 505.995l1.582-7.353-2.44-7.81-1.455 5.98" />
      <path fill="#fad9a5" d="M607.644 386.086l2.75 16.364-6.794-3.795 1.29-15.953" />
      <path fill="#181707" d="M681.5 462.146l-41.073-62.9 82.897 86.442-50.842-19.984" />
      <path fill="#bbcad8" d="M779.488 15.46l-130.98 6.913 78.654 12.68-26.13-4.742" />
      <path fill="#473728" d="M762.187 427.098l18.914 18.367 4.364 10.274-1.317 1.87" />
      <path fill="#352a0e" d="M781.52 489.728l-7.364 10.645 12.956-5.9-4.52-31.655" />
      <path fill="#59483f" d="M545.03 396.165l31.34 3.553-12.574 8.767 11.94-13.026" />
      <path fill="#271e14" d="M836.97 359.03l-12.585 18.44-22.62 1.444 61.57-27.588" />
      <path fill="#87785f" d="M912.894 219.51l-19.89-3.512.337 65.48-4.34-35.335" />
      <path fill="#4c3b1a" d="M152.06 511.944l-1.028-27.996-.425-26.072 6.302 70.378" />
      <path fill="#d0cacc" d="M443.752 310.508l42.55-25.547 11.29-18.736-77.51-6.308" />
      <path fill="#a1a434" d="M800.168 502.564l82.037-1.098 172.795.917-159.85 2.15" />
      <path fill="#a5bfd7" d="M-31 131.4l149.954-16.017 27.2-54.487L-11.91 47.6" />
      <path fill="#906b49" d="M512.508 398.293l-.817 51.88-4.397-60.078-73.058 42.31" />
      <path fill="#a19b7a" d="M857.65 184.083l-30.486 6.22 20.212 14.275-9.238-18.946" />
      <path fill="#bbb7b3" d="M874.335 311.21l-.667 5.32 17.17-8.24-34.985-37.472" />
      <path fill="#2c2120" d="M114.525 376.678l-19.265-11.8-4.204 12.123 21.275-11.913" />
      <path fill="#12100f" d="M211.475 474.872l-32.415-.193 13.06 14.652-12.647-33.562" />
      <path fill="#926c47" d="M206.865 465.48l-1.105-11.124 88.968-35.46-92.484 36.928" />
      <path fill="#67530b" d="M234.048 577.182l42.134 5.336-43.755-18.36 30.162-2.857" />
      <path fill="#996756" d="M832.066 354.802l69.516-34.312-74.607 39.94-2.93-2.933" />
      <path fill="#98962b" d="M586.704 661.75l-79.298.522L588.71 713l140.722-39.126" />
      <path fill="#d4a879" d="M993.698 474.227L977.7 362.994l-2.652 2.353 19.5 1.445" />
      <path fill="#523c2a" d="M619.138 323.897l.2 31.502-22.548 9.89 3.844 28.59" />
      <path fill="#44301d" d="M16.68 482.096l-10.226-25.54-28.04 168.74L-31 512.414" />
      <path fill="#272314" d="M-31 406.562l79.898 13.607L12.59 397.69l2.803-6.54" />
      <path fill="#221d0b" d="M413.465 473.586l-15.23-24.403-9.624 37.787-35.305-.7" />
      <path fill="#d4a170" d="M548.48 427.108l13.97 69.188-38.084-105.47 56.67 32.462" />
      <path fill="#706916" d="M823.683 489.93l57.974-7.523 4.588-4.712 1.65 12.653" />
      <path fill="#835740" d="M304.59 550.65l11.83 26.044-2.724-9.638-12.85 14.464" />
      <path fill="#252515" d="M298.766 492.687l-.855 13.402-36.786-28.59 31.25 18.152" />
      <path fill="#a4bfd5" d="M467.28 70.95l211.537 32.578 65.478-18.895-89.176-64.74" />
      <path fill="#9b5843" d="M-31 342.403l94.506.395 78.917-5.86L-31 249.22" />
      <path fill="#d8a168" d="M539.347 327.147l24.562-2.806 1.995 18.09-24.383-14.922" />
      <path fill="#967c70" d="M295.614 526.954l-26.574.934-38.173 14.396 74.277-13.547" />
      <path fill="#a68572" d="M268.87 363.904l9.65-12.416-2.214-11.086-8.8-2.602" />
      <path fill="#cea16f" d="M31.31 461.01l-5.587-27.68-6.7 50.54-2.686-36.39" />
      <path fill="#553b35" d="M463.767 390.923l1.03 8.103-13.436 15.485 1.41 3.746" />
      <path fill="#8a9215" d="M1055 653.183l-150.793-42.79 37.236 13.38 69 24.934" />
      <path fill="#baa300" d="M372.2 568.41l10.35-4.69-28.89 1.725-10.152 4.264" />
      <path fill="#c5c5cb" d="M221.713 294.474l17.11-13.14 55.315 25.16 5.632-72.338" />
      <path fill="#b38e64" d="M573.134 314.793l5.9 80.14 44.13-2.827-36.905 3.06" />
      <path fill="#504011" d="M313.61 406.663l37.064 47.814-18.772 29.6-5.66-80.695" />
      <path fill="#50461a" d="M176.396 569.142l-8.412 3.014 1.466-5.11 83.665-34.212" />
      <path fill="#879124" d="M361.36 604.07l-126.65 80.025-76.822 28.588 132.06-87.974" />
      <path fill="#c8946b" d="M313.395 430.9l-22.626-.655 26.797-10.734-5.626 9.143" />
      <path fill="#473223" d="M973.23 473.266l-1.907-25.854 11.293 18.712-4.196 6.396" />
      <path fill="#a27859" d="M763.212 390.09l-.75-41.81-13.655-5.758 19.92 37.21" />
      <path fill="#28210d" d="M622.53 426.068l-36.468 24.298 15.803 26.13-15.644 5.066" />
      <path fill="#eab875" d="M757.81 485.85l-7.377-1.497 10.356-43.61.54 37.383" />
      <path fill="#b2cadb" d="M850.248 204.86l-17.92-41.49 170.456 23.568-169.412-82.733" />
      <path fill="#7c794e" d="M864 196.714l6.208-20.9-14.294-.576-11.162 2.952" />
      <path fill="#dbaa77" d="M36.526 481.91l-3.93 7.103 7.66-13.902-22.48 3.895" />
      <path fill="#16170e" d="M-31 431.665l74.576-33.818 1.927-10.625-62.013 37.295" />
      <path fill="#4f302f" d="M702.857 404.96l19.09 7.09 15.77-62.318 1.295 22.29" />
      <path fill="#b9cdde" d="M822.626 172.814l11.85 47.056-182.09-12.183L840.39 190.12" />
      <path fill="#e9c28a" d="M613.63 502.516l-10.807-32.55 2.65 18.775 1.274 8.94" />
      <path fill="#bb634a" d="M538.553 288.086l-13.61 19.212-30.823-25.416-37.197 31.87" />
      <path fill="#bf9569" d="M57.478 378.61L-31 377.065l167.896-.448-67.953 3.327" />
      <path fill="#a78969" d="M232.014 549.475l-5.183 33.152 9.385-24.91-27.434-2.3" />
      <path fill="#b38d62" d="M50.404 369.67l-1.627 65.572-2.98-85.62-1.046-5.793" />
      <path fill="#8b8c0f" d="M707.846 507.798l-150.407 3.446 68.248 49-26.674-27.524" />
      <path fill="#7b6f47" d="M911.56 198.576l-19.174-19.97 20.567-5.16-22.236 81.358" />
      <path fill="#969625" d="M176.53 537.217l-76.136 2.013 68.37-10.706 84.123 5.93" />
      <path fill="#6d635b" d="M474.863 498.98l-6.38-4.423 35.66-.457-6.408 6.418" />
      <path fill="#969b2d" d="M278.738 586.713L124.95 650.12l-154.196 54.277 154.528-62.52" />
      <path fill="#a7a298" d="M317.42 315.763l60.29-12.933-44.21 14.703-30.055-10.73" />
      <path fill="#999a2e" d="M146.275 602.077L430.783 588.6 249.128 628.97l-19.295-42.902" />
      <path fill="#dda56b" d="M777.82 446.207l-1.774 3.69-3.02-1.303 6.416 33.14" />
      <path fill="#a5a338" d="M537.018 541.91l-18.095 10.853 34.516 3.263 55.68-14.234" />
      <path fill="#dddad7" d="M862.137 233.665l54.56-42.088-99.817 84.112-159.585-26.402" />
      <path fill="#17140a" d="M17.987 463.65l-47.647-96.437 44.946 108.612 2.582-15.956" />
      <path fill="#cc9c6b" d="M108.254 431.538l-33.898-2.07 30.02 56.91-2.985-125.73" />
      <path fill="#b1a28d" d="M269.38 286.935l-20.587 48.745-12.39-20.156 17.6 15.12" />
      <path fill="#644e24" d="M141.056 493.592l21.826-37.067-11.21 6.447-8.317 66.188" />
      <path fill="#b2765f" d="M385.895 330.583l-29.542 19.593 68.582-4.37-6.65-16.512" />
      <path fill="#746b2a" d="M770.287 515.208l93.83-1.468 26.156-5.912-112.536 3.287" />
      <path fill="#977a00" d="M342.06 406.753l-13.722 21.825 1.035-15.844 38.6-11.055" />
      <path fill="#503e35" d="M739.78 366.58l-.433-9.817-8.663-30.683-1.742 25.107" />
      <path fill="#51473c" d="M997.03 367.748l-.01 13.246 22.22-13.116 35.76 15.426" />
      <path fill="#965539" d="M219.74 409.04l103.98-13.417-97.57-5.542-80.243 16.515" />
      <path fill="#5c4329" d="M-31 400.87l-2.71 34.313 76.398-2.747-28.347 11.72" />
      <path fill="#d1a06e" d="M115.115 418.802l21.31 28.183-23.684.578-76.817-47.657" />
      <path fill="#060504" d="M39.968 437.313L42.47 470l-11.425 4.76 6.606-22.385" />
      <path fill="#a86952" d="M836.156 375.307l6.82-10.202-45.614 30.517 38.746-18.037" />
      <path fill="#483d1a" d="M227.342 356.093l9.33 23.635 25.972-24.49-16.406-11.27" />
      <path fill="#9a7924" d="M595.03 348.62l11.965-2.856-10.78-16.132-11.348 18.855" />
      <path fill="#bc9361" d="M602.18 372.662L563.816 399.9l-.976-4.933-26.327-3.508" />
      <path fill="#dda95f" d="M624.983 396.943l6.64-4.49 18.88-4.09-5.276 7.39" />
      <path fill="#0d0d06" d="M682.353 480.34l36.165-7.85-70.357-33.34 42.436 3.593" />
      <path fill="#a16857" d="M232.528 494.23l2.51 12.5 81.387 1.05-88.84-5.024" />
      <path fill="#0e1008" d="M69.284 493.582l-2.33-33.31 4.608-28.338 14.785 45.418" />
      <path fill="#342a18" d="M327.03 317.313l-5.193 54.424-8.246-28.097 12.937-37.293" />
      <path fill="#7a5a41" d="M620.668 382.07l-2.706 7.344 25.48.882 55.2-4.337" />
      <path fill="#1d1b14" d="M316.306 340.874l-9.66 5.914 39.44-10.434 4.45 27.367" />
      <path fill="#101707" d="M8.08 354.54L-31 457.57l35.19-26.804-27.683-137.733" />
      <path fill="#8d6f3f" d="M738.348 340.717l3.975-25.4-1.198 14.88 13.835 105.728" />
      <path fill="#95837b" d="M901.864 352.258l-9.513-16.643 3.57-64.947-9.5 52.753" />
      <path fill="#130e0c" d="M86.408 470.47l-2.687-20.827-20.057-19.85 20.124 52.833" />
      <path fill="#6d3934" d="M741.983 408.61l-10.863 5.025 5.66-25.26 34.305 20.58" />
      <path fill="#854835" d="M545.942 507.058l-39.36-1.518 76.01-.477-22.727 6.108" />
      <path fill="#58470c" d="M409.682 429.193l-13.024 28-5.33-61.48 15.23 62.64" />
      <path fill="#716323" d="M18.956 504.118l16.54-22.067-29.088 7.325L-31 458.45" />
      <path fill="#211f1d" d="M18.28 374.908l-49.28.327V353.81l41.926 14.634" />
      <path fill="#d4673b" d="M444.056 340.268l-5.495 18.64-5.554-1.426-6.138-27.496" />
      <path fill="#534d4a" d="M959.586 396.663l-4.368 5.393-11.288-4.02 14.344-17.062" />
      <path fill="#617f9d" d="M627.878 309.678l-48.924 16.48 78.68 3.07-2.623-8.79" />
      <path fill="#5d535a" d="M1002.794 398.196l8.628-17.2-17.112 21.657 12.905-1.543" />
      <path fill="#261914" d="M325.792 550.274l5.078-1.788-.156-20.767-5.873 15.4" />
      <path fill="#d9aa7e" d="M1011.366 420.045l-.156-42.787 36.184 4.532-32.26-1.84" />
      <path fill="#976d4a" d="M468.23 473.635l-3.225-4.657 2.06-15.29 19.167-20.49" />
      <path fill="#99982e" d="M491.042 615.894l189.822-18.32-199.496-8.608-14.762 120.636" />
      <path fill="#2b0e12" d="M317.738 408.703l-16.105.297 17.345 2.845 4.34-1.366" />
      <path fill="#543d29" d="M725.868 464.992l15.377 26.252.337-9.973-29.757-1.51" />
      <path fill="#847828" d="M661.344 487.41l-2.425-11.322 6.84-5.185-22.874 93.424" />
      <path fill="#ce9582" d="M83.395 302.573l-65.922-29.73 40.89 21.97 63.465 29.122" />
      <path fill="#524e4c" d="M1007.893 402.806l2.356-4.46-1.856-16.597-13.616-.228" />
      <path fill="#b58753" d="M523.098 415.216l49.62 43.894-22.208-8.427-25.416-43.045" />
      <path fill="#715920" d="M994.8 510.628l3.47-26.184-9.17 25.707-11.09-38.846" />
      <path fill="#9e9c1f" d="M-22.11 543.58l55.418-12.54 76.944 4.394L-31 543.86" />
      <path fill="#1c1908" d="M658.143 436.743l-42.516 44.133 20.523-67.408 8.157 79.99" />
      <path fill="#c2a777" d="M87.132 582.987l20.92-17.218-9.77 14.466-78.184 4.08" />
      <path fill="#dfb68a" d="M995.065 475.23l-1.737 6.828-23.677-6.165 26.63-2.33" />
      <path fill="#b68e56" d="M26.378 490.895l4.972 15.29 3.966-21.493 9.292 7.897" />
      <path fill="#917c22" d="M715.9 488.262l-131.977.477 144.08-3.673 21.57 1.583" />
      <path fill="#25200b" d="M357.363 486.585l-5.294-57.463-2.036-28.322 18.95 82.608" />
      <path fill="#d4a473" d="M826.253 429.16l-41.36 35.987 3.516-27.908 197.145-26.334" />
      <path fill="#34281f" d="M257.344 361.28l60.45 17.262-83.904 3.585 40.755-36.21" />
      <path fill="#5e501a" d="M483.635 553.298l1.08 2.64 12.87 3.55-76.335 1.682" />
      <path fill="#e2b991" d="M542.91 356.402l-3.95-5.4 9.25 40.87-3.38-45.45" />
      <path fill="#c1c0c3" d="M979.8 250.188l-71.74 52.38 10.114 10.297 22.78-12.106" />
      <path fill="#26190d" d="M782.045 457.408l2.873 31.41-1.887-38.297-10.706-14.164" />
      <path fill="#bc8b5f" d="M444.103 412.753l7.31-33.78 12.316-9.11-35.495 42.58" />
      <path fill="#6c4d24" d="M651.25 555.86l-82.454 4.047 26.475 1.446 70.084-1.425" />
      <path fill="#d49d65" d="M395.613 410.176l16.972 3.24 4.59-1.193-9.266-19.203" />
      <path fill="#79523d" d="M927.008 471.63l-4.136-17.146.663 26.017 8.277 3.292" />
      <path fill="#6a5a30" d="M212.762 356.984l-63.562 15.01 96.854-17.5 21.274-23.292" />
      <path fill="#d4d2d6" d="M890.07 272.667l-28.93-46.282 5.022 42.694 25.587 22.316" />
      <path fill="#cf9e71" d="M108.106 439.564l21.39-71.852-43.25-3.238 51.91-1.364" />
      <path fill="#54530d" d="M89.06 487.603l14.09 38.21-19.627-40.68L-13 486.815" />
      <path fill="#80880e" d="M122.442 669.58l-76.226-1.62 71.1-6.757 69.476-24.23" />
      <path fill="#2d2524" d="M848.905 587.15l-33.43-4.95-6.013-5.37 48.942 5.606" />
      <path fill="#cb9e67" d="M223.29 501.016l3.45 11.193-8.605-47.877 9.53-13.53" />
      <path fill="#6a7b84" d="M810.867 332.375l14.242 15.073-37.897-25.734 76.06 7.308" />
      <path fill="#61501e" d="M626.225 445.073l-31.445 15.122-49.654 42.88 82.3-69.963" />
      <path fill="#796113" d="M733.36 579.502l62.187-9.93-36.468-10.79-12.23 27.472" />
      <path fill="#775d0c" d="M657.15 400.815l-30.34 22.48-7.78-31.75-8.14 27.297" />
      <path fill="#9d8572" d="M418.834 390.117l31.18-15.63-21.314-2.61 8.382 21.766" />
      <path fill="#919419" d="M838.075 589.176l-20.6-2.488 62.96 19.574L989.59 635.04" />
      <path fill="#755e4a" d="M764.448 399.305l1.305 105.902-3.177-38.937 1.388-15.195" />
      <path fill="#6f5438" d="M264.296 422.628l-19.48-78.77 9.258 17.853-8.216-53.513" />
      <path fill="#e1c293" d="M866.377 381.605l1.63 23.692 4.557-23.96-13.668-14.295" />
      <path fill="#72563d" d="M723.174 444.86l34.432-30.194-47.88 8.803 15.004 30.285" />
      <path fill="#89654f" d="M278.773 293.905l-7.656 96.874 21.263 32.996-18.464-28.88" />
      <path fill="#5b5c4d" d="M695.51 365.16l24.35-2.877-3.316-10.453 6.84-16.197" />
      <path fill="#d3a06d" d="M439.26 340.364l24.168-15.14 27.544-5.104-48.357 36.23" />
      <path fill="#85634d" d="M310.635 417.77l-10.257 4.293-36.775-8.36 34.094 13.444" />
      <path fill="#17130d" d="M932.026 457.06l41.29 11.917-1.397-32.79-34.703.997" />
      <path fill="#64530f" d="M535.34 585.07l-25.12 3.59-47.87-21.118-24.29 4.483" />
      <path fill="#987546" d="M161.64 479.18L57.5 490.66l71.003 2.858-90.927-1.006" />
      <path fill="#bab8c0" d="M62.21 297.616l99.078 2.057-23.66-12.865-41.275 6.24" />
      <path fill="#9a9f2d" d="M748.645 661.45L892.75 713H754.5" />
      <path fill="#221608" d="M243.09 409.034l-54.26 1.87 84.413 1.98 17.42-3.34" />
      <path fill="#351e1f" d="M444.34 315.77l-3.677-2.02-4 5.1 43.853-.926" />
      <path fill="#d4a471" d="M143.278 407.387l3.84 17.194 30.463-1.95-35.97 39.993" />
      <path fill="#f6d6a2" d="M750.752 448.83l3.705-7.502-2.812-5.08 18.334 1.598" />
      <path fill="#384816" d="M64.654 541.207l42.56 12.998-134.648 5.786 92.84-21.552" />
      <path fill="#483c18" d="M369.337 475.85l-85.29.212 13.636-55.48-5.727 60.865" />
      <path fill="#a57f46" d="M721.15 518.454l-6.53-23.96-33.26 2.533 38.07 6.445" />
      <path fill="#d6d2cf" d="M300.262 403.606l-18.726 12.148 2.798 3.11 13.32-2.313" />
      <path fill="#b9c7c8" d="M895.868 185.565l-41.593-23.935 91.057 46.803 27.257 14.734" />
      <path fill="#c89867" d="M813.998 416.977l-31.334 19.53 33.584 45.242-11.957 3.18" />
      <path fill="#796014" d="M291.864 440.134l15.062-11.327-22.844 35.838-6.874-2.212" />
      <path fill="#cc9f69" d="M824.282 485.04l6.202-14.97-23.965 7.824 27.608-8.78" />
      <path fill="#cca272" d="M976.366 415.68l5.04 53.074 3.23-13.583-31.952-40.31" />
      <path fill="#a38857" d="M662.59 361.442l35.237-7.662 7.734-2.018-3.45 6.846" />
      <path fill="#332710" d="M851.385 358.993l-9.865-23.73-1.853 12.813 22.904-1.535" />
      <path fill="#bea187" d="M124.39 587.79l-11.416 9.33-55.957-15.246 14.29 1.165" />
      <path fill="#8b6343" d="M874.27 417.808l35.95-7.354-136.312 8.396 37.022 1.013" />
      <path fill="#38330e" d="M683.647 435.846l-1.158-20.47 62.05 45.32-40.86-24.67" />
      <path fill="#66859f" d="M247.896 315.077l-9.21 8.82-.266 17.34-133.54-41.307" />
      <path fill="#030908" d="M266.226 477.2l-1.117-12.442 14.976-3.452-20.787 31.83" />
      <path fill="#b69367" d="M291.785 548.606l11.797 19.567-11.46 9.5.01-54.75" />
      <path fill="#b48a51" d="M209.248 501.5l-11.397 4.036-5.54-2.634 8.506-21.516" />
      <path fill="#cb9c51" d="M344.19 401.08l-59.456 39.73 45.66-26.196-5.743-10.397" />
      <path fill="#58503f" d="M928.094 369.958l-25.21-1.53 24.42 8.684 4.053-14.74" />
      <path fill="#5d4c32" d="M802.92 370.864l36.013-4.9-20.905 9.373 52.114-21.953" />
      <path fill="#302b0b" d="M345.807 422.287l-43.234 73.38 38.145-38.732-25.977-24.89" />
      <path fill="#765741" d="M854.05 225.638l3.967-31.17-5.617 10.72 9.41 39.33" />
      <path fill="#412f18" d="M1021.627 501.42L1055 365.878l-37.373 108.192 16.487 27.156" />
      <path fill="#a4a02e" d="M461.684 536.994l11.334 5.84-20.083-21.51-54.668 12.97" />
      <path fill="#c2a174" d="M578.467 370.29l-56.328-50.194 77.948 57.773-18.38 3.29" />
      <path fill="#cec8c7" d="M906.56 235.53l-2.668 19.25-9.746 16.904 12.89 47.618" />
      <path fill="#554d48" d="M669.205 358.09l42.443-24.51-22.67 23.876-59.367-25.116" />
      <path fill="#7c642c" d="M108.51 500.33l15.317-25.996 29.482 62.204-27.823-58.265" />
      <path fill="#5f5750" d="M909.142 404.687l3.254-13.395-11.346-11.464-4.365 20.138" />
      <path fill="#696452" d="M746.622 330.05l24.11 26.483-31.586-17.243 4.958-18.4" />
      <path fill="#cccccb" d="M878.495 304.937l10.402 13.653-116.594-66 74.124 50.58" />
      <path fill="#d5a672" d="M107.567 483.293l-8.737-57.89 27.29 75.093-24.206-38.267" />
      <path fill="#b7674b" d="M307.037 381.385l-56.623 3 14.755.52 62.844-2.664" />
      <path fill="#3d330a" d="M642.967 400.14l-34.09 26.653 33.185-28.74-9.558 61.98" />
      <path fill="#705732" d="M734.467 551.904l6.144-.33-8.415 14.54 6.375 28.045" />
      <path fill="#201f05" d="M403.202 426.028l30.125 34.006-12.873 11.263 11.024-27.437" />
      <path fill="#a48323" d="M220.935 352.847l-2.292 13.46-23.833 12.398 18.317 2.54" />
      <path fill="#352c11" d="M667.725 446.64l16.11 47.98-44.66-52.6 6.636 27.668" />
      <path fill="#a79b94" d="M865.982 314.263l-1.194 27.917-3.372-26.214 122.03-44.282" />
      <path fill="#736b41" d="M835.812 595.01l4.26-38.117 66.126-15.01-58.614 13.296" />
      <path fill="#ab996c" d="M710.695 327.564l5.02.545 56.328-17.998-3.863 8.164" />
      <path fill="#92912f" d="M332.94 529.44l-7.83 1.096 41.1 36.23-28.498-12.653" />
      <path fill="#9c9b20" d="M48.525 564.12L-31 554.976l1.548 44.78L-31 616.06" />
      <path fill="#70581d" d="M102.046 579.485l-80.51-3.282 45.073 3.828 126.002-18.446" />
      <path fill="#ebc240" d="M271.717 546.7l11.167-13.692-2.862-2.166-17.232 23.096" />
      <path fill="#474520" d="M314.32 555.513l6.375-46.952-2.145 42.69-4.575-4.213" />
      <path fill="#c6925a" d="M571.764 480.005l.36 2.81-.78 8.34 34.672-9.032" />
      <path fill="#77611f" d="M560.343 457.366l-.69 13.575 16.158-22.62 1.457 31.907" />
      <path fill="#825f2b" d="M627.378 336.23l-12.87 31.525 16.083-3.92 22.312-14.094" />
      <path fill="#cfccd1" d="M965.475 268.795l-10.137-21.858-45.008-9.832 1.602 50.01" />
      <path fill="#b3947b" d="M237.898 558.822l-28.375-4.69 36.848-5.098 23.5 2.782" />
      <path fill="#a7c2d7" d="M1030.312 59.993L746.855-31l307.498 157.146.647-44.487" />
      <path fill="#e3e0df" d="M693.86 220.666l-2.597 20.756 112.18 27.77-19.718-11.835" />
      <path fill="#bd8f5f" d="M21.24 455.718l12.485 6.397 2.804-32.455 31.455-12.91" />
      <path fill="#edc084" d="M738.595 482.09l3.94-38.702-3.515 14.908 9.268 19.836" />
      <path fill="#d2a171" d="M411.92 488.656l1.015-9.484-6.137-2.377-17.922 11.738" />
      <path fill="#a6791d" d="M466.875 566.853l97.006 1.02-138.708 1.65 14.64-8.773" />
      <path fill="#4e4415" d="M951.737 483.336l23.824-10.314-11.813-8.575 12.498 25.75" />
      <path fill="#787f00" d="M74.94 528.993L-31 533.413V517.85l72.055 2.733" />
      <path fill="#d5a778" d="M952.747 428.996l-63.57-17.787.01 74.008 52.284-49.78" />
      <path fill="#846a1a" d="M418.304 399.478l-44.078 17.617-44.323 31.442 22.58-23.948" />
      <path fill="#b7ccdd" d="M1055 195.016l-44.303-49.202-85.554 64.43 11.292 16.595" />
      <path fill="#a09b2e" d="M456.822 591.478l-7.825-1.738-67.628 34.574-5.82-28.978" />
      <path fill="#d4d4d7" d="M253.924 268.438l77.83 16.57-31.5-43.664 93.51 13.757" />
      <path fill="#d7ab7a" d="M872.462 427.356l-2.32 56.24-9.094-57.166.51 61.25" />
      <path fill="#7e7958" d="M826.065 208.3l16.005-6.955-4.077 16.667 29.35-2.748" />
      <path fill="#bc915c" d="M194.56 504.692l10.946-27.076-9.402-2.655 12.916 22.1" />
    </g>
  </g>
</svg>