<svg version="1.1" viewBox="0 0 1024 682" width="1024" height="682" xmlns="http://www.w3.org/2000/svg">
  <g fill-opacity=".5">
    <path fill="#1a4d95" d="M373 12.2l28.4 52-44.2-9.2L381-3.3" />
    <path fill="#af6120" d="M273.8 662.8l-3-1.3 6.2-40.8 4.5-5.8" />
    <path fill="#25519b" d="M202.8 40.6l52-4.8-23.2 18-64-4.7" />
    <path fill="#a45321" d="M1 577.2l3.3 3.4L47 544.4l-15.4 11.3" />
    <path fill="#c5c7d8" d="M314.4 116.8l-15.5-28 36 48.4 39-1.2" />
    <path fill="#ddb84d" d="M506.2 611L460 700.8l21.8-25L479 688" />
    <path fill="#c47726" d="M353.5 664.5L310.2 649l52.7-3.3-17-17.2" />
    <path fill="#ebebe4" d="M555 406.7l6.5 5.4-40.8-5 37.3-4" />
    <path fill="#be6b2a" d="M135.5 622.6l24.4-11.2-16-19.6-9 40.6" />
    <path fill="#517cb0" d="M237 37l5.6 35.6 17.3 5.8-13-23.2" />
    <path fill="#ebd68e" d="M967.5 443.3l-51 58.4-45 4.8 39.4-31" />
    <path fill="#b67131" d="M1019.4 670.3l31.2 2.8-39.3 3 43.7-46" />
    <path fill="#bd8239" d="M932.8 661.8l-19.6 12.7 28-41.3-7 5.2" />
    <path fill="#768db9" d="M566-2.2l-3 26.4L517.6-31 628 .4" />
    <path fill="#dedee0" d="M233.6 369.4l-94 44-37-22-10.4-12" />
    <path fill="#d7d8e3" d="M789.2 342.5l-10 12.2-82-107 35.4 13.7" />
    <path fill="#e4e4e8" d="M544 368.8L486.4 285l-31.6 99.5L402 338" />
    <path fill="#deb34f" d="M275.2 633.6l-6.8 8-34 15.2.3-2" />
    <path fill="#d9b04d" d="M278.2 632.4l-17.7 22 36-98.3-29.8 66" />
    <path fill="#e4cf88" d="M267.6 561.2l-41.5-51 19 67 38-85.2" />
    <path fill="#b8c5d7" d="M267.5 191.5l64 71.6-26.5 3 11-69" />
    <path fill="#d29f45" d="M393.4 649l-49.6 20.4 34.7.2-29 13.7" />
    <path fill="#0f3373" d="M293 16.7l-8.5-4.8L258 32l24.6 17" />
    <path fill="#d8b051" d="M205.2 626.8l40.5-58.8 16.3-6.7-15.4 39.5" />
    <path fill="#e0b547" d="M194.6 665.2l29.8-4.2 59 21.8-20-11.4" />
    <path fill="#bdb9b4" d="M523.3 381.8L548 376l-6-3.3-22 9.4" />
    <path fill="#a95826" d="M104.7 637.7l-36.7-38-1.5 7 69.4 44.5" />
    <path fill="#3f69a4" d="M263.6 9.4l-32.2-36.8-97 43.7 238-47.3" />
    <path fill="#b86a25" d="M1011.2 543.8l-9 43.3-5.2-19 24.6-29" />
    <path fill="#aa5b1d" d="M855.5 663.5l9.8 49.5-45.4-41 51 16.4" />
    <path fill="#5899c0" d="M225.3 204l-55.5-27.4 60 1.6-21.2-39.2" />
    <path fill="#d9af45" d="M625.4 646.2l-1.6-16 46.2 62-5.4 16.3" />
    <path fill="#e9d598" d="M669.2 494l44.2 88.2 16.8 32-21.8-11.4" />
    <path fill="#d7b151" d="M860 632.4L808.8 666l25-29 95.2-72" />
    <path fill="#a7784d" d="M488.6 414.8l14.6 8.5-20 6.4 3.2-28.8" />
    <path fill="#deb855" d="M937.6 499l31 22.6-43 61 22-2.8" />
    <path fill="#be7227" d="M881.6 689.6l-13.4-43.8 40.5 38.3-26-22" />
    <path fill="#becde0" d="M464.6 262l93 30.6L528 336l-1-18.5" />
    <path fill="#531e13" d="M61.4 674.3l13.8-9 11 12.3 68.2-4.2" />
    <path fill="#8c9cc2" d="M19.4 128.4l49 9L97 136l-13 9.7" />
    <path fill="#d1ab65" d="M59 421.5L32 414l104 7.2-49.4 1.5" />
    <path fill="#cfccdf" d="M518.6 29.2l7.8-23-37 15.6L487 4.4" />
    <path fill="#cc933e" d="M59.7 512l-18-15-32.3 51.6 19.8-14.4" />
    <path fill="#c9923d" d="M826.5 639.8l14.7-7.6 22.8-20-44.7 9.8" />
    <path fill="#ccd2e0" d="M689.8 323l89.2-11-105.4-29-25.2 1.8" />
    <path fill="#b88e61" d="M553.7 419.3l-23.3-2.2.8 31-2.2-25" />
    <path fill="#e5d6af" d="M463.7 436.7l77 4L578 448l131-11" />
    <path fill="#e3c96a" d="M562.2 698l65.5-73.5-7.5 32.6 43.4-39" />
    <path fill="#c8923e" d="M289.7 655.8L176 705.4l109.8-41 3.7 48.6" />
    <path fill="#f0dec0" d="M618.2 447.2l-201.7.6L638.8 491 610 412" />
    <path fill="#3179af" d="M354 66.8l.7 29.8 6.3-.5 35-20" />
    <path fill="#592415" d="M133 624l-21-2 13.3-5.7 7.7.5" />
    <path fill="#d6ad4f" d="M717 619l13 6-11-20 14 108" />
    <path fill="#9b491b" d="M47.4 622l-1 8.3 40.3-71.7-2 15" />
    <path fill="#e3cea0" d="M913 437l142-21.3-94 6.3-100.2-1.5" />
    <path fill="#ebd9a8" d="M261 530l-64.5-64.4 23 50L247 494" />
    <path fill="#ecdab1" d="M487.5 426l93 60.7-92.3-56.7-8.3 77" />
    <path fill="#ead9a0" d="M468.6 611.7L446.8 572l79.8-19-33 32" />
    <path fill="#e2c571" d="M932 540l-37.6-76.5 38.6 62 6.3 68.6" />
    <path fill="#e4cd7e" d="M740.5 517l12.8-4.5 70.6 97-23-12" />
    <path fill="#eddca7" d="M682.4 539.2l-17.8 7.4 31.6 86.2-30.3-65" />
    <path fill="#e4d2aa" d="M755.3 416.8l132 4.6-62 5.2-166 11" />
    <path fill="#b4672b" d="M361.3 669.6L341.6 681 280 697.5l77.4-19" />
    <path fill="#81afc8" d="M508.3 124.6l35.4-2.4 14.5 9.4-23 8.6" />
    <path fill="#d1962d" d="M583.3 669.5l37.3 43.5-47-45.8L565 691" />
    <path fill="#913c1b" d="M42.6 569.6L-31 616l82.8-41.3-1.4-12.3" />
    <path fill="#f3f3f3" d="M877 308l83 65.3-88.6 25L765.7 368" />
    <path fill="#e6d9ca" d="M1028.7 410l-136 10 129 1 33.3 28.3" />
    <path fill="#602216" d="M55.3 610.8l-1.4.6 49 1.6-64 2.4" />
    <path fill="#c47b2d" d="M309.3 635.5l-56.7 45.2 64.7-66.6-9.2-13" />
    <path fill="#dfca8d" d="M397.2 415l4 34.4 24-17.4-78.3-14.3" />
    <path fill="#e2cda5" d="M53.5 413.7l180.5 7.5-64-9.8-31.4-.5" />
    <path fill="#dbb756" d="M897.2 509.5l-17.8 160L906 500l6 38.6" />
    <path fill="#4a92bd" d="M291.6 154.2l-59-19.6 51 3.2 18 17.7" />
    <path fill="#ecdaa2" d="M656 592l13 29.4-1-4.6-11.3 4.2" />
    <path fill="#8e461f" d="M886.6 713l18-40.8 22.2 37.4-69-21.2" />
    <path fill="#d9b558" d="M884.5 637l-100-89.3 109.8 91.8-23.7 22.4" />
    <path fill="#ebeaea" d="M534 383l72.3-17-65.6-53 47.4 77.6" />
    <path fill="#194a96" d="M686.4 97.4L671 1.4l-4 76.2 120-57" />
    <path fill="#d6d5e2" d="M1052.2 193L810 189l66 18.3L992.5 163" />
    <path fill="#9cb6cc" d="M335 142.3l60.2-14.7-28-33.3 49 30.4" />
    <path fill="#b4ab9f" d="M501.3 392.2l-16.2-9.5 10-2 17 19" />
    <path fill="#e1e1e6" d="M776.4 393.7l-92.4-62 .8 28L787.6 378" />
    <path fill="#eedab6" d="M856 431.3l-69-8.4 89.4 47 25.4-46" />
    <path fill="#ad8569" d="M614.3 391.4L607 413l2-5-7.4 4" />
    <path fill="#deba50" d="M545 619l2.6 58 37-35.7-60 38" />
    <path fill="#2b76b3" d="M647.4 94l15.2-44-24.8 4.6 50 63" />
    <path fill="#dddce4" d="M772.2 212l28 80.6 64.7-2.2L715 205" />
    <path fill="#cead81" d="M560 422.7l-6 12-2.3 19.6 4.2-36" />
    <path fill="#5f2817" d="M83.8 624.3l18.6-27.3 4.6 3.5-23.7 12" />
    <path fill="#d59a3a" d="M1007 678l-24 18.8 12.7-17.2 17 9.2" />
    <path fill="#bdc7d8" d="M372.4 220.6l-25.8-16L312 192l52.4 40.3" />
    <path fill="#7aa4c6" d="M176 226.2l10-22.6-22.4-47-8.5-3.6" />
    <path fill="#d09636" d="M909.6 614.8l-21.3-15L864 699l12-88.5" />
    <path fill="#5494be" d="M162 226.8l-26-63.2 39.6 31.7-42.4 27.3" />
    <path fill="#dbdae3" d="M215 243.2l64 33.6 69.5 20.4-66.5-45.4" />
    <path fill="#367eb4" d="M62.3 261.3h12.5l72.6-76.6-10.8-14.8" />
    <path fill="#cbcddd" d="M107 383l40-31-43.3-12-28 3.7" />
    <path fill="#19316c" d="M958 52.3l31.4 50 1.3-11.5-71.2-19.5" />
    <path fill="#397bb2" d="M131.2 137l-18.6 12.4L242 136.2l-62.2 27" />
    <path fill="#cecad0" d="M-31 360.4l45.7-34.2-45.7 1L44.5 362" />
    <path fill="#d6a13a" d="M169.3 646.2l11.6 27.3v-21.2l55 6.4" />
    <path fill="#e3c661" d="M517.6 608.8L498.2 713l2.4-78.2 14.8 32.4" />
    <path fill="#81aec8" d="M423.5 114l103.7 44-74-20.7-28-17.2" />
    <path fill="#4e8fb9" d="M439 84.8l33.7 16.6-48-11.7-50-18" />
    <path fill="#e8d48e" d="M614 647.6L506 569l96.4 57 4.3-117" />
    <path fill="#e1c170" d="M56.3 492l-14.7 42.4L72 433.8l24.3 25.4" />
    <path fill="#7892bb" d="M389.4-31l35 101.5L400 47.3l28.2-36.7" />
    <path fill="#ececeb" d="M581 363l-21.3 34.3-12 2 15.4-49.5" />
    <path fill="#57443a" d="M566.2 393.4l-6 10.3 2.8 2.7-2.5 14" />
    <path fill="#a6441f" d="M39.3 610L10 581.8l43 20.6 2 8.2" />
    <path fill="#e4cc7d" d="M257.3 589l34.5-36.2 35.4 44.4.5-45.3" />
    <path fill="#edddbb" d="M538.6 547.7l-34-123.8-14.3 46 35-13" />
    <path fill="#ebd9b2" d="M315.6 462l-49 51.6L257 447l-130 13" />
    <path fill="#9d3817" d="M165 588l-31.7 4.3-30 10.3 19.2 3" />
    <path fill="#7e94bd" d="M59.7 105l23 9.7-95.4 22 63.6-4" />
    <path fill="#be501f" d="M83.5 669l-5.2 44-11.7-24.6 29-30.3" />
    <path fill="#e0c671" d="M814.4 570l-28 66.2 3-37.8 45-89.8" />
    <path fill="#a35726" d="M984.8 655l3-38.3L977 627l48.4 71.5" />
    <path fill="#b2bed3" d="M694 150l25 30.2-57-14-51-17" />
    <path fill="#679ebf" d="M626.6 49l2.4 7.6 12.8 14 6 72.7" />
    <path fill="#6285b2" d="M20.3 105L36 146.8 11.2 69.3l39 66.7" />
    <path fill="#214993" d="M800.5 43.5l-18.7-24-32.8 21 56.3 64.5" />
    <path fill="#7a351d" d="M1007.7 661.6l14-3-7.2-33.2 1.4 61.7" />
    <path fill="#d6ad4e" d="M792 667.2l10.3-30-38-26.8 22.3-18.4" />
    <path fill="#e3be4c" d="M1055 419l-43.2 86.6 28.8 68.5-41.4-87" />
    <path fill="#7d2f17" d="M79.5 671l9.7-29.4-13-4 4-14" />
    <path fill="#e7cf74" d="M937 523.3l33.7-36 1.7 32.8 14.6-75" />
    <path fill="#a85220" d="M910.8 643.3l32 4.5-13.4-12-16 16.8" />
    <path fill="#9fb3ce" d="M825.8 164.6l-47.5-6L782 171l125.5-8.4" />
    <path fill="#aeb6ce" d="M298.7 96.6V99l-42.3-35.8 30.7 43" />
    <path fill="#87a1c3" d="M-31 289l37.3 25.7 78.2 16-63-24.6" />
    <path fill="#f0e1bb" d="M804.4 514.5l-223.5-41 24 52.5 55-72" />
    <path fill="#dab850" d="M444 649l-40-43.4 3.4 53.7-27.4-53.6" />
    <path fill="#e9d697" d="M799.7 539.6l-4.6 62-2-71-24-74.6" />
    <path fill="#dbb455" d="M971 542.5l-47.3-17.2 11-26.5 39.4 68.6" />
    <path fill="#e4cb75" d="M669.7 624.6l14-67.6 4.2 32.7-20 1.3" />
    <path fill="#ad4e1b" d="M192.8 611.5l-36 24 17-6 38.6-17.4" />
    <path fill="#5394bd" d="M405.7 101.7L397 79l-39.3 40.6-4-9.2" />
    <path fill="#d0952f" d="M551.6 709l7-10.3-58.2-21.7 48-9" />
    <path fill="#e3c779" d="M92.7 497l96.4 61.5-15-36.5-132-73" />
    <path fill="#3b70ac" d="M162.3 91l-13 17.8 88.2 38.8L118.7 76" />
    <path fill="#3a61a4" d="M43.8 169.4l-36 10L-31 138l80.2 13.4" />
    <path fill="#d49e3b" d="M1017.8 556l-14 37 9.3-9.8 4-2.8" />
    <path fill="#5e88b7" d="M91.5 76.8l79.5 105-38.7-58.4-51.2-41" />
    <path fill="#b0b9cd" d="M68.5 368.2l-49-65 34.5 92-59.4-26.6" />
    <path fill="#e9e9e9" d="M450.8 305l-24.2 51.2L525 395l-9.2 2" />
    <path fill="#dcbb61" d="M857 588l5.5 73.4 2.4-103 33 28" />
    <path fill="#babdd3" d="M507 28.6l-28.7 38 12-50.7-20-8" />
    <path fill="#b86c29" d="M25.6 511.7L-31 606 .5 539.6 9.3 495" />
    <path fill="#7f3a1d" d="M157 642l-27 9.4-72.4 33.4 97-39" />
    <path fill="#8496bd" d="M641 6L625.5-.5l1.6 77L607 7" />
    <path fill="#d8b158" d="M707 593l-4 36.3L848.5 703 697 626" />
    <path fill="#e2c877" d="M777.8 626.7l1.8 18.6-45-45.8L750 625" />
    <path fill="#ecdb9c" d="M713.5 602v9.5l-1.5 20-9.6 3.2" />
    <path fill="#cb8a3d" d="M67.6 584.5l28.6-87.8-31 98.4-14.4 3" />
    <path fill="#d7ac4d" d="M736.6 629l-2-25-2.6 26-7 29.3" />
    <path fill="#367bb6" d="M729.2 138.6l47-37.7-57 1 58.7 35" />
    <path fill="#a4bdd3" d="M515.6 159l49.4-17.8-29.2 49.6 76-14" />
    <path fill="#849fc2" d="M245.3 95.7l-9 26.4-90.8-31L262 129" />
    <path fill="#6ea5c8" d="M85.5 281.2l70.5-47.5-1.5 8V269" />
    <path fill="#bfc5d7" d="M167.5 240l120.8-8-124-9.3 111 59" />
    <path fill="#d09a3b" d="M173.3 565.8L125 568l26.3 19 6-6.2" />
    <path fill="#d19735" d="M250.3 590.7l28.3 34L234 596l9.7 23" />
    <path fill="#612a18" d="M1055 706.7l-39.7-60.6 39.7-74-35.8 71" />
    <path fill="#eadbac" d="M321.7 481.4l66 88.3-15-42L338 545" />
    <path fill="#845031" d="M491.3 419.6l8.7 10 2.3-10 48.4 6" />
    <path fill="#b27b36" d="M951.3 675l3.6 12 4-42.3 5 19.3" />
    <path fill="#c48133" d="M982 629l29.8-59.4-12.4 15-8 56.4" />
    <path fill="#0d3274" d="M372.4 2.5l-22 52-16.2-51.2 9.8 14" />
    <path fill="#ebdcab" d="M553.4 574l-32-60.3 25 80.2 51-165" />
    <path fill="#e2c26a" d="M360 633.3l15.6-3.8-1.2 2.3 4.7 7.4" />
    <path fill="#b6c9da" d="M526.4 209.6l-48.6 28 144.8 54.7-110-16.7" />
    <path fill="#cd9747" d="M285.4 641l-5-1.7-4 17 17 6" />
    <path fill="#1b64ad" d="M659.3 91l49.3 26-1-26.3 7.4-12.5" />
    <path fill="#a03e1f" d="M26.2 615.4L9.7 671l24-28.4-19.6-14" />
    <path fill="#cc943a" d="M775.5 677.2l-6.5-34-13.5 69.8-9.8-54" />
    <path fill="#e7d397" d="M238.8 457.2l27 108.4-7.2-109-2.4 18" />
    <path fill="#e9d69b" d="M744 553.8l21 41.2-1.3-48-21.6-24.5" />
    <path fill="#4a90be" d="M681 134.4l72 8.3-4-14.6-35-14" />
    <path fill="#3967ad" d="M933.5 110.7l-93.3 12.6 97-3.8 19.3-28.7" />
    <path fill="#451712" d="M57.4 605.3L69 627.8l21.2-5.5-31-.3" />
    <path fill="#0a2a6e" d="M850 90.7l63-7.6-92-38 6.3 36" />
    <path fill="#f3f4ef" d="M624.5 396.5l99.8-5.5-97.7 23.3-20.3-42.5" />
    <path fill="#041645" d="M869.5-31l90.7 68-195.6-68 72 65" />
    <path fill="#e3c883" d="M137.8 524l-1.2-65-13.6 25.4 10.5 69.5" />
    <path fill="#c48534" d="M964 653.7l-22.6-115.4 10.8 17.3-9.6 51.8" />
    <path fill="#9fa5c6" d="M999.8 135l.4 31-14.6-14.7-30 10.3" />
    <path fill="#491913" d="M27.5 680L62 713l-93-72v38.5" />
    <path fill="#dca238" d="M132.3 632.2l-57 4.4 58.6-1 49-1.3" />
    <path fill="#e5d3a8" d="M287.6 474l5.5-34.5 72-18 10 4.5" />
    <path fill="#aab2cb" d="M245 92.2l7.7-19.2 7.7 19.7-92.5-3" />
    <path fill="#bd7025" d="M657 676.8l33.6 21.7-11.2-26.5 71.3 41" />
    <path fill="#aac0d4" d="M170.3 192.7l147.3 46.8 130.7 43.7-172.8-47.5" />
    <path fill="#ac5926" d="M44 630.8l60-3 24 33.2-17.4-38.3" />
    <path fill="#b7b2cf" d="M1055 204l-5.4-16-68-37.7L1051 207" />
    <path fill="#8f7b75" d="M528.5 389.6l-3.7-8.3 22.7 19-6.8 1.4" />
    <path fill="#e5d18b" d="M556.7 542l28 31.8-25.6-53-7-2.2" />
    <path fill="#dcac43" d="M166.3 641l36.4-19.3-45.3 20.3 39 18.2" />
    <path fill="#3c2e26" d="M615 424.5l10-8.7-9.4-18.2-1.8 9.3" />
    <path fill="#e6cb74" d="M445.4 637.2l6.3 17.3 4-35.7 35.6-48" />
    <path fill="#c8812b" d="M220.3 595.7l-4 15.5 50.3 26.2L234 632" />
    <path fill="#d9ba75" d="M193.2 418.4l-2 5-48.3-6.7-163 18.8" />
    <path fill="#e6cb68" d="M980.6 488l29 1.5 1.2 12 3.8-84.5" />
    <path fill="#172751" d="M32.8 16.8l-62.5-33.5 6.4-14.3 41.5 52.2" />
    <path fill="#dcb14a" d="M983.4 613.7l6-41.4 2.6-106-5.8 99" />
    <path fill="#5281af" d="M94-30l80.2 38 57.4-39h-51" />
    <path fill="#8696c0" d="M300.5 3.6L319 8l2.5-17L282-31" />
    <path fill="#dfc367" d="M877.7 602l-31.3 19.3-2.8 20.6 39.6-85" />
    <path fill="#d3ab51" d="M738.3 588.2L847.8 679l-18.5-56.2 10.5 50.5" />
    <path fill="#8badc8" d="M472.5 105l33.8 22.5-70-21.6-7.2-13" />
    <path fill="#5c3d39" d="M591.2 387l-15 25.2 12.3-18 1.7 3.8" />
    <path fill="#cf913b" d="M939.4 624l-9.2-16-6.6 52-1.2-40.6" />
    <path fill="#276baa" d="M331.2 90l26 .8 40.6-34-9.2-4.8" />
    <path fill="#d3d5e1" d="M643.6 276.4l66.8 47.3-143.2-57.5-24.6-37" />
    <path fill="#b56521" d="M335 615.4l-21.3 45.2-33-8.5 31.5-4" />
    <path fill="#27589a" d="M116.6 94l11.2 24 24-2 7-20.2" />
    <path fill="#b5c2d2" d="M470.8 115l68 33.6-18 1-17.7-7" />
  </g>
</svg>