<svg version="1.1" viewBox="0 0 1024 682" width="1024" height="682" xmlns="http://www.w3.org/2000/svg">
  <g fill-opacity=".5">
    <path fill="#e5ce8c" d="M403 524l-45 114 14-47 29-39" />
    <path fill="#ebdeac" d="M596 597l-70-86 50 78 10-19" />
    <path fill="#85b5ce" d="M361 152l1 38 87 24-15-11" />
    <path fill="#ecdaac" d="M435 490l-25 79-22-40 124-39" />
    <path fill="#a3481d" d="M167 634l14-7 3 2-17-17" />
    <path fill="#c2661e" d="M1016 558l39 4-14-44 14-5" />
    <path fill="#d5a943" d="M336 583l-6 65 21-54-30 18" />
    <path fill="#b37430" d="M899 668l-8-50 81 95-69-77" />
    <path fill="#2d59a8" d="M1006 135l10 17 39 23-32-56" />
    <path fill="#d29f42" d="M242 712l26-55-29 16 18-8" />
    <path fill="#7ea9cb" d="M692 151l81-9-76 27 12-6" />
    <path fill="#e1e0dd" d="M532 386l22 15-16-8 7-48" />
    <path fill="#c5862d" d="M856 679l-9-28-6-24 1-11" />
    <path fill="#dfc267" d="M412 653l5 5 58-74-35 45" />
    <path fill="#e1dacb" d="M540 413l20-14-5 16-48-14" />
    <path fill="#a9440e" d="M312 679l17 26-38-17-22 25" />
    <path fill="#e7d185" d="M446 566l-23 84 13-100-28 54" />
    <path fill="#dbc890" d="M605 428l26 5-52 3 27-16" />
    <path fill="#bf7728" d="M794 648l30 65h-4l-15-55" />
    <path fill="#e3c879" d="M239 554l-6 58-1-39 9-75" />
    <path fill="#a8acc9" d="M477 12l3-43 84 60-41-52" />
    <path fill="#9d5024" d="M1011 616l-16 7 4 41 4-77" />
    <path fill="#15418a" d="M294 17l4 43-65-21 49 27" />
    <path fill="#295a9e" d="M344 48l-37-79 30 47-48 58" />
    <path fill="#061b4d" d="M971 57l8 21 11 11 65-35" />
    <path fill="#a9bed2" d="M651 204l-47-57 42 11-37 25" />
    <path fill="#d6d5dd" d="M302 87l-6 6-9 13 22-2" />
    <path fill="#c17e2e" d="M979 585l14-77-24 104-40 78" />
    <path fill="#af5c23" d="M979 625l16 1-22-22 21 77" />
    <path fill="#2b4e8e" d="M82 63l-14 7-14-11 30 31" />
    <path fill="#c17a2f" d="M929 620l4-33-15 15 3-3" />
    <path fill="#6b96c0" d="M49 288l27 23-33-18-30-26" />
    <path fill="#cbb792" d="M492 409l-15 54 18-77 1 5" />
    <path fill="#9f5527" d="M967 661l-10-13 13-3 14-15" />
    <path fill="#e5d083" d="M558 564l9-15-10 53-7-49" />
    <path fill="#e7cf74" d="M571 598l1 28-12 2-5 47" />
    <path fill="#5084b4" d="M309 85l-4-11 19-17 11 14" />
    <path fill="#e8c255" d="M313 677l-21 1-2 31-32 4" />
    <path fill="#ecedf0" d="M788 235l52 37 53-49-68 11" />
    <path fill="#876b57" d="M511 399l18 27-18-34-3 7" />
    <path fill="#602819" d="M47 664l24 37-28 12 17-57" />
    <path fill="#ebdbaa" d="M526 581l125-36-7-23-12 24" />
    <path fill="#23407e" d="M156 33L85-12 20-31l137 74" />
    <path fill="#214a93" d="M53 180l-32 38-52-59 75 21" />
    <path fill="#e7d38e" d="M635 510l-8 54 33 31-50-68" />
    <path fill="#eceded" d="M571 344l-57-9 70 56-18 22" />
    <path fill="#632a18" d="M80 648l1 8 16-13-2-5" />
    <path fill="#e4ce87" d="M729 624l41-23-46 36 22-169" />
    <path fill="#d8b154" d="M319 671l11 42 52-36 12 36" />
    <path fill="#e0c36e" d="M212 603l-12-47-3-40 13 57" />
    <path fill="#d1a143" d="M774 679l35-85-25 45 10 39" />
    <path fill="#d9dce4" d="M620 308l-103 28 45-27-13-22" />
    <path fill="#dfe0e6" d="M310 393l6-43-99-27 154 77" />
    <path fill="#e5d084" d="M287 552l14-52-18 109 2-51" />
    <path fill="#debb50" d="M484 649l29-24-41 22-44-45" />
    <path fill="#954622" d="M55 675l-6-3-5-12-10 13" />
    <path fill="#eed9ae" d="M172 508l55-41-26-21-2 61" />
    <path fill="#3e70ac" d="M21 146l-10-5-15 8 27 20" />
    <path fill="#af5921" d="M167 611l2-34-7 13 19 15" />
    <path fill="#466fa6" d="M459 19l-6-14-18 5 1 3" />
    <path fill="#d1aa65" d="M431 421l46-6-3 22 11-13" />
    <path fill="#debf64" d="M919 555l-27 8 17 17-34-66" />
    <path fill="#dab555" d="M737 606l-8 11 2 62 9-96" />
    <path fill="#7d371a" d="M158 663l-28-10-56 30 66-34" />
    <path fill="#90411c" d="M29 532l2 36-15-12-10 27" />
    <path fill="#5f90ba" d="M187 161l-30-8 1 26-58-30" />
    <path fill="#c78230" d="M139 649l22-29 5-9 7 1" />
    <path fill="#d7a439" d="M450 656l1-2 24-2-25 31" />
    <path fill="#f0dbac" d="M817 491l64-58-5 70 39-37" />
    <path fill="#d9ae49" d="M989 543l8 25-26-35-18-36" />
    <path fill="#763213" d="M205 676l1 37 14-34-51 34" />
    <path fill="#e6e6e7" d="M489 406l-12-6-90-81 72 39" />
    <path fill="#d0932e" d="M658 663l-37 32 50-30-2-7" />
    <path fill="#261819" d="M615 411l-2 4 10 2-10-18" />
    <path fill="#d8b75f" d="M793 623l17 23 5-30 60-7" />
    <path fill="#e8d8b0" d="M314 437l-123-10-90 3 137 6" />
    <path fill="#5d8ebd" d="M37 255l-9 48-36-1 73-30" />
    <path fill="#c94" d="M300 661l-25-10 42 32-19-19" />
    <path fill="#d8b354" d="M760 656l-78 23 70-39 8-69" />
    <path fill="#823d19" d="M955 649l8-15 5 3-24 16" />
    <path fill="#74a7c7" d="M344 181l-117-27 8 50 13-59" />
    <path fill="#2c5d99" d="M-16 70l-15-81L9 101l-40 35" />
    <path fill="#071d57" d="M706-31h37l-36 60-52-60" />
    <path fill="#d19f44" d="M347 677l-184 36 175-31 21-33" />
    <path fill="#e9d79f" d="M355 596l-3 5 1-29 19-138" />
    <path fill="#d3ab4f" d="M353 641l10-10 7-51 2 6" />
    <path fill="#bb6d29" d="M1038 694l-9-12-11-103-6 18" />
    <path fill="#2e4f92" d="M225 16L184 1l-54 53 168-85" />
    <path fill="#914b24" d="M925 675l-4-20 30 58-15-53" />
    <path fill="#daa640" d="M184 664l17-22h10l1-10" />
    <path fill="#ebdcb2" d="M665 538l1 2 17 4 4 21" />
    <path fill="#708dbe" d="M865 143l-20-16 22 2 15 13" />
    <path fill="#5781b3" d="M72 141l-5-55 25-2-22 17" />
    <path fill="#ecddb6" d="M515 559l-17-48-82-20 102 41" />
    <path fill="#d4b675" d="M492 433l16-9-6 18-22-32" />
    <path fill="#d1a04b" d="M356 678l103 35-125-37 20 12" />
    <path fill="#754e31" d="M530 415l-1-1-20 9 11 10" />
    <path fill="#ececef" d="M597 328l20 14-6-23-31-15" />
    <path fill="#d8ab40" d="M443 683l-40-77 3 15 43 91" />
    <path fill="#e9d8a4" d="M504 497l52 78-67-83-59 91" />
    <path fill="#dfbb64" d="M168 536l-34 16 44 8-1 28" />
    <path fill="#b67b3d" d="M69 421l14-3-69 8-45-8" />
    <path fill="#ca6f27" d="M67 631l-5 23 23-23-3 9" />
    <path fill="#e4c96d" d="M523 640l23-38-18 95 14-87" />
    <path fill="#c38331" d="M1055 490l-86 152 16-7-26 18" />
    <path fill="#ad672a" d="M282 655l-17 16 3-16-32 13" />
    <path fill="#a15725" d="M859 661l14 48 73-54-86 58" />
    <path fill="#ab541d" d="M283 634l3-7-19 23 9 1" />
    <path fill="#7490be" d="M188 94l-22-25-16-18 39 69" />
    <path fill="#dcd8d8" d="M98 413l-125-3 113-7 19 8" />
    <path fill="#6d8abb" d="M201 56l-10 9 8 20 7-20" />
    <path fill="#e1c371" d="M730 655l4 11-10-14 35-41" />
    <path fill="#1a3670" d="M126 22L89 12l34 72-31-16" />
    <path fill="#7f95be" d="M486 37L476 8l-30-39 36 70" />
    <path fill="#e0c464" d="M636 584l-3 82-9-17 13 36" />
    <path fill="#9e5d28" d="M955 611l-4 11 8-25 6 55" />
    <path fill="#d0a250" d="M47 424l-28 4-48 13 51 4" />
    <path fill="#e8d48b" d="M864 544l17 15-18-4-2 9" />
    <path fill="#e4ce8b" d="M656 541l28-12-38 29 10-54" />
    <path fill="#030638" d="M1048 9l3 24L912 0l111-5" />
    <path fill="#debb60" d="M241 590l3 24 10-1-45-93" />
    <path fill="#debb5c" d="M91 507l-47-40-46-6 52 36" />
    <path fill="#cf9c40" d="M901 610l-2-42 11 57-1 40" />
    <path fill="#d29c3b" d="M732 663l3 50-3-18-10-48" />
    <path fill="#e2dfdb" d="M586 421l22-15-17 4 92-100" />
    <path fill="#9ac1d4" d="M510 217l156 12 18 9-40 4" />
    <path fill="#ddbc68" d="M963 436l27 17-17-31 82 20" />
    <path fill="#afb8cd" d="M294 92l-22-5 82 5 5 16" />
    <path fill="#a65122" d="M355 676l3-2 5-28-5 8" />
    <path fill="#cf922f" d="M272 614l1 8 9 22-50-50" />
    <path fill="#4670ab" d="M81 69l32 21 27 69-20-44" />
    <path fill="#c48030" d="M68 584l10-45-8 63-2-31" />
    <path fill="#aac5d9" d="M459 212l-10-22 46 82 56 16" />
    <path fill="#cc9036" d="M898 682l-16-46-63 43 79-40" />
    <path fill="#b0b6cc" d="M565 2l16 2-48 52 34-1" />
    <path fill="#b2c2d5" d="M548 163h6l14-33-1 72" />
    <path fill="#953a19" d="M85 596l24 1-48-26 16-1" />
    <path fill="#dcbf60" d="M713 610l-11 8 27-27-6-8" />
    <path fill="#9b4a1d" d="M1014 598l-3 32-15-4 21 2" />
    <path fill="#e5d182" d="M757 628l10 4-7 14 6-40" />
    <path fill="#b97735" d="M327 668l65 22-65-20-59 13" />
    <path fill="#af5f23" d="M948 622l17 16-27-3 8-23" />
    <path fill="#e2cb77" d="M379 558l-40 37-41-11 82-10" />
    <path fill="#e2c66b" d="M621 713l54-105-23-18 17 26" />
    <path fill="#dcb143" d="M747 629l3 12-25 67h22" />
    <path fill="#99a3c3" d="M35 110l22 13-9-11-16-15" />
    <path fill="#7bb3cd" d="M441 166l49 30-10-14-14-33" />
    <path fill="#e5cd81" d="M903 543l-57-29 41 26v-25" />
    <path fill="#254789" d="M101 52l19-15-31-9 5 22" />
    <path fill="#d09a3c" d="M67 511l4 17-10 21-7 6" />
    <path fill="#d8dae5" d="M437 304l-111-33 164 23 27 16" />
    <path fill="#b08d5d" d="M551 412l-13 2-11 6-10-3" />
    <path fill="#dbdbe6" d="M280 89l-14 22-1-7 1-9" />
    <path fill="#ebeaeb" d="M585 348l-3 47 7 2-107-77" />
    <path fill="#b36f30" d="M926 652l-10 16 6 10-12-63" />
    <path fill="#e2cb79" d="M439 573l14-27h-18l41 106" />
    <path fill="#bb712d" d="M103 624l19-16-4-2-6 3" />
    <path fill="#2b66af" d="M65 223l-96 45 85-13 50-59" />
    <path fill="#d5a749" d="M107 509l2 21h13l23 56" />
    <path fill="#c1762b" d="M350 655l-6-17-10 27 21-43" />
    <path fill="#b5c3d7" d="M136 294l49 44-11 8h-52" />
    <path fill="#dab556" d="M837 551l12-4-12-25 13 144" />
    <path fill="#2059a1" d="M662 41l41 40h1l62 16" />
    <path fill="#602317" d="M24 639l23 5-56-35 45 29" />
    <path fill="#2160a6" d="M773 118l31 6h52l-50-21" />
    <path fill="#e7ce7a" d="M941 468l50 26-20-72-62 128" />
    <path fill="#e9d9a4" d="M436 498l105 111 33 6-138-73" />
    <path fill="#dbd6c8" d="M514 419l-17-60 16 52v-8" />
    <path fill="#c4802b" d="M413 713h-3l38-52 8 3" />
    <path fill="#ddab3c" d="M141 631l-20 12v-16l20 11" />
    <path fill="#48a0c3" d="M457 158l-3-15-13 1-12-5" />
    <path fill="#82b0cb" d="M297 146l28 42 26 14 24-16" />
    <path fill="#6f4e3b" d="M540 430l-45-26-1-5 24 21" />
    <path fill="#dfc466" d="M410 611l-7 46 2-68-44 18" />
    <path fill="#e4d6b0" d="M528 428l-3 11-147 3 156 3" />
    <path fill="#dec26b" d="M740 565l30 33 36 37 2-7" />
    <path fill="#e4cf7e" d="M501 640l-6 3 8-42-21-24" />
    <path fill="#bf7b31" d="M991 596l-38 39-6 7-10 3" />
    <path fill="#638cb9" d="M166 162l-29-23 21-4-9 14" />
    <path fill="#af6c2c" d="M1017 670l27 18-13 25-10-63" />
    <path fill="#d9bd88" d="M649 420l3 13-21-21 32 8" />
    <path fill="#aa6128" d="M923 660v-23l-10 10 43 66" />
    <path fill="#dbb045" d="M503 713h-30l64-62-17-11" />
    <path fill="#c3cbdc" d="M186 355l41 18 14-22-92-61" />
    <path fill="#577db1" d="M323-5l-6 24-85-50 97 62" />
    <path fill="#d2bc8d" d="M605 403l11-11-45 37 8-11" />
    <path fill="#5b3429" d="M577 414l-16 16 30-40-8 15" />
    <path fill="#94a9cf" d="M142 132l-10-14v2l13-1" />
    <path fill="#b96a22" d="M740 713l41-41-1 41h-59" />
    <path fill="#93441f" d="M97 612l-23 21 40-2-33-6" />
    <path fill="#eedeba" d="M650 569l30-104-46 42 44-88" />
    <path fill="#ecedec" d="M498 399h9l-10-37 29 11" />
    <path fill="#daba5b" d="M820 634l1 6-5 25-4 6" />
    <path fill="#c98d35" d="M960 629l24 11-59-43 28 2" />
    <path fill="#e8d59b" d="M250 456l-84 88 7-52 15 43" />
    <path fill="#e7d397" d="M343 530l-39-29-28 78 35-63" />
    <path fill="#ce8b28" d="M818 683l-49 14 24-12 30-17" />
    <path fill="#c78530" d="M89 561l-3 16 27-22 17 34" />
    <path fill="#e9d8a9" d="M266 546v-46l-18 46-22-104" />
    <path fill="#e9daa7" d="M732 473l-27-6 38-4 1 25" />
    <path fill="#3a82b1" d="M181 117l66 38-11-10 2-16" />
    <path fill="#b46527" d="M866 648l141-13-2 44-9-43" />
    <path fill="#e4e1d7" d="M552 408l10-4-44 2 7 5" />
    <path fill="#ead8a3" d="M317 580l-25-50-14-60 53 136" />
    <path fill="#daab48" d="M192 595l6-4 1 23 8-36" />
    <path fill="#cfd1dd" d="M409 281l-124-22-106 69 123-54" />
    <path fill="#803317" d="M35 580l24-23-16 24-20-14" />
    <path fill="#e4bc5e" d="M418 670l-19 43-11-8 18-20" />
    <path fill="#a65f24" d="M183 674l-4-32 36-13-33 11" />
    <path fill="#cfa048" d="M273 673l38-7 38-114-39 119" />
    <path fill="#ebebe9" d="M968 421l7-114 64 79-80 33" />
    <path fill="#ecdfb2" d="M554 477l20 31-8 50v-34" />
    <path fill="#607fb4" d="M537 20l-9-2-7-49h-31" />
    <path fill="#cb9c45" d="M779 621l158 90-150-86-6-40" />
    <path fill="#1d3365" d="M76 23l19-54-66 9 92 50" />
    <path fill="#b36225" d="M286 672l8 4 20-6-8 3" />
    <path fill="#773c1c" d="M170 651h-4l-15 3 4-8" />
    <path fill="#d5a946" d="M814 612l49-7-9-23-5 28" />
    <path fill="#b46829" d="M342 674l-14-1 15-12 8-10" />
    <path fill="#e7d48d" d="M485 560l14-9-11-14 8 50" />
    <path fill="#bec0d5" d="M434 18l38 58 9-21 54 11" />
    <path fill="#d09937" d="M979 513l10-10-13-5 58 88" />
    <path fill="#e7c34f" d="M210 656l28 6-2 5-20-5" />
    <path fill="#8fa3c6" d="M234 125l14-5-55-5-23-36" />
    <path fill="#e2ca74" d="M483 668l87-96-30 44-16 8" />
    <path fill="#e1cb88" d="M690 518l15 21-3-2-15 25" />
    <path fill="#294c92" d="M-30 85l11-15 99 11-68-2" />
    <path fill="#e6e6ea" d="M771 353l60-13 13-23-36-3" />
    <path fill="#774a25" d="M141 678l-74 35 95-6-37-31" />
    <path fill="#e0c464" d="M861 516l-19 19-3 1 39-19" />
    <path fill="#164795" d="M888 108l1-7-125-11 75 20" />
    <path fill="#ead6a2" d="M832 485l14 47-117-67 107 61" />
    <path fill="#d0cfdd" d="M533 53l66 48-40-52-36 40" />
    <path fill="#72adca" d="M469 138l75 53-7-15-43-27" />
    <path fill="#d29c3e" d="M923 659l12-6-15-4 30-111" />
    <path fill="#dbb85d" d="M356 668l-29 10 24-9-60 44" />
    <path fill="#ca963e" d="M815 640l-1-40 10 32-49 56" />
    <path fill="#c59f5a" d="M587 415l-4 7-9 12-10-4" />
    <path fill="#1f4586" d="M58 54l77 37-67-80 82 96" />
    <path fill="#eedebe" d="M341 460l-71 16 196-3-144-27" />
    <path fill="#4381b6" d="M126 165l-16 13 5 6 52 11" />
    <path fill="#e4ce8b" d="M233 558l-7-12-1-35 25-7" />
    <path fill="#b14824" d="M33 619H16l2-5-3-5" />
    <path fill="#ecdcaa" d="M475 518l40 101 2-12-23-53" />
    <path fill="#7ea4c3" d="M304 116l-11-4-17 21 45 2" />
    <path fill="#682a15" d="M45 664l30-3 26-2-4 2" />
    <path fill="#e7d294" d="M805 552l30 6-32-19 43-58" />
    <path fill="#6d2e18" d="M953 677l2 36h23l-37-41" />
    <path fill="#0a1e55" d="M877 8l-7 59 65 6-128-53" />
    <path fill="#cf9331" d="M427 655l-9 32 12-56 3 39" />
    <path fill="#d9bd77" d="M288 427l38-7-57 6 45 8" />
    <path fill="#498bb9" d="M168 170l13 10 37-22 1-12" />
    <path fill="#c0c4d4" d="M102 347l-50 3 8 58-34-13" />
    <path fill="#e0cb8e" d="M439 441l-69-11h72l31 11" />
    <path fill="#c27b2f" d="M60 525l-21-1 2 11-8 29" />
    <path fill="#ba6a27" d="M716 670l7 33-33-26 17 36" />
    <path fill="#7da5c9" d="M139 276l-56 14 4 22-4-41" />
    <path fill="#a85e20" d="M799 667l-25 42 26-32 3-20" />
    <path fill="#255ca2" d="M172 154l-16-49-21-2 31 51" />
    <path fill="#c98320" d="M615 668l17 39 9-39-19 29" />
    <path fill="#e5d286" d="M330 579l11 44-8-55 19-40" />
    <path fill="#4f3127" d="M548 422l16-5-19 9-14 6" />
    <path fill="#d09d3a" d="M396 630l12-20-11 38 14 50" />
    <path fill="#eedec1" d="M804 459l27-33-132 15-53 16" />
    <path fill="#edd99e" d="M668 621l21-18 5 2-2 11" />
    <path fill="#ac5425" d="M135 633l11-30-8-7 2 35" />
    <path fill="#c38836" d="M188 627l2 16 72 25-65-20" />
    <path fill="#c98a31" d="M861 613l-14 49 9-47h-10" />
    <path fill="#d8bf7e" d="M319 433l-1-4-41-6-25 5" />
    <path fill="#debc5e" d="M321 610l-27-36-4 59-5-52" />
    <path fill="#a75522" d="M83 593l-66-28 32-29-24 26" />
    <path fill="#c37827" d="M179 681l45 23-29-94 22 86" />
    <path fill="#85b6d0" d="M590 190l-4-16 57 33-15 18" />
    <path fill="#bec7d8" d="M687 159l-45 25 107 68-52 3" />
    <path fill="#ebdaac" d="M381 563l-3-127-32 140 5-83" />
    <path fill="#793b1e" d="M84 620l20 4-5-21-22 17" />
    <path fill="#aab2c9" d="M282 110l-33-12 9 19 27-2" />
    <path fill="#78685d" d="M564 392l2-1v6l-5 32" />
    <path fill="#c7cddc" d="M520 250l9 16 77-33-109 4" />
    <path fill="#d6a946" d="M394 621l-39-12-14 24 40-27" />
    <path fill="#ddba5d" d="M220 562l5-4-1-14-15 34" />
    <path fill="#2456a0" d="M55 171l-43 89 71-91-64-19" />
    <path fill="#e1c372" d="M134 556l25 3v-56l11 61" />
    <path fill="#e3c66e" d="M522 636l-5-39 10 28-60 88" />
    <path fill="#e6d19f" d="M145 492l-28-49 107 16-66-7" />
    <path fill="#dda83c" d="M103 632l34 5 130 38-145-44" />
    <path fill="#4e71aa" d="M641 26l-22-57 19 86 6 2" />
    <path fill="#b75e24" d="M144 654l7 1-52 8 47-1" />
    <path fill="#c48032" d="M988 657l7-41-16 54-23-12" />
    <path fill="#8ab9d1" d="M493 200l-57 30 38-54 15-28" />
    <path fill="#193c82" d="M868 95l61 13 12-21-34-2" />
    <path fill="#e4cd8c" d="M237 492l-85-11v73l17-64" />
    <path fill="#dfc26c" d="M804 624l-18-77 10-9-21-16" />
    <path fill="#dbdbe2" d="M202 366l-72 3 62 26 38 8" />
    <path fill="#96371b" d="M43 601l21-16-19 5 12 14" />
    <path fill="#dfc06f" d="M113 495l13 88-13-64 36-13" />
    <path fill="#5290c0" d="M763 142l26 16 40-24-3-2" />
    <path fill="#bc7831" d="M76 602L47 484l35 138-11-15" />
    <path fill="#e1c770" d="M782 617l-30-13 18-4 7 45" />
    <path fill="#b7c9db" d="M662 245l6 39-50-17-6-19" />
    <path fill="#cd852e" d="M143 620l-12 10-2 8 28-50" />
    <path fill="#e5e5e9" d="M830 184l-26-5 14 99-38-88" />
    <path fill="#ecdba9" d="M623 544l4 56 12-6-35-65" />
    <path fill="#debe65" d="M706 663l69-121-75 124-47 47" />
    <path fill="#ecdcb6" d="M257 486l41-19-4 63-24-82" />
    <path fill="#a8998a" d="M519 387l-37-3 59 74-60-76" />
    <path fill="#d8ac45" d="M505 659l-24-11 15-13-12 35" />
    <path fill="#672115" d="M57 611l-32 30 18-27 45-3" />
    <path fill="#e1c975" d="M272 594l5-32-9-40-1 91" />
    <path fill="#5b2113" d="M88 618l14-7-75 16 64-16" />
    <path fill="#e9d48b" d="M633 589l-44 105 28-77 39-44" />
    <path fill="#d4a149" d="M874 619l18 28 55-21-63 22" />
    <path fill="#e2c160" d="M969 484l6 49 11-53-33 48" />
    <path fill="#a15020" d="M937 642l-3-2-20 2 40 10" />
    <path fill="#c3701f" d="M247 634l-28 3 8-8-4 2" />
    <path fill="#93a1c6" d="M602 10l25 61-19-25 16-17" />
    <path fill="#355ca4" d="M922 111l29-19 35 52-6-35" />
    <path fill="#133d86" d="M775 16l-42 20-56 13 33 13" />
    <path fill="#a8bbcf" d="M373 128l28 54-76-95 28 48" />
    <path fill="#d8ae4b" d="M63 510l-94-75v90l50-35" />
    <path fill="#d8a93b" d="M567 670l26 35-55-56 2-4" />
    <path fill="#f1f1f1" d="M372 335l85 52-102-29-17-33" />
    <path fill="#eadcb7" d="M632 421l-24 24 26-12 14 79" />
    <path fill="#e9d8a3" d="M496 541l8 90 3-105-114-2" />
    <path fill="#15397e" d="M807 72l-17-58 27 43 21-8" />
    <path fill="#e9d596" d="M623 632l-53-113 7-21 7 39" />
    <path fill="#aa9f93" d="M535 380l-25 30 18-19-4-13" />
    <path fill="#dab34b" d="M258 632l10-43 16 6-8-24" />
    <path fill="#e0ca97" d="M172 444l-25-9 149 11-163 7" />
    <path fill="#c3c7d4" d="M528 102l-34-24 12 30 129-11" />
    <path fill="#8b9cc5" d="M920 131l-37-2-1 24 6-9" />
    <path fill="#335aa0" d="M77 27l-23 7v-8l18-10" />
    <path fill="#7ca6c8" d="M178 217l-13-57 29 44 1 14" />
    <path fill="#e1c671" d="M773 546l124 52 10-7 7 11" />
    <path fill="#863317" d="M97 577l-19 24 18 4-29-1" />
    <path fill="#ddb956" d="M423 713l59-79-8-24 17 7" />
    <path fill="#ba9e75" d="M537 438l8-6-8 2 9-26" />
    <path fill="#1e468b" d="M160 25l19 22 51-25 4 28" />
    <path fill="#e3c977" d="M829 500l-7 75-18-75 16 126" />
    <path fill="#5f3726" d="M605 420l-20 7 9-7 21-18" />
    <path fill="#ddb94b" d="M603 652l-32 2 22-15-26-10" />
    <path fill="#abb8d1" d="M69 317l117 21-115-14-42-22" />
    <path fill="#e6d28f" d="M753 484l32 77 8 36-4-7" />
    <path fill="#a0b8d0" d="M194 198l-7 16 23 16 24-23" />
    <path fill="#bec4d6" d="M882 184l-2-1-28 16-47-28" />
    <path fill="#937662" d="M514 393l11 45-12-44-24-7" />
    <path fill="#cf9b41" d="M35 550l-11-65-24 10 38 5" />
    <path fill="#3d69ab" d="M268-31l-57 43-74-43 47 38" />
    <path fill="#d8a63d" d="M578 648l12 41-5-38 25-4" />
    <path fill="#f0f0f0" d="M590 404l42-15 143 17-149-34" />
    <path fill="#e4cb80" d="M215 543l-37 9 29 19-16-58" />
    <path fill="#7db4d0" d="M397 192l3 7 37 12-18-39" />
    <path fill="#ebebec" d="M548 377l27 26-12 6 23-80" />
    <path fill="#c57420" d="M389 657l-11-16-60 41 54-37" />
    <path fill="#efdfc0" d="M421 456l5 69 19-83 24 1" />
    <path fill="#73a0c2" d="M453 85l-13-8-11 7 63 19" />
    <path fill="#a96729" d="M184 642l-59 56-39-33 45 31" />
    <path fill="#c27a27" d="M387 619l-1 81-2-66-26 64" />
    <path fill="#cd922d" d="M360 615l4-3 4 35-2-9" />
    <path fill="#b46528" d="M1000 554l9 23-14 4 5-13" />
    <path fill="#8a441b" d="M232 680l-116 26 145 7-47-35" />
    <path fill="#c28a37" d="M820 637l22 53-19-46-5 30" />
    <path fill="#e4e3e7" d="M970 171l85 55-141-11 63-31" />
    <path fill="#124490" d="M373 21l3 12-44 18 52 14" />
    <path fill="#d7ae3e" d="M278 610l14-13 1 24 16-15" />
    <path fill="#4089b7" d="M640 105l6-83v68l47 36" />
    <path fill="#efefe7" d="M301 409l150-3-59-26 56 4" />
    <path fill="#f0dcb0" d="M866 487l-7 23-4-50-101 15" />
    <path fill="#4189b7" d="M409 102l-27 1-19-26 33 11" />
    <path fill="#dab248" d="M393 713l-1-18 5-53-11-5" />
    <path fill="#98c2d5" d="M323 229l108 37 7-39 57 35" />
    <path fill="#4871b0" d="M172 43l-25 20 16 28-13-1" />
    <path fill="#2e5e97" d="M378 38l-3-36-6-33 17 51" />
    <path fill="#ebebeb" d="M469 352l56 45-102-91 74 87" />
    <path fill="#3f1b15" d="M140 681l-8-8 11 2-11 38" />
    <path fill="#92b2cf" d="M202 271l-19-19-107 70 20-30" />
    <path fill="#dfbe5d" d="M676 636l-24 34-5-44 39 44" />
    <path fill="#e8d69b" d="M764 531l7-27-66-1 117 26" />
    <path fill="#7997c1" d="M951 117l7 25-17-9 5-25" />
    <path fill="#7e3215" d="M159 606l5-9-10 26-6 5" />
    <path fill="#dfc367" d="M773 574l-28-8 36 6-24 97" />
    <path fill="#e8d59c" d="M288 581l49-81-9 5-27 78" />
    <path fill="#af4b24" d="M92 657l-2-5-21 8-17-8" />
    <path fill="#d6a944" d="M94 528l4-4v28l-7 20" />
    <path fill="#dfc569" d="M272 566l-33 27 25-15-13-34" />
    <path fill="#e2c979" d="M847 581l25-111-36 122-17-1" />
    <path fill="#956c41" d="M520 411l14 1-12 9v4" />
    <path fill="#e1c66b" d="M362 564l-28 30-64-1 68-6" />
    <path fill="#e6d4aa" d="M304 409L62 420l253-11-21 34" />
    <path fill="#572016" d="M18 574l-49 33v9l37-24" />
    <path fill="#cd9b31" d="M318 597l22 19-29-1 10 12" />
    <path fill="#2566a7" d="M401 58l-66 25-5-21 90 6" />
    <path fill="#dbba68" d="M35 488l-4-11 3-50 38-1" />
    <path fill="#cd8b33" d="M445 634l9-1-15 8-71 72" />
    <path fill="#a54316" d="M142 612l-13-34 3 33-1-41" />
    <path fill="#d79c38" d="M152 664l23-6-33 55 38-61" />
    <path fill="#dec36b" d="M881 535l-91 4 65 6 45-17" />
    <path fill="#1c3f86" d="M937 69l-27 50 36-59 62 78" />
    <path fill="#e7d18b" d="M652 521l-3 60v-73l44 43" />
    <path fill="#965024" d="M1003 670v29l3-8-18-50" />
    <path fill="#5b1f14" d="M19 637l-32 13 27 1-6-33" />
    <path fill="#c47d2c" d="M940 648l16-83 15 2-16 10" />
    <path fill="#a55f28" d="M101 618l6-9-15-4 22 25" />
    <path fill="#501712" d="M127 623h2l10-13-4 1" />
    <path fill="#babdcc" d="M35 335l-66 40 52-58 46 28" />
    <path fill="#7b2313" d="M197 669h16l-4 4-3-1" />
    <path fill="#8ea0c2" d="M508 41l-5-3 8-9 8 18" />
    <path fill="#d2aa49" d="M835 661l-16-57 2 11-7-43" />
    <path fill="#ead9ae" d="M457 409l6 15 2-11-90 5" />
    <path fill="#d8a941" d="M936 559l-1 39 22 1-4 12" />
    <path fill="#9b4a21" d="M978 678l24-64-28 99h42" />
    <path fill="#b64d20" d="M10 659l17-8-47 9 3-3" />
    <path fill="#aac0d5" d="M192 305l-30-15 10-20 19 10" />
    <path fill="#d9a240" d="M246 632l-34 12 23-2 9-4" />
    <path fill="#8ca4c9" d="M79 304l-26-13 10-30-14-5" />
    <path fill="#1f4387" d="M789 28l1-16-57 55 16-58" />
    <path fill="#deca76" d="M577 681l-66 32 58-18 112 9" />
    <path fill="#674d41" d="M498 404l-21-23 42 46-16-16" />
    <path fill="#98b5ce" d="M275 191l-5 12-32-32 77 7" />
    <path fill="#9cbdd1" d="M428 203l32-5-21-24-9-27" />
    <path fill="#eadaa4" d="M569 597l51-108-72 134 43-38" />
    <path fill="#c38131" d="M100 590l19-48-8 34h3" />
    <path fill="#d4d4e1" d="M795 271l-95-61 2-25 116 88" />
    <path fill="#72acc9" d="M482 149l-7-22-5 39 52-15" />
    <path fill="#e9d7a2" d="M281 556l-12-42 7 59 71-105" />
    <path fill="#99491e" d="M206 614l-4 16-10 15 15-18" />
    <path fill="#d19d3f" d="M428 641l6-11 15 32-15-45" />
    <path fill="#d8b147" d="M629 713l-12-58 36 12-23-22" />
    <path fill="#b5c2d2" d="M357 99l-20-3 21 15 18-15" />
    <path fill="#e0c16b" d="M322 518l-5 79 1 26-4-6" />
    <path fill="#5a1e16" d="M26 605l-57 10 63-17-63 69" />
    <path fill="#e7d595" d="M371 574l-31-6 4 23-24-63" />
    <path fill="#e5cd7f" d="M556 553l21 3 13 102-7-91" />
    <path fill="#a35f28" d="M274 652l-20 11-8-12-7 18" />
    <path fill="#d3a345" d="M768 646l9 37v-47l-25 67" />
    <path fill="#bf7d2c" d="M867 699l-23-57v19l34 52" />
    <path fill="#773c19" d="M207 685l-26-10 11-6-10 44" />
    <path fill="#833317" d="M962 667l-9 30 43-12-33 4" />
    <path fill="#b86826" d="M192 710l13-55 42-14-48 14" />
    <path fill="#011041" d="M930-2l-33 63-30-91 57 68" />
    <path fill="#dfba59" d="M955 539l-18 38 7 7 8-79" />
    <path fill="#b87230" d="M114 684l38-55 56-91-63 105" />
    <path fill="#c06c21" d="M197 630l-24-25 12 2 13-11" />
    <path fill="#07235b" d="M346 13l-29-44 28 5 16 35" />
    <path fill="#e6d18c" d="M286 532l-10-60 9 73 50 44" />
    <path fill="#bfc9d9" d="M243 306l-62-17 83-15-31-18" />
    <path fill="#dab45a" d="M144 547l-7 36 6-77 1 45" />
    <path fill="#d9ae49" d="M663 635l5 22-50 56 42-50" />
    <path fill="#664133" d="M600 416l9-6v-6l-14 14" />
  </g>
</svg>