<svg version="1.1" viewBox="0 0 1024 682" width="1024" height="682" xmlns="http://www.w3.org/2000/svg">
  <g fill-opacity=".5">
    <path fill="#e5ce8c" d="M402.5 523.8L358.3 638l14-47.4 28.3-39" />
    <path fill="#ebdeac" d="M596.4 597.4l-70-86.7L576 589l10.3-19.3" />
    <path fill="#85b5ce" d="M361.3 152l1 37.5 86.8 24.7-15-11.5" />
    <path fill="#ecdaac" d="M434.7 490.3l-25 78.5-21.2-39.7L512 490" />
    <path fill="#a3481d" d="M166.5 634l14.5-7 3.3 1.7-17.8-16.4" />
    <path fill="#c2661e" d="M1015.8 558l39.2 4-14.4-44 14.4-5.3" />
    <path fill="#d5a943" d="M336.4 583l-6.8 64.5 21-53.2-29.3 17.4" />
    <path fill="#b37430" d="M898.7 668.4l-8-50.8 81 95.4-68.5-77.5" />
    <path fill="#2d59a8" d="M1005.6 135.3l10 16.5 39.4 22.8-32-55.8" />
    <path fill="#d29f42" d="M241.7 711.7l26.8-54.5-30 16 18.3-7.8" />
    <path fill="#7ea9cb" d="M692 151.2l80.5-8.7-75.7 26.4 12-6" />
    <path fill="#e1e0dd" d="M532 386l22.3 14.5-15.8-7.6 6-48" />
    <path fill="#c5862d" d="M856 679l-9.2-28-6-24 1-11" />
    <path fill="#dfc267" d="M412 653l5.2 5 57.6-73.6-34.4 45" />
    <path fill="#e1dacb" d="M539.6 413l20.8-13.8-5.2 15.6-48-14" />
    <path fill="#a9440e" d="M312 679.4l17 26-38.2-17-22 24.6" />
    <path fill="#e7d185" d="M446 566.3l-22.7 84L435.5 550l-28 54.3" />
    <path fill="#dbc890" d="M604.7 428.4l26.2 5-52 2.2 27-15.6" />
    <path fill="#bf7728" d="M794.2 648l29.7 65h-4l-15-54.8" />
    <path fill="#e3c879" d="M238.7 553.8l-5.6 57.8-1-39 9-74.6" />
    <path fill="#a8acc9" d="M476.6 12l3.2-43 83.7 60.2-40.5-52" />
    <path fill="#9d5024" d="M1010.7 616l-16 7 4.2 41.4 4-77.8" />
    <path fill="#15418a" d="M294.3 16.6l3.7 43.2L233 39l48.5 27.3" />
    <path fill="#295a9e" d="M344 48l-37-79 29.8 47.2-47.5 57.3" />
    <path fill="#061b4d" d="M970.7 56.8l8 21.2 11.7 11 64.6-35.2" />
    <path fill="#a9bed2" d="M651 203.5l-46.6-56.7 42 11-37.6 25.4" />
    <path fill="#d6d5dd" d="M301.7 87.2l-5.8 6-9 13 22-2.7" />
    <path fill="#c17e2e" d="M978.8 585.2l14.4-77.3L969 612l-39.8 78.4" />
    <path fill="#af5c23" d="M979.4 624.7l16 1.5-22.4-22.7 21.4 77" />
    <path fill="#2b4e8e" d="M81.7 63.4l-14 6.6-14-11.3L84.4 90" />
    <path fill="#c17a2f" d="M929 620l4-33-15 15 3-3" />
    <path fill="#6b96c0" d="M49.2 288.2l26.3 23L43 292.7l-30-26" />
    <path fill="#cbb792" d="M491.7 408.8L477 462.6l17.7-76.8 1 5.5" />
    <path fill="#9f5527" d="M966.5 661.3l-10-13 13-3.5 14.8-14.7" />
    <path fill="#e5d083" d="M557.6 564l9.3-15-10 53-7-48.8" />
    <path fill="#e7cf74" d="M571 598l.5 28.4-11.8 1.8-5 47" />
    <path fill="#5084b4" d="M308.7 84.7L305 74l19.4-17 11 13.6" />
    <path fill="#e8c255" d="M312.7 677.3l-21 .6-1.2 31-32.4 4" />
    <path fill="#ecedf0" d="M787.5 235l52.4 37.3 53-49.8-68 11.5" />
    <path fill="#876b57" d="M511.3 399.2l17.6 27.3-18-34.8-3 7.5" />
    <path fill="#602819" d="M46.6 664.2l24.8 36.6L42.8 713l17-56.8" />
    <path fill="#ebdbaa" d="M526.2 581.2L651 544.7l-7.3-22.3-11.6 23.8" />
    <path fill="#23407e" d="M155.8 33.2L85-12.4 20-31l136.7 74.4" />
    <path fill="#214a93" d="M52.5 179.5l-32 38.7L-31 159l74.5 21" />
    <path fill="#e7d38e" d="M635 510.3l-7.7 53.7 32.4 31.2-49.2-67.8" />
    <path fill="#eceded" d="M571.2 343.8l-57.6-9 70.5 56-18 21.8" />
    <path fill="#632a18" d="M80 648l1 8 15.6-12.8-1.7-4.8" />
    <path fill="#e4ce87" d="M729.4 623.6l40.8-23-45.7 36.2 21.8-168.6" />
    <path fill="#d8b154" d="M319.3 671l10.6 42 52-36.3 12 36.3" />
    <path fill="#e0c36e" d="M212 602.8l-12-46.3-3.3-41L210 573" />
    <path fill="#d1a143" d="M774.4 678.6l34.2-84.2-24.5 45 10 38.8" />
    <path fill="#d9dce4" d="M620 308l-102.8 28 44.7-27-13-22" />
    <path fill="#dfe0e6" d="M309.5 393l6.6-43-99-26.8L371 400" />
    <path fill="#e5d084" d="M286.8 552.3l14.3-52.7-18 109.2 2-50.7" />
    <path fill="#debb50" d="M484.3 648.7l28.3-23.6-41 22-43.4-45" />
    <path fill="#954622" d="M55.2 674.8l-6.7-3-4.7-11.4-10 12.4" />
    <path fill="#eed9ae" d="M171.7 507.7l55-40.8-25.3-21-2.7 61" />
    <path fill="#3e70ac" d="M21.3 146l-10.7-4.7-14.7 8 27 20" />
    <path fill="#af5921" d="M167.3 611.2l1.8-34-7 13 19 14.5" />
    <path fill="#466fa6" d="M458.6 18.8l-6-14.2-17.5 5.7 1 2.7" />
    <path fill="#d1aa65" d="M431 420.8l46.2-6-3.3 22.6 11-13.2" />
    <path fill="#debf64" d="M919.3 555.2l-27.3 7.6 16.8 17-33.5-65.6" />
    <path fill="#dab555" d="M736.5 606.3l-8 10.7 2.3 62.3 9.4-96.5" />
    <path fill="#7d371a" d="M157.8 663l-28-10.4L74.3 683l65.4-34" />
    <path fill="#90411c" d="M28.7 532l2.4 36-15-11.6-10 27" />
    <path fill="#5f90ba" d="M187 161l-30-7.8.5 26-57.2-30" />
    <path fill="#c78230" d="M139.3 649l21.3-29 5.3-8.6 7 .8" />
    <path fill="#d7a439" d="M450 656l.7-1.8 24.7-2.2-25.7 30.6" />
    <path fill="#f0dbac" d="M816.6 491.2L881 433l-4.6 70 39-37" />
    <path fill="#d9ae49" d="M989.4 543l7.4 25.3-25.6-35.3-18-36.2" />
    <path fill="#763213" d="M204.8 675.8l1 37.2 14.2-33.8-50.8 33.8" />
    <path fill="#e6e6e7" d="M489 405.6l-12.5-5.6-89.6-80.6 72 39" />
    <path fill="#d0932e" d="M658 662.8l-37 32.7 50-30.8-1.8-6.4" />
    <path fill="#261819" d="M614.6 411l-1.8 4.4 10.3 2-10-18" />
    <path fill="#d8b75f" d="M792.7 623.3l17.3 23.2 5-31 60-6.4" />
    <path fill="#e8d8b0" d="M314.4 437.3l-123.7-10.5-89.5 2.8 136.5 6.6" />
    <path fill="#5d8ebd" d="M36.8 255L28 303l-36.2-1 73.4-29.7" />
    <path fill="#c94" d="M300 661l-25.2-10.4 42.5 32.4-19.6-18.8" />
    <path fill="#d8b354" d="M759.8 655.7l-77.6 23.7 70-39.7 8.3-68.7" />
    <path fill="#823d19" d="M955.3 649.2l8-14.8 4.3 2.5-23.4 16" />
    <path fill="#74a7c7" d="M344.2 180.6L226.8 154l8 49.6 13.2-59" />
    <path fill="#2c5d99" d="M-15.6 70L-31-10.7l39.5 112L-31 136" />
    <path fill="#071d57" d="M706-31h36.8l-35.3 59.6L655.2-31" />
    <path fill="#d19f44" d="M347 676.8L163.4 713l175-30.8 21-32.8" />
    <path fill="#e9d79f" d="M354.5 596.4l-2.3 4.3.7-28.4L372 434" />
    <path fill="#d3ab4f" d="M353 641.3l10.2-10L370 580l1.6 6" />
    <path fill="#bb6d29" d="M1038.3 693.7l-9-11.7-11.6-103-5.8 18" />
    <path fill="#2e4f92" d="M224.8 15.8L183.6 1.2 130 54l167.6-85" />
    <path fill="#914b24" d="M924.5 675l-3.3-20.3 30.2 58.3-15.5-52.8" />
    <path fill="#daa640" d="M184.2 664.2l16.8-21.8h10.3l1-10" />
    <path fill="#ebdcb2" d="M665.2 538l.4 2 17 3.8 4.5 21.6" />
    <path fill="#708dbe" d="M865 142.5l-19.6-15.2 21.8 1.5 14.4 12.8" />
    <path fill="#5781b3" d="M71.5 141.4L67 86l25.2-1.7-22.7 16.4" />
    <path fill="#ecddb6" d="M515.3 559l-17.6-48-82-19.6L518.3 532" />
    <path fill="#d4b675" d="M491.5 433.2l16-8.8-5.2 17.5-22.8-32" />
    <path fill="#d1a04b" d="M356 678l102.7 35-124.4-36.7 20 12.2" />
    <path fill="#754e31" d="M530 414.8l-.6-1.3-20 9.3 11 10" />
    <path fill="#ececef" d="M597.2 328l19.6 14-5.5-22.6-31-15.5" />
    <path fill="#d8ab40" d="M443 683.3L403 606l3 15.4 43.3 90.3" />
    <path fill="#e9d8a4" d="M503.8 497l52 77.5-67-82.7-58.5 91.6" />
    <path fill="#dfbb64" d="M168.3 535.5L133.8 552l43.8 8.2-1 28" />
    <path fill="#b67b3d" d="M69.4 420.7l13.3-2.2-69.2 7.5-44.5-8" />
    <path fill="#ca6f27" d="M67.4 630.7l-5 23.5 23-23-3 9" />
    <path fill="#e4c96d" d="M523 640.4l22.5-38.3-18 95 14.2-87" />
    <path fill="#c38331" d="M1055 489.5l-86.4 152.8 16.6-7-26.3 18" />
    <path fill="#ad672a" d="M282 655.3L265 671l3-16.2-32.2 12.8" />
    <path fill="#a15725" d="M859.4 661l13.3 48 73.8-54.4-86 58.4" />
    <path fill="#ab541d" d="M282.8 634l2.8-7.5-19 23.8 9 1" />
    <path fill="#7490be" d="M187.6 94.4l-21.6-25L149.6 51l39.8 69.3" />
    <path fill="#dcd8d8" d="M97.6 412.7l-124.4-2.3L86.4 403l18.8 7.7" />
    <path fill="#6d8abb" d="M201.4 55.5l-10.8 9L199 85l6.6-20.3" />
    <path fill="#e1c371" d="M729.7 654.8l4.6 11-10.7-13.8 35.5-41.3" />
    <path fill="#1a3670" d="M125.8 22l-37-10 33.8 72.3-30.8-16" />
    <path fill="#7f95be" d="M486.4 36.6L476 8l-30-39 36 69.7" />
    <path fill="#e0c464" d="M636 583.8l-3.5 82.7-9-17.3 13 36" />
    <path fill="#9e5d28" d="M954.5 611l-3.3 10.8 7.7-25 6 55.5" />
    <path fill="#d0a250" d="M47.4 423.5l-28.2 4.8-48 12.8 50.7 4" />
    <path fill="#e8d48b" d="M864.3 544l16.3 14.5-17.7-4-2 9.3" />
    <path fill="#e4ce8b" d="M656 541l28.2-12.4-38.6 29.6L656 504" />
    <path fill="#030638" d="M1047.6 9.3l3 23.2L912 0l111-5" />
    <path fill="#debb60" d="M240.8 590.4l3.6 23.6 9.7-1-45-93" />
    <path fill="#debb5c" d="M91 507.3l-46.7-40-46.8-6.7 52.7 36.6" />
    <path fill="#cf9c40" d="M901 609.8l-2.3-41.5 11.4 57-1 40.2" />
    <path fill="#d29c3b" d="M732.3 663.2l2.5 49.8-2.6-17.7-10.6-48.6" />
    <path fill="#e2dfdb" d="M585.7 421.3l22.5-15-17 3.8L683 310" />
    <path fill="#9ac1d4" d="M510 216.6L665.8 229l18.2 9.3-40 4" />
    <path fill="#ddbc68" d="M963.2 435.5l27 17.7-17-31.3 81.8 20" />
    <path fill="#afb8cd" d="M294.3 92L272 87.4l81.6 4.3 5.8 16.5" />
    <path fill="#a65122" d="M354.7 676l3.7-2 4.5-28.4-5 8.2" />
    <path fill="#cf922f" d="M272.2 613.6l.7 8 9 22.6-50-50.5" />
    <path fill="#4670ab" d="M81 69l32 21.3 26.8 68.3-19.5-44" />
    <path fill="#c48030" d="M68.4 584.4l9.4-45.8-7.6 63.6-2-31" />
    <path fill="#aac5d9" d="M459.4 211.5l-10.8-21.3 46.3 82 56 16" />
    <path fill="#cc9036" d="M898.2 681.8l-16.5-45.4-63 42.2 79.6-40" />
    <path fill="#b0b6cc" d="M565.3 2.2l16 1.6-47.8 51.8 33.2-.4" />
    <path fill="#b2c2d5" d="M548 162.8l5.5-.3 14.3-33-.5 72.8" />
    <path fill="#953a19" d="M84.6 596l24 1L61 570.5l16.3-.2" />
    <path fill="#dcbf60" d="M712.6 609.8l-10.7 8 27-26.8-6-8" />
    <path fill="#9b4a1d" d="M1014 598.2l-3.3 31.8-14.3-3.7 20.8 2" />
    <path fill="#e5d182" d="M757 628l9.8 4-7.2 14.4 6.7-40" />
    <path fill="#b97735" d="M326.6 667.6l65.8 22-65-20-59.6 13" />
    <path fill="#af5f23" d="M948.4 621.6l17 16-27-3 7.8-22.7" />
    <path fill="#e2cb77" d="M379.2 557.8L338.6 595l-41-11.2L380 574" />
    <path fill="#e2c66b" d="M620.7 713l54.5-105.5-23.7-17.6 17 26" />
    <path fill="#dcb143" d="M746.5 628.5l3.3 12-25 67.8 22.3.2" />
    <path fill="#99a3c3" d="M35.2 109.6L56.5 123 48 112.3 31.8 97" />
    <path fill="#7bb3cd" d="M441 165.7l49 30.7-10.3-14.2-13.2-32.7" />
    <path fill="#e5cd81" d="M903.3 543.3l-57.3-29 40.8 26 .7-25.5" />
    <path fill="#254789" d="M101 52l18.8-15-31.2-9.3L94 50.4" />
    <path fill="#d09a3c" d="M67.3 511.3l3.3 17-9.8 20.6-7.2 6" />
    <path fill="#d8dae5" d="M436.6 303.8L326.4 271l164 23.3 27 16" />
    <path fill="#b08d5d" d="M551.2 411.6l-13.2 2.8-11.5 6-9.5-3.8" />
    <path fill="#dbdbe6" d="M280.3 89.3l-14.2 22-1-7.7 1-9" />
    <path fill="#ebeaeb" d="M584.6 347.7l-3 47.3 7 2.3-107-77.5" />
    <path fill="#b36f30" d="M925.8 651.6L915.5 668l6.3 10.4-11.8-63" />
    <path fill="#e2cb79" d="M439 573l13.7-27.4h-18l41 106.5" />
    <path fill="#bb712d" d="M103.4 623.6L122 608l-4-2-5.7 2.6" />
    <path fill="#2b66af" d="M65.2 223L-31 267.5 53.8 255l49.8-59" />
    <path fill="#d5a749" d="M107 508.8l2 21.5 12.7-.7 23.5 56" />
    <path fill="#c1762b" d="M349.6 655l-5.6-17-10.4 27.4 21.3-43.6" />
    <path fill="#b5c3d7" d="M136.4 294l48.5 44.4-11 8-52-.2" />
    <path fill="#dab556" d="M836.5 550.5l12.7-4-11.8-25 12.8 144" />
    <path fill="#2059a1" d="M661.6 40.8L703 80.6l1.2.6 62 15.8" />
    <path fill="#602317" d="M23.7 639l22.8 5-56-35.5 45 29" />
    <path fill="#2160a6" d="M772.8 118.4l31.6 5.8 51.3-.6-49.4-20.4" />
    <path fill="#e7ce7a" d="M941.3 468l49.6 25.6-20-71.6-62 128.3" />
    <path fill="#e9d9a4" d="M435.5 497.8L541 609.4l33.2 6L435.8 542" />
    <path fill="#dbd6c8" d="M513.5 419.3l-16.7-60 16 52 .3-8" />
    <path fill="#c4802b" d="M413.4 713H410l38-52 8.3 2.8" />
    <path fill="#ddab3c" d="M140.8 630.7L120.5 643l.8-15.8 19.6 10.3" />
    <path fill="#48a0c3" d="M457.3 158l-3-15-13.4 1.2-12-5" />
    <path fill="#82b0cb" d="M296.5 146.3l28.2 41.4 26.3 14.5 24-16.4" />
    <path fill="#6f4e3b" d="M539.5 430.2l-44.7-26-.6-5 24.2 20.7" />
    <path fill="#dfc466" d="M410 611l-6.7 45.6 2-68-44 18.4" />
    <path fill="#e4d6b0" d="M527.6 427.6l-3 11.6-146.2 2.7 155.6 3" />
    <path fill="#dec26b" d="M739.8 564.8l30 33.3 36 37 1.8-7" />
    <path fill="#e4cf7e" d="M500.7 639.7L495 643l8-42.4-20.7-23.3" />
    <path fill="#bf7b31" d="M990.6 596.4L952.8 635l-6 7-9.6 2.8" />
    <path fill="#638cb9" d="M166.4 162l-29.7-22.8 21-3.7L149 149" />
    <path fill="#af6c2c" d="M1017 670.2l26.5 18L1031 713l-10-63" />
    <path fill="#d9bd88" d="M648.5 419.5l3.2 13.6-20.3-21 31.4 8" />
    <path fill="#aa6128" d="M923.4 660l-.5-23.4-10 10.6 43 65.8" />
    <path fill="#dbb045" d="M503.2 713h-30.5l64.8-62-17.2-11" />
    <path fill="#c3cbdc" d="M185.5 355.3l41 18 14.8-22.5-92-60.7" />
    <path fill="#577db1" d="M322.8-5.2L317 19.2 231.7-31 329 31.3" />
    <path fill="#d2bc8d" d="M605 403l10.6-10.7-44.8 36.8 8-11" />
    <path fill="#5b3429" d="M577.4 414l-16.8 15.8 30.4-40-8.4 15" />
    <path fill="#94a9cf" d="M142 132l-10.2-13.7.5 1.4 13-.8" />
    <path fill="#b96a22" d="M739.5 713l41.3-41.3-.3 41.3h-60" />
    <path fill="#93441f" d="M97 612l-23.5 20.6 40.2-1.6-33.2-6" />
    <path fill="#eedeba" d="M650.2 569.2l29.3-104.4-45.7 42.4 44-88" />
    <path fill="#ecedec" d="M498 399.2l8.5.3-9.3-37.7 29.3 11" />
    <path fill="#daba5b" d="M819.7 634.2l1 5.8-4.6 25-4 5.6" />
    <path fill="#c98d35" d="M960.2 628.7l23.6 11.3-58.6-43.5 28 2.2" />
    <path fill="#e8d59b" d="M250 455.8l-84 87.7 7-51.5 14.7 43.3" />
    <path fill="#e7d397" d="M343.3 530.2l-39-28.8-28.8 78 35-63.5" />
    <path fill="#ce8b28" d="M817.5 682.5L769 697l23.6-12.5 30-17" />
    <path fill="#c78530" d="M88.8 561l-3 16.2 27.2-21.8 16.6 33.8" />
    <path fill="#e9d8a9" d="M265.6 545.5l.2-45.7-18 46-22.2-104" />
    <path fill="#e9daa7" d="M732.2 473.3l-27-6.6 37.6-4 .7 25.5" />
    <path fill="#3a82b1" d="M181.2 116.7l66 38-11-9.8 2-16" />
    <path fill="#b46527" d="M865.8 648l141.7-13-3 44-8.5-43" />
    <path fill="#e4e1d7" d="M551.7 407.6l10-4-43.4 2.3 6.2 5" />
    <path fill="#ead8a3" d="M317 580.2L291.5 530l-13.3-60.4L331 606.4" />
    <path fill="#daab48" d="M192 595.2l6.2-3.8 1 23L207 578" />
    <path fill="#cfd1dd" d="M408.8 281.4l-123.6-22-106 68.3 122.4-54" />
    <path fill="#803317" d="M35.3 580L59 557l-16 23.7L23 567" />
    <path fill="#e4bc5e" d="M417.6 670.4L399 713l-10.7-8 17.5-20" />
    <path fill="#a65f24" d="M182.5 673.7l-3.4-31.5 36-13.7-33 11.2" />
    <path fill="#cfa048" d="M272.8 672.7l38-7 38-113.8L310 671" />
    <path fill="#ebebe9" d="M967.5 421l7-113.6 64.8 78.8-80.6 32.6" />
    <path fill="#ecdfb2" d="M553.6 477l20.2 30.8-7.6 50.2v-34.3" />
    <path fill="#607fb4" d="M537 19.7l-8.8-2-7-48.5-31.7-.2" />
    <path fill="#cb9c45" d="M779 621l158.3 90.2-150.4-86-6-40.6" />
    <path fill="#1d3365" d="M76.3 22.6L94.5-31l-65.3 8.5 91.4 50" />
    <path fill="#b36225" d="M285.6 671.5l8.7 4.6 20-6-8.3 3" />
    <path fill="#773c1c" d="M170 650.6l-3.7.4-15.6 3.4 4.7-8.5" />
    <path fill="#d5a946" d="M814 611.7l49.4-6.5-9-23-5 27.4" />
    <path fill="#b46829" d="M342.4 674.3l-14.6-1.4 15-12 8-10" />
    <path fill="#e7d48d" d="M485 559.6l13.7-8.5-10.5-14 7.5 50" />
    <path fill="#bec0d5" d="M433.5 17.5L471.8 76l9-20.6 54 10.3" />
    <path fill="#d09937" d="M978.8 512.6l9.8-9.3L976 498l58 87.8" />
    <path fill="#e7c34f" d="M210 656l28.3 5.6-2.4 5-20-5" />
    <path fill="#8fa3c6" d="M234 124.6l14-4.3-55.2-5.2-23-36" />
    <path fill="#e2ca74" d="M483.2 667.8l87-96-30.6 44.6-15.2 7.6" />
    <path fill="#e1cb88" d="M690 518l15 21.2-3.4-2-14.7 24.6" />
    <path fill="#294c92" d="M-30.4 85.4l11.8-15 99 10.4-68.8-2" />
    <path fill="#e6e6ea" d="M770.7 352.6l60.6-13 13-22.2-36.6-3" />
    <path fill="#774a25" d="M141 677.5L67 713l95-6.2-36.6-31" />
    <path fill="#e0c464" d="M861 515.6L841.5 535l-2.3.5 38.6-19" />
    <path fill="#164795" d="M888 107.5l1-6.2-125-11 75 20.2" />
    <path fill="#ead6a2" d="M832 484.8l13.8 46.8L729.2 465l107 61" />
    <path fill="#d0cfdd" d="M532.8 53.4l65.8 47.5-40-52-36 40" />
    <path fill="#72adca" d="M468.7 137.6l75.2 53-7-14.6-43-27.3" />
    <path fill="#d29c3e" d="M923 659l12-5.6-15.3-4.5 30.5-111" />
    <path fill="#dbb85d" d="M355.7 667.7l-29 10.3 24.6-8.7-60 43.7" />
    <path fill="#ca963e" d="M815.2 640.4l-1-40 10 32-49 55.3" />
    <path fill="#c59f5a" d="M587.3 414.7l-4.6 7.2-9 12-10-4" />
    <path fill="#1f4586" d="M58 54.3l77 36.4L67.6 11l82.8 96.4" />
    <path fill="#eedebe" d="M341 460.2l-71 16.2 195.8-3.6-144-27.2" />
    <path fill="#4381b6" d="M126 165l-15.7 13 4.6 5.7 52 11" />
    <path fill="#e4ce8b" d="M233.2 557.5l-7.6-12-.5-34.3 25-7.4" />
    <path fill="#b14824" d="M32.7 618.7l-16.8.6 2-5.3-3-5" />
    <path fill="#ecdcaa" d="M474.8 517.7L515.2 619l1.6-12.2-23.2-52.5" />
    <path fill="#7ea4c3" d="M303.8 116.3l-11-4.7-17 21.2 45 2.6" />
    <path fill="#682a15" d="M44.6 663.5l30.7-3 26.2-1.2-4.4 1.5" />
    <path fill="#e7d294" d="M805 552.2l30 5.3-31.8-19 43.2-57.3" />
    <path fill="#6d2e18" d="M952.5 676.5l2.7 36.5h22.5l-36.3-40.6" />
    <path fill="#0a1e55" d="M876.7 8l-6.4 59 64.8 5.6L807 20" />
    <path fill="#cf9331" d="M426.6 655l-8.4 32 11.6-55.7 3 38.8" />
    <path fill="#d9bd77" d="M287.6 426.8l38.4-6.5-57 6 45.4 7.4" />
    <path fill="#498bb9" d="M167.6 169.6l13 10.5 37-22 1.8-12" />
    <path fill="#c0c4d4" d="M102 347l-50.5 3 8.8 58.4L25.6 395" />
    <path fill="#e0cb8e" d="M439 440.7l-69-10.3h72.3l30.2 10.6" />
    <path fill="#c27b2f" d="M59.5 524.7l-20.6-.4 2 10.7-8 29.3" />
    <path fill="#ba6a27" d="M716 669.7l7 33-33-25.6 17 36" />
    <path fill="#7da5c9" d="M138.5 276.4l-56 13.4 4.6 22.5-4-41.7" />
    <path fill="#a85e20" d="M799.2 667l-25.7 42.4 26.4-32.7 3-19.7" />
    <path fill="#255ca2" d="M171.7 154L156 104.8l-21.4-1.6 31.5 50.4" />
    <path fill="#c98320" d="M615.2 668.4l16.4 38.2 9.5-39-19 29" />
    <path fill="#e5d286" d="M329.8 579l11.4 43.5-8.2-54.3 18.8-40.4" />
    <path fill="#4f3127" d="M547.8 421.7l16-5-18.4 9-14 6" />
    <path fill="#d09d3a" d="M395.7 630.4l12.7-20.8-11.3 38.2 14 50.4" />
    <path fill="#eedec1" d="M803.8 459.3l27.4-33.2L699 441l-52.8 16.4" />
    <path fill="#edd99e" d="M668 621.2l21-18 4.5 2.2-1.2 11" />
    <path fill="#ac5425" d="M135 632.6l10.5-29.6-8-7.3 2.4 35" />
    <path fill="#c38836" d="M188 627.3l1.6 16 72.5 25-65-20" />
    <path fill="#c98a31" d="M860.7 613l-13.4 48.8 9-46.8-10.5.4" />
    <path fill="#d8bf7e" d="M319 433l-1-4.5-41.4-5.6-24.6 5" />
    <path fill="#debc5e" d="M321.4 610l-27.8-36-3.8 58.7-4.3-52" />
    <path fill="#a75522" d="M82.6 592.6L17.2 565 49 535.7l-24 26.7" />
    <path fill="#c37827" d="M179 680.7l45.4 23-29.3-94 22 86.3" />
    <path fill="#85b6d0" d="M590.2 190.4l-4.4-16.7 57.4 33.5-15 17.3" />
    <path fill="#bec7d8" d="M687.3 158.7l-45.5 25.6L749 251.8l-51.7 3.4" />
    <path fill="#ebdaac" d="M381.2 563.2l-3.5-127.6-32 140.7 5.2-83" />
    <path fill="#793b1e" d="M84.4 619.6l19.6 4-5-20.4-22.2 17.2" />
    <path fill="#aab2c9" d="M281.8 109.6l-33.2-11.8 9.8 19 26.8-2" />
    <path fill="#78685d" d="M564.2 392l1.4-.6.4 5.6-5 31.7" />
    <path fill="#c7cddc" d="M520 249.7l8.5 16 77.7-32.5L497 237" />
    <path fill="#d6a946" d="M394 620.8l-38.7-12-14.8 24.3 40.2-27" />
    <path fill="#ddba5d" d="M220.3 562l4.8-3.8-1-14.4-15 34.6" />
    <path fill="#2456a0" d="M55.3 171L12 260l71-90.7-63.6-19" />
    <path fill="#e1c372" d="M133.7 556l25.3 2.5-.3-55.8 11.6 61" />
    <path fill="#e3c66e" d="M522.2 636.2l-5.7-39.4 10.2 27.8L467 713" />
    <path fill="#e6d19f" d="M145.4 492.4l-28.7-49 107 16-65.2-7" />
    <path fill="#dda83c" d="M103.3 632.4l33.8 4.4L267 675l-145.2-44.3" />
    <path fill="#4e71aa" d="M641 25.5L618.6-31 638 55.3l5.5 2.2" />
    <path fill="#b75e24" d="M144 653.8l7.4 1.4-52 8 46.3-1.4" />
    <path fill="#c48032" d="M988 657.2l6.8-41.4-16 54.5-23.2-12" />
    <path fill="#8ab9d1" d="M493.4 200l-57.2 30 38.2-54 15-28" />
    <path fill="#193c82" d="M867.8 94.8l61.2 13.5 12-21-33.8-2" />
    <path fill="#e4cd8c" d="M237.2 492.4l-85.4-11.7v73.6l17-63.8" />
    <path fill="#dfc26c" d="M804.3 624.4L786 546.8l9.8-8.3-20.3-16.8" />
    <path fill="#dbdbe2" d="M201.6 365.8l-72 3 62.7 26 37.5 8.5" />
    <path fill="#96371b" d="M42.7 601l21.6-16-19.5 4.7 12.5 14.6" />
    <path fill="#dfc06f" d="M113 494.6l13.4 88-13.2-64 35.8-12.2" />
    <path fill="#5290c0" d="M763.4 142.2l25.7 16.2 40-24.8-3-2" />
    <path fill="#bc7831" d="M76.4 602.2L47 483.5l35.2 138L71 606.8" />
    <path fill="#e1c770" d="M781.8 616.5L752.2 604l17.8-3.8 6.7 45" />
    <path fill="#b7c9db" d="M661.8 245l6 38.5-50.2-17-5.3-19" />
    <path fill="#cd852e" d="M143.3 620l-12.5 10-2.3 8.4 28.2-50" />
    <path fill="#e5e5e9" d="M830.3 183.8l-26.7-5.2 14.5 99-38-87.4" />
    <path fill="#ecdba9" d="M622.5 544l4 56 12.5-6-35-64.6" />
    <path fill="#debe65" d="M705.8 663.2L775 541.5l-75 124.7-47.5 46.8" />
    <path fill="#ecdcb6" d="M256.6 485.6l41.4-19-4.4 63L270 448" />
    <path fill="#a8998a" d="M519.2 387l-37-2.8 59 74.2-60.6-76" />
    <path fill="#d8ac45" d="M504.7 659l-24-10.6 15.4-13-12 34.8" />
    <path fill="#672115" d="M57 611.2l-32.3 29.4 18-26.6 45.2-2.8" />
    <path fill="#e1c975" d="M271.8 593.5l5-32L268 522l-.8 91.3" />
    <path fill="#5b2113" d="M87.5 618.3l14.3-7-75.2 16 64-16" />
    <path fill="#e9d48b" d="M633.2 589.4l-44 105 27.6-77.7 39-44" />
    <path fill="#d4a149" d="M873.8 619.4l18 27.7 55-21-63 22" />
    <path fill="#e2c160" d="M969.4 484.4l6 48.4 10.6-53-32.8 48.5" />
    <path fill="#a15020" d="M937 641.5l-3-1.6-20 2 40 10" />
    <path fill="#c3701f" d="M246.8 633.6l-28.2 3.4 8.4-8-4.3 1.8" />
    <path fill="#93a1c6" d="M602 10l25 61-18.6-25.3L623.8 29" />
    <path fill="#355ca4" d="M921.8 111.4l29.5-19.2 35 51.7-6-35" />
    <path fill="#133d86" d="M775 16.2l-42.4 19.5-55.6 13 33.2 13" />
    <path fill="#a8bbcf" d="M373.2 127.5l28.2 54.7-76.7-95.6 28 48.7" />
    <path fill="#d8ae4b" d="M63.2 509.7L-31 435.2v89.4l50-34.8" />
    <path fill="#d8a93b" d="M567.2 670l25.6 35.3-55.2-56 2.6-4.4" />
    <path fill="#f1f1f1" d="M372.2 335l85 52-102-29.2-16.7-32.7" />
    <path fill="#eadcb7" d="M631.8 421.2L608 444.8l26-12.3 14 79.6" />
    <path fill="#e9d8a3" d="M495.5 540.5l8.6 90.8 3-105.7-114-2" />
    <path fill="#15397e" d="M806.8 72.3L790.4 14l26.8 43.4 20.7-8.2" />
    <path fill="#e9d596" d="M623.3 632.3l-53.5-113 7.2-21.7 6.6 39" />
    <path fill="#aa9f93" d="M534.8 380.4l-24.6 30 17.7-19-4-13.8" />
    <path fill="#dab34b" d="M258 631.6l10.3-43 15.6 6.7-8-24.6" />
    <path fill="#e0ca97" d="M171.7 444l-24.6-9 149 10.5-163 7.3" />
    <path fill="#c3c7d4" d="M527.8 102.2l-34-24.3 12.7 30 129-11" />
    <path fill="#8b9cc5" d="M920.2 131.3l-37.3-2.7-1 24.6 6.2-9" />
    <path fill="#335aa0" d="M76.5 26.5L54 34v-7.7l17.5-10.6" />
    <path fill="#7ca6c8" d="M177.8 216.8L165 160.4l28.7 43.5 1.4 14" />
    <path fill="#e1c671" d="M772.6 546.2l124.8 52 9.7-7.3 7 11" />
    <path fill="#863317" d="M97 577l-18.6 24 17.5 4-29-1" />
    <path fill="#ddb956" d="M423.2 713l59.2-79.3-8.7-24 17 7" />
    <path fill="#ba9e75" d="M537 437.6l8.4-5.6-8.2 2 9.3-26" />
    <path fill="#1e468b" d="M159.5 25L179 47.3l50.5-25.6 4.7 28.6" />
    <path fill="#e3c977" d="M829.2 499.5l-7 75.8-18.4-75 16.4 126" />
    <path fill="#5f3726" d="M604.7 419.7l-19.4 7 9-7 20.5-17.8" />
    <path fill="#ddb94b" d="M603.4 651.5l-32.5 2.8 22-15-26-10" />
    <path fill="#abb8d1" d="M69.2 316.8l117 20.7-115.4-13.7-42-21.7" />
    <path fill="#e6d28f" d="M753.4 484l31.4 77 8.3 35.5-4-6.4" />
    <path fill="#a0b8d0" d="M194.3 198l-7.7 16.4 23.7 16 24-23" />
    <path fill="#bec4d6" d="M881.8 184.4l-1.5-1.8-28.5 16-46.8-27.2" />
    <path fill="#937662" d="M514 393l11 45-12-44-23.6-7.5" />
    <path fill="#cf9b41" d="M34.5 550l-10.7-64.6-24 9.2 37.8 5.8" />
    <path fill="#3d69ab" d="M268-31l-57.4 43.3L137.3-31l46.3 37.6" />
    <path fill="#d8a63d" d="M577.5 648.4l12 41-5-38.6 25-3.5" />
    <path fill="#f0f0f0" d="M590 404.2l41.7-15.2L775 406.2l-149.2-34.5" />
    <path fill="#e4cb80" d="M215 542.7l-37 9 29 19.2-15.6-58" />
    <path fill="#7db4d0" d="M396.7 192.4l3.8 6.6 36 12-17.7-39.3" />
    <path fill="#ebebec" d="M548 376.5l27 26.7-11.6 6 22.2-80" />
    <path fill="#c57420" d="M388.5 656.6L378 641.2l-60.5 41 54.8-37" />
    <path fill="#efdfc0" d="M421.3 456l4.4 69 19.7-83.4 23.4 1.8" />
    <path fill="#73a0c2" d="M452.8 85.3l-12.4-7.8-11.8 6.6 63.2 19" />
    <path fill="#a96729" d="M184 642l-59.5 56.2-38.8-33 45 31.2" />
    <path fill="#c27a27" d="M387 618.5l-1.4 81-2-65.2L358 698" />
    <path fill="#cd922d" d="M359.8 615.2l4.2-3 4 34.5-2.3-8.7" />
    <path fill="#b46528" d="M999.5 553.8l9 23.5-13.4 4 5-13.5" />
    <path fill="#8a441b" d="M232.4 679.8l-116.3 26 145 7.2-47-35" />
    <path fill="#c28a37" d="M819.8 636.8l22 53.2-18.4-45.8-5.6 29.7" />
    <path fill="#e4e3e7" d="M970 170.6l85 55.3-141-11 63-31" />
    <path fill="#124490" d="M372.5 20.8l3.8 12.5-44.6 18L383.5 65" />
    <path fill="#d7ae3e" d="M278 609.5l14-13 1 24.3 16.3-14.6" />
    <path fill="#4089b7" d="M640.2 104.6l5.8-83v68l47.2 36.8" />
    <path fill="#efefe7" d="M301 409.3l150.4-3.2-59.6-26 56 4" />
    <path fill="#f0dcb0" d="M865.6 487.3l-6.5 22.5-4-49.8-101 15" />
    <path fill="#4189b7" d="M409 102.4l-27.3.8L363 77l33.2 11.3" />
    <path fill="#dab248" d="M393.2 713l-1.5-17.7 5-53.5-11-5.2" />
    <path fill="#98c2d5" d="M322.7 229.3l108.8 37 6.5-39.6 57 35" />
    <path fill="#4871b0" d="M172 43l-24.6 19.6 16 28-13-.4" />
    <path fill="#2e5e97" d="M378.2 38.4L374.7 2 369-31l17.2 50.8" />
    <path fill="#ebebeb" d="M469.4 351.8l56 45.2-102-91.4 73.6 87.8" />
    <path fill="#3f1b15" d="M140.2 681.4l-7.8-8.4 10.3 2.3L132 713" />
    <path fill="#92b2cf" d="M202.2 270.5l-19-19-106.7 70L96 292" />
    <path fill="#dfbe5d" d="M675.6 635.5l-24 34-5-43.4 39.8 44" />
    <path fill="#e8d69b" d="M764 530.8l7.3-26.5L705 503l117.3 26" />
    <path fill="#7997c1" d="M950.8 117.2l7 24.6-16.8-9 4.6-24.6" />
    <path fill="#7e3215" d="M159.2 606l5-9.4-9.7 26.2-6.7 5" />
    <path fill="#dfc367" d="M773 574l-28-8.3 36.3 5.8-23.8 97.8" />
    <path fill="#e8d59c" d="M288 581.4l48.6-81.7-8.2 5.6-27.5 77.4" />
    <path fill="#af4b24" d="M92.2 656.7l-2.4-5-20.8 8-17.3-8" />
    <path fill="#d6a944" d="M94.4 527.6l3.4-3.6.2 28.2-7 19.6" />
    <path fill="#dfc569" d="M271.8 566L239 593.3l24.6-15.3-13-34" />
    <path fill="#e2c979" d="M847 581.3l25-111.6-36 122.5-17.3-1.3" />
    <path fill="#956c41" d="M520 411.2l14.2.5-12.5 9 .4 4" />
    <path fill="#e1c66b" d="M362.2 564.3L334 593.8l-63.7-.5 67.2-6.3" />
    <path fill="#e6d4aa" d="M304.3 409.4l-242.6 11 253-11-21 33.7" />
    <path fill="#572016" d="M18.4 574L-31 607.3v8.4l37.3-24" />
    <path fill="#cd9b31" d="M317.8 596.7l22.6 19-29.4-.7 10.2 12" />
    <path fill="#2566a7" d="M400.8 57.8l-65.6 25.4-5.6-21 90.7 5.8" />
    <path fill="#dbba68" d="M34.6 487.8L31.3 477l2.8-50 38-1" />
    <path fill="#cd8b33" d="M444.5 634l9-.7-14.6 8.2-71 71.5" />
    <path fill="#a54316" d="M142 612l-13.4-34.5 3.2 33.2-1-40.4" />
    <path fill="#d79c38" d="M152 664.2l23.2-6.6-33.4 55.4 38-61.3" />
    <path fill="#dec36b" d="M881.3 534.8l-91 4 65.2 6.5 44.3-17" />
    <path fill="#1c3f86" d="M937.3 69.4L910 119l35.7-58.6L1008 138" />
    <path fill="#e7d18b" d="M652 521.4l-3 60-.4-73.7 44.5 43.8" />
    <path fill="#965024" d="M1003 669.8l-.4 28.8 3-7.6-17.8-49.8" />
    <path fill="#5b1f14" d="M18.6 637.3L-13.2 650l26.7 1-5.2-33.5" />
    <path fill="#c47d2c" d="M939.5 648.4l16-83.4 15.8 2.4-16.4 10" />
    <path fill="#a55f28" d="M100.7 618l6-8.6L92 605l22.2 25.2" />
    <path fill="#501712" d="M127.3 623.3h2l9.5-12.8-3.8.3" />
    <path fill="#babdcc" d="M35 335.2l-66 39.6 52-57.6L67 345" />
    <path fill="#7b2313" d="M197 669.3h16l-4 3.4-3.2-.3" />
    <path fill="#8ea0c2" d="M507.5 40.6l-4.4-2.2 8-9 8 17.2" />
    <path fill="#d2aa49" d="M835 660.8l-15.6-56.6 1.6 11-7-43.4" />
    <path fill="#ead9ae" d="M457 409l5.7 14.5 2.5-11-90 5" />
    <path fill="#d8a941" d="M936 559.2l-1 39 22 1.2-4.2 11.3" />
    <path fill="#9b4a21" d="M978 678l23.6-64-28 99h42" />
    <path fill="#b64d20" d="M10 658.6l16.6-7.3-46.2 8.6 2.2-3" />
    <path fill="#aac0d5" d="M191.5 304.6L161.8 290l10.6-19.8 19 9.6" />
    <path fill="#d9a240" d="M245.5 632.4L212 643.7l23.3-1.7 8.2-4.3" />
    <path fill="#8ca4c9" d="M79 304.2l-26-13.6L63 261l-14-5.4" />
    <path fill="#1f4387" d="M789.2 27.5l1-15.6-57.6 55 16-58" />
    <path fill="#deca76" d="M576.5 680.7L511.3 713l58-18.5 112 9.7" />
    <path fill="#674d41" d="M498 403.7l-20.7-22.2 41.8 45-16-16" />
    <path fill="#98b5ce" d="M274.5 190.8l-4.7 12-32-32 76.7 7" />
    <path fill="#9cbdd1" d="M427.6 202.6l32-4.3-20.7-24.7-9-26.6" />
    <path fill="#eadaa4" d="M569 597l50.6-108L548 622.6l42.7-38" />
    <path fill="#c38131" d="M100.4 590l18.3-48-7.3 34 2.7-.3" />
    <path fill="#d4d4e1" d="M795.2 271L700 210.3l2.2-25 116.2 88" />
    <path fill="#72acc9" d="M481.6 148.8l-7-22-5 39 52.8-14.6" />
    <path fill="#e9d7a2" d="M280.7 555.6l-11.2-41.2 6.8 58.4L347 468" />
    <path fill="#99491e" d="M206 613.5l-4.2 16-10.2 15 15.6-17.2" />
    <path fill="#d19d3f" d="M427.7 640.6l6.2-11 15 32.4-15-44.6" />
    <path fill="#d8b147" d="M628.5 713L617 655l36 12-23-22.3" />
    <path fill="#b5c2d2" d="M357 99l-20-2.8 21.4 14.7 18-15" />
    <path fill="#e0c16b" d="M322 518l-5 78.5.6 26-3.6-6" />
    <path fill="#5a1e16" d="M26.2 604.7l-57.2 10 63.3-17-63.3 69" />
    <path fill="#e7d595" d="M370.6 574.3l-31-5.8 4 22-23.6-63" />
    <path fill="#e5cd7f" d="M556 553l21 3 13.4 101.5-7-90.8" />
    <path fill="#a35f28" d="M274 651.8l-20.3 11.6-7.2-12.5-7.2 18" />
    <path fill="#d3a345" d="M767.6 646l9.7 37.2-.3-46.8-25.4 67" />
    <path fill="#bf7d2c" d="M866.6 699l-22.2-56.7v19.2L878 713" />
    <path fill="#773c19" d="M206.6 685l-26-9.7 11.7-6L182 713" />
    <path fill="#833317" d="M962 667l-9 30.4 43-12.2-33 4" />
    <path fill="#b86826" d="M192 710.3l13-55.5 42-14.2-47.7 14" />
    <path fill="#011041" d="M930.4-2.5L897 61l-30.4-91 57.2 68" />
    <path fill="#dfba59" d="M955 539.2l-18 37.3 6.5 7 8-79" />
    <path fill="#b87230" d="M113.8 683.7l38.5-55.2 55.4-91-62.8 105" />
    <path fill="#c06c21" d="M197 630l-23.6-24.7 12 2 12.6-11.7" />
    <path fill="#07235b" d="M345.6 12.8L317.4-31l27.8 4.8L361 9.3" />
    <path fill="#e6d18c" d="M286 532.3L275.7 472l9.6 72.5 50 44.6" />
    <path fill="#bfc9d9" d="M243.2 305.8L181 288.5l82.5-15-30.7-18" />
    <path fill="#dab45a" d="M144 546.7l-7.5 36.7 6-77.4 1.7 44.6" />
    <path fill="#d9ae49" d="M662.7 635l5 22-50 56 41.8-50" />
    <path fill="#664133" d="M599.6 416l9.6-6v-6l-14.6 13.5" />
  </g>
</svg>