<svg version="1.1" viewBox="0 0 1024 682" width="1024" height="682" xmlns="http://www.w3.org/2000/svg">
  <g fill-opacity=".5">
    <path fill="#debd61" d="M263 597.6l-34 .3 2.4-19-10.3-19" />
    <path fill="#a5b8ca" d="M367 102.4l-72.4-9.8 83.4 1-1.3 75.5" />
    <path fill="#7a6962" d="M538 402.2l4.6-3 26-3.4-18 6.3" />
    <path fill="#728dba" d="M529.4 32.6L540.6 21l2.5 5.4L517-20" />
    <path fill="#e2ca6f" d="M438 606.8l-17 49.4-15-70L244.7 554" />
    <path fill="#adb8cc" d="M439.7 71.2l152.7 78-121-77.3-46.8-65" />
    <path fill="#a8bed0" d="M419.5 161.6l19.4 31 6-17.8-24-31" />
    <path fill="#e4c14d" d="M231 653.3l7 20.7 12.5-1.8-48.6-17" />
    <path fill="#ce9031" d="M433.7 638.6l-9.8 59-12-77-16 76.2" />
    <path fill="#c67a28" d="M464.8 713l45.6-12.7L492 677l4-22.5" />
    <path fill="#172c62" d="M6.4 27.8l117.4 52.4L51.2 57-31 93.3" />
    <path fill="#7d381b" d="M-31 686l178.8-38.6 26 5.4-30.3-.6" />
    <path fill="#e4ca6e" d="M693 631.2l-35.6-41.8 14 65 3.3 18" />
    <path fill="#ac5920" d="M8.3 535l57 23.6-83.2.7L-31 458" />
    <path fill="#c47b2c" d="M973 583.5l39.4-23.8-10.2 28.7-13.5 62.4" />
    <path fill="#225da2" d="M405 23l-15.2 51.6-53 8.6 41.7-51" />
    <path fill="#712819" d="M70.6 584l-54 28-39.4-99.4L-31 617" />
    <path fill="#dcd7de" d="M1055 329.2l-10.2-56.5-10.4-68-39.5 53.8" />
    <path fill="#b7915d" d="M621.2 414l32.3 9.4-1.5 3 2.8-8" />
    <path fill="#dab453" d="M332 606.7l-14.7 38-9.3-3 68-80" />
    <path fill="#3d6da8" d="M80.7 104.7l-67.5-32 10 18.2 58 25" />
    <path fill="#e5d189" d="M510.8 524l22.7 33.8L472.7 660l57-134.6" />
    <path fill="#cd9435" d="M357.2 597l20.4 72.2-60-74.8 22.2 73.8" />
    <path fill="#5681b7" d="M942.7 133.2l-53.3-8 17.3-8-113.5 13" />
    <path fill="#3d1b14" d="M56.2 678.4L-11 713l54-17.7L81.6 672" />
    <path fill="#c8cedd" d="M605 227l-95 97.4 71.7-6.7-59.4-87" />
    <path fill="#84a8c5" d="M379 112l-55.6-11.6.7 14 73 19" />
    <path fill="#8d351b" d="M-6.3 653.4l81.6 52-103 7.6 75-59.8" />
    <path fill="#b16228" d="M340 661.5l-2.5 13.4 27-19 4.7-9" />
    <path fill="#5f2515" d="M49 669.2l96.2 6.5 10 4.5 6.2-9.3" />
    <path fill="#884822" d="M962.3 671.5l-46.2-9.3 20 10.8 28 16.2" />
    <path fill="#e6e4e3" d="M321.8 413l-120-3.4L137 365l-50.3-20.7" />
    <path fill="#ba601c" d="M206.5 632L193 596.3l34.2 42.3-3.8-23.3" />
    <path fill="#f3f3f0" d="M893.8 412l-149-44 8-34.5 207.8 74.3" />
    <path fill="#d5d4de" d="M327.7 321.8l-149.4-97.5 107 20.7-66.3 66" />
    <path fill="#bd7e34" d="M302 658.6l12 48.5 17.2-22-58.5-14" />
    <path fill="#92acc7" d="M646.3 133.8L608.6-14l23 152.5 86.7 22.5" />
    <path fill="#e0c36b" d="M818.2 538.8l49-9.4 32.3 63.5-25 7" />
    <path fill="#6297bd" d="M193.2 187l75.2-68.6-7.3-3.7 43 .4" />
    <path fill="#e4e4eb" d="M799.3 248.2L734.8 205l51.3-25.3 158 52" />
    <path fill="#ebd8a6" d="M277.7 501l138 .3-30.2-38-113 95.7" />
    <path fill="#c1c7d9" d="M262.4 276.8L165 341.2l16-55.7 39.3-2.3" />
    <path fill="#5380b2" d="M75.7 114l77.7 40.8-65 5 23-42.8" />
    <path fill="#579ac1" d="M677.3 120.7l-39.6-12.3 19.6 24.3L820.8 157" />
    <path fill="#849abc" d="M1.3 86L22 104l32.8 12.5L14.3 84" />
    <path fill="#14326f" d="M791.2 22.8l-51.6-9 32-42.6 86 112.8" />
    <path fill="#428ab8" d="M167 205.4l-21-34.2-74.8 97 28.8-14.5" />
    <path fill="#748bb4" d="M613.5-24L553 11l-13-42 46 42" />
    <path fill="#d5a43e" d="M996.5 561.8l15.8-34.7-47.3 20 33.6 62" />
    <path fill="#1b326c" d="M120.7 41.6L82.4 14l41-6.7 11 35.7" />
    <path fill="#cecfde" d="M646 183l153 73.3-103.4 29.4L750 170.3" />
    <path fill="#cc8e32" d="M106 581.5l5.6-30.7-77.8-4.4 177.5 36.4" />
    <path fill="#e1be52" d="M478.6 713l42.7-76.8 15.7 43 8.2-56" />
    <path fill="#dfbd61" d="M438.2 685.7l23-126 5.7 4.8-38 48.8" />
    <path fill="#dbb24d" d="M422 713l-31.6-94 37.2 78.6-12-107" />
    <path fill="#f1f2f2" d="M785.2 302l269.8 71.3L791.8 283l-30 1" />
    <path fill="#a7431a" d="M122.8 617.5l6.6-12.3-76-38.3 98 31" />
    <path fill="#d6a43f" d="M172.8 654.3l-12.3 25 17-15.8 20.6-21" />
    <path fill="#f1efe9" d="M1055 340l-288.3 70.7 85 4.7 116.5-3.4" />
    <path fill="#acc4d7" d="M522.2 189.7l-27.6-26.5 12.7 97.6-77.2 14.8" />
    <path fill="#cb8a30" d="M111 545.7l-30.4 1-15 6.3-12.8 21.6" />
    <path fill="#74a3c4" d="M188.3 242.7l-36.5-14.2 16.8-75-20.8 46.2" />
    <path fill="#b85813" d="M404.2 669.7l-30 43.3 55-33.7L398 713" />
    <path fill="#e7d39b" d="M158.4 478.8L342 571.2 136.7 442.5l-42.5 49" />
    <path fill="#e2c77b" d="M136.3 518L42 472.4l124.6 16.4-9 79.7" />
    <path fill="#a65623" d="M267.3 673.7l8-23.6 12.2-20-18.3 17" />
    <path fill="#cd9d4b" d="M265.6 633.6L263 650l41.8 10-33.6 1" />
    <path fill="#a5b9cc" d="M441.2 121L428 98.4l90.5 53-33.7-41.7" />
    <path fill="#ecd99f" d="M801.6 506l-65.4 43 215.4-81.5-157 26.6" />
    <path fill="#9a4b1c" d="M1027.4 610.8l-32.5-15 16 22.8 43-57" />
    <path fill="#c48535" d="M948.2 673l3.7-5.5 41-3-37-7.6" />
    <path fill="#d2c09d" d="M512.6 413.6l-62 1.5 47.4-7 13.7 12" />
    <path fill="#b3bad1" d="M625 59l7.8 78-96-136 4 22.6" />
    <path fill="#5081b7" d="M967.3 141l-1.2-33.7-37 4 70 31.3" />
    <path fill="#aab2ca" d="M235.5 98l-63-33.2 15.4 31 52 25" />
    <path fill="#a2b7d0" d="M152.6 334L129 279.5l-79 56 62.8-1.2" />
    <path fill="#cf922c" d="M292 633.5l-7.6-29.3-81.3 32.5 63-13.5" />
    <path fill="#ad6a33" d="M-31 433.5v-7.8l46-5.6 14 6" />
    <path fill="#c9a776" d="M584 451.7L550.5 410l-19.2 11.7 26-5.4" />
    <path fill="#e5cd7d" d="M877 577.8l-13-89.2 33 31.5 29.5-81" />
    <path fill="#85b8d1" d="M642.5 219.4L386 205.8l160.5 1.8 66-32" />
    <path fill="#c0cadd" d="M604.8 252.2l105 73.3-19-123L747 253" />
    <path fill="#e3d1aa" d="M305 414.5L83.7 429l247 17.5-87.2-22" />
    <path fill="#e2c472" d="M894.3 547.4l110.3-125-69 12.5 30.4 62" />
    <path fill="#8d8078" d="M591.5 394.5l-2-17-7.6 2 10 23.5" />
    <path fill="#e0c582" d="M97.3 447l161.2-1.4L107 435.2 20 478" />
    <path fill="#aa5f26" d="M197.7 659l-47.4 17.3-6.7-27.2 35.6 25" />
    <path fill="#a3451f" d="M152.4 572L14.6 619l-36-12.8 38 5" />
    <path fill="#d3d3de" d="M301.6 92.5l13.3 24-44-36-17 24.7" />
    <path fill="#aa4520" d="M-31 682l77-52.3-25.3 27.7-51.7-2.7" />
    <path fill="#edecec" d="M623.8 361l59 65.4-128.4-116.8-4 90.3" />
    <path fill="#749cc8" d="M792.6 144.3l-2.4 16 74-3.3-29-13" />
    <path fill="#c78437" d="M112 630.5l.3-137.8-.5 118.7-10 5.2" />
    <path fill="#e0c164" d="M191 597.2l-1-13.2 58.8-34-34.8 29" />
    <path fill="#e4d18a" d="M827 545.6l-24.6 59 42.8-53-82.5 10" />
    <path fill="#d8b45b" d="M759.3 677l-.3-70.4-65.3-22.2L752 599" />
    <path fill="#97a7c1" d="M61 335.4L-27.7 306l27.5 35.7-30.7-68" />
    <path fill="#eaebec" d="M563.4 410.3l40.8-104.5-61 88 42 .2" />
    <path fill="#315a97" d="M643.2-4.7l1.8 21-15.5 2.7L648-31" />
    <path fill="#e4cc7c" d="M703 575.3l-.4 4 26-44.2 30.4 61" />
    <path fill="#1f4186" d="M107 50.4l28.5 15-4.5 30-13.8-1.3" />
    <path fill="#cbd1dd" d="M351 258.8l164.2 33-191.7-11.3-110.5-2.2" />
    <path fill="#e9d79c" d="M375 581l29-76-32.4 41.5 82 53" />
    <path fill="#d9b75c" d="M791 655l-9.2-63 57.5 28.2 3-66.5" />
    <path fill="#e9e9ea" d="M544 408.4l-145-76 19.5 40.7 40.5-49" />
    <path fill="#cb8830" d="M941.7 642l-8.4-65.3-10.3 17.5 3 35.5" />
    <path fill="#d6a748" d="M425.2 674l25.4-44-26 14.3 18-39.4" />
    <path fill="#9ca9c9" d="M486.7 40l-3.6 8.3 56-7.7-83-25" />
    <path fill="#d8ac45" d="M687 635l-27 78 61-67.4-35.5 8.4" />
    <path fill="#90a9cb" d="M129.5 323.3l-70-47.3-27.2 6.3 111 47.6" />
    <path fill="#e6e3df" d="M505.3 414.2L480.7 398 436 314.5l57.3 95.8" />
    <path fill="#94bfd4" d="M282 220.6l-1.3 14.5 122.7 1-9.8 28" />
    <path fill="#bcbfce" d="M-31 304l81 32.3 84.6-1L-31 388" />
    <path fill="#e5cd74" d="M547.6 636.7l66.2 13.8-90-48.3L506 642" />
    <path fill="#d9af4a" d="M959.2 559.8l-137 51.4L977.6 566l-8.6 33.8" />
    <path fill="#dcc38a" d="M273.3 433.3l75-18-59.2 8-103-3.3" />
    <path fill="#275ea5" d="M7.3 262.6l96-99.2-82-9.6 80.8 53" />
    <path fill="#b76825" d="M984 574.6l-31.5 75 5-54 18.2 17" />
    <path fill="#c17329" d="M91.2 660.5l58-23.7h24L72 659" />
    <path fill="#d7af54" d="M69.2 547.3l51-62.3L78 519l-35.2-22" />
    <path fill="#c27b28" d="M195.4 641.6l-12-88.2-6.3 49.4 16 25.8" />
    <path fill="#eedfbc" d="M603 443.6l-91 83.8 27.7-101.2 23.3 95.5" />
    <path fill="#688cba" d="M193.8 105l-4.4 13.6-35-69.4 4.3 48.3" />
    <path fill="#99adcb" d="M44.2 359l-13.7-55.7h86.2l-1.7-22" />
    <path fill="#d5a545" d="M868.3 624.8l21.3 45.3-1.3-58-50 87" />
    <path fill="#b46027" d="M45.4 629.8l-1.6 48.4-4.2-43.5 87-2.3" />
    <path fill="#375ba5" d="M120 55l50-13 24.4-47-45.7 86.2" />
    <path fill="#efefed" d="M585 364.3l219 47.3-118.2-50.3-90 42.3" />
    <path fill="#a78c74" d="M603.3 427.8l-1-19.4 14.7-11-14-1" />
    <path fill="#285ca2" d="M301 17.5l22 48-27.6-43.3L225.2-31" />
    <path fill="#a54d1c" d="M300.7 647.2l-13 15.3 21-31.4-2.2 27" />
    <path fill="#a6c1d5" d="M638.7 261.6l15.7-66 74.2 56.6-35.5-15" />
    <path fill="#d5a749" d="M905.8 591.7l-4.6 78.2 25.2-169-23 95" />
    <path fill="#949cbf" d="M30.6 139l-8 5.2-53.6-25.7 7.7-7" />
    <path fill="#b66124" d="M72.2 569l28-22.4L66 584 5.4 598" />
    <path fill="#511d13" d="M35.4 677L55 688l-26-17 13.5-16.6" />
    <path fill="#f1e1c5" d="M881.4 415l-116.7-4.6-112.3 6 28.5 4.3" />
    <path fill="#e5ce74" d="M632.6 665.8l-19.2-96.2 19.4 50-25-36.3" />
    <path fill="#25599f" d="M133.4 95.5l21 37.8 44.4 16.4L126 71" />
    <path fill="#dad9e4" d="M917.2 227.2l-3.7 2-81-17.2 86.8-42" />
    <path fill="#bec5d6" d="M552 132l66.4-27.2-4 77-63.4-24.5" />
    <path fill="#91a1c4" d="M439.6 79.2L429.4 3.4 409 47.7l21 29.8" />
    <path fill="#bb6923" d="M259.5 645l-57.3 4.3 35 .7 17.6-40.3" />
    <path fill="#eadaa5" d="M491 582l-80.4-122.2L512 602.4l56-44.2" />
    <path fill="#8e381a" d="M1000 653l29.2 40-18.6-19.2v-32.4" />
    <path fill="#60a5c6" d="M328 166l38.4 9.6-16-26.3-21 .3" />
    <path fill="#e8d295" d="M151.8 518l78.7-12.2-14.2 56.6-57.5-94.2" />
    <path fill="#854e25" d="M185.2 678l20.3-10.2-36 3.6-3.8 3.6" />
    <path fill="#d05f24" d="M74 681l105.2 32H-31l94-30.6" />
    <path fill="#dec46e" d="M788 529l-26 22 7.2-20.6 21.5 39.7" />
    <path fill="#eff0ef" d="M646 378.8l-47.7 24.8-17.5-45L689.5 414" />
    <path fill="#5d2016" d="M52 635l-22.4 21.3-44.4 56.7 47-67.5" />
    <path fill="#8195c2" d="M927.2 133l79.5 8-57 6.3-30.3-5" />
    <path fill="#e3c45d" d="M1008.3 476l-24.8 50.4 7-34-106.6 39" />
    <path fill="#bf8134" d="M927 684.5L891.8 673l4.6-74.2-5.6 39.6" />
    <path fill="#c58d39" d="M823 647.6l28.7-36-53 55L753 662" />
    <path fill="#a89f97" d="M521.3 399.7l11.4-13.7-12.6 10.2-33-15" />
    <path fill="#6b8bbc" d="M1010.8 170l-16.3-16 35.4 10.3 25-54" />
    <path fill="#8e9ec0" d="M87.2 109l-4.7-16.4 31.5 29-13.5-3.6" />
    <path fill="#d6a33f" d="M238 558.2l1.6 82.7-36 7 46-22" />
    <path fill="#d29934" d="M151.5 657l-29.8-21.7 63.5 3.8-49.7-8" />
    <path fill="#a25926" d="M283.3 679l-12.7 13.6L226 713l-10-33.7" />
    <path fill="#c67829" d="M985 579l-18.8-.6 2-30.6 7.7 62.6" />
    <path fill="#eeeff1" d="M634 325l48.6 23.2-4-32.3-16.4-15" />
    <path fill="#d5a543" d="M743.8 619.2l57 93.8-33.2-77.8 5 77.8" />
    <path fill="#9bb6ce" d="M242 175.7l32.5-8.6 66 24-63.2 5" />
    <path fill="#a59489" d="M553.2 395.7l-74.5 6.8-2.7 12.3 28.7-16" />
    <path fill="#3f1f12" d="M87.2 695l13.8 4.4-8-24.6 29.4-16.3" />
    <path fill="#2d1711" d="M569.6 420l-14.3-1.3 8.6-5.5 4 2.7" />
    <path fill="#b5661f" d="M386.5 661.4l-1 17.3L369 677l-12.7 10" />
    <path fill="#e4d4a9" d="M285.5 438.6L483 423.2l-71.4 1.2-79.4 1" />
    <path fill="#a07049" d="M500 429.2l7.6-22 7 26.3-28.4-19.8" />
    <path fill="#cf9431" d="M393.5 604l-1.2 7.7-7.7-5.7-9 53" />
    <path fill="#d8ad4b" d="M823 674l2.7 17-14.5-34 6.2-21" />
    <path fill="#4079b3" d="M26.6 297.6l-37-29.6-2.5 12 54-29.3" />
    <path fill="#29519f" d="M1055 173.4L938.8 96l14.8-9.6 82 68.3" />
    <path fill="#c37d2e" d="M1013.4 629.8l-2.4 20 2.5-5.5-22.4-51.8" />
    <path fill="#a9b2cb" d="M237.2 109.2l-21.8-49 27 6.2-41.8 38.2" />
    <path fill="#e3cd7f" d="M370.7 568.7l21.3 62-29-112.3-16.6 84.2" />
    <path fill="#c77e2d" d="M113 672.4v38L219.4 668 80 713" />
    <path fill="#f0f1eb" d="M472.8 410.4l-145.2-33L476 390.8l-3.4 24.6" />
    <path fill="#e5d18e" d="M646.6 548.7l91.8-18.6-46-19-19 2" />
    <path fill="#e5ce80" d="M284 602l64-26.5H240l90.7-16" />
    <path fill="#b8bad3" d="M844 192.2l59.7-46.2 54.3 25.8 53.7-27.3" />
    <path fill="#ebdbad" d="M703 463h42.2l-19.7 72.2L700 424.5" />
    <path fill="#d59f38" d="M958.3 624.8l-16.3-11-6.8-35 17.5 25.6" />
    <path fill="#ce993a" d="M682 713l16.4-70-39.8 64 78.7-59" />
    <path fill="#842e13" d="M91.5 609l29.2-20.6-50.7 14L94.3 578" />
    <path fill="#e5cf83" d="M444.5 533.6L405.3 564l27.8 29-43 34.8" />
    <path fill="#491611" d="M17.4 618.3l-48.4-3.6L15 653l-24-5.6" />
    <path fill="#e6d180" d="M398 587.4L507.4 615l-12.7-45-26.4 55" />
    <path fill="#8a341b" d="M47.5 670.2l9.4-27.5L71 670l-43-18.2" />
    <path fill="#bd7b35" d="M938 654.8l-.3 17L948 662l7 2.3" />
    <path fill="#e7cf82" d="M700.2 651.5l-44-99.3 4 82.4 80-38.7" />
    <path fill="#2863a7" d="M783 134l-10.6-52-29.6-31-.5 23.7" />
    <path fill="#894722" d="M953 649.4l25-35.5-38 70 7.8-26" />
    <path fill="#deb04c" d="M329 651.7l2 27.7-38 2.6 50-18" />
    <path fill="#dadce4" d="M554.2 311.4l57.3 42.5 63.7 20-9.8-22" />
    <path fill="#e9d6a0" d="M292.2 548.4l39.3-73 3.2 7.5-34 109" />
    <path fill="#954d20" d="M225 670.2L209.2 713l19.7-45.7-75 9.3" />
    <path fill="#c2c8d9" d="M623.5 174.4l158.8 3.5-34.5-25-93.2 44" />
    <path fill="#edddb3" d="M433.6 500l-.5 85 14-40.7L302 490" />
    <path fill="#0f3376" d="M643-31l44.5 42.2 71.8 35.6-116.8-28.4" />
    <path fill="#9e4d1e" d="M200.3 638.2l-20.7 6.3 26.3-19 1-38.3" />
    <path fill="#ac5e27" d="M223.2 643.8l-22 7 29.8 1h-3.5" />
    <path fill="#cd983c" d="M908 558l12 2.4-3.6 33.8-3.3 30" />
    <path fill="#dcbd63" d="M348 631.5l-2.6 23-7-109.4.8 98" />
    <path fill="#75a7c5" d="M399.4 154.8L384 133l41.5-5.3 19.8-9.8" />
    <path fill="#4a1917" d="M27 602.2l-14.6-1.6 7 12.3 10-6" />
    <path fill="#b15e1f" d="M775.5 677l30.5 24.8-7-36.2-23.7 47.4" />
    <path fill="#bf6d1e" d="M635 713l36.4-37.3-61.6 37.3 30-46.2" />
    <path fill="#1c3f7e" d="M239.5 31.4l56.2-12.7L228.3 7l-25 37" />
    <path fill="#547eb3" d="M82 166l-62-35.5-47.6-25.6 30.2 2" />
    <path fill="#93431c" d="M986 647.6l-4.8 2.7 6.4 62.7h-18" />
    <path fill="#919cbf" d="M57.7 127L23 101.4l22.8 5.4 1.4-3.5" />
    <path fill="#c68633" d="M213.2 579.6l-1.8 8.7 22.8 9.2-19-22.3" />
    <path fill="#dcba61" d="M127.2 564.7l-14 5.6 24-43-56.2-17" />
    <path fill="#cbd3e1" d="M269.8 344.5l13.6 31.3-57.6 7-30-53.2" />
    <path fill="#e7e5e8" d="M311.7 307L286 352l110.2-68.4-151.6 1.5" />
    <path fill="#b86124" d="M88.2 658.6l14 9.8-37-.8 99-34.4" />
    <path fill="#3563a4" d="M80 71L61 95l-1.4 4.5 39-25.3" />
    <path fill="#dba33a" d="M196 631l-25.6 5.5-91-1v-.4" />
    <path fill="#31559a" d="M68.4 30.8l1 13 7-31-37 9.8" />
    <path fill="#deba51" d="M471 713l-18.6-67.8 12.7-50.7V713" />
    <path fill="#bfc1d7" d="M454 51l92-1.2-24 34.8L459 17" />
    <path fill="#5285b2" d="M399.2 40.3l-6 8.3L433.4 93 366-31" />
    <path fill="#eddeab" d="M572 628.8l3.4-41 26 7.3 3.2-81" />
    <path fill="#c1c0d5" d="M575 42.4l45-47.8-41.5 23.2 37.2 23.7" />
    <path fill="#182d63" d="M-27 20l89.5 68L61 58.8l56.8 1" />
    <path fill="#acb7cd" d="M20.8 335.6l84.8-14-95 54.8L66 383" />
    <path fill="#2b417c" d="M-6 33l35.7-64-40 45.6 70 16.2" />
    <path fill="#7d9ac1" d="M112.4 135l22.3-14.3 23.7 18-18.6-22.4" />
    <path fill="#e7d289" d="M566.4 574.7l-13 33.6 12.3 44.7-53.7-55" />
    <path fill="#315296" d="M194.4 60l-39-19L115-17.5l28.4-4.8" />
    <path fill="#c57e29" d="M494 665.4l-25 49.3-24-72.4 2 70.7" />
    <path fill="#672b16" d="M138.4 662.3l2.2 22.8 38.2 16-65-26" />
    <path fill="#e2cd7f" d="M519.8 567.3l-14.2 25 25-54-11.2 67" />
    <path fill="#7db6d0" d="M545.8 176l-3.8-20.4-27.7 55.4 23.4-.6" />
    <path fill="#a7bfd6" d="M192.8 232.2l-47.2.2 95.6 42.8-66.6 21.3" />
    <path fill="#4e1d15" d="M73.3 624.3l13.2-18 3 6.3L30 629.3" />
    <path fill="#e0c460" d="M586.7 656.2l.7-23.5-23.6 56.6 22.6-93" />
    <path fill="#c78d36" d="M852.2 713h-12.4l17.7-94.3-23 44.6" />
    <path fill="#b65920" d="M131.5 590.2l4.3-22-15.8 18.6-11 27" />
    <path fill="#dfab37" d="M164 676.6l10.6 36.4-34.4-22.8 50.4-9.5" />
    <path fill="#e6ce75" d="M616.2 666.3l6.4-56.3-25 51.6 14 15.3" />
    <path fill="#b26729" d="M56 527.5L40.7 524l-21 64.6 6.8-24" />
    <path fill="#ebdbbf" d="M511.4 415.3l-2.5 21.4-246 38.6 246-24.6" />
    <path fill="#ececeb" d="M630.2 380l-146.4-54 121.4 60-29.5 34" />
    <path fill="#cccbd6" d="M4.4 376.4l-35.4-2L55 411l111.4-4" />
    <path fill="#c5862f" d="M1006.6 499.6l-23.6 29 .6-8 30.6 1.2" />
    <path fill="#bc945c" d="M626.5 414.2l14 5-71.3 6.8 91-6.4" />
    <path fill="#c8862a" d="M421.8 638.8l-9 15 .5 20.2-8-27.4" />
    <path fill="#ececef" d="M1011 210L910.3 324.7l-43.5-23 117-103.2" />
    <path fill="#f2f2f2" d="M426.8 334.7l86 45-103.2-80-86 4" />
    <path fill="#deb245" d="M197.2 649.8l-6.8 5.2-32.2 4 3-2.7" />
    <path fill="#e9d58f" d="M650.4 612.2L643 659l-8-53.2-112.6-109.6" />
    <path fill="#5882b3" d="M47.6 118l37.8 10.8L12.8 149l58.3 5" />
    <path fill="#ead5a4" d="M429.2 411.2l2 10.2 52.2-10.4-100.4-1" />
  </g>
</svg>