<svg xmlns="http://www.w3.org/2000/svg" width="1024" height="682"><path fill="#392a25" d="M0 0h1024v682H0z"/><g fill-opacity=".502"><path fill="#fff" d="M284.258 584.706l51.04-336.96 309.485-29.083 107.482 305.874"/><path fill="#fff" d="M697.464 316.43l-239.12-47.597L305.96 567.235 723.143 512.9"/><path fill="#ff3f00" d="M456.405 295.77l-234.78 312.99L319.2 174.103l425.68 76.02"/><path d="M928.03 713L457.496-31 1055-2.62 1024.282 713"/><path d="M107.413-31L-31 7.854 6.614 713 575.072-31"/><path fill="#fff" d="M429.64 308.022l253.713-8.057 31.282 204.18-370.203 60.085"/><path fill="#ef3d00" d="M444.53 158.97l287.097 108.333 14.008 303.17-56.238-222.477"/><path d="M677.263 577.397L1008.223-31 1055 713-31 674.553"/><path fill="#236d9f" d="M743.03 511.165l54.8 39.486-229.97 56.638-426.742-31.666"/><path fill="#ff6804" d="M234.848 292.513L644.6 183.363l-223.894 145.34L324.45 562.18"/><path fill="#fff" d="M560.86 259.063L325.265 444.947l122.012 129.896L724.504 427.26"/><path d="M.932-31l-11.18 744h228.766l110.92-744"/><path d="M1055 315.323L1021.775-31-31 6.908l353.404 139.02"/><path fill="#d3def0" d="M368.472 537.156l-237.136 64.39 98.34-44.328 107.69-20.913"/><path fill="#951307" d="M338.097 535.412l-104.215 22.993-27.016-184.725 73.4-121.957"/><path d="M688.667 511.72l-28.844 18.198L644.66 703.5l325.265 4.344"/><path fill="#fff" d="M732.764 545.968L502.896 280.81l-5.3 113.41 325.8 166.62"/><path d="M685.925 713L-31 694.428l20.77-55.434 303.06-66.673M1026.717 713l-1.08-727.06L533.13-31l293.89 546.242"/><path fill="#ff7c00" d="M747.923 381.012l-125.495-138.87-241.05.662 241.98 51.392"/><path fill="#ffd35e" d="M345.55 539.575l-20.186-97.547 43.81-150.784 19.794 166.798"/><path d="M1055 17.76L.978-31l-23.746 744 361.655-512.922"/><path fill="#af270a" d="M247.98 284.846l414.963-71.968-17.508-20.287-235.076-25.774"/><path fill="#fff" d="M720.316 492.95l-363.588-9.123 220.23-205.275 87.692 39.804"/><path fill="#ffc81d" d="M443.638 286.578l-118.376 93.085 79.29-126.04 213.422.36"/><path fill="#fff" d="M419.913 320.692L360.697 574.23l8.232-4.66 146.99-46.526"/><path fill="#0a2a46" d="M530.508 575.468l-271.372 17.93 403.246 66.386-56.424-141.427"/><path fill="#820c00" d="M713.84 350.835l3.07 156.767 57.49 10.978-33.147-222.566"/><path fill="#d90000" d="M567.21 259.62l-91.56 33.866-108.293 57.605 70.445-61.996"/><path fill="#ff2a00" d="M372.397 415.908l9.428 28.097 40.017-138.376-50.178 40.79"/><path fill="#fff" d="M537.67 274.247L427.6 313.857 373.44 566.72l343.602-175.988"/><path fill="#6f9399" d="M360.65 621.908l69.757-27.205 85.105-52.32-69.787 13.12"/><path fill="#ff892c" d="M723.943 375.083l-6.69 107.812-14.66-98.725-64.505-134.96"/><path fill="#4a0300" d="M481.265 123.945L287.49 233.202l386.038-68.17 85.383 165.167"/><path fill="#67c3ee" d="M520.284 531.314l21.74 6.592-45.82 59.952 97.405-77.73"/><path d="M202.64 566.056L-24.642 626.6l5.785-527.985L281.347 547.13"/><path fill="#00000e" d="M550.728 521.123l-103.65 66.23L246.382 713l239.98-124.433"/><path fill="#f7f9ff" d="M237.568 569.82l11.504-11.534 207.914-58.016-10.683 17.193"/><path fill="#4e515e" d="M841.328 572.092l-57.445 4.24-32.295-17.016-5.524-26.757"/><path fill="#d11100" d="M643.62 294.914l-87.357-16.405-117.787 9.856 131.86-19.986"/><path fill="#38a9e8" d="M442.713 553.673l-124.176 39.274 49.284-57.558-75.17 25.178"/><path fill="#faffff" d="M556.808 537.68l146.11-69.557-68.468 76.99-82.678-124.707"/><path fill="#f05a25" d="M501.446 208.8l116.823 10.313-306.466 76.82 107.216-78.1"/><path fill="#ffd531" d="M620.764 282.578l66.514 21.28-63.757-44.15-107.614 2.214"/><path fill="#3b0000" d="M386.528 145.668L170.815 330.44l34.666 247.114 47.05-244.526"/><path fill="#fff2a7" d="M369.884 538.032l-8.652-181.51-22.985 62.684 5.23 87.97"/><path fill="#fe6210" d="M270.09 449.51l97.6-209.52-46.18 271.767-11.24-66.2"/><path fill="#892f16" d="M261.22 354.333l-41.217 189.765 128.125-13.13-56.467-34.544"/><path d="M829.865 621.104l-108.215-89.64L579.954 713 1055 674.143"/><path d="M1048.148 713L753.122 518.603 760.006-31H1055"/><path fill="#0f2f5a" d="M361.846 556.45l-66.782 50.694-39.715 17.047 29.2-52.89"/><path fill="#28526f" d="M617.574 618.86l-18.648 37.91 10.13-136.524 75.41 79.678"/><path fill="#fff" d="M640.3 303.138l-79.39-26.648 156.435 256.615-8.342-127.688"/><path fill="#cd0000" d="M639.712 305.243l-43.526-23.667 40.298 4.08 50.636 46.37"/><path fill="#094a77" d="M466.642 559.716l-191.535 49.43 41.165-19.483 118.92-37.557"/><path fill="#3a9bdb" d="M581.15 523.415l95.084-7.163-17.547 11.422-22.987 29.82"/><path fill="#9e97a2" d="M513.01 502.562l113.463-15.328 34.712 10.712-139.896-6.905"/><path d="M201.365 713l148.127-94.957-110.585-39.318L-31 664.22"/><path fill="#fff" d="M692.58 335.53l-177.55-55.634-94.982 47.748-23.964 59.925"/><path fill="#d10000" d="M443.99 290.577l-19.673 13.018-56.507 52.01 136.573-83.442"/><path d="M806.62 580.703l-70.065-51.01 104.443 54.18L1027.7 713"/><path fill="#4b4747" d="M215.303 560.708L73.037 606.472l41.317 5.73 99.044-27.186"/><path fill="#ffd134" d="M410.306 305.187l93.948-42.87-112.356 28.787-70.417 121.543"/><path fill="#000a1b" d="M611.813 521.632l-28.28 173.117-202.29-48.843 175.687-47.852"/><path fill="#ab1f09" d="M610.11 241.46l46.514-27.63 109.942 248.262-96.852-169.465"/><path d="M-31 26.226L1055-31 789.836 216.508l-395.993-73.185"/><path fill="#cb2905" d="M262.813 428.806L393.486 230.94l-58.82 26.675-81.404 124.753"/><path fill="#b1eaf9" d="M562.716 520.702l-235.74 35.013 140.948-.586-76.073 44.99"/><path fill="#e9ebf1" d="M803.675 581.406l-54.91-28.315-7.62-32.134-139.327-72.2"/><path fill="#c3775f" d="M606.04 256.13l9.985-34.84-48.206-22.574 10.085 30.512"/><path fill="#ed2700" d="M366.814 363.242l.67 43.515 74.573-108.814-47.113 21.993"/><path fill="#fff" d="M667.894 320.98l53.402 170.884-93.073 37.802 26.427-48.915"/><path fill="#b5492c" d="M272.173 524.38l60.498-58.794-59.697-62.167-4.273 79.46"/><path fill="#020919" d="M740.108 548.878l-42.874-34.942-98.388 172.68 31.845 7.692"/><path fill="#2f5f7c" d="M484.09 585.086l62.73-61.62-33.75 91.413-46.353-3.806"/><path fill="#ffd178" d="M386.015 495.576l-13.27-40.87L407.21 347.9l-34.363 167.536"/><path fill="#50422f" d="M353.423 616.203l74.02-28.054-22.96 26.714-91.45 32.2"/><path fill="#892304" d="M425.2 184.978l133.53.15L351.623 235.3l-52.826 2.76"/><path fill="#fff" d="M650.604 512.157L598.67 285.442l95.72 65.957 17.062 165.83"/><path fill="#640400" d="M263.692 337.8l-14.01 196.398-30.207-209.906L328.67 214.786"/><path fill="#feffff" d="M377.788 566.87l67.384-100.938 124.63 54.947L406.35 555.8"/><path d="M-31 660.288l314.966-438.136 101.293-46.87L3.88-31"/><path fill="#ff890a" d="M329.35 326.54l-26.82 79.852 28.78 14.777 53.01-144.91"/><path fill="#ffbf44" d="M598.734 263.534l53.754 13.54 57.18 131.087-19.11-81.224"/><path fill="#183350" d="M650.283 521.45l18.27 88.49-53.835-23.047 89.188-49.37"/><path fill="#1e0000" d="M659.633 129.647l127.05 233.944-115.8-148.938-293.23-85.24"/><path fill="#340300" d="M757.128 544.995l1.356-17.13 37.16 2.583-55.222-263.37"/><path fill="#d9dbe5" d="M757.104 534.342l36.3 20.01-3.735-13.723-126.124-48.263"/><path fill="#fff" d="M492.194 285.328L437.48 326.37l150.496 203.18L558.23 277.39"/><path fill="#000005" d="M242.843 713h268.154L430.64 611.435l88.966-72.113"/><path fill="#ff9f74" d="M326.118 523.74l6.24-116.69 3.896 3.313 21.544 120.065"/><path fill="#68180b" d="M754.54 521.493l-30.346-12.255 2.9-216.626 32.702 185.19"/><path fill="#2a0100" d="M185.313 560.755L228.48 257.69l-.577 254.95 19.614 47.166"/><path fill="#ffaa0b" d="M537.672 258.523l-118.537 28.783 94-14.44 103.7.707"/><path fill="#fff" d="M550.752 278.344l56.205 11.206 73.107 40.826-150.076-26.603"/><path fill="#f23b0a" d="M699.388 361.11l22.285 72.673-2.343-69.57-52.55-88.84"/><path fill="#474149" d="M762.18 516.034l39.412 41.69 44.984 27.765 22.37 10.538"/><path fill="#6091ad" d="M622.32 566.247l-4.596 32.655-7.127-24.87 15.496-59.296"/><path fill="#683426" d="M257.12 463.983l-17.07 88.05-75.76 26.472 151.233-40.935"/><path fill="#4795cb" d="M275.448 566.314l123.625-.273-115.77 33.736 113.41-52.475"/><path fill="#887b87" d="M603.026 494.58l4.976-5.27 41.02 5.865-46.853 4.27"/><path fill="#132840" d="M431.362 569.644l-22.077 18.995-167.378 26.423 41.394-19.907"/><path d="M53.48-31L33.87 606.662l162.877-36.69-4.39-49.057"/><path fill="#306486" d="M586.692 595.124L536.38 580.46l70.714-65.85-104.358 72.81"/><path fill="#fd5e16" d="M379.143 473.83l-5.008-78.71-9.264-20.19 22.44-20.21"/><path d="M1055 679.5l-192.963-47.61-162.996-106.2-6.497 177.69"/><path fill="#ce1300" d="M690.06 342.22l-33.232-40.4-36.005-13.847 77.488 59.155"/><path fill="#fdffff" d="M639.847 530.07l24.973-34.022-37.874 2.3-103.26-4.868"/><path fill="#230000" d="M291.644 178.042l-61.44 82.684 204.016-84.66 6.99-40.38"/><path fill="#781c07" d="M580.582 196.076l156.39 136.062-61.53-110.238-47.958-7.62"/><path fill="#a89fa5" d="M209.418 565.8l47.847-1.307-49.557 15.355-11.962-6.913"/><path fill="#cd2400" d="M624.94 285.067l-65.613-12.903-101.363 10.676 103.902-3.818"/><path fill="#636b6b" d="M478.585 557.983l39.317-21.864-140.035 92.475 77.09-59.65"/><path fill="#1894c7" d="M428.55 549.835l-32.375 13.457 64.51-3.1 10.325-6.754"/><path fill="#901300" d="M240.93 358.09l17.126 126.587L292.53 317.2l41.92-88.707"/><path fill="#36393a" d="M770.73 568.723l125.733 74.436-74.014-49.71-69.633-61.713"/><path fill="#ffcf50" d="M375.69 319.86l15.348 5.728L453 273.465l-24.1-1.613"/><path fill="#0b2439" d="M559.612 561.395l-8.175 82.523 62.01-109.355-50.3 9.98"/><path fill="#05152b" d="M369.075 613.26L176.7 586.887l150.273-16.034-95.687 53.045"/><path fill="#791d05" d="M390.324 167.91l-90.618 111.766 126.15-70.67-27.527-24.75"/><path fill="#fb5615" d="M436.992 244.084l40.93-13.936 69.688 1.028 110.63 32.89"/><path fill="#fff" d="M385.306 428.027l277.39 24.605-75.773 52.584L428.47 318.52"/><path fill="#f9fefc" d="M465.466 572.78l75.497-66.672-179.135-2.602 127.664 54.76"/><path fill="#8ee5ff" d="M398.145 548.81l-30.666 25.52-.455-35.59-76.63 27.36"/><path fill="#f53201" d="M460.77 291.143l-93.738 71.03-4.233 44.24 9.686-35.482"/><path fill="#fffffe" d="M565.22 538.66l72.687-233.468 23.095 13.18L695.195 360"/><path fill="#ff7c1a" d="M453.15 237.137l-60.627 13.677-88.118 112.417L458.292 248.71"/><path d="M813.035 520.933L972.832 713 1055 107.28 657.42-31"/><path fill="#cbd7e6" d="M249.6 552.286l17.83 7.93 13.735 1.07 36.634-11.208"/><path fill="#fffffd" d="M387.29 423.37l35.236-101.677 75.338-37.154 170.29 40.05"/><path fill="#bebdc6" d="M566.733 488.863l-38.554-4.79-4.242 10.917 30.33 4.137"/><path fill="#386a9e" d="M649.948 549.972L606.7 563.007l91.284-50.014-45.82 8.132"/><path fill="#032540" d="M492.218 582.372l17.908-9.082-55.396 12.304 85.415-59.392"/><path fill="#ff5815" d="M324.227 447.092l16.74-106.953-40.46 77.57L313 440.734"/><path fill="#848996" d="M754.73 546.433l29.403 20.236-17.673 2.445-43.433-52.23"/><path fill="#5f9ec2" d="M509.613 568.86l35.85-34.993 4.524-27.46-17.175 69.102"/><path fill="#b80600" d="M432.414 295.585L492.49 277.9l19.228-.583-39.608 20.1"/><path fill="#ca573f" d="M305.927 523.633l-.25-65.64 12.505-8.78 15.695 72.193"/><path fill="#2f1600" d="M306.294 673.548l66.157-44.584-53.542 8.377-60.452 44.334"/><path fill="#fffefb" d="M713.726 430.954l-95.52 60.585-22.84-66.344 118.728 101.33"/><path fill="#fafefe" d="M360.576 568.662l160.736-93.386-21.343 77.26 90.626-61.48"/><path fill="#ffbc35" d="M672.505 294.87l11.152 20.834-94.163-49.9 25.35-.98"/><path fill="#721804" d="M561.215 208.21l72.727-6.442-146.037-33.195-31.728 27.352"/><path fill="#991d09" d="M747.146 394.946l-55.963-125.904 28.325 106.052-2.86 93.72"/><path fill="#ca2c09" d="M420.045 326.574l-7.204 23.52-16.173-8.786-6.973 22.85"/><path fill="#2b6e92" d="M446.996 568.994l29.02-21.39-71.95 25.04 165.84-14.07"/><path fill="#c92300" d="M298.207 451.946l-38.08-93.788 7.776-1.587 41.657 11.9"/><path fill="#c30000" d="M670.63 310.062l-39.517-20.005-26.465-7.49 62.32 36.83"/><path fill="#3e6d9d" d="M349.602 542.915l-100.357 42.553 43.385-25.908 8.8-4.612"/><path fill="#4b0c00" d="M608.638 174.23l120.074 92.808-149.823-79.67-189.364-3.224"/><path fill="#606570" d="M791.823 551.468l33.19 24.345 5.77-10.767-4.35-3.334"/><path fill="#fff4c3" d="M329.802 464.605l17.97 33.77 11.128-48.353 30.826 82.924"/><path fill="#ffc837" d="M384.502 330.84l-54.28 109.144 32.187-107.947 39.81-18.467"/><path d="M198.384 713l142.878-85.625-175.83-23.434L-31 651.295"/><path fill="#ce4616" d="M287.888 318.326l64.794-70.866 69.734-33.02-77.84 92.675"/><path fill="#27363c" d="M470.15 562.22l30.123-15.534-8.892 6.38-126.486 72.268"/><path fill="#9a3a24" d="M340.187 536.784l-65.75-83.78.067 41.644-23.788 27.282"/><path fill="#7dd9fd" d="M591.055 517.884l-7.12 13.95-35.43-3.824-7.044 27.963"/><path fill="#112a3e" d="M497.846 573.37l-83.872 28.815 172.332-2.07-144.163 30.49"/><path fill="#fdff97" d="M513.644 464.3l-7.913-8.32 7.167-5.51 7.815-7.395"/><path fill="#43201c" d="M764.45 537.25l33.818 57.722-58.687-91.79 14.98-73.975"/><path fill="#04101d" d="M655.05 676.775l-31.936-78.992-10.463 42.396-220.768-17.48"/><path fill="#590600" d="M223.84 521.303l26.137-48.017 7.448-140.512-33.12 80.8"/><path fill="#580000" d="M752.77 333.534l-8.173 57.977-20.345-34.194-11.353-66.772"/><path fill="#340100" d="M227.197 267.577l28.372 42.358 59.863-85.12L197.2 303.637"/><path fill="#ffa955" d="M711.187 377.096l3.958 70.722-7.262-14.742-5.786-69.278"/><path fill="#213140" d="M616.622 669.805l-12.394 8.865-16.798-62.744 13.063-47.276"/><path fill="#565459" d="M231.75 552.112l-42.335 29.847 129.044-26.967-200.43 48.96"/><path fill="#9b969e" d="M531.34 488.42l.887 3.276-24.353 18.323 25.188-26.763"/><path fill="#fff" d="M575.023 526.204l59.05-10.25-49.904-25.205-93.086 16.167"/><path fill="#df1300" d="M445.054 306.678l-37.23 5.303 5.885 35.79-10.825-9.066"/><path fill="#b93615" d="M466.466 202.693L571.91 225.56l-100.274 4.025 89.557-24.214"/><path fill="#f74c00" d="M517.852 270.165l12.244-14.41 54.654-6.996-57.534-15.064"/><path d="M540.415 703.527l-151.4-82.72L245.112 713l310.05-48.73"/><path fill="#80847d" d="M440.776 577.007l92.65-47.687-123.48 61.36-96.614 59.098"/><path fill="#fdfbfd" d="M327.84 539.795l-87.424 22.866 289.49-59.892-57.47-16.985"/><path fill="#77d3ff" d="M630.886 538.47l-21.726-18.703-20.983 3.11 64.77 1.098"/><path fill="#ed5017" d="M316.163 301.75l1.003 75.176-23.593-18.92L437.49 224.103"/><path fill="#ffa325" d="M686.338 339.456l9.093 6.633-35.79-64.394 21.086 63.642"/><path fill="#ed734e" d="M717.565 500.796l-4.257-63.457-.78-49.865 10.836 126.233"/><path fill="#a22f15" d="M698.596 294.325l-14.982-26.42-71.707-47.92 2.592 21.922"/><path fill="#5ed7fc" d="M342.805 575.767l75.147-18.182 30.076-11.196-19.448 2.087"/><path fill="#817a8b" d="M634.188 495.897l3.188.65 12.184-5.976-15.92-2.638"/><path fill="#771a02" d="M276.925 280.984l32.155-10.507 101.104-54.726-77.756 1.933"/><path fill="#ffe192" d="M340.535 435.333l36.413-17.854-9.39-9.625-21.59-1.152"/><path fill="#11548a" d="M590.662 531.432l19.592-8.003 16.828 24.285-54.463-11.37"/><path fill="#ffa816" d="M596.623 260.604l38.305 25.76-53.168-10.39-101.6-10.017"/><path fill="#fff" d="M564.832 278.825l-88.924 17.9 232.296 137.93-81.118-136.82"/><path fill="#384866" d="M314.05 578.055l-28.714 25.835 16.56-6.22 52.972-11.557"/><path fill="#fd5b11" d="M391.35 331.9l-31.032 68.105 36-10.682-19.49 43.284"/><path fill="#000002" d="M684.158 520.718L821.588 713l2.573-39.463-118.98-151.525"/><path fill="#050000" d="M773.214 381.977l3.954 145.585-70.92-33.55L1055 674.817"/><path fill="#1c486a" d="M651.88 572.428l17.395-25.362-1.943-25.075-18.948 8.64"/><path fill="#ffb765" d="M382.097 479.488l-4.218-48.304 18.733-49.732-7.49 39.09"/><path fill="#d95326" d="M480.69 234.003l-18.36-29.333-20.28 8.704 43.3-8.97"/><path fill="#ffa417" d="M349.323 344.933l3.89-40.61 39.843-26.163-60.058 142.667"/><path fill="#97959e" d="M271.415 555.237l-67.984 11.16 1.21 5.297-8.04 12.283"/><path fill="#f0eef4" d="M662.627 492.36l91.36 30.607-4.883 4.693-7.265-2.13"/><path fill="#120000" d="M179.112 574.675L159.017 369.84l30.612-39.49 6.796 241.135"/><path fill="#8b2408" d="M573.557 200.79l-140.23 6.8-110.604 19.12 118.38-43.725"/><path fill="#102331" d="M662.4 564.09l-27.843 4.587 20.626 48.33 41.994-20.883"/><path fill="#102538" d="M284.927 576.443l-79.116 17.42-64.924 11.368 100.232-29.635"/><path fill="#f7faf4" d="M398.463 350.42l17.962 55.787 121.833 82.954-74.877-11.763"/><path fill="#4d2011" d="M222.996 500.165l19.496 52.99 52.29-11.29-78.107-49.706"/><path fill="#fd7d36" d="M587.926 255.285l5.22-25.606 56.092 53.176.516-10.747"/><path fill="#fffffd" d="M694.298 513.11l12.373-113.654-41.304-78.11-70.213-35.843"/><path fill="#191912" d="M96.242 595.088l-32.83 1.853-15.97 25.923 76.878-9.07"/><path fill="#aecbd2" d="M390.5 604.137l139.425-84.29-79.185 50.737-18.055 13.023"/><path fill="#c50100" d="M537.86 272.5l-90.604 15.253-54.077 42.157 75.54-38.646"/><path fill="#ea3005" d="M385.143 396.776l-22.16-.588 13.542-6.335.37 38.707"/><path fill="#861f09" d="M298.32 511.313l14.446 26.43-34.66-23.533 28.904-36.932"/><path fill="#383024" d="M426.998 588.994L326.44 663.196l46.356-43.283-11.91.937"/><path fill="#c14d25" d="M283.506 392.053l-20.638 85.564 12.104-53.46 14.97 121.522"/><path fill="#0a0000" d="M717.095 149.517l-159.495-2.44-274.612 11.355 211.688-62.627"/><path fill="#b86249" d="M616.465 237.273l-59.268-20.057 21.255-15.86 25.38 12.907"/><path fill="#030f1e" d="M507.033 667.638l38.638-76.274-118.86 72.72 7.633-72.363"/><path fill="#1a0000" d="M731.353 304.26l56.322 149.832-51.264-222.19-40.91-42.243"/><path fill="#fff8d2" d="M411.57 497.183l-28.322 19.294-12.986-111.316-2.42 122.818"/><path fill="#500900" d="M426.644 174.334l168.695 1.935-188.01-8.642-109.298 77.208"/><path fill="#081e34" d="M563.652 607.872l30.058-36.093-32.858-12.543 36.61-31.303"/><path fill="#3e5e73" d="M619.826 548.755l47.305.426-57.52 15.035-4.7 96.44"/><path fill="#ffe261" d="M354.004 388.33l2.536 26.177 18.117-81.023-7.9 16.806"/><path fill="#b6320d" d="M268.977 325.016l22.864-24.638 50.112-45.626 23.616 14.21"/><path fill="#333b4a" d="M705.273 510.864l116.827 66.81-22.898-15.15 69.227 36.067"/><path fill="#f85e22" d="M287.48 404.173l50.22 55.63-20.54-70.462-30.404 22.383"/><path fill="#42464d" d="M837.934 613.19l-95.13-66.996-37.983-29.445 38.575 37.52"/><path fill="#766b77" d="M516.2 497.76l1.292-3.21 29.847-4.46 6.157-.937"/><path fill="#691a09" d="M752.893 405.11l-3.66 116.43-24.15-131.725 18.797-21.96"/><path fill="#dd3800" d="M475.698 274.59l84.226-1.403-42.612 10.26-35.503-8.286"/><path fill="#072139" d="M490.184 575.303l-35.843 34.843-29.445-5.274L543.64 524.94"/><path fill="#edf7f7" d="M517.145 488.055l55.316 19.04-147.865-43.41L564.398 476.5"/><path fill="#9ae5fa" d="M339.66 576.504l79.39-45.224-46.718 29.033 66.837-12.392"/><path fill="#b5becc" d="M711.664 507.774l88.008 52.48-23.982-28.15-34.962-2.565"/><path fill="#ffc642" d="M643.674 271.608l-36.85-2.498 60.293 37.176 12.927 13.412"/><path fill="#0b0000" d="M166.636 297.663l169.157-185.046-142.67 237.588 69.47-72.867"/><path fill="#ba361d" d="M327.286 458.95l-4.167-28.068 3.056 76.878 3.03 28.946"/><path fill="#000918" d="M331.685 600.293l29.826 14.915-32.1 17.026-123.846-6.696"/><path fill="#8d290f" d="M511.674 211.204l14.88-31.295 103.485 49.646-44.9-32.196"/><path fill="#d6320b" d="M724.61 372.283l-43.884-76.855 43.15 127.28 1.718 9.48"/><path fill="#ab4f40" d="M333.112 538.532l12.476-10.286L309 503.66l-9.556 15.066"/><path fill="#000102" d="M905.038 646.46L1055 706.425 833.71 581.53l-83.957-43.17"/><path fill="#2f7cb0" d="M606.24 520.504l-26.02 9.536-41.288 31.556-4.685 7.122"/><path d="M-31 679.176L193 713l66.81-126.97-41.847 7.516"/><path fill="#8c2914" d="M742.23 498.162l-4.935-1.748-13.418-117.444.13 120.81"/><path fill="#df8865" d="M606.385 230.398l-6.724 12.488-10.922-7.672 3.47-17.748"/><path fill="#fa2b03" d="M429.522 319.727l19.146-15.59-63.362 29.153-10.562 23.057"/><path fill="#112e44" d="M378.09 604.663l26.328-38.92-88.935 32.644 104.445-25.044"/><path fill="#324e65" d="M502.737 598.785l68.513-6.062 2.58-12.584-107.926 14.254"/><path fill="#fa5e00" d="M358.897 315.06l-85.192 95.28 55.13-62.557-11.732 69.747"/><path fill="#3b0400" d="M519.65 148.322l74.38 58.49-73.163-43.962-30.51 5.186"/><path fill="#8c7f8a" d="M607.37 492.895l-8.43 3.423 10.284.905 15.626.274"/><path fill="#ff9c20" d="M379.837 280.102l209.592-20.01-17.164-7.02-123.872 2.854"/><path fill="#c7f2fc" d="M388.754 526.817l-30.068 26.726 47.776-11.825-69.436 13.46"/><path fill="#fff" d="M367.582 503.948l69.34-173.53 8.425-22.15 83.91-26.968"/><path fill="#cd0f00" d="M656.52 301.027l-51.282-12.12-15.48-7.565-1.477-6.838"/><path fill="#de582b" d="M524.02 229.358l-41.607-20.35-6.42 23.083 25.4-27.586"/><path fill="#fffffc" d="M379.208 432.41l45.743-69.663-29.99 12.663 197.18 81.474"/><path fill="#442709" d="M279.923 672.64l-68.058 31.173 60.21-33.032 101.336-58.5"/><path d="M744.304 138.077l-467.37-56.332-282.66-83.98 582.865 4.3"/><path fill="#230402" d="M763.963 401.474l-7.053 63.29 2.37 63.51 29.77 8.32"/><path fill="#fdfffa" d="M562.974 395.268l19.267 95.065 46.074.13 86.91-35.86"/><path fill="#ff963d" d="M396.55 404.382l-18.846-17.553 19.636-.733 2.113-47.98"/><path fill="#f7652b" d="M391.82 257.636l39.997-16.748 95.766-11.493-121.024 33.65"/><path fill="#51b4e8" d="M330.404 547.207l10.183 12.868-47.736 4.898 26.987-11.154"/><path fill="#330f03" d="M201.536 564.817l18.156-6.345 16.48-51.66-38.782 12.827"/><path fill="#528bc3" d="M340.446 582.848l27.713-30.418 15.228-.324-54.976 23.674"/><path fill="#fff" d="M707.293 498.326l-150.145-.995-9.656-8.06-127.76 57.102"/><path fill="#758cc8" d="M669.26 524.328l15.543 5.314-26.477-12.597 42.518-6.15"/><path fill="#ffcc90" d="M361.868 497.063l-19.122-27.182-5.41-.416 10.138 60.768"/><path fill="#4791c4" d="M550.498 534.032l-14.637-8.145 17.665-.078-46.67 46.274"/><path fill="#852a0c" d="M419.817 183.307l-53.607 22.037L339.968 248l81.612-57.72"/><path fill="#030100" d="M189.654 603.78L209.02 713l200.897-114.658-151.498 95.38"/><path d="M623.558 639.874L614.815 713 1055 626.953l-451.306 27.38"/><path fill="#140000" d="M612.688 119.632L560.16 183.79l32.46 6.678-150.773-73.59"/><path fill="#fffffe" d="M393.612 461.136l26.917-134.394 28.09-18.74-41.704 54.133"/><path fill="#ff820d" d="M454.01 251.393l15.618-10.53 88.293 19.745-59.883 4.927"/><path fill="#f98060" d="M328.355 501.368l17.33 22.9 4.75 11.306-22.684-88.287"/><path fill="#720700" d="M256.518 316.023l36.185 7.947-54.99 66.874-2.695-57.444"/><path fill="#437a94" d="M621.888 552.814l-3.468-8.055 19.195-7.75 31.063 8.204"/><path fill="#fffffe" d="M669.753 514.03l35.646-2.085-14.52-159.272-65.206 117.367"/><path fill="#215e7f" d="M395.637 570.855l66.904-16.207-11.28 8.792-39.89 13.96"/><path fill="#902306" d="M314.335 286.437l4.825 4.82-.597-58.333-55.275 98.403"/><path fill="#13293e" d="M500.038 617.555l35.233-41.915 3.168 69.99 26.35-58.953"/><path fill="#c65f43" d="M292.54 481.686l31.88 10.38-10.197 7.852-16.207-29.957"/><path fill="#3b0300" d="M225.106 297.28l46.59-58.15 6.34 38.356 63.94-78.034"/><path fill="#be320a" d="M413.93 351.24l-1.88-.773-8.252-.044 11.567-17.343"/><path fill="#d4dce9" d="M359.843 537.624l-116.99 33.522 53.997-24.166 136.976-16.135"/><path fill="#fd9d55" d="M380.737 462.66l.483-46.642-4.74 28.743 14.97-9.237"/><path fill="#030e1c" d="M676.026 594.914l-65.563 44.062 113.35-45.926-62.428-49.088"/><path fill="#c5340c" d="M531.412 238.007l39.93-4.383-87.128-36.548 109.64 43.553"/><path fill="#02040e" d="M388.285 656.967l177.552-31.25-60.313-7.09 48.626 53.557"/><path fill="#ffb423" d="M398.118 314.337l65.602-35.27 142.962-22.126-152.45 11.67"/><path fill="#1e334c" d="M287.047 574.146l59.65-11.683-95.678 56.254 64.548-22.315"/><path fill="#fecb41" d="M363.967 345.254l45.182-52.592 69.664-24.76-14.494 1.918"/><path fill="#581001" d="M725.21 301.747l-41.418-70.89-54.618-1.15-18.75-31.536"/><path d="M183.407 571.096L107.243 420.4 50.347 594.065l95.78-10.124"/><path fill="#111827" d="M492.366 667.14l-25.21 44.036 38.006-46.628 16.557-37.368"/><path fill="#5b1b07" d="M233.927 461.893l22.475 8.945-2.037 48.846-30.633-16.82"/><path d="M322.456 188.676l73.444-29.232-426.9-27.32L626.666-31"/><path fill="#c0451d" d="M409.803 222.532l71.626-18.363-129.648 61.596-24.62-1.82"/><path fill="#fff" d="M430.896 494.893l143.548-214.638-61.06 3.954-95.917 46.948"/><path fill="#971d07" d="M701.34 327.027l48.582 103.842-46.526-148.494-43.05-7.726"/><path fill="#32516a" d="M489.925 593.123l-18.978 28.712 57.388-52.457 15.043 26.125"/><path d="M716.952 242.434l47.9 44.41 48.107 274.598L1055-28.448"/><path fill="#9d2309" d="M469.265 229.953L451.79 215.82l63.268-46.042-73.73 59.252"/><path fill="#8f3e2a" d="M300.143 543.094l-19.714-12.61-16.834-1.42 5.218-64.97"/><path fill="#b8f3ff" d="M456.378 564.95l63.422-29.98-109.746 15.71 59.978 1.65"/><path fill="#a71e00" d="M297.296 360.93l-46.537 5.23 25.148 60.985 2.837-32.44"/><path fill="#c1cae0" d="M689.536 512.273l28.552.303.408 17.12 22.44 6.174"/><path fill="#ff7827" d="M306.89 407.29l14.17-63.67-.59 71.455-4.74-11.89"/><path fill="#3e0000" d="M207.647 359.59l-20.308 80.535 51.55-113.9-7.668 152.32"/><path fill="#f7fafe" d="M730.512 516.954l-117.15-59.566 61.905 34.886 75.687 40.074"/><path fill="#6e7571" d="M472.373 568.308l-74.833 41.71-37.207 26.394 138.094-88.776"/><path fill="#223d51" d="M647.56 621.87l-26.22-59.67 30.015 3.372 10.484-38.478"/><path fill="#fffffa" d="M399.605 541.514L364.23 495.04l67.73 23.845-48.773-75.846"/><path fill="#2e7dba" d="M282.077 568.385l22.38-7.16-6.058-4.144 27.25 11.725"/><path fill="#3f3f3d" d="M118.772 591.278l16.956 15.704 89.157-29.48-85.225 18.438"/><path fill="#0a121c" d="M576.764 566.207L542.584 713l66.576-72.71-23.7 72.71"/><path fill="#e76834" d="M549.84 214.504l24.523 20.01-86.078 1.43 101.05-9.84"/><path fill="#6e2216" d="M284.828 549.323l15.996-34.97 15.08 22.16-48.607 6.048"/><path fill="#f6feea" d="M574.836 426.97l26.228-16.99 13.413 23.324-31.68 26.186"/><path fill="#f35415" d="M419.268 337.814l-8.463 14.446-45.46 26.178-3.095 23.077"/><path fill="#492929" d="M383.38 179.913l-.438-10.342-1.67-5.274 12.458 12.387"/><path fill="#fe721f" d="M686.655 313.828l-34.756-46.64 46.417 81.442-2.74 23.266"/><path fill="#2a2c33" d="M902.517 612.49l-30.173-19.16-83.838-39.414 67.772 39.294"/><path fill="#fdfffd" d="M383.637 454.217l79.052-39.403 48.707 116.76-50.76 18.235"/><path fill="#fff0b7" d="M703.85 388.503l-15.47-41.176 5.366 38.042-3.25-8.74"/><path fill="#440900" d="M386.966 153.588l126.392 2.066-80.89 7.728 132.743 46.83"/><path fill="#304053" d="M220.983 579.78l83.035-23.388-64.63 29.72-17.965-9.14"/><path fill="#d32f02" d="M323.24 327.5L284.557 392.6l-10.182-20.877 14.554 62.79"/><path fill="#9891a1" d="M554.412 498.7l-1.824-3.88-10.483-7.814 18.87 6.654"/><path fill="#652009" d="M650.824 212.415l-38.75-13.516-39.316-6.515 32.665-1.835"/><path fill="#4499d8" d="M663.984 516.355l-16.433 18.912-12.706 7.283 19.13-23.68"/><path fill="#4d120c" d="M732.8 512.126l9.602-42.995-2.51 25.48 23.458 27.377"/><path fill="#57a6e4" d="M618.672 517.274l-.498 6.48 24.114 22.443-38.508-23.71"/><path fill="#701000" d="M409.36 214.146l86.12-48.85-52.556 16.476 40.644 13.29"/><path fill="#a7bfc0" d="M345.12 500.72l105.855 81.095L511.27 542.9l-62.26 37.687"/><path fill="#ffa84b" d="M347.99 392.49l-16.983 71.467 5.07-87.114 4.276 12.998"/><path fill="#ffd089" d="M364.248 425.905l-35.33 7.736 47.56-28.447-13.654 107.983"/><path fill="#05121d" d="M382.412 621.97l63.122-34.597L443.584 713l-.614-85.845"/><path fill="#fff2b8" d="M357.65 526.88l-4.8-87.872 32.2 54.935-1.222-25.905"/><path fill="#140000" d="M353.107 204.58l-131.063 18.994L436.18 112.376 225.36 264.588"/><path fill="#ff8507" d="M414.14 283.74l-60.39 31.693-20.588 46.61 67.99-95.04"/><path fill="#fffefd" d="M569.137 521.52l30.722-233.293-133.08 10.063 38.747-14.98"/><path fill="#210200" d="M683.46 234.964l-36.723-73.606-18.604-7.032-26.348 12.805"/><path fill="#2b75af" d="M518.033 565l15.923-22.32 18.343-10.417-14.14-5.197"/><path fill="#ec410d" d="M385.147 421.29l-5.27-5.184-16.46-31.688 15.928 7.484"/><path fill="#fefefd" d="M645.77 309.664l-49.55-23.67-63.7-4.654-38.756 13.47"/><path fill="#f2f8f9" d="M545.366 483.997l13.955 27.918-91.776 49.447 89.253-63.072"/><path fill="#1d0000" d="M217.962 558.285l1.877-122.41-22.974 17.123L239.7 555.863"/><path fill="#b70c00" d="M451.006 290.98l-1.2 8.014 72.752-26.535-72.108 14.553"/><path fill="#b1becf" d="M734.32 534.88l-36.028-36.99 61.113 56.9-57.176-37.55"/><path fill="#d94d1f" d="M486.22 214.14l-7.303-11.273-38.426 44.648 22.67-7.633"/><path fill="#802408" d="M284.736 460.17l-38.683-28.96 12.894 43.838-32.92 16.22"/><path fill="#e71b00" d="M431.646 311.77l49.85-19.788 32.34-22.17-108.967 54.546"/><path fill="#071826" d="M652.013 610.94l-8.585 34.74-32.054-21.47 11.9-16.123"/><path fill="#6e90af" d="M336.828 544.67l-43.616 53.945 37.222-46.324 46.52-16.805"/><path fill="#7a1000" d="M730.316 368.013l18.438 24.07-1.727-32.583-44.548-23.207"/><path d="M517.658 81.216l151.376 76.825 172.733 32.36L338.327-31"/><path fill="#020000" d="M61.01 191.52l177.694 15.515 211.163-92.296L561.42 10.683"/><path fill="#0e111d" d="M802.89 590.478l-86.8-47.35-74.433 105.022 68.713-118.402"/><path fill="#feffff" d="M641.805 518.827l46.027-14.64-12.527-15.63-162.604 35.73"/><path fill="#d84e25" d="M668.133 275.033l-67.94-39.744 7.615 5.574 12.306 21.342"/><path fill="#b62908" d="M640.444 248.43l82.344 96.01-76.484-75.986 19.946 6.583"/><path fill="#d6eaf2" d="M485.106 478.17l56.536-3.184 10.003 5.576-53.843 2"/><path fill="#082038" d="M556.063 586.64l-4.153-23.746 26.732-7.83-13.643 2.05"/><path fill="#c63b0e" d="M290.738 414.526l40.2 56.874-65.114-42.377 28.087-56.337"/><path fill="#6eb7de" d="M452.948 565.827l-22.04 13.24-2.934-4.085 3.948-2.06"/><path fill="#ffac43" d="M402.037 348.824l.738 28.738-10.072 26.936-.758 4.27"/><path fill="#856968" d="M289.985 547.237l-24.064 1.452-4.37-2.53.84 6.236"/><path fill="#c8552f" d="M596.588 208.17l-114.135 6.257 98.985 4.56-58.575-11.643"/><path fill="#1a3e55" d="M459.265 618.84l79.925-84.678-22.467 15.987-52.863 54.738"/><path fill="#fcb518" d="M358.1 346.04l15.442 9.37-22.52 14.272-1.44-26.684"/><path fill="#fdfefd" d="M669.158 326.408l-25.14-18.518-149.054-20.44 197.784 74.716"/><path fill="#410300" d="M727.105 329.443l36.442 64.084-25.136-104.09-14.01 9.737"/><path fill="#446b9c" d="M319.534 582.14l.704 11.34 46.72-37.672-28.16 11.582"/><path fill="#283f69" d="M688.987 548.98l-19.272-33.75 7.84 2.945 13.667 17.723"/><path fill="#a02b0e" d="M501.32 164.484l63.068 65.245-45.073-8.42 39.533-6.598"/><path fill="#000613" d="M223.726 641.598l65.832-63.44-151.57 28.587 98.65-11.61"/><path fill="#363530" d="M870.687 621.01l3.477 13.68-76.916-58.984-24.555-8.29"/><path fill="#fec957" d="M404.837 310.334l9.267-9.922 9.746-15.26-43.473 26.04"/><path fill="#651a16" d="M720.83 510.46l-1.1-21.336 12.467 20.178 46.566-3.78"/><path fill="#d34a1a" d="M318.56 322.134l15.012-16.308 81.163-90.553-104.075 84.26"/><path fill="#6d0e00" d="M279.736 277.648l151.22-73.684-57.5 21.996-36.515 30.055"/><path fill="#b60c00" d="M654.88 301.016l15.95 13.873-12.625-3.914-44.48-28.42"/><path fill="#fffffb" d="M391.45 411.27l-6.6 104.127 35.953-184.626-20.07 56.34"/><path fill="#ff7f24" d="M374.726 290.057l44.6-27.77-74.927 40.322-24.186 41.262"/><path fill="#152b3c" d="M568.773 656.87l26.43-59.9 6.602 4.17 10.744-68.948"/><path fill="#f12000" d="M385.748 330.384L425.61 314.1l33.565-22.778-90.172 74.024"/><path fill="#091625" d="M508.417 548.822L484.72 564.9l15.374 2.838-75.78 30.85"/><path fill="#fea63a" d="M644.008 271.11l26.784 20.747-12.227-7.49-115.28-30.004"/><path fill="#f56f34" d="M320.795 439.23l2.51 1.076-16.87-23.636-2.81 19.064"/><path fill="#a00" d="M457.715 289.424l58.722-13.738-11.496-.81-50.176 22.184"/><path fill="#1f406f" d="M703.86 513.565l-48.247 16.888-6.28 4.572 10.624.688"/><path fill="#d21300" d="M619.437 291.258l-6.09-7.31-56.46-9.797 2.382 1.765"/><path fill="#c85229" d="M271.994 448.173l13.365 10.16 2.59-28.564-18.237-5.563"/><path fill="#1d0100" d="M405.283 164.205l-78.946-1.29 74.353 9.39 105.92-13.928"/><path fill="#ebedf5" d="M345.085 542.32l40.993-19.858-70.022 19.328-65.715 20.46"/><path fill="#e62403" d="M621.998 293.427l54.842 33.278-4.59-12.59-32.17-12.482"/><path fill="#4684a1" d="M573.144 536.21l-62.333 44.8 47.352-23.88-57.89 6.032"/><path fill="#92d9f4" d="M598.593 515.047l-38.377 25.988-22.62 14.28 7.066-7.668"/><path fill="#3d3d3a" d="M817.674 590.178l-46.335-21.646 39.113 6.88-7.944 13.395"/><path fill="#807d84" d="M240.276 560.098l17.62 10.496-10.4-14.013 6.948-6.53"/><path fill="#d05026" d="M479.17 218.27l-61.92 4.022-45.486 35.36 10.782-20.67"/><path fill="#f74804" d="M578.493 237.456l-6.725 16.38-15.687-2.268-52.547-1.008"/><path fill="#ffe4a4" d="M711.435 423.844l3.743 34.537-2.84 2.79-13.518-88.263"/><path fill="#060000" d="M807.972 558.96l180.562-30.005 18.438 95.026-214.715-94.41"/><path fill="#fffefe" d="M535.213 498.076L348.26 529.832l34.47 4.216 27.405 16.807"/><path fill="#00060e" d="M563.005 616.97l22.848-7.513L526.825 713l31.39-71.65"/><path fill="#8e2c0c" d="M352.245 238.1l-41.24 20.393 6.95-12.745 64.135-27.337"/><path fill="#e41c0a" d="M654.14 306.915l-48.918-25.624 5.432 9.02 42.057 19.868"/><path fill="#b22d08" d="M290.695 300.08l-6.48-3.884-2.447 34.062 88.7-87.028"/><path fill="#fee39a" d="M362.482 510.882l-4.1-64.695-3.934-38.657 11.533 6.785"/><path fill="#0f0000" d="M688.41 205.442l-95.728-30.344 111.822 7.16 55.686 111.068"/><path fill="#1f2430" d="M747.028 535.777l7.213 8.653 52.233 25.572-36.296-24.4"/><path fill="#8e240a" d="M608.754 243.374l65.57 6.642-44.76-31.98 54.427 50.685"/><path fill="#08050e" d="M681.045 533.472l38.47 16.275 60.616 29.38-78.64-49.532"/><path fill="#a1a4af" d="M255.988 563.54l-29.37-1.65 6.975 11.71 59.306-15.21"/><path fill="#ffcd81" d="M347.37 495.51l-2.64 8.986 5.12-110.972 3.276 79.292"/><path fill="#081627" d="M276.45 606.073l105.444-17.912-139.965 35.922 43.316-48.373"/><path fill="#ce5e44" d="M303.954 518.614l11.533 4.575-8.55-19.39 17.81-30.587"/><path fill="#b92704" d="M423.437 236.213l-38.868 10.4-6.818 3.16 34.06-16.038"/><path fill="#010000" d="M269.086 695.528l124.27-77.307 6.445-4.015 45.425 24.147"/><path fill="#5f0e01" d="M374.317 215.876l-113.11 56.08 65.33-49.418 23.933 11.47"/><path fill="#84d3f6" d="M357.094 544.974l-30.56 1.628-1.262 7.33-11.26 10.595"/><path fill="#ace8fd" d="M663.012 513.968l13.15-6.85-42.32 26.444-11.5-9.25"/><path fill="#f54f0a" d="M481.158 250.127l-46.464 2.11 81.322-9.716-38.55-5.73"/><path fill="#350400" d="M567.14 163.963l-33.865-7.03-28.61.764 70.828 11.798"/><path fill="#070915" d="M714.75 605.75l-2.65-84.284 10.95 18.256-50.092 50.507"/><path fill="#f6ae95" d="M713.565 459.436l1.952 19.332 1.747 37.22 1.533-47.093"/><path fill="#721e08" d="M589.973 202.544l18.02 3.444 32.08 8.432 19.234 15.78"/><path fill="#193146" d="M565.508 581.676l1.81 31.31-86.217-15.186 58.325 13.06"/><path fill="#3c0100" d="M322.642 209.525l125.614-33.15-68.698 6.383 23.672-12.244"/><path fill="#162536" d="M376.444 575.624l-21.033 46.01 61.894-43.902L316.86 610.65"/><path fill="#6d6167" d="M832.386 566.278l-116.428-61.106 75.415 38.74 34.926 31.14"/><path fill="#0e2030" d="M443.13 650.36l20.565-72.19-.97 10.072 2.678 40.868"/><path fill="#e52a00" d="M696.57 319.883l-12.23-6.2 30.493 70.137-9.486-11.148"/><path fill="#ff9b2f" d="M705.758 360.784l-35.722-34.05 11.755-1.5 16.436 37.135"/><path fill="#f9520d" d="M328.08 350.69l-24.814 44.887 31.28-85.403-31.042 64.338"/><path fill="#3e0800" d="M635.756 212.427l87.518 50.557-37.592-8.116-77.32-91.128"/><path fill="#30465c" d="M607.227 634.142l8.478-32.112-5.487-47.376-10.37 39.05"/><path fill="#141a24" d="M565.187 667.385l18.488-51.45-6.183 62.483-27.922-7.696"/><path fill="#fefefd" d="M647.532 308.842l-81.142-30.87 146.235 246.263-23.062-169.99"/><path fill="#b51c00" d="M300.38 402.906l-21.347-80.674-3.622 67.267 26.908-12.408"/><path d="M236.643 249.193l107.494-61.21L-24.35 335.558 12.03-31"/><path fill="#f69505" d="M468.857 278.04l-36.287 16.517 40.966-14.146 32.706-10.696"/><path fill="#1f1f1c" d="M96.326 606.985l37.047-4.3L-14.937 638l145.01-43.46"/><path fill="#395a73" d="M517.692 566.283l-7.32.774 10.2 27.59-34.514 4.11"/><path fill="#574b40" d="M349.79 623.57l-8.562 11.298 64.55-42.64-45.943 27.038"/><path fill="#f2662a" d="M356.45 285.678l108.204-58.654-76.37 30.206.968 3.74"/><path fill="#7b3122" d="M317.8 530.483l-6.944-20.195 25.057 25.097-127.4-35.366"/><path fill="#b5f3ff" d="M584.075 525.926l-36.973-1.63 3.035-4.138 10.813 18.49"/><path fill="#070000" d="M864.154 600.146l-38.846 18.452 86.107-63.116 69.122 1.096"/><path fill="#904938" d="M267.587 527.085l3.08-24.9 26.256 44.04 2.518-14.6"/><path fill="#280100" d="M553.412 183.566l-39.44-3.087 130.997-35.196-112.59 30.307"/><path fill="#fff" d="M565.92 425.867l-52.394 69.675 6.747-72.47 31.92 64.42"/><path fill="#031024" d="M585.985 581.778l10.38-28.9L566.2 585.38l1.51-3.79"/><path fill="#4f0800" d="M416.407 182.662l-30.674-3.592 66.01-12.4 78.952 3.743"/><path fill="#2d0000" d="M212.44 319.114l46.65-21.47-55.332 62.89 21.553 132.978"/><path fill="#919198" d="M177.47 585.845l18.014-7.19 64.43-18.874-70.997 24.546"/><path fill="#fb9d0b" d="M628.628 278.312l-154.014-10.52 116.43 1.373-17.86 7.503"/><path fill="#d80900" d="M412.003 311.42l-19.343 20.41 23.184-7.768 26.414-30.812"/><path fill="#67c3eb" d="M555.817 547.004l17.734-11.616 7.665-6.572-47.684 16.37"/><path fill="#f9fafa" d="M541.568 497.033l-14.625-.254 136.42-85.63-134.876 77.6"/><path fill="#b5f3ff" d="M398.897 549.7l-55.517 5.717-.598-8.09 60.202-2.612"/><path fill="#fdb022" d="M634.653 288.705l-26.044-19.058-52.015-14.656 34.792 19.69"/><path fill="#bc2c0b" d="M451.772 224.075l86.996 3.308-101.283 1.96 2.52-1.83"/><path fill="#000001" d="M668.067 615.54L659.26 713h234.495l-69.552-117.657"/><path fill="#fdfefd" d="M563.055 461.06L418.872 327.63l40.395-26.507-70.3 115.433"/><path fill="#4c0d04" d="M280.337 535.932l3.985 2.112-11.126 9.392-12.332-15.363"/><path d="M271.925 618.52l28.12-6.663-65.815 87.525-88.403-44.486"/><path fill="#625961" d="M755.28 540.603l13.66-15.212 23.876 19.906-19.555-14.325"/><path fill="#662c1c" d="M262.29 499.563l9.49 37.712-38.65 9.18 36.597-44.976"/><path fill="#95260a" d="M430.62 189.74l75.503 5.715-23.983 27.067 13.808-34.345"/><path fill="#a5abb7" d="M767.348 557.61l6.38 5.91-18.155-12.05-53.034-50.38"/><path fill="#e5623c" d="M344.89 503.404l-14.9-3.42-6.704-20.87-14.602 1.62"/><path fill="#080b15" d="M617.902 600.868l11.276 77.64 43.786-15.8-40.148-6.1"/><path fill="#210000" d="M680.188 185.4l-213.173-26.203-1.723 41.475-.606-35.732"/><path fill="#1b3244" d="M660.78 608.543l-45.366-18.166 15.01 25.042 32.64-67.19"/><path fill="#bf5039" d="M715.925 410.654l7.426 73.9-4.796 35.495 1.604-31.92"/><path fill="#0b1827" d="M319.177 599.54l60.36 8.253-66.3 9.46 41.94-30.82"/><path fill="#030207" d="M582.15 644.983l-13.69 59.468 19.733-50.253 11.12-4.938"/><path fill="#194360" d="M556.852 597.02l17.105-58.3-48.202 44.294 66.428-55.846"/><path fill="#c81800" d="M525.373 272.976l86.144 7.164-88.71-2.55-22.69 3.667"/><path fill="#6c717c" d="M746.85 538.353l26.855 14.625-80.905-52.614 128.075 92.296"/><path fill="#ffdf8e" d="M363.3 498.96l6.285 10.997-16.927.437-5.89-20.537"/><path fill="#4c7997" d="M607.578 581.417l7.85 11.003 8.935-56.147-10.852 38.347"/><path fill="#ca6341" d="M297.768 461.853l.477 26.518 10.468-23.695 32.63 26.536"/><path fill="#faffff" d="M500.713 511.733l-107.955 18.932-37.177 18.36 13.325 1.835"/><path fill="#fefefe" d="M710.982 441.77l-125.25 26.122 134.293 48.183-3.683-2.742"/><path fill="#aa2d0c" d="M452.69 201.352l52.367-.81 36.447 35.182-46.447-40.324"/><path fill="#519dc4" d="M474.07 554.518l-56.204 23.697 60.3-26.39-30.742-.563"/><path fill="#225776" d="M432.33 556.647l-35.552 14.52-12.873 21.81L407.74 560.2"/><path fill="#adb3c2" d="M318.343 529.322l30.452 28.984-29.87-26.272-.656 24.508"/><path fill="#fefefe" d="M599.32 504.793l-101.89-5.508 39.398 31.614 90.898-122.705"/><path fill="#a7482b" d="M253.246 473.906l9.206 7.91 31.05 14.23-10.114-23.264"/><path fill="#ac2903" d="M290.88 509.252l-3.57-50.376-1.255-19.49 4.996-6.336"/><path fill="#fd530c" d="M405.79 366.265l-12.692 9.55-9.324-39.36 3.647 27.56"/><path fill="#398ed5" d="M606.99 528.658l32.274 8.324-42.6-15.308-22.532 11.092"/><path fill="#f45419" d="M701.08 325.31l4.988 38.933 7.755 54.005-2.28-54.087"/><path fill="#620e01" d="M494.978 203.037l16.903-2.47-18.49-13.346 36.41-7.66"/><path fill="#aeabb6" d="M565.948 488.246l-22.875 9.998-34.12-.088 53.227-2.85"/><path fill="#ecb5a9" d="M337.618 520.528l-8.63-16.98 3.44 14.16 57.532 30.946"/><path fill="#d85b2f" d="M518.56 211.297l47.058 3.946 32.195 24.69-24.248-13.95"/><path fill="#fd9815" d="M608.584 271.05l66.98 40.455 9.888 12.06-14.91-11.037"/><path fill="#aa2d10" d="M326.205 458.004l-65.896 2.257 59.415.085 6.93 19.556"/><path fill="#091d30" d="M549.61 564.498l54.95 1.045-26.668 24.282 2.385-44.803"/><path fill="#1b2737" d="M541.108 664.868l15.993-43.29 4.925-2.738-16.125 43.33"/><path fill="#df511c" d="M337.567 258.775l81.074-14.215-37.23 23.186-19.538-.4"/><path d="M109.18 561.43l-137.154 98.698-.67-105.037 79.74 65.65"/><path fill="#fefdfc" d="M438.185 315.032l272.552 65.134-197.12-66.962 17.066-34.228"/><path fill="#97939a" d="M509.25 486.433l23.694 13.58-22.24-2.416 11.3-1.195"/><path fill="#030000" d="M109.186 446.478l87.048 128.467L93.71 543.322l104.81-10.27"/><path d="M1055 578.093L969.4-13.79 837.336 579.735l-33.986-89.248"/><path fill="#998d95" d="M643.405 491.86l-37.174-1.314 19.7 5.982 8.245-7.995"/><path fill="#d9521f" d="M708.716 388.423l9.288 22.915 8.604-.824-3.123-17.53"/><path fill="#3a4d55" d="M506.084 545.324l1.368-4.088-6.432 4.152-136.084 78.71"/><path fill="#0a0000" d="M357.428 123.57l14.685 61.564-35.442 16.122 113.21-89.04"/><path fill="#210000" d="M177.377 344.293l-8.065 59.818 74.77-75.065-14.4 15.525"/><path fill="#fdfff3" d="M364.986 504.914l35.6-43.07 41.544-37.076-75.99 64.35"/><path fill="#fecd83" d="M362.25 476.33l.417-51.99 2.988-5.808 6.18 36.15"/><path fill="#2b6078" d="M561.622 561.553l-40.69-12.99 5.484-.06-18.19 3.853"/><path fill="#e12900" d="M390.473 367.96l5.745 15.038-11.786-3.75-2.276-4.883"/><path fill="#edf0f4" d="M488.603 470.267l-85.418 47.29-172.74 54.524 146.23-40.28"/><path fill="#fefefc" d="M373.16 461.75l150.26 25.746-28.827 29.43 5.213-6.917"/><path fill="#fdce4b" d="M655.748 289.592l-34.586-20.788 15.222 19.95 31.47 13.8"/><path fill="#fdfffe" d="M490.443 528.175l-101.79-100.59 9.268 119.24-27.865 14.217"/><path fill="#f33200" d="M368.63 374.004l-6.706 29.465 18.432-51.98-14.11 20.762"/><path fill="#e7d0d4" d="M374.257 538.575l18.643-9.877-9.318 6.3-46.873-7.66"/><path fill="#2b5b79" d="M612.522 520.744l10.797 51.94 35.31-23.11-46.452 12.072"/><path fill="#974229" d="M599.66 202.128l-25.422 9.718 26.58 12.51-40.16-24.964"/><path fill="#fffffa" d="M409.553 521.527l-46.416 1.543 14.404-5.228-38.437 21.692"/><path fill="#351b11" d="M214.6 548.095l-18.553-43.017 7.914 50.084-11.383 25.015"/><path fill="#365174" d="M279.935 577.488l19.702-21.676-25.99 9.852-12.664 10.334"/><path fill="#fec478" d="M362.986 434.126l5.28-40.256 2.26 36.115-3.03 34.225"/><path fill="#210200" d="M407.825 138.257l-88.614 33.11 67.34-13.567-22.212-10.1"/><path fill="#aa0300" d="M648.473 300.143l-25.086-15.35 24.224 20.09 15.963 8.764"/><path fill="#83220d" d="M709.47 299.5l-9.348-29.426-16.023 12.06-19.998 5.934"/><path fill="#1c4b7d" d="M593.25 562.375l4.746-40.254 11.926 7.616-18.47-4.87"/><path fill="#651a0c" d="M745.026 521.238l1.664-1.52 1.088-118.023-18.13 19.906"/><path fill="#fcff8f" d="M516.198 452.4l-16.732-5.592 9.243 3.492 4.986 11.925"/><path fill="#292837" d="M276.36 600.346l29.593-25.047 1.868 10.613-17.72 10.775"/><path fill="#b93511" d="M727.378 370.646l-1.68-16.924-9.02 29.284 3.524 42.335"/><path fill="#eefbf3" d="M460.793 471.774l-9.075 22.424.596-38.89L491.538 469"/><path fill="#882104" d="M259.3 430.577l21.146 35.047-36.155-34.667-6.265 19.678"/><path fill="#43a1d7" d="M380.882 553.856l-78.497 7.136-4.265 7.504 64.674-11.542"/><path fill="#3b7fa5" d="M432.57 562.9l4.83 4.108h-17.207l-14.167-3.374"/><path fill="#70746d" d="M444.607 584.787l-50.8 29.303 42.736-33.368-55.025 26.346"/><path fill="#df592c" d="M534.93 228.484l-26.572-13.662-10.237-7.674 5.733 13.872"/><path fill="#fe850c" d="M351.312 361.485l-5.656 19.07-16.41 28.124 5.832-49.092"/><path fill="#5b1001" d="M552.168 202.51l-16.137-31.07 86.6 37.872-55.145-13.424"/><path fill="#494647" d="M130.61 595.606l69.623-21.248-46.905 6.398 16.104 19.356"/><path fill="#7f230b" d="M537.963 195.75l13.95-12.164-31.25-1.718 61.343 30.193"/><path fill="#3a3c42" d="M809.102 558.235l48.856 29.878-64.766-40.17 49.156 18.72"/><path fill="#f76f30" d="M561.607 230.965l-29.188 3.73-11.924 4.365-23.16-6.572"/><path fill="#514e58" d="M516.016 503.15l.524 1.154-1.105-3.233 14.205-10.67"/><path fill="#fefefe" d="M488.58 481.633l25.574 52.873 41.063-37.655 17.332 33.496"/><path fill="#86230e" d="M739.092 422.306l-8.955 10.684-12.86.384 9.555 44.045"/><path fill="#241204" d="M194.403 710.475l94.755-25.338 110.076-81.013-115.2 75.154"/><path fill="#8d2705" d="M251.1 472.864l23.39-50.463-17.24-7.26-4.11 52.5"/><path fill="#fea929" d="M588.923 253.296l-42.68 3.848-24.27 13.073 37.56-2.578"/><path fill="#635c68" d="M526.41 494.175l-.7-.497 4.034 7.11-17.992-5.28"/><path fill="#fcfefe" d="M439.57 521.038l-64.237 44.32 141.126-71.964 3.025 41.592"/><path fill="#fa5e1a" d="M366.25 295.082l-14.53-10.468 92.478-43.647L332.45 309.71"/><path fill="#b03108" d="M375.622 245.92l-26.835 17.832 6.33-17.01 5.238-5.072"/><path fill="#fefdfd" d="M489.07 527.265l-130.28-12.87 213.753-19.09 13.043 24.244"/><path fill="#3e140b" d="M753.84 421.38l20.503 38.236-8.798-41.21-19.404 90.66"/><path fill="#1f2430" d="M600.14 636.245l-12.21-6.773 19.586 42.255 11.295-5.205"/><path fill="#070000" d="M200.182 351.976l-63.475-54.588 118.202-3.782-45.035 20.26"/><path fill="#631200" d="M428.904 175.484l-55.295 7.337 49.295-16.01 89.074 43.485"/><path fill="#fde383" d="M352.2 393.69l8.578-3.068 2.56-24.15-1.832-.093"/><path fill="#2397d4" d="M387.853 569.39l-38.16 9.45 69.867-25.947-.53 3.35"/><path fill="#bc2406" d="M700.493 329.238l1.385 26.86-16.762-63.912L697.46 307.2"/><path fill="#fe9423" d="M327.483 333.916l47.647-49.46 94.176-25.57L385.96 287.4"/><path fill="#440300" d="M268.957 306.462l34.132-64.466-7.96 5.46-75.94 79.146"/><path fill="#fdc737" d="M391.782 302.844l-42.318 53.71 26.323-12.022 27.248-35.825"/><path fill="#1e0201" d="M761.707 402.333l-1.443 126.744 39.952 3.785-32.93-14.797"/><path fill="#6a0d03" d="M702.927 314.836l-28.406-37.983 37.905 43.303 51.233 15.83"/><path fill="#385d77" d="M557.624 580.537l-44.98 10.005-2.888-13.667 44.3 15.015"/><path fill="#b50800" d="M659.035 312.588l-8.64-4.13-5.474-7.748 18.053 4.067"/><path fill="#feffff" d="M678.293 479.092l-174.83 7.717 60.218-10.128-1.703 19.372"/><path fill="#fff3c6" d="M365.16 532.88l12.705-33.508-32.705 25.6 26.662-3.835"/><path fill="#6fb0cc" d="M509.444 584.66l51.06-56.41-13.11 19.186-28.13 27.043"/><path fill="#bd5b3f" d="M600.33 212.65l18.19 14.083-8.238 26.245-2.868-36.502"/><path fill="#fe7f22" d="M307.383 415.115l10.403-19.192 19.73-68.446-32.168 75.243"/><path fill="#1c0000" d="M212.366 282.372l19.527 18.566 15.13-31.862-5.132-19.3"/><path fill="#922e17" d="M265.934 497.465l41.42 3.674-17.562 36.045L279 480.267"/><path fill="#c2f3f8" d="M481.286 538.548l26.752-1.833-74.502 6.682-91.747 24.47"/><path fill="#b4280d" d="M327.345 459.718l-.17 4.54-2.405 14.438-1.403-31.693"/><path fill="#132536" d="M494.483 587.83l-61.987 7.404-30.178 15.903 27.286-6.78"/><path fill="#de1c00" d="M414.256 331.395l25.837-37.994-50.047 72.127 1.96-20.845"/><path fill="#ff6818" d="M390.65 349.223l-14.435 38.148-6.518 7.6 8.48-31.567"/><path fill="#f83b02" d="M397.184 370.132l.864-45.896-5.66 59.1 2.628 9.516"/><path fill="#fdebb4" d="M355.557 493.498l-1.306-64.38 9.214 4.786 1.218 9"/><path fill="#ffab34" d="M379.032 306.92l58.427-40.598-22.138 11.938 60.328-14.818"/><path fill="#fb540b" d="M308.913 412.285l15.768 23.046 1.698 4.175 2.872-48.097"/><path fill="#0e0000" d="M429.56 165.603l17.207-60.128 46.946 48.083-87.08 6.487"/><path fill="#0d355d" d="M659.764 524.214l3.728 3.497 30.845 4.72-42.11 4.214"/><path d="M527.493 125.516l-139.745-2.49-53.63 23.23 125.863-16.98"/><path fill="#cfd9e5" d="M749.2 527.357l33.725 14.75-62.005-22.01-53.76-13.586"/><path fill="#133751" d="M406.722 578.933l55.858-25.428-4.327 4.323-137.49 59.556"/><path fill="#030407" d="M753.01 542.612l168.932 107.514-108.582-79.88 5.085 4.768"/><path fill="#0e2239" d="M521.113 599.502l12.355-21.74-.695 39.968 20.666 34.037"/><path fill="#ed763d" d="M484.736 217.055l22.464-.613-94.592 130.042L512.366 208.9"/><path fill="#fefef9" d="M701.093 387.686l-52.57-70.174L716.85 500.69l2.45 20.554"/><path fill="#7d7478" d="M246.033 557.667l-37.338 6.088 13.996 8.45-32.33 7.767"/><path fill="#fc8200" d="M519.32 275.443l5.548-11.91-6.008-12.072-9.365 21.967"/><path fill="#100" d="M197.66 511.093l-15.817 12.78-9.968-125.832 17.815-9.403"/><path fill="#c22d04" d="M301.845 305.642l20.76 1.645-46.573 46.025 21.686 7.48"/><path fill="#05213b" d="M513.224 543.962l-68.34 47.782 53.418-36.816 45.93-20.14"/><path fill="#75c8f4" d="M570.274 537.748l-21.676-7.57-.077 11.99 56.366-23.97"/><path fill="#ff771a" d="M592.07 258.95l59.27 14.89-38.44-20.563-69.374-1.628"/><path fill="#a4e5f7" d="M498.593 541.777l4.55-8.02-38.298 19.837 12.858-4.042"/><path fill="#2c527b" d="M350.707 561.432l-7.22.473-33.238 9.125 12.614 9.042"/><path fill="#b33f1b" d="M464.916 215.107l-47.942 2.77-31.31 15.432 29.466-5.582"/><path fill="#aa3417" d="M717.156 311.115l-65.23-56.175-64.55-30.426 41.375 20.432"/><path fill="#010205" d="M543.546 668.002l-29.11-25.385L483.376 713l114.016-9.043"/><path fill="#3d3b35" d="M330.965 652.263l129.187-81.99-46.33 24.49-47.46 37.388"/><path fill="#21415c" d="M613.477 531.218l1.578 58.04-18.177-54.88-19.547 32.14"/><path fill="#690700" d="M257.456 326.544l-2.756 108.6-1.55 28.692-21.555-89.126"/><path fill="#e24f18" d="M364.797 289.657l-57.283 39.77L325.156 295l7.42.734"/><path fill="#fdad23" d="M578.692 274.61l87.916 9.63-130.885-16.698-10.736-16.39"/><path fill="#cfddea" d="M733.35 529.71l-12.947-4.527-29.485-23.142 33.41 31.7"/><path fill="#a02a0b" d="M539.727 178.155l-5.276 29.198-35.53-2.552 32.45-9.103"/><path fill="#3d444c" d="M405.145 588.574l-9.69 7.158-32.795 23.48 18.81-18.14"/><path fill="#f9bb79" d="M381.498 423.966L384.73 462l4.393-43.258-73.762 48.313"/><path fill="#2b4257" d="M465.524 598.54l42.07 12.946-17.47-16.398 24.503-23.704"/><path fill="#162e40" d="M555.49 604.114l32.41-22.23 17.075-2.195.483 9.6"/><path fill="#375a76" d="M555.392 585.255l-17.397 10.266L556.5 573.03l-11.47 2.458"/><path fill="#a7b4c0" d="M747.07 550.978l13.314 1.504-33.81-20.165 10.314-2.144"/><path fill="#547490" d="M617.19 567.334l3.61 8.9 1.287 6.312-13.012 4.935"/><path fill="#020000" d="M572.668 147.547l23.79 3.798-49.898 5.474 52.91 13.765"/><path fill="#ccdde7" d="M502.037 482.638l-.515-6.69 11.182-3.526 2.066 7.105"/><path fill="#ef703d" d="M315.398 417.78l2.724 38.186 30.276-.224-25.473-.15"/><path fill="#a32b0c" d="M295.726 483.648l-.31-38.347 17.617 6.834-13.88 2.223"/><path fill="#afa9b6" d="M560.634 492.264l-50.844 1.205 37.893-2.473-5.9-6.555"/><path fill="#fefefe" d="M678.187 520.292L564.405 279.804l55.377 15.014 57.86 45.706"/><path fill="#fa702a" d="M481.287 241.675l-80.134 25.08-18.436-21.248 41.02 9.707"/><path fill="#fb7d06" d="M533.118 266.305l-35.565-23.94 114.484 41.233-84.054-32.14"/><path fill="#c31b00" d="M291.23 418.972l8.33-22.764 5.505-34.76-11.305 32.52"/><path fill="#4b0100" d="M233.416 462.485l3.88-29.432 11.794-11.99-35.056-48.78"/><path fill="#8c0f00" d="M293.622 318.312l-43.964 81.62 4.292-25.824 16.18-41.33"/><path fill="#6e1604" d="M668.644 237.817l16.026 15.194-26.755 18.5 16.53-.534"/><path fill="#f9f4f4" d="M554.477 495.537l-2.994-5.38 5.813-11.7-13.38 15.885"/><path fill="#0d1219" d="M364.63 603.333l14.234-6.61-16.35 16.408-54.04 34.318"/><path fill="#282b2d" d="M266.6 570.44l-64.087 11.242-36.407 17.846-52.167 11.923"/><path fill="#f12f05" d="M384.9 344.363l11.814-20.212 16.323 27.3-2.625 3.713"/><path fill="#8e2204" d="M379.587 212.512l47.314 2.73 8.906-24.48 24.723 7.612"/><path fill="#284e66" d="M540.407 581.906l-38.355 21.776 54.902-37.47-72.066 16.128"/><path fill="#000003" d="M516.98 670.724L468.09 713l31.19-76.75L421.23 713"/><path fill="#000b18" d="M575.408 619.347l15.656 7.363 1.785-19.675-27.677 35.415"/><path fill="#fefdfd" d="M430.183 323.308l83.2 99.112-113.498-36.288 7.37-24.783"/><path fill="#b54f34" d="M279.562 473.98l5.302 35.23 3.18-34.188-4.554-4.556"/><path fill="#c53b0f" d="M324.392 293.428l-42.275 47.316 35.606-55.865 47.58-1.75"/><path fill="#fd5402" d="M327.853 358.823l16.487-6.954-11.012 11.29-17.568 57.278"/><path fill="#191208" d="M908.283 641.205l-48.28-7.72-81.57-58.54 91.307 55.003"/><path fill="#dc4415" d="M568.13 240.1l-48.25.86 61.754-12.077L552 222.158"/><path fill="#fbfafa" d="M503.39 526.24l38.64-47.066-30.796 45.82 6.864-40.79"/><path fill="#ef4813" d="M501.38 281.487l-5.713 4.21 35.43-9.864 34.788 1.698"/><path fill="#621907" d="M240.427 458.76l19.677 63.35-28.867-30.83.177-38.963"/><path fill="#040000" d="M545.203 130.205l58.022-132.31-68.028 155.013-36.595-12.41"/><path fill="#2d0100" d="M755.535 413.456l-23.19-167.13 33.15 157.266 1.077 43.367"/><path fill="#290602" d="M389.48 170.14l18.767-32.087-4.77 37.895-11.608-.608"/><path fill="#f34c12" d="M308.335 330.126l3.61 91.37 22.142 11.65-28.117-36.708"/><path fill="#02030b" d="M682.64 522.844l43.99 40.607L650.104 713l65.59-178.043"/><path fill="#2d0100" d="M351.992 157.093l89.11 25.546 5.49-1.96-6.405 4.87"/><path fill="#67210e" d="M611.354 216.67l-4.05-25.24 20.563 8.577-41.724 5.653"/><path fill="#e15e2f" d="M474.888 212.744l-2.933-7.27 13.503 7.29-17.735 9.937"/><path fill="#fff" d="M385.626 451.164l-2.798 12.744 81.165.975-25.982-72.292"/><path fill="#fddb89" d="M356.838 401.084l5.274 13.97-6.356 24.205-21.905 7.354"/><path fill="#342221" d="M216.545 556.26l29.788 5.53-11.77-5.946-41.276 7.88"/><path fill="#fd862a" d="M326.323 363.88l-5.447 4.46-4.028 43.977-4.566-29.954"/><path fill="#69d3f5" d="M458.424 540.816l-107.245 32.87.207 2.016 34.503-9.834"/><path fill="#b81f00" d="M619.467 283.917l-37.096-4.06-20.43-2.787 13.51-1.642"/><path fill="#622e26" d="M749.052 489.772l1.728-72.995-1.062 14.506 4.172 103.33"/><path fill="#d54f1f" d="M284.738 408.317l-3.798 24.828 10.715-1.446-16.74-14.756"/><path fill="#9b4436" d="M732.083 495.272l-19.088 11 5.97-9.315 19.204-15.176"/><path fill="#5e93d4" d="M682.834 524.318l-38.268-3.183 18.166-5.322-.496-.583"/><path fill="#ce7456" d="M613.414 226.302l.624 13.747-9.79-2.557-18.423-20.97"/><path fill="#0e1f2d" d="M627.854 644.755l29.122-1.716-39.236-32.11 10.18-28.703"/><path fill="#ffbd20" d="M462.01 282.055l-20.885 3.598-38.074 30.683L415 299.442"/><path fill="#fefefc" d="M500.346 299.587l-51.992 6.682-34.57 41.26-27.122 79.397"/><path fill="#cb3f11" d="M397.963 251.637l28.507-23.983 14.866 9.13-138.31 43.038"/><path fill="#150000" d="M310.97 226.668l-80.64 2.845 63.553-45.62-17.69 70.758"/><path fill="#ebeff5" d="M602.845 436.445L749.867 534.7l4.322-8.978-48.074-19.727"/><path fill="#2c0000" d="M201.85 356.575l19.835 57.337-13.1 40.512-18.923-37.256"/><path fill="#ff9a49" d="M699.363 357.625l3.558 36.332 13.314 22.326-4.84-17.58"/><path fill="#100000" d="M765.14 393.165L735.473 238.19l34.583 107.036 25.87 203.03"/><path fill="#c2ced6" d="M785.777 545.643l-8.127 3.456-.972-5.918-6.157-8.967"/><path fill="#9d432b" d="M301.927 479.61l-48.055 55.922 15.057-27.746 55.396-39.512"/><path fill="#1f2d3d" d="M485.185 526.318l24.065 121.435-35.304 47.79 36.47-42.158"/><path fill="#444648" d="M832.126 599.837l-50.786-33.763-13.33-3.377 18.897 13.65"/><path fill="#0c2033" d="M586.07 533.685l23.426 21.19-27.884 61.877 11.868-72.337"/><path fill="#130909" d="M762.373 506.862L810.25 260.07 766.66 480.397l-10.25 83.998"/><path fill="#fefefe" d="M665.715 326.826l24.58 192.27-72.04-136.857 90.217 49.75"/><path fill="#555b68" d="M810.233 566.98l15.122-8.33 4.532 19.005-49.562-31.578"/><path fill="#d15e3f" d="M331.658 482.808l-29.932 30.09 8.966 13.555-2.967-39.333"/><path fill="#da5123" d="M458.193 213.618l-45.41 30.103 14.504-18.962 36.16-4.824"/><path fill="#5c0900" d="M703.962 291.102l44.026 52.443-2.8-14.742-7.317 25.807"/><path fill="#9a3518" d="M377.84 223.013l-15.61 10.08-12.58 2.593 8.983-6.45"/><path fill="#7e1d03" d="M285.407 267.252l40.513-40.656-14.507 64.2-19.745-30.193"/><path fill="#fffffd" d="M522.21 480.412l-119.013-121.7 40.265 22.842-56.91 35.318"/><path fill="#b4b6c0" d="M232.68 574.968l19.015-12.037 40.403-7.672-72.437 12.054"/><path fill="#da3c09" d="M300.664 345.726l40.295-41.222-52.583 84.655 14.676-40.38"/><path fill="#000c1c" d="M547.236 616.828l15.815-7.49-50.743 3.693 25.208 18.94"/><path fill="#fb8b43" d="M377.19 430.174l4.84-19.663-2.62 13.537 3.583 57.865"/><path fill="#ea3f12" d="M382.59 396.76l.388 22.24-.434-.554-21.062-27.13"/><path fill="#23211d" d="M72.64 598.343l80.947-16.754-90.544 35.023 80.93-8.192"/><path fill="#111b30" d="M703.157 544.95l7.092 13.823-51.112-4.36 19.396-13"/><path fill="#faa05b" d="M387.884 515.965l-5.573-.28-5.225-159.614 5.21 165.825"/><path fill="#190200" d="M592.49 136.863l-38.634 17.326-19.13-34.545 67.93 5.05"/><path fill="#fdc241" d="M661.122 290.197l22.776 35.77-29.086-30.863-40.456-27.26"/><path fill="#8d3d2b" d="M322.603 514.263l19.98 21.486-111.327-29.42 102.993 27.976"/><path fill="#f55114" d="M693.828 336.752l23.656 34.508-16.06-12.71 14.782 46.348"/><path fill="#0d243a" d="M358.79 581.68l55.642.902-24.086 11.675 1.78-10.618"/><path fill="#c7d9e6" d="M744.58 534.658l-18.078-2.957-21.07-20.86 37.45 30.537"/><path fill="#f9fbfc" d="M560.93 403.002l149.99 116.65 14.45 7.245-36.95-31.066"/><path fill="#371c01" d="M355.872 623.325l1.09 3.21-96.144 53-19.19 17.536"/><path fill="#fdd05d" d="M406.113 303.844l.493-.453-20.46 3.568 49.02-22.06"/><path fill="#f14d08" d="M523.396 251.477l-16.768-12.898-51.166.18 17.46.806"/><path fill="#7b8b8e" d="M439.11 572.652l-24.676 29.796 32.897-20.246-28.11 12.852"/><path fill="#fc7e0e" d="M380.728 287.365l-72.576 73.497 82.12-75.363 6.21-3.215"/><path fill="#7e270a" d="M409.428 186.71l-83.72 40.91 124.625-37.938-22.08-7.054"/><path fill="#262b35" d="M812.832 584.62l-67.71-48.49 95.402 48.303-95.89-52.785"/><path fill="#060000" d="M1008.858 589.993L794.62 507.627l-.562 36.877 56.95 17.455"/><path fill="#3b4a65" d="M303.378 590.385l33.065-.327-16.583-8.825 7.195-11.43"/><path fill="#000105" d="M197.61 607.09l8.32 49.22 53.76-71.952-190.815 41.004"/><path fill="#e9561f" d="M567.913 243.076l77.407 15.568 3.747 14.05-76.977-37.374"/><path fill="#22374b" d="M413.545 571.94l-61.432 19.127 20.01 8.333 31.073-26.6"/><path fill="#6f0d00" d="M372.887 230.75l105.265-40.264-77.376 25.216.772-2.484"/><path fill="#330500" d="M693.81 219.14l-34.933-29.71 79.486 93.48-62.412-51.064"/><path fill="#fd9c57" d="M377.456 426.044l6.968 20.647 6.27-2.983-14.24-3.277"/><path fill="#370900" d="M664.39 227.114l-71.455-61.34 11.534 7.817 33.345 17.216"/><path fill="#801900" d="M255.217 336.24l-3.21-19.67 35.84 28.416-7.5-6.51"/><path fill="#fefdfd" d="M424.05 395.243l-29.426-18.384 201.23 50.878-157.642-81.505"/><path fill="#fcfefe" d="M645.788 520.28l62.985-88.45 2 75.352-89.528 15.346"/><path fill="#2a0400" d="M282.2 208.083l73.7 12.504-89.17-14.48 41.83-17.932"/><path fill="#541813" d="M763.84 492.862l-46.722 17.25 32.394 1.63-8.788 3.014"/><path fill="#1a4673" d="M648.143 529.102l14.995 1.324 40.715 1.37-48.76-7.09"/><path fill="#050000" d="M160.17 541.366l26.846-159.263.278 53.263-54.58-130.827"/><path fill="#ff893f" d="M702.72 363.596l12.31 49.207-1.13 19.623-5.697-27.555"/><path fill="#9c3014" d="M294.613 526.506l.194-70.672-6.992 24.138 19.722 4.14"/><path fill="#03040a" d="M569.83 651.646l3.964.778-14.458 26.277 10.81-43.614"/><path d="M701.002 703.166l235.74-3.035L737.9 550.995l-16.915 6.5"/><path fill="#871d05" d="M619.38 241.726l40.713 26.24-65.317-85.816 61.767 79.56"/><path fill="#ffb47b" d="M336.506 490.046l4.9-38.286-12.517 32.01 41.98 15.176"/><path fill="#4c0702" d="M248.428 281.326l21.77-24.35 4.586 96.273-3.9-113.578"/><path fill="#253a51" d="M658.543 576.23l-8.72-17.23 41.044-19.82-32.89 5.75"/><path fill="#071828" d="M570.857 574.784l4.32-12.203 7.017-3.98-62.096 108.35"/><path fill="#eafffd" d="M408.595 550.698l74.477-10.48 36.745-6.103-77.572 4.7"/><path fill="#171b2d" d="M292.527 607.044l4.443-35.644-33.912 17.825 32.41 7.48"/><path fill="#ffd09e" d="M341.557 513.13l14.787-9.205 8.394 17.936-9.378 7.848"/><path fill="#fd6f17" d="M314.227 398.19l24.678-4.627-20.05 26.28 18.987 6.28"/><path fill="#3b708e" d="M550.978 560.78l-30.136 18.912-4.58-1.793 49.56-35.345"/><path fill="#d55634" d="M313.712 472.532l20.22 29.306-10.08 21.738-1.378-87.982"/><path fill="#480300" d="M458.558 181.87l31.328 6.097 72.288-14.16-66.17 8.367"/><path fill="#fefefd" d="M381.888 385.487l65.883 75.905 210.792-129.447-252.508 85.32"/><path fill="#fdd98d" d="M378.373 470.124l9.9 26.127-52.52-115.442 45.678 93.055"/><path fill="#230200" d="M597.43 161.767l82.86 21.11-19.64-17.762-41.242-6.117"/><path fill="#cbd8db" d="M458.624 576.406l59.214-40.15 104.685-197.94-108.39 204.815"/><path fill="#f56e2c" d="M377.34 469.94l19.28-147.733-16.285 126.23 2.09 7.677"/><path fill="#300400" d="M230.608 533.628l-18.62 19.25 18.91-126.704-12.768 34.85"/><path fill="#90919a" d="M768.68 555.225l8.034 14.387L621.89 470.66l152.957 98.488"/><path fill="#b60200" d="M506.508 275.677l27.05.198-70.282 9.173 19.195-3.593"/><path fill="#ffca6f" d="M399.467 377.698l6.167-5.56-1.434-18.688-7.134 43.103"/><path fill="#07101a" d="M199.466 598.225l-68.157 12.968 15.8-7.48 84.938-22.61"/><path fill="#192d43" d="M286.02 562.847l-72.212 24.548L302.65 572.4l-69.927 16.56"/><path fill="#071524" d="M502.484 611.596l30.76-1.178-91.138 17.686 93.945 14.178"/></g></svg>