<svg version="1.1" viewBox="0 0 1024 682" width="1024" height="682" xmlns="http://www.w3.org/2000/svg">
  <g fill-opacity=".5">
    <path fill="#bc2406" d="M700.5 329.2l1.4 27-17-64 12 15" />
    <path fill="#fe9423" d="M327.5 334l47.6-49.5 95-25.5-83 28" />
    <path fill="#440300" d="M269 306.5l34-64.5-8 5.5-75.8 79" />
    <path fill="#fdc737" d="M391.8 302.8l-42.3 53.8 26.3-12 27.2-36" />
    <path fill="#1e0201" d="M761.7 402.3L760.3 529l40 4-33-15" />
    <path fill="#6a0d03" d="M703 314.8l-28.5-38 38 43.4 51.2 15.8" />
    <path fill="#385d77" d="M557.6 580.5l-45 10-2.8-13.6 44.3 15" />
    <path fill="#b50800" d="M659 312.6l-8.6-4-5.5-8 18 4.2" />
    <path fill="#feffff" d="M678.3 479l-174.8 8 60.2-10-1.7 19" />
    <path fill="#fff3c6" d="M365.2 533l12.7-33.6-33 25.6 26-4" />
    <path fill="#6fb0cc" d="M509.4 584.7l51-56.5-13 19.2-28 27" />
    <path fill="#bd5b3f" d="M600.3 212.7l18.2 14-8.2 26.3-3-36.5" />
    <path fill="#fe7f22" d="M307.4 415l10.4-19 19.7-68.5-32.2 75.2" />
    <path fill="#1c0000" d="M212.4 282.4L232 301l15-32-5-19.2" />
    <path fill="#922e17" d="M266 497.5l41.4 3.6-17.6 37-10.8-57" />
    <path fill="#c2f3f8" d="M481.3 538.5l26.7-1.8-74.5 6.7-91.7 24.5" />
    <path fill="#b4280d" d="M327.3 459.7v4.6l-2.5 14.4-1.4-31.7" />
    <path fill="#132536" d="M494.5 587.8l-62 7.4-30.2 16 27.3-6.8" />
    <path fill="#de1c00" d="M414.3 331.4l25.8-38-50 72 2-20.7" />
    <path fill="#ff6818" d="M390.6 349.2l-14.4 38.2-6.5 7.6 8.5-31.6" />
    <path fill="#f83b02" d="M397.2 370l.8-45.8-5.6 59 2.6 9.7" />
    <path fill="#fdebb4" d="M355.6 493.5l-1.3-64.4 9.2 5 1.2 9" />
    <path fill="#ffab34" d="M379 307l58.5-40.7-22.2 12 60.3-15" />
    <path fill="#fb540b" d="M309 412.3l15.7 23 1.7 4.2 3-48" />
    <path fill="#0e0000" d="M429.6 165.6l17.2-60 47 48-87.2 6.4" />
    <path fill="#0d355d" d="M659.8 524.2l3.7 3.5 30.8 4.7-42 4.2" />
    <path d="M527.5 125.5L387.7 123 334 146.3l126-17" />
    <path fill="#cfd9e5" d="M749.2 527.4L783 542l-62-22-53.8-13.5" />
    <path fill="#133751" d="M406.7 579l56-25.5-4.4 4.3-137.5 59.6" />
    <path fill="#030407" d="M753 542.6L922 650l-108.6-79.8 5 4.8" />
    <path fill="#0e2239" d="M521 599.5l12.5-21.7-.7 40 20.6 34" />
    <path fill="#ed763d" d="M484.7 217l22.5-.6-94.6 130L512.4 209" />
    <path fill="#fefef9" d="M701 387.7l-52.5-70.2L717 500.7l2.3 20.5" />
    <path fill="#7d7478" d="M246 557.7l-37.3 6 14 8.5-32.3 7.8" />
    <path fill="#fc8200" d="M519.3 275.4l5.6-12-6-12-10 22" />
    <path fill="#100" d="M197.7 511l-16 13-9.8-126 17-9.4" />
    <path fill="#c22d04" d="M301.8 305.6l20.8 1.7-46.6 46 21.7 7.5" />
    <path fill="#05213b" d="M513.2 544L445 591.7l53.3-36.8 46-21" />
    <path fill="#75c8f4" d="M570.3 537.7l-21.7-7.5v12l56.3-24" />
    <path fill="#ff771a" d="M592 259l59.3 14.8-38.4-20.5-70-1.7" />
    <path fill="#a4e5f7" d="M498.6 541.8l4.5-8-38 19.8 13-4" />
    <path fill="#2c527b" d="M350.7 561.4l-7.2.5-33.3 9 12.7 9" />
    <path fill="#b33f1b" d="M465 215l-48 3-31.3 15.3 29.4-5.6" />
    <path fill="#aa3417" d="M717.2 311L652 255l-64.6-30.5 41.4 20.4" />
    <path fill="#010205" d="M543.5 668l-29-25.4-31 70.4 114-9" />
    <path fill="#3d3b35" d="M331 652.3l129.2-82-46.4 24.5-47.4 37.4" />
    <path fill="#21415c" d="M613.5 531.2l1.6 58-18-54.8-19 32" />
    <path fill="#690700" d="M257.5 326.5L254.7 435l-1.5 28.8-21.6-89" />
    <path fill="#e24f18" d="M364.8 289.7l-57.3 39.7 17.7-34.4 7.4.7" />
    <path fill="#fdad23" d="M578.7 274.6l88 9.6-131-16.7-10.7-16.3" />
    <path fill="#cfddea" d="M733.4 529.7l-13-4.5L691 502l33.3 31.7" />
    <path fill="#a02a0b" d="M539.7 178.2l-5.2 29.2-35.6-2.6 32-9" />
    <path fill="#3d444c" d="M405 588.6l-9.5 7-32.8 23.6 18.8-18" />
    <path fill="#f9bb79" d="M381.5 424l3.2 38 4.4-43.3-73 48.3" />
    <path fill="#2b4257" d="M465.5 598.5l42 13L490 595l24.7-23.5" />
    <path fill="#162e40" d="M555.5 604l32.4-22 17-2.3v9.6" />
    <path fill="#375a76" d="M555.4 585.3L538 595.5l18.5-22.5-11.5 2.5" />
    <path fill="#a7b4c0" d="M747 551l13.4 1.5-33.8-20.2 10.3-2" />
    <path fill="#547490" d="M617.2 567.3l3.6 9 1.3 6.2-13 5" />
    <path fill="#020000" d="M572.7 147.5l23.8 3.8-50 5.5 53 13.8" />
    <path fill="#ccdde7" d="M502 482.6l-.5-6.7 11.2-4 2 7" />
    <path fill="#ef703d" d="M315.4 417.8L318 456l30.4-.3H323" />
    <path fill="#a32b0c" d="M295.7 483.6l-.3-38.3L313 452l-13.8 2.4" />
    <path fill="#afa9b6" d="M560.6 492.3l-50.8 1.2 38-2.5-6-6.6" />
    <path fill="#fefefe" d="M678.2 520.3L564.4 279.8l55.4 15 57.8 45.7" />
    <path fill="#fa702a" d="M481.3 241.7l-80 25-18.6-21.2 41 9.7" />
    <path fill="#fb7d06" d="M533 266.3l-35.4-24L612 283.7l-84-32" />
    <path fill="#c31b00" d="M291.2 419l8.4-22.8 5.5-34.8-11 32.6" />
    <path fill="#4b0100" d="M233.4 462.5l4-29.4 11.7-12-35-48" />
    <path fill="#8c0f00" d="M293.6 318.3l-44 81.6 4.4-26 16-42" />
    <path fill="#6e1604" d="M668.6 237.8l16 15.2-26.7 18.5 16-.5" />
    <path fill="#f9f4f4" d="M554.5 495.5l-3-5.3 5.8-11.7-13.4 15.8" />
    <path fill="#0d1219" d="M364.6 603.3l14.3-6.6-17 16.3-54 34.7" />
    <path fill="#282b2d" d="M266.6 570.4l-64 11.3-36.5 17.8-52 12" />
    <path fill="#f12f05" d="M385 344.4l11.7-20.2 16.3 27.3-2.6 3.7" />
    <path fill="#8e2204" d="M379.6 212.5l47.3 2.7 8-24.4 24 7.6" />
    <path fill="#284e66" d="M540.4 582L502 603.6l55-37.5-72 16" />
    <path fill="#000003" d="M517 670.7L468 713l31.3-76.8-78 76.8" />
    <path fill="#000b18" d="M575.4 619.3l15.7 7.4 2-19.7-27 35.5" />
    <path fill="#fefdfd" d="M430.2 323.3l83.2 99-113.4-36 7.3-24.8" />
    <path fill="#b54f34" d="M279.6 474l5.3 35.2 3-34.2-5-4.5" />
    <path fill="#c53b0f" d="M324.4 293.4L282 340.7l35.7-55.8 47.6-2" />
    <path fill="#fd5402" d="M328 358.8l16.3-7-11 11.4-17.5 57.2" />
    <path fill="#191208" d="M908.3 641.2l-48.3-7.7-81.6-58.6 91.3 55" />
    <path fill="#dc4415" d="M568 240l-48 1 61.6-12-29.6-7" />
    <path fill="#fbfafa" d="M503.4 526.2l38.6-47-30.8 45.8 7-40.8" />
    <path fill="#ef4813" d="M501.4 281.5l-5.7 4.2 35.4-10 35 1.8" />
    <path fill="#621907" d="M240.4 458.8L260 522l-28.8-30.7.2-39" />
    <path fill="#040000" d="M545.2 130.2L603.2-2l-68 155-36.6-12.5" />
    <path fill="#2d0100" d="M755.5 413.5l-23.2-167.2 33.2 157.3 1 43.4" />
    <path fill="#290602" d="M389.5 170l18.7-32-4.7 38-11.6-.7" />
    <path fill="#f34c12" d="M308.3 330l3.6 91.5 22 11.6-28-36" />
    <path fill="#02030b" d="M682.6 522.8l44 40.7L650 713l65.7-178" />
    <path fill="#2d0100" d="M352 157l89 25.6 5.6-2-6.4 5" />
    <path fill="#67210e" d="M611.4 216.7l-4-25.3L628 200l-42 5.7" />
    <path fill="#e15e2f" d="M475 212.7l-3-7.2 13.5 7.3-17.8 10" />
    <path fill="#fff" d="M385.6 451.2l-2.8 12.7 81.2 1-26-73" />
    <path fill="#fddb89" d="M356.8 401l5.3 14-6 24.3-22 7.3" />
    <path fill="#342221" d="M216.5 556.3l29.8 5.5-11.7-6-41.3 8" />
    <path fill="#fd862a" d="M326.3 364l-5.4 4.3-5 44-5-30" />
    <path fill="#69d3f5" d="M458.4 540.8l-107.2 33 .2 2 34.5-10" />
    <path fill="#b81f00" d="M619.5 284l-37-4-20.6-3 13-1.6" />
    <path fill="#622e26" d="M749 489.8l1.8-73-1 14.5 4 103.3" />
    <path fill="#d54f1f" d="M284.7 408.3L281 433l10.7-1.3L275 417" />
    <path fill="#9b4436" d="M732 495.3l-19 11 6-9.3 19.2-15.2" />
    <path fill="#5e93d4" d="M682.8 524.3l-38.2-3.2 18-5h-.4" />
    <path fill="#ce7456" d="M613.4 226.3l.6 13.7-9.8-2.5-18.4-21" />
    <path fill="#0e1f2d" d="M628 644.8l29-1.8-39.3-32 10.3-29" />
    <path fill="#ffbd20" d="M462 282l-21 3.7-38 30.6 12-17" />
    <path fill="#fefefc" d="M500.3 299.6l-52 6.7-34.5 41.2-27 79.4" />
    <path fill="#cb3f11" d="M398 251.6l28.5-24 14.8 9.2-138.3 43" />
    <path fill="#150000" d="M311 226.7l-80.7 2.8L294 184l-18 70.6" />
    <path fill="#ebeff5" d="M602.8 436.4l147 98.3 4.4-9-48-19.7" />
    <path fill="#2c0000" d="M201.8 356.6l20 57.3-13.2 40-19-37" />
    <path fill="#ff9a49" d="M699.4 357.6L703 394l13.2 22.3-4.8-17.6" />
    <path fill="#100000" d="M765 393.2l-29.5-155 34.6 107 26 203" />
    <path fill="#c2ced6" d="M785.8 545.6l-8 3.5-1-5-6.3-9" />
    <path fill="#9d432b" d="M302 479.6l-48 56 15-27.8 55.3-39.5" />
    <path fill="#1f2d3d" d="M485.2 526.3l24 121.5-35.3 47.7 36-42" />
    <path fill="#444648" d="M832 599.8L781.4 566l-13.3-3.3 19 13.6" />
    <path fill="#0c2033" d="M586 533.7l23.5 21.2-28 61 12-73" />
    <path fill="#130909" d="M762.4 507l48-247-43.7 220.4-10.3 84" />
    <path fill="#fefefe" d="M665.7 326.8L690.3 519l-72-136.8 90.2 49.8" />
    <path fill="#555b68" d="M810.2 567l15.2-8.3 4.5 19-50-31.7" />
    <path fill="#d15e3f" d="M331.7 482.8l-30 30 9 13.7-3-39.4" />
    <path fill="#da5123" d="M458.2 213.6l-45.4 30 14.5-18.8 36-5" />
    <path fill="#5c0900" d="M704 291l44 52.5-2.8-14.7-7.3 25.8" />
    <path fill="#9a3518" d="M377.8 223l-15.6 10-12.6 2.7 9-6.5" />
    <path fill="#7e1d03" d="M285.4 267.3l40.5-40.7-15 64.2-20-30.2" />
    <path fill="#fffffd" d="M522.2 480.4l-119-121.7 40.3 23-57 35.2" />
    <path fill="#b4b6c0" d="M232.7 575l19-12 40.4-7.7-72 12" />
    <path fill="#da3c09" d="M300.7 345.7l40.3-41.2-52.6 84.7 14.7-40.4" />
    <path fill="#000c1c" d="M547.2 616.8l16-7.5-51 3.7 25.3 19" />
    <path fill="#fb8b43" d="M377.2 430.2l4.8-19.7-2.6 13.5 3.6 58" />
    <path fill="#ea3f12" d="M382.6 396.8l.4 22.2-.5-.6-21-27" />
    <path fill="#23211d" d="M72.6 598.3l81-16.7-90.6 35 81-8.2" />
    <path fill="#111b30" d="M703.2 545l7 13.8-51-4.4 19.3-13" />
    <path fill="#faa05b" d="M388 516l-5.7-.3L377 356l5.3 166" />
    <path fill="#190200" d="M592.5 137L554 154l-19.3-34.6 68 5" />
    <path fill="#fdc241" d="M661 290.2l23 35.8-29.2-31-40.4-27.2" />
    <path fill="#8d3d2b" d="M322.6 514.3l20 21.4-111.3-29.4 103 28" />
    <path fill="#f55114" d="M693.8 336.8l23.7 34.5-16-12.8L716 405" />
    <path fill="#0d243a" d="M358.8 581.7l55.6 1-24 11.6 1.7-10.7" />
    <path fill="#c7d9e6" d="M744.6 534.7l-18-3-21.2-21 37.5 30.7" />
    <path fill="#f9fbfc" d="M561 403l150 116.7 14.4 7.2-37-32" />
    <path fill="#371c01" d="M356 623.3l1 3.2-96.2 53-19.2 17.6" />
    <path fill="#fdd05d" d="M406 303.8l.6-.4L386 307l49.2-22" />
    <path fill="#f14d08" d="M523.4 251.5l-16.8-13-51 .3 17.3.8" />
    <path fill="#7b8b8e" d="M439 572.7l-24.6 29.7 33-20.2-28.2 13" />
    <path fill="#fc7e0e" d="M380.7 287.4L308.2 361l82-75.5 6.3-3.2" />
    <path fill="#7e270a" d="M409.4 186.7l-83.7 41 124.6-38-22-7" />
    <path fill="#262b35" d="M812.8 584.6L745 536l95.5 48.4-96-52.8" />
    <path fill="#060000" d="M1009 590l-214.4-82.4-.5 37 57 17.4" />
    <path fill="#3b4a65" d="M303.4 590.4l33-.3-16.4-8 7-11" />
    <path fill="#000105" d="M197.6 607l8.3 49.3 53-72-191 41" />
    <path fill="#e9561f" d="M568 243l77.3 15.6 3.8 14-77-37.3" />
    <path fill="#22374b" d="M413.5 572L352 591l20 8.4 31.2-26.6" />
    <path fill="#6f0d00" d="M373 230.8l105-40.4-77.4 25.2.7-2.5" />
    <path fill="#330500" d="M693.8 219l-35-29.6 79.6 93.5-62.4-52" />
    <path fill="#fd9c57" d="M377.5 426l7 20.7 6.2-3-14.2-3.3" />
    <path fill="#370900" d="M664.4 227L593 166l11.5 7.8 33.3 17.2" />
    <path fill="#801900" d="M255.2 336.2l-3.2-19.6 35.8 28.4-7.5-6.5" />
    <path fill="#fefdfd" d="M424 395.2L394.7 377 596 427.6l-158-81.4" />
    <path fill="#fcfefe" d="M645.8 520.3l63-88.5 2 75.4-89.6 15.3" />
    <path fill="#2a0400" d="M282.2 208l73.7 12.6-90-14.6 42-17.3" />
    <path fill="#541813" d="M763.8 493L717 510l32.5 1.7-8.8 3" />
    <path fill="#1a4673" d="M648 529l15 1.4 41 1.4-49-7" />
    <path fill="#050000" d="M160.2 541.4L187 382l.3 53.4-54.6-131" />
    <path fill="#ff893f" d="M702.7 363.6l12.3 49.2-1 19.6-6-27.4" />
    <path fill="#9c3014" d="M294.6 526.5l.2-70.7-7 24.2 19.7 4" />
    <path fill="#03040a" d="M569.8 651.6l4 .8-14.5 26.3L570 635" />
    <path d="M701 703.2l235.7-3L738 551l-17 6.5" />
    <path fill="#871d05" d="M619.4 241.7L660 268l-65-85.8 61.7 79.5" />
    <path fill="#ffb47b" d="M336.5 490l5-38.2-12.6 32 42 15" />
    <path fill="#4c0702" d="M248.4 281.3l21.8-24.3 4.6 96.2-4-113.5" />
    <path fill="#253a51" d="M658.5 576.2l-8.7-17.2 41-19.8L658 545" />
    <path fill="#071828" d="M571 574.8l4.2-12.2 7-4-62 108.4" />
    <path fill="#eafffd" d="M408.6 550.7l74.5-10.5 37-6-77 4.6" />
    <path fill="#171b2d" d="M292.5 607l4.5-35.6-34 17.8 32.5 7.5" />
    <path fill="#ffd09e" d="M341.6 513l14.7-9 8.4 18-9.3 7.7" />
    <path fill="#fd6f17" d="M314.2 398.2l24.7-4.6-20 26.2 18 6.2" />
    <path fill="#3b708e" d="M551 560.8l-30.2 19-4.5-2 49.5-35.2" />
    <path fill="#d55634" d="M313.7 472.5l20.2 29.3-10 21.8-2-88" />
    <path fill="#480300" d="M458.6 182l31.3 6 72-14.2-66 8.4" />
    <path fill="#fefefd" d="M382 385.5l65.8 76L658.6 332 406 417" />
    <path fill="#fdd98d" d="M378.4 470l10 26.3-52.6-115.5 45.6 93" />
    <path fill="#230200" d="M597.4 161.8l83 21-19.8-17.7-41.2-6" />
    <path fill="#cbd8db" d="M458.6 576.4l59.2-40 104.7-198L514 543" />
    <path fill="#f56e2c" d="M377.3 470l19.3-148-16.3 126.2 2 7.7" />
    <path fill="#300400" d="M230.6 533.6L212 553l19-127-13 35" />
    <path fill="#90919a" d="M768.7 555.2l8 14.4-154.8-99L774 569" />
    <path fill="#b60200" d="M506.5 275.7l27 .2-70.2 9 19.2-4" />
    <path fill="#ffca6f" d="M399.5 377.7l6-5.6-1.3-18-7 43" />
    <path fill="#07101a" d="M199.5 598.2l-68.2 13 15.8-7.5 85-22.6" />
    <path fill="#192d43" d="M286 562.8l-72.2 24.6 88.8-15-70 16.6" />
    <path fill="#071524" d="M502.5 611.6l30.7-1.2-91 17.7 94 15" />
  </g>
</svg>