<svg version="1.1" viewBox="0 0 1024 682" width="1024" height="682" xmlns="http://www.w3.org/2000/svg">
  <g fill-opacity=".5">
    <path fill="#b60c00" d="M655 301l15.8 14-12.6-4-44.5-28.4" />
    <path fill="#fffffb" d="M391.4 411.3l-6.5 104L420 331l-20 56.3" />
    <path fill="#ff7f24" d="M374.7 290l44.6-27.7-75 40.3-24 41.3" />
    <path fill="#152b3c" d="M568.8 657l26.4-60 6.6 4 10.7-68.8" />
    <path fill="#f12000" d="M385.7 330.4l40-16.3 33.5-22-90.2 74" />
    <path fill="#091625" d="M508.4 548.8l-23.7 16 15.4 3-75 30.8" />
    <path fill="#fea63a" d="M644 271l26.8 21-12.2-7.6-115.3-30" />
    <path fill="#f56f34" d="M320.8 439.2l2.5 1-17-23.5-2.7 19" />
    <path fill="#a00" d="M457.7 289.4l58.7-13.7-11.5-.8-51 22" />
    <path fill="#1f406f" d="M704 513.6l-48.4 17-6.3 4.4 10.7.7" />
    <path fill="#d21300" d="M619.4 291.3l-6-7.4-56.5-10 2 1" />
    <path fill="#c85229" d="M272 448.2l13.4 10L288 430l-18.3-5.6" />
    <path fill="#1d0100" d="M405.3 164.2l-79-1.3 74.4 9 106-14" />
    <path fill="#ebedf5" d="M345 542.3l41-19.8-70 19.3-65.7 20.5" />
    <path fill="#e62403" d="M622 293.4l54.8 33.3-4.5-12.6-32.3-12" />
    <path fill="#4684a1" d="M573 536.2L511 581l47.4-24-58 6.2" />
    <path fill="#92d9f4" d="M598.6 515l-38.4 26-22.6 14.3 7-7.7" />
    <path fill="#3d3d3a" d="M817.7 590.2l-46.4-21.7 39.2 7-8 13.3" />
    <path fill="#807d84" d="M240.3 560l17.6 10.6-11-14 7-6.5" />
    <path fill="#d05026" d="M479.2 218.3l-62 4-45.4 35.4 10.7-20.7" />
    <path fill="#f74804" d="M578.5 237.5l-6.7 16.3-15.7-2.2-52-1" />
    <path fill="#ffe4a4" d="M711.4 423.8l3.8 34.6-3 2.8L699 373" />
    <path fill="#060000" d="M808 559l180.5-30 18.5 95-214.7-94.4" />
    <path fill="#fffefe" d="M535.2 498l-187 31.8 34.5 4.2 27.4 17" />
    <path fill="#00060e" d="M563 617l23-7.5L526.7 713l31.4-71.7" />
    <path fill="#8e2c0c" d="M352.2 238L311 258.6l7-12.8 64-27.3" />
    <path fill="#e41c0a" d="M654 307l-48.8-25.7 5.5 9 42 20" />
    <path fill="#b22d08" d="M290.7 300l-6.5-3.8-2.4 34 88.7-87" />
    <path fill="#fee39a" d="M362.5 511l-4-64.8-4-38.7 11.5 6.8" />
    <path fill="#0f0000" d="M688.4 205.4L592.7 175l111.8 7.3 55.7 111" />
    <path fill="#1f2430" d="M747 535.8l7.2 8.6 52.3 25.6-36.3-24.4" />
    <path fill="#8e240a" d="M608.8 243.4l65.5 6.6-44.7-32 54.4 50.7" />
    <path fill="#08050e" d="M681 533.5l38.5 16.2L780 579l-78.5-49.4" />
    <path fill="#a1a4af" d="M256 563.5l-29.4-1.6 7 11 59.4-15" />
    <path fill="#ffcd81" d="M347.4 495.5l-2.7 9 5.2-111 3 79.3" />
    <path fill="#081627" d="M276.4 606L382 588.3l-140 36 43.2-48.5" />
    <path fill="#ce5e44" d="M304 518.6l11.5 4.6-8.6-19.4 17-30.6" />
    <path fill="#b92704" d="M423.4 236.2l-38.8 10.4-6.8 3.2 34-16" />
    <path fill="#010000" d="M269 695.5l124.4-77.3 6.4-4 45.4 24.2" />
    <path fill="#5f0e01" d="M374.3 216l-113 56 65.2-49.5 24 11.5" />
    <path fill="#84d3f6" d="M357 545l-30.5 1.6-1.2 7.3-11.3 10" />
    <path fill="#ace8fd" d="M663 514l13.2-7-42.4 26.6-11.5-9.3" />
    <path fill="#f54f0a" d="M481.2 250l-46.5 2.2 81.3-9.7-38.5-5.7" />
    <path fill="#350400" d="M567 164l-33.7-7-28.6.7 70.8 11.8" />
    <path fill="#070915" d="M714.8 605.8l-2.7-84.3 11 18.2-50 50.5" />
    <path fill="#f6ae95" d="M713.6 459.4l2 19.4 1.7 37.2 1.5-47" />
    <path fill="#721e08" d="M590 202.5l18 3.5 32 8.4 19.3 15.8" />
    <path fill="#193146" d="M565.5 581.7l1.8 31.3-86.2-15.2 59 13" />
    <path fill="#3c0100" d="M322.6 209.5l125.7-33-68.7 6.3 23.6-12.3" />
    <path fill="#162536" d="M376.4 575.6l-21 46 62-44-100.5 33" />
    <path fill="#6d6167" d="M832.4 566.3l-116.4-61 75.4 38.6 35 31" />
    <path fill="#0e2030" d="M443 650.4l20.7-72.2-1 10 2.7 41" />
    <path fill="#e52a00" d="M696.6 320l-12.3-6.3 30.5 70-9.5-11" />
    <path fill="#ff9b2f" d="M705.8 360.8l-35.8-34 11.8-1.6 16.4 37.2" />
    <path fill="#f9520d" d="M328 350.7l-24.7 45 31.2-85.5-31 64.3" />
    <path fill="#3e0800" d="M635.8 212.4l87.5 50.6-37.6-8-77.3-91.3" />
    <path fill="#30465c" d="M607.2 634l8.5-32-5.5-47.3-10.4 39" />
    <path fill="#141a24" d="M565.2 667.4l18.5-51.5-6.2 62-28-8" />
    <path fill="#fefefd" d="M647.5 308.8l-81-30.8 146 246.2-23-170" />
    <path fill="#b51c00" d="M300.4 403L279 322l-3.6 67.3 27-12.4" />
    <path d="M236.6 249.2L344 188-24.3 335.6 12-31" />
    <path fill="#f69505" d="M469 278l-36.4 16.6 41-14.2 32.6-10.7" />
    <path fill="#1f1f1c" d="M96.3 607l37-4.3-148 35.3 145-43.5" />
    <path fill="#395a73" d="M517.7 566.3l-7.3.8 10.2 28-34.6 4" />
    <path fill="#574b40" d="M349.8 623.6l-8.6 11.3 64.6-43-46 27" />
    <path fill="#f2662a" d="M356.4 285.7L464.8 227l-76.4 30.2 1 3.8" />
    <path fill="#7b3122" d="M317.8 530.5l-7-20.2 25 25L208.6 500" />
    <path fill="#b5f3ff" d="M584 526l-37-1.7 3-4 11 18.3" />
    <path fill="#070000" d="M864.2 600l-39 18.6 86.2-63 69 1" />
    <path fill="#904938" d="M267.6 527l3-24.8 26.3 44 2-14.6" />
    <path fill="#280100" d="M553.4 183.6l-39.4-3 131-35.3-112.6 30.3" />
    <path fill="#fff" d="M566 426l-52.5 69.5 6.8-72.4 32 65" />
    <path fill="#031024" d="M586 581.8l10.4-29-30.2 32.6 1.5-3.8" />
    <path fill="#4f0800" d="M416.4 182.7l-30.7-3.6 66-12 79 4" />
    <path fill="#2d0000" d="M212.4 319l46.7-21.4-55 63 22 133" />
    <path fill="#919198" d="M177.5 585.8l18-7 64.4-19-71 24.5" />
    <path fill="#fb9d0b" d="M628.6 278.3l-154-10.5 116.4 1.4-17.8 7.5" />
    <path fill="#d80900" d="M412 311.4l-19.3 20.4 23-7.7 26.6-30" />
    <path fill="#67c3eb" d="M555.8 547l17.8-11.6 7.6-6.6-47.7 16.4" />
    <path fill="#f9fafa" d="M541.6 497l-14.7-.2L663 411l-135 77.7" />
    <path fill="#b5f3ff" d="M399 549.7l-55.6 5.7-.6-8 60.2-2.7" />
    <path fill="#fdb022" d="M634.7 288.7l-26-19-52-14.7 34.7 19.7" />
    <path fill="#bc2c0b" d="M451.8 224l87 3.4-101.3 2 2.5-2" />
    <path fill="#000001" d="M668 615.5l-8.7 97.5h234.5l-69.6-117.7" />
    <path fill="#fdfefd" d="M563 461L419 327.7l40.3-26.5L389 416.7" />
    <path fill="#4c0d04" d="M280.3 536l4 2-11 9.4L261 532" />
    <path d="M272 618.5l28-6.6-65.8 87-88.4-45" />
    <path fill="#625961" d="M755.3 540.6l13.6-15.2 23 20-19-14.4" />
    <path fill="#662c1c" d="M262.3 499.6l9.5 37.7-38.7 9.2 37-45" />
    <path fill="#95260a" d="M430.6 189.7l75.5 5.8-24 27 14-34.3" />
    <path fill="#a5abb7" d="M767.3 557.6l6.4 6-18-12-53.2-50.5" />
    <path fill="#e5623c" d="M345 503.4l-15-3.4-6.7-21-14.6 1.7" />
    <path fill="#080b15" d="M618 601l11.2 77.5 43.8-15.8-40.2-6" />
    <path fill="#210000" d="M680.2 185.4L467 159.2l-1.7 41.5-.6-35.8" />
    <path fill="#1b3244" d="M660.8 608.5l-45.4-18 15 25L663 548" />
    <path fill="#bf5039" d="M716 410.7l7.4 74-4.8 35.3 1.6-32" />
    <path fill="#0b1827" d="M319.2 599.5l60.3 8.3-66.3 9.5 42-31" />
    <path fill="#030207" d="M582 645l-13.5 59.5 19.7-50.3 11-5" />
    <path fill="#194360" d="M557 597l17-58.3-48.2 44.3 66.4-55.8" />
    <path fill="#c81800" d="M525.4 273l86 7-88.6-2.4-22.7 3.7" />
    <path fill="#6c717c" d="M747 538.4l26.7 14.6-81-52.6L821 592.7" />
    <path fill="#ffdf8e" d="M363.3 499l6.3 11-17 .4L347 490" />
    <path fill="#4c7997" d="M607.6 581.4l7.8 11 9-56-11 38.2" />
    <path fill="#ca6341" d="M297.8 462l.4 26.4 10.5-23.7 32.6 26.5" />
    <path fill="#faffff" d="M500.7 511.7l-108 19-37 18.3 13.2 2" />
    <path fill="#fefefe" d="M711 441.8l-125.3 26L720 516.2l-3.7-2.7" />
    <path fill="#aa2d0c" d="M452.7 201.4l52.4-1 37 35.3-46-40.3" />
    <path fill="#519dc4" d="M474 554.5l-56 23.7 60.2-26.4-30.8-.5" />
    <path fill="#225776" d="M432.3 556.6l-35.5 14.6-13 21.8 24-32.8" />
    <path fill="#adb3c2" d="M318.3 529.3l30.5 29-30-26.3-.5 24.5" />
    <path fill="#fefefe" d="M599.3 504.8l-102-5.5L537 531l91-122.8" />
    <path fill="#a7482b" d="M253.2 474l9.3 7.8 31 14.2-10-23.2" />
    <path fill="#ac2903" d="M291 509.3l-3.7-50.4-1.3-20 5-7" />
    <path fill="#fd530c" d="M405.8 366.3l-12.7 9.5-9-39.3 4 27.5" />
    <path fill="#398ed5" d="M607 528.7l32.3 8.3-42.6-15.3-22.6 11" />
    <path fill="#f45419" d="M701 325.3l5 39 7.8 54-2.3-54" />
    <path fill="#620e01" d="M495 203l17-2.4-18.6-13.4 36.4-7.6" />
    <path fill="#aeabb6" d="M566 488.2l-23 10h-34l53.2-3" />
    <path fill="#ecb5a9" d="M337.6 520.5l-8.6-17 3.4 14.2 57.6 31" />
    <path fill="#d85b2f" d="M518.6 211.3l47 4 32.2 24.6-24.2-14" />
    <path fill="#fd9815" d="M608.6 271l67 40.5 10 12-15-11" />
    <path fill="#aa2d10" d="M326.2 458l-66 2.3h59.5l7 19.6" />
    <path fill="#091d30" d="M549.6 564.5l55 1-26.7 24.3 2-44.8" />
    <path fill="#1b2737" d="M541 665l16-43.4 5-2.8-16 43.4" />
    <path fill="#df511c" d="M337.6 258.8l81-14.2-37.2 23-19.5-.3" />
    <path d="M109.2 561.4L-28 660l-.6-105L51 620.8" />
    <path fill="#fefdfc" d="M438.2 315l272.5 65.2-197-67 17-34.2" />
    <path fill="#97939a" d="M509.3 486.4L533 500l-22.3-2.4 11.3-1.2" />
    <path fill="#030000" d="M109.2 446.5l87 128.4-102.5-32 104.8-10" />
    <path d="M1055 578L969.4-13.7l-132 593.5-34-89.2" />
    <path fill="#998d95" d="M643.4 492l-37.2-1.5 19.7 6 8-8" />
    <path fill="#d9521f" d="M708.7 388.4l9.3 23 8.6-1-3-17.4" />
    <path fill="#3a4d55" d="M506 545.3l1.5-4-6.5 4L365 624" />
    <path fill="#0a0000" d="M357.4 123.6L372 185l-35.3 16.3 113.2-89" />
    <path fill="#210000" d="M177.4 344.3l-8 59.8 74.7-75-14 16" />
    <path fill="#fdfff3" d="M365 505l35.6-43.2 41.5-37-76 64.3" />
    <path fill="#fecd83" d="M362.3 476.3l.4-52 3-5.8 6 36.2" />
    <path fill="#2b6078" d="M561.6 561.6l-40.7-13h5l-18 3.8" />
    <path fill="#e12900" d="M390.5 368l5.7 15-11.8-3.8-2.2-4.8" />
    <path fill="#edf0f4" d="M488.6 470.3l-85.4 47.3L230.4 572l146.3-40" />
    <path fill="#fefefc" d="M373.2 461.8l150.2 25.7-28.8 29.4 5.2-7" />
    <path fill="#fdce4b" d="M655.7 289.6l-34.5-20.8 15.2 20 31.5 13.8" />
    <path fill="#fdfffe" d="M490.4 528.2L388.7 427.6l9.2 119.2-28 14.2" />
    <path fill="#f33200" d="M368.6 374l-6.7 29.5 18-52-14 20.8" />
    <path fill="#e7d0d4" d="M374.3 538.6l18.6-10-10 6.4-47-7.7" />
    <path fill="#2b5b79" d="M612.5 520.7l10.8 52 35.3-23-46.4 12" />
    <path fill="#974229" d="M599.7 202l-25.5 9.8 26.6 12.6-40-25" />
    <path fill="#fffffa" d="M409.6 521.5L363 523l14.5-5.2-38.4 21.7" />
    <path fill="#351b11" d="M214.6 548L196 505l8 50.2-11.4 25" />
    <path fill="#365174" d="M280 577.5l19.6-21.7-26 10L261 576" />
    <path fill="#fec478" d="M363 434l5.3-40 2.2 36-3 34.2" />
    <path fill="#210200" d="M407.8 138.3l-88.6 33 67.4-13.5-22.3-10" />
    <path fill="#aa0300" d="M648.5 300l-25-15.2 24 20 16 8.8" />
    <path fill="#83220d" d="M709.5 299.5L700 270l-16 12-20 6" />
    <path fill="#1c4b7d" d="M593.3 562.4L598 522l12 7.7-18.5-4.8" />
    <path fill="#651a0c" d="M745 521.2l1.7-1.5 1-118-18 20" />
    <path fill="#fcff8f" d="M516.2 452.4l-16.7-5.6 9.2 3.5 5 12" />
    <path fill="#292837" d="M276.4 600.3l29.6-25 1.8 10.6-17.8 10" />
    <path fill="#b93511" d="M727.4 370.6l-1.7-17-9 29.4 3.5 42.3" />
    <path fill="#eefbf3" d="M460.8 471.8l-9 22.4.5-39 39.2 13.8" />
    <path fill="#882104" d="M259.3 430.6l21 35-36-34.6-6.3 19.6" />
    <path fill="#43a1d7" d="M381 554l-78.6 7-4.3 7.5 65-11.5" />
    <path fill="#3b7fa5" d="M432.6 563l4.8 4h-17.2l-14.2-3.4" />
    <path fill="#70746d" d="M444.6 584.8L393.8 614l42.7-33.3-55 26.4" />
    <path fill="#df592c" d="M535 228.5l-26.6-13.7L498 207l6 14" />
    <path fill="#fe850c" d="M351.3 361.5l-5.6 19-16.5 28.2 6-49" />
    <path fill="#5b1001" d="M552.2 202.5l-16.2-31 86.6 37.8-55-13.4" />
    <path fill="#494647" d="M130.6 595.6l69.6-21.2-47 6.4 16.2 19.3" />
    <path fill="#7f230b" d="M538 195.8l14-12.2-31.3-1.7 61.3 30" />
    <path fill="#3a3c42" d="M809 558.2l49 30-64.8-40.3 49 18" />
    <path fill="#f76f30" d="M561.6 231l-29.2 3.7-12 4.4-23-6" />
    <path fill="#514e58" d="M516 503l.5 1.3-1-3.2 14-10" />
    <path fill="#fefefe" d="M488.6 481.6l25.6 53 41-37.7 17.3 33" />
    <path fill="#86230e" d="M739 422.3l-9 10.7-12.7.4 9.5 44" />
    <path fill="#241204" d="M194.4 710.5l94.8-25.4 110-81L284 680" />
    <path fill="#8d2705" d="M251 473l23.5-50.6-17.2-7.3-4.3 53" />
    <path fill="#fea929" d="M589 253.3l-43 3.7-24 13.3 37.5-2.6" />
    <path fill="#635c68" d="M526.4 494.2l-.7-.5 4 7-18-5.2" />
    <path fill="#fcfefe" d="M439.6 521l-64.3 44.4 141.2-72 3 41.6" />
    <path fill="#fa5e1a" d="M366.3 295l-14.6-10.4 92.5-43.6-111.8 68.7" />
    <path fill="#b03108" d="M375.6 246l-26.8 17.8 6.3-17 6-5" />
    <path fill="#fefdfd" d="M489 527.3l-130.2-13 213.7-19 13 24.2" />
    <path fill="#3e140b" d="M753.8 421.4l20.5 38.2-8.8-41.2L746 509" />
    <path fill="#1f2430" d="M600 636.2l-12-6.7 19.5 42.2 11.3-5.2" />
    <path fill="#070000" d="M200.2 352l-63.5-54.6 118.2-3.8-45 20.3" />
    <path fill="#631200" d="M429 175.5l-55.4 7.3 49.3-16 89 43.5" />
    <path fill="#fde383" d="M352.2 393.7l8.6-3 2.5-24.2h-1.8" />
    <path fill="#2397d4" d="M388 569.4l-38.3 9.4 70-26-.7 3.4" />
  </g>
</svg>