<svg version="1.1" viewBox="0 0 1024 682" width="1024" height="682" xmlns="http://www.w3.org/2000/svg">
  <g fill-opacity=".5">
    <path fill="#97959e" d="M271.4 555.2l-68 11.2 1.2 5.3-8 12.3" />
    <path fill="#f0eef4" d="M662.6 492.4L754 523l-5 4.7-7.2-2.2" />
    <path fill="#120000" d="M179 574.7l-20-205 30.6-39.4 6.8 241.2" />
    <path fill="#8b2408" d="M573.6 200.8l-140.3 6.8-110.6 19L441 183" />
    <path fill="#102331" d="M662.4 564l-27.8 4.7 20.6 48.3 42-21" />
    <path fill="#102538" d="M285 576.4L205.7 594l-65 11.2L241 575.6" />
    <path fill="#f7faf4" d="M398.5 350.4l18 55.8 121.8 83-75-11.8" />
    <path fill="#4d2011" d="M223 500.2l19.5 53 52.3-11.3-78-50" />
    <path fill="#fd7d36" d="M588 255.3l5-25.6 56.2 53.2.6-11" />
    <path fill="#fffffd" d="M694.3 513l12.4-113.5-41.3-78.2-70.2-35.8" />
    <path fill="#191912" d="M96.2 595l-32.8 2-16 26 77-9.2" />
    <path fill="#aecbd2" d="M390.5 604L530 520l-79.3 50.8-18 13" />
    <path fill="#c50100" d="M538 272.5l-90.7 15.3-54 42 75.4-38.5" />
    <path fill="#ea3005" d="M385 396.8l-22-.6 13.5-6.3.4 38" />
    <path fill="#861f09" d="M298.3 511.3l14.5 26.4-34.7-23.5 29-37" />
    <path fill="#383024" d="M427 589l-100.6 74.2 46.4-43.3-12 1" />
    <path fill="#c14d25" d="M283.5 392L263 477.7l12-53.4 15 121.5" />
    <path fill="#0a0000" d="M717 149.5L557.7 147 283 158.5 494.7 96" />
    <path fill="#b86249" d="M616.5 237.3l-59.3-20 21.3-16 25.3 13" />
    <path fill="#030f1e" d="M507 667.6l38.7-76.2-119 72.7 7.7-72" />
    <path fill="#1a0000" d="M731.4 304.3L787.7 454l-51.3-222-41-42.3" />
    <path fill="#fff8d2" d="M411.6 497.2l-28.4 19.3-13-111.3L368 528" />
    <path fill="#500900" d="M426.6 174.3l168.7 2-188-8.7L298 244.8" />
    <path fill="#081e34" d="M563.7 608l30-36.2-32.8-12.6 36-31.2" />
    <path fill="#3e5e73" d="M619.8 548.8l47.3.4-57 15-4 96.5" />
    <path fill="#ffe261" d="M354 388.3l2.5 26.2 18.2-81-8 16.8" />
    <path fill="#b6320d" d="M269 325l22.8-24.6 50.2-45.6 23.6 14.2" />
    <path fill="#333b4a" d="M705.3 511L822 577.6l-22.8-15.2 69.2 36" />
    <path fill="#f85e22" d="M287.5 404.2l50.2 55.6-20.5-70.5-30.4 22.4" />
    <path fill="#42464d" d="M838 613.2l-95.2-67-38-29.5 38.6 37.6" />
    <path fill="#766b77" d="M516.2 497.8l1.3-3.3 29.8-4.4h6.2" />
    <path fill="#691a09" d="M753 405l-4 116.6L725 390l18.7-22" />
    <path fill="#dd3800" d="M475.7 274.6l84.2-1.4-43 10.2-36-8.2" />
    <path fill="#072139" d="M490.2 575.3l-36 34.8-29.3-5 118-80" />
    <path fill="#edf7f7" d="M517 488l55.5 19-148-43.3 140 12.8" />
    <path fill="#9ae5fa" d="M339.7 576.5l79.4-45.2-46 29 67-12.4" />
    <path fill="#b5becc" d="M711.7 507.8l88 52.5-24-28.2-35-2" />
    <path fill="#ffc642" d="M643.7 271.6l-37-2.5 60.3 38 13 14" />
    <path fill="#0b0000" d="M166.6 297.7l169.2-185L193 350l69.6-73" />
    <path fill="#ba361d" d="M327.3 459l-4.2-28 4 76.8 3 29" />
    <path fill="#000918" d="M331.7 600.3l29.8 15-32 17-124-6.8" />
    <path fill="#8d290f" d="M511.7 211.2l15-31.3L630 229l-45-32" />
    <path fill="#d6320b" d="M724.6 372.3l-44-77L724 422.8l1.6 9.5" />
    <path fill="#ab4f40" d="M333 538.5l12.6-10.3-36.6-24.5-9.6 15" />
    <path fill="#000102" d="M905 646.5l150 60-221.3-125-84-43" />
    <path fill="#2f7cb0" d="M606.2 520.5l-26 9.5-41.3 31.6-5 7" />
    <path d="M-31 679.2L193 713l66.8-127-41.8 7.5" />
    <path fill="#8c2914" d="M742.2 498.2l-5-1.8L724 379v120.8" />
    <path fill="#df8865" d="M606.4 230.4l-6.7 12.5-11-8 3.5-18" />
    <path fill="#fa2b03" d="M429.5 319.7l19.2-15.6-63.4 30-10.6 23" />
    <path fill="#112e44" d="M378 604.7l26.4-39-89 32.7 104.5-25" />
    <path fill="#324e65" d="M502.7 598.8l68.6-6 2.5-12.7-108 15" />
    <path fill="#fa5e00" d="M359 315l-85.3 95.3 55-62.5-11.6 69.7" />
    <path fill="#3b0400" d="M519.6 148.3l74.4 58.5-73-44-30.6 5.2" />
    <path fill="#8c7f8a" d="M607.4 493l-8.5 3.3 10 1 15 .2" />
    <path fill="#ff9c20" d="M379.8 280l209.6-20-17-7-124 3" />
    <path fill="#c7f2fc" d="M388.8 526.8l-30 26.7 47.7-11.8-69.5 13.5" />
    <path fill="#fff" d="M367.6 504L437 330.3l8.3-22 84-27" />
    <path fill="#cd0f00" d="M656.5 301l-51.3-12-15.4-7.7-1.5-6.8" />
    <path fill="#de582b" d="M524 229.4L482.4 209l-6.4 23 25.4-27.5" />
    <path fill="#fffffc" d="M379.2 432.4l45.8-69.7-30 12.7L592 457" />
    <path fill="#442709" d="M280 672.6l-68 31.2 60-33 101.4-58.5" />
    <path d="M744.3 138L277 81.8-5.8-2.2 577 2" />
    <path fill="#230402" d="M764 401.5l-7 63.3 2.3 63.5 29.8 8.3" />
    <path fill="#fdfffa" d="M563 395.3l19.2 95 46 .2 87-36" />
    <path fill="#ff963d" d="M396.6 404.4l-19-17.6 19.7-.7 2.2-48" />
    <path fill="#f7652b" d="M391.8 257.6l40-16.7 95.8-12-121 33" />
    <path fill="#51b4e8" d="M330.4 547.2l10.2 13L293 565l26.8-11.2" />
    <path fill="#330f03" d="M201.5 564.8l18.2-6.3 16.5-51.7-38.8 12.8" />
    <path fill="#528bc3" d="M340.4 582.8l27.8-30.4 15.2-.3-55 24" />
    <path fill="#fff" d="M707.3 498.3l-150.2-1-9-8-128 57" />
    <path fill="#758cc8" d="M669.3 524.3l15.5 5.3-26.5-12.6 42.5-6" />
    <path fill="#ffcc90" d="M362 497l-19.3-27-5.4-.5 10.2 60.7" />
    <path fill="#4791c4" d="M550.5 534l-14.6-8 17-.2-46 46.2" />
    <path fill="#852a0c" d="M419.8 183.3l-53.6 22L340 248l81.6-57.7" />
    <path fill="#030100" d="M189.7 603.8L209 713l201-114.7-151.6 95.4" />
    <path d="M623.6 640l-8.8 73 440.2-86-451.3 27.3" />
    <path fill="#140000" d="M612.7 119.6l-52.5 64.2 32.4 6.7L441.8 117" />
    <path fill="#fffffe" d="M393.6 461l27-134.3 28-18.7-41.7 54" />
    <path fill="#ff820d" d="M454 251.4l15.6-10.5 88.4 19-60 5" />
    <path fill="#f98060" d="M328.4 501.4l17.3 23 4.7 11.2-22.6-88.3" />
    <path fill="#720700" d="M256.5 316l36.2 8-55 66.8-2.7-57.4" />
    <path fill="#437a94" d="M622 552.8l-3.6-8 19.2-7.8 31 8.2" />
    <path fill="#fffffe" d="M669.8 514l35.6-2L691 352.6 625.6 470" />
    <path fill="#215e7f" d="M395.6 571l67-16.4-11.3 8.8-40 14" />
    <path fill="#902306" d="M314.3 286.4l5 5-.7-58.5-55.3 98" />
    <path fill="#13293e" d="M500 617.6l35.3-42 3 70 26.5-59" />
    <path fill="#c65f43" d="M292.5 481.7l32 10.4-10.3 8-16.2-30" />
    <path fill="#3b0300" d="M225 297.3l46.7-58.2 6.3 39 64-78" />
    <path fill="#be320a" d="M414 351.2l-2-.7h-8l11.6-17.4" />
    <path fill="#d4dce9" d="M359.8 537.6l-117 33.5 54-24 137-16" />
    <path fill="#fd9d55" d="M380.7 462.7l.5-46.7-4.7 28.8 15-9.3" />
    <path fill="#030e1c" d="M676 595l-65.5 44 113.3-46-62.4-49" />
    <path fill="#c5340c" d="M531.4 238l40-4.4L484 197l110 43.7" />
    <path fill="#02040e" d="M388.3 657l177.5-31.3-60.3-7L554 672" />
    <path fill="#ffb423" d="M398 314.3l65.7-35.2 143-22-152.5 12" />
    <path fill="#1e334c" d="M287 574l59.7-11.5-95.7 56.2 64.6-22.3" />
    <path fill="#fecb41" d="M364 345.3l45-52.6 70-24.7-14.5 1.8" />
    <path fill="#581001" d="M725.2 301.7L683.8 231l-54.6-1.3-18.8-31.5" />
    <path d="M183.4 571l-76.2-150.6-57 173.7 96-10" />
    <path fill="#111827" d="M492.4 667l-25.2 44.2 38-46.7 16.5-37.3" />
    <path fill="#5b1b07" d="M234 462l22.4 8.8-2 49-30.7-17" />
    <path d="M322.5 188.7l73.4-29.3L-31 132 626.7-31" />
    <path fill="#c0451d" d="M409.8 222.5l71.6-18.3-129.6 61.6-24.6-2" />
    <path fill="#fff" d="M431 495l143.4-214.7-61 4-96 47" />
    <path fill="#971d07" d="M701.3 327L750 431l-46.6-148.6-43-7.8" />
    <path fill="#32516a" d="M490 593l-19 29 57.3-52.4 15 26" />
    <path d="M717 242.4l48 44.4 48 274.6 242-589.8" />
    <path fill="#9d2309" d="M469.3 230l-17.5-14.2 63.3-46-73 59.2" />
    <path fill="#8f3e2a" d="M300 543l-19.6-12.5-16.8-1.4 5.2-65" />
    <path fill="#b8f3ff" d="M456.4 565l63.4-30L410 550.7l60 1.6" />
    <path fill="#a71e00" d="M297.3 361l-46.5 5.2 25 61 3-32.5" />
    <path fill="#c1cae0" d="M689.5 512.3l28.6.3 1 17 22 6.4" />
    <path fill="#ff7827" d="M307 407.3l14-63.7-.5 71.5-4.8-11" />
    <path fill="#3e0000" d="M207.6 359.6L187.3 440 239 326.3l-8 152.2" />
    <path fill="#f7fafe" d="M730.5 517l-117-59.6 61.8 35 75.7 40" />
    <path fill="#6e7571" d="M472.4 568.3l-75 41.7-37 26.4 138-88.8" />
    <path fill="#223d51" d="M647.6 622l-26.3-60 30 3.4L662 527" />
    <path fill="#fffffa" d="M399.6 541.5L364.2 495l67.8 24-48.8-76" />
    <path fill="#2e7dba" d="M282 568.4l22.5-7.2-6-4 27 11.6" />
    <path fill="#3f3f3d" d="M118.8 591.3l17 15.7 89-29.5-85 18.4" />
    <path fill="#0a121c" d="M576.8 566.2L542.6 713l66.6-72.7-23.7 72.7" />
    <path fill="#e76834" d="M549.8 214.5l24.6 20-86 1.4 101-10" />
    <path fill="#6e2216" d="M284.8 549.3l16-35 15 22.2-48.5 6" />
    <path fill="#f6feea" d="M574.8 427l26.3-17 14 23.3-31 26.2" />
    <path fill="#f35415" d="M419.3 337.8l-8.5 14.5-45.5 26-3 23.2" />
    <path fill="#492929" d="M383.4 180l-.5-10.4-2-5.3 12 12.4" />
    <path fill="#fe721f" d="M686.7 313.8L652 267.2l46.3 81.4-2.7 23.3" />
    <path fill="#2a2c33" d="M902.5 612.5l-30.2-19.2-83.8-39.4 67.8 39" />
    <path fill="#fdfffd" d="M383.6 454.2l79-39.4 48.8 116.8-50.8 18.2" />
    <path fill="#fff0b7" d="M704 388.5l-15.6-41.2 5.3 38-3.2-8.7" />
    <path fill="#440900" d="M387 153.6l126.4 2-81 7.8 132.8 46.8" />
    <path fill="#304053" d="M221 579.8l83-23.4-64.6 29.7-18-9" />
    <path fill="#d32f02" d="M323.2 327.5l-38.6 65-10.2-20.8 14.5 62.8" />
    <path fill="#9891a1" d="M554.4 498.7l-1.8-4L542 487l19 6.7" />
    <path fill="#652009" d="M650.8 212.4L612 199l-39.2-6.6 32.6-2" />
    <path fill="#4499d8" d="M664 516.4l-16.4 19-12.8 7.2L654 519" />
    <path fill="#4d120c" d="M732.8 512l9.6-43-2.5 25.6 23 27.4" />
    <path fill="#57a6e4" d="M618.7 517.3l-.5 6.5 24 22.4-38.4-23.7" />
    <path fill="#701000" d="M409.4 214l86-48.7-52.5 16.5 40 13.2" />
    <path fill="#a7bfc0" d="M345 500.7l106 81 60.3-38.8-62.3 37" />
    <path fill="#ffa84b" d="M348 392.5L331 464l5-87.2 4.4 13" />
    <path fill="#ffd089" d="M364.2 426l-35.3 7.6 47-28.4-14 108" />
    <path fill="#05121d" d="M382.4 622l63-34.6-1.8 125.6-.6-85.8" />
    <path fill="#fff2b8" d="M357.6 527l-4.8-88 32.2 55-1.2-26" />
    <path fill="#140000" d="M353 204.6l-131 19 214.2-111.2-210.8 152.2" />
    <path fill="#ff8507" d="M414 283.7l-60.3 31.7-20.5 46.6 68-95" />
    <path fill="#fffefd" d="M569 521.5l31-233.3-133.2 10 38.7-15" />
    <path fill="#210200" d="M683.5 235l-36.8-73.6-18.6-7-26 12.6" />
    <path fill="#2b75af" d="M518 565l16-22.3 18.3-10.4-14-5.2" />
    <path fill="#ec410d" d="M385 421.3l-5-5.2-16.6-31 16 8" />
    <path fill="#fefefd" d="M645.8 309.7L596.2 286l-63.7-4.7-38.7 13.5" />
    <path fill="#f2f8f9" d="M545.4 484l14 28-92 49.4 89.4-63" />
    <path fill="#1d0000" d="M218 558.3l1.8-122.4-23 17 43 103" />
    <path fill="#b70c00" d="M451 291l-1.2 8 72.8-26.5-72.2 14.5" />
    <path fill="#b1becf" d="M734.3 535l-36-37 61 56.8-57-37.6" />
    <path fill="#d94d1f" d="M486.2 214l-7.3-11-39 44.5 23-7.5" />
    <path fill="#802408" d="M284.7 460.2l-38.6-29 13 43.8-33 16.3" />
    <path fill="#e71b00" d="M431.6 311.8l50-19.8 32.2-22.2-109 54.6" />
    <path fill="#071826" d="M652 611l-8.6 34.7-32-21.5 12-16" />
    <path fill="#6e90af" d="M336.8 544.7l-43.6 54 37.2-46.4 46.6-16.8" />
    <path fill="#7a1000" d="M730.3 368l18.5 24-1.8-32.5-44.5-23.2" />
    <path d="M517.7 81.2L669 158l172.8 32.4L338.3-31" />
    <path fill="#020000" d="M61 191.5L238.7 207 450 114.7l111.4-104" />
    <path fill="#0e111d" d="M803 590.5L716 543l-74.3 105 68.7-118" />
    <path fill="#feffff" d="M641.8 518.8l46-14.6-12.5-15.6-162.6 35.7" />
    <path fill="#d84e25" d="M668 275l-67.8-39.7 7.6 5.6 12.2 21" />
    <path fill="#b62908" d="M640.4 248.4l82.4 96-76.5-76 20 6.6" />
    <path fill="#d6eaf2" d="M485 478.2l56.6-3.2 10 5.6-53.8 2" />
    <path fill="#082038" d="M556 586.6l-4-23.7 26.6-8-13.6 2" />
    <path fill="#c63b0e" d="M290.7 414.5l40.2 57-66-42.5 28-56.3" />
    <path fill="#6eb7de" d="M453 565.8L431 579l-3-4 4-2" />
    <path fill="#ffac43" d="M402 348.8l.8 28.8-10 27-1 4.2" />
    <path fill="#856968" d="M290 547.2l-24 1.5-4.4-2.5.8 6.2" />
    <path fill="#c8552f" d="M596.6 208.2l-114 6.2 98.8 4.6-58.5-11.7" />
    <path fill="#1a3e55" d="M459.3 618.8l80-84.6-22.6 16L464 605" />
    <path fill="#fcb518" d="M358 346l15.5 9.4-22.5 14.3-1.4-26.7" />
    <path fill="#fdfefd" d="M669.2 326.4L644 308l-149-20.6 197.7 74.8" />
    <path fill="#410300" d="M727 329.4l36.5 64-25-104-14 9.8" />
    <path fill="#446b9c" d="M319.5 582l.7 11.5 46.8-37.7-28.2 11.6" />
    <path fill="#283f69" d="M689 549l-19.3-33.8 8 3L691 536" />
    <path fill="#a02b0e" d="M501.3 164.5l63 65.2-45-8.4 39.5-6.6" />
    <path fill="#000613" d="M223.7 641.6l66-63.4L138 606.7l98.6-11.6" />
    <path fill="#363530" d="M870.7 621l3.5 13.7-77-59-24.5-8.3" />
    <path fill="#fec957" d="M404.8 310.3l9.3-10 10-15-43 26" />
    <path fill="#651a16" d="M720.8 510.5l-1-21.4 12.4 21 46.6-4" />
    <path fill="#d34a1a" d="M318.6 322l15-16.2 81-90.5-104 84.2" />
    <path fill="#6d0e00" d="M279.7 277.6L431 204l-57.5 22-36.6 30" />
  </g>
</svg>