<svg version="1.1" viewBox="0 0 1024 682" width="1024" height="682" xmlns="http://www.w3.org/2000/svg">
  <g fill-opacity=".5">
    <path fill="#9496a2" d="M120.5 199.3l-84-8.8-8.8-57.7 7.8 61" />
    <path fill="#95deff" d="M749.7 50.5l-479.7 56 426.2-27 93.7.2" />
    <path fill="#1f3b4f" d="M626.2 593.7l-52.8-17.3 42.5-1.6 18 9.2" />
    <path fill="#caf3ff" d="M306 182l-89.5-.5-19.4 9.7 47 9.7" />
    <path fill="#96a7c8" d="M669.4 466l17 12.8 10.4 7-8.4 7.6" />
    <path fill="#3d597e" d="M659 540l-91.7 42 37-12.5 83.6-81" />
    <path fill="#d5e5fb" d="M371.2 426.8l-9.8 21.8 31.6.8-46.3-1.5" />
    <path fill="#7b7879" d="M177.5 561.7L144.2 580l62.8 55.5-64-47.6" />
    <path fill="#82d3ff" d="M726.3 9.4L463.3 60l377-29.6L741.5-31" />
    <path fill="#747171" d="M884.5 365.8L853 376.5l26 2.8-44.5-86.3" />
    <path fill="#3d4454" d="M849.6 370.7l-2.4-73.7 29 11.4-29-15.8" />
    <path fill="#a7bfe4" d="M726.7 308.7L730 289l-27 6.7 44.7 13.3" />
    <path fill="#abe1ff" d="M300.5 90.6L133 102l163.2-61.6 122 13.7" />
    <path fill="#c8c1c0" d="M69.8 155.3l46-14.2-37.5 2L93 181" />
    <path fill="#93b7fb" d="M353.6 430.5l25 10 39-17.6-83 19" />
    <path fill="#8f9296" d="M850.8 281l-49.4 19 10.8-20.8 8.5 20.8" />
    <path fill="#6e92ca" d="M677.3 290.8l-53.8 72L672 299l45.8-12" />
    <path fill="#a5c6f4" d="M337.4 408l13.6-14-55.4 9.3 138.3 11" />
    <path fill="#716e6f" d="M16.3 616.8L.5 591.3-31 625l45-54.2" />
    <path fill="#243e4d" d="M316.4 564l75 33-73.5-48 29-4" />
    <path fill="#c0e8fd" d="M171.7 79.4l47.8-5.5L338 25l-76 5" />
    <path fill="#b4b8c7" d="M154.2 466.5L142.5 496 123 514l38.5 9.4" />
    <path fill="#596080" d="M147.7 240.2l-11.3-39L139 231l5 9" />
    <path fill="#011133" d="M817 421.7l3.3-4.2 12.5 77.2 8.5-4" />
    <path fill="#3f474c" d="M782.2 305.2l32.4.5-38.6 28.8 38-13.5" />
    <path fill="#54533f" d="M232.2 670l-9.5 38.8 14-25.4 1.2-16" />
    <path fill="#666779" d="M130 329l-1.7-15-23.2 2.3 44 1" />
    <path fill="#2b3c3d" d="M644.5 627l22.3-13.3L693 581l-51-1.3" />
    <path fill="#f4fafc" d="M328.6 415.7l45.8-110.3-15.8 97.4-56-56" />
    <path fill="#1d3950" d="M275.3 495L257 516l88.5 57.5-76.5-55" />
    <path fill="#c6bab9" d="M994.8 175.4l20.4 60.2 15 85.6-21.6-127.8" />
    <path fill="#e8edf6" d="M469.3 403.7l-35.8-1.6 54 3-21.8-22" />
    <path fill="#636a6a" d="M131.8 495.2l14 66.5-3-18-10-55.6" />
    <path fill="#29333e" d="M782 450l2.6 108.5 44.6 41-40-42" />
    <path fill="#272a1d" d="M112.8 570l-29-18.5 22.5-6.5 7 15" />
    <path fill="#a7abc7" d="M291 332.7l6.2 26.2-16.5-17-3 17" />
    <path fill="#1a2d55" d="M901 313.5l54.4 19.6-66-45 67-18" />
    <path fill="#36390f" d="M542 501.7l9.4-3.7 19.7-.2 3 9" />
    <path fill="#4767a4" d="M718 432l-22-27 21.2-8.5 4.4 16.8" />
    <path fill="#8caded" d="M425.8 382.2l-2 2 17.4 8 13.3-3.7" />
    <path fill="#5e79a8" d="M405.6 543l7.7-39.8 46 18.6-37-20.4" />
    <path fill="#7a7c8a" d="M154.3 294.3l-1.6-21 17.7 12-27 12.6" />
    <path fill="#2d3623" d="M570.7 583.7l-59 1 71.6 28.3-7 22.7" />
    <path fill="#30506d" d="M667.2 534.6l21.4 25.7 9-27.7-40.4 63.5" />
    <path fill="#acb9d5" d="M698.7 485l-23.5.8-20-10 17.8 15.7" />
    <path fill="#e3d4c9" d="M23.3 239.4l8.3-25.2 17.2 44L59 299.8" />
    <path fill="#7188b1" d="M614.3 444.3l54.3 40.3-40.7 12.6 4-43.5" />
    <path fill="#00142f" d="M601.6 600.2l37.7-16.2h.6l-11 21.8" />
    <path fill="#d8c8bc" d="M845.7 419.2l.3 2.3 6 24-6.2 11" />
    <path fill="#93d6ff" d="M159.8 27.2L9.2 42.7-31 5.3l19.6-25.5" />
    <path fill="#dcdae0" d="M1052.8 305.8l-21-6.7-12.6 4 2.4 6" />
    <path fill="#1a4981" d="M551.6 509.3l-29 32.2 37.5 24 16-57.3" />
    <path fill="#8e909c" d="M809.7 395l-22.5-24 23.7 45 30 11" />
    <path fill="#394951" d="M234 521.8l35 16.4-39-43.2 29.5 94" />
    <path fill="#c3c3cd" d="M3.4 85.8l19.7-23v51L-31 100" />
    <path fill="#6b683d" d="M44.4 517.2l57 49.6-32-19-39.2-38" />
    <path fill="#b8afa9" d="M138.5 265.6l18.2 20.5-14.2 36 25.7-14" />
    <path fill="#757b93" d="M90 107.3L83 90l3.4-3.2 8-2" />
    <path fill="#102345" d="M699.3 500l18.8-53 2-29.3 5 93.2" />
    <path fill="#7babfb" d="M385.5 403l6.8 22.4 28.6-43.7-6 27.8" />
    <path fill="#4d556f" d="M559.8 518.6l9.7-14.8 12-30.6 14.6-6" />
    <path fill="#8e847e" d="M828 566.4l16.7 25.3 4.7-17.7-25.8-6.3" />
    <path fill="#52657c" d="M494 561l-60.3 12.8-25.7-35.4-39.2 13.8" />
    <path fill="#d7ecf9" d="M825.5 276.4l-14-46.8 56.8 29 20.3-3.2" />
    <path fill="#c6c5cc" d="M988.5 234.8l6.6 3 1 28-5-13.4" />
    <path fill="#1a2c57" d="M916.3 241l32.7-53.3-17 18-7.4 110" />
    <path fill="#192337" d="M975.2 414.5l40-3.8V425l1.6 6.2" />
    <path fill="#2b2d17" d="M175 590l4.6 8 20.2 25-.8-18.8" />
    <path fill="#162541" d="M925 535l-25.5 64 17.2-28 4-68.5" />
    <path fill="#777a8f" d="M46 91l15.3 49.3-1.3-25-34.3-55.5" />
    <path fill="#9a9aa8" d="M201.8 220l-8.3-24-2-71.2-3.6 74" />
    <path fill="#344967" d="M775.7 433l19.4-57.3-1 28-26 12.8" />
    <path fill="#6c748a" d="M191.8 490l8.2 24.4 1.4 14.3-9.3-25.5" />
    <path fill="#3e507f" d="M223.7 278l1.7 38 6.2-43h-8.4" />
    <path fill="#b2c5de" d="M568.8 385.2l20-42.7 14-1.2-39.2 42.2" />
    <path fill="#908582" d="M748.4 545l-2.6-5.7 6 29.3 5.4-7.8" />
    <path fill="#999395" d="M908.7 360.5l57.4-7.8-72-4.4 5-35.5" />
    <path fill="#646164" d="M150 556.7l-45.2-1.3 23.6 19.3 12.4-24" />
    <path fill="#c6bebc" d="M109.7 167L41.2 322l57-136.6-18.2 1" />
    <path fill="#93a9cb" d="M707.3 435.5l-2.7-12.5 8.4 1-14.6 37.2" />
    <path fill="#c8aa96" d="M970.6 349.3l7-8 3.2-7.8-15.8 2.7" />
    <path fill="#455a84" d="M243 320.2l19.5-7.5-10.8-15.5-11 2" />
    <path fill="#1c4775" d="M582 553l1.7 10.3 50.5 4.7-52.6-53" />
    <path fill="#39443a" d="M777.4 544.3l-45-9.4 4.2-24-3-8" />
    <path fill="#3c4049" d="M885 366l40-7.3-13 238.8L923 365" />
    <path fill="#364544" d="M420 581.7l119.5 82.5-127.8-66.6-207-30" />
    <path fill="#606877" d="M732.7 440.6l1.2 59-11-9 19-31.5" />
    <path fill="#acc9f8" d="M442.3 362.2l-1-1.3 47.8 5-45-1" />
    <path fill="#8d90a0" d="M93 432.4l3.6-13.2-4.2-53-3.6 23.8" />
    <path fill="#426cb3" d="M675.3 313.7l1 16 4.4-22.5 19 10.4" />
    <path fill="#434957" d="M1002 530.5l9.7-5.5-17.8 44.5 14-12" />
    <path fill="#d0bdb2" d="M133.8 212.4l-2.4-101h3.3l-13.7 56" />
    <path fill="#a6a6b4" d="M17 82l-3.7 21.7 15 118.5L21 207" />
    <path fill="#f7feff" d="M215 249.6l8 5.3 453.2-14-476.4-37" />
    <path fill="#0e224d" d="M931.5 280.6l-36.8-3.5-1.5 33 24 9" />
    <path fill="#5d6265" d="M160.5 551l-1.6-33.3-33 40.7 29-35" />
    <path fill="#626563" d="M799.4 575.3l12.2-38.2-12 47-12.2-6" />
    <path fill="#1d3a70" d="M269.8 418l9.4-12 12.5 36.6L313 435" />
    <path fill="#c4c7d3" d="M25.2 433.8l2 24.3 33.4-4-91.6-63" />
    <path fill="#2a3248" d="M870 438.7L857.8 459l10 54.5-15.7-84.7" />
    <path fill="#5e6571" d="M1025.6 435.7l-17-34.6-4.7-7-3-17" />
    <path fill="#444656" d="M708.2 611.4l11.6-22.6 46 10.6-53.2-11.7" />
    <path fill="#112529" d="M803.5 592l17.8 39.2-40.6-45.6.2 18.6" />
    <path fill="#315ea4" d="M497 409l6.7 40.6-36-41.4L474 432" />
    <path fill="#fffffb" d="M368 411.3l-23.6 14.2-11.8 15 49.2-28.2" />
    <path fill="#18223c" d="M799.7 438.4L782 450.2l48.8 32.7-46.3-83" />
    <path fill="#48516c" d="M941.6 289.7l55-139.3L1055 224l-62.4-74.3" />
    <path fill="#5d5c64" d="M917.6 438.6l1.5 40 2-1.6-12-43.8" />
    <path fill="#818394" d="M91.5 319.4l53.8-50.5-14.8 70 1.5-80" />
    <path fill="#6f768d" d="M59 171.2l12.6-35-11.2 68.4 1.7-32" />
    <path fill="#d3c9c2" d="M84 313.4l2.7-71.3-31 28 58.7 20" />
    <path fill="#79716e" d="M853 371l95.8-40.2-36.8 22.8-70.8 11" />
    <path fill="#fffefb" d="M428.8 369.7l-26.8 7 40 5.4 35.4 12" />
    <path fill="#7a7f8f" d="M136 487.8l6.2-3.3-14.8-34 .8 11.7" />
    <path fill="#666d8b" d="M200 229.3l4.8 5-1.7 73 13-25" />
    <path fill="#7f9ecc" d="M605.5 350l2.4 16.6-9-29.3 6-8" />
    <path fill="#3a3824" d="M19.3 468l130.5 81-102.6-69.5-7.6-16.2" />
    <path fill="#58511f" d="M87.7 615l46 17-99-71.4 69.5 40.6" />
    <path fill="#a69b93" d="M869 413.8l-11.3-8.8-11-18.7 48 50.2" />
    <path fill="#50454d" d="M918 600l28.6-27.2-7-3-5.8 24.6" />
    <path fill="#212810" d="M124.2 713l-16.7-75.3 50 75.3-19.4-58.6" />
    <path fill="#736e6e" d="M827.6 581l-2 18 7-.3 10-12" />
    <path fill="#9f9ea5" d="M245 458l-3.5-12.4L234 415l-8.3 54" />
    <path fill="#475377" d="M120 146.6l-6.4 8.2 11.7 1.8-1.6-16.5" />
    <path fill="#74737b" d="M1020.2 426.3l-3.5.8-.7 6 4-38" />
    <path fill="#667db2" d="M898 266.7l-6 27.5 3-37-16.2 18.4" />
    <path fill="#05193c" d="M741.4 449l33.3-79.7-15.2-35 15.6.6" />
    <path fill="#2c3112" d="M103.8 580.2l-48-26-1.6 3.6 72.6 47" />
    <path fill="#98bdf6" d="M361.2 408.6l-51 13.4 24.6-12 57.5-15" />
    <path fill="#898c9a" d="M409.7 574.5l-10-19 11.6 1-4 3" />
    <path fill="#3b3c59" d="M901.3 612.8L893 584l-8 21.7 16.5 19.8" />
    <path fill="#546179" d="M298 492l-5.5 58.2 2.3-13.2 6.4-25.6" />
    <path fill="#858793" d="M141.3 418.4l-.5-48.4 2.6 26 2.6 12.5" />
    <path fill="#1d3750" d="M416.4 587l-54-19.7-81.2-57 121.4 71" />
    <path fill="#daecfc" d="M731.6 305l12.3-4.7 1-34.6-3 29" />
    <path fill="#4c5366" d="M998.6 241.3L974 199.7l9.7-23-10-8" />
    <path fill="#969198" d="M15 255.7L3.6 240.5l10.6-3L7 281.8" />
    <path fill="#5f5c5c" d="M783.3 494.4l-8.6-10.8 1 13.8 8 5.6" />
    <path fill="#aaaab1" d="M176 486.8l-11.4-7.3-7.3-43.6 10.7 31" />
    <path fill="#627a9f" d="M445.5 456.8l-1.2 95.6 13.5-65-37.5 1.6" />
    <path fill="#203158" d="M971 225.6l-19.7 8.2 27.5 9.2-7.5-30.8" />
    <path fill="#a4c1eb" d="M386.7 450.6l-16.3 25 1.4-52.5 6.5 29" />
    <path fill="#44474f" d="M842.7 517.3l9 13 19.4 34.5 11 34.8" />
    <path fill="#203030" d="M540.7 632.3l-18.2 22.2-13.4-22.8 23-11.7" />
    <path fill="#9596a1" d="M1018 286.2L981 183l34-11.3-36.2-1.3" />
    <path fill="#c0c0c7" d="M991.6 269l-4 2.8L980 304l1.7 24.7" />
    <path fill="#5d80c0" d="M626 323l12 15.5-15.6-25.6 4.7-2" />
    <path fill="#bfbec4" d="M54.8 133l8.7 32.7-41-6.8 34 12" />
    <path fill="#f9fcfc" d="M340.5 414.7l98.2-92.2-163 14.6 96.6-1" />
    <path fill="#757185" d="M25.5 320.4l3.8-7.4-13-23.5 6.5-24.8" />
    <path fill="#c4eafd" d="M470.8 39l-61.6 22.7-158-51.8 66 18" />
    <path fill="#3e4134" d="M968.6 426.6l-35.3 6.5-18.4-9 63-19" />
    <path fill="#727487" d="M994 218l-15.7 71.8 9.3-80.4-51.6 10.4" />
    <path fill="#393937" d="M172.2 590.3L143 582h24.2l-45.8-76.5" />
    <path fill="#303344" d="M982 430.4l47 7.8-51.5 60.4 5.8 4.3" />
    <path fill="#e0e1e7" d="M46.6 457.5l-1-40.2L25 318.8 39.3 333" />
    <path fill="#0d1540" d="M934.7 521.5l4 49.4-8.2-43 8.5-72" />
    <path fill="#2f59a3" d="M640.8 353.8l-71 102.3 56-89 17.4 41" />
    <path fill="#4584e6" d="M521.8 332.6l13.6-2.2-1 44L519 362" />
    <path fill="#4f5730" d="M345.2 648L252 599.3l136.4 49.3-57 7.6" />
    <path fill="#d3efff" d="M860.2 77.7l194.8-1-103.6 30-151.6-22" />
    <path fill="#7a93bf" d="M31.8 45.5l26.8 13.8L70.3 69-6 30" />
    <path fill="#696540" d="M162.8 558l-60.2-42.7 64.6 34 .6-36" />
    <path fill="#777b99" d="M195.4 129.7L169 132l-13.5 6.7 32-22.7" />
    <path fill="#797e91" d="M298 525.8l5.5-18.6-30.4 4 30-14" />
    <path fill="#545c7a" d="M62.3 175l2 17.2 2.6-38.5-2-5.6" />
    <path fill="#365a93" d="M552.8 529.5l-37 7.3 4.7 18-60.4-15" />
    <path fill="#7b767c" d="M921.8 447.7l3.6-6.2-41-15.2 39.3 18.8" />
    <path fill="#484e5d" d="M752 369l-10-4.4 9.5 26 2.4-3.8" />
    <path fill="#afd0e6" d="M174.6 68.3l13 77L221.4 29l-36.6 125" />
    <path fill="#091200" d="M847.2 708.2l29-92.5 1 17.4-61.3 80" />
    <path fill="#a1a0ac" d="M141 362l-34.5-52 33.5 95.5-24.2-38" />
    <path fill="#10262b" d="M408.7 619.4l-17.4-2 8.5-19.6 26 13.5" />
    <path fill="#2c4159" d="M326.8 486.3l22.5-11.2-31 1h2.3" />
    <path fill="#1f2810" d="M700.4 689.5l19.4-60.7 10.5 7.3-3.7 20" />
    <path fill="#325ba8" d="M737.8 365l20.7-2-32.6-46.3 19 42.7" />
    <path fill="#2f404f" d="M248.7 489.2l-18.8 1.3 4 17 22 33.5" />
    <path fill="#7d7879" d="M148.8 593l45.8-7.3-26.5 13.6-7 10.3" />
    <path fill="#6f6d6e" d="M857.4 538H819l57 17.8-31-41" />
    <path fill="#7f849d" d="M271 350l2.4-4.2-17-36.2-1 28" />
    <path fill="#cbcad1" d="M165.6 506.8l22.6-49-10.5 86L137 434.5" />
    <path fill="#262a3c" d="M886.6 498.6l-5-2.4v5.3l43 20.3" />
    <path fill="#c1b4ac" d="M150.3 215l10.6-10.4 6 64.2-18-20.3" />
    <path fill="#bfbcbf" d="M151.8 368.7l-8.8 56.7 37-46.6 59 66.3" />
    <path fill="#7e8093" d="M164.5 172.7l-1.2-1.7 10.6-5.3-6 58.3" />
    <path fill="#363914" d="M136.7 634.2L99 609l-40.2 6-22 6.5" />
    <path fill="#e9e7ef" d="M17.3 444.2l-14 1.6-34.3-115 8.4 83.8" />
    <path fill="#34403b" d="M814 614.2l-1.6-64.2H806l31.4 74.6" />
    <path fill="#112328" d="M1006.5 576.7l-11.8 40-44.5-1-67-1.2" />
    <path fill="#2c312f" d="M1039.4 365l15.6-34.3-57 39.5-41.5-24" />
    <path fill="#b1aba8" d="M139 200.2l-11.4-19-7.8 6 24.3-12.5" />
    <path fill="#49461b" d="M26.7 566l23-10.7 3 35.4L9 585" />
    <path fill="#1b253f" d="M721.4 417.8l61-9.4-18-9-21.2 18.5" />
    <path fill="#323b06" d="M600 697.2l-58-47.6-6.5 21 87 21.8" />
    <path fill="#8399c8" d="M657.8 347.8l-17.3-2.3 2.6-41 20 31.6" />
    <path fill="#ddd8da" d="M21.7 134L36 202.7l-9.6 9-2-55.6" />
    <path fill="#1f3a52" d="M416 572.4l-37-4 72.3 23-29.8-25.2" />
    <path fill="#e6f7fe" d="M845.4 252l65 8 17.8-55.4 25.2-55" />
    <path fill="#20519a" d="M621.6 406l-12.2-28 15-17.5-27.5 85.8" />
    <path fill="#26322e" d="M925.8 585.3l31.5 79.3-38.4-51.4-19 30.8" />
    <path fill="#f6fefe" d="M916.3 240l-5.7 15.8-30 7.4-14.7-12" />
    <path fill="#5d616a" d="M824 278.8l5 52.8-5-19 6.7-25.2" />
    <path fill="#73809f" d="M264 423.6l-19-32-24.3 2L268 409" />
    <path fill="#19240e" d="M864.7 573.2l-32.8 30 31-8.8L803 713" />
    <path fill="#998d84" d="M899.5 466.7l-37-49 8.4 23.8 33 16" />
    <path fill="#6d86ae" d="M509 507.6l6.8-11.8-16.6-24 5.7.5" />
    <path fill="#32403c" d="M675.5 635.8L633.2 601l66.7 7.6-46-26.8" />
    <path fill="#b3b8c2" d="M49.4 98.4l50-49-92.6 89L53.2 71" />
    <path fill="#696a81" d="M1016.8 197L992 172l63 24.2-19-36.3" />
    <path fill="#c9bbaf" d="M2.8 309l1.5-53.5L-23 205l34 45.7" />
    <path fill="#a8a8b1" d="M41 49.6L71.5 296 46.2 166l15 47.5" />
    <path fill="#1d374c" d="M305.3 534.3l-1 26.8-27.5-16 34.2-23" />
    <path fill="#8a91aa" d="M348 503.4l45.7 66.5-54.4-100 18.4 57" />
    <path fill="#3a3b3c" d="M942.5 392.7l-9.4-7.4 30-2 92-40.3" />
    <path fill="#89b2f1" d="M379.8 380.2l-6.3 5 83 49.7-59.7-39" />
    <path fill="#8792af" d="M227.3 359.6l-16.7 5 24.2-45.7 8.4 18" />
    <path fill="#d0cbcd" d="M151 398.6l80.7 54-72.5-84.5 37.3-11" />
    <path fill="#2d3618" d="M1019.3 575.4l35.7 37.8-3.2 21.5-47.4-36.8" />
    <path fill="#d0cac7" d="M37.4 321l-10-38-12 38.3 6.6-33.8" />
    <path fill="#171a2c" d="M887 471l4-13.8-.5 46.4-6-30" />
    <path fill="#1c2937" d="M787 549.5l10.8-47-33-43.6 33.2 63" />
    <path fill="#173250" d="M294.8 477.5l7 10.4-20.3 15-7.2-13" />
    <path fill="#9b98a0" d="M872 318l17.5 39.8-27-18 1-13.6" />
    <path fill="#8a96ad" d="M344.7 519.7l-12.2-1.2.4-5-44-47.5" />
    <path fill="#f2fefe" d="M805 247.3l-63.8 34-44.8-23.5-115.7 67" />
    <path fill="#7e768a" d="M3 181.3l-34 95v58L-1.8 84.5" />
    <path fill="#516281" d="M329 520l-2.7 29.5-5.3-60.2-14.8 9.8" />
    <path fill="#5c6463" d="M299 579.4l-29-23.7-34.6-2.4 52.3 22.2" />
    <path fill="#3d3c23" d="M135 595.8l34 14.8 12.8 24.6-66.3-53.6" />
    <path fill="#96ddfd" d="M457 81.5L351.7 54.2l-13.4 36L518.6 33" />
    <path fill="#b3e4ff" d="M810.4 76.4l-294.2 30 184-1.7L805 64" />
    <path fill="#f0fafc" d="M675 320.4l-29.4-40.8 8-16.5 10.7 51" />
    <path fill="#202945" d="M1055 406l-49.3 1 9.7-31 39.6 244" />
    <path fill="#787a80" d="M109.5 446.6l-5-8.7 3 15L148 570" />
    <path fill="#c3c6d1" d="M242 560.8l-27.4-13.4L227 566l-14.3-10.2" />
    <path fill="#2a301d" d="M164 562.2l-3.6.7 6.2 13-32-33" />
    <path fill="#9f9184" d="M878 531.3l-3 21.5-2 20.2 1.4-50" />
    <path fill="#3e4842" d="M733.7 649l-10.3-46-9.2 11.3 32.5 27" />
    <path fill="#605e67" d="M243 633.4l-11.7-9.6 16.5-3.7 3-4" />
    <path fill="#4772b2" d="M612.7 326.6l-58.3 30.8L552 391l-.3-24" />
    <path fill="#96a0ba" d="M248.4 324.6l-8 37.2.2 65.2 5.5-46" />
    <path fill="#aeb1be" d="M113.5 512.5l-18-18 46.2-17.3-52.2-3.3" />
    <path fill="#686b70" d="M79.8 487.3l-31.2 65 35.5-75-6-60.5" />
    <path fill="#4b4f57" d="M846.6 379.7L761 360.5l64 18.4-30-47" />
    <path fill="#334776" d="M278.5 331.3l-6-13.7 7 49 .5 123" />
    <path fill="#20315b" d="M945.6 230.7l1.7-54.3-3.6 2 9.2-14.2" />
    <path fill="#cdc6c7" d="M43.6 405.7l12-54-5.2-37.5v42.2" />
    <path fill="#56525b" d="M911.4 569.7l5.6 19-7.5-31.5-7 1" />
    <path fill="#d4f1ff" d="M378 194.5l28.5 2.5 80 13 223-31.4" />
    <path fill="#7896c3" d="M577.4 405l7.6 10 29.8-33.3L606 400" />
    <path fill="#2a331c" d="M857.2 608l73.4 105-84-147.3 2.4 3.8" />
    <path fill="#2b3523" d="M850 652l9.3-92 3.3 50.5-33 52" />
    <path fill="#6e6e6d" d="M798 351l2.6-43.7-14.8-23L821.6 392" />
    <path fill="#3c69b7" d="M751.6 323l-20 .5 17-23 8.3 9" />
    <path fill="#747588" d="M171 460.5l10.3 2.3L162 444l9 5.6" />
    <path fill="#505660" d="M846.4 393l-15.7 22-11.7-27 33.7 28" />
    <path fill="#848988" d="M182.8 577.4l30.8 25.8-20.4-9-20-18.3" />
    <path fill="#d2defa" d="M564.6 335l-15.4-9-5 14 13 14" />
    <path fill="#3b6098" d="M510 440.4l-55 45.8 58.2-52.8 43 100.5" />
    <path fill="#686968" d="M888.7 363.4l63.5 40.3-49.4-48-20-28.3" />
    <path fill="#a8a19b" d="M894.4 327h26l17.5 3.7-49-20.7" />
    <path fill="#444f60" d="M556 478l56-10.7-31.7 8-33.2-5.7" />
    <path fill="#7b91bd" d="M714 402l-37.5 9.3 28.2-35.4 10.3 62" />
    <path fill="#e8d3c0" d="M91.8 286.2l-10.2 18.2 4.6 18.5-.4 30" />
    <path fill="#9eaec9" d="M490.6 414.6l-12.7-7.8-7-6.8 14 17.4" />
    <path fill="#5877a8" d="M835 275.6l-23.5 6 26 3 22-13.2" />
    <path fill="#bae7fc" d="M1027 86.4l-154 41.2 181.8-20-31 85.8" />
    <path fill="#77859e" d="M267.4 477.7l9.2 7.3-55 6.5-3.5 1.8" />
    <path fill="#283631" d="M849 545.6l-18 25.7 19.2-13.3-28.7-11.5" />
    <path fill="#427cd4" d="M399 500.6l-21.6-11 24.3-27.8-17-3.8" />
    <path fill="#90a7c9" d="M564.8 369.8l-3.6 1 3.3-9.5 23.3 22" />
    <path fill="#d9d9de" d="M34.4 209l-6.2-13.5 18.6 4.6 9.6 16" />
    <path fill="#263435" d="M578 638l-6.8-10.4-10.8-12-26.7 26.6" />
    <path fill="#6b6f82" d="M1015.8 254.4L983 226.8 972.8 192l42.6 69.4" />
    <path fill="#435259" d="M182 559.6l13.5-10.3-59.2-26.6 11.6-1" />
    <path fill="#777274" d="M900.4 330.2l17.5 12-25 17.8 18 16.2" />
    <path fill="#1b4784" d="M436.7 546.6L425 557.8l13.4-44-.3 11.8" />
    <path fill="#14213a" d="M717.3 562.3l9 27L725 601l-8.7 11.6" />
    <path fill="#707166" d="M783.4 575l-19.6-15 15 17.3 3.3-4" />
    <path fill="#cbdef2" d="M739 359l-5.3-9.7L739 333l-1 16.7" />
    <path fill="#1d2b1a" d="M782.5 656.7l-18.8-15 8 32.2 95.3-76" />
    <path fill="#dff5fd" d="M652.5 236.3l194.7-9.3 15.8 70.8-15.4-43.5" />
    <path fill="#1c2518" d="M294.5 659.2l47.8 46.4-57-49 19-27.8" />
    <path fill="#dee8f7" d="M495.3 369l-87.5-3.7 26 27.4L380 371" />
    <path fill="#eae9ed" d="M1018 282.8l37 41v-55.4l-37 5.4" />
    <path fill="#feffff" d="M507.5 333l25-120-30.8 148-220-39" />
    <path fill="#70768d" d="M258.2 353l-4.2 24.8-10.8 61 13.6-61" />
    <path fill="#80878e" d="M738.7 447l-.8-5-17-19 11 29" />
    <path fill="#656989" d="M221.5 317.3l-1-10.6 4 31.3 4.6-60.5" />
    <path fill="#4d5a71" d="M978 157.5l-6.3 2-4.8-17.2-8 49.7" />
    <path fill="#4c5852" d="M270 591.2l31-11-91.4-2-32.7-37.4" />
    <path fill="#747571" d="M1043.3 333.4l-29.7 7.2-29-28.4 26.2 13" />
    <path fill="#5d7eaf" d="M570 364.2l6.6 24 4-21-31.7-7" />
    <path fill="#e0dfe5" d="M217 499.7l.2-46.5-15.6 5L195 497" />
    <path fill="#293a66" d="M251.3 456.6l2-53-6.4 75 39-4" />
    <path fill="#d2e0f3" d="M462.6 425.8l-3.8-.5-4.8-31.8 10 15.6" />
    <path fill="#5a6755" d="M536 597.6l5 31.5 7-8-9.2-15" />
    <path fill="#4d5577" d="M139.6 237l8-1-12-17.6.5 1" />
    <path fill="#2a3114" d="M215.5 670.7l3-26.4-46 68.7H67" />
    <path fill="#d3e4f2" d="M724.3 289.2l8-88.7-13 116.3 9.6-37.4" />
    <path fill="#f2fefe" d="M634.8 310l-18.3-31-14 53.3-151-14.8" />
    <path fill="#234c91" d="M614.5 516l-19.3-37-9.7-5.6-7 34" />
    <path fill="#535660" d="M748.5 519.5l29.5 4.7 22.3 29.6-52.2-35.4" />
    <path fill="#807e83" d="M117 238.8l11.7 12.4-9-21.4.7-27.2" />
    <path fill="#c9deef" d="M895.3 165.3l-9.6 134.3-15-27.4 14.6 18.4" />
    <path fill="#dbeaf5" d="M581.8 305l25.4 64.2 2.4 22.7-28.2-94" />
    <path fill="#d0d0d8" d="M223.7 530.2l-28-66.6 53 97.8L232 546" />
    <path fill="#112037" d="M783 485l9.6 15.8-13.8-16.8 30.6-31.4" />
    <path fill="#969ab0" d="M153.6 98.8l-21 56.6 11.6-49.3 37 14" />
    <path fill="#484859" d="M884.7 527.7l11.8.4-2.8-9-9 52" />
    <path fill="#eaf3f7" d="M599 343.8l2.3 23.3h8.2l-18.2 12" />
    <path fill="#5b627a" d="M141.8 361.8l-8-54.7 7.7 23-1.6 28" />
    <path fill="#424c2b" d="M312.6 713l43.4-86.2 31.8 46.3-45.2-12" />
    <path fill="#b5a89d" d="M866.5 428.3l2.7-11-12 17.6 33.4-10" />
    <path fill="#2b3735" d="M806.6 545.3l9-24.4-25.2 45-35 87" />
    <path fill="#3b67a5" d="M557.7 389.4L545 370l22-18-15 25" />
    <path fill="#a7a497" d="M945.8 438.8l8-17-2 14.3-10.5-2" />
    <path fill="#6f672c" d="M20 490.8l-14.8-.4-35.4-16.2 50.4 37.2" />
    <path fill="#9099b6" d="M222.7 366l6.5-73.6 11.2-4-4.3-9" />
    <path fill="#41638d" d="M515 518.6l18-17-141.4 1.8 107.7-23.6" />
    <path fill="#52524b" d="M178.2 659l-22-13.4 44.6 22L194 635" />
    <path fill="#345ca6" d="M714 314.6l-2.7 54.5-5.5-31-2.6-5" />
    <path fill="#72778d" d="M84.3 239.7l8.6-37-4 48 9-4.3" />
    <path fill="#cadbf5" d="M440 375.7l-10.7-30 31 23.7-.6 11" />
    <path fill="#454d44" d="M566 643.3l1.3-32.4 10 8 .7 8" />
    <path fill="#4d5a72" d="M756 424l6.2 18-12.7-3.7v-5.7" />
    <path fill="#baceea" d="M772.4 284.4l-14.6 12.4 12.6 5.8-9 26.4" />
    <path fill="#c3c9d8" d="M201.2 313.5l-19.2-1.8 18.2 76 12.5 9.8" />
    <path fill="#fcfefc" d="M470.4 375.3L432.6 407l6 9.8L463 393" />
    <path fill="#2a353c" d="M826.8 515.4l-4.4-6-128.3 9.3 101-5.7" />
    <path fill="#52585b" d="M719.7 542.8l-8.4-2.2 17.8 40.2 8 40" />
    <path fill="#1a2843" d="M787 363l-2 34.8-64.7 39.2 66.2-30.4" />
    <path fill="#5a82c1" d="M665.4 306l-22.7 3 22.3-9 36.6 11.5" />
    <path fill="#889dc3" d="M639 421.4l57.3 52.3-31.7-40.4L655 383" />
    <path fill="#b2b6cd" d="M288 341.5l-7-30.6-2.7 13 21.3 71" />
    <path fill="#b5afb1" d="M174 405l20.4-.3-11.4-23 15.4-11.3" />
    <path fill="#597db8" d="M827.3 264.4l-50 23.8 30.7-14.5-53.2 12.2" />
    <path fill="#000420" d="M912.6 561.3l-11.2-12-3.8-16.6 26.2-1" />
    <path fill="#040723" d="M898.3 584.5l-21.6-22.8 32.2 26.8-13-47.7" />
    <path fill="#dfd2c7" d="M13.4 178.4l4-.2L16 244l-1.7 137.7" />
    <path fill="#e3f8fe" d="M769.3 252.3l-209 14 161-39.5 58.4 45" />
    <path fill="#3d69aa" d="M532.8 362.6l1 13-65 61 37.2-31.4" />
    <path fill="#bee8fb" d="M933.6 108.2l55.7 39-28.5-40-33-24.3" />
    <path fill="#4d6080" d="M959.5 231.8l7.3 71 6.6-51.2-6.5 4.7" />
    <path fill="#bbb3b8" d="M995.7 184.7l19 15.7 7-7.2-25.8 1.4" />
    <path fill="#4d4851" d="M883.4 482.6l5-22.3-2.3-40-4 44.3" />
    <path fill="#343d23" d="M285.2 622.3l55.4 23.5-38 67.2 22.8-69" />
    <path fill="#918b88" d="M944 351.2l11 10.5 29.7 16.5-8-12" />
    <path fill="#a2a6b1" d="M1032.6 326.3l-18.3-5-28-21.7-8.5 5.7" />
    <path fill="#525a6b" d="M18.2 298l2.4-63.3-5 49.3-1.3-16.7" />
    <path fill="#5b5f66" d="M1017.3 399.3l37.7-29v43.4l-34.3-34.7" />
    <path fill="#2b425b" d="M342.2 492.7l-22.8-16.3 2.7-7.4 2 4.7" />
    <path fill="#01142c" d="M654.3 628l-1.8-5.6-11 9.8H662" />
    <path fill="#a1968a" d="M900.8 487v-42.3l-2 35.2-.3-5" />
    <path fill="#d1d1d9" d="M183.2 463.8l-14-56.8 49.8 78-59.3-54.4" />
    <path fill="#2754a1" d="M671.6 337.2L667 345l16 3.6-7.4 17.8" />
    <path fill="#d3cac4" d="M117.4 179.6L97 153.3l11.2 21.6 7.8 14" />
    <path fill="#353c26" d="M254.4 622.7l3-30 15.8 22.6L210 609" />
    <path fill="#9c9ca5" d="M154.3 233.4l-29.7 72-20.2 16.2 37.5-53" />
    <path fill="#0a1a37" d="M774 357.3l10.7-71-26 113.2L795 321" />
    <path fill="#959dab" d="M267.3 374.3L246 408l31-21.7 5.5 23.5" />
    <path fill="#5376b2" d="M623.4 397.7l-1-16.3 12.6 30.8 13-11.6" />
    <path fill="#a8a4a9" d="M210.3 378l8.5-121.5-2.2 164 10-17.8" />
    <path fill="#4c4f5b" d="M725.7 520.2l-12-11.5-5 2.6-3.6 21" />
    <path fill="#93abcd" d="M886 274.8l-39.7-7 58 7.3 10.3-10" />
    <path fill="#363a24" d="M-6 519.5l52.8 16L43 511l42 22" />
    <path fill="#b1e3fd" d="M218 58.7l-111.7 6.8 26.7 35L145.3 44" />
    <path fill="#040d25" d="M691.3 589.6l-12.7 12h21.7l1-71.3" />
    <path fill="#62645b" d="M818 370.7l-9.7-16.5-22.2-15.5-8 3.4" />
    <path fill="#7e796b" d="M965.4 399l-5.5 4.2-5-10.8h12" />
    <path fill="#383b1f" d="M31.4 574.8l-6.8 70.8 6.2 67.4 8-14.3" />
    <path fill="#cadaec" d="M578 345.8l5.8 38-.3-28.7-24.2-54" />
    <path fill="#5e81ba" d="M756 297.2l-8-5.2 12-17.5 9 6.5" />
    <path fill="#d8cfd2" d="M80.5 109.2L76 90.5l27 29.3-1.6-22.4" />
    <path fill="#414549" d="M1007.3 588l14.4-89.2-4.2 60.5-6.6 33.4" />
    <path fill="#343a22" d="M166 630.3l-15.2 4.5 21.4 6.6 2.4 71.6" />
    <path fill="#1b2811" d="M978.3 641.6l20.4 27.6-23.6-59.4-14 98" />
    <path fill="#061322" d="M1014.8 569.2l-16.5 16.2 8-23.2 3.5-3.8" />
    <path fill="#051946" d="M926 269.5l.7 15.3-14.7-21.6-6.5 19" />
    <path fill="#1d211e" d="M1.4 447L-31 416l48.8 51.2L39.3 478" />
    <path fill="#243355" d="M976.6 310.4l-32.3 15.4-6.2 9.7 8-25.2" />
    <path fill="#1c2036" d="M841 489l5.4 11 4-17.8 26.6-.5" />
    <path fill="#9297ad" d="M345.7 540.2l-31.3-12.4-10-22.2 11 19.8" />
    <path fill="#717a99" d="M997 145.7l58 18-74-26 9.4-3.8" />
    <path fill="#3d4434" d="M539.3 669.4l-85.6-16.2 18.6-41 16.3-.3" />
    <path fill="#343853" d="M-.2 157l-8.6-1.7L-31 125l21.6-43.7" />
    <path fill="#87848a" d="M826.2 378.6l-6 36-4-10 2.4-25" />
    <path fill="#192736" d="M714.2 496l31.4 35.4-37.4-1.6 25 27.5" />
    <path fill="#7b746e" d="M853.3 350.7l21-6.3-58.6.3 62.4 39.5" />
    <path fill="#9597a7" d="M174.4 113l5.7 52.4-2 32.4 9-47.2" />
    <path fill="#373c42" d="M901.3 381l-2.3 54 7.7 4-11.4-21" />
    <path fill="#64709c" d="M230.4 261l-1 15.5 2.2 12.5 2.7-24.7" />
    <path fill="#677081" d="M340.5 472l25.7 32.3 7.2-13.4-7.4-7" />
    <path fill="#303b55" d="M771 344l46.7 49.6-19-40.4 12.3 33" />
    <path fill="#315a9a" d="M574 460l-2-57.5 14 7.8-17.5 9.6" />
    <path fill="#b8b1b1" d="M56.8 279l-13.4-7 9.3 51.3-6-108.5" />
    <path fill="#36412c" d="M780 626l-3.2 87 9.4-77.6 36.5 5.5" />
    <path fill="#172945" d="M774 397l30.3-38.8-67.6 117 5.5-12" />
    <path fill="#515058" d="M857 424.3l17.8-10.3-20-.6-3.8 70.8" />
    <path fill="#6b6e80" d="M121.7 155l3-10.3-12.2 29.5-3-20.6" />
    <path fill="#9ce1fe" d="M184 108l-65-25 100 47.3 156-48" />
    <path fill="#7b7778" d="M826.8 484.6l-19.8-9 15.5 7.7 11.3 19" />
    <path fill="#213131" d="M705.7 624.8l127-38.7-35 37 32.7-49" />
    <path fill="#5b7095" d="M887.6 280l-5.3-.4-56.6 33 82-48.7" />
    <path fill="#9d989d" d="M85.6 349l-3.7-6.3L72 435l10.5-125.5" />
    <path fill="#131c35" d="M803.8 470.8l1.5-9-15.8.5-5.3-27.7" />
    <path fill="#73758c" d="M66 111l-3-24.8-8.4 8.5 23.8 21.8" />
    <path fill="#a9a4ab" d="M136.4 160l-24.8-39.7-70.6 59 74.4-59.4" />
    <path fill="#1f263f" d="M863.4 482l6.7-11-21-49.2 18 62" />
    <path fill="#9e9ea6" d="M824 405.8l-11 13-17.8-41.4 27 27.5" />
    <path fill="#a29b98" d="M855 476.4L834.2 409l4.8 31 16.7 47" />
    <path fill="#7a7d80" d="M804.6 495.3l-2.3 46.3-3.5 5.2-4.2-6" />
    <path fill="#e2f5ff" d="M1055 105.4l-145-59 145 5.6-32.5 96" />
    <path fill="#373a4b" d="M959.7 407.6l-8.3 40.6 1 17.4 9.8-14" />
    <path fill="#657ba1" d="M428 502l-8.7 24.8 35.5-25.5 7 34" />
    <path fill="#c9c1bd" d="M1011 217l-10.7 17.2 42.4-17.2-23 12.3" />
    <path fill="#8d97b2" d="M284.7 408.6l12-39 26.4 60.7-31-26.7" />
    <path fill="#251f18" d="M581 694.3v-79l-.6-12.2-2.4-1" />
    <path fill="#1f290d" d="M646.7 564.7l-3.3-4-1 32-13.3-13.4" />
    <path fill="#928a93" d="M1021.4 263.5l33.6-8.5-44-76.4 44 143.8" />
    <path fill="#101c27" d="M956 616.3L896.6 595l10.5 22.3 41-29.3" />
    <path fill="#757c70" d="M190.4 500l25 86.8L188 578l26.5 16" />
    <path fill="#4b4a25" d="M229 592l54.3 30.2-119.7-72.7L248 616" />
    <path fill="#18467d" d="M585.3 545.2l34-37 43.8-17.6 11 3.2" />
    <path fill="#768099" d="M368.8 563.6l-23.4-22 20 11.6-40.3-83" />
    <path fill="#1c2e36" d="M450.5 621l-9.4-27.8 8-12 10 63" />
    <path fill="#bcb8bf" d="M170.4 336.5l-23.5 77 3-57.5 51 3.3" />
    <path fill="#091129" d="M952 525.3l62.5-12.3-41.5-5.8 47.7 47.7" />
    <path fill="#081305" d="M817 641l55.5 50 33-70-49.6 88" />
    <path fill="#636459" d="M763.7 577l4-36.5-10.5 2 11.6 14.5" />
    <path fill="#14468f" d="M614 426.2l-48 39-2-18.5 35.5 8" />
    <path fill="#c0c0c6" d="M184.6 517l4.5 26 18 14.2-47-127" />
    <path fill="#e5faff" d="M778 243.6l-444-45 .2-14.8-66 20.4" />
    <path fill="#9899aa" d="M28 73.8l-59-62 43.6 40 35 64.3" />
    <path fill="#97b8ec" d="M516.7 393l-30.5-20.4-36 9.8 46.4-8.3" />
    <path fill="#7883a1" d="M369.8 517.3l21.3 50.5-8-8 14-43" />
    <path fill="#47595c" d="M552.8 500l-34.2-.4 1.6-3.7 25.3-9" />
    <path fill="#62607f" d="M23.6 292L12 238.8l-.6 28.5 9-15.2" />
    <path fill="#aba4a3" d="M180.6 259.7l-3.2.3-10.7-33.4 4.3 87.2" />
    <path fill="#a3a5b4" d="M102.6 148l-.7-41.6L146 95l-29-2.7" />
    <path fill="#385e92" d="M471.6 480.3h-36l-20.7 3.4 71-21" />
    <path fill="#808291" d="M113 412.4l-7.7 10-6-52.6-7 .3" />
    <path fill="#93a7c5" d="M537.3 388.2l-13 4 4.2-13 33 30.8" />
    <path fill="#8798b1" d="M937 436l-3.8 14.6-5 34.2 11.2-33.7" />
    <path fill="#2f3c47" d="M764.3 615.4l36.2-6.7-46 17.7-19.6-67" />
    <path fill="#35466f" d="M274 390l3-55.8-5 46.4 3.3 33.4" />
    <path fill="#a3a0a0" d="M40.8 560L27 543.5l-10-5 29 13.8" />
    <path fill="#adb1bb" d="M255 400l15.5-112-1.5 15.6-5 92.6" />
    <path fill="#f5fafb" d="M373.6 411.3l1.2 19-53.5-13v7.7" />
  </g>
</svg>