<svg version="1.1" viewBox="0 0 1024 682" width="1024" height="682" xmlns="http://www.w3.org/2000/svg">
  <path fill="#869aa8" d="M0 0h1024v682H0z" />
  <g fill-opacity=".5">
    <path d="M-31 571l1086-241-30 383-1056-31" />
    <path fill="#fff" d="M1055 4L42-31l296 468 568-185" />
    <path fill="#e3cfd0" d="M197 260L12-31l-43 454 276 158" />
    <path fill="#4a6bae" d="M1043 250l-369 36-423 247 333 43" />
    <path fill="#c6ffff" d="M298 531l757-504L82-31l319 590" />
    <path fill="#413c07" d="M488 692L-3 713l-25-291 98 63" />
    <path fill="#030d00" d="M985 383l68 330-774-39 578-94" />
    <path fill="#000531" d="M894 307l60-161 31 11-19 186" />
    <path fill="#f9ffff" d="M888 239L240 403 861 39l194 34" />
    <path fill="#1b222c" d="M808 267l-93 141-48 305 161-339" />
    <path fill="#7ddaff" d="M1055 3L271 188-31 11 99-31" />
    <path fill="#1d2f5c" d="M273 307l-3 59-40 145 115 72" />
    <path fill="#5e82c2" d="M519 322l253 134-528 67 223-106" />
    <path fill="#fff" d="M356 390l367-108-195-97-349 25" />
    <path fill="#908897" d="M142 368L-20 25l219 98-20 217" />
    <path fill="#897769" d="M890 527l46-203-167-62 35 147" />
    <path fill="#a6b7da" d="M627 496l66-5 22-68-62-86" />
    <path fill="#bcf0ff" d="M311 205L857 45l193-38 5 130" />
    <path fill="#164681" d="M644 475l83 72-270 37 182-233" />
    <path fill="#edffff" d="M938 142l-27 131h-52l-676-30" />
    <path fill="#ecf6fe" d="M635 319l-95 68 63 1 24-43" />
    <path fill="#625e4e" d="M291 625L113 496l-144 13 212 164" />
    <path fill="#dcdce3" d="M162 532l83 37-27-132-129-89" />
    <path fill="#2b3b2b" d="M949 584L504 713 245 588l276-20" />
    <path fill="#0d1c35" d="M753 366l-33 239 80-247-17-71" />
    <path fill="#f7f1f3" d="M-31 415l112 78-17-37-29-138" />
    <path fill="#ace6ff" d="M-31 3l637-22-169 228L80 74" />
    <path fill="#68657a" d="M940 165l42 85 51-106-62-5" />
    <path fill="#021000" d="M1006 592l49 42-47 79-218-36" />
    <path fill="#394871" d="M245 383l11-89-16 237 121-58" />
    <path fill="#0b0d39" d="M1004 525L857 371l65 20-46 208" />
    <path fill="#b2adae" d="M881 364l-1 87-99-85 67 87" />
    <path fill="#6f81af" d="M917 573l-46 42 59-36 9-173" />
    <path fill="#78d0ff" d="M278 100l440-24 337-59-242-48" />
    <path fill="#d0b9b5" d="M971 253l52-47 12 88-68-1" />
    <path fill="#87869d" d="M445 586l-94-121-73-12 60 88" />
    <path fill="#a4a0a3" d="M119 619l-85-69 36 19 116 88" />
    <path fill="#393209" d="M71 529l-84 46L9 446l-17 10" />
    <path fill="#93847c" d="M867 526l-50 85 72-59-18-230" />
    <path fill="#fff" d="M558 223l-320-37 78 230 7 16" />
    <path fill="#021641" d="M916 256l25-60-7 127-54-19" />
    <path fill="#292a3f" d="M981 446l5-127 69 5-60 243" />
    <path fill="#8b8d9c" d="M102 377l55 145-80-51-37-122" />
    <path fill="#95b2ff" d="M464 418l-90-34-33 86 59 24" />
    <path fill="#5b5f8f" d="M293 346l-27-41-65-76v61" />
    <path fill="#3578ef" d="M515 326l16 1 33 35-75 35" />
    <path fill="#1f2800" d="M88 613l-60 15-59 49 283 36" />
    <path fill="#caf4ff" d="M703 200l-504 9 10-69 627-53" />
    <path fill="#3a649d" d="M448 581l-67-72 117-119 32 135" />
    <path fill="#88889e" d="M121 565L9 460l106 80 109 68" />
    <path fill="#7a7b92" d="M103 366l88-253-71-9 27 66" />
    <path fill="#c1d8f8" d="M779 294l-14 45-7-28-81-17" />
    <path fill="#8a8d9a" d="M207 532l-90-159 120-106-130-11" />
    <path fill="#faf7ff" d="M360 478l69-64 33 4 81-177" />
    <path fill="#7dcfff" d="M-31 17L78-31 327 6 82 72" />
    <path fill="#1c1a15" d="M-31 466l46-20 96 86-142-96" />
    <path fill="#827b76" d="M837 352l182 46-71-63-153-73" />
    <path fill="#d1ced3" d="M176 336l-1-73 73 217-120-50" />
    <path fill="#0f1d3a" d="M828 411l21 90-76-54-129 183" />
    <path fill="#00001c" d="M1009 501l-68-60-9 116 46 16" />
    <path fill="#e3f7ff" d="M925 37l-86 33 216 86V32" />
    <path fill="#daeeff" d="M368 60L352-3l271-9-35 26" />
    <path fill="#e1f8ff" d="M942 199l5-46-511 49 417 75" />
    <path fill="#b6b1b9" d="M251 372L120 195l75-56 11 266" />
    <path fill="#4274c1" d="M852 275l-104 18 4-16 34-14" />
    <path fill="#5876af" d="M696 405l57-86-77 225-20 3" />
    <path fill="#d5c9c4" d="M32 327l82 44L3 23l18 197" />
    <path fill="#6b6c6e" d="M732 333l-8 127 33 136-8-83" />
    <path fill="#857f80" d="M1027 462l24 7-37 68-18-12" />
    <path fill="#0e1b3f" d="M672 619l50-195 2 74 26 106" />
    <path fill="#92a4c6" d="M621 489l31-80 42-75-8 161" />
    <path fill="#766c6e" d="M828 541l-12 24-34-116 97 111" />
    <path fill="#364023" d="M337 713l487-61-432-52-147 28" />
    <path fill="#3965b5" d="M692 300l30 7 17 60-78-30" />
    <path fill="#c9c2bf" d="M60 112l42 102 13-24-13-113" />
    <path fill="#fbffff" d="M630 309l-65 42-153-88 358-6" />
    <path fill="#2f4758" d="M237 533l98 22 105 43-213-123" />
    <path fill="#48445f" d="M26 314l-5-44 1-59-6 78" />
    <path fill="#d9dae0" d="M241 541l6 28-40-29-17-170" />
    <path fill="#2f3f63" d="M950 154l23 160-7 49-42-72" />
    <path fill="#0f183a" d="M877 577l-27-86 23-22-21-48" />
    <path fill="#11459e" d="M645 339l-9-37-1 17-53 198" />
    <path fill="#6b7188" d="M146 365l-6-263 17 73-48 108" />
    <path fill="#3e3c12" d="M68 512l-22 38 63 46 72 33" />
    <path fill="#d6e3f3" d="M592 413l-6-65 31-15 23-27" />
    <path fill="#b6e5ff" d="M661 76l191 93 203-49-191-40" />
    <path fill="#7a717b" d="M-31 518l14 92 64 5-24-21" />
    <path fill="#848080" d="M780 403l136 50-43-72 51-63" />
    <path fill="#122d66" d="M233 407l54 9-30 66-13-61" />
    <path fill="#858bb3" d="M286 409l-2-79 15 30 17 79" />
    <path fill="#32331e" d="M119 513l55 61-52-30-62-53" />
    <path fill="#2d3e4a" d="M566 451l48 8-43 57-31-6" />
    <path fill="#a2a3b5" d="M286 512l68-20 12 63-159-101" />
    <path fill="#95b8ff" d="M465 380l-139 21 10 16 81-10" />
    <path fill="#737276" d="M207 628l-68-54 63 99-92-68" />
    <path fill="#3b4c75" d="M47 67l-5 6-13-5-7 43" />
    <path fill="#b9b8c6" d="M112 511l-7-35-6-7-28 20" />
    <path fill="#373d29" d="M867 368l39 63 63 3-61-57" />
    <path fill="#a39fb0" d="M264 319l-17 82 18 15 10-16" />
    <path fill="#b8c7e6" d="M641 359l63-79-53 39 21 124" />
    <path fill="#f9ffff" d="M209 244l200 151 207-136-417-72" />
    <path fill="#778fb8" d="M469 375l101 96 3-117 38 40" />
    <path fill="#00072b" d="M740 380l32 28 4-49 3-24" />
    <path fill="#144177" d="M735 512l-282 31 252-51-67 99" />
    <path fill="#fffdfe" d="M321 423l57-13-18 76 15-53" />
    <path fill="#abb4c4" d="M316 482l40 58-48-83-30 18" />
    <path fill="#cadef7" d="M680 250l89 65-16 56 10-78" />
    <path fill="#102126" d="M640 553l70 66-3-60-116 98" />
    <path fill="#b8b8be" d="M816 402l33 29v16l-55-52" />
    <path fill="#2a3a6f" d="M257 309l-4 84 1 52-7-159" />
    <path fill="#1e353a" d="M404 548h-35l105 101-183-31" />
    <path fill="#28405a" d="M315 504l-2-14 43-20-133 29" />
    <path fill="#203139" d="M726 522l22-77 34 12 26 57" />
    <path fill="#999295" d="M986 373L804 262l101 58-89 11" />
    <path fill="#353948" d="M992 341l-10 163 56-59-46-179" />
    <path fill="#676e80" d="M1012 251l-49-112-10 28-2 42" />
    <path fill="#e5f4ff" d="M530 116l-96 30 340-6-5-31" />
    <path fill="#262437" d="M886 500l-3-36 11-28 5 101" />
    <path fill="#b6acb0" d="M1055 280l-48 47-15-122 7-28" />
    <path fill="#555666" d="M1004 284l51 131-63 1 63-65" />
    <path fill="#7e96b8" d="M333 556l39 23-25-21-20-12" />
    <path d="M982 641l-26 72 99-32-42-71" />
    <path fill="#a2ebff" d="M477 158l-287 9 51 26 221-7" />
    <path fill="#96a2bb" d="M940 461l-3 8 4-45-15 60" />
    <path fill="#899cc6" d="M879 313l-40-39 73-16-25 39" />
    <path fill="#e8fcff" d="M904 264l52-121-191 70 121 51" />
    <path fill="#5472a0" d="M443 429l28 110-14 11-57-39" />
    <path fill="#cdbfb3" d="M121 219l11-102 11 78-16 63" />
    <path fill="#33599a" d="M686 426l-6 40 21 22 12-20" />
    <path fill="#4785de" d="M393 458l-28 32 24 13 28-78" />
    <path fill="#575a5b" d="M769 323l118-27h-95l72 127" />
    <path fill="#fff" d="M314 333l180 28 22-14-279-67" />
    <path fill="#504a4b" d="M582 664l19 30-23-225-2 70" />
    <path fill="#9392ab" d="M20 472l-51-31 123 94 4-9" />
    <path fill="#7c7b7e" d="M732 377l29 14-16 8-16 77" />
    <path fill="#38659f" d="M514 384l77-49-50 54 12-6" />
    <path fill="#868380" d="M805 506l-12 40 40 3-26 16" />
    <path fill="#0b1b3e" d="M851 488L750 374l24-52 20 144" />
    <path fill="#90908f" d="M42 551l94 65-115-70-24-25" />
    <path fill="#2f3344" d="M895 642l5-130-27 50-47-25" />
    <path fill="#3d64a4" d="M591 453l72-20-103-5 20-61" />
    <path fill="#ac9ca3" d="M972 353l6-73 24 32 1 17" />
    <path fill="#a2b2d3" d="M683 358l43 26-26-29-37-50" />
    <path fill="#e7e5e8" d="M132 399l-42-66 46 124 41 50" />
    <path fill="#615f67" d="M304 680l-48-40-60-54 18 52" />
    <path fill="#8e94a4" d="M58 258l14-27-49-86 47-1" />
    <path fill="#364a4d" d="M437 598l43 86 63-120-306 16" />
    <path fill="#a7968a" d="M894 518l-15 24-3 25-6-72" />
    <path fill="#343716" d="M298 713H121l91-50L54 517" />
    <path fill="#172405" d="M850 613l163 100-244-61-24 58" />
    <path fill="#afa096" d="M889 436l-20 39 2-57 28 10" />
    <path fill="#88d5ff" d="M670 75l71 17 314-113-602 60" />
    <path fill="#97e2ff" d="M539 118L369 52l-128 65 102 24" />
    <path fill="#051943" d="M901 316l31-47-34 7-10 23" />
    <path fill="#d5c3b9" d="M854 468l-7-43-8 2 6 36" />
    <path fill="#3b4f7a" d="M318 484l30 8-86-88 73 38" />
    <path fill="#e9edfb" d="M464 393l-94-76 122 88-97 14" />
    <path fill="#73a1fc" d="M496 397l33-46-39 11-17 31" />
    <path fill="#676e8e" d="M152 121l-7 113-12-132 70 31" />
    <path fill="#b9c8e2" d="M36 61L-7 17l22 90 11-45" />
    <path fill="#5b5a4d" d="M885 346l80 34 8 33-28 30" />
    <path fill="#c2e8ff" d="M332 50l145 21-31-92L104 83" />
    <path fill="#070c25" d="M897 500l-15-39 25 102 35-149" />
    <path fill="#cce0fd" d="M742 349l-1-4-7-7 2 30" />
    <path fill="#383613" d="M-31 524l169 189-153-216 61 45" />
    <path fill="#4c5128" d="M339 677l48-30-162-57-1 17" />
    <path fill="#686e81" d="M807 384l-24 46 13 54-25-51" />
    <path fill="#7d7d80" d="M150 654l-12-36 12 19 51 6" />
    <path fill="#272e09" d="M618 651l-65 7-98 28 384 5" />
    <path fill="#1a1f07" d="M173 599l27 3 9 25-32-19" />
    <path fill="#41495d" d="M695 551l67-81-23-29 33-43" />
    <path fill="#5788d9" d="M437 448l-28-24 17-11 22 27" />
    <path fill="#222441" d="M953 475l-2-66 66 3-4 84" />
    <path fill="#76746a" d="M167 602l147 93-186-109 89 5" />
    <path fill="#6b7996" d="M248 495l34 23-8-43-34 8" />
    <path fill="#3764b3" d="M752 302l-57 38 13-39 57 40" />
    <path fill="#646c89" d="M111 116l21-24-26 75 20-15" />
    <path fill="#6c747f" d="M198 492l1 1-8-1 25 114" />
    <path fill="#d0c8c7" d="M82 129L68 245l7-171-24-17" />
    <path fill="#334b55" d="M623 563l-333 13-112-23 89 51" />
    <path fill="#d5d8e2" d="M1016 266l39-102v167l-66-80" />
    <path fill="#5f7cb2" d="M610 508l-4-22 5-42 12 64" />
    <path fill="#323e3c" d="M809 565l-235 94 224-40-36-89" />
    <path fill="#18282c" d="M974 655l-130-61 87 13 124-77" />
    <path fill="#e3d7d0" d="M11 444l17 18L6 246l-37 206" />
    <path fill="#8c92ab" d="M680 520l-14 29-13-18 2-1" />
    <path fill="#c1b9b8" d="M201 246l-1-70-41 63-4 28" />
    <path fill="#233464" d="M919 282l-4-34 6-21 38-69" />
    <path fill="#252d18" d="M325 670L174 568l164 133-172-25" />
    <path fill="#707081" d="M814 429l-19-28 23 58 1-78" />
    <path fill="#88898b" d="M112 547l100 50 5 8-3 3" />
    <path fill="#938e9b" d="M1014 166l-15 125 50-140-71-19" />
    <path fill="#ccdafa" d="M305 412l78 50 30-25-74 6" />
    <path fill="#d3ccca" d="M57 184L47 342 20 186l40-36" />
    <path fill="#2f5a99" d="M498 455l8-70-22 40-59 27" />
    <path fill="#5b657c" d="M998 158l-34-15-18 20 100 33" />
    <path fill="#e6faff" d="M258 186l535 38-63 75-23-29" />
    <path fill="#1c2644" d="M828 426l-39-25 57 57-36 66" />
    <path fill="#d6cac2" d="M91 384l20-144-27 49-1 141" />
    <path fill="#000018" d="M997 547l-56-93-6 119 4-1" />
    <path fill="#7087b1" d="M496 472l9-52 23 76 30-13" />
    <path fill="#001838" d="M610 592l8-7 50 16-75 6" />
    <path fill="#81b0fe" d="M420 412l-21 8-21 24 1-67" />
    <path fill="#908f92" d="M124 626l-28-33 74 33-31-5" />
    <path fill="#baecff" d="M610 149l223-6-176 47-346-25" />
    <path fill="#a49fa4" d="M79 403l6-117-27 111-7-123" />
    <path fill="#0d397a" d="M644 558l28-19 43-85-29 117" />
    <path fill="#41442a" d="M149 620l48 90-30-84-118 7" />
    <path fill="#8a91a6" d="M962 218l-10-33 10-5 15 19" />
    <path fill="#1b4a7e" d="M652 507l-195 7 69 38 112 14" />
    <path fill="#4f515c" d="M732 585l-16-56-4 53 17 11" />
    <path fill="#98acc9" d="M571 420l-45-32 50-15-13 32" />
    <path fill="#6d6c70" d="M954 429l8-1-51 28 1-18" />
    <path fill="#c0dbf7" d="M784 263l76 17-1 11-41-33" />
    <path fill="#d5f3ff" d="M198 162l7-2 147-1-90-33" />
    <path fill="#6d662c" d="M0 483l63 50 77 66-171-116" />
    <path fill="#0f1938" d="M858 498l-5 15 12 31V431" />
    <path fill="#aec9ed" d="M756 336v19l-26-39-118-84" />
    <path fill="#73706d" d="M886 368l-95-30 55-48-23 134" />
    <path fill="#576b89" d="M422 577l-79-31 166 21-95 7" />
    <path fill="#fff" d="M310 401l199-115-247 3 29 45" />
    <path fill="#a29fab" d="M197 221l-40-9-9-68 45-21" />
    <path fill="#8a8e9d" d="M93 135l-2 154-12-91L89 69" />
    <path fill="#163045" d="M295 548l-63-63 3 21 106 34" />
    <path fill="#697393" d="M918 575l8-31 7 39-36-33" />
    <path fill="#727d9a" d="M357 447h-20l103 136-84-78" />
    <path fill="#bbeaff" d="M994 146L755 73l188 99 9-25" />
    <path fill="#9aaacb" d="M707 419l-7 9-62-105 14 134" />
    <path fill="#2f3833" d="M964 358l33-21-15-30 73 93" />
    <path fill="#7d7673" d="M815 539l-15 40 51-16-8 42" />
    <path fill="#ade5ff" d="M865 98l-93-14-226-10-113 45" />
    <path fill="#3e64ab" d="M684 404l-19-58-1-27 9 18" />
    <path fill="#aea08b" d="M1055 584l-37-125 3 50 20 32" />
    <path fill="#283106" d="M532 572l-7 10 37 27v-29" />
    <path fill="#71778f" d="M59 131l-16-23 31 6-20-48" />
    <path fill="#3b4a6d" d="M991 201l-52 142-11-30 49-123" />
    <path fill="#d8d7e7" d="M375 495l-18-76 2 16-1 33" />
    <path fill="#a7aecd" d="M244 391l-6 11-33-108 46 80" />
    <path fill="#cac3c0" d="M110 98l-20-2 29 89-43-17" />
    <path fill="#8c8d9b" d="M84 447l-40-54 79 19-26-38" />
    <path fill="#e8f8ff" d="M877 258l65-66 2-26-99-7" />
    <path fill="#5b80c1" d="M782 267l-20 26-79 14 57-15" />
    <path fill="#81839a" d="M230 437l21 56-8-89-27-31" />
    <path fill="#65667b" d="M20 221l1 27 1-72-4 22" />
    <path fill="#797e94" d="M169 98l6 131-10 7 2-59" />
    <path fill="#c6d9f3" d="M830 207l60 90 3-19-11 15" />
    <path fill="#203975" d="M227 314l-4-51 12 8-8 26" />
    <path fill="#d4d3d9" d="M-31 412l82-19 25 77 8 28" />
    <path fill="#b4bbd0" d="M360 542l-30-48 15 49 22 14" />
    <path fill="#3e4224" d="M580 514l3-12-44-10-14 3" />
    <path fill="#6d7189" d="M81 389l-4 102 6 1v-56" />
    <path fill="#234fa1" d="M742 330l18 29 1-2-21 20" />
    <path fill="#e8f5ff" d="M1055 74L868 90l-66-13 253-50" />
    <path fill="#89d2ff" d="M609 12l416-34 2 50-260 21" />
    <path fill="#0b2846" d="M310 498l-4-12-23-9-10 24" />
    <path fill="#0d4194" d="M601 460l-20-4-38 14 82-51" />
    <path fill="#ab9a9b" d="M2 156l14 97-25 65L1 79" />
    <path fill="#335eab" d="M634 320l12 121-38-63 42-51" />
    <path fill="#4f4a16" d="M108 615l-17-26-122-47 189 117" />
    <path fill="#3c4056" d="M1028 555l-42 18 34-58 27 108" />
    <path fill="#7b7e91" d="M148 330l10-18-10 72-48-183" />
    <path fill="#081a38" d="M784 301v10l-43 144 29-141" />
    <path fill="#d0dded" d="M631 333l-4 21-42-8 6 55" />
    <path fill="#686d86" d="M69 180l-4-45-4 38v42" />
    <path fill="#938581" d="M835 510l-30-5-25-61 38 65" />
    <path fill="#363d47" d="M782 333l-5 46 82-10-43 11" />
    <path fill="#848b9b" d="M790 390l28-6-20 28 22 27" />
    <path fill="#6a697c" d="M23 287l-6-4 1-53 2-48" />
    <path fill="#adacb2" d="M172 427L94 297l55 129 17 50" />
    <path fill="#9babca" d="M666 384l-12 93 43 7-28 20" />
    <path fill="#6b574e" d="M581 659V528l-4 35 15 121" />
    <path fill="#46575d" d="M159 546l90 40-93-60-42-15" />
    <path fill="#224f9e" d="M546 481l85 12-8-56-22 83" />
    <path fill="#effafe" d="M592 278l84 4-20 50 22-26" />
    <path fill="#515b79" d="M53 52L22 91l20-6-11-17" />
    <path fill="#abb0c0" d="M205 558l-67-42-5-26 66 37" />
    <path fill="#1a2c54" d="M979 309l-70-32 15-51 30 100" />
    <path fill="#b6e6ff" d="M202 106l35-45-163-6 12 22" />
    <path fill="#edfdff" d="M553 360l-45-148-274 70 379 15" />
    <path fill="#8ed7ff" d="M109 61L-31 29l135-60 152 74" />
    <path fill="#bbb9c2" d="M975 300l13 48-2-46 13-47" />
    <path fill="#174a94" d="M393 502l4 28 43-4-7 37" />
    <path fill="#387bdf" d="M526 336l-15-7 30 4-20 63" />
    <path fill="#141929" d="M765 579l-19-64 10 46 1 38" />
    <path fill="#1f280c" d="M-8 610l45 29 125 74-180-70" />
    <path fill="#535e63" d="M822 276l-39 16 14-22 30 21" />
    <path fill="#70788f" d="M339 544l-39-107 31 63-47 4" />
    <path fill="#fdfefe" d="M411 401l-109-80 11 74 102-20" />
    <path fill="#b4b2b9" d="M195 371l-13-19-24-7-16-90" />
    <path fill="#313731" d="M889 400l-2 20 28 14 71-21" />
    <path fill="#48434e" d="M975 561l-50 32 10 4-4-25" />
    <path fill="#0a1838" d="M852 432l16 10-6 18-7-11" />
    <path fill="#e4dcd8" d="M66 139l6-9 5 8-19-41" />
    <path fill="#9f9690" d="M934 327l-40 8-40-48 62 35" />
    <path fill="#324172" d="M288 391l-21-65 16 81v34" />
    <path fill="#847873" d="M901 476l3-40-10 20-1 55" />
    <path fill="#3868b4" d="M625 326l44-24-32 5 5 39" />
    <path fill="#38371e" d="M11 575l107-19-127-82 99 80" />
    <path fill="#bbedff" d="M1036 154l4-72 1-2-109 22" />
    <path fill="#263c6a" d="M945 180l2-16 8-11 1 30" />
    <path fill="#535762" d="M844 412l48 4-59 5-23-46" />
    <path fill="#404b46" d="M590 457l38 15-53-2-19-9" />
    <path fill="#2b3517" d="M252 642l-64 44 292-19-212 46" />
    <path fill="#282e14" d="M113 598l-76-64-26-4 132 80" />
    <path fill="#d3c3b9" d="M64 312l3 60 5 44L84 86" />
    <path fill="#31383b" d="M1005 298l48 75-80 20 74-56" />
    <path fill="#182f36" d="M358 607l117-42-46 45-95 13" />
    <path fill="#d1c6c2" d="M-8 229l58 28-37-41 24-101" />
    <path fill="#a8c3e9" d="M750 291l-35 34 74-48-32 41" />
    <path fill="#000c28" d="M712 530l-20 38 3 35 14 26" />
    <path fill="#474534" d="M117 527L-27 427l133 87 24-25" />
    <path fill="#74686c" d="M853 455h-9l6 80 5-37" />
    <path fill="#696368" d="M823 474l36 67-102 6 82-5" />
    <path fill="#0e1a3a" d="M792 456l34-15-74-27-1-56" />
    <path fill="#f6e6db" d="M32 342l-10-35-17-5 37 42" />
    <path fill="#d0d4de" d="M213 543l21-17 12 34-30 1" />
    <path fill="#495c88" d="M238 277l25 26-10 39-9-53" />
    <path fill="#e7f9ff" d="M909 260l5-4 12-100-443 115" />
    <path fill="#4d6a95" d="M519 530l30-24-126-46 44-33" />
    <path fill="#57617b" d="M891 347l-34-46 33 2-32-34" />
    <path fill="#787984" d="M1000 396l-10 9 30 1v15" />
    <path fill="#617fbb" d="M864 269l33 5 23-14-15 2" />
    <path fill="#2d3b22" d="M961 640l-20-21-61 36-43-52" />
    <path fill="#fbffff" d="M686 254l-195 76 265-59 46-14" />
    <path fill="#a6aabb" d="M134 500l43 26-48-7-41-84" />
    <path fill="#7c8eae" d="M313 537l30 20-7 7 23 8" />
    <path fill="#859fca" d="M427 319l171 125 10-26-21 18" />
    <path fill="#283e70" d="M295 435l-50-30 8 74 38-17" />
    <path fill="#282d36" d="M927 318l39 25 89 47-45-7" />
    <path fill="#93a3c4" d="M299 380l30 41-50-78 14 77" />
    <path fill="#2f487a" d="M709 373l27 44 12 5-39-29" />
    <path fill="#dedce1" d="M193 481l8 33 33-37-40-20" />
    <path fill="#9696a1" d="M35 173l180 125 10-26-8 60" />
    <path fill="#6f85b1" d="M640 491l-8-107-4 70 37-38" />
    <path fill="#d2c1b8" d="M130 103l-7 90 3 65 7-71" />
    <path fill="#2d3b2f" d="M729 676l-21-79 95 109-6-156" />
    <path fill="#3b5863" d="M643 569l-37-47 51 65 36-21" />
    <path fill="#191c1f" d="M899 580l-43 47-10-52 71 18" />
    <path fill="#939396" d="M213 605l-25-22-16-9 37 37" />
    <path fill="#817b78" d="M828 355l-47-6 80-45 2 113" />
    <path fill="#aaaaab" d="M20 538l70 49-26-11-12-18" />
    <path fill="#4f5859" d="M298 600l-62-68 3-20 37 16" />
    <path fill="#454b2e" d="M483 680l68-37-51 5-53-9" />
    <path fill="#90939e" d="M10 467l148 104-12-5-24-14" />
    <path fill="#8c7f78" d="M881 499l5-129-16 142 27 64" />
    <path fill="#071332" d="M845 503l-20-66-1 40 28 10" />
    <path fill="#2c3126" d="M18 455l170 134L29 475l-60-39" />
    <path fill="#3c4949" d="M648 605l-63 3 58 10 62 16" />
    <path fill="#375063" d="M630 582l-33 17-91-42 100 14" />
    <path fill="#cbcfd9" d="M200 355l27 127-11-91-22-100" />
    <path fill="#0f2446" d="M723 508l-27 9 25-88 4-40" />
    <path fill="#9da7bc" d="M333 495l16 37-49-83-9 26" />
    <path fill="#000020" d="M925 438l-7 74 10-25 3-48" />
    <path fill="#96e0ff" d="M610 82l-364 46-43 27-14-51" />
    <path fill="#807f8b" d="M1019 244l-39 3-9-37-9-9" />
  </g>
</svg>