<svg version="1.1" viewBox="0 0 1024 682" width="1024" height="682" xmlns="http://www.w3.org/2000/svg">
  <g fill-opacity=".5">
    <path fill="#93a3c2" d="M931.6 486.5l6-20.6-4.6-20-3.6 44" />
    <path fill="#708abe" d="M720 425.7l-28.8-119.3-7.8 90 23.2 32.5" />
    <path fill="#7c7770" d="M145.4 593l94.2 51.7-27-2-46.7-38.3" />
    <path fill="#88acfd" d="M393.3 434l-39.4 2.7-11 19.6-18-20.5" />
    <path fill="#1f3059" d="M936.6 198.4l6.3 23.2 48 9-74 12" />
    <path fill="#bbb8c2" d="M9.4 185.7L53 84l-84 21.4L-2 40" />
    <path fill="#cedbf5" d="M470.8 381.2L403.2 344l65.6 20.6-82 66.8" />
    <path fill="#9abaec" d="M407.8 466.5l-6.4-11-8.3 36.8 14-4.3" />
    <path fill="#6780a9" d="M484.2 467.8l42 46.4-20.2-35.4 45-91" />
    <path fill="#81748c" d="M4.6 120.6l-35.6-82 40 151-40 12.8" />
    <path fill="#234d9b" d="M679.2 386.8l-15.4-59.3 10.4 7.5 2.2 31.3" />
    <path fill="#767886" d="M144 319.3l-41.7-1.6 6.5-23L96.5 309" />
    <path fill="#898a8f" d="M932 448.5l7.5-13 7-8.7 12.8 1.6" />
    <path fill="#706d71" d="M179.3 645.5l-19-16.6 49 27-25 19" />
    <path fill="#b2a19e" d="M1034 218l-22.2 4-20-39-14-22" />
    <path fill="#b9b8ba" d="M115.2 278.2l-21.3-76-1 69.8 26-24.6" />
    <path fill="#f9ffff" d="M396.4 211.5l-200.6 4 60.4 76.7-18-13.7" />
    <path fill="#354339" d="M805.6 574l5.5-7 30 47.7-15 28" />
    <path fill="#9aaacd" d="M646.8 360.4l20 79 32.4-14.7-53.4-119.5" />
    <path fill="#9b908d" d="M777 424.6l4 21.7 10 25.7-8-31.6" />
    <path fill="#292d44" d="M971 450.5l84-29.5-104 81 1.3-64.2" />
    <path fill="#131e3c" d="M785 393.8l46.7 90.6-50-39.4 12-16.4" />
    <path fill="#838786" d="M785.6 281.7l78.5 7-67 11.8-13 4.2" />
    <path fill="#010624" d="M905.4 447L924 547.8l-27 14 7.4 31.2" />
    <path fill="#7b9ed4" d="M638.4 312.3l81.6-15-48-7.2 113.7-18" />
    <path fill="#676a81" d="M121.8 142.3l-11.8 15 44.4 8-13.8 19.6" />
    <path fill="#797572" d="M964.6 315.7l-4 15.6 68.5-3.6 18 31.4" />
    <path fill="#d4d1d2" d="M83.8 493.3l29 9.4-45-14.2-15-83.8" />
    <path fill="#3e6cac" d="M540.7 377.4l-30.6 10 117-71.8-98 72.2" />
    <path fill="#5c759e" d="M475.4 537l7.5 1-58-70.6 18 87.6" />
    <path fill="#1c3957" d="M302 524.2l74 54-37.8-8.8 103 20.6" />
    <path fill="#8f99b2" d="M258.6 493.3l9.6 15.5 13.4-.5-1 14" />
    <path fill="#8e8e97" d="M148.7 640l40.2.3-23 .4-8 15.8" />
    <path fill="#204f9d" d="M673.2 326.6l23-14.7 12.8 22 9.6-30" />
    <path fill="#e1eaf6" d="M378.3 444.2l61.2-63.8-34.3 57-12.7 14.7" />
    <path fill="#23312f" d="M836.4 560l-35.2-34.2 39.5 26.5 8.8 6" />
    <path fill="#03112c" d="M728.7 573.2l12.8 16.5 3-44.7-22-23" />
    <path fill="#e8dbd2" d="M27.6 215l24.6 94.2-14.4 60.6 2.7-154.6" />
    <path fill="#23519b" d="M576 432l46-46.5 7.3 40.6-70.7-12" />
    <path fill="#a59890" d="M847.7 390.8l59 59.2-9.4-31-28 2.6" />
    <path fill="#e2e1e4" d="M162.4 528.3l-7.5-91.5-39-63.4L173 511" />
    <path fill="#1b3649" d="M229.6 483.4l-.7 11 20-2.2 80 90.5" />
    <path fill="#adafb8" d="M39 355.8l45.3-7-34.8 55.6-8-24.3" />
    <path fill="#7b7984" d="M147.7 590.3l29.5 24.6-6.6-21-30-24" />
    <path fill="#1c2f58" d="M910.8 319.5l-26.5-23 5 4 9.8-35.7" />
    <path fill="#80aff9" d="M420.6 387.2l10.7 33.5-45-28.8-18.7 65" />
    <path fill="#7f828e" d="M743.4 454.5l-1.2-1-21.7-85.3 13.3 81" />
    <path fill="#8b8da8" d="M120.5 90.7l-36 3.3L77 68l125 81.5" />
    <path fill="#b1bbd4" d="M239 377.2l-3.4-67.4 10-58.6-10.3 100.3" />
    <path fill="#acc6ee" d="M433.6 418l41.2-28.2-10.8 36-11 6.3" />
    <path fill="#2e2e0f" d="M31 584.4l81.2 45.2-76.3-31L8 582" />
    <path fill="#bebec8" d="M118 516L5.3 429.4l79.6 64-1-28.7" />
    <path fill="#83808d" d="M48.7 507l-13.5-7-6.7-6.3 32.8-.2" />
    <path fill="#adc4eb" d="M729.7 335.6l11.3 23.2-4.8-36 10.5 9.6" />
    <path fill="#6e686b" d="M43.5 615.6l.3 16.4-33.3-45.5H-31" />
    <path fill="#d4e6fb" d="M874.2 257.5l-26.5 24.3 13 5.6-20.3-58.4" />
    <path fill="#f6f9fb" d="M443 380l-64.7 3.3-29.7 24.6L336 307" />
    <path fill="#122239" d="M745.5 450.3l-10-42.7L743 426l68.2 93.7" />
    <path fill="#786b6d" d="M747 579l18.4-18-4.7 11-14.2-37.6" />
    <path fill="#9e9ba1" d="M58 239.4l6.2-57 89.8 39-45-36.8" />
    <path fill="#8d93a5" d="M25.3 113l2.4-75.6L33 193.7l20.7-93" />
    <path fill="#f5f5fd" d="M326.6 439.7l42-12.2 11.7-21.5-31.2 11.5" />
    <path fill="#40463a" d="M183.6 532.6L190 583l-6.7-5.8-22.5 17" />
    <path fill="#636c8e" d="M921 583l-13.7 14 10-41.6 16.8 17.2" />
    <path fill="#5b85ca" d="M749.4 297l75.8-32.5-90.3 18 45-16.5" />
    <path fill="#f2f7fa" d="M417.5 414.6l41.8-2.2-97-85 77.5 16" />
    <path fill="#4782da" d="M373.2 490.7l1-42.4 6 63.4 24-68.3" />
    <path fill="#1c4990" d="M445.3 552L403 531l6.3-53.2-1.5 74.3" />
    <path fill="#c3bdbd" d="M154.3 245.3l46-38.3 1.6 58.2-44-39.5" />
    <path fill="#4a5667" d="M742.2 484.3l15-81.5-4 64-37.4 29.3" />
    <path fill="#555c76" d="M974.7 151.2l36.6 24.4 6-13-37.3-17.4" />
    <path fill="#4a4f4e" d="M793.6 306.4l-10.3 7.5 63 72-29.5-15" />
    <path fill="#575931" d="M240.7 623.4l49.8-9.6 69 31-78.8-7.2" />
    <path fill="#a6a2bc" d="M252.4 293l43.4 57 3.3 38.7-17-72.7" />
    <path fill="#74706d" d="M907.6 322l41 23.6-27 48 11.6-45" />
    <path fill="#8a8e9f" d="M141 483.4l-10-31-23.2 7 21 49.4" />
    <path fill="#5b667d" d="M87.5 232.3l5.6 4.4-2 11.3-9-9.3" />
    <path fill="#dcceca" d="M17 193.8v45L8.2 160l4-95" />
    <path fill="#505a73" d="M366 539l17.2.5-7.8-20.8-2.2 78" />
    <path fill="#bcb4b1" d="M847.6 454l8.8-8.7-30.5-34.5v8.2" />
    <path fill="#e1f4fe" d="M908 153l36.3 36.7-76 79.7L820 274" />
    <path fill="#0b1530" d="M753.5 595.3l5.4-43.8 7 51.5-17-14" />
    <path fill="#585e76" d="M133.2 310.5l17.8 55-10 8-.5-30.8" />
    <path fill="#a5e8ff" d="M226.7 159.8l-30.4-60L198 187l242.8-4.3" />
    <path fill="#e1d7d4" d="M35.7 243L33 339l-8.8-70.3-.3-119.5" />
    <path fill="#747c9c" d="M228.3 262.7l-29 54 4-85.7 42.3 60" />
    <path fill="#6797e1" d="M425.6 429.3l-11 36.8 37.8-62-6 38" />
    <path fill="#888b98" d="M54 355.2l-1.3 56.3 5.8-78.7-4.3-38.2" />
    <path fill="#9d9795" d="M128.6 625l-5.8-13.7 42.3 14.3L93 601" />
    <path fill="#98baf2" d="M420 395.7l-7.6-16 29.4 21.5 8.5-15.6" />
    <path fill="#3a3a2a" d="M277.5 663.7l-96.6-54 7-18-15-1.7" />
    <path fill="#696964" d="M868 317l77 92.4 32.5-11.5-66.5-12" />
    <path fill="#777e95" d="M81.3 414.4l-6.7-66.6-7.4 3.8 13-6.5" />
    <path fill="#bdd4e6" d="M339.6 561.7l25.3 11-25-18.5 30-501.5" />
    <path fill="#a09aa4" d="M-20.7 345l11.2-1 28-31 7.4 19.3" />
    <path fill="#a2989b" d="M944.5 332.2l-9 34.3-27.7-12.3L954 343" />
    <path fill="#00061f" d="M1020.8 478.7L943.4 520l51.6 82.8-17.5-76.5" />
    <path fill="#405046" d="M527.6 581l40 96.8-33-58.4-123.4-28" />
    <path fill="#061000" d="M1029.5 713l-11.3-151 36.8-40.7-80 149" />
    <path fill="#8a8687" d="M738.2 396.4l6 2-18.7 56.6 20.2-47.4" />
    <path fill="#c3c3cf" d="M97.4 79.8L44 59.4l55.8 56-44.2-29.7" />
    <path fill="#656131" d="M154.8 598L45.4 542l49.8-9.4-33.4 1.4" />
    <path fill="#2b3116" d="M688.8 708l61.2-37.6-46-54-7.4 2.5" />
    <path fill="#5f779f" d="M520.8 433.4l27-45.7 5 107.8-64.4-80.4" />
    <path fill="#fbffff" d="M506.6 353.4l25.2-79-131 9.7 59.3 81" />
    <path fill="#0e1809" d="M843.3 627.8l39.5 85.2-86-66.4-38.5 40.3" />
    <path fill="#898fa3" d="M372 500.5l-46.6-11 37 37 49.7 19.7" />
    <path fill="#777c91" d="M111.8 262l-5.3-30.5 42.7 11.5-.7-31.3" />
    <path fill="#535f7b" d="M81 147.8l-21.6 5-3.6.2 4-6.4" />
    <path fill="#8194b2" d="M512 425.3l-4-28 11.5-3.3 58.6 53" />
    <path fill="#b3aeb0" d="M152 153l-2.2-23.4L164 151l4.8 113.4" />
    <path fill="#5f7eb2" d="M649 477.5l-79.2-95.8 42.7-3.5-33.6 9.5" />
    <path fill="#c9c9cf" d="M141.6 425.5L237 480l9.7-23.2.2 24" />
    <path fill="#e4ebf4" d="M580 356.5l38.6-14.3-4.4 28-31.4-4.4" />
    <path fill="#8b8c9c" d="M89.7 126L88 71.6 81.7 150l12.8 9.7" />
    <path fill="#2c5483" d="M633.6 496l5.4 69.2 19-27.4 15.5-49" />
    <path fill="#c1c1c8" d="M210 498.5l49.3 82-95.6-132-27.2 9.4" />
    <path fill="#707080" d="M108.3 417.5l-11-20.2 5.6-11.6 6 24.3" />
    <path fill="#9bc0f8" d="M372.7 397l-56 18.4 78.4-5.2 54 9.8" />
    <path fill="#979083" d="M1014 497.3l41-54.3-40 30.8 40 90.8" />
    <path fill="#203035" d="M807.5 543.6l-30 16 45.8 49-39.3 3.2" />
    <path fill="#505b7d" d="M43.5 59L20.3 91.6 39.8 86l.6-36.5" />
    <path fill="#2b3e51" d="M579 512.2l-.3 59.7-7-70-89 9" />
    <path fill="#5f521a" d="M51 559.3L73.5 598l7.3-9.3-65.5-35" />
    <path fill="#cfdeec" d="M721.6 385.6l1.6-3.4 3.3 2.8-26-24" />
    <path fill="#404553" d="M858.5 449l-10 15.7L863 419l-19.3-24.8" />
    <path fill="#3c64ae" d="M749 310.2l-44.5 48.4 27.5 12.8-5.5-47.8" />
    <path fill="#515644" d="M62 484.8l177.4 88-115-32.3-21.8-27" />
    <path fill="#a1b8da" d="M611.7 363l-10 24-34.2-44 31.6 71" />
    <path fill="#2e3015" d="M128.3 598.2l18.4-20.2-9.4-5-37 17.4" />
    <path fill="#121a2c" d="M898.8 482l-11 1.8-4-18.2 1.5-.7" />
    <path fill="#444753" d="M904.3 605L828 513.6l-30-7 79.8 53" />
    <path fill="#78829d" d="M185.2 505.8L309 471.6l-41.8-22 16 27.8" />
    <path fill="#576580" d="M356 475.3l-88.7-34 104 45-7.4 26" />
    <path fill="#585324" d="M278 669.8L196.7 631l-33.2-10 101 54.4" />
    <path fill="#84a3dc" d="M906.5 273.6l-51.4 3.2 9-8.8-6-15" />
    <path fill="#a29e9a" d="M111.7 615.6l-35.3-44-18-1.8L127 617" />
    <path fill="#9e9ba5" d="M870.4 320l23.7 39.6-23-17.6-16-30.2" />
    <path fill="#7286ad" d="M226.4 418l10.7 8.8-12-74.8-7-16.6" />
    <path fill="#c9c1be" d="M105 185.5L62.8 149l36.5 21.4-19 57.7" />
    <path fill="#070724" d="M980.4 401.4l-15.8 27.8 3.5 20.6 10-14.4" />
    <path fill="#2c3a34" d="M722.5 517l15.3 20 62.6-35.4L740 492" />
    <path fill="#133f83" d="M554.6 494.7l-6.5-33.2 21 4.4 6 25" />
    <path fill="#494a56" d="M920.7 469.6L882 431l2.5 14 37.4 3" />
    <path fill="#b7b6ba" d="M126.7 368.5l14-20.8-5-15-17.3-15.3" />
    <path fill="#474c43" d="M945.5 385l-73.3 2.8L875 353l43 53.8" />
    <path fill="#a09289" d="M892.7 527l-18.4-24.6-3.6-15.7 25.7 37.8" />
    <path fill="#898f9e" d="M792.6 371l1.3 35.5 35 11-9-16.4" />
    <path fill="#a7a8b9" d="M262 387.3l4.5 14.2.7-106-15 65" />
    <path fill="#b0acb1" d="M27.4 208.6L44.7 223l5 50 2.6-56.3" />
    <path fill="#e0f5ff" d="M559.6 198l259.2-39.8-22 113.2-101.4-53" />
    <path fill="#c8eeff" d="M950 154.8l39.3-34.5-70.8-10.5L708.3 172" />
    <path fill="#2c2e12" d="M164 640.6l-11.2-7.8 15.6-23.2-10.5-4.8" />
    <path fill="#fefdfd" d="M479.8 376l-29.2 14.6-8 11 33.7-7" />
    <path fill="#838493" d="M153.7 267.8l22.7 45 3 30L151 265" />
    <path fill="#162012" d="M102 550.3l13 23.7-34.6-28 .8 2.5" />
    <path fill="#9a99a2" d="M140.3 405.7l-.7-36.6 6.2 31 49 96" />
    <path fill="#9b99a1" d="M991.2 175.3l-29.6-8.8 38 4.3 6.5 31.5" />
    <path fill="#7a91be" d="M706.2 343.3l-15.8 106.3 11.3-198.8-3.4 53" />
    <path fill="#c2bab7" d="M47.3 313l73.4-67.3-9 48.5-67-49.4" />
    <path fill="#212909" d="M620.6 676.3l-20.2-62.7 37.7 2.6-38 29" />
    <path fill="#33441f" d="M670 591.8l-34.6-9 30-23.5-51.5 9.3" />
    <path fill="#eaf3f8" d="M752 297.5l9-3.8-2.5 26.4 11.5 9" />
    <path fill="#dbd9de" d="M-2 443l-29-247.2L25.7 460l58.6-1.5" />
    <path fill="#80786f" d="M866.8 566l-28 10.8L828 608l59-82" />
    <path fill="#767786" d="M113.7 105l-1 19-2 5 15 143.8" />
    <path fill="#55564c" d="M926 403.3l11-60.5 28 56 30-19" />
    <path fill="#343a1c" d="M-10.3 636.3l152-9.8-7-12.4 9.8 63" />
    <path fill="#aa9b96" d="M886 304.3l24.2 20.3L927 351l-62.2-64" />
    <path fill="#8c98ba" d="M-2 30.3l86.6 42L-31 31.6 13.4 97" />
    <path fill="#5470a2" d="M623 490.7l36.3.2-53.4 14-12-42" />
    <path fill="#bbb7c0" d="M93.6 449.8l-10.4-88.6v69l2 59.4" />
    <path fill="#918e8e" d="M799 532.3l14 14.8 8.4 26 1.6-26" />
    <path fill="#474a40" d="M1046.7 568.4l-50.2 20.8 15-15 27.4 7.4" />
    <path fill="#27354d" d="M807.6 361l-50-22.7 40-15.4-30.6 85" />
    <path fill="#faffff" d="M574.4 346.3l11.6-9 48.3-34.7-69 26.3" />
    <path fill="#b6b3ba" d="M1016 268l-19.5-37.8 19.6-31.6-16 76" />
    <path fill="#103982" d="M707.2 447.3l9.6 15.4L676 514l23 1.7" />
    <path fill="#3e5d94" d="M705.2 431.6l-16 23.2 22.5 22.5-23.6-47" />
    <path fill="#525c81" d="M152 143.3l-7.5 51-5.6-76 12 37" />
    <path fill="#1b2439" d="M948.7 468l106.3 77.5-56-34.7 19.6-24.6" />
    <path fill="#606262" d="M817.7 559.2l-11.5-9.6-51.2-30-10.6 2.2" />
    <path fill="#7f7f8c" d="M1012.8 238.8l.2 23.2-11.3-19 31.3-39" />
    <path fill="#4a534d" d="M653.6 619l48.7.8-15.5-18.7 8.6 32" />
    <path fill="#cdf1ff" d="M602.8 147l-232.2-14.8 16-11.4-51.5 37" />
    <path fill="#595a5f" d="M768 580.2l-6.2 9L772 597l16-64.6" />
    <path fill="#bdc2d7" d="M331.5 523l13 3.3 25.3 28.3L341 538" />
    <path fill="#7e7a81" d="M835.3 467.8l2.6 7 23 4.4-6-12.6" />
    <path fill="#7c86a0" d="M1022.5 137l24.2 22-52.7-25-3.4 27.7" />
    <path fill="#041337" d="M828.2 442.5l-26.5-32 25 16.7L825 472" />
    <path fill="#315aa4" d="M622.3 345l-8.6 33.6 34.5 23.5-16.8-33" />
    <path fill="#213a6b" d="M267.7 481.7l-21.3-8 36.4-61.4-14-8.7" />
    <path fill="#1a4c9b" d="M584.6 455l21.6 6.3 35-145.2-36.5 110" />
    <path fill="#665950" d="M581 608l1.3-49.6 5 83-1.7 71.6" />
    <path fill="#cdc2be" d="M78.5 115L70 170l24.5-73.6L114 162" />
    <path fill="#cbc6c7" d="M169.2 340l49.3 57.8-65 36.2 23.3 21.3" />
    <path fill="#d2cfd7" d="M-7.4 59.5l50-2.3-71.4-17.4L-31 34" />
    <path fill="#3966a3" d="M553.5 376l-6.2-19.2L567 353l-55.7 35" />
    <path fill="#081500" d="M946.2 657L916 713l3.5-109 .5 15.4" />
    <path fill="#8c91af" d="M19 466l-50-3.7v17.3l36.3-6" />
    <path fill="#979795" d="M222.8 419.3L62.6 546l3.3-13.8 10 2.8" />
    <path fill="#374444" d="M106 512.2l11.4-.8 49 21.7-24 3" />
    <path fill="#adbfd7" d="M563.4 386.6l-40 3.5 31.6 7 53.6-43" />
    <path fill="#abadba" d="M209 501.2l11 7.2-6 27.6 24.4 34.2" />
    <path fill="#8dd5ff" d="M.4 33.6L73.2 59l173.4-21-15.3-69" />
    <path fill="#2a3c5f" d="M951 340l26.5-159.5 10.2 28.8-10.3-5.7" />
    <path fill="#616f90" d="M284.7 400.2l36.3 35 9.8 2.4 11.8 41.7" />
    <path fill="#333121" d="M14.6 473.8l-3.5 9 28 9.5-66-4" />
    <path fill="#817e87" d="M21.5 311l4-34-12 10 16.8 29" />
    <path fill="#c5d4e5" d="M892.4 275.5l25.7-60-35 90.2 2-26.7" />
    <path fill="#d3d1d5" d="M1038 328.5l-22-46.3-3-44.4 7.2 20" />
    <path fill="#343f2e" d="M452.4 673.3l46.8-67.7L441 599l-90.2 65.7" />
    <path fill="#6b6c77" d="M1048.3 412.7l-25.6-24.4-2.2 27-40.2-13.5" />
    <path fill="#c1b5b3" d="M979 342.6l-8.8 13 14-60 2 28.3" />
    <path fill="#acb0bb" d="M1024 272l-30-32.7-21 57.3-3-49.5" />
    <path fill="#edfbfe" d="M678.8 302.4l9.6-76.6-45.3 64.5 52 5.7" />
    <path fill="#051737" d="M739.5 457l42-158.4-5 76.6-15-20.8" />
    <path fill="#1f2339" d="M905.5 465.3l-8.2 26.7 11-55.2 14.2 114" />
    <path fill="#365875" d="M459.7 572.2l64.8 4-41-33.3-36 10" />
    <path fill="#8e93a1" d="M952.4 200.6l26.3-22.8-11-.4.8 31.8" />
    <path fill="#cacde0" d="M369.6 476.7l-2.5-35.4-7 32 12 19.6" />
    <path fill="#817d76" d="M941.3 383l21.5-25.8 31 22-59.3-7" />
    <path fill="#395d93" d="M532.5 487.6l-15 104.2L540.7 453l-25.5-1.7" />
    <path fill="#424e62" d="M795 388.8l-10.2 36.6.4-122.5-7.6 89" />
    <path fill="#babac0" d="M167.5 137.7l31 118.7L176 139l12-9.8" />
    <path fill="#242c41" d="M871.2 479l-2.7 26.2-1.2 21.5-14.6-41.2" />
    <path fill="#354a75" d="M295.7 455.8l-46-56.7-6.7 46 46.4 25" />
    <path fill="#314059" d="M945.3 175.3l40.5 1-40.4-10 13.8-6.5" />
    <path fill="#121e39" d="M817.5 466.4l21.7-23.7-.4 24.2-24.4 27" />
    <path fill="#292b3e" d="M805.4 485l11.8-2-19.7-65 35.2 93.7" />
    <path fill="#102549" d="M740 452.8l40.8 8.6-17.4-103 18.3 53.6" />
    <path fill="#4f5462" d="M721.4 528.2l-20.3-6 35-28.7 5-50.7" />
    <path fill="#2d3124" d="M183.2 577.5l-115-74-78.6-57-20.6-21" />
    <path fill="#e1fafe" d="M260 283.7l193.6-7.2 34-14-135-2.5" />
    <path fill="#e3efff" d="M311.4 399.3L290 327.6l30.6 95.8 25.7 14.3" />
    <path fill="#696e8c" d="M181.5 127l-5.2-15.2-8.8 50.2-3.5-37.2" />
    <path fill="#535863" d="M857.7 303.7l-42.2-7.5-26.7 22.2 80.2-32" />
    <path fill="#3c618f" d="M451.3 462.6l59.2-60.6-76.3 94.2 118.5 33" />
    <path fill="#1c2943" d="M735 471.4l-9.5-6.8-25.3 81-7.2-20.3" />
    <path fill="#c9c2bd" d="M112.3 201.8l18.2 44.6 10.2-74.5-26.7 64" />
    <path fill="#e8f8ff" d="M882.2 261.7l25-1.3 34.8-79.8-159-14.2" />
    <path fill="#7b8693" d="M96 486.5l20.6 21-12.7 11.2 19-23.7" />
    <path fill="#8fb4f2" d="M468 361.7l26.2 18.7 10.5-28.5 18.7 20" />
    <path fill="#152441" d="M1016 537l-9.8-11.3-15 9-20.5 51" />
    <path fill="#124385" d="M600.2 540.5l-18.8-48.3 66 24.2 6.3-31" />
    <path fill="#344165" d="M946.7 200.2l17.5 9.8-27.4 39.6-8.2-43.7" />
    <path fill="#3c4733" d="M760.4 620.4L743.6 645l-36.4-54.6 32.2 95" />
    <path fill="#a3ddff" d="M684 11.6l-162.3 16L724.4-31l-1 39.7" />
    <path fill="#4670ac" d="M540.3 382.6l27.5-29.2 12.7 28.4-28-30.5" />
    <path fill="#6f6d79" d="M1003.5 177.8l27.8 28.3-41.5-12 33.6 15" />
    <path fill="#dddde2" d="M239.2 562.7l-11.7-82.5-37.8-18.5 23.7 37" />
    <path fill="#2858a7" d="M628.3 394l12.7-57.5-.8-4.8-6.7-27.3" />
    <path fill="#d6f1ff" d="M664.7-31L432-26l28.4 37.7 57.4 8.7" />
    <path fill="#383926" d="M200.4 587.2l57.7 27.5 20 10.6-42-3.5" />
    <path fill="#cad8eb" d="M629.5 314.4l1.2 27.8-44.3 40 29.8-57" />
    <path fill="#244054" d="M300.6 559l49.8 20.3-59.8-72.4-6 14" />
    <path fill="#3961a6" d="M665.5 331.5l-11.8-1.3 11.7-7 15 53.2" />
    <path fill="#dfcabb" d="M72.4 354.4l6.7-21L74 227 62.4 337" />
  </g>
</svg>