<svg version="1.1" viewBox="0 0 1024 682" width="1024" height="682" xmlns="http://www.w3.org/2000/svg">
  <path fill="#869aa8" d="M0 0h1024v682H0z" />
  <g fill-opacity=".5">
    <path d="M-31 571l1086-241.4-30.4 383.4L-31 682.2" />
    <path fill="#fff" d="M1055 3.7L42-31l295.7 468L906 251.6" />
    <path fill="#e3cfd0" d="M196.5 259.6L11.5-31-31 422.8l275.5 157.8" />
    <path fill="#4a6bae" d="M1043 250l-368.8 36L251 533.4l332.7 42.8" />
    <path fill="#c6ffff" d="M298 530.7L1055 27 82.4-31 401 559.3" />
    <path fill="#413c07" d="M488 691.6L-3.5 713l-25-290.8 98 62.8" />
    <path fill="#030d00" d="M985 382.8l68.2 330.2-774.7-39.4 578.7-94" />
    <path fill="#000531" d="M893.6 306.5l60.5-161 31 11.3-19 186" />
    <path fill="#f9ffff" d="M888 239.2L239.8 403.4l621.5-364 193.7 34" />
    <path fill="#1b222c" d="M808 267l-92.6 141.3-48 304.7 160.3-338.8" />
    <path fill="#7ddaff" d="M1055 2.6L271 188.3l-302-177L99-31" />
    <path fill="#1d2f5c" d="M273 307l-3 58.6-40.5 145 115.7 72.2" />
    <path fill="#5e82c2" d="M518.7 322.2l253.7 134L244 523l223.3-106.4" />
    <path fill="#fff" d="M356 390.4l367.4-108.8L528.2 185l-349.4 24.6" />
    <path fill="#908897" d="M141.8 367.7L-19.7 25.2 199 122.8 179 340" />
    <path fill="#897769" d="M889.7 527.2l46-203L769.2 262 804 409" />
    <path fill="#a6b7da" d="M626.5 495.6l66-4.3 22.2-68.6-62.2-86" />
    <path fill="#bcf0ff" d="M311 205L856.6 45.2l193.6-38 5 130" />
    <path fill="#164681" d="M644 474.6l83 72.5-269.7 37 181.2-233" />
    <path fill="#edffff" d="M937.8 142l-26.4 130.6-52 .2L182.6 243" />
    <path fill="#ecf6fe" d="M634.8 319l-95 67.6 63.4 1.7 24-43.6" />
    <path fill="#625e4e" d="M290.6 624.5l-178-129-143.6 13L180.8 673" />
    <path fill="#dcdce3" d="M161.7 531.7l83 37.7-26.2-132L89 348" />
    <path fill="#2b3b2b" d="M948.8 584.4L503.6 713l-259-125.4L521.3 568" />
    <path fill="#0d1c35" d="M753.4 366.3l-33 238.3 80-247-17.2-71" />
    <path fill="#f7f1f3" d="M-31 415l112 78.4-16.7-37-29.6-138" />
    <path fill="#ace6ff" d="M-31 3l637-22.3-168.6 228L80.4 74" />
    <path fill="#68657a" d="M940 165l42 85.3 51.4-106.7-62.8-5" />
    <path fill="#021000" d="M1006.3 592l48.7 41.5-47.4 79.5-217.8-36" />
    <path fill="#394871" d="M244.5 382.5l11.8-88.4L240 531l120.8-58" />
    <path fill="#0b0d39" d="M1003.6 525l-147-154.2 65.8 19.8L876.2 599" />
    <path fill="#b2adae" d="M881 364l-.6 87-99.6-85.3 67.7 87.5" />
    <path fill="#6f81af" d="M916.8 573.3l-45.4 41.3L930 579l9-173.4" />
    <path fill="#78d0ff" d="M277.6 100L718 76.2l337-59L813.3-31" />
    <path fill="#d0b9b5" d="M970.7 253l52-47 12.5 88.4-68-1.2" />
    <path fill="#87869d" d="M445.3 585.6l-94-120.5-73-12 59.4 88" />
    <path fill="#a4a0a3" d="M119.2 619.4l-85-69.3L70 569l116.4 88" />
    <path fill="#393209" d="M71.3 529l-84 45.8L8.8 446.2l-17.3 9.6" />
    <path fill="#93847c" d="M867 525.7l-50.4 85 72.7-58.5-18.5-230.5" />
    <path fill="#fff" d="M558 223l-320.2-37 78 229.5 7.6 16.5" />
    <path fill="#021641" d="M916.2 256l24.4-60.5L934 323l-53.7-19" />
    <path fill="#292a3f" d="M981 445.8l4.6-127.3 69.4 5.4-59.7 243" />
    <path fill="#8b8d9c" d="M102 377l55 145-80-51.4-37.3-122" />
    <path fill="#95b2ff" d="M464.4 418.4L374 383.7l-33.3 86.8 59.7 23.6" />
    <path fill="#5b5f8f" d="M293.2 346.2l-27-41-65-76.5.3 61" />
    <path fill="#3578ef" d="M515.3 326.3l16 .5 33 34.7-75 35" />
    <path fill="#1f2800" d="M87.8 613l-60 15.4-58.8 48.8L251.6 713" />
    <path fill="#caf4ff" d="M703 199.8l-503.6 9 9.2-69 627.2-52.4" />
    <path fill="#3a649d" d="M448 581.3L381.4 509l117-118.6L530 525.2" />
    <path fill="#88889e" d="M120.6 564.8L9 460l105.6 80.2 109 68.2" />
    <path fill="#7a7b92" d="M103.4 366L191 113.2l-71-9 27 66.3" />
    <path fill="#c1d8f8" d="M779 293.5l-13.6 45.8-7.3-28.6-81-16.7" />
    <path fill="#8a8d9a" d="M207.2 531.5L117 373.2l120-105.8-130-11" />
    <path fill="#faf7ff" d="M359.7 478l69-64.3 33.2 4 81-176.3" />
    <path fill="#7dcfff" d="M-31 17.3L78.2-31l249 37L81.8 71.8" />
    <path fill="#1c1a15" d="M-31 465.6l45.8-19.3 96.2 86-142-96" />
    <path fill="#827b76" d="M836.5 352.4L1019 398l-71.3-62.6-153.2-73" />
    <path fill="#d1ced3" d="M175.8 336l-1.2-73.4 73 217L128 429.8" />
    <path fill="#0f1d3a" d="M828.2 411l20.8 90-75.7-54-128.8 183" />
    <path fill="#00001c" d="M1009 501.4l-68.2-60.8-9.2 116 46.5 16" />
    <path fill="#e3f7ff" d="M925 36.7l-85.8 33 215.8 86.7V32" />
    <path fill="#daeeff" d="M368.3 59.8L351.8-2.8l270.7-9-35 26" />
    <path fill="#e1f8ff" d="M942.4 199l4.3-46.3L436 201.5 853 277" />
    <path fill="#b6b1b9" d="M251.4 371.5l-131-177 75-55.6 10.2 266" />
    <path fill="#4274c1" d="M851.6 275.3l-103.3 18L752 277l33.5-14" />
    <path fill="#5876af" d="M696.4 405l57-86-77.7 225-20 3" />
    <path fill="#d5c9c4" d="M32 326.7l82 44.2L2.6 23 21 220" />
    <path fill="#6b6c6e" d="M732 333l-8.5 127 33.2 135.5-7.3-83" />
    <path fill="#857f80" d="M1027 461.5l24 7.8-36.7 68-18-11.8" />
    <path fill="#0e1b3f" d="M672.4 619L722 424l2 74.2 26 105.6" />
    <path fill="#92a4c6" d="M621.3 489l30.7-80.2 41.7-75-7.8 161.6" />
    <path fill="#766c6e" d="M828.4 541.3l-12.2 24-34-116.2 97 111" />
    <path fill="#364023" d="M336.6 713l487-61.2-432-51.3-146.2 27" />
    <path fill="#3965b5" d="M692 299.5l29.5 7 17 60.3-77.6-30.2" />
    <path fill="#c9c2bf" d="M60 112.4l42.2 102 12.5-24.2-12.5-113.6" />
    <path fill="#fbffff" d="M630 308.7l-65.3 42-153.2-88 358.5-5.5" />
    <path fill="#2f4758" d="M237.3 533.3l97.2 21.7L440 598.3l-212.6-123" />
    <path fill="#48445f" d="M26.4 313.7l-5-44 .4-58.2L16 289" />
    <path fill="#d9dae0" d="M241 540.5l6.4 28.8L207 540l-17-169.6" />
    <path fill="#2f3f63" d="M950 154l22.5 160-7 49.3-42-72.7" />
    <path fill="#0f183a" d="M877 577.3l-26.6-86 22.4-22.5-21-47.4" />
    <path fill="#11459e" d="M645.3 338.7l-9.2-36.2-1 16-53 198.7" />
    <path fill="#6b7188" d="M146.4 364.8l-6.2-263 16.8 73-47.6 108" />
    <path fill="#3e3c12" d="M68.3 511.6l-22 38.6 62.7 45.5 72.3 32.8" />
    <path fill="#d6e3f3" d="M591.8 412.6l-5.5-64.3 30.4-15.3 23-27" />
    <path fill="#b6e5ff" d="M661.4 76l190.2 92.7L1055 120 864 79.7" />
    <path fill="#7a717b" d="M-31 517.6l14 92.5 63.7 5-23.3-21" />
    <path fill="#848080" d="M780.3 403l135.5 50.3-43.2-72.8 51.6-62.3" />
    <path fill="#122d66" d="M232.6 406.5l54 9.8-29.3 65.5-13.5-61" />
    <path fill="#858bb3" d="M286 408.6l-2.2-78.4 15.6 30 17 79" />
    <path fill="#32331e" d="M118.6 513l55.2 60.7-52.2-29.3-62-53.5" />
    <path fill="#2d3e4a" d="M566.4 451.3L614 459l-43.3 57.3-30.4-5.8" />
    <path fill="#a2a3b5" d="M286.2 512l67.6-20 12.7 62.7L207 454.2" />
    <path fill="#95b8ff" d="M465 380l-139.4 20.5 10.2 16 81-9.4" />
    <path fill="#737276" d="M206.5 628l-68-54.4 63.3 99-92-67.8" />
    <path fill="#3b4c75" d="M46.6 67l-4.3 5.6-13-4.6-7.6 43.4" />
    <path fill="#b9b8c6" d="M112 510.7l-6.7-35-6.2-7L71 489" />
    <path fill="#373d29" d="M866.5 367.8L906 431l63 2.6-61-56.2" />
    <path fill="#a39fb0" d="M264 319.4l-17 81.3 17.5 15.6 10-16.8" />
    <path fill="#b8c7e6" d="M640.6 359.3l63.8-79.4-53.8 39 21.6 124" />
    <path fill="#f9ffff" d="M208.6 243.7l200.2 151 207-135.3-416.4-72.7" />
    <path fill="#778fb8" d="M468.7 375.3l101 95.6 2.8-117 38.6 40" />
    <path fill="#00072b" d="M740 380.2l31.5 28 4.7-49.3 2.8-24" />
    <path fill="#144177" d="M735.4 512.2l-282.6 31 252.3-51-67 98.8" />
    <path fill="#fffdfe" d="M320.7 423.4l57.7-13-18 76 14.6-53" />
    <path fill="#abb4c4" d="M315.8 482l39.7 57.7-47.8-82.4-29.4 18" />
    <path fill="#cadef7" d="M680.4 250.4l88.3 65-15.7 55.3 9.7-78" />
    <path fill="#102126" d="M640.2 552.8l69.4 66.7-3-60.7-115.8 98.5" />
    <path fill="#b8b8be" d="M816.4 401.6l32.5 29v16L794 395" />
    <path fill="#2a3a6f" d="M257 308.7l-4.5 84 1 52.2-7-159" />
    <path fill="#1e353a" d="M404 547.6l-34.8.7 104.7 101-183-31.5" />
    <path fill="#28405a" d="M315.4 504l-2.7-13.8L356 470l-132.7 28.5" />
    <path fill="#203139" d="M725.7 522l22.6-77.4 33.6 12 26 57.6" />
    <path fill="#999295" d="M986 373L803.8 262l101 57.5-88.8 11" />
    <path fill="#353948" d="M992.4 340.8l-10.2 163.6 56.2-59.6-46-179" />
    <path fill="#676e80" d="M1012 251l-48.7-112-10.6 27.6-1.3 42.2" />
    <path fill="#e5f4ff" d="M529.7 116L434 145.8l340.2-6.3-5.6-30.7" />
    <path fill="#262437" d="M886 500.2l-3.5-36 11-28.4 5.2 101.5" />
    <path fill="#b6acb0" d="M1055 279.6l-48.3 47L992 205l6.7-28" />
    <path fill="#555666" d="M1003.6 284.4L1055 415l-63.3 1.3L1055 351" />
    <path fill="#7e96b8" d="M332.7 556l39 23-24.3-21.5-20-12" />
    <path d="M982.2 641l-26.7 72 99.5-31.7-42.4-71" />
    <path fill="#a2ebff" d="M477 158.3l-286.7 9 51 25.8 220.2-7" />
    <path fill="#96a2bb" d="M940 461.4l-3.4 7.8 4-45-14.4 60" />
    <path fill="#899cc6" d="M878.8 313l-40.2-39.5 73-15.5-24.7 39" />
    <path fill="#e8fcff" d="M903.6 263.7l52-120.7-190.8 69.8L886 263.6" />
    <path fill="#5472a0" d="M443 429l28.3 109.5-14.3 11.3-57-38.7" />
    <path fill="#cdbfb3" d="M121 219l11.2-102.4 11.3 78.2-16.8 62.7" />
    <path fill="#33599a" d="M686.4 426l-6.8 40 21 22.3 12-20" />
    <path fill="#4785de" d="M392.6 457.6l-27.7 32 24 13 28-78" />
    <path fill="#575a5b" d="M769 323.3L887.4 296l-95.8-.4 72 127.5" />
    <path fill="#fff" d="M314.2 333l179.6 28.3 22-14.8L237 280.3" />
    <path fill="#504a4b" d="M581.7 664.3l19.6 29.5-23.2-225-2 70" />
    <path fill="#9392ab" d="M20 472l-51-31 122.8 93.6 4.2-9" />
    <path fill="#7c7b7e" d="M731.7 377.3l29.5 13.3-16.4 8-15.6 77.6" />
    <path fill="#38659f" d="M513.7 384.3l77.3-49-50 53.8 12-6" />
    <path fill="#868380" d="M804.7 505.7L793 546.3l40.3 2.7-26.2 15.7" />
    <path fill="#0b1b3e" d="M851 488.3L749.8 373.8l24.3-51.4 20 143.3" />
    <path fill="#90908f" d="M41.5 550.8l94.7 65.7-114.8-71-24.2-24.3" />
    <path fill="#2f3344" d="M895.4 642.4l4.4-130-26.5 49.2-47.6-24.7" />
    <path fill="#3d64a4" d="M590.8 453l71.8-20.2-102.6-5 20.3-60.7" />
    <path fill="#ac9ca3" d="M972 352.5l6-72.7 23.8 32 1.2 17.6" />
    <path fill="#a2b2d3" d="M683.3 358l42.8 26.3-26-29.4-37-50" />
    <path fill="#e7e5e8" d="M132.3 399l-42-66 46 124.4 41 50" />
    <path fill="#615f67" d="M304.2 679.6l-48-39.6-60.5-53.7 18.3 51.5" />
    <path fill="#8e94a4" d="M57.8 257.7L71.6 231 23 145l46.5-1.2" />
    <path fill="#364a4d" d="M436.7 598l43 86L543 564l-306 16" />
    <path fill="#a7968a" d="M893.6 518.3L879 542l-3.5 24.8-5.4-71.5" />
    <path fill="#343716" d="M297.5 713H121.2l91-50.4L53.7 517.4" />
    <path fill="#172405" d="M850 613.3l163 99.7-244.4-61.2-23.8 57.8" />
    <path fill="#afa096" d="M889.4 436L869 474.6l1.5-56.6 28.4 9.5" />
    <path fill="#88d5ff" d="M670 75l71.2 16.7L1055-21 452.8 39" />
    <path fill="#97e2ff" d="M539.3 117.8L369.3 52l-128 64.5 102 24.8" />
    <path fill="#051943" d="M901 316l31.4-47.3-34.7 7.7L888 299" />
    <path fill="#d5c3b9" d="M854 467.5l-7-42.5-7.6 2 6 35.7" />
    <path fill="#3b4f7a" d="M318 483.7l30.2 8.4-86.2-88 73 38" />
    <path fill="#e9edfb" d="M463.6 393l-94-76.2 122 88-96.5 14.4" />
    <path fill="#73a1fc" d="M495.6 397.2l33-46.6-39 11.7-17 30.3" />
    <path fill="#676e8e" d="M151.6 121L145 234.4 133 102l70.2 31.4" />
    <path fill="#b9c8e2" d="M36 60.8l-43.2-44 22 90.2 11.6-44.6" />
    <path fill="#5b5a4d" d="M884.5 345.7l80 34.8 8.8 32.8-28.6 29.5" />
    <path fill="#c2e8ff" d="M332 50l145 21.4-31-92.8L103.7 83.2" />
    <path fill="#070c25" d="M896.7 500l-15-39.5 25.5 102.7 34.5-149" />
    <path fill="#cce0fd" d="M742 348.5l-1-3.5-7.4-7 2.6 30" />
    <path fill="#383613" d="M-31 524.3L137.8 713l-153-216.2 61 45" />
    <path fill="#4c5128" d="M339.2 677l47.5-29.8L225 589.6l-.7 17" />
    <path fill="#686e81" d="M806.5 384.3l-24 45.4 13 54.2-24.7-51" />
    <path fill="#7d7d80" d="M150.3 654l-12-36 11.7 18.5 50.7 6.6" />
    <path fill="#272e09" d="M618 650.5l-65.3 7.4-97.7 28 384 5" />
    <path fill="#1a1f07" d="M173.2 598.5l27.3 3.7 8.8 24.3-32.6-19" />
    <path fill="#41495d" d="M694.8 551.4l67.7-81.5-23.5-29 33-43" />
    <path fill="#5788d9" d="M437.4 447.8L409 424.4l16.6-11L448 440" />
    <path fill="#222441" d="M952.6 474.6l-1.3-65.7 65.3 3-3.3 84" />
    <path fill="#76746a" d="M166.6 601.8l147 93.4-185.2-108.8 88.6 4.2" />
    <path fill="#6b7996" d="M248 494.7l34 23.8-8-44-34.4 8" />
    <path fill="#3764b3" d="M752.2 302.3L694.8 340l13.6-38.7 56.8 39.2" />
    <path fill="#646c89" d="M110.5 116L132 92.3l-26.2 74.2 20-14.8" />
    <path fill="#6c747f" d="M197.5 492.3l1.5 1-8.5-1.2L216 606" />
    <path fill="#d0c8c7" d="M81.5 129L68 245l7-170.8-24-16.7" />
    <path fill="#334b55" d="M622.6 563.2L289.8 576l-112.3-23 89.7 51" />
    <path fill="#d5d8e2" d="M1015.5 266l39.5-102v166.5L988.6 251" />
    <path fill="#5f7cb2" d="M609.8 508l-4-22 5.3-41.7 12 63.7" />
    <path fill="#323e3c" d="M808.7 564.7l-234.6 94 224-40-36-89" />
    <path fill="#18282c" d="M974 654.5l-130.4-60.7 87.8 12.8 123.6-76.4" />
    <path fill="#e3d7d0" d="M11.3 443.7L28 461.5 5.5 246.3l-36.6 206" />
    <path fill="#8c92ab" d="M680 520l-14.2 28.8-12.3-17.7 1.8-1" />
    <path fill="#c1b9b8" d="M201 246l-.8-70.2-41.6 63-3.3 27.7" />
    <path fill="#233464" d="M918.5 282.3l-3.5-34 6-21.7 38.2-68.8" />
    <path fill="#252d18" d="M325 670L174 568l164 133.3-172.2-25" />
    <path fill="#707081" d="M814.4 429l-19.6-27.6 23.5 58 1-78.6" />
    <path fill="#88898b" d="M111.6 547.4l100 49.6 5.8 8-3.7 3.2" />
    <path fill="#938e9b" d="M1014 166.4L999 291l50-140.2-71-18.8" />
    <path fill="#ccdafa" d="M304.7 411.6l78.3 50 30-24.7-74 6" />
    <path fill="#d3ccca" d="M57.2 183.7L46.8 342.4l-27-156L60 149.7" />
    <path fill="#2f5a99" d="M497.8 455l7.7-70.4L484 425l-59 27.3" />
    <path fill="#5b657c" d="M998.4 157.5l-34.2-15-18 20.8 99.5 33" />
    <path fill="#e6faff" d="M258 185.7l535.4 38-63 75.2-23.4-29" />
    <path fill="#1c2644" d="M827.6 425.7l-38.8-24.3 56.8 56.2-36 66" />
    <path fill="#d6cac2" d="M90.8 384.3L111 239.6l-27.4 49.7-.3 140.2" />
    <path fill="#000018" d="M996.5 547.4l-56-93.5-5.7 119 4.5-1" />
    <path fill="#7087b1" d="M495.8 472.4L505 420l22.6 76.3 30.2-13.7" />
    <path fill="#001838" d="M610.4 592l7.5-7 50 16.3-75 5.3" />
    <path fill="#81b0fe" d="M420 411.8l-20.6 8.3-21.6 24 1.6-67" />
    <path fill="#908f92" d="M124.4 625.8L96 592.6l74 33.2-30.7-5.3" />
    <path fill="#baecff" d="M610.4 148.5l222.7-6-176 47L311 165" />
    <path fill="#a49fa4" d="M79 402.8L84.6 286l-27 111L51 273.6" />
    <path fill="#0d397a" d="M644 558.3l28-19.6 43-84.7-29 117.2" />
    <path fill="#41442a" d="M149.3 620l47.4 89.7L167 626l-118 7" />
    <path fill="#8a91a6" d="M962 217.6L951.8 185l10.3-5 15 19.4" />
    <path fill="#1b4a7e" d="M652 507l-195.3 6.8 69.4 38.5 112 13.5" />
    <path fill="#4f515c" d="M732.3 585.4l-16-56-4.4 53 17 10.3" />
    <path fill="#98acc9" d="M570.7 420l-44.3-32.3 49.4-14.4-13 31.4" />
    <path fill="#6d6c70" d="M954.3 429.2l8-1.4-51.7 28.5 1.2-18.4" />
    <path fill="#c0dbf7" d="M783.7 263l76.6 16.5-1.8 11-41-33" />
    <path fill="#d5f3ff" d="M198 161.6l7-1.4 146.5-1.6-89.6-33" />
    <path fill="#6d662c" d="M.4 483.3l63 49.7 76.2 66.4L-31 482.7" />
    <path fill="#0f1938" d="M857.8 498.3l-5 14.6 12.7 31V431" />
    <path fill="#aec9ed" d="M756.4 335.7l-.2 19-26-38.6-118-84" />
    <path fill="#73706d" d="M885.6 367.7L791 338.3l55.4-48-23 133.4" />
    <path fill="#576b89" d="M422 577.2l-79.4-31 166.3 21-95 7" />
    <path fill="#fff" d="M310 401l199-114.7-247.4 3 29 44.2" />
    <path fill="#a29fab" d="M196.7 221l-39.4-9-9-68 45.2-20.6" />
    <path fill="#8a8e9d" d="M92.5 135.4l-1.8 153.2-12-91L89.3 69" />
    <path fill="#163045" d="M294.5 548.3L231.8 485l3.3 21.4L341 540" />
    <path fill="#697393" d="M918.3 574.5l8-30.2L933 583l-35.7-33.4" />
    <path fill="#727d9a" d="M356.5 446.7l-19.7.8 103 135.2-83.8-78.2" />
    <path fill="#bbeaff" d="M994.4 146l-239-73.4L943 172l9-25" />
    <path fill="#9aaacb" d="M706.7 419.4l-6.3 9-62.4-105 14 134" />
    <path fill="#2f3833" d="M964 357.8l33-21.2-15.5-30 73.5 93" />
    <path fill="#7d7673" d="M814.6 539L800 578.6l51.3-15.7-8.4 42" />
    <path fill="#ade5ff" d="M865.4 97.7L772 84l-226-9.6L433 119" />
    <path fill="#3e64ab" d="M684.3 404.2l-19.6-58-.3-27.2 8.7 18" />
    <path fill="#aea08b" d="M1055 584l-37.5-125 3.6 49.7 20 32" />
    <path fill="#283106" d="M531.5 571.8l-7 10.6 37.2 26.6.4-29" />
    <path fill="#71778f" d="M59.2 131.4l-15.8-23.8 30.3 6-20-47.5" />
    <path fill="#3b4a6d" d="M991.2 201l-52.5 142-10.6-30 49-123" />
    <path fill="#d8d7e7" d="M374.8 494.8l-17.5-76.3 1.4 16.5-.3 32.5" />
    <path fill="#a7aecd" d="M244 391.4l-5.6 10.5-33.6-108 46 80" />
    <path fill="#cac3c0" d="M110.4 98.3l-20.7-2.5 29.6 89.5-43-17" />
    <path fill="#8c8d9b" d="M84 447l-40-53.6 79.3 18.7-26.5-38" />
    <path fill="#e8f8ff" d="M877 258.4l65.4-66 1.4-26.6-98.6-6.7" />
    <path fill="#5b80c1" d="M782.4 267L762 292.5l-79 14 57-14.5" />
    <path fill="#81839a" d="M229.7 437l21.2 56.4-8-89-27-31.7" />
    <path fill="#65667b" d="M19.5 221l1 27.2 1-71.7-4 21" />
    <path fill="#797e94" d="M168.5 98l6.3 131.2-9.5 6.7 1.3-59" />
    <path fill="#c6d9f3" d="M829.7 207l60.5 90 2.7-19-11 15" />
    <path fill="#203975" d="M226.6 314.4l-3.5-51 12 7.6-8 26" />
    <path fill="#d4d3d9" d="M-31 412l82-18.7 25 76.4 8 27.8" />
    <path fill="#b4bbd0" d="M360 542.3l-29.7-47.8 14.4 48.4 22.3 14" />
    <path fill="#3e4224" d="M580 514l3-12.3-44-10-14 3.2" />
    <path fill="#6d7189" d="M80.5 389l-3.8 101.8 6.7 1.3-.4-56" />
    <path fill="#234fa1" d="M742.4 330.3l17.8 28.7.7-2.2-21 20.4" />
    <path fill="#e8f5ff" d="M1055 73.6L867.7 90.3l-65.3-13L1055 26.6" />
    <path fill="#89d2ff" d="M609 11.8l416-33.4 1.5 50L766.7 49" />
    <path fill="#0b2846" d="M309.5 498.2l-3.7-12.2-23.3-9.4-10 24.2" />
    <path fill="#0d4194" d="M600.8 460.4l-20-4.5-37.8 14 81.6-51" />
    <path fill="#ab9a9b" d="M1.6 156.4l14.8 96.4-25 65 10-239.2" />
    <path fill="#335eab" d="M633.8 320.3L646.4 441l-38-63 41.5-51.5" />
    <path fill="#4f4a16" d="M107.8 615.4l-17-26.6L-31 542.2l189 117.2" />
    <path fill="#3c4056" d="M1028 555.4l-42 17.4 34.4-57.5 26.8 107.4" />
    <path fill="#7b7e91" d="M147.8 329.6l10.3-18-10 72-48-182.4" />
    <path fill="#081a38" d="M784 300.7V311l-43 144 29.2-141" />
    <path fill="#d0dded" d="M631 332.5l-4.2 21-42.2-7.6 6.2 55" />
    <path fill="#686d86" d="M68.5 180l-4-45-3.5 37.6.4 42.7" />
    <path fill="#938581" d="M834.6 509.8l-29.2-5-25-60.4 37.7 64.2" />
    <path fill="#363d47" d="M782 333l-5.4 46.3L859 369l-43.4 10.6" />
    <path fill="#848b9b" d="M789.8 389.7l28.5-6L798 412l21.8 27" />
    <path fill="#6a697c" d="M23.4 286.5l-6.7-4 1.2-52.3 2-48.3" />
    <path fill="#adacb2" d="M171.6 426.8L93.8 296.6l55.4 129.8 17.3 50" />
    <path fill="#9babca" d="M666 384l-12.4 93 43.8 6.8-28 20" />
    <path fill="#6b574e" d="M581 658.8l.2-130.4-4.5 34.3 14.8 121" />
    <path fill="#46575d" d="M158.8 545.5l90 40.5-93.3-59.8-41.5-15.6" />
    <path fill="#224f9e" d="M545.8 480.5l85 12.2-8.2-55.8-21.3 83" />
    <path fill="#effafe" d="M592 278.4l84 3.5-20 50 21.8-26" />
    <path fill="#515b79" d="M52.7 52.3L22 91.3l20-6-10.8-17.6" />
    <path fill="#abb0c0" d="M205.4 558.3l-67-42.4-5.6-26 66 37" />
    <path fill="#1a2c54" d="M979 309.3l-69.8-32.7 15-51 29.6 100.8" />
    <path fill="#b6e6ff" d="M201.5 106.2l35-45.7-162.2-5.7 11.5 22.6" />
    <path fill="#edfdff" d="M553 359.5l-44.8-148-274.4 70.7 379.5 15" />
    <path fill="#8ed7ff" d="M108.8 60.5L-31 29l135.2-60 152 73.8" />
    <path fill="#bbb9c2" d="M975.4 299.8l12.4 48.6-2-46 13-47.7" />
    <path fill="#174a94" d="M392.7 502.3l4 27.7 43.6-4.4-7.5 37.6" />
    <path fill="#387bdf" d="M526 336l-14.6-7.5 30 4.8-20.7 62.7" />
    <path fill="#141929" d="M765 579.3L745.5 515l10.6 46.2 1 38" />
    <path fill="#1f280c" d="M-8 610.4l45.4 28.4L161.7 713-18 643" />
    <path fill="#535e63" d="M822 275.5l-38.7 16.8 13.5-22 29.8 20.2" />
    <path fill="#70788f" d="M339 543.7l-39.5-107 31 63.2-47 4" />
    <path fill="#fdfefe" d="M410.5 401.3l-109-80.4 11.8 74 102-20" />
    <path fill="#b4b2b9" d="M195 371l-13.5-19.2-24-7-15.5-90" />
    <path fill="#313731" d="M889.2 400l-2.7 19.8 28.2 14.3 71.7-21" />
    <path fill="#48434e" d="M974.5 561L925 593l10.3 3.7-4.7-24.5" />
    <path fill="#0a1838" d="M852.4 432l15.2 10-5.6 18-7-11" />
    <path fill="#e4dcd8" d="M66 139.4l6-9.4 5 7.5-19.5-41" />
    <path fill="#9f9690" d="M934 327.4l-39.7 7.6-40-48 62 35.2" />
    <path fill="#324172" d="M288 391l-21.4-65.3L283 407l-.5 34" />
    <path fill="#847873" d="M901 476.4l3-40.8-10.5 20.7-.6 54.8" />
    <path fill="#3868b4" d="M625 326l43.6-24-31.6 4.6 5 39.4" />
    <path fill="#38371e" d="M11.4 574.5l106.3-18.2L-9 474l98.8 79.8" />
    <path fill="#bbedff" d="M1036.2 153.8l4.2-72.3 1-1.2L932 101.5" />
    <path fill="#263c6a" d="M945 180.3l2-16.6 8-10.7.6 30.4" />
    <path fill="#535762" d="M843.6 412.3l48.2 3.7-58.5 5.4-23-46" />
    <path fill="#404b46" d="M589.5 457.2l38 15-52.8-1.8L556 461" />
    <path fill="#2b3517" d="M251.8 641.7L188 686l292-18.7L268.2 713" />
    <path fill="#282e14" d="M113 598.4L37 534l-26-3.7 131.6 80" />
    <path fill="#d3c3b9" d="M64.2 312l2.6 60 5.6 43.5 11.2-330" />
    <path fill="#31383b" d="M1005.2 297.5l47.5 75.7-79.4 19.8 74-56" />
    <path fill="#182f36" d="M357.8 607l117.4-42.3-46 45.3-95.6 12.5" />
    <path fill="#d1c6c2" d="M-8.3 229l58 28.3-36.5-41L37 115" />
    <path fill="#a8c3e9" d="M749.6 291.2l-35 34 74.4-47.7-31.8 40.6" />
    <path fill="#000c28" d="M711.7 529.8l-20.2 38.6 3.5 34.4 14 26.3" />
    <path fill="#474534" d="M116.5 527.3L-26.8 426.6l133 87.6 24.3-25.2" />
    <path fill="#74686c" d="M852.8 454.5h-9L850 535l5-37.2" />
    <path fill="#696368" d="M823.4 474.3l35.3 67-101.4 5.6 81.5-5" />
    <path fill="#0e1a3a" d="M791.7 455.5l34.2-14.2-74-27.6-1-55.5" />
    <path fill="#f6e6db" d="M31.6 342l-9.4-35.3-17.7-4.4 37.8 41.3" />
    <path fill="#d0d4de" d="M213 542.6l21-16.4 12 34-30.4.6" />
    <path fill="#495c88" d="M238.3 276.5l25 26.7-10.3 38.6-8.8-52.7" />
    <path fill="#e7f9ff" d="M909.2 259.7l5-3.7 11.7-99.7L483 271" />
    <path fill="#4d6a95" d="M519 530.2l30-24L422.5 460l44-33.4" />
    <path fill="#57617b" d="M891 346.8l-34-46 33.3 2.4-31.8-34" />
    <path fill="#787984" d="M999.5 396.2l-10 9.3 30.8.3-.6 15" />
    <path fill="#617fbb" d="M864 268.6l32.7 5 23.3-13.4-14.6 1.6" />
    <path fill="#2d3b22" d="M961.4 640l-20.6-21.4-60.4 36.5-43-52" />
    <path fill="#fbffff" d="M685.8 254.2l-194.4 76 265-59.2 45.5-14.3" />
    <path fill="#a6aabb" d="M133.7 500l43.7 26.2-48-7.4-41.2-83.6" />
    <path fill="#7c8eae" d="M312.5 537.3l30.5 19.5-7 7.7 23.2 7.6" />
    <path fill="#859fca" d="M426.8 319l171 125.4L608 418l-21.3 18" />
    <path fill="#283e70" d="M294.7 434.7l-49.5-30 7.6 74.5 38.7-17" />
    <path fill="#282d36" d="M927.2 318l39 25.2 88.8 47.3-45.2-7.4" />
    <path fill="#93a3c4" d="M299.2 380l29.8 40.7-50.3-77.8 14.5 77" />
    <path fill="#2f487a" d="M709.4 373.3l26.2 43.4 12.4 5.7-39.2-29.6" />
    <path fill="#dedce1" d="M192.6 481.2l8.6 33 33.2-36.8-40-20" />
    <path fill="#9696a1" d="M35.4 172.8l180 125.6 9.4-26-7.6 59.7" />
    <path fill="#6f85b1" d="M640.3 491.2l-8.7-106.8-3.4 69.4 36.8-38" />
    <path fill="#d2c1b8" d="M130.3 103.2l-7.6 90 3 65 7.5-71" />
    <path fill="#2d3b2f" d="M729 676l-20.7-79.3 95 108.8-5.8-155.7" />
    <path fill="#3b5863" d="M643 569l-37.3-46.8 51.2 64.4 36-20.6" />
    <path fill="#191c1f" d="M898.8 580.2l-42.6 46.4-9.8-52 70.2 18.2" />
    <path fill="#939396" d="M213.4 605.4L188.2 583l-16.3-9.5 37 37.2" />
    <path fill="#817b78" d="M828 355.4l-47.5-6.8 80-44.3 2.8 113" />
    <path fill="#aaaaab" d="M20 537.6l69.5 49.6L64.3 576l-12.7-18" />
    <path fill="#4f5859" d="M297.5 600.3L235.8 532l3-20.5 37.4 16.4" />
    <path fill="#454b2e" d="M483.3 680l67.4-37-50.5 5-53.5-9.5" />
    <path fill="#90939e" d="M9.6 466.6L158 570.8l-12.5-4.3L122 552" />
    <path fill="#8c7f78" d="M880.5 498.7l5-128.5-16 142.2 27 64" />
    <path fill="#071332" d="M844.5 503l-19.3-65.6-1.5 39.5 28.7 10" />
    <path fill="#2c3126" d="M18 455l170 134L28.8 474.6-31 436.2" />
    <path fill="#3c4949" d="M647.8 605.3l-62.6 3 57.4 9.5 62.8 16.6" />
    <path fill="#375063" d="M629.8 581.8l-32.4 17.7-91.8-43 100.8 14.2" />
    <path fill="#cbcfd9" d="M200.3 355.4L226.5 482l-11-90.7L194.2 291" />
    <path fill="#0f2446" d="M723 507.8l-27.2 9.3 25.5-88 3.5-40" />
    <path fill="#9da7bc" d="M332.8 494.5L349 532l-49-83.5-9 26.5" />
    <path fill="#000020" d="M925.3 438.3l-7 73.7 9.3-24.8 3.6-48" />
    <path fill="#96e0ff" d="M609.5 81.8L246.3 128l-43.5 27-13.5-50.8" />
    <path fill="#807f8b" d="M1018.7 244l-38.8 3-9-36.8-9-8.8" />
  </g>
</svg>