<svg version="1.1" viewBox="0 0 1024 512" width="1024" height="512" xmlns="http://www.w3.org/2000/svg">
  <g fill-opacity=".5">
    <g class="SVG--0">
      <path fill="#c1d8a9" d="M306 127.3L513.7 268l-432 79.8L274 55.2" />
      <path fill="#8d3f6b" d="M194.7 67l-90 .5L121 213.3 58.5 161" />
      <path fill="#19435a" d="M339.8 212l64 .4 5.7-31L332 179" />
      <path fill="#b8e598" d="M373.4 249l-273-29L13 291.3 268 334" />
      <path fill="#ca4a3a" d="M581.3 301.8l-79.6 112 138.8-161 81-101.7" />
      <path fill="#836c3d" d="M294 207.4l-15.5-61-28.8-31.5 8.4 78" />
      <path fill="#fff" d="M1055 23L291.7-31 302 247l44.4-65.7" />
      <path fill="#904472" d="M212.2 50L118 95l104 19.5L167.5 87" />
      <path fill="#feffff" d="M353 230l273.7-33.4L631 244 413.5 516.8" />
      <path fill="#d21d89" d="M35.5 409.2l-66.5-10 204 5.8-42.7 2.2" />
      <path fill="#2b5b02" d="M365.8 407.2l-115-.7 49-3.5 139.3.8" />
      <path fill="#a62764" d="M195.5 52L221 74.5l-11.7 44.2 30-44.3" />
      <path fill="#81221f" d="M250.4 195.5l-15 5.5H104.6l19.4-4.8" />
      <path fill="#fff" d="M246 118.7l8.5 103.4-83.8-3-63-123" />
      <path fill="#9c4073" d="M28.6 192.5l84.4-12.3-65-43.4 68 15.4" />
      <path fill="#e83e67" d="M136 455l44.7 2.8L12 462.3l20.4-8" />
      <path fill="#9a9a9c" d="M511 117l73 2 20.4-13.5-62.8-6.2" />
      <path fill="#c8895a" d="M65 404.5l171-3.6-1-14 48.5 21" />
      <path fill="#fff" d="M603 296.3l-386 31L-31 311l276 94" />
      <path fill="#99999c" d="M543.8 172.4l66 5.6-6 9.7-91 6.3" />
      <path fill="#68686b" d="M765.5 463l22.4-.4 23-7.6-108-1.7" />
      <path fill="#9f2d70" d="M34 160.8l-2 27.5-7-36.4 31-26" />
      <path fill="#a45181" d="M107.7 38L120 69.6l-6 78.6-7 53.4" />
      <path fill="#36989e" d="M338.4 463.5l-11-10.3L443 463.5 385 453" />
      <path fill="#79797c" d="M149.2 371l-73.6 6.2-50.6-3.7 37-5.4" />
      <path fill="#7eb7da" d="M959.5 114.3l70-40.3-87.7 57.8-244.5 138" />
      <path fill="#59565c" d="M478 235.7l-9.5-2h19l-1.7 54.4" />
      <path fill="#b95952" d="M555 352.6L526 389l-12.2-6.6 108.7-115.2" />
      <path fill="#468ea6" d="M485.7 402l-196-.5 155.2 7.3 31-4.3" />
      <path fill="#9b9066" d="M238.3 208l34.7-13 6 3 12.3-89.5" />
      <path fill="#c6c6c9" d="M915 311.7l38-76.8 45 3-87.7-86" />
      <path fill="#5684cf" d="M457.8 172.7L480 196l-18.7 15.7-9.8-3.4" />
      <path fill="#70b1dd" d="M305 145.2l-1.4-13 98 5.6-47.6 9" />
      <path fill="#fff" d="M108-23L-31 12.5l113.3 140 27-14.7m-15.4 40l-125 44.7 134 11.2 6-48.4" />
      <path fill="#4287b2" d="M108.8 241l-4 30.8-17.3-1.2-2.7-32.4" />
      <path fill="#6bafdd" d="M125.5 39.8l-31.8-3.5 8.5-23.6 32.8 2" />
      <path fill="#fdc27a" d="M11.8 103.5l-1.3-7.7 119 11.8-121.7 4.2" />
      <path fill="#fff" d="M-31 378l226.2-32L44 297.3-5.4-31" />
      <path fill="#395f4d" d="M419 178.4L323.7 218l60.6-25.5-52.2-11.2" />
      <path fill="#fff" d="M285.8 195l68.3 13.8-60-81.2-8-1M48-10.4l403.6 163 269-150-747-2.7m743 224L827 529l186.6 14-30-242.7" />
      <path fill="#fffdff" d="M422.2 227.7l-130-25-146.7.5L480 266.5" />
      <path fill="#fff" d="M422.7 407.4L387.3 543l471.5-25.7L609 407" />
      <path fill="#5e9bb7" d="M344.2 230l-62.8 9.8 35.7 24.8 34-84" />
      <path fill="#9c6178" d="M422 223.7l-28.7 6.7v-8.7l15-20.3" />
      <path fill="#8c9d98" d="M383 458.4l-13-8.4-105.2 16.3-45-12.2" />
      <path fill="#a72a73" d="M13.7 141.5l35.7 51.8 31-17.4-44 13" />
      <path fill="#fff" d="M-31 511.8l622.5 10.6L-31 409l455.8.3" />
      <path fill="#8f8f91" d="M904 270.5l113 7.6-107 2 14.6-10" />
      <path fill="#8d893a" d="M291.4 190.3l-51.6 12.5-75.3-4 57.5-3" />
      <path fill="#d499a6" d="M709.5 98.8l50 16L594 292.6 752.8 99.2" />
      <path fill="#abc6d7" d="M718.7 304L697 279.8l-109.5 56.5 165-102.4" />
      <path fill="#b39c3d" d="M255.5 74.4L294 101l-17-22.3-36 30.3" />
      <path fill="#c7c8cc" d="M680.4 463.5l25.8-91.5-32.8-77-.7 98.5" />
      <path fill="#c0c0c3" d="M889.5 331l-14-48.8 1.6 158.6 10-17.4" />
      <path fill="#9c96a2" d="M455 273.5l2 6-74.4 4.4 6.2-16" />
      <path fill="#42bf69" d="M228.8 312l-2.7 8.7-70-1.4 31-8.6" />
      <path fill="#b4b5b8" d="M637 327.7l5.4 104.2-28 19 15.6-40" />
      <path fill="#fff" d="M247.7 136.4L251 196l-148.7-31.6 70.5-65.7m50.7-14l831.5-77L-13.5-31 261.8 73.6" />
      <path fill="#fff" d="M799 103.3l256-19.6L1017.8-31 247 78.3" />
      <path fill="#915d7b" d="M187.7 102.5l-17.2-3.7-61.4-29 55-3.4" />
      <path fill="#c32680" d="M50.2 387.4L41.6 408l160-4-147-.6" />
      <path fill="#fffa31" d="M194.5 444.5l-36.8 8 42 6.2-60.5.3" />
      <path fill="#990057" d="M227 96l-19 14-36.2-14 17 12.3" />
      <path fill="#fff" d="M266 141.8l26.3-34.7-19.5-15-24.6 6" />
      <path fill="#b09b2a" d="M283.6 195.8L290.3 88l13 31-25.3 6" />
      <path fill="#a7a7a9" d="M885.4 429.7L980 427l-142.7-.6-123 1.7" />
      <path fill="#f2353c" d="M370.6 174l-7.6-.2 19.5-.8-10.4-11" />
      <path fill="#c87139" d="M220 132.4l32.6-2L244 90l-1 32.3" />
      <path fill="#9ea8aa" d="M817 200l47-12-206 4.2 83.7-3.2" />
      <path fill="#a03071" d="M188.8 60.5L147 80.2l71-21.4-15.5-2.3" />
      <path fill="#fff" d="M929.8 139.5l-367-22-249.2 41L549.3 178" />
      <path fill="#9a135f" d="M27.3 147.6l31.3-13.3 6.5 7.4 11-2" />
      <path fill="#177caa" d="M409.5 215.4l-79.7-6 14.2-4 76 3" />
      <path fill="#a1a2a3" d="M803.6 116l-79.4-1.7-176.7 2 189.8 2.6" />
      <path fill="#b8e5cc" d="M121.8 92.2l48-.2 3.3-16.2-90-.4" />
      <path fill="#a35971" d="M107 215.5l-5.5-12L218 199l-98-4.6" />
      <path fill="#e23a41" d="M431.7 382.3l-9 3 2.5 14.3 3.8 3.5" />
      <path fill="#d31f1e" d="M337.6 385l-2-2.8 5.2 25.6 4.8-16.2" />
      <path fill="#bf2751" d="M239.4 82.8l-32-29.4 19 28L248.2 69" />
      <path fill="#c2c0c6" d="M995 227.7L817 245l4.3-16.5-48-4.3" />
      <path fill="#bed0bc" d="M976.2 117.2l-181.6.4 107.3-20-4 13.6" />
      <path fill="#d3edb2" d="M380 273.5L166.8 231l-122 74.2 273 14.8" />
      <path fill="#fff" d="M31 168.7l29.4 17.6 13.8-28-21.7-16.7" />
      <path fill="#6a6a6a" d="M549 185.8l34-2.3-14.6-4.3-43.2-.8" />
      <path fill="#b4b6ba" d="M741.3 363.5l.2-28.4 13.2-26-2.4 123" />
      <path fill="#beb9b9" d="M742.6 201.8L669 212l56.5-24.5-154.6 3.3" />
      <path fill="#a50561" d="M100.8 97.8l31-3 10.4-5.4 44 10.7" />
      <path fill="#185030" d="M415 187.5l-4.2-18.3-5 14.3-82 .8" />
      <path fill="#fff" d="M-4-1.7l76.3-6 45.3 99-148.6 12" />
      <path fill="#e0b35d" d="M288 196.7l5.5 47.8 7.2-33.8 2.3-19.5" />
      <path fill="#fff" d="M226.4 193.4l11-78.7-122.6-6.8.6 88" />
      <path fill="#fff" d="M19 459.4L-.2 131 1 543l889.6-74.4" />
      <path fill="#fff" d="M399.8 359.6l-53-146 49.5-.3-12 77.7" />
      <path fill="#a4a6ac" d="M429.6 230.6l-2.4-57-8-1.7 21 15" />
      <path fill="#ffff07" d="M223 404l57.3-2.2 4.6 2-61 5.3" />
      <path fill="#d527a0" d="M41 460l40-1.4-60.2-5.5-5.2 7" />
      <path fill="#cbcbcd" d="M482.3 422l37 26.8 20.8-17.5 72-3.5" />
      <path fill="#fff" d="M-18.4 264.4l157-42.7 66-1.7-206-40M818 434L694 283.4l11.6 124.3 175-205.6" />
      <path fill="#ae0568" d="M113.8 77.5l-4 68-43.4 4.6 45.4 6" />
      <path fill="#717172" d="M725.4 461l-2-8.5 98.6 9.3-64.5-2.3" />
      <path fill="#cbd1d6" d="M873.6 304.7l88.4-2.4-75.3-15.7-7.2-111.7" />
      <path fill="#bbbbbe" d="M1003.4 410.7L999 272l-3.3 105 1 34.6" />
      <path fill="#f0baa7" d="M766.3 101.5l-86 99.2 83-111.6 29-20" />
      <path fill="#81a8c9" d="M577.8 344.3L653 299l-137.4 76-6.8 13.4" />
      <path fill="#cdeaa9" d="M190 328L51.6 251l-21.3 25 52.3 39.5" />
      <path fill="#fff" d="M461.8 269.8l48-81.7-80.8 35-76 47" />
      <path fill="#6d6b6f" d="M488.5 256.4l-4.4-28-5 54.6 15-35.8" />
      <path fill="#e57053" d="M697 183.7l-21.8 9.4L555 351l-49 53.4" />
      <path fill="#c8cfd3" d="M587 355.3l31.6 19.6 5.4-100 51 57" />
      <path fill="#f9624a" d="M242.2 381l1.5 28.8-12.4-18.2 11.6-5.2" />
      <path fill="#949494" d="M596.4 106.6l-3.4-9-31.7 14.3-73-13" />
      <path fill="#fff" d="M447.3 513.6l285.2-53 164 2.5 158.5 48" />
      <path fill="#28718d" d="M339.4 207.2l-5 12.7 5.6 12 7.6-44" />
      <path fill="#a1a0a3" d="M997.3 130.6l-5.6 8.7 15 1.6-61.4-5" />
      <path fill="#5dacb6" d="M356 462.3l69.6-2.8-8.8-5-88 3.5" />
      <path fill="#c9b1b0" d="M410 186l-80.6 2.7 31.5 16 46-6.8" />
      <path fill="#fff" d="M-31 111.7l131 1.3-3.6-66.8 13.2 105.2M333-31l-46 181 70.4-56.5 697.6-19" />
      <path fill="#a0a5c8" d="M260 180l4.8-55.5 10.7 19.8 4.3 55" />
      <path fill="#fecd54" d="M192.7 454.3l-7.5-4.4 24.3 11h-133" />
      <path fill="#9d375d" d="M107 151.7l1.4-34 8-39L111 229" />
      <path fill="#acacae" d="M817.6 164l-52.5 2.7-5-8.3 31 1.3" />
      <path fill="#fff" d="M380.6 280l-120 73.8 125.8 51.5 182-82.4" />
      <path fill="#fffeff" d="M3.5 453.7l237.7.3L97 406l-128 3.4" />
      <path fill="#fff" d="M514.6 409.7l105 17.5 9-54L547 363" />
      <path fill="#b39063" d="M230.5 133l22.2-19.8 1 64.2 25-44.6" />
      <path fill="#fff" d="M255.5 103.2L255 126l-141.7 66.3 139.2 2" />
      <path fill="#1b95c4" d="M483.5 402l-62.8 2-15 2.5H486" />
      <path fill="#e01d9e" d="M124.3 453l-8.3 7.7-116.5-3 98.8-1.8" />
    </g>
    <g class="SVG--1">
      <path fill="#fff" d="M-31 365.8h156.5l-88-83.8-16.7-165.6" />
      <path fill="#a8a7ab" d="M937.5 159.2l70.7 10.4.7 6.4-15-16.6" />
      <path fill="#fff" d="M807.5 214l-177 100 89.8-43.7 157 156.6" />
      <path fill="#fff" d="M702 452l-296.3 4 311.5 87 33-301M115 160.4L223 192l-41.4-91.5h-66.3" />
      <path fill="#fffeff" d="M416 307.2l-7.8-35-7.2-66.6 11.7 15.3" />
      <path fill="#c8aeac" d="M874.5 243l45 7 38 2.7-10-11" />
      <path fill="#fff" d="M1025.6-28.4l.2 558.5-15-1-2.2-429" />
      <path fill="#c5c5c6" d="M520.5 115.3l-6 190.2L519 76.7l-25.4 28" />
      <path fill="#9b9699" d="M229.6 459l34-8.2 32 6.2-64.7 6.3" />
      <path fill="#b4babb" d="M838 149l41-2.5-.4 101-1.2-79.3" />
      <path fill="#9f9fa1" d="M921 279.2l59 .6 22.6-7.5-88 2.6" />
      <path fill="#fff614" d="M260.7 404.7l25 2.7h13l.7-6.2" />
      <path fill="#fff" d="M643.8 543l-3.6-262.3v30l40 48.4M-31 408l456.4 5.4-118.4 54-7.3-12.6" />
      <path fill="#d3ecb4" d="M310.3 231l-70-11.6-113.5 4.7 24 100" />
      <path fill="#ea8185" d="M41.3 376.5l-11-13.7L54 389l-5 22" />
      <path fill="#fbfdff" d="M763 194.3l195.7-1.6 53.4 77.8-20-54" />
      <path fill="#bbb8b6" d="M515.4 219l2.5 31.8 3 120-6 72" />
      <path fill="#b9b4c6" d="M133.3 487.2l-2.6 3.7 11.3 6-4.3-58" />
      <path fill="#fff" d="M94 378l-101.6-1 149.4 27 232.7-41" />
      <path fill="#939695" d="M921.8 191.5l30-1.8-272-.4 187.3 3.4" />
      <path fill="#bfbfc0" d="M618.5 431.5l-61.3-3.5 120-2.8 23.4 2.8" />
      <path fill="#e4cb81" d="M371.3 269l-9.6.2-22.3-24.2 1.6-19.8" />
      <path fill="#f3cf86" d="M114 253.2l-10.2-38-4-17 13.5.2" />
      <path fill="#b7c2bf" d="M705 294.5l42.3-89.4-68.5-3 55.2 6" />
      <path fill="#ad8cc0" d="M644.8 237.2l-6 8-16 4.4 64.7-63" />
      <path fill="#8b2c63" d="M111.8 72.7l-7-12.3 7.6-16.8 5.3 52.4" />
      <path fill="#c5c5c7" d="M1022.8 431l-45.8-9-26.8 31.3-4-27" />
      <path fill="#f8c380" d="M23.5 108l86-13-10.3 1-7.3 15" />
      <path fill="#cf0a7d" d="M186.4 73L140 67.4 115 70l-30 2" />
      <path fill="#fff" d="M502.4 170l-355-201L118 67l88-13m328.3 141l-25-101 33.4 223L624 191" />
      <path fill="#979798" d="M140 375.7l-1.4 5 4-12-109 6.8" />
      <path fill="#295c6b" d="M409 213.2l16 21.3-16.7-30-23.3 2" />
      <path fill="#82b9db" d="M847 180.8l-108.3 70.8-4.2-5 27.8-14" />
      <path fill="#a7a7a7" d="M948.7 222l34-5.2-41.7-4.4-20.2 1" />
      <path fill="#fff" d="M853 246l3-62.7-37.7 33.5 127.5 22.5" />
      <path fill="#fcffff" d="M288.4 150l46 111.3 2-88.3 149.2-34.4" />
      <path fill="#fff" d="M402.8 204.7L407 186l15.7-3.2 8.8 32.5" />
      <path fill="#aae494" d="M842.6 101l36.3-1.7 35 8-53-.8" />
      <path fill="#a1236c" d="M29.3 190.2l67.6-14-25-3.8-4 17" />
      <path fill="#fff" d="M890 410.8l93 17.8 15-116.4-104.4-11" />
      <path fill="#c0c0c2" d="M756.2 426l-30 23.8 7-20-84-4" />
      <path fill="#080400" d="M258 168.3l1.2-1 20.2 1.2L260 171" />
      <path fill="#fff" d="M308 402l201-132-242 54.4-235 14M917.2 233l121 31-150.8-8.3 128.2-18.7m-775-131.5l-25 89.6L112 173l-1.5-17.2" />
      <path fill="#9ac6e0" d="M985.7 120.5l-40-15-2.2-10.8 13 2.3" />
      <path fill="#fff" d="M749.5 291l120.3-51.7 3.6 187.3-112.6-4" />
      <path fill="#a8cedb" d="M342.7 130.8L329 171l-28 118 30.6-113" />
      <path fill="#fff" d="M103.8 182L77 179.5-31 265l136.7-45.7m170-21.5l20.6 22.2-161-.5 129-19.4" />
      <path fill="#bfb8be" d="M474.4 368.8l63.7-22 40-29.6-34 43.6" />
      <path fill="#fff" d="M174 79.7l19.6-15.5L223.3 80l-7.6 21.8" />
      <path fill="#fd7a7a" d="M724.8 111.6L712 102l28.3-1-3.7 2" />
      <path fill="#fff" d="M791.6 444.6l76 92L1055 509l-34-63.2" />
      <path fill="#c1eac3" d="M583.8 320.4l1.3-4.7 223-145.5-92 64.6" />
      <path fill="#fff" d="M253.7 146.2l270 40.6L208-31l176.2 177.8" />
      <path fill="#bdbcbd" d="M628 106.8l-1.3 33.2 1 132.8 3-107.3" />
      <path fill="#d1ba0c" d="M256 210.4l-2.6-97.6 4.5 18 1 44" />
      <path fill="#7ab2d9" d="M121 23.5l-4.2-4.2-24.4 1.5 4.3 26" />
      <path fill="#99999a" d="M29 367l8.4-.2 112.6 9L32 373" />
      <path fill="#9d8f20" d="M284.8 182.3l.2-52.6-8.6 23.5 3 51.2" />
      <path fill="#fff" d="M1055 88.5L154.5-31l74.8 106.5 75.4-16.3" />
      <path fill="#b7a8bb" d="M351.3 490l11.7 3.7-3.8-38.7-5.3 35" />
      <path fill="#fff" d="M250.2 121.6l31 4.7 10.5-12.4L265 88" />
      <path fill="#703658" d="M125.5 101L136 85.8l-16.8 18 7.5-33" />
      <path fill="#93165d" d="M49.4 190l16.6.2-34.4-13-2 3" />
      <path fill="#979b9a" d="M633.8 189l-87.2 1.3 80 2 174-2.5" />
      <path fill="#aeaeb0" d="M587 357l46-4.7 3.7 66.2 4.3-75" />
      <path fill="#fff" d="M453.3 386.4L71 311l26 85.5-3.3-30.4" />
      <path fill="#85bad9" d="M616.6 320l105.7-59 17-13-55.8 29.7" />
      <path fill="#9a075a" d="M82 153l-23.4-19.2-18 8 17.7 1" />
      <path fill="#fff" d="M751.8 160l-74.2 54.6 75-96 131.6 4" />
      <path fill="#72a8be" d="M305.5 264l16.3-5 11-20.6-43 12.5" />
      <path fill="#16512e" d="M394 182.4l-44.5 7.4-17.5-6.6 8-2.5" />
      <path fill="#aeadae" d="M905.6 184.5l37.5-1-7-6.2-39-2" />
      <path fill="#b7b6b8" d="M504.2 301.8l-1.4.4-19.6.6 32-15.8" />
      <path fill="#a09905" d="M256.4 135.7L243 111.3l10.6-29-6.6 28" />
      <path fill="#1d6b4e" d="M332.2 401.7l30.4 4h-53L348 397" />
      <path fill="#fff" d="M69.6 160.5l5.2 11L49.4 187l9.7-37.6" />
      <path fill="#d2daca" d="M116.4 453.6L222 405.2l-83.2 44.4 7 11" />
      <path fill="#bec2c3" d="M745.5 279l-2 49.7-2.7-37.2 1-170.8" />
      <path fill="#cfebb1" d="M202.2 332.6l104.6-16 51.6-18.2L376 259" />
      <path fill="#81a2d8" d="M475 197.5l-35.6-17.8 20-4 14 5.7" />
      <path fill="#e0e1e2" d="M264.6 185.8l-7 8.2 70.4-7-35.6 6.3" />
      <path fill="#65a5cf" d="M924.7 135l53-30.2-36.3 23L820 199.4" />
      <path fill="#afafb1" d="M492.6 167.2l13.8-6.7 10-5.7-10.8 18.5" />
      <path fill="#9f949e" d="M976.3 228l-107.7-.6 99.4 7 21.3-2.3" />
      <path fill="#fff" d="M797.2 104.3l113.6 6L823 116l-52.8-10.6" />
      <path fill="#b0afb1" d="M514.2 228.3l-3-2.6-22.6 5.2 13.2 7" />
      <path fill="#fff" d="M76.2 225l27.4-128H-31l141.8-55" />
      <path fill="#f435a7" d="M2 405.6l146.6-5.4-30.8 5-.3 3" />
      <path fill="#fff" d="M115 104.7l128.5 20-5.4-29.3-123 64" />
      <path fill="#baa416" d="M219.3 202l-13.4.3 17-7.3 42 3.3" />
      <path fill="#930052" d="M34.4 142.7L28.8 159l-1 5.8 2.3 16.8" />
      <path fill="#c0c0c1" d="M847 448.6l-8.4-13.5-1 14 22.5-35" />
      <path fill="#c4c6c6" d="M702.3 344l-20.7 51.6-4-75 27 89.6" />
      <path fill="#f56f33" d="M617.4 277.2L511.6 400.5l38-49.7 46.6-55" />
      <path fill="#cde8b0" d="M50.2 250.3L32.7 271l69.7 41-24.8-75.2" />
      <path fill="#fff" d="M539 92.8l516-38.5L502-31l24 160.4M23.6 173.8L36 56.6l-67 262.2L64 210" />
      <path fill="#f4f0ee" d="M98.7 174.7l-9-75 7 75.7 2.5-41" />
      <path fill="#fff" d="M961.4 189l-62-27.2 54.5 3.8 101 8.5" />
      <path fill="#bababc" d="M1009.2 445.5l-14.3-8 26-4.3 34-33.2" />
      <path fill="#7e2a5b" d="M147 72l6.8 38.2-3.7-34 21-7" />
      <path fill="#7db5d7" d="M331.8 155.5l49.8-21.3-36.3 5.4-2.5 13.5" />
      <path fill="#981c67" d="M204.4 56.2l-19.2 6 38.4 2-22.4-9" />
      <path fill="#a2a2a4" d="M462 285.7l-6.2-15-50 7.6 65.6 4.7" />
      <path fill="#fff" d="M474.8 252.4l-75.4 124.8L566 425.6 499 387" />
      <path fill="#baeeed" d="M570 283.4l54-88-39.5 75.5-38.2 62" />
      <path fill="#fff" d="M466.7 276.7l14-139.6 38.5 82-156 13" />
      <path fill="#e70078" d="M128.8 403.8l-72.6-.8-42 .4 35.5 2.6" />
      <path fill="#feffff" d="M553.7 124.5l22.7 84.4 7.3-106 55.6 97" />
      <path fill="#b32d83" d="M145.7 204l-19.4-3-28.2-1.2 78-4.6" />
      <path fill="#944c4b" d="M381.7 157l-15.2 50 2.3-24.3 3.8-12.5" />
      <path fill="#60c57d" d="M185.6 320.2l-10.2-13 56.5 8-40 6.8" />
      <path fill="#c4c4c5" d="M480.6 388v-11l-16 9.4L478 394" />
      <path fill="#a4a5a3" d="M855 230.2l-29-5 2.7 22.2-6-12.4" />
      <path fill="#910962" d="M222 106.4l6.8-22.8-12-18.3 6-.2" />
      <path fill="#9f9fa1" d="M563 443.4l2.4 1 7.7.4 9-16.3" />
      <path fill="#a8a8aa" d="M892.6 442.6l3 3.3 13.4-5-14.7-9" />
      <path fill="#ccb5a3" d="M905.6 262.3l33.7-6 12.5 8.4-103.3-2.7" />
      <path fill="#b5b7ba" d="M436.3 174.7l-6.4 58.8v-51.3l-34-12.8" />
      <path fill="#adadaf" d="M1014.7 192.4l-115-1 118-3.2-4.8-2" />
      <path fill="#b6bfc2" d="M50 505.7l6.6-28.2-2.2-41-4.7 23.2" />
      <path fill="#c2c2c4" d="M788 425.2l14 10.8-17.6 16.7v-10.4" />
      <path fill="#fffeff" d="M405.2 181l-135.8-26.5 89.7 27 91-41.5" />
      <path fill="#bce7bd" d="M921.2 94.2L890 120.4l-7 4-75.8 48" />
      <path fill="#585055" d="M180 73.4L172.4 97l2-16 5.5-8" />
      <path fill="#fff" d="M1004 270.8l-25.8 2.7-70.2-1.8 88.3-25.5" />
      <path fill="#8f0052" d="M208.2 108.8l10.4-5-4.7-1.2-26 8.4" />
      <path fill="#fff" d="M299.6-31l-72 140.5 55.8-50L153.6 52m804 167.4l22.6 5.8-97.6-.2 38.8-5.5" />
      <path fill="#b6a64a" d="M275.7 79.3l-19.4 8.5 45.5 1.8-9 20.5" />
      <path fill="#9fa09f" d="M815 243l33-6.2 10 7.4-18.5-2.3" />
      <path fill="#77abb9" d="M80.5 246.3l36 20.8-16.5 9-17.7-21" />
      <path fill="#fff" d="M598 173.3L273.6-31 285 79l24 44.4" />
      <path fill="#beb2bf" d="M385.5 434.2L384 501l-2-5.4-2.6-7.5" />
      <path fill="#ad9a14" d="M288 200.5l11 .5 2.6-6.4-24.8 2.6" />
      <path fill="#5b5b5b" d="M773 460.7h27.8L794 455l-59 4.4" />
      <path fill="#fff" d="M673.3 128L661 211.7l-13.4-68-9.4 72.5" />
      <path fill="#3f5d59" d="M366.6 178l11.5 11.6-6-8.8-1 36.7" />
      <path fill="#164c33" d="M384.3 183l-38.4-2.2-1 33-2-26.6" />
      <path fill="#6f94a2" d="M221.2 406.5h-39.5l-15-1.6 45.3-4" />
      <path fill="#fff" d="M949 500.8l-320-57.2-214.4 5-17.4 94.4" />
      <path fill="#c2c2c4" d="M1003.5 321.7l-.7-84.3 1.3-49.8 2 73.8" />
      <path fill="#bcbcbc" d="M889.4 361l-5.8 58-.4-58.8.6-68.5" />
      <path fill="#fff" d="M746 77.2l183.7 25.6L1055 77.5 1000-31" />
      <path fill="#7e7e7e" d="M595.8 107.6l-57.3 2.3-9.3-5 17.3-2" />
      <path fill="#b287bc" d="M549.2 343.8l15.6-10.3 43.6-52 23.5-34.7" />
      <path fill="#b5b9bc" d="M693.3 293.4l-2.3-173-.7 121.6-1 52.4" />
      <path fill="#1992bf" d="M343.7 207.4l15.8-4-36 9.4 100.7-3" />
      <path fill="#bfb6b2" d="M697.8 301l21.7-22.6-22.7 5 31.4 7.5" />
      <path fill="#eaf2f9" d="M659 187l-272.5 2.8 5.4 50-1-49.5" />
      <path fill="#fff" d="M263 327.4l-23.3 77L361.2 382l151.5-111.8M-6.6-30L-31 98l138.4-2.7 8.2-17.2" />
      <path fill="#aacde2" d="M774.5 215.3l2-17.4 40.5 12 9.2-16" />
      <path fill="#fff" d="M108.3 180l-.4 14.6-4 8.2-11-21.3m-12 220l79-.5 63.2 2.5 40.5-80.7" />
      <path fill="#acacac" d="M979.8 218l-74.3 2.3 8.5 2.5 2.3-12.4" />
      <path fill="#3e4c46" d="M414.7 174l8.7-1-11.8 7.7-14 6.6" />
      <path fill="#fff" d="M282.2 93.8l-16 40.2-18.6-22L259 89.6" />
      <path fill="#f9f8f1" d="M312.4 165l-98.2 17.4 120-16.8-179.7-27" />
      <path fill="#981862" d="M111.2 156L73 145.4l8.8 9.3 32.5-10.4" />
      <path fill="#abe4e3" d="M650.4 144l40-67.6-33.8 66-47.4 80" />
    </g>
    <g class="SVG--2">
      <path fill="#3d2432" d="M140 70.6l4 11.2-1 7-2.5 9.2" />
      <path fill="#fff" d="M-.5 123.5l109.7 23.8-3-33.4L3 154" />
      <path fill="#a1005c" d="M69.6 178.3l53-.2-8 2-7.6-7" />
      <path fill="#fcfbff" d="M327 189l-6 35 20.7-21 1.6-11.3" />
      <path fill="#579b6a" d="M301 490.6l34-26.5-3-10 14.2 2" />
      <path fill="#ff3b3e" d="M395.2 235l9-13.7-4.4-5.2-2.5 8" />
      <path fill="#a4a0a6" d="M855 117.2l71-1-102.4-2.4-54.7 2.8" />
      <path fill="#fff" d="M371 543l-269.4-42 201.6-41.2 42.6.7M427.5 166l139.8-98.7L446 145.7l5.2 86" />
      <path fill="#b0b0b2" d="M18.2 380L2 382l-24.7-22.2 37.7 32" />
      <path fill="#fff" d="M-23 361l82.7 99.7 12.7-42L-31 405.4" />
      <path fill="#fbffff" d="M834.4 155.4l-12.6 48.4L826 80.3l-25.6 126" />
      <path fill="#ccc6cc" d="M675.3 125l-3.2.3 4 79.7 4-64" />
      <path fill="#5f4c4b" d="M72.2 136l3.2 39 2.6-18.6-6-9.7" />
      <path fill="#b8b8b9" d="M516 89.3l-1 129.4 4.3-115.6-1-2" />
      <path fill="#b1e8ee" d="M666.3 101l11 .7-46-3 4.6 15" />
      <path fill="#8eb7b3" d="M143.8 406.7l-18.2 1-11.6-7.4 99.3 6.8" />
      <path fill="#fdfdfe" d="M709.3 235.8l87.4-70-91.3 61.4L743 97" />
      <path fill="#fff" d="M843 324l63.8-29.5-26.3 33.5L868 169.6m-548.7 10.7l-21-53-13 6.2 2.6 62" />
      <path fill="#c1bfc0" d="M887.8 303.2l84.8-4.5 36.2 2.7-14 1.3" />
      <path fill="#ab9a18" d="M258.2 82.7l29.7 4-41 .4-3 25" />
      <path fill="#54223e" d="M160.4 101.3l-1.2-34-2 30.3-11.5-12" />
      <path fill="#5c7362" d="M80.8 152.5L93.5 174l1.4-25.6-12 21" />
      <path fill="#fff" d="M805.6-31L68.4 47.7 769 76l88 43.4" />
      <path fill="#a2a1a7" d="M421 226.7l3.3 2-5.7 37.2 16-66" />
      <path fill="#fefeff" d="M787.4 220.5l-26.2 17.3 177.4 15L687 280.4" />
      <path fill="#fff" d="M203.8 106.8l18.8-16-2.4-13.8L185 95" />
      <path fill="#b7b7b8" d="M998.4 312.3l-1.3 76.4 10-46v9.2" />
      <path fill="#b1b3b8" d="M957.8 111l41.5 2.7-74.7 3.5 104.5-.6" />
      <path fill="#d4d3c9" d="M243.2 430.6l50.4-20-16.3 8.3-93.5 46" />
      <path fill="#bb0670" d="M164.3 198.4l-26.5 1.7-8.3 5-21-7" />
      <path fill="#bcbbbc" d="M871 203.4h75.4l98.5-.5-173 4" />
      <path fill="#dae6dc" d="M106.3 167.5l-20-14 2.6 37.7 1-35" />
      <path fill="#317738" d="M338 401.4l-15.4 3.7-37.7 1 67 2" />
      <path fill="#bfbdbd" d="M672.3 312L644 335.4l40-6.3-43.2-6" />
      <path fill="#fff" d="M399.6 181l116.2-68.6L370 78l8.5 102.5" />
      <path fill="#a4a1a1" d="M606.8 352.6H591l29.5 17.8-19-1" />
      <path fill="#feffff" d="M74 162l-44.4 6.2 6-16 17.4-11" />
      <path fill="#cacdcd" d="M877.2 97l8.6 232-10.4-85.6.8-19" />
      <path fill="#fdfdff" d="M266 453l-3.3 9.3-13.6-32.7 174 22" />
      <path fill="#66a8d0" d="M377.6 142.5l-15.3-6.4-29-1-4 8.8" />
      <path fill="#666457" d="M283 162.5l15.6-.2-48 .6 22.4-7" />
      <path fill="#8c1d5e" d="M196.6 105.6L174 97.2l.3-14 20.3 27" />
      <path fill="#fff" d="M115.2 226.2l18.5-23.8-28 3 224.3-2m414 79l-40.5 137V288.8l-51.7 58.7" />
      <path fill="#9a2870" d="M118 59.5l-5.2 90.3-4-35.7 1.6-5" />
      <path fill="#edf9f8" d="M350.6 148.4l-3.3 61 3.4-2.4-1-35.7" />
      <path fill="#b00c6b" d="M117.8 91.8l41.5 6.8 16.2-4-70.8 6.6" />
      <path fill="#00340f" d="M378 186.2l27.6-.5 7.3-2.8-43-2" />
      <path fill="#fff" d="M987 84l25.8 53.4-100 15 97.5 9" />
      <path fill="#848484" d="M594.3 184.4l-50.5-4.3-12 15 3.2-20" />
      <path fill="#b0b2b3" d="M748.3 382l.3 42.5 5-4-2.2-73.6" />
      <path fill="#b3b3b5" d="M683.2 200l25.3 6 19.3 5.2 7-9.7" />
      <path fill="#fff" d="M421.2 377l-80.7-164 50.8.4-44.7 189" />
      <path fill="#ff3b41" d="M252 124.5l-17 4.6 5.3 9-.7-5" />
      <path fill="#fdffff" d="M605.4 276.3l-52.4 64 64-130.8 9.8 28.7" />
      <path fill="#c8ecc7" d="M849 148.4l90.8-62-65.3 40.2L759 202" />
      <path fill="#feffff" d="M816.5 153.2l62.2-48-67 75 75.2-23.7" />
      <path fill="#f0ebe8" d="M78.4 218.6v-82.8l3 32.7-4 11.3" />
      <path fill="#c7c9cd" d="M855.6 146.4l55.7 5.7-53 1-52.6 51" />
      <path fill="#fff" d="M553.3 111.4l21.4 12.5L558 45l12.7 82.2" />
      <path fill="#7a7242" d="M258 182.4l2 13.6-4.3-7.3 30.5-2" />
      <path fill="#bd0872" d="M184.4 67.8l-52 6.4-36.2-5.7 90 4" />
      <path fill="#fff" d="M308.8-31l-80 136.5 33.7-25.7L526.2 96" />
      <path fill="#737175" d="M485.7 276.8l-9.7-2.3 6.6-32.7-1.2-7.7" />
      <path fill="#c6c8c9" d="M704.3 424l-4.3-98.3-5.3 96.5-19.4-4.2" />
      <path fill="#fff" d="M476.4 183l68.3 6.5-36.7-16.8-43.2 97.5m-350-177L-31 87.6 144-31 92 30.3" />
      <path fill="#7bb3d9" d="M96.6 23l16-8 13.4 5.5-1 21.8" />
      <path fill="#f53433" d="M48.3 399.8L46 386.3l9-1.8-3.8 10" />
      <path fill="#fff" d="M561.4 358.4l76-41-166 110.3 165.4-26.3m3-98l54-46-70.6 30.7 72-106" />
      <path fill="#ceced0" d="M625 450.8l11.6-14-5.8-25.3-1.5-56" />
      <path fill="#fefdfe" d="M707 201l-13-76 60.7-8.8-47.8 2" />
      <path fill="#f2b298" d="M723 151l38.4-54.7-9 12.4 33-33.4" />
      <path fill="#fff" d="M750 108l-1.2 24-.4 55 23.8-5" />
      <path fill="#b4b4b5" d="M952 168.7l14.3-11.2 36.6 5.6-13 1" />
      <path fill="#2bb0e7" d="M409 461.2l2.8-7-35.6 8.4 21.6-8" />
      <path fill="#9db9ca" d="M867 293.7l61-6-5 6.6-13-1.3" />
      <path fill="#a89a3d" d="M277 143l15-30-3.4-32 9.3 34.4" />
      <path fill="#fff00d" d="M182.8 460.2l14-1.8L142 455l3 3" />
      <path fill="#79b7dd" d="M631 314l62.4-39.4-72.8 42-57 33.7" />
      <path fill="#9fa8a9" d="M944 242.8l-30.3-1.4 26 10.5 11-15" />
      <path fill="#a96593" d="M516 389.6l12.4-19.4 69.6-82-79.8 104.4" />
      <path fill="#fff" d="M674.4 405.5l-13-53.5-21-52.5 5 122.5" />
      <path fill="#ffe000" d="M242 406l48.7 1 14.3-3-90-.4" />
      <path fill="#feffff" d="M176.8 46.6l129.7 44.7 22.2 65.5.6-75.6" />
      <path fill="#fff" d="M684.2 300l2.7 39v96l2-75.7m-395-177l-143-7 72-57.3 32.3 66.3" />
      <path fill="#d2af90" d="M918 266.5l-23.5-6.3-10 6 58.8-4" />
      <path fill="#4e5952" d="M135 73.2l-10 20.5-1-5.6 10.2 4" />
      <path fill="#fff" d="M1025 316.2l-122.7 14.4 116.2-46.5-126.5-5M146.2 68l-31-.2L162.8-31 376 19.6" />
      <path fill="#aba7aa" d="M302.2 444.2l-1.5 17.2h-26.5l28-12.4" />
      <path fill="#fff" d="M1009.2 435.4l3-273.3-3.7-193 46.5 429M277.2 225l-67.3-7.4 67-21 12 26m380-28l-36 30.6-4.7-34 133.3 7" />
      <path fill="#d0eab4" d="M101.2 254l52-31.7 111.7.8-113 97" />
      <path fill="#fff" d="M472 341.3l62 22.5-79-131.4L472 413" />
      <path fill="#c5d1d6" d="M468.7 403l-50.2 49.5-14.7 11.6 48.5-50" />
      <path fill="#bcbcbc" d="M995.6 422.6l11.8-4-5.8-1-2-109.7" />
      <path fill="#2ab1e5" d="M466.4 407l14.6 1-69.7-5.5 52.7 1" />
      <path fill="#fdc691" d="M647.3 244.2l-7-2.2-13.8 29.7 16-14.2" />
      <path fill="#fff" d="M157.2 400.5l-88.5-28 9.5-10.8-28 39" />
      <path fill="#fef3fa" d="M114.5 159.5l16-90v19.8l-5 8" />
      <path fill="#494746" d="M416.6 224.6l8-2-18.6-17.8 11.2 21" />
      <path fill="#fff" d="M18 394.4l-45.6 9 74.6-1L21.3 348" />
      <path fill="#fbfbfd" d="M728.7 428.6l-274.6 3 184 4 172-4" />
      <path fill="#e4ecf0" d="M347.6 158.4l11.5 8.4-7 60.2 9-37" />
      <path fill="#fbfdfd" d="M909.7 149.7l26-17.7 15.7-9.2 38.3-1.6" />
      <path fill="#fdfcfd" d="M428.5 282.3l-39.2 105-17-218.8 2 112.2" />
      <path fill="#fffffe" d="M108 179l-8.3 49.4-130.7 53L76.2 180" />
      <path fill="#fdfeff" d="M402 210.3l23.6 85.7-10.7-52 1-20.7" />
      <path fill="#9e8e26" d="M279 205.5l8.2-59.8-2.7 9.6-4.6-15" />
      <path fill="#fff" d="M537 111.2l-60.3-3.8 50.6 7.4 82.2-.2" />
      <path fill="#fbf9fc" d="M401.8 188l30-.8-12.5 42.8 30.5 48" />
      <path fill="#fafeff" d="M1019 165l-141.3 1 34.6-17 2.7 28.2" />
      <path fill="#feffff" d="M-31 455l168.7-2.6-7.3 10.5-21.2-56" />
      <path fill="#76b0d4" d="M719.6 259.5l-3-.3 88.7-52.3-45.2 29" />
      <path fill="#fff" d="M991 201.4L882.8 203l65-10.2 82.7 3.5m-283 243.4L767 434l49.4 21.4-80-8.6" />
      <path fill="#bdbbba" d="M675.4 201l-.7 112-.4 13.6 3.3-63" />
      <path fill="#fff" d="M690.4 213.2l-9.2-73.4 7.2 263V208.6" />
      <path fill="#fefefc" d="M118 157l32.3-29.2 119.5 39.7 20-3.5" />
      <path fill="#fff" d="M17.6 459.6l70.8 76.2-97 7.2L1 279" />
      <path fill="#e7dda9" d="M55 257l59.7-34.7-24.3-45 16.7 57.2" />
      <path fill="#fff" d="M918.3 133.2l-55.4 8.5 69-36.7-58-46.8M500 190.6L455 215l59 32.4-39.3 102.4M254 148l-133 47.2-4.7-94.5 60 .8m522.3-29.3l23.7 128.4-27.8-110.4 40.4 48" />
      <path fill="#a17ab2" d="M651.5 224l45.2-50-85 101.5-96.3 113" />
      <path fill="#fff" d="M520 291.8l107.5-117-16.7 30.4-85-13" />
      <path fill="#a5a3a5" d="M463.6 274.5l-32 11.5-3.6-2.3-2.3-13.2" />
      <path fill="#f9fcfc" d="M377.4 230.2l5.2-34.3-1.4-66 7-19" />
      <path fill="#feffff" d="M218.8 71L193 104l-.5-2.8-16.2-10.7" />
      <path fill="#bebebf" d="M518.4 140.4l.5 116.8-4-56.2 2-109.4" />
      <path fill="#a5a4a5" d="M803.4 168.4l-38-11 4 9 28-7" />
      <path fill="#26353f" d="M376.2 207.6l-1.8-31.6 7 35 7.3-4" />
      <path fill="#fff" d="M289 98.4l-23.7-9.8 8 45.4 18-27.8" />
      <path fill="#d1ecd0" d="M875 130l70.5-47-3 .8-7-3.2" />
      <path fill="#aeadaf" d="M961.6 140l-11-4.8 37-4 3 6.7" />
      <path fill="#fff" d="M183 130.2l94.6 10-38.8 1.5-77.8 56.8" />
      <path fill="#c0bfc1" d="M584.4 195l4.4-.5-61-4.3 59.5-1.3" />
      <path fill="#cff7f0" d="M564 302l-66.5 101.3 34.4-38.8 9-12.7" />
      <path fill="#cdced0" d="M738 458.2l-10.4-36.4 17 16.6.2-226.8" />
      <path fill="#fff" d="M85.3 121.8l-99-11.5L-31 289l63.2-147.4" />
      <path fill="#a69834" d="M254.2 183l1 21.7 6.2-68L254 116" />
      <path fill="#fff" d="M883.6 276.8l-4.3 81.4 9.6-72-3-36.7m-306 10.8l14-87-75 159 6-145.5M153 85.2l12.7 61.2-9.4-36.6-.7-36" />
      <path fill="#a2a2a2" d="M264 456.5l-25.4-5.3-12 14.7 9-5" />
      <path fill="#ceecb2" d="M203.7 329.6l18-4.4-72.8-14.6-52 8.8" />
      <path fill="#fff" d="M301.2 458.8l334.7 16 77-49 31 84" />
      <path fill="#a4a4a4" d="M563.4 187l15.4-9.8 24.4-2 4 6" />
      <path fill="#c4c4c5" d="M943.3 426.3l82 1.2-109.8 3.2L940 426" />
      <path fill="#fff" d="M254.7 403l53.6-86.5 22.3-4 6 89.5" />
      <path fill="#ee5458" d="M378.3 183.3l-5.6-3.5-5.5-16.2 8 1" />
      <path fill="#fff" d="M761.4 413.4L823.6 237l31-3-76-1" />
      <path fill="#fff" d="M951 274.4l54.7-40.7H819l153 8.7" />
      <path fill="#fffdff" d="M332 175l41.6 7-19-38.8-18.7 25" />
      <path fill="#883d67" d="M103.5 157.4l-2.2 24-3.5-32.6-34.5-2.8" />
      <path fill="#fcfafb" d="M135 92.5L225.5 194 148 171.3l-13.8-127" />
      <path fill="#fff" d="M460.2 94.6l-40 180.5 63.2-22-40.4-39m-152-82l8.3 67 1-39L323 31" />
      <path fill="#a20c56" d="M116.6 176.7l-8 27.3 2.6-25.6-32.2-.2" />
      <path fill="#f4f5f9" d="M490.2 291.8l-91.8-104-20 112.6 24-111.2" />
      <path fill="#a8a8a8" d="M515.8 446.3l5-2.8-14-2.8 19.8-6.4" />
      <path fill="#bdbdbf" d="M694.8 328.7l-15-2.4.7 64.6 11-87" />
      <path fill="#9d9d9e" d="M934.6 278.8l76 1.6-30-5.5h-4.2" />
      <path fill="#127598" d="M377.5 204.2l-43.2 9.2 63-2.7L412 209" />
      <path fill="#0e442d" d="M396 181.3l-44.3 1.7v33.6l2.7-31.4" />
      <path fill="#1d87af" d="M339 231l-1.7 1-2.5-29 5.7 16" />
      <path fill="#87aa95" d="M52.2 459.6l8.4-12-8.8 5.6-5 5" />
      <path fill="#fff" d="M177.3 68.8l-31-5.6-43-82.3 104 60m-161 256l172 69-249-1 40-132" />
      <path fill="#c3c3c3" d="M680.6 447.8l20-34-27.3 36 13.4-95" />
      <path fill="#818181" d="M792 453.7l-4 2-26 7.4-34.5-5" />
      <path fill="#7c7c7d" d="M731.2 462l-5.8-6.2.8-2.7 55.6 5" />
      <path fill="#fff" d="M52.6 424.3l12 98.5 81-62-85 2" />
      <path fill="#bababb" d="M857.5 428l-8 7.3-15-3.7 12.7 13.7" />
      <path fill="#215a3d" d="M331.6 187l62.5-3.7 11 8.3 7-12" />
      <path fill="#00bfff" d="M461.8 406l.7-2.2-5.7-2L435 407" />
      <path fill="#fe7842" d="M585.7 309.4l41.7-41.8 22.3-32.5-32.5 40" />
      <path fill="#fdf8f9" d="M232.2 111l18.5 19.3.8 14-29-109" />
      <path fill="#fff" d="M628.2 347.4l-11-26.8 10 80-39.4 22.2" />
      <path fill="#bababa" d="M520.2 88.4l-16.4 19.2-12.4-4.4 23-10.5" />
      <path fill="#d3b500" d="M255 184.5l-1.2 14.4 4.8 3 .2-74" />
      <path fill="#c9c9ca" d="M520.6 402.7l-.7 24-28-4 10 12.3" />
      <path fill="#fff9ff" d="M164 25.7l.8 61-1 3-2.4-2.8" />
      <path fill="#fff" d="M704 419.7l39 4.6-11-145.5-25 68.6M632.3 94.8L1055 5.5 583.7-31l-31 135.8" />
      <path fill="#a9a9aa" d="M94.8 377.2l-.8-11.8 50.4 9.6-18 1.5" />
      <path fill="#fff" d="M658 543l222-115 12.5 17.4L1055 472" />
      <path fill="#fefeff" d="M756.7 88L675 115.8l85.7-43 7.6 91.6" />
      <path fill="#7eb3d5" d="M692.6 274.4L620.3 316l34-16.2 77.4-48.4" />
      <path fill="#590535" d="M163.8 97l5-23.4-.7 24.8-10-1.4" />
      <path fill="#969695" d="M848.7 233.3l.8-7.2-27.5 3 1.2 1" />
      <path fill="#fff" d="M380.2 494l195.6-87.6L592 350 387.4 543" />
      <path fill="#adaeae" d="M506.6 361.8l.8-3.7h-14l9.5 13" />
      <path fill="#fab1a9" d="M883.7 248.4l40.7-4.2-37.6-2-2.2 8.6" />
      <path fill="#c5dea6" d="M300 229.7l56.2 17.6L336 249l-82-24.3" />
      <path fill="#fff" d="M758.6 112.8l62 1.5 36.3.4-41-74M536 175.3l36 4.4 54-53-103-3.7" />
      <path fill="#fffffb" d="M313.8 230.5l28.4-44-12 38 17.3 25" />
      <path fill="#fff" d="M517 409.7l-3.8-52.3-33 38.7-49-2" />
      <path fill="#8c8b8c" d="M666.2 320.4l5.5-3-20.7-2-2.4 4.4" />
      <path fill="#fdfafb" d="M105.8-31L147 77.5l-.3 101.3-4-146.7" />
      <path fill="#7ca39c" d="M384.3 458.2l-23.5-5-9.7 2.8 37 6.4" />
      <path fill="#a7447d" d="M23.2 157.5l15 17.6-12.5 4 11.5-33" />
      <path fill="#fff" d="M563.4 186.6l-66.2-4-13.3 6h55" />
    </g>
  </g>
</svg>