<svg version="1.1" viewBox="0 0 1024 512" width="1024" height="512" xmlns="http://www.w3.org/2000/svg">
  <g fill-opacity=".5">
    <path fill="#626262" d="M429 429l626 1-103 72-516-5" />
    <path fill="#4b523d" d="M416 386l76-92L286-3l167 156" />
    <path fill="#14d200" d="M282 157l-9 66 79-4-33-72" />
    <path fill="#363137" d="M298 91l260-59-109 112 14-124" />
    <path fill="#0b0a0c" d="M978 433l-69-9-6 79 79-1" />
    <path fill="#161115" d="M403 33l171 53-17-67-8 77" />
    <path fill="#1b0507" d="M418 333l122-139 177 10-171 5" />
    <path fill="#433d44" d="M387 95l-14-36-70-38-28 58" />
    <path d="M491 366l-71 38 62-13-33-106" />
    <path fill="#fff" d="M560 215l38 328 21-117 436-263" />
    <path fill="#fff" d="M880 6l54 201-37 311-83-9" />
    <path fill="#fff" d="M1022 543l-46-114-132-269 198-191" />
    <path fill="#030204" d="M615 430h31v59l-31 20" />
    <path fill="#fff" d="M640 543l143-267-16 265-106-226" />
    <path fill="#605e62" d="M419 333H271l121-37-115-6" />
    <path fill="#fff" d="M453 131l-10 256 26-125L809-31" />
    <path fill="#fff" d="M-31-31l43 50 468 20 575-34" />
    <path fill="#385f19" d="M504 80l-20 1-73 139-12-55" />
    <path fill="#fff" d="M335 176l72 182 1-318 83 42" />
    <path fill="#2f2e30" d="M817 502l2-76-49 8 9 65" />
    <path fill="#9ce85c" d="M837 432l10-103V114l-18 24" />
    <path fill="#1a131e" d="M470 361l9-99-61 130 26-112" />
    <path fill="#141315" d="M586 430l-23 1-2 61 27 20" />
    <path fill="#302f31" d="M472 501l39 6-6-76-30 8" />
    <path fill="#fff" d="M469 283l22 88 68 172V230" />
    <path fill="#5a585c" d="M31 147l95 27-108 9 99-36" />
    <path fill="#47cf00" d="M341 214l-55 7-11-44 66-6" />
    <path fill="#211c20" d="M460 97l104-20-108-12 108-43" />
    <path fill="#fff" d="M427 404l-19-69-278 4 45 204" />
    <path d="M440 396l-16-14 2-15 46 34" />
    <path fill="#5e5c5f" d="M966 76L773 65l-74 9 77 3" />
    <path fill="#fff" d="M303 45l-81 498-47-486 250 29" />
    <path fill="#fff" d="M438 350l-35-205-46-55-70 1" />
    <path d="M520 203l145 6-12-15-32 1" />
    <path fill="#fff" d="M118 430l-14 113-135-39L2-6" />
    <path fill="#090508" d="M312 30l73 43 46-36-96 23" />
    <path fill="#2c2000" d="M443 336l-11-53 14-182 1 152" />
    <path d="M390 133l33 11-11-5-52-72" />
    <path fill="#fff" d="M475 107l79-64-75 25 310 197M438 133l-17 150-1-237 48 62" />
    <path fill="#9bee6e" d="M321 242l-73 5-11 15 209-3" />
    <path fill="#939599" d="M22 254l64 20-6 27-63-9" />
    <path fill="#053e00" d="M406 125l3 84 11-3-2-55" />
    <path fill="#fff" d="M156 145l-16-99L2 80l-33 63" />
    <path d="M318 90l-32-17 29-43-35 16" />
    <path fill="#fff" d="M478 145l73-53 88-123 213 291" />
    <path fill="#5c6065" d="M199 371l67-2 12 7-103 2" />
    <path fill="#98ec58" d="M739 130l-84 17 181-2-1-8" />
    <path fill="#918a88" d="M128 434l-4-134-6 180 82-116" />
    <path fill="#fff" d="M587 510l-155-15 189 48-32-345" />
    <path fill="#b2b2b0" d="M153 22h91l-54 42-47 189" />
    <path fill="#aec69c" d="M454 504l-152-7 64-64 72-8" />
    <path fill="#a1f666" d="M683 42l45-21 243 9-271 5" />
    <path fill="#fff" d="M482 82l-50-35-53 23 19 48" />
    <path d="M565 44l5 15-46-22 16-7" />
    <path fill="#08000c" d="M482 94l-51 53 38-19 4-69" />
    <path fill="#010000" d="M484 381l3-30-28 47 37-21" />
    <path fill="#b671dc" d="M584 250l-28 59-17-65 39-9" />
    <path fill="#535154" d="M709 403l38-17-42-4-2 19" />
    <path fill="#581200" d="M865 446l9 34-15 3-2-33" />
    <path fill="#fff" d="M414 421L87 543l338-233 12-38" />
    <path fill="#e5f8db" d="M647 533l77-34-14-73-64 1" />
    <path fill="#fff" d="M495 250l-9 133-61 45 282-4M179-31l201 91 40-38 408 24" />
    <path fill="#b0b6b1" d="M154 55L16 64 197 7 3 28" />
    <path fill="#211e20" d="M283 81l115 11-58-21 8-3" />
    <path fill="#6bd800" d="M332 158l-36-9-21 65 66 6" />
    <path fill="#898a91" d="M218 289l-41-5-63-28 39 42" />
    <path fill="#fff" d="M687 169l-98 130 249 146-2-296" />
    <path fill="#fff" d="M-31 248l439 177 468-11-431-18" />
    <path fill="#efedf0" d="M456 174l7 142-13 63-6-139" />
    <path fill="#fff" d="M868 543l4-574 33 528 135 12" />
    <path fill="#ff9973" d="M898 55l-160-1-50-9 293 1" />
    <path fill="#797378" d="M167 200l6-126 6 179 8-37" />
    <path fill="#968a7f" d="M749 422l-78 61 1-54 72 68" />
    <path fill="#fff" d="M325 152l114 174-67-229-248 44" />
    <path fill="#171417" d="M459 342l28-101-30 54 29 64" />
    <path d="M439 36l-45 14 47-2 36 27" />
    <path fill="#6d6f75" d="M148 87l58-11 49 10-38 1" />
    <path fill="#9da99a" d="M125 367L39 252l79 81 51-71" />
    <path fill="#fff" d="M631-31L504 49l-34 6-72-52m113 422l318-59-294-69-24 246" />
    <path fill="#646364" d="M281 316l118 17H290l-10 8" />
    <path fill="#fff" d="M372 320l-67 3-25-16 164-7" />
    <path fill="#cc8b3c" d="M951 141l-11 20h-36l5-14" />
    <path fill="#626164" d="M940 69l-42-5-10-1 34 21" />
    <path fill="#fff" d="M13 473l350-209-257-8 178-42" />
    <path fill="#272426" d="M554 71l16-44-6 57-60 2" />
    <path fill="#fff" d="M983 472l2-118 70 131-68 58" />
    <path fill="#0b050a" d="M423 381l32 21-33-48 30-33" />
    <path fill="#fff" d="M417 132l59-37-80-40-7 55" />
    <path fill="#fd8762" d="M684 289l5 16-1-9 194-5" />
    <path fill="#626163" d="M131 177l-91 3-5 6-6-19" />
    <path fill="#fff" d="M47 506l39 37 901-36-454-6" />
    <path fill="#070009" d="M463 129h-29l1 21 56-77" />
    <path fill="#fff" d="M151 28l-37 150-49 93 77-24m35-70l18 79 94-89-6-198" />
    <path fill="#93d35d" d="M851 464l-18-74 4-181 4 120" />
    <path fill="#fff" d="M365 409l95 7 3 127 19-148" />
    <path fill="#0a0609" d="M462 89l65-20 1 12-31 9" />
    <path fill="#fff" d="M667 209L721 5 479-23l85 65" />
    <path fill="#919297" d="M201 249l-70 37 87-27-13 36" />
    <path fill="#fffaff" d="M872 467l36-36 67-5 80-457" />
    <path fill="#83f3ff" d="M704 93l110-6 194 10-222 4" />
    <path fill="#fff" d="M405 141l-2 102-76 1 57-118" />
    <path fill="#83ff18" d="M406 162l36-8 8 25-47 4" />
    <path fill="#585759" d="M300 308l-6-8 82 2 9-17" />
    <path fill="#fff" d="M111 353l146 14 39-82-130 10" />
    <path fill="#3f3348" d="M408 461l1-2-8-25v109" />
    <path fill="#fff" d="M484 194l-7-100 208-22-60 125" />
    <path fill="#686869" d="M130 157l-61-1-34 1 2-15" />
    <path d="M356 61l40 12-23-18-36-8" />
    <path fill="#7b7a7c" d="M542 435l1 1-26-9 14 70" />
    <path fill="#fff" d="M78 299l44 244-153-23 3-236" />
    <path fill="#97b0d8" d="M899 316l36-25 79-16-94 2" />
    <path fill="#1b181a" d="M434 39h-34l-35 54 37-38" />
    <path fill="#151124" d="M430 270l9-26 2 25 6 83" />
    <path fill="#1a0d1d" d="M420 142l13-3-55-26 40 41" />
    <path fill="#fff" d="M312 42l-14 17 14 19 21-21" />
    <path fill="#4d4553" d="M437 432l3 77 11-61-7-16" />
    <path fill="#fff" d="M180 391l-31 136 114 16 117-179" />
    <path fill="#171418" d="M658 198l-10 11-79-2 62-11" />
    <path fill="#797b82" d="M158 495l-22-31 13-48-7 15" />
    <path fill="#fff" d="M860 120l-142 6 181-36-10-121M63 145l-94-92 248 29-34-31" />
    <path fill="#333" d="M615 500l8-73 25 75-59-2" />
    <path fill="#fff" d="M556 71l-37-10 18-17 21 2m216 91l122-23-153 9 8-104" />
    <path fill="#bb7adc" d="M1010 440l-6-21V261l6 37" />
    <path fill="#8c8e95" d="M160 43l62 19 6-46 9 36" />
    <path fill="#a4a4a0" d="M167 495l-56 8 20-227-5 229" />
    <path fill="#fff" d="M360-13l-86 68-143-86 37 61" />
    <path fill="#fffffe" d="M298 160l77 29-40-20-34 5" />
    <path fill="#565462" d="M670 429l1 1 5 80 4-79" />
  </g>
</svg>