<svg version="1.1" viewBox="0 0 1024 512" width="1024" height="512" xmlns="http://www.w3.org/2000/svg">
  <g fill-opacity=".5">
    <g class="SVG--0">
      <path fill="#605f62" d="M741.5 115.4l-115.7 2 14-84.3L851 65" />
      <path fill="#28282b" d="M952.5 116.7l56.8-1.8V35l-61.8 10.5" />
      <path fill="#2a0f34" d="M442 147.8l38 15 175 4.6 170-3.7" />
      <path fill="#bcb68a" d="M206.3 157.6L180.5 12l-68.2 29 22 445" />
      <path fill="#3c3b3e" d="M653 482.3l120 5.3-33.6 7.6-200 2.6" />
      <path fill="#00a13d" d="M626 108.3l-1.8 145 2 216.8 5.5-226" />
      <path fill="#b4934a" d="M199 412.2l-46.6-73.4 19.5 135L96 384" />
      <path fill="#757578" d="M391 373l6.8-149.8 9.6-4 4.6 103" />
      <path fill="#aeab59" d="M154.7 454.5l123 40-133-66.5-111 59.8" />
      <path fill="#ffda0c" d="M725.3 161.3l-98.8-9.5 169.4-2.6 99 2.2" />
      <path fill="#373838" d="M642 61.2L660.6 44l98-1.6-21.6 21" />
      <path fill="#a1a0a3" d="M809.6 280l75.7 1.8-134.6 30.6-2-96.6" />
      <path fill="#fff" d="M156 496.6L153 9l-15 385-13.4-19.7m305-244.7L246.6 97 164 257.6 297 543" />
      <path fill="#85a598" d="M639 216l-2.8 136.4 12.5 16L672 446" />
      <path fill="#fff" d="M-31 192.2l232.7-11-60-48.5L100 458.5" />
      <path fill="#9e6800" d="M103.6 63l41.5 37.4-25-12L148 9" />
      <path fill="#fff" d="M510.6 382.5l56 150.3-359.6-6L245.2 210" />
      <path fill="#968400" d="M176 54l-36.6-39.5L200 57l-26.7 53" />
      <path fill="#605f62" d="M555.4 476.3L592 485l48.3-2-88.6 15" />
      <path fill="#8558ab" d="M259.8 100l7.5-21-52.3 8-14 11.6" />
      <path fill="#3c8160" d="M682.7 343.5l-1 85-20-52-.5 52.4" />
      <path fill="#998d00" d="M210 162.7l-27.8 48 10.3-44.8-10.7-37" />
      <path fill="#ac110d" d="M116.5 408.7l-15-12.7 42.5-29.7-22.3 38.6" />
      <path fill="#0d1010" d="M989 120l-.7-61.6 16-15 2.2 65.7" />
      <path fill="#7d7a51" d="M639.5 175.6l-144.5-24 153.4-3-7.4 202" />
      <path fill="#4c028f" d="M847 159l4.8-1-30.4 9.7-120-6" />
      <path fill="#b5b4b7" d="M430.3 3.5l-23.7 106.3 228.2 6.6-311.2-3" />
      <path fill="#7993b5" d="M76 115l119.6-6 32.7 13-147 5.3" />
      <path fill="#009e37" d="M686.5 383.4l-57.7-3.2V328l-6.5 44.2" />
      <path fill="#636363" d="M637 78l-10.3-1L770 117l-109-2" />
      <path fill="#fff" d="M1040.3 543L643 347.2l1-18.6 400-71.3M179.5 81.6L153 36l-29 26.7 12 31.5" />
      <path fill="#e0e0e1" d="M583.2 97.3l275-1-150-28-107.8 67.5" />
      <path fill="#737c60" d="M133.8 257.8l5.8 47.7 3.2 75.4-14 1" />
      <path fill="#787879" d="M1032.8 42.3l-334.2 5.2-45.8 36.3 10.2-43" />
      <path fill="#c1a40e" d="M114 167.3l-.2 17.4 22.5-3.8-10.6-49" />
      <path fill="#fff" d="M621.7 403.5L299 422.3l218.6-185.8 99-78.7" />
      <path fill="#757789" d="M421.8 144.2l16.7 26-1-6.4 155.2 2.3" />
      <path fill="#79797b" d="M481.6 370.6l-4.8-82-2 169 6-55" />
      <path fill="#fff" d="M484.5 132.7l-54.5 169L322.4-31 173 437.6" />
      <path fill="#b39600" d="M180.7 465.7l-6.5-20.5 42.7 18.2-5 11.6" />
      <path fill="#41cbfa" d="M87.2 100l2.6 12.2-3.2-38-62 24.3" />
      <path fill="#88888a" d="M829.5 232.8l-51.6 16-46-14.8 70-2.7" />
      <path fill="#fff" d="M1021.4 543l22.8-425-171.7-4-61 92" />
      <path fill="#9f9ea1" d="M607.8 67l-5.3 56-15-37.7 47-116.3" />
      <path fill="#a7a7aa" d="M477.7 166l6.7 138.4L428 290l46.5-28" />
      <path fill="#9c9c2b" d="M107.5 461.2l-52.8 33L78 458.7l40.8-6" />
      <path fill="#9b9b53" d="M174 390.3L157.4 290l-2 176 29-82.4" />
      <path fill="#fff" d="M621.3 164.8l223.3.5 210.4 16L720.8 239m-502-258.4l-50.4 159.6L217 75.6l238.3-41" />
      <path fill="#9a8ea4" d="M794 315.6L782.8 297l-101.5 13.2 76 3.8" />
      <path fill="#fff" d="M611.4-31l25.4 98.4 39-30.5 379.2 6M389.2 239l-221.5-35.6v121.2l229 115M-31 79l29.7 456.7 138.8-254L71 104" />
      <path fill="#c3c2c4" d="M849.8 105.2l120.4 15.4-171.8-5.3 15-136.3" />
      <path fill="#92941f" d="M207.3 179l-76.6 21.7 3.2-13 48 19.3" />
      <path fill="#fff" d="M140 493.5l43.6-68.4-33.6-50 58.8 168M1055 239l-10.2 277-292.5-1 205-410.4" />
      <path fill="#4b4c51" d="M889.2 421l-310.8.4 69 2.8 154.2.5" />
      <path fill="#fff" d="M108.5 75.2L129.7-31-31-15v116.7" />
      <path fill="#08ad5b" d="M625.2 301.6l-1.5-125.3 5.6-30.8 3.4 27.6" />
      <path fill="#4c464d" d="M642.2 357l40.2 2-7.4-7.8-42.3 5.2" />
      <path fill="#b8b7b9" d="M938.5 119l-21-106 48.3 37-4.4 63" />
      <path fill="#fff" d="M482.8 175.8l2.3 245.7 152-7.3L563 183" />
      <path fill="#988909" d="M190 67.8l5.5 5.4-18 29.8-24.2 2" />
      <path fill="#8a8a8d" d="M472 425.5l198.3-1-228.8-6.3 9.5 11.5" />
      <path fill="#a6a6a7" d="M837.5 469.2l34.4-23.4-37-12 3 38" />
      <path fill="#fff" d="M593 151.4l-59-35 521 3.4-420.8 31" />
      <path fill="#828498" d="M168.8 311L167 185.5l-13 39 6.2 104.8" />
      <path fill="#a08f1f" d="M106.3 67L173 21.6l-51 10.6 7.5 54.3" />
      <path fill="#fff" d="M645.6 307.2l7.8-134.6 69.2 9.8-77 195M186 144l-67.8 18 38.8 27.3 38.6-11" />
      <path fill="#737480" d="M143 277.6l-10 60.7.2-141 7.2 22.8" />
      <path fill="#8ab19d" d="M716.8 290.2l93.6 2-32-14.2-102.8 9" />
      <path fill="#6a696c" d="M779 445v8l-13.5 6.3 2-26.6" />
      <path fill="#7a797c" d="M398.7 42.7l122-2.2 38.2 2-84 2.2" />
      <path fill="#9d9d9d" d="M315.4 114.5l-7.3-17 89 4.6 7-1" />
      <path fill="#707070" d="M396 218l1.5 63 3.8 46 8-105" />
      <path fill="#78793a" d="M147.6 118.6L143 93l-3.2-6.7-13 74.5" />
      <path fill="#b2b2bc" d="M82.6 543l3.2-18.5-53-54.2 23-40" />
      <path fill="#6d6d6e" d="M737 16.5l-15 18.2 1 16-9-34.7" />
      <path fill="#9e9fa4" d="M143.6 535.7l94-75L257 486l-11.5-23.7" />
      <path fill="#fff" d="M132.5 143l1-46-129 290.6L-31 167.2" />
      <path fill="#66367c" d="M195 124.6l25.2-14.8 16.5 13.7-51-12.3" />
      <path fill="#fff" d="M131.5 55.3l25.3-21 19.6 32-23.4 67M257.8 80l11.2 37L488-31 124 2" />
      <path fill="#ffff32" d="M513.2 148.2l-39.2 3.6 10 3.6 92.8-3" />
      <path fill="#958940" d="M184.4 10.2l25.7-3-40 38L185 69" />
      <path fill="#ffe406" d="M682 153l147 5.2 17.3-7-29.5-.6" />
      <path fill="#08af5b" d="M629.3 307.7L633 402l-9.2-74.6 1.6-157.8" />
      <path fill="#fff" d="M129.7 514l32.5-118.5L86.7 359l57.7 44" />
      <path fill="#fff" d="M54.8 543l181.6-32L-31 386l167.3 53.3" />
      <path fill="#818182" d="M757.6 506.4L764 483l-113.2 4.8 127 14.7" />
      <path fill="#909091" d="M100.8 350.8l-13-10 20.3-10.5 5 22.7" />
      <path fill="#f8f8f9" d="M747 55.8L794 45l189.5 4L783 63" />
      <path fill="#00befd" d="M127.3 121.5L74.5 123l20.3-.8 16.4-12.2" />
      <path fill="#fff" d="M751 318.6l-10-64.3-56 155 370 31" />
      <path fill="#616161" d="M761.5 96L709 99.5l42 10 6.7-62.4" />
      <path fill="#fff" d="M186.5 447l457 96-436-217.6-38.2 131.3" />
      <path fill="#938f91" d="M869.6 292.8l-131-9.6 124.5-1.5 13 7" />
      <path fill="#5f5f69" d="M644 146.8l-1 129.7-5-83v-20.7" />
      <path fill="#8a8a8b" d="M503.3 45l122 1 122 1.4-126.2-8" />
      <path fill="#fff" d="M425.6 250.6L347.4 95.2l127.2 106.5-.8 87M644.3 271l7.4 86.7 62-111 123.7.2" />
      <path fill="#888889" d="M484.4 456.5l-1 4-13.5-7 17-26.2" />
      <path fill="#af9718" d="M191.2 139h9.4l8.2 29.6-49-39" />
      <path fill="#fff" d="M1007.4 86.4L1005.7-31l49.3 84.7-51.7 265.2" />
      <path fill="#ffe80a" d="M719.3 268.3l12-5.3-32.7-3 3.4 7" />
      <path fill="#ffe00d" d="M519.5 150.4l113.8 5-1.2 2.4 171-5.8" />
      <path fill="#8c8b8e" d="M506.2 19l3.4-3 20.3 2.7-13 19.7" />
      <path fill="#fff" d="M593.5 429l12.2 77.7 20.6-68 179.7-12" />
      <path fill="#626262" d="M390.6 338l20.7-4.3-6-16-9.4 8.7" />
      <path fill="#fff" d="M728.7 293.2l118.7-2.7-76 130.7L789 301.8" />
      <path fill="#9c9c9b" d="M85.3 159l-2-33.3 32.2 22.8-28.5-1.3" />
      <path fill="#fff" d="M173.2 97.5l-8.7 93L181 105l346.7 27.7M251.7 306l-64 170L290 356.7 155.3 394" />
      <path fill="#9b9b9d" d="M706 461.2L691.4 390l5.4 24.8-5.7 44.8" />
      <path fill="#857416" d="M186.2 97.4l2.5-62-22.4 78.4L155 96.4" />
      <path fill="#bd9a00" d="M189.7 398.2l7.8-14.2-17.5 27.8-29.2-42.7" />
      <path fill="#423f7e" d="M681 162.5l-196.3 3.3-7.2 20.2-1.5-31.6" />
      <path fill="#eaeaea" d="M666.7 133.8l30-35.6L680 36l2 104" />
      <path fill="#7f7f8a" d="M159.4 346.6l40.4-10.7-1.2 19-42.4-19" />
      <path fill="#989895" d="M233 205l.8-13.4-3.8-4.2-33.7 3.3" />
      <path fill="#8e8a8e" d="M635 455l-23 6.4 10-16.4 1.3-6" />
      <path fill="#fff" d="M756.7 282.6l293-191.5-9.8 190-303-5M139 23l66 3.3-195-57L-31 140" />
      <path fill="#fff" d="M156 188.2L7.7 543-31 7l189.8 244.3" />
      <path fill="#7d7c7e" d="M848.6 115.3l-113.6-4 7.6 5.7 55.5-.8" />
      <path fill="#fff" d="M1055 543l-99-121.8-213.4 77.2L221 507M386.5-31L408 174.5l-1-129 5-76.5" />
      <path fill="#fdfcfd" d="M594.8-8.2l33 151.2-146.4 7.7L647 112" />
      <path fill="#8c8c90" d="M740.2 238.3l-28.8 10 5-3.4-29.2-6" />
      <path fill="#fbfbfc" d="M752.6 109l143 4.5 21.6-13.6-166.6-4" />
      <path fill="#5e5663" d="M639 296.7l2-95.6 5.2 165-5-16" />
      <path fill="#9c0000" d="M109.5 398l8-12 12.3 14.2-21 5.7" />
      <path fill="#fff" d="M130.7 408.6L102 478.3l69 27.6L-6.6 372M516 169l105 255 3-258 .7-1m80.7-123.6L549 41l-76.4-72L728-22.7" />
      <path fill="#fff" d="M761 14.3l-543.2.5L911.3-31l143 45.8" />
      <path fill="#929293" d="M629.3 26.7l-10 .8-14.5 2.7 13-20.8" />
      <path fill="#fff" d="M499.2 483l41-20 132-13 87.5 29.3" />
    </g>
    <g class="SVG--1">
      <path fill="#757477" d="M545.6 460.5l10.8-3.4 5.2-16-6 2" />
      <path fill="#b3b3b3" d="M845.6 60.6L782.8 122l10-61.6 53 38.3" />
      <path fill="#a91108" d="M121.8 63.7l10-13.5-14-5.5-7.3 5.7" />
      <path fill="#565757" d="M665.3 100.2l23-4.2-32.8 27.4 1.2-69" />
      <path fill="#fff" d="M-31 19.4L131.7 399l-1.6-27.4 1-173" />
      <path fill="#9e9d11" d="M77 466l-1 8.6 33-4.2-11-21.6" />
      <path fill="#00b550" d="M706 287.2l1 2.4 25.2-6h-38.8" />
      <path fill="#7e50b7" d="M774.4 156.5l73.5 7-100 3-49-6.4" />
      <path fill="#4ea87c" d="M683.2 372l-3.4-22.5-15.2 34.2-28-7.2" />
      <path fill="#fff" d="M528.8-31l-322 58.6-22.4 36.8L224 88.2m607.3 30l-389.4-1-356 11 454 14.3" />
      <path fill="#a2a2a3" d="M911.4 33l10.8-24.7 14.6 13-.3 6" />
      <path fill="#fff" d="M683.5 456.4l-23.6-103 16 32-20 120" />
      <path fill="#fff" d="M477 420.8l180.8-1 2.4-37.2-110-5.3" />
      <path fill="#6f766e" d="M126.5 429.6l12.3-22.4.4 52.3-6.8-19.5" />
      <path fill="#fff" d="M697.6 215l-52-25.6-1.4 163 55.5-22.4" />
      <path fill="#909487" d="M158.7 138.7l-2.4-6.7 32-4.4L166 152" />
      <path fill="#b0b1ae" d="M481.8 104l-3 41.2-37.6.3L464 170" />
      <path fill="#fff" d="M372.4 543L211.7 116l-31 24 219-31.3M136.4 129L75.4-5.5l-94.6 6 119 93" />
      <path fill="#fff" d="M401.4 289.3L165.7 326l6-114 202.3-6.5M478.3 296l-158 28.6 91.2-5.8 5 224.2" />
      <path fill="#8a8a8b" d="M460.2 403.6l-14.6 13 18.2 4.3-6.3-13" />
      <path d="M993 106.2l-3.2-14 1.5-49 4-1" />
      <path fill="#fff" d="M759.6 423.6l6.8 119.4 102-83.3L676.8 474m-53.4-71.3L619 167.3l-136.3-1.7-3 228.2m-297.2-206l1-27.4-40-32.6-13.2 58.7" />
      <path fill="#a8a525" d="M128 43.3l16.8-19 41 44-7-40.7" />
      <path fill="#888787" d="M464.4 282l-27-6 3.3 20.8 25.5.2" />
      <path fill="#fff" d="M997.2 104l8.5-135L926 15l72 23.4m-415.4 67.4l-73.8-.5 2-60 80.2 3.4m88.4 285L988.6 278l66.6 117.4-370.7 27" />
      <path fill="#979798" d="M888 116l136 .4-118-5.7-119.5 5.7" />
      <path fill="#ab8906" d="M116 178.4l-11-3.7 27.5 7.7-7-37.4" />
      <path fill="#7a7a7a" d="M583 505.5l-29-22.3 124.7 8.2-73.2-7.2" />
      <path fill="#8a8a8b" d="M783.7 498.8l-117-3.5 96.5-11.3 3.6 13" />
      <path fill="#fffffb" d="M146.5 403.4l-11 47 33-63.7-93 38.2" />
      <path fill="#898989" d="M787 270.7l-45.6-7.7 49.7-10.8-18 7.2" />
      <path fill="#8957b0" d="M710 312l20.2-.5-13.7-9.6-21 6" />
      <path fill="#959691" d="M134.4 191.2l-3.5 20.6V329l13-146.6" />
      <path fill="#070909" d="M1008.5 37l-9 19.8 5.7 51 .6-57.7" />
      <path fill="#565757" d="M779.7 43.2L687 48.8l-8 12.7-29-19" />
      <path fill="#979698" d="M543.2 117l-110.5-.4 58.5-5.2-22-3.4" />
      <path fill="#9b9ca0" d="M253.5 444L232 471l-29.4 23-6.5-1" />
      <path fill="#fff" d="M833.3 148.3l221.7 80.2-122.8-112-412.8 35" />
      <path fill="#535353" d="M651.6 73.7L648 40l-2 46 1.8 12.4" />
      <path fill="#11c061" d="M666 379.8l2.4 37.3-6.3 4-4 4" />
      <path fill="#757a38" d="M169 419.4l-21.8-1.2-17.2 2 33-11.7" />
      <path fill="#a2a2a3" d="M430.2 19l-22.8 32 3.2 75L413 15" />
      <path fill="#fff" d="M411.3 76.5L476 337l-3.4-209.5-61.5 286m-262-309l-23-42 20-23 36 27.2" />
      <path fill="#b6b5b5" d="M387.2 55l-6-7-26.5 45.2 33.6 2.8" />
      <path fill="#00a651" d="M618.8 378l6.4 1.5 54.4 1.7-29.7-5.8" />
      <path fill="#fff" d="M113.7 486L65 474l28 54 16.7-85.3m55-76.3l28.5-39-35.2 4.4L307.3 543" />
      <path fill="#8d8d8e" d="M823 230l-30 7.3 1.2 9 18 1" />
      <path fill="#868686" d="M692.7 477.4l23 22 19.3-20.7-53.3 13.2" />
      <path fill="#919091" d="M606.7 117.5l42.6-3-52-2.8-45.8 3.6" />
      <path fill="#6b6c28" d="M139.3 101l-3.3 22-5.2-30.4-13.8-27" />
      <path fill="#5acdf4" d="M91.8 99.2L54.4 84 29 91.3l45.5 8.6" />
      <path fill="#fff" d="M609.3 426l-62.2 2 57 55.7 10 59.3m-140-29.5l-3-322-11 248.8-389 82.3" />
      <path fill="#b8b8b9" d="M590.5 77.4L658.8 51l-1.5 8-68.3 43" />
      <path fill="#fff" d="M721 169.7l28 179-.4-117.5 155.8-.2" />
      <path fill="#707070" d="M411 307.2l-4.8-31-1.8.3-13 27.2" />
      <path fill="#dedfdf" d="M989 112l-5 28.7.6-81-2-90.7" />
      <path fill="#fff" d="M156.3 245.6l1.7-176-16.7 190.7 15 60.8m819-280L893 40l149.2-50 12.8 52.5" />
      <path fill="#e3e3e2" d="M745.8 91.3L720 98.5l6-44.6 20.8 52" />
      <path fill="#a0a0a0" d="M830 11.4l-23 6.8 7.4-2.8 4 27" />
      <path fill="#fff" d="M631.6 372l-1-12.6 30.2-1.2 23.2 19.5" />
      <path fill="#d2caed" d="M765.4 159.7l-136 .2-75.4 38 85-43" />
      <path fill="#7a7b7a" d="M801 75.8l-1 .2 9-26.2 2 54.2" />
      <path fill="#f0f0f1" d="M788 111.6l-34.4-7.6L778 93.7 785 6" />
      <path fill="#fff" d="M92 465.3l-123-85.6L111 349l-6 64.6" />
      <path fill="#9f9fa3" d="M62.8 441l-22.3.7 32.3 40L59 481" />
      <path fill="#fff" d="M447.2 288.7l-284.5 151L-31 435l235.8 13M430 41.2l59.2-4 32-30.3-98.5-38" />
      <path fill="#96989b" d="M86.4 510.4l41 24.4L58 493.3 30.2 459" />
      <path fill="#fff" d="M-17.3 359L-31 471l116-20-32.4 31.2" />
      <path fill="#fdfff5" d="M187.8 17.3L90 120l91 57-92-68" />
      <path fill="#81822f" d="M139.2 460.6l-10.2-2.2-.6-9.8 14 .8" />
      <path fill="#767d4d" d="M163 465.6l3-39-15.6 3.6 11 15.7" />
      <path fill="#7c5901" d="M194.8 466l-11.4-21.5 1 15-12-4.2" />
      <path fill="#542e81" d="M598 165l145.8-.8-163-8.3 68-3" />
      <path fill="#939394" d="M477.7 233.2l-2 118.6 8.4-59-2 14" />
      <path fill="#a8ae17" d="M172.3 378.7l-14 12-5-13.2 1.8-23.7" />
      <path fill="#5e5e5e" d="M784 62.8l-70.8-.2 23.6-21.4 32.8 40.2" />
      <path fill="#fff" d="M819 296l-32.5-74-1.6 54.3 58-45.6M161 459l40 22.2L56.6 543l33.2-72.6" />
      <path fill="#d11623" d="M113 400.2l10.5-15.6-12.3.4-3.6 9.2" />
      <path fill="#6f3e93" d="M724.6 164.6l96.6-4.5-.6-1 40.8 7" />
      <path fill="#f7f7f7" d="M961.2 22.6l42-53.6-48.4 84.4 3.4 70" />
      <path fill="#6c5265" d="M682.5 410.7l-.7 6.7-5-44.3-2 55" />
      <path fill="#f1f1f1" d="M655.2 51.3l-2.8-6.3-1.4 39.4 3.3 61.5" />
      <path fill="#fff" d="M405.7 296.6l-114.2 10.8 71.3-54.3-249.3 5" />
      <path fill="#d8d8d8" d="M980.4 38.8L964 178.6l16-80.4-11-52" />
      <path fill="#fff" d="M461 171l-224.6-61.6-36.8 49.2 274.8 81.7" />
      <path fill="#9c9d99" d="M480.7 142.3l.3 122.2-5-25.8-.7-106.7" />
      <path fill="#b1b1b1" d="M378.8 99.5l68 19.5-63.8-7.7-85.2-2" />
      <path fill="#fff" d="M837 36.2L704.4-31 765 69.4l3-43.3M216 188l-40 106.5-75-2.2 144.6 17.5M425.8 84.2L305 67.5l58 50.2-11-35.3" />
      <path fill="#6a6000" d="M206 177l-10-34 6.8 1-9 27.2" />
      <path fill="#a0a0a0" d="M834.5 446.8l27.2 17-5.7-25.5-40.5 15.6" />
      <path fill="#89882f" d="M79.3 474.4l47-28-10.4 2-40 15" />
      <path fill="#502f00" d="M177.5 389.5l8 14.3-17-3.2 3.2 1.7" />
      <path fill="#fff" d="M683.8 440l26.6-17.4-4 31 112-27.2" />
      <path fill="#fefeff" d="M829 60.4l-4 55.2-4.7-68.5 142.3 11" />
      <path fill="#d8d8d8" d="M713.4 113.7L714 53l19.3 45.7-8.2-51.3" />
      <path fill="#626262" d="M961.7 60.5l-.6 37.8 22-5.7 3-6" />
      <path fill="#fff" d="M87.6 163.5L142 166l-173-51.5 50.3 416" />
      <path fill="#686368" d="M217.4 88.6l8 30-14.8 8.5 12.8-23" />
      <path fill="#fff" d="M133 66.4L344.3 52l73.4 11-47.4 2.6m353 437.6v-36L863 497.4l-157.2-63.2" />
      <path fill="#fffffd" d="M129 401l24.7-32.3-17-5.8 18.2 51" />
      <path fill="#8d8d8a" d="M158 197.2l12.3-5-6.2 124.6 5-17.2" />
      <path fill="#fff" d="M178.6-23L136.8-4.4l63.5 58.8 25.3 143.3M814 288l239.3-171.8-175 1L853 120" />
      <path fill="#4e4e4e" d="M487.2 449l-2-8.6-1.7 13.6 2.7 4" />
      <path fill="#8c9188" d="M788 300.3h-46l11.3 8 35.8 7.4" />
      <path fill="#e0e0df" d="M695.6 42l.3 68.2-7-21.8 7-71.4" />
      <path fill="#916caf" d="M204.5 103.4L211 87l33.4 14.7-4-22.7" />
      <path fill="#d7d4d0" d="M656.4 181.6l4-41.7L664-15l1.4 113.4" />
      <path fill="#bcc22d" d="M132.6 140.6l-10 .6-13 7.2 18 13.8" />
      <path fill="#fdfdff" d="M841.3 113.4l70-.7-3-67.6-42 9" />
      <path fill="#716e71" d="M629.3 433.3l.6 18v9l-10-9.2" />
      <path fill="#7e7e7f" d="M476.7 348.4l4.2 72.8-5 34.6 3-117.8" />
      <path fill="#fff" d="M724 284l74.4-12.7-73-3.7-67.5 7.6" />
      <path fill="#fdfefe" d="M272 416l-11 18.8-195.4-15.3 86.7 1.8" />
      <path fill="#777778" d="M689.7 449.2l7.5-8.6 10.8 9.6-9.5 9.8" />
      <path fill="#ae9d21" d="M214 452.8l.2 27.3-23.4-31-14 20" />
      <path fill="#85817e" d="M80.3 121.3l1.8-15.7 6 43.4 8-5" />
      <path fill="#fff" d="M425 279.5L54.6 435 169 392.3l9.4-35.6M406 116.3l.3-45.8-24 91.4 121.2-40M717 429l-80.7-.7 21 91.2-6.7-68.6m-192.8-20l65-6 39.5 5-36.6 26M164 121.2l60.8-24-19 45 1.2-67" />
      <path fill="#00a244" d="M628 330.3l-4-132.5-.7-44.4 5.8-2.4" />
      <path fill="#fff" d="M463.4 229l-27-79.2-3 26-251.4-1m-43 25l-85 32 91.7 8-38 12.7M-31 442.2l136.3-91 8.7 171-11-80.3" />
      <path fill="#585758" d="M618.5 503l-3.5-23.7-4.2 23.4L623 489" />
      <path fill="#7a31a7" d="M193.6 125l5-7.2 2-9.4-22.7 7.8" />
      <path fill="#5c5a5e" d="M656.5 358l-12.7-4.6 9.8-1.3 27.4 3" />
      <path fill="#d3d2d2" d="M680.2-8l26.3 119.7v-80L699 75.5" />
      <path fill="#827a30" d="M153.8 113l-15.6-18.4-23-25.8-6.3 2" />
      <path fill="#353535" d="M669 70.8l1-22-5 19.4 3.7 37" />
      <path fill="#a7a6a8" d="M412.5 41.4l19 21-5.3-14.4 91.8-4.8" />
      <path fill="#00b452" d="M662 413.4l-.8-42.2 3.8 9.7 4.2 4" />
      <path fill="#8a8a8a" d="M598.6 118l6.8-4.3-2.2-72.6-1.7 36" />
      <path fill="#fff" d="M570.7 483.7l82.2 1.8-48-41.5-72 24" />
      <path fill="#f6f6fd" d="M144.4 333.5l53.8 5.5-79.7-12.2-50.5 9" />
      <path fill="#4e4e4e" d="M587.7 495.6l-3.5-6L557 480l-5.8 1.8" />
      <path fill="#a3a3a3" d="M915.2 22.6l-2.2-5.3 15.8-3.6L927 44" />
      <path fill="#85857c" d="M158.2 81.6l2 63.6 29.4-3.7-20.2-4.3" />
      <path fill="#fff" d="M193.6 235.7L137 249l95.8-33.4L162 202m680.7 289.8l164.5-376.3-.3-121.7 48 178.4M587 502.5l-397-61.7 402.3 93 1.2-61.7" />
      <path fill="#676767" d="M648 493.6l100 3.4-58-.5 6-14.5" />
      <path fill="#9d9c9d" d="M615.3 47.7l-8-35.4 6.7 1.5 5.5 32.7" />
      <path fill="#9f9e9f" d="M845.3 291l-75.4 2 104-14-11 19.5" />
      <path fill="#989bb0" d="M186 23.7l22.2-6L181.5-31h43.3" />
      <path fill="#efeff0" d="M685 527.7l3-50.6 4.5 66 8.2-79" />
      <path fill="#fff" d="M684.5 131.6l-2-88.5-62.2-8L684 11" />
      <path fill="#ffec31" d="M163.4 403.6L184 405l-14 4.8 1.6-37" />
      <path fill="#fff" d="M159.7 154.8l-69.4 64.4 113 3-96.6 4.7m25-100l-20-25 47-18-27-34" />
      <path fill="#fffffd" d="M175.8 259.5l30.3-62.3-39 14.8 6-31.7" />
      <path fill="#fff" d="M811.6 151.2L750.2 122l-106.5-7L483 143.3" />
      <path fill="#fdfcfb" d="M105 278.7l72.2.8-63-6.8 21.2 89.2" />
      <path fill="#fff" d="M848.2 430l-2.7 38-166 57.7 139 17.3" />
      <path fill="#fbfcfc" d="M360.2 366.8l-188-19-184.5 4.3h155.8" />
      <path fill="#fff" d="M100 543l-131-73.4L28 543l14.7-66.6" />
      <path fill="#28ccff" d="M129 114.8l-22.8-4.6-3.7 3.8 11.3 13.6" />
      <path fill="#dad9dc" d="M474.7 94.7l-8-28.5 39.5-23.5 1.4 60.2" />
      <path fill="#fdffff" d="M118.6 139.5l25.2-12.8-29.4-2.2L54 126" />
      <path fill="#908113" d="M164.8 99.8l24.8-45L159.8 20l29 58.8" />
      <path fill="#fff" d="M791 292l185 5.4-179.7 123L786 301" />
      <path fill="#828382" d="M821 12.5L817 44l.2 54.7 3.2-11.5" />
      <path fill="#fff" d="M476.4 140.6l-1.3 93.8-67 86.4 5-62.8" />
      <path fill="#adadad" d="M122.6 340.4l-21.2-6.7L83.7 353l42.8-10.3" />
      <path fill="#fff" d="M257.3 125.7L360.7 54l-4.2 67.6L274.7-31m-299 68.8L106 90.4 122.6-31l2 75" />
    </g>
    <g class="SVG--2">
      <path fill="#6d7262" d="M151 364l7.3-28 7 8-.4 22" />
      <path fill="#fff" d="M152.3 96.7l-23-47.6 21.3-13 22.6 14" />
      <path fill="#999" d="M456 41.7l-43.4-.5L373 59.4 386.5 48" />
      <path fill="#fff" d="M108.3 325l6.6-188.4-60 164 86 12" />
      <path fill="#a2a4a6" d="M26.2 464.5l14.2 1.5 67 73.5-67-64.2" />
      <path fill="#807e02" d="M79 460.6l11.4 12-2.8 3-10.6 2.6" />
      <path fill="#fff" d="M626 170.2l-146.5 141v-98.6l.7-47.2" />
      <path fill="#fafafa" d="M760 142l7.6-87.7 17.2-3-22.6-1.3" />
      <path fill="#fff" d="M691.7 425.7l-28.5 65.5L645 442l-207-8.7" />
      <path fill="#fffffe" d="M148.8 170.3L129 142.7l58.4 49.2-14-55" />
      <path fill="#979798" d="M365.7 75.7l47-1.5-55-9 3.4 8.5" />
      <path fill="#fff" d="M170.3 114.3l233.2 133.5-309.3 12 251 5" />
      <path fill="#00a54c" d="M624.3 368.2l4.4-27-1.4-67.5-3.8 78.4" />
      <path fill="#f5f5f6" d="M434.6 260.4l-73.2-4 92-11.6-99.2 17.8" />
      <path fill="#434343" d="M742.7 115.5l-2-22.5 1.3-.4-14 14.2" />
      <path fill="#fffff5" d="M142.6 358.3l18 10.2-37 35 44.2 1.8" />
      <path fill="#4a4a4a" d="M979.2 109.8v-63l2.6-6.3 2.5 47.6" />
      <path fill="#fff" d="M953.2 8.5l-152 22.7 143.3 2.2L772.7-11" />
      <path fill="#745b6c" d="M678.8 349.7l-4.3 15.3 3 57 2.7-31.3" />
      <path fill="#454747" d="M666.5 95.8L658 56l.2 59 27.3-2.4" />
      <path fill="#fff" d="M198.4 455l4.8-178-14-87.2 336.4 319.7M700 237.7l342.2-76.6-389 12L695 426" />
      <path fill="#8a8c8f" d="M208 482.3l-12 17.3 33.6-28.4 10.8-10.5" />
      <path fill="#fff" d="M855 426.5l-126.4 103 53.6-51.7-8.6-51.5" />
      <path fill="#0e1010" d="M1000.6 124.6l4.7-78.5-18.7-3 16.6 14" />
      <path fill="#8e955b" d="M145.8 21.3l-3.2 2-3.8 7.6 32 11" />
      <path fill="#757574" d="M947.4 65.2l7.3 66.8-1.8-93-4 39.5" />
      <path fill="#fff" d="M484 111.6l-39 1.6 27.7-69.6-34.7 19" />
      <path fill="#0eb55d" d="M735 289.4l-22-5.2-10.5.2-2.8 2.3" />
      <path fill="#8d8d8e" d="M844 424.2l-4 36.7-2-36-42.4-3" />
      <path fill="#797979" d="M746.4 231.3l5.7 10 29-2.3-9-7.4" />
      <path fill="#f1f1f1" d="M641.6 148l.7-174.3 4 163.2-1.3-55" />
      <path fill="#9d9c21" d="M155.3 192l12.6-6.3 11 17.7 23-15.2" />
      <path fill="#fffffc" d="M216.2 31.5l-9.4 83-41-14 18.3-1.3" />
      <path fill="#a16608" d="M107.5 72.6L122 81l.2-1.6 7-42.6" />
      <path fill="#fff" d="M403.3 240.6l77.4 37.6L401 274l52.4-49.5" />
      <path fill="#888788" d="M802 287.8l-23.6-7 31.5-4.5 4 1" />
      <path fill="#7c7e80" d="M504.4 421.2l87 4.3 93-2.2-130.3-2" />
      <path fill="#5a5f26" d="M137.3 385l-4.2-27-4-4.3 13 31.3" />
      <path fill="#9c9c9c" d="M742 45l105-.7-93.4-3.7-4 81.8" />
      <path fill="#fff" d="M864 142.4L876.6 390 828 444.4l227-64.4" />
      <path fill="#4c4d1c" d="M140.7 307l-4-19-2.7 22 7.6-.4" />
      <path fill="#fffffd" d="M153 23.3l12.8 81-22-110-120 50" />
      <path fill="#fdfa40" d="M88.8 475.7l9-22.4-9.8 2.3-2.2-7.5" />
      <path fill="#797a89" d="M155 244l6.6 19-6 83 4-97.6" />
      <path fill="#272727" d="M741.5 64l1.8-15.2 7.4-3-21.8-2" />
      <path fill="#fff" d="M580.8 468.6l1.6 37.4-15-66.6 62.8-5" />
      <path fill="#6d6c68" d="M439.4 153.3l2.7 8.8-2-15 13-3" />
      <path fill="#e9e9e9" d="M999.8 83.8L993 146l-54.6 141.6 63.2-163.6" />
      <path fill="#b08000" d="M189.7 448l6.2 13.7-11 3.2-12-5" />
      <path fill="#a5a4a6" d="M562.6 468.2L549 415.4l.2 40 11.8 7.3" />
      <path fill="#fbfafb" d="M688.6 434.5L646.8 543l30.7-84.8 3.2 49" />
      <path fill="#fff" d="M63.5 81l-81.3 298 158.5-83.3-95-32.5" />
      <path fill="#fcdb0d" d="M671.3 149.8L779 153l-46.6 1.5-130-.7" />
      <path fill="#f8f8f9" d="M400.5 268l43 34.2-60.4-8 70-3.2" />
      <path fill="#fff" d="M633.8 360l41.5-1.5L669 447l-3.2-79" />
      <path fill="#7a7b7a" d="M410.7 221l-2.8 18-24-26 16 10.7" />
      <path fill="#fff" d="M771.6 369.7l-44.3-66 22-100.6-2.8 137M164.3 543l47-27.2-37.7-59.4-116 31.3" />
      <path fill="#aaaaac" d="M785.2 455.3l-17 5-.6-44L766 452" />
      <path fill="#fff" d="M13.2 424.5l47 63.6L-31 289l170.2 81M251 129l-3.7-70-9.6 146 260-87.5" />
      <path fill="#fffffe" d="M68.6 463l48.5 80 110-74.8-147 45.4" />
      <path fill="#292928" d="M702 59l-2 25.7-3-30.2 1.5-13" />
      <path fill="#6d6d6d" d="M407 284.2l-19.5 24.3 17 2.3h5" />
      <path fill="#fff" d="M380.5 329.5l38.8-42.6-144 185 197-94" />
      <path fill="#ebebeb" d="M742.8 95.6h-42.2l-10-16 52.7 5.7" />
      <path fill="#777f45" d="M144 107.5l6.2-7.4-34.4-7 9.2-7" />
      <path fill="#b0b0af" d="M166 348.5l21.5-16.7 16.3 7.2-25.4 6.8" />
      <path fill="#fff" d="M646.4 171.8l-1.7 7.2 1.4 112 121-124" />
      <path fill="#d9cb1b" d="M187.7 158.6l18.7 5.3-4.8-24-9 31" />
      <path fill="#59cbf1" d="M51.7 90l-15.2-6.8 4 18L59 86.5" />
      <path fill="#fff" d="M163 248.6l231-76.4-2.6 112.6L160 252" />
      <path fill="#b0b0b1" d="M420 93l-6.5 23.4 37.8-1.3-46.3-8" />
      <path fill="#676767" d="M718.7 74.6L723.3 9l-1.6 99.6-3.8-43" />
      <path fill="#999" d="M778 241.4l10-15.4-11.5 44.4 13.2 1.8" />
      <path fill="#797e75" d="M218 106.2l-3 16.4 17 2 4.7 10.6" />
      <path fill="#fdfdfe" d="M417.8 130l39 99.6-118-1 79.2-3.8" />
      <path fill="#f6f6f6" d="M791.4 106.8l8 .8-5.4-60-1 45.7" />
      <path fill="#fff" d="M604.5 108.6l-66-64.4-32.4 68.5 149-.3" />
      <path fill="#727271" d="M595.8 94.2l-4.4 4.4.2-28.4 5 13.8" />
      <path fill="#908985" d="M93.4 122.5l-2-3.4-3 25 1.2-40" />
      <path fill="#0b0e0d" d="M678.7 41.8l.5 21.2-12-16 1 8" />
      <path fill="#fff" d="M825 260l-70.3-18.4-13.4 10.5-17-4M394.8 379l-254-28 285.6.7L401 329" />
      <path fill="#5e5e63" d="M639.3 274.7l1 83.6 4-12-4.8-191.4" />
      <path fill="#53542b" d="M134 215.3l5.5-26.7-8.7-.3 4 .2" />
      <path fill="#561f92" d="M638.8 164.8L481 163.4l130-3.4 83.7 5" />
      <path fill="#fff" d="M567 543l2.5-64.3L560 511l227.6-13m-104.8-82l15-154 68.2-4.2-88.4-17" />
      <path fill="#5c5c5d" d="M720.3 485.3l17.6-5.6-14 7-136 .2" />
      <path fill="#5c4126" d="M121 389.6l13.6 38.8 3.7-14.6-23.5-16.8" />
      <path fill="#fff" d="M671.6 40l-80-11.4 150.6-.3L828.8 14" />
      <path fill="#fff" d="M825.7 15.3l56 26.2L986.2-31l-455 45.8" />
      <path fill="#616161" d="M562.8 494.5l-11.7-14v10l53-2.8" />
      <path fill="#cbcccc" d="M681.2 69.7l-11.2 49 3.4-47.2 13.2 71.4" />
      <path fill="#fff" d="M642.3-31L502.8 40.5 398.6 2 580 41M408.8 188.2L389.5-31 180 43.2l225.6-5.8" />
      <path fill="#01aa57" d="M624.5 371l6.2 16.2-1.7-21-1-42.6" />
      <path fill="#32a368" d="M506.8 167l-30.3-11.4h22.2l-4.2 7.5" />
      <path fill="#818262" d="M146.5 117l-11-27 9.2 54.6-8.6-.3" />
      <path fill="#fff" d="M791 275.2l92.6 7.6-89.2-29-17.7-85.6m-636 24.5l48-29.2L186 147l-39.3-2.5" />
      <path fill="#a09fa0" d="M787.3 45L735 44l57.5-3.3L788 138" />
      <path fill="#e3e0d9" d="M673.7 75l-1.6-8.2V162l-1-125" />
      <path fill="#5e2484" d="M838 161l-69.6.3 73.6 4.5-4.3-9.3" />
      <path fill="#fff" d="M660 382l-116.5-2.2 1 40 108.7 1.5M254 166.7L222.4 111l-49-12L341 113m411.7-55.3l-1.4 5L784.7 45l-3 15M369.3 304.3l61 10.5-277-3.2L470 460.2" />
      <path fill="#575940" d="M132 451l-2.3 7.7 4-17.6 10.6 16" />
      <path fill="#feffe1" d="M151.4 142.8L140.6 75l-27 73.7L150 65.3" />
      <path fill="#e6e5e6" d="M608.8 50l-4 59.2 33.6-12.8-5.8-34" />
      <path fill="#fff" d="M709.3 148l-218 2-9.7-32 255-.4" />
      <path fill="#afb76f" d="M131.8 417.6l21 1-12.6-11-6-2.2" />
      <path fill="#fff" d="M815.3 235.3L817 263l206-18.4L783.5 279" />
      <path fill="#feffec" d="M153.7 395.4l17-10.5-31.4 57 4-67" />
      <path fill="#f9f9fa" d="M555 486l74-55-73.8 32 9 34" />
      <path fill="#8b8c8e" d="M691 242l23-4 17.7 8.5v-1" />
      <path fill="#9e9d9b" d="M468.4 165.8l-6.7-27-11.7 23-20.7-3" />
      <path fill="#fff" d="M498 506L366 327 205.7 543 559 443.3M167-31l55 58.5 1-58.5-57.2 66.5" />
      <path fill="#f1f1f1" d="M715.8 15.7l2 109.8-165.2 23 160.4-17" />
      <path fill="#eeeaea" d="M705 156.3l103.5 1.5-53 2.4-83.8-2.3" />
      <path fill="#f6f7fb" d="M151.2 440.5l13 48.7-23.2-58.8-20.3-4.3" />
      <path fill="#767676" d="M142.2 268.7l-9.5 46 10-62-12.2-30.8" />
      <path fill="#fff" d="M144.7 54l-50.2 75.7L80.5-31 111 94" />
      <path fill="#9c9c9c" d="M626.5 15.3L606.3 31l1.3-18.6L624 25" />
      <path fill="#9f8722" d="M123.8 151.6l-3 35.2 13.6-11-24.2-32" />
      <path fill="#fffeff" d="M773 301l9.5 242-6-221.7.2-70.6" />
      <path fill="#fbf9fa" d="M675.2 353.6l-2 149 11-81.3-26.4 84.6" />
      <path fill="#cfcfcf" d="M724.4 62.3L724 116l21.5-68.2v12.4" />
      <path fill="#fff" d="M702.5 462.6l7.5-31.4 29.3-6.8 63 76.5" />
      <path fill="#979798" d="M807.5 41l148 .3h66.7L913 45.6" />
      <path fill="#fff" d="M669.4 425l-36.5 1.4-5 22.2 40 43.6" />
      <path fill="#1c1f1e" d="M1006 97.8l.4 19-6-2.5-3.2-6.2" />
      <path fill="#788581" d="M672.7 420.8l146 1.5-154.7 2 .3-10" />
      <path fill="#fcfcfd" d="M743.8 424.3l-16.3 67.3 19.7 51.4-28-86.6" />
      <path fill="#fff" d="M172.8 464.6l-7.3-58.4L342 449.5l-144.7-41.8M767 501.5L756.3 465l71.7-24.5 60.4 90.7" />
      <path fill="#fffff9" d="M73.5 65.8l46.2-3-40.2-35.4-2 98" />
      <path fill="#fffffd" d="M188.2 543l11.2-90.8-40.5 70.6 94-57.4" />
      <path fill="#f7f7f8" d="M865.4 46.3l73.2-.8-.7 101.3-5-76.8" />
      <path fill="#959597" d="M215.7 190l21-1-4 15.4-7.4-6" />
      <path fill="#878787" d="M987 115.4l7.8-3.8-123.3 4.5H993" />
      <path fill="#f9faf9" d="M156 203.7l-40.6 27 31-25.3-43.4-4" />
      <path fill="#fff" d="M422 29L248-5.8l22 136.6 107-80.2" />
      <path fill="#91908e" d="M181.4 353.6l2.4-21.3 14 17.5-8.5-2.4" />
      <path fill="#5e716f" d="M638 176l7-22-98.5 2L647 166" />
      <path fill="#8f8f90" d="M528 20.7l-6-9.8.7 1L507 26" />
      <path fill="#fff" d="M57.8 476l44.8-73.7 26.2 67.6-2-63" />
      <path fill="#626262" d="M699.5 98l2.6-56.3 1 70.7-6-1.3" />
      <path fill="#838284" d="M782 422.3l38.7.7 15.7-1.7 12.4 4.2" />
      <path fill="#fdfdff" d="M126 255.4l11.7 37.2.7-18.3-42.8 23.5" />
      <path fill="#a8a7a8" d="M353 101l-39.3-2.7-3 11.6H324" />
      <path fill="#fff" d="M220.3 148L200 185.5 320 169l-181.8-64m32 101.4L334.6 397l-174.3-78 9.3 50.6" />
      <path fill="#606b48" d="M136.6 340l2.4 35-11 15.4 12.3-27.6" />
      <path fill="#7b7b7b" d="M543.8 113.2h129.5L550.5 117l-35-1" />
      <path fill="#fbfbfc" d="M450 239.5l11.7 53.6-22-41-46.7-13" />
      <path fill="#fefeff" d="M458 136.8l-.6 33L462 150l-72.8-35.6" />
      <path fill="#fff" d="M775.3 418l-83.4-3-11-37 79-72.4" />
      <path fill="#e3e852" d="M124.4 34.3l42.4-12-20.6 5.6-18.2-2" />
      <path fill="#969888" d="M188 23l18.6-1.7L191 9l-21.8 44.5" />
      <path fill="#cececf" d="M977.7 17.7l-.6 86.7-93-25.2 88 27.8" />
      <path fill="#fff" d="M448.8 212L392.3 82.2 432.5 219l3.5-81m-49.6 178.5l85.2-21.3-1 247.6L455 293.5" />
      <path fill="#595d34" d="M129.8 93.7l-7.7-28 24 60.6-3-33" />
      <path fill="#818181" d="M802 116.8l51.8-1.3-.6-1-122-1" />
      <path fill="#7a7c60" d="M138 286.8l4-15.6-2.3-16.2 2.2 62.3" />
      <path fill="#777b38" d="M143 354.5l-15-3.3 11 24.7-10.4 9" />
      <path fill="#999" d="M435 21.5l-25-8.3 4.2 16.4 6.8-14" />
      <path fill="#e0e0e0" d="M727.6 60.6l-3-43V76l3.4 70" />
      <path fill="#fefffd" d="M145.5 109l-82.7 2.3L132 76.5 89 89" />
      <path fill="#3f4323" d="M155 430.4l.7 20.5 2.4-24 8-8" />
      <path fill="#c0c0c1" d="M665.4 77.8l-3-38.8-2.3 100.8 5-43.6" />
      <path fill="#353435" d="M653 480l5.7 5-1.4 2.6 1.5 11" />
      <path fill="#fff" d="M669.7 301.5l21-8.8 81.6 1-46.4 11.5" />
      <path fill="#fefeff" d="M700 479.8l327.5-30.3-337 17.8 91.3 75.7" />
      <path fill="#585858" d="M757.4 84.3L753 64l20.3 16.6-5.8-15.2" />
      <path fill="#403409" d="M178 462.2l10.7-5.3-2.2-11-8.8 15" />
      <path fill="#8659aa" d="M701.4 309l-7.6-2.2 46.4 2.3-29 2" />
      <path d="M733.4 52l5.7 4-10-12 2 15.4" />
      <path fill="#1d2321" d="M681 98.7l-6 17.8 5-8-10-12" />
      <path fill="#57564e" d="M138.3 301.3v26.4l2-82.6v120" />
      <path fill="#703a9c" d="M493 159.8l-13.8 6 61.4-.7H620" />
    </g>
  </g>
</svg>