<svg version="1.1" viewBox="0 0 1024 448" width="1024" height="448" xmlns="http://www.w3.org/2000/svg">
  <g fill-opacity=".5">
    <g class="SVG--1">
      <path d="M635.2 170.8l-14.4 7.6-4 93.6 8-9.2m248-88.4L859.2 200l92 80-73.6-93.2m-475.2 42.8l8.8-68 10.8 62.8-18.4 46.8" />
      <path fill="#483" d="M69.2 271.2l19.6-102.4 50.4-19.6-48 151.6" />
      <path d="M870.4 258L784 203.2l26.4-36 3.6 29.6M597.6 178l-63.6.4-9.2 82.4-15.6-67.2" />
      <path d="M590.8 256l-86-21.6 52 29.6 54.8-72M362 270.8l-1.6-95.2-12.8-2-1.6 56m-69.2-50l15.2 15.2 42.8 78.8-34.4-103.2" />
      <path d="M591.2 236.4l-57.2 46 70-70.8-19.6-23.6m86.4 71.2l-4.4-10-43.2-1.6-10.8 19.6M394.8 136.4l26.8 96.4-76 28.8 70.8-5.2m65.6-18l-7.6 46.8-10-87.2 10-18M720 243.6l56.4 15.6-68.4-4.4 17.6-87.6M946 180l-30.8-12.4-38.4 86.8-18-29.6" />
      <path fill="#4BA" d="M78 272.4l-12.4-11.6 87.6 6-66 42" />
      <path d="M372.8 178.4l67.2-1.6 17.2 16.4 58.8-18m-243.2 19.6l3.2-3.2-22.8 86.8 40.4-94.8m356.4-.8l29.6 23.6 13.6 48.8-6-66.8" />
      <path d="M750 220l-23.6-15.6-62 54.8-38-2M573.6 174l30 40-71.2-42 23.2 5.2M842 223.6l-50.4-.8 20.8-49.2-26.8 20.8m-238 66.8l-22.8-8.8-20.4-36 12-5.6" />
      <path fill="#35A" d="M156.8 255.6l26-34.8 36 78.8-35.6.8" />
      <path fill="#8B4" d="M63.2 254l35.2 5.6 14-27.6-15.6-64.4" />
      <path d="M301.6 174l-58.4 104.4 50.4-104.8 30 87.2" />
      <path d="M279.6 196.4L254 257.6l79.6-43.6-57.6 17.6m604-40l-5.2-24.8-8.4 52 10.8 53.6m-348.8-13.6l66.4-21.6-6-46-8.8 67.6m235.2-7.2l34.4-2-16.8-44.4 4.8 55.6" />
      <path fill="#38C" d="M129.2 181.6l-8-29.2 37.2-4-2.8 22" />
      <path d="M335.6 204l12.4 2.8 1.6-48.4 18.8 110m45.2-95.2l10.8 7.2-19.6 66 6-39.6" />
      <path d="M344.4 237.6l71.6 23.2v-64L388.8 268m557.6-5.6l-36.4-5.2 6.4-1.2-28.4-38" />
      <path fill="#483" d="M131.2 190.8L89.6 202l1.2-22 23.6-38.4" />
      <path d="M722 213.6l-1.2-39.6-12 20.8 14.4 74.4m166.4-41.6l50.4-53.2-59.6 37.2-12.8-25.6" />
      <path d="M828.4 256.8l-118.8-10 18.8 10.4 74.4-12.8m-475.6 19.2l10.4-12.4-.4 11.2-28.8-61.2m416-18.4L673.2 262l8.4-52 45.2 16.8" />
      <path fill="#4BA" d="M130 278.8l23.6-15.6-16-2.8L64.4 278" />
      <path d="M419.6 220.4l-3.6-18-12.4-41.6 7.6 95.6M766 167.2l-5.2 2.4 15.2 20-68.8-3.6m132.4-4.8l-10-8.4-34.8 5.2 48 11.2M606 208.4l-40.4-36 3.2 3.2 22 61.2m-125.6-53.2l7.6-6 8.8 32.8L474 248m144.4-38l-3.2 58.4 22.4-38-28-27.2m-104.4 29.6l16.4-35.6-10.8 2 32.4-20M696 230l-44.4 26.4 12-12 29.2-26M877.2 262l-12-101.6 2 98.8 3.2.8m-505.6-2.4l34.8-8-22 18.8-38.8-72.4" />
      <path d="M619.2 248l38.4 14.8-28.4-14.8-4.4-48.4M307.6 236l6-11.6-45.2 11.6-22.4 14" />
      <path fill="#38C" d="M174.4 211.2l-9.2-51.2-55.2-6.8 36 58" />
      <path d="M553.2 180.4L592 192l6.8 40.8-36.4-58.4m-136-1.2l53.2 4L502 186l-54.8 2.4M856.4 230l-17.6 6.8-44-29.2-5.6-5.6" />
      <path fill="#35A" d="M178.4 305.6l-43.6-115.2 53.2 64.4 25.2 37.2" />
    </g>
    <g class="SVG--2">
      <path fill="#483" d="M100 155.6l-1.6 40.8 26.8 4-16.8-47.6" />
      <path d="M710 215.2l56.8-1.6-45.6 15.2-7.6 22m-26.8-51.2l-69.6-22 51.6 3.6 30 25.2m-350-13.2l-3.6 4.8 18 69.6-6.8-89.6m122.8 4.8l-13.6 34.4v41.2l5.2.4m458-83.2L916 192l-25.6 46.4 25.2-62m-285.2 98l-1.6-72.8-14 22.4 20 22" />
      <path d="M873.2 209.6l-6.4-10.4 47.6 38.4 14 17.2m-632.8-57.2l8.8-18.8 20 84.8 16.8-4" />
      <path d="M871.2 260.4l8-86-14 9.2 6.8 28.8" />
      <path fill="#8B4" d="M72.4 221.2l-13.2 40.4 43.2 3.6-8.8-87.2" />
      <path d="M619.6 250.8l12.4-43.2-11.2-40-.4 31.6m212.8 61.2l1.6-37.2 17.2 27.2-54 4.8m-494.4-64.4l-20.8-21.2 48.4 84-.4-8m434.8 4l-8 11.2-50 2 24-6.4m-212.8-59.6L506 218l12 21.6 22.8-68" />
      <path d="M790.8 207.2l-5.2-24.4 56.8 58.8 15.6-6.8m-539.6 17.6l4.4-23.6-60 3.6 63.6 11.2m265.6-8l11.2 3.2-43.2 28-15.6-6" />
      <path d="M269.6 251.6l-18.4 2 45.6-78.4-10.8 30.4" />
      <path fill="#4BA" d="M108.8 268.8L76 255.2l4 42.4 19.2 4.8" />
      <path d="M750.8 182.4l-26.4 3.6 2.4-14.4 2 2M712 266.8l14-42.4-13.6-46 1.6 40.8m175.2-10.4l24.4 25.6 27.6 20.4-11.6 10.8m-574.8-18.8l-4.8-15.2-4.8-50.4L368 258" />
      <path fill="#35A" d="M200 296.4l-28.4-28.8 28.8-1.2 14.4 34" />
      <path fill="#8B4" d="M124.8 206.4l-27.6-22-7.6 4.8 3.2 70.4" />
      <path d="M796.8 185.2l46.8-8-44.8 16.8.8 18.4m-420.8 44l16.4 1.2 17.2-44.8 5.6 30.4" />
      <path d="M787.2 201.2l5.6 10 10.8 8-2.4-31.2m-214.8-4.8l-29.2-8.4 46.4 42.4-12.8 31.6m-180.4-14.4l-6-5.6v-53.6l15.6 10" />
      <path d="M512.4 224l10.8-42.4 46-11.2-39.2 28M881.2 246l-.8 15.2-12-71.6-1.6 85.2m-214.4-98l-17.2-2 49.2 26.4-6.4-12.4m252.4-7.6l-1.2-3.6-42.8 36.4 12.4 4.8" />
      <path d="M676 245.6l8.4 2 5.6-40-6.4-14.4m-103.6 54l-49.6 8.4 58.8-4.4 1.2-34.4" />
      <path d="M516.4 232l2-20.4 16.4 45.6-16.8-12.4m-42.8-64l3.6 81.2-14-8.8 5.6-67.6M785.6 244l7.2 11.6 40 4.8-39.6-17.6m-33.2-34l-38.8 18L740 224l18.4-1.6M314 208l11.2 50-37.6-86.8 24 33.6m400-26l-1.6 4.8 6 8.8 66.4-17.2" />
      <path d="M474.8 234.4l-7.6-52.4 57.2 10.8-56-8" />
      <path fill="#4BA" d="M117.6 262.4l43.2 1.2-55.2 30.4-17.2-16.4" />
      <path fill="#38C" d="M141.6 214.4l14.4-32 12.4-12-51.2-20" />
      <path d="M815.6 170.8l19.6 12.8-40.4-3.6-5.2 17.2M514 218.4l.8 16 7.6 14.4 36.8 16" />
      <path fill="#38C" d="M149.6 234l-2.4-89.6 61.6 138.8-67.2-78" />
      <path fill="#483" d="M108.8 147.2l-8.8 18 7.6-2.4 12.8 4.4" />
      <path d="M864.8 259.6l2-28.8 58-50.8-46.8 45.6" />
      <path fill="#4BA" d="M89.2 290.8L70.4 280l41.6-13.2-9.2 30.4" />
      <path d="M926 174l8.8-10.8-52.8 53.6 24.8-8.4m-224.4-3.6l15.6 4.4 49.2 3.6 10.8 14.8" />
      <path d="M726.4 216.4l-15.6 8.4 8-34.8 4.4 8M644 247.6l44.4 3.6-57.6 1.6-49.6 19.6m-221.2-14l60.8-17.6-6.8-56.4-13.2 78.8m510-37.2l-15.6-1.6-1.6-9.6 15.2 30m-16.8-38l-24.4 30.8 58.4-56.8-12.8 2.8M578 184.8l10.8 6-12.4 3.6-21.6-14m284.8 43.2l-42-18 17.2 4 32.8 12.8" />
      <path fill="#483" d="M109.2 228.4l14-48L74 224.8l24-49.6" />
      <path d="M670.8 259.6l14.8-20-42 10.4-31.2 12.4M854 246l-30 20 20-36.8 6 13.6m-570.8-44l1.6 37.2-28 6.8 6.8 12m285.6 6l-4-14.8-20 7.6 53.2-2" />
      <path d="M272 207.6l-20 54 16-.8 2.8-17.6" />
      <path fill="#35A" d="M176.4 232.4l27.6 36.8-27.6 31.6-16-60" />
      <path fill="#8B4" d="M71.6 237.2l42-12-28 41.2L60.4 254" />
      <path d="M293.6 173.6l19.6 37.6 7.6 40.4-20-48.8" />
      <path fill="#35A" d="M201.6 269.6l16 23.2-43.2 2V264" />
      <path d="M629.2 222l-6.8-47.2-.8 50.4-8.4-66m-252.4 52L344 250.8l9.2-84 4 45.2m353.2 50.4l94.8-22-67.2 12-22.4 4.4m-23.2-59.2l-25.6 60 8-12.8 18-25.6" />
      <path d="M841.6 266.4l-51.6-26 12.4 20.8h7.6m40.4-73.6L804 170l30.4 4-44.4 8" />
    </g>
    <g class="SVG--3">
      <path d="M890.4 197.2l30.4 60 24 4-50.4-27.6m-576.8-8l2.4 8.4-62.4 9.6 4.4-14.4m324.4-38.8l9.2 11.2-56.8-28.8 28.4 5.2m96 83.6l-16.4-18-1.6 12.8 44-26.8m22-50.4l11.6 3.2 17.2-8.8-27.2 30m-117.6 38.8l-1.2-25.6-20.8 32-33.6 8m239.6-3.6L766 264.4l-54.4-13.6 86.4 6m-303.6-67.2l-46.8-10 41.6.4 22 5.2" />
      <path fill="#38C" d="M159.6 196.8l18.8 10.8-12-33.2-46.8-25.2" />
      <path fill="#35A" d="M142 219.2l28.4-25.6 21.6 54.8-21.2 8.8" />
      <path d="M488 188.4l-38.8-2.4-12-11.6 63.2 9.6m-249.6 68.4l8 14.8 30.4-93.2-33.2 77.2m460.8-36l15.2-4.8 30 8-28.8 5.6" />
      <path d="M718 260l-10-1.6 20.4-37.2-16.4-12m134.8 61.6l-47.2-106 46 103.6-68.8-11.6m-476-58.4l-12-15.2 25.6 56.4 4.4-29.2m300.8-38l-2 90 58-7.2-44.4-2.4" />
      <path fill="#483" d="M73.6 254.8l-1.2 21.6 13.6 8.4.8-12.4" />
      <path d="M921.2 258l-34.8-42.4-16.4-14 57.2 50.8M334 267.2l-19.6-57.6-24.8-29.2 40.8 77.2M681.2 212l-18-30.4 26.8 23.6-10 39.2" />
      <path fill="#38C" d="M158.8 161.2l8.8 25.2-31.6-20.8-14-15.2" />
      <path d="M616.4 179.6l20-1.2 41.6.8-56 8" />
      <path d="M620 182l42-1.6 13.6 6.4-55.6 1.6" />
      <path fill="#483" d="M100.4 168.4l26 26 3.2-4-16-26.4" />
      <path d="M720.8 173.2l-7.2 79.2 21.2 9.6-24.4-44" />
      <path fill="#4BA" d="M62.4 265.6l38.8 15.6 19.6-16-30.4-3.2" />
      <path fill="#35A" d="M185.6 234.4l15.2 50-3.2 18.4-20.4-14.4" />
      <path d="M327.6 258l-4 5.6-14.4-36.4-4-24.8" />
      <path fill="#38C" d="M127.6 176l18.4 34 22.8-14.4-12.4-41.2" />
      <path d="M869.2 234l9.6 33.6-2.8-94-4.8 4.8" />
      <path fill="#483" d="M89.2 195.6l-6.8 33.2 45.2-36.4L118 208" />
      <path d="M463.6 246.8l2 6.8 1.2.4 5.6-65.2" />
      <path fill="#8B4" d="M58.8 256.4l34 4.8 18.4-26.8-13.2 2" />
      <path d="M523.6 216l4.8 37.6 32 12.4-44.8-26.8" />
      <path fill="#4BA" d="M123.2 266.8l59.2-10L78 283.2l44.8-15.2" />
      <path d="M508 182l-54 7.2-11.2-18-6.4 17.2m-26.8 10l9.6-29.6-5.6 27.2-10.8 65.2m-28.4 7.2l-26-41.2-2.8-55.2 14.8 66.8" />
      <path fill="#8B4" d="M64 255.2l29.2-44.8-2.4 46.8-25.6 8.4" />
      <path fill="#35A" d="M194.4 256.8l-13.6 22.4-21.6-58.4 30.8 8.4" />
      <path fill="#35A" d="M163.2 270.4l44 28.8 1.2-10.8-15.2-14" />
      <path d="M852 224.4l-8.8 5.6-49.6-19.2 27.6.4" />
      <path fill="#483" d="M122 204.8l-4.4-52-30 74.8 32.4-56.4" />
      <path d="M706 263.6l54.4-18.4-1.6 1.6 14.8 3.2m159.6 11.6l-23.2-32-3.2 3.2-16.4-6.8M348 171.6l13.2 24-.4 52-13.2-18.8m276.8-52l7.2 80.4-4.8-3.2-9.2 8.8m265.2-95.2l-13.2 58 7.6-37.6 4 72" />
      <path d="M718 230l-2 33.6 6.4-2.8 3.2-40.4" />
      <path fill="#35A" d="M205.6 281.6L166.8 230l16 47.2 37.2 23.2" />
      <path d="M642 175.2l-22.8 21.2 4.8 26 2.4-47.6M474.8 260l-7.6-50 7.2 34 4 10.4" />
      <path fill="#38C" d="M146.8 152.8L148 188l-15.2-24-20.8-9.6" />
      <path d="M708.4 177.6l-.8 65.6v-77.6l4.4 46.8" />
      <path fill="#4BA" d="M97.2 288.4l40.4-26.8-47.6 5.6 23.6 9.2" />
      <path d="M774.8 253.2l-68-6.8 45.2 15.2-18.4-16.8m-189.2 8.8l38.8-2.8-15.6 9.2h-29.2" />
      <path fill="#483" d="M116 152l9.2 28-25.2-11.2.4-16" />
      <path d="M619.6 190.4l2.4-2 4.4 32.4-6.4-25.2m-80 65.2l58-28.8-30 26.4-36.4-11.2" />
      <path fill="#38C" d="M134.4 150.4l-22-.8 16.4 24.4 21.6-12" />
      <path fill="#8B4" d="M72.8 226.4L62 246.8l54.8-43.6-12.4 39.6" />
      <path fill="#483" d="M102.4 194.4l21.2 4.4-27.2 50 12.8-14.4" />
      <path fill="#483" d="M105.2 168l6 40-14-16.4L83.6 202" />
      <path fill="#38C" d="M128.4 185.6l43.2 37.2-10.8-48.4-7.6 56" />
      <path fill="#4BA" d="M106 264.8l-28 24.8 5.2-20.8-.4-3.6" />
      <path d="M512.8 202.8l27.6-20.4-24.8 46.4 2.4-3.2m267.2 28.8l-60-5.2-3.6 6.4 120-3.2" />
      <path d="M510.8 196.8l6 26.4 9.6 23.2-16-27.6m370.4-11.6l-3.2-5.6 25.6 33.2 11.2.4" />
      <path d="M548.4 170.8l-41.2 48.8 16.8-32.8 34-15.6m12.8 83.6l28-24-12-9.6-5.6 13.2m242.4 31.2l16.4-44.8-6.8 44-47.2-20m-75.2 10l2.8-49.6-.8 19.6 21.6 35.2m-480 2.8l21.6-38.4 15.2-38-16 28.4m174.8-30l-18.4-1.6 43.6-4.4 1.6 9.6M877.2 242l-10-32 13.6 47.2V200M418 239.2l-27.6 26 22.8-39.6.8-7.6m422.8-40l-112.4 9.6 22.4-5.2 101.2 3.2m-555.6-13.2l31.2 61.2 8.4 23.2-18.8-17.2" />
    </g>
  </g>
</svg>