<svg version="1.1" viewBox="0 0 1024 448" width="1024" height="448" xmlns="http://www.w3.org/2000/svg">
  <g fill-opacity=".5">
    <g class="SVG--1">
      <path fill="#110A0D" d="M726.4 157.6l2 108-50.8-79.2-4.4 67.6" />
      <path fill="#060002" d="M824.4 262.4l131.2-109.6-87.2 90.8-183.6 13.6" />
      <path fill="#2A2426" d="M458.8 166.4l9.2 128.8 14.4-108L612 190" />
      <path d="M635.2 170.8l-14.4 7.6-4 93.6 8-9.2" />
      <path fill="#161012" d="M872.8 174.4L859.2 200l92 80-73.6-93.2" />
      <path d="M402.4 229.6l8.8-68 10.8 62.8-18.4 46.8" />
      <path fill="#3F9421" d="M69.2 271.2l19.6-102.4 50.4-19.6-48 151.6" />
      <path fill="#292225" d="M870.4 258L784 203.2l26.4-36 3.6 29.6" />
      <path fill="#040001" d="M597.6 178l-63.6.4-9.2 82.4-15.6-67.2" />
      <path fill="#231C1F" d="M590.8 256l-86-21.6 52 29.6 54.8-72" />
      <path d="M362 270.8l-1.6-95.2-12.8-2-1.6 56M276.8 179.6l15.2 15.2 42.8 78.8-34.4-103.2" />
      <path fill="#090608" d="M591.2 236.4l-57.2 46 70-70.8-19.6-23.6" />
      <path fill="#110B0E" d="M670.8 259.2l-4.4-10-43.2-1.6-10.8 19.6" />
      <path fill="#302B2E" d="M394.8 136.4l26.8 96.4-76 28.8 70.8-5.2" />
      <path fill="#0F0D0F" d="M482 238.4l-7.6 46.8-10-87.2 10-18" />
      <path d="M720 243.6l56.4 15.6-68.4-4.4 17.6-87.6" />
      <path fill="#2F2D2F" d="M946 180l-30.8-12.4-38.4 86.8-18-29.6" />
      <path fill="#21988D" d="M78 272.4l-12.4-11.6 87.6 6-66 42" />
      <path fill="#030003" d="M372.8 178.4l67.2-1.6 17.2 16.4 58.8-18" />
      <path d="M272.8 194.8l3.2-3.2-22.8 86.8 40.4-94.8" />
      <path fill="#171316" d="M650 182.8l29.6 23.6 13.6 48.8-6-66.8" />
      <path fill="#120F11" d="M750 220l-23.6-15.6-62 54.8-38-2" />
      <path fill="#171215" d="M573.6 174l30 40-71.2-42 23.2 5.2" />
      <path fill="#0F0C0E" d="M842 223.6l-50.4-.8 20.8-49.2-26.8 20.8" />
      <path fill="#100C0E" d="M547.6 261.2l-22.8-8.8-20.4-36 12-5.6" />
      <path fill="#3141A2" d="M156.8 255.6l26-34.8 36 78.8-35.6.8" />
      <path fill="#85B829" d="M63.2 254l35.2 5.6 14-27.6-15.6-64.4" />
      <path d="M301.6 174l-58.4 104.4 50.4-104.8 30 87.2" />
      <path fill="#1B1A1D" d="M279.6 196.4L254 257.6l79.6-43.6-57.6 17.6" />
      <path d="M880 191.6l-5.2-24.8-8.4 52 10.8 53.6M528.4 258.8l66.4-21.6-6-46-8.8 67.6M815.2 251.6l34.4-2-16.8-44.4 4.8 55.6" />
      <path fill="#07A0FC" d="M129.2 181.6l-8-29.2 37.2-4-2.8 22" />
      <path fill="#292528" d="M335.6 204l12.4 2.8 1.6-48.4 18.8 110" />
      <path fill="#060305" d="M413.6 173.2l10.8 7.2-19.6 66 6-39.6" />
      <path fill="#191719" d="M344.4 237.6l71.6 23.2v-64L388.8 268" />
      <path fill="#0B080A" d="M946.4 262.4l-36.4-5.2 6.4-1.2-28.4-38" />
      <path fill="#35793E" d="M131.2 190.8L89.6 202l1.2-22 23.6-38.4" />
      <path fill="#020103" d="M722 213.6l-1.2-39.6-12 20.8 14.4 74.4" />
      <path fill="#232123" d="M889.6 227.6l50.4-53.2-59.6 37.2-12.8-25.6" />
      <path fill="#0B080A" d="M828.4 256.8l-118.8-10 18.8 10.4 74.4-12.8" />
      <path d="M327.2 263.6l10.4-12.4-.4 11.2-28.8-61.2" />
      <path fill="#333233" d="M724.4 182.8L673.2 262l8.4-52 45.2 16.8" />
      <path fill="#3FAC9F" d="M130 278.8l23.6-15.6-16-2.8L64.4 278" />
      <path fill="#252325" d="M419.6 220.4l-3.6-18-12.4-41.6 7.6 95.6" />
      <path fill="#222123" d="M766 167.2l-5.2 2.4 15.2 20-68.8-3.6" />
      <path d="M839.6 181.2l-10-8.4-34.8 5.2 48 11.2" />
      <path fill="#2D2C2D" d="M606 208.4l-40.4-36 3.2 3.2 22 61.2" />
      <path fill="#010002" d="M465.2 183.6l7.6-6 8.8 32.8L474 248" />
      <path fill="#343033" d="M618.4 210l-3.2 58.4 22.4-38-28-27.2" />
      <path fill="#040104" d="M505.2 232.8l16.4-35.6-10.8 2 32.4-20" />
      <path fill="#0A080A" d="M696 230l-44.4 26.4 12-12 29.2-26" />
      <path fill="#191518" d="M877.2 262l-12-101.6 2 98.8 3.2.8" />
      <path fill="#151315" d="M364.8 257.6l34.8-8-22 18.8-38.8-72.4" />
      <path d="M619.2 248l38.4 14.8-28.4-14.8-4.4-48.4" />
      <path fill="#131214" d="M307.6 236l6-11.6-45.2 11.6-22.4 14" />
      <path fill="#2393D6" d="M174.4 211.2l-9.2-51.2-55.2-6.8 36 58" />
      <path fill="#020003" d="M553.2 180.4L592 192l6.8 40.8-36.4-58.4" />
      <path fill="#100E0F" d="M426.4 173.2l53.2 4L502 186l-54.8 2.4" />
      <path fill="#0F0E10" d="M856.4 230l-17.6 6.8-44-29.2-5.6-5.6" />
      <path fill="#375FB2" d="M178.4 305.6l-43.6-115.2 53.2 64.4 25.2 37.2" />
    </g>
    <g class="SVG--2">
      <path fill="#326E1F" d="M100 155.6l-1.6 40.8 26.8 4-16.8-47.6" />
      <path fill="#100E10" d="M710 215.2l56.8-1.6-45.6 15.2-7.6 22" />
      <path fill="#0C0A0C" d="M686.8 199.6l-69.6-22 51.6 3.6 30 25.2" />
      <path fill="#121012" d="M348.8 193.2l-3.6 4.8 18 69.6-6.8-89.6" />
      <path fill="#0A090B" d="M479.2 182.8l-13.6 34.4v41.2l5.2.4" />
      <path fill="#131113" d="M928.8 175.6L916 192l-25.6 46.4 25.2-62" />
      <path fill="#1A171A" d="M630.4 274.4l-1.6-72.8-14 22.4 20 22" />
      <path d="M873.2 209.6l-6.4-10.4 47.6 38.4 14 17.2" />
      <path fill="#1B191C" d="M295.6 197.6l8.8-18.8 20 84.8 16.8-4" />
      <path d="M871.2 260.4l8-86-14 9.2 6.8 28.8" />
      <path fill="#83B952" d="M72.4 221.2l-13.2 40.4 43.2 3.6-8.8-87.2" />
      <path fill="#070508" d="M619.6 250.8l12.4-43.2-11.2-40-.4 31.6" />
      <path d="M833.2 260.4l1.6-37.2 17.2 27.2-54 4.8" />
      <path fill="#111012" d="M303.6 190.8l-20.8-21.2 48.4 84-.4-8" />
      <path fill="#0B070A" d="M765.6 249.6l-8 11.2-50 2 24-6.4" />
      <path fill="#1D1B1D" d="M518.8 196.8L506 218l12 21.6 22.8-68" />
      <path fill="#1B1A1C" d="M790.8 207.2l-5.2-24.4 56.8 58.8 15.6-6.8" />
      <path fill="#000001" d="M318.4 252.4l4.4-23.6-60 3.6 63.6 11.2" />
      <path fill="#343234" d="M592 235.6l11.2 3.2-43.2 28-15.6-6" />
      <path fill="#1B191C" d="M269.6 251.6l-18.4 2 45.6-78.4-10.8 30.4" />
      <path fill="#3C8E85" d="M108.8 268.8L76 255.2l4 42.4 19.2 4.8" />
      <path fill="#000001" d="M750.8 182.4l-26.4 3.6 2.4-14.4 2 2" />
      <path fill="#050406" d="M712 266.8l14-42.4-13.6-46 1.6 40.8" />
      <path fill="#29282A" d="M889.2 208.8l24.4 25.6 27.6 20.4-11.6 10.8" />
      <path fill="#060507" d="M354.8 246.8l-4.8-15.2-4.8-50.4L368 258" />
      <path fill="#3446A1" d="M200 296.4l-28.4-28.8 28.8-1.2 14.4 34" />
      <path fill="#6BA340" d="M124.8 206.4l-27.6-22-7.6 4.8 3.2 70.4" />
      <path fill="#121214" d="M796.8 185.2l46.8-8-44.8 16.8.8 18.4" />
      <path fill="#000001" d="M378.8 256.4l16.4 1.2 17.2-44.8 5.6 30.4" />
      <path fill="#171618" d="M787.2 201.2l5.6 10 10.8 8-2.4-31.2" />
      <path fill="#201F21" d="M586.4 183.2l-29.2-8.4 46.4 42.4-12.8 31.6" />
      <path fill="#1F1C1E" d="M410.4 234.4l-6-5.6v-53.6l15.6 10" />
      <path fill="#201E20" d="M512.4 224l10.8-42.4 46-11.2-39.2 28" />
      <path fill="#1F1D1F" d="M881.2 246l-.8 15.2-12-71.6-1.6 85.2" />
      <path d="M652.4 176.8l-17.2-2 49.2 26.4-6.4-12.4" />
      <path fill="#1F1E20" d="M930.4 181.2l-1.2-3.6-42.8 36.4 12.4 4.8" />
      <path d="M676 245.6l8.4 2 5.6-40-6.4-14.4M580 247.2l-49.6 8.4 58.8-4.4 1.2-34.4" />
      <path fill="#080709" d="M516.4 232l2-20.4 16.4 45.6-16.8-12.4M475.2 180.8l3.6 81.2-14-8.8 5.6-67.6" />
      <path d="M785.6 244l7.2 11.6 40 4.8-39.6-17.6" />
      <path fill="#4B484A" d="M760 208.8l-38.8 18L740 224l18.4-1.6" />
      <path fill="#060507" d="M314 208l11.2 50-37.6-86.8 24 33.6" />
      <path fill="#1C1B1D" d="M711.6 178.8l-1.6 4.8 6 8.8 66.4-17.2" />
      <path fill="#333234" d="M474.8 234.4l-7.6-52.4 57.2 10.8-56-8" />
      <path fill="#4CB6A4" d="M117.6 262.4l43.2 1.2-55.2 30.4-17.2-16.4" />
      <path fill="#329CDD" d="M141.6 214.4l14.4-32 12.4-12-51.2-20" />
      <path fill="#040305" d="M815.6 170.8l19.6 12.8-40.4-3.6-5.2 17.2" />
      <path fill="#1D1C1E" d="M514 218.4l.8 16 7.6 14.4 36.8 16" />
      <path fill="#2E74C2" d="M149.6 234l-2.4-89.6 61.6 138.8-67.2-78" />
      <path fill="#2B6D3D" d="M108.8 147.2l-8.8 18 7.6-2.4 12.8 4.4" />
      <path fill="#171618" d="M864.8 259.6l2-28.8 58-50.8-46.8 45.6" />
      <path fill="#328D8A" d="M89.2 290.8L70.4 280l41.6-13.2-9.2 30.4" />
      <path fill="#2F2E30" d="M926 174l8.8-10.8-52.8 53.6 24.8-8.4" />
      <path fill="#363435" d="M682.4 204.8l15.6 4.4 49.2 3.6 10.8 14.8" />
      <path fill="#09080B" d="M726.4 216.4l-15.6 8.4 8-34.8 4.4 8" />
      <path fill="#2E2C2E" d="M644 247.6l44.4 3.6-57.6 1.6-49.6 19.6" />
      <path fill="#1B1A1C" d="M360 258.4l60.8-17.6-6.8-56.4-13.2 78.8" />
      <path fill="#1E1C1F" d="M910.8 226l-15.6-1.6-1.6-9.6 15.2 30" />
      <path fill="#131214" d="M892 206.8l-24.4 30.8 58.4-56.8-12.8 2.8" />
      <path fill="#141415" d="M578 184.8l10.8 6-12.4 3.6-21.6-14" />
      <path fill="#191719" d="M839.6 223.6l-42-18 17.2 4 32.8 12.8" />
      <path fill="#57913C" d="M109.2 228.4l14-48L74 224.8l24-49.6" />
      <path fill="#292729" d="M670.8 259.6l14.8-20-42 10.4-31.2 12.4" />
      <path fill="#1E1B1E" d="M854 246l-30 20 20-36.8 6 13.6" />
      <path fill="#0D0C0E" d="M279.2 198.8l1.6 37.2-28 6.8 6.8 12" />
      <path fill="#070608" d="M545.2 260.8l-4-14.8-20 7.6 53.2-2" />
      <path fill="#262426" d="M272 207.6l-20 54 16-.8 2.8-17.6" />
      <path fill="#385BAC" d="M176.4 232.4l27.6 36.8-27.6 31.6-16-60" />
      <path fill="#7CBA44" d="M71.6 237.2l42-12-28 41.2L60.4 254" />
      <path fill="#0D0C0E" d="M293.6 173.6l19.6 37.6 7.6 40.4-20-48.8" />
      <path fill="#3C52A7" d="M201.6 269.6l16 23.2-43.2 2V264" />
      <path fill="#323133" d="M629.2 222l-6.8-47.2-.8 50.4-8.4-66" />
      <path fill="#29282A" d="M360.8 211.2L344 250.8l9.2-84 4 45.2" />
      <path fill="#3D3A3C" d="M710.4 262.4l94.8-22-67.2 12-22.4 4.4" />
      <path fill="#110F12" d="M692.4 197.6l-25.6 60 8-12.8 18-25.6" />
      <path fill="#333133" d="M841.6 266.4l-51.6-26 12.4 20.8h7.6" />
      <path fill="#393739" d="M850.4 187.6L804 170l30.4 4-44.4 8" />
    </g>
    <g class="SVG--3">
      <path fill="#262527" d="M890.4 197.2l30.4 60 24 4-50.4-27.6" />
      <path fill="#19181A" d="M317.6 225.6l2.4 8.4-62.4 9.6 4.4-14.4" />
      <path fill="#181719" d="M586.4 190.4l9.2 11.2-56.8-28.8 28.4 5.2" />
      <path fill="#1D1C1E" d="M663.2 261.6l-16.4-18-1.6 12.8 44-26.8" />
      <path fill="#141416" d="M711.2 179.2l11.6 3.2 17.2-8.8-27.2 30" />
      <path fill="#171618" d="M595.2 242.4l-1.2-25.6-20.8 32-33.6 8" />
      <path fill="#373637" d="M779.2 253.2L766 264.4l-54.4-13.6 86.4 6" />
      <path fill="#19181A" d="M494.4 189.6l-46.8-10 41.6.4 22 5.2" />
      <path fill="#3497DB" d="M159.6 196.8l18.8 10.8-12-33.2-46.8-25.2" />
      <path fill="#316EBA" d="M142 219.2l28.4-25.6 21.6 54.8-21.2 8.8" />
      <path fill="#0F0D10" d="M488 188.4l-38.8-2.4-12-11.6 63.2 9.6" />
      <path fill="#1B1A1C" d="M250.8 252.4l8 14.8 30.4-93.2-33.2 77.2" />
      <path fill="#252426" d="M716.8 215.2l15.2-4.8 30 8-28.8 5.6" />
      <path fill="#151416" d="M718 260l-10-1.6 20.4-37.2-16.4-12" />
      <path fill="#C6C6C6" d="M846.8 270.8l-47.2-106 46 103.6-68.8-11.6" />
      <path fill="#2E2D2F" d="M300.8 198.4l-12-15.2 25.6 56.4 4.4-29.2" />
      <path fill="#131314" d="M619.6 172.4l-2 90 58-7.2-44.4-2.4" />
      <path fill="#368073" d="M73.6 254.8l-1.2 21.6 13.6 8.4.8-12.4" />
      <path fill="#0B0A0C" d="M921.2 258l-34.8-42.4-16.4-14 57.2 50.8" />
      <path fill="#0E0D0F" d="M334 267.2l-19.6-57.6-24.8-29.2 40.8 77.2" />
      <path fill="#0E0C0F" d="M681.2 212l-18-30.4 26.8 23.6-10 39.2" />
      <path fill="#2899DD" d="M158.8 161.2l8.8 25.2-31.6-20.8-14-15.2" />
      <path fill="#0D0C0F" d="M616.4 179.6l20-1.2 41.6.8-56 8" />
      <path fill="#0C0B0D" d="M620 182l42-1.6 13.6 6.4-55.6 1.6" />
      <path fill="#357636" d="M100.4 168.4l26 26 3.2-4-16-26.4" />
      <path fill="#0E0D0F" d="M720.8 173.2l-7.2 79.2 21.2 9.6-24.4-44" />
      <path fill="#3C9A91" d="M62.4 265.6l38.8 15.6 19.6-16-30.4-3.2" />
      <path fill="#3A58AA" d="M185.6 234.4l15.2 50-3.2 18.4-20.4-14.4" />
      <path fill="#1F1E20" d="M327.6 258l-4 5.6-14.4-36.4-4-24.8" />
      <path fill="#2B8ACE" d="M127.6 176l18.4 34 22.8-14.4-12.4-41.2" />
      <path fill="#1B191C" d="M869.2 234l9.6 33.6-2.8-94-4.8 4.8" />
      <path fill="#639C40" d="M89.2 195.6l-6.8 33.2 45.2-36.4L118 208" />
      <path fill="#1B1A1C" d="M463.6 246.8l2 6.8 1.2.4 5.6-65.2" />
      <path fill="#83BD47" d="M58.8 256.4l34 4.8 18.4-26.8-13.2 2" />
      <path fill="#181719" d="M523.6 216l4.8 37.6 32 12.4-44.8-26.8" />
      <path fill="#4DA8A8" d="M123.2 266.8l59.2-10L78 283.2l44.8-15.2" />
      <path fill="#272628" d="M508 182l-54 7.2-11.2-18-6.4 17.2" />
      <path fill="#1C1B1D" d="M409.6 198.4l9.6-29.6-5.6 27.2-10.8 65.2" />
      <path fill="#1E1C1E" d="M374.4 268.4l-26-41.2-2.8-55.2 14.8 66.8" />
      <path fill="#77B245" d="M64 255.2l29.2-44.8-2.4 46.8-25.6 8.4" />
      <path fill="#3A66B3" d="M194.4 256.8l-13.6 22.4-21.6-58.4 30.8 8.4" />
      <path fill="#3B54AA" d="M163.2 270.4l44 28.8 1.2-10.8-15.2-14" />
      <path fill="#1E1D1F" d="M852 224.4l-8.8 5.6-49.6-19.2 27.6.4" />
      <path fill="#458843" d="M122 204.8l-4.4-52-30 74.8 32.4-56.4" />
      <path fill="#272527" d="M706 263.6l54.4-18.4-1.6 1.6 14.8 3.2" />
      <path fill="#151416" d="M933.2 261.6l-23.2-32-3.2 3.2-16.4-6.8" />
      <path fill="#100E10" d="M348 171.6l13.2 24-.4 52-13.2-18.8" />
      <path fill="#121113" d="M624.4 176.8l7.2 80.4-4.8-3.2-9.2 8.8" />
      <path fill="#6E6C6E" d="M882.8 167.6l-13.2 58 7.6-37.6 4 72" />
      <path fill="#232224" d="M718 230l-2 33.6 6.4-2.8 3.2-40.4" />
      <path fill="#3B5CAE" d="M205.6 281.6L166.8 230l16 47.2 37.2 23.2" />
      <path fill="#09080B" d="M642 175.2l-22.8 21.2 4.8 26 2.4-47.6" />
      <path fill="#0E0D0F" d="M474.8 260l-7.6-50 7.2 34 4 10.4" />
      <path fill="#279DDB" d="M146.8 152.8L148 188l-15.2-24-20.8-9.6" />
      <path fill="#9E9E9F" d="M708.4 177.6l-.8 65.6v-77.6l4.4 46.8" />
      <path fill="#4BB4A3" d="M97.2 288.4l40.4-26.8-47.6 5.6 23.6 9.2" />
      <path fill="#343234" d="M774.8 253.2l-68-6.8 45.2 15.2-18.4-16.8" />
      <path fill="#080609" d="M544.4 253.6l38.8-2.8-15.6 9.2h-29.2" />
      <path fill="#2C744D" d="M116 152l9.2 28-25.2-11.2.4-16" />
      <path fill="#030204" d="M619.6 190.4l2.4-2 4.4 32.4-6.4-25.2" />
      <path fill="#161517" d="M540 260.8l58-28.8-30 26.4-36.4-11.2" />
      <path fill="#37A6DF" d="M134.4 150.4l-22-.8 16.4 24.4 21.6-12" />
      <path fill="#77AF49" d="M72.8 226.4L62 246.8l54.8-43.6-12.4 39.6" />
      <path fill="#629C3E" d="M102.4 194.4l21.2 4.4-27.2 50 12.8-14.4" />
      <path fill="#4A863D" d="M105.2 168l6 40-14-16.4L83.6 202" />
      <path fill="#3481C4" d="M128.4 185.6l43.2 37.2-10.8-48.4-7.6 56" />
      <path fill="#318A86" d="M106 264.8l-28 24.8 5.2-20.8-.4-3.6" />
      <path fill="#0C0B0D" d="M512.8 202.8l27.6-20.4-24.8 46.4 2.4-3.2" />
      <path fill="#1D1C1E" d="M785.2 254.4l-60-5.2-3.6 6.4 120-3.2" />
      <path fill="#282728" d="M510.8 196.8l6 26.4 9.6 23.2-16-27.6" />
      <path fill="#1E1D1F" d="M880.8 207.2l-3.2-5.6 25.6 33.2 11.2.4" />
      <path fill="#2E2D2F" d="M548.4 170.8l-41.2 48.8 16.8-32.8 34-15.6" />
      <path fill="#201F20" d="M570.8 254.8l28-24-12-9.6-5.6 13.2" />
      <path fill="#292729" d="M823.6 265.6l16.4-44.8-6.8 44-47.2-20" />
      <path fill="#111113" d="M710.8 254.8l2.8-49.6-.8 19.6 21.6 35.2" />
      <path fill="#060507" d="M254.4 262.8l21.6-38.4 15.2-38-16 28.4" />
      <path fill="#101011" d="M450 184.8l-18.4-1.6 43.6-4.4 1.6 9.6" />
      <path fill="#383638" d="M877.2 242l-10-32 13.6 47.2V200" />
      <path fill="#131214" d="M418 239.2l-27.6 26 22.8-39.6.8-7.6" />
      <path fill="#201F21" d="M836.8 178l-112.4 9.6 22.4-5.2 101.2 3.2" />
      <path fill="#100F11" d="M292.4 172.4l31.2 61.2 8.4 23.2-18.8-17.2" />
    </g>
  </g>
</svg>