<svg version="1.1" viewBox="0 0 1024 448" width="1024" height="448" xmlns="http://www.w3.org/2000/svg">
  <g fill-opacity=".5">
    <path fill="#483" d="M100 155.6l-1.6 40.8 26.8 4-16.8-47.6" />
    <path d="M710 215.2l56.8-1.6-45.6 15.2-7.6 22m-26.8-51.2l-69.6-22 51.6 3.6 30 25.2m-350-13.2l-3.6 4.8 18 69.6-6.8-89.6m122.8 4.8l-13.6 34.4v41.2l5.2.4m458-83.2L916 192l-25.6 46.4 25.2-62m-285.2 98l-1.6-72.8-14 22.4 20 22" />
    <path d="M873.2 209.6l-6.4-10.4 47.6 38.4 14 17.2m-632.8-57.2l8.8-18.8 20 84.8 16.8-4" />
    <path d="M871.2 260.4l8-86-14 9.2 6.8 28.8" />
    <path fill="#8B4" d="M72.4 221.2l-13.2 40.4 43.2 3.6-8.8-87.2" />
    <path d="M619.6 250.8l12.4-43.2-11.2-40-.4 31.6m212.8 61.2l1.6-37.2 17.2 27.2-54 4.8m-494.4-64.4l-20.8-21.2 48.4 84-.4-8m434.8 4l-8 11.2-50 2 24-6.4m-212.8-59.6L506 218l12 21.6 22.8-68" />
    <path d="M790.8 207.2l-5.2-24.4 56.8 58.8 15.6-6.8m-539.6 17.6l4.4-23.6-60 3.6 63.6 11.2m265.6-8l11.2 3.2-43.2 28-15.6-6" />
    <path d="M269.6 251.6l-18.4 2 45.6-78.4-10.8 30.4" />
    <path fill="#4BA" d="M108.8 268.8L76 255.2l4 42.4 19.2 4.8" />
    <path d="M750.8 182.4l-26.4 3.6 2.4-14.4 2 2M712 266.8l14-42.4-13.6-46 1.6 40.8m175.2-10.4l24.4 25.6 27.6 20.4-11.6 10.8m-574.8-18.8l-4.8-15.2-4.8-50.4L368 258" />
    <path fill="#35A" d="M200 296.4l-28.4-28.8 28.8-1.2 14.4 34" />
    <path fill="#8B4" d="M124.8 206.4l-27.6-22-7.6 4.8 3.2 70.4" />
    <path d="M796.8 185.2l46.8-8-44.8 16.8.8 18.4m-420.8 44l16.4 1.2 17.2-44.8 5.6 30.4" />
    <path d="M787.2 201.2l5.6 10 10.8 8-2.4-31.2m-214.8-4.8l-29.2-8.4 46.4 42.4-12.8 31.6m-180.4-14.4l-6-5.6v-53.6l15.6 10" />
    <path d="M512.4 224l10.8-42.4 46-11.2-39.2 28M881.2 246l-.8 15.2-12-71.6-1.6 85.2m-214.4-98l-17.2-2 49.2 26.4-6.4-12.4m252.4-7.6l-1.2-3.6-42.8 36.4 12.4 4.8" />
    <path d="M676 245.6l8.4 2 5.6-40-6.4-14.4m-103.6 54l-49.6 8.4 58.8-4.4 1.2-34.4" />
    <path d="M516.4 232l2-20.4 16.4 45.6-16.8-12.4m-42.8-64l3.6 81.2-14-8.8 5.6-67.6M785.6 244l7.2 11.6 40 4.8-39.6-17.6m-33.2-34l-38.8 18L740 224l18.4-1.6M314 208l11.2 50-37.6-86.8 24 33.6m400-26l-1.6 4.8 6 8.8 66.4-17.2" />
    <path d="M474.8 234.4l-7.6-52.4 57.2 10.8-56-8" />
    <path fill="#4BA" d="M117.6 262.4l43.2 1.2-55.2 30.4-17.2-16.4" />
    <path fill="#38C" d="M141.6 214.4l14.4-32 12.4-12-51.2-20" />
    <path d="M815.6 170.8l19.6 12.8-40.4-3.6-5.2 17.2M514 218.4l.8 16 7.6 14.4 36.8 16" />
    <path fill="#38C" d="M149.6 234l-2.4-89.6 61.6 138.8-67.2-78" />
    <path fill="#483" d="M108.8 147.2l-8.8 18 7.6-2.4 12.8 4.4" />
    <path d="M864.8 259.6l2-28.8 58-50.8-46.8 45.6" />
    <path fill="#4BA" d="M89.2 290.8L70.4 280l41.6-13.2-9.2 30.4" />
    <path d="M926 174l8.8-10.8-52.8 53.6 24.8-8.4m-224.4-3.6l15.6 4.4 49.2 3.6 10.8 14.8" />
    <path d="M726.4 216.4l-15.6 8.4 8-34.8 4.4 8M644 247.6l44.4 3.6-57.6 1.6-49.6 19.6m-221.2-14l60.8-17.6-6.8-56.4-13.2 78.8m510-37.2l-15.6-1.6-1.6-9.6 15.2 30m-16.8-38l-24.4 30.8 58.4-56.8-12.8 2.8M578 184.8l10.8 6-12.4 3.6-21.6-14m284.8 43.2l-42-18 17.2 4 32.8 12.8" />
    <path fill="#483" d="M109.2 228.4l14-48L74 224.8l24-49.6" />
    <path d="M670.8 259.6l14.8-20-42 10.4-31.2 12.4M854 246l-30 20 20-36.8 6 13.6m-570.8-44l1.6 37.2-28 6.8 6.8 12m285.6 6l-4-14.8-20 7.6 53.2-2" />
    <path d="M272 207.6l-20 54 16-.8 2.8-17.6" />
    <path fill="#35A" d="M176.4 232.4l27.6 36.8-27.6 31.6-16-60" />
    <path fill="#8B4" d="M71.6 237.2l42-12-28 41.2L60.4 254" />
    <path d="M293.6 173.6l19.6 37.6 7.6 40.4-20-48.8" />
    <path fill="#35A" d="M201.6 269.6l16 23.2-43.2 2V264" />
    <path d="M629.2 222l-6.8-47.2-.8 50.4-8.4-66m-252.4 52L344 250.8l9.2-84 4 45.2m353.2 50.4l94.8-22-67.2 12-22.4 4.4m-23.2-59.2l-25.6 60 8-12.8 18-25.6" />
    <path d="M841.6 266.4l-51.6-26 12.4 20.8h7.6m40.4-73.6L804 170l30.4 4-44.4 8" />
  </g>
</svg>