<svg version="1.1" viewBox="0 0 1024 448" width="1024" height="448" xmlns="http://www.w3.org/2000/svg">
  <g fill-opacity=".5">
    <path d="M635 171l-14 7-4 94 8-9m248-89l-14 26 92 80-73-93m-476 43l9-68 11 62-18 47" />
    <path fill="#483" d="M69 271l20-102 50-20-48 152" />
    <path d="M870 258l-86-55 26-36 4 30m-216-19h-64l-9 83-16-67" />
    <path d="M591 256l-86-22 52 30 55-72m-250 79l-2-95-12-2-2 56m-69-50l15 15 43 79-35-104" />
    <path d="M591 236l-57 46 70-70-20-24m87 71l-5-10-43-1-11 19M395 136l27 97-76 29 70-6m66-18l-8 47-10-87 10-18m246 64l56 15-68-4 18-88m220 13l-31-12-38 86-18-29" />
    <path fill="#4BA" d="M78 272l-12-11 87 6-66 42" />
    <path d="M373 178l67-1 17 16 59-18m-243 20l3-3-23 86 41-94m356-1l30 23 13 49-6-67" />
    <path d="M750 220l-24-16-62 55-38-2m-52-83l30 40-72-42 24 5m286 47l-50-1 20-49-26 20m-238 67l-23-9-21-36 12-5" />
    <path fill="#35A" d="M157 256l26-35 36 79h-36" />
    <path fill="#8B4" d="M63 254l35 6 14-28-15-64" />
    <path d="M302 174l-59 104 51-104 30 87" />
    <path d="M280 196l-26 62 80-44-58 18m604-40l-5-25-9 52 11 53m-349-13l67-22-6-46-9 68m235-7l35-2-17-45 5 56" />
    <path fill="#38C" d="M129 182l-8-30 37-4-2 22" />
    <path d="M336 204l12 3 2-49 18 110m46-95l10 7-19 66 6-39" />
    <path d="M344 238l72 23v-64l-27 71m557-6l-36-5 6-1-28-38" />
    <path fill="#483" d="M131 191l-41 11 1-22 23-38" />
    <path d="M722 214l-1-40-12 21 14 74m167-41l50-54-60 38-12-26" />
    <path d="M828 257l-118-10 18 10 75-13m-476 20l11-13-1 11-29-61m416-18l-51 79 9-52 45 17" />
    <path fill="#4BA" d="M130 279l24-16-16-3-74 18" />
    <path d="M420 220l-4-18-12-41 7 95m355-89l-5 3 15 20-69-4m133-5l-10-8-35 5 48 11m-237 19l-40-36 3 4 22 61m-126-53l8-6 9 32-8 38m144-38l-3 58 23-38-28-27m-105 30l17-36-11 2 32-20m153 51l-44 26 12-12 29-26m184 44l-12-102 2 99 3 1m-505-2l35-8-22 18-39-72" />
    <path d="M619 248l39 15-29-15-4-48m-317 36l6-12-46 12-22 14" />
    <path fill="#38C" d="M174 211l-9-51-55-7 36 58" />
    <path d="M553 180l39 12 7 41-37-59m-136-1l54 4 22 9-55 2m409 42l-17 7-44-29-6-6" />
    <path fill="#35A" d="M178 306l-43-116 53 65 25 37" />
  </g>
</svg>