<svg version="1.1" viewBox="0 0 1024 448" width="1024" height="448" xmlns="http://www.w3.org/2000/svg">
  <g fill-opacity=".5">
    <path d="M635.2 170.8l-14.4 7.6-4 93.6 8-9.2m248-88.4L859.2 200l92 80-73.6-93.2m-475.2 42.8l8.8-68 10.8 62.8-18.4 46.8" />
    <path fill="#483" d="M69.2 271.2l19.6-102.4 50.4-19.6-48 151.6" />
    <path d="M870.4 258L784 203.2l26.4-36 3.6 29.6M597.6 178l-63.6.4-9.2 82.4-15.6-67.2" />
    <path d="M590.8 256l-86-21.6 52 29.6 54.8-72M362 270.8l-1.6-95.2-12.8-2-1.6 56m-69.2-50l15.2 15.2 42.8 78.8-34.4-103.2" />
    <path d="M591.2 236.4l-57.2 46 70-70.8-19.6-23.6m86.4 71.2l-4.4-10-43.2-1.6-10.8 19.6M394.8 136.4l26.8 96.4-76 28.8 70.8-5.2m65.6-18l-7.6 46.8-10-87.2 10-18M720 243.6l56.4 15.6-68.4-4.4 17.6-87.6M946 180l-30.8-12.4-38.4 86.8-18-29.6" />
    <path fill="#4BA" d="M78 272.4l-12.4-11.6 87.6 6-66 42" />
    <path d="M372.8 178.4l67.2-1.6 17.2 16.4 58.8-18m-243.2 19.6l3.2-3.2-22.8 86.8 40.4-94.8m356.4-.8l29.6 23.6 13.6 48.8-6-66.8" />
    <path d="M750 220l-23.6-15.6-62 54.8-38-2M573.6 174l30 40-71.2-42 23.2 5.2M842 223.6l-50.4-.8 20.8-49.2-26.8 20.8m-238 66.8l-22.8-8.8-20.4-36 12-5.6" />
    <path fill="#35A" d="M156.8 255.6l26-34.8 36 78.8-35.6.8" />
    <path fill="#8B4" d="M63.2 254l35.2 5.6 14-27.6-15.6-64.4" />
    <path d="M301.6 174l-58.4 104.4 50.4-104.8 30 87.2" />
    <path d="M279.6 196.4L254 257.6l79.6-43.6-57.6 17.6m604-40l-5.2-24.8-8.4 52 10.8 53.6m-348.8-13.6l66.4-21.6-6-46-8.8 67.6m235.2-7.2l34.4-2-16.8-44.4 4.8 55.6" />
    <path fill="#38C" d="M129.2 181.6l-8-29.2 37.2-4-2.8 22" />
    <path d="M335.6 204l12.4 2.8 1.6-48.4 18.8 110m45.2-95.2l10.8 7.2-19.6 66 6-39.6" />
    <path d="M344.4 237.6l71.6 23.2v-64L388.8 268m557.6-5.6l-36.4-5.2 6.4-1.2-28.4-38" />
    <path fill="#483" d="M131.2 190.8L89.6 202l1.2-22 23.6-38.4" />
    <path d="M722 213.6l-1.2-39.6-12 20.8 14.4 74.4m166.4-41.6l50.4-53.2-59.6 37.2-12.8-25.6" />
    <path d="M828.4 256.8l-118.8-10 18.8 10.4 74.4-12.8m-475.6 19.2l10.4-12.4-.4 11.2-28.8-61.2m416-18.4L673.2 262l8.4-52 45.2 16.8" />
    <path fill="#4BA" d="M130 278.8l23.6-15.6-16-2.8L64.4 278" />
    <path d="M419.6 220.4l-3.6-18-12.4-41.6 7.6 95.6M766 167.2l-5.2 2.4 15.2 20-68.8-3.6m132.4-4.8l-10-8.4-34.8 5.2 48 11.2M606 208.4l-40.4-36 3.2 3.2 22 61.2m-125.6-53.2l7.6-6 8.8 32.8L474 248m144.4-38l-3.2 58.4 22.4-38-28-27.2m-104.4 29.6l16.4-35.6-10.8 2 32.4-20M696 230l-44.4 26.4 12-12 29.2-26M877.2 262l-12-101.6 2 98.8 3.2.8m-505.6-2.4l34.8-8-22 18.8-38.8-72.4" />
    <path d="M619.2 248l38.4 14.8-28.4-14.8-4.4-48.4M307.6 236l6-11.6-45.2 11.6-22.4 14" />
    <path fill="#38C" d="M174.4 211.2l-9.2-51.2-55.2-6.8 36 58" />
    <path d="M553.2 180.4L592 192l6.8 40.8-36.4-58.4m-136-1.2l53.2 4L502 186l-54.8 2.4M856.4 230l-17.6 6.8-44-29.2-5.6-5.6" />
    <path fill="#35A" d="M178.4 305.6l-43.6-115.2 53.2 64.4 25.2 37.2" />
  </g>
</svg>