<svg version="1.1" viewBox="0 0 1024 448" width="1024" height="448" xmlns="http://www.w3.org/2000/svg">
  <g fill-opacity=".5">
    <path fill="#184" d="M231.2 231.2l-52.4-86.8-58 42.4.8 52m589.2-112l-5.6 127.6-19.6-112-31.2 46.8m148.4-2l19.2-10 2.4-16-51.6 14.8M203.2 294.4l-43.2-5.2-27.2 34 28.8 27.2" />
    <path fill="#184" d="M792.8 178.8l58.4 51.2-20.8-.8-36.8-40.4m-407.2-71.2l5.6 79.2-14.4 69.2 1.2-78.4M52 143.6l8-16-1.6 8 242 9.6" />
    <path fill="#6B8" d="M226.4 158.8l-28.8 60 2.4 20.8 38.8 73.6" />
    <path fill="#184" d="M885.2 223.2l50.8-36-5.6 15.6 23.2 7.6" />
    <path fill="#6B8" d="M452.4 230.4l58.4-.4 2.8-70.4-14.4 58.4" />
    <path fill="#184" d="M171.2 378.4l-12.4-6.4 52.4-22 24 .4" />
    <path fill="#6B8" d="M679.2 159.2l69.6-4-97.6 31.6 53.2-62.8" />
    <path fill="#184" d="M779.6 185.2l22.4-36.4 29.6 25.2-28.4 10.8" />
    <path fill="#6B8" d="M253.2 136l-148 8.8 194 1.2-35.2-7.6" />
    <path fill="#184" d="M713.2 209.6l2.4-67.2-27.2-2.8L702 256.8M253.2 200l8.4-25.6 14.8 8.8-27.6 129.6m325.6-119.2l4.8-60 16 96 46.4 21.2" />
    <path fill="#6B8" d="M878.4 164.4l94 4-39.6 44 23.6-41.6" />
    <path fill="#184" d="M431.6 143.2L394.4 178l-12.8 90v-64" />
    <path fill="#6B8" d="M990 296.8L962.8 354 944 286l.8 43.2" />
    <path fill="#184" d="M224 205.2L206 220l-16.4-64.8-50.4 16m-5.6-47.2l-54-14.8 4.8-.8 48.8-2.8" />
    <path fill="#6B8" d="M329.6 332.4l26.8-44.4 5.2 16.8-27.2-17.2m-68.8-196l-28.8 47.2 10-53.2-82-1.6" />
    <path fill="#184" d="M184.8 347.6L118 309.2l58 6.4 53.2-14.4m272 11.2l-10.8-25.2-8.4 46 28-18" />
    <path fill="#6B8" d="M669.6 220.4l.8-.4 19.6-8.8-9.2 30M652 318.4l-22 18.4V290l28.8 14.4" />
    <path fill="#184" d="M209.6 224.8l-105.2-20 117.2 5.2-4 71.2M940 110.8l-20 52.4 2.4 32 18.8-46" />
    <path fill="#6B8" d="M229.6 78.4l-54.4 5.2-109.6 16.8 32.8-15.2" />
    <path fill="#184" d="M172 375.6L120.8 358l12.8 10.8-33.2-35.6m599.2-124l-13.2-75.6 12-5.6L716 230.8m-274.8-54l8-6 7.6 11.2-8.8 52m-311.6-.4l-18.4-64-7.6 34.8 116.4 2.8M386 247.6l-10.4-66.8 6-62.4 4.4 76" />
    <path fill="#6B8" d="M730.4 294l88 9.6 55.6.4 9.2 29.6" />
    <path fill="#184" d="M376 192l-20.4-26 .8-10-9.2 35.2" />
    <path fill="#6B8" d="M277.2 137.2l-158.8 7.6-24 3.6-45.6-6.8" />
    <path fill="#184" d="M508.4 208.8l5.6-57.2-1.6 54.4-3.6 19.6m80-23.6l6-85.2L590 162l-47.6 72M928 202l19.2 7.2-38.4 29.6 23.2-5.2" />
    <path fill="#6B8" d="M676.8 178.8l52-48-5.6 16-81.2 38.8" />
    <path fill="#184" d="M247.2 329.6l41.6-30.4-126 83.6 46-19.6m185.6-165.6l-8.8-29.2 21.2-30-34.8 21.2m-282.4 64L80 244.8l-11.6-40.4 8-36.4m368 54.4l22-74 42.4-6-56 24.8" />
    <path fill="#184" d="M109.2 347.2l89.2 25.2-34.8 10-48.8-42.4" />
    <path fill="#6B8" d="M968.8 187.6l-21.6-28.8-42.4 29.6-10-34.8m-738 29.2l2-89.6-14.4-10.8L166 162" />
    <path fill="#184" d="M223.6 163.2l-19.2 75.2 1.6-25.6 28-15.6" />
    <path fill="#6B8" d="M146.8 248l23.2-1.2 14-7.2.8 21.6" />
    <path fill="#184" d="M813.6 159.6L776 232.4l40.4-59.2-36 17.2m-657.6-7.6l.8 90.4 24.4-82.4 22 36.4m301.2-85.6l-1.6 59.6 16.4-14.8 14-41.2" />
    <path fill="#6B8" d="M337.6 288l33.2 23.6 99.2-7.2-43.2 14.8" />
    <path fill="#184" d="M896 218l.4-13.6 52.8-.8-43.2 17.6" />
    <path fill="#6B8" d="M168 345.2l-77.2-60.8-4.4-66.8 9.6 61.2" />
    <path fill="#184" d="M411.2 151.6l18.8-4.4-.8-2-54 66" />
    <path fill="#6B8" d="M340 296.4l15.2 60.8-26.4-57.6 57.6 13.6" />
    <path fill="#184" d="M174.4 160L136 170.8l.4 17.2 69.2-11.2m5.6-90l41.2 4.4L193.2 80l-47.6 4.4m641.2 134l16-65.2 8.8 6-9.2 28m-564.8 156l40.8-55.2-7.2 20.4-90 68.8m607.2-53.6l-24 9.6-3.6-2.4-.4-8M504 193.2l-10 18-8.8-65.6-26.8 45.2" />
    <path fill="#184" d="M789.2 190.4l36.8 16.8 28.8 18-14.8 1.2M231.6 328.8L143.2 294l31.6 32.8 10 22.4m294.8-7.2v-30.4l21.6.8-4.4-18.4" />
    <path fill="#6B8" d="M597.2 309.6l-88 22.4 17.6 18.8 17.6-28.4m-291.6-53.2l-60 66L274 258l-24.4-71.6M86.4 322.8l31.2 37.2L90 318.4 58.8 284" />
    <path fill="#184" d="M488.8 237.2l26-36-.4-48-5.6 66.8m43.6 9.6L582 192l10.8-50-8 10.4" />
    <path fill="#6B8" d="M120 160.8L108.4 292l3.2-86.4-2.4-27.6m87.6-71.2l-18 15.6 5.2-23.6 11.6-6.4M58.8 97.2l34 1.6-2.4 36.8 13.2-44.8" />
    <path fill="#184" d="M684.4 226.8l24-62.4-14 22.4-20.8 50.8" />
    <path fill="#6B8" d="M208.8 80.8L274.4 94l11.6 34.4-1.2-21.6" />
    <path fill="#184" d="M207.2 182.8l14.4 60-6.4 36.4-38.8-124" />
    <path fill="#6B8" d="M884.8 297.6l73.2 34.8-35.2-2-4.8 5.6" />
    <path fill="#184" d="M463.6 163.2l-18-4.4 7.2 60.8-15.6-1.6" />
    <path fill="#6B8" d="M490.4 315.2l28 8.4-.4-7.2-49.6 19.6m-221.2-51.2l23.2-122.4 10.8 30.4-29.6 2" />
    <path fill="#184" d="M512 160.8L460 190l20-21.2 24.8-10.4" />
    <path fill="#6B8" d="M434.8 334.8l30.8-16.4.4-2.4-15.2-14.4" />
    <path fill="#184" d="M378.4 172.4l4-45.2 2 141.2-5.2-50.8M99.6 318l60 30.4-16.4-61.2 62.4 53.6M912 152l5.2 23.2 11.6 41.6-7.6-75.6M658.8 334.8l6.8-29.2-22-2.4 44 29.2" />
    <path fill="#184" d="M381.6 188l-34.4-1.2 7.6 10.8 48-23.6" />
    <path fill="#6B8" d="M512.4 310l138-4 .8 29.2-19.2-32.4m-186.4 21.6l25.2 10.8-106.4-12.4-42 15.2m-49.2-103.6l4 20.8.4-39.6-1.6-26.4" />
    <path fill="#184" d="M786.8 307.6L778 294l.4 32 8-7.2m-74.4-174l-19.6 20.8 43.2-41.2-30.4 19.2m-322.8 3.2l12-2.4 20 5.6-46 14.8" />
    <path fill="#6B8" d="M234.8 134l61.2 6.8-177.2 3.2-48-5.2m895.6 163.6l-11.6 2.4-172.8 3.6 182.4 2" />
    <path fill="#6B8" d="M958 308.4l-9.2-9.6-39.2 31.6-5.2 9.2M596 312l-23.2 2.4 12.8-11.2 49.6 30" />
  </g>
</svg>