<svg version="1.1" viewBox="0 0 1024 448" width="1024" height="448" xmlns="http://www.w3.org/2000/svg">
  <g fill-opacity=".5">
    <path fill="#6B8" d="M843.2 329.6l12.4-40.4V304l1.6 2.4" />
    <path fill="#184" d="M474 169.6l-6.4 1.2-4-5.2 62.4 23.6" />
    <path fill="#6B8" d="M724.4 183.6L674 238.4l37.6-86-32 80.8M238.4 114.8l18-3.2 11.2.8-50 10.4m49.6 176l5.2 3.6-23.2-2.8-26.4 11.6" />
    <path fill="#184" d="M793.6 203.6l12.4-14.8 9.2-23.2-12.4 5.2m-326.4-11.6l21.2 1.2L462 214l9.2-1.2m-282.4 90.4l-5.2 1.2 33.2 26-3.6-10.4m-1.6-56.4l12 12.4-23.2-108 18.8 77.2" />
    <path fill="#6B8" d="M848.8 221.2l11.6 8.8-64-38 26.4 15.2" />
    <path fill="#184" d="M391.6 152.4l-12-14.4 6.4 39.6-14.8-25.2" />
    <path fill="#6B8" d="M947.6 180.4l-2-15.2 2.8 24.8 11.6-13.6" />
    <path fill="#184" d="M386 157.6l-.4-6-6.8 54.4 6-79.2m289.2 202l2-18 12.4 15.2 2-12m-95.2 14l10.8-31.2-2.8 22-22 14.4" />
    <path fill="#184" d="M558.8 306.4l-17.6 2 1.6.4 67.6 3.2M400.8 144.8l-24.4 12.8 4 .4 22-5.6m332.4 195.2l-1.2-44.8-2.8 7.6 6-9.6" />
    <path fill="#6B8" d="M244 281.6l9.6-30 8.4 2.4-3.6-10.4M78 290.8l-15.6-46.4L83.2 300l18.8 19.2m886-7.2l-71.6-6.4-51.2 8 46.4-5.2" />
    <path fill="#6B8" d="M876 308.8l-41.6 19.6-69.6 3.6 68.8-1.6M236 323.6l24-22.8-78.4 52.8 41.6-27.6M698 302l-25.6 28.8 26-31.6 20.8 26.4" />
    <path fill="#184" d="M390.8 317.2l68.4-9.2-54 .8L420 310" />
    <path fill="#6B8" d="M336.8 336.8l-.4-6 20.8 6 5.6-17.2" />
    <path fill="#184" d="M175.2 371.6L122 352.4l56.8 25.2 52.4-32.4" />
    <path fill="#6B8" d="M63.2 278.4L89.6 332 60 280.8l7.2-28.8" />
    <path fill="#184" d="M170 295.2l24.8 14 20.8 8-51.2-14" />
    <path fill="#6B8" d="M130 190.4l-8.8.8-27.2 3.2 124.8-2.8" />
    <path fill="#184" d="M456 327.6l-16.4-.4 21.6.8-6-24.4M290 160l-24 12.8-10.8 54.4 3.2-32.4m-53.2 138.4l-55.6-12.4 8-3.2-26.8-12m642.8-129.2l77.2 52-64.4-47.2 32.4-7.2M145.2 98.4l10.4-.8-8 16.8 2-6.8" />
    <path fill="#6B8" d="M289.2 102.4l-20-3.2L204 76.8l21.2 6.8" />
    <path fill="#184" d="M216 274.4l6-92.8-2.8 84.4-10.4-16.8m368-56.8l9.2-12 17.2-17.2-23.6 8.8m-380 143.2l-35.2 12 49.6-16.8-11.2 11.6" />
    <path fill="#6B8" d="M477.6 237.2l-17.2-12.8 56-8.4-57.2 10.8m231.2 82.4l-8.8-1.2-5.6-.4 75.6-1.6M202 244.8l10.8-3.6-47.2 12.4-12-8.4m695.6 72.4l4-16.4.4 22.8-26-7.2m145.6 15.6L944 334l-58-9.6 36.4 9.2" />
    <path fill="#184" d="M209.2 216l11.2 16.8-32.4-26 12 12.4m179.2-89.6v73.2l1.2-2.8 4.8-66.8m322 42.4l1.2-33.2-18 27.2 22.8-42.8" />
    <path fill="#6B8" d="M599.6 331.2l-56-3.6-16.4 1.2 108.8-2M109.2 300L74 262.8l48.8 43.6 61.2 30.4" />
    <path fill="#184" d="M474 176.4l4.4-30.8 12 67.2 14.4-22.8M86 325.2l90 54.8-64.4-34.4-9.6-14.8" />
    <path fill="#6B8" d="M60.8 130l-2 79.2L57.2 106l8.4-9.6" />
    <path fill="#184" d="M351.6 209.6l9.2-21.6-10-14 11.2.4" />
    <path fill="#6B8" d="M57.2 194l7.6 38.8 1.2-12-2.4 51.6" />
    <path fill="#184" d="M204 184l-24 3.2 8.8-19.2 10 3.6" />
    <path fill="#6B8" d="M205.2 231.2l-16.8 4.4L220 238l-38.4-29.2M114 82.8h6.8L104.4 90l61.2-6m662.8 212.8l-4.4-17.6 1.6 58.8-.4-29.6M720 154.8l-28.8 12.4 39.2-11.6-95.6 35.2" />
    <path fill="#184" d="M707.6 203.6l7.2-20.4-14.8 58.4.8-64.8" />
    <path fill="#6B8" d="M255.2 282.4l5.2-10.8 2.4-19.6-6.4 16.8" />
    <path fill="#184" d="M88 233.6l1.6-45.2-2.4 4.4-.8 40.8m92-54v-21.2l4.4 39.2-4.4-.8M572 200l47.6 41.2-58-38.8 21.6-21.2" />
    <path fill="#6B8" d="M669.2 313.6l-38-10.8 103.6 7.2L626 298.8" />
    <path fill="#184" d="M704.4 160l-4 80.4 7.2-12 2-47.2" />
    <path fill="#6B8" d="M930.4 337.2l-2 4.4 9.6-16.8-5.2-21.2" />
    <path fill="#184" d="M260.8 198.4L254 202l22.4 27.6-26.8-4m-70 112.4l68-20-18 6-16.4 4.8" />
    <path fill="#6B8" d="M115.6 299.6L44 235.2l115.2 107.6L44 228.8m156.8-37.2l-35.2-37.2 56.4 76-31.6-40.4" />
    <path fill="#184" d="M166 205.6l-39.6 24-2-21.6 2.4 11.2" />
    <path fill="#6B8" d="M272.8 136.4l-40.4 7.2-28.8-5.2 72.4 2.8m600.4 162.4L866 332l15.2 7.2-20.4-14.4" />
    <path fill="#6B8" d="M206.8 106.4l10.8-11.2-9.6 25.2 2.4 33.2" />
    <path fill="#184" d="M914.8 144l-36.4 56.8 40-57.2 26 26.8M714.8 302.8l11.2 7.6-.8 18.4-5.6 2.4M182.8 224.8l41.2-43.6-14.8 67.6 11.2-61.2m249.2 136.8l37.6-7.2-4.4-1.2-6 8m86.4-150.4l29.2-17.2-1.2-2.8-49.2 36.8m117.6 46l-8.4-1.6 39.6-60.4-14.4 21.6" />
    <path fill="#6B8" d="M62.8 270l-4.4-137.2-4-17.2 3.6 69.6m454 109.2l10.8 48-7.6-1.6-2.8-46.4" />
    <path fill="#184" d="M284 121.6l-2.4 26.4v10.8l2.8 1.6M268.8 210l7.6 19.6-2.8-19.2-3.6-42m302.8 14l4-34.4-1.6 92.4 6.8 5.2" />
    <path fill="#6B8" d="M119.2 183.2l-8-4.4-4.4 18.8 19.6-12.4" />
    <path fill="#184" d="M353.2 301.2l19.6 12.4-10.8-10 43.2 16.4" />
    <path fill="#6B8" d="M693.6 324.8l-50.8-.4 85.2 4.8-10.4 6.4" />
    <path fill="#184" d="M494.4 204.8l-12-42.4-17.2 8.8 19.2 1.2" />
    <path fill="#184" d="M491.6 197.2l.8 12-9.6-55.2 4 11.6" />
    <path fill="#6B8" d="M191.2 339.2l12.8 6-60.8-14.4.4-12.4m-9.6-97.6l49.6-93.2L124 239.2l11.6 36.4" />
    <path fill="#184" d="M86.8 195.6L63.6 226l24.8-2.8-19.2 4" />
    <path fill="#6B8" d="M533.6 338.4l20 6.4L498 328l18.4 9.2" />
    <path fill="#184" d="M572.4 208.8l20.8-70.4 8.8-17.6-26 25.2" />
    <path fill="#6B8" d="M881.6 194.4l3.6 17.2 7.6-28.4-5.6 2.8" />
    <path fill="#184" d="M712.4 182.4l-25.6 37.2.8-20 8.4 8.8M930 158l22.8-10.8-57.2 7.2 30.8-2" />
    <path fill="#6B8" d="M160.8 252l12.8 1.2 20-6L180 242" />
    <path fill="#184" d="M175.6 324l-15.6 9.2 74.4-6.4-11.6 6.8m-74-39.2l16.8 30.8 3.2-28-28.8 18m375.2-4.4l2.4-1.2 30.4-2.8.4 6" />
    <path fill="#184" d="M120.8 333.6l32.8-27.2-33.6 24.8-4-11.6" />
    <path fill="#6B8" d="M247.2 108.8l-3.2 32.8L254.4 90l-13.2 33.2" />
    <path fill="#184" d="M201.2 358.4l-27.6 20-45.6-22 33.2 20m214.4-154.8l2 4 6.8-38.4 1.6 59.6m199.6-101.6l-6.4 4.4-18.8 14.8 3.2-10.4" />
    <path fill="#6B8" d="M815.6 309.6H842l-61.2-4.4 96 16" />
    <path fill="#184" d="M158 210.4l20.4 4 11.2 1.6h25.2m701.6 10l-4 4.4 7.6 3.2 6.4 1.2" />
    <path fill="#6B8" d="M406.4 332.8l-46.8-3.6 46.8 2.4-44-47.2M278 264l-31.2 58.8 24-58-20 5.2" />
    <path fill="#184" d="M195.6 213.2l-22.8-3.6-.8-4.4 43.6 23.2" />
    <path fill="#184" d="M153.6 229.6l46.4-17.2-44.4 12h64M58 134.4l4 77.6-3.6-98.4-1.6 21.2m522.8 88.4l.8-79.2 15.6 59.6-16-80.8" />
    <path fill="#6B8" d="M674.4 330.8l180.4 2.8-174.4-4.4 57.6-14.8m-27.6-142.8l-50.8 8.4-4.8-4.4 28.4.4" />
    <path fill="#184" d="M732.4 321.6l6.8 13.2-4.8-38.4-2 8" />
    <path fill="#6B8" d="M183.6 228.4l24.4 15.2-4.8-14.8-62.4-13.2" />
    <path fill="#184" d="M692 136l-4.4 5.6 11.2 62-12.4-75.2M906 308.8l58-6-5.6 4.8-107.2-.4" />
    <path fill="#6B8" d="M801.2 198.8l-13.6 12.8L806 184l-35.2 36" />
    <path fill="#184" d="M505.2 227.6l11.2-54.4-10 56 6-.8M937.2 172l3.2-42-5.2 21.6-1.6 3.2" />
    <path fill="#6B8" d="M419.6 307.2l-2 22 49.2-2.4-58.4 3.6" />
    <path fill="#184" d="M803.2 180.4l6.8-23.2-21.6 54 22.8-38.8M455.6 325.6l.8-18.4 8 9.6-9.6 12.4m-317.6-55.6l-13.6-18.8 6-30.8 6.4 44m422-56l16.8-3.6 6.4-40-3.6 18.8" />
    <path fill="#184" d="M593.2 129.2l-23.6 81.6 14-22.4 14.4-70m-409.2 78l3.2 24-8-31.2 35.6 62.4M818 181.2l1.6-9.2-14.8-9.2 28.8 12m-447.2-13.2l-26 4.4 20.8-6.4 1.6 54.8m329.6-71.2l-21.2-12.4 14 22.4L728 132" />
    <path fill="#6B8" d="M253.6 90l8.4-.8-19.6 17.6 13.6 8" />
    <path fill="#184" d="M343.6 339.2l34.4-31.6-32 25.2-6.4-20.4M166 202l-6-9.6-4.8-19.2 9.2-9.6" />
    <path fill="#6B8" d="M705.2 330.8L564 324l68.4 5.2-79.6 4" />
    <path fill="#184" d="M575.6 152.4l23.6-18.4-36 20.4 32.8-4.8m296.8 63.2l27.2-1.2-4-.8-16.8 13.6" />
    <path fill="#6B8" d="M735.6 157.6l-3.6 8 25.2-16.4-59.6 28.4M682.4 232l-16.8 3.2 21.6-2.8-9.2-8" />
    <path fill="#184" d="M672 176l54-17.6-72.4 18.4-3.6 12.8M70.8 300.8l-3.2-17.6 1.6 10.4L80 312m341.2-149.6l-48 32 31.6-21.6 4.4-34.4m185.6-15.6l-27.2 78.8 28.8-62.8 4 4.8M916 158.8l12.8 70 3.2-14.4-8-28m-785.2 19.2l15.6 4.8 14.8 3.2-34.8 5.2" />
    <path fill="#6B8" d="M847.2 304.8l65.6-1.2 18.4 4.4-83.2-4.4" />
    <path fill="#184" d="M413.2 171.6l-57.6 26-8.4-24.8 24 22M210.8 216l13.6-20.4 6.4-11.6-10.8.4" />
    <path fill="#6B8" d="M86 109.6l8-8.8 3.6 21.6-15.6-10m141.6 78.8l37.2.4-26 .4-98-1.2" />
    <path fill="#184" d="M804.4 170.4l-3.2 28-16-14.4-7.6 2m-208.8 26l20-62.4-7.6 34.4-6 22.4" />
    <path fill="#6B8" d="M716.8 307.2l.8 2.8-60-1.2 53.6-.8" />
    <path fill="#184" d="M77.6 148.4L78 138h1.6l19.2 4" />
    <path fill="#6B8" d="M257.6 246l11.6-38.8-2.4-20-1.2-18.8M73.6 158l-4 29.2-5.2-6.8 9.2 36.4m159.6 48.4l-2.8-4.8-1.2-82.8 4.8 68.8m691.6-80l7.6-52.8-10 46L896.8 76M126.4 236.8l54.8-46.4-51.2 44.4-18 17.6" />
    <path fill="#6B8" d="M72.8 189.2l-14 61.6L80 188.4 66.8 194m772 124.8L856 320l-13.2-.8-8.8-18.4" />
    <path fill="#184" d="M176 169.6l-30.4 19.2 12-22-24.8 12" />
    <path fill="#6B8" d="M448.4 320.4L425.6 334l34.8-5.2-35.6-1.6" />
    <path fill="#184" d="M694.8 163.2l-10 7.2-6.8-3.2 39.6-2.4M171.2 326l19.2-4.8-54.4-.8 1.2-2" />
    <path fill="#6B8" d="M271.6 100.4L240.8 88l51.6 16.8 3.6 3.2M101.2 251.2L146 220l.8-.8 13.2-1.6m-63.2 100L86 203.2l-4.8 3.6.8-6.4m100.4 145.2l97.2-92.8-40 33.6-12 10.8" />
    <path fill="#184" d="M456.4 157.6l-10.8 12.8L442 218l4 2.8" />
    <path fill="#6B8" d="M369.2 288l1.2 18 45.2 11.6-27.2-5.6" />
    <path fill="#184" d="M77.6 313.2l38 35.6-7.6-6-46.8-52.4" />
    <path fill="#6B8" d="M76.4 307.2l8.8-5.2-14.8-48.4 12.4 61.6m112.8-54.8l-8.8-11.6 55.6-3.6-39.2 2.4" />
    <path fill="#184" d="M348.4 184.4l37.2-42.4-6.8 14-19.6 12.8M608.8 214l-12.4 16 3.6-25.6-3.2 2.4" />
    <path fill="#6B8" d="M791.2 312l48-22-59.2 36.4 47.6-30.4m-552.4-8.4l.8-5.6-18 39.6 23.2-34.4m-71.6-146l-36-2 88.4 8.4-23.2-4.4" />
    <path fill="#184" d="M505.2 166l-4.4-4-3.6-4-29.6 26.4" />
    <path fill="#6B8" d="M824 328l-51.6-42.4 20 23.2 2.8-5.6" />
    <path fill="#184" d="M78 220.8l3.2-16-8 2L84 258.4" />
    <path fill="#6B8" d="M926.8 330.8l-153.2-8.4 140 6.8-103.6 5.2" />
    <path fill="#184" d="M688.8 137.2l2.4-9.6 2.4 2.8 12 89.6" />
    <path fill="#6B8" d="M674 225.2l-7.2 18 30.4-49.6 9.6-9.2m-602 77.6l104.8-87.6L178 164l29.6 10.4" />
    <path fill="#6B8" d="M157.6 242l-28.4-60.8 37.2 79.2 29.2-18" />
    <path fill="#184" d="M936.8 213.2l6-9.6-20-3.2 2.4 6.8" />
    <path fill="#6B8" d="M825.2 333.2l-3.6-34.8L860 318l-35.2-16.4" />
    <path fill="#184" d="M148.4 362l-55.6-28.8 50 28.4 6 16.4M938 322.8l-4.4 2-19.2-4.4 2-3.6" />
    <path fill="#6B8" d="M497.6 308.4L424 351.2l61.6-35.6 6.4-.4" />
    <path fill="#184" d="M271.6 272.4l2.8-45.2-20.8-14.4 17.2 12m418-56.8l14.8 30.8-5.6-27.2-7.2-10.8m-524.4 28l-3.2-19.6-1.2 2-30.4 4" />
    <path fill="#6B8" d="M718 146l4.4.4-34.4 2.8-34.4 10.8m-94 141.2L543.2 332l76-3.6L540 330" />
    <path fill="#184" d="M943.6 151.2l-7.2-20-2.8 19.2-4.8 20.8m-813.6 28l34.4 16.4L154 188l-8.4 31.2m642.8-10l24.4-41.2 2.8-6.4-5.6-5.2M160 328l14.4-12.4-24.8-.4 1.6-25.2m408.4-68l41.6-88.4-46 90 6.4 3.6M466.8 206l-5.6 9.6 20-8.8 19.2-4" />
    <path fill="#6B8" d="M642 298.8l47.6 24.4-30-18 6.8 21.2m-148.8 12l41.2-38.4-39.6 31.6-9.6-22m217.6 6L700.8 304l4.4 4.8-36.8-1.6" />
    <path fill="#184" d="M697.6 174l6.4 61.2-10 .8 18-37.6" />
    <path fill="#6B8" d="M215.6 238.4l-7.2 35.6-3.6-54.4 8.4 43.6" />
    <path fill="#184" d="M842 311.2l8.4 16.8-2 4.8-13.2-10" />
    <path fill="#6B8" d="M154.4 331.2l11.6 24 1.2-28.8-45.2 8.4M409.2 302l-10.4 30 2.8-38 20 44.8" />
    <path fill="#184" d="M693.6 153.6l-3.2-16.4.4-6.8 10.8 8.8" />
    <path fill="#6B8" d="M708 143.2l-31.6 90.4 17.6 1.6-12.8-7.2m184 73.6l-2 14.4-4-9.6 40 21.6" />
    <path fill="#184" d="M174 374.8l-9.6-8-40-10.4 5.2-7.6" />
    <path fill="#6B8" d="M143.6 326.8l39.2 20.4-42.8-4 27.6 1.6" />
    <path fill="#184" d="M108.8 311.6l.8-16.8 4.4-58-8.8 65.2" />
    <path fill="#6B8" d="M380.8 290.8l33.2 6.8-80.4 5.2 70-4.8M282.8 186l2.4-21.2-.8-49.2-8.4 205.2m488-25.2l-4-6.4-2 42 6-14" />
    <path fill="#184" d="M376.8 330.8l-37.6-6.4 8.4-.8-3.2 7.6" />
    <path fill="#6B8" d="M202.4 104.8l18.4-4 8 3.2-58 2.8m-80.4 190l-12-74 12 57.2 4.8-2.4" />
    <path fill="#184" d="M130.8 298.4l10.4 29.6 18.8 22.8-30.8-43.6m726.8-4.4l-16 22 36.8-22-17.6 22.8" />
    <path fill="#6B8" d="M881.2 305.6l6.4 25.6 3.2-26.8-19.6 34" />
    <path fill="#184" d="M220 272l-3.6-78.8 4.4 29.2 1.2 60.4" />
    <path fill="#6B8" d="M156.4 136H142l96.4 8.8L93.6 134" />
    <path fill="#184" d="M675.6 176.4L696 170l54-16.4-27.2 7.6" />
    <path fill="#6B8" d="M480 330.4h-3.6l17.2-38.8-12.8 46.8M931.2 300l30 11.2-2.8-10.8 4.8 12.8" />
    <path fill="#184" d="M181.6 307.6l18.8-12.4-39.6 28.4 15.6.8" />
    <path fill="#6B8" d="M114 160.4l36.8 92.8-14.8-18.4 10.4 7.6M64 266l-4.8-74.4-1.6 24.4 6 24" />
    <path fill="#184" d="M148 172.8l-6.8 16.4-6.4-16 76.4-2.8m312.4 168.8l9.6-18.8-14 18.4 15.2-10.8" />
    <path fill="#6B8" d="M434.4 350.4l-4.8-43.2-1.6 16 3.6 12.4" />
    <path fill="#184" d="M230.4 246.4l4 56-.4-27.2-5.6-71.6m578.4-11.2l46 39.2-3.2-8.4-60.4-40.4m-89.2-12l-8.8 23.2 17.2-26.8.8 27.6m-543.6 94l6.8 10 22 8-11.6.4" />
    <path fill="#6B8" d="M96.4 274l-26.8-10.4L94 278l-16-11.2" />
    <path fill="#184" d="M936.4 137.6L894 153.2l16-8.4 2 .8" />
    <path fill="#6B8" d="M172.4 148.4l-29.2 56.8L138 190l-.4 23.2m72.4-74l67.6 4.4-58.4 2.4-5.6 1.2m75.2-35.6l5.6 5.6-11.6-14.4-8.4-8" />
    <path fill="#184" d="M590 140.4l-15.6 23.2 24.8-36.8-20.8 60.8m-384 29.2l24 50-13.2-34-2 6.4M70.4 218.4l12.4-30 2 3.2-9.2-21.2" />
    <path fill="#6B8" d="M211.6 188.8l3.6 1.6 8.4 5.2 16.8-2.4" />
    <path fill="#184" d="M284.4 172.8l-27.2 16 2 58.8L270 188m-62.4 115.2l-1.6 9.2-4.4 8.8 12 15.6" />
    <path fill="#6B8" d="M402.8 292l-1.2 6.4-8.4-8.8 39.6 29.6" />
    <path fill="#184" d="M173.6 366.4L162.8 378l82.4-37.6-48.4 15.6" />
    <path fill="#6B8" d="M572 316.4l27.2-13.2-33.6 9.6 22.4-10.4M165.2 128l-2.4 51.6 2.4-57.2-16-25.6" />
    <path fill="#184" d="M414.8 300l-.4 12 10.4-10.8 4.4 10.8M182 342.8l21.2-2.8-30.8 11.6 40.4-46m550 26.4l10.4 1.2 6.8-2.8 14-6.8" />
    <path fill="#6B8" d="M65.6 95.2L92 96.4H76l62-15.2" />
    <path fill="#184" d="M111.6 306.4l-.4.8-10-1.6-17.6-4m428.8-76l-90.8-7.2 89.6 6.8-18.8-32.4m-315.2-31.6l-2 17.2-.4-16.8 26.4 15.2m318 150l1.2 9.2 8-7.2-46.8-9.6" />
    <path fill="#6B8" d="M66.4 162.8l3.6 23.6-4-13.6 12.8 14.4" />
    <path fill="#184" d="M688.8 134.8l20.4 36.4-2.4 18.8-12.4-44.4M153.6 293.2l-3.6 10.4-25.2 34 23.6-35.2" />
    <path fill="#6B8" d="M230 168l-28.8 4.4 38-.8-13.6.4m39.6 66.8l-9.6 33.2 6.8-28.8L254 258m-50 83.2l-61.6-2.8-27.6-4.4 2 .4" />
    <path fill="#184" d="M410 147.2l-13.2 31.2-20 6 38.8-14" />
    <path fill="#6B8" d="M161.6 333.6l22.4 7.2 8.4-2.8.4-8M60.4 260.4l6 23.2L57.2 104l4 154.8" />
    <path fill="#184" d="M512.8 151.2l-33.2 1.2 4.4-6.4 8.4-2.8m404.4 3.2l8.8 19.2 12.8-22.4 19.6 16.4" />
    <path fill="#6B8" d="M894.8 166.4l22.4-24.8-20.8 20.4 16 18.4" />
    <path fill="#184" d="M212.4 143.2l58-2.4-56.4-1.6-.4 5.2" />
    <path fill="#6B8" d="M959.6 329.6l-.8 12.8-10-27.6 16 43.6" />
    <path fill="#184" d="M161.2 165.6l12.8 10.8-2.8-3.6-17.2-.8m-37.6 1.2l9.2 32.8 9.2 11.6-8.8 3.6M629.6 300v-3.2l20 18.4 17.2 13.2m-430 7.2l10.4-8.4-22.4 20-50.4 26.4" />
    <path fill="#6B8" d="M638 311.6l-5.2 16-47.6-2L620 334m-371.6-22.4L188 349.2l66.4-42-48.8 38.4" />
    <path fill="#184" d="M937.6 155.2l-24 26L940 168l-1.2 4.8" />
    <path fill="#6B8" d="M229.6 312.8l-3.2 7.6 1.2-5.6 32.4-19.6" />
    <path fill="#184" d="M182.4 94.8l3.2 18.4 6.4-1.6-5.2-12.4M156 369.6l-73.6-48 65.6 48 53.6-9.2" />
    <path fill="#6B8" d="M215.6 141.6l26.4 5.2 13.2-54L242 148" />
    <path fill="#184" d="M801.6 191.2l-8.4-17.2-8.4 8.8 44.4 35.6M442 211.2l.4 10.4 7.2-24.4-4.4 1.2m43.6 15.2l-2.8-22.8 32.4-10-27.6 6.8M138 174.4l64.8-3.2 22 1.2-54.4.4m300.8-19.2l30-10.4-14.8 7.6-3.6 2.4m298.8 138l-1.2 16 26.4 2.4-22.8-2.4" />
    <path fill="#6B8" d="M136.8 97.6l-7.6 22-12.8-16 .8-3.6" />
    <path fill="#184" d="M592 128l-13.2 73.6.8-72.4 24.4 21.6" />
    <path fill="#6B8" d="M151.6 353.2l35.2-25.6 8.4-4.8-12.4 3.2" />
    <path fill="#184" d="M480.4 308.8l18-9.2-15.6 11.6 1.6-2.4M589.6 138l-6 2.4 17.2.8 8 11.6M284 174l-14.8 4.4 3.2 67.2L274 176" />
    <path fill="#6B8" d="M488.4 196.8l-16.8 9.2-14.8-15.6 13.2 14" />
    <path fill="#184" d="M454 158.8l-3.6 68-4.8-8 1.6-53.6" />
    <path fill="#6B8" d="M560 330.8l53.2-2.4-118.4 8.4 160-13.6" />
    <path fill="#184" d="M252 201.2l16 22.4-15.2 6 10-3.2m395.6 106l54-12-51.2 7.2L660 310M515.2 188.8l-.8-3.2-9.6-49.6 10.4 45.2m-444.4 64l3.2-45.6 5.6-11.6 1.6-8.8m91.2 191.2l-18.4 3.2-40.8-33.6-21.6-5.6" />
    <path fill="#6B8" d="M515.2 170l-2-2.4-2.8 65.6 4-47.2" />
    <path fill="#184" d="M378 155.6l-1.2-2-10 13.6 26.4-8.8" />
    <path fill="#6B8" d="M623.6 314v-11.2l-6 9.6-4.4 20.8m333.2-200.8l-25.6 28.8 5.6-10 20.4-20.4" />
    <path fill="#184" d="M92.8 286.8l-4-.8 7.2-4.8-2.8-14" />
    <path fill="#6B8" d="M222.4 81.2l-4.4 32.4-10 2.8 14-21.2" />
    <path fill="#184" d="M571.2 204.8l48.4 32.8-44-36.4-9.6 6.8" />
    <path fill="#6B8" d="M212.4 200.8l-3.2-20 2 24.4 33.6-76m-101.6 15.6l-29.6-1.2-13.2-1.6 130-.8" />
    <path fill="#184" d="M81.6 145.2l-16.4.8 40.8-2.8-26.8-8.4m89.6 190.4l-24-29.2 8-2.8-4 7.6" />
    <path fill="#6B8" d="M342.8 332.4l35.2-13.6-10.8 11.2 31.2-8.4" />
  </g>
</svg>