<svg version="1.1" viewBox="0 0 1024 448" width="1024" height="448" xmlns="http://www.w3.org/2000/svg">
  <g fill-opacity=".5">
    <path fill="#184" d="M607 219l2 5 13 22-46-32" />
    <path fill="#6B8" d="M850 315l50-11-33 37-15-38" />
    <path fill="#184" d="M966 177l-5-9-62-5 58 13m-786-10l8-4 18 27 12-15m-70-54l23-15-20-8 16 17m545 68l-11 32 28-7-26-29" />
    <path fill="#6B8" d="M812 310l-6 32 16-39 7 24" />
    <path fill="#184" d="M129 269l5 5 4-82-16 48" />
    <path fill="#6B8" d="M228 245l-10 36-9-47 30 62" />
    <path fill="#184" d="M107 345l-49-54 66 61 51 26m-56-254l12-41-3 43 1-5" />
    <path fill="#6B8" d="M884 184l2-5-3 20 40-24" />
    <path fill="#184" d="M938 150l6-32-30 34 10-20" />
    <path fill="#6B8" d="M239 302l9-30-16 35-7-133" />
    <path fill="#184" d="M139 260l-15-17 4-52-6 80" />
    <path fill="#6B8" d="M983 302l2 15-25-1 6 36" />
    <path fill="#184" d="M826 177l-27 5-7 5 15-38M164 284l8 27 6-5 43 26m-12-52l11-113 16 25-34 20" />
    <path fill="#6B8" d="M597 322l64 9 6 1-77-2" />
    <path fill="#184" d="M703 180l-7 57h13l-5-42" />
    <path fill="#6B8" d="M396 296l5 35 22-29 21 28M72 102l-21 15 11-21 78-11" />
    <path fill="#184" d="M360 163l38-19 18 29-6-32M133 358l-62-50 34 34 82 33" />
    <path fill="#6B8" d="M738 304v-24l-7 30-71-3M242 120l2 25 15-47-29 46m22 146l29-24-11-12v36m565 12l14 37-21-25-16-32M53 92l6 22 5 162-7-124" />
    <path fill="#184" d="M471 218l39 5-23 5-24 2m-183-64l-20 28 24-21V99m-6 113l-7 28-15-48-5 34m227 100l11-33-5-4 14 16" />
    <path fill="#6B8" d="M530 306l83 4-87 2-19-6" />
    <path fill="#184" d="M440 214l8 4 4-45-4-9M216 303l-35 26-71-23 95 16m383-139v-40l-12-17 6 64" />
    <path fill="#6B8" d="M579 326l36 8 33-45 2 26m59 21l-1-42 21 24-18 14" />
    <path fill="#184" d="M572 194l50 46-33-10 2-103m86 191l17 6v-15l-37 29M418 162l-3-24-10 45-18 2M117 328l3 5 37 14-28-19" />
    <path fill="#6B8" d="M693 162l-18-4-5-13 56 47" />
    <path fill="#184" d="M484 197l1 14 15-11-15-29" />
    <path fill="#6B8" d="M561 311l78 33-62-26 7 16m49-155l45-2 51-46-72 61m-545 32l6 22-10 51-3 17" />
    <path fill="#184" d="M608 239l25 5-46-26 3-1" />
    <path fill="#6B8" d="M818 170l-38 55 1-44-3 29M62 282l3-38v37l22 51" />
    <path fill="#184" d="M692 133l-10 12 47-12-6 13M180 328l-6-6 26-26-10-5m716-115l-9-25-8 9 18-18M346 296l6 8 94 8-53 1m400-8l7 9-2 11-4 17" />
    <path fill="#6B8" d="M515 345l-22-30 7 7 49 11" />
    <path fill="#184" d="M566 170l-11-15 51 47-12-2" />
    <path fill="#6B8" d="M130 215l-9-56-8 55-5-38m-25 42l5-30-22-13 3 63" />
    <path fill="#184" d="M404 173l-25 10-23 10 24-4m410-2l51 44-54-62-1 9" />
    <path fill="#6B8" d="M248 288l24-122-15 112-1-101m500 111l10 10v7l-11 5" />
    <path fill="#184" d="M690 190l1-19 31 71-4-19m-504 21l-3 18 10 6-2-102m13 162l24-27-13 13-56 36" />
    <path fill="#184" d="M203 192l31-4-10-24-5 42m724-80l-8-9-5 42-5 56" />
    <path fill="#6B8" d="M126 336l35-61-28 58-49-29" />
    <path fill="#184" d="M191 117l-9-25 8-2v23m71 207l-57 36-32 15 46-15m-70-241l16-35-22 32 2-4m444 10l17 27 6 17-7 5" />
    <path fill="#6B8" d="M953 287l-6 16v52l-1-11m-232-37l30 23-11-43-9 45m-573-77l16-2-6-10 67 16" />
    <path fill="#184" d="M934 212l-9 16-13 17-2-9m-742 62l-16 8 28-2-8-21m-46-53l28-10-49-27 20-32" />
    <path fill="#6B8" d="M66 158l4 70 22-27-8 22m384 95l-16 19-13-6 13-17M96 101l-18 5 18 23-3-6" />
    <path fill="#184" d="M156 202l-3-2-30 20 3 18" />
    <path fill="#6B8" d="M275 166l5 98 5-106 1-51" />
    <path fill="#184" d="M170 355l48-21 35-27-25 15M87 217l3 7-11 8-16-29" />
    <path fill="#6B8" d="M509 320l24-8 3 10-16-21" />
    <path fill="#184" d="M792 208l-1-2 10-46 12 12m-110 15l15-1-18-36-8-8m262 32l12-5-46-5-21-10M104 334l50 30 31 8-28 6" />
    <path fill="#6B8" d="M238 338l37-44 11-47-20 71m340 20l40-42 1 24-16-27" />
    <path fill="#184" d="M201 306l-53 24 87-32-55 42m-15-167l19-6-42 17 22-30" />
    <path fill="#6B8" d="M405 352l-5-50 5-4v20" />
    <path fill="#184" d="M556 163l48-19-10-17-17 16" />
    <path fill="#6B8" d="M66 145l78-1-19-12v1" />
    <path fill="#184" d="M342 300l33 7-29-14v4m159-68l14-65-32-25 29 17m-319 32l-17-34-11 8 32 17m761 132l1-3 7 15 4 35M710 140h-6l23-3-35 21M71 279l9-17-6 6-3-66m859 31l-12-72 11 37 8 11M153 322l-13-33 31 29 8-33m185-129l42-6-51 26 13-5M157 88l-8 8v12l-1 18m268 37l2-1-29 27-36 6" />
    <path fill="#6B8" d="M138 345l131-15-143 9 27-28" />
    <path fill="#184" d="M246 145l-22-7-31 8 42-2m-74 17l22-3-45 20v18" />
    <path fill="#6B8" d="M109 227l-3 75 5-31 6-84" />
    <path fill="#184" d="M267 174l3 4 4 33-3 27" />
    <path fill="#6B8" d="M148 223l106-16-107 10-25 23" />
    <path fill="#184" d="M818 226l26-2-50-30 7-20" />
    <path fill="#6B8" d="M287 146l-12 24-21 46-2-22" />
    <path fill="#184" d="M641 308l6 26 36-8-39 2m246-18l-25 9 33-12-12 33m-433-14l-18 2 31 8-10-15" />
    <path fill="#6B8" d="M214 322L75 299l30 10 97 2M128 82l70 1-20 53 13-45" />
    <path fill="#184" d="M176 209l-52-3 1-44-1 63m-14-110l13-18 10 8-7 14m856 197l-10 17-10 12 15-39m-789 42l-50-8 14-55-1 43" />
    <path fill="#6B8" d="M282 244l-12 29v-39l11 47m546 55l25-20v27l-52-43" />
    <path fill="#184" d="M380 183l6-69-7 149 10-39" />
    <path fill="#6B8" d="M291 136l-5-31h-3l2 36m395 20l-2-16-8 15 26 4" />
    <path fill="#184" d="M943 150l-47 6 36 19-20-14" />
    <path fill="#6B8" d="M555 326l33-22-14 18 37 10" />
    <path fill="#184" d="M537 329l-55-12 35 22 16-22" />
    <path fill="#6B8" d="M243 284l31-31-33 53 19 11m641-97l-15-40-4 33v-23" />
    <path fill="#184" d="M353 295l-7 11-4 2-4-6m-142-65l-14-59 25 55-39-15m38 96l-91 15 103-21-7-3" />
    <path fill="#184" d="M174 298l-8 12-15-6-42 36m399-177l-50 23 49 1-37-17" />
    <path fill="#184" d="M477 161l14 49 2-11-10-56M169 371l69-27-10-4-35 23m178-68l19 19-6-5-14 13" />
    <path fill="#184" d="M521 154l-27-11-12 11-14-7" />
    <path fill="#6B8" d="M149 82l5 36 22 4-20 3m410 175l-43 26-11 11 57-46M85 181l7 89 17 39-27-81m-23-88l49 2 27-4-25 9m600 168l8 12 7-26v39m-505-98l-14-40 10 10-11 58" />
    <path fill="#184" d="M553 220l37-33-6-44-5 59" />
    <path fill="#6B8" d="M278 101l-51-11-24 36 19-42" />
    <path fill="#184" d="M946 303l2 33 8-1-4-33m-28-132h8l-25 13-11 3m-322-14l10 20 24-51-3 22" />
    <path fill="#6B8" d="M499 298l-17-4 26 32-8-4M169 83l-1-5-106 22 76-20" />
    <path fill="#184" d="M932 208l-34 6 51-5 1-2" />
    <path fill="#6B8" d="M279 162l-1 136 7-143-31 49" />
    <path fill="#184" d="M467 197l49-51-57 42 23 12m212-64l-7-4 23 70-19 10" />
    <path fill="#6B8" d="M480 182l-17 70 6-37-7-3" />
    <path fill="#184" d="M485 144l-15 48 1 13 19-68M187 378l-41-11-21-7 5-9" />
    <path fill="#184" d="M169 381l-4 4 18-8-75-39" />
    <path fill="#6B8" d="M73 238l31 50 62 60-64-59" />
    <path fill="#184" d="M578 318l-6 2 8 12 4 1M382 156l-1 67v34l4-75m-131 13l11 22-16 4 17 13m547 105l-1-31-8-2 5 13M598 133l-39 22 35 6-7 31" />
    <path fill="#184" d="M384 132l-7 37 24 14-14 7m311-15l18 21-13 37-2-34m-53 129l-10-1 12-35v40M199 88l17-4-102 3 78-5m58 247l-35 26-17 13-32 8" />
    <path fill="#6B8" d="M754 303l123 17-118-17 13 49" />
    <path fill="#184" d="M580 180l-13-14-9 1 52 34" />
    <path fill="#6B8" d="M146 255l5 9-3-30-4-44" />
    <path fill="#184" d="M215 242l8-84-14 74-8-60" />
    <path fill="#6B8" d="M690 309l-4-8 10 7-13 40" />
    <path fill="#184" d="M533 315l-3 3 1 14 4 11m-17-165l-7 5-6 37 13-14m71 16l29 20 2-4 3-2m-445-10l6-2 26-16 8 18" />
    <path fill="#6B8" d="M168 305l-59 40 186-106-120 69m11-86l-38-71 34 64 53 24" />
    <path fill="#184" d="M956 128l-68 81 2-35v32m-189-27l-1 57 19-100 5 1M69 222l24 20-19-60 6 2" />
    <path fill="#6B8" d="M869 306l-13 19 20-7 2-13m-626-47l15-61-31 115v-19" />
    <path fill="#184" d="M445 206l12-34-8-15-6 17M202 84l29-1-96 2h87m700 139l-10 14 14 2-2-12" />
    <path fill="#6B8" d="M150 244l36 4 31-40-37 50m201 34l-3-8-7 49 2-42" />
    <path fill="#184" d="M699 222l27-4-24 24-8-4" />
    <path fill="#6B8" d="M399 330l53-8-80 10 61 1" />
    <path fill="#184" d="M594 197l19 5-21 3-12-57m350 54l-1 6-30 15 7-12" />
    <path fill="#6B8" d="M885 325l24 5 47-13-68 14" />
    <path fill="#184" d="M486 210l3-34-7 2 26 11m269-21l17 17 36 27-43-27m99-47l63 46 4-14 3 19" />
    <path fill="#6B8" d="M392 330l-52-1-8-11 8 6m-96-32l16-34-18 25 38-5" />
    <path fill="#184" d="M113 220l-1 38-2 30 2-77m291 123l-4-12-12 8-1-18" />
    <path fill="#6B8" d="M81 224l-35 43 30-40 21-46" />
    <path fill="#6B8" d="M62 276l-3-42 15-58-3 30" />
    <path fill="#184" d="M236 303l-10-71 6 4 2 61m-96 11l-15 24 32-26-21 7" />
    <path fill="#6B8" d="M680 170l-28 10 114-25-68 8" />
    <path fill="#184" d="M770 330l-10-37v27l14 15" />
    <path fill="#6B8" d="M225 174l-33 46 38-52-2 45m24-80v5l-4-38-4 37" />
    <path fill="#184" d="M597 169l9-15 1 1 3-19M269 308l9-47 1-49 1 67" />
    <path fill="#6B8" d="M87 177v61l-4 28 3 11" />
    <path fill="#184" d="M830 164l-26 33 15-19-51 4M81 320l87 58-60-34-47-63m798 38l18-11 7 15-16-16M184 121l4-11-2-6-14 102m414-62l6 37-22 23 8-74" />
    <path fill="#6B8" d="M780 291l-1 46-5 19 14-52m-609 43l-56-39-61-33 56 26m388 40l6-1 37-27-19 33M149 210l-94-34 71 27-1-7" />
    <path fill="#184" d="M168 213l43-6-77 1-10 12" />
    <path fill="#6B8" d="M443 305l-2 27 19-8 3-20" />
    <path fill="#184" d="M930 174l-4 42-3-33 4-1M190 321l-37 4 11 28-28-10m281-199l-42 15 11-11 32 11M204 84l-60-2-67 14 38-12" />
    <path fill="#6B8" d="M682 308l-163 6 153-8 58 5" />
    <path fill="#184" d="M125 219l-1-25-2 81 6 2" />
    <path fill="#6B8" d="M224 248l8 29 2-81-4 37" />
    <path fill="#184" d="M471 216l5-10-7 21 38-1m36-3l22-8 43-70-48 78m-364 83l30 33-46-40-43 9m-66-98l1-18v60l-2 18" />
    <path fill="#6B8" d="M80 284l-13-6 29 37-15-24" />
    <path fill="#184" d="M500 193l-22 1 12-31-32 32m-270-70l-1-4-2-17 5-12" />
    <path fill="#6B8" d="M332 300l15 31-5-5-7 4M77 96l-30 14 10-7 91-23" />
    <path fill="#184" d="M250 227l7 59-6-44 23-88" />
    <path fill="#6B8" d="M227 120l-15-16 4 14 19 5" />
    <path fill="#184" d="M572 147l42-2-28-5 3 37M340 318l-4-22 59 15-54-15m151-156l-13 32 3-4-11-19m454 176l-18-15 13 22 6-4" />
    <path fill="#6B8" d="M48 108l40-15 6 32 14-41" />
    <path fill="#184" d="M145 363l34 4-10 14-37-26" />
    <path fill="#6B8" d="M278 276l-3 13-25-4 23 16" />
    <path fill="#184" d="M466 229l4-29-3-8 15-23" />
    <path fill="#6B8" d="M150 310h12l-32 28 34-51m385 21l-42 8 7-11 30 6" />
    <path fill="#184" d="M186 84l-53-1-37 7 18-4" />
    <path fill="#6B8" d="M718 226l-52 3 66-46-57 44" />
    <path fill="#184" d="M722 312l-11 23 17-23h9m-536 32l-45-24 38 29-36 5m534-46l-29 24 12-1 23-27M593 136l4 2-38 24 3-7m-64 167l-6-32 9 22 9 26m434-127l-10-11-9 28 10-16m-146-36l4 28 20-53-33 37" />
    <path fill="#6B8" d="M848 332l-8-20 12 18 56-32m-341 21l6-4-13 30 6-45" />
    <path fill="#184" d="M248 287l-6-13 21 10 4 6" />
    <path fill="#6B8" d="M951 297l-11 5 47 20-72-32" />
    <path fill="#184" d="M124 309l9-2 49 31-12-14" />
    <path fill="#6B8" d="M783 310l1-28-8 58 8-14" />
    <path fill="#184" d="M207 364l58-48-84 58-26-2m449-37l12-13 4-24 2 28M509 203l-50 11 35-23-16 14m428-59l8 18 37-18-52 11m-504 34l11-23-6-26 17 12m-252 13l-9-5 49 32 19 3" />
    <path fill="#6B8" d="M907 334l12-13-4 9h45" />
    <path fill="#184" d="M353 197l12-12-11-6-2-20" />
    <path fill="#6B8" d="M112 300l-41-58 78 128-47-75m561 13l-93 5 4 15 3-19" />
    <path fill="#184" d="M475 180l-4-6 16-10 34-12m201 6l-18 6-42 14 68-18" />
    <path fill="#6B8" d="M113 321L75 217l32 79 6 16m85 12l-73 12 1-3 56 16" />
    <path fill="#184" d="M724 225l-29-16-2-80 11 100M60 187l4 100-2-6 3-9m35 60l43 38h41l-65-16" />
    <path fill="#6B8" d="M661 349v-47l3 20-3 12" />
    <path fill="#184" d="M144 307l19 14 1-9 11 23m613-115l12-52 19-2-39 48" />
    <path fill="#6B8" d="M177 96l7-13-12 23 35-8m367 220l-13 15-1-2 4-24" />
    <path fill="#184" d="M582 132l28 19v-16l-35 31m-395 52l18-3 23 11-5-10" />
    <path fill="#6B8" d="M82 291l-8-12-7-4 22 11" />
    <path fill="#184" d="M138 332l41-7-54 7-29-20" />
    <path fill="#6B8" d="M703 329l-129 4 151-7-80 10" />
    <path fill="#184" d="M67 289l23 40 28 14-26-9" />
    <path fill="#6B8" d="M184 321l-16 21 93-67-63 51" />
    <path fill="#184" d="M448 205l-13 8 8-25 7-27" />
    <path fill="#6B8" d="M127 228l12 12 30-22 8-5m208 96l12 25-6-19-2-5" />
    <path fill="#184" d="M386 249l-1-9-7-125 4 136" />
    <path fill="#6B8" d="M58 198l2-72-4-13 6 37" />
    <path fill="#184" d="M936 168l-37 12 12-2 54-13m-700 33l-3 14-1-17-5 87M151 173l-14 21 29-20-6-11m-4-68l4-15-11 41 6-2m3 249l49-8-45 12 10-10" />
    <path fill="#184" d="M915 177l-22 12 27-10 15-11" />
    <path fill="#184" d="M888 182l10 1-16 13 5 11" />
    <path fill="#6B8" d="M254 108l-16 3 25-20-19 35m29 107l-9 63 13-54-5 9m538 69l-3-20-22 14 28-5" />
    <path fill="#184" d="M840 220l-54-41 51 53-14-29" />
  </g>
</svg>