<svg version="1.1" viewBox="0 0 1024 448" width="1024" height="448" xmlns="http://www.w3.org/2000/svg">
  <g fill-opacity=".5">
    <path fill="#184" d="M231 231l-52-87-58 43 1 52m589-112l-6 127-19-112-32 47m149-2l19-10 2-16-51 15M203 294l-43-5-27 34 29 27" />
    <path fill="#184" d="M793 179l58 51-21-1-36-40m-408-71l6 79-14 69 1-78M52 144l8-16-2 8 242 9" />
    <path fill="#6B8" d="M226 159l-28 60 2 21 39 73" />
    <path fill="#184" d="M885 223l51-36-6 16 24 7" />
    <path fill="#6B8" d="M452 230h59l3-70-15 58" />
    <path fill="#184" d="M171 378l-12-6 52-22h24" />
    <path fill="#6B8" d="M679 159l70-4-98 32 53-63" />
    <path fill="#184" d="M780 185l22-36 30 25-29 11" />
    <path fill="#6B8" d="M253 136l-148 9 194 1-35-8" />
    <path fill="#184" d="M713 210l3-68-28-2 14 117m-449-57l9-26 14 9-27 130m325-119l5-60 16 96 47 21" />
    <path fill="#6B8" d="M878 164l94 4-39 44 23-41" />
    <path fill="#184" d="M432 143l-38 35-12 90v-64" />
    <path fill="#6B8" d="M990 297l-27 57-19-68 1 43" />
    <path fill="#184" d="M224 205l-18 15-16-65-51 16m-5-47l-54-15 4-1 49-2" />
    <path fill="#6B8" d="M330 332l26-44 6 17-28-17M266 92l-29 47 10-53-82-2" />
    <path fill="#184" d="M185 348l-67-39 58 7 53-15m272 11l-11-25-8 46 28-18" />
    <path fill="#6B8" d="M670 220l20-9-9 30m-29 77l-22 19v-47l29 14" />
    <path fill="#184" d="M210 225l-106-20 118 5-4 71m722-170l-20 52 2 32 19-46" />
    <path fill="#6B8" d="M230 78l-55 6-109 16 32-15" />
    <path fill="#184" d="M172 376l-51-18 13 11-34-36m600-124l-14-75 12-6 18 103m-275-54l8-6 8 11-9 52m-312 0l-18-64-8 34 117 3m159 41l-10-67 6-63 4 76" />
    <path fill="#6B8" d="M730 294l88 10h56l9 30" />
    <path fill="#184" d="M376 192l-20-26v-10l-9 35" />
    <path fill="#6B8" d="M277 137l-159 8-24 3-45-6" />
    <path fill="#184" d="M508 209l6-57-2 54-3 20m80-24l6-85-5 45-48 72m386-32l19 7-38 30 23-5" />
    <path fill="#6B8" d="M677 179l52-48-6 16-81 39" />
    <path fill="#184" d="M247 330l42-31-126 84 46-20m185-165l-8-30 21-30-35 22M90 224l-10 21-12-41 8-36m368 54l22-74 43-6-56 25" />
    <path fill="#184" d="M109 347l89 25-34 10-49-42" />
    <path fill="#6B8" d="M969 188l-22-29-42 29-10-34m-738 29l2-90-15-11 22 80" />
    <path fill="#184" d="M224 163l-20 75 2-25 28-16" />
    <path fill="#6B8" d="M147 248l23-1 14-7 1 21" />
    <path fill="#184" d="M814 160l-38 72 40-59-36 17m-657-7l1 90 24-82 22 36m301-85l-1 59 16-15 14-41" />
    <path fill="#6B8" d="M338 288l33 24 99-8-43 15" />
    <path fill="#184" d="M896 218v-14h53l-43 17" />
    <path fill="#6B8" d="M168 345l-77-61-5-66 10 61" />
    <path fill="#184" d="M411 152l19-5-1-2-54 66" />
    <path fill="#6B8" d="M340 296l15 61-26-57 57 13" />
    <path fill="#184" d="M174 160l-38 11v17l70-11m5-90l41 4-59-11-47 4m641 134l16-65 9 6-10 28M238 343l40-55-7 20-90 69m607-53l-24 9-3-2-1-8M504 193l-10 18-9-65-27 45" />
    <path fill="#184" d="M789 190l37 17 29 18-15 1M232 329l-89-35 32 33 10 22m295-7v-30h21l-4-18" />
    <path fill="#6B8" d="M597 310l-88 22 18 19 17-29m-291-53l-60 66 81-77-24-72M86 323l32 37-28-42-31-34" />
    <path fill="#184" d="M489 237l26-36-1-48-5 67m43 10l30-38 11-50-8 10" />
    <path fill="#6B8" d="M120 161l-12 131 4-86-3-28m88-71l-18 15 5-23 12-7M59 97l34 2-3 37 14-45" />
    <path fill="#184" d="M684 227l24-63-14 23-20 51" />
    <path fill="#6B8" d="M209 81l65 13 12 34-1-21" />
    <path fill="#184" d="M207 183l15 60-7 36-39-124" />
    <path fill="#6B8" d="M885 298l73 34-35-2-5 6" />
    <path fill="#184" d="M464 163l-18-4 7 61-16-2" />
    <path fill="#6B8" d="M490 315l28 9v-8l-50 20m-221-51l23-123 11 31-29 2" />
    <path fill="#184" d="M512 161l-52 29 20-21 25-11" />
    <path fill="#6B8" d="M435 335l31-17v-2l-15-14" />
    <path fill="#184" d="M378 172l4-45 2 141-5-50M100 318l60 30-17-61 63 54m706-189l5 23 12 42-8-76M659 335l7-29-22-3 44 29" />
    <path fill="#184" d="M382 188l-35-1 8 11 48-24" />
    <path fill="#6B8" d="M512 310l138-4 1 29-19-32m-186 21l25 11-107-12-42 15m-49-104l4 21 1-39-2-27" />
    <path fill="#184" d="M787 308l-9-14v32l8-7m-74-174l-20 21 44-42-31 20m-323 3l12-3 20 6-46 15" />
    <path fill="#6B8" d="M235 134l61 7-177 3-48-5m895 163l-11 3-173 3 182 2" />
    <path fill="#6B8" d="M958 308l-9-9-39 31-6 10m-308-28l-23 2 13-11 49 30" />
  </g>
</svg>