<svg version="1.1" viewBox="0 0 1024 448" width="1024" height="448" xmlns="http://www.w3.org/2000/svg">
  <g fill-opacity=".5" fill="#1BA">
    <path d="M581 204l13-18-2 86-9-18" />
    <path d="M591 186l-13 5v10l15 49m-189-91l55-3v18l-58-14m127 115l-49-13 68-4-3-28" />
    <path d="M378 176l78-20-40-2-50 54m376 3l8 2-54-29 49 10m-624 59l-30 18-13-35 42 30m400-81l34 51-18 31 17-63" />
    <path d="M540 251l-27 20-29-14 51 11m373 45l19-34v-5l-27 34m-502-39l47 8-36-11-33-42m279-16l-1 21-8 38-4-47m225 42l-7-13 22 23 25-8m-112-39l-17-18 37 35 25-2m-103-14l5 7 1-33v85M85 262L84 98 62 227l8 26m460-66l-23 5 21 11 29 21m18 21l10 23-1-51 7-2m-375-19l-56-2-12-15 51-1" />
    <path d="M924 231l-6 65 8-110-18 2m-536 57l1-42 1 17 31 40M60 99l33-3-28 91 18 55m203 99l-96-2-51-29 37 44" />
    <path d="M106 99l47-3-95 18 122-21m-12 257l-19-32 16-131-1 89m256-2l41-2-96-26 41 8" />
    <path d="M125 102l-55-5 28 19 142 4m450 146v-82 41l9 33m-227-26l12 44 2-62-8-8" />
    <path d="M740 204l-54-14 10 93-16-96m-276 84l-38-72 27-35-19 84m408 31l51-23-5 4-10 8m-627 87l103-4 21-17-87 1m329-119l-32-16-39-1 30-11m450 62l-12-4 10-107 7-1m-187 62l2-6 21-8-23 29" />
    <path d="M754 280l88-28-33 26-25-6m-23-74l-74-6 5 34-12-31m-521 58l79 9-37 6-37 7m-88-10l2-29 44 32-16 9" />
    <path d="M830 270l-4-41-11-3 8 29M156 98l69 13-131 7-28-14m474 168l-59-15 23 17 22-1m-222-93l-40-1-3 2 61 37m49-26l-3 40 28-60 5 6m73 36v-9l30-9-26 44m-255-20l-2-75 17-10-15 140" />
    <path d="M316 191l-52 9-1-8 12-16m-29 98l-104-19 74 14 17-91M61 197l7 55 13-41 7-103m776 142l5-12-5-31-6-19" />
    <path d="M319 232l3 71-3 56-27-181m401 9l-8 31 5 62 7-9m-268 2l-44-10 83 6-19-15m143-61l-12 42 15-51 4 40M199 109l-6-13 43 26 3 42m486 32l19-7-2 65 12-46m90 32l-35 35-31-13 30 8m-261-16l-6-62 19 53h-5m-407 82l4-121-14 3 27 28m617-36l15 27-17-33 30-15" />
    <path d="M165 328l-4-138 26 6-46 7m721 109l-10-19 38 19 31-18" />
    <path d="M169 350l-23-175-5 10 20 124m332-37l-11-14 48 9 14-8m319-20l-9-49 25-3-7 5m-394 61l-5-17 17-44 2 9m342 61l-44-44 40 36-50 21m-492-91l31 105-2-62-10-45" />
    <path d="M142 187l72 11-46-15-21 156m594-149l-62 8 78 5-58-10m288 68l-24-7 19 16 8-4m-102-4l16 13-22-9 47-12m-347 13l29 11 25-15h-22m245 33l1 13 14 3 18 2M182 98H54l72 14 27 9m372 145l27-25 6-6 7-18m-74 57l-11-66 28-22-21 23m-106 36l1-6-2-45-14 30m58-52l-9 1 6-14 33 5" />
    <path d="M240 185l3 75-92 8-2-92m-90-70l25 30v130l8 6m550-10l4 1-24 11-10-12m308-45l-4 73-2 15 16-27" />
    <path d="M926 246l-4-23-8-31 9 16m-167 32l-19 37 3-13 8-10M84 158L69 95l-5 116 22 60m351-117l-43 30 5-17 55-7m196 100l-6 2-4-43 14-31" />
    <path d="M61 240l44 35-6-27-32-7m37-125h62l39-20-132 24m547 114l121-54-25 6h11" />
    <path d="M742 213l-30-31-22 24 42-21" />
    <path d="M690 264l5-57-13-8-4-3m-375 51l2 67 19-30-10-40m91 28l23 5-53-45 7 14m577-102l5-4 2 94-12-55m-209 94l9-1-11-76v42M163 112l75 18-27-30-35-2m296 137l3-4v-18l17 51m-336-89l93 34-95-21 88 17m618 40l16 33-15-86-2 52m-216 17l-38 14-15-9 30-2" />
    <path d="M474 248l19 20 21 4-43-46" />
    <path d="M510 274l48-30-6-31 3 25m29 7l-5-6 12-47 4 5" />
  </g>
</svg>