<svg version="1.1" viewBox="0 0 1024 448" width="1024" height="448" xmlns="http://www.w3.org/2000/svg">
  <g fill-opacity=".5" fill="#1BA">
    <path d="M126.8 326.4l234.8 12.4-180.8 23.6-29.2-190" />
    <path d="M63.6 86.8L289.2 122 98.4 110 60.8 258.4" />
    <path d="M238.8 92.8L250 304.4l-51.2-186L38.4 116m256.4 52.8l33.2 52.8-7.6 137.2-20.4-16.4" />
    <path d="M96.8 249.6L64.4 89.2l2.8 180 212 8.8" />
    <path d="M344.4 184l-226 22 24.4-10.4-7.6-21.2" />
    <path d="M216.8 252.8L99.2 272.4l144.8 4.8L231.6 122m376.8 158.8L542 192l4.4 77.2L597.2 166m-119.6 34.8l30.4 91.6-44.8-59.6 68-47.6m419.2 32.4l9.2-73.6 6 26.8 11.2 128M911.6 268l-6.4 73.2 25.2-84.8-18.8-86.8m-233.2 15.2L880.8 200l-179.6-4.8-10.8 114m-527.2 18.4l150.4 11.2 26.8 18.8L138 344" />
    <path d="M578.4 264l68.8-.4-12-118 25.2 130.8m-395.2-87.6l6-17.2 28.4 8.4 10.8 37.6m428-24.4L742 256h10l3.6-58m-581.2-7.2L144.8 174l-6.4 116.4 17.6 52m817.6-67.6l34.8 2-52.4-43.6 13.2-86.4m-582 121.6l60.4-5.2-26 11.6-62.8-76m480 46l-53.2 19.6-2.4 12.4 42.8-4m36.4 30l-2.8-119.2 13.6 4.8-18.4 142.4" />
    <path d="M603.6 275.2l51.6-4.4-8.4-101.6-14 93.6m224.4 50l66-5.6L926 210l1.6 69.6m-712.8-72.8l27.6 76.8 10-118.4-28-64" />
    <path d="M195.2 92.4l52 48-64-17.6-123.6-9.6m772 142.4l-98-57.2-26.8-4 116 35.2m-270-28.8l-82.4-3.2 64.8-9.2 18 92.8m-250 44.4l-3.2-89.2L328.4 348l-86.4 9.2m161.6-195.6l26-11.2 44 12.8-33.2 10.4" />
    <path d="M470 250.8l59.6 39.2-62-71.2 48.8-44M329.2 345.2l-10-154-48.8 10.8 12.8-38.8m411.2 83.2l-13.2 28 3.2-82 12.8 13.2M66.4 251.2L61.6 86l22 12.8L88 278.4m881.2-3.6l-2.8-144.4-11.2 15.6-.4 66M224 258l-73.2-12-.4 98.8 24-76.8" />
    <path d="M481.2 241.6l30.4 20.8 50.4-18.8-42.4 34.8m-56.8-23.2l-57.2 7.6 18 16 42.8-6.8m309.2-67.6l6-17.6 60 2.8-66.8 17.6m-188 70L579.6 176l17.2 23.6-2.8 52.8M926.8 274l-9.2 34-8.4-114.8 20.4-6.4" />
    <path d="M937.6 270.4l-60.8-11.2L852 144.8l12.4 131.6" />
  </g>
</svg>