<svg version="1.1" viewBox="0 0 1024 448" width="1024" height="448" xmlns="http://www.w3.org/2000/svg">
  <g fill-opacity=".5" fill="#1BA">
    <path d="M138.4 304l82.4 48.4-64-.4-2.8-86.8m471.6-81.6l32.8 10.4-18.8 68.8 3.2-65.2m-263.6-25.2l-16 49.6 37.6-44.4 32.8-22m-220.8 39.2l-42 8-29.6-30.4 75.6 12m624.8 124.8l26.8-8 39.2-4.8-15.6 18.8M473.2 188l8.4-6.4-57.2-16.8 32-10.4M68 261.2l54.8 23.6-8.4-19.6-38-28.8M583.6 268l4-4 45.6 18.4-55.6-46m276.4 4.4l55.2 28.4 15.6-16.8-53.2 20m-666-172l13.6.8 29.2 42.8-18.4 37.2m525.6 93.6l-16-12.8 11.2-36 6-12.8m-201.6-6.4l-80.8-15.6 38-5.6 28 4" />
    <path d="M321.6 330L152 341.2l39.2 11.2L294 358m477.6-128l44.8-42.8 23.2 15.6-63.2-6.4m222.8 66l-50-28 3.2-2 14 55.2m-825.6-11.2l103.2.4 1.2-43.6-47.2 34.4m330.4 6.8L476 262.8l78.8-.4 4-45.6M67.6 109.6l126-14.4-2 20.8-81.6 5.6" />
    <path d="M154.8 334l-10.8-2.8 31.2-156.4-34 6.8m260.4 91.2l15.2-1.6-3.2-13.2-46-25.2m318.8-35.2l32.8-15.2 22.8 14-62 8.8M322.4 350.8l-23.6-11.6.8-159.6 21.2 37.6" />
    <path d="M260.4 195.2l2-6 52.4.4 8.8 27.2m574 89.6l41.6-27.6-47.6 42.8-30.4-25.2M810 239.6l23.6 12-57.2-50.4 6 22" />
    <path d="M780.4 270l49.2-24.8-4.8 25.6-52.4-7.6M60.8 99.2L87.2 278l3.2-162 116.4-17.6m36.8 104l-2.8 54 2.8-95.6-78.4 33.2m791.2-26l-4-24.4 10.4-5.2 5.6 47.6m-6.8 48.8l25.6 42.8-24.4-13.2-11.2-16.4m-170-26.8l14.8-36.8 33.2 6-46.8 13.2m-94-8.4l8.4 68.8-14 15.2 2-99.6m-492 75.2H166l-1.6 22.4 68.4-18.4M580 247.2l14.8-68.8-11.6 85.2 40.8 6.8m-94.4-76.8l29.2 54.4-14 14 15.2-42" />
    <path d="M131.2 278.8l-38-6.8-26.4-108.8 9.6 65.6m290-25.2L424 164l-21.6-1.2-35.2 78.4m98.4-17.2l26.4-19.2-10.4 54.8 7.2-3.6m292-38.4l52.8 14 .4 36.8-30.4-38.4m83.6 48.8l8.4-4.8 26.8-10-45.2-4.4M320 262.4l3.2 22.4 3.6 70-32.4-2m-62.8-140.4l-22-115.2-120.8 3.2 151.6 30.8M642.8 188l-5.2 7.2 14 58 4-63.2M816 271.2l-40-8 .8 15.2 2-2.8m-610 37.6l17.2 44-35.2-14.4-4.4-161.2M484 263.2l56.4 5.6 10.4-30.8-32.8 37.6m46.8-41.2l-9.6-2.4 3.2-27.2-50-18.4m367.6 2.4l-20.8 12.4 4.8 67.2 13.2-56" />
    <path d="M481.6 204l27.2-16.8 22.8 1.2-42 22M806.8 190l26 19.2-.8-16.8-19.6-3.2m-498.8 12.4l-41.6-6.8-8-22.8 20.8 6m567.6 118.4l5.6 16.8 81.2-4-91.6-9.6" />
    <path d="M877.6 311.2l36 1.6-17.2-6.4-44.4-6" />
    <path d="M923.6 274l-10.8-76.8 17.2 84.4-45.2 40.8m-770.4-43.2L87.2 270l9.2-18 24.4 5.6m524.8 2.4L634 192.4l20.8-11.6-3.2 22.8m-432.8-98l23.6 16.4 3.2 24.4-10.8 110.4m187.2 2l-16 4.4 46.8 14.4 8.8-12.8M780.4 280l29.2-14-35.2-13.2.8 10M312 354.4l14-28-128.8 8.8 43.6 15.6m226.8-172l-4.8-15.6-64.8 4 15.6-13.6" />
    <path d="M250.8 348.4L184 328l-28.4 3.6 76.8 19.6m-74-158l66-16-51.6-2.4-24.4 126m-61.2-116l-12 79.6-12-67.6 25.2-87.6m282 144.4l14.8-73.2.4 76.8-10.8-51.2" />
    <path d="M140.8 173.6l90.4 20.8-81.6 6.8-5.2 12" />
    <path d="M150 334l-7.6-77.2 20.4-49.2 2.8 142.4M920 178l6.4 115.2-21.6-31.2 22.4-19.2m-416.8-59.6l-38 44.8 12.4-33.2 59.6-3.2M969.2 276l29.2-12.4-41.2 2 1.6-77.6m-148 86l28-28.8L782 228l46.4.8m-606-20.8l-1.2 64.4 8-8.8 15.2-50.8" />
    <path d="M152.8 252.4l-11.6 58.4 66.8 38.8-51.6-40m578-20l18.4-40.8-1.2 25.6-8.8-28.4m-351.2-67.2l69.2-21.6 8.4 22.4-71.2-22.8m492.4 158.8l-20-2-19.6-20.8 2.8-3.6" />
    <path d="M307.2 357.2L280 339.6l-95.2-6 14.8 4m553.6-144.8l-4.8 95.6-4-38.4 2.4-52m176.4 31.6L912 302.8l6.4-122.8 10.4 23.2m29.2-24l-4-40.4 14.4 2.4.4 36.8m-368 98l-19.2-16.4 1.2-60.4 15.6 58m375.2 2l26.4 7.2-14 6.4-24-4.8m-105.2-75.2l22.4 76-18-4.8-7.6-16m-472.8 8.8l3.6-64-10.8-10.8-7.6 57.2" />
    <path d="M754.4 226.8l1.2 2-17.2-43.6 14 87.2m-212.4-34l12.4 8.8-65.2 28 62.8-10m30.8-8.4l59.2 2.8-10.8 9.2-15.2 10m-368.8-62.4l-.4-54.8-26.4 104 18.8 6.4m-8.8-123.6l10.4 1.2-41.6-34.8 7.6-20.8m661.6 113.2l-.8 24.8-10.8 10.8 17.2 18.4m-725.2 67.2l-6.4-35.2 9.6-59.6 14-41.6" />
    <path d="M163.2 250.4L142.8 336l.4-133.2 24-21.6M82.8 98.8l-19.2 6.4 171.6 8.4-8.8-9.6" />
    <path d="M67.6 130l.8 106.4L58.8 128l106-30m530 140.4l6.4 53.6-12.4-40.8-.8-25.6M649.2 268l-8-92.4-1.2 71.6-4.8 21.6m113.6-20L732.4 192l28 21.6-16.8 13.2m-570.8 28.8l46.4-1.2 28.4 18.8-92 .8m139.2-99.2l24 117.2-11.2-86.4-44.8-9.6" />
    <path d="M297.6 342.4l24-136.4-1.6 150.8-23.6-1.2" />
    <path d="M318.4 333.2l2.4-134-53.6-21.6 47.6 13.2m-96 24.4l9.6 20.8 8-56.8-4.4-58" />
  </g>
</svg>