<svg version="1.1" viewBox="0 0 1024 448" width="1024" height="448" xmlns="http://www.w3.org/2000/svg">
  <g fill-opacity=".5">
    <path fill="#FFF" d="M260 197.6l-127.6-17.2 169.2-21.6-2.4 160" />
    <path fill="#790" d="M200.4 373.6L92 303.6 343.6 274l-14.4 49.2" />
    <path fill="#8A0" d="M330.8 164.8L336 140 211.6 74.8 84.4 167.2" />
    <path fill="#FFF" d="M122.4 304L230 182l-2 130.8-82.8-139.6" />
    <path fill="#8A2" d="M935.2 151.6l-17.6 22.8 12 133.6 16-153.6" />
    <path fill="#9B0" d="M189.2 188.4l41.6 186.4L99.6 141.2 68.8 266" />
    <path fill="#FFF" d="M132.4 164.4L328 181.2 163.6 190l-20.4 122.8" />
    <path fill="#8A2" d="M703.2 260.8l4.4-110 17.6 14.8-2.8 149.2" />
    <path fill="#9B0" d="M267.6 133.6L286 104l61.2 68.8-4.8 123.2" />
    <path fill="#8A2" d="M611.2 301.2l14-86.8 155.6-10.8-181.6-8.8" />
    <path fill="#8A0" d="M138.4 346l98.4 22 100.4-60.8-245.6-31.6M306 119.2l-85.2-34.4-89.6 36-51.6 70" />
    <path fill="#FFF" d="M200 188.4l22.4 121.2 4.4-116 58-22.4" />
    <path fill="#790" d="M476 290.8l-5.2-26.8 1.6-81.2 21.2 114.8" />
    <path fill="#8A2" d="M868.8 291.2L858 199.6l65.6-3.2L842 230" />
    <path fill="#8A0" d="M229.2 240.4l28.8 118 14-161.2-28.4-16.4" />
    <path fill="#FFF" d="M280 295.2L271.6 170l19.2 19.6 4.8 101.6" />
    <path fill="#8A2" d="M461.6 224.4l80.4-24 6.4 110.8L523.6 186M848 276l64.8 24 6.8-58.8 21.6 48.4M838 278l-38.4-88.8 42.8 41.6-52.8 68M784.4 196l-27.6 79.2-11.6-35.2 22.8-42.4" />
    <path fill="#9B0" d="M110 122.4l25.2-9.2L132 296l-54.8-20m80.8-64.8l25.6-32L216 206l-55.6 140.4" />
    <path fill="#AC0" d="M310.8 181.2l28.8-37.2 10 148.8-64.4 43.6" />
    <path fill="#8A0" d="M84.4 292l98 72 89.6-12.4 52.8-66" />
    <path fill="#8A2" d="M782 302.4l66.4-52-42 45.6-72-46.8" />
    <path fill="#FFF" d="M215.2 280.8l10.8.4-.8-80.4-32.4-55.2" />
    <path fill="#8A0" d="M128 113.6l94 68.4 66.8-58.4-51.2-36.8" />
    <path fill="#9B0" d="M263.6 178.4L226 238.8l42 58.8 11.2-79.6" />
    <path fill="#FFF" d="M144 170l-6.8 15.6-2.8 120.4 23.6-28.8" />
    <path fill="#8A2" d="M814.8 254.4l-51.2-8-16.8-17.6 78.8 8.8m-294.8-46.4l-.4 112 19.2-101.6-115.6 16m508.4-1.6L854 202.4l68 3.6 1.6-53.2m-40.4 144.8l16-10.8-45.2-23.2-6.4 10" />
    <path fill="#9B0" d="M101.2 308.8l-27.6-62 22-54L168 339.6M356.4 252L210 82.8l70 20.8 42.8 25.6" />
    <path fill="#8A2" d="M465.2 201.6l19.6 77.6 2.4-50.8 3.2-6m316-29.2l-42.8 12.4-16.8 29.2 55.6-34.4M710.8 236l-1.6-67.2 9.2-12.4 10.8 158.8" />
    <path fill="#FFF" d="M273.2 284.8l13.6-74 9.6-30 .4 98.4" />
    <path fill="#8A2" d="M668.4 205.6l6.4-9.2 10.8 76.8-14.4 30.8M409.6 196.4l25.6 15.2-24.8 90.4v-89.6" />
    <path fill="#8A2" d="M572.8 282.8l8.8-117.6H722 565.6" />
  </g>
</svg>