<svg version="1.1" viewBox="0 0 1024 448" width="1024" height="448" xmlns="http://www.w3.org/2000/svg">
  <g fill-opacity=".5">
    <path fill="#790" d="M118.4 330l212.4-13.6-66 40.8-52 8" />
    <path fill="#8A2" d="M864.4 195.2l.8 84.4-12-12-4.8-30.8" />
    <path fill="#9B0" d="M214.4 90.4l-48.8 86.4L94 149.2l66-52.4" />
    <path fill="#FFF" d="M136.4 212l76-50-66 15.6 6 88.8" />
    <path fill="#8A2" d="M731.6 222.8l4.4-14.4-116.4-4.8 124.8-8.8" />
    <path fill="#FFF" d="M228 247.6l-8.8 44-14.4-6 4-68.4" />
    <path fill="#8A2" d="M840.4 226.8l-22 20.4 8.8-46.8-56-5.6m-164.8-27.2L623.2 276l-13.6 30.4-1.6 3.6m114-31.6L707.2 178l2.4 104 30.8 13.2" />
    <path fill="#AC0" d="M296.8 112.4l1.2 158.4 4 63.6 49.6-69.6" />
    <path fill="#8A2" d="M935.6 224l-11.2 99.6-.8-166.8 13.2 155.6" />
    <path fill="#9B0" d="M206.4 282l-45.2 18.8-2.8-85.6 48-18" />
    <path fill="#8A2" d="M750.4 226l7.2 49.2 36.8 27.2-44.4-72.8m-257.2-14.4l-22-16.4-6.4-10-31.6 16.4" />
    <path fill="#790" d="M273.2 103.2l7.2 5.2-66 28.8-2.8-53.2" />
    <path fill="#FFF" d="M287.2 276.8l-14.8-106.4-136.8 16.4 160-5.6" />
    <path fill="#8A2" d="M548.8 257.2l-2 32.4-12.4.8-5.6-112.4" />
    <path fill="#9B0" d="M240.4 278l-119.2 51.6L90.4 288l257.2 15.2m-19.6-166L105.6 164l37.6-59.2L349.6 202" />
    <path fill="#FFF" d="M256.8 160.8l40.8 30.4-98-19.6 19.6 46" />
    <path fill="#8A2" d="M936 291.2l-18.4-67.6-1.6-11.2 24.8-52.8" />
    <path fill="#9B0" d="M224 340.4l46.4-114 8-25.2-50 12.8m18-86l-10.4-8.4-49.2 36.4 44.4 26" />
    <path fill="#8A2" d="M749.2 263.6l68.8 28.8-33.2 4.4-26.8-19.6" />
    <path fill="#9B0" d="M76 229.2l30.8-71.6 26-2.8 1.6 146" />
    <path fill="#8A2" d="M938.4 242l-49.6 60.4.8-14 45.6-4.4m-351.6-89.2l-6.8 104-1.6-10.8-9.2-57.2" />
    <path fill="#9B0" d="M250.4 292l-28 40-62.8-138-4.8 86.8" />
    <path fill="#FFF" d="M146.8 182l12.4 87.2-11.2 20-11.2-24.4" />
    <path fill="#9B0" d="M234.8 265.6L228 192l41.2-4 7.2 120.4" />
    <path fill="#8A2" d="M730 246.8l45.6-.8-12-8.4 109.6 5.2m-403.2 0l14.8-26.4 2 18.4-14.4 75.2m465.2-130L930 282l-6-125.6 16 12" />
    <path fill="#FFF" d="M219.6 232.4l15.2-47.2-86.4-4.8 66-11.6" />
    <path fill="#9B0" d="M158.4 180.4L208 130l2.8-40.8-86.8 34.4" />
    <path fill="#8A2" d="M869.6 208.4L850 251.6l33.2-57.2 29.6.4" />
    <path fill="#9B0" d="M302.8 328l-5.6-191.2 52.8 80.4-2.4 63.6" />
    <path fill="#8A2" d="M745.6 245.2l89.6-1.6-31.2-48 28 39.6" />
    <path fill="#FFF" d="M220.8 262l-16-111.6 5.6 130 7.6 6.8m73.6-116.4l6 114.8-20.4-38-.4-6.4" />
    <path fill="#8A2" d="M615.6 238.4l-10.4 56.4 2-92 11.6-14" />
    <path fill="#FFF" d="M137.2 167.2l18.8 3.2-6 116-12-83.2" />
    <path fill="#790" d="M259.2 357.2l75.2-59.6-186.8 47.2 51.6 20" />
    <path fill="#8A2" d="M686.8 221.6l-6.4 80-7.2-95.6-32.8-7.6m251.6-2.8l19.6 6-57.2 20.8-8.4-2.4" />
    <path fill="#9B0" d="M300.8 115.2L92 154.4l195.6 14.4 29.2-41.6m-172 160l4.8 59.6-32.8-22-10-20" />
    <path fill="#8A2" d="M711.6 173.6l1.6-11.6 8.4 17.2-.4 105.6m-51.6-79.6L642.4 192 614 237.6l8.8-34.8m206.8 36l32.8 16 13.6 30-56-67.2" />
    <path fill="#9B0" d="M92.4 162.8L82 270.4l39.2 55.6 20-222.4" />
    <path fill="#9B0" d="M154.8 184.8l2-84-17.2 12.8L232 87.2" />
    <path fill="#8A2" d="M532.8 203.6l-64.8 9.2 14.4 20.8 15.6-38.4" />
    <path fill="#9B0" d="M200 184.4l2.4 138.4-48.4-62.4 22-72" />
    <path fill="#8A2" d="M937.2 217.2L934 274l-20.4-75.2-46.4-4m-75.6 88l-18 .8L806 298l14-20.4m-85.6-84.4l-16.4 28-7.2-40.8 28.8 34m157.6 76.8l20-5.2 26-12-77.2 15.6" />
    <path fill="#790" d="M276.8 306.8l19.2 28.4-47.6 29.2-96-50.8" />
    <path fill="#AC0" d="M346.8 210.4l6 20.8-1.2 30.8L242 102" />
    <path fill="#FFF" d="M251.2 178.8l36.8 22.8.4-19.6-55.2-12.8" />
    <path fill="#8A2" d="M672 204.4l-19.6-14-51.2 41.6 6.4-17.6" />
    <path fill="#9B0" d="M256.8 93.2l-32.4 92.4L176 96l105.2 51.6" />
    <path fill="#FFF" d="M136 200.4l12 4.4 44-35.2-13.6-4" />
    <path fill="#8A2" d="M781.6 192.4l-27.2 76-.4-56.4 66-5.6" />
    <path fill="#9B0" d="M274 194.4l-41.6-5.6-2-5.2 42 75.2" />
    <path fill="#8A0" d="M182 352.4L127.6 338l16-50.8 184 11.6" />
    <path fill="#FFF" d="M296.8 203.2l-19.6-42.4 3.2 115.6 19.2-45.6" />
    <path fill="#8A2" d="M443.6 204.8l46.4 12.4-26.4-18.8-59.2 30.8m315.2 46l13.6 26.8 46.4-109.2-39.6 88" />
    <path fill="#790" d="M172 356l24.8 9.2 8.8.4 89.6-66.8" />
    <path fill="#8A2" d="M958.4 277.2l12.4 2.4-11.6 14-6-13.2m-278.4-76.8l11.2 50.8-12 16-10.8-74.8m57.2-16l.4 94.8-11.6 11.6 1.6-96.4m-259.2 5.6l-15.2 8-28.4 14.4 66.8-17.6" />
    <path fill="#790" d="M205.2 123.6L224 87.2l23.6 5.6 43.2 21.2" />
    <path fill="#FFF" d="M276.4 252l10.4 40 8.8-24.4.4-73.6" />
    <path fill="#9B0" d="M136.4 265.2l-14.8-92-29.2 8.4L76 252.8" />
    <path fill="#FFF" d="M244 166l26.4 8-46.8 24-16.4-2.8" />
    <path fill="#AC0" d="M340.4 284.8L270 112.4l24.8-4 36.4 34" />
    <path fill="#8A2" d="M532 231.2l19.6 5.2-28.4-39.2 1.6 13.6" />
    <path fill="#8A0" d="M284 345.2l-28.4-8.4 87.6-75.6-8.4 42.4" />
    <path fill="#9B0" d="M330 142l-98 28.8-38.4-6.8L98 142.8" />
    <path fill="#8A2" d="M606 283.6l8.8 5.2 5.6-71.2-6.8 24.4M884 196l-28.4 10.4-12.8 76.8 24.4-64.8m-346.8-16l14.8 17.6 6 74.8 1.2-89.6" />
    <path fill="#FFF" d="M223.6 188.8l-5.2 13.6-11.2 46 20 44" />
    <path fill="#8A2" d="M849.2 268l32.8 23.6-10.8-24-22-44.4m-272-40l10.4-11.6-2.8-10.4-23.2 4.4m-17.2 63.2l-5.2 72-2-20-.8-74.4m43.6 74.8l-1.2-79.2-2.8 11.6-11.2 27.2m236 50.8l-26.8-4.8-22-78.8 2.4 73.2m-263.6-28.4l-10.4 46-10-61.2 14.4-2.4" />
    <path fill="#9B0" d="M273.2 204l-54.8 98-62.8-25.6 118.8 26.8" />
    <path fill="#8A0" d="M286 112.4l-118.4-7.2 16.8-14.8 127.6 58" />
    <path fill="#FFF" d="M236 181.2l-15.2 4-9.2-18.8-4.8 71.2" />
    <path fill="#8A2" d="M830 259.6l-27.2 36.8 30.8-21.2 7.2-11.6" />
    <path fill="#8A2" d="M824.4 252.8l1.2-37.2L818 280l7.6-16m-258.8-42.4l4.8-31.6 8.4 18-2.8 105.6M424 204.4l-8.4 26.8 2 45.6 6 23.6M811.2 246l-7.2-4.8-58.8 13.6L752 230" />
    <path fill="#9B0" d="M160.8 305.6l-3.6-103.2 34-16-5.6 98.8m-57.6-168l-32.4 35.2 48.4 13.2 116.8-12" />
    <path fill="#8A2" d="M937.6 229.2l-68-40.4 17.6 17.2 16.8-14.8" />
    <path fill="#FFF" d="M209.6 162.8l-2.8 82.4-1.6 31.6L226 266" />
    <path fill="#8A2" d="M895.2 291.6l27.2-3.6 18 5.2-5.2-22.4M536.8 196l9.6 34-.8 20-19.2-44.8" />
    <path fill="#790" d="M161.2 355.2l16.4-51.2 88 46-46.4 11.6" />
    <path fill="#FFF" d="M136.8 170.4l28 24-29.6 17.2 17.6 80.8" />
    <path fill="#8A2" d="M963.6 296.4l-7.2-24 20.8 29.2-5.6-27.6" />
    <path fill="#AC0" d="M304.4 313.6l24.4-114.8-74-48 40.4 1.2" />
    <path fill="#FFF" d="M226 200.4l-54.8-22.8 12-10.4 30.4 10" />
    <path fill="#8A2" d="M544 284.8l-11.2-58.4-.4 38-.8 18.4m317.6-25.6l19.2 35.2 8.4.8-24.8-64.4" />
    <path fill="#8A2" d="M856.8 258l20.4-66-15.2 19.2-12 4.4" />
    <path fill="#FFF" d="M298.4 193.6l-6.4-14.4-29.6-16.8 18 35.6m-63.2-26L206 238.4l3.2 48.8 15.2-5.2" />
    <path fill="#FFF" d="M277.6 281.2l15.6-13.2-25.6-98.8 17.6.4" />
    <path fill="#9B0" d="M227.2 202.4l9.6 144 4-155.2 32-4.4" />
    <path fill="#8A2" d="M829.6 214l2.8 52-13.2-63.2-37.6.4" />
    <path fill="#790" d="M190.8 89.6l32.8 22.4-32 17.2 101.6-18.8" />
    <path fill="#8A2" d="M921.2 208l12.4 85.6 4-28.4-34.8-69.6m-222.4 68l-4.8-63.6-7.6 104.4 8.4-27.6" />
    <path fill="#9B0" d="M85.2 218.8l6-49.6 38 138.8-42.4-21.6" />
    <path fill="#8A2" d="M416.4 187.2l10 96-15.2 4 5.2-84" />
    <path fill="#790" d="M221.2 116.4l9.6-30.4 20.4 14.8 26.8 6.4" />
    <path fill="#9B0" d="M350 252.4l-20.8 38-1.2-147.6 20.4 61.6" />
    <path fill="#8A2" d="M412.4 246l-.8-57.6 8 14 3.6 6m508.8 6.8l-2.8-47.2-6.8 128 18-34.4" />
  </g>
</svg>