<svg version="1.1" viewBox="0 0 1024 448" width="1024" height="448" xmlns="http://www.w3.org/2000/svg">
  <g fill-opacity=".5">
    <path fill="#FFF" d="M260 198l-128-18 170-21-3 160" />
    <path fill="#790" d="M200 374L92 304l252-30-15 49" />
    <path fill="#8A0" d="M331 165l5-25-124-65-128 92" />
    <path fill="#FFF" d="M122 304l108-122-2 131-83-140" />
    <path fill="#8A2" d="M935 152l-17 22 12 134 16-154" />
    <path fill="#9B0" d="M189 188l42 187-131-234-31 125" />
    <path fill="#FFF" d="M132 164l196 17-164 9-21 123" />
    <path fill="#8A2" d="M703 261l5-110 17 15-3 149" />
    <path fill="#9B0" d="M268 134l18-30 61 69-5 123" />
    <path fill="#8A2" d="M611 301l14-87 156-10-182-9" />
    <path fill="#8A0" d="M138 346l99 22 100-61-245-31m214-157l-85-34-90 36-51 70" />
    <path fill="#FFF" d="M200 188l22 122 5-116 58-23" />
    <path fill="#790" d="M476 291l-5-27 1-81 22 115" />
    <path fill="#8A2" d="M869 291l-11-91 66-4-82 34" />
    <path fill="#8A0" d="M229 240l29 118 14-161-28-16" />
    <path fill="#FFF" d="M280 295l-8-125 19 20 5 101" />
    <path fill="#8A2" d="M462 224l80-24 6 111-24-125m324 90l65 24 7-59 21 49m-103-12l-38-89 42 42-52 68m-6-103l-27 79-12-35 23-42" />
    <path fill="#9B0" d="M110 122l25-9-3 183-55-20m81-65l26-32 32 27-56 140" />
    <path fill="#AC0" d="M311 181l29-37 10 149-65 43" />
    <path fill="#8A0" d="M84 292l98 72 90-12 53-66" />
    <path fill="#8A2" d="M782 302l66-52-42 46-72-47" />
    <path fill="#FFF" d="M215 281h11l-1-80-32-55" />
    <path fill="#8A0" d="M128 114l94 68 67-58-51-37" />
    <path fill="#9B0" d="M264 178l-38 61 42 59 11-80" />
    <path fill="#FFF" d="M144 170l-7 16-3 120 24-29" />
    <path fill="#8A2" d="M815 254l-51-8-17-17 79 9m-295-47l-1 112 20-101-116 16m508-2l-88-14 68 4 2-53m-41 145l16-11-45-23-6 10" />
    <path fill="#9B0" d="M101 309l-27-62 22-54 72 147m188-88L210 83l70 21 43 25" />
    <path fill="#8A2" d="M465 202l20 77 2-51 3-6m316-29l-42 13-17 29 55-35m-91 36l-2-67 9-13 11 159" />
    <path fill="#FFF" d="M273 285l14-74 9-30 1 98" />
    <path fill="#8A2" d="M668 206l7-10 11 77-15 31M410 196l25 16-25 90v-90" />
    <path fill="#8A2" d="M573 283l9-118h140-156" />
  </g>
</svg>