<svg version="1.1" viewBox="0 0 1024 448" width="1024" height="448" xmlns="http://www.w3.org/2000/svg">
  <g fill-opacity=".5">
    <path fill="#8A2" d="M642.4 194.4l29.6 8-70.4 6.8 21.2 13.2m-152.4-36l17.2 102.4h-16l.4-5.6" />
    <path fill="#790" d="M230 348l39.6-10-26.8 26-43.2-.4" />
    <path fill="#9B0" d="M192.8 186.8l-20.4-.8 33.2 64.4-5.2-45.6" />
    <path fill="#8A2" d="M700.4 205.2l30.8 3.2 1.6 6.4-10.8-43.6m-254.4 71.2l33.6-37.6L466 222l23.2-4.4" />
    <path fill="#9B0" d="M132.4 312l-7.2-21.6 143.6-4 76.4 5.6" />
    <path fill="#FFF" d="M137.2 280l7.2 8.4 11.6-.8-7.6-109.2" />
    <path fill="#8A2" d="M814.8 246.8l-32.8-5.2 46-2.8-6 13.2" />
    <path fill="#8A2" d="M817.2 200l20.4 47.6h-10L808 203.2" />
    <path fill="#FFF" d="M291.6 198.8l-10.8 103.6-2-121.2 15.6 56" />
    <path fill="#8A2" d="M486 266l-2.4-42.4 24.4-28-31.2 13.2" />
    <path fill="#8A0" d="M226 334.4L136 288l130.4 2.8 64.8-2" />
    <path fill="#8A2" d="M713.6 197.2l22.4.4 4.4 9.6L700 204" />
    <path fill="#FFF" d="M280.8 188.4l-38.4-20.8 48 5.6-.8 96.8" />
    <path fill="#AC0" d="M191.6 154.4l28 17.6 72.8-13.6-41.2-3.2" />
    <path fill="#8A2" d="M607.6 289.6L610 246l12.4 51.2-5.6-14" />
    <path fill="#9B0" d="M71.6 232.4l44.4 36 27.6 65.6-17.2-97.2" />
    <path fill="#9B0" d="M84.8 199.6l48 70v-82.8l-23.2-24.4" />
    <path fill="#8A2" d="M604 280.8l1.2 16.4 15.6-24.4-13.6-61.6m102.8 56l4.8-66.8-38 12.8 38.4-9.2" />
    <path fill="#9B0" d="M198.4 302.4l1.2-93.2-36 44.4 55.6 45.2" />
    <path fill="#8A2" d="M547.2 223.6l-4 43.6-1.6 16.8-6.8-81.6m180-4l24 2.8 8.4 8.8-67.2-16m80.8 7.6l-7.2 54.4 36.4 34.8-20.4-6.8" />
    <path fill="#8A0" d="M262.4 299.6l-157.2 13.2 33.6 29.6 143.6-20" />
    <path fill="#8A2" d="M907.2 290.4l-30.8-5.6 12.4 14.4L854 268m-283.2 15.2l10-2.8v-75.6l-16.4 70.8" />
    <path fill="#9B0" d="M238 98.4l-109.6 15.2-50.8 128.8 93.2-137.2" />
    <path fill="#AC0" d="M346.8 177.2l-43.2 101.2 8.4-81.2-51.2-47.2" />
    <path fill="#8A2" d="M906.8 291.2l18.4-39.2-8 30.4-61.2 1.2M918.8 156l12 11.6 2.8 110 4-40.8m-157.2 0l60 12.4-61.2-6.4 5.6-11.6" />
    <path fill="#9B0" d="M138.8 147.2l-42 140.4-20-45.6 36-110.4" />
    <path fill="#8A2" d="M734.4 291.6l-27.6-14.4 7.2-9.2 35.2 22" />
    <path fill="#790" d="M154.4 324.4l151.2 11.2-44.8 12.8-94.4-65.2" />
    <path fill="#8A2" d="M769.2 218.4l-14.4 2.8 10.8-16.8 40.4-11.2m108.8 10.4l20.8 10.4-55.6-12.4 4.8-6.8M410 259.6l1.6 36.4 12.4-3.6-13.2-94" />
    <path fill="#9B0" d="M276.8 196.8L234 257.2l-.8-56.4L256 184" />
    <path fill="#FFF" d="M295.6 202.4L272 165.2l-69.6 23.2 62.4-5.2" />
    <path fill="#8A2" d="M751.2 242.4l26.4-1.6 47.2-8.8 8 15.6" />
    <path fill="#FFF" d="M154.4 190.4l16-8.8-32.8 53.2 7.2-65.6" />
    <path fill="#790" d="M239.2 105.6l-28.8-18.4-4 2 12.4 58.4" />
    <path fill="#9B0" d="M196 122.4l29.2 63.2 1.6-26-94-38" />
    <path fill="#FFF" d="M153.2 187.2l.8 92.4-14 2 .4-44.4m64.8 47.6l27.2-104-22.8 34 10.8 55.2" />
    <path fill="#9B0" d="M167.2 168l-31.6-52.8 181.2 26 6-10.4m-165.2 176l14.8-121.2 18.4 10.4-6.8 101.6" />
    <path fill="#8A2" d="M764.8 253.2L750 215.6l4.8 44 10-46.8m-285.2 6.8l2 42.8-5.6 34-4.8-8.4m237.6-3.2l-.4-20 12.4-38 6.4-33.6" />
    <path fill="#9B0" d="M202.4 194l1.2 97.2L306 330.8l-151.2-58.4" />
    <path fill="#8A2" d="M926.4 159.2l-2.4 4-1.2 128 6.8-130.8" />
    <path fill="#9B0" d="M278 280.8l-20.8 4.4-22.8 25.6-4-62.8M97.6 297.6l52.4 23.2 11.2-24-19.6-6.4" />
    <path fill="#AC0" d="M344.4 230.4L325.2 144l-26.8 84.8 4.4 53.2" />
    <path fill="#9B0" d="M192 259.6L160.8 228l6.4-40 25.2 72.8" />
    <path fill="#FFF" d="M292.8 182.8l4 109.6-17.2-31.6 5.6-64.4" />
    <path fill="#9B0" d="M346.8 247.6l-72 55.6 56 2-35.2 33.6" />
    <path fill="#8A0" d="M167.2 217.6l18-27.6-22.8 8-1.6 27.6" />
    <path fill="#8A2" d="M615.6 302.4l1.2-101.2-1.6 2.4-8-.8" />
    <path fill="#9B0" d="M103.6 141.6l65.2-41.6 32 14-28.8 55.6" />
    <path fill="#8A2" d="M782.8 282.4l41.6 3.6-34.8 3.2-38.8-29.2" />
    <path fill="#790" d="M225.6 365.6l42-12.8 16.8-47.6-73.6 44.4" />
    <path fill="#FFF" d="M290.8 253.6l-8.4 33.2 12.4-2.4-22-64.4" />
    <path fill="#8A2" d="M862.8 276.4l-13.2-7.6 40.8 16.8-12.8 8.4" />
    <path fill="#9B0" d="M319.2 170.8L98.4 150l-9.2 45.6L168 146" />
    <path fill="#8A2" d="M679.6 266.4l-14.8-69.2-1.2 13.6 16-3.6" />
    <path fill="#9B0" d="M134 152.8l12.4-48.8 73.2 41.6-1.2 21.6m97.2 1.2l21.6-19.2-64-24.4L292 106" />
    <path fill="#8A2" d="M918 267.2l18.8 29.6.8-48.8-1.6-2.4" />
    <path fill="#FFF" d="M154.4 197.6l-4.4 58-14.4 24.4 14-118.4" />
    <path fill="#8A2" d="M677.2 203.2l-13.6 2.8-57.6 7.6 54.8-20.4" />
    <path fill="#FFF" d="M274.8 265.2l23.2 18-26-112 24 16.8" />
    <path fill="#8A2" d="M681.2 205.6l-54.8-7.2 23.2 10.4 28 2.8" />
    <path fill="#8A0" d="M294.4 293.6l-43.2-12-29.6 54h83.6" />
    <path fill="#8A2" d="M970.4 271.2l-1.2-11.6 3.6 34.4-12.8-1.6" />
    <path fill="#790" d="M241.6 95.6l15.2-1.2-35.2 24.8 2-16" />
    <path fill="#8A2" d="M848.8 235.2l10 22-3.6 6.8-6.4-11.6" />
    <path fill="#9B0" d="M275.2 225.6l-7.2-36.8-28-2.4-4 92.8" />
    <path fill="#8A2" d="M529.6 214l-2-18.4-43.2 16.8 12.4-12" />
    <path fill="#FFF" d="M216.4 222.8l-2.8-44.8 9.2 66.4-17.2 54" />
    <path fill="#790" d="M278 330.4l-122.4-14.8 20.8 28 87.2-40.8" />
    <path fill="#8A2" d="M482 281.2l3.6-15.2-1.2-50-9.6 18M880 284l31.6 4.4-22 7.2-22.8-17.2" />
    <path fill="#8A2" d="M482.8 221.2v63.6l-9.6-60.4L460 200" />
    <path fill="#8A0" d="M258.8 138.4l-41.2 1.2-77.6-4L288.4 116" />
    <path fill="#9B0" d="M90.8 291.2l27.6 8 86 66.4-90-49.2m75.2-81.6l-4.8 56 71.6.4-51.2 7.2" />
    <path fill="#8A2" d="M668 296.4l2-94-10.8-4.4 22 62.4" />
    <path fill="#9B0" d="M234.8 110l2 63.2-28.4-3.6 29.2-29.6m27.2-34.8l39.6 11.2 5.2 11.6 18 16.8M79.2 241.6l1.6-16.4 52-52.8-29.2 124" />
    <path fill="#9B0" d="M126.4 235.6l2.8-66.8 6 20.8-2.4 27.6" />
    <path fill="#FFF" d="M214.4 199.6l-23.2-22.4 17.6-12.8-2.4 116.8" />
    <path fill="#9B0" d="M209.6 100.8L84.8 202l18.8-58.4 24 22.8" />
    <path fill="#8A2" d="M586.8 159.2l-20 6 27.6 22-19.6-25.6m75.6 30.8l24.4 17.2v17.2" />
    <path fill="#FFF" d="M298 208.8l-12.8-6.4.8 30.4 11.2-47.2" />
    <path fill="#AC0" d="M134.4 288.4v15.2l-31.6-28.8 27.6-18" />
    <path fill="#9B0" d="M231.6 242l-2 58.8 46-54.4-9.6-58.8m-98.8-18.4l-34-8.8-9.2-35.2 55.6-30.4" />
    <path fill="#9B0" d="M228 177.6l15.2-36.4-10.4 5.2-76-5.2" />
    <path fill="#FFF" d="M142.8 274l7.2-41.2 7.6-43.6-20.8 62.8" />
    <path fill="#9B0" d="M320.4 269.2l14.8 33.6 10-113.6-36.8 107.2" />
    <path fill="#FFF" d="M214.4 277.6l8-90.8-36-25.6 21.6 33.6" />
    <path fill="#9B0" d="M134.4 140.8l-19.6 96 18 1.6-1.2-44.8m-21.2 127.6l7.2-4.8-15.2-65.2 22.4 12.8" />
    <path fill="#8A2" d="M702.4 282l38.4 8.8 6.4-13.2-19.6 4.4" />
    <path fill="#8A2" d="M720.4 297.6l-9.2-70 1.2-48 9.2 54.8m-138.8 64.4l-10-58.8 9.2-68.4-10.4 107.6" />
    <path fill="#AC0" d="M320.4 132.8L260.8 144l4.4 6 49.6 23.2M259.2 190l-24.8 8.8-2 16.8 5.2 26.8" />
    <path fill="#9B0" d="M208.8 165.2L152 136.8l67.6-46-53.6 71.6M299.2 238l1.2-40.4-26-82.4 31.2 86.4" />
    <path fill="#8A0" d="M145.2 287.2l47.6 20.8 69.6 11.6-121.2-31.2" />
    <path fill="#8A2" d="M748.8 238.4l9.2 36.8-3.6-32.8 60 3.6" />
    <path fill="#9B0" d="M80.8 261.6l29.6 36.8-8-134-11.2 32.4" />
    <path fill="#8A2" d="M538.4 228.4l12.8-4.8L516 206h28.8" />
    <path fill="#8A0" d="M251.6 124.8l-48-37.2-2.8 30.4-1.2 14.4" />
    <path fill="#8A2" d="M827.2 241.2l-8-32.4-45.2-8 37.6-6.8" />
    <path fill="#8A0" d="M290.8 339.2l-11.2 2.4 50-61.2-6 34.4" />
    <path fill="#8A2" d="M667.6 286l13.2-12.8-10.8-16 14.8-5.6m-200-32.8l26.8-14.8 3.2.4-.8-8.8" />
    <path fill="#790" d="M170.8 304.4l-16.4 36.4 113.2-14-19.2 21.2" />
    <path fill="#8A0" d="M173.2 327.6l56.8 11.6 36-29.6-92.4 50.8" />
    <path fill="#8A2" d="M776.4 283.2l-27.6-16 9.6-54 2 67.2" />
  </g>
</svg>