<svg version="1.1" viewBox="0 0 1024 448" width="1024" height="448" xmlns="http://www.w3.org/2000/svg">
  <g fill-opacity=".5">
    <path fill="#911" d="M759.2 356l-3.2-73.2 5.2 4 .8 9.2M656 190.8l8.4 4V98.4l-6.8 9.2m-552 15.6L98.8 198l44.8-24-46.4-28M214 98.4l17.6 17.6 16.8 59.6-31.6-39.2M105.2 318l46 11.6L102 276l-4.4 30.8M320 128l-.8 10 22.4 25.2-14.4-59.2" />
    <path fill="#fff" d="M90 70.8l.4 129.2.4-26.4 6 87.6" />
    <path fill="#911" d="M212 355.2l42.4-44.8-84.4-21.6 85.6 22.4m669.6-152.4L909.6 210l20.8-74.8-38.8.4M126 330.8l-.8 1.6-12.4-47.6 54 27.2" />
    <path fill="#B66" d="M663.2 203.2l27.6 20L658 212l12 .4" />
    <path fill="#065" d="M179.6 115.6l-13.2 16 19.6 10-1.2-12" />
    <path fill="#911" d="M604 332.8l5.2-25.6 2 22.4 21.2 7.6M155.6 216.4l-28.8 1.6-19.2 1.6 4.4 8.8m-10.8 70.8l40-16.8 7.6 18.4-20 37.6" />
    <path fill="#B66" d="M134.4 238.4l4 17.2-2.8-32.8-6.4 2" />
    <path fill="#911" d="M744.4 220l-31.2-4-1.6-74.8-8.4 52.4m-58.4-51.2l36.8-2.8-28.8-23.2 41.2 26.8" />
    <path fill="#065" d="M179.2 130.4l-6.4 20.8 26.4 6.8-39.2 3.2" />
    <path fill="#911" d="M404 139.2l-17.6 2.4 18 10 49.6-11.2" />
    <path fill="#B66" d="M417.6 331.2l101.6 9.6-68.4-20 53.2 15.6" />
    <path fill="#911" d="M374.8 174l-5.2-4.4-18-20.4 20.8 62.8m446 70.8l29.6 50.8-8.8-23.6-3.2-10.4M415.2 106.8v105.6l-8-1.2-2.8-32.4M118 235.2L98 127.6l57.2-26.4-50 107.6" />
    <path fill="#B66" d="M172.4 228L114 336.4l54.4 13.6-58-6.8" />
    <path fill="#065" d="M148.8 330.4l25.2 4.8 1.6-10.8 8.8-16m13.6-82l-45.6-1.2 20.4-8.4-13.6-19.6" />
    <path fill="#065" d="M205.6 223.6l-19.6 3.6-46-2.4 28.4-6" />
    <path fill="#065" d="M175.6 332.8l3.2-171.2-6.4 82.8-3.2 70" />
    <path fill="#B66" d="M251.2 122.4v10.8l-8.4-16-24.4-24.8" />
    <path fill="#911" d="M586.4 211.6l-36.4-.8 2-65.6 6.8 72M916 94l16.4-6.8-17.2 73.6-2.4-26.8M516 200.8L494.8 188l25.2 36.8-14.8-94.4m-271.6 79.2l6 106.4 6.4-93.2-73.2-11.6" />
    <path fill="#B66" d="M538.8 281.6l-24 8.4 9.2-6 3.2 15.2" />
    <path fill="#911" d="M552.8 144.4l9.6-14.4-1.2 64.8-12-28M929.6 198l-.4-80-8-12.4-9.6 105.2M87.6 240l3.6 83.2 73.6-27.6-76.8 24" />
    <path fill="#065" d="M183.6 174.8l-6.8-28.4 10 35.2 34.4-5.6" />
    <path fill="#911" d="M136.4 171.6l26-17.6-16.8 5.6-32 49.6m650.8 143.6L752 295.2l10-8-8.8 29.2M106 287.6l6.4 53.6-6.8-8.8 52.4-40.8m315.6-150.4l36-7.2-12 33.6 18.8-16.4m192-1.6l45.6-16-43.2 7.2-1.6 55.2" />
    <path fill="#065" d="M219.2 242.4L142 260.8l-6 5.2.4 7.6" />
    <path fill="#911" d="M121.6 169.6L86 209.2 84.8 224l42.4-107.2" />
    <path fill="#065" d="M189.2 327.6l-28.8.8-23.2 16 9.6-12.8m24-67.2l26 2-19.2-60.4-11.6-56.8" />
    <path fill="#911" d="M134 98l-6.8 106-6.8 38.4-26-108.8" />
    <path fill="#B66" d="M250.8 124l2.8 52-80.4-11.6 82.4 15.2" />
    <path fill="#911" d="M192 302.4l40 19.6-35.2-26.4 2.4-64" />
    <path fill="#911" d="M231.6 336l16-16.4-17.2-100 16 97.6m372.4-110.4l-36 11.6 12.8-2.4 16.8-73.2" />
    <path fill="#B66" d="M87.2 307.2l2.8 5.6 9.6 17.2 10 3.2" />
    <path fill="#911" d="M803.2 216.4l6.4-21.6 2.4-26.4-16.4-5.2M182.4 98.8l40 21.2 22.4 36.8h-38.4M204 323.6l-24.8-28 61.6 2.8-20.4 40.4m522.4-209.6l3.2 6.8 15.6 4.4-25.2.8m-591.2 140L96 304l4.4 10.4 42 12.4" />
    <path fill="#065" d="M174 158.4l-63.2 10.8 67.6-20-14.8 118" />
    <path fill="#911" d="M162 116l-37.6 12.8-12.8 55.2-1.2 8.4" />
    <path fill="#065" d="M154.8 181.6l34.4-14 20.8 18-52.4-7.6" />
    <path fill="#911" d="M176.4 294l-56.4 2.4 2-30.8-19.6 52m232-169.6l32.8 9.6 10.8 19.2-16.8-6.4m314-25.6l-12.8-35.6 19.2-26.4-35.2 58.4m126 53.2l-11.2 14.8 5.2-45.6 4-9.6" />
    <path fill="#fff" d="M249.2 197.6l-62.4-6 71.6-12.4-75.6 18" />
    <path fill="#911" d="M302.8 134l132 80.8-24 4-14.4-28M182.8 309.6l15.6 16.4 25.2-15.2-39.2-16.4m285.2 40.4l-11.2 3.2 8-35.6 7.2 34" />
    <path fill="#065" d="M151.6 326l39.6 4 2 1.2-36.4 1.6" />
    <path fill="#911" d="M119.6 126.4l14.8 98.4L98 213.6l.8-73.6" />
    <path fill="#B66" d="M222.4 342.8L163.6 298l87.2 80-41.6-35.6" />
    <path fill="#911" d="M921.2 173.2l6.4 34-12 12 1.6-134.4M852 162.4l16 54 2-51.2 2-22.8M222 281.2l18-44.8-64.8-3.2 68.4 16.8m147.6 25.2l13.6 57.2.8 5.2-15.6-22.8M163.2 101.2l-38 87.6-.8-86L146 100m232.4 84.8l-1.2 13.2-34.8 21.6 13.2-15.2m75.6 16l-23.2-34 7.2-56-16 62.4m441.6 95.6l-3.6 2-51.6-2L774 284" />
    <path fill="#911" d="M243.2 225.6l-30-32-1.2 61.6 34.4 12.8M550 197.2l4-53.2-3.6-2.4 8.8-7.6M400 140.4l40 7.6 6.8-14-51.6 11.6" />
    <path fill="#B66" d="M742.4 311.2l-27.2-32.4-3.2 4.8 11.6.4" />
    <path fill="#911" d="M588.4 286.8l102.8 5.2 1.6-7.6-86.4 6.4m-45.2-146l4.8 57.6-12 9.2-4-50.4" />
    <path fill="#fff" d="M176 258.8l2.8 2L186 284l6.4-9.2" />
    <path fill="#911" d="M402.4 154.4l.4 42 17.6-61.6-17.2-2.8M880 207.6l67.6 8-30.8-19.6 7.6 11.6M582 134.4l33.2 8.4-41.6-2.4 8.8-4.4m257.2 189.2L836 374l10.4-42.8 7.2-13.6m-214-178.8l23.6 15.2-7.6-35.6 5.2 19.6" />
    <path fill="#065" d="M164 216.4l18 49.6-1.2-103.2-4.4-25.6" />
    <path fill="#B66" d="M896.4 90.8L948 116l-40-20.8-2-4" />
    <path fill="#911" d="M514.8 165.2l-22 1.2-28.4 20.4-19.6.8M456 212l44.4 2.4 43.2-6.8-73.2-1.6" />
    <path fill="#911" d="M478 176.8l21.6-2.4 7.2-9.2-27.6 6.8M90.8 124.4l-3.2 7.6-2-10 49.2 16.4m791.6-17.6l10.4 16.8-34.4-48.8 15.6 6" />
    <path fill="#fff" d="M198.4 267.6l-20 12.8 26-2.8 40.4 67.2" />
    <path fill="#911" d="M501.2 154.4l17.2 54.4-16.8 6.4-2.8-69.6m254 62.8l-.8-8-2 2.8-29.6 13.2" />
    <path fill="#B66" d="M160.4 272L134 284.4l-27.6 4.8 37.6-11.6" />
    <path fill="#911" d="M526.8 327.6l2.8-48 7.6 16.4-1.2 10.4" />
    <path fill="#B66" d="M188.8 133.2l.4 17.2 12.8-2.8 5.6 33.2" />
    <path fill="#911" d="M714.4 150l-.4 3.6 21.2-20.4-5.6-.4M234.4 303.6L206 194l39.6 28.4-.4 82.8" />
    <path fill="#065" d="M177.6 264l-107.2 1.6L208 256l-77.2 4.4" />
    <path fill="#911" d="M862.4 202.8l14.8 13.6 16 2.4-14.8-14.4" />
    <path fill="#065" d="M181.2 230l-61.6 23.2 62.8-18-21.2-71.6" />
    <path fill="#065" d="M195.2 266l-40.8-63.6 40.4 17.2-20.4 9.2" />
    <path fill="#065" d="M162.4 252l27.2-53.6-44 9.2 21.6 7.6" />
    <path fill="#B66" d="M218 273.2l17.2 2.4h-18.4l-64.8-2" />
    <path fill="#911" d="M836.8 134l-28.4 11.6 24-1.6 8.8 12m-322.4 59.6l-27.6-86.8 20.4 20.8-12.4 56.4m202-1.6l.4-25.2 14.4 23.6 18.8 8" />
    <path fill="#065" d="M160.4 258.4l7.6-57.2 6.8-109.6 6 171.6" />
    <path fill="#065" d="M176.4 192.8l-15.2 6-1.6 59.2-17.2 12.4" />
    <path fill="#911" d="M452.4 185.2l14.4 27.2 11.2-38.8 26.4-14.4m258.8-14.8l-6.4 54.8-22.4 19.2 30.8-12M914 110v71.6l2.4 36.4 5.6-4m-508.8-2.8l8.8 8.4 8.8-4.4 11.6-5.6M246 310.4l-30.4 16 13.6-77.6 8.4 50.4m158 37.6l-.4-71.6-2.4 3.6-6.8 54.8m214.4-169.2l-22-17.2 24-3.6 10 29.6m-3.2 122.4l5.6 5.6-4.4 19.6 3.6 22" />
    <path fill="#911" d="M114.8 246.8l1.2-2 15.2 2.4 102 8m457.6-142.8l9.6-9.2L682 88l20 6M600.4 307.6l22.8-1.2-16.8-13.6-2 8M116 274.4l-8 46.8 23.2 16.4 6.8-18.4m301.6-44.8l-4.8-.4 4.8 38 2.8-50.4m416 45.2l-17.2 39.6 10.4-26 2-14.8M916 106.4l12.8 43.6-7.6-56.4-14.4-6.8m-750 48.4l40 4.8-86-29.6 68.4 22" />
    <path fill="#911" d="M272.8 290.4L89.6 301.2V146L88 301.6" />
    <path fill="#B66" d="M202.4 294.4l-9.6-7.6-.4-12.4-.8 21.2" />
    <path fill="#065" d="M169.6 226.8l-38.8 50.8 7.2-2 18.8-15.2" />
    <path fill="#911" d="M711.6 342.8l13.2-34 3.6 24.4-28-2.4M241.2 138.4l-44.8 2.4-14.8-29.6 66.8 20.4m-148 137.2l44.8 55.2-43.6-18.4-1.2 11.6M756 335.6l12.8 4.8-18.4-34.4v24.4" />
    <path fill="#B66" d="M374.8 380L179.6 227.6l-5.6-2 91.2 68.8" />
    <path fill="#065" d="M175.2 223.6l-32.4 48.8 42.4-22.8-10.8-131.2" />
    <path fill="#911" d="M511.2 204l-4-40.8 10 48.4-54 .8" />
    <path fill="#B66" d="M210.4 228.4l76.8 51.6-98.4-66.8 31.2 8.4m-92 33.6l-16 22 17.6-17.6-14 51.2m416.8 28.4l-75.2-6.8-14.8 5.2 94.8-5.2" />
    <path fill="#911" d="M879.2 150.8H872l-6.8 33.2-.4-24.8" />
    <path fill="#B66" d="M187.6 198.4l74.8-27.6-46 15.2-36.8-.4" />
    <path fill="#911" d="M221.6 245.2l24.4 10.4-44.8-44.8 16.8-6" />
    <path fill="#065" d="M177.2 282l-12.4 56.8 14.8-14.8L160 215.2" />
    <path fill="#911" d="M673.2 143.2l16 3.6-30.4-18 14 12.8M210 250.8l33.2 43.6-9.6-40.4-21.6-48" />
    <path fill="#065" d="M183.2 141.2l-20.4-7.6-1.6-1.2 15.2-16" />
    <path fill="#911" d="M99.2 180.4l40.4-56.4-2 44.4 4.4 8.8" />
    <path fill="#B66" d="M626.8 286.4l52.8 41.2-60.4-48-17.2 22m-467.2-60.4l10.4 14-21.6-5.2-37.2 24.8" />
    <path fill="#911" d="M191.2 124.8l24-25.2 24.4 26.4 8 44.8m360-14.8l10.4 73.6-14.8-64.8-4.4-24.8" />
    <path fill="#065" d="M163.6 122.8l4.8 31.6-3.2 102L184.8 156" />
    <path fill="#B66" d="M197.2 171.2l44 40-21.6 75.2 25.6-80.8" />
    <path fill="#911" d="M820 214l-34.4-.8 15.6-9.6 26 11.2" />
    <path fill="#065" d="M174.4 337.2l7.2-174.8-59.6 32.4 52.8-18" />
    <path fill="#911" d="M97.6 211.2L140 108.4l-38 114.8 57.2-6.4" />
    <path fill="#065" d="M162.4 215.2l9.2 17.6-46 48.8 28.8-16.8" />
    <path fill="#B66" d="M740.4 280l-39.6 3.6 17.2 37.2-15.6-32m-534.8-150l-36.8 11.6 36.4-8h2.4" />
    <path fill="#911" d="M227.6 243.6l-17.2 89.2 3.6 4 30-29.2m374.4-97.2l-4.8 4-5.2-25.6-14-30M735.6 220l-38-31.6-1.6 2 2.8 9.6" />
    <path fill="#B66" d="M95.2 173.2l-3.6-20.4L78 229.6l17.6-98.8" />
    <path fill="#065" d="M208 230.4L186 218l-18.4-10.4-5.2 18.8" />
    <path fill="#065" d="M169.6 219.2l36.8 48.8-31.2-9.6.8 22.4" />
    <path fill="#911" d="M115.6 108.4l49.6-9.6-60 102 10.4 38.8M664.8 92.8l35.6 5.6-16.8 8 30-14.4" />
    <path fill="#B66" d="M102.4 245.6l47.2-13.6-41.2 28 34.8-30" />
    <path fill="#911" d="M388.8 138.8l22 2-2.8 4.4-20.4-3.6" />
    <path fill="#B66" d="M246 198l10.8 46.4L208 196l42.8 44.4" />
    <path fill="#911" d="M206 147.2l-5.2-46.4 44.8 34.8-11.6 34m373.2 25.2l8.4 8.4.4-46-3.6 12.8" />
    <path fill="#B66" d="M84.8 171.6l4.4 62.4-.4-60 53.2 1.2" />
    <path fill="#911" d="M195.6 301.2l.4-19.2-8 33.2 10-60.4" />
    <path fill="#911" d="M229.2 323.6l-31.2.8-4.8-30.4 50 12m-108-8.8l-36.8-24.8 5.2 48.8 57.2-15.6m41.2-110l22 44.8 21.6 53.2-8.8-67.2m512.4 54.8l4.8 40.4-.4 12.8 5.2-40.8M147.2 102.4l-34.4 12.8-10 104 14.8 16.4" />
    <path fill="#B66" d="M145.2 186l-17.6 7.2 26.8-2.4 24-3.6" />
    <path fill="#911" d="M202 172.4l26-28-44.4-31.6 31.6 11.6m203.6 84l-13.2-17.6 4-43.2-6 58" />
    <path fill="#B66" d="M162 132l49.6 31.2-4-2 77.2 52.8" />
    <path fill="#911" d="M99.6 215.2l2.8-46.8 54.4-45.2-54.4 98.8m34 122.4l-25.6-25.2 19.6 22.4 71.2 4.4" />
    <path fill="#065" d="M181.2 248.8l-19.6-62 22-33.2-18.8-2" />
    <path fill="#fff" d="M168.8 323.2l.4-61.2-21.6 30.8 15.2-22" />
    <path fill="#911" d="M207.2 252.4l16.4-14 22-12.4-9.6 32.8M688.8 292l30.4 25.2 7.2 1.2-44-29.6" />
    <path fill="#065" d="M176 240l8.8-87.2-25.6 62.4 8 39.2" />
    <path fill="#065" d="M160.4 231.6l-16 10.8 78 21.2-70.8-5.6" />
    <path fill="#911" d="M206.8 101.6l-29.2-4.8 36.4 64.4 18-44.8" />
    <path fill="#065" d="M192 171.6l-35.2-1.2-18 11.2 38.4 1.2" />
    <path fill="#911" d="M136 96l-4 117.6 1.6-128.8-16 6.8" />
    <path fill="#B66" d="M724.8 293.6l-8-8-.8 2.8 34.8 1.2" />
    <path fill="#911" d="M398.4 134l19.6 37.6-4 37.6-8-46m428.8 139.6l-14-16.4 20.8 36.4-16.4-16.4" />
    <path fill="#B66" d="M515.2 279.2l10 14.4-2.8 56 10.4-52.8" />
    <path fill="#911" d="M812.8 340.4l-16.8-.8-18-61.6 8.4 46.4M345.2 102.8l-23.6 8-4.4 33.2 10.4-24.4" />
    <path fill="#fff" d="M91.2 130.4l-.8 48 1.2 60 1.2-85.6" />
    <path fill="#911" d="M508.4 209.2l-12.4-4.8 3.6-4.4 11.6-62.8m257.6 10.4l-8 2.4-2.4 42.8 10.4-1.2m44 27.2L808 200l-13.6 10.8 47.2 5.2m-128.4 96.8l-7.2-21.2 8 12.4 13.6 17.2" />
    <path fill="#B66" d="M528.4 292.8l2-32-5.6 13.2 13.6-19.6" />
    <path fill="#065" d="M193.6 201.2l-19.6-4.4 8-3.6 9.6 15.2" />
  </g>
</svg>