<svg version="1.1" viewBox="0 0 1024 448" width="1024" height="448" xmlns="http://www.w3.org/2000/svg">
  <g fill-opacity=".5">
    <g class="SVG--1">
      <path fill="#911" d="M413.6 121.6L378.8 208l-69.2-91.2 108.8 79.6" />
      <path fill="#088" d="M162 94.4l40 62 8 107.2-80.4 18" />
      <path fill="#911" d="M874 126.4v68.4l36.8 26-69.2-31.2M402 254.8l-18 20.8 8.8 86.8 2.4-16.4m103.2-141.6l.4-85.6 23.2 97.6-158.8-5.6M924 222.4L906.4 91.2h18l8 12.8M828 282.8l14 89.6-25.2-5.2 40.4-36.4m-244-185.6l-13.6-7.6-2.8 45.6 30.8 36.4m-506.4 27.2l12-22.8 9.6-121.2L79.2 128" />
      <path fill="#911" d="M335.6 206l-28.8 6.8 32.4 10 67.6-32.8m140.4 42.4L550 138l-99.6 56.4 124.4-63.2m118.8 55.2l15.2 27.6 8-11.6-8-61.6m-326-32.4l-28.8 2-45.6 19.6 36.4-41.6m-95.2 242.4l-158.8-36 43.2 42 125.2-108M802 169.6l-55.2-31.2 13.6 62.4L814 130" />
      <path fill="#B66" d="M754.8 260.4l-9.2 79.6 52.8-82-8.4 90" />
      <path fill="#911" d="M432.4 342l4.4-93.6 12.4 15.6-17.2 98M184.4 115.6l23.6 48 56.8 4.4-57.2-84.8m218.8 51.2l-35.2 66 44 19.2-49.6-87.6m-63.2-11.2l68 71.2-66.4-42.8-12.8-21.2" />
      <path fill="#065" d="M156.4 195.2l16.4-104 14 93.6L176 342" />
      <path fill="#911" d="M482.4 174.4l-12 42L452 200l12.8-26m126 40.8l21.2-74.4 9.2 19.6-12.4 58M800 132.4l24.4 92.4-34.4-25.6 11.2-47.2m-106 46.4L700 184l30.8-49.6-37.2 20.4m-492 76.8l37.6 82.4 6.4-92.4-37.2-28.4m314.4 65.2l13.2 6.8 36.4 74 11.6-30m134.4-88l56.4-39.6-26.4-53.6 13.6 83.6m-179.6-81.2l8.4 18.8-126-18.8 6.8 16M924.8 78l-12.4 136-55.6-9.6 76.4 8.4" />
      <path fill="#911" d="M468.8 327.2l-9.2-38 112-1.2-104-2m184.8-152.4l-2.4 88.8 22.8-37.2L652 85.6m112.8 247.2L676 278l-10 54.4-10-46.8m-502 32l-5.2-30.4-56-8 34 70" />
      <path fill="#088" d="M156 237.2l38.8 21.2-53.2 85.2 54.8 2.4" />
      <path fill="#065" d="M180 249.6l-61.2 44.8 48.4-72.4 70.8 64.8" />
      <path fill="#911" d="M548.4 152l-1.6 53.2 10 23.2 13.2-42.8m226 152l-3.2-21.6-33.2 22-12.8-9.6m-641.2-84.8L96 176.4 93.6 134l75.2-44m248.8 36l-3.6 90-10.4-90.8 30.8 1.2m-117.6 18l63.2 42.8-66-71.6 33.6-18.8" />
      <path fill="#088" d="M144 133.2l-8.8 118.4 22.4-16.8 6-110" />
      <path fill="#911" d="M614 142.4l2.4 60.8-12-35.6-25.2-39.6M400.4 324.8L388 271.2l-2 46.4 17.6 23.2m-88.8-134l29.6 5.6 34.8-39.2L372 210" />
      <path fill="#B66" d="M152 293.6l10.4-31.2 1.6 3.2 76.4 9.6" />
      <path fill="#911" d="M764.8 138l-59.6-2.4 77.2 20.8-28.8 68.4m-436.8-4.4l46.4-11.6-30.4 4.4-28-31.2m134.8 75.6l-6 14.8 4.4 58.8 10-24.8" />
      <path fill="#B66" d="M420.8 330.4l74 1.6 31.6 5.2-143.2 1.2" />
      <path fill="#911" d="M879.2 206l-20.4 11.6 66.8-1.2 17.6-7.2m-142.8-4.8l6.8 2.8 11.2-72.8-9.2 14" />
      <path fill="#911" d="M793.2 210l-26 14 40.8-10 4.4-87.2m-112.4 2l-65.6 18 29.6-42.4-8.4 57.2M261.2 288l-53.6 55.6 12-140.8 31.6 110m152.4-171.6l-11.2 12 57.2-9.6-13.2-13.2M836 302l13.6 26.4-5.6 32.4-19.6-73.2m-366.8-93.2l16.4 25.2-12.4-44 49.2-11.6m232 128.8l21.6-5.6L748 340l13.2-18.4m-235.6-32l2.8-14.8-3.2 70.4 12-52.4M846 168.4l19.6-15.6 74.4-24-53.6 2" />
      <path fill="#911" d="M436 213.2L396 186l6-58 6.4 94" />
      <path fill="#B66" d="M178.4 175.2l71.6 43.2-27.6-36.4-28.4 38.8" />
      <path fill="#911" d="M216.8 179.6l23.2-2 23.6-.4-67.6-56" />
      <path fill="#B66" d="M704 290.8l30.8 35.6-7.2 19.2-32.4-57.6" />
      <path fill="#911" d="M780.8 276.4l14 .4-2 32-5.6 27.2m-178.8-15.2l10.8 16.4 53.6-6.8h-48.4m182.8-170l-24.4-21.2 91.6 15.6-44.8-22.8m-333.2 13.6l22.8-6.4-10 87.2-13.6-97.6" />
      <path fill="#911" d="M612.8 282.8l12.8.4-20.4 16 4.8 39.2M499.2 292l9.6 25.6-13.2 21.2-7.2 4.4m182.8-146.8L646 223.6l25.6-130.4-20.4 25.6m-81.6 100.8l-12-50 12-30.4-28 1.6m164.4 54l3.2-58.8 56.4-7.6-61.2 29.2M373.2 95.2l8.8 22-43.2-19.6 28.4 1.6m458 269.6l-21.6-10.4 36.4-3.6 27.6-75.6m-464.8-68.4l-2.4-78.8 14.8 42.8 6.8 42" />
      <path fill="#B66" d="M535.6 219.2l6.8-15.6 30.4 6.8 216.8 5.6" />
      <path fill="#911" d="M693.6 194.4l17.6-23.6 9.2 48.8 30.8-4.4" />
      <path fill="#B66" d="M659.2 99.2l46.8 5.2-2.4-27.6-19.2 12.8" />
      <path fill="#fff" d="M89.2 230.4l49.2 31.2H90l5.2-156.8" />
      <path fill="#911" d="M663.2 322.4l-.4-14.8 7.6-13.2-4 52.4" />
      <path fill="#065" d="M160 214.4l12.4-140 7.2 240-25.2-87.6" />
      <path fill="#B66" d="M187.6 73.6l72.4 68.8-40-57.6-31.2 14.4" />
      <path fill="#911" d="M462.4 138.8l34 6.8 22.4 60.4-13.2-70.8" />
      <path fill="#B66" d="M88.8 152.8l-1.6 122 6-161.2 36-32.8" />
      <path fill="#911" d="M861.6 152.4l23.6-22-32.8 65.6 24.8 10" />
      <path fill="#B66" d="M116 250.8l-49.2-60 70.4 61.6-37.6-5.6" />
      <path fill="#911" d="M119.6 332.8l47.2-31.6-67.2-30.4-2.8 28m652.4 10.4l9.6 39.6-8.4-86.8 16.8-8.4m1.2-66.4L738 218.8l35.2-15.6-1.6-56.8m-460.8 70.8l36-13.2 29.6-7.6L368 214m341.6 90.4L730 332l-3.6-28.8-6.8 3.6M211.6 164l46.8-19.6-63.2-46.8-13.6 3.2M416.4 208l1.2-64.8.8-31.2-17.6 39.6m94 174.8l3.2-33.6-63.6-3.6 78.8-7.2m-122.8-19.6l-2.8 33.2 5.6 20.4 9.2-56m451.2 63.6L842 356.4l-11.6-78-10 20M616 181.6l-5.2 10-14.4 26.4 22.4-5.2" />
    </g>
    <g class="SVG--2">
      <path fill="#911" d="M562.8 336.4l32.4-48.4-3.2 7.6-15.2 42.8m23.6-144.8l21.2-44.4-58.4-6 40.8-10m209.2 17.6l25.6-11.6H782l21.6 7.6" />
      <path fill="#B66" d="M220 349.6l11.2-73.6-15.2 64.4-96 3.6" />
      <path fill="#065" d="M133.2 150l72.4 28-71.2 9.2 43.2-25.2" />
      <path fill="#B66" d="M792.8 343.2l12.4-6-27.6-34.4 3.2 30.8" />
      <path fill="#911" d="M230.4 320.8l-8 20.4-28.4-31.6 17.2-34.8m-62.8-135.2l-49.6 56V126l38.4-28.4m621.2 189.2l-105.2-.4 37.2 3.2h80m-248.8 47.6h20l-18.4-37.6 16.4 3.6m371.6-159.6L918 216l16.4-146.4-22.8 50.4m-478 214.4l10.8-14.8-30.4 17.2-17.6-11.6" />
      <path fill="#fff" d="M180.4 273.6l8-12.4 4.8 31.2-13.2 7.2" />
      <path fill="#B66" d="M74.8 302.4l23.2 6.4 26 39.2-22.4-19.2" />
      <path fill="#911" d="M367.6 163.2l.4-8 16.4 38.8-48-34" />
      <path fill="#065" d="M162 216.8l40.8 36-86 27.6 40.8-28.8" />
      <path fill="#911" d="M873.2 138.4l37.6-5.2-59.2 27.2 14 38m-250 85.6l96.8 8.8-94-2.4-20.8 41.6M392 310.4l-1.6-63.6 4 19.2-14-12M572 320.8l3.6 28.4-28.8-78 22.4 35.6m130.8-108l-3.2-5.6 2.8-12 33.6 40.8M566 207.2l.4-64-22.4 66-11.6 12" />
      <path fill="#B66" d="M255.2 219.2l-9.6 109.6-44.8 4 60.4-14m72.8-220l47.2 2 1.6 17.2-67.6-22" />
      <path fill="#911" d="M360.8 220.4l19.2-37.2-32 32 15.2 3.6" />
      <path fill="#065" d="M198 329.6l-22-18.4-19.6 24.4 44.8-.4" />
      <path fill="#911" d="M626.4 148.4l64-9.6-29.2-5.2-11.6 6.4m27.2-52.4L658 100.4l38.4-8-3.6 9.2m118 48.4l-15.2.4 5.6 50 12.4 20.8" />
      <path fill="#B66" d="M699.2 322.4l8-23.2-12 38.8 22.8.8" />
      <path fill="#911" d="M98.4 215.6l14.4-103.2 48.4-5.2.8 11.6" />
      <path fill="#065" d="M184 199.6l-12.4 128.8-.4-12-2.4-198.4" />
      <path fill="#B66" d="M194.8 231.2l4-51.2 30.8 116.4L190 232" />
      <path fill="#911" d="M324.8 99.6l54.4 8-25.2-6.8-37.6 31.2M85.2 211.6l1.2-60L97.6 206l10-80.4m361.2 8l-3.6 19.6 17.2-16 33.2 4" />
      <path fill="#065" d="M163.2 252.4l59.6 24-22.4-26.4-52.4-7.2" />
      <path fill="#911" d="M100 175.6l31.6 75.2-21.6-3.6 47.2-43.6m312.4 90.8l-14 51.2 21.6-23.2-19.2 3.2" />
      <path fill="#B66" d="M850.4 279.6l4.8 28-30 68.8 46.8-91.2" />
      <path fill="#911" d="M470.4 202.8L459.6 170l4.8 41.2 52.8 5.6" />
      <path fill="#B66" d="M378 130l4.8-10.4 2 2.8-22.4-32.8" />
      <path fill="#911" d="M416 152.8l35.6-19.2-59.2 2.8 23.2 42.4M98.4 132.4l-3.6 72.4 24.8 25.6L140 212m572.4-70.8l4 72.8-22.4-36 6.8-30.4" />
      <path fill="#B66" d="M217.6 92l-91.6.4 103.2-8 2.4 32.4m285.2 154.8l16.4-15.2 8 10.4-17.2 7.6m-218-63.2L145.6 186l-18.4 79.2 28-79.2m582.4 148.4l2.4 9.2-3.6-5.6 66.4-4.4m-591.6 28.8l48.4-57.6L76 312l177.6-6.4M171.2 274l-21.2-2-5.6 18.8 16 4" />
      <path fill="#911" d="M238 324.8l-36.4-123.2 58.8 28.4-12-18.4M504.8 200l-9.6-32 19.6 2-18.4-39.6m394.4 84.8l22.8-2.8-45.6.8-20.8-41.2" />
      <path fill="#B66" d="M670.8 288.8l8.4-2-22.4 36 15.2 27.6" />
      <path fill="#911" d="M460.8 284.8l2.4 46-3.2 8 13.2-18.4" />
      <path fill="#911" d="M500.4 290.4l3.2 50.8-15.6-57.6-59.2 10" />
      <path fill="#065" d="M138.4 268l-12.8-2.8 76.4-4-134 2.4" />
      <path fill="#911" d="M384.8 176.4l-66.4-52.8 29.2 29.6 20.4 28.4M246.8 318l-20-27.2-16-106.4 25.2 36.4" />
      <path fill="#B66" d="M597.2 284.8L581.6 298l1.2 24 4.4-12.8" />
      <path fill="#911" d="M219.6 338.4l-40.4-42 21.6-1.2 44-29.6M486 132l-13.2 7.6 28 2.8-13.2-15.6" />
      <path fill="#B66" d="M196.8 185.6l-15.2 12 56.4.4-29.6-7.6" />
      <path fill="#065" d="M178.4 108l-16 75.2 19.2 81.6v-70.4" />
      <path fill="#911" d="M784 338.8l8.4-46 .4-22.8-16.4 20.8m-26.8-149.6l14 32.8 4.4 4.4-1.2-35.6" />
      <path fill="#fff" d="M204.4 292.8l-3.2-26.8-57.2 12 34-2.8" />
      <path fill="#911" d="M790 262.8l-.4 61.2 1.2 5.6-10.8-32.8" />
      <path fill="#B66" d="M112.4 116.8L87.6 122 120 91.2l18.8-3.2" />
      <path fill="#911" d="M717.2 296l-51.6-12.4-10.8 8L704 294M561.6 145.6l4.4 33.6-1.6 42-10-7.6m-172.8-16.4L380 184l-15.6 9.2-21.2 26.8m171.2-12l-10-52-41.6 28 54.8-15.6m-47.6 38l11.2 7.2 51.2-2.8-29.2-4.4m239.6 6l27.6-38 4.4-9.6-5.2 38" />
      <path fill="#065" d="M179.2 166.8l-34 110.8 28.8-92.8-53.6 3.2" />
      <path fill="#911" d="M759.2 321.2l-11.6 18-1.2-5.6 10.8-58.8M542 218l120.8-5.6 5.6-110.4v114" />
      <path fill="#065" d="M130.4 226l80.4 3.6 9.2-7.2-22-.8" />
      <path fill="#911" d="M657.6 343.6l3.6-55.6 82-.8-79.2 2m-186.4-4.4l7.2-.8-17.6-.4-6.8 52.8m26-52.4l22 18.4-8 14.8.4 1.6m-105.6 12.4l38.4.4 3.2-83.2-.4 82m-191.6-64l-49.6-71.2 30 4.4-4.4 128M929.6 218l-14-107.6 1.2 108.4 24.8-9.6m-819.2 61.2l-18.8 3.2 26.8 46.8H106" />
      <path fill="#911" d="M873.2 134l48.8 16.8-9.2 48.4 18.4-58M627.2 302l-29.2-6.8 24 43.6-24.8-20.8m87.6-182l-30 26.4 18 49.2-26-79.6m-400.4 29.6v-24.8l-28.8-38.4-37.2 5.6" />
      <path fill="#065" d="M166.4 114.8L184 172l-27.6 51.6 20.8 73.2" />
      <path fill="#911" d="M912.8 92.4l-6.4-2 24-5.2-9.6 98M153.2 138l-51.6 58 7.6-76L130 95.2m270.8 41.2l18-28-7.6 114.4-2.4-14m145.6-71.6l-8 17.6 59.6-24-64.4 9.2" />
      <path fill="#B66" d="M829.2 369.6l-22.4-9.2 30 4.8-33.2-10.4" />
      <path fill="#065" d="M132 230.4l55.6-29.2-18-27.2 16 51.2" />
      <path fill="#911" d="M163.6 102.8l-63.2 114.8 30.8 24-8-142.8" />
      <path fill="#B66" d="M86.4 314l36.4 27.6-29.6-50-5.6-48.4" />
      <path fill="#065" d="M155.2 328.4l21.6-32 9.6 40-37.6-4.8" />
      <path fill="#911" d="M660.4 293.2l-3.6 51.2 21.2-9.2-7.6-5.6" />
      <path fill="#B66" d="M167.2 192l-14.8-5.2L138 214l4.4-10" />
      <path fill="#065" d="M168.4 220l-51.6 70.8 51.6-29.6 32 6" />
      <path fill="#911" d="M147.2 283.6l-13.6 3.2-38 20.4 29.6 24m116.4-169.6l5.6-36.8-65.6-20 54.8 62.8" />
      <path fill="#B66" d="M251.6 124l-46.4 48.4 52.4-55.2-8 67.2" />
      <path fill="#911" d="M512 335.6l-20-5.6 11.2-43.6-19.2-6m182 42.4l-8-35.6 11.6 16-.4 36.4" />
      <path fill="#B66" d="M206 279.6l-95.2 79.2 62.4-46.8 16-32.4" />
      <path fill="#911" d="M849.2 323.6l-9.6 26 26.8-54-7.6-15.6m-57.6-87.6l30 23.2-62.8-1.6 24.4 4" />
      <path fill="#065" d="M176 81.6L157.2 260l55.2 8-40.4-31.6" />
      <path fill="#911" d="M662 162.8l4.8-71.6-17.6 113.6 24 20m182-55.2l5.6-19.6 12 52-11.2 11.2M718 134.8l-6.8 44 4.4 36-18.4-46M100 145.6l18.4 44.4 30.8 10-41.2 20.8" />
      <path fill="#B66" d="M330 221.6l-1.6-5.2-16.8-2.4.8-34.4" />
      <path fill="#911" d="M573.6 326l-14.8-46.4v14.8l6 36.8" />
      <path fill="#B66" d="M137.2 183.2l22-10.4 6-22-9.6 12m289.6 176.8l-47.6-2.8-30-88.4 26.8 78.4" />
      <path fill="#911" d="M697.6 297.2l34.8-14.4-20 2.4-12 27.2M505.6 200l-40 16.8 16.4 2.4 16.8-10M165.6 90.4l-42 .8 37.6 7.2-51.6 10.4m687.6 109.6l21.6-78-29.2-.8 10.8 17.6m-188-13.2l-5.2 79.6-4.4-28.8-.8-56.8" />
      <path fill="#fff" d="M99.6 366.4l-10-70.4 10-59.2-5.2 48.4" />
      <path fill="#911" d="M440.4 286v55.2L436 306l4.4-45.6" />
      <path fill="#B66" d="M449.6 322.4L417.2 340l-19.2 2.8 38-18.8" />
      <path fill="#911" d="M845.6 347.2l-28 14.8-7.6 4h16.4" />
      <path fill="#065" d="M147.2 204l51.2-3.2-22.8 9.6L202 228m-58.4-72.4l20 6.4 46.4-4-36-10.4" />
      <path fill="#911" d="M111.2 200.4l13.2-54L92 211.2l62.4 8.8m-39.6 110l19.6 4.8 32.8-26.8-7.2-14.8M450 204l76-56.4-89.6 67.2-30.4 8.4m-22.4 37.6l19.6 72.8-12.8-65.6 12.8 12.8m-219.2 0l60 14.4-56.8-10.8-57.2 2.4" />
      <path fill="#B66" d="M756 290l54.4-4.4-32-6 46.4 7.2" />
      <path fill="#911" d="M544.8 274.4l24 51.6 3.2 2.8-2.4-21.6m-130 8.4l-4.4-26.8 16.8-30.4-16 7.2M763.2 204l8.4-39.2 7.2 9.6-7.2 13.2m-344 33.2l-11.6-3.2 2 4-19.2-69.2" />
      <path fill="#065" d="M154.8 174.4l38.4-6.4 16 14.4-59.6-6.8" />
      <path fill="#911" d="M758.8 153.6l9.6-14 9.6 50-11.6 10.4" />
      <path fill="#065" d="M173.2 97.6l4.4 180.8-22.4-43.6-.8 27.6" />
      <path fill="#911" d="M613.2 282.4l-3.2 4.4 7.2 52-12.4-18.4m-222-221.2l-7.6 9.2-36.8 1.6 15.6-9.2" />
      <path fill="#B66" d="M785.2 331.2l-.8 4.8 31.2-4-32.4-5.6m-643.6-93.6l21.2-20.8-51.6 56.8 51.6-39.2" />
      <path fill="#911" d="M803.6 205.6L778 218.4l37.6-2.8-16-71.2M662 304.4l-.4 8.4 16.8 24-15.2-.8m-268.8-56l-19.6-16.8 23.6-.4-13.2 40m118-155.2v56.8l11.2-8L506 136m412.4 37.2l.4 37.6 22 6-31.2-28.4m-656 24.4l-1.6 53.6-18-48 13.6 42m131.6-93.6l-12.8 48.8-6-62.4 3.6 4" />
      <path fill="#B66" d="M107.6 229.2l-22.4-40 30.4 57.6-31.2-32.4" />
      <path fill="#911" d="M246.8 236.8H180l50 12 10 18.8m-21.2 77.6l-97.6-1.2-2-.4 100.8.4" />
      <path fill="#B66" d="M141.6 176L126 192.4l36-30.4-12.8 7.2m295.2 118l-.4-26.8-15.6 9.2 2.4-12.4M231.2 110l28.4 23.2-44-45.2 2.4 4.4" />
      <path fill="#911" d="M333.6 162.4l-16-22.4 2.4-22.8 11.2-3.2M598 312l40.4-8 11.6-4-24.4 1.6M122.8 112.8l-8.4 135.6-26-31.2 24 24.8m452.4 42.8l-1.2 8.4 7.6 42.8-12-39.6M308 206.8l37.2 12-9.6-8 45.2 4.4" />
      <path fill="#065" d="M192.4 336l10 2.8-8-12.8-20 2.8" />
      <path fill="#911" d="M518 337.6l4.8-3.6 15.2-27.2-7.2 27.6M668 156l-3.6-69.2-14.4 82.8 11.6 46.4m-295.2-.4l-15.6-7.2-30.8 3.2 9.2 5.6M446 302.8l-13.6 26.4L422 342l13.2-25.6m-254-23.2l28.4 33.6-8.4-55.6 36.4 33.2" />
      <path fill="#911" d="M526 335.2h5.2l2-23.6.4-20m235.2-3.2l-.4.8 54 .8-18.8-5.6M616 174l-13.6-8.4-4.8 46.8 17.2-9.2m151.6-62.8H762l-40 3.2-1.6-10M757.6 306l-2.8-25.2-4 64.4 13.2-60m-251.2-72.4l1.6-49.6-33.6 12h16.8m158.8-40.4l1.6-27.6 3.2-22 6 140" />
      <path fill="#B66" d="M221.6 192.8l-41.2-19.6 47.6 20 21.2 18.8" />
      <path fill="#911" d="M461.6 201.6l54.8-53.2-3.6 15.6-48.4 23.6" />
      <path fill="#065" d="M183.6 178.4L169.2 344l2-90-33.6 14" />
      <path fill="#911" d="M480 220.8L450.8 204l21.6-26-4 1.6m90.4-44.4l6.4 14.8-23.2 67.6 23.6-11.2" />
      <path fill="#B66" d="M637.6 290l6.8-3.6-14.8 34-.8 3.2" />
      <path fill="#911" d="M208.4 227.2l37.2 42.8-.8 39.2-36.8-64M90.8 120L134 82l-35.6 37.2L130 241.6m325.6-94.8L494 134l-26.4 15.2-49.6-11.6m330.4 126.8l13.2 73.6-8-74.4 2.8-8.4m166.4-52.4l1.2 14.8-65.2-18.8 7.6 14.8" />
      <path fill="#B66" d="M664.8 86.4l41.2 2 3.2 20-24-13.6" />
      <path fill="#911" d="M112.4 224l-17.2-8.8 11.2-88.4 48-9.2" />
      <path fill="#065" d="M197.6 170l-72.4 24.8 58-39.6L146 154" />
      <path fill="#911" d="M194.8 216.4L234 214l-1.2 105.2L212.4 202" />
      <path fill="#B66" d="M722 329.2l39.2 4.8-12.4-4-56.8 10" />
      <path fill="#911" d="M175.6 91.6l-87.2 88L182 86.4l53.2 9.2m432 190.8l31.2 2.4-24.8 2.8-19.6 51.6M551.6 198l14.8 15.2-22.4-76.8 10.8 6.8" />
      <path fill="#911" d="M896.4 134.4l-26 14.4 46.8-18 14.8 26.8m-725.2 13.6L204 98.8l39.6 69.2-21.2-4M634 304.8l-40.4 5.6 51.6-1.2-10-26" />
      <path fill="#065" d="M159.6 248.8l-18.4-4 41.6-6 34.4 38.8" />
      <path fill="#B66" d="M543.6 276.4l19.6 38.8-36.4-62-3.6 12.4m252.4-122.8l23.2-4.8 55.6 20.4-23.6-22.8" />
      <path fill="#911" d="M788.8 298.8l-5.6 20.4 6.8 21.6.8-16.8M418.4 148.8l-11.2.8-1.6 11.6-.4 57.2m88 63.6l4.8 54.8 6.8-9.2v-10m-408-137.2l57.2 18-44.8 20-8-89.2" />
      <path fill="#B66" d="M782.8 336l-95.2-3.6 29.2 5.6 9.2-3.2M600.8 284l-16.4 20.4v-30l.8 10.4" />
      <path fill="#911" d="M227.2 335.6l-47.6-18.8 28-29.6 37.2-18" />
      <path fill="#065" d="M171.2 211.6l6.4-84.8 4.4 121.6-41.2 24" />
      <path fill="#B66" d="M332 107.2l46.4 3.6 3.6 12-28.4-18" />
    </g>
    <g class="SVG--3">
      <path fill="#911" d="M759.2 356l-3.2-73.2 5.2 4 .8 9.2M656 190.8l8.4 4V98.4l-6.8 9.2m-552 15.6L98.8 198l44.8-24-46.4-28M214 98.4l17.6 17.6 16.8 59.6-31.6-39.2M105.2 318l46 11.6L102 276l-4.4 30.8M320 128l-.8 10 22.4 25.2-14.4-59.2" />
      <path fill="#fff" d="M90 70.8l.4 129.2.4-26.4 6 87.6" />
      <path fill="#911" d="M212 355.2l42.4-44.8-84.4-21.6 85.6 22.4m669.6-152.4L909.6 210l20.8-74.8-38.8.4M126 330.8l-.8 1.6-12.4-47.6 54 27.2" />
      <path fill="#B66" d="M663.2 203.2l27.6 20L658 212l12 .4" />
      <path fill="#065" d="M179.6 115.6l-13.2 16 19.6 10-1.2-12" />
      <path fill="#911" d="M604 332.8l5.2-25.6 2 22.4 21.2 7.6M155.6 216.4l-28.8 1.6-19.2 1.6 4.4 8.8m-10.8 70.8l40-16.8 7.6 18.4-20 37.6" />
      <path fill="#B66" d="M134.4 238.4l4 17.2-2.8-32.8-6.4 2" />
      <path fill="#911" d="M744.4 220l-31.2-4-1.6-74.8-8.4 52.4m-58.4-51.2l36.8-2.8-28.8-23.2 41.2 26.8" />
      <path fill="#065" d="M179.2 130.4l-6.4 20.8 26.4 6.8-39.2 3.2" />
      <path fill="#911" d="M404 139.2l-17.6 2.4 18 10 49.6-11.2" />
      <path fill="#B66" d="M417.6 331.2l101.6 9.6-68.4-20 53.2 15.6" />
      <path fill="#911" d="M374.8 174l-5.2-4.4-18-20.4 20.8 62.8m446 70.8l29.6 50.8-8.8-23.6-3.2-10.4M415.2 106.8v105.6l-8-1.2-2.8-32.4M118 235.2L98 127.6l57.2-26.4-50 107.6" />
      <path fill="#B66" d="M172.4 228L114 336.4l54.4 13.6-58-6.8" />
      <path fill="#065" d="M148.8 330.4l25.2 4.8 1.6-10.8 8.8-16m13.6-82l-45.6-1.2 20.4-8.4-13.6-19.6" />
      <path fill="#065" d="M205.6 223.6l-19.6 3.6-46-2.4 28.4-6" />
      <path fill="#065" d="M175.6 332.8l3.2-171.2-6.4 82.8-3.2 70" />
      <path fill="#B66" d="M251.2 122.4v10.8l-8.4-16-24.4-24.8" />
      <path fill="#911" d="M586.4 211.6l-36.4-.8 2-65.6 6.8 72M916 94l16.4-6.8-17.2 73.6-2.4-26.8M516 200.8L494.8 188l25.2 36.8-14.8-94.4m-271.6 79.2l6 106.4 6.4-93.2-73.2-11.6" />
      <path fill="#B66" d="M538.8 281.6l-24 8.4 9.2-6 3.2 15.2" />
      <path fill="#911" d="M552.8 144.4l9.6-14.4-1.2 64.8-12-28M929.6 198l-.4-80-8-12.4-9.6 105.2M87.6 240l3.6 83.2 73.6-27.6-76.8 24" />
      <path fill="#065" d="M183.6 174.8l-6.8-28.4 10 35.2 34.4-5.6" />
      <path fill="#911" d="M136.4 171.6l26-17.6-16.8 5.6-32 49.6m650.8 143.6L752 295.2l10-8-8.8 29.2M106 287.6l6.4 53.6-6.8-8.8 52.4-40.8m315.6-150.4l36-7.2-12 33.6 18.8-16.4m192-1.6l45.6-16-43.2 7.2-1.6 55.2" />
      <path fill="#065" d="M219.2 242.4L142 260.8l-6 5.2.4 7.6" />
      <path fill="#911" d="M121.6 169.6L86 209.2 84.8 224l42.4-107.2" />
      <path fill="#065" d="M189.2 327.6l-28.8.8-23.2 16 9.6-12.8m24-67.2l26 2-19.2-60.4-11.6-56.8" />
      <path fill="#911" d="M134 98l-6.8 106-6.8 38.4-26-108.8" />
      <path fill="#B66" d="M250.8 124l2.8 52-80.4-11.6 82.4 15.2" />
      <path fill="#911" d="M192 302.4l40 19.6-35.2-26.4 2.4-64" />
      <path fill="#911" d="M231.6 336l16-16.4-17.2-100 16 97.6m372.4-110.4l-36 11.6 12.8-2.4 16.8-73.2" />
      <path fill="#B66" d="M87.2 307.2l2.8 5.6 9.6 17.2 10 3.2" />
      <path fill="#911" d="M803.2 216.4l6.4-21.6 2.4-26.4-16.4-5.2M182.4 98.8l40 21.2 22.4 36.8h-38.4M204 323.6l-24.8-28 61.6 2.8-20.4 40.4m522.4-209.6l3.2 6.8 15.6 4.4-25.2.8m-591.2 140L96 304l4.4 10.4 42 12.4" />
      <path fill="#065" d="M174 158.4l-63.2 10.8 67.6-20-14.8 118" />
      <path fill="#911" d="M162 116l-37.6 12.8-12.8 55.2-1.2 8.4" />
      <path fill="#065" d="M154.8 181.6l34.4-14 20.8 18-52.4-7.6" />
      <path fill="#911" d="M176.4 294l-56.4 2.4 2-30.8-19.6 52m232-169.6l32.8 9.6 10.8 19.2-16.8-6.4m314-25.6l-12.8-35.6 19.2-26.4-35.2 58.4m126 53.2l-11.2 14.8 5.2-45.6 4-9.6" />
      <path fill="#fff" d="M249.2 197.6l-62.4-6 71.6-12.4-75.6 18" />
      <path fill="#911" d="M302.8 134l132 80.8-24 4-14.4-28M182.8 309.6l15.6 16.4 25.2-15.2-39.2-16.4m285.2 40.4l-11.2 3.2 8-35.6 7.2 34" />
      <path fill="#065" d="M151.6 326l39.6 4 2 1.2-36.4 1.6" />
      <path fill="#911" d="M119.6 126.4l14.8 98.4L98 213.6l.8-73.6" />
      <path fill="#B66" d="M222.4 342.8L163.6 298l87.2 80-41.6-35.6" />
      <path fill="#911" d="M921.2 173.2l6.4 34-12 12 1.6-134.4M852 162.4l16 54 2-51.2 2-22.8M222 281.2l18-44.8-64.8-3.2 68.4 16.8m147.6 25.2l13.6 57.2.8 5.2-15.6-22.8M163.2 101.2l-38 87.6-.8-86L146 100m232.4 84.8l-1.2 13.2-34.8 21.6 13.2-15.2m75.6 16l-23.2-34 7.2-56-16 62.4m441.6 95.6l-3.6 2-51.6-2L774 284" />
      <path fill="#911" d="M243.2 225.6l-30-32-1.2 61.6 34.4 12.8M550 197.2l4-53.2-3.6-2.4 8.8-7.6M400 140.4l40 7.6 6.8-14-51.6 11.6" />
      <path fill="#B66" d="M742.4 311.2l-27.2-32.4-3.2 4.8 11.6.4" />
      <path fill="#911" d="M588.4 286.8l102.8 5.2 1.6-7.6-86.4 6.4m-45.2-146l4.8 57.6-12 9.2-4-50.4" />
      <path fill="#fff" d="M176 258.8l2.8 2L186 284l6.4-9.2" />
      <path fill="#911" d="M402.4 154.4l.4 42 17.6-61.6-17.2-2.8M880 207.6l67.6 8-30.8-19.6 7.6 11.6M582 134.4l33.2 8.4-41.6-2.4 8.8-4.4m257.2 189.2L836 374l10.4-42.8 7.2-13.6m-214-178.8l23.6 15.2-7.6-35.6 5.2 19.6" />
      <path fill="#065" d="M164 216.4l18 49.6-1.2-103.2-4.4-25.6" />
      <path fill="#B66" d="M896.4 90.8L948 116l-40-20.8-2-4" />
      <path fill="#911" d="M514.8 165.2l-22 1.2-28.4 20.4-19.6.8M456 212l44.4 2.4 43.2-6.8-73.2-1.6" />
      <path fill="#911" d="M478 176.8l21.6-2.4 7.2-9.2-27.6 6.8M90.8 124.4l-3.2 7.6-2-10 49.2 16.4m791.6-17.6l10.4 16.8-34.4-48.8 15.6 6" />
      <path fill="#fff" d="M198.4 267.6l-20 12.8 26-2.8 40.4 67.2" />
      <path fill="#911" d="M501.2 154.4l17.2 54.4-16.8 6.4-2.8-69.6m254 62.8l-.8-8-2 2.8-29.6 13.2" />
      <path fill="#B66" d="M160.4 272L134 284.4l-27.6 4.8 37.6-11.6" />
      <path fill="#911" d="M526.8 327.6l2.8-48 7.6 16.4-1.2 10.4" />
      <path fill="#B66" d="M188.8 133.2l.4 17.2 12.8-2.8 5.6 33.2" />
      <path fill="#911" d="M714.4 150l-.4 3.6 21.2-20.4-5.6-.4M234.4 303.6L206 194l39.6 28.4-.4 82.8" />
      <path fill="#065" d="M177.6 264l-107.2 1.6L208 256l-77.2 4.4" />
      <path fill="#911" d="M862.4 202.8l14.8 13.6 16 2.4-14.8-14.4" />
      <path fill="#065" d="M181.2 230l-61.6 23.2 62.8-18-21.2-71.6" />
      <path fill="#065" d="M195.2 266l-40.8-63.6 40.4 17.2-20.4 9.2" />
      <path fill="#065" d="M162.4 252l27.2-53.6-44 9.2 21.6 7.6" />
      <path fill="#B66" d="M218 273.2l17.2 2.4h-18.4l-64.8-2" />
      <path fill="#911" d="M836.8 134l-28.4 11.6 24-1.6 8.8 12m-322.4 59.6l-27.6-86.8 20.4 20.8-12.4 56.4m202-1.6l.4-25.2 14.4 23.6 18.8 8" />
      <path fill="#065" d="M160.4 258.4l7.6-57.2 6.8-109.6 6 171.6" />
      <path fill="#065" d="M176.4 192.8l-15.2 6-1.6 59.2-17.2 12.4" />
      <path fill="#911" d="M452.4 185.2l14.4 27.2 11.2-38.8 26.4-14.4m258.8-14.8l-6.4 54.8-22.4 19.2 30.8-12M914 110v71.6l2.4 36.4 5.6-4m-508.8-2.8l8.8 8.4 8.8-4.4 11.6-5.6M246 310.4l-30.4 16 13.6-77.6 8.4 50.4m158 37.6l-.4-71.6-2.4 3.6-6.8 54.8m214.4-169.2l-22-17.2 24-3.6 10 29.6m-3.2 122.4l5.6 5.6-4.4 19.6 3.6 22" />
      <path fill="#911" d="M114.8 246.8l1.2-2 15.2 2.4 102 8m457.6-142.8l9.6-9.2L682 88l20 6M600.4 307.6l22.8-1.2-16.8-13.6-2 8M116 274.4l-8 46.8 23.2 16.4 6.8-18.4m301.6-44.8l-4.8-.4 4.8 38 2.8-50.4m416 45.2l-17.2 39.6 10.4-26 2-14.8M916 106.4l12.8 43.6-7.6-56.4-14.4-6.8m-750 48.4l40 4.8-86-29.6 68.4 22" />
      <path fill="#911" d="M272.8 290.4L89.6 301.2V146L88 301.6" />
      <path fill="#B66" d="M202.4 294.4l-9.6-7.6-.4-12.4-.8 21.2" />
      <path fill="#065" d="M169.6 226.8l-38.8 50.8 7.2-2 18.8-15.2" />
      <path fill="#911" d="M711.6 342.8l13.2-34 3.6 24.4-28-2.4M241.2 138.4l-44.8 2.4-14.8-29.6 66.8 20.4m-148 137.2l44.8 55.2-43.6-18.4-1.2 11.6M756 335.6l12.8 4.8-18.4-34.4v24.4" />
      <path fill="#B66" d="M374.8 380L179.6 227.6l-5.6-2 91.2 68.8" />
      <path fill="#065" d="M175.2 223.6l-32.4 48.8 42.4-22.8-10.8-131.2" />
      <path fill="#911" d="M511.2 204l-4-40.8 10 48.4-54 .8" />
      <path fill="#B66" d="M210.4 228.4l76.8 51.6-98.4-66.8 31.2 8.4m-92 33.6l-16 22 17.6-17.6-14 51.2m416.8 28.4l-75.2-6.8-14.8 5.2 94.8-5.2" />
      <path fill="#911" d="M879.2 150.8H872l-6.8 33.2-.4-24.8" />
      <path fill="#B66" d="M187.6 198.4l74.8-27.6-46 15.2-36.8-.4" />
      <path fill="#911" d="M221.6 245.2l24.4 10.4-44.8-44.8 16.8-6" />
      <path fill="#065" d="M177.2 282l-12.4 56.8 14.8-14.8L160 215.2" />
      <path fill="#911" d="M673.2 143.2l16 3.6-30.4-18 14 12.8M210 250.8l33.2 43.6-9.6-40.4-21.6-48" />
      <path fill="#065" d="M183.2 141.2l-20.4-7.6-1.6-1.2 15.2-16" />
      <path fill="#911" d="M99.2 180.4l40.4-56.4-2 44.4 4.4 8.8" />
      <path fill="#B66" d="M626.8 286.4l52.8 41.2-60.4-48-17.2 22m-467.2-60.4l10.4 14-21.6-5.2-37.2 24.8" />
      <path fill="#911" d="M191.2 124.8l24-25.2 24.4 26.4 8 44.8m360-14.8l10.4 73.6-14.8-64.8-4.4-24.8" />
      <path fill="#065" d="M163.6 122.8l4.8 31.6-3.2 102L184.8 156" />
      <path fill="#B66" d="M197.2 171.2l44 40-21.6 75.2 25.6-80.8" />
      <path fill="#911" d="M820 214l-34.4-.8 15.6-9.6 26 11.2" />
      <path fill="#065" d="M174.4 337.2l7.2-174.8-59.6 32.4 52.8-18" />
      <path fill="#911" d="M97.6 211.2L140 108.4l-38 114.8 57.2-6.4" />
      <path fill="#065" d="M162.4 215.2l9.2 17.6-46 48.8 28.8-16.8" />
      <path fill="#B66" d="M740.4 280l-39.6 3.6 17.2 37.2-15.6-32m-534.8-150l-36.8 11.6 36.4-8h2.4" />
      <path fill="#911" d="M227.6 243.6l-17.2 89.2 3.6 4 30-29.2m374.4-97.2l-4.8 4-5.2-25.6-14-30M735.6 220l-38-31.6-1.6 2 2.8 9.6" />
      <path fill="#B66" d="M95.2 173.2l-3.6-20.4L78 229.6l17.6-98.8" />
      <path fill="#065" d="M208 230.4L186 218l-18.4-10.4-5.2 18.8" />
      <path fill="#065" d="M169.6 219.2l36.8 48.8-31.2-9.6.8 22.4" />
      <path fill="#911" d="M115.6 108.4l49.6-9.6-60 102 10.4 38.8M664.8 92.8l35.6 5.6-16.8 8 30-14.4" />
      <path fill="#B66" d="M102.4 245.6l47.2-13.6-41.2 28 34.8-30" />
      <path fill="#911" d="M388.8 138.8l22 2-2.8 4.4-20.4-3.6" />
      <path fill="#B66" d="M246 198l10.8 46.4L208 196l42.8 44.4" />
      <path fill="#911" d="M206 147.2l-5.2-46.4 44.8 34.8-11.6 34m373.2 25.2l8.4 8.4.4-46-3.6 12.8" />
      <path fill="#B66" d="M84.8 171.6l4.4 62.4-.4-60 53.2 1.2" />
      <path fill="#911" d="M195.6 301.2l.4-19.2-8 33.2 10-60.4" />
      <path fill="#911" d="M229.2 323.6l-31.2.8-4.8-30.4 50 12m-108-8.8l-36.8-24.8 5.2 48.8 57.2-15.6m41.2-110l22 44.8 21.6 53.2-8.8-67.2m512.4 54.8l4.8 40.4-.4 12.8 5.2-40.8M147.2 102.4l-34.4 12.8-10 104 14.8 16.4" />
      <path fill="#B66" d="M145.2 186l-17.6 7.2 26.8-2.4 24-3.6" />
      <path fill="#911" d="M202 172.4l26-28-44.4-31.6 31.6 11.6m203.6 84l-13.2-17.6 4-43.2-6 58" />
      <path fill="#B66" d="M162 132l49.6 31.2-4-2 77.2 52.8" />
      <path fill="#911" d="M99.6 215.2l2.8-46.8 54.4-45.2-54.4 98.8m34 122.4l-25.6-25.2 19.6 22.4 71.2 4.4" />
      <path fill="#065" d="M181.2 248.8l-19.6-62 22-33.2-18.8-2" />
      <path fill="#fff" d="M168.8 323.2l.4-61.2-21.6 30.8 15.2-22" />
      <path fill="#911" d="M207.2 252.4l16.4-14 22-12.4-9.6 32.8M688.8 292l30.4 25.2 7.2 1.2-44-29.6" />
      <path fill="#065" d="M176 240l8.8-87.2-25.6 62.4 8 39.2" />
      <path fill="#065" d="M160.4 231.6l-16 10.8 78 21.2-70.8-5.6" />
      <path fill="#911" d="M206.8 101.6l-29.2-4.8 36.4 64.4 18-44.8" />
      <path fill="#065" d="M192 171.6l-35.2-1.2-18 11.2 38.4 1.2" />
      <path fill="#911" d="M136 96l-4 117.6 1.6-128.8-16 6.8" />
      <path fill="#B66" d="M724.8 293.6l-8-8-.8 2.8 34.8 1.2" />
      <path fill="#911" d="M398.4 134l19.6 37.6-4 37.6-8-46m428.8 139.6l-14-16.4 20.8 36.4-16.4-16.4" />
      <path fill="#B66" d="M515.2 279.2l10 14.4-2.8 56 10.4-52.8" />
      <path fill="#911" d="M812.8 340.4l-16.8-.8-18-61.6 8.4 46.4M345.2 102.8l-23.6 8-4.4 33.2 10.4-24.4" />
      <path fill="#fff" d="M91.2 130.4l-.8 48 1.2 60 1.2-85.6" />
      <path fill="#911" d="M508.4 209.2l-12.4-4.8 3.6-4.4 11.6-62.8m257.6 10.4l-8 2.4-2.4 42.8 10.4-1.2m44 27.2L808 200l-13.6 10.8 47.2 5.2m-128.4 96.8l-7.2-21.2 8 12.4 13.6 17.2" />
      <path fill="#B66" d="M528.4 292.8l2-32-5.6 13.2 13.6-19.6" />
      <path fill="#065" d="M193.6 201.2l-19.6-4.4 8-3.6 9.6 15.2" />
    </g>
  </g>
</svg>