<svg version="1.1" viewBox="0 0 1024 448" width="1024" height="448" xmlns="http://www.w3.org/2000/svg">
  <g fill-opacity=".5">
    <path fill="#911" d="M414 122l-35 86-69-91 108 79" />
    <path fill="#088" d="M162 94l40 62 8 108-80 18" />
    <path fill="#911" d="M874 126v69l37 26-69-31m-440 65l-18 21 9 86 2-16m103-142l1-85 23 97-159-5m561 11L906 91h18l8 13M828 283l14 89-25-5 40-36M613 145l-13-7-3 45 31 37m-507 27l12-23 10-121-64 25" />
    <path fill="#911" d="M336 206l-29 7 32 10 68-33m140 42l3-94-100 56 125-63m119 55l15 28 8-12-8-61m-326-33l-29 2-46 20 37-42m-95 243L91 295l43 42 125-108m543-59l-55-32 13 63 54-71" />
    <path fill="#B66" d="M755 260l-9 80 52-82-8 90" />
    <path fill="#911" d="M432 342l5-94 12 16-17 98M184 116l24 48 57 4-57-85m218 51l-35 66 44 20-49-88m-64-11l68 71-66-43-13-21" />
    <path fill="#065" d="M156 195l17-104 14 94-11 157" />
    <path fill="#911" d="M482 174l-12 42-18-16 13-26m126 41l21-75 9 20-12 58m191-86l24 93-34-26 11-47m-106 46l5-14 31-50-37 21m-492 77l37 82 7-92-38-29m315 65l13 7 36 74 12-30m134-88l57-39-27-54 14 84m-180-82l9 19-126-19 7 16m453-68l-13 136-55-10 76 9" />
    <path fill="#911" d="M469 327l-9-38 112-1-104-2m184-152l-2 88 23-37-21-99m113 247l-89-55-10 54-10-46m-502 32l-5-31-56-8 34 70" />
    <path fill="#088" d="M156 237l39 21-53 86 54 2" />
    <path fill="#065" d="M180 250l-61 44 48-72 71 65" />
    <path fill="#911" d="M548 152l-1 53 10 23 13-42m226 152l-3-22-33 22-13-10m-641-84l-10-68-2-42 75-44m249 36l-4 90-10-91 30 1m-117 18l63 43-66-71 34-19" />
    <path fill="#088" d="M144 133l-9 119 23-17 6-110" />
    <path fill="#911" d="M614 142l2 61-12-35-25-40M400 325l-12-54-2 47 18 23m-89-134l29 5 35-39-7 37" />
    <path fill="#B66" d="M152 294l10-32 2 4 76 9" />
    <path fill="#911" d="M765 138l-60-2 77 20-28 69m-437-5l46-11-30 4-28-31m135 76l-6 14 4 59 10-25" />
    <path fill="#B66" d="M421 330l74 2 31 5-143 1" />
    <path fill="#911" d="M879 206l-20 12 67-2 17-7m-143-5l7 3 11-73-9 14" />
    <path fill="#911" d="M793 210l-26 14 41-10 4-87m-112 2l-66 18 30-43-8 58M261 288l-53 56 12-141 31 110m153-172l-12 12 58-9-14-14m400 172l14 26-6 33-20-73m-366-94l16 26-12-44 49-12m232 129l21-6-16 53 13-18m-235-32l2-15-3 70 12-52m309-125l20-15 74-24-54 2" />
    <path fill="#911" d="M436 213l-40-27 6-58 6 94" />
    <path fill="#B66" d="M178 175l72 43-28-36-28 39" />
    <path fill="#911" d="M217 180l23-2 24-1-68-56" />
    <path fill="#B66" d="M704 291l31 35-7 20-33-58" />
    <path fill="#911" d="M781 276l14 1-2 32-6 27m-179-15l11 16 54-7h-49m183-170l-24-21 91 16-44-23m-334 14l23-7-10 87-13-97" />
    <path fill="#911" d="M613 283h13l-21 16 5 39m-111-46l10 26-13 21-8 4m183-147l-25 28 26-131-21 26m-81 101l-12-50 12-31-28 2m164 54l3-59 57-8-62 30M373 95l9 22-43-19 28 1m458 270l-21-11 36-3 28-76m-465-68l-3-79 15 43 7 42" />
    <path fill="#B66" d="M536 219l6-15 31 6 217 6" />
    <path fill="#911" d="M694 194l17-23 9 49 31-5" />
    <path fill="#B66" d="M659 99l47 5-2-27-20 13" />
    <path fill="#fff" d="M89 230l49 32H90l5-157" />
    <path fill="#911" d="M663 322v-14l7-14-4 53" />
    <path fill="#065" d="M160 214l12-140 8 240-26-87" />
    <path fill="#B66" d="M188 74l72 68-40-57-31 14" />
    <path fill="#911" d="M462 139l34 7 23 60-13-71" />
    <path fill="#B66" d="M89 153l-2 122 6-161 36-33" />
    <path fill="#911" d="M862 152l23-22-33 66 25 10" />
    <path fill="#B66" d="M116 251l-49-60 70 61-37-5" />
    <path fill="#911" d="M120 333l47-32-67-30-3 28m652 10l10 40-9-87 17-8m1-67l-30 32 35-16-1-57m-461 71l36-13 29-8-8 18m342 90l20 28-4-29-6 4M212 164l46-20-63-46-13 3m234 107l2-65v-31l-17 40m94 174l3-33-64-4 79-7m-123-20l-2 34 5 20 9-56m452 64l-12 32-12-78-10 20M616 182l-5 10-15 26 23-5" />
  </g>
</svg>