<svg version="1.1" viewBox="0 0 1024 448" width="1024" height="448" xmlns="http://www.w3.org/2000/svg">
  <g fill-opacity=".5">
    <path fill="#911" d="M562.8 336.4l32.4-48.4-3.2 7.6-15.2 42.8m23.6-144.8l21.2-44.4-58.4-6 40.8-10m209.2 17.6l25.6-11.6H782l21.6 7.6" />
    <path fill="#B66" d="M220 349.6l11.2-73.6-15.2 64.4-96 3.6" />
    <path fill="#065" d="M133.2 150l72.4 28-71.2 9.2 43.2-25.2" />
    <path fill="#B66" d="M792.8 343.2l12.4-6-27.6-34.4 3.2 30.8" />
    <path fill="#911" d="M230.4 320.8l-8 20.4-28.4-31.6 17.2-34.8m-62.8-135.2l-49.6 56V126l38.4-28.4m621.2 189.2l-105.2-.4 37.2 3.2h80m-248.8 47.6h20l-18.4-37.6 16.4 3.6m371.6-159.6L918 216l16.4-146.4-22.8 50.4m-478 214.4l10.8-14.8-30.4 17.2-17.6-11.6" />
    <path fill="#fff" d="M180.4 273.6l8-12.4 4.8 31.2-13.2 7.2" />
    <path fill="#B66" d="M74.8 302.4l23.2 6.4 26 39.2-22.4-19.2" />
    <path fill="#911" d="M367.6 163.2l.4-8 16.4 38.8-48-34" />
    <path fill="#065" d="M162 216.8l40.8 36-86 27.6 40.8-28.8" />
    <path fill="#911" d="M873.2 138.4l37.6-5.2-59.2 27.2 14 38m-250 85.6l96.8 8.8-94-2.4-20.8 41.6M392 310.4l-1.6-63.6 4 19.2-14-12M572 320.8l3.6 28.4-28.8-78 22.4 35.6m130.8-108l-3.2-5.6 2.8-12 33.6 40.8M566 207.2l.4-64-22.4 66-11.6 12" />
    <path fill="#B66" d="M255.2 219.2l-9.6 109.6-44.8 4 60.4-14m72.8-220l47.2 2 1.6 17.2-67.6-22" />
    <path fill="#911" d="M360.8 220.4l19.2-37.2-32 32 15.2 3.6" />
    <path fill="#065" d="M198 329.6l-22-18.4-19.6 24.4 44.8-.4" />
    <path fill="#911" d="M626.4 148.4l64-9.6-29.2-5.2-11.6 6.4m27.2-52.4L658 100.4l38.4-8-3.6 9.2m118 48.4l-15.2.4 5.6 50 12.4 20.8" />
    <path fill="#B66" d="M699.2 322.4l8-23.2-12 38.8 22.8.8" />
    <path fill="#911" d="M98.4 215.6l14.4-103.2 48.4-5.2.8 11.6" />
    <path fill="#065" d="M184 199.6l-12.4 128.8-.4-12-2.4-198.4" />
    <path fill="#B66" d="M194.8 231.2l4-51.2 30.8 116.4L190 232" />
    <path fill="#911" d="M324.8 99.6l54.4 8-25.2-6.8-37.6 31.2M85.2 211.6l1.2-60L97.6 206l10-80.4m361.2 8l-3.6 19.6 17.2-16 33.2 4" />
    <path fill="#065" d="M163.2 252.4l59.6 24-22.4-26.4-52.4-7.2" />
    <path fill="#911" d="M100 175.6l31.6 75.2-21.6-3.6 47.2-43.6m312.4 90.8l-14 51.2 21.6-23.2-19.2 3.2" />
    <path fill="#B66" d="M850.4 279.6l4.8 28-30 68.8 46.8-91.2" />
    <path fill="#911" d="M470.4 202.8L459.6 170l4.8 41.2 52.8 5.6" />
    <path fill="#B66" d="M378 130l4.8-10.4 2 2.8-22.4-32.8" />
    <path fill="#911" d="M416 152.8l35.6-19.2-59.2 2.8 23.2 42.4M98.4 132.4l-3.6 72.4 24.8 25.6L140 212m572.4-70.8l4 72.8-22.4-36 6.8-30.4" />
    <path fill="#B66" d="M217.6 92l-91.6.4 103.2-8 2.4 32.4m285.2 154.8l16.4-15.2 8 10.4-17.2 7.6m-218-63.2L145.6 186l-18.4 79.2 28-79.2m582.4 148.4l2.4 9.2-3.6-5.6 66.4-4.4m-591.6 28.8l48.4-57.6L76 312l177.6-6.4M171.2 274l-21.2-2-5.6 18.8 16 4" />
    <path fill="#911" d="M238 324.8l-36.4-123.2 58.8 28.4-12-18.4M504.8 200l-9.6-32 19.6 2-18.4-39.6m394.4 84.8l22.8-2.8-45.6.8-20.8-41.2" />
    <path fill="#B66" d="M670.8 288.8l8.4-2-22.4 36 15.2 27.6" />
    <path fill="#911" d="M460.8 284.8l2.4 46-3.2 8 13.2-18.4" />
    <path fill="#911" d="M500.4 290.4l3.2 50.8-15.6-57.6-59.2 10" />
    <path fill="#065" d="M138.4 268l-12.8-2.8 76.4-4-134 2.4" />
    <path fill="#911" d="M384.8 176.4l-66.4-52.8 29.2 29.6 20.4 28.4M246.8 318l-20-27.2-16-106.4 25.2 36.4" />
    <path fill="#B66" d="M597.2 284.8L581.6 298l1.2 24 4.4-12.8" />
    <path fill="#911" d="M219.6 338.4l-40.4-42 21.6-1.2 44-29.6M486 132l-13.2 7.6 28 2.8-13.2-15.6" />
    <path fill="#B66" d="M196.8 185.6l-15.2 12 56.4.4-29.6-7.6" />
    <path fill="#065" d="M178.4 108l-16 75.2 19.2 81.6v-70.4" />
    <path fill="#911" d="M784 338.8l8.4-46 .4-22.8-16.4 20.8m-26.8-149.6l14 32.8 4.4 4.4-1.2-35.6" />
    <path fill="#fff" d="M204.4 292.8l-3.2-26.8-57.2 12 34-2.8" />
    <path fill="#911" d="M790 262.8l-.4 61.2 1.2 5.6-10.8-32.8" />
    <path fill="#B66" d="M112.4 116.8L87.6 122 120 91.2l18.8-3.2" />
    <path fill="#911" d="M717.2 296l-51.6-12.4-10.8 8L704 294M561.6 145.6l4.4 33.6-1.6 42-10-7.6m-172.8-16.4L380 184l-15.6 9.2-21.2 26.8m171.2-12l-10-52-41.6 28 54.8-15.6m-47.6 38l11.2 7.2 51.2-2.8-29.2-4.4m239.6 6l27.6-38 4.4-9.6-5.2 38" />
    <path fill="#065" d="M179.2 166.8l-34 110.8 28.8-92.8-53.6 3.2" />
    <path fill="#911" d="M759.2 321.2l-11.6 18-1.2-5.6 10.8-58.8M542 218l120.8-5.6 5.6-110.4v114" />
    <path fill="#065" d="M130.4 226l80.4 3.6 9.2-7.2-22-.8" />
    <path fill="#911" d="M657.6 343.6l3.6-55.6 82-.8-79.2 2m-186.4-4.4l7.2-.8-17.6-.4-6.8 52.8m26-52.4l22 18.4-8 14.8.4 1.6m-105.6 12.4l38.4.4 3.2-83.2-.4 82m-191.6-64l-49.6-71.2 30 4.4-4.4 128M929.6 218l-14-107.6 1.2 108.4 24.8-9.6m-819.2 61.2l-18.8 3.2 26.8 46.8H106" />
    <path fill="#911" d="M873.2 134l48.8 16.8-9.2 48.4 18.4-58M627.2 302l-29.2-6.8 24 43.6-24.8-20.8m87.6-182l-30 26.4 18 49.2-26-79.6m-400.4 29.6v-24.8l-28.8-38.4-37.2 5.6" />
    <path fill="#065" d="M166.4 114.8L184 172l-27.6 51.6 20.8 73.2" />
    <path fill="#911" d="M912.8 92.4l-6.4-2 24-5.2-9.6 98M153.2 138l-51.6 58 7.6-76L130 95.2m270.8 41.2l18-28-7.6 114.4-2.4-14m145.6-71.6l-8 17.6 59.6-24-64.4 9.2" />
    <path fill="#B66" d="M829.2 369.6l-22.4-9.2 30 4.8-33.2-10.4" />
    <path fill="#065" d="M132 230.4l55.6-29.2-18-27.2 16 51.2" />
    <path fill="#911" d="M163.6 102.8l-63.2 114.8 30.8 24-8-142.8" />
    <path fill="#B66" d="M86.4 314l36.4 27.6-29.6-50-5.6-48.4" />
    <path fill="#065" d="M155.2 328.4l21.6-32 9.6 40-37.6-4.8" />
    <path fill="#911" d="M660.4 293.2l-3.6 51.2 21.2-9.2-7.6-5.6" />
    <path fill="#B66" d="M167.2 192l-14.8-5.2L138 214l4.4-10" />
    <path fill="#065" d="M168.4 220l-51.6 70.8 51.6-29.6 32 6" />
    <path fill="#911" d="M147.2 283.6l-13.6 3.2-38 20.4 29.6 24m116.4-169.6l5.6-36.8-65.6-20 54.8 62.8" />
    <path fill="#B66" d="M251.6 124l-46.4 48.4 52.4-55.2-8 67.2" />
    <path fill="#911" d="M512 335.6l-20-5.6 11.2-43.6-19.2-6m182 42.4l-8-35.6 11.6 16-.4 36.4" />
    <path fill="#B66" d="M206 279.6l-95.2 79.2 62.4-46.8 16-32.4" />
    <path fill="#911" d="M849.2 323.6l-9.6 26 26.8-54-7.6-15.6m-57.6-87.6l30 23.2-62.8-1.6 24.4 4" />
    <path fill="#065" d="M176 81.6L157.2 260l55.2 8-40.4-31.6" />
    <path fill="#911" d="M662 162.8l4.8-71.6-17.6 113.6 24 20m182-55.2l5.6-19.6 12 52-11.2 11.2M718 134.8l-6.8 44 4.4 36-18.4-46M100 145.6l18.4 44.4 30.8 10-41.2 20.8" />
    <path fill="#B66" d="M330 221.6l-1.6-5.2-16.8-2.4.8-34.4" />
    <path fill="#911" d="M573.6 326l-14.8-46.4v14.8l6 36.8" />
    <path fill="#B66" d="M137.2 183.2l22-10.4 6-22-9.6 12m289.6 176.8l-47.6-2.8-30-88.4 26.8 78.4" />
    <path fill="#911" d="M697.6 297.2l34.8-14.4-20 2.4-12 27.2M505.6 200l-40 16.8 16.4 2.4 16.8-10M165.6 90.4l-42 .8 37.6 7.2-51.6 10.4m687.6 109.6l21.6-78-29.2-.8 10.8 17.6m-188-13.2l-5.2 79.6-4.4-28.8-.8-56.8" />
    <path fill="#fff" d="M99.6 366.4l-10-70.4 10-59.2-5.2 48.4" />
    <path fill="#911" d="M440.4 286v55.2L436 306l4.4-45.6" />
    <path fill="#B66" d="M449.6 322.4L417.2 340l-19.2 2.8 38-18.8" />
    <path fill="#911" d="M845.6 347.2l-28 14.8-7.6 4h16.4" />
    <path fill="#065" d="M147.2 204l51.2-3.2-22.8 9.6L202 228m-58.4-72.4l20 6.4 46.4-4-36-10.4" />
    <path fill="#911" d="M111.2 200.4l13.2-54L92 211.2l62.4 8.8m-39.6 110l19.6 4.8 32.8-26.8-7.2-14.8M450 204l76-56.4-89.6 67.2-30.4 8.4m-22.4 37.6l19.6 72.8-12.8-65.6 12.8 12.8m-219.2 0l60 14.4-56.8-10.8-57.2 2.4" />
    <path fill="#B66" d="M756 290l54.4-4.4-32-6 46.4 7.2" />
    <path fill="#911" d="M544.8 274.4l24 51.6 3.2 2.8-2.4-21.6m-130 8.4l-4.4-26.8 16.8-30.4-16 7.2M763.2 204l8.4-39.2 7.2 9.6-7.2 13.2m-344 33.2l-11.6-3.2 2 4-19.2-69.2" />
    <path fill="#065" d="M154.8 174.4l38.4-6.4 16 14.4-59.6-6.8" />
    <path fill="#911" d="M758.8 153.6l9.6-14 9.6 50-11.6 10.4" />
    <path fill="#065" d="M173.2 97.6l4.4 180.8-22.4-43.6-.8 27.6" />
    <path fill="#911" d="M613.2 282.4l-3.2 4.4 7.2 52-12.4-18.4m-222-221.2l-7.6 9.2-36.8 1.6 15.6-9.2" />
    <path fill="#B66" d="M785.2 331.2l-.8 4.8 31.2-4-32.4-5.6m-643.6-93.6l21.2-20.8-51.6 56.8 51.6-39.2" />
    <path fill="#911" d="M803.6 205.6L778 218.4l37.6-2.8-16-71.2M662 304.4l-.4 8.4 16.8 24-15.2-.8m-268.8-56l-19.6-16.8 23.6-.4-13.2 40m118-155.2v56.8l11.2-8L506 136m412.4 37.2l.4 37.6 22 6-31.2-28.4m-656 24.4l-1.6 53.6-18-48 13.6 42m131.6-93.6l-12.8 48.8-6-62.4 3.6 4" />
    <path fill="#B66" d="M107.6 229.2l-22.4-40 30.4 57.6-31.2-32.4" />
    <path fill="#911" d="M246.8 236.8H180l50 12 10 18.8m-21.2 77.6l-97.6-1.2-2-.4 100.8.4" />
    <path fill="#B66" d="M141.6 176L126 192.4l36-30.4-12.8 7.2m295.2 118l-.4-26.8-15.6 9.2 2.4-12.4M231.2 110l28.4 23.2-44-45.2 2.4 4.4" />
    <path fill="#911" d="M333.6 162.4l-16-22.4 2.4-22.8 11.2-3.2M598 312l40.4-8 11.6-4-24.4 1.6M122.8 112.8l-8.4 135.6-26-31.2 24 24.8m452.4 42.8l-1.2 8.4 7.6 42.8-12-39.6M308 206.8l37.2 12-9.6-8 45.2 4.4" />
    <path fill="#065" d="M192.4 336l10 2.8-8-12.8-20 2.8" />
    <path fill="#911" d="M518 337.6l4.8-3.6 15.2-27.2-7.2 27.6M668 156l-3.6-69.2-14.4 82.8 11.6 46.4m-295.2-.4l-15.6-7.2-30.8 3.2 9.2 5.6M446 302.8l-13.6 26.4L422 342l13.2-25.6m-254-23.2l28.4 33.6-8.4-55.6 36.4 33.2" />
    <path fill="#911" d="M526 335.2h5.2l2-23.6.4-20m235.2-3.2l-.4.8 54 .8-18.8-5.6M616 174l-13.6-8.4-4.8 46.8 17.2-9.2m151.6-62.8H762l-40 3.2-1.6-10M757.6 306l-2.8-25.2-4 64.4 13.2-60m-251.2-72.4l1.6-49.6-33.6 12h16.8m158.8-40.4l1.6-27.6 3.2-22 6 140" />
    <path fill="#B66" d="M221.6 192.8l-41.2-19.6 47.6 20 21.2 18.8" />
    <path fill="#911" d="M461.6 201.6l54.8-53.2-3.6 15.6-48.4 23.6" />
    <path fill="#065" d="M183.6 178.4L169.2 344l2-90-33.6 14" />
    <path fill="#911" d="M480 220.8L450.8 204l21.6-26-4 1.6m90.4-44.4l6.4 14.8-23.2 67.6 23.6-11.2" />
    <path fill="#B66" d="M637.6 290l6.8-3.6-14.8 34-.8 3.2" />
    <path fill="#911" d="M208.4 227.2l37.2 42.8-.8 39.2-36.8-64M90.8 120L134 82l-35.6 37.2L130 241.6m325.6-94.8L494 134l-26.4 15.2-49.6-11.6m330.4 126.8l13.2 73.6-8-74.4 2.8-8.4m166.4-52.4l1.2 14.8-65.2-18.8 7.6 14.8" />
    <path fill="#B66" d="M664.8 86.4l41.2 2 3.2 20-24-13.6" />
    <path fill="#911" d="M112.4 224l-17.2-8.8 11.2-88.4 48-9.2" />
    <path fill="#065" d="M197.6 170l-72.4 24.8 58-39.6L146 154" />
    <path fill="#911" d="M194.8 216.4L234 214l-1.2 105.2L212.4 202" />
    <path fill="#B66" d="M722 329.2l39.2 4.8-12.4-4-56.8 10" />
    <path fill="#911" d="M175.6 91.6l-87.2 88L182 86.4l53.2 9.2m432 190.8l31.2 2.4-24.8 2.8-19.6 51.6M551.6 198l14.8 15.2-22.4-76.8 10.8 6.8" />
    <path fill="#911" d="M896.4 134.4l-26 14.4 46.8-18 14.8 26.8m-725.2 13.6L204 98.8l39.6 69.2-21.2-4M634 304.8l-40.4 5.6 51.6-1.2-10-26" />
    <path fill="#065" d="M159.6 248.8l-18.4-4 41.6-6 34.4 38.8" />
    <path fill="#B66" d="M543.6 276.4l19.6 38.8-36.4-62-3.6 12.4m252.4-122.8l23.2-4.8 55.6 20.4-23.6-22.8" />
    <path fill="#911" d="M788.8 298.8l-5.6 20.4 6.8 21.6.8-16.8M418.4 148.8l-11.2.8-1.6 11.6-.4 57.2m88 63.6l4.8 54.8 6.8-9.2v-10m-408-137.2l57.2 18-44.8 20-8-89.2" />
    <path fill="#B66" d="M782.8 336l-95.2-3.6 29.2 5.6 9.2-3.2M600.8 284l-16.4 20.4v-30l.8 10.4" />
    <path fill="#911" d="M227.2 335.6l-47.6-18.8 28-29.6 37.2-18" />
    <path fill="#065" d="M171.2 211.6l6.4-84.8 4.4 121.6-41.2 24" />
    <path fill="#B66" d="M332 107.2l46.4 3.6 3.6 12-28.4-18" />
  </g>
</svg>