<svg version="1.1" viewBox="0 0 1024 448" width="1024" height="448" xmlns="http://www.w3.org/2000/svg">
  <g fill-opacity=".5">
    <path fill="#911" d="M759 356l-3-73 5 4 1 9M656 191l8 4V98l-6 10m-552 15l-7 75 45-24-47-28m117-48l18 18 16 60-31-40M105 318l46 12-49-54-4 31m222-179l-1 10 23 25-15-59" />
    <path fill="#fff" d="M90 71v129l1-26 6 87" />
    <path fill="#911" d="M212 355l42-45-84-21 86 22m669-152l-15 51 20-75-38 1M126 331l-1 1-12-47 54 27" />
    <path fill="#B66" d="M663 203l28 20-33-11h12" />
    <path fill="#065" d="M180 116l-14 16 20 10-1-12" />
    <path fill="#911" d="M604 333l5-26 2 23 21 7M156 216l-29 2-19 2 4 8m-11 71l40-17 8 19-20 37" />
    <path fill="#B66" d="M134 238l4 18-2-33-7 2" />
    <path fill="#911" d="M744 220l-31-4-1-75-9 53m-58-52l37-2-29-24 41 27" />
    <path fill="#065" d="M179 130l-6 21 26 7-39 3" />
    <path fill="#911" d="M404 139l-18 3 18 10 50-12" />
    <path fill="#B66" d="M418 331l101 10-68-20 53 15" />
    <path fill="#911" d="M375 174l-5-4-18-21 20 63m446 71l30 51-9-24-3-10M415 107v105l-8-1-3-32m-286 56L98 128l57-27-50 108" />
    <path fill="#B66" d="M172 228l-58 108 54 14-58-7" />
    <path fill="#065" d="M149 330l25 5 2-11 8-16m14-82l-46-1 21-8-14-20" />
    <path fill="#065" d="M206 224l-20 3-46-2 28-6" />
    <path fill="#065" d="M176 333l3-171-7 82-3 70" />
    <path fill="#B66" d="M251 122v11l-8-16-25-25" />
    <path fill="#911" d="M586 212l-36-1 2-66 7 72M916 94l16-7-17 74-2-27m-397 67l-21-13 25 37-15-95m-271 80l6 106 6-93-73-12" />
    <path fill="#B66" d="M539 282l-24 8 9-6 3 15" />
    <path fill="#911" d="M553 144l9-14-1 65-12-28m381 31l-1-80-8-12-9 105M88 240l3 83 74-27-77 24" />
    <path fill="#065" d="M184 175l-7-29 10 36 34-6" />
    <path fill="#911" d="M136 172l26-18-16 6-32 49m650 144l-12-58 10-8-9 29m-647-28l6 53-6-9 52-40m316-151l36-7-12 34 18-17m192-1l46-16-43 7-2 55" />
    <path fill="#065" d="M219 242l-77 19-6 5v8" />
    <path fill="#911" d="M122 170l-36 39-1 15 42-107" />
    <path fill="#065" d="M189 328h-29l-23 16 10-12m24-68l26 2-19-60-12-57" />
    <path fill="#911" d="M134 98l-7 106-7 38-26-108" />
    <path fill="#B66" d="M251 124l3 52-81-12 83 16" />
    <path fill="#911" d="M192 302l40 20-35-26 2-64" />
    <path fill="#911" d="M232 336l16-16-18-100 16 97m373-110l-36 11 13-2 16-73" />
    <path fill="#B66" d="M87 307l3 6 10 17 10 3" />
    <path fill="#911" d="M803 216l7-21 2-27-16-5M182 99l40 21 23 37h-39m-2 167l-25-28 62 2-21 41m523-210l3 7 16 4-26 1M145 281l-49 23 4 10 42 13" />
    <path fill="#065" d="M174 158l-63 11 67-20-14 118" />
    <path fill="#911" d="M162 116l-38 13-12 55-2 8" />
    <path fill="#065" d="M155 182l34-14 21 18-52-8" />
    <path fill="#911" d="M176 294l-56 2 2-30-20 52m232-170l33 10 11 19-17-7m314-25l-13-36 20-26-36 58m126 53l-11 15 5-45 4-10" />
    <path fill="#fff" d="M249 198l-62-6 71-13-75 18" />
    <path fill="#911" d="M303 134l132 81-24 4-15-28M183 310l15 16 26-15-40-17m286 41l-12 3 8-36 8 34" />
    <path fill="#065" d="M152 326l39 4 2 1-36 2" />
    <path fill="#911" d="M120 126l14 99-36-11 1-74" />
    <path fill="#B66" d="M222 343l-58-45 87 80-42-36" />
    <path fill="#911" d="M921 173l7 34-12 12 1-134m-65 77l16 54 2-51 2-23M222 281l18-45-65-3 69 17m147 25l14 57 1 6-16-23M163 101l-38 88-1-86 22-3m232 85l-1 13-35 22 14-16m75 16l-23-34 7-56-16 63m442 95l-4 2-51-2-12-4" />
    <path fill="#911" d="M243 226l-30-32-1 61 34 13m304-71l4-53-4-2 9-8m-159 6l40 8 7-14-52 12" />
    <path fill="#B66" d="M742 311l-27-32-3 5h12" />
    <path fill="#911" d="M588 287l103 5 2-8-87 7m-45-146l5 57-12 10-4-51" />
    <path fill="#fff" d="M176 259l3 2 7 23 6-9" />
    <path fill="#911" d="M402 154l1 42 17-61-17-3m477 76l68 8-31-20 7 12m-342-74l33 9-41-3 8-4m258 189l-4 49 10-43 8-13M640 139l23 15-7-36 5 20" />
    <path fill="#065" d="M164 216l18 50-1-103-5-26" />
    <path fill="#B66" d="M896 91l52 25-40-21-2-4" />
    <path fill="#911" d="M515 165l-22 1-29 21-19 1m11 24l44 2 44-6-74-2" />
    <path fill="#911" d="M478 177l22-3 7-9-28 7M91 124l-3 8-2-10 49 16m791-17l11 17-35-49 16 6" />
    <path fill="#fff" d="M198 268l-20 12 26-2 41 67" />
    <path fill="#911" d="M501 154l17 55-16 6-3-69m254 62l-1-8-2 3-30 13" />
    <path fill="#B66" d="M160 272l-26 12-28 5 38-11" />
    <path fill="#911" d="M527 328l3-48 7 16-1 10" />
    <path fill="#B66" d="M189 133v17l13-2 6 33" />
    <path fill="#911" d="M714 150v4l21-21h-5M234 304l-28-110 40 28-1 83" />
    <path fill="#065" d="M178 264l-108 2 138-10-77 4" />
    <path fill="#911" d="M862 203l15 13 16 3-15-15" />
    <path fill="#065" d="M181 230l-61 23 62-18-21-71" />
    <path fill="#065" d="M195 266l-41-64 41 18-21 9" />
    <path fill="#065" d="M162 252l28-54-44 10 21 7" />
    <path fill="#B66" d="M218 273l17 3h-18l-65-2" />
    <path fill="#911" d="M837 134l-29 12 24-2 9 12m-322 60l-28-87 21 21-13 56m202-2l1-25 14 24 19 8" />
    <path fill="#065" d="M160 258l8-57 7-109 6 171" />
    <path fill="#065" d="M176 193l-15 6-1 59-18 12" />
    <path fill="#911" d="M452 185l15 27 11-38 26-15m259-15l-6 55-23 19 31-12m149-96v72l2 36 6-4m-509-3l9 9 9-5 11-5M246 310l-30 16 13-77 9 50m158 38l-1-72-2 4-7 55m214-170l-22-17 24-3 10 29m-3 123l6 5-5 20 4 22" />
    <path fill="#911" d="M115 247l1-2 15 2 102 8m458-143l9-9-18-15 20 6M600 308l23-2-17-13-2 8m-488-27l-8 47 23 17 7-19m302-45h-5l5 38 2-50m416 45l-17 39 11-26 2-14m62-200l13 44-8-56-14-7m-750 48l40 5-86-30 68 22" />
    <path fill="#911" d="M273 290L90 301V146l-2 156" />
    <path fill="#B66" d="M202 294l-9-7-1-13v22" />
    <path fill="#065" d="M170 227l-39 51 7-2 19-16" />
    <path fill="#911" d="M712 343l13-34 3 24-28-2M241 138l-45 3-14-30 66 21M100 269l45 55-43-18-2 11m656 19l13 4-19-34v24" />
    <path fill="#B66" d="M375 380L180 228l-6-2 91 68" />
    <path fill="#065" d="M175 224l-32 48 42-22-11-132" />
    <path fill="#911" d="M511 204l-4-41 10 49h-54" />
    <path fill="#B66" d="M210 228l77 52-98-67 31 9m-92 33l-16 22 18-17-14 51m416 28l-75-7-15 6 95-6" />
    <path fill="#911" d="M879 151h-7l-7 33v-25" />
    <path fill="#B66" d="M188 198l74-27-46 15h-36" />
    <path fill="#911" d="M222 245l24 11-45-45 17-6" />
    <path fill="#065" d="M177 282l-12 57 15-15-20-109" />
    <path fill="#911" d="M673 143l16 4-30-18 14 13M210 251l33 43-9-40-22-48" />
    <path fill="#065" d="M183 141l-20-7-2-2 15-16" />
    <path fill="#911" d="M99 180l41-56-2 44 4 9" />
    <path fill="#B66" d="M627 286l53 42-61-48-17 22m-467-61l10 14-21-5-38 25" />
    <path fill="#911" d="M191 125l24-25 25 26 8 45m360-15l10 74-15-65-4-25" />
    <path fill="#065" d="M164 123l4 31-3 102 20-100" />
    <path fill="#B66" d="M197 171l44 40-21 75 25-80" />
    <path fill="#911" d="M820 214l-34-1 15-9 26 11" />
    <path fill="#065" d="M174 337l8-175-60 33 53-18" />
    <path fill="#911" d="M98 211l42-103-38 115 57-6" />
    <path fill="#065" d="M162 215l10 18-46 49 28-17" />
    <path fill="#B66" d="M740 280l-39 4 17 37-16-32M168 139l-37 11 36-8h3" />
    <path fill="#911" d="M228 244l-18 89 4 4 30-29m374-98l-4 4-6-25-14-30m142 61l-38-32-2 2 3 10" />
    <path fill="#B66" d="M95 173l-3-20-14 77 18-99" />
    <path fill="#065" d="M208 230l-22-12-18-10-6 18" />
    <path fill="#065" d="M170 219l36 49-31-10 1 23" />
    <path fill="#911" d="M116 108l49-9-60 102 11 39M665 93l35 5-16 8 30-14" />
    <path fill="#B66" d="M102 246l48-14-42 28 35-30" />
    <path fill="#911" d="M389 139l22 2-3 4-20-3" />
    <path fill="#B66" d="M246 198l11 46-49-48 43 44" />
    <path fill="#911" d="M206 147l-5-46 45 35-12 34m373 25l9 8v-46l-4 13" />
    <path fill="#B66" d="M85 172l4 62v-60l53 1" />
    <path fill="#911" d="M196 301v-19l-8 33 10-60" />
    <path fill="#911" d="M229 324h-31l-5-30 50 12m-108-9l-37-25 6 49 57-15m41-110l22 44 22 54-9-68m512 55l5 41v12l5-40M147 102l-34 13-10 104 15 17" />
    <path fill="#B66" d="M145 186l-17 7 26-2 24-4" />
    <path fill="#911" d="M202 172l26-28-44-31 31 11m204 84l-13-17 4-43-6 58" />
    <path fill="#B66" d="M162 132l50 31-4-2 77 53" />
    <path fill="#911" d="M100 215l2-47 55-45-55 99m34 122l-25-25 19 23 72 4" />
    <path fill="#065" d="M181 249l-19-62 22-33-19-2" />
    <path fill="#fff" d="M169 323v-61l-21 31 15-22" />
    <path fill="#911" d="M207 252l17-14 22-12-10 33m453 33l30 25 7 1-44-29" />
    <path fill="#065" d="M176 240l9-87-26 62 8 39" />
    <path fill="#065" d="M160 232l-16 10 78 22-70-6" />
    <path fill="#911" d="M207 102l-29-5 36 64 18-45" />
    <path fill="#065" d="M192 172l-35-2-18 12 38 1" />
    <path fill="#911" d="M136 96l-4 118 2-129-16 7" />
    <path fill="#B66" d="M725 294l-8-8-1 2 35 2" />
    <path fill="#911" d="M398 134l20 38-4 37-8-46m429 140l-14-17 21 37-17-17" />
    <path fill="#B66" d="M515 279l10 15-3 56 11-53" />
    <path fill="#911" d="M813 340h-17l-18-62 8 46M345 103l-23 8-5 33 11-24" />
    <path fill="#fff" d="M91 130l-1 48 2 60 1-85" />
    <path fill="#911" d="M508 209l-12-5 4-4 11-63m258 11l-8 2-3 43 11-1m44 27l-5-19-14 11 48 5m-129 97l-7-21 8 12 14 17" />
    <path fill="#B66" d="M528 293l2-32-5 13 13-20" />
    <path fill="#065" d="M194 201l-20-4 8-4 10 15" />
  </g>
</svg>