<svg version="1.1" viewBox="0 0 1024 448" width="1024" height="448" xmlns="http://www.w3.org/2000/svg">
  <g fill-opacity=".5">
    <path d="M264 331.3l-215.5 1.5 31.8-42 187.4-1.1zM50.3 160.3l2.7-40h210l-4.7 44.9zM52 249l17 38 186.2-80-4-39.5z" />
    <path d="M373.5 189l-5.2 16.7-6-.1-49.3-3.8z" />
    <path fill="#888" d="M462.5 354.3l11.3-35.5 26 8-84.6 13.2z" />
    <path d="M519 151.5l26-36.6 20.8 28.8.1-26.7z" />
    <path fill="#B22" d="M836.4 261.2l-44.5-4.3-22.2 15.6 20.5 11.2z" />
    <path d="M799.2 137.1l-43.4-13-2.3 16.5 66.5-32zM823 160.3l9.6 26.7 26.5 21.5-19.5-49.3zM811.4 215.3l-22.2-38.8 18.3 2 6.2 27.5zM483.4 120l-14.8 1.4 1.6 92.2 9.2-20.7zM697.8 154.5l42-38.4-17 3.2-25.5 21.8z" />
    <path d="M798.5 182l-36.3.2-19.3-27 22.8 9.4zM770.9 235.7l19.3-2.1-41.9-18.9 3.2-11z" />
    <path fill="#2AE" d="M520.2 335.4l-6.2-43.9 6 11.9 36.6 50.9zM564.3 273.4l-14.4-4.1 10.6 14.1 21.4-2.9z" />
    <path fill="#888" d="M401 263.5l35.6 16.3-52.9 14.4 33.5 37z" />
    <path d="M351.2 139l-33.5 56.7 54.1-74.7-68.3 5zM419 198l-38.7-75 12.2-5.7 23.8 47.7zM593.8 160.2l30.5 49.3-21.6-76.2 46.1-17.3zM934.6 163.4l-17.9-43.5 19.8-.9-17.8 26.2zM908.3 140.8l-15 6.6-27-24.6 19.3 1.7z" />
    <path fill="#2AE" d="M553.6 356.7l33.5-23.6-31-11.9 37.9-.3z" />
    <path d="M242.4 167.3l21 35.5-2 4.6-202.9 64.1zM509 131.5l55.9.2-27.3-10.4-9.3 41z" />
    <path fill="#2AE" d="M582.4 300.2l29.4 22-12.5-41-59.4 35.4z" />
    <path d="M667.1 130.3l-.9 16.4-43.1-29 28.8.7zM797.4 120.8l1.4 49.3-31.1 13 48.1-39.6z" />
    <path fill="#2AE" d="M572.3 252.8l30 17.2-86.5 45.4 65-41z" />
    <path fill="#B22" d="M838.9 256l13 12.6 12.9 17.4-39-22.7z" />
    <path d="M446.8 117.2l-4.7 1.7-21.7 71.6 39-68.6zM678.7 136.8l-55.3 36.8-28.8 1.8 56.4-35zM542.8 118.4L529.7 140l39.1-18.7-7.1-3.2z" />
    <path fill="#B22" d="M799.4 252.3l37.5 3.7-49.4 29.9-16.3-12.5z" />
    <path d="M705.8 207l-6.4-90-10.2 88.9 24.4.9z" />
    <path fill="#2AE" d="M548 260.6l23.1-6.3 42.7 40-5.6-18.8z" />
    <path d="M816.2 189.1l-5.4 33.5-56.7-2.4 23.2 17z" />
    <path fill="#3B4" d="M707.5 277.5l12.2 6.5 3.2-20-58.8 70.8z" />
    <path d="M922 135l58-4.9 8.3-2.6-23.1-11.4z" />
    <path fill="#B22" d="M774.1 340.9l9-47.7-20.3-8.4-2.7 23.5z" />
    <path d="M580.9 207.8l-14.3-15.3-4.3-73.6 20.3 72.5z" />
    <path fill="#3B4" d="M642.6 331.4L661 348l-22.4-54.4-.9 17.3z" />
    <path d="M850.6 202.7l-11.4-60.5-9-2.6-4.4 35.8zM302.6 120.4l39 15.2-41-1.2 3.7-14.2z" />
    <path fill="#B22" d="M804.7 337l24.9-60.4-40.1 20 67.8 10.6z" />
    <path d="M919.6 207.5l19-3.3-4.7-9.3-13-37.3z" />
    <path fill="#2AE" d="M616.8 289.5l-21.3 39.2-10.4 23 26.6-29.9z" />
    <path d="M811.3 223l7.3-18.5-6.4-22.1-21.2-13.6z" />
    <path fill="#888" d="M403.7 314.8l19.5-35.2-14.5 5-22.7 17.1z" />
    <path d="M993 201.8l1.7-61.8-19.8-9.3 10.2 74.4z" />
    <path fill="#888" d="M479.8 265.6l-7 23.3-62.9-27.3-11.4 14.2z" />
    <path d="M403.4 226.3l.4 9.4 40.8-94.7-55.4 87.3z" />
    <path fill="#2AE" d="M523.1 272.8l6 66 8-69 16.5-18z" />
    <path fill="#B22" d="M796.5 321.7l5.3-28.7 6.6-2.4-14.2 4z" />
    <path d="M512.5 117.5L467 132.7l59.2-2.7 9.7 6.7z" />
    <path fill="#888" d="M495 332.6l-63.5-84 66.8 51.6-46.8 32.3zM437.8 335.2l-22-10.5-17.3-16.6 32.1 56.4z" />
    <path d="M657.7 198.7l-10 8.7-28.6-3.7-22.8-21.3z" />
    <path fill="#3B4" d="M738.7 296l-1.5 24.3-14 20.4 9.6-43.4z" />
    <path d="M872.5 117.6l-38.4 23.5 31.4-7.8 32.6-5.3z" />
    <path fill="#3B4" d="M636.6 298.5l18.2-32.3 26.3-9.9 12.2 1.7z" />
    <path d="M876.2 208l26.2-11.1-38.6-3.4-33.2-15zM51.2 145.7l24.5 16.6h111.6L52.9 125.7zM715.4 121.1l12.2-4 7.3 17.5-24.8-2.3zM958.8 118.9l-22.7 27-17.5-7.5 25.2-14.7z" />
    <path fill="#2AE" d="M567 329.1l-13.4-1.3-12-7.3 45.8 3.5z" />
    <path d="M298.7 204.6l39.1-59.2 30.7-19.7-49.1 67z" />
    <path fill="#2AE" d="M615.5 310.9l-8.6-35-14.1-12.3-.3 31.7z" />
    <path d="M593.4 163.8l29.2-26.7 12.2-5.6-27.9-2z" />
    <path fill="#888" d="M469.3 354.4l-47.7-27.2-23.4 14-6.7-20.1z" />
    <path fill="#888" d="M495.2 286l-32.1 60.2-8.2 13.3-9-15.4z" />
    <path d="M813.4 139l-6-4.3-19.6 49 25.5-23.4z" />
    <path fill="#B22" d="M795.7 328l-1.2-23.5 6.4-5.2-.4 31.4z" />
    <path d="M863.5 207l29.6-3.6-65-23.9 15.3 21.3zM810.7 123.6l-48-4.3-10.5 54.3-3-35.5zM642.1 161.8l29.4-25.4-12.5-13-15.6 30.5zM693.8 206.2l-4.7-84 10.3-2.6 8.3 35.7z" />
    <path fill="#B22" d="M811.9 357L771 326l18.3 23.1 16-2.3z" />
    <path d="M63.8 290.9l-10.6 5-1.4 40.9 26.8-45.6zM793.4 165.2l-25 4-10.5 14 .3 4.2zM648.8 198.7l-24.6-10-32.2-24 16.6 33zM483 157.3l-4 45.8-11.3 4.7 13-96.6z" />
    <path fill="#B22" d="M860.3 330.5l-49.2-1.2.6-29.6 19.8-20z" />
    <path fill="#3B4" d="M714.4 260.9l17.5 28.8-21.5-9.2-4.3 2.6z" />
    <path d="M320.2 191.5l1 7 31.9 7.7 14.7-15.3z" />
    <path fill="#2AE" d="M570.8 356l-2.3-7.2-13.7-13.1 27.8 2.6z" />
    <path d="M579.8 135l-.9 30-26.7-49.6 20 7.7zM892.5 132.4l-45.3 29.7-10.8 12.8 8 7.2z" />
    <path fill="#2AE" d="M554.8 288.3l-35 35.5-5.5-32.4 21.3-23.5z" />
    <path d="M923.1 192l11.3 13.7 1-87.3-16.7 1.2zM758.9 165l39.3 24.1.3-30.5-14.5 10z" />
    <path fill="#888" d="M431 261l2.4-11.2 16 7.3-33.9 34.4z" />
    <path fill="#2AE" d="M614.7 301.3l-11.3-15.6-10.2 58.4 15.4-15.3z" />
    <path fill="#3B4" d="M640.2 324.9l17.5-21.7 31-42-36.8 9.6z" />
    <path d="M62.2 272.6L248 167.3 78.5 237.4l-21.8 8.7zM671 190.2l-1.6-7.6-49.8 19.5 54.7-6.7z" />
    <path fill="#888" d="M400 273.7l41.9 4.5 28-17.6 11.6 11.7z" />
    <path d="M565 143.2l-.3 59 17-70.7-2.5 51.8z" />
    <path fill="#B22" d="M815.5 326.1l42.7-.8-28.3 22.9-36.6-22.4z" />
    <path fill="#3B4" d="M728.7 294.1l11.3 12.3-13.9 35.8-45 13.8z" />
    <path d="M866.4 133.5l-14.7-11.9 25.7-4.3 21.3 12.7zM807.8 131.4l-36.1-12.7-22 7.6 16 5.7zM531.8 120.7l-1.8 72.8 3.8 13.1-19.7-2.9zM702.8 117.2l2.6 71.6-4.3 16-11.3-78.6zM979.7 204.8l-1.6-67.5-38-13.3 54.8 14zM744 160.2l-.8-17.3 16.1.3-2.6 29.8zM120.4 122.5l-68.1-1.7.7 27.6.8 11zM792.7 232l11.4-3 14.3-30.4-9-17.4z" />
    <path d="M690.9 156.3l21.8-32.4 6.2-3-29 76.4zM468.1 141l20.1-17.3 15.7-5.1 19.5 4.5z" />
    <path fill="#3B4" d="M662.9 329.4l-23.2-4.4 18.9 21 16.9-27.5z" />
  </g>
</svg>
