<svg version="1.1" viewBox="0 0 1024 768" width="1024" height="768" width="1024" height="768" xmlns="http://www.w3.org/2000/svg">
  <path fill="#606557" d="M0 0h1024v768H0z" />
  <g fill-opacity=".5">
    <g class="SVG--0">
      <path fill="#fff" d="M16.742-31L1055 7.156 725.438 159.47-24.812 65.58" />
      <path fill="#ddcefc" d="M387.684 529.717L183.518 250.402l451.38-23.607L838.83 515.38" />
      <path fill="#001800" d="M204.952 624.732L1055 461.252l-21.803 337.358L-31 770.39" />
      <path d="M341.838 236.804l713.162-30.7L-28.642 89.774l13.7 280.988" />
      <path d="M1055 135.12v231.635L437.816 180.493l486.652-55.416" />
      <path fill="#47e900" d="M141.062 552.355L559.25 742.297l49.04-179.262-414.387-67.006" />
      <path d="M321.895 85.674L573.06 219.6 3.693 256.347-31 128.983" />
      <path fill="#001" d="M695.87 316.432l272.86 51.475-205.903 11.758-154.54 28.434" />
      <path fill="#ac9ca4" d="M-.355 355.876l355.123-58.25L99.944 615.01-25.003 464.455" />
      <path fill="#f6e8db" d="M827.93 27.12L553.94 164.457l-155.83-34.01L129.877-31" />
      <path fill="#1d0063" d="M418.144 361.943l75.86 17.105 26.284 146.79-79.63 2.606" />
      <path d="M176.18 577.144l7.152 38.598L283.724 799l384.644-41.774" />
      <path fill="#dfdbdc" d="M189.385 441.418l338.585-78.59 237.36-77.202-168.42-60.667" />
      <path fill="#f0e2d7" d="M133.793 80.478l23.79 33.704-182.05-8.084L-31 69.222" />
      <path fill="#c7cdce" d="M537.828 465.895l434.125-105.7L583.11 560.72l-74.603-15.02" />
      <path d="M963.635 344.13l-18.19 185.137L550.626 799l311.23-271.25" />
      <path fill="#000002" d="M345.155 523.605l-111.812-27.337-5.742-83.198 123.218 32.337" />
      <path d="M700.196 514.797l42.034 269.81-227.918-89.03L647.986 521.74" />
      <path fill="#c9bcb8" d="M1031.98 21.472l19.736 99.084-162.514-4.988-190.08 39.35" />
      <path d="M-31 356.412l22.937-111.888 244.907 55.56-79.777 31.093" />
      <path fill="#b8b4a3" d="M512.092 314.4L61.82 254.295l250.676-15.724L672.81 234.1" />
      <path fill="#040000" d="M1055 359.743L660.06 247.716l179.063-127.888 202.896 10.89" />
      <path fill="#9d9d9e" d="M926.268 387.734L910.13 465.25l-191.748 87.783 36.744-175.247" />
      <path fill="#36b000" d="M428.334 729.717l120.714 6.604 75.126-200.52-228.705 79.91" />
      <path fill="#3fb000" d="M901.982 511.81l18.307-28.826-205.673 57.424-.166 103.333" />
      <path fill="#f5f0ee" d="M265.405 428.433l130.124 11.79 39.427-41.144-216.087 5.608" />
      <path fill="#1000a0" d="M203.36 416.8l46.52-51.507 260.29 26.347-342.613-46.703" />
      <path fill="#3c2ddb" d="M446.054 354.515l98.236 59.64-78.628 33.957-73.692-69.87" />
      <path fill="#a69d8a" d="M89.017 163.673l127.06-1.454-90.98-22.363 8.174-25.24" />
      <path d="M287.222 93.156l-221.23 27.49 377.293 88.496-85.027-114.9" />
      <path fill="#6c1900" d="M454.412 469.085l-17.938 2.87 66.452 92.185 6.65-93.406" />
      <path fill="#e2d9ce" d="M806.455 64.424l-67.463 88.46-118.105.656-269.965-32.877" />
      <path fill="#95cf0e" d="M163.714 502.54l100.755 51.362 278.088 45.62-346.626-119.96" />
      <path fill="#9a9eb7" d="M265.86 490.428l-18.894-40.432 69.14 16.394-5.853 20.55" />
      <path fill="#289600" d="M535.972 693.323l24.965-67.664-402.39-102.417 59.666 81.895" />
      <path fill="#00000c" d="M409.042 318.4l-57.394 42.822-14.878-8.802-.517-4.173" />
      <path d="M254.606 712.5l-87.48-140.478L361.35 655.49 520.993 799" />
      <path fill="#655351" d="M66.958 516.55l130.134 130.79L161.342 799-31 727.09" />
      <path fill="#c6d4de" d="M359.936 521.65l68.015-49.037-71.43-81.693-14.44 123.797" />
      <path d="M956.625 392.43l-23.276.5-51.495 142.69 70.992-12.592" />
      <path fill="#ebecea" d="M555.356 309.377L511.97 366.74l-138.874-8.944 52.884-65.828" />
      <path d="M227.357 438.578l123.572-4.566L333.53 538.8l-22.183-76.99" />
      <path fill="#422f3a" d="M579.634 799L1055 781.017V352.853L939.902 514.446" />
      <path fill="#121338" d="M672.67 337.705l50.706.014 28.09 44.82-139.643 27.938" />
      <path fill="#040083" d="M389.696 447.02l89.096 7.106 27.95-21.292-98.898-.68" />
      <path fill="#000012" d="M866.252 345.77l-75.654-47.546 72.26 98.373 57.69-45.053" />
      <path fill="#9b928b" d="M1019.252-14.858L737.336 27.488l219.937 106.17 97.3-97.066" />
      <path fill="#9b8c84" d="M909.35 346.902L734.78 279.63l257.672 65.002-66.458 54.165" />
      <path fill="#887e7f" d="M708.525 598.716l-29.888 92.79-16.39 10.093-14.065 8.14" />
      <path fill="#b7b2d2" d="M594.243 552.374l32.427-6.292-9.654-250.438-104.293 249.03" />
      <path d="M556.793 799l55.536-239.103 63.337-54.725 52.338 87.14" />
      <path fill="#dfd2c2" d="M129.26-31l-12.248 93.58 275.72 42.517L217.89 23.055" />
      <path fill="#847b6a" d="M56.975 645.747L-31 450.832l205.925 60.793-2.578 127.054" />
      <path d="M471.164 181.923l222.622 21.4 164.28 41.703-10.865-103.07M388.443 124.386L327.28 189.06l-141.616 7.168 61.96-111.433" />
      <path fill="#939493" d="M777.684 540.12l-124.927-29.398L935.783 354.69l-42.9 96.526" />
      <path fill="#71c204" d="M595.78 599.598l23.122-42.686-284.45-11.616 20.42 37.24" />
      <path fill="#e9e1d7" d="M710.56 306.174l38.255-25.803-105.498-7.22-167.364 10.866" />
      <path fill="#4b463f" d="M799.78 272.205l142.128-16.848-189.67-22.422-164.246-36.477" />
      <path fill="#a08cdc" d="M616.613 407.577l71.544-119.887-220.55 175.26 37.598 8.263" />
      <path fill="#aba4b2" d="M334.464 265.514l-173.14 214.223 128.13-100.934-116.858-50.73" />
      <path fill="#b1afa4" d="M201.63 251.89l376.2-13.74-248.717 113.934-115.713-58.73" />
      <path d="M577.442 598.865l-3.013 15.342-24.44 72.128-27.035 21.452" />
      <path fill="#514e44" d="M875.17 162.622l-25.566 19.833-9.59 14.852 108.07 6.763" />
      <path fill="#2c2928" d="M483.318 152.884l128.81 78.108-162.24-7.904 161.378-77.6" />
      <path fill="#a29e8e" d="M214.643 422.725l-83.334-97.35L46.42 450.89l180.216 31.672" />
      <path d="M101.75 122.993l67.192-16.516L-31 114.623l44.578 239.552" />
      <path fill="#716154" d="M436.87 461.465l78.497 56.615 31.91-74.788-117.795 115.44" />
      <path d="M228.89 474.425l1.947-56.2 27.86 6.825-11.097 82.254M219.503 622.443l-26.448 66.403 240.016 76.192-25.554-107.325" />
      <path fill="#0f0b09" d="M198.953 264.73l-49.287-6.55-76.043 84.36 128.38-32.423" />
      <path fill="#605654" d="M958.727 333.283l-4.448 154.035 73.8 88.708 26.92-221.23" />
      <path fill="#ded9d7" d="M264.575 420.82l148.198-41.985 21.696 51.262-49.958 5.403" />
      <path fill="#277400" d="M735.663 613.115L915.885 494.1l-15.097-26.86-189.465 102.676" />
      <path fill="#a09a93" d="M468.487 274.28l185.742-50.192 13.22 48.968 36.905 1.384" />
      <path fill="#200d80" d="M185.176 389.943l49.877 29.127-31.654-78.44-22.664-5.644" />
      <path fill="#020100" d="M202.72 88.042l-69.422 9.605 461.546 81.22-399.568 13.825" />
      <path fill="#dedbd4" d="M382.396 131.98l194.873 18.61-13.32-105.96-188.26 33.334" />
      <path fill="#269400" d="M471.91 629.524l108.224 99.01-160.68.514-4.107-75.304" />
      <path d="M682.007 632.828L590.965 799l-234.387-52.277 209.804-14.972" />
      <path fill="#bab0a2" d="M-31 110.273L45.775-31l169.97 140.055 61.31-30.086" />
      <path fill="#339800" d="M704.03 519.838l12.58 76.394 39.69-47.28 29.39-6.755" />
      <path fill="#3b9f00" d="M177.103 578.034l221.78 81.65 41.262-45.662-276.278-106.53" />
      <path fill="#4a4340" d="M218.432 627.378L88.178 799-31 752.96l88.63-87.65" />
      <path fill="#c3bbac" d="M779.643 133.18L469.94-31h285.49l190.243 134.88" />
      <path fill="#c1b2d6" d="M588.214 415.516l252.026-41.51-289.96 82.93-18.71-48.023" />
      <path fill="#040301" d="M1011.368 196.338l-169.025-41.644-8.505-28.087 99.557-9.554" />
      <path fill="#434962" d="M799.075 367.848l62.475-16.587-95.3-62.694-84.68 29.207" />
      <path fill="#33170f" d="M494.973 545.735l1.08-61.154-26.222 54.445-49.17 18.834" />
      <path fill="#889b9b" d="M463.57 546.153L343.5 514.69l42.49-19.19 92.618 32.15" />
      <path fill="#878382" d="M918.872 9.542L1017.26-31 1055 125.725l-57.09 3.79" />
      <path d="M905.516 484.543l34.905 54.35 18.32-136.48-20.616-24.173" />
      <path fill="#3fa900" d="M567.518 736.85l17.54-94.016 19.642-93.292-53.098 133.21" />
      <path fill="#6b5059" d="M492.422 291.393l119.35 12.62-124.71-6.134 123.87-142.883" />
      <path fill="#020100" d="M968.824 107.507l86.176 62.03-93.84-26.6 17.67 59.997" />
      <path fill="#766f61" d="M141.625 161.125l-84.745-.93 17.147-.427 54.17-37.866" />
      <path fill="#584cab" d="M440.745 379.637l-24.293-7.933-97.182-7.106-43.324 11.53" />
      <path d="M971.075 468.504L728.08 634.51l-27.937 4.606-38.206 79.267" />
      <path fill="#97bd3e" d="M316.86 549.816L195.8 472.473l-4.458-1.617-26.865 45.06" />
      <path fill="#282525" d="M359.687 126.713l134.746 104.063-206.75 11.797 172.828-105.04" />
      <path fill="#040200" d="M1055 316.037l-334.47-45.81 247.802 65.775L1055 351.884" />
      <path fill="#6a5f65" d="M608.08 445.972l164.556-55.327-82.807 25.997 143.545-27.972" />
      <path fill="#050300" d="M185.084 324.245L-31 349.85l17.525-88.127 79.644-2.804" />
      <path fill="#8e867a" d="M93.897 269.48l110.666-15.79-36.83-8.7-93.294 7.8" />
      <path fill="#6f6877" d="M528.55 385.642l1.887 86.973 83.703-30.28-73.318 14.346" />
      <path fill="#7a7874" d="M696.347 602.27l7.713-16.07-11.692 72.347-20.625 35.034" />
      <path d="M93.202 192.1l171.64-12.297-142.216-21.268L-31 178.942M317.97 457.014l20.3-18.528 8.02 84.45-37.133.03" />
      <path fill="#6f53bc" d="M268.192 342.83l-16.962 56.902-21.302 10.514-27.324-23.454" />
      <path d="M819.663 369.657l100.58 6.692-15.427-30.974-25.028.523" />
      <path fill="#5b9c04" d="M716.783 603.36l2.872 40.432 32.016-24.637 103.38-76.82" />
      <path fill="#36272b" d="M397.65 790.37l-111.52-81.576-100.523-40.97L135.224 799" />
      <path fill="#080d00" d="M776.668 568.457l10.806-18.4-34.46 22.5-67.29 44.66" />
      <path fill="#645f58" d="M994.856 206.938l44.855-16.818-4 34.3-49.186-10.924" />
      <path fill="#867c74" d="M958.343 407.705l3.802-51.397-147.874-41.696L937.87 364.71" />
      <path fill="#75c112" d="M584.04 570.214l-65.727-20.98-13.6-15.79-66.524 57.24" />
      <path fill="#818790" d="M312.4 471.65l3.373 31.608-24.08-8.845-11.028-38.67" />
      <path fill="#d5d0c4" d="M687.278-9.565l-296.97 3.658L628.885 160.06l65.1-30.56" />
      <path fill="#4f3dc9" d="M424.64 441.82l41.248-85.217 54.606 51.824 17.814 13.53" />
      <path fill="#b3bab9" d="M765.12 486.107l-197.917 66.17-59.05-9.008 24.696-72.8" />
      <path fill="#cdc8c9" d="M274.032 373.24l-1.277 22.297 186.585 73.87-219.048-60.175" />
      <path fill="#484441" d="M671.114 627.572l-15.25 38.572-7.397-52.07-30.457-36.454" />
      <path fill="#821514" d="M503.772 537.083l-17.7-42.188-53.557-27.57 73.864 3.48" />
      <path fill="#aca7bb" d="M495.437 393.553l224.83-88.194-68.246-2.792-171.704 72.42" />
      <path fill="#b5bcb4" d="M388.814 466.623l137.368 2.32-11.29-14.442 15.136 1.54" />
      <path d="M404.3 691.212L178.93 574.775l6.56 39.206L466.984 799" />
      <path fill="#887968" d="M171.47 523.356l1.332 128.837 43.225-22.256-107.652-21.513" />
      <path fill="#05093d" d="M496.4 432.265l-54.43 35.517 4.326-10.522-18.975-8.957" />
      <path fill="#816ec0" d="M550.324 423.717l53.152-48.988 118.948-80.916L606.87 409.59" />
      <path d="M372.03 739.803l282.79-10.414-56.664-131.975L556.66 799" />
      <path fill="#8c8b8c" d="M746.865 533.218l43.8-5.928 66.646-35.158 9.423-104.088" />
      <path fill="#9b9890" d="M974.958 131.382l-43.694-1.967 110.253-45.097-225.464-32.205" />
      <path fill="#817c79" d="M521.807 129.01l-28.148 3.39 29.922 9.742 7.053-8.947" />
      <path fill="#104406" d="M265.523 508.342l-56.714-26.635 167.773 45.754 4.942 3.118" />
      <path fill="#8168c3" d="M167.532 342.64l17.98-11.026 118.422 29.738-77.858-3.074" />
      <path fill="#888270" d="M91.276 460.96l9.344-116.214-127.8 6.676L-31 595.466" />
      <path fill="#8b7bb2" d="M817.628 375.874l55.466 2.342-184.313 36.872 85.9-36.403" />
      <path fill="#1a1d36" d="M837.144 372.525L713.604 348.1l-16.898 39.774 46.655-2.64" />
      <path fill="#25221f" d="M892.984 581.566L761.72 699.95l-112.536 29.56L899.48 541.716" />
      <path fill="#403030" d="M485.746 490.883l8.6-19.094-63.23 35.197 1.406 22.082" />
      <path d="M1021.134 261.21L612.62 167.237l377.69 60.16 56.326-16.41" />
      <path fill="#2e2c27" d="M207.47 273.436l-23.637-13.825-125.757 31.07 105.256 6.268" />
      <path fill="#37342f" d="M378.866 212.288l-43.55-18.644L138.98 191.1l-51.71 4.423" />
      <path fill="#000200" d="M683.99 513.313l-58.984 30.2 93.235 66.657-13.187-78.32" />
      <path fill="#39ab00" d="M391.85 631.192l204.317-29.607-19.03-10.623-342.88-19.667" />
      <path fill="#030301" d="M163.87 124.45L332.23 88.272 466.944 197.4l-318.51-53.89" />
      <path fill="#a5b1b6" d="M484.223 541.17l-106.375-21.78-31.685-111.628 3.025 113.69" />
      <path fill="#797265" d="M252.92 91.197l-139.642 2.687 86.277-9.538 26.46 24.252" />
      <path fill="#6ebf0e" d="M367.633 530.35l195.22 53.24-242.005-12.99-9.865-51.814" />
      <path fill="#686569" d="M265.186 439.568l37.458-1.873-62.657-22.246L345.43 437.02" />
      <path fill="#927c6c" d="M522.973 489.704l-49.16 10.126 49.958 7.89-32.683 33.627" />
      <path fill="#7a7467" d="M208.348 166.278l-92.822-16.893.9-49.738 17.746 37.557" />
      <path fill="#8e877d" d="M631.552 712.328l42.74-18.928.993-26.383 4.73 11.143" />
      <path fill="#131014" d="M746.962 297.353l18.38-5.28 23.678 7.004 36.4 19.383" />
      <path fill="#23224f" d="M529.344 415.274l-4.38-1.102 10.32 36.762 6.166-1.34" />
      <path fill="#181b28" d="M399.44 325.786l-7.452-2.885-58.615 35.835 65.21-28.354" />
      <path fill="#180b68" d="M221.868 362.44l-30.38 38.438-8.42-17.674-8.205-42.14" />
      <path fill="#c2bbae" d="M183.442 74.883L126.125-31 50.5 105.606l59.702 1.55" />
      <path fill="#dedad1" d="M487.2 125.884L657.41 104.5 250.147 52.913l231.878 99.238" />
      <path fill="#9d9c9d" d="M927.62 349.063L820.614 472.12 669.37 428.03l277.045-43.442" />
      <path fill="#35342f" d="M910.82 244.198l-76.537-5.9 180.984 48.76L1055 270.35" />
      <path fill="#2e2a28" d="M560.158 180.554l41.114-38.262 42.667 33.18-78.78-24.89" />
      <path fill="#968f81" d="M177.676 326.543L65.673 351.155 6.53 352.477l160.263 205.977" />
      <path fill="#333955" d="M524.58 503.188l-8.206 8.332-8.013 20.05 27.762-91.19" />
      <path d="M114.685 143.75L66.07 154.3-31 205.172l72.003-103.615" />
      <path fill="#000002" d="M374.363 338.01l-28.867 5.63-.675 12.08 14.885-2.367" />
      <path fill="#225b00" d="M808.89 521.49l96.98-2.26 4.835-14.455-14.333-35.988" />
      <path fill="#b8bac1" d="M274.992 389.624l-3.273 7.027-68.62 38.325-5.485-15.783" />
      <path fill="#0f0a19" d="M801.035 395.708l108.563-27.32-67.843-33.622 45.95 47.39" />
      <path fill="#380000" d="M504.16 511.892l-18.534 29.163-21.557-71.913 20.988 32.536" />
      <path d="M772.872 153.986l-242.804 50.922 456.338-40.39-107.51 16.415" />
      <path fill="#988e80" d="M893.88 324.275l-80.615-17.607 32.46 23.53 24.608 23.033" />
      <path fill="#c8bfde" d="M403.486 365.543L253.3 344.905l23.703 4.396 45.49 17.08" />
      <path fill="#cfc9bc" d="M276.985-30.452L132.277 82.56l236.268 1.385-29.42 19.95" />
      <path fill="#000800" d="M582.037 596l-12.717 11.087-15.578 48.94-13.434 52.855" />
      <path fill="#989593" d="M457.593 233.75L224.04 244.925l-15.884 47.925 43.83-18.102" />
      <path fill="#abbbc8" d="M364.463 436.748l55.568 78.65 22.272-58.727 1.165-1.488" />
      <path d="M310.41 638.882l-133.496-33.054L430.277 799l-18.224-140.394" />
      <path fill="#292826" d="M1055 621.022L891.627 775.1l139.733 23.257.53-64.395" />
      <path fill="#050200" d="M190.844 241.864L-31 251.544l176.054-77.012-125.617-22.09" />
      <path fill="#4e4c5a" d="M273.33 400.67l12.062-2.28 7.57-23.366-1.758 5.083" />
      <path fill="#b1a798" d="M793.767 292.44L693.4 269.325 817.106 308l6.58 8.545" />
      <path fill="#b3aea3" d="M786.944 295.558L547.086 250.13l121.83-23.582-87.47 3.966" />
      <path fill="#268900" d="M454.118 737.394l-41.11-59.614 146.89-38.155-50.643 91.903" />
      <path fill="#4ca203" d="M584.053 556.538l-15.45 113.766 36.61-86.927 23.194-37.266" />
      <path fill="#4733bb" d="M489.66 439.4l-45.43 19.65 74.875-9.323 4.017-8.49" />
      <path fill="#782f3b" d="M538.21 293.64l31.642 5.856-21.455 3.114 2.153 2.75" />
      <path fill="#5257a7" d="M313.243 370.91l167.47 1.27 1.198 15.65-59.207-.82" />
      <path fill="#392e1a" d="M690.21 260.995l175.03 50.024-212.826-73.348-4.488-39.865" />
      <path fill="#94a7b5" d="M225.983 460.193l3.276 26.176-16.747-7.157-14.166-82.672" />
      <path fill="#e4e3e3" d="M505.76 291.825l-116.09 24.21 77.117 48.502 14.512-76.564" />
      <path fill="#aea89e" d="M325.015 260.968l-129.12-7.543 66.513 66.036-123.522 29.875" />
      <path fill="#cac8c6" d="M507.07 392.516l-24.858-23.92 43.492-59.966 72.833-12.37" />
      <path fill="#4c4941" d="M862.208 207.64l28.104-44.844 34.02-1.162-81.756 26.524" />
      <path fill="#595553" d="M513.637 168.222L410.95 130.506l69.596 16.488 87.182 8.23" />
      <path fill="#000004" d="M342.956 459.92l-47.242-6.812-77.216-29.133 130.106 22.83" />
      <path fill="#817f85" d="M944.663 374.1l-84.14 11.955-3.093-2.183 8.085 107.304" />
      <path fill="#cfc7d7" d="M529.708 455.394l125.176-50.616-111.598 19.62.468 34.466" />
      <path fill="#534d43" d="M15.15 251.8L-31 257.923l111.66-2.045-25.888-5.664" />
      <path fill="#343131" d="M-6.137 744.113l43.19 41.6 37.3-89.074-91.274 42.365" />
      <path fill="#110f0e" d="M681.85 662.77l-25.208 33.96 44.38-172.803 1.717 59.94" />
      <path fill="#328f00" d="M395.796 658.713l-109.764-95.33-115.976 5.76 71.834 38.916" />
      <path fill="#5d5767" d="M666.307 380.018l-1.992-16.788 46.894 8.59-36.86 12.847" />
      <path fill="#3722b1" d="M501.964 404.48l21.15 17.338-93.95 28.794-16.616-16.365" />
      <path fill="#767a80" d="M476.573 514.2l-7.61 32.866-34.93-2.664 29.35-61.396" />
      <path d="M903.678 491.177l30.127 43.445 26.38-126.02-35.764 2.67" />
      <path fill="#9a9792" d="M692.87 638.114l-.22 18.99-24.503 38.568-6.017 3.39" />
      <path fill="#48433c" d="M789.174 253.832l-91.562-15.94 65.57 22.823 145.937 18.81" />
      <path fill="#beb8ab" d="M834.432-10.862l47.99 52.965L654.73-23.894 802.002 142.74" />
      <path fill="#27251d" d="M244.84 90.626l-.16 17.19 46.277-23.985 35.563 25.22" />
      <path fill="#a7a399" d="M968.525.528L911.37 120.973l-82.856-7.53-.9-119.328" />
      <path fill="#040302" d="M948.65 119.25l-126.087 34.325-7.823-30.345-40.944 92.584" />
      <path fill="#a4a6a6" d="M756.537 533.424l-102.892-23.39 119.98-108.265 15.06 2.987" />
      <path fill="#b8babf" d="M522.25 551.576l85.18-92.222 193.235-40.698-254.05 137.5" />
      <path fill="#000300" d="M227.924 487.456l26.574 19.624-16.22-90.486-4.635 38.604" />
      <path fill="#348200" d="M804.713 572.857l70.51-63.625-116.23 25.84-64.614-8.474" />
      <path fill="#d5d0c8" d="M511.168 281.42l130.216 28.654 124.703-20.597-76.738-16.397" />
      <path fill="#a7a298" d="M45.557-16.115L-27.466-31l26.17 143.476L98.152-31" />
      <path fill="#bd4348" d="M508.913 516.58l-15.348-43.28 15.425-8.618 6.787 20.994" />
      <path fill="#524e47" d="M-31 645.866l190.84 12.468 32.243 51.928L78.84 758.238" />
      <path fill="#3f3a35" d="M607.152 624.628l58.806 12.082 1.147 12.728 8.16-26.585" />
      <path fill="#5c5952" d="M331.04 86.662l50.213 34.368-8.104-15.485-68.097-8.102" />
      <path fill="#4e0d1d" d="M444.622 470.716l-12.036 15.112 65.73-1.908-62.546-17.536" />
      <path fill="#eae4e4" d="M360.87 437.032l70.558-10.163-2.966-10.61-94.795-5.387" />
      <path fill="#252221" d="M529.036 231.41l-333.95-22.642 461.53-9.574 33.013 18.436" />
      <path fill="#bdbec3" d="M404.804 380.417l-126.078 20.087 56.255 4.858 97.686 14.382" />
      <path fill="#6a645b" d="M930.717 346.387l-59.056-31.953 181.762 46.46-92.682 41.65" />
      <path fill="#898581" d="M1048.28 122.524l-57.784 7.9-22.813-107.062 49.574-53.7" />
      <path fill="#272621" d="M967.046 182.554l41.86 38.004-74.436 3.178-31.41-50.148" />
      <path fill="#7e7970" d="M103.865 265.39l88.544-6.623 113.974-16.555-249.807 8.062" />
      <path fill="#342aa1" d="M412.94 364.01l-3.94 1.982 42.216 100.026L427.8 374.48" />
      <path fill="#9a958e" d="M963.733 131.495L993.828-31 900.57 52.91l54.4 85.358" />
      <path fill="#44348f" d="M214.812 411.966l70.945-35.874-44.05 18.984-48.824-12.07" />
      <path fill="#312e29" d="M497.346 799l246.408-103.874-6.864 83.32-199.043-11.61" />
      <path fill="#b2aea3" d="M155.702 113.546L64.84-18.37-31 105.64l206.887-7.584" />
      <path fill="#a7a5ad" d="M734.427 458.136l-116.03 91.742-27.168-2.227 105.863-69.31" />
      <path fill="#afaaa7" d="M309.802 345.942l149.985-46.555 20.006-65.827-288.77 122.286" />
      <path fill="#313945" d="M212.36 471.377l-8.58-1.514-4.566-9.023 11.006-1.584" />
      <path fill="#657580" d="M382.628 498.014l40.952 3.566-39.137 11.965 31.672 11.31" />
      <path fill="#82837e" d="M763.5 488.165l137.777-19.914-125.582 64.74-33.915.674" />
      <path fill="#766d65" d="M606.173 448.78l55.07-16.322-12.172-1.126-59.305 17.075" />
      <path fill="#68625b" d="M86.05 594.633L50.64 695.396l-75.118-153.468 116.28 1.706" />
      <path fill="#d3cec4" d="M532.25 139.068l5.05 17.363L639.48 87.748l54.12 68.2" />
      <path fill="#a799b0" d="M206.467 378.21l111.524 36.906-68.78-23.436 91.805-16.83" />
      <path fill="#a49d90" d="M145.447 62.79l85.864 35.617-30.882 7.224-3.916-18.414" />
      <path fill="#000001" d="M887.412 378.73l-67.205-12.235 71.404-19.225 17.385 5.086" />
      <path fill="#a79bd3" d="M538.458 398.823l126.915-92.23-111.99 121.903-99.278-75.784" />
      <path fill="#432f9c" d="M173.057 339.21l56.79-2.383-45.51 18.14 5.553 32.69" />
      <path fill="#a5899a" d="M373.507 493.34l62.825-2.424 24.478-11.777 8.537 14.726" />
      <path fill="#262643" d="M673.463 336.875l71.923-42.69-31.75 11.445-83.42 106.908" />
      <path fill="#0f0c0a" d="M210.032 298.788l18.308 6.41-12.952 7.082-92.69 3.415" />
      <path fill="#dddbe6" d="M351.527 360.113l58.618 15.057-.382-66.063 63.645 45.4" />
      <path fill="#716b5f" d="M160.67 147.815l-72.594 1.86-8.894 2.97-6.635 12.562" />
      <path fill="#020100" d="M118.807 143.327l-24.42-38.915-77.95 84.53L-31 100.987" />
      <path fill="#000200" d="M785.225 592.35l-55.08 84.486-25.88-85.516-13.776 85.64" />
      <path fill="#1e570c" d="M517.587 546.355l-114.02 1.76 66.28 3.95 34.882-19.152" />
      <path fill="#7d77a1" d="M631.844 324.037l11.338-15.16-91.6 74.32-57.2 54.274" />
      <path fill="#050401" d="M128.893 144.324l11.862-25.44 64.874-28.97-38.955 51.047" />
      <path fill="#8c8181" d="M485.046 502.27l-52.79-.844 69.214-6.943 62.065-.86" />
    </g>
    <g class="SVG--1">
      <path fill="#cec6ba" d="M464.548-31L709.05 156.114l71.88-26.285L691.02-31" />
      <path fill="#383636" d="M615.626 613.96l33.78-64.705 5.813 29.267-19.152-20.286" />
      <path fill="#5a544e" d="M956.134 385.787l1 101.427L1055 522.028l-36.792-117.006" />
      <path fill="#000900" d="M546.4 693.544l-18.217-5.745 15.76-17.65 9.68-17.363" />
      <path fill="#372f2d" d="M157.874 794.73l66.735-166.76-78.006 60.024 133.518 45.615" />
      <path fill="#4e0b01" d="M492.672 507.972l-32.654 18.96 33.25 6.746 17.09-35.1" />
      <path fill="#151410" d="M254.73 772.214l45.555-59.36 141.022 53.462-203.13-22.7" />
      <path fill="#b1a1c2" d="M527.35 420.38l-19.7 7.84 5.29 79.225 18.695-73.503" />
      <path fill="#72be13" d="M432.78 541.18l-78.876-16.02-123.235 15.377 203.967 49.852" />
      <path fill="#090907" d="M352.764 203.158l25.508-.164 167.31-1.67-17.865-38.58" />
      <path fill="#453f34" d="M808.095 169.086l-43.373-18.176 18.08-19.447-33.73 12.745" />
      <path fill="#398a03" d="M740.124 539.632l-25.898-20.372-2.482 79.078 63.61-50.225" />
      <path fill="#6e54d4" d="M508.016 402.136L484.63 370.89l-27.87 31.92 31.906 10.716" />
      <path fill="#6fbb14" d="M540.572 578.66l-108.79 11.767 73.23-53.323 48.143 29.713" />
      <path fill="#afb4bb" d="M564.488 508.757l-58.26 31.904L539 461.14l92.264-8.964" />
      <path fill="#d5d0c5" d="M229.9 38.745L207.156 73.65l115.63 18.71-2.608-36.82" />
      <path fill="#070705" d="M1041.08 136.763l-42.322.23-18.87-27.415-14.918 57.503" />
      <path fill="#37405a" d="M429.188 548.615l9.258-108.38-1.282-10.525 13.233 9.922" />
      <path fill="#000202" d="M312.255 513.654l27.453 9.404 7.572-86.546-30.55 25.46" />
      <path fill="#807c80" d="M289.55 398.513l21.507-2.267 1.238-30.507-6.667 21.532" />
      <path fill="#000a00" d="M759.365 569.228l-51.55 33.102 52.47-26.78 34.45-26.376" />
      <path d="M798.302 302.713l-9.87-1.25 42.93 27.24 35.64 20.457" />
      <path fill="#2b680e" d="M429.88 541.105l-129.692-27.38 77.107 14.19 55.364 5.083" />
      <path fill="#ded3d0" d="M247.632 404.218l33.656-24.357-6.55 12.83-4.122 23.54" />
      <path d="M584.924 644.564l-6.652 48.783-11.493 68.59 93.7-38.206" />
      <path fill="#020300" d="M168.734 563.735l42.964 32.117 144.822 53.75-98.375 47.967" />
      <path fill="#5f594e" d="M837.795 125.38l-5.6 16.966-25.905-17.862-10.573-3.652" />
      <path fill="#7c776b" d="M-31 417.032l73.352 156.506-10.143-130.77 51.396-60.232" />
      <path fill="#a7a399" d="M207.446 323.65l101.426 30.655-108.228-72.054 93.603-28.734" />
      <path fill="#7e7868" d="M-31 473.663l160.81 81.83 39.17-45.638 9.868 125.112" />
      <path fill="#4f9508" d="M856.576 508.79L731.36 597.21l-2.657 4.11 93.485-60.49" />
      <path fill="#9b938b" d="M172.412 333.565L199.445 458.3l-48.313-2.583-33.02-126.362" />
      <path fill="#1a1c2c" d="M702.51 354.326l63.974 25.156-136.727 11.708 68.48-14.685" />
      <path fill="#403f3b" d="M957.27 619.588l-51.514-52.028L1055 504.987l-.415 65.52" />
      <path fill="#908f89" d="M624.405 230.77l-425.918 23.025 216.383-17.403 82.633-4.507" />
      <path fill="#635d58" d="M990.81 220.985l35.47-6.39 22.836-9.677-46.25 3.748" />
      <path fill="#549805" d="M170.62 502.11l57.722 55.474-30.95 20.623-24.82-13.04" />
      <path fill="#322f2a" d="M73.58 265.24l117.128 30.178 22.675-21.198-21.282-12.205" />
      <path fill="#2d2c28" d="M408.304 176.446l58.077-27.175-.306-7.985-22.213 31.047" />
      <path fill="#8e83a5" d="M808.57 377.85l-93.183 11.434 20.7 17.15 135.86-33.347" />
      <path fill="#59544b" d="M672.284 150.785l14.654 4.385 14.998 10.9-58.502-16.99" />
      <path d="M673.516 515.84l-51.474 32.482 86.603-13.24 4.644 37.585" />
      <path fill="#5f5b52" d="M854.627 196.178l-4.518-10.763 5.603 3.782 80.28 8.322" />
      <path fill="#43423d" d="M565.737 197.896l.604-52.544-14.153 1.377 14.05 33.995" />
      <path fill="#5b5f6a" d="M756.76 298.134l33.26 9.6-45.874 40.487-18.735-40.46" />
      <path fill="#36a200" d="M198.108 540.056l222.005 47.702 2.866 131.59 83.39-4.158" />
      <path fill="#736a71" d="M298.54 464.532l-48.59 11.66 6.066-19.835-4.93-14.337" />
      <path fill="#258600" d="M557.71 697.703l22.694-42.16-6.45 70.153-262.146-103.67" />
      <path fill="#759e24" d="M743.55 616.97l9.84-13.315 88.318-54.204-61.817 45.12" />
      <path fill="#c0b9ad" d="M126.672 118.645L72.447-5.71 331 4.42 147.747 28.557" />
      <path fill="#e2ddd6" d="M497.52 144.614l-21.58 4.164-48.418-48.392 72.694-19.16" />
      <path fill="#3f3a35" d="M197.525 700.015l46.192 15.242 42.328 9.273-54.73 27.664" />
      <path fill="#2d2b23" d="M54.61 196.75l7.676 3.776 66.146-7.38-159.432-6" />
      <path fill="#565351" d="M660.757 253.083l-8.82-31.948 37.615 39.128-6.22-4.39" />
      <path fill="#959ca0" d="M439.508 522.172l37.164 9.802-23.503 15.545-54.37-98.205" />
      <path fill="#444045" d="M455.34 517.386l22.47-19.345-18.127-8.614-24.862 18.652" />
      <path fill="#8fb73e" d="M202.01 473.093l63.406 70.017-53.627-11.826-45.592-33.104" />
      <path fill="#9d9b98" d="M908.19 350.74l8.467 6.18 25.01 8.106-17.01 13.9" />
      <path fill="#bbb5b1" d="M481.89 464.537l-50.058 1.7 96.774 2.527-11.357-9.28" />
      <path fill="#7e796c" d="M138.362 144.634l45.145 6.083-14.742 10.055-69.147-11.965" />
      <path fill="#d1d0da" d="M475.118 359.757l-78.398-28.885-33.118 18.697 30.002 12.27" />
      <path fill="#989700" d="M722.925 638.733l.564-36.39-3.77 5.05L717.1 633.9" />
      <path fill="#8f8a7e" d="M162.59 349.885L62.51 527.565l145.293-54.26L12.798 345.477" />
      <path fill="#100000" d="M485.716 502.5l-9.833 29.02-4.44 8.234 21.126-7.728" />
      <path fill="#b9b3a7" d="M739.28 154.813l48.258-32.63 73.666-9.98L824.614-31" />
      <path fill="#979997" d="M709.336 522.03l55.374 6.31 55.21-126.995L694.544 524.26" />
      <path fill="#4d4b46" d="M366.314 194.333l-48.062 2.93 5.24-3.835 10.604-2.518" />
      <path fill="#020048" d="M495.308 429.765l-58.75 17.342 15.336 2.556 45.39-11.92" />
      <path fill="#808f87" d="M460.742 543.034l-66.304-21.17 84.066 22.167 21.802-10.186" />
      <path fill="#c5beb2" d="M628.633-19.69l147.342 159.61 26.325-4.676L746.525-31" />
      <path fill="#000002" d="M922.686 553.572l-6.59-120.575 13.43-34.722 19.442-12.964" />
      <path fill="#acaaa6" d="M596.368 348.048l60.62-44.82-44.326 2.23-87.318 75.66" />
      <path fill="#070705" d="M931.782 143.325l115.384-10.64-181.196 37.092 61.757-57.513" />
      <path fill="#060600" d="M691.673 667.483l-49.346 62.946 189.49-142.763-9.243-21.05" />
      <path fill="#645a46" d="M175.818 623.71l28.18 1.437.873 13.94-58.744 35.437" />
      <path fill="#b1aea6" d="M400.2 133.53l-18.927-24.692-81.23-41.373 70.76 42.95" />
      <path fill="#0c054f" d="M196.278 370.892l20.086-9.91-29.39-10.598-6.863 3.045" />
      <path fill="#4d5f7d" d="M316.47 466.91l-45.367 23.98 27.205 2.38 10.58-41.073" />
      <path fill="#663e79" d="M201.657 405.458l-1.582 23.166-10.494-3.054 38.267-62.2" />
      <path fill="#9a9ea5" d="M230.913 434.366l1.685-31.453-36.502 68.15-7.907-41.88" />
      <path fill="#838284" d="M240.03 422.45l37.75 8.724 109.586 13.402-195.33-39.756" />
      <path fill="#e2dddd" d="M477.493 296.61l-75.415 75.21 107.402-90.244 136.043-2.472" />
      <path d="M-4.434 282.16l115.854 4.482-41.985-29.567L.34 262.33" />
      <path fill="#000007" d="M226.908 456.577l22.505 21.64 3.1-45.608-19.562-2.377" />
      <path fill="#050400" d="M995.97 338.434l-292.782-85.47L1055 328.59v28.046" />
      <path fill="#dad0cd" d="M390.944 441.56l-50.62-30.14-54.112-17.95-3.942 31.893" />
      <path fill="#b4acd1" d="M537.347 441.65l-21.364-18.044-19.46 9.87 12.63 6.29" />
      <path fill="#a7b2bd" d="M436.188 468.443l-5.718 51.313-65.252-49.166-23.554 50.548" />
      <path fill="#73b41a" d="M618.127 550.15l-32.333 19.176-96.534 13.065 13.884-23.02" />
      <path fill="#9d8eca" d="M550.154 423.724l20.778-32.812 122.456-90.143 19.038 3.955" />
      <path fill="#111909" d="M364.146 526.284l-53.996-23.43-81.046-23.216 28.604 14.48" />
      <path fill="#424040" d="M634.944 570.365l-12.434 24.92 23.05-42.155 23.28-13.07" />
      <path fill="#527e7e" d="M455.26 385.563l-20.273-3.26 37.65-10.795 6.97-.29" />
      <path fill="#369c00" d="M415.703 664.056l87.12-77.842 82.647-14.31-53.263 88.225" />
      <path fill="#69686c" d="M655.392 586.073l-28.968-106.28 20.124 74.786 11.525 25.4" />
      <path fill="#413b34" d="M153.717 104.555l20.843-3.876-41.802-13.833 62.085 52.62" />
      <path fill="#6e859b" d="M231.825 436.25l-3.08-40.233-1.154 90.476-16.008-41.34" />
      <path fill="#69696a" d="M627.103 584.765l21.922 20.016-26.49-10.53 93.458-174.183" />
      <path fill="#000006" d="M911.576 351.24l-53.822 22.89 24.992-1.908-10.462-28.628" />
      <path fill="#36342e" d="M920.846 154.75l-21.93 15.71-51.088.75 102.744-5.824" />
      <path fill="#030302" d="M477.253 136.927l-100.72 58.337-284.128-24.022 368.08-25.716" />
      <path fill="#9a9388" d="M829.1 319.76l-43.7-25.574 42.794 15.153 40.336 37.748" />
      <path fill="#96979a" d="M272.308 461.59l-22.948-2.6 43.62 14.65 24.515-1.015" />
      <path fill="#5b574b" d="M62.553 103.606l-.606 11.58-83.673-11.935L93.23 112.1" />
      <path fill="#1b1b3a" d="M660.105 389.148l-34.407 12.45 15.808-23.225 35.904-38.604" />
      <path fill="#d9d4ca" d="M689.147 117.833l-58.242 39.29-74.67-41.51 34.025-73.928" />
      <path fill="#0b0b04" d="M181.607 621.09l9.48-34.304 65.048 87.99-53.948-49.17" />
      <path fill="#3a3b55" d="M732.643 342.274l-53.5 5.585 6.613-23.22 38.727-19.56" />
      <path fill="#0b0a07" d="M897.202 184.434l118.55-1.015L1055 196.47 859.592 187.4" />
      <path fill="#294a11" d="M456.294 546.89l-29.124.96L455.193 554l39.493-5.45" />
      <path fill="#464360" d="M328.246 369.154l-24.204 10.133.835-8.044-.962.096" />
      <path fill="#361a9c" d="M204.536 376.33L197.3 388.41l54.107-28.54-31.913-4.715" />
      <path fill="#89606e" d="M567.26 294.652l-3.185 6.04-75.877.01 17.27-8.94" />
      <path fill="#291969" d="M836.42 386.754l17.44.377 19.23-6-5.408-11.54" />
      <path fill="#a6a4a3" d="M490.745 287.42l-147.377-36.18 121.727-17.62 182.692 28.907" />
      <path d="M636.27 565.814l41.65-48.622-45.578 21.77-48.044 116.3" />
      <path fill="#53a31c" d="M315.435 524.386l-75.607-21.448-19.43-9.608 179.616 49.622" />
      <path d="M439.68 732.627l-79.104-31.362 134.286 74.493 98.61-36.256" />
      <path fill="#23221d" d="M909.364 256.905L765.07 265.5l65.082 10.84 138.804 33.422" />
      <path fill="#4840a6" d="M400.617 434.575l-16.63 9.787 13.516.275 43.318.914" />
      <path fill="#3c3734" d="M682.592 743.924l9.39 40.205 182.274-46.66 79.983-141.986" />
      <path fill="#0d0c09" d="M974.812 163.16l10.594 54.34-139.09-17.066 154.087-1.923" />
      <path fill="#837e72" d="M224.202 109.395l22.493-26.768-15.238.024-12.422 21.555" />
      <path fill="#504a46" d="M-31 716.935l73.315-83.358-73.464.166 80.91 87.075" />
      <path fill="#25221d" d="M821.96 127.068l24.47 23.112 54.314-31.805-60.78 4.05" />
      <path fill="#474039" d="M626.917 700.086l33.2-5.19-11.33 1.987-1.018 13.047" />
      <path fill="#484743" d="M671.58 649.872l-23.458-33.508-2.59 5.253 23.888 13.9" />
      <path fill="#4f4a41" d="M796.114 266.04l-22.683-29.748 107.176 16.57-143.786-4.705" />
      <path fill="#215803" d="M888.356 527.53l20.853-22.116-2.606-37.974-55.895 26.642" />
      <path fill="#b1aca2" d="M821.797 143.934l6.11-39.08 60.077-90.643-91.6-44.122" />
      <path fill="#1f7a00" d="M508.885 723.008l57.192 9.42-88.407-51.202 71.027-18.48" />
      <path fill="#454d53" d="M820.5 322.383l-44.883-22.475 33.505 55.192 49.31 2.65" />
      <path fill="#5f0811" d="M468.556 489.163l39.513-17.286-45.2 36.164 18.63-32.244" />
      <path fill="#4d35c6" d="M422.113 393.24l-16.452-25.963 44.497 67.66 87.146-21.878" />
      <path fill="#0b0807" d="M267.098 213.644l17.453 28.032-14.265-6.366L78.48 246.952" />
      <path fill="#a8b2b7" d="M411.907 530.06l4.403-23.843 29.17-9.318-.07-10.365" />
      <path fill="#211c0d" d="M804.34 292.383l-126.483-42.46 95.858 8.688 124.747 63.927" />
      <path fill="#888376" d="M121.218 268.956l7.09-14.852 42.996 5.67-105.36-2.44" />
      <path fill="#030302" d="M176.8 151.004l-60.87-37.75 137.048-7.893 95.705 84.68" />
      <path fill="#9bb3a8" d="M380.37 526.062l59.05 8.438-50.94-17.734-26.724-.547" />
      <path fill="#318302" d="M771.56 589.5l154.446-87.802-168.9 79.38-32.258 24.834" />
      <path fill="#726d73" d="M499.225 493.27L382.26 507.83l37.375 15.215-53.718-12.605" />
      <path fill="#030e00" d="M700.808 675.964l20.87-72.917-14.516-11.312-4.422-79.445" />
      <path fill="#352f25" d="M694.148 565.333l-9.87-15.665 7.56 25.03 12.054 40.433" />
      <path fill="#170c17" d="M264.175 445.882l-1.723 10.59 30.952-14.623-64.85-25.76" />
      <path fill="#afaba7" d="M342.864 350.785l-54.497 4.702-52.768-92.845 147.71 5.792" />
      <path fill="#cdc7ba" d="M228.484 72.474l-7.62 37.705L178.975-9.48 408.947-.516" />
      <path fill="#2e2b25" d="M629.856 167.552l-26.078-20.956-10.428 10.07 191.057-.19" />
      <path fill="#a7aeb2" d="M526.15 501.36l57.268 44.682 1.608 8.977-79.366-18.554" />
      <path fill="#2a2522" d="M963.403 538.535l-116.31 38.1 97.008-69.364 7.827-22.132" />
      <path fill="#3b8f00" d="M763.215 538.712l-28.777-6.29-2.567 36.26-36.37-47.572" />
      <path fill="#08070b" d="M811.6 309.47l37.27 24.593 16.463 45.747 21.578-4.54" />
      <path fill="#2b2820" d="M45.77 331.202l5.587 19.732 96.486-33.448-41.6 22.9" />
      <path fill="#a49a92" d="M175.798 441.608l27.444-38.087-81.3-39.064 85.462 75.308" />
      <path fill="#0b0a08" d="M-31 263.372l210.802 64.935 7.895-9.72-79.083 15.62" />
      <path fill="#5f665e" d="M807.407 536.385l-1-25.168-11.063-7.977 10.274-21.784" />
      <path fill="#45b100" d="M405.323 586.307l-219.32-58.882 247.318 81.287 169.034-19.618" />
      <path fill="#433e39" d="M121.613 702.612l45.078 63.422 42.47-58.205 65.662 29.812" />
      <path fill="#010100" d="M675.32 676.547L573.482 691.98l30.048-60.376 29.507-1.86" />
      <path fill="#000102" d="M797.795 304.863l-17.07-8.535-17.494-.402 41.16 14.3" />
      <path d="M848.19 170.38l-4.515 55.732-207.808-39.885L873.14 152.71" />
      <path fill="#4f4b43" d="M909.26 179.325l48.13.75-35.408 5.333-42.872-1.25" />
      <path fill="#191b2b" d="M722.913 307.623l30.604 70.97-9.09 6.385-15.315-44.514" />
      <path fill="#0f0e0a" d="M308.527 712.26l-114.675-54.305 45.414-30.734-36.83 69.262" />
      <path fill="#282626" d="M497.164 231.154L512.07 183l-25.814 18.425-155.822 4.588" />
      <path fill="#171715" d="M664.983 225.64l-92.518-31.637 99.612 20.285 1.54 36.584" />
      <path fill="#bdb7ab" d="M70.76 28.742L159.75-31l-23.48 143.762-5.818-2.782" />
      <path fill="#9887c4" d="M277.753 361.955l-89.832-15.39 84.284 3.976 73.34 15.537" />
      <path fill="#95908a" d="M942.615 48.71l-30.283 5.965 84.817 72.53 46.795-7.43" />
      <path fill="#393630" d="M142.683 185.907l1.424-2.806 67.318 26.345-8.214-14.886" />
      <path fill="#7e837a" d="M477.06 512.394l-37.434 25.108 24.1-24.408 13.825 14.737" />
      <path fill="#96928c" d="M414.535 244.858l-171.57 4.283-175.363 9.77 159.122 1.617" />
      <path fill="#050502" d="M813.277 196.304l-292.302-33.276 43.422 14.178 33.477 24.543" />
      <path fill="#413d65" d="M247.298 395.423l-31.715 18.758-24.62-28.73 15.865 26.117" />
      <path fill="#4b3a1b" d="M730.917 269.272l66.028 27.045 18.16.138-34.82-16.548" />
      <path fill="#8e8e90" d="M815.686 398.46l55.26-13.95-66.972 103.266 124.66-96.44" />
      <path fill="#90657b" d="M492.196 472.206l-4.494-7.16 6.632 32.43-3.644-49.443" />
      <path fill="#43403c" d="M1055 554.634l-90.586 1.875-5.026-141.75-8.95 75.923" />
      <path fill="#5a5d5b" d="M690.463 648.028l12.426-39.49-28.007 50.917 12.432-33.574" />
      <path fill="#a19d93" d="M933.51 74.856l40.4 55.72-76.793-23.785-32.78-55.117" />
      <path fill="#b9bcc5" d="M614.69 468.936l77.863-11.326-126.67 89.586-36.09-82.38" />
      <path fill="#161311" d="M647.054 754.022l-192.66 35.224 236.92-68.515-46.757 19.472" />
      <path fill="#76726a" d="M375.143 126.81l7.652-11.82-2.904-14.11 7.3 32.64" />
      <path fill="#314830" d="M304.207 521.202l-72.432-37.41 57.93 33.348-24.118-56.173" />
      <path d="M674.885 648.99l-15.614-35.953-13.305-55.86-10.19 27.505" />
      <path fill="#9d978e" d="M591.26 235.814l-19.267 1.082 43.09-10.582 105.747 47.168" />
      <path fill="#4d5474" d="M448.81 457.02l-1.832 10.113 42.747-11.558-38.473-1.513" />
      <path fill="#161511" d="M946.18 119.012l-65.067 103.984 50.003-83.602-83.077-10.77" />
      <path fill="#0c0c09" d="M425.717 166.673l-172.77-77.906-18.692 34.878 107.002-24.21" />
      <path fill="#a39d95" d="M178.735 313.297l192.335 13.346-139.496 18.9-17.958-12.4" />
      <path d="M594.958 614.222l84.225-97.353 26.52 11.608-77.937 17.248" />
      <path fill="#e1dcd3" d="M393.122 129.628L382.86 91.593l207.354 6.417-190.365 34.625" />
      <path fill="#716b5e" d="M69.364 161.42l63.043-6.817-7.558-61.464 8.077 40.805" />
      <path fill="#777067" d="M952.71 398.235l6.803-31.456-91.334-29.48 66.412 2.924" />
      <path fill="#a0a5af" d="M205.8 413.302l-11.46 37.032 16.135 12.03 20.708-54.805" />
      <path fill="#090c18" d="M918.784 370.135l-54.962 7.363 27.983-29.17 34.253 36.153" />
      <path fill="#82817e" d="M995.05 17.847L1014.957-31 1055 96.717l-15.955 97.517" />
      <path fill="#110f0c" d="M14.398 286.508l101.52-10.57-91.455 75.958L-31 324.936" />
      <path d="M626.73 591.92l30.126 34.507-65.885-3.72L578.51 747.8" />
      <path fill="#e1e1df" d="M341.25 429.36l17.236.534 35.45-13.684.088 28.156" />
      <path fill="#2e2a24" d="M213.015 176.677L141.648 96.76l57.91-12.006-53.84 14.53" />
      <path d="M955.205 473.683l-15.9-90.602-32.496 95.088 5.972 61.916" />
      <path fill="#39434f" d="M733.948 389.092l12.69-3.636 14.19-55.045 57.953 4.212" />
      <path fill="#2c6c06" d="M772.12 546.088l160.145-68.134-95.075 47.727-94.094 11.474" />
      <path fill="#2b2a25" d="M990.484 178.69l49.556-10.81 14.96 3.44-89.1-10" />
      <path fill="#689921" d="M741.246 628.53l5.467-32.853 37.872-3.773-48.792 35.114" />
      <path fill="#030301" d="M1049.537 214.41l2.806 7.442-125.44-78.293 57.81 53.796" />
      <path fill="#72182a" d="M450.413 499.142l-2.3-23.422 4.788-.073.82 19.18" />
      <path fill="#8e8279" d="M517.48 456.287l26.035 7.147 71.304-18.964-93.44 16.628" />
      <path fill="#2a2a26" d="M441.72 198.645l-104.88-8.695 30.773 9.286 38.216-14.57" />
      <path fill="#d9d4df" d="M315.655 360.558l-24.6-8.392 116.38 12.133-74.86-3.577" />
      <path fill="#8b877a" d="M173.4 457.84l35.406-24.75-71.732 125.496-11.54-62.19" />
      <path fill="#84bc24" d="M218.013 495.083l85.468 23.474 6.23 35.845-73.847-14.622" />
      <path fill="#95908b" d="M535.816 157.224l43.053 8.63-46.084-3.35 62.694-42.24" />
      <path fill="#7b7568" d="M66.195 340.465l23.64 8.363L58.95 404.32l37.258-66.818" />
      <path fill="#a5a0a2" d="M259.842 364.03l15.895 27.235-26.98-24 75.012 13.152" />
      <path fill="#3d4c3f" d="M523.13 502.433l-14.44 28.078-35.25 17.844 9.842.988" />
      <path fill="#a29f9d" d="M752.833 421.918l-55.044-.088 137.8-30.603-9.432 32.208" />
      <path fill="#1d1b1d" d="M730.392 300.787l14.05-9.272 49.883 12.06-17.25-9.62" />
      <path fill="#b1bbcb" d="M361.91 453.418l-3.11 29.006 57.528 18.6 21.607-49.41" />
      <path fill="#191614" d="M763.99 632.425l-72.25 52.623-22.408 25.958 91.447-33.765" />
      <path fill="#c7c7cb" d="M305.395 395.55L416.918 407.9l1.342-23.622-67.646-4.28" />
      <path fill="#e2e2e1" d="M387.816 369.336l136.138-44.31-126.6-.213 67.47-25.99" />
      <path fill="#207d00" d="M437 731.125l55.618 5.62 80.144-8.19 1.772-38.54" />
      <path fill="#554b4c" d="M820.908 389.973l-10.983 3.556-11.86 5.606-61.083 10.298" />
      <path d="M571.51 609.916l-30.737 77.193 19.303-28.06 9.574-33.65" />
      <path fill="#856ed8" d="M459.65 378.923l4.393-19.14-45.63 2.566-12.655 5.675" />
      <path fill="#373530" d="M984.16 192.274l-47.686 7.868-32.252-7.055 68.963-3.453" />
      <path fill="#d5d0cf" d="M639.002 273.732l-138.952 7.193 24.04 17.732 45.504-15.44" />
      <path fill="#7361b5" d="M669.42 340.27l-54.49 69.21-8.305-25.872-.01 16.686" />
      <path fill="#a1b6ac" d="M429.21 529.235l-7.503 3.033-81.132-14.786 27.25-1.65" />
      <path fill="#686561" d="M516.91 140.602l-16.704-15.51 24.378 10.568-58.54 43.052" />
      <path fill="#b9b7b6" d="M626.54 255.956l-20.748-15.538 7.67-10.377-96.456 17.32" />
      <path fill="#3d3c5f" d="M526.604 490.395l7.66-55.586 7.157 8.82-31.496 83.92" />
      <path fill="#9d8ad7" d="M546.008 453.928l13.28-3.327-23.005 9.375-29.095-15.402" />
      <path fill="#1f1e1b" d="M225.328 306.762l-39.21 11.426 19.636-48.67-65.175-8.223" />
      <path fill="#12110b" d="M910.912 221.553L723.16 219.65l40.783 15.423 113.14 7.862" />
      <path fill="#a9abae" d="M810.104 411.973l-129.79 15.82-96.75 27.37 179.203-8.76" />
      <path fill="#d3cbd3" d="M538.297 426.995l95.987-17.23-90.253 28.084-6.676.566" />
      <path fill="#d9d4c9" d="M340.874 16.27L614.017 56l-83.302 96.727 93.387-18.553" />
      <path fill="#726e62" d="M203.486 105.166l3.555-11.11 50.106-2.544L191.3 102.49" />
      <path fill="#d0cbc4" d="M626.01 306.434l-90.5-14.8 187.51-7.052-57.64 26.55" />
      <path d="M378.294 653.915l30.828 6.98 14.892 73.523L198.2 600" />
      <path fill="#767579" d="M852.132 494.6l57.205-33.664 20.277-70.505-87.045 101.22" />
      <path fill="#7b776a" d="M172.884 518.325l-30.67 101.95-84.56 1.852 33.68-32.405" />
      <path fill="#6c6a71" d="M809.804 420.89l56.087-64.655-72.758 82.44-5.118-9.187" />
      <path fill="#497e1f" d="M768.547 562.562l-24.805 12.044 4.107-26.49 19.395 1.997" />
      <path fill="#48433d" d="M781.914 242.18l-63.608 1.124 101.084 23.32-150.6-50.5" />
      <path fill="#2b8800" d="M478.785 625.707l99.84-31.643-30.187 54.77 3.56-36.225" />
      <path fill="#342f2d" d="M740.754 658.1l38.637 18.414 166.756-78.357-63.565.303" />
      <path fill="#95b754" d="M190.027 513.644l-18.15-9.59 30.147-26.635 12.765 17.234" />
      <path fill="#aaa59b" d="M50.994 105.84l73.518.904L-31 103.38 7.868-31" />
      <path fill="#2a2762" d="M397.293 445.698l73.988 10.02-22.17-1.188.083-11.755" />
      <path fill="#27251d" d="M139.863 123.21l36.25-26.463-14.466 15.308-101.12-2.13" />
      <path fill="#570001" d="M487.944 471.574l-25.063 9.143 14.94 14.722 13.602-13.735" />
      <path fill="#9d92b1" d="M718.83 402.483l-128.796 43.042 116.104-29.62 106.8-26.487" />
      <path fill="#5e5850" d="M135.345 689.538l37.91 8.6 9.518 19.954-34.434-6.753" />
      <path fill="#36332f" d="M100.32 284.23l67.032 1.66-22.456-21.453-6.45-1.002" />
      <path fill="#010100" d="M865.273 538.36L759.98 639.613l-59.51-.923-17.21 44.572" />
      <path fill="#1d1a16" d="M222.864 217.418L98.877 237.386l14.882-28.91 218.482-7.883" />
      <path fill="#bfbdc0" d="M302.512 397.854l17.715-25.194 90.43 42.474-78.802-9.124" />
      <path fill="#423b73" d="M251.407 397.13l-2.01.602-30.77 11.71 15.562-11.295" />
      <path fill="#000102" d="M244.566 416.12l-11.86 63.99-3.755 3.3 23.308 13.822" />
      <path fill="#848784" d="M696.363 644.558l-2.473-27.493-15.378 69.215 11.082-30.434" />
      <path fill="#211e19" d="M791.888 158.407l54.304-18.377-82.37 6.175-24.477-4.007" />
      <path fill="#030900" d="M712.212 600.808l-8.54 10.02 55.253-35.76-31.73 13.04" />
      <path fill="#312f2b" d="M669.88 227.51l-72.482-14.423 15.13-15.193-58.032 29.58" />
      <path fill="#5b574f" d="M108.452 746.45l-6.202-118.08-25.274 2.767 52.76 99.664" />
    </g>
    <g class="SVG--2">
      <path fill="#2f2d28" d="M911.278 217.46l16.84 9.304-5.017-1.194 89.684-7.3" />
      <path fill="#6d645f" d="M610.164 443.617l51.37-15.552 38.258-7.35-106.085 29.614" />
      <path fill="#302e2a" d="M649.195 637.786l5.447-66.154 3.33 24.653-14.256 26.318" />
      <path fill="#4c40b3" d="M346.417 374.482l75.8-2.838-4.814 19.252 68.822-.074" />
      <path fill="#b8b1ae" d="M276.76 310.142l86.355-12.157-36.99 43.392 96.715-43.843" />
      <path fill="#47a202" d="M170.88 510.293l132.365 58.613-128.65 13.424 44.61-6.408" />
      <path fill="#9887d2" d="M290.95 360.963l75.614 2.634 36.197 12.225-57.64-9.264" />
      <path fill="#2e2c28" d="M310.707 795.463l-73.22-46.76 69.856 18.345 65.543-29.803" />
      <path d="M877.39 380.098l-15.65-10.687 21.207-26.206 17.3 19.352" />
      <path fill="#8b130f" d="M498.08 510.506l-.943-3.8 13.215-7.135-17.135 41.352" />
      <path fill="#a397a1" d="M495.018 486.156l-2.887-26.185 154.858-8.713-162.625 7.644" />
      <path fill="#1c3908" d="M905.86 463.28l7.194 13.662-20.22 3.696-19.403 7.61" />
      <path fill="#bdb6aa" d="M140.277 67.535l-52.153 21.4 9.56 22.595 63.183-30.757" />
      <path fill="#25211c" d="M702.485 614.886l-18.588-63.956-35.06-20.868 45.19 36.33" />
      <path fill="#bbafcf" d="M655.44 426.45l12.232-14.91-44.828.928-95.214 47.95" />
      <path fill="#b3aba0" d="M731.44 287.838l71.492 8.136-55.358-15.512-128.065-20.994" />
      <path fill="#46413c" d="M27.965 716.108l29.37 37.647 37.302-89.748 53.677-3.028" />
      <path fill="#4b4a45" d="M682.85 648.907l-36.044-19.994 14.175 33.49-8.542-33.792" />
      <path fill="#725ac8" d="M530.81 458.434l-55.142-5.147 50.9-14.785-15.91 17.257" />
      <path fill="#4aa704" d="M626.32 547.757l-100.308 39.637 55.078 19.963 5.668 3.358" />
      <path fill="#515268" d="M272.633 406.7l5.766-12.862 1.403 5.167.17 1.4" />
      <path fill="#858178" d="M673.085 675.68l-16.207 31.044 29.352-34.067 1.452-5.34" />
      <path fill="#242d0f" d="M204.55 587.222l-24.182 22.71 8.32 20.563-15.16-59.158" />
      <path fill="#0d0d09" d="M299.745 734.204l213.023 34.408-176.973-29.44-38.53 24.536" />
      <path fill="#ccc7bf" d="M518.276 326.428l28.026-24.056 83.164 7.22-31.847 20.293" />
      <path fill="#2c8c00" d="M558.003 718.96l-110.037 7.88 8.59-9.553 122.332-34.705" />
      <path fill="#35322e" d="M923.227 245.8l7.818 19.71-69.95-13.916 31.322-14.193" />
      <path fill="#888377" d="M-18.245 516.81L99.602 391.035-31 357.91l105.705-12.864" />
      <path fill="#928a7e" d="M811.05 304.756l20.607-.728 42.683 48.328-26.448-19.415" />
      <path fill="#9da7a1" d="M182.504 466.064l7.626.51 34.96 6.824-10.81 6.847" />
      <path fill="#87868b" d="M943.026 378.5l-54.12-1.39 3.088 87.26 12.777-30.453" />
      <path d="M675.093 652.16l-18.518-17.423 8.218 36.38 28.486-97.334" />
      <path fill="#282723" d="M420.994 175.53l54.41-14.96-27.972 4.877 20.637-28.233" />
      <path fill="#040400" d="M950.663 488.08l-58.878 34.38-56.39 38.446 21.207 7.125" />
      <path fill="#a8a39e" d="M236.13 338.89l133.283-11.86-163.698-35.48 13.302-40.71" />
      <path fill="#726781" d="M678.36 364.942l-72.83-47.403 92.196 59.516-28.856 5.827" />
      <path fill="#010200" d="M883.233 512.8l19.003-5.375 49.734-113.687-4.097 78.66" />
      <path fill="#030302" d="M119.94 132.683l-142.446 49.47 137.984-75.634-18.44 39.81" />
      <path fill="#5036ab" d="M228.04 369.486l32.48 12.505-23.734-25.987-38.6 40.86" />
      <path fill="#3b3934" d="M1049.34 200.422l5.66-40.94-62.9 60-3.172-15.15" />
      <path fill="#54585f" d="M729.89 301.316l43.165-2.824 50.128 23.964-27.42 12.147" />
      <path fill="#030301" d="M892.558 212.045L728.83 157.58l133.24 64.327 135.587-7.1" />
      <path fill="#102d81" d="M306.673 451.71l7.095 17.448-7.645-.37-.455-6.512" />
      <path fill="#5a5654" d="M527.203 164.868l29.04-9.96-57.398-7.39-28.52 1.407" />
      <path fill="#00030c" d="M306.007 443.46l26.027 31.288 18.51-32.048-15.91-3.386" />
      <path fill="#44413a" d="M709.52 240.835l-2.38-6.397-4.803-11.532-3.87 21.988" />
      <path fill="#0e0e06" d="M686.444 254.814l34.55-19.56-3.368 21.947 23.825-3.645" />
      <path fill="#89806b" d="M148.126 602.847l29.06-17.193-23.334-61.828-9.162 74.747" />
      <path fill="#ada0d3" d="M556.953 388.833l90.236-77.88-78.076 85.126-43.34 20.337" />
      <path fill="#877c6d" d="M761.514 281.014l-30.09.895 9.493-.18-71.985-28.843" />
      <path fill="#68635a" d="M13.346 681.918l94.325-99.884-115.41-28.217 70.448 149.53" />
      <path d="M574.852 700.31l96.916 10.247-19.12 17.426-52.52 30.332" />
      <path fill="#5f6870" d="M314.813 497.73l-56.36-22.883 1.632 13.82 42.72-2.15" />
      <path fill="#98939c" d="M648.492 311.694l-47.047-8.042 29.302 9.9 2.672 5.44" />
      <path fill="#444137" d="M109.966 152.005l5.048 9.28 73.87-.24-39.775 5.625" />
      <path fill="#605b53" d="M919.68 180.245l-71.78 1.936 28.593 15.4-16.756-12.16" />
      <path fill="#403c35" d="M171.093 201.07l13.637-19.836 1.625 16.192-34.107-8.937" />
      <path fill="#a19d95" d="M898.696 100.222l6.535 27.258L963.046-31h-53.658" />
      <path fill="#6c685d" d="M302.21 86.352l-60.95 11.556 62.606-15.73-24.54 62.465" />
      <path fill="#010102" d="M711 594.545l-12.253-71.398-60.934 11.655 28.02-17.577" />
      <path fill="#67636e" d="M304.812 368.89l15.048 14.958-18.528-18.618-25.673 38.146" />
      <path fill="#9f3246" d="M507.514 489.477l-26.246 5 28.968-20.86 6.597 6.748" />
      <path fill="#7b776e" d="M316.037 101.446l4.57-7.108 20.474-7.816-15.252-1.93" />
      <path fill="#338604" d="M900.054 490.47l-170.13 135.388 109.22-101.564-56.002 26.178" />
      <path fill="#979289" d="M655.67 699.835l.746-1.07 34.49-36.78-34.607 43.59" />
      <path fill="#4e4a3f" d="M863.48 313.173l127.136 34.748-78.545-28.62 52.536 12.173" />
      <path d="M155.503 108.924l-16.48 1.224 143.664 85.15L129.55 119.82" />
      <path fill="#030104" d="M685.42 651.595l3.582-84.353-25.45-17.72 27.115 85.86" />
      <path fill="#050503" d="M1055 134.368l-94.722 28.263-89.288-13.637 70.36-13.182" />
      <path fill="#20500d" d="M386.39 532.54l-80.994-20.95 98.382 20.055-27.814.557" />
      <path fill="#afaaa1" d="M-31 70.37L53.173 9.21 49.88 111.215l15.594-.798" />
      <path fill="#211875" d="M172.743 347.178l21.805 48.48 18.638.51-16.525-27.01" />
      <path fill="#6dbd13" d="M458.98 561.78l-99.22-36.292-63.58 37.074 127.107 24.206" />
      <path fill="#645d63" d="M391.218 495.014l3.393 5.208-20.706 12.14 1.774 4.12" />
      <path fill="#929c97" d="M440.725 521.397l15.49 20.405 5.955-28.782.895 4.056" />
      <path fill="#3a362b" d="M695.214 584.75l2.032 63.91 4.838-66.235-13.158-21.542" />
      <path fill="#49832b" d="M188.88 479.486l7.522-7 47.946 26.242-37.427-17.968" />
      <path fill="#807b77" d="M651.813 234.85l12.73-4.18-33.262.22 32.403 24.752" />
      <path fill="#9b8ead" d="M192.31 352.308l3.268-7.11 30.943 11.397 54.756-14.41" />
      <path fill="#66394b" d="M538.822 298.443l-.898-1.44 23.168 1.805-20.576 3.68" />
      <path fill="#6d7e7b" d="M449.678 549.09l-44.002-25.626 10.11-25.38-18.456 19.394" />
      <path fill="#c7bdbe" d="M288.39 411.086l20.723-47.522-39.27 51.588 79.878 7.756" />
      <path fill="#47348d" d="M265.65 365.77l4.63-5.766-94.31-7.38 34.256 5.437" />
      <path fill="#919193" d="M761.87 529.336l6.59-62.165 40.38-3.93-15.734 58.474" />
      <path fill="#1e4c12" d="M430.855 537.03l-31.763-2.62 3.112-1.74-91.027-20.184" />
      <path fill="#d4cfce" d="M261.132 417.174l-7.302-31.222 16.918 12.65 56.19 33.248" />
      <path fill="#46413a" d="M662.292 623.106l-8.71 7.69-42.843-6.865 59.138 3.326" />
      <path fill="#0a0906" d="M875.537 114.32l27.597 49.96L642.6 175.028l223.554-33.055" />
      <path fill="#0e0e0a" d="M174.928 317.818l27.274-48.347-24.837 30.146-118.117 43.28" />
      <path fill="#949b8f" d="M694.598 524.14l40.097-10.772-41.798 4.454-9.463-18.255" />
      <path fill="#5d682a" d="M181.41 622.984l4.233 2.664-8.044-38.693-6.976-26.138" />
      <path fill="#1f7800" d="M731.59 621.88l16.47-14.51.064-1.796-17.512-1.785" />
      <path fill="#23221e" d="M712.744 206.034l-261.89 29.762 222.302-35.342 82.08 2.015" />
      <path fill="#2d5097" d="M426.027 389.95l6.798 1.658 34.824-9.06 19.318-9.267" />
      <path fill="#7b8288" d="M289.162 492.168l13.39-32.952.15 37.437 12.524-10.293" />
      <path fill="#d2ccbf" d="M673.54 157.504l3.99-20.94 30.073 20.098-126.04-174.218" />
      <path fill="#2e2d2b" d="M681.833 252.658l-23.864-2.96 45.73-19.923-57.056-10.356" />
      <path fill="#ddd9d0" d="M476.752 150.402l-4.03-20.93 154.748 3.778-96.83-52.752" />
      <path fill="#656874" d="M275.908 466.047l-24.27 23.134 1.58-127.37-1.718 115.28" />
      <path fill="#6d6860" d="M952.446 399.654l-11.252-78.027 3.793 20.11 75.726 18.797" />
      <path fill="#625e59" d="M962.676 103l7.983 30.943 7.21-12.62-21.788-17.85" />
      <path fill="#000102" d="M327.224 460.363l-15.098-25.622 7.664 79.43 25.1 8.72" />
      <path fill="#9b958d" d="M172.87 360.468l18.143 38.317 26.53 18.8L96.922 403.6" />
      <path fill="#9f979a" d="M774.72 288.3l-85.38 15.9 21.68 4.77 31.735-21.254" />
      <path fill="#6f6a5d" d="M719.167 153.748l-33.684 5.098 75.55-3.897-104.585-6.547" />
      <path fill="#5e5952" d="M79.676 753.108L125.168 799l-54.53-66.137 25.24-14.13" />
      <path fill="#1e3212" d="M473.003 551.684l8.47-4.187-43.834 1.46-.784 1.688" />
      <path fill="#333b63" d="M527.803 476.324l1.09 3.173 1.495-22.41-3.856 1.025" />
      <path fill="#c9c7cf" d="M545.197 324.4l-47.11 59.293-38.6-33.48 106.528-13.77" />
      <path fill="#2b2d42" d="M639.217 382.158l123.586-56.274-121.36 46.492 53.95 1.577" />
      <path fill="#6a8491" d="M231.05 494.138l-15.18-46.26 10.12-25.78 3.834 56.7" />
      <path fill="#2b1e9f" d="M502.67 441.92l-67.615 16.24 62.866-21.014-14.432-30.89" />
      <path fill="#6a696b" d="M283.3 430.846l-4.023-7.173 55.64 12.714-11.16 3.248" />
      <path fill="#040402" d="M363.854 171.018l227.392 7.353-87.075 20.838 25.494-7.217" />
      <path fill="#938e88" d="M982.506-31L952.55 116.232l44.645-9.54-10.893 22.21" />
      <path fill="#0a3900" d="M294.305 510.164L232.33 486.56l3.775 12.722 48.87 6.476" />
      <path fill="#354743" d="M310.76 488.455l-2.12-24.027-1.158 43.877-5.504 13.255" />
      <path fill="#d5d0c5" d="M500.35 70.42L286.662 86.488 230.41 65.432l14.658-16.775" />
      <path fill="#abadb2" d="M519.587 399.832l27.333 21.048-50.712-42.287 77.892-40.677" />
      <path fill="#8a7d79" d="M512.348 507.854l4.64-63.793-4.56 75.36-25.614 25.444" />
      <path fill="#579c19" d="M440.944 552.892l56.294 2.228 81.92 2.764-88.888-9.707" />
      <path fill="#57514d" d="M949.554 494.736L1055 502.638l-93.19-66.226 7.772-60.402" />
      <path fill="#363330" d="M880.868 552.19l13.054 190.967 9.99-170.706 84.683-39.883" />
      <path fill="#292824" d="M621.812 600.614l-8.577 9.516-.02 47.794 10.4-70.893" />
      <path fill="#554c4f" d="M731.294 410.936l-8.264 2.792 80.69-17.103 55.472-14.34" />
      <path fill="#211f1c" d="M19.796 761.172l14.77-3.77 7.384 2.52L43.355 799" />
      <path d="M592.198 620.17l33.427-56.697L605.99 667.76l-28.927 39.99" />
      <path fill="#010100" d="M32.907 152.715l136.575 38.017 33.466-26.997-126.925 30.17" />
      <path fill="#1c1c17" d="M127.167 312.133l-9.336-40.198 27.54 5.128-87.738 9.278" />
      <path fill="#777166" d="M113.086 568.61l-123.873-27.996 126.36-19.452-69.93 135.207" />
      <path fill="#29221e" d="M217.562 635.374l-20.435 39.152-16.094-2.05 3.5-9.28" />
      <path fill="#726c61" d="M145.264 151.744l-30.568-7.432.68-20.67 45.72 43.915" />
      <path fill="#883038" d="M193.58 428.566l5.45-3.12-2.06-4.64-5.474-4.588" />
      <path fill="#145200" d="M295.043 503.588l-6.298-2.226 61.55 27.336-30.517-7.567" />
      <path fill="#61b711" d="M318.336 529.352l27.78-5.825 41.754 7.933-24.023 26.163" />
      <path fill="#112" d="M347.18 446.012l-45.637-11.487-61.263-6.002 55.917 12.687" />
      <path fill="#7f6bb7" d="M246.407 355.153l47.422-4.03-3.174 8.98-40.36-8.267" />
      <path fill="#a69cbd" d="M526.07 416.345l-7.744 68.443-17.01-23.395 32.368-24.76" />
      <path fill="#826bb7" d="M222.49 385.143l-26.2-2.484 67.61-3.274-32.007 20.16" />
      <path fill="#3a29ad" d="M432.65 446.75l-37.728-6.526 67.6-12.498 85.738-14.437" />
      <path fill="#a6a9af" d="M191.014 437.045l16.768 11.357-4.307 10.932 31.07-45.083" />
      <path fill="#350000" d="M483.947 518.66l1.413-8.47 16.328-2.884-29.06-2.125" />
      <path fill="#77be1d" d="M380.375 530.68l43.957 16.29-13.14 31.697-32.225-.63" />
      <path fill="#000026" d="M442.19 451.756l21.477-5.443 17.743-9.604-38.74 11.403" />
      <path fill="#9c8fae" d="M812.35 391.74l29.69-6.807-185.325 21.332 102.767-23.248" />
      <path fill="#548713" d="M841.304 546.38l-48.528 37.93 38.32-21.9 29.208-24.558" />
      <path fill="#201f19" d="M942.404 204.42l-71.52-5.03 47 8.458-39.222 51.59" />
      <path fill="#262420" d="M383.84 143.22l-9.707-14.583-47.415-33.13 48.657 16.35" />
      <path fill="#7a7a7a" d="M455.513 453.963l-216.573-30.14 93.888 9.582 40.16 6.966" />
      <path fill="#4e1a28" d="M457.548 483.282l-24.002.558 8.15-14.296 27.246 2.11" />
      <path fill="#6b6471" d="M292.748 388.607l-15.822 9.53.85-17.636-14.388-.248" />
      <path fill="#5fa00b" d="M745.128 587.18l101.927-65.576-95.41 64.43-28.44 15.632" />
      <path fill="#a596b9" d="M245.983 375.455l66.45-4.438-84.68 5.478 30.302 17.774" />
      <path fill="#b8b2a5" d="M882.286 105.713l-89.527-44.98 13.08 84.83-25.2-26.68" />
      <path fill="#bfbab3" d="M571.8 122.228l-10.723 19.04-8.195-14.08 23.69 31.33" />
      <path fill="#308b00" d="M242.793 591.832L366.9 647.17l-163.076-56.505-20.934-25.718" />
      <path fill="#8a848f" d="M335.183 504.56l125.723-5.567 11.2-12.44-5.444 13.588" />
      <path fill="#272425" d="M1006.998 688.18l35.695 28.64L938.408 799 1055 782.938" />
      <path fill="#ceced4" d="M449.922 318.192l-79.584 52.373-6.413-22.303 41.067-16.15" />
      <path fill="#9f9a9c" d="M467.067 503.6l33.714-3.682 90.003-43.27-78.166 36.534" />
      <path fill="#262252" d="M520.584 417.25l11.023 4 9.3 38.147-8.713-40.787" />
      <path fill="#011400" d="M562.774 604.958l10.565-.195-6.724 34.973 1.615-35.67" />
      <path fill="#262a3d" d="M839.557 359.525l-68.23 22.425-47.473-34.15-65.64 12.732" />
      <path fill="#787183" d="M349.077 359.77l-11.205-8.758 21.01-13.886-34.184 14.943" />
      <path fill="#0f0e10" d="M619.034 607.275l67.35 38.398-5.763 18.852-.368-28.06" />
      <path fill="#22211d" d="M194.626 228.063l26.366-50.66 13.09 50.103-75.448-11.56" />
      <path fill="#61b90b" d="M509.81 539.523l5.802 19.467-115.022 35.13 97.194-52.108" />
      <path fill="#706d5d" d="M15.145 108.3l161.706-3.892-109.986 8.452 63.673-6.4" />
      <path fill="#0a0907" d="M1009.38 221.97l-30.427 34.672-25.257-4.153 27.66-35.54" />
      <path fill="#0a0807" d="M106.674 165.162l-37.022 86.5-79.585-4.354 119.21-66.412" />
      <path fill="#814658" d="M514.853 295.916l-29.267-.685 2.85-.22 10.038 6.06" />
      <path fill="#76716c" d="M594.77 144.42l4.355 16.008-4.678-21.74 32.093 19.066" />
      <path fill="#abadb9" d="M422.765 491.205l25.474-6.086-1.44 14.78-54.54-61.135" />
      <path fill="#0b0759" d="M441.455 455.72l-1.282-24.923 11.78 20.98 15.686-9.038" />
      <path fill="#1b1010" d="M482.68 539.68l5.35-18.81-7.4 9.163-11.843 7.872" />
      <path fill="#353430" d="M310.96 201.542l35.283-4.658 46.01-5.534-127.437 3.467" />
      <path fill="#88827b" d="M252.82 292.147l-42.287.122-4.933 5.403 44.887-6.21" />
      <path fill="#a7a299" d="M153.682 335.652l-57.686 8.705 87.028-3.883 118.886-44.796" />
      <path fill="#050503" d="M408.502 199.252l-35.138 5.473 8.43 3.505-19.067-21.317" />
      <path fill="#d8d8d9" d="M489.946 297.983l-55.97 65.967-12.198 2.283 109.83-38.865" />
      <path fill="#302e2b" d="M624.416 156.674l-72.237-4.756 11.83 9.992 3.96 11.25" />
      <path fill="#3e3a37" d="M879.335 657.674l-54.093-25.423 9.615 62.768 64.81 67.894" />
      <path fill="#a3a8ae" d="M194.75 477.115l20.242-62.07 13.404 12.327-40.595 49.172" />
      <path fill="#1d3c11" d="M495.566 543.15l11.59-10.956-2.512-2.08-30.33 22.403" />
      <path fill="#1c1c2d" d="M693.544 380.362l53.08-4.418-29.81-74.16 29.34 54.485" />
      <path fill="#3e396b" d="M681.538 395.3l-54.38 3.242 47.134-61.36-59 71.332" />
      <path fill="#0e0d0d" d="M691.822 609.115l-30.38 82.105 15.795-19.474-30.287 17.313" />
      <path fill="#d8d3ce" d="M478.198 94.816l38.828 54.043-125.014-40.498 107.018 39.906" />
      <path fill="#7a769a" d="M568.045 379.724l45.02-44.52 11.904-7.532-85.544 70.826" />
      <path fill="#342f58" d="M534.275 441.21l-6.63-32.448-2.64-8.12 17.288 52.92" />
      <path fill="#e0dfe3" d="M421.5 424.138L372.483 439.9l.395-28.965 59.974 8.047" />
      <path fill="#298f00" d="M497.482 637.247l30.302 14.624-104.83 74.072-11.968-64.446" />
      <path fill="#c8c1b5" d="M218.556 80.666l-77.52-53.69-23.097 26.83L200.96 89.57" />
      <path fill="#000104" d="M886.855 378.747l10.82-30.98-86.466 27.11 30.365-17.686" />
      <path fill="#020200" d="M112.68 139.178l-17.574 10.406-66.797-40.632L-31 134.324" />
      <path fill="#2d2c27" d="M949.96 301.26l62.352-47.442 35.41 27.808-82.005-1.2" />
      <path fill="#2d2d29" d="M686.46 628.642l-9.478-.64-8.634-2.458 23.784-8.61" />
      <path fill="#0b0b09" d="M870.88 310.954l-113.134-41.492 150.9 22.414 62.733 21.48" />
      <path fill="#34342f" d="M866.993 759.66L1055 625.008l-64.214 101.09-52.873 25.04" />
      <path fill="#c5beb1" d="M817.192 84.886l-54.75 10.674-62.48 58.916 43.293-5.575" />
      <path fill="#3c8200" d="M725.405 597.89l8.772 36.89 73.86-61.945-79.377 62.92" />
      <path fill="#d1cbbe" d="M309.01-22.23L238.696 99.532l33.474-37.438 354.777-61.05" />
      <path fill="#504d43" d="M851.37 169.3l-1.61 2.26 28.98 3.345 5.99-5.57" />
      <path fill="#9d9991" d="M866.733 52.176L986.195 96.19l-41.807 36.49-3.873-65.196" />
      <path fill="#a9b3be" d="M404.662 445.072l17.752 55.935 10.51 29.252-15.68-.396" />
      <path fill="#8f887b" d="M119.543 508.653l-20.027-3.487-80.46-77.053 92.92 15.987" />
      <path fill="#24221f" d="M615.384 756.932L402.736 799l253.19-36.824 49.595-64.21" />
      <path fill="#121b26" d="M344.463 505.214l.967-35.14-3.91-4.082-5.848 28.455" />
      <path fill="#93959b" d="M266.406 464.978l-9.79-8.116L302 470.942l4.924 3.806" />
      <path fill="#5c564b" d="M162.797 103.4l47.262-16.514-14.485 10.1-10.77-5.107" />
      <path fill="#1b1f2a" d="M375.56 341.544l-24.613 15.872-4.05-3.517 53.284-29.487" />
      <path fill="#050504" d="M1055 333.094l-83.064 4.688 59.755-36.926-52.243-3.982" />
      <path fill="#736f63" d="M172.72 159.716l-62.055-12.873 48.207-1.66 40.463 12.308" />
      <path fill="#000201" d="M552.77 655.588l-19.5 39.495 19.574-19.652 20.794-66.5" />
      <path fill="#615b4f" d="M93.366 258.158l-76.115-4.084 12.643-.705 70.025 1.102" />
      <path fill="#1b1a15" d="M803.328 252.685l145.73 32.044-4.344-10.448-158.37-27.08" />
      <path fill="#8c8c98" d="M661.928 372.025l101.16 133.828-98.754-131.47 29.444-7.303" />
      <path fill="#319d00" d="M443.678 692.306l-19.07-32.94-200.622-68.463L521.652 632.7" />
      <path fill="#6b9821" d="M761.892 598.745l.023-11.04-24.81 37.728 36.407-24.406" />
      <path fill="#969491" d="M948.928 365.57l2.948 6.32-41.947-24.445 17.367 39.384" />
      <path fill="#981923" d="M506.51 466.57l2 27.854-13.666-14.924-5.583.64" />
      <path fill="#474641" d="M646.207 613.345l8.94 10.955 16.072 19.776L676.903 661" />
      <path fill="#89505a" d="M544.353 298.748l21.677 5.485 3.062-4.172-13.613-5.085" />
      <path fill="#3c3736" d="M650.875 551.442l7.05-6.996 16.325 1.827-25.328 6.8" />
      <path fill="#1a1916" d="M963.22 113.16l17.15 1.837 31.227 54.35 8.16-1.166" />
      <path d="M660.007 621.392l-77.64 53.534 107.802-77.882 4.365 21.237" />
      <path fill="#866c72" d="M290.383 463.243l-39.013 1.922 39.31-7.98 14.514 11.05" />
      <path fill="#1e1e38" d="M666.335 350.737l-10.19 31.707 58.885 3.045-88.358 11.204" />
      <path fill="#938f85" d="M123.937 333.703L101.26 513.01l56.77-49.764-44.343-129.31" />
      <path fill="#2e2c29" d="M882.2 283.496l34.843 4.274-35.797-23.753 2.372-5.558" />
      <path fill="#d0cdcb" d="M520.184 326.43l32.12-25.08-130.485-.755 63.247-5.387" />
      <path fill="#677660" d="M780.017 518.552l-22.47 57.28 20.604-57.547-2.428-91.066" />
      <path fill="#bebdc0" d="M426.692 416.68l-135.17-35.142 46.16-6.31-11.845 29.648" />
      <path fill="#090000" d="M247.145 439.166l83.082 21.646.14-7.404-58.184-19.902" />
      <path fill="#6956cc" d="M438.42 374.41l30.067-13.366-81.427 15.57-48.22-7.892" />
      <path fill="#979aab" d="M527.24 409.277l64.855-61.712-14.172-7.014-61.493 58.893" />
      <path fill="#8c857b" d="M872.837 349.19l-31.344-30.778-25.704-19.34 56.756 54.49" />
      <path fill="#706656" d="M832.406 385.018l-298.993 80.86-90.922 110.948 94.365-114.535" />
      <path fill="#9d9ea1" d="M730.854 517.388l-81.043-2.22-47.388 32.782 168.838-78.595" />
      <path fill="#9b93b4" d="M608.466 443.02L447.864 466.44l-19.493-.715 107.084-5.624" />
      <path fill="#715ccf" d="M466.76 363.958l23.303 24.228-54.87 9.996 81.224.96" />
    </g>
  </g>
</svg>