<svg version="1.1" viewBox="0 0 1024 768" width="1024" height="768" xmlns="http://www.w3.org/2000/svg">
  <g fill-opacity=".5">
    <path fill="#2f2d28" d="M911.3 217.5l16.8 9.3-5-1.2 90-7.3" />
    <path fill="#6d645f" d="M610.2 443.6l51.3-15.5 38.3-7-106 30" />
    <path fill="#302e2a" d="M649.2 637.8l5.4-66.2 3.4 24.7-14.3 26.3" />
    <path fill="#4c40b3" d="M346.4 374.5l75.8-3-4.8 19.4 68.8-1" />
    <path fill="#b8b1ae" d="M276.8 310l86.3-12-37 43.4 97-44" />
    <path fill="#47a202" d="M171 510.3L303 569l-128.6 13.3L219 576" />
    <path fill="#9887d2" d="M291 361l75.6 2.6 36.2 12.2-57.7-9.2" />
    <path fill="#2e2c28" d="M310.7 795.5l-73.2-46.8 69.8 18.3 65.6-29.8" />
    <path d="M877.4 380l-15.7-10.6 21.2-26.2 17 19.4" />
    <path fill="#8b130f" d="M498 510.5l-1-3.8 13.4-7-17.2 41.2" />
    <path fill="#a397a1" d="M495 486.2l-3-26.2 155-8.7-162.6 7.6" />
    <path fill="#1c3908" d="M906 463.3l7 13.6-20.2 3-19.4 7" />
    <path fill="#bdb6aa" d="M140.3 67.5L88 89l9.7 22.5L161 80.8" />
    <path fill="#25211c" d="M702.5 615L684 551l-35.2-21 45.2 36.4" />
    <path fill="#bbafcf" d="M655.4 426.4l12.3-15-45 1-95 48" />
    <path fill="#b3aba0" d="M731.4 287.8L803 296l-55.4-15.5-128-21" />
    <path fill="#46413c" d="M28 716l29.3 38 37.3-90 53.7-3" />
    <path fill="#4b4a45" d="M683 649l-36.2-20 14.2 33.4-8.6-33.8" />
    <path fill="#725ac8" d="M530.8 458.4l-55-5 50.8-15-16 17.4" />
    <path fill="#4aa704" d="M626.3 547.8L526 587.4l55 20 5.8 3.3" />
    <path fill="#515268" d="M272.6 406.7l5.8-13 1.4 5.3.2 1.4" />
    <path fill="#858178" d="M673 675.7l-16 31 29.2-34 1.5-5.4" />
    <path fill="#242d0f" d="M204.6 587.2L180.4 610l8.3 20.5-15.2-59.2" />
    <path fill="#0d0d09" d="M299.7 734.2l213 34.4-177-29.4-38.4 24.5" />
    <path fill="#ccc7bf" d="M518.3 326.4l28-24 83.2 7.2-32 20.3" />
    <path fill="#2c8c00" d="M558 719l-110 7.8 8.6-9.5L579 682.6" />
    <path fill="#35322e" d="M923.2 245.8l7.8 19.7-70-14 31.4-14" />
    <path fill="#888377" d="M-18.2 516.8L99.6 391-31 358l105.7-13" />
    <path fill="#928a7e" d="M811 304.8l20.7-.8 42.6 48.4L848 333" />
    <path fill="#9da7a1" d="M182.5 466l7.6.6 35 6.8-10 6.8" />
    <path fill="#87868b" d="M943 378.5l-54-1.4 3 88 12.8-30" />
    <path d="M675 652.2l-18.4-17.5 8.2 36.4 28.5-97" />
    <path fill="#282723" d="M421 175.5l54.4-15-28 5L468 137" />
    <path fill="#040400" d="M950.7 488l-59 34.5-56.3 38.4 21.2 7" />
    <path fill="#a8a39e" d="M236 339l133.4-12-163.7-35.5 13.3-40.7" />
    <path fill="#726781" d="M678.4 365l-73-47.5 92.3 59.6-28.8 6" />
    <path fill="#010200" d="M883.2 512.8l19-5.4L952 393.7l-4 78.7" />
    <path fill="#030302" d="M120 132.7l-142.5 49.5 138-75.7L97 146.3" />
    <path fill="#5036ab" d="M228 369.5l32.5 12.5-23.7-26-38.6 41" />
    <path fill="#3b3934" d="M1049.3 200.4l5.7-41-63 60-3-15" />
    <path fill="#54585f" d="M730 301.3l43-2.8 50.2 24-27.4 12" />
    <path fill="#030301" d="M892.6 212l-163.8-54.4L862 222l135.7-7.2" />
    <path fill="#102d81" d="M306.7 451.7l7 17.5-7.6-.4v-6.5" />
    <path fill="#5a5654" d="M527.2 165l29-10-57.4-7.5-28.5 1.4" />
    <path fill="#00030c" d="M306 443.5l26 31.2 18.5-32-16-3.4" />
    <path fill="#44413a" d="M709.5 240.8l-2.4-6.4-4-11.4-3 22" />
    <path fill="#0e0e06" d="M686.4 254.8l34.6-19.5-3.4 22 24-3.7" />
    <path fill="#89806b" d="M148 602.8l29.2-17-23.3-62-10 74.8" />
    <path fill="#ada0d3" d="M557 388.8l90.2-77.8-78 85-43.4 20.4" />
    <path fill="#877c6d" d="M761.5 281l-30 1 9.4-.3-72-28.8" />
    <path fill="#68635a" d="M13.3 682l94.4-100-115.4-28.2 70.4 149.5" />
    <path d="M575 700.3l96.8 10.3-19.2 17.4-52.5 30.3" />
    <path fill="#5f6870" d="M314.8 497.7l-56.3-23 1.6 14 43-2.2" />
    <path fill="#98939c" d="M648.5 311.7l-47-8 29.2 10 2.7 5.3" />
    <path fill="#444137" d="M110 152l5 9.3 74-.3-40 5.7" />
    <path fill="#605b53" d="M919.7 180.2l-71.8 2 28 15.4-17-12.2" />
    <path fill="#403c35" d="M171 201l13.7-19.8 1.7 16.2-34.2-9" />
    <path fill="#a19d95" d="M898.7 100.2l6.5 27.3L963-31h-53.6" />
    <path fill="#6c685d" d="M302.2 86.4l-61 11.5L304 82l-24.7 62.4" />
    <path fill="#010102" d="M711 594.5L698.7 523l-61 11.8 28-17.6" />
    <path fill="#67636e" d="M304.8 369l15 14.8-18.5-18.6-25.6 38.2" />
    <path fill="#9f3246" d="M507.5 489.5l-26.2 5 29-21 6.5 7" />
    <path fill="#7b776e" d="M316 101.4l4.6-7 20.5-8-15-1.8" />
    <path fill="#338604" d="M900 490.5L730 626l109-101.7-56 26.2" />
    <path fill="#979289" d="M655.7 699.8l.7-1L691 662l-34.7 43.6" />
    <path fill="#4e4a3f" d="M863.5 313.2l127 34.7-78.5-29 52.7 12" />
    <path d="M155.5 109l-16.5 1 143.7 85.3-153-75.5" />
    <path fill="#030104" d="M685.4 651.6l3.6-84.4-25.4-17.7 27 86" />
    <path fill="#050503" d="M1055 134.4l-94.7 28.2L871 149l70.4-13.2" />
    <path fill="#20500d" d="M386.4 532.5l-81-21 98.4 20-27.8.7" />
    <path fill="#afaaa1" d="M-31 70.4L53.2 9.2l-3.3 102 15-.8" />
    <path fill="#211875" d="M172.7 347.2l21.8 48.5 18.7.5-16.5-27" />
    <path fill="#6dbd13" d="M459 561.8l-99.2-36.3-63.6 37 127 24.3" />
    <path fill="#645d63" d="M391.2 495l3.4 5.2-20.7 12.2 1 4" />
    <path fill="#929c97" d="M440.7 521.4l15.5 20.4 6-28.8 1 4" />
    <path fill="#3a362b" d="M695.2 584.8l2 64 5-66.4L689 561" />
    <path fill="#49832b" d="M189 479.5l7.4-7 48 26.2-37.5-18" />
    <path fill="#807b77" d="M651.8 234.8l12.7-4h-33.2l32.4 24.8" />
    <path fill="#9b8ead" d="M192.3 352.3l3.3-7 31 11.3 54.7-14.4" />
    <path fill="#66394b" d="M538.8 298.4l-1-1.4 23.3 1.8-20 3.7" />
    <path fill="#6d7e7b" d="M449.7 549l-44-25.5 10-25.4-18.4 20" />
    <path fill="#c7bdbe" d="M288.4 411l20.7-47.4-39 51.6 80 7.7" />
    <path fill="#47348d" d="M265.6 365.8l4.7-5.8-94.3-7.4 34.2 5.5" />
    <path fill="#919193" d="M762 529.3l6.5-62 40.3-4-15.7 58.4" />
    <path fill="#1e4c12" d="M431 537l-32-2.6 3.2-1.7-91-20.2" />
    <path fill="#d4cfce" d="M261 417.2l-7-31.2 17 12.6 56 33.2" />
    <path fill="#46413a" d="M662.3 623l-8.7 7.8-43-7 59.3 3.5" />
    <path fill="#0a0906" d="M875.5 114.3l27.6 50L643 175l223.6-33" />
    <path fill="#0e0e0a" d="M175 317.8l27.2-48.3-24.8 30L59.2 343" />
    <path fill="#949b8f" d="M694.6 524l40-10.6-41.7 4.4-10-18.2" />
    <path fill="#5d682a" d="M181.4 623l4.2 2.6-8-38.6-7-26.2" />
    <path fill="#1f7800" d="M731.6 622l16.5-14.6v-1.8l-17-1.8" />
    <path fill="#23221e" d="M712.7 206L451 235.8l222-35.3 82 2" />
    <path fill="#2d5097" d="M426 390l6.8 1.6 34.8-9 19.4-9.3" />
    <path fill="#7b8288" d="M289.2 492.2l13.4-33v37.5l12.6-10.3" />
    <path fill="#d2ccbf" d="M673.5 157.5l4-21 30 20.2-126-174.3" />
    <path fill="#2e2d2b" d="M681.8 252.7l-23.8-3 45.7-20-57-10.3" />
    <path fill="#ddd9d0" d="M476.8 150.4l-4-21 154.7 3.8-97-52.7" />
    <path fill="#656874" d="M276 466l-24.4 23.2 1.6-127.4-1.7 115.3" />
    <path fill="#6d6860" d="M952.4 399.7l-11.2-78 3.8 20 75.7 18.8" />
    <path fill="#625e59" d="M962.7 103l8 31 7.2-12.7-22-17.8" />
    <path fill="#000102" d="M327.2 460.4l-15-25.7 7.6 79.5 25 8.7" />
    <path fill="#9b958d" d="M173 360.5l18 38.3 26.5 18.8-120.6-14" />
    <path fill="#9f979a" d="M774.7 288.3l-85.4 16L711 309l31.8-21.3" />
    <path fill="#6f6a5d" d="M719.2 153.7l-33.7 5L761 155l-104.6-6.6" />
    <path fill="#5e5952" d="M79.7 753l45.5 46-54.6-66L96 718.6" />
    <path fill="#1e3212" d="M473 551.7l8.5-4.2-44 1.5-.6 1.6" />
    <path fill="#333b63" d="M527.8 476.3l1 3.2 1.6-22.4-4 1" />
    <path fill="#c9c7cf" d="M545.2 324.4l-47 59.3-38.7-33.5L566 336.4" />
    <path fill="#2b2d42" d="M639.2 382.2L762.8 326l-121.4 46.4 54 1.6" />
    <path fill="#6a8491" d="M231 494l-15-46 10-26 3.8 56.8" />
    <path fill="#2b1e9f" d="M502.7 442L435 458l63-21-14.5-31" />
    <path fill="#6a696b" d="M283.3 430.8l-4-7 55.6 12.6-12 3.2" />
    <path fill="#040402" d="M364 171l227.2 7.4-87 20.8 25.5-7.2" />
    <path fill="#938e88" d="M982.5-31l-30 147.2 44.7-9.5-11 22.2" />
    <path fill="#0a3900" d="M294.3 510.2l-62-23.6 3.8 12.7 49 6.5" />
    <path fill="#354743" d="M310.8 488.5l-2.2-24-1 43.8-5.6 13.3" />
    <path fill="#d5d0c5" d="M500.4 70.4l-213.7 16-56.3-21L245 48.7" />
    <path fill="#abadb2" d="M519.6 399.8l27.3 21-51-42.2 78-40.7" />
    <path fill="#8a7d79" d="M512.3 508l4.7-64-4.6 75.4-25.6 25.5" />
    <path fill="#579c19" d="M441 553l56.2 2 82 3-89-9.8" />
    <path fill="#57514d" d="M949.6 494.7l105.4 8-93.2-66.3 7.8-60.4" />
    <path fill="#363330" d="M881 552.2l13 191 10-170.7 84.6-40" />
    <path fill="#292824" d="M621.8 600.6l-8.6 9.5v48l10.4-71" />
    <path fill="#554c4f" d="M731.3 411l-8.3 2.7 80.7-17 55.5-14.4" />
    <path fill="#211f1c" d="M19.8 761.2l14.8-3.8L42 760l1.4 39" />
    <path d="M592.2 620.2l33.4-56.7L606 667.8l-29 40" />
    <path fill="#010100" d="M33 152.7l136.5 38 33.4-27L76 194" />
    <path fill="#1c1c17" d="M127.2 312l-9.4-40 27.6 5-87.8 9.3" />
    <path fill="#777166" d="M113 568.6l-123.8-28 126.4-19.4-70 135.2" />
    <path fill="#29221e" d="M217.6 635.4l-20.5 39-16-2 4-9.2" />
    <path fill="#726c61" d="M145.3 151.7l-30.6-7.4.7-20.7 45.7 44" />
    <path fill="#883038" d="M193.6 428.6l5.4-3.2-2-4.6-5.5-4.6" />
    <path fill="#145200" d="M295 503.6l-6.3-2.2 61.6 27.3-30.5-7.6" />
    <path fill="#61b711" d="M318.3 529.4l27.8-6 42 8-24 26.2" />
    <path fill="#112" d="M347.2 446l-45.7-11.5-61.2-6 56 12.7" />
    <path fill="#7f6bb7" d="M246.4 355.2l47.4-4-3 9-40.5-8.4" />
    <path fill="#a69cbd" d="M526 416.3l-7.7 68.5-17-23.4 32.4-24.8" />
    <path fill="#826bb7" d="M222.5 385l-26.2-2.3 67.6-3.3-32 20" />
    <path fill="#3a29ad" d="M432.6 446.8L395 440l67.5-12.5 85.8-14.4" />
    <path fill="#a6a9af" d="M191 437l16.8 11.4-4.3 11 31-45" />
    <path fill="#350000" d="M484 518.7l1.4-8.5 16.3-3-29-2" />
    <path fill="#77be1d" d="M380.4 530.7l44 16.3-13.2 31.7-32.2-.7" />
    <path fill="#000026" d="M442.2 451.8l21.5-5.5 17.7-9.6-38.7 11.4" />
    <path fill="#9c8fae" d="M812.4 391.7L842 385l-185.3 21.3L759.5 383" />
    <path fill="#548713" d="M841.3 546.4l-48.5 38 38.3-22 30-24.4" />
    <path fill="#201f19" d="M942.4 204.4l-71.5-5 47 8.4-40 51.6" />
    <path fill="#262420" d="M383.8 143.2l-9.7-14.6-47-33 49 16.4" />
    <path fill="#7a7a7a" d="M455.5 454L239 423.8l93.8 9.6 40.2 7" />
    <path fill="#4e1a28" d="M457.5 483.3l-24 .5 8.2-14.3 27.2 2.2" />
    <path fill="#6b6471" d="M292.7 388.6L277 398l.8-17.5-14.4-.2" />
    <path fill="#5fa00b" d="M745 587.2l102-65.6-95.4 64.4-28.4 15.7" />
    <path fill="#a596b9" d="M246 375.5l66.4-4.5-84.6 5.5 30.3 17.8" />
    <path fill="#b8b2a5" d="M882.3 105.7l-89.5-45 13 85-25.2-26.8" />
    <path fill="#bfbab3" d="M571.8 122.2l-10.7 19-8-14 24 31.3" />
    <path fill="#308b00" d="M242.8 591.8l124 55.4-163-56.5-21-25.8" />
    <path fill="#8a848f" d="M335.2 504.6L461 499l11-12.4-5.3 13.5" />
    <path fill="#272425" d="M1007 688.2l35.7 28.6L938.4 799l116.6-16" />
    <path fill="#ceced4" d="M450 318.2l-79.7 52.4-6.4-22.3 41-16.2" />
    <path fill="#9f9a9c" d="M467 503.6l34-3.6 90-43.4-78.2 36.6" />
    <path fill="#262252" d="M520.6 417.3l11 4 9.3 38-9-40.7" />
    <path fill="#011400" d="M562.8 605l10.5-.2-6.7 35 1.6-35.7" />
    <path fill="#262a3d" d="M839.6 359.5L771.3 382 724 347.8l-66 12.7" />
    <path fill="#787183" d="M349 359.8l-11-8.8 21-14-34.3 15" />
    <path fill="#0f0e10" d="M619 607.3l67.4 38.4-5.8 18.8-.3-28" />
    <path fill="#22211d" d="M194.6 228l26.4-50.6 13 50-75.4-11.5" />
    <path fill="#61b90b" d="M509.8 539.5l5.8 19.5-115 35 97.2-52" />
    <path fill="#706d5d" d="M15 108.3l162-4L67 113l63.5-6.5" />
    <path fill="#0a0907" d="M1009.4 222L979 256.6l-25.3-4 27.7-35.7" />
    <path fill="#0a0807" d="M106.7 165.2l-37 86.5-79.6-4.4L110 181" />
    <path fill="#814658" d="M515 296l-29.4-.8 2.8-.2 10 6" />
    <path fill="#76716c" d="M594.8 144.4l4.3 16-4-21.7 32 19" />
    <path fill="#abadb9" d="M422.8 491.2l25.4-6-1.4 14.7-54.5-62" />
    <path fill="#0b0759" d="M441.5 455.7l-1.3-25 11.8 21 15.6-9" />
    <path fill="#1b1010" d="M482.7 539.7L488 521l-7.4 9-11.8 8" />
    <path fill="#353430" d="M311 201.5l35.2-4.6 46-6-127.4 3" />
    <path fill="#88827b" d="M252.8 292l-42.3.3-5 5.4 45-6.2" />
    <path fill="#a7a299" d="M153.7 335.7L96 344.4l87-4 119-44.7" />
    <path fill="#050503" d="M408.5 199.3l-35 5.4 8.3 3.5-19-21.3" />
    <path fill="#d8d8d9" d="M490 298l-56 66-12.2 2.2 109.8-38.8" />
    <path fill="#302e2b" d="M624.4 156.7l-72.2-4.8 11.8 10 4 11" />
    <path fill="#3e3a37" d="M879.3 657.7l-54-25.4L835 695l64.6 68" />
    <path fill="#a3a8ae" d="M194.8 477l20.2-62 13.4 12.4-40.6 49" />
    <path fill="#1d3c11" d="M495.6 543l11.6-10.8-2.6-2-30.3 22.3" />
    <path fill="#1c1c2d" d="M693.5 380.4l53-4.5-29.7-75 29.4 54" />
    <path fill="#3e396b" d="M681.5 395.3l-54.3 3.2 47-61.3-59 71.3" />
    <path fill="#0e0d0d" d="M691.8 609l-30.4 82.2 15.8-19.5L647 689" />
    <path fill="#d8d3ce" d="M478.2 94.8l38.8 54-125-40.4 107 40" />
    <path fill="#7a769a" d="M568 379.7l45-44.5 12-7.5-85.6 70.8" />
    <path fill="#342f58" d="M534.3 441.2l-6.7-32.4-2.6-8.2 17.3 53" />
    <path fill="#e0dfe3" d="M421.5 424l-49 16 .4-29 60 8" />
    <path fill="#298f00" d="M497.5 637.2l30.3 14.7L423 726l-12-64.5" />
    <path fill="#c8c1b5" d="M218.6 80.7L141 27l-23 26.8 83 35.8" />
    <path fill="#000104" d="M887 378.7l10.7-31-86.5 27.2 30.4-18" />
    <path fill="#020200" d="M112.7 139.2L95 149.6 28.4 109-31 134.3" />
    <path fill="#2d2c27" d="M950 301.3l62.3-47.5 35.4 27.8-82-1.2" />
    <path fill="#2d2d29" d="M686.5 628.6l-9.5-.6-8.7-2.5L692 617" />
    <path fill="#0b0b09" d="M871 311l-113.3-41.5 151 22.4 62.7 21" />
    <path fill="#34342f" d="M867 759.7L1055 625l-64.2 101-53 25" />
    <path fill="#c5beb1" d="M817.2 85l-54.8 10.6-62.4 59 43.3-5.7" />
    <path fill="#3c8200" d="M725.4 598l8.8 36.8 73.8-62-79.3 63" />
    <path fill="#d1cbbe" d="M309-22.2L238.7 99.5 272.2 62 627 1" />
    <path fill="#504d43" d="M851.4 169.3l-1.6 2.3 29 3.3 6-6" />
    <path fill="#9d9991" d="M866.7 52.2l119.5 44-41.8 36.5-4-65.2" />
    <path fill="#a9b3be" d="M404.7 445l17.7 56 10.5 29.3-16-.4" />
    <path fill="#8f887b" d="M119.5 508.7l-20-3.5-80.4-77 93 16" />
    <path fill="#24221f" d="M615.4 757l-212.7 42L656 762.2l49.5-64.2" />
    <path fill="#121b26" d="M344.5 505.2l1-35-4-4.2-5.8 28.4" />
    <path fill="#93959b" d="M266.4 465l-9.8-8 45.4 14 5 3.7" />
    <path fill="#5c564b" d="M162.8 103.4L210 87l-14.4 10-10.8-5" />
    <path fill="#1b1f2a" d="M375.6 341.5l-24.7 16-4-3.6 53-30" />
    <path fill="#050504" d="M1055 333l-83 4.8 59.7-37-52.3-4" />
    <path fill="#736f63" d="M172.7 159.7l-62-13 48.2-1.5 40 12.3" />
    <path fill="#000201" d="M552.8 655.6L533.3 695l19.5-19.6 20.8-66.5" />
    <path fill="#615b4f" d="M93.4 258.2l-76-4 12.5-.8 70 1" />
    <path fill="#1b1a15" d="M803.3 252.7l145.8 32-4-10.4-158-27" />
    <path fill="#8c8c98" d="M662 372l101 134-98.7-131.6 29.5-7.3" />
    <path fill="#319d00" d="M443.7 692.3l-19-33L224 591l297.7 41.7" />
    <path fill="#6b9821" d="M762 598.7v-11l-25 37.7 36.5-24.4" />
    <path fill="#969491" d="M949 365.6l3 6.3-42-25 17.3 39" />
    <path fill="#981923" d="M506.5 466.6l2 27.8-13.7-15-5.5.7" />
    <path fill="#474641" d="M646.2 613.3l9 11 16 19.8 5.7 17" />
    <path fill="#89505a" d="M544.4 298.7l21.6 5.5 3-4-13.5-5.2" />
    <path fill="#3c3736" d="M651 551.4l7-7 16.2 2L649 553" />
    <path fill="#1a1916" d="M963.2 113.2l17.2 1.8 31.2 54.3 8.2-1" />
    <path d="M660 621.4L582.4 675l107.8-78 4.3 21.3" />
    <path fill="#866c72" d="M290.4 463.2l-39 2 39.3-8 14.5 11" />
    <path fill="#1e1e38" d="M666.3 350.7L656 382.4l59 3-88.3 11.3" />
    <path fill="#938f85" d="M124 333.7L101.2 513l56.7-49.8L113 334" />
    <path fill="#2e2c29" d="M882.2 283.5l34.8 4.3-35.8-23.8 2.4-5.5" />
    <path fill="#d0cdcb" d="M520.2 326.4l32-25-130.4-.8 63.3-5.4" />
    <path fill="#677660" d="M780 518.6l-22.5 57.2 20.7-57.5-2.5-91" />
    <path fill="#bebdc0" d="M426.7 416.7l-135.2-35.2 46.2-6.3-12 29.7" />
    <path fill="#090000" d="M247 439.2l83.2 21.6.2-7.4-58.2-20" />
    <path fill="#6956cc" d="M438.4 374.4l30-13.4-81.3 15.6-48-8" />
    <path fill="#979aab" d="M527.2 409.3l65-61.7-14.3-7-62 58.8" />
    <path fill="#8c857b" d="M872.8 349.2l-31.3-30.8-25.7-19.3 56.7 55" />
    <path fill="#706656" d="M832.4 385l-299 81-91 110.8L537 462.3" />
    <path fill="#9d9ea1" d="M731 517.4l-81.2-2.2-47.4 32.7 169-79" />
    <path fill="#9b93b4" d="M608.5 443L448 466.4l-19.6-.7 107-5.6" />
    <path fill="#715ccf" d="M466.8 364l23.3 24.2-54 10 81 1" />
  </g>
</svg>