<svg version="1.1" viewBox="0 0 1024 768" width="1024" height="768" xmlns="http://www.w3.org/2000/svg">
  <path fill="#606557" d="M0 0h1024v768H0z" />
  <g fill-opacity=".5">
    <path fill="#fff" d="M16.7-31L1055 7.2 725.4 159.5l-750.2-94" />
    <path fill="#ddcefc" d="M387.7 529.7L183.5 250.4 635 226.8l203.8 288.6" />
    <path fill="#001800" d="M205 624.7l850-163.4-21.8 337.3L-31 770.4" />
    <path d="M341.8 236.8L1055 206-28.6 90-15 371" />
    <path d="M1055 135v232L437.8 180.5 924.5 125" />
    <path fill="#47e900" d="M141 552.4l418.3 190 49-179.4L194 496" />
    <path d="M322 85.7l251 134L3.8 256.2-31 129" />
    <path fill="#001" d="M696 316.4L968.6 368l-206 11.7L608.4 408" />
    <path fill="#ac9ca4" d="M-.4 356l355.2-58.4L99.8 615-25 464.5" />
    <path fill="#f6e8db" d="M828 27L554 164.6l-156-34L130-31" />
    <path fill="#1d0063" d="M418 362l76 17 26.3 146.8-79.6 2.6" />
    <path d="M176.2 577l7 38.7L283.8 799l384.7-41.8" />
    <path fill="#dfdbdc" d="M189.4 441.4L528 362.8l237.3-77.2L597 225" />
    <path fill="#f0e2d7" d="M133.8 80.5l23.8 33.7-182-8-6.6-37" />
    <path fill="#c7cdce" d="M537.8 466L972 360 583 560.7l-74.5-15" />
    <path d="M963.6 344l-18.2 185.3L550.6 799 862 527.7" />
    <path fill="#000002" d="M345.2 523.6l-112-27.3-5.6-83.2 123.2 33" />
    <path d="M700.2 514.8l42 269.8-228-89 133.8-174" />
    <path fill="#c9bcb8" d="M1032 21.5l19.7 99-162.5-5-190 39.4" />
    <path d="M-31 356.4l23-112L236.8 300 157 331.4" />
    <path fill="#b8b4a3" d="M512 314.4l-450-60 250.7-15.8L673 234" />
    <path fill="#040000" d="M1055 359.7l-395-112 179-128 203 11" />
    <path fill="#9d9d9e" d="M926.3 387.7L910 465.3 718.5 553 755 377.8" />
    <path fill="#36b000" d="M428.3 729.7l120.7 6.6 75.2-200.5-228.7 80" />
    <path fill="#3fb000" d="M902 511.8l18.3-28.8-205.7 57.4-.2 103.3" />
    <path fill="#f5f0ee" d="M265.4 428.4l130 11.8 39.6-41-216 5.5" />
    <path fill="#1000a0" d="M203.4 416.8l46.5-51.5 260 26.3L167 345" />
    <path fill="#3c2ddb" d="M446 354.5l98.3 59.7-78.6 34-73.7-70" />
    <path fill="#a69d8a" d="M89 163.7l127-1.5-91-22.3 8.3-26" />
    <path d="M287.2 93.2L66 120.6 443.3 209l-85-114.8" />
    <path fill="#6c1900" d="M454.4 469l-18 3 66.5 92 6-93.3" />
    <path fill="#e2d9ce" d="M806.5 64.4L739 153l-118 .5-270-32.8" />
    <path fill="#95cf0e" d="M163.7 502.5L264.5 554l278 45.5-346.6-120" />
    <path fill="#9a9eb7" d="M266 490.4L247 450l69 16.4-5.7 20.5" />
    <path fill="#289600" d="M536 693.3l25-67.6-402.5-102.5 59.7 82" />
    <path fill="#00000c" d="M409 318.4l-57.4 42.8-14.8-8.8-.5-4.2" />
    <path d="M254.6 712.5L167 572l194.4 83.5L521 799" />
    <path fill="#655351" d="M67 516.5l130 130.8L161.4 799-31 727" />
    <path fill="#c6d4de" d="M360 521.6l68-49-71.5-81.7L342 514" />
    <path d="M956.6 392.4l-23.3.5L882 535l70.8-12.6" />
    <path fill="#ebecea" d="M555.4 309.4L512 366.7l-139-9 53-65.7" />
    <path d="M227.4 438.6L351 434l-17.5 104.8-22.2-77" />
    <path fill="#422f3a" d="M579.6 799l475.4-18V353L940 514.3" />
    <path fill="#121338" d="M672.7 337.7h50.7l28 44.8-139.6 28" />
    <path fill="#040083" d="M389.7 447l89 7 28-21.2-99-.6" />
    <path fill="#000012" d="M866.3 345.8l-75.7-47.6 72.3 98.4 57-45" />
    <path fill="#9b928b" d="M1019.3-15l-282 42.5 220 106.2 97.3-97" />
    <path fill="#9b8c84" d="M909.4 347l-174.6-67.4 257.7 65-66.5 54.2" />
    <path fill="#887e7f" d="M708.5 598.7l-30 92.8-16.3 10-14 8.2" />
    <path fill="#b7b2d2" d="M594.2 552.4l32.5-6.3-9.7-250-104.3 249" />
    <path d="M556.8 799l55.5-239 63.4-54.8 52.3 87" />
    <path fill="#dfd2c2" d="M129.3-31L117 62.6 392.7 105 218 23" />
    <path fill="#847b6a" d="M57 645.7l-88-195 206 61-2.7 127" />
    <path d="M471.2 182l222.6 21.3L858 245l-10.8-103m-458.8-17.6l-61 64.7-141.7 8 62-111" />
    <path fill="#939493" d="M777.7 540l-125-29.3 283-156-42.8 96.5" />
    <path fill="#71c204" d="M595.8 599.6l23-42.7-284.3-12 20.4 37" />
    <path fill="#e9e1d7" d="M710.6 306.2l38.2-25.8-105.5-7.2L476 284" />
    <path fill="#4b463f" d="M799.8 272.2l142-16.8L752.3 233 588 196.4" />
    <path fill="#a08cdc" d="M616.6 407.6l71.6-120L467.6 463l37.6 8.2" />
    <path fill="#aba4b2" d="M334.5 265.5L161.3 479.7l128.2-101-117-50.6" />
    <path fill="#b1afa4" d="M201.6 252l376.2-14L329 352l-115.6-58.6" />
    <path d="M577.4 599l-3 15.2-24.4 72-27 21.6" />
    <path fill="#514e44" d="M875.2 162.6l-25.6 20-9.6 14.7 108 6.8" />
    <path fill="#2c2928" d="M483.3 153L612 231l-162-8 161.3-77.5" />
    <path fill="#a29e8e" d="M214.6 422.7l-83.3-97.3-85 125.5 180.3 31" />
    <path d="M101.8 123l67-16.5-199.8 8 44.6 239.7" />
    <path fill="#716154" d="M437 461.5l78.4 56.6 32-74-118 116" />
    <path d="M229 474.4l1.8-56.2 28 7-11.2 82m-28 115.2L193 688.8 433 765l-25.5-107.3" />
    <path fill="#0f0b09" d="M199 264.7l-49.3-6.5-76 84.3L202 310" />
    <path fill="#605654" d="M958.7 333.3l-4.4 154L1028 576l27-221.2" />
    <path fill="#ded9d7" d="M264.6 420.8l148.2-42 21.7 51.3-50 6" />
    <path fill="#277400" d="M735.7 613L916 494l-15.2-26.8L711.3 570" />
    <path fill="#a09a93" d="M468.5 274.3L654.2 224l13.2 49 37 1.4" />
    <path fill="#200d80" d="M185.2 390l50 29-31.8-78.4-22.7-5.6" />
    <path fill="#020100" d="M202.7 88l-69.4 9.6L594.8 179l-399.5 13.7" />
    <path fill="#dedbd4" d="M382.4 132l195 18.6-13.5-106L375 78" />
    <path fill="#269400" d="M472 629.5l108 99-160.5.5-4.2-75.3" />
    <path d="M682 632.8L591 799l-234.4-52.3 209.8-15" />
    <path fill="#bab0a2" d="M-31 110.3L45.8-31l170 140L277 79" />
    <path fill="#339800" d="M704 519.8l12.6 76.4 39.7-47.2 29.4-6.8" />
    <path fill="#3b9f00" d="M177 578l222 81.7 41-45.7-276-106.5" />
    <path fill="#4a4340" d="M218.4 627.4L88.2 799-31 753l88.6-87.7" />
    <path fill="#c3bbac" d="M779.6 133.2L470-31h285.4l190.3 135" />
    <path fill="#c1b2d6" d="M588.2 415.5l252-41.5-290 83-18.6-48" />
    <path fill="#040301" d="M1011.4 196.3l-169-41.6-8.6-28 99.6-9.6" />
    <path fill="#434962" d="M799 367.8l62.6-16.5-95.3-62.7-84.7 29.2" />
    <path fill="#33170f" d="M495 545.7l1-61-26 54.3-49 19" />
    <path fill="#889b9b" d="M463.6 546.2l-120-31.5 42.4-19.2 92.6 32.2" />
    <path fill="#878382" d="M919 9.5l98.3-40.5 37.7 156.7-57 3.8" />
    <path d="M905.5 484.5l35 54.4 18.2-137-20.7-24" />
    <path fill="#3fa900" d="M567.5 737l17.6-94.2 20-93.3-53 133.3" />
    <path fill="#6b5059" d="M492.4 291.4L611.8 304 487 298l124-143" />
    <path fill="#020100" d="M968.8 107.5l86.2 62-93.8-26.6 17.6 60" />
    <path fill="#766f61" d="M141.6 161l-84.7-.8 17-.4 54-38" />
    <path fill="#584cab" d="M440.7 379.6l-24.2-8-97.2-7L276 376" />
    <path d="M971 468.5l-243 166-28 4.6-38 80" />
    <path fill="#97bd3e" d="M317 549.8l-121.2-77.3-4.5-1.6-26.8 45" />
    <path fill="#282525" d="M359.7 126.7l134.7 104-206.7 12 172.8-105.2" />
    <path fill="#040200" d="M1055 316l-334.5-45.8L968.3 336l86.7 16" />
    <path fill="#6a5f65" d="M608 446l164.6-55.4-82.8 26 143.6-28" />
    <path fill="#050300" d="M185 324.2L-31 350l17.5-88.3 79.7-2.8" />
    <path fill="#8e867a" d="M94 269.5l110.6-15.8-37-8.7-93.2 7.8" />
    <path fill="#6f6877" d="M528.5 385.6l2 87 83.6-30.3-73 14.4" />
    <path fill="#7a7874" d="M696.3 602.3l7.8-16-11 72.2-20 35" />
    <path d="M93.2 192l171.6-12-142.2-21.3L-31 179m349 278l20.3-18.5 8 84.4h-37" />
    <path fill="#6f53bc" d="M268.2 342.8l-17 57L230 410l-27.4-23.4" />
    <path d="M819.7 369.7l100.5 6.6-15.4-31-25 .6" />
    <path fill="#5b9c04" d="M716.8 603.4l3 40.4 32-24.6 103.3-77" />
    <path fill="#36272b" d="M397.6 790.4L286 708.8l-100.4-41L135.2 799" />
    <path fill="#080d00" d="M776.7 568.5l10.8-18.4-34.5 23-67.3 45" />
    <path fill="#645f58" d="M995 207l44.7-17-4 34.4-49.2-11" />
    <path fill="#867c74" d="M958.3 407.7l3.8-51.4-147-41.7 124 50" />
    <path fill="#75c112" d="M584 570.2l-65.7-21-13.6-15.8-66.5 57.3" />
    <path fill="#818790" d="M312.4 471.6l3.4 31.7-24-9-11-38.6" />
    <path fill="#d5d0c4" d="M687.3-9.6L390.3-6 629 160l65-30.5" />
    <path fill="#4f3dc9" d="M424.6 441.8l41.3-85.2 54 51.8 18 13.6" />
    <path fill="#b3bab9" d="M765 486l-197.8 66.3-59-9 24.6-72.8" />
    <path fill="#cdc8c9" d="M274 373.2l-1.2 22.3 186.5 74-219-60.3" />
    <path fill="#484441" d="M671 627.6L656 666l-7.5-52-30.5-36.4" />
    <path fill="#821514" d="M503.8 537L486 495l-53.5-27.7 74 3.5" />
    <path fill="#aca7bb" d="M495.4 393.6l225-88.2-68.4-2.8L480.3 375" />
    <path fill="#b5bcb4" d="M388.8 466.6l137.4 2.3-11.2-15 15 1" />
    <path d="M404.3 691.2L179 574.8l6.5 39.2L467 799" />
    <path fill="#887968" d="M171.5 523.4l1.3 128.8L216 630l-107.6-21.6" />
    <path fill="#05093d" d="M496.4 432.3L442 467.8l4.3-10.5-19-9" />
    <path fill="#816ec0" d="M550.3 423.7l53.2-49 119-81-115.6 116" />
    <path d="M372 739.8l282.8-10.4-56.6-132L556.7 799" />
    <path fill="#8c8b8c" d="M747 533.2l43.7-6 66.6-35 9.4-104.2" />
    <path fill="#9b9890" d="M975 131.4l-43.7-2 110.2-45L816 52" />
    <path fill="#817c79" d="M521.8 129l-28 3.4 29.8 9.7 7-8" />
    <path fill="#104406" d="M265.5 508.3l-56.7-26.6 167.8 45.8 5 3" />
    <path fill="#8168c3" d="M167.5 342.6l18-11L304 361.4l-78-3" />
    <path fill="#888270" d="M91.3 461l9.3-116.3-127.8 6.7-3.8 244" />
    <path fill="#8b7bb2" d="M817.6 376l55.4 2-184.2 37 86-36.5" />
    <path fill="#1a1d36" d="M837 372.5L713.7 348l-17 40 46.8-2.8" />
    <path fill="#25221f" d="M893 581.6L761.7 700l-112.5 29.5 250.3-187.8" />
    <path fill="#403030" d="M485.7 491l8.6-19.2L431 507l1.5 22" />
    <path d="M1021 261.2l-408.4-94 377.7 60.2 56.3-16.4" />
    <path fill="#2e2c27" d="M207.5 273.4l-23.7-13.8-125.7 31 106 6.4" />
    <path fill="#37342f" d="M379 212.3l-43.7-18.7L139 191l-51.7 4.5" />
    <path fill="#000200" d="M684 513.3l-59 30.2 93.2 66.7-13-78.3" />
    <path fill="#39ab00" d="M392 631.2l204-29.6-19-10.6-343-19.7" />
    <path fill="#030301" d="M164 124.5l168-36.2 134.7 109L148 143.5" />
    <path fill="#a5b1b6" d="M484.2 541.2l-106.4-21.8-31.6-111.6 3 113.7" />
    <path fill="#797265" d="M253 91.2L113.2 94l86.3-9.7 26.4 24.3" />
    <path fill="#6ebf0e" d="M367.6 530.4L563 583.6l-242.2-13-9.8-51.8" />
    <path fill="#686569" d="M265.2 439.6l37.4-2-62.6-22.2L345.4 437" />
    <path fill="#927c6c" d="M523 489.7l-49.2 10 50 8-32.7 33.6" />
    <path fill="#7a7467" d="M208.3 166.3l-92.8-17 1-49.7 17.7 37.6" />
    <path fill="#8e877d" d="M631.6 712.3l42.7-19 1-26.3 4.7 11.2" />
    <path fill="#131014" d="M747 297.4l18.3-5.3 23.7 7 36.4 20" />
    <path fill="#23224f" d="M529.3 415.3l-4.3-1 10.3 36.6 6.2-2" />
    <path fill="#181b28" d="M399.4 325.8l-7.4-3-58.6 36 65.2-28.4" />
    <path fill="#180b68" d="M222 362.4L191.4 401l-8.4-18-8-42" />
    <path fill="#c2bbae" d="M183.4 75L126-31 50.6 105.6l59.7 1.6" />
    <path fill="#dedad1" d="M487.2 126l170.2-21.5L250 53l232 99" />
    <path fill="#9d9c9d" d="M927.6 349l-107 123-151.2-44 277-43.4" />
    <path fill="#35342f" d="M910.8 244.2l-76.5-6 181 49 39.7-16.8" />
    <path fill="#2e2a28" d="M560.2 180.6l41-38.3 42.7 33.2-79-25" />
    <path fill="#968f81" d="M177.7 326.5l-112 24.7-59.2 1.3 160.3 206" />
    <path fill="#333955" d="M524.6 503.2l-8.2 8.3-8 20 27.7-91" />
    <path d="M114.7 143.8L66 154.3l-97 51 72-103.7" />
    <path fill="#000002" d="M374.4 338l-29 5.6-.6 12 15-2.2" />
    <path fill="#225b00" d="M809 521.5l97-2.3 4.7-14.4-14.3-36" />
    <path fill="#b8bac1" d="M275 389.6l-3.3 7L203 435l-5.4-15.8" />
    <path fill="#0f0a19" d="M801 395.7l108.6-27.3-67.8-33.6 46 47.4" />
    <path fill="#380000" d="M504.2 512l-18.6 29-21.5-72 21 32.7" />
    <path d="M773 154l-243 51 456.4-40.5L879 181" />
    <path fill="#988e80" d="M894 324.3l-80.7-17.6 32.4 23.5 24.6 23" />
    <path fill="#c8bfde" d="M403.5 365.5L253.3 345l23.7 4.3 45.5 17" />
    <path fill="#cfc9bc" d="M277-30.5l-144.7 113L368.5 84 339 104" />
    <path fill="#000800" d="M582 596l-12.7 11-15.6 49-13.4 53" />
    <path fill="#989593" d="M457.6 233.8l-233.6 11-15.8 48 43.8-18" />
    <path fill="#abbbc8" d="M364.5 436.7l55.5 78.7 22.3-58.7 1.2-1.5" />
    <path d="M310.4 639L177 605.7 430.2 799 412 658.6" />
    <path fill="#292826" d="M1055 621L891.6 775l139.8 23.4.5-64.4" />
    <path fill="#050200" d="M190.8 242L-31 251.4l176-77-125.6-22" />
    <path fill="#4e4c5a" d="M273.3 400.7l12-2.3L293 375l-1.8 5" />
    <path fill="#b1a798" d="M793.8 292.4l-100.4-23L817 308l6.7 8.5" />
    <path fill="#b3aea3" d="M787 295.6L547 250l122-23.5-87.6 4" />
    <path fill="#268900" d="M454 737.4l-41-59.6 147-38.2-50.7 92" />
    <path fill="#4ca203" d="M584 556.5l-15.4 113.8 36.6-87 23.2-37.2" />
    <path fill="#4733bb" d="M489.7 439.4L444.2 459l75-9.3 4-8.5" />
    <path fill="#782f3b" d="M538.2 293.6l31.7 6-22 3 2 2.8" />
    <path fill="#5257a7" d="M313.2 371l167.5 1.2 1.2 15.6-60-.8" />
    <path fill="#392e1a" d="M690.2 261l175 50-212.8-73.3-4.5-40" />
    <path fill="#94a7b5" d="M226 460.2l3.3 26.2-16.8-7.2-14.2-82.7" />
    <path fill="#e4e3e3" d="M505.8 291.8l-116 24.2 77 48.5 14.5-76.5" />
    <path fill="#aea89e" d="M325 261l-129-7.6 66.4 66-123.5 30" />
    <path fill="#cac8c6" d="M507 392.5l-24.8-24 43.5-60 72.8-12.2" />
    <path fill="#4c4941" d="M862.2 207.6l28-44.8 34-1.2-81.6 26.6" />
    <path fill="#595553" d="M513.6 168.2L411 130.5l69.5 16.5 87.2 8.2" />
    <path fill="#000004" d="M343 460l-47.3-7-77.2-29 130 22.8" />
    <path fill="#817f85" d="M944.7 374l-84.2 12-3-2 8 107.2" />
    <path fill="#cfc7d7" d="M529.7 455.4L655 404.8l-111.7 19.6.5 34.5" />
    <path fill="#534d43" d="M15.2 251.8l-46.2 6 111.7-2-26-5.6" />
    <path fill="#343131" d="M-6 744l43 41.7 37.4-89L-17 739" />
    <path fill="#110f0e" d="M682 662.8l-25.4 34 44.4-173 1.7 60" />
    <path fill="#328f00" d="M395.8 658.7L286 563.4 170 569l72 39" />
    <path fill="#5d5767" d="M666.3 380l-2-16.8 47 8.6-37 13" />
    <path fill="#3722b1" d="M502 404.5l21 17.3-93.8 28.8-16.7-16.4" />
    <path fill="#767a80" d="M476.6 514.2l-7.6 33-35-2.8 29.4-61.4" />
    <path d="M903.7 491.2l30 43.4 26.5-126-35.8 2.7" />
    <path fill="#9a9792" d="M693 638l-.3 19-24.6 38.7-6 3.4" />
    <path fill="#48433c" d="M789.2 253.8l-91.6-16 65.6 23 146 18.7" />
    <path fill="#beb8ab" d="M834.4-11l48 53-227.7-66L802 142.8" />
    <path fill="#27251d" d="M244.8 90.6v17.2l46.2-24 35.5 25.3" />
    <path fill="#a7a399" d="M968.5.5l-57 120.5-83-7.6-1-119.3" />
    <path fill="#040302" d="M948.6 119.3l-126 34.3-8-30.4-40.8 92.6" />
    <path fill="#a4a6a6" d="M756.5 533.4l-103-23.4 120-108.2 15.2 3" />
    <path fill="#b8babf" d="M522.3 551.6l85-92.2 193.4-40.7-254 137.5" />
    <path fill="#000300" d="M228 487.5l26.5 19.6-16.2-90-4.7 39" />
    <path fill="#348200" d="M804.7 573l70.5-63.8-116.2 26-64.6-8.6" />
    <path fill="#d5d0c8" d="M511.2 281.4L641.4 310 766 289.6 689.4 273" />
    <path fill="#a7a298" d="M45.6-16l-73-15 26 143.5L98.3-31" />
    <path fill="#bd4348" d="M509 516.6l-15.4-43.3 15.4-8.6 6.8 21" />
    <path fill="#524e47" d="M-31 646l190.8 12.3 32.3 52-113 48" />
    <path fill="#3f3a35" d="M607.2 624.6l58.8 12 1 12.8 8.3-26.5" />
    <path fill="#5c5952" d="M331 86.7l50.3 34.3-8.2-15.5-68-8" />
    <path fill="#4e0d1d" d="M444.6 470.7l-12 15 65.7-1.8-62.5-18" />
    <path fill="#eae4e4" d="M361 437l70.4-10-3-10.7-94.7-5.4" />
    <path fill="#252221" d="M529 231.4l-334-22.6 461.6-9.6 33 18.4" />
    <path fill="#bdbec3" d="M404.8 380.4l-126 20 56.2 5 97.7 14.3" />
    <path fill="#6a645b" d="M930.7 346.4l-59-32 181.7 46.5-92.7 41" />
    <path fill="#898581" d="M1048.3 122.5l-57.8 8-22.8-107 49.6-53.8" />
    <path fill="#272621" d="M967 182.6l42 38-74.5 3-31.4-50" />
    <path fill="#7e7970" d="M104 265.4l88.4-6.6 114-16.6-249.8 8" />
    <path fill="#342aa1" d="M413 364l-4 2 42.2 100-23.4-91.5" />
    <path fill="#9a958e" d="M963.7 131.5l30-162.5-93 84 54.3 85.3" />
    <path fill="#44348f" d="M214.8 412l71-36-44 19-49-12" />
    <path fill="#312e29" d="M497.3 799l246.5-104-7 83.4-199-11.6" />
    <path fill="#b2aea3" d="M155.7 113.5l-91-132-95.7 124L176 98" />
    <path fill="#a7a5ad" d="M734.4 458l-116 92-27.2-2.3 106-69.4" />
    <path fill="#afaaa7" d="M309.8 346l150-46.6 20-65.8L191 355.8" />
    <path fill="#313945" d="M212.4 471.4l-8.6-1.5-4.6-10 11-2" />
    <path fill="#657580" d="M382.6 498l41 3.6-39.2 12L416 525" />
    <path fill="#82837e" d="M763.5 488.2l137.8-20L775.7 533l-34 .7" />
    <path fill="#766d65" d="M606.2 448.8l55-16.3-12-1.2-59.4 17" />
    <path fill="#68625b" d="M86 594.6L50.6 695.4l-75-153.5 116.2 1" />
    <path fill="#d3cec4" d="M532.3 139l5 17.4 102.2-68.7 54 68.2" />
    <path fill="#a799b0" d="M206.5 378.2l111.5 37-68.8-23.5L341 375" />
    <path fill="#a49d90" d="M145.4 62.8l86 35.6-31 7.2-4-18.4" />
    <path fill="#000001" d="M887.4 378.7l-67.2-12.2 71.4-19.2 17.4 5" />
    <path fill="#a79bd3" d="M538.5 398.8l127-92.2-112 122-99.4-76" />
    <path fill="#432f9c" d="M173 339.2l56.8-2.4-45.5 18.2 5.6 32.7" />
    <path fill="#a5899a" d="M373.5 493.3l62.8-2.4 24.5-12 8.5 15" />
    <path fill="#262643" d="M673.5 337l72-42.8-32 11.4-83.3 107" />
    <path fill="#0f0c0a" d="M210 298.8l18.3 6.4-13 7-92.6 3.5" />
    <path fill="#dddbe6" d="M351.5 360l58.6 15.2v-66l64 45.3" />
    <path fill="#716b5f" d="M160.7 147.8l-72.6 2-8 2.8-6 12.6" />
    <path fill="#020100" d="M118.8 143.3l-24.4-39-78 84.6-47.4-88" />
    <path fill="#000200" d="M785.2 592.4l-55 84.4-26-85.5-13.7 85.7" />
    <path fill="#1e570c" d="M517.6 546.4l-114 1.7 66.2 4 35-19" />
    <path fill="#7d77a1" d="M631.8 324l11.4-15-91.6 74.2-57.2 54.3" />
    <path fill="#050401" d="M129 144.3l11.8-25.4 64.8-29-39 51" />
    <path fill="#8c8181" d="M485 502.3l-52.7-1 69.2-6.8 62-1" />
  </g>
</svg>