<svg version="1.1" viewBox="0 0 1024 768" width="1024" height="768" xmlns="http://www.w3.org/2000/svg">
  <g fill-opacity=".5">
    <path fill="#cec6ba" d="M465-31l244 187 72-26-90-161" />
    <path fill="#383636" d="M616 614l33-65 6 29-19-20" />
    <path fill="#5a544e" d="M956 386l1 101 98 35-37-117" />
    <path fill="#000900" d="M546 694l-18-6 16-18 10-17" />
    <path fill="#372f2d" d="M158 795l67-167-78 60 133 46" />
    <path fill="#4e0b01" d="M493 508l-33 19 33 7 17-35" />
    <path fill="#151410" d="M255 772l45-59 141 53-203-23" />
    <path fill="#b1a1c2" d="M527 420l-19 8 5 79 18-73" />
    <path fill="#72be13" d="M433 541l-79-16-123 16 204 50" />
    <path fill="#090907" d="M353 203h25l168-2-18-38" />
    <path fill="#453f34" d="M808 169l-43-18 18-19-34 12" />
    <path fill="#398a03" d="M740 540l-26-21-2 79 63-50" />
    <path fill="#6e54d4" d="M508 402l-23-31-28 32 32 11" />
    <path fill="#6fbb14" d="M541 579l-109 11 73-53 48 30" />
    <path fill="#afb4bb" d="M565 509l-59 32 33-80 92-9" />
    <path fill="#d5d0c5" d="M230 39l-23 35 116 18-3-37" />
    <path fill="#070705" d="M1041 137h-42l-19-27-15 57" />
    <path fill="#37405a" d="M429 549l9-109-1-10 13 10" />
    <path fill="#000202" d="M312 514l28 9 7-86-30 26" />
    <path fill="#807c80" d="M290 399l21-3 2-30-6 21" />
    <path fill="#000a00" d="M759 569l-51 33 52-26 35-27" />
    <path d="M798 303l-10-2 43 28 36 20" />
    <path fill="#2b680e" d="M430 541l-130-27 77 14 56 5" />
    <path fill="#ded3d0" d="M248 404l33-24-6 12-4 23" />
    <path d="M585 645l-7 48-11 69 93-39" />
    <path fill="#020300" d="M169 564l43 32 145 53-99 48" />
    <path fill="#5f594e" d="M838 125l-6 17-26-18-10-3" />
    <path fill="#7c776b" d="M-31 417l73 157-10-131 52-60" />
    <path fill="#a7a399" d="M207 324l102 30-108-72 93-28" />
    <path fill="#7e7868" d="M-31 474l161 81 39-45 10 125" />
    <path fill="#4f9508" d="M857 509l-126 88-2 4 93-60" />
    <path fill="#9b938b" d="M172 334l27 124-48-2-33-127" />
    <path fill="#1a1c2c" d="M703 354l64 26-137 11 68-15" />
    <path fill="#403f3b" d="M957 620l-51-52 149-63v66" />
    <path fill="#908f89" d="M624 231l-426 23 217-18 83-4" />
    <path fill="#635d58" d="M991 221l35-6 23-10-46 3" />
    <path fill="#549805" d="M171 502l57 56-31 20-24-13" />
    <path fill="#322f2a" d="M74 265l117 30 22-21-21-12" />
    <path fill="#2d2c28" d="M408 176l58-27v-8l-22 31" />
    <path fill="#8e83a5" d="M809 378l-94 11 21 17 136-33" />
    <path fill="#59544b" d="M672 151l15 4 15 11-59-17" />
    <path d="M674 516l-52 32 87-13 4 38" />
    <path fill="#5f5b52" d="M855 196l-5-11 6 4 81 8" />
    <path fill="#43423d" d="M566 198v-53l-14 2 14 34" />
    <path fill="#5b5f6a" d="M757 298l33 10-46 40-19-40" />
    <path fill="#36a200" d="M198 540l222 48 3 132 83-4" />
    <path fill="#736a71" d="M299 465l-49 11 6-20-5-14" />
    <path fill="#258600" d="M558 698l22-42-6 70-262-104" />
    <path fill="#759e24" d="M744 617l10-13 88-54-62 45" />
    <path fill="#c0b9ad" d="M127 119L72-6 331 4 148 29" />
    <path fill="#e2ddd6" d="M498 145l-22 4-49-49 73-19" />
    <path fill="#3f3a35" d="M198 700l46 15 42 9-55 28" />
    <path fill="#2d2b23" d="M55 197l7 4 66-8-159-6" />
    <path fill="#565351" d="M661 253l-9-32 38 39-7-4" />
    <path fill="#959ca0" d="M440 522l37 10-24 16-54-99" />
    <path fill="#444045" d="M455 517l23-19-18-9-25 19" />
    <path fill="#8fb73e" d="M202 473l63 70-53-12-46-33" />
    <path fill="#9d9b98" d="M908 351l9 6 25 8-17 14" />
    <path fill="#bbb5b1" d="M482 465l-50 1 97 3-12-9" />
    <path fill="#7e796c" d="M138 145l45 6-14 10-69-12" />
    <path fill="#d1d0da" d="M475 360l-78-29-33 19 30 12" />
    <path fill="#989700" d="M723 639l1-37-4 5-3 27" />
    <path fill="#8f8a7e" d="M163 350L63 528l145-55L13 346" />
    <path fill="#100000" d="M486 503l-10 29-5 8 21-8" />
    <path fill="#b9b3a7" d="M739 155l48-33 74-10-36-143" />
    <path fill="#979997" d="M709 522l56 6 55-127-126 123" />
    <path fill="#4d4b46" d="M366 194l-48 3 6-4 10-2" />
    <path fill="#020048" d="M495 430l-58 17 15 3 45-12" />
    <path fill="#808f87" d="M461 543l-67-21 84 22 22-10" />
    <path fill="#c5beb2" d="M629-20l147 160 26-5-55-166" />
    <path fill="#000002" d="M923 554l-7-121 14-35 19-13" />
    <path fill="#acaaa6" d="M596 348l61-45-44 2-88 76" />
    <path fill="#070705" d="M932 143l115-10-181 37 62-58" />
    <path fill="#060600" d="M692 668l-50 63 190-143-9-21" />
    <path fill="#645a46" d="M176 624l28 1 1 14-59 36" />
    <path fill="#b1aea6" d="M400 134l-19-25-81-41 71 43" />
    <path fill="#0c054f" d="M196 371l20-10-29-11-7 3" />
    <path fill="#4d5f7d" d="M317 467l-46 24 27 2 11-41" />
    <path fill="#663e79" d="M202 406l-2 23-10-3 38-62" />
    <path fill="#9a9ea5" d="M231 434l2-31-37 68-7-42" />
    <path fill="#838284" d="M240 422l38 9 109 14-195-40" />
    <path fill="#e2dddd" d="M478 297l-76 75 108-90 136-3" />
    <path d="M-4 282l115 5-42-30-69 6" />
    <path fill="#000007" d="M227 457l22 21 3-45-19-3" />
    <path fill="#050400" d="M996 338l-293-85 352 76v28" />
    <path fill="#dad0cd" d="M391 442l-51-31-54-18-4 32" />
    <path fill="#b4acd1" d="M537 442l-21-18-19 10 12 6" />
    <path fill="#a7b2bd" d="M436 468l-6 52-65-49-23 50" />
    <path fill="#73b41a" d="M618 550l-32 19-96 13 13-23" />
    <path fill="#9d8eca" d="M550 424l21-33 122-90 19 4" />
    <path fill="#111909" d="M364 526l-54-23-81-23 29 14" />
    <path fill="#424040" d="M635 570l-12 25 23-42 23-13" />
    <path fill="#527e7e" d="M455 386l-20-4 38-10 7-1" />
    <path fill="#369c00" d="M416 664l87-78 82-14-53 88" />
    <path fill="#69686c" d="M655 586l-29-106 20 75 12 25" />
    <path fill="#413b34" d="M154 105l21-4-42-14 62 53" />
    <path fill="#6e859b" d="M232 436l-3-40-1 91-16-42" />
    <path fill="#69696a" d="M627 585l22 20-26-11 93-174" />
    <path fill="#000006" d="M912 351l-54 23 25-2-11-28" />
    <path fill="#36342e" d="M921 155l-22 16h-51l103-6" />
    <path fill="#030302" d="M477 137l-100 58-284-24 368-25" />
    <path fill="#9a9388" d="M829 320l-44-26 43 15 40 38" />
    <path fill="#96979a" d="M272 462l-23-3 44 15 25-1" />
    <path fill="#5b574b" d="M63 104l-1 11-84-12 115 9" />
    <path fill="#1b1b3a" d="M660 389l-34 13 16-24 36-38" />
    <path fill="#d9d4ca" d="M689 118l-58 39-75-41 34-74" />
    <path fill="#0b0b04" d="M182 621l9-34 65 88-54-49" />
    <path fill="#3a3b55" d="M733 342l-54 6 7-23 38-20" />
    <path fill="#0b0a07" d="M897 184l119-1 39 13-195-9" />
    <path fill="#294a11" d="M456 547l-29 1 28 6 40-5" />
    <path fill="#464360" d="M328 369l-24 10 1-8h-1" />
    <path fill="#361a9c" d="M205 376l-8 12 54-28-31-5" />
    <path fill="#89606e" d="M567 295l-3 6h-75l18-9" />
    <path fill="#291969" d="M836 387h18l19-6-6-11" />
    <path fill="#a6a4a3" d="M491 287l-148-36 122-17 183 29" />
    <path d="M636 566l42-49-46 22-48 116" />
    <path fill="#53a31c" d="M315 524l-75-21-20-10 180 50" />
    <path d="M440 733l-79-32 134 75 98-37" />
    <path fill="#23221d" d="M909 257l-144 8 65 11 139 34" />
    <path fill="#4840a6" d="M401 435l-17 9 14 1 43 1" />
    <path fill="#3c3734" d="M683 744l9 40 182-46 80-142" />
    <path fill="#0d0c09" d="M975 163l10 54-139-16 154-2" />
    <path fill="#837e72" d="M224 109l23-26h-16l-12 21" />
    <path fill="#504a46" d="M-31 717l73-83h-73l81 87" />
    <path fill="#25221d" d="M822 127l24 23 55-32-61 4" />
    <path fill="#474039" d="M627 700l33-5-11 2-1 13" />
    <path fill="#484743" d="M672 650l-24-34-2 5 24 15" />
    <path fill="#4f4a41" d="M796 266l-23-30 108 17-144-5" />
    <path fill="#215803" d="M888 528l21-22-2-38-56 26" />
    <path fill="#b1aca2" d="M822 144l6-39 60-91-92-44" />
    <path fill="#1f7a00" d="M509 723l57 9-88-51 71-18" />
    <path fill="#454d53" d="M821 322l-45-22 33 55 50 2" />
    <path fill="#5f0811" d="M469 489l39-17-45 36 19-32" />
    <path fill="#4d35c6" d="M422 393l-16-26 44 68 87-22" />
    <path fill="#0b0807" d="M267 214l18 28-15-7-191 12" />
    <path fill="#a8b2b7" d="M412 530l4-24 30-9v-11" />
    <path fill="#211c0d" d="M804 292l-126-42 96 9 125 64" />
    <path fill="#888376" d="M121 269l7-15 43 6-105-3" />
    <path fill="#030302" d="M177 151l-61-38 137-8 96 85" />
    <path fill="#9bb3a8" d="M380 526l59 9-51-18-26-1" />
    <path fill="#318302" d="M772 590l154-88-169 79-32 25" />
    <path fill="#726d73" d="M499 493l-117 15 38 15-54-13" />
    <path fill="#030e00" d="M701 676l21-73-15-11-4-80" />
    <path fill="#352f25" d="M694 565l-10-15 8 25 12 40" />
    <path fill="#170c17" d="M264 446l-2 11 32-15-65-26" />
    <path fill="#afaba7" d="M343 351l-55 5-52-93 147 6" />
    <path fill="#cdc7ba" d="M229 73l-8 37L179-9l230 9" />
    <path fill="#2e2b25" d="M630 168l-26-21-11 10h191" />
    <path fill="#a7aeb2" d="M526 501l57 45 2 9-79-18" />
    <path fill="#2a2522" d="M963 539l-116 38 97-70 8-22" />
    <path fill="#3b8f00" d="M763 539l-29-7-2 37-37-48" />
    <path fill="#08070b" d="M812 310l37 24 16 46 22-5" />
    <path fill="#2b2820" d="M46 331l5 20 97-34-42 23" />
    <path fill="#a49a92" d="M176 442l27-38-81-39 85 75" />
    <path fill="#0b0a08" d="M-31 263l211 65 8-9-79 15" />
    <path fill="#5f665e" d="M807 536l-1-25-11-8 11-22" />
    <path fill="#45b100" d="M405 586l-219-59 247 82 169-20" />
    <path fill="#433e39" d="M122 703l45 63 42-58 66 30" />
    <path fill="#010100" d="M675 677l-101 15 30-60 29-2" />
    <path fill="#000102" d="M798 305l-17-9h-18l41 14" />
    <path d="M848 170l-4 56-208-39 237-34" />
    <path fill="#4f4b43" d="M909 179l48 1-35 6-43-1" />
    <path fill="#191b2b" d="M723 308l31 71-9 6-16-44" />
    <path fill="#0f0e0a" d="M309 712l-115-54 45-31-37 70" />
    <path fill="#282626" d="M497 231l15-48-26 18-156 5" />
    <path fill="#171715" d="M665 226l-92-32 99 20 2 37" />
    <path fill="#bdb7ab" d="M71 29l89-60-24 144-5-3" />
    <path fill="#9887c4" d="M278 362l-90-15 84 4 74 15" />
    <path fill="#95908a" d="M943 49l-31 6 85 72 47-7" />
    <path fill="#393630" d="M143 186l1-3 68 26-8-14" />
    <path fill="#7e837a" d="M477 512l-37 25 24-24 14 15" />
    <path fill="#96928c" d="M415 245l-172 4-175 10 159 2" />
    <path fill="#050502" d="M813 196l-292-33 43 14 34 25" />
    <path fill="#413d65" d="M247 395l-31 19-25-29 16 27" />
    <path fill="#4b3a1b" d="M731 269l66 27 18 1-35-17" />
    <path fill="#8e8e90" d="M816 399l55-14-67 103 124-97" />
    <path fill="#90657b" d="M492 472l-4-7 6 33-3-50" />
    <path fill="#43403c" d="M1055 555l-91 2-5-142-9 76" />
    <path fill="#5a5d5b" d="M691 648l12-39-28 51 12-34" />
    <path fill="#a19d93" d="M934 75l40 56-77-24-33-55" />
    <path fill="#b9bcc5" d="M615 469l78-11-127 89-36-82" />
    <path fill="#161311" d="M647 754l-193 35 237-68-46 19" />
    <path fill="#76726a" d="M375 127l8-12-3-14 7 33" />
    <path fill="#314830" d="M304 521l-72-37 58 33-24-56" />
    <path d="M675 649l-16-36-13-56-10 28" />
    <path fill="#9d978e" d="M591 236l-19 1 43-11 106 48" />
    <path fill="#4d5474" d="M449 457l-2 10 43-11-39-2" />
    <path fill="#161511" d="M946 119l-65 104 50-84-83-10" />
    <path fill="#0c0c09" d="M426 167L253 89l-19 35 107-25" />
    <path fill="#a39d95" d="M179 313l192 14-139 19-18-13" />
    <path d="M595 614l84-97 27 11-78 17" />
    <path fill="#e1dcd3" d="M393 130l-10-38 207 6-190 35" />
    <path fill="#716b5e" d="M69 161l63-6-7-62 8 41" />
    <path fill="#777067" d="M953 398l7-31-92-30 67 3" />
    <path fill="#a0a5af" d="M206 413l-12 37 17 12 20-54" />
    <path fill="#090c18" d="M919 370l-55 8 28-30 34 37" />
    <path fill="#82817e" d="M995 18l20-49 40 128-16 97" />
    <path fill="#110f0c" d="M14 287l102-11-91 76-56-27" />
    <path d="M627 592l30 34-66-3-13 125" />
    <path fill="#e1e1df" d="M341 429l18 1 35-14v28" />
    <path fill="#2e2a24" d="M213 177l-71-80 58-12-54 14" />
    <path d="M955 474l-16-91-32 96 6 62" />
    <path fill="#39434f" d="M734 389l13-3 14-55 58 4" />
    <path fill="#2c6c06" d="M772 546l160-68-95 48-94 11" />
    <path fill="#2b2a25" d="M991 179l49-11 15 3-89-10" />
    <path fill="#689921" d="M741 629l6-33 38-4-49 35" />
    <path fill="#030301" d="M1050 214l2 8-125-79 58 54" />
    <path fill="#72182a" d="M450 499l-2-23h5l1 19" />
    <path fill="#8e8279" d="M518 456l26 7 71-18-94 16" />
    <path fill="#2a2a26" d="M442 199l-105-9 31 9 38-14" />
    <path fill="#d9d4df" d="M316 361l-25-9 117 12-75-3" />
    <path fill="#8b877a" d="M173 458l36-25-72 126-11-62" />
    <path fill="#84bc24" d="M218 495l86 24 6 35-74-14" />
    <path fill="#95908b" d="M536 157l43 9-46-4 62-42" />
    <path fill="#7b7568" d="M66 341l24 8-31 55 37-66" />
    <path fill="#a5a0a2" d="M260 364l16 27-27-24 75 13" />
    <path fill="#3d4c3f" d="M523 502l-14 28-36 18 10 1" />
    <path fill="#a29f9d" d="M753 422h-55l138-31-10 32" />
    <path fill="#1d1b1d" d="M730 301l14-9 50 12-17-10" />
    <path fill="#b1bbcb" d="M362 453l-3 29 57 19 22-49" />
    <path fill="#191614" d="M764 632l-72 53-23 26 92-34" />
    <path fill="#c7c7cb" d="M305 396l112 12 1-24-67-4" />
    <path fill="#e2e2e1" d="M388 369l136-44H397l68-26" />
    <path fill="#207d00" d="M437 731l56 6 80-8 2-39" />
    <path fill="#554b4c" d="M821 390l-11 4-12 5-61 11" />
    <path d="M572 610l-31 77 19-28 10-34" />
    <path fill="#856ed8" d="M460 379l4-19-46 2-12 6" />
    <path fill="#373530" d="M984 192l-47 8-33-7 69-3" />
    <path fill="#d5d0cf" d="M639 274l-139 7 24 18 46-16" />
    <path fill="#7361b5" d="M669 340l-54 70-8-26v16" />
    <path fill="#a1b6ac" d="M429 529l-7 3-81-14 27-2" />
    <path fill="#686561" d="M517 141l-17-16 24 11-58 43" />
    <path fill="#b9b7b6" d="M627 256l-21-16 7-10-96 17" />
    <path fill="#3d3c5f" d="M527 490l7-55 7 9-31 84" />
    <path fill="#9d8ad7" d="M546 454l13-3-23 9-29-15" />
    <path fill="#1f1e1b" d="M225 307l-39 11 20-49-65-8" />
    <path fill="#12110b" d="M911 222l-188-2 41 15 113 8" />
    <path fill="#a9abae" d="M810 412l-130 16-96 27 179-9" />
    <path fill="#d3cbd3" d="M538 427l96-17-90 28h-7" />
    <path fill="#d9d4c9" d="M341 16l273 40-83 97 93-19" />
    <path fill="#726e62" d="M204 105l3-11 50-2-66 11" />
    <path fill="#d0cbc4" d="M626 306l-90-14 187-7-58 26" />
    <path d="M378 654l31 7 15 73-225-134" />
    <path fill="#767579" d="M852 495l57-34 21-71-87 101" />
    <path fill="#7b776a" d="M173 518l-31 102-84 2 33-32" />
    <path fill="#6c6a71" d="M810 421l56-65-73 83-5-10" />
    <path fill="#497e1f" d="M769 563l-25 12 4-27 19 2" />
    <path fill="#48433d" d="M782 242l-64 1 101 24-150-51" />
    <path fill="#2b8800" d="M479 626l100-32-31 55 4-36" />
    <path fill="#342f2d" d="M741 658l38 19 167-79-63 1" />
    <path fill="#95b754" d="M190 514l-18-10 30-26 13 18" />
    <path fill="#aaa59b" d="M51 106l74 1-156-4L8-31" />
    <path fill="#2a2762" d="M397 446l74 10-22-2 1-11" />
    <path fill="#27251d" d="M140 123l36-26-14 15-101-2" />
    <path fill="#570001" d="M488 472l-25 9 15 14 13-13" />
    <path fill="#9d92b1" d="M719 403l-129 43 116-30 107-27" />
    <path fill="#5e5850" d="M135 690l38 8 10 20-35-6" />
    <path fill="#36332f" d="M100 284l67 2-22-22-7-1" />
    <path fill="#010100" d="M865 538L760 640l-59-1-18 44" />
    <path fill="#1d1a16" d="M223 217L99 237l15-29 218-7" />
    <path fill="#bfbdc0" d="M303 398l17-25 91 42-79-9" />
    <path fill="#423b73" d="M251 397l-2 1-30 11 15-11" />
    <path fill="#000102" d="M245 416l-12 64-4 3 23 14" />
    <path fill="#848784" d="M696 645l-2-28-15 69 11-30" />
    <path fill="#211e19" d="M792 158l54-18-82 6-25-4" />
    <path fill="#030900" d="M712 601l-8 10 55-36-32 13" />
    <path fill="#312f2b" d="M670 228l-73-15 15-15-58 30" />
    <path fill="#5b574f" d="M109 747l-7-118-25 2 53 100" />
  </g>
</svg>