<svg version="1.1" viewBox="0 0 1024 768" width="1024" height="768" xmlns="http://www.w3.org/2000/svg">
  <g fill-opacity=".5">
    <path fill="#b0afaf" d="M654 557l1 8-3 5-18-14" />
    <path fill="#fff" d="M386 54l-2 140 18 12-32 20" />
    <path fill="#43ca25" d="M923 455l-15-30-3-13 30 11" />
    <path fill="#556973" d="M121 465l1-4-4 14-101-6" />
    <path fill="#ded7ec" d="M891 756l4-59-38-50 24 100" />
    <path fill="#fff" d="M342 523l130-116H195l176 73" />
    <path fill="#6190e2" d="M896 549l31-2-9 23-28-10" />
    <path fill="#69747d" d="M70 430l157-80 6 39v-42" />
    <path fill="#fff" d="M943 597v28l112-9-66-26" />
    <path fill="#576a74" d="M109 126l-77-3 81-5 11-3" />
    <path fill="#33d3e8" d="M773 372h-4l45 20-36 12" />
    <path fill="#e6dad1" d="M467 482l111-13-98-1-97-1" />
    <path fill="#676767" d="M368 133h81l-19-7 22 15" />
    <path fill="#aee3db" d="M251 10l2 16-7 1-7-1" />
    <path fill="#cacfd0" d="M562 612l-31 1 1 24 27 13" />
    <path fill="#66757f" d="M131 202l-5-5-112 1 80 6" />
    <path fill="#cfbea9" d="M993 548l16 3-101 4 86-13" />
    <path fill="#fff" d="M735 532l1 174 65 34-2-190" />
    <path fill="#0c2439" d="M126 492L26 506l58 24-57-1" />
    <path fill="#fff" d="M668 165L218 76l21-35-10 52" />
    <path fill="#fffeff" d="M213 766V449l-17 104 2 228" />
    <path fill="#455b68" d="M55 393l56-19-60-2 79 24" />
    <path fill="#978eac" d="M221 592l-12 10 12-4h31" />
    <path fill="#fff" d="M417 129l87-4-85-45-227 48" />
    <path fill="#81b1bd" d="M828 715l16-1-37-17 66 3" />
    <path fill="#00182d" d="M49 137l-39-28 34 20 3 88" />
    <path fill="#fff" d="M939 252l-59 134-106-11-57 17" />
    <path fill="#adf09d" d="M437 174l17-8 57 7-67 4" />
    <path fill="#64d548" d="M402 164l-5-3h-14l12 20" />
    <path fill="#fff" d="M198 353l44-104 313 62-320 1" />
    <path fill="#242424" d="M385 129l5 2 6 5 36-6" />
    <path fill="#fff" d="M263 520l398 71-378-7 32-61" />
    <path fill="#00b59f" d="M153 41L18 25 7-31-4 41" />
    <path fill="#586d78" d="M50 312l119 6-49-8-88-1" />
    <path fill="#fff" d="M923 765l106-33-7 67-295-40" />
    <path fill="#425562" d="M63 432l61-25-82-5 101 21" />
    <path fill="#00172b" d="M76 450l-56-2 14-6 152 4" />
    <path fill="#8490b9" d="M292 599l-3-7h30l8 7" />
    <path fill="#01182d" d="M7 408l12 9 39 1 97 1" />
    <path fill="#fff" d="M196 198l305-35-95-13 87 71m500 133l-6 111-55 16 86-59M243 540l-11 31V375l13 67" />
    <path fill="#f3eff6" d="M286 593l-45-24v-35l24 148" />
    <path fill="#60d143" d="M553 263l13-15-22 13 8-19" />
    <path fill="#13112e" d="M206 47l-106-4H-17l11 7" />
    <path fill="#d6ebe6" d="M775 245l17 27 8 44 28-50" />
    <path fill="#a68a8c" d="M528 689l24-7-37 1 31 14" />
    <path fill="#bc6d3e" d="M298 24v-5l29 2 7 3" />
    <path fill="#577176" d="M52 245l-52-2 23-6 57 7" />
    <path fill="#fff" d="M450 233l-72 18-134 4 170-28" />
    <path fill="#a3acb1" d="M329 147l9 8-5 4-52-5" />
    <path fill="#a69ea8" d="M307 243l39-8-39-3 2 8" />
    <path fill="#4b9e7b" d="M425 503l-4 22-6-8 15-8" />
    <path fill="#fffeff" d="M385 90l-72 123 217 251-145-189" />
    <path fill="#cf93ff" d="M-15 650l12-57 4-114 4 17" />
    <path fill="#919090" d="M894 360l-5-4 38 6-31 5" />
    <path fill="#3bf2ff" d="M5 47L3 78l-34 28V91" />
    <path fill="#f7692d" d="M930 752l-38-1 8-31-5 22" />
    <path fill="#e0c6ee" d="M317 374l118 7-218 3 92-45" />
    <path fill="#bdc8c8" d="M44 537l-10-23v20l2 5" />
    <path fill="#7eadd2" d="M822 324l-44 1-35-7 40-1" />
    <path fill="#5b7c89" d="M458 594l-12 1-1 5 30-6" />
    <path fill="#99a5aa" d="M33 198l4-11 53-3-57-3" />
    <path fill="#001a2e" d="M131 385l-2-3-126-3 59 9" />
    <path fill="#00b3a0" d="M587 4L364 3l-44 35 146 4" />
    <path fill="#a3afb2" d="M34 347l12 17-5 5-6 56" />
    <path fill="#0f2538" d="M31 413l-2-50 18 4-43 13" />
    <path fill="#fff" d="M557 108l498-30-24 122-107-50M222 345l2-218-26-16 1 299" />
    <path fill="#ffd0c0" d="M944 722l-22-2 5 62 16-33" />
    <path fill="#cac0a9" d="M983 728l36 9-38 2-45-1" />
    <path fill="#d9eeea" d="M978 300l-5-29-113-95 93 118" />
    <path fill="#ffffc0" d="M957 662l-79 11-8-62 32 39" />
    <path fill="#fffdff" d="M453 505l23 6-46-35 22 52" />
    <path fill="#c1e3ea" d="M964 221l-32-83-9 39-64 26" />
    <path fill="#50cb34" d="M983 445l6-22-13-41-29 12" />
    <path fill="#7daf52" d="M331 522h-12l3 8v-27" />
    <path fill="#ffcd9e" d="M340 679l158 14H355l73-13" />
    <path fill="#e3f3ff" d="M853 533l-35 6 120 10 51-15" />
    <path fill="#f4f7f5" d="M720 43l172 31 163 4-44-36" />
    <path fill="#fff" d="M794 419l-14-16-17 22 5 8m-88-48l-229 77 163-15 162 31" />
    <path fill="#f2d2b5" d="M743 755l93-20-104-7-22-25" />
    <path fill="#40d4e6" d="M743 390l21 23-26 41-2-40" />
    <path fill="#fff" d="M238 577h181l-155 14-67-7m354-294l-298-56 592 150-275-155" />
    <path fill="#0c2338" d="M197 212l-64 108-11 97 63 35" />
    <path fill="#061e32" d="M-11 244l87 20 69-21 36 4" />
    <path fill="#0d2337" d="M195 81l-3 271-81-270 45-1" />
    <path fill="#00162a" d="M2 427l103 1 64 6H53" />
    <path fill="#82bdb3" d="M1055 1l-57-2h35l-36-30" />
    <path fill="#b3afa6" d="M805 477l29-5-126 5h52" />
    <path fill="#fbef79" d="M625 483l14 49 3-22-25-26" />
    <path fill="#2b71af" d="M192 48l6 34-33-2-196 2" />
    <path fill="#f8f7ff" d="M415 499l-7 7-46-31 53 8" />
    <path fill="#071e33" d="M34 247l-15-47 173 19-163-12" />
    <path fill="#d5db75" d="M466 497l-7 23-24-5 5 12" />
    <path fill="#f9fcf2" d="M199 41l-2 116 3-86 21-28" />
    <path fill="#dcc3e9" d="M333 388l25-27 37-37 8 35" />
    <path fill="#acabac" d="M245 314l50 9 31-9-51-1" />
    <path fill="#ff9635" d="M777 374l-39 16 16 3 19 13" />
    <path fill="#79d4c7" d="M225 12l-14 9-8 3 16 3" />
    <path fill="#818181" d="M288 561l1 11-9 9-6-32" />
    <path fill="#c1cbf9" d="M905 708l30-6 11 18-156 1" />
    <path fill="#fff" d="M310 341l6 34 121-87-229 57" />
    <path fill="#737373" d="M236 561l-9-11-2 15-10 14" />
    <path fill="#2f2f2f" d="M381 131l47-1 22-2 1 7" />
    <path fill="#0a2136" d="M-20 654L8 524l150-4-134 9" />
    <path fill="#04172c" d="M80 190l-111-1 116 7 65-12" />
    <path fill="#909fa2" d="M470 351l1 2 8 8-12 16" />
    <path fill="#fff" d="M455 257l93-150-111 139 166-8" />
    <path fill="#57b3b0" d="M492 498l-12-9v6l1 4" />
    <path fill="#fff" d="M594 82H460l-18 18 13 53" />
    <path fill="#5f6f78" d="M124 419l-93 6 99 1 7-6" />
    <path fill="#fff" d="M686 518l-77 7 157-49 258 37" />
    <path fill="#fffeff" d="M933 404l2 25 26-8-2-16" />
    <path fill="#fffffe" d="M351 605l93 2-89 6-150-7" />
    <path fill="#00b29f" d="M578 4l32 36 95 1L897 3" />
    <path fill="#93e9f2" d="M491 593l-72 12h98l-11-1" />
    <path fill="#081e33" d="M36 419l-6-16 160-8H17" />
    <path fill="#b5b4b4" d="M385 396l-132 1-18-4 43 1" />
    <path fill="#df9b89" d="M560 343l-8 9-22 29 31-28" />
    <path fill="#75d75c" d="M404 261l-11-5-6-18v22" />
    <path fill="#aaaaab" d="M255 101l36 9-57-1-43-4" />
    <path fill="#00af9c" d="M125 32l-7-15 136 24-148 1" />
    <path fill="#072137" d="M52 345l-21 12L5 189l42 186" />
    <path fill="#fff" d="M1055 669l-110 16-10 37 13-76" />
    <path fill="#72d950" d="M245 247l-5 8-12 11-3-18" />
    <path fill="#26ccd4" d="M958 79l96-4-39-73 29 80" />
    <path fill="#d1a26a" d="M848 646l26 8-3 1-64-2" />
    <path fill="#091f32" d="M78 166l83-5-140-5-15 1" />
    <path fill="#5cd9d4" d="M804 559l48 3-3-11-36 10" />
    <path fill="#586872" d="M74 516l-26 1 7 7 38-4" />
    <path fill="#fff" d="M1039 555l-118-2 40 26h45" />
    <path fill="#64757d" d="M112 217l-13-5-68 7h12" />
    <path fill="#fff" d="M787 799l95-25-14-26-60 2" />
    <path fill="#2ad2e4" d="M857 78l-188-1-69 1 27 4" />
    <path fill="#b3b9bc" d="M320 144l-9 13-34 3 7-12" />
    <path fill="#d3d6d6" d="M641 614l-3 15-30 3v-26" />
    <path fill="#adee9c" d="M620 173l16-8 22 8-18 8" />
    <path fill="#fff" d="M968 364l54-261 25 279-174-13" />
    <path fill="#90b082" d="M795 747l-48 6 27 6 22-8" />
    <path fill="#50cc33" d="M950 375l40 36-3 30-41-50" />
    <path fill="#718088" d="M91 278H34l4-2 39 10" />
    <path fill="#d0d3bf" d="M330 467l1 15 37-7 17-8" />
    <path fill="#fff" d="M721 580l-318-57 87-3-219 40" />
    <path fill="#ae7145" d="M277 7l4 17 4-2 3-3" />
    <path fill="#fffffa" d="M989 544l-43-2-13-11 122 8" />
    <path fill="#ff68bb" d="M943 397l-16 20-25-12 39-32" />
    <path fill="#fffbff" d="M313 477l-39-6 21-61-33 34" />
    <path fill="#fffce9" d="M1019 626l-159 7-107-17 173 4" />
    <path fill="#b7daf5" d="M898 702l-38-29 94 2-102 22" />
    <path fill="#858582" d="M649 395l-33 2h-78l-20-1" />
    <path fill="#fff" d="M807 198l56 229-19-225 156-91" />
    <path fill="#77b8a2" d="M852 597l4 8 1 3-44-11" />
    <path fill="#081d31" d="M-31 457l169 12 15-12-114 2" />
    <path fill="#f4e06d" d="M482 466l-54 29-15 11 54-27" />
    <path fill="#fff" d="M787 759l-270 2H191l474 38m122-430l90 88 49-87-176 5" />
    <path fill="#070e2c" d="M101 43l56 1h37l-7 6" />
    <path fill="#5e6f79" d="M55 452l7 7h60l5-8" />
    <path fill="#ffffce" d="M350 692l1-15-55 2 38 24" />
    <path fill="#b3afb4" d="M350 393h1l72 4H317" />
    <path fill="#63d5a8" d="M893 618l37-1 7-2-71 2" />
    <path fill="#697982" d="M95 262l-82 2 38 2 55 1" />
    <path fill="#00a596" d="M79 38L64 11l4 42-5-25" />
    <path fill="#9cf0f6" d="M797 704l9-10 29-2-4 7" />
    <path fill="#fff" d="M625 261l3-118-62-2-5 37" />
    <path fill="#a7c79e" d="M936 472l-44 7v-8l26 8" />
    <path fill="#faf7f8" d="M428 482l26 21 162 21-169-32" />
    <path fill="#131414" d="M422 140l-39 1 1-2 60-1" />
    <path fill="#00b4a1" d="M693 6l47 33-266 4-23-40" />
    <path fill="#fcf240" d="M621 521l-11 1 3-13-2 1" />
    <path fill="#97aac3" d="M359 592l4 3 29-5-9 13" />
    <path fill="#8d999e" d="M24 481v6l4 10-11 3" />
    <path fill="#fefafc" d="M316 487l31 6 25 191-73-316" />
    <path fill="#3ed3e7" d="M818 432l-1-25-53 35 22 18" />
    <path fill="#fffefc" d="M309 217l-8-57-2-37-5 37" />
    <path fill="#22cfe2" d="M950 77l-78 1h-77l175 1" />
    <path fill="#39d5e5" d="M421 79l187 2-29-6-49 1" />
    <path fill="#fffcfd" d="M688 680l-120-2-64-39 242-1" />
    <path fill="#c9a296" d="M802 708l44 7-4-9 13-19" />
    <path fill="#c6dae1" d="M952 514l-32 105 4-85 108-12" />
    <path fill="#f5f7f5" d="M305 43h142l17 26-192 7" />
    <path fill="#a4c0c0" d="M520 595l7 7 18-9 36-1" />
    <path fill="#92d8dc" d="M734 693l-29-10-52 10h33" />
    <path fill="#94b88b" d="M961 702l7-2 49 2-50-17" />
    <path fill="#ecb9ef" d="M794 681l21-25 51 18 3-20" />
    <path fill="#fff" d="M203 384l77-30-30-31-54 229" />
    <path fill="#929fa3" d="M44 477l-12-34 3 35 6-8" />
    <path fill="#d0bdad" d="M955 628l65 1-68 7h-6" />
    <path fill="#fffffe" d="M814 441l-36 32 149-5-76-138" />
    <path fill="#fff" d="M296 301l-54 13-3-65 37-116" />
    <path fill="#160c21" d="M4 81L3 92l55-10-15-1" />
    <path fill="#4d616d" d="M129 358l-43-3 34 11 24-4" />
    <path fill="#fff23f" d="M312 526l-1-18-19-5 23 23" />
    <path fill="#dddc84" d="M542 470l9-2-33 41 1-17" />
    <path fill="#011b2f" d="M10 270l50 6 110-2-97-4" />
    <path fill="#0b5a77" d="M77 744l37-8-38 23 6-17" />
    <path fill="#fffdfa" d="M879 548l-84-7-24-1 79-11" />
    <path fill="#fff060" d="M405 510l26-10-5-16-16 40" />
    <path fill="#0a2035" d="M7 310l21-194 135 5L7 99" />
    <path fill="#50cfad" d="M716 582l-10 6-5 2-1-8" />
    <path fill="#fff" d="M265 792l181-25-159-8V609" />
    <path fill="#aeabab" d="M273 478l2-27-33 5 28 7" />
    <path fill="#00182c" d="M29 367l44 4 28-3-33-6" />
    <path fill="#0b2338" d="M165 584l-76 87 113 121-18-96" />
    <path fill="#5b9ed8" d="M258 138l24 2-61 1 7-3" />
    <path fill="#f2f9f7" d="M311 72l-114 4 1-49 2 40" />
    <path fill="#ccd5d6" d="M531 732l33 8-4-43-26 55" />
    <path fill="#525353" d="M399 218l-10-4-8 14 11-2" />
    <path fill="#6ed551" d="M565 170l-21-12 4 11 4 7" />
    <path fill="#fff" d="M600 406l-182 91 42-35-202-12" />
    <path fill="#f2e93b" d="M890 630l7 5 25 5v-8" />
    <path fill="#c1cacc" d="M29 358l-1 2 16 7-7-10" />
    <path fill="#faf2ef" d="M336 468l-34 9-10 38-17-14" />
    <path fill="#fffeff" d="M497 355l-86 102 10-275 47 195" />
    <path fill="#0a2337" d="M2 303l48-3 155 1-103 7" />
    <path fill="#fffdfd" d="M209 445l36-20 26 160 7-50" />
    <path fill="#5d9bd2" d="M727 196l38 26v11l-29-48" />
    <path fill="#ffd1bf" d="M950 728l-86 10 31 21-24-39" />
    <path fill="#fff" d="M667 508l93-145-34 15-44-144m280 253l58 30-263-1 82-47M249 156l-51 86 66-73 89-5" />
    <path fill="#2a2a2a" d="M389 220l31-5-3 15-5-15" />
    <path fill="#84beb2" d="M63 3L-4 0h272L13-2" />
    <path fill="#4a95d9" d="M894 704l9 6-8-24-4 18" />
    <path fill="#91b1d1" d="M67 72l-5-1V59l-14 9" />
    <path fill="#fff" d="M1055 521L930 255l-54 55 104 79" />
    <path fill="#ffe543" d="M352 485l-7-7-1-4 8-1" />
    <path fill="#8e8e8e" d="M280 556l-6 15v-25l17 9" />
    <path fill="#3dd4e7" d="M819 425l-7-31-39-23 32 80" />
    <path fill="#fff" d="M216 82l86-1-99 25-4 33" />
    <path fill="#909ba8" d="M283 57l-12 8-15 1-5-9" />
    <path d="M450 137l-35 1-15 3 48 1" />
    <path fill="#5292d4" d="M756 223l42 5-8 13h-20" />
    <path fill="#fffcb9" d="M884 673l58-47 1 44-9 3" />
    <path fill="#fffefe" d="M866 718l14 21-200-49 55 37" />
    <path fill="#f9f8f6" d="M704 45l-198-3 55 35 66-4" />
    <path fill="#fefdfc" d="M327 189l213-15-225 60 4-107" />
    <path fill="#ffd3bd" d="M333 165l3 15-38-2-42-5" />
    <path fill="#5e6d77" d="M102 155l25-2-18-4-69 6" />
    <path fill="#00af9b" d="M336 20L238 3 124 4l6 2" />
    <path fill="#fcfcfc" d="M284 562l-9 5 9 9-5 187" />
    <path fill="#8c8c8c" d="M435 139l61 9-94-14 45-1" />
    <path fill="#fff" d="M746 204l-51 26-107 121 193-59M203 531l2 22 145-1 14-20" />
    <path fill="#fff" d="M700 206l-40 211-5-288 164-11" />
    <path fill="#f4a8a6" d="M813 612l-11-3 70-1-74-9" />
    <path fill="#f8f480" d="M312 483l-32 17-7-23 27 27" />
    <path fill="#cfc8ca" d="M494 625l-37 4 47-22-48 9" />
    <path fill="#cccbcb" d="M396 137l37-1-33-2-49 41" />
    <path fill="#fefdfe" d="M310 140l-94 2 1-30 9 51" />
    <path fill="#091f36" d="M142 314l2 41-41-6-28-32" />
    <path fill="#84c9b6" d="M595 592l28 9-33 4 4-4" />
    <path fill="#ceabe2" d="M301 384l5-27-21-4-1-19" />
    <path fill="#f66a2a" d="M890 733l36 2-37 8 14 17" />
    <path fill="#f3d1ce" d="M485 396l131-8 41 19-2-68" />
    <path fill="#fff" d="M345 740l20 32-3-121-7 11" />
    <path fill="#949495" d="M308 457l-4 5-51-2 47-6" />
    <path fill="#0e1f32" d="M-15 140l119 11 68-13-115 5" />
    <path fill="#dea597" d="M479 336l57 42-62-37 9 2" />
    <path fill="#fff" d="M1021 551l-11 248-67-55 94-5" />
    <path fill="#faec99" d="M386 481l-9 33 22 19-20-35" />
    <path fill="#c7e8d5" d="M629 637h105l-16-23 27 11" />
    <path fill="#cba5e0" d="M552 229l-9-14 34 1 22-1" />
    <path fill="#c49f99" d="M460 679l2 18 7-7-33-3" />
    <path fill="#c8c973" d="M849 591v1l-10 14v-17" />
    <path fill="#de9685" d="M582 347l26 4 32-13-56 15" />
    <path fill="#43c722" d="M544 258l13-11 2 3 4 10" />
    <path fill="#0d2337" d="M19 382l-6-111-7 99 60 18" />
    <path fill="#faf8f6" d="M334 54l-59-11h-56l5 13" />
    <path fill="#5b6b75" d="M89 501l-18-5-10-3 55 1" />
    <path fill="#00b19f" d="M276 27l94 13-123 2 40-57" />
    <path fill="#decdcc" d="M526 403l-51-9 48-12-25 26" />
    <path fill="#f3dadf" d="M490 471l1 54-114 5 123 1" />
    <path fill="#cbf0e0" d="M910 566h24l-45 10 64 11" />
  </g>
</svg>