<svg version="1.1" viewBox="0 0 1024 768" width="1024" height="768" xmlns="http://www.w3.org/2000/svg">
  <g fill-opacity=".5">
    <path fill="#b0afaf" d="M654 557.2l.7 7.4-2.4 5.5-18.3-14" />
    <path fill="#fff" d="M386.4 54L384 193.6l18.4 12.4-32 19.8" />
    <path fill="#43ca25" d="M923 455.3l-15.3-30.8-2.7-12.3 30 10.8" />
    <path fill="#556973" d="M121 465.4l1-4-3.7 13.7L17 469" />
    <path fill="#ded7ec" d="M891 756l3.5-58.7-38-49.8 24 99.8" />
    <path fill="#fff" d="M342 522.5l130-116H195.4l175.2 73.8" />
    <path fill="#6190e2" d="M896.3 549l31-2.5-9 23.2-28.7-10" />
    <path fill="#69747d" d="M69.8 429.7l157-79.5 6.3 39.2V347" />
    <path fill="#fff" d="M943 597.3v28.2l112-9.8-66.2-25.5" />
    <path fill="#576a74" d="M109 126.4L31.6 123l81.8-5.5 10.5-2.7" />
    <path fill="#33d3e8" d="M773.3 372.2l-4-.6 44.6 20-36 12.7" />
    <path fill="#e6dad1" d="M467.2 482.2l111-13.3-98.4-1-96.6-1" />
    <path fill="#676767" d="M367.7 133l81.3-.2-19-6.4 22.4 15" />
    <path fill="#aee3db" d="M251 10l1.6 16.3-6.5.6-7-1" />
    <path fill="#cacfd0" d="M561.7 611.7l-30.4 1.7.4 23.3 27.4 13.5" />
    <path fill="#66757f" d="M130.8 201.8l-4.8-5-112 1.6 80 5.5" />
    <path fill="#cfbea9" d="M993 547.7l16 3.6-100.7 3.8 85.5-13" />
    <path fill="#fff" d="M734.6 532.4l1 174 65.5 34-2-190.8" />
    <path fill="#0c2439" d="M126 492L26 506.3l58.3 23.3-57-1" />
    <path fill="#fff" d="M668.2 164.8l-450.5-89L239 41.2l-10.4 51.5" />
    <path fill="#fffeff" d="M212.7 766l.7-317.3-17 104L198 781" />
    <path fill="#455b68" d="M54.7 392.8l56.2-19-60-1.4 79 23.6" />
    <path fill="#978eac" d="M221.3 591.5l-12 10 11.5-3.3 31.3-.5" />
    <path fill="#fff" d="M417 129.3l87-4-85-45-227 47.2" />
    <path fill="#81b1bd" d="M828.2 715l15.3-.8-37-17.5 66.5 2.8" />
    <path fill="#00182d" d="M49.2 136.7l-39-27.6 34 20 2.4 88" />
    <path fill="#fff" d="M938.8 252l-59 133.8-106.2-11.2-56.2 17" />
    <path fill="#adf09d" d="M436.8 174.3l17-8.4 57.6 7-67.4 4" />
    <path fill="#64d548" d="M401.8 163.6l-5-2.4-14.3.3 12.6 19" />
    <path fill="#fff" d="M198.3 352.5l44-103.6 312.2 62-320 1" />
    <path fill="#242424" d="M385 128.8l4.6 2 6.7 4.8 36-5.5" />
    <path fill="#fff" d="M263 520l397.7 71-377.7-7 32-61" />
    <path fill="#00b59f" d="M152.7 41.2L18 25.4 6.7-31l-11 72" />
    <path fill="#586d78" d="M49.6 312.4l119.2 5.6-48.7-8.4-88-.8" />
    <path fill="#fff" d="M923 764.8l105.6-33.2-6.4 67.4-295.5-39.8" />
    <path fill="#425562" d="M62.5 431.7l61-25-81.3-5 100.6 21.7" />
    <path fill="#00172b" d="M76 449.5L20.4 448l13.6-6 152 3.6" />
    <path fill="#8490b9" d="M292.3 599.2l-3.2-7h30l8 7" />
    <path fill="#01182d" d="M7.3 407.8l12 9.3 38.6 1 97 1" />
    <path fill="#fff" d="M195.6 198l305.7-35.5-95-12.2 86.4 70.5m500 133l-5.3 110.8L932 481l86-59M243.2 539.6L231.8 571l.3-195.7 13 66.5" />
    <path fill="#f3eff6" d="M286 593.2l-45.2-24 .5-35.4 23.3 148" />
    <path fill="#60d143" d="M552.5 262.6l13-14.5-21.5 13 8-19" />
    <path fill="#13112e" d="M206 47l-105.6-3.8H-17l11 6.4" />
    <path fill="#d6ebe6" d="M775.4 245l16.6 27 7.5 44.2 28.6-50.6" />
    <path fill="#a68a8c" d="M528.3 689l24-6.6-37.6.7 31.5 14" />
    <path fill="#bc6d3e" d="M297.8 24.4v-5.2l29.2 2.2 7.4 3" />
    <path fill="#577176" d="M51.7 244.6l-52-1.5 23.3-6 57 7" />
    <path fill="#fff" d="M450 233l-72.3 18-133.3 4.3 169.4-28.7" />
    <path fill="#a3acb1" d="M329 146.8l8.5 8-4.4 4.3-52-5" />
    <path fill="#a69ea8" d="M307 242.5l38.7-7.3-39-2.7 2 7.4" />
    <path fill="#4b9e7b" d="M425 503l-4.4 22.4-5.6-8.6 14.7-7.6" />
    <path fill="#fffeff" d="M385.2 90L313 212.6 530 464 384.5 275" />
    <path fill="#cf93ff" d="M-15.5 650L-3 592.7l4-114.2 4 17" />
    <path fill="#919090" d="M894 359.7l-5.5-4 38 6.4-31 5" />
    <path fill="#3bf2ff" d="M5 47L2.8 77.5l-33.7 28V91.2" />
    <path fill="#f7692d" d="M930.3 751.6l-38.7-.4 8.2-31.5-4.5 22.5" />
    <path fill="#e0c6ee" d="M316.8 374l117.7 7-218 2.7 92.6-44.4" />
    <path fill="#bdc8c8" d="M43.8 537l-9.6-22.6-.6 19.6 2.4 4.7" />
    <path fill="#7eadd2" d="M822 323.5l-44.2 1-35-6.4 40-1" />
    <path fill="#5b7c89" d="M458 593.5l-12.3 1.2-.3 5 29.8-5.3" />
    <path fill="#99a5aa" d="M33 198.2l4-10.7 53.3-3.6-57-3" />
    <path fill="#001a2e" d="M131 385.2l-2.3-3.5L3.3 379l58.3 9" />
    <path fill="#00b3a0" d="M586.5 4L363.7 2.7l-44 35.6L466 41.8" />
    <path fill="#a3afb2" d="M34 347l11.8 17.2-4.4 5.2-6.5 55.2" />
    <path fill="#0f2538" d="M30.8 412.5l-1.4-50 17.8 4.8-43 12.4" />
    <path fill="#fff" d="M557.2 108L1055 78.3 1030.7 200 924 149.8M222 345.2l1.7-218.7-25.6-15.8 1 299.4" />
    <path fill="#ffd0c0" d="M944.3 722l-22-1.6 4.6 61.2 16-32.3" />
    <path fill="#cac0a9" d="M982.8 727.6l36.4 9.7-38 2-45-1.4" />
    <path fill="#d9eeea" d="M978.2 300.4l-5.6-29-112.6-95L953 294" />
    <path fill="#ffffc0" d="M957.2 662.3L878 672.7l-8-62 32 39.7" />
    <path fill="#fffdff" d="M453 505.2l22.7 5.7-45.2-35 21.6 52" />
    <path fill="#c1e3ea" d="M964.2 220.5l-32-82.4-9.6 39-64 26" />
    <path fill="#50cb34" d="M983 445.3l6.3-22.7-13.6-40.2-28.6 11.8" />
    <path fill="#7daf52" d="M331.4 522h-12.6l3 7.8-.2-27" />
    <path fill="#ffcd9e" d="M340.4 679l157.3 14.3H355l72.5-13" />
    <path fill="#e3f3ff" d="M853 532.8l-34.8 6 119.5 10.5 51-15.3" />
    <path fill="#f4f7f5" d="M720 43.2l172.3 31L1055 78l-44.5-36" />
    <path fill="#fff" d="M793.6 419.2l-14-16-16.6 21.5 5 8m-87.6-48l-229 77.3 162.3-15.3 162 31.5" />
    <path fill="#f2d2b5" d="M742.8 754.7l93.6-20-104-7-22.3-25.2" />
    <path fill="#40d4e6" d="M742.7 389.7l21.7 23.3-26 40.5-2.2-39.3" />
    <path fill="#fff" d="M238.2 577.2h181L264 591l-67.4-6.6M551 290l-298-56.4 592 150-275-155" />
    <path fill="#0c2338" d="M197.2 212.2L133 319.6l-11 97 62.8 35" />
    <path fill="#061e32" d="M-10.6 244l86.8 19.7 68.8-20.5 35.5 4.3" />
    <path fill="#0d2337" d="M194.5 80.8L192 351.6 110.8 82l45.6-1" />
    <path fill="#00162a" d="M2.2 426.7l102.8 1 63.6 6.6H53" />
    <path fill="#82bdb3" d="M1055 1.4L997.7-1h35.2l-36-30" />
    <path fill="#b3afa6" d="M805 477l29.2-5.3-126.7 5 52.6.3" />
    <path fill="#fbef79" d="M625.2 482.7l13.4 49.2 3-22-25-26" />
    <path fill="#2b71af" d="M192 48.3l6 33.5-33-1.5-196 1.5" />
    <path fill="#f8f7ff" d="M414.8 499l-6.4 6.8-46.2-30.4 53 7.6" />
    <path fill="#071e33" d="M33.7 246.7L19.4 200l173 19.3-163-12" />
    <path fill="#d5db75" d="M465.6 496.7l-6.4 23-24.4-5 5.5 12" />
    <path fill="#f9fcf2" d="M198.8 40.6L197 157.3l3.2-86 20.4-28" />
    <path fill="#dcc3e9" d="M333 388.4l24.8-27.3 37.2-37 7.8 35" />
    <path fill="#acabac" d="M245 313.5l50.4 9L326 314l-50.6-1" />
    <path fill="#ff9635" d="M777.2 373.6l-39.7 16 16 3 19 13" />
    <path fill="#79d4c7" d="M224.5 11.7l-14 9-7.2 3 16 3" />
    <path fill="#818181" d="M287.7 561.3L289 572l-9.2 9-6.2-32" />
    <path fill="#c1cbf9" d="M904.5 708.3L935 702l10.5 18-155.3.7" />
    <path fill="#fff" d="M310 340.7l6 34 120.6-86.4-229 56.4" />
    <path fill="#737373" d="M235.5 560.8l-8.2-10.8-2.8 15.4-10 13.2" />
    <path fill="#2f2f2f" d="M381 130.8l47.4-.6 22-2 .8 7" />
    <path fill="#0a2136" d="M-19.8 653.5L7.6 524l150-4-133.3 8.7" />
    <path fill="#04172c" d="M80 190l-111-1.2 116.3 7.5 65-12.7" />
    <path fill="#909fa2" d="M470.3 350.7l1 2.8 7.6 7.6-12 16" />
    <path fill="#fff" d="M454.8 257l93-150.3L437.2 246l165.4-8.5" />
    <path fill="#57b3b0" d="M492.4 498l-12-9.4-.8 6.6 1.5 4" />
    <path fill="#fff" d="M594.3 82l-134.2.3-18 18 13 52.2" />
    <path fill="#5f6f78" d="M124 419.3l-93 5.5 99 1.4 7.4-6.5" />
    <path fill="#fff" d="M685.5 518.2l-76.4 6.5L766 476l258.2 37.3" />
    <path fill="#fffeff" d="M933.4 404.4l1.6 25 26-8.8-2.3-15.2" />
    <path fill="#fffffe" d="M351.4 605l92.4 2.2-88.8 5.4-149.6-6.6" />
    <path fill="#00b29f" d="M578 4.4l32 36 95.4.6L896.7 2.7" />
    <path fill="#93e9f2" d="M491 592.8L419.2 605H517l-11.3-1" />
    <path fill="#081e33" d="M35.6 418.8l-6-15.8 160.6-7.8H16.7" />
    <path fill="#b5b4b4" d="M385.3 396l-132.6 1.4-17.7-4.2 42.8 1" />
    <path fill="#df9b89" d="M560.4 343l-8.3 9-22 29.4 31-28" />
    <path fill="#75d75c" d="M404 260.8l-11-5.3-6.2-17.3.4 21.6" />
    <path fill="#aaaaab" d="M255.4 101.3l36 8.4-57.6-1-42.4-3.6" />
    <path fill="#00af9c" d="M124.6 31.8L118 17.4l135.7 23.4-147.6 1" />
    <path fill="#072137" d="M52.3 345.4l-21.5 11.4-26-167.6 42 186" />
    <path fill="#fff" d="M1055 669l-110 16.4-10.2 37 13.3-76" />
    <path fill="#72d950" d="M244.7 247.3l-4.3 7.8-12.8 11-3-18" />
    <path fill="#26ccd4" d="M958 79.4l96.3-4.7-39-73 29 80" />
    <path fill="#d1a26a" d="M848 645.5l26 8.7-3.5.8-63.4-2" />
    <path fill="#091f32" d="M77.7 165.8l82.8-4.8L21 156.3l-14.8.3" />
    <path fill="#5cd9d4" d="M804.4 559.2l48 2.6-3-11-36.8 10.5" />
    <path fill="#586872" d="M74.4 515.5l-26.7 1 7.2 7.7 38-4.7" />
    <path fill="#fff" d="M1039.3 555l-118.7-2.5 40.5 26.8h45" />
    <path fill="#64757d" d="M112.3 217.4l-12.8-5.6-68.4 7.6 12-.4" />
    <path fill="#fff" d="M787.4 799l94.4-25-14.2-25.8-60 1.8" />
    <path fill="#2ad2e4" d="M857 77.8l-187.6-.3-69 .6 26.2 4" />
    <path fill="#b3b9bc" d="M319.5 144l-9 12.6L277 160l6.6-12.4" />
    <path fill="#d3d6d6" d="M641 613.8l-3.3 15.5L608 632l-.3-26.4" />
    <path fill="#adee9c" d="M620.2 172.8l15.8-7.4 22.4 8-18.8 7.2" />
    <path fill="#fff" d="M968.2 364l54-261.2 25 279-174-12.4" />
    <path fill="#90b082" d="M795 747l-48 5.6 26.6 6.3 22-8" />
    <path fill="#50cc33" d="M949.6 374.8l40.4 36-3.2 30.2-41-50.4" />
    <path fill="#718088" d="M90.5 277.5L34 278l4-2 39 9.8" />
    <path fill="#d0d3bf" d="M330.3 467l.4 15.4 37.2-7.8 17-7.8" />
    <path fill="#fff" d="M721.4 579.5l-318.4-57 87-2.8-219.5 40.7" />
    <path fill="#ae7145" d="M277 7.4l3.6 16.3 4.6-1.3L288 19" />
    <path fill="#fffffa" d="M988.5 544.3l-43-2.3-12.5-10.8 122 8" />
    <path fill="#ff68bb" d="M943.3 397.4l-16 19.4-25-11.3 38.5-32.3" />
    <path fill="#fffbff" d="M313.4 477.3l-39-6L295 410l-32.7 34" />
    <path fill="#fffce9" d="M1018.5 626L860 632.8l-107.4-16.4 173 3.2" />
    <path fill="#b7daf5" d="M898 702l-38.5-29 94 2-102 22.4" />
    <path fill="#858582" d="M649.4 395l-33.3 2-78-.3-20-.6" />
    <path fill="#fff" d="M806.6 197.7l56.6 229-19.5-225 156.5-90.4" />
    <path fill="#77b8a2" d="M852 596.5l3.6 8.3 1 3.5-43.2-11" />
    <path fill="#081d31" d="M-31 457.2l169 12 15-12-113.8 2" />
    <path fill="#f4e06d" d="M482.2 466.3l-54.5 29-14.3 10.8 53.2-27" />
    <path fill="#fff" d="M787.2 759.3L516.7 761l-325.7.4L665 799m121.6-430.2l90.8 87.7 48.2-86.6-175.6 5" />
    <path fill="#070e2c" d="M101 43.4l55.8.5H194l-7.3 6" />
    <path fill="#5e6f79" d="M55.2 451.7l6.4 7.2h60l5.3-8" />
    <path fill="#ffffce" d="M350.2 692l.4-15-54.7 1.7 38 24.3" />
    <path fill="#b3afb4" d="M350.4 392.6l.7.7 72 3.2-106 .4" />
    <path fill="#63d5a8" d="M893.4 618.4l36.3-1.7 7-2-71 2.5" />
    <path fill="#697982" d="M94.7 261.6l-81.8 2 38 2.7 55 .6" />
    <path fill="#00a596" d="M79.4 37.8L64 11l3.8 42-4.5-25" />
    <path fill="#9cf0f6" d="M797.3 704l9-9.8 29-2.2-4.5 7.2" />
    <path fill="#fff" d="M625.4 261l3-117.8-62-2-5.2 36.6" />
    <path fill="#a7c79e" d="M936 471.6l-44 7.7-.2-8.5 26.6 8.5" />
    <path fill="#faf7f8" d="M428 481.7l26.4 21.8 162 20.8L447 492" />
    <path fill="#131414" d="M422.4 140l-39 1.3.5-2.6 60-1" />
    <path fill="#00b4a1" d="M692.8 5.5l47.4 33.8-266.6 3.5L451 2.6" />
    <path fill="#fcf240" d="M620.8 520.6l-11.2 1.3 3.8-13-2 1" />
    <path fill="#97aac3" d="M358.6 592.4l4.3 2.6 29-4.8-9 12.8" />
    <path fill="#8d999e" d="M24.4 480.6L24 487l4.3 9.5L17 500" />
    <path fill="#fefafc" d="M315.5 487l31.6 5.7 25 191.6L299 368" />
    <path fill="#3ed3e7" d="M818 432.4l-.7-25.4-53 35.3 21.5 17.2" />
    <path fill="#fffefc" d="M309 216.5l-7.8-56.8-2.2-37-4.8 37.2" />
    <path fill="#22cfe2" d="M950.2 76.7l-78 1.2h-77.7l175.2 1" />
    <path fill="#39d5e5" d="M421.2 79.4l187 1.5-29.5-6-49 1" />
    <path fill="#fffcfd" d="M687.8 680.2l-119.5-2.7-64.7-38.4 242.4-1" />
    <path fill="#c9a296" d="M802 708.2l44.4 7-4.7-9.3 13.5-19" />
    <path fill="#c6dae1" d="M951.7 513.8L920 619.3l4.3-85.5 108-12" />
    <path fill="#f5f7f5" d="M304.5 43l142.6-.4 17 26.7-192 7" />
    <path fill="#a4c0c0" d="M520.3 594.8l7 7 17.5-9 36.5-1" />
    <path fill="#92d8dc" d="M734 692.8l-29-9.7-52.3 10h33.6" />
    <path fill="#94b88b" d="M960.8 701.7l7.2-2 49.4 2.7-50.6-17.3" />
    <path fill="#ecb9ef" d="M794 681l21-24.7 51 18.2 2.5-21" />
    <path fill="#fff" d="M202.8 383.6l77.6-29.2-30-31.2-54.7 229" />
    <path fill="#929fa3" d="M44.2 476.6l-12.7-33.8 3.4 35 6-7.6" />
    <path fill="#d0bdad" d="M954.8 627.5l65.5 1.8-68 6.7-6.5-.4" />
    <path fill="#fffffe" d="M813.6 441.3l-35.2 32 148.5-5.6-76-138" />
    <path fill="#fff" d="M296.3 300.7l-54.5 13-2.5-64.2L276 132.7" />
    <path fill="#160c21" d="M4 81l-.7 11.3 55-10.4L43 81" />
    <path fill="#4d616d" d="M129 358l-43-3 34 11.3 24-4.8" />
    <path fill="#fff23f" d="M311.7 525.8l-.2-17.5-20-5.7L315 526" />
    <path fill="#dddc84" d="M542.2 469.6l8.4-1.6-32.8 40.5L519 492" />
    <path fill="#011b2f" d="M10.2 269.5l49.5 6.8L170 274l-96.8-4.3" />
    <path fill="#0b5a77" d="M77 743.6l37-7.3L76.4 759l5.2-17.5" />
    <path fill="#fffdfa" d="M878.7 547.7L795 541l-24-1 79-11.2" />
    <path fill="#fff060" d="M404.6 510l26.6-9.7-5.5-16.8-15.7 40" />
    <path fill="#0a2035" d="M6.8 310l21-194.2 135 5-156-21.6" />
    <path fill="#50cfad" d="M715.6 582.2l-10 5.7-4.6 2-1.4-8" />
    <path fill="#fff" d="M265.3 792L446 767.3l-158.7-8-.7-150.5" />
    <path fill="#aeabab" d="M272.6 478.3l2.8-27.3-33.4 4.7 27.7 7.7" />
    <path fill="#00182c" d="M29 367l43.8 4 28-3-32.8-6" />
    <path fill="#0b2338" d="M165.2 584.2L88.8 671l113 121-17.8-96" />
    <path fill="#5b9ed8" d="M257.5 137.6l24.5 2.8-61 .8 7-3.5" />
    <path fill="#f2f9f7" d="M310.5 72.3l-114 3.7 1.7-49 1.8 39.8" />
    <path fill="#ccd5d6" d="M531.2 732.3l32.3 7.3L560 697l-26.5 55.3" />
    <path fill="#525353" d="M398.8 218.2l-9.6-4.2-8.6 14 11-2" />
    <path fill="#6ed551" d="M565.4 170l-21.7-11.7 4 11 4.2 6.6" />
    <path fill="#fff" d="M600 405.6l-182.5 91.7 42.7-35.7-202-11.3" />
    <path fill="#f2e93b" d="M890 629.5l7 5.4 25 5-.4-8" />
    <path fill="#c1cacc" d="M28.7 358.3L28 360l15.8 7-6.5-10" />
    <path fill="#faf2ef" d="M335.6 467.7l-34 9.6-10 38-17-14" />
    <path fill="#fffeff" d="M497.4 355l-86.8 102L421 182l47 195.3" />
    <path fill="#0a2337" d="M2.3 303.2l48-3.6 154.3 1.7-102.4 6.6" />
    <path fill="#fffdfd" d="M208.8 445l36.5-19.7 26 160 7-50.2" />
    <path fill="#5d9bd2" d="M727.3 195.5l38 26.4v11l-28.8-48" />
    <path fill="#ffd1bf" d="M950.3 727.6l-86 10.3 31 21-24.5-39" />
    <path fill="#fff" d="M666.5 508l93.3-144.6-33.7 14.3L682 234m280 253.4l57.6 29.5-263-1 82-47M249.3 156l-51.6 85.5L264 169l89.2-5.3" />
    <path fill="#2a2a2a" d="M389.4 220.3l30.8-5-2.8 14.5-5.7-15" />
    <path fill="#84beb2" d="M63.2 3l-67-3 272-.2L13.4-1.7" />
    <path fill="#4a95d9" d="M893.8 703.8l9.5 6.4-8-23.8-3.8 17.8" />
    <path fill="#91b1d1" d="M66.7 71.7l-4.3-.3V58.8L48 67.5" />
    <path fill="#fff" d="M1055 520.8l-125.3-266-53.8 55.5 104 79" />
    <path fill="#ffe543" d="M352.4 485.2l-7.5-6.7-1-4.5 8-1" />
    <path fill="#8e8e8e" d="M279.8 556l-5.6 14.6V546l17 8.5" />
    <path fill="#3dd4e7" d="M819 425l-6.7-31-39-23 31.6 80.4" />
    <path fill="#fff" d="M215.7 81.8l86-.7-98.7 25-4.4 33" />
    <path fill="#909ba8" d="M283 56.8l-12.2 8.4-15.2 1-4.3-9" />
    <path d="M449.5 137.4l-34.2.7-15 3 47.3 1" />
    <path fill="#5292d4" d="M755.8 223l42.2 4.5-7.7 13.6h-19.8" />
    <path fill="#fffcb9" d="M884.3 673l58-47.4 1.2 44-9.5 3.3" />
    <path fill="#fffefe" d="M865.7 718.4l14 21-199.5-49 55.2 37" />
    <path fill="#f9f8f6" d="M703.6 45l-198-3 55.6 34.7 65.7-3.4" />
    <path fill="#fefdfc" d="M327.4 189.4L540 174l-225.3 59.5 4.5-106.3" />
    <path fill="#ffd3bd" d="M333 165.2l2.7 15-37.7-1.7-42-6" />
    <path fill="#5e6d77" d="M102 155l25.4-1.8-18-4-69.5 6.2" />
    <path fill="#00af9b" d="M335.7 19.7l-98-17L124 4l6 1.8" />
    <path fill="#fcfcfc" d="M284.2 562.4l-8.8 5 9 8.2L279 763" />
    <path fill="#8c8c8c" d="M434.6 138.7l61 9.4-93.6-14 45-1" />
    <path fill="#fff" d="M746 203.8l-51 26.4L587.6 351l193-59M203.4 531.4l1.2 21.2 145.3-1 14-20" />
    <path fill="#fff" d="M700.4 205.8L660 417l-4.6-288.3L819 118" />
    <path fill="#f4a8a6" d="M813 611.7l-10.8-2.8 69.3-1-73.5-9" />
    <path fill="#f8f480" d="M312 482.8l-32 17.5-7-23.2 26.6 27" />
    <path fill="#cfc8ca" d="M493.5 625l-37 3.6 47.5-21.4-48.2 8.3" />
    <path fill="#cccbcb" d="M396.3 136.8l36.5-.6-33.3-2.6-49 41.5" />
    <path fill="#fefdfe" d="M310.4 139.6l-94 2.6.5-30 9 51" />
    <path fill="#091f36" d="M142.4 313.7l1.6 41.5-40.6-6-28.8-31.7" />
    <path fill="#84c9b6" d="M595.4 592.4l27.3 9-33 4 4.4-4.3" />
    <path fill="#ceabe2" d="M301 384l5-27-21.3-3.8-1-19" />
    <path fill="#f66a2a" d="M890.3 733l36 1.8-37.7 8 14.7 16.8" />
    <path fill="#f3d1ce" d="M484.5 396l131.7-7.8 41 19L655 339" />
    <path fill="#fff" d="M344.6 740.4l20.4 31.8-3.4-121-6.2 10.7" />
    <path fill="#949495" d="M308.2 457.2l-3.7 4.6-51.4-2 47-5.4" />
    <path fill="#0e1f32" d="M-15 140.2l118.5 10.4 68.6-12.3-115 4.5" />
    <path fill="#dea597" d="M479.4 336.4l56.7 41.3-62-36.2 9 1.3" />
    <path fill="#fff" d="M1020.8 550.5l-11 248.5-67.2-55 94.2-4.6" />
    <path fill="#faec99" d="M386 481.4l-9 33 21.7 18.4-20-34.6" />
    <path fill="#c7e8d5" d="M629.4 636.8l105-.2-16.6-22.6 26.8 11" />
    <path fill="#cba5e0" d="M551.5 229.2l-8.2-14.6 34.2 1.3 21.4-1" />
    <path fill="#c49f99" d="M460.3 679.2l1.6 17.5 7-7-33-3" />
    <path fill="#c8c973" d="M848.8 591l.7 1.2-10.8 14V589" />
    <path fill="#de9685" d="M582 346.8l26 4 31.8-13.2-55.6 15.3" />
    <path fill="#43c722" d="M543.6 258.4l13-11.3 2 3 4.3 10" />
    <path fill="#0d2337" d="M19 382.3l-5.8-111.5-7.5 99.6 60 18" />
    <path fill="#faf8f6" d="M333.5 54l-58.7-11.2-56.3.7 5.7 12" />
    <path fill="#5b6b75" d="M88.7 500.5l-17.3-4.7-10.2-2.8 55 1" />
    <path fill="#00b19f" d="M276 26.8l93.7 13.4-123 1.5L287-15" />
    <path fill="#decdcc" d="M525.5 403.3l-50.7-9 48.6-12-25.5 25.4" />
    <path fill="#f3dadf" d="M490 470.6l1 54-114.3 5.3 123.6 1" />
    <path fill="#cbf0e0" d="M910.3 566h23.4l-44.2 10 63.2 11.3" />
  </g>
</svg>