<svg version="1.1" viewBox="0 0 1024 768" width="1024" height="768" xmlns="http://www.w3.org/2000/svg">
  <path fill="#bccbcc" d="M0 0h1024v768H0z" />
  <g fill-opacity=".5">
    <g class="SVG--0">
      <path d="M-3.8 5l201-22.4-.5 816.4L-31 766.4" />
      <path fill="#000020" d="M.6 799h195.6l-.2-657.7L8.4 30.3" />
      <path fill="#00ad86" d="M-31 3.8L182.3 41l872.7 1.5-37-55.6" />
      <path fill="#fff" d="M1053 796.3L196.2 799l3-752.3 854.5-6" />
      <path fill="#00b4ad" d="M1055 32L13.8-31-31 100.3l232.5-56.6" />
      <path fill="#33c100" d="M957.6 470.5l42.3-46-35-54-69 63.5" />
      <path fill="#fff" d="M187.7 229l742.8 183.5 18 25.6L1055 32" />
      <path fill="#00ae98" d="M1055-11.4L283 11.3 589.5 39l448.5 5" />
      <path fill="#10ced9" d="M791.2 368.7L724.4 417l41 50 63.6-33" />
      <path fill="#fffff9" d="M847.5 799L673.3 223.7 199.5 74.5 195.8 780" />
      <path fill="#001732" d="M86 87l109 413.4 1.3-388.8-4-38.2" />
      <path fill="#080201" d="M477.3 138l-57.2 3-43-.4 31-14.7" />
      <path fill="#040205" d="M426.2 219.7l-14-6.5-38.2 4 28.8 12.7" />
      <path fill="#3f83e2" d="M152.2 84.2l110.2-30.6-252-5.4-19.8 28.4" />
      <path fill="#c7cbb8" d="M731.4 759l172.2-221 20 13.4 22.6 206.3" />
      <path fill="#4292d1" d="M728.6 185l74.7 45.8-30.5 14.5-57.2-60.3" />
      <path fill="#ff8100" d="M769 369.3l-24 18.5 15 19.5 15.7 2.8" />
      <path fill="#ef2c8a" d="M940.3 409.3l-39.8 8 24.7-39 34.5-4.2" />
      <path fill="#908d8f" d="M218.2 546.3l79.4 14.3L290 571l-76 16" />
      <path fill="#fff" d="M833 390.7l201 126.5-289-1.8 62.7-68.2" />
      <path fill="#fffffa" d="M940.7 793l109.8-22.2-6.3-476-95 224.8" />
      <path fill="#fdffff" d="M363.8 384.6l625.4-337-308.6-6-199 3.5" />
      <path fill="#ede7aa" d="M526 529.4l14.5-50.6-263-12-6.7 68" />
      <path fill="#f1b6b0" d="M645 342.6l17 52-170 3.4-29.6-46.8" />
      <path fill="#001b33" d="M6.7 799L197 766l-.4-347.8L-31 590.5" />
      <path fill="#fff" d="M989.2 404.5l-103-120.7 168.8-128-33.3 470.4" />
      <path fill="#ff7030" d="M932.4 764.2l-50.6-6.3 14.5-29 27.4 1" />
      <path fill="#47c7d3" d="M896 619.7l-4.4-77 36.6 1.7-8.3 72" />
      <path fill="#08ceb3" d="M347.3 41.3L-11 40.6l-20-20L117.8-31" />
      <path fill="#feffff" d="M438.7 42.8L280 42.3l2.6 109.5L572 99.5" />
      <path fill="#33cf15" d="M992.5 402.4l-76 55.3 58.4 1.5-32-94.3" />
      <path fill="#dece9c" d="M214 676.8l572 14.4-471 4.6-108.7-2.8" />
      <path fill="#00b3a0" d="M1045.2 2.8l.6 36.8-251.5 3L694.5 5" />
      <path fill="#819da4" d="M29.8 470l9 9 7.4-46-10.4-111.6" />
      <path fill="#1d8119" d="M654.4 456.3l-70.5 5.3 81 1.5-2-5" />
      <path fill="#84a0a6" d="M33.4 117.7L32 236.3 48.3 153l7 8" />
      <path fill="#fff" d="M804.2 760.3l-.8-273-204 285.2 243.2-58" />
      <path fill="#cad87a" d="M894.5 644l127 59-83-3-21.8-86.5" />
      <path fill="#e8bb2a" d="M6 423l-.7-75.7L-6 208.8 3.3 548" />
      <path fill="#9fe9dd" d="M-21.6 28L135 10.2l-41 6.4 17 9.5" />
      <path fill="#4995db" d="M280 128.2l-60.8 3.7-1.4 4 39 8" />
      <path fill="#fff" d="M755.3 235.4L716.8 553 620 273l152.2-83" />
      <path fill="#000b2e" d="M33.8 49.7l-64.8-6 248.2-4-55 10" />
      <path fill="#fff" d="M791.5 435.7l-35.6-9 12-25.7 20 8.6" />
      <path fill="#94b9db" d="M313 589.2l244.8 10.6-279 7.6 13.6-15.5" />
      <path fill="#18d2e5" d="M394.8 82.3l149.7-4.8L370 75.8l-92.2 2" />
      <path fill="#43dae9" d="M802 81l-51.4-1.7 276.6-6.2-16 9" />
      <path fill="#b6e3e4" d="M845 220l83.6-50.5 75.4 22.2-60 63.4" />
      <path fill="#00b09a" d="M655 38l-255.8 4.8-358-5 406-68.8" />
      <path fill="#3ccb1c" d="M982.6 452.4l-57.2 2-15.6-11-8-35" />
      <path fill="#fff" d="M906.6 266.3l-1 179.5L860 561l-90.7-314" />
      <path fill="#23c200" d="M563 162l-.6 10-14.7 3.8 2.7-15.4" />
      <path fill="#fff" d="M997.7 47.6l57.3 471-197-7L998 439" />
      <path fill="#f40" d="M4.6 147.2L2.4 73.8-31 325.6 6.7 211.4" />
      <path fill="#122f42" d="M106 131L66 375.8 216.3 46.6l11 11.5" />
      <path fill="#ffa" d="M878.6 613.7l-11.8 60 71.8-3.4 15.2-45.2" />
      <path fill="#0dd0ee" d="M747 449.6l36 6.7-45.3-71.3-6.2 42" />
      <path fill="#dfc4e9" d="M414 338l-190.7 23.2 26.3 41.3 163 5.6" />
      <path fill="#19d2ee" d="M784.4 401.8l7.6-24.4 29.4 27.7-23 56" />
      <path fill="#b6d1ad" d="M494 148.8l-47.6-3-15.7 29.3 67 9" />
      <path fill="#6bd550" d="M536.4 254l28.2-10 .3 18.8 10 4.2" />
      <path fill="#fffeff" d="M946.6 440L839.4 286 747 371.8l221.7 39.8" />
      <path fill="#97cbff" d="M893.7 674.6L874.2 718l64.6-8.6 9-35.3" />
      <path fill="#fff" d="M389.4 84.4L221 280.6l164.3 83.8-.4-287" />
      <path fill="#021b32" d="M197.4 108.6l-6 76-133-105.4 121 2.4" />
      <path fill="#b8cfd0" d="M45.2 539.7l-9.7-2.7-3.3-21 9.7-8.2" />
      <path fill="#fff" d="M249.4 407.2l248.3 180-219-.5 142.4-178" />
      <path fill="#ccc379" d="M802 741.4l-3.5 19.5-54.7-1-14.2-32" />
      <path fill="#fff" d="M325.8 583.6l292 4.6 268-51.8-653-7" />
      <path fill="#fbffff" d="M203.4 34.7l-7.2 25.7 3 181 14.4-168.6" />
      <path fill="#a1b9b4" d="M806.2 609.4l71.8-1-79-59.2 63.4-8" />
      <path fill="#062238" d="M195 292L93 327l100.3 379.7.5-117.3" />
      <path fill="#928f91" d="M302.5 460.2l-59.8 3 36-13 31.2 2" />
      <path fill="#e2e049" d="M292 488l17.7 42.5 21.7.6-6-27" />
      <path fill="#302e2d" d="M377 131.7l10.3-2.3 64.6.2-8 16.4" />
      <path fill="#93d0bb" d="M257 215.2l-42 3.8 40 49.4-37-11.5" />
      <path fill="#6dd854" d="M407.4 258.5L376 260l23.3-21.7 2.4 19.6" />
      <path fill="#57ddea" d="M717.3 76L513 85l-62.6-10.4 116.4 1.2" />
      <path fill="#00b4a0" d="M599.3 1L421.8 40l313.7 2.7 319.5-33" />
      <path fill="#fffffd" d="M942 641.3L793.5 682l164.8 6.3 96.7-52.8" />
      <path fill="#c5d252" d="M522 490.5l20.5 42.3-28.8-7L547 461" />
      <path fill="#2679c8" d="M732.8 214.8l-10.4-14.2 8-16 18.4 4.2" />
      <path fill="#001d34" d="M5 465.2L19.7 799l14-356.2-28-321.6" />
      <path fill="#98b3b7" d="M42 313l-.3-43.8-1.7-13.8-10.5 58.3" />
      <path fill="#38daea" d="M720.3 84l65.6-1-222-5 282-1.4" />
      <path fill="#a8bf6d" d="M414.6 487l6.6-22.2 18.3 25-21.7 40.2" />
      <path fill="#55d634" d="M377.5 175.4l29-3.8-19.4-15v11.7" />
      <path fill="#082238" d="M4.6 78.2l2.4 294 25.6-238 94-44.6" />
      <path fill="#fff" d="M413.4 391l-42.8 67 129.8 39 196-84" />
      <path fill="#d6ca11" d="M904.2 629l-17 23.5 32.4-4.6 6-4" />
      <path fill="#448ccf" d="M810 219.3l-20 22-34-6.2 1.3-13" />
      <path fill="#35c815" d="M973 455.8l16.4-33-5.2-20.6-27.4-6" />
      <path fill="#fff" d="M874.6 81l180.4.8-10.6 94.6-228-2.2" />
      <path fill="#b070d0" d="M590.2 229.3l-47.8-4.7 9-8.6 39.5.7" />
      <path fill="#2d83c6" d="M199 74.4l25.7 6.4L-31 74.3 180 48" />
      <path fill="#d5b2a6" d="M342.6 176.6l-70.5.8 64-29.4-70-.6" />
      <path fill="#ff8f68" d="M221 172.8l31.2 4.2-25-24-3 7" />
      <path fill="#aaa7a9" d="M197 110.8l10.3-2.3 53-9.3 30.7 12.4" />
      <path fill="#204051" d="M102 103.7l-60.2 42 13.6 474.7 75.2-487" />
      <path fill="#fff" d="M462.6 82.7l-44.3 320 1.7-256.2 407.2-65.8" />
      <path fill="#b2a2b4" d="M874.3 647.6l-63.8-17.4 51.7 87.2-60-7.4" />
      <path fill="#d2c5c1" d="M542 749l-23-73.4L757.4 688l-193 8.2" />
      <path fill="#72add0" d="M743.7 319.2l75-1-41.7 9-73-8" />
      <path fill="#d8bce2" d="M676 144.7l-147.3-1.2 62-30.4 44.7 48" />
      <path fill="#8edeca" d="M588.6 590l50.6-2.7 25 21.4-66-5" />
      <path fill="#999798" d="M327.7 317.7l-62.5-7.8-26.8 10h-22" />
      <path fill="#b6d0ae" d="M492 230.7l2 32-23.5 4.7-6.2-27.2" />
      <path fill="#fff" d="M850.5 747.8l195.8 20.6-304.8 5.5 67.2-22" />
      <path fill="#8e8c8b" d="M921.3 367l-51.3-9 66.3 2-6.4 6.4" />
      <path fill="#8e8d8e" d="M210.8 554l75 25.2 4-11.6-2.6-14.4" />
      <path fill="#fff" d="M198.6 332.6l.4 163.8 71.8-61.6-74.2-290" />
      <path fill="#aada00" d="M5 270.4l-1.5 166-34.5-23.6L4 216" />
      <path fill="#fff" d="M718.4 440.7l-73-147.6 28.2 225 226-3" />
      <path fill="#98bc8e" d="M992.5 682l-61 18 66.4 3 18-6.6" />
      <path fill="#a2c19b" d="M626.6 263.3l35.6-34.4-33.4 6 32 29" />
      <path fill="#d2ddeb" d="M15.4 68l39 .2.2-5L21 60" />
      <path fill="#ae7dff" d="M3 486.7l4.4 62.7-38.4-75 38.4 7" />
      <path fill="#b9d4b2" d="M333 266l.5-38-22 8.3-12.7 26.4" />
      <path fill="#36c917" d="M948 405l3.8-31.2 27.3 16 7 3.8" />
      <path fill="#ffa142" d="M734.2 394.2l43-23.6-4 43.2-34.6-23.8" />
      <path fill="#fffdfd" d="M364.4 585l-3.8 135.6-110-163.3 23.2 155" />
      <path fill="#8b8988" d="M715.3 359.7l5.4 4 47.5 3-22.5-9.2" />
      <path fill="#d5d3d5" d="M960.5 554l57.2-1.6-2-29.8-375-5.7" />
      <path fill="#9f9c9e" d="M536.5 320.3l-61.8.4 39.4-12.3 23 4.2" />
      <path fill="#0dcc86" d="M926 603.5l-4.2-16.5-27.8-3.7-1 17.2" />
      <path fill="#fdc2ac" d="M885.5 719.5l169.5 19.7-108.3 1.3-67.4-11" />
      <path fill="#f0b1a7" d="M447 696.3L638 685l-174-7.5-19.4-.4" />
      <path fill="#36d2eb" d="M219 82.2l-56.8-7.6 124 3 6.7.8" />
      <path fill="#fff" d="M535.3 324.5L864 158.3l-339.5 207-83.4-49.6" />
      <path fill="#5a906e" d="M305.8-9.4L181-31l147.2 54.6-62.6 6.7" />
      <path fill="#fff" d="M246.4 82.5L435 81l181.4 1-285 59.4" />
      <path fill="#fefff6" d="M240.7 78.7l-29.4-7.2 74.3-30-69.5 1.2" />
      <path fill="#414041" d="M391.3 225.5l-4 2.3-1-19 39 20.3" />
      <path fill="#91a2a8" d="M44.3 346.5l-17 69 16.4-24.3-15.4-25.5" />
      <path fill="#5298da" d="M927.6 703l-18 4-23.6-7.7 24.5-18.7" />
      <path fill="#ff611f" d="M928.7 750.2l-26.6 2.3-19-14.5 38-4" />
      <path fill="#fff" d="M863.7 303.2l83.7 73.3 107.6 10.7-6.7-226.8" />
      <path fill="#838c99" d="M239.3 57l-8 7 58.5 2.2-7.2-7.8" />
      <path fill="#a5a29c" d="M1010.5 471.8l-17 5.8-99.3-1.7-2.8-2" />
      <path fill="#cec3da" d="M233.6 644.3l-18-52 54.5.6 8 9" />
      <path fill="#fff" d="M815.8 471.6l2-91.7 74.7 14 31 80" />
      <path fill="#fcffff" d="M904 659.2l-242.3-132-13.3 175L860 613.8" />
      <path fill="#cabfa1" d="M943.8 590l-27-7.6 93.2-1.6 1.4 9" />
      <path fill="#fff" d="M858.8 711l24.2 22.7-156-8.5 107-5" />
      <path fill="#37d7eb" d="M783.8 462.7l20.3-10.3 3-33.4-68 31" />
      <path fill="#c8a687" d="M977.8 628.5l-36.5 8.5 79.8-.6-61-12" />
      <path fill="#a0d4ec" d="M803 551l140 43.5-.6-67.2 2 25" />
      <path fill="#b7dbab" d="M660.4 175.2L620 145.6l38.4 3.4-40.4 33.7" />
      <path fill="#ff66ce" d="M947.4 413.4l-1.4-31.8-27.8 2.7-16.4 28.2" />
      <path fill="#264152" d="M76 541.6L33.3 410.3l76.6-22 37 50.5" />
      <path fill="#fff" d="M784.7 315.3l153.8-231-153 163.5-328.6 42" />
      <path fill="#a9b5b7" d="M40.6 106.6l.7 53.8-7.2-7.2-1-19" />
      <path fill="#041d32" d="M-31 222.3l222.8-2.6L117 280l-32-39.6" />
      <path fill="#fff" d="M216 149.8L448 258l-243-53 105-75" />
      <path fill="#647583" d="M.2 497.8L-31 525l52.6-36.7 95.6 10" />
      <path fill="#fffcff" d="M267.6 544.2l-6.2 91.7L283 521l-89.7 37" />
      <path fill="#aee3e0" d="M437 585.2l31.6 46.2 25-25.2 150.3-2.7" />
      <path fill="#0a2238" d="M-31 541h67.2l151-4.4L27.4 799" />
      <path fill="#b2e7de" d="M106 19.3l34.3 7.3h-41l-70.7-2.3" />
      <path fill="#011c31" d="M115.5 320L10.8 352.2l111 4-141-43.8" />
      <path fill="#fff" d="M397 464l166-1-94-89.4 4-193.7" />
      <path fill="#c4c9cb" d="M303 698.8l4.8 57.8 27.2-16-3.2-44" />
      <path fill="#fff" d="M524.6 799l-288.4-32.4L492 729.3l20.6-76.2" />
      <path fill="#607780" d="M150.6 275.7L62 282.4l32.4-.3 69.4 3" />
      <path fill="#ff521e" d="M3.2 223l1.5-108 .6-36.4-36.3 48.6" />
      <path fill="#fff" d="M669.4 81l-452 6.6 379 42.6 458.6-42" />
      <path fill="#86dec7" d="M708 582.2l-16-4-25 10.4 59.4 1.4" />
      <path fill="#c1e541" d="M637.6 463.6l-10-9.2-30 3 13.4 7.8" />
      <path fill="#c7ced2" d="M411.4 626l5.8 30-37.3 10.5 3-81.6" />
      <path fill="#fff" d="M200 432.5l16.6 145 26.6-2.7-46 31.2" />
      <path fill="#98f2a0" d="M273.4 679.7l-58 1.2-8 10 69 4" />
      <path fill="#d5f2ea" d="M788.5 135.5l33.7 89.7-54.2-4.7-25.3-23.6" />
      <path fill="#fff" d="M596 735.7l332 52.7-355 9 13.6-283" />
      <path fill="#70838b" d="M155.2 359.7L80.5 357l-48.7 3 9.2 4.4" />
      <path fill="#888" d="M249.5 547.4l3.4 31-44-4 12-6.8" />
      <path fill="#b2bfb7" d="M115.6-4l38 1.7-62 2L232 0" />
      <path fill="#76d7e5" d="M872 644.3l-39-12.7-37.3 15.2 52-1.6" />
      <path fill="#dce47e" d="M461.2 521l-41.4-27.8-33.3 41.8-9-15.8" />
      <path fill="#89e65f" d="M224 261.6l-2-23.8 16 16.2 8.7 1.6" />
      <path fill="#fbebcd" d="M675 531l-165.4-60 162 3.4L542.4 531" />
      <path fill="#fff" d="M220 119l-.2 130.2L377.5 212l-172.8 19.4M497 529l39-67-152 116.3 135.6 23" />
      <path fill="#b3b3ab" d="M715.6 472.7l137.7 2-63 4.5-51-1.3" />
      <path fill="#6da3eb" d="M249.2 229l-18.6-1.8-13.8-11.6 30.7-3" />
      <path fill="#66b8d9" d="M714.5 683l6.3 6.6-24.8 1-10.2-7.7" />
      <path fill="#90dcd1" d="M185 30.4l1-61.4h27.6l-40 52.5" />
      <path fill="#a4dca8" d="M737 638.5l-38.8-12-23 8.2 34.3 1.4" />
      <path fill="#fff" d="M627.5 455.8l92.5-44 51-46.6-90 1.5" />
      <path fill="#ffad00" d="M5 460.8L2 333l-33 177.3 35.4-36" />
      <path fill="#00162d" d="M44.4 493.4l-21.2-19.6 81 1.4 44.2 10.6" />
      <path fill="#7d8d94" d="M33 215.7l4.7 4.7 6-26.5-2.2-82" />
      <path fill="#00152a" d="M113 182l4.6-8-93.5-2 12 6" />
      <path fill="#fafffd" d="M826 582l131.5 3L833 569l-221 44" />
      <path fill="#fff" d="M773.4 401l-14.7 15.6 26 17 2-17.5" />
      <path fill="#cacecf" d="M605.4 706l34.5-12.8-3 46.5h-30" />
      <path fill="#00b29f" d="M897.2 2.5L1055 5.7v34.7L714 40" />
      <path fill="#ff490f" d="M239.2 163.5l-.7 9-6.5 1-11.8-5.5" />
      <path fill="#072338" d="M6 144.6l153.7 5.6L31 139.4l1.8 165.8" />
      <path fill="#fdabb8" d="M886.8 663.7l-83.5 1.6-5-16.4 61.8-2" />
      <path fill="#5d6b72" d="M8.7 102L-31 136.5l49.8-44L78 98" />
      <path fill="#6a6c15" d="M899 642l6 2.3 15.2-.5-14.4-9" />
      <path fill="#36daea" d="M288 75.6L232.2 77l-11.5 3.4L354 81" />
      <path fill="#acc0c2" d="M30.7 263.3l4 7.2 11-3.8-13-8.7" />
      <path fill="#2e8592" d="M660.6 464.7l-24-1.4-18-1.2 49.5-8" />
      <path fill="#b5aa9d" d="M819 608.7l24 9.7 11.7-35.3-54 23" />
      <path fill="#fff" d="M300 360.2l207.2-81L220.6 258l159.8 98.5" />
      <path fill="#cacfcf" d="M383.2 700l-8 42 31.5-1.3 4-39" />
      <path fill="#c797e0" d="M619.4 128.7l2.6 12.6-83-1 8.6-13" />
      <path fill="#fff" d="M816 687l64-4.5-126.4-32.2-104 148.7" />
      <path fill="#b4f0d8" d="M942.3 625.6l-87-12.6 63.3-10.5 25.3-48" />
      <path fill="#fff" d="M560.7 340.4L534 373.7l-52.8-39 464.3-14" />
      <path fill="#ffa683" d="M931 760.3l-60-1.3 9-38 66.6 40.4" />
      <path fill="#0a2638" d="M71.8 308l-41.3-23.2 136.7 1-169.5 14" />
      <path fill="#4c606a" d="M104.4 533L53 527l-13 12 43-.2" />
      <path fill="#fff" d="M998.8 465.8l-264 2.4 161.7-32 37.7 24.4" />
      <path fill="#00b39f" d="M528.5 43.3L298.2 15.8l-249 1L341.6 0" />
      <path fill="#dbe" d="M212.3 525l18-4.2 4.6-47.4-23 3.6" />
      <path fill="#babfcd" d="M298 593l32-.5 5.3 45-26.5.2" />
      <path fill="#a8c2ba" d="M310 2.6l75.6-3.4h133.6L163-3.8" />
      <path fill="#111112" d="M419 221.8l-10.4 12.5 9.6-17.4-32.3-2" />
      <path fill="#10484b" d="M157.4 718.8L92.2 799l-33-89.6L170 794.8" />
      <path fill="#414141" d="M456.2 137l-63.2 6.2-11.8-15 30 9.4" />
      <path fill="#4e5f6b" d="M123.7 156l-91-20.7 94-1-93 23.2" />
      <path fill="#14db2b" d="M3 223l-32.7 45.6-1.3 79.7 35.6-33" />
      <path fill="#c5d267" d="M545.2 531.6L527 513.8l-42.3 17.4 47.4-1.5" />
      <path fill="#fff" d="M962 429l-23-1.7.2-18.4 17.4-2" />
      <path fill="#576872" d="M51 163.3l5 10 28.4-1 71.3-2.8" />
      <path fill="#edbbaf" d="M663.3 362.6l-114.4-14 62-3 22-13.2" />
      <path fill="#a295a3" d="M490.4 156.5l-52.5 1 10-10.3 49 2" />
      <path fill="#e5b5aa" d="M485 340.6l15.7 10.3 81.3 63-106.8-73" />
      <path fill="#dee173" d="M303.2 508l52.6-31.2-27-4.3L330 497" />
      <path fill="#988f99" d="M466.4 237.7l25.2 5 4-10.4-25 2" />
      <path fill="#cbd0d1" d="M256 734.2l3.3-34-34.6-1 7.5 47.8" />
      <path fill="#cccacb" d="M792.4 523l-112.2-4.2-2 15.2H754" />
      <path fill="#90bfb8" d="M895.4-2l158 .7L918-.7l96 .8" />
      <path fill="#c0d769" d="M298.2 471.4l-5.4 3-15.2 24.7-2.6 28" />
      <path fill="#fff" d="M841 324.2l-248.2-241 361.2 1-351.3 124.2M257.3 141l56 76-49.5 94.2L237 150.4" />
      <path fill="#4e636e" d="M115.3 336.2l-5-.7-89 7L4 331.8" />
      <path fill="#fffdff" d="M251.5 555.7l40 144.5-37.7-157.6-60-19" />
      <path fill="#a6d998" d="M730.6 760l2.3-15.6 54 10.8 40 2.3" />
      <path fill="#8dded2" d="M129.5 17.2l-20 9.5H29.2l-16.4-7.2" />
      <path fill="#fff" d="M443 141l-94.6 1.2 52 21.5 66 191.8M703.8 130L545.4 98.5l-1.6 167.8-62.4-139" />
      <path fill="#677780" d="M27.5 438.8l4.5 2 148-.7-34.8-5" />
      <path fill="#fdfdfe" d="M341.6 678.2H562l-155-182 123.3 117" />
      <path fill="#49c92c" d="M977.2 439l-63-14.4 21.3 36.2 45-47.3" />
      <path fill="#fff" d="M444 529.4L434.2 799l-10.8-211.6 417-50.7" />
      <path fill="#74acdf" d="M267.7 128.3l11.6 10.8-24.3 4-25.4-13" />
      <path fill="#fff" d="M911.7 711.4l105.6-12.5-5.3-209 41 252" />
      <path fill="#586d79" d="M57 297.3l4.4 3 92.7-4-94-5" />
      <path fill="#c7ccce" d="M453.2 726.6l38 1-4.8-21-25-12" />
      <path fill="#fffcfa" d="M553 74.8l-25-31.5-55-.3-152.7 1" />
      <path fill="#4d351e" d="M218.3 50l.4 3L230 72.4 214.8 62" />
      <path fill="#adebdf" d="M869.8 620l47.8-56.8-111.4 34.3 144.2 10.3" />
      <path fill="#70a082" d="M428.2 484.7l-14.3-20 2 29 15-25.3" />
      <path fill="#8cded4" d="M834 738.6l44.8 10h-83l30.5-19" />
      <path fill="#a69da8" d="M661.7 239l-31.3 7 1.8-19 24.3 10.7" />
      <path fill="#051f35" d="M32 397.7l2.3-76.7-22.6 81.6 173.8-1.3" />
    </g>
    <g class="SVG--1">
      <path fill="#b0afaf" d="M654 557.2l.7 7.4-2.4 5.5-18.3-14" />
      <path fill="#fff" d="M386.4 54L384 193.6l18.4 12.4-32 19.8" />
      <path fill="#43ca25" d="M923 455.3l-15.3-30.8-2.7-12.3 30 10.8" />
      <path fill="#556973" d="M121 465.4l1-4-3.7 13.7L17 469" />
      <path fill="#ded7ec" d="M891 756l3.5-58.7-38-49.8 24 99.8" />
      <path fill="#fff" d="M342 522.5l130-116H195.4l175.2 73.8" />
      <path fill="#6190e2" d="M896.3 549l31-2.5-9 23.2-28.7-10" />
      <path fill="#69747d" d="M69.8 429.7l157-79.5 6.3 39.2V347" />
      <path fill="#fff" d="M943 597.3v28.2l112-9.8-66.2-25.5" />
      <path fill="#576a74" d="M109 126.4L31.6 123l81.8-5.5 10.5-2.7" />
      <path fill="#33d3e8" d="M773.3 372.2l-4-.6 44.6 20-36 12.7" />
      <path fill="#e6dad1" d="M467.2 482.2l111-13.3-98.4-1-96.6-1" />
      <path fill="#676767" d="M367.7 133l81.3-.2-19-6.4 22.4 15" />
      <path fill="#aee3db" d="M251 10l1.6 16.3-6.5.6-7-1" />
      <path fill="#cacfd0" d="M561.7 611.7l-30.4 1.7.4 23.3 27.4 13.5" />
      <path fill="#66757f" d="M130.8 201.8l-4.8-5-112 1.6 80 5.5" />
      <path fill="#cfbea9" d="M993 547.7l16 3.6-100.7 3.8 85.5-13" />
      <path fill="#fff" d="M734.6 532.4l1 174 65.5 34-2-190.8" />
      <path fill="#0c2439" d="M126 492L26 506.3l58.3 23.3-57-1" />
      <path fill="#fff" d="M668.2 164.8l-450.5-89L239 41.2l-10.4 51.5" />
      <path fill="#fffeff" d="M212.7 766l.7-317.3-17 104L198 781" />
      <path fill="#455b68" d="M54.7 392.8l56.2-19-60-1.4 79 23.6" />
      <path fill="#978eac" d="M221.3 591.5l-12 10 11.5-3.3 31.3-.5" />
      <path fill="#fff" d="M417 129.3l87-4-85-45-227 47.2" />
      <path fill="#81b1bd" d="M828.2 715l15.3-.8-37-17.5 66.5 2.8" />
      <path fill="#00182d" d="M49.2 136.7l-39-27.6 34 20 2.4 88" />
      <path fill="#fff" d="M938.8 252l-59 133.8-106.2-11.2-56.2 17" />
      <path fill="#adf09d" d="M436.8 174.3l17-8.4 57.6 7-67.4 4" />
      <path fill="#64d548" d="M401.8 163.6l-5-2.4-14.3.3 12.6 19" />
      <path fill="#fff" d="M198.3 352.5l44-103.6 312.2 62-320 1" />
      <path fill="#242424" d="M385 128.8l4.6 2 6.7 4.8 36-5.5" />
      <path fill="#fff" d="M263 520l397.7 71-377.7-7 32-61" />
      <path fill="#00b59f" d="M152.7 41.2L18 25.4 6.7-31l-11 72" />
      <path fill="#586d78" d="M49.6 312.4l119.2 5.6-48.7-8.4-88-.8" />
      <path fill="#fff" d="M923 764.8l105.6-33.2-6.4 67.4-295.5-39.8" />
      <path fill="#425562" d="M62.5 431.7l61-25-81.3-5 100.6 21.7" />
      <path fill="#00172b" d="M76 449.5L20.4 448l13.6-6 152 3.6" />
      <path fill="#8490b9" d="M292.3 599.2l-3.2-7h30l8 7" />
      <path fill="#01182d" d="M7.3 407.8l12 9.3 38.6 1 97 1" />
      <path fill="#fff" d="M195.6 198l305.7-35.5-95-12.2 86.4 70.5m500 133l-5.3 110.8L932 481l86-59M243.2 539.6L231.8 571l.3-195.7 13 66.5" />
      <path fill="#f3eff6" d="M286 593.2l-45.2-24 .5-35.4 23.3 148" />
      <path fill="#60d143" d="M552.5 262.6l13-14.5-21.5 13 8-19" />
      <path fill="#13112e" d="M206 47l-105.6-3.8H-17l11 6.4" />
      <path fill="#d6ebe6" d="M775.4 245l16.6 27 7.5 44.2 28.6-50.6" />
      <path fill="#a68a8c" d="M528.3 689l24-6.6-37.6.7 31.5 14" />
      <path fill="#bc6d3e" d="M297.8 24.4v-5.2l29.2 2.2 7.4 3" />
      <path fill="#577176" d="M51.7 244.6l-52-1.5 23.3-6 57 7" />
      <path fill="#fff" d="M450 233l-72.3 18-133.3 4.3 169.4-28.7" />
      <path fill="#a3acb1" d="M329 146.8l8.5 8-4.4 4.3-52-5" />
      <path fill="#a69ea8" d="M307 242.5l38.7-7.3-39-2.7 2 7.4" />
      <path fill="#4b9e7b" d="M425 503l-4.4 22.4-5.6-8.6 14.7-7.6" />
      <path fill="#fffeff" d="M385.2 90L313 212.6 530 464 384.5 275" />
      <path fill="#cf93ff" d="M-15.5 650L-3 592.7l4-114.2 4 17" />
      <path fill="#919090" d="M894 359.7l-5.5-4 38 6.4-31 5" />
      <path fill="#3bf2ff" d="M5 47L2.8 77.5l-33.7 28V91.2" />
      <path fill="#f7692d" d="M930.3 751.6l-38.7-.4 8.2-31.5-4.5 22.5" />
      <path fill="#e0c6ee" d="M316.8 374l117.7 7-218 2.7 92.6-44.4" />
      <path fill="#bdc8c8" d="M43.8 537l-9.6-22.6-.6 19.6 2.4 4.7" />
      <path fill="#7eadd2" d="M822 323.5l-44.2 1-35-6.4 40-1" />
      <path fill="#5b7c89" d="M458 593.5l-12.3 1.2-.3 5 29.8-5.3" />
      <path fill="#99a5aa" d="M33 198.2l4-10.7 53.3-3.6-57-3" />
      <path fill="#001a2e" d="M131 385.2l-2.3-3.5L3.3 379l58.3 9" />
      <path fill="#00b3a0" d="M586.5 4L363.7 2.7l-44 35.6L466 41.8" />
      <path fill="#a3afb2" d="M34 347l11.8 17.2-4.4 5.2-6.5 55.2" />
      <path fill="#0f2538" d="M30.8 412.5l-1.4-50 17.8 4.8-43 12.4" />
      <path fill="#fff" d="M557.2 108L1055 78.3 1030.7 200 924 149.8M222 345.2l1.7-218.7-25.6-15.8 1 299.4" />
      <path fill="#ffd0c0" d="M944.3 722l-22-1.6 4.6 61.2 16-32.3" />
      <path fill="#cac0a9" d="M982.8 727.6l36.4 9.7-38 2-45-1.4" />
      <path fill="#d9eeea" d="M978.2 300.4l-5.6-29-112.6-95L953 294" />
      <path fill="#ffffc0" d="M957.2 662.3L878 672.7l-8-62 32 39.7" />
      <path fill="#fffdff" d="M453 505.2l22.7 5.7-45.2-35 21.6 52" />
      <path fill="#c1e3ea" d="M964.2 220.5l-32-82.4-9.6 39-64 26" />
      <path fill="#50cb34" d="M983 445.3l6.3-22.7-13.6-40.2-28.6 11.8" />
      <path fill="#7daf52" d="M331.4 522h-12.6l3 7.8-.2-27" />
      <path fill="#ffcd9e" d="M340.4 679l157.3 14.3H355l72.5-13" />
      <path fill="#e3f3ff" d="M853 532.8l-34.8 6 119.5 10.5 51-15.3" />
      <path fill="#f4f7f5" d="M720 43.2l172.3 31L1055 78l-44.5-36" />
      <path fill="#fff" d="M793.6 419.2l-14-16-16.6 21.5 5 8m-87.6-48l-229 77.3 162.3-15.3 162 31.5" />
      <path fill="#f2d2b5" d="M742.8 754.7l93.6-20-104-7-22.3-25.2" />
      <path fill="#40d4e6" d="M742.7 389.7l21.7 23.3-26 40.5-2.2-39.3" />
      <path fill="#fff" d="M238.2 577.2h181L264 591l-67.4-6.6M551 290l-298-56.4 592 150-275-155" />
      <path fill="#0c2338" d="M197.2 212.2L133 319.6l-11 97 62.8 35" />
      <path fill="#061e32" d="M-10.6 244l86.8 19.7 68.8-20.5 35.5 4.3" />
      <path fill="#0d2337" d="M194.5 80.8L192 351.6 110.8 82l45.6-1" />
      <path fill="#00162a" d="M2.2 426.7l102.8 1 63.6 6.6H53" />
      <path fill="#82bdb3" d="M1055 1.4L997.7-1h35.2l-36-30" />
      <path fill="#b3afa6" d="M805 477l29.2-5.3-126.7 5 52.6.3" />
      <path fill="#fbef79" d="M625.2 482.7l13.4 49.2 3-22-25-26" />
      <path fill="#2b71af" d="M192 48.3l6 33.5-33-1.5-196 1.5" />
      <path fill="#f8f7ff" d="M414.8 499l-6.4 6.8-46.2-30.4 53 7.6" />
      <path fill="#071e33" d="M33.7 246.7L19.4 200l173 19.3-163-12" />
      <path fill="#d5db75" d="M465.6 496.7l-6.4 23-24.4-5 5.5 12" />
      <path fill="#f9fcf2" d="M198.8 40.6L197 157.3l3.2-86 20.4-28" />
      <path fill="#dcc3e9" d="M333 388.4l24.8-27.3 37.2-37 7.8 35" />
      <path fill="#acabac" d="M245 313.5l50.4 9L326 314l-50.6-1" />
      <path fill="#ff9635" d="M777.2 373.6l-39.7 16 16 3 19 13" />
      <path fill="#79d4c7" d="M224.5 11.7l-14 9-7.2 3 16 3" />
      <path fill="#818181" d="M287.7 561.3L289 572l-9.2 9-6.2-32" />
      <path fill="#c1cbf9" d="M904.5 708.3L935 702l10.5 18-155.3.7" />
      <path fill="#fff" d="M310 340.7l6 34 120.6-86.4-229 56.4" />
      <path fill="#737373" d="M235.5 560.8l-8.2-10.8-2.8 15.4-10 13.2" />
      <path fill="#2f2f2f" d="M381 130.8l47.4-.6 22-2 .8 7" />
      <path fill="#0a2136" d="M-19.8 653.5L7.6 524l150-4-133.3 8.7" />
      <path fill="#04172c" d="M80 190l-111-1.2 116.3 7.5 65-12.7" />
      <path fill="#909fa2" d="M470.3 350.7l1 2.8 7.6 7.6-12 16" />
      <path fill="#fff" d="M454.8 257l93-150.3L437.2 246l165.4-8.5" />
      <path fill="#57b3b0" d="M492.4 498l-12-9.4-.8 6.6 1.5 4" />
      <path fill="#fff" d="M594.3 82l-134.2.3-18 18 13 52.2" />
      <path fill="#5f6f78" d="M124 419.3l-93 5.5 99 1.4 7.4-6.5" />
      <path fill="#fff" d="M685.5 518.2l-76.4 6.5L766 476l258.2 37.3" />
      <path fill="#fffeff" d="M933.4 404.4l1.6 25 26-8.8-2.3-15.2" />
      <path fill="#fffffe" d="M351.4 605l92.4 2.2-88.8 5.4-149.6-6.6" />
      <path fill="#00b29f" d="M578 4.4l32 36 95.4.6L896.7 2.7" />
      <path fill="#93e9f2" d="M491 592.8L419.2 605H517l-11.3-1" />
      <path fill="#081e33" d="M35.6 418.8l-6-15.8 160.6-7.8H16.7" />
      <path fill="#b5b4b4" d="M385.3 396l-132.6 1.4-17.7-4.2 42.8 1" />
      <path fill="#df9b89" d="M560.4 343l-8.3 9-22 29.4 31-28" />
      <path fill="#75d75c" d="M404 260.8l-11-5.3-6.2-17.3.4 21.6" />
      <path fill="#aaaaab" d="M255.4 101.3l36 8.4-57.6-1-42.4-3.6" />
      <path fill="#00af9c" d="M124.6 31.8L118 17.4l135.7 23.4-147.6 1" />
      <path fill="#072137" d="M52.3 345.4l-21.5 11.4-26-167.6 42 186" />
      <path fill="#fff" d="M1055 669l-110 16.4-10.2 37 13.3-76" />
      <path fill="#72d950" d="M244.7 247.3l-4.3 7.8-12.8 11-3-18" />
      <path fill="#26ccd4" d="M958 79.4l96.3-4.7-39-73 29 80" />
      <path fill="#d1a26a" d="M848 645.5l26 8.7-3.5.8-63.4-2" />
      <path fill="#091f32" d="M77.7 165.8l82.8-4.8L21 156.3l-14.8.3" />
      <path fill="#5cd9d4" d="M804.4 559.2l48 2.6-3-11-36.8 10.5" />
      <path fill="#586872" d="M74.4 515.5l-26.7 1 7.2 7.7 38-4.7" />
      <path fill="#fff" d="M1039.3 555l-118.7-2.5 40.5 26.8h45" />
      <path fill="#64757d" d="M112.3 217.4l-12.8-5.6-68.4 7.6 12-.4" />
      <path fill="#fff" d="M787.4 799l94.4-25-14.2-25.8-60 1.8" />
      <path fill="#2ad2e4" d="M857 77.8l-187.6-.3-69 .6 26.2 4" />
      <path fill="#b3b9bc" d="M319.5 144l-9 12.6L277 160l6.6-12.4" />
      <path fill="#d3d6d6" d="M641 613.8l-3.3 15.5L608 632l-.3-26.4" />
      <path fill="#adee9c" d="M620.2 172.8l15.8-7.4 22.4 8-18.8 7.2" />
      <path fill="#fff" d="M968.2 364l54-261.2 25 279-174-12.4" />
      <path fill="#90b082" d="M795 747l-48 5.6 26.6 6.3 22-8" />
      <path fill="#50cc33" d="M949.6 374.8l40.4 36-3.2 30.2-41-50.4" />
      <path fill="#718088" d="M90.5 277.5L34 278l4-2 39 9.8" />
      <path fill="#d0d3bf" d="M330.3 467l.4 15.4 37.2-7.8 17-7.8" />
      <path fill="#fff" d="M721.4 579.5l-318.4-57 87-2.8-219.5 40.7" />
      <path fill="#ae7145" d="M277 7.4l3.6 16.3 4.6-1.3L288 19" />
      <path fill="#fffffa" d="M988.5 544.3l-43-2.3-12.5-10.8 122 8" />
      <path fill="#ff68bb" d="M943.3 397.4l-16 19.4-25-11.3 38.5-32.3" />
      <path fill="#fffbff" d="M313.4 477.3l-39-6L295 410l-32.7 34" />
      <path fill="#fffce9" d="M1018.5 626L860 632.8l-107.4-16.4 173 3.2" />
      <path fill="#b7daf5" d="M898 702l-38.5-29 94 2-102 22.4" />
      <path fill="#858582" d="M649.4 395l-33.3 2-78-.3-20-.6" />
      <path fill="#fff" d="M806.6 197.7l56.6 229-19.5-225 156.5-90.4" />
      <path fill="#77b8a2" d="M852 596.5l3.6 8.3 1 3.5-43.2-11" />
      <path fill="#081d31" d="M-31 457.2l169 12 15-12-113.8 2" />
      <path fill="#f4e06d" d="M482.2 466.3l-54.5 29-14.3 10.8 53.2-27" />
      <path fill="#fff" d="M787.2 759.3L516.7 761l-325.7.4L665 799m121.6-430.2l90.8 87.7 48.2-86.6-175.6 5" />
      <path fill="#070e2c" d="M101 43.4l55.8.5H194l-7.3 6" />
      <path fill="#5e6f79" d="M55.2 451.7l6.4 7.2h60l5.3-8" />
      <path fill="#ffffce" d="M350.2 692l.4-15-54.7 1.7 38 24.3" />
      <path fill="#b3afb4" d="M350.4 392.6l.7.7 72 3.2-106 .4" />
      <path fill="#63d5a8" d="M893.4 618.4l36.3-1.7 7-2-71 2.5" />
      <path fill="#697982" d="M94.7 261.6l-81.8 2 38 2.7 55 .6" />
      <path fill="#00a596" d="M79.4 37.8L64 11l3.8 42-4.5-25" />
      <path fill="#9cf0f6" d="M797.3 704l9-9.8 29-2.2-4.5 7.2" />
      <path fill="#fff" d="M625.4 261l3-117.8-62-2-5.2 36.6" />
      <path fill="#a7c79e" d="M936 471.6l-44 7.7-.2-8.5 26.6 8.5" />
      <path fill="#faf7f8" d="M428 481.7l26.4 21.8 162 20.8L447 492" />
      <path fill="#131414" d="M422.4 140l-39 1.3.5-2.6 60-1" />
      <path fill="#00b4a1" d="M692.8 5.5l47.4 33.8-266.6 3.5L451 2.6" />
      <path fill="#fcf240" d="M620.8 520.6l-11.2 1.3 3.8-13-2 1" />
      <path fill="#97aac3" d="M358.6 592.4l4.3 2.6 29-4.8-9 12.8" />
      <path fill="#8d999e" d="M24.4 480.6L24 487l4.3 9.5L17 500" />
      <path fill="#fefafc" d="M315.5 487l31.6 5.7 25 191.6L299 368" />
      <path fill="#3ed3e7" d="M818 432.4l-.7-25.4-53 35.3 21.5 17.2" />
      <path fill="#fffefc" d="M309 216.5l-7.8-56.8-2.2-37-4.8 37.2" />
      <path fill="#22cfe2" d="M950.2 76.7l-78 1.2h-77.7l175.2 1" />
      <path fill="#39d5e5" d="M421.2 79.4l187 1.5-29.5-6-49 1" />
      <path fill="#fffcfd" d="M687.8 680.2l-119.5-2.7-64.7-38.4 242.4-1" />
      <path fill="#c9a296" d="M802 708.2l44.4 7-4.7-9.3 13.5-19" />
      <path fill="#c6dae1" d="M951.7 513.8L920 619.3l4.3-85.5 108-12" />
      <path fill="#f5f7f5" d="M304.5 43l142.6-.4 17 26.7-192 7" />
      <path fill="#a4c0c0" d="M520.3 594.8l7 7 17.5-9 36.5-1" />
      <path fill="#92d8dc" d="M734 692.8l-29-9.7-52.3 10h33.6" />
      <path fill="#94b88b" d="M960.8 701.7l7.2-2 49.4 2.7-50.6-17.3" />
      <path fill="#ecb9ef" d="M794 681l21-24.7 51 18.2 2.5-21" />
      <path fill="#fff" d="M202.8 383.6l77.6-29.2-30-31.2-54.7 229" />
      <path fill="#929fa3" d="M44.2 476.6l-12.7-33.8 3.4 35 6-7.6" />
      <path fill="#d0bdad" d="M954.8 627.5l65.5 1.8-68 6.7-6.5-.4" />
      <path fill="#fffffe" d="M813.6 441.3l-35.2 32 148.5-5.6-76-138" />
      <path fill="#fff" d="M296.3 300.7l-54.5 13-2.5-64.2L276 132.7" />
      <path fill="#160c21" d="M4 81l-.7 11.3 55-10.4L43 81" />
      <path fill="#4d616d" d="M129 358l-43-3 34 11.3 24-4.8" />
      <path fill="#fff23f" d="M311.7 525.8l-.2-17.5-20-5.7L315 526" />
      <path fill="#dddc84" d="M542.2 469.6l8.4-1.6-32.8 40.5L519 492" />
      <path fill="#011b2f" d="M10.2 269.5l49.5 6.8L170 274l-96.8-4.3" />
      <path fill="#0b5a77" d="M77 743.6l37-7.3L76.4 759l5.2-17.5" />
      <path fill="#fffdfa" d="M878.7 547.7L795 541l-24-1 79-11.2" />
      <path fill="#fff060" d="M404.6 510l26.6-9.7-5.5-16.8-15.7 40" />
      <path fill="#0a2035" d="M6.8 310l21-194.2 135 5-156-21.6" />
      <path fill="#50cfad" d="M715.6 582.2l-10 5.7-4.6 2-1.4-8" />
      <path fill="#fff" d="M265.3 792L446 767.3l-158.7-8-.7-150.5" />
      <path fill="#aeabab" d="M272.6 478.3l2.8-27.3-33.4 4.7 27.7 7.7" />
      <path fill="#00182c" d="M29 367l43.8 4 28-3-32.8-6" />
      <path fill="#0b2338" d="M165.2 584.2L88.8 671l113 121-17.8-96" />
      <path fill="#5b9ed8" d="M257.5 137.6l24.5 2.8-61 .8 7-3.5" />
      <path fill="#f2f9f7" d="M310.5 72.3l-114 3.7 1.7-49 1.8 39.8" />
      <path fill="#ccd5d6" d="M531.2 732.3l32.3 7.3L560 697l-26.5 55.3" />
      <path fill="#525353" d="M398.8 218.2l-9.6-4.2-8.6 14 11-2" />
      <path fill="#6ed551" d="M565.4 170l-21.7-11.7 4 11 4.2 6.6" />
      <path fill="#fff" d="M600 405.6l-182.5 91.7 42.7-35.7-202-11.3" />
      <path fill="#f2e93b" d="M890 629.5l7 5.4 25 5-.4-8" />
      <path fill="#c1cacc" d="M28.7 358.3L28 360l15.8 7-6.5-10" />
      <path fill="#faf2ef" d="M335.6 467.7l-34 9.6-10 38-17-14" />
      <path fill="#fffeff" d="M497.4 355l-86.8 102L421 182l47 195.3" />
      <path fill="#0a2337" d="M2.3 303.2l48-3.6 154.3 1.7-102.4 6.6" />
      <path fill="#fffdfd" d="M208.8 445l36.5-19.7 26 160 7-50.2" />
      <path fill="#5d9bd2" d="M727.3 195.5l38 26.4v11l-28.8-48" />
      <path fill="#ffd1bf" d="M950.3 727.6l-86 10.3 31 21-24.5-39" />
      <path fill="#fff" d="M666.5 508l93.3-144.6-33.7 14.3L682 234m280 253.4l57.6 29.5-263-1 82-47M249.3 156l-51.6 85.5L264 169l89.2-5.3" />
      <path fill="#2a2a2a" d="M389.4 220.3l30.8-5-2.8 14.5-5.7-15" />
      <path fill="#84beb2" d="M63.2 3l-67-3 272-.2L13.4-1.7" />
      <path fill="#4a95d9" d="M893.8 703.8l9.5 6.4-8-23.8-3.8 17.8" />
      <path fill="#91b1d1" d="M66.7 71.7l-4.3-.3V58.8L48 67.5" />
      <path fill="#fff" d="M1055 520.8l-125.3-266-53.8 55.5 104 79" />
      <path fill="#ffe543" d="M352.4 485.2l-7.5-6.7-1-4.5 8-1" />
      <path fill="#8e8e8e" d="M279.8 556l-5.6 14.6V546l17 8.5" />
      <path fill="#3dd4e7" d="M819 425l-6.7-31-39-23 31.6 80.4" />
      <path fill="#fff" d="M215.7 81.8l86-.7-98.7 25-4.4 33" />
      <path fill="#909ba8" d="M283 56.8l-12.2 8.4-15.2 1-4.3-9" />
      <path d="M449.5 137.4l-34.2.7-15 3 47.3 1" />
      <path fill="#5292d4" d="M755.8 223l42.2 4.5-7.7 13.6h-19.8" />
      <path fill="#fffcb9" d="M884.3 673l58-47.4 1.2 44-9.5 3.3" />
      <path fill="#fffefe" d="M865.7 718.4l14 21-199.5-49 55.2 37" />
      <path fill="#f9f8f6" d="M703.6 45l-198-3 55.6 34.7 65.7-3.4" />
      <path fill="#fefdfc" d="M327.4 189.4L540 174l-225.3 59.5 4.5-106.3" />
      <path fill="#ffd3bd" d="M333 165.2l2.7 15-37.7-1.7-42-6" />
      <path fill="#5e6d77" d="M102 155l25.4-1.8-18-4-69.5 6.2" />
      <path fill="#00af9b" d="M335.7 19.7l-98-17L124 4l6 1.8" />
      <path fill="#fcfcfc" d="M284.2 562.4l-8.8 5 9 8.2L279 763" />
      <path fill="#8c8c8c" d="M434.6 138.7l61 9.4-93.6-14 45-1" />
      <path fill="#fff" d="M746 203.8l-51 26.4L587.6 351l193-59M203.4 531.4l1.2 21.2 145.3-1 14-20" />
      <path fill="#fff" d="M700.4 205.8L660 417l-4.6-288.3L819 118" />
      <path fill="#f4a8a6" d="M813 611.7l-10.8-2.8 69.3-1-73.5-9" />
      <path fill="#f8f480" d="M312 482.8l-32 17.5-7-23.2 26.6 27" />
      <path fill="#cfc8ca" d="M493.5 625l-37 3.6 47.5-21.4-48.2 8.3" />
      <path fill="#cccbcb" d="M396.3 136.8l36.5-.6-33.3-2.6-49 41.5" />
      <path fill="#fefdfe" d="M310.4 139.6l-94 2.6.5-30 9 51" />
      <path fill="#091f36" d="M142.4 313.7l1.6 41.5-40.6-6-28.8-31.7" />
      <path fill="#84c9b6" d="M595.4 592.4l27.3 9-33 4 4.4-4.3" />
      <path fill="#ceabe2" d="M301 384l5-27-21.3-3.8-1-19" />
      <path fill="#f66a2a" d="M890.3 733l36 1.8-37.7 8 14.7 16.8" />
      <path fill="#f3d1ce" d="M484.5 396l131.7-7.8 41 19L655 339" />
      <path fill="#fff" d="M344.6 740.4l20.4 31.8-3.4-121-6.2 10.7" />
      <path fill="#949495" d="M308.2 457.2l-3.7 4.6-51.4-2 47-5.4" />
      <path fill="#0e1f32" d="M-15 140.2l118.5 10.4 68.6-12.3-115 4.5" />
      <path fill="#dea597" d="M479.4 336.4l56.7 41.3-62-36.2 9 1.3" />
      <path fill="#fff" d="M1020.8 550.5l-11 248.5-67.2-55 94.2-4.6" />
      <path fill="#faec99" d="M386 481.4l-9 33 21.7 18.4-20-34.6" />
      <path fill="#c7e8d5" d="M629.4 636.8l105-.2-16.6-22.6 26.8 11" />
      <path fill="#cba5e0" d="M551.5 229.2l-8.2-14.6 34.2 1.3 21.4-1" />
      <path fill="#c49f99" d="M460.3 679.2l1.6 17.5 7-7-33-3" />
      <path fill="#c8c973" d="M848.8 591l.7 1.2-10.8 14V589" />
      <path fill="#de9685" d="M582 346.8l26 4 31.8-13.2-55.6 15.3" />
      <path fill="#43c722" d="M543.6 258.4l13-11.3 2 3 4.3 10" />
      <path fill="#0d2337" d="M19 382.3l-5.8-111.5-7.5 99.6 60 18" />
      <path fill="#faf8f6" d="M333.5 54l-58.7-11.2-56.3.7 5.7 12" />
      <path fill="#5b6b75" d="M88.7 500.5l-17.3-4.7-10.2-2.8 55 1" />
      <path fill="#00b19f" d="M276 26.8l93.7 13.4-123 1.5L287-15" />
      <path fill="#decdcc" d="M525.5 403.3l-50.7-9 48.6-12-25.5 25.4" />
      <path fill="#f3dadf" d="M490 470.6l1 54-114.3 5.3 123.6 1" />
      <path fill="#cbf0e0" d="M910.3 566h23.4l-44.2 10 63.2 11.3" />
    </g>
    <g class="SVG--2">
      <path fill="#fffefe" d="M242.6 489l65.4-61.8-95.6-38 72.4 69.3" />
      <path fill="#ced9a7" d="M652.8 471l13.3 22-44-38.6-2 1" />
      <path fill="#f3a505" d="M4 341l1 87.4-36 196V213" />
      <path fill="#fffdfb" d="M763 475l-229 26.6 272.6 6.2-157.4-148.4" />
      <path fill="#c3dbf2" d="M923.7 691.5L922 718l21-2-.2-45.3" />
      <path fill="#eec6ed" d="M794 617l55.5-5 24.5-13-7 22.3" />
      <path fill="#40d4e5" d="M736.6 76l89.5 2.6h-84l-138 .6" />
      <path fill="#4e5e68" d="M116.3 172.5l21 2.3-3.3-13L77.2 172" />
      <path fill="#fff" d="M439.5 704l-4.7-159-8.7 128 6 125.8" />
      <path fill="#64727c" d="M39 406l-13.2-4 49 10.2 55-7" />
      <path fill="#0a2136" d="M28 510l-34.4 60L28 494.3l150 30" />
      <path fill="#fefefe" d="M440.6 229l-93.6-3.7 54.4 48.4L358 258" />
      <path fill="#d8dddd" d="M41.8 157.5V154l-.3-10.5-11 9" />
      <path fill="#b6b2b5" d="M441.3 149.5L498 159l-5.3-12.4-46 .4" />
      <path fill="#3470b5" d="M55.4 49.2H158l-139 28L69 80" />
      <path fill="#d1eae6" d="M769.2 199.7l46-67-30.8 12.5-25 51.5" />
      <path fill="#aeadad" d="M698.7 358.4l28.7-2.3-8.2 10 53-5" />
      <path fill="#fff" d="M938.6 463.2l105.3 18.6 2-193L978 456" />
      <path fill="#122638" d="M199.8 425l-210.2-12.7 97-2.7 64.7 5" />
      <path fill="#e4ede9" d="M876 310l-32-103.5 66.7 9.7-36 89" />
      <path fill="#fefbf9" d="M393 507.7L463 684l-57.4-172.5-11.2-57.2" />
      <path fill="#cf915e" d="M854.3 689.4l-8 10.5-13-3 12-7" />
      <path fill="#fff" d="M887 381.2L751.6 373l44.3-55 38 166.6" />
      <path fill="#fcfefe" d="M488.5 353.7L473.7 401l-.7-60-277.7-127" />
      <path fill="#4dca31" d="M906 433.8l30.5 27 21.5-4-7-23.4" />
      <path fill="#ff5f29" d="M5 188L-7-16l-24 266 32.6-29" />
      <path fill="#f3c16f" d="M773 750.2l5.8-6.6-42.8 6-10.3-3.4" />
      <path fill="#fff" d="M794.7 231.3l152.7 122-143.6 1.6 43.5-157" />
      <path fill="#65d24b" d="M395.6 261.5l9-18-14 6.7-8.4-2.3" />
      <path fill="#e3b583" d="M423.2 692.2l-57.8-5.2 14.4-8.2v15.4" />
      <path fill="#b8c5cb" d="M846 627.7l-32 5.6.6 4 69 1.5" />
      <path fill="#fff" d="M504 663l14.6 38.4 75-5.4-90 .4" />
      <path fill="#aba7ac" d="M334.7 232l-.3 11.5-22.8-7.6-3.8-5" />
      <path fill="#c5ccce" d="M40.4 411.6l-4-9.6-7.5.7-3-2" />
      <path fill="#fff" d="M237 589.5l-3-30.6-2 12 5 21" />
      <path fill="#bec6c5" d="M212 640l55.6-5.7-29-1.8 3.6.3" />
      <path fill="#e5b5a8" d="M657.4 367l-31.8-33.5 33 23.3-9.3 10.7" />
      <path fill="#fff" d="M651.8 698.6h73.6l12 86.4-70.5 5.6" />
      <path fill="#b7ca7d" d="M850.5 732l-2 14.8-13.7-3.8 3.8-3" />
      <path fill="#d4c4b7" d="M982.4 693.2l-64.4-10 93.5 1.6 5.4 16.5" />
      <path fill="#4c5c6a" d="M70.4 236l6.8-1.5 17.7 10-45-1.5" />
      <path fill="#8bc5d2" d="M858 712l-29-21.4-12 13 45.7-5.7" />
      <path fill="#599871" d="M417.4 495.3l10-19 1.5-.2h-15" />
      <path fill="#b0bbbd" d="M44 372.7L28.5 399l13.7-7-7.3-18" />
      <path fill="#a6addd" d="M916.4 716.7l18.8 4.3-49.6-.5-58-3" />
      <path fill="#99ba87" d="M334.5 468.2l10-.8-13.8 19.8-2.8-4" />
      <path fill="#f8ed2e" d="M626.6 463.4l-18.7-7.2-7 7.4 20-1.4" />
      <path fill="#b6b5b6" d="M546 313.8l-72.3 1.7 87 7.8-24.7-6.6" />
      <path fill="#fbf7f4" d="M264.2 583l26-68.3 64.2-63.6-75 69" />
      <path fill="#73bb82" d="M618 458l29.7 10-4.6 9.8-3-20.2" />
      <path fill="#00b19e" d="M-29.6 5.7L84 17.3l91 4.2-27.7-17.2" />
      <path fill="#b1d29d" d="M935.5 611.2l7.2 8-.8 10.5-11-9.7" />
      <path fill="#9fe1d6" d="M171.6 13l3 14.4 3.7.2 6.7-9.8" />
      <path fill="#fffdfd" d="M288.7 583l12-103.3-11.4 22.7 54.2 58.6" />
      <path fill="#f5f2e8" d="M491.6 478l-17.4 40.5-24.4-46.3 80.8 65" />
      <path fill="#052035" d="M31.6 284.2l-2-54.2L17 295l35-9" />
      <path fill="#fff" d="M517.4 169.4L352 157.7l153.7-.2L397.3 338" />
      <path fill="#fefefd" d="M380.5 468.4l-117.7-52.6 108.4 91.7L266 391.2" />
      <path fill="#11253b" d="M68.5 87l27.7-6.7 64.5-.3 30.5 93.3" />
      <path fill="#fff" d="M499.7 590l122.2-2.4 39-57-134 2.4" />
      <path fill="#535353" d="M259.7 574.5l3.4-23 3 19-8 6.4" />
      <path fill="#50616d" d="M88 533l18.2 6.3-64-5L70 530" />
      <path fill="#fff" d="M815 571.8L712.6 627l-89.4-16.3 252.7-38" />
      <path fill="#d2b89b" d="M1013 552l-2.8-7.3-45 .6-7 6.5" />
      <path fill="#fcfefc" d="M281.5 675l-55 7-24-9.2-1-54.2" />
      <path fill="#92e2d4" d="M30.8 28.2L19.6 16l45.6 10.6-5.4-.7" />
      <path fill="#fff" d="M553.5 315l95.8-99.5L539.5 235l23.2 14.3" />
      <path fill="#48d6e5" d="M762.7 78.5l109.6-3.2-26 4.6-13-1" />
      <path fill="#e7cbbf" d="M543 472.2l-219.3 2.3 246.3 2-37.4-9.2" />
      <path fill="#1d3445" d="M60 451.8L37.2 421l12.3 26L27 466.7" />
      <path fill="#fff" d="M254.3 227l-35.5 1 38.3 38.8L200 414" />
      <path fill="#d6c4df" d="M392.2 406l22.6 1.3-.8-74.3-10.4 68.2" />
      <path fill="snow" d="M539.6 632.2l-46.5-18-78-9h95" />
      <path d="M212.7 56.8l10.8 5-1.2-10.4-9 3.3" />
      <path fill="#c5e6eb" d="M987.4 182.5l24 17.3-121 22-25.3-34" />
      <path fill="#f9f7f6" d="M811 44l89.2 29.5h-303l107.3-31.8" />
      <path fill="#d2b3e4" d="M327.8 360.7l41.8 15-25.3 6.2 14-25" />
      <path fill="#dad958" d="M459.6 497.8l-2 11.4 6.4 11.3-9.8 2.2" />
      <path fill="#606060" d="M229 566l11-9.4-1.6 8-15.4-14.2" />
      <path fill="#faed3e" d="M588.7 522.5l-2.2 2.3-4.6 3.2-3-6.2" />
      <path fill="#bdb6aa" d="M617.5 695.6L588.7 681l24.8 2.7 7-2.6" />
      <path fill="#061d31" d="M104 135l46.5-.5-4.7-8.5-119 .7" />
      <path fill="#9edb94" d="M218.2 678.3l-3.8 15 69 .3-42-3" />
      <path fill="#fff" d="M271.2 339.4l12.6-33.6-7.3 69.4L268 352" />
      <path fill="#bfd7f4" d="M871.3 538.8l-4 14.5 82.4-14.6-69.3-7" />
      <path fill="#fbb09b" d="M459.2 688.3l89.2 5.8 16.4-5-67.2 6" />
      <path fill="#fff" d="M789 420l-2-13.4-21.2-1.7-3 20" />
      <path fill="#fefefe" d="M510 351.3L468.6 328l65 47 89.2-132.4" />
      <path fill="#b5da5c" d="M514.7 509l33 19-16-.3-9.5-5" />
      <path fill="#fff" d="M517 227.3l-14.7 111 25.3-81.3 57.3 38.6" />
      <path fill="#b4bdbe" d="M40.4 434.7l-6.2 18 3.8-1-5.6-16.5" />
      <path fill="#8f8f8e" d="M728 366.5l-6.8-6.4 34.6-1v4" />
      <path fill="#fffffe" d="M298.3 285.4l90 69 7.7-47-81.5 11.7" />
      <path fill="#fff" d="M263.6 584l-14.3-55.8 5.4 45-32.4 16.6m389.5-116l-49.5-48.6-23.8 87 35.7-51.5" />
      <path fill="#60c176" d="M271.7 510.3l7.3 6 3.2-3.7-3.4-8.2" />
      <path fill="#85cf9a" d="M420.8 531.6l15-18.6 3 5.7-17.3 7.3" />
      <path fill="#fefefd" d="M235.4 261l-16.5-4 47 60.6 4-48.6" />
      <path fill="#a09f9f" d="M913.4 363.2l20.7 3 5-9.7-50 8.2" />
      <path fill="#fefcfd" d="M194.5 799l131.3-47.2-96.6-13.8-23.7-51.5" />
      <path fill="#fefefe" d="M226.4 559.7l-28.3 36 22-35 2-.2" />
      <path fill="#a6a6a6" d="M282.6 320.4l-38-1.8 27.8-7 48.7 8.8" />
      <path fill="#efcabc" d="M562.4 514l-1.2 7.5 3-47 2 63.8" />
      <path fill="#b8c3c4" d="M35 298.3l.2-39 6.7 24.4-4-4.3" />
      <path fill="#c9a9d7" d="M853.8 654.4l-35.3 6.4 58.8 11.4-69.3.7" />
      <path fill="#f8f8f9" d="M493 700.8l86.3 8.8-102 8.7 124.2 71.3" />
      <path fill="#f3d9c2" d="M656.5 676.3l-67.2 14.3 67.6 7-3-11.6" />
      <path fill="#00b09e" d="M221.5 23l-49.3 18.8 75.3-1 87.4-.4" />
      <path fill="#faf2f2" d="M319 501.8l-13.3 49.5-22.4-31.3 35.8 2" />
      <path fill="#b0b0b2" d="M551.7 407l5.6-7.2 6.6 1.4v4" />
      <path fill="#15c28d" d="M914.4 594l-22 8.6h22l10.2-4.6" />
      <path fill="#c8ae9f" d="M1008 588.7l18.6 4.5-50.7-13-12 7.8" />
      <path fill="#baefac" d="M497 165l-64.7 13.5 36.4.6 28.5-3" />
      <path fill="#10253a" d="M-31 546.8L19.5 799l47.8-263.3-50.7 3.4" />
      <path fill="#5f6d77" d="M59.5 418.5l-29.7 2 5.3 5 50 1" />
      <path fill="#fffeff" d="M233.6 121.4l-4.2-25.7L383 121 239 89" />
      <path fill="#363636" d="M423.8 226h-39.6l41-3.3-8.7 1.7" />
      <path fill="#666766" d="M241.6 552.3l10.7 16-4-14L231 558" />
      <path fill="#fc6e3f" d="M223.6 165.2l1.8-4.6 17.2 5.7-15.8 4.2" />
      <path fill="#c1b5ad" d="M800.8 739l35.5-2.6-97.7 1.2 20 2.4" />
      <path fill="#fdfdfd" d="M648.3 348.2L747 478l-57.6-223-75.4 69.4" />
      <path fill="#53cc36" d="M948 394.2l3-15 29.7 7.8 11 36" />
      <path fill="#fff" d="M484 151l-7.7 3.4L499.6 94l-48.8 43.8" />
      <path fill="#eb9870" d="M932 757.2h-65.7l30.4 4.2-7 .8" />
      <path fill="#f0dcd4" d="M246.5 532l95-2.4-78.7-5 1.5-63.5" />
      <path fill="#f55525" d="M-.7 217.2l.3-94-30.6-17L5.8 81.5" />
      <path fill="#e2f8f2" d="M829.7 210.8l-76 7.7-15.3-54.4 51.6 64" />
      <path fill="#686e81" d="M220.3 596.5l15.2 2.7 7.8-6-98.8 12" />
      <path fill="#cfc373" d="M315.5 470.3l-11.2.5-20.7 24.6 8.2-21.5" />
      <path fill="#fff" d="M962.8 411.7l-13.6-1.4-9.4 21.5 15.8-.8" />
      <path fill="#94e8f7" d="M807 554.6l-5.6 7.6-1.6-.4 83.3-1" />
      <path fill="#fff" d="M956.3 764.2L1055 799l-282-37.2 145-1.7" />
      <path fill="#de8d7a" d="M558.3 352.3l-3-5.8 35 3.2 3 .3" />
      <path fill="#245443" d="M150 755.3l-19.2 8.5 20.7-37 18.3 25.7" />
      <path fill="#556e78" d="M76.6 122.5l-15-3.3-10.6-4-1.7 10.2" />
      <path fill="#d3b7eb" d="M831.5 561.5L912 569l-59.2 1.7-56 .3" />
      <path fill="#589add" d="M917 684.6l1.6 19.2 9.2-11.4 1 1" />
      <path fill="#102439" d="M144.5 205.2l52-120-5.3 200.2L92.4 205" />
      <path fill="#52616e" d="M61 342l-30.8-7.7 62.2-1-15.5 5" />
      <path fill="#ff9912" d="M804.2 747.6l-34-.4-14.4 1.6h41" />
      <path fill="#fff" d="M330.5 401.4l47 104.8-38-108 164.5-1m470.8 334.2l-36-3.8 34-25 82.2-1" />
      <path fill="#53ca36" d="M902.4 418.7l40.7 42-15-45.6h-15" />
      <path fill="#c0eeeb" d="M872.2 613.7l82.3-14.3L896 614l-5.5-81.8" />
      <path fill="#d3e188" d="M715.4 629.8l-19.6 7.2 1.5-8.7 7-1.6" />
      <path fill="#526873" d="M65.4 105.6l1.8-1.8-51-5L67.5 96" />
      <path fill="#78bcb1" d="M346.5-1H404L283.2-31l97.2 30" />
      <path fill="#fffeff" d="M585.6 169.7L401.2 232l-116.8-40.5 140 69" />
      <path fill="#bdd9f6" d="M401 590.3l30.8-.7-31 17-22-16.8" />
      <path fill="#fff" d="M896 446l14.4-54 19.7-15.2-90-28" />
      <path fill="#bedfe3" d="M762.4 318l-46.7-.7L703 323l36 2.7" />
      <path fill="#0d2438" d="M14.3 443.5l19-134.7-4.4 140 93-5" />
      <path fill="#dec1b9" d="M612 474.5l16.3-11-37.5 12-63.6-2.3" />
      <path fill="#fff" d="M1002.3 681.7L962 680l-20.4-43 95.4 2" />
      <path fill="#092338" d="M45.6 501.6L43 378.4l3.3-133 3.2 188" />
      <path fill="#fbfaf9" d="M544.4 622.3l-195-2 208.4-3.6 199.7 1.7" />
      <path fill="#a7b1b6" d="M30.4 194.5l-1.4-2.8 22-5.4-14-6.6" />
      <path fill="#00b3a0" d="M930.2 40.4l103.3 1L1055 3.8l-130.8-1" />
      <path fill="#526570" d="M75 370l-25.4 7.4 12 2 47.5-3" />
      <path fill="#d7bae6" d="M276 374l-4.7 9.3 39-40.7-26-3" />
      <path fill="#c9e7f9" d="M903.6 673.7l-56.4 17 57.2 24-40 5.6" />
      <path fill="#102437" d="M49.7 195.2l-14.3-31.8 7.4 11 4-31" />
      <path fill="#aba3a0" d="M971.7 527l5.4-8.7 6 11 1 1.5" />
      <path fill="#fffeff" d="M238.7 147.3L266 337.6l11.8-198.4-36.6 45.8" />
      <path fill="#f5b10b" d="M4.7 347l-.2-22.3L-31 302l28.7 181.7" />
      <path fill="#fbfcfb" d="M449.4 504l9-33.5L461 494l-17 37.7" />
      <path fill="#fff" d="M1040 590.2l-86 1-9.6 39 110.6-18.5" />
      <path fill="#cddeea" d="M22.3 55.8l-2.4 8-3 5.7L29 64" />
      <path fill="#fff" d="M796.4 313.4l-66.7 2.3-48.7-88 92.2 12.4" />
      <path fill="#c3c8c9" d="M441.4 704l27.2-1.3 12-2.3 16 5.6" />
      <path fill="#9cc2ec" d="M432 603l-15 2-80.8-2.4 47-1" />
      <path fill="#00b29e" d="M347.8 6L310 39.7l57.5 1 139-.2" />
      <path fill="#8bdfc5" d="M588.7 603l68.2 3-2-6-21 .7" />
      <path fill="#baf5ac" d="M655 252.3l6.5 15.4-8.8-10.7-27-2.4" />
      <path fill="#fd73bd" d="M937 411l12-39.8-40 25 14 21.2" />
      <path fill="#fab29e" d="M865.5 610.5l.8-3.5 4.8-7-19 1" />
      <path fill="#5595d4" d="M728.3 181.6l-2.4 28.2 12-4 2-20" />
      <path fill="#d4b5e5" d="M394 360.5l.5-41 9.2 64.6-37.7-44" />
      <path fill="#546570" d="M17.3 340l58.4-.3 18.5-4.5-76.8-.4" />
      <path fill="#cbf5fa" d="M464 601l34-13 9.6 12.5-116-2.8" />
      <path fill="#fff059" d="M294.4 485.8l21 18.2-25.3 8.5 21 .6" />
      <path fill="#fff" d="M500.5 504.2L512 799l4-212.2-26.5-32.7" />
      <path fill="#b8b7b7" d="M505 316.5l-36 11.2 10 5.2 15-23" />
      <path fill="#fff" d="M357 153.8L212 111l167.4 10.5 15 41.7" />
      <path fill="#b1fbff" d="M871.8 737.2l-28.4 15-44.5-12 73 12" />
      <path fill="#41d6e7" d="M743.3 449l24.3 11.8 25.8-1 3.6-8" />
      <path fill="#f7f7f6" d="M561.7 717.4l125.6-.7-141 14 104.6 3" />
      <path fill="#fff" d="M637.3 181.6l-4-33-33-57.4 42.5 42" />
      <path fill="#f9fbf7" d="M319.5 604.5l-64.2 25 118-14.6-155.3 8" />
      <path fill="#fffefe" d="M208 460.5l97.7 29.8-55.3-30 3.2-60.7" />
      <path fill="#a4a1a5" d="M653.8 232.7v8.8l-30 1.6 19.8-12" />
      <path fill="#bff5b1" d="M467.7 252.3l22.7 12 13.4-4.3-17.6-6.5" />
      <path fill="#00b19d" d="M292.2-10.4l6 50L154.8 42 287 33.4" />
      <path fill="#132b3c" d="M37.7 289l-41 34.6 13.4-8.3 13-66" />
      <path fill="#dddbdc" d="M247 476.2l2.5 32.7-3 32-3.7-75" />
      <path fill="#be8de5" d="M3.2 514.4L-9.6 577-31 489l36-10.5" />
      <path fill="#fcfcfb" d="M398.6 344l35-206.7-26.3 232.4-3 24" />
      <path fill="#f3e65c" d="M411.8 491l26 .7.5 1.7L426 511" />
      <path fill="#fffffe" d="M282.7 441.8l92-44-27.3 98.3 54.2-93" />
      <path fill="#e9df7b" d="M293.4 474L276 498l.8-19 12 22.8" />
      <path fill="#fbfbfa" d="M571 727l-224.4 5.5 16.5 2-156-7" />
      <path fill="#89969d" d="M44.5 461.7L27.7 472l15.4-.3-6-115" />
      <path fill="#9d9d9d" d="M537.6 313.8l-12.6 5 14 4.7 3.8-7.4" />
      <path fill="#d8f0e8" d="M734 672l.2 19.5-19 3.8-3.4-15.5" />
      <path fill="#fff" d="M768.7 324.8l-74 4 165 82.2-66-84.5" />
      <path fill="#0e2338" d="M190.4 466.4l-14.8-109-75.8 11 28.8 43" />
      <path fill="#00b4a0" d="M-25.2 57l45-29-5-12.6L-31-31" />
      <path fill="#9b9fa0" d="M470 348.4l-3-1.8 4.2 28 3.3-24.4" />
      <path fill="#dd9ca3" d="M798.8 707.6l15 3.6 51.2-7.5 9.8 7.7" />
      <path fill="#ebc7c0" d="M358 496.4l2.3-23.7 1.5-1.6-1.3 53" />
      <path fill="#fff" d="M909.6 246.2L887 266.6l139.6 108h-88.4" />
      <path fill="#e3c4f5" d="M280.2 587.4l-14 4.5-56.4 11 62.4 1" />
      <path fill="#fff" d="M585.7 782.6l6-48.4-3.8-117.4-10 102.5" />
      <path fill="#fffffe" d="M324.4 113l-4 67-109-4.6 93 89" />
      <path fill="#f1cdbb" d="M475 530.8l-93.5-5-44 5.2 116-.2" />
      <path fill="#c1d5d7" d="M801.6 593.3l3.8 49.3-8-20 30.8-42.3" />
      <path fill="#71d2c5" d="M255 16.2l2.8 11.6-11.6-1-3.7-1.3" />
      <path fill="#f9f7f7" d="M285.7 43L278 75.2l-35.8-3.4 169.4-27" />
      <path fill="#fffffe" d="M837 576.5l27.6 9.7 10 .5-9.6-14" />
      <path fill="#fffefe" d="M804.8 208.3l42.3 34-56-71.6 22-12.5" />
      <path fill="#c4c7c8" d="M455 627l2.3-5.6 11.5-.7 26.3 7.5" />
      <path fill="#dbe279" d="M400.8 474.4l-1 11.4 9.5-10 13.8 1.8" />
      <path fill="#fff" d="M277 309.5l5 15 6.8-89.3L275 127.7" />
      <path fill="#ffe7c7" d="M783 742.7l-76.7 1 97.8 3.5-2-26.8" />
      <path fill="#fff" d="M538 397.2l50.5 69.7-170-6-2 14" />
      <path fill="#fbfafa" d="M250.8 708l209 3.4 43.2-4-70.6-2.8" />
      <path fill="#cfa58a" d="M836 645.3l21 7.6-52.3 1 .4-9" />
      <path fill="#fff" d="M837.6 616l34.6 12.3-88 1-88 19.6" />
      <path fill="#fdfeff" d="M477 525.7l-153.3 36 132.3-23 19-67" />
      <path fill="#0e2438" d="M60.8 629.6l69-178.6-108.3-2.8 148.7-6.7" />
      <path fill="#a2be44" d="M313.3 532.5l7.2-12.8 8-8.3-3.8 16" />
      <path fill="#f9f9f9" d="M383 719.5l207 4-51.3 67.6 35.3-74" />
    </g>
  </g>
</svg>