<svg version="1.1" viewBox="0 0 1024 768" width="1024" height="768" xmlns="http://www.w3.org/2000/svg">
  <path fill="#bccbcc" d="M0 0h1024v768H0z" />
  <g fill-opacity=".5">
    <g class="SVG--0">
      <path d="M-3.755 4.86l201.022-22.304-.59 816.444L-31 766.36" />
      <path fill="#000020" d="M.64 799h195.575l-.165-657.72L8.432 30.18" />
      <path fill="#00ad86" d="M-31 3.834L182.324 41.12 1055 42.53l-37.028-55.63" />
      <path fill="#fff" d="M1052.963 796.3L196.17 799l2.904-752.28 854.603-5.94" />
      <path fill="#00b4ad" d="M1055 31.924L13.827-31-31 100.338l232.478-56.59" />
      <path fill="#33c100" d="M957.62 470.5l42.313-46.137-34.55-54-69.437 63.84" />
      <path fill="#fff" d="M187.663 228.908l742.793 183.55 18.114 25.594L1055 31.674" />
      <path fill="#00ae98" d="M1055-11.356L282.946 11.277 589.58 38.99l448.498 4.912" />
      <path fill="#10ced9" d="M791.153 368.673l-66.74 48.22 40.972 50.185 63.505-33.275" />
      <path fill="#fffff9" d="M847.49 799L673.294 223.67 199.472 74.53l-3.636 705.572" />
      <path fill="#001732" d="M85.935 87.145l109.296 413.16 1.313-388.79-4.028-38.192" />
      <path fill="#080201" d="M477.304 138.087l-57.173 2.93-43.636-.43 31.118-14.715" />
      <path fill="#040205" d="M426.247 219.735l-14.145-6.574-38.076 4.113 28.763 12.62" />
      <path fill="#3f83e2" d="M152.232 84.206l110.203-30.63-251.96-5.368L-9.434 76.57" />
      <path fill="#c7cbb8" d="M731.41 758.973l172.228-220.855 20.013 13.24 22.526 206.322" />
      <path fill="#4292d1" d="M728.626 185.102l74.686 45.682-30.518 14.515-57.226-60.333" />
      <path fill="#ff8100" d="M769.05 369.338l-24.183 18.47 15.243 19.45 15.548 2.878" />
      <path fill="#ef2c8a" d="M940.266 409.343l-39.74 7.915 24.67-38.98 34.475-4.132" />
      <path fill="#908d8f" d="M218.195 546.305l79.37 14.296-7.486 10.384-76.16 15.876" />
      <path fill="#fff" d="M833.013 390.722l200.912 126.527-288.798-1.84 62.53-68.222" />
      <path fill="#fffffa" d="M940.71 792.907l109.8-22.125-6.292-475.97-95.047 224.76" />
      <path fill="#fdffff" d="M363.766 384.636L989.182 47.472l-308.584-5.827-199.05 3.475" />
      <path fill="#ede7aa" d="M525.89 529.446l14.584-50.67-263.042-12.1-6.61 68.182" />
      <path fill="#f1b6b0" d="M644.96 342.622l16.968 51.993-169.743 3.504-29.553-46.925" />
      <path fill="#001b33" d="M6.695 799l190.352-33.142-.476-347.664L-31 590.518" />
      <path fill="#fff" d="M989.16 404.496L886.27 283.843 1055 155.68l-33.335 470.568" />
      <path fill="#ff7030" d="M932.38 764.203l-50.625-6.35 14.587-28.548 27.317.918" />
      <path fill="#47c7d3" d="M895.984 619.68l-4.362-77.024 36.567 1.775-8.304 71.82" />
      <path fill="#08ceb3" d="M347.324 41.255l-358.34-.638L-31 20.652 117.802-31" />
      <path fill="#feffff" d="M438.688 42.802l-158.65-.53 2.574 109.552 289.33-52.282" />
      <path fill="#33cf15" d="M992.55 402.445l-76.13 55.302 58.45 1.457-31.93-94.314" />
      <path fill="#dece9c" d="M213.906 676.79l572.27 14.433-470.89 4.58-108.76-2.827" />
      <path fill="#00b3a0" d="M1045.206 2.766l.545 36.867-251.458 2.86L694.524 4.96" />
      <path fill="#819da4" d="M29.807 470.124l9.108 8.794 7.27-46.055-10.42-111.51" />
      <path fill="#1d8119" d="M654.435 456.296l-70.544 5.26 80.988 1.5-1.04-5.327" />
      <path fill="#84a0a6" d="M33.374 117.687l-1.26 118.577 16.04-83.204 7.032 7.846" />
      <path fill="#fff" d="M804.226 760.31l-.792-272.945L599.282 772.53l243.283-58.09" />
      <path fill="#cad87a" d="M894.477 643.935l126.96 59.148-82.795-2.992-21.937-86.6" />
      <path fill="#e8bb2a" d="M6.135 422.947L5.3 347.335-6.042 208.782 3.304 547.96" />
      <path fill="#9fe9dd" d="M-21.637 27.964l156.517-17.72-40.84 6.335 17.038 9.52" />
      <path fill="#4995db" d="M280.042 128.213l-60.87 3.656-1.323 4.702 38.88 8.764" />
      <path fill="#fff" d="M755.33 235.39l-38.513 317.526-96.844-279.69 152.244-83.183" />
      <path fill="#000b2e" d="M33.815 49.71L-31 43.84l248.245-4.014-55.102 9.994" />
      <path fill="#fff" d="M791.504 435.735l-35.626-9.037 12.526-25.7 20.672 8.63" />
      <path fill="#94b9db" d="M313.02 589.18l244.755 10.624-278.83 7.63 13.408-15.58" />
      <path fill="#18d2e5" d="M394.803 82.275l149.67-4.797-174.525-1.633-92.15 1.855" />
      <path fill="#43dae9" d="M802.077 80.922l-51.485-1.606 276.634-6.17-15.91 8.786" />
      <path fill="#b6e3e4" d="M845.073 220.02l83.53-50.545 75.417 22.244-59.94 63.393" />
      <path fill="#00b09a" d="M655.11 37.994L399.176 42.81l-358.01-5.14L447.283-31" />
      <path fill="#3ccb1c" d="M982.553 452.38l-57.138 2.016-15.572-11.12-7.917-34.825" />
      <path fill="#fff" d="M906.6 266.3L905.57 445.79l-45.646 115.244-90.617-314.01" />
      <path fill="#23c200" d="M563.11 162.063l-.724 9.845-14.668 3.855 2.67-15.376" />
      <path fill="#fff" d="M997.724 47.616L1055 518.736l-197.107-7.28 140.06-72.565" />
      <path fill="#f40" d="M4.6 147.207L2.382 73.76-31 325.58 6.724 211.4" />
      <path fill="#122f42" d="M106.132 131.037L65.807 375.753 216.32 46.57l10.93 11.482" />
      <path fill="#ffa" d="M878.572 613.686l-11.75 60.032 71.817-3.413 15.182-45.2" />
      <path fill="#0dd0ee" d="M746.87 449.597l36.11 6.737L737.71 385l-6.198 42.078" />
      <path fill="#dfc4e9" d="M414.02 337.99l-190.673 23.188 26.257 41.346 162.878 5.575" />
      <path fill="#19d2ee" d="M784.43 401.792l7.532-24.396 29.46 27.663-23.032 55.99" />
      <path fill="#b6d1ad" d="M493.928 148.77l-47.522-2.82-15.67 29.1 66.877 8.808" />
      <path fill="#6bd550" d="M536.444 254.114l28.16-10.206.307 18.93 10.28 4.235" />
      <path fill="#fffeff" d="M946.62 440.027L839.424 286.09l-92.526 85.57 221.788 39.802" />
      <path fill="#97cbff" d="M893.713 674.6L874.2 717.89l64.62-8.453 8.886-35.305" />
      <path fill="#fff" d="M389.364 84.418l-168.286 196.15 164.225 83.84-.448-286.945" />
      <path fill="#021b32" d="M197.36 108.628l-5.97 76.113L58.405 79.2l121.113 2.383" />
      <path fill="#b8cfd0" d="M45.23 539.726l-9.712-2.72-3.27-21.06 9.61-8.1" />
      <path fill="#fff" d="M249.437 407.216L497.74 587.07l-219.157-.39 142.552-177.96" />
      <path fill="#ccc379" d="M802.023 741.424l-3.54 19.477-54.69-.972-14.158-31.933" />
      <path fill="#fff" d="M325.756 583.557l291.994 4.627 267.955-51.778-652.957-6.998" />
      <path fill="#fbffff" d="M203.423 34.71l-7.194 25.653 2.852 181.083 14.564-168.61" />
      <path fill="#a1b9b4" d="M806.192 609.41l71.84-.892-79.087-59.357 63.43-7.91" />
      <path fill="#062238" d="M195.12 292.062L93.007 327.117 193.295 706.71l.543-117.318" />
      <path fill="#928f91" d="M302.496 460.224L242.74 463.3l36.082-13.114 31.126 2.006" />
      <path fill="#e2e049" d="M291.922 488.01l17.79 42.47 21.693.645-6.033-27.247" />
      <path fill="#302e2d" d="M376.984 131.72l10.34-2.294 64.56.213-7.692 16.288" />
      <path fill="#93d0bb" d="M256.962 215.2l-42.02 3.813 39.914 49.4-36.89-11.553" />
      <path fill="#6dd854" d="M407.372 258.504l-31.445 1.405 23.357-21.603 2.452 19.612" />
      <path fill="#57ddea" d="M717.287 76.068l-204.145 8.954-62.716-10.42 116.365 1.187" />
      <path fill="#00b4a0" d="M599.29 1.017l-177.456 38.9 313.688 2.81L1055 9.748" />
      <path fill="#fffffd" d="M941.995 641.258l-148.46 40.607 164.745 6.43L1055 635.47" />
      <path fill="#c5d252" d="M521.925 490.514l20.56 42.325-28.802-7.093 33.235-64.762" />
      <path fill="#2679c8" d="M732.777 214.846l-10.386-14.223 7.987-15.895 18.456 4.102" />
      <path fill="#001d34" d="M5.026 465.19L19.7 799l14.098-356.18L5.732 121.174" />
      <path fill="#98b3b7" d="M42.1 312.852l-.383-43.68-1.705-13.82-10.474 58.312" />
      <path fill="#38daea" d="M720.34 83.99l65.583-.96-221.358-5.108 281.976-1.35" />
      <path fill="#a8bf6d" d="M414.62 486.87l6.59-22.056 18.305 24.927-21.698 40.265" />
      <path fill="#55d634" d="M377.538 175.408l29.01-3.813-19.448-14.917-.395 11.59" />
      <path fill="#082238" d="M4.596 78.24l2.367 294.08 25.67-238.252 93.86-44.5" />
      <path fill="#fff" d="M413.437 391.076l-42.79 66.9 129.73 38.925 196.042-83.81" />
      <path fill="#d6ca11" d="M904.196 629.15l-16.977 23.372 32.4-4.618 5.948-3.494" />
      <path fill="#448ccf" d="M810.06 219.335l-20.2 21.84-33.75-6.06 1.178-13.428" />
      <path fill="#35c815" d="M972.967 455.756l16.392-32.967-5.175-20.607-27.38-6.1" />
      <path fill="#fff" d="M874.646 81.08l180.354.7-10.635 94.63-228.11-2.22" />
      <path fill="#b070d0" d="M590.193 229.35l-47.836-4.787 8.94-8.527 39.647.65" />
      <path fill="#2d83c6" d="M198.947 74.443l25.71 6.33L-31 74.32l211.057-26.206" />
      <path fill="#d5b2a6" d="M342.578 176.576l-70.46.846 63.47-29.41-70.61-.6" />
      <path fill="#ff8f68" d="M221.022 172.845l31.18 4.18-24.876-24.147-3.02 7.144" />
      <path fill="#aaa7a9" d="M197.135 110.816l10.132-2.317 52.932-9.333 30.832 12.385" />
      <path fill="#204051" d="M102.036 103.697l-60.244 42.028 13.635 474.708 75.164-487.126" />
      <path fill="#fff" d="M462.62 82.72l-44.335 319.978 1.688-256.153 407.2-65.8" />
      <path fill="#b2a2b4" d="M874.268 647.628l-63.815-17.434 51.717 87.17-60.085-7.384" />
      <path fill="#d2c5c1" d="M542.08 749.098l-23.003-73.532 238.192 12.53-192.946 8.146" />
      <path fill="#72add0" d="M743.714 319.236l75.01-.97-41.69 8.942-72.998-7.89" />
      <path fill="#d8bce2" d="M676.03 144.72l-147.318-1.246 62.042-30.36 44.636 47.97" />
      <path fill="#8edeca" d="M588.566 589.997l50.63-2.704 24.882 21.4-65.747-4.98" />
      <path fill="#999798" d="M327.718 317.71l-62.503-7.776-26.78 10.338-22.07.33" />
      <path fill="#b6d0ae" d="M491.914 230.73l2.004 32.102-23.422 4.558-6.192-27.225" />
      <path fill="#fff" d="M850.492 747.78l195.81 20.59-304.826 5.524 67.212-21.322" />
      <path fill="#8e8c8b" d="M921.34 367.15l-51.305-9.165 66.236 2.04-6.358 6.407" />
      <path fill="#8e8d8e" d="M210.777 553.92l74.985 25.295 3.955-11.628-2.48-14.34" />
      <path fill="#fff" d="M198.648 332.555l.333 163.828 71.81-61.59-74.218-290.008" />
      <path fill="#aada00" d="M5.007 270.412l-1.46 165.966L-31 412.796 3.894 215.97" />
      <path fill="#fff" d="M718.41 440.705l-73.124-147.58 28.356 224.92 225.82-3.758" />
      <path fill="#98bc8e" d="M992.505 682.067l-60.916 17.977 66.334 2.9 18.525-6.526" />
      <path fill="#a2c19b" d="M626.576 263.267l35.632-34.397-33.42 6.114 32.062 28.93" />
      <path fill="#d2ddeb" d="M15.383 67.866l39.144.323.085-4.865-33.72-3.57" />
      <path fill="#ae7dff" d="M2.984 486.688l4.415 62.76-38.4-74.91 38.435 6.988" />
      <path fill="#b9d4b2" d="M332.936 266.144l.518-38.048-21.968 8.242-12.71 26.388" />
      <path fill="#36c917" d="M947.858 405.103l3.947-31.326 27.292 16.06 6.156 3.734" />
      <path fill="#ffa142" d="M734.176 394.196l43.057-23.643-3.986 43.235-34.602-23.834" />
      <path fill="#fffdfd" d="M364.424 585.063l-3.79 135.56-109.92-163.282 23.06 154.865" />
      <path fill="#8b8988" d="M715.302 359.71l5.354 3.963 47.53 2.918-22.53-9.065" />
      <path fill="#d5d3d5" d="M960.508 554.137l57.22-1.733-1.97-29.816-375.06-5.728" />
      <path fill="#9f9c9e" d="M536.45 320.267l-61.757.454 39.41-12.358 22.232 4.247" />
      <path fill="#0dcc86" d="M926.03 603.53l-4.186-16.513-27.827-3.725-1.082 17.257" />
      <path fill="#fdc2ac" d="M885.54 719.466L1055 739.22l-108.3 1.312-67.393-11.02" />
      <path fill="#f0b1a7" d="M447.087 696.326l190.72-11.314-173.683-7.532-19.56-.413" />
      <path fill="#36d2eb" d="M219.078 82.245l-56.852-7.674 123.865 3.167 6.765.71" />
      <path fill="#fff" d="M535.277 324.513l328.82-166.206-339.626 206.98-83.365-49.548" />
      <path fill="#5a906e" d="M305.82-9.372L181.15-31l147.016 54.635-62.596 6.705" />
      <path fill="#fff" d="M246.434 82.505l188.587-1.49 181.396.933-285.03 59.428" />
      <path fill="#fefff6" d="M240.73 78.718l-29.45-7.238 74.292-29.955-69.43 1.214" />
      <path fill="#414041" d="M391.28 225.53l-4.094 2.28-.88-19.047 38.874 20.352" />
      <path fill="#91a2a8" d="M44.258 346.498l-16.954 69.087 16.398-24.395-15.43-25.456" />
      <path fill="#5298da" d="M927.65 703.035l-18.12 3.957-23.548-7.7 24.527-18.646" />
      <path fill="#ff611f" d="M928.69 750.2l-26.61 2.295L882.497 738l37.547-4.053" />
      <path fill="#fff" d="M863.68 303.19l83.69 73.356 107.63 10.67-6.704-226.82" />
      <path fill="#838c99" d="M239.297 56.888l-8.127 7.175 58.677 2.122-7.203-7.8" />
      <path fill="#a5a29c" d="M1010.484 471.822l-16.993 5.81-99.29-1.737-2.805-1.726" />
      <path fill="#cec3da" d="M233.62 644.258l-17.986-51.866 54.462.477 7.826 9.727" />
      <path fill="#fff" d="M815.823 471.55l2.117-91.616 74.533 13.923 30.933 80.17" />
      <path fill="#fcffff" d="M904.09 659.217L661.656 527.174 648.44 702.32l211.663-88.637" />
      <path fill="#cabfa1" d="M943.783 589.913l-27.03-7.508 93.204-1.618 1.452 9.155" />
      <path fill="#fff" d="M858.782 711.096l24.222 22.608-156.05-8.467 107.173-5.115" />
      <path fill="#37d7eb" d="M783.817 462.708l20.303-10.283 2.25-33.336-68.485 31.048" />
      <path fill="#c8a687" d="M977.84 628.537l-36.564 8.478 79.802-.618-61.093-12.057" />
      <path fill="#a0d4ec" d="M802.938 551.072l140.034 43.396-.548-67.18 1.915 25.07" />
      <path fill="#b7dbab" d="M660.403 175.23l-40.414-29.633 38.406 3.368-40.406 33.742" />
      <path fill="#ff66ce" d="M947.373 413.415l-1.377-31.79-27.776 2.637-16.414 28.22" />
      <path fill="#264152" d="M76.02 541.65L33.34 410.18l76.543-21.924 37.363 50.403" />
      <path fill="#fff" d="M784.662 315.28l153.886-231L785.44 247.822l-328.574 42.09" />
      <path fill="#a9b5b7" d="M40.616 106.593l.635 53.824-7.17-7.19-1.655-19.054" />
      <path fill="#041d32" d="M-31 222.34l222.8-2.664-74.71 60.437-31.963-39.72" />
      <path fill="#fff" d="M216.133 149.81l231.76 108.296-242.96-53.064 105.2-74.972" />
      <path fill="#647583" d="M.17 497.836L-31 524.966l52.565-36.658 95.63 9.85" />
      <path fill="#fffcff" d="M267.598 544.213l-6.243 91.647 21.717-114.155-89.745 36.942" />
      <path fill="#aee3e0" d="M437.003 585.225l31.58 46.164 25.16-25.204 150.183-2.664" />
      <path fill="#0a2238" d="M-31 540.927l67.204.095 150.902-4.465L27.546 799" />
      <path fill="#b2e7de" d="M106.02 19.28l34.294 7.29-41.126-.04-70.57-2.237" />
      <path fill="#011c31" d="M115.55 319.937L10.67 352.325l111.02 3.975-141.04-43.782" />
      <path fill="#fff" d="M396.934 464.124l166.076-1.012-93.91-89.483 3.95-193.758" />
      <path fill="#c4c9cb" d="M303.1 698.794l4.683 57.848 27.242-15.994-3.258-43.91" />
      <path fill="#fff" d="M524.603 799L236.23 766.56l255.738-37.236 20.635-76.255" />
      <path fill="#607780" d="M150.56 275.682l-88.458 6.722 32.28-.33 69.432 2.94" />
      <path fill="#ff521e" d="M3.154 222.914l1.558-108.028.614-36.326L-31 127.175" />
      <path fill="#fff" d="M669.405 81.117l-452.13 6.48 379.267 42.643L1055 88.076" />
      <path fill="#86dec7" d="M708.034 582.24l-15.91-4.11-25.063 10.508 59.334 1.356" />
      <path fill="#c1e541" d="M637.648 463.61l-10.018-9.2-30.118 2.95 13.496 7.822" />
      <path fill="#c7ced2" d="M411.362 626.09l5.847 29.936-37.294 10.47 3.12-81.604" />
      <path fill="#fff" d="M199.867 432.452l16.737 145.074 26.554-2.768-46.018 31.202" />
      <path fill="#98f2a0" d="M273.427 679.744l-57.977 1.12-8.176 10.785 69.144 4.13" />
      <path fill="#d5f2ea" d="M788.45 135.465l33.757 89.714-54.187-4.653-25.27-23.668" />
      <path fill="#fff" d="M596.035 735.72l331.96 52.64-354.972 8.956 13.594-282.84" />
      <path fill="#70838b" d="M155.17 359.68l-74.698-2.555-48.63 3.02 9.13 4.295" />
      <path fill="#888" d="M249.54 547.36l3.39 31.046-43.376-3.925 12.292-6.927" />
      <path fill="#b2bfb7" d="M115.608-3.89l37.953 1.578-61.89 1.97 140.214.347" />
      <path fill="#76d7e5" d="M872.04 644.29l-38.905-12.664-37.462 15.175 51.966-1.64" />
      <path fill="#dce47e" d="M461.174 521.14l-41.393-27.916-33.327 41.8-8.923-15.803" />
      <path fill="#89e65f" d="M224.002 261.61l-2.115-23.84 16.046 16.225 8.718 1.56" />
      <path fill="#fbebcd" d="M675.146 531.137L509.6 471.103l162.005 3.34-129.228 56.58" />
      <path fill="#fff" d="M220.085 119.113l-.305 130.045 157.71-37.26-172.787 19.52M497.04 529.016l39.026-67.102-152.284 116.498 135.592 23.06" />
      <path fill="#b3b3ab" d="M715.58 472.746l137.67 1.853-63.04 4.555-50.793-1.3" />
      <path fill="#6da3eb" d="M249.168 228.883l-18.606-1.706-13.756-11.535 30.7-3.023" />
      <path fill="#66b8d9" d="M714.514 682.943l6.268 6.637-24.8.926-10.143-7.56" />
      <path fill="#90dcd1" d="M185.06 30.373L185.77-31h27.648l-39.885 52.544" />
      <path fill="#a4dca8" d="M736.898 638.49l-38.736-11.863-22.94 8.03 34.26 1.483" />
      <path fill="#fff" d="M627.514 455.776l92.49-44.016 50.898-46.525-89.806 1.454" />
      <path fill="#ffad00" d="M5.116 460.75L1.91 333.24-31 510.474 4.404 474.55" />
      <path fill="#00162d" d="M44.4 493.416l-21.21-19.57 81.096 1.364 44.104 10.57" />
      <path fill="#7d8d94" d="M32.856 215.69l4.89 4.684 6.056-26.464-2.33-81.603" />
      <path fill="#00152a" d="M113.024 182.128l4.597-8.102-93.552-2.138 12.005 6.23" />
      <path fill="#fafffd" d="M825.86 582.036l131.67 3.038-124.583-16.255-221.015 44.055" />
      <path fill="#fff" d="M773.36 400.868l-14.705 15.734 26.002 16.908 2.036-17.38" />
      <path fill="#cacecf" d="M605.39 705.954l34.533-12.71-2.583 46.488-29.838-.155" />
      <path fill="#00b29f" d="M897.218 2.538L1055 5.684v34.703l-341.116-.294" />
      <path fill="#ff490f" d="M239.23 163.496l-.684 8.992-6.525.944-11.867-5.422" />
      <path fill="#072338" d="M5.887 144.57l153.854 5.645-128.706-10.77 1.756 165.76" />
      <path fill="#fdabb8" d="M886.802 663.692l-83.453 1.635-5.037-16.39 61.77-1.797" />
      <path fill="#5d6b72" d="M8.748 102.047L-31 136.547l49.844-44.01 59.253 5.576" />
      <path fill="#6a6c15" d="M899.122 642.013l5.852 2.268 15.22-.5-14.347-9.028" />
      <path fill="#36daea" d="M287.902 75.613l-55.606 1.27-11.476 3.51 133.25.617" />
      <path fill="#acc0c2" d="M30.68 263.342l4.13 7.124 11.003-3.78-13.055-8.73" />
      <path fill="#2e8592" d="M660.633 464.742l-23.913-1.456-17.992-1.208 49.357-8.175" />
      <path fill="#b5aa9d" d="M818.944 608.668l24.12 9.764 11.618-35.315-53.953 22.976" />
      <path fill="#fff" d="M299.914 360.18l207.264-81.025-286.544-21.292 159.788 98.66" />
      <path fill="#cacfcf" d="M383.193 699.944l-7.878 41.924 31.4-1.122 3.98-39.145" />
      <path fill="#c797e0" d="M619.404 128.683l2.616 12.62-82.938-1.105 8.544-12.906" />
      <path fill="#fff" d="M816.107 686.975l63.898-4.486-126.424-32.184L649.566 799" />
      <path fill="#b4f0d8" d="M942.288 625.644l-86.974-12.637 63.325-10.468 25.23-47.892" />
      <path fill="#fff" d="M560.712 340.35l-26.582 33.364-52.903-39.05L945.46 320.67" />
      <path fill="#ffa683" d="M931.066 760.253l-60.217-1.113 9.03-38.14 66.498 40.39" />
      <path fill="#0a2638" d="M71.798 307.98l-41.324-23.132 136.774 1.092-169.512 13.793" />
      <path fill="#4c606a" d="M104.42 532.88l-51.543-5.987-12.953 11.96 42.957-.092" />
      <path fill="#fff" d="M998.82 465.838l-263.885 2.315 161.588-31.94 37.674 24.342" />
      <path fill="#00b39f" d="M528.534 43.32l-230.38-27.55-248.91 1.16L341.65-.233" />
      <path fill="#dbe" d="M212.297 525.013l18.11-4.194 4.53-47.416-22.676 3.64" />
      <path fill="#babfcd" d="M298.024 593.11l32.112-.634 5.12 45.16-26.5.057" />
      <path fill="#a8c2ba" d="M309.912 2.574L385.562-.8 519.25-.828l-356.4-2.857" />
      <path fill="#111112" d="M418.97 221.826l-10.353 12.498 9.537-17.423-32.288-2.036" />
      <path fill="#10484b" d="M157.4 718.756L92.2 799l-32.938-89.607 110.645 85.368" />
      <path fill="#414141" d="M456.168 137.133l-63.155 6.116-11.802-15.174 30.073 9.5" />
      <path fill="#4e5f6b" d="M123.685 156.05l-91.02-20.77 93.888-.86L33.6 157.532" />
      <path fill="#14db2b" d="M3.007 223.01l-32.69 45.585L-31 348.332l35.594-33.14" />
      <path fill="#c5d267" d="M545.22 531.637l-18.352-17.848-42.13 17.4 47.402-1.52" />
      <path fill="#fff" d="M962.073 428.853l-23.026-1.51.19-18.406 17.407-1.876" />
      <path fill="#576872" d="M50.9 163.26l5.138 10.055 28.4-1 71.226-2.8" />
      <path fill="#edbbaf" d="M663.344 362.643l-114.478-14.105 62.325-2.9 21.854-13.2" />
      <path fill="#a295a3" d="M490.446 156.54l-52.527.834 10.19-10.15 49.035 2.097" />
      <path fill="#e5b5aa" d="M484.902 340.64l15.785 10.214 81.26 63.76-106.28-73.5" />
      <path fill="#dee173" d="M303.193 507.89l52.585-31.11-26.852-4.302 1.084 24.58" />
      <path fill="#988f99" d="M466.37 237.702l25.277 5.1 4.1-10.474-25.062 1.915" />
      <path fill="#cbd0d1" d="M256.034 734.22l3.25-34.162-34.584-.822 7.47 47.75" />
      <path fill="#cccacb" d="M792.402 522.9l-112.19-4.114-1.925 15.25 75.648.105" />
      <path fill="#90bfb8" d="M895.392-2.037l158.115.714L917.83-.74l95.947.88" />
      <path fill="#c0d769" d="M298.193 471.365l-5.344 3.077-15.26 24.62-2.738 27.14" />
      <path fill="#fff" d="M841.05 324.238L592.817 83.298l361.134 1.038-351.218 124.03M257.333 141.104l55.95 75.992-49.466 94.137-26.76-160.872" />
      <path fill="#4e636e" d="M115.334 336.22l-4.886-.682-89.048 6.985-17.484-10.74" />
      <path fill="#fffdff" d="M251.527 555.713l39.878 144.447-37.616-157.526-59.86-18.884" />
      <path fill="#a6d998" d="M730.572 759.94l2.317-15.523 54.265 10.75 40.18 2.296" />
      <path fill="#8dded2" d="M129.483 17.236l-19.965 9.485-80.314.118-16.38-7.3" />
      <path fill="#fff" d="M443.07 141.078l-94.625 1.073 51.836 21.526 66.097 191.78M703.804 130.105L545.382 98.4 543.78 266.22l-62.402-138.91" />
      <path fill="#677780" d="M27.533 438.777l4.475 2.156 147.958-.8-34.79-5.09" />
      <path fill="#fdfdfe" d="M341.65 678.227l220.21.074-154.973-182.077 123.44 117.075" />
      <path fill="#49c92c" d="M977.175 438.912l-63-14.323 21.308 36.183 45.162-47.257" />
      <path fill="#fff" d="M443.856 529.4L434.263 799l-10.76-211.576L840.46 536.68" />
      <path fill="#74acdf" d="M267.732 128.318l11.585 10.823-24.283 3.956-25.397-13.916" />
      <path fill="#fff" d="M911.74 711.394l105.548-12.457-5.235-208.154 41.07 252.074" />
      <path fill="#586d79" d="M56.97 297.25l4.48 3.156 92.68-3.992-94.503-5.25" />
      <path fill="#c7ccce" d="M453.2 726.618l37.99.89-4.75-20.793-24.975-12.02" />
      <path fill="#fffcfa" d="M553.08 74.77l-25.264-31.43-54.95-.35-152.804.974" />
      <path fill="#4d351e" d="M218.296 49.953l.432 3.112 11.343 19.19-15.397-10.307" />
      <path fill="#adebdf" d="M869.828 619.987l47.78-56.772-111.454 34.304 144.216 10.304" />
      <path fill="#70a082" d="M428.235 484.71l-14.337-19.99 2.646 29.118 15.19-25.435" />
      <path fill="#8cded4" d="M833.976 738.63l44.804 9.922-83.09.02 30.658-19.01" />
      <path fill="#a69da8" d="M661.69 238.88l-31.285 7.155 1.84-18.954 24.295 10.586" />
      <path fill="#051f35" d="M32.056 397.685l2.294-76.702-22.606 81.58L185.5 401.31" />
    </g>
    <g class="SVG--1">
      <path fill="#b0afaf" d="M653.98 557.212l.67 7.405-2.394 5.464-18.317-14.24" />
      <path fill="#fff" d="M386.372 54.007l-2.252 139.63 18.25 12.315-32.007 19.803" />
      <path fill="#43ca25" d="M922.952 455.33l-15.298-30.82-2.67-12.317 29.95 10.852" />
      <path fill="#556973" d="M120.888 465.435l1.184-3.932-3.76 13.584-101.44-6.79" />
      <path fill="#ded7ec" d="M890.892 755.89l3.59-58.625-38.084-49.783 24.208 99.827" />
      <path fill="#fff" d="M341.956 522.543L471.85 406.406l-276.303.017L370.674 480.3" />
      <path fill="#6190e2" d="M896.28 548.912l30.94-2.395-8.923 23.185-28.744-10.042" />
      <path fill="#69747d" d="M69.773 429.672l157.002-79.46 6.366 39.174-.42-42.258" />
      <path fill="#fff" d="M943.06 597.343l.003 28.203 111.937-9.84-66.153-25.47" />
      <path fill="#576a74" d="M109.053 126.353l-77.504-3.47 81.78-5.426 10.517-2.622" />
      <path fill="#33d3e8" d="M773.302 372.157l-4.016-.605 44.657 19.96-35.442 12.753" />
      <path fill="#e6dad1" d="M467.183 482.177l110.94-13.293-98.28-.97-96.69-.852" />
      <path fill="#676767" d="M367.663 132.855l81.334-.094-18.975-6.316 22.386 14.87" />
      <path fill="#aee3db" d="M250.904 9.994l1.727 16.354-6.515.558-7.685-.248" />
      <path fill="#cacfd0" d="M561.723 611.662l-30.464 1.712.42 23.3 27.424 13.538" />
      <path fill="#66757f" d="M130.775 201.85l-4.808-4.904-111.947 1.44 79.86 5.54" />
      <path fill="#cfbea9" d="M993.122 547.696l15.88 3.59-100.682 3.815 85.53-13.17" />
      <path fill="#fff" d="M734.642 532.38l.954 174.145 65.552 33.772-2.45-190.722" />
      <path fill="#0c2439" d="M125.886 491.91l-99.94 14.444 58.37 23.35-57.135-.982" />
      <path fill="#fff" d="M668.212 164.76L217.666 75.68l21.352-34.4L228.6 92.792" />
      <path fill="#fffeff" d="M212.678 765.88l.715-317.174L196.518 552.6l1.553 228.515" />
      <path fill="#455b68" d="M54.674 392.813l56.192-19.16-59.214-1.277 78.558 23.566" />
      <path fill="#978eac" d="M221.286 591.533l-12.063 10.024 11.604-3.33 31.233-.532" />
      <path fill="#fff" d="M416.983 129.266l86.904-4.11-84.822-44.913L192.07 127.45" />
      <path fill="#81b1bd" d="M828.166 714.94l15.354-.75-37.042-17.503 66.5 2.796" />
      <path fill="#00182d" d="M49.243 136.705l-39.114-27.62 33.96 19.14 2.47 87.336" />
      <path fill="#fff" d="M938.763 251.896L879.73 385.77l-106.123-11.157-56.23 16.86" />
      <path fill="#adf09d" d="M436.848 174.304l17.055-8.364 57.47 7.312-67.415 4.35" />
      <path fill="#64d548" d="M401.834 163.56l-4.988-2.344-14.356.256 12.61 19.17" />
      <path fill="#fff" d="M198.35 352.54l44.054-103.594 312.13 62.113-320.086 1.312" />
      <path fill="#242424" d="M384.956 128.85l4.655 1.927 6.697 4.78 36.11-5.48" />
      <path fill="#fff" d="M263.106 520.11l397.608 70.976-377.577-7.31 31.98-61.04" />
      <path fill="#00b59f" d="M152.668 41.218L18.038 25.353 6.656-31-4.18 40.898" />
      <path fill="#586d78" d="M49.65 312.38l119.153 5.608-48.703-8.372-88.292-.85" />
      <path fill="#fff" d="M922.93 764.76l105.643-33.112-6.41 67.352-295.454-39.837" />
      <path fill="#425562" d="M62.51 431.674l60.853-24.872-81.197-4.97 100.62 21.547" />
      <path fill="#00172b" d="M75.91 449.53l-55.443-1.65 13.62-5.723 151.84 3.622" />
      <path fill="#8490b9" d="M292.274 599.218l-3.197-6.964 29.13.082 7.322 6.907" />
      <path fill="#01182d" d="M7.28 407.81l11.966 9.287 38.63.89 97.56.35" />
      <path fill="#fff" d="M195.55 198.028l305.76-35.487-95.058-12.222 86.428 70.452M992.59 353.808l-5.18 110.786-55.542 16.527 86.127-59.257M243.155 539.685l-11.337 31.395.283-195.73 12.162 66.462" />
      <path fill="#f3eff6" d="M285.934 593.178l-45.158-24.072.536-35.335 23.303 148.1" />
      <path fill="#60d143" d="M552.454 262.59l12.97-14.535-21.375 12.328 8.04-18.897" />
      <path fill="#13112e" d="M205.966 47.023l-105.605-3.82-117.417-.005 11.202 6.444" />
      <path fill="#d6ebe6" d="M775.426 245.063l16.54 26.954 7.532 44.146 28.58-50.524" />
      <path fill="#a68a8c" d="M528.267 689.018l24.057-6.607-37.65.684 31.574 13.75" />
      <path fill="#bc6d3e" d="M297.82 24.38l.102-5.143 29.06 2.197 7.377 3.07" />
      <path fill="#577176" d="M51.68 244.623L-.27 243.11l23.293-6.346 57.112 6.504" />
      <path fill="#fff" d="M449.868 232.87L377.708 251l-133.315 4.31 169.397-28.744" />
      <path fill="#a3acb1" d="M328.94 146.835l8.554 8.027-4.417 4.2-52.503-5.307" />
      <path fill="#a69ea8" d="M307.088 242.548l38.583-7.322-38.947-2.77 1.877 7.4" />
      <path fill="#4b9e7b" d="M424.87 503.108l-4.314 22.27-5.595-8.544 14.783-7.586" />
      <path fill="#fffeff" d="M385.222 90.14l-72.226 122.353 216.888 251.532L384.628 274.87" />
      <path fill="#cf93ff" d="M-15.502 650.017l12.408-57.362 4.292-114.2 4.12 16.98" />
      <path fill="#919090" d="M893.902 359.722l-5.4-3.945 37.856 6.308-30.884 4.88" />
      <path fill="#3bf2ff" d="M5.086 46.865l-2.36 30.782L-31 105.56V91.192" />
      <path fill="#f7692d" d="M930.28 751.572l-38.7-.382 8.26-31.518-4.49 22.544" />
      <path fill="#e0c6ee" d="M316.813 374.076l117.644 6.787-218.06 2.788L309.1 339.3" />
      <path fill="#bdc8c8" d="M43.794 537.026L34.21 514.39l-.634 19.633 2.428 4.697" />
      <path fill="#7eadd2" d="M821.948 323.46l-44.104 1.122-35.042-6.476 39.95-1.252" />
      <path fill="#5b7c89" d="M458.015 593.522l-12.33 1.22-.29 4.886 29.764-5.218" />
      <path fill="#99a5aa" d="M32.85 198.23l4.282-10.685 53.12-3.642-56.994-2.393" />
      <path fill="#001a2e" d="M131.048 385.228l-2.363-3.493-125.337-2.592 58.255 8.873" />
      <path fill="#00b3a0" d="M586.462 3.888L363.697 2.754l-44.07 35.665 146.375 3.39" />
      <path fill="#a3afb2" d="M33.996 347.04L45.83 364.2l-4.464 5.238-6.463 55.14" />
      <path fill="#0f2538" d="M30.813 412.533l-1.426-49.99 17.804 4.783L4.138 379.69" />
      <path fill="#fff" d="M557.185 108.058L1055 78.215l-24.305 121.802-106.835-50.222M222.12 345.247l1.566-218.743-25.59-15.84.597 299.458" />
      <path fill="#ffd0c0" d="M944.305 722.114l-21.888-1.667 4.53 61.16 16.014-32.328" />
      <path fill="#cac0a9" d="M982.836 727.64l36.395 9.66-38 1.9-45.03-1.338" />
      <path fill="#d9eeea" d="M978.2 300.42l-5.56-29.145-112.61-94.982 92.988 117.63" />
      <path fill="#ffffc0" d="M957.152 662.303l-79.28 10.405-7.993-61.874 32.132 39.535" />
      <path fill="#fffdff" d="M452.882 505.163l22.787 5.72-45.195-34.778 21.633 51.918" />
      <path fill="#c1e3ea" d="M964.165 220.485l-31.86-82.36-9.736 38.434-63.928 25.485" />
      <path fill="#50cb34" d="M982.905 445.282l6.43-22.645-13.62-40.264-28.583 11.803" />
      <path fill="#7daf52" d="M331.445 522.06l-12.66.003 3 7.73-.192-26.876" />
      <path fill="#ffcd9e" d="M340.358 678.95l157.332 14.343-142.597-.05 72.392-12.856" />
      <path fill="#e3f3ff" d="M853.03 532.823l-34.84 6.107 119.525 10.385 50.878-15.357" />
      <path fill="#f4f7f5" d="M720.008 43.165L892.312 74.33 1055 78.008l-44.523-36.056" />
      <path fill="#fff" d="M793.553 419.18l-13.828-15.855-16.76 21.374 4.92 8.04M680.402 384.746l-229.12 77.283 162.443-15.306 161.97 31.484" />
      <path fill="#f2d2b5" d="M742.773 754.732l93.604-19.952-103.923-7.128-22.312-25.166" />
      <path fill="#40d4e6" d="M742.697 389.67l21.68 23.325-25.912 40.48-2.245-39.3" />
      <path fill="#fff" d="M238.218 577.237l181.054-.03L263.76 590.87l-67.324-6.515M551.046 289.88l-298.17-56.295 592.037 150.043L570.15 228.61" />
      <path fill="#0c2338" d="M197.15 212.217l-64.197 107.4-10.83 97.066 62.64 34.877" />
      <path fill="#061e32" d="M-10.64 244.112l86.794 19.62 68.802-20.543 35.5 4.31" />
      <path fill="#0d2337" d="M194.482 80.842l-2.4 270.71-81.35-269.487 45.595-.963" />
      <path fill="#00162a" d="M2.203 426.745l102.8 1.002 63.575 6.545-115.467.048" />
      <path fill="#82bdb3" d="M1055 1.385L997.68-.95l35.252-.07L997.777-31" />
      <path fill="#b3afa6" d="M804.896 476.952l29.307-5.205-126.672 5.025 52.573.252" />
      <path fill="#fbef79" d="M625.195 482.7l13.39 49.242 3.062-21.896-25.1-26.15" />
      <path fill="#2b71af" d="M192.05 48.25l5.922 33.587-32.835-1.557L-31 81.79" />
      <path fill="#f8f7ff" d="M414.75 498.907l-6.314 6.933-46.203-30.43 53.038 7.587" />
      <path fill="#071e33" d="M33.685 246.713l-14.318-46.737 173.156 19.342-163.025-11.905" />
      <path fill="#d5db75" d="M465.59 496.667l-6.43 22.983-24.363-4.86 5.475 11.804" />
      <path fill="#f9fcf2" d="M198.817 40.642l-1.852 116.673 3.19-86.035 20.43-28.02" />
      <path fill="#dcc3e9" d="M332.87 388.42l24.912-27.315 37.27-37.608 7.478 34.618" />
      <path fill="#acabac" d="M245.03 313.543l50.362 8.847 30.493-8.482-50.375-.87" />
      <path fill="#ff9635" d="M777.214 373.598l-39.697 16.115 15.85 2.743 19.255 13.213" />
      <path fill="#79d4c7" d="M224.537 11.7l-13.964 8.92-7.28 2.956 15.87 3.222" />
      <path fill="#818181" d="M287.727 561.342l1.15 10.72-9.04 9.07-6.202-32.05" />
      <path fill="#c1cbf9" d="M904.533 708.273l30.507-6.167 10.463 17.97-155.26.626" />
      <path fill="#fff" d="M309.887 340.726l6.04 34.103 120.717-86.55-229.122 56.39" />
      <path fill="#737373" d="M235.49 560.77l-8.208-10.785-2.764 15.437-10.13 13.176" />
      <path fill="#2f2f2f" d="M380.972 130.776l47.46-.607 22.025-2.035.713 7.015" />
      <path fill="#0a2136" d="M-19.82 653.457L7.64 524.08l149.88-4.085-133.238 8.693" />
      <path fill="#04172c" d="M80.09 189.865l-111.09-1.1L85.268 196.3l64.92-12.717" />
      <path fill="#909fa2" d="M470.284 350.74l1.032 2.76 7.567 7.64-11.406 15.91" />
      <path fill="#fff" d="M454.807 257.003l92.917-150.253-110.408 139.18 165.346-8.436" />
      <path fill="#57b3b0" d="M492.424 498.117l-12.1-9.492-.765 6.54 1.515 3.984" />
      <path fill="#fff" d="M594.338 81.89l-134.196.388-18.732 18.087 12.46 52.126" />
      <path fill="#5f6f78" d="M124.096 419.312L31.07 424.76l98.814 1.448 7.505-6.48" />
      <path fill="#fff" d="M685.472 518.165l-76.34 6.486 156.775-48.79 258.332 37.4" />
      <path fill="#fffeff" d="M933.426 404.366l1.6 25.09 25.85-8.878-2.175-15.16" />
      <path fill="#fffffe" d="M351.355 605.02l92.46 2.18-88.765 5.423-149.645-6.613" />
      <path fill="#00b29f" d="M577.957 4.363l32.03 35.968 95.416.632 191.28-38.24" />
      <path fill="#93e9f2" d="M490.856 592.767L419.282 605l97.728-.07-11.266-.99" />
      <path fill="#081e33" d="M35.617 418.752l-6.01-15.746 160.637-7.84-173.5.015" />
      <path fill="#b5b4b4" d="M385.27 395.888l-132.6 1.52-17.666-4.172 42.82 1.114" />
      <path fill="#df9b89" d="M560.364 343.088l-8.256 9.034-22.583 29.258 31.153-28.092" />
      <path fill="#75d75c" d="M404.084 260.763l-11.163-5.25-6.087-17.286.41 21.603" />
      <path fill="#aaaaab" d="M255.367 101.298l36.08 8.355-57.68-.84-42.387-3.672" />
      <path fill="#00af9c" d="M124.618 31.766l-6.7-14.35 135.757 23.39-147.615.892" />
      <path fill="#072137" d="M52.31 345.357L30.806 356.78 4.943 189.204l41.73 186.102" />
      <path fill="#fff" d="M1055 668.885l-109.965 16.51-10.254 36.97 13.283-75.907" />
      <path fill="#72d950" d="M244.72 247.336l-4.3 7.81-12.85 10.693-3.08-18.242" />
      <path fill="#26ccd4" d="M958.134 79.365l96.15-4.69-38.845-72.918 28.975 80.07" />
      <path fill="#d1a26a" d="M847.91 645.513l26.015 8.707-3.462.78-63.41-1.9" />
      <path fill="#091f32" d="M77.667 165.75l82.856-4.743-139.506-4.725-14.818.32" />
      <path fill="#5cd9d4" d="M804.374 559.198l48.168 2.582-3.116-11.01-36.87 10.5" />
      <path fill="#586872" d="M74.44 515.498l-26.734 1.057 7.216 7.667 38.254-4.745" />
      <path fill="#fff" d="M1039.267 555.06l-118.687-2.536 40.472 26.754 44.746.023" />
      <path fill="#64757d" d="M112.337 217.364L99.46 211.82l-68.372 7.565 11.212-.323" />
      <path fill="#fff" d="M787.405 799l94.355-25.012-14.163-25.747-59.85 1.72" />
      <path fill="#2ad2e4" d="M856.887 77.848l-187.49-.37-68.975.646 26.176 3.41" />
      <path fill="#b3b9bc" d="M319.467 144.024l-8.96 12.574-33.552 3.34 6.627-12.34" />
      <path fill="#d3d6d6" d="M640.895 613.76l-3.178 15.536-29.567 2.606-.413-26.267" />
      <path fill="#adee9c" d="M620.182 172.817l15.788-7.4 22.43 7.98-18.79 7.168" />
      <path fill="#fff" d="M968.17 363.938l53.998-261.117 25.168 279.087-174.084-12.556" />
      <path fill="#90b082" d="M795.13 746.918l-48.23 5.646 26.704 6.315 21.977-7.508" />
      <path fill="#50cc33" d="M949.596 374.764l40.434 36.012-3.255 30.265-40.896-50.462" />
      <path fill="#718088" d="M90.478 277.51l-56.41.632 3.818-2.123 39.042 9.734" />
      <path fill="#d0d3bf" d="M330.322 466.852l.336 15.562 37.276-7.848 17.07-7.798" />
      <path fill="#fff" d="M721.406 579.51l-318.424-56.966 86.93-2.835-219.37 40.662" />
      <path fill="#ae7145" d="M277.047 7.354l3.566 16.36 4.616-1.295 2.76-3.563" />
      <path fill="#fffffa" d="M988.47 544.335l-42.902-2.32-12.52-10.766L1055 539.27" />
      <path fill="#ff68bb" d="M943.257 397.406l-15.818 19.43-25.26-11.3 38.627-32.342" />
      <path fill="#fffbff" d="M313.447 477.254l-39.05-5.87 20.467-61.257-32.467 33.683" />
      <path fill="#fffce9" d="M1018.456 626.058l-158.52 6.608-107.36-16.37 172.906 3.174" />
      <path fill="#b7daf5" d="M897.93 701.85l-38.436-28.873 94.034 1.914-102.055 22.513" />
      <path fill="#858582" d="M649.435 395.142l-33.374 1.86-78.827-.32-20.593-.57" />
      <path fill="#fff" d="M806.567 197.747L863.22 426.73 843.696 201.72l156.523-90.438" />
      <path fill="#77b8a2" d="M852.078 596.48l3.498 8.294.945 3.522-43.104-10.96" />
      <path fill="#081d31" d="M-31 457.182l169.063 12.01 14.793-11.86-113.64 2.01" />
      <path fill="#f4e06d" d="M482.216 466.296l-54.536 29.067-14.232 10.73 53.172-27.31" />
      <path fill="#fff" d="M787.203 759.337l-270.527 1.675-325.664.385L665.077 799M786.643 368.754l90.766 87.728 48.18-86.572-175.532 5.77" />
      <path fill="#070e2c" d="M101.052 43.39l55.787.475 37.237.42-7.58 6.156" />
      <path fill="#5e6f79" d="M55.19 451.728l6.37 7.18 60.016-.034 5.348-7.546" />
      <path fill="#ffffce" d="M350.16 691.86l.458-14.835-54.746 1.64 38.383 24.412" />
      <path fill="#b3afb4" d="M350.426 392.566l.673.73 71.456 3.247-105.736.313" />
      <path fill="#63d5a8" d="M893.385 618.36l36.338-1.638 6.89-2.12-70.884 2.622" />
      <path fill="#697982" d="M94.734 261.554l-81.864 2.16 38.944 2.62 55.56.58" />
      <path fill="#00a596" d="M79.448 37.846l-15.4-26.73 3.73 41.805-4.433-24.72" />
      <path fill="#9cf0f6" d="M797.312 704.103l8.848-9.86 29.03-2.26-4.424 7.17" />
      <path fill="#fff" d="M625.404 261l3.044-117.85-62.196-2.097-5.055 36.787" />
      <path fill="#a7c79e" d="M935.956 471.622l-44.077 7.72-.106-8.592 26.634 8.56" />
      <path fill="#faf7f8" d="M428.127 481.666l26.29 21.823 161.92 20.81-169.357-32.22" />
      <path fill="#131414" d="M422.372 140.105l-39.025 1.154.518-2.547 60.312-.863" />
      <path fill="#00b4a1" d="M692.82 5.476l47.38 33.856-266.643 3.436L450.9 2.575" />
      <path fill="#fcf240" d="M620.822 520.62l-11.26 1.232 3.798-12.073-2.028.998" />
      <path fill="#97aac3" d="M358.59 592.36l4.317 2.667 29.325-4.842-9.21 12.797" />
      <path fill="#8d999e" d="M24.408 480.575l-.38 6.472 4.263 9.415-11.37 3.505" />
      <path fill="#fefafc" d="M315.514 486.91l31.588 5.78 24.544 191.642-72.67-316.477" />
      <path fill="#3ed3e7" d="M817.93 432.442l-.614-25.424-52.882 35.29 21.396 17.238" />
      <path fill="#fffefc" d="M308.902 216.526l-7.705-56.832-2.24-36.892-4.75 37.052" />
      <path fill="#22cfe2" d="M950.204 76.683l-78.02 1.197-77.692.512L969.67 79.59" />
      <path fill="#39d5e5" d="M421.196 79.396l186.893 1.502-29.398-5.18-49.058 1.544" />
      <path fill="#fffcfd" d="M687.83 680.235l-119.49-2.744-64.734-38.434 242.513-1.577" />
      <path fill="#c9a296" d="M802 708.208l44.38 7.062-4.71-9.352 13.494-19.022" />
      <path fill="#c6dae1" d="M951.73 513.824l-31.872 105.463 4.482-85.465 107.884-12.006" />
      <path fill="#f5f7f5" d="M304.476 43.072l142.593-.45 16.24 26.674-192.445 7.15" />
      <path fill="#a4c0c0" d="M520.294 594.825l6.873 6.944 17.584-8.913 36.57-.97" />
      <path fill="#92d8dc" d="M734.05 692.75l-28.998-9.65-52.31 9.112 33.52-.417" />
      <path fill="#94b88b" d="M960.8 701.673l7.185-1.855 49.408 2.537-50.616-17.22" />
      <path fill="#ecb9ef" d="M793.85 681.12l21.05-24.788 51.248 18.18 2.353-20.98" />
      <path fill="#fff" d="M202.812 383.623l77.624-29.203-30.118-31.26-54.662 229.132" />
      <path fill="#929fa3" d="M44.24 476.57l-12.737-33.787 3.393 35.012 6.797-7.592" />
      <path fill="#d0bdad" d="M954.848 627.466l65.487 1.81-68.058 6.715-6.472-.353" />
      <path fill="#fffffe" d="M813.635 441.255l-35.252 31.985 148.51-5.528-76.014-138.008" />
      <path fill="#fff" d="M296.25 300.747l-54.462 12.845-2.455-64.12L275.9 132.696" />
      <path fill="#160c21" d="M3.94 81.147l-.617 11.157L58.265 81.89l-15.196-.494" />
      <path fill="#4d616d" d="M128.98 357.91l-42.843-2.742 33.84 11.355 24.157-4.873" />
      <path fill="#fff23f" d="M311.665 525.792l-.12-17.482-19.916-5.74 23.36 23.325" />
      <path fill="#dddc84" d="M542.186 469.552l8.385-1.55-32.753 40.484 1.138-16.4" />
      <path fill="#011b2f" d="M10.16 269.512l49.51 6.774 110.45-2.173-96.89-4.382" />
      <path fill="#0b5a77" d="M77 743.634l37.14-7.33-37.832 22.72 5.177-17.53" />
      <path fill="#fffdfa" d="M878.66 547.688l-83.657-6.745-24.13-.795 78.998-11.388" />
      <path fill="#fff060" d="M404.588 509.96l26.585-9.695-5.487-16.798-15.715 40.043" />
      <path fill="#0a2035" d="M6.828 309.934l20.858-194.14 135.173 4.877L6.59 99.25" />
      <path fill="#50cfad" d="M715.632 582.215l-10.173 5.673-4.5 2.617-1.345-8.058" />
      <path fill="#fff" d="M265.288 791.908l180.583-24.545-158.596-8.042-.673-150.47" />
      <path fill="#aeabab" d="M272.623 478.313l2.776-27.293-33.375 4.713 27.653 7.656" />
      <path fill="#00182c" d="M28.887 367.066l43.903 3.905 27.974-2.913-32.67-6.3" />
      <path fill="#0b2338" d="M165.206 584.245l-76.43 86.73L201.8 792.015 183.96 695.94" />
      <path fill="#5b9ed8" d="M257.548 137.6l24.433 2.765-61.066.857 7.148-3.524" />
      <path fill="#f2f9f7" d="M310.502 72.297l-113.88 3.72 1.535-49.06L200 66.752" />
      <path fill="#ccd5d6" d="M531.22 732.336l32.287 7.22L560.003 697l-26.498 55.327" />
      <path fill="#525353" d="M398.837 218.205l-9.59-4.22-8.653 13.97 10.956-2.006" />
      <path fill="#6ed551" d="M565.41 169.996l-21.688-11.718 4.007 11.094 4.164 6.528" />
      <path fill="#fff" d="M600.087 405.563l-182.547 91.7 42.692-35.666-202.094-11.32" />
      <path fill="#f2e93b" d="M890.067 629.514l6.788 5.355 25.283 5.847-.51-8.19" />
      <path fill="#c1cacc" d="M28.71 358.345l-.794 1.578 15.837 7.224-6.5-10.053" />
      <path fill="#faf2ef" d="M335.62 467.687l-33.896 9.565-10.11 37.926-17.14-13.87" />
      <path fill="#fffeff" d="M497.388 354.893L410.59 457l10.305-274.882 47.264 195.066" />
      <path fill="#0a2337" d="M2.29 303.192l47.877-3.597 154.442 1.74-102.374 6.533" />
      <path fill="#fffdfd" d="M208.84 445.093l36.437-19.8 26.06 159.88 6.877-50.044" />
      <path fill="#5d9bd2" d="M727.344 195.495l37.916 26.394.018 11.616-28.775-48.647" />
      <path fill="#ffd1bf" d="M950.293 727.593l-85.86 10.276 30.815 21.63-24.4-39.215" />
      <path fill="#fff" d="M666.544 507.92l93.25-144.568-33.725 14.38-44.226-143.608M962.037 487.25l57.588 29.518-262.974-.392 81.89-46.33M249.356 155.807l-51.542 85.543 66.14-72.6 89.45-5.26" />
      <path fill="#2a2a2a" d="M389.37 220.28l30.846-4.935-2.773 14.5-5.733-15.027" />
      <path fill="#84beb2" d="M63.163 2.988L-3.72-.102l271.893-.053L13.386-1.72" />
      <path fill="#4a95d9" d="M893.756 703.812l9.59 6.386-7.908-23.825-3.968 17.792" />
      <path fill="#91b1d1" d="M66.713 71.745l-4.352-.375.02-12.57-14.317 8.69" />
      <path fill="#fff" d="M1055 520.825L929.75 254.702l-53.89 55.595 104.932 79.138" />
      <path fill="#ffe543" d="M352.36 485.2l-7.445-6.69-.5-4.5 8.39-1.144" />
      <path fill="#8e8e8e" d="M279.805 556.136l-5.636 14.48.078-24.495 17.076 8.41" />
      <path fill="#3dd4e7" d="M819.118 424.857l-6.78-30.985-39.07-22.855 31.6 80.4" />
      <path fill="#fff" d="M215.748 81.798l86.046-.66-98.82 24.69-4.4 32.162" />
      <path fill="#909ba8" d="M282.92 56.81l-12.124 8.394-15.205 1.1-4.277-9.234" />
      <path d="M449.455 137.447l-34.137.65-15.148 2.234 47.405.604" />
      <path fill="#5292d4" d="M755.845 222.896l42.147 4.618-7.665 13.617-19.797-.03" />
      <path fill="#fffcb9" d="M884.25 672.945l57.98-47.345 1.29 44.002-9.48 3.336" />
      <path fill="#fffefe" d="M865.722 718.442l13.86 20.845-199.38-48.903 55.187 37.023" />
      <path fill="#f9f8f6" d="M703.63 44.947l-198.047-2.86 55.666 34.602 65.643-3.415" />
      <path fill="#fefdfc" d="M327.398 189.37l212.67-15.463L314.7 233.46l4.456-106.222" />
      <path fill="#ffd3bd" d="M333.104 165.218l2.608 15.115-37.663-1.817-41.99-5.893" />
      <path fill="#5e6d77" d="M102.04 154.957l25.38-1.743-18.003-4.054-69.55 6.2" />
      <path fill="#00af9b" d="M335.658 19.653L237.745 2.58 124.04 4.092l5.915 1.72" />
      <path fill="#fcfcfc" d="M284.245 562.356l-8.83 4.93 8.995 8.318-5.457 187.263" />
      <path fill="#8c8c8c" d="M434.625 138.658l61.12 9.464-93.848-14.714 45.194-1.16" />
      <path fill="#fff" d="M745.9 203.8l-50.98 26.36-107.26 120.815 193.173-58.918M203.276 531.32l1.248 21.19 145.326-1.077 14.528-19.87" />
      <path fill="#fff" d="M700.425 205.75L660.05 417.08l-4.663-288.387 163.508-10.615" />
      <path fill="#f4a8a6" d="M813.12 611.726l-10.897-2.852 69.232-.434-73.583-9.53" />
      <path fill="#f8f480" d="M312.023 482.77l-32.002 17.54-7.096-23.19 26.72 26.842" />
      <path fill="#cfc8ca" d="M493.505 625.03l-37.068 3.61 47.533-21.45-48.186 8.31" />
      <path fill="#cccbcb" d="M396.263 136.793l36.51-.604-33.277-2.617-48.975 41.513" />
      <path fill="#fefdfe" d="M310.423 139.63l-93.947 2.58.467-30.01 9.62 51.003" />
      <path fill="#091f36" d="M142.377 313.746l1.59 41.447-40.61-5.984-28.77-31.677" />
      <path fill="#84c9b6" d="M595.416 592.355l27.31 8.995-32.98 3.904 4.363-4.186" />
      <path fill="#ceabe2" d="M301.125 383.855l4.818-26.924-21.28-3.77-1.012-19.074" />
      <path fill="#f66a2a" d="M890.315 733.076l36.125 1.747-37.803 7.962 14.668 16.86" />
      <path fill="#f3d1ce" d="M484.463 396.07l131.738-7.917 40.857 19.102-2.07-68.303" />
      <path fill="#fff" d="M344.634 740.375l20.353 31.838-3.375-120.95-6.234 10.647" />
      <path fill="#949495" d="M308.2 457.19l-3.692 4.63-51.44-2.02 46.594-5.355" />
      <path fill="#0e1f32" d="M-15.147 140.235l118.664 10.355 68.584-12.263L56.466 142.8" />
      <path fill="#dea597" d="M479.375 336.362l56.71 41.32-62.783-36.22 8.624 1.307" />
      <path fill="#fff" d="M1020.83 550.462L1009.9 799l-67.3-55.08 94.16-4.538" />
      <path fill="#faec99" d="M386.043 481.35l-8.99 32.947 21.684 18.532-20.086-34.632" />
      <path fill="#c7e8d5" d="M629.356 636.756l104.906-.2-16.457-22.553 26.763 11.012" />
      <path fill="#cba5e0" d="M551.536 229.22l-8.22-14.604 34.232 1.242 21.332-.83" />
      <path fill="#c49f99" d="M460.28 679.177l1.6 17.5 7.254-7.056-33.032-2.957" />
      <path fill="#c8c973" d="M848.772 590.997l.68 1.172-10.8 14.134.074-17.41" />
      <path fill="#de9685" d="M581.958 346.82l26.03 3.872 31.785-13.077-55.545 15.328" />
      <path fill="#43c722" d="M543.577 258.368l13.028-11.316 2.003 2.34 4.257 9.34" />
      <path fill="#0d2337" d="M19.07 382.274l-5.918-111.45-7.46 99.62 60.033 17.95" />
      <path fill="#faf8f6" d="M333.516 53.954l-58.67-11.17-56.3.69 5.67 12.06" />
      <path fill="#5b6b75" d="M88.653 500.485L71.37 495.77 61.2 492.98l55.14.942" />
      <path fill="#00b19f" d="M275.988 26.806l93.74 13.353-123.02 1.584 40.372-56.67" />
      <path fill="#decdcc" d="M525.46 403.263l-50.65-9.06 48.553-11.875-25.426 25.4" />
      <path fill="#f3dadf" d="M489.902 470.587l1.184 54.054-114.344 5.275 123.527 1.752" />
      <path fill="#cbf0e0" d="M910.312 566.117l23.394.02-44.252 9.715 63.25 11.464" />
    </g>
    <g class="SVG--2">
      <path fill="#fffefe" d="M242.622 489.04l65.398-61.827-95.626-37.994 72.39 69.293" />
      <path fill="#ced9a7" d="M652.77 470.884l13.287 22.15-44.253-38.666-2.326 1.165" />
      <path fill="#f3a505" d="M4.063 341.013l1.05 87.377L-31 624.48V212.996" />
      <path fill="#fffdfb" d="M762.882 474.99L534.19 501.64l272.617 6.204-157.404-148.446" />
      <path fill="#c3dbf2" d="M923.678 691.52l-1.617 26.432 20.96-2.062-.18-45.207" />
      <path fill="#eec6ed" d="M794.08 617.134l55.376-5.066 24.64-13.252-7.225 22.26" />
      <path fill="#40d4e5" d="M736.616 75.932l89.468 2.677-84.83-.017-138.565.63" />
      <path fill="#4e5e68" d="M116.338 172.453l21.09 2.303-3.407-13.08-56.84 10.506" />
      <path fill="#fff" d="M439.476 703.947L434.79 545.2l-8.694 128.006L431.988 799" />
      <path fill="#64727c" d="M39.035 405.883l-13.278-3.9 48.96 10.23 55.035-7.143" />
      <path fill="#0a2136" d="M28.12 509.86l-34.497 60.238 34.48-75.928 149.81 30.11" />
      <path fill="#fefefe" d="M440.636 228.96l-93.613-3.648 54.366 48.343-43.282-15.785" />
      <path fill="#d8dddd" d="M41.772 157.547l.054-3.622-.3-10.464-11.042 9.098" />
      <path fill="#b6b2b5" d="M441.28 149.505l56.606 9.36-5.14-12.257-46.193.404" />
      <path fill="#3470b5" d="M55.368 49.23l102.482.025L18.88 77.278l50.19 2.495" />
      <path fill="#d1eae6" d="M769.248 199.708l45.984-66.938-30.814 12.47-25.076 51.432" />
      <path fill="#aeadad" d="M698.7 358.385l28.697-2.24-8.225 9.734 53.047-5.443" />
      <path fill="#fff" d="M938.554 463.173l105.386 18.646 1.97-192.973-67.334 167.238" />
      <path fill="#122638" d="M199.845 425l-210.27-12.664 97.116-2.753 64.62 4.905" />
      <path fill="#e4ede9" d="M875.97 309.87l-32.088-103.36 66.806 9.708-36.11 88.975" />
      <path fill="#fefbf9" d="M392.998 507.684l69.866 176.17L405.65 511.49l-11.205-57.144" />
      <path fill="#cf915e" d="M854.32 689.393l-8.12 10.49-12.9-2.192 11.953-6.534" />
      <path fill="#fff" d="M887.098 381.232l-135.642-8.318 44.383-54.876L834.215 484.6" />
      <path fill="#fcfefe" d="M488.477 353.653l-14.79 47.446-.684-59.99-277.697-127.324" />
      <path fill="#4dca31" d="M906.035 433.77l30.505 26.884 21.444-3.882-6.896-23.33" />
      <path fill="#ff5f29" d="M5.08 188.13L-7.06-15.962-31 249.997l32.583-28.965" />
      <path fill="#f3c16f" d="M773.02 750.202l5.76-6.562-42.83 6.084-10.29-3.52" />
      <path fill="#fff" d="M794.72 231.34l152.676 122-143.593 1.583 43.47-156.803" />
      <path fill="#65d24b" d="M395.65 261.5l9.053-18.144-13.998 6.882-8.456-2.35" />
      <path fill="#e3b583" d="M423.214 692.22l-57.788-5.215 14.387-8.24.016 15.396" />
      <path fill="#b8c5cb" d="M845.93 627.662l-31.856 5.615.53 4.094 68.906 1.428" />
      <path fill="#fff" d="M504.15 663.01l14.49 38.414 74.977-5.382-89.99.405" />
      <path fill="#aba7ac" d="M334.692 231.887l-.265 11.578-22.803-7.54-3.776-4.39" />
      <path fill="#c5ccce" d="M40.44 411.647l-4.138-9.61-7.382.65-2.465-2.002" />
      <path fill="#fff" d="M237.015 589.52l-3.012-30.66-1.928 12.722 4.936 21.086" />
      <path fill="#bec6c5" d="M212.146 640.136l55.48-5.885-29.167-1.73 3.723.297" />
      <path fill="#e5b5a8" d="M657.368 367.107l-31.733-33.628 33.04 23.33-9.373 10.687" />
      <path fill="#fff" d="M651.792 698.605l73.605-.115 11.965 86.558-70.508 5.524" />
      <path fill="#b7ca7d" d="M850.547 732.067l-2.08 14.683-13.656-3.78 3.744-3.073" />
      <path fill="#d4c4b7" d="M982.413 693.244L918 683.35l93.512 1.482 5.377 16.452" />
      <path fill="#4c5c6a" d="M70.36 235.857l6.82-1.355 17.767 10.128-44.704-1.692" />
      <path fill="#8bc5d2" d="M857.92 711.942L829 690.554l-11.928 13.15 45.58-5.798" />
      <path fill="#599871" d="M417.384 495.255l9.99-18.842 1.508-.285-14.417-.837" />
      <path fill="#b0bbbd" d="M43.947 372.73l-15.365 26.393 13.72-7.108-7.253-18.054" />
      <path fill="#a6addd" d="M916.388 716.712l18.795 4.33-49.613-.517-57.9-2.895" />
      <path fill="#99ba87" d="M334.53 468.182l9.893-.83-13.722 19.864-2.836-4.03" />
      <path fill="#f8ed2e" d="M626.588 463.35l-18.712-7.155-6.097 7.42 20.412-1.41" />
      <path fill="#b6b5b6" d="M545.903 313.775l-72.192 1.68 86.867 7.86-24.57-6.605" />
      <path fill="#fbf7f4" d="M264.24 582.973l25.966-68.226 64.208-63.62-74.963 68.952" />
      <path fill="#73bb82" d="M618.04 457.897l29.62 9.966-4.607 9.933-3.056-20.222" />
      <path fill="#00b19e" d="M-29.615 5.65L84.1 17.254l90.9 4.256L147.33 4.34" />
      <path fill="#b1d29d" d="M935.487 611.226l7.228 8.07-.803 10.403-10.446-9.58" />
      <path fill="#9fe1d6" d="M171.637 12.928l2.996 14.483 3.635.176 6.776-9.78" />
      <path fill="#fffdfd" d="M288.665 582.94l11.993-103.27-11.38 22.747 54.217 58.617" />
      <path fill="#f5f2e8" d="M491.605 478.105l-17.367 40.353-24.45-46.277 80.826 65" />
      <path fill="#052035" d="M31.593 284.22l-1.94-54.262-12.512 64.98 34.624-8.978" />
      <path fill="#fff" d="M517.398 169.362l-165.313-11.695 153.602-.196-108.415 180.65" />
      <path fill="#fefefd" d="M380.536 468.387L262.81 415.81l108.354 91.656-105.277-116.22" />
      <path fill="#11253b" d="M68.494 87.083l27.74-6.802 64.434-.303 30.574 93.34" />
      <path fill="#fff" d="M499.718 589.93l122.21-2.29 39.85-57.12-134.756 2.576" />
      <path fill="#535353" d="M259.712 574.497l3.415-22.897 2.12 18.842-7.803 6.493" />
      <path fill="#50616d" d="M87.898 532.916l18.274 6.345-64.06-4.96 27.742-4.44" />
      <path fill="#fff" d="M814.918 571.838l-102.203 55.28-89.415-16.43 252.654-38.01" />
      <path fill="#d2b89b" d="M1012.922 552.11l-2.685-7.4-45.1.616-6.872 6.47" />
      <path fill="#fcfefc" d="M281.51 675.123l-55.096 6.766-23.878-9.132-1.072-54.17" />
      <path fill="#92e2d4" d="M30.82 28.177L19.556 15.963l45.652 10.67-5.39-.76" />
      <path fill="#fff" d="M553.49 314.944l95.807-99.418-109.776 19.402 23.163 14.35" />
      <path fill="#48d6e5" d="M762.703 78.54l109.618-3.193L846.3 79.91l-13.015-.49" />
      <path fill="#e7cbbf" d="M543.034 472.185l-219.312 2.327 246.295 2.058-37.405-9.286" />
      <path fill="#1d3445" d="M59.95 451.81L37.2 420.987l12.275 26.03-22.42 19.672" />
      <path fill="#fff" d="M254.332 227.104l-35.538.75 38.277 38.954-57.33 147.24" />
      <path fill="#d6c4df" d="M392.192 406.068l22.643 1.22-.816-74.273-10.436 68.192" />
      <path fill="snow" d="M539.574 632.182l-46.508-18.015-77.938-9.093 94.372.003" />
      <path d="M212.686 56.765l10.83 4.963-1.185-10.336-8.9 3.34" />
      <path fill="#c5e6eb" d="M987.388 182.498l23.987 17.34-121.11 21.858-25.142-33.793" />
      <path fill="#f9f7f6" d="M811.15 44.095l89.06 29.443-302.983-.184 107.246-31.612" />
      <path fill="#d2b3e4" d="M327.8 360.653l41.77 15.017-25.307 6.185 14.157-24.72" />
      <path fill="#dad958" d="M459.59 497.83l-2.092 11.4 6.496 11.257-9.77 2.26" />
      <path fill="#606060" d="M228.926 565.96l11.05-9.374-1.55 7.973-15.388-14.167" />
      <path fill="#faed3e" d="M588.652 522.458l-2.12 2.36-4.615 3.213-2.72-6.24" />
      <path fill="#bdb6aa" d="M617.472 695.63l-28.76-14.522 24.8 2.595 7.094-2.595" />
      <path fill="#061d31" d="M103.902 135.01l46.64-.506-4.78-8.496-118.982.694" />
      <path fill="#9edb94" d="M218.227 678.267l-3.85 15.015 69.03.363-42.097-3.107" />
      <path fill="#fff" d="M271.2 339.426l12.575-33.65-7.304 69.39-8.465-23.198" />
      <path fill="#bfd7f4" d="M871.283 538.758l-3.92 14.532 82.33-14.59-69.33-6.957" />
      <path fill="#fbb09b" d="M459.19 688.34l89.226 5.785 16.387-5.507-67.203 6.165" />
      <path fill="#fff" d="M788.96 420.13l-2.003-13.567-21.152-1.667-2.948 20.662" />
      <path fill="#fefefe" d="M510.14 351.334l-41.683-23.47L533.392 375l89.276-132.416" />
      <path fill="#b5da5c" d="M514.71 509.02l32.89 19.086-16.04-.386-9.356-5.002" />
      <path fill="#fff" d="M516.9 227.33L502.333 338.44l25.275-81.47 57.26 38.666" />
      <path fill="#b4bdbe" d="M40.415 434.7l-6.246 17.996 3.795-.983-5.532-16.513" />
      <path fill="#8f8f8e" d="M728.056 366.526l-6.89-6.435 34.637-1.163v3.83" />
      <path fill="#fffffe" d="M298.295 285.426l90.14 68.89 7.59-46.858-81.5 11.613" />
      <path fill="#fff" d="M263.56 584.088l-14.24-55.914 5.362 45.082-32.42 16.578M611.803 473.898l-49.463-48.735-23.803 87.06 35.71-51.542" />
      <path fill="#60c176" d="M271.69 510.254l7.35 5.958 3.205-3.662-3.4-8.118" />
      <path fill="#85cf9a" d="M420.848 531.63l15.075-18.623 2.886 5.695-17.26 7.33" />
      <path fill="#fefefd" d="M235.373 261.08l-16.474-3.97 47.55 60.447 4.187-48.645" />
      <path fill="#a09f9f" d="M913.388 363.183l20.668 3.155 4.1-9.866-50.26 8.275" />
      <path fill="#fefcfd" d="M194.476 799l131.29-47.203-96.546-13.82-23.737-51.506" />
      <path fill="#fefefe" d="M226.443 559.66l-28.39 36.106 22.096-34.944 1.144-.344" />
      <path fill="#a6a6a6" d="M282.646 320.437l-38.074-1.837 27.856-7.096 48.712 8.887" />
      <path fill="#efcabc" d="M562.42 513.953l-1.25 7.567 2.882-46.906 2.13 63.658" />
      <path fill="#b8c3c4" d="M35.113 298.31l.066-38.89 6.73 24.29-3.362-4.332" />
      <path fill="#c9a9d7" d="M853.75 654.425l-35.3 6.357 58.85 11.434-69.273.702" />
      <path fill="#f8f8f9" d="M492.973 700.804l86.313 8.806-102.13 8.724 124.322 71.254" />
      <path fill="#f3d9c2" d="M656.526 676.26l-67.236 14.324 67.58 7.018-2.16-11.622" />
      <path fill="#00b09e" d="M221.49 22.997L172.158 41.82l75.38-.916 87.35-.485" />
      <path fill="#faf2f2" d="M318.902 501.795l-13.158 49.548-22.41-31.376 35.796 1.89" />
      <path fill="#b0b0b2" d="M551.696 406.982l5.56-7.198 6.622 1.446.602 3.992" />
      <path fill="#15c28d" d="M914.39 594.116l-22.09 8.5 22.217-.152L924.61 598" />
      <path fill="#c8ae9f" d="M1008.01 588.71l18.557 4.456-50.683-13.1-11.97 7.902" />
      <path fill="#baefac" d="M497.052 165.036l-64.76 13.472 36.373.556 28.55-3.27" />
      <path fill="#10253a" d="M-31 546.81L19.542 799l47.71-263.323-50.68 3.41" />
      <path fill="#5f6d77" d="M59.457 418.514l-29.653 1.84 5.27 5.19 49.505.965" />
      <path fill="#fffeff" d="M233.568 121.354l-4.18-25.653 153.734 25.23L238.766 88.9" />
      <path fill="#363636" d="M423.818 226.134l-39.666-.047 41.174-3.365-8.82 1.66" />
      <path fill="#666766" d="M241.598 552.277l10.72 16.162-3.966-14.007-17.525 3.56" />
      <path fill="#fc6e3f" d="M223.612 165.223l1.813-4.62 17.185 5.66-15.79 4.207" />
      <path fill="#c1b5ad" d="M800.775 739.06l35.563-2.668-97.76 1.183 19.89 2.454" />
      <path fill="#fdfdfd" d="M648.318 348.214l98.59 129.67L689.445 255.1 614 324.45" />
      <path fill="#53cc36" d="M947.89 394.218l3.15-14.9 29.64 7.725 11.1 35.854" />
      <path fill="#fff" d="M484.112 150.916l-7.84 3.485 23.288-60.455-48.75 43.85" />
      <path fill="#eb9870" d="M931.945 757.21l-65.655-.006 30.368 4.167-6.974.87" />
      <path fill="#f0dcd4" d="M246.49 532.15l94.967-2.59-78.66-4.9 1.472-63.528" />
      <path fill="#f55525" d="M-.71 217.237l.298-93.94L-31 106.282 5.783 81.424" />
      <path fill="#e2f8f2" d="M829.655 210.795l-76.042 7.727-15.216-54.375 51.75 63.438" />
      <path fill="#686e81" d="M220.257 596.524l15.277 2.694 7.722-5.944-98.773 11.812" />
      <path fill="#cfc373" d="M315.535 470.29l-11.235.52-20.678 24.608 8.204-21.532" />
      <path fill="#fff" d="M962.798 411.658l-13.582-1.402-9.397 21.55 15.81-.843" />
      <path fill="#94e8f7" d="M806.905 554.555l-5.455 7.597-1.645-.333 83.268-1.12" />
      <path fill="#fff" d="M956.25 764.237L1055 799l-282.106-37.207 145.194-1.65" />
      <path fill="#de8d7a" d="M558.278 352.262l-2.96-5.752 34.97 3.176 3.036.35" />
      <path fill="#245443" d="M149.87 755.25l-19.057 8.558 20.713-37.104 18.245 25.77" />
      <path fill="#556e78" d="M76.642 122.54l-14.897-3.293-10.71-3.92-1.685 10.03" />
      <path fill="#d3b7eb" d="M831.494 561.487l80.44 7.657-59.14 1.51-55.916.362" />
      <path fill="#589add" d="M916.99 684.568l1.658 19.234 9.154-11.407.97 1.118" />
      <path fill="#102439" d="M144.547 205.196l51.89-119.976-5.282 200.186-98.763-80.55" />
      <path fill="#52616e" d="M60.97 341.85l-30.817-7.552 62.217-.87-15.442 4.876" />
      <path fill="#ff9912" d="M804.202 747.595l-34.012-.425-14.35 1.635 40.903-.06" />
      <path fill="#fff" d="M330.458 401.353l47.155 104.834-38.155-107.92 164.516-1.025M974.818 731.374l-36.13-3.755 34.05-24.877 82.262-1.1" />
      <path fill="#53ca36" d="M902.397 418.667l40.655 42.134-15.088-45.656-15.025-.668" />
      <path fill="#c0eeeb" d="M872.227 613.716l82.297-14.355L896 614.03l-5.46-81.848" />
      <path fill="#d3e188" d="M715.434 629.75l-19.596 7.295 1.44-8.79 7.085-1.56" />
      <path fill="#526873" d="M65.404 105.6l1.762-1.833-50.986-4.942 51.312-2.794" />
      <path fill="#78bcb1" d="M346.494-.99l57.52-.07L283.234-31 380.387-.96" />
      <path fill="#fffeff" d="M585.567 169.66l-184.32 62.424-116.83-40.597 139.887 69.138" />
      <path fill="#bdd9f6" d="M400.9 590.286l30.893-.73-30.868 17.018-22.214-16.78" />
      <path fill="#fff" d="M895.934 446.07l14.435-54.054 19.747-15.17-90.568-28.055" />
      <path fill="#bedfe3" d="M762.368 317.87l-46.688-.538-12.6 5.56 36.034 2.83" />
      <path fill="#0d2438" d="M14.296 443.546L33.4 308.843l-4.475 140.064 93.34-5.06" />
      <path fill="#dec1b9" d="M611.966 474.542l16.383-11.177-37.57 12.18-63.54-2.326" />
      <path fill="#fff" d="M1002.326 681.7l-40.195-1.823-20.568-42.815 95.456 1.893" />
      <path fill="#092338" d="M45.648 501.622l-2.695-123.176 3.353-132.936 3.16 187.835" />
      <path fill="#fbfaf9" d="M544.42 622.292l-195.035-1.985 208.46-3.602 199.605 1.73" />
      <path fill="#a7b1b6" d="M30.358 194.474l-1.36-2.764 22.018-5.364-13.92-6.69" />
      <path fill="#00b3a0" d="M930.235 40.444l103.232.84L1055 3.935 924.208 2.808" />
      <path fill="#526570" d="M75.04 370.034l-25.453 7.328 12.117 2.008 47.398-2.976" />
      <path fill="#d7bae6" d="M275.99 374.013l-4.71 9.328 38.9-40.706-25.85-3.023" />
      <path fill="#c9e7f9" d="M903.614 673.71l-56.42 17.122 57.243 23.993-40.002 5.497" />
      <path fill="#102437" d="M49.728 195.24L35.39 163.366l7.377 11.06 3.977-31.098" />
      <path fill="#aba3a0" d="M971.7 526.913l5.445-8.602 5.285 11.124.463 1.4" />
      <path fill="#fffeff" d="M238.74 147.303l27.183 190.277 11.917-198.33-36.6 45.763" />
      <path fill="#f5b10b" d="M4.724 347.122l-.18-22.407L-31 301.87l28.696 181.787" />
      <path fill="#fbfcfb" d="M449.367 504.11l8.97-33.64 2.736 23.42-16.952 37.84" />
      <path fill="#fff" d="M1039.944 590.23l-86.043 1.044-9.49 38.93L1055 611.73" />
      <path fill="#cddeea" d="M22.307 55.812l-2.448 7.972-2.857 5.706 12.226-5.435" />
      <path fill="#fff" d="M796.416 313.446l-66.682 2.274-48.743-87.888 92.242 12.28" />
      <path fill="#c3c8c9" d="M441.35 703.892l27.283-1.16 11.994-2.302 16.09 5.577" />
      <path fill="#9cc2ec" d="M431.97 602.92l-15.008 2.067-80.773-2.408 47.013-.993" />
      <path fill="#00b29e" d="M347.76 6.077L310.068 39.59l57.46 1.1 138.93-.336" />
      <path fill="#8bdfc5" d="M588.652 602.91l68.228 3.196-1.138-6.073-20.525.67" />
      <path fill="#baf5ac" d="M654.933 252.303l6.603 15.427-8.867-10.688-27.01-2.463" />
      <path fill="#fd73bd" d="M937.025 411.138l11.85-39.97-39.784 25.114 14.006 21.11" />
      <path fill="#fab29e" d="M865.53 610.45l.727-3.428 4.864-6.946-19.714.864" />
      <path fill="#5595d4" d="M728.28 181.57l-2.348 28.27 12.722-3.91 2.153-20.188" />
      <path fill="#d4b5e5" d="M394.007 360.503l.472-40.854 9.23 64.438-37.617-44.842" />
      <path fill="#546570" d="M17.318 340.093l58.416-.442 18.48-4.487-76.847-.342" />
      <path fill="#cbf5fa" d="M463.955 600.993l34.186-13.116 9.464 12.653-115.963-2.872" />
      <path fill="#fff059" d="M294.358 485.757l21.078 18.237-25.33 8.468 20.773.64" />
      <path fill="#fff" d="M500.525 504.154L512.137 799l3.935-212.173-26.59-32.68" />
      <path fill="#b8b7b7" d="M505.114 316.54l-36.065 11.2L479 332.87l14.958-22.238" />
      <path fill="#fff" d="M357.087 153.85l-145.037-42.8 167.305 10.47 14.974 41.643" />
      <path fill="#b1fbff" d="M871.827 737.17l-28.457 14.96-44.437-11.93 73.484 11.933" />
      <path fill="#41d6e7" d="M743.3 449.025l24.29 11.816 25.782-1.134 3.607-8" />
      <path fill="#f7f7f6" d="M561.653 717.408l125.622-.673-140.86 13.915 104.452 2.902" />
      <path fill="#fff" d="M637.286 181.593l-3.848-33.028-33.21-57.34 42.558 41.85" />
      <path fill="#f9fbf7" d="M319.487 604.48l-64.233 24.964 118.034-14.536-155.27 7.968" />
      <path fill="#fffefe" d="M208.11 460.474l97.553 29.787-55.24-30.024 3.212-60.673" />
      <path fill="#a4a1a5" d="M653.844 232.71l.046 8.776-29.99 1.656 19.68-12" />
      <path fill="#bff5b1" d="M467.73 252.294l22.706 11.86 13.356-4.198-17.632-6.446" />
      <path fill="#00b19d" d="M292.19-10.366l5.994 50.038-143.427 2.434 132.305-8.886" />
      <path fill="#132b3c" d="M37.705 289.11L-3.18 323.644l13.234-8.32 12.815-65.916" />
      <path fill="#dddbdc" d="M246.984 476.22l2.54 32.653-3.038 32.005-3.648-74.114" />
      <path fill="#be8de5" d="M3.222 514.385l-12.773 62.66-21.45-88.17L5.052 478.53" />
      <path fill="#fcfcfb" d="M398.56 344.074l35.082-206.78-26.34 232.435-2.898 23.892" />
      <path fill="#f3e65c" d="M411.786 491.07l25.87.678.64 1.67-12.232 17.555" />
      <path fill="#fffffe" d="M282.727 441.75l91.83-44.072-27.197 98.434 54.272-93.663" />
      <path fill="#e9df7b" d="M293.353 474.148l-17.297 23.776.773-19.002 12.095 22.87" />
      <path fill="#fbfbfa" d="M570.926 726.99l-224.29 5.51 16.492 1.97-156.323-6.952" />
      <path fill="#89969d" d="M44.498 461.682l-16.846 10.422 15.474-.39-6.683-114.93" />
      <path fill="#9d9d9d" d="M537.624 313.796l-12.583 4.98 13.82 4.73 3.902-7.385" />
      <path fill="#d8f0e8" d="M733.875 672l.36 19.524-19.18 3.783-3.3-15.518" />
      <path fill="#fff" d="M768.665 324.77l-73.97 3.89L859.8 410.984l-65.983-84.46" />
      <path fill="#0e2338" d="M190.365 466.352l-14.757-108.82-75.833 10.84 28.836 42.972" />
      <path fill="#00b4a0" d="M-25.24 56.955l45.112-28.93-5.15-12.67L-31-31" />
      <path fill="#9b9fa0" d="M470.14 348.413l-3.177-1.86 4.25 28.128 3.26-24.465" />
      <path fill="#dd9ca3" d="M798.76 707.64l14.975 3.57 51.286-7.516 9.782 7.698" />
      <path fill="#ebc7c0" d="M357.85 496.405l2.47-23.663 1.48-1.653-1.34 52.994" />
      <path fill="#fff" d="M909.65 246.172l-22.62 20.382 139.584 108.098-88.373.028" />
      <path fill="#e3c4f5" d="M280.177 587.384l-13.993 4.537-56.393 11.842 62.367 1.145" />
      <path fill="#fff" d="M585.72 782.562l5.896-48.358-3.707-117.364-9.468 102.43" />
      <path fill="#fffffe" d="M324.368 112.99l-3.91 67.058-109.02-4.622 92.99 89.063" />
      <path fill="#f1cdbb" d="M475.064 530.846l-93.58-4.93-44.046 5.035 116.038-.17" />
      <path fill="#c1d5d7" d="M801.61 593.313l3.81 49.274-8.083-20.035 30.85-42.252" />
      <path fill="#71d2c5" d="M255.056 16.166l2.765 11.636-11.646-.896-3.628-1.42" />
      <path fill="#f9f7f7" d="M285.738 43.012L278.104 75.2l-35.906-3.42L411.642 44.9" />
      <path fill="#fffffe" d="M836.975 576.45l27.597 9.755 9.96.49-9.566-13.867" />
      <path fill="#fffefe" d="M804.824 208.27l42.24 34.04-56.126-71.61 21.84-12.493" />
      <path fill="#c4c7c8" d="M455.11 627.05l2.2-5.665 11.49-.643 26.32 7.43" />
      <path fill="#dbe279" d="M400.846 474.418l-.964 11.36 9.373-9.964 13.894 1.802" />
      <path fill="#fff" d="M276.862 309.512l5.14 14.97 6.81-89.258-13.718-107.55" />
      <path fill="#ffe7c7" d="M783.003 742.686l-76.662.964 97.744 3.554-2.312-26.757" />
      <path fill="#fff" d="M537.882 397.244L588.45 466.9l-169.966-5.588-1.922 14.425" />
      <path fill="#fbfafa" d="M250.81 707.93l208.912 3.463 43.255-4.05-70.58-2.773" />
      <path fill="#cfa58a" d="M836.04 645.276l20.98 7.647-52.275 1.664.368-8.933" />
      <path fill="#fff" d="M837.61 616.022l34.617 12.27-88.1 1.095-87.8 19.524" />
      <path fill="#fdfeff" d="M476.87 525.668l-153.16 35.99 132.3-22.867 18.916-67.156" />
      <path fill="#0e2438" d="M60.808 629.617l68.918-178.627-108.212-2.777 148.7-6.757" />
      <path fill="#a2be44" d="M313.316 532.472l7.177-12.782 8.045-8.242-3.823 16.007" />
      <path fill="#f9f9f9" d="M382.938 719.535l207.19 3.868-51.407 67.742 35.295-74.91" />
    </g>
  </g>
</svg>