<svg version="1.1" viewBox="0 0 1024 768" width="1024" height="768" xmlns="http://www.w3.org/2000/svg">
  <path fill="#bccbcc" d="M0 0h1024v768H0z" />
  <g fill-opacity=".5">
    <path d="M-3.8 5l201-22.4-.5 816.4L-31 766.4" />
    <path fill="#000020" d="M.6 799h195.6l-.2-657.7L8.4 30.3" />
    <path fill="#00ad86" d="M-31 3.8L182.3 41l872.7 1.5-37-55.6" />
    <path fill="#fff" d="M1053 796.3L196.2 799l3-752.3 854.5-6" />
    <path fill="#00b4ad" d="M1055 32L13.8-31-31 100.3l232.5-56.6" />
    <path fill="#33c100" d="M957.6 470.5l42.3-46-35-54-69 63.5" />
    <path fill="#fff" d="M187.7 229l742.8 183.5 18 25.6L1055 32" />
    <path fill="#00ae98" d="M1055-11.4L283 11.3 589.5 39l448.5 5" />
    <path fill="#10ced9" d="M791.2 368.7L724.4 417l41 50 63.6-33" />
    <path fill="#fffff9" d="M847.5 799L673.3 223.7 199.5 74.5 195.8 780" />
    <path fill="#001732" d="M86 87l109 413.4 1.3-388.8-4-38.2" />
    <path fill="#080201" d="M477.3 138l-57.2 3-43-.4 31-14.7" />
    <path fill="#040205" d="M426.2 219.7l-14-6.5-38.2 4 28.8 12.7" />
    <path fill="#3f83e2" d="M152.2 84.2l110.2-30.6-252-5.4-19.8 28.4" />
    <path fill="#c7cbb8" d="M731.4 759l172.2-221 20 13.4 22.6 206.3" />
    <path fill="#4292d1" d="M728.6 185l74.7 45.8-30.5 14.5-57.2-60.3" />
    <path fill="#ff8100" d="M769 369.3l-24 18.5 15 19.5 15.7 2.8" />
    <path fill="#ef2c8a" d="M940.3 409.3l-39.8 8 24.7-39 34.5-4.2" />
    <path fill="#908d8f" d="M218.2 546.3l79.4 14.3L290 571l-76 16" />
    <path fill="#fff" d="M833 390.7l201 126.5-289-1.8 62.7-68.2" />
    <path fill="#fffffa" d="M940.7 793l109.8-22.2-6.3-476-95 224.8" />
    <path fill="#fdffff" d="M363.8 384.6l625.4-337-308.6-6-199 3.5" />
    <path fill="#ede7aa" d="M526 529.4l14.5-50.6-263-12-6.7 68" />
    <path fill="#f1b6b0" d="M645 342.6l17 52-170 3.4-29.6-46.8" />
    <path fill="#001b33" d="M6.7 799L197 766l-.4-347.8L-31 590.5" />
    <path fill="#fff" d="M989.2 404.5l-103-120.7 168.8-128-33.3 470.4" />
    <path fill="#ff7030" d="M932.4 764.2l-50.6-6.3 14.5-29 27.4 1" />
    <path fill="#47c7d3" d="M896 619.7l-4.4-77 36.6 1.7-8.3 72" />
    <path fill="#08ceb3" d="M347.3 41.3L-11 40.6l-20-20L117.8-31" />
    <path fill="#feffff" d="M438.7 42.8L280 42.3l2.6 109.5L572 99.5" />
    <path fill="#33cf15" d="M992.5 402.4l-76 55.3 58.4 1.5-32-94.3" />
    <path fill="#dece9c" d="M214 676.8l572 14.4-471 4.6-108.7-2.8" />
    <path fill="#00b3a0" d="M1045.2 2.8l.6 36.8-251.5 3L694.5 5" />
    <path fill="#819da4" d="M29.8 470l9 9 7.4-46-10.4-111.6" />
    <path fill="#1d8119" d="M654.4 456.3l-70.5 5.3 81 1.5-2-5" />
    <path fill="#84a0a6" d="M33.4 117.7L32 236.3 48.3 153l7 8" />
    <path fill="#fff" d="M804.2 760.3l-.8-273-204 285.2 243.2-58" />
    <path fill="#cad87a" d="M894.5 644l127 59-83-3-21.8-86.5" />
    <path fill="#e8bb2a" d="M6 423l-.7-75.7L-6 208.8 3.3 548" />
    <path fill="#9fe9dd" d="M-21.6 28L135 10.2l-41 6.4 17 9.5" />
    <path fill="#4995db" d="M280 128.2l-60.8 3.7-1.4 4 39 8" />
    <path fill="#fff" d="M755.3 235.4L716.8 553 620 273l152.2-83" />
    <path fill="#000b2e" d="M33.8 49.7l-64.8-6 248.2-4-55 10" />
    <path fill="#fff" d="M791.5 435.7l-35.6-9 12-25.7 20 8.6" />
    <path fill="#94b9db" d="M313 589.2l244.8 10.6-279 7.6 13.6-15.5" />
    <path fill="#18d2e5" d="M394.8 82.3l149.7-4.8L370 75.8l-92.2 2" />
    <path fill="#43dae9" d="M802 81l-51.4-1.7 276.6-6.2-16 9" />
    <path fill="#b6e3e4" d="M845 220l83.6-50.5 75.4 22.2-60 63.4" />
    <path fill="#00b09a" d="M655 38l-255.8 4.8-358-5 406-68.8" />
    <path fill="#3ccb1c" d="M982.6 452.4l-57.2 2-15.6-11-8-35" />
    <path fill="#fff" d="M906.6 266.3l-1 179.5L860 561l-90.7-314" />
    <path fill="#23c200" d="M563 162l-.6 10-14.7 3.8 2.7-15.4" />
    <path fill="#fff" d="M997.7 47.6l57.3 471-197-7L998 439" />
    <path fill="#f40" d="M4.6 147.2L2.4 73.8-31 325.6 6.7 211.4" />
    <path fill="#122f42" d="M106 131L66 375.8 216.3 46.6l11 11.5" />
    <path fill="#ffa" d="M878.6 613.7l-11.8 60 71.8-3.4 15.2-45.2" />
    <path fill="#0dd0ee" d="M747 449.6l36 6.7-45.3-71.3-6.2 42" />
    <path fill="#dfc4e9" d="M414 338l-190.7 23.2 26.3 41.3 163 5.6" />
    <path fill="#19d2ee" d="M784.4 401.8l7.6-24.4 29.4 27.7-23 56" />
    <path fill="#b6d1ad" d="M494 148.8l-47.6-3-15.7 29.3 67 9" />
    <path fill="#6bd550" d="M536.4 254l28.2-10 .3 18.8 10 4.2" />
    <path fill="#fffeff" d="M946.6 440L839.4 286 747 371.8l221.7 39.8" />
    <path fill="#97cbff" d="M893.7 674.6L874.2 718l64.6-8.6 9-35.3" />
    <path fill="#fff" d="M389.4 84.4L221 280.6l164.3 83.8-.4-287" />
    <path fill="#021b32" d="M197.4 108.6l-6 76-133-105.4 121 2.4" />
    <path fill="#b8cfd0" d="M45.2 539.7l-9.7-2.7-3.3-21 9.7-8.2" />
    <path fill="#fff" d="M249.4 407.2l248.3 180-219-.5 142.4-178" />
    <path fill="#ccc379" d="M802 741.4l-3.5 19.5-54.7-1-14.2-32" />
    <path fill="#fff" d="M325.8 583.6l292 4.6 268-51.8-653-7" />
    <path fill="#fbffff" d="M203.4 34.7l-7.2 25.7 3 181 14.4-168.6" />
    <path fill="#a1b9b4" d="M806.2 609.4l71.8-1-79-59.2 63.4-8" />
    <path fill="#062238" d="M195 292L93 327l100.3 379.7.5-117.3" />
    <path fill="#928f91" d="M302.5 460.2l-59.8 3 36-13 31.2 2" />
    <path fill="#e2e049" d="M292 488l17.7 42.5 21.7.6-6-27" />
    <path fill="#302e2d" d="M377 131.7l10.3-2.3 64.6.2-8 16.4" />
    <path fill="#93d0bb" d="M257 215.2l-42 3.8 40 49.4-37-11.5" />
    <path fill="#6dd854" d="M407.4 258.5L376 260l23.3-21.7 2.4 19.6" />
    <path fill="#57ddea" d="M717.3 76L513 85l-62.6-10.4 116.4 1.2" />
    <path fill="#00b4a0" d="M599.3 1L421.8 40l313.7 2.7 319.5-33" />
    <path fill="#fffffd" d="M942 641.3L793.5 682l164.8 6.3 96.7-52.8" />
    <path fill="#c5d252" d="M522 490.5l20.5 42.3-28.8-7L547 461" />
    <path fill="#2679c8" d="M732.8 214.8l-10.4-14.2 8-16 18.4 4.2" />
    <path fill="#001d34" d="M5 465.2L19.7 799l14-356.2-28-321.6" />
    <path fill="#98b3b7" d="M42 313l-.3-43.8-1.7-13.8-10.5 58.3" />
    <path fill="#38daea" d="M720.3 84l65.6-1-222-5 282-1.4" />
    <path fill="#a8bf6d" d="M414.6 487l6.6-22.2 18.3 25-21.7 40.2" />
    <path fill="#55d634" d="M377.5 175.4l29-3.8-19.4-15v11.7" />
    <path fill="#082238" d="M4.6 78.2l2.4 294 25.6-238 94-44.6" />
    <path fill="#fff" d="M413.4 391l-42.8 67 129.8 39 196-84" />
    <path fill="#d6ca11" d="M904.2 629l-17 23.5 32.4-4.6 6-4" />
    <path fill="#448ccf" d="M810 219.3l-20 22-34-6.2 1.3-13" />
    <path fill="#35c815" d="M973 455.8l16.4-33-5.2-20.6-27.4-6" />
    <path fill="#fff" d="M874.6 81l180.4.8-10.6 94.6-228-2.2" />
    <path fill="#b070d0" d="M590.2 229.3l-47.8-4.7 9-8.6 39.5.7" />
    <path fill="#2d83c6" d="M199 74.4l25.7 6.4L-31 74.3 180 48" />
    <path fill="#d5b2a6" d="M342.6 176.6l-70.5.8 64-29.4-70-.6" />
    <path fill="#ff8f68" d="M221 172.8l31.2 4.2-25-24-3 7" />
    <path fill="#aaa7a9" d="M197 110.8l10.3-2.3 53-9.3 30.7 12.4" />
    <path fill="#204051" d="M102 103.7l-60.2 42 13.6 474.7 75.2-487" />
    <path fill="#fff" d="M462.6 82.7l-44.3 320 1.7-256.2 407.2-65.8" />
    <path fill="#b2a2b4" d="M874.3 647.6l-63.8-17.4 51.7 87.2-60-7.4" />
    <path fill="#d2c5c1" d="M542 749l-23-73.4L757.4 688l-193 8.2" />
    <path fill="#72add0" d="M743.7 319.2l75-1-41.7 9-73-8" />
    <path fill="#d8bce2" d="M676 144.7l-147.3-1.2 62-30.4 44.7 48" />
    <path fill="#8edeca" d="M588.6 590l50.6-2.7 25 21.4-66-5" />
    <path fill="#999798" d="M327.7 317.7l-62.5-7.8-26.8 10h-22" />
    <path fill="#b6d0ae" d="M492 230.7l2 32-23.5 4.7-6.2-27.2" />
    <path fill="#fff" d="M850.5 747.8l195.8 20.6-304.8 5.5 67.2-22" />
    <path fill="#8e8c8b" d="M921.3 367l-51.3-9 66.3 2-6.4 6.4" />
    <path fill="#8e8d8e" d="M210.8 554l75 25.2 4-11.6-2.6-14.4" />
    <path fill="#fff" d="M198.6 332.6l.4 163.8 71.8-61.6-74.2-290" />
    <path fill="#aada00" d="M5 270.4l-1.5 166-34.5-23.6L4 216" />
    <path fill="#fff" d="M718.4 440.7l-73-147.6 28.2 225 226-3" />
    <path fill="#98bc8e" d="M992.5 682l-61 18 66.4 3 18-6.6" />
    <path fill="#a2c19b" d="M626.6 263.3l35.6-34.4-33.4 6 32 29" />
    <path fill="#d2ddeb" d="M15.4 68l39 .2.2-5L21 60" />
    <path fill="#ae7dff" d="M3 486.7l4.4 62.7-38.4-75 38.4 7" />
    <path fill="#b9d4b2" d="M333 266l.5-38-22 8.3-12.7 26.4" />
    <path fill="#36c917" d="M948 405l3.8-31.2 27.3 16 7 3.8" />
    <path fill="#ffa142" d="M734.2 394.2l43-23.6-4 43.2-34.6-23.8" />
    <path fill="#fffdfd" d="M364.4 585l-3.8 135.6-110-163.3 23.2 155" />
    <path fill="#8b8988" d="M715.3 359.7l5.4 4 47.5 3-22.5-9.2" />
    <path fill="#d5d3d5" d="M960.5 554l57.2-1.6-2-29.8-375-5.7" />
    <path fill="#9f9c9e" d="M536.5 320.3l-61.8.4 39.4-12.3 23 4.2" />
    <path fill="#0dcc86" d="M926 603.5l-4.2-16.5-27.8-3.7-1 17.2" />
    <path fill="#fdc2ac" d="M885.5 719.5l169.5 19.7-108.3 1.3-67.4-11" />
    <path fill="#f0b1a7" d="M447 696.3L638 685l-174-7.5-19.4-.4" />
    <path fill="#36d2eb" d="M219 82.2l-56.8-7.6 124 3 6.7.8" />
    <path fill="#fff" d="M535.3 324.5L864 158.3l-339.5 207-83.4-49.6" />
    <path fill="#5a906e" d="M305.8-9.4L181-31l147.2 54.6-62.6 6.7" />
    <path fill="#fff" d="M246.4 82.5L435 81l181.4 1-285 59.4" />
    <path fill="#fefff6" d="M240.7 78.7l-29.4-7.2 74.3-30-69.5 1.2" />
    <path fill="#414041" d="M391.3 225.5l-4 2.3-1-19 39 20.3" />
    <path fill="#91a2a8" d="M44.3 346.5l-17 69 16.4-24.3-15.4-25.5" />
    <path fill="#5298da" d="M927.6 703l-18 4-23.6-7.7 24.5-18.7" />
    <path fill="#ff611f" d="M928.7 750.2l-26.6 2.3-19-14.5 38-4" />
    <path fill="#fff" d="M863.7 303.2l83.7 73.3 107.6 10.7-6.7-226.8" />
    <path fill="#838c99" d="M239.3 57l-8 7 58.5 2.2-7.2-7.8" />
    <path fill="#a5a29c" d="M1010.5 471.8l-17 5.8-99.3-1.7-2.8-2" />
    <path fill="#cec3da" d="M233.6 644.3l-18-52 54.5.6 8 9" />
    <path fill="#fff" d="M815.8 471.6l2-91.7 74.7 14 31 80" />
    <path fill="#fcffff" d="M904 659.2l-242.3-132-13.3 175L860 613.8" />
    <path fill="#cabfa1" d="M943.8 590l-27-7.6 93.2-1.6 1.4 9" />
    <path fill="#fff" d="M858.8 711l24.2 22.7-156-8.5 107-5" />
    <path fill="#37d7eb" d="M783.8 462.7l20.3-10.3 3-33.4-68 31" />
    <path fill="#c8a687" d="M977.8 628.5l-36.5 8.5 79.8-.6-61-12" />
    <path fill="#a0d4ec" d="M803 551l140 43.5-.6-67.2 2 25" />
    <path fill="#b7dbab" d="M660.4 175.2L620 145.6l38.4 3.4-40.4 33.7" />
    <path fill="#ff66ce" d="M947.4 413.4l-1.4-31.8-27.8 2.7-16.4 28.2" />
    <path fill="#264152" d="M76 541.6L33.3 410.3l76.6-22 37 50.5" />
    <path fill="#fff" d="M784.7 315.3l153.8-231-153 163.5-328.6 42" />
    <path fill="#a9b5b7" d="M40.6 106.6l.7 53.8-7.2-7.2-1-19" />
    <path fill="#041d32" d="M-31 222.3l222.8-2.6L117 280l-32-39.6" />
    <path fill="#fff" d="M216 149.8L448 258l-243-53 105-75" />
    <path fill="#647583" d="M.2 497.8L-31 525l52.6-36.7 95.6 10" />
    <path fill="#fffcff" d="M267.6 544.2l-6.2 91.7L283 521l-89.7 37" />
    <path fill="#aee3e0" d="M437 585.2l31.6 46.2 25-25.2 150.3-2.7" />
    <path fill="#0a2238" d="M-31 541h67.2l151-4.4L27.4 799" />
    <path fill="#b2e7de" d="M106 19.3l34.3 7.3h-41l-70.7-2.3" />
    <path fill="#011c31" d="M115.5 320L10.8 352.2l111 4-141-43.8" />
    <path fill="#fff" d="M397 464l166-1-94-89.4 4-193.7" />
    <path fill="#c4c9cb" d="M303 698.8l4.8 57.8 27.2-16-3.2-44" />
    <path fill="#fff" d="M524.6 799l-288.4-32.4L492 729.3l20.6-76.2" />
    <path fill="#607780" d="M150.6 275.7L62 282.4l32.4-.3 69.4 3" />
    <path fill="#ff521e" d="M3.2 223l1.5-108 .6-36.4-36.3 48.6" />
    <path fill="#fff" d="M669.4 81l-452 6.6 379 42.6 458.6-42" />
    <path fill="#86dec7" d="M708 582.2l-16-4-25 10.4 59.4 1.4" />
    <path fill="#c1e541" d="M637.6 463.6l-10-9.2-30 3 13.4 7.8" />
    <path fill="#c7ced2" d="M411.4 626l5.8 30-37.3 10.5 3-81.6" />
    <path fill="#fff" d="M200 432.5l16.6 145 26.6-2.7-46 31.2" />
    <path fill="#98f2a0" d="M273.4 679.7l-58 1.2-8 10 69 4" />
    <path fill="#d5f2ea" d="M788.5 135.5l33.7 89.7-54.2-4.7-25.3-23.6" />
    <path fill="#fff" d="M596 735.7l332 52.7-355 9 13.6-283" />
    <path fill="#70838b" d="M155.2 359.7L80.5 357l-48.7 3 9.2 4.4" />
    <path fill="#888" d="M249.5 547.4l3.4 31-44-4 12-6.8" />
    <path fill="#b2bfb7" d="M115.6-4l38 1.7-62 2L232 0" />
    <path fill="#76d7e5" d="M872 644.3l-39-12.7-37.3 15.2 52-1.6" />
    <path fill="#dce47e" d="M461.2 521l-41.4-27.8-33.3 41.8-9-15.8" />
    <path fill="#89e65f" d="M224 261.6l-2-23.8 16 16.2 8.7 1.6" />
    <path fill="#fbebcd" d="M675 531l-165.4-60 162 3.4L542.4 531" />
    <path fill="#fff" d="M220 119l-.2 130.2L377.5 212l-172.8 19.4M497 529l39-67-152 116.3 135.6 23" />
    <path fill="#b3b3ab" d="M715.6 472.7l137.7 2-63 4.5-51-1.3" />
    <path fill="#6da3eb" d="M249.2 229l-18.6-1.8-13.8-11.6 30.7-3" />
    <path fill="#66b8d9" d="M714.5 683l6.3 6.6-24.8 1-10.2-7.7" />
    <path fill="#90dcd1" d="M185 30.4l1-61.4h27.6l-40 52.5" />
    <path fill="#a4dca8" d="M737 638.5l-38.8-12-23 8.2 34.3 1.4" />
    <path fill="#fff" d="M627.5 455.8l92.5-44 51-46.6-90 1.5" />
    <path fill="#ffad00" d="M5 460.8L2 333l-33 177.3 35.4-36" />
    <path fill="#00162d" d="M44.4 493.4l-21.2-19.6 81 1.4 44.2 10.6" />
    <path fill="#7d8d94" d="M33 215.7l4.7 4.7 6-26.5-2.2-82" />
    <path fill="#00152a" d="M113 182l4.6-8-93.5-2 12 6" />
    <path fill="#fafffd" d="M826 582l131.5 3L833 569l-221 44" />
    <path fill="#fff" d="M773.4 401l-14.7 15.6 26 17 2-17.5" />
    <path fill="#cacecf" d="M605.4 706l34.5-12.8-3 46.5h-30" />
    <path fill="#00b29f" d="M897.2 2.5L1055 5.7v34.7L714 40" />
    <path fill="#ff490f" d="M239.2 163.5l-.7 9-6.5 1-11.8-5.5" />
    <path fill="#072338" d="M6 144.6l153.7 5.6L31 139.4l1.8 165.8" />
    <path fill="#fdabb8" d="M886.8 663.7l-83.5 1.6-5-16.4 61.8-2" />
    <path fill="#5d6b72" d="M8.7 102L-31 136.5l49.8-44L78 98" />
    <path fill="#6a6c15" d="M899 642l6 2.3 15.2-.5-14.4-9" />
    <path fill="#36daea" d="M288 75.6L232.2 77l-11.5 3.4L354 81" />
    <path fill="#acc0c2" d="M30.7 263.3l4 7.2 11-3.8-13-8.7" />
    <path fill="#2e8592" d="M660.6 464.7l-24-1.4-18-1.2 49.5-8" />
    <path fill="#b5aa9d" d="M819 608.7l24 9.7 11.7-35.3-54 23" />
    <path fill="#fff" d="M300 360.2l207.2-81L220.6 258l159.8 98.5" />
    <path fill="#cacfcf" d="M383.2 700l-8 42 31.5-1.3 4-39" />
    <path fill="#c797e0" d="M619.4 128.7l2.6 12.6-83-1 8.6-13" />
    <path fill="#fff" d="M816 687l64-4.5-126.4-32.2-104 148.7" />
    <path fill="#b4f0d8" d="M942.3 625.6l-87-12.6 63.3-10.5 25.3-48" />
    <path fill="#fff" d="M560.7 340.4L534 373.7l-52.8-39 464.3-14" />
    <path fill="#ffa683" d="M931 760.3l-60-1.3 9-38 66.6 40.4" />
    <path fill="#0a2638" d="M71.8 308l-41.3-23.2 136.7 1-169.5 14" />
    <path fill="#4c606a" d="M104.4 533L53 527l-13 12 43-.2" />
    <path fill="#fff" d="M998.8 465.8l-264 2.4 161.7-32 37.7 24.4" />
    <path fill="#00b39f" d="M528.5 43.3L298.2 15.8l-249 1L341.6 0" />
    <path fill="#dbe" d="M212.3 525l18-4.2 4.6-47.4-23 3.6" />
    <path fill="#babfcd" d="M298 593l32-.5 5.3 45-26.5.2" />
    <path fill="#a8c2ba" d="M310 2.6l75.6-3.4h133.6L163-3.8" />
    <path fill="#111112" d="M419 221.8l-10.4 12.5 9.6-17.4-32.3-2" />
    <path fill="#10484b" d="M157.4 718.8L92.2 799l-33-89.6L170 794.8" />
    <path fill="#414141" d="M456.2 137l-63.2 6.2-11.8-15 30 9.4" />
    <path fill="#4e5f6b" d="M123.7 156l-91-20.7 94-1-93 23.2" />
    <path fill="#14db2b" d="M3 223l-32.7 45.6-1.3 79.7 35.6-33" />
    <path fill="#c5d267" d="M545.2 531.6L527 513.8l-42.3 17.4 47.4-1.5" />
    <path fill="#fff" d="M962 429l-23-1.7.2-18.4 17.4-2" />
    <path fill="#576872" d="M51 163.3l5 10 28.4-1 71.3-2.8" />
    <path fill="#edbbaf" d="M663.3 362.6l-114.4-14 62-3 22-13.2" />
    <path fill="#a295a3" d="M490.4 156.5l-52.5 1 10-10.3 49 2" />
    <path fill="#e5b5aa" d="M485 340.6l15.7 10.3 81.3 63-106.8-73" />
    <path fill="#dee173" d="M303.2 508l52.6-31.2-27-4.3L330 497" />
    <path fill="#988f99" d="M466.4 237.7l25.2 5 4-10.4-25 2" />
    <path fill="#cbd0d1" d="M256 734.2l3.3-34-34.6-1 7.5 47.8" />
    <path fill="#cccacb" d="M792.4 523l-112.2-4.2-2 15.2H754" />
    <path fill="#90bfb8" d="M895.4-2l158 .7L918-.7l96 .8" />
    <path fill="#c0d769" d="M298.2 471.4l-5.4 3-15.2 24.7-2.6 28" />
    <path fill="#fff" d="M841 324.2l-248.2-241 361.2 1-351.3 124.2M257.3 141l56 76-49.5 94.2L237 150.4" />
    <path fill="#4e636e" d="M115.3 336.2l-5-.7-89 7L4 331.8" />
    <path fill="#fffdff" d="M251.5 555.7l40 144.5-37.7-157.6-60-19" />
    <path fill="#a6d998" d="M730.6 760l2.3-15.6 54 10.8 40 2.3" />
    <path fill="#8dded2" d="M129.5 17.2l-20 9.5H29.2l-16.4-7.2" />
    <path fill="#fff" d="M443 141l-94.6 1.2 52 21.5 66 191.8M703.8 130L545.4 98.5l-1.6 167.8-62.4-139" />
    <path fill="#677780" d="M27.5 438.8l4.5 2 148-.7-34.8-5" />
    <path fill="#fdfdfe" d="M341.6 678.2H562l-155-182 123.3 117" />
    <path fill="#49c92c" d="M977.2 439l-63-14.4 21.3 36.2 45-47.3" />
    <path fill="#fff" d="M444 529.4L434.2 799l-10.8-211.6 417-50.7" />
    <path fill="#74acdf" d="M267.7 128.3l11.6 10.8-24.3 4-25.4-13" />
    <path fill="#fff" d="M911.7 711.4l105.6-12.5-5.3-209 41 252" />
    <path fill="#586d79" d="M57 297.3l4.4 3 92.7-4-94-5" />
    <path fill="#c7ccce" d="M453.2 726.6l38 1-4.8-21-25-12" />
    <path fill="#fffcfa" d="M553 74.8l-25-31.5-55-.3-152.7 1" />
    <path fill="#4d351e" d="M218.3 50l.4 3L230 72.4 214.8 62" />
    <path fill="#adebdf" d="M869.8 620l47.8-56.8-111.4 34.3 144.2 10.3" />
    <path fill="#70a082" d="M428.2 484.7l-14.3-20 2 29 15-25.3" />
    <path fill="#8cded4" d="M834 738.6l44.8 10h-83l30.5-19" />
    <path fill="#a69da8" d="M661.7 239l-31.3 7 1.8-19 24.3 10.7" />
    <path fill="#051f35" d="M32 397.7l2.3-76.7-22.6 81.6 173.8-1.3" />
  </g>
</svg>