<svg version="1.1" viewBox="0 0 1024 768" width="1024" height="768" xmlns="http://www.w3.org/2000/svg">
  <path fill="#bccbcc" d="M0 0h1024v768H0z" />
  <g fill-opacity=".5">
    <path d="M-4 5l201-22v816l-228-33" />
    <path fill="#000020" d="M1 799h195V141L8 30" />
    <path fill="#00ad86" d="M-31 4l213 37 873 2-37-56" />
    <path fill="#fff" d="M1053 796l-857 3 3-752 855-6" />
    <path fill="#00b4ad" d="M1055 32L14-31l-45 131 233-56" />
    <path fill="#33c100" d="M958 471l42-46-35-54-69 63" />
    <path fill="#fff" d="M188 229l743 184 18 25 106-406" />
    <path fill="#00ae98" d="M1055-11L283 11l307 28 448 5" />
    <path fill="#10ced9" d="M791 369l-67 48 41 50 64-33" />
    <path fill="#fffff9" d="M848 799L673 224 200 75l-4 705" />
    <path fill="#001732" d="M86 87l109 413 1-388-4-39" />
    <path fill="#080201" d="M477 138l-57 3h-43l31-15" />
    <path fill="#040205" d="M426 220l-14-7-38 4 29 13" />
    <path fill="#3f83e2" d="M152 84l110-30-252-6-19 29" />
    <path fill="#c7cbb8" d="M731 759l173-221 20 13 22 207" />
    <path fill="#4292d1" d="M729 185l74 46-30 14-57-60" />
    <path fill="#ff8100" d="M769 369l-24 19 15 19 16 3" />
    <path fill="#ef2c8a" d="M940 409l-40 8 25-39 35-4" />
    <path fill="#908d8f" d="M218 546l80 15-8 10-76 16" />
    <path fill="#fff" d="M833 391l201 126-289-2 63-68" />
    <path fill="#fffffa" d="M941 793l110-22-7-476-95 225" />
    <path fill="#fdffff" d="M364 385L989 48l-308-6-199 3" />
    <path fill="#ede7aa" d="M526 529l15-50-263-12-7 68" />
    <path fill="#f1b6b0" d="M645 343l17 52-170 3-30-47" />
    <path fill="#001b33" d="M7 799l190-33V418L-31 591" />
    <path fill="#fff" d="M989 405L886 284l169-128-33 470" />
    <path fill="#ff7030" d="M932 764l-50-6 14-29 28 1" />
    <path fill="#47c7d3" d="M896 620l-4-77 36 1-8 72" />
    <path fill="#08ceb3" d="M347 41H-11l-20-20 149-52" />
    <path fill="#feffff" d="M439 43l-159-1 3 110 289-52" />
    <path fill="#33cf15" d="M993 402l-76 56 58 1-32-94" />
    <path fill="#dece9c" d="M214 677l572 14-471 5-109-3" />
    <path fill="#00b3a0" d="M1045 3l1 37-252 3-99-38" />
    <path fill="#819da4" d="M30 470l9 9 7-46-10-112" />
    <path fill="#1d8119" d="M654 456l-70 6 81 1-2-5" />
    <path fill="#84a0a6" d="M33 118l-1 118 16-83 7 8" />
    <path fill="#fff" d="M804 760l-1-273-204 285 244-57" />
    <path fill="#cad87a" d="M895 644l127 59-83-3-22-86" />
    <path fill="#e8bb2a" d="M6 423l-1-76-11-138 9 339" />
    <path fill="#9fe9dd" d="M-22 28l157-18-41 7 17 9" />
    <path fill="#4995db" d="M280 128l-61 4-1 4 39 8" />
    <path fill="#fff" d="M755 235l-38 318-97-280 152-83" />
    <path fill="#000b2e" d="M34 50l-65-6 248-4-55 10" />
    <path fill="#fff" d="M792 436l-36-9 12-26 20 9" />
    <path fill="#94b9db" d="M313 589l245 11-279 7 13-15" />
    <path fill="#18d2e5" d="M395 82l150-5-175-1-92 2" />
    <path fill="#43dae9" d="M802 81l-51-2 276-6-16 9" />
    <path fill="#b6e3e4" d="M845 220l84-50 75 22-60 63" />
    <path fill="#00b09a" d="M655 38l-256 5-358-5 406-69" />
    <path fill="#3ccb1c" d="M983 452l-58 2-15-11-8-35" />
    <path fill="#fff" d="M907 266l-1 180-46 115-91-314" />
    <path fill="#23c200" d="M563 162l-1 10-14 4 2-16" />
    <path fill="#fff" d="M998 48l57 471-197-7 140-73" />
    <path fill="#f40" d="M5 147L2 74l-33 252L7 211" />
    <path fill="#122f42" d="M106 131L66 376 216 47l11 11" />
    <path fill="#ffa" d="M879 614l-12 60 72-4 15-45" />
    <path fill="#0dd0ee" d="M747 450l36 6-45-71-6 42" />
    <path fill="#dfc4e9" d="M414 338l-191 23 27 41 163 6" />
    <path fill="#19d2ee" d="M784 402l8-25 29 28-23 56" />
    <path fill="#b6d1ad" d="M494 149l-48-3-15 29 67 9" />
    <path fill="#6bd550" d="M536 254l29-10v19l10 4" />
    <path fill="#fffeff" d="M947 440L839 286l-92 86 222 40" />
    <path fill="#97cbff" d="M894 675l-20 43 65-9 9-35" />
    <path fill="#fff" d="M389 84L221 281l164 83V77" />
    <path fill="#021b32" d="M197 109l-6 76L58 79l121 3" />
    <path fill="#b8cfd0" d="M45 540l-9-3-4-21 10-8" />
    <path fill="#fff" d="M249 407l249 180H279l142-178" />
    <path fill="#ccc379" d="M802 741l-3 20-55-1-14-32" />
    <path fill="#fff" d="M326 584l292 4 268-52-653-7" />
    <path fill="#fbffff" d="M203 35l-7 25 3 181 15-168" />
    <path fill="#a1b9b4" d="M806 609l72-1-79-59 63-8" />
    <path fill="#062238" d="M195 292L93 327l100 380 1-118" />
    <path fill="#928f91" d="M303 460l-60 3 36-13 31 2" />
    <path fill="#e2e049" d="M292 488l18 43h21l-6-27" />
    <path fill="#302e2d" d="M377 132l10-3 65 1-8 16" />
    <path fill="#93d0bb" d="M257 215l-42 4 40 49-37-11" />
    <path fill="#6dd854" d="M407 259l-31 1 23-22 3 20" />
    <path fill="#57ddea" d="M717 76l-204 9-63-10 117 1" />
    <path fill="#00b4a0" d="M599 1L422 40l314 3 319-33" />
    <path fill="#fffffd" d="M942 641l-148 41 164 6 97-53" />
    <path fill="#c5d252" d="M522 491l21 42-29-7 33-65" />
    <path fill="#2679c8" d="M733 215l-11-14 8-16 19 4" />
    <path fill="#001d34" d="M5 465l15 334 14-356L6 121" />
    <path fill="#98b3b7" d="M42 313v-44l-2-14-10 59" />
    <path fill="#38daea" d="M720 84l66-1-222-5 282-1" />
    <path fill="#a8bf6d" d="M415 487l6-22 19 25-22 40" />
    <path fill="#55d634" d="M378 175l29-3-20-15v11" />
    <path fill="#082238" d="M5 78l2 294 26-238 94-44" />
    <path fill="#fff" d="M413 391l-42 67 129 39 196-84" />
    <path fill="#d6ca11" d="M904 629l-17 24 33-5 6-4" />
    <path fill="#448ccf" d="M810 219l-20 22-34-6 1-13" />
    <path fill="#35c815" d="M973 456l16-33-5-21-27-6" />
    <path fill="#fff" d="M875 81l180 1-11 94-228-2" />
    <path fill="#b070d0" d="M590 229l-48-4 9-9 40 1" />
    <path fill="#2d83c6" d="M199 74l26 7-256-7 211-26" />
    <path fill="#d5b2a6" d="M343 177h-71l64-29-70-1" />
    <path fill="#ff8f68" d="M221 173l31 4-25-24-3 7" />
    <path fill="#aaa7a9" d="M197 111l10-3 53-9 31 13" />
    <path fill="#204051" d="M102 104l-60 42 13 474 76-487" />
    <path fill="#fff" d="M463 83l-45 320 2-256 407-66" />
    <path fill="#b2a2b4" d="M874 648l-64-18 52 87-60-7" />
    <path fill="#d2c5c1" d="M542 749l-23-73 238 12-193 8" />
    <path fill="#72add0" d="M744 319l75-1-42 9-73-8" />
    <path fill="#d8bce2" d="M676 145l-147-2 62-30 44 48" />
    <path fill="#8edeca" d="M589 590l50-3 25 22-66-5" />
    <path fill="#999798" d="M328 318l-63-8-27 10h-22" />
    <path fill="#b6d0ae" d="M492 231l2 32-23 4-7-27" />
    <path fill="#fff" d="M851 748l195 20-305 6 68-22" />
    <path fill="#8e8c8b" d="M921 367l-51-9 66 2-6 6" />
    <path fill="#8e8d8e" d="M211 554l75 25 4-11-3-15" />
    <path fill="#fff" d="M199 333v163l72-61-74-290" />
    <path fill="#aada00" d="M5 270L4 436l-35-23L4 216" />
    <path fill="#fff" d="M718 441l-73-148 29 225 226-3" />
    <path fill="#98bc8e" d="M993 682l-61 18 66 3 18-7" />
    <path fill="#a2c19b" d="M627 263l35-34-33 6 32 29" />
    <path fill="#d2ddeb" d="M15 68h39l1-5-34-3" />
    <path fill="#ae7dff" d="M3 487l4 62-38-75 38 7" />
    <path fill="#b9d4b2" d="M333 266l1-38-22 8-13 27" />
    <path fill="#36c917" d="M948 405l4-31 27 16 7 4" />
    <path fill="#ffa142" d="M734 394l43-23-4 43-34-24" />
    <path fill="#fffdfd" d="M364 585l-3 136-110-164 23 155" />
    <path fill="#8b8988" d="M715 360l6 4 47 3-22-10" />
    <path fill="#d5d3d5" d="M961 554l57-2-2-29-375-6" />
    <path fill="#9f9c9e" d="M537 320l-62 1 39-13 23 5" />
    <path fill="#0dcc86" d="M926 604l-4-17-28-4-1 17" />
    <path fill="#fdc2ac" d="M886 720l169 19-108 2-68-11" />
    <path fill="#f0b1a7" d="M447 696l191-11-174-7-19-1" />
    <path fill="#36d2eb" d="M219 82l-57-7 124 3h7" />
    <path fill="#fff" d="M535 325l329-167-339 207-84-49" />
    <path fill="#5a906e" d="M306-9L181-31l147 55-62 6" />
    <path fill="#fff" d="M246 83l189-2 181 1-285 59" />
    <path fill="#fefff6" d="M241 79l-30-7 75-30-70 1" />
    <path fill="#414041" d="M391 226l-4 2-1-19 39 20" />
    <path fill="#91a2a8" d="M44 347l-17 69 17-25-16-25" />
    <path fill="#5298da" d="M928 703l-18 4-24-8 25-18" />
    <path fill="#ff611f" d="M929 750l-27 3-19-15 38-4" />
    <path fill="#fff" d="M864 303l83 73 108 11-7-227" />
    <path fill="#838c99" d="M239 57l-8 7 59 2-7-8" />
    <path fill="#a5a29c" d="M1011 472l-17 6-100-2-3-2" />
    <path fill="#cec3da" d="M234 644l-18-52 54 1 8 9" />
    <path fill="#fff" d="M816 472l2-92 74 14 32 80" />
    <path fill="#fcffff" d="M904 659L662 527l-14 175 212-88" />
    <path fill="#cabfa1" d="M944 590l-27-8 93-1 1 9" />
    <path fill="#fff" d="M859 711l24 23-156-9 107-5" />
    <path fill="#37d7eb" d="M784 463l20-11 3-33-68 31" />
    <path fill="#c8a687" d="M978 629l-37 8 80-1-61-12" />
    <path fill="#a0d4ec" d="M803 551l140 44-1-68 2 25" />
    <path fill="#b7dbab" d="M660 175l-40-29 38 3-40 34" />
    <path fill="#ff66ce" d="M947 413l-1-31-28 2-16 28" />
    <path fill="#264152" d="M76 542L33 410l77-22 37 51" />
    <path fill="#fff" d="M785 315L939 84 786 248l-329 42" />
    <path fill="#a9b5b7" d="M41 107v53l-7-7-1-19" />
    <path fill="#041d32" d="M-31 222l223-2-75 60-32-40" />
    <path fill="#fff" d="M216 150l232 108-243-53 105-75" />
    <path fill="#647583" d="M0 498l-31 27 53-37 95 10" />
    <path fill="#fffcff" d="M268 544l-7 92 22-115-90 37" />
    <path fill="#aee3e0" d="M437 585l32 46 25-25 150-2" />
    <path fill="#0a2238" d="M-31 541h67l151-4L27 799" />
    <path fill="#b2e7de" d="M106 19l34 8H99l-70-3" />
    <path fill="#011c31" d="M116 320L11 352l111 4-141-44" />
    <path fill="#fff" d="M397 464l166-1-94-89 4-194" />
    <path fill="#c4c9cb" d="M303 699l5 58 27-16-3-44" />
    <path fill="#fff" d="M525 799l-289-32 256-38 21-76" />
    <path fill="#607780" d="M151 276l-89 6h32l70 3" />
    <path fill="#ff521e" d="M3 223l2-108V79l-36 48" />
    <path fill="#fff" d="M669 81l-452 7 379 42 459-42" />
    <path fill="#86dec7" d="M708 582l-16-4-25 11 59 1" />
    <path fill="#c1e541" d="M638 464l-10-10-30 3 13 8" />
    <path fill="#c7ced2" d="M411 626l6 30-37 11 3-82" />
    <path fill="#fff" d="M200 433l17 145 26-3-46 31" />
    <path fill="#98f2a0" d="M273 680l-58 1-8 10 69 4" />
    <path fill="#d5f2ea" d="M789 136l33 89-54-5-25-23" />
    <path fill="#fff" d="M596 736l332 52-355 9 14-283" />
    <path fill="#70838b" d="M155 360l-74-3-49 3 9 4" />
    <path fill="#888" d="M250 547l3 31-44-4 12-6" />
    <path fill="#b2bfb7" d="M116-4l38 2-62 2h140" />
    <path fill="#76d7e5" d="M872 644l-39-12-37 15 52-2" />
    <path fill="#dce47e" d="M461 521l-41-28-33 42-9-16" />
    <path fill="#89e65f" d="M224 262l-2-24 16 16 9 2" />
    <path fill="#fbebcd" d="M675 531l-165-60 162 3-130 57" />
    <path fill="#fff" d="M220 119v130l158-37-173 19m292 298l39-67-152 116 136 23" />
    <path fill="#b3b3ab" d="M716 473l137 2-63 4-51-1" />
    <path fill="#6da3eb" d="M249 229l-18-2-14-11 30-3" />
    <path fill="#66b8d9" d="M715 683l6 7-25 1-10-8" />
    <path fill="#90dcd1" d="M185 30l1-61h28l-40 53" />
    <path fill="#a4dca8" d="M737 639l-39-12-23 8 35 1" />
    <path fill="#fff" d="M628 456l92-44 51-47-90 2" />
    <path fill="#ffad00" d="M5 461L2 333l-33 177 35-36" />
    <path fill="#00162d" d="M44 493l-21-19 81 1 44 11" />
    <path fill="#7d8d94" d="M33 216l5 4 6-26-2-82" />
    <path fill="#00152a" d="M113 182l5-8-94-2 12 6" />
    <path fill="#fafffd" d="M826 582l132 3-125-16-221 44" />
    <path fill="#fff" d="M773 401l-14 16 26 17 2-18" />
    <path fill="#cacecf" d="M605 706l35-13-3 47h-30" />
    <path fill="#00b29f" d="M897 3l158 3v34H714" />
    <path fill="#ff490f" d="M239 164l-1 9-6 1-12-6" />
    <path fill="#072338" d="M6 145l154 5-129-11 2 166" />
    <path fill="#fdabb8" d="M887 664l-84 1-5-16 62-2" />
    <path fill="#5d6b72" d="M9 102l-40 35 50-44 59 5" />
    <path fill="#6a6c15" d="M899 642l6 2h15l-14-9" />
    <path fill="#36daea" d="M288 76l-56 1-11 3 133 1" />
    <path fill="#acc0c2" d="M31 263l4 8 11-4-13-9" />
    <path fill="#2e8592" d="M661 465l-24-2-18-1 49-8" />
    <path fill="#b5aa9d" d="M819 609l24 9 12-35-54 23" />
    <path fill="#fff" d="M300 360l207-81-286-21 159 99" />
    <path fill="#cacfcf" d="M383 700l-8 42 32-1 4-39" />
    <path fill="#c797e0" d="M619 129l3 12-83-1 9-13" />
    <path fill="#fff" d="M816 687l64-4-126-33-104 149" />
    <path fill="#b4f0d8" d="M942 626l-87-13 64-10 25-48" />
    <path fill="#fff" d="M561 340l-27 34-53-39 465-14" />
    <path fill="#ffa683" d="M931 760l-60-1 9-38 67 40" />
    <path fill="#0a2638" d="M72 308l-41-23 136 1-169 14" />
    <path fill="#4c606a" d="M104 533l-51-6-13 12h43" />
    <path fill="#fff" d="M999 466l-264 2 161-32 38 25" />
    <path fill="#00b39f" d="M529 43L298 16 49 17 342 0" />
    <path fill="#dbe" d="M212 525l18-4 5-48-23 4" />
    <path fill="#babfcd" d="M298 593h32l5 45h-26" />
    <path fill="#a8c2ba" d="M310 3l76-4h133L163-4" />
    <path fill="#111112" d="M419 222l-10 12 9-17-32-2" />
    <path fill="#10484b" d="M157 719l-65 80-33-90 111 86" />
    <path fill="#414141" d="M456 137l-63 6-12-15 30 10" />
    <path fill="#4e5f6b" d="M124 156l-91-21 94-1-93 24" />
    <path fill="#14db2b" d="M3 223l-33 46-1 79 36-33" />
    <path fill="#c5d267" d="M545 532l-18-18-42 17 47-1" />
    <path fill="#fff" d="M962 429l-23-2v-18l18-2" />
    <path fill="#576872" d="M51 163l5 10 28-1 72-2" />
    <path fill="#edbbaf" d="M663 363l-114-14 62-3 22-14" />
    <path fill="#a295a3" d="M490 157l-52 1 10-11 49 2" />
    <path fill="#e5b5aa" d="M485 341l16 10 81 63-107-73" />
    <path fill="#dee173" d="M303 508l53-31-27-4 1 24" />
    <path fill="#988f99" d="M466 238l26 5 4-11-25 2" />
    <path fill="#cbd0d1" d="M256 734l3-34-34-1 7 48" />
    <path fill="#cccacb" d="M792 523l-112-4-2 15h76" />
    <path fill="#90bfb8" d="M895-2l158 1H918l96 1" />
    <path fill="#c0d769" d="M298 471l-5 3-15 25-3 28" />
    <path fill="#fff" d="M841 324L593 83l361 1-351 124m-346-67l56 76-49 94-27-161" />
    <path fill="#4e636e" d="M115 336l-5-1-89 8-17-11" />
    <path fill="#fffdff" d="M252 556l40 144-38-157-60-19" />
    <path fill="#a6d998" d="M731 760l2-16 54 11 40 2" />
    <path fill="#8dded2" d="M130 17l-20 10H29l-16-8" />
    <path fill="#fff" d="M443 141l-95 1 52 22 66 192m238-226L545 99l-1 167-63-139" />
    <path fill="#677780" d="M28 439l4 2 148-1-35-5" />
    <path fill="#fdfdfe" d="M342 678h220L407 496l123 117" />
    <path fill="#49c92c" d="M977 439l-63-14 22 36 45-47" />
    <path fill="#fff" d="M444 529l-10 270-11-212 417-50" />
    <path fill="#74acdf" d="M268 128l11 11-24 4-25-13" />
    <path fill="#fff" d="M912 711l105-12-5-209 41 252" />
    <path fill="#586d79" d="M57 297l4 3 93-4-94-5" />
    <path fill="#c7ccce" d="M453 727l38 1-5-21-25-12" />
    <path fill="#fffcfa" d="M553 75l-25-32h-55l-153 1" />
    <path fill="#4d351e" d="M218 50l1 3 11 19-15-10" />
    <path fill="#adebdf" d="M870 620l48-57-112 35 144 10" />
    <path fill="#70a082" d="M428 485l-14-20 2 29 15-26" />
    <path fill="#8cded4" d="M834 739l45 10h-83l30-19" />
    <path fill="#a69da8" d="M662 239l-32 7 2-19 25 11" />
    <path fill="#051f35" d="M32 398l2-77-22 82 174-2" />
  </g>
</svg>