<svg version="1.1" viewBox="0 0 1024 768" width="1024" height="768" xmlns="http://www.w3.org/2000/svg">
  <path fill="#466168" d="M0 0h1024v768H0z" />
  <g fill-opacity=".5">
    <path fill="#fff" d="M-31 144.3l368.3-1-2 593-366.3-.8" />
    <path fill="#000f13" d="M391 170.8l-15 606.5 668-22.5 11-628.3" />
    <path fill="#000021" d="M1008.6 64.4L298-31-31 60.6l423.4 22" />
    <path fill="#18d400" d="M819.6 276l-468-3.4-27.7-79.8 506-3.5" />
    <path fill="#fff" d="M-31 187.4l375.7 2.6L30 252.5 19.7 799" />
    <path fill="#28c4ff" d="M352.7 153.5l-22.2-81L-31 71l10.4 77.8" />
    <path fill="#fff" d="M-31 714.4L336.2 739l-2.4-677-43.6 613.6" />
    <path fill="#474a5c" d="M300.7 683.2l-2-458.5-45 41-8.5 398.3" />
    <path fill="#5fe0ee" d="M1055 67.2l-2 64H892L704 80.5" />
    <path fill="#28beff" d="M14.5 731l-43 37 372 30-12.4-68" />
    <path fill="#000031" d="M827.5 713l-4-496.5 230.8-107.7.7 665.2" />
    <path fill="#fff" d="M820 467l-3.5 332 238.5-39.6H828.2" />
    <path fill="#7ace04" d="M-24.7 150.3l-6.3 38 341.7-1 31.5-34.4" />
    <path fill="#0fa009" d="M325.8 438.7l498.6 2-5 69-453.2.3" />
    <path fill="#fff" d="M391.8 701.4L-31 740.2l49.4-579 12 525.5" />
    <path fill="#867c76" d="M28 672.3L26.2 278l121.2-42.7-1 453.2" />
    <path fill="#f3f2f5" d="M243 484.4l2.4-290-95-5.4-1 279.4" />
    <path fill="#00001f" d="M8-25.6L638 78.2 677.2-31-31 30.7" />
    <path fill="#000032" d="M704 97.4l-356 1 367.7 29L856.5 96" />
    <path fill="#8c64a5" d="M226 48L-.5 21l248-4L347 37" />
    <path fill="#f2b8fd" d="M649.5 88.2l-154-10.5L471.7 95l63.3 3" />
    <path fill="#e3ffff" d="M815 334.4L825 202l-2 311.5-6.3-197.7" />
    <path fill="#05c0ff" d="M70 239.5l-13.3-14.3 183.4-4.4-25 22.5" />
    <path fill="#23cd00" d="M639 413l-348.4-19 400.6-.8 169.6 9" />
    <path fill="#fff3ff" d="M326.8 627.4l8-443-98.2 64.6 54.3 3.5" />
    <path fill="#041833" d="M764 9L614.5 6l400-37L1055 82.4" />
    <path fill="#f9f2ed" d="M238.5 571.3l-90.3 4.3-1.7 154 113.7 2.7" />
    <path fill="#011e61" d="M331.8 581l6.6 205.3L626.2 799l-9-298.7" />
    <path fill="#67769f" d="M837.4 114.3l-17 111.7-7.7-52.3-489.2-48" />
    <path fill="#e6dbdd" d="M753 10l-89-3 1 21.2 148-11" />
    <path fill="#cce643" d="M918 76.5L817 69l7.2 33 105-3.2" />
    <path fill="#486e77" d="M458.5 785.4l-35.6 3-3-328L452 79" />
    <path fill="#000b38" d="M332 120.2l283-3-128.4-20.6L358.4-31" />
    <path fill="#fff" d="M299.5 685l-304 46.7L332 731l3-166.6" />
    <path fill="#0e0763" d="M313.3 471.2l284.3 7.2 120-17.4-180.4-3.6" />
    <path fill="#6afb6b" d="M795.6 96.2l-119-19-102 6.4L591 97.8" />
    <path fill="#001533" d="M675.4 78.3L321.8 72l350.4-50 184 56.4" />
    <path fill="#d2dce5" d="M342.7 89.8l12-4.8 81.3 6.2-87 5.4" />
    <path fill="#031f60" d="M627 378.5l-8.7-106.2-284 15.6 3.3 93" />
    <path fill="#000028" d="M845 148l-18 376.2 1.3-395 219.4 7.3" />
    <path fill="#fff" d="M235.7 194.2l-153-7.5 78 63.4-81.7 3" />
    <path fill="#fffffa" d="M334.5 509.7l-76.8 2.4-288.7-1 326.6-7" />
    <path fill="#fffffe" d="M1030.4 759L826 760l-29 39 223.4-12.8" />
    <path fill="#fff" d="M31 676.2L.3 160.2l-11 569.4 411.2-8.5" />
    <path fill="#dfe0d7" d="M826 143.3L818.6 309l1.7-183.8v-43" />
    <path fill="#007e00" d="M629 192.8l-159.3 13.7-24.2 68.4h162.3" />
    <path fill="#05141d" d="M90.5 71.5L30.5-31l-51.2 99.5 107 4" />
    <path fill="#00002d" d="M826.2 584l-3 172.6 72.4 2.4 64.8-.8" />
    <path fill="#b4c4c1" d="M1055 38l-79-4.4-135 5.7 195.4 3.8" />
    <path fill="#c361e5" d="M233.5 241.7l79.3 2-11-46.8-76 4" />
    <path fill="#f6f8f6" d="M117 591.4l255.5 4-233 4.3-148-3.6" />
    <path fill="#fff" d="M100 188.2l-73.8 69.4-.4 312.6L-31 189" />
    <path fill="#dbeef2" d="M734.7 33.7l77.7 7.5 20.2-2.7-103 4" />
    <path fill="#5aa71e" d="M623.3 513.7l4.3-325.2 3.6 293.8 206-5" />
    <path fill="#675f80" d="M847.3 616.3l154.3 3.8-177.2-35 174.7 3" />
    <path fill="#5d5578" d="M823 411l188.3 4.4-186.8-40.8 165 12.6" />
    <path fill="#928ba4" d="M989.4 204.6L879 206l-25-11 143.6 7" />
    <path fill="#aed4cc" d="M817.2 507.2L821 414l5 40-2.3 157.3" />
    <path fill="#fff" d="M82.6 534L-26 538l144 3.2 90.8-6.8" />
    <path fill="#039400" d="M601.4 476l-267.6-2 3 42.7L649 497.2" />
    <path fill="#fcf7ee" d="M174 424l130.6 2.6-.6-73.3-4 63" />
    <path fill="#eef1f0" d="M272.4 338l-232.2-2.7 242-4 246.6 3" />
    <path fill="#a18fb3" d="M947.8 147.6l-112 19.5 100-1-88-21" />
    <path fill="#001352" d="M584 191l-285.2-12 153.7-19.7h186.3" />
    <path fill="#576780" d="M519 673l3.3-23-51.3-4-138 28" />
    <path fill="#324156" d="M622 791.2l3.2-281 194.7 4.5-2 270" />
    <path fill="#011739" d="M797-31L633.3 9.5l141-1.2 48.5 112" />
    <path fill="#00002d" d="M930.2 132.6l124.8 290-85.2 164 71.7-454" />
    <path fill="#374555" d="M282.3 306.6L305 254l-76.7-4.5 73.8 30.2" />
    <path fill="#3590bd" d="M385 730L72 799l-103-69.3 136.7 1.8" />
    <path fill="#fff" d="M112.6 626.5l49.5.2-85-6.4-107 8.2" />
    <path fill="#001341" d="M454.3 507.4l11.4 90 150.6 143.2 10-227.5" />
    <path fill="#778699" d="M579 306.6L302.8 301l104.2-4.5 109.4.6" />
    <path fill="#eff9e2" d="M238 455l124.8-5 13.6 5.3L255 444" />
    <path fill="#36a1df" d="M818.8 97l236.2 26-139.4 8.6-93-1" />
    <path fill="#000936" d="M818 94.3l-215.3 20 201 6.5 13-7" />
    <path fill="#001651" d="M320.7 427.8l297.7-21 31.2 35.5L478 444" />
    <path fill="#fff" d="M266 541l-221.6-3 215.3-3.7L391 533" />
    <path fill="#f9fcfb" d="M-31 304l207.2-.8 209 3.7L92 310" />
    <path fill="#fff" d="M148.4 638.5L248 649l-25.6-29 86.7 3.2" />
    <path fill="#c1bfbb" d="M65.4 398l266-1.7-296.8-41L228 369.5" />
    <path fill="#8b96c0" d="M330.4 382.7l146.2 6.6 85-6.6-77.2-1.5" />
    <path fill="#485464" d="M309.8 628l-62.6 7.3 60 44.4-78.8 2" />
    <path fill="#36235f" d="M811 456.5l-171.3 9.3-26 9.5L815 475" />
    <path fill="#a7a8aa" d="M204.3 645.6L6.3 655l157 6.7 335-10.7" />
    <path fill="#809981" d="M24.4 38.3l105-19 46-.8 10 18.2" />
    <path fill="#2ac01e" d="M565.3 408.2l-234-17.6 18.6 15 33 3" />
    <path fill="#8925ae" d="M250.7 53l-18-44.7-35.5 33.4-63.8 11" />
    <path fill="#fff" d="M216.6 224.6l-186.2-32 202.8-5v78.8" />
    <path fill="#489500" d="M619 268.8l143 5 1.6-75-136-3.4" />
    <path fill="#615e5c" d="M27 261.7L251.2 274H51.5l-26.7-26.4" />
    <path fill="#000032" d="M826 381.2l59-118.7-53.5-136.2-7.5 8.3" />
    <path fill="#0b245c" d="M489.5 539.3L334 572l2-65.5 184 5.5" />
    <path fill="#fff" d="M214.8 187l91.4 17L328 448.8l3-256.7" />
    <path fill="#495360" d="M319 344l-69 18.6-.4-36-55.3 2.7" />
    <path fill="#fff" d="M187.7 445.6l-69.2 8.4L-31 439l47.7 17.2" />
    <path fill="#00172c" d="M921.6 18l-39 5.3 138.4 48L884 61" />
    <path fill="#746e87" d="M816.8 241.3l29.3-5 116-2.5 56 9.2" />
    <path fill="#fff" d="M171 336l5-4.5L10.4 333l-12 6" />
    <path fill="#636462" d="M147.6 621.4l116.2-1.6-116.2-6.2-120.2 3" />
    <path fill="#3e3b57" d="M674.2 280.6l135.3 1 5.6 107.7-150 .6" />
    <path fill="#fff" d="M60.2 389.8l-57.5 3.4 32.7 3 131.4-3.8m-190 25.5l52.5 183L-31 428l244-8.2" />
    <path fill="#59d4ff" d="M786.5 97.5L738 95l5.5-15.7 72.4-1" />
    <path fill="#f1ede5" d="M321.5 559l11 17-53.8-8.2-100.5 2.5" />
    <path fill="#8893a4" d="M537.6 713.8l7.5 8.8-109-.8-15-4.4" />
    <path fill="#54959f" d="M877 81.4L814.2 75l83-39.5-101.7-1" />
    <path fill="#a7a5a1" d="M125.8 353.3l99.8 36-122.3 2.2 218-29.3" />
    <path fill="#fffffd" d="M241.6 365.4l-5-25.6L140 349l201.6 21.4" />
    <path fill="#02002d" d="M1055 386l-178 73.7-51-70.8-1.7 225" />
    <path fill="#fff" d="M37.6 562.5l157.7 4.7-169.3 1-57 13.7" />
    <path fill="#fffff8" d="M299 483l3.7 16 9.2-23.4-227 4" />
    <path fill="#0d462a" d="M340.3 346.6l1.7-281-7.6 132L336 276" />
    <path fill="#5e5d5c" d="M168.3 679l-143.6-.8 51-8.2 30-14.4" />
    <path fill="#68aa73" d="M422 202.5l140.4 2.8-148-18.4 45-10" />
    <path fill="#000028" d="M1055 612.6L987.6 405l67.4 382-125.5-165" />
    <path fill="#374758" d="M298.3 455.7l-55.7 48 57 2-59-51" />
    <path fill="#6e6c6b" d="M11.8 281.2l219 22-171.3-.7 147-22.6" />
    <path fill="#fff" d="M32.3 281.6l-32-85.2-31.3 79.3 188-.8" />
    <path fill="#20324b" d="M235.5 308.2l24 17.5 45.7 5.4-11.4-17" />
    <path fill="#797675" d="M278.8 589l-98.6 6.4-97.7-6.4 117.5-2.4" />
    <path fill="#7c768e" d="M929.2 656.2l-55.5-8.5-32.7.8 11.7 8.2" />
    <path fill="#45ae13" d="M594.8 399.8l219-8.4 5.8 1.8-1.8 18.5" />
    <path fill="#f6f4ec" d="M271 279.5l58.6-2.6-75.3-4-106.6 5" />
    <path fill="#5f7288" d="M358.4 334.6l159 5 58-5.4-54-4" />
    <path fill="#001a35" d="M765-25.2l104 95 186-28-190 3" />
    <path fill="#fff" d="M205 247l-143.5 4-16.2-1.2L-31 237" />
    <path fill="#2e3f54" d="M253.5 448.6l43.5-2.4-2.5-18.3-47.8-1" />
    <path fill="#3699d7" d="M975.8 133.5l-58-62.4 137.2-1v60" />
    <path fill="#000930" d="M176.6 11.7L-13 14.4 258.4-31l-68.2 83.7" />
    <path fill="#00103c" d="M395.6 684l11-193.6L423.3 673l130.4 6" />
    <path fill="#d482f4" d="M558.5 97.5l-35-1-46.7-13.2 98.8-6.8" />
    <path fill="#877460" d="M899 540.4L862.8 516l-12.2 20.7 29.7-28" />
    <path fill="#76b42b" d="M324.8 173.8l5.7-12.4.8 29-247.6-13" />
    <path fill="#fff" d="M141.5 298.4l12.8-10.5 64-5 31.5 12" />
    <path fill="#5d4433" d="M934.5 339.2l47-97 8.6 61.2-10 .7" />
    <path fill="#716d85" d="M904.5 441.2l19.3 8.8-89.2.7 17.4-9" />
    <path fill="#898888" d="M370.3 687.2L145 682.8-18.4 686l85.3.5" />
    <path fill="#524439" d="M947.2 506.8l63 16.4-46-67.4 2 108" />
    <path fill="#000824" d="M999.7-31L791 10.5l196.4 3 56.6-1.8" />
    <path fill="#6e6965" d="M228.2 442.3l30-.8-23.8 7.5-127.3-3.7" />
    <path fill="#fafaf7" d="M352 599.6L219.4 597l55.7-4.5 118 14" />
    <path fill="#616061" d="M154 337.2l-71.7 4-43.4 18 94 3.3" />
    <path fill="#001736" d="M731.6-14.3l-369 135.8L710-31l7.3 69.2" />
    <path fill="#5f6f91" d="M331.4 157.6l82.2-4.5-90.6-36 460.2 42" />
    <path fill="#fff" d="M-22 480l77.2 3 228.4-3.8L47 476.6M62 685l43-7 53 4.5 44.5 2" />
    <path fill="#3e4956" d="M295.7 281.8l7.4 20-37-1.3-35-21" />
    <path fill="#449e1c" d="M591.3 505.4l221.6.3-3-151.2-9 122.2" />
    <path fill="#3a4755" d="M302 564.8l-55.2-5.3-1.6-16.8 55.4.4" />
    <path fill="#30bded" d="M138.5 242.3L132 223l-66.2-4.6-1.7 22" />
    <path fill="#94999f" d="M923.2 20.4l-144.5-6.7 168.4 2 98 .5" />
    <path fill="#8592a1" d="M420 347.8l47.5 24.4-43.6-2 41-23" />
    <path fill="#615d5a" d="M209.4 429l46.5-15-174 2 156 2.7" />
    <path fill="#4d1e41" d="M753 799l-.2-288L687 723.4l-2-168.7" />
    <path fill="#3b98c6" d="M53 70.5L288 147 2.5 150.3-4 103.5" />
    <path fill="#807097" d="M843 172.4l66.7 3.2 8.2 4.4-67 5" />
    <path fill="#929f9b" d="M52.2 53l86-77.6-76.7 72L168.2 52" />
    <path fill="#001741" d="M640.3 396l-78.8-130.2-18.8 70.4L420.5 360" />
    <path fill="#001d34" d="M400.7 294l-7 13.7L415 490.2l7-221.6" />
    <path fill="#837449" d="M869.5 730l40.8-59.7-28.8 33.2 9.7 38.6" />
    <path fill="#288fc1" d="M165.5 150.3l160.8-2.3 4-78.5-208.5 3.3" />
    <path fill="#fff" d="M35 655.6l77-.3 111.7-1.8-207-2.8m20-283.4l-67.7-3 66.3-3 205 2" />
    <path fill="#001433" d="M418 37.7L2 69.7 342.6 71l261 8.4" />
    <path fill="#5c5c5c" d="M108.4 367l-73.6 21.3 101.8.7 10-21.5" />
    <path fill="#8d8783" d="M116.2 453l74.7 6 6 228.7 7-233.7" />
    <path fill="#6f7943" d="M746 162.5l-97.3 24 141.7-.4L618 166" />
    <path fill="#fffffd" d="M300.8 478l4.3-242 3 227.7 1 36.2" />
    <path fill="#694a38" d="M982 660.2l5.6 62L944 696l3.5 39" />
    <path fill="#000048" d="M503.8 460.6L358.6 465l-31.4-5.2 43.3-1.8" />
    <path fill="#071c3e" d="M343.7 678.8L339 792.5l-3.8-19 1-235.3" />
    <path fill="#69b016" d="M784.5 445.3l8.2 12.6-14.5-3-197-4" />
    <path fill="#fff" d="M172 241.8l72.7 28-113.6-4 128-23.5" />
    <path fill="#757188" d="M823.8 386.7l180.3-1.3-72-6.4-6-2.2" />
    <path fill="#004145" d="M340 242v211.7l-8.5-20.5 1.5-28" />
    <path fill="#fff" d="M21 599.7L2 424.3l25.5 168 146 1.8" />
    <path fill="#504859" d="M598 435.4l229-17L574.3 404l249 36.4" />
    <path fill="#b7e6da" d="M802 85l-17.6-.4-174.6 2 197 4.8" />
    <path fill="#007909" d="M343.6 278.5l-6.8-94-.3 82.6 140 8" />
    <path fill="#008500" d="M535 390.7l178.6 1.7-253.6 17-25.5-17.5" />
    <path fill="#a0ca95" d="M821.2 69l-5 63.6L835.5 88l98-14.5" />
    <path fill="#d6cfcf" d="M732.3 9H784l-20 16.8-30.8-3" />
    <path fill="#70613b" d="M880 284l19 49.7-33.6-21.4 47.8-51.7" />
    <path fill="#008c00" d="M652 443.4l-284.3-2 36 18.6 206.4-2" />
    <path fill="#fff" d="M216 334l34.6-22.4-92 4.8 133.7 24.3" />
    <path fill="#8ca3a3" d="M331.7 489.2l38.7-2.2-27.8-21 37.6-.8" />
    <path fill="#616060" d="M140.7 472.4L149 453 17.3 476l139.8.6" />
    <path fill="#666865" d="M185.5 651.5l-152-4L110 645l188 4.7" />
    <path fill="#abb2bd" d="M336 786l-.8-32.5 66.5 2-75-6.4" />
    <path fill="#444b56" d="M255.3 353l21.4-10.4-129.4-3 91.2-1.7" />
    <path fill="#7c7c76" d="M148.6 284.2l94 .8-49.3-13 146-7.6" />
    <path fill="#585653" d="M204.5 674.4l-42.3 1.5-22 3 131-3" />
    <path fill="#fff" d="M258.2 656.3l-74.6-1.3 53.4-4 97.7 1" />
    <path fill="#95ccde" d="M58.3 757.6L35 747l47 1.5 90 1.8" />
    <path fill="#fff" d="M236 443.7l-100.2-8 100.8-7.8 11.2 13" />
    <path fill="#000025" d="M897.5 608.4l-66.7-10.8 87.3-4.8 82 18.6" />
    <path fill="#094174" d="M794 513l12-153.5-10.4-157-8.3 130.8" />
    <path fill="#835710" d="M34.2 54.2l-21-38.4L60 36.4 46.8 42" />
    <path fill="#757473" d="M48.7 504l137.7 1.8-62.2-24-71-.6" />
    <path fill="#cce3b4" d="M139 166.6l21 6.4-93.6 1.2-35.2-8.5" />
    <path fill="#636262" d="M148.2 531.3l29.6 2.3-123.2.6 85.5-24" />
    <path fill="#fffcf3" d="M262.4 310.5l-20.6-4 25.3-5 60 4.8" />
    <path fill="#000026" d="M827.2 399.8l101.7-12 120 13.7-115 3.5" />
    <path fill="#787270" d="M25.4 252.6l4.8 120.7-1.5-97.2L77 250" />
    <path fill="#f3ffff" d="M317.3 665.5l-.7-281.2 17.2-38.6 2 111.8" />
    <path fill="#939dad" d="M388.2 539.5l-70-6.3 74.6-4 5.3 7" />
    <path fill="#55595e" d="M302.4 405.2l-59.8-9L123 398l130.4 2" />
    <path fill="#004544" d="M640 784.3l5.3-239.7 18 133.3 38.7-29" />
    <path fill="#fff" d="M131.4 218L41 222.8 152.7 198l-7 57" />
    <path fill="#4b535d" d="M296 652l-34-25.7-108.8 3.2 146.3.8" />
    <path fill="#868684" d="M25 689.3l2.6-119.7 15 113 62 2.6" />
    <path fill="#0a2d87" d="M793.5 799l-4.2-215.3 9.5-124.7 4.7 220.2" />
    <path fill="#2b3e53" d="M261.5 618.3l29.2-2.7 15-16-66-.4" />
    <path fill="#fff" d="M303.3 390.3h-42l-41.2 3.5 110 4.5" />
    <path fill="#fffefc" d="M242.5 387L141 382.3l41-11 56 2.8" />
    <path fill="#7d7c7a" d="M89.3 332.6l67.7 20.2-129-38.3 191.7 17" />
    <path fill="#5e5854" d="M191.6 477.3l-36.3-4 115 .8-80.6 5" />
    <path fill="#9accdc" d="M98 125.6l64.5 4.5-72 6-44.7-8" />
    <path fill="#001734" d="M762 33.4l73.6-8.7-150-.6-86.8 7" />
    <path fill="#3d4a59" d="M239.7 367.2l68.8 1.8-19 18.3-26.2 3.4" />
    <path fill="#054176" d="M763.2 346l12-160.8 1 313-5 44.4" />
    <path fill="#7986a0" d="M426.6 439.8l48.8-4.7-47.6-4-5.6-15" />
    <path fill="#00002b" d="M823.7 684l3.6 74L948 621.4l69.7 42.3" />
    <path fill="#662b2c" d="M733 127.3l-.2 375.5 19.7-378.3L750 441" />
    <path fill="#717b92" d="M337 606.6l118.8-9.6 12.6 9.2-122.8-8" />
    <path fill="#41af38" d="M419.5 220.4l4 55.5 36-21-2-55" />
    <path fill="#71733e" d="M864 531.3l20.3-12-.3-27.3 31.3-29.6" />
    <path fill="#007f00" d="M365 261.5l62.6-83.6-20.8 72 225.4 25" />
    <path fill="#fff" d="M57.3 453.4l-33.5-4.7 107-1.8 108.2 5" />
    <path fill="#001641" d="M416 759.2l207.8 34-2.2-106.5-169 69.3" />
    <path fill="#fff" d="M-31 739l284.4-52L26 695.4 22.7 374" />
    <path fill="#33445b" d="M293 533l3.3 3.3-68.6-25.5 70.5 5.6" />
    <path fill="#fff" d="M-31 503l55.8-268.3v277.7l200.7-2.2" />
    <path fill="#656666" d="M106.4 418.7l-82.8-2 103.7-21 19.8 14" />
    <path fill="#bfbfba" d="M316.7 386l-1-147.2-12.2 104 7.8 179" />
    <path fill="#001e4b" d="M316.4 158.5l236.5-.8L706 181l-340-18.4" />
    <path fill="#001b35" d="M480.3 77.4L763.5-31l-498 18 220 136.7" />
    <path fill="#8f8e8b" d="M106.6 204.3l-57.8 10-.7-13.8 17 2" />
    <path fill="#dbe0dd" d="M820 320.4l4.4-172.7-.3-72.3-4 32" />
    <path fill="#5e936b" d="M414 446l57.8 4-54 21.7 49.6-.8" />
    <path fill="#001e38" d="M620.7 43.7l-5.2 73 128-18.6-134 2" />
    <path fill="#dfdcd7" d="M716.8 9.8l-54 .7-1 10L700 27" />
    <path fill="#637e3e" d="M639 288.2l13.4 107 2.6-145.4-21.2 159.4" />
    <path fill="#6d6b6a" d="M141.2 314l61-3.5-138.3-2 79 20" />
    <path fill="#a2b3ae" d="M79.8 64.4l-15-47L182 22 65.3 27.8" />
    <path fill="#fffffe" d="M328.5 693.6l-14.4-64-102-5.2 110-4" />
    <path fill="#000037" d="M891.7 376l157.7 10.5-184-63.2-34.3 57.4" />
    <path fill="#001541" d="M451.8 632.3L425.3 651 654 627.5 445.5 608" />
    <path fill="#032679" d="M763.2 698.7l8-251.4 10 315.7-13.8 36" />
    <path fill="#87c883" d="M336.8 198.8l215.8 4-7.7-.8 7-5" />
    <path fill="#717185" d="M954.5 587.3l-103 9-14.5-7.5 22-2.7" />
    <path fill="#000b2d" d="M35.2 55L-6.6-27.7l1.2 101 180.8-17.8" />
    <path fill="#70aa79" d="M385 499.3L323.2 522h40.4L332 496" />
    <path fill="#00173a" d="M818.3 104l-11-25.2L560 74.3l265.2-32" />
    <path fill="#676666" d="M34.6 564.3l121-.3-19.5-18.8-4-4" />
    <path fill="#6eab2a" d="M-12.4 168.4L-31 192l43.2-5.2h262.4" />
    <path fill="green" d="M622.4 199.8l-9.8 74.4-152.3 1-2.7-65" />
    <path fill="#011e2f" d="M1055 93.6L955.7 18l-142 8.5 185.5 7.8" />
  </g>
</svg>