<svg version="1.1" viewBox="0 0 1024 768" width="1024" height="768" xmlns="http://www.w3.org/2000/svg">
  <g fill-opacity=".5">
    <path fill="#000d31" d="M652 161.4l-27.6-1.8 182.3-.6 16 5" />
    <path fill="#9ba4b0" d="M453.8 320l-30-1-12.3-2.4 50.7-2" />
    <path fill="#838d9f" d="M398 679.7l-71 5.6 18.3 2 28 3.2" />
    <path fill="#00002b" d="M825.2 158.8l9 24 190.7 1-195 17.6" />
    <path fill="#fffdff" d="M328.2 254.8l-108.4-10 31.8-4 77.4 1" />
    <path fill="#72c066" d="M456.8 478.8L418 505l30.8-.3-32-22" />
    <path fill="#6f706f" d="M88 598.4l50.2 20.6 7.8-15.3 95.2-4" />
    <path fill="#615f5f" d="M138.4 272.6l11.7-22.2L42 254l58.5.6" />
    <path fill="#98a2b4" d="M446.5 282.4l12.2 5.4-41.7-2.5 26.3-6" />
    <path fill="#fff" d="M311.6 688l23 76 1.2-28-195.5-46" />
    <path fill="#007c00" d="M497 228.8l-24 .8-142.4-2.2 70.3-13.2" />
    <path fill="#7c8a9c" d="M538.2 664.6l4.2 5.8-114 2.7-5-5" />
    <path fill="#dedbe3" d="M859.6 40.8L902 42l1.6-4.4-45.7-2" />
    <path fill="#fffffd" d="M340 445.8l-242.2 5 176.4 1.7 24.4 1.3" />
    <path fill="#656362" d="M59 360l199.8 1.4 15-4.7-167 2.4" />
    <path fill="#fff6ec" d="M335 85.2v77.2l-4.4-96 5.8 19" />
    <path fill="#00243d" d="M684.2 363.2l133-1L820 282l-9 69.2" />
    <path fill="#04002a" d="M893 325.7l78.5-22.2-21-72-65.8 72.4" />
    <path fill="#9ba8b6" d="M401.7 86.2l30.4 9.3h-78l-9-5.5" />
    <path fill="#00133f" d="M590.4 709.6l33-46.5-193.8 27-75.4 2" />
    <path fill="#6b6983" d="M872.3 612l141.5-.5L865 622l14.2-20" />
    <path fill="#969dab" d="M335 632.2l59.2 3-37.8 4.7-38.7-14" />
    <path fill="#424f60" d="M250.5 664.2l43.5 14.4 3.3-20.4-83.4-2.6" />
    <path fill="#63748f" d="M463 171l-129-52 142.2 2-57.3 49.4" />
    <path fill="#64a116" d="M781.3 265.8l3.6-102 5 88-10 121" />
    <path fill="#031d34" d="M739.5 72.6l-373-4.3 354.7-48 14 100" />
    <path fill="#776f3e" d="M944.5 286l19.2 61-12.3-64.2-36.2-26" />
    <path fill="#89819c" d="M843 156.7l5.4-11 104.8 7-46.2-8.2" />
    <path fill="#6d9c38" d="M615.8 301.3l12.8-3.7 90.7-1.3 16 6.7" />
    <path fill="#929ba1" d="M860.2 19l-36.7-5-66.7 8 87.2-1.3" />
    <path fill="#5e605f" d="M199.5 386.7l1-29.3-11.6 32 63-.6" />
    <path fill="#f6f8f7" d="M-7.8 615.6l40.3 6.2 183 .3-225 10" />
    <path fill="#656a78" d="M1019 206.4l-31-8-180-1.5 247 11" />
    <path fill="#fff" d="M247 632.7l-53 13.6-39.7-1.6 4-14.4" />
    <path fill="#657c38" d="M761.4 689.7l2-102.2-4-68-4.4 135" />
    <path fill="#777877" d="M44.2 626.7l-23 23.8 127.3-.7-1.3-22.2" />
    <path fill="#3b495a" d="M302.8 574l-71.2-4.3 44.7 22.4 25.3-6" />
    <path fill="#006700" d="M463.3 193.3l-73.8 11 83.2 9.8-146.3-27" />
    <path fill="#fff" d="M226.7 327h-85.3l12.4-15 95.7 9.8" />
    <path fill="#605f5e" d="M212.8 655.2L86 660.4l103-1 8.5 4.6" />
    <path fill="#9da6b4" d="M377.6 553.7l-45.2 1.5 27.2-7.7 27.8 2.6" />
    <path fill="#8dc5da" d="M117.3 95.4l-49.3.2-19-9 77-.2" />
    <path fill="#006405" d="M362.7 396.7l196.5-4.2-231.4-3.7L352 394" />
    <path fill="#9ca2af" d="M319.5 584.7l50.6-3 21 7.7-42-2.2" />
    <path fill="#fff" d="M46 309.7l-72.5-2.3L97.7 303l47.2 2.8" />
    <path fill="#083b79" d="M662.6 404.7l-7.4 155 14.2 34.5-3.8-109" />
    <path fill="#000029" d="M824.8 133l1 128.2 92-11.7-59.2 62.8" />
    <path fill="#424f5d" d="M247 415.6l5.4-15.3 46.4-7L302 418" />
    <path fill="#00123d" d="M554 706l-89 8-135.5 1.4L357 705" />
    <path fill="#00112c" d="M104.5 67l12 6 22.3-68.2-2.7 37.8" />
    <path fill="#84c780" d="M325.7 401.6L397 405l-8.8-22 3.7 9.8" />
    <path fill="#00172e" d="M-31 42l219.6 6.4L192-25l-14 62.3" />
    <path fill="#39bc34" d="M569.6 78.5l11.7 22.7L584 83l189.8-1.3" />
    <path fill="#003334" d="M815.6 533.3l-4.2 259L819 758v-72.6" />
    <path fill="#7e9a31" d="M624.5 510.6l2-80 3 128.7-3 145" />
    <path fill="#645a50" d="M925.3 753.5l62.3-54-22.5 36-56 17" />
    <path fill="#000031" d="M1023.8 516l-41.5 73 32.6 169 40 .8" />
    <path fill="#595e67" d="M248.8 281.3l47.6 15.4L141 302l104 1.6" />
    <path fill="#4d4c4b" d="M164.7 426.2l14 2.3 121.3-.2-16.6-3" />
    <path fill="#737487" d="M857.2 408.8l44.5-5.8 104.5 5-7.7 5" />
    <path fill="#000f3f" d="M702.6 337l-360 5.4 306.5 4.3 224-3.4" />
    <path fill="#001647" d="M672.5 170.8l-188.8 4.5 246.4 5.4 145-10" />
    <path fill="#008300" d="M490.6 509.8h140.6l-27.4-37.2-176 16.6" />
    <path fill="#678d33" d="M723.7 758l-4.5-167 6.8-149 .5 241.7" />
    <path fill="#bfcac7" d="M394.8 179.2l-190.6 18 121.3-12 72.4 2" />
    <path fill="#f3f2f0" d="M144.2 290.7l15.2-17.3-72.6 4 140.4 10.3" />
    <path fill="#6ea41d" d="M806.6 142.8l6.7 86-4.2 116.6-2-74.4" />
    <path fill="#7f6f29" d="M957 512.5l-10.7-28.2-46.7-9.4 30.4-3" />
    <path fill="#b7bfc7" d="M403.5 670.4l-43.7-4-51 5 8.4-.4" />
    <path fill="#75a622" d="M640.3 356.2l1 115.3-4.8 52.8.8-139.8" />
    <path fill="#68799c" d="M495.8 385l47 5 27-10.6-109.6 1.2" />
    <path fill="#00002c" d="M820 233l119-26.4 116 12.4-103.2 18.4" />
    <path fill="#6c7e93" d="M407.6 371.4l63.2-13-22.6-13.3 23.3 26" />
    <path fill="#000a40" d="M790.2 378.8l17.3-6-154.8-2.5-19 6.8" />
    <path fill="#001e42" d="M648.2 645.4l168.4-25.8-150 6.4 134.7 19.7" />
    <path fill="#858d9f" d="M362.2 324.3l-30.8-11.5-21.8-.8 74.8 1.8" />
    <path fill="#97d194" d="M384.6 268.7l-45.2 2.6-27.6 45.8 33.6-55" />
    <path fill="#f8f4f2" d="M246.2 614.6l-98.5 1.7 95-12-.8-74.5" />
    <path fill="#63605e" d="M186.7 254.4l91-.6-96-3-99.7 3.4" />
    <path fill="#007c00" d="M718.3 228.3l88.6-.3-95-11.5-126 11" />
    <path fill="#7b8697" d="M395 730l-7.6 7.3-75 1 73.5-8" />
    <path fill="#79a82b" d="M627 297.2l-4-122.5 1.2-27L629 158" />
    <path fill="#11547f" d="M898.8 368l46.4-2.7 15.8-2.5-180.2-1.7" />
    <path fill="#fff" d="M48.8 250.5l248-3.6-322-10 67.4-48" />
    <path fill="#000d42" d="M810 303.8l-102.5-.2-291 6.4 401.7 1.2" />
    <path fill="#145588" d="M1007 569.8L842 576l40.2 54-44.6-61" />
    <path fill="#040f3e" d="M363 98l-28 18.8 217 1.8 81.7-18.8" />
    <path fill="#708e32" d="M641.3 637.2l-4 2.2-1-98 2.8-54" />
    <path fill="#737271" d="M6.4 449l177-4L85 426.4l100.5-.3" />
    <path fill="#00002b" d="M943 443l-137-3 159.6-31.8-3.8 132" />
    <path fill="#e0dada" d="M825.2 398.3l-4.6 3-.5-48.2 2-147" />
    <path fill="#a2c9da" d="M854.5 116l-19-3.8 98.7-.4 13.8 8.8" />
    <path fill="#6d2332" d="M739.8 444.7l-2.5 347-5.7-173.8 6.4-255" />
    <path fill="green" d="M768 253l-236.3 8.4 256.5 2.8 26.2-8.6" />
    <path fill="#001642" d="M826.3 693.7l-41-3.5-229.2-2.5 140 10.5" />
    <path fill="#fcffff" d="M281.5 731.4L39 728.6l289-12 8-115.5" />
    <path fill="#91c063" d="M355.7 147.3L330 163l5 25-181.2-37.2" />
    <path fill="#5e4539" d="M1000.3 302.8l8 52-42.3-.3 51.7-21.6" />
    <path fill="#001642" d="M808.3 589.8l-150.5 24 161-.8-171.3-24" />
    <path fill="#fcfffd" d="M24.6 396.5l220-3L4 388.2l21 323.5" />
    <path fill="#5c7339" d="M622.8 628.4l2 170.6 18-214.3-3 187.5" />
    <path fill="#001a43" d="M454 377.8L635 291l-149-20.6 154.4 92.3" />
    <path fill="#6ab368" d="M393.6 230.3L329 254l64.7-.3L338 230" />
    <path fill="#001443" d="M689.5 531.5l-122.3-8.3 224.8-1.7 34 5.8" />
    <path fill="#000e42" d="M746.8 297.7l80.8-9.8-170.6-1 31.6 7" />
    <path fill="#61773a" d="M813 717.8l-8.3 75.2.5-151.2 5.5-126.5" />
    <path fill="#001448" d="M458 410.5l2 32.5 158-4.2 4.4-28.7" />
    <path fill="#00113d" d="M438.5 392.3l-82-17.3 130.8-19.8h-143" />
    <path fill="#435162" d="M302.4 269.6l-53.2 3.3-6.3-16 55-8" />
    <path fill="#011e47" d="M401.5 667.4l132.3-4.4L408 652.7 418.7 797" />
    <path fill="#fff" d="M155.7 444.8l80.4-8L75 420l66.7-.6" />
    <path fill="#014" d="M835.6 677.7l-255-8 47.4 11 112.4-.8" />
    <path fill="green" d="M817.4 209l-111.7-6 20.2-2.8-185 13.2" />
    <path fill="#308eb9" d="M34.6 799l-54.8-16 111.7-52-104.5-.8" />
    <path fill="#002639" d="M446.3 443.6L399.5 430l16.3 3.2-90.5 9.7" />
    <path fill="#7d6141" d="M924.5 343.4l55-47.7-52 39.2-32.2-3" />
    <path fill="#646464" d="M42.7 368l-16.2 3.8 100 2.2 76.6-6.5" />
    <path fill="#001044" d="M580.4 459.4l85.8 18.7-99.4-4-203.3 2" />
    <path fill="#626e8b" d="M577.7 119l-242 1.5-2.6 41 19-14" />
    <path fill="#258dbc" d="M332 799l-197.7-55-2.8-7.8 198.5-6.6" />
    <path fill="#000031" d="M828.7 132l-6.5 21 117-20.8-111.7 1" />
    <path fill="#012839" d="M908 69.3l-73.5.7 51-24L1055 71" />
    <path fill="#677487" d="M344.8 369.4l51-23-52.4.7 39.3 25" />
    <path fill="#00002d" d="M908.3 617L867 644.5l156.2 18.5 31.8-34" />
    <path fill="#646464" d="M118.2 593L26 589l13-5.8 199.6 8.6" />
    <path fill="#000e41" d="M605.5 557.7L619 555l258.6 2.7-215 7.5" />
    <path fill="#7eaa26" d="M914 678.8l35.4 16.6L931 681l-34.8 4.4" />
    <path fill="#95a33d" d="M668 186.8l-53-2.3 40.8-5.5 6.3.6" />
    <path fill="#6f7349" d="M821.6 599.2l-16.3 6.3-134.3-2.2-47-6" />
    <path fill="#7f5a3b" d="M776.2 370.7l-93-11-77.8 11 58-.4" />
    <path fill="#00002f" d="M899 537.2L839.2 569l123-1.2-46-101.5" />
    <path fill="#002143" d="M608.3 521.5l158.3 24.7-169.7.6L730 523" />
    <path fill="#00002c" d="M1047 30l-62 266.6 22.7 10.7 16 102.5" />
    <path fill="#fbf8f2" d="M257.3 467L141 473.3l18.2-9.8 53.5-6.7" />
    <path fill="#76ac2b" d="M928 79.3l-6.3 12-112.3 1 110.8 9.7" />
    <path fill="#e0f5df" d="M308.7 219l-2.2 35.2 38.2-40.6L397 218" />
    <path fill="#fff" d="M292.4 535l37 1.8-37.3 4.7-71-5.5m-252 33l162-5.6 79.8 4.4-74 .5" />
    <path fill="#5d613f" d="M939.8 270.7l-31-8.3 112.4 51.8-52-15.8" />
    <path fill="#697f38" d="M778.5 691.4l8.7-7.2-1-146.4-2.6 73.2" />
    <path fill="#a2a7b2" d="M346 621.5h25.8l14.7-5.3-67.7-1.4" />
    <path fill="#6b4f17" d="M685.3 262l-.6-86.7 16 118.3 2.6-88.4" />
    <path fill="#c2eea8" d="M642.2 92.2l43-1.8-30.6-6.3-23 3" />
    <path fill="#002041" d="M556 624l114-14.6-60-22.7 79.3 4" />
    <path fill="#8489a1" d="M423 583.7l48-1 1-.5-26.6 10.3" />
    <path fill="#5ba6c4" d="M280.2 762.8l111.7 5L-11 799l186-39.5" />
    <path fill="#fefcfa" d="M241.2 674.5l11.2-13-78 2.7-30 10.3" />
    <path fill="#001542" d="M625.7 756.3l-51 5 177 4.5 105.5-9.4" />
    <path fill="#00133d" d="M330.5 588.4l23.7 10.6L471 585l-21.7 13" />
    <path fill="#595b5e" d="M171.6 484l137.4 5-39.4-7.7-47.3 1.4" />
    <path fill="#73a526" d="M763.4 252l-4.8 191-1.7-229.3 4-57" />
    <path fill="#fff" d="M149 336l5.5 8.4L257 343l-109.3 14.3" />
    <path fill="#001a44" d="M436 708l268 8.4 109.2-8.4-133.4-3.4" />
    <path fill="#013d49" d="M493.2 411.8l-97.4 3.3-62-1-2.6-9" />
    <path fill="#00002e" d="M824 378.6l5.2 214 18.3-187-1.2-249.5" />
    <path fill="#00182d" d="M72.5-31l151.8 50.5-178.8-7 17.8 30" />
    <path fill="#001846" d="M329.2 421.6l169.2-.2-17 8.8-149.2-1.4" />
    <path fill="#6f7082" d="M978.4 586.8l-100.6 4 96.2 6.5h12.7" />
    <path fill="#1c8e1c" d="M335.5 236l65.3 1 161.5 4.2-205 8" />
    <path fill="#ded3cf" d="M154.5 544.4l84.8 2.6 13.8 11-86-.6" />
    <path fill="#000035" d="M1004 147l-149.4 13 120.3-.5-63-30" />
    <path fill="#4e4a47" d="M971 515.6l-62.3 33.2 27.2-.3 60-74.5" />
    <path fill="#d6ccd1" d="M823 483l-3.5-1.2 4.8 158.5-1.3-123" />
    <path fill="#108e10" d="M719.4 485.5l-179 9.8L806 498l.4-8" />
    <path fill="#001c29" d="M342 531.7l-4.7-80v66L337 697" />
    <path fill="#6b9c23" d="M647.6 423l2.8-16.7 5 63.7-6.5 103.5" />
    <path fill="#6b585d" d="M674 470.7l144.2-3.2-96.5-6.2-88 7.3" />
    <path fill="#807985" d="M955.4 551.4l41.6 6 7.4-9.5-20.4 13" />
    <path fill="#748697" d="M492.4 656.8l44.7-7-49-3.2 9 14.6" />
    <path fill="#001842" d="M490 630.4l-166 1L482 605l-156.7 2.4" />
    <path fill="#091a4b" d="M582.6 418.5l189.7 4.7-107.7 18.5 73 .4" />
    <path fill="#dbd0cc" d="M248 503.2l-8-18-95.4 18.3 35.6-18.5" />
    <path fill="#6e6d87" d="M920 205.7l-68.7.6-11.3-8h60.8" />
    <path fill="#92832c" d="M965.4 668.2l1 42.5 4.2-45.5-.6-2.6" />
    <path fill="#001644" d="M697.7 726.5l-233.5 6.3-140.4-10 118.7-.2" />
    <path fill="#54a3c5" d="M334.5 100.6l-59 14-306.5-7 211.7-10.2" />
    <path fill="#4c4a49" d="M309.6 686l-106-.7H33.8L224 687" />
    <path fill="#1ea7ed" d="M780 98.8l-53-2.3 22-6 68.4 4.4" />
    <path fill="green" d="M573 214.3l-68.8-6.7-170.5-6.5 12 11" />
    <path fill="#001f44" d="M362.6 190.6l278.7 1.6 27.5 2.7-148.5-32" />
    <path fill="#fffffd" d="M244.8 571.6l-40.8 7 33 11 10-4.7" />
    <path fill="#007f00" d="M583.2 392.4H436.8l76.8 13.6 137 2.2" />
    <path fill="#b4b7c4" d="M382 567l-3.2 2.5-29.7.4-66-10" />
    <path fill="#08254b" d="M296.8 339.2l-32.8 1.4-10.3 13.3 34.3 1" />
    <path fill="#727476" d="M204 656.7l-7.2 25L295 670l-110.4 11.4" />
    <path fill="#fff" d="M168.2 271.3l-17.8-8.4 85-9 5 11" />
    <path fill="#807e3c" d="M884.2 314l23 24.2-40-28.5-21.5 21.7" />
    <path fill="#fff" d="M167.6 393.4l132.5-2.8 12 6.5-58-1" />
    <path fill="#798048" d="M858.3 742.6l-5.5-4.7 9.2-15 25-1" />
    <path fill="#001344" d="M683 353l87.4 6.5-116.6 4.2-101.3-6.7" />
    <path fill="#fff" d="M313.3 200.4l-11 74.8 26.5-88.5-106.2 6.3" />
    <path fill="#adc2b9" d="M930.5 41l49.6 4-2-17.7 1 5" />
    <path fill="#7b5d4e" d="M835 385.6l-148.2-8-89 9.3 105.5-1" />
    <path fill="#847538" d="M603.4 335.8l109.4 1 49.7-1.7-96.2-5" />
    <path fill="#919da4" d="M388 162.8l14.4 7.5-108.6.4 29.3-1" />
    <path fill="#618039" d="M666.6 674.6l-3-86.5-5 74-37 8" />
    <path fill="#000d3d" d="M482 561l-129.3 2.8 97.6-23.4-111.3 2.2" />
    <path fill="#fffffb" d="M332.2 338.3L188 336l86.2-4.4 58.7 9.2" />
    <path fill="#6c6763" d="M218.3 310.2l28.6-.7-49 3-36-4" />
    <path fill="#69798d" d="M364.6 701.7l35.8 19.8-32.7-1 28.5-26.7" />
    <path fill="#000029" d="M968 732l-.5 28 38.4-4.7-68-79" />
    <path fill="#bdbec9" d="M805 43l-1.4-11 7.4 2 27 7" />
    <path fill="#b980d6" d="M290.8 198.6l24.6 4.5-81.4 38-1.2-41" />
    <path fill="#758e85" d="M94.4 52.6L87-31l9 78 152 5.4" />
    <path fill="#696969" d="M21.5 302.3l37 .5 89-4.5-18.4-20" />
    <path fill="#5f524d" d="M643.5 753.6l164-22-146 .4 85.6 25" />
    <path fill="#9fcc79" d="M933.6 72l-26-1.4-101.3 4.6L911 99.8" />
    <path fill="#000029" d="M976 302.8l31.5 24.8L849 349.4l101 15.2" />
    <path fill="#00152e" d="M327.8 30.2l13.4-4.8-91 5.8 63.3.3" />
    <path fill="#46a16d" d="M959.7 76.2l29.7-31 4.5 15.4-44 2" />
    <path fill="#8f94a9" d="M464.2 705.2h-37.6L424 701l5-4" />
    <path fill="#fdfaf8" d="M180.2 562.4l22 3.5-52.6 22 45.4-2" />
    <path fill="#00132c" d="M121 35l-10.4-52-16.8 50.7L140-31" />
    <path fill="#001a43" d="M805 188l16 3.6-198-1 155.2-5.5" />
    <path fill="#797736" d="M974 233.2l-11.6 34 16.2-1-12.4 19.3" />
    <path fill="#000f2a" d="M772.8-10l144.8-21L786 12.4l5 64.3" />
    <path fill="#f5f0eb" d="M238.2 414l8.2-10.2-73.2-5.4-37.2 12.8" />
    <path fill="#648e2d" d="M782.7 698l4.4-239.8V295.5l-6 149" />
    <path fill="#a9c7ac" d="M346 196l-66.8 60.2 55.4-52.3 71.2-2" />
    <path fill="#00002c" d="M958.7 738.3l-72.8-11 7-30.8 43-10.5" />
    <path fill="#a8d0e0" d="M1045.5 85.2H933l25 5.4 73.4-2.7" />
    <path fill="#60605d" d="M198.3 393.5l1.5 18-4.6 7.2-3.5-19.4" />
    <path fill="#007d00" d="M749.5 390.2l-107.3 2.3 177.2 5.4-30-8" />
    <path fill="#00002c" d="M985 522l70-109.2-133.2.5 65.5 36.6" />
    <path fill="#fcfffc" d="M240.4 217.4l41.3 5.3 36-5L218 224" />
    <path fill="#616c8d" d="M419.2 165.8l31.4 19.3-38 5 28.6-27" />
    <path fill="#fff" d="M232.8 568.6l79-.5-81-3L-4 569" />
    <path fill="#00172f" d="M90.4 56.6l-6-34L2.4-31H85" />
    <path fill="#bfbab8" d="M311.3 667.3l-6-51.8 8.4-153.7 3.7 194.8" />
    <path fill="#112f5e" d="M673 665.4l-218.3-9.7 278.8-.4 66 5.8" />
    <path fill="#046d9d" d="M850.5 66l-28.3 8.3 22-38 11.3 17" />
    <path fill="#008b00" d="M339 251.5l49 7.6-52.2 7 2.2-77" />
    <path fill="#5abf3c" d="M731.6 99.5L705.8 75l-44 18.4L733 77" />
    <path fill="#b674db" d="M495.8 98l43-19.2-58.4-2 1.2 19.4" />
    <path fill="#feffff" d="M239.2 222.4l-34.4-35L250 195 6.7 221" />
    <path fill="#f2f6f4" d="M320.7 204.8l-5.6 306 20 281 2-210" />
    <path fill="#717b26" d="M989.4 453.7l-6.3 21-24 24.3 31-43" />
    <path fill="#33455e" d="M298.2 498.2l-23.8-1.2 27-40-31.3-1" />
    <path fill="#1273a8" d="M1040.7 362.7l14.3-3.8-49.6 6-57-2" />
    <path fill="#698d31" d="M624.5 520.8L623 375.6l2-112.8 5 192.4" />
    <path fill="#89827f" d="M130.4 574l75.4-17.7-70 7.4 100.8 8.3" />
    <path fill="#838990" d="M1033 13l1.7 3 20.3 4.4L894.7 18" />
    <path fill="#858381" d="M183.5 453l18.3 8.3-13-2 71.5-6.2" />
    <path fill="#717273" d="M194 617.6l-.8-83 5.4 35.5.3 47" />
    <path fill="#fff" d="M281.6 420.3l9.3-.7 22 4-124-2.2" />
    <path fill="#00132b" d="M150.7 40L148 16.5 140.5 45l30.7-5" />
    <path fill="#eae4de" d="M250.6 508l-10.4 24.3-26.4-13.8 108.7-9.7" />
    <path fill="#746b4e" d="M622.5 355l22.6-6.7 43-.7 145 3.7" />
    <path fill="#35465c" d="M254 532.4l43-6.2-.8-12.7-49-1" />
    <path fill="#291f37" d="M679 53l9.5 65.3-257.5-9.6 246-1" />
    <path fill="#3d4a5a" d="M234 309.3l-35.7 3 106-2.2-8.3 15" />
    <path fill="#000f44" d="M808.3 646.2l17.3-16.2-8.6 8-237.3 3.3" />
    <path fill="#001541" d="M327.8 528.7l147.7 3-107-22 86.2.6" />
    <path fill="#001934" d="M633.5 460l51.6 2.5 132 .2v-5.2" />
    <path fill="#00233e" d="M422 300l-76-8.5 40-16.8h-54" />
    <path fill="#eef4f4" d="M330 355.4l-63.8 9 46 2.8 23-220.7" />
    <path fill="#fff" d="M299 691l-187.5 41-142.3-42.7 158.3-1" />
    <path fill="#747c95" d="M460 565.6l-33-16 30.8-3.3-23.8 25.2" />
    <path fill="#375170" d="M484.8 573l-31.8 3 68.6 4.7 83-4.6" />
    <path fill="#646567" d="M34 329.4l208.8-2.3 59-8-67.6 14" />
    <path fill="#001243" d="M715 731.8l102-8.6-289-.7 189 8.6" />
    <path fill="#747686" d="M982 383l-134.5 1.7 7.2 19-9.5-25" />
    <path fill="#566681" d="M424 538.6l32.8-23.8-58.4-1.7 68 24" />
    <path fill="#7c1aa0" d="M245.5 56.5l3.4-39.2-73 9 42 16" />
    <path fill="#001941" d="M413.4 564.3l47.8-3-5-48L654 508" />
    <path fill="#189426" d="M795.4 236.5l-76.6 1.2-188.2 3.4 210 8" />
    <path fill="#008100" d="M519.2 217.6L580 228l219-1 26.5-5" />
    <path fill="#c9cecf" d="M779 41l-14 3-26.3-5.5 50.5-3.2" />
    <path fill="#fff" d="M-11.3 255.3L-31 191.6l76.5-4L64 248" />
  </g>
</svg>