<svg version="1.1" viewBox="0 0 1024 768" width="1024" height="768" xmlns="http://www.w3.org/2000/svg">
  <g fill-opacity=".5">
    <path fill="#000d31" d="M652 161l-28-1 183-1 16 5" />
    <path fill="#9ba4b0" d="M454 320l-30-1-12-2 50-2" />
    <path fill="#838d9f" d="M398 680l-71 5 18 2 28 4" />
    <path fill="#00002b" d="M825 159l9 24 191 1-195 17" />
    <path fill="#fffdff" d="M328 255l-108-10 32-4 77 1" />
    <path fill="#72c066" d="M457 479l-39 26h31l-32-22" />
    <path fill="#6f706f" d="M88 598l50 21 8-15 95-4" />
    <path fill="#615f5f" d="M138 273l12-23-108 4 59 1" />
    <path fill="#98a2b4" d="M447 282l12 6-42-3 26-6" />
    <path fill="#fff" d="M312 688l23 76 1-28-196-46" />
    <path fill="#007c00" d="M497 229l-24 1-142-3 70-13" />
    <path fill="#7c8a9c" d="M538 665l4 5-114 3-5-5" />
    <path fill="#dedbe3" d="M860 41l42 1 2-4-46-2" />
    <path fill="#fffffd" d="M340 446l-242 5 176 2 25 1" />
    <path fill="#656362" d="M59 360l200 1 15-4-167 2" />
    <path fill="#fff6ec" d="M335 85v77l-4-96 5 19" />
    <path fill="#00243d" d="M684 363l133-1 3-80-9 69" />
    <path fill="#04002a" d="M893 326l79-23-21-71-66 72" />
    <path fill="#9ba8b6" d="M402 86l30 10h-78l-9-6" />
    <path fill="#00133f" d="M590 710l33-47-193 27-76 2" />
    <path fill="#6b6983" d="M872 612h142l-149 10 14-20" />
    <path fill="#969dab" d="M335 632l59 3-38 5-38-14" />
    <path fill="#424f60" d="M251 664l43 15 3-21-83-2" />
    <path fill="#63748f" d="M463 171l-129-52 142 2-57 49" />
    <path fill="#64a116" d="M781 266l4-102 5 88-10 121" />
    <path fill="#031d34" d="M740 73l-373-5 354-48 14 100" />
    <path fill="#776f3e" d="M945 286l19 61-13-64-36-26" />
    <path fill="#89819c" d="M843 157l5-11 105 7-46-9" />
    <path fill="#6d9c38" d="M616 301l13-3 90-2 16 7" />
    <path fill="#929ba1" d="M860 19l-36-5-67 8 87-1" />
    <path fill="#5e605f" d="M200 387l1-30-12 32h63" />
    <path fill="#f6f8f7" d="M-8 616l41 6h183L-9 632" />
    <path fill="#656a78" d="M1019 206l-31-8-180-1 247 11" />
    <path fill="#fff" d="M247 633l-53 13-40-1 4-15" />
    <path fill="#657c38" d="M761 690l2-102-4-68-4 135" />
    <path fill="#777877" d="M44 627l-23 24 128-1-2-22" />
    <path fill="#3b495a" d="M303 574l-71-4 44 22 26-6" />
    <path fill="#006700" d="M463 193l-73 11 83 10-147-27" />
    <path fill="#fff" d="M227 327h-86l13-15 95 10" />
    <path fill="#605f5e" d="M213 655l-127 5 103-1 9 5" />
    <path fill="#9da6b4" d="M378 554l-46 1 28-7 27 2" />
    <path fill="#8dc5da" d="M117 95l-49 1-19-9 77-1" />
    <path fill="#006405" d="M363 397l196-5-231-3 24 5" />
    <path fill="#9ca2af" d="M320 585l50-3 21 7-42-2" />
    <path fill="#fff" d="M46 310l-72-3 124-4 47 3" />
    <path fill="#083b79" d="M663 405l-8 155 14 34-3-109" />
    <path fill="#000029" d="M825 133l1 128 92-12-59 63" />
    <path fill="#424f5d" d="M247 416l5-16 47-7 3 25" />
    <path fill="#00123d" d="M554 706l-89 8-135 1 27-10" />
    <path fill="#00112c" d="M105 67l12 6 22-68-3 38" />
    <path fill="#84c780" d="M326 402l71 3-9-22 4 10" />
    <path fill="#00172e" d="M-31 42l220 6 3-73-14 62" />
    <path fill="#39bc34" d="M570 79l11 22 3-18 190-1" />
    <path fill="#003334" d="M816 533l-5 259 8-34v-73" />
    <path fill="#7e9a31" d="M625 511l2-80 3 128-3 145" />
    <path fill="#645a50" d="M925 754l63-54-23 36-56 17" />
    <path fill="#000031" d="M1024 516l-42 73 33 169 40 1" />
    <path fill="#595e67" d="M249 281l47 16-155 5 104 2" />
    <path fill="#4d4c4b" d="M165 426l14 2h121l-17-3" />
    <path fill="#737487" d="M857 409l45-6 104 5-7 5" />
    <path fill="#000f3f" d="M703 337l-360 5 306 5 224-4" />
    <path fill="#001647" d="M673 171l-189 4 246 6 145-10" />
    <path fill="#008300" d="M491 510h140l-27-37-176 16" />
    <path fill="#678d33" d="M724 758l-5-167 7-149 1 242" />
    <path fill="#bfcac7" d="M395 179l-191 18 122-12 72 2" />
    <path fill="#f3f2f0" d="M144 291l15-18-72 4 140 11" />
    <path fill="#6ea41d" d="M807 143l6 86-4 116-2-74" />
    <path fill="#7f6f29" d="M957 513l-11-29-46-9 30-3" />
    <path fill="#b7bfc7" d="M404 670l-44-4-51 5h8" />
    <path fill="#75a622" d="M640 356l1 115-5 53 1-140" />
    <path fill="#68799c" d="M496 385l47 5 27-11-110 2" />
    <path fill="#00002c" d="M820 233l119-26 116 12-103 18" />
    <path fill="#6c7e93" d="M408 371l63-13-23-13 23 26" />
    <path fill="#000a40" d="M790 379l18-6-155-3-19 7" />
    <path fill="#001e42" d="M648 645l169-25-150 6 134 20" />
    <path fill="#858d9f" d="M362 324l-31-11-21-1 74 2" />
    <path fill="#97d194" d="M385 269l-46 2-27 46 33-55" />
    <path fill="#f8f4f2" d="M246 615l-98 1 95-12-1-74" />
    <path fill="#63605e" d="M187 254h91l-96-3-100 3" />
    <path fill="#007c00" d="M718 228h89l-95-11-126 11" />
    <path fill="#7b8697" d="M395 730l-8 7-75 1 74-8" />
    <path fill="#79a82b" d="M627 297l-4-122 1-27 5 10" />
    <path fill="#11547f" d="M899 368l46-3 16-2-180-2" />
    <path fill="#fff" d="M49 251l248-4-322-10 67-48" />
    <path fill="#000d42" d="M810 304H708l-291 6 401 1" />
    <path fill="#145588" d="M1007 570l-165 6 40 54-44-61" />
    <path fill="#040f3e" d="M363 98l-28 19 217 2 82-19" />
    <path fill="#708e32" d="M641 637l-4 2-1-98 3-54" />
    <path fill="#737271" d="M6 449l177-4-98-19h101" />
    <path fill="#00002b" d="M943 443l-137-3 160-32-4 132" />
    <path fill="#e0dada" d="M825 398l-4 3-1-48 2-147" />
    <path fill="#a2c9da" d="M855 116l-19-4h98l14 9" />
    <path fill="#6d2332" d="M740 445l-3 347-5-174 6-255" />
    <path fill="green" d="M768 253l-236 8 256 3 26-8" />
    <path fill="#001642" d="M826 694l-41-4-229-2 140 10" />
    <path fill="#fcffff" d="M282 731l-243-2 289-12 8-116" />
    <path fill="#91c063" d="M356 147l-26 16 5 25-181-37" />
    <path fill="#5e4539" d="M1000 303l8 52h-42l52-22" />
    <path fill="#001642" d="M808 590l-150 24 161-1-172-24" />
    <path fill="#fcfffd" d="M25 397l220-3-241-6 21 324" />
    <path fill="#5c7339" d="M623 628l2 171 18-214-3 187" />
    <path fill="#001a43" d="M454 378l181-87-149-21 154 93" />
    <path fill="#6ab368" d="M394 230l-65 24h65l-56-24" />
    <path fill="#001443" d="M690 532l-123-9 225-1 34 5" />
    <path fill="#000e42" d="M747 298l81-10-171-1 32 7" />
    <path fill="#61773a" d="M813 718l-8 75V642l6-127" />
    <path fill="#001448" d="M458 411l2 32 158-4 4-29" />
    <path fill="#00113d" d="M439 392l-82-17 130-20H344" />
    <path fill="#435162" d="M302 270l-53 3-6-16 55-8" />
    <path fill="#011e47" d="M402 667l132-4-126-10 11 144" />
    <path fill="#fff" d="M156 445l80-8-161-17 67-1" />
    <path fill="#014" d="M836 678l-255-8 47 11 112-1" />
    <path fill="green" d="M817 209l-111-6 20-3-185 13" />
    <path fill="#308eb9" d="M35 799l-55-16 112-52-105-1" />
    <path fill="#002639" d="M446 444l-46-14 16 3-91 10" />
    <path fill="#7d6141" d="M925 343l55-47-52 39-33-3" />
    <path fill="#646464" d="M43 368l-16 4 100 2 76-6" />
    <path fill="#001044" d="M580 459l86 19-99-4-204 2" />
    <path fill="#626e8b" d="M578 119l-242 2-3 41 19-14" />
    <path fill="#258dbc" d="M332 799l-198-55-2-8 198-6" />
    <path fill="#000031" d="M829 132l-7 21 117-21-111 1" />
    <path fill="#012839" d="M908 69l-73 1 51-24 169 25" />
    <path fill="#677487" d="M345 369l51-23-53 1 40 25" />
    <path fill="#00002d" d="M908 617l-41 28 156 18 32-34" />
    <path fill="#646464" d="M118 593l-92-4 13-6 200 9" />
    <path fill="#000e41" d="M606 558l13-3 259 3-215 7" />
    <path fill="#7eaa26" d="M914 679l35 16-18-14-35 4" />
    <path fill="#95a33d" d="M668 187l-53-2 41-6 6 1" />
    <path fill="#6f7349" d="M822 599l-17 7-134-3-47-6" />
    <path fill="#7f5a3b" d="M776 371l-93-11-78 11 58-1" />
    <path fill="#00002f" d="M899 537l-60 32 123-1-46-102" />
    <path fill="#002143" d="M608 522l159 24-170 1 133-24" />
    <path fill="#00002c" d="M1047 30l-62 267 23 10 16 103" />
    <path fill="#fbf8f2" d="M257 467l-116 6 18-9 54-7" />
    <path fill="#76ac2b" d="M928 79l-6 12-113 1 111 10" />
    <path fill="#e0f5df" d="M309 219l-3 35 39-40 52 4" />
    <path fill="#fff" d="M292 535l37 2-37 4-71-5m-252 33l162-6 80 5h-74" />
    <path fill="#5d613f" d="M940 271l-31-9 112 52-52-16" />
    <path fill="#697f38" d="M779 691l8-7-1-146-2 73" />
    <path fill="#a2a7b2" d="M346 622h26l15-6-68-1" />
    <path fill="#6b4f17" d="M685 262v-87l16 119 2-89" />
    <path fill="#c2eea8" d="M642 92l43-2-30-6-23 3" />
    <path fill="#002041" d="M556 624l114-15-60-22 79 4" />
    <path fill="#8489a1" d="M423 584l48-1 1-1-27 11" />
    <path fill="#5ba6c4" d="M280 763l112 5-403 31 186-39" />
    <path fill="#fefcfa" d="M241 675l11-13-78 2-30 11" />
    <path fill="#001542" d="M626 756l-51 5 177 5 105-10" />
    <path fill="#00133d" d="M331 588l23 11 117-14-22 13" />
    <path fill="#595b5e" d="M172 484l137 5-39-8-48 2" />
    <path fill="#73a526" d="M763 252l-4 191-2-229 4-57" />
    <path fill="#fff" d="M149 336l6 8 102-1-109 14" />
    <path fill="#001a44" d="M436 708l268 8 109-8-133-3" />
    <path fill="#013d49" d="M493 412l-97 3-62-1-3-9" />
    <path fill="#00002e" d="M824 379l5 214 19-187-2-250" />
    <path fill="#00182d" d="M73-31l151 51-178-7 17 30" />
    <path fill="#001846" d="M329 422l169-1-17 9-149-1" />
    <path fill="#6f7082" d="M978 587l-100 4 96 6h13" />
    <path fill="#1c8e1c" d="M336 236l65 1 161 4-205 8" />
    <path fill="#ded3cf" d="M155 544l84 3 14 11-86-1" />
    <path fill="#000035" d="M1004 147l-149 13h120l-63-30" />
    <path fill="#4e4a47" d="M971 516l-62 33h27l60-75" />
    <path fill="#d6ccd1" d="M823 483l-3-1 4 158-1-123" />
    <path fill="#108e10" d="M719 486l-179 9 266 3v-8" />
    <path fill="#001c29" d="M342 532l-5-80v245" />
    <path fill="#6b9c23" d="M648 423l2-17 5 64-6 104" />
    <path fill="#6b585d" d="M674 471l144-4-96-6-88 8" />
    <path fill="#807985" d="M955 551l42 6 7-9-20 13" />
    <path fill="#748697" d="M492 657l45-7-49-3 9 14" />
    <path fill="#001842" d="M490 630l-166 1 158-26-157 2" />
    <path fill="#091a4b" d="M583 419l189 4-107 19h73" />
    <path fill="#dbd0cc" d="M248 503l-8-18-95 18 35-18" />
    <path fill="#6e6d87" d="M920 206h-69l-11-8h61" />
    <path fill="#92832c" d="M965 668l1 43 5-46-1-2" />
    <path fill="#001644" d="M698 727l-234 6-140-10h119" />
    <path fill="#54a3c5" d="M335 101l-59 14-307-7 212-11" />
    <path fill="#4c4a49" d="M310 686l-106-1H34l190 2" />
    <path fill="#1ea7ed" d="M780 99l-53-3 22-5 68 4" />
    <path fill="green" d="M573 214l-69-6-170-7 12 11" />
    <path fill="#001f44" d="M363 191l278 1 28 3-149-32" />
    <path fill="#fffffd" d="M245 572l-41 7 33 11 10-5" />
    <path fill="#007f00" d="M583 392H437l77 14 137 2" />
    <path fill="#b4b7c4" d="M382 567l-3 3h-30l-66-10" />
    <path fill="#08254b" d="M297 339l-33 2-10 13 34 1" />
    <path fill="#727476" d="M204 657l-7 25 98-12-110 11" />
    <path fill="#fff" d="M168 271l-18-8 85-9 5 11" />
    <path fill="#807e3c" d="M884 314l23 24-40-28-21 21" />
    <path fill="#fff" d="M168 393l132-2 12 6-58-1" />
    <path fill="#798048" d="M858 743l-5-5 9-15 25-1" />
    <path fill="#001344" d="M683 353l87 7-116 4-102-7" />
    <path fill="#fff" d="M313 200l-11 75 27-88-106 6" />
    <path fill="#adc2b9" d="M931 41l49 4-2-18 1 5" />
    <path fill="#7b5d4e" d="M835 386l-148-8-89 9 105-1" />
    <path fill="#847538" d="M603 336l110 1 49-2-96-5" />
    <path fill="#919da4" d="M388 163l14 7-108 1 29-1" />
    <path fill="#618039" d="M667 675l-3-87-5 74-37 8" />
    <path fill="#000d3d" d="M482 561l-129 3 97-24-111 3" />
    <path fill="#fffffb" d="M332 338l-144-2 86-4 59 9" />
    <path fill="#6c6763" d="M218 310l29-1-49 4-36-4" />
    <path fill="#69798d" d="M365 702l35 20-32-1 28-27" />
    <path fill="#000029" d="M968 732v28l38-5-68-79" />
    <path fill="#bdbec9" d="M805 43l-1-11 7 2 27 7" />
    <path fill="#b980d6" d="M291 199l24 4-81 38-1-41" />
    <path fill="#758e85" d="M94 53l-7-84 9 78 152 5" />
    <path fill="#696969" d="M22 302l37 1 89-5-19-20" />
    <path fill="#5f524d" d="M644 754l164-22H662l85 25" />
    <path fill="#9fcc79" d="M934 72l-26-1-102 4 105 25" />
    <path fill="#000029" d="M976 303l32 25-159 21 101 16" />
    <path fill="#00152e" d="M328 30l13-5-91 6h63" />
    <path fill="#46a16d" d="M960 76l29-31 5 16-44 2" />
    <path fill="#8f94a9" d="M464 705h-37l-3-4 5-4" />
    <path fill="#fdfaf8" d="M180 562l22 4-52 22 45-2" />
    <path fill="#00132c" d="M121 35l-10-52-17 51 46-65" />
    <path fill="#001a43" d="M805 188l16 4-198-1 155-6" />
    <path fill="#797736" d="M974 233l-12 34 17-1-13 19" />
    <path fill="#000f2a" d="M773-10l145-21-132 43 5 65" />
    <path fill="#f5f0eb" d="M238 414l8-10-73-6-37 13" />
    <path fill="#648e2d" d="M783 698l4-240V296l-6 149" />
    <path fill="#a9c7ac" d="M346 196l-67 60 56-52 71-2" />
    <path fill="#00002c" d="M959 738l-73-11 7-31 43-10" />
    <path fill="#a8d0e0" d="M1046 85H933l25 6 73-3" />
    <path fill="#60605d" d="M198 394l2 18-5 7-3-20" />
    <path fill="#007d00" d="M750 390l-108 2 177 6-30-8" />
    <path fill="#00002c" d="M985 522l70-109H922l65 37" />
    <path fill="#fcfffc" d="M240 217l42 6 36-5-100 6" />
    <path fill="#616c8d" d="M419 166l32 19-38 5 28-27" />
    <path fill="#fff" d="M233 569l79-1-81-3-235 4" />
    <path fill="#00172f" d="M90 57l-6-34L2-31h83" />
    <path fill="#bfbab8" d="M311 667l-6-52 9-153 3 195" />
    <path fill="#112f5e" d="M673 665l-218-9 279-1 66 6" />
    <path fill="#046d9d" d="M851 66l-29 8 22-38 12 17" />
    <path fill="#008b00" d="M339 252l49 7-52 7 2-77" />
    <path fill="#5abf3c" d="M732 100l-26-25-44 18 71-16" />
    <path fill="#b674db" d="M496 98l43-19-59-2 2 19" />
    <path fill="#feffff" d="M239 222l-34-35 45 8L7 221" />
    <path fill="#f2f6f4" d="M321 205l-6 306 20 281 2-210" />
    <path fill="#717b26" d="M989 454l-6 21-24 24 31-43" />
    <path fill="#33455e" d="M298 498l-24-1 27-40-31-1" />
    <path fill="#1273a8" d="M1041 363l14-4-50 6-57-2" />
    <path fill="#698d31" d="M625 521l-2-145 2-113 5 192" />
    <path fill="#89827f" d="M130 574l76-18-70 8 101 8" />
    <path fill="#838990" d="M1033 13l2 3 20 4-160-2" />
    <path fill="#858381" d="M184 453l18 8-13-2 71-6" />
    <path fill="#717273" d="M194 618l-1-83 6 35v47" />
    <path fill="#fff" d="M282 420h9l22 4-124-3" />
    <path fill="#00132b" d="M151 40l-3-23-7 28 30-5" />
    <path fill="#eae4de" d="M251 508l-11 24-26-14 108-9" />
    <path fill="#746b4e" d="M623 355l22-7h43l145 3" />
    <path fill="#35465c" d="M254 532l43-6-1-13-49-1" />
    <path fill="#291f37" d="M679 53l10 65-258-9 246-1" />
    <path fill="#3d4a5a" d="M234 309l-36 3 106-2-8 15" />
    <path fill="#000f44" d="M808 646l18-16-9 8-237 3" />
    <path fill="#001541" d="M328 529l148 3-107-22h86" />
    <path fill="#001934" d="M634 460l51 3h132v-6" />
    <path fill="#00233e" d="M422 300l-76-8 40-17h-54" />
    <path fill="#eef4f4" d="M330 355l-64 9 46 3 23-220" />
    <path fill="#fff" d="M299 691l-187 41-143-43 159-1" />
    <path fill="#747c95" d="M460 566l-33-16 31-4-24 26" />
    <path fill="#375170" d="M485 573l-32 3 69 5 83-5" />
    <path fill="#646567" d="M34 329l209-2 59-8-68 14" />
    <path fill="#001243" d="M715 732l102-9-289-1 189 9" />
    <path fill="#747686" d="M982 383l-134 2 7 19-10-25" />
    <path fill="#566681" d="M424 539l33-24-59-2 68 24" />
    <path fill="#7c1aa0" d="M246 57l3-40-73 9 42 16" />
    <path fill="#001941" d="M413 564l48-3-5-48 198-5" />
    <path fill="#189426" d="M795 237l-76 1-188 3 210 8" />
    <path fill="#008100" d="M519 218l61 10 219-1 27-5" />
    <path fill="#c9cecf" d="M779 41l-14 3-26-5 50-4" />
    <path fill="#fff" d="M-11 255l-20-63 77-4 18 60" />
  </g>
</svg>