<svg version="1.1" viewBox="0 0 1024 768" width="1024" height="768" xmlns="http://www.w3.org/2000/svg">
  <path fill="#dededd" d="M0 0h1024v768H0z" />
  <g fill-opacity=".5">
    <path fill="#101212" d="M385 5l2 543-92 10-5-536" />
    <path d="M616 13l-1 559-49-41-1-498" />
    <path fill="#626364" d="M448 757l-105-9-10-71 120 3" />
    <path fill="#fff" d="M616-31L845 6l13 779-243-111" />
    <path fill="#151717" d="M624 707l23 44 35-4-2-72" />
    <path fill="#fff" d="M896 336l132 463-1-830-113 278" />
    <path fill="#b4b4b5" d="M257 125l179 129 101-115-154-18" />
    <path fill="#e6e6e7" d="M324 388l236 73-248 10 16-36" />
    <path fill="#181b1b" d="M302 350l8-120h69v92" />
    <path fill="#fff" d="M-31 507l17 274 331 18-19-337" />
    <path fill="#fff" d="M921 632l-342-59-610 2 229 121" />
    <path fill="#2c3030" d="M569 451l-66 14 115 40-10-217" />
    <path fill="#2b2f2e" d="M614 292l-69-172L615 6l-1 98" />
    <path fill="#fff" d="M260 319l78-25-170-107 20 275" />
    <path fill="#523f33" d="M746 555l19-7h107l47 9" />
    <path fill="#9c7900" d="M837 101l51-73 50 41-78-34" />
    <path fill="#fff" d="M11-31l-42 766 78 64 3-419" />
    <path fill="#c7b983" d="M784 526l80-165-1-97 56 151" />
    <path fill="#313333" d="M294 15l90-1-11 106-58-7" />
    <path fill="#fff" d="M849 472l69 327 107-13 30-278" />
    <path fill="#b5a74c" d="M915 43l-83 200 37-152 71 97" />
    <path fill="#f7f7f8" d="M466-22l-77 238 126-101 89-3" />
    <path fill="#5b5d5d" d="M356 185l86 51 51-84-106 92" />
    <path fill="#828283" d="M166 99l19 86-49 5v-83" />
    <path fill="#2c2121" d="M544 358l-9-21 100-4-56 26" />
    <path fill="#fff" d="M523 572l310-79-256 227-309-113" />
    <path fill="#777778" d="M222 450l-78 44 4-176v134" />
    <path fill="#ada02f" d="M840 462l79-1 48 27-10 2" />
    <path fill="#fefeff" d="M75-31L-31 9l332 97 1-131" />
    <path fill="#b8b8b9" d="M435 589l-100-38-263 6 146 30" />
    <path fill="#3f4152" d="M558 88l68-12 83-6-176-3" />
    <path fill="#fff" d="M444 279l89 184 7-195-4-130m311 281L713-31 613 500l257-40" />
    <path fill="#fff" d="M1021-31L525 7l376 22 153 215" />
    <path fill="#fdfefd" d="M309 127l112 65-85-21 51-54" />
    <path fill="#b0b0b1" d="M79 475L58-31 46 533l89 57" />
    <path fill="#8f946f" d="M878 234l-13 245-2-278 78-8" />
    <path fill="#bebebd" d="M571 51l-1 290 32-53-25-34" />
    <path fill="#fff" d="M526 799l14-326-105-17 209 328" />
    <path fill="#5e5f60" d="M438 376l74-46-152 49-130-45" />
    <path fill="#262828" d="M324 197l-2 184v150l-22-413" />
    <path fill="#fff" d="M858 567l-9 231-195 1 125-239" />
    <path fill="#777878" d="M506 731l3-83-11 54-169-27" />
    <path fill="#5f5f60" d="M866 745l-73 9 133 1 21-7" />
    <path fill="#38393a" d="M306 549l70 2 3-86-69 31" />
    <path fill="#898a8a" d="M563 335l-8 41 55 195-67 5" />
    <path fill="#f6f6f7" d="M569 732l-213-1 74-35 24 103" />
    <path fill="#2e3130" d="M601 414V201l-65-19 79-97" />
    <path fill="#fff" d="M1055 390l-157 87 95-364 17-144M368 15L679 2-31-2l163 12m245 739l-408 28 1086-10-531-17m94-673l71 572 235-501-67 45" />
    <path fill="#fff" d="M49-31l-80 87 77 743 3-570" />
    <path fill="#ce1229" d="M832 408l20-19 14 26-17 5" />
    <path fill="#956604" d="M880 138l-29-89-8 8 1 21" />
    <path fill="#63c8ea" d="M826 85l-61 12 102 26-55 28" />
    <path fill="#9578ae" d="M930 122l35 11-27-43 78 6" />
    <path fill="#6d6d6d" d="M258 199l-3 87-5-269 7 7" />
    <path fill="#f9f9fa" d="M403 234l25 131-98-16 60-14" />
    <path fill="#b5b5b5" d="M340 86l-16 6-2-37 85 11" />
    <path fill="#fff" d="M245-31l-9 373-159-21 124-147" />
    <path fill="#7c7c7d" d="M281 462l5-146 48 114 61 17" />
    <path fill="#a49d58" d="M885 414l7-174 12 142 21 42" />
    <path fill="#92963b" d="M867 469l41-11-103 17-30 30" />
    <path fill="#59268d" d="M835 553l107-1 59 3-113 2" />
    <path fill="#9b9b9b" d="M660 749l9-64-41-10-18 77" />
    <path fill="#b4b3b4" d="M111 747l-2-70-56 54-70 14" />
    <path fill="#a09416" d="M939 146l-33 78 38-54-62-27" />
    <path fill="#fff" d="M894 402l-46 147 74-10-73-149" />
    <path fill="#b49d1e" d="M845 181l6-33 29 67-43-38" />
    <path fill="#5e5f60" d="M156 363l19-27-50 2 29 18" />
    <path fill="#828383" d="M564 12l42 3-8 47-36-9" />
    <path fill="#0d1211" d="M597 543l8-318v186l10 134" />
    <path fill="#3a3b3b" d="M435 692v-11l-73 2-11 22" />
    <path fill="#9a8a00" d="M927 95l-38-76 39 40-32 47" />
    <path fill="#d44656" d="M619 128l9-10 6 41-11 12" />
    <path fill="#979798" d="M957 624l-15-36-12 56 81-17" />
    <path fill="#fff" d="M1055 150l-163-26 44 26 80 529" />
    <path fill="#ebebec" d="M381 399l-69 15 117 38-15-106" />
    <path fill="#0a0d0c" d="M665 677l-1 56 15-1v-47" />
    <path fill="#787878" d="M727 590h4l-8 99-2-93" />
    <path fill="#00b552" d="M862 703l-2-132-1 16-3 36" />
    <path fill="#aaaaab" d="M52 227l2-86-21 210-5-121" />
    <path fill="#a3a3a4" d="M347 331l134 106 23-11-75-51" />
    <path fill="#fff" d="M901 120L984 1l71-15-152 153" />
    <path fill="#bbb" d="M178 571l399-25 39 8-44 19" />
    <path fill="#767871" d="M887 203l14-6v144l-12-116" />
    <path fill="#f4db42" d="M992 558l-9-16-137 7 131 3" />
    <path fill="#fff" d="M910 73l-22 61-29-74 28-23" />
    <path fill="#fefeff" d="M217 466l91-78-61-11-80-133" />
    <path fill="#c7c8c8" d="M299 176l6 148-63-16 9 231" />
    <path fill="#737474" d="M388 157l-115 2 42 83-42-122" />
    <path fill="#b16574" d="M631 408l-28 1 41 57-34 5" />
    <path fill="#fff" d="M879 556l9-167 2-194-17 87" />
    <path fill="#959595" d="M239 676l-57 2 189 4-266 2" />
    <path fill="#8c873e" d="M900 427l25-41-42 50 13 44" />
    <path fill="#fff" d="M213-31l40 144-144-1 67-38" />
    <path fill="#fff" d="M133-31L96 429l39 32-1-85" />
    <path fill="#89898a" d="M313 657l-6 7-3 89-14-31" />
    <path fill="#8a8a8a" d="M254 585l-2-90 4-129 2 146" />
    <path fill="#fefeff" d="M380 487l203 14-157 53 179 5" />
    <path fill="#fff" d="M861 396l-16-237 27-24-259-35" />
    <path fill="silver" d="M49 266L48 27l65-17-16 104" />
    <path fill="#fff" d="M77 574l183-2L1 757l-32-349" />
    <path fill="#fffffd" d="M897 350l55 52-95-4 48 29" />
    <path fill="#7c7c7d" d="M169 406l-41 4 37 30 3 60" />
    <path fill="#999392" d="M839 159l-31-56 5 34v16" />
    <path fill="#6c6d6d" d="M369 729l110 21-129-1 6-68" />
    <path fill="#757575" d="M490 187l-20-5-8-27 52 3" />
    <path fill="#fff" d="M551 336l-101-8 32-153 73 62" />
    <path fill="#3c3e3e" d="M300 118l2-38 60-8 21 49" />
    <path fill="#6f729d" d="M626 506l-18 7 75 1 24-6" />
    <path fill="#c7c8c8" d="M330 122l-6-134v418l5-231" />
    <path fill="#8d8d8d" d="M601 394l-1-47-59 62-7 38" />
    <path fill="#717376" d="M875 301V190l-8 19-5 51" />
    <path fill="#fff" d="M819 89l33 38-28-158-207 86" />
    <path fill="#8e8e8f" d="M348 748l-73 2H89l271-5" />
    <path fill="#fff" d="M1055 626L899 305l10-86 115-12M854 745l8-18 108-100 85 117M368 231l-32-9 44-2v8" />
    <path fill="#66696c" d="M866 558l-1 84 3 31 2-119" />
    <path fill="#5a5b5a" d="M393 437v29l-14-12-80-4" />
    <path fill="#a2a580" d="M963 490l-31 22 5-40 42 5" />
    <path fill="#fff" d="M533 82L523-31l-64 155 140-34" />
    <path fill="#aeafb7" d="M791 439l-24 42 3 10 32 31" />
    <path fill="#212323" d="M275 355l17-20 23 62-1-43" />
    <path fill="#2a2b2b" d="M590 398l-26 102 2-114 11 130" />
    <path fill="#707670" d="M902 153l-11-4 1-46 12-8" />
    <path fill="#ebebeb" d="M387 455l-76-6-14 49v-27" />
    <path fill="#454646" d="M380 189l-1 28-136 2 8 2" />
    <path fill="#8e67ae" d="M996 112l-43-13 15-8 23-4" />
    <path fill="#e0e0e0" d="M513 188l-176-32-94 21 74-2" />
    <path fill="#575858" d="M136 159l-4 29 44-9-35-4" />
    <path fill="#fff" d="M786 544l56-73 184 77-93-2" />
    <path fill="#a46908" d="M851 90l-9-34 58-25-32 1" />
    <path fill="#252727" d="M338 232l23 55 32-15-117-44" />
    <path d="M608 28l-3 198-6-205 2-11" />
    <path fill="#590000" d="M874 390l-34 23 16 2 11-30" />
    <path fill="#fff" d="M877 790l-197-3 5-185 82 125" />
    <path fill="#6d6d6d" d="M411 180l30 11-14 39 49-1" />
    <path fill="#d73c3f" d="M633 359l-31-17 12 9 10-20" />
    <path fill="#a4a4a5" d="M120 710l3-40-2-15 24-2" />
    <path fill="#44009b" d="M920 128v-8l20-1-9 14" />
    <path fill="#000302" d="M310 37l7-1 5 108 1-136" />
    <path fill="#b6b6b7" d="M115 141l39-40 67 29-15 44" />
    <path fill="#fff" d="M-31 586l449 7-81 113-12-58M213 466l-50 82 85 1-20-570" />
    <path fill="#cbab00" d="M913 422l-14-5-12-52 35 46" />
    <path fill="#eff0ef" d="M310 121l-5 16 38 9 44-22" />
    <path fill="#c8c7c8" d="M526 31l42 155-6-64-10 76" />
    <path fill="#727374" d="M449 372l20-2-36-28-9 11" />
    <path fill="#181a1a" d="M366 520l12 35 2-88-9 7" />
    <path fill="#aaacb1" d="M806 363l23-18 92 20 29-20" />
    <path fill="#abacab" d="M333 538l-11-89 2 106 15-79" />
    <path fill="#fff" d="M967-25l-424-6 211 136 63-42" />
    <path fill="#907f00" d="M925 82l-18-54 8 84 4-22" />
    <path fill="#bababb" d="M302 399l-3 103-13 121 14-306" />
    <path fill="#a4a4a4" d="M590 189l-20-1v-37l20 105" />
    <path fill="#fdfdfe" d="M556 355l-86-14 9 69 76-3" />
    <path fill="#fff" d="M867 196l97-17-9 23-78-63" />
    <path fill="#c7c7c8" d="M142 546l-84 23 127 6-36-127" />
    <path fill="#fff" d="M951 490l-5-81-41-191 150 179" />
    <path fill="#b9b9b9" d="M451 17l-15-5-3 212 17-82" />
    <path fill="#fff" d="M862 462l-263-19 289-28-28-24" />
    <path fill="#747672" d="M726 543l38 14 129-5-101-4" />
    <path fill="#4c4d4d" d="M286 382l-28-9 131-9 4-14" />
    <path fill="#414644" d="M615 511l-75 5 62 24 8-190" />
    <path fill="#aeaeaf" d="M763 618l-22 10 33 15-3 50" />
    <path fill="#fff" d="M610 14l-178-2-110 1-63-44" />
    <path fill="#fff" d="M422 182l-3-63-2-150-28 94" />
    <path fill="#a3a104" d="M894 209l24 6 18-24-1-2" />
    <path d="M591 438l3 61 1-58-3-116" />
    <path fill="#fff" d="M48 110l-1 130-78-134L48-31" />
    <path fill="#fbfbfb" d="M269 167l-14 181 47-29-9-36" />
    <path fill="#161817" d="M576 135V13l6 132-4 115" />
    <path fill="#fff" d="M869 640l5-82h72l-34 150m-6-597l149-59-145-22 41 96m-126-1l43-32-4 66-55-190" />
    <path fill="#acacac" d="M588 650l31 8-15 19 9 20" />
    <path fill="#f9f9f9" d="M452 309l6-136-6-146-2 181" />
    <path fill="#0e1111" d="M379 78l-21 4 21 47v4" />
    <path fill="#00a646" d="M857 554l10-13-5-1-4 87" />
    <path fill="#cfd0d0" d="M347 560V375l-5 172 58 127" />
    <path fill="#fcfcfd" d="M525 419l35 42-89-1-42 189" />
    <path fill="#8d8e8e" d="M463 453l21-1 4 9-45 3" />
    <path fill="#fff" d="M380 748l1-42-7-64 4 100m473-576l-45 278-190-115 26-257" />
    <path fill="#777778" d="M522 680l164 7-25-7-69-1" />
    <path fill="#b1b1b2" d="M981 595l-5 5 1 6-106-4" />
    <path fill="#676e4c" d="M874 421l-5 55-7-56 3 2" />
    <path fill="#505151" d="M686 747l-83 2 21 1-113-2" />
    <path fill="#fff" d="M838 421l-230-83 254 62-1-167M81 660l-91-382-9 421 93 43m630 7l342 15-1077 8 415-19" />
    <path fill="#060808" d="M367 82l14-64-16 3 8 93" />
    <path fill="#565757" d="M285 159l99-18 12-19-5 32" />
    <path fill="#9b9b9b" d="M270 590l-31-9h41l181 1" />
    <path fill="#777778" d="M414 737v-70l17-3-25-12" />
    <path fill="#88b9a1" d="M894 658l-4 56-12-5-1-29" />
    <path fill="#858585" d="M222 655l-10-2 12 25 8-24" />
    <path fill="#a4a5a5" d="M342 303l-73-17 81 13-5-163" />
    <path fill="#fff" d="M450 706l132-136-212 26 71 84" />
    <path fill="#7f7f7f" d="M819 739l-5 9-3 7 36-4" />
    <path fill="#232524" d="M390 248l-15 34-75-26 1 30" />
    <path fill="#845500" d="M926 473l-2-10-6-3-7 23" />
    <path fill="#00a9dd" d="M873 125l-40 5-3-4 14-6" />
    <path fill="#79797a" d="M914 24l24 3 2-10-7-6" />
    <path fill="#fff" d="M621 518l1 162h73l57-172" />
    <path fill="#a8a9a9" d="M590 150l-17 174-36-191 55 207" />
    <path fill="#b0b4b2" d="M971 709l-87-4-47 7h151" />
    <path fill="#9a9a9b" d="M253 198l6 127-8 47v-42" />
    <path fill="#f9f9f9" d="M306 547l18 3-95 6 125 1" />
    <path fill="#828283" d="M218 455l-7 16-12-1-75-12" />
    <path fill="#8d8e8e" d="M945 200l25 17-4-23 1 3" />
    <path fill="#fff" d="M897 415l43 20-128 112 115-5m-508 24l-1-7-26-25 23-135" />
    <path fill="#747aa0" d="M598 300l7 5 45 7-25 8" />
    <path fill="#aeaeae" d="M446 140h67l5 59 3-78" />
    <path fill="#878887" d="M599 528l2-54-64 17 53 15" />
    <path fill="#828383" d="M244 120v91l9-112 6 27" />
    <path fill="#515353" d="M305 492l33-11-70-26 29-3" />
    <path fill="#949495" d="M175 75l-29 9-5-32 7 10" />
    <path fill="#666" d="M565 106l-20 20-3 10-4-20" />
    <path fill="#aeaeae" d="M321 329l23-2 18 25-37 3" />
    <path fill="#acabac" d="M51 465l-2 83 17 4 2-65" />
    <path fill="#ec1115" d="M625 222l10 5-15 1-5-7" />
    <path fill="#fbfcfc" d="M122 143l114 12-135 2 44 175" />
    <path d="M681 718l-5-34-1 59 3 10" />
    <path fill="#f1f1f1" d="M406 266l19 4-51-30 81-14" />
    <path fill="#908f90" d="M327 655l4 1-24-2 4 25" />
    <path fill="#5dd4fb" d="M828 107h-50l-14-9 13-9" />
    <path fill="#8f860a" d="M933 196l-15-52 24 30-18 25" />
    <path fill="#828383" d="M373 687l112-4 48-2-63-3" />
    <path fill="#ff4140" d="M631 426l-3-15-3-8-9 23" />
    <path fill="#a0a1a1" d="M757 713l-15-16 27 10 99 3" />
    <path fill="#0e1614" d="M609 387l-8-55 14 106-3-208" />
    <path fill="#929292" d="M729 584l-9 6 5 56 5 16" />
    <path fill="#cccdcc" d="M365 451V303l-4 207 4 56" />
    <path fill="#fefefe" d="M555 189l-34 174-58-195-98 13" />
    <path fill="#b5b5b5" d="M408 366l-37-49 29-21-25 120" />
    <path fill="#c3c3c3" d="M355 505l2-122 17 28-31-50" />
    <path fill="#a4a3a3" d="M574 55l17 7-5-51-46 72" />
    <path fill="#040606" d="M324 265l-3-96-12 91 2-90" />
    <path fill="#434657" d="M598 388l51 4-88 18 30 12" />
    <path fill="#a5a51e" d="M789 489l-7 1 58-5-11-20" />
    <path fill="#fff" d="M1055 226L898 360l7-144-70-9" />
    <path fill="#898989" d="M333 739l1-20-3-20 43-2" />
    <path fill="#cfd0cf" d="M344 93V36l5 25-4 84" />
    <path fill="#7f7f7f" d="M150 96l-7 7 28 12-13 34" />
    <path fill="#fff" d="M805 430l62 83-45-77 132 5" />
    <path fill="#77824b" d="M855 172l27-51-35-34 33 19" />
    <path fill="#272828" d="M309 408l3 112 3-79v-13" />
    <path fill="#343535" d="M379 355l-62 2 41 3 21 44" />
    <path fill="#b50107" d="M839 399v21l18-4-1-16" />
    <path fill="#dedede" d="M122 525l-44 42-5-31-3-206" />
    <path fill="#b7b6b6" d="M28 362l42-98v136L31 279" />
    <path fill="#171919" d="M317 357l1-166 4-65 1 156" />
    <path fill="#181a16" d="M586 79l-32-18 44-2-6 30" />
    <path fill="#afb0b0" d="M370 137l31-94-23-30 5 144" />
    <path fill="#ad1313" d="M622 141l10-18-57 1h44" />
    <path fill="#3c3f3f" d="M589 340l-8-10-1-137-6 196" />
    <path fill="#fffefd" d="M615 425v91l4-65 189 32" />
    <path fill="#feffff" d="M794 464l15 50-4-43 127-46" />
    <path fill="#fff" d="M688 337l172 11 6-150 82-80" />
    <path fill="#cbcbcb" d="M443 335l9 234 142-21-170 1" />
    <path fill="#a6a6a6" d="M587 440l-27-6-121-47-26 16" />
    <path fill="#fff" d="M139 78l-13-21-57 9 8 9m141 349l36-111-29-170-60 254" />
    <path fill="#b5b7b6" d="M573 331l-9 99-14-82 27 70" />
    <path fill="#fdfdfd" d="M602 85l-135 5-8 24 111-19" />
  </g>
</svg>