<svg version="1.1" viewBox="0 0 1024 768" width="1024" height="768" xmlns="http://www.w3.org/2000/svg">
  <g fill-opacity=".5">
    <path fill="#cbcccc" d="M355 110l-2 138 5-58-1 12" />
    <path fill="#15baf7" d="M837 125h-11l33-2-14 14" />
    <path fill="#ededed" d="M396 700l2 99 3-90-4-107" />
    <path fill="#fff16c" d="M899 617l14-6 14 8-13-2" />
    <path fill="#fff" d="M326 571l-23 6 59 3 76-3" />
    <path fill="#fefefe" d="M182 83l33 10-51 45 30 1" />
    <path fill="#abadac" d="M348 58l-14 22V-31l3 92" />
    <path fill="#868686" d="M252 550H95l153 1 90-1" />
    <path fill="#b0afaf" d="M310 265l-4 49 10-25-28 23" />
    <path fill="#a9a9a9" d="M243 410l5-13v70l-3-1" />
    <path fill="#a5a6a5" d="M309 67l-1-98-3 88 3 84" />
    <path fill="#e9dc4c" d="M808 547l1-2 19 6-64-4" />
    <path fill="#989898" d="M720 662l-3-30 11-5-1 21" />
    <path fill="#434242" d="M657 730v-55l-3 58 6-4" />
    <path fill="#fbfbfb" d="M380 175l105 3-63 7-54-1" />
    <path fill="#161918" d="M314 125l-4-19 3-96-2 174" />
    <path fill="#2b2c2c" d="M370 218v-52l-4 42h-1" />
    <path fill="#1c1f1e" d="M447 201l3 7-14-7 2 13" />
    <path fill="#fcfdfd" d="M155 92l-44 15 20-50-60 3" />
    <path fill="#fff" d="M544 663l70 10 136-38-76 41" />
    <path fill="#8958b0" d="M983 552l-56 1-42 3h110" />
    <path fill="#9a999a" d="M907 722l-13-6-5-16 14 37" />
    <path fill="#cccccd" d="M170 94l-2-91-19 81-6-46" />
    <path fill="#111514" d="M612 472l1 61-13-63 2 98" />
    <path fill="#e0dfdf" d="M644 799l9-125-1 112-5-48" />
    <path fill="#0c1210" d="M610 200l-1 6 4 60 2-63" />
    <path fill="#f3f3f4" d="M450 338l3 52 14-179-15 53" />
    <path fill="#9ba7a3" d="M857 672l46 1-26-6-8-3" />
    <path fill="#b0b0af" d="M935 10l-21 31 9-33 21 29" />
    <path fill="#677ba5" d="M650 467l-62 2 32-5 26-4" />
    <path fill="#938887" d="M613 430l-4-66-3 70 63-29" />
    <path fill="#fcffe9" d="M873 384l-64-27 59 22h74" />
    <path fill="#e9eaea" d="M554 356l1-45-1-203-9 174" />
    <path fill="#636363" d="M345 678l-3 60-1-2 7-2" />
    <path fill="#292b2b" d="M321 518l4 33-19-2 9-3" />
    <path fill="#b3aa1e" d="M857 193l10-11-24-25 24-4" />
    <path fill="#909693" d="M955 710l-96-2 5 2 87 1" />
    <path fill="#1a1d1c" d="M422 697l-1-15-10-3 23 8" />
    <path fill="#fff" d="M77 556l-4 174-79 7 81-203" />
    <path fill="#f7f7f7" d="M469 322l21-189v102l-41 3" />
    <path fill="#fff" d="M897 169l-57 5 45-15-42 58" />
    <path fill="#bbb" d="M50 105l-1 222 23 147V236" />
    <path fill="#fff" d="M923 308l-45 2 28-7-5-117" />
    <path fill="#ececec" d="M566 508l-179-67 172 74 3-85" />
    <path fill="#979797" d="M271 582l-29 11-2-14 54 9" />
    <path fill="#050705" d="M587 58l-9 1-3 15 11 14" />
    <path fill="#1e2229" d="M898 354l-6-5-4 14 2-3" />
    <path fill="#030706" d="M603 391l-2-158 4 14 2 43" />
    <path fill="#000101" d="M358 190l-1 20 1 117 3-152" />
    <path fill="#e5e5e5" d="M365 233l-11-10 9-1 1-38" />
    <path fill="#dadada" d="M462 12l98 1 1 82 6-58" />
    <path fill="#fff" d="M687 585l-474 7 299 87-142 1" />
    <path fill="#fffefa" d="M842 67l-14 90-16-146 37 60" />
    <path fill="#cdcdcd" d="M383 511l-3-90v100l-1 51" />
    <path fill="#181c1b" d="M671 752l-2-15v-37l-4 50" />
    <path fill="#272728" d="M300 250l5-4 2 17-3-3" />
    <path fill="#754c00" d="M922 403l-17 2 2 6-1 7" />
    <path fill="#151616" d="M334 268l-6 35 2-56 1-48" />
    <path fill="#949494" d="M570 38l21 8V18l-31-5" />
    <path fill="#fff" d="M294 557l-76-3 140-3 28 3" />
    <path fill="#4c4c4c" d="M460 411l6 13 1-12 5-12" />
    <path fill="#fff" d="M614 216l104 26 100-132-202 64M122 502l125 10-112-14-14-57" />
    <path fill="#7a7b78" d="M618 160l-9 26-2-71 6 64" />
    <path fill="#192f10" d="M872 39l7 7 4-15-1 9" />
    <path fill="#c2c13c" d="M924 213l-10 2-28-19h40" />
    <path fill="#747876" d="M863 347l11-51-10 3 4-68" />
    <path fill="#fff" d="M704-26l161 330h19l-65 19" />
    <path fill="#6f6f6f" d="M567 455l-2-36-8 27v-55" />
    <path fill="#d2d2d2" d="M571 198l5 114-1 9-2 155" />
    <path fill="#8d8c8c" d="M415 676l-21 29 31-51-10 5" />
    <path fill="#adafae" d="M347 404l-1-117-1-11-3 22" />
    <path fill="#b1b3b2" d="M344 68l2-97 2 37v24" />
    <path fill="#a9a9a9" d="M82 249l-2-10-2 108-1-178" />
    <path fill="#b0b0b0" d="M816 710l5 21-12 3v2" />
    <path fill="#a0a0a0" d="M360 181l45-27 1 27-15-30" />
    <path fill="#8c8c8c" d="M942 745l-42 5 45 4-8-14" />
    <path fill="#d7d8d8" d="M262 169l30-27-11-95 11 107" />
    <path fill="#fff" d="M839-31L662 99l182-13-30 48" />
    <path fill="#bcbcbd" d="M118 517l-8 13-6-83-1 88" />
    <path fill="#898da7" d="M849 479l3 1 1-19-13-2" />
    <path fill="#7e8190" d="M895 332l8-41-17 1 13 26" />
    <path fill="#bfbfbf" d="M475 747l2-60 32 65-8-41" />
    <path fill="#fefeff" d="M286 515l-19-137 1 14 3 143" />
    <path fill="#eaeaea" d="M428 372l12 28 3-12 46-17" />
    <path fill="#cdcdcd" d="M301 330l-18-11 8 30 7-67" />
    <path fill="#b6b7b7" d="M598 447l-19 6 2-9-87-19" />
    <path fill="#dfe0e0" d="M347 168l25-4 8-7-81 4" />
    <path fill="#8d8f8f" d="M462 461l3-13 44 16 33-1" />
    <path fill="#fcfcfc" d="M498 439l-12-16 61-124-80 77" />
    <path fill="#8084c4" d="M645 396l-3-6-26 3 38 6" />
    <path fill="#9a9a9b" d="M205 749l-2-5h14l-68 5" />
    <path fill="#fffff9" d="M773 262l41-40 56-130-9 47" />
    <path fill="#fff" d="M937 708l-57-46 39-6 5-98" />
    <path fill="#feffff" d="M902 325l-44-2 108 32-87-23" />
    <path fill="#fff" d="M930 799l12-52-214-13 327 1" />
    <path fill="#3f403e" d="M570 87l-6-15 7-103-3 31" />
    <path fill="#151717" d="M365 100l2-16 10 9-9 34" />
    <path fill="#a2a3a2" d="M597 350l3-103-3-82-1 84" />
    <path fill="#131515" d="M332 344l-2 1-1-41 5-4" />
    <path fill="#6c34a8" d="M918 134l16-8-5-9-13 5" />
    <path fill="#b1b1b1" d="M102 127l119-6-37 28 61-17" />
    <path fill="#7c7d7c" d="M291 527l4-112 2 5-3 129" />
    <path fill="#a2a2a2" d="M26 738l10-5 21 2-8 11" />
    <path fill="#6e6f6f" d="M392 102l-1 132 3-67v-42" />
    <path fill="#333534" d="M391 241l3-16-3-18-1 19" />
    <path fill="#fff" d="M640 126l-22-45 204-5-206 77" />
    <path fill="#767676" d="M386 116V-2l-4 144 4 74" />
    <path fill="#a6a6a6" d="M740 623l29 1-19 14-7-15" />
    <path fill="#fff" d="M615 125V81l206 284L645 68" />
    <path fill="#b2b2b3" d="M102 102l4 73 2-85V71" />
    <path fill="#979797" d="M39 294l-1 34-10 21 11-58" />
    <path fill="#fff" d="M617 247l207 227-62 1 104-20" />
    <path fill="#808181" d="M258 79V6l-5 32v39" />
    <path fill="#fffffc" d="M855 71l20-19 22-6 1 59" />
    <path fill="#8f8f8f" d="M828 758l-3-9-22-1 135-2" />
    <path fill="#e5e5e5" d="M423 156l13 7-47-7-11-20" />
    <path fill="#a9aaaa" d="M81 399l-8-21 4 6v-77" />
    <path fill="#707459" d="M868 115l7-21v52l-11-22" />
    <path fill="#f9f9f9" d="M454 423l10 43-61-9 95-8" />
    <path fill="#adadad" d="M374 403l5-38 44 17h-52" />
    <path fill="#7e7e7e" d="M338 187l-58 6 9-39-1 39" />
    <path fill="#545655" d="M358 142l-3 14-59-2 94 5" />
    <path fill="#ccc" d="M284 405l9-44-12-1 30 48" />
    <path fill="#c1c1c1" d="M334 361l-1 115 5-36v-68" />
    <path fill="#fff" d="M906 398l-74 32 210-81-142 16" />
    <path fill="#d1d2d1" d="M192 6l138-37-3 102-6-86" />
    <path fill="#fffeff" d="M900 122l140-133-146 138 161 61" />
    <path fill="#292a2a" d="M566 108l4 32-1 116-3-10" />
    <path fill="#000202" d="M318 105l3-41 1 19-1 57" />
    <path fill="#e6e6e6" d="M295 142l71-7-2 29-5-38" />
    <path fill="#bcbcbc" d="M427 566l-1-2-4-136-3 101" />
    <path fill="#080a0a" d="M353 253l-3 84h-1l1-99" />
    <path fill="#fff" d="M368 13l152-1-301-43L5 12m169 671l-1 23-107 11h47m641-136l15-36-40 47 4 120" />
    <path fill="#bdbdbc" d="M583 405l-64-23 71 27-3-35" />
    <path fill="#fff" d="M901 419l154 117-32-552-125 538" />
    <path fill="#545e4c" d="M959 128l6 6-16-8 2-10" />
    <path fill="#fff" d="M869 251l-47-50-15-99-192 279" />
    <path fill="#939393" d="M40 267l-3-43-5-5 2 49" />
    <path fill="#bababa" d="M465 68l21-1-2 5-14 11" />
    <path fill="#fff" d="M615 264l1-34 256 115-254-42" />
    <path fill="#9d9e9e" d="M380 296l-1-84 2 26 9 125" />
    <path fill="#404040" d="M447 700l3 3v15l-7 2" />
    <path fill="#989998" d="M338 315l-4 16v-96l3-70" />
    <path fill="#808181" d="M244 192l-1-11 14 14-12-2" />
    <path fill="#3c4141" d="M615 353l-62-18 7 36-1-32" />
    <path fill="#fbfbfa" d="M415 345l38-1-13-10-84 10" />
    <path fill="#ff1a1a" d="M621 452l-2 2 3 5 10-5" />
    <path fill="#a485be" d="M998 87l-56 9-1 12 36-10" />
    <path fill="#fff" d="M296 680l-71-7 91-101-3 10" />
    <path fill="#f0f0f0" d="M485 460l64 63 3-56 6 50" />
    <path fill="#fefefe" d="M847 720l27 27-32-5 9 36" />
    <path fill="#bfbfbf" d="M559 307l6-97-1-71-7 83" />
    <path fill="#fff" d="M60 556l-91 3 126-8 106 5" />
    <path fill="#958d3e" d="M918 137v11l20 19-37-22" />
    <path fill="#fff" d="M956-13l99 36-68 16-5 69M357 590l280 64-274-9-5 100" />
    <path fill="#838384" d="M167 496l-2 6 1-161 3-24" />
    <path fill="#9a9a9a" d="M354 334l25 15-15-25-15 83" />
    <path fill="#bcbcbc" d="M363 84l2 77V11l-2 9" />
    <path fill="#a8a9a9" d="M420 106l4 22-2-128-3 113" />
    <path fill="#3d3f3f" d="M361 521v27l32 3h-40" />
    <path fill="#ddddde" d="M179 732v-41l37-8-5 66" />
    <path fill="#c6c7c6" d="M571 64l3-89v221" />
    <path fill="#ddd" d="M143 101l-35-71 28 61 11 167" />
    <path fill="#fcfcfd" d="M338 694l6 70-4-81-35 15" />
    <path fill="#fffff2" d="M930 129l-26 72-26-110 7 123" />
    <path fill="#f9f9fa" d="M463 202l-3-18 65 96 13-111" />
    <path fill="#9e9fa0" d="M742 552l29-14v79l-3-68" />
    <path fill="#fff" d="M884 47l-22 8 12 47 38-16M647 488l-4-87-14 60 224-35" />
    <path fill="#989898" d="M443 682l66 2-56-6-82 35" />
    <path fill="#141515" d="M314 541l-1 10-3-13 1-47" />
    <path fill="#232525" d="M575 547l6-120-3-84-3 60" />
    <path fill="#c2c4c3" d="M346 123l1 175-4-93v-72" />
    <path fill="#fff" d="M719 743l-36 7-464 1 822 32" />
    <path fill="#f1f1f1" d="M628 708l-6-143v233" />
    <path fill="#9b851a" d="M928 81l-23-19 23-12-27 51" />
    <path fill="#fff" d="M960 58l95 567-87-1 40-106" />
    <path fill="#a09fa0" d="M79 699l26 8-36 22 32-1" />
    <path fill="#000402" d="M603 118l-3-60 2-39 5 32" />
    <path fill="#d23f41" d="M608 230l21-12 1 11-24-2" />
    <path fill="#fff" d="M942 310l-130-4 99-1 41-173" />
    <path fill="gray" d="M180 113l-32 2 31 10 2-6" />
    <path d="M362 95l-3-14-3 16 2 18" />
    <path fill="#fff" d="M933 143l22-26-18-87 50-33" />
    <path fill="#262727" d="M289 477l80-4-3 76 13-77" />
    <path fill="#a7a7a7" d="M548 528l28 28-5-75 10 46" />
    <path fill="#8587a7" d="M706 515l-96-7 95 2-5 2" />
    <path fill="#efefef" d="M439 799l5-120 2 68-26 8" />
    <path fill="#fff" d="M1 232l48-10-2-237L-6 3" />
    <path fill="#929392" d="M829 347l15 17-18-5-4-2" />
    <path fill="#1f2121" d="M305 301l1 62-5-6v-20" />
    <path fill="#fff" d="M953 283l-104 5 60 2 41-143" />
    <path fill="#fafafb" d="M139 406l6 31-4-90-26 59" />
    <path fill="#1f2121" d="M576 185l2-40-3 96 6-8" />
    <path fill="#fff" d="M128 604l-159 75 143 6 1 104" />
    <path fill="#89711e" d="M897 120l4-13 18-2-4-16" />
    <path fill="#7cdca7" d="M896 631l25-5-9 8-4-11" />
    <path fill="#fdfff5" d="M904 177v85l4-92-5-60" />
    <path fill="#e6e6e6" d="M161 404l3-17-2 168-3-91" />
    <path fill="#575857" d="M574 515l-6 36-4-39 19 32" />
    <path fill="#acacac" d="M310 420l-1-49-9 33-5-51" />
    <path fill="#939393" d="M360 498l-78-287-37 7 39 2" />
    <path fill="#fff" d="M891 230l24 3h-64" />
    <path fill="#d5cfd2" d="M610 134l-2-42-1 39 130 175" />
    <path fill="#b1b1b1" d="M437 182l-22 98 8-1-5-55" />
    <path fill="#f9f9fa" d="M394 560l34-40-1 25-29-111" />
    <path fill="#a3a3a3" d="M165 203l1-115 3 52-2 238" />
    <path fill="#bfbfbf" d="M447 337l-56-2-2-4 55-8" />
    <path fill="#fff" d="M666 537l-142 97-28 84 4-29m185-240l164 10 103-5-115-1m9-73l15-127-27-113-10 98" />
    <path fill="#f2f2f2" d="M424 257l8-135 33 25-40-27" />
    <path fill="#b0b0b0" d="M380 328l43 4-62-17 12-5" />
    <path fill="#848484" d="M146 165V95l3 135-3 43" />
    <path fill="#fff" d="M691 660l66-2 9 32-80 79" />
    <path fill="#939393" d="M117 655l25 2-6 3-4 4" />
    <path fill="#9f9f9f" d="M87 30l1 3-14-3 15-19" />
    <path fill="#afafb0" d="M433 388l3 54 1 74 5-57" />
  </g>
</svg>