<svg version="1.1" viewBox="0 0 1024 768" width="1024" height="768" xmlns="http://www.w3.org/2000/svg">
  <g fill-opacity=".5">
    <path fill="#a9a9aa" d="M500.2 650.5l17.5 8.6-13.5 14-9-16" />
    <path fill="#acafad" d="M598.6 281L597 178.7 599 23l2.2 41.7" />
    <path fill="#c5c5c6" d="M417.4 342.6l3-84.8 31.2-35.3-1 108" />
    <path fill="#bfc1c0" d="M365.7 68l-3.5 11.5-1 3.5 3.2 64.5" />
    <path fill="#313131" d="M304.4 477.5l-2.2-61.8-.8-90.5 5-19" />
    <path fill="#8ba295" d="M966.7 623.5l46.8 6-76.7 1.2-48.8-3" />
    <path fill="#fff" d="M896.5 43l-45 43.4 51 15.4 4-21.3" />
    <path fill="#fdfefe" d="M670.5 788l2.4-204.6 127 205-123-139.2" />
    <path fill="#cacbca" d="M176 196l146.6 232 4.7-159.7 1 170.2" />
    <path fill="#e7e7e8" d="M353.6 452L455 478.2l3.3-2-165-13" />
    <path fill="#fff" d="M1052-31L914.8 553.6 997 92.2 904-31" />
    <path fill="#070b0a" d="M368 198.4l2 14.3h24.2l-2.4 15" />
    <path fill="#fff" d="M87 745.6l-118-.8L40.7 799l240-42m-102-584.4l-.7 160.8 39-93.7 48.7-37.3" />
    <path fill="#fefefe" d="M564.6 530.5l-116-46.2 4 63 113.3.8" />
    <path fill="#d0d1d1" d="M356 73.3l-.5 84.6-5.2-93 138 26" />
    <path fill="#fff" d="M614 147L864-26 709 174l150-42" />
    <path fill="#7b7b7b" d="M499.3 746.8L361 748l177.3 2.6 40-2.5" />
    <path fill="#a0a1a0" d="M343.7 310.7l2.5 51.7 9-99.8 1 105.7" />
    <path fill="#9fa0a0" d="M24.8 743.2l151.6 4-59.5 4-19-16.8" />
    <path fill="#fff" d="M879.2 422.8L887 261l-.4 146 98.2-68.6" />
    <path fill="#0f1211" d="M323.4 541l-8-11.8 1.5-3 3-100.2" />
    <path fill="#708ab7" d="M644.2 161l4.3-1.2-45-8.4 40.5-4.2" />
    <path fill="#fff" d="M275 571.7l105 4-203.2 8 136.5-16m453 99l-26.6-470.2-120.4 249L769 544.7" />
    <path fill="#d0d0d0" d="M352.4 398.7l1 155.4L326 677l31.6-138" />
    <path fill="#696a6a" d="M157.7 343.2h32l-49.5-9-18 10.2" />
    <path fill="#fff" d="M794 559.2l90 205-8-77.8-105.5 10.2" />
    <path fill="#c1c1c2" d="M767 693l1.4-109.3L776 746l-11-15.8" />
    <path fill="#c0b600" d="M950.6 476.5l-7.5-6.8-21 2.3 17 17" />
    <path fill="#fff" d="M1055 106.6l-110.4 1 84 69.7-113.8-34.6" />
    <path fill="#967f00" d="M863.5 194.6l-13-42 12.4-.7-14 38" />
    <path fill="#f5f5f5" d="M458.3 156.7l32.3-19.2 3.6 6.6 65.6 15" />
    <path fill="#aeafae" d="M601 412.5L597.7 278l-2 49.3v308" />
    <path fill="#fbfbfb" d="M396.7 296.2l20-86 4.8 144-26 68.7" />
    <path fill="#fff" d="M614.7 13.8l5.2 53 124 2.5 198-65M633 760.6l-1-174.3-114-14.8L639.8 686" />
    <path fill="#bcbebd" d="M575.4 522l-1.7-107.5-3-79 2 168" />
    <path fill="#101210" d="M589.6 439l-7.8-23.2-4.8 97.5V391" />
    <path fill="#494a4a" d="M446.7 230.3l-18-3 2.6-42-2.6-.2" />
    <path fill="#909296" d="M802.8 513l-39.3-41.5L773 492l35.4 32" />
    <path fill="#fff" d="M461 749.4L137.4 752-20 799l838-46.4" />
    <path fill="#7e7e7e" d="M240 345.8l44.5-.3 41.5-54.8-62.7 67.6" />
    <path fill="#676868" d="M587 547.6l-22.4-43 1 46.6 57-1.5" />
    <path fill="#fffffc" d="M774.3 509.5l181.6-24-24 16.7-56-36.2" />
    <path fill="#fff" d="M223 587.5l129 91.3 52.6 1.8 4.3-86" />
    <path fill="#f2f2f3" d="M149.4 486.3l.3-192.4L162 452l1-104" />
    <path fill="#202121" d="M350 302.5l33 8.5-9.8-62.4-13.7 95.3" />
    <path fill="#040807" d="M601.4 146.2L600.2 250l2.3 30.7 5-54.6" />
    <path fill="#bbb" d="M367 177l-1.6 48.3-8.3-61.5L485 215" />
    <path fill="#1f2121" d="M362.8 29.3l-4.2 76.8-2.8-71-27.4 25" />
    <path fill="#fff" d="M459.7 554l260.6-4.2 119.5 64.7-246-57.6" />
    <path fill="#fbffff" d="M840.5 132l68.5 44-74.5-38 170.8-1.4" />
    <path fill="#767676" d="M425.3 682.4l42 47.8-1.5-36.2-37 15.8" />
    <path fill="#a5a6a5" d="M335.7 218.8l-1.4 109.5 2.2 90L339 273" />
    <path fill="#2d2e2e" d="M333.4 405L331 302.4 329.6 446l1.4 6" />
    <path fill="#483332" d="M637.6 455l-124 8.3 23.2 8.4 57.5-20" />
    <path fill="#fff" d="M302 685.8l-64.4 3L205 742l79.5 5.8" />
    <path fill="#313232" d="M351.6 303l-.2-130-3.7 73.5 1.8 144" />
    <path fill="#6a6d52" d="M862.7 470.4L875 476l-14.6-32.3 10-15.5" />
    <path fill="#f7f7f7" d="M595.6 496.8l-8 8.7-187.5-2.2 95-4.5" />
    <path fill="#05b055" d="M859.6 568.5l-.3 78.7-4.2 20.5 6 26" />
    <path fill="#7e8a1d" d="M899 372l.2 30.7-13-11.3 3.3-23.8" />
    <path d="M311.3 74.3l.2-39.2 3.6 85-6 3" />
    <path fill="#4a4c4b" d="M375.2 748.6l-1.7-16-11.7-2.6-17.6 21" />
    <path fill="#585858" d="M481 155.3l6.7 19-22.4-19.6 2.8 37" />
    <path fill="#fffffe" d="M922 198l-55.2-9.5-3-38.8 55.4 4" />
    <path fill="#bbbbbc" d="M443.8 343l91 4-68-17 6.2 107.3" />
    <path fill="#101212" d="M339 144.3l6 126.2-32 2.2 27.6-16.6" />
    <path fill="#fff" d="M272 283.6l6 114.7-66.6-2.7 58.3-15.4" />
    <path fill="#fcfcfd" d="M548 156.7l-27.5-2 32.7-151-103.7 29.8" />
    <path fill="#5e5f5f" d="M316.7 679.6l91 2 29 1.3-1.7 18" />
    <path fill="#8e8e92" d="M770.3 675l-1.6-30 1.7-108.2 1.2 82" />
    <path fill="#94889d" d="M937.2 637.8l14-1.8 10.7 9.2-62-4.5" />
    <path fill="#2c2d2d" d="M360.8 540.6l-4.6-69.4 7.2-115.8-4.7 2" />
    <path fill="#bab9b9" d="M227.8 573.7l75.6-17-139 .6-105 13" />
    <path fill="#fff" d="M859.5 167l-121 27.3-122 207.5-1.4-40" />
    <path fill="#6c6d6d" d="M285.5 117.2l-2.5 93.2L294.5 78l2 115.5" />
    <path fill="#fff" d="M648 508.2L767.5 477l31.8 29.5-158-270M224.3 120l-46 1-1.6-145.4L254 41" />
    <path fill="#222424" d="M343 339l-2.8-153.4-3.8 134.7 5.3 90.3" />
    <path fill="#2f2f2f" d="M591.8 72.6l-1-59.2 22.7 2-19.7 5.7" />
    <path fill="#a29f21" d="M917.8 39.7l-32.3-1.2 44.7 43.3-25 19" />
    <path fill="#1fbd69" d="M851 682.3l40.7 4.4-18.4-6-13.8 1.6" />
    <path fill="#e0e0e1" d="M304 351.2l48.5 3 190.2-23-170 6" />
    <path fill="#f8f8f8" d="M458.7 750.3l-111 14.8 1-128 4.7 120" />
    <path fill="#030505" d="M597.3 148L583 113.3l-17.6 34.3 2-15.2" />
    <path fill="#d2d2d2" d="M301.7 166.5L299.3 44 297 194.6l2 126" />
    <path fill="#6e5d58" d="M822.4 120l3.7 1.5-4 11-14 1.8" />
    <path fill="#737373" d="M256.6 210.6l.6-56L255-12l-2.4 198.5" />
    <path fill="#a4a5a5" d="M93.5 560.2l5.2-60-2.3-75-3.3 10.6" />
    <path fill="#fff" d="M835.6 342.3l77 7.5-33.7-12.4 5 4.6" />
    <path fill="#aa8e1f" d="M862.7 95.6L836.3 78 876 40.7 853.4 61" />
    <path fill="#bf0709" d="M626.4 157.8l-20.4 7.8 6-3.8 13.2 3.5" />
    <path fill="#b4b4b4" d="M999.6 718.2l-21.8 4.4h.5l24.4 15.8" />
    <path fill="#fcfcfc" d="M316.6 137l25.3-15.5 41 6.6-7 13" />
    <path fill="#fff" d="M53.6 713.2l177-140-149.4 7-8.4 175.5" />
    <path fill="#bababa" d="M51.5 31l-2.3 86 24 122.6L71 3.3" />
    <path fill="#fff" d="M872 72.2L720.8 189.6l16.2-68.4 112.3-20.5" />
    <path fill="#e5e6e5" d="M391 776.4l-4-74.4-13.8 70.8 5.8-94.6" />
    <path fill="#a3a3a3" d="M245.5 174l-56-15.2-36.6-1.6 6 17.4" />
    <path fill="#595b5a" d="M292 13.3l78.8.4-65 7.7-15.5 3.2" />
    <path fill="#fff" d="M987.4 743.2l-162 32 205 23.8 24.6-153.4" />
    <path fill="#fff" d="M1055 672.7l-129 38-54-68.7 80.2 7.4" />
    <path fill="#eee" d="M419.3 255.2l-23.8-150.7 1 196.2 14.5-256" />
    <path fill="#6a6e41" d="M873.4 104l-7 51.8 1.7-48.4-25-38" />
    <path fill="#e0e0e0" d="M72 486l47.3-100.4L73.7 13.2 70 318.7" />
    <path fill="#b1b1b0" d="M588.8 526.5l3 63.4-7.4-35 6.2-206" />
    <path fill="#9d9d9d" d="M353.7 285.3l5-62.2-7.7-18 1.7 20" />
    <path fill="#ecedec" d="M352.5 469l-5.2-4.7-46.8-10.5 79.2-1.7" />
    <path fill="#404242" d="M547 496.6l39.6-1.4 27.3-6.8-58-.4" />
    <path fill="#f0f0f0" d="M394 411l170.7 53-180-31.4-71.6-26" />
    <path fill="#2c2b2c" d="M302.6-15.5l4.5 197.7-5 1.2 2 51.3" />
    <path fill="#131616" d="M564 457.8l28.7-9.5 1.8 63.3-7-50" />
    <path fill="#686767" d="M412.6 228.3l.7-10 1.5-5-24.4-3.2" />
    <path fill="#989999" d="M362 413.7l-1-55 2.3-132.3 4.5 105" />
    <path fill="#fff" d="M646 571l-210.8 6.8-98.8 79.3 283-4" />
    <path fill="#a3a3a3" d="M31.3 251l5.4-45.2 2.8 36L35.7 357" />
    <path fill="#fff" d="M869.3 603.7l140.4-16.8 23.4-31-162 3" />
    <path fill="#a89c27" d="M855.5 68l2.2-22.8-5.4-5.6 32.3-15" />
    <path fill="#151818" d="M362 307.2l22 25.8-17.3 3-9.8-108" />
    <path d="M368.3 299.8l-.7-75 11.6 67.7-2-41.7" />
    <path fill="#959696" d="M429 586.2l16-1.6-59.8-4.2.4 9" />
    <path fill="#000101" d="M341 16l-2.2 7.8.7 94.3 4-58" />
    <path fill="#020605" d="M329.7 112.6l3.2-50V38.3l-4 7.5" />
    <path fill="#929292" d="M377 89.8l11.7 86.5L404 117l5 32.6" />
    <path fill="#1a1b1b" d="M367.6 521l1.5-56.7-11 76v-77.5" />
    <path fill="#cecece" d="M338 117.8l-4.7 98.2 1.6-83.2V54.5" />
    <path fill="#fdfffc" d="M861.5 97.8l52-11.8-60.3-20.5 71.2 3.7" />
    <path fill="#b3b3b3" d="M572.8 164.6l-8.8-25.4-32 45.5 44.3-40.2" />
    <path fill="#b2b1b3" d="M529 697l1 47.5-10-31-59-15.7" />
    <path fill="#fff" d="M-31 375l81.2 101.5L19.8 271l27-.5" />
    <path fill="#3e4040" d="M323.2 238.7l-52-3L283 232l18-2.8" />
    <path fill="#808591" d="M886.5 375.5l7.7-111.5-5.4 7.6 9.7 99.2" />
    <path fill="#fff" d="M823 358L617 188.2l184.2 246 66-53.3" />
    <path fill="#d4d3d3" d="M476.5 662.8l-60.2 68.7-7.8-48.2L396 728" />
    <path fill="#f9f9fa" d="M299.7 196.5l-83-4.5 42.6 15.3 41.2 3.7" />
    <path fill="#fffffe" d="M886.3 27l7.4 50-35.3 36-3 33.6" />
    <path fill="#fff" d="M898 128l47.2-16.6L918 39l109-70" />
    <path fill="#b4b4b4" d="M307.6 536.8l-41.4-189 37.4 187.6 5.7-165" />
    <path fill="#091115" d="M611 482l1.5 34.3 3.2 8.8-3.7-121" />
    <path fill="#fff" d="M70.6 13L391 6.3 10-31l-41 84" />
    <path fill="#121514" d="M672.2 739l-5.8-30-2.3 18.7 7 26.3" />
    <path fill="#fcfcfc" d="M468 697.5l-22.4 1 31-90.7-4 142.4" />
    <path fill="#cecece" d="M329 458l-3-122.2-2.8 137.2 2.4 167.6" />
    <path fill="#8c8c8d" d="M121.5 698.5L123 664v76.7l-5.4-32" />
    <path fill="#fff" d="M-31 240l67.4-16.2L47.2 397l2-290.5" />
    <path fill="#a8a8a8" d="M308.8 206.8v-53.3l-4.3 103.2 3.4-12.2" />
    <path fill="#a3a3a2" d="M835.5 345.2L817 360l-10.4.8 41.3.5" />
    <path fill="#8384ac" d="M705 73l-6.6 3-102.6-3 59-3.6" />
    <path fill="#5b5b5b" d="M559 263.7l-.3-142.7-.2-58.8-3 118.5" />
    <path fill="#5d5e5e" d="M420 386.7l20-40 7 17.3 7-21.3" />
    <path fill="#bbbbbc" d="M333.6 568.2l3.8-82-.7 70.2 161 17.8" />
    <path fill="#979695" d="M941.5 362.6l-25.8-.3 3-16 4-1" />
    <path fill="#838383" d="M942 710l.4 21.7 7.4-1.2-6-20.4" />
    <path fill="#b3b3b3" d="M144.8 507.5L175 522l-35.8 2.2-15.6-7" />
    <path fill="#9c9c9d" d="M253.6 230l-16.4-4.7 25.3-15.6-6 40" />
    <path fill="#82886c" d="M875.6 305.4l-5 130v-114l-6.7-2" />
    <path d="M606.8 451l-2-112.8-4.2 61.6 2 118.6" />
    <path fill="#353736" d="M339 451l6.6 107.3-8.2-26.4 4-110" />
    <path fill="#f7f7f7" d="M469 510.2l-19.5-111.7-4 70.6 121.2 12" />
    <path fill="#f8f8f8" d="M149.8 664.6l3.8-152 .4-124-5 91" />
    <path fill="#fdfefe" d="M292 100.6l1.4 20.5-27-72 6 89" />
    <path fill="#dbdbdc" d="M182 218.6l-39.2-26.3 1.3 201.4-2-49" />
    <path fill="#fff" d="M883.8 14L478 11.4 946.6-31l-40 74" />
    <path fill="#242626" d="M320.6 330l-8 63.5-2.4-52.8 14 78.3" />
    <path fill="#fafafa" d="M553.4 176.6L556 10l189.5 7.5L548-31" />
    <path fill="#2b2a2a" d="M352 701.5l6.4 26.2-3.7 9 .7 13" />
    <path fill="#cfd0cf" d="M574.5 135.2V63.7l-1.7-50-2.5 14" />
    <path fill="#5b4e66" d="M918.3 123.7l32.5 2 2.4-12.8 10.3 17" />
    <path fill="#ae7a00" d="M929 474l-6.5-11.5-12.8 5 10.4 13" />
    <path fill="#b0b0b1" d="M446.3 422l-.6 131.2-63-2.8 68.6-3.4" />
    <path fill="#fff" d="M833 405.6l2.3 53.3 56.5-81-42 48" />
    <path fill="#303333" d="M681.5 694l-6.6 3.7-18-17.7 22 1" />
    <path fill="#131615" d="M141.4 183l-1.8-11.2-4.2 2-1.7 8.2" />
    <path fill="#626516" d="M826.6 477.5l1.7-4.5 8.5-12.4v21.6" />
    <path fill="#fff" d="M940.3 267.2l112.4-218.7-118 227-129.7-9" />
    <path fill="#ababab" d="M590 89.5l-8 229.8-79.8-139 87.3 155.3" />
    <path fill="#d5d5d6" d="M566 327l9-133.2-2 117.4-45-167.5" />
    <path fill="#737273" d="M629 696l-.8 46.6 16-65.3L641 736" />
    <path fill="#050d0c" d="M557.4 353.3l37.2-23.7.5 21.6-37-1.4" />
    <path fill="#fff" d="M1007.2 54.4l-89.5 367-6.6 38.8 137 33.7" />
    <path fill="#404141" d="M591 265l-3.3-49.5-17.4 12.2 26.5 8.2" />
    <path fill="#a2a2a3" d="M101.3 701.3l-30 3 8.4 6.5 38.2 3.4" />
    <path fill="#fcfcfc" d="M431.7 208.2l-32-17 9.4 4.8-28 14.3" />
    <path fill="#d8ca2d" d="M837 552l-20.7-2.3 9.5-4.4 119.5 2.8" />
    <path fill="#141616" d="M379.5 531.6l-11.7-9.7-4 28 12.4-2" />
    <path fill="#9b9b9c" d="M89.8 62l28.4-9.7-21.6-3.8-12.3 1" />
    <path fill="#c9c9c9" d="M297.3 507l1-45.2-1.7-90.3 7.6 134" />
    <path fill="#c3c3c3" d="M382 453.2l90.6-14L393 464l4.3-73.3" />
    <path fill="#fff" d="M820.2 144.3L856 89.5 747.4 26.2l107-12.2" />
    <path fill="#812b1d" d="M862 40l-16 18.4L857.5 71 853 94.2" />
    <path fill="#8e8e8f" d="M139 414.2l-2-15-2 66.3 2.6 29" />
    <path fill="#fafafa" d="M364.4 71l98.8-5.4-11.5 45.3 143-19" />
    <path fill="#ababac" d="M157.5 361.5l-4 75.7 56-21-52.6-11.8" />
    <path fill="#b1b1b0" d="M587 309.5v-69.8l3.8 31-2.4 150" />
    <path fill="#f2f3f3" d="M261.5 371L103 352.3l201 3.7-28 15.3" />
    <path fill="#818181" d="M339 513.6l49.7-265.3.2 96.4-10-48" />
    <path fill="#fff" d="M871.5 291.3L621 289.5l35.3-212 39.4 1.3" />
    <path fill="#9f8f2f" d="M916.5 66.4l5.6 43.4-32-13.5 11 20.7" />
    <path fill="#fff" d="M886.5 698.4l-13.7-36.7-1.7-15.2 18-101.2" />
    <path fill="#a5a6a5" d="M599.3 90.3L435.7-31 595.3 87.4l1.2 139.4" />
    <path fill="#0e0f0e" d="M598.3 127l-7.3 80.7 1.8-171 3.4 100.2" />
    <path fill="#7d834d" d="M903 446l-17.7 4.4 10-40-7.5 60.8" />
    <path fill="#f6f6f6" d="M537.6 501l-.7-168-104 82 94-45" />
    <path fill="#fff" d="M130 680.2l211.7-57.8-71.3-23.7-73.8-28" />
    <path fill="#bfc0c0" d="M610.3 565.7l-3.5-144-.5 145-322 85.6" />
    <path fill="#a98c05" d="M936 149.3h-19.4l21.3 34.3-1-27.6" />
    <path fill="#575958" d="M383.4 463l-7.4-27.5-70.7 18.5 82.5-5.3" />
    <path fill="#bababa" d="M96.7 236.8l-.4 107.4-6.8-61.3 7.3-160" />
    <path fill="#fffff4" d="M902.8 103.7L921 106l-21.7 60.7 7 49.3" />
    <path fill="#fff" d="M251.7 543.5l1.6-62.6-76-11-11.3 80M353 13H123.6l303-44 220.7 43.4" />
    <path fill="#747574" d="M257 373.8l-.7-72.3-5 74L332 384" />
    <path fill="#fff" d="M800 317.4L866 500l-9.7-67-20.6 44.7" />
    <path fill="#565757" d="M296.5 65.7l-3.2 217.6L293 77l-.2-9.5" />
    <path fill="#ababab" d="M497.5 681.7l29.6-4.3 90 5.4-60 .4" />
    <path fill="#303232" d="M560.7 496l-5.3-4.3 7.4-35-9.6 13.4" />
    <path fill="#adadad" d="M142.6 676l-56 20.5 3-10 74-3.8" />
    <path fill="#9b9b98" d="M785.5 470L768 453.8l27.2 3.7-1.8 12.2" />
    <path fill="#bbb" d="M499.8 556.8l-55.8-.6L325.3 571l288.5 2.2" />
    <path fill="#cacccb" d="M353.4 77.5l3.6-6v-15l-3-84" />
    <path fill="#9d9d9d" d="M956.3 607l-31.6-12 44 2.7 12-8.3" />
    <path fill="#fff" d="M657.4 758.3l6.3-66.6L661 785l-432.6-31" />
    <path fill="#9e9e9e" d="M98.4 105.8l-5 67-.4-97 7.2 9" />
    <path fill="#e7e7e7" d="M389 230.2l-33.8-5.2-24.8 2 51.7-6.7" />
    <path fill="#fcfcfc" d="M100.5 363.7L75.8 339l66.3-9.5 3-156.4" />
    <path fill="#fff" d="M781.7 698.2l74.6-1.3V576l-81-5.6" />
    <path fill="#ebeceb" d="M444 293.6l-3-96.2-1 17.5 5.3-144" />
    <path fill="#b7b7b7" d="M319.4 410.5l-4-39.6v33l.5 43" />
    <path fill="#fcfdfd" d="M872.3 236.8l14.5 102.7 4.4-152.7-34 86M261 258l31 86.3-12.4-122.8H298" />
    <path fill="#a2a2a3" d="M302.5 737.2l5.3-43.3-17 56 2-56" />
    <path fill="#595a55" d="M551 67l-22.2 9.3 53-.2 6.6 4" />
    <path fill="#939393" d="M482 192.7l-63.8-1-60.2-.4 61.4-9.4" />
    <path fill="#fff" d="M840.7-31H614l1.7 94.5L858 49.7m-94.4 681l74.3 9-154 32-3-169.5" />
    <path fill="#747c50" d="M863.2 344.2l10.4 28.6L863 400l.4-29.2" />
    <path fill="#f3f3f3" d="M147.6 146.8l5.4-15.2 2.4 124.3-6-99" />
    <path fill="#121313" d="M564 149l-.8-20.4 4.3 60 1-111.4" />
    <path fill="#535b2c" d="M863.5 213l9-12.7-4.7-8.2-1.5 8" />
    <path fill="#101211" d="M308.4 325.2l4 65.8 1-44-.5-50.6" />
    <path fill="#fff" d="M1021 771.5l14-136-161.5-6.4 80.5 7" />
    <path fill="#fdfdfe" d="M315 743l37-3.5-29-11L339 536" />
    <path fill="#e7e7e7" d="M274.3 252.7l28.7 20-7-34-46.6-22.3" />
    <path fill="#888" d="M596.7 656l.5 6 14 8.2 2.2-15.6" />
    <path fill="#fff" d="M836.3 545.4l-15-59.6 66.6-15.5 93 75.6m-360-32l131 6-246 158 84-3" />
    <path fill="#878787" d="M512.5 174.5l-7 2 4-42.5 2.2 3.4" />
    <path fill="#090e0d" d="M308.5 38.6l6-24-.3 74.6-2.5-28.2" />
    <path fill="#454544" d="M490 334.8l5.4 8.2-8 2.3-.2 2.8" />
    <path fill="#474848" d="M477 160.2l-.7 14 17.8 2.6 2 10" />
    <path fill="#fff" d="M943.7 191.3l-3-75.3 17.3-8.7-10 23.2" />
    <path fill="#fafafb" d="M418 60l-4-91-20.4 26.7 3 150" />
    <path fill="#54547b" d="M789.6 548.4l56 2.2 29.8 5.6-107.2-2" />
    <path fill="#bdbdbd" d="M261.7 14l23-1.2-203 .7 61.8 3.5" />
    <path fill="#fff" d="M29 777.7l4.8-323L26.4-31-31 710" />
    <path fill="#fafafb" d="M81.2 274.2L86.5 410l68.6 34-75-12" />
    <path fill="#ff6063" d="M628.4 354.7l-13-17 17.8-6.5-13.6 25.6" />
    <path fill="#999bad" d="M974 478l-56.2 46 15.4-16.4 40.2-37.6" />
    <path fill="#b0b375" d="M830.8 141l-20 14.5 70.2-9-33.7 17.2" />
    <path fill="#34363a" d="M621 512l-31 26 3.7-41.5 3 42.3" />
    <path fill="#f7f8f8" d="M105.6 155.3l17.4 292 17.5-255-58.7-9.3" />
    <path fill="#dcdcdc" d="M386.8 699.4l1.7 79 2.7-79-4.6-21.7" />
    <path fill="#232625" d="M570.7 434.7L566 310v114l-.6 76.6" />
    <path fill="#6c6c6c" d="M447 730.3L423.6 749l-15.6-8-8-5" />
    <path fill="#8f8f8f" d="M475.6 693.2l2.5 12.6 20-7.2-1 40.8" />
    <path fill="#d5d5d5" d="M411 633l9.6 135.4-2.5-125-8 43" />
    <path fill="#0e1111" d="M324.3 358.6l-7.4-49 4-162-1 260" />
    <path fill="#222424" d="M379 51.5l1.5-33-16.3 1L377 71" />
    <path fill="#fafafb" d="M627.5 736l-56.7-24.2-73.6 33.3 113.8 3" />
    <path fill="#f8faf4" d="M846.7 303.4l71 60.7-132.6 1 122-5" />
    <path fill="#fff" d="M667 285.8L627.6 358 696 501.5l173-121" />
    <path fill="#d1d1d0" d="M346 472.3l-1.5 26-2.2-124.5h6.2" />
    <path fill="#818181" d="M148.2 144.3l-1.5 54-4-38.3 5.2-91.8" />
    <path fill="#fff" d="M972.6 446.6L920 365.8l15.5 182.5-62.2-32.3" />
  </g>
</svg>