<svg width="1024" height="768" viewBox="0 0 1024 768" xmlns="http://www.w3.org/2000/svg">
  <path fill="#dededd" d="M0 0h1024v768H0z"/>
  <g fill-opacity=".5">
    <g class="UTIL__svg-thumb__low-res">
      <path fill="#101212" d="M385.2 5.355l1.432 542.923-91.85 9.99-4.976-536.01"/>
      <path d="M615.742 13.433l-.472 558.863-49.29-41.027-1.457-497.842"/>
      <path fill="#626364" d="M447.857 756.45l-104.638-8.783-9.986-70.766 120.138 3.903"/>
      <path fill="#fff" d="M616.355-31l228.44 37.387 13.6 778.372-243.428-110.665"/>
      <path fill="#151717" d="M624.385 707.124l22.167 43.694 35.11-3.365-1.777-72.133"/>
      <path fill="#fff" d="M895.655 335.926L1028.06 799l-1.606-830-112.282 277.635"/>
      <path fill="#b4b4b5" d="M257.294 125.418l178.84 128.956L536.97 139.48l-153.966-18.433"/>
      <path fill="#e6e6e7" d="M324.032 387.83l235.474 72.858L312.28 471.21l15.33-36.306"/>
      <path fill="#181b1b" d="M301.588 350.363l8.17-120.733 69.398-.034-.67 91.88"/>
      <path fill="#fff" d="M-31 506.815l16.99 274.382L316.904 799l-18.818-337.132"/>
      <path fill="#fff" d="M921.41 632.275l-342.4-59.77L-31 574.64l229.252 120.727"/>
      <path fill="#2c3030" d="M568.927 451.427L503.18 464.79l114.58 40.62-9.64-217.42"/>
      <path fill="#2b2f2e" d="M614.037 291.848l-69.554-172.266L614.675 5.647l-.326 97.952"/>
      <path fill="#fff" d="M260.44 319.38l77.54-25.18-169.956-107.39L187.88 462.18"/>
      <path fill="#523f33" d="M746.3 555.232l18.636-7.018 107.445-.71 46.823 9.486"/>
      <path fill="#9c7900" d="M837.29 100.755l50.253-72.715 50.602 41.246-78.425-34.813"/>
      <path fill="#fff" d="M10.528-31L-31 734.92 47.03 799l2.73-419.315"/>
      <path fill="#c7b983" d="M783.86 525.81l79.6-165.145-.256-96.267 55.888 150.397"/>
      <path fill="#313333" d="M293.494 14.89l90.313-.848-11.356 105.545-57.88-6.572"/>
      <path fill="#fff" d="M848.825 471.868L918.46 799l106.5-13.51L1055 508.197"/>
      <path fill="#b5a74c" d="M915.438 42.943l-83.607 200.22 37.246-151.737 71.036 96.512"/>
      <path fill="#f7f7f8" d="M465.533-22.314L388.36 216.192l126.695-101.144 89.003-3.562"/>
      <path fill="#5b5d5d" d="M356.036 184.715l86.226 51.712 50.265-84.04-105.832 91.853"/>
      <path fill="#828283" d="M165.783 99.08l19.07 85.62-49.024 5.093-.114-82.908"/>
      <path fill="#2c2121" d="M544.037 358.045l-8.993-20.898 100.14-4.208-55.914 25.623"/>
      <path fill="#fff" d="M522.613 571.734l310.79-79.017-256.144 227.28L268.133 606.51"/>
      <path fill="#777778" d="M222.103 449.872l-77.992 43.833 4.298-175.986-.637 134.273"/>
      <path fill="#ada02f" d="M839.576 461.5l79.73-.773 47.8 26.87-10.532 2.445"/>
      <path fill="#fefeff" d="M74.867-31L-31 9.284l332.37 96.832.998-131.295"/>
      <path fill="#b8b8b9" d="M434.456 589.363l-99.49-38.81-262.613 6.374 146.022 29.77"/>
      <path fill="#3f4152" d="M557.452 87.487l68.126-11.274 82.79-5.95-175.907-3.02"/>
      <path fill="#fff" d="M443.88 278.996l89.11 183.48 6.747-194.925-3.55-129.487M846.984 418.446L713.394-31l-99.847 531.286 256.72-40.16"/>
      <path fill="#fff" d="M1021.383-31L525.063 6.625l375.955 22.302 153.125 214.66"/>
      <path fill="#fdfefd" d="M308.596 126.663l112.622 65.274-84.728-21.287 50.848-53.106"/>
      <path fill="#b0b0b1" d="M79.188 475.372L57.923-31l-11.6 564.207 88.625 56.39"/>
      <path fill="#8f946f" d="M878.31 233.97L865.32 479.4l-2.48-278.18 78.43-8.105"/>
      <path fill="#bebebd" d="M571.067 51.328l-1.51 289.622 32.225-53.4-24.81-33.472"/>
      <path fill="#fff" d="M525.96 799l13.735-325.977-105.057-17.094 209.26 327.798"/>
      <path fill="#5e5f60" d="M437.966 375.77l73.633-45.533-152.148 48.926-129.74-45.032"/>
      <path fill="#262828" d="M323.796 197.254l-1.886 183.948.23 149.982-22.35-413.037"/>
      <path fill="#fff" d="M857.54 567.186l-9.123 231.165-195.05.65 125.737-238.658"/>
      <path fill="#777878" d="M506.29 730.89l2.61-83.05-10.534 54.338-169.384-27.615"/>
      <path fill="#5f5f60" d="M866.015 745.075l-73.096 9.168 132.87.442 21.284-6.29"/>
      <path fill="#38393a" d="M305.56 549.186l70.545 1.688 2.697-85.77-68.473 30.66"/>
      <path fill="#898a8a" d="M562.898 335.3l-7.73 41.13 55.272 194.92-67.47 4.895"/>
      <path fill="#f6f6f7" d="M569.24 731.715l-213.106-.468 73.997-35.292L454.183 799"/>
      <path fill="#2e3130" d="M601.03 414.412l-.228-213.444-64.433-18.53 78.638-97.38"/>
      <path fill="#fff" d="M1054.966 390.278l-157.414 86.8L992.72 113.31 1010.03-31M367.648 15.03L678.82 2.11-31-2.003 131.562 9.99M377.157 749.174L-31 776.572l1086-10.056-531.464-17.035M618.06 77.028L688.493 648.9l235.35-501.264-66.553 44.913"/>
      <path fill="#fff" d="M48.723-31L-31 55.642 46.226 799l2.51-570.36"/>
      <path fill="#ce1229" d="M832.397 407.53l20.14-18.37 13.194 26.076-16.946 4.69"/>
      <path fill="#956604" d="M880.222 137.732l-29.3-88.345-8.25 7.525 1.35 21.25"/>
      <path fill="#63c8ea" d="M826.182 84.623L764.867 96.59l102.428 26.096-54.983 28.053"/>
      <path fill="#9578ae" d="M930.092 121.963l35.265 10.965-27.088-42.633 77.89 5.266"/>
      <path fill="#6d6d6d" d="M258.45 199.02l-3.63 87.114-4.31-269.61 6.87 6.848"/>
      <path fill="#f9f9fa" d="M402.91 234.41l25.268 130.577-98.04-16.068 60.355-14.36"/>
      <path fill="#b5b5b5" d="M339.478 85.718l-15.78 6.033-1.29-37.05 85.026 11.138"/>
      <path fill="#fff" d="M245.126-31l-8.948 373.353-158.94-20.88 124.09-147.575"/>
      <path fill="#7c7c7d" d="M281.033 461.86l5.043-145.546 47.842 113.147 61.243 16.92"/>
      <path fill="#a49d58" d="M885.442 413.935l6.656-173.502 11.25 141.673 21.287 41.81"/>
      <path fill="#92963b" d="M866.99 469.09l40.764-11.33-102.26 17.542-30.317 29.46"/>
      <path fill="#59268d" d="M835.318 552.943l106.283-1.47 58.867 3.29-112.335 1.86"/>
      <path fill="#9b9b9b" d="M659.827 749.137l9.045-64.675-40.854-9.818-17.877 76.817"/>
      <path fill="#b4b3b4" d="M111.29 746.56l-1.748-69.225-56.51 53.53-69.726 14.377"/>
      <path fill="#a09416" d="M939.388 146.096l-33.238 78.32 37.578-54.53-61.39-26.692"/>
      <path fill="#fff" d="M893.576 402.062l-46.09 146.447 74.45-10.05-72.276-148.983"/>
      <path fill="#b49d1e" d="M844.805 180.512l6.423-32.805 28.354 67.565-42.87-38.128"/>
      <path fill="#5e5f60" d="M155.99 362.836l18.48-27.22-49.533 2.02 29.438 17.936"/>
      <path fill="#828383" d="M564.384 12.42l42.084 2.27-8.226 47.4-36.64-9.706"/>
      <path fill="#0d1211" d="M597.404 543.19l7.476-318.39.313 186.252 10.36 133.93"/>
      <path fill="#3a3b3b" d="M434.505 692.213l.105-11.426-73.17 1.668-10.792 22.033"/>
      <path fill="#9a8a00" d="M927.156 94.82l-38.314-75.987L928.12 59.18l-31.853 47"/>
      <path fill="#d44656" d="M619.385 127.757l8.82-9.26 6.242 40.542-11.685 11.637"/>
      <path fill="#979798" d="M956.635 623.94l-14.553-35.413-12.45 55.44 81.69-17.325"/>
      <path fill="#fff" d="M1055 150.263l-163.086-26.247 43.624 25.827 80.374 529.183"/>
      <path fill="#ebebec" d="M381.34 398.848l-69.833 15.304 116.85 37.543-14.295-105.72"/>
      <path fill="#0a0d0c" d="M665.295 676.534l-.83 56.313 14.135-.4.213-47.878"/>
      <path fill="#787878" d="M726.73 589.71l4.515.637-8.63 98.644-1.976-93.073"/>
      <path fill="#00b552" d="M861.786 702.93l-1.89-131.66-.853 15.65-3.26 36.144"/>
      <path fill="#aaaaab" d="M51.45 226.618l2.78-85.32L32.936 350.87l-4.39-120.718"/>
      <path fill="#a3a3a4" d="M346.934 330.78l133.59 106.554 23.51-11.07-74.758-51.703"/>
      <path fill="#fff" d="M901.415 119.483L984.235 1.19 1055-13.688 902.8 139.406"/>
      <path fill="#bbb" d="M178.037 570.735L576.88 546.27l39.362 7.274-44.773 19.567"/>
      <path fill="#767871" d="M887.082 202.832l14.102-5.7-.718 143.23-11.442-115.506"/>
      <path fill="#f4db42" d="M991.712 557.917l-8.826-16.293-136.754 7.74 131.647 2.38"/>
      <path fill="#fff" d="M910.086 72.99l-22.018 60.745-28.776-73.856 27.768-22.657"/>
      <path fill="#fefeff" d="M217.238 465.47l90.72-77.373-61.155-10.963-79.495-133.162"/>
      <path fill="#c7c8c8" d="M298.754 175.915l6.325 148.4-63.268-15.894 9.036 230.174"/>
      <path fill="#737474" d="M387.9 157.222l-114.688 1.688 41.764 82.906-42.19-122.29"/>
      <path fill="#b16574" d="M631.447 407.74l-28.308 1.436 40.24 56.54-34.043 5.132"/>
      <path fill="#fff" d="M878.828 555.52l9.544-166.548 1.578-193.79-16.603 87.024"/>
      <path fill="#959595" d="M238.58 675.547l-56.744 1.9 188.973 4.403-265.76 2.207"/>
      <path fill="#8c873e" d="M900.076 426.89l25.326-41.18-41.91 50.238 12.328 44.567"/>
      <path fill="#fff" d="M213.38-31l39.776 144.308-144.436-.898 66.962-38.035"/>
      <path fill="#fff" d="M132.67-31L96.103 428.62l38.555 32.248-.584-84.24"/>
      <path fill="#89898a" d="M312.81 656.99l-5.79 7.06-3.35 89.045-13.44-30.933"/>
      <path fill="#8a8a8a" d="M254.003 585.095l-2.403-90.583 4.535-128.97 1.867 146.557"/>
      <path fill="#fefeff" d="M380.18 487.326l203.082 13.55-157.286 53.202 179.31 4.76"/>
      <path fill="#fff" d="M860.857 395.748l-15.715-236.353 26.472-23.845L613.37 99.782"/>
      <path fill="silver" d="M48.762 266.276l-.37-239.604 64.248-16.56-15.825 104.093"/>
      <path fill="#fff" d="M76.48 573.89l183.262-1.473L1.035 757.153-31 407.745"/>
      <path fill="#fffffd" d="M897.356 350.132l54.565 52.184-95-4.49 48.198 29.56"/>
      <path fill="#7c7c7d" d="M168.862 406.086l-41.146 4.278 37 29.955 3.416 59.307"/>
      <path fill="#999392" d="M839.237 158.564l-31.42-55.73 5.205 33.77.02 16.1"/>
      <path fill="#6c6d6d" d="M368.916 728.98l109.64 21.405-129.022-1.256 6.528-68.622"/>
      <path fill="#757575" d="M489.914 186.918l-20.28-4.808-7.39-27.276 51.975 3.098"/>
      <path fill="#fff" d="M550.734 336.237l-100.45-7.976L481.822 175.3l73.072 61.708"/>
      <path fill="#3c3e3e" d="M300.36 118.03l1.736-38.504 59.75-7.485 20.945 48.954"/>
      <path fill="#6f729d" d="M626.104 506.2l-18.217 7.242 74.888.54 24.765-6.064"/>
      <path fill="#c7c8c8" d="M330.338 122.43L323.976-12.3l.018 417.774 4.77-231.057"/>
      <path fill="#8d8d8d" d="M601.3 393.564l-1.426-46.79-58.915 61.783-6.767 38.765"/>
      <path fill="#717376" d="M874.537 300.604l.3-110.93-7.904 19.25-5.03 51.646"/>
      <path fill="#fff" d="M818.86 88.86l32.964 38.012L823.757-31 617.454 54.838"/>
      <path fill="#8e8e8f" d="M347.89 748.19l-72.53 1.876-186.21-.297 270.986-4.358"/>
      <path fill="#fff" d="M1055 625.697l-156.174-320.45 9.736-86.306 115.71-11.43M854.14 745.74l7.643-17.732L969.766 627.51 1055 744.788M367.348 230.902l-32.047-9.4 44.322-1.6.345 8.323"/>
      <path fill="#66696c" d="M866.244 558.108l-.977 84.14 2.746 31.184 2.317-119.685"/>
      <path fill="#5a5b5a" d="M393.414 436.92l.11 29.493-14.405-12.574-80.64-4.003"/>
      <path fill="#a2a580" d="M962.457 489.79l-30.247 22.483 5.228-39.914 41.154 4.455"/>
      <path fill="#fff" d="M533.146 81.51L522.436-31 458.9 123.76l140.237-33.993"/>
      <path fill="#aeafb7" d="M791.334 439.386l-24.477 42.044 3.165 10.11 32.647 30.92"/>
      <path fill="#212323" d="M274.53 354.746l17.447-19.59 22.847 61.78-1.114-42.447"/>
      <path fill="#2a2b2b" d="M590.087 398.112L564.38 500.43l1.637-114.5 10.725 129.544"/>
      <path fill="#707670" d="M902.006 152.72l-11.296-3.926 1.624-45.404 12.072-8.016"/>
      <path fill="#ebebeb" d="M386.685 455.357l-75.55-6.284-14.5 48.6.36-26.264"/>
      <path fill="#454646" d="M380.144 189.444l-1.323 27.733-136.218 2.05 8.556 2.028"/>
      <path fill="#8e67ae" d="M995.577 111.65l-42.422-12.526 14.702-8.505 23.614-3.712"/>
      <path fill="#e0e0e0" d="M512.908 187.68l-175.504-31.36-94.817 20.938 74.423-2.54"/>
      <path fill="#575858" d="M135.53 159.282l-3.675 28.94 44.827-9.202-34.844-4.225"/>
      <path fill="#fff" d="M785.47 544.022l55.916-72.926 184.727 77.242-93.624-2.508"/>
      <path fill="#a46908" d="M850.478 89.973l-8.282-33.787 57.327-25.047-31.377.588"/>
      <path fill="#252727" d="M338.078 232.384l23.135 54.6 31.584-15.376-117.114-44.122"/>
      <path d="M607.5 28.234l-2.675 197.444-5.585-205.15 1.507-10.694"/>
      <path fill="#590000" d="M873.55 390.165l-33.3 23.156 15.39 2.09 11.005-30.3"/>
      <path fill="#fff" d="M877.154 789.495l-197.315-2.943 4.892-184.98 82.22 125.362"/>
      <path fill="#6d6d6d" d="M411.18 180.26l30.217 10.926-14.788 38.574 49.382-1.175"/>
      <path fill="#d73c3f" d="M633.305 359.23l-31.485-17.375 12.522 9.258 9.683-19.718"/>
      <path fill="#a4a4a5" d="M119.717 710.134l3.674-40.47-2.676-14.385 23.736-2.355"/>
      <path fill="#44009b" d="M920.243 128.12l-.685-7.978 19.926-1.358-8.597 13.946"/>
      <path fill="#000302" d="M309.466 36.617l7.528-.826L322 143.58l1.096-135.932"/>
      <path fill="#b6b6b7" d="M114.998 141.185l38.993-40.318 67.203 29.412-15.588 44.575"/>
      <path fill="#fff" d="M-31 585.906l449.35 6.57-81.294 113.197-11.67-58.042M212.616 465.892l-50.012 82.434 85.23.46-19.93-570.26"/>
      <path fill="#cbab00" d="M912.48 422.42l-13.566-5.453-11.688-51.588 34.927 45.196"/>
      <path fill="#eff0ef" d="M309.46 120.51l-4.977 16.054 38.824 9.135 43.455-21.812"/>
      <path fill="#c8c7c8" d="M525.77 30.864L567.9 185.9l-5.676-64.345-10.453 76.642"/>
      <path fill="#727374" d="M449.33 371.527l19.144-1.98-35.618-27.76-8.995 10.762"/>
      <path fill="#181a1a" d="M365.464 519.752l12.53 35.313 2.366-87.937-9.442 7.124"/>
      <path fill="#aaacb1" d="M806.068 362.672l22.64-17.157 92.488 19.334 28.65-20.07"/>
      <path fill="#abacab" d="M333.28 538.17l-11.096-89.14 1.994 106.273 14.83-79.635"/>
      <path fill="#fff" d="M966.46-24.616L543.19-31l211.104 135.72 62.356-41.76"/>
      <path fill="#907f00" d="M924.887 82.215l-17.546-54.22 7.638 84.165 4.097-21.88"/>
      <path fill="#bababb" d="M301.537 399.283l-2.818 102.905-12.29 120.506 13.38-305.316"/>
      <path fill="#a4a4a4" d="M589.96 188.876l-20.19-.76.588-37.5 20.12 105.82"/>
      <path fill="#fdfdfe" d="M555.903 354.866l-85.7-14.168 9.41 69.676 75.922-3.435"/>
      <path fill="#fff" d="M867.31 196.37l96.447-17.68-9.1 23.237-77.335-62.265"/>
      <path fill="#c7c7c8" d="M141.906 545.813L58.13 569.138l127.045 5.728-35.807-126.575"/>
      <path fill="#fff" d="M950.523 490.19l-4.952-80.868-40.55-191.912L1055 396.48"/>
      <path fill="#b9b9b9" d="M450.555 16.97l-14.435-4.696-3.368 211.373 17.13-81.67"/>
      <path fill="#fff" d="M862.36 461.64l-263.085-18.22 288.356-28.153-28.05-24.16"/>
      <path fill="#747672" d="M725.9 543.118l37.784 13.543 128.822-5.045-100.28-3.547"/>
      <path fill="#4c4d4d" d="M286.262 381.87l-27.996-9.097 130.48-8.694 4.655-14.664"/>
      <path fill="#414644" d="M615.326 511.32l-75.67 4.924 62.294 23.73 7.858-190.104"/>
      <path fill="#aeaeaf" d="M762.524 617.623l-21.23 10.728 32.743 14.58-2.862 50.2"/>
      <path fill="#fff" d="M610.443 13.638l-178.5-1.572-110.31 1.058L258.93-31"/>
      <path fill="#fff" d="M421.6 181.705l-2.685-62.737L416.993-31l-27.99 93.856"/>
      <path fill="#a3a104" d="M893.804 208.973l24.493 5.69 17.492-24.056-1.196-1.286"/>
      <path d="M590.82 437.82l2.857 61.09 1.67-57.77-2.83-116.26"/>
      <path fill="#fff" d="M48.215 109.678l-.976 130.71L-31 105.63 47.762-31"/>
      <path fill="#fbfbfb" d="M269.306 167.326l-14.325 181.02 47.024-29.436-8.82-35.994"/>
      <path fill="#161817" d="M576.294 135.332l-.02-122.703 6.24 132.556-4.838 115.317"/>
      <path fill="#fff" d="M868.988 640.236l4.928-82.442 72.41.217-33.968 150.046M905.908 110.535L1055 51.715 910.272 29.418l40.746 95.957M824.575 124.913l43.808-31.665-4.313 65.66L808.452-31"/>
      <path fill="#acacac" d="M588.2 649.498l31.24 8.147-15.698 19.085 9.4 20.034"/>
      <path fill="#f9f9f9" d="M451.617 309.032l6.523-135.943-6.272-146.353-1.727 180.847"/>
      <path fill="#0e1111" d="M378.895 78.383l-21.275 3.22 21.14 47.154-.003 4.286"/>
      <path fill="#00a646" d="M857.127 553.978l9.437-12.63-4.933-1.208-3.4 86.12"/>
      <path fill="#cfd0d0" d="M347.44 560.376l-.226-185.748-5.333 172.12 58.187 127.485"/>
      <path fill="#fcfcfd" d="M524.624 419.056l35.384 41.424-89.295-1.06-41.74 189.166"/>
      <path fill="#8d8e8e" d="M462.492 452.64l21.076-.43 4.737 9.196-44.982 2.387"/>
      <path fill="#fff" d="M380.228 747.73l.526-41.994-7.08-63.304 4.434 99.58M850.59 166.018L806.17 444.41 615.743 329.48l26.47-257.326"/>
      <path fill="#777778" d="M522.244 679.89l163.388 7.22-24.812-6.677-68.445-1.16"/>
      <path fill="#b1b1b2" d="M980.565 594.792l-4.768 5.254 1.24 6.093-105.667-3.822"/>
      <path fill="#676e4c" d="M873.655 421.097l-5.178 55.126-6.696-56.057 3.187 1.768"/>
      <path fill="#505151" d="M685.484 747.095l-82.553 2.268 21.745.847-113.252-2.265"/>
      <path fill="#fff" d="M837.53 420.993l-229.438-82.795 254.144 61.568-1.423-166.632M81.194 659.272l-91.52-381.94-8.622 421.812 93.375 42.963M704.3 748.974l341.594 15.093L-31 771.794l415.042-18.702"/>
      <path fill="#060808" d="M366.687 81.798l14.11-64.158-15.558 3.31 7.938 93.233"/>
      <path fill="#565757" d="M285.126 158.617l99.175-17.905 11.978-19.035-5.318 32.452"/>
      <path fill="#9b9b9b" d="M270.105 590.288l-31.33-8.883 41.624-.244 181.098.613"/>
      <path fill="#777778" d="M414.117 737.355l.324-70.687 16.274-2.61-24.3-12.87"/>
      <path fill="#88b9a1" d="M893.596 658.415l-3.902 55.792-11.74-4.723-.87-29.09"/>
      <path fill="#858585" d="M222.283 654.978l-10.25-1.657 12.02 24.574 7.877-23.655"/>
      <path fill="#a4a5a5" d="M341.882 303.135l-73.297-17.083 81.336 12.636-4.757-163.057"/>
      <path fill="#fff" d="M450.154 705.907l131.53-136-211.29 26.396 70.174 83.986"/>
      <path fill="#7f7f7f" d="M819.428 739.08l-5.155 9.115-3.522 6.695 36.39-3.815"/>
      <path fill="#232524" d="M389.54 248.265l-14.654 33.23-74.877-25.706.996 30.276"/>
      <path fill="#845500" d="M926.43 473.317l-2.86-9.89-5.2-3.9-7.446 23.032"/>
      <path fill="#00a9dd" d="M872.522 124.906l-40.15 4.668-2.25-4.095 13.432-5.5"/>
      <path fill="#79797a" d="M913.52 24.24l23.955 2.666 2.144-9.954-6.565-6.05"/>
      <path fill="#fff" d="M621.19 517.932l.436 161.55 72.885.642 57.774-171.982"/>
      <path fill="#a8a9a9" d="M589.67 149.875l-16.76 174.173-35.844-190.725 54.816 206.43"/>
      <path fill="#b0b4b2" d="M971.148 709.002l-86.907-4.018-47.423 6.798 151.423.054"/>
      <path fill="#9a9a9b" d="M252.897 197.65l5.642 127.696-7.23 46.582.02-41.09"/>
      <path fill="#f9f9f9" d="M306.31 546.586l18.06 3.572-94.96 6.185 124.696.857"/>
      <path fill="#828283" d="M218.136 454.783l-6.864 15.87-12.073-.9-75.573-11.563"/>
      <path fill="#8d8e8e" d="M944.956 199.685l25.143 17.267-3.87-23.41 1.067 3.213"/>
      <path fill="#fff" d="M897.01 415.045l42.69 20.118-127.855 111.88 115.073-4.993M419.754 565.59l-.826-7.1-26.508-24.42 22.547-134.935"/>
      <path fill="#747aa0" d="M597.722 299.71l7 5.735 45.486 6.44-25.675 8.32"/>
      <path fill="#aeaeae" d="M445.63 140.062l67.453-.157 4.9 58.84 3.202-77.577"/>
      <path fill="#878887" d="M598.526 528.332l2.734-53.974-63.79 16.73 52.5 14.218"/>
      <path fill="#828383" d="M243.714 120.182l.066 90.314 9.49-111.754 5.606 27.394"/>
      <path fill="#515353" d="M305.114 492.073l32.648-11.237-69.61-26.38 28.237-2.177"/>
      <path fill="#949495" d="M175.333 74.62l-29.408 8.975-4.422-31.635 7.512 10.45"/>
      <path fill="#666" d="M564.965 106.307L545.06 126l-3.353 9.472-3.808-20"/>
      <path fill="#aeaeae" d="M320.997 328.793l22.715-1.42 18.482 24.217-37.613 3.52"/>
      <path fill="#acabac" d="M51.12 465.15l-2.406 82.496 17.44 4.12 1.456-64.973"/>
      <path fill="#ec1115" d="M624.478 222.14l10.83 4.85-15.307.735-5.082-6.812"/>
      <path fill="#fbfcfc" d="M121.49 143.247l114.195 11.833-135.193 1.652 44.263 175.586"/>
      <path d="M680.875 718.3l-4.896-33.936-.952 58.36 3.282 9.936"/>
      <path fill="#f1f1f1" d="M405.71 265.633l19.533 4.22-51.534-29.14 81.54-14.143"/>
      <path fill="#908f90" d="M326.977 654.72l3.887 1.584-24.183-2.552 4.55 25.157"/>
      <path fill="#5dd4fb" d="M827.57 107.03l-49.92.22-13.257-9.012 12.904-9.04"/>
      <path fill="#8f860a" d="M933.417 196.175l-15.465-52.392 24.43 30.103-18.562 25.236"/>
      <path fill="#828383" d="M372.83 686.85l112.61-3.657 47.296-2.58-62.534-2.583"/>
      <path fill="#ff4140" d="M630.49 426.322l-2.222-15.47-3.39-7.312-8.99 22.985"/>
      <path fill="#a0a1a1" d="M757.253 712.512l-15.265-15.218 27.26 9.97 98.316 2.63"/>
      <path fill="#0e1614" d="M608.95 387.335l-7.966-55.863 14.167 106.456-2.73-208.27"/>
      <path fill="#929292" d="M729.408 584.42l-9.49 5.858 5.294 55.323 4.695 16.33"/>
      <path fill="#cccdcc" d="M364.842 451.24l.093-148.118-4.327 206.882 3.794 56.017"/>
      <path fill="#fefefe" d="M554.9 188.696l-33.537 173.83-58.41-194.503-97.907 12.777"/>
      <path fill="#b5b5b5" d="M407.862 366.298l-37-49.593 28.792-20.636-24.834 119.086"/>
      <path fill="#c3c3c3" d="M355.065 504.615l2.332-121.544 16.336 27.147-30.308-50.254"/>
      <path fill="#a4a3a3" d="M573.497 54.533l17.563 7.1-5.827-50.744-45.396 72.482"/>
      <path fill="#040606" d="M323.664 264.91l-2.724-95.473-11.828 90.24 2.058-89.688"/>
      <path fill="#434657" d="M597.764 387.565l50.947 4.1-87.55 18.63 30.07 11.765"/>
      <path fill="#a5a51e" d="M788.924 489.17l-6.873.474 57.473-4.717-10.874-19.913"/>
      <path fill="#fff" d="M1055 226.4L898.42 360.48l6.44-144.45-69.616-9.465"/>
      <path fill="#898989" d="M333.125 738.51l1.133-19.16-3.13-20.77 42.243-1.32"/>
      <path fill="#cfd0cf" d="M343.802 92.93l.027-56.716 4.868 24.898-3.604 84.494"/>
      <path fill="#7f7f7f" d="M149.764 95.75l-6.64 7.29 28.123 11.72-13.17 33.788"/>
      <path fill="#fff" d="M805.1 430.364l61.96 82.198-45.608-76.116 132.864 4.34"/>
      <path fill="#77824b" d="M854.545 172.147l27.117-51.326L847 87.15l33.43 19.1"/>
      <path fill="#272828" d="M309.026 407.754L312.223 520l2.534-79.467-.075-12.93"/>
      <path fill="#343535" d="M378.622 354.46l-62 1.9 41.6 3.184 20.305 44.523"/>
      <path fill="#b50107" d="M838.997 398.753l.415 21.57 17.91-4.315-1.25-16.305"/>
      <path fill="#dedede" d="M121.73 524.542l-43.436 42.766-4.912-31.01-3.65-205.99"/>
      <path fill="#b7b6b6" d="M28.203 361.837l41.803-98.074.272 136.092-38.966-121.102"/>
      <path fill="#171919" d="M316.884 357.227l.863-166.222 4.212-65.17 1.067 155.762"/>
      <path fill="#181a16" d="M586.198 79.31l-32.26-17.924 44.57-2.476-5.43 30.007"/>
      <path fill="#afb0b0" d="M370.408 136.53l30.918-93.543-23.707-29.663 5.052 144.013"/>
      <path fill="#ad1313" d="M621.52 140.957l10.436-17.832-57.016 1.175 43.915-.446"/>
      <path fill="#3c3f3f" d="M588.598 339.524l-7.662-9.66-.864-136.54-6.094 195.783"/>
      <path fill="#fffefd" d="M615.372 424.622l-.638 91.237 4.74-64.833 188.185 32.776"/>
      <path fill="#feffff" d="M794.048 464.035l14.48 49.55-4.05-42.71 127.812-45.48"/>
      <path fill="#fff" d="M688.214 336.62l171.61 11.474 6.308-149.814 81.205-80.412"/>
      <path fill="#cbcbcb" d="M442.908 334.705l9.507 233.764 141.79-20.223-170.228.706"/>
      <path fill="#a6a6a6" d="M587.208 439.726l-26.974-5.94-121.568-46.358-26.044 15.344"/>
      <path fill="#fff" d="M139.228 77.903L125.605 57.43l-56.208 8.135 7.558 9.702M218.27 424.16l35.64-110.885-28.583-170.29L165.01 396.73"/>
      <path fill="#b5b7b6" d="M572.47 330.997l-8.973 98.79-13.388-81.704 26.894 69.776"/>
      <path fill="#fdfdfd" d="M601.882 85.373L467.015 90.45l-8.147 23.61 111.55-19.427"/>
    </g>
    <g class="UTIL__svg-thumb__high-res">
      <path fill="#a9a9aa" d="M500.21 650.505l17.53 8.63-13.52 13.392-8.937-16.13"/>
      <path fill="#acafad" d="M598.57 281.15l-1.483-102.51 1.666-155.727 2.258 41.752"/>
      <path fill="#c5c5c6" d="M417.42 342.578l2.87-84.76 31.27-35.277-.918 108.096"/>
      <path fill="#bfc1c0" d="M365.724 68.076l-3.538 11.43-1.09 3.444 3.255 64.553"/>
      <path fill="#313131" d="M304.35 477.52l-2.116-61.843-.832-90.478 5.042-19.094"/>
      <path fill="#8ba295" d="M966.69 623.465l46.762 6.14-76.623 1.12-48.846-3"/>
      <path fill="#fff" d="M896.525 42.97l-45.08 43.466 50.997 15.34 3.965-21.314"/>
      <path fill="#fdfefe" d="M670.53 788.027l2.336-204.628 127.446 204.94-122.91-139.14"/>
      <path fill="#cacbca" d="M175.987 195.942l146.618 232.13 4.668-159.752 1.03 170.22"/>
      <path fill="#e7e7e8" d="M353.564 451.905l101.508 26.354 3.234-1.873-165.15-13"/>
      <path fill="#fff" d="M1052.04-31L914.78 553.603 996.982 92.2 904.09-31"/>
      <path fill="#070b0a" d="M368.1 198.37l1.943 14.297 24.132.155-2.41 14.86"/>
      <path fill="#fff" d="M86.924 745.644L-31 744.77 40.687 799l240.106-41.963M178.557 172.614l-.566 160.76 39.154-93.69 48.518-37.258"/>
      <path fill="#fefefe" d="M564.612 530.487l-116.05-46.168 4.167 63.09 113.125.672"/>
      <path fill="#d0d1d1" d="M355.924 73.253l-.415 84.673-5.18-92.606 138.01 26.615"/>
      <path fill="#fff" d="M613.964 147.04L864.01-26.06 709.135 174.126l149.7-42.37"/>
      <path fill="#7b7b7b" d="M499.26 746.77l-138.255 1.243 177.286 2.563 39.973-2.462"/>
      <path fill="#a0a1a0" d="M343.73 310.658l2.514 51.725 8.947-99.743.9 105.612"/>
      <path fill="#9fa0a0" d="M24.835 743.156l151.524 4.075-59.418 3.838-18.774-16.52"/>
      <path fill="#fff" d="M879.196 422.788l7.802-161.79-.427 145.92 98.182-68.546"/>
      <path fill="#0f1211" d="M323.422 541.003l-7.887-11.764 1.353-3.094 3.856-100.18"/>
      <path fill="#708ab7" d="M644.18 160.887l4.32-1.04-45.015-8.41 40.48-4.202"/>
      <path fill="#fff" d="M275.15 571.742l104.952 3.825-203.342 8.057 136.576-15.777M766.425 666.718L739.72 196.48l-120.4 248.93L769.1 544.757"/>
      <path fill="#d0d0d0" d="M352.43 398.69l1.105 155.434-27.675 122.62 31.877-137.797"/>
      <path fill="#696a6a" d="M157.712 343.247l31.885-.064-49.35-9.065-17.976 10.25"/>
      <path fill="#fff" d="M793.895 559.203L883.86 764.35l-7.862-77.905-105.456 10.116"/>
      <path fill="#c1c1c2" d="M767.138 693.005l1.275-109.294 7.66 162.386-11.11-15.874"/>
      <path fill="#c0b600" d="M950.625 476.473l-7.546-6.76-21.707 2.39 16.194 16.768"/>
      <path fill="#fff" d="M1055 106.608l-110.436 1.002 84.022 69.676-113.75-34.552"/>
      <path fill="#967f00" d="M863.497 194.605l-13-42.02 12.397-.72-13.62 38.293"/>
      <path fill="#f5f5f5" d="M458.326 156.688l32.24-19.187 3.664 6.603 65.574 14.793"/>
      <path fill="#aeafae" d="M600.945 412.48l-3.134-134.426-1.87 49.232-.007 307.965"/>
      <path fill="#fbfbfb" d="M396.7 296.202l19.998-85.896 4.845 143.83-26.135 68.782"/>
      <path fill="#fff" d="M614.685 13.834l5.21 52.952 124.89 2.534L942.728 4.172M633.854 760.603l-1.625-174.316-113.973-14.756 121.345 114.42"/>
      <path fill="#bcbebd" d="M575.35 522.01l-1.636-107.47-3.002-78.89 2.1 167.974"/>
      <path fill="#101210" d="M589.643 438.913l-7.808-23.126-4.795 97.483-.008-122.136"/>
      <path fill="#494a4a" d="M446.726 230.266l-18.048-2.842 2.617-42.233-2.58-.085"/>
      <path fill="#909296" d="M802.77 512.922l-39.26-41.455 9.59 20.482 35.268 32"/>
      <path fill="#fff" d="M460.865 749.42l-323.407 2.65L-19.954 799l838.06-46.397"/>
      <path fill="#7e7e7e" d="M239.93 345.81l44.603-.33 41.46-54.77-62.675 67.613"/>
      <path fill="#676868" d="M586.94 547.565l-22.36-42.904 1.098 46.513 56.932-1.52"/>
      <path fill="#fffffc" d="M774.336 509.463L955.92 485.55l-23.337 16.69-56.528-36.244"/>
      <path fill="#fff" d="M222.894 587.514l129.324 91.29 52.56 1.8 4.346-86.13"/>
      <path fill="#f2f2f3" d="M149.368 486.296l.32-192.415 12.224 158.183.973-104.094"/>
      <path fill="#202121" d="M349.925 302.49l33.134 8.46-9.84-62.305-13.75 95.304"/>
      <path fill="#040807" d="M601.383 146.232l-1.14 103.76 2.242 30.74 5.11-54.632"/>
      <path fill="#bbb" d="M366.928 176.96l-1.556 48.318-8.235-61.523 128.008 51.266"/>
      <path fill="#1f2121" d="M362.787 29.276l-4.16 76.81-2.864-71.507-27.328 24.833"/>
      <path fill="#fff" d="M459.71 553.985l260.634-4.156 119.415 64.627-245.814-57.548"/>
      <path fill="#fbffff" d="M840.477 131.905l68.538 44-74.49-38.017 170.812-1.263"/>
      <path fill="#767676" d="M425.293 682.438l42.015 47.8-1.534-36.194-36.965 15.746"/>
      <path fill="#a5a6a5" d="M335.71 218.843l-1.42 109.48 2.23 90.088 2.564-145.553"/>
      <path fill="#2d2e2e" d="M333.432 404.88l-2.465-102.33-1.415 143.628 1.482 6.154"/>
      <path fill="#483332" d="M637.613 454.866l-124.16 8.458 23.352 8.4 57.5-20.074"/>
      <path fill="#fff" d="M301.968 685.786l-64.41 2.92-32.588 53.283 79.576 5.855"/>
      <path fill="#313232" d="M351.588 302.99l-.16-130.04-3.77 73.58 1.798 143.945"/>
      <path fill="#6a6d52" d="M862.69 470.38l12.362 5.68-14.7-32.4 10.08-15.42"/>
      <path fill="#f7f7f7" d="M595.57 496.756l-8.12 8.708-187.343-2.202 95.024-4.426"/>
      <path fill="#05b055" d="M859.637 568.474l-.31 78.712-4.25 20.535 5.38 25.967"/>
      <path fill="#7e8a1d" d="M898.953 371.95l.198 30.738-12.99-11.31 3.34-23.77"/>
      <path d="M311.32 74.336l.15-39.21 3.61 84.866-6.81 3.017"/>
      <path fill="#4a4c4b" d="M375.216 748.558l-1.752-16.05-11.63-2.522-17.65 21.068"/>
      <path fill="#585858" d="M481.048 155.254l6.686 19.196-22.448-19.79 2.81 37.058"/>
      <path fill="#fffffe" d="M922.145 198.103l-55.325-9.554-3.057-38.893 55.397 4.07"/>
      <path fill="#bbbbbc" d="M443.75 343.11l91.19 3.755-68.262-16.796 6.328 107.2"/>
      <path fill="#101212" d="M338.904 144.267l5.998 126.216-32.034 2.17 27.777-16.544"/>
      <path fill="#fff" d="M272.004 283.607l5.976 114.65-66.61-2.7 58.34-15.367"/>
      <path fill="#fcfcfd" d="M548.085 156.685l-27.593-2.082L553.17 3.743 449.462 33.454"/>
      <path fill="#5e5f5f" d="M316.707 679.642l90.91 1.856 28.98 1.45-1.64 18.468"/>
      <path fill="#8e8e92" d="M770.324 675l-1.59-30.012 1.618-108.233 1.28 82.114"/>
      <path fill="#94889d" d="M937.176 637.82l13.978-1.788 10.765 9.14-61.49-4.503"/>
      <path fill="#2c2d2d" d="M360.842 540.632l-4.62-69.414 7.148-115.865-4.687 2.19"/>
      <path fill="#bab9b9" d="M227.79 573.657l75.66-16.906-139.112.522-104.824 12.94"/>
      <path fill="#fff" d="M859.5 166.913l-121.126 27.36L616.65 401.788l-1.506-39.882"/>
      <path fill="#6c6d6d" d="M285.508 117.245l-2.488 93.163 11.435-132.434 2.11 115.506"/>
      <path fill="#fff" d="M647.87 508.212l119.748-31.25 31.748 29.57-158.055-269.99M224.296 120.145l-45.972.81L176.826-24.4l77.314 65.374"/>
      <path fill="#222424" d="M343.03 339.09l-2.848-153.46-3.815 134.625 5.324 90.367"/>
      <path fill="#2f2f2f" d="M591.766 72.643l-.99-59.2 22.758 1.833-19.69 5.83"/>
      <path fill="#a29f21" d="M917.765 39.668l-32.296-1.18 44.71 43.34-25.078 19.044"/>
      <path fill="#1fbd69" d="M850.92 682.27l40.744 4.42-18.367-5.994-13.797 1.62"/>
      <path fill="#e0e0e1" d="M304.007 351.176l48.464 2.932 190.2-23.045-169.99 6.13"/>
      <path fill="#f8f8f8" d="M458.687 750.25l-111.102 14.863 1.05-128.535 4.72 119.943"/>
      <path fill="#030505" d="M597.346 147.945l-14.307-34.557-17.62 34.333 1.863-15.21"/>
      <path fill="#d2d2d2" d="M301.68 166.543l-2.347-122.4-2.222 150.396 1.864 125.848"/>
      <path fill="#6e5d58" d="M822.397 120.1l3.713 1.39-4.725 11.007-14.6 1.85"/>
      <path fill="#737373" d="M256.62 210.618l.626-55.935-2.393-166.888-2.258 198.486"/>
      <path fill="#a4a5a5" d="M93.535 560.207l5.14-60.11-2.298-74.98-3.3 10.698"/>
      <path fill="#fff" d="M835.58 342.322l77.125 7.486-33.813-12.402 5 4.546"/>
      <path fill="#aa8e1f" d="M862.73 95.582l-26.38-17.48L876 40.572 853.4 61.11"/>
      <path fill="#bf0709" d="M626.364 157.85l-20.347 7.755 6.102-3.805 13.073 3.502"/>
      <path fill="#b4b4b4" d="M999.59 718.2l-21.824 4.377.49.077 24.48 15.726"/>
      <path fill="#fcfcfc" d="M316.633 136.97l25.317-15.48 41.008 6.583-6.252 12.467"/>
      <path fill="#fff" d="M53.624 713.222l176.942-140.146-149.34 7.213-8.41 175.38"/>
      <path fill="#bababa" d="M51.51 30.978l-2.326 86.09L73.09 239.632 71.14 3.32"/>
      <path fill="#fff" d="M872.124 72.22L720.71 189.64l16.176-68.403 112.432-20.543"/>
      <path fill="#e5e6e5" d="M390.87 776.35l-3.783-74.384-13.92 70.872 5.798-94.625"/>
      <path fill="#a3a3a3" d="M245.472 173.906l-56.11-15.11-36.47-1.607 6.83 17.414"/>
      <path fill="#595b5a" d="M292.138 13.306l78.65.388-64.944 7.666-15.57 3.26"/>
      <path fill="#fff" d="M987.35 743.232l-162.094 31.96L1030.55 799 1055 645.64"/>
      <path fill="#fff" d="M1055 672.668l-129.074 38.035-53.775-68.578 80.246 7.24"/>
      <path fill="#eee" d="M419.316 255.228l-23.83-150.747.95 196.242 14.52-255.913"/>
      <path fill="#6a6e41" d="M873.355 103.916l-6.806 51.903 1.575-48.42-25.82-38.022"/>
      <path fill="#e0e0e0" d="M72.096 486.03l47.182-100.46-45.61-372.404-3.594 305.507"/>
      <path fill="#b1b1b0" d="M588.795 526.542l2.98 63.39-7.38-34.9 6.227-205.49"/>
      <path fill="#9d9d9d" d="M353.708 285.342l5.002-62.278-7.815-18.374 1.916 19.825"/>
      <path fill="#ecedec" d="M352.462 468.89l-5.153-4.544-46.817-10.5 79.222-1.79"/>
      <path fill="#404242" d="M546.903 496.6l39.662-1.377 27.3-6.807-57.29-.412"/>
      <path fill="#f0f0f0" d="M393.854 410.99l170.86 52.882-179.94-31.298-71.658-25.98"/>
      <path fill="#2c2b2c" d="M302.588-15.545l4.508 197.715-5.488 1.252 2.223 51.268"/>
      <path fill="#131616" d="M563.884 457.836l28.795-9.512 1.856 63.305-6.907-49.93"/>
      <path fill="#686767" d="M412.59 228.268l.68-9.96 1.514-5.1-24.362-3.11"/>
      <path fill="#989999" d="M362.074 413.686l-1.09-55.126 2.282-132.204 4.546 104.988"/>
      <path fill="#fff" d="M646.068 571.03l-210.824 6.788-98.82 79.262 282.908-4.434"/>
      <path fill="#a3a3a3" d="M31.307 250.972l5.36-45.194 2.84 35.958L35.656 357"/>
      <path fill="#fff" d="M869.303 603.736l140.446-16.88 23.31-30.83-161.972 3.38"/>
      <path fill="#a89c27" d="M855.517 68.072l2.142-22.854-5.37-5.643 32.323-14.894"/>
      <path fill="#151818" d="M361.944 307.165l22.174 25.87-17.38 2.96-9.815-108.117"/>
      <path d="M368.284 299.78l-.642-74.994 11.57 67.7-1.998-41.674"/>
      <path fill="#959696" d="M429.01 586.19l15.912-1.573-59.736-4.197.45 8.852"/>
      <path fill="#000101" d="M341.034 16.128l-2.238 7.71.686 94.306 4.1-58.485"/>
      <path fill="#020605" d="M329.682 112.628l3.228-50.004.578-24.277-3.784 7.446"/>
      <path fill="#929292" d="M376.898 89.808l11.846 86.53L404 116.982l4.983 32.656"/>
      <path fill="#1a1b1b" d="M367.573 521.094l1.525-56.802-11.44 76.04-.014-77.51"/>
      <path fill="#cecece" d="M337.964 117.76l-4.667 98.226 1.603-83.146.615-78.375"/>
      <path fill="#fdfffc" d="M861.488 97.8l52.13-11.756-60.374-20.554 71.12 3.732"/>
      <path fill="#b3b3b3" d="M572.76 164.61l-8.776-25.37-32.104 45.427 44.428-40.21"/>
      <path fill="#b2b1b3" d="M528.98 697.132l1.034 47.374-10.003-30.93-59.028-15.745"/>
      <path fill="#fff" d="M-31 375.113L50.165 476.53l-30.35-205.57 26.96-.442"/>
      <path fill="#3e4040" d="M323.21 238.736l-51.985-3.178 11.735-3.45 18.092-2.905"/>
      <path fill="#808591" d="M886.532 375.473l7.69-111.452-5.45 7.6 9.77 99.19"/>
      <path fill="#fff" d="M822.95 357.882l-205.97-169.6L801.166 434.35l66.148-53.362"/>
      <path fill="#d4d3d3" d="M476.465 662.832L416.26 731.5l-7.777-48.186-12.55 44.67"/>
      <path fill="#f9f9fa" d="M299.696 196.458l-83.013-4.42 42.6 15.23 41.238 3.77"/>
      <path fill="#fffffe" d="M886.28 27.037l7.384 50.075-35.252 35.798-3.067 33.725"/>
      <path fill="#fff" d="M897.882 127.935l47.323-16.578-27.336-72.462L1026.887-31"/>
      <path fill="#b4b4b4" d="M307.626 536.77l-41.432-188.845 37.428 187.492 5.72-164.904"/>
      <path fill="#091115" d="M610.91 481.983l1.613 34.276 3.212 8.885-3.69-121.25"/>
      <path fill="#fff" d="M70.574 13.093l320.478-6.936L9.874-31-31 53.148"/>
      <path fill="#121514" d="M672.17 738.928l-5.8-29.97-2.25 18.747 6.16 26.195"/>
      <path fill="#fcfcfc" d="M468.07 697.45l-22.49 1.123 30.882-90.76-3.77 142.418"/>
      <path fill="#cecece" d="M328.988 457.94L326.06 335.8l-2.87 137.196 2.423 167.6"/>
      <path fill="#8c8c8d" d="M121.503 698.455l1.526-34.338-.003 76.564-5.416-31.846"/>
      <path fill="#fff" d="M-31 239.933l67.42-16.154 10.737 173.275 1.995-290.544"/>
      <path fill="#a8a8a8" d="M308.75 206.75l-.053-53.25-4.194 103.22 3.42-12.2"/>
      <path fill="#a3a3a2" d="M835.506 345.166l-18.524 14.878-10.376.725 41.283.505"/>
      <path fill="#8384ac" d="M704.973 73.087l-6.567 2.793-102.59-2.854 58.915-3.583"/>
      <path fill="#5b5b5b" d="M558.95 263.74l-.224-142.772-.193-58.75-3.044 118.483"/>
      <path fill="#5d5e5e" d="M420.077 386.653l19.853-39.962 6.92 17.303 7.148-21.304"/>
      <path fill="#bbbbbc" d="M333.6 568.188l3.8-82.118-.703 70.357L497.67 574.24"/>
      <path fill="#979695" d="M941.502 362.626l-25.85-.287 3.01-15.982 4.072-1.136"/>
      <path fill="#838383" d="M942.123 710.09l.3 21.585 7.384-1.186-5.89-20.375"/>
      <path fill="#b3b3b3" d="M144.81 507.484l30.148 14.577-35.717 2.134-15.665-6.923"/>
      <path fill="#9c9c9d" d="M253.582 230.033l-16.358-4.78 25.323-15.593-5.984 40.142"/>
      <path fill="#82886c" d="M875.567 305.39l-4.94 129.907.098-113.844-6.825-2.094"/>
      <path d="M606.82 450.978l-1.997-112.78-4.19 61.622 1.883 118.6"/>
      <path fill="#353736" d="M338.988 450.883l6.626 107.412-8.253-26.377 3.98-109.723"/>
      <path fill="#f7f7f7" d="M469.01 510.198l-19.544-111.716-3.877 70.63 121.132 11.587"/>
      <path fill="#f8f8f8" d="M149.84 664.637l3.716-151.91.43-124.21-5.05 91.193"/>
      <path fill="#fdfefe" d="M291.942 100.64l1.448 20.462-27.018-72.1 5.916 88.49"/>
      <path fill="#dbdbdc" d="M182.03 218.6l-39.26-26.3 1.326 201.36-2.905-48.892"/>
      <path fill="#fff" d="M883.784 14.12l-405.756-2.815L946.64-31l-39.958 73.982"/>
      <path fill="#242626" d="M320.617 329.898l-7.894 63.63-2.524-52.824 13.914 78.27"/>
      <path fill="#fafafa" d="M553.437 176.59l2.58-166.587 189.464 7.494L548.1-31"/>
      <path fill="#2b2a2a" d="M351.902 701.465l6.49 26.186-3.728 8.98.734 13.108"/>
      <path fill="#cfd0cf" d="M574.478 135.153l.083-71.41-1.72-49.928-2.533 13.792"/>
      <path fill="#5b4e66" d="M918.343 123.74l32.487 2.017 2.354-12.856 10.304 17.5"/>
      <path fill="#ae7a00" d="M929.073 473.864l-6.53-11.332-12.873 4.95 10.455 13.004"/>
      <path fill="#b0b0b1" d="M446.307 422.107l-.603 131.132-62.994-2.8 68.604-3.42"/>
      <path fill="#fff" d="M832.95 405.644l2.314 53.232 56.49-80.792-42.003 48.54"/>
      <path fill="#303333" d="M681.494 693.98l-6.557 3.684-17.364-17.7 21.93 1.116"/>
      <path fill="#131615" d="M141.44 183.127l-1.87-11.31-4.15 2.13-1.715 8.063"/>
      <path fill="#626516" d="M826.554 477.458l1.79-4.504 8.463-12.347.024 21.572"/>
      <path fill="#fff" d="M940.28 267.246l112.45-218.728-117.938 226.97L805 266.358"/>
      <path fill="#ababab" d="M589.857 89.494l-7.83 229.835-79.842-139.118 87.32 155.347"/>
      <path fill="#d5d5d6" d="M565.877 326.983l9.196-133.143-1.927 117.334-45.17-167.488"/>
      <path fill="#737273" d="M629.07 696.084l-.835 46.495 15.88-65.317-3.188 58.705"/>
      <path fill="#050d0c" d="M557.415 353.347l37.19-23.713.447 21.55-37.188-1.426"/>
      <path fill="#fff" d="M1007.166 54.417L917.748 421.49l-6.632 38.687 136.753 33.76"/>
      <path fill="#404141" d="M591 264.89l-3.34-49.354-17.356 12.123 26.54 8.264"/>
      <path fill="#a2a2a3" d="M101.29 701.31l-30.066 2.932 8.485 6.59 38.156 3.356"/>
      <path fill="#fcfcfc" d="M431.698 208.156l-31.887-16.878 9.333 4.717-28.093 14.256"/>
      <path fill="#d8ca2d" d="M836.93 551.977l-20.63-2.282 9.533-4.405 119.513 2.85"/>
      <path fill="#141616" d="M379.454 531.627l-11.638-9.716-4.07 28.613 12.456-2.083"/>
      <path fill="#9b9b9c" d="M89.776 62l28.377-9.74-21.517-3.76-12.362 1.148"/>
      <path fill="#c9c9c9" d="M297.346 507.107l1.015-45.324-1.783-90.31 7.66 134.05"/>
      <path fill="#c3c3c3" d="M381.986 453.166l90.603-13.898-79.502 24.72 4.203-73.316"/>
      <path fill="#fff" d="M820.187 144.302l35.73-54.832-108.383-63.317L854.38 13.985"/>
      <path fill="#812b1d" d="M861.997 39.97L845.96 58.36l11.49 12.57-4.327 23.372"/>
      <path fill="#8e8e8f" d="M139.112 414.225l-2.253-15.05-1.908 66.32 2.694 29.01"/>
      <path fill="#fafafa" d="M364.398 70.86l98.82-5.28-11.53 45.33 143.017-18.997"/>
      <path fill="#ababac" d="M157.5 361.452l-4.044 75.738 56.046-20.918-52.608-11.867"/>
      <path fill="#b1b1b0" d="M586.872 309.52l.272-69.794 3.703 30.997-2.493 149.958"/>
      <path fill="#f2f3f3" d="M261.483 371.066l-158.35-18.845 200.674 3.704-27.843 15.464"/>
      <path fill="#818181" d="M339.116 513.624l49.536-265.35.27 96.46-9.237-48.17"/>
      <path fill="#fff" d="M871.525 291.33L621.1 289.516l35.192-212.054 39.423 1.306"/>
      <path fill="#9f8f2f" d="M916.454 66.44l5.615 43.374-32.335-13.492 11.12 20.783"/>
      <path fill="#fff" d="M886.543 698.38l-13.702-36.67-1.698-15.256 17.636-101.148"/>
      <path fill="#a5a6a5" d="M599.312 90.25L435.662-31 595.29 87.427l1.212 139.403"/>
      <path fill="#0e0f0e" d="M598.312 127.104l-7.316 80.557 1.777-171.09 3.466 100.373"/>
      <path fill="#7d834d" d="M902.903 446.12l-17.577 4.32 10.026-39.964-7.577 60.73"/>
      <path fill="#f6f6f6" d="M537.607 500.997l-.657-168.12-103.9 82.275 94.455-44.966"/>
      <path fill="#fff" d="M130.087 680.233l211.564-57.828-71.266-23.712-73.744-28.087"/>
      <path fill="#bfc0c0" d="M610.282 565.658l-3.5-144.042-.48 145.026-321.893 85.682"/>
      <path fill="#a98c05" d="M936.063 149.254l-19.43.094 21.237 34.236-.43-27.605"/>
      <path fill="#575958" d="M383.395 463.134l-7.356-27.647-70.733 18.516 82.445-5.286"/>
      <path fill="#bababa" d="M96.673 236.785l-.376 107.396-6.81-61.305 7.29-159.055"/>
      <path fill="#fffff4" d="M902.79 103.747l18.28 2.183-21.79 60.784 6.922 49.29"/>
      <path fill="#fff" d="M251.74 543.473l1.543-62.53-75.873-10.53-11.626 79.683M352.788 13.102l-229.152-.24L426.526-31l220.76 43.395"/>
      <path fill="#747574" d="M256.933 373.783l-.593-72.237-4.948 74.066 80.507 8.433"/>
      <path fill="#fff" d="M799.857 317.425l66.212 182.428-9.72-66.926-20.634 44.747"/>
      <path fill="#565757" d="M296.497 65.655l-3.23 217.623-.296-206.34-.162-9.432"/>
      <path fill="#ababab" d="M497.53 681.72l29.55-4.34 89.2 5.44-59.748.41"/>
      <path fill="#303232" d="M560.7 495.915l-5.266-4.22 7.4-35.144-9.636 13.552"/>
      <path fill="#adadad" d="M142.604 676.14L86.71 696.548l2.818-10.113 74.022-3.704"/>
      <path fill="#9b9b98" d="M785.538 469.995l-17.67-16.155 27.33 3.617-1.793 12.28"/>
      <path fill="#bbb" d="M499.805 556.775l-55.815-.54-118.694 14.686 288.507 2.282"/>
      <path fill="#cacccb" d="M353.428 77.495l3.6-6.012-.045-14.84-3.11-84.103"/>
      <path fill="#9d9d9d" d="M956.335 607.04L924.7 595.11l44.134 2.604 11.864-8.318"/>
      <path fill="#fff" d="M657.373 758.267l6.35-66.574-2.642 93.4-432.82-31.304"/>
      <path fill="#9e9e9e" d="M98.404 105.77l-4.918 67.113-.473-97.11 7.138 9.03"/>
      <path fill="#e7e7e7" d="M389.03 230.222l-33.84-5.27-24.782 2.016 51.69-6.677"/>
      <path fill="#fcfcfc" d="M100.55 363.664L75.653 338.96l66.386-9.436 3.024-156.422"/>
      <path fill="#fff" d="M781.737 698.203l74.552-1.318.008-120.647-81.074-5.683"/>
      <path fill="#ebeceb" d="M444.134 293.558l-3.077-96.128-1.062 17.482 5.345-143.47"/>
      <path fill="#b7b7b7" d="M319.394 410.506l-3.986-39.65.104 33.276.377 43.186"/>
      <path fill="#fcfdfd" d="M872.34 236.836l14.41 102.643 4.404-152.645-34.065 85.877M261.33 257.964l30.877 86.326-12.413-122.838 18.264.18"/>
      <path fill="#a2a2a3" d="M302.474 737.248l5.322-43.39-16.9 56.12 1.898-56.105"/>
      <path fill="#595a55" d="M550.85 66.888l-22.065 9.42 52.9-.203 6.72 3.15"/>
      <path fill="#939393" d="M481.863 192.684l-63.64-.927-60.23-.46 61.42-9.42"/>
      <path fill="#fff" d="M840.737-31H614.094l1.647 94.458 242.144-13.796M763.585 730.696l74.265 8.907-153.365 32.09-3.127-169.45"/>
      <path fill="#747c50" d="M863.236 344.22l10.322 28.536-10.41 27.23.244-29.23"/>
      <path fill="#f3f3f3" d="M147.62 146.82l5.382-15.227 2.385 124.306-5.892-98.49"/>
      <path fill="#121313" d="M564.046 149.035l-.875-20.39 4.377 59.95 1.03-111.362"/>
      <path fill="#535b2c" d="M863.548 212.9l8.818-12.57-4.597-8.253-1.485 7.816"/>
      <path fill="#101211" d="M308.423 325.238l4.055 65.735.916-44.105-.494-50.444"/>
      <path fill="#fff" d="M1021.02 771.452l13.857-135.828-161.327-6.485 80.414 6.767"/>
      <path fill="#fdfdfe" d="M314.883 742.932l37.052-3.43-28.928-11.15 15.946-192.162"/>
      <path fill="#e7e7e7" d="M274.287 252.698l28.718 20.007-6.946-33.934-46.615-22.354"/>
      <path fill="#888" d="M596.736 656.145l.5 5.92 14.08 8.11 2.037-15.596"/>
      <path fill="#fff" d="M836.304 545.374l-15.052-59.587 66.64-15.473 93.063 75.593M621.162 514.775l131.44 6.774-246.006 157.874 84.824-3.085"/>
      <path fill="#878787" d="M512.515 174.454l-6.928 2.037 3.928-42.526 2.224 3.418"/>
      <path fill="#090e0d" d="M308.502 38.633l6.07-23.903-.42 74.497-2.405-28.263"/>
      <path fill="#454544" d="M490.053 334.79l5.344 8.2-8.132 2.283-.062 2.786"/>
      <path fill="#474848" d="M476.896 160.2l-.627 13.867 17.88 2.747 1.92 10.117"/>
      <path fill="#fff" d="M943.708 191.313l-3.017-75.318 17.29-8.672-9.992 23.177"/>
      <path fill="#fafafb" d="M417.968 59.897L413.914-31 393.63-4.34l3.033 150.05"/>
      <path fill="#54547b" d="M789.623 548.39l55.978 2.237 29.844 5.552-107.254-2.027"/>
      <path fill="#bdbdbd" d="M261.68 13.9l22.957-1.112-202.88.673 61.774 3.492"/>
      <path fill="#fff" d="M28.957 777.7l4.838-323.13L26.435-31-31 709.98"/>
      <path fill="#fafafb" d="M81.196 274.184l5.338 135.818 68.517 33.98-75.693-12.116"/>
      <path fill="#ff6063" d="M628.365 354.667l-12.92-16.9 17.77-6.53-13.625 25.566"/>
      <path fill="#999bad" d="M973.977 477.933l-56.182 46.173 15.394-16.502 40.252-37.594"/>
      <path fill="#b0b375" d="M830.786 141.13l-19.938 14.328 70.113-8.808-33.625 17.08"/>
      <path fill="#34363a" d="M621.13 511.897l-31.21 26.3 3.814-41.476 3.04 42.25"/>
      <path fill="#f7f8f8" d="M105.628 155.345l17.344 292.07 17.535-255.158-58.714-9.3"/>
      <path fill="#dcdcdc" d="M386.752 699.42l1.78 79.1 2.64-79.257-4.533-21.538"/>
      <path fill="#232625" d="M570.656 434.712l-4.66-124.76.127 114.196-.76 76.444"/>
      <path fill="#6c6c6c" d="M446.917 730.272l-23.26 18.877-15.77-8.303-7.77-5.056"/>
      <path fill="#8f8f8f" d="M475.625 693.22l2.457 12.616 19.514-7.215-1.617 40.75"/>
      <path fill="#d5d5d5" d="M411.15 632.888l9.424 135.516-2.433-125.147-8.655 43.155"/>
      <path fill="#0e1111" d="M324.304 358.613l-7.444-49.09 4.7-161.955-.906 260.11"/>
      <path fill="#222424" d="M379.03 51.544l1.423-33.1-16.218 1.093 12.622 51.38"/>
      <path fill="#fafafb" d="M627.514 735.874l-56.68-24.05-73.653 33.256 113.747 2.236"/>
      <path fill="#f8faf4" d="M846.732 303.375l71.07 60.71-132.734.127 121.565-5.698"/>
      <path fill="#fff" d="M666.863 285.812l-39.2 72.305 68.503 143.34 172.93-120.97"/>
      <path fill="#d1d1d0" d="M345.992 472.25l-1.52 25.92-2.165-124.398 6.22-.03"/>
      <path fill="#818181" d="M148.212 144.345l-1.468 53.928-3.918-38.285 5.12-91.817"/>
      <path fill="#fff" d="M972.635 446.566l-52.603-80.764 15.444 182.524-62.18-32.356"/>
      <path fill="#cbcccc" d="M355.312 110.22l-2.694 138.007 5.195-58.197-1.292 11.65"/>
      <path fill="#15baf7" d="M836.584 124.69l-10.48-.187 32.132-2.06-14.62 14.814"/>
      <path fill="#ededed" d="M396.44 699.622l1.5 99.378 2.966-90.26-3.708-106.63"/>
      <path fill="#fff16c" d="M899.273 617.313l13.744-5.923 13.437 7.794-12.646-1.958"/>
      <path fill="#fff" d="M325.894 571.326l-23.046 5.48 59.26 2.93 75.964-2.2"/>
      <path fill="#fefefe" d="M181.648 82.993l33.464 9.813-51.326 45.503 29.917.39"/>
      <path fill="#abadac" d="M348.29 57.608l-14.11 21.967L334.133-31l3.226 91.73"/>
      <path fill="#868686" d="M251.735 549.475l-156.938-.115 153.117 1.75 90.524-.936"/>
      <path fill="#b0afaf" d="M310.19 265.003l-4.235 48.628 9.853-24.474-27.63 23.228"/>
      <path fill="#a9a9a9" d="M243.403 410.394l5.018-13.288-.383 69.654-3.332-1.696"/>
      <path fill="#a5a6a5" d="M309.095 67.068L307.547-31l-2.54 87.458 2.76 84.882"/>
      <path fill="#e9dc4c" d="M807.552 546.61l1.63-2.046 18.608 6.015-63.374-3.224"/>
      <path fill="#989898" d="M720.38 661.656l-3.68-30.19 11.096-4.828-.503 21.676"/>
      <path fill="#434242" d="M657.37 729.972l-.494-55.48-2.502 58.793 6.334-3.833"/>
      <path fill="#fbfbfb" d="M379.746 175.444l105.74 2.17-63.68 7.116-53.935-.97"/>
      <path fill="#161918" d="M314.315 125.304l-3.983-19.567 2.586-95.986-1.51 173.953"/>
      <path fill="#2b2c2c" d="M369.708 218.142l.344-52.673-4.362 42.76-.827-.097"/>
      <path fill="#1c1f1e" d="M447.02 200.81l3.078 6.937-14.1-7.054 1.468 13.357"/>
      <path fill="#fcfdfd" d="M154.766 91.646l-43.802 15.414 20.103-49.68-59.75 2.508"/>
      <path fill="#fff" d="M543.645 662.782l70.142 10.334 135.907-38.42-75.436 41.14"/>
      <path fill="#8958b0" d="M982.822 551.88l-56.054.584-41.423 3.158 109.606.362"/>
      <path fill="#9a999a" d="M906.93 722.327l-12.638-6.768-4.917-15.292 13.82 36.337"/>
      <path fill="#cccccd" d="M170.177 94.42L168.134 3.45l-19.086 80.23-6.107-46.186"/>
      <path fill="#111514" d="M612.42 472.204l.51 60.928-12.132-63.424 1.786 98.486"/>
      <path fill="#e0dfdf" d="M644.303 799l8.953-125.247-1.06 112.556-5.362-48.123"/>
      <path fill="#0c1210" d="M609.8 199.863l-.87 5.657 3.622 60.585 2.438-63.844"/>
      <path fill="#f3f3f4" d="M449.8 337.51l3.083 52.15 13.966-178.69-15.082 53.474"/>
      <path fill="#9ba7a3" d="M856.814 671.59l46.494 1.3-26.183-5.948-8.288-3.023"/>
      <path fill="#b0b0af" d="M934.664 10.32l-20.656 30.334 9.395-32.5 21.115 28.605"/>
      <path fill="#677ba5" d="M649.81 467.16l-62.06 1.514 31.816-4.355 26.385-4.223"/>
      <path fill="#938887" d="M612.97 430.337l-4.5-66.19-2.95 69.148 63.786-28.89"/>
      <path fill="#fcffe9" d="M873.076 384.42L809.07 356.7l59.182 22.082 73.72.55"/>
      <path fill="#e9eaea" d="M553.507 355.926l1.562-45.004-.93-203.267-9.482 174.263"/>
      <path fill="#636363" d="M344.66 678.18l-2.504 60.138-.802-1.896 6.213-2.824"/>
      <path fill="#292b2b" d="M320.578 518.028l4.19 33.233-18.92-1.907 9.273-2.83"/>
      <path fill="#b3aa1e" d="M857.062 193.11l10.313-11.497-23.88-25.102 23.496-3.392"/>
      <path fill="#909693" d="M954.63 709.578l-95.913-1.29 5.198 2.137 87.284.773"/>
      <path fill="#1a1d1c" d="M422.228 697.172l-1.03-15.272-10.235-2.808 23.43 7.965"/>
      <path fill="#fff" d="M77.237 555.503l-3.97 174.59-78.844 6.18L75.01 534.128"/>
      <path fill="#f7f7f7" d="M468.535 321.646l21.52-188.598-.587 102.2-40.445 2.626"/>
      <path fill="#fff" d="M897.425 168.546l-57.87 5.762 45.046-15.01-41.715 58.088"/>
      <path fill="#bbb" d="M49.698 104.58l-.4 222.195 22.54 147.29.476-237.954"/>
      <path fill="#fff" d="M922.556 307.963l-44.386 1.72 27.943-6.71-5.47-116.76"/>
      <path fill="#ececec" d="M565.48 507.678l-178.918-66.595 172.528 73.8 2.32-85.055"/>
      <path fill="#979797" d="M270.59 582.01l-28.55 11.153-1.742-14.318 53.876 9.06"/>
      <path fill="#050705" d="M587.315 57.985l-9.56 1.354-2.277 14.87 10.013 13.704"/>
      <path fill="#1e2229" d="M898.105 353.883l-6.653-4.596-3.795 13.24 1.934-2.663"/>
      <path fill="#030706" d="M603.34 391.215l-2.762-158.685 4.08 14.09L606.613 290"/>
      <path fill="#000101" d="M358.384 189.797l-1.08 20.16 1.04 116.664 2.814-151.412"/>
      <path fill="#e5e5e5" d="M364.644 233.334l-11.05-9.967 9.025-1.093 1.67-37.953"/>
      <path fill="#dadada" d="M461.9 12.082l97.813 1.317.75 82.122 6.255-58.36"/>
      <path fill="#fff" d="M686.588 585.334l-473.975 6.74 299.005 86.676-141.96 1.054"/>
      <path fill="#fffefa" d="M842.35 67.036l-14.593 90.182L811.74 10.922l37.558 60.058"/>
      <path fill="#cdcdcd" d="M382.932 511.016l-3.25-90.225.162 100.218-1.23 50.507"/>
      <path fill="#181c1b" d="M671.14 751.647l-1.992-14.99-.29-37.202-4.215 50.874"/>
      <path fill="#272728" d="M299.46 250.084l5.63-4.244 1.25 17.216-3.625-3.367"/>
      <path fill="#754c00" d="M921.763 403.034l-17.102 2.087 2.506 6.19-.796 6.697"/>
      <path fill="#151616" d="M334.02 268.075l-5.84 35.37 1.636-56.11 1.173-47.946"/>
      <path fill="#949494" d="M570.038 37.95l21.163 7.864-.394-27.46-31.355-5.71"/>
      <path fill="#fff" d="M293.518 556.847l-75.737-2.49 140.25-3.136 27.53 2.845"/>
      <path fill="#4c4c4c" d="M459.616 410.562l5.908 13.14 1.106-11.39 4.92-12.088"/>
      <path fill="#fff" d="M614.306 215.657l103.324 25.9L817.727 110.18l-202.167 63.9M121.53 501.74l125.887 10.466-112.268-13.792-14.623-57.3"/>
      <path fill="#7a7b78" d="M617.49 160.206l-9.1 25.914-1.647-71.556 5.804 64.593"/>
      <path fill="#192f10" d="M872.242 38.78l6.36 7.167 4.247-14.83-.785 8.857"/>
      <path fill="#c2c13c" d="M924.433 212.5l-10.477 2.756-27.658-18.965 39.8-.605"/>
      <path fill="#747876" d="M863.077 347.058l11.31-51.507-10.262 3.21 3.596-67.88"/>
      <path fill="#fff" d="M704.386-25.564l160.8 329.268 19.116-.124-65.027 19.293"/>
      <path fill="#6f6f6f" d="M567.344 454.88l-2.21-36.19-8.873 27.22-.492-54.35"/>
      <path fill="#d2d2d2" d="M571.156 198.216l5.158 113.65-1.534 9.503-2.046 155.15"/>
      <path fill="#8d8c8c" d="M415.357 675.73l-21.185 29.328 30.52-51.112-9.62 4.835"/>
      <path fill="#adafae" d="M346.887 404.198l-.72-116.936-1.363-11.384-3.093 22.312"/>
      <path fill="#b1b3b2" d="M343.88 68.26l1.848-97.334 1.907 37.096.023 23.88"/>
      <path fill="#a9a9a9" d="M81.915 248.934l-2.42-9.637-1.7 107.512-1.042-178.25"/>
      <path fill="#b0b0b0" d="M815.98 709.688l4.74 21.28-11.437 3.386-.084 2.156"/>
      <path fill="#a0a0a0" d="M360.284 180.65l45.06-26.157 1.008 26.425-15.027-30.052"/>
      <path fill="#8c8c8c" d="M941.585 744.758l-41.213 5.18 44.568 4.513-7.255-14.993"/>
      <path fill="#d7d8d8" d="M262.16 168.858l29.714-27.275L281.4 46.83l10.724 107.495"/>
      <path fill="#fff" d="M838.577-31L662.015 99.43 843.88 86.113l-29.664 47.33"/>
      <path fill="#bcbcbd" d="M117.788 517.337l-7.44 12.335-6.79-82.934-.69 88.02"/>
      <path fill="#898da7" d="M848.793 479.388l2.934.953 1.3-19.306-13.114-2.24"/>
      <path fill="#7e8190" d="M894.587 331.85l8.566-41.228-17.43 1.45 13.3 25.18"/>
      <path fill="#bfbfbf" d="M475.448 747.22l1.952-60.543 31.864 64.79L500.74 711"/>
      <path fill="#fefeff" d="M285.652 515.254L266.845 377.64l.95 14.65 3.17 143.067"/>
      <path fill="#eaeaea" d="M428.163 372.2l12.016 27.918 2.885-11.635 45.67-17.375"/>
      <path fill="#cdcdcd" d="M300.923 330.36l-17.616-10.85 7.346 29.61 7.63-67.78"/>
      <path fill="#b6b7b7" d="M598.437 447.036l-19.353 6.36 1.777-9.575-86.878-18.52"/>
      <path fill="#dfe0e0" d="M347.056 167.64l24.907-3.83 7.553-6.754-80.335 3.86"/>
      <path fill="#8d8f8f" d="M461.888 460.956l2.607-13.23 44.278 16.58 33.076-1.47"/>
      <path fill="#fcfcfc" d="M497.78 439.19l-11.494-16.123 60.54-123.547-79.543 76.138"/>
      <path fill="#8084c4" d="M645.088 396.2l-3.14-5.746-25.76 1.942 38.077 6.787"/>
      <path fill="#9a9a9b" d="M205.037 748.837l-2.272-5.163 14.253.18-67.96 5.59"/>
      <path fill="#fffff9" d="M773.048 262.29l40.525-40.79 56.31-129.248-8.966 46.646"/>
      <path fill="#fff" d="M937.034 707.462l-56.884-45.315 38.863-6.422 5.392-98.03"/>
      <path fill="#feffff" d="M902.313 324.746l-44.08-1.694L965.8 354.304l-86.533-23.084"/>
      <path fill="#fff" d="M930.215 799l11.984-52.522-214.082-13.03L1055 734.49"/>
      <path fill="#3f403e" d="M569.723 86.795l-5.508-14.53L570.857-31 567.78.142"/>
      <path fill="#151717" d="M365.137 100.274l2.186-16.363 10.066 9.29-9.084 34.598"/>
      <path fill="#a2a3a2" d="M597.206 349.72l2.78-102.9-3.072-81.368-1.385 83.4"/>
      <path fill="#131515" d="M332.145 343.62l-2.38 1.2-.515-41.36 4.864-4.057"/>
      <path fill="#6c34a8" d="M917.812 133.96l16.33-8.04-5.65-9.03-13.034 5.118"/>
      <path fill="#b1b1b1" d="M101.472 127.228l118.902-6.026-36.508 27.302 61.46-16.493"/>
      <path fill="#7c7d7c" d="M291.23 526.997l4.298-111.558 1.33 4.812-2.53 128.34"/>
      <path fill="#a2a2a2" d="M25.53 738.442l10.164-5.662 20.87 2.335-7.896 10.232"/>
      <path fill="#6e6f6f" d="M392.116 101.895l-1.163 132.19 3.154-67.34.21-41.438"/>
      <path fill="#333534" d="M390.513 240.906l3.756-15.884-2.95-18.45-.958 19.704"/>
      <path fill="#fff" d="M640.267 125.93L617.85 80.59l203.758-4.545-205.323 76.965"/>
      <path fill="#767676" d="M385.853 115.517L385.79-2.47l-3.8 144.345 4.007 73.803"/>
      <path fill="#a6a6a6" d="M739.682 623.163l29.13.9-18.804 14.062-7.494-14.735"/>
      <path fill="#fff" d="M615.253 124.566l-.023-43.725 205.58 283.795-176.23-296.49"/>
      <path fill="#b2b2b3" d="M102.162 102.14l3.722 72.607 2.853-84.718.505-18.7"/>
      <path fill="#979797" d="M39.11 293.99l-1.006 34.238-10.484 20.826 11.62-58.452"/>
      <path fill="#fff" d="M616.985 247.378l206.793 226.967-62.106.983 104.59-20.682"/>
      <path fill="#808181" d="M258.225 79.027l-.286-73.32-4.65 32.3.1 38.737"/>
      <path fill="#fffffc" d="M854.883 70.564l19.73-18.573 22.598-5.886.79 59.25"/>
      <path fill="#8f8f8f" d="M827.78 757.522l-3.164-9.104-21.747-.676 135.71-2.037"/>
      <path fill="#e5e5e5" d="M422.677 155.83l13.53 6.92-46.98-7.004-10.68-19.563"/>
      <path fill="#a9aaaa" d="M80.813 398.59l-7.59-20.673 3.95 6.132-.117-77.503"/>
      <path fill="#707459" d="M868.038 115.127l6.915-20.865.335 52.174-10.953-22.018"/>
      <path fill="#f9f9f9" d="M454.416 422.76l10.08 42.803-61.16-9.034 94.928-7.524"/>
      <path fill="#adadad" d="M374.307 402.522l4.233-38.017 44.73 17.714-51.973-.004"/>
      <path fill="#7e7e7e" d="M337.61 187.305l-57.827 5.77 8.86-39.85-.36 38.465"/>
      <path fill="#545655" d="M358.112 142.244l-2.854 13.707-59.54-2.112 94.72 5.11"/>
      <path fill="#ccc" d="M284.26 405.167l8.53-43.73-11.67-1.196 29.765 47.596"/>
      <path fill="#c1c1c1" d="M333.537 360.564l-.24 115.082 5.097-35.315-.278-68.51"/>
      <path fill="#fff" d="M905.572 398.164l-73.447 31.525 210.016-80.434L900.3 364.55"/>
      <path fill="#d1d2d1" d="M191.667 5.556L329.967-31l-2.646 101.736-6.403-85.55"/>
      <path fill="#fffeff" d="M900.222 121.513l139.52-133.02-145.4 137.877L1055 187.373"/>
      <path fill="#292a2a" d="M566.332 107.485l3.803 32.427-1.454 116.49-2.74-10.428"/>
      <path fill="#000202" d="M317.8 105.323l3.05-41.235.78 18.257-1.02 56.68"/>
      <path fill="#e6e6e6" d="M294.668 141.737l71.494-7.146-2.4 28.984-4.856-37.104"/>
      <path fill="#bcbcbc" d="M427.443 566.368l-1.59-1.912-3.867-136.22-2.832 101.14"/>
      <path fill="#080a0a" d="M352.578 253.386l-2.76 83.472-.894.492.825-98.764"/>
      <path fill="#fff" d="M368.4 12.776l151.584-.633L218.71-31 4.543 11.9M174.108 683.282l-1.063 23.028-106.788 10.292 47.19.645M754.337 580.984l14.476-36.18-39.376 46.86 3.398 120.15"/>
      <path fill="#bdbdbc" d="M582.77 404.74l-63.966-23.023 71.687 27.312-3.22-34.666"/>
      <path fill="#fff" d="M900.89 418.49L1055 535.364 1022.864-15.91 897.726 521.966"/>
      <path fill="#545e4c" d="M959.09 127.687l6.2 6.224-15.762-7.067 1.524-10.827"/>
      <path fill="#fff" d="M869.288 250.654l-47.622-49.815-14.644-98.526-192.144 278.532"/>
      <path fill="#939393" d="M39.563 266.827l-3.018-42.85-4.83-5.335 2.306 49.706"/>
      <path fill="#bababa" d="M464.592 68.06l21.618-.88-2.514 4.277L470.2 82.444"/>
      <path fill="#fff" d="M614.762 263.535l1.06-33.273 256.68 114.435-254.83-42.156"/>
      <path fill="#9d9e9e" d="M379.63 296.23l-.987-84.445 2.67 26.696 8.66 124.95"/>
      <path fill="#404040" d="M447.017 700.09l2.93 3.33-.393 14.712-6.184 2"/>
      <path fill="#989998" d="M337.502 315.245l-3.38 16.116-.666-96.57 3.206-69.417"/>
      <path fill="#808181" d="M243.46 192.24l-.13-11.23 14.11 13.513-12.24-1.684"/>
      <path fill="#3c4141" d="M614.468 353.068l-61.266-18.002 6.33 35.696-.91-31.778"/>
      <path fill="#fbfbfa" d="M414.66 345.276l38.053-1.172-12.807-10.097-83.894 9.408"/>
      <path fill="#ff1a1a" d="M621.06 451.715l-1.644 2.716 2.79 4.617 10.328-5.545"/>
      <path fill="#a485be" d="M998.202 86.685l-56.56 9.677-.292 11.99 35.777-10.306"/>
      <path fill="#fff" d="M296.283 680.11l-71.76-7.06 91.433-101.196-2.877 10.04"/>
      <path fill="#f0f0f0" d="M484.59 460.172l64.084 62.558 3.012-55.985 6.725 50.38"/>
      <path fill="#fefefe" d="M846.99 719.73l27.29 27.396-32.255-5.11 8.726 36.02"/>
      <path fill="#bfbfbf" d="M559.06 306.502l6.127-97.06-1.178-70.902-7.203 83.322"/>
      <path fill="#fff" d="M60.27 555.904L-31 558.846l126.005-7.89 105.93 4.74"/>
      <path fill="#958d3e" d="M917.556 137.416l.662 10.787 19.413 18.815-36.535-21.873"/>
      <path fill="#fff" d="M956.064-12.624L1055 22.91l-67.58 16.643-5.75 69.877M357.256 590.43l280.034 63.618-273.93-8.635-5.168 100.21"/>
      <path fill="#838384" d="M167.352 496.007l-1.91 6.262.964-161.148 2.715-24.033"/>
      <path fill="#9a9a9a" d="M353.87 333.684l24.71 15.8-14.744-25.657-14.893 83.287"/>
      <path fill="#bcbcbc" d="M362.617 84.332l2.595 76.316-.45-149.568-2.113 8.842"/>
      <path fill="#a8a9a9" d="M420.073 106.128l3.492 21.615L421.728-.1l-2.377 113.49"/>
      <path fill="#3d3f3f" d="M360.837 520.52l.023 27.75 32.167 2.498-40.16.747"/>
      <path fill="#ddddde" d="M179.366 731.51l-.605-41.133 37.372-7.75-5.532 66.11"/>
      <path fill="#c6c7c6" d="M571.004 63.622l2.803-88.97.115 58.75-.278 162.806"/>
      <path fill="#ddd" d="M142.705 100.514l-34.494-70.84 27.357 61.407 11.28 166.56"/>
      <path fill="#fcfcfd" d="M338.2 694.312l5.413 69.668-3.912-81.102-34.27 14.883"/>
      <path fill="#fffff2" d="M930.053 129.3l-25.787 71.552-26.62-110.23 7.223 123.233"/>
      <path fill="#f9f9fa" d="M462.766 201.97l-2.467-17.61 64.517 96.185 13.393-111.703"/>
      <path fill="#9e9fa0" d="M741.922 552.09l28.594-13.914.33 78.537-2.927-67.373"/>
      <path fill="#fff" d="M883.803 46.687l-21.678 7.89 11.747 47.615 37.564-16.047M646.542 488.003l-3.443-87.427-14.107 60.802 223.222-34.916"/>
      <path fill="#989898" d="M442.526 682.416l66.366 1.562-56.34-6.316-81.157 34.856"/>
      <path fill="#141515" d="M314.443 540.534l-1.89 10.317-2.105-12.982.742-46.12"/>
      <path fill="#232525" d="M575.332 547.308l5.413-120.53-2.76-83.848-2.568 60.322"/>
      <path fill="#c2c4c3" d="M346.126 122.57l1.26 175.357-4.135-92.772.195-71.982"/>
      <path fill="#fff" d="M718.665 742.46l-36.15 7.692-463.53.933 821.92 32.323"/>
      <path fill="#f1f1f1" d="M627.622 708.392l-5.368-143.473.217 161.933-.643 71.497"/>
      <path fill="#9b851a" d="M927.743 81.38l-22.64-19.698 22.892-12.15-27.382 51.652"/>
      <path fill="#fff" d="M960.203 57.614L1055 624.86l-87.487-1.398 40.423-105.763"/>
      <path fill="#a09fa0" d="M79.018 699.18l26.37 7.82-36.46 21.99 31.982-1.037"/>
      <path fill="#000402" d="M602.764 117.968l-2.842-59.542 2.593-39.845 4.505 32.212"/>
      <path fill="#d23f41" d="M608.35 229.827l20.403-12.296.962 11.47-24.104-1.664"/>
      <path fill="#fff" d="M941.985 309.663l-129.962-4.04 98.67-.888 41.16-172.88"/>
      <path fill="gray" d="M180.423 113.39l-32.29 1.355 30.393 9.898 1.878-5.78"/>
      <path d="M362.412 94.736l-3.818-13.705-2.894 16.265 2.723 18.186"/>
      <path fill="#fff" d="M933.317 142.552l21.776-25.316L937.11 30.15l49.262-32.644"/>
      <path fill="#262727" d="M288.882 476.885l79.75-3.488-2.86 75.68 13.117-77.85"/>
      <path fill="#a7a7a7" d="M548.298 528.005l27.318 28.076-4.667-74.9 10.047 46.25"/>
      <path fill="#8587a7" d="M705.543 514.968l-95.923-6.895 95.503 1.597-5.074 2.684"/>
      <path fill="#efefef" d="M438.794 799l4.81-120.386 2.046 68.795-25.945 7.282"/>
      <path fill="#fff" d="M.53 231.888l48.186-9.455-1.754-237.86-53.16 18.292"/>
      <path fill="#929392" d="M829.23 347.062l14.85 16.558-18.078-4.886-3.807-2.14"/>
      <path fill="#1f2121" d="M305.015 300.992l.94 61.51-4.938-6.033.257-19.42"/>
      <path fill="#fff" d="M953.433 282.775L849 288.42l60.31 2.065 40.83-143.506"/>
      <path fill="#fafafb" d="M139.146 405.685l5.988 31.357-4.09-89.634-25.804 58.143"/>
      <path fill="#1f2121" d="M575.492 184.68l2.512-39.79-2.645 95.86 6.073-7.537"/>
      <path fill="#fff" d="M127.63 603.835L-31 678.822l143.014 6.223.992 104.21"/>
      <path fill="#89711e" d="M896.45 120.136l4.23-13.63 18.766-1.246-4.522-16.245"/>
      <path fill="#7cdca7" d="M895.76 630.565l25.653-4.852-9.512 7.957-3.666-11.2"/>
      <path fill="#fdfff5" d="M903.817 177.13l.615 85.212 3.187-92.594-4.853-60.086"/>
      <path fill="#e6e6e6" d="M160.926 403.504l3.213-16.586-2.24 168.814-2.558-90.37"/>
      <path fill="#575857" d="M573.697 514.84l-5.64 35.71-4.47-38.472 18.527 31.532"/>
      <path fill="#acacac" d="M309.587 420l-.7-49.44-8.8 33.846-4.756-51.708"/>
      <path fill="#939393" d="M360.336 498.357l-78.24-287.63-36.69 7.508 38.735 1.57"/>
      <path fill="#fff" d="M890.91 230.275l24.1 2.203-8.154.31-55.655.416"/>
      <path fill="#d5cfd2" d="M609.54 134.375l-1.482-42.42-.82 39.236L736.45 306.22"/>
      <path fill="#b1b1b1" d="M436.454 181.636l-21.287 98.193 7.99-.472-5.215-54.81"/>
      <path fill="#f9f9fa" d="M393.79 559.82l34.607-39.5-1.497 24.594-29.26-111.31"/>
      <path fill="#a3a3a3" d="M164.785 203.277l1.04-115.82 3.006 52.295-1.898 237.925"/>
      <path fill="#bfbfbf" d="M447.363 336.474l-55.967-1.66-2.006-3.943 54.983-7.524"/>
      <path fill="#fff" d="M665.698 536.613l-141.753 97.15-27.872 83.994 4.17-28.53M684.996 448.577l163.824 9.952 103.172-4.393-115.375-1.435M845.687 379.938l15.487-126.204-27.33-113.084-9.422 98.384"/>
      <path fill="#f2f2f2" d="M424.037 257.24l8.096-135.73 33.242 25.716-40.53-26.798"/>
      <path fill="#b0b0b0" d="M379.67 328.212l42.914 3.966-61.182-17.495 12.046-4.232"/>
      <path fill="#848484" d="M145.76 165.432l.518-70.133 2.786 134.477-3.72 42.806"/>
      <path fill="#fff" d="M690.45 659.97l66.53-1.525 9.152 31.42-80.6 79.078"/>
      <path fill="#939393" d="M117.05 655.217l24.706 1.708-6.298 3.794-4.045 4.377"/>
      <path fill="#9f9f9f" d="M86.95 29.47l1.336 3.4-14.216-2.093L89.41 11.93"/>
      <path fill="#afafb0" d="M433.42 387.822l2.664 54.202.73 73.882 5.128-56.477"/>
    </g>
  </g>
</svg>