<svg version="1.1" viewBox="0 0 1024 768" width="1024" height="768" xmlns="http://www.w3.org/2000/svg">
  <path fill="#dededd" d="M0 0h1024v768H0z" />
  <g fill-opacity=".5">
    <g class="SVG--0">
      <path fill="#101212" d="M385.2 5.4l1.4 543-91.8 10-5-536" />
      <path d="M615.7 13.4l-.4 559-49.3-41-1.5-498" />
      <path fill="#626364" d="M448 756.5l-105-8.8-10-70.8 120.2 3" />
      <path fill="#fff" d="M616.4-31L844.8 6.4l13.6 778.4L615 674" />
      <path fill="#151717" d="M624.4 707l22.2 43.8 35-3.3-1.7-72.2" />
      <path fill="#fff" d="M895.7 336L1028 799l-1.5-830-112.3 277.6" />
      <path fill="#b4b4b5" d="M257.3 125.4l178.8 129 101-115L383 121" />
      <path fill="#e6e6e7" d="M324 387.8l235.5 73L312.3 471l15.3-36.3" />
      <path fill="#181b1b" d="M301.6 350.4l8.2-120.8h69.4l-.7 92" />
      <path fill="#fff" d="M-31 506.8l17 274.4L317 799l-19-337" />
      <path fill="#fff" d="M921.4 632.3L579 572.5l-610 2 229.3 121" />
      <path fill="#2c3030" d="M569 451.4l-66 13.4 114.6 40.6L608 288" />
      <path fill="#2b2f2e" d="M614 291.8l-69.5-172.2 70.2-114-.4 98" />
      <path fill="#fff" d="M260.4 319.4l77.6-25.2-170-107.4 20 275.4" />
      <path fill="#523f33" d="M746.3 555.2l18.6-7 107-.7 47 9.5" />
      <path fill="#9c7900" d="M837.3 100.8L887.5 28 938 69.3l-78.3-34.8" />
      <path fill="#fff" d="M10.5-31L-31 735l78 64 2.8-419.3" />
      <path fill="#c7b983" d="M784 525.8l79.5-165-.3-96.4 56 150.4" />
      <path fill="#313333" d="M293.5 15l90.3-1-11.3 105.6-58-6.6" />
      <path fill="#fff" d="M848.8 472l69.7 327 106.5-13.5 30-277.3" />
      <path fill="#b5a74c" d="M915.4 43l-83.6 200L869 91.4l71 96.5" />
      <path fill="#f7f7f8" d="M465.5-22.3l-77 238.5L515 115l89-3.5" />
      <path fill="#5b5d5d" d="M356 184.7l86.3 51.7 50.2-84-105.8 91.8" />
      <path fill="#828283" d="M165.8 99l19 85.7-49 5V107" />
      <path fill="#2c2121" d="M544 358l-9-21 100.2-4-56 25.6" />
      <path fill="#fff" d="M522.6 571.7l310.8-79-256 227.3L268 606.5" />
      <path fill="#777778" d="M222 450l-78 43.7 4.4-176-.6 134.3" />
      <path fill="#ada02f" d="M839.6 461.5l79.7-.8 47.8 27-10 2.3" />
      <path fill="#fefeff" d="M75-31L-31 9.3 301.4 106l1-131.2" />
      <path fill="#b8b8b9" d="M434.5 589.4L335 550.6 72.4 557l146 29.7" />
      <path fill="#3f4152" d="M557.5 87.5l68-11.3 83-6-176-3" />
      <path fill="#fff" d="M444 279l89 183.5 6.7-195-3.5-129.4M847 419L713.4-31l-100 531.3 257-40.2" />
      <path fill="#fff" d="M1021.4-31L525 6.6 901 29l153 214.6" />
      <path fill="#fdfefd" d="M308.6 126.7L421.2 192l-84.7-21.3 50.8-53.2" />
      <path fill="#b0b0b1" d="M79.2 475.4L58-31 46.2 533.2l88.6 56.4" />
      <path fill="#8f946f" d="M878.3 234l-13 245.4-2.5-278.2 78.5-8" />
      <path fill="#bebebd" d="M571 51.3L569.7 341l32.2-53.4-25-33.6" />
      <path fill="#fff" d="M526 799l13.7-326-105-17L644 783.7" />
      <path fill="#5e5f60" d="M438 375.8l73.6-45.6-152 49-130-45" />
      <path fill="#262828" d="M323.8 197.3l-2 184 .3 150L300 118" />
      <path fill="#fff" d="M857.5 567.2l-9 231.2-195 .6L779 560.3" />
      <path fill="#777878" d="M506.3 731l2.6-83.2-11 54.4-169-27.6" />
      <path fill="#5f5f60" d="M866 745l-73 9.2 132.8.5 21.3-6.3" />
      <path fill="#38393a" d="M305.6 549.2L376 551l2.8-86-68.5 30.8" />
      <path fill="#898a8a" d="M563 335.3l-7.8 41 55.2 195-67.4 5" />
      <path fill="#f6f6f7" d="M569.2 731.7l-213-.5 74-35.2 24 103" />
      <path fill="#2e3130" d="M601 414.4l-.2-213.4-64.4-18.6L615 85" />
      <path fill="#fff" d="M1055 390.3L897.6 477l95-363.7L1010-31M367.6 15L678.8 2-31-2l162.6 12m245.6 739.2L-31 776.6l1086-10-531.5-17M618 77l70.5 572 235.3-501.4-66.5 45" />
      <path fill="#fff" d="M48.7-31L-31 55.6 46.2 799l2.5-570.4" />
      <path fill="#ce1229" d="M832.4 407.5l20-18.3 13.3 26-17 4.7" />
      <path fill="#956604" d="M880.2 137.7L851 49.4l-8.3 7.5 1.3 21" />
      <path fill="#63c8ea" d="M826.2 84.6l-61.3 12 102 26-55 28" />
      <path fill="#9578ae" d="M930 122l35.4 11-27-42.7 77.8 5.3" />
      <path fill="#6d6d6d" d="M258.4 199l-3.6 87-4.3-269.5 7 7" />
      <path fill="#f9f9fa" d="M403 234.4L428 365l-98-16 60.3-14.4" />
      <path fill="#b5b5b5" d="M339.5 85.7l-15.8 6-1.3-37 85 11" />
      <path fill="#fff" d="M245-31l-8.8 373.4-159-21 124-147.5" />
      <path fill="#7c7c7d" d="M281 462l5-145.7 48 113.2 61.2 17" />
      <path fill="#a49d58" d="M885.4 414l6.7-173.6L904 382l21.3 42" />
      <path fill="#92963b" d="M867 469l40.8-11.2-102.3 17.5-30.3 29.5" />
      <path fill="#59268d" d="M835.3 553l106.3-1.5 59 3.3-112.5 1.8" />
      <path fill="#9b9b9b" d="M659.8 749l9-64.5-40.8-10-18 77" />
      <path fill="#b4b3b4" d="M111.3 746.6l-1.8-69.3L53 731l-69.7 14" />
      <path fill="#a09416" d="M939.4 146l-33.2 78.4 37.5-54.5-61.4-27" />
      <path fill="#fff" d="M893.6 402l-46 146.5 74.3-10-73-149" />
      <path fill="#b49d1e" d="M844.8 180.5l6.4-32.8 28.4 67.6-43-38.2" />
      <path fill="#5e5f60" d="M156 362.8l18.5-27.2-49.6 2 29 18" />
      <path fill="#828383" d="M564.4 12.4l42 2.3-8.2 47.4-36.6-9" />
      <path fill="#0d1211" d="M597.4 543.2l7.5-318.4V411l10 134" />
      <path fill="#3a3b3b" d="M434.5 692.2v-11.4l-73 1.7-11 22" />
      <path fill="#9a8a00" d="M927.2 94.8l-38.4-76L928 59.2l-31.7 47" />
      <path fill="#d44656" d="M619.4 127.8l8.8-9.3 6.2 40.5-11.6 11.7" />
      <path fill="#979798" d="M956.6 624L942 588.4 929.7 644l81.7-17.4" />
      <path fill="#fff" d="M1055 150.3L892 124l43.5 25.8L1016 679" />
      <path fill="#ebebec" d="M381.3 398.8l-69.8 15.4 117 37.5L414 346" />
      <path fill="#0a0d0c" d="M665.3 676.5l-.8 56.3 14-.4.3-47.8" />
      <path fill="#787878" d="M726.7 589.7l4.5.6-8.6 98.7-2-93" />
      <path fill="#00b552" d="M861.8 703l-2-131.7-.8 15.6-3.2 36" />
      <path fill="#aaaaab" d="M51.5 226.6l2.7-85.3L33 351l-4.6-121" />
      <path fill="#a3a3a4" d="M347 330.8l133.5 106.5 23.5-11-74.7-51.7" />
      <path fill="#fff" d="M901.4 119.5L984.2 1.2l70.8-15-152.2 153.2" />
      <path fill="#bbb" d="M178 570.7l399-24.4 39.2 7.2-44.7 19.6" />
      <path fill="#767871" d="M887 202.8l14.2-5.7-.7 144L889 225" />
      <path fill="#f4db42" d="M991.7 558l-8.8-16.4-137 7.8 131 2.3" />
      <path fill="#fff" d="M910 73l-22 60.7L859.4 60 887 37" />
      <path fill="#fefeff" d="M217.2 465.5L308 388l-61.2-11-79.5-133" />
      <path fill="#c7c8c8" d="M298.8 176l6.3 148.3-63-16 9 230.3" />
      <path fill="#737474" d="M388 157.2L273 159l41.8 82.8-42.2-122.3" />
      <path fill="#b16574" d="M631.4 407.7l-28.3 1.5 41 56.5-34 5" />
      <path fill="#fff" d="M878.8 555.5l9.6-166.5 1.5-193.8-17 87" />
      <path fill="#959595" d="M238.6 675.5l-56.8 2 189 4.4-265.8 2" />
      <path fill="#8c873e" d="M900 427l25.4-41.3-42 50.2 12.4 44" />
      <path fill="#fff" d="M213.4-31l39.8 144.3-144.5-1 67-38" />
      <path fill="#fff" d="M132.7-31L96 428.6l38.7 32.3-.6-85" />
      <path fill="#89898a" d="M312.8 657l-5.8 7-3.3 89-13.5-30.8" />
      <path fill="#8a8a8a" d="M254 585l-2.4-90.5 4.5-129 2 146.6" />
      <path fill="#fefeff" d="M380.2 487.3l203 13.6L426 554l179.3 4.8" />
      <path fill="#fff" d="M861 395.7l-16-236.3 26.6-24L613.4 100" />
      <path fill="silver" d="M48.8 266.3l-.4-239.6L112.6 10 96.8 114.3" />
      <path fill="#fff" d="M76.5 574l183.2-1.6L1 757.2l-32-349.5" />
      <path fill="#fffffd" d="M897.4 350l54.5 52.3-95-4.5 48 29.6" />
      <path fill="#7c7c7d" d="M169 406l-41.3 4.4 37 30 3.4 59.2" />
      <path fill="#999392" d="M839.2 158.6l-31.4-55.8 5.2 33.8v16" />
      <path fill="#6c6d6d" d="M369 729l109.6 21.4-129-1.3 6.4-68" />
      <path fill="#757575" d="M490 187l-20.4-5-7.4-27.2 52 3" />
      <path fill="#fff" d="M550.7 336.2l-100.4-8 31.5-153 73 61.8" />
      <path fill="#3c3e3e" d="M300.4 118l1.7-38.5 60-7.5 21 49" />
      <path fill="#6f729d" d="M626 506.2l-18 7.2 74.8.6 24.7-6" />
      <path fill="#c7c8c8" d="M330.3 122.4L324-12.3v417.8l4.8-231" />
      <path fill="#8d8d8d" d="M601.3 393.6l-1.4-46.8-59 61.8-7 38.7" />
      <path fill="#717376" d="M874.5 300.6l.3-111-8 19.3-5 51" />
      <path fill="#fff" d="M819 89l32.8 38-28-158-206.3 85.8" />
      <path fill="#8e8e8f" d="M348 748.2l-72.6 2-186.2-.4 271-4.4" />
      <path fill="#fff" d="M1055 625.7L898.8 305.2l9.8-86.3 115.7-12M854 745l8-17.7L970 627l85.2 117.4M367.5 231l-32-9.4 44.3-1.6.4 8" />
      <path fill="#66696c" d="M866.2 558l-1 84.2 2.8 31.2 2.3-119.7" />
      <path fill="#5a5b5a" d="M393.4 437v29.4L379 453.8l-80.4-4" />
      <path fill="#a2a580" d="M962.5 489.8l-30.3 22.5 5.2-40 41.2 4.5" />
      <path fill="#fff" d="M533 81.5L522.5-31 459 123.8l140-34" />
      <path fill="#aeafb7" d="M791.3 439.4l-24.4 42 3 10 32 31" />
      <path fill="#212323" d="M274.5 354.7l17.5-19.5 22.8 61.7-1-43" />
      <path fill="#2a2b2b" d="M590 398l-25.6 102.4L566 386l10.7 129.5" />
      <path fill="#707670" d="M902 152.7l-11.3-4 1.6-45.3 12-8" />
      <path fill="#ebebeb" d="M386.7 455.4L311 449l-14.4 48.7.4-26.3" />
      <path fill="#454646" d="M380 189.4l-1.2 27.8-136.2 2 8.6 2" />
      <path fill="#8e67ae" d="M995.6 111.7L953.2 99l14.7-8.4 23-3.6" />
      <path fill="#e0e0e0" d="M513 187.7l-175.6-31.4-94.8 21 74.4-2.6" />
      <path fill="#575858" d="M135.5 159.3l-3.6 29 44-9.3-35-4.2" />
      <path fill="#fff" d="M785.5 544l56-73 184.6 77.3-93-2.5" />
      <path fill="#a46908" d="M850.5 90l-8.3-33.8 57.3-25-31.4.5" />
      <path fill="#252727" d="M338 232.4l23.2 54.6 31.6-15.4-117-44" />
      <path d="M607.5 28.2l-2.7 197.5-5.6-205.2 1.5-10.7" />
      <path fill="#590000" d="M873.5 390.2l-33.3 23 15.4 2.2 11-30.3" />
      <path fill="#fff" d="M877.2 789.5l-197.4-3 5-185L767 727" />
      <path fill="#6d6d6d" d="M411.2 180.3l30.2 11-14.8 38.5 49.4-1.2" />
      <path fill="#d73c3f" d="M633.3 359.2L601.8 342l12.5 9 9.7-19.6" />
      <path fill="#a4a4a5" d="M119.7 710l3.7-40.3-2.7-14.4 23.8-2.4" />
      <path fill="#44009b" d="M920.2 128l-.6-8 20-1.2-8.7 14" />
      <path fill="#000302" d="M309.5 36.6l7.5-.8 5 107.8 1-136" />
      <path fill="#b6b6b7" d="M115 141.2l39-40.3 67.2 29-15.6 44" />
      <path fill="#fff" d="M-31 586l449.4 6.5L337 705.7l-11.6-58m-112.8-182l-50 82.4 85.2 1-20-570" />
      <path fill="#cbab00" d="M912.5 422.4L899 417l-12-51.6 35 45.2" />
      <path fill="#eff0ef" d="M309.5 120.5l-5 16 38.8 9.2 43.5-21.8" />
      <path fill="#c8c7c8" d="M525.8 31l42 155-5.6-64.4-10.4 76.6" />
      <path fill="#727374" d="M449.3 371.5l19.2-2-35.6-27.7-9 10.7" />
      <path fill="#181a1a" d="M365.5 519.8L378 555l2.4-88-9.5 7.3" />
      <path fill="#aaacb1" d="M806 362.7l22.7-17.2 92.5 19.3 28.6-20" />
      <path fill="#abacab" d="M333.3 538.2l-11-89.2 2 106.3 14.7-79.6" />
      <path fill="#fff" d="M966.5-24.6L543.2-31l211 135.7L816.8 63" />
      <path fill="#907f00" d="M925 82.2L907.2 28l7.7 84.2 4-22" />
      <path fill="#bababb" d="M301.5 399.3l-2.8 103-12.3 120.4 13.4-305.3" />
      <path fill="#a4a4a4" d="M590 189l-20.2-1 .6-37.4 20 105.8" />
      <path fill="#fdfdfe" d="M556 355l-86-14.4 9.4 69.7 76-3.5" />
      <path fill="#fff" d="M867.3 196.4l96.5-17.7-9 23.2-77.5-63" />
      <path fill="#c7c7c8" d="M142 545.8L58 569l127.2 6-35.8-126.7" />
      <path fill="#fff" d="M950.5 490.2l-5-81L905 217.5l150 179" />
      <path fill="#b9b9b9" d="M450.6 17L436 12.3l-3 211.3 17-81.6" />
      <path fill="#fff" d="M862.4 461.6l-263-18.2 288.2-28-28-24.3" />
      <path fill="#747672" d="M726 543l37.7 13.7 128.8-5-100.3-3.6" />
      <path fill="#4c4d4d" d="M286.3 382l-28-9.2 130.4-8.7 4.7-14" />
      <path fill="#414644" d="M615.3 511.3l-75.6 5L602 540l7.8-190" />
      <path fill="#aeaeaf" d="M762.5 617.6l-21.2 10.8L774 643l-2.8 50" />
      <path fill="#fff" d="M610.4 13.6L432 12l-110.4 1L259-31" />
      <path fill="#fff" d="M421.6 181.7L419 119l-2-150-28 94" />
      <path fill="#a3a104" d="M893.8 209l24.5 5.7 17.5-24-1.2-1.4" />
      <path d="M590.8 437.8l3 61 1.5-57.7-2.8-116" />
      <path fill="#fff" d="M48.2 109.7l-1 130.7L-31 105.6 47.8-31" />
      <path fill="#fbfbfb" d="M269.3 167.3l-14.3 181 47-29.4-8.8-36" />
      <path fill="#161817" d="M576.3 135.3V12.6l6.2 132.6-4.8 115.3" />
      <path fill="#fff" d="M869 640.2l5-82.4 72.3.2-34 150M906 110.6l149-58.8-144.7-22.3 40.7 96m-126.4-.5l43.8-32-4.4 66-55.4-190" />
      <path fill="#acacac" d="M588.2 649.5l31.2 8-15.7 19.2 9.4 20" />
      <path fill="#f9f9f9" d="M451.6 309l6.5-136-6-146.3-2 181" />
      <path fill="#0e1111" d="M379 78.4l-21.4 3.2 21.2 47.2v4.2" />
      <path fill="#00a646" d="M857 554l9.6-12.7-5-1.2-3.4 87" />
      <path fill="#cfd0d0" d="M347.4 560.4l-.2-185.8-5.3 172 58 127.6" />
      <path fill="#fcfcfd" d="M524.6 419l35.4 41.5-89.3-1-41.7 189" />
      <path fill="#8d8e8e" d="M462.5 452.6l21-.4 4.8 9.2-45 2.4" />
      <path fill="#fff" d="M380.2 747.7l.6-42-7-63.3L378 742m472.6-576l-44.4 278.4-190.5-115 26.5-257.2" />
      <path fill="#777778" d="M522.2 680l163.4 7-24.8-6.6-68.4-1" />
      <path fill="#b1b1b2" d="M980.6 594.8l-4.8 5.2 1.2 6-105.6-3.7" />
      <path fill="#676e4c" d="M873.7 421l-5.2 55.2-6.7-56 3.2 1.7" />
      <path fill="#505151" d="M685.5 747l-82.6 2.4 21 .8-113-2.2" />
      <path fill="#fff" d="M837.5 421L608 338.2l254.2 61.6-1.4-166.7M81.2 660l-91.5-382-8.7 421 93.4 43m630 7l341.5 15-1077 8 415-19" />
      <path fill="#060808" d="M366.7 81.8l14-64.2-15.5 3.3 8 93" />
      <path fill="#565757" d="M285 158.6l99.3-18 12-19L391 154" />
      <path fill="#9b9b9b" d="M270 590.3l-31.2-9h41.6l181 .5" />
      <path fill="#777778" d="M414 737.4l.4-70.7 16.3-2.6-24.3-12" />
      <path fill="#88b9a1" d="M893.6 658.4l-4 55.8-11.6-4.7-1-29" />
      <path fill="#858585" d="M222.3 655l-10.3-1.7 12 24.6 8-24" />
      <path fill="#a4a5a5" d="M342 303l-73.4-17 81.3 12.7-5-163" />
      <path fill="#fff" d="M450.2 706l131.5-136-211.3 26.3 70.2 84" />
      <path fill="#7f7f7f" d="M819.4 739l-5 9.2-3.6 6.7 36.3-4" />
      <path fill="#232524" d="M389.5 248.3L375 281.5l-75-25.7 1 30.3" />
      <path fill="#845500" d="M926.4 473.3l-2.8-10-5.2-3.8-7.5 23" />
      <path fill="#00a9dd" d="M872.5 125l-40 4.6-2.4-4 14-5.6" />
      <path fill="#79797a" d="M913.5 24.2l24 2.7 2-10-6.4-6" />
      <path fill="#fff" d="M621.2 518l.4 161.5 73 .6 57.7-172" />
      <path fill="#a8a9a9" d="M589.7 150L573 324l-36-190.7 55 206.5" />
      <path fill="#b0b4b2" d="M971 709l-86.8-4-47.4 6.8h151.4" />
      <path fill="#9a9a9b" d="M253 197.7l5.5 127.6-7.2 46.6v-42" />
      <path fill="#f9f9f9" d="M306.3 546.6l18 3.6-95 6 124.8 1" />
      <path fill="#828283" d="M218 454.8l-6.7 16-12-1-75.7-11.6" />
      <path fill="#8d8e8e" d="M945 199.7l25 17.3-3.8-23.5 1 3.3" />
      <path fill="#fff" d="M897 415l42.7 20.2-128 111.8 115.2-5m-508 23.6l-1-7-26-24.6 23-135" />
      <path fill="#747aa0" d="M597.7 299.7l7 5.7 45.5 6.5-25.7 8" />
      <path fill="#aeaeae" d="M445.6 140H513l5 58.7 3.2-77.5" />
      <path fill="#878887" d="M598.5 528.3l2.8-54-63.8 16.8 52.5 15" />
      <path fill="#828383" d="M243.7 120.2v90.3l9.6-111.8L259 126" />
      <path fill="#515353" d="M305 492l33-11-69.6-26.3 28.2-2.2" />
      <path fill="#949495" d="M175.3 74.6l-29.4 9-5-31.6 7 10.4" />
      <path fill="#666" d="M565 106.3L545 126l-3.3 9.5-3.8-20" />
      <path fill="#aeaeae" d="M321 328.8l22.7-1.4 18.5 24.2-37.6 3.5" />
      <path fill="#acabac" d="M51 465l-2.3 82.6 17.5 4.2 1.4-65" />
      <path fill="#ec1115" d="M624.5 222l10.8 5-15.3.7-5-6.8" />
      <path fill="#fbfcfc" d="M121.5 143.2l114.2 12-135.2 1.5 44.3 175.6" />
      <path d="M681 718.3l-5-34-1 58.4 3.3 10" />
      <path fill="#f1f1f1" d="M405.7 265.6l19.5 4.3-51.5-30 81.5-14" />
      <path fill="#908f90" d="M327 654.7l4 1.6-24.3-2.5 4.5 25" />
      <path fill="#5dd4fb" d="M827.6 107l-50 .3-13.2-9 13-9" />
      <path fill="#8f860a" d="M933.4 196.2L918 143.8l24.4 30-18.6 25.3" />
      <path fill="#828383" d="M372.8 687l112.6-3.8 47.3-2.6-62.5-2.6" />
      <path fill="#ff4140" d="M630.5 426.3l-2.2-15.4-3.4-8-9 23" />
      <path fill="#a0a1a1" d="M757.3 712.5L742 697.3l27.2 10 98.4 2.6" />
      <path fill="#0e1614" d="M609 387.3l-8-55.8L615.2 438l-2.8-208.3" />
      <path fill="#929292" d="M729.4 584.4l-9.5 6 5 55.2 5 16.4" />
      <path fill="#cccdcc" d="M364.8 451.2v-148l-4 206.8 3.7 56" />
      <path fill="#fefefe" d="M555 188.7l-33.6 173.8L463 168l-98 12.8" />
      <path fill="#b5b5b5" d="M408 366.3l-37-49.6 28.7-20.6-25 120" />
      <path fill="#c3c3c3" d="M355 504.6l2.4-121.5 16.3 28-30.3-50" />
      <path fill="#a4a3a3" d="M573.5 54.5l17.6 7-5-50.5-46 72" />
      <path fill="#040606" d="M323.7 265l-2.8-95.6-12 90.3 2-89.7" />
      <path fill="#434657" d="M597.8 387.6l51 4-87.6 18.7 30 11.8" />
      <path fill="#a5a51e" d="M789 489.2l-7 .4 57.5-4.7-11-20" />
      <path fill="#fff" d="M1055 226.4l-156.6 134L905 216l-69.8-9.4" />
      <path fill="#898989" d="M333 738.5l1.3-19.2-3.2-20.7 43-1.3" />
      <path fill="#cfd0cf" d="M343.8 93V36l5 25-3.7 84.4" />
      <path fill="#7f7f7f" d="M149.8 95.8L143 103l28.2 11.8-13 33.7" />
      <path fill="#fff" d="M805 430.4l62 82.2-45.5-76.2 132.8 4.4" />
      <path fill="#77824b" d="M854.5 172l27.2-51.2L847 87.2l33.4 19" />
      <path fill="#272828" d="M309 407.8l3.2 112.2 2.6-79.5v-13" />
      <path fill="#343535" d="M378.6 354.5l-62 2 41.6 3 20.3 44.6" />
      <path fill="#b50107" d="M839 398.8l.4 21.5 18-4.3-1.3-16.3" />
      <path fill="#dedede" d="M121.7 524.5l-43.4 42.8-5-31-3.6-206" />
      <path fill="#b7b6b6" d="M28.2 361.8l41.8-98 .3 136-39-121" />
      <path fill="#171919" d="M317 357.2l.7-166.2 4.3-65.2 1 155.8" />
      <path fill="#181a16" d="M586.2 79.3l-32.3-18 44-2.3-6 30" />
      <path fill="#afb0b0" d="M370.4 136.5l31-93.5-23.8-29.7 5 144" />
      <path fill="#ad1313" d="M621.5 141l10.5-18-57 1.3 44-.4" />
      <path fill="#3c3f3f" d="M588.6 339.5L581 330l-1-136.7-6 195.8" />
      <path fill="#fffefd" d="M615.4 424.6l-.7 91.3 4.8-65 188.2 32" />
      <path fill="#feffff" d="M794 464l14.5 49.6-4-42.7 127.8-46" />
      <path fill="#fff" d="M688.2 336.6L859.8 348l6.3-149.7 82-80.3" />
      <path fill="#cbcbcb" d="M443 334.7l9.4 233.8 141.8-20.3-170.2.8" />
      <path fill="#a6a6a6" d="M587.2 439.7l-27-6-121.5-46.3-26 15.4" />
      <path fill="#fff" d="M139.2 78l-13.6-20.6-56.2 8.2 7.6 9.7m141.3 349l35.6-111L225 143l-60 253.7" />
      <path fill="#b5b7b6" d="M572.5 331l-9 98.8L550 348l27 70" />
      <path fill="#fdfdfd" d="M602 85.4l-135 5-8 23.7 111.4-19" />
    </g>
    <g class="SVG--1">
      <path fill="#a9a9aa" d="M500.2 650.5l17.5 8.6-13.5 14-9-16" />
      <path fill="#acafad" d="M598.6 281L597 178.7 599 23l2.2 41.7" />
      <path fill="#c5c5c6" d="M417.4 342.6l3-84.8 31.2-35.3-1 108" />
      <path fill="#bfc1c0" d="M365.7 68l-3.5 11.5-1 3.5 3.2 64.5" />
      <path fill="#313131" d="M304.4 477.5l-2.2-61.8-.8-90.5 5-19" />
      <path fill="#8ba295" d="M966.7 623.5l46.8 6-76.7 1.2-48.8-3" />
      <path fill="#fff" d="M896.5 43l-45 43.4 51 15.4 4-21.3" />
      <path fill="#fdfefe" d="M670.5 788l2.4-204.6 127 205-123-139.2" />
      <path fill="#cacbca" d="M176 196l146.6 232 4.7-159.7 1 170.2" />
      <path fill="#e7e7e8" d="M353.6 452L455 478.2l3.3-2-165-13" />
      <path fill="#fff" d="M1052-31L914.8 553.6 997 92.2 904-31" />
      <path fill="#070b0a" d="M368 198.4l2 14.3h24.2l-2.4 15" />
      <path fill="#fff" d="M87 745.6l-118-.8L40.7 799l240-42m-102-584.4l-.7 160.8 39-93.7 48.7-37.3" />
      <path fill="#fefefe" d="M564.6 530.5l-116-46.2 4 63 113.3.8" />
      <path fill="#d0d1d1" d="M356 73.3l-.5 84.6-5.2-93 138 26" />
      <path fill="#fff" d="M614 147L864-26 709 174l150-42" />
      <path fill="#7b7b7b" d="M499.3 746.8L361 748l177.3 2.6 40-2.5" />
      <path fill="#a0a1a0" d="M343.7 310.7l2.5 51.7 9-99.8 1 105.7" />
      <path fill="#9fa0a0" d="M24.8 743.2l151.6 4-59.5 4-19-16.8" />
      <path fill="#fff" d="M879.2 422.8L887 261l-.4 146 98.2-68.6" />
      <path fill="#0f1211" d="M323.4 541l-8-11.8 1.5-3 3-100.2" />
      <path fill="#708ab7" d="M644.2 161l4.3-1.2-45-8.4 40.5-4.2" />
      <path fill="#fff" d="M275 571.7l105 4-203.2 8 136.5-16m453 99l-26.6-470.2-120.4 249L769 544.7" />
      <path fill="#d0d0d0" d="M352.4 398.7l1 155.4L326 677l31.6-138" />
      <path fill="#696a6a" d="M157.7 343.2h32l-49.5-9-18 10.2" />
      <path fill="#fff" d="M794 559.2l90 205-8-77.8-105.5 10.2" />
      <path fill="#c1c1c2" d="M767 693l1.4-109.3L776 746l-11-15.8" />
      <path fill="#c0b600" d="M950.6 476.5l-7.5-6.8-21 2.3 17 17" />
      <path fill="#fff" d="M1055 106.6l-110.4 1 84 69.7-113.8-34.6" />
      <path fill="#967f00" d="M863.5 194.6l-13-42 12.4-.7-14 38" />
      <path fill="#f5f5f5" d="M458.3 156.7l32.3-19.2 3.6 6.6 65.6 15" />
      <path fill="#aeafae" d="M601 412.5L597.7 278l-2 49.3v308" />
      <path fill="#fbfbfb" d="M396.7 296.2l20-86 4.8 144-26 68.7" />
      <path fill="#fff" d="M614.7 13.8l5.2 53 124 2.5 198-65M633 760.6l-1-174.3-114-14.8L639.8 686" />
      <path fill="#bcbebd" d="M575.4 522l-1.7-107.5-3-79 2 168" />
      <path fill="#101210" d="M589.6 439l-7.8-23.2-4.8 97.5V391" />
      <path fill="#494a4a" d="M446.7 230.3l-18-3 2.6-42-2.6-.2" />
      <path fill="#909296" d="M802.8 513l-39.3-41.5L773 492l35.4 32" />
      <path fill="#fff" d="M461 749.4L137.4 752-20 799l838-46.4" />
      <path fill="#7e7e7e" d="M240 345.8l44.5-.3 41.5-54.8-62.7 67.6" />
      <path fill="#676868" d="M587 547.6l-22.4-43 1 46.6 57-1.5" />
      <path fill="#fffffc" d="M774.3 509.5l181.6-24-24 16.7-56-36.2" />
      <path fill="#fff" d="M223 587.5l129 91.3 52.6 1.8 4.3-86" />
      <path fill="#f2f2f3" d="M149.4 486.3l.3-192.4L162 452l1-104" />
      <path fill="#202121" d="M350 302.5l33 8.5-9.8-62.4-13.7 95.3" />
      <path fill="#040807" d="M601.4 146.2L600.2 250l2.3 30.7 5-54.6" />
      <path fill="#bbb" d="M367 177l-1.6 48.3-8.3-61.5L485 215" />
      <path fill="#1f2121" d="M362.8 29.3l-4.2 76.8-2.8-71-27.4 25" />
      <path fill="#fff" d="M459.7 554l260.6-4.2 119.5 64.7-246-57.6" />
      <path fill="#fbffff" d="M840.5 132l68.5 44-74.5-38 170.8-1.4" />
      <path fill="#767676" d="M425.3 682.4l42 47.8-1.5-36.2-37 15.8" />
      <path fill="#a5a6a5" d="M335.7 218.8l-1.4 109.5 2.2 90L339 273" />
      <path fill="#2d2e2e" d="M333.4 405L331 302.4 329.6 446l1.4 6" />
      <path fill="#483332" d="M637.6 455l-124 8.3 23.2 8.4 57.5-20" />
      <path fill="#fff" d="M302 685.8l-64.4 3L205 742l79.5 5.8" />
      <path fill="#313232" d="M351.6 303l-.2-130-3.7 73.5 1.8 144" />
      <path fill="#6a6d52" d="M862.7 470.4L875 476l-14.6-32.3 10-15.5" />
      <path fill="#f7f7f7" d="M595.6 496.8l-8 8.7-187.5-2.2 95-4.5" />
      <path fill="#05b055" d="M859.6 568.5l-.3 78.7-4.2 20.5 6 26" />
      <path fill="#7e8a1d" d="M899 372l.2 30.7-13-11.3 3.3-23.8" />
      <path d="M311.3 74.3l.2-39.2 3.6 85-6 3" />
      <path fill="#4a4c4b" d="M375.2 748.6l-1.7-16-11.7-2.6-17.6 21" />
      <path fill="#585858" d="M481 155.3l6.7 19-22.4-19.6 2.8 37" />
      <path fill="#fffffe" d="M922 198l-55.2-9.5-3-38.8 55.4 4" />
      <path fill="#bbbbbc" d="M443.8 343l91 4-68-17 6.2 107.3" />
      <path fill="#101212" d="M339 144.3l6 126.2-32 2.2 27.6-16.6" />
      <path fill="#fff" d="M272 283.6l6 114.7-66.6-2.7 58.3-15.4" />
      <path fill="#fcfcfd" d="M548 156.7l-27.5-2 32.7-151-103.7 29.8" />
      <path fill="#5e5f5f" d="M316.7 679.6l91 2 29 1.3-1.7 18" />
      <path fill="#8e8e92" d="M770.3 675l-1.6-30 1.7-108.2 1.2 82" />
      <path fill="#94889d" d="M937.2 637.8l14-1.8 10.7 9.2-62-4.5" />
      <path fill="#2c2d2d" d="M360.8 540.6l-4.6-69.4 7.2-115.8-4.7 2" />
      <path fill="#bab9b9" d="M227.8 573.7l75.6-17-139 .6-105 13" />
      <path fill="#fff" d="M859.5 167l-121 27.3-122 207.5-1.4-40" />
      <path fill="#6c6d6d" d="M285.5 117.2l-2.5 93.2L294.5 78l2 115.5" />
      <path fill="#fff" d="M648 508.2L767.5 477l31.8 29.5-158-270M224.3 120l-46 1-1.6-145.4L254 41" />
      <path fill="#222424" d="M343 339l-2.8-153.4-3.8 134.7 5.3 90.3" />
      <path fill="#2f2f2f" d="M591.8 72.6l-1-59.2 22.7 2-19.7 5.7" />
      <path fill="#a29f21" d="M917.8 39.7l-32.3-1.2 44.7 43.3-25 19" />
      <path fill="#1fbd69" d="M851 682.3l40.7 4.4-18.4-6-13.8 1.6" />
      <path fill="#e0e0e1" d="M304 351.2l48.5 3 190.2-23-170 6" />
      <path fill="#f8f8f8" d="M458.7 750.3l-111 14.8 1-128 4.7 120" />
      <path fill="#030505" d="M597.3 148L583 113.3l-17.6 34.3 2-15.2" />
      <path fill="#d2d2d2" d="M301.7 166.5L299.3 44 297 194.6l2 126" />
      <path fill="#6e5d58" d="M822.4 120l3.7 1.5-4 11-14 1.8" />
      <path fill="#737373" d="M256.6 210.6l.6-56L255-12l-2.4 198.5" />
      <path fill="#a4a5a5" d="M93.5 560.2l5.2-60-2.3-75-3.3 10.6" />
      <path fill="#fff" d="M835.6 342.3l77 7.5-33.7-12.4 5 4.6" />
      <path fill="#aa8e1f" d="M862.7 95.6L836.3 78 876 40.7 853.4 61" />
      <path fill="#bf0709" d="M626.4 157.8l-20.4 7.8 6-3.8 13.2 3.5" />
      <path fill="#b4b4b4" d="M999.6 718.2l-21.8 4.4h.5l24.4 15.8" />
      <path fill="#fcfcfc" d="M316.6 137l25.3-15.5 41 6.6-7 13" />
      <path fill="#fff" d="M53.6 713.2l177-140-149.4 7-8.4 175.5" />
      <path fill="#bababa" d="M51.5 31l-2.3 86 24 122.6L71 3.3" />
      <path fill="#fff" d="M872 72.2L720.8 189.6l16.2-68.4 112.3-20.5" />
      <path fill="#e5e6e5" d="M391 776.4l-4-74.4-13.8 70.8 5.8-94.6" />
      <path fill="#a3a3a3" d="M245.5 174l-56-15.2-36.6-1.6 6 17.4" />
      <path fill="#595b5a" d="M292 13.3l78.8.4-65 7.7-15.5 3.2" />
      <path fill="#fff" d="M987.4 743.2l-162 32 205 23.8 24.6-153.4" />
      <path fill="#fff" d="M1055 672.7l-129 38-54-68.7 80.2 7.4" />
      <path fill="#eee" d="M419.3 255.2l-23.8-150.7 1 196.2 14.5-256" />
      <path fill="#6a6e41" d="M873.4 104l-7 51.8 1.7-48.4-25-38" />
      <path fill="#e0e0e0" d="M72 486l47.3-100.4L73.7 13.2 70 318.7" />
      <path fill="#b1b1b0" d="M588.8 526.5l3 63.4-7.4-35 6.2-206" />
      <path fill="#9d9d9d" d="M353.7 285.3l5-62.2-7.7-18 1.7 20" />
      <path fill="#ecedec" d="M352.5 469l-5.2-4.7-46.8-10.5 79.2-1.7" />
      <path fill="#404242" d="M547 496.6l39.6-1.4 27.3-6.8-58-.4" />
      <path fill="#f0f0f0" d="M394 411l170.7 53-180-31.4-71.6-26" />
      <path fill="#2c2b2c" d="M302.6-15.5l4.5 197.7-5 1.2 2 51.3" />
      <path fill="#131616" d="M564 457.8l28.7-9.5 1.8 63.3-7-50" />
      <path fill="#686767" d="M412.6 228.3l.7-10 1.5-5-24.4-3.2" />
      <path fill="#989999" d="M362 413.7l-1-55 2.3-132.3 4.5 105" />
      <path fill="#fff" d="M646 571l-210.8 6.8-98.8 79.3 283-4" />
      <path fill="#a3a3a3" d="M31.3 251l5.4-45.2 2.8 36L35.7 357" />
      <path fill="#fff" d="M869.3 603.7l140.4-16.8 23.4-31-162 3" />
      <path fill="#a89c27" d="M855.5 68l2.2-22.8-5.4-5.6 32.3-15" />
      <path fill="#151818" d="M362 307.2l22 25.8-17.3 3-9.8-108" />
      <path d="M368.3 299.8l-.7-75 11.6 67.7-2-41.7" />
      <path fill="#959696" d="M429 586.2l16-1.6-59.8-4.2.4 9" />
      <path fill="#000101" d="M341 16l-2.2 7.8.7 94.3 4-58" />
      <path fill="#020605" d="M329.7 112.6l3.2-50V38.3l-4 7.5" />
      <path fill="#929292" d="M377 89.8l11.7 86.5L404 117l5 32.6" />
      <path fill="#1a1b1b" d="M367.6 521l1.5-56.7-11 76v-77.5" />
      <path fill="#cecece" d="M338 117.8l-4.7 98.2 1.6-83.2V54.5" />
      <path fill="#fdfffc" d="M861.5 97.8l52-11.8-60.3-20.5 71.2 3.7" />
      <path fill="#b3b3b3" d="M572.8 164.6l-8.8-25.4-32 45.5 44.3-40.2" />
      <path fill="#b2b1b3" d="M529 697l1 47.5-10-31-59-15.7" />
      <path fill="#fff" d="M-31 375l81.2 101.5L19.8 271l27-.5" />
      <path fill="#3e4040" d="M323.2 238.7l-52-3L283 232l18-2.8" />
      <path fill="#808591" d="M886.5 375.5l7.7-111.5-5.4 7.6 9.7 99.2" />
      <path fill="#fff" d="M823 358L617 188.2l184.2 246 66-53.3" />
      <path fill="#d4d3d3" d="M476.5 662.8l-60.2 68.7-7.8-48.2L396 728" />
      <path fill="#f9f9fa" d="M299.7 196.5l-83-4.5 42.6 15.3 41.2 3.7" />
      <path fill="#fffffe" d="M886.3 27l7.4 50-35.3 36-3 33.6" />
      <path fill="#fff" d="M898 128l47.2-16.6L918 39l109-70" />
      <path fill="#b4b4b4" d="M307.6 536.8l-41.4-189 37.4 187.6 5.7-165" />
      <path fill="#091115" d="M611 482l1.5 34.3 3.2 8.8-3.7-121" />
      <path fill="#fff" d="M70.6 13L391 6.3 10-31l-41 84" />
      <path fill="#121514" d="M672.2 739l-5.8-30-2.3 18.7 7 26.3" />
      <path fill="#fcfcfc" d="M468 697.5l-22.4 1 31-90.7-4 142.4" />
      <path fill="#cecece" d="M329 458l-3-122.2-2.8 137.2 2.4 167.6" />
      <path fill="#8c8c8d" d="M121.5 698.5L123 664v76.7l-5.4-32" />
      <path fill="#fff" d="M-31 240l67.4-16.2L47.2 397l2-290.5" />
      <path fill="#a8a8a8" d="M308.8 206.8v-53.3l-4.3 103.2 3.4-12.2" />
      <path fill="#a3a3a2" d="M835.5 345.2L817 360l-10.4.8 41.3.5" />
      <path fill="#8384ac" d="M705 73l-6.6 3-102.6-3 59-3.6" />
      <path fill="#5b5b5b" d="M559 263.7l-.3-142.7-.2-58.8-3 118.5" />
      <path fill="#5d5e5e" d="M420 386.7l20-40 7 17.3 7-21.3" />
      <path fill="#bbbbbc" d="M333.6 568.2l3.8-82-.7 70.2 161 17.8" />
      <path fill="#979695" d="M941.5 362.6l-25.8-.3 3-16 4-1" />
      <path fill="#838383" d="M942 710l.4 21.7 7.4-1.2-6-20.4" />
      <path fill="#b3b3b3" d="M144.8 507.5L175 522l-35.8 2.2-15.6-7" />
      <path fill="#9c9c9d" d="M253.6 230l-16.4-4.7 25.3-15.6-6 40" />
      <path fill="#82886c" d="M875.6 305.4l-5 130v-114l-6.7-2" />
      <path d="M606.8 451l-2-112.8-4.2 61.6 2 118.6" />
      <path fill="#353736" d="M339 451l6.6 107.3-8.2-26.4 4-110" />
      <path fill="#f7f7f7" d="M469 510.2l-19.5-111.7-4 70.6 121.2 12" />
      <path fill="#f8f8f8" d="M149.8 664.6l3.8-152 .4-124-5 91" />
      <path fill="#fdfefe" d="M292 100.6l1.4 20.5-27-72 6 89" />
      <path fill="#dbdbdc" d="M182 218.6l-39.2-26.3 1.3 201.4-2-49" />
      <path fill="#fff" d="M883.8 14L478 11.4 946.6-31l-40 74" />
      <path fill="#242626" d="M320.6 330l-8 63.5-2.4-52.8 14 78.3" />
      <path fill="#fafafa" d="M553.4 176.6L556 10l189.5 7.5L548-31" />
      <path fill="#2b2a2a" d="M352 701.5l6.4 26.2-3.7 9 .7 13" />
      <path fill="#cfd0cf" d="M574.5 135.2V63.7l-1.7-50-2.5 14" />
      <path fill="#5b4e66" d="M918.3 123.7l32.5 2 2.4-12.8 10.3 17" />
      <path fill="#ae7a00" d="M929 474l-6.5-11.5-12.8 5 10.4 13" />
      <path fill="#b0b0b1" d="M446.3 422l-.6 131.2-63-2.8 68.6-3.4" />
      <path fill="#fff" d="M833 405.6l2.3 53.3 56.5-81-42 48" />
      <path fill="#303333" d="M681.5 694l-6.6 3.7-18-17.7 22 1" />
      <path fill="#131615" d="M141.4 183l-1.8-11.2-4.2 2-1.7 8.2" />
      <path fill="#626516" d="M826.6 477.5l1.7-4.5 8.5-12.4v21.6" />
      <path fill="#fff" d="M940.3 267.2l112.4-218.7-118 227-129.7-9" />
      <path fill="#ababab" d="M590 89.5l-8 229.8-79.8-139 87.3 155.3" />
      <path fill="#d5d5d6" d="M566 327l9-133.2-2 117.4-45-167.5" />
      <path fill="#737273" d="M629 696l-.8 46.6 16-65.3L641 736" />
      <path fill="#050d0c" d="M557.4 353.3l37.2-23.7.5 21.6-37-1.4" />
      <path fill="#fff" d="M1007.2 54.4l-89.5 367-6.6 38.8 137 33.7" />
      <path fill="#404141" d="M591 265l-3.3-49.5-17.4 12.2 26.5 8.2" />
      <path fill="#a2a2a3" d="M101.3 701.3l-30 3 8.4 6.5 38.2 3.4" />
      <path fill="#fcfcfc" d="M431.7 208.2l-32-17 9.4 4.8-28 14.3" />
      <path fill="#d8ca2d" d="M837 552l-20.7-2.3 9.5-4.4 119.5 2.8" />
      <path fill="#141616" d="M379.5 531.6l-11.7-9.7-4 28 12.4-2" />
      <path fill="#9b9b9c" d="M89.8 62l28.4-9.7-21.6-3.8-12.3 1" />
      <path fill="#c9c9c9" d="M297.3 507l1-45.2-1.7-90.3 7.6 134" />
      <path fill="#c3c3c3" d="M382 453.2l90.6-14L393 464l4.3-73.3" />
      <path fill="#fff" d="M820.2 144.3L856 89.5 747.4 26.2l107-12.2" />
      <path fill="#812b1d" d="M862 40l-16 18.4L857.5 71 853 94.2" />
      <path fill="#8e8e8f" d="M139 414.2l-2-15-2 66.3 2.6 29" />
      <path fill="#fafafa" d="M364.4 71l98.8-5.4-11.5 45.3 143-19" />
      <path fill="#ababac" d="M157.5 361.5l-4 75.7 56-21-52.6-11.8" />
      <path fill="#b1b1b0" d="M587 309.5v-69.8l3.8 31-2.4 150" />
      <path fill="#f2f3f3" d="M261.5 371L103 352.3l201 3.7-28 15.3" />
      <path fill="#818181" d="M339 513.6l49.7-265.3.2 96.4-10-48" />
      <path fill="#fff" d="M871.5 291.3L621 289.5l35.3-212 39.4 1.3" />
      <path fill="#9f8f2f" d="M916.5 66.4l5.6 43.4-32-13.5 11 20.7" />
      <path fill="#fff" d="M886.5 698.4l-13.7-36.7-1.7-15.2 18-101.2" />
      <path fill="#a5a6a5" d="M599.3 90.3L435.7-31 595.3 87.4l1.2 139.4" />
      <path fill="#0e0f0e" d="M598.3 127l-7.3 80.7 1.8-171 3.4 100.2" />
      <path fill="#7d834d" d="M903 446l-17.7 4.4 10-40-7.5 60.8" />
      <path fill="#f6f6f6" d="M537.6 501l-.7-168-104 82 94-45" />
      <path fill="#fff" d="M130 680.2l211.7-57.8-71.3-23.7-73.8-28" />
      <path fill="#bfc0c0" d="M610.3 565.7l-3.5-144-.5 145-322 85.6" />
      <path fill="#a98c05" d="M936 149.3h-19.4l21.3 34.3-1-27.6" />
      <path fill="#575958" d="M383.4 463l-7.4-27.5-70.7 18.5 82.5-5.3" />
      <path fill="#bababa" d="M96.7 236.8l-.4 107.4-6.8-61.3 7.3-160" />
      <path fill="#fffff4" d="M902.8 103.7L921 106l-21.7 60.7 7 49.3" />
      <path fill="#fff" d="M251.7 543.5l1.6-62.6-76-11-11.3 80M353 13H123.6l303-44 220.7 43.4" />
      <path fill="#747574" d="M257 373.8l-.7-72.3-5 74L332 384" />
      <path fill="#fff" d="M800 317.4L866 500l-9.7-67-20.6 44.7" />
      <path fill="#565757" d="M296.5 65.7l-3.2 217.6L293 77l-.2-9.5" />
      <path fill="#ababab" d="M497.5 681.7l29.6-4.3 90 5.4-60 .4" />
      <path fill="#303232" d="M560.7 496l-5.3-4.3 7.4-35-9.6 13.4" />
      <path fill="#adadad" d="M142.6 676l-56 20.5 3-10 74-3.8" />
      <path fill="#9b9b98" d="M785.5 470L768 453.8l27.2 3.7-1.8 12.2" />
      <path fill="#bbb" d="M499.8 556.8l-55.8-.6L325.3 571l288.5 2.2" />
      <path fill="#cacccb" d="M353.4 77.5l3.6-6v-15l-3-84" />
      <path fill="#9d9d9d" d="M956.3 607l-31.6-12 44 2.7 12-8.3" />
      <path fill="#fff" d="M657.4 758.3l6.3-66.6L661 785l-432.6-31" />
      <path fill="#9e9e9e" d="M98.4 105.8l-5 67-.4-97 7.2 9" />
      <path fill="#e7e7e7" d="M389 230.2l-33.8-5.2-24.8 2 51.7-6.7" />
      <path fill="#fcfcfc" d="M100.5 363.7L75.8 339l66.3-9.5 3-156.4" />
      <path fill="#fff" d="M781.7 698.2l74.6-1.3V576l-81-5.6" />
      <path fill="#ebeceb" d="M444 293.6l-3-96.2-1 17.5 5.3-144" />
      <path fill="#b7b7b7" d="M319.4 410.5l-4-39.6v33l.5 43" />
      <path fill="#fcfdfd" d="M872.3 236.8l14.5 102.7 4.4-152.7-34 86M261 258l31 86.3-12.4-122.8H298" />
      <path fill="#a2a2a3" d="M302.5 737.2l5.3-43.3-17 56 2-56" />
      <path fill="#595a55" d="M551 67l-22.2 9.3 53-.2 6.6 4" />
      <path fill="#939393" d="M482 192.7l-63.8-1-60.2-.4 61.4-9.4" />
      <path fill="#fff" d="M840.7-31H614l1.7 94.5L858 49.7m-94.4 681l74.3 9-154 32-3-169.5" />
      <path fill="#747c50" d="M863.2 344.2l10.4 28.6L863 400l.4-29.2" />
      <path fill="#f3f3f3" d="M147.6 146.8l5.4-15.2 2.4 124.3-6-99" />
      <path fill="#121313" d="M564 149l-.8-20.4 4.3 60 1-111.4" />
      <path fill="#535b2c" d="M863.5 213l9-12.7-4.7-8.2-1.5 8" />
      <path fill="#101211" d="M308.4 325.2l4 65.8 1-44-.5-50.6" />
      <path fill="#fff" d="M1021 771.5l14-136-161.5-6.4 80.5 7" />
      <path fill="#fdfdfe" d="M315 743l37-3.5-29-11L339 536" />
      <path fill="#e7e7e7" d="M274.3 252.7l28.7 20-7-34-46.6-22.3" />
      <path fill="#888" d="M596.7 656l.5 6 14 8.2 2.2-15.6" />
      <path fill="#fff" d="M836.3 545.4l-15-59.6 66.6-15.5 93 75.6m-360-32l131 6-246 158 84-3" />
      <path fill="#878787" d="M512.5 174.5l-7 2 4-42.5 2.2 3.4" />
      <path fill="#090e0d" d="M308.5 38.6l6-24-.3 74.6-2.5-28.2" />
      <path fill="#454544" d="M490 334.8l5.4 8.2-8 2.3-.2 2.8" />
      <path fill="#474848" d="M477 160.2l-.7 14 17.8 2.6 2 10" />
      <path fill="#fff" d="M943.7 191.3l-3-75.3 17.3-8.7-10 23.2" />
      <path fill="#fafafb" d="M418 60l-4-91-20.4 26.7 3 150" />
      <path fill="#54547b" d="M789.6 548.4l56 2.2 29.8 5.6-107.2-2" />
      <path fill="#bdbdbd" d="M261.7 14l23-1.2-203 .7 61.8 3.5" />
      <path fill="#fff" d="M29 777.7l4.8-323L26.4-31-31 710" />
      <path fill="#fafafb" d="M81.2 274.2L86.5 410l68.6 34-75-12" />
      <path fill="#ff6063" d="M628.4 354.7l-13-17 17.8-6.5-13.6 25.6" />
      <path fill="#999bad" d="M974 478l-56.2 46 15.4-16.4 40.2-37.6" />
      <path fill="#b0b375" d="M830.8 141l-20 14.5 70.2-9-33.7 17.2" />
      <path fill="#34363a" d="M621 512l-31 26 3.7-41.5 3 42.3" />
      <path fill="#f7f8f8" d="M105.6 155.3l17.4 292 17.5-255-58.7-9.3" />
      <path fill="#dcdcdc" d="M386.8 699.4l1.7 79 2.7-79-4.6-21.7" />
      <path fill="#232625" d="M570.7 434.7L566 310v114l-.6 76.6" />
      <path fill="#6c6c6c" d="M447 730.3L423.6 749l-15.6-8-8-5" />
      <path fill="#8f8f8f" d="M475.6 693.2l2.5 12.6 20-7.2-1 40.8" />
      <path fill="#d5d5d5" d="M411 633l9.6 135.4-2.5-125-8 43" />
      <path fill="#0e1111" d="M324.3 358.6l-7.4-49 4-162-1 260" />
      <path fill="#222424" d="M379 51.5l1.5-33-16.3 1L377 71" />
      <path fill="#fafafb" d="M627.5 736l-56.7-24.2-73.6 33.3 113.8 3" />
      <path fill="#f8faf4" d="M846.7 303.4l71 60.7-132.6 1 122-5" />
      <path fill="#fff" d="M667 285.8L627.6 358 696 501.5l173-121" />
      <path fill="#d1d1d0" d="M346 472.3l-1.5 26-2.2-124.5h6.2" />
      <path fill="#818181" d="M148.2 144.3l-1.5 54-4-38.3 5.2-91.8" />
      <path fill="#fff" d="M972.6 446.6L920 365.8l15.5 182.5-62.2-32.3" />
    </g>
    <g class="SVG--2">
      <path fill="#cbcccc" d="M355.3 110.2l-2.7 138 5.2-58.2-1.3 11.7" />
      <path fill="#15baf7" d="M836.6 124.7l-10.5-.2 33-2-14 14.8" />
      <path fill="#ededed" d="M396.4 699.6L398 799l3-90.3-4-106.7" />
      <path fill="#fff16c" d="M899.3 617.3l13.7-6 13.5 8-12.7-2" />
      <path fill="#fff" d="M326 571.3l-23.2 5.5 59.3 3 76-2.3" />
      <path fill="#fefefe" d="M181.6 83l33.5 9.8-51 45.5 30 .4" />
      <path fill="#abadac" d="M348.3 57.6l-14 22L334-31l3.4 91.7" />
      <path fill="#868686" d="M251.7 549.5h-157L248 551l90.4-.8" />
      <path fill="#b0afaf" d="M310.2 265l-4.2 48.6 9.8-24.4-27.6 23.2" />
      <path fill="#a9a9a9" d="M243.4 410.4l5-13.3-.4 70-3.3-1" />
      <path fill="#a5a6a5" d="M309 67l-1.5-98-2.5 87.5 2.8 84.8" />
      <path fill="#e9dc4c" d="M807.6 546.6l1.6-2 18.6 6-63.4-3.2" />
      <path fill="#989898" d="M720.4 661.7l-3.7-30.2 11-5-.4 21.8" />
      <path fill="#434242" d="M657.4 730l-.5-55.5-3 58.8 6-3.8" />
      <path fill="#fbfbfb" d="M379.7 175.4l105.8 2.2-63.7 7-54-.8" />
      <path fill="#161918" d="M314.3 125.3l-4-19.6 2.6-96-2 174" />
      <path fill="#2b2c2c" d="M369.7 218l.4-52.5-4 42.7h-1" />
      <path fill="#1c1f1e" d="M447 200.8l3 7-14-7 1.5 13.3" />
      <path fill="#fcfdfd" d="M154.8 91.6L111 107l20-49.6L71.4 60" />
      <path fill="#fff" d="M543.6 662.8l70.2 10.3 136-38-75.5 41" />
      <path fill="#8958b0" d="M982.8 552l-56 .5-41.5 3 109.7.5" />
      <path fill="#9a999a" d="M907 722.3l-12.7-6.7-5-15.3 14 36.3" />
      <path fill="#cccccd" d="M170.2 94.4l-2-91L149 83.8l-6-46.2" />
      <path fill="#111514" d="M612.4 472.2l.5 61-13-63.5 2 98.5" />
      <path fill="#e0dfdf" d="M644.3 799l9-125.2-1 112.5-5.5-48" />
      <path fill="#0c1210" d="M609.8 200l-1 5.5 3.8 60.6 2.4-63" />
      <path fill="#f3f3f4" d="M449.8 337.5l3 52.2L467 211l-15 53.4" />
      <path fill="#9ba7a3" d="M856.8 671.6l46.5 1.3-26.2-6-8-3" />
      <path fill="#b0b0af" d="M934.7 10.3L914 40.7l9.4-32.5 21 28.6" />
      <path fill="#677ba5" d="M649.8 467.2l-62 1.5 31.8-4.4L646 460" />
      <path fill="#938887" d="M613 430.3l-4.5-66.2-3 70 63.8-29" />
      <path fill="#fcffe9" d="M873 384.4l-64-27.7 59.3 22 73.7.6" />
      <path fill="#e9eaea" d="M553.5 356l1.6-45-1-203.3-9 174.3" />
      <path fill="#636363" d="M344.7 678.2l-2.5 60-.8-1.8 6.2-2.8" />
      <path fill="#292b2b" d="M320.6 518l4.2 33.3-19-2 9.3-2.8" />
      <path fill="#b3aa1e" d="M857 193l10.4-11.4-24-25L867 153" />
      <path fill="#909693" d="M954.6 709.6l-96-1.3 5.3 2 87 1" />
      <path fill="#1a1d1c" d="M422.2 697.2l-1-15.3-10.2-3 23.4 8" />
      <path fill="#fff" d="M77.2 555.5l-4 174.6-78.8 7L75 534" />
      <path fill="#f7f7f7" d="M468.5 321.6L490 133l-.5 102.2L449 238" />
      <path fill="#fff" d="M897.4 168.5l-57.8 5.8 45-15-41.7 58" />
      <path fill="#bbb" d="M49.7 104.6l-.4 222.2L71.8 474l.5-238" />
      <path fill="#fff" d="M922.6 308l-44.4 1.7 28-6.7-5.6-116.8" />
      <path fill="#ececec" d="M565.5 507.7l-179-66.6L559 515l2.5-85" />
      <path fill="#979797" d="M270.6 582L242 593.2l-1.7-14.4 54 9" />
      <path fill="#050705" d="M587.3 58l-9.5 1.3-2.3 15 10 13.6" />
      <path fill="#1e2229" d="M898 354l-6.5-4.7-3.8 13.2 2-2.6" />
      <path fill="#030706" d="M603.3 391.2l-2.7-158.7 4 14 2 43.5" />
      <path fill="#000101" d="M358.4 189.8l-1 20.2 1 116.6 2.8-151.4" />
      <path fill="#e5e5e5" d="M364.6 233.3l-11-10 9-1 1.7-38" />
      <path fill="#dadada" d="M462 12l97.7 1.4.8 82 6.2-58.2" />
      <path fill="#fff" d="M686.6 585.3l-474 6.8 299 87-142 1" />
      <path fill="#fffefa" d="M842.4 67l-14.6 90.2-16-146.3 37.5 60" />
      <path fill="#cdcdcd" d="M383 511l-3.3-90.2V521l-1 50.5" />
      <path fill="#181c1b" d="M671 751.6l-2-15v-37l-4.4 50.7" />
      <path fill="#272728" d="M299.5 250l5.6-4.2 2 17.2-3-3" />
      <path fill="#754c00" d="M921.8 403l-17 2 2.4 6.3-.8 6.7" />
      <path fill="#151616" d="M334 268l-5.8 35.4 1.6-56 1.2-48" />
      <path fill="#949494" d="M570 38l21.2 7.8-.4-27.4-31.3-5.8" />
      <path fill="#fff" d="M293.5 556.8l-75.7-2.4 140.2-3.2 27.6 3" />
      <path fill="#4c4c4c" d="M459.6 410.6l6 13 1-11.3 5-12" />
      <path fill="#fff" d="M614.3 215.7l103.3 26 100-131.5-202 64m-494 327.5l125.8 10.5L135 498.4 120.6 441" />
      <path fill="#7a7b78" d="M617.5 160.2l-9 26-1.8-71.6 5.8 64.6" />
      <path fill="#192f10" d="M872.2 38.8l6.4 7 4.2-14.7-.7 9" />
      <path fill="#c2c13c" d="M924.4 212.5l-10.4 2.8-27.7-19 39.8-.6" />
      <path fill="#747876" d="M863 347l11.4-51.4-10.3 3.2 4-68" />
      <path fill="#fff" d="M704.4-25.6l160.8 329.3h19l-65 19.2" />
      <path fill="#6f6f6f" d="M567.3 455l-2.2-36.3-8 27.3v-55" />
      <path fill="#d2d2d2" d="M571.2 198.2l5 113.7-1.4 9-2 155" />
      <path fill="#8d8c8c" d="M415.4 675.7L394.2 705l30.5-51-9.6 4.8" />
      <path fill="#adafae" d="M347 404.2l-.8-117-1.4-11.3-3 22" />
      <path fill="#b1b3b2" d="M344 68.3l1.7-97.4 2 37v24" />
      <path fill="#a9a9a9" d="M82 249l-2.5-9.7-1.7 107.5-1-178.2" />
      <path fill="#b0b0b0" d="M816 709.7l4.7 21.3-11.4 3.4v2" />
      <path fill="#a0a0a0" d="M360.3 180.7l45-26.2 1 26.4-15-30" />
      <path fill="#8c8c8c" d="M941.6 744.8l-41.2 5 44.5 4.7-8-15" />
      <path fill="#d7d8d8" d="M262.2 169l29.7-27.4-11-94.8 11 107.5" />
      <path fill="#fff" d="M838.6-31L662 99.4 844 86l-30 47.5" />
      <path fill="#bcbcbd" d="M117.8 517.3l-7.5 12.4-6.7-83-.7 88" />
      <path fill="#898da7" d="M848.8 479.4l3 1L853 461l-13-2.2" />
      <path fill="#7e8190" d="M894.6 332l8.6-41.4-17.5 1.5 13.3 26" />
      <path fill="#bfbfbf" d="M475.4 747.2l2-60.5 32 64.8-8.7-40.5" />
      <path fill="#fefeff" d="M285.7 515.3l-19-137.7 1 14.7 3.3 143" />
      <path fill="#eaeaea" d="M428.2 372.2l12 28 3-11.7 45.5-17.4" />
      <path fill="#cdcdcd" d="M301 330.4l-17.7-11 7.4 29.7 7.6-67" />
      <path fill="#b6b7b7" d="M598.4 447l-19.3 6.4 2-9.6-87-18.5" />
      <path fill="#dfe0e0" d="M347 167.6l25-3.8 7.5-6.7-80.3 4" />
      <path fill="#8d8f8f" d="M462 461l2.5-13.3 44.3 16.6 33-1.5" />
      <path fill="#fcfcfc" d="M497.8 439.2l-11.5-16 60.5-123.7-79.5 76.2" />
      <path fill="#8084c4" d="M645 396.2l-3-5.7-25.8 2 38 6.7" />
      <path fill="#9a9a9b" d="M205 748.8l-2.2-5H217l-68 5.6" />
      <path fill="#fffff9" d="M773 262.3l40.6-40.8L870 92.3l-9 46.6" />
      <path fill="#fff" d="M937 707.5L880 662l39-6.3 5.4-98" />
      <path fill="#feffff" d="M902.3 324.7l-44-1.6 107.5 32-86.5-23" />
      <path fill="#fff" d="M930.2 799l12-52.5-214-13 326.8 1" />
      <path fill="#3f403e" d="M569.7 86.8l-5.5-14.5L571-31l-3.2 31" />
      <path fill="#151717" d="M365 100.3l2.3-16.4 10 9-9 34" />
      <path fill="#a2a3a2" d="M597.2 349.7l2.8-103-3-81.2-1.5 83.4" />
      <path fill="#131515" d="M332 343.6l-2.2 1.2-.6-41.3 5-4" />
      <path fill="#6c34a8" d="M917.8 134l16.3-8-5-9-13 5" />
      <path fill="#b1b1b1" d="M101.5 127.2l119-6-36.6 27.3 61-16.5" />
      <path fill="#7c7d7c" d="M291.2 527l4.3-111.6 1.4 5-3 128.2" />
      <path fill="#a2a2a2" d="M25.5 738.4l10.2-5.6 21 2.3-8 11" />
      <path fill="#6e6f6f" d="M392 102l-1 132 3-67.3.3-41.4" />
      <path fill="#333534" d="M390.5 241l3.8-16-3-18.4-1 19.7" />
      <path fill="#fff" d="M640.3 126L618 80.5 821.5 76l-205.3 77" />
      <path fill="#767676" d="M386 115.5l-.2-118L382 142l4 73.7" />
      <path fill="#a6a6a6" d="M739.7 623.2l29 1-18.7 14-7.5-14.8" />
      <path fill="#fff" d="M615.3 124.6V80.8l205.5 283.8L644.6 68" />
      <path fill="#b2b2b3" d="M102.2 102l3.7 72.7 2-84.7V71.3" />
      <path fill="#979797" d="M39 294l-1 34.2-10.4 21 11.6-58.6" />
      <path fill="#fff" d="M617 247.4l206.8 227-62 1 104.5-20.8" />
      <path fill="#808181" d="M258.2 79L258 5.7 253.2 38v38.7" />
      <path fill="#fffffc" d="M855 70.6L874.5 52l22.6-6 1 59.4" />
      <path fill="#8f8f8f" d="M827.8 757.5l-3.2-9-21.7-.8 135-2" />
      <path fill="#e5e5e5" d="M422.7 155.8l13.5 7-47-7-10.7-19.6" />
      <path fill="#a9aaaa" d="M80.8 398.6L73.2 378l4 6v-77.5" />
      <path fill="#707459" d="M868 115l7-20.7.3 52-11-22" />
      <path fill="#f9f9f9" d="M454.4 422.8l10 42.8-61-9 95-7.6" />
      <path fill="#adadad" d="M374.3 402.5l4.2-38 44.8 17.7h-52" />
      <path fill="#7e7e7e" d="M337.6 187.3l-57.8 5.8 8.8-39-.3 39" />
      <path fill="#545655" d="M358 142.2l-2.7 13.8-59.6-2.2 94.7 5" />
      <path fill="#ccc" d="M284.3 405.2l8.5-43.8-11.7-1.2 30 47.6" />
      <path fill="#c1c1c1" d="M333.5 360.6l-.2 115 5-35.3-.2-68.5" />
      <path fill="#fff" d="M905.6 398.2L832 429.7l210-80.4-141.7 15.3" />
      <path fill="#d1d2d1" d="M191.7 5.6L330-31l-2.7 101.7-6.4-85.5" />
      <path fill="#fffeff" d="M900.2 121.5l139.5-133-145.4 138 160.7 61" />
      <path fill="#292a2a" d="M566.3 107.5L570 140l-1.3 116.4L566 246" />
      <path fill="#000202" d="M317.8 105.3l3-41.2.8 19-1 57" />
      <path fill="#e6e6e6" d="M294.7 141.7l71.5-7-2.4 29-5-37.2" />
      <path fill="#bcbcbc" d="M427.4 566.4l-1.5-2-4-136.2-3 101.2" />
      <path fill="#080a0a" d="M352.6 253.4l-2.8 83.5h-1l1-99" />
      <path fill="#fff" d="M368.4 12.8L520 12 218.7-31 4.5 12M174 683.2l-1 23-106.7 10.3 47 .6m641-136l14.5-36-39.4 47 3.4 120" />
      <path fill="#bdbdbc" d="M582.8 404.7l-64-23 71.7 27.3-3.2-34.6" />
      <path fill="#fff" d="M901 418.5l154 117L1023-16 897.6 522" />
      <path fill="#545e4c" d="M959 127.7l6.3 6.2-15.8-8 1.5-10" />
      <path fill="#fff" d="M869.3 250.7l-47.6-50-14.7-98.4-192 278.5" />
      <path fill="#939393" d="M39.6 266.8l-3-42.8-5-5.4 2.4 49.7" />
      <path fill="#bababa" d="M464.6 68l21.6-.8-2.5 4.3-13.5 11" />
      <path fill="#fff" d="M614.8 263.5l1-33.2 256.7 114.4-254.8-42.2" />
      <path fill="#9d9e9e" d="M379.6 296.2l-1-84.4 2.7 26.7 8.7 125" />
      <path fill="#404040" d="M447 700l3 3.4-.4 14.7-6.2 2" />
      <path fill="#989998" d="M337.5 315.2l-3.4 16.2v-96.6l3-69.4" />
      <path fill="#808181" d="M243.5 192.2l-.2-11.2 14 13.5-12-1.7" />
      <path fill="#3c4141" d="M614.5 353l-61.3-18 6.3 35.8-1-31.8" />
      <path fill="#fbfbfa" d="M414.7 345.3l38-1.2-12.8-10-84 10" />
      <path fill="#ff1a1a" d="M621 451.7l-1.6 2.7 2.8 4.6 10.3-5.5" />
      <path fill="#a485be" d="M998.2 86.7l-56.6 9.7-.2 12L977 98" />
      <path fill="#fff" d="M296.3 680l-71.8-7L316 572l-3 10" />
      <path fill="#f0f0f0" d="M484.6 460.2l64 62.5 3-56 6.8 50.4" />
      <path fill="#fefefe" d="M847 719.7l27.3 27.4-32.3-5 8.8 36" />
      <path fill="#bfbfbf" d="M559 306.5l6.2-97-1.2-71-7.2 83.4" />
      <path fill="#fff" d="M60.3 556l-91.3 2.8L95 551l106 4.7" />
      <path fill="#958d3e" d="M917.6 137.4l.6 10.8 19.4 18.8-36.5-22" />
      <path fill="#fff" d="M956-12.6l99 35.5-67.6 16-5.7 69M357.3 590l280 63.7-274-8.7-5 100.3" />
      <path fill="#838384" d="M167.4 496l-2 6.3 1-161.2 2.7-24" />
      <path fill="#9a9a9a" d="M354 333.7l24.6 15.8-14.8-25.7-15 83.3" />
      <path fill="#bcbcbc" d="M362.6 84.3l2.6 76.3-.4-149.5-2.2 9" />
      <path fill="#a8a9a9" d="M420 106l3.6 21.7-2-127.8-2.2 113" />
      <path fill="#3d3f3f" d="M360.8 520.5v27.8l32.2 2.5-40 .7" />
      <path fill="#ddddde" d="M179.4 731.5l-.6-41 37.3-8-5 66.2" />
      <path fill="#c6c7c6" d="M571 63.6l2.8-89v58.8l-.2 162.8" />
      <path fill="#ddd" d="M142.7 100.5l-34.5-70.8L135.6 91l11.2 166.6" />
      <path fill="#fcfcfd" d="M338.2 694.3l5.4 69.7-4-81-34.2 14.8" />
      <path fill="#fffff2" d="M930 129.3L904.4 201 877.6 90.5 885 214" />
      <path fill="#f9f9fa" d="M462.8 202l-2.5-17.6 64.5 96L538.2 169" />
      <path fill="#9e9fa0" d="M742 552l28.5-13.8.3 78.5-3-67.4" />
      <path fill="#fff" d="M883.8 46.7l-21.7 8 12 47.5 38-16M647 488l-3.7-87.4-14 60.8 223.8-35" />
      <path fill="#989898" d="M442.5 682.4L509 684l-56.4-6.3-81.2 34.8" />
      <path fill="#141515" d="M314.4 540.5l-1.8 10.4-2.2-13 .8-47" />
      <path fill="#232525" d="M575.3 547.3l5.4-120.5-2.7-84-2.6 60.5" />
      <path fill="#c2c4c3" d="M346 122.6l1.4 175.3-4-93v-72" />
      <path fill="#fff" d="M718.7 742.5l-36.2 7.7-463.5 1 822 32.2" />
      <path fill="#f1f1f1" d="M627.6 708.4L622.3 565l.2 162-.7 71.3" />
      <path fill="#9b851a" d="M927.7 81.4L905 61.7l23-12.2-27.4 51.7" />
      <path fill="#fff" d="M960.2 57.6L1055 625l-87.5-1.5 40.4-105.8" />
      <path fill="#a09fa0" d="M79 699.2l26.4 7.8L69 729l32-1" />
      <path fill="#000402" d="M602.8 118l-3-59.6 2.7-39.8 4.5 32.2" />
      <path fill="#d23f41" d="M608.4 229.8l20.4-12.3 1 11.5-24.2-1.7" />
      <path fill="#fff" d="M942 309.7l-130-4 98.7-1L952 132" />
      <path fill="gray" d="M180.4 113.4l-32.3 1.3 31 10 2-5.8" />
      <path d="M362.4 94.7L358.6 81l-3 16.3 2.8 18.2" />
      <path fill="#fff" d="M933.3 142.6l21.8-25.4-18-87 50-32.7" />
      <path fill="#262727" d="M289 477l79.6-3.6-2.8 75.7 13-77" />
      <path fill="#a7a7a7" d="M548.3 528l27.3 28-4.7-74.8 10 46.2" />
      <path fill="#8587a7" d="M705.5 515l-96-7 95.6 1.7-5 2.7" />
      <path fill="#efefef" d="M438.8 799l4.8-120.4 2 68.8-26 7.3" />
      <path fill="#fff" d="M.5 232l48.2-9.6L47-15.4-6.2 3" />
      <path fill="#929392" d="M829.2 347l15 16.6-18.2-5-3.8-2" />
      <path fill="#1f2121" d="M305 301l1 61.5-5-6 .3-19.5" />
      <path fill="#fff" d="M953.4 282.8L849 288.4l60.3 2L950 147" />
      <path fill="#fafafb" d="M139 405.7l6 31.3-4-89.6-25.8 58.2" />
      <path fill="#1f2121" d="M575.5 184.7L578 145l-2.6 95.8 6-7.6" />
      <path fill="#fff" d="M127.6 603.8l-158.6 75 143 6.2 1 104.3" />
      <path fill="#89711e" d="M896.5 120l4.2-13.5 18.7-1.2L915 89" />
      <path fill="#7cdca7" d="M895.8 630.6l25.6-5-9.5 8-4-11" />
      <path fill="#fdfff5" d="M903.8 177l.6 85.3 3.2-92.6-4.8-60" />
      <path fill="#e6e6e6" d="M161 403.5l3-16.6-2 168-2.7-91" />
      <path fill="#575857" d="M573.7 514.8l-5.6 35.8-4-38.6 19 31.8" />
      <path fill="#acacac" d="M309.6 420l-.7-49.4-9 33.8-5-51.7" />
      <path fill="#939393" d="M360.3 498.4L282 210.7l-36.6 7.5 38.7 1.6" />
      <path fill="#fff" d="M891 230.3l24 2.2-8 .3-55.8.4" />
      <path fill="#d5cfd2" d="M609.5 134.4L608 92l-.8 39.2 129.3 175" />
      <path fill="#b1b1b1" d="M436.5 181.6l-21.3 98.2 8-.4-5.3-55" />
      <path fill="#f9f9fa" d="M393.8 559.8l34.6-39.5L427 545l-29.4-111.4" />
      <path fill="#a3a3a3" d="M164.8 203.3l1-115.8 3 52.3-2 238" />
      <path fill="#bfbfbf" d="M447.4 336.5l-56-1.7-2-4 55-7.5" />
      <path fill="#fff" d="M665.7 536.6L524 633.8l-28 84 4.2-28.6M685 448.6l163.8 10L952 454l-115.4-1.3m9-72.8l15.6-127-27.4-113-9.4 98" />
      <path fill="#f2f2f2" d="M424 257.2l8-135.7 33.4 25.7-40.6-26.8" />
      <path fill="#b0b0b0" d="M379.7 328.2l43 4-61.3-17.5 12-4.2" />
      <path fill="#848484" d="M145.8 165.4l.5-70 2.8 134.4-3 42.8" />
      <path fill="#fff" d="M690.5 660l66.5-1.6 9 31.5-80.5 79" />
      <path fill="#939393" d="M117 655.2l24.8 1.7-6.3 3-4 4" />
      <path fill="#9f9f9f" d="M87 29.5l1.3 3.4L74 30l15.4-19" />
      <path fill="#afafb0" d="M433.4 387.8L436 442l.8 74 5-56.6" />
    </g>
  </g>
</svg>