<svg version="1.1" viewBox="0 0 1024 768" width="1024" height="768" xmlns="http://www.w3.org/2000/svg">
  <g fill-opacity=".5">
    <path fill="#fff" d="M628.8 273l-108-5 97.7 81.7L518 361.2" />
    <path fill="#b09535" d="M732.7 196.3l26.8 12.4 15-10.5 5.7 26.6" />
    <path fill="#bebecd" d="M278 539.3l-62.6-11-8.3 27.5 73 22.8" />
    <path fill="#004154" d="M385 345.4l-10.7-40.8 3-25.8L374 341" />
    <path fill="#82827b" d="M572.2 644.2l4.6-28-27.4 33 189.2-3" />
    <path fill="#6d798c" d="M922 168.2l-5.6 85.4-33.3 23 20 4.4" />
    <path fill="#505047" d="M683.2 678L579 675.5l-60.7 1.4 14.3 2" />
    <path fill="#686769" d="M718.6 677.2l46.6 66.2-191.6-2 172.7-4.3" />
    <path fill="#828180" d="M338 741l19-2.2 85.2-.2 3.2 3" />
    <path fill="#3c3b3b" d="M416.6 584l-133.8-2.5 113.4-.3 52.7 1.2" />
    <path fill="#0c0b03" d="M746.4 610.2l-.8-12.5 86.6 1-62-2.2" />
    <path fill="#3a3bfb" d="M946.5 610.7l54 6L823 611l48.6 5.7" />
    <path fill="#526a80" d="M627.7 354l124-130.2-25.7-6 22.5 21.8" />
    <path fill="#fff" d="M153.2-29.8l230.5 10 8 109.8L286 87" />
    <path fill="#0d0116" d="M180.4 717.2l-73 23 61.8 17.5L119 700" />
    <path fill="#00f" d="M492 612l-2.3 2-55.5 1-69.5-.5" />
    <path fill="#a4a3a4" d="M712 485.4l132-1-118-12.6 71 1.8" />
    <path fill="#4794be" d="M540.5 365l18.8 2.4-4-30.7L534 381" />
    <path fill="#605f5c" d="M333.4 646.2l-97-1.7 68-2 258.7 4" />
    <path fill="#fff" d="M664.4 404l62.4-128.7-24 114 138 4.3" />
    <path fill="#1a1918" d="M584.8 599l74.4-1.2-111.4-1.4-17.3 2.4" />
    <path fill="#ed461d" d="M501.3 113.4l-2.7 6 4 27.7 11.8-33" />
    <path fill="#292fee" d="M213.2 663.3l-17 .2L87.4 659l127.4 1.5" />
    <path fill="#d8b1a7" d="M518.6 298.6l38-2 14.8 23.8-59.5 1" />
    <path fill="#4c4c46" d="M818.8 696.2l-36.8-5.5 228.3 1.7-141.7 2.4" />
    <path fill="#a39f34" d="M903.6 197l-7.8-46 21.8 1 2.3-34" />
    <path fill="#3c3eea" d="M255.7 711l-113-.6 13-3.4h173" />
    <path fill="#000107" d="M746.6 763.5l-1-81 4.2 11L751 746" />
    <path fill="#4141ff" d="M556 662l-151.6 2 12.5-4.5h263" />
    <path fill="#fff" d="M322 454l199.5-20.4-72.4 147 57-1.5" />
    <path fill="#807f7c" d="M915 567.7l4.3 7.6-101 8.4 92.2-.2" />
    <path fill="#fff" d="M825.3 765l229-10.7L842.7 799l-11.3-152" />
    <path fill="#e9e9e9" d="M990.5 632.2l-22.2 7 29.6 8-6-209.5" />
    <path fill="#fff" d="M618.5 365.7l87.5-65-47.2 92.7-47 13.6" />
    <path fill="#fffffb" d="M985.8 743l-11.4-24.3-12 53.3-2.8-43" />
    <path fill="#d2d2da" d="M991.3 613.3l7 134.6-7 4-.6-94" />
    <path fill="#fff" d="M615.8 614.5l-39.3 25L632 689l-15.6-6.3m-241-493.5L505.8 214l53-16.5L408.4 158" />
    <path fill="#97be44" d="M977.2 232l-43-15.3 6.8-25.5-1 5.8" />
    <path fill="#44443b" d="M347.8 675.2l184.8.6-34 1.3-45 3" />
    <path fill="#fff" d="M672.4 725l-18.2 11 84 3.7 12.4-10.4" />
    <path fill="#262621" d="M983.6 754.6L991 719l.5 39.7-5.2-3.2" />
    <path fill="#afaeae" d="M598.4 280.7L610 315h2l50.2-21.2" />
    <path fill="#fff" d="M953.3 224.8L906.8 76.2 711.4 18.8 1055-31" />
    <path fill="#930000" d="M86.6 145.6l-29.4-29.2-2.3 158L68 145" />
    <path fill="#111117" d="M790.4 747.3L792 667l-16.6 25 28.2 44.7" />
    <path fill="#fff" d="M914.6 710.5l-2-33.6-129.6-8 124-8" />
    <path fill="#f1fff0" d="M579.8 237l-20.4 23.6L548 113l-1.7 54.3" />
    <path fill="#fff" d="M-5.2 164.5L-20.2-31 312 11.6 61.4 15" />
    <path fill="#caeaf1" d="M984.8 222.5l-50.6 8-46.6-1.4-5 27" />
    <path fill="#fff" d="M867.4 758l-362 .5-252 4.3L1055 799" />
    <path fill="#747374" d="M714 51.5L631.7 46l-31 6.4 102.7.3" />
    <path fill="#6bf731" d="M958.3 443l.6-31.8-16-13.4 2 41" />
    <path fill="#428a93" d="M481 394l-103.4-65.3 63.8 38.4 39.6 8" />
    <path fill="#545454" d="M531.4 444l-9.8-12.4L523 454l2.6-5.5" />
    <path fill="#10111f" d="M916.8 651.3l1.3 90.5 4-32.6-1-115" />
    <path fill="#fff" d="M275.2 728.2l203 9.8 142-10.5-162-.4m25-663l-106 2 27.6 31 179.7 17" />
    <path fill="#8d8c8c" d="M703.6 399.3l46.8 16.2-56.2-1.8 67.3-9.4" />
    <path fill="#2a5c9e" d="M483.7 101.2l8.2 28.5V94.5l-26 19.7" />
    <path fill="#fffffa" d="M230.3 633l10.7 23 34.8 1.2-4.2-26.2" />
    <path fill="#b9bbb7" d="M98.8 667.2l-6 90.5-91.2-7.3 63.5-24" />
    <path fill="#2f2e29" d="M550 756l-16 1 6.6-14.8 8 .5" />
    <path fill="#fff" d="M610.3 503.6L131 448.3h477.7l-28-68.8M124.4 411L-31 223v455.5l162.5-300.3" />
    <path fill="#868682" d="M362 721.4l-41.6 6.7 82.6-3-30.6-2" />
    <path fill="#949fe7" d="M678.2 532.7l-15.6 16.6 37.7 7-5-30.2" />
    <path fill="#17061e" d="M446.3 124.4l-38.6-3.3-54 1 52.7 3" />
    <path fill="#fff" d="M444.8 293.6l-27.4 64.2 65.7 13.8-31-149.4" />
    <path fill="#5353f4" d="M872.7 705.7l-16-.3 86.8 6.7-160-4" />
    <path fill="#fffffc" d="M695.3 215.5l27.4 57.8 1-36.3-33 4.5" />
    <path fill="#60895c" d="M331.2 438.6l-8.4-32.3 130.4 9.3-117.3 2.7" />
    <path fill="#9ea09a" d="M35 646.3l38.4 14.4L-26 654l8 7.8" />
    <path fill="#5b5456" d="M401.2 157.7h-11l-49 1.5 13.7-8.6" />
    <path fill="#cab0b2" d="M837 630l.2-91.8 16-16.3L841 635" />
    <path fill="#71706a" d="M987.4 673l-132.7 6.4-31.8-8 127 8.3" />
    <path fill="#20201c" d="M539.2 562.7l-.5 22.2 3-5 15.6 5" />
    <path fill="#656461" d="M906.8 643l-158 3.2 216.7 1.5 28.4-3" />
    <path fill="#637b94" d="M813 202l.2 32.3 11-16.5-40.7-11.8" />
    <path fill="#fff" d="M1000.7 608l28-434.5L959 291.2l77 23.8m-803 51l2-242.7 189.3-4-49.8-20" />
    <path fill="#3357c3" d="M893 140.3l.8-30.5-25 47 6.2-41.6" />
    <path fill="#5387ff" d="M966 486.2l-22.4-43.7L942 484l5.4 4.4" />
    <path fill="#464d4a" d="M340.8 330.8l7.5-38-2 105.7-2.2-86.7" />
    <path fill="#2777bd" d="M112.4 424.4l-4.8-1.2 12.8-65L119 399" />
    <path fill="#fff" d="M570 538l165-54 24.4 98 4.3-57.5" />
    <path fill="#7d7d7d" d="M633.6 81.7l54.7 8.6 33.7-5 24.4-3.2" />
    <path fill="#fbfffd" d="M238.6 422l13.6 49.2 74.3-57-49.5 10" />
    <path fill="#fff" d="M330 364.5l-51.5 6 131 43-144-6.2m86-45.4L493 410l-124-67-19-200" />
    <path fill="#e0f2ff" d="M906.8 346.4l28.7-186-52.7-33.4 42.5 39.2" />
    <path fill="#fff" d="M550 267.4l-107 88-66.7-101 3.6 76.8" />
    <path fill="#107d25" d="M264.4 366.6l7.8-14.7 1.5 6 11 7.4" />
    <path fill="#3f2130" d="M100.5 602.5l60-22.7 57.3 4.4-60.4-18.4" />
    <path fill="#7984fd" d="M397.4 270.4l12.7-22.6L572 267l-91.7-1" />
    <path fill="#758f71" d="M579.3 87.7l8.3 16.7-74 19 37-1.7" />
    <path fill="#0a5498" d="M613.8 421.2l27 19v7.5l-29-11.5" />
    <path fill="#73736f" d="M151.3 754.4l61.5 5-14.6-20-7.2-.4" />
    <path fill="#2a2bff" d="M281.6 617l-82-3.7L318 613l-60.2 3" />
    <path fill="#5252ea" d="M979.8 657.4l-17 6.7-122.5-2 122.5-4" />
    <path fill="#5b5ce9" d="M858 711.3l72.5-4.4 71.3-1 39.5 3" />
    <path fill="#1d1d1f" d="M939 730l8-3.7-15.2 33.4-5.2-64.6" />
    <path fill="#ecf3eb" d="M976.2 598.2l-1-14.7-40.3-5 5-68" />
    <path fill="#95a1bd" d="M628.6 527l11.2 55.6-20.8-1-6.2-53.6" />
    <path fill="#5f5549" d="M684.6 264.6l8-8.2 27.8-28-4.4-2.7" />
    <path fill="#4e8b8f" d="M535 169.2l14.3-89.4L541 195l-24.5-37" />
    <path fill="#262621" d="M689 694h66.7l-47.3-13.3 24 2.7" />
    <path fill="#57ac3a" d="M577.8 181.5l-2 24L536 198l23.7 2.8" />
    <path fill="#575656" d="M456.6 51.6l1.2-4-65 3.3 24.2 2" />
    <path fill="#151514" d="M259.4 734l-4.8 22.2-.8-22.2-1.7-20" />
    <path fill="#616e73" d="M488.3 351.3l21.8 10.3-29 5.8 1 12" />
    <path fill="#4d4ef4" d="M801.3 664.6l27.5-1.8 12.5-2-112.5-2.8" />
    <path fill="#5b76b5" d="M699.4 131l-18.2-13.6-65 9.5 22-11" />
    <path fill="#fffffe" d="M675.8 66.6l-144.2-32L590 93.2l-4.7 26" />
    <path fill="#fdfdfb" d="M794.6 651l-.2 24.6 115-1.3L797.2 664" />
    <path fill="#1bbb7f" d="M371 376.3l-22.8 7.3-48-3 21.4-6.7" />
    <path fill="#fff" d="M284.4 579.8l132.8-.8-102-20.7-41.3-103" />
    <path fill="#7c8f88" d="M669.5 370.3l30 4.3L598.8 346l79.4 27" />
    <path fill="#281c2e" d="M373 250l5 80.3-1.7-119.2-.8-42" />
    <path fill="#fff" d="M1038.3 494l-292.6-7.7h-96.3L879.6 540" />
    <path fill="#4d8094" d="M607.5 408.4l-12-54.2-29.7 3 49.4 16" />
    <path fill="#fff" d="M1017 702.7l-3-199.3 41 295.6-40.7-57" />
    <path fill="#2e87d1" d="M862.3 238.4l84-18-67.8-3-12.4 50.4" />
    <path fill="#fff" d="M-31 674.5l83.7 25.7-83.7-101 104.3 22.3" />
    <path fill="#696a64" d="M205.3 642l18.3 8.8 56.3-6-39-1" />
    <path fill="#4c3700" d="M89 33.2l-2.8 7 2.5 177.2.3-175.2" />
    <path fill="#d6d919" d="M154.7 94.8l-9 203-5.2-178 35.2 13" />
    <path fill="#46413e" d="M274.6 630.4l-154.2.3 152.6-3.3 145 3.5" />
    <path fill="#777770" d="M571 690.7l-21.4 6 73.5-5.4-25-.3" />
    <path fill="#fff" d="M397.6 364.4l20.7-37.3L646 270l-243.7 24" />
    <path fill="#262526" d="M486.7 596.8l-53.4 3.4-31.7-2.8 158.6 1.7" />
    <path fill="#fffdfa" d="M671.6 163l-41-39.4L605 131l42.4 30.7" />
    <path fill="#fffffc" d="M929.5 727.2l-6.8 12-68.8-7.7 38-5.2" />
    <path fill="#151512" d="M1055 739.3H851.5l31.2 1.4 82.8.3" />
    <path fill="#080917" d="M790.6 630.3l-11 .8-.4-35 7 19" />
    <path fill="#4e5ae7" d="M707 128l1.5 35.3L717 130l16.5-26.2" />
    <path fill="#717991" d="M684.6 154.7l57-4 15.2 47-1.4-41" />
    <path fill="#e8e9f1" d="M74.5 727.7L124 611.5l-147 10.8 140.3-17" />
    <path fill="#434c50" d="M908 213l17-3-20.7-1.8-58.6 1" />
    <path fill="#469002" d="M838.5 277.3l-14.6-19 2 4.4 25 6.3" />
    <path fill="#45453d" d="M320.8 676.3l-25.2 9.3 2.2-7.7-74-2" />
    <path fill="#868aad" d="M628 187.7l-94 4 102.4-10.5V126" />
    <path fill="#fff" d="M721.7 167l11.3 56.6-36.6-4.7-42.6-51M204.2 670l13.2-11 1.3 31h38.7M418 616.8l-139-1.4 37.6-201.7L279.2 630" />
    <path fill="#0044af" d="M620.5 266l13.7 1.5-2-24.8-15 21.7" />
    <path fill="#2f2fdf" d="M727 711.4l-4.4-4.6 110.3 1 35 .7" />
    <path fill="#e9ffff" d="M862 226.7l-8.8-24.4 81.5-9.5L799 216.5" />
    <path d="M139 585.3l2.4 178.6 16-198-39.3 4" />
    <path fill="#35cc6b" d="M453.7 175.5l-8.3-28.3 30.6 3.2-10.7 6" />
    <path fill="#d0db1a" d="M222 281.4l5.7-72.7-81.2 13L119 282" />
    <path fill="#848384" d="M402.5 111.4l-7.8-23.8-85.4 9.8 45-11" />
    <path fill="#fffffd" d="M705 686.5l6.2-22L735 674l-116.4 14" />
    <path fill="#3b4350" d="M918 149.8l1.7 43-8 76.3 7.8-162" />
    <path fill="#fffff5" d="M452.8 662.8l-55.3 11.8 121-.5-22-7" />
    <path fill="#c02f2e" d="M968.5 250.5l16 5-44.4 13 16-19.5" />
    <path fill="#8687b4" d="M608.6 114.2L628 53.5l-16 30.7-14 82.4" />
    <path fill="#fff" d="M381.7 125.5l166 9.2-160.7 16-6.3-2" />
    <path fill="#7d7c7a" d="M524.7 736.3l-14-9-77.5-2.4 101.2-4" />
    <path fill="#7f82f3" d="M753 162.8l98.8-66.4-12.7-4.8-13 70" />
    <path fill="#373633" d="M857.3 733.2l-17 31.3 4.7-10-1.7-35.2" />
    <path fill="#fffd9b" d="M640 239l-2.3 14.7 15.7 4.2-9-53" />
    <path fill="#444643" d="M723.5 596l-16.8 1.7L751 600l34.3-1.4" />
    <path fill="#fff" d="M793.5 109l-2.7 93.5L846 185l-62.4-37" />
    <path fill="#2e3129" d="M211.2 677.3l87 1L203 674l-7.5 39.4" />
    <path fill="#c1e1ff" d="M756 251.6l-3-57-13 68-9.6-32.2" />
    <path fill="#7fa85b" d="M216 381.8l15.6 66-13.7 17.6 19-39.4" />
    <path fill="#569b8f" d="M642 418l28.8 3 10.2-5.2-61.5-13.8" />
    <path fill="#9d0e61" d="M138.2 690.4l-32.5 5.4 26.8-25.3 9.3 18.8" />
    <path fill="#616159" d="M819.7 722.8l2.8 18.2-33.4-23.3-34 7.6" />
    <path fill="#fff" d="M588 162.6l71 42.4 6.7-17.6-122.5-18.2M300 96l111.2 2.7-160.2 3.7 88 261.2M194.5 583.4l71-.3-51.5 15-34-6.3" />
    <path fill="#cfd0d5" d="M997.3 586.7L981.8 601l3 94.6.3-108" />
    <path fill="#5e76e7" d="M689 242l-8.8 13.8-30 14.6h46.3" />
    <path fill="#f6fae2" d="M220 385.4L195 410l5.6-31.4 18.8 49.4" />
    <path fill="#484af7" d="M248.4 663.8L338 661l-45-.8-79.5-2.7" />
    <path fill="#fffffd" d="M432 719.4l-104.4 4.3-94.2-6 91.2-7.8" />
    <path fill="#fcfeff" d="M763.2 300.7l240 12.4-218.7-29 21.2-72" />
    <path fill="#cccbdc" d="M87.8 255l31-23.6 4 42.4-35.6-5" />
    <path fill="#fff" d="M-21 706l85.6 3.2-18 37.7-77.6-17" />
    <path fill="#373742" d="M214.7 645l2-16.5 10.2-32 2 83" />
    <path fill="#3266b7" d="M656.3 236l-15 63 37.4-76-12 47" />
    <path fill="#12120e" d="M791.5 581.5l-26.7 1 21.3-5.2v-16.6" />
    <path fill="#fff" d="M658.5 380.8l-13.4 49-58-100.4 33 37.2M748 137l1.2 16.3 16-1.3-6-53" />
    <path fill="#5f7463" d="M748.8 125.4l-11.6 53.8 4.8-51-15.5-17" />
    <path fill="#fff" d="M507.3 752.7l3.6-11.5-210 9 167 4.8M322 144.3l-91-19-2.4-74 9.3-68.7m433 577L625 497l18.6 84.5 48.2-5M769 301l-48-37.7-17.8 20 23 34" />
    <path fill="#453431" d="M712.3 294.4l-57 120.2 15-25.8 34-74.4" />
    <path fill="#4f4f4b" d="M246.2 590.4l-6-15.2-22.3 7.2V560" />
    <path fill="#353413" d="M807.5 582.3l5.5 28.4 1.7-31.8-21.8 4" />
    <path fill="#7d7d7d" d="M631.7 26.7l6-1.6-3.4-4-58.5 1" />
    <path fill="#ca9200" d="M228 282H97.3l35.4 34.8 98-8.3" />
    <path fill="#fff" d="M127 757.2l-140-4.6L24 799l188.4-41" />
    <path fill="#878682" d="M344 694.2l34 1 84.4 1-76-5.5" />
    <path fill="#fff" d="M238.7 674.4l71.8-11.6L417 664l9.5 9.8" />
    <path fill="#6f6e6e" d="M754.8 433.2l-37.4 2.2-31.7-2.8 78-1" />
    <path fill="#6d6d6d" d="M160.4 447.7l-19.4-6.3 13.8-12.2 10 11.3" />
    <path fill="#fff" d="M363 349.8l164.3 120.5-81 90.2 12.7-186" />
    <path fill="#b4b0ad" d="M471.7 63l18.7 21.7 44.7 42.7-63-71.6" />
    <path fill="#b2c7c9" d="M752 501.4l49 88.5-22.5-64-37.7 7" />
    <path fill="#fa675b" d="M517 169l14.5 11-6-30.7v3.4" />
    <path fill="#eeefe6" d="M546 696.7l9.8-33.8 110 6-128 8" />
    <path fill="#5d5d66" d="M219.8 726.5l2-2.5 25.5 4-31-31.3" />
    <path fill="#fff" d="M407.8 208.4L385.6 179l64-25.7-17 68.5" />
    <path fill="#645753" d="M615.2 205l7.8 15-30.7-15 5.4-1.8" />
    <path fill="#4e64ff" d="M419.6 225.5l-9.8 31.4-1.3-26 120-1" />
    <path fill="#494942" d="M619.8 692.4l46.2 2.4 43.5-3.2-52.8-.6" />
    <path fill="#52524e" d="M420.2 695.3l-87.4-6.7-157.3 6.4 193-2" />
    <path fill="#e59400" d="M66 116l23.6-34-9-48-3 45.5" />
    <path fill="#9c9c9c" d="M739.7 384.8l58.6 8 39.2-7H828" />
    <path fill="#151521" d="M982 626l-2.6 50-2.3-65 3-35" />
    <path fill="#fcfbfe" d="M437 609l125.2-9.6-279.6.3-5.4 12" />
    <path fill="#fafaf3" d="M535.7 647.7l-1.5 2 5 8.5-297.6-.5" />
    <path fill="#4d69f1" d="M607 267.8l20-53.4-33.2 55L600 225" />
    <path fill="#74747f" d="M583 740.6l4.3-96.2L589 691l-.5 17.7" />
    <path fill="#f5f0ff" d="M568.5 149L583 69.4 562.2 138l3.6 14" />
    <path fill="#0e59ae" d="M894.3 222h-1.6l11.4-2.5-6 37.5" />
    <path fill="#fff" d="M23.5 573.2l155.3-13-198-390.2 15 603.7" />
    <path fill="#3a071f" d="M154.8 722l-19 24.3-26.8-21 142.2-1" />
    <path fill="#7a7a77" d="M208.2 32.7l-.5-9.2L105 25l105-13.4" />
    <path fill="#3ab468" d="M292.5 348l28.8 11-37 2 11.3-35" />
    <path fill="#42c74d" d="M880 168.5l20.8 26.6-21.5 6-1.8-12" />
    <path fill="#7174ee" d="M579 413.6L461.7 407l9.7-31-21.7 49.4" />
    <path fill="#5f5e5d" d="M939.7 754.4l-84.4-.2L700 756h179" />
    <path fill="#bbb" d="M716.8 329L697 348.7h166l-1.2-4" />
    <path fill="#045cc4" d="M341.6 418l3 24.2 6-24.6-4-10" />
    <path fill="#363635" d="M357.2 737l-57.2 4h179l-138-2" />
    <path fill="#fff" d="M406.3 691l-65-1 54.8-11.8 7-2.4" />
    <path fill="#b1005b" d="M140.6 639.6L132 625l-14 20-12.2 2.4" />
    <path fill="#e3e2df" d="M924.6 579l-144-18.4 227 33.7-79.5 2.5" />
    <path fill="#454557" d="M742.2 684.8l-5.4-73.2 15 62.7-17.5-16.6" />
    <path fill="#fff" d="M666.8 296l-13.2-23.8 54.4-6-85 86.5" />
    <path fill="#ddf8ff" d="M939 217.5l-123.7-5-1.2 129.2-7-122.5" />
    <path fill="#4b494b" d="M466.4 653.4l-1-30 4.4 15.3.3 13.3" />
    <path fill="#fffeff" d="M719.2 90.8l20-10.3 7.4 23.5-128.4-4.2" />
    <path fill="#fafffd" d="M410 249.7l-31-50 17.8 47-14 37.3" />
    <path fill="#221228" d="M416.5 417l46.8-2.6-66.3-.5-66.7-1" />
    <path fill="#21211d" d="M748.7 670.8l42.3 8-77.8-.5 3.7 16" />
    <path fill="#5d5d5f" d="M624.7 612.8l1 30.5-38-.2 47 7" />
    <path fill="#7c7b78" d="M662 743.6l-17.8-2.4 4-20.7 13 15" />
    <path fill="#748da9" d="M196.8 447v-79.3l-9 21.6 18 86" />
    <path fill="#5b5b56" d="M772.7 630.2h-113l256-3.3-47 4" />
    <path fill="#6171f1" d="M632.4 111l-51.2 22-43.4-7 21-10.3" />
    <path fill="#484a5f" d="M915.8 140l3.7 25.8-.6-45.3-2-8" />
    <path fill="#01010d" d="M1014 732.3l-1-182.6-4 139.7-3.8 19.4" />
    <path fill="#fff" d="M534 387.5l-6.8-7.5 1 26.6 6 1.3" />
    <path fill="#2f7178" d="M488.7 384.5l-112.8-41 80 26.2 31 4.7" />
    <path fill="#e7e7fc" d="M134.3 175.7l5-2 .6-164-7 129" />
    <path fill="#fefefc" d="M593 594l199.2 1.6 6.2-6-8.5-.8" />
    <path fill="#f4f5f6" d="M210.2 799l-9.5-91.3 14.4 5.8 1 38.5" />
    <path fill="#fafbfe" d="M773.2 555.2l.3 135.6-36.5-1.6 40.5-13.2" />
    <path fill="#fdfcff" d="M481 221l4 106.7 58 41.3-29.5 1.2" />
    <path fill="#646460" d="M318.4 723.2l15 1.7 60.3 1 123.8-2" />
    <path fill="#454646" d="M287 584.2l-116-2.5 86.6-.8h83.7" />
    <path fill="#a8a8a8" d="M96.3 434.8l5 1-20 9.3-3-14" />
    <path fill="#fff" d="M695.7 135.5l6.6 25.5 4-30.5-3.2-15.3" />
    <path fill="#4486d2" d="M739.7 222.7l-14 45 2.8-52.3 95.3 20.4" />
    <path fill="#b4b3b3" d="M760 307.2l-7.5 7.8-3.2 10 130.5-16" />
    <path fill="#fbffff" d="M278.6 361.2l4.6 94-21.8-70 77.3-16.4" />
    <path fill="#184999" d="M505.4 164.7L495 150l22.3-2.3-.3-4" />
    <path fill="#5b5b69" d="M508.5 686l7.2-26.5-7.8-70.3 7 42.4" />
    <path fill="#0d0d1a" d="M790.5 667.8l-2 63.5-7.7-53.6-2-36.7" />
    <path fill="#fff" d="M859.5 422.2L890 274.6 824 251l38.4-39.6" />
    <path fill="#f7eeff" d="M145 396.7l-16.4 46 10-53.3 6.6-8.2" />
    <path fill="#fff" d="M597.3 442.4l-176-18h93.2l101 4.7" />
    <path fill="#fff7fb" d="M722.4 108.8l-22.5 6-41-2.4 6-5.6" />
    <path fill="#f6f5f9" d="M691.2 598.3l-143.7 5 63.2 9.7 129-3.2" />
    <path fill="#f3fb78" d="M75.2 221.5l-3-80-4.4 20.6 3 190" />
    <path fill="#514f50" d="M479.5 741.5l-4.8.2-23-3L504 740" />
    <path fill="#fff" d="M641.7 662.4l-7.3 8.5 30.2 3 60.7-11" />
    <path fill="#c3b3ce" d="M414 576.8l41.4 2.6-20.2-47.6-28-1.3" />
    <path fill="#494984" d="M227.2 154.3l1.3 40.4.2-42-1.4-134.4" />
    <path fill="#fff" d="M418.2 707.8l-64.6-3 18.8-27-30.2 9" />
    <path fill="#4b4b47" d="M708.8 630l-30 2.2-16.3-5-69.7 3.7" />
    <path fill="#2776bd" d="M391.2 258l-28.4-6.8 48 15L397 291" />
    <path fill="#faf8f9" d="M441 582.7l-229.3 10 224.5 3.3 26.2-7.4" />
    <path fill="#464752" d="M1008.8 731l-22.5-10-16-30.6-3 31.5" />
  </g>
</svg>