<svg version="1.1" viewBox="0 0 1024 768" width="1024" height="768" xmlns="http://www.w3.org/2000/svg">
  <g fill-opacity=".5">
    <path fill="#83827f" d="M572 45l-2 19-7 42 18-92" />
    <path fill="#fffffd" d="M621 199l-65 12 38-20 222-6" />
    <path fill="#245a89" d="M581 207l3 54 6-42-21-15" />
    <path fill="#17171b" d="M294 592l-3-10v30l3-20" />
    <path fill="#9695b9" d="M613 482l-6-9-40-67 25 31" />
    <path fill="#fff" d="M344 310l-2-151-109-94 107 313" />
    <path fill="#5ca23b" d="M884 162l60-2-35-3-23-8" />
    <path fill="#979695" d="M783 752l-154 7 10-7 50 6" />
    <path fill="#1016d0" d="M678 123l-4 4v16l7 10" />
    <path fill="#1a1a23" d="M928 599l-2-19-16-5 2 47" />
    <path fill="#bdc3d2" d="M483 567l29-5-6-36-31 11" />
    <path fill="#f3fcff" d="M483 393l8-18-3 31-9 12" />
    <path fill="#fff" d="M457 69l-41-9-26 47 60 16" />
    <path fill="#0004c1" d="M123 612l107 2-102 1-28-1" />
    <path fill="#676e4a" d="M929 253l12-64 6 23-20 12" />
    <path fill="#c5aaaa" d="M547 372l13-20 37-42 28-27" />
    <path fill="#a4a5a2" d="M444 443l-194-3-39-30 46 36" />
    <path fill="#aba7a8" d="M412 437l-63-4 78-2 35 2" />
    <path fill="#303137" d="M425 674l4 1-3-81-1 19" />
    <path fill="#fff" d="M970 334l-11 139 15 91 81 1M19-13l-50 213 80 15-22-12" />
    <path fill="#3977ca" d="M209 377l-5 18 4 32 6-35" />
    <path fill="#62626d" d="M274 598l-1-28-5 33 20 39" />
    <path fill="#fffcf7" d="M246 578l-9 6-5-65 9-49" />
    <path fill="#0a665c" d="M561 149l4 13h-9l-20-6" />
    <path d="M897 677l5 11-9 20-3-21" />
    <path fill="#fff" d="M524 583l-20 12 47 1 9-12" />
    <path fill="#2e38a7" d="M590 413l6-4 9 22-11-47" />
    <path fill="#f7f8f9" d="M540 386l4 4 53-83-48 107" />
    <path fill="#15a1a7" d="M863 176l-4 40 10 26-3-75" />
    <path d="M345 156l3 6-3 81 1-64" />
    <path fill="#ded9ff" d="M163 411l27-22-10 43-7-53" />
    <path fill="#fff" d="M706 333h257l-193-18 160-5" />
    <path fill="#d0f4ed" d="M879 136l-9 68 13-46 1-42" />
    <path fill="#92948c" d="M89 570l-18-4-6 4 7 8" />
    <path fill="#1682ae" d="M253 372l13 3-8 38 13 1" />
    <path fill="#07070b" d="M751 686v75l-5-25 1-27" />
    <path fill="#e8f36b" d="M96 27L79 190V83l19 58" />
    <path fill="#cbce23" d="M128 172l104 48-56-189-43 179" />
    <path fill="#fff" d="M925 799l124-40-131-2H776" />
    <path fill="#8c8282" d="M459 206l3 18-26-22h1" />
    <path fill="#0d0000" d="M72 39L62 73l-4-15-1-23" />
    <path fill="#1fc35b" d="M497 115l-43 1-1 13 43-1" />
    <path fill="#fff" d="M805 541l15 72 29-162 45-219" />
    <path fill="#5f5e58" d="M909 632l-35-2 140-2-94 4" />
    <path fill="#22b8b1" d="M113 172l-15 8 1-14 7-2" />
    <path fill="#8f0003" d="M77 30L55 219l2-169 21 48" />
    <path fill="#fffef9" d="M939 689l58 3-8-15-33 3" />
    <path fill="#fff1df" d="M516 155l-6-44 28 34-5 23" />
    <path fill="#d6a49c" d="M696 496l2 4 7 10-9 53" />
    <path fill="#fffeff" d="M512 626l-8-10-86 1 79 12" />
    <path fill="#fff" d="M845 679l48 29-43-3 33-25" />
    <path fill="#fefaff" d="M594 260l17-12 2-23-51 125" />
    <path fill="#fff" d="M153 689l44-10-3 31-1-20m437-264l202 9 186-106-277 87" />
    <path fill="#fffffe" d="M819 626l80 3-14-14-103 8" />
    <path fill="#3e3e3c" d="M979 580l-8 4-2-13 27-8" />
    <path fill="#f1ecff" d="M578 152l8-11-9-24 2-42" />
    <path fill="#2380a5" d="M631 454l22-47 14 9-17 16" />
    <path fill="#91908f" d="M351 758l-98-7-12 5h-8" />
    <path fill="#296f5a" d="M218 373l46 3-45 6 11 48" />
    <path fill="#dffdff" d="M250 440l11-40-18-21 17 49" />
    <path fill="#505056" d="M686 629l-3 51-2-46 1-6" />
    <path fill="#fcfcff" d="M837 57l-57 155 89-50-84 20" />
    <path fill="#f5f9ff" d="M832 115l2 65 5-53-2 7" />
    <path fill="#68a531" d="M408 335h9l-17 33 19-15" />
    <path fill="#f3f3f5" d="M537 774l-12-111 27-32h-31" />
    <path fill="#4880e3" d="M832 264l-22 2 22-48-15 3" />
    <path fill="#edece7" d="M172 634l2 11 40-5-13-9" />
    <path fill="#fff" d="M228 285l12 141-15-38 109-127" />
    <path fill="#c8fff2" d="M897 174l18 43v-35l-57 1" />
    <path fill="#95004c" d="M120 578l10 21 13-5-8-13" />
    <path fill="#fff" d="M667-31l-40 67 91 3 337-18" />
    <path fill="#767676" d="M317 90h66l17 7-90-1" />
    <path fill="#fff" d="M512 701l-33-7 32 28-40 1" />
    <path fill="#4d62ef" d="M553 263l-6-17-2-8 11-18" />
    <path fill="#050804" d="M172 756l-2-14-42 2-11 10" />
    <path fill="#f7f7ff" d="M162 89l-62-1 11-6h51" />
    <path fill="#9a9999" d="M437 737l12 21-60-1 58-7" />
    <path fill="#ff5e4f" d="M976 212l4 4 3 9-15-5" />
    <path fill="#456988" d="M928 119l-54 8 7 12-14-24" />
    <path fill="#a14f44" d="M660 107l-2 47 1 1 5 6" />
    <path fill="#6f6e6b" d="M552 648l-145-5h332l-167 4" />
    <path fill="#2436c7" d="M569 416l12-7-10-37 12 23" />
    <path fill="#3d3d35" d="M814 581l-1 37-4-29 34-8" />
    <path fill="#373834" d="M902 597h-36l-72-2 19 4" />
    <path fill="#ecece8" d="M937 745l19 15 25-36 8 13" />
    <path fill="#edecf6" d="M933 680l3 43 31-4-24-4" />
    <path fill="#2f302f" d="M832 581l-64 3 4-5-118 4" />
    <path fill="#696ff6" d="M824 165l11-46-13 27-76 12" />
    <path fill="#fffff3" d="M899 112l16 21v23l-24-10" />
    <path fill="#f0f8fb" d="M772 258l27-94-19 56-18 13" />
    <path fill="#fff" d="M374 579l35 2-17-109-15 33" />
    <path fill="#4157d3" d="M765 136l3-11 5 9-19 42" />
    <path fill="#fff" d="M339 317l-24 39-84-343-1 343" />
    <path fill="#f1f2f7" d="M275 681l-21-4 3 39 18-14" />
    <path fill="#515de9" d="M479 238l-24 24 2-40 14 48" />
    <path fill="#eceded" d="M758 542l12 53-2-34-58 13" />
    <path fill="#464646" d="M321 739l31 2-148 1 83-2" />
    <path fill="#2728bd" d="M539 380l-3 31 4-3 5-2" />
    <path fill="#a1aca5" d="M943 232l26 66-7-7-34-96" />
    <path fill="#fff" d="M368 432l-21-273-28-1h54" />
    <path fill="#4d4d32" d="M470 269l4 9 6-7-9 17" />
    <path fill="#f6f0ff" d="M153 385l-2 30 21-58 39-28" />
    <path fill="#dc713b" d="M319 351l9-17 5 48-10-26" />
    <path fill="#4a4a46" d="M456 705l-12-31-92 4 107 2" />
    <path fill="#faffff" d="M490 199l-13-45-3 28 65 6" />
    <path fill="#474cdd" d="M623 202l-19-72-7 26 10-7" />
    <path fill="#565652" d="M241 600l8-6 2 12-9-25" />
    <path fill="#5757b3" d="M632 217l43 15-88-16 86-1" />
    <path fill="#bfb525" d="M225 392l-11 33 19-6-6-9" />
    <path fill="#9ee5bf" d="M943 539l9 23 16-8-2-27" />
    <path fill="#36363e" d="M757 580l9 7-26 58 5-25" />
    <path fill="#fffffa" d="M561 206l1 36 14 21 3-51" />
    <path fill="#17a18a" d="M229 431l4 24 14-60 4 24" />
    <path fill="#9599a7" d="M797 176l-56-11-3-28 23 42" />
    <path fill="#fff" d="M837 631l-92 1-2 11 73-3" />
    <path fill="#989995" d="M24 264h3l11-11-16-50" />
    <path fill="#636363" d="M723 89h-50l-27-6 78-1" />
    <path fill="#adafea" d="M374 565l2-36-15 1-1 40" />
    <path fill="#4f4e4b" d="M594 599l71-1-67-2-16-27" />
    <path fill="#adafab" d="M19 611l61-1 25-9-136-3" />
    <path fill="#fefffa" d="M718 723h-62l-28-12 113-1" />
    <path fill="#4d4ceb" d="M622 712l44-4-155-1 110 4" />
    <path fill="#6c8cfd" d="M717 263l67 3 49-14-94 1" />
    <path fill="#3756c7" d="M538 402l12-47 27 79-25-84" />
    <path fill="#fff" d="M945 222l-1 14 68-25 43 43" />
    <path fill="#00010d" d="M544 652l-3-2-3-3-1 67" />
    <path fill="#636269" d="M556 604l-19 100 24-110-7-21" />
    <path fill="#494cf8" d="M788 614l67-1 79-1-92 4" />
    <path fill="#ff7e72" d="M967 371l-24 17 1 32v-53" />
    <path fill="#e9f2fa" d="M865 213l55 7 5-251 4 244" />
    <path fill="#3e434c" d="M188 603l2 68 5-16-4-40" />
    <path fill="#fff" d="M467 722l61-9-84-2 1 5" />
    <path fill="#0e1114" d="M199 690l5 21 3-9-11-52" />
    <path fill="#e1e2fa" d="M678 213l-39-11 31 19 12 36" />
    <path fill="#fff" d="M404 172l-26 60-1-52 114 35" />
    <path fill="#2eb0f5" d="M562 213l-3-3 2-12-35 5" />
    <path fill="#ecede6" d="M781 726l5 28 5-39 51-3" />
    <path fill="#919191" d="M693 475l26 2 71-1-80-4" />
    <path fill="#7c82f5" d="M502 214l10 53-121 2 111-21" />
    <path fill="#fff" d="M-31 278l68-22 4-203 14 239" />
    <path fill="#000012" d="M542 625v-20l-2-10-4 31" />
    <path fill="#505155" d="M417 678l-2 36-7-10-2-29" />
    <path fill="#5965d4" d="M733 136l-59 25 22-31 2 18" />
    <path fill="#787a1b" d="M207 198l-88 1 83-5 5-52" />
    <path fill="#eefcfd" d="M616 352l-49-15 52 36-33-2" />
    <path fill="#ca9201" d="M110 284v-94l-2 121 119 3" />
    <path fill="#84868c" d="M110 122V56l-4 77 4 131" />
    <path fill="#2334a8" d="M737 124l5-3-17 2 1-24" />
    <path fill="#3435ff" d="M394 615H290l42-3h69" />
    <path fill="#7d7c7c" d="M373 579l8 28 4-14-2-12" />
    <path fill="#5a5953" d="M485 696l-13-21 2 21 14-6" />
    <path fill="#fffcfc" d="M816 470l-135-24 85 1-155 24" />
    <path fill="#1e1fc9" d="M1001 612l-48 2 51 3 14-1" />
    <path fill="#3f2b25" d="M509 119l-9 5 55-4h-46" />
    <path fill="#fff" d="M427 413l-12-147 97 61-194 69m59-288l-14 47-20-6-102-44" />
    <path fill="#393841" d="M993 681l-5-39-4 32-34 2" />
    <path fill="#e7f7fc" d="M764 220l-96-6 108-1-10-1" />
    <path fill="#edf9ff" d="M544 169l1 14 105-25 49-2" />
    <path fill="#a19e88" d="M777 296l-22-12 19-3-3-115" />
    <path fill="#494942" d="M967 723l8-6 26 8-66 2" />
    <path fill="#0d0d10" d="M336 712l6-35h15l-35 2" />
    <path fill="#fff" d="M268 728l-3 8-68 2 301 1" />
    <path fill="#3876eb" d="M396 328l-22 4 2-17 19 28" />
    <path fill="#f9f5f7" d="M346 413l58 27-124 1 137-9" />
    <path fill="#52ba8c" d="M86 227l2-21 15 1-12 14" />
    <path fill="#fff" d="M797 472l148 51-5-240-41 17" />
    <path fill="#524ff0" d="M585 163l-7 1 13-45 8-10" />
    <path fill="#fff" d="M599 25l109 6-274 8 181 16m425 97L912-31 737 96l-43-46" />
    <path fill="#fff" d="M1052 225l-89 21 58 29L886 56" />
    <path fill="#6e5e44" d="M786 278l8-6 10 3-2 9" />
    <path fill="#ebfeff" d="M464 325l7 96 8-91-26 47" />
    <path fill="#1351ab" d="M860 129l-1-6-4 41 9-39" />
    <path fill="#5c5659" d="M378 111l-2 76-4-8 4-50" />
    <path fill="#989623" d="M360 235l31 6 12-47-16 33" />
    <path fill="#5a5a69" d="M460 592l-1 12 5 12 1-39" />
    <path fill="#323cd9" d="M176 410l5 4v-38l-11 43" />
    <path fill="#fff" d="M502 93l-8-37-229-36 245-51" />
    <path fill="#605541" d="M661 202l1 10h24l-11-5" />
    <path fill="#fff" d="M49 607l-70-44 12 77 55-104m582-386l-7-18 12 66-12-17M182 481l-23-55-69 5 102-10" />
    <path fill="#5c5c56" d="M597 677l48-3 109 4-241 1" />
    <path fill="#53c3ea" d="M482 126l-28-27 14 28 4-30" />
    <path fill="#fff" d="M131 478l193 5-173 80 2-128" />
    <path fill="#dde3fa" d="M796 277l-7-47 11 5-14 93" />
    <path fill="#636363" d="M310 105l43-2 24 3-30 1" />
    <path fill="#fffffe" d="M358 755l-101-6 129-7 34 10" />
    <path fill="#838417" d="M219 298l-5-74 3-87 2 30" />
    <path fill="#f2f1f3" d="M294 648l-53 3-16 9 290-12" />
    <path fill="#656565" d="M701 654l5-18-9-20 1 45" />
    <path fill="#9c9e9b" d="M77 595l-28-4v-4l73-7" />
    <path fill="#b3b3c5" d="M112 555l6 101 3 15-14 12" />
    <path fill="#554525" d="M695 217l14 7-1 7-11-10" />
    <path fill="#3c3d37" d="M306 692l-59-1-70 1 19 4" />
    <path fill="#0e0e08" d="M1005 600l10 10-6-63 2 16" />
    <path fill="#868682" d="M85 13l77 5-30 6-58 1" />
    <path fill="#716761" d="M811 213l-23-11 37 4-2-13" />
    <path fill="#fff" d="M529 58L137-31l10 114 7-80" />
    <path fill="#cfd21e" d="M223 37l-36 1-26-3 67 105" />
    <path fill="#f6f7ff" d="M816 162l40 4-62 38 51-147" />
    <path fill="#fffffb" d="M456 689l-46 1 31-13 10 13" />
    <path fill="#6a6a73" d="M287 637l-13 99 8-96 1-19" />
    <path fill="#fefaff" d="M465 225l7 12-18 39 10-25" />
    <path fill="#2444c9" d="M483 395l-10-21 11-6-13 55" />
    <path fill="#86897e" d="M194 35l-55 1-75-1 72 5" />
    <path fill="#848085" d="M462 135l-24-9-44-18-18-11" />
  </g>
</svg>