<svg version="1.1" viewBox="0 0 1024 768" width="1024" height="768" xmlns="http://www.w3.org/2000/svg">
  <g fill-opacity=".5">
    <path fill="#fff" d="M629 273l-108-5 97 82-100 11" />
    <path fill="#b09535" d="M733 196l27 13 15-11 5 27" />
    <path fill="#bebecd" d="M278 539l-63-11-8 28 73 23" />
    <path fill="#004154" d="M385 345l-11-40 3-26-3 62" />
    <path fill="#82827b" d="M572 644l5-28-28 33 190-3" />
    <path fill="#6d798c" d="M922 168l-6 86-33 23 20 4" />
    <path fill="#505047" d="M683 678l-104-2-61 1 15 2" />
    <path fill="#686769" d="M719 677l46 66-191-2 172-4" />
    <path fill="#828180" d="M338 741l19-2h85l3 3" />
    <path fill="#3c3b3b" d="M417 584l-134-2 113-1 53 1" />
    <path fill="#0c0b03" d="M746 610v-12l86 1-62-2" />
    <path fill="#3a3bfb" d="M947 611l54 6-178-6 49 6" />
    <path fill="#526a80" d="M628 354l124-130-26-6 23 22" />
    <path fill="#fff" d="M153-30l231 10 8 110-106-3" />
    <path fill="#0d0116" d="M180 717l-73 23 62 18-50-58" />
    <path fill="#00f" d="M492 612l-2 2-56 1h-69" />
    <path fill="#a4a3a4" d="M712 485l132-1-118-12 71 2" />
    <path fill="#4794be" d="M541 365l18 2-4-30-21 44" />
    <path fill="#605f5c" d="M333 646l-97-1 68-2 259 4" />
    <path fill="#fff" d="M664 404l63-129-24 114 138 5" />
    <path fill="#1a1918" d="M585 599l74-1-111-2-18 3" />
    <path fill="#ed461d" d="M501 113l-2 6 4 28 11-33" />
    <path fill="#292fee" d="M213 663h-17l-109-4 128 2" />
    <path fill="#d8b1a7" d="M519 299l38-2 14 23-59 1" />
    <path fill="#4c4c46" d="M819 696l-37-5 228 1-141 3" />
    <path fill="#a39f34" d="M904 197l-8-46 22 1 2-34" />
    <path fill="#3c3eea" d="M256 711l-113-1 13-3h173" />
    <path fill="#000107" d="M747 764l-1-81 4 11 1 52" />
    <path fill="#4141ff" d="M556 662l-152 2 13-4h263" />
    <path fill="#fff" d="M322 454l200-20-73 147 57-2" />
    <path fill="#807f7c" d="M915 568l4 7-101 9h92" />
    <path fill="#fff" d="M825 765l229-11-211 45-12-152" />
    <path fill="#e9e9e9" d="M991 632l-23 7 30 8-6-209" />
    <path fill="#fff" d="M619 366l87-65-47 92-47 14" />
    <path fill="#fffffb" d="M986 743l-12-24-12 53-2-43" />
    <path fill="#d2d2da" d="M991 613l7 135-7 4v-94" />
    <path fill="#fff" d="M616 615l-40 25 56 49-16-6M375 189l131 25 53-16-151-40" />
    <path fill="#97be44" d="M977 232l-43-15 7-26-1 6" />
    <path fill="#44443b" d="M348 675l185 1-34 1-45 3" />
    <path fill="#fff" d="M672 725l-18 11 84 4 13-11" />
    <path fill="#262621" d="M984 755l7-36 1 40-6-3" />
    <path fill="#afaeae" d="M598 281l12 34h2l50-21" />
    <path fill="#fff" d="M953 225L907 76 711 19l344-50" />
    <path fill="#930000" d="M87 146l-30-30-2 158 13-129" />
    <path fill="#111117" d="M790 747l2-80-17 25 29 45" />
    <path fill="#fff" d="M915 711l-2-34-130-8 124-8" />
    <path fill="#f1fff0" d="M580 237l-21 24-11-148-2 54" />
    <path fill="#fff" d="M-5 165L-20-31l332 43-251 3" />
    <path fill="#caeaf1" d="M985 223l-51 8-46-2-5 27" />
    <path fill="#fff" d="M867 758l-362 1-252 4 802 36" />
    <path fill="#747374" d="M714 52l-82-6-31 6 102 1" />
    <path fill="#6bf731" d="M958 443l1-32-16-13 2 41" />
    <path fill="#428a93" d="M481 394l-103-65 63 38 40 8" />
    <path fill="#545454" d="M531 444l-9-12 1 22 3-5" />
    <path fill="#10111f" d="M917 651l1 91 4-33-1-115" />
    <path fill="#fff" d="M275 728l203 10 142-10-162-1m25-663l-106 2 28 31 180 17" />
    <path fill="#8d8c8c" d="M704 399l46 17-56-2 67-10" />
    <path fill="#2a5c9e" d="M484 101l8 29V95l-26 19" />
    <path fill="#fffffa" d="M230 633l11 23 35 1-4-26" />
    <path fill="#b9bbb7" d="M99 667l-6 91-91-8 63-24" />
    <path fill="#2f2e29" d="M550 756l-16 1 7-15 8 1" />
    <path fill="#fff" d="M610 504l-479-56h478l-28-68m-457 31L-31 223v456l163-301" />
    <path fill="#868682" d="M362 721l-42 7 83-3-31-2" />
    <path fill="#949fe7" d="M678 533l-15 16 37 7-5-30" />
    <path fill="#17061e" d="M446 124l-38-3-54 1 52 3" />
    <path fill="#fff" d="M445 294l-28 64 66 14-31-150" />
    <path fill="#5353f4" d="M873 706l-16-1 87 7-160-4" />
    <path fill="#fffffc" d="M695 216l28 57 1-36-33 5" />
    <path fill="#60895c" d="M331 439l-8-33 130 10-117 2" />
    <path fill="#9ea09a" d="M35 646l38 15-99-7 8 8" />
    <path fill="#5b5456" d="M401 158h-11l-49 1 14-8" />
    <path fill="#cab0b2" d="M837 630v-92l16-16-12 113" />
    <path fill="#71706a" d="M987 673l-132 6-32-8 127 9" />
    <path fill="#20201c" d="M539 563v22l3-5 15 5" />
    <path fill="#656461" d="M907 643l-158 3 216 2 29-3" />
    <path fill="#637b94" d="M813 202v32l11-16-40-12" />
    <path fill="#fff" d="M1001 608l28-434-70 117 77 24m-803 51l2-243 189-4-49-20" />
    <path fill="#3357c3" d="M893 140l1-30-25 47 6-42" />
    <path fill="#5387ff" d="M966 486l-22-44-2 42 5 4" />
    <path fill="#464d4a" d="M341 331l7-38-2 106-2-87" />
    <path fill="#2777bd" d="M112 424l-4-1 12-65-1 41" />
    <path fill="#fff" d="M570 538l165-54 24 98 5-57" />
    <path fill="#7d7d7d" d="M634 82l54 8 34-5 24-3" />
    <path fill="#fbfffd" d="M239 422l13 49 74-57-49 10" />
    <path fill="#fff" d="M330 365l-51 6 131 43-144-7m86-45l141 48-124-67-19-200" />
    <path fill="#e0f2ff" d="M907 346l28-186-52-33 42 39" />
    <path fill="#fff" d="M550 267l-107 88-67-101 4 77" />
    <path fill="#107d25" d="M264 367l8-15 2 6 11 7" />
    <path fill="#3f2130" d="M101 603l60-23 57 4-61-18" />
    <path fill="#7984fd" d="M397 270l13-22 162 19-92-1" />
    <path fill="#758f71" d="M579 88l9 16-74 19 37-1" />
    <path fill="#0a5498" d="M614 421l27 19v8l-29-12" />
    <path fill="#73736f" d="M151 754l62 5-15-20h-7" />
    <path fill="#2a2bff" d="M282 617l-82-4h118l-60 3" />
    <path fill="#5252ea" d="M980 657l-17 7-123-2 123-4" />
    <path fill="#5b5ce9" d="M858 711l73-4 71-1 39 3" />
    <path fill="#1d1d1f" d="M939 730l8-4-15 34-5-65" />
    <path fill="#ecf3eb" d="M976 598l-1-14-40-5 5-68" />
    <path fill="#95a1bd" d="M629 527l11 56-21-1-6-54" />
    <path fill="#5f5549" d="M685 265l8-9 27-28-4-2" />
    <path fill="#4e8b8f" d="M535 169l14-89-8 115-24-37" />
    <path fill="#262621" d="M689 694h67l-48-13 24 2" />
    <path fill="#57ac3a" d="M578 182l-2 24-40-8 24 3" />
    <path fill="#575656" d="M457 52l1-4-65 3 24 2" />
    <path fill="#151514" d="M259 734l-4 22-1-22-2-20" />
    <path fill="#616e73" d="M488 351l22 11-29 5 1 12" />
    <path fill="#4d4ef4" d="M801 665l28-2 12-2-112-3" />
    <path fill="#5b76b5" d="M699 131l-18-14-65 10 22-11" />
    <path fill="#fffffe" d="M676 67L532 35l58 58-5 26" />
    <path fill="#fdfdfb" d="M795 651l-1 25 115-2-112-10" />
    <path fill="#1bbb7f" d="M371 376l-23 8-48-3 22-7" />
    <path fill="#fff" d="M284 580l133-1-102-21-41-103" />
    <path fill="#7c8f88" d="M670 370l30 5-101-29 79 27" />
    <path fill="#281c2e" d="M373 250l5 80-2-119v-42" />
    <path fill="#fff" d="M1038 494l-292-8h-97l231 54" />
    <path fill="#4d8094" d="M608 408l-12-54-30 3 49 16" />
    <path fill="#fff" d="M1017 703l-3-200 41 296-41-57" />
    <path fill="#2e87d1" d="M862 238l84-18-68-3-12 51" />
    <path fill="#fff" d="M-31 675l84 25-84-101 104 23" />
    <path fill="#696a64" d="M205 642l19 9 56-6-39-1" />
    <path fill="#4c3700" d="M89 33l-3 7 3 177V42" />
    <path fill="#d6d919" d="M155 95l-9 203-6-178 36 13" />
    <path fill="#46413e" d="M275 630l-155 1 153-4 145 4" />
    <path fill="#777770" d="M571 691l-21 6 73-6h-25" />
    <path fill="#fff" d="M398 364l20-37 228-57-244 24" />
    <path fill="#262526" d="M487 597l-54 3-31-3 158 2" />
    <path fill="#fffdfa" d="M672 163l-41-39-26 7 42 31" />
    <path fill="#fffffc" d="M930 727l-7 12-69-7 38-6" />
    <path fill="#151512" d="M1055 739H852l31 2h83" />
    <path fill="#080917" d="M791 630l-11 1-1-35 7 19" />
    <path fill="#4e5ae7" d="M707 128l2 35 8-33 17-26" />
    <path fill="#717991" d="M685 155l57-4 15 47-2-41" />
    <path fill="#e8e9f1" d="M75 728l49-116-147 10 140-17" />
    <path fill="#434c50" d="M908 213l17-3-21-2-58 1" />
    <path fill="#469002" d="M839 277l-15-19 2 5 25 6" />
    <path fill="#45453d" d="M321 676l-25 10 2-8-74-2" />
    <path fill="#868aad" d="M628 188l-94 4 102-11v-55" />
    <path fill="#fff" d="M722 167l11 57-37-5-42-51M204 670l13-11 2 31h38m161-73l-139-2 38-201-38 216" />
    <path fill="#0044af" d="M621 266l13 2-2-25-15 21" />
    <path fill="#2f2fdf" d="M727 711l-4-4 110 1h35" />
    <path fill="#e9ffff" d="M862 227l-9-25 82-9-136 24" />
    <path d="M139 585l2 179 16-198-39 4" />
    <path fill="#35cc6b" d="M454 176l-9-29 31 3-11 6" />
    <path fill="#d0db1a" d="M222 281l6-72-82 13-27 60" />
    <path fill="#848384" d="M403 111l-8-23-86 9 45-11" />
    <path fill="#fffffd" d="M705 687l6-22 24 9-116 14" />
    <path fill="#3b4350" d="M918 150l2 43-8 76 8-162" />
    <path fill="#fffff5" d="M453 663l-55 12 121-1-22-7" />
    <path fill="#c02f2e" d="M969 251l16 5-45 13 16-20" />
    <path fill="#8687b4" d="M609 114l19-60-16 30-14 83" />
    <path fill="#fff" d="M382 126l166 9-161 16-6-2" />
    <path fill="#7d7c7a" d="M525 736l-14-9-78-2 101-4" />
    <path fill="#7f82f3" d="M753 163l99-67-13-4-13 70" />
    <path fill="#373633" d="M857 733l-17 32 5-10-2-36" />
    <path fill="#fffd9b" d="M640 239l-2 15 15 4-9-53" />
    <path fill="#444643" d="M724 596l-17 2 44 2 34-1" />
    <path fill="#fff" d="M794 109l-3 94 55-18-62-37" />
    <path fill="#2e3129" d="M211 677l87 1-95-4-7 39" />
    <path fill="#c1e1ff" d="M756 252l-3-57-13 68-10-33" />
    <path fill="#7fa85b" d="M216 382l16 66-14 17 19-39" />
    <path fill="#569b8f" d="M642 418l29 3 10-5-61-14" />
    <path fill="#9d0e61" d="M138 690l-32 6 26-26 10 19" />
    <path fill="#616159" d="M820 723l3 18-34-23-34 7" />
    <path fill="#fff" d="M588 163l71 42 7-18-123-18M300 96l111 3-160 3 88 262M195 583h71l-52 15-34-6" />
    <path fill="#cfd0d5" d="M997 587l-15 14 3 95V588" />
    <path fill="#5e76e7" d="M689 242l-9 14-30 14h47" />
    <path fill="#f6fae2" d="M220 385l-25 25 6-31 18 49" />
    <path fill="#484af7" d="M248 664l90-3-45-1-79-2" />
    <path fill="#fffffd" d="M432 719l-104 5-95-6 92-8" />
    <path fill="#fcfeff" d="M763 301l240 12-218-29 21-72" />
    <path fill="#cccbdc" d="M88 255l31-24 4 43-36-5" />
    <path fill="#fff" d="M-21 706l86 3-18 38-78-17" />
    <path fill="#373742" d="M215 645l2-16 10-32 2 83" />
    <path fill="#3266b7" d="M656 236l-15 63 38-76-12 47" />
    <path fill="#12120e" d="M792 582l-27 1 21-6v-16" />
    <path fill="#fff" d="M659 381l-14 49-58-101 33 38m128-230l1 16 16-1-6-53" />
    <path fill="#5f7463" d="M749 125l-12 54 5-51-16-17" />
    <path fill="#fff" d="M507 753l4-12-210 9 167 5M322 144l-91-19-2-74 9-68m433 577l-46-63 19 85 48-5m77-276l-48-38-18 20 23 34" />
    <path fill="#453431" d="M712 294l-57 121 15-26 34-75" />
    <path fill="#4f4f4b" d="M246 590l-6-15-22 7v-22" />
    <path fill="#353413" d="M808 582l5 29 2-32-22 4" />
    <path fill="#7d7d7d" d="M632 27l6-2-4-4-58 1" />
    <path fill="#ca9200" d="M228 282H97l36 35 98-8" />
    <path fill="#fff" d="M127 757l-140-4 37 46 188-41" />
    <path fill="#878682" d="M344 694l34 1 84 1-76-5" />
    <path fill="#fff" d="M239 674l71-11 107 1 10 10" />
    <path fill="#6f6e6e" d="M755 433l-38 2-31-2 78-1" />
    <path fill="#6d6d6d" d="M160 448l-19-7 14-12 10 11" />
    <path fill="#fff" d="M363 350l164 120-81 91 13-186" />
    <path fill="#b4b0ad" d="M472 63l18 22 45 42-63-71" />
    <path fill="#b2c7c9" d="M752 501l49 89-22-64-38 7" />
    <path fill="#fa675b" d="M517 169l15 11-6-31v4" />
    <path fill="#eeefe6" d="M546 697l10-34 110 6-128 8" />
    <path fill="#5d5d66" d="M220 727l2-3 25 4-31-31" />
    <path fill="#fff" d="M408 208l-22-29 64-26-17 69" />
    <path fill="#645753" d="M615 205l8 15-31-15 6-2" />
    <path fill="#4e64ff" d="M420 226l-10 31-1-26 120-1" />
    <path fill="#494942" d="M620 692l46 3 44-3-53-1" />
    <path fill="#52524e" d="M420 695l-87-6-158 6 193-2" />
    <path fill="#e59400" d="M66 116l24-34-9-48-3 46" />
    <path fill="#9c9c9c" d="M740 385l58 8 40-7h-10" />
    <path fill="#151521" d="M982 626l-3 50-2-65 3-35" />
    <path fill="#fcfbfe" d="M437 609l125-10-279 1-6 12" />
    <path fill="#fafaf3" d="M536 648l-2 2 5 8H242" />
    <path fill="#4d69f1" d="M607 268l20-54-33 55 6-44" />
    <path fill="#74747f" d="M583 741l4-97 2 47v18" />
    <path fill="#f5f0ff" d="M569 149l14-80-21 69 4 14" />
    <path fill="#0e59ae" d="M894 222h-1l11-2-6 37" />
    <path fill="#fff" d="M24 573l155-13-198-390 15 604" />
    <path fill="#3a071f" d="M155 722l-19 24-27-21 142-1" />
    <path fill="#7a7a77" d="M208 33v-9l-103 1 105-13" />
    <path fill="#3ab468" d="M293 348l28 11-37 2 12-35" />
    <path fill="#42c74d" d="M880 169l21 26-22 6-2-12" />
    <path fill="#7174ee" d="M579 414l-117-7 9-31-21 49" />
    <path fill="#5f5e5d" d="M940 754h-85l-155 2h179" />
    <path fill="#bbb" d="M717 329l-20 20h166l-1-4" />
    <path fill="#045cc4" d="M342 418l3 24 6-24-4-10" />
    <path fill="#363635" d="M357 737l-57 4h179l-138-2" />
    <path fill="#fff" d="M406 691l-65-1 55-12 7-2" />
    <path fill="#b1005b" d="M141 640l-9-15-14 20-12 2" />
    <path fill="#e3e2df" d="M925 579l-144-18 227 33-80 3" />
    <path fill="#454557" d="M742 685l-5-73 15 62-18-16" />
    <path fill="#fff" d="M667 296l-13-24 54-6-85 87" />
    <path fill="#ddf8ff" d="M939 218l-124-5-1 129-7-123" />
    <path fill="#4b494b" d="M466 653l-1-30 5 16v13" />
    <path fill="#fffeff" d="M719 91l20-11 8 24-129-4" />
    <path fill="#fafffd" d="M410 250l-31-50 18 47-14 37" />
    <path fill="#221228" d="M417 417l46-3h-66l-67-1" />
    <path fill="#21211d" d="M749 671l42 8-78-1 4 16" />
    <path fill="#5d5d5f" d="M625 613l1 30h-38l47 7" />
    <path fill="#7c7b78" d="M662 744l-18-3 4-20 13 15" />
    <path fill="#748da9" d="M197 447v-79l-9 21 18 86" />
    <path fill="#5b5b56" d="M773 630H660l256-3-47 4" />
    <path fill="#6171f1" d="M632 111l-51 22-43-7 21-10" />
    <path fill="#484a5f" d="M916 140l3 26v-45l-2-8" />
    <path fill="#01010d" d="M1014 732l-1-182-4 139-4 20" />
    <path fill="#fff" d="M534 388l-7-8 1 27 6 1" />
    <path fill="#2f7178" d="M489 385l-113-41 80 26 31 4" />
    <path fill="#e7e7fc" d="M134 176l5-2 1-164-7 129" />
    <path fill="#fefefc" d="M593 594l199 2 6-6-8-1" />
    <path fill="#f4f5f6" d="M210 799l-9-91 14 6 1 38" />
    <path fill="#fafbfe" d="M773 555l1 136-37-2 41-13" />
    <path fill="#fdfcff" d="M481 221l4 107 58 41-29 1" />
    <path fill="#646460" d="M318 723l15 2 61 1 123-2" />
    <path fill="#454646" d="M287 584l-116-2 87-1h83" />
    <path fill="#a8a8a8" d="M96 435l5 1-20 9-3-14" />
    <path fill="#fff" d="M696 136l6 25 4-30-3-16" />
    <path fill="#4486d2" d="M740 223l-14 45 3-53 95 21" />
    <path fill="#b4b3b3" d="M760 307l-7 8-4 10 131-16" />
    <path fill="#fbffff" d="M279 361l4 94-22-70 78-16" />
    <path fill="#184999" d="M505 165l-10-15 22-2v-4" />
    <path fill="#5b5b69" d="M509 686l7-26-8-71 7 43" />
    <path fill="#0d0d1a" d="M791 668l-2 63-8-53-2-37" />
    <path fill="#fff" d="M860 422l30-147-66-24 38-40" />
    <path fill="#f7eeff" d="M145 397l-16 46 10-54 6-8" />
    <path fill="#fff" d="M597 442l-176-18h93l102 5" />
    <path fill="#fff7fb" d="M722 109l-22 6-41-3 6-5" />
    <path fill="#f6f5f9" d="M691 598l-143 5 63 10 129-3" />
    <path fill="#f3fb78" d="M75 222l-3-80-4 20 3 190" />
    <path fill="#514f50" d="M480 742h-5l-23-3 52 1" />
    <path fill="#fff" d="M642 662l-8 9 31 3 60-11" />
    <path fill="#c3b3ce" d="M414 577l41 2-20-47-28-2" />
    <path fill="#494984" d="M227 154l1 41 1-42-2-135" />
    <path fill="#fff" d="M418 708l-64-3 18-27-30 9" />
    <path fill="#4b4b47" d="M709 630l-30 2-17-5-69 4" />
    <path fill="#2776bd" d="M391 258l-28-7 48 15-14 25" />
    <path fill="#faf8f9" d="M441 583l-229 10 224 3 26-7" />
    <path fill="#464752" d="M1009 731l-23-10-16-31-3 32" />
  </g>
</svg>