<svg version="1.1" viewBox="0 0 1024 768" width="1024" height="768" xmlns="http://www.w3.org/2000/svg">
  <path fill="#d5d7d6" d="M0 0h1024v768H0z" />
  <g fill-opacity=".5">
    <g class="SVG--0">
      <path d="M208.4 564L197 758.7l-80-1.2-4.6-189" />
      <path fill="#ba9e00" d="M230 317.4l-175.4-5.8L56.8 39l170-4.2" />
      <path fill="#858497" d="M965.6 761.6l-619.6-79L1020 552l-5.6 205.3" />
      <path d="M115 563.3l6.3 198 31.6-7.8 27-186" />
      <path fill="#7e0000" d="M56.8 147.3l-3-118L85 48 55.4 328" />
      <path fill="#4e69f5" d="M607 367l-155 2 7 53.8 160.7 1" />
      <path fill="#d2d000" d="M91 313.4L213.5-3 230 297l-29 18.3" />
      <path fill="#6687e7" d="M443 270l532-7.6-397.2-65-215 31.7" />
      <path fill="#fff" d="M374.2 345.3L229 318l-2.5-342.6L369.3 3" />
      <path fill="#d2e1ff" d="M162.2 57.5l-56 244.3-13.7-156.4 32-176.4" />
      <path fill="#35343d" d="M957.7 635.2l58-82.5-1.5 45.4.4 201" />
      <path fill="#8e8da0" d="M226 562l136 134.7-180 70.8L169 585" />
      <path fill="#fff" d="M885 711.5L971 286l-251-12 95 451.7" />
      <path fill="#5d7be2" d="M914.8 161.8l-282.5 7L676 110l245.8 5.5" />
      <path fill="#fff" d="M267.6 581.4l313.8-16.6 250.6-44-472.3-155.5M3.7 799L-31 129.2l223.7 397-126.8 88" />
      <path fill="#65646d" d="M722 755.6l22.7-201 40.5 5.7 20 199" />
      <path fill="#fff" d="M550-18.8l489 240 7.6-243L708.3-31" />
      <path fill="#212029" d="M929 568.3L911.7 546l-2.4 174.8 28.7 26.4" />
      <path fill="#469a9e" d="M950.3 267l-78.2-3.5-17-55.5 28-103.6" />
      <path fill="#fff" d="M1055 170.6L798.6 424.4l-48.4 140L1055 567" />
      <path fill="#4680e5" d="M110.7 369l168.2 5.3-10 50.7-151-4.2" />
      <path fill="#5f89c3" d="M627.2 116.3L452 103l-2 61.4 138.8-3" />
      <path fill="#fff" d="M204.6 569.3l426-82.6-661.6-87V554" />
      <path fill="#363541" d="M535.6 799l14-76.2V541.6l-12 19.4" />
      <path fill="#fff" d="M563.4 265L693 337l-271.6 23.7-50-77m69-161.8L573.2-5 189-.4l13.7 31.7m-79 342.3L-31 319l321-3.5-23.5 46.8" />
      <path fill="#e5e4f0" d="M589.6 586.5l-56.2 204.7 210.4-206-71.2 200" />
      <path d="M346 687.7l.5-17.3-24 12.4 9 32.5" />
      <path fill="#38483a" d="M373 302.2l2.7-200.3 5.3 169-8.8 80" />
      <path fill="#3c5c4e" d="M338.3 423.2l-50.4-9.8v-.7l192 .6" />
      <path fill="#4b4a4f" d="M682.6 583.6L787 564.8l54.5 64.2-1.5-47.8" />
      <path fill="#226184" d="M598.3 430l53.2 21 51-138.3L654.2 415" />
      <path fill="#6da44f" d="M959 366.2l-17.8 4 7.6 143.5 11-97" />
      <path fill="#fff" d="M-1.7-31L-5 285.7l67.2-260L233-2.3" />
      <path fill="#060502" d="M792 671.2l-87.3 7.7 20 32 28.8-40" />
      <path fill="#fff" d="M731.4 797l11.6-99-76.6 60-280.2-.3" />
      <path fill="#918da6" d="M410.7 543.6L467.5 726l-68.4 3.6 42-208.8" />
      <path fill="#232422" d="M343.3 277l4.8 118.5 2-196.8-6 67" />
      <path fill="#f1f8f9" d="M1014.7 689.4l-81 2.2L961 462l2.3 210.7" />
      <path fill="#241c35" d="M120.6 728L234 663l-7-58.3L205 721" />
      <path d="M792.2 704l-10.8 28-3-85.4 16.4 36.8" />
      <path fill="#ca5e30" d="M927.7 212l47.5-.2-43 78 61.7-54.6" />
      <path fill="#7d7c7c" d="M322.7 110l-34.5-22 124 .2-45 17.4" />
      <path fill="#e9e8e4" d="M776 660.7L726 632l277.4-1.8 4 2.8" />
      <path fill="#fff" d="M768.2 111.8l-88 247L794.2-31 1055 111.7m-671 103l-7-59.7 135.8 25.7 38 34.5" />
      <path fill="#3d6321" d="M496.5 127.4L509 164l-.2-51.4-138.4 11" />
      <path fill="#fff" d="M589.8 51.6L365.3 107l272 7L755 57.6M246 728.8l-137.2 53.7 189.3-1L146 724" />
      <path fill="#9c1a00" d="M95 35L55 248.3 54.6 39l-7 .2" />
      <path fill="#fffffd" d="M541 159v-4.7l-173.3-13.5 169-19.2" />
      <path fill="#cc6f00" d="M226.6 285.2l-107-8.2-10.3 38 114.8 1.7" />
      <path fill="#7e7c7d" d="M717 38.2l22.5 5L715 58.6 609.3 40" />
      <path fill="#50767e" d="M649.5 287.5l-144.8-147 131.7 115 36-5" />
      <path fill="#080006" d="M123.4 560.5l31 23.3-4.4 160-31.6 19" />
      <path fill="#fff" d="M195.7 690l-14 2.8-37-4.8 51.5-11.8m736.3-483l112.7 68L1055-28 901.4-4.6" />
      <path fill="#5eae45" d="M259 354.8l69-12.3-7 44 61.2-5.8" />
      <path fill="#62635f" d="M32.6 269.3L34.4 104l-9-7.8-.6 147.2" />
      <path fill="#fff" d="M854 774l61.5 25-7.3-85.6-46.2-3.7M710.4 225.2l20.4-7.4 200.8-59.3-308 16.5" />
      <path fill="#717070" d="M352.4 58.4l145.3-1.7 11 15L577 66" />
      <path fill="#53994f" d="M866 231.5l-7.7-47.2 61.5 7.5.5-67" />
      <path fill="#ccd812" d="M166 42.5l-42.6 221.2L229 189.5l2-153.3" />
      <path fill="#f5ebf0" d="M739 693.8l47.6-9-75-16 13-351.4" />
      <path fill="#259336" d="M368.2 335.5l5.6-6.6 74 39-50-10" />
      <path fill="#fff" d="M468.4 673.3l-189 2.2 18-57 29 43" />
      <path fill="#7d7b75" d="M81.2 8.3l143 13-93.2 5-57-3.8" />
      <path fill="#272325" d="M630.2 348.5l94.4-93-75 81.6-21.4 17" />
      <path fill="#fff" d="M896.7 567.4L850.3 186l-27.7 65L948 304" />
      <path fill="#2c52d9" d="M893.7 113l-127.5 1L874 129.4l50.3-9.3" />
      <path fill="#100f13" d="M907.6 676l-32 1.2 14.4 2 4 45" />
      <path fill="#3e8198" d="M827.5 220.5L739.2 235l7.4-39 78.5 41" />
      <path fill="#fff" d="M199.7 472.7l616.4 52-592 7-22 139.8" />
      <path fill="#453f41" d="M343.8 144.6l2.5 181.8 4.3-170.2 27.2 8" />
      <path fill="#efeefe" d="M508 658l-63.7 7.5 87.2 51.8L538 629" />
      <path fill="#fff" d="M1015.8 757.3l-380 .4L1055 799l-38-243.2M-31 758.5L174 799l449-40.8-438.3-1.6m79-535.7L212 349l178 52-121 16" />
      <path fill="#27272d" d="M1018.2 720.6L1013 758l-38.3-68.6-7.5 38" />
      <path fill="#fff" d="M630.7 435.3l33.7-42 51.2-123.7-92 95.4" />
      <path fill="#fffffc" d="M554 255l22 34 1.6-78-17.8-6.3" />
      <path fill="#1d1d20" d="M757.2 713.8L689 675.4l43.3.2 16.4 86" />
      <path fill="#f4f4ff" d="M636 726l122.3-15.7L666 712l-7.7-279" />
      <path fill="#727171" d="M129.8 479.4l43.8-9 142 1.2 36.4 2.8" />
      <path fill="#4b4a4a" d="M688.6 81.2l32.3 8.2-82-.4 27-6.5" />
      <path fill="#1b1b20" d="M936.6 568l-23.8-2-3.4 35.8 23 31.7" />
      <path fill="#749d13" d="M397 189l10 25-34.2 18 17 35.8" />
      <path fill="#1b7294" d="M833.5 292.4l57.5-45.6 22 18.8-81.2-2.6" />
      <path fill="#47464a" d="M835.3 680.5l18 118.5L843 666l-3.3 5" />
      <path fill="#7e7c8b" d="M510 563.8l2.6-46.3 3 149.6-25.6-19" />
      <path fill="#000002" d="M1014.7 689.7v-69l.7-64-13.6 53.8" />
      <path fill="#5f5e61" d="M365.7 662l3.6-30.2 141.6-1.3-173-3.5" />
      <path fill="#767bff" d="M551.7 154.8l13.5-62.5 82 93.7-29-12.4" />
      <path fill="#fff" d="M1051.8 648.4l-97-202 9.4-82 88.2-106.2" />
      <path fill="#19ace3" d="M955.7 423.4l7.7 73.7-17-12-1.4-61" />
      <path fill="#fff" d="M350.2 334.3V424l7-11L482 392.8m-113.4-284l-91 247.8-48.8-66 4.7-191" />
      <path fill="#767571" d="M211.6 757.7h51l4-22-9.3-20" />
      <path fill="#fffffc" d="M264.6 583.5l-8.2 13-81.3-.7-22-9.6" />
      <path fill="#babbc6" d="M989.6 660l-4.3-79.7 23.3 12.3L996 727.4" />
      <path fill="#424fed" d="M468.7 398.5L457.3 358l3.5 64.5 82 .2" />
      <path fill="#2e2f3e" d="M738.3 620.2l10.3 90 10.2-142-18 53" />
      <path fill="#f4f3fb" d="M275.3 778l156.4-65.7-133.8-3.6-12-48" />
      <path fill="#7e7c7d" d="M273.7 567.4l32 29.7h68L261 604" />
      <path fill="#fff" d="M537 442.2l12.4-75.3 69.2 221-316.3-137M704 0L520-4 106 30l306.5 17" />
      <path fill="#5c6cf6" d="M404.7 250l-2.8 44-16-27.7 268-7" />
      <path fill="#a9a9a9" d="M936 334l47.3 4.6 28.6-31-70-9.7" />
      <path fill="#88d9aa" d="M201.2 403.7l5 8.2 92-84-61.7 119" />
      <path fill="#fff" d="M710 305.2l-57.2 124.3L777.6 268l-53-3.7" />
      <path fill="#000001" d="M1014.8 725.3l-2.2-122.2-8 39 2.2 116" />
      <path fill="#5f5f56" d="M907.3 760.8l104.7-37.4-30.4 32-44.6-37.7" />
      <path fill="#1a9073" d="M530.4 183.4l22-84.7L537 125l27.3 32.3" />
      <path fill="#164d45" d="M458.8 160.2l-111.4-5.8 151.4-2-47.2 14" />
      <path fill="#acaea9" d="M19.8 611l76.8-48-4.7 70.3-83-39.7" />
      <path fill="#76757b" d="M618 632.5l16.8 99.3 4-107.7-142.8 7" />
      <path fill="#fff" d="M23.3 253.8l145.5 274.5L-31 617 15.8-31m646.4 156.7L563.7-31l379 63.6-425.2 5" />
      <path fill="#cdd5e6" d="M130.7 231.8l-4-192L88 254.3l16 37.5" />
      <path fill="#150024" d="M120.8 565.3l57.8 84.2 32.5 34-93-21.7" />
      <path fill="#f3f3fc" d="M783.4 739L746 726l72.6-3.4-13-37.4" />
      <path fill="#fff" d="M506 583.7l7.6 11.2h137l199.2-9" />
      <path fill="#96afab" d="M348.7 405.6l-21.3 17-41.2 24.7 122.8-1.6" />
      <path fill="#34332a" d="M949.7 583.7l20.6-8.3 6-10.2 40.5 16.4" />
      <path fill="#cbd03c" d="M68 126.4L93 19l10 136.2-37.5 161.2" />
      <path fill="#7c7c7c" d="M388.3 62.2l2.3-18.5 42.4 6.8 65.5 9" />
      <path fill="#5a0000" d="M55.6 122l19.2-45 3-36.8-23-8.7" />
      <path fill="#d9d9e1" d="M757.6 780.6l20.5-72.3 1-196.8L758 664" />
      <path fill="#fffdf9" d="M945 187.8l-86.5 15 79 13-57.3 4" />
      <path fill="#282924" d="M451 716l10.4-39.4L521 678l-74.8 1.7" />
      <path fill="#6f6e6d" d="M603.3 580.6l-212-3 137.5 7.6 239-4.2" />
      <path fill="#2c2c3a" d="M860.5 622.2l9 16.7-2 5-2.5 22" />
      <path fill="#515050" d="M151.4 450L139 433l32.7 2-16.6 9.2" />
      <path fill="#5c9f95" d="M567.6 173.6l56.6 13.5-96 20 31.5 9.6" />
      <path fill="#fff" d="M958.7 679.2l16.6 62-43-36.5 65.8-23.2" />
      <path fill="#3a3bf6" d="M592.6 615.8l-160-1.8 206-4 18.3 5.6" />
      <path fill="#2c2c26" d="M806.8 720.2l-4 31-25 2 4.2-13" />
      <path fill="#fff" d="M379.6 313l85.7 55.8L548 333l-105.2-75.6" />
      <path fill="#605f64" d="M547.8 699.7l-39.2 42.5 115.6-1.8-87.6-2.4" />
      <path fill="#506da4" d="M768 125.7L754 170l-36-85 39 107.8" />
      <path fill="#fff" d="M672.3 142.2l-91-2 133.3 43.4L611.3 221" />
      <path fill="#710c24" d="M731.8 107l-61.6 2-10-4.5L745 103" />
      <path fill="#fff" d="M822.2 479.2L1055 586.4l-33.8-377L957.7 485m91-347.8l-15-147.7-321.5 64.3-163.4.8" />
      <path fill="#7a7879" d="M592.5 33.2l-44.3-.3-13.6-16 97.8 5.3" />
      <path fill="#6d6b68" d="M339.4 583L214 585l31.5-33-27.3 22.5" />
      <path fill="#65686e" d="M277.6 538.3L230 609l-2.6 169.7-16-152.4" />
      <path fill="#0e0e0c" d="M316.2 676.8l19.4-2 8.3 15-18 20.3" />
      <path fill="#5f89c9" d="M431.3 231.5l22.2-2L464 199l-75 24" />
      <path fill="#fff" d="M435.5 620.8l-125-5.3-67.6 46 3-28.5m-46-270l138-25.6 2-27.4 3-207" />
      <path fill="#1d1d27" d="M546 724.2l-6-71.2-8.7 35.8 10.6 45.8" />
      <path fill="#ebeaed" d="M577.3 663.4L343.7 784 512 675.5l72.5 36.2" />
      <path fill="#4a585a" d="M686.2 354.7L626.5 471l119-252-27.7 57" />
      <path fill="#fff" d="M243.2 415L-3.3 495l221.6-33.6 16-101.4" />
      <path fill="#4e4fff" d="M331.5 616.3l10.2-.3 99.6-.8-224.2-4.7" />
      <path fill="#0f55a9" d="M833.7 162.5l62.3-6-46.3-10.2-5.2-16.2" />
      <path fill="#05040d" d="M838.3 578l19 4.4-30.7.3-.7 34" />
      <path fill="#747aff" d="M240.5 371L87.2 422.3l120 1.8-102-52" />
      <path fill="#fbfbf7" d="M799.7 646L686 638l123.8-9.4 40 9" />
      <path fill="#b9b8b8" d="M693.4 347.4L886 308.7l-138.4-3.2 88.6 47" />
      <path fill="#2188a5" d="M937.5 235.2l-.2-34.8 14 19.2-112.2 2.7" />
      <path fill="#ff9802" d="M955.2 430.8l.7-62.4-12 2.6v22" />
      <path fill="#fcfcf8" d="M445 693l3.8-22-60.6 21.7-78.8-32.4" />
      <path fill="#2f532c" d="M620 340l-3.2-2.6-2.4 22L631 357" />
      <path fill="#52514d" d="M729 724.4l-111-1.6-133.7 1 208 3" />
      <path fill="#fefefa" d="M147.8 731l84-7-1.8 11.7-51.8 4.2" />
      <path fill="#a2a1a1" d="M722 386.8l86.3 5-2-16.6-97-.2" />
      <path fill="#e83f42" d="M978.7 259.8l-3.7-46-31.5 73.4L936 258" />
      <path fill="#fff" d="M36-.2L54.6 1l-1 222.2-19.3 97.6" />
      <path fill="#3d2643" d="M179 583.7l22.3 45.7-85.4 4.2 23 11" />
      <path fill="#fff" d="M933 271.8l.4-39 115.3 28-100.3-13" />
      <path fill="#569651" d="M923 159.8l-5.7 37.5-118.6-2.6 91-8" />
      <path fill="#ebecee" d="M182 676l-33 5 30.3 13 2.6 45" />
      <path fill="#c50e00" d="M62.3 136.3l-6 147 17.2.4-4.7.2" />
      <path fill="#0e4a2b" d="M713 168.4L605.5 163l94.7.7 52.3.3" />
      <path fill="#8f8e8f" d="M502.6 70.8l89-.4L502 43.8l6 22.4" />
      <path fill="#fff" d="M879.2 230l-3.7 23.4-46.6-57.6V275" />
      <path fill="#46463d" d="M581 691l-90.2 4.6-5-.8-86-2.6" />
      <path fill="#3a8a4f" d="M192 421.7l51.2-2.6-8 32-9.2-44" />
      <path fill="#99a3b8" d="M566.2 550.5l26-42.8-6.8 134.2 9-55" />
      <path fill="#0c0c0e" d="M778.4 673.5l63 3.3-42.6 2.3-18 35" />
      <path fill="#fff" d="M813 459.2l-152-4.4L715 589l-13-115" />
      <path fill="#3c3c47" d="M937.4 780.2l-14-87.5-28.5-73 34 47.3" />
      <path fill="#7579e9" d="M629 128.2l-54.8-39 35.4 70.3 2.7-78" />
      <path fill="#2989ac" d="M209.6 380l47.6 8.8 16.5-52.2 4.4 24" />
      <path fill="#6b74c2" d="M615.5 374.5L523.8 430l79.6-11.6-26.2-69.8" />
      <path fill="#5ea3ac" d="M678.5 408.3l-68.5 35 55.7 29.3-52.5 5.7" />
      <path fill="#ccc4bb" d="M890.4 526.7L911 566l51.4 2.7L975 534" />
      <path fill="#2d6ec1" d="M958 267l-94-22-11.6 50-7-28.6" />
      <path fill="#2322f2" d="M621 708.7l94 1.8 35-2-25.8-2" />
      <path fill="#fff" d="M744.3 214l-93 113.8-238.8 31 217.3-51" />
      <path fill="#f9f9f7" d="M194.6 621.4l14.7 54.5 75 9-63 8" />
      <path fill="#353647" d="M970 595.3l23 3.3-14 74-9.3 5.3" />
      <path fill="#1617ff" d="M737.4 663l-213.7-.4 92-4 161 2" />
      <path fill="#fff" d="M487.2 149.3L494 137l-14.2-10.5-227.4 30.2" />
      <path fill="#5d86cc" d="M791.8 289.5l14.6-13.7-3-58.4-22.4 7.4" />
      <path fill="#6d6b6a" d="M450 596.3l77-1 59 2.4 17.4 5.2" />
      <path fill="#3e40b9" d="M708.6 612.4l101-.4 3.2-54 3.6 58" />
      <path fill="#fff" d="M958 508.2l-105.6 64.4L805.6 229l73 132.5M315.6-31L232.3 75l-2 118 47 28.2M109 368.2l163.8 4.5-90-53.8-153-4m374-149l1.5 96.5-23-19.4 76-80.2M992 596l6.6-11.4h-50.2L929.8 596" />
      <path fill="#0a0909" d="M301.6 581l158.5.3 36 3.2-33-1" />
      <path fill="#6d6bb8" d="M461.6 281.3l23.5 3 8-78.6 3 47.3" />
      <path fill="#526f9f" d="M646 281l21-23 16-53.4-24 .2" />
      <path fill="#efeff3" d="M903 712.3l-83.2-3-27 4.5L935 738.6" />
      <path fill="#47473f" d="M608.6 656.6l1 34.3 67.2 1-72.3 2.3" />
      <path fill="#5c5cff" d="M427.5 658L283 660l32.8 2.5 57.5 1.6" />
      <path fill="#fff" d="M-31 674.6l121.5 50.8-121.5 18L91.8 654M.5 38l-14-69 97 53.6 135.5 9" />
      <path fill="#7a89ff" d="M738.2 113.2l102.8.4-52.6 52L746 88" />
      <path fill="#5a5bff" d="M927.4 659h-64.6l-52 3 51.2 2" />
      <path fill="#fff9ea" d="M739 200l33 3.8-65-71.7 31.6-7" />
      <path fill="#c4d257" d="M98 169.2l-48 148h72.7l-24.2-22.8" />
      <path fill="#be791a" d="M328.7 344.8l-26.2 19.6 3.4-34 23 58.7" />
      <path fill="#4d4d44" d="M294.7 692.5l-82-.6 92.3 5 3-29" />
      <path fill="#00f" d="M670 614.5l183.3.2-173.2-2.5-40 1.5" />
      <path fill="#7a7973" d="M814.4 741.2l104-19-81 2 36.7 18.4" />
      <path fill="#fff" d="M271 430.3l-8.8-54.5 59-22-51.8 111.8M-31 480.2l201 86.5L312.2 483l-133.7-6.8" />
      <path fill="#80776a" d="M705.8 322.7l-3.6-43.6 4.2-82 3.2 100" />
      <path fill="#fff" d="M104.5 455.8L93.3 728.4l-5.7 62 20 1" />
      <path fill="#bed4ea" d="M577.7 251.6l21-26L716.2 238l-69.8 16" />
      <path fill="#767787" d="M422 616.7l28-7.2-31 76.7-13.4 28" />
      <path fill="#747474" d="M760 43.7l21.5-1.8-58-5L613 42" />
      <path fill="#565656" d="M816.4 93.3l-1.3-6-14-4 11 19.2" />
      <path fill="#fffffe" d="M592.2 180.8l41.7-59.3-46 97-13-23" />
      <path fill="#78786e" d="M704.4 649.2l-38.8-7L655 625l44.4 4.3" />
      <path fill="#4e4d46" d="M812.2 601l64.6-6 77.8 2.5 62 .4" />
      <path fill="#fff" d="M892 153.5l161.3-51-3.8 193.3L899 121.3" />
      <path fill="#161523" d="M550 641.7l7-3-22.6-16.4 7.7-20.8" />
      <path fill="#aeadac" d="M665.3 490.8l7 17-76.7-4.5 19-12.4" />
      <path fill="#b3b4b5" d="M794.4 456.5l-69.7-1-79-29.7 147.4 14" />
      <path fill="#9d463e" d="M664 103.4l3.7-1H657l1 67.3" />
      <path fill="#070702" d="M278.6 595.7l-84.6 3h91l-29.7-3.6" />
      <path fill="#1a938a" d="M412 275l-20 4.7 2.3-28.3-32-1" />
      <path fill="#8f8f8a" d="M312.2 742.6l-158 1L344.8 722l-150 2" />
      <path fill="#696767" d="M688 595.3l33.6 3.3-47.5 2-45-3.3" />
      <path fill="#5581f4" d="M460.8 152.3l50.7-9L494 172l-24.4 3.8" />
      <path fill="#fff" d="M720 626.2l-30-11.7-66.5 11 40.3 3.3" />
      <path fill="#f7fff6" d="M889.4 188L759 164.7l81-3.6 73.6 4" />
      <path fill="#7a7b7c" d="M156.5 26.2l-3.6-5 25-9.2 48 11" />
      <path fill="#6a78ff" d="M381.5 217.6l133.7 15.7 13.7 41 20-60" />
      <path fill="#7c7c7c" d="M307 470.8l-110.5 4.7 128 2 42-5.3" />
      <path fill="#eea8a6" d="M346 557.7l6.6-23-44.8-10.3L322 565" />
      <path fill="#f2b7ab" d="M722 563l-15.3-32.6L791 534l1 14" />
      <path fill="#4a4b47" d="M765.3 578.4l-.5 31.5-2.7-7-29-46" />
      <path fill="#eeedec" d="M958 635.2l-52.5 26 7.3-42.7-133-3.2" />
      <path fill="#fff" d="M244.2 693.6l3.8 64 162.6 5.7-179 35.7" />
      <path fill="#020cb4" d="M110.8 619.5l56-3-46.4-3.7 130.6.3" />
      <path fill="#d2d5d4" d="M181 627.2l39.2 16.8-35-2.7-6 56.6" />
      <path fill="#fff" d="M651.6 219L603 197.5l315.6 5.8-259.4-24" />
      <path fill="#d5d5e2" d="M152.4 17.7L163 49.4 101.4 158 98 59" />
      <path fill="#6078d5" d="M593.7 272L575 211l100.6 10.6-94.6 16.7" />
      <path fill="#ebe4b5" d="M786.5 184.8l-15.6 131-4-112-30 16.2" />
      <path fill="#070606" d="M207.4 597l205.8.5 86-.2-148.2 2" />
      <path fill="#0806fe" d="M475.8 707.5l-43 .3 65.7 3 134-3.4" />
      <path fill="#3c5a74" d="M820 198.8l63-4.4-58.5-2-2.7 77.3" />
      <path fill="#4f4dfe" d="M304.7 705.2l-12 5.8 53.8-.7 119.8-1.8" />
      <path fill="#958519" d="M645.2 244.3l2.2 18 9.7 5-34 3" />
      <path fill="#29782d" d="M399.4 209l-4 13 20.8 5.6 2.3-6.7" />
      <path fill="#fff" d="M535.4 43.3l-127 5.6-390-65L548-31m223.8 447.7l-97.4 2.3L883 459.3l43-201" />
      <path fill="#fff" d="M779.5 375l-96.2-8.8 112-18.7L1055 356" />
      <path fill="#6683fb" d="M603.2 152l41.4 15.3L636 185l-21-3" />
      <path fill="#b5b8b3" d="M48 622.7l49.3 45-109 38.5 89.4.8" />
      <path fill="#fff" d="M442.8 614.2l64.2 5.3 20 22.5 36.5-2.2" />
      <path fill="#fcffff" d="M463 420.7l-115 12.7 79.3-210L360.5 416" />
      <path fill="#488d73" d="M236.7 415.2h-2l128.8-6-106 12.5" />
      <path fill="#fff" d="M543.7 306l-53-41 27 167.3-7-198.5" />
      <path fill="#505156" d="M254 669.6l-10.6 1.3 10.2 79 2 5" />
      <path fill="#565659" d="M492.7 664.7l15.2-42.5 10 6.3-27-1.5" />
    </g>
    <g class="SVG--1">
      <path fill="#fff" d="M628.8 273l-108-5 97.7 81.7L518 361.2" />
      <path fill="#b09535" d="M732.7 196.3l26.8 12.4 15-10.5 5.7 26.6" />
      <path fill="#bebecd" d="M278 539.3l-62.6-11-8.3 27.5 73 22.8" />
      <path fill="#004154" d="M385 345.4l-10.7-40.8 3-25.8L374 341" />
      <path fill="#82827b" d="M572.2 644.2l4.6-28-27.4 33 189.2-3" />
      <path fill="#6d798c" d="M922 168.2l-5.6 85.4-33.3 23 20 4.4" />
      <path fill="#505047" d="M683.2 678L579 675.5l-60.7 1.4 14.3 2" />
      <path fill="#686769" d="M718.6 677.2l46.6 66.2-191.6-2 172.7-4.3" />
      <path fill="#828180" d="M338 741l19-2.2 85.2-.2 3.2 3" />
      <path fill="#3c3b3b" d="M416.6 584l-133.8-2.5 113.4-.3 52.7 1.2" />
      <path fill="#0c0b03" d="M746.4 610.2l-.8-12.5 86.6 1-62-2.2" />
      <path fill="#3a3bfb" d="M946.5 610.7l54 6L823 611l48.6 5.7" />
      <path fill="#526a80" d="M627.7 354l124-130.2-25.7-6 22.5 21.8" />
      <path fill="#fff" d="M153.2-29.8l230.5 10 8 109.8L286 87" />
      <path fill="#0d0116" d="M180.4 717.2l-73 23 61.8 17.5L119 700" />
      <path fill="#00f" d="M492 612l-2.3 2-55.5 1-69.5-.5" />
      <path fill="#a4a3a4" d="M712 485.4l132-1-118-12.6 71 1.8" />
      <path fill="#4794be" d="M540.5 365l18.8 2.4-4-30.7L534 381" />
      <path fill="#605f5c" d="M333.4 646.2l-97-1.7 68-2 258.7 4" />
      <path fill="#fff" d="M664.4 404l62.4-128.7-24 114 138 4.3" />
      <path fill="#1a1918" d="M584.8 599l74.4-1.2-111.4-1.4-17.3 2.4" />
      <path fill="#ed461d" d="M501.3 113.4l-2.7 6 4 27.7 11.8-33" />
      <path fill="#292fee" d="M213.2 663.3l-17 .2L87.4 659l127.4 1.5" />
      <path fill="#d8b1a7" d="M518.6 298.6l38-2 14.8 23.8-59.5 1" />
      <path fill="#4c4c46" d="M818.8 696.2l-36.8-5.5 228.3 1.7-141.7 2.4" />
      <path fill="#a39f34" d="M903.6 197l-7.8-46 21.8 1 2.3-34" />
      <path fill="#3c3eea" d="M255.7 711l-113-.6 13-3.4h173" />
      <path fill="#000107" d="M746.6 763.5l-1-81 4.2 11L751 746" />
      <path fill="#4141ff" d="M556 662l-151.6 2 12.5-4.5h263" />
      <path fill="#fff" d="M322 454l199.5-20.4-72.4 147 57-1.5" />
      <path fill="#807f7c" d="M915 567.7l4.3 7.6-101 8.4 92.2-.2" />
      <path fill="#fff" d="M825.3 765l229-10.7L842.7 799l-11.3-152" />
      <path fill="#e9e9e9" d="M990.5 632.2l-22.2 7 29.6 8-6-209.5" />
      <path fill="#fff" d="M618.5 365.7l87.5-65-47.2 92.7-47 13.6" />
      <path fill="#fffffb" d="M985.8 743l-11.4-24.3-12 53.3-2.8-43" />
      <path fill="#d2d2da" d="M991.3 613.3l7 134.6-7 4-.6-94" />
      <path fill="#fff" d="M615.8 614.5l-39.3 25L632 689l-15.6-6.3m-241-493.5L505.8 214l53-16.5L408.4 158" />
      <path fill="#97be44" d="M977.2 232l-43-15.3 6.8-25.5-1 5.8" />
      <path fill="#44443b" d="M347.8 675.2l184.8.6-34 1.3-45 3" />
      <path fill="#fff" d="M672.4 725l-18.2 11 84 3.7 12.4-10.4" />
      <path fill="#262621" d="M983.6 754.6L991 719l.5 39.7-5.2-3.2" />
      <path fill="#afaeae" d="M598.4 280.7L610 315h2l50.2-21.2" />
      <path fill="#fff" d="M953.3 224.8L906.8 76.2 711.4 18.8 1055-31" />
      <path fill="#930000" d="M86.6 145.6l-29.4-29.2-2.3 158L68 145" />
      <path fill="#111117" d="M790.4 747.3L792 667l-16.6 25 28.2 44.7" />
      <path fill="#fff" d="M914.6 710.5l-2-33.6-129.6-8 124-8" />
      <path fill="#f1fff0" d="M579.8 237l-20.4 23.6L548 113l-1.7 54.3" />
      <path fill="#fff" d="M-5.2 164.5L-20.2-31 312 11.6 61.4 15" />
      <path fill="#caeaf1" d="M984.8 222.5l-50.6 8-46.6-1.4-5 27" />
      <path fill="#fff" d="M867.4 758l-362 .5-252 4.3L1055 799" />
      <path fill="#747374" d="M714 51.5L631.7 46l-31 6.4 102.7.3" />
      <path fill="#6bf731" d="M958.3 443l.6-31.8-16-13.4 2 41" />
      <path fill="#428a93" d="M481 394l-103.4-65.3 63.8 38.4 39.6 8" />
      <path fill="#545454" d="M531.4 444l-9.8-12.4L523 454l2.6-5.5" />
      <path fill="#10111f" d="M916.8 651.3l1.3 90.5 4-32.6-1-115" />
      <path fill="#fff" d="M275.2 728.2l203 9.8 142-10.5-162-.4m25-663l-106 2 27.6 31 179.7 17" />
      <path fill="#8d8c8c" d="M703.6 399.3l46.8 16.2-56.2-1.8 67.3-9.4" />
      <path fill="#2a5c9e" d="M483.7 101.2l8.2 28.5V94.5l-26 19.7" />
      <path fill="#fffffa" d="M230.3 633l10.7 23 34.8 1.2-4.2-26.2" />
      <path fill="#b9bbb7" d="M98.8 667.2l-6 90.5-91.2-7.3 63.5-24" />
      <path fill="#2f2e29" d="M550 756l-16 1 6.6-14.8 8 .5" />
      <path fill="#fff" d="M610.3 503.6L131 448.3h477.7l-28-68.8M124.4 411L-31 223v455.5l162.5-300.3" />
      <path fill="#868682" d="M362 721.4l-41.6 6.7 82.6-3-30.6-2" />
      <path fill="#949fe7" d="M678.2 532.7l-15.6 16.6 37.7 7-5-30.2" />
      <path fill="#17061e" d="M446.3 124.4l-38.6-3.3-54 1 52.7 3" />
      <path fill="#fff" d="M444.8 293.6l-27.4 64.2 65.7 13.8-31-149.4" />
      <path fill="#5353f4" d="M872.7 705.7l-16-.3 86.8 6.7-160-4" />
      <path fill="#fffffc" d="M695.3 215.5l27.4 57.8 1-36.3-33 4.5" />
      <path fill="#60895c" d="M331.2 438.6l-8.4-32.3 130.4 9.3-117.3 2.7" />
      <path fill="#9ea09a" d="M35 646.3l38.4 14.4L-26 654l8 7.8" />
      <path fill="#5b5456" d="M401.2 157.7h-11l-49 1.5 13.7-8.6" />
      <path fill="#cab0b2" d="M837 630l.2-91.8 16-16.3L841 635" />
      <path fill="#71706a" d="M987.4 673l-132.7 6.4-31.8-8 127 8.3" />
      <path fill="#20201c" d="M539.2 562.7l-.5 22.2 3-5 15.6 5" />
      <path fill="#656461" d="M906.8 643l-158 3.2 216.7 1.5 28.4-3" />
      <path fill="#637b94" d="M813 202l.2 32.3 11-16.5-40.7-11.8" />
      <path fill="#fff" d="M1000.7 608l28-434.5L959 291.2l77 23.8m-803 51l2-242.7 189.3-4-49.8-20" />
      <path fill="#3357c3" d="M893 140.3l.8-30.5-25 47 6.2-41.6" />
      <path fill="#5387ff" d="M966 486.2l-22.4-43.7L942 484l5.4 4.4" />
      <path fill="#464d4a" d="M340.8 330.8l7.5-38-2 105.7-2.2-86.7" />
      <path fill="#2777bd" d="M112.4 424.4l-4.8-1.2 12.8-65L119 399" />
      <path fill="#fff" d="M570 538l165-54 24.4 98 4.3-57.5" />
      <path fill="#7d7d7d" d="M633.6 81.7l54.7 8.6 33.7-5 24.4-3.2" />
      <path fill="#fbfffd" d="M238.6 422l13.6 49.2 74.3-57-49.5 10" />
      <path fill="#fff" d="M330 364.5l-51.5 6 131 43-144-6.2m86-45.4L493 410l-124-67-19-200" />
      <path fill="#e0f2ff" d="M906.8 346.4l28.7-186-52.7-33.4 42.5 39.2" />
      <path fill="#fff" d="M550 267.4l-107 88-66.7-101 3.6 76.8" />
      <path fill="#107d25" d="M264.4 366.6l7.8-14.7 1.5 6 11 7.4" />
      <path fill="#3f2130" d="M100.5 602.5l60-22.7 57.3 4.4-60.4-18.4" />
      <path fill="#7984fd" d="M397.4 270.4l12.7-22.6L572 267l-91.7-1" />
      <path fill="#758f71" d="M579.3 87.7l8.3 16.7-74 19 37-1.7" />
      <path fill="#0a5498" d="M613.8 421.2l27 19v7.5l-29-11.5" />
      <path fill="#73736f" d="M151.3 754.4l61.5 5-14.6-20-7.2-.4" />
      <path fill="#2a2bff" d="M281.6 617l-82-3.7L318 613l-60.2 3" />
      <path fill="#5252ea" d="M979.8 657.4l-17 6.7-122.5-2 122.5-4" />
      <path fill="#5b5ce9" d="M858 711.3l72.5-4.4 71.3-1 39.5 3" />
      <path fill="#1d1d1f" d="M939 730l8-3.7-15.2 33.4-5.2-64.6" />
      <path fill="#ecf3eb" d="M976.2 598.2l-1-14.7-40.3-5 5-68" />
      <path fill="#95a1bd" d="M628.6 527l11.2 55.6-20.8-1-6.2-53.6" />
      <path fill="#5f5549" d="M684.6 264.6l8-8.2 27.8-28-4.4-2.7" />
      <path fill="#4e8b8f" d="M535 169.2l14.3-89.4L541 195l-24.5-37" />
      <path fill="#262621" d="M689 694h66.7l-47.3-13.3 24 2.7" />
      <path fill="#57ac3a" d="M577.8 181.5l-2 24L536 198l23.7 2.8" />
      <path fill="#575656" d="M456.6 51.6l1.2-4-65 3.3 24.2 2" />
      <path fill="#151514" d="M259.4 734l-4.8 22.2-.8-22.2-1.7-20" />
      <path fill="#616e73" d="M488.3 351.3l21.8 10.3-29 5.8 1 12" />
      <path fill="#4d4ef4" d="M801.3 664.6l27.5-1.8 12.5-2-112.5-2.8" />
      <path fill="#5b76b5" d="M699.4 131l-18.2-13.6-65 9.5 22-11" />
      <path fill="#fffffe" d="M675.8 66.6l-144.2-32L590 93.2l-4.7 26" />
      <path fill="#fdfdfb" d="M794.6 651l-.2 24.6 115-1.3L797.2 664" />
      <path fill="#1bbb7f" d="M371 376.3l-22.8 7.3-48-3 21.4-6.7" />
      <path fill="#fff" d="M284.4 579.8l132.8-.8-102-20.7-41.3-103" />
      <path fill="#7c8f88" d="M669.5 370.3l30 4.3L598.8 346l79.4 27" />
      <path fill="#281c2e" d="M373 250l5 80.3-1.7-119.2-.8-42" />
      <path fill="#fff" d="M1038.3 494l-292.6-7.7h-96.3L879.6 540" />
      <path fill="#4d8094" d="M607.5 408.4l-12-54.2-29.7 3 49.4 16" />
      <path fill="#fff" d="M1017 702.7l-3-199.3 41 295.6-40.7-57" />
      <path fill="#2e87d1" d="M862.3 238.4l84-18-67.8-3-12.4 50.4" />
      <path fill="#fff" d="M-31 674.5l83.7 25.7-83.7-101 104.3 22.3" />
      <path fill="#696a64" d="M205.3 642l18.3 8.8 56.3-6-39-1" />
      <path fill="#4c3700" d="M89 33.2l-2.8 7 2.5 177.2.3-175.2" />
      <path fill="#d6d919" d="M154.7 94.8l-9 203-5.2-178 35.2 13" />
      <path fill="#46413e" d="M274.6 630.4l-154.2.3 152.6-3.3 145 3.5" />
      <path fill="#777770" d="M571 690.7l-21.4 6 73.5-5.4-25-.3" />
      <path fill="#fff" d="M397.6 364.4l20.7-37.3L646 270l-243.7 24" />
      <path fill="#262526" d="M486.7 596.8l-53.4 3.4-31.7-2.8 158.6 1.7" />
      <path fill="#fffdfa" d="M671.6 163l-41-39.4L605 131l42.4 30.7" />
      <path fill="#fffffc" d="M929.5 727.2l-6.8 12-68.8-7.7 38-5.2" />
      <path fill="#151512" d="M1055 739.3H851.5l31.2 1.4 82.8.3" />
      <path fill="#080917" d="M790.6 630.3l-11 .8-.4-35 7 19" />
      <path fill="#4e5ae7" d="M707 128l1.5 35.3L717 130l16.5-26.2" />
      <path fill="#717991" d="M684.6 154.7l57-4 15.2 47-1.4-41" />
      <path fill="#e8e9f1" d="M74.5 727.7L124 611.5l-147 10.8 140.3-17" />
      <path fill="#434c50" d="M908 213l17-3-20.7-1.8-58.6 1" />
      <path fill="#469002" d="M838.5 277.3l-14.6-19 2 4.4 25 6.3" />
      <path fill="#45453d" d="M320.8 676.3l-25.2 9.3 2.2-7.7-74-2" />
      <path fill="#868aad" d="M628 187.7l-94 4 102.4-10.5V126" />
      <path fill="#fff" d="M721.7 167l11.3 56.6-36.6-4.7-42.6-51M204.2 670l13.2-11 1.3 31h38.7M418 616.8l-139-1.4 37.6-201.7L279.2 630" />
      <path fill="#0044af" d="M620.5 266l13.7 1.5-2-24.8-15 21.7" />
      <path fill="#2f2fdf" d="M727 711.4l-4.4-4.6 110.3 1 35 .7" />
      <path fill="#e9ffff" d="M862 226.7l-8.8-24.4 81.5-9.5L799 216.5" />
      <path d="M139 585.3l2.4 178.6 16-198-39.3 4" />
      <path fill="#35cc6b" d="M453.7 175.5l-8.3-28.3 30.6 3.2-10.7 6" />
      <path fill="#d0db1a" d="M222 281.4l5.7-72.7-81.2 13L119 282" />
      <path fill="#848384" d="M402.5 111.4l-7.8-23.8-85.4 9.8 45-11" />
      <path fill="#fffffd" d="M705 686.5l6.2-22L735 674l-116.4 14" />
      <path fill="#3b4350" d="M918 149.8l1.7 43-8 76.3 7.8-162" />
      <path fill="#fffff5" d="M452.8 662.8l-55.3 11.8 121-.5-22-7" />
      <path fill="#c02f2e" d="M968.5 250.5l16 5-44.4 13 16-19.5" />
      <path fill="#8687b4" d="M608.6 114.2L628 53.5l-16 30.7-14 82.4" />
      <path fill="#fff" d="M381.7 125.5l166 9.2-160.7 16-6.3-2" />
      <path fill="#7d7c7a" d="M524.7 736.3l-14-9-77.5-2.4 101.2-4" />
      <path fill="#7f82f3" d="M753 162.8l98.8-66.4-12.7-4.8-13 70" />
      <path fill="#373633" d="M857.3 733.2l-17 31.3 4.7-10-1.7-35.2" />
      <path fill="#fffd9b" d="M640 239l-2.3 14.7 15.7 4.2-9-53" />
      <path fill="#444643" d="M723.5 596l-16.8 1.7L751 600l34.3-1.4" />
      <path fill="#fff" d="M793.5 109l-2.7 93.5L846 185l-62.4-37" />
      <path fill="#2e3129" d="M211.2 677.3l87 1L203 674l-7.5 39.4" />
      <path fill="#c1e1ff" d="M756 251.6l-3-57-13 68-9.6-32.2" />
      <path fill="#7fa85b" d="M216 381.8l15.6 66-13.7 17.6 19-39.4" />
      <path fill="#569b8f" d="M642 418l28.8 3 10.2-5.2-61.5-13.8" />
      <path fill="#9d0e61" d="M138.2 690.4l-32.5 5.4 26.8-25.3 9.3 18.8" />
      <path fill="#616159" d="M819.7 722.8l2.8 18.2-33.4-23.3-34 7.6" />
      <path fill="#fff" d="M588 162.6l71 42.4 6.7-17.6-122.5-18.2M300 96l111.2 2.7-160.2 3.7 88 261.2M194.5 583.4l71-.3-51.5 15-34-6.3" />
      <path fill="#cfd0d5" d="M997.3 586.7L981.8 601l3 94.6.3-108" />
      <path fill="#5e76e7" d="M689 242l-8.8 13.8-30 14.6h46.3" />
      <path fill="#f6fae2" d="M220 385.4L195 410l5.6-31.4 18.8 49.4" />
      <path fill="#484af7" d="M248.4 663.8L338 661l-45-.8-79.5-2.7" />
      <path fill="#fffffd" d="M432 719.4l-104.4 4.3-94.2-6 91.2-7.8" />
      <path fill="#fcfeff" d="M763.2 300.7l240 12.4-218.7-29 21.2-72" />
      <path fill="#cccbdc" d="M87.8 255l31-23.6 4 42.4-35.6-5" />
      <path fill="#fff" d="M-21 706l85.6 3.2-18 37.7-77.6-17" />
      <path fill="#373742" d="M214.7 645l2-16.5 10.2-32 2 83" />
      <path fill="#3266b7" d="M656.3 236l-15 63 37.4-76-12 47" />
      <path fill="#12120e" d="M791.5 581.5l-26.7 1 21.3-5.2v-16.6" />
      <path fill="#fff" d="M658.5 380.8l-13.4 49-58-100.4 33 37.2M748 137l1.2 16.3 16-1.3-6-53" />
      <path fill="#5f7463" d="M748.8 125.4l-11.6 53.8 4.8-51-15.5-17" />
      <path fill="#fff" d="M507.3 752.7l3.6-11.5-210 9 167 4.8M322 144.3l-91-19-2.4-74 9.3-68.7m433 577L625 497l18.6 84.5 48.2-5M769 301l-48-37.7-17.8 20 23 34" />
      <path fill="#453431" d="M712.3 294.4l-57 120.2 15-25.8 34-74.4" />
      <path fill="#4f4f4b" d="M246.2 590.4l-6-15.2-22.3 7.2V560" />
      <path fill="#353413" d="M807.5 582.3l5.5 28.4 1.7-31.8-21.8 4" />
      <path fill="#7d7d7d" d="M631.7 26.7l6-1.6-3.4-4-58.5 1" />
      <path fill="#ca9200" d="M228 282H97.3l35.4 34.8 98-8.3" />
      <path fill="#fff" d="M127 757.2l-140-4.6L24 799l188.4-41" />
      <path fill="#878682" d="M344 694.2l34 1 84.4 1-76-5.5" />
      <path fill="#fff" d="M238.7 674.4l71.8-11.6L417 664l9.5 9.8" />
      <path fill="#6f6e6e" d="M754.8 433.2l-37.4 2.2-31.7-2.8 78-1" />
      <path fill="#6d6d6d" d="M160.4 447.7l-19.4-6.3 13.8-12.2 10 11.3" />
      <path fill="#fff" d="M363 349.8l164.3 120.5-81 90.2 12.7-186" />
      <path fill="#b4b0ad" d="M471.7 63l18.7 21.7 44.7 42.7-63-71.6" />
      <path fill="#b2c7c9" d="M752 501.4l49 88.5-22.5-64-37.7 7" />
      <path fill="#fa675b" d="M517 169l14.5 11-6-30.7v3.4" />
      <path fill="#eeefe6" d="M546 696.7l9.8-33.8 110 6-128 8" />
      <path fill="#5d5d66" d="M219.8 726.5l2-2.5 25.5 4-31-31.3" />
      <path fill="#fff" d="M407.8 208.4L385.6 179l64-25.7-17 68.5" />
      <path fill="#645753" d="M615.2 205l7.8 15-30.7-15 5.4-1.8" />
      <path fill="#4e64ff" d="M419.6 225.5l-9.8 31.4-1.3-26 120-1" />
      <path fill="#494942" d="M619.8 692.4l46.2 2.4 43.5-3.2-52.8-.6" />
      <path fill="#52524e" d="M420.2 695.3l-87.4-6.7-157.3 6.4 193-2" />
      <path fill="#e59400" d="M66 116l23.6-34-9-48-3 45.5" />
      <path fill="#9c9c9c" d="M739.7 384.8l58.6 8 39.2-7H828" />
      <path fill="#151521" d="M982 626l-2.6 50-2.3-65 3-35" />
      <path fill="#fcfbfe" d="M437 609l125.2-9.6-279.6.3-5.4 12" />
      <path fill="#fafaf3" d="M535.7 647.7l-1.5 2 5 8.5-297.6-.5" />
      <path fill="#4d69f1" d="M607 267.8l20-53.4-33.2 55L600 225" />
      <path fill="#74747f" d="M583 740.6l4.3-96.2L589 691l-.5 17.7" />
      <path fill="#f5f0ff" d="M568.5 149L583 69.4 562.2 138l3.6 14" />
      <path fill="#0e59ae" d="M894.3 222h-1.6l11.4-2.5-6 37.5" />
      <path fill="#fff" d="M23.5 573.2l155.3-13-198-390.2 15 603.7" />
      <path fill="#3a071f" d="M154.8 722l-19 24.3-26.8-21 142.2-1" />
      <path fill="#7a7a77" d="M208.2 32.7l-.5-9.2L105 25l105-13.4" />
      <path fill="#3ab468" d="M292.5 348l28.8 11-37 2 11.3-35" />
      <path fill="#42c74d" d="M880 168.5l20.8 26.6-21.5 6-1.8-12" />
      <path fill="#7174ee" d="M579 413.6L461.7 407l9.7-31-21.7 49.4" />
      <path fill="#5f5e5d" d="M939.7 754.4l-84.4-.2L700 756h179" />
      <path fill="#bbb" d="M716.8 329L697 348.7h166l-1.2-4" />
      <path fill="#045cc4" d="M341.6 418l3 24.2 6-24.6-4-10" />
      <path fill="#363635" d="M357.2 737l-57.2 4h179l-138-2" />
      <path fill="#fff" d="M406.3 691l-65-1 54.8-11.8 7-2.4" />
      <path fill="#b1005b" d="M140.6 639.6L132 625l-14 20-12.2 2.4" />
      <path fill="#e3e2df" d="M924.6 579l-144-18.4 227 33.7-79.5 2.5" />
      <path fill="#454557" d="M742.2 684.8l-5.4-73.2 15 62.7-17.5-16.6" />
      <path fill="#fff" d="M666.8 296l-13.2-23.8 54.4-6-85 86.5" />
      <path fill="#ddf8ff" d="M939 217.5l-123.7-5-1.2 129.2-7-122.5" />
      <path fill="#4b494b" d="M466.4 653.4l-1-30 4.4 15.3.3 13.3" />
      <path fill="#fffeff" d="M719.2 90.8l20-10.3 7.4 23.5-128.4-4.2" />
      <path fill="#fafffd" d="M410 249.7l-31-50 17.8 47-14 37.3" />
      <path fill="#221228" d="M416.5 417l46.8-2.6-66.3-.5-66.7-1" />
      <path fill="#21211d" d="M748.7 670.8l42.3 8-77.8-.5 3.7 16" />
      <path fill="#5d5d5f" d="M624.7 612.8l1 30.5-38-.2 47 7" />
      <path fill="#7c7b78" d="M662 743.6l-17.8-2.4 4-20.7 13 15" />
      <path fill="#748da9" d="M196.8 447v-79.3l-9 21.6 18 86" />
      <path fill="#5b5b56" d="M772.7 630.2h-113l256-3.3-47 4" />
      <path fill="#6171f1" d="M632.4 111l-51.2 22-43.4-7 21-10.3" />
      <path fill="#484a5f" d="M915.8 140l3.7 25.8-.6-45.3-2-8" />
      <path fill="#01010d" d="M1014 732.3l-1-182.6-4 139.7-3.8 19.4" />
      <path fill="#fff" d="M534 387.5l-6.8-7.5 1 26.6 6 1.3" />
      <path fill="#2f7178" d="M488.7 384.5l-112.8-41 80 26.2 31 4.7" />
      <path fill="#e7e7fc" d="M134.3 175.7l5-2 .6-164-7 129" />
      <path fill="#fefefc" d="M593 594l199.2 1.6 6.2-6-8.5-.8" />
      <path fill="#f4f5f6" d="M210.2 799l-9.5-91.3 14.4 5.8 1 38.5" />
      <path fill="#fafbfe" d="M773.2 555.2l.3 135.6-36.5-1.6 40.5-13.2" />
      <path fill="#fdfcff" d="M481 221l4 106.7 58 41.3-29.5 1.2" />
      <path fill="#646460" d="M318.4 723.2l15 1.7 60.3 1 123.8-2" />
      <path fill="#454646" d="M287 584.2l-116-2.5 86.6-.8h83.7" />
      <path fill="#a8a8a8" d="M96.3 434.8l5 1-20 9.3-3-14" />
      <path fill="#fff" d="M695.7 135.5l6.6 25.5 4-30.5-3.2-15.3" />
      <path fill="#4486d2" d="M739.7 222.7l-14 45 2.8-52.3 95.3 20.4" />
      <path fill="#b4b3b3" d="M760 307.2l-7.5 7.8-3.2 10 130.5-16" />
      <path fill="#fbffff" d="M278.6 361.2l4.6 94-21.8-70 77.3-16.4" />
      <path fill="#184999" d="M505.4 164.7L495 150l22.3-2.3-.3-4" />
      <path fill="#5b5b69" d="M508.5 686l7.2-26.5-7.8-70.3 7 42.4" />
      <path fill="#0d0d1a" d="M790.5 667.8l-2 63.5-7.7-53.6-2-36.7" />
      <path fill="#fff" d="M859.5 422.2L890 274.6 824 251l38.4-39.6" />
      <path fill="#f7eeff" d="M145 396.7l-16.4 46 10-53.3 6.6-8.2" />
      <path fill="#fff" d="M597.3 442.4l-176-18h93.2l101 4.7" />
      <path fill="#fff7fb" d="M722.4 108.8l-22.5 6-41-2.4 6-5.6" />
      <path fill="#f6f5f9" d="M691.2 598.3l-143.7 5 63.2 9.7 129-3.2" />
      <path fill="#f3fb78" d="M75.2 221.5l-3-80-4.4 20.6 3 190" />
      <path fill="#514f50" d="M479.5 741.5l-4.8.2-23-3L504 740" />
      <path fill="#fff" d="M641.7 662.4l-7.3 8.5 30.2 3 60.7-11" />
      <path fill="#c3b3ce" d="M414 576.8l41.4 2.6-20.2-47.6-28-1.3" />
      <path fill="#494984" d="M227.2 154.3l1.3 40.4.2-42-1.4-134.4" />
      <path fill="#fff" d="M418.2 707.8l-64.6-3 18.8-27-30.2 9" />
      <path fill="#4b4b47" d="M708.8 630l-30 2.2-16.3-5-69.7 3.7" />
      <path fill="#2776bd" d="M391.2 258l-28.4-6.8 48 15L397 291" />
      <path fill="#faf8f9" d="M441 582.7l-229.3 10 224.5 3.3 26.2-7.4" />
      <path fill="#464752" d="M1008.8 731l-22.5-10-16-30.6-3 31.5" />
    </g>
    <g class="SVG--2">
      <path fill="#83827f" d="M571.6 45.2L569.8 64l-7 42.2L581 13.5" />
      <path fill="#fffffd" d="M621 198.6L556.2 211l37.5-19.7 222.7-6.3" />
      <path fill="#245a89" d="M581 207.4l2.8 53.7 6.7-42-21.2-15" />
      <path fill="#17171b" d="M294.2 591.5l-3.2-9.2.3 29.3 3-19.6" />
      <path fill="#9695b9" d="M612.5 481.7L607 473l-40-67 24.7 30.5" />
      <path fill="#fff" d="M344 310l-1.6-151-109.8-94.5 107 313.3" />
      <path fill="#5ca23b" d="M883.7 161.8l60.6-1.8-35.2-3-23-8.3" />
      <path fill="#979695" d="M783.2 751.7l-154 7 9.6-6.4 50 5.7" />
      <path fill="#1016d0" d="M677.8 123l-4 3.8.5 16.7 7 9.7" />
      <path fill="#1a1a23" d="M927.7 599l-1.6-19.5-16-4.3 2 47.2" />
      <path fill="#bdc3d2" d="M483 566.6l29.2-5-6-36-31.4 11.7" />
      <path fill="#f3fcff" d="M483 393l7.7-17.8-2.8 31.3-9 11" />
      <path fill="#fff" d="M457.3 69L416 60.3l-26.3 47L450 123" />
      <path fill="#0004c1" d="M122.7 612l107 2.4-101.2 1-28.2-1.8" />
      <path fill="#676e4a" d="M929 253.3l12-64.7 5.7 23L927 224" />
      <path fill="#c5aaaa" d="M546.8 371.6l13.2-20 37-41.6 27.6-26.7" />
      <path fill="#a4a5a2" d="M444.3 443.3l-194.8-3.8-39-30 46.4 36" />
      <path fill="#aba7a8" d="M412 437.2l-62.8-4L427 431l35 2" />
      <path fill="#303137" d="M425 673.5l4 1.2-3.4-80.6-.3 19" />
      <path fill="#fff" d="M970 334.3l-10.8 138.3 14.5 91.7 81.3 1M19-12.7L-31 200l80.4 15-22-12.4" />
      <path fill="#3977ca" d="M209.4 376.8l-5 17.8 3.2 32.3 6-35" />
      <path fill="#62626d" d="M274.4 598.2l-1.3-28-5 32.8 20 38.8" />
      <path fill="#fffcf7" d="M245.8 577.5l-8.7 6.7-5-65 9-49" />
      <path fill="#0a665c" d="M561.4 148.8l3.2 13.4h-8.3l-20.7-6" />
      <path d="M897.2 676.6l5 11.7-9.7 19.6-2.8-21" />
      <path fill="#fff" d="M523.7 583l-19.3 12.4 46.4.8 9-12.6" />
      <path fill="#2e38a7" d="M589.5 412.6l6.3-3.4 9.5 21.7-11.6-47" />
      <path fill="#f7f8f9" d="M540.3 386l4 4.2 52.5-83.6-48 107" />
      <path fill="#15a1a7" d="M863.2 176l-4 40.3 10 26-2.8-75" />
      <path d="M344.7 156.2l3.3 6.3-3 80.4.5-64" />
      <path fill="#ded9ff" d="M162.7 410.5l27.5-21.3-10 43.2-7-53" />
      <path fill="#fff" d="M706 333l257 .3L770 315l160.2-5" />
      <path fill="#d0f4ed" d="M879.3 135.6l-9.6 68L883 158l1-41.6" />
      <path fill="#92948c" d="M89.3 569.5l-18-3.5-6 4.3 6.3 8.2" />
      <path fill="#1682ae" d="M252.5 371.7l13 3.7-7.8 38 13.2 1" />
      <path fill="#07070b" d="M750.5 686l.6 74.6-5-24.6 1-27" />
      <path fill="#e8f36b" d="M96 27L79.4 189.5 79 83.2l19 58" />
      <path fill="#cbce23" d="M127.7 171.8L232 220 176 31l-42.8 178.6" />
      <path fill="#fff" d="M924.8 799l123.8-39.7-131-2-141.8-.2" />
      <path fill="#8c8282" d="M458.5 205.8l3.7 18-26-21.6.6-.4" />
      <path fill="#0d0000" d="M72 38.6L61.8 73.4l-4-15.2L57 35" />
      <path fill="#1fc35b" d="M497 115l-42.6 1.4-1.4 12.8 43.3-1.2" />
      <path fill="#fff" d="M804.5 541.3l15.5 71.4 29-161.5 45.4-219.6" />
      <path fill="#5f5e58" d="M909.2 632.2l-34.8-2.4 139.2-2.2L920 632" />
      <path fill="#22b8b1" d="M113.2 171.5L98 179.8l.5-14.2 7-1.3" />
      <path fill="#8f0003" d="M76.5 30L54.8 219.3l2.6-169.5 20.2 47.8" />
      <path fill="#fffef9" d="M938.8 689.4l57.8 2.5-7.6-15-33 3" />
      <path fill="#fff1df" d="M516.2 155l-6.6-43.8 28.4 33.5-5.2 23" />
      <path fill="#d6a49c" d="M696 496.3l1.5 4 7.6 9.2-9 53" />
      <path fill="#fffeff" d="M511.7 625.6l-8-10-85.5 1 78.4 12.4" />
      <path fill="#fff" d="M845.2 679.3l47.7 28.4-43-3 33-24.4" />
      <path fill="#fefaff" d="M593.7 260.2L611 248l1.8-23.4L562.2 350" />
      <path fill="#fff" d="M153 688.5l43.8-10-3 31.6-.8-20m437.4-264l201.3 9L1018 329l-277.5 86.5" />
      <path fill="#fffffe" d="M819.3 626.4l80.2 2.4-14.3-13.5-102.8 7.6" />
      <path fill="#3e3e3c" d="M979.2 580.4L971 584l-2-13.3 27-8" />
      <path fill="#f1ecff" d="M578 152l7.6-11-9-24 2.4-42.3" />
      <path fill="#2380a5" d="M631 454l22.2-46.7 13.5 9-16.8 16" />
      <path fill="#91908f" d="M351 758l-98-7-11.8 5h-8" />
      <path fill="#296f5a" d="M217.6 373l46.7 3-45.4 5.6 11 48.2" />
      <path fill="#dffdff" d="M249.8 439.6l11.2-39.8-18-20.8 17.3 49" />
      <path fill="#505056" d="M686 628.8l-3.3 50.8-1.5-46 .8-5.7" />
      <path fill="#fcfcff" d="M836.8 57l-56.6 155 89-49.8-84.6 20" />
      <path fill="#f5f9ff" d="M831.5 115.4l2.3 64.3 5.6-52.8-2.2 7" />
      <path fill="#68a531" d="M408 335l9 .3-17.2 32.7 19-15.3" />
      <path fill="#f3f3f5" d="M537 773.6L525.4 663l26.2-32-31 .2" />
      <path fill="#4880e3" d="M831.8 263.8l-22 2.3 22.2-48-15 3" />
      <path fill="#edece7" d="M171.6 634.2l2.7 10.4 40-4.2-13.2-9.2" />
      <path fill="#fff" d="M228.2 285l11.5 140.6-15-37.3 109.5-127.8" />
      <path fill="#c8fff2" d="M897 173.7l17.6 43.2.5-35-57 1" />
      <path fill="#95004c" d="M120.4 577.5l9.2 21.7 13-5.6L135 581" />
      <path fill="#fff" d="M667.2-31l-40.4 66.5 90.8 3.4L1055 21" />
      <path fill="#767676" d="M317 90.3l65.6-.7 17 7.6-89.8-.8" />
      <path fill="#fff" d="M512 700.8l-33-6.8 31.6 28-40 .7" />
      <path fill="#4d62ef" d="M553.3 263.2l-6.5-16.8-1.8-8.5 11-18" />
      <path fill="#050804" d="M171.6 756.2l-1.6-14.4-42 2-11 10.2" />
      <path fill="#f7f7ff" d="M161.7 88.7l-61.7-1 11-6 51 .7" />
      <path fill="#9a9999" d="M437.2 737.3l11.7 20.5-60-1 58-6.5" />
      <path fill="#ff5e4f" d="M976.3 212l3.7 3.5 2.6 9.5-14.5-4.7" />
      <path fill="#456988" d="M928.2 118.6l-53.8 8.3 6.8 12-14.7-24" />
      <path fill="#a14f44" d="M659.6 107.3l-2 46.5 1 .7 5.8 6.3" />
      <path fill="#6f6e6b" d="M552.4 648.2l-145.4-5h332l-167 4" />
      <path fill="#2436c7" d="M568.7 416.4l12-7.4-10-36.8L583 395" />
      <path fill="#3d3d35" d="M814 581.4l-1.3 36.3-4-29 34.2-7.3" />
      <path fill="#373834" d="M902.4 597.3L866 597l-72.5-1.8 19 4" />
      <path fill="#ecece8" d="M937.4 744.6l19 15.2L981 724l8 13" />
      <path fill="#edecf6" d="M933 680l2.8 43.3 31-4.2-24-4" />
      <path fill="#2f302f" d="M831.7 581l-64.2 2.7 4-4.7-117.8 4" />
      <path fill="#696ff6" d="M824.3 164.5l10.7-46-12.8 27-76.7 12.7" />
      <path fill="#fffff3" d="M899 112l16 20.5-.3 23.4-23.7-10" />
      <path fill="#f0f8fb" d="M771.8 258.2l27.2-93.7-19.5 55.3-17.5 13" />
      <path fill="#fff" d="M373.7 578.8l35.5 2-17-109-15 32.8" />
      <path fill="#4157d3" d="M765 136l2.8-11.3 5.3 9.3-19 42" />
      <path fill="#fff" d="M339.4 317.2l-24.4 39-84.4-343-1 343" />
      <path fill="#f1f2f7" d="M274.7 680.5L254 677l3.2 39 18-14.4" />
      <path fill="#515de9" d="M478.8 238.2l-23.6 23.4 2-39.8 14 47.8" />
      <path fill="#eceded" d="M757.8 541.5l12 53.3-1.8-34.2-58.2 13.8" />
      <path fill="#464646" d="M321 739l31 1.5-147.6 1 82.4-2" />
      <path fill="#2728bd" d="M538.6 379.5l-3 31.8 4.4-3.2 4.6-2" />
      <path fill="#a1aca5" d="M942.7 232.3l26 66-7-7.4-34-96" />
      <path fill="#fff" d="M368 432.3L347 159l-27.7-.8 54-.2" />
      <path fill="#4d4d32" d="M469.6 269l4.6 8.5 5.8-6.8-9.5 17.8" />
      <path fill="#f6f0ff" d="M152.7 385l-1.5 30.2 20.7-58 39-28.6" />
      <path fill="#dc713b" d="M319.4 351l8.5-16.6 5 47.3-10-25.7" />
      <path fill="#4a4a46" d="M456 705l-11.6-31.5-92.8 4.6 107 2" />
      <path fill="#faffff" d="M489.6 199.2l-12.5-45-3 27.4 65 6.8" />
      <path fill="#474cdd" d="M623.4 202l-19.6-72-6.5 26.4 9.4-7" />
      <path fill="#565652" d="M240.6 599.6l8.3-5.5 2 12-9-25" />
      <path fill="#5757b3" d="M632.2 217l42.6 14.6-88.2-16 86.8-.4" />
      <path fill="#bfb525" d="M225.4 391.6L214 425l19.3-6.5-6.3-9" />
      <path fill="#9ee5bf" d="M943 538.6l9.4 23.3 15.3-8-2-27" />
      <path fill="#36363e" d="M757.4 579.7l8.6 7.4-26.5 58 5.7-25" />
      <path fill="#fffffa" d="M560.8 206.2l1 36.3 14.2 20 3-50.3" />
      <path fill="#17a18a" d="M229 430.8l4.4 24.6 13.4-60 4 24" />
      <path fill="#9599a7" d="M797.3 175.5L741 165.3l-2.7-28 23.2 41.5" />
      <path fill="#fff" d="M836.7 630.8l-91.8 1-2 10.8 73-2.4" />
      <path fill="#989995" d="M23.5 263.5H27l10.8-11-15.4-49.2" />
      <path fill="#636363" d="M723.4 89.4l-50-.5-27.4-6 78-1" />
      <path fill="#adafea" d="M373.6 564.8l2-35.6-15 1.2-.2 40" />
      <path fill="#4f4e4b" d="M593.8 598.6l71-.4-66.5-1.8L582 569" />
      <path fill="#adafab" d="M19.3 611l60.2-.8 25-9.5L-31 598" />
      <path fill="#fefffa" d="M717.8 722.5l-61.4.4-28.4-12 113-1" />
      <path fill="#4d4ceb" d="M621.7 712l44-4-154.3-1.4 110 4.2" />
      <path fill="#6c8cfd" d="M716.8 262.5l67.5 3.6 48.3-14-94 1" />
      <path fill="#3756c7" d="M538 401.7l11.8-46.8 27 79-24.5-84" />
      <path fill="#fff" d="M945 222l-1 13.5 68-24.8 43 43" />
      <path fill="#00010d" d="M543.6 651.6l-2.3-2-3.3-3-1.4 67" />
      <path fill="#636269" d="M556 603.7L536.8 704l24-110-6.6-21" />
      <path fill="#494cf8" d="M787.8 613.6l67.2-1 78.6-.6-91.5 4.3" />
      <path fill="#ff7e72" d="M967 371l-24.3 17.4 1.5 31.2-.3-52.3" />
      <path fill="#e9f2fa" d="M865 212.7l54.7 7.5L925-31l3.7 244" />
      <path fill="#3e434c" d="M188 603.2l2 68 5-16.4-4-39.8" />
      <path fill="#fff" d="M466.6 722.2l61.5-9-84-2.3 1 5" />
      <path fill="#0e1114" d="M198.6 689.5l5.7 21 2.6-8.3-11-52.7" />
      <path fill="#e1e2fa" d="M678 213l-39.4-11 31.8 18.5 12 36.3" />
      <path fill="#fff" d="M404.4 171.8l-26.7 60.4-.3-52.4 114 35" />
      <path fill="#2eb0f5" d="M562.3 212.8l-3.5-3.3 2-11.7-34.5 5.4" />
      <path fill="#ecede6" d="M780.6 726l5.8 28 4.8-39 50.8-3.4" />
      <path fill="#919191" d="M692.8 475l26.4 2 71-1.5-79.8-3.7" />
      <path fill="#7c82f5" d="M502.3 214.2l9.5 52.5-121.3 2.2 111.3-21" />
      <path fill="#fff" d="M-31 277.8L37 256l3.7-202.6 14 238.7" />
      <path fill="#000012" d="M542.3 625l.2-20-2.8-9.7L536 626" />
      <path fill="#505155" d="M416.7 678l-1.2 35.5-7.3-9.3-1.7-29" />
      <path fill="#5965d4" d="M733.3 135.7l-59 25L696 130l2 17.6" />
      <path fill="#787a1b" d="M207 198.2l-88 .6 82.6-5 5.3-52" />
      <path fill="#eefcfd" d="M616.4 351.7l-49.8-15 52.2 36-32.4-1.4" />
      <path fill="#ca9201" d="M110 284l.4-94.4-2.8 121.3 119.4 3" />
      <path fill="#84868c" d="M110 122.4l.3-66.6-4 77.6 4 130.6" />
      <path fill="#2334a8" d="M737.3 124.3l5.2-3.6-17.3 2.4.7-24" />
      <path fill="#3435ff" d="M394.2 614.5h-104l42-3H401" />
      <path fill="#7d7c7c" d="M372.6 578.7L381 607l3.8-14.3-2-11.6" />
      <path fill="#5a5953" d="M485 696l-12.7-20.8 1.7 21.2 14.2-6" />
      <path fill="#fffcfc" d="M815.6 469.8l-134.7-24 85 1.2-155 23.5" />
      <path fill="#1e1fc9" d="M1001 612l-48.4 1.8 51.4 3.2 13.6-1.2" />
      <path fill="#3f2b25" d="M508.7 118.5L500 124l55-4.4h-46" />
      <path fill="#fff" d="M426.5 412.5L415 266l97 61.2-194 69m59.2-287.8l-14 46.7-20.2-6-101.6-44" />
      <path fill="#393841" d="M992.8 680.8l-5.2-38.3-3.2 31.8L950 676" />
      <path fill="#e7f7fc" d="M764.3 220l-96.3-6 107.6-1-9.6-.7" />
      <path fill="#edf9ff" d="M544.3 169l.3 14 105.2-24.6L699 156" />
      <path fill="#a19e88" d="M776.8 295.6l-22-11.6 19.6-3-3.7-114.7" />
      <path fill="#494942" d="M967.4 722.6l7.4-5.3 26.6 7.7-66.2 1.7" />
      <path fill="#0d0d10" d="M336 712.3l5.5-35.3h15.2l-34.5 2.2" />
      <path fill="#fff" d="M268 727.7l-3 8.3-68 2.2 301 .5" />
      <path fill="#3876eb" d="M395.6 328l-21.2 3.7 1.2-17 19 28.8" />
      <path fill="#f9f5f7" d="M345.7 412.5l58.2 27-124 1.5 137-9.4" />
      <path fill="#52ba8c" d="M85.8 226.7L88 206l15 1-12 13.7" />
      <path fill="#fff" d="M796.6 472.3l148.4 51-5.5-240.5-41 16.8" />
      <path fill="#524ff0" d="M584.7 162.6l-6.4 1.6 12.6-45 8-9.8" />
      <path fill="#fff" d="M598.8 25.4l109.4 6L434.4 39l180.2 15.6m425.7 97L911.8-31 736.6 95.7l-43-46" />
      <path fill="#fff" d="M1051.8 225l-89 21 58.5 28.5L886 55.5" />
      <path fill="#6e5e44" d="M785.8 278.2l8.6-6 9.8 3.2-2 9" />
      <path fill="#ebfeff" d="M464 325.2l7 96 7.6-91.5-25.3 47" />
      <path fill="#1351ab" d="M860 128.7l-1-5.3-4 40.3 9-38.6" />
      <path fill="#5c5659" d="M377.8 111l-1.7 76.4-4-8 4-50.2" />
      <path fill="#989623" d="M360.2 234.7l30.4 6.5 12.8-47.3-16 33" />
      <path fill="#5a5a69" d="M460 592l-.6 11.5 4.4 12.4 1-39" />
      <path fill="#323cd9" d="M176 410l4.6 3.7.4-37.8-11.4 43" />
      <path fill="#fff" d="M502 93.3l-8.4-37.7-228.4-35.2L509.8-31" />
      <path fill="#605541" d="M661.2 201.5l.5 10.4h24l-11.2-5" />
      <path fill="#fff" d="M49 607.2l-69.7-44.7 12 77.4L46 536m582.4-386l-7.7-18 12 66-12-17.3m-439 300.7l-23-55.5-69 5 102-10" />
      <path fill="#5c5c56" d="M597.2 677.3l47.3-2.8L754 678l-241.3 1" />
      <path fill="#53c3ea" d="M481.6 126.3l-27.5-27 14 27.6 4-30" />
      <path fill="#fff" d="M131.2 477.8l192.8 5-172.7 80.6 2-128" />
      <path fill="#dde3fa" d="M796 277l-6.7-47 10.3 5.2-13.2 93.3" />
      <path fill="#636363" d="M309.5 105l43-2.4 24.3 3-29.8 1.6" />
      <path fill="#fffffe" d="M358.2 755.4L256.6 749l129-7.3 34.2 10.3" />
      <path fill="#838417" d="M218.8 297.7l-4.8-74 3-86.2 2 29.4" />
      <path fill="#f2f1f3" d="M293.8 648.3l-53 2.3-15.4 9.5 290-12" />
      <path fill="#656565" d="M700.6 653.8l5-17.3-8.2-20.6.5 45" />
      <path fill="#9c9e9b" d="M77.2 595l-28.6-3.6V587l73.4-7" />
      <path fill="#b3b3c5" d="M112.3 554.5l6 101.5 2.8 14.8-14 12" />
      <path fill="#554525" d="M694.8 217l14 7-.4 7-11.7-9.8" />
      <path fill="#3c3d37" d="M305.8 691.5l-59.2-.5-69.8.6 19 4" />
      <path fill="#0e0e08" d="M1004.6 599.5l10 10.5-5.4-63 1.7 16.3" />
      <path fill="#868682" d="M85.3 13.2l76.3 5.3-29.6 5-58.4 1.2" />
      <path fill="#716761" d="M811 212.6l-22.8-10.3 37 3.6-2.4-13" />
      <path fill="#fff" d="M529 57.7L137-31l10 114.2 7-80.6" />
      <path fill="#cfd21e" d="M223 36.8L187 38l-26.5-2.7 67 104.8" />
      <path fill="#f6f7ff" d="M815.6 161.8l40 4-61.3 37.7L845 57" />
      <path fill="#fffffb" d="M456.4 689.3l-46.8 1L441 677l10 13" />
      <path fill="#6a6a73" d="M286.8 637.4l-13 99 8.4-96.5 1.2-19" />
      <path fill="#fefaff" d="M465.2 225.4l6.7 12-18 38.3 10-24.5" />
      <path fill="#2444c9" d="M482.6 395l-9.8-21 11-6.4-13.3 55" />
      <path fill="#86897e" d="M193.8 35l-54.8.5-74.8-.4 71.5 5" />
      <path fill="#848085" d="M462 134.8l-23.7-8.7-44.3-18-18.3-11" />
    </g>
  </g>
</svg>