<svg version="1.1" viewBox="0 0 1024 768" width="1024" height="768" xmlns="http://www.w3.org/2000/svg">
  <g fill-opacity=".5">
    <path fill="#f9fbfd" d="M776 374l-15 60 11-77-65-58" />
    <path fill="#fff" d="M831 237l70-55-208 19h142" />
    <path fill="#45c2fc" d="M433 657l19-2-9 12-5-2" />
    <path fill="#fff" d="M27 618l33-99 47-51L3 620" />
    <path fill="#8d8e8f" d="M606 561l8-5-8 87v-77" />
    <path fill="#fff" d="M359 41l8-25L216 4l142-26" />
    <path fill="#959998" d="M719 352l-56 70 60-77 27 24" />
    <path fill="#ecedc5" d="M367 719l5-11 10 16-11 11" />
    <path fill="#dadfe4" d="M143 685l17 31-22 2 7-16" />
    <path fill="#5cb178" d="M888 173l5-29 19 6-26-1" />
    <path fill="#549d78" d="M853 107l-14 16 41-33 4 14" />
    <path fill="#0d76e1" d="M526 743l-21-10v3l1-44" />
    <path fill="#098fdf" d="M392 512l19-1 15-4-31-6" />
    <path fill="#38e4fa" d="M145 727l13-67-11 85v-22" />
    <path fill="#fff" d="M492 548l35-95 65-122-97 141m157 116l67-36-87 77 153 50" />
    <path fill="#aad5eb" d="M787 696l-25-19 41 3 8 18" />
    <path fill="#90b2cc" d="M923 96l23 27 53-18h-98" />
    <path fill="#83605d" d="M387 298l4-89 2 87" />
    <path fill="#878787" d="M81 304l18-2 56 3H89" />
    <path fill="#a8e7e0" d="M406 683l26-17-8 5-35 1" />
    <path fill="#fefffe" d="M44 175l-66-17 106 5-87-8" />
    <path fill="#b27f46" d="M746 263l15 11-21 9 46-56" />
    <path fill="#fff" d="M162 602l-11 78 128-161 104 120" />
    <path fill="#919192" d="M600 632l44 1-47 10 12-5" />
    <path fill="#50505b" d="M156 758l11-29-29 33 39-33" />
    <path fill="#a18f71" d="M897 183l38-19-54 53 17-25" />
    <path fill="#88ddf8" d="M476 527l-32-29 45 26 2-35" />
    <path fill="#9d9d9d" d="M205 348l29-9 3-10-26 41" />
    <path fill="#a47538" d="M671 562l-20 3 13-13-23 9" />
    <path fill="#652a15" d="M374 747l50 7 9-21-1 23" />
    <path fill="#6bb187" d="M843 130l37 16 20-21-29 11" />
    <path fill="#583341" d="M103 695l37 24-4-7 14-8" />
    <path fill="#fff" d="M269-31L105 28l130 190 102-74" />
    <path fill="#9b9a91" d="M336 429l23-3 33-2-46 19" />
    <path fill="#fff" d="M742 157l-32 135-139-118 255-4m-23 164l-38-31-9-32 91-8" />
    <path fill="#70a8ce" d="M965 492l1-14 36-6-19 20" />
    <path fill="#fff" d="M641 560l57-40-14-111-148 87" />
    <path fill="#343a4a" d="M387 632l-4-83 18-36-10 9" />
    <path fill="#8b6f43" d="M957 183l-19-7 4-14 11 30" />
    <path d="M110 301l-1 4 26-5-2-79" />
    <path fill="#9b7d40" d="M642 246l6 6 10 18h-10" />
    <path fill="#324061" d="M156 685l24-25-14 3-9 34" />
    <path fill="#3a1a29" d="M177 471l-39-14 10 61-21-57" />
    <path fill="#fff" d="M336 470L190 597l119-118 54-46m-38 277l22 8 1-178-63 93" />
    <path fill="#939792" d="M42 183l2 11 39-7-19 3" />
    <path fill="#fff" d="M347 215l32-195 6-17 2 193" />
    <path fill="#b46516" d="M781 56l23 55 6-6-26-49" />
    <path fill="#fff" d="M777 227l29-1-13-37-163 129" />
    <path fill="#313132" d="M324 559l1 10 22-39h15" />
    <path fill="#7c9a70" d="M776 660l-16-8 52 10-25-19" />
    <path fill="#5e5352" d="M427 307l-15-6v-99l-5 100" />
    <path fill="#fff" d="M552 454l69 68-105-90-254 23" />
    <path d="M124 87l-7 46-3 89 17-61" />
    <path fill="#40202f" d="M154 608l-12 32 5-47-5-106" />
    <path fill="#fff" d="M663 164L317 421l-23 3 179 1" />
    <path fill="#899182" d="M952 232l10-15-27 10-45 12" />
    <path fill="#959596" d="M650 652l-20-2-32 4 7 5" />
    <path fill="#fff" d="M404 419l-85-76 58 66-24-47M93 256L73-31l-2 264-60 2m356 243L172 663l-4 41 38-11" />
    <path fill="#fffffe" d="M645 257l135 14-100-7-119-5" />
    <path fill="#fcfcfc" d="M364 413l-80-81 16 40 11-18" />
    <path fill="#fff" d="M426 515l3 93 206 4-122-34" />
    <path fill="#553f53" d="M56 510l43-35 49 34-44-47" />
    <path fill="#fff" d="M14 115l65 3-95 9L12 27" />
    <path fill="#958a62" d="M769 334l67-9 4-5-27 22" />
    <path fill="#340016" d="M507 755l17-24-4 24h-8" />
    <path fill="#656767" d="M348 190l-9-2 7 15 2-6" />
    <path fill="#4386cd" d="M10 704l2-23 24-22-23 39" />
    <path fill="#2e6698" d="M146 569l10-6 2 19-53-6" />
    <path fill="#4c5170" d="M158 624l-12 15-40 51 45-50" />
    <path fill="#53333f" d="M116 574l-1 28 10 20-3-32" />
    <path fill="#fff" d="M922 178l-16 32 33 21 10-47" />
    <path fill="#effcfd" d="M49 523l48-64-69 77-59-63" />
    <path fill="#fff" d="M954 270l-3 92 52 107 52-231" />
    <path fill="#79524b" d="M428 632l-35 5 7 37-18-13" />
    <path fill="#918c86" d="M874 632l-11 1 6 52-6-21" />
    <path fill="#3d3d3d" d="M930 467l-2-16-4 45 7 3" />
    <path fill="#2f0006" d="M421 502v-11l-38 1 3 9" />
    <path fill="#6e2a26" d="M372 675l-20 27 10 56 4-6" />
    <path fill="#67141c" d="M149 691l-1-17-11 10-27-2" />
    <path fill="#fff" d="M509 175l-48-53h45l-70 71" />
    <path fill="#6b706e" d="M28 190l1 91-5-62-8-48" />
    <path fill="#fffef3" d="M598 511l-46 36 34-50-50 36" />
    <path fill="#fff" d="M614 703l215 96 123-131-346 131M354 512l2 23 2 110 25-135" />
    <path fill="#68aa88" d="M892 255l1-4-27-34 16 39" />
    <path fill="#839a6b" d="M710 455l-8-34-41-26 56 53" />
    <path fill="#fbfbfb" d="M218 327l62 92-54-50 57 37" />
    <path fill="#fff" d="M716 340l46 37-66-79 59 3" />
    <path fill="#fffffe" d="M980 240l-33-104-67 71 102-99" />
    <path fill="#ff8689" d="M421 720l9 10 8 14 9-32" />
    <path fill="#fef9f3" d="M950 137l-3-43-9 35-53 39" />
    <path fill="#a25c16" d="M783 78l30-51-25 22 8 45" />
    <path fill="#fff" d="M868 615l-7 34-18 52 18-93" />
    <path fill="#622a29" d="M418 578l7-21-31 16 11-12" />
    <path fill="#b7000e" d="M621 244l3 4 11-15 12 11" />
    <path fill="#125b87" d="M118 481l37-1-30 8-19 1" />
    <path fill="#bd52a9" d="M431 473l-19-5 24 1 38 29" />
    <path fill="#fff" d="M32 206l-39-6 58 13-20-67" />
    <path fill="#937143" d="M528 469l3 25 26 51-17-45" />
    <path fill="#fffffa" d="M364 782l3-40 53 54-134-91" />
    <path fill="#3bb1e3" d="M493 517l-2-10-11-8-17-8" />
    <path fill="#fff" d="M68 569l-53-33 25-97-46 15" />
    <path fill="#8b8b8b" d="M281 328l6 19-17-14 27 3" />
    <path fill="#25a6dd" d="M422 559l-54-7 51 1 10-6" />
    <path fill="#fffefc" d="M697 193l-89 92 131-152 71-40" />
    <path fill="#681c0a" d="M404 664l13-10 7 3-9 10" />
    <path fill="#53627d" d="M146 643l-3 16 19-16-12 24" />
    <path fill="#7cddcd" d="M373 663l19 5-19 26 13 54" />
    <path fill="#fff" d="M233 244l-39 64-3-119-43-93" />
    <path fill="#8c8c8c" d="M381 357l18-26 3 8-65 65" />
    <path fill="#787c78" d="M275 227l3 12 16-10 3 6" />
    <path fill="#898989" d="M932 377l6 25-1-57 2-42" />
    <path fill="#fff" d="M644 414l5-105 54 83-38-31m201 325l9-54 31 43-242-20" />
    <path fill="#fffffe" d="M580 570l113-138-33-32-32-9" />
    <path fill="#9c9c9a" d="M614 385l-7-140 11 85-11 24" />
    <path fill="#fffffb" d="M763 194l44 72 17 94-53-153" />
    <path fill="#453630" d="M189 273l1-30 1 44-2 22" />
    <path fill="#ec1d2b" d="M99 666l3 4 3 25-6 20" />
    <path fill="#7b5e39" d="M782 245l-10-9-5 1 12-5" />
    <path fill="#fff" d="M55 243l15 51-101-16 84 168" />
    <path fill="#fbfffe" d="M861 230l42 93-15 72-15-164" />
    <path fill="#f6fffe" d="M127 774l-22-39-4 64 59-74" />
    <path fill="#183680" d="M84 735l-4-17-15 8 11 10" />
    <path fill="#fff" d="M531 278l188 16-137-1 60-117" />
    <path fill="#e49b98" d="M409 150l-3-64-13 20-3 216" />
    <path fill="#fff" d="M363 33l191 4-121 59 57-10" />
    <path fill="#e3fff3" d="M683 407l16 10-9-19-11-1" />
    <path fill="#fffffe" d="M519 315l33 116-67-106 272 6" />
    <path fill="#ec2a0f" d="M491 97l14 18 3-1 5-20" />
    <path fill="#a61c22" d="M38 487l2-6-8-4 8-18" />
    <path fill="#b5511d" d="M722 485l-12-4-1 41-12-8" />
    <path fill="#fffffa" d="M861 67l79 23-81-17-138 29" />
    <path fill="#939da2" d="M646 387l-5-118-3 15 1 49" />
    <path fill="#38d5fd" d="M146 678l-16-1-6-1-4-10" />
    <path fill="#828480" d="M343 21l16-9-34 14-7 10" />
    <path fill="#bacac7" d="M124 510l40 1-49-4 1 14" />
    <path fill="#af9f95" d="M744 415l-17 14 28 3-9-3" />
    <path fill="#504a4a" d="M408 178l5 13-3-110v13" />
    <path fill="#fff" d="M581 339l29-55-3 26-1 96" />
    <path fill="#9fa5ae" d="M585 732l4-5 17-8 5 16" />
    <path fill="#7b605d" d="M390 139l-2-36 10-18h-11" />
    <path fill="#fff" d="M536 670l18 47 14-67-38 66" />
    <path fill="#fffffe" d="M591 330l-13 164-95 2 106 8" />
    <path fill="#a27239" d="M869 41l22 15-23-31-23-6" />
    <path fill="#fff" d="M798 34L355-31l51 70 239 61" />
    <path fill="#f9fefe" d="M174 734l69 36-18-45-83 74" />
    <path fill="#a0b1bc" d="M121 568l4-14-5-45 9 154" />
    <path fill="#fffffe" d="M865 461l-170 53-98-112 133 133" />
    <path fill="#afaeaf" d="M619 387l33 14 18-4-24-14" />
    <path fill="#feffff" d="M54 557l-85 106 139-158-13-5" />
    <path fill="#fff" d="M822 48l22 184-85-18 74 2m-541 24l37-50v115l-71-76" />
    <path fill="#5f5f5f" d="M121 347l-15-10-2 4-1 2" />
    <path fill="#b6a994" d="M663 380l-87 22-38 51 26-51" />
    <path fill="#fff" d="M49 191l51 19-85 8 27 3" />
    <path fill="#b2c0cb" d="M393 541l2 7-2 56-3 26" />
    <path fill="#888069" d="M541 705l11 13v1l-14-11" />
    <path fill="#6a9770" d="M791 617l-27 14-30-18 26 28" />
    <path fill="#6a2c26" d="M405 596l-7 1-3-6 6-8" />
    <path fill="#fff" d="M503 635l111 7 59-1-45 10M55 436l137-92 46 42-191-45m740-44l44 30 17-86 14 5m43 344l-22-44 18 164-19-67" />
    <path fill="#8a8d8f" d="M607 650l-1 37 8 25-10 4" />
    <path fill="#78c9d5" d="M388 648l8 10 29-6-8-2" />
    <path fill="#9ea29f" d="M56 151l16-16v-7l1 29" />
    <path fill="#432f4e" d="M25 695l18-6v-12l-20-5" />
    <path fill="#fff" d="M39 326l-1-178-38-3 39-1" />
    <path fill="#629fc9" d="M789 543l36 12-8 7-10-21" />
    <path fill="#961207" d="M442 711l-8-44-7 23 7 27" />
    <path fill="#fff" d="M85 167l7-36-44 45-45-12" />
    <path fill="#feffff" d="M258 617l42-151-5 4-74 13" />
    <path fill="#676c6b" d="M29 91l-4-46v17l2 87" />
    <path fill="#4ba271" d="M763 314l-21 13 18 13-17-26" />
    <path fill="#fff" d="M216 350l-26-67 14 12-22 38m356 349l77 22 72-28 55 44M8 52l8 217 12 4-59-2" />
    <path fill="#b8b8b8" d="M563 576l64 30 20-8-78-7" />
    <path fill="#763c50" d="M88 452l-46 65-2-8 25-32" />
    <path fill="#fdffff" d="M225 554l43 221v-90l57-98" />
    <path fill="#c2c2c2" d="M99 32l-5 59 1-97 4 58" />
    <path fill="#51151a" d="M99 490l45 7-14-12-18 20" />
    <path fill="#a5a5a6" d="M601 616h-6l60 8-37-13" />
    <path fill="#fff" d="M612 92l-3 38-20-35-5 60" />
    <path fill="#989897" d="M20 428l66 21 6-10 1-3" />
    <path fill="#fff" d="M316 367l85-43-84 75-5 64" />
  </g>
</svg>