<svg version="1.1" viewBox="0 0 1024 768" width="1024" height="768" xmlns="http://www.w3.org/2000/svg">
  <path fill="#e6e6e6" d="M0 0h1024v768H0z" />
  <g fill-opacity=".5">
    <path fill="#00000a" d="M385 730l36 37 3-310h-43" />
    <path fill="#333755" d="M93 742l33-338 54 285 366 47" />
    <path d="M139 92l-26 7-6 204 27 8" />
    <path fill="#6c534a" d="M506 695L354 795l6-152 178 130" />
    <path fill="#352f4a" d="M164 456l-22 241-43-207-78-29" />
    <path fill="#555" d="M917 446l-13 259 25-146 27-319" />
    <path d="M111 291l26 18-3-197-22-16" />
    <path fill="#963a36" d="M413 81l-1 204-23 37-4-222" />
    <path fill="#530f44" d="M159 766L6 700l17-38 56 51" />
    <path fill="#fff" d="M185 731l209-137-237-141-7 190" />
    <path fill="#005c7f" d="M195 300l-30 8 3-120 21-3" />
    <path fill="#fff" d="M449 762l-112-17-56-51-11 105" />
    <path fill="#040828" d="M400 757l-75-49-46-33-19 17" />
    <path fill="#505450" d="M15 304l16-59-4-150-8-84" />
    <path fill="#71af7e" d="M825 257l111-20L821 91l114 55" />
    <path fill="#81ad88" d="M747 571l113 95-85-5-100-109" />
    <path fill="#503d55" d="M172 513l-65-57-52 75-28-67" />
    <path fill="#fff" d="M877 3L-31-31 48 82l243 73" />
    <path fill="#9e4900" d="M711 546l9-93-2 4-22-50" />
    <path fill="#5f151b" d="M452 748l-15-87-24 62 116-18" />
    <path fill="#17163d" d="M249 758l-23-30-159 39 187-65" />
    <path fill="#fff" d="M-31 278l9 179 328 2-131-147M-22 664l140 4-1-88-148-108" />
    <path fill="#a3524f" d="M360 211l-1 91-23 3-5-91" />
    <path fill="#db4400" d="M513 96l-1 20-52 2 32-28" />
    <path fill="#6b6788" d="M228 529l-2-9-71-53 67-9" />
    <path fill="#bc6202" d="M779 85l21-71-2 62 34 56" />
    <path fill="#910015" d="M8 736l-1-48 17 29-16 45" />
    <path fill="#a55400" d="M880 27l11 48-40-64-57 21" />
    <path fill="#fff" d="M446 628L810-31 672 505 441 746m193-560l-178-82-72 294 124 72" />
    <path fill="#9e6924" d="M540 422l5 117 89 46-106-78" />
    <path fill="#9bbba9" d="M808 310l-142 77-134-46 165 90" />
    <path fill="#738a54" d="M866 98l22-46v44l58 107" />
    <path fill="#adb336" d="M215 313l14-57 76 59-4-47" />
    <path fill="#a37b62" d="M595 252l65-6-23 141 3-158" />
    <path fill="#fff" d="M144 675l168-393-47 453-48-93" />
    <path fill="#54160d" d="M380 673l-17 84-14-41 19-58" />
    <path fill="#898d4e" d="M775 342l69-9-106-19 18-62" />
    <path fill="#fff" d="M777 799l-58-298-83 186-192 112" />
    <path fill="#728a9d" d="M449 424l-104 18-52 53-6-63" />
    <path fill="#738c4f" d="M851 316l-29 27 80-120-53 38" />
    <path fill="#3a1920" d="M378 754l148-55-61 46-46 8" />
    <path fill="#fff" d="M983-3l-54 549 89 253 37-801" />
    <path fill="#fff" d="M351 774l150-48 24 73 530-103" />
    <path fill="#afaab5" d="M30 425l85 7-58 159-10-18" />
    <path d="M112 283l22 4 2-136-12-80" />
    <path fill="#8c0e2d" d="M32 661l49 66-10 15-48-70" />
    <path fill="#062b59" d="M424 584l-46-113 28-17 19 47" />
    <path fill="#007fd4" d="M527 702l-28-15 10 65 13 8" />
    <path fill="#716f6d" d="M937 407l22-150 2-81-25 120" />
    <path fill="#fff" d="M925 297l-182 71-28 134 190 114" />
    <path fill="#494a49" d="M359 535l-49 44 1 1 37-53" />
    <path fill="#010202" d="M479 544l10-1-22-13-33-14" />
    <path fill="#f8f8e4" d="M430 725l125-57-147 74 14-81" />
    <path fill="#edffff" d="M136 756l20-119 3 161-190-45" />
    <path fill="#fff" d="M1024 799l31-265-255 185-280 23M362 456l-232-67-96 149 67-78m113-66L402 63 39-31l242 359" />
    <path fill="#a09f9f" d="M514 170l198-8-208-34 194 5" />
    <path fill="#fff" d="M71 738l171 61H-3l37-108" />
    <path fill="#343f5a" d="M168 654l-48 108-5-83h57" />
    <path fill="#fff" d="M1055 6v254L917 146 863-31" />
    <path fill="#51a6cd" d="M487 522l-37-68-6 7 50-4" />
    <path fill="#fff" d="M161 646l-13-174 123 207-86 44" />
    <path fill="#ae864f" d="M524 509l12-83 56-43-51 60" />
    <path fill="#fff" d="M256-31l249 91 280 78-3-160" />
    <path fill="#9e9792" d="M693 107l3-10-267-5 223 18" />
    <path fill="#a77472" d="M413 94l-1 175-28-155 13-67" />
    <path fill="#9ca09c" d="M349 29l37 11 6-24H239" />
    <path fill="#b35718" d="M715 501l-19 37 14-106 11 50" />
    <path fill="#170f19" d="M116 504l5 77-19-127 45 13" />
    <path fill="#0c2f69" d="M250 690l4 66-18-3-8-54" />
    <path fill="#281f30" d="M152 516l-17-56 11 216 10-85" />
    <path fill="#fff" d="M112 306l-40-5-1-239 39 8" />
    <path fill="#7b7b7a" d="M898 679l25-149 1 79-6 68" />
    <path fill="#66a4cb" d="M955 120l46-1-26-19-66 5" />
    <path fill="#0182dc" d="M295 670l-18 57-4 70-5-119" />
    <path fill="#838383" d="M228 379l1 23 28-27 43-56" />
    <path fill="#af722a" d="M741 289l52-63-28 16h-7" />
    <path fill="#fff" d="M-24 756l426 27-121-81 2 53" />
    <path fill="#a9271c" d="M422 682l5 91 16-114h-4" />
    <path fill="#fff" d="M799 166L415 320l-4-157 207 3" />
    <path fill="#a4a298" d="M641 712l-155 2 128-12 29-159" />
    <path fill="#9f9b97" d="M653 387l-47 9 3-158 13 148" />
    <path fill="#a86423" d="M929 162l34 24-29-9-38 20" />
    <path fill="#898989" d="M286 379l53-44h15l-67 61" />
    <path fill="#93bbd4" d="M823 414l-55-47-23 71-35-17" />
    <path fill="#fff" d="M232 623l117 106 31-145-214-32m-197 28L84 727l25-197 8 115m812-387l-7 51-96 421 36-463" />
    <path fill="#879273" d="M677 557l104 108-11-27-102-102" />
    <path fill="#c2721e" d="M781 84l5-35 16-19 29-24" />
    <path fill="#be2f02" d="M643 231l12 27-40-19-1-4" />
    <path fill="#fff" d="M136 132l195 174L225-25l-89 343" />
    <path fill="#8e9a77" d="M773 616l25 17 70 7 56-12" />
    <path fill="#9e859f" d="M214 516l-58-34 67 68-14 15" />
    <path fill="#606060" d="M170 328l14 6-25 28-8-8" />
    <path fill="#fff" d="M625 570l-11-220 95 119-4 23" />
    <path fill="#909090" d="M402 345l2-21-77 68-2 15" />
    <path fill="#6a5f7c" d="M75 463l-38-4-1 49 12 30" />
    <path fill="#fff" d="M330 430l303-52-522-73h313" />
    <path fill="#82a291" d="M670 397l111-119-27 46-91 90" />
    <path fill="#41315b" d="M159 703l13 51-86-8 126-10" />
    <path fill="#bcffd9" d="M390 686l-6 54-13 3-4-35" />
    <path fill="#7cb5d7" d="M953 455l14-3 52 34-52 7" />
    <path fill="#276e84" d="M205 462l16-9 7 29-11 38" />
    <path fill="#fff" d="M427 520l-2 129 73 53 68-117m235-246l54-61-49-45-55 48" />
    <path fill="#500000" d="M300 687l-12 2-11 3 62 44" />
    <path fill="#fff" d="M383 214l-75 5L15-31l363 68" />
    <path fill="#feffff" d="M908 600l-51 39-87-52 172-268" />
    <path fill="#4750b6" d="M319 495l43-40-38 26-24 24" />
    <path fill="#81b9da" d="M786 558l41 7-18-44-49 32" />
    <path fill="#8e9461" d="M849 324l19-48-72-53 57 16" />
    <path fill="#642462" d="M106 723l-44-5 21 25 22-82" />
    <path fill="#919291" d="M606 574l-3 115 9 16 2-101" />
    <path fill="#fff" d="M806 42l23 76 56-36-31-53" />
    <path fill="#ac7837" d="M544 506l-15-42 12 62 48 44" />
    <path fill="#5d7d44" d="M289 268l18 24-28 15-5-24" />
    <path fill="#fff" d="M30 413L1 70l-3 620 44-46M536 65l11 106 59 159-243 89" />
    <path fill="#331a00" d="M408 703l-33 54 39-5-26-48" />
    <path fill="#f5f9fa" d="M84 462l31 305-11-291-42 14" />
    <path fill="#fff" d="M377 675l37 2-131-68 96-93" />
    <path d="M134 281l-21 26-1-19 2-189" />
    <path fill="#fff" d="M232 726l6 68-66-62-10 34m385-18l-52-83-71 108 100-353" />
    <path fill="#a10022" d="M165 726l-11-31 15-41 1 6" />
    <path fill="#9b7e3e" d="M864 129l5-8-79-27 12 17" />
    <path fill="#68acd7" d="M590 640l-37 24-23-4-2-16" />
    <path fill="#777b77" d="M13 147l19-95 40 22-52-34" />
    <path fill="#fff" d="M590 181l153 161 7-83 63-68" />
    <path fill="#67add9" d="M805 167l-41 5 6 18 57-3" />
    <path fill="#5fa6d9" d="M582 348l-50 6 2 14 57 1" />
    <path fill="#90908f" d="M922 310l-7 244 8-107 13-226" />
    <path fill="#6cafda" d="M804 722l10-18-65-1 21 18" />
    <path fill="#fff" d="M333 582L62 370l153 132 46-100m691-171L780 92l64 130 97-50" />
    <path fill="#151515" d="M447 516l43 32-11-3-34-22" />
    <path fill="#17438e" d="M7 716l16-51 20 1-5 25" />
    <path fill="#719070" d="M911 192l-64-91 58 110-84 42" />
    <path fill="#fff" d="M484 728l22-10 2 62-97 19" />
    <path fill="#75837c" d="M799 634l-95-92-13 18 18-27" />
    <path fill="#848781" d="M108 427l7 6-63 16-35-11" />
    <path fill="#500d0c" d="M181 735l64-37-8 18-45 32" />
    <path fill="#020400" d="M54 579l-1-10 9-6-2 20" />
    <path fill="#898989" d="M229 373l-11-14 21-36-37 26" />
    <path fill="#fff" d="M715 799l63-136-134-96v200" />
    <path fill="#a8a8a8" d="M94 67l5-46-2 322-3-61" />
    <path fill="#3f799b" d="M387 650l30-138 10-6-47-13" />
    <path fill="#fff" d="M601 353l-245-57 10-282 24 315" />
    <path fill="#538d55" d="M724 395l-21 26-12 12-8-18" />
    <path fill="#151c15" d="M211 562l-5-3-1-11 18 2" />
    <path fill="#fff" d="M479 185l15 309-102-71 144 128" />
    <path fill="#380d1d" d="M508 693l-40 30-18 27 57-32" />
    <path fill="#b61a35" d="M96 708l2-58 9 13-3 57" />
    <path fill="#818181" d="M105 353l27-15-22-14 5-12" />
    <path fill="#d9cb2e" d="M242 310l5-45-18-14-9 36" />
    <path fill="#715f5f" d="M409 280l-12 35 18-12-6-100" />
    <path fill="#fff" d="M188 340L208 5l14 307-74 176" />
    <path fill="#626461" d="M20 137l-3 155-5 5 17-21" />
    <path fill="#1276c4" d="M288 459l-3-1 34 3-20 32" />
    <path fill="#45425a" d="M149 482l-20-2-61 71 36-32" />
    <path fill="#999a94" d="M886 694l-27-40-1 32 57-14" />
    <path fill="#525252" d="M920 555l3 20 9-60V400" />
    <path fill="#f1fffc" d="M858 256l155-94-245 122-14 19" />
    <path fill="#a38f71" d="M699 530l-65 31v9l32-10" />
    <path fill="#956766" d="M333 329V218l26 26-15-45" />
    <path fill="#6b9980" d="M908 224l69-1-58 15-66 34" />
    <path fill="#3295e6" d="M63 734l47-30-8 29-4 8" />
    <path fill="#b06c21" d="M741 263l11 15 11-36-7 67" />
    <path d="M112 114l25-13-5 87-18 97" />
    <path fill="#fff" d="M358 700l-165-60 67-225 104 259" />
    <path fill="#703f5f" d="M73 529l-9 10 6-16 62-67" />
    <path fill="#6496c1" d="M136 569l10 106-23 5V521" />
    <path fill="#00c8ff" d="M518 688l5-2-25 12 26 35" />
    <path fill="#fff" d="M643 395l122-53-63 58 39-431" />
    <path fill="#7c8dd1" d="M407 447l-66 46-47 49 66-57" />
    <path fill="#bebdbe" d="M623 310l-8 12 69-14 59 50" />
    <path fill="#310011" d="M527 750l-10-17 1-6-13 29" />
    <path fill="#fff" d="M823 667l7-65-49 197 274-53m-848-25l-43-20 126-318-57 314" />
    <path fill="#6d1626" d="M267 752l7-41 4 26-5 19" />
    <path fill="#69b98e" d="M726 325l25-19 12 48 20-16" />
    <path fill="#c08343" d="M940 168l24 13-5 15-42-35" />
    <path fill="#fff" d="M412 119l5 76 113-94 378 40" />
    <path fill="#532c31" d="M373 675l-49 64 57-51 63 9" />
    <path fill="#fff" d="M963 221l77-252 15 580-111-160" />
    <path fill="#572a31" d="M119 554l-16-123 21 242 1-62" />
    <path fill="#fff" d="M693 541l215-44 5-102-150 27M545 701l57-1 4-249 11 61" />
    <path fill="#00004f" d="M454 459l13 14 24 19-7-12" />
    <path fill="#a76122" d="M809 339l34-13 14-48 2 19" />
    <path fill="#979696" d="M540 164l18 4-27-16 190 5" />
    <path fill="#f3fef5" d="M783-12l156 212 1 41L830 57" />
    <path fill="#b92e32" d="M441 654l3 84-19 17 5-41" />
    <path fill="#fff" d="M87 754l-60-63L5 799l458-44" />
    <path fill="#fff" d="M184 727l3-198 83 227-4-101" />
    <path fill="#12213b" d="M386 454l-6 50 45-6-8-20" />
    <path fill="#b2b1ab" d="M448 724l-37 1-6-201-6 179" />
    <path fill="#fff" d="M919 774l118 4 13-326-124 112M30-31L47 75l19 3-37 174" />
    <path fill="#8f938d" d="M41 152l3-21 27 6 1 15" />
    <path fill="#fff" d="M246 299l86-56 7-212-76 27m371 741l421-78H613l20-142" />
    <path fill="#feffff" d="M-27 659L85 483h26l-15 5" />
    <path fill="#fff" d="M135 309l-166 30 440 86-440 5" />
    <path fill="#fff" d="M493 458l113-313-175 296-269 16" />
    <path fill="#effffa" d="M933 682l-151-40-49-76 16 48" />
    <path fill="#96ddb3" d="M493 135l20 15-45 7-13-16" />
    <path fill="#fff" d="M623 153l82-7-64-6-138 4m-369-15l7-103 27 52-6 262" />
    <path fill="#d40907" d="M74 720l-10 9-27-35-2-20" />
    <path fill="#907a5d" d="M580 391l-45 63 14-36 61-30" />
    <path fill="#b8a68a" d="M598 701h-63l89 29-47 4" />
    <path fill="#fff" d="M839 22l-43 39 6 37 72-12M532 705l-10 50-237 2 420 42" />
    <path fill="#725b73" d="M105 538l41-40 53 35-34-31" />
    <path fill="#fff" d="M85 775l97-24 47-27 13 75" />
    <path fill="#a3a4a5" d="M802 25l-40-2-7-8 38-3" />
    <path fill="#5af2ff" d="M150 750l7-62-4-22-9 80" />
    <path fill="#949494" d="M968 245h28l15 12-46-5" />
    <path fill="#818482" d="M11 145l19-77-4 148-8-41" />
    <path fill="#fff" d="M-27 100l73 21-40 4L27-31" />
    <path fill="#392930" d="M384 549l5 102 1-179-5-15" />
    <path fill="#a56920" d="M892 52l-37-36-55 24 28-26" />
    <path fill="#9fa29b" d="M412 439l-51 1 72-16 13 15" />
    <path fill="#9e9e9e" d="M567 307l74-9-74-6h7" />
    <path fill="#fff" d="M598 559l90-23-26-134-117 33M-31 666l141-162-77 58 91 86" />
    <path fill="#968f87" d="M283 448l153-16-141 2-6-4" />
    <path fill="#fff" d="M855 17l168 102 32-150L664 3" />
    <path fill="#212020" d="M342 528l18 1-40 37 28-33" />
    <path fill="#fff" d="M416 298l-59 33-82 79 73-28" />
    <path fill="#399bb4" d="M169 300l-5-69 17-73 11 146" />
    <path fill="#fff" d="M735 337l-93-43 43-76L789 57" />
    <path fill="#c0154c" d="M195 473l13 7-16-19-16-1" />
    <path fill="#919490" d="M363 40l-12-14-30 11-1-23" />
    <path fill="#fff" d="M800 144l-88 19-61-194 124 68M-31 456l189 3L45 226l79 215" />
    <path fill="#549265" d="M804 654l-46-70 39 40-12 36" />
    <path fill="#9e9d9d" d="M680 141l-158 1 168-16 1 17" />
    <path fill="#2b75be" d="M412 493l-28-10-29 22 64-25" />
    <path fill="#b3b6b2" d="M226 220l5-18 52 41 18-14" />
    <path fill="#aeaeae" d="M601 673l80 7-2 4 16-19" />
    <path fill="#fff" d="M322 727l-34-26-13 45 142 53m84-830L378 81l201 16 217-44" />
    <path fill="#944e09" d="M819 123l-32-40 21-62-24 43" />
    <path fill="#9d9c9c" d="M525 72l12 13h-33l-4-11" />
    <path fill="#0c5abc" d="M199 744l-25-39-11 25 10 7" />
    <path fill="#ff690d" d="M514 97l-8 19-39-15 9-6" />
    <path fill="#989c98" d="M76 23l-31-5-2 14 34-2" />
    <path fill="#fff" d="M60 152l-67 21h76L32 44" />
    <path fill="#8277c2" d="M425 471l-31-9 41 6 76 53" />
    <path fill="#2d112f" d="M239 744l-4 14 22-12v-12" />
    <path fill="#fff" d="M608 370l-1-97-28 82-88 113" />
    <path fill="#3c3d3d" d="M934 431l19-145-9 56-13 60" />
    <path fill="#8c8c8c" d="M640 391l-57-2 62-6-2-45" />
    <path fill="#cf1544" d="M20 731l-4-25-8 9 4 49" />
    <path fill="#502f2e" d="M406 695l-10-6 22-27 4-188" />
    <path fill="#fff" d="M418 652l90 12 78-103-136-18m446-289l-32 16-53 342 119-389" />
    <path fill="#fff" d="M889 563l-43 69-91-51-22-25m-764 43l95-142-27 61-41-408" />
    <path fill="#979b96" d="M73 176l-31 13 6-19 24 32" />
    <path fill="#eca29f" d="M404 335l-13-189 9-95 9 125" />
    <path d="M129 150l-18 149 14 7 11-23" />
    <path fill="#99a998" d="M866 158l43-9-64 26-11-14" />
    <path fill="#958f80" d="M619 237l-8 26 9 43-21-46" />
    <path fill="#69a982" d="M700 376l-16 22-1 19-26-17" />
    <path fill="#903d7c" d="M172 489l50 47-28-28-52-29" />
    <path fill="#fff" d="M-31 563l97 147 31-11-9-105" />
    <path fill="#0eaeff" d="M290 692l-8-24-16 15 10 37" />
    <path fill="#5a031d" d="M51 495l-10 21 28-37 7-16" />
    <path fill="#fff" d="M135 462l76 41 55 250 10-191" />
    <path fill="#26253d" d="M113 720l38 3-18 8 5 17" />
  </g>
</svg>