<svg version="1.1" viewBox="0 0 1024 768" width="1024" height="768" xmlns="http://www.w3.org/2000/svg">
  <g fill-opacity=".5">
    <path fill="#fff" d="M768.4 116.6l59.2 2.7 47 43.6L628 110" />
    <path fill="#530501" d="M360 730l.7 30.6L375 668l-8-15" />
    <path fill="#b1b2b2" d="M595 559l32.3 28.3L552 593l87.7-33.4" />
    <path fill="#a5a5a5" d="M504 417.2l26.6 1 14-12-28.6-3" />
    <path fill="#5cacd9" d="M329.2 738h14.4l12.2-.3-3-41" />
    <path fill="#28312f" d="M391 126.8l-2.5-42-1.2 5.6-.3 218.8" />
    <path fill="#81baa1" d="M930.8 93l-83.5 9.6 21.2 50-1.2-25" />
    <path fill="#8a8f8a" d="M340 168.2l18-8.2 16-1-46 1" />
    <path fill="#fff" d="M171 594.7L415.8 657l-86.4-45.3 16.7 103" />
    <path fill="#a3a4a4" d="M535 108.5l67 1.3-10.5-9.4-7-9.2" />
    <path fill="#838882" d="M65.5 266.3l6.2-11.8-.2 17.6-39.5-4" />
    <path fill="#a5a5a5" d="M317.2 425l85.6-107.3-7.3 31.5-21.7 18" />
    <path fill="#d5f8e0" d="M424.6 691.6L411 697l6.6 34.3 12-11.3" />
    <path fill="#fff" d="M108.7 516.3L93 531.5l-31 37.7 58 103" />
    <path fill="#a17a46" d="M539 463.7l-2 47.7-7.2-58 32-52" />
    <path fill="#5b1730" d="M144 458l-45.6 22.3 47-15.6 43.4 16.6" />
    <path fill="#8b8f8b" d="M72.4 290.7l3.6 16.7-10.2 4.6-7.5-13" />
    <path fill="#fff" d="M181.5 493l94.7-146 160.6 76.4-137.5-76.8" />
    <path fill="#590d02" d="M326.7 711.7L286 699.5l46.2 32.2 10-12.3" />
    <path fill="#173473" d="M325.8 459.4l-33 30.8 16-27.3-6 3" />
    <path fill="#74d9f7" d="M104.5 685.5l20 15 20-3 17-.8" />
    <path fill="#fff" d="M758.6 255.5l69.8-16.6 12.8 77-69.5 3" />
    <path fill="#c1ab95" d="M901 593.8l-33.3 36.6L918 635l-57.6-31" />
    <path fill="#8d8964" d="M756.3 242.6l38.2-15 61 10-44.3-3.2" />
    <path fill="#466e77" d="M176.6 189.7l15.8-1-3.3 123.7-3-103" />
    <path fill="#fff" d="M458.4 452l26 24.8L412.8 179 667 163" />
    <path fill="#9e9e9e" d="M288.8 330.7l14.7 10.3-43.5 9 14.5-18" />
    <path fill="#b1b5b2" d="M21.3 77.3l49.7-24 6.4 20.2-48-.6" />
    <path fill="#fff" d="M371.3 505.2l5.2 101.7 2.5 71-42-113m-191-88l23.7 8-64-68.8 52-192m408 74l76.7-50.2 3.6 26-55.4 1" />
    <path fill="#9a5656" d="M95 731.7l3.5 24 14-24.6 30.5 36" />
    <path fill="#1f201f" d="M334 231.7l-1.8 78.8 2.6-29.5v-31.5" />
    <path fill="#310000" d="M427 488.2l-11.3 15.5 5.8-37-18.6 8" />
    <path fill="#777b77" d="M184.2 139.4l-4.8 5.8-23.5 3 7-9.3" />
    <path fill="#73b793" d="M852.5 283.2L826.3 228l47 29-25-38.5" />
    <path fill="#85acc7" d="M789.8 559.2l24.6-11.6L712 531.2l67 21.8" />
    <path fill="#b6b6b6" d="M863.2 348.3L860 363l-50-14.6 50.4-1" />
    <path fill="#eceeef" d="M131.8 770l23.6-34.6-71 61 21.8-60" />
    <path fill="#964f2c" d="M699.4 515.5l14-35.6 1 27-37.6 39" />
    <path fill="#71add4" d="M749.8 399l22.8 14 9.3 1.8 37-18.4" />
    <path fill="#679c6e" d="M747.6 635l36-37.7-31 19-34.2-23.7" />
    <path fill="#fff" d="M586.2 556.5l100.6-145.2-113-9-40.5 64.7m.4 193.8L624 662l-185.3 46 4-41.3" />
    <path fill="#fff" d="M449 501.5l-33-1 137.6 204.8-134-77.7" />
    <path fill="#83ae95" d="M877.5 670.3l-88.5-8.6 28-30.7-1.3 24" />
    <path fill="#fff" d="M907.4 123.3l147.6 143L829.7-31l225.3 3" />
    <path fill="#b8b6b5" d="M861.8 697.2l.3-74.4 16 54.8-52 11.7" />
    <path fill="#79b0d4" d="M587.3 656.7l-14.5 4-41.8-3.3 33.5-19.4" />
    <path fill="#8e938f" d="M69.2 216l10 12.8-43.4 3.6 26-8.8" />
    <path fill="#7fb4d4" d="M397.7 513.7l-4.4 92.8-5.4-97.3-41-39.5" />
    <path fill="#582636" d="M152.3 686.6l-44.4-12 45 36.7-33-3.3" />
    <path fill="#a9cee2" d="M996.5 126l-13.2-47.8-60.8-1.7 14.3 1.4" />
    <path fill="#fff" d="M222 505l131 17-13.5 21.3-121.2 93.2" />
    <path fill="#32ade2" d="M385.2 535.2l-9.3-7.4 23-3.4 37 4.4" />
    <path fill="#fff" d="M542.5 95.2L817 67.6l-307 24L542.8 271" />
    <path fill="#2e657e" d="M225 467l1 35.7-8.6-6.2-12.5-41" />
    <path fill="#fff" d="M787.7 531L708 610l108.3 74.3L638.6 654" />
    <path fill="#9ba09d" d="M134.4 308l-4.7-131 4.3 121 185 7.3" />
    <path fill="#fff" d="M262.7-31L387 215l-1-144-208.6 117.6" />
    <path fill="#338db9" d="M377.7 553l48.4-4.8-35 46.5 39-19" />
    <path fill="#fff" d="M911.4 133l-29-38 172.6 71.6-122 1.6" />
    <path fill="#3e6f7a" d="M167.3 285.7l6.6-89.3-10-6.4 7 119.4" />
    <path fill="#fff" d="M43 232.6l72.5 23-96-2.2 23.7-46.6m663 5.2L755 320l-107-48-3 73" />
    <path fill="#8de5ef" d="M462.7 605.4l-77-8.3-6.4 143-3.3-133" />
    <path fill="#491964" d="M476.2 475.7l-20.5-7.4-4.7-9.4 25.4 12" />
    <path fill="#00367c" d="M367.6 654.2l-.4 15-10.8-23 5.7 2" />
    <path fill="#fff" d="M689.6 574.6L552 450.6l153.7 15-53 119.2M391.4 456.3l54-135.3-146 113.2 98.5-38.4" />
    <path fill="#b4e2f1" d="M408.3 509.5l3 36.7 4-39.8-154 28" />
    <path fill="#532237" d="M443.3 662.2l-9.4 48.2-1-47 17-10" />
    <path fill="#fff" d="M47.5 241.4l-78.5 198L148 424 29.2 263" />
    <path fill="#f9fbf9" d="M216 486.4l-.5 13-136.7-91.7 73.5 39.3" />
    <path fill="#fff" d="M1055 458.2L1043.2 799H912l16-256.6m-168.7-1L847 540l-142-15.4 122.5-125.2m-373 131.8l59 32-98.5 107 11.3 24" />
    <path fill="#a1a1a1" d="M705.3 154.5L704 160l.6 7-183.8-11" />
    <path fill="#c4c4c4" d="M706 588.2l-14.4 23.4-32-20.2-21 5" />
    <path fill="#fff" d="M31.4 32l-2 113.7L195 66.2 63.5 115.6" />
    <path fill="#2aa3e2" d="M253 707.6l-3 7.7-14.3 16.7 30.7.2" />
    <path fill="#fffff8" d="M870 175.3l31 7-45.2 27.5 63.8-67" />
    <path fill="#914a7c" d="M164 466.8l-31-14.2 79.2 51.2-5.5-9" />
    <path fill="#5fa0ca" d="M813.8 721.7l-3 2-12.3-22.2 19.2 12.2" />
    <path fill="#86706f" d="M341 219l2.6-34.6 14.7 124.3-4.4-78.5" />
    <path fill="#fcffff" d="M768.4 396.5l149-5.7L785 335.5l-94.4 100" />
    <path fill="#e7fff7" d="M734.2 596l13-4 39.7 41-3 16.7" />
    <path fill="#882319" d="M450.5 730L420 681l-35.3 4 52.8 14.7" />
    <path fill="#888" d="M222.6 388.3l29-29-9.4 33.8-8.3 6" />
    <path fill="#8a8c8d" d="M608.6 275l1.8 6.5 8.2 5 26.6-9" />
    <path fill="#698d62" d="M907 198.8l1.8 10-32.6-68.2-27.7-20.4" />
    <path fill="#fff" d="M491.3 488.4l92.4 77.8 82 5-138.3 16.6" />
    <path fill="#3480c7" d="M462 747.8l8.5 29.2-16-53.2-14 20.2" />
    <path fill="#fff" d="M158.2 414.5L268.5 312l-80 150 25.4 11" />
    <path fill="#95a191" d="M679.8 436.6L775.2 325l45.3 18.5-26-16.3" />
    <path fill="#aba8a6" d="M930.4 223.3l-6.6 53 48.5-104-25.8 100.3" />
    <path fill="#283043" d="M99.6 456.8l52 51-46.6-11.4-4.6-25.5" />
    <path fill="#7e817e" d="M37.5 44.4L16.7 48 10 71.4l7-4.4" />
    <path fill="#9b8d73" d="M646.3 710.5l-7-42-5.3 47 21.6-7.7" />
    <path fill="#5a365f" d="M46 525.2l32-28 2.4-13.8-30.8 53" />
    <path fill="#959595" d="M341.6 325.5L348 337l-45.7 47.7L326 343" />
    <path fill="#9b6e39" d="M877 620.2l2 17.5 21-17.5 3 17.6" />
    <path fill="#1bb5f4" d="M126.2 654.6L120 642l36.5 9.7-15.3 1.8" />
    <path fill="#656565" d="M104 343l19.5-10-7.3-11.8-4.2 32.5" />
    <path fill="#9ec7df" d="M1032 452.4L963.7 491l48.5 1.3-32.7-43.7" />
    <path fill="#8b8e90" d="M632.3 328.2l13.6 14v-5.8l-45 .6" />
    <path fill="#749d80" d="M755 588.5l39 39.5 84.6 15.2-127-45.4" />
    <path fill="#fff" d="M357 307l24.5-11 6.3-107.6-30.4-6.8" />
    <path fill="#81836c" d="M219.3 264l23.6-14-16 19.5-3 20" />
    <path fill="#fff" d="M303 213.7l-76.3 9.5-37.2-138.6 3 195" />
    <path fill="#baf0f5" d="M146.6 749l-1-60.6-6.6 6 26.4 30.7" />
    <path fill="#a0c9dd" d="M810.5 380.2l-7.8 13.4-39-14 7.5-10.4" />
    <path fill="#9d8a6b" d="M614.6 712l5.2-7-78-2-1.4 4" />
    <path fill="#a1cae1" d="M545.5 326.3l29-2.5-4.5 18-22.6 1.5" />
    <path fill="#fcffff" d="M226 584.7l-71 77 55.7-134.2-38-32" />
    <path fill="#43303b" d="M158 730l5 29.4 7.3-36 .7-17.8" />
    <path fill="#fff759" d="M229 249l-5.5 48.8 24.4 5-10-17.8" />
    <path fill="#6c312e" d="M425 537.4l-42.5 2.6 45.4 13.3-13 46" />
    <path fill="#72643e" d="M915.8 160.7l-45-71.5 61.8 84-3.4 2.8" />
    <path d="M111.8 104.6l4.2 138 6.5-20.7 14.8-116" />
    <path fill="#fff" d="M36 693.5L100 799l-5-71-98.7 71m328.2-492l-213-1L243 332l-18 21.2" />
    <path fill="#fff" d="M335.5 338.7l-1.7-27L320.6 205l-32.2 152.7" />
    <path fill="#51dcf8" d="M484.2 517l5.3 1.2 5.8-21.7-8.6-35.6" />
    <path fill="#b23d01" d="M635 244.4h-22.3l5.7-13.3 22.3 12" />
    <path fill="#effcfc" d="M104.7 445.3l72.2-60.8L50 516l20.5-39.2" />
    <path fill="#f7ffff" d="M344.4 440l-79.7 48.3 63.6 50.6-68.5-36" />
    <path fill="#7a2605" d="M375.4 753l-21-33.7 27.4 27.7 49.8-7" />
    <path fill="#b47a40" d="M845.3 307l-9.8 25.8 25-30.7v-29" />
    <path fill="#fff" d="M557 192.4l20.5-57.7-169 298.4 10.2-296" />
    <path fill="#ae1b2a" d="M41 480l-7 22.4L49.4 478 61 459" />
    <path fill="#63a9e8" d="M341.4 526.2l-15.2 5.3 22.8-18.8 22-21.5" />
    <path fill="#188bb6" d="M367 600l31 2.4 23.6-2 4 9.8" />
    <path fill="#797979" d="M237.3 333.5l-9.8-3V324l-16.8 38.6" />
    <path fill="#888a86" d="M603.6 349l37 2 13 6-44-.8" />
    <path fill="#421e0d" d="M388.6 704.5l29.4.3-28.4 35.8 27-12.5" />
    <path fill="#8ae4f1" d="M116 703.8l21.7 22L106 712l5.6-57.8" />
    <path fill="#fff" d="M876.2 622.7l-11 56 37.2-27.2L695 526.3m-82.7-185.8l-171.5 114 68 53-99.6-53m-320-184l-46 5.8-1.6-200.5L26.8 332m864 231L887 433l-179-.2 21.8 50.5M96.4 285l15.3 25.6-1-63.6.3-79.5" />
    <path fill="#fff" d="M87.5 189.4l-17.2 2.4L20.6 213l75.8 2M728-31l107 143.7 41-68-152.6 17" />
    <path fill="#5c5e5a" d="M13.4 285.6v-12.8l8-4.5 9.3 20.6" />
    <path fill="#480a02" d="M453.5 749l51-35.5-5.4-11-42 24.5" />
    <path fill="#aaa5a6" d="M362.6 301.7l-14.8-5.2 45.6 12.5-128.2-5.2" />
    <path fill="#fff" d="M850.8 122l.5-23.7 1.7 57-271-41m-532.8 344l283.4-27 8 11.3-29.6-56.2" />
    <path fill="#fcffff" d="M579.7 607.3l-126-123 94.6 161 67-17" />
    <path fill="#a1cbe2" d="M762.6 569.8l16.7-41.4 39.5-1.5-44.8-13" />
    <path fill="#fff" d="M892 197.8l22.7-33-99 61.7 34.6-.5" />
    <path fill="#929292" d="M149.5 350.2l15-17.8 6.8 19.8-15.5 10.7" />
    <path fill="#fffff9" d="M825.8 8.7l9.6 61-19.5-76L761 59" />
    <path fill="#5e150b" d="M233.5 722.2l9.7-8-15.2-7.5-45 24.3" />
    <path fill="#fff" d="M677 589l-35.4-35 2.2 17.5-1.8 135m-274.2-86l15.6 47.3-141-152.7L402 628M183 192l41-6.4-83.7 1.2-5-82" />
    <path fill="#3e70a5" d="M110.7 623.5l54.6-28-52 1.2 49 34.5" />
    <path fill="#fff" d="M698 516.8l7.5-64.8-42.7-48.3L530 484M351 37.4l255.8 54-14.3 40.6 95.7-145" />
    <path fill="#000725" d="M418.5 459l-32.2.7 37.7 5-21.2 21.5" />
    <path fill="#fff" d="M625.3 236.3l187.8-36-110-34.7-243 1m473 342l23-232 100 136-99 43.4" />
    <path fill="#f61c3a" d="M170 709.6l-5.4-27.7-9.6 20 5.4 15" />
    <path fill="#2a5a86" d="M45.6 486.4L50 485l15.7-16.7-5 50" />
    <path fill="#fff9fc" d="M710 317.7l38.7 69.8-67.5-46 81.4 30.8" />
    <path fill="#a3a7a2" d="M36.2 234.2l1.5-5.6 21.8-4.3-11.8-13" />
    <path fill="#fff" d="M422.8 795.4L491 723h10l7.3 35" />
    <path fill="#898988" d="M32.3 443l-4.7-12.3 67 15-43 1.3" />
    <path fill="#969a94" d="M44.5 256.5L50 255l15.7 16.5-27-1.6" />
    <path fill="#885a21" d="M711 512.5l-5.3-79.8-20.7-12 28.5 34.7" />
    <path fill="#feffff" d="M317.4 662L153 505l6 123-14.5 21.7" />
    <path fill="#fff" d="M585.2 726.7l-3.4-61.4 22.4 60.2-3-182.7" />
    <path fill="#0368a6" d="M481 459l17.7.5L485 468l12 10" />
    <path fill="#fff" d="M924.2 303.6L908 596.3l-161.5-184 76.4.6" />
    <path fill="#1e95d5" d="M398.4 481.2l32 2-36.8 8.8-.6-13.3" />
    <path fill="#a09e9b" d="M912.4 670.3l-8.5 20.4-54-31 33 32" />
    <path fill="#a18157" d="M874 31.4l10.3 32.8-8.7 33.2 18.8-27" />
    <path fill="#615b5b" d="M357.6 247l-1 59-1.4-2.6-1-78.2" />
    <path fill="#909090" d="M918 542.8l-1.5-79.5-5.3 106.8L923 673" />
    <path fill="#fff" d="M857.6 115.4l142-80.4L948-2l-82.2 126.7" />
    <path fill="#5af5ec" d="M397 722.5l-9.2-12-8.4 7.4 44.4-1" />
    <path fill="#586969" d="M399.7 89.3l-1.5-46 4.4 25-6.4 20.6" />
    <path fill="#3f5a9e" d="M32.5 653l-2 38.5L13 722.7l-1.7-34.4" />
    <path fill="#889b8c" d="M661.2 419.4l100-123.4-14.2-1 21.7 8.8" />
    <path fill="#fff" d="M-31 587.2l97.6-21.4L23 512.4l42.3-84" />
    <path fill="#62635c" d="M242.4 260.3l2.6-2.3 2.3 13-1.8 32.3" />
    <path fill="#b5b0b1" d="M733 545.7l34.5-12.7-31.5.4-66.6 76" />
    <path fill="#fff" d="M899 622.7l-48 1.4-53.3-9-98.2-88" />
    <path fill="#5da282" d="M847.8 227.5l-18.6 25.3 62-34.3 3-15.4" />
    <path fill="#997343" d="M601.2 556.2l-13.3 12v-10.4l-29-12.5" />
    <path fill="#7a7a7a" d="M293.6 397l-2-24 6.3-3-17 10.3" />
    <path fill="#8f8c8a" d="M298.6 445.5L285 432.3l67 13.7-17.7 2.3" />
    <path fill="#989797" d="M542.4 128l47.6 4.4-14.7 9.8-33-1" />
    <path fill="#3c2f39" d="M106.4 729.6l34.5 27 5-3.4-30 1.2" />
    <path fill="#353535" d="M115 147l10.2-40.7-5.7-33 9.5-1.6" />
    <path fill="#354466" d="M129.6 530.3l-6.5-19 10 143.3 3-166.5" />
    <path fill="#2389a5" d="M113 460.5l30.4-4.3L117 468l-18.4 2" />
    <path fill="#7c5618" d="M761 305l-16.3-37.3 11.3 11-7 20.6" />
    <path fill="#fff" d="M1.7 60.2L92.3-31-31 13l50.6 267.2" />
    <path fill="#dfd3bc" d="M438.2 122l14.6-4.3-14.2-56.4 50 49.3" />
    <path fill="#fff" d="M123.6 103.6L134.4-18 220-31 367 81.2m488 213.3l-98.2 9 15.8-59 45-12M631 113.5L614.6 159l28.2-31.2-216-8.7" />
    <path fill="#a79e93" d="M712.3 541l-19-20.6 8.3 18.7-16.8 32" />
    <path fill="#69a273" d="M741 601.6l24.8 49.8 8.3-17.2-51-18.4" />
    <path fill="#63a281" d="M849 271.4l61.5-43.8-9-30.8 22.3 36.4" />
    <path fill="#fff" d="M837 698l-97.7 8.6L870 674.3l-106-18.6" />
    <path fill="#777e7b" d="M62.4 93.2L70 113v-5.6l.3-13.3" />
    <path fill="#a2a4a6" d="M627.6 97.2l87 12-108.2-1 8-15.7" />
    <path fill="#fff" d="M167.5 364.2l-67-12.7 216.3 195.8-146-215.8M42.5 449.7L23.2 487 1.8 799-31 403.8" />
    <path fill="#75ddfb" d="M159 733l-45.6 1.3-1.4-14 10.3 22" />
    <path fill="#fff" d="M245.2 192.4l31.5 38.2v67.7l-28 3m548-215.5l32.3 20.6 34.4-2L804.7 39M669.2 682.6l-152.8-20.8 13.4 90.5 7.8-65m-281-309.7l-10.5-21 9 66 63-20.2" />
    <path fill="#4c62a9" d="M415.3 471.6l-17-11.4L323 509l58.4-44" />
    <path fill="#fcfffe" d="M357 722.8l2.2 28.2-83-34.5 24 82.5" />
    <path fill="#49b5e1" d="M397 586l-22.3-10.4 19.6-2 40.7 6.6" />
    <path fill="#fff" d="M925 438.3l6.2-149.4 9.2-87-2.6 111m87 228l22.6 247-136.6 4 24.5-327" />
    <path fill="#513b57" d="M225.5 486.4l-9.3-23.8 7.8 36-35.5-37.7" />
    <path fill="#4b5b93" d="M92.8 651l11 23.5 2.2-19-5.4-2" />
    <path fill="#6a5c5c" d="M414 172.4l-7-38.3 2.2 80 .7 33" />
    <path fill="#3fa2b9" d="M398.3 623l-17 5.7L418 634l13-4.3" />
    <path fill="#fff" d="M333 359.4l20-23.8-27.6-27.6 126.7-2" />
    <path fill="#b5b5b5" d="M789.6 200l25.7 19.5L835 206l-27.8-2.2" />
    <path fill="#af0d03" d="M444.7 717l-3-10-6.6-43.5-8 52.2" />
    <path fill="#6c1516" d="M416.7 512.3l8 56.7-11.4 10 12.8-37.5" />
    <path fill="#736160" d="M415 85.3l-4.5 57.7-3-45.6-17.7-14" />
    <path fill="#fff" d="M891.4 214l68.5-4-46-37.2-9 58.4" />
    <path fill="#873442" d="M29 419l11.3 89 44.4-52.6-42 56.4" />
    <path fill="#fff" d="M416 0l-3.6 188 42.4 7.7-19-226.7m-76.2 462.8v32L162 627.4l232.4-174.8" />
    <path fill="#fffffe" d="M423.7 743.2l-16.4 19.6 258-15.4L422.6 799" />
    <path fill="#bdbfbf" d="M683.4 343.4l39.6-13-95.5-13.6 68-7.3" />
    <path fill="#747772" d="M308.6 19.6l-4-7.7L292 26l-7-9" />
    <path fill="#fffeff" d="M437.6 468.3l-18 13.5 104 64.8 23.2 63.3" />
    <path fill="#fff" d="M118.3 674.2l-10.7-.3-23-130 17.5-16" />
    <path fill="#a2a2a2" d="M317.4 399.8l28.5-21 67-63.6-86 94" />
    <path fill="#fff" d="M998.6 211.8l15.3 265.6-53-8.2 94-12.3" />
    <path fill="#9a96ac" d="M142 663.6l-.8-51.5-4.5-60-2.2 134" />
    <path fill="#666768" d="M939 337.8l8.6-57.6 3.8 30-9.2 67" />
    <path fill="#6e4558" d="M114 638l8.6 36.6-4.4 8 5.5-27.8" />
    <path fill="#fff" d="M784.4 644.8l-6-18.6L714 783.8l-30.8-126.3M588.5 714l-54.7 1.7-1.7-29-11 85.3" />
    <path fill="#85b7d6" d="M544 617.2l-3 25 5.5-11.8 16.5-9" />
    <path fill="#134fbd" d="M277.3 690.2l16.3-9.2-8.3 25.5-17.4 22" />
    <path fill="#dfe9ec" d="M150.3 481.8l-9.4 38.5-6-16 35-5" />
    <path fill="#641607" d="M334.7 716.2l.2 12.6-50-31.2 12-9.4" />
    <path fill="#9b9da0" d="M641 687l-7.4-61.2.8-66.2 8 10.7" />
    <path fill="#fff" d="M817 326.8l19.8 266.5 1 77 40.7-198.7m-195.7 115l-83.5-.6 129 26.8-103.8-.6M357.2 630L376 510.8l-129 141 116.3 39" />
    <path fill="#7f827f" d="M72 14.8l-4.5 17-4.7-9.4 2-8.3" />
    <path fill="#108fdb" d="M462.8 742.8l-14-9.7-.3 17h12" />
    <path fill="#fff" d="M305.3 27.3L441-31 329.7 22.2l7.7-53.2m495.2 357l-9.6 24.4 104-125.6-8 172M138 173l26 30.4 2.5 131.7-30-70" />
    <path fill="#3c1519" d="M99.7 477l46 6.2v53l-6-65.8" />
    <path fill="#b97534" d="M821 116l-32.4-23.6 33.6 14.4 22.5 20.8" />
    <path fill="#fff" d="M718.4 388l-94.2-98 230.3 212.4-59.6-38.8" />
    <path fill="#fffffd" d="M439.7 735.2l183-262.5-157 251 59.3-51.4" />
    <path fill="#acacae" d="M644 365.3l-19.2-3-5.8 12.3 30 2.6" />
    <path fill="#fff" d="M519.5 444.7L408.8 458l-41.4 1-32-20" />
    <path fill="#8b8f8a" d="M224 216.5l8.7 5.3 20.7-2.2-18-6.5" />
    <path fill="#492f26" d="M427 684.3l-44.4 17 15.2 18.3-11.5-39.2" />
    <path fill="#7f9856" d="M273.7 299.4l34 5.7-35-29 35.5 2" />
    <path fill="#abcdc8" d="M397.5 704.6l44-17-60.7 11.8 7-11" />
    <path fill="#fff" d="M50.3-6l13-6.4L60 333 52.6 76" />
    <path fill="#2564a3" d="M216 532.4l-2.7-1.8-18.8-18.6 16 9.3" />
    <path fill="#354a80" d="M197.5 495.3l-2.5-2 6.2-2 23.4 22.3" />
    <path fill="#6d76c1" d="M367.6 445.8l-60.8 60.7 7.2 5.5-12.4-8.7" />
    <path fill="#fff" d="M620 219.6l13.4 7.8L614 275l29.3 2.2" />
    <path fill="#6a6b6b" d="M297.7 427.6L287 444.2l-.4-14.8 17 12" />
    <path fill="#78b58b" d="M709.8 411.6l2.4-4.3-33.6-29.7-6 11.6" />
    <path fill="#676865" d="M29 135.7l-5.2 26L14 168l-1-30.3" />
    <path fill="#fff" d="M700 143l38 135.5 53-193.7-100-34.4" />
    <path fill="#49b8d7" d="M187.8 204.7L174.6 300l-2-35.3-3.6-75.3" />
    <path fill="#bf823b" d="M796.7 32.8l68.3-12L885.2 41 835 14.8" />
    <path fill="#f7f9f9" d="M199 511.3l89 49.6-129-92-18.4-4" />
    <path fill="#fff" d="M693.5 587.8l39.7-37.4-55.5 79 57-10" />
    <path fill="#abd4ea" d="M767.8 147l37.7-1.4 9 10.8 8 35.7" />
    <path fill="#fff" d="M617.7 363.7l40.7 2 5.4 33 55.7-60" />
    <path fill="#c71424" d="M25.7 685.2L45 703l35.6 21-34.8-37" />
    <path fill="#fffdf2" d="M891.7 8.5L853.3 47l15-52.2-67 137.6" />
    <path fill="#ef9996" d="M355 222.6l-18.6 4.4-1.2 57 7.8 21" />
    <path fill="#a27948" d="M531.5 486.7l9.8 42.6 70.7 38.5-40.6-13.6" />
    <path fill="#5b9cbe" d="M59.6 538l7-2.7L54 553.8l-9.5-38.5" />
    <path fill="#a1a4a1" d="M353 16l34.4-.6 7.4 19.8-82-7.5" />
    <path fill="#656565" d="M930 534.3l-3 29.2-15.2 15.3 3.5-26.3" />
    <path fill="#071920" d="M169.2 257.6l-.5 39.6-1.7-37.4 1.5-47.8" />
    <path fill="#7cafd3" d="M583 356l9.8 11.6-49 1.6 3.4-17.7" />
    <path fill="#fff" d="M822 667.6L866 374l-91.6-39.4 48.3 67.5" />
    <path fill="#161716" d="M455 522.2l-8 10 12.5-3.4 30 21" />
    <path fill="#fbfffd" d="M490.5 474.2l29.3 5.7 37 72-133.5-136" />
    <path fill="#626676" d="M220 263l19.3-6.6-13.3-3 20.2 12.7" />
  </g>
</svg>