<svg version="1.1" viewBox="0 0 1024 768" width="1024" height="768" xmlns="http://www.w3.org/2000/svg">
  <path fill="#e6e6e6" d="M0 0h1024v768H0z" />
  <g fill-opacity=".5">
    <path fill="#00000a" d="M385 729.6l36 37 3.3-310-43.5.8" />
    <path fill="#333755" d="M92.8 742.3l33-337.8L180.4 689l366 46.8" />
    <path d="M138.6 91.6L113 98.8l-5.7 204.6 27 7.5" />
    <path fill="#6c534a" d="M506 695.3L354 795l5.8-151.6 178.6 129.4" />
    <path fill="#352f4a" d="M164.3 456l-22 241L99 489.5 20.5 461" />
    <path fill="#555" d="M917 445.7l-13.4 258.8 25-145.7 27.6-318.3" />
    <path d="M111 291.2l26.2 17.5-3-196.5-22-15.8" />
    <path fill="#963a36" d="M413 80.8l-1.3 204.4-23 37L385 99.7" />
    <path fill="#530f44" d="M159 766.2l-153-66 16.6-38L79 713" />
    <path fill="#fff" d="M184.7 731.4l209.7-137-237.6-141.2-6.7 189.5" />
    <path fill="#005c7f" d="M195 300l-29.7 8.4 2.6-120 21-3.8" />
    <path fill="#fff" d="M448.6 761.7L337 745l-55.7-51-11.8 105" />
    <path fill="#040828" d="M400 756.8L324.6 708 279 674.7l-19 17.5" />
    <path fill="#505450" d="M14.7 304l16.5-58.6-3.8-150.2L18.8 11" />
    <path fill="#71af7e" d="M825.3 256.7L936 237.4l-115-146 114 55" />
    <path fill="#81ad88" d="M747.2 571.4l112.4 94.8-84.3-5L674.6 552" />
    <path fill="#503d55" d="M172 512.5l-65.3-57-52 75-27.4-67" />
    <path fill="#fff" d="M876.7 2.6L-31-31 48.3 82.2 290.5 155" />
    <path fill="#9e4900" d="M711.2 545.7l9-93-2.6 3.8-21.2-49.4" />
    <path fill="#5f151b" d="M452 747.5l-15-87-23.6 62.3 115.2-18" />
    <path fill="#17163d" d="M249.4 758.3l-23.2-30L67 766.7l187.4-65" />
    <path fill="#fff" d="M-31 278.3l8.7 178.6 328.3 2-131-147M-22 664l140.3 4-1.7-88L-31 472" />
    <path fill="#a3524f" d="M360 211l-1 91.2-23 2.8-4.8-91.5" />
    <path fill="#db4400" d="M512.5 95.8l-.7 20.3-51.5 2L492 90" />
    <path fill="#6b6788" d="M228 529.2l-1.7-8.8-71.8-53.2L222 458" />
    <path fill="#bc6202" d="M778.7 85l21.6-71-2 62 34 56.3" />
    <path fill="#910015" d="M8.3 736.2L6.8 688l17 28.5-16 45.5" />
    <path fill="#a55400" d="M880 27l10.8 48.2-40-64.4L794 32.2" />
    <path fill="#fff" d="M445.8 627.8L809.8-31l-138 536.4L441.4 746m193-559.8l-178.5-82-72 294.2 124 72" />
    <path fill="#9e6924" d="M539.5 421.5l5.3 117.4 89 46L528 507" />
    <path fill="#9bbba9" d="M807.8 309.6l-141.4 77.7-134.6-46 165.5 89.4" />
    <path fill="#738a54" d="M865.5 98.4l22.7-46-.7 43.6 58 106.6" />
    <path fill="#adb336" d="M214.7 312.8l14-57.3 76 59.7-3.3-47" />
    <path fill="#a37b62" d="M594.8 251.7l65.2-6-23.4 141 3.3-157.3" />
    <path fill="#fff" d="M144 674.8L312 282l-46.6 452.5-48.4-93" />
    <path fill="#54160d" d="M380 673l-17.4 83.5L349 716l19-57.6" />
    <path fill="#898d4e" d="M775 341.8l68.6-8.6L738.2 314l18-61.8" />
    <path fill="#fff" d="M777 799l-58-298.4L636.4 687 443.7 799" />
    <path fill="#728a9d" d="M449.2 424L345 441.7 293.4 495l-6-63" />
    <path fill="#738c4f" d="M850.7 315.6L821.5 343 902 223.3l-53 37.5" />
    <path fill="#3a1920" d="M377.8 753.5l147.7-55-60.3 46-46.3 8.8" />
    <path fill="#fff" d="M982.5-3l-54 549.4 89 252.6L1055-2" />
    <path fill="#fff" d="M350.8 774l150.5-47.8 24 72.8L1055 696" />
    <path fill="#afaab5" d="M30 425l84.6 6.8L57.4 591l-10.2-18.3" />
    <path d="M112 283l22 3.7 1.5-136.2-12-80" />
    <path fill="#8c0e2d" d="M31.8 660.7l49 65.8-10 15-48-69.4" />
    <path fill="#062b59" d="M424 584.3l-46-113 28.4-17L425 501" />
    <path fill="#007fd4" d="M526.8 701.7l-28-14.6 10.7 65 12.7 8" />
    <path fill="#716f6d" d="M936.7 407l21.8-149.8 2-81.5L935.7 296" />
    <path fill="#fff" d="M925.2 297.3L743 368l-27.8 134L905 615.6" />
    <path fill="#494a49" d="M359 535l-49 43.5.8 1.6 37.4-53" />
    <path fill="#010202" d="M479.2 544l10.3-.6-22.8-13.5-32.7-14" />
    <path fill="#f8f8e4" d="M429.6 724.7L555 668.3l-147.3 73.4 14-81" />
    <path fill="#edffff" d="M135.7 755.6l20-118.4 3.7 160.4-190.4-45" />
    <path fill="#fff" d="M1024.3 799l30.7-265.3-255 185L520.3 742M362 456.4l-232-67.7L34 538l67-78m112.7-66L401.5 62.7 38.7-31 281 328.2" />
    <path fill="#a09f9f" d="M513.8 170l197.8-8.4-208-33.2 194.3 4.2" />
    <path fill="#fff" d="M70.7 738L242 799H-3.4l37.2-107.8" />
    <path fill="#343f5a" d="M168.3 654L120 762.4l-5.3-83.2h57" />
    <path fill="#fff" d="M1055 6v254L917 146 863-31" />
    <path fill="#51a6cd" d="M487.3 522L450 453.8l-6.5 7.3 50.6-4" />
    <path fill="#fff" d="M161 646.3l-13.2-174.7 122.8 207-85.3 44.5" />
    <path fill="#ae864f" d="M524.2 509.3l11.4-83.6 56.5-43-51 60.3" />
    <path fill="#fff" d="M255.8-31L505 60.2l280.2 77.6L781.6-22" />
    <path fill="#9e9792" d="M692.7 106.6l3-9.7-267-5 223 18" />
    <path fill="#a77472" d="M413.3 93.5l-1.4 175-28-154.8L397 47" />
    <path fill="#9ca09c" d="M348.7 29.3l37.8 10.4 5.6-24-153 .3" />
    <path fill="#b35718" d="M715 500.7L696.4 538l13.8-106 11 50.2" />
    <path fill="#170f19" d="M115.7 503.8l5.4 77-19-126.5 45 12.7" />
    <path fill="#0c2f69" d="M250.3 690.4l4 66-18.5-3-8-54.4" />
    <path fill="#281f30" d="M152.3 515.6l-17.8-55.4 11.8 216.2 10-85.8" />
    <path fill="#fff" d="M112.3 306l-40-4.8-1-238.8 39 7.8" />
    <path fill="#7b7b7a" d="M898.2 679l25.2-149 .2 79-5.5 67.6" />
    <path fill="#66a4cb" d="M955.2 120l45.5-.6L975 99.7l-65.8 5.2" />
    <path fill="#0182dc" d="M295 670l-17.7 57.4-4.4 70-5-119" />
    <path fill="#838383" d="M228 379.3l.7 22.6 28.4-27 43-56" />
    <path fill="#af722a" d="M741 288.8l51.7-62.8-27.7 16-7 .4" />
    <path fill="#fff" d="M-24.4 755.8l426.7 27-121-81 1.7 53.6" />
    <path fill="#a9271c" d="M422 682.4l5.4 91 15.4-114-3.8-.5" />
    <path fill="#fff" d="M799 166.2L414.6 320l-3.2-156.6 207 2.2" />
    <path fill="#a4a298" d="M641 711.6l-154.8 2L614.4 702l29-159.2" />
    <path fill="#9f9b97" d="M653 387.2l-47.3 8.8 3.4-158 13 148" />
    <path fill="#a86423" d="M929.3 161.6L963 186l-29.2-9-38 20.4" />
    <path fill="#898989" d="M285.5 378.5l53-44 15.5.4-67 61" />
    <path fill="#93bbd4" d="M822.6 413.7l-54.2-46.2-23 70.5-35.5-17.4" />
    <path fill="#fff" d="M232 622.6L349 729l30.6-145-213.4-32.2M-31 580.4L84.2 726.7 108.8 530l8.6 115m812-387.4l-7 51L826 730l36.4-463" />
    <path fill="#879273" d="M676.5 557.4l104.7 107.2-11-26.8-102-102" />
    <path fill="#c2721e" d="M781.3 83.5L786 49l16.4-18.8 28.5-24" />
    <path fill="#be2f02" d="M643.2 231l11.8 26.5-40-18.7-1.3-3.4" />
    <path fill="#fff" d="M135.8 132.4l195.5 174L225-24.6l-89 343" />
    <path fill="#8e9a77" d="M773.2 616.4l24.5 16.5 70.6 7 55.5-12" />
    <path fill="#9e859f" d="M214.2 516.2L156 481.7l66.5 68.6-13.6 15" />
    <path fill="#606060" d="M169.8 328l14.6 5.7L159 362l-7.8-7.7" />
    <path fill="#fff" d="M624.8 570l-10.5-220.5 95 119-4 23.8" />
    <path fill="#909090" d="M402.4 345.4l2-21.2-77.7 68.3-1.4 14.3" />
    <path fill="#6a5f7c" d="M75.2 463.2L37 458.8l-1 49 12 30" />
    <path fill="#fff" d="M330.3 430l303-52-522-72.8 313-.3" />
    <path fill="#82a291" d="M670.3 397l111.2-119-27.5 46-91 90" />
    <path fill="#41315b" d="M158.6 703l13 50.8-86-7.4L212 736" />
    <path fill="#bcffd9" d="M390 686.2l-6.5 53.3-12.2 3.5-4.8-34.6" />
    <path fill="#7cb5d7" d="M953.4 454.6l14-2.3L1019 486l-51.6 7" />
    <path fill="#276e84" d="M205.3 462.4l15.2-9 7 28.5-11 38" />
    <path fill="#fff" d="M427 519.6l-2 129.7 73 52.6 67.6-117M801 339l54.4-61.4-49.2-45-55.6 48" />
    <path fill="#500000" d="M299.7 687.2l-11.3 1.6-11.3 3 62 44.6" />
    <path fill="#fff" d="M383 213.7l-74.6 5.2-293-250L378 37" />
    <path fill="#feffff" d="M908 599.6L856.8 639l-86.6-52.2 171.6-267.6" />
    <path fill="#4750b6" d="M319.2 495.4l43-40.7-38.5 26L300 505" />
    <path fill="#81b9da" d="M786.4 558.4l41 7-18.3-44.8-49 32.4" />
    <path fill="#8e9461" d="M849.3 323.6l18.3-47.5-72-53 57 16" />
    <path fill="#642462" d="M106 723.4l-44-5 21.2 25 21.8-82" />
    <path fill="#919291" d="M606 574l-3.4 114.7 9.8 16 1.3-100.4" />
    <path fill="#fff" d="M806.2 42.3l22.5 76 55.8-36L854.3 29" />
    <path fill="#ac7837" d="M544 506.3l-15-42 11.7 62 48.2 44" />
    <path fill="#5d7d44" d="M288.6 268.3l18 23.8-27.6 15-5-24" />
    <path fill="#fff" d="M29.7 413L1 70.3-2.2 690 42 644M535.6 64.8l11 106.3L606 330l-242.8 89" />
    <path fill="#331a00" d="M407.8 703l-33 54.2 39.5-5.5-26.2-47.4" />
    <path fill="#f5f9fa" d="M84 462l30.7 305.4L103.5 476l-41.7 14.3" />
    <path fill="#fff" d="M377 674.7l37.4 2.2-131.6-68 96.5-93" />
    <path d="M133.8 281.4l-20.5 26-1.4-19.8 2-188.4" />
    <path fill="#fff" d="M232 726l5.8 67.5-65.5-61.2-10.6 33.5M547 748l-52-83.2-71 108 100.3-352.3" />
    <path fill="#a10022" d="M165.3 725.5l-11.3-31 14.8-40.8.8 5.8" />
    <path fill="#9b7e3e" d="M863.5 128.6l5.7-7.2-79-27.5 11.4 17" />
    <path fill="#68acd7" d="M590 640.4l-37 24-23.2-4.8-1.6-16" />
    <path fill="#777b77" d="M13 146.5L32 52l40.2 21.7-52-34.2" />
    <path fill="#fff" d="M589.5 181.2L743 342l7-83 63-68.4" />
    <path fill="#67add9" d="M805 166.7l-40.6 5.5 5.5 18.2 57-3.4" />
    <path fill="#5fa6d9" d="M581.6 348l-49.7 6 2 14 57 1" />
    <path fill="#90908f" d="M921.8 309.8L915 553.5l7.6-106.5 13.7-226" />
    <path fill="#6cafda" d="M804 721.8l9.7-17.3-64.4-2 21 18.8" />
    <path fill="#fff" d="M333 582L61.5 370.2l153 131.6 46.2-99.4m691.6-171L780.3 92l64 130.3 96.5-50" />
    <path fill="#151515" d="M446.8 516.3l42.7 31.4-11-2.6-34-22" />
    <path fill="#17438e" d="M6.7 716.4l16.5-51.2 19.4.8-4.6 25" />
    <path fill="#719070" d="M911 191.7L847 101l58.2 110-84 41.5" />
    <path fill="#fff" d="M484.2 728l22-9.6 2 61.8L411 799" />
    <path fill="#75837c" d="M799.2 634.3l-94.8-92.7-13 18.8 17.3-27.5" />
    <path fill="#848781" d="M107.5 427.4l7 5.7-62.7 16-35-11" />
    <path fill="#500d0c" d="M181 735l63.8-37.5-7.4 18.2-45 32" />
    <path fill="#020400" d="M53.5 579.3L53 569l9-5.8-1.6 19.7" />
    <path fill="#898989" d="M228.8 373.3L218.4 359l21-36-37 25.8" />
    <path fill="#fff" d="M715.4 799l62.8-136L644 567l-.4 199.7" />
    <path fill="#a8a8a8" d="M94 67.3l5-46-2.4 321.2-2.6-60.7" />
    <path fill="#3f799b" d="M387 650.2l29.6-137.8 10-6.8-47-12.2" />
    <path fill="#fff" d="M601 353l-245-57.3 9.8-281.4 24.6 315" />
    <path fill="#538d55" d="M724 394.8l-20.6 26.4-12 11.8-8.3-17.8" />
    <path fill="#151c15" d="M210.6 561.5l-4.2-3-1-10.5 18 1.7" />
    <path fill="#fff" d="M479.2 184.6l15.2 309.2-102-70.3 143.3 127.3" />
    <path fill="#380d1d" d="M508.2 693.2l-40.4 29.5-17.6 27.3 56.6-32.2" />
    <path fill="#b61a35" d="M96.3 708.2l2-58 9 12.6-3.5 57.5" />
    <path fill="#818181" d="M104.7 352.6l27.7-14.3-22.3-14 5-12" />
    <path fill="#d9cb2e" d="M241.7 309.6l5.5-45-18.6-13.3-8.8 35.5" />
    <path fill="#715f5f" d="M409 279.5l-12 35.8 18-12.5-5.6-100.2" />
    <path fill="#fff" d="M187.6 339.7L208.4 5l13.3 306.8-73.5 175.8" />
    <path fill="#626461" d="M19.6 136.5l-3 155.6-4.4 5 17-21" />
    <path fill="#1276c4" d="M288.4 458.6l-3.4-.3 33.8 3-19.6 31.7" />
    <path fill="#45425a" d="M148.8 482.2l-20-2.5-61 71.8 36.6-32.5" />
    <path fill="#999a94" d="M885.8 694l-27-40.2-.7 32 57-14" />
    <path fill="#525252" d="M920 554.5l2.5 20.7 9-60.6.4-115" />
    <path fill="#f1fffc" d="M858 256l155-94.3-245 122.7-14.5 19" />
    <path fill="#a38f71" d="M698.6 530l-64.8 31.3-.2 9 32-10" />
    <path fill="#956766" d="M333.2 329l-.2-111 26.3 26.4-15.5-45" />
    <path fill="#6b9980" d="M907.5 224.3l69-1.3-58 14.8-65.7 34.5" />
    <path fill="#3295e6" d="M63.3 734.2l46.4-29.8-7.4 28.7-4 8" />
    <path fill="#b06c21" d="M741.4 263l10.8 15.2 11-36.5-7 67.5" />
    <path d="M111.7 114.4l25.3-13.2-5 86.7-18.4 97" />
    <path fill="#fff" d="M358 699.7L192.7 640l67-225.4L364 674.3" />
    <path fill="#703f5f" d="M72.6 529l-9 9.5 6.6-15.6 61.5-67" />
    <path fill="#6496c1" d="M135.5 569.2L145.7 675l-22.2 5-.5-158.8" />
    <path fill="#00c8ff" d="M518.3 688l4.4-2.3L498 698l25.7 35" />
    <path fill="#fff" d="M643 395.4l122.2-53-63 57.4L741.4-31" />
    <path fill="#7c8dd1" d="M407 447l-66.5 46.3-46.8 48.2 66.7-57" />
    <path fill="#bebdbe" d="M622.5 310.3l-8 11.2 69.3-13.5 59 50" />
    <path fill="#310011" d="M526.7 750l-9.5-17 .3-6-12.3 28.5" />
    <path fill="#fff" d="M823.3 667l6.7-65-49 197 274-53m-847.8-25.5L164 701l125.5-318.5-57 314.5" />
    <path fill="#6d1626" d="M266.8 751.6l6.8-41 4.6 26.6-5.2 19" />
    <path fill="#69b98e" d="M725.6 325.4l25.6-19.3 11.4 48 20.4-16" />
    <path fill="#c08343" d="M940.2 167.6l23.8 13.2-5.2 15.7L917 161" />
    <path fill="#fff" d="M412.4 119l5 76L530 101.2l377.8 39.6" />
    <path fill="#532c31" d="M373 675l-48.7 63.7 56.2-50.8 63 9" />
    <path fill="#fff" d="M963.4 220.7l77-251.7 14.6 580-111.4-160.5" />
    <path fill="#572a31" d="M119.4 554.4L103 431l21 242.2 1.4-61.8" />
    <path fill="#fff" d="M693.3 541l215-44.3 4.3-101.5-149.8 26.6m-217.6 279l56.8-.6 4.3-249.3 10.5 61" />
    <path fill="#00004f" d="M454.3 459.3l13 14 24 18.7-7.6-12" />
    <path fill="#a76122" d="M809.4 339.4L843 326l14-48 1.6 18.8" />
    <path fill="#979696" d="M540 163.5l17.5 4.3-26.2-15.5 189.5 5" />
    <path fill="#f3fef5" d="M783.3-11.6l156 212 .4 40.8L830 56.8" />
    <path fill="#b92e32" d="M440.7 653.8l3 83.8-18.5 17.5 5-41" />
    <path fill="#fff" d="M86.6 754.2L27.2 691 5 799l457.5-43.8" />
    <path fill="#fff" d="M184 726.6l2.8-197.5 82.7 227-3.5-101" />
    <path fill="#12213b" d="M386.4 453.8l-6.3 50 45-6.3-8-19.2" />
    <path fill="#b2b1ab" d="M448 724l-36.7 1-6-201.3-6.8 179" />
    <path fill="#fff" d="M918.5 774l118.6 3.7 13-326.2-124 112.7M30-31L47 75l18.6 2.6-37 174.4" />
    <path fill="#8f938d" d="M40.6 152.3l3-21 27.2 5.3 1 15.3" />
    <path fill="#fff" d="M246 299.4l86-56.2 7-212L262.5 58M634 799l421-77.6-441.6-.6 19.3-142" />
    <path fill="#feffff" d="M-27 658.8L85 483.2h26L96 488" />
    <path fill="#fff" d="M134.8 309L-31 339.2l440 85.4-440 5" />
    <path fill="#fff" d="M493 458l112.6-312.6-174.3 296L161.8 457" />
    <path fill="#effffa" d="M933.2 682l-151.6-39.7-49-76.6 16.6 48.6" />
    <path fill="#96ddb3" d="M493.4 134.5l19.8 15.4-45 7-13.4-16" />
    <path fill="#fff" d="M623.3 153.4l81.3-7.5-63.2-6-138.6 4m-369-15l7-103L168 78l-6.4 262" />
    <path fill="#d40907" d="M74.3 719.7L64 728.5l-26.7-35-2.7-19.6" />
    <path fill="#907a5d" d="M579.7 391.3L534.5 454l14.7-36 60.8-29.6" />
    <path fill="#b8a68a" d="M597.6 700.7l-62.4.5 89 28.4-47.5 4.2" />
    <path fill="#fff" d="M839.2 22l-43.6 38.7 6.8 37.5L874 86M531.5 704.7l-9.2 50.7-237.3 2L705 799" />
    <path fill="#725b73" d="M104.8 537.8l41.2-40 52.8 35-34-31" />
    <path fill="#fff" d="M85 774.6l97-23.6 46.6-27.3L242 799" />
    <path fill="#a3a4a5" d="M802.4 25l-40.6-2-7-7.8 38.2-3" />
    <path fill="#5af2ff" d="M149.6 750l7.4-62-4.5-22.2-8.7 80.2" />
    <path fill="#949494" d="M967.6 245h28.7l15 12.4-46-5" />
    <path fill="#818482" d="M11.2 144.7l19.2-76.3-4.6 147.8-7.6-41.2" />
    <path fill="#fff" d="M-26.8 100l73 21.2-40.6 3.4L26.6-31" />
    <path fill="#392930" d="M384 549l5.4 102.2.6-179.3-5.5-15" />
    <path fill="#a56920" d="M892.3 52.3l-37.6-36.6L800 40.2l28-25.8" />
    <path fill="#9fa29b" d="M411.6 438.6l-51 1.3 72.5-16 13 15" />
    <path fill="#9e9e9e" d="M567.4 306.7l73.2-9-74-6h7.7" />
    <path fill="#fff" d="M597.7 559l90-22.7L662.4 402 545 435M-31 666l141-162.4L32.7 562l91.6 85.7" />
    <path fill="#968f87" d="M282.5 447.8l153-16.3-140.7 2-6-4" />
    <path fill="#fff" d="M855 17.3l168.2 102L1055-31 664 3.4" />
    <path fill="#212020" d="M342.4 527.8l17.3 1.3-39.7 37 28-33" />
    <path fill="#fff" d="M415.7 298l-58.5 32.5-81.7 79 72.3-27.8" />
    <path fill="#399bb4" d="M168.5 300.2l-4.3-69 17.3-73.5 10 146" />
    <path fill="#fff" d="M735.3 337l-93.7-43 43.7-75.8L789 57" />
    <path fill="#c0154c" d="M194.8 473.4l13.5 6.6-16.7-19-16-1.4" />
    <path fill="#919490" d="M362.5 40.3l-11.8-14-30 11L320 14" />
    <path fill="#fff" d="M799.8 144l-88 18.5L651-31l124.2 68.2M-31 455.7l188.5 3-113-233L123.8 441" />
    <path fill="#549265" d="M803.7 654.3l-46-70.4 39.7 40-12.4 36" />
    <path fill="#9e9d9d" d="M680.2 140.8l-158.4 1L690 126.2l1.2 16.5" />
    <path fill="#2b75be" d="M412 493.2l-27.7-10.6-29.3 22 64-25" />
    <path fill="#b3b6b2" d="M225.7 220l5.7-18.2 51.5 40.7 18-13.2" />
    <path fill="#aeaeae" d="M600.6 672.8l80 7-1.5 4.7 16-19.2" />
    <path fill="#fff" d="M321.6 727.3l-34-26.3-13 44.6L417 799m83.6-830L378 81.4 578.5 97l217-44" />
    <path fill="#944e09" d="M818.6 122.6L787.2 83 808 21.4l-24.2 43" />
    <path fill="#9d9c9c" d="M524.7 72l11.8 13-33 .4-3.5-11" />
    <path fill="#0c5abc" d="M198.6 744l-24.2-39.4-11 25.8 10 7" />
    <path fill="#ff690d" d="M513.7 97.3l-8 18.5-38.6-14.6 9-6.7" />
    <path fill="#989c98" d="M75.7 22.5L45 17.7l-2.4 14.5 34.8-2" />
    <path fill="#fff" d="M60.2 152.3l-67.3 21 76-.6L32 44.3" />
    <path fill="#8277c2" d="M424.7 471.4l-30.6-9 41 5.4 76 53.3" />
    <path fill="#2d112f" d="M239 743.7l-4.5 14L257 746l-.4-12.4" />
    <path fill="#fff" d="M608.4 370.4l-1.4-97-28 82-88 112.8" />
    <path fill="#3c3d3d" d="M934.3 431.4L952.6 286l-8.2 55.7-13.2 60.8" />
    <path fill="#8c8c8c" d="M639.7 391l-56.4-1.7 61.8-6.8-2-44.5" />
    <path fill="#cf1544" d="M20.2 731l-4-25-8.4 9.3 4 48.4" />
    <path fill="#502f2e" d="M406.2 695l-10.3-6.2 22-27.2 4-188" />
    <path fill="#fff" d="M418 651.8l90 12.5 78-103.5-135.6-17.4m446-289.6L864 269.6 811 612l119-388.7" />
    <path fill="#fff" d="M889 563.3l-43.4 69-91-51.6-22-24.8M-31 599l95.3-142L37 518-4 110" />
    <path fill="#979b96" d="M72.6 176l-31 13.2 6-18.8 24 31.4" />
    <path fill="#eca29f" d="M403.5 335.2L390.7 146l9-95.2 9 125" />
    <path d="M128.8 149.7L111.4 299l13.6 7 10.5-23" />
    <path fill="#99a998" d="M865.7 158.2l43-9.3-63.3 26-11-14" />
    <path fill="#958f80" d="M619.3 236.6l-8.7 26 9 43-21-45.2" />
    <path fill="#69a982" d="M700.4 376L684 398.3l-.6 19-26-17.6" />
    <path fill="#903d7c" d="M172 488.5l49.6 47.6-28-28-51.5-29" />
    <path fill="#fff" d="M-31 562.8l96.7 147.6 31.3-11L87.7 594" />
    <path fill="#0eaeff" d="M289.7 692l-7.6-24.5-16 15 10 37.5" />
    <path fill="#5a031d" d="M51.4 494.6l-10.6 21.8L69 479l7-16.2" />
    <path fill="#fff" d="M135.3 462l76 41.3 54.2 249.4 10-190.8" />
    <path fill="#26253d" d="M113 720l37.8 2.6-17.6 8 4.4 17.7" />
  </g>
</svg>