<svg version="1.1" viewBox="0 0 1024 768" width="1024" height="768" xmlns="http://www.w3.org/2000/svg">
  <path fill="#e6e6e2" d="M0 0h1024v768H0z" />
  <g fill-opacity=".5">
    <path fill="#8b8720" d="M720 646.8l209.3-7-12.6 89.4-243.4 7.3" />
    <path fill="#9d9e87" d="M802.4 433l-133 113 352.3 34.6-10.8-150" />
    <path fill="#c39297" d="M274.3 613.6l-86.5-239.8-152 293L165.5 617" />
    <path fill="#2b2b2f" d="M1018.6 745l-58.8-135-.7 117.6 52-114" />
    <path fill="#7b8382" d="M213.4 89.7L-2 136l45.4 26L289 143.3" />
    <path fill="#26262a" d="M293 194l-59 64.7-28-15.6 68.2-73" />
    <path fill="#82986f" d="M282.6 183.5L336 237l-15.4 110.2L447 225.7" />
    <path fill="#676a6d" d="M162 472.8L30.4 413 14 441l106.3 58.8" />
    <path fill="#1e1e22" d="M381 175.4l12-42.3-38.5-47 30-58" />
    <path fill="#3c5a4d" d="M487 188.8l40.3 157.6L468 204.6l81.3 84.7" />
    <path fill="#91797d" d="M249 267.3l-49.5 88 3 106.6L148 302" />
    <path fill="#7e8283" d="M31.7 799l175.7-346L18.7 712.8l53 82.5" />
    <path fill="#514d52" d="M591.3 144.2l13.5 169-2.5 37.7-16 43" />
    <path fill="#f90006" d="M112.4 534.2l-5.2 37.7-37.5 9-4-47" />
    <path fill="#fff" d="M-31 288.5L180.8 371l419-45.5-235.4 177.2" />
    <path fill="#0d0d19" d="M1016.7 468.2l-21.7-7 3.2 73.3L1012 591" />
    <path fill="#87c505" d="M267.6 77.7l-10-51.8-32.6 2-18.7 42" />
    <path fill="#8a8b4a" d="M852 583l35.7-12.7-12-105.4-77.4 33" />
    <path fill="#434347" d="M308.7 492.3L237 453.7l38.6 44.2-21.6 51" />
    <path fill="#98aeaa" d="M503 459l-4.5 124-141.8-109.7 95.3-7.6" />
    <path fill="#fff" d="M390 160.4l-31.7 79 334.3 234-300-5" />
    <path fill="#151519" d="M271.2 86l153-9.7-35.8 9.3L318.8 72" />
    <path fill="#fff" d="M642.8 768.8l-450.4-174L162.8 475l-36 301.6" />
    <path fill="#858480" d="M705.8 597.2l.6-137.6-70.7-28.7 126.8 3" />
    <path fill="#fff" d="M923 485.5l.5 313.5 39-357.7-353 13" />
    <path fill="#656368" d="M586 20.5l-3.7 86 16.3 73.2L603.2 20" />
    <path fill="#fdfce7" d="M742.2 451.8L734.7 663l-7.3 136 90.2-258.8" />
    <path fill="#fff" d="M-31 198.6l176.7 297.8 31.6-397.8 75 24.4" />
    <path fill="#5e5b17" d="M823.3 733.2l67.4-51.8-127.2 26.4-1 22.7" />
    <path fill="#ff2a2f" d="M268 563.4l9.6 52.2-51-4.4 4.4-39" />
    <path fill="#636367" d="M758.6 142.6l57 42.6-48-59-90.3-89.6" />
    <path fill="#9cbfbe" d="M360.5 620l141.6 2.7 21 83.7-141-4" />
    <path fill="#1d171d" d="M777.4 358.8l27.3.6 8.4 22-44-8.8" />
    <path fill="#fff" d="M1013.4 18l-4.4 326-361.3 2.5L856.5 5.7" />
    <path fill="#454547" d="M848 617.4l-3 26.3 33.8 9 7-36.6" />
    <path fill="#fff" d="M273.5 517.5l-53.4-58-34 37.4 27 61" />
    <path fill="#313133" d="M888 213l-60.5 44.4 45-14.2-31.2-23.6" />
    <path fill="#4c6157" d="M250.3 139l59.4-74-87.6 69-57 21.5" />
    <path fill="#fff" d="M315.7 205l10-4.5-33.6 303L207 309" />
    <path fill="#29292a" d="M996.2 623l18.2-15.8-.2 122.4-14 .3" />
    <path fill="#fff" d="M131.6 799L-31 408.6l131.3 196L47 659.2" />
    <path fill="#151619" d="M187 302.2l-3.4-50.7 55-25.8L172 241" />
    <path fill="#171418" d="M31.6 173.5l-16.4-27L39.8 161l96-23" />
    <path fill="#16141b" d="M356 344.3l5.3-58.7 14.2 49.7-52-1.7" />
    <path fill="#ff2d32" d="M205.8 411.8l-5.7 40.8-46-5.4 7-41.2" />
    <path d="M373 186.6l-31.8 16.7 37-39.8 10.5-17.3" />
    <path fill="#fff" d="M389.6 189.8l194.6 28.4-5-219-142.6-.6M-31 761.4L733.6 799l-38-126.7-3 39" />
    <path d="M714.6 647.6l2.2-30.7H707l-.2 35" />
    <path fill="#fff" d="M-1 125.5l229-43L187.8-28l-201.4-3" />
    <path fill="#1b2423" d="M181 617l26.2-11-38.6-2 32.2-59" />
    <path fill="#fff" d="M881.4 733.4l-367.2-.7L921.6 799l-26.3-192" />
    <path fill="#303d45" d="M322.8 186.3l22.8 111.2 3-110.8L381.4 294" />
    <path fill="#6f6d74" d="M793.2 428l114 19.7-174.8-1.5-94-1.3" />
    <path fill="#fff" d="M417.2 645.7L130.7 610l-35.3 43.5L58 799" />
    <path fill="#868388" d="M531.6 280l12-4.4-42.2 72.6-42.8-42.7" />
    <path fill="#9cd914" d="M391 215.2l3.3 45.8 44-.2 1.8-48" />
    <path fill="#fff" d="M-31 295L72.8 442.7l66.8 18.8 73.2 14.6" />
    <path fill="#242022" d="M50.7 157.6l94-10.2-97.8-15 76-14" />
    <path fill="#fff" d="M561.3 551.3l-260.7 67.3L584 634l265.7-34.3" />
    <path fill="#1e1e21" d="M410 76.7l-2.7-23L379.7 38l46 9" />
    <path fill="#050205" d="M138.3 134l52.3-50.6 22.2 9.3-28 2.5" />
    <path fill="#473e3e" d="M268.8 467.3l-49.8-15L87.4 626.8l112-161" />
    <path fill="#525150" d="M219.6 562.5l55-21.5-74.4 13.4-46-102" />
    <path fill="#68686b" d="M314.6 523l14.8-23.3-8-29.4-44.6 19.2" />
    <path fill="#424e49" d="M280.5 187.5L211 79.5 204.3 94l62.3 50.6" />
    <path fill="#1a2626" d="M157.4 298.5l25.2 74-26.4-52 31.3-26.2" />
    <path fill="#fff" d="M246.7 767.5L354.4 799l10.8-337-90.4 96.2" />
    <path fill="#000100" d="M124.7 605.2L96 646.7l28.4-31.2 28.8-26.5" />
    <path fill="#020000" d="M216.3 557l9-4-24.5 25-1.7 37" />
    <path fill="#f2f2f9" d="M997.2 720l1.3-285.5-20.5 26.8V696" />
    <path fill="#6e7230" d="M919.7 483l-46 96.5.3-49.8 44 26" />
    <path fill="#312939" d="M312.5 312.7l32-8.7-2.6-67.7-15 93.5" />
    <path fill="#fff" d="M-31 334.3l260.3-111.6 31-77-196.7 10m98.7 178.5L652 379.4 207.7 460l-12-176.4m-197 475.8l93.6-275.7-16.3-15-95-40.4" />
    <path fill="#fff" d="M-31 357.3l206.3-221-41.8 382 58.3-14.3" />
    <path d="M128.5 571.6l6.6-53 10-6.8-34 94.8" />
    <path fill="#fff" d="M17.4 147.5L334.4-31 28.4-9.5l23.4 175" />
    <path fill="#6c6d6e" d="M817.8 190.8l51.7 47L892 262l146 163" />
    <path fill="#fff" d="M660.7 405.4L733 90.7l-1.7 4.4L650 50" />
    <path fill="#83818a" d="M884.6 445.3l114.2 4 22.2-69-44 44" />
    <path fill="#2a2829" d="M95.7 468l-.2 31 11-12L21 438.2" />
    <path fill="#f5ae87" d="M361 778.5l11.6-46L517 720.3l-163-13" />
    <path fill="#fff" d="M333 72l52-32.4 332-42L150.5-31" />
    <path fill="#696974" d="M962.8 598L957 459l16.2 4 8 91" />
    <path fill="#2c2c2d" d="M725 147.7l26.3 5.6 14-26L791 152" />
    <path fill="#4c5455" d="M196.7 297.8l-35-37.8 51.6 35.3L193 401" />
    <path fill="#fff" d="M236 123.5L339 194l31.4-20 7.2-61.6" />
    <path fill="#494c4d" d="M79.3 687l-50.8-26L50 644.5l-8.3 51.2" />
    <path fill="#696434" d="M823.4 647.7l-5 81.4-25.2-85-171.7 4" />
    <path fill="#4f4909" d="M910.8 738.5l10-10.2 1.4 9.4-5.8-108.4" />
    <path fill="#3e3d48" d="M874 457l-22 41-11-42 41.7 21.6" />
    <path fill="#fff" d="M784.3 616l168-90.8-32-4.8 80.3 97.6" />
    <path fill="#423e41" d="M157.3 137l-15-47.2 19.3 39.3 67.4 34" />
    <path fill="#fff" d="M662.3 446l187.6 5.2-9 79.5-19-39.7" />
    <path fill="#f9ffff" d="M350.3 309l17-124.7L433.7 348 335 202" />
    <path fill="#fff" d="M525.3 311l-5.6 482 73-374.6-11.3-239.7" />
    <path fill="#51490a" d="M725.4 737.2l-14.2-10-4.8-50.6 20.2-5" />
    <path fill="#1d3127" d="M257 140.4l20 59.6-18.4-90.4 19.7-17" />
    <path fill="#8e8e90" d="M985.3 738.2l-9.5-130-18 46.7-2 71" />
    <path fill="#fff" d="M744.8 7.3l-73 8 83 87.4 115.6-87.5" />
    <path fill="#0c1213" d="M201 297l36.7-11.8 4.3-46.8-21.3 55.6" />
    <path fill="#8b8b8f" d="M911 403.3l-158.5-.6-83-3.4 166.7-1" />
    <path fill="#fff" d="M99 398l28.3 157.6-155.7 128 145-91.3" />
    <path fill="#fff" d="M89.3 451l41-337.6 31 12.3L-31 232m321.7-32.6l47.6 52.8-1 47.2L196.6 352" />
    <path fill="#838184" d="M584.2 202.2l17-129.7 2 135-6 50" />
    <path fill="#fff" d="M586 279l-62.3-25.5L411 40l171.2-71" />
    <path fill="#b0f8f2" d="M466.5 484.7l-96.8 11 4 50.3 97.4-2.2" />
    <path fill="#998b8e" d="M567.5 651L381 617.6l-25.2 27L406 641" />
    <path fill="#fff" d="M91.2 667L26 701l27.7 22L70 643.6M475.2 226l-7 245.3-205.3-1.8L467 214" />
    <path fill="#222022" d="M121.5 464.7l-60.2-20.5-12.4-33-25 7" />
    <path fill="#413f41" d="M511.8 307l31-19.4-45.7-67.4 42 48" />
    <path fill="#28292f" d="M718.2 557.3l-9.7-51-4.3 37 3.8 42" />
    <path fill="#4f4d4f" d="M64 763.4l-6-43.6-20.6 29.5-15.5-73" />
    <path fill="#071211" d="M78 641.7l13.4 13-23-16 57.3-55.5" />
    <path fill="#151517" d="M368.2 97.2l-26-28.5L330 82l-17.4-19" />
    <path fill="#242627" d="M86.5 652l9 17.5-24 22.7 42.2-77.2" />
    <path d="M284.7 184l11.8 15 35 5-39-15.4" />
    <path fill="#8d8387" d="M485.7 585.8l-20-21.4 12-106.7 11.2 22" />
    <path fill="#201e21" d="M19.3 134.7l52.3-2-48-11.3-4.3 68.6" />
    <path fill="#2e272d" d="M480.5 308.5l21-45-1 16.6 7 6" />
    <path fill="#fffff8" d="M914.2 474.2l134.7-22.5-158-6.7-13 134" />
    <path fill="#4b4f50" d="M160.4 472.7l-46.8-5 24.2 54-42-35.2" />
    <path fill="#342e19" d="M859.2 553l-6.3 29-4-1 5-78.7" />
    <path fill="#a5a4a8" d="M771 345.2l-93.7 3.7L842 392l-104 .7" />
    <path fill="#7c7a28" d="M772.4 520.8L823 490l2.6 45.5 89-18" />
    <path fill="#68756c" d="M1014.3 314.2l2.3 106.5 2-190.3-6.6 70" />
    <path fill="#fff" d="M242 550.2l23.5-77.5-88 23.2 24.2 46m93.6 211l708 46 51.7-66H878" />
    <path fill="#1d1d1f" d="M370.5 101.6l24-32.8 2.6 7.6 22-6" />
    <path fill="#6a6669" d="M575 494l-181.5-8 57 3 288.5.2" />
    <path fill="#fff" d="M24-31l187 174 5.6-44L-31 136" />
    <path fill="#262426" d="M152.3 87l-20 15 17.4 5-33 14.8" />
    <path fill="#090608" d="M131 152.4l38-19.8-27 27.7 4-2" />
    <path fill="#969698" d="M695.3 440l-89-66 41.2-2.6 75.8 124.8" />
    <path fill="#191917" d="M149.8 608l-9-30 14-42-4 29.8" />
    <path fill="#06070a" d="M703 485.5l5.5-24.2 5.7 1 2.4 29.5" />
    <path d="M387.6 152l.2-33-14.3-22.7 12 49.8" />
    <path fill="#fff" d="M345.4 574.8l42 135.5-334 88.7 9.6-80.3" />
    <path d="M373 43l34.7 2.2 12.6 34.5L401 37.5" />
    <path fill="#fff" d="M-30.5 502.8L34.2 693l-4-275 22.4 12.6" />
    <path fill="#383638" d="M164.4 118l10.6 26.4-6-61.5 17.8 6" />
    <path fill="#fff" d="M342.6 274.3l297.2 186-282 2 12.2-196" />
    <path fill="#8e8588" d="M366 464.8l67.5 5.7 55.7 16.8-131.8-1.5" />
    <path fill="#908587" d="M469 621l4.4 96 7.8 4 9-108" />
    <path fill="#f5f6f7" d="M187 273.3l162-166L222.5 265 211 290.8" />
    <path fill="#010101" d="M230 252.3l-15.5-14 27.8 15.3 21.7-35" />
    <path fill="#fff" d="M445 698.6l-85-201.2L221 573l148-8.2M374.4-31L205.8 1l183 77.2-19.5 26" />
    <path d="M231.7 217.8l45.8-48.3-34.2 47.7-21 14" />
    <path fill="#1e1a1d" d="M383.6 304.2l-26-59.4-2.4-17.5-9.3-40.8" />
    <path fill="#b2cdb4" d="M821 50.4L932.4 73 788 66l-125.6-1.4" />
    <path fill="#fff" d="M826.2 625l18 57.3 3.4-132.7L580 609M293 502.8l-39.8-8.7 70.3 8-14.2-22" />
    <path fill="#373e3e" d="M173.4 347.3l23.4 35.4 3.8-47-34.6 50" />
    <path fill="#2a1111" d="M240 557.2l-43.8-14 41.3 7 33.8-16.7" />
    <path fill="#fff" d="M161.2 525.5l-30 217-38.2-86L201.5 547m3.5 52l18 170 5.2-226.5-25.4 54.4" />
    <path fill="#fdb792" d="M365.7 548.4L348 615.8l32.6-42 129-1.6" />
    <path fill="#fff" d="M1034 256l-482.2-9 51 10.6-2.4 48.4m-79-276.5L417.6 252.7l-21-13.4 198-89" />
    <path fill="#79797c" d="M651.8 239l-65.4 8 60.6-13.8 4.4 144" />
    <path fill="#fff" d="M262 115.2L345.3-31 188.6 144.5l-5.2-50m465.3 294.8l213-106.6-107.4-136L737.8 399" />
    <path fill="#29302f" d="M333.4 241.8L320.2 190l10 6.8 16.5 86" />
    <path fill="#53906f" d="M495.6 195.8l21 52.6-27-1.7-24.6-38.3" />
    <path fill="#fff" d="M893.3 367.2l-87.5-149L832.3 397l185 3.4m-643-293.6l-50-30.2-62.5 75 77 56.6" />
    <path fill="#76767a" d="M646.4 6.6l137.7.2-122 5.8L694 57" />
    <path fill="#fff" d="M125.2 529.4l-3.2-36-99.8 12L77 533.6M1013.6 298l-225-164.5L709 129l304-61" />
    <path fill="#515154" d="M1055 5.3l-104 .2-77.5 2.8 78 1" />
    <path fill="#3f3a3e" d="M441 520.6h216l-11.3-2.3" />
    <path fill="#fff" d="M480 320l29.6 10.8L502 259l25 5" />
    <path fill="#5a595c" d="M478.7 550.6l-5.2-3.2 127.3-.4-5.3 4" />
    <path fill="#99e4a3" d="M908.8 313.7L876.6 366l75.2-87.8 70.4 23.5" />
    <path fill="#fff" d="M572.6 491.2L262 339.8l387 53.5 5.5 62" />
    <path fill="#3a4f44" d="M230.6 141l-11-23 45.2 1-53.3-23.7" />
    <path fill="#2c302f" d="M151.3 519l-8.7 88 15.4-82 34.7-20.3" />
    <path fill="#fff" d="M602.5 262l38.4-50 3-174.4-38-13.2" />
    <path fill="#454548" d="M1014.7 566.3v-109l-19 75 3.6 57.6" />
    <path fill="#6b6c72" d="M540 644.2l1.3 5.6.3-1 171.6-3.2" />
    <path fill="#fcffff" d="M519.8 700.6l-201.2-30.8 265 9.7L715 701" />
    <path fill="#fff" d="M603-13.5L461.5 217.2l-69.8-5 15.5-128m648 497.5l-31.3 37-131-7.7 92-36.2M292-31L-31 4.2l86.2 125.3 57.4-9.5" />
    <path fill="#3e3c3e" d="M511 333h-40l7.2-39.4 3.4 31.5" />
    <path fill="#a1a0a3" d="M652 83.8l6.5 31.4-44-18-3.6-8" />
    <path fill="#716f72" d="M659 703.8l-60-1.5-131 1.5 151.4 3.2" />
    <path fill="#fff" d="M166.4 333l28 5 11-21.7-28.3-19.5" />
    <path fill="#f3f4ff" d="M722 540.8l-11.3-47.6-10.3 24.7 126.8 13" />
    <path fill="#050a0a" d="M183.2 282.5l25 13 19-12.6 8.6 15" />
    <path fill="#0c0c0e" d="M394.7 154.5l-23.2 25.3 17.2-48-3.3 16.5" />
    <path fill="#1d1c1d" d="M30.8 115.5l11.4 10.7-28.4 15.2 10 22.6" />
    <path fill="#fff" d="M179 246.6l67-48.6 7-51.5-33.5-10.2m-20.6 244l-230-45.7V408l282-1.4" />
    <path fill="#85b819" d="M217.4 25.7l55 10.3-45.8 8.6-9.6 46.7" />
    <path fill="#000603" d="M132 537.7L121.4 592l17.3-53.2-3.8-19.3" />
    <path fill="#1d1822" d="M367.5 300l-7 33.8-2.7-37 21.2-16" />
    <path fill="#525153" d="M28.8 415.7l-17.2 16 6.8 11.6 8 15.6" />
    <path fill="#5a5a5b" d="M848.6 249.6L879 215l26.7 14.2-48.6 1.6" />
    <path fill="#010000" d="M271.6 102.7l-6-.5L303 74.8l9 1" />
    <path fill="#fff" d="M393.5 216l254-98.6-293.6 84 19 70.2" />
    <path fill="#9a9a9d" d="M646.7 177.6l-60.2-16.8 68-4.2-5 96.3" />
    <path fill="#ffe0de" d="M141.4 600.7l6.3-62 8.7-40-32.8 91" />
    <path fill="#2e3636" d="M213.3 583.7L195.7 611l-19-6.7 2.6 16.7" />
    <path fill="#cfccce" d="M105.3 145l-1.3-18-62 14.3L65 152" />
    <path d="M221.7 131.3l9.6 5-53.6 17.2 28.4-2.2M858 625l-3-8.7-7 29 6 7.5" />
    <path fill="#7e7e82" d="M691.8 675.6l-39.5 3.5-140.7-5 137.5-1" />
    <path fill="#414142" d="M279.4 503.2L265 550.4l7.6-51.2-17.6-50.8" />
    <path fill="#4a695f" d="M733.8 180l-3.5-.5 7.8 11.3-38-4.6" />
    <path fill="#fff" d="M363 473l-70.5-220.6-104.7 224-118-41m33.4 52.5l26.3-21-26.5-3-8 9" />
    <path fill="#daa4a1" d="M969 75.4l-25.3-38-63 25 111-17" />
    <path fill="#fff" d="M367.2 319.7L339.7 302 329 313l.8 17.3" />
    <path fill="#545455" d="M869 240.2l-48.2-52.5L740 103l43 52" />
    <path fill="#010005" d="M327 333l-5-26 8.7 24.2 34.6 20.5" />
    <path d="M279.2 202L234 253l51.2-51-26.4-22" />
    <path fill="#6a6767" d="M708.6 341.3l26 11.2-40.2 2.7-6.6-2.6" />
    <path fill="#3e3e3f" d="M312.5 520l-13-19.5L266 515l62.5-12.2" />
    <path fill="#e6e7d5" d="M866 403.3L861.4 621l10.6 90 .7-231.5" />
    <path fill="#79e3ff" d="M461 684.8l-1 13-76.4 3-31.8-18.4" />
    <path d="M60 635l-18 19.3 33.2-20.7-7 8.3" />
    <path fill="#88878b" d="M645.7 18.3l8.5-23.5-3.5 41.7L589.3 15" />
    <path fill="#363637" d="M732.4 105l-2.8 17.6 27-13.5-11.6-3" />
    <path fill="#1e1d1d" d="M53.2 722.4l16.4-28L54 750l5.6 8.8" />
    <path fill="#0b0a0a" d="M44.3 425l66.8 37-4 1.4L82 451" />
    <path fill="#6b7258" d="M918.3 706.5l71.6 1-152-5.3 217 1.4" />
    <path d="M245.3 460.3l29.5 23.6-44.6-27-21.2 7" />
    <path fill="#878847" d="M886.4 670l-199.2 5 166 6 33.7 27.6" />
    <path fill="#4e5050" d="M170 327.3l-17.7-32 17.3 7.6-25 29" />
    <path fill="#fff" d="M157 467.2l11.8-123-182-219 1.4 254.4" />
    <path fill="#494547" d="M484.4 335.3l36.3-17.4-15-24 14.7 36" />
    <path fill="#7a7a7b" d="M853.7 224.2l34.5 45.8-23 17.2 40-4.8" />
    <path fill="#b1b1a5" d="M762.3 580.4l27.2-5.4-11-126.7 2-27.7" />
    <path fill="#66666a" d="M895 8.4l-87.6-4-73.5 2 33 2.8" />
    <path fill="#3d4e4d" d="M195.3 481.3L146.8 468l24.4 15.4 51.4-29.5" />
    <path fill="#fff" d="M79 628l-104 12.6-6-77.8 150.6 17.4" />
    <path fill="#dad8b6" d="M803.4 695.7l-12.7-80.4-34 4.2 38 88" />
    <path fill="#fff" d="M210.3 564.3l262-45.3-209-8.8 189 89.6m-163-152l144.4-174 17-119.7 46 134" />
    <path fill="#282725" d="M206.2 542.8l-22-23 12.3 27-14.2 45.2" />
    <path fill="#cca49f" d="M1011.3 203.8l-70.3 1.8 16-15.3 42.6-1.6" />
    <path fill="#eb1f24" d="M168.5 451l3-20 32.6-23.4-44 .6" />
    <path fill="#4b4b4c" d="M972.2 649l-55.3-3.4 85-1 8 1" />
    <path fill="#f0fff8" d="M262.5 131l-39.4 2.3 48-50-91-15.5" />
    <path fill="#49494d" d="M1015.8 116.8l-.3 59.8 2.5 11-.8-158.8" />
    <path fill="#191819" d="M129.6 115l-19.3 15.7-45.6-4-18.8 14" />
    <path fill="#6d6e76" d="M825 549.4l-21.8-2.4-215 1.8L609 552" />
    <path fill="#343838" d="M227 332.5l-18.7-7.2.5-20.2-34.7-10" />
    <path d="M57 152.2l42.3-4-68.4 18 12 8.4" />
    <path fill="#49494a" d="M306 477l24.8 2.7-8.4 27.7 17.7 1.2" />
    <path fill="#f2f3f9" d="M748.5 488.2l-36.5.5 23-46.4 111 44.4" />
    <path fill="#3f3d3e" d="M77.5 723.5l-22.8-32.8 34.5-5.8-28.4-5" />
    <path fill="#fae9e7" d="M158 408.4l49.4 46-11 7.2-7.2-38.4" />
    <path fill="#264134" d="M256.2 164.3l12.3-76.8-5.2 70 27.5 33.7" />
    <path fill="#fff" d="M388.6 551.7l81 8-5-104.4L456 545" />
    <path fill="#4c4b4d" d="M187 304.8l-16-41.3 34.4-48.7-22.7 43.7" />
    <path fill="#242a2a" d="M216.4 328.8l-46 13.8-20-17.6 42 17.5" />
    <path fill="#463a00" d="M914.8 534.6l6.4-38.8-10.3-7.5 1 59.7" />
    <path fill="#5e6727" d="M823.2 522.6l-32-32.2 80.6-1.4-47.7 5.4" />
    <path fill="#fff" d="M384.5 131.4L552 101l60-12-164.7-57M771 51l284-39-359.3-3 91.8 143" />
    <path fill="#85848a" d="M931.7 445.8l-35.6 1.6 35-49 2-17.8" />
    <path fill="#2f2423" d="M211.2 580l12-37.8L206 574l.4-2.8" />
    <path fill="#75d3fc" d="M371.5 522.3l100.2 20.2-102.2 3 3.3-2.7" />
    <path fill="#fff" d="M215.2 293.2l17.8-19-21.7-36.8-26.2 23.8" />
    <path d="M142.6 108l30.8 6.3-21.8 3.6-17.6-10" />
    <path fill="#fff" d="M-8.5 799L-31 661.6l66 64.2-2.7 59" />
    <path fill="#5b5b4f" d="M1013.3 493.4l-9.8-38.6-1 34.6-146.4 2.2" />
    <path fill="#232325" d="M376.4 53.4L372 38.8l16.6 3 24.4-17" />
    <path fill="#71ce89" d="M454.3 503l-13.5 13.6-63-3-5.4-15.7" />
  </g>
</svg>