<svg version="1.1" viewBox="0 0 1024 768" width="1024" height="768" xmlns="http://www.w3.org/2000/svg">
  <path fill="#e6e6e2" d="M0 0h1024v768H0z" />
  <g fill-opacity=".5">
    <path fill="#8b8720" d="M720 647l209-7-12 89-244 7" />
    <path fill="#9d9e87" d="M802 433L669 546l353 35-11-150" />
    <path fill="#c39297" d="M274 614l-86-240L36 667l130-50" />
    <path fill="#2b2b2f" d="M1019 745l-59-135-1 118 52-114" />
    <path fill="#7b8382" d="M213 90L-2 136l45 26 246-19" />
    <path fill="#26262a" d="M293 194l-59 65-28-16 68-73" />
    <path fill="#82986f" d="M283 184l53 53-15 110 126-121" />
    <path fill="#676a6d" d="M162 473L30 413l-16 28 106 59" />
    <path fill="#1e1e22" d="M381 175l12-42-38-47 30-58" />
    <path fill="#3c5a4d" d="M487 189l40 157-59-141 81 84" />
    <path fill="#91797d" d="M249 267l-49 88 3 107-55-160" />
    <path fill="#7e8283" d="M32 799l175-346L19 713l53 82" />
    <path fill="#514d52" d="M591 144l14 169-3 38-16 43" />
    <path fill="#f90006" d="M112 534l-5 38-37 9-4-47" />
    <path fill="#fff" d="M-31 289l212 82 419-45-236 177" />
    <path fill="#0d0d19" d="M1017 468l-22-7 3 73 14 57" />
    <path fill="#87c505" d="M268 78l-10-52-33 2-19 42" />
    <path fill="#8a8b4a" d="M852 583l36-13-12-105-78 33" />
    <path fill="#434347" d="M309 492l-72-38 39 44-22 51" />
    <path fill="#98aeaa" d="M503 459l-4 124-142-110 95-7" />
    <path fill="#fff" d="M390 160l-32 79 335 234-300-5" />
    <path fill="#151519" d="M271 86l153-10-36 10-69-14" />
    <path fill="#fff" d="M643 769L192 595l-29-120-36 302" />
    <path fill="#858480" d="M706 597V460l-70-29 126 3" />
    <path fill="#fff" d="M923 486l1 313 39-358-353 13" />
    <path fill="#656368" d="M586 21l-4 86 17 73 4-160" />
    <path fill="#fdfce7" d="M742 452l-7 211-8 136 91-259" />
    <path fill="#fff" d="M-31 199l177 297 31-397 75 24" />
    <path fill="#5e5b17" d="M823 733l68-52-128 27-1 23" />
    <path fill="#ff2a2f" d="M268 563l10 53-51-5 4-39" />
    <path fill="#636367" d="M759 143l57 42-48-59-91-89" />
    <path fill="#9cbfbe" d="M361 620l141 3 21 83-141-4" />
    <path fill="#1d171d" d="M777 359h28l8 22-44-8" />
    <path fill="#fff" d="M1013 18l-4 326-361 3L857 6" />
    <path fill="#454547" d="M848 617l-3 27 34 9 7-37" />
    <path fill="#fff" d="M274 518l-54-58-34 37 27 61" />
    <path fill="#313133" d="M888 213l-60 44 45-14-32-23" />
    <path fill="#4c6157" d="M250 139l60-74-88 69-57 22" />
    <path fill="#fff" d="M316 205l10-4-34 303-85-195" />
    <path fill="#29292a" d="M996 623l18-16v123h-14" />
    <path fill="#fff" d="M132 799L-31 409l131 196-53 54" />
    <path fill="#151619" d="M187 302l-3-51 55-25-67 15" />
    <path fill="#171418" d="M32 174l-17-27 25 14 96-23" />
    <path fill="#16141b" d="M356 344l5-58 15 49-52-1" />
    <path fill="#ff2d32" d="M206 412l-6 41-46-6 7-41" />
    <path d="M373 187l-32 16 37-40 11-17" />
    <path fill="#fff" d="M390 190l194 28-5-219H437M-31 761l765 38-38-127-3 39" />
    <path d="M715 648l2-31h-10v35" />
    <path fill="#fff" d="M-1 126l229-43-40-111-202-3" />
    <path fill="#1b2423" d="M181 617l26-11-38-2 32-59" />
    <path fill="#fff" d="M881 733H514l408 66-27-192" />
    <path fill="#303d45" d="M323 186l23 112 3-111 32 107" />
    <path fill="#6f6d74" d="M793 428l114 20-175-2-94-1" />
    <path fill="#fff" d="M417 646l-286-36-36 44-37 145" />
    <path fill="#868388" d="M532 280l12-4-43 72-42-42" />
    <path fill="#9cd914" d="M391 215l3 46h44l2-48" />
    <path fill="#fff" d="M-31 295L73 443l67 18 73 15" />
    <path fill="#242022" d="M51 158l94-11-98-15 76-14" />
    <path fill="#fff" d="M561 551l-260 68 283 15 266-34" />
    <path fill="#1e1e21" d="M410 77l-3-23-27-16 46 9" />
    <path fill="#050205" d="M138 134l53-51 22 10-28 2" />
    <path fill="#473e3e" d="M269 467l-50-15L87 627l112-161" />
    <path fill="#525150" d="M220 563l55-22-75 13-46-102" />
    <path fill="#68686b" d="M315 523l14-23-8-30-44 20" />
    <path fill="#424e49" d="M281 188L211 80l-7 14 63 51" />
    <path fill="#1a2626" d="M157 299l26 74-27-52 31-27" />
    <path fill="#fff" d="M247 768l107 31 11-337-90 96" />
    <path fill="#000100" d="M125 605l-29 42 28-31 29-27" />
    <path fill="#020000" d="M216 557l9-4-24 25-2 37" />
    <path fill="#f2f2f9" d="M997 720l2-285-21 26v235" />
    <path fill="#6e7230" d="M920 483l-46 97v-50l44 26" />
    <path fill="#312939" d="M313 313l32-9-3-68-15 94" />
    <path fill="#fff" d="M-31 334l260-111 31-77-196 10m98 178l490 45-444 81-12-176M-1 759l93-275-16-15-95-41" />
    <path fill="#fff" d="M-31 357l206-221-41 382 58-14" />
    <path d="M129 572l6-53 10-7-34 95" />
    <path fill="#fff" d="M17 148L334-31 28-9l24 175" />
    <path fill="#6c6d6e" d="M818 191l51 47 23 24 146 163" />
    <path fill="#fff" d="M661 405l72-314-2 4-81-45" />
    <path fill="#83818a" d="M885 445l114 4 22-69-44 44" />
    <path fill="#2a2829" d="M96 468v31l11-12-86-49" />
    <path fill="#f5ae87" d="M361 779l12-46 144-13-163-13" />
    <path fill="#fff" d="M333 72l52-32L717-2 151-31" />
    <path fill="#696974" d="M963 598l-6-139 16 4 8 91" />
    <path fill="#2c2c2d" d="M725 148l26 5 14-26 26 25" />
    <path fill="#4c5455" d="M197 298l-35-38 51 35-20 106" />
    <path fill="#fff" d="M236 124l103 70 31-20 8-62" />
    <path fill="#494c4d" d="M79 687l-50-26 21-16-8 51" />
    <path fill="#696434" d="M823 648l-5 81-25-85-172 4" />
    <path fill="#4f4909" d="M911 739l10-11 1 10-6-109" />
    <path fill="#3e3d48" d="M874 457l-22 41-11-42 42 22" />
    <path fill="#fff" d="M784 616l168-91-32-5 81 98" />
    <path fill="#423e41" d="M157 137l-15-47 20 39 67 34" />
    <path fill="#fff" d="M662 446l188 5-9 80-19-40" />
    <path fill="#f9ffff" d="M350 309l17-125 67 164-99-146" />
    <path fill="#fff" d="M525 311l-5 482 73-375-12-239" />
    <path fill="#51490a" d="M725 737l-14-10-5-50 21-5" />
    <path fill="#1d3127" d="M257 140l20 60-18-90 19-17" />
    <path fill="#8e8e90" d="M985 738l-9-130-18 47-2 71" />
    <path fill="#fff" d="M745 7l-73 8 83 88 115-88" />
    <path fill="#0c1213" d="M201 297l37-12 4-47-21 56" />
    <path fill="#8b8b8f" d="M911 403H753l-83-4 166-1" />
    <path fill="#fff" d="M99 398l28 158-155 128 145-92" />
    <path fill="#fff" d="M89 451l41-338 31 13-192 106m322-33l47 53-1 47-140 53" />
    <path fill="#838184" d="M584 202l17-129 2 135-6 50" />
    <path fill="#fff" d="M586 279l-62-25L411 40l171-71" />
    <path fill="#b0f8f2" d="M467 485l-97 11 4 50 97-2" />
    <path fill="#998b8e" d="M568 651l-187-33-25 27 50-4" />
    <path fill="#fff" d="M91 667l-65 34 28 22 16-79m405-418l-7 245-205-1 204-256" />
    <path fill="#222022" d="M122 465l-61-21-12-33-25 7" />
    <path fill="#413f41" d="M512 307l31-19-46-68 42 48" />
    <path fill="#28292f" d="M718 557l-9-51-5 37 4 42" />
    <path fill="#4f4d4f" d="M64 763l-6-43-21 29-15-73" />
    <path fill="#071211" d="M78 642l13 13-23-16 58-56" />
    <path fill="#151517" d="M368 97l-26-28-12 13-17-19" />
    <path fill="#242627" d="M87 652l9 18-24 22 42-77" />
    <path d="M285 184l11 15 36 5-39-15" />
    <path fill="#8d8387" d="M486 586l-20-22 12-106 11 22" />
    <path fill="#201e21" d="M19 135l53-2-48-12-5 69" />
    <path fill="#2e272d" d="M481 309l21-45-1 16 7 6" />
    <path fill="#fffff8" d="M914 474l135-22-158-7-13 134" />
    <path fill="#4b4f50" d="M160 473l-46-5 24 54-42-35" />
    <path fill="#342e19" d="M859 553l-6 29-4-1 5-79" />
    <path fill="#a5a4a8" d="M771 345l-94 4 165 43-104 1" />
    <path fill="#7c7a28" d="M772 521l51-31 3 46 89-18" />
    <path fill="#68756c" d="M1014 314l3 107 2-191-7 70" />
    <path fill="#fff" d="M242 550l24-77-88 23 24 46m93 211l708 46 52-66H878" />
    <path fill="#1d1d1f" d="M371 102l24-33 2 7 22-6" />
    <path fill="#6a6669" d="M575 494l-181-8 57 3h288" />
    <path fill="#fff" d="M24-31l187 174 6-44-248 37" />
    <path fill="#262426" d="M152 87l-20 15 18 5-33 15" />
    <path fill="#090608" d="M131 152l38-19-27 27 4-2" />
    <path fill="#969698" d="M695 440l-89-66 41-3 76 125" />
    <path fill="#191917" d="M150 608l-9-30 14-42-4 30" />
    <path fill="#06070a" d="M703 486l6-25 5 1 3 30" />
    <path d="M388 152v-33l-14-23 12 50" />
    <path fill="#fff" d="M345 575l42 135-334 89 10-80" />
    <path d="M373 43l35 2 12 35-19-42" />
    <path fill="#fff" d="M-30 503l64 190-4-275 23 13" />
    <path fill="#383638" d="M164 118l11 26-6-61 18 6" />
    <path fill="#fff" d="M343 274l297 186-282 2 12-196" />
    <path fill="#8e8588" d="M366 465l68 6 55 16-132-1" />
    <path fill="#908587" d="M469 621l4 96 8 4 9-108" />
    <path fill="#f5f6f7" d="M187 273l162-166-126 158-12 26" />
    <path fill="#010101" d="M230 252l-15-14 27 16 22-35" />
    <path fill="#fff" d="M445 699l-85-202-139 76 148-8m5-596L206 1l183 77-20 26" />
    <path d="M232 218l45-48-34 47-21 14" />
    <path fill="#1e1a1d" d="M384 304l-26-59-3-18-9-41" />
    <path fill="#b2cdb4" d="M821 50l111 23-144-7-126-1" />
    <path fill="#fff" d="M826 625l18 57 4-132-268 59M293 503l-40-9 70 8-14-22" />
    <path fill="#373e3e" d="M173 347l24 36 4-47-35 50" />
    <path fill="#2a1111" d="M240 557l-44-14 41 7 34-16" />
    <path fill="#fff" d="M161 526l-30 217-38-86 109-110m3 52l18 170 5-226-25 54" />
    <path fill="#fdb792" d="M366 548l-18 68 33-42 129-2" />
    <path fill="#fff" d="M1034 256l-482-9 51 11-3 48M521 30L418 253l-21-14 198-89" />
    <path fill="#79797c" d="M652 239l-66 8 61-14 4 144" />
    <path fill="#fff" d="M262 115l83-146-156 176-6-50m466 294l213-106-108-136-16 252" />
    <path fill="#29302f" d="M333 242l-13-52 10 7 17 86" />
    <path fill="#53906f" d="M496 196l21 52-27-1-25-39" />
    <path fill="#fff" d="M893 367l-87-149 26 179 185 3M374 107l-50-30-62 75 77 56" />
    <path fill="#76767a" d="M646 7h138l-122 6 32 44" />
    <path fill="#fff" d="M125 529l-3-36-100 12 55 29m937-236L789 134l-80-5 304-61" />
    <path fill="#515154" d="M1055 5H951l-77 3 78 1" />
    <path fill="#3f3a3e" d="M441 521h216l-11-3" />
    <path fill="#fff" d="M480 320l30 11-8-72 25 5" />
    <path fill="#5a595c" d="M479 551l-6-4h128l-6 4" />
    <path fill="#99e4a3" d="M909 314l-32 52 75-88 70 24" />
    <path fill="#fff" d="M573 491L262 340l387 53 6 62" />
    <path fill="#3a4f44" d="M231 141l-11-23 45 1-53-24" />
    <path fill="#2c302f" d="M151 519l-8 88 15-82 35-20" />
    <path fill="#fff" d="M603 262l38-50 3-174-38-14" />
    <path fill="#454548" d="M1015 566V457l-19 75 3 58" />
    <path fill="#6b6c72" d="M540 644l1 6 1-1 171-3" />
    <path fill="#fcffff" d="M520 701l-201-31 265 10 131 21" />
    <path fill="#fff" d="M603-13L462 217l-70-5 15-128m648 498l-31 37-131-8 92-36M292-31L-31 4l86 126 58-10" />
    <path fill="#3e3c3e" d="M511 333h-40l7-39 4 31" />
    <path fill="#a1a0a3" d="M652 84l7 31-44-18-4-8" />
    <path fill="#716f72" d="M659 704l-60-2-131 2 151 3" />
    <path fill="#fff" d="M166 333l28 5 11-22-28-19" />
    <path fill="#f3f4ff" d="M722 541l-11-48-11 25 127 13" />
    <path fill="#050a0a" d="M183 283l25 13 19-13 9 15" />
    <path fill="#0c0c0e" d="M395 155l-24 25 18-48-4 16" />
    <path fill="#1d1c1d" d="M31 116l11 10-28 15 10 23" />
    <path fill="#fff" d="M179 247l67-49 7-51-33-11m-21 244l-230-45v73l282-1" />
    <path fill="#85b819" d="M217 26l55 10-45 9-10 46" />
    <path fill="#000603" d="M132 538l-11 54 18-53-4-20" />
    <path fill="#1d1822" d="M368 300l-7 34-3-37 21-16" />
    <path fill="#525153" d="M29 416l-17 16 6 11 8 16" />
    <path fill="#5a5a5b" d="M849 250l30-35 27 14-49 2" />
    <path fill="#010000" d="M272 103l-6-1 37-27 9 1" />
    <path fill="#fff" d="M394 216l254-99-294 84 19 71" />
    <path fill="#9a9a9d" d="M647 178l-60-17 68-4-5 96" />
    <path fill="#ffe0de" d="M141 601l7-62 8-40-32 91" />
    <path fill="#2e3636" d="M213 584l-17 27-19-7 2 17" />
    <path fill="#cfccce" d="M105 145l-1-18-62 14 23 11" />
    <path d="M222 131l9 5-53 18 28-3m652 474l-3-9-7 29 6 8" />
    <path fill="#7e7e82" d="M692 676l-40 3-140-5 137-1" />
    <path fill="#414142" d="M279 503l-14 47 8-51-18-51" />
    <path fill="#4a695f" d="M734 180h-4l8 11-38-5" />
    <path fill="#fff" d="M363 473l-70-221-105 224-118-41m33 53l27-21-27-3-8 9" />
    <path fill="#daa4a1" d="M969 75l-25-38-63 25 111-17" />
    <path fill="#fff" d="M367 320l-27-18-11 11 1 17" />
    <path fill="#545455" d="M869 240l-48-52-81-85 43 52" />
    <path fill="#010005" d="M327 333l-5-26 9 24 34 21" />
    <path d="M279 202l-45 51 51-51-26-22" />
    <path fill="#6a6767" d="M709 341l26 12-41 2-6-2" />
    <path fill="#3e3e3f" d="M313 520l-13-19-34 14 63-12" />
    <path fill="#e6e7d5" d="M866 403l-5 218 11 90 1-231" />
    <path fill="#79e3ff" d="M461 685l-1 13-76 3-32-19" />
    <path d="M60 635l-18 19 33-20-7 8" />
    <path fill="#88878b" d="M646 18l8-23-3 42-62-22" />
    <path fill="#363637" d="M732 105l-2 18 27-14-12-3" />
    <path fill="#1e1d1d" d="M53 722l17-28-16 56 6 9" />
    <path fill="#0b0a0a" d="M44 425l67 37-4 1-25-12" />
    <path fill="#6b7258" d="M918 707l72 1-152-6 217 2" />
    <path d="M245 460l30 24-45-27-21 7" />
    <path fill="#878847" d="M886 670l-199 5 166 6 34 28" />
    <path fill="#4e5050" d="M170 327l-18-32 18 8-25 29" />
    <path fill="#fff" d="M157 467l12-123-182-219 1 255" />
    <path fill="#494547" d="M484 335l37-17-15-24 14 36" />
    <path fill="#7a7a7b" d="M854 224l34 46-23 17 40-5" />
    <path fill="#b1b1a5" d="M762 580l27-5-10-127 2-27" />
    <path fill="#66666a" d="M895 8l-88-4-73 2 33 3" />
    <path fill="#3d4e4d" d="M195 481l-48-13 24 15 52-29" />
    <path fill="#fff" d="M79 628l-104 13-6-78 151 17" />
    <path fill="#dad8b6" d="M803 696l-12-81-34 5 38 88" />
    <path fill="#fff" d="M210 564l262-45-209-9 189 90M289 448l145-174 17-120 46 134" />
    <path fill="#282725" d="M206 543l-22-23 12 27-14 45" />
    <path fill="#cca49f" d="M1011 204l-70 2 16-16 43-1" />
    <path fill="#eb1f24" d="M169 451l3-20 32-23h-44" />
    <path fill="#4b4b4c" d="M972 649l-55-3 85-1 8 1" />
    <path fill="#f0fff8" d="M263 131l-40 2 48-50-91-15" />
    <path fill="#49494d" d="M1016 117l-1 60 3 11-1-159" />
    <path fill="#191819" d="M130 115l-20 16-45-4-19 14" />
    <path fill="#6d6e76" d="M825 549l-22-2-215 2 21 3" />
    <path fill="#343838" d="M227 333l-19-8 1-20-35-10" />
    <path d="M57 152l42-4-68 18 12 9" />
    <path fill="#49494a" d="M306 477l25 3-9 27 18 2" />
    <path fill="#f2f3f9" d="M749 488l-37 1 23-47 111 45" />
    <path fill="#3f3d3e" d="M78 724l-23-33 34-6-28-5" />
    <path fill="#fae9e7" d="M158 408l49 46-11 8-7-39" />
    <path fill="#264134" d="M256 164l12-76-5 70 28 33" />
    <path fill="#fff" d="M389 552l81 8-5-105-9 90" />
    <path fill="#4c4b4d" d="M187 305l-16-41 34-49-22 44" />
    <path fill="#242a2a" d="M216 329l-46 14-20-18 42 18" />
    <path fill="#463a00" d="M915 535l6-39-10-8 1 60" />
    <path fill="#5e6727" d="M823 523l-32-33 81-1-48 5" />
    <path fill="#fff" d="M385 131l167-30 60-12-165-57m324 19l284-39-359-3 92 143" />
    <path fill="#85848a" d="M932 446l-36 1 35-49 2-17" />
    <path fill="#2f2423" d="M211 580l12-38-17 32v-3" />
    <path fill="#75d3fc" d="M372 522l100 20-103 4 4-3" />
    <path fill="#fff" d="M215 293l18-19-22-37-26 24" />
    <path d="M143 108l30 6-21 4-18-10" />
    <path fill="#fff" d="M-8 799l-23-137 66 64-3 59" />
    <path fill="#5b5b4f" d="M1013 493l-10-38v34l-147 3" />
    <path fill="#232325" d="M376 53l-4-14 17 3 24-17" />
    <path fill="#71ce89" d="M454 503l-13 14-63-3-6-16" />
  </g>
</svg>