<svg version="1.1" viewBox="0 0 1024 768" width="1024" height="768" xmlns="http://www.w3.org/2000/svg">
  <g fill-opacity=".5">
    <path fill="#303030" d="M269 209l-12-20-5 10 14 10" />
    <path fill="#fff" d="M651 246l101 121-51 33 59-100m249 10l-9 73-33-114-23 22" />
    <path fill="#a3a3a6" d="M804 361l42-12-53-6 11 3" />
    <path fill="#1e1d1d" d="M196 385l2-26v-40l-5 52" />
    <path fill="#e30d13" d="M161 446l9-12-3-30-6 24" />
    <path fill="#fff" d="M901 452l-7-91-132 23 150-7" />
    <path fill="#949396" d="M649 449l21-25 13-6-6-15" />
    <path fill="#fff" d="M206 593l25-41-16 127-6-44M366 78l-49 95-28-86 84 3M102 467l10 22 11-24-14-4m49-316l88 58-129 65 66-120" />
    <path d="M198 234l9 1-29 15 1 8" />
    <path fill="#f38247" d="M366 591l12-52-7 20-13 51" />
    <path fill="#fff" d="M599 123l-183 62-26-101 19-4" />
    <path fill="#3a3a28" d="M223 82l-1-15-1 25-14 10" />
    <path fill="#2f3c3c" d="M159 543l-28-2 6 5 7 1" />
    <path fill="#fff" d="M329 219l9 72-98 63-7-73" />
    <path fill="#fff" d="M324 314l-119 18-3 103 91 33" />
    <path fill="#1b1b1b" d="M308 76l36-1-39 8-8-13" />
    <path fill="#040705" d="M345 280l-6-40 1 73 4-58" />
    <path fill="#f2f2f3" d="M800 459l-16-63 20 29-54 52" />
    <path fill="#fdbab6" d="M928 41l60 7-86 14-1-17" />
    <path fill="#1f1f20" d="M416 62l-16-22 14 12 15-5" />
    <path fill="#7f7e81" d="M977 451l-19 93-1 41 19-21" />
    <path fill="#ed2a2f" d="M95 576l15-2 1-20-6-23" />
    <path d="M1009 527l4 58v-64l-3-41" />
    <path fill="#fff" d="M655 10h191l76 60-117-29" />
    <path fill="#fdfdfe" d="M157 327l-6 17-29 155 49-155" />
    <path fill="#c8c7c8" d="M822 101l23 2 11 7-99 10" />
    <path fill="#fff" d="M360 290l-18-9v-6l32 5" />
    <path fill="#4e4f4f" d="M254 274l-24-7 8 7 7 5" />
    <path fill="#464b46" d="M848 248l10-7 13 4-14-20" />
    <path fill="#303030" d="M132 107v-2l10 10-8-23" />
    <path fill="#fff" d="M185 504l20-33 29 80-36-18" />
    <path fill="#8a8a8d" d="M570 675l7-31-12 2v31" />
    <path fill="#111112" d="M36 167l38-14-33 19 4 11" />
    <path fill="#2d2c2c" d="M591 646l51-1 9 2h-25" />
    <path fill="#7a7a7a" d="M880 252l99 111 62 61-195-203" />
    <path fill="#fff" d="M61 693l-12-7 33-18-25-22" />
    <path fill="#514f51" d="M282 87l20 1-20-8-6-6" />
    <path d="M123 474l-3-15 15 21-6-3" />
    <path fill="#fff" d="M36 799l-2-98 29 9-94 28" />
    <path fill="#feffff" d="M148 573l15 58 8-110-12 13" />
    <path fill="#747272" d="M589 376l2-84 10-34 1 92" />
    <path fill="#3a8129" d="M829 530l10 16-8 8-5-3" />
    <path fill="#fff" d="M361 530l-28-47 21-145 21-7" />
    <path fill="#ebee9a" d="M892 570l14-87 6 40-33-36" />
    <path fill="#030202" d="M239 219l-28 17 4 5 58-68" />
    <path fill="#015025" d="M362 251l-16-2-7 43 1-35" />
    <path fill="#f5f6f6" d="M82 135l4-4h6l-1 22" />
    <path fill="#251e25" d="M293 200l-23-31 33 31-18-10" />
    <path fill="#fff" d="M365 70l14-24-51-30 19 62" />
    <path fill="#9cf9c5" d="M249 136l-33-6 8-13 40 5" />
    <path fill="#fff" d="M292 402L190 287l-1 10 152 50" />
    <path fill="#fafafb" d="M964 211l37 39-89-24-66-2" />
    <path fill="#fff" d="M638 448L534 249l118 235 94-36m-624 47l-18-3-42 41 52 1" />
    <path fill="#665e21" d="M778 672l11 48-15 14-6-4" />
    <path fill="#fff" d="M591 78l27-21 31-31v61" />
    <path fill="#818081" d="M652 11l93 103-43-54-47-48" />
    <path fill="#300b0a" d="M174 503v4l15 3-21 6" />
    <path fill="#1c1e1e" d="M207 371l-31-5-7-28 4 31" />
    <path fill="#fff" d="M214 75l6-101-21 114 66-11" />
    <path fill="#161518" d="M363 334l-15 2-27-1 19 5" />
    <path fill="#767475" d="M588 108l-6 39 23-57-22 7" />
    <path fill="#feffff" d="M620 799l-331-22 242-71 80-1" />
    <path fill="#2c3938" d="M129 535l27-7v17l-1-10" />
    <path fill="#fff" d="M601 244l-11-15 56 33-37 42" />
    <path fill="#737154" d="M628 673l118 1 34-1-66 4" />
    <path fill="#fff" d="M260 176l-37-36-25 93 19 1" />
    <path fill="#48444b" d="M392 283l-29-4 27-2v6" />
    <path fill="#2a1c1c" d="M180 512l16-36 36-20-38 15" />
    <path fill="#fff" d="M556 298h-34l-5 22 101 134" />
    <path fill="#fff" d="M598 357l49-40v52l-72-15" />
    <path fill="#363335" d="M527 296l-32-15 28 19 21-44" />
    <path fill="#feffff" d="M907 617l-147-4 206-58-86-3" />
    <path fill="#f2eea1" d="M791 737l-4-91-59 10 76 23" />
    <path fill="#f6f6f5" d="M577 678l84-1 48 2-8 20" />
    <path fill="#fff" d="M174 599l-53 20-83 180 151-128" />
    <path fill="#61645b" d="M1007 491l48 1-400-2 332-1" />
    <path fill="#ed1018" d="M199 403l-5 46-32-7 42 5" />
    <path fill="#fff" d="M649 228l-1-49-45-21 7 73" />
    <path fill="#393c3c" d="M215 618l-37-9 8-1 12-2" />
    <path fill="#3e343a" d="M265 152l-12 11 8 1 24 25" />
    <path fill="#fff" d="M22 442l-52-41v245l52 66" />
    <path fill="#f8f8f7" d="M278 494l8-1 9 9-2-13" />
    <path fill="#0a0a0a" d="M52 675l-7 15 2-10-7-20" />
    <path fill="#424142" d="M42 747l-12-10 31 14-1-14" />
    <path fill="#292d29" d="M468 205l26 31-11-14 14 41" />
    <path fill="#fff" d="M221 244l-35 35-3-18 12-20" />
    <path fill="#212121" d="M358 80l3 10 25 25-42-36" />
    <path fill="#c0ddd0" d="M981 311l-16-54-30 34 60-25" />
    <path fill="#fff" d="M658 645l-26-28-139-40 285 2" />
    <path fill="#fefdf5" d="M916 527l5 19 38 1-3-27" />
    <path fill="#fff" d="M136 376l90 5-24 22-220 8" />
    <path fill="#909091" d="M816 172h-23l8-19-2 35" />
    <path fill="#fff" d="M210 295l134 61 5 148-142-194m782 90l42 6-7 174-8-166" />
    <path fill="#c8d0d5" d="M502 731l-32 5-5-31 33 7" />
    <path fill="#fff" d="M82 126l-23 4-24-7L92-30M-31 285l202 14-29-147-25-2" />
    <path fill="#111212" d="M283 497l-29-29-36-9 39 6" />
    <path fill="#ffb3b2" d="M195 582l-3-5 20-42-7 45" />
    <path fill="#fff" d="M39 449l-13-10-4-6 17-14m727-61l143-55-254-7 155 63m188 86l-58 4 56 20 6-21" />
    <path fill="#2d2d2c" d="M386 85l-8 8-14-25v13" />
    <path fill="#fafafa" d="M506 324l-24-19 32-2-5-37" />
    <path fill="#a0a0a1" d="M613 376l51-3-20 18-38-2" />
    <path fill="#e5e2e3" d="M118 144l7-3-15-20 7 25" />
    <path fill="#282728" d="M56 721l-19 4 41-17-10 7" />
    <path fill="#fff" d="M758 431l-17-31 42 5-6 33" />
    <path fill="#7e7e81" d="M924 6l85 1 43 9-21-5" />
    <path fill="#fff" d="M330 78l-51 20-15 49 113 18" />
    <path fill="#394040" d="M60 636l-28 20 16-9 24-9" />
    <path fill="#29292a" d="M1009 672l2 28 6-54-6-31" />
    <path fill="#fff" d="M1041 735l-331-2-6-28-50 94M444 685l-251-27 221 15 59-4" />
    <path fill="#fbffff" d="M155 542l9-19 36 18-19 45" />
    <path fill="#78722e" d="M717 697l18 30-30 4 1-59" />
    <path fill="#7c7b7c" d="M973 363l-7-14-109-120 106 112" />
    <path fill="#2f2f30" d="M24 412v10l28-4-34-6" />
    <path fill="#fff" d="M386 46l25 7-15 24-18-18" />
    <path fill="#000404" d="M88 654l25-32 6-4 3 1" />
    <path fill="#f6f6f7" d="M886 427l56 93-41-84-8 64" />
    <path fill="#fff" d="M608 166l-224-8v10l27 21m442 214l-31 24 5 82-10-103" />
    <path fill="#353b3a" d="M182 475h17l-7 12-7-16" />
    <path fill="#1d1e1e" d="M357 242l14 38-18-83-5 1" />
    <path d="M100 127l-40 5 33-8 4-2" />
    <path fill="#f6f1f4" d="M560 668l-58 5-25-24 88-2" />
    <path fill="#bcb8b9" d="M521 617l-58 4 13-6 21 41" />
    <path fill="#fff" d="M67 799l-8-75 158-119 182 193" />
    <path fill="#ececea" d="M976 691l17 2 7-43-21-1" />
    <path fill="#fff" d="M465 514l-127 8 106 6 32 3M869 67l-98 3-26-55-13 79" />
    <path fill="#fffeff" d="M200 215l62-61-6-12-22 6" />
    <path fill="#929394" d="M792 383l-13 4 28 5 33-8" />
    <path fill="#93c12e" d="M391 218l42-5 6 16-43-5" />
    <path fill="#fff" d="M358 312l4 16-21 3-14-13" />
    <path fill="#61672b" d="M822 703l82 2-122 1 42 28" />
    <path fill="#fff" d="M741 110l12 11 6 13-16 12" />
    <path fill="#fefdfe" d="M56 720l10-13-16-17-12 5" />
    <path fill="#393839" d="M54 147l-8-14 14-2-9 40" />
    <path fill="#fff" d="M709 398l6-11 1-42-53 53m-62 248l-81-1 3-94 90 2M54 293l57 163-53-24-9-10" />
    <path fill="#c7c7c8" d="M875 206l10-2 22-1-10-26" />
    <path fill="#fff" d="M602 216l-23 8 12 107-81-121" />
    <path fill="#fdf3f2" d="M102 566l-5 39 16-20-41-48" />
    <path fill="#fff" d="M168 375l-27 98-7 2-12-18m254 251l68 91-87-100 149 2" />
    <path fill="#027537" d="M472 208l-1 12 6-14 23 6" />
    <path fill="#f3f3f3" d="M828 262l-24 129 20-74 48-81" />
    <path fill="#060506" d="M116 120l10 19v-18l-76 12" />
    <path fill="#a19ca2" d="M723 109l14-45h-48l45-10" />
    <path fill="#0b0b0a" d="M317 481l-10-4-36 18 41-14" />
    <path fill="#4a4302" d="M920 735l-9-11 3-6v-25" />
    <path fill="#665f69" d="M297 210l13-13-3 16-12-4" />
    <path fill="#131212" d="M160 130l-15 22 33-23-17 10" />
    <path fill="#332e31" d="M274 109l17-27-20 20-14-15" />
    <path fill="#fff" d="M580 127l72-27-53 86 19-64" />
    <path fill="#6f6e70" d="M471 487l11 2 88 2-94 2" />
    <path fill="#312e18" d="M852 678l4-34 1-26-6 3" />
    <path fill="#363636" d="M866 235l6-18-9 11-6 16" />
    <path fill="#e41a20" d="M79 554l6 10-16-32 1 44" />
    <path fill="#fcfbfc" d="M57 154l-27-19-2 25 16 6" />
    <path fill="#6d6f3a" d="M795 521l41-2-74-2-46 3" />
    <path fill="#94c527" d="M390 256l6-42 5 36-6 10" />
    <path fill="#141212" d="M89 676l3-26-7 30-29 10" />
    <path fill="#fff" d="M290 187l33 11-7-119-49 80" />
    <path fill="#6e8451" d="M918 552l-13-34-63 2 54 2" />
    <path fill="#868688" d="M758 161l-21 3 25-32-12 26" />
    <path fill="#2d2b2c" d="M515 312l-17-15 21 9-10 25" />
    <path fill="#036430" d="M217 140l-3 1 6-21 7-14" />
    <path fill="#fff" d="M-16 171L2 453l92-216-64-69m659-23l85 70 30-40-73-16" />
    <path fill="#f7f7f9" d="M876 427l71 1-76-25h81" />
    <path fill="#2d2e38" d="M709 606l8 38-11-3 4-30" />
    <path fill="#fff" d="M380 549L150 681l216-43-40-135" />
    <path fill="#fafbfa" d="M203 328l-4-25 6-51-7 81" />
    <path fill="#9b9b9c" d="M1006 597l2 16 4 168-4-60" />
    <path fill="#fff" d="M643 4l-34 17-34-52L798 5M426 164l-50-96-7 6 65 51m-267-13l2-96L-2-31l154 143" />
    <path fill="#adb671" d="M852 686l-34 7 10 40 1-9" />
    <path fill="#fff" d="M484 320l14 13 18-25-24 1" />
    <path fill="#fdffff" d="M173 576l-5-30-33 53-14-13" />
    <path fill="#7e7e7f" d="M726 9L623 7l110-2 134 2" />
    <path fill="#fff" d="M989 310l-1 49 25 37 1-67m-611-18l-49-114 306-9-291-8m49 258l94-110 66 39 84 60" />
    <path fill="#545555" d="M756 124l7-7-35-22 24 21" />
    <path fill="#fff" d="M230 141l-20 6 6 46 42-45" />
    <path fill="#252525" d="M127 490l-5 14 8-7-35-13" />
    <path fill="#0d110f" d="M223 555l-17 29-8 26 12-43" />
    <path fill="#fff" d="M725 87l-4-43L991 9l-310 8" />
    <path fill="#1a1c1c" d="M201 307l-24-9-20 19 24-25" />
    <path fill="#3b3b3b" d="M326 489l-11 31-29-20 27 14" />
    <path fill="#76d3f5" d="M435 699l-65 2 5-22 20 18" />
    <path fill="#fff" d="M617 99L418-31l-35 74-68-46" />
    <path fill="#0d1313" d="M136 528l18 5h-23l-1 34" />
  </g>
</svg>