<svg version="1.1" viewBox="0 0 1024 768" xmlns="http://www.w3.org/2000/svg">
  <path fill="#e6e6e2" d="M0 0h1024v768H0z" />
  <g fill-opacity=".5">
    <g class="SVG--0">
      <path fill="#8b8720" d="M719.914 646.78l209.43-7.02-12.664 89.454-243.394 7.307" />
      <path fill="#9d9e87" d="M802.38 433.017l-133.02 113.09 352.29 34.458-10.703-150.086" />
      <path fill="#c39297" d="M274.253 613.64l-86.435-239.805L35.713 666.8l129.93-49.666" />
      <path fill="#2b2b2f" d="M1018.602 744.873l-58.77-134.695-.702 117.66 51.847-114.01" />
      <path fill="#7b8382" d="M213.42 89.654l-215.396 46.38 45.332 25.93 245.528-18.712" />
      <path fill="#26262a" d="M293.048 194.04l-59.123 64.684L206.04 243.1l68.124-73.905" />
      <path fill="#82986f" d="M282.556 183.54l53.587 53.506L320.6 347.173l126.536-121.497" />
      <path fill="#676a6d" d="M162.023 472.82l-131.61-59.793-16.356 27.867L120.28 499.82" />
      <path fill="#1e1e22" d="M380.87 175.36l12.035-42.302L354.6 85.77l29.983-58.005" />
      <path fill="#3c5a4d" d="M486.936 188.766l40.338 157.594-59.404-141.803 81.473 84.757" />
      <path fill="#91797d" d="M249.08 267.274l-49.572 87.885 3.11 106.79-54.645-159.81" />
      <path fill="#7e8283" d="M31.748 799l175.677-345.87L18.678 712.663l53.127 82.55" />
      <path fill="#514d52" d="M591.268 144.216L604.77 313.26l-2.504 37.673-15.855 42.988" />
      <path fill="#f90006" d="M112.36 534.222l-5.15 37.666-37.547 8.973-3.982-46.784" />
      <path fill="#fff" d="M-31 288.535l211.813 82.4 418.952-45.473-235.41 177.207" />
      <path fill="#0d0d19" d="M1016.653 468.243l-21.64-7.18 3.226 73.458 13.756 56.582" />
      <path fill="#87c505" d="M267.58 77.743l-9.992-51.865-32.604 2.517-18.682 42.257" />
      <path fill="#8a8b4a" d="M851.992 582.895l35.663-12.59-11.83-105.366-77.572 32.992" />
      <path fill="#434347" d="M308.724 492.27l-71.767-38.588 38.656 44.206-21.672 51.833" />
      <path fill="#98aeaa" d="M502.977 458.94l-4.518 124.182-141.747-109.817 95.243-7.62" />
      <path fill="#fff" d="M390.037 160.396l-31.72 79.073 334.32 234.023-299.92-5.218" />
      <path fill="#151519" d="M271.157 85.936l153.01-9.66-35.785 9.37-69.56-13.56" />
      <path fill="#fff" d="M642.75 768.792L192.37 594.935l-29.603-119.96-36.094 301.623" />
      <path fill="#858480" d="M705.804 597.248l.573-137.633-70.666-28.71 126.787 3.24" />
      <path fill="#fff" d="M923.035 485.507L923.49 799l39.133-357.742-353.127 13.03" />
      <path fill="#656368" d="M586.1 20.456l-3.763 86.186 16.278 73.028 4.623-159.628" />
      <path fill="#fdfce7" d="M742.2 451.834l-7.464 211.29L727.426 799l90.185-258.84" />
      <path fill="#fff" d="M-31 198.61L145.697 496.36l31.57-397.773 75.16 24.396" />
      <path fill="#5e5b17" d="M823.312 733.22l67.384-51.797-127.198 26.384-1.052 22.718" />
      <path fill="#ff2a2f" d="M267.884 563.354l9.748 52.272-51.114-4.4 4.475-39.073" />
      <path fill="#636367" d="M758.606 142.55l56.94 42.623-48.09-58.954L677.28 36.62" />
      <path fill="#9cbfbe" d="M360.476 620.037l141.61 2.65 20.463 83.72-141.21-3.926" />
      <path fill="#1d171d" d="M777.416 358.832l27.26.592 8.44 21.85-44.395-8.71" />
      <path fill="#fff" d="M1013.39 17.986l-4.35 326.035-361.35 2.47L856.54 5.75" />
      <path fill="#454547" d="M847.92 617.437l-3.02 26.265 33.933 9.13 6.94-36.77" />
      <path fill="#fff" d="M273.534 517.457l-53.456-58.003-34.095 37.466 26.372 61.61" />
      <path fill="#313133" d="M887.906 212.957L827.5 257.374l45.135-14.125-31.365-23.623" />
      <path fill="#4c6157" d="M250.278 139.014l59.382-74.072-87.54 69.168-57.028 21.4" />
      <path fill="#fff" d="M315.71 204.985l10.015-4.515-33.644 302.92-85.72-194.45" />
      <path fill="#29292a" d="M996.192 623.117l18.16-15.877-.16 122.366-13.95.255" />
      <path fill="#fff" d="M131.6 799L-31 408.562 100.3 604.6l-53.45 54.624" />
      <path fill="#151619" d="M187.134 302.174l-3.564-50.655 54.914-25.77-66.573 15.11" />
      <path fill="#171418" d="M31.617 173.546l-16.428-26.97 24.646 14.43 95.953-23.04" />
      <path fill="#16141b" d="M356.015 344.308l5.31-58.73 14.207 49.69-52.175-1.635" />
      <path fill="#ff2d32" d="M205.795 411.836l-5.678 40.725-46.1-5.312 6.69-41.22" />
      <path d="M373.05 186.647l-31.846 16.664 36.95-39.83 10.57-17.33" />
      <path fill="#fff" d="M389.63 189.76l194.575 28.45L579.215-.88l-142.58-.516M-31 761.377L733.576 799 695.59 672.27l-2.922 38.95" />
      <path d="M714.576 647.568l2.218-30.7-9.647.11-.36 35.832" />
      <path fill="#fff" d="M-.952 125.542l228.908-43.05L187.84-27.984-13.577-30.92" />
      <path fill="#1b2423" d="M181.043 616.968l26.197-10.878-38.638-1.99 32.24-59.076" />
      <path fill="#fff" d="M881.41 733.36l-367.172-.636L921.636 799l-26.35-192.062" />
      <path fill="#303d45" d="M322.793 186.28l22.83 111.27 2.99-110.827 32.804 107.224" />
      <path fill="#6f6d74" d="M793.164 427.97l113.91 19.747-174.696-1.56-93.91-1.263" />
      <path fill="#fff" d="M417.215 645.694L130.678 610.01 95.39 653.46 58.114 799" />
      <path fill="#868388" d="M531.56 280.035l12-4.414-42.182 72.544-42.742-42.685" />
      <path fill="#9cd914" d="M391.132 215.215l3.173 45.818 44.09-.213 1.688-47.933" />
      <path fill="#fff" d="M-31 294.963L72.848 442.67l66.718 18.797 73.278 14.662" />
      <path fill="#242022" d="M50.664 157.61l94.096-10.256-97.9-14.978 76.644-14.117" />
      <path fill="#fff" d="M561.347 551.323l-260.74 67.236 283.346 15.528L849.7 599.673" />
      <path fill="#1e1e21" d="M410.044 76.738l-2.776-22.936-27.596-15.673 45.88 8.89" />
      <path fill="#050205" d="M138.314 133.908l52.302-50.512 22.19 9.283-27.93 2.5" />
      <path fill="#473e3e" d="M268.81 467.294l-49.834-14.854L87.38 626.657 199.284 465.56" />
      <path fill="#525150" d="M219.594 562.47l54.862-21.508-74.247 13.455-45.89-101.95" />
      <path fill="#68686b" d="M314.648 523.093l14.785-23.383-7.97-29.366-44.69 19.148" />
      <path fill="#424e49" d="M280.52 187.535L211.02 79.39l-6.74 14.823 62.314 50.544" />
      <path fill="#1a2626" d="M157.356 298.455l25.254 73.918-26.443-51.846 31.36-26.243" />
      <path fill="#fff" d="M246.733 767.5L354.39 799l10.765-336.967-90.35 96.215" />
      <path fill="#000100" d="M124.663 605.24l-28.72 41.463 28.42-31.162 28.838-26.514" />
      <path fill="#020000" d="M216.296 556.935l9.145-3.903-24.62 24.947-1.695 37.062" />
      <path fill="#f2f2f9" d="M997.156 720.136l1.378-285.627-20.552 26.766-.124 234.583" />
      <path fill="#6e7230" d="M919.69 482.938l-46.098 96.53.43-49.732 44.037 26.082" />
      <path fill="#312939" d="M312.462 312.736l32.09-8.753-2.646-67.643-15.052 93.488" />
      <path fill="#fff" d="M-31 334.25l260.318-111.527 30.996-77.006L63.64 155.77M162.325 334.218l489.78 45.146L207.643 460.1l-12.138-176.534M-1.34 759.388l93.583-275.656-16.37-15.08-94.864-40.363" />
      <path fill="#fff" d="M-31 357.27l206.29-220.9-41.833 382.042 58.35-14.385" />
      <path d="M128.532 571.57l6.573-52.856 9.78-6.9-34.57 94.83" />
      <path fill="#fff" d="M17.35 147.453L334.474-31 28.36-9.523l23.356 174.995" />
      <path fill="#6c6d6e" d="M817.825 190.81l51.636 46.876 22.62 24.266 145.764 162.998" />
      <path fill="#fff" d="M660.727 405.438L733.055 90.68l-1.752 4.405-81.38-45.913" />
      <path fill="#83818a" d="M884.565 445.327l114.214 4.007 22.247-69.07-44.002 44.156" />
      <path fill="#2a2829" d="M95.73 468.124l-.198 31 11.048-11.998-85.45-48.976" />
      <path fill="#f5ae87" d="M360.966 778.475l11.66-45.892 144.23-12.358-162.852-13.077" />
      <path fill="#fff" d="M333.14 71.942l51.627-32.284L716.885-2.434 150.363-31" />
      <path fill="#696974" d="M962.845 597.952l-5.833-138.902 16.14 4.076 7.938 90.85" />
      <path fill="#2c2c2d" d="M725 147.723l26.262 5.554 14.056-25.904 25.596 24.432" />
      <path fill="#4c5455" d="M196.662 297.83l-34.83-37.876 51.498 35.394-20.2 105.573" />
      <path fill="#fff" d="M235.915 123.55l103.176 70.388 31.298-20.076 7.228-61.51" />
      <path fill="#494c4d" d="M79.253 687.106L28.48 660.98l21.557-16.53-8.384 51.225" />
      <path fill="#696434" d="M823.427 647.654l-4.954 81.46-25.267-85.46-171.676 3.494" />
      <path fill="#4f4909" d="M910.826 738.527l9.85-10.187 1.522 9.386-5.828-108.443" />
      <path fill="#3e3d48" d="M874.054 457.143l-22.102 40.68-10.935-41.876 41.675 21.407" />
      <path fill="#fff" d="M784.322 615.956l168.002-90.78-32.16-4.75 80.422 97.554" />
      <path fill="#423e41" d="M157.322 136.87L142.42 89.844l19.174 39.256 67.302 33.466" />
      <path fill="#fff" d="M662.34 446.103l187.576 5.133-8.902 79.51-18.73-39.737" />
      <path fill="#f9ffff" d="M350.284 309.033l17.04-124.72 66.41 163.776-98.685-146.017" />
      <path fill="#fff" d="M525.262 311.132l-5.527 481.997L592.59 418.43l-11.232-239.685" />
      <path fill="#51490a" d="M725.415 737.21l-14.19-9.936-4.87-50.64 20.26-5.117" />
      <path fill="#1d3127" d="M256.867 140.38l20.09 59.595-18.354-90.403 19.668-17.067" />
      <path fill="#8e8e90" d="M985.287 738.218l-9.518-130.012-17.91 46.662-1.95 71.907" />
      <path fill="#fff" d="M744.837 7.33l-73 7.856 82.91 87.523L870.39 15.206" />
      <path fill="#0c1213" d="M200.968 297.01l36.778-11.843 4.284-46.77-21.316 55.556" />
      <path fill="#8b8b8f" d="M911.136 403.328L752.53 402.7l-82.994-3.394 166.662-1.093" />
      <path fill="#fff" d="M98.852 397.943l28.472 157.69L-28.43 683.686l144.986-91.428" />
      <path fill="#fff" d="M89.273 451.116L130.28 113.44l31.057 12.284L-31 232.004M290.72 199.427l47.54 52.794-1.033 47.226-140.542 52.56" />
      <path fill="#838184" d="M584.152 202.174L601.34 72.46l1.81 134.935-5.957 49.956" />
      <path fill="#fff" d="M586.044 279.047l-62.298-25.584-112.71-213.43L582.185-31" />
      <path fill="#b0f8f2" d="M466.484 484.693l-96.806 10.985 4.13 50.286 97.268-2.13" />
      <path fill="#998b8e" d="M567.486 651.014l-186.533-33.447-25.14 27.08 50.2-3.503" />
      <path fill="#fff" d="M91.185 666.903L25.943 701.24l27.787 21.83 16.245-79.37M475.21 226.055l-6.992 245.23-205.287-1.824 204.363-255.483" />
      <path fill="#222022" d="M121.507 464.715l-60.202-20.547L48.86 411.28l-24.088 6.844" />
      <path fill="#413f41" d="M511.82 306.87l30.837-19.306-45.603-67.393 41.903 47.904" />
      <path fill="#28292f" d="M718.223 557.255l-9.677-51.035-4.36 37.062 3.786 42.13" />
      <path fill="#4f4d4f" d="M64.13 763.418l-6.08-43.582-20.638 29.494-15.537-73.16" />
      <path fill="#071211" d="M78 641.664l13.4 12.924-23.01-15.742 57.268-55.646" />
      <path fill="#151517" d="M368.182 97.178L342.15 68.722l-12.08 13.172-17.226-18.866" />
      <path fill="#242627" d="M86.503 651.892l8.952 17.572-23.892 22.727 42.164-77.233" />
      <path d="M284.655 184.135l11.872 14.844 34.956 5.032-38.874-15.372" />
      <path fill="#8d8387" d="M485.744 585.8l-20.05-21.43 11.933-106.65 11.246 21.868" />
      <path fill="#201e21" d="M19.26 134.72l52.332-2.138-47.885-11.217-4.454 68.602" />
      <path fill="#2e272d" d="M480.51 308.483l20.87-45.016-.773 16.66 6.93 5.023" />
      <path fill="#fffff8" d="M914.214 474.188l134.664-22.448-157.316-6.87-13.392 134.132" />
      <path fill="#4b4f50" d="M160.383 472.74l-46.823-5.136 24.22 54.113-41.97-35.204" />
      <path fill="#342e19" d="M859.2 552.98l-6.345 28.962-3.822-.964 5.51-78.7" />
      <path fill="#a5a4a8" d="M770.872 345.154l-93.573 3.74 164.673 43.898-104.082.755" />
      <path fill="#7c7a28" d="M772.432 520.76l50.695-30.654 2.444 45.405 89.144-18.084" />
      <path fill="#68756c" d="M1014.32 314.155l2.32 106.55 1.935-190.343-6.538 70.05" />
      <path fill="#fff" d="M242.077 550.224l23.44-77.507-87.95 23.228 24.18 46.204M295.275 753.214L1003.265 799 1055 732.872l-176.914.178" />
      <path fill="#1d1d1f" d="M370.5 101.603l24.035-32.77 2.575 7.548 21.195-6.08" />
      <path fill="#6a6669" d="M574.894 493.912l-181.308-7.737 56.99 2.996 288.546.207" />
      <path fill="#fff" d="M23.93-31l187.187 173.927 5.49-44.076L-31 136.225" />
      <path fill="#262426" d="M152.322 86.907l-20.046 15.107 17.427 5.108-33.112 14.676" />
      <path fill="#090608" d="M131.027 152.397l38.12-19.818-27.264 27.71 4.157-1.936" />
      <path fill="#969698" d="M695.275 439.865l-88.974-65.94 41.236-2.534 75.724 124.765" />
      <path fill="#191917" d="M149.837 608.108l-8.95-30.138 13.97-42.114-4.2 29.974" />
      <path fill="#06070a" d="M703.108 485.48l5.364-24.18 5.716.923 2.42 29.563" />
      <path d="M387.645 152.07l.192-32.97-14.314-22.767L385.5 146.12" />
      <path fill="#fff" d="M345.42 574.75l42.12 135.595L53.27 799l9.75-80.267" />
      <path d="M372.904 43.07l34.836 2.15 12.56 34.468-19.362-42.14" />
      <path fill="#fff" d="M-30.54 502.836l64.7 190.297-3.872-274.99 22.295 12.417" />
      <path fill="#383638" d="M164.39 117.965l10.578 26.433-5.972-61.543 17.796 6.91" />
      <path fill="#fff" d="M342.62 274.293l297.138 185.97-281.944 1.924 12.23-195.778" />
      <path fill="#8e8588" d="M366.148 464.843l67.392 5.682 55.64 16.786-131.82-1.48" />
      <path fill="#908587" d="M469.058 621.078l4.35 95.938 7.8 3.954 8.934-107.87" />
      <path fill="#f5f6f7" d="M186.915 273.28l162.17-165.948L222.448 265.09l-11.45 25.644" />
      <path fill="#010101" d="M230.122 252.266L214.53 238.31l27.802 15.32 21.632-34.904" />
      <path fill="#fff" d="M444.982 698.592l-85.008-201.19-138.855 75.575 147.912-8.168M374.428-31L205.804.914 388.68 78.206l-19.388 25.91" />
      <path d="M231.678 217.805l45.855-48.273-34.28 47.71-20.897 13.97" />
      <path fill="#1e1a1d" d="M383.59 304.195l-25.97-59.412-2.46-17.527-9.218-40.79" />
      <path fill="#b2cdb4" d="M821.1 50.375L932.253 73.14l-144.418-7.167-125.49-1.348" />
      <path fill="#fff" d="M826.2 625.15l18.11 57.176 3.326-132.732-267.65 59.47M293.018 502.654l-39.777-8.65 70.253 7.59-14.175-22.088" />
      <path fill="#373e3e" d="M173.44 347.325l23.364 35.346 3.78-46.85-34.602 49.84" />
      <path fill="#2a1111" d="M239.89 557.203l-43.665-13.963 41.25 7.106 33.822-16.872" />
      <path fill="#fff" d="M161.18 525.543l-29.947 216.99-38.256-86.178 108.535-109.427M204.884 599.316l18.01 169.642 5.3-226.453-25.44 54.373" />
      <path fill="#fdb792" d="M365.7 548.356l-17.805 67.456 32.734-41.96 128.882-1.623" />
      <path fill="#fff" d="M1034.025 256.107l-482.22-9.074 51.02 10.58-2.446 48.424M521.422 29.532L417.586 252.665l-21.084-13.342L594.6 150.396" />
      <path fill="#79797c" d="M651.79 239.072l-65.42 8.002 60.666-13.863 4.383 143.87" />
      <path fill="#fff" d="M261.853 115.177L345.443-31 188.648 144.523l-5.205-50.014M648.673 389.298L861.84 282.654 754.328 146.58l-16.542 252.482" />
      <path fill="#29302f" d="M333.423 241.798l-13.196-51.65 10.064 6.656 16.438 86.08" />
      <path fill="#53906f" d="M495.642 195.812l20.826 52.552-26.8-1.7-24.715-38.292" />
      <path fill="#fff" d="M893.335 367.198l-87.573-148.855 26.49 178.464 184.91 3.348M374.257 106.64l-49.875-30.284-62.565 74.967 76.912 56.69" />
      <path fill="#76767a" d="M646.382 6.61l137.715.23-122.726 5.734L693.93 57.14" />
      <path fill="#fff" d="M125.214 529.38l-3.254-36.097-99.717 12.048 54.776 28.35M1013.556 298.114L788.7 133.534l-79.59-4.575 303.63-61" />
      <path fill="#515154" d="M1055 5.304l-103.924.227-77.6 2.8 77.938.973" />
      <path fill="#3f3a3e" d="M441.07 520.65l105.183.014 110.893-.136-11.55-2.256" />
      <path fill="#fff" d="M479.963 319.88l29.613 10.888-7.636-71.786 25.013 4.975" />
      <path fill="#5a595c" d="M478.673 550.628l-5.2-3.213 127.368-.456-5.382 4.076" />
      <path fill="#99e4a3" d="M908.752 313.736l-32.175 52.278 75.203-87.766 70.402 23.46" />
      <path fill="#fff" d="M572.625 491.164L262.097 339.77l387.05 53.516 5.393 61.968" />
      <path fill="#3a4f44" d="M230.574 140.985L219.68 118l45.08.988-53.27-23.722" />
      <path fill="#2c302f" d="M151.276 519.03l-8.632 87.893 15.346-81.976 34.668-20.223" />
      <path fill="#fff" d="M602.514 261.88l38.367-49.848 3.007-174.427-37.65-13.21" />
      <path fill="#454548" d="M1014.7 566.306l-.1-108.933-18.872 74.987 3.615 57.512" />
      <path fill="#6b6c72" d="M540.006 644.23l1.256 5.523.318-.933 171.615-3.203" />
      <path fill="#fcffff" d="M519.786 700.604L318.638 669.76l264.977 9.717L715 701.13" />
      <path fill="#fff" d="M603.136-13.546l-141.713 230.77-69.845-4.925 15.506-128.035M1055 581.704l-31.31 37.06-130.55-7.812 92.257-36.146M292.737-31L-31 4.192l86.2 125.293 57.43-9.492" />
      <path fill="#3e3c3e" d="M510.903 333.103l-39.77-.2 7.064-39.28 3.41 31.5" />
      <path fill="#a1a0a3" d="M651.857 83.775l6.633 31.472-44.14-18.105-3.468-7.794" />
      <path fill="#716f72" d="M658.934 703.75l-60.058-1.462-130.842 1.546 151.368 3.19" />
      <path fill="#fff" d="M166.405 332.96l28.01 5.19 10.904-21.815-28.183-19.527" />
      <path fill="#f3f4ff" d="M722.148 540.812l-11.458-47.59-10.292 24.673 126.847 13.153" />
      <path fill="#050a0a" d="M183.233 282.53l25.004 12.937 18.833-12.604 8.68 15.58" />
      <path fill="#0c0c0e" d="M394.7 154.533l-23.222 25.256 17.173-47.86-3.296 16.394" />
      <path fill="#1d1c1d" d="M30.81 115.45l11.38 10.706-28.343 15.28 9.994 22.574" />
      <path fill="#fff" d="M178.9 246.566l67.197-48.534 6.802-51.514-33.384-10.22M198.916 380.36L-31 334.576v73.41l282.265-1.35" />
      <path fill="#85b819" d="M217.41 25.683l54.846 10.357-45.66 8.575-9.575 46.702" />
      <path fill="#000603" d="M131.996 537.673l-10.55 54.35 17.236-53.248-3.754-19.31" />
      <path fill="#1d1822" d="M367.47 299.864l-7.01 33.947-2.71-37.112 21.27-15.977" />
      <path fill="#525153" d="M28.845 415.666L11.618 431.68l6.77 11.58 7.962 15.654" />
      <path fill="#5a5a5b" d="M848.615 249.6l30.47-34.67 26.618 14.315-48.632 1.584" />
      <path fill="#010000" d="M271.62 102.68l-6.138-.47 37.715-27.372 8.867.87" />
      <path fill="#fff" d="M393.478 216.082l253.935-98.726-293.476 84.024 19.26 70.256" />
      <path fill="#9a9a9d" d="M646.68 177.64l-60.142-16.874 67.87-4.13-4.917 96.275" />
      <path fill="#ffe0de" d="M141.43 600.727l6.224-61.98 8.706-40.08-32.807 90.933" />
      <path fill="#2e3636" d="M213.3 583.744l-17.592 27.28-18.973-6.72 2.52 16.65" />
      <path fill="#cfccce" d="M105.25 144.966l-1.295-17.917-61.913 14.246 23.05 10.81" />
      <path d="M221.743 131.325l9.59 5.013-53.586 17.174 28.362-2.202M857.216 624.85l-2.924-8.543-7.075 29.14 6.014 7.378" />
      <path fill="#7e7e82" d="M691.792 675.61l-39.507 3.515-140.642-5.35 137.496-1.125" />
      <path fill="#414142" d="M279.388 503.235l-14.464 47.147 7.65-51.16-17.587-50.803" />
      <path fill="#4a695f" d="M733.843 180.13l-3.572-.64 7.817 11.284-38.414-4.6" />
      <path fill="#fff" d="M362.87 473.002L292.522 252.37 187.81 476.483 69.906 435.47M103.187 487.858l26.334-20.61-26.47-2.51-8.198 9.2" />
      <path fill="#daa4a1" d="M969.06 75.383l-25.344-37.857-63.1 25.016 111.09-16.992" />
      <path fill="#fff" d="M367.17 319.657l-27.463-17.594-10.783 10.825.842 17.42" />
      <path fill="#545455" d="M868.88 240.178l-48.06-52.508-80.826-84.532 43.11 51.924" />
      <path fill="#010005" d="M326.948 332.998l-4.942-26.01 8.73 24.227 34.578 20.495" />
      <path d="M279.22 202.146l-45.342 50.685 51.31-50.94-26.348-22.096" />
      <path fill="#6a6767" d="M708.59 341.344l26.032 11.19-40.208 2.68-6.57-2.583" />
      <path fill="#3e3e3f" d="M312.534 519.99l-12.96-19.47-33.753 14.38 62.448-12.076" />
      <path fill="#e6e7d5" d="M866.04 403.32l-4.603 217.673 10.513 90.016.764-231.543" />
      <path fill="#79e3ff" d="M460.87 684.79l-.797 12.94-76.437 3.168-31.835-18.454" />
      <path d="M60.1 635.046l-18.12 19.29 33.21-20.694-6.842 8.265" />
      <path fill="#88878b" d="M645.664 18.348l8.566-23.533-3.482 41.702-61.42-21.607" />
      <path fill="#363637" d="M732.352 105.074l-2.72 17.553 26.88-13.567-11.527-2.983" />
      <path fill="#1e1d1d" d="M53.177 722.364l16.454-28.07-15.628 55.7 5.617 8.756" />
      <path fill="#0b0a0a" d="M44.263 425.11l66.85 36.886-4.197 1.404-24.696-12.518" />
      <path fill="#6b7258" d="M918.29 706.456l71.568 1.114-151.88-5.344L1055 703.582" />
      <path d="M245.333 460.298l29.425 23.61-44.55-26.884-21.183 7.787" />
      <path fill="#878847" d="M886.412 670L687.2 675.116l166.11 5.895 33.613 27.636" />
      <path fill="#4e5050" d="M169.895 327.255L152.3 295.168l17.344 7.73-25.035 29.08" />
      <path fill="#fff" d="M156.897 467.152l11.937-123.06-182.158-218.806 1.5 254.35" />
      <path fill="#494547" d="M484.438 335.312l36.214-17.457-15.068-23.404 14.858 35.945" />
      <path fill="#7a7a7b" d="M853.7 224.222l34.51 45.76-22.883 17.238 39.946-4.86" />
      <path fill="#b1b1a5" d="M762.303 580.395l27.19-5.43-10.884-126.714 1.87-27.662" />
      <path fill="#66666a" d="M894.94 8.43l-87.53-4.107-73.474 2.07 33.026 2.79" />
      <path fill="#3d4e4d" d="M195.283 481.26l-48.478-13.373 24.44 15.54 51.32-29.49" />
      <path fill="#fff" d="M78.867 628.07l-103.902 12.527L-31 562.84l150.636 17.32" />
      <path fill="#dad8b6" d="M803.394 695.746l-12.722-80.414-34.1 4.147 38.03 88.01" />
      <path fill="#fff" d="M210.33 564.273L472.3 519.01l-208.853-8.802 188.747 89.604M289.298 447.75L433.69 273.656l17.098-119.593 46.04 133.746" />
      <path fill="#282725" d="M206.215 542.827l-22.14-22.974 12.454 26.86-14.26 45.322" />
      <path fill="#cca49f" d="M1011.325 203.826l-70.344 1.8 15.93-15.282 42.68-1.664" />
      <path fill="#eb1f24" d="M168.516 451.02l3.008-20.16 32.57-23.294-44.805.592" />
      <path fill="#4b4b4c" d="M972.153 648.956l-55.29-3.397 85.587-1.096 8.79 1.278" />
      <path fill="#f0fff8" d="M262.463 131.023l-39.34 2.32 47.31-50.15-90.924-15.436" />
      <path fill="#49494d" d="M1015.8 116.756l-.304 59.827 2.465 10.99-.76-158.794" />
      <path fill="#191819" d="M129.57 114.98l-19.253 15.712-45.614-4.08-18.773 14.223" />
      <path fill="#6d6e76" d="M824.957 549.37l-21.766-2.398-215.06 1.835 20.735 3.217" />
      <path fill="#343838" d="M227.052 332.537l-18.79-7.227.512-20.16-34.637-10.167" />
      <path d="M57.144 152.186l42.154-3.967-68.364 18.004 12.43 8.37" />
      <path fill="#49494a" d="M305.923 476.967l24.893 2.727-8.413 27.724 17.74 1.14" />
      <path fill="#f2f3f9" d="M748.488 488.2l-36.48.48 22.878-46.38 111.25 44.407" />
      <path fill="#3f3d3e" d="M77.488 723.49l-22.806-32.793 34.528-5.827-28.432-4.125" />
      <path fill="#fae9e7" d="M158 408.36l49.42 46.165-11.047 7.084-7.124-38.414" />
      <path fill="#264134" d="M256.157 164.28l12.3-76.81-5.16 69.913 27.522 33.768" />
      <path fill="#fff" d="M388.552 551.748l81.013 7.842-5.05-104.244-8.52 89.758" />
      <path fill="#4c4b4d" d="M186.994 304.816l-16.127-41.3 34.503-48.75-22.635 43.706" />
      <path fill="#242a2a" d="M216.4 328.754l-46.124 13.858-19.825-17.63 42.045 17.56" />
      <path fill="#463a00" d="M914.764 534.634l6.48-38.807-10.33-7.523 1.893 59.782" />
      <path fill="#5e6727" d="M823.205 522.558l-32.028-32.148 80.582-1.39-47.686 5.404" />
      <path fill="#fff" d="M384.506 131.448L552.01 100.95l60.028-11.846-164.73-57.278M770.862 51.078L1055 11.78 695.706 8.774l91.818 143.212" />
      <path fill="#85848a" d="M931.732 445.842l-35.666 1.554 34.625-49.092 1.945-17.715" />
      <path fill="#2f2423" d="M211.18 580.05l12.087-37.853-17.335 31.67.486-2.636" />
      <path fill="#75d3fc" d="M371.464 522.287l100.267 20.245-102.2 3.034 3.294-2.814" />
      <path fill="#fff" d="M215.23 293.172l17.754-18.86-21.654-36.903-26.19 23.827" />
      <path d="M142.64 107.97l30.8 6.35-21.81 3.54-17.718-9.596" />
      <path fill="#fff" d="M-8.53 799L-31 661.562l65.982 64.255-2.658 59.124" />
      <path fill="#5b5b4f" d="M1013.335 493.377l-9.872-38.557-1.01 34.578-146.395 2.247" />
      <path fill="#232325" d="M376.35 53.385l-4.424-14.6 16.67 2.874 24.38-16.744" />
      <path fill="#71ce89" d="M454.286 503.007l-13.47 13.627-63.076-2.966-5.343-15.73" />
    </g>
    <g class="SVG--1">
      <path fill="#003b1c" d="M339.01 199.645l-39.11 3.725 6.394-1.957 57.636-13.405" />
      <path fill="#ea0d14" d="M74.696 576.762l37.467-4.314-2.06-7.67-46.15 4.244" />
      <path fill="#606063" d="M970.105 403.422l-102.25-3.49L1055 398.675l-26.994.683" />
      <path fill="#fff" d="M23.133 157.176l2.785-22.825 13.82-2.217 6.687 31.446" />
      <path fill="#f5fdf9" d="M106.032 568.365l-20.702-8.74-8.084-19.496 18.62 12.298" />
      <path fill="#fff" d="M971.166 586.844l-188.77-15.455 97.134 37.323 5.59 69.377M125.827 493.708l5.628 18.26 30.87 10.435-3.774-49.39" />
      <path fill="#7a7540" d="M763.142 701.743l23.237-27.62-10.85 33.635-139.08-3.216" />
      <path fill="#f68c54" d="M361.17 612.32l-4.297-19.705-14.65-12.31 27.848-1.44" />
      <path fill="#737074" d="M664.29 438.248l36.472-7.436-43.8 19.072-9.068-54.923" />
      <path fill="#595a50" d="M671.83 518.125l98.405 1.36-66.864 2.286-65.972-1.783" />
      <path fill="#2c2c2c" d="M431.793 85.23l-40.936-8.622-22.526 27.824 40.996-32" />
      <path fill="#666466" d="M584.582 373.8l19.77-5.934-3.488-35.997-18.438 34.25" />
      <path fill="#272726" d="M1003.252 619.167l7.972 4.15 2.972 101.905-11.16 10.59" />
      <path fill="#fcfcff" d="M639.772 523.867l30.14 121.684 31.54-39.84 6.618-82.666" />
      <path fill="#2a2929" d="M26.94 695.226l22.823 60.09-23.806-46.737 24.358-28.706" />
      <path fill="#7ae2a2" d="M437.542 655.906l-63.476-6.656-1.888 22.295 75.29-1.26" />
      <path fill="#414041" d="M113.547 460.97l29.85 24.105-22.13-21.42 3.385-25.795" />
      <path fill="#fff" d="M72.53 634.287l60.084-101.213-10.368 44.794-151.826-7.388" />
      <path fill="#312f31" d="M168.39 126.744l17.248 33.413 4.623-8.364-25.083-30.06" />
      <path fill="#a0adaa" d="M796.025 79.196l31.458-8.34-62.835 59.024 36.675-14.778" />
      <path fill="#111414" d="M155.64 327.406l6.83-25.385 8.445 67.992 4.678-31.58" />
      <path fill="#fff" d="M37.457 697.744l23.608.59-.354 21.394-26.673-1.12M778.28 361.357L764.776 154.04l-71.86 79.525-43.35 7.494" />
      <path fill="#ef580b" d="M369.8 720.71l-2.53 18.173-17.197 14.607-2.11 3.89" />
      <path fill="#40604f" d="M492.77 262.333l51.698.583-47.59-10.378-28.63-54.273" />
      <path fill="#302f2f" d="M190.938 575.52l4.45-22.928-18.47 48.446-13.096-3.95" />
      <path fill="#2a292a" d="M21.736 445.396l56.392 20.297 45.046 33.24-77.35-51.714" />
      <path fill="#d1ffe7" d="M488.07 238.73l-26.468-81.057 49.064 85.93-14.88.52" />
      <path fill="#fff" d="M175.152 512.657l-.35-3.542-39.78 152.666 63.688-116.783M307.82 198.207l-44.31-54.042 38.003-61.62 24.465-3.074" />
      <path d="M320.88 315.013l19.776-12.365-.414-1.176 5.878-15.163" />
      <path fill="#e10d13" d="M68.42 581.55l1.175-6.438 1.805-47.398 10.94 24.548" />
      <path fill="#313233" d="M315.958 462.686l-67.32 92.676 24.434-27.706 17.344-39.108" />
      <path fill="#737172" d="M602.147 175.354l-21.974 76.538.402-4.3 15.52-1.493" />
      <path fill="#fff" d="M103.926 99.555L113.66-31l124.957 96.922 16.616-25.594M479.104 324.766l-9.048-58.148-86.605-6.985-16.645 66.74" />
      <path fill="#333736" d="M142.088 476.775l6.07-4.426-2.297-12.973-25.69 40.445" />
      <path fill="#fff" d="M185.28 366.116l-20.534-10.897 116.63 13.38 58.23-115.524" />
      <path fill="#47464b" d="M847.853 460.45l2.368 25.463 28.943-16.57 2.167 26.592" />
      <path fill="#181819" d="M231.244 248.037L184.94 225.34l17.188 15.432 11.8-4.623" />
      <path fill="#faf5f1" d="M236.303 583.606l6.566-3.197 2.245.67 20.394 31.57" />
      <path fill="#8abc1e" d="M222.932 73.064l37.368 3.243 3.74-36.176-7.502 7.672" />
      <path fill="#646467" d="M1015.27 400.388l-53.688-58.576 34.835 10.546-17.866 4.102" />
      <path fill="#574f13" d="M776.686 730.35l-7.387-34.965 43.406 40.233 16.843-41.153" />
      <path fill="#9e9ca2" d="M921.947 432.667l-75.634-9.384 32.79-29.183 6.988 53.196" />
      <path fill="#fcffff" d="M682.088 87.328l-30.934-47.53.6 225.742 106.58-136.578" />
      <path fill="#fff" d="M568.07 374.9l109.636-3.59-73.64-60.6 3.546 361.663M206.973 297.28l99.486 179.162-35.952 12.887 25.194-187.392" />
      <path fill="#1a4657" d="M898.856 323.617l10.6 1.476-4.916 9.954-8.786 3.016" />
      <path fill="#fff" d="M894.68 445.054l-121.623 19.99-16.1-103.82 24.068 92.054" />
      <path fill="#e40007" d="M245.812 614.662l-18.967-6.686 40.903-13.056-1.074-21.497" />
      <path fill="#585e27" d="M921.488 645.893l-210.428-.183 208.156 3.79-5.824 38.638" />
      <path fill="#fff" d="M125.66 144.82l20.587 2.133 9.116-31.894-28.132 5.066" />
      <path fill="#18101b" d="M365.235 258.85l9.862 23.363 1.152-18.727-41.652 10.57" />
      <path fill="#fff" d="M270.35 268.438l-61.862 39.392-40.367-2.642-2.447 23.485" />
      <path fill="#fff" d="M325.524 207.316l12.16 83.137-147.677 107.732 69.967-160.48M-31 441.566l79.926-19.82-11.187 24.613L.793 405.337" />
      <path fill="#262627" d="M237.484 456.447l30.423 20.347 12.762 65.095-6.906-58.678" />
      <path fill="#fff" d="M266.204 532.767l6.09-35.696-45.615-34.943-39.516 29.41" />
      <path fill="#68686a" d="M648.23 328.473l1.908 82.63 1.35-79.805-1.297-67.64" />
      <path fill="#2a2828" d="M154.734 464.943l1.7 7.008 29.864 28.29-5.28-11.043" />
      <path fill="#4c4d4f" d="M45.754 684.78l-8.96-63.206 14.92 60.036-27.856 11.174" />
      <path fill="#fff" d="M130.566 157.054L52.34 423.876l44.623 31.198 64.58-13.398" />
      <path fill="#b4b4b8" d="M621.108 565.323l-2.073-108.705 19.013 6.515.74 127.96" />
      <path fill="#4c484b" d="M801.814 374.432l1.696 3.466 8.843-26.965-47.66 27.043" />
      <path fill="#000100" d="M235.47 117.533l27.65-2.352-51.16-7.78 4.16.616" />
      <path fill="#fff" d="M470.883 633.744l-5.34 22.447L153.74 640.9l293.8 5.328" />
      <path fill="#fffc92" d="M797.198 494.505l-68.14.512 14.466 24.483 53.995-5.55" />
      <path fill="#fff" d="M1013.276 448.27l13.063-188.096L1055 463.186l-375.863-2.95" />
      <path fill="#0e0d0e" d="M123.4 461.73l-38.974-4.178 24.45-3.58 20.317 21.488" />
      <path fill="#fff" d="M76.462 642.013L53.137 652.49l-.118 28.486 30.83-15.752M425.045 502.743l-13.412-34.492-11.655 46.133-14.238-29.693M81.11 479.648L-31 431.963l6.912 349.068 64.94-124.924M297.882 486.66l6.533 19.398 15.753 2.416-1.368-24.826M940.47 417.368l2.45 27.463 2.015 43.58-26.947.724" />
      <path fill="#6f6d73" d="M875.19 439.558l-116.583-.115 81.812-8.352 28.19 2.598" />
      <path fill="#838c86" d="M1015.67 122.483l4.726 92.036-7.972 95.47 3.638-110.626" />
      <path fill="#050505" d="M375.135 54.677L363 78.76l-10.093 4.882 28.68-17.594" />
      <path fill="#b0aeb0" d="M722.162 333.316L617.166 300.89l-9.206 17.38 15.796-2.312" />
      <path fill="#969698" d="M639.36 519.448l-64.733-.27-6.308-51.762-6.735 57.107" />
      <path fill="#39393a" d="M345.827 335.018l2.698 19.84 10.207-29.267 28.833 2.48" />
      <path fill="#fff" d="M872.03 427.623l6.388 40.12 9.494-67.565 44.354 29.092" />
      <path fill="#ffffba" d="M832.47 674.794l-9.904-23.045 25.73-5.263 2.877 22.874" />
      <path fill="#061009" d="M254.98 142.828L222 134.632l23.206-1.013 24.11 11.358" />
      <path fill="#fff" d="M600.412 646.078l47.07-67.53-272.783-2.992 36.126 24.463" />
      <path fill="#4b4b4a" d="M498.818 210.848l17.104 49.232 35.94 1.405-18.037 8.268" />
      <path fill="#fff" d="M404.813 61.425l-8.254 14.677-20.3-12.117 7.563-18.958" />
      <path fill="#e30810" d="M96.937 543.836l-9.163 4.995-11.566-14.744 34.51-1.16" />
      <path fill="#fffdfd" d="M193.89 411.383l-31.485 34.66 73.506-59.42 118.003 107.666" />
      <path fill="#110e10" d="M134.15 153.685l-14.89-11.994 5.624-25.307-4.036 3.48" />
      <path fill="#000101" d="M86.723 649.606l74.306-73.695-70.86 73.766-.87 19.037" />
      <path fill="#393939" d="M322.054 501.844l.835-22.78 8.193 24.71-34.505 12.28" />
      <path fill="#49494d" d="M1016.993 75.526l-.093-95.878-2.583 49.24 1.636 77.303" />
      <path fill="#232324" d="M746.625 166.348l-2.395-9.052 34.698-23.388-16.052-2.253" />
      <path fill="#05080a" d="M374.11 280.653l-16.7-33.782 23.45 32.22-24.928 29.98" />
      <path fill="#8f8c8d" d="M486.306 670.52l-7.215-60.826-10.896 67.756 182.974-2.057" />
      <path d="M355.736 237.157l.773 1.554-12.205 3.158-7.916-4.58" />
      <path fill="#fffefe" d="M295.95 772.036l-121.897-135.42 26.437-60.774-25.256 18.637" />
      <path fill="#2d2e2f" d="M22.654 157.136l-8.733 10.577 24.856 1.89 16.446 14.382" />
      <path fill="#1f2020" d="M268.017 540.102l-17.423 9.543 4.03 2.694 28.713-49.11" />
      <path fill="#fff" d="M1020.304 747.453l-4.613-314.556L1055 799l-322.12-67.472" />
      <path fill="#857f25" d="M728.217 485.264l-8.696 7.142 3.622 29.41 13.252-6.42" />
      <path fill="#808873" d="M819.91 493.75l-307.1-2.944 260.428-2.416 85.8.3" />
      <path fill="#5a5a5b" d="M648.79 221.772l3.494-84.01 1.136 37.38-3.547-85.99" />
      <path fill="#1c2625" d="M141.954 523.542l-22.425-11.257 13.117-35.872-9.783 22.385" />
      <path fill="#3c3c3e" d="M686.245 220.757l-.156.358 22.1.073-12.182 7.782" />
      <path fill="#80b40e" d="M434.07 226.55l2.87 6.993-.44 27.535-29.543-.565" />
      <path fill="#fff" d="M534.043 481.154l54.946-186.74-18.577-19.418-50.45 23.183" />
      <path fill="#577160" d="M941.314 550.157L799.55 548.1l31.364-.638 129.946-.94" />
      <path fill="#4a444e" d="M332.348 277.69l36.576 18.596-33.346-4.192 19.107 18.286" />
      <path fill="#fff" d="M467.196 139.458l56.458 119.15 66.36-80.884L390.5-31" />
      <path fill="#3f0504" d="M180.71 512.98l2.96-7.157 3.25 27.83 3.854-53.122" />
      <path fill="#5b595a" d="M491.675 293.972l-20.044 43.686 8.918-37.89 47.615 11.196" />
      <path fill="#909090" d="M1011.894 739.562l-4.61-59.135-11.268 60.024 1.545-129.97" />
      <path fill="#1b1b1b" d="M143.056 145.854l.016 20.44 8.072-9.736-34.536-11.856" />
      <path fill="#ec2f34" d="M167.677 440.06l9.77-3.187 30.434 5.717-51.182 10.217" />
      <path fill="#878787" d="M984.904 619.952l-30.667-6.905 21.095 120.363 2.706-109.264" />
      <path fill="#fff" d="M812.104 370.514l110.053-69.186-68.413 81.772-57.023-1.777M204.097 112.08l-4.19 41.406 38.603-78.41 33.864 30.85" />
      <path fill="#fffdb5" d="M731.476 686.8l22.928-40.042 15.946 101.946-36.313-19.398" />
      <path fill="#fff" d="M127.58 799L93.184 650.298l51.194-50.202L390.022 773.52M164.558 304.8L56.683 161.104l39.502-2.29 87.855 126.663" />
      <path fill="#fff" d="M222.876 225.72l46.52-49.702-26.045-36.38L89.814 237.73M198.953 146.187l-25.717-17.278.18-18.39 31.558 22.9" />
      <path fill="#6e6e70" d="M649.61 143.198l-1.4-81.087 2.374-41.948 1.563 22.854" />
      <path fill="#ebe89e" d="M849 661.03l.025 71.626 57.76-5.868-46.193-13.402" />
      <path fill="#313132" d="M388.237 141.95l-13.793-44.884L316.85 63.76l71.717 49.86" />
      <path fill="#8e8d90" d="M613.63 240.993l3.657-11.075 28.36 2.358.62 14.447" />
      <path fill="#fff" d="M-31 463.806l76.583-11.765 44.1 25.704 4.384 49.19" />
      <path fill="#ea1a20" d="M228.933 614.122l2.945-16.67-7.825-22.325 26.388-2.986" />
      <path fill="#fff" d="M255.117-31l286.87 15.076-206.825 66.817-66.883 25.92" />
      <path fill="#888887" d="M657.988 545.2l68.06 5.22-29.71 1.875-103.647-3.978" />
      <path fill="#242425" d="M406.187 42.11l-33.052 7.346 3.296 5.025 26.19-25.374" />
      <path fill="#555256" d="M949.815 438.26l5.814-9.524 36.073 7.43 12.318 10.38" />
      <path fill="#fff" d="M534.36 265.12l-14.08 56.087 52.62 40.512-68.65-103.554" />
      <path fill="#000006" d="M338.542 301.368l10.172 5.966 16.355 1-14.268-5.352" />
      <path fill="#f6d0ce" d="M261.313 582.2l-32.02-2.792 15.934 9.637-25.457 42.063" />
      <path fill="#fff" d="M230.388 461.644l-35.71 69.893 75.257-3.788-15.962-57.843" />
      <path fill="#fdf89e" d="M859.216 519.875l14.975-19.852-48.267-2.004-1.194 15.472" />
      <path fill="#625e3c" d="M734.832 645.25l-32.662 1.204 3.208-32.398 24.733 71.67" />
      <path fill="#2a4245" d="M964.583 65.38l17.525-8.593-4.972 9.63-11.1.25" />
      <path fill="#282423" d="M157.538 595.96l-15.725 6.234 10.556-61.667-10.702 39.864" />
      <path fill="#fff" d="M464.964 445.385l-5.336 219.837L464.29 799l4.522-144.77" />
      <path fill="#0d080b" d="M204.77 90.44l26.16 21.832-36.822-24.64-1.582-11.688" />
      <path fill="#9e9ca0" d="M713.038 413.784l40.654-8.148-8.788-8.827 5.185 31.1" />
      <path fill="#0e0e0e" d="M392.248 86.865L371.87 57.3l18.18 20.07-16.533 23.393" />
      <path fill="#bababd" d="M627.13 743.46l-12.54-121.586 25.538-10.736.792 28.625" />
      <path fill="#fff" d="M264.763 799l105.205-336.664 44.426-33.92-143.226 133.166" />
      <path d="M36.632 737.603l3.998-.02-.1 12.3-4.96 2.707" />
      <path fill="#fff" d="M499.044 160.035l101.33-18.03 48.347-38.926-1.714 45.395" />
      <path fill="#ee1017" d="M205.147 405.983l-10.778 44 6.872-21.836-11.935-18.863" />
      <path fill="#303030" d="M225.22 240.506l-38.503-12.894 52.79 25.722 1.376 23.223" />
      <path fill="#f6ffff" d="M103.21 442.51l103.617 8.79-23.056 40.585-17.377-30.9" />
      <path fill="#fff" d="M859.324 51.944L819.476 177.76l195.732 5.28-2.595-38.785" />
      <path fill="#756f76" d="M896.698 67.577l-14.187 5.357-1.558-11.436 27.044 4.54" />
      <path fill="#322f32" d="M382.4 165.226l-34.863 30.003 28.327-3.794-13.25-8.975" />
      <path fill="#171617" d="M64.122 128.72l5.653 31.8-.49-36.408-1.237 9.796" />
      <path fill="#625d48" d="M883.345 575.833l-6.64-21.648-3.035-90.633-1.287 110" />
      <path fill="#fff" d="M204.075 307.6l-6.826 29.048-34.828-11.215 3.7-17.552M452.882 182.742l44.307 82.97-7.553 28.312-63.543 30.135M179.673 253.177L124.29 147.883 57.154 160.54l-84.388 296.425" />
      <path fill="#242122" d="M514.107 285.16l4.965 28.952-23.934 22.9 18.582-11.535" />
      <path fill="#6d6d70" d="M661.215 400.82l-5.205 1.883 54.56.15-64.662-8.237" />
      <path fill="#fff" d="M361.645 226.55l6.843 33.78 26.292 22.523-13.288-97.96M480.864 316.837l7.35-16.72 12.744 3.968 10.335 19.76" />
      <path fill="#615f4b" d="M904.418 672.57l-5.824 1.06-7.842 3.215 147.81-.97" />
      <path fill="#fff" d="M129.276 517.84l-15.942-6.298-2.68 83.562 14.833-20.542" />
      <path fill="#fcf8a1" d="M884.72 739.847l-2.414-90.646 24.26-4.512 6.064 48.864" />
      <path fill="#2f2f30" d="M381.162 123.37l-4.03-40.797-3.806 29.077 23.598.73" />
      <path fill="#373536" d="M13.258 138.468l35.275-8.662 18.523 44.296-23.8-47.086" />
      <path fill="#142a1e" d="M205.328 143.753l.32 19.976 17.495-36.963-14.622 19.607" />
      <path fill="#fff" d="M374.844 107.395l-50.482 89.25-33.185-7.926 64.257-102.6" />
      <path fill="#9aa0ff" d="M931.067 378.29l-38.454-14.22 7.596-7.968 35.155 13.748" />
      <path fill="#fff" d="M4.82 140.818L105.6 466.09-31 132.633l75.61-9.626" />
      <path fill="#a1f0ea" d="M727.697 169.394l-45.095-11.26-6.985 16.564 30.853 5.396" />
      <path fill="#020202" d="M712.275 528.793l-3.424 3.236-2.79 45.596 8.232-6.143" />
      <path fill="#fff" d="M428.625 480.656l54.678-129.097L409.24 259.1l-46.118 45.575" />
      <path fill="#8a8a8c" d="M649.594 404.665l61.62-54.16-.27-5.717-25.43 19.44" />
      <path fill="#f7b3f8" d="M944.673 233.06l1.198 13.15 27.9 3.955-134.33-5.023" />
      <path fill="#686567" d="M590.273 20.197l-15.47.25 26.938-7.29-9.07 68.197" />
      <path fill="#0f1212" d="M172.287 357.818l1.843-22.503-5.686 36.9 13.498-4.3" />
      <path fill="#fff" d="M465.034 135.185l29.47-87.75-115.433 52.418 2.32 7.153" />
      <path fill="#333e3e" d="M22.99 649.67l55.825-9.755-24.412-4.697 3.352 6.415" />
      <path fill="#686670" d="M1009.363 419.04l-3.02 26.96 1.09 7.67 4.098-8.62" />
      <path fill="#fff" d="M980.363 507.597l6.53-85.476 4.387-4.016-4.39 89.92" />
      <path fill="#000708" d="M184.638 534.74l1.6-20.53 9.347 21.022-.264-4.047" />
      <path fill="#fff" d="M183.625 92.556L-3.422 8.7 153.56 110.583 234.674-31" />
      <path fill="#e70d14" d="M273.94 611.737l-19.835-20.744 19.79 12.284-49.8 9.17" />
      <path fill="#0e1919" d="M157.61 525.136l-25.875-.93 37.617-6.467-15.488 10.625" />
      <path fill="#fff" d="M411.93 675.38L68.497 686.16l-.96 11.702 16.074 82.7" />
      <path fill="#757578" d="M894.005 2.782l-17.86.516 71.327 5.64-98.17-.668" />
      <path fill="#404141" d="M320.028 488.556l-7.718-19.632-16.547 15.437 40.79-4.747" />
      <path fill="#649178" d="M809.333 87.812l38.037-33.88-38.383 26.207-15.61 4.054" />
      <path fill="#0a0a0a" d="M157.352 113.934l43.956-29.405-26.21 9.838-5.195 20.806" />
      <path fill="#fff" d="M18.595 169.393l32.96-9.434.036-26.248-42.927 66.984" />
      <path fill="#abacb7" d="M694.752 734.93l-10.545-90.45 15.762 29.424-34.255 52.683" />
      <path fill="#353535" d="M15.416 433.31l14.722-20.138-8.74 44.105 11.295-6.585" />
      <path fill="#222" d="M86.477 148.116l-3.11 10.157-2.342-12.453-3.725-25.538" />
      <path fill="#fff" d="M725.435 407.112l-128.25-11.782 181.99 36.71-112.897.776" />
      <path fill="#59595a" d="M851.09 221.63l10.95-7.042 35.663.158-.08 1.142" />
      <path fill="#262425" d="M159.948 136.568l-5.514-28.345-70.18 22.59 62.427-25.517" />
      <path fill="#9f9ea2" d="M830.205 448.185l10.51-10.485-61.778-25.748 31.915-6.488" />
      <path fill="#fff" d="M53.136 745.686L57.508 799-31 613.997v161.49" />
      <path fill="#1c1518" d="M519.286 258.56l-28.317-57.115 1.138-9.27 9.95 24.97" />
      <path d="M294.263 190.905l-24.377 16.252-7.4 20.695-31.312 28.553" />
      <path fill="#23210e" d="M850.143 515.24l4.164-12.34-5.264-42.345 8.754 1.205" />
      <path fill="#fff" d="M240.877 272.858l69.44-44.59-11.536-27.023-60.658 49.72M851.455 433.042l42.774-10.887-100.866 13.097 52.533-33.954" />
      <path fill="#565354" d="M484.21 330.193l3.736 10.374-8.302-41.99-9.73 3.324" />
      <path fill="#3b3b3c" d="M320.117 57.98l8.63 21.15-16.905-2.754 7.11-11.578" />
      <path fill="#171717" d="M253.672 210.053l-16.497 4.42 12.5-2.947 15.875 15.618" />
      <path fill="#fff" d="M199.425 343.167l.024 31L337.297 496.13 222.875 327.635M1019.074 58.4l4.34-89.4 14.45 489.85-19.657-183.363M945.72 429l41.217-62.602-70.144-18.787 69.53 81.523" />
      <path fill="#5b6363" d="M174.785 583.494l-.465 35.78 9.235-45.25 25.048 23.384" />
      <path fill="#fdffff" d="M241.128 553.382L195.4 630.33l26.177-75.754L392.03 588.14" />
      <path fill="#999698" d="M792.482 390.374l-6.724 4.92.175-37.8-29.906 1.704" />
      <path fill="#f6f7fa" d="M849.873 558.658l-113.09-33.137 87.955-4.833-45.568 147.538" />
      <path fill="#adf5d1" d="M339.317 206.838l14.265 12.304-14.578 22.442-10.523-55.27" />
      <path fill="#eaebee" d="M720.524 673.592l-70.097-2.19 86.052-32.906-20.384-139.71" />
      <path fill="#878743" d="M814.75 644.743l-11.156 9.265 18.342 78.596 28.748 2.2" />
      <path fill="#181718" d="M55.762 429.344l-7.906 3.307 54.114 23.82-7.45-1.864" />
      <path fill="#fff" d="M96.062 611.26l21.372-29.503-139.582-14.503 97.743 66.48M-31 100.766l96.647 23.373 56.43-5.136L99.882-30.38" />
      <path d="M196.485 354.64l3.023-1.537-13.02-2.357-13.545 2.937" />
      <path fill="#fff" d="M380.342 585.25l-30.472 33.28 80.672 8.965 205.762-49.186" />
      <path fill="#e81e24" d="M256.907 580.468l8.99-3.855-47.27-6.072 26.894 13.006" />
      <path fill="#443f42" d="M540.14 265.156l-12.91-4.997 21.488 35.02-19.02-7.854" />
      <path fill="#fff" d="M599.312 488.478l61.725-64.645-510.39 30.204 497.913-65.993" />
      <path fill="#d9d9da" d="M1001.27 484.85l.893-12.522.995 55.417-.998 76.95" />
      <path fill="#faffff" d="M75.815 566.885l-20.763 17.993 48.866-38.828-4.277-2.1" />
      <path fill="#fffdf8" d="M454.86 501.383l21.527-68.293-11.874 53.13-117.265 6.106" />
      <path fill="#fff" d="M1054.858 799l-550.1-71.463L974.73 743.23l3.68-33.88" />
      <path fill="#2e2e2f" d="M392.584 180.128l-19.83-6.32 8.575-15.028 2.976 12.67" />
      <path fill="#fff" d="M1046.84 618.79l8.16-42.604-188.475 3.825-42.616 31.836" />
      <path fill="#191c1c" d="M243.944 275.833l-38.84 19.345-5.502 15.874 38.223-42.11" />
      <path fill="#878788" d="M976.172 692.172L954.83 731.87l25.444 1.746-10.766-57.04" />
      <path fill="#fff" d="M94.736 470.094l.897-14.444 18.915-31.794-28.494 46.895" />
      <path fill="#dcdbdc" d="M759.39 149.06l-9.852-33.26-47.526 9.526 36.336 25.888" />
      <path fill="#636365" d="M573.83 520.223l-101.213.36 54.297-3.5-29.188-.403" />
      <path fill="#fff" d="M809.116 85.978l148.622-29.1-36.892 54.637L679.53 98.8" />
      <path fill="#211f20" d="M183.61 285.142l7.057 4.7-10.752-24.476-11-.03" />
      <path fill="#fff" d="M662.585 25.015l54.66 69.2L652.15 196.37l-.176-150.567M499.95 275.355l19.133 16.65 15.674-9.933-33.248-26.228" />
      <path fill="#4b430a" d="M914.795 677.86l-5.09-14.925 2.823-20.884 8.603 19.423" />
      <path fill="#605f60" d="M1007.884 390.565l9.09 17.17-5.098 16.8 6.658-42.262" />
      <path fill="#fff" d="M248.79 547.007l20.582-25.214 6.182-17.085-73.573 31.928" />
      <path fill="#153528" d="M322.404 203.736l-34.547-11.425 53.75 8.01 36.864-23.3" />
      <path fill="#2e2e2e" d="M368.12 324.252l-1.807-5.103-.464-7.52-22.366 36.395" />
      <path fill="#191919" d="M246.874 237.31l-3.148 10.47-18.83-23.15 26.014 19.79" />
      <path fill="#6c6326" d="M874.52 709.694l10.813-27.296-14.396-41.908 2.494 13.805" />
      <path fill="#898687" d="M480.946 544.887l-13.242-84.42 26.787 2.91-13.376 15.334" />
      <path fill="#fff" d="M214.91 235.977l18.686 33.564-10.186 18.478-38.1-6.196" />
      <path d="M68.35 642.22l17.984-14.026 37.872-50.533-2.946 12.544" />
      <path fill="#2d2d2c" d="M260.395 237.47l-19.252-10.232-5.534-10.15 16.998 12.364" />
      <path fill="#fff" d="M330.226 208.22l20.183-1.237-66.32-113.74 86.974 80.015" />
      <path fill="#333434" d="M156.306 328.012l10.814-20.33 38.504-29.427-40.34 22.93" />
      <path fill="#716f71" d="M662.583 433.112l-3.08 13.516 95.205-.478-6.832-12.244" />
      <path fill="#767778" d="M224.85 448.673l5.294 14.32 16.44-13.268 5.052 12.774" />
      <path fill="#f0b99a" d="M453.915 712.096l-110.335 5.728 128.595 14.82 17.557-.082" />
      <path fill="#2c2a2f" d="M322.888 327.582l16.33-32.3-21.886 16.313 26.196 30.656" />
      <path fill="#7b7b7d" d="M736.378 81.432l-31.155-2.12 1.185 5.93 33.45 3.97" />
      <path fill="#fff" d="M542.007 32.772L408.5 50.886l39.414-38.865 166.325 8.16" />
      <path fill="#8f8b8c" d="M459.25 645.488l2.04-19.47-91.09 2.153 17.176 3.448" />
      <path fill="#fff" d="M284.153 508.866l85.4 30.79-102.78 95.378 11.105-121.016" />
      <path fill="#414041" d="M90.848 683.313l-64.26 8.713 40.32 1.21 10.998-17.81" />
      <path fill="#7c797b" d="M583.316 182.858l18.363-31.878-2.226 44.145 4.823 40.668" />
      <path fill="#fff" d="M171.453 485.172l-29.62-7.786-10.82 9.62 7.788 34.935" />
      <path fill="#131314" d="M382.386 90.577l30.468-17.045-3.28-1.775 9.15-10.32" />
      <path fill="#ababad" d="M907.82 337.995l25.126 5.91 39.542-11.758-39.516 2.405" />
      <path fill="#fff" d="M209.69 97.46l-27.635.355 4.56 46.316 25.46-2.768" />
      <path fill="#bfbfc1" d="M844.458 180.314l57.877 8.083-105.365.79-2.465-4.727" />
      <path fill="#1a2828" d="M224.14 547.45l-1.07 7.495 29.38-7.864 3.457 9.182" />
      <path fill="#fff" d="M142.367 110.686l14.252 25.917-11.482 10.22-15.18-30.756" />
      <path fill="#737c79" d="M1016.882 526.865l2.522-10.81-25.942 2.01-103.986.877" />
      <path fill="#0d0d0d" d="M97.9 136.742l-.523-1.818-4.75-12.494 4.33 35.11" />
      <path fill="#908f91" d="M953.917 423.316l-11.465-17.737-16.46 43.833-39.38-16.216" />
      <path fill="#fff" d="M604.745 44.747l-.52 67.82 25.794-66.44L522.1 14.196" />
      <path fill="#f06119" d="M364.954 748.137l10.136 1.493-15.3-28.828 7.972 3.682" />
      <path fill="#202020" d="M37.172 163.923l81.674-18.194-13.146-23.947 3.713 23.598" />
      <path fill="#666266" d="M257.59 99.156l7.348-9.785 14.83 24.615-17.6-20.82" />
      <path fill="#292d2e" d="M276.27 531.214l-2.235-6.654 11.244 2.653-47.41 25.912" />
      <path fill="#b8b7b8" d="M756.796 467.193l21.128-7.73 13.892 5.452-11.847 24.33" />
      <path fill="#6b6a6d" d="M975.023 359.82l41.198 34.736-.542-44.188 2.286 55.19" />
      <path fill="#2f2b08" d="M854.58 559.383l-1.456-102.344-3.647 70.343 4.67 53.49" />
      <path fill="#fff" d="M414.79 54.628L590.835 94.38 558.937-31l-115.05 299.17" />
      <path fill="#1b1d1c" d="M178.26 295.278l30.467 9.464-17.317 51.113 21.347-42.033" />
      <path fill="#130b0f" d="M498.226 289.587l4.887-22.185.98 1.57-8.928-15.392" />
    </g>
    <g class="SVG--2">
      <path fill="#303030" d="M269.228 208.958l-12.065-20.2-5.358 10.186 14.65 10.388" />
      <path fill="#fff" d="M651 245.646l100.737 120.976-50.566 33.104 58.373-99.535M1008.913 309.738l-8.98 73.124-32.59-113.768-23.114 22.726" />
      <path fill="#a3a3a6" d="M803.69 360.882l41.805-11.46-52.282-6.363 10.443 2.653" />
      <path fill="#1e1d1d" d="M195.926 384.95l2.095-26.19-.223-39.686-4.774 51.227" />
      <path fill="#e30d13" d="M161.324 446.344l9.035-12.07-3.006-30.4-6.535 24.95" />
      <path fill="#fff" d="M900.754 452.147l-6.292-90.74-132.475 22.848 150.398-7.247" />
      <path fill="#949396" d="M649.092 448.53l21.194-24.687 12.326-5.974-5.962-15.378" />
      <path fill="#fff" d="M205.627 592.712l25.686-40.4-16.72 126.94-5.736-43.955M366.178 77.97l-48.552 95.138-28.047-85.68 83.49 2.568M101.758 467.08l9.522 22.238 11.425-24.114-13.898-4.023M157.745 145.27l87.834 57.444-128.67 65.44 66.215-120.35" />
      <path d="M197.642 234.443l9.39.82-28.864 14.607.425 8.898" />
      <path fill="#f38247" d="M366.325 591.006l11.417-51.707-7.02 19.835-12.686 50.173" />
      <path fill="#fff" d="M599.135 122.635l-182.788 62.05-26.742-100.42 19.622-4.657" />
      <path fill="#3a3a28" d="M222.55 81.477l-.533-14.34-1.523 25.02-13.384 9.46" />
      <path fill="#2f3c3c" d="M159 542.726l-28.405-2.217 5.875 5.006 7.605 1.695" />
      <path fill="#fff" d="M329.388 219.09l8.496 71.92-97.242 62.603-7.206-73.01" />
      <path fill="#fff" d="M324.187 313.746l-118.77 18.513-3.448 102.773 90.964 33.383" />
      <path fill="#1b1b1b" d="M307.822 75.768l36.476-1.15-39.595 8.35-7.71-12.917" />
      <path fill="#040705" d="M344.873 279.603l-6.167-39.406.985 72.355 4.24-57.814" />
      <path fill="#f2f2f3" d="M799.58 459.447l-16.056-63.05 20.502 28.228-54.074 52.58" />
      <path fill="#fdbab6" d="M927.982 41.26l59.53 6.95-86.084 13.534-.203-16.48" />
      <path fill="#1f1f20" d="M415.913 61.492l-15.71-21.365 14.093 12.226 14.838-4.805" />
      <path fill="#7f7e81" d="M977.4 450.67l-19.638 93-.57 41.1 18.748-20.882" />
      <path fill="#ed2a2f" d="M94.78 576.21l15.032-2.122 1.677-20.207-6.773-22.66" />
      <path d="M1008.954 527.427l3.69 57.48.01-63.373-2.256-40.21" />
      <path fill="#fff" d="M655.283 9.667l190.49.155 76.008 59.655L804.748 40.8" />
      <path fill="#fdfdfe" d="M156.67 327.09l-5.412 16.836-29.496 155.24 48.996-154.774" />
      <path fill="#c8c7c8" d="M822.373 100.765l23.048 2.39 10.676 6.896-98.97 10.044" />
      <path fill="#fff" d="M359.857 290.33l-17.9-9.236.063-6.723 31.976 4.774" />
      <path fill="#4e4f4f" d="M254.188 273.995l-23.94-6.64 8.174 6.71 6.962 4.367" />
      <path fill="#464b46" d="M848.26 248.284l10.09-7.234 12.54 4.325-13.583-20.138" />
      <path fill="#303030" d="M132.04 107.06l-.14-1.614 10.436 9.354-8.788-22.698" />
      <path fill="#fff" d="M185.243 503.884l19.558-33.237 28.915 80.03-35.56-18.02" />
      <path fill="#8a8a8d" d="M569.833 674.66l7.46-30.98-11.837 2.43-.157 30.492" />
      <path fill="#111112" d="M36.21 167.046l37.694-13.908-33.23 18.42 3.803 11.282" />
      <path fill="#2d2c2c" d="M591.33 646.347l50.69-1.454 8.543 2.154-24.88-.186" />
      <path fill="#7a7a7a" d="M880.264 251.502l98.978 111.788 61.588 60.295-194.39-203.11" />
      <path fill="#fff" d="M61.203 692.836l-11.877-6.963 32.386-17.864-24.867-21.575" />
      <path fill="#514f51" d="M281.82 87.256l20.268.663-20.523-7.96L275 73.862" />
      <path d="M122.59 473.668l-3.13-14.15 15.586 20.55-5.763-2.946" />
      <path fill="#fff" d="M35.847 799l-1.613-97.833 29.314 8.6L-31 738.25" />
      <path fill="#feffff" d="M147.618 572.58l15.7 58.63 7.44-110.574-11.625 13.685" />
      <path fill="#747272" d="M588.68 375.703l2.042-83.307 10.338-34.61 1.053 92.053" />
      <path fill="#3a8129" d="M828.466 530.212l10.805 16.005-8.344 7.46-4.547-3.14" />
      <path fill="#fff" d="M360.505 529.776l-27.535-46.7 20.904-144.96 21.003-6.707" />
      <path fill="#ebee9a" d="M891.762 569.61l14.57-86.583 6.02 40.02-33.546-36.417" />
      <path fill="#030202" d="M238.5 218.955l-27.39 16.994 3.384 5.367 58.216-68.36" />
      <path fill="#015025" d="M361.868 250.64l-16.2-1.877-6.724 43.063 1.738-34.81" />
      <path fill="#f5f6f6" d="M82.155 134.873l3.79-3.8 6.474-.287-.713 22.29" />
      <path fill="#251e25" d="M293.182 200.35l-23.005-31.612 33.054 30.948-18.246-10.07" />
      <path fill="#fff" d="M365.01 70.298l13.464-23.91-50.264-30.34 18.35 61.997" />
      <path fill="#9cf9c5" d="M248.906 136.145l-33.085-6.212 8.116-13.05 39.92 5.146" />
      <path fill="#fff" d="M291.664 401.97L190.34 286.634l-1.864 10.5L340.443 346.7" />
      <path fill="#fafafb" d="M963.735 211.084l37.522 38.945-88.966-24.023-66.39-2.483" />
      <path fill="#fff" d="M638.05 447.79L533.88 249.14l118.082 234.65 93.497-36.03M121.667 494.85l-17.37-2.862-41.86 40.512 51.862 1.712" />
      <path fill="#665e21" d="M778.075 672.158l10.952 48.05-15.118 13.287-6.25-3.664" />
      <path fill="#fff" d="M590.95 77.51l27.373-20.98 30.74-31.117-.622 61.6" />
      <path fill="#818081" d="M652.406 10.613l92.742 103.225-43.586-53.58-46.866-48.544" />
      <path fill="#300b0a" d="M174.203 502.51l.05 4.456 14.723 2.93-20.815 6.455" />
      <path fill="#1c1e1e" d="M206.68 371.114l-30.372-5.117-7.752-28.528 3.91 31.197" />
      <path fill="#fff" d="M213.558 74.956l6.33-100.81L199.195 87.92l66.332-11.348" />
      <path fill="#161518" d="M363.308 334.402l-14.864 1.267-27.86-.384 18.892 5.158" />
      <path fill="#767475" d="M587.608 108.078l-5.3 38.785 22.94-57.335-22.392 7.073" />
      <path fill="#feffff" d="M619.633 799L288.83 777.31l242.313-70.922 79.068-1.313" />
      <path fill="#2c3938" d="M128.694 534.58l27.55-6.596-.155 16.57-1.32-9.393" />
      <path fill="#fff" d="M601.192 243.48L589.72 228.85l56.14 33.292-36.838 42.043" />
      <path fill="#737154" d="M628.048 673l118.353.615 33.55-.33-66.267 3.266" />
      <path fill="#fff" d="M260.25 176.045l-37.293-35.97-24.9 93.062 19.18 1.2" />
      <path fill="#48444b" d="M391.796 283.424l-28.552-4.027 26.876-2.217-.297 5.475" />
      <path fill="#2a1c1c" d="M180.044 511.865l15.86-36.343 35.84-20.092-38.09 15.898" />
      <path fill="#fff" d="M556.124 297.938l-33.882-.3-5.74 22.113 100.96 134.195" />
      <path fill="#fff" d="M598.145 357.37l48.728-39.994.05 51.83-72.116-15.23" />
      <path fill="#363335" d="M527.174 296.428l-32.43-15.074 28.572 18.68 20.853-44.11" />
      <path fill="#feffff" d="M906.773 616.627l-147.02-3.43 205.82-58.017-86.022-3.702" />
      <path fill="#f2eea1" d="M791.023 737.402l-3.745-91.415-59.117 10.053 75.544 22.69" />
      <path fill="#f6f6f5" d="M577.27 678.177l84.182-1.6 47.324 2.638-7.344 20.17" />
      <path fill="#fff" d="M173.823 599.445l-53.08 19.553L38.34 799 188.52 670.603" />
      <path fill="#61645b" d="M1006.815 490.818l48.185 1.487-399.97-2.69 331.956-.567" />
      <path fill="#ed1018" d="M199.106 402.9l-5.412 46.08-31.314-7.128 41.51 5.374" />
      <path fill="#fff" d="M648.66 227.495l-1.078-48.996-44.826-20.76 7.366 73.595" />
      <path fill="#393c3c" d="M214.91 617.706l-37.434-9.177 8.128-.665 11.988-1.063" />
      <path fill="#3e343a" d="M264.927 152.11l-11.774 10.74 7.774 1.305 24.325 24.578" />
      <path fill="#fff" d="M22.293 441.828l-52.245-41.275-.11 245.028 51.552 65.915" />
      <path fill="#f8f8f7" d="M277.98 494.315l8.156-1.583 8.518 9.757-1.296-13.53" />
      <path fill="#0a0a0a" d="M51.666 674.63l-7.042 15.027 2.18-9.323-6.56-20.602" />
      <path fill="#424142" d="M41.626 747.143l-11.655-10.44 30.54 13.758-.875-13.8" />
      <path fill="#292d29" d="M468.328 205.09l25.463 31.02-10.673-14.19L496.3 262.49" />
      <path fill="#fff" d="M220.88 243.5L186 278.613l-3.25-17.893 12.473-20.15" />
      <path fill="#212121" d="M358.428 79.534l2.718 10.19 24.514 25.04-42.333-35.97" />
      <path fill="#c0ddd0" d="M981.435 310.91l-15.92-53.79-30.59 34.26 60.2-25.105" />
      <path fill="#fff" d="M657.505 645.02l-25.683-28.178-139.304-39.82 285.46 1.54" />
      <path fill="#fefdf5" d="M916.39 526.875l4.755 18.61 37.81 1.846-2.884-26.782" />
      <path fill="#fff" d="M135.852 375.742l89.927 5.07-23.936 21.934-220.39 8.008" />
      <path fill="#909091" d="M816.2 171.937l-23.535.472 8.407-19.184-2.798 34.705" />
      <path fill="#fff" d="M209.922 294.48l134.08 61.513 4.543 147.63L207.12 309.806M989.31 400.138l41.278 5.687-6.964 174.07-8.152-165.54" />
      <path fill="#c8d0d5" d="M502.08 730.937l-32.044 5.183-4.786-31.116 33.023 6.885" />
      <path fill="#fff" d="M82.097 126.02l-22.7 4.27-24.846-7.044L91.687-29.792M-31 285.15l201.822 13.58-29.214-146.857-24.715-2.147" />
      <path fill="#111212" d="M282.532 496.752l-28.79-29.25-36.013-8.673 39.113 5.798" />
      <path fill="#ffb3b2" d="M194.906 581.965l-3.445-5.09 19.995-41.806-6.622 45.138" />
      <path fill="#fff" d="M38.993 448.673l-13.262-9.16-3.537-6.877 16.33-14.043M765.613 357.78l143.718-54.508-254.207-7.388 154.73 63.33M998.004 445.17L940.2 449.42l56.087 20.043 6.066-21.466" />
      <path fill="#2d2d2c" d="M385.562 85.362l-7.358 7.486-13.936-25.37-.39 13.027" />
      <path fill="#fafafa" d="M505.623 324.36l-24.007-19.578 32.08-2.024-5.145-37.144" />
      <path fill="#a0a0a1" d="M612.53 376.376l51.5-3.282-20.38 17.9-37.396-2.377" />
      <path fill="#e5e2e3" d="M117.64 144.01l7.06-2.817-14.827-19.795 7.062 24.31" />
      <path fill="#282728" d="M55.623 720.688l-19.03 3.927 41.356-16.902-9.546 6.855" />
      <path fill="#fff" d="M757.774 431.358l-16.726-31.277 41.482 4.742-5.443 32.648" />
      <path fill="#7e7e81" d="M923.5 5.554l85.242 1.226 43.69 9.627-21.23-5.08" />
      <path fill="#fff" d="M329.46 77.71l-51.064 20.022-14.205 49.408 113.215 17.56" />
      <path fill="#394040" d="M60.122 635.527l-28.386 19.875 16.682-8.78 23.808-8.353" />
      <path fill="#29292a" d="M1009.17 672.245l2.214 27.69 5.467-53.544-5.687-30.6" />
      <path fill="#fff" d="M1040.932 734.605l-331.092-1.5-5.86-28.537L653.955 799M444.628 684.646l-251.04-26.45 220.945 15.185 59.327-4.56" />
      <path fill="#fbffff" d="M155.127 542.313l8.62-19.747 36.317 18.633-19.728 45.072" />
      <path fill="#78722e" d="M717.25 696.973l18.22 30.084-30.177 4.39.94-59.146" />
      <path fill="#7c7b7c" d="M972.452 362.623l-6.967-13.92-108.9-119.682 106.48 112.28" />
      <path fill="#2f2f30" d="M23.813 411.782l-.12 10.246 27.936-4.22-33.524-6.068" />
      <path fill="#fff" d="M385.682 46.06l25.428 6.786-15.698 24.206-17.92-18" />
      <path fill="#000404" d="M87.68 654.044l25.508-31.955 5.967-4.29 2.517 1.684" />
      <path fill="#f6f6f7" d="M886.205 427.193l55.963 92.794-41.37-83.83-7.867 63.587" />
      <path fill="#fff" d="M608.37 165.634l-224.162-7.79-.388 10.353 26.65 20.357M852.89 402.63l-30.513 23.89 5.192 82.604-10.336-103.264" />
      <path fill="#353b3a" d="M181.628 475.263l17.053-.063-6.747 11.897-6.514-15.92" />
      <path fill="#1d1e1e" d="M357.177 241.685l13.917 37.906-18.19-82.588-4.38 1.2" />
      <path d="M100.27 127.41l-39.864 4.785 32.148-8.21 4.626-2.465" />
      <path fill="#f6f1f4" d="M560.37 667.894l-58.404 5.247-25.05-23.808 88.494-2.383" />
      <path fill="#bcb8b9" d="M520.48 616.915l-57.998 4.117 12.92-5.93 21.883 40.51" />
      <path fill="#fff" d="M66.99 799l-8.36-74.838L217.2 605.386l182.088 192.26" />
      <path fill="#ececea" d="M975.724 690.98l17.38 2.386 6.07-43.595-21.38-1.03" />
      <path fill="#fff" d="M464.51 514.443l-126.806 7.184 106.4 6.64 31.214 2.395M868.63 66.54l-97.832 2.82-25.51-54.42-13.293 79.138" />
      <path fill="#fffeff" d="M200.013 214.474l61.49-60.692-5.463-11.493-22.314 5.396" />
      <path fill="#929394" d="M791.736 383.01l-12.398 4.185 27.28 5.108 33.33-8" />
      <path fill="#93c12e" d="M390.63 217.938l42.51-4.73 5.782 15.545-43.33-4.416" />
      <path fill="#fff" d="M357.645 311.643l4.135 16.587-20.34 2.625-14.85-12.442" />
      <path fill="#61672b" d="M822.278 703.046l81.928 1.84-122.646 1.21 42.043 27.755" />
      <path fill="#fff" d="M740.975 109.72l11.715 11.208 6.236 13.894-15.755 12.23" />
      <path fill="#fefdfe" d="M55.655 719.796l10.14-12.615-16.382-17.244-11.947 5.14" />
      <path fill="#393839" d="M54.423 146.686l-8.85-13.933 14.537-1.604-9.45 39.378" />
      <path fill="#fff" d="M708.957 398.18l6.475-11.38 1.104-41.95-53.35 53.29M601.433 645.18l-81.703-1.62 3.483-93.734 90.152 1.296M53.802 292.36l57.605 163.788-53.19-24.17-9.39-10.16" />
      <path fill="#c7c7c8" d="M874.616 206.268l10.366-2.28 21.952-1.19-10.39-26.21" />
      <path fill="#fff" d="M601.538 216.13l-22.422 7.84 12.027 107.258-81.36-121.346" />
      <path fill="#fdf3f2" d="M102.436 565.647l-5.17 39.307L112.6 585.02 72.21 536.67" />
      <path fill="#fff" d="M167.56 374.888l-27.102 97.654-6.543 2.01-11.882-17.27M376.736 707.565L444.328 799l-86.825-100.148 149.587 2.215" />
      <path fill="#027537" d="M471.755 207.705l-1.262 12.715 6.682-14.337 22.518 5.643" />
      <path fill="#f3f3f3" d="M827.907 262.152l-23.65 128.99 20.275-74.553 47.633-80.383" />
      <path fill="#060506" d="M116.064 119.635l10.363 19.627-.518-18.7-75.37 12.7" />
      <path fill="#a19ca2" d="M722.71 109.287l13.956-44.96-47.982-.49 45.426-9.353" />
      <path fill="#0b0b0a" d="M316.69 480.782l-9.372-3.808-36.45 17.875 41.02-14.263" />
      <path fill="#4a4302" d="M920.063 735.435l-8.783-11.69 2.674-6 .305-24.89" />
      <path fill="#665f69" d="M297.363 210.19l12.954-13.36-2.82 16.204-12.167-3.57" />
      <path fill="#131212" d="M160.27 130.318l-15.538 21.847 33.3-22.79-17.367 9.436" />
      <path fill="#332e31" d="M274.034 109l16.888-27.18-20.068 20.445-14.365-15.093" />
      <path fill="#fff" d="M580.052 126.88l71.92-26.584-52.675 85.285 19.133-64.073" />
      <path fill="#6f6e70" d="M471.237 487.336l10.387 1.574 87.91 2.485-93.567 1.79" />
      <path fill="#312e18" d="M851.465 677.873l4.164-34.044 1.53-26.134-6.554 3.53" />
      <path fill="#363636" d="M866.2 234.932l5.83-18.473-9.273 11.264-6.045 16.017" />
      <path fill="#e41a20" d="M79.16 553.59l6.237 10.13-15.923-31.688.526 43.844" />
      <path fill="#fcfbfc" d="M56.686 153.815l-26.272-18.777-2.33 24.66 16.128 6.754" />
      <path fill="#6d6f3a" d="M794.606 520.887l41.442-1.665-74.386-2.35-46.04 3.528" />
      <path fill="#94c527" d="M389.704 255.726l6.79-41.783 4.482 36.103-5.54 10.532" />
      <path fill="#141212" d="M89.234 676.14l2.39-26.187-6.91 29.53-28.655 9.993" />
      <path fill="#fff" d="M289.53 187.41l33.653 10.158-7.694-118.463-49.02 79.723" />
      <path fill="#6e8451" d="M917.956 552.182l-12.662-34.217-63.556 1.568 54.583 2.233" />
      <path fill="#868688" d="M757.87 160.648l-21.017 3.485 24.613-32.82-11.122 25.468" />
      <path fill="#2d2b2c" d="M515.11 311.926L498.43 296.71l20.262 9.58-9.47 24.717" />
      <path fill="#036430" d="M217.288 139.882l-3.44 1.512 6.23-21.148 6.81-14.03" />
      <path fill="#fff" d="M-15.96 170.566L2 453.114l91.6-216.387-63.684-68.466M688.5 144.784l85.072 70.51 30.366-40.65-72.99-15.835" />
      <path fill="#f7f7f9" d="M875.805 426.735l71.74 1.767-76.72-25.678 81.47.535" />
      <path fill="#2d2e38" d="M708.72 605.688l8.125 37.847-11.315-2.468 4.283-30.62" />
      <path fill="#fff" d="M380.332 548.754l-229.9 132.268 215.19-43.125-40.025-135.007" />
      <path fill="#fafbfa" d="M203.258 327.955l-3.923-24.712 5.804-51.225-7.163 81.266" />
      <path fill="#9b9b9c" d="M1006.124 596.597l1.64 16.36 3.978 167.6-4.046-60.106" />
      <path fill="#fff" d="M642.61 4.215L609.214 21.07 574.48-31 797.434 4.8M425.91 163.993l-49.536-96.526-6.752 6.806 64.688 50.237M166.756 111.562l1.73-95.444L-2.75-31l154.1 142.407" />
      <path fill="#adb671" d="M851.86 686.01l-33.502 6.662 9.555 40.61 1.506-9.728" />
      <path fill="#fff" d="M483.692 320.27l14.673 12.47 17.293-24.808-23.915.93" />
      <path fill="#fdffff" d="M173.06 575.52l-5.44-29.656-32.463 53.72-13.617-12.957" />
      <path fill="#7e7e7f" d="M725.73 9.265l-102.406-2.42 110.2-1.302 133.523 1.383" />
      <path fill="#fff" d="M989.31 309.668l-1.365 49.198 25.318 37.447 1.054-67.19M403.078 310.774L354.08 197.15l305.99-9.197-291.112-7.797M418.38 437.797l93.96-109.627 65.215 38.568 84.84 60.245" />
      <path fill="#545555" d="M755.86 123.82l7.27-6.916-34.734-21.693 23.614 20.848" />
      <path fill="#fff" d="M229.6 141.43l-19.638 5.355 6.173 46.33 41.606-45.043" />
      <path fill="#252525" d="M126.455 490.278l-4.513 13.955 8.223-7.02-34.416-13.247" />
      <path fill="#0d110f" d="M222.556 554.603l-16.345 29.315-8.61 26.146 12.168-42.974" />
      <path fill="#fff" d="M724.88 87.163l-4.323-43.685L990.53 8.638 681.064 16.29" />
      <path fill="#1a1c1c" d="M201.29 307.425l-24.036-9.128-20.527 18.72 23.858-25.532" />
      <path fill="#3b3b3b" d="M326.39 488.857l-11.263 31.42L285.63 499.7l27.348 14.387" />
      <path fill="#76d3f5" d="M435.433 698.65l-65.294 2.342 4.485-21.695 20.426 17.707" />
      <path fill="#fff" d="M617.238 98.866L418.45-31l-35.36 74.44-68.58-46.343" />
      <path fill="#0d1313" d="M135.593 528.12l18.785 5.253-23.377-.29-.84 33.29" />
    </g>
  </g>
</svg>