<svg version="1.1" viewBox="0 0 1024 768" width="1024" height="768" xmlns="http://www.w3.org/2000/svg">
  <path fill="#e1e1df" d="M0 0h1024v768H0z" />
  <g fill-opacity=".5">
    <path fill="#262628" d="M505 302H150L2 262l408-10" />
    <path fill="#e58a16" d="M275 744l496 5-356-48 523-2" />
    <path fill="#b4a700" d="M418 507l335 16-532 5-105-10" />
    <path d="M48 279l89-19-110-38-3 95" />
    <path fill="#ff1f00" d="M226 191L90 46l-18-4 98 125" />
    <path fill="#0088a1" d="M667 668l-452-5-38 14 340 4" />
    <path fill="#008da5" d="M504 380l-133 12H18l7-17" />
    <path fill="#11909f" d="M561 409l177 18-130 32 447 1" />
    <path fill="#ff5627" d="M766 424l-296-21-211 20 171 3" />
    <path fill="#f0572c" d="M354 644l-248-18-27-18-76 40" />
    <path fill="#aca700" d="M79 749l409-4-150-13-255 2" />
    <path fill="#ff2400" d="M406 41l-51 42 4 16 114-81" />
    <path fill="#f30" d="M276 166l103-66-104 95-87-15" />
    <path fill="#fff" d="M419 291l628 63-946-145 661-87" />
    <path fill="#aca000" d="M818 512l-394 4 528 13 80-14" />
    <path fill="#0d96a7" d="M337 122l90 73 34-151 3 144" />
    <path fill="#1470d3" d="M298 38l136 165L286 54 179 25" />
    <path fill="#00a673" d="M16 69l7 130 11-34 1-113" />
    <path fill="#00af73" d="M251 41l-5 125-16 4 1-100" />
    <path fill="#beb800" d="M921 742l-91 4-183 2 112-19" />
    <path fill="#ff6815" d="M-31 28l102 3-5 132 41-104" />
    <path fill="#ada000" d="M112 527L3 522l112-13 62 18" />
    <path fill="#fff" d="M289 339l295-8-327-39 34-39" />
    <path d="M422 268l-207-7 241-5 11 7" />
    <path fill="#0664c7" d="M224 40l6-10-65 21-33 50" />
    <path fill="#4494e1" d="M564 571l-531-9-33 17 281 1" />
    <path fill="#fff" d="M87 249l-57-4 158 96-192-4" />
    <path d="M33 314l-9-74 87 2-65-14" />
    <path fill="#0061cb" d="M80 176l-63 17 108-67-6 24" />
    <path fill="#fff" d="M393 160l-407 70 371 27 6 73m674 30l-324 2 79 83h118" />
    <path fill="#adabb1" d="M526 199l3 110 110-25 8-81" />
    <path fill="#fff" d="M547 710l369 20-313 4-145-1m-40-431l637 22-659 21 18-137" />
    <path fill="#ff6c41" d="M848 483l84-5 54-1 23 24" />
    <path fill="#040404" d="M380 294l36-49-59 59 143-2" />
    <path fill="#aea300" d="M35 730l-22 16h60l175-6" />
    <path fill="#4895e1" d="M713 560l185 8-78 11-417-3" />
    <path fill="#59a0e5" d="M766 339l-38 20 248-1 50-13" />
    <path fill="#1c1713" d="M614 696l-2-15 40-1-11 20" />
    <path d="M101 315l16-36 48 47-64-70" />
    <path fill="#4896e2" d="M-31 345l224 14h61l52-17" />
    <path fill="#fff" d="M964 57l91-53-520-35 26 85m-432 82l75 52-113 83 9-109" />
    <path fill="#00d2f2" d="M400 133l5-67 18 29-11 57" />
    <path fill="#4b98e1" d="M353 358l-145-14 563-2-90 16" />
    <path fill="#aaaaac" d="M545 57l-5 89h100l6-93" />
    <path fill="#a4ac0d" d="M908 747l-108-12-120-3-281 9" />
    <path fill="#fff" d="M343 80L220-15 574-1 418 35" />
    <path fill="#fff" d="M-31 2L977-17 228 28l-88 37" />
    <path fill="#d64c26" d="M734 412l44 34 13-17-186-19" />
    <path fill="#ff4b28" d="M883 706l-27 9-182-2 183-10" />
    <path fill="#1d494b" d="M342 647l27 2-14 31-33-24" />
    <path fill="#fff" d="M467 388l85-363-88-6-6 182M129 513h370l282-36-789-93" />
    <path fill="#001a1d" d="M455 395l31-3-2 20-34-4" />
    <path fill="#fff" d="M1055 773l-169 14-35-260 176-2" />
    <path fill="#fffdff" d="M716 168L642-31l4 317 294-146" />
    <path fill="#fff" d="M160 226l106 131-64-37 25-101" />
    <path fill="#00b164" d="M449 113l-6-56 19-4-4 114" />
    <path fill="#fff" d="M90 612l965 107-265-140-684-1" />
    <path fill="#1c7986" d="M100 616l-30 24-15-43-86 7" />
    <path fill="#2d75ce" d="M396 174l80 23-124-69-44-90" />
    <path fill="#0091a5" d="M621 458l-20-9 81-5 199 9" />
    <path fill="#fff" d="M233 37L90 145 76 59l138 117M19 546l1 253-51-173 49-524" />
    <path d="M240 241l14 54 38 6-50 2" />
    <path fill="#6d5250" d="M283 128l-1-41 16-15v80" />
    <path fill="#00889b" d="M992 444l-204 5 113 8 96-2" />
    <path fill="#ff6a3d" d="M311 631H172l-85 13 241 2" />
    <path d="M75 241l16 34 4-38-30-7" />
    <path fill="#080808" d="M229 247l5 51-52-33 17 27" />
    <path fill="#fff" d="M1021 799l34-725-40-95-17 489M-29 736l136-5 349 3-487-104m860-360l6-301 54 373-157 1" />
    <path fill="#ff3700" d="M337 117l-7 38-132 36 75-6" />
    <path fill="#fff" d="M182 274l69 75-263-48 201 7" />
    <path d="M295 314l-3-54 43 33-33-9" />
    <path fill="#fff" d="M-7 559l527 4 521-31-811-7" />
    <path fill="#c5add4" d="M829 290l-8-87-124-5-9 95" />
    <path fill="#fff" d="M662 411l219-30-406-29 17 59" />
    <path d="M167 262l-1 50-17-57-114 14" />
    <path fill="#ff4002" d="M385 54l52-23 37 1-110 47" />
    <path fill="#089aa9" d="M401 672l129-7 97 1-28 15" />
    <path fill="#aca9af" d="M830 64l-77 2 4 78h61" />
    <path fill="#fbffff" d="M176 267l-29 84 2-124 22 161" />
    <path fill="#ff3609" d="M84 42L16 23l5 11 103 44" />
    <path fill="#ff695c" d="M459 697l120 1 188 13-308 4" />
    <path fill="#fff" d="M340 179l-1 143 1 42 13-138" />
    <path fill="#c3b1cf" d="M1012 299l-143-14 6-80 132-7" />
    <path fill="#fff" d="M445 41l-28 14 5 116 23-5" />
    <path fill="#fcfdfc" d="M-1 513h192l16-122H-22" />
    <path fill="#c6b1d5" d="M999 146l17-80-138-11-9 90" />
    <path fill="#fff" d="M284 75l70 50-139 133 264-2M69 243l-30 6 1 15h45" />
    <path fill="#fff" d="M412 307l76 44-98-67 30-38" />
    <path fill="#fff" d="M79 304l384 38 1-373 49 335" />
    <path fill="#fff" d="M453 27L-31-31l49 513-1-454" />
    <path fill="#ff3f00" d="M123 77l73 109-48-45-46-71" />
    <path fill="#fff" d="M41 277h48l13-35-2 104m88-29l-5-33 39 40 2-49" />
    <path fill="#fff" d="M167 199v149l10-93-208-66" />
    <path fill="#1e70c4" d="M173 46l69-2 57 1-58-18" />
    <path fill="#0197a7" d="M-31 388l272-9 221-2-26 14" />
    <path fill="#fff" d="M1055 778l-252-30-130-3-475 22" />
    <path fill="#bdb411" d="M1003 521l-275-9-204 13 193 3" />
    <path fill="#fff" d="M884 461l-297-1v51l305 2" />
    <path fill="#fef8ff" d="M1029 350L868 166l171-12-175 168" />
    <path d="M352 308l-6-56 9 9 5 26" />
    <path fill="#74abe2" d="M622 565l-186 17-234-19 307-1" />
    <path fill="#3685d3" d="M320 356l-305 1 72-16-81 11" />
    <path fill="#ff3e06" d="M272 192l-76-11-59-53 66 38" />
    <path fill="#b9b11a" d="M7 512l21 18H9l281-15" />
    <path fill="#fff" d="M617 750L61 799l-92-48 162-5" />
    <path fill="#fffaf5" d="M666 445l80-1 31-88-8 59" />
    <path fill="#ff7c00" d="M545 27l1-17-28-3 16 22" />
    <path fill="#969aa8" d="M201 146l-22-2 7-72 13 7" />
    <path d="M174 264l6-12 27 35-29-10m249-36l1 81-11-53 8-3" />
    <path fill="#040404" d="M151 269l-42 14 56 20-25-4" />
    <path fill="#fff" d="M359 268l29-1-9 13-23 28m-1-197l48 46 1-88-10-3" />
    <path fill="#10a4b2" d="M389 666l-207 1 5 13-54 4" />
    <path fill="#fff" d="M280 164l-29 12-5-131 42 13" />
    <path fill="#00b07b" d="M30 169l-14-11 4-105 13 29" />
    <path fill="#fff" d="M305 340l-2-54 26 15-319 17" />
    <path fill="#ff7600" d="M80 102l4 45-18-13 2-65" />
    <path fill="#fff" d="M71 56L22 42l58 121-58 11" />
    <path fill="#040404" d="M37 264l4 54-20-36 77-13" />
    <path d="M323 297l23-38-25 23 25 24" />
    <path fill="#fff" d="M255 208l71 7-217-56 99 123" />
    <path d="M429 266l-88-8h103l25 5" />
    <path fill="#040404" d="M312 254l28 7-87-6-15 16" />
    <path fill="#fff" d="M1037 45l-458-2-12-65 473 16M193 230l-155 4-63-20 174-60" />
    <path fill="#f4f4f4" d="M235 269l109-3-98 26 33-20" />
    <path d="M27 246l71-3-27-11-47 2" />
    <path fill="#fcffff" d="M101 683l350 44 13-49-138 2" />
    <path fill="#cbbad0" d="M545 54l-40 5 15 101 86 4" />
    <path fill="#f5f5f6" d="M245 334l-13-133 1 134-55-57" />
    <path fill="#ff7a54" d="M1006 480l-123-1v14l47 2" />
    <path fill="#fff" d="M107 61L15 1l72-18 88 163" />
    <path fill="#b0a80b" d="M596 524l-166-10H303l-191 10" />
    <path fill="#0c0c0c" d="M293 279l-2 34 17-27-10-35" />
    <path fill="#00ab77" d="M234 162l-1-111 15 19v68" />
    <path fill="#347ece" d="M127 120l-17 35-112 30h70" />
    <path fill="#fcfbfb" d="M523 425l-212 1 332 86-38-83" />
    <path fill="#fff" d="M85 256l271-102 92 41 72 59m-93 12l83 63h61l-96-63m-366 2l37-4-16 11-14 1" />
    <path fill="#070707" d="M183 275l-27 31 5-47 21 53" />
    <path fill="#fff" d="M555 340l179 2-98-215 11 167m-662 83h501l-41 14-6-33" />
    <path fill="#fbfbfc" d="M80 577l68 1 58 49-104 7" />
    <path fill="#fff" d="M101 275l-9 70-63-25 18-45" />
    <path fill="#ff7a52" d="M514 420l-137-10h-58l3 18" />
    <path fill="#d7b5ee" d="M752 149l11-88-71-7-3 92" />
    <path fill="#fff" d="M841 356L825 41 398 61l489-92M382 298l38-52-11 45 6-3m166-85l-175-37 31-72 11 69" />
    <path fill="#fcffff" d="M747 714l127 19H559l-136-20" />
    <path fill="#fdfeff" d="M1055 335L776 443l222 3 22-291" />
    <path fill="#4c4749" d="M752 442l-3-9 11-9 34 20" />
    <path fill="#fff" d="M300 64l32 31 3 22-34 30M138 84l62-55 329-4-544-56" />
    <path fill="#afb317" d="M352 746h361l-281-13-290 4" />
    <path d="M101 299l10 11v-36l-8-24m-11 26l-57-3 59-16-4-27" />
    <path fill="#07b074" d="M452 56l-7 25 3 81h16" />
    <path fill="#0a0a0a" d="M227 257l13 5-40 35 4-14" />
    <path fill="#427fcc" d="M479 184l-42 8-79-46 71 25" />
    <path d="M452 303l2-6-70-3-16 9" />
    <path d="M412 258l-61 48-2-36 16 38" />
    <path fill="#fff" d="M287 272l63-159-73 163 28 70" />
    <path d="M443 281l-29 3 26-10 7 2" />
    <path fill="#fbfbfc" d="M906 525l-496 36 303 2h136" />
    <path fill="#ac9f1f" d="M832 744l-50-7 88-4 21 4" />
    <path fill="#049bac" d="M497 669l-161-2-92 11 132 1" />
    <path fill="#fff" d="M234 152l-7-108-28 120-45-34M24 231L8-31l-39 731 57-410" />
    <path fill="#f9fafb" d="M380 514l-184-8 11-115h90" />
    <path fill="#fff" d="M253 528l-231-1L5 794l-19-223" />
    <path fill="#f9f9fa" d="M584 581l448-5-249 123H659" />
    <path fill="#030303" d="M302 277l38 7-13-36 7 58" />
    <path fill="#050505" d="M147 264l-49-6 41-3 1 55" />
    <path fill="#fff" d="M155 281l2 46-23-61-24 8M82 81L35 44l65 31 62 90" />
    <path fill="#fff" d="M114 287l9-3 33 50-57 9" />
    <path fill="#3c84ca" d="M300 57l83 111-35-73-36-45" />
    <path fill="#77aadc" d="M866 579l-116-2 127-17 7 25" />
    <path fill="#b9b018" d="M996 528l3-14-217-1 118 9" />
    <path d="M246 282l7-25-13 12 38 12" />
    <path fill="#fff" d="M409 304l-140-1 205 39-63-49" />
    <path fill="#fff" d="M349 306l-11-8 15-166-12-19" />
    <path fill="#b7c2b1" d="M824 200l5 82-52 4-3-85" />
    <path fill="#ff8b6a" d="M7 647v-15h278l64 8" />
    <path fill="#fff" d="M278 171l-104-22 82 28 3-144" />
    <path fill="#ff4f21" d="M284 186l-1-3 48-30-116 38" />
    <path fill="#feffff" d="M1000 513l46 216-14-237-195 5" />
    <path fill="#fff" d="M507-31L-21 27l295-3 73 59m-81 188l35 52-22-54-40-5" />
    <path fill="#1993a0" d="M22 388l335-4-164-6H15" />
    <path fill="#609bd8" d="M628 356l197-9 54 9-106 2" />
    <path d="M39 302l-13 3-1-64 12-10" />
    <path fill="#ff7560" d="M774 713l-123-14h164l81 15" />
    <path fill="#2e2d2b" d="M646 683h-22l23 17 4-12" />
    <path fill="#f7f9fa" d="M611 724l-6-139-242 83 256-9" />
    <path fill="#fff" d="M901 202l-122-16 7-45 269 40M-31 225l184-80 23 200-2-101" />
    <path fill="#fbfeff" d="M177 377H-31l113-18 204-3" />
    <path fill="#3780ca" d="M149 96l33-31 30-39-75 59" />
    <path fill="#1e9dac" d="M825 447l-210-2 1 10 5 1" />
    <path fill="#fff" d="M34 127V44l31 34-3 95m286 157l-30-39-16-6 6 50" />
    <path fill="#f9f9f9" d="M179 645l-167 1-41 93 215-21" />
    <path fill="#21adbe" d="M992 459l-346-1 217-11 138-2" />
    <path fill="#c9c1d3" d="M964 310l57-106-141-5-6 100" />
    <path d="M97 260l-17 13 3-39 6 1" />
    <path fill="#5193d6" d="M300 357l-19 2-64-7 198 4" />
    <path fill="#fff" d="M148 263l4-41-4 95 27-137" />
    <path fill="#fffffc" d="M413 70l165-53-167 38-48 39" />
    <path fill="#ff4816" d="M385 49l80-17-4 7-14 7" />
    <path fill="#dec4ec" d="M495 207l1 77 23 14 32-109" />
    <path fill="#ff7947" d="M754 295l-16 13h16l7 3" />
    <path fill="#fe632a" d="M929 153l20 3-15 9-5-2" />
    <path fill="#d6875d" d="M532 156l44-3-1 6-3 6" />
    <path fill="#fff" d="M-21 308l77-7 350 12-412 31" />
    <path fill="#fdfefe" d="M1052 273l-56 387 12-317-158 1" />
    <path d="M151 275l-4 10-28 1-21-7" />
    <path fill="#070707" d="M233 325l-2-78-8 52 10-2" />
    <path fill="#fff" d="M177 337l12-58 30 45 5-54" />
    <path fill="#52433f" d="M341 663l20 1 4-12-35-7" />
    <path fill="#eef5f5" d="M372 578l-47 88-83-2 70-7" />
    <path fill="#feffff" d="M92 68l38 47-46 41-3-89" />
    <path fill="#ff4012" d="M68 38l16 14-72-10 14-13" />
    <path fill="#1ecbe3" d="M412 65l-11 35 16 65V85" />
    <path fill="#488bcd" d="M64 185l-56 9 119-56-6-20" />
    <path fill="#121212" d="M277 293l28 9-30 2-51-5" />
    <path fill="#f6f8fa" d="M666 358l-204-1-38 4 92 51" />
    <path fill="#fcfeff" d="M380 166l-141 27 1 185-10-163" />
    <path fill="#eacbfa" d="M992 59l-38 106-51-34 23-77" />
    <path fill="#f6f6f7" d="M994 357H802l-20 89 266-7" />
    <path fill="#fff" d="M372 159l-8 123 25-11-31-6" />
    <path fill="#ff845e" d="M731 426l-187-1 154-14 46-1" />
    <path fill="#bac7b9" d="M905 163l-33-27 3-78 37-7" />
    <path d="M423 302l8-27-12-12-2 43" />
    <path fill="#fff" d="M244 294l45-3-35-28 39 7" />
    <path fill="#ada40c" d="M20 733l-6 12 14 1 58-9" />
    <path fill="#fff" d="M423 264l65 28-70 2 59-23M71 260l-17-3-14-11h39" />
    <path fill="#34474b" d="M97 630l-38-3 16-4 18-13" />
    <path fill="#e5f4fa" d="M85 581l-38-7 17 56-35 2" />
    <path fill="#ff5520" d="M399 59l-40 46-2-19 11-17" />
    <path d="M152 301l-11 2-42-36 21 13" />
    <path fill="#fff" d="M282 58l-26 94 60-10-35 25m-43 41l-111-71 46 97 32 53" />
    <path fill="#02a7ba" d="M55 612l-5-14-36 1 9 10" />
    <path fill="#f7f7f6" d="M700 512l-231 1H293l31-90" />
    <path fill="#fff" d="M107 233L89 339l-78-17 82-50" />
    <path fill="#ebcbfc" d="M909 208l59-5-13 96-42-3" />
    <path fill="#fdfeff" d="M19 650V434L14-31l-45 666" />
    <path fill="#5692d0" d="M497 357l110-1-132-4-64 5" />
    <path fill="#fcfcfc" d="M321 286l66 36-65 18 27-55" />
    <path fill="#010101" d="M321 263l-66 2-13 21-1-32" />
    <path fill="#fff" d="M471 195l-161-28-21 116-8-47m351-85l285 33-234 8-192-10" />
    <path fill="#fff" d="M402 286l-27 12 152-143-99 47M225 51l10 123-40-35 6-81" />
    <path fill="#d5dfde" d="M271 395l81-7 118 25-57-1" />
    <path fill="#aca225" d="M305 744l-109-11-163 4 9 8" />
    <path fill="#141415" d="M159 258l-2 30 11-41 3-1" />
    <path fill="#909091" d="M490 20L478 7l34 7 4 7" />
    <path fill="#3f84ca" d="M208 33l-40 25 56-11 39-19" />
    <path d="M291 264l46 1 3 10-17-22" />
    <path fill="#8b7877" d="M286 74l10-2-7 77-8-79" />
    <path fill="#ff810f" d="M68 74l13-3-4 81-6-4" />
    <path fill="#fff" d="M1055 771l-197-2 45-54-126-1" />
    <path fill="#feffff" d="M101 278l-63-2 20 68 42-8" />
    <path fill="#fe8266" d="M520 714l-105-7 214-9 177 12" />
    <path fill="#e9ccf9" d="M711 294l-25-94 83 4-5 94" />
    <path fill="#fff" d="M68 193l31 58 76 6-53-112" />
    <path fill="#f8f8f9" d="M601 358l79 49 90 7 50-56" />
    <path fill="#5bdbe9" d="M559 296l2-2 4 18 21-11" />
    <path fill="#c5e1e1" d="M200 650l166 16-180 1-39 30" />
  </g>
</svg>