<svg version="1.1" viewBox="0 0 1024 768" width="1024" height="768" xmlns="http://www.w3.org/2000/svg">
  <g fill-opacity=".5">
    <path fill="#fff" d="M421 305.4l-189 32.2 4-124 1.5 92.3" />
    <path fill="#fff" d="M403.6 267.5l89.3-69.3-86 18.2 11 114.3" />
    <path fill="#f4f4f4" d="M98.5 579.7l-19.7 29 56.3 18.8 138-49.7" />
    <path fill="#ff9b71" d="M571.4 156.5l14.2 4.3-27.4 2.7L566 151" />
    <path fill="#0f0f0f" d="M177.5 309.3l4.6-23 2-29.5-7 .4" />
    <path fill="#5f98d2" d="M82.2 578l-72-2.6 41-1.3 133.5 3" />
    <path fill="#fff952" d="M749.7 746.7l117.3.2-99.2-5-86.5 5" />
    <path fill="#fff" d="M445.5 137l-5.8-86.5-22.2 3 4 103.7" />
    <path fill="#4185c9" d="M120.2 125.4l-5 .4-39.3 51 53-41.7" />
    <path fill="#feffff" d="M10.2 293.3L-31 5.3 16.5 38l1.7 60.8" />
    <path fill="#ff5629" d="M142 136.2L114 86l61.3 62.2 26 35.6" />
    <path fill="#51dcef" d="M737.6 459.8l132.2-2L847 456l-158 1" />
    <path fill="#a3a4a2" d="M568.5 292.2l53-50-4-32 7 24.3" />
    <path fill="#fff" d="M434 282.6l31.8 1.4-.2 9.7-38.7-4" />
    <path fill="#f2f5f8" d="M888 460.6l-2 42.3-5-22-200.3-22" />
    <path fill="#bfbec0" d="M836.8 134.4L742.2 147l100-.8-95-11" />
    <path fill="#fff" d="M343.8-27L-31 7.3l93.2 26L131 65.6m172.6 19.7l14.6-5.4 21.4 32-26.3 29" />
    <path fill="#fea386" d="M534.7 703.4l92.3-2-150.2-3 31 13.3" />
    <path fill="#a4b7ba" d="M786.7 156.3l-58.4 5.3L703 152l83.8 10.4" />
    <path fill="#f4f4f3" d="M497.3 399l-16.7 11.4 173 .3-253.5-52" />
    <path fill="#262b27" d="M76.4 627.8l13.4.7 3-5.7-36.6 6" />
    <path fill="#fdfdfe" d="M1055 174.3l-35.6-158.5L1013 207l-61 62.5" />
    <path fill="#0a0a0a" d="M302.2 262l40.7 4.3-21-8.5-32-2.3" />
    <path fill="#fff" d="M82.8 155.7L94.5 131l34.3-15.7-44-45.4" />
    <path fill="#9fa09f" d="M587.6 117l18.2 22.8-62-62.3-2-4.8" />
    <path d="M435.5 298.2l-26.3-5 48.3 3.4 4.2 4.7" />
    <path fill="#2c828b" d="M712.7 445l-12 3.4L764 455l-88.5-.7" />
    <path fill="#4f8dcd" d="M282.4 35.6l-99 16.6 18-19.3 38.6-5" />
    <path fill="#fdfffe" d="M525.3 54.2L513 2.2 512 48l165 7" />
    <path fill="#e8e7e8" d="M601.2 124.3L439.6-31l79.8 77.5L666 196" />
    <path fill="#fff" d="M561 147l101 1-122.3 5.7-80-5" />
    <path fill="#e2e2e2" d="M558.4 219.3l16.6 12.2 109.3 113.2L546.8 210" />
    <path fill="#eceded" d="M598.3 103.7L476 225.7l145.2-150 74-69" />
    <path fill="#f8f6f4" d="M739.4 713.8l103.2-.4 60.5 1-120 19" />
    <path fill="#f4f4f3" d="M373 426.6l-235.8-9L-31 512.2l571.6-1.4" />
    <path fill="#a4a4a3" d="M624.4 277.6l26.4 25.4-100-99.5 8.4 12" />
    <path fill="#424441" d="M648 697l-4-14.7-18 2.5 7.6 12" />
    <path fill="#fc9d82" d="M51.2 629.3l40 11L127 642l40-9.2" />
    <path fill="#ffd5d2" d="M817 702.2l-127.6-1 42 1.8 89.4-.4" />
    <path fill="#aca7a3" d="M633 682.8l-4.2 10-1.5-26-14.7 8.3" />
    <path fill="#e8e6e9" d="M478 164.5l109.6 102 45.4 49-61.2-58.6" />
    <path fill="#fff" d="M1021.3 307.2l-4.7 197.4 4.3 290.6 34-274.3" />
    <path fill="#e3c9f0" d="M755.8 44.6l2.6 103.7-73.8-10 43.8-64.6" />
    <path fill="#e46e46" d="M740 300.8l8.4 6.3 15.2-4-9.5-2" />
    <path fill="#0e0d0d" d="M163 302.7l5.3.8-8-7.5-5.3.6" />
    <path fill="#88e7cb" d="M506.3 59.7l8.2-6.5 6.3 16.5L506 65" />
    <path fill="#518ecd" d="M383.5 165.7L340.3 113l9-1.2 48.3 43.5" />
    <path fill="#aaafab" d="M882.7 58.2l1.5 86.4 11.4-92.3 3.6 83" />
    <path fill="#e5eff1" d="M548.2 683.5l51.8-6.2 16.2 23.6-1.5-19" />
    <path fill="#50ecfe" d="M316.5 677l99.5.6-68.4 2.2 19 1.6" />
    <path fill="#010101" d="M31 242.8l-.7-7.4 39.7-2 22.6.3" />
    <path fill="#fe6e47" d="M690.6 423.7l50.4-1.4 6-7-18.6 3" />
    <path d="M295 283.8l-3-30.8 16 33.2 26-10.3" />
    <path fill="#eff0f1" d="M10.3 327.6l252 15-244.7.4L8 478.8" />
    <path fill="#efefef" d="M762.2 164l98.4-92 45.6 52L853 73" />
    <path fill="#9da8a7" d="M471.6 377l-12.2 49 11.2-38-43.7-.8" />
    <path fill="#fcfcfc" d="M945.5 270l-118-108.8 214.7 4-174.4 27" />
    <path fill="#eceaed" d="M790 92L902.4-26 773.8 111.8l-49.3 44.4" />
    <path fill="#ff5429" d="M5.4 33.2l7.3 2.5 10.3-7 85.8 36" />
    <path fill="#75a8db" d="M828 575.8l39.5 1.8-63.5-15 70.2 2" />
    <path fill="#649cd5" d="M947.2 353.8l-59.2.7 65.6 3.6 36.3-2" />
    <path fill="#fff" d="M325.3 179.5L343 282.3l20-90.7 176.5 7.2" />
    <path fill="#3c83cb" d="M655 576.8l43.3.4 40.6-1.6-36-.3" />
    <path fill="#f6fcf6" d="M454.3 698l86.8.6-85-3.4 5 26.8" />
    <path fill="#030303" d="M87.6 234.2L31 236.4l60.3 12 4-1" />
    <path fill="#35abb9" d="M347 391.4l-72.5-7 170.5 6.3 6.5-10.2" />
    <path fill="#f4f3f3" d="M1019.3 432l-232-65.8-2.6 68.8 1 9.4" />
    <path fill="#a7a7a6" d="M636 266.2L561.5 195l78.6 77.8-85-4.2" />
    <path fill="#25b388" d="M238 165.5l-3.8-108.7 17 1.8-2.3.6" />
    <path fill="#f4f5f5" d="M569.7 408.5l53.5-51.4 279.8 2-122 53" />
    <path fill="#2aa3b2" d="M870.7 456.2l-.5-11-149.5.6 67 12" />
    <path fill="#030303" d="M291.2 260l39-4.2 1.6 22.8 3.4-20.5" />
    <path fill="#f5f3f5" d="M592.5 284.3l57 47.3-33-17.5-87.2-90" />
    <path fill="#aeaead" d="M567.4 277.4l42.4 1.6-9.5 5.6-72-5.3" />
    <path fill="#f8f8f7" d="M195.4 328.5l-18.2-.5-4.2-160.3-3.6 123.4" />
    <path fill="#9d9d9c" d="M794 73.8L809.6 57v-2.7l-45 47.7" />
    <path fill="#d6d7d7" d="M678.5 208.6l7.7 35-6.2 51v-57.3" />
    <path fill="#f5f5f5" d="M62.7 256.7l10.6 7.4-33.3-4 .4-16" />
    <path fill="#fff" d="M318.3 277l1.2-2 8.4-9-27-.3" />
    <path fill="#2c484d" d="M453.8 404l2.6 4.6 4.2-.7h37" />
    <path fill="#5793d3" d="M428 356.6l-12.4-7.3-28.3 8 23-.5" />
    <path fill="#fb957a" d="M651.4 711.3l-127.8-10.8 86-2.2 109.8 2.3" />
    <path fill="#fff" d="M303.2 286.3l17.7 9 24 26.4-42 1.3" />
    <path fill="#a5a6a5" d="M640 212l-72.5 72.3L624 212l-73.8 74.4" />
    <path fill="#fa9e84" d="M286.8 630.6l-95.5.7L82 640l178.7 3" />
    <path fill="#f1f3f3" d="M659.4 464.5L445 438l73.3 75.7 425-55.6" />
    <path fill="#c6f1f5" d="M734.3 442.7l32.3 2.2 23.7 1-1.2-3" />
    <path fill="#fff" d="M24.5 326.6l-.8-98.4 38.4 5-93-92" />
    <path fill="#548fce" d="M459.2 194l5.6-21.2-56.4 6.5-69.7-62.5" />
    <path fill="#fff" d="M30.2 175.5l48.3-17.2-13-15.3 1.2-92" />
    <path fill="#cfcecb" d="M317 394.7l88.4 4.8 48.3-1L321.5 411" />
    <path fill="#f4f4f4" d="M621 254l-46.4 46.4L675 342.6l-121.5-2.3" />
    <path fill="#ff882a" d="M66.3 143l8.2-.2-9.3-61.5 15.2 8.3" />
    <path fill="#ededed" d="M799.6 105.6l-64-60.5 69 70 40.7 41" />
    <path fill="#f5f6f4" d="M828.2 526.8l-214 2.6 302.6 39.8 93.6-41" />
    <path fill="#f0f0f0" d="M882 133.2l-65.2-38.4L709-16.7 831 103" />
    <path fill="#4b5350" d="M778.2 427l5.5 6.4-.3 4.4-35.5 10" />
    <path fill="#f0f0f0" d="M764 188.3l-235-27.6 138.5 144-149.2-145" />
    <path fill="#fde2dd" d="M889 702.5l-129.8-10.2 131.7 6-73 4.3" />
    <path fill="#a2a2a2" d="M595.2 122.5L597 70l5.6 57.3L540 124" />
    <path fill="#eceff1" d="M786 266.5l6.3 189.6-7-193 92-89" />
    <path fill="#adacad" d="M820.4 83L754 144.5l67-68-35.8 3" />
    <path fill="#fbfbfb" d="M109.7 288.5l9.5 9.3 39.2 38.3-38.6-51" />
    <path fill="#ff5020" d="M320.6 143.8l12.7-21 .6 21.8-70 31.7" />
    <path fill="#fff" d="M249.3 282.3l32.5 13 13-72.8-5.2 69" />
    <path fill="#f5f5f5" d="M794.7 78.5l-79.4-77L790 78l94.3 93" />
    <path fill="#7fdbe4" d="M390 664.6l-46-.5-74 4 87.5-1" />
    <path fill="#fff" d="M271 290l12.5-25.8-31.6 9 19 2" />
    <path fill="#f4f4f3" d="M611.8 256l-34.3-29.6 30.2 32 95-93" />
    <path fill="#fff" d="M622 292l-54.4 37.4 109.6 3 93.2-22.3" />
    <path fill="#ffa448" d="M544 14l-16.4 17-.8-20 20-7.3" />
    <path fill="#c0c2bf" d="M984.8 106l18.5 12.5-29 27 1.4-52.7" />
    <path fill="#131313" d="M240 293.7l58.4 10.2-4.2-55 9 54" />
    <path fill="#fff" d="M648.7 115.8L651.3-31l27 48.5-2 188.2" />
    <path fill="#e3e8e7" d="M7 631.4l-10.3 10.4 63.6-33.5 1 22" />
    <path fill="#508dce" d="M14.4 187.8l76-22-75.6 11h3.4" />
    <path d="M247.4 263l-7.2 40.5 9.5-5.5v-20.5" />
    <path fill="#fcef46" d="M663 527l-5.7-3.2h72.3l42.3 2" />
    <path fill="#a6a7a6" d="M627 225l-14.4-3.6-70-.8-1 4.4" />
    <path fill="#b2ab30" d="M694.5 514.6l-186.8-.4-13.6 7.4 216 2.6" />
    <path fill="#fff" d="M428.2 264l90.8 56-49.2-47.6-43 2.7" />
    <path fill="#bcbdbc" d="M589.8 158.4l8.8 8L620 105l20 6" />
    <path fill="#afb0ae" d="M984.7 218.4l29 12.4L982 201l31 41.4" />
    <path fill="#fe5428" d="M337.5 138.3L270.7 188l-43.3 1 97-37.3" />
    <path fill="#288f9b" d="M95.7 379.4l10.2 10-97-10.2 112 .6" />
    <path fill="#e4e4e4" d="M501.7 191.5l141.3 5.3-72.7 79 87.2-88.6" />
    <path fill="#dff9fc" d="M352.6 395.5L466 393l-113.7-2.5.5 19" />
    <path fill="#4a8dcf" d="M296.7 354l-24.8 2.6 45 .2 39-1.5" />
    <path fill="#f1f0f2" d="M730 169.5l152 154-129-124.8-32.6 5.7" />
    <path fill="#151515" d="M353 290l.7-41.3-6.7 28.5.8 23" />
    <path fill="#dfcac5" d="M499 409l-35-.2-85.2 110 82.4-106" />
    <path fill="#f3f4f2" d="M506.5 279.2l119.3-119.8-165.2 174.4 46.6-143.6" />
    <path fill="#fc653d" d="M489.6 421.7l62.5 2.6h-98l-15-9.3" />
    <path fill="#5997d1" d="M878.3 343l-51.5 2 179-1-52-1" />
    <path d="M386 259.6l16 5.7-35-5.3 6-6" />
    <path fill="#f3f5f5" d="M298 663.3l277 2L423.4 593 361 666.5" />
    <path fill="#acaaad" d="M644.3 62.6l-22 19L515.6 77H631" />
    <path fill="#6ddde1" d="M947.8 299.2l-19-3.6-4 6 11 7" />
    <path fill="#fff" d="M458.2 330.7l181.4-.2-144-34.6L479 172" />
    <path fill="#fdfeff" d="M340 277.7l-5.2 11.6 26 30.5.2 26.8" />
    <path fill="#319eab" d="M204 665l239 3.6-262 9.2 3-12.5" />
    <path fill="#fff" d="M199.8 158.2l4.6 7.4 37.6 9.2-43.2-90m89 209l-11.5-10.4-26.7 1.8 15.4 9m16.4-37.5l161.3-5.8L339 154l-172 85.3" />
    <path fill="#abaca9" d="M529.6 266l1-25.4 5.7 11.8 39.6-35" />
    <path fill="#2c8b96" d="M171.5 385.5l-53-5.7 81.4-.5 32 9.5" />
    <path fill="#f2f2f2" d="M633.5 586.8l52 15.7-46 88.8 5 1.8" />
    <path fill="#a6a5a6" d="M636.4 126l-70.8-75.3 74.4 73.5-52.3-.6" />
    <path fill="#f7f6f6" d="M470 392l89.2 5.3L452 359.7l7 9.7" />
    <path fill="#fffa7f" d="M71 735l135.8-1-114.3-1.7-60.2 1.4" />
    <path fill="#a4a4a3" d="M779.3 66.3v83.5l2.4-14.5L785 57" />
    <path fill="#fff" d="M245.8 46.7L297.6 65 275 79.2l5.2 87.2" />
    <path d="M102.8 297.4l8.2-15.6-2.6 20.6-7.8-2.2m87.6-37.6l-9 5.2 9.2 6.2 20.6 23.7" />
    <path fill="#aeadae" d="M600.2 213.3l17-14-97 98 42.2-46.5" />
    <path fill="#f6efeb" d="M448 362l5.4 23.3-1 15.7-8.5 14.5" />
    <path fill="#e4e4e4" d="M543.3 60.7L654 170 534.8 45.7l29.7-2" />
    <path fill="#d6d3d7" d="M932.5 232.5l-64.2 52.8-3.6-96.5-3.3 92.2" />
    <path fill="#fff" d="M948.5 44.6L1055-13.7 514.5 6 566 8.2m215.7 284.4l10.5 11.6 193.2-10L889 293" />
    <path fill="#ff8d2f" d="M67.6 150l12.2-9.2 4.4-22-16.6-1.5" />
    <path fill="#f9562c" d="M676.7 423.7L701 425l37-.4-16-3" />
    <path d="M25 298.5l15-26 18.5-.4-31.5 3" />
    <path fill="#edeced" d="M620.6 330.7L629 342 514 229l49.6 53" />
    <path fill="#cecfcf" d="M754.4 194.3l70.4.8-18 51 20.2-58" />
    <path fill="#f2f4f5" d="M679.6 130.8L565.3 11l-19 20-3.3-50.3" />
    <path fill="#a6a9a5" d="M549 138.7l6 1.6-1-58-1.4-31" />
    <path fill="#a2a2a2" d="M780.2 279.4l1 9.3 3.3-26.2-5.6-63.3" />
    <path fill="#e8e2eb" d="M981.6 215L911 289.4l57.8-56.5 59-60" />
    <path fill="#858025" d="M424.8 516l-24 5.6 42.8 2-54-8.4" />
    <path fill="#28b489" d="M233.2 162l2.5-91.6L243 53l4.8 107.5" />
    <path fill="#4a8bcf" d="M724.8 356.4l6 1-99-1.7 116-1" />
    <path fill="#cacacb" d="M815.4 44.8l8 4.5-38.6 1.7-3-5.6" />
    <path fill="#f4f4f5" d="M1007.3 759.6l1.3-232.3-126.3 118.3-4 119.5" />
    <path fill="#c9c9c7" d="M615.8 441l1.4-13 129.4 9 92.8-1" />
    <path fill="#fff55b" d="M905 527.3l11-5.4h-5l88 3" />
    <path fill="#030303" d="M249.8 265l-11-6-1.7-.5 54-.7" />
    <path fill="#a6a6a6" d="M816 267.6l3.6-47-45 50.5 36.4-36" />
    <path fill="#eae7eb" d="M944.3 150L853 63 681.7-25l189 97.5" />
    <path fill="#030303" d="M207.3 294.4l4-4.2-21-21.3-14.3-10" />
    <path fill="#060606" d="M139.6 302.3l-17-15.2 22.6-3-12-5" />
    <path fill="#a6a5a6" d="M609 119.6l25.4 22-78-77-6-3" />
    <path fill="#bcc0bd" d="M978.4 162.6l-8-4-12.7 5.2-1-13" />
    <path fill="#fff" d="M915.5 146.6l139.5 19.8V145l-68 3" />
    <path fill="#e5f7f8" d="M70 613.2l75-7.5-159 8 26 3.4" />
    <path fill="#e2f5f4" d="M236.4 666l112-2.8-89.5-1H117" />
    <path fill="#efedf1" d="M717.2 210.5L602.4 106.3l113 119.5L605.4 94" />
    <path fill="#f7cabd" d="M384 409.8l44.2 10.6-20.4 1.6 82.6 40.6" />
    <path fill="#fff" d="M150 145.5L-9.7 216l104 13.5 37-106.4" />
    <path fill="#fbe843" d="M877.7 745.5l-45 2L844 740l-1.6 1.6" />
    <path fill="#fb7652" d="M520.7 410.8l-107 13.6 212 .6-169-13.6" />
    <path fill="#e8feff" d="M867 462l125.5-.4 62.5 32.6-58-36" />
    <path fill="#fefefe" d="M75 256.8l5 7.5-39.8-16.7 17-2.3" />
    <path fill="#4387cc" d="M427 577l-103.7-1.3 55.2-2.3 125 3" />
    <path fill="#a09f9f" d="M597.4 229.8l-34.4 31-32.3-29 34.8 32.5" />
    <path fill="#9fa028" d="M494 735.7l61.4-1-53.7 12.4 9-2" />
    <path fill="#fd815f" d="M162 632l-94.4 12.6-52.6.4 40.3-13.8" />
    <path fill="#fff" d="M1055 51.3l-66.5 2.3-98.4 1.7 20-4" />
    <path fill="#fbfcfc" d="M434.5 168l-12 .6L505 183l-.2-30.5" />
    <path fill="#fff" d="M535.6 760.7l-254 10.5 454-3-121.2-5.8" />
    <path fill="#f5f5f5" d="M921 698.8l-272.6-85.2 1.3 79L777 698" />
  </g>
</svg>