<svg version="1.1" viewBox="0 0 1024 768" width="1024" height="768" xmlns="http://www.w3.org/2000/svg">
  <g fill-opacity=".5">
    <path fill="#fff" d="M421 305l-189 33 4-124 2 92" />
    <path fill="#fff" d="M404 268l89-70-86 18 11 115" />
    <path fill="#f4f4f4" d="M99 580l-20 29 56 19 138-50" />
    <path fill="#ff9b71" d="M571 157l15 4-28 3 8-13" />
    <path fill="#0f0f0f" d="M178 309l4-23 2-29h-7" />
    <path fill="#5f98d2" d="M82 578l-72-3 41-1 134 3" />
    <path fill="#fff952" d="M750 747h117l-99-5-87 5" />
    <path fill="#fff" d="M446 137l-6-86-23 3 5 103" />
    <path fill="#4185c9" d="M120 125l-5 1-39 51 53-42" />
    <path fill="#feffff" d="M10 293L-31 5l48 33 1 61" />
    <path fill="#ff5629" d="M142 136l-28-50 61 62 26 36" />
    <path fill="#51dcef" d="M738 460l132-2-23-2-158 1" />
    <path fill="#a3a4a2" d="M569 292l53-50-4-32 7 24" />
    <path fill="#fff" d="M434 283l32 1v10l-39-4" />
    <path fill="#f2f5f8" d="M888 461l-2 42-5-22-200-22" />
    <path fill="#bfbec0" d="M837 134l-95 13 100-1-95-11" />
    <path fill="#fff" d="M344-27L-31 7l93 26 69 33m173 19l14-5 22 32-27 29" />
    <path fill="#fea386" d="M535 703l92-2-150-3 31 14" />
    <path fill="#a4b7ba" d="M787 156l-59 6-25-10 84 10" />
    <path fill="#f4f4f3" d="M497 399l-16 11 173 1-254-52" />
    <path fill="#262b27" d="M76 628h14l3-5-37 6" />
    <path fill="#fdfdfe" d="M1055 174l-36-158-6 191-61 63" />
    <path fill="#0a0a0a" d="M302 262l41 4-21-8-32-2" />
    <path fill="#fff" d="M83 156l12-25 34-16-44-45" />
    <path fill="#9fa09f" d="M588 117l18 23-62-62-2-5" />
    <path d="M436 298l-27-5 48 4 5 4" />
    <path fill="#2c828b" d="M713 445l-12 3 63 7-88-1" />
    <path fill="#4f8dcd" d="M282 36l-99 16 18-19 39-5" />
    <path fill="#fdfffe" d="M525 54L513 2l-1 46 165 7" />
    <path fill="#e8e7e8" d="M601 124L440-31l79 77 147 150" />
    <path fill="#fff" d="M561 147l101 1-122 6-80-5" />
    <path fill="#e2e2e2" d="M558 219l17 13 109 113-137-135" />
    <path fill="#eceded" d="M598 104L476 226 621 76l74-69" />
    <path fill="#f8f6f4" d="M739 714l104-1 60 1-120 19" />
    <path fill="#f4f4f3" d="M373 427l-236-9-168 94 572-1" />
    <path fill="#a4a4a3" d="M624 278l27 25-100-99 8 12" />
    <path fill="#424441" d="M648 697l-4-15-18 3 8 12" />
    <path fill="#fc9d82" d="M51 629l40 11 36 2 40-9" />
    <path fill="#ffd5d2" d="M817 702l-128-1 42 2h90" />
    <path fill="#aca7a3" d="M633 683l-4 10-2-26-14 8" />
    <path fill="#e8e6e9" d="M478 165l110 102 45 49-61-59" />
    <path fill="#fff" d="M1021 307l-4 198 4 290 34-274" />
    <path fill="#e3c9f0" d="M756 45l2 103-73-10 43-64" />
    <path fill="#e46e46" d="M740 301l8 6 16-4-10-2" />
    <path fill="#0e0d0d" d="M163 303h5l-8-7-5 1" />
    <path fill="#88e7cb" d="M506 60l9-7 6 17-15-5" />
    <path fill="#518ecd" d="M384 166l-44-53 9-1 49 43" />
    <path fill="#aaafab" d="M883 58l1 87 12-93 3 83" />
    <path fill="#e5eff1" d="M548 684l52-7 16 24-1-19" />
    <path fill="#50ecfe" d="M317 677l99 1-68 2 19 1" />
    <path fill="#010101" d="M31 243l-1-8 40-2 23 1" />
    <path fill="#fe6e47" d="M691 424l50-2 6-7-19 3" />
    <path d="M295 284l-3-31 16 33 26-10" />
    <path fill="#eff0f1" d="M10 328l252 15H18L8 479" />
    <path fill="#efefef" d="M762 164l99-92 45 52-53-51" />
    <path fill="#9da8a7" d="M472 377l-13 49 12-38-44-1" />
    <path fill="#fcfcfc" d="M946 270L828 161l214 4-174 27" />
    <path fill="#eceaed" d="M790 92L902-26 774 112l-50 44" />
    <path fill="#ff5429" d="M5 33l8 3 10-7 86 36" />
    <path fill="#75a8db" d="M828 576l40 2-64-15 70 2" />
    <path fill="#649cd5" d="M947 354l-59 1 66 3 36-2" />
    <path fill="#fff" d="M325 180l18 102 20-90 177 7" />
    <path fill="#3c83cb" d="M655 577h43l41-1-36-1" />
    <path fill="#f6fcf6" d="M454 698l87 1-85-4 5 27" />
    <path fill="#030303" d="M88 234l-57 2 60 12 4-1" />
    <path fill="#35abb9" d="M347 391l-72-7 170 7 7-11" />
    <path fill="#f4f3f3" d="M1019 432l-232-66-2 69 1 9" />
    <path fill="#a7a7a6" d="M636 266l-74-71 78 78-85-4" />
    <path fill="#25b388" d="M238 166l-4-109 17 2h-2" />
    <path fill="#f4f5f5" d="M570 409l53-52 280 2-122 53" />
    <path fill="#2aa3b2" d="M871 456l-1-11-149 1 67 12" />
    <path fill="#030303" d="M291 260l39-4 2 23 3-21" />
    <path fill="#f5f3f5" d="M593 284l57 48-33-18-88-90" />
    <path fill="#aeaead" d="M567 277l43 2-10 6-72-6" />
    <path fill="#f8f8f7" d="M195 329l-18-1-4-160-4 123" />
    <path fill="#9d9d9c" d="M794 74l16-17v-3l-45 48" />
    <path fill="#d6d7d7" d="M679 209l7 35-6 51v-58" />
    <path fill="#f5f5f5" d="M63 257l10 7-33-4v-16" />
    <path fill="#fff" d="M318 277l2-2 8-9h-27" />
    <path fill="#2c484d" d="M454 404l2 5 5-1h37" />
    <path fill="#5793d3" d="M428 357l-12-8-29 8h23" />
    <path fill="#fb957a" d="M651 711l-127-11 86-2 109 3" />
    <path fill="#fff" d="M303 286l18 9 24 27-42 1" />
    <path fill="#a5a6a5" d="M640 212l-72 72 56-72-74 74" />
    <path fill="#fa9e84" d="M287 631h-96l-109 9 179 3" />
    <path fill="#f1f3f3" d="M659 465l-214-27 73 76 425-56" />
    <path fill="#c6f1f5" d="M734 443l33 2 23 1-1-3" />
    <path fill="#fff" d="M25 327l-1-99 38 5-93-92" />
    <path fill="#548fce" d="M459 194l6-21-57 6-69-62" />
    <path fill="#fff" d="M30 176l49-18-13-15 1-92" />
    <path fill="#cfcecb" d="M317 395l88 4h49l-132 12" />
    <path fill="#f4f4f4" d="M621 254l-46 46 100 43-121-3" />
    <path fill="#ff882a" d="M66 143h8l-9-62 15 9" />
    <path fill="#ededed" d="M800 106l-64-61 69 70 40 41" />
    <path fill="#f5f6f4" d="M828 527l-214 2 303 40 93-41" />
    <path fill="#f0f0f0" d="M882 133l-65-38L709-17l122 120" />
    <path fill="#4b5350" d="M778 427l6 6-1 5-35 10" />
    <path fill="#f0f0f0" d="M764 188l-235-27 139 144-150-145" />
    <path fill="#fde2dd" d="M889 703l-130-11 132 6-73 5" />
    <path fill="#a2a2a2" d="M595 123l2-53 6 57-63-3" />
    <path fill="#eceff1" d="M786 267l6 189-7-193 92-89" />
    <path fill="#adacad" d="M820 83l-66 62 67-68-36 3" />
    <path fill="#fbfbfb" d="M110 289l9 9 39 38-38-51" />
    <path fill="#ff5020" d="M321 144l12-21 1 22-70 31" />
    <path fill="#fff" d="M249 282l33 13 13-72-5 69" />
    <path fill="#f5f5f5" d="M795 79L715 2l75 76 94 93" />
    <path fill="#7fdbe4" d="M390 665l-46-1-74 4 88-1" />
    <path fill="#fff" d="M271 290l13-26-32 9 19 2" />
    <path fill="#f4f4f3" d="M612 256l-35-30 31 32 95-93" />
    <path fill="#fff" d="M622 292l-54 37 109 3 93-22" />
    <path fill="#ffa448" d="M544 14l-16 17-1-20 20-7" />
    <path fill="#c0c2bf" d="M985 106l18 13-29 27 2-53" />
    <path fill="#131313" d="M240 294l58 10-4-55 9 54" />
    <path fill="#fff" d="M649 116l2-147 27 48-2 189" />
    <path fill="#e3e8e7" d="M7 631l-10 11 63-34 1 22" />
    <path fill="#508dce" d="M14 188l76-22-75 11h3" />
    <path d="M247 263l-7 41 10-6v-20" />
    <path fill="#fcef46" d="M663 527l-6-3h73l42 2" />
    <path fill="#a6a7a6" d="M627 225l-14-4h-70l-1 4" />
    <path fill="#b2ab30" d="M695 515l-187-1-14 8 216 2" />
    <path fill="#fff" d="M428 264l91 56-49-48-43 3" />
    <path fill="#bcbdbc" d="M590 158l9 8 21-61 20 6" />
    <path fill="#afb0ae" d="M985 218l29 13-32-30 31 41" />
    <path fill="#fe5428" d="M338 138l-67 50-44 1 97-37" />
    <path fill="#288f9b" d="M96 379l10 10-97-10 112 1" />
    <path fill="#e4e4e4" d="M502 192l141 5-73 79 87-89" />
    <path fill="#dff9fc" d="M353 396l113-3-114-2 1 19" />
    <path fill="#4a8dcf" d="M297 354l-25 3h45l39-2" />
    <path fill="#f1f0f2" d="M730 170l152 154-129-125-33 5" />
    <path fill="#151515" d="M353 290l1-41-7 28 1 23" />
    <path fill="#dfcac5" d="M499 409h-35l-85 110 82-106" />
    <path fill="#f3f4f2" d="M507 279l119-120-165 175 46-144" />
    <path fill="#fc653d" d="M490 422l62 2h-98l-15-9" />
    <path fill="#5997d1" d="M878 343l-51 2 179-1-52-1" />
    <path d="M386 260l16 5-35-5 6-6" />
    <path fill="#f3f5f5" d="M298 663l277 2-152-72-62 74" />
    <path fill="#acaaad" d="M644 63l-22 19-106-5h115" />
    <path fill="#6ddde1" d="M948 299l-19-3-4 6 11 7" />
    <path fill="#fff" d="M458 331l182-1-144-34-17-124" />
    <path fill="#fdfeff" d="M340 278l-5 11 26 31v27" />
    <path fill="#319eab" d="M204 665l239 4-262 9 3-13" />
    <path fill="#fff" d="M200 158l4 8 38 9-43-90m89 209l-12-11-26 2 15 9m16-37l162-6-104-97-172 85" />
    <path fill="#abaca9" d="M530 266l1-25 5 11 40-35" />
    <path fill="#2c8b96" d="M172 386l-53-6 81-1 32 10" />
    <path fill="#f2f2f2" d="M634 587l52 15-46 89 5 2" />
    <path fill="#a6a5a6" d="M636 126l-70-75 74 73h-52" />
    <path fill="#f7f6f6" d="M470 392l89 5-107-37 7 9" />
    <path fill="#fffa7f" d="M71 735l136-1-114-2-61 2" />
    <path fill="#a4a4a3" d="M779 66v84l3-15 3-78" />
    <path fill="#fff" d="M246 47l52 18-23 14 5 87" />
    <path d="M103 297l8-15-3 20-7-2m87-37l-9 5 9 6 21 24" />
    <path fill="#aeadae" d="M600 213l17-14-97 98 42-46" />
    <path fill="#f6efeb" d="M448 362l5 23-1 16-8 15" />
    <path fill="#e4e4e4" d="M543 61l111 109L535 46l29-2" />
    <path fill="#d6d3d7" d="M933 233l-65 52-3-96-4 92" />
    <path fill="#fff" d="M949 45l106-59L515 6l51 2m216 285l10 11 193-10-96-1" />
    <path fill="#ff8d2f" d="M68 150l12-9 4-22-16-2" />
    <path fill="#f9562c" d="M677 424l24 1h37l-16-3" />
    <path d="M25 299l15-26 19-1-32 3" />
    <path fill="#edeced" d="M621 331l8 11-115-113 50 53" />
    <path fill="#cecfcf" d="M754 194l71 1-18 51 20-58" />
    <path fill="#f2f4f5" d="M680 131L565 11l-19 20-3-50" />
    <path fill="#a6a9a5" d="M549 139l6 1-1-58-1-31" />
    <path fill="#a2a2a2" d="M780 279l1 10 4-27-6-63" />
    <path fill="#e8e2eb" d="M982 215l-71 74 58-56 59-60" />
    <path fill="#858025" d="M425 516l-24 6 43 2-54-9" />
    <path fill="#28b489" d="M233 162l3-92 7-17 5 108" />
    <path fill="#4a8bcf" d="M725 356l6 1-99-1 116-1" />
    <path fill="#cacacb" d="M815 45l8 4-38 2-3-6" />
    <path fill="#f4f4f5" d="M1007 760l2-233-127 119-4 119" />
    <path fill="#c9c9c7" d="M616 441l1-13 130 9 92-1" />
    <path fill="#fff55b" d="M905 527l11-5h-5l88 3" />
    <path fill="#030303" d="M250 265l-11-6h-2l54-1" />
    <path fill="#a6a6a6" d="M816 268l4-47-45 50 36-36" />
    <path fill="#eae7eb" d="M944 150l-91-87-171-88 189 98" />
    <path fill="#030303" d="M207 294l4-4-21-21-14-10" />
    <path fill="#060606" d="M140 302l-17-15 22-3-12-5" />
    <path fill="#a6a5a6" d="M609 120l25 22-78-77-6-3" />
    <path fill="#bcc0bd" d="M978 163l-8-4-12 5-1-13" />
    <path fill="#fff" d="M916 147l139 19v-21l-68 3" />
    <path fill="#e5f7f8" d="M70 613l75-7-159 8 26 3" />
    <path fill="#e2f5f4" d="M236 666l112-3-89-1H117" />
    <path fill="#efedf1" d="M717 211L602 106l113 120L605 94" />
    <path fill="#f7cabd" d="M384 410l44 10-20 2 82 41" />
    <path fill="#fff" d="M150 146l-160 70 104 14 37-107" />
    <path fill="#fbe843" d="M878 746l-45 2 11-8-2 2" />
    <path fill="#fb7652" d="M521 411l-107 13 212 1-169-14" />
    <path fill="#e8feff" d="M867 462h126l62 32-58-36" />
    <path fill="#fefefe" d="M75 257l5 7-40-16 17-3" />
    <path fill="#4387cc" d="M427 577l-104-1 56-3 125 3" />
    <path fill="#a09f9f" d="M597 230l-34 31-32-29 35 32" />
    <path fill="#9fa028" d="M494 736l61-1-53 12 9-2" />
    <path fill="#fd815f" d="M162 632l-94 13H15l40-14" />
    <path fill="#fff" d="M1055 51l-66 3-99 1 20-4" />
    <path fill="#fbfcfc" d="M435 168l-12 1 82 14v-30" />
    <path fill="#fff" d="M536 761l-254 10 454-3-122-6" />
    <path fill="#f5f5f5" d="M921 699l-273-85 2 79 127 5" />
  </g>
</svg>