<svg version="1.1" viewBox="0 0 1024 768" width="1024" height="768" xmlns="http://www.w3.org/2000/svg">
  <g fill-opacity=".5">
    <path fill="#756b41" d="M682 502l4 5 2 26 20 7" />
    <path fill="#2193cc" d="M273 715l-23-18-16-2 24-3" />
    <path fill="#e2e9ec" d="M479 124l9 27-15-6 5-20" />
    <path fill="#fff480" d="M609 109l97-7 30 10-131-10" />
    <path fill="#2864b6" d="M717 137l22-30-7-5-13 69" />
    <path fill="#3e72b2" d="M799 41l21 136-58-32 42 118" />
    <path fill="#9d9b8f" d="M966 660l-17-17 11 28-20 11" />
    <path fill="#3b71b3" d="M201 344L11 271l335 1 150 73" />
    <path fill="#fdfbf4" d="M96 142l-12-4 29 45 12-4" />
    <path fill="#8e8041" d="M324 412l14-18 80 22-106 1" />
    <path fill="#ffcb00" d="M479 443l-60 152-247-2 311-37" />
    <path fill="#ffc900" d="M619 580l-236-10 202 23 15-146" />
    <path fill="#ffcb00" d="M1053 584L862 365l23 53 159-58" />
    <path fill="#59abce" d="M816 713l-20 26-19-29 34 35" />
    <path fill="#3a6fb1" d="M265 185l276 1 111-1-48 69" />
    <path fill="#fffdf5" d="M143 177l-22 4 40 2-15-53" />
    <path fill="#47a2ca" d="M248 742l17-44 2 34-35-7" />
    <path fill="#6e653d" d="M257 392l-1 42 7-45 16 13" />
    <path fill="#ffef7f" d="M576 181l-29-44 43 45-3 1" />
    <path fill="#fce582" d="M978 180l-47 5 1-13 1 3" />
    <path fill="#fad65a" d="M348 417l20-15-8 46-15-85" />
    <path fill="#7e7e76" d="M398 637l3 31 4-36h-7" />
    <path fill="#73b4c8" d="M740 736l39-3 5-32-8 13" />
    <path fill="#fdfcf2" d="M487 181l-12 2 8-13 9 2" />
    <path fill="#3d72b2" d="M536 258l30-88 19 20 335-4" />
    <path fill="#efe5d3" d="M828 731l-64 68 102-24-10-132" />
    <path fill="#339acc" d="M883 698h-1l12-4-43-2" />
    <path fill="#3f73b2" d="M288 182l219 65-422 1 208-75" />
    <path fill="#366daf" d="M829 156l27 46-27-84 18-9" />
    <path fill="#e7e3d2" d="M784 680l-6 95 64-146-51 155" />
    <path fill="#3067a9" d="M319 133l-9-18 8-5h27" />
    <path fill="#ffea83" d="M709 139l1 19 10-6-5-24" />
    <path fill="#ffe77f" d="M709 532l20 6 8-52-54-2" />
    <path fill="#fff583" d="M952 144v-43l-9 30-2 51" />
    <path fill="#ffdf61" d="M535 503l-14 61 20-73 4 67" />
    <path fill="#ffe688" d="M827 109l6 30 22 4-42 5" />
    <path fill="#53a9cd" d="M439 733l-76 2 67-6 19-15" />
    <path fill="#ffec84" d="M949 103l-37 12 23-17 17 42" />
    <path fill="#ffe883" d="M861 119l-11-22 11 6 7 15" />
    <path fill="#fff17e" d="M783 135l4 20-23-19-14 21" />
    <path fill="#3a6faf" d="M333 137l24 28 22-33v37" />
    <path fill="#f0e6d4" d="M936 692l-243-8 260-22-32 137" />
    <path fill="#87827a" d="M419 620v50l7-38-2 11" />
    <path fill="#b1a635" d="M60 277l-17-39 3 35-7-22" />
    <path fill="#3a70b1" d="M536 179l-107-23 69-9 36-17" />
    <path fill="#396eb0" d="M678 117l-26-34 25 82 3-57" />
    <path fill="#ffeb83" d="M868 177l32 6-13-89 1 92" />
    <path fill="#a9a79a" d="M702 664l66-19-11 20-76-34" />
    <path fill="#3c71b2" d="M566 147l13 3 14-80 17 109" />
    <path fill="#3c71b3" d="M965 111h-15l59 203 46-136" />
    <path fill="#ffea6a" d="M340 415l-3 16v-30l4-37" />
    <path fill="#7a9dbb" d="M447 256l66-4-52 26 6-10" />
    <path fill="#fffffa" d="M143 102l6-7 4 12-13 5" />
    <path fill="#1b57a1" d="M101 114l-16-3-2 26 20-8" />
    <path fill="#306ab1" d="M751 167l-25 18 20-37 1-23" />
    <path fill="#aca437" d="M288 269l-20 3 22-15-25 1" />
    <path fill="#7295bb" d="M950 282l63-31-83 6 9 9" />
    <path fill="#ffea83" d="M668 365v80l16-44-202-38" />
    <path fill="#265d9e" d="M650 111v47l6-37-36-9" />
    <path fill="#789387" d="M847 409l-14 15 24-10 3 16" />
    <path fill="#ffcd00" d="M914 587l141 2-106-168-133 3" />
    <path fill="#4e4d36" d="M538 526v7l-3 7-1-31" />
    <path fill="#abab9c" d="M101 667l86-27-49 9-44-9" />
    <path fill="#3e72b3" d="M-11 183L-31 7 71 117l1 58" />
    <path fill="#f4de87" d="M800 104l-23 32 24-23-114-10" />
    <path fill="#fcfcf6" d="M79 182h18l-16-11-28 11" />
    <path fill="#396ca8" d="M314 138l-1 37 53 15-19-8" />
    <path fill="#ffcb00" d="M228 447l-259 36v96l237 16" />
    <path fill="#74b5c9" d="M964 703l-37 6-5 29 2-3" />
    <path fill="#366db4" d="M913 200l29-34-34-57-10 45" />
    <path fill="#3366a4" d="M791 113l10 20-22-9-12-15" />
    <path fill="#c1a414" d="M439 550l-4-15-36-20 40 5" />
    <path fill="#9baebf" d="M760 274l19 7 8-27v15" />
    <path fill="#fffffd" d="M390 98l-9 5-4 11 10-3" />
    <path fill="#3e72b2" d="M182-31l58 237-22-95-34 22" />
    <path fill="#f1e6d1" d="M938 689l-21 110 20-67 17-82" />
    <path fill="#605938" d="M702 523l-16 18 8-26 3-1" />
    <path fill="#3a70b1" d="M156 146l-4 44 17-68 2 74" />
    <path fill="#356caf" d="M259 222l40-69-45-34 47-10" />
    <path fill="#ffcb00" d="M858 375l7 48-53-75H701" />
    <path fill="#346cb6" d="M880 145l-8 46-11-4-9-70" />
    <path fill="#f4df85" d="M872 185l4-1h34l-20-18" />
    <path fill="#ebe3d1" d="M669 677l88 7-137 115 96-170" />
    <path fill="#ffea86" d="M635 378l121 23 46-35-130-2" />
    <path fill="#ffe578" d="M356 356l6 11 35-4-12 50" />
    <path fill="#3d71b0" d="M1055 187l-385-3 43 105 1-42" />
    <path fill="#fff87d" d="M851 126l-4 11 2 21 5-6" />
    <path fill="#4878b3" d="M142 126l2 49-16-2 1 22" />
    <path fill="#f2e8d6" d="M407 672l42 45 16-31-61-33" />
    <path fill="#efde85" d="M644 125l15-7-35-18 38 8" />
    <path fill="#ffeb84" d="M642 184l25-15-18 7h-83" />
    <path fill="#2961a4" d="M84 148v19l30 26-20-38" />
    <path fill="#2d98c9" d="M798 699l1 1-9 32-2-12" />
    <path fill="#ece3d1" d="M222 644l173-7 69-42-128 2" />
    <path fill="#ffed83" d="M681 135v43l11-29 11-10" />
    <path fill="#ede4d2" d="M1040 732l-143 59 8-103-15 48" />
    <path fill="#4c4b38" d="M519 545l2-31h11l-15 15" />
    <path fill="#fbda67" d="M372 379l-52 30-161-50 151 46" />
    <path fill="#69603a" d="M668 527l2-15 18 30-42-31" />
    <path fill="#b0aea0" d="M336 662l-48 3-99-20 144-1" />
    <path fill="#2f66ab" d="M211 159l-7-20-18 12 1 23" />
    <path fill="#eee6d1" d="M800 646l-26 101 33-76-31-23" />
    <path fill="#fdd857" d="M689 532l-20-25-38 95 49-105" />
    <path fill="#dbb005" d="M861 479l-68 21-9 57 61 24" />
    <path fill="#ffe584" d="M261 364l-71 23-11 16-20-40" />
    <path fill="#fff083" d="M886 168v-51l10-9 1 41" />
    <path fill="#f3e8d0" d="M774 695l-24 104 25-84-30-13" />
    <path fill="#70b3c9" d="M742 736l-10-2 7-9 19 9" />
    <path fill="#60889a" d="M898 395l13 5-10 18-4 3" />
    <path fill="#faf8f2" d="M413 177l2-34 3-33 9 77" />
    <path fill="#fefbf3" d="M387 172l12 12-33-4 25-12" />
    <path fill="#f9cd0a" d="M907 402l-12 10-28-7 21-8" />
    <path fill="#fffff9" d="M302 184l11-16-1-65-7 8" />
    <path fill="#ffc900" d="M365 363l-200-16-139 2 104 14" />
    <path fill="#7598bb" d="M600 274l-25-2-47-6 96-14" />
    <path fill="#3b70b2" d="M444 131l-22 42 55 12-91-211" />
    <path fill="#22538b" d="M753 186l-184 4 40-6 37 2" />
    <path fill="#aaa99b" d="M764 642l108 21-82 2 128-18" />
    <path fill="#50a7c9" d="M921 737l-15-13-2-16-2 22" />
    <path fill="#ffe982" d="M924 102l54 12-4 8 4-18" />
    <path fill="#f7f6f1" d="M107 134l-35 17 47-11-5-28" />
    <path fill="#2e66a8" d="M557 156l17 24-20-7-10-24" />
    <path fill="#fd6" d="M392 411l4 24 47-71-1 75" />
    <path fill="#ffe688" d="M272 363l8 58 2-38 152-18" />
    <path fill="#fbf9f5" d="M381 186l11-34-5-18-7-5" />
    <path fill="#9c988d" d="M438 645l-14 33 21-33 12 23" />
    <path fill="#349bca" d="M949 709l20-5-26 9-5 28" />
    <path fill="#3d70ae" d="M589 141l17 53-38-49h3" />
    <path fill="#3d71b3" d="M750 161l-13-61L1055-3 689 2" />
    <path fill="#ffe786" d="M953 170v-60l-11-8 3 75" />
    <path fill="#f7d763" d="M286 389l-26 12 8 16 1-21" />
    <path fill="#ffe885" d="M816 176l-3 5 22 5-13-44" />
    <path fill="#3368ac" d="M796 179l-21-33-15 4 9 20" />
    <path fill="#3f72b1" d="M953 129l16-20 50 93-65-27" />
    <path fill="#ffef7e" d="M656 108l4 13-20-14 4-5" />
    <path fill="#4e7da5" d="M867 395l2 26-5-17 20-10" />
    <path fill="#5baaca" d="M281 736l-4-12-27 4 90 1" />
    <path fill="#f3e9d5" d="M283 652l-15 111 3-170-6 82" />
    <path fill="#6d8c8a" d="M848 413l5-9-16-13 11 24" />
    <path fill="#ebe5d2" d="M231 649l-66 94 49-97 18 97" />
    <path fill="#ffec84" d="M499 399l132-2-10 36-17-63" />
    <path fill="#53523a" d="M191 391l-8 21-5 6 2-14" />
    <path fill="#e9e2d1" d="M410 688l-4 58-213-14 231 67" />
    <path fill="#74726e" d="M930 636l2-5 1 42-4-25" />
    <path fill="#a09f93" d="M124 679l6-12-1-49-4 50" />
    <path fill="#ffd43f" d="M484 564l90 6 15-23-106-12" />
    <path fill="#ebe4d2" d="M74 799L-31 593l345 14-250 29" />
    <path fill="#fffef6" d="M223 142l-24 42 22-16-2-14" />
    <path fill="#3b70af" d="M153 177l18-15 3-53-18-5" />
    <path fill="#ffe57a" d="M440 377l-226-13-18 39 18-6" />
    <path fill="#918243" d="M206 416h101l-114-15-1-13" />
    <path fill="#ffe55f" d="M254 379l-4-16 7 60-22 7" />
    <path fill="#386eaf" d="M485 134l49 6 3-30-97 29" />
    <path fill="#ffe45f" d="M311 381l-7 42 1 17-13-53" />
    <path fill="#ffcd00" d="M845 417l-17-51 21 3-16 44" />
    <path fill="#8f8f84" d="M912 658l1-25-7 8 3 31" />
    <path fill="#158dc9" d="M434 705l6 1 3 21-15-24" />
    <path fill="#fffdf6" d="M205 131l-8-4 21 38-2-23" />
    <path fill="#eee4d0" d="M876 770l26-103-12 31-15-2" />
    <path fill="#3a6faf" d="M107-8l37 129-43 33 33-36" />
    <path fill="#faf9f3" d="M259 179l-23 1 36 2 11-33" />
    <path fill="#89a3be" d="M685 279h18l-1-25-13-1" />
    <path fill="#ebe2ce" d="M381 742l-38-95 45 59-10-116" />
    <path fill="#e9e2d0" d="M796 644l259-48-345 1-13 46" />
    <path fill="#3e72ae" d="M833 107l-4 31 21-8-9-1" />
    <path fill="#eae3d1" d="M655 666l14 50 90 15-41-66" />
    <path fill="#3e72b2" d="M416 129l-53-1 108-67-78-92" />
    <path fill="#5d593c" d="M559 524l-16 15 5-25 5-2" />
    <path fill="#f1e7d1" d="M281 590l14 97 14 74-6-62" />
    <path fill="#46a2c8" d="M805 735l14-38-6 32-30 3" />
    <path fill="#f9f7f5" d="M76 185l1-76-29-1 37-8" />
    <path fill="#afac9d" d="M393 666l-90-6 150 1-71 5" />
    <path fill="#eae3d2" d="M777 696l44-65-26 76-30-73" />
    <path fill="#e1dfcf" d="M423 698l-1 40 13-22-12-8" />
    <path fill="#3d72b2" d="M313 88L165 33l59 120 13-17" />
    <path fill="#ffe475" d="M659 487l-38 69-3 15-2-84" />
    <path fill="#ffe886" d="M547 102l-13 39 12 52 1-103" />
    <path fill="#eee6d1" d="M835 634l1 14-18 116-4-26" />
    <path fill="#fefcf7" d="M343 160l16 25-43-44 14-5" />
    <path fill="#396ca9" d="M554 114l-15-1 29 1-22 31" />
    <path fill="#9f9f92" d="M759 645l-38-2 6 28-9 1" />
    <path fill="#3b9dcb" d="M860 692l-4 3 18 4 23-7" />
    <path fill="#c2bc9c" d="M726 440l-28-56-14 23 23-19" />
    <path fill="#ffe484" d="M574 487l-44 30-56-33h18" />
    <path fill="#fdc900" d="M379 345l63 20 15 214 11-226" />
    <path fill="#ffdc63" d="M196 420l17-55 12 90-20-99" />
    <path fill="#ffeb85" d="M760 108l2 75-8-51-6-30" />
    <path fill="#504d36" d="M239 419l-11-14 7 2 9-6" />
    <path fill="#fefbf4" d="M194 129l-12 13 21-7 21 28" />
    <path fill="#aba333" d="M854 269l-19-20 20-2-16 24" />
    <path fill="#3c70b2" d="M285 168l-1-42-13 137-51-41" />
    <path fill="#ffecd2" d="M262 725l-16-27-4 6-1 19" />
    <path fill="#3f73b2" d="M604 183l-230 10-14-50 16 108" />
    <path fill="#aaa440" d="M717 246l3 39-6-31-8 1" />
    <path fill="#3d72b2" d="M783 108l11 65-23 94 48-123" />
    <path fill="#feca00" d="M602 345l-449 15 436 4 214-2" />
    <path fill="#474647" d="M183 653l-1 14-1-21 1-6" />
    <path fill="#fdebd2" d="M909 712l7-3 12 19h-15" />
    <path fill="#7c7041" d="M657 535l-8 13 9-47-5 30" />
    <path fill="#f8f8f5" d="M271 133l10 12-5 29-9 6" />
    <path fill="#e9e3d1" d="M216 702l-41-60-13 22 36-22" />
    <path fill="#1a8ecb" d="M381 709l20 2-3-5-5-3" />
    <path fill="#f9f7f3" d="M83 124v40l-12 26 2-61" />
    <path fill="#fffff9" d="M277 151l-26-23-7 7 32 2" />
    <path fill="#f4f5f1" d="M55 104l65 12 6 3-24-14" />
    <path fill="#e8e1d0" d="M701 595l-304 13 266 147 20-124" />
    <path fill="#ffcb00" d="M-31 529l430 64h495l-448-32" />
    <path fill="#c2b02a" d="M274 248l17-2-18 22 1-15" />
    <path fill="#3b70b3" d="M720 139l-8 39 37-26-1-43" />
    <path fill="#e8e1cf" d="M114 725l2-85-88 159 71-154" />
    <path fill="#ffd248" d="M668 537l5-8 36 40-96-6" />
    <path fill="#ffe16a" d="M370 374l-94 24 100-14 1 60" />
    <path fill="#3b6fb1" d="M926 111l17 5-4 49-44 12" />
    <path fill="#eae3d2" d="M418 759l-42 40 23-77-12-1" />
    <path fill="#3d72b2" d="M518 265l28-70-58-30 1 75" />
    <path fill="#ffe885" d="M489 420l-22-56v84l258-25" />
    <path fill="#ffe989" d="M782 415l-116 33h114l29-2" />
    <path fill="#3c71b3" d="M-24 245L59-31l-1 209 59 70" />
    <path fill="#f8cb00" d="M440 247l1 16-4 8-2-15" />
    <path fill="#5a553b" d="M195 379l-18 41-7-26 9 16" />
    <path fill="#faf1bc" d="M590 488l-3-2-95-1-3 3" />
    <path fill="#ffef80" d="M713 102l-5-5 21 25v-12" />
    <path fill="#837743" d="M392 383l24 35-86-18 67 5" />
    <path fill="#ffde5a" d="M390 368l2 61 34-26-28 30" />
    <path fill="#fee783" d="M977 123l6-13-63-3 48-5" />
    <path fill="#7798b9" d="M137 270l96-16-111-2 72 19" />
    <path fill="#3d72b3" d="M843 255l144-1 63 55 5-182" />
    <path fill="#ffd852" d="M591 560l-55-22-8-16-7 8" />
    <path fill="#a9a89b" d="M58 643h125L81 673l60-23" />
    <path fill="#d2af09" d="M838 572l38-24-6-56-5 73" />
    <path fill="#c4c09a" d="M514 388l-25 11h113l-81 22" />
    <path fill="#9a998d" d="M449 660l25-33-8 11-18 36" />
    <path fill="#ebdc89" d="M752 174l-4 4 36-1-50 9" />
    <path fill="#3399c9" d="M359 684l3 51 14-7-25 5" />
    <path fill="#4ba3ca" d="M284 702l16 5-2 22-4-1" />
    <path fill="#ffe280" d="M393 366l15 43-11 2 43-47" />
    <path fill="#47a2ca" d="M407 721l26 18 7-24-1 19" />
    <path fill="#e9e2d1" d="M848 605l-125 39-2 74-5-96" />
    <path fill="#fff67f" d="M912 119l8-19 3 11-3 6" />
    <path fill="#718f86" d="M824 397l14 32-5-27-5 3" />
    <path fill="#efe7d5" d="M911 627l-28 31 10 11-11-59" />
    <path fill="#fc0" d="M866 395l113-5-127-36-3 75" />
    <path fill="#fecb00" d="M379 518l205-63-190-11-411 69" />
    <path fill="#d7d188" d="M664 166l-15 23-2-13 9-12" />
    <path fill="#3a75bd" d="M834 416l3 8 11-16-4 13" />
    <path fill="#6eb4cd" d="M807 694l-67 4 11 21-5-28" />
    <path fill="#9a988c" d="M969 653l-46 9 16 3 30-17" />
    <path fill="#245eac" d="M708 148l-1 26-13-22-6-2" />
    <path fill="#3f72b0" d="M665 113l17-2-21 73-2-162" />
    <path fill="#376eb2" d="M118 202l-2 66-36-80 1 80" />
    <path fill="#3298c8" d="M756 737l5-17-17-17 25 18" />
    <path fill="#f0e7d5" d="M421 647l-42 40 34 27-9-94" />
    <path fill="#fc0" d="M842 489l38-66 3-23 9 108" />
    <path fill="#3f73b2" d="M1034 100l-2-131-369 132 189 1" />
    <path fill="#366cae" d="M347 135l-15 8 37 36 11-39" />
    <path fill="#366bad" d="M620 169l11-23-13 2 45 19" />
    <path fill="#3c71b3" d="M71 102L-31 13 86-31l80 130" />
    <path fill="#f2e8d2" d="M299 650l8 81-1-70 5-28" />
    <path fill="#929288" d="M707 664l169-3H701" />
    <path fill="#3e72b2" d="M466 175l-181 52 196 14-208 15" />
    <path fill="#ffee84" d="M610 102l11 2-3 37-4 50" />
    <path fill="#f1f2f0" d="M352 118l-34 26 46-44-28 3" />
    <path fill="#ffea83" d="M769 176l11 8-42-3 6-3" />
    <path fill="#3d71b2" d="M744 255l-207-65 477-5-167 62" />
    <path fill="#ece7d5" d="M905 713l21-49 2 1-10-60" />
    <path fill="#7eb9ca" d="M889 722l11-36 4 3-20 64" />
    <path fill="#fff" d="M-1 786l-30-198 22 211 8-204" />
    <path fill="#3e72b3" d="M858 178l19-64 8 61 12-2" />
  </g>
</svg>