<svg version="1.1" viewBox="0 0 1024 768" width="1024" height="768" xmlns="http://www.w3.org/2000/svg">
  <g fill-opacity=".5">
    <path fill="#dce2e5" d="M418.2 185.2l-6.8-19.4 29.3 15-16 6" />
    <path fill="#f3da84" d="M824 131l9.7-33 23 13.6L816 110" />
    <path fill="#3d71b3" d="M363.8 221.8L482 157.2l-18.7-25 22.2 121.4" />
    <path fill="#54a7c9" d="M865.7 711.5L868 739l9.2-60.7-9.3 39" />
    <path fill="#3c71b2" d="M299.6 179.2l-1.2-68-21.8 30.4 11.5 23.8" />
    <path fill="#3e72b3" d="M882.5 99.4l-331-5-127 36.2 4.5-159" />
    <path fill="#e5dfcd" d="M838.6 649.8L748 678.4 725.3 643l52.8 45.7" />
    <path fill="#eae2d1" d="M158.2 663.6l-6.3-47.4 6 152 97-99" />
    <path fill="#225896" d="M165 189l-49-3.2 127-1 67.6 3.6" />
    <path fill="#ffee81" d="M787 153.5l-7.4 6L783 127l1.7-1" />
    <path fill="#3e72b1" d="M336 345.8l252.2-75.5-381.6 1-169.4.8" />
    <path fill="#7d7442" d="M510.6 540.2l9.6-20-10.8-5 26 .6" />
    <path fill="#ffe688" d="M706.4 485.5l-24 38.3-26-28.8-50-9" />
    <path fill="#ffe586" d="M682.6 387.5l122 20-.2-42.8H515.2" />
    <path fill="#2e67ae" d="M691.7 116.8l27-6 3.2 11.8-21 13.7" />
    <path fill="#255894" d="M705.7 189.6l83.6-1-37.8-3.8-127.6 2.4" />
    <path fill="#3097cc" d="M241 690l-9 3.3 7.6 35.6-7.8 11" />
    <path fill="#6e92b9" d="M896.7 245.6L842 272l152.7-1.7-99-17.7" />
    <path fill="#3d72b3" d="M997.6 250.2l51 182.6-23-463.8L980 107" />
    <path fill="#5c563a" d="M358 381.5l-5.7 37-13.5-7.8 16 7" />
    <path fill="#3b6faf" d="M255 171.2l16.7-24-15.2-11-13.3 36.6" />
    <path fill="#fce586" d="M549.8 138l15.4 9.7 26 31.4-12.7 5" />
    <path fill="#f0f1f1" d="M148.2 182.5l-.3-61-6 50.5 26 7.4" />
    <path fill="#bfbb9d" d="M643.4 421l-6-41-11.4 39 23.2-.5" />
    <path fill="#4b4a36" d="M201.7 413l2 1.8 8-17.3L199 406" />
    <path fill="#ebe3d1" d="M1008.2 799l46.8-235.3-83 80.3-12.8 33.2" />
    <path fill="#8b8b81" d="M953 642.3l4.2 16.4 16-18-14.3 29.8" />
    <path fill="#396eae" d="M124.6 298.5l-29-130 23.5 19-52-3.2" />
    <path fill="#386eb2" d="M779.3 169l58 43.4-72.7-68.2-1 32.6" />
    <path fill="#939488" d="M253.2 644.5l3 20-29-4.6 11-3" />
    <path fill="#e9e2cf" d="M364.5 626l-50.8 23.5 40.2-11.3 5 30.3" />
    <path fill="#fffff8" d="M266 179.6l-23.3.2-4.7-48-4.6 42.4" />
    <path fill="#58abcb" d="M917.7 733.4l-7.6 2-3-2.7 29-11.7" />
    <path fill="#1e91c7" d="M958 739l9.3-23.2-6-14.6 5.5 3.3" />
    <path fill="#afcccb" d="M282.4 716.2l1.4 12.2 6.5 1.2L292 707" />
    <path fill="#e7e1cf" d="M120.3 677.2l1.6-41.5L168 781l-35.8-138.6" />
    <path fill="#ffe987" d="M535.8 400.4l263.7-24-3.6-11-327 .8" />
    <path fill="#ffea83" d="M561.8 102.7l17.4 36 2.6-30.2-36 1" />
    <path fill="#3e72b2" d="M911.4 95.2l23.4 210-38.3-183L981 16" />
    <path fill="#efe8d5" d="M249 623.5l-1.8-22.3-9.6 64-10-49.3" />
    <path fill="#ffd24a" d="M253.2 413.3L193 449.6 164.4 387l-30 52.7" />
    <path fill="#5fadca" d="M323 702.4l-3.4 30 11.8-7.2-26.2-21.4" />
    <path fill="#d9e1e6" d="M142.8 120.4l-6.3 6.3 15 16-22.4-6.2" />
    <path fill="#f5e8d0" d="M941.7 745l14 1.6 5.6-35.5-13.6 3" />
    <path fill="#eaeeed" d="M164.3 108.7l22-7.6-5.3-3-15.2 1" />
    <path fill="#3c71b3" d="M551.7 50.2L600.5 157l-5 80 .8-139" />
    <path fill="#8c877f" d="M91.5 644.5l-.8 13.5-2.6 7.7-3-13.3" />
    <path fill="#f8f8f4" d="M441.3 130.8l-2 5.6-26.5 2.6-12.2-8" />
    <path fill="#2f99cd" d="M414.3 688l2.8 24.8 8-27.2-12 4" />
    <path fill="#46402f" d="M365.8 410.7l2.6-3-.2-21.2 3.5 21.4" />
    <path fill="#366fb3" d="M528 252l186.5-14-8.5 74.4-6.6-58.8" />
    <path fill="#f8c600" d="M589.7 562.4l25.3 32-1-122-22-15.8" />
    <path fill="#eae3d1" d="M101.5 742.8l-.7-122-24.3 164 7-149.2" />
    <path fill="#2a5d9b" d="M643 187.2l-103.8-2.4-40.8 4 67.8 1" />
    <path fill="#ece5d2" d="M864.8 713.7l-105-53.8 10-24 18 57" />
    <path fill="#ffdd68" d="M262.8 397l36.3 1.4-10-21-27 39.6" />
    <path fill="#f7e284" d="M809 108.8l-8-2.7 69.6 7-7.5-8" />
    <path fill="#386eaf" d="M142.5 148.8l-15.4-16 9 29.4L107 264" />
    <path fill="#6e6f6a" d="M860.6 635.3l-5.2 9.4 4 9.4 1.5 9" />
    <path fill="#fdfbf4" d="M184 175l10 5.6-20.7 4.2 2.7-82.2" />
    <path fill="#1c222a" d="M318.6 415.4l-9.3-.6 1.4-22.7 2.3 21" />
    <path fill="#ffde6a" d="M396.4 374.3l-13 40.4-5-25-29 1.7" />
    <path fill="#ffde64" d="M589 485.2l-15.3 20.4-37 47 52-13.6" />
    <path fill="#ede5d2" d="M329 723.4l9-128 1.4 144.5-15 23" />
    <path fill="#e9e2d0" d="M244 747l29-27-38.2 79-67-152" />
    <path fill="#fee684" d="M731.6 167.3l-23 14.5-17-6 40.6 1" />
    <path fill="#4ba4c8" d="M796.2 707.6l27.6 6-12.2-6.2-3.3-3.7" />
    <path fill="#e9e3d1" d="M329 711.5l-6-68.7-132.5-2L328.8 609" />
    <path fill="#4174b0" d="M609.2 110l1.4 63.7-29.6-.8 7-60" />
    <path fill="#67afca" d="M318.6 736.3l-60.2-15L303 733l38-10.8" />
    <path fill="#ffe783" d="M707.6 393L640 452l36.5-53.4 27.6 18" />
    <path fill="#3e72b2" d="M240.6 231L230 163.8 213.3 178l-88.8 76.7" />
    <path fill="#3a9cc9" d="M307.5 711.2L235 737l4-7.2 27-4.8" />
    <path fill="#726942" d="M662.8 516.2l-9.4 11.3 2.8 8.2-12.7-26" />
    <path fill="#396dae" d="M411.5 138.3l-17-.6-.3 24.7 22 44.7" />
    <path fill="#ede6d3" d="M258 630.3l1 9.4 5.7 52.3-9.5-1" />
    <path fill="#fecb00" d="M863.5 364l-61.3-17.3 102.2 57.7-13.2 16.3" />
    <path fill="#e8e1d1" d="M424.8 712l6.4 18 32.7-38.2 115 66.4" />
    <path fill="#ffe16e" d="M538.2 489l-15.6 49.2 25.6-50-6.8 42.6" />
    <path fill="#ffcb00" d="M742 582.4l79.7-178.2 22.5 37.7-108.5 14" />
    <path fill="#e8e2cf" d="M346 700l-32.3 52 39.2-20.8-37-17.8" />
    <path fill="#eae4d1" d="M217 693.6l72.6-11.6-9-36-8.8 24" />
    <path fill="#e8e1cf" d="M878.8 615l162.4-21.5-176.8 13-2 75.7" />
    <path fill="#3e72b0" d="M718 67.2l31.3 58.4-31.6 86.7 31.6-44.7" />
    <path fill="#ffd146" d="M488.8 529.2l95.5 39-99.6 1 39.6-52.3" />
    <path fill="#3269ab" d="M832.2 149.5l15.4-4.3-1.5 8.7-16 23" />
    <path fill="#ffdb5b" d="M375.4 422L359 404l12.8 37.6 4.2-82" />
    <path fill="#ffea83" d="M546 182.4l.6-76.3-23.6 5 9.6-10" />
    <path fill="#ffc900" d="M688 449.2l133.7 34-147 1-207.5.2" />
    <path fill="#3a6fb0" d="M151.4 88l13.5 25.5-47-49.7 1 68" />
    <path fill="#f2e6d1" d="M797.2 725.8l8-32.3-10.3 1 18 22.5" />
    <path fill="#756d40" d="M260.8 398.5l10.2-14.3 4 26.5 24.2-10.3" />
    <path fill="#527fa4" d="M834.4 401l18.6-4-18-2-5.5 12.2" />
    <path fill="#f9e599" d="M139 364.4l19.3-1 89 1.2-98.3 10.7" />
    <path fill="#ffeb86" d="M824.5 102.7l4 22.7.7 48.8-10.5 11.2" />
    <path fill="#3366a3" d="M825.6 114l23.7-2.4 9-3.5-5.2 19" />
    <path fill="#fbd453" d="M283.7 431l3-29 3.6 3.2L294 428" />
    <path fill="#d6b00b" d="M253.7 513.8L364 542l-143.5 1 57.6-50" />
    <path fill="#756d46" d="M683 536.8l-10.6-25.6 9.6-17-15.7 29" />
    <path fill="#3c72b4" d="M66 270.4l-11.7-8.7 14-45.8-27.6-1" />
    <path fill="#eae2cf" d="M858.5 673.6l-9.2-34-18.2 6.8 28-54.8" />
    <path fill="#3a6fb2" d="M793.2 130.3l21-23.7 3.2 68.4-31-.6" />
    <path fill="#9ab0c6" d="M220.3 281.7L223 236l-4 11.8.4 5.4" />
    <path fill="#3268ab" d="M631.5 141l12.8-25.7 2.5-3-27.7-.6" />
    <path fill="#69623d" d="M369.4 399.4l-18 8.5 51-10 9.6 6" />
    <path fill="#5dacc7" d="M918.7 702.5l21.3 8-27.7-1.2-10 4.2" />
    <path fill="#ffe06d" d="M352.6 369l12.4 35-24.8-29.5 11.6 48.7" />
    <path fill="#cfc795" d="M764.6 403.6l-17-6.4-67.6 23 85.4 1.5" />
    <path fill="#ede6d2" d="M731 711l18-18.4-10.5-80.4 2.8 60.2" />
    <path fill="#cfc796" d="M598.4 422l-123.2-2 137.6-15.2-12-15" />
    <path fill="#fed24b" d="M733.3 570.8l1.5-53.8-23 51.5-24-43.8" />
    <path fill="#3e72b3" d="M76-31L-31 352.4l90.5-21-20.8-73.6" />
    <path fill="#366daf" d="M846.3 281l-2 30 3.8-58.5 23 39.2" />
    <path fill="#fc0" d="M816.2 572l143.5 18.2-226.6-1 6-74.6" />
    <path fill="#ffe783" d="M760 143.3l8.6-6h19.8l-19.7 10.3" />
    <path fill="#fae480" d="M794.3 118.5L782.6 103l19 10.8-2 6.4" />
    <path fill="#888a80" d="M205 659.5l-2.5-4.8 9-18.8-6.3 25" />
    <path fill="#c4b231" d="M43 263.6l-1.8 29.8 4-50-4.5 8.8" />
    <path fill="#396fb3" d="M677.8 108l-36.3 55.3 35.3 3.2-23 42" />
    <path fill="#a09f92" d="M744 674.8l-7.4-13.5L674 631l40.2 12.3" />
    <path fill="#3f70a9" d="M102.3 114.2l3.6 12.4-19-2-7-15" />
    <path fill="#ffdf67" d="M271.7 359.5l44 76L283 372l-3 47.2" />
    <path fill="#2c5f9c" d="M451.7 187.6L411 184l-47.5 2-87.8 3" />
    <path fill="#ffe173" d="M172.3 394.4l194.4-21.8-68.4 26L139.7 369" />
    <path fill="#5f5838" d="M342.6 399.7l12.3 3.8 1-12-17 27.2" />
    <path fill="#cea207" d="M827 574.3l35-74.7-58.4 26.5 37.7 46" />
    <path fill="#ffe982" d="M638.7 137.8l-27.2 2.5 3.6 10 26-8" />
    <path fill="#ffcb00" d="M903.4 415.4l129.3 42.6 22.3-116.5-81.4 16" />
    <path fill="#edda86" d="M692 165.2l-5.7 6.4 51.2 14.8L672 182" />
    <path fill="#ffd853" d="M615.8 560.2l37.4-7.3-1.7-36-34 19" />
    <path fill="#ece3d2" d="M790.3 775.7l79-72.7-21.4 85-70-61.7" />
    <path fill="#605935" d="M519 538l-2.2-1.4 18.3-3.4 6 4.8" />
    <path fill="#7698bc" d="M395 249.7l-12.7 15.7-34 5.5 67-1" />
    <path fill="#3a9dc8" d="M412 730.3l-21.3-2.8-43 2.4 21.3 3" />
    <path fill="#eae3d0" d="M407 589.5L400.7 707l49.3-61-24 56.4" />
    <path fill="#ffe379" d="M182.7 366.4l44 39 4-14.7 185.8-5.6" />
    <path fill="#e9e2d0" d="M200.8 712.4l2.6-109.3 77 38-92.3 3" />
    <path fill="#2f68b2" d="M565.8 114.2l-17.3 3.2 5.5 21 13.2-1.6" />
    <path fill="#3f73b2" d="M339.7 111.6L171.3-31l173 32.8-32 143.2" />
    <path fill="#4da5c7" d="M832.2 720l-6 14.5 1-30.3 7.3.2" />
    <path fill="#6b6339" d="M306.8 399l6.3-7 19 3 4-1.5" />
    <path fill="#3f73b2" d="M527.6 101.5l278.7-.4 189.3-1-15.4-131" />
    <path fill="#e9e2d1" d="M392 757.8l249.3-83.2L392 747.2l-48.4-88.5" />
    <path fill="#e9e3d2" d="M304 713l-14.3-11.3-62.2-16 96.5.6" />
    <path fill="#ffd141" d="M215 445.5l93.5 2.7-14.3.5-46-42.6" />
    <path fill="#c19f0c" d="M405 521.4L375.2 540l10.6-33.2 5 28.8" />
    <path fill="#e5e1d0" d="M290 799l2.8-68.8-29.2 50.5 46-63.3" />
    <path fill="#3f73b3" d="M181 180.5l-12.2 85.7-10-7.7 134.8-31" />
    <path fill="#74b6cd" d="M782 687.7l-12.2 57.7L789 684l2.5 4.5" />
    <path fill="#ffde6e" d="M637 514.7l41-28-21.2 39.7 14.8-12" />
    <path fill="#379cc8" d="M932 705l-.5 18.5-8.5-19.8-18 6.6" />
    <path fill="#6d92ba" d="M535 278.4l30.8-29.8 34.3 44-14-42.3" />
    <path fill="#3e72b2" d="M-11.7 250l4.4-116.7 79-24.5-24.4 137.7" />
    <path fill="#a8a698" d="M896.5 644l-14 24-13-10 33.8 7.7" />
    <path fill="#fcca00" d="M355.4 348.6l94.8 15 252.5-8.8-204.3-10" />
    <path fill="#ffea83" d="M959 184.4l-29.6-4 17-7 20 5.5" />
    <path fill="#fc0" d="M295.2 545.5l11-24 5 73-273-9.6" />
    <path fill="#3e72b3" d="M914.8 110.4l-46.3-46-1.5 97.4 15.7-145.3" />
    <path fill="#a3a195" d="M329.6 618l5.4 49.4h-4l-1.5-11.4" />
    <path fill="#ebd787" d="M871.7 109.3l9.2-15 11 37 5-21.3" />
    <path fill="#ffe886" d="M655 102l8.7 7.8-71.4-6.7 23.4 9" />
    <path fill="#efe9d4" d="M998.5 650.7l-31.6-10-7 16.5-10-24.2" />
    <path fill="#346cb0" d="M101.8 123l1.4 9.8-8.4 8.3-13.6-1" />
    <path fill="#3e72b2" d="M892.7 258l-29.4-121 9.5 99.3 18 66.2" />
    <path fill="#3f73b2" d="M450.3 261.4l-12.3-8 41.2-11-50-273.4" />
    <path fill="#ffd64c" d="M336.3 428.7l-40.6-22.2 33.4 44-2-49" />
    <path fill="#3a70b3" d="M716.3 291l12-104.6 3.4-13.8 5.7 25.2" />
    <path fill="#afafa3" d="M690.6 394.3l48 13-43.2-17.8-9.4 37" />
    <path fill="#ffcb00" d="M884.6 349L857 416.2 819.5 352 809 410.7" />
    <path fill="#5fadc9" d="M884 728l9 7.3 3.8-31.7-14.2 31.8" />
    <path fill="#e9e2d1" d="M661 799l48.5-204.5-25.3 184-253-180.4" />
    <path fill="#deae00" d="M205 448.2l-76.8-1.2 48.8 6 88-2.5" />
    <path fill="#7494b9" d="M791.3 239.3L775.7 279l-12 8.5 2.3-30.3" />
    <path fill="#f7e287" d="M574.6 129l-.5 9.5 13-3-45 17" />
    <path fill="#7d7345" d="M196.7 415.5l2-2.8-5.8 7 4-44.8" />
    <path fill="#796f41" d="M679.3 542l27.2-27 1 3.6-16-5.5" />
    <path fill="#feea9b" d="M726.5 492.3l-41.5-7h49.2l.4 40" />
    <path fill="#ffdf6c" d="M397 383.8l-23.3 18.8 6.4-32.3 14 38.3" />
    <path fill="#799486" d="M913 419l-3.6 5.2-31.3-3.5-50-4.3" />
    <path fill="#366db0" d="M785 297.2l-10.4-129-12.8-20 16.2-1" />
    <path fill="#a78c12" d="M288.2 520.7l6 13 10.5-10.2-12 21.5" />
    <path fill="#8e9084" d="M277 648.8l42.5-5 4.5 4.2-40.8-5.5" />
    <path fill="#57533a" d="M549.2 531.2l-1.5-22.3-3.3 21 .3 8" />
    <path fill="#dfaa00" d="M647.3 569.6l-36.2 3h144l-30-3.5" />
    <path fill="#eae2d1" d="M771.5 658.8l-136.2 62.4L764 727l-26.8-19.5" />
    <path fill="#af9310" d="M312.4 513l-1.4 6-2.4.7L327 544" />
    <path fill="#a4b7c9" d="M64.4 261.7l-3-20.3 20.6 30L63.2 255" />
    <path fill="#2c609f" d="M655.7 127.7l-32-15.4 25-1.2 10 21" />
    <path fill="#f4f5f2" d="M319.3 138.2l21.3-13.6 22.2-19.7-6.4-6" />
    <path fill="#3d70af" d="M611.2 26.4l-201.6 91-54.2-5L330 143" />
    <path fill="#d0b520" d="M713 243.2l1.5.8 2 33.6 2.5-22" />
    <path fill="#3f73b3" d="M511.3 220l26.2-78.2L504 56.4l-25.7 207" />
    <path fill="#9d9c91" d="M295.3 660l4.7-31.3-7.4 37.6 50.3-9.6" />
    <path fill="#3064a3" d="M959 125.2l-2.8 34 3.7-49 13 1.7" />
    <path fill="#eee5d2" d="M926.6 718.3l-14.3 1 37.8-60.7-34 31.6" />
    <path fill="#54a7cb" d="M283.4 743.8l-32.2-56.5 18 35.3 7.4-2.5" />
    <path fill="#ffcb00" d="M-19.7 349l5.6 138.2L93 408l64.8-59.5" />
    <path fill="#3c71b3" d="M375 256l47.7-68L443 324l-21-73.6" />
    <path fill="#817e74" d="M682 641.7l-2.5-6.4 9.5-.2 6.2-1" />
    <path fill="#ffcb00" d="M884.6 396l-4.2 200.2 114.3-10L866 509.5" />
    <path fill="#f8f9f2" d="M318.2 183l4.7-8.7-37 4.3 11 4.2" />
    <path fill="#fcd34c" d="M607 510l71.2 46.5 9-35.7-1.7 47.4" />
    <path fill="#366bae" d="M103 148.2l36.4 28.2 3.5-36 2-2.2" />
    <path fill="#faf9f4" d="M378 184.3l-23-4.3 33.4.6 2.5-47" />
    <path fill="#ffe287" d="M750.4 133.7l8.7-28.4 5 40-8 38.7" />
    <path fill="#376db0" d="M772.3 109.6L788 117l-15.5 22.3-10-7" />
    <path fill="#3a6eb0" d="M846.6 113.2l-8.5 23.6 46-28.8 1 66.6" />
    <path fill="#eae3d1" d="M752.8 654l72.8 47.6-53.4 1.7 46.3-27.4" />
    <path fill="#ffee85" d="M838 182.3l-37.8-1.7L830 176l12-.6" />
    <path fill="#3e72b2" d="M898 163l42.4 13 1.6-14.5-41.7-48" />
    <path fill="#524f37" d="M396 416.3l11.7-.5-5.6-3-7-24" />
    <path fill="#fcca00" d="M105.6 455.8l210.6 18.4 38.2 88-18-113.3" />
    <path fill="#3b70b1" d="M225.6 169.8l-24-120.3-17 77.3 48 .8" />
    <path fill="#3c70ae" d="M210 166.2l-9.5 10.3-15.5-32.3 18.6-5.3" />
    <path fill="#7395b9" d="M385.3 254.6l-78-.7 33.7 15 42.2-25" />
    <path fill="#444233" d="M545.7 541l-1-6.7 2-20.8 1.7 25.3" />
    <path fill="#f2f3f0" d="M340.4 157.2l25 26.4-29.3-17-17-24.2" />
    <path fill="#3f73b3" d="M327.3 258l-5 34.8 40-97.2 286.3-3.8" />
    <path fill="#88887f" d="M439.7 646.5l15.2 20-11-25-10 20.3" />
    <path fill="#bdb99f" d="M489.7 401.5l25-22L498 400l25.3 17.2" />
    <path fill="#fecc00" d="M400.5 489.5l.8 70.5-24-107.8-4.3 87.3" />
    <path fill="#a1b4c7" d="M226.4 253.5l15.8 18L241 244l-4.3 22.3" />
    <path fill="#a19f41" d="M285.3 268.2l7.3-1.3-7.2 6-19-9" />
    <path fill="#e8ecea" d="M266.2 183.7l9-12.4 1.2-4.4-35.4 19" />
    <path fill="#d3b61b" d="M116.7 261l3-15.3 3.7 20.6.6 8" />
    <path fill="#3e72b3" d="M199.5 257.4l-10 31.2L201 191 61.4 235.2" />
    <path fill="#ffec80" d="M653.3 182l-46 3.2-8-5 55.4-3" />
    <path fill="#c2a111" d="M230 544l-24.5-4 23.5-1 29-27" />
    <path fill="#918f85" d="M70 658.5l3.4 18.5-7-43-1 35.8" />
    <path fill="#ffe278" d="M575 517.4l15.4-25-109.8 2.8L521 510" />
    <path fill="#ffe886" d="M537.2 166.7l-5.3 13.8 15-3-7-81" />
    <path fill="#2f98c9" d="M438.2 720.6l-2.7 13 10.6-15-10-19.2" />
    <path fill="#f4c845" d="M548.5 523.7v-10.5l19.8 56.7 17.2-6" />
    <path fill="#4072af" d="M463.4 344l61.2-100.5-12 66.8 47.6 35.7" />
    <path fill="#3f72b0" d="M572.4 152.2l16.3-30.7 14.4 58.3-26-17.8" />
    <path fill="#3c71b3" d="M355.4 189.3l-5 81.2-36.6-126.7v29" />
    <path fill="#ffe787" d="M792.8 448.5l14-3.7-6.6-25L459 446" />
    <path fill="#e9e2d0" d="M755 685.7l277.6 9.5-139 9.4L926 662" />
    <path fill="#3098c8" d="M309.8 712.2L273.3 724l5 14 3.5-21" />
    <path fill="#3e72b2" d="M660 252.4L794 307l47.3-58 3.7 66.6" />
    <path fill="#ecefee" d="M114.6 108.5l2.2 35L113 120l-20.6-19.4" />
    <path fill="#4f7fb2" d="M625 115.3l13 5.4-.3 18.7-17.2-2" />
    <path fill="#94958b" d="M926.6 641l19.6 3.7-20 5.2 6.6-26" />
    <path fill="#3970b4" d="M274.3 257.3l-28.6-5.8 17.8-40-2.8 127.7" />
  </g>
</svg>