<svg width="1024" height="768" viewBox="0 0 1024 768" xmlns="http://www.w3.org/2000/svg">
  <path fill="#a5ab89" d="M0 0h1024v768H0z"/>
  <g fill-opacity=".5">
    <g class="UTIL__svg-thumb__low-res">
      <path fill="#ffed00" d="M2.114 594.808l1052.886.545-16.34-249.245L-31 344.186"/>
      <path fill="#004edb" d="M-31 344.89l1086 .17-18.293-352.962L1.205-31"/>
      <path fill="#fff" d="M-9.165 799L1055 775.425V595.33l-1086-.57"/>
      <path fill="#ffc800" d="M729.417 593.146L588.613 463.27-31 337.836l.58 257.36"/>
      <path fill="#ffc500" d="M655.738 595.012l187.76-247.546 195.827-4.1-5.31 251.202"/>
      <path fill="#ffecb2" d="M803.3 450.435l6.426-88.634-649.65 3.244 420.27 84.366"/>
      <path fill="#b7be8c" d="M994.246 98.63l-457.77 1.927-7.454 84.038 377.714-.207"/>
      <path fill="#bdd2e4" d="M182.02 113.106L71.85 95.986l-3.198 88.633 439.458-2.556"/>
      <path fill="#ffca00" d="M708.726 486.423L1055 610.92l-3.343-179.13-956.08 39.66"/>
      <path fill="#ffc600" d="M-31 589.555l515.478 5.205-18.874-256.067-34.595 43.582"/>
      <path fill="#ffd57f" d="M476.78 488.638l9.686 79.486 246.91-6.186 1.814-79.39"/>
      <path fill="#f1c87a" d="M296.7 446.107l292.28 3.843-448.515-88.088-7.354 81.434"/>
      <path fill="#2867b4" d="M884.29 57.218l-39.493 124.34L-31 242.56l915.212 1.07"/>
      <path fill="#9ebad7" d="M424.176 101.722l14.828 83.114-90.775-.11-72.863-88.604"/>
      <path fill="#807445" d="M410.092 419.608l-274.47-11.574 212.03-17.58 61.27 6.187"/>
      <path fill="#fffd78" d="M957.362 186.584l-6.115-102.112-14.907 101.525 37.22-4.16"/>
      <path fill="#67b4d6" d="M451.685 703.162l-9.393 29.797-231.07 1.29 37.988-29.192"/>
      <path fill="#ffc700" d="M789.46 344.722l60.152 248.3 202.668 2.737 2.72-248.786"/>
      <path fill="#fc0" d="M429.736 348.67l-277.51 24.498L37.53 600.278-31 344.367"/>
      <path fill="#759284" d="M834.725 395.272l-11.715 26.456 56.82 2.967 41.736-6.868"/>
      <path fill="#feeedd" d="M460.072 596.7l162.12 1.08 200.195 182.442-379.18-7.012"/>
      <path fill="#2d6ab4" d="M367.338 133.006L1055 10.428 212.433-31l180.135 253.982"/>
      <path fill="#e1e7e8" d="M364.41 100.813l-58.948 73.576-5.64-37.256-.582-36.57"/>
      <path fill="#ffc300" d="M442.03 343.91L300.18 360.42l364.17 9.873 230.282-24.434"/>
      <path fill="#fff67e" d="M675.394 186.393l76.65-6.796-58.352-6.35-7.538-95.047"/>
      <path fill="#0951be" d="M896.163 133.038l46.09-26.836-3.928 54.21-28.868 28.233"/>
      <path fill="#ffca00" d="M482.406 500.082L-31 378.998V595.54l490.19-8.604"/>
      <path fill="#326db4" d="M131.17 125.248l119.97 6.41L471.146-31-31 1.58"/>
      <path fill="#fffdf5" d="M171.23 129.917L165.8 94.302l24.003 1.45-13.175 105.783"/>
      <path fill="#054fc0" d="M768.846 171.954l48.42-62.163-1.775 63.503-34.073 16.18"/>
      <path fill="#fff47e" d="M532.416 195.95l40.34-78.657 3.252 64.025-37.572-78.233"/>
      <path fill="#ffc900" d="M888.968 594.252l-326.745-.906 52.657-169.914-.764 125.586"/>
      <path fill="#fffffc" d="M87.694 98.546L74.7 210.87 68.24 98.966l53.16 25.34"/>
      <path fill="#ffff79" d="M748.73 102.787l161.606 1.462L761.7 114.556l-5.56 104.802"/>
      <path fill="#ffefde" d="M66.062 655.376L-31 565.896-17.094 799l367.37-19.194"/>
      <path fill="#054fbe" d="M749.973 113.07l-61.278 19.363 23.312-24.185 26.692 93.374"/>
      <path fill="#0550c1" d="M605.008 172.763l5.31-35.394-22.325-58.502-6.6 94.433"/>
      <path fill="#544d35" d="M699.003 534.488l-43.22 3.943-8.887-24.226 57.074 2.516"/>
      <path fill="#0951be" d="M680.383 177.288L659.2 165.34l-19.406-48.834 39.33 4.607"/>
      <path fill="#fff87f" d="M879.82 184.416l34.18-10.04-14.698 12.817-5.226-111.3"/>
      <path fill="#fffb7c" d="M619.266 95.13l5.887 93.06-18.395-3.95 4.834-77.053"/>
      <path fill="#fbecda" d="M1055 647.504v-51.928l-450.758 2.73-16.736 32.5"/>
      <path fill="#fec700" d="M735.94 448.853l4.085 141.427 301.666 3.464 13.31-142.54"/>
      <path fill="#fff" d="M424.67 107.766l-13.115 26.787 5.973 47.708 6.726-14.27"/>
      <path fill="#2f6ab2" d="M400.52 259.787l-429.253-76.5 453.62 10.36-37.845-101.283"/>
      <path fill="#ffff79" d="M826.892 190.62l-5.845-7.117-5.02-90.683 15.2 22.014"/>
      <path fill="#b3ab9d" d="M545.482 659.288l-416.29 5.81-75.86-17.555 177.496-8.518"/>
      <path fill="#6e6a4d" d="M514.974 516.062l27.16-5.04 34.093 12.986-64.157 17.352"/>
      <path fill="#356caf" d="M107.774 162.692l-26.468 90.622 66.49-226.457-9.117 158.673"/>
      <path fill="#f7e9d7" d="M940.59 613.888l-784.76-19.48-183.556 4.066 138.193 46.714"/>
      <path fill="#fff097" d="M134.268 365.09l13.838 33.723 229.978-34.924-139.242-1.267"/>
      <path fill="#fffff8" d="M379.33 177.686l4.138-92.893 7.427 80.245 12.13 24.45"/>
      <path fill="#1c5aa6" d="M315.975 143.918l73.722 96.553-119.02-127.066 16.478 63.71"/>
      <path fill="#fff5a8" d="M477.143 511.066l113.95-.292-9.584-25.89-78.734.617"/>
      <path fill="#ffe686" d="M649.73 111.57l369.145-6.395-379.21-4.135-155.028 6.34"/>
      <path fill="#2c69b1" d="M-31 274.788l1086-4.558-12.527 74.282-471.422 1.42"/>
      <path fill="#2b68b4" d="M1025.284 101.816L1055 10.766 522.056 101.3l153.3-2.003"/>
      <path fill="#ffe497" d="M464.267 455.873l5.61-100.91L729.8 444.2l-268.025 6.476"/>
      <path fill="#ffca00" d="M434.964 486.262l8.85-136.672 24.485 22.892-1.208 150.31"/>
      <path fill="#376daf" d="M173.086 83.56l-18.53-.836.967 76.378 17.766 42.118"/>
      <path fill="#ffe699" d="M635.31 362.772l163.8 5.627 2.022 86.99-336.834-89.705"/>
      <path fill="#fffff9" d="M188.524 127.938l82.02 62.174-28.333-7.766-32.787-52.012"/>
      <path fill="#fffffc" d="M125.234 184.825L97.67 136.157l-7.973 7.76 15.988 34"/>
      <path fill="#f8ebdb" d="M331.527 701.505l-9.433 82.01 95.93-118.072-311.142 3.092"/>
      <path fill="#92c5d6" d="M740.334 738.425l3.317-45.662 20.693 10.875 229.256 2.887"/>
      <path fill="#e1e7e8" d="M137.082 117.975l58.323-19.284-60.195 1.753 2.58 4.502"/>
      <path fill="#2e68ad" d="M709.24 188.71l-242.446-9.3 6.153-98.623-49.505 140.3"/>
      <path fill="#1152a0" d="M337.62 118.03l-1.303-30.17-20.585 24.91-4.797 31.48"/>
      <path fill="#f7ebdc" d="M1055 678.51l-66.077-62.486L917.41 799H1055"/>
      <path fill="#2e69b1" d="M-31 255.308v90.825l239.747-2.103 203.65-10.037"/>
      <path fill="#d8b904" d="M52.4 246.394l-10.53 3.438-3.246 24.636L59.64 260.32"/>
      <path fill="#198ec6" d="M354.468 738.998l-2.292-54.395 17.108 51.692-8.21-1.72"/>
      <path fill="#fff" d="M202.352 186.395l12.616-33.69 26.655 13.97-1.266-31.593"/>
      <path fill="#fbe585" d="M511.076 180.492l141.304-6.143 150.22 6.096-169.68 3.604"/>
      <path fill="#fffffe" d="M156.704 144.775l-4.687 29.035-4.577 18.824-7.405-66.594"/>
      <path fill="#b0a79a" d="M727.5 674.277l275.5-29.863-293.252-1.09-44.45 1.92"/>
      <path fill="#ffca00" d="M716.144 483.597l-256.732-1.32 173.273-33.067 177.97 3.25"/>
      <path fill="#787349" d="M161.276 388.127l15.25 27.487 64.245-.446-7.017-11.884"/>
      <path fill="#be9704" d="M875.93 505.128l-75.684 1.222 23.983 69.585 13.19-6"/>
      <path fill="#fffff7" d="M283.262 163.956l-37.788-44.716 36.793 26.36-33.52 45.013"/>
      <path fill="#c3a30a" d="M192.188 519.848l30.46 20.316 209.29 2.96-11.168-23.38"/>
      <path fill="#2e6ab4" d="M53.503 60.498l18.284 89.22-58.59 185.31L-31 5.258"/>
      <path fill="#3ba1d5" d="M234.218 683.08l-2.72 40.245 12.16-23.432 37.03 4.277"/>
      <path fill="#1357b8" d="M743.17 162.432l-47.856 15.088-3.098-25.37 1.19-3.824"/>
      <path fill="#2c69b2" d="M1055 269.047l-31.423-150.59-70.404-6.656 2.802 138.29"/>
      <path fill="#ffe981" d="M978.984 102.3l-201.474 1.9 194.86 9.35 10.065 7.83"/>
      <path fill="#fff499" d="M719.528 508.847l20.424-23.09-116.644.526-5.092 30.267"/>
      <path fill="#fffffa" d="M294.015 184.66L314.45 81.058l-3.806 83.767 11.184 18.566"/>
      <path fill="#f3e9d9" d="M855.853 694.503l108.254-26.917-210.99-5.78L936.5 799"/>
      <path fill="#02489d" d="M269.803 170.62l-20.243 5.398-8.128-22.066 21.683-10.11"/>
      <path fill="#ffe585" d="M531.538 98.18L548.2 205.09l-.778-104.727 67.385 35.042"/>
      <path fill="#c5c099" d="M546.372 423.062l216.435-22.102-263.548-5.684-13.46 21.57"/>
      <path fill="#3169ab" d="M185.28 178.726l39.697-31.896 20.386 57.376-53.892-72.956"/>
      <path fill="#205fb6" d="M698.353 213.537l-75.468-67.27-1.65 30.276 42.437-1.657"/>
      <path fill="#efc500" d="M530.912 247.233l-13.27 4.09 3.826 1.66 4.108 20.313"/>
      <path fill="#3267ad" d="M814.235 116.67l-71.484-8.326 71.408 34.238-35.47-88.537"/>
      <path fill="#f9f8f1" d="M372.06 102.45l-42.593 16.947 26.34 75.532-36.427-58.306"/>
      <path fill="#aca32c" d="M132.686 272.045l-18.48.168 9.754-43.003-1.4.14"/>
      <path fill="#96c5d2" d="M903.032 740.503l-51.414-53.664 113.517 18.113 6.287 16.908"/>
      <path fill="#d7b902" d="M436.122 247.89l-2.422 19.4 1.85 5.905 14.987-27.02"/>
      <path fill="#ffcd00" d="M900.72 385.99l-295.535-41.144 449.815 4.36-57.327 248.544"/>
      <path fill="#ccb311" d="M276.838 287.355l-2.786-40.177 7.953 1.985 4.337-3.31"/>
      <path fill="#fffa81" d="M761.21 102.06l-6.58-4.51-4.977 86.474 12.484-5.317"/>
      <path fill="#6e9091" d="M911.998 424.174l-13.228-1.03.9-28.58 10.182-3.2"/>
      <path fill="#fc0" d="M119.447 351.47L-31 342.79V592.58l235.127 1.528"/>
      <path fill="#dae8ee" d="M480.808 132.248l15.695 8.267L471.1 152.32l2.818-21.295"/>
      <path fill="#3c71b3" d="M556.34 81.142l53.85 69.05L562.08-31-3.153 104.62"/>
      <path fill="#fffffc" d="M70.1 106.19l41.42-4.123-12.547 52.457 25.728-35.54"/>
      <path fill="#faf9f0" d="M106.698 173.33l98.82 12.29 3.045-13.99-81.893 15.58"/>
      <path fill="#ffe983" d="M822.28 168.208l-8.736-4.992 37.15 19.858-46.048 1.626"/>
      <path fill="#0186cc" d="M415.48 685.784l2.696-2.486 7.904 26.723-9.722 26.948"/>
      <path fill="#225fb5" d="M828.488 144.062l2.384 35.317 53.407-19.476-1.797 13.197"/>
      <path fill="#fffff6" d="M450.767 137.163l-20.79-6.05-12.402-19.698-10.022 24.414"/>
      <path fill="#f9ebda" d="M327.994 768.813L425.417 799l35.864-63.77-227.346-.257"/>
      <path fill="#1f5cb0" d="M826.563 131.26l4.593-13.782 12.078-9.08 39.626 20.3"/>
      <path fill="#2c65b3" d="M558.687 146.818l-10.748-11.633-1.792-23.55 28.612 12.432"/>
      <path fill="#336db3" d="M218.827 208.8l19.54-89.122L181.592 257.4-31 211.833"/>
      <path fill="#2c66af" d="M546.27 129.345l20.083-1.057-21.21 31.74 42.01 47.016"/>
      <path fill="#215da4" d="M81.63 160.858l39.416 49.79-17.804-43.818-10.82-12.862"/>
      <path fill="#f6e083" d="M562.743 101.84l28.747 87.975-44.033-46.397 41.292-9.124"/>
      <path fill="#ffe87b" d="M127.797 361.925l169.39 37.535 10.316 36.85 3.653-69.505"/>
      <path fill="#ffdb50" d="M142.752 451.307l-7.267-87.553 28.506 51.25 290.876 8.767"/>
      <path fill="#ffe485" d="M821.318 123.338l-8.618 61.45 43.15-62.29-1.016 34.255"/>
      <path fill="#ffee82" d="M945.184 183.806l22.34 1.38-12.93-14.008-16.588-90"/>
      <path fill="#255fa5" d="M88.847 106.226l20.195 25.226-21.207 10.9-8.607-19.588"/>
      <path fill="#2c67b4" d="M596.206 182.275l.335 31.92 10.042-99.95-38.93 37.58"/>
      <path fill="#f3e8d7" d="M1055 633.447L726.25 799l257.574-22.457-120.414-66.497"/>
      <path fill="#2966b6" d="M642.76 173.258L674.977 56.68l-13.02.874 14.94 82.928"/>
      <path fill="#fffff6" d="M219.81 151.564l-8.83-26.626-1.93 61.155 10.53-17.098"/>
      <path fill="#fff" d="M489.626 172.67l-16.098 10.81-.438-10.1 7.114-9.02"/>
      <path fill="#cad6de" d="M399.083 101.35l-26.78-5.008 19.465 39.07-24.434 2.315"/>
      <path fill="#7699b3" d="M696.317 273.986L1055 261.78l-201.71-10.19-342.877 2.902"/>
      <path fill="#ffc900" d="M735.37 593.347l52.536-17.245-505.228-12.185 183.08 31.045"/>
      <path fill="#f7e381" d="M761.91 141.465l25.428 16.108 1.31-35.628-6.223 7.9"/>
      <path fill="#ffc600" d="M583.1 344.997L70.39 347.414l443.726 16.556 238.35-9.61"/>
      <path fill="#376eaf" d="M279.6 169.932l-66.785 74.84 88.09-73.67.537-66.935"/>
      <path fill="#356cb0" d="M934.324 254.815L659.99 186.568l276.25-2.828 89.304 10.4"/>
      <path fill="#fffff6" d="M106.808 175.91l-46.465 7.77 25.393-47.568-5.318 48.884"/>
      <path fill="#3b70b2" d="M224.96 147.998L73.41-23.51l275.94 2.343-126.93 177.415"/>
      <path fill="#ffff79" d="M606.987 164.65l14.314-24.915 25.347 9.263-.756-22.05"/>
      <path fill="#ffe477" d="M442.23 418.066l1.036-57.212L124.34 394.55l274.712-1.333"/>
      <path fill="#fff97b" d="M710.772 149.425l-21.8-5.717 23.49-11.86 8.147 15.1"/>
      <path fill="#f4e9d8" d="M186.784 669.904l-83.028 7.062 141.238 74.39-54.93-120.8"/>
      <path fill="#399dc8" d="M861.14 723.794l13.532-31.48 4.68-2.794-15.332 51.308"/>
      <path fill="#fffff4" d="M315.757 142.24l45.635 34.284 79.655 4.295-86.412 3.43"/>
      <path fill="#2f6ab3" d="M493.7 206.52L483.565 96.99l32.197-23.694 21.54 95.034"/>
      <path fill="#d0b200" d="M843.347 270.034l10.326-25.01 1.174 8.554-14.113-9.328"/>
      <path fill="#0f54b9" d="M651.3 125.942l-27.493 10.96-1.58-18.802 13.672-8.13"/>
      <path fill="#6a8e94" d="M861.713 400.236l8.292 29.972 13.134-18.17-8.09-17.27"/>
      <path fill="#2d63a6" d="M375.424 89.587l-15.473 10.7 39.1 23.71-56.335 11.534"/>
      <path fill="#fff97f" d="M682.085 180.087l7.438-6.94 1.467-59.21-12.518-16.013"/>
      <path fill="#386eb3" d="M939.84-31l-41.468 226.587-.97-78.86 125.632-130.673"/>
      <path fill="#396fb2" d="M752.955 123.952l-29.5 137.297 8.382-122.466-1.686-49.02"/>
      <path fill="#2e67ae" d="M424.186 165.552l2.57-28.642 9.636 4.33 82.318 79.854"/>
      <path fill="#fff" d="M181.93 110.007l-7.756-7.546-.81 82.38 11.712-23.776"/>
      <path fill="#3066a8" d="M383.054 177.764l-25.527-4.223-28.302-34.014 31.454-28.938"/>
      <path fill="#9f9b8e" d="M332.872 643.163l26.534 10.557 105.423-8.878-44.933-1.398"/>
      <path fill="#ffea83" d="M884.527 83.122l2.386 97.774 11.53 9.634-1.737-28.584"/>
      <path fill="#fc0" d="M588.11 478.026l18.916 123.217 9.478-156.65-519.777 19.58"/>
      <path fill="#366db1" d="M471.45 257.802l-163.46-102.19 47.33 69.528 50.85-49.915"/>
      <path fill="#62b0ce" d="M788.105 708.214l30.65-5.077-9.955 61.42-4.565-62.396"/>
      <path fill="#c8ad0a" d="M708.194 271.438l5.83 1.448-.47-30.672 6.994 29.282"/>
      <path fill="#bab5a6" d="M919.138 626.406l49.97 29.307-3.12 8.585-148.77 1.18"/>
      <path fill="#46a2ca" d="M244.65 740.304l55.482-36.618-3.674 35.198-32.908-23.4"/>
      <path fill="#ffeb89" d="M485.28 449.006l230.323-31.7 76.002 32.93-124.412-1.51"/>
      <path fill="#ffea8b" d="M805.25 369.47l.167 72.24-56.502-77.02 53.365-2.162"/>
      <path fill="#245fa7" d="M106.094 149.532l20.486-25.923 13.69 36.243-18.228 16.875"/>
      <path fill="#2c65ac" d="M152.933 141.046l6.255-53.218 14.39 68.55-15.342 24.46"/>
      <path fill="#f5f6f1" d="M70.66 154.696l3.928-40.548-26.184-14.09 40.685 2.957"/>
      <path fill="#f4e9d6" d="M718.42 699.138l63.688-14.35-21.228 88.74 19.83-154.83"/>
      <path fill="#fffdf5" d="M254.108 128.13l25.14 26.088-7.753 37.824-3.965-62.977"/>
      <path fill="#fdca00" d="M708.723 588.6l182.63-130.86-40.622-64.438-2.7 24.502"/>
      <path fill="#ffc800" d="M212.092 344.48L-31 362.195l394.917.314 469.358-2.153"/>
      <path fill="#eee4d2" d="M419.692 606.05l-8.453 160.363-10.87-144.974 271.56 141.93"/>
      <path fill="#2693cb" d="M235.713 695.907l3.805-10.09-.73 48.078-9.243 2.83"/>
      <path fill="#2260b4" d="M763.887 109.634l52.744 18.46-7.108-10.692-45.755 23.475"/>
      <path fill="#ffdb63" d="M693.446 484.007l-11.09 65.005-2.708-59.312-48.292 85.625"/>
      <path fill="#e3e8eb" d="M157.785 132.028l-17.063 41.513 11.46-23.495-30.306-24.105"/>
      <path fill="#366db2" d="M761.134 155.46l57.412 3.97-42.493-54.312 93.234 225.94"/>
      <path fill="#7c7b71" d="M440.613 674.726l10.913-3.517 8.77-37.56 1.174 14.247"/>
      <path fill="#7a9cbc" d="M425.483 264.788l-133.348 10.636 3.38-19.257 121.787-2.286"/>
      <path fill="#356cb6" d="M868.174 80.078l-.814 66.395-68.04 93.148 88.01-77.91"/>
      <path fill="#fffff5" d="M239.966 130.785l-9.9 24.302 9.26-11.77 35.526-13.72"/>
      <path fill="#c8c298" d="M757.017 395.455l17.985 6.983 2.035 17.37-164.863-1.52"/>
      <path fill="#ffd146" d="M618.494 569.442l-4.84-34.505 102.45 4.927 32.964 29.39"/>
      <path fill="#fdfcf4" d="M173.725 147.1l10.9-44.292-23.33-5.655 34.425 38.902"/>
      <path fill="#3a6fb1" d="M185.762 120.58l39.084 14.176 78.367-17.55-122.42-85.13"/>
      <path fill="#989187" d="M64.615 664.273l-.022-28.555 9.517-2.016 13.307 10.94"/>
      <path fill="#fff67f" d="M572.345 106.332l13.778 12.66-12.025 25.682-7.324-40.078"/>
      <path fill="#45a4cd" d="M737.55 704.765l32.362-10.976-32.486-4.737 32.66 35.373"/>
      <path fill="#ffe273" d="M579.85 568.597l8.37-.985 2-81.155-44.756 5.778"/>
      <path fill="#776f42" d="M281.575 393.898l-30.853 1.384 51.043 7.54-39.94 15.758"/>
      <path fill="#7b6e44" d="M396.166 389.687l.426 22.926-97.774-22.432 121.89 23.882"/>
      <path fill="#fffff9" d="M422.22 169.343l14.32 18.532-23.334-8.227 7.307-78.227"/>
      <path fill="#f3e9d6" d="M910.034 663.69L1055 703.227l-129.945-.316 3.768-102.17"/>
      <path fill="#779ab9" d="M90.43 265.073l139.47-13.928 32.343-1.15-4.367 22.89"/>
      <path fill="#3b70ad" d="M135.644 299.743L610.52 343.76l-118.51 2.63-83.135-1.394"/>
      <path fill="#ffca00" d="M471.87 454.905L-31 442.115l465.983 81.207 16.107-183.995"/>
      <path fill="#fffff7" d="M116.463 136.425l-11.26-39.916-.22 53.557-43.4-1.922"/>
      <path fill="#376cac" d="M117.456 113.338l-35.834-23.04 92.42 34.598-54.16 7.675"/>
      <path fill="#2b66b3" d="M650.463 200.186l-47.17 44.82 75.794-75.864-15.135-.692"/>
      <path fill="#3268aa" d="M196.645 185.93l33.64-12.993 49.616 41.57L34.945 184.86"/>
      <path fill="#f5e183" d="M522.647 184.735l44.07.502-26.81-14.158 12.78-28.513"/>
      <path fill="#ede4d1" d="M275.51 726.864l-10.738 23.66-8.53-54.682-19.867 32.72"/>
      <path fill="#fffef6" d="M301.925 164.124L299.17 99.73l8.348 3.442-1.488 87.264"/>
      <path fill="#379bc9" d="M371.785 731.628l11.66-9.117 20.277-19.157 4.385 29.468"/>
      <path fill="#53a8c8" d="M903.307 729.318l-10.64-28.817-4.898 32.362 26.672-25.135"/>
      <path fill="#fffff5" d="M360.857 107.173l-23.652-7.325.983 16.273-21.838 33.98"/>
      <path fill="#f0f3f2" d="M447.685 132.69l-25.025 5.995-26.158-1.828 25.485-10.455"/>
      <path fill="#396ead" d="M315.805 141.08l62.205 81.592-4.664 21.577-60.112-77.955"/>
      <path fill="#57543e" d="M543.144 544.166l13.775-30.378-34.306 3.852 25.493-3.787"/>
      <path fill="#3167ab" d="M696.11 109.837l43.308 12.033-43.003 12.87-2.232-90.532"/>
      <path fill="#f5e384" d="M541.148 114.862l27.786-13.32-34.517.1-20.726-3.037"/>
      <path fill="#84a3bc" d="M59.25 250.28l38.058-1.81 11.828 21.84-56.626-2.64"/>
      <path fill="#084791" d="M242.03 144.93l11.09-7.738 9.802 2.563-12.228 14.164"/>
      <path fill="#ffca00" d="M755.013 487.39l148.45-35.273-221.937-4.806-403.11 11.62"/>
      <path fill="#4ba6ca" d="M828.797 708.97l6.97-24.506-.988 24.08-12.35 37.042"/>
      <path fill="#ffebcd" d="M397.23 711.16l-37.805 17.724 4.354-45.05-3.09 21.063"/>
      <path fill="#ffca00" d="M133.43 541.387l6.12-183.853-102.616-13.408L-31 602.716"/>
      <path fill="#50a6cb" d="M284.374 701.267l52.92 34.222-25.56-27.405-36.43 2.957"/>
      <path fill="#376caf" d="M391.44 186.664l22.64-93.195-25.182-54.15 3.295 104.152"/>
      <path fill="#ffcb00" d="M803.62 391.55l153.054 5.404 81.73-52.095-222.51 5.11"/>
      <path fill="#8e8b81" d="M678.828 649.038l5.596-20.03.804 41.103-8.914-16.76"/>
      <path fill="#efe5d2" d="M292.242 658.702L266.36 745.52l6.43-60.777L24.252 734.62"/>
      <path fill="#fce182" d="M611.212 133.39l27.454 15.865 7.8 10.644.69-20.906"/>
      <path fill="#ffe16d" d="M258.49 381.804l150.05 19.224-172.272-32.214 15.31 60.633"/>
      <path fill="#c1ae1a" d="M538.057 246.865l-13.802 23.702-2.59-17.392 11.91-6.856"/>
      <path fill="#44a0c9" d="M347.713 682.703l3.075 18.053 12.263-14.71-8.672 47.14"/>
      <path fill="#f2f2ee" d="M287.296 101.12l34.327 3.743-.22 3.013-30.682 4.44"/>
      <path fill="#3c70b2" d="M282.01 184.934l-74.018-.137-238.992.987 231.448 70.965"/>
      <path fill="#44a1c8" d="M967 738.773l-11.678-6.784 14.45-14.85-7.16-15.183"/>
      <path fill="#fffcf6" d="M386.14 125.59l-2.154 51.267 7.226-30.687-26.49-11.274"/>
      <path fill="#ffe279" d="M516.676 529.52l-35.47 16.026 2.48-61.555 39.058.9"/>
      <path fill="#ffe270" d="M172.715 415.926l-10.13-45.948-25.038-7.416 3.596 82.36"/>
      <path fill="#2962a8" d="M390.924 165.602l20.834-25.873-.577 34.634 33.158 44.394"/>
      <path fill="#366eb4" d="M869.375 100.953L1055 99.813l-45.394 29.06-88-72.29"/>
      <path fill="#3f72b3" d="M260.768-31l548.59 131.686-490.674 1.287-316.75-10.3"/>
      <path fill="#f1e5cf" d="M351.465 720.396l-11.107 48.646-22.193-93.67 34.43-18.93"/>
      <path fill="#ffe884" d="M471.632 417.62l-4.76 15.473 7.242 16.167 322.01-.495"/>
      <path fill="#ceb41a" d="M118.42 247.677l14.307-2.478-12.283 22.223-3.204-22.768"/>
      <path fill="#ffe884" d="M698.644 178.484l31.62-.514-.824-19.023-15.054 25.254"/>
      <path fill="#3a70b2" d="M609.552 167.592l-1.015-53.888L373.215-31l209.288 144.367"/>
      <path fill="#3b71b3" d="M230.722 51.975L531.21 91.22l-105.553 88.472 19.09-62.436"/>
      <path fill="#6e8e8a" d="M846.146 387.374L826.82 402.04l3.416 20.343 4.873-20.228"/>
      <path fill="#2d66ab" d="M185.072 142.296l9.12-5.45 10.413 33.552-18.237 11.178"/>
      <path fill="#fc0" d="M732.366 588.286l79.237-1.718-58.23-124.608-10.557 19.65"/>
      <path fill="#e9e1d0" d="M720 601.42L476.833 799 437 693.867l58.98-99.484"/>
      <path fill="#ffd551" d="M184.31 404.618l-3.517 28.69 11.038 14.71.71-53.962"/>
      <path fill="#ffd43f" d="M148.938 445.65l302.44 2.26-41.863-29.84-49.716-4.092"/>
      <path fill="#2e67b1" d="M678.7 157.217L620.974 176.4l8.18-32.4 14.54 11.644"/>
      <path fill="#fefcf4" d="M173.338 172.866l31.895 4.89-2.103 9.34-27.46-9.988"/>
      <path fill="#fffff7" d="M231.856 139.936l-2.215 27.687 10.857 13.77-.504-44.39"/>
      <path fill="#feca00" d="M805.245 439.14l4.324-93.668 16.378 61.765 46.802 137.567"/>
      <path fill="#ffe187" d="M621.242 124.138l.908 43.912-11.932 25.362-.73-89.213"/>
      <path fill="#f3e8d3" d="M276.364 737.503l25.504-3.828-13.532-108.627 25.624 134.985"/>
      <path fill="#ffea84" d="M752.893 115.63l10.12 69.11 16.735-11.876-29.692 13.115"/>
    </g>
    <g class="UTIL__svg-thumb__high-res">
      <path fill="#756b41" d="M681.78 501.966l4.255 4.627 2.057 26.335 20.094 7.045"/>
      <path fill="#2193cc" d="M273.11 714.667l-22.9-17.808-16.355-2.4 23.91-2.986"/>
      <path fill="#e2e9ec" d="M478.587 123.79l9.344 27.478-14.35-6.29 5.836-20.45"/>
      <path fill="#fff480" d="M609.4 108.668l96.682-6.413 29.64 10.292-131.207-11"/>
      <path fill="#2864b6" d="M716.93 137.332l22.056-30.845-6.55-4.387-13.286 68.61"/>
      <path fill="#3e72b2" d="M798.93 40.51l21.233 136.586-57.657-31.985 41.627 117.466"/>
      <path fill="#9d9b8f" d="M966.037 659.58l-17.255-17.03 11.348 28.44-20.23 10.878"/>
      <path fill="#3b71b3" d="M200.667 343.706l-189.43-72.348 334.29.24 150.548 73.477"/>
      <path fill="#fdfbf4" d="M96.196 141.51l-12.148-4 29.27 45.06 11.65-3.65"/>
      <path fill="#8e8041" d="M324.375 412.246l13.942-18.214L418 415.827l-106.11.907"/>
      <path fill="#ffcb00" d="M478.943 442.87l-59.57 152.433-247.45-2.152 311.552-36.85"/>
      <path fill="#ffc900" d="M619.338 579.678l-236.503-10.173 202.08 23.086 14.72-145.573"/>
      <path fill="#ffcb00" d="M1052.765 583.457l-190.89-218.502 23.275 52.498 158.514-57.114"/>
      <path fill="#59abce" d="M815.875 713.23l-19.827 25.878-19.438-29.1 34.753 34.932"/>
      <path fill="#3a6fb1" d="M265.365 185.41l275.525.397 111.092-.865-48.055 69.432"/>
      <path fill="#fffdf5" d="M143.254 177.23l-22.06 3.878 40.134 2.23-15.62-53.28"/>
      <path fill="#47a2ca" d="M247.8 742.383l17.307-44.69 2.018 34.39-35.223-7.08"/>
      <path fill="#6e653d" d="M257.157 392.28l-1.393 41.528 7.26-44.386 15.55 12.5"/>
      <path fill="#ffef7f" d="M576.003 181.044l-28.785-44.383 43.06 45.767-3.48.923"/>
      <path fill="#fce582" d="M978.3 180.11l-47.183 5.033.24-13.497 1.23 3.2"/>
      <path fill="#fad65a" d="M347.507 417.13l20.017-15.4-8.123 46.59-14.19-85.332"/>
      <path fill="#7e7e76" d="M397.858 636.767l3.034 31.025 4.272-36.16-6.938.15"/>
      <path fill="#73b4c8" d="M740.08 735.52l38.912-2.712 5.205-31.462-7.866 12.914"/>
      <path fill="#fdfcf2" d="M486.877 181.086l-12.21 1.744 8.543-12.66 8.382 1.926"/>
      <path fill="#3d72b2" d="M535.628 257.567l29.853-88.087 19.205 20.754 334.955-3.956"/>
      <path fill="#efe5d3" d="M827.546 731.024L764.334 799l102.074-24.155L856 642.692"/>
      <path fill="#339acc" d="M883.362 697.95l-1.35.146 11.757-4.22-42.653-1.583"/>
      <path fill="#3f73b2" d="M288.295 182.234l218.91 64.98-421.88.906 207.755-74.834"/>
      <path fill="#366daf" d="M828.492 155.584l27.557 46.058-27.21-83.982 18.596-8.404"/>
      <path fill="#e7e3d2" d="M783.927 680.004l-6.275 95.124 63.915-146.16-50.985 154.834"/>
      <path fill="#3067a9" d="M318.71 132.737l-8.793-17.894 8.416-5.177 27.168.368"/>
      <path fill="#ffea83" d="M708.853 139.038l.707 18.836 10.36-5.8-4.563-24.112"/>
      <path fill="#ffe77f" d="M708.796 531.48l19.97 6.454 8.395-51.09-54.34-1.915"/>
      <path fill="#fff583" d="M952.26 143.672l-.08-42.393-9.07 29.915-2.115 51.26"/>
      <path fill="#ffdf61" d="M534.974 502.775l-13.908 61.138 20.195-73.267 3.53 66.888"/>
      <path fill="#ffe688" d="M827.345 108.806l5.575 30.124 22.534 4.047-41.298 5.303"/>
      <path fill="#53a9cd" d="M439.082 733.357l-76.352 1.39 67.012-6.008 19.003-14.374"/>
      <path fill="#ffec84" d="M949.36 102.686l-36.94 12.156 22.876-17.254 16.745 42.33"/>
      <path fill="#ffe883" d="M860.534 118.97l-10.542-22.434 11.447 6.746 7.005 15.116"/>
      <path fill="#fff17e" d="M782.59 135.44l3.968 19.97-22.538-19.09-13.87 20.638"/>
      <path fill="#3a6faf" d="M333.215 136.783l23.876 28.33 22.29-33.028-.424 36.304"/>
      <path fill="#f0e6d4" d="M935.536 691.904l-242.92-7.486 260.428-21.98L920.904 799"/>
      <path fill="#87827a" d="M419.15 619.823l.246 50.605 6.63-38.117-2.02 10.752"/>
      <path fill="#b1a635" d="M59.96 276.725l-16.985-38.67 2.8 34.786-7.067-21.702"/>
      <path fill="#3a70b1" d="M535.647 178.51l-106.9-22.168 69.235-9.55 36.246-16.933"/>
      <path fill="#396eb0" d="M677.614 116.54l-25.886-33.384 25.257 82.136 2.977-57.722"/>
      <path fill="#ffeb83" d="M867.76 177.03l32.21 5.738-12.613-88.555.602 91.827"/>
      <path fill="#a9a79a" d="M701.582 663.774l66.727-18.27-11.556 19.108-75.457-33.6"/>
      <path fill="#3c71b2" d="M565.494 146.523l13.562 3.027 13.34-80.03 17.522 109.404"/>
      <path fill="#3c71b3" d="M965.114 110.843l-14.777.03 59.172 202.83L1055 177.57"/>
      <path fill="#ffea6a" d="M340.393 414.82l-2.95 16.565-.824-30.053 4.546-37.264"/>
      <path fill="#7a9dbb" d="M447.008 256.41l66.01-4.15-51.907 25.993 6.13-10.435"/>
      <path fill="#fffffa" d="M142.51 101.974l6.432-6.68 4.654 11.91-13.493 4.816"/>
      <path fill="#1b57a1" d="M100.478 114.28l-15.915-3.15-1.828 25.733 20.254-7.795"/>
      <path fill="#306ab1" d="M751.12 167.39l-25.36 18.018 20.458-37.398.528-23.468"/>
      <path fill="#aca437" d="M288.343 269.06l-20.047 3.05 21.256-14.868-24.455 1.034"/>
      <path fill="#7295bb" d="M949.45 281.93l62.99-30.507-82.732 5.847 9.41 9.067"/>
      <path fill="#ffea83" d="M667.453 365.427l.075 79.786 16.53-44.318-201.89-38.24"/>
      <path fill="#265d9e" d="M649.602 110.79l.686 47.558 5.163-37.842-35.36-8.722"/>
      <path fill="#789387" d="M847.19 408.945l-14.14 15.17 24.24-10.37 2.74 16.28"/>
      <path fill="#ffcd00" d="M913.765 586.997L1055 589.19 949.07 420.954 816.05 424.29"/>
      <path fill="#4e4d36" d="M537.88 526.34l.47 6.955-3.393 6.713-.985-31.33"/>
      <path fill="#abab9c" d="M101.325 666.83l85.494-26.58-48.384 8.31-44.397-8.965"/>
      <path fill="#3e72b3" d="M-11.19 182.983L-31 7.033l102.08 110.09.625 57.717"/>
      <path fill="#f4de87" d="M800.438 104.13l-23.113 31.99 24.007-23.532-113.833-9.71"/>
      <path fill="#fcfcf6" d="M79.272 181.642l18.027.76-16.347-11.512-27.623 11.382"/>
      <path fill="#396ca8" d="M313.73 138.245l-.334 36.434 52.954 15.632-18.886-7.98"/>
      <path fill="#ffcb00" d="M227.564 447.052L-31 483.078v96.25l237.534 15.4"/>
      <path fill="#74b5c9" d="M963.918 702.68l-36.718 6.746-4.975 28.633 1.72-3.026"/>
      <path fill="#366db4" d="M913.14 200.225l28.87-34.663-34.48-56.267-9.425 44.733"/>
      <path fill="#3366a4" d="M791.14 113.247l10.06 19.856-22.142-9.33-12.457-15.146"/>
      <path fill="#c1a414" d="M439.09 549.995l-4.473-14.733-36.15-20.28 40.62 5.262"/>
      <path fill="#9baebf" d="M759.918 273.98l18.876 6.547 7.953-26.186.475 14.787"/>
      <path fill="#fffffd" d="M389.585 98.322l-8.9 5.01-4.095 10.556 10.367-2.57"/>
      <path fill="#3e72b2" d="M182.245-31l58.062 236.483-22.648-95.06-33.21 22.278"/>
      <path fill="#f1e6d1" d="M938.017 688.58L917.19 799l20.19-67.233 16.822-81.55"/>
      <path fill="#605938" d="M702.137 523.127l-16.386 17.946 7.894-26.56 2.936-.223"/>
      <path fill="#3a70b1" d="M155.547 145.643l-3.813 43.92 17.417-67.88 1.466 73.982"/>
      <path fill="#356caf" d="M258.923 221.653l40.33-68.337-44.987-34.67 46.36-10.122"/>
      <path fill="#ffcb00" d="M857.56 374.93l6.994 48.307-52.6-75.262-110.937-.055"/>
      <path fill="#346cb6" d="M879.922 145.126l-8.426 46.003-10.818-4.098-8.496-69.778"/>
      <path fill="#f4df85" d="M871.89 185l4.143-1.386 34.382.02-20.556-17.653"/>
      <path fill="#ebe3d1" d="M669.258 677.387l88.21 7.15L619.632 799l95.756-169.554"/>
      <path fill="#ffea86" d="M634.822 377.595l121.393 23.663 45.782-35.58-130.09-1.835"/>
      <path fill="#ffe578" d="M356.035 355.864l5.878 10.992 35.29-3.422-12.035 49.674"/>
      <path fill="#3d71b0" d="M1055 187.32l-385.013-3.51 42.777 105.13 1.127-42.23"/>
      <path fill="#fff87d" d="M851.023 126.344l-4.455 10.503 2.545 20.757 4.21-5.417"/>
      <path fill="#4878b3" d="M142.073 126.346l1.503 48.445-15.773-1.535 1.58 21.34"/>
      <path fill="#f2e8d6" d="M406.722 671.54l42.712 44.894 15.468-30.304-60.696-33.183"/>
      <path fill="#efde85" d="M644.4 124.495l15.112-6.613-35.57-17.272 38.772 8.023"/>
      <path fill="#ffeb84" d="M642.263 184.03L666.59 169l-17.693 6.595-82.586.107"/>
      <path fill="#2961a4" d="M84.087 147.993l.028 19.06 29.734 25.86-19.764-37.77"/>
      <path fill="#2d98c9" d="M798.176 699.3l.308.83L790 731.76l-1.8-12.172"/>
      <path fill="#ece3d1" d="M222.267 644.448l172.986-6.98 68.737-41.96-128.217 1.29"/>
      <path fill="#ffed83" d="M681.254 134.503l.278 43.236 10.716-29.112 10.736-9.15"/>
      <path fill="#ede4d2" d="M1039.89 732.216l-142.92 59.156 8.12-103.368-15.028 48.09"/>
      <path fill="#4c4b38" d="M518.6 544.647l1.905-31.183 11.59.466-15.284 15.855"/>
      <path fill="#fbda67" d="M371.557 378.873L320.11 408.79l-161.374-49.998 151.548 45.983"/>
      <path fill="#69603a" d="M667.798 526.9l2.28-14.643 17.733 29.348-42.127-30.616"/>
      <path fill="#b0aea0" d="M335.977 661.548l-48.5 3.195-99.024-20.137 144.537-.315"/>
      <path fill="#2f66ab" d="M210.476 158.66l-6.647-19.917-18.277 12.562 1.548 22.955"/>
      <path fill="#eee6d1" d="M799.678 646.08l-26.143 100.937 33.21-75.653-30.974-23.274"/>
      <path fill="#fdd857" d="M688.902 532.325l-19.968-25.5-38.38 95.063 49.154-104.948"/>
      <path fill="#dbb005" d="M860.744 479.35l-68.266 20.666-8.25 57.25 60.97 23.654"/>
      <path fill="#ffe584" d="M260.614 364.056l-70.504 23.012-10.854 16.375-20.662-40.702"/>
      <path fill="#fff083" d="M885.674 168.446l.66-51.427 10.006-9.235.457 41.473"/>
      <path fill="#f3e8d0" d="M773.94 694.83L749.91 799l25.473-84.185-30.505-12.962"/>
      <path fill="#70b3c9" d="M742.256 735.66l-10.258-1.674 7.192-9.525 18.946 9.107"/>
      <path fill="#60889a" d="M898.16 394.792l13.238 5.077-10.142 17.882-4.083 3.68"/>
      <path fill="#faf8f2" d="M412.865 176.657l2.09-33.714 3.257-32.984 8.392 77.344"/>
      <path fill="#fefbf3" d="M386.633 171.477l12.418 12.866-33.64-4.085 24.723-11.857"/>
      <path fill="#f9cd0a" d="M907.062 401.525l-11.94 10.55-27.887-7.305 20.808-7.99"/>
      <path fill="#fffff9" d="M301.752 183.807l11.364-16.32-1.9-65.054-7.47 8.84"/>
      <path fill="#ffc900" d="M365.028 363.237L165.182 346.61l-139.16 2.266 104.054 14.048"/>
      <path fill="#7598bb" d="M599.918 273.735l-25.385-1.56-47.166-5.86 96.51-14.414"/>
      <path fill="#3b70b2" d="M443.74 130.61l-21.672 42.014 54.612 12.185-91.078-210.565"/>
      <path fill="#22538b" d="M752.592 186.247l-183.46 3.278 39.513-5.765 37.22 2.367"/>
      <path fill="#aaa99b" d="M763.6 641.732l108.717 21.138-82.218 1.628 127.35-17.373"/>
      <path fill="#50a7c9" d="M921.437 736.906l-15.165-13.266-2.42-15.692-1.872 22.396"/>
      <path fill="#ffe982" d="M924.18 102.18l53.525 11.507-3.892 7.823 4.012-17.945"/>
      <path fill="#f7f6f1" d="M106.48 133.577l-34.136 17.766 46.146-10.802-4.92-28.075"/>
      <path fill="#2e66a8" d="M557.338 156.078l16.67 23.912-20.273-6.727-9.377-24.246"/>
      <path fill="#fd6" d="M391.574 411.402l4.346 23.373 47.003-70.67-.715 74.845"/>
      <path fill="#ffe688" d="M272.406 363.45l7.512 57.302 2.386-37.53 152.74-18.137"/>
      <path fill="#fbf9f5" d="M380.89 185.566l10.67-33.238-4.286-18.644-7.423-5.158"/>
      <path fill="#9c988d" d="M437.745 645.403l-13.788 33.05 21.214-33.333 12.13 22.39"/>
      <path fill="#349bca" d="M949.077 708.542l19.572-4.906-26.148 9.502-4.23 27.038"/>
      <path fill="#3d70ae" d="M588.54 140.723l16.97 53.573-37.367-49.546 2.634.51"/>
      <path fill="#3d71b3" d="M750.385 161.266L737.19 99.49 1055-3.522 688.912 2.03"/>
      <path fill="#ffe786" d="M953.088 169.972l-.164-59.71-11.046-8.252 3.276 75.283"/>
      <path fill="#f7d763" d="M286.238 388.693l-25.844 11.893 8.093 16.572.38-20.985"/>
      <path fill="#ffe885" d="M815.806 176.274l-2.548 4.314 21.814 5.073-13.045-43.73"/>
      <path fill="#3368ac" d="M796.236 179.077l-20.81-33.287-15.4 3.546 8.71 19.892"/>
      <path fill="#3f72b1" d="M953.12 129.372l16.094-20.46 50.094 93.5-65.745-26.95"/>
      <path fill="#ffef7e" d="M655.688 107.708l4.225 12.766-19.404-13.75 4.713-4.495"/>
      <path fill="#4e7da5" d="M867.308 395.18l1.916 26.305-5.516-17.24 20.74-10.695"/>
      <path fill="#5baaca" d="M280.713 735.49l-3.597-12.015-27.228 4.153 89.477 1.492"/>
      <path fill="#f3e9d5" d="M283.103 651.66l-14.985 111.663L271.45 592.7l-6.38 82.225"/>
      <path fill="#6d8c8a" d="M847.685 412.863l5.188-8.625-15.826-13.61 11.21 23.87"/>
      <path fill="#ebe5d2" d="M230.935 649.18l-66.068 93.51 49.27-96.254 17.968 96.967"/>
      <path fill="#ffec84" d="M499.28 398.633l131.295-1.648-9.716 35.964-16.262-62.823"/>
      <path fill="#53523a" d="M190.963 390.67l-8 21.546-4.85 6.01 1.953-13.942"/>
      <path fill="#e9e2d1" d="M409.86 687.613l-4.223 58.29-212.644-13.968L424.05 799"/>
      <path fill="#74726e" d="M930.006 635.715l1.746-4.768 1.218 42.73-3.845-24.58"/>
      <path fill="#a09f93" d="M124.086 679.135l6.242-11.948-1.54-49.225-3.907 49.747"/>
      <path fill="#ffd43f" d="M484.132 563.764l89.924 6.276 14.75-23.456-105.378-11.627"/>
      <path fill="#ebe4d2" d="M74.28 799L-31 593.056l345.125 13.452-250.55 29.636"/>
      <path fill="#fffef6" d="M222.688 142.08l-23.837 42.027 21.934-16.526-2.24-13.73"/>
      <path fill="#3b70af" d="M153.14 177.005l17.373-15.1 2.88-52.898-17.388-4.877"/>
      <path fill="#ffe57a" d="M440.063 376.49l-226.3-12.27-17.817 38.358 17.867-5.316"/>
      <path fill="#918243" d="M206.163 416.26l101.203-.27-114.744-15.3-.918-12.518"/>
      <path fill="#ffe55f" d="M254.167 379.45l-3.82-16.146 6.663 59.477-22.517 7.005"/>
      <path fill="#386eaf" d="M484.817 134.153l48.84 5.414 2.985-29.736-96.956 29.256"/>
      <path fill="#ffe45f" d="M310.54 381.28l-6.804 41.53 1.402 17.336-13.573-53.007"/>
      <path fill="#ffcd00" d="M845.165 416.494l-17.683-50.29 21.6 2.664-16.057 43.815"/>
      <path fill="#8f8f84" d="M911.747 657.487l.75-24.88-6.703 8.68 3.51 30.745"/>
      <path fill="#158dc9" d="M434.26 705.296l6.137.392 2.733 20.872-15.184-23.522"/>
      <path fill="#fffdf6" d="M204.504 130.553l-7.955-3.733 21.54 38.503-2.676-23.152"/>
      <path fill="#eee4d0" d="M875.893 770.252l26.02-103.32-12.022 31.18-14.95-1.864"/>
      <path fill="#3a6faf" d="M107.054-7.607l36.552 128.714-42.38 32.69 32.858-35.626"/>
      <path fill="#faf9f3" d="M258.917 178.596l-22.49 1.454 35.34 1.66 10.862-33.437"/>
      <path fill="#89a3be" d="M684.794 278.984l18.29-.15-1.29-25.16-13.185-.827"/>
      <path fill="#ebe2ce" d="M380.654 742.057l-37.846-95.523 45.362 59.06-9.997-115.825"/>
      <path fill="#e9e2d0" d="M796.41 643.46L1055 596.033l-344.737.5-12.883 46.238"/>
      <path fill="#3e72ae" d="M833.098 106.487l-4.41 31.535 21.26-7.682-8.504-1.78"/>
      <path fill="#eae3d1" d="M655.437 665.546l13.83 49.95 90.1 15.384-41.512-65.87"/>
      <path fill="#3e72b2" d="M416.08 129.45l-52.826-1.136 107.4-67.16L393.36-31"/>
      <path fill="#5d593c" d="M558.744 523.864l-15.79 15.31 4.578-25.367 5.232-1.478"/>
      <path fill="#f1e7d1" d="M281.347 590.287l13.216 96.796 14.367 73.3-5.888-61.944"/>
      <path fill="#46a2c8" d="M804.938 734.985l14.452-37.942-6.233 32.12-30.417 3.284"/>
      <path fill="#f9f7f5" d="M76.128 184.62l.326-75.696-28.338-.225 36.402-8.087"/>
      <path fill="#afac9d" d="M392.516 666.264l-89.284-5.84 150.06.8-70.788 4.593"/>
      <path fill="#eae3d2" d="M776.877 695.47l43.745-64.792-25.714 76.62-29.343-73.115"/>
      <path fill="#e1dfcf" d="M423.443 698.107l-1.59 40.134 13.4-22.423-11.656-7.608"/>
      <path fill="#3d72b2" d="M312.704 87.56L164.792 33.31l59.144 119.268 12.978-16.752"/>
      <path fill="#ffe475" d="M658.978 487.227l-37.628 68.886-3.285 14.78-2.708-83.89"/>
      <path fill="#ffe886" d="M546.55 102.01l-12.53 38.796 11.887 51.97.766-103.27"/>
      <path fill="#eee6d1" d="M834.494 634.23l1.81 13.784-18.51 116.018-4.004-26.46"/>
      <path fill="#fefcf7" d="M343.276 159.537l15.832 25.387-43.186-44.18 14.412-4.622"/>
      <path fill="#396ca9" d="M553.705 114.132l-14.43-1.19 28.942.903-22.338 30.867"/>
      <path fill="#9f9f92" d="M758.94 645.177l-38.418-2.703 6.558 27.942-9.393 1.26"/>
      <path fill="#3b9dcb" d="M860.11 691.716l-4.027 2.845 18.247 4.285 22.72-7.196"/>
      <path fill="#c2bc9c" d="M725.496 439.486l-27.804-55.635-13.888 23.1 23.266-19.036"/>
      <path fill="#ffe484" d="M573.455 486.724l-43.47 30.29-56.34-33.444 18.204.828"/>
      <path fill="#fdc900" d="M379.43 345.422l62.635 19.538 14.957 213.665L467.81 352.52"/>
      <path fill="#ffdc63" d="M195.634 420.102l17.615-55.372 11.74 90.812-20.237-100.145"/>
      <path fill="#ffeb85" d="M759.804 108.092l1.793 75.028-7.862-51.25-5.908-29.985"/>
      <path fill="#504d36" d="M239.094 419.386l-10.676-14.81 6.188 2.542 8.877-6.354"/>
      <path fill="#fefbf4" d="M194.12 128.71l-12.398 13.173 20.63-7.078 21.143 28.014"/>
      <path fill="#aba333" d="M853.738 268.61l-19.245-19.533 20.117-1.887-15.388 24.096"/>
      <path fill="#3c70b2" d="M285.023 168.393l-1.348-42.644-12.637 137.076-51.04-40.807"/>
      <path fill="#ffecd2" d="M262.125 724.715l-15.79-26.657-4.387 5.666-1.365 19.636"/>
      <path fill="#3f73b2" d="M603.816 183.448l-229.706 9.8-14.285-49.95 16.39 107.535"/>
      <path fill="#aaa440" d="M717.443 246.1l2.394 38.448-6.254-31.03-7.315.855"/>
      <path fill="#3d72b2" d="M782.495 108.14l10.953 64.795-22.363 94.207 47.248-123.056"/>
      <path fill="#feca00" d="M601.865 345.28L152.91 359.758l435.864 4.54 214.383-2.014"/>
      <path fill="#474647" d="M183.18 653.42l-.967 13.21-1.157-20.86 1.175-5.817"/>
      <path fill="#fdebd2" d="M909.34 712.337l7.154-3.198 10.903 18.457-14.787-.477"/>
      <path fill="#7c7041" d="M656.947 534.97l-8.483 13.134 9.383-47.513-4.513 29.99"/>
      <path fill="#f8f8f5" d="M270.903 132.963l10 12.234-4.758 28.507-9.453 6.67"/>
      <path fill="#e9e3d1" d="M215.512 702.005l-40.17-60.507-13.43 22.388 36.44-21.694"/>
      <path fill="#1a8ecb" d="M381.13 709.177l19.613 2.032-2.216-5.116-5.69-2.684"/>
      <path fill="#f9f7f3" d="M82.474 124.04l.22 39.483-12.103 25.96 2.038-60.74"/>
      <path fill="#fffff9" d="M276.694 150.512L251.03 127.37l-7.136 7.338 32.19 2.25"/>
      <path fill="#f4f5f1" d="M55.043 103.86l64.796 12.065 6.7 2.663-24.674-13.976"/>
      <path fill="#e8e1d0" d="M701.377 594.74L397.02 608.09l265.52 147.305 20.243-124.73"/>
      <path fill="#ffcb00" d="M-31 529l430.205 63.593 495.208.828-448.687-32.003"/>
      <path fill="#c2b02a" d="M274.173 248.278l16.76-2.236-17.685 21.886 1.102-15.248"/>
      <path fill="#3b70b3" d="M719.48 138.503l-7.46 38.927 37.226-25.677-1.46-42.897"/>
      <path fill="#e8e1cf" d="M113.71 724.58l2.23-84.904L28.495 799 98.89 644.79"/>
      <path fill="#ffd248" d="M667.677 537.385l4.84-8.503 36.74 40.586-95.92-5.49"/>
      <path fill="#ffe16a" d="M369.994 374.11L275.7 397.49l100.384-13.635.532 60.14"/>
      <path fill="#3b6fb1" d="M925.682 111.315l16.836 5.233-3.235 48.47-44.622 11.93"/>
      <path fill="#eae3d2" d="M418.21 759.215L375.978 799l23.044-76.9-11.916-1.573"/>
      <path fill="#3d72b2" d="M517.585 264.64l28.597-70.142-57.917-29.948.96 75.61"/>
      <path fill="#ffe885" d="M489.31 420.222l-22.33-56.516-.16 84.12 258.175-24.656"/>
      <path fill="#ffe989" d="M781.873 415.032l-115.81 33.163 113.953-.073 29.263-2.558"/>
      <path fill="#3c71b3" d="M-24.105 244.876L59.02-31l-.88 209.447 58.57 69.702"/>
      <path fill="#f8cb00" d="M439.645 246.877l1.127 15.808-3.577 8.274-1.655-15.224"/>
      <path fill="#5a553b" d="M195.432 379.387l-18.184 40.37-7.287-26.156 8.79 16.59"/>
      <path fill="#faf1bc" d="M590.306 488.15l-2.795-1.904-95.323-1.224-3.41 2.938"/>
      <path fill="#ffef80" d="M712.57 101.65l-4.405-4.567 20.402 24.588.774-11.745"/>
      <path fill="#837743" d="M391.55 382.93l24.69 34.718-86.32-17.285 67.212 4.52"/>
      <path fill="#ffde5a" d="M389.68 367.957l2.365 61.25 34.083-26.02-28.485 29.886"/>
      <path fill="#fee783" d="M977.372 122.832l6.157-12.542-63.288-3.362 48.273-4.798"/>
      <path fill="#7798b9" d="M137.373 269.975l95.193-15.607L122.07 252.5l71.573 18.955"/>
      <path fill="#3d72b3" d="M843.085 255.178l143.812-1.31 62.98 55.636L1055 128.008"/>
      <path fill="#ffd852" d="M591.125 560.155l-54.804-21.947-7.885-16.51-7.11 8.36"/>
      <path fill="#a9a89b" d="M57.946 643.43l124.663-.195L81.35 672.67l59.43-22.418"/>
      <path fill="#d2af09" d="M838.41 572.185l37.645-23.74-6.217-56.545-5.09 73.477"/>
      <path fill="#c4c09a" d="M513.547 387.87l-25.18 11.52 113.296-.26-80.262 21.277"/>
      <path fill="#9a998d" d="M448.617 659.86l25.427-32.853-8.175 10.745-17.808 36.69"/>
      <path fill="#ebdc89" d="M751.583 173.454l-3.574 4.557 35.575-1.535-49.545 8.914"/>
      <path fill="#3399c9" d="M358.864 683.876l2.643 51.146 14.7-7.262-25.522 5.545"/>
      <path fill="#4ba3ca" d="M283.972 702.017l16.352 4.792-1.878 22.22-4.728-.927"/>
      <path fill="#ffe280" d="M393.375 365.612l14.977 43.824-11.533 1.215 43.64-46.91"/>
      <path fill="#47a2ca" d="M407.053 721.046l26.246 17.652 6.458-24.074-.745 19.222"/>
      <path fill="#e9e2d1" d="M847.757 604.922L723.303 644.32l-2.39 73.327-4.968-95.842"/>
      <path fill="#fff67f" d="M911.718 119.016l8.667-19.263 2.42 11.38-2.607 5.153"/>
      <path fill="#718f86" d="M823.538 397.28l14.094 31.342-5.034-26.975-4.28 2.833"/>
      <path fill="#efe7d5" d="M910.582 627.238l-28.117 31.192 10.01 10.288-10.83-59"/>
      <path fill="#fc0" d="M866.362 394.938l112.457-5.018-126.278-36.305-3.28 75.19"/>
      <path fill="#fecb00" d="M378.775 517.9l205.222-63.06-190.147-10.253-410.736 68.38"/>
      <path fill="#d7d188" d="M664.19 166.13l-14.787 22.914-2.408-13.06 9.19-11.59"/>
      <path fill="#3a75bd" d="M833.897 415.46l3.513 8.22 10.282-15.44-4.06 13.066"/>
      <path fill="#6eb4cd" d="M807.13 694.32l-66.985 3.713 10.876 20.445-5.06-27.167"/>
      <path fill="#9a988c" d="M968.767 652.452l-45.282 9.193 14.962 2.723 30.294-16.733"/>
      <path fill="#245eac" d="M708.003 148.046l-1.303 25.726-13.13-22.193-6.09-1.458"/>
      <path fill="#3f72b0" d="M664.74 112.835l17.31-2.045-20.912 73.556-2.356-162.205"/>
      <path fill="#376eb2" d="M117.63 202.117l-1.255 65.788-36-80.335.956 80.84"/>
      <path fill="#3298c8" d="M755.867 736.947l4.832-17.238-16.64-16.372 24.78 17.21"/>
      <path fill="#f0e7d5" d="M420.47 647.09L378.94 686.6l34.49 27.477-9.11-94.724"/>
      <path fill="#fc0" d="M841.826 488.975l38.484-65.617 2.62-23.44 8.93 107.99"/>
      <path fill="#3f73b2" d="M1034.263 99.636L1032.06-31 663.105 100.463l189.024.997"/>
      <path fill="#366cae" d="M347.252 134.823l-15.31 7.692 37.788 35.96 10.608-38.6"/>
      <path fill="#366bad" d="M620.35 168.56l10.87-22.918-12.89 1.835 45.033 19.05"/>
      <path fill="#3c71b3" d="M71.06 101.642L-31 12.516 85.86-31 166.1 99.342"/>
      <path fill="#f2e8d2" d="M299.43 650.437l7.263 80.763-.767-69.88 4.95-27.944"/>
      <path fill="#929288" d="M706.595 663.508l169.21-2.46-118.767.12-56.465-.265"/>
      <path fill="#3e72b2" d="M466.083 174.5l-181.27 52.346 195.94 13.953-207.84 15.412"/>
      <path fill="#ffee84" d="M610.138 102.234l11.01 1.277-2.925 37.06-4.514 50.365"/>
      <path fill="#f1f2f0" d="M351.916 117.884l-34.406 26.1 46.354-44.125-27.344 3.294"/>
      <path fill="#ffea83" d="M768.553 176.417l11.55 7.937-42.483-3.752 6.222-3.08"/>
      <path fill="#3d71b2" d="M743.513 254.496l-206.55-64.71 476.822-5.14-166.43 61.938"/>
      <path fill="#ece7d5" d="M905.38 713.124l20.65-48.726 1.827 1.066-10.375-60.636"/>
      <path fill="#7eb9ca" d="M889.24 721.5l10.532-35.228 3.985 2.72-19.62 64.426"/>
      <path fill="#fff" d="M-.95 786.427L-31 588.195-9.26 799l8.487-204.196"/>
      <path fill="#3e72b3" d="M857.533 178.44l19.133-64.7 8.556 60.784 11.534-1.497"/>
      <path fill="#dce2e5" d="M418.17 185.175l-6.807-19.414 29.375 15.01-15.984 5.98"/>
      <path fill="#f3da84" d="M823.94 130.967l9.73-33.002 23.162 13.59-40.923-1.572"/>
      <path fill="#3d71b3" d="M363.805 221.82l118.232-64.63-18.77-24.858L485.53 253.59"/>
      <path fill="#54a7c9" d="M865.747 711.545l2.4 27.586 9.044-60.818-9.307 38.847"/>
      <path fill="#3c71b2" d="M299.57 179.18l-1.168-68.1-21.8 30.556 11.49 23.76"/>
      <path fill="#3e72b3" d="M882.46 99.393L551.384 94.39 424.39 130.594l4.647-158.924"/>
      <path fill="#e5dfcd" d="M838.577 649.78l-90.6 28.66-22.672-35.303 52.772 45.533"/>
      <path fill="#eae2d1" d="M158.17 663.64l-6.3-47.468 6.342 152.058 97.13-98.994"/>
      <path fill="#225896" d="M165.06 188.93l-49.1-3.094 127.04-.994 67.594 3.598"/>
      <path fill="#ffee81" d="M786.996 153.5l-7.382 5.863 3.425-32.404 1.634-.93"/>
      <path fill="#3e72b1" d="M336.042 345.76l252.11-75.427-381.578 1.065-169.4.71"/>
      <path fill="#7d7442" d="M510.637 540.22l9.575-20.122-10.792-5.047 25.834.77"/>
      <path fill="#ffe688" d="M706.403 485.467l-23.875 38.36-26.165-28.79-49.884-9.095"/>
      <path fill="#ffe586" d="M682.58 387.494l122.08 20.067-.24-42.844-289.237-.06"/>
      <path fill="#2e67ae" d="M691.746 116.76l26.917-6.09 3.253 11.904-20.586 13.733"/>
      <path fill="#255894" d="M705.655 189.6l83.686-.984-37.8-3.827-127.616 2.393"/>
      <path fill="#3097cc" d="M241.083 689.988l-9.22 3.33 7.744 35.588-7.787 11.38"/>
      <path fill="#6e92b9" d="M896.66 245.63l-54.75 26.506 152.77-1.812-99.07-17.684"/>
      <path fill="#3d72b3" d="M997.57 250.198l51.083 182.644L1025.46-31 980.02 106.915"/>
      <path fill="#5c563a" d="M357.947 381.512l-5.682 37.037-13.46-7.867 16.132 7.01"/>
      <path fill="#3b6faf" d="M254.884 171.187l16.78-24.126-15.118-10.902-13.368 36.688"/>
      <path fill="#fce586" d="M549.77 137.88l15.404 9.84 25.998 31.402-12.636 4.54"/>
      <path fill="#f0f1f1" d="M148.172 182.477l-.29-60.85-5.463 50.338 25.916 7.407"/>
      <path fill="#bfbb9d" d="M643.42 420.907l-6.14-41.05-11.286 39.1 23.19-.48"/>
      <path fill="#4b4a36" d="M201.735 412.86l1.885 1.917 7.987-17.23-12.376 8.393"/>
      <path fill="#ebe3d1" d="M1008.166 799L1055 563.74l-83.075 80.218-12.74 33.253"/>
      <path fill="#8b8b81" d="M953.014 642.348l4.14 16.374 16.103-18.088-14.325 29.91"/>
      <path fill="#396eae" d="M124.595 298.454l-29.062-130 23.547 19.164-51.944-3.316"/>
      <path fill="#386eb2" d="M779.307 169.12l57.95 43.282-72.66-68.16-.94 32.592"/>
      <path fill="#939488" d="M253.23 644.544l2.897 20.018-28.855-4.71 10.91-2.57"/>
      <path fill="#e9e2cf" d="M364.496 625.91l-50.755 23.61 40.112-11.27 5.534 30.218"/>
      <path fill="#fffff8" d="M266.147 179.62l-23.397.182-4.765-47.906-4.596 42.284"/>
      <path fill="#58abcb" d="M917.67 733.417l-7.522 2.106-3.475-2.778 29.437-11.812"/>
      <path fill="#1e91c7" d="M958.147 739.063l9.138-23.246-5.85-14.582 5.414 3.246"/>
      <path fill="#afcccb" d="M282.367 716.24l1.464 12.13 6.51 1.206 1.693-22.676"/>
      <path fill="#e7e1cf" d="M120.274 677.208l1.6-41.487L168 780.908l-35.79-138.517"/>
      <path fill="#ffe987" d="M535.797 400.396l263.722-23.878-3.624-11.063-326.217.75"/>
      <path fill="#ffea83" d="M561.82 102.742l17.41 35.82 2.563-30.032-36.045 1.116"/>
      <path fill="#3e72b2" d="M911.38 95.217l23.446 209.835-38.29-182.818 84.467-106.237"/>
      <path fill="#efe8d5" d="M249.128 623.527l-1.945-22.288-9.607 63.886-10.044-49.184"/>
      <path fill="#ffd24a" d="M253.184 413.324l-60.182 36.274-28.638-62.468-29.928 52.603"/>
      <path fill="#5fadca" d="M323.103 702.356l-3.464 29.99 11.763-7.13-26.18-21.398"/>
      <path fill="#d9e1e6" d="M142.78 120.358l-6.296 6.32 14.973 15.925-22.318-6.103"/>
      <path fill="#f5e8d0" d="M941.73 744.89l13.877 1.712 5.644-35.538-13.55 2.877"/>
      <path fill="#eaeeed" d="M164.35 108.682l22.05-7.563-5.296-3.692-15.798 1.194"/>
      <path fill="#3c71b3" d="M551.733 50.16l48.765 106.853-4.948 79.936.716-138.914"/>
      <path fill="#8c877f" d="M91.457 644.463l-.784 13.5-2.58 7.69-3.346-13.246"/>
      <path fill="#f8f8f4" d="M441.31 130.823l-2.106 5.596-26.447 2.602-12.176-8.154"/>
      <path fill="#2f99cd" d="M414.3 687.957l2.81 24.823 7.277-27.22-12.167 4.072"/>
      <path fill="#46402f" d="M365.803 410.716l2.642-3.036-.22-21.144 3.506 21.352"/>
      <path fill="#366fb3" d="M527.876 252.06l186.694-14.23-8.438 74.332-6.768-58.744"/>
      <path fill="#f8c600" d="M589.723 562.39l25.29 32.013-.98-121.885-21.952-15.95"/>
      <path fill="#eae3d1" d="M101.497 742.773l-.714-121.897-24.26 163.926 6.89-149.212"/>
      <path fill="#2a5d9b" d="M643.112 187.22l-103.872-2.466-40.88 4.116 67.81.882"/>
      <path fill="#ece5d2" d="M864.79 713.67l-105.128-53.776 10.084-23.13 18.08 57.618"/>
      <path fill="#ffdd68" d="M262.814 397.144l36.31 1.284-10.134-20.997-27.778 39.618"/>
      <path fill="#f7e284" d="M809.064 108.784l-8.066-2.64 69.648 6.878-7.546-8.216"/>
      <path fill="#386eaf" d="M142.466 148.764l-15.317-16.052 8.042 29.452-28.627 101.79"/>
      <path fill="#6e6f6a" d="M860.552 635.34l-5.164 9.384 4.1 9.35 1.374 8.813"/>
      <path fill="#fdfbf4" d="M183.866 174.887l10.045 5.69-20.59 4.218 2.66-82.166"/>
      <path fill="#1c222a" d="M318.555 415.405l-9.206-.646 1.306-22.695 2.39 20.462"/>
      <path fill="#ffde6a" d="M396.42 374.31l-13.04 40.425-4.895-25.16-29.234 1.857"/>
      <path fill="#ffde64" d="M588.946 485.154l-15.215 20.443-37.036 47.08 51.9-13.664"/>
      <path fill="#ede5d2" d="M329.022 723.446l8.847-127.944 1.548 144.426-14.96 23.277"/>
      <path fill="#e9e2d0" d="M243.852 747.05l29.243-27.162-38.3 79.112-66.903-152.076"/>
      <path fill="#fee684" d="M731.575 167.27l-22.835 14.498-17.2-5.98 40.678 1.04"/>
      <path fill="#4ba4c8" d="M796.18 707.56l27.62 6.02-12.19-6.21-3.358-3.686"/>
      <path fill="#e9e3d1" d="M329.143 711.453l-6.073-68.69-132.61-1.9 138.38-31.74"/>
      <path fill="#4174b0" d="M609.177 110.09l1.466 63.608-29.637-.783 6.91-59.776"/>
      <path fill="#67afca" d="M318.637 736.32L258.43 721.31l44.65 11.615 37.858-10.753"/>
      <path fill="#ffe783" d="M707.568 393.086L639.87 452.08l36.588-53.51 27.64 18.006"/>
      <path fill="#3e72b2" d="M240.57 231.066l-10.575-67.32-16.697 14.227-88.815 76.767"/>
      <path fill="#3a9cc9" d="M307.52 711.157L235.01 736.98l3.924-7.174 27.28-4.72"/>
      <path fill="#726942" d="M662.82 516.185l-9.406 11.358 2.77 8.112-12.65-26.016"/>
      <path fill="#396dae" d="M411.525 138.342l-17.033-.683-.293 24.718 21.95 44.772"/>
      <path fill="#ede6d3" d="M257.88 630.31l1.24 9.404 5.552 52.3-9.473-1.045"/>
      <path fill="#fecb00" d="M863.482 364.077l-61.27-17.398 102.223 57.737-13.237 16.24"/>
      <path fill="#e8e1d1" d="M424.773 712.067l6.39 17.872 32.744-38.092 115.477 66.39"/>
      <path fill="#ffe16e" d="M538.214 489.082l-15.578 49.106 25.53-49.996-6.776 42.618"/>
      <path fill="#ffcb00" d="M741.903 582.406l79.78-178.202 22.503 37.672-108.44 14.538"/>
      <path fill="#e8e2cf" d="M346.06 700.02l-32.41 52.026 39.244-20.812-36.46-17.87"/>
      <path fill="#eae4d1" d="M216.91 693.623l72.74-11.588-9.066-36.082-8.83 23.936"/>
      <path fill="#e8e1cf" d="M878.78 614.905l162.467-21.368-176.857 12.955-1.995 75.667"/>
      <path fill="#3e72b0" d="M717.895 67.217l31.414 58.423-31.633 86.655 31.602-44.67"/>
      <path fill="#ffd146" d="M488.77 529.244l95.515 38.895-99.537 1.07 39.517-52.353"/>
      <path fill="#3269ab" d="M832.204 149.482l15.422-4.263-1.56 8.73-16.43 23.675"/>
      <path fill="#ffdb5b" d="M375.42 422.146l-16.523-18.224 12.907 37.68 4.192-81.86"/>
      <path fill="#ffea83" d="M545.937 182.38l.653-76.323-23.583 4.13 9.585-10.402"/>
      <path fill="#ffc900" d="M688.086 449.195l133.575 34.15-147.05.743-207.404.34"/>
      <path fill="#3a6fb0" d="M151.414 87.954l13.523 25.576-47.056-49.727 1.442 67.9"/>
      <path fill="#f2e6d1" d="M797.222 725.787l8.025-32.256-10.357 1.117 18.553 22.45"/>
      <path fill="#756d40" d="M260.752 398.51l10.272-14.287 3.99 26.495 24.148-10.282"/>
      <path fill="#527fa4" d="M834.438 400.996l18.514-4.13-17.822-1.808-5.62 12.118"/>
      <path fill="#f9e599" d="M139.117 364.402l19.18-1.036 88.917 1.277-98.247 10.687"/>
      <path fill="#ffeb86" d="M824.47 102.744l3.953 22.68.76 48.804-10.433 11.16"/>
      <path fill="#3366a3" d="M825.598 113.983l23.695-2.406 8.976-3.526-5.217 18.84"/>
      <path fill="#fbd453" d="M283.73 430.986l2.934-28.857 3.63 3.098 3.58 22.694"/>
      <path fill="#d6b00b" d="M253.72 513.772l110.333 28.336-143.6.837 57.625-49.965"/>
      <path fill="#756d46" d="M683.062 536.81l-10.684-25.61 9.627-17.118-15.742 29.233"/>
      <path fill="#3c72b4" d="M66.052 270.35l-11.792-8.67 13.96-45.77-27.484-.895"/>
      <path fill="#eae2cf" d="M858.53 673.568l-9.212-33.987-18.228 6.81 27.854-54.818"/>
      <path fill="#3a6fb2" d="M793.19 130.31l20.97-23.697 3.205 68.348-30.894-.514"/>
      <path fill="#9ab0c6" d="M220.3 281.718l2.83-45.86-4.19 11.94.46 5.404"/>
      <path fill="#3268ab" d="M631.5 140.974l12.75-25.723 2.558-2.98-27.705-.537"/>
      <path fill="#69623d" d="M369.36 399.42l-17.823 8.496 50.894-9.826 9.55 6.22"/>
      <path fill="#5dacc7" d="M918.654 702.52l21.39 8.01-27.775-1.227-10.034 4.147"/>
      <path fill="#ffe06d" d="M352.568 368.87l12.528 35.375-24.864-29.517 11.536 48.682"/>
      <path fill="#cfc795" d="M764.57 403.607l-16.96-6.4-67.618 23.137 85.384 1.383"/>
      <path fill="#ede6d2" d="M730.877 710.996l18.135-18.437-10.53-80.31 2.84 60.16"/>
      <path fill="#cfc796" d="M598.38 421.874l-123.152-1.913 137.586-15.132-11.966-14.884"/>
      <path fill="#fed24b" d="M733.266 570.753l1.56-53.746-23.122 51.537-23.787-43.89"/>
      <path fill="#3e72b3" d="M76.024-31L-31 352.45l90.45-21.198-20.702-73.41"/>
      <path fill="#366daf" d="M846.345 280.916l-2.034 29.947 3.826-58.39 22.185 39.193"/>
      <path fill="#fc0" d="M816.21 572.023l143.498 18.138-226.58-.824 5.57-74.75"/>
      <path fill="#ffe783" d="M759.915 143.288l8.708-6.098 19.813.25-19.72 10.18"/>
      <path fill="#fae480" d="M794.26 118.532l-11.633-15.528 19.06 10.804-1.962 6.386"/>
      <path fill="#888a80" d="M204.917 659.494l-2.396-4.81 9.034-18.746-6.34 25.718"/>
      <path fill="#c4b231" d="M43.094 263.603l-1.87 29.788 3.83-49.844-4.362 8.687"/>
      <path fill="#396fb3" d="M677.84 107.922l-36.338 55.342 35.26 3.238-23.05 41.998"/>
      <path fill="#a09f92" d="M744.072 674.764l-7.445-13.488-62.57-30.197 40.1 12.194"/>
      <path fill="#3f70a9" d="M102.25 114.153l3.688 12.412L87.4 124.73l-6.926-15.24"/>
      <path fill="#ffdf67" d="M271.693 359.528l44.042 75.882-32.67-63.396-3.177 47.188"/>
      <path fill="#2c5f9c" d="M451.744 187.605l-40.84-3.66-47.418 2.05-87.754 3.13"/>
      <path fill="#ffe173" d="M172.29 394.362l194.415-21.715-68.38 25.898-158.6-29.606"/>
      <path fill="#5f5838" d="M342.645 399.663l12.294 3.855 1.79-11.972-16.92 27.133"/>
      <path fill="#cea207" d="M826.9 574.344l35.233-74.76-58.512 26.55 37.65 45.307"/>
      <path fill="#ffe982" d="M638.67 137.766l-27.175 2.576 3.616 10.045 25.413-8.033"/>
      <path fill="#ffcb00" d="M903.434 415.398l129.232 42.632L1055 341.532l-81.42 15.97"/>
      <path fill="#edda86" d="M692.12 165.24l-5.817 6.326 51.24 14.86-65.534-4.483"/>
      <path fill="#ffd853" d="M615.762 560.214l37.43-7.313-1.734-35.814-33.924 19.08"/>
      <path fill="#ece3d2" d="M790.296 775.728l78.92-72.71-21.27 84.93-69.127-61.672"/>
      <path fill="#605935" d="M519.045 537.96l-2.277-1.353 18.354-3.42 5.684 4.858"/>
      <path fill="#7698bc" d="M395.03 249.716l-12.68 15.675-34.154 5.517 67.222-.73"/>
      <path fill="#3a9dc8" d="M412.09 730.337l-21.37-2.813-43.083 2.327L369 733.375"/>
      <path fill="#eae3d0" d="M407.083 589.454l-6.516 117.625 49.29-61.227-23.828 56.543"/>
      <path fill="#ffe379" d="M182.693 366.398l44.022 39.035 4.054-14.69 185.73-5.647"/>
      <path fill="#e9e2d0" d="M200.822 712.446l2.56-109.394 76.874 37.966-92.14 2.91"/>
      <path fill="#2f68b2" d="M565.84 114.157l-17.364 3.21 5.55 21.02 13.152-1.574"/>
      <path fill="#3f73b2" d="M339.714 111.62L171.33-31 344.295 1.825l-31.957 143.19"/>
      <path fill="#4da5c7" d="M832.212 720.137l-5.867 14.32.854-30.263 7.332.252"/>
      <path fill="#6b6339" d="M306.842 398.875l6.267-6.84 18.835 2.946 3.555-1.496"/>
      <path fill="#3f73b2" d="M527.63 101.49l278.682-.398 189.24-1.19L980.193-31"/>
      <path fill="#e9e2d1" d="M392.01 757.757l249.322-83.123-249.208 72.6L343.6 658.67"/>
      <path fill="#e9e3d2" d="M304.02 713.102l-14.296-11.407-62.196-16.087 96.486.666"/>
      <path fill="#ffd141" d="M215.098 445.48l93.36 2.72-14.255.51-46.073-42.65"/>
      <path fill="#c19f0c" d="M404.97 521.433l-29.78 18.42 10.6-33.01 5.15 28.722"/>
      <path fill="#e5e1d0" d="M290.142 799l2.704-68.786-29.214 50.49 45.972-63.28"/>
      <path fill="#3f73b3" d="M181.034 180.466L168.81 266.18l-10.128-7.68 134.913-30.987"/>
      <path fill="#74b6cd" d="M781.946 687.662l-12.132 57.717 19.256-61.35 2.407 4.465"/>
      <path fill="#ffde6e" d="M636.94 514.675l40.96-28.046-21.145 39.73 14.894-11.914"/>
      <path fill="#379cc8" d="M931.88 705.13l-.346 18.41-8.496-19.847-18.158 6.583"/>
      <path fill="#6d92ba" d="M534.925 278.407l30.867-29.835 34.26 44.003-14.51-42.254"/>
      <path fill="#3e72b2" d="M-11.657 250.04l4.316-116.718 79.164-24.477L47.307 246.52"/>
      <path fill="#a8a698" d="M896.547 643.89l-14.16 24.145-12.84-10.113 33.75 7.78"/>
      <path fill="#fcca00" d="M355.384 348.598l94.807 15.027 252.55-8.856-204.388-9.926"/>
      <path fill="#ffea83" d="M959.1 184.374l-29.73-3.965 16.945-7.155 20.04 5.603"/>
      <path fill="#fc0" d="M295.22 545.535l11.08-23.978 4.877 73.09-272.99-9.75"/>
      <path fill="#3e72b3" d="M914.798 110.382l-46.306-46.047-1.502 97.44L882.663 16.52"/>
      <path fill="#a3a195" d="M329.595 618.096l5.452 49.325-3.948.032-1.64-11.43"/>
      <path fill="#ebd787" d="M871.688 109.254l9.192-15.095 11.023 37.074 5.585-21.09"/>
      <path fill="#ffe886" d="M655.1 102.047l8.55 7.718-71.385-6.715 23.413 8.735"/>
      <path fill="#efe9d4" d="M998.55 650.724l-31.623-10.032-6.905 16.502-9.696-24.26"/>
      <path fill="#346cb0" d="M101.78 122.875l1.422 9.88-8.438 8.298-13.52-1.6"/>
      <path fill="#3e72b2" d="M892.698 258.063l-29.414-121.28 9.554 99.357 18.022 66.065"/>
      <path fill="#3f73b2" d="M450.256 261.447l-12.248-8.128 41.164-11.06L429.152-31"/>
      <path fill="#ffd64c" d="M336.326 428.678l-40.66-22.175 33.396 44.003-2.155-48.924"/>
      <path fill="#3a70b3" d="M716.257 291.105l12.1-104.725 3.316-13.81 5.692 25.25"/>
      <path fill="#afafa3" d="M690.606 394.26l47.946 13.055-43.2-17.786-9.37 36.832"/>
      <path fill="#ffcb00" d="M884.552 348.895l-27.687 67.417-37.31-64.39-10.69 58.896"/>
      <path fill="#5fadc9" d="M883.857 728.01L893 735.33l3.832-31.696-14.194 31.808"/>
      <path fill="#e9e2d1" d="M660.98 799l48.547-204.503-25.323 184.118-252.984-180.51"/>
      <path fill="#deae00" d="M205.015 448.226l-76.815-1.23 48.833 6.056L265.1 450.5"/>
      <path fill="#7494b9" d="M791.33 239.35l-15.605 39.62-12.137 8.486 2.452-30.243"/>
      <path fill="#f7e287" d="M574.613 129.118l-.486 9.36 12.52-2.975-45.014 16.917"/>
      <path fill="#7d7345" d="M196.672 415.466l1.904-2.763-5.716 6.962 3.993-44.74"/>
      <path fill="#796f41" d="M679.275 541.946l27.195-26.807 1.002 3.424-16.048-5.466"/>
      <path fill="#feea9b" d="M726.55 492.268l-41.517-7.038 49.2.005.375 39.94"/>
      <path fill="#ffdf6c" d="M397.134 383.8l-23.415 18.81 6.36-32.338 13.377 38.318"/>
      <path fill="#799486" d="M912.925 418.876l-3.534 5.315-31.32-3.532-50.812-4.217"/>
      <path fill="#366db0" d="M785.096 297.186l-10.48-129-12.855-20.034 16.22-.85"/>
      <path fill="#a78c12" d="M288.195 520.66l6.078 13.132 10.466-10.333-12.07 21.536"/>
      <path fill="#8e9084" d="M277.057 648.81l42.477-5.06 4.437 4.225-40.762-5.49"/>
      <path fill="#57533a" d="M549.21 531.242l-1.48-22.374-3.303 21.78.277 8.354"/>
      <path fill="#dfaa00" d="M647.315 569.6l-36.195 2.932 143.48-.02-30.067-3.372"/>
      <path fill="#eae2d1" d="M771.533 658.803l-136.188 62.39 128.768 5.827-26.874-19.56"/>
      <path fill="#af9310" d="M312.398 512.885l-1.457 6.33-2.39.704 18.38 24.48"/>
      <path fill="#a4b7c9" d="M64.436 261.708l-2.985-20.29 20.547 29.994-18.803-16.42"/>
      <path fill="#2c609f" d="M655.747 127.674l-31.963-15.367 24.83-1.253 10.043 20.122"/>
      <path fill="#f4f5f2" d="M319.31 138.203l21.33-13.575 22.133-19.746-6.4-5.093"/>
      <path fill="#3d70af" d="M611.22 26.373l-201.66 91.13-54.196-5.018-25.23 30.305"/>
      <path fill="#d0b520" d="M712.87 243.245l1.607.75 1.908 33.653 2.628-22.052"/>
      <path fill="#3f73b3" d="M511.31 220l26.143-78.195-33.503-85.44-25.663 207.14"/>
      <path fill="#9d9c91" d="M295.346 659.934l4.608-31.2-7.37 37.597 50.307-9.645"/>
      <path fill="#3064a3" d="M959.092 125.216l-2.906 33.872 3.718-48.85 13.05 1.7"/>
      <path fill="#eee5d2" d="M926.646 718.275l-14.334 1.032 37.743-60.696-33.978 31.636"/>
      <path fill="#54a7cb" d="M283.378 743.758L251.22 687.32l17.896 35.31 7.463-2.486"/>
      <path fill="#ffcb00" d="M-19.706 348.98l5.636 138.234 107.243-79.25 64.814-59.456"/>
      <path fill="#3c71b3" d="M375.086 256.092l47.572-68.054 20.354 135.994-20.875-73.658"/>
      <path fill="#817e74" d="M682.078 641.68l-2.58-6.41 9.527-.18 6.176-1.38"/>
      <path fill="#ffcb00" d="M884.553 395.965l-4.128 200.225 114.283-9.91-128.56-76.842"/>
      <path fill="#f8f9f2" d="M318.245 183.116l4.668-8.77-36.194 4.26 11.56 4.23"/>
      <path fill="#fcd34c" d="M606.86 509.883l71.363 46.662 9.058-35.788-1.775 47.454"/>
      <path fill="#366bae" d="M102.94 148.214l36.44 28.205 3.567-36.044 2.064-2.213"/>
      <path fill="#faf9f4" d="M377.908 184.277l-22.84-4.28 33.288.645 2.565-47.017"/>
      <path fill="#ffe287" d="M750.403 133.704l8.702-28.452 4.87 40.007-8.005 38.705"/>
      <path fill="#376db0" d="M772.265 109.608l15.663 7.445-15.438 22.288-10.118-7.09"/>
      <path fill="#3a6eb0" d="M846.636 113.177L838.1 136.77l45.95-28.795.706 66.66"/>
      <path fill="#eae3d1" d="M752.782 653.894l72.866 47.658-53.414 1.72 46.313-27.325"/>
      <path fill="#ffee85" d="M838.117 182.25l-37.898-1.66 29.7-4.566 12.038-.59"/>
      <path fill="#3e72b2" d="M897.885 163.09l42.52 12.997 1.61-14.562-41.764-48.112"/>
      <path fill="#524f37" d="M396.117 416.34l11.534-.503-5.502-3.162-7.278-23.92"/>
      <path fill="#fcca00" d="M105.634 455.775L316.187 474.2l38.23 88.064-18.095-113.384"/>
      <path fill="#3b70b1" d="M225.61 169.753l-24.146-120.21-16.987 77.258 48.175.775"/>
      <path fill="#3c70ae" d="M209.902 166.213l-9.437 10.302-15.48-32.34 18.573-5.238"/>
      <path fill="#7395b9" d="M385.31 254.647l-78-.794 33.662 15.173 42.215-25.16"/>
      <path fill="#444233" d="M545.725 541.014l-1.05-6.757 2.013-20.77 1.737 25.29"/>
      <path fill="#f2f3f0" d="M340.447 157.158l24.807 26.395-29.134-16.807-17.603-24.316"/>
      <path fill="#3f73b3" d="M327.32 257.952l-5.046 34.81 39.998-97.135 286.328-3.792"/>
      <path fill="#88887f" d="M439.655 646.45l15.292 19.948-10.407-24.874-9.654 20.325"/>
      <path fill="#bdb99f" d="M489.724 401.49l25.082-22.11-16.672 20.564 25.042 17.398"/>
      <path fill="#fecc00" d="M400.542 489.522l.78 70.458-24.003-107.735-4.308 87.282"/>
      <path fill="#a1b4c7" d="M226.372 253.46l15.82 18.187-1.27-27.638-4.25 22.29"/>
      <path fill="#a19f41" d="M285.316 268.154l7.333-1.248-7.233 6.2-19.062-8.677"/>
      <path fill="#e8ecea" d="M266.186 183.697l8.88-12.41 1.34-4.417-35.42 19.495"/>
      <path fill="#d3b61b" d="M116.71 260.99l2.862-15.29 3.85 20.622.61 7.923"/>
      <path fill="#3e72b3" d="M199.477 257.388l-9.844 31.21 11.384-97.65L61.413 235.34"/>
      <path fill="#ffec80" d="M653.273 182.143l-45.838 3.04-8.045-4.895 55.345-3.072"/>
      <path fill="#c2a111" d="M229.896 544.048L205.5 539.95l23.454-.99 28.995-26.95"/>
      <path fill="#918f85" d="M70.03 658.545l3.37 18.45-7.148-43.088-.72 35.914"/>
      <path fill="#ffe278" d="M575.048 517.375l15.324-25.043-109.817 2.897 40.5 14.704"/>
      <path fill="#ffe886" d="M537.242 166.676l-5.32 13.848 15.42-2.91-6.603-81.163"/>
      <path fill="#2f98c9" d="M438.236 720.6l-2.712 12.876 10.583-14.946-10.38-19.136"/>
      <path fill="#f4c845" d="M548.512 523.71l.017-10.557 19.785 56.703 17.138-5.947"/>
      <path fill="#4072af" d="M463.44 343.94l61.125-100.435-11.86 66.83 47.528 35.617"/>
      <path fill="#3f72b0" d="M572.353 152.236l16.325-30.73 14.412 58.286-26.918-17.836"/>
      <path fill="#3c71b3" d="M355.36 189.28l-5.11 81.177-36.492-126.616.02 28.816"/>
      <path fill="#ffe787" d="M792.814 448.54l14.132-3.705-6.794-25.16-341.248 26.452"/>
      <path fill="#e9e2d0" d="M755.054 685.675l277.516 9.523-139.065 9.38 32.52-42.602"/>
      <path fill="#3098c8" d="M309.83 712.18l-36.56 11.756 5.156 14.005 3.353-20.947"/>
      <path fill="#3e72b2" d="M660.036 252.443l134.112 54.42 47.163-57.996 3.69 66.75"/>
      <path fill="#ecefee" d="M114.614 108.473l2.21 34.896-3.675-23.2L92.405 100.8"/>
      <path fill="#4f7fb2" d="M625.14 115.273l13.005 5.44-.48 18.638-17.21-2.02"/>
      <path fill="#94958b" d="M926.556 640.998l19.693 3.655-19.91 5.268 6.416-25.312"/>
      <path fill="#3970b4" d="M274.278 257.3l-28.585-5.77 17.85-39.946-2.82 127.628"/>
    </g>
  </g>
</svg>