<svg version="1.1" viewBox="0 0 1024 768" width="1024" height="768" xmlns="http://www.w3.org/2000/svg">
  <g fill-opacity=".5">
    <path fill="#756b41" d="M681.8 502l4.2 4.6 2 26.3 20.2 7" />
    <path fill="#2193cc" d="M273 714.7L250.3 697l-16.3-2.5 23.8-3" />
    <path fill="#e2e9ec" d="M478.6 123.8l9.3 27.5-15-6.3 5-20.5" />
    <path fill="#fff480" d="M609.4 108.7l96.7-6.4 30 10.2-131-11" />
    <path fill="#2864b6" d="M717 137.3l22-30.8-6.6-4.4-13.2 69" />
    <path fill="#3e72b2" d="M799 40.5L820 177l-57.7-32L804 262.7" />
    <path fill="#9d9b8f" d="M966 659.6l-17.2-17L960 671l-20 11" />
    <path fill="#3b71b3" d="M200.7 343.7L11.2 271.4l334.3.2L496 345" />
    <path fill="#fdfbf4" d="M96.2 141.5l-12.2-4 29.3 45L125 179" />
    <path fill="#8e8041" d="M324.4 412.2l14-18.2 79.6 21.8-106 1" />
    <path fill="#ffcb00" d="M479 443l-59.6 152.3-247.5-2 311-37" />
    <path fill="#ffc900" d="M619.3 579.7l-236.5-10.2 202 23 15-145.5" />
    <path fill="#ffcb00" d="M1052.8 583.5L861.8 365l23.4 52.5 158.5-57.2" />
    <path fill="#59abce" d="M816 713.2l-20 26-19.4-29.2 34.8 35" />
    <path fill="#3a6fb1" d="M265.4 185.4l275.5.4 111-1-48 69.6" />
    <path fill="#fffdf5" d="M143.3 177.2l-22 4 40 2-15.6-53" />
    <path fill="#47a2ca" d="M247.8 742.4l17.3-44.7 2 34.4-35-7" />
    <path fill="#6e653d" d="M257.2 392.3l-1.4 41.5 7.2-44.4 15.6 12.5" />
    <path fill="#ffef7f" d="M576 181l-28.8-44.3 43 45.7-3.4 1" />
    <path fill="#fce582" d="M978.3 180l-47.2 5 1-13.4 1 3.2" />
    <path fill="#fad65a" d="M347.5 417l20-15.3-8 46.6L345 363" />
    <path fill="#7e7e76" d="M398 636.8l3 31 4.2-36.2-7 .2" />
    <path fill="#73b4c8" d="M740 735.5l39-2.7 5.2-31.5-8 13" />
    <path fill="#fdfcf2" d="M487 181l-12.3 1.8 8.5-12.6 8.4 2" />
    <path fill="#3d72b2" d="M535.6 257.6l30-88 19 20.6 335-4" />
    <path fill="#efe5d3" d="M827.5 731l-63.2 68 102-24.2-10.3-132" />
    <path fill="#339acc" d="M883.4 698H882l11.8-4-42.7-1.7" />
    <path fill="#3f73b2" d="M288.3 182.2l219 65-422 1L293 173" />
    <path fill="#366daf" d="M828.5 155.6l27.5 46-27.2-84 18.6-8.3" />
    <path fill="#e7e3d2" d="M784 680l-6.3 95 64-146-51 154.8" />
    <path fill="#3067a9" d="M318.7 132.7l-8.8-18 8-5 27 .3" />
    <path fill="#ffea83" d="M709 139l.6 19 10.3-6-5-24" />
    <path fill="#ffe77f" d="M708.8 531.5l20 6.4 8.4-52-54.4-2" />
    <path fill="#fff583" d="M952.3 143.7v-42.4l-9.2 30-2 51.2" />
    <path fill="#ffdf61" d="M535 502.8l-14 61 20.3-73.2 3.5 67" />
    <path fill="#ffe688" d="M827.3 108.8l5.6 30 22 4.2-42 5.3" />
    <path fill="#53a9cd" d="M439 733.4l-76.3 1.3 67-6 19-14.3" />
    <path fill="#ffec84" d="M949.4 102.7l-37 12 23-17L952 140" />
    <path fill="#ffe883" d="M860.5 119L850 96.5l11.4 6.8 7 15" />
    <path fill="#fff17e" d="M782.6 135.4l4 20-22.6-19-14 20.6" />
    <path fill="#3a6faf" d="M333.2 136.8l24 28.3 22.2-33-.4 37" />
    <path fill="#f0e6d4" d="M935.5 692l-243-7.6 260.5-22L921 799" />
    <path fill="#87827a" d="M419 619.8l.4 50.6 6.6-38-2 10.7" />
    <path fill="#b1a635" d="M60 276.7L43 238l2.8 34.8-7-21.7" />
    <path fill="#3a70b1" d="M535.6 178.5l-107-22.2 69.4-9.5 36.2-17" />
    <path fill="#396eb0" d="M677.6 116.5l-26-33.3 25.4 82 3-57.6" />
    <path fill="#ffeb83" d="M867.8 177l32.2 5.8-12.6-88.6.6 91.8" />
    <path fill="#a9a79a" d="M701.6 663.8l66.7-18.3-11.5 19-75.5-33.5" />
    <path fill="#3c71b2" d="M565.5 146.5l13.6 3 14-80L610 179" />
    <path fill="#3c71b3" d="M965 110.8h-14.7l59.2 203 45.5-136.2" />
    <path fill="#ffea6a" d="M340.4 414.8l-3 16.6-.8-30 4.6-37.3" />
    <path fill="#7a9dbb" d="M447 256.4l66-4-52 26 6.2-10.6" />
    <path fill="#fffffa" d="M142.5 102l6.4-6.7 4 12-13 4.7" />
    <path fill="#1b57a1" d="M100.5 114.3l-16-3.2-1.8 26 20.3-8" />
    <path fill="#306ab1" d="M751 167.4l-25.2 18 20.4-37.4.5-23.5" />
    <path fill="#aca437" d="M288.3 269l-20 3 21.3-14.8-24.5 1" />
    <path fill="#7295bb" d="M949.5 282l63-30.6-82.8 6 9.4 9" />
    <path fill="#ffea83" d="M667.5 365.4v79.8L684 401l-201.8-38.3" />
    <path fill="#265d9e" d="M649.6 110.8l.7 47.5 5.2-37.8-35.4-8.7" />
    <path fill="#789387" d="M847.2 409l-14 15 24-10.3L860 430" />
    <path fill="#ffcd00" d="M913.8 587l141.2 2.2L949 421l-133 3.3" />
    <path fill="#4e4d36" d="M538 526.3l.3 7-3.3 6.7-1-31.3" />
    <path fill="#abab9c" d="M101.3 666.8l85.5-26.5-48.4 8.3-44.4-9" />
    <path fill="#3e72b3" d="M-11.2 183L-31 7 71 117l.7 57.8" />
    <path fill="#f4de87" d="M800.4 104l-23 32 24-23.4-114-9.7" />
    <path fill="#fcfcf6" d="M79.3 181.6l18 .8L81 171l-27.7 11.3" />
    <path fill="#396ca8" d="M313.7 138.2l-.3 36.5 53 15.6-19-8" />
    <path fill="#ffcb00" d="M227.6 447L-31 483v96.3l237.5 15.4" />
    <path fill="#74b5c9" d="M964 702.7l-36.8 6.7-5 28.7 1.7-3" />
    <path fill="#366db4" d="M913 200.2l29-34.6-34.5-56.3L898 154" />
    <path fill="#3366a4" d="M791 113.2l10.2 20-22-9.4-12.6-15.2" />
    <path fill="#c1a414" d="M439 550l-4.4-14.7-36-20.3 40.5 5.2" />
    <path fill="#9baebf" d="M760 274l18.8 6.5 8-26.2.4 14.8" />
    <path fill="#fffffd" d="M389.6 98.3l-9 5-4 10.6 10.4-3" />
    <path fill="#3e72b2" d="M182.2-31l58 236.5-22.5-95-33.3 22.2" />
    <path fill="#f1e6d1" d="M938 688.6L917.2 799l20.2-67.2 16.8-81.6" />
    <path fill="#605938" d="M702 523l-16 18 7.8-26.5 3-.2" />
    <path fill="#3a70b1" d="M155.5 145.6l-3.8 44 17.5-68 1.4 74" />
    <path fill="#356caf" d="M259 221.7l40.3-68.4-45-34.7 46.3-10" />
    <path fill="#ffcb00" d="M857.6 375l7 48.2L812 348H701" />
    <path fill="#346cb6" d="M880 145l-8.5 46-10.8-4-8.5-69.7" />
    <path fill="#f4df85" d="M872 185l4-1.4h34.4L890 166" />
    <path fill="#ebe3d1" d="M669.3 677.4l88.2 7-138 114.6 96-169.6" />
    <path fill="#ffea86" d="M634.8 377.6l121.4 23.7 45.8-35.6-130-2" />
    <path fill="#ffe578" d="M356 356l6 11 35.2-3.6-12 49.7" />
    <path fill="#3d71b0" d="M1055 187.3l-385-3.5 42.8 105 1-42" />
    <path fill="#fff87d" d="M851 126.3l-4.4 10.5 2.5 20.8 5-5.4" />
    <path fill="#4878b3" d="M142 126.3l1.6 48.5-15.8-1.5 1.6 21.3" />
    <path fill="#f2e8d6" d="M406.7 671.5l42.7 45L465 686l-61-33" />
    <path fill="#efde85" d="M644.4 124.5l15-6.6-35.4-18 38.3 8" />
    <path fill="#ffeb84" d="M642.3 184l24.3-15-17.7 6.6h-83" />
    <path fill="#2961a4" d="M84 148v19l29.8 26L94 155" />
    <path fill="#2d98c9" d="M798.2 699.3l.3.8-8.5 32-1.8-12" />
    <path fill="#ece3d1" d="M222.3 644.4l173-7 68.7-42-128.2 1.4" />
    <path fill="#ffed83" d="M681.3 134.5l.2 43.2 10.7-29 10.8-9.2" />
    <path fill="#ede4d2" d="M1040 732.2l-143 59.2 8-103.4-15 48" />
    <path fill="#4c4b38" d="M518.6 544.6l2-31 11.5.3-15 15" />
    <path fill="#fbda67" d="M371.6 379L320 408.7l-161.3-50 151.6 46" />
    <path fill="#69603a" d="M667.8 527l2.3-14.7 18 29.3-42-30.6" />
    <path fill="#b0aea0" d="M336 661.5l-48.5 3.2-99-20 144.5-.4" />
    <path fill="#2f66ab" d="M210.5 158.7l-6.7-20-18.2 12.6 1.5 23" />
    <path fill="#eee6d1" d="M799.7 646l-26.2 101 33.2-75.6-31-23.3" />
    <path fill="#fdd857" d="M689 532.3l-20-25.5-38.4 95 49-105" />
    <path fill="#dbb005" d="M860.7 479.4L792.5 500l-8.3 57.3 61 23.6" />
    <path fill="#ffe584" d="M260.6 364L190 387l-10.7 16.4-20.7-40.7" />
    <path fill="#fff083" d="M885.7 168.4l.6-51.4 10-9.2.5 41.5" />
    <path fill="#f3e8d0" d="M774 694.8L750 799l25.4-84.2-30.5-13" />
    <path fill="#70b3c9" d="M742.3 735.7L732 734l7.2-9.5 19 9" />
    <path fill="#60889a" d="M898.2 394.8l13.2 5-10 18-4.2 3.6" />
    <path fill="#faf8f2" d="M413 176.7l2-33.8 3.2-33 8.4 77" />
    <path fill="#fefbf3" d="M386.6 171.5l12.5 12.8-33-4 25-12" />
    <path fill="#f9cd0a" d="M907 401.5L895 412l-27.8-7.2 20.8-8" />
    <path fill="#fffff9" d="M301.8 183.8l11.3-16.3-1-65-7 8.8" />
    <path fill="#ffc900" d="M365 363.2l-199.8-16.6L26 349l104 14" />
    <path fill="#7598bb" d="M600 273.7l-25.5-1.5-47-6L624 252" />
    <path fill="#3b70b2" d="M443.7 130.6l-21.6 42 55 12.2-91-210.6" />
    <path fill="#22538b" d="M752.6 186.2L569 189.5l39.6-5.7L646 186" />
    <path fill="#aaa99b" d="M763.6 641.7L872.3 663l-82.2 1.5L918 647" />
    <path fill="#50a7c9" d="M921.4 737l-15-13.4L904 708l-2 22.2" />
    <path fill="#ffe982" d="M924.2 102.2l53.5 11.5-4 7.8 4-18" />
    <path fill="#f7f6f1" d="M106.5 133.6l-34.2 17.7 46.2-10.8-5-28" />
    <path fill="#2e66a8" d="M557.3 156l16.7 24-20.3-6.7-9.3-24.3" />
    <path fill="#fd6" d="M391.6 411.4l4.3 23.4 47-70.7-1 75" />
    <path fill="#ffe688" d="M272.4 363.4l7.5 57.4 2-37.6 152-18" />
    <path fill="#fbf9f5" d="M381 185.6l10.6-33.3-4.3-18.6-7.4-5.2" />
    <path fill="#9c988d" d="M437.7 645.4l-13.7 33 21.2-33.3 12 23" />
    <path fill="#349bca" d="M949 708.5l19.6-5-26 9.6-4.3 28" />
    <path fill="#3d70ae" d="M588.5 140.7l17 53.6-37.4-49.5 3 .5" />
    <path fill="#3d71b3" d="M750.4 161.3l-13.2-61.8L1055-3.5 689 2" />
    <path fill="#ffe786" d="M953 170v-59.7l-11-8.3 3.2 75.3" />
    <path fill="#f7d763" d="M286.2 388.7l-25.8 12 8 16.5.5-21" />
    <path fill="#ffe885" d="M815.8 176.3l-2.5 4.3 21.8 5-13-43.7" />
    <path fill="#3368ac" d="M796.2 179l-20.8-33-15.4 3.5 8.7 20" />
    <path fill="#3f72b1" d="M953 129.4l16.2-20.5 50 93-65.6-27" />
    <path fill="#ffef7e" d="M655.7 107.7l4.2 12.8-20-13.8 4-4.5" />
    <path fill="#4e7da5" d="M867.3 395.2l2 26.3-5.6-17.3 20.7-10.6" />
    <path fill="#5baaca" d="M280.7 735.5l-3.6-12-27 4 90 1.5" />
    <path fill="#f3e9d5" d="M283 651.7l-15 111.6 3.4-170.6L265 675" />
    <path fill="#6d8c8a" d="M847.7 413l5.2-8.8-16-13.6 11 24" />
    <path fill="#ebe5d2" d="M231 649.2l-66 93.5 49-96.3 18 97" />
    <path fill="#ffec84" d="M499.3 398.6l131.3-1.6-9.7 36-17-63" />
    <path fill="#53523a" d="M191 390.7l-8 21.5-5 6 2-14" />
    <path fill="#e9e2d1" d="M410 687.6l-4.4 58.3L193 732l231 67" />
    <path fill="#74726e" d="M930 635.7l1.8-4.8 1.2 42-4-25" />
    <path fill="#a09f93" d="M124 679l6.3-11.8-1.5-49.2-4 49.7" />
    <path fill="#ffd43f" d="M484 563.8l90 6.2 14.8-23.4L483.4 535" />
    <path fill="#ebe4d2" d="M74.3 799L-31 593l345 13.5L63.7 636" />
    <path fill="#fffef6" d="M222.7 142L199 184l21.8-16.4-2.3-13.7" />
    <path fill="#3b70af" d="M153 177l17.5-15 3-53-17.5-5" />
    <path fill="#ffe57a" d="M440 376.5l-226-12.3-18 38.4 18-5.3" />
    <path fill="#918243" d="M206.2 416.3l101.2-.3-114.8-15.3-1-12.5" />
    <path fill="#ffe55f" d="M254.2 379.4l-4-16 6.8 59.4-22.5 7" />
    <path fill="#386eaf" d="M484.8 134.2l49 5.4 2.8-29.8-97 29.3" />
    <path fill="#ffe45f" d="M310.5 381.3l-6.8 41.5L305 440l-13.4-53" />
    <path fill="#ffcd00" d="M845.2 416.5l-17.7-50.3L849 369l-16 43.7" />
    <path fill="#8f8f84" d="M911.7 657.5l.8-25-6.7 8.8 3.5 30.7" />
    <path fill="#158dc9" d="M434.3 705.3l6 .4 2.8 21-15-23.7" />
    <path fill="#fffdf6" d="M204.5 130.6l-8-3.8 21.6 38.5-2-23" />
    <path fill="#eee4d0" d="M876 770.3L902 667l-12 31-15-1.8" />
    <path fill="#3a6faf" d="M107-7.6L143.7 121l-42.5 33 33-35.6" />
    <path fill="#faf9f3" d="M259 178.6l-22.6 1.5 35.4 2 10.8-33" />
    <path fill="#89a3be" d="M684.8 279l18.3-.2-1-25-13-1" />
    <path fill="#ebe2ce" d="M380.7 742l-38-95.5 45.5 59-10-115.7" />
    <path fill="#e9e2d0" d="M796.4 643.5L1055 596l-344.7.5-13 46.3" />
    <path fill="#3e72ae" d="M833 106.5l-4.3 31.5 21.2-7.7-9-1.7" />
    <path fill="#eae3d1" d="M655.4 665.5l14 50 90 15.4-41.5-66" />
    <path fill="#3e72b2" d="M416 129.4l-52.7-1L470.7 61l-77.3-92" />
    <path fill="#5d593c" d="M558.7 524L543 539l4.5-25.4 5.3-1.5" />
    <path fill="#f1e7d1" d="M281.3 590.3l13.3 96.8 14.4 74-6-62" />
    <path fill="#46a2c8" d="M805 735l14.4-38-6.2 32.2-30.5 3.2" />
    <path fill="#f9f7f5" d="M76 184.6l.5-75.7-28.5-1 37-8" />
    <path fill="#afac9d" d="M392.5 666.3l-89.3-6 150 1-70.7 4.5" />
    <path fill="#eae3d2" d="M777 695.5l43.6-64.8-25.7 76.6-30-73" />
    <path fill="#e1dfcf" d="M423.4 698l-1.5 40.2 13-22.4-12-7.6" />
    <path fill="#3d72b2" d="M312.7 87.6l-148-54.3L224 152.6l13-16.8" />
    <path fill="#ffe475" d="M659 487.2l-37.7 69L618 571l-2.5-84" />
    <path fill="#ffe886" d="M546.5 102L534 140.8l12 52 .7-103.3" />
    <path fill="#eee6d1" d="M834.5 634.2l1.8 13.8-18.5 116-4-26.4" />
    <path fill="#fefcf7" d="M343.3 159.5L359 185l-43-44.3 14.3-4.6" />
    <path fill="#396ca9" d="M553.7 114l-14.4-1 29 .8-22.4 31" />
    <path fill="#9f9f92" d="M759 645.2l-38.5-2.7 6.6 28-9 1.2" />
    <path fill="#3b9dcb" d="M860 691.7l-4 3 18.3 4 22.7-7" />
    <path fill="#c2bc9c" d="M725.5 439.5L697.7 384l-14 23 23.4-19" />
    <path fill="#ffe484" d="M573.5 486.7L530 517l-56.4-33.4 18.2.8" />
    <path fill="#fdc900" d="M379.4 345.4L442 365l15 213.6 10.8-226" />
    <path fill="#ffdc63" d="M195.6 420l17.6-55.3 11.8 90.8-20.2-100" />
    <path fill="#ffeb85" d="M759.8 108l1.8 75-8-51-5.8-30" />
    <path fill="#504d36" d="M239 419.4l-10.6-14.8 6.2 2.5 9-6" />
    <path fill="#fefbf4" d="M194 128.7L181.8 142l20.7-7.2 21 28" />
    <path fill="#aba333" d="M853.7 268.6L834.5 249l20-1.8-15.3 24" />
    <path fill="#3c70b2" d="M285 168.4l-1.3-42.7-12.7 137-51-40.7" />
    <path fill="#ffecd2" d="M262 724.7L246.4 698l-4.4 5.7-1.4 19.7" />
    <path fill="#3f73b2" d="M603.8 183.4L374 193.2l-14.2-50L376.2 251" />
    <path fill="#aaa440" d="M717.4 246l2.4 38.5-6.2-31-7.3 1" />
    <path fill="#3d72b2" d="M782.5 108l11 65-22.4 94 48-123" />
    <path fill="#feca00" d="M602 345.3l-449 14.5 435.8 4.5 214.4-2" />
    <path fill="#474647" d="M183.2 653.4l-1 13.2-1-20.8 1-5.8" />
    <path fill="#fdebd2" d="M909.3 712.3l7.2-3.2 11 19h-15" />
    <path fill="#7c7041" d="M657 535l-8.5 13 9.3-47.4-4.5 30" />
    <path fill="#f8f8f5" d="M271 133l10 12.2-5 28.5-9.3 6.7" />
    <path fill="#e9e3d1" d="M215.5 702l-40.2-60.5L162 664l36.4-21.8" />
    <path fill="#1a8ecb" d="M381 709.2l19.7 2-2.2-5-5.7-2.8" />
    <path fill="#f9f7f3" d="M82.5 124l.2 39.5-12 26 2-60.8" />
    <path fill="#fffff9" d="M276.7 150.5l-25.7-23-7 7.2 32 2.3" />
    <path fill="#f4f5f1" d="M55 104l64.8 12 6.7 2.6-24.6-14" />
    <path fill="#e8e1d0" d="M701.4 594.7L397 608l265.5 147.4 20.3-124.7" />
    <path fill="#ffcb00" d="M-31 529l430.2 63.6 495.2.8-448.7-32" />
    <path fill="#c2b02a" d="M274.2 248.3L291 246l-18 22 1.2-15.3" />
    <path fill="#3b70b3" d="M719.5 138.5l-7.5 39 37.2-25.7-1.4-43" />
    <path fill="#e8e1cf" d="M113.7 724.6l2.2-85L28 799l71-154.2" />
    <path fill="#ffd248" d="M667.7 537.4l4.8-8.5 36.8 40-96-6" />
    <path fill="#ffe16a" d="M370 374l-94.3 23.5L376 384l.6 60" />
    <path fill="#3b6fb1" d="M925.7 111.3l16.8 5.2-3.2 48.5-44.6 12" />
    <path fill="#eae3d2" d="M418.2 759.2L376 799l23-77-12-1.5" />
    <path fill="#3d72b2" d="M517.6 264.6l28.6-70-58-30 1 75.6" />
    <path fill="#ffe885" d="M489.3 420.2L467 363.7l-.2 84L725 423.3" />
    <path fill="#ffe989" d="M782 415l-116 33.2h114l29.3-2.6" />
    <path fill="#3c71b3" d="M-24 245L59-31l-1 209.4 58.7 69.7" />
    <path fill="#f8cb00" d="M439.6 247l1.2 15.7-3.6 8.3-1.7-15.3" />
    <path fill="#5a553b" d="M195.4 379.4l-18.2 40.4-7.2-26.2 8.8 16.6" />
    <path fill="#faf1bc" d="M590.3 488l-2.8-1.8-95.3-1.2-3.4 3" />
    <path fill="#ffef80" d="M712.6 101.7l-4.4-4.6 20.4 25 .7-12" />
    <path fill="#837743" d="M391.6 383l24.6 34.6-86.3-17.2 67 4.5" />
    <path fill="#ffde5a" d="M389.7 368l2.3 61.2 34-26-28.4 30" />
    <path fill="#fee783" d="M977.4 122.8l6-12.5-63.2-3.4 48.3-5" />
    <path fill="#7798b9" d="M137.4 270l95.2-15.6-110.5-2 72 19" />
    <path fill="#3d72b3" d="M843 255.2l144-1.3 63 55 5-182" />
    <path fill="#ffd852" d="M591 560.2l-54.7-22-8-16.5-7 8.4" />
    <path fill="#a9a89b" d="M58 643.4l124.6-.2-101.3 29.5 59.5-22.4" />
    <path fill="#d2af09" d="M838.4 572.2l37.7-23.8-6-56.4-5 73.4" />
    <path fill="#c4c09a" d="M513.5 388l-25 11.4 113.2-.3-80.3 22" />
    <path fill="#9a998d" d="M448.6 660l25.4-33-8 10.8-18 36.6" />
    <path fill="#ebdc89" d="M751.6 173.5L748 178l35.6-1.5-49.6 9" />
    <path fill="#3399c9" d="M359 684l2.5 51 14.7-7.2-25.5 5.5" />
    <path fill="#4ba3ca" d="M284 702l16.3 4.8-2 22.2-4.6-1" />
    <path fill="#ffe280" d="M393.4 365.6l15 43.8-11.6 1.3 43.7-47" />
    <path fill="#47a2ca" d="M407 721l26.3 17.7 6.5-24-.8 19" />
    <path fill="#e9e2d1" d="M847.8 605l-124.5 39.3-2.4 73.3-5-95.8" />
    <path fill="#fff67f" d="M911.7 119l8.7-19.2 2.4 11.3-2.6 6" />
    <path fill="#718f86" d="M823.5 397.3l14 31.3-5-27-4.2 3" />
    <path fill="#efe7d5" d="M910.6 627.2l-28 31.2 10 10.3-11-59" />
    <path fill="#fc0" d="M866.4 395l112.4-5-126.3-36.4-3.2 75.2" />
    <path fill="#fecb00" d="M378.8 518L584 454.7l-190.2-10.2L-17 513" />
    <path fill="#d7d188" d="M664.2 166l-14.8 23-2.4-13 9.2-11.6" />
    <path fill="#3a75bd" d="M834 415.5l3.4 8.2 10.3-15.5-4 13" />
    <path fill="#6eb4cd" d="M807 694.3l-67 3.7 11 20.5-5-27.2" />
    <path fill="#9a988c" d="M968.8 652.5l-45.3 9 15 3 30.2-17" />
    <path fill="#245eac" d="M708 148l-1.3 25.8-13-22.2-6.2-1.5" />
    <path fill="#3f72b0" d="M664.7 112.8l17.3-2-21 73.5L659 22" />
    <path fill="#376eb2" d="M117.6 202l-1.2 66-36-80.4 1 80.8" />
    <path fill="#3298c8" d="M756 737l4.7-17.3-16.6-16.4 25 17.2" />
    <path fill="#f0e7d5" d="M420.5 647L379 686.7l34.4 27.5-9-94.6" />
    <path fill="#fc0" d="M841.8 489l38.5-65.6L883 400l9 108" />
    <path fill="#3f73b2" d="M1034.3 99.6L1032-31 663 100.5l189 1" />
    <path fill="#366cae" d="M347.3 134.8l-15.4 7.7 37 36 11-38.5" />
    <path fill="#366bad" d="M620.4 168.6l10.8-23-13 2 45.2 19" />
    <path fill="#3c71b3" d="M71 101.6l-102-89L86-31l80 130.3" />
    <path fill="#f2e8d2" d="M299.4 650.4l7.3 80.8-.8-70 5-27.8" />
    <path fill="#929288" d="M706.6 663.5l169.2-2.5-118.8.2-56.4-.3" />
    <path fill="#3e72b2" d="M466 174.5l-181 52.3 196 14-208 15.4" />
    <path fill="#ffee84" d="M610 102.2l11 1.3-2.8 37-4.5 50.4" />
    <path fill="#f1f2f0" d="M352 118l-34.5 26 46.4-44-28 3.2" />
    <path fill="#ffea83" d="M768.6 176.4l11.5 8-42-3.8 6-3" />
    <path fill="#3d71b2" d="M743.5 254.5L537 189.8l476.8-5.2-166.4 62" />
    <path fill="#ece7d5" d="M905.4 713l20.6-48.6 2 1-10.5-60.6" />
    <path fill="#7eb9ca" d="M889.2 721.5l10.6-35.2 4 2.7-19.7 64.4" />
    <path fill="#fff" d="M-1 786.4l-30-198.2L-9.3 799l8.5-204.2" />
    <path fill="#3e72b3" d="M857.5 178.4l19.2-64.7 8.5 60.8 11.6-1.5" />
  </g>
</svg>