<svg version="1.1" viewBox="0 0 1024 768" width="1024" height="768" xmlns="http://www.w3.org/2000/svg">
  <path fill="#c2c1bf" d="M0 0h1024v768H0z" />
  <g fill-opacity=".5">
    <path fill="#3b3c3e" d="M996 25.8l-551 1.4 3 549.8 547.2 3.5" />
    <path fill="#fff" d="M449.3 783l-9.5-814L-31 2.3-6.5 799" />
    <path fill="#fff" d="M1031.8 578.7L99.6 588 524 799h522.6" />
    <path fill="#060401" d="M828.2 54.7l2.6 531 52-205.5-10.6-363.8" />
    <path d="M471.7-23.5l5.4 532.2L453 631l3-568.8" />
    <path fill="#b6b6b6" d="M666 258.2l10.4 321.3-185.6-1.8 1.5-423" />
    <path fill="#242525" d="M793 232.8l89 89.5L692.8 384l9 121" />
    <path fill="#a19987" d="M771.2 693.5L463.5 742l274.2.6 225 .4" />
    <path fill="#121212" d="M980.6 28.7l-.8 452.3-26.2 116.3L956 161" />
    <path fill="#fff" d="M570.4 720.7L-31 611.7 281.3 528l296.3 88" />
    <path fill="#c8c8c8" d="M879.5 500.5L888.8-31 949 536.5 948-31" />
    <path fill="#ffc277" d="M363.4 281.3l-.8 298.6-51.6-4-2-337" />
    <path fill="#c5c5c4" d="M571 148l87 82.6L686.7-31l-115.4 4.5" />
    <path fill="#fff" d="M315 215l-346-1L6.5 799l302.3-217.2" />
    <path fill="#c9c7c9" d="M791-31l-4 311-52.6-311 1.6 392.3" />
    <path fill="#fff" d="M429.2 723.2l15-549L445.5-31l-168 93.5" />
    <path fill="#191919" d="M568.4 555l-12.6 30.2-10.7-60 13-210.4" />
    <path fill="#cfcecd" d="M553.3-31L519 592.5 503.8 32 395.3 12.6" />
    <path fill="#a89c87" d="M294 696l-39.4 2.2 27.2 47 315.5-9.6" />
    <path fill="#a80000" d="M757.7 722.6l-4-142.8-8 134.4 2 5.4" />
    <path fill="#ef5022" d="M82.5 670.6l1.5-68 18.7 4.6 13.6 99" />
    <path fill="#a70000" d="M580.5 750l5-64.4-1.2-79.2-7.8 50.3" />
    <path fill="#070607" d="M699.5 302.8l1 111.4L718 329 701.5 33" />
    <path fill="#2c2d2d" d="M888.2 580.7l-98.3 1.7 39-4.4 44-232.7" />
    <path fill="#5ccb8e" d="M228.4 371.4l-59.4-26-75.3 91-21.7-41" />
    <path fill="#383738" d="M548.2 62.5l.5 351.8L566.2 296l-6.6-274.6" />
    <path fill="#fff" d="M1012.7 13l4.7 341.3L1055-31 761.7 4.4M-31 7l85.5 792 48-737L186-26.4" />
    <path fill="#333" d="M620.5 266.8l-17.6-31 15-207.3 13 195" />
    <path fill="#fff" d="M565.2 744l396.5-1.8 89-343.7L1025 799" />
    <path fill="#b1b0b2" d="M723 371l67.6-10.7-2 218.2-55 12" />
    <path d="M966.6 71.5l-2.8 192.2-9.5-161 5-107.8" />
    <path fill="#78b7e4" d="M28 183l57.6-5.5L243 228.3 7.3 201.8" />
    <path fill="#f4d288" d="M128.3 354L139 511l101.4 35-141.7 23.7" />
    <path fill="#fff" d="M746.2 588.2l300 3-126.5 109.5-125.3 14" />
    <path fill="#1d2221" d="M783.7 254l7 186.7 48.8 7-20.8-36.6" />
    <path fill="#e36500" d="M996 641l-9.5-10.3-7.5 87-13-55.5" />
    <path fill="#eff3f1" d="M849.2 10.3l-1.4-17-4 100.6 5 94" />
    <path fill="#fff" d="M737 716.4L753.3 583 593 626l-2 71.4" />
    <path fill="#eff0f2" d="M846.2 562l-1-146.4 2.6-59 6.2 34" />
    <path fill="#fff" d="M152.8 729.2l382.7 22.4L652 763.8 95 799" />
    <path fill="#fffdff" d="M24 174.2l192.4-1.5 6.2 606.4 34-810" />
    <path fill="#72d7e3" d="M89.7 289l66 23.8 63-133.2-2.2 136.4" />
    <path fill="#232323" d="M923 460.7l-14.8-32.3 1.3-89 4.7-141" />
    <path fill="#fff" d="M802.8 7l-280-38-90.3 39.5 173.8 3" />
    <path fill="#beb96a" d="M384 254.3l21 21.4-39 18.6-91.3-38" />
    <path fill="#272727" d="M810.8 110l-.5 135.8L790 103.6l19-38.8" />
    <path d="M477 27.5l-6 274.3-9.2-43.6-7.2-208" />
    <path fill="#aeb4d9" d="M188.2 131.2l15.5-26-174.3-8.6-60.4 35.8" />
    <path fill="#fff" d="M1055 104l-39.3-128.6-1 462.5 2 327" />
    <path fill="#bdbebe" d="M917.5 504.8l9.7 109 18.4-144.6-22.8-168" />
    <path fill="#c7c7c8" d="M575.4 183.3l8 280.7 25-261.2 66.8-4.2" />
    <path fill="#2a2c2c" d="M447.8 354l-6 230 29-5 3.8-68" />
    <path fill="#4b5046" d="M246.3 17.3l1.6 2.5 90 9.4-79 4" />
    <path fill="#000402" d="M875.8 344.3l4-67.4L743 365l16-54" />
    <path fill="#b0e281" d="M174.6 474l-33.6 8-42.4-72 88.5 30.6" />
    <path fill="#c4c3c4" d="M663.6 183l10.8 19.5-41 401.2-4.6-365" />
    <path fill="#7d7163" d="M496.3 715.7l97.5-7 90.4 9.8-186.3 2.3" />
    <path fill="#040404" d="M873 454.4L791.5 502l3 32.5 92-111" />
    <path fill="#8c815d" d="M901.6 695.3l35 19.3 6.4 6.3-78.2-1" />
    <path fill="#eb9ecb" d="M211.2-28.5l8.5 160L176.3 38 85 65.3" />
    <path d="M838 29.3l6.6-1-.6 258L830 42" />
    <path fill="#a00" d="M750.4 636.3l.8 62 5 .2 1.4-96" />
    <path fill="#19191a" d="M718.3 268.8l12.5 29-7.2 79-6.5-13.6" />
    <path d="M705 582l-5.8-7 1-56.4 14.7 10.2" />
    <path fill="#cbcccc" d="M690.4 297l-3.8 372.2 13.6-220.5-2.5-261.8" />
    <path fill="#363636" d="M988 558l-30.3-207.7-.7 230.5 59 .3" />
    <path d="M703.5 200.5l6.4-175-11 5.8 1 137" />
    <path fill="#e8e9ea" d="M848.2 131.3l2.6 96.3-4.4 41.4-1.8-93.2" />
    <path fill="#6e6f70" d="M237.2 655l2.7 74.7 5-84-6-36.8" />
    <path fill="#a2a5a1" d="M1012.5 561.2l-31-48.5-1.2-442 35.5-45.2" />
    <path fill="#b4b1b4" d="M795.8 565.6l-25.3-79 1-113.8.3-232.3" />
    <path fill="#ef9b83" d="M218 720l-3.8-23-110-22.6 61.6 44.8" />
    <path fill="#c3c4c4" d="M570.5 532.6l30.2 107.6 5.7-296-17.6-351" />
    <path fill="#84c0d4" d="M152.2 321.8l-35.2-78 4.7-78.8-32.3 64.6" />
    <path fill="#cdcec9" d="M863.8 16.7l65 67.6L959.5 3l87.4 31.7" />
    <path d="M844.6 457l-1.4 133.7-18.6-94.7-8-8.7" />
    <path fill="#a98e4d" d="M298 656l1.5 54.3 92 11-114.5-2.7" />
    <path fill="#88d8dd" d="M230.8 158l55 28L277 17l-21.3 114.3" />
    <path fill="#fff" d="M421 258.2L456 666l-94 53.6 4-406.5" />
    <path fill="#b7b7b7" d="M883 459.8l-29.8 22 52-14.4 1-143" />
    <path fill="#fff" d="M1055 60.8l-29.2-52-352.6.8 253-40.6M422.7 22.3L581.4-31-31 11l213.6 12" />
    <path fill="#010101" d="M547.4 189.3l54.6-14.6-57-9.3 10 20.5" />
    <path fill="#302f31" d="M691.8 288.4l-12-73-2.3 181.7 13-115" />
    <path fill="#67cfb5" d="M212.7 381L101 372.2l1.5 36L215 353" />
    <path fill="#434443" d="M758.8 406.7l-7 51 27.5-19-18.6-115.3" />
    <path fill="#373737" d="M676 72.5l13.4 80.5-38 18.8 34.7 30" />
    <path fill="#3a393a" d="M920.5 159.8l-9.4 12.4-3 170.8 13-17" />
    <path fill="#fff" d="M-11.3 781.5L113 793.3 79.7 666.6-.5 35.4" />
    <path fill="#9a9da5" d="M810.7 331.2l-.5-172.2 13-19.8L828 336" />
    <path fill="#050000" d="M754 343.5l85.2-1.7-37.4-9.6-18.4-21.3" />
    <path fill="#0c0c0c" d="M870.3 553l-4.8-145.6.5 158.4 99.6 1" />
    <path d="M599.4 227.8l18-29.3 19.3 19.7-21.5 14.8" />
    <path fill="#6b6c6d" d="M672.7 608.8l-123-7.2 3.5 8.4 33.4-1.5" />
    <path fill="#fff" d="M428.2 65.4l8.5 226.7L278 171l10.7-107.8" />
    <path d="M455.4 584l21-148.6 5 47L463 320.2" />
    <path fill="#fff" d="M188 771.6L238.7 656 105 620l248 170.6" />
    <path d="M787.6 340l6.5-54 38-23.4-53 3.8" />
    <path fill="#4b95d4" d="M165.3 201.8L95 235.2l81.3-48.5-50.7-19.2" />
    <path fill="#c4c0ba" d="M779 342.8L790 9.5l-118 13 95.3 9" />
    <path fill="#afafaf" d="M875 545.2l180 9-95.3-12.5-74.5-32" />
    <path fill="#bc0000" d="M578 625l1 28 3.8 71.2 5.5-124.5" />
    <path fill="#212222" d="M556 34.4L553 96l-60.8 20.2 75.3-6.8" />
    <path fill="#020202" d="M701 294l9.2 217-10.2 6.4-.8-84" />
    <path fill="#fff" d="M274 676.8l302.7 25-53.2-118.5-247.5-.7" />
    <path fill="#fff" d="M305.5 630.3L125.7 431.7l52 20.6 135-191.2" />
    <path fill="#fba872" d="M208.3 525l21 73-14.2-49.5-121 19.2" />
    <path fill="#5f5f60" d="M618.8 233.7l11.5 230.8L616 580.2l-3-306.6" />
    <path fill="#ff9e93" d="M339.4 519.3l-24 77.2-5-64 2-286.4" />
    <path fill="#fff" d="M348.6 341.5l88.7 121-3-199.7-148.8 80.8" />
    <path fill="#e5af84" d="M124.7 770.2l14.8-56.6-41.2 51 17.4-93.8" />
    <path fill="#83c33b" d="M106 403.5l21.5 43-47.6-32 73 26" />
    <path fill="#b1b1b1" d="M583 298.4l-2.6-139-81.6-48.8 110.2 7" />
    <path fill="#73b0e1" d="M256.3 304.4L287 339l-66.7-1.2 52.3-16" />
    <path fill="#606161" d="M755.3 204.8l25-25-18.7-69.3-13.4 44" />
    <path fill="#181818" d="M649.2 557.7l17.4-2.4-8 19.5-19.8-16" />
    <path fill="#daee85" d="M355.6 601.8L342.2 435l3-205.4 21.3 193.8" />
    <path fill="#fff" d="M657.8 742l203.5 2.2L1055 759l-462.6 40" />
    <path fill="#050505" d="M660.6 143l30-2.7-8.2-48-.2 34.5" />
    <path fill="#b7b7b7" d="M690.2 72.2l11.2 106.3-9 87.8-7.4-50.5" />
    <path d="M469.8 188.2l-.2 187.7-10.6 34 1.5-346" />
    <path fill="#b0aeb0" d="M560 433.5l261 2.2 18.3-24.4-91.8 22" />
    <path fill="#6c6d6e" d="M626.7 749.5l28.7 4.8-80.5 3-2-5.3" />
    <path fill="#fff" d="M755.5 699l3.7-104.7 209.2-9-87 130.7" />
    <path fill="#212121" d="M955 26.5L975.3 38l.5 27.5-21 69.4" />
    <path fill="#fff" d="M-31 150.6l200.7 39.8-55.2 27.4 5.6-80.4" />
    <path fill="#464646" d="M478 108L488-.8l3.2 173.4-3 136" />
    <path fill="#fff" d="M285.4 251.4l80.2-38.6-230.2 140 203.2-57" />
    <path fill="#fffe79" d="M92.7 517l50.3-44.6-8.8-15.2-57 31.5" />
    <path fill="#fff" d="M739.3 706l5.5-99.4-170.5 3 90.3 104.8" />
    <path fill="#9e9e9f" d="M710.3 322V215l106 37.7-116 24.6" />
    <path fill="#f5f7f6" d="M846.7 481.2l-2 80.8 4.2 31-1-137" />
    <path fill="#050505" d="M718.5 98.2l1 8-17.5 12.5 33-2.4" />
    <path d="M841 419.5l5.6-90.4-18.3 29-4.8 6" />
    <path fill="#7398b7" d="M281 181.6l1.8 6.3-83.8-1-68.8-5" />
    <path fill="#151515" d="M733.5 174L712 163.4l-10.4 124-3-90.3" />
    <path fill="#a3a0a0" d="M831 418.4l-67.7-41 46.4-35-40.3.6" />
    <path fill="#81a2d2" d="M101.6 53.4l33.6 50.5H-30l126.8 6" />
    <path fill="#090909" d="M560.7 468.2l-12.4 9 8 75.2 4 16.3m228.2-395.2l6-8.8L814 170l-23.3 19" />
    <path fill="#b7b7b5" d="M257.2 699.2l-6.5-88.8 17.6 7.8 3 128" />
    <path fill="#707070" d="M471.5 521.8L469.3 420 503 285.3l4 280.5" />
    <path fill="#fff" d="M346 606.4l-8.6-32.2.5-86.2 2-217.5" />
    <path fill="#adaeae" d="M511.4 497.3l66-39.4-71.8-23 58.4 72" />
    <path fill="#fff" d="M140.8-13.4L-28.2-31-2 115.2l123.6-70M243 698.7L76.8 654.2 98 677l59.7-127.5" />
    <path fill="#7d7c6a" d="M485.5 702.8l-30 17.6 63.8-1.8-18.7-.3" />
    <path fill="#0e0e0e" d="M871.6 436.8l-28.7 39 33-3.8 14-39" />
    <path fill="#cbcdcb" d="M693-31l-2 161.2 39.8-3.7-30 13.3" />
    <path fill="#fff" d="M1026 647l-96 98-498.7 19 593.4 35.2" />
    <path fill="#fb916c" d="M288.3 317.8l65-16.6-53-2.4 49.2 27" />
    <path fill="#fff" d="M100.4 514l311.5 7-105 4.3L142 475" />
    <path fill="#da3b03" d="M982.6 656.8l-5.2 28-9.7-31 86 9.6" />
    <path fill="#c4c4c2" d="M841 344l9-3-2.4 101.7-3.7-98" />
    <path fill="#030101" d="M816.5 417.2l-6.8 17-25-29 23.3 1.2" />
    <path fill="#fff" d="M254.7 742.2l320 1.8-417.2 55-33.3-90.4" />
    <path d="M847.5 313.5l32 30-4-54.8-75.5 23" />
    <path fill="#fff" d="M135 340.5l-148 42L197.3 268l-45-59.4" />
    <path fill="#c28c7e" d="M848.7 293l-8.3-25.6-20.3 19-103 3.4" />
    <path fill="#646464" d="M892.7 116l82.6-46.3-25.8-9.8-6.5 52" />
    <path fill="#fff" d="M220.5 148.3l-7.5 235 63.2-177.7-223-105" />
    <path fill="#9b9a8c" d="M852.4 33.5l9.8-10-210-11.2 258-1.5" />
    <path fill="#535353" d="M1023.2 509.2l-236.5 6.3 10.6-48.2 46.5 37" />
    <path fill="#eb5832" d="M82 606l5.2 71-10.5-5.4 21-72.6" />
    <path fill="#829ac8" d="M52.6 124l71 7.5 25.2-10.6-32.8 22" />
    <path d="M877 275.6l-99 7.3 51 2 51.2-7" />
    <path fill="#39dcce" d="M344.2 254.7h43.3l-9.2 13.6-35.7-10.7" />
    <path fill="#aea306" d="M354.6 276.3l-17.8-3.5 54-2 24.8 6" />
    <path fill="#60b1e2" d="M178 205.3l46.5 17.6-47-39 29.5-9" />
    <path fill="#77b1e5" d="M258.3 248.3l34 12.4-60.3 6.5 1 1.7" />
    <path fill="#fff" d="M566.5 9l-51.3.2L49.7-31l996 40.6" />
    <path fill="#c9cecd" d="M927.7 552.7l-22.2 30 57.7 37.5-2.4 110.4" />
    <path fill="#01020a" d="M858.2 301.2l-72.4-3.7 21-25L753 285" />
    <path fill="#0e0f10" d="M872.5 107l-9.8 49.3 23 17.5-24.3 37.6" />
    <path d="M796 97.2l-8.7 19 54.3.3-21.2 1.6" />
    <path fill="#f88d3f" d="M127.5 521.2L230 533.5l-77.6 1.5-40.8-32.5" />
    <path fill="#f9ffff" d="M1000 581.8L609.5 593l412.8 51.6L984 518.4" />
    <path fill="#b2b5b4" d="M503 588.2l-64.8-32L497 559l59-27.4" />
    <path d="M845.4 239.5l-.7 34.5-12-31.8 10-140.7" />
    <path fill="#5ecccf" d="M818.6 321l-33.7-5 32-15.4-32 .8" />
    <path d="M845.8 461.7l-9.3-30.2-42.8 14.3L807 434" />
    <path fill="#51c6a9" d="M151.7 363.8l-23-20.6 82.2 19-5-8.8" />
    <path fill="#73b929" d="M148.8 477l30.2-10.6-3-22.3-8 19" />
    <path fill="#fff" d="M-31 592.8l171.8-70-.7 35.3-158-149" />
    <path fill="#9f9f9f" d="M847 278.3l4.7-51.7 170.8 11H845.7" />
    <path fill="#949995" d="M1015.7 576.8L1010 354l-15.5 240-2.6-12.5" />
    <path fill="#fff" d="M131 105.5l64.6-4L164.8 37l-41.5 20" />
    <path fill="#fafbfc" d="M332.7 714l55.5-.8 194.3-132.8-321.7 23.4" />
    <path fill="#b9b8b9" d="M920.8 241.3l1-202.3 33 201.4-31 75.7" />
    <path fill="#dd997e" d="M197 701.8l-26.3 25-11-27-33 34" />
    <path fill="#969797" d="M1023.3 18.7L848 122.7l-1.8-37 29 10" />
    <path fill="#525353" d="M462 116.6l-13.3-74-4 63.6.8 119.3" />
    <path fill="#808283" d="M655 601.5l-71.7 3-10 2.6 105-1" />
    <path fill="#fff" d="M123.8 393L264 366l39.4 157-179.8-118" />
    <path fill="#bdbdbd" d="M665.7 488l-34.5 105 1.4-105 28.8-166.6" />
    <path fill="#111211" d="M914.8 159.3l-9 26.5 71 2.5-54.8-2" />
    <path fill="#ea572e" d="M99 657l20.3 28.2 8.6.7-34-42" />
    <path fill="#f7ffff" d="M360 261l57.8 6-63.7 4-57-3.6" />
    <path fill="#1f201f" d="M553 214l28 17.4-17.8.8-9.4 19.6" />
    <path fill="#a20000" d="M755.7 626.4l-4.4-40.3-1.6 115 6.3 21" />
    <path fill="#373837" d="M1014.7 318.7l-102.3-3 59.5 12 33-12.7" />
    <path fill="#fff" d="M348 87l-238 70.3 164.5 6-127 18.4" />
    <path fill="#afafae" d="M909 404.2l-28.6 23 2-307.6 27.8 230" />
    <path fill="#70a4d5" d="M113.5 198.7L138 216l-33 27.5L94.6 227" />
    <path fill="#f27daf" d="M220.5 34.3L178.8 14 116 46l57-43.5" />
    <path fill="#cba6cc" d="M187 54.6l28.3 78-87-8.2 63.3-19" />
    <path fill="#abe1ce" d="M71 366.2l56.3-22.6L87.5 434l33-46.3" />
    <path fill="#555455" d="M572 276l-34 7.6L572.8 411l-15.3-1" />
    <path fill="#111012" d="M792.3 376.5l-33.2-41-8 29.5 63-4.5" />
    <path fill="#b9bab9" d="M732.5 379.8L745 514l5.3-15.7-2-134.5" />
    <path fill="#fff" d="M1.6 93L54 402.4l80.6 49.4-165.6 114" />
    <path fill="#b6b6b6" d="M777.8 117.5l40.6-.6-4.4 46 23-37" />
    <path fill="#fffbe4" d="M771 728.3L480 721l374.4.2 42-.2" />
    <path fill="#5d5e5f" d="M444.3 498.5l13-286.3L446 191l-.5 120.7" />
    <path fill="#bab8b7" d="M824.3 82.2l12 10.7-26.3 11 11-134" />
    <path fill="#6fa4d3" d="M27.4 181.8l111.8-1.5-123.2 14L62.8 215" />
    <path fill="#9e9e9e" d="M706.7 482.2l5.8-35.7L838 376.8l-63.8 29" />
    <path fill="#fff" d="M-31 146.4l181.3-25.7-41-22-25.6 63.8m55.6 586l59-48-67.4.7 106 31.4" />
    <path fill="#080808" d="M729.2 410.8l-32 25.6 13 5.3 2-41.5" />
    <path fill="#9f9f9f" d="M733.2 336.3L774 330l-36 24-30.4 6.2" />
    <path fill="#fff" d="M366.5 612.5l55.3-118.7-180.7-.3 124-6.8" />
    <path fill="#7c8791" d="M1004 638.2l-3.3-1-7.8 7.8-38-4" />
    <path fill="#86d4c5" d="M160.3 315.5L124 284.8l77.3-1.7-80.8 17" />
    <path fill="#fff" d="M176.5 357.3L235.3 623 297 427.4 156 366m144-87l82 1-157.3 32.3 8.4-57.8" />
    <path fill="#48d19a" d="M232.2 150.2l-1.3 6 32 6.7 27-9" />
    <path fill="#dcd3e4" d="M782.8 70.3l2.6 193 43.5-13-52 13.5" />
    <path fill="#abc1b6" d="M320.7 239.4l-26.2-2.7 46.4-21-58-4.7" />
    <path fill="#fff" d="M302 414.6L436.5 431l-132 2.6L443.2 411" />
    <path fill="#040404" d="M455 532.4l15.3-131.2-.4 173.2-5 18.3" />
    <path fill="#b0b1b1" d="M965 566.3l2.5-268.2 2.5 263-29 228" />
    <path fill="#fff" d="M352.3 715.6L381.5 353 236 320l193.4 8.3" />
    <path fill="#767677" d="M631.6 43.3l-9-18.5-16.5 12 25 138" />
    <path fill="#cf1000" d="M589 694l-.5 22.5-7-67.8-3.3 81" />
    <path fill="#f2ffff" d="M840 599.4L692.8 585l-405.3-5.5 302.4 22" />
    <path d="M956 329.8l6.7-66.6 2 24.4-2 94.8" />
    <path fill="#2b2c2d" d="M865 94l3.5-63.4 16.2 31.8-18.5 126" />
    <path fill="#b1b0b1" d="M760.2 323.8l-18-173.6L731 328.6l53.2-25.4" />
    <path fill="#a5a4a5" d="M965 339.8l3.8 109.5-1-295.2-2 80" />
    <path fill="#fff" d="M-31 211.8L86.5 209l36 176.2 20.4-4.7" />
    <path fill="#94958d" d="M433.6 719l-55 1 24-19.5 33 22.2" />
    <path fill="#fbfdfd" d="M465 235l101.6-.7L360 231l-115.3 22.8" />
    <path fill="#fff" d="M93 98.5L-31 107V-21.2L117.7-31" />
    <path fill="#989da4" d="M522.3 732.4l-255.7 11.8L271 725l-2 4" />
    <path fill="#262727" d="M950.2 529l30.3-38-11.4 95 29-17.4" />
    <path fill="#d2cfd8" d="M776.5 547.5l21 28-11 27-2-214" />
    <path fill="#fff" d="M440.3 12.6L637.5.8l-450-14.3 251.8 66" />
    <path fill="#242424" d="M907.7 497.3l6 7.2 2.7-17L886 485" />
    <path fill="#94c2f0" d="M293.2 23.6l-50 72.8 38.3-3.5-33-42" />
    <path fill="#ababab" d="M895.2 482.2l34.5 56-60-55.2 138.7 1.6" />
    <path fill="#535353" d="M501.3 162.2l5.8 46.6-8 69 2-137" />
    <path fill="#a9aaaa" d="M505.6 444.8l.3-342.5 36 286 25 40" />
    <path fill="#867e6e" d="M925.3 720l-264-2.7 35.3-6 258.2 8" />
    <path fill="#6f6f71" d="M863 428.2l2.7-52-3-31.2-17 34.5" />
    <path fill="#3d3c3d" d="M672.5 272.3l11 220.5.5-239 13.5 11.6" />
    <path fill="#fff" d="M255 743.5l-3.8-42.2-202 97.7 575.6-53" />
    <path fill="#797979" d="M583.5 218.2L556 259l76.8-30.6-4 54" />
    <path fill="#9397a0" d="M693 729.3L954 741l-174-.5-184.2.7" />
    <path fill="#fff" d="M-31 779.7L72 799l42.8-78-135.2-186.7m454-66.5l-181.3-7.3 155.6-5 10 269.8" />
    <path fill="#b8b8b9" d="M628 118l19 49.8 33.4-2-44-99" />
  </g>
</svg>