<svg version="1.1" viewBox="0 0 1024 768" width="1024" height="768" xmlns="http://www.w3.org/2000/svg">
  <g fill-opacity=".5">
    <path fill="#c3c3c3" d="M891.6 398.2l8-80.3-1.6 189-6-179" />
    <path fill="#080602" d="M805 257l4.5 9.8-28-4.6 4.2 57.5" />
    <path fill="#474747" d="M679 421.2l1 80.8 5.6-85.5-2.7-79" />
    <path fill="#fff" d="M-9.8 191.7l82.5-16.4 158-20-215.8-28" />
    <path fill="#c68168" d="M834.6 330.7l-30.8 3.2v-15l-7.6 1" />
    <path fill="#fff" d="M996.3 63.4L990.5-31l64.5 58.5-58-.6" />
    <path fill="#7a7e7f" d="M577.8 717.2l-31.6 3.6-148.3-2 21-1.2" />
    <path fill="#eae8d1" d="M570.8 732l79-9.7-57.3-3-143 3" />
    <path fill="#fff" d="M213.4 234l10.8-101.6-22.2 16 86.4 81.3" />
    <path fill="#919090" d="M810 402.7l11-43-36.5 18.6 53-6.5" />
    <path fill="#484848" d="M926.2 510.7l-67.8 1.3 76-9 33 17.5" />
    <path fill="#d08869" d="M154.7 701.7l-25-22.8-3.5 8 65.8 10" />
    <path fill="#bfc1c0" d="M739 481l.4 113-4-51.5V362.7" />
    <path d="M840.6 500l3 73.7-10.7-56.3-15-1.7" />
    <path fill="#181817" d="M461.2 580.6l34.5.5-42-3 6-48" />
    <path fill="#fff" d="M186.4 694.2L263 580.6 222.6 530l-87.8 151" />
    <path fill="#c41c05" d="M578.5 710.2l1.4-94.7 3 72.8 7 30.2" />
    <path fill="#4e4e4f" d="M445.4 239.3l-.2 119 7-139.3 21-65" />
    <path fill="#070705" d="M741 322.8l84.5-1.3-13 4-16.8 4.5" />
    <path fill="#616161" d="M658.4 607l-7 1.4-.4-5.6 13.7-3.3" />
    <path fill="#474646" d="M793.2 227.6l17 38.4-2.5-47.4-27 18.3" />
    <path fill="#ea4e27" d="M79.4 673.4h4.3L86 662l1.7-58" />
    <path fill="#fbfdfd" d="M437.8 117l-37.3 203.5 20-207.4 64.8 1" />
    <path fill="#d7cd4d" d="M786 30.4l-14-20-.7 6.6 14.4-10.5" />
    <path fill="#3d3d3d" d="M575.7 372.8l-10-2.6.4-15.2-30 17" />
    <path fill="#be9dd0" d="M262 240.7l8 1.6 41-6.4-52.2-4" />
    <path d="M964.6 95.2l-12-15.6-8.2 7.3H961" />
    <path fill="#b0b0b0" d="M881.6 460l1.8 50.8 30.5 48.6-33-27" />
    <path fill="#fff" d="M124 235.5l29.6-30.4 39.4 71-62.7 10" />
    <path fill="#1b1b1b" d="M537 446.3l15.7-3.2 13.3-4 4.4 8" />
    <path fill="#dba92e" d="M345.7 302.8l9.6-6.2 1.7 9-39.8 1" />
    <path d="M667.3 136.5l1.7-4.3 25 1.6-28 9" />
    <path fill="#5191ca" d="M164.5 221.3L147 188.7l27 30.4 12.2-10" />
    <path fill="#fff" d="M109.6-30L4.2 81.6l168.8-71 37.7 51" />
    <path fill="#f08a48" d="M316.5 343.6l-7 2.6 21 5.7 33.2-5" />
    <path fill="#909288" d="M650.2 716l-11.3-9 37 3-70 9.4" />
    <path fill="#b3b3b3" d="M980.2 334.3l16.8 136-.4-143-14.8 217.2" />
    <path fill="#89898a" d="M965.8 44.2l-.7 171.4 4 74.7 2-75" />
    <path fill="#ababab" d="M926.5 561.7l24.7-7.4-3.6-32-6-12" />
    <path fill="#0d0d0d" d="M903 171.8l15.2 15.6 1-27.4v11.7" />
    <path fill="#9b9b9b" d="M840.7 536.8l-53.7-11 10 56.2-102.3.8" />
    <path fill="#e38931" d="M368.7 466.3l-56-1.2 3.8 8 37.3-2" />
    <path fill="#bf9ce2" d="M804.8 270v1l10.5 9.4 14.7-4.2" />
    <path fill="#000c0e" d="M789 308.5l14.5-2.4 17.7 7-33.6-1" />
    <path fill="#fcfdfe" d="M848.4 565.8l-29 152-34.8-18.4 68 6" />
    <path fill="#0d0910" d="M687 259.3l-18.7 28 28.2-3.6-14.6-6" />
    <path fill="#909090" d="M556.4 179.2l-73 4.7-1-81-13.3 90" />
    <path fill="#2a2b2c" d="M872.5 64.7l-9.2-49 3 61 39-17" />
    <path fill="#666" d="M691 513l-23-29.4 1.8 63.2 2-21.7" />
    <path fill="#fff" d="M46 123.3l-34-3.5L94.3 86 30-14.7" />
    <path fill="#151516" d="M866.2 283L864 128l5 82.3 3.3 129" />
    <path fill="#aa91be" d="M208 132.3l12.8-15.2-11.2-33 .3 46" />
    <path fill="#a1a2a2" d="M680 517.7l-14.8-.2-5 64 19 .8" />
    <path fill="#fff" d="M369.6 396.2l59.2-204.8 4.7 215.5-164.4-6" />
    <path fill="#090909" d="M825.5 491.3l-29.6-1 36-7.2-2-15" />
    <path fill="#b1aeb0" d="M888.5 298.8l61.7-25.3-35.6 19-41.8-46.4" />
    <path fill="#6e6e6e" d="M735.5 577L733 384.6l-3.7 44.3.4 109" />
    <path fill="#fdffff" d="M376.3 409.6l-9 16 86-6.4L293 419" />
    <path fill="#b5b1ba" d="M964.8 279l-56.8-6.8 34.3 19.7-39-2" />
    <path fill="#fff" d="M387 364.6l-77.4 8 127 2.6-19.2 351.2" />
    <path fill="#bdbdbd" d="M848 197l3 68.8-4.7-12.2-1.7-23" />
    <path fill="#f29751" d="M160.8 537.7L112.3 506l46 22 14.2-2.3" />
    <path fill="#373737" d="M658 583l-14.4-27 11.3 1 5-36" />
    <path fill="#878787" d="M770 458.3l-.5 6.8-92.5 72 93-96" />
    <path fill="#606060" d="M910.3 419.3L921 573v-55l-.5-95.4" />
    <path d="M701.7 372.4l-.3 210h10L704 578" />
    <path fill="#fffffd" d="M284.6 476.3l118.7 4-52.7 15.4 26.6-24.6" />
    <path fill="#262626" d="M895 477.7l19.5-4-21.3-2.2-19.8 1" />
    <path fill="#b6b6b6" d="M956 127.7l-54.3-16.3-29.3 19.4 61-.3" />
    <path fill="#fff" d="M173 216.2l10.8-20.7-18-7.7-.8 19.5" />
    <path fill="#e2933f" d="M335.5 519l-24.4-4.6 11-4.6 47 3.2" />
    <path fill="#020101" d="M845.4 345.4L843 447l.4 3.3-8.7-114" />
    <path fill="#acacab" d="M535.8 582.6l-45.6-45-48-.4 89 15.5" />
    <path fill="#e9a959" d="M308.6 533.5l60.4-3 6.5-1.3-53-7" />
    <path fill="#6c6768" d="M299.2 234l9.2-.6 10.2.2-11.6 5.6" />
    <path fill="#212121" d="M448.2 42l42 3.8L449 28.3l41-1" />
    <path fill="#aeafae" d="M629 234.7l50.3-15.6-76.6 22-97-8" />
    <path fill="#7b7a7b" d="M631 310.2l-1 176.6-16.8-198 17.5-68.5" />
    <path fill="#fffefd" d="M343 556.2V365.5l-7 152.2 5.4 140.8" />
    <path fill="#82786b" d="M567.5 716.4l-13.6-17-2 18.3 116 2.3" />
    <path fill="#050505" d="M960.3 54.7l.5-13 1.6 21.6 32.4 3.7" />
    <path fill="#ec6948" d="M96.8 608.8l-8.3-7.8 8 .3 16.3 17" />
    <path fill="#ce9360" d="M158 709.3L147.6 725l-25.6 3 14.5-5" />
    <path fill="#c1f3e4" d="M559.4 590.2l201-1.3-188.4-7-126.3 4" />
    <path fill="#b9b9b9" d="M926.4 506.6l-46.4-2 2.2-2.5 62.8 2" />
    <path fill="#717071" d="M975.2 645.7l24-6.8h-15.7l-16 4" />
    <path fill="#4ec1a4" d="M147.8 352.8l13.2 3.7-12.7 19.3 25.6 6" />
    <path fill="#1a1a1a" d="M545 76.6l1.6-2.3-2.5 13 29-5" />
    <path fill="#cda1d1" d="M794 285l3 9 26.4-3 22.6-1" />
    <path fill="#fbfbfc" d="M628.8 599l27 90.7-18.6 27.7-44.5-15" />
    <path fill="#545454" d="M485.7 528l-1.6-24.4 3-233 6 182.2" />
    <path fill="#fffffc" d="M405 573.5L364.2 435l2.3 127.7-88 3" />
    <path fill="#feffff" d="M129 365.2l194.2-68 46.3-.4-84.6-19.6" />
    <path fill="#070300" d="M806 326l72.7.7 2-63.2-25 54" />
    <path fill="#070707" d="M471 306.8l-1.3 68.8.2 194-13-137" />
    <path fill="#fff" d="M171.4 459.3l-23 12.2-15-29.4 30-6" />
    <path fill="#a3a3a3" d="M565.8 382l-68-12.6L607 350.8l-78 3.5" />
    <path fill="#a3a3a4" d="M804.7 191.5l-16 41.3-5.6-46.5 48 2.5" />
    <path fill="#f2d19e" d="M688 731l88.5-4.5-79-2.3-97 .5" />
    <path fill="#d9b045" d="M363 489.5l-44.4-9.5 50 1.8-19 22.4" />
    <path fill="#b5a7ca" d="M213.6 52l-24.2 29.4 6-33 25.7 46" />
    <path fill="#809bc7" d="M110 82.5l-18 22.2-14.4-3 12 21" />
    <path fill="#6cc7a0" d="M104 420.3l13.7-46.8-40.8-.2 51 15.7" />
    <path fill="#fcfefe" d="M195.4 470l125.8-39-131-64.4 18-6.8" />
    <path fill="#d3cf5e" d="M339.3 422.8l30.2-18.3L342 406l34 22.7" />
    <path fill="#fafafa" d="M298.6 673.4L317 729l-47-392-.2 366.4" />
    <path fill="#0c0700" d="M827 282l2.2 34 6.4-72.5 9.2-14.2" />
    <path fill="#fefefb" d="M329 428l113 2.5-74 3.5-69-1" />
    <path fill="#fff" d="M193 60.7l-17.5-20-55.3 14 39.4 51.7" />
    <path fill="#949693" d="M656.5 9.5l74.2 9h134.7L869 13" />
    <path fill="#fff" d="M62.7 201.4L73 145l164.2.4-210.2 47" />
    <path fill="#fbffff" d="M210.5 186.7L-31 119.4l225.3 43.8L205 253" />
    <path fill="#fff" d="M368.3 381.2l-4 121.8 56-115-195.2 1.7" />
    <path fill="#3c3c3c" d="M803.3 519l4.7 62 3-17.8-1.2-168" />
    <path fill="#434242" d="M802 71l8.8 22.2-.2-31-2.6-41.8" />
    <path fill="#c8c833" d="M343.4 498l18.3-3.7 2.6 4.5-11 6.4" />
    <path fill="#70abe5" d="M283 51.2l-5 28 3.5-18.3-36.5-1" />
    <path fill="#151515" d="M802.3 186.5l-5.3 4.2-8.3-21.3 12.2-1.8" />
    <path fill="#d48358" d="M116.6 737.6l-5.4-64.4 4.3 4.6-10.7 9" />
    <path fill="#f6ffff" d="M206.2 28.3l-7.3 43 1 52.5 8-43.7" />
    <path fill="#669fcf" d="M63 191.8l41.6-10.6 21 52L93 176.6" />
    <path fill="#7e7d7e" d="M704.7 329l28.8-119.8L704 241l10-44.5" />
    <path fill="#b2b2b2" d="M881 557l27.2-43.5-5.5 40.5 49.4-.2" />
    <path fill="#ed5f3d" d="M119.2 684.3l-11-17.6L95.4 599l8 69.8" />
    <path fill="#bbc0bb" d="M480 26.5l2.5-57.5-5 94.6-9-94.6" />
    <path fill="#a9adac" d="M402 107.2l58 39.3-1-26.8-8.7 20.8" />
    <path fill="#100f11" d="M699.3 268.8l2-60.2 12 76.6h16" />
    <path fill="#abaaaa" d="M749 337l-17.4-8 2.4 30 14 9.4" />
    <path fill="#c1c2c0" d="M740.4 63.6l14.6-44-19.3 7 2 239" />
    <path fill="#5d9bd6" d="M188 190.7l19.6-8 63.7.8-127-1.5" />
    <path fill="#f9f462" d="M80 492l44-22-35.4 12 4.8 33" />
    <path fill="#bbb" d="M616.2 558.5L573 584l22.8-234.8 11 232" />
    <path fill="#c9c9c9" d="M509 510l-.8-195.4-1.6 200.2 27-56" />
    <path fill="#61cbdb" d="M219.7 256l-8.2 8.4 1.8 27.4-6-103.7" />
    <path fill="#999" d="M699 413.8l19-23 86 8.6-46.3-17" />
    <path fill="#e2d9e8" d="M780.7 63.2l1.4 134.2L784 54l-1-31.8" />
    <path fill="#84a2cc" d="M125 49l-5 57-4.8-48.6-20 2" />
    <path fill="#0a0a0a" d="M568.8 186.4L542.3 171l22 1.2-17.4 13.5" />
    <path fill="#535353" d="M559 239l74 8-65.8-.4-12.4-2.4" />
    <path fill="#0d0e0d" d="M916.6 290.4l5.4 5.3-2.2 11.6-16-7.3" />
    <path fill="#fff" d="M303.3 175l-87.5-.2 185.8 17L380 61.6M951 727V579.4l-8.6 217.3 112.6-107" />
    <path fill="#91949a" d="M604.5 737.7l36.7 3.7L661 732l-49-1.8" />
    <path fill="#222423" d="M887 543.3L862 557l11 36-9-54.8" />
    <path fill="#858586" d="M866.3 441.4l-169.6-14.6 165 12.6-28.3 36.8" />
    <path fill="#cf9668" d="M119 729.2l-10 14.2-10.8 6.2 22.2-31.5" />
    <path fill="#0d0d0d" d="M873.7 41.5l-7-6-2.7 39 2.6 19.2" />
    <path fill="#a8a8a8" d="M695 436.2l4 71.6-23.7-66.8-39.6 132.6" />
    <path fill="#f08f3f" d="M169.4 548l-18.7-5.4-5.3 11 23-2.8" />
    <path fill="#131111" d="M558.6 112.6l-1-106-2.4 97.5 30.8 8" />
    <path fill="#ed82b1" d="M155.6 16l-30.8 17.7 25-2L195-11" />
    <path fill="#6dd9af" d="M275 178.3l-15-12.8 22.7 10-.4-44" />
    <path fill="#c0c3c2" d="M748.6 579l.3-201.5-5 217.3-27-59" />
    <path fill="#aaafae" d="M457.6 471l-35-1.5 17 2.7 21.5-15" />
    <path fill="#ea9652" d="M315 384l51-5.8-32.7-5.6-24 3" />
    <path fill="#7e7e7e" d="M618.3 95.7l-3.6 48.6 15.4-127 2 208.3" />
    <path fill="#aaa" d="M864.8 91.3l88.2-.8L931.7 76l-14.4 2.8" />
    <path fill="#afafaf" d="M540.7 77l30.3-8.4 94.7-12-85.8 19" />
    <path fill="#cccbcc" d="M523.5 263l.3 27.5 68-.4-86.3-5" />
    <path fill="#e6db99" d="M454.8 279l-21 5.3 6 12.8-8.8-23" />
    <path fill="#bbbcbb" d="M649.7 29.6l47.7-5.2-67 3.5 2 134" />
    <path fill="#86c23c" d="M138.8 452l-33.4-30.2-13.3 6.8L81 413" />
    <path fill="#686867" d="M616.4 560.4l-2.6-16 1-353.4 8 351" />
    <path fill="#fff" d="M1034.4 32.3l-16.8 247.2L1016 427l6.2 152" />
    <path fill="#f1fcfc" d="M179.3 355.2v21L4 326.2 154 364" />
    <path fill="#a2ddd1" d="M118.7 365l-11-8.4 48.6-15L112 344" />
    <path fill="#c3c3c4" d="M788.6 234h133.8l-88.4.8-60.8 2" />
    <path fill="#fff" d="M132 678.8L264 557l-114.3-2.4-47 96.8M259 47.4l97-2.2-67.2 6-99 .2M35.5 203.7l49.3 534 34.4 37-150.4-4.2" />
    <path fill="#9c9f8d" d="M622.6 707.6l-1-2-21 4.7 22.8 8.2" />
    <path fill="#e99051" d="M365.3 408.3l-52.2-5 1 11 22-2" />
    <path fill="#fff" d="M189.7 716l71.2 65.5-115 9-17-55" />
    <path fill="#fbfcfd" d="M820.6 719l49-38.5-101.4 17-11.4-81.8" />
    <path fill="#fff" d="M143 691.6l-34.6-7.2 24 40.5 19-19m108.2 93l339.7-43-372.7-5 27-76" />
    <path fill="#eaa05d" d="M369.8 576.4l-7.5-8-54.2 11 5-11.5" />
    <path fill="#b5b5b5" d="M658 188.5l-50.7-1.6-44.4 3 107 1" />
    <path fill="#989899" d="M927.7 365.8l33-2.3L872 389l-1.3-16" />
    <path fill="#939494" d="M990 591.8l-10.2-29.6-85.2-50.6 48 6.8" />
    <path fill="#b8b8b8" d="M511 133l36 33.2 58-1.5-59-2.2" />
    <path fill="#fff" d="M492-31l-92 85.7L310.8 13l-169-9.7" />
    <path fill="#e99349" d="M371 426.3l-47.7.4-17-5 29-3.2" />
    <path fill="#030303" d="M705.8 170l-4-34.5-1.8 63 1.3 47" />
    <path fill="#babc9e" d="M583.3 695.2l11.6 5-23 52 16-24.6" />
    <path fill="#ffffe7" d="M748.6 659.8l-.2 36 .2 19.7-10.6-100" />
    <path fill="#535353" d="M848.3 387.8l28.6 40 40-4.2-61-6.5" />
    <path fill="#ddeec9" d="M125 425.6l-42-17 41.4 26.8L151 460" />
    <path fill="#434443" d="M684 346.8l-21-12.3 16.6-12 11.5-1.2" />
    <path fill="#fff" d="M123.6 418.2l31.8-40.8 97.4 32.7-109.3 22" />
    <path fill="#9b9e9b" d="M803 19L590.6 8 811 345.5 598 19.2" />
    <path fill="#101010" d="M551.3 231.8l22.4-2-28.4-5.8 16.6-8" />
    <path fill="#d1f6e4" d="M722.6 592.7L674.8 582l72.6.7 158.2 6.8" />
    <path d="M460.4 78.4l6.6 121.3 2.5-40.6 1-122" />
    <path fill="#f9fefd" d="M302 418l118 2-143-9.7L98.6 263.8" />
    <path fill="#a5a5a5" d="M488.2 452l-1-15.7 12.6 30-2.3-99.2" />
    <path fill="#9e9f9e" d="M855.3 583.2l18.7-.3 96-1-46.5-9" />
    <path fill="#ff6b4d" d="M308 263.6l25-1.3 3-7.2-31.3 7" />
    <path fill="#d09d70" d="M132.7 735.8L127 764l-2-34.5 27.2-13.2" />
    <path fill="#6c6c6c" d="M446 294.6L444.3 399l9 154 2.7-154.6" />
    <path fill="#abaaaa" d="M925.7 425.2l-34.5 5.2 59.4 4-32.6 52.2" />
    <path fill="#868686" d="M1004 591.6L965.5 541l1.3-42.4 7.8 54.5" />
    <path fill="#050404" d="M768.6 324.3l-1.7 44-20-17.5 43-28.3" />
    <path fill="#f9f9fa" d="M763 671.3l251.7-80-256.8 107-6 100.7" />
    <path fill="#8f8f8f" d="M700.7 178l8.5-6.5 2.7 67.8 18-38.2" />
    <path fill="#fffff8" d="M344.3 303.6l-4.7-63.4-3.6 106.6 4.5 84.4" />
    <path fill="#fff" d="M122 489.2l34 42.8 111.4-74.4L135 481.8" />
    <path fill="#b3b3b3" d="M699 160l-2.7-27.3-10.7 29.6 6.8 106.3" />
    <path fill="#6da3d2" d="M86.8 209.6l28.7-4.5-21.8 31 30.5-67" />
    <path d="M564.6 108.5l-6-13-10 9.8-2.5 7.2" />
    <path fill="#f8f9fe" d="M240.7 80.6l55.2 1.6-29 20 57-6.2" />
    <path fill="#d27f1f" d="M844.8 270l2 11-14.6 20 2.2-32" />
    <path fill="#959596" d="M777.3 394.7l87.6 19-2 4.3-40-5.4" />
    <path fill="#c395c0" d="M199.8 107l-6 2-3.8-33 2.4-52.4" />
    <path fill="#9e9e9f" d="M712.5 194.4l3.8 83.7 122.3-29-128 29" />
    <path fill="#7a7a7a" d="M636.6 32.4l-10.2-.6-19 120 2.4-125.2" />
    <path fill="#666" d="M503.6 336.6l-1.5-60.8-4 53 95 6.8" />
    <path fill="#2b2a29" d="M782.4 374.3l27-32-5.2 100.5 2-77.3" />
    <path fill="#999" d="M690.3 317.8l-45-37.2 28.7 33.7-134 11.2" />
    <path fill="#060606" d="M867.5 379.6l-3.5 10 5.7 75.8 7 1.4" />
    <path fill="#aaabab" d="M882.5 468.8l60-21-72-1.2L911 471" />
    <path fill="#5a5a5a" d="M505.2 178l-1.4-124.6L499 225l3.8-29" />
    <path fill="#fefff8" d="M363.3 503l-94.7 3.5 117 3.4-20.4 83" />
    <path fill="#747575" d="M542.6 582.6l4-115.7 4.4 116 24.8-7" />
    <path fill="#5d5d5d" d="M503.6 466l-4.2-42.7 1-111.4 5.4 98" />
    <path fill="#b7b7b7" d="M511.8 470.5l68.8-5-45-13-24.5-61.7" />
    <path fill="#b3b3b2" d="M594 342.3l-75 7 4.7-12h31" />
    <path fill="#e88537" d="M307 457l10.4-8.5 29.4 4 15.8 2.7" />
    <path fill="#747474" d="M771.2 140l-12.8 129 .6-146 12-88" />
    <path fill="#da8274" d="M214.4 709l-52 14.8 17-15 33.7 13.5" />
    <path fill="#ec9b62" d="M335 375l-13 14.6 54 5.2-73.3 3.4" />
  </g>
</svg>