<svg version="1.1" viewBox="0 0 1024 768" width="1024" height="768" xmlns="http://www.w3.org/2000/svg">
  <g fill-opacity=".5">
    <path fill="#2c2c2c" d="M920 475l-15-67 1-5 14-22" />
    <path fill="#bfc0bf" d="M575 9l31 10-4 135-25 15" />
    <path fill="#fff" d="M1016 130l11-142-3 806-8-247" />
    <path fill="#060707" d="M705 544l5 16-12 30 6-242" />
    <path fill="#fff" d="M171 551l-12-67-51 17 83 41m53 119l-140-37 1 26 52 46" />
    <path fill="#e39f45" d="M366 556l-4 6-61-1 38-8" />
    <path d="M844 446l-7 11-3 117 11 15" />
    <path fill="#363637" d="M644 70l20-7-2-2-15-1" />
    <path fill="#070504" d="M855 271l13 119 10-124-73-1" />
    <path fill="#0e120d" d="M696 336l77-13 55-3 72-1" />
    <path fill="#bababb" d="M820 446l-13 21h-41l68 5" />
    <path fill="#acb4b2" d="M809 586l14-102 3 108 41-14" />
    <path d="M833 46l11 121-1-135-12-5" />
    <path fill="#e4e7de" d="M998 304l-2-270-2 239 2 71" />
    <path fill="#b1b1b1" d="M575 189l-57-6-7 24 124-1" />
    <path fill="#202021" d="M878 480l-12-100 5 95 90-5" />
    <path fill="#3d3d3d" d="M626 216l-23-41-53-7 73-2" />
    <path fill="#060506" d="M724 277l6 39-19-11 21-21" />
    <path fill="#eea66e" d="M317 565l57 12-63 4 6-53" />
    <path fill="#e6e1d0" d="M1001 24l-121 4-69-2-9-10" />
    <path fill="#191919" d="M554 120l7-79-11 47 28 20" />
    <path fill="silver" d="M474 351l5 148-1-167 1-111" />
    <path fill="#59cadc" d="M200 193l-5 108 6 14-13-67" />
    <path fill="#a7a8a7" d="M756 438l-9 136-40-70 5 62" />
    <path fill="#505151" d="M537 131l19 12h-31l17-18" />
    <path fill="#b0110e" d="M750 609l-2 60 8-14-3-32" />
    <path fill="#212121" d="M733 509l-9 11-16-14-12-4" />
    <path fill="#6d6d6d" d="M712 275l9 92 32-16-48 71" />
    <path fill="#ba9a4f" d="M308 720l-14-39-34 40v-2" />
    <path fill="#fff" d="M443-31l-12 299-103-31 25-102m-95-4L218-31l1 167h92m-324-31l-7 267 132 37-15 13" />
    <path fill="#3abcd5" d="M209 288l3 32 3-99-3-28" />
    <path fill="#a7a7a7" d="M808 407l24-32-23-10 33 54" />
    <path fill="#fff" d="M261 512l159-7-142-3-133 98" />
    <path d="M815 172l28 12-6-171-1 153" />
    <path fill="#949996" d="M993 10v11l-166-4 117-8" />
    <path fill="#090909" d="M560 569l-1 13-4-1V466" />
    <path fill="#7b7e74" d="M302 32l45-5-43-3h-63" />
    <path fill="#adb1af" d="M922 568l-39 6 39 14 61-25" />
    <path fill="#91abd4" d="M116 46L94 67l36-22-14 62" />
    <path fill="#191719" d="M777 436l-35 2 21 4 78-5" />
    <path fill="#28cb8c" d="M247 142l30-6 5 8-25 1" />
    <path fill="#b2afac" d="M592 9L467 75l95 3-57-67" />
    <path fill="#fff" d="M282 159l-110 5 202 82-156-45" />
    <path fill="#ff6045" d="M299 265l-6-9 26-2 21 3" />
    <path fill="#7a9cc8" d="M48 128l55-2-100-9 25 14" />
    <path fill="#94cc62" d="M146 430l-12 33-9-24 65-6" />
    <path fill="#686868" d="M570 478l-106 93 89-93 24 78" />
    <path fill="#a58e61" d="M744 701l38 5-4-18 28 28" />
    <path fill="#fff" d="M988 8L681 7l331-38 43 107" />
    <path fill="#939393" d="M873 74l-3 14 31 29 28-86" />
    <path fill="#fff" d="M397 534l-42 6-72-2-17-6" />
    <path fill="#1d1d1d" d="M515 96l-52-22-11 15 39-14" />
    <path d="M804 362l34 12 3 148 2-160" />
    <path fill="#202020" d="M863 582l65-25-58-1 1-45" />
    <path fill="#e5c8ff" d="M794 290l11 1 22-2-8-5" />
    <path fill="#fff" d="M105 331l82 23 70 1-66-50m-28 135l-19 1-17 37 43-23m190-6l-4 1-93-5 156-4" />
    <path fill="#ffdead" d="M96 578l-16 1-4-28 43-22" />
    <path fill="#959a97" d="M511 19l-86-5 39-4 281 3" />
    <path fill="#9d9c99" d="M835 270l-1-85-14 2-12 45" />
    <path fill="#d2cad7" d="M672 282l3-23-17 14-76 7" />
    <path fill="#a2a2a4" d="M712 76l-4-45 90-1 9 35" />
    <path fill="#f1e6d5" d="M740 26l-135-8-239 3 169 6" />
    <path fill="#f67d00" d="M970 694l-2-17 5-17 11 23" />
    <path fill="#090600" d="M843 344l53-12-94 4-53 3" />
    <path fill="#c1bc21" d="M343 285l43 3-41 6-4-12" />
    <path fill="#c1c2c5" d="M420 55l-119-3-35 11 131-1" />
    <path fill="#2f83ca" d="M103 188l20-16h26l-23 7" />
    <path fill="#d87262" d="M204 720l-35 1 37-28h-36" />
    <path fill="#60c592" d="M160 383l-73 21 30-30 1 8" />
    <path fill="#ee5b39" d="M99 638l-3-8 11-36-7 66" />
    <path fill="#fff" d="M247 507l-146 35 41 11 52-139" />
    <path d="M956 549l8-238 1 105-1 107" />
    <path fill="#9c9c9c" d="M847 523l59-48-46 50-15-74" />
    <path fill="#afadb1" d="M474 282l133 7-105 5 86-43" />
    <path fill="#cc8cba" d="M214 146l-8-123-83 19 92-18" />
    <path fill="#f27aad" d="M188 51L176-6l23 40-41-4" />
    <path fill="#414141" d="M687 454l-8 16v86l4-16" />
    <path fill="#b2b1b2" d="M503 554l39-31 5 61-107-23" />
    <path fill="#4287c2" d="M57 208l-38-12 88 12-27-9" />
    <path fill="#ecefe9" d="M447 721H261l112 10-30-5" />
    <path fill="#d2d3d2" d="M893 547l6 38v-87" />
    <path fill="#fff" d="M122-31l385 58-253-5 5 34" />
    <path fill="#8cd8c6" d="M107 303v-2l-6-54 15 23" />
    <path fill="#010101" d="M568 164l12 18-16 7-10-20" />
    <path fill="#3ebc9b" d="M181 381l-47-6 45-1 41-4" />
    <path fill="#464646" d="M943 94l-32 17 34 3-16-25" />
    <path fill="#6a6a6a" d="M664 227l-8 45 37-47h23" />
    <path fill="#aeaeae" d="M540 571l72-37-69 4 61 20" />
    <path fill="#fcfcfc" d="M552 604l-18-12-268-16 182 157" />
    <path fill="#fff" d="M624 714l-37-123v95l165-2" />
    <path fill="#898989" d="M969 198l1-54-3-38-2 57" />
    <path fill="#afadaf" d="M955 246l-3 70-71-80 35 13" />
    <path fill="#b2b3b1" d="M980 538l3 17 26 3-26-41" />
    <path fill="#040404" d="M963 71l2 43-1 27-9-35" />
    <path fill="#818181" d="M871 429l136-4-128-6 9-144" />
    <path fill="#c9c4cd" d="M770 412l25 15-13 21 2-113" />
    <path fill="#dc705f" d="M213 711l4 3-1-15-20-12" />
    <path fill="#fff" d="M190 278l-1-52-58-9-23 28" />
    <path fill="#f2e6c8" d="M824 32L653 19l87 1 108-1" />
    <path fill="#63cbd4" d="M154 291l45 4-49 23 51-42" />
    <path fill="#c7c7c7" d="M928 615l-3-147 2-165 3 62" />
    <path fill="#b2b3b2" d="M694 12l3 88-20-47-3 43" />
    <path fill="#323232" d="M706 482l-5 26 16-42 21 17" />
    <path fill="#161616" d="M964 549l-9 12 12 20-22-22" />
    <path fill="#fff" d="M157 375l106 102-149-69 35-23" />
    <path fill="#fffcf6" d="M91 647l-3 23 84 40-39 2" />
    <path fill="#cdcdcd" d="M898 375l2-318 9 67-14-86" />
    <path fill="#fff" d="M257 135l-88 50-64-30 34-28" />
    <path fill="#a1a1a1" d="M792 507l34-8-11 10-29-25" />
    <path d="M808 472l-13 1-6 8h14" />
    <path fill="#ff8a72" d="M336 359l-25 10 16-33 9 227" />
    <path fill="#9e9f9e" d="M980 704l22-4v10l-25-3" />
    <path fill="#484748" d="M490 238l-10 8 8 212 3-215" />
    <path fill="#c8f4e7" d="M954 583H754l230 13-4-15" />
    <path fill="#fffefc" d="M128 187l14 18-88-17-61 12" />
    <path fill="#010101" d="M457 89l-7 19 20 24V31" />
    <path fill="#959696" d="M492 91l70-2-19 17-52 7" />
    <path fill="#fff" d="M337 388l-94 3 109-10 57 11" />
    <path fill="#a8a7a5" d="M839 131l-12 1-9 144-5-109" />
    <path fill="#9a9d9b" d="M918 45l90 4 7 85-14-73" />
    <path fill="#7bbd35" d="M180 453l-10-18-41 2 25-5" />
    <path fill="#545454" d="M849 445l3-132-21-2 37 73" />
    <path fill="#fff" d="M210 464l6-189 54 205 96-3" />
    <path fill="#ef8c4a" d="M303 314l75 4-76 5 4-10" />
    <path fill="#7db1dc" d="M285 326l-2 25-1-12-59-8" />
    <path fill="#555556" d="M499 276l7-52-2 225-4-87" />
    <path fill="#fafffc" d="M272 397l85 9 106 10-93-19" />
    <path fill="#050505" d="M710 45l-8-17-3 71 11-10" />
    <path fill="#d8bf84" d="M1014 284l-60-4 6-2 65-4" />
    <path fill="#606060" d="M456 553l-12 36 2-61 10-114" />
    <path fill="#fefefd" d="M218 718l-19 81 11-98-45-1" />
    <path fill="#fff" d="M428 229l-58 123-152 5 155 3" />
    <path fill="#0f0f0e" d="M971 67h-20l31-39-24 1" />
    <path fill="#fff" d="M947 784l-10-191-25 104 142 56" />
    <path fill="#909190" d="M488 331l-53-12 163-8-68 29" />
    <path fill="#b1b1b1" d="M499 364l1-55-9 9 1 177" />
    <path fill="#bfb7c2" d="M501 278l71-4-59 11-87-10" />
    <path fill="#b5b5b5" d="M628 193l54-6-31 56-8-207" />
    <path fill="#9ba39d" d="M824 736l119-12-9 16-30-3" />
    <path fill="#fff" d="M81 405l23-25-135-12L76 757" />
    <path fill="#fffffd" d="M290 372l103 4-41-10-161 15" />
    <path fill="#fff" d="M346 563l-202 2-34-4-2 58" />
    <path fill="#979797" d="M712 411l-17 10-16-79-32 12" />
    <path fill="#898989" d="M719 329l-20 15 8-15-2-14" />
    <path fill="#101010" d="M654 165l2 3 14 17 21-4" />
    <path fill="#3c3c3c" d="M690 125l-12-9-8 4-3-23" />
    <path fill="#171518" d="M572 285l-14-5-21 6 2 2" />
    <path fill="#fac47f" d="M77 500l92 32-53-28-9 18" />
    <path fill="#0a0405" d="M877 335l-30-35-78-7h110" />
    <path fill="#494949" d="M706 354l21 25 40-18-36 7" />
    <path fill="#bb7322" d="M742 717l3-32 7 25 10 11" />
    <path fill="#a7a9a8" d="M981 126v181l33-280-1 172" />
    <path fill="#d7d36a" d="M368 362l-3-4-6 85-12-85" />
    <path fill="#b3b3b3" d="M480 483l-2 81-2-115 8 41" />
    <path fill="#969796" d="M710 157l27 81-34-60 38-30" />
    <path fill="#d7945e" d="M109 764l-7-12 34 11-3-2" />
    <path fill="#afafaf" d="M917 470l-14-28-42 45-6-14" />
    <path fill="#e8a654" d="M365 547l-48 1-11-9 64 1" />
    <path fill="#9a9d95" d="M1005 274l7-94 4 323-14-44" />
    <path fill="#fff" d="M834 607l221-6-366-12-37 27" />
    <path fill="#f5eef1" d="M285 294l35-205-45-86 8 15" />
    <path d="M918 401l4 7-11 18-3-22" />
    <path fill="#fff" d="M395 554l-78 1-48-3 138-6" />
    <path fill="#f464a1" d="M142 50l-17 4 37-23 1 7" />
    <path fill="#1e1c1c" d="M810 341l-2 19-33 11 35-1" />
    <path fill="#c08994" d="M839 276l-40 4 12-7 51-3" />
    <path fill="#5b5b5b" d="M921 62l-11 101-1-63 6-64" />
    <path fill="#fff" d="M108 223l39-19-5-18-8-12" />
    <path fill="#9e9e9f" d="M806 129l-198-2 186 7 3 35" />
    <path fill="#a6aaa9" d="M432 26l49 35-7-16-13 8" />
    <path fill="#262726" d="M544 296l20-7-6 37-7-40" />
    <path fill="#adaead" d="M923 6l-2 73 85-10-78-3" />
    <path fill="#9884b9" d="M213 128l-79-8-24 21 35-14" />
    <path fill="#fafffd" d="M340 332l-168-27-90 121 109-102" />
    <path fill="#c0c1c1" d="M861 568l2-90 2 111 8 71" />
    <path fill="#fff" d="M157 346L32 315l356-2-74-5" />
    <path fill="#95ca53" d="M166 474l-40-12 30 19 30-36" />
    <path fill="#fff" d="M13 502l87 112-11 4 6-31" />
    <path fill="#222322" d="M995 561l-10 23-8-74-4 44" />
    <path fill="#282727" d="M789 509l23 33-3-27 27-7" />
    <path d="M958 237l6 17 1 73-4 92" />
    <path fill="#5a5a5a" d="M756 236l16 85-22 8 23-87" />
    <path fill="#636466" d="M862 94l-6 87-1 101 11-81" />
    <path fill="#fdfdfe" d="M579 666l-58 50-42-10 91-87" />
    <path fill="#fff" d="M134 49l61 17-101 41 16 27" />
    <path fill="#272727" d="M702 194l-3-111 1 105 46-13" />
    <path fill="#ee603c" d="M90 691l-3-13 33 18-41-28" />
    <path fill="#919495" d="M862 127l-2-101 4 9 3-66" />
    <path fill="#77bcda" d="M193 243l29-49-55 29 27-36" />
    <path fill="#fff" d="M83 445L70 250l42-45-143 26" />
    <path fill="#83917a" d="M339 31l-32 2 13-11 17 2" />
    <path fill="#959e9c" d="M458 404l2 23-21-26 4 13" />
    <path fill="#fafeff" d="M433 340l-170 1 126-28 75 28" />
    <path fill="#060200" d="M835 249l1-220 5 250-7-47" />
    <path fill="#343434" d="M920 363l-7-4 5-155 3 87" />
    <path fill="#212121" d="M797 91l25 26h-39l5-21" />
    <path fill="#d3c6d3" d="M785 349l-3 270-3-308 9 69" />
    <path fill="#fff" d="M395 67l-76 3-83 4-31-15" />
    <path fill="#87d0bb" d="M338 218l-4 9-45-7 2 3" />
    <path fill="#b2b4b3" d="M700 466l-15 90 3 37 10-32" />
    <path fill="#a5a5a5" d="M911 225l41-124 3 114-48-30" />
    <path d="M959 240l5-146 1 167-2 26" />
    <path fill="#fff" d="M964 581l-6 67 5 120 7-124" />
    <path fill="#7d7d7d" d="M242 619v116l-4-94 5-38" />
    <path fill="#72abdd" d="M195 179l33 24-20-28-24 18" />
    <path fill="#a3a3a3" d="M711 436l66-14 70 9-135-4" />
    <path fill="#f9fafb" d="M243 582l1 121 22-10 3 104" />
    <path fill="#020202" d="M616 207l26 11-19 6-26-4" />
    <path fill="#040405" d="M841 100l-17 4-2 10 17 9" />
    <path fill="#6c7277" d="M332 713l66 6-66-1-8-8" />
    <path fill="#7c7c7c" d="M771 568l1-143-20 130 136 10" />
    <path fill="#fff" d="M163 549l-78 48 153 41-2 115" />
    <path fill="#c0bfbf" d="M944 721l18-93 8 4-26-23" />
    <path fill="#a9a9a9" d="M614 50l-52 114 34 9 17-13" />
    <path fill="#a1968e" d="M229 183l25 6 23-1-5-9" />
    <path fill="#7e7f7f" d="M748 198l12-170 20 81-2 8" />
    <path fill="#ac8cbd" d="M137 106h77l-78 10-26-26" />
    <path fill="#f18e3f" d="M176 554l42-7-50 1-5 5" />
    <path fill="#646464" d="M493 532l24-15-15-28 5 82" />
    <path fill="#40bd9a" d="M153 351l63 14-16 15 11-24" />
    <path fill="#524b4d" d="M282 33l-6-10-15 4-7 6" />
    <path fill="#030304" d="M469 276l-8-38-1 39 11 144" />
    <path fill="#57eeba" d="M808 313l26 5-38 1-10-1" />
    <path fill="#e5e6e6" d="M849 63l-5-85 4 163 1-50" />
    <path fill="#b5b6b6" d="M541 203l-32-59 45-2v-32" />
    <path fill="#2b2a2c" d="M790 417l17-7-43 13-12-7" />
    <path fill="#fff" d="M569 799l5-57h-69l-353 7M50 243l114 8 28-50 1 39" />
    <path fill="#a5a8a8" d="M700 287l-18 1 3 5 81-4" />
    <path fill="#fffffc" d="M354 325l87-43-99-5 37 9" />
    <path fill="#a69260" d="M904 694l-10-4 2 34v-7" />
    <path fill="#b0aba7" d="M778 303l9-65 17 28-32-15" />
    <path fill="#f28a36" d="M171 521l-23 35-43 1 33 6" />
    <path fill="#7695c4" d="M116 134l-54-6 33-8 10 19" />
    <path fill="#62a1de" d="M250 71l2 10 32-3-5-4" />
    <path fill="#fff" d="M291 294l-75-29-9-29-14 13" />
    <path fill="#f8f7f9" d="M414 119l-235-7-210 3 229 7" />
    <path fill="#0f0e0e" d="M702 289l3-170-5 200 33-17" />
    <path fill="#f8f7f7" d="M566 619l-291-1 76 99 32-2" />
    <path fill="#c5f5eb" d="M445 532l-1-195-12 246h11" />
    <path fill="#fffefe" d="M150 534l-18 26-30-74-19 12" />
    <path fill="#7dafd6" d="M23 206l40-29-42 5-2 15" />
    <path fill="#66a4db" d="M243 260l4-4h39l-6 11" />
    <path fill="#fdffff" d="M367 141l-141 8 112 6v148" />
    <path fill="#d20808" d="M753 716l4-32-3-37-5-47" />
    <path fill="#7a98c5" d="M73 109l22-3-55-4-57 10" />
    <path fill="#ff9164" d="M312 277l-6-8 50 1-49 12" />
    <path fill="#c5cdd1" d="M995 653l-31-20 28 32 37-9" />
    <path fill="#121212" d="M575 507h-25v35l9-23" />
    <path fill="#729dc8" d="M821 309l8-10-77 1 33-1" />
    <path fill="#9c9b9c" d="M819 494h16l-3 12-23 1" />
    <path fill="#110800" d="M874 264l-7 8-81-3 40-5" />
    <path fill="#111112" d="M865 429l2 17 19-15-110 13" />
    <path fill="#9f9f9f" d="M954 290l-13 202 23 20-10-25" />
    <path fill="#353434" d="M788 387l22-41-21 25 25 20" />
    <path fill="#191919" d="M702 399l17 26 8-7 6-8" />
    <path fill="#9f9fa0" d="M807 86l29-23-79 5 84 5" />
    <path fill="#a4aeb6" d="M365 41l-46-2-67 5h114" />
    <path fill="#46ceb1" d="M382 255l10 9-53-2 41-9" />
    <path fill="#fff" d="M303 273l26-9H222l80 77" />
    <path fill="#7dc042" d="M82 408l8 20-1-18 23-28" />
    <path fill="#c00c00" d="M574 738l13-58-7-73-1 103" />
    <path fill="#ccc5cf" d="M565 277l-29-4 109 4-60 8" />
    <path fill="#c4f8e7" d="M438 443l5-29-1-427-7 267" />
    <path fill="#282828" d="M822 323l185-7-52 7h-56" />
    <path fill="#a3a3a3" d="M506 519l-19 28 7 5-4-96" />
    <path fill="#a3a4aa" d="M549 741H424l45-13" />
    <path fill="#ad9d89" d="M713 701l-10 3 23 26 2 12" />
    <path fill="#fff" d="M1033 528l-53 144 16-106 28 117" />
  </g>
</svg>