<svg version="1.1" viewBox="0 0 1024 768" width="1024" height="768" xmlns="http://www.w3.org/2000/svg">
  <path fill="#c7cbc4" d="M0 0h1024v768H0z" />
  <g fill-opacity=".5">
    <path d="M382 394l3-360.5 268 13.2-.8 351" />
    <path d="M654 389l-263.6-6.5-4.6-339 262-7.4" />
    <path fill="#5b5d25" d="M100.4 373l140.3 18 4.6 388.8-147-31" />
    <path fill="#2b3400" d="M15 347l44.5 54L62 745 9.6 775.3" />
    <path fill="#fff" d="M329.8 637.4L1055-31v800.8l-731-.2" />
    <path d="M646 389.7l3.6-191-271 58 31 141.4" />
    <path fill="#fff" d="M179 394.5l258.7-424L-31 2.5l217.6 597" />
    <path fill="#505a00" d="M299.3 799l-37.8-424.2 75.7 4-4-9.6" />
    <path fill="#fff" d="M203 795l-56.4-564.7L150 617l16 182" />
    <path fill="#ffff64" d="M524 241.3l60.6-47.2-68-28-54.2 27" />
    <path fill="#fff" d="M-21 653.3l553.4 12-456.2 20.5-107.2 3.5m382.6-234.5L246 651.4 240 478l-271-22" />
    <path fill="#ffb100" d="M621.5 747.4l.8-128.6 19.5 84 204.6 42.6" />
    <path fill="#fff" d="M1055 2l-34.7 797-369-419.6-.8-395.8M1.3-31L-31 338.7l133.7 80L139.3-31" />
    <path fill="#fff" d="M661.3 403.8L996 705.5l-675-9.3 14.8-304" />
    <path fill="#1b2800" d="M144 597.5L99.7 375.2l140.8 10-99.2-11.3" />
    <path fill="#090800" d="M174.4 456l2.4-78.3 68 1.5-.7 71.4" />
    <path fill="#00bcff" d="M564.3 746l-70.5-77.3 5 47.3-151.4 30.5" />
    <path fill="#122500" d="M82.7 755.7l-3.5-69.3-59.8-1.2 3 68" />
    <path fill="#fff" d="M336-29l-95.7 273.3L22.8 377.5l319-2.7m7.4 179.8l-374 3.6L-31 580l401.6-1" />
    <path d="M389 267.6l267-221L386.3 41l-5.5 1.3" />
    <path fill="#111e00" d="M185.7 582.6l-10.5 74 62.2-3.6 12-57" />
    <path fill="#4e4800" d="M293 753.2l27-198.5 9 230.3 76.2 14" />
    <path fill="#d50d00" d="M337.6 56.5l15-40.8 3.7 91.3-13 53.5" />
    <path fill="#192a00" d="M286.6 475l29.6 7-5.3 68.8-23 11.2" />
    <path d="M382.2 396.7l4.6-111 248.8-103.4L655 396" />
    <path fill="#0d2000" d="M105.3 743.8l50.4 19 7.2-77.5-54-7" />
    <path fill="#142900" d="M193.7 479.4l-14.5 74.4 64 2-5.8-73.5" />
    <path fill="#fc0000" d="M789.5 728.6l-3.2 13.8-44.8 13.5-2-59" />
    <path d="M654 39l-182 5 27.4 93.5 141.4 80.8" />
    <path fill="#fff" d="M7.2 450.7L34-31l-53.7 509 454-4.4" />
    <path fill="#0030dd" d="M353.8 176.3l.5 148.6-15 2-2.5-52" />
    <path fill="#fff" d="M104.7 320.6L92.2 799 57.4 451.8 36-27m293.3 402.5l-1 351.4 55.2-152 1.5-337" />
    <path fill="#1a3100" d="M329.5 455.7l-63.7-4.7-2.7-74 67 5" />
    <path fill="#1b2000" d="M148 656l-3-77.2-56.3 3.7 20 74.5" />
    <path fill="#fff" d="M159.6 767.3l-7.8-295L205.2 799 455 754.5" />
    <path fill="#280100" d="M240 683.3h-40l1 54.7 45.7 39" />
    <path fill="#0a0600" d="M12.6 642.3l43 12.7 8-80.5-49.7 15" />
    <path fill="#5a6003" d="M269.4 658.5l7.4-93.5 50.5 40.5L319 656" />
    <path fill="#222a00" d="M148.3 476.5l3 67-50.7 17.3 1.2-68.8" />
    <path fill="#a4a3a2" d="M739 339.7l168-.4-36 38.7-146.4 16" />
    <path fill="#fff" d="M1055 137.4L705.2-31 42.8 17.5l498 1" />
    <path fill="#fff" d="M292-31l-54.7 468.3 147-369-2 249.8m170.3 108l-243.2 33 9 116 615.3 101" />
    <path fill="#fdff59" d="M586 187l-59.7 47-59.3-38.5.4-11.8" />
    <path fill="#fff" d="M5.2 431l-29 368 293.6-37.3-253.6-4" />
    <path fill="#98d5ea" d="M229.7 275.3l-157-59.6L263.5 49.3l35 79.6" />
    <path fill="#2d3d00" d="M68 373l-54.4 75.6-2-43-1.3-26.3" />
    <path fill="#fff" d="M249 466.2L294 754l-64.7 45 21-73" />
    <path fill="#f8ff00" d="M618.2 661.4l1.5 63 48 34.2-31-96.7" />
    <path fill="#004cfc" d="M446.7 698l-9 20 13.5 30.8 33.6-5" />
    <path fill="#445300" d="M62.6 476.6l3.8 69.2L9 560l5.3-75.3" />
    <path d="M260.5 584.2l-81.2-1.2.5 82.7L205 590" />
    <path fill="#fff" d="M52 559.6L106 772l-9.3-170 5-62.7m949.7 6.5l3.5 253-421-17.4 170-49.2M955 50L648-5.2l4 364.8 109-116.3" />
    <path fill="#fff" d="M443.8 687.4L320.8 799l14-142.4L-31 668" />
    <path fill="#c5a100" d="M338.8 184.6l.6-127.2L353.6 73l1.3 123" />
    <path fill="#a57aff" d="M504.6 206.4L516 159l21.2 32-19.5 45.7" />
    <path fill="#49fe47" d="M600.4 726l3.6 13-43.4 9.3-.2-52.4" />
    <path d="M386.6 120.4L385.3 263 384 387l262.2 6.6" />
    <path fill="#71c36e" d="M488 639.8l240-1.6-6.3 10.5-296 1" />
    <path fill="#626062" d="M600.3 431.6l-207.3-5 44.2-7.7 183 4" />
    <path fill="#445000" d="M109.5 698.3l-4.6 64.2 28-1.8 17 4" />
    <path fill="#bfbdbe" d="M674.4 545.3l24-71.5 58.3-1.2 28.2 87.2" />
    <path fill="#fff" d="M295.6 426.8L251 799l-9-373.3 48 52m-150.6-29l39.8 177-2-219.4-37-108.3M-6 33.3L372.6 26l-184 50.3L-31 455.5" />
    <path fill="#313602" d="M115.4 357.8l25 25-2.6 71.8-41.6 2.4" />
    <path fill="#fff359" d="M288.7 406.5l-1.5 15.4 13.3 47 9-80" />
    <path fill="#6a696a" d="M816.4 174l-8 1.5 38.4 11.2 91.5-10.5" />
    <path fill="#fff" d="M662.3 745.5l-404 17 434 36.5-28.7-156.8m-238-601.6l94.4-4.8-176.2-12.5 11.4 13" />
    <path fill="#6c6b6c" d="M989.3 610.5l-62.2-9.3-40 4.5-4 10.3" />
    <path fill="#fff" d="M66 621l31.3-93 6-104L52 211" />
    <path fill="#000300" d="M77 753l.7-70.4-19.8 58-20 15.2" />
    <path fill="#fff" d="M419.7 560.7l-433.3-6.4L8.6 799 14 581.3" />
    <path fill="#1e2100" d="M174.6 377.5l48.7-1.6h17l-1 72" />
    <path d="M651.2 161.2l-3.2-120-258.6 2.6-5.8 113" />
    <path fill="#0096dc" d="M354.8 336.7l-13-46.7-3-91 16.3-27.2" />
    <path fill="#5d5c5d" d="M963.6 443.4l-21.2-1-82 4.5 108.8 4" />
    <path fill="#fff" d="M352.3 340.3L374.7-31l9.7 420.6-415.4-122" />
    <path fill="#f65e00" d="M682.6 701l7.2 4.4 38.4 39-49.2 5.2" />
    <path fill="#bdff00" d="M477.6 216.4L497 230l12.6-64-46 22.8" />
    <path fill="#00fffb" d="M543.6 749.2L542 726l-38.3-50-2.5 71" />
    <path fill="#595c57" d="M198.2 28.3l8 2 64.8-7-212.4-.7" />
    <path fill="#ecb84f" d="M211 446.4l-20.8-7.2 7-34 28 2.7" />
    <path fill="#112900" d="M12.6 756L11 684 .4 679l34.8 17.5" />
    <path fill="#151b00" d="M95.6 622l53.5 38.2 1-66-51 64" />
    <path fill="#fff" d="M69 799l37-153.2-1.3 116.6-122.4-10" />
    <path fill="#45350f" d="M320.3 681.2l-30.6 84 4-94.3 30 90" />
    <path fill="#0000eb" d="M398 733.8l-4.3-8.2-20 18.8 50 2.8" />
    <path fill="#e6c841" d="M103.8 618l19.4 40 11.8-67-8.6-2.3" />
    <path fill="#fff" d="M171 799l26-50.8-.6-55.3-50-139" />
    <path fill="#7a777c" d="M612.7 17.8l-147 12.4 151.7 1.6 11-3" />
    <path fill="#fefdff" d="M49.4 689.5l148.4-18-172.5-16.3L-31 680" />
    <path fill="#fff" d="M178.8 349l161.7-209-2.5 194-84.7 44" />
    <path fill="#900" d="M354.5 50.6L353.3 92l-17-52.4L351 28.3" />
    <path fill="#fff" d="M660.7 142l102.7 319-115.7 20.3 3.7-141.3M512.2 20.4l275.5 2L1055-31 108.7 20.6" />
    <path fill="#405200" d="M6.3 457l49.6-2.4-3-11L16 418" />
    <path fill="#fff" d="M716 703.2l-89 7.3L740 624l-.7 175" />
    <path fill="#c9a825" d="M215.8 693.5L203.6 604l48-19.4-40.7 69" />
    <path d="M263.6 423.4l-1.8 33.8 16.5-2-2-83" />
    <path fill="#00021e" d="M275 574.6l10.7 3.2-8.5 86.8-2.6-63.6" />
    <path fill="#fff" d="M316 453.5L314.5 578 444 613l-7.3 164.5M59.5 594.7l19.2 96 .5 101.5 20-170.8" />
    <path fill="#918611" d="M60.7 657.4l4 7.4-32.2-54.4-23.2 51.4" />
    <path fill="#fff" d="M461.4 647.8L278.7 661l220.8 37 2.3 101M241.4 266.4V458l35 185.5-15.2-258" />
    <path fill="#69676a" d="M796 13.3l8.2 9-7.5 2.3 150.5-3.3" />
    <path fill="#674a69" d="M486.7 639.4l75.7 7-124.7 2.5-6.2-10" />
    <path fill="#000b00" d="M103.5 546.3l45.4 9.5-1-88.3-20 93.5" />
    <path fill="#f5e85c" d="M114.6 386.7l7-3.4 3 57.2-11.3-4.6" />
    <path d="M160 764.5L146.5 701 134 686.3l24.4-5" />
    <path fill="#fff" d="M206 584.2L95.5 558.7l153-2.2 54 21.3" />
    <path fill="#10230a" d="M8.7 555.3l53 2.3-.6-105.3-5 86.5" />
    <path fill="#fff" d="M315.5 325.2l95 105 423 1.6-467.7 142" />
    <path fill="#000100" d="M37 601.3l22.4 62 .3-81-54.3-3" />
    <path fill="#1b2b00" d="M249.7 756.3l-47.5-17.8-.2-65.7-6.7 90.7" />
    <path fill="#25b900" d="M497 249l95.3-69-91-22.5 92.4 45.7" />
    <path fill="#fff" d="M176.2 623.4L148 687l23-306.6L184 531m110.4 138L245 657.8l-1 88.5 29.3 48m520-259.2L810 359l100-1 145-65.3m0 481.7L609.2 650.8l176-2-1.4 120" />
    <path fill="#007af5" d="M437.4 754l3.2-48.2 19.2-7.3-1 42.2" />
    <path fill="#163300" d="M245 618.5v40.7l-19-5 19-78.8" />
    <path fill="#001000" d="M12.5 527v24l21-78.5-22 10" />
    <path fill="#fff" d="M567.7 608.6l-57.5 158.6 18-97.4 27.6 108" />
    <path fill="#fb0700" d="M760.2 698.2l-22.6 7.8 6 23.5 11.4 21" />
    <path fill="#f0d12c" d="M43.5 483.3l-16 6V525l18.3 6.3" />
    <path fill="#455100" d="M180.7 510.7l5.5-34.6 56.3 4-6 32" />
    <path fill="#93b1af" d="M849 290l130.3-13-135 2-105.6-14.5" />
    <path fill="#636e0a" d="M10.8 757.3l27.4-71.6 36.2 4.4L63 741" />
    <path fill="#000100" d="M647 157.4l4.4 217-4.7 23.6-239.3-11" />
    <path fill="#f6ff00" d="M627.2 747.8l24.2-1.6-25.5-94.4-8 84.7" />
    <path fill="#3d3ee7" d="M1010.4 528.5l-1.3 21.8-14 5 6-29" />
    <path d="M242.6 773.8l-.3-93.3H224l11 63.3" />
    <path fill="#979c2e" d="M151.2 715.3l-22-64.6-9.6 54.2-2.8 75" />
    <path fill="#888788" d="M876 318.6l88.3 3.3-109.8 3-80.2-5" />
    <path fill="#e1e5ff" d="M643 799l3.3-133.3-2.6-9.3-5.6 65.2" />
    <path fill="#9d9c9d" d="M467.2 606.5l144 2.4-153.7-12-26.3 9" />
    <path fill="#fbfdff" d="M111.8 681.3l63.4-23 103.7-4.5-28 25.7" />
    <path fill="#c29552" d="M212.7 654.2l-5.3 101 5.5-1 13-20.4" />
    <path fill="#fff" d="M354 182.5l2.5 302.3 32.8-504.5-34 39.6m-340 456l101.4-22 200 7-171.4 16" />
    <path fill="#0000bc" d="M344 262.7l-4.7 50.4 5 17 11.3-5" />
    <path fill="#fff" d="M403 764.3l-190.8-3-184.7-.7L-31 785" />
    <path fill="#162600" d="M290 731l35.3 28.7-34.2 2.7 8-100.8" />
    <path fill="#fff" d="M561.6 39.7L483.2 35 713 27.5l-80.6 11.3" />
    <path fill="#8f8e8f" d="M344.8 703l-2.5-58 10.3-8-6 73" />
    <path fill="#1d4500" d="M316.8 658l8.7-17.7L320 628l-49.8 27" />
    <path fill="#001d00" d="M33.3 375.3l-9.8 7 28.2-8.3 5.7 36.6" />
    <path fill="#fff" d="M185.5 545.4L156.2 678l-7-130.6L165 292" />
    <path fill="#fff" d="M59.4 676.7L91 362l9 296.7 73.5.2" />
    <path fill="#f2af3f" d="M294.8 720.3l17.8-43.6L314 756l-6.6-6.8" />
    <path fill="#fff" d="M1023.3 558.3l-194.8 64.2-68 118.2-7.6-189.4" />
    <path fill="#fff" d="M1007.7 36.3L975 707l80-702.3L707-31" />
    <path fill="#b0a226" d="M307.7 653.8l-27-49.6 42-25 2.3 14" />
    <path fill="#9a999a" d="M956 160l-154.8-2.7-11 5.2 52 4.2" />
    <path fill="#7f7f7f" d="M875.6 377.6l-23.6-6.4-137.7 5.3 65 1.6" />
    <path fill="#c594ff" d="M520.6 175L508 201.2l14.6 30.7 16-56" />
    <path fill="#8d908b" d="M282 20.6L98 20l-7 9 32.4-.7" />
    <path fill="#051e00" d="M101 579.5l-1.4 7.6 53.4 19-4.6-26" />
    <path fill="#112a00" d="M168.2 455.4l72-33.3v24l-3 9" />
    <path fill="#011800" d="M179.4 656l27-.4-27.8-74-1 23.7" />
    <path fill="#fff" d="M460 420.7L339.6 397l130.8-.7 241.7 2.3" />
    <path fill="#051e00" d="M151 656.8l-.8-83.7-13 64-40.5 21" />
    <path fill="#000300" d="M383 41l194-.7 71.7 145-260-50.4" />
    <path fill="#f40c00" d="M782 744.6l4.3-15-22.6-7 7.6 32" />
    <path fill="#908211" d="M96.2 472.2l40.6 17.4-8.2 49-11.2 3.2" />
    <path fill="#fefeff" d="M11.5 377.4l164.2-1-206.7-233 42.4 545" />
    <path fill="#fff" d="M706.3 703.5l-9.8 33.2L815 652.2 616 655" />
    <path fill="#243e00" d="M331 377l-6.7 61-31.7-63.4 1 1" />
    <path fill="#2b4600" d="M184.4 532l55-7-.6 30.5-51.6 2.4" />
    <path fill="#0bffc3" d="M353 230l-2.3-44.6-12.3-26.6 3.3 106.4" />
    <path fill="#4b5b06" d="M313.8 477.8l-1.3 56.7 2 43.4L293 476" />
    <path fill="#001200" d="M158.4 728.4l1.5 32-66 .2 53-12M18 576.8l-5 77.8 24.7 2.2-9.8-22" />
    <path fill="#b9b8b9" d="M954 226l-72.4-3.3 71.6-31.2 14.7 24.8" />
    <path fill="#ed0e00" d="M341.3 109.7l-.6-87.6 11.6 49-.4 42" />
    <path fill="#737076" d="M519.5 29.6l-118.3 1.6 30-9 44.3-2.5" />
    <path d="M61 691.5l7 24.2 12.7-28.3H16" />
    <path fill="#fff" d="M766 747.3l-364 1.4-190.5 31.7 843.5-16" />
    <path d="M103 587.4l9.4 71.7 7.4-5-21.8 4" />
    <path fill="#fff" d="M288 576.3l-2.4-91.2-25.6-39-24 121" />
    <path fill="#00fff6" d="M521.5 700l-3.8 52-16.3-46.3 13.3-38.3" />
    <path fill="#000004" d="M137.7 455.4l2.8-67.3-16-26 11 98" />
    <path fill="#fff" d="M935 278.5l-36.6-93.7-193.6-5.3L761 260" />
    <path fill="#a7a6a7" d="M352.2 535.7l-11 23.2 4.8-79 7.2-6" />
    <path fill="#c7e2f6" d="M78.4 258.8l208-84.7 2.6 51-136 84" />
    <path fill="#102700" d="M199.3 389.7l-20.7 63-1.6-69 43-7.5" />
    <path fill="#05100d" d="M113.2 440.8l.6-76.3-13 23 5 56.3" />
    <path fill="#968c45" d="M180.3 515.5l40.5-51-13-5 19 74" />
    <path fill="#fff" d="M652.2 38.2l-2 222 169-89-102.4-25M466 659l-12.8 116 23.5-82.2 108-40" />
    <path fill="#786dc4" d="M26.6 721.7L22 717l65.3-1.6L55.8 727" />
    <path fill="#ceeb00" d="M575.7 187.7l-34.7-6.4-13 42 39.3-12" />
    <path fill="#c7c6c7" d="M736.8-9.5l-2 175.4-33.6-125-2.7 90" />
    <path fill="#f9dd00" d="M355.2 157.3l-17 4.2 2.5-53.7 7.8-11" />
    <path fill="#a09fa0" d="M810.2 475l6.4 12 .4 64.6-9 11.8" />
    <path fill="#b6bdff" d="M34.2 407.6l-20 9 38.2 4.5 45.8 31" />
    <path fill="#fff" d="M490.5 620.8l-167 61 1-226.5-14 116.4" />
    <path fill="#727272" d="M818 18.6l69 6 54.6-4.4-27-4" />
    <path fill="#fff" d="M420.5-31l-20.7 70.8 95-2.2L267.6 29" />
    <path fill="#9a999a" d="M712 278.6l-2.7 12.8-5-88.5 9 2" />
    <path fill="#fff" d="M150.8 650.4l47 20.8-2.3 112L151 595.5" />
    <path fill="#8d8d8e" d="M884.8 349.6l-32.5-12.4 56 19.5-178-2.8" />
    <path fill="#a8a7a8" d="M814.2 676.3l1 63 8.3-89-10.3-11.2" />
    <path fill="#a2d2dc" d="M215 112.2l19.5-80L283 202.5 114.6 186" />
    <path fill="#fff" d="M107 708.6l-30.5-68 5 158.4h23.8" />
    <path fill="#c5c3c4" d="M1001 25.2l-37.5 14.2L966 75l39.5 3" />
    <path fill="#fff" d="M143.5 480.4l31.7-106-72.6 2.4 37.4-13m521.4 261.5L711 168.6 650.5 254l-.2 95.5" />
    <path fill="#769696" d="M748.3 261.7l26.5 11.8-48.6-43 23.4 11.2" />
    <path fill="#1e6712" d="M524.2 231l129.8 8.5-165.4.2-25.3-39" />
    <path fill="#001400" d="M12.8 377l27.4-1.6-22 26.4-5.2 49.5" />
    <path fill="#ffe100" d="M477 183.5l5 35.3 31-22.8-3-17.4" />
    <path fill="#244b00" d="M319.7 695.2l-25.2-9 28.4-9 2 98.8" />
    <path fill="#88a1de" d="M1006 708.7l10.7 12.7-48.2 1.3-1.2-9.6" />
    <path fill="#000500" d="M466 106.3L385 201l-1.4 195.5 62-1.8" />
    <path fill="#083904" d="M297.5 586.4l-27.7 2.4 49.4-13 5.7 16" />
    <path fill="#fff" d="M68.6 153.7L-31-11l179.4 52 165.2-18" />
    <path fill="#1d4e00" d="M105.3 495.8l44.4 2.5-2.4-18.2-47.7-4" />
    <path fill="#0332e5" d="M354.2 310.8l-13.5 1.8-2.2-83L353 272" />
    <path fill="#fff" d="M1011.8 534.5l6.2 245.3 36.6-574.3-141.3 150.8" />
    <path fill="#fff" d="M1055 653.3l-439-16-42.2 120 48-211" />
    <path fill="#7c7b7c" d="M812.8 174.3l86.5 10.7 31.8-.8-20-8.2" />
    <path fill="#fff" d="M59.2 460.7L-31 451l135 25-6.6-227" />
    <path fill="#132d00" d="M299.5 374.2l-34.2 6.2-1 74.8 13.4-14" />
    <path fill="#fff" d="M381.7 729.5l58.8 11.5L416 557 307.4 799" />
    <path fill="#efe663" d="M882.7 540.7l-22-.5 50-7-6-28.2" />
    <path fill="#325a00" d="M102.7 683.7l47.2-3 12 2-47 27" />
    <path fill="#cdc216" d="M303.3 551l-9 2.4-1-83.8 10 55.7" />
    <path fill="#f5fd00" d="M662.8 750.2L666 703l-45.4 37 .3-44.8" />
    <path fill="#fff" d="M338 421.8L256 47.4 335.7-31l3.4 82.7" />
    <path fill="#a2a0a2" d="M977.3 262.4L1002 236l-17.5 33.3-50.5 16" />
    <path fill="#878687" d="M890.7 451.6l79.3.6-28-11.6-59.6 1.7" />
    <path fill="#d6ba2b" d="M217.7 444.2l-4.7-16.7-10.3 38.3-2.5-77" />
    <path fill="#fff" d="M572.3 694.6l47.4 49-.8-95.4-237 7" />
    <path fill="#183200" d="M100.8 481.6l.6 75.7 36.2-4-19.7-10" />
    <path fill="#7d53da" d="M214 729.5l24.7-18-4.3-4.4-32.8 19" />
    <path fill="#c48c36" d="M34.2 583l9.3 65-14-19.7-6.4 12.5" />
    <path fill="#000002" d="M189.2 477.4l.3 50-4.3 42v-88" />
    <path fill="#132cec" d="M383 747.5l-5.8-15.2 54.6 9L403 747" />
    <path fill="#fff" d="M82.3 658.7l-52 15.8-39.8 34-21.5-52.3" />
    <path fill="#1d3400" d="M53.6 424.3l-15.2 21-33.6 9 51 .4" />
    <path fill="#0077f5" d="M424.5 708.3l36.4 7 17 36.2 6-28" />
    <path fill="#f7f900" d="M637.4 747.5l1.8-87.4 30.6-16-52 28" />
    <path fill="#fff" d="M599 22.2l417.6-11L573.8-31l16 65" />
    <path fill="#958e01" d="M12.3 435.6l34.4 6.7-30.4-56 36.3 2.4" />
    <path fill="#fff" d="M326.4 345.8l4 134.7-33.4-23 134-5.8" />
    <path fill="#fdffff" d="M664.2 717.4l17.6-100.7 11.3 24.6-23 140.2" />
    <path d="M232.2 543l8.8-8.5-2.5-54.6-9.5 16" />
    <path fill="#fff" d="M924 519.5l-242.3-81L1008 457l-53 120m-707-72.4L272.6 612 284 799l-39.6-91.4" />
    <path fill="#645b0d" d="M235.8 394.2l-37-29.6L222 359l-42.5 58.5" />
    <path fill="#96ffff" d="M765.2 283.3l142.3 9.3-19-8.4-86-3" />
    <path fill="#fff" d="M645 500l-27.8-49.4-13-54.7 213.6-1" />
    <path fill="#6feae6" d="M964 516.6l-4-19-12 4-10.3 12" />
    <path fill="#fff" d="M408.8-5.3L253.3 21 40 20-31-2.2" />
    <path fill="#cbb344" d="M314 388.6l-4 28.8-18.3 35.2-7.8-48.8" />
    <path fill="#fff" d="M951.8 33.5l-201 1.7-20.3 102.4 261 2.5M693.3 770L124 760.6 40.2 754-29 767m298-411.7l-17 135.2L229 251l112-2.8m-6.6 239L379.6 119l4.7 188.6.2 82.5" />
    <path fill="#aa81e3" d="M258.2 625.6l56.4-13L318 625l-3-2.4" />
    <path fill="#0a0e00" d="M231.2 444.2l9.5-7.4 2-65.6-14 24.8" />
    <path fill="#4a6d00" d="M241.4 602l5.2-19.3-37.2-2-26 21.2" />
    <path fill="#b3b449" d="M118 535l-6.4 6-1.2-21.8 10.6-169" />
    <path fill="#3debd6" d="M535.4 215.8h-14l-14.3 8.7 18 8" />
    <path fill="#2d3d1a" d="M289.6 460.6l1.8 29.4 2.2 43-8 31.8" />
    <path fill="#fff" d="M499 727.7l-3 66.4-16.3-32 18.5-103" />
    <path fill="#72f072" d="M565.7 746.7L603 749l2-4-1.8-25.8" />
    <path fill="#000902" d="M328.7 426l-3.4-54.5L316 452l8.5 6.6" />
    <path fill="#fffffe" d="M465.7 799l-79-114 16 70.8 7-75.5" />
    <path fill="#000400" d="M588 40l-4.7 217.3 67.7-154-1-63.4M101.5 454l4.7-79.8 5.3 68 23.3 12.5" />
  </g>
</svg>