<svg version="1.1" viewBox="0 0 1024 768" width="1024" height="768" xmlns="http://www.w3.org/2000/svg">
  <path fill="#c7cbc4" d="M0 0h1024v768H0z" />
  <g fill-opacity=".5">
    <path d="M382 394l3-360 268 13-1 351" />
    <path d="M654 389l-264-6-4-339 262-8" />
    <path fill="#5b5d25" d="M100 373l141 18 4 389-147-31" />
    <path fill="#2b3400" d="M15 347l45 54 2 344-52 30" />
    <path fill="#fff" d="M330 637l725-668v801H324" />
    <path d="M646 390l4-191-271 58 31 141" />
    <path fill="#fff" d="M179 395L438-29-31 3l218 597" />
    <path fill="#505a00" d="M299 799l-37-424 75 4-4-10" />
    <path fill="#fff" d="M203 795l-56-565 3 387 16 182" />
    <path fill="#ffff64" d="M524 241l61-47-68-28-55 27" />
    <path fill="#fff" d="M-21 653l553 12-456 21-107 3m383-234L246 651l-6-173-271-22" />
    <path fill="#ffb100" d="M622 747V619l20 84 204 42" />
    <path fill="#fff" d="M1055 2l-35 797-369-420-1-395M2-31l-32 370 134 80 36-450" />
    <path fill="#fff" d="M661 404l335 302-675-10 15-304" />
    <path fill="#1b2800" d="M144 598l-44-223 141 10-100-11" />
    <path fill="#090800" d="M174 456l3-78 68 1-1 72" />
    <path fill="#00bcff" d="M564 746l-70-77 5 47-152 31" />
    <path fill="#122500" d="M83 756l-4-70-60-1 3 68" />
    <path fill="#fff" d="M336-29l-96 273L23 378l319-3m7 180l-374 3-6 22 402-1" />
    <path d="M389 268L656 47l-270-6-5 1" />
    <path fill="#111e00" d="M186 583l-11 74 62-4 12-57" />
    <path fill="#4e4800" d="M293 753l27-198 9 230 76 14" />
    <path fill="#d50d00" d="M338 57l15-41 3 91-13 54" />
    <path fill="#192a00" d="M287 475l29 7-5 69-23 11" />
    <path d="M382 397l5-111 249-104 19 214" />
    <path fill="#0d2000" d="M105 744l51 19 7-78-54-7" />
    <path fill="#142900" d="M194 479l-15 75 64 2-6-74" />
    <path fill="#fc0000" d="M790 729l-4 13-45 14-1-59" />
    <path d="M654 39l-182 5 27 94 142 80" />
    <path fill="#fff" d="M7 451L34-31l-54 509 454-4" />
    <path fill="#0030dd" d="M354 176v149l-15 2-2-52" />
    <path fill="#fff" d="M105 321L92 799 57 452 36-27m293 403l-1 351 56-152 1-337" />
    <path fill="#1a3100" d="M330 456l-64-5-3-74 67 5" />
    <path fill="#1b2000" d="M148 656l-3-77-56 3 20 75" />
    <path fill="#fff" d="M160 767l-8-295 53 327 250-44" />
    <path fill="#280100" d="M240 683h-40l1 55 46 39" />
    <path fill="#0a0600" d="M13 642l43 13 8-80-50 15" />
    <path fill="#5a6003" d="M269 659l8-94 50 41-8 50" />
    <path fill="#222a00" d="M148 477l3 67-50 17 1-69" />
    <path fill="#a4a3a2" d="M739 340l168-1-36 39-146 16" />
    <path fill="#fff" d="M1055 137L705-31 43 18l498 1" />
    <path fill="#fff" d="M292-31l-55 468L384 68l-2 250m171 108l-244 33 9 116 616 101" />
    <path fill="#fdff59" d="M586 187l-60 47-59-38v-12" />
    <path fill="#fff" d="M5 431l-29 368 294-37-254-4" />
    <path fill="#98d5ea" d="M230 275L73 216 264 49l35 80" />
    <path fill="#2d3d00" d="M68 373l-54 76-2-43-2-27" />
    <path fill="#fff" d="M249 466l45 288-65 45 21-73" />
    <path fill="#f8ff00" d="M618 661l2 63 48 35-31-97" />
    <path fill="#004cfc" d="M447 698l-9 20 13 31 34-5" />
    <path fill="#445300" d="M63 477l3 69-57 14 5-75" />
    <path d="M261 584l-82-1 1 83 25-76" />
    <path fill="#fff" d="M52 560l54 212-9-170 5-63m949 7l4 253-421-18 170-49M955 50L648-5l4 365 109-117" />
    <path fill="#fff" d="M444 687L321 799l14-142-366 11" />
    <path fill="#c5a100" d="M339 185V57l15 16 1 123" />
    <path fill="#a57aff" d="M505 206l11-47 21 32-19 46" />
    <path fill="#49fe47" d="M600 726l4 13-43 9-1-52" />
    <path d="M387 120l-2 143-1 124 262 7" />
    <path fill="#71c36e" d="M488 640l240-2-6 11-296 1" />
    <path fill="#626062" d="M600 432l-207-5 44-8 183 4" />
    <path fill="#445000" d="M110 698l-5 64 28-1 17 4" />
    <path fill="#bfbdbe" d="M674 545l24-71 59-1 28 87" />
    <path fill="#fff" d="M296 427l-45 372-9-373 48 52m-151-29l40 177-2-220-37-108M-6 33l379-7-184 50-220 380" />
    <path fill="#313602" d="M115 358l25 25-2 72-42 2" />
    <path fill="#fff359" d="M289 407l-2 15 13 47 10-80" />
    <path fill="#6a696a" d="M816 174l-8 2 39 11 91-11" />
    <path fill="#fff" d="M662 746l-404 17 434 36-28-157M426 41l94-5-176-13 11 13" />
    <path fill="#6c6b6c" d="M989 611l-62-10-40 5-4 10" />
    <path fill="#fff" d="M66 621l31-93 6-104-51-213" />
    <path fill="#000300" d="M77 753l1-70-20 58-20 15" />
    <path fill="#fff" d="M420 561l-434-7L9 799l5-218" />
    <path fill="#1e2100" d="M175 378l48-2h17l-1 72" />
    <path d="M651 161l-3-120-259 3-5 113" />
    <path fill="#0096dc" d="M355 337l-13-47-3-91 16-27" />
    <path fill="#5d5c5d" d="M964 443l-22-1-82 5 109 4" />
    <path fill="#fff" d="M352 340l23-371 9 421-415-122" />
    <path fill="#f65e00" d="M683 701l7 4 38 39-49 6" />
    <path fill="#bdff00" d="M478 216l19 14 13-64-46 23" />
    <path fill="#00fffb" d="M544 749l-2-23-38-50-3 71" />
    <path fill="#595c57" d="M198 28l8 2 65-7H59" />
    <path fill="#ecb84f" d="M211 446l-21-7 7-34 28 3" />
    <path fill="#112900" d="M13 756l-2-72-11-5 35 18" />
    <path fill="#151b00" d="M96 622l53 38 1-66-51 64" />
    <path fill="#fff" d="M69 799l37-153-1 116-123-10" />
    <path fill="#45350f" d="M320 681l-30 84 4-94 30 90" />
    <path fill="#0000eb" d="M398 734l-4-8-20 18 50 3" />
    <path fill="#e6c841" d="M104 618l19 40 12-67-9-2" />
    <path fill="#fff" d="M171 799l26-51-1-55-50-139" />
    <path fill="#7a777c" d="M613 18L466 30l151 2 11-3" />
    <path fill="#fefdff" d="M49 690l149-18-173-17-56 25" />
    <path fill="#fff" d="M179 349l162-209-3 194-85 44" />
    <path fill="#900" d="M355 51l-2 41-17-52 15-12" />
    <path fill="#fff" d="M661 142l102 319-115 20 3-141M512 20l276 2 267-53-946 52" />
    <path fill="#405200" d="M6 457l50-2-3-11-37-26" />
    <path fill="#fff" d="M716 703l-89 8 113-87-1 175" />
    <path fill="#c9a825" d="M216 694l-12-90 48-19-41 69" />
    <path d="M264 423l-2 34 16-2-2-83" />
    <path fill="#00021e" d="M275 575l11 3-9 87-2-64" />
    <path fill="#fff" d="M316 454l-1 124 129 35-7 165M60 595l19 96v101l20-171" />
    <path fill="#918611" d="M61 657l4 8-32-55-24 52" />
    <path fill="#fff" d="M461 648l-182 13 221 37 2 101M241 266v192l35 186-15-258" />
    <path fill="#69676a" d="M796 13l8 9-7 3 150-4" />
    <path fill="#674a69" d="M487 639l75 7-124 3-7-10" />
    <path fill="#000b00" d="M104 546l45 10-1-89-20 94" />
    <path fill="#f5e85c" d="M115 387l7-4 3 58-12-5" />
    <path d="M160 765l-13-64-13-15 24-5" />
    <path fill="#fff" d="M206 584L96 559l153-2 54 21" />
    <path fill="#10230a" d="M9 555l53 3-1-106-5 87" />
    <path fill="#fff" d="M316 325l95 105 423 2-468 142" />
    <path fill="#000100" d="M37 601l22 62 1-81-55-3" />
    <path fill="#1b2b00" d="M250 756l-48-18v-65l-7 90" />
    <path fill="#25b900" d="M497 249l95-69-91-22 93 45" />
    <path fill="#fff" d="M176 623l-28 64 23-307 13 151m110 138l-49-11-1 88 29 48m520-259l17-176 100-1 145-65m0 481L609 651l176-2-1 120" />
    <path fill="#007af5" d="M437 754l4-48 19-8-1 43" />
    <path fill="#163300" d="M245 619v40l-19-5 19-79" />
    <path fill="#001000" d="M13 527v24l21-78-22 10" />
    <path fill="#fff" d="M568 609l-58 158 18-97 28 108" />
    <path fill="#fb0700" d="M760 698l-22 8 6 24 11 21" />
    <path fill="#f0d12c" d="M44 483l-16 6v36l18 6" />
    <path fill="#455100" d="M181 511l5-35 56 4-5 32" />
    <path fill="#93b1af" d="M849 290l130-13-135 2-105-14" />
    <path fill="#636e0a" d="M11 757l27-71 36 4-11 51" />
    <path fill="#000100" d="M647 157l4 217-4 24-240-11" />
    <path fill="#f6ff00" d="M627 748l24-2-25-94-8 84" />
    <path fill="#3d3ee7" d="M1010 529l-1 21-14 5 6-29" />
    <path d="M243 774l-1-94h-18l11 64" />
    <path fill="#979c2e" d="M151 715l-22-64-9 54-3 75" />
    <path fill="#888788" d="M876 319l88 3-110 3-80-5" />
    <path fill="#e1e5ff" d="M643 799l3-133-2-10-6 66" />
    <path fill="#9d9c9d" d="M467 607l144 2-153-12-27 9" />
    <path fill="#fbfdff" d="M112 681l63-23 104-4-28 25" />
    <path fill="#c29552" d="M213 654l-6 101 6-1 13-20" />
    <path fill="#fff" d="M354 183l3 302 32-505-34 40M15 476l102-22 200 7-172 16" />
    <path fill="#0000bc" d="M344 263l-5 50 5 17 12-5" />
    <path fill="#fff" d="M403 764l-191-3H28l-59 24" />
    <path fill="#162600" d="M290 731l35 29-34 2 8-100" />
    <path fill="#fff" d="M562 40l-79-5 230-7-81 11" />
    <path fill="#8f8e8f" d="M345 703l-3-58 11-8-6 73" />
    <path fill="#1d4500" d="M317 658l9-18-6-12-50 27" />
    <path fill="#001d00" d="M33 375l-10 7 29-8 5 37" />
    <path fill="#fff" d="M186 545l-30 133-7-131 16-255" />
    <path fill="#fff" d="M59 677l32-315 9 297h74" />
    <path fill="#f2af3f" d="M295 720l18-43 1 79-7-7" />
    <path fill="#fff" d="M1023 558l-195 64-67 119-8-190" />
    <path fill="#fff" d="M1008 36l-33 671 80-702-348-36" />
    <path fill="#b0a226" d="M308 654l-27-50 42-25 2 14" />
    <path fill="#9a999a" d="M956 160l-155-3-11 6 52 4" />
    <path fill="#7f7f7f" d="M876 378l-24-7-138 6 65 1" />
    <path fill="#c594ff" d="M521 175l-13 26 15 31 16-56" />
    <path fill="#8d908b" d="M282 21L98 20l-7 9 32-1" />
    <path fill="#051e00" d="M101 580l-1 7 53 19-5-26" />
    <path fill="#112a00" d="M168 455l72-33v24l-3 9" />
    <path fill="#011800" d="M179 656h27l-27-74-1 23" />
    <path fill="#fff" d="M460 421l-120-24 130-1 242 3" />
    <path fill="#051e00" d="M151 657l-1-84-13 64-40 21" />
    <path fill="#000300" d="M383 41l194-1 72 145-260-50" />
    <path fill="#f40c00" d="M782 745l4-15-22-7 7 32" />
    <path fill="#908211" d="M96 472l41 18-8 49-12 3" />
    <path fill="#fefeff" d="M12 377l164-1-207-233 42 545" />
    <path fill="#fff" d="M706 704l-10 33 119-85-199 3" />
    <path fill="#243e00" d="M331 377l-7 61-31-63 1 1" />
    <path fill="#2b4600" d="M184 532l55-7v31l-52 2" />
    <path fill="#0bffc3" d="M353 230l-2-45-13-26 4 106" />
    <path fill="#4b5b06" d="M314 478l-1 57 2 43-22-102" />
    <path fill="#001200" d="M158 728l2 32-66 1 53-12M18 577l-5 78 25 2-10-22" />
    <path fill="#b9b8b9" d="M954 226l-72-3 71-32 15 25" />
    <path fill="#ed0e00" d="M341 110V22l11 49v42" />
    <path fill="#737076" d="M520 30l-119 1 30-9 44-2" />
    <path d="M61 692l7 24 13-29H16" />
    <path fill="#fff" d="M766 747l-364 2-190 31 843-16" />
    <path d="M103 587l9 72 8-5-22 4" />
    <path fill="#fff" d="M288 576l-2-91-26-39-24 121" />
    <path fill="#00fff6" d="M522 700l-4 52-17-46 14-39" />
    <path fill="#000004" d="M138 455l2-67-15-26 11 98" />
    <path fill="#fff" d="M935 279l-37-94-193-5 56 80" />
    <path fill="#a7a6a7" d="M352 536l-11 23 5-79 7-6" />
    <path fill="#c7e2f6" d="M78 259l208-85 3 51-136 84" />
    <path fill="#102700" d="M199 390l-20 63-2-69 43-8" />
    <path fill="#05100d" d="M113 441l1-76-13 23 5 56" />
    <path fill="#968c45" d="M180 516l41-51-13-5 19 74" />
    <path fill="#fff" d="M652 38l-2 222 169-89-102-25M466 659l-13 116 24-82 108-40" />
    <path fill="#786dc4" d="M27 722l-5-5 65-2-31 12" />
    <path fill="#ceeb00" d="M576 188l-35-7-13 42 39-12" />
    <path fill="#c7c6c7" d="M737-9l-2 175-34-125-3 90" />
    <path fill="#f9dd00" d="M355 157l-17 5 3-54 7-11" />
    <path fill="#a09fa0" d="M810 475l7 12v65l-9 11" />
    <path fill="#b6bdff" d="M34 408l-20 9 38 4 46 31" />
    <path fill="#fff" d="M491 621l-167 61 1-227-14 117" />
    <path fill="#727272" d="M818 19l69 6 55-5-27-4" />
    <path fill="#fff" d="M421-31l-21 71 95-2-227-9" />
    <path fill="#9a999a" d="M712 279l-3 12-5-88 9 2" />
    <path fill="#fff" d="M151 650l47 21-2 112-45-187" />
    <path fill="#8d8d8e" d="M885 350l-33-13 56 20-178-3" />
    <path fill="#a8a7a8" d="M814 676l1 63 9-89-11-11" />
    <path fill="#a2d2dc" d="M215 112l20-80 48 171-168-17" />
    <path fill="#fff" d="M107 709l-30-68 5 158h23" />
    <path fill="#c5c3c4" d="M1001 25l-37 14 2 36 40 3" />
    <path fill="#fff" d="M144 480l31-106-72 3 37-13m521 261l50-456-60 85-1 96" />
    <path fill="#769696" d="M748 262l27 11-49-42 24 11" />
    <path fill="#1e6712" d="M524 231l130 9H489l-26-39" />
    <path fill="#001400" d="M13 377l27-2-22 27-5 49" />
    <path fill="#ffe100" d="M477 184l5 35 31-23-3-17" />
    <path fill="#244b00" d="M320 695l-26-9 29-9 2 99" />
    <path fill="#88a1de" d="M1006 709l11 12-48 2-2-10" />
    <path fill="#000500" d="M466 106l-81 95-1 196 62-2" />
    <path fill="#083904" d="M298 586l-28 3 49-13 6 16" />
    <path fill="#fff" d="M69 154L-31-11l179 52 166-18" />
    <path fill="#1d4e00" d="M105 496l45 2-3-18-47-4" />
    <path fill="#0332e5" d="M354 311l-13 2-3-83 15 42" />
    <path fill="#fff" d="M1012 535l6 245 37-574-142 150" />
    <path fill="#fff" d="M1055 653l-439-16-42 120 48-211" />
    <path fill="#7c7b7c" d="M813 174l86 11 32-1-20-8" />
    <path fill="#fff" d="M59 461l-90-10 135 25-7-227" />
    <path fill="#132d00" d="M300 374l-35 6-1 75 14-14" />
    <path fill="#fff" d="M382 730l58 11-24-184-109 242" />
    <path fill="#efe663" d="M883 541l-22-1 50-7-6-28" />
    <path fill="#325a00" d="M103 684l47-3 12 2-47 27" />
    <path fill="#cdc216" d="M303 551l-9 2-1-83 10 55" />
    <path fill="#f5fd00" d="M663 750l3-47-45 37v-45" />
    <path fill="#fff" d="M338 422L256 47l80-78 3 83" />
    <path fill="#a2a0a2" d="M977 262l25-26-17 33-51 16" />
    <path fill="#878687" d="M891 452h79l-28-11-60 1" />
    <path fill="#d6ba2b" d="M218 444l-5-17-10 39-3-77" />
    <path fill="#fff" d="M572 695l48 49-1-96-237 7" />
    <path fill="#183200" d="M101 482v75l37-4-20-10" />
    <path fill="#7d53da" d="M214 730l25-18-5-5-32 19" />
    <path fill="#c48c36" d="M34 583l10 65-14-20-7 13" />
    <path fill="#000002" d="M189 477v50l-4 42v-88" />
    <path fill="#132cec" d="M383 748l-6-16 55 9-29 6" />
    <path fill="#fff" d="M82 659l-52 16-39 34-22-53" />
    <path fill="#1d3400" d="M54 424l-16 21-33 9 51 1" />
    <path fill="#0077f5" d="M425 708l36 7 17 36 6-27" />
    <path fill="#f7f900" d="M637 748l2-88 31-16-52 28" />
    <path fill="#fff" d="M599 22l418-11-443-42 16 65" />
    <path fill="#958e01" d="M12 436l35 6-31-56 37 3" />
    <path fill="#fff" d="M326 346l4 135-33-23 134-6" />
    <path fill="#fdffff" d="M664 717l18-100 11 24-23 140" />
    <path d="M232 543l9-8-2-55-10 16" />
    <path fill="#fff" d="M924 520l-242-81 326 18-53 120m-707-72l25 107 11 187-40-91" />
    <path fill="#645b0d" d="M236 394l-37-29 23-6-42 59" />
    <path fill="#96ffff" d="M765 283l143 10-19-9-86-3" />
    <path fill="#fff" d="M645 500l-28-49-13-55 214-1" />
    <path fill="#6feae6" d="M964 517l-4-19-12 4-10 12" />
    <path fill="#fff" d="M409-5L253 21 40 20-31-2" />
    <path fill="#cbb344" d="M314 389l-4 28-18 36-8-49" />
    <path fill="#fff" d="M952 34l-201 1-21 103 262 2M693 770l-569-9-84-7-69 13m298-412l-17 136-23-240 112-3m-7 239l46-368 4 189 1 82" />
    <path fill="#aa81e3" d="M258 626l57-13 3 12-3-2" />
    <path fill="#0a0e00" d="M231 444l10-7 2-66-14 25" />
    <path fill="#4a6d00" d="M241 602l6-19-38-2-26 21" />
    <path fill="#b3b449" d="M118 535l-6 6-2-22 11-169" />
    <path fill="#3debd6" d="M535 216h-14l-14 9 18 8" />
    <path fill="#2d3d1a" d="M290 461l1 29 3 43-8 32" />
    <path fill="#fff" d="M499 728l-3 66-16-32 18-103" />
    <path fill="#72f072" d="M566 747l37 2 2-4-2-26" />
    <path fill="#000902" d="M329 426l-4-54-9 80 9 7" />
    <path fill="#fffffe" d="M466 799l-79-114 16 71 7-76" />
    <path fill="#000400" d="M588 40l-5 217 68-154-1-63M102 454l4-80 6 68 23 13" />
  </g>
</svg>