<svg version="1.1" viewBox="0 0 1024 768" width="1024" height="768" xmlns="http://www.w3.org/2000/svg">
  <g fill-opacity=".5">
    <path fill="#080910" d="M109 462l-7.3-74.7 5-13.4 4.3 10" />
    <path fill="#767977" d="M9 708.8l38.3-40.2 9 10.3-22 3" />
    <path d="M149 586l-1-9-10.2 24.4L147 637" />
    <path fill="#fff" d="M526 715.5l127.3-68L517.7 669l5.6 45.2" />
    <path fill="#002aff" d="M352.5 277.3l-4-36-4.4 58 9 6.2" />
    <path fill="#fefefe" d="M772.3 520l-93.5-5.4 131.2.2-4.5-88.5" />
    <path fill="#8f8d8d" d="M990.6 65.7l-2.7 2.5-29-2 35-3.4" />
    <path fill="#716f71" d="M445.8 648.5h32l-3.6-13.2-24.4 11" />
    <path fill="#e2e3e2" d="M29 144.5l9.6-30.6V9L23 61.3" />
    <path fill="#fff" d="M830.4 283.7l19.5-106-75 92.3 122 16.6" />
    <path fill="#c5c5c5" d="M708.4 405.6l-5-63 7-16.8-9 44.5" />
    <path fill="#fdfdfd" d="M702.8 115.5l145-54.5-7-60 37 100.4" />
    <path fill="#000106" d="M155.4 681.5l4.7 26-13 9.5-5-32" />
    <path fill="#bfc1bf" d="M42.3 200l-26 1.5 1.4-57-5.8 40.7" />
    <path fill="#bdbcbd" d="M374.2 707l-5 10.4 1.8-1.7-36.7-6.3" />
    <path fill="#fdfdff" d="M197 659.2l-31 103.6 142-2.2-111 27.2" />
    <path fill="#fcf803" d="M633.8 730l8.2-79.3-18 49.3-5 52.5" />
    <path fill="#5bff8d" d="M354.2 211.5l-3.5-50.3-10 30 4.3 19" />
    <path fill="#f8e200" d="M338 134.6l9.6 36.2 2.8-16.4 3.2-44.4" />
    <path fill="#274300" d="M53.8 756l-11.2-3.2 7.6-27.8 7.5 20.5" />
    <path fill="#d7d2d1" d="M855.4 565.5L802.6 547l33.2-10.7-7.2 45.5" />
    <path fill="#a68e1f" d="M41.2 751.2l8.8-37.6 1.3-21-8.8 11.5" />
    <path fill="#c7c7c7" d="M958.2 223.8l-49.3-3-24 4 10 2.4" />
    <path fill="#44504c" d="M324.8 254.4l91-20 109.8 5.7-137.2 1" />
    <path fill="#fff" d="M832.2-31L596.8 38.6l131.2.7 31.8-42M491.3 704l-129.6-12 82-48.8 59.6 121" />
    <path fill="#999" d="M818.4 643l2.6 14.2-.4 61L815 676" />
    <path fill="#d6ecb9" d="M248.8 155.5l17-13.3-54.2 25.6 17 13.6" />
    <path fill="#7dff79" d="M568.3 637.3l43.5 12.3-28 .7-15.2-6.4" />
    <path fill="#fff" d="M832.7 347.6h-51l-21.4-1.4-87.7 7.5M-31 601L9.3 799 13 563l15 6.3" />
    <path fill="#adadad" d="M830 324.7l-46 .6 26.5-9.8 64.3 7.2" />
    <path fill="#ff1400" d="M741 711.2l14.5-5.2 2.6 34.8-16 3.2" />
    <path fill="#a19e9d" d="M773.6 275.6l8 6-22-18.6 49.4 15.3" />
    <path fill="#b5b4b5" d="M904 312.4l-8.2-11.7-9 8.3.7 5.4" />
    <path fill="#fefffe" d="M786.2 495L546 483l155.6 27.5-45-14" />
    <path fill="#236cdd" d="M147 711.8l-3.6 3.3 3.2 8 13.6-2" />
    <path fill="#7cba06" d="M315.6 445.3L297.2 456l-7.7-1.2-10.8-24.6" />
    <path fill="#fff" d="M79.5 631.5l-29.8 53.7 99.5-25-74 .4M670.5 527l-29.3 4.3 167-.6 6.4-3.5" />
    <path fill="#ba7e8f" d="M27 615.6l11.6-7L42 621l-5 9.6" />
    <path fill="#f9f9f9" d="M655.7 505l29 4.7 101.6-4-36-3.4" />
    <path fill="#dfe1df" d="M369.8 329l-121.4-6-3.3 14 79-1.6" />
    <path fill="#fff" d="M547.7 549l-64-136 3.6 28.4-82.7 65" />
    <path fill="#bebfc0" d="M704.3 278.2l3-80.7 7.2 66.6 36-11" />
    <path fill="#a57a21" d="M215.2 556.6l6.2-38 7.2-20.2-21-1.8" />
    <path fill="#777677" d="M462 21.6v11l-46.4-15.4 9.5 8.4" />
    <path fill="#b3b2b3" d="M842.6 145.5l23 .8-13 16.2 14.7 4" />
    <path fill="#fff" d="M204.8 338.8l19-42-112-33 38.7-3.4" />
    <path fill="#8e8e8e" d="M887 604l-3.5 4 41.4 9.3-38-19" />
    <path fill="#a4a3a4" d="M543 583l-9 12.5-3.4-9.7 9.3 9.5" />
    <path fill="#d39639" d="M293 616l-13.5 3 35.8-29.5-.8 26.4" />
    <path fill="#000701" d="M323.5 653.6L322 656l-10.2 2.7 4-30.5" />
    <path fill="#fff" d="M903 753.5l-51.5-57 18.6 58 23-56.7" />
    <path fill="#162307" d="M16.5 649l2.3-53-4.4 60.3 44.3 1.6" />
    <path fill="#fff" d="M725.3 722.4l-38-49L693 604l8.4 119.3" />
    <path fill="#ff1f00" d="M352 100V43.5L340.3 91l7.2 14" />
    <path fill="#bec1bd" d="M44.3 330l5.3-6.6h-26L45 343.8" />
    <path fill="#fff" d="M517.3-31L515 33l-10.6-14.4L271.6 24" />
    <path fill="#8c8eec" d="M1003.3 547.3l8.8 7.7-16 2.5 1-36.6" />
    <path fill="#011c00" d="M276.3 581.6l51 .2-46.6 10.6-5.4 70.7" />
    <path fill="#71707f" d="M292.4 672.4l.7-1 8-5 18 9.6" />
    <path fill="#71aa04" d="M117.6 736.3l29 21.6-1.6-23-23.2 30" />
    <path fill="#6357aa" d="M180.6 429l24-14.7 18.3 5.5-2-15.3" />
    <path fill="#949494" d="M686 501.2l62.2-3-60 1.4-2.8-34.2" />
    <path fill="#fff" d="M951.5 464.7L1001 410l12 117-51 7.6" />
    <path fill="#f7f7f8" d="M800.6 336.7l-3.4 21.6-108.2 4 119-2" />
    <path fill="#787979" d="M867 281l-14.5-3.6-15-10 15 6.8" />
    <path fill="#657500" d="M21 595l12.7-11.2.6.3 8 34" />
    <path fill="#fff" d="M747 500.5l90-104.8-272 9 210.4 73" />
    <path fill="#7b7b7b" d="M793 352.2l-29.8 4.8 36.5-.8 10.4-3.7" />
    <path fill="#000e00" d="M16.2 550.8l-4-67.7 24-5-16 19" />
    <path fill="#b3ddf5" d="M100 306l157.5-79 17.4 20.5-51 5.8" />
    <path fill="#fd7900" d="M690 748l5.3-27.6L697 709l-19-1" />
    <path fill="#fff" d="M818.4 483.2l-15.7-3-152.7-.8 28.7 4.6" />
    <path fill="#262906" d="M233 623l10 29.5 3.4-29-3-26.7" />
    <path fill="#fefefe" d="M104.7 389.2l-49.4 79.2 2-95-28-78.4" />
    <path fill="#a8a8a8" d="M701.8 131.5l.3-82 5 71.6-10-2" />
    <path fill="#7b7b7b" d="M419.6 428.3l74-9 32.6 9h-17.5" />
    <path fill="#fff" d="M743.2 669.3l76 96.5-13-123-210.6 18.4" />
    <path fill="#f8f9f9" d="M650 539.8l132.3-1 51 21.6.2-11.6" />
    <path fill="#fff" d="M606.8 799l-7.5-268.3 22 228.8 194 .5M287 579l-32.2-.5-8-113.6 40 9" />
    <path fill="#0f2600" d="M325.8 456.2l.5-65.4.8 13-21 50.7" />
    <path fill="#354d00" d="M35 426.3l-6 26.4-9 2L9 456" />
    <path fill="#fff" d="M128 761.8l205.2 4.4L28.6 799l-42.3-45.5" />
    <path fill="#7e969a" d="M746.4 243.4l12.8 18.8-14.6-13-11.7-16.7" />
    <path fill="#0d2707" d="M201 477.2l38.2.3 1.5 13-11.5-7.6" />
    <path fill="#feffff" d="M908 291l51.5 30.5-64.2-7 76-26.5" />
    <path fill="#7d7d7d" d="M891.8 180l1.3-7 30 10-51-.7" />
    <path fill="#1245f1" d="M389.6 747.6l-11.5-18 26 2.7-6 5" />
    <path fill="#616761" d="M355.8 163l71-1.5 93 .7-98.6 3.2" />
    <path fill="#b6b6b6" d="M683.7 508.3v5.6l113.4-2-59-3" />
    <path fill="#969697" d="M859.7 352.4l-31.4 5.3-74.8-7-29.6 6.5" />
    <path fill="#fff" d="M78 755.2l3.2-60L121.7 799-31 756.6m305.3-99l-31 89.7 4-116.7 28-92.3" />
    <path fill="#90b915" d="M53.5 652L42 658l-31.7-18 53.2 12" />
    <path fill="#5ded22" d="M578 210.7l3.3-37.8-12.5 18 3.3-3" />
    <path fill="#162312" d="M63.7 480.2l-11-2 6 38.8 1.2-1.4" />
    <path fill="#fff" d="M371.4 506l66 180.6 2 45-39.5 7" />
    <path fill="#84b300" d="M115.4 539.3l4.5-9-14 4.3-3 12.2" />
    <path fill="#1c2a07" d="M118.3 756.8l-12.6-56 2.5 58.5 52.8-1" />
    <path fill="#419a05" d="M453.6 188l34 32.3-23.2-4 66 19.3" />
    <path fill="#feffff" d="M216.5 676.3l36.8 4.6-132.7-1 52.4-14" />
    <path fill="#384600" d="M193 390.3l-14.3-11-2.5 45 13.4 16" />
    <path fill="#f8f8f9" d="M846.2 364.3l-127.2 8 121-2.5-30.6-47" />
    <path fill="#b5b4b5" d="M799.2 303.6L785.7 325l16.4-1.7-22-18" />
    <path fill="#838383" d="M796 376l72 3-22-5-14-2.3" />
    <path d="M217 761l22.5-2.7v-15l-11-5" />
    <path fill="#0186f8" d="M438.2 700.2l18.4 6 4.7-8.3-13 53" />
    <path fill="#9a9ba8" d="M203.8 354.5l20.4 16.2L209 369l-12.3-2" />
    <path fill="#858585" d="M827.2 18l32.4-5.3 6.5 9-46 1.3" />
    <path fill="#fff" d="M889.5 162.2l1.8 19.5L742 234.2l127 41" />
    <path fill="#0c1109" d="M295.5 758.5l6.5-10-11-45.5 1.3 45.8" />
    <path fill="#feffff" d="M347.2 461l13.7 66.5-4-73.5-146 5" />
    <path fill="#7562cd" d="M205 736l24.6-18.4.5-3.3-21 7.5" />
    <path fill="#ce7b44" d="M234.3 622l-5.2-13.3-11-8.4-10 15" />
    <path fill="#ececf0" d="M435.3 601.6l53 .8 3.7-32.8-116.6-.6" />
    <path fill="#fff" d="M918.4 615.7L1055 739l-126.3-72-3.3-81.5" />
    <path fill="#a6a4b2" d="M311.3 572.6l-9.6-12h1l-25.3 11" />
    <path fill="#fff" d="M689.6 480L647-1l54-5.7-3 112.6" />
    <path fill="#6d6d6e" d="M488.5 31.2l-69-9 3.7 7.3 19.2-1" />
    <path fill="#fff" d="M527 27.7l-.4-40.7 68 37L627-31" />
    <path fill="#000300" d="M643 167.5l8-128.2-133.5 3 69 10" />
    <path fill="#ec3107" d="M783 752.2l.5-29.8-16.3-.7-2.8-.4" />
    <path fill="#a6a6a6" d="M815.6 528.7l-2.3 32-3.6-62 3-18.4" />
    <path fill="#00f7f4" d="M499.2 750.3l2.3-44 19.4 33.3-6 6.5" />
    <path fill="#587f00" d="M236.4 586.4L209.7 604l-15 33 6-47" />
    <path d="M38.4 594.6L57 624.8l3.8-43.8-7.4-1.5" />
    <path fill="#e5e5dc" d="M458.7 756.6l3-86.3 1.6 50L465 799" />
    <path fill="#9aa487" d="M118.8 578.4l14 22.6-24.5-38.2 26.6 4.7" />
    <path fill="#989898" d="M966.5 214.4l-24.2 3.7-59-3 21.3-2" />
    <path fill="#b8b8ba" d="M674 474.4l.6 1.5 108 5-45.6-9" />
    <path fill="#aed300" d="M120.8 375.8l-8 8.8 7.5 22.7 2-12.4" />
    <path fill="#4b554c" d="M581 58.2l-2-23-1.5 24.3 1 139.8" />
    <path fill="#d5d7d3" d="M397 481.8l5.3-56.6-1.8 121.8-1 15.6" />
    <path fill="#eaebf1" d="M878.8 13.5l-42.2 117.2 24-103.8 53.8 115" />
    <path fill="#fff" d="M353.6 39.7l157-2.4-57.6-3-69-4" />
    <path fill="#d7d6d7" d="M1005.2 298.7l-.4 17L998 304l-114.7-3.5" />
    <path fill="#b4b4b4" d="M763.2 532.6l4.2 4.4-82.3-.3v-6.3" />
    <path fill="#eab331" d="M216 437l-14 4.7-5-15.5 7-15.7" />
    <path fill="#fff" d="M73.2 578.8l180 1-211.5-6.4 27.7-18.8" />
    <path fill="#608c00" d="M304.7 535.7l-10.2.8-7 21 18.5-11" />
    <path fill="#fff" d="M1055 19.6l-209.4-8.4 8 55.2-21-96.5" />
    <path fill="#000400" d="M59 536l5 17-48.3 2 38.6-9.5" />
    <path fill="#feffff" d="M432.5-31l-249 104.3 286-74.6-36.5 30" />
    <path fill="#fff" d="M98.7 604.4l-37 67.8L61 578l16.3-208.5m43-343.7L97.5 202.5l-76.4-37-3 43.4" />
    <path fill="#e8dbd7" d="M728.8 110.8l88-54 52.8-40L833 39.5" />
    <path fill="#7cfa7b" d="M601.3 715.7l1.3 33-38-22.3 3.3 21" />
    <path fill="#fff" d="M222.2 27L42.5 170 158.3-25l-36.5 54.8M492 409.3l-13.3-6 20.3 69.3-26.7 51.4m-468-70l31.3 2.6-44.4 38.7L22 204" />
    <path fill="#f5f5f6" d="M885 352l-19.2-6.6 105.8 5.7-164-4" />
    <path fill="#1f5400" d="M315 592l7.6-14.8-5.4 75.7 6.6-59" />
    <path fill="#72f100" d="M508 181.8l9.4-9.8-5.4-5.6-39 21" />
    <path fill="#021e00" d="M45.2 688.4h29.3l4.2 33-12-17" />
    <path fill="#8b75ac" d="M323.8 614.8L287.6 627l-16.5 1.2 8-9" />
    <path fill="#6b6974" d="M20.8 465.6l5.4-1.7h16l1.6 7" />
    <path fill="#000f00" d="M302.8 553l10.3 2.6-2-49.2-1 42.3" />
    <path fill="#727272" d="M888.8 450.7l1.8-11.4 29.5 14-11-2.8" />
    <path fill="#77a000" d="M33.7 455.5l-7.3-16.2-15 11.7 37-16.4" />
    <path fill="#fff" d="M158.6 656.4l154.7 4-170.5 10 29.8-52.8" />
    <path fill="#f9fcff" d="M679.5 726.4l-3.7 72.6-13-78.6 19.8-101" />
    <path fill="#011b00" d="M127.7 447l-23.3 5.6 37 2.5-5.4-18" />
    <path fill="#fff" d="M898.4 445.2L831.8 496l28.6 71.6 3.3-15.5" />
    <path fill="#d2e5ef" d="M215.3 37.4l22.2 60-24-34.5 80.2 16" />
    <path fill="#fefb00" d="M621.4 656l1.5 93.5 17-5.2-11-65.7" />
    <path fill="#99ff95" d="M698 641.3l26 10-6.5-15.3-14.6 4" />
    <path fill="#8c8c8c" d="M729.5 61.4l-14-.7 1.6 5 23-1.4" />
    <path fill="#fff" d="M427 430.2h330.3l-355.7 72 26.7-86.6" />
    <path fill="#9c9c9c" d="M970.3 57h12.5l-13-17.7 16.7 1" />
    <path fill="#9dbf0e" d="M194 532.5l.6-32.8 18.2-19.8-21 10" />
    <path fill="#154907" d="M545.6 150.6l-91 43.7-11.3 3.5 29.6-23.4" />
    <path fill="#afb1af" d="M617 557.6l.2-89.3.8-38 1.2 28.2" />
    <path fill="#a6dda5" d="M931.8 718.8l5.3-8-14 2 2 14.4" />
    <path fill="#fff" d="M593.7 645.4l1-39.6-152 34.8 134.7-7.3" />
    <path fill="#0f2100" d="M177.7 387l12 67 43 1-55.7-6" />
    <path fill="#6e8500" d="M232.5 625.3L197 635.8l-7 9.4 37.3 4.8" />
    <path fill="#f3f674" d="M908.8 520.2l-10.5 21.3-4-35 10.4 6" />
    <path fill="#fefff5" d="M184.8 214.6l-9.8-25 23.8 1.4-3.2 34.6" />
    <path fill="#96d4e6" d="M271 149.7l-68.4 64.6-9.4-24 74-13" />
    <path fill="#fff" d="M422.7 750.6l7-45L452 799l-117.4-49.5" />
    <path fill="#8f8f8f" d="M937 160.5l-.4-3.2-24.8 4.7 16.8 4" />
    <path fill="#c0bfc0" d="M855.2 314.7l-18-12.7-2.7 15.5v-4" />
    <path fill="#000900" d="M569.3 296.4l-101 31.4.3-89 101.7 2.4" />
    <path fill="#fff" d="M931.2 279.3L770 144l-33.6 5 19.3 112.3" />
    <path fill="#b8b7b8" d="M554.2 610.8l45.5-22-14.7-2.2-10.6 19.2" />
    <path fill="#fff" d="M190 345l-52 132.4 10.6-117 218.2.8" />
    <path fill="#7afaf4" d="M960.2 286.2l-54 4.4-40.5-1.7 60.2-4" />
    <path fill="#effcef" d="M773.4 387.5l4.7 100.7-9-141.2-7 34" />
    <path fill="#fff" d="M383.5 274.8l-21.6-86-6-2.3 25-178" />
    <path fill="#414700" d="M195.3 520.6l15.8-4 3 35.4-16-31.3" />
    <path fill="#fff" d="M792.2 299.5L664 295l60.6-10.8L936 292" />
    <path fill="#0b2708" d="M183.7 485l9 67.8-7-55.4 23-21.8" />
    <path fill="#dfdfdf" d="M922.3 377.2l-8 14.7-2-57-8.7 70" />
    <path d="M596 244l38 26.4L651 392l-48 4.8" />
    <path fill="#d5e0eb" d="M137.3 151.2L226 76.7l-82.4 91-11.3 77.2" />
    <path fill="#9a9a9b" d="M890.8 346.8l-106.3-1.6L834 341l91 4" />
    <path fill="#fff" d="M321.3 680.5l-91.6-22L289.4 772l-5.5-92" />
  </g>
</svg>