<svg version="1.1" viewBox="0 0 1024 768" width="1024" height="768" xmlns="http://www.w3.org/2000/svg">
  <g fill-opacity=".5">
    <path fill="#d0d0d0" d="M680 476l5 48 116 5-39-60" />
    <path d="M243 688l-10 48-9 20 19 6m78-181l-43 1v63l7-57" />
    <path fill="#c2af40" d="M116 587l-3 27 2 50 20-77" />
    <path fill="#fff" d="M463 651l144 42-88 22 1-31" />
    <path fill="#c1a7de" d="M289 426l-2-18 6 3 22 4" />
    <path fill="#d3d5d4" d="M223 336l121-11-163-1-19 25" />
    <path fill="#8d8b8e" d="M316 372l-4-3-24 3 4-15" />
    <path fill="#fff" d="M10 454l20 20-61 12 42-171" />
    <path fill="#6f726f" d="M275 22l-4 7-55-2 27-6" />
    <path fill="#d8b7b7" d="M203 622l-7-2 32-4-12 13" />
    <path fill="#fd6f00" d="M696 701l3 8-1 38-18-9" />
    <path fill="#fff" d="M58 360l-1 83 39 172 6-173" />
    <path fill="#788e00" d="M189 514l2 5 42 17-32 20" />
    <path fill="#fff" d="M287 681l7 118-59-140 90 22" />
    <path fill="#5770c2" d="M137 714l-14 16 32-11-2-7" />
    <path fill="#efeee9" d="M546 563l-207-22 57 44-146-9" />
    <path fill="#8e6bc8" d="M225 410l-32 19-8-9 17-7" />
    <path fill="#fff" d="M332 559l-9 58 192 27-243-90" />
    <path fill="#001b00" d="M322 653l-45 2-2-42 8 37" />
    <path fill="#fcfcff" d="M251 583l-65-2-82-4 42-12" />
    <path fill="#fff" d="M159 799l19-484-14 82 22 100" />
    <path fill="#4b4c00" d="M227 683l-30 59 2-33-3-26" />
    <path fill="#fff" d="M185 682l65-2-10 119 58-132" />
    <path fill="#f67c04" d="M687 704l34 53 2-32h-44" />
    <path fill="#9e9d9e" d="M426 604l165-3 5-19-17 25" />
    <path fill="#fdffff" d="M746 774l-44-90-2 62 27-75" />
    <path fill="#00fff8" d="M502 745l-3-54 42 54 2-37" />
    <path fill="#fff" d="M854 799l-68-1-3-94-18-107" />
    <path fill="#888182" d="M828 276l22-8 11 15h70" />
    <path fill="#2d5500" d="M245 628l-67 21 49 9 19-9" />
    <path fill="#193f00" d="M216 378l21-2 3 22-67-23" />
    <path fill="#84af00" d="M22 728l39 22v-28l-38 28" />
    <path fill="#a3a2a3" d="M1055 143l-182-4-105 4h142" />
    <path fill="#a080e4" d="M323 712l-13 1-32 8h40" />
    <path fill="#273a02" d="M124 755l-19-50 6-33-5 92" />
    <path fill="#f9fffa" d="M214 235l-29-62-6 40 153-2" />
    <path fill="#213800" d="M62 555l-21-21-1-21-30 43" />
    <path fill="#b1ff33" d="M340 161l4 38 12-7-9-65" />
    <path fill="#737373" d="M882 610l14-4 68-1 6 9" />
    <path fill="#7ffffc" d="M944 288l50-4 33-1-234 4" />
    <path fill="#5d7fea" d="M208 507l-20 6-5 5 28 1" />
    <path fill="#80aa00" d="M309 454l1-27-38-1 17 26" />
    <path fill="#fff" d="M145 455l-54 1-33 8 275-4" />
    <path fill="#0f3800" d="M232 494l-45-18 23 3 31-1" />
    <path fill="#0f1d00" d="M176 437l1 18 13-4-9-55" />
    <path fill="#e3e5e3" d="M45 316L37 60 22 338l157-5" />
    <path fill="#fff" d="M245 482l41-27-1 125-47-10" />
    <path fill="#be90e6" d="M119 632v-6l-1-17 12 11" />
    <path fill="#fff" d="M243 471l-73 9-76-13-6 10m562-288l350 38-22 41-70 12M95 799L63 492l1 172h46" />
    <path fill="#192c00" d="M12 687l36 4-24 10-11 57" />
    <path fill="#817d22" d="M223 571l-19 31 38 4-38-40" />
    <path fill="#787879" d="M805 340l-48 6h85l10-3" />
    <path fill="#fff" d="M1042 356l10 93-207-14 28-78M552 639l-10 54 32-77-255-9" />
    <path d="M652 395l-2-12-1-98-179 110" />
    <path fill="#ababab" d="M888 186l7 27 98 3-104 3" />
    <path d="M387 197L488 43l-102-5-2 71" />
    <path fill="#284c02" d="M63 501l-20-16-25-8 43 1" />
    <path fill="#73b1e5" d="M980 528l5 21-11 1-9 3" />
    <path fill="#fff" d="M365 25L862 3 655 42 530-31" />
    <path fill="#828184" d="M40 363l4 10-25-5 6-5" />
    <path d="M140 687l13 27 10-35 1 1" />
    <path fill="#1f3c17" d="M524 176l47-18 8-101 4 121" />
    <path fill="#fff" d="M908 592l108 22-72-104-20 106M529 397h100l-65 25-143-14" />
    <path fill="#e4dab1" d="M880 711l-59 33 94-31-7-9" />
    <path fill="#000409" d="M315 633l5 28 4-9-5-42" />
    <path fill="#909090" d="M699 89l-6 34 12-72-1 75" />
    <path fill="#fff" d="M358 420l254 36 3 89H428" />
    <path fill="#31ae0d" d="M455 196l86-34-1 20-30-21" />
    <path fill="#d7e9f2" d="M56 223L227 94 88 146l82 107" />
    <path fill="#011800" d="M98 628l10-16 12-28-18-3" />
    <path fill="#031700" d="M24 625l12-48-22 9-1 54" />
    <path fill="#c27eba" d="M131 520l1-7-17-2-3 14" />
    <path fill="#ead7d0" d="M524 732l-6 67 2-133 3 48" />
    <path fill="#878788" d="M799 361l11 21-7-13-68-5" />
    <path fill="#000500" d="M245 583h-72l23 23-4-15" />
    <path fill="#a994c9" d="M132 415l-24-12-24-51 34 70" />
    <path fill="#000f0a" d="M107 759l52-4v-66l-18 72" />
    <path fill="#aca829" d="M60 652l-15-9-18-86 13 99" />
    <path fill="#fefeff" d="M385-9l-27 129 25 70V71" />
    <path fill="#123211" d="M310 549l2-14 2 21h-31" />
    <path fill="#365d00" d="M314 477l-3 43-11-29-15-12" />
    <path fill="#aeb2af" d="M27 165l12-1-23-6-2 40" />
    <path fill="#a1cde8" d="M219 55v68l64-20 9-19" />
    <path fill="#1f3d00" d="M314 752l12-36-3 44h-35" />
    <path fill="#aa8f94" d="M53 497l-36 30 39-15-4-20" />
    <path fill="#020007" d="M148 477l-9 1 8 39 3-34" />
    <path fill="#babe02" d="M140 694l3-6-1 68-4-7" />
    <path fill="#fff" d="M300 376H198l143-115-179 27M-22 25l226 87 1-92 10 12" />
    <path fill="#7e6d5b" d="M232 669l-26-5 39 98-34-84" />
    <path fill="#7a1000" d="M354 38l-2 30-13-36 14 2" />
    <path fill="#cccac3" d="M772 357l-23 26 153 12-180 2" />
    <path fill="#89ff85" d="M606 641l21 7h72l-31-11" />
    <path fill="#0072fd" d="M455 700l-15 4 4 41 15-2" />
    <path fill="#fff" d="M900 440L789 703l-86 1-31 3M243 456l60 22H195l120-20m740-339l-133 58 8 14 121 3" />
    <path fill="#000500" d="M52 384l-3 40 7-45-30-2" />
    <path fill="#717076" d="M133 363l-22-3-2 9 5 1" />
    <path fill="#a7eda8" d="M930 558l-1-6-14-8 21-20" />
    <path fill="#fff" d="M541 782l15-196 4 171 219-9" />
    <path fill="#f42100" d="M739 730l20-31 2 38-10 8" />
    <path fill="#0e280b" d="M293 710l-2 89 1-120 11 5" />
    <path fill="#001b00" d="M71 750l-56 5-1-59 9 53" />
    <path fill="#797c78" d="M262 24l-130-3-37 5 40 3" />
    <path fill="#ba95d1" d="M306 515v14l-8-6-7-10" />
    <path fill="#979698" d="M413 429l-17-14 112 13-61 2" />
    <path fill="#e8e5e5" d="M888 26l-15-12 14 35-150-19" />
    <path fill="#96c9e8" d="M155 230l40-71 10 34-95-25" />
    <path fill="#aeadae" d="M349 630l2 60-4 39-6-62" />
    <path fill="#fff" d="M452 39l117-1h63l-181-8" />
    <path fill="#f9fbfa" d="M415 749l344-1 11-60-13 111" />
    <path fill="#fff" d="M165 799l-12-266 24 43 2 31" />
    <path d="M241 454l-2-82-8 59-12 21" />
    <path fill="#8d8d8e" d="M734 347l105-6H724l24-4" />
    <path fill="#fff" d="M819 383l4-14 155 5-185-19" />
    <path d="M43 621l-1-41 14 8-2 63" />
    <path fill="#b3b2b3" d="M920 322l-140-1 166 5 18-28" />
    <path fill="#a4a4a8" d="M138 574l-54-5 29 1 3-9" />
    <path fill="#fff" d="M857 407l-200-19 121 97-9 61" />
    <path fill="#f31400" d="M764 723l21-1-9 29-6-23" />
    <path fill="#cc8781" d="M855 560l-6-18 9 27-20-7" />
    <path fill="#5a7d00" d="M284 411l-16-28h45l19-6" />
    <path fill="#fff" d="M326 686l55 67-4-26-52 46M838 29L496-31l14 69 11-22" />
    <path fill="#34da02" d="M542 231l41-32-52 20-8 17" />
    <path fill="#c99128" d="M118 699l4 67 5-69-8 6" />
    <path fill="#000c00" d="M68 755h-8l15-63 4 60" />
    <path d="M186 506l1 22-2 27 13-3" />
    <path fill="#fff" d="M653 3l-41 39 89-15-51 423" />
    <path fill="#334132" d="M462 128l3 120 4-88-3-142" />
    <path fill="#7b7a83" d="M37 574l-12-7 16-3 5 9" />
    <path fill="#ba8206" d="M207 750l4-15 26-19-21 43" />
    <path fill="#fff" d="M35 478l-66-7 43 233-1-250" />
    <path fill="#fff" d="M14 557l118 2-145 8-18-75m427-68l85-27-152 1v59" />
    <path fill="#e2e1d2" d="M615 546l-148 19 157-4-7-63" />
    <path fill="#5d8e00" d="M221 645l-44-57 30 68 23-9" />
    <path fill="#444945" d="M418 198l41-6-39-1h-40" />
    <path fill="#89bd00" d="M211 450l-2 6-26-21 28-3" />
    <path fill="#181e03" d="M287 556l8-18-5-45v16" />
    <path fill="#fff" d="M509 648l-53 71 42 3 5-90" />
    <path fill="#7c7c7d" d="M863 19l77-3-12 12-29-8" />
    <path fill="#bf8e3a" d="M49 422l-8 30-17-53-5 30" />
    <path fill="#fff200" d="M537 221l-1-8 6-17 36-3" />
    <path fill="#383939" d="M577 385l-1-22 2-140 4 153" />
    <path fill="#d1e8e6" d="M268 193l-35-35 34-64 40 73" />
    <path fill="#fbfbff" d="M202 567l-126-9 121-2 114 25" />
    <path fill="#749d02" d="M19 386l26-3 13 30-5 4" />
    <path fill="#d3a731" d="M58 759l3-54 2 6-7-20" />
    <path fill="#fff" d="M357 327L75 356l235 6 85 54" />
    <path fill="#cbb306" d="M300 726l8 1 15 12-16 23" />
    <path fill="#fff" d="M399 669l-87 13 62-142-40 138m649 58l57-125-49-64-26 71m-67-221l156 112-94-217-40 164" />
    <path fill="#618a31" d="M100 488l42 6-31-28 26-6" />
    <path fill="#a7c000" d="M287 595l-4 21 39-17-15-17" />
    <path fill="#727272" d="M603 419l-89 9h95" />
    <path fill="#fff" d="M478-31L378 41l53-4-136-7" />
    <path fill="#e28dff" d="M509 220l14-3 11-31-23-8" />
    <path fill="#707f00" d="M191 504l37 4-1-25-39 6" />
    <path fill="#adcde5" d="M141 313l105-149 21 25-102 43" />
    <path fill="#7c7f64" d="M121 679l25-8-27-6 12 55" />
    <path fill="#000a00" d="M181 656l-2-57 24 52 36 2" />
    <path fill="#00cfff" d="M347 190l-9 47 12 37 3-40" />
    <path fill="#0d2103" d="M265 454l-1-65 6 7 23 60" />
    <path fill="#adadac" d="M819 485l-25 42-120-5 123-1" />
    <path fill="#475f13" d="M23 642l20-77-32 92h36" />
    <path fill="#fff" d="M1029 30l-105-2 70-59 29 9" />
    <path fill="#525a53" d="M463 354l3-156v117l1 93" />
    <path fill="#fdfeff" d="M86 660l128-3 150 3-137 4" />
    <path fill="#fff" d="M844 716l5-113 206 59-275 77" />
    <path fill="#f9e712" d="M513 218l-22-42-25 20 38 20" />
    <path fill="#6fdbd7" d="M942 701l3 6 16 4-4-10" />
    <path fill="#a3a4a5" d="M786 492l-16-1-100-6 115 1" />
    <path fill="#183300" d="M106 679l6 83 1-55 7-22" />
    <path fill="#274c25" d="M581 325V199l75-4-81-9" />
    <path fill="#fff" d="M207 655l-46 144 20-315-4 184" />
    <path fill="#223106" d="M19 531l15-54H10l6 24" />
    <path fill="#9a620b" d="M206 683l-4 33 5 2 28-6" />
    <path fill="#fff" d="M68 366l36 7-15 341-28-79m994-283l-35-146-177-1 147 11" />
    <path fill="#8c9100" d="M314 628h-36l6 29 15-17" />
    <path fill="#bdc2c1" d="M732 185l3 95 2-81-23-8" />
    <path fill="#a5a4a5" d="M979 156l-10-2-5-6 17-7" />
    <path fill="#213900" d="M146 558l-46-7 40-22 11 23" />
    <path fill="#716969" d="M866 282l61 1 39-6-90 5" />
    <path fill="#94b8b7" d="M957 200h15l15 6-97-4" />
    <path fill="#787b00" d="M59 511l-36 18 5 10 32 3" />
    <path fill="#8eb500" d="M51 503l-35-5 25-18 11 2" />
    <path fill="#8d8000" d="M132 582l-21 17 7 8 24 24" />
    <path fill="#fff" d="M13 708l-44 44 143 10L9 799" />
    <path fill="#c9c8c4" d="M706 724l-6 75v-65l11-15" />
    <path fill="#0077f0" d="M482 716l-19 13 10 16 11 3" />
    <path fill="#0e1b0c" d="M196 684l7 77 30-3-33-5" />
    <path fill="#fff" d="M141 453l-16 25 51-15-38-143" />
    <path fill="#212f2a" d="M10 444l13-49-11-24-1 44" />
    <path fill="#7d7c7e" d="M592 22l-86-1 13 4 54 7" />
    <path fill="#060f00" d="M278 554l34-19v-41l-6 44" />
    <path fill="#b6b8b2" d="M753 116l-24 9-13 2v-8" />
    <path fill="#a7d602" d="M123 658l-10-9-1-29 13 25" />
    <path fill="#2e4200" d="M327 681l-2 39-13-36 9-3" />
    <path fill="#b8b7b8" d="M918 163l26 6-49-24 30 3" />
    <path fill="#757a64" d="M300 366l-13 10 3 28-6-44" />
    <path fill="#fff" d="M40 457l121 20H42h11" />
    <path fill="#b2b1b2" d="M713 40l39 4-55 4 7 12" />
    <path fill="#000f06" d="M239 710l6-29-48 2 35 4" />
    <path fill="#8ef9f8" d="M988 279l-38 11 24-5 40-43" />
    <path fill="#fff" d="M302 373l-183 3-56-7 61 3" />
    <path fill="#fdffff" d="M763 701l-123-31 1 82 4-44" />
    <path fill="#a6c111" d="M19 740l12-13 4-14-2 33" />
    <path fill="#fff" d="M955 275l-78 7-218-143 136 29m-31 531l-78-15 158 42-85-6" />
    <path fill="#fbfbfa" d="M586 645l-3 135-4-74 34 21" />
    <path fill="#fff" d="M70 686l-34-7-67-67 55 75" />
    <path fill="#ea2e10" d="M728 745l59 2-23-24 5 22" />
    <path fill="#fff" d="M803 545l18 66-285 31 58-48" />
    <path fill="#062f01" d="M568 210l-90 63-7-51 98 20" />
    <path fill="#fcfdff" d="M740 760l-1-54-39 93 158-79" />
    <path fill="#fff" d="M264 419l-23-89 2 118-2 130" />
    <path fill="#525655" d="M511 240l62-2-104-1 19 2" />
    <path fill="#b7b6b7" d="M789 139l-64 3 77 2-9 9" />
    <path fill="#1a3400" d="M227 544l-9 9 25 4-14-33" />
    <path fill="#4593e8" d="M517 186l-4-20 7-1 13 21" />
    <path fill="#fff" d="M113 556l-2 23 109-5-182 4" />
    <path fill="#010400" d="M129 449l12-13-5-64-8 22" />
    <path fill="#304400" d="M139 477l-40 1 5 70 10-63" />
    <path fill="#00f9f8" d="M522 685l-13 48-10-45 8-7" />
    <path fill="#c3bf47" d="M187 514l12 26-8-57 5 28" />
    <path fill="#717171" d="M601 25l18 9V23l-22-4" />
    <path fill="#fff" d="M186 485l-33 102-4-57 8-126" />
    <path fill="#e5e952" d="M895 703l10 1 5 5-8 12" />
    <path fill="#314d2f" d="M210 540l-16-55 15-20-8-6" />
    <path fill="#85ca00" d="M116 422l8 34-7-6-6-11" />
    <path fill="#80f4f0" d="M757 284l77 4-74-9-27-54" />
    <path fill="#101d08" d="M47 381l8 31v-32L6 390" />
    <path fill="#89a0f1" d="M779 392l28-3 1-14 1 5" />
    <path fill="#faffff" d="M681 776l-10-38-34-107 42 81" />
    <path fill="#f3f4f5" d="M635 462l68 29 2 105 6-135" />
    <path fill="#fff" d="M143 679l-84-19-56-1 115 21" />
    <path fill="#85c000" d="M141 686l2 25-8-15-22-12" />
    <path fill="#fff" d="M274 608v49l-17-119-30 31m467-239l21-65 62 23 6 43" />
    <path fill="#959596" d="M847 347l-11-5 61-1-19 5" />
    <path fill="#001400" d="M323 381l3-1-57-3-8 6" />
    <path fill="#fff" d="M744 20L132-31l61 72-14-24" />
    <path fill="#8c8da0" d="M221 574l-19 3-3-13 17 5" />
    <path fill="#fff" d="M1055 202l-91-49 22 99-180 36M440 13L-1-31l-5 352L34 22" />
    <path fill="#fefeff" d="M400 619l35-53-130 14 23-59" />
    <path fill="#fff" d="M892 561l3-74-21-93-35 27" />
    <path fill="#6e566e" d="M510 642l27-2 12 5-26 4" />
    <path fill="#8a8a8a" d="M845 184l-27-1-3 5v-13" />
    <path fill="#4e76cd" d="M93 703l-24 9 10 10H46" />
    <path fill="#9c82c6" d="M122 615l11 13-39-14 39 1" />
    <path fill="#c8c7c8" d="M737 309v10l-11-13 10-39" />
    <path fill="#75f177" d="M558 719l20-18 2 57 3-5" />
    <path fill="#09150f" d="M14 555l27 1 27-9-56 2" />
    <path fill="#2e3b2f" d="M578 166l-57-6 133 2-57 4" />
    <path fill="#fff" d="M364-31l-10 133 59-133 9 66" />
    <path fill="#aa9707" d="M536 169l-3 36 34-18-34-15" />
    <path fill="#d0cecc" d="M1005 151l-3-79-6 62-5-38" />
    <path fill="#dfd9d0" d="M417 559l104 3-175-11 35-19" />
    <path fill="#c4c7c3" d="M192 332l-6-4-25 14 39 5" />
    <path fill="#fff" d="M529 401l-16 76 122-47-106 5" />
    <path fill="#6a63e0" d="M997 709l11 7-1 3-15 3" />
    <path fill="#000100" d="M464 199l-52 76-30 120 78-3" />
    <path fill="#eaebea" d="M374 735l-9-239v-75l13 36" />
    <path fill="#859901" d="M329 715l-34-18 15-17 15 31" />
    <path fill="#567100" d="M131 551l19-17h-32l-18-5" />
    <path fill="#8089c7" d="M33 409l-34 5 49 7-2 8" />
    <path fill="#05fdf8" d="M546 716l-10 37-14-42 13 7" />
    <path fill="#989898" d="M346 485l4 59v-67l-1-6" />
    <path fill="#fff" d="M303 376l22-96-133-14 183 101M40 338L39 77l33 284-103-1M705 77l223 20-216-31 22 356" />
    <path fill="#fff" d="M26 376l-14-3-5 173-38-280" />
    <path fill="#fbff00" d="M661 746l-8 2-10-37 23-1" />
    <path fill="#9b979b" d="M965 279l54-55-27 24-3 11" />
    <path fill="#a7a8a8" d="M695 544l86 2-17 7h2" />
    <path fill="#fff" d="M264 746l29-92-6 118-107 27m178-381l75 1 273 1-253-23" />
  </g>
</svg>