<?xml version="1.0" encoding="utf-8"?>
<!DOCTYPE svg PUBLIC "-//W3C//DTD SVG 1.1 Tiny//EN" "http://www.w3.org/Graphics/SVG/1.1/DTD/svg11-tiny.dtd">
<svg version="1.1" baseProfile="tiny" id="Layer_1" xmlns="http://www.w3.org/2000/svg" xmlns:xlink="http://www.w3.org/1999/xlink"
	 x="0px" y="0px" viewBox="0 0 1008 320" xml:space="preserve">
	<g class="T47__logo_alt">
		<path d="M828,0c13,0,26,0,39,0c5.1,1,10.3,2,15.4,3c29.4,5.5,54.2,19.8,76,39.9c10.7,9.9,20,21.2,27.5,33.7c9.2,15.2,16.2,31.3,19.2,49c0.9,5.1,2,10.3,3,15.4c0,12.7,0,25.3,0,38c0,1.7,0,3.3,0,5c0,0.7,0,1.3,0,2c-1,2.7-2.4,5.4-2.9,8.2c-5.6,29.8-20.1,54.9-40.6,76.8c-9.9,10.5-21,19.6-33.4,27c-15.1,9.1-31.1,16-48.6,19c-5.1,0.9-10.3,2-15.4,3c-12.7,0-25.3,0-38,0c-5.1-1-10.3-2-15.4-3c-29.4-5.5-54.3-19.8-76-40c-10.2-9.5-18.8-20.3-26.3-32.1c-13.4-20.9-21.3-43.8-23-68.4c-1.1-16.8-0.9-33.8,2.5-50.7c6.1-29.5,19.7-54.9,40.6-76.2c10-10.2,21.4-19.2,33.3-27.2C779.4,12.5,795.9,6,813.6,3C818.4,2.2,823.2,1,828,0z M837.6,100.1c-0.4,1.1-0.6,1.9-1,2.6c-10.5,18.8-21.1,37.6-31.7,56.4c-8.2,14.6-16.3,29.3-24.6,43.9c-10.4,18.5-20.8,37-31.3,55.5c-1.5,2.6-1.2,4.5,1.2,6.4c8.1,6.4,15.9,13.4,24.4,19.2c16.9,11.3,36.1,16.3,56,18.9c3.9,0.5,6.8-0.3,9-4.2c11.3-20.7,22.8-41.1,34.2-61.7c8.8-15.8,17.4-31.7,26.3-47.5c11.7-21,23.7-41.8,35.4-62.8c9.5-16.9,18.8-33.9,28.2-50.9C930.3,30.6,876.9,7.8,819,19.5c-46.4,9.4-79.9,37.2-101.2,80.6C758.3,100.1,797.8,100.1,837.6,100.1z"/>
		<path d="M0.1,186c0-0.7,0-1.3,0-2c0-1,0-2,0-3c0-14,0-28,0-42c0-1,0-2,0-3c0-0.7,0-1.3,0-2c1-2.7,2.4-5.4,2.9-8.2C8.6,96,23.1,70.9,43.6,49c9.9-10.5,21-19.6,33.4-27c15.1-9.1,31.1-16,48.6-19c5.1-0.9,10.3-2,15.4-3c12.7,0,25.3,0,38,0c5.1,1,10.3,2,15.4,3c29.4,5.5,54.3,19.8,76,40c10.2,9.5,18.8,20.3,26.3,32.1c13.4,20.9,21.3,43.8,23,68.4c1.1,16.8,0.9,33.8-2.5,50.7c-6.1,29.5-20.1,54.6-40.4,76.4c-9.9,10.7-21.2,19.8-33.8,27.3c-15.1,9.1-31.1,16-48.6,19c-5.1,0.9-10.3,2-15.4,3c-12.7,0-25.3,0-38,0c-0.6-0.3-1.3-0.9-1.9-1c-15.2-0.9-29.6-5.1-43.3-11.2c-24.9-11.1-45.8-27.5-62.7-49.2c-15-19.2-25.6-40.4-30.2-64.5C2.4,191.4,1.1,188.7,0.1,186z M101.1,100.1c0,2.6,0,4.5,0,6.5c0,59.8,0,119.6,0,179.4c0,2.8,0,4.8,3.3,6.2c13.3,5.6,27.1,9.6,41.3,10.6c23.6,1.8,46.8-0.6,68.9-10c3.9-1.6,5.7-3.7,5.7-8.4C220,224.9,220,165.4,220,106c0-1.9,0-3.8,0-6c23.6,0,46.4,0,69.3,0c-14.6-38.2-66-88.6-142.2-83C95,20.8,46.2,59.3,30.8,100.1C54,100.1,77.1,100.1,101.1,100.1z"/>
		<path d="M523,0c5.1,1,10.2,2.1,15.4,3c17.5,3.1,33.5,10,48.6,19c12.5,7.5,23.8,16.7,33.8,27.3c20.3,21.8,34.4,46.8,40.4,76.4c3.5,16.9,3.7,33.9,2.5,50.7c-1.6,24.6-9.5,47.5-23,68.4c-7.6,11.8-16.2,22.6-26.3,32.1c-21.7,20.2-46.6,34.5-76,40c-5.1,1-10.3,2-15.4,3c-12.7,0-25.3,0-38,0c-5.1-1-10.2-2.1-15.4-3c-17.5-3.1-33.5-10-48.6-19c-12.5-7.5-23.8-16.7-33.8-27.3c-20.3-21.8-34.4-46.8-40.4-76.4c-3.5-16.9-3.7-33.9-2.5-50.7c1.6-24.6,9.5-47.5,23-68.4c7.6-11.8,16.2-22.6,26.3-32.1c21.7-20.2,46.6-34.5,76-40c5.1-1,10.3-2,15.4-3C497.7,0,510.3,0,523,0z M520.9,302.8c2.2-0.3,3.6-0.6,5.1-0.8c12.9-1.8,25.3-5.3,37.2-10.7c18.1-8.2,33.7-19.9,46.7-34.9c1.2-1.3,2-3.5,2-5.2c0.1-60.8,0.1-121.6,0-182.5c0-1.5-0.4-3.5-1.4-4.5c-6.5-6.4-12.7-13.2-19.9-18.7c-19.8-15.2-42-24.8-67-27.5c-21.6-2.3-42.9-1.5-63.7,5.2c-17.7,5.7-33.6,14.8-47.8,27c-14.6,12.5-26.8,26.8-35.7,43.9c-7.7,14.9-12.8,30.5-14.6,47.3c-1.7,16.2-1.7,32.4,1.5,48.4c3.8,19.3,11.9,36.8,23.3,52.9c2.3,3.3,4.6,4.5,8.5,4.5c39.8-0.1,79.6-0.1,119.5-0.1c1.9,0,3.9,0,6.2,0C520.9,265.8,520.9,284.1,520.9,302.8z"/>
		<path d="M520.5,57.1c0.2,2.5,0.4,3.7,0.4,4.9c0,40,0,79.9,0.1,119.9c0,3.4-0.6,5.2-4.6,5.2c-32.8-0.1-65.6-0.1-98.4-0.1c-0.5,0-1-0.1-2.6-0.4C450.5,143.4,485.1,100.7,520.5,57.1z"/>
	</g>
	<g class="T47__logo_alt-fill">
		<path d="M837.6,100.1c-39.8,0-79.3,0-119.8,0c21.4-43.4,54.8-71.3,101.2-80.6c57.9-11.7,111.3,11.1,144.8,56.4c-9.4,16.9-18.7,33.9-28.2,50.9c-11.7,20.9-23.7,41.8-35.4,62.8c-8.8,15.8-17.5,31.7-26.3,47.5c-11.4,20.6-23,41.1-34.2,61.7c-2.2,4-5.1,4.7-9,4.2c-19.9-2.6-39.1-7.7-56-18.9c-8.6-5.7-16.3-12.8-24.4-19.2c-2.4-1.9-2.7-3.8-1.2-6.4c10.5-18.5,20.9-37,31.3-55.5c8.2-14.6,16.3-29.3,24.6-43.9c10.5-18.8,21.1-37.6,31.7-56.4C837,102,837.2,101.2,837.6,100.1z"/>
		<path d="M101.1,100.1c-23.9,0-47,0-70.3,0C46.2,59.3,95,20.8,147.2,17c76.1-5.5,127.6,44.9,142.2,83c-22.9,0-45.7,0-69.3,0c0,2.1,0,4,0,6c0,59.5-0.1,118.9,0.1,178.4c0,4.8-1.8,6.8-5.7,8.4c-22.1,9.4-45.3,11.8-68.9,10c-14.2-1.1-28-5-41.3-10.6c-3.3-1.4-3.3-3.4-3.3-6.2c0-59.8,0-119.6,0-179.4C101.1,104.6,101.1,102.6,101.1,100.1z"/>
		<path d="M520.9,302.8c0-18.6,0-36.9,0-55.8c-2.4,0-4.3,0-6.2,0c-39.8,0-79.6,0-119.5,0.1c-3.9,0-6.2-1.2-8.5-4.5c-11.4-16.1-19.4-33.6-23.3-52.9c-3.2-16-3.2-32.2-1.5-48.4c1.7-16.8,6.8-32.4,14.6-47.3c8.9-17.1,21.1-31.3,35.7-43.9c14.2-12.2,30.1-21.3,47.8-27c20.8-6.7,42.1-7.5,63.7-5.2c25,2.7,47.2,12.3,67,27.5c7.2,5.5,13.4,12.3,19.9,18.7c1,1,1.4,3,1.4,4.5c0.1,60.8,0.1,121.6,0,182.5c0,1.8-0.8,3.9-2,5.2c-13,15.1-28.6,26.7-46.7,34.9c-11.9,5.4-24.3,8.8-37.2,10.7C524.6,302.2,523.1,302.4,520.9,302.8z M520.5,57.1c-35.4,43.6-70.1,86.3-105.1,129.5c1.6,0.2,2.1,0.4,2.6,0.4c32.8,0,65.6,0,98.4,0.1c4,0,4.6-1.8,4.6-5.2c-0.1-40,0-79.9-0.1-119.9C521,60.8,520.8,59.5,520.5,57.1z"/>
	</g>
</svg>
