<?xml version="1.0" encoding="utf-8"?>
<!DOCTYPE svg PUBLIC "-//W3C//DTD SVG 1.1 Tiny//EN" "http://www.w3.org/Graphics/SVG/1.1/DTD/svg11-tiny.dtd">
<svg version="1.1" baseProfile="tiny" id="Layer_1" xmlns="http://www.w3.org/2000/svg" xmlns:xlink="http://www.w3.org/1999/xlink"
   x="0px" y="0px" viewBox="0 0 783 416" xml:space="preserve">
  <g class="T47__logo">
    <path d="M119.5,58c-11,1.4-21,2.2-30.8,4.3c-3.8,0.8-7.9,3.9-10.4,7.1C67.7,82.8,63,99,59.1,115.3c-1,4-0.3,8.6-1.9,12.3c-3.8,8.9-1.2,18-2.2,26.9c-0.4,3.4-1.3,6.9-2.7,10c-1.7,4-8,6.2-12,4.3c-6.9-3.2-12.2-6.8-12.7-16.2c-1.1-23.9-3.5-47.8-5.7-71.7c-0.8-8.9-2.2-17.8-3.6-26.7c-1-6.4-0.1-8.5,5.6-11.4c0.9-0.4,1.7-1.2,2.6-1.4c3.9-0.7,9.4-3,11.5-1.3c4.2,3.3,8.5,8.2,6.8,14.9C44.4,56.5,44,58,44,59.4c-0.1,6.8,0,13.6,0,21.9c2.1-1.7,3.7-2.4,4.4-3.6c3.3-5.2,6.7-10.4,9.3-15.9c0.9-1.9,0.2-5-0.6-7.3c-1.3-3.6-0.9-5.7,2.4-8.3c4.4-3.4,8.7-4.7,14.1-4.4c6.6,0.3,13.4,0,20-0.9c6.8-0.9,13.5-2.9,20.3-4.2c18.3-3.5,36.3-8.7,55.3-9c12.1-0.2,24.3-2.2,36.4-3.5c16-1.7,31.9-3.8,47.9-5.2c12.4-1.1,24.9-1.4,37.4-2.1c0.7,0,1.3,0,2,0c3.9,0.3,8.9-0.7,10.4,3.9c1.5,4.4-3.7,5.3-6.2,7.3c-2.6,2-4,3.9-4.4,7.2c-4,30-7.2,60.1-7.7,90.5c0,1.8-1,3.9-2.1,5.3c-4.4,5.3-8.2,11.7-16.8,10.8c-0.9-5-1.9-10.7-2.9-16.5c-0.7-3.8-2.6-4.3-5.6-2.3c-2.3,1.6-4.6,3.2-7.8,5.5c-2-5.9-4.6-11.4-5.6-17c-3.4-17.6-6.2-35.4-9.1-53.1c-0.8-4.9-1.1-9.9-2.2-14.8c-0.2-1.1-2.6-2.7-3.9-2.6c-12.2,0.8-24.3,1.9-36.4,3c-4.5,0.4-9,1-13.4,2c-1.3,0.3-2.7,2.1-3.1,3.4c-0.7,2.7-0.7,5.6-0.9,8.4c-1.1,19.7-2.4,39.4-3.2,59.2c-0.9,20-1.7,39.9-1.8,59.9c-0.1,10.9,1.6,21.9,2.2,32.9c0.8,16.3,1,32.7,1.9,49c1.2,22.2-0.5,44.6,4.5,66.6c1,4.5,2.7,5.8,7.5,6.9c10.4,2.4,20.4,1.4,30.7,0.3c0.8-0.1,1.6-0.5,3.3-1.1c1.3,4.2,2.5,8.2,3.7,11.9c-3.2,1.6-5.3,2.5-7.2,3.7c-3.2,2-6.1,4.8-10.2,1.9c-0.2-0.2-0.9-0.3-0.9-0.1c-4,5.4-10,0.2-14.5,2.6c-0.8,0.4-2.1,0.6-2.9,0.3c-3.7-1.3-5.6,0.9-7.7,3.4c-4.3,5.1-10.8,4.5-15-0.7c-1.9-2.3-4.8-4.5-7.6-5.1c-6.8-1.3-13.7-2.3-20.4,1c-0.7,0.3-1.6,0.4-2.4,0.5c-12,1.2-24,1.9-35.9,3.7c-7.7,1.2-12.8-2.1-17.3-7.4c-0.5-0.6-1-1.4-1-2.1c0.1-2.9,7.6-11,10.6-11.2c9.1-0.7,18.2-1.3,27.2-1.9c11.8-0.7,23.5-1.2,35.3-2.3c1.4-0.1,3.6-3.5,3.5-5.3c-0.6-17.6-1.6-35.2-2.6-52.8c-0.4-6.3-1.4-12.5-1.9-18.8c-0.2-2.2,0.6-4.4,0.6-6.7c0-4.7-0.3-9.4-0.5-14.1c0-0.8-0.3-1.6-0.3-2.4c-0.5-9.2-1-18.4-1.4-27.6c0-0.7,0-1.3,0-2c0.1-38.3,0.3-76.7,0.4-115c0-11.3,0-22.6,0-34.7c-4.1,1.2-6.7,1.9-9.7,2.8c5.6,8.9,1.6,17.8,1.4,26.6c-0.1,4.9-1.9,9.7-2.5,14.5c-0.9,8.8-1.4,17.6-2,26.4c-2.5,35.5-1.6,70.9,0.7,106.3c1.5,23.4,2.1,46.9,3.4,70.3c0.3,6.1-3.7,9.6-7.5,12c-3.2,2-8.1,0.7-11.9-2.5c-3.7-3-5.3-6.1-5-11c1.1-17.9,2.5-35.9,2.5-53.9c0-15.2-2.1-30.4-2.6-45.6c-0.8-29.3-1.5-58.6-1.5-87.9c0-12.3,2.1-24.5,2.9-36.8C120.5,66.7,119.7,61.9,119.5,58z M261.7,85.3c0.4,0,0.9-0.1,1.3-0.1c1.7-16.4,3.5-32.7,5.3-49.6c-4.1,0.7-7.3,1.3-11.8,2C258.2,53.6,260,69.4,261.7,85.3z"/>
    <path d="M425.1,324c7.3,0,14.8-0.3,22.2,0.1c13.5,0.7,27.1,1.8,40.6,2.9c2.1,0.2,4.5,0.7,6.1,2c2.7,2.2,5.3,4.7,6.9,7.7c0.9,1.8-5.9,6.5-9.1,7.3c-10.8,2.8-21.6,0.1-32.4,0.1c-9.9,0-19.8,0.8-29.7,1.1c-8.5,0.3-17,0.3-25.5,0.5c-6.2,0.2-12.6,1.6-18.5,0.4c-4.2-0.8-8.2-4.5-11.4-7.8c-1.5-1.5-0.9-5.3-0.6-8c0.1-1.1,1.8-2.6,3.1-2.9c5.2-1.1,9.9-4.6,15.9-1.9c4.2,1.9,9.8-1.9,11.3-7.3c2.4-8.6,4.3-17.4,6.2-26.2c1.1-4.8,1.8-9.7,2.7-15.3c-4,0.7-7.4,0.9-10.5,1.9c-7.6,2.5-15.1,5.4-22.7,8c-4.3,1.5-8.7,2.5-12.9,4c-3.4,1.2-6.9,2.4-10,4.2c-7,4-13.7,8.3-20.6,12.5c-6.5,4-10.1,3.4-17.2-3c-2.7-2.4-2.9-8.6-0.2-13.3c18.5-31.7,37.5-63.1,55.4-95.2c13.7-24.6,25.9-50.1,38.8-75.2c6.1-11.8,12.3-23.5,18.8-36c5.3,2,10.5,3.9,15.9,5.8c1.2-7.6,2.2-15.3,3.6-22.9c1.3-7.2,1.9-7.5,8.8-5.6c1,0.3,1.9,0.7,2.9,0.7c4.1-0.2,6.8,1.1,8.8,5.2c1.8,3.6,1.9,6.5,1.1,10.3c-1.4,6.1-2.1,12.4-2.7,18.7c-2.6,26.8-5.4,53.6-7.6,80.4c-1.8,21.9-2.9,43.9-4.4,66.9c10.7-1.8,19.7-4.1,28.8-4.7c7.6-0.5,16.3-2.4,22.3,6c-4.5,3.2-8.6,7.4-13.6,9.1c-8.3,2.9-17.2,4.3-25.8,6.3c-1.5,0.3-3.1,0.3-4.4,0.9c-3.1,1.3-5.6,2.7-5.4,7.1c0.5,12.5,0.1,25,0.7,37.4c0.2,3.9-1.2,6.2-4.2,7.1c-2.8,0.9-6.3,1.4-8.9,0.3c-5.4-2.2-8.4-9.7-8-15.6c0.5-7.2,0.3-14.5,0.3-21.8c0-2.4,0-4.9,0-7.3c-6.8,0.2-8.3,1.9-9.1,8.4C429.2,292.7,427.2,307.7,425.1,324z M353.4,272.8c5.8-1.3,11.7-2.2,17.4-3.9c12.3-3.6,24.4-7.7,36.6-11.2c4.9-1.4,7.5-4.1,7.7-8.9c0.9-18.7,1.6-37.5,2.4-56.2c0.1-1.5-0.3-3.1,0.1-4.3c4.1-10.7,1.6-21.4,1-31.9C397,195.2,375.1,234.1,353.4,272.8z M447,108.2c-0.7-0.1-1.4-0.1-2.1-0.2c-8.5,46.8-6.8,94.4-10.7,141.8c5.5-0.5,7.5-2.5,7.1-6.9c-0.3-2.9,0.3-6,0.4-9c1.4-33.6,2.8-67.1,4.2-100.7C446.2,124.9,446.6,116.6,447,108.2z"/>
    <path d="M579.5,224.8c2.5-8.2,6.8-10.7,14.7-9c6.2,1.3,12.9,0.5,19.3,0.1c4.4-0.3,9.8-7.2,10.1-11.5c0.2-2.5,0.5-5.1,1.3-7.5c7.1-21.7,14.2-43.5,21.6-65.9c-3.9,0.4-6.9,0.9-10,1c-11.4,0.4-22.7,0.8-34.1,1c-6.9,0.1-14,0.4-20.8-0.4c-2.7-0.3-3.8,0.1-5.2,2.1c-3.5,4.9-12.4,5.6-16.6,1c-4.5-4.9-8.5-10.3-13-15.2c-2.9-3.1-1.6-6.4,0.3-8.5c1.5-1.7,4.8-2.7,7.2-2.6c5.2,0.3,10.4,1.8,15.6,2.4c3.6,0.4,7.2,0.2,10.8,0.4c8.2,0.5,16.4,1.4,24.6,1.4c10.5,0,20.9-0.8,31.4-1.2c2.3-0.1,4.7,0.5,6.9,0c2.5-0.6,5.3-1.5,7.2-3.1c2.4-2.1,4-3.6,7.6-2c4.8,2.2,9.5,2.2,15.1,0.2c12.1-4.4,24.8-7.3,37.3-10.6c3.8-1,6.5-2.9,9.4-5.7c6.1-6,13.2-11,19.9-16.4c0.5-0.4,1.3-0.8,1.8-0.6c7,2.8,15.1,4,18.4,12.3c0.4,0.9,0.6,2,0.5,2.8c-1.1,5.4-8.4,11.2-13.6,13c-4.5,1.6-8.7,4.8-12.5,7.9c-11.4,9.2-18.9,21.3-24.7,34.5c-8.6,19.6-17.4,39.2-26.2,58.8c-1.6,3.6-3.4,7-5.7,11.5c3.7,0.4,6.3,1.1,8.9,1c12.9-0.5,25.8-1.4,38.7-1.8c3.2-0.1,6.9,0.4,9.5,2.1c2,1.3,3.7,4.9,3.4,7.2c-0.3,2.1-3.3,4.8-5.6,5.4c-6.8,1.7-13.9,2.9-20.9,3.6c-8.6,0.9-17.3,1.1-25.9,1.6c-3.3,0.2-6.8,0-10,0.6c-3.3,0.6-6,2.3-7.2,6c-10.9,32.2-21.8,64.5-33,96.6c-6,17.4-12.5,34.6-19,51.9c-1,2.7-3.4,4.9-5.8,8.3c-4.7-6.6-8.6-11.9-12.2-17.4c-0.5-0.8,0-2.6,0.4-3.7c2.5-7,4.4-14.4,7.7-21c13.7-26.7,18.9-56.4,30.1-83.9c4-9.7,7.3-19.6,10.9-29.4c0.4-1,0.6-2.1,1.2-3.9c-5.2,0-9.9,0-15.1,0c-3.7,9.8-7.3,19.9-11.2,29.9c-7.9,20.2-16.3,40.3-24,60.7c-6,15.7-11.3,31.7-16.8,47.6c-1.1,3.2-7.2,5.8-10.8,4.2c-6.4-2.8-10.5-12.6-8-19c15.1-38.5,30.2-76.9,45.1-115.4c0.6-1.7,0.2-4.1-0.6-5.9c-1.1-2.5-3.6-0.7-5.3-1c-5.2-1-10.5-2.8-15.1-5.5C584.3,231.5,582,227.6,579.5,224.8z M698.6,122.1c-0.7,0-2.5-0.4-4.2,0.1c-3.7,1-7.4,3.6-11,3.4c-8.5-0.4-13,3.5-15.6,11c-1.5,4.2-3.6,8.2-5.1,12.4c-7.4,20.8-14.8,41.5-21.9,62.4c-0.4,1.2,1.4,4.6,2.5,4.7c4,0.6,8.1,0.8,12,0c1.7-0.3,3.3-3.2,4.3-5.2c4.9-10.1,9.9-20.3,14.4-30.6C682.3,160.9,690.4,141.4,698.6,122.1z"/>
  </g>
</svg>
