<svg version="1.1" viewBox="0 0 1024 512" width="1024" height="512" xmlns="http://www.w3.org/2000/svg">
  <g fill-opacity=".5">
    <g class="SVG--0">
      <path d="M256.2 489.5l-231 9.4.5-232 225-6" />
      <path fill="#fff" d="M529-2.2l-2 521.6-558-401.7L-7.3-31" />
      <path fill="#002522" d="M999 19.5l-221.5 9.3 1.3 464.2 218-2.4" />
      <path fill="#1f2d19" d="M529 495.8l222.4-5.6-.8-521.2L537 132.4" />
      <path d="M249 497.6l-223-2L24.6 270 259 259.3" />
      <path fill="#fff" d="M879.3 243.7l-680.4 1 69 27.7 787-8.4m-83 279l83-47.3-776-14.2-310 29.3" />
      <path fill="#fff" d="M781.7-31L59.4 21.5l694 1.8 4.4 518.2m268 1.5l.7-574h-28.8l3 540.2" />
      <path fill="#f7f9ff" d="M16.5 543L24 259.5l555 10.3L-31-31" />
      <path fill="#fff" d="M376.2 487.5l678.8 13L255.4 543 254 289.2M-31 10l528 12.7 558-2L963.7-31" />
      <path fill="#264118" d="M733 246.3l-52-225-155 10 4 216.5" />
      <path fill="#fff" d="M413.8 478.6L102 510.4 529.7 543 524-31m483.8 277l-313.5 7.7L1055 273l-54.6-304" />
      <path fill="#ae805d" d="M457.8 390.2L343 508l-50.4-129.3L389 261" />
      <path fill="#000400" d="M25.6 494.7l2-219.2L254 264l-16 233" />
      <path fill="#fff" d="M-31 543l167.3-46.2-108.4-.5-11-393M756-31l-2 538.6 19.2 27.6 4.6-194.3" />
      <path fill="#736bbd" d="M441.7 77.4l-125-2.8L289 163l157 14" />
      <path fill="#fff" d="M254 248.3l5.3 265.6 77.3-220L699 246m301.8 82.5l-.6 214.3 54.8-113-53-399M162.4-.4l867.8-.7-7 19-329.4 6" />
      <path fill="#fff" d="M1055 253l-365-6-412.8 3.2L769.8 272" />
      <path fill="#d8dcf9" d="M380.3 32.8l-327-57.6L-31 267l206.8-5.3" />
      <path fill="#fff" d="M774 512.4l1.7-216L766.5-31l-12.7 539m-415 29.4l-83.4-277 2 92-2 151.4" />
      <path fill="#40444e" d="M528 275l-1 218.3h227.2l2.8-87" />
      <path fill="#274544" d="M773 240.8l1-131.7-1.3-90 118.7 236" />
      <path fill="#fae9c7" d="M708.8 313.8l25.3-3.5 18-61.3h-25" />
      <path fill="#24464c" d="M999 281.4l1.7 207.2-226-22.5 10.5-166" />
      <path fill="#fff" d="M21.8 543l2.6-226L21-31l-52 467.8" />
      <path fill="#f1faff" d="M446.7 463.4L440.5-31 529 5l-6 465.8" />
      <path fill="#6ca843" d="M733.2 99.6L718 21l-87 110 13 50" />
      <path fill="#001400" d="M55.2 269l199.4-4.4 2.4 172.6-221.8 57.2" />
      <path fill="#fff" d="M1055 492l-175.8 1.6-304-3.4L907.6 543" />
      <path fill="#c3c7df" d="M407.8 186l-282 61.2L20.2 100.5l209-38.6" />
      <path fill="#fff" d="M576.5 19L-31-31l53.6 430 2.7-373" />
      <path fill="#fffffe" d="M180.8 481l75.2 6-166.6 22 191 34" />
      <path fill="#a68770" d="M436.4 446l-62 52.8-73-55.5L392 324" />
      <path fill="#9dbb6e" d="M841 73l109.5-41.8L978 42.6 844.6 85.2" />
      <path fill="#001400" d="M224.4 486L24 493.6 25 264l225.3 3.7" />
      <path fill="#d1ff2a" d="M906.2 123.6l-42 10.5-10.6 13H887" />
      <path fill="#fff" d="M998.8 24.3l-241-12L1055-31l-49 352.7m-515.5 162l228 27.7-372 31.6 60.3-74.4" />
      <path fill="#c5f234" d="M953.5 130.2l-20 17.8 2.7-29.7 16.6-20.7" />
      <path fill="#99b46d" d="M790.6 195.2l69.3 3-27 7.3-15 41" />
      <path fill="#c0ea30" d="M909.5 201l4 16.2-32.3 16 19.7-40.5" />
      <path fill="#fff" d="M257.8 263l-285-38.5 7 37.8 120 .8" />
      <path fill="#37433a" d="M525.7 25l5.7 39.2-4.6 129.7 183-128" />
      <path fill="#dde6ff" d="M394.7 100.8L526.3 16l-218 9.2 82.5 37.4" />
      <path fill="#fff" d="M-21.6 499.5L355 543l24.2-52.4-113.5 6.4" />
      <path fill="#8e8bbd" d="M454.6 152.8l-71.5-91-78 6 101 138" />
      <path fill="#fff" d="M1002.3 298L998 543l57-65-37-509M880.3 261l-138.5-14.6-398 11.4 305.2 9" />
      <path fill="#fbfffc" d="M528.8 255.7l-129-7.4 56.7 97.7 72 156" />
      <path fill="#1c383f" d="M856.8 188.5L926.3 95l7.6 83.5-101 73.3" />
      <path fill="#12313e" d="M890.2 248l-112 1-4.7-8.8 223.4 8" />
      <path fill="#bfaf9b" d="M407.6 270.3L362 273l-84 121.4 176.3-42.6" />
      <path fill="#c6cde9" d="M513.8 157.7L501.5 249l-132.3.5 10-97" />
      <path fill="#70bf29" d="M625 44.4l-76-4.7-10.6-17 106.8 1.5" />
      <path fill="#363734" d="M479 468l-33.4 2-45.3-1 59-3.7" />
      <path fill="#223b45" d="M830 113.4l139.6-8.4L836 20l110.5 8.2" />
      <path fill="#505a66" d="M524.8 268.3l44-3.3 154.5 1-59.6 130.8" />
      <path fill="#6eaa3a" d="M554 229.2l29.8-96.8 25.3 25.8-76 59.8" />
      <path fill="#001f00" d="M248 280.4L77 498l158.5-33 21.2 37.7" />
      <path fill="#324e45" d="M773.6 136.8L873 21.3l-101.2.7 4.6 11" />
      <path fill="#b9d285" d="M762.3 86l18.7-6.2 27 16 2.5-29.4" />
      <path fill="#d0e09a" d="M983 199l-4 30.2-21-24.2 24-1.5" />
      <path fill="#8784b7" d="M127.8 159.3l38 32-26.3 13.7-17-13" />
      <path fill="#74ad3b" d="M698.4 214l57-63.2-37 88.4-6 1.2" />
      <path fill="#ddc57b" d="M549.7 341l3.6-.4 2.4 23.3-10 33" />
      <path fill="#2d3435" d="M678.6 217L655 151.4l98.6-26.4-16.5 55" />
      <path fill="#444a46" d="M527.4 492.2l48.2-144.5 168.8 142.7-118.3 2.2" />
      <path fill="#fff" d="M771.4 359.2L752 169.5 755.2-4l19 5.3" />
      <path fill="#b5cb7c" d="M964.4 24l1.2 46.8-32.7-23-1-2.6" />
      <path fill="#000a00" d="M242.8 493l11.8 1-5.3 4.5-62.5-7.3" />
      <path fill="#fff" d="M255.3 543l54-107.3-48.8-209-5.3 160.3" />
      <path fill="#363b4e" d="M707.5 113.2l-12.7-91-65 35.7-78.6-26" />
      <path fill="#746f99" d="M378.7 169.8L324 62.2l-13.3 52.6h71" />
      <path fill="#69993f" d="M589 41.2l-64.6 82 60-28.7 10-1.2" />
      <path fill="#7fb642" d="M723.2 31.6l9.8 66-19 55.5-14-134" />
      <path fill="#2b262f" d="M537.4 245.6l93.7-108 12 21.2-42 85.5" />
      <path fill="#ccc08b" d="M646.6 467.5L731 543l-68.5-60.6-57-21.5" />
      <path fill="#3e595a" d="M775.3 461.2l9 19.7 140.3-213-150-1" />
      <path fill="#d8e0f2" d="M359.6 82.6l34.7-62-415.3 3 340.4 41" />
      <path fill="#fff" d="M816 265.6l178 .2 61-9.7-90.2-8" />
      <path fill="#aac87a" d="M879.6 35.5l-44.6 64 30-29.8 11.4-.3" />
      <path fill="#82cd42" d="M654.2 92h19.4l-2.5 42-27-31.5" />
      <path fill="#002d00" d="M143 472.3l74.5 27-102.8-5 15.5-142" />
      <path fill="#fff" d="M938.5-31l84.4 47.4-352 7-350-6.7" />
      <path fill="#7b73b3" d="M396 188.8l51.5-5.4-57.2-56 56-50.8" />
      <path fill="#fff" d="M22 543l-53-82.6L20 237l3.6 240.5" />
      <path fill="#26404a" d="M992 149.5L960.7 138l-77.4 110 65.6-7.8" />
      <path fill="#faffff" d="M392.5 250L324 304.7 256.7 452l-2-189.6" />
      <path fill="#d1b670" d="M689.8 380.2l3.2-5.6 20.8.3 15-34" />
      <path fill="#283747" d="M737.7 93.7l-20.4-41 35-25.4.2 74" />
      <path fill="#fff" d="M864.3 248l188.2 7L907 266.7l-107.6-6.3" />
      <path fill="#a0846f" d="M399.5 347.6L376.3 324l-31.6 168.8 44.8-1.6" />
      <path fill="#fff" d="M24.2 499.7L449.8 543l-146.3-75.8 22.5 28.3m48.8 4L966.4 543l88.6-49-180.8-1.6" />
      <path fill="#8a87bc" d="M62.8 150l7 18 34 .4L78 134" />
      <path fill="#afa358" d="M699.6 467.8l7.6 17.6 55-25.8-64.4 13.4" />
      <path fill="#75bc43" d="M636.8 231.4l-21.3-15-8 31.4 20-4.7" />
      <path fill="#2a3126" d="M743 247.5l10-17.8-.6-52.3-29 47.3" />
      <path fill="#fff" d="M756.2 254.4l.2 191 18 97.6 1-160" />
      <path fill="#000f00" d="M254.2 378.2l-229 73.4 11-188.2 147.6 1.4" />
      <path fill="#1c2115" d="M527 231l7-57 11.4 68.2-11.3 2.3" />
      <path fill="#8e87be" d="M337.7 156.6L292 125l18.6 57 11.4-4.4" />
      <path fill="#d5daee" d="M409.3 139l15.3 11.8-455.6 95 369.5 4.6" />
      <path fill="#b59f8d" d="M398.4 483.8l-83-168.8-1.4 154.8 134.8-71.3" />
      <path fill="#b8ab61" d="M645 360.7l-19.3-2.2 42 34.8-23.4-30.7" />
      <path fill="#8da47a" d="M993.8 363.5l-44 29.4 38.6-40-4.8-9" />
      <path fill="#3f4543" d="M474.6 463.7l-16.7 9 3-1.5 26-3" />
      <path fill="#1a3845" d="M857 65.7l-30.5-38.3L781 252l-7.7-109" />
      <path fill="#fff" d="M204.7 245l-233.2 15.7 234.3 3.6 69.6-3.4m-253 282l-39.6-45 90.5-2 248 9" />
      <path fill="#cad2ee" d="M476.4 24.7l32 5.6-5.5 113.2-73-4.5" />
      <path fill="#a2a2c9" d="M238.8 134.2l17.5 13.3 11.2 17.6-47.3 14" />
      <path fill="#70b53f" d="M652.4 136.2l-9.7 58.2 26.8-20-11.7-21" />
      <path fill="#2c3440" d="M627 139.4l-16.4 47-21-165.4 64.2 69.4" />
      <path fill="#47515b" d="M721.8 376.4l31-116.7 1.4 148.4-205-82" />
      <path fill="#223f47" d="M823.5 162.5L948.8 62.2l-100 18.4 9.6 122" />
      <path fill="#8a9b75" d="M902.6 322l20.2-6.2-3 5-36.8 33" />
      <path fill="#675fa1" d="M450.4 114L419 138.4l-90-12 80.7-3" />
      <path fill="#d7deed" d="M330.8 27.5l-44 132-237.3-136 164 62.5" />
      <path fill="#fff" d="M92.3 21.8l334.2-2.3L86.5-31-31 17.7" />
      <path fill="#8ea181" d="M828 292.2l5.8-20.6-19.4 13.2 14.7 28.5" />
      <path fill="#223d47" d="M782.2 70.2l54.3-23L772.7 31l4 118.5" />
      <path fill="#25474c" d="M887.3 461l-74.6-110.7 44.7-53.8L1002 440" />
      <path fill="#97c041" d="M906.2 135l-44.8 18.3 7-20.2 28.2-18" />
      <path fill="#bde362" d="M818.7 224.8l11.4-14.2-37 10 9-8.8" />
      <path fill="#fff" d="M731.3 248.5L544 264l203.4 2.3 220-6.3" />
      <path fill="#001a00" d="M127.6 497.3l68.3-11.6 57-5.7-5-97" />
      <path fill="#add043" d="M904.2 210l13.4 3.2-25.7 20.5-8-19.8" />
      <path fill="#2c2c36" d="M692.4 246.8l2-125.2-42.8 86.8L653 243" />
      <path fill="#fff" d="M498.8 21.6l17.4 98.7 21-151.3L-31 14" />
      <path fill="#716d87" d="M375 164.6l-14.2-14.3 26.8-68 5 21" />
      <path fill="#c4b7a6" d="M387.2 269.7l59.8 55-132 .3-21 80.5" />
      <path fill="#fff" d="M527.2 207.7l-2 204.3-21.8-236 23-159" />
    </g>
    <g class="SVG--1">
      <path fill="#fff" d="M527 526.4L109.3 543l390.2-75.3L526.2 2.4" />
      <path fill="#545f62" d="M529.5 265l114.2 5-28 14.3-76.2 70" />
      <path fill="#a08b56" d="M584 479l-8.8-10.3-36.4-4.8 41 20" />
      <path fill="#edf6f1" d="M425.2 463l73.8 5.3-16.3-64.8L374 502" />
      <path fill="#001900" d="M24.8 409.3l183 86.7-178.5 1-5-13.6" />
      <path fill="#d5daed" d="M323.2 114.5L375.6 250 177 247.4 369 166" />
      <path fill="#606b59" d="M779 491.6l28.2 1.8 43-2-66-46.5" />
      <path fill="#665faf" d="M391.4 100.8L374 74.5l-12 4.2 18-27" />
      <path fill="#c8e55e" d="M938.6 32.6l19.8 5.7 9 10.6-36-4" />
      <path fill="#333632" d="M530 128.8l13-18 44 32-59.2 78" />
      <path fill="#405652" d="M941 29.8l59-8.5-117.4-.2 42.6 32" />
      <path fill="#008a00" d="M204.6 424.8l-5-17.7 31 8-26.6 10" />
      <path fill="#d4dced" d="M418.2.6l-1 137.4-11-43.3-22.5-18" />
      <path fill="#d3dbec" d="M409 169l100 83.3V87.7L426.6 210" />
      <path fill="#fff" d="M1005 165.7l50 262.6-52 114.7-2.3-131.5" />
      <path fill="#a48a75" d="M308 455l50.8 39.5L415 335.8l-59.3 27" />
      <path fill="#a1bf5b" d="M924.8 138.3l17-29.4 29 29-40.7-8" />
      <path fill="#969074" d="M698.8 307l21.3-43 36 4.6-6 12.4" />
      <path fill="#fff" d="M1055-31h-54l1 455 21.4 119" />
      <path fill="#699443" d="M543 204l63.8-40.2-26.7-39.4 3 88.3" />
      <path fill="#fff" d="M222.5 483.5l-7.2 8 31-4-52.3 3.2" />
      <path fill="#acdb3c" d="M797 61l-16.6 28.4L798 80l-3.3-3.4" />
      <path fill="#fff" d="M754.6 61l15-81 2.8 97.3-19.8 199.4" />
      <path fill="#8e89c2" d="M322.7 84.6L463.4 112l-123 12.6-50.3 24" />
      <path fill="#fff" d="M199.8 486.6l-5.7 3.7 24 1 55-1.6" />
      <path fill="#2c535e" d="M835.6 266.2l22.6 52.2 142-2.3-38.5-48" />
      <path fill="#c5a441" d="M650.8 495.7l18.6-22.2-18-.3 3.3 20.2" />
      <path fill="#d2d9e9" d="M369.3 127.8l-32.7-28.6L400 20.4l-97.5 1" />
      <path fill="#6e807d" d="M827 90.3L851.4 70 840 157l-9.6-71.4" />
      <path fill="#e9f4f2" d="M430 463.8l79.4-7.5L494 249.8l-58 171.5" />
      <path fill="#333a3d" d="M525 75.6l57.6-51-25 92 107.5 8" />
      <path fill="#fff" d="M26 213.4L8.4 543-31 80 20.3-29m756 493L773 343.3 754 414l3.5 129" />
      <path fill="#7c9089" d="M983.3 339l17.8 19.6 1-13.4-26 38" />
      <path fill="#000f00" d="M223.2 324l24.6 158 8.4-215.2-78.2-3" />
      <path fill="#cfd7e7" d="M311.3 119.5L28 143.3l-2.2-121 52-2.5" />
      <path fill="#7b888e" d="M803.6 189.5l-9 35 12-23.3 61.4 6.2" />
      <path fill="#27414e" d="M863.4 152.2l-78.4-50L773.3 214l85-45.7" />
      <path fill="#b8a99c" d="M428 298l-16.6 11 2.4 162 38.8-97.8" />
      <path fill="#a5b198" d="M861.4 62.3L816.4-1l50 58.6 22 6" />
      <path fill="#26414a" d="M778.2 193.7l-6.3 53.5 17 .5 32 1" />
      <path fill="#46525d" d="M530 328l159 33.7 62.5-34.8-89.3-41" />
      <path fill="#0fb80f" d="M134 484.7l17.8 2-2 4-.6 7" />
      <path fill="#2f3735" d="M678.5 214.4l-117.7-30.7 90.7-35L549 87" />
      <path fill="#b6a391" d="M297 365.4l70.6-23-34 120.4-32-48.5" />
      <path fill="#fff" d="M551.8 264.6l47.6 1.5 222.5-4-316-17" />
      <path fill="#fff" d="M759 513l15.7-370.3-1 68.8 1 167" />
      <path fill="#71875e" d="M832.3 374.2l5.4 32.4-23.5-30.7-1.8-9" />
      <path fill="#a9a8cc" d="M160.8 132.4l40-17.8L119 186l41.6 10.4" />
      <path fill="#9ba57b" d="M948 458.7l10.3-11.7-26 13-.5 3" />
      <path fill="#3b454e" d="M571 490.5l167-103.2L526.2 402l113.2 88.3" />
      <path fill="#343f36" d="M730.3 146l-6.7-45.3L753 140l-.6 20.5" />
      <path fill="#5e6261" d="M444.5 471.6l58.5-6-97 2.2 32.2 2.7" />
      <path fill="#86cc48" d="M594.7 23h68.8l-19 .7L609 49" />
      <path fill="#5e853e" d="M557.2 24l52-.8L546 52.8 530 25" />
      <path fill="#394b4a" d="M776 333.7l1.3 105.3 64 51.6 36.8-28.2" />
      <path fill="#838f60" d="M730.8 99.7l17.7 4.2-49.5 24 16.6 21" />
      <path fill="#91d636" d="M710.8 24.6L729.3 45l-20.6.7-12.3-7" />
      <path fill="#4e5353" d="M449.4 469.6l14.8-3.3 28.8 1-9 2" />
      <path fill="#3c5660" d="M922.7 79.4l77.8-55.7-6 192.7-47.5-126" />
      <path fill="#68aa3c" d="M596.5 91.5l-72.7 13L533 118l63.6-48.2" />
      <path fill="#7d8d80" d="M1002.7 104.3L940 27.8l28.5 51-6.8.2" />
      <path fill="#28434e" d="M876.2 141.3l111 107.4-70-4-4.2-93.4" />
      <path fill="#ccbe8d" d="M722.8 280.3l3-14 17.7 41.3-30-.5" />
      <path fill="#294349" d="M806 211l-30.8-45-.2 34.7 84.6 6.4" />
      <path fill="#fff" d="M934.4 543l-336.7-47.7 293.5-1.7 146 .4" />
      <path fill="#f2fffc" d="M394 483.7l17.5-13 68 2.7L405 487" />
      <path fill="#fff" d="M574.8 490.8l362.8 12.6 79.4 24-624.7-19" />
      <path fill="#34394a" d="M677.6 115.8l-2.3 8L710.5 72l-33.3 1.7" />
      <path fill="#4e6563" d="M828.6 265.2L796 340l-20.5-72.2-3.3-.7" />
      <path fill="#7d8a71" d="M853.4 467.4l18 4.4 11.4 13.8-6.8 9.2" />
      <path fill="#4d4e49" d="M752.3 218.3l.8 28.2-121-3.5 7-7.4" />
      <path fill="#375b60" d="M999.7 313l1-51 .4 2.2-133 19.2" />
      <path fill="#39514a" d="M880.8 21.6l-106.5 1 5.7 95.8-5.3-67.2" />
      <path fill="#70a63f" d="M702 206.5l7.7 34.4 37-86 9.3 12" />
      <path fill="#68a33e" d="M670.6 125.6l-37 54.7 14.6-27.8 77-34.2" />
      <path fill="#010" d="M23.5 263.5l3 149.6 229-118-135-26" />
      <path fill="#a7a585" d="M704 366.3l59-35.4-54.5 23h1" />
      <path fill="#677658" d="M872.6 447l12-38.4 8.5 11.2 4-1.7" />
      <path fill="#9cc632" d="M816.3 236.6l4 4.4 11.4-30.6-17.4 22.2" />
      <path fill="#d5dceb" d="M469.2 192l2.6-15.2-91.2-40.3 1-7.5" />
      <path fill="#fcfffe" d="M284 543l31-82 30.5 30.8h148.8" />
      <path fill="#7c75b4" d="M322 57.3l-3.3 60.7 47-35.2L367 125" />
      <path fill="#75725c" d="M575.6 118.3L593 150l-3.2-12.6-29.5-6.3" />
      <path fill="#c5d975" d="M969.5 205.2l12.8-3.6V214l-20.3-9.3" />
      <path fill="#fff" d="M590.3 22.8L371.8-10l675 15-112.3 13.5" />
      <path fill="#dbdff0" d="M263.2 149.4l-26.3 87 31-48.2 41-45.6" />
      <path fill="#7e79b5" d="M437.8 71.3l-13 19 29 25L408 138" />
      <path fill="#011501" d="M31.7 268.4l222 110 2 121.3-38-93" />
      <path fill="#2b444b" d="M927.5 127L866 26.7l37.6 24.5L864 99" />
      <path fill="#e9f4f1" d="M506.4 447l-67-46.4L509.2 280l-101.4-24" />
      <path fill="#86877a" d="M369.8 165.6l-9.5-24.6-21.5 1.3 54.6 7" />
      <path fill="#233f44" d="M848.4 164.7L841 152l50-48.7-50-5.7" />
      <path fill="#3e474d" d="M536 415l-9.4 34.6 224 17.6 3.5-51.7" />
      <path fill="#97a8a4" d="M983 237.3L960.8 203l35.2 36 59 9.5" />
      <path fill="#fff" d="M239.4 259.7L3 264.3 24.3 122l-46.6 124" />
      <path fill="#918bbd" d="M410 198.4l2.2-13L395 154l-3.7 36" />
      <path fill="#c7baa9" d="M305.4 374L429 295.3 394.5 272 327 308.2" />
      <path fill="#8b6c54" d="M359.6 417.7l9-15.8-4.6 77 15-129" />
      <path fill="#a88e72" d="M406 283.7l-39 6.8 22.7-15.2-7-2.7" />
      <path fill="#d3d8ea" d="M108 195.6l47.2 51.7-132 2.4 1.5-119" />
      <path fill="#747b6c" d="M651 66.5l-.7-11.6-3-12-21.3 2" />
      <path fill="#b5b8d7" d="M422.6 91.3L414 109l18.5 8.5-50.7 4.4" />
      <path fill="#a3ca3e" d="M952.3 36.4l-20.5-6.6-3 8L942.3 56" />
      <path fill="#d4dcec" d="M377 59l129 35.3 1.7-71.7-420-2" />
      <path fill="#8c84bf" d="M442 140l11 8 12 7-31 1.7" />
      <path fill="#635d9b" d="M348.5 124.5l27.8 1.6L391 81l-19.5 36" />
      <path fill="#b09f6a" d="M550.7 356.4l10-15-13.6 51.2 3-63.6" />
      <path fill="#d7dbeb" d="M399.6 137.8l12.4 26.4-320.3 47.4L384 222.8" />
      <path fill="#8279b4" d="M393 131l56.6 53-27-1.6L396 125" />
      <path fill="#ae9686" d="M411 416.7l-69.4 32.8 53.8 31.8 40.5-36.6" />
      <path fill="#486f37" d="M752 175.5L718 241l18.4-43.4-45.2-12.6" />
      <path fill="#d6dbea" d="M363 141.3l16 85.3L112.6 133 240 247" />
      <path fill="#a4cf2e" d="M947.2 113.8l-16.7 26.7 12.5 6.3 1.8-4" />
      <path fill="#003c00" d="M190.8 331.4l36 28.5 4-33-37.3-3" />
      <path fill="#fff" d="M15.3 543L-31 468.3l60.8 31 394.6-3.5" />
      <path fill="#dddcd2" d="M382.5 266L346 309l-37 24.6 39.3-52.4" />
      <path fill="#5e6066" d="M635 114.4l-8 34 15.7-1 6-31.3" />
      <path fill="#acd936" d="M909 131l-48.5 5.4 1.4 15.2 15-27" />
      <path fill="#80be43" d="M747 109l-41-9 9-31.6 1 1.8" />
      <path fill="#394546" d="M620.6 51.8l53.2-28.5 50.4 1-113 26" />
      <path fill="#41424e" d="M570.3 74.3L526 26l25-3.6L528.6 62" />
      <path fill="#57753e" d="M559 172.6l10.7 4.2 31.6 59-49.5-59.8" />
      <path fill="#a89767" d="M537.2 284.3l21.2-10-17.8-4 8.2-30.7" />
      <path fill="#324b50" d="M962.7 80l37 32.2-51.3 9L981 24" />
      <path fill="#2b464c" d="M801 31.5l-5.7 99.5-6-40 51.2-52.7" />
      <path fill="#c1b8a1" d="M571 480l-27.4-18-91.2-37 132 53" />
      <path fill="#fff" d="M1000-31l23 299-42.3-2.6 74.3-71" />
      <path fill="#000b00" d="M31 427.8l-7.6 67 78-17.6 97.2-6" />
      <path fill="#fff" d="M860.6 248l-13.4-1 171 17.2-220.8.7" />
      <path fill="#75b240" d="M606.8 153.2L577 166.4l-2-13 10-10.6" />
      <path fill="#8f9f9c" d="M802.3 105.8l11.2-28-1-8.5-10.3 7.4" />
      <path fill="#a58b77" d="M346.4 492.8l33.2-138.6L317 462.8l33 33.3" />
      <path fill="#9e955c" d="M635.8 355l28.2 39.5-27.2-26.8-11.3 8.5" />
      <path fill="#454f54" d="M556.3 422.5L753 447.7l.3-179.4L742.5 369" />
      <path fill="#fff" d="M506 187.3L509.8-31l14 80.3 4.7 62" />
      <path fill="#b1a56d" d="M629 467l29 11.7-8.8-7.4-21-13" />
      <path fill="#b3d43d" d="M894.2 235l7.3-36.4 13 .4-17.5 25.5" />
      <path fill="#d7ddee" d="M320 89l-43.6 50.7-46-102L311 52.2" />
      <path fill="#fff" d="M14.2-31L-31 424l56 106.4-1.7-99.8" />
      <path fill="#394035" d="M533 471.4l-1.6 17.6 141 2.2-86-9.8" />
      <path fill="#2d5157" d="M1000.5 473.3l.3 10.6-2-112-64.5 31" />
      <path fill="#39413e" d="M528.3 59.6L677.7 32l-117 30.3-31 33" />
      <path fill="#5c6d5e" d="M806 489.6l15-38-45 7.6.7 33" />
      <path fill="#3f4e48" d="M732.8 61.4L683.5 97 702 70.5 750.3 84" />
      <path fill="#79b53f" d="M542 39l18.6-14.6 11.4 6.2L549.2 50" />
      <path fill="#000800" d="M254.6 446l-5.7 38.2h-14l-70 1.6" />
      <path fill="#364b4b" d="M1001.5 492.4L894 490.8l-85-95.4 124.6 69" />
      <path fill="#7bb33c" d="M875 77.8L849.8 64l-4.4 1.7 16-7" />
      <path fill="#d3d9ea" d="M114.6 209l4.8-23.8L228.4 22 38 53.8" />
      <path fill="#9594c2" d="M80.5 176.8L61 147l-1.3 1 18-13.8" />
      <path fill="#91d653" d="M993.7 477.5l6.8 2.7.5-12.6-14.6 8" />
      <path fill="#9a96c5" d="M335.4 179L302 103l30.4 8.6-37.7 48.4" />
      <path fill="#546066" d="M726 266.5l-154.5 75-10-71 45.3-3.7" />
      <path fill="#748f71" d="M865 149.2l.4 15.6-6 19 24-44" />
      <path fill="#8e9b92" d="M818 200.8l-18.7-3.4-6.3 28.3 19-33.6" />
      <path fill="#29444f" d="M913 248.6L836.3 209l6 24.5-57 12.4" />
      <path fill="#494f47" d="M532 490.6l74 2.4-74.8-44.3 112.2 22.8" />
    </g>
    <g class="SVG--2">
      <path fill="#4c575c" d="M729.3 343.8l-200.7-49.4.4 142.5 12.8-98" />
      <path fill="#254149" d="M775.6 208.2l1.6 43.4-2.4-5.8 41.6-17.5" />
      <path fill="#4d4948" d="M606.6 188l51.2 14.2-2 36.4-46.2-39.3" />
      <path fill="#708162" d="M924.6 307.6L902.3 337l-5.5 12.7-17-3.6" />
      <path fill="#003d00" d="M149.8 439.7l.5-15.8-41.7 5-3.3 23" />
      <path fill="#d4dbeb" d="M507 67.4l-56.4 43.2 15.5 140 41-1.3" />
      <path fill="#68695f" d="M540.7 96l14-3.4 44.2-37-26 5" />
      <path fill="#30382e" d="M549.3 152.8l23 28.8 37 43.7 38-9" />
      <path fill="#9ec936" d="M831.2 213.5h-23l7.8 7.8 5.4 15.5" />
      <path fill="#e7f5f3" d="M275.7 455.4l7.7-189.4 17.2 175.2 43 57.8" />
      <path fill="#7abf43" d="M665.3 86l11.6 27.7-30-2.5V102" />
      <path fill="#2b474d" d="M975.4 247.4L900 218l2 15.5.8 12.5" />
      <path fill="#558039" d="M729.6 97.4l-77.2 43.2L665 117l46.3 21.3" />
      <path fill="#9eb192" d="M961.6 52l-53.4 14.8 45-23 9.6-29.8" />
      <path fill="#eaf3f1" d="M500.7 505.5l7.7-237-126.7-5.5 48.7 30.6" />
      <path fill="#d6dded" d="M409.7 156.8l17.5 82.8 37.3-36-64.3-33" />
      <path fill="#678644" d="M953.6 392.4l-1.7-8.2 21-17.2-11 23" />
      <path fill="#e4efed" d="M465.4 470.8l60.2 19.2-103.2 2 15-21" />
      <path fill="#26474f" d="M979.6 365l-1.6-47-92.6 34.5-68 90.6" />
      <path fill="#d1d6e8" d="M337.7 118.7L312 140.4l24.7.5 12.8 143" />
      <path fill="#b7bbdb" d="M202 71.3l20 16 8.4-44-23.3 1" />
      <path fill="#2a3432" d="M597.6 82.5l56.2 124-58-63.2-14-36.8" />
      <path fill="#83859c" d="M396.4 150.4l-57.4-5 28.2-18.4 30.7 22.4" />
      <path fill="#add84f" d="M796 19.8l9 1.3-10 13 1.7-7" />
      <path fill="#aba468" d="M730.5 464l32.5 5.5-34.7 1.3-35 10.4" />
      <path fill="#534c9b" d="M430.5 103.8l10-6.6-5.2-6.5-12.5 16.6" />
      <path fill="#878283" d="M391.2 151.6l-23.7 3.7 2.7 18.8h-15" />
      <path fill="#fff" d="M763 143.6L756 248l-.4 230.2L776.4 285" />
      <path fill="#58676b" d="M735.5 282l12.8 61.3 3.8 63-3-143.5" />
      <path fill="#3e4548" d="M529.7 489.6l3.2 5.8 31-76.2-35-53.8" />
      <path fill="#4d4595" d="M374.4 123.6l28 6.7-5.6 4.4 36-.3" />
      <path fill="#96b277" d="M845.4 79.3l27-5.7L878 40l-48.3 71.8" />
      <path fill="#af9a5e" d="M564.7 341.4l-9.4 8-3.3 45-5-50.2" />
      <path fill="#fff" d="M64.3 249.5L254 262.8l21.3 141 9.3-152.8" />
      <path fill="#856d5d" d="M373.7 484.2l-5.2-12-1-43-8.6 59.5" />
      <path fill="#fffffd" d="M774 152.4L753.4 265 757 0l9-31" />
      <path fill="#d4dcec" d="M499 144.4l-72.3-89.7 32.6 53.4-34 30" />
      <path fill="#4e832f" d="M548.6 85.6l17.2 21.2-8 16.7-18.8-29" />
      <path fill="#273430" d="M701.4 189.7L654.2 149l18.3-3.6 21.6 6" />
      <path fill="#374d4e" d="M922.8 36.6l17 14.3-75.8-6-17.4-13" />
      <path fill="#223e42" d="M801.3 41.2l-19.4 11-7 88.2v-121" />
      <path fill="#a1abac" d="M798.6 211l11 6.8-2 7.2-9.2-7.7" />
      <path fill="#d3dbeb" d="M435.5 104l75.4.3L336 35l142.5-14.5" />
      <path fill="#fff" d="M505 276.4l14.3-163.2 7 422-21.7-43" />
      <path fill="#394d4c" d="M818.3 372v115.3l-37.7 1 84 4.4" />
      <path fill="#30494e" d="M912 219l10.7 4-33-88.6 62 15.2" />
      <path fill="#9ab971" d="M938.3 112.4l39 26.3-21.4-6-12-28.3" />
      <path fill="#2c3227" d="M567.3 217.8l36.8 27.4 52-1.2-131 .3" />
      <path fill="#fff" d="M250.3 543h27.2l5-131.3-16-43.7" />
      <path fill="#000c00" d="M53.5 490.6l62.3-94.2L59.3 360l-36 137.3" />
      <path fill="#93c943" d="M783.6 76.8L782 76l19-11.5-20.5 26" />
      <path fill="#f4f7f5" d="M247.8 484.5l-21 7.5 62.8-6.7 33.7 57.7" />
      <path fill="#a2a2ce" d="M338.2 115.8l-5.5-7.5 27 13.3L324 51.3" />
      <path fill="#9a9bbf" d="M254.6 135l1.3 15.4-17 24.2 20-6.3" />
      <path fill="#fff" d="M999.2 274.8l3.5-128.6-3-125.2 55.3-47.6" />
      <path fill="#6b7e76" d="M836 159l8.4-28.7-14-37.3 5.6 48.2" />
      <path fill="#d8dced" d="M313.3 160L203 186.8l60.6 64.3 33.2-52" />
      <path fill="#817ab7" d="M435.4 77.7l-2-5.8L416 89l22-4.2" />
      <path fill="#827946" d="M559 472.2l38 1.2-42.8 21.5 28.8-22" />
      <path fill="#68a040" d="M699.4 222.3l50.8-60 5 18.3-35 3" />
      <path fill="#ecf4f3" d="M425.8 454l-6 10.7 54 1.3 15.7-51.6" />
      <path fill="#43403d" d="M601 244.5l-40.4-39 1-10.5 39.2 34.7" />
      <path fill="#9e9cc8" d="M123.2 191.8l5-21.4L166 177l-18.6 29.7" />
      <path fill="#29454d" d="M795.6 104.3l-22 2.5 3.7 144.2 61.4-165.6" />
      <path fill="#3a535a" d="M999.4 206.6l-1.8-60.4-53.2-14.8-9.5 61.4" />
      <path fill="#c2aa57" d="M731.6 286.5l5.6-21.2 8.2 1.3L718 269" />
      <path fill="#020802" d="M49.8 347.8l-24-56.7-1.5 107 81 33" />
      <path fill="#6da747" d="M612.2 250.6l24.4-20.4-14.7-10-17 12" />
      <path fill="#6e6782" d="M374.7 136.5l-13.3-57 6.6 84 5.2-4" />
      <path fill="#6aa641" d="M664 184l2.6-24.3-21.2-8.7 4 31.6" />
      <path fill="#fff" d="M456.3 22.7L117.6-31-31 22.4 256.7 20" />
      <path fill="#2f3e33" d="M736.4 182.3l17 .3-.4 6-5.2 52.4" />
      <path fill="#7973ae" d="M303 109l32.6-28.2-13.8 41 63.8 5" />
      <path fill="#d7deed" d="M419.3 154l90.7 84.4-234.4 14L478.8 172" />
      <path fill="#babcd9" d="M81.4 178.7l1.4 8.4-10-59 44.6 32" />
      <path fill="#455056" d="M552.2 431.7l9-91.6 143 38-22-63" />
      <path fill="#cabfb2" d="M393.8 264.8l42 39.8-14.5 103.8 26-73" />
      <path fill="#d5daea" d="M399.3 249.7l-246-55 245-25.6-22-26" />
      <path fill="#c7ced7" d="M183.7 111.5L168 243.3l8.2 5.5 9-3.6" />
      <path fill="#bea75d" d="M716 377l1-32.7 6.3 4.4-21 19.6" />
      <path fill="#5e9438" d="M597 143.7l-53.6 82-2.8-23.2 60.7-33.5" />
      <path fill="#bcaa98" d="M354.3 296.2l-30 100.3-25.4 6.3 13-45" />
      <path fill="#2b3432" d="M605.7 133.8l-51.5 6 97.3 6.8-37 46.4" />
      <path fill="#006500" d="M237.8 422l15-15.8-42.7 18.2-12-17.4" />
      <path fill="#acd340" d="M874.8 127.7l-5 25-13-4.8 33-16" />
      <path fill="#dae4f1" d="M333 67.8l13 15.6 16.2-9.7 7.8-16.4" />
      <path fill="#314a4e" d="M893.2 71.4L911 177l43-122.6-36 14.8" />
      <path fill="#667774" d="M755.7 146l59.2 7.8-5-14.3-14 12.5" />
      <path fill="#fcfefc" d="M693.6 248l-249.8 19 298.5-2 226-1.6" />
      <path fill="#b09e8d" d="M394 424.4l56.2-52.3-27 79-4.4-133" />
      <path fill="#031a03" d="M234 437l20.7 62-.5-244-22 215" />
      <path fill="#babddb" d="M374.6 86l11.5-3-18 31.6 24-99.2" />
      <path fill="#354f58" d="M966 29l27 32.6 8 3L979.4 87" />
      <path fill="#fff" d="M544.6 22.4L902 18l153 4-573-53" />
      <path fill="#979990" d="M727.5 105.4l18.2-1.7 10.5 16-19.7-13.4" />
      <path fill="#a0846d" d="M344.2 348.8l51.8 50.6 11.6-5.2-13.7 38.6" />
      <path fill="#fff" d="M189 18.3l-167.3-3L24 305.8-31-31" />
      <path fill="#051305" d="M182 488.7l52.3 8-80.5-3 97-37.7" />
      <path fill="#475156" d="M714.5 367.5l38.7-16.2-1 117-30.6-115.7" />
      <path fill="#6d8582" d="M954.5 264l17.3 12.7 33.2 37.7-36-45.7" />
      <path fill="#6f69ad" d="M383 64.3l-18.3 2 33.5 24-8.2 8" />
      <path fill="#75725f" d="M722 147l-18.3 3.8 16.8-37.6 6.6-7.8" />
      <path fill="#a08e35" d="M719 467.3l-3.7 20.2-15-16.4 32.2-2" />
      <path fill="#d6dbeb" d="M323 91.6l-92.4 43.6 77.4-12.4-22.8-99.3" />
      <path fill="#000d00" d="M210 483.5l13.8-54.7 29 3.2-3 54.3" />
      <path fill="#ebf6f4" d="M280 366l-1.2-50.3 56.8-43.8-33.6 92" />
      <path fill="#334142" d="M660 142.7l-46.8-73-31 34 68 8.2" />
      <path fill="#3c4b53" d="M751 109.2l1.8-10-1-65.7L723 24" />
      <path fill="#3e4842" d="M686.4 210.2l67.4-57.5-.2-18.4-18.4-25.8" />
      <path fill="#9690c3" d="M321.3 132.3l-1.5 7 15.7 28.7-25.2 9" />
      <path fill="#6e7272" d="M705.5 313.3l40-4.3-25.3 8-23-32.2" />
      <path fill="#8f9883" d="M696.5 51.6l9 9.3 6.5-7-3.8-7" />
      <path fill="#726cab" d="M326.3 87.5l19 44.7 23.7-6.4-55-22.5" />
      <path fill="#718173" d="M856.8 41.7L873.4 65l-46.2-39 9.8-5.6" />
      <path fill="#343f3c" d="M727 196l-13-4.8-19.7-67-13.3 85.3" />
      <path fill="#a1a6be" d="M178.7 117l1.3 27-9.5-10-9.2 14.4" />
      <path fill="#001a00" d="M209.4 264.7l-48.6 50L74.2 266l84.2-.2" />
      <path fill="#2a323a" d="M531.7 68.7l44-32.8-5.4-3L533 85" />
      <path fill="#fdfdfd" d="M768.8 99.8l6.2-60.4L746-31l18.8 148" />
      <path fill="#394d53" d="M884 61.7l-2.7-29 7.2-11.8 60 3" />
      <path fill="#aed046" d="M899.4 218l12-2.6-25.5-4 10 24.3" />
      <path fill="#2e494d" d="M791 216l-4.7 2.3-13.4 32.4 43-26" />
      <path fill="#364043" d="M618 156.3L597 36.7 723 117l-58-60.5" />
      <path fill="#799851" d="M837.4 402.6l-10.8-2-1-29.2L835 398" />
      <path fill="#3c4442" d="M626.2 455l97 34.2-67.2 1 76.5-29.2" />
      <path fill="#b4c1be" d="M1030.7 239l-51.5-8 71.2-5.8-84 8" />
      <path fill="#52656c" d="M999 21.4L952.5 24 944 34.7l43.3-6.3" />
      <path fill="#fff" d="M400 265l328.5-1.6L611 246.2l27-.5" />
      <path fill="#656454" d="M694.4 231.4l30.4 11.4 1.8-60.5 3.2 44.4" />
      <path fill="#a3a2ca" d="M330.6 169.3l30.6-46 1.6 13-40.2 12.5" />
      <path fill="#685ea5" d="M356.6 106L345 89l3-5.5 5-.8" />
      <path fill="#27464b" d="M983 374.3l-51.2 86L819.5 418l46 47" />
      <path fill="#305259" d="M938.3 265.7l62.7 97-2.7-61.4-221 40.5" />
      <path fill="#9a9362" d="M648.6 367.8l18.5 30.4-38-46.5 5 24" />
      <path fill="#2c372f" d="M568.6 181.5l-22.4-80.2-13.8 39 46.8-7.3" />
      <path fill="#d7d4b8" d="M741.2 304.5l-9.2-2.8-20.8 1.5 7.5 5" />
      <path fill="#887c51" d="M661 270l-33-4 16.7 16.5-7.5-8.8" />
      <path fill="#cbc2b4" d="M415.8 312.3l-17-26-59.3 13 16.8 9" />
      <path fill="#b9a997" d="M400.5 288.4l33.7 27.5 8 51 3-16" />
      <path fill="#b39c84" d="M374.5 331l32.2 22-31-55 16-26" />
      <path fill="#d4d9e9" d="M127.8 204.6L117.3 147 20.8 247.6 196 249" />
      <path fill="#70847d" d="M978 85.4l-21.3-34.8-70.5 16.6L933.6 46" />
      <path fill="#244044" d="M895.8 140.7l-40 73.2 45.6-8-15-27" />
      <path fill="#fff" d="M1055 495.7L-31 543l550.4-53 25.6 4.6" />
      <path fill="#4a575c" d="M553 267h33.2l68 88-92 20.3" />
      <path fill="#fff" d="M21 496.3l175 4.3L-31 543l53.5-299" />
      <path fill="#bab479" d="M703 369.4l34.6-28.3-26.4 16-5.3 6" />
      <path fill="#5fa23c" d="M631.3 35.7l39.4-12.2-36.2.7-10.8 21.4" />
      <path fill="#718981" d="M918.7 309.5l-8.5 21.3-16.8-1 36.7-16.4" />
      <path fill="#4b605e" d="M777.7 265.7l2 100 26.4-66 23-30.8" />
      <path fill="#8d8f8a" d="M728.7 293l-11.6-5.8-16 8.5 33 7" />
      <path fill="#464a47" d="M712.6 476.8l45 14.4-14.3-19.2-11 .5" />
      <path fill="#28302f" d="M614.2 194l67.6-8.6-5.5 47-50.3-73.2" />
      <path fill="#ae9a8b" d="M344 442l6.5 44.3-51.2-48.6 15 2" />
      <path fill="#738868" d="M827.3 299.4L836 318l-18-17.4 8.5-27.3" />
      <path fill="#bdaea3" d="M367 468.5l86.2-2.6-81.2-6-12 37" />
      <path fill="#649d3e" d="M718 100.8L705.4 114l-21.7-6 20.3 30.7" />
      <path fill="#565a52" d="M527.2 279l57.5 128.7L527 268l29-1" />
      <path fill="#9f8978" d="M352.5 486l-15-15.2L342 493l33.4-11.3" />
      <path fill="#4f6467" d="M901.5 118.6l-14 8.4-14.6-11.6 21-8" />
      <path fill="#fffffd" d="M259.2 248l134.6 2.7L440 265l-249.2-2.3" />
      <path fill="#707f58" d="M815.7 465.2l1.2 13.6-40-30 8 11" />
      <path fill="#fcfefb" d="M1055 173l-42 76.7-163.6 1.5L987 267" />
      <path fill="#896a52" d="M371 363l-8.4 122L376 368.5l-13.2 6.7" />
      <path fill="#355056" d="M961.2 112l-26-45.8 61.7 38v43.6" />
      <path fill="#fff" d="M1002.7 317.8l-4.2 49.4 32.2-198-11.2 373.8" />
      <path fill="#001700" d="M25 365.5l7 45.7 35.5-9.5-42 87.4" />
      <path fill="#3c4c45" d="M687.6 119.5L647 24.2l54.4 71.4-50.7 38.4" />
      <path fill="#7a71af" d="M324.4 92.6l-1.5 34-18-1.2 34-25.8" />
      <path fill="#2f494e" d="M878.3 110l63.6 12-24-53.5-42 5.8" />
      <path fill="#ebf3f1" d="M429.7 439l34-95.8-21.2 21.5 65.2 85.6" />
      <path fill="#2a3426" d="M559 190.7L529.3 207l3.8 43.5 10-75" />
      <path fill="#6ba03f" d="M722.6 220l-25.4-17.7 28.6-4.7-4.2-18.4" />
      <path fill="#abd13b" d="M899.3 130.3l-42.5 9.4 4-7.6 11.7 9" />
      <path fill="#667f64" d="M893 227.6l-10-10.8 4.4-6.8-17.8 10.5" />
      <path fill="#899a93" d="M999.7 84.3L997 98.8l-26.6-16.6 29 11" />
      <path fill="#d5dfeb" d="M458 22.3l-38.2 61.5-25.3 2.3-8.7-10" />
      <path fill="#809185" d="M986.2 379.8l-5-34.7 7-2-.2 36" />
      <path fill="#002300" d="M205.8 473l11.7-20-23.7-42-66.8-17.3" />
      <path fill="#6ba93f" d="M649 151.6l12.2 13.6-22-1.7 4.7 25.2" />
      <path fill="#65a23f" d="M711 112l-1 17-47.6-4.3 8.8 25.4" />
      <path fill="#9abc3a" d="M932.7 117.8l-5.3 15.4 19.7-24.6 3 23" />
      <path fill="#9e9bc9" d="M413 193.8l-4.7-21-15-21-3 40.3" />
      <path fill="#254048" d="M839.5 196.4l-64.3-68.6v109l39-57" />
      <path fill="#add279" d="M659.4 23.8l-18-3.8 20.3 8.3 6.3-4.7" />
      <path fill="#eef7f4" d="M421.3 486.2l-14.5 13 3-32.8 5.3-.6" />
      <path fill="#000e00" d="M255.4 263.8l-38 154.8 31.6-40L193.6 276" />
      <path fill="#d3d9eb" d="M28 21.8l96.4-2.2L35 207.4l-12-77.7" />
      <path fill="#9ac63c" d="M822 202.3l-6 10.6 1 18 9-16" />
      <path fill="#365457" d="M964 474.6l-20.2-66 58 82.4-41.3-.3" />
      <path fill="#2b454a" d="M865.8 40.4l-18 13L809.4 22l11.8 85.4" />
      <path fill="#3d4545" d="M532.4 447.5L599 491l53.7-3.7L529 421" />
      <path fill="#5fac3e" d="M566.8 91H593l-3.2-12-9.8-8.7" />
      <path fill="#5f766c" d="M942.6 449.5L955 443l6.8 3.8-17 19.3" />
      <path fill="#fff" d="M-31 517l236.3-20.6 289 46.6L364 491" />
      <path fill="#3a413d" d="M639.2 237l-40.4-61 63.4 68.2-35.8 1.2" />
      <path fill="#ab9d42" d="M704.4 480l-3-4.5L728 467l-18 16.5" />
      <path fill="#758681" d="M886 37.6l-7.4-14.8-7.5-8.6L893 34" />
      <path fill="#d5dceb" d="M373.4 24L314 56l48.8 27 19-106.3" />
      <path fill="#3a3d3a" d="M530.8 138.7l32.2-.5 4.3 24.8-39 44.5" />
      <path fill="#e9ede8" d="M262.8 490l-63.4-1.8-9.3-3.7 12 1.8" />
      <path fill="#b1b2d7" d="M386.2 111.5L390 125l5.3-9.7-105.7-3.2" />
      <path fill="#27434a" d="M858.8 170l-3.6-47.5-4.8-8.8-13 87" />
      <path fill="#85c940" d="M606 23.3l24.2 2.4 2.4 10-43.2-4" />
      <path fill="#e3ecea" d="M442 469.4L391 488l63.8 3.7 1.3-21" />
      <path fill="#86c13b" d="M705 26.3l-4.3 15.4L723 49l6.2-14.3" />
      <path fill="#9ebb6d" d="M861 56l6-6 1.2 33.7 9.7-31" />
      <path fill="#c0c2dc" d="M230 173l-14.4-4.7 3.6-33.3h22.4" />
      <path fill="#4c5b53" d="M894.5 494l-30-23-1-1 79.8-9.2" />
      <path fill="#7ebf3a" d="M717 88.5l-4.5-8.6 22.3 1-.8 17" />
      <path fill="#887933" d="M574.6 475l13 .4 7.4-2-24.8 13.8" />
      <path fill="#a4ca4e" d="M953.3 53.8l12.4-2-25.6 1.5-9-22.5" />
      <path fill="#928cc1" d="M450.3 157l-6 1.7L423 154l-5-35" />
      <path fill="#3c5861" d="M999 248.4l-6.6-142 4.4 134.6-36 7.5" />
    </g>
  </g>
</svg>