<svg version="1.1" viewBox="0 0 1024 512" width="1024" height="512" xmlns="http://www.w3.org/2000/svg">
  <g fill-opacity=".5">
    <path fill="#7e7d81" d="M136 501.6l-34.7-1 103.2-11.3h-50" />
    <path fill="#b7b8eb" d="M18.5 211.7L198.2 280l-1.7-17.3-75 2.5" />
    <path fill="#f4ff00" d="M582.2 158.6l-8-39.7-20 8 4.2 64" />
    <path fill="#fffff9" d="M273.8 149l14.2-2.8 48.4 117.6 17.2-3.4" />
    <path fill="#fff" d="M459.2 336.3l406.4 95.3 77 10.7 47.2-105.5" />
    <path fill="#178e1f" d="M241 455.6l6.5 1.7-9 35.8-10-23" />
    <path fill="#00eafd" d="M582 237.4l-1.4 52-24.4-11.3-3-30" />
    <path fill="#686cc5" d="M112.5 289.8L102.3 269l59.3 8.2-1 16.2" />
    <path fill="#fff" d="M468.3 206.8l-26-7L416 248l66 19" />
    <path fill="#031911" d="M460 495l10.3-18 21.4 19-7.7-25.3" />
    <path fill="#fff" d="M846 318.5l37-3 172-44-199.6 125" />
    <path fill="#8d8c8a" d="M159.3 429l-84-2.6-9.6-7 89.6-1.8" />
    <path fill="#fffcff" d="M200.4 172.6l-32 68.4-32 4.4.7-64.5" />
    <path fill="#005f00" d="M530.5 465.8l-.3-8.7-8.6 2 2.2 20" />
    <path fill="#fff" d="M1027 258.4l-55.8 187 5.8 37.3 78 21.6" />
    <path fill="#580601" d="M929.5 199.7l25.6 13 38-22-25-13.3" />
    <path fill="#fff" d="M109.8 67.4L96.3-31-31 134 79 86.4" />
    <path fill="#000053" d="M983.7 269l19.7 17.4-2-44.8-6.2 17.6" />
    <path fill="#ff635f" d="M886.3 241.5l-4.5-32.2 26.2-.6 11.8 10.2" />
    <path fill="#00181a" d="M925 457.2l-11.5-4.4 10.5 65.5-4.6 21" />
    <path fill="#cb3a34" d="M961 151.8l10.8 7.7-3 22.5-62-7" />
    <path fill="#fafafa" d="M371.6 134.2l-7-2.3h-27.8l10-9" />
    <path fill="#fff" d="M304.5 64.5l-162 77.5L221 92l275 49" />
    <path fill="#9f0201" d="M849.7 211l-15.4-6.5-2.7-1 38.8-72" />
    <path fill="#fff" d="M802.6 155.6L872.8 83l-13 50.7-125.6-78" />
    <path fill="#155dd4" d="M241.3 139.2l-73.8 45.2-3.4-20 92-13" />
    <path fill="#fef9f5" d="M340 263.6l31-18.6-.7 25.5-45.4-32.8" />
    <path fill="#ff0003" d="M131.3 481.8l13.5-.3-7.6-7.2-13 2.5" />
    <path fill="#07260e" d="M814 488.2l10.8-25 17.2 37.3-5.5-18" />
    <path fill="#252221" d="M333.7 52.6l-14-10 10-4 3.7 4" />
    <path fill="#fff" d="M489 487.5l-1.4-13.3 26.8-136L497 489m480.3-187.6l-40 158.8-.4 24 10-2.2" />
    <path fill="#fffaf6" d="M934.4 277.5l-58.8-86.7 29.5 11.6-9 49.8" />
    <path fill="#fff" d="M978 201.7l40 36.7-122.2-49.2 38 29.6" />
    <path fill="#ff8500" d="M581 59l-24.3 20-2.7 45.5 28.5 5.2" />
    <path fill="#0d010e" d="M857.6 435l-18.4 27 37.8-16.5 4.8 18.7" />
    <path fill="#fff9ff" d="M664.6 471l-22.4 18.5-10-45.8L660 490" />
    <path fill="#004306" d="M185.3 483l38.2 11.2-54.5-9.5 11-37.3" />
    <path fill="#28a17c" d="M348.5 238.3L335 289.7l20.3 8.5.7-52.5" />
    <path fill="#d5100a" d="M775.8 173.4l-24.4 1.6 8.4-20.4 51.7 6.4" />
    <path fill="#fff" d="M216.8 293l54.3-36-45-1.2L34 365m91.2 88l-66-37.5 61.6 67.7-30.7-1M224 543l238.7-21.8 16.6-39.7 3.5 10.5" />
    <path fill="#98a2d0" d="M1006.2 232L987 199l.2.7 16.6-68.4" />
    <path fill="#0000e6" d="M932.8 74.8l-19-7.3-35 15.7-8.6 21" />
    <path fill="#fff" d="M270.6 112.2l17-142L317 71l10.6-102" />
    <path fill="#fff1ff" d="M872.8 468l-2-10 43.6 13.2-6-24.8" />
    <path fill="#50bf9c" d="M154.4 173.7l-71-106.2 52 62.5 17.6 1.4" />
    <path fill="#ed3d39" d="M139.2 447l-24.8 5.8 27.7-10.6 77 1.2" />
    <path fill="#091f1a" d="M66.8 483l47.5 11.5L90 479.2l1-4" />
    <path fill="#fff" d="M528.3 118L390.5 433 552 291l1-322" />
    <path fill="#7b1a18" d="M869.3 134l-32 48.7-31.5-13 14.3-32" />
    <path fill="#55e74b" d="M367 281l-8.3 7.3 27-12.8-6.6-39" />
    <path fill="#0000b4" d="M985.6 110.2l10.8 31.2-6.2 8.4 15.5-37.4" />
    <path fill="#fff" d="M548 89.2l12.3-107.8L300 81.4l188.5 64.2" />
    <path fill="#e4473c" d="M548 443.7l-62.6 1.6L458 444l24.3-2" />
    <path fill="#fffeff" d="M23.3 496L66 456l3 36.6L44.5 405" />
    <path fill="#fff" d="M760.4 490.2l25.4-4.7-1.6-41.6-39.2 34" />
    <path fill="#9380cb" d="M260 218.2L239 198l-92.2-31.6 15.5 10.4" />
    <path fill="#fff" d="M472 442.3L356.7 287.5l176.5 1.3L205 441.6" />
    <path fill="#003096" d="M264 165l11.6 15.8-72.3-10.6 12.7 11.2" />
    <path fill="#4d4c4c" d="M427.2 283.7l2-16.5 6.7-20.8-3 43" />
    <path fill="#bc0000" d="M933.3 202.2l4-20.5-66.8 11.5-71.2-41.6" />
    <path fill="#fff" d="M172.3 423.6l-.8 34.7 40-68.2-31.5-63M608.3-31L880 25l-173 2.4-166.8 4.2" />
    <path fill="#000006" d="M967 423.7l1 83.6 2.8-67.7-14.5 8.8" />
    <path fill="#57e18c" d="M499 157.6l22.7-40.5-93 90 69.3-21" />
    <path fill="#16d0aa" d="M345.4 312.2l28.2-32.6-20.8-8.3 20 55" />
    <path fill="#a3a3c0" d="M974 44.3l28.2-18-4.2 82.4-2.5-63.2" />
    <path d="M935.5 486.7l1-23.5-8.6-27.6 3 56.4" />
    <path fill="#fff" d="M158.3 440.8l-14 45.7 26.7-13.8-8.6 3.7" />
    <path fill="#006303" d="M278.5 233.2l-119.2 11.6-1.6 7.3 41.8 1" />
    <path fill="#fff" d="M817 483l-4.6 2-9.3 5.6-23-193M512 222l-83 13.3-.3 54.3-10-25" />
    <path fill="#00c9bf" d="M286.6 255.3l-27.4-6 53.4-8.3 23 16" />
    <path fill="#1c1b1b" d="M320.5 68.5l-18.4-30 9 30.2h13" />
    <path fill="#010162" d="M909.7 89.7l37.5-4.2 4.5-21.2L920 86" />
    <path fill="#131211" d="M310.3 67.2l23.7-4.7 2.4 6.7-14.7-2" />
    <path fill="#fff" d="M353 179.6l-2-29 111.4-16.4-98.4 98" />
    <path fill="#fefcfb" d="M797.2 495.6l106.6-1.2L1055 496l-114.2 47" />
    <path fill="#889788" d="M902.6 503.5L932 502v-13.3l-25 9.5" />
    <path fill="#343030" d="M40 122.2l-.8-14.2L58 92.8l-4.8 7.4" />
    <path fill="#fff" d="M965-31L588.8 24l297.7 1.4 65.2 22m-334.2 257L593 365.8l7.4 134.3L626 351M49.7 215l74 118 60-2-110 86.3" />
    <path fill="#51a5cc" d="M945.3 277l-14.4 9.6 9 4-170-33.2" />
    <path fill="#11171b" d="M852.6 489.3l-73.5.7H578l228 3.3" />
    <path fill="#9393c1" d="M1003.7 71l-2.5 40.8 7.2 25.2-26-74.6" />
    <path fill="#0000a0" d="M1003.3 338.4l-8.5-9.4-.6-14 10.7 4.7" />
    <path fill="#fff" d="M729 443.5l-9-247.2L629.5 373l-1 69M48 120.3l-10-34-60-1.8 77.8 24.2" />
    <path fill="#8eaaa6" d="M785 228l-51-14-31.6-4-8.7-19.5" />
    <path fill="#007e00" d="M629.4 373.5l-1.8 52.4-8.4-36-.6-10" />
    <path fill="#8eb0b7" d="M832.2 43.6l-12.3.7-38 1 26-19.8" />
    <path fill="#fbe9f2" d="M465.6 485.8l65.8-138.4-57 132.2-18-61.5" />
    <path fill="#00a4b9" d="M253.3 89.2l23.5-22.4L193 49.3 166.7 77" />
    <path fill="#1027b2" d="M143.4 322.8l33.3-5.2 15.5-11.4 29.7 32.6" />
    <path fill="#56463f" d="M118 228.2l15 7 .7-14.4-12-21" />
    <path fill="#191aff" d="M926 258.6l13.5-14.4 67.3 22.2-5.7-1.5" />
    <path fill="#fffffd" d="M868.2 209.4h84.5l-35 55.4.2-66.8" />
    <path fill="#fff" d="M30.6 203.7l80.7-14.4-31-80.3 40.2 12.6m465-37.6l-4.2 217.4L735 325 645.5 56" />
    <path fill="#000170" d="M824.6 60.3l122 29.5-36.8-3.4-34-.4" />
    <path fill="#719db5" d="M775.2 193.2L751 163.7l-29.7-14L777.8 258" />
    <path fill="#156f0e" d="M89.5 450.2l-6.6-6.8-6 40.8 1-16" />
    <path fill="#e8595e" d="M463 443.8l144.4 2.7 19-3-74-1.7" />
    <path fill="#b3d9af" d="M293.7 214.2l6.5-15 40.4-26.8-30 36" />
    <path fill="#fff" d="M704.3 521l146-24.8L840 543l-96.6-53.5M315.7 222.8l-66.7-47-44.5 6-13.7-12.8M-16-31l169 93.7 33-48.3L553.7 27" />
    <path fill="#fff" d="M196 229l153-10.4-220.7-7.8-7 2.5" />
    <path fill="#fffefe" d="M335.7 503.5l10.5-21.3L354 543l-223.7-49.8" />
    <path fill="#fff" d="M526.4 450.8l39.4-6 10 33-24.5 13.8M437 211l33.7-.5-30.6 65.7-5 47.5" />
    <path fill="#a748a3" d="M632.5 433.6l.6-2-12-14.8 1 37.8" />
    <path fill="#132228" d="M186.4 482.5L153 494.3l-118-.7 115-3.6" />
    <path fill="#339631" d="M583.5 372.3l1.6-5 10 7.8-13 11" />
    <path fill="#000058" d="M768.4 64.8l40-20.5-107 17.8-7.7-11" />
    <path fill="#006500" d="M276.8 479.3l1.6-20-8.7-7.6-.7 40.4" />
    <path fill="#e32a29" d="M736.7 445.8l-17.3-1.5 66.3-1 103 .6" />
    <path fill="#fff" d="M992.8 276.6L891 263l61 12-235 167.6m-695 16l6.4-143.2 26.7-9 2 189M652 85.8l99.4 80.8 25.5-83-46-27.2" />
    <path fill="#fffefe" d="M961 443.7L947.3 272l-84.8 189.6 15-95.4" />
    <path fill="#120e22" d="M965 431l1.6 53.4 5.7-83.3-12 12" />
    <path fill="#fff" d="M317.6 176.8l-55-28 29.7-1.8-34 73.8" />
    <path fill="#01b8a1" d="M314.8 304.6l-33.6 2-7-18.4 11-18.4" />
    <path fill="#f5f4f4" d="M312 55.5l20.6-9.7L314.8 69 304.5-31" />
    <path fill="#fff" d="M901 140.6l-6-52 53.5 1 24.4 57M711 491l-3-40.2 27.4 7.2-2.2 10" />
    <path fill="#fc0003" d="M555 62.5L579.7 50l4.5-19.4-20.7-.5" />
    <path fill="#fff" d="M552.8 77.5L553 432l-56-280.6 38.7-16.7" />
    <path fill="#05110a" d="M622 494.2l21.4-17.2-11 1.5 7.5 11.7" />
    <path fill="#020202" d="M421.4 282.4L463 278l-14-1-29.3 11" />
    <path fill="#fff" d="M971.8 491.6l83.2-2.5-19.8-205L970 389" />
    <path fill="#abb2eb" d="M70.8 196.6l-46 30.7 10-27.7 46 45" />
    <path fill="#0000fb" d="M59.7 420.7l.4-56.2 7 2.5-3 76.5" />
    <path fill="#fefeff" d="M136 307.3l39.2 13 38.2-39.6-42.2-.7" />
    <path fill="#fff" d="M623.2 478.2l2 25 133-9.4L604 538" />
    <path fill="#fffff9" d="M772.6 242l64 15.2 40.6-67.8L814 239" />
    <path fill="#fff" d="M269 457l-5 30.3-14 1.5-5.4-42.7" />
    <path fill="#fb3f3b" d="M899.2 234l16.8 3 4.7-1.8-2-22" />
    <path fill="#fffffe" d="M232.8 472l-7 21.2-21.6-19.6 3.6-21" />
    <path fill="#00d0ad" d="M320.6 310.2l17.3-31.8-39 22.4 34 28.2" />
    <path fill="#fff" d="M835 121l-25 33.8-51.5-5L770 64.2" />
    <path fill="#000071" d="M951 52l-59.6-24.5-82.7 21 197-3.6" />
    <path fill="#261c2b" d="M943.4 496.3l10-32.4-1 19-3 9" />
    <path fill="#0cd723" d="M265.5 226.7l-76 36.4 62.4-12-16-23" />
    <path fill="#fff" d="M313.2 158.5L308.4 83l31.5 67.5 77-7" />
    <path fill="#003600" d="M171.7 484.3l25.2 9.3 1-57.4 8 47.3" />
    <path fill="#fff" d="M911.8 155l43.4 1L984 69l-118.2 62.7" />
    <path fill="#82f9d3" d="M91.7 146.3l37.2-23.5-3 59.6-17-6" />
    <path fill="#ff0502" d="M939.8 192.7L857 182l-2.2-4.5 51.5-3" />
    <path fill="#57ba56" d="M126.3 88.2l-14.4-27-7-24.2 12 7.8" />
    <path fill="#1e841f" d="M883.2 470.7l4 .3 4.4 24.6-34.7-8" />
    <path fill="#1c471d" d="M359 471.4l-18.4 8.5-25.3 16 20-5" />
    <path fill="#fc0000" d="M885.5 217.3l14-4.3 11.3 2.8-21.6-5.6" />
    <path fill="#fff" d="M430 150l-99.3 32.4 89.3 26 17.6-15.2" />
    <path d="M91 230.7l10.3-20.4 10.5-6.3-14.8 3.2" />
    <path fill="#67ffff" d="M326.4 267l-3.2 18.8-37-11 22-25.4" />
    <path fill="#002a00" d="M296.8 493.2L279 478.5l15.4 1.6-19.2 13" />
    <path fill="#bebdbd" d="M662.2 306.4L647.4 334l-44-28.2-3.8 29.2" />
    <path fill="#f75359" d="M230.4 444l91-1.3 33.3 2.4-28.2 2" />
    <path fill="#fffcff" d="M359.3 491l77-32.8-20.6 35.2 59.6-25.7" />
    <path fill="#f9f9f9" d="M341.2 136.6l57 42.8-14 21.8-43.6-79.7" />
    <path fill="#007bff" d="M555.2 281.5l27.2-17.8.4 22.3-26.3 22.3" />
    <path fill="#005400" d="M798 462l-4.2-10.8-7.6 43.7 12.6-12" />
    <path fill="#792f2c" d="M851.6 164.6l88.2 12.7-11.8-10.6-56.7-33.3" />
    <path fill="#4e4ec5" d="M1003 173l2.3-84.4L997 148h-39.7" />
    <path fill="#252423" d="M419.2 294.8l-2.2-9-5.3-28.3 6.2 1.6" />
    <path fill="#fff" d="M580.7 364l-3-35.8-79 113.2L579 440" />
    <path fill="#3cc64c" d="M237.3 57L233 34l-28.5-14.6-6.6 4.4" />
    <path fill="#fff" d="M165.8 72.8l-35.6-.6-9 32.5 76.7 59" />
    <path fill="#20302a" d="M62.5 125l-4 1.2-18.3-5.6 11.4 11.8" />
    <path fill="#848383" d="M24.2 461l-4.4 77.2 3.8-197.4-3 17" />
    <path fill="#0000fa" d="M551.4 323l5.2-19.2 22-6.5 5 30.6" />
    <path fill="#c5c5d2" d="M957.5 132l22.4-2 33-52.2-3 3.8" />
    <path fill="#fafff4" d="M190 483.8l2.3-16 4.3-25-14 27" />
    <path fill="#00ff23" d="M552.5 196.2L579 193l3.6 45.8-23-10.5" />
    <path fill="#565aca" d="M108.3 302.7l21-17.3-10.4 23.8-15 1.8" />
    <path fill="#65db93" d="M483 224.8L466.7 146l-3 16.2 9 71.6" />
    <path fill="#fff" d="M1004.4 174.3L1025-31v574l-18.4-219.5" />
    <path fill="#fafffe" d="M41.2 110l35.7 4.6L33 200l38-91.3" />
    <path fill="#4f62b2" d="M228 298.5l-37.5 5.5-13 13.3 72.6-4" />
    <path fill="#fff" d="M940.6 439l16.7 18.4L951 472l-9 20" />
    <path fill="#000054" d="M803.7 66l-48.2 2.3L733.7 28l39 .3" />
    <path fill="#ff2825" d="M812.7 155l-5.8 11.2-47-2.6 43-12" />
    <path fill="#fff" d="M96.3 457l19.3 35.8 6.3-61.4-54-5" />
    <path fill="#fffeff" d="M164.8 543L140 497l181.8-3.4 204.5 7" />
    <path fill="#fff" d="M927.2 316.6L880 229l6-30-26.2-4.5" />
    <path fill="#abb8c6" d="M813.6 92.8l-27-24.2 47.6-1.7 11.3 68" />
    <path fill="#0f1c80" d="M250.4 312l-56.8 28.6-15.2-22 19-7" />
  </g>
</svg>