<svg version="1.1" viewBox="0 0 1024 512" width="1024" height="512" xmlns="http://www.w3.org/2000/svg">
  <g fill-opacity=".5">
    <path fill="#000a73" d="M333 343l20-42-3 33-8 6" />
    <path fill="#fff" d="M786 462L657 41l99 449 34-5M214 124l-81-48 1 49 68 38m220 53l51-11-23 54-12 23" />
    <path fill="#7a060d" d="M972 140l2 65-33 6-14-17" />
    <path fill="#00a800" d="M181 229l96 20-105 14-10-14" />
    <path fill="#000010" d="M953 479l20-31-6-45-16 79" />
    <path fill="#fff" d="M1037-31l-61 83-8-24-274-1" />
    <path fill="#004500" d="M736 507l7-76-10-4 2 32" />
    <path fill="#fffdfa" d="M587 249l9 269 40-119 1 92" />
    <path fill="#5d5756" d="M285 74l15-39 38 25-9-21" />
    <path d="M627 502l3-48-10-7-3 11" />
    <path fill="#fff" d="M987 200l-83 28 24 10 62 15M571 423l-402-92 6 109 252 1m-55-294l170-69-190 143 13-195M93 483l-7-56 33-2 1 62m815-51l-297-12 354-149-48 217" />
    <path fill="#750814" d="M919 445l-38-2h59l-24 59" />
    <path fill="#a09d9c" d="M602 30l59 15-24 16-39-10" />
    <path fill="#41b32b" d="M249 57l-17-20-30-19-12 18" />
    <path fill="#a09e9e" d="M610 312l55 3-20 15-42-2" />
    <path fill="#005" d="M987 44l14 10-7 11-249 2" />
    <path fill="#ef3f42" d="M708 440l-174 6-96-4 431 4" />
    <path fill="#0000bf" d="M998 275l10-20-66-11-17 21" />
    <path fill="#fff" d="M581-15l-76 140-188-10L357 0m414 194l40-24 63 100 72 2" />
    <path fill="#192423" d="M631 489l-111 5 1-21 53 25" />
    <path fill="#5355ce" d="M111 318l17-26-36-17 28-18" />
    <path fill="#071510" d="M943 489l-206 6-1-25 22 20" />
    <path fill="#3690b6" d="M806 246h-58l-29 40 19 22" />
    <path fill="#fff" d="M756 65l-128 54 195 40L720 55" />
    <path fill="#f7ecff" d="M108 254l81-75-34 74 80 31" />
    <path fill="#00ac94" d="M331 350l-22-50-36 10 9-57" />
    <path fill="#fff" d="M297 488l24 3 45-40-95-5" />
    <path fill="#8f8d8c" d="M26 423l-5 83-1-125 2-39" />
    <path fill="#fff" d="M75 325l85 90H67l14 98m398-304l70-133 3 13 1 222m-322 43l122 102-41-148-53-9" />
    <path fill="#fffffc" d="M845 492l13-56 2 97 179-15" />
    <path fill="#fff" d="M901 152l102-11-75-48-34-4m-703 52l104-84-6-81-1 158" />
    <path fill="#00f" d="M555 294l19-7 9 43-28-3" />
    <path fill="#036e05" d="M204 428l-9 33-1 14 13 28" />
    <path fill="#195808" d="M478 435l-11 2 20 64v-12" />
    <path fill="#d00000" d="M849 196l111-17-216-12 77-17" />
    <path fill="#234529" d="M859 428l37 62 126 5-162-3" />
    <path fill="#f55855" d="M285 443l188-2 17 5-133 1" />
    <path fill="#16c17c" d="M344 177l13-7-7-16-47 10" />
    <path fill="#fff" d="M957 471l98 42-39-135-72 149m71-191l-193 15 11 141 18-66" />
    <path fill="#064e1d" d="M165 427l11 51 65 17-80-4" />
    <path fill="#fff" d="M422 262l-42-7 62-21-23 62" />
    <path fill="#26342f" d="M821 493l56-89-35 65-27 1" />
    <path fill="#fff" d="M-4-31L95-1 65 159l1-43" />
    <path fill="#372e1c" d="M132 203l-12 2-3 4 19 23" />
    <path fill="#fff" d="M702 137L551 439 677-26l12-5" />
    <path fill="#323c34" d="M321 493l137 2-44-13-32 10" />
    <path fill="#0000f4" d="M57 351l5 115 5-56-2-48" />
    <path fill="#fff" d="M229 252l57 165-19 2 12-163" />
    <path fill="#001300" d="M696 487l6-25 5 34-47-6" />
    <path fill="#029e86" d="M342 265l29 2-17 53-7-18" />
    <path fill="#717edf" d="M35 229l19-12 22-1-49-12" />
    <path fill="#fff" d="M891 294l111-14-61-13 114 254" />
    <path fill="#00f" d="M721 48l19-19-45-3 3 28" />
    <path fill="#fff" d="M182 327l14 172-12-31-20-130m561-43l10 191-31 2-3 55M859-22l-34 76-16-49 144 43" />
    <path fill="#9dafb5" d="M830 65l-54 13 72 32 28-25" />
    <path fill="#fff" d="M88 494l-5-8-57 57 438-42" />
    <path fill="#090f11" d="M599 502l-15-13-4-2 2-64" />
    <path fill="#fff" d="M331 143L314 9l1 151 44-6" />
    <path fill="#18ff00" d="M581 223l-27 11 1-63 24 3" />
    <path fill="#fff" d="M316 543l483-41-210-7-245 3" />
    <path fill="#000045" d="M731 53l40 20 18-45-61-1" />
    <path fill="#fff" d="M630 474l36 14-4-29-27-74" />
    <path fill="#ff1b00" d="M580 30l-24 4v65l25 17" />
    <path fill="#58e4b2" d="M152 175l-30 8-42-39 75-15" />
    <path fill="#31d85b" d="M259 40l-10 28 35-28-24-9" />
    <path fill="#1427a1" d="M177 345l58-37 18 5-17 22" />
    <path fill="#00399e" d="M271 187l-69-38 20-11 41 8" />
    <path fill="#742c27" d="M826 137l-36 37 164-11-111-29" />
    <path fill="#fff" d="M246 58l59-89 255 176L199-25" />
    <path fill="#7f9ca9" d="M714 214l-24-30 89 50-8-62" />
    <path d="M674 493l3-54-10 13h4" />
    <path fill="#28c488" d="M307 116l7 63-27-44 3-25" />
    <path fill="#fff" d="M837 469l11-26-49 49v-42" />
    <path fill="#58a52c" d="M382 241l-39 16 61-49 3 17" />
    <path fill="#fff" d="M341 231l43 47-142-110 38 80" />
    <path fill="#00a4af" d="M254 91l-83-12-12-15 117-17" />
    <path fill="#494747" d="M311 66l-12-27 23 35 21-35" />
    <path fill="#5affff" d="M287 244l44 30-17 24-33-30" />
    <path fill="#00009a" d="M945 88l-11-45-59 73-5-28" />
    <path fill="#1d3b2b" d="M86 127l-14-20 13-11-14 34" />
    <path fill="#fff" d="M271 482l-19 18-17-117-70-62m698-102l-86-28 7 48 30 22" />
    <path fill="#46a842" d="M529 454l-33 17 13-17 35 44" />
    <path fill="#ff6561" d="M864 209l55 40-4-46-67 40" />
    <path fill="#088b00" d="M169 440l-3 17-6-87 12 11" />
    <path fill="#15191e" d="M476 495l213-4h-66l-11-3" />
    <path fill="#3939b6" d="M984 65l-25-22 55-15-64-1" />
    <path fill="green" d="M631 386l-11 48-1-10 2-52" />
    <path fill="#fff5f2" d="M130 477l32 6-4-16 7-105" />
    <path fill="#fff" d="M234 444l-25 29 1 19 21-7m636-37l102-141-13 145-120-67" />
    <path fill="#100e0e" d="M340 140v-24l-8 25 20 6" />
    <path fill="#fff" d="M146 130l57-46-63-12-19 19m-54 55l13-16 20-48 17 48" />
    <path fill="#e10d12" d="M869 444l-47-1 4-1-24 3" />
    <path fill="#005a00" d="M792 490l3-2 4-46-10 11" />
    <path fill="#00004e" d="M948 69L837 56l-5-26 68-2" />
    <path fill="#793f77" d="M593 433l-10-12v-59l10 21" />
    <path fill="#5d6ad2" d="M968 167l34 27v-56l-31 7" />
    <path fill="#fff" d="M359 439l77-96-39-111-11 10m-227 3l-59-19-10 164-121-174m611 35l19-137 128 110-6 142" />
    <path fill="#41d77e" d="M489 190l-42-50 32-1 23 40" />
    <path fill="#007b00" d="M278 490l-6-5-5-33 13 6" />
    <path fill="#fff" d="M278 266l-37-13-223 98 149-37m13-222l-4-12-26 87 59-10" />
    <path fill="#12c3ff" d="M803 282l-59-8 1 15 75 4" />
    <path fill="#fff" d="M949 65l28 79-149-11 156-64M336 358l21-39 163 125 77-118M453 446l-93-2 63 43 42-1" />
    <path fill="#1c1c1c" d="M456 275v-15l-21 16 21 9" />
    <path fill="#2a1635" d="M193 491l145 4 4-40 11 36" />
    <path fill="#fffdfa" d="M882 253l-12-62 46 3-35 28" />
    <path fill="#1c111f" d="M881 457l-1 51 5-86-18 33" />
    <path fill="#2f360c" d="M116 440l28 58-81-16 63 7" />
    <path fill="#0000f0" d="M823 41l-33 11 30 14 28-7" />
    <path fill="#fff" d="M311 325l-197 74L-1 263l179 81" />
    <path fill="#080" d="M244 235l13-8 19 7-11 21" />
    <path fill="#fff" d="M843 188l-68 50 4-63 42-1M-31 13L9 528l28-414 88-145" />
    <path fill="#3c3a3a" d="M370 127l-39-7 48-1v29" />
    <path fill="#fff" d="M1055-31L696 16l307 12 3 302" />
    <path fill="#e43447" d="M590 443l151 1-9 1H631" />
    <path fill="#383695" d="M998 336l-22 1 4-18 26-12" />
    <path fill="#fff" d="M781 246l181-12-82 30-30-13" />
    <path fill="#94f190" d="M81 97l9-19 74-5 46-55" />
    <path fill="#fff" d="M529 447l3 35 37 6 15-13" />
    <path fill="#112bb4" d="M170 325l-33 5 106 2-46-31" />
    <path fill="#fff" d="M333 329l-13-28 12-5h20" />
    <path fill="#0f492a" d="M244 489l2-32-20 38-70-6" />
    <path fill="#86a8c0" d="M738 158l-18 100 41-23 17-49" />
    <path fill="#fff" d="M950 158l-46-6-66-49 138 21M232 231l28-10-105-41 47 57" />
    <path fill="#ffebfe" d="M524 497l-3 17v-62l-19 27" />
    <path fill="#0ca41b" d="M178 265l-12-6 7-38 49 41" />
    <path fill="#fffefe" d="M920 413l8 77 6-178 121 55" />
    <path fill="#fff" d="M366 113l-5 29-47-173 234 139M350 444l5 44 25 4 95-28M301 235l-199-61 13 62 5-33" />
    <path fill="#00c5a0" d="M319 331l-18-47 27 30 7 33" />
    <path fill="#262525" d="M384 145l-6-7-3 12-23-15" />
    <path fill="#fff" d="M281-24l194-7-209 87 12 16" />
    <path fill="#000016" d="M62 472l2-53-6 29 2 43" />
    <path fill="#fff" d="M861 136L693 56l11-69-114 151m150 51l-4-16-111-29 89 52m316 36l-49 19-65-12 9-36" />
    <path fill="#000008" d="M61 430l10 5-1 58-4-46" />
    <path fill="#1eb203" d="M403 239l20 3 2-12-30-12" />
    <path fill="#0a03c2" d="M927 264l-2-21 68 8 8 23" />
    <path fill="#fff" d="M688 490l9-4v-52l-19 41" />
    <path fill="#ffb5ff" d="M967 441l-4 68-3-26 1-25" />
    <path fill="#fff" d="M444 132l-23 77-49-1 21-152m526 386l-36 12 13 31 17-4" />
    <path fill="#003c00" d="M751 493l-16-11 2-26 4-30" />
    <path fill="#3287a9" d="M725 274l37-13 88-8 74 38" />
    <path fill="#fff" d="M805 296l-49-2-120 148 200-36" />
    <path d="M676 469l-16 28 9-46 5-10" />
    <path fill="#fff" d="M495 295l-56-13-258 158 416-71" />
    <path fill="#ff3340" d="M904 442l27 9 10-5-10-7" />
    <path fill="#06577c" d="M825 330l35-14 43-3-71-26" />
    <path fill="#00adb7" d="M226 60l-41 41 11 12 46-61" />
    <path fill="#001900" d="M627 458l-13-14 2 35-1 13" />
    <path fill="#58e190" d="M441 169l41 61-1-56 38-48" />
    <path fill="#fff" d="M354 457l-41 35-37-17 7-22" />
    <path fill="#002700" d="M708 492l-1-29h-1l-10 6" />
    <path fill="#fff" d="M238 494l-71 1H-2l11 48" />
    <path fill="#f8fdff" d="M107 176l-33 94L60 36l18 113" />
    <path fill="#001b00" d="M513 490l-13 3 10-29-10-8" />
    <path fill="#244a2d" d="M898 489l-89 4 113 2 12-14" />
    <path fill="#fff" d="M653 543l21-70v20l-393 12" />
    <path fill="#ff1512" d="M855 239l15-11 9 16-13-40" />
    <path fill="#2e3431" d="M62 129l2-30-15 32-11-13" />
  </g>
</svg>