<svg width="1024" height="512" viewBox="0 0 1024 512" xmlns="http://www.w3.org/2000/svg">
  <g fill-opacity=".5">
    <g class="UTIL__svg-thumb__low-res">
      <path fill="#00004d" d="M1021.856 42.01L915.97 92.933 681.686 53.627l19.34-31.06" />
      <path fill="#720000" d="M966.018 211.54l48.564-43.904-169.124-31.918-116.625 26.128" />
      <path fill="#004ba6" d="M888.275 256.66l151.242-15.3-203.34 93.21-138.834-88.607" />
      <path fill="#417b00" d="M553.767 297.7l3.053-266.97 27.555-4.64L580 362.695" />
      <path fill="#20d278" d="M103.244 222.143l237.852 19.107 113.854-55.962-119.67 147.594" />
      <path fill="#00008a" d="M882.422 111.668L689.582 34.07l181.23-10.978 120.716 29.965" />
      <path fill="#40443a" d="M485.834 492.55L966.1 442.824l5.965 50.116-63.423 2.98" />
      <path fill="#006a95" d="M148.546 33.523L282.1 183.635 179.562 172.21l103.22-124.905" />
      <path fill="#23401c" d="M25.705 495.856l231.18-.712 115.523-1.122-209.8-26.05" />
      <path fill="#000092" d="M130.324 329.867l78.282 8.146 48.943-11.734-31.117-29.637" />
      <path fill="#900000" d="M841.327 219.342l-26.097-91.418 217.118 77.306-163.628-19.136" />
      <path fill="#008b00" d="M161.575 234.846l-4.22 13.55 18.67 24.18 117.6-45.314" />
      <path fill="#ff8200" d="M553.874 178.412l27.272 2.456L583.7 48.294 552.774 15.97" />
      <path fill="#009dff" d="M555.1 227.974l26.157-31.45 1.805 127.892-30.367 9.577" />
      <path fill="#fff" d="M750.697 499.833L1055 361.26 567.862 249.685 802.186 540.91" />
      <path fill="#000da0" d="M290.592 130.876l-130.125 35.49-5.583 9.062 110.134 2.237" />
      <path fill="#3f403a" d="M644.387 498.91L619.65 379.903l-5.837 96.035-250.284 14.615" />
      <path fill="#00e452" d="M430.58 166.885l29.312-29.123 46.99-.557-31.03 86.583" />
      <path fill="#000078" d="M57.907 468.973l66.346 42.087-51.26-62.552-13.48-106.895" />
      <path fill="#047e00" d="M162.002 386.775l36.56 104.386 12.643-53.864-55.03 58.086" />
      <path fill="#fff" d="M116.154 301.603l120.642 3.562L496.48 543 257.13 248.726" />
      <path fill="#14709b" d="M722.64 237.644l37.718-83.972 30.088 133.963-57.224 9.888" />
      <path fill="#060000" d="M593.272 471.783l1.883-93.944-11.636-9.7-.68 120.328" />
      <path fill="#030900" d="M867.753 488.974l19.578 2.713-2.948-57.58-43.18 5.227" />
      <path fill="#fff" d="M581.52 204.097l233.54-58.638 60.147-65.864-293.034-25.688M883.084 473.88l18.7 20.564 83.65-181.932-91.357-96.226" />
      <path fill="#0000b5" d="M999.512 247.01l-77.496-.807 14.264 18.786 71.206 15.518" />
      <path fill="#fff" d="M67.68 128.465l96.606-59.526 1.388 90.007 504.98-166.97M169.163 462.5l455.645-39.444-111.39-201.385-332.09 138.95" />
      <path fill="#00648f" d="M906.018 292.492l-80.48 45.588-41.876-85.894 160.526 30.212" />
      <path fill="#fff" d="M827.293 47.488l-53.73-19.99L-31 30.748 867.822-31" />
      <path fill="#fff" d="M65.413 209.448L6.097-31-31 446.322l207.37-62.66" />
      <path fill="#02c3ca" d="M327.45 349.332l-68.512-112.097 100.695 28.93 9.78 59.74" />
      <path fill="#fff" d="M585.287 344.393l145.416 151.08 23.805-181.05L580.14-31" />
      <path fill="#2423b7" d="M1004.353 221.314l-.17-139.946-46.39 99.887 14.665-20.243" />
      <path fill="#00b592" d="M201.72 17.74l-36.847 56.622 62.622 22.926 59.092-27.44" />
      <path fill="#003600" d="M750.153 483.06l-9.5 10.43-8.2-42.28 12.81-41.133" />
      <path fill="#000076" d="M974.21 48.59l-30.586 40.168-253.407-32.062 46.468-30.232" />
      <path fill="#fff" d="M380.968 130.987L309.323-3.025 553.87-17.432l-1.626 178.324" />
      <path fill="#0f0" d="M582.907 177.674l-28.093-30.12-1.084 91.797 24.6 23.677" />
      <path d="M971.18 403.49l-.715 99.38-8.8-73.57-1.114-24.253" />
      <path fill="#0a3400" d="M462.155 499.906l1.754 2.723 13.014-78.538 11.72 61.79" />
      <path fill="#00f" d="M583.876 288.938l-3.592 38.364L552 329.75l2.82-59.572" />
      <path fill="#262221" d="M413.082 262.88l.313 26.166 44.42-5.28-2.817-22.478" />
      <path fill="#900" d="M759.29 153.8l144.91-3.654 94.688 27.89-264.91-7.007" />
      <path fill="#ff433b" d="M919.153 239.718l7.6-30.136-69.37 5.26.492 25.72" />
      <path d="M679.375 482.376l-4.234-43.56-15.562 41.925 28.552 17.555" />
      <path fill="#fff" d="M82.5 89.097L297.153-31-31-30.712V126.66" />
      <path fill="#0000e9" d="M69.736 348.192L60.314 475.22l-4.368-103.235 5.025-19.708" />
      <path fill="#fff" d="M538.3 233.83L356.497 337.887 569.625 505.92l12.873-55.41" />
      <path fill="#2ade95" d="M127.543 126.253L115.947 20.568l-8.542 166.41 59.548-46.672" />
      <path fill="#3e3634" d="M329.458 121.482l11.314 26.54 40.042-2.555-4.065-25.146" />
      <path fill="#004a00" d="M264.134 495.452l35.278-1.38L281.28 472l-5.363-29.466" />
      <path fill="#675da6" d="M187.65 274.703L85.42 217.62l50.216-13.594-28.69 105.145" />
      <path fill="#fff" d="M956.634-31L617.384 6.293l282.547 25.332 54.862 19.86" />
      <path fill="#241c1a" d="M300.52 45.12l-10.568 17.694 61.207 6.436 4.746 5.564" />
      <path fill="#fff" d="M1034.81 543l-7.132-195.12-91.205 141.753 4.267-67.744M935.792 161.735l-53.697-25.47 16.422-50.304 94.464 3.904M1055 48.38L992.913-29.78l9.485 134.063 6.47 245.546" />
      <path fill="#ff0c00" d="M551.6 31.815l12.806 105.61 22.305-99.13-18.17-11.105" />
      <path fill="#fff" d="M572.052-28.318l122.842 23.86L696.22 379.3l-52.703 126.953M-4.785 189.16L425.5 243.624l-38.89 45.502-13.524-111.006" />
      <path fill="#055602" d="M503.453 492.69l19.895-36.766 26.63 40.04-54.09-38.54" />
      <path fill="#006e00" d="M159.32 383.125l10.79 98.657 2.67-96.537-8.424-6.892" />
      <path fill="#fff" d="M427.98 533.918l33.76-307.926 91.757-118.61-.13 174.84" />
      <path fill="#fff" d="M380.147 489.845L104.374 349.197l489.02-19.32L435.91 476.26" />
      <path fill="#120014" d="M359.52 488.544l121.88 4.528-150.473 1.64 15.36-30.104" />
      <path fill="#00069e" d="M184.46 320.154l-5.896 12.857 57.917 6.548-2.945-50.414" />
      <path fill="#555853" d="M85.455 120.182l-4.38-20.448-51.19 1.333 14.955 28.76" />
      <path fill="#fff" d="M153.61 194.52l98.525 26.76L2.55 276.56-31 513.1" />
      <path fill="#009400" d="M173.596 246.904l70.357-20.383 50.89 25.776-127.332 5.4" />
      <path fill="#007b00" d="M631.27 381.042l-12.082-17.553.748 61.67 10.388 8.152" />
      <path fill="#56e1a3" d="M355.142 168.53l-29.094 14.26-94.635-79.222 66.188 12.984" />
      <path fill="#00007d" d="M1004.582 342.077l-24.794-12.882-2.108 8.233 26.225-32.304" />
      <path fill="#fff" d="M498.65-31L416.797 76.294 312.464 261.32l112.692-56.087" />
      <path fill="#492600" d="M123.737 434.71l20.24 51.4 121.41.298-146.753 7.285" />
      <path fill="#060391" d="M953.085 28.593l38.25.112 10.505 44.744-33.742-10.752" />
      <path fill="#fff" d="M210.297 494.387L199.97 338.45 240.045 543l472.996-48.773" />
      <path d="M915.813 488.054l22.786 14.413-.307-51.97-18.253 7.48" />
      <path fill="#a80000" d="M959.827 209.408L743.465 152.45l222.146 18.455 34.746 17.408" />
      <path fill="#fff" d="M1055 261.367L772.382 358.48 807.437 486.9l84.732-94.688" />
      <path fill="#fff" d="M744.407 217.525l135.31 18.478 116.68 60.337-103.875-27.36" />
      <path fill="#037100" d="M786.384 472.15l5.185-29.158 10.64 10.135-5.112 50.51" />
      <path fill="#fff" d="M242.775 290.638l14.3 252.2 18.73-285.993-111.138 11.063" />
      <path fill="#023c13" d="M221.836 492.76l20.15-43.1 5.2 37.56 114.234 7.08" />
      <path fill="#fffc00" d="M576.573 83.286l-22.935 24.237-.105 68.64 31.614 6.66" />
      <path fill="#33b500" d="M413.994 258.593l3.5-5.774-26.94-36.04 39.61-12.4" />
      <path fill="#fff" d="M833.663 262.042l-56.122-25.77 14.048-66.25 38.925 8.478" />
      <path fill="#30c34b" d="M109.992 39.735l19.002 21.287 70.78 2.28-99.988 16.126" />
      <path fill="#fff" d="M139.864 283.902l-77.884 62.17 90.208 151.665 10.26-38.293" />
      <path fill="#007000" d="M199.872 432.42l-25.95 61.868-6.26-44.92 36.003 15.748" />
      <path fill="#fff" d="M336.31 503.814L-31 543 32.99 23.053l26.525 468.214" />
      <path fill="#fcffff" d="M848.792 71.15L737.3 173.982l-77.246-109.98 78.943 2.482" />
      <path fill="#040c0e" d="M611.066 479.2l15.017-10.942 6.66 26.182 112.89-2.04" />
      <path fill="#fff" d="M866.913 543l-10.954-77.392-20.335 37.17-266.017-6.703" />
      <path fill="#fff" d="M711.986 436.536l301.89-40.69L679.73 288.75l.046 223.6" />
      <path fill="#0befe5" d="M270.288 296.738l40.825 12.357 32.855-33.04-26.503-46.02" />
      <path fill="#fff" d="M1031.206 236.723l-43.08 13.483L872.06 191.23l37.642 3.86" />
      <path fill="#000070" d="M863.74 26.587l51.007 4.42-26.498 82.29-54.732-84.918" />
      <path fill="#fff" d="M275.535 141.93l-1.53 102.465 69.365-7.534-32.414-58.44" />
      <path fill="#0ff" d="M584.164 262.905l-3.738-22.373-28.063-18.886 4.818 77.92" />
      <path fill="#51543c" d="M94.143 500.16l-33.61-70.072-6.913 79.204 30.455-74.307" />
      <path fill="#00a0b8" d="M208.95 47.7l56.692 8.474 5.678 17.372-87.538 36.98" />
      <path fill="#8d0000" d="M856.4 136.244l27.526 1.81-33.71 72.11-18.758 4.766" />
      <path fill="#0000c2" d="M1001.263 257.356l-70.88-14.75-2.72 6.51 82.57 37.79" />
      <path d="M593.54 443.626l-1.18 21.936-9.086 26.83-.972-88.877" />
      <path fill="#30d772" d="M524.354 128.786l-77.485 71-10.286 6.61-1.003-48.56" />
      <path fill="#130e00" d="M101.647 199.208l12.737 34.127-17.045-3.803-9.388 1.81" />
      <path fill="#fff" d="M266.648-31l9.363 112.678 95.365-21.33-52.96 103.037M1004.63 345.112L1006.915-31 1055 466.374 844.71 318.648" />
      <path fill="#62a0c4" d="M786.194 214.28l-70.217-57.153-34.468 3.845 33.41-28.037" />
      <path fill="#fff" d="M184.826-31L-31 7.17l185.23 48.146 47.338-2.465" />
      <path fill="#fedcde" d="M354.463 291.17l-68.988 12.125 38.182-7.504 14.63 42.387" />
      <path fill="#fff" d="M752.82 83.882l169.19 73.616-60.44-65.647-62.77 62.01" />
      <path fill="#f31402" d="M127.853 462.648l-9.674-16.443 4.55-3.493 28.974.74" />
      <path fill="#fff" d="M777.634 290.057l-233.166 54.99 276.022 96.158-4.283-133.41" />
      <path fill="#7b777f" d="M163.26 416.475l-33.897 17.795 10.66-1.75-85.238-13.488" />
      <path fill="#182e1f" d="M789.07 497.232L839.08 472.5l19.275-56.01L845.255 488" />
      <path fill="#00269a" d="M177.694 174.292l60.948-37.342 22.784 1.895 16.948 23.898" />
      <path fill="#00008a" d="M729.15 27.374L697.98 35.1l.873 32.326 119.56-39.257" />
      <path fill="#6da9be" d="M70.748 146.513l200.625 74.744-46.666-32.564L75.027 135.4" />
      <path fill="#005486" d="M807.092 301.623l89.237 3.546-94.032 30.774 55.745 1.093" />
      <path fill="#fff" d="M997.942 58.203l-16.29 92.73-33.944-83.318 69.372-2.754M1027.47 496.67L975.26 543l-443.55-48.136 406.64-.453" />
      <path fill="#001b96" d="M222.554 338.49l44.15-25.435-92.784 4.976 18.346 23.967" />
      <path fill="#849ae0" d="M849.78 126.132L780.754 26.81l54.18 5.812-43.31 44.357" />
      <path fill="#f02f2b" d="M168.162 443.074l36.815-1.825 150.487 3.28-242.34 1.624" />
      <path fill="#fff" d="M-29.628 87.562l108.243 58.475 56.01 56.615L-31 214.02" />
      <path fill="#0000c9" d="M907.318 88.782l-149.8-52.24L920.41 70.018 946.676 87.9" />
      <path fill="#00171c" d="M73.93 490.755l-8.79-18.116 27.58 9.434 28.617 12.546" />
      <path fill="#fff" d="M916.767 485.01l-23.247 4.06.15-194.47 27.496-10.657" />
      <path fill="#0302a3" d="M1004.964 158.183l-27.662-48.318 12.57 8.447 13.21-17.724" />
      <path fill="#91e287" d="M283.93 128.42l87.94 148.527 8.482 10.64 2.537-47.47" />
      <path fill="#1477ae" d="M722.23 284.812l167.145 29.37 45.727-72.972 1.852 47.616" />
      <path fill="#fff" d="M-31 11.028l234.734 6.56 283.404 55.58L662.465-31" />
    </g>
    <g class="UTIL__svg-thumb__high-res">
      <path fill="#000a73" d="M332.56 342.825l20.332-41.838-2.807 32.522-8.39 6.145" />
      <path fill="#fff" d="M786.374 461.745L656.59 40.52l99.43 448.958 34.316-4.207M214.348 123.87l-81.743-47.892 1.807 49.058 67.676 38.32M421.264 215.864l51.248-11.36-22.618 54.624-12.14 22.51" />
      <path fill="#7a060d" d="M971.45 139.472l2.152 65.026-32.678 6.497-14.057-17.25" />
      <path fill="#00a800" d="M180.974 229.223l95.834 20.258-105.204 13.843-9.347-14.494" />
      <path fill="#000010" d="M953.136 478.657l19.624-30.4-5.85-45.563-15.562 79.165" />
      <path fill="#fff" d="M1037.063-31l-61.276 82.526-8.23-23.587-273.93-.955" />
      <path fill="#004500" d="M736.095 506.54l7.27-75.873-10.292-3.442 2.046 31.52" />
      <path fill="#fffdfa" d="M586.83 249.15l9.173 268.3 40.39-118.508.807 91.857" />
      <path fill="#5d5756" d="M284.605 74.27l15.334-39.412 37.79 24.64-9.018-20.62" />
      <path d="M626.52 502.313l3.022-48.768-9.883-6.24-2.21 10.53" />
      <path fill="#fff" d="M987.15 199.952l-83.455 27.623 23.513 10.11 62.354 15.26M570.49 423.36l-401.814-92.41 6.02 109.003 252.435 1.268M371.907 147.307l169.758-69.335L352.13 220.524 365.446 26.34M92.726 482.938l-6.476-56.01 32.984-1.895 1.074 61.917M935.14 436.078l-297.272-12.56 354.187-148.363-48.36 216.653" />
      <path fill="#750814" d="M918.538 445.44l-37.28-2.768 59.103.306-24.23 59.06" />
      <path fill="#a09d9c" d="M602.023 30.07l58.533 14.736-23.152 15.633-39.662-10.102" />
      <path fill="#41b32b" d="M249.154 56.54l-17.39-20.012-29.387-18.304-12.184 17.592" />
      <path fill="#a09e9e" d="M609.52 312.426l54.88 2.19-19.505 15.21-41.467-1.418" />
      <path fill="#005" d="M987.008 44.004l14.42 10.342-7.01 10.355-249.646 2.488" />
      <path fill="#ef3f42" d="M708.27 440.133l-174.546 5.948-95.675-3.875 431.492 4.267" />
      <path fill="#0000bf" d="M998.188 275.047l9.468-20.21-65.217-11.09-17.03 21.04" />
      <path fill="#fff" d="M581.33-14.77l-76.654 139.883-187.244-9.838L357.385.172M770.643 193.877l40.26-24.355 63.46 100.8 72.358 1.99" />
      <path fill="#192423" d="M630.604 488.827l-110.922 4.71 1.17-20.42 53.152 24.657" />
      <path fill="#5355ce" d="M110.777 317.505l16.786-25.684-35.694-16.433 27.797-18.046" />
      <path fill="#071510" d="M942.748 488.995l-206.03 6.346-.37-25.3 21.545 19.834" />
      <path fill="#3690b6" d="M805.648 245.51l-57.306.606-28.915 39.815 18.96 21.49" />
      <path fill="#fff" d="M755.672 64.795L628.28 118.538l194.29 40.02L719.736 54.503" />
      <path fill="#f7ecff" d="M107.972 254.337l80.654-75.46-33.263 74.838 79.617 30.278" />
      <path fill="#00ac94" d="M330.572 349.913l-21.308-49.667-35.928 10.333 8.888-57.275" />
      <path fill="#fff" d="M296.467 488.05l24.492 2.725 45.323-39.833-95.318-4.886" />
      <path fill="#8f8d8c" d="M26.08 423.057l-4.84 82.7-1.106-125.224 2.184-38.59" />
      <path fill="#fff" d="M75.1 324.89l84.644 90.362-92.868.014 13.695 97.8M479.405 208.88l69.87-132.662 2.994 12.445 1.06 222.316M231.43 353.684l121.824 102.683-40.937-148.48-53.52-8.052" />
      <path fill="#fffffc" d="M844.603 491.457l12.867-55.322 2.87 96.436 178.595-15.22" />
      <path fill="#fff" d="M901.1 152.323l102.016-11.626-75.38-47.423-33.795-4.056M191.393 141.153L295.52 56.708l-6.077-80.435-1.11 158.044" />
      <path fill="#00f" d="M554.79 293.937l19.728-6.78 7.968 43.09-28.115-3.664" />
      <path fill="#036e05" d="M203.802 428.22l-8.633 33.194-.753 13.415 12.16 27.832" />
      <path fill="#195808" d="M478.01 435.167l-11.035 1.638 19.745 64.543-.027-12.644" />
      <path fill="#d00000" d="M848.686 195.46l111.6-16.44-216.547-12.37 77.35-16.192" />
      <path fill="#234529" d="M858.832 427.717l37.426 62.427 125.993 4.42-162.422-2.8" />
      <path fill="#f55855" d="M284.837 443.003l187.88-1.94 17.053 5.227-133.155.67" />
      <path fill="#16c17c" d="M343.91 177.345l13.103-7.458-7.472-15.055-46.326 10.394" />
      <path fill="#fff" d="M957.34 470.833l97.648 42.034-38.827-135.034-72.488 149.36M1014.65 335.787l-192.744 14.68L832.8 491.676l18.743-65.82" />
      <path fill="#064e1d" d="M164.5 426.748l11.844 51.042 64.643 17.602-80.09-4.33" />
      <path fill="#fff" d="M422.175 261.51l-42.052-6.23 62.105-21.288-23.64 61.68" />
      <path fill="#26342f" d="M820.792 492.875l55.995-89.14-34.285 65.3-27.694 1.38" />
      <path fill="#fff" d="M-3.92-31L94.54-1.36 65.324 158.694l.68-42.622" />
      <path fill="#372e1c" d="M131.55 203.37l-11.98 1.39-2.724 3.89 19.32 23.44" />
      <path fill="#fff" d="M701.45 137.024L550.708 438.976l126.57-465.41L689.283-31" />
      <path fill="#323c34" d="M321.014 492.5l136.71 1.987-43.97-12.383-31.314 9.283" />
      <path fill="#0000f4" d="M57.17 351.067l4.496 115.042 5.705-55.853-2.752-48.39" />
      <path fill="#fff" d="M228.54 252.412l57.33 164.69-19.376 2.14 12.093-163.785" />
      <path fill="#001300" d="M696.397 487.277l6-25.668 5.062 33.883-47.437-5.098" />
      <path fill="#029e86" d="M341.923 265.24l29.22 1.76-17.636 53.334-7.108-18.564" />
      <path fill="#717edf" d="M35.137 229.198l19.09-12.272 21.58-1.457-49.153-11.72" />
      <path fill="#fff" d="M890.68 293.632l111.487-13.666-61.235-12.732L1055 521.078" />
      <path fill="#00f" d="M720.76 47.893l19.773-19.074-45.944-2.624 3.32 27.276" />
      <path fill="#fff" d="M182.188 326.534l13.943 172.798-11.998-31.743-19.858-129.466M724.67 294.61l10.425 191.173-30.85 2.337-3.084 54.88M859.036-22.19L824.49 53.6 809.068 4.533l143.848 42.953" />
      <path fill="#9dafb5" d="M829.923 64.566l-54.077 13.86 72.432 31.25 28.09-24.22" />
      <path fill="#fff" d="M87.65 494.267l-4.684-8.79L25.788 543l437.758-42.087" />
      <path fill="#090f11" d="M598.67 502.31l-14.295-13.52-4.288-1.393 1.892-63.928" />
      <path fill="#fff" d="M330.98 142.758L314.084 8.572l1.05 151.454 44.172-6.15" />
      <path fill="#18ff00" d="M580.773 222.708l-26.695 10.976.422-62.733 24.028 2.608" />
      <path fill="#fff" d="M315.767 543L798.7 502.243l-209.378-7.43-244.923 3.398" />
      <path fill="#000045" d="M731.23 53.174l39.932 19.292L789.415 28.2l-60.96-1.566" />
      <path fill="#fff" d="M629.963 474.366l36.39 14.115-4.34-29.653-27.1-74.324" />
      <path fill="#ff1b00" d="M580.398 29.99l-24.213 4.26-.41 64.254 25.14 17.764" />
      <path fill="#58e4b2" d="M152.258 174.846l-30.15 8.217-42.445-38.815 75.382-15.077" />
      <path fill="#31d85b" d="M258.808 40.206l-9.388 27.88 34.48-28.18-23.866-9.06" />
      <path fill="#1427a1" d="M176.907 344.827l58.39-37.257 17.643 5.36-17.07 22.03" />
      <path fill="#00399e" d="M271.324 187.083l-69.4-38.004 19.94-11.395 40.954 7.935" />
      <path fill="#742c27" d="M825.512 136.92l-35.352 36.678 163.596-10.982-111.09-28.74" />
      <path fill="#fff" d="M245.676 58.106L304.586-31 559.94 145.425 199.475-25.16" />
      <path fill="#7f9ca9" d="M714.347 214.25l-24.108-30.376 89.268 50.53-8.344-61.423" />
      <path d="M673.786 493.398L677.224 439l-10.075 13.35 3.404.03" />
      <path fill="#28c488" d="M306.537 116.07l6.93 62.607-26.794-43.43 3.3-25.11" />
      <path fill="#fff" d="M837.26 469.2l11.142-26.424-49.723 49.602.832-42.006" />
      <path fill="#58a52c" d="M381.593 240.635l-38.395 16.168 61.066-48.357 2.34 16.19" />
      <path fill="#fff" d="M341.18 231.086l42.63 47.316-141.44-110.014 37.425 79.804" />
      <path fill="#00a4af" d="M254.182 91.174l-82.657-12.118-12.32-14.815 117.306-17.528" />
      <path fill="#494747" d="M310.885 66.252l-11.947-27.42 23.3 34.752 21.3-34.75" />
      <path fill="#5affff" d="M286.49 244.27l43.87 29.62-16.195 23.976-33.4-29.324" />
      <path fill="#00009a" d="M945.273 88.436l-11.065-45.328-59.263 72.407-4.494-27.734" />
      <path fill="#1d3b2b" d="M85.723 127.34L71.75 106.982l13.67-10.99-14.108 33.888" />
      <path fill="#fff" d="M271.363 482.038l-18.82 17.62L234.75 382.58l-69.915-61.587M863.234 218.46l-86.743-27.19 7.708 47.327 29.418 22.71" />
      <path fill="#46a842" d="M528.626 454l-33.173 16.856 13.712-17.152 35.154 44.404" />
      <path fill="#ff6561" d="M863.604 208.927l55.414 39.654-4.16-45.51-66.43 39.64" />
      <path fill="#088b00" d="M169.226 439.804l-3.515 17.155-6.02-87.328 12.445 10.92" />
      <path fill="#15191e" d="M476.278 494.55l212.943-3.538-65.805.028-10.88-3.09" />
      <path fill="#3939b6" d="M983.78 64.817l-25.29-21.86 55.548-14.6-64.362-1.078" />
      <path fill="green" d="M630.904 386.337l-11.1 47.428-1.005-9.802 2.345-51.7" />
      <path fill="#fff5f2" d="M129.95 476.562l31.9 6.232-4.355-16.226 7.006-105.11" />
      <path fill="#fff" d="M233.586 444.034l-25.105 28.62 1.105 19.195 21.277-6.817M867.255 447.782l101.806-140.85-13.678 144.74-119.377-66.592" />
      <path fill="#100e0e" d="M340.3 140.35l-.45-24.658-7.718 25.75 19.917 6.107" />
      <path fill="#fff" d="M146.374 130.13l57.002-46-63.138-11.692-19.45 18.19M67.136 146.013l13.245-15.696L99.953 82.4l17 47.096" />
      <path fill="#e10d12" d="M869.035 444.065l-47.403-1.507 4.69-.786-24.69 3.476" />
      <path fill="#005a00" d="M791.863 490.226l3.057-2.368 4.313-45.875-10.494 11.152" />
      <path fill="#00004e" d="M947.68 69.397L836.667 56.46l-4.553-26.708 68.062-1.564" />
      <path fill="#793f77" d="M593.094 433.292l-9.662-12.195-.087-59.09 9.34 20.93" />
      <path fill="#5d6ad2" d="M968.175 167.082l33.575 26.458-.162-56.13-30.788 7.058" />
      <path fill="#fff" d="M358.952 439.41l77.11-96.65-38.86-110.734-10.917 10.263M158.616 244.766L99.784 226.07l-10.01 163.977L-31 216.302M579.62 251.248l19.522-137.556 127.313 109.86-5.702 142.106" />
      <path fill="#41d77e" d="M489.44 189.758l-42.167-49.692 31.645-1.045 23.71 40.005" />
      <path fill="#007b00" d="M278.15 490.402l-5.76-5.407-5.67-32.882 12.906 6.092" />
      <path fill="#fff" d="M277.657 265.934l-36.247-12.747-223.33 98.25 148.816-37.08M179.744 91.72l-3.43-11.32-26.288 86.51 58.8-10.007" />
      <path fill="#12c3ff" d="M803.052 281.858l-59.542-8.008 1.76 15.147 74.967 3.49" />
      <path fill="#fff" d="M949.193 65.405l27.555 78.34-148.968-10.978L984.182 68.93M335.824 358.355l21.51-39.334 162.877 125.702 76.49-117.96M452.75 445.9l-92.845-1.555 62.95 43.05 42.876-.605" />
      <path fill="#1c1c1c" d="M455.596 274.84l.05-14.958-20.393 15.587 21.12 9.23" />
      <path fill="#2a1635" d="M193.226 491.276l144.81 3.877 4.163-40.636 10.804 36.74" />
      <path fill="#fffdfa" d="M881.493 252.73l-11.88-61.58 46.54 2.783-35.438 28.26" />
      <path fill="#1c111f" d="M880.486 456.483l-.717 51.697 4.936-86.627-17.27 33.35" />
      <path fill="#2f360c" d="M116.407 440.3l27.564 57.196-81.29-15.74 62.882 7.13" />
      <path fill="#0000f0" d="M822.97 41.328l-33.314 11.1 29.908 13.318 28.007-6.563" />
      <path fill="#fff" d="M310.757 324.707l-197.123 73.9-114.85-135.095 179.412 80.914" />
      <path fill="#080" d="M243.627 235.21l13.646-7.813 18.492 6.767L265.27 255.3" />
      <path fill="#fff" d="M843.04 187.708l-68.566 50.4 4.7-63.103 41.66-.85M-31 13.002l40.18 514.7L36.695 114.03 124.602-31" />
      <path fill="#3c3a3a" d="M370.248 127.35l-39.17-7.482 48.46-.253-.703 29.364" />
      <path fill="#fff" d="M1055-31L695.768 15.59l307.586 12.232 3.028 302.224" />
      <path fill="#e43447" d="M589.557 442.484l151.292 1.007-8.737 1.215-101.35.646" />
      <path fill="#383695" d="M997.784 335.64l-21.538 1.455 3.752-18.55 26.45-12.385" />
      <path fill="#fff" d="M780.746 245.798l181.077-11.787-81.98 30.14-29.41-13.046" />
      <path fill="#94f190" d="M80.48 96.513l8.882-18.378 74.002-5.154 46.075-55.31" />
      <path fill="#fff" d="M528.825 446.627l3.128 35.664 36.904 5.53 14.776-13.048" />
      <path fill="#112bb4" d="M169.67 324.99l-32.86 5.216 106.024 1.874-45.7-31.427" />
      <path fill="#fff" d="M333.4 328.817l-13.54-27.964 12.54-5.36 20.73.277" />
      <path fill="#0f492a" d="M244.175 489.407l2.242-32.358-20.78 37.5-69.42-6.152" />
      <path fill="#86a8c0" d="M737.644 157.857l-17.495 100.06 40.872-23.007 16.89-49.43" />
      <path fill="#fff" d="M949.825 158.294l-45.438-6.767-66.833-48.76 138.133 21.38M231.59 230.508l28.44-9.403-105.1-41.497 47.24 56.69" />
      <path fill="#ffebfe" d="M523.916 496.537l-3.288 16.908-.02-61.895-18.386 27.067" />
      <path fill="#0ca41b" d="M177.83 264.693l-11.942-6.138 7.19-37.343 48.76 40.36" />
      <path fill="#fffefe" d="M920.355 413.332l7.24 76.705 6.297-178.208L1055 366.5" />
      <path fill="#fff" d="M365.645 113.143l-4.883 28.807L314.222-31l234.015 138.69M349.86 444.244l5.154 44.218 24.917 3.33 94.92-27.537M300.543 235.237L101.74 174.373l13.228 61.276 4.977-32.622" />
      <path fill="#00c5a0" d="M318.782 331.048l-17.962-47.02 26.833 29.878 7.022 32.97" />
      <path fill="#262525" d="M384.195 144.893l-6.61-7.28-2.442 12.294-23.155-15.118" />
      <path fill="#fff" d="M280.527-24.456L474.947-31 265.738 55.585l12.586 16.47" />
      <path fill="#000016" d="M61.47 471.8l2.72-52.876-5.858 29.06 1.536 42.545" />
      <path fill="#fff" d="M860.773 135.89L692.96 56.05l10.847-69.428-114.18 151.42M739.895 189.142l-3.68-15.794-111.617-29.67 89.3 52.105M1030.7 232.18l-48.977 18.544-65.016-11.573 9.295-36.625" />
      <path fill="#000008" d="M61.27 429.508l9.887 4.854-.755 58.07-3.985-45.374" />
      <path fill="#1eb203" d="M403.2 239.448l19.524 2.373 2.568-11.758L395.4 217.4" />
      <path fill="#0a03c2" d="M926.46 264.272l-1.814-21.1 67.985 8.094 8.164 22.787" />
      <path fill="#fff" d="M688.442 490.146l8.15-4.217.614-52.088-19.32 41.263" />
      <path fill="#ffb5ff" d="M966.863 440.837l-4.357 68.58-2.99-25.962 1.778-25.485" />
      <path fill="#fff" d="M444.253 132.17L421.16 208.63l-49.14-.3L392.63 56.32M919.06 441.597l-36.327 12.4 13.62 30.955 16.644-3.87" />
      <path fill="#003c00" d="M751.252 492.928l-15.97-10.72 1.435-25.998 4.364-30.435" />
      <path fill="#3287a9" d="M724.59 274.125l36.922-12.945 88.077-8.414 74.548 38.516" />
      <path fill="#fff" d="M804.87 296.43l-49.312-2.663-119.28 148.178 199.466-35.45" />
      <path d="M676.422 468.848l-16.1 28.136 8.964-45.986 4.31-10.21" />
      <path fill="#fff" d="M495.392 294.788l-56.447-13.03L180.88 440.072l416.31-70.977" />
      <path fill="#ff3340" d="M903.934 441.667l27.057 9.5 10.22-4.8-10.03-7.167" />
      <path fill="#06577c" d="M825.268 330.377l34.712-14.817 43.14-2.16-71.3-25.903" />
      <path fill="#00adb7" d="M226.402 59.55L185.13 101.2l10.5 11.585 46.56-60.78" />
      <path fill="#001900" d="M626.628 457.82l-12.382-13.698 1.83 34.572-.787 13.204" />
      <path fill="#58e190" d="M441.098 169.113l40.434 61.122-.186-55.976 37.16-48.582" />
      <path fill="#fff" d="M354.21 456.73l-41.2 35.55-37.184-16.838 7.6-22.62" />
      <path fill="#002700" d="M708.22 491.82l-1.568-29.093-.267.198-10.236 5.82" />
      <path fill="#fff" d="M237.858 494.365l-70.73 1.002-168.85-.44L8.617 543" />
      <path fill="#f8fdff" d="M106.5 176.236l-32.805 94.27-13.938-235.58 18.157 113.078" />
      <path fill="#001b00" d="M512.844 489.745l-12.51 3.662 10.06-29.025-10.27-8.237" />
      <path fill="#244a2d" d="M898.105 489.31l-89.478 4.037 113.388 1.414 11.66-14.074" />
      <path fill="#fff" d="M652.795 543l20.862-70.337-.1 20.33-392.39 12.198" />
      <path fill="#ff1512" d="M855.252 238.645l15.142-10.658 9.046 16.302-13.173-40.548" />
      <path fill="#2e3431" d="M62.34 128.746l1.147-29.673-14.506 31.49-10.94-12.652" />
      <path fill="#7e7d81" d="M136.065 501.59l-34.775-1.06 103.216-11.198-49.912-.093" />
      <path fill="#b7b8eb" d="M18.49 211.65l179.725 68.55-1.738-17.31-75.093 2.634" />
      <path fill="#f4ff00" d="M582.232 158.602l-8.005-39.674-19.925 8.9 4.09 63.945" />
      <path fill="#fffff9" d="M273.79 149.074l14.2-2.912L336.406 263.8l17.22-3.4" />
      <path fill="#fff" d="M459.204 336.253l406.438 95.333 76.99 10.745 47.118-105.503" />
      <path fill="#178e1f" d="M240.94 455.554l6.544 1.72-9.056 35.782-10.035-23.343" />
      <path fill="#00eafd" d="M582.028 237.364l-1.434 51.943-24.383-11.187-3.13-30.78" />
      <path fill="#686cc5" d="M112.492 289.79l-10.147-20.77 59.264 8.13-1.15 16.228" />
      <path fill="#fff" d="M468.264 206.752l-25.97-7.027-26.43 48.368 66 19.01" />
      <path fill="#031911" d="M459.982 494.994l10.338-18.017 21.36 19.152-7.706-25.396" />
      <path fill="#fff" d="M846.108 318.465l36.907-2.89L1055 271.526 855.41 396.41" />
      <path fill="#8d8c8a" d="M159.31 429.15l-83.996-2.776-9.653-6.943 89.62-1.863" />
      <path fill="#fffcff" d="M200.4 172.57l-32.11 68.433-31.998 4.444.832-64.555" />
      <path fill="#005f00" d="M530.528 465.76l-.323-8.653-8.644 1.252 2.24 19.424" />
      <path fill="#fff" d="M1026.973 258.387l-55.768 186.92 5.84 37.375 77.955 21.63" />
      <path fill="#580601" d="M929.545 199.66l25.57 13.186 37.173-22.064-24.862-13.432" />
      <path fill="#fff" d="M109.816 67.373L96.258-31-31 134.047 79.01 86.36" />
      <path fill="#000053" d="M983.745 268.945l19.61 17.43-1.977-44.792-6.217 17.618" />
      <path fill="#ff635f" d="M886.32 241.506l-4.54-32.237 26.224-.54 11.79 10.198" />
      <path fill="#00181a" d="M925.013 457.204l-11.48-4.386 10.464 65.48-4.56 20.923" />
      <path fill="#cb3a34" d="M960.854 151.77l10.9 7.77-2.874 22.502-62.018-6.93" />
      <path fill="#fafafa" d="M371.612 134.16l-6.968-2.265-27.867.154 10.137-8.655" />
      <path fill="#fff" d="M304.525 64.47L142.6 141.973l78.32-50.098 275.1 49.277" />
      <path fill="#9f0201" d="M849.665 211.03l-15.326-6.506-2.75-1.048 38.847-71.89" />
      <path fill="#fff" d="M802.638 155.614l70.142-72.558-13.096 50.666-125.51-77.926" />
      <path fill="#155dd4" d="M241.35 139.213l-73.86 45.152-3.38-19.818 91.806-13.072" />
      <path fill="#fef9f5" d="M340.058 263.603l30.904-18.56-.684 25.485-45.42-32.877" />
      <path fill="#ff0003" d="M131.3 481.79l13.532-.293-7.656-7.202-12.973 2.538" />
      <path fill="#07260e" d="M814.08 488.207l10.696-24.91 17.257 37.223-5.552-18" />
      <path fill="#252221" d="M333.713 52.577L319.82 42.494l9.87-3.86 3.68 4.032" />
      <path fill="#fff" d="M489.144 487.452l-1.523-13.26 26.79-136.078-17.466 150.99M977.27 301.61l-40.067 158.84-.346 23.822 10.983-2.143" />
      <path fill="#fffaf6" d="M934.4 277.533l-58.848-86.697 29.517 11.566-9.64 49.797" />
      <path fill="#fff" d="M977.933 201.69l39.97 36.72-122.076-49.195 38.07 29.627" />
      <path fill="#ff8500" d="M580.936 58.868l-24.14 20.372-2.723 45.458 28.39 5.237" />
      <path fill="#0d010e" d="M857.628 434.94l-18.407 27.133 37.75-16.575 4.865 18.668" />
      <path fill="#fff9ff" d="M664.577 471.068l-22.39 18.428-9.87-45.777 27.536 46.382" />
      <path fill="#004306" d="M185.266 482.882l38.21 11.325-54.443-9.516 10.883-37.306" />
      <path fill="#28a17c" d="M348.538 238.27l-13.627 51.4 20.372 8.53.708-52.475" />
      <path fill="#d5100a" d="M775.784 173.448l-24.348 1.51 8.334-20.365 51.705 6.4" />
      <path fill="#fff" d="M216.845 293.03l54.262-35.9-45.522-1.28L34.06 365.073M125.183 452.99l-66.098-37.475 61.746 67.68-30.717-1.106M223.56 543l238.783-21.815 16.52-39.706 3.51 10.472" />
      <path fill="#98a2d0" d="M1006.205 231.943l-19.34-33.033.3.78 16.617-68.383" />
      <path fill="#0000e6" d="M932.826 74.8l-18.93-7.316-35.027 15.69-8.702 20.894" />
      <path fill="#fff" d="M270.624 112.202l16.918-141.906 29.69 100.56L327.78-31" />
      <path fill="#fff1ff" d="M872.84 468.063l-1.99-10.188 43.522 13.373-5.904-24.804" />
      <path fill="#50bf9c" d="M154.383 173.7L83.438 67.486l52.056 62.504 17.463 1.374" />
      <path fill="#ed3d39" d="M139.245 446.984l-24.837 5.82 27.725-10.615 77.007 1.18" />
      <path fill="#091f1a" d="M66.782 483.135l47.548 11.375-24.35-15.305 1.113-3.925" />
      <path fill="#fff" d="M528.345 117.875L390.51 433.192l161.517-142.315L552.9-31" />
      <path fill="#7b1a18" d="M869.322 133.96l-31.93 48.744-31.64-13.128 14.34-31.738" />
      <path fill="#55e74b" d="M366.917 280.943l-8.21 7.308 27.055-12.702-6.654-39.058" />
      <path fill="#0000b4" d="M985.562 110.177l10.867 31.23-6.22 8.347 15.465-37.318" />
      <path fill="#fff" d="M547.91 89.234l12.357-107.827-260.12 99.974 188.387 64.266" />
      <path fill="#e4473c" d="M547.874 443.718l-62.49 1.626-27.328-1.355 24.247-1.974" />
      <path fill="#fffeff" d="M23.274 495.894l42.85-39.8 2.743 36.543-24.276-87.74" />
      <path fill="#fff" d="M760.433 490.177l25.328-4.66-1.512-41.594-39.34 34.91" />
      <path fill="#9380cb" d="M260.073 218.156l-21.294-20.15-92.145-31.65 15.467 10.433" />
      <path fill="#fff" d="M472.063 442.265L356.598 287.52l176.532 1.25-328.39 152.866" />
      <path fill="#003096" d="M263.942 165.074l11.67 15.774-72.35-10.635 12.78 11.236" />
      <path fill="#4d4c4c" d="M427.17 283.69l1.93-16.524 6.765-20.763-2.792 42.872" />
      <path fill="#bc0000" d="M933.273 202.21l4.094-20.47-66.914 11.447-71.162-41.634" />
      <path fill="#fff" d="M172.325 423.602l-.784 34.667 40.064-68.184-31.724-63.584M608.71-31l271.294 55.912-172.93 2.47-166.878 4.246" />
      <path fill="#000006" d="M966.872 423.744l1.046 83.56 2.846-67.66-14.43 8.712" />
      <path fill="#57e18c" d="M498.977 157.573l22.747-40.46-92.992 89.627 69.24-21.093" />
      <path fill="#16d0aa" d="M345.397 312.16l28.21-32.563-20.763-8.337 19.872 55.167" />
      <path fill="#a3a3c0" d="M974.08 44.292l28.106-18.068L998 108.722l-2.518-63.263" />
      <path d="M935.454 486.66l.906-23.47-8.46-27.618 3.047 56.422" />
      <path fill="#fff" d="M158.292 440.756l-13.9 45.774 26.56-13.826-8.517 3.697" />
      <path fill="#006303" d="M278.527 233.153l-119.22 11.685-1.64 7.214 41.816.59" />
      <path fill="#fff" d="M817.027 482.99l-4.676 2.04-9.256 5.528-23.366-193.045M511.332 221.852l-82.335 13.607-.256 54.31-9.91-24.84" />
      <path fill="#00c9bf" d="M286.576 255.292l-27.366-6.085 53.395-8.232 22.864 16.08" />
      <path fill="#1c1b1b" d="M320.456 68.55l-18.373-29.985 9.06 30.168 12.81-.167" />
      <path fill="#010162" d="M909.67 89.682l37.527-4.163 4.504-21.2-31.562 21.754" />
      <path fill="#131211" d="M310.296 67.19l23.745-4.735 2.324 6.788-14.685-2.015" />
      <path fill="#fff" d="M353.024 179.6l-1.904-28.95 111.285-16.492-98.36 98.026" />
      <path fill="#fefcfb" d="M797.203 495.62l106.61-1.2 151.187 1.6L940.787 543" />
      <path fill="#889788" d="M902.588 503.487l29.407-1.406-.074-13.4-24.775 9.523" />
      <path fill="#343030" d="M40.065 122.198l-.815-14.148 18.547-15.22-4.782 7.347" />
      <path fill="#fff" d="M965.118-31L588.734 24.07l297.7 1.312 65.146 22.033M617.433 304.448l-24.3 61.36 7.272 134.305 25.588-149.346M49.654 215.053l74.17 117.98 59.897-2.026-110.076 86.29" />
      <path fill="#51a5cc" d="M945.3 277.028l-14.376 9.584 9.184 3.89-169.887-33.11" />
      <path fill="#11171b" d="M852.608 489.282l-73.52.737-201.434.012 227.915 3.25" />
      <path fill="#9393c1" d="M1003.735 70.927l-2.558 40.86 7.186 25.26-25.888-74.67" />
      <path fill="#0000a0" d="M1003.28 338.413l-8.522-9.396-.52-13.948 10.65 4.61" />
      <path fill="#fff" d="M729.075 443.466l-9.027-247.15-90.52 176.733-1.01 69.025M48.12 120.25L38.085 86.297l-60.212-1.892 77.953 24.23" />
      <path fill="#8eaaa6" d="M784.983 228.082L733.85 214.06l-31.435-3.942-8.754-19.59" />
      <path fill="#007e00" d="M629.358 373.51l-1.725 52.352-8.43-35.757-.642-9.654" />
      <path fill="#8eb0b7" d="M832.234 43.643l-12.312.615-37.898 1.08 26.113-19.817" />
      <path fill="#fbe9f2" d="M465.588 485.786l65.764-138.368-56.985 132.162-17.92-61.488" />
      <path fill="#00a4b9" d="M253.27 89.185l23.485-22.356-83.802-17.49-26.228 27.723" />
      <path fill="#1027b2" d="M143.39 322.76l33.303-5.147 15.547-11.418 29.694 32.632" />
      <path fill="#56463f" d="M117.95 228.226l15.033 7.037.7-14.507-11.964-20.854" />
      <path fill="#191aff" d="M925.89 258.56l13.565-14.312 67.364 22.183-5.735-1.54" />
      <path fill="#fffffd" d="M868.186 209.368l84.533.046-34.985 55.364.204-66.8" />
      <path fill="#fff" d="M30.572 203.74l80.68-14.474-30.935-80.217 40.21 12.51M585.597 83.984l-4.26 217.413 153.65 23.726L645.53 55.786" />
      <path fill="#000170" d="M824.593 60.318l121.94 29.48-36.712-3.44-33.927-.32" />
      <path fill="#719db5" d="M775.157 193.176l-24.293-29.513-29.533-13.977 56.482 108.343" />
      <path fill="#156f0e" d="M89.465 450.23l-6.597-6.794-5.285 40.8.92-16.095" />
      <path fill="#e8595e" d="M462.87 443.836l144.542 2.69 19.103-2.974-74.182-1.802" />
      <path fill="#b3d9af" d="M293.706 214.157l6.505-14.962 40.42-26.756-29.973 35.88" />
      <path fill="#fff" d="M704.276 520.976l145.984-24.73L839.94 543l-96.565-53.536M315.658 222.842l-66.624-47.118-44.576 6.215-13.672-12.965M-15.9-31l168.826 93.692 32.948-48.257L553.77 26.96" />
      <path fill="#fff" d="M196.12 228.878l152.87-10.248-220.716-7.787-6.912 2.45" />
      <path fill="#fffefe" d="M335.652 503.526l10.575-21.344L353.9 543l-223.593-49.76" />
      <path fill="#fff" d="M526.416 450.83l39.353-5.932 10.075 32.99-24.508 13.7M437.075 211.067l33.63-.558-30.602 65.706-5.858 47.516" />
      <path fill="#a748a3" d="M632.463 433.64l.685-2.11-12.328-14.767.233 37.885" />
      <path fill="#132228" d="M186.408 482.503l-33.498 11.753-118.013-.686 115.34-3.53" />
      <path fill="#339631" d="M583.523 372.303l1.53-4.865 9.895 7.65-13.615 11.036" />
      <path fill="#000058" d="M768.392 64.777l40.106-20.49-106.98 17.764-7.806-11.11" />
      <path fill="#006500" d="M276.846 479.322l1.55-19.932-8.736-7.7-.69 40.435" />
      <path fill="#e32a29" d="M736.73 445.825l-17.32-1.518 66.263-1.147 102.968.738" />
      <path fill="#fff" d="M992.754 276.635L890.958 263.03l61.027 12.118-235 167.407M22.076 458.497l6.362-143.126 26.67-8.825 1.81 188.844M651.442 85.787l99.385 80.793 25.453-83.025-45.272-27.106" />
      <path fill="#fffefe" d="M961.135 443.736l-13.95-171.634-84.738 189.472 14.91-95.35" />
      <path fill="#120e22" d="M964.915 431.034l1.652 53.386 5.75-83.277-11.97 11.203" />
      <path fill="#fff" d="M317.62 176.766l-55.06-27.833 29.73-1.928-34.133 73.777" />
      <path fill="#01b8a1" d="M314.788 304.557l-33.565 1.917-7.09-18.265 10.927-18.388" />
      <path fill="#f5f4f4" d="M311.893 55.54l20.726-9.743-17.815 23.287L304.455-31" />
      <path fill="#fff" d="M900.928 140.588L894.863 88.7l53.654.874 24.335 57.05M711.12 491.01l-3.265-40.215 27.516 7.187-2.19 10.11" />
      <path fill="#fc0003" d="M554.973 62.468l24.727-12.37 4.478-19.528-20.63-.452" />
      <path fill="#fff" d="M552.836 77.498l.31 354.478-56.07-280.613 38.664-16.7" />
      <path fill="#05110a" d="M622.108 494.2l21.324-17.167-11 1.487 7.474 11.688" />
      <path fill="#020202" d="M421.387 282.45l41.584-4.592-14.106-1.006-29.158 11.186" />
      <path fill="#fff" d="M971.764 491.604l83.236-2.548-19.8-205.06L970.027 388.8" />
      <path fill="#abb2eb" d="M70.75 196.61l-46.097 30.73 10.267-27.707 45.775 45.003" />
      <path fill="#0000fb" d="M59.738 420.67l.364-56.168 6.718 2.588-3.524 76.458" />
      <path fill="#fefeff" d="M135.893 307.295l39.275 12.95 38.215-39.56-42.156-.71" />
      <path fill="#fff" d="M623.18 478.24l1.885 24.86 133.238-9.26-154.42 44.148" />
      <path fill="#fffff9" d="M772.592 241.983l63.975 15.21 40.664-67.772-63.272 49.436" />
      <path fill="#fff" d="M269.002 457.125l-5.105 30.156-13.88 1.512-5.417-42.656" />
      <path fill="#fb3f3b" d="M899.16 233.92l16.865 3.134 4.67-1.855-2.04-22.124" />
      <path fill="#fffffe" d="M232.83 472.097l-6.918 21.096-21.69-19.61 3.55-20.896" />
      <path fill="#00d0ad" d="M320.596 310.177l17.344-31.735-38.863 22.4 34.476 28.118" />
      <path fill="#fff" d="M835.132 121.02l-25.35 33.83-51.495-4.967 11.66-85.744" />
      <path fill="#000071" d="M951.078 51.964l-59.664-24.44-82.75 21.094 197.098-3.762" />
      <path fill="#261c2b" d="M943.374 496.346l10.155-32.486-1.12 19.514-3.143 8.993" />
      <path fill="#0cd723" d="M265.46 226.697l-76.066 36.407 62.545-12.293-15.758-23.01" />
      <path fill="#fff" d="M313.174 158.534l-4.77-75.487 31.473 67.484 77.785-6.918" />
      <path fill="#003600" d="M171.685 484.32l25.207 9.27 1.433-57.404 7.903 47.36" />
      <path fill="#fff" d="M911.79 154.904l43.41 1.125 28.792-87.13-118.177 62.804" />
      <path fill="#82f9d3" d="M91.72 146.29l37.133-23.53-2.503 59.598-17.2-6.03" />
      <path fill="#ff0502" d="M939.78 192.696l-82.75-10.622-2.262-4.534 51.544-3.148" />
      <path fill="#57ba56" d="M126.344 88.238L111.89 61.283l-6.157-24.31 12.298 7.803" />
      <path fill="#1e841f" d="M883.24 470.713l4.038.302 4.313 24.633-34.74-7.91" />
      <path fill="#1c471d" d="M359.058 471.37l-18.414 8.513-25.372 16.07 19.98-4.89" />
      <path fill="#fc0000" d="M885.47 217.335l13.958-4.324 11.365 2.796-21.62-5.623" />
      <path fill="#fff" d="M429.905 150.076l-99.213 32.307 89.316 26.133 17.608-15.325" />
      <path d="M90.885 230.652l10.37-20.34 10.497-6.306-14.747 3.197" />
      <path fill="#67ffff" d="M326.36 267.1l-3.195 18.744-36.904-11.178 22.015-25.218" />
      <path fill="#002a00" d="M296.77 493.233l-17.81-14.695 15.475 1.523-19.253 12.265" />
      <path fill="#bebdbd" d="M662.235 306.387l-14.83 27.553-44.067-28.175-3.74 29.232" />
      <path fill="#f75359" d="M230.352 443.988l90.983-1.336 33.333 2.42-28.145 1.375" />
      <path fill="#fffcff" d="M359.334 491.118l76.994-32.957-20.657 35.197 59.607-25.626" />
      <path fill="#f9f9f9" d="M341.246 136.61l56.99 42.743-14.177 21.88-43.465-79.767" />
      <path fill="#007bff" d="M555.178 281.486l27.255-17.762.346 22.293-26.273 22.286" />
      <path fill="#005400" d="M798.08 462.07l-4.316-10.916-7.588 43.753 12.63-11.2" />
      <path fill="#792f2c" d="M851.635 164.603l88.194 12.716-11.784-10.633-56.702-33.296" />
      <path fill="#4e4ec5" d="M1003.08 172.942l2.22-84.385-8.326 59.515-39.683-.203" />
      <path fill="#252423" d="M419.213 294.82l-2.195-8.934-5.28-28.432 6.208 1.68" />
      <path fill="#fff" d="M580.716 364.114l-3.075-35.935-78.944 113.242 80.293-1.57" />
      <path fill="#3cc64c" d="M237.348 56.98l-4.235-23.11-28.578-14.5-6.66 4.39" />
      <path fill="#fff" d="M165.83 72.755l-35.66-.604-9.02 32.562 76.794 58.894" />
      <path fill="#20302a" d="M62.5 125.075l-4.113 1.09-18.2-5.578 11.445 11.855" />
      <path fill="#848383" d="M24.19 460.995l-4.346 77.175 3.765-197.398-2.863 17.033" />
      <path fill="#0000fa" d="M551.37 322.937l5.19-19.14 21.95-6.478 4.98 30.57" />
      <path fill="#c5c5d2" d="M957.463 131.94l22.462-2.08 33.845-52.102-2.8 3.798" />
      <path fill="#fafff4" d="M189.93 483.795l2.406-16.003 4.263-24.885-14.148 26.912" />
      <path fill="#00ff23" d="M552.543 196.22l26.503-3.33 3.602 45.93-23.02-10.547" />
      <path fill="#565aca" d="M108.327 302.696l20.93-17.274-10.34 23.777-14.11 1.743" />
      <path fill="#65db93" d="M482.87 224.796l-16.06-78.678-3.085 16.086 8.993 71.64" />
      <path fill="#fff" d="M1004.39 174.314L1024.948-31l-.005 574-18.328-219.503" />
      <path fill="#fafffe" d="M41.228 110.093l35.68 4.506L33.53 199.95l37.375-91.176" />
      <path fill="#4f62b2" d="M227.898 298.483l-37.418 5.492-12.958 13.285 72.53-3.853" />
      <path fill="#fff" d="M940.562 438.984l16.734 18.464-6.148 14.686-9.023 19.928" />
      <path fill="#000054" d="M803.684 65.875l-48.21 2.386L733.7 27.927l39.05.337" />
      <path fill="#ff2825" d="M812.678 155.03l-5.728 11.13-46.997-2.584 43.054-12.12" />
      <path fill="#fff" d="M96.26 457.074l19.31 35.676 6.293-61.397-53.24-4.904" />
      <path fill="#fffeff" d="M164.776 543l-24.753-45.92 181.775-3.5 204.504 7.094" />
      <path fill="#fff" d="M927.153 316.618l-47.192-87.516 6.175-30.193-26.296-4.39" />
      <path fill="#abb8c6" d="M813.605 92.818l-26.935-24.21 47.482-1.68 11.327 68.873" />
      <path fill="#0f1c80" d="M250.414 312.104l-56.778 28.53-15.225-22.107 19.045-6.88" />
    </g>
  </g>
</svg>