<svg version="1.1" viewBox="0 0 1024 512" width="1024" height="512" xmlns="http://www.w3.org/2000/svg">
  <g fill-opacity=".5">
    <path fill="#00004d" d="M1022 42L916 93 682 54l19-31" />
    <path fill="#720000" d="M966 212l49-44-169-32-117 26" />
    <path fill="#004ba6" d="M888 257l151-16-203 94-139-89" />
    <path fill="#417b00" d="M554 298l3-267 27-5-4 337" />
    <path fill="#20d278" d="M103 222l238 19 114-56-120 148" />
    <path fill="#00008a" d="M882 112L690 34l181-11 120 30" />
    <path fill="#40443a" d="M486 493l480-50 6 50-63 3" />
    <path fill="#006a95" d="M149 34l133 150-102-12L283 47" />
    <path fill="#23401c" d="M26 496l231-1 115-1-210-26" />
    <path fill="#000092" d="M130 330l79 8 49-12-32-29" />
    <path fill="#900000" d="M841 219l-26-91 217 77-163-19" />
    <path fill="#008b00" d="M162 235l-5 13 19 25 118-46" />
    <path fill="#ff8200" d="M554 178l27 3 3-133-31-33" />
    <path fill="#009dff" d="M555 228l26-31 2 128-30 9" />
    <path fill="#fff" d="M751 500l304-139-487-111 234 291" />
    <path fill="#000da0" d="M291 131l-130 35-6 9 110 3" />
    <path fill="#3f403a" d="M644 499l-24-119-6 96-250 15" />
    <path fill="#00e452" d="M431 167l29-29 47-1-31 87" />
    <path fill="#000078" d="M58 469l66 42-51-62-13-107" />
    <path fill="#047e00" d="M162 387l37 104 12-54-55 58" />
    <path fill="#fff" d="M116 302l121 3 260 238-240-294" />
    <path fill="#14709b" d="M723 238l37-84 30 134-57 10" />
    <path fill="#060000" d="M593 472l2-94-12-10v121" />
    <path fill="#030900" d="M868 489l19 3-3-58-43 6" />
    <path fill="#fff" d="M582 204l233-58 60-66-293-26m301 420l19 20 83-182-91-96" />
    <path fill="#0000b5" d="M1000 247l-78-1 14 19 71 16" />
    <path fill="#fff" d="M68 129l96-60 2 90L671-8M169 463l456-40-112-201-332 139" />
    <path fill="#00648f" d="M906 293l-80 45-42-86 160 30" />
    <path fill="#fff" d="M827 48l-53-20-805 3 899-62" />
    <path fill="#fff" d="M65 209L6-31l-37 477 207-62" />
    <path fill="#02c3ca" d="M327 349l-68-112 100 29 10 60" />
    <path fill="#fff" d="M585 344l146 151 23-181L580-31" />
    <path fill="#2423b7" d="M1004 221V81l-46 100 14-20" />
    <path fill="#00b592" d="M202 18l-37 56 63 23 59-27" />
    <path fill="#003600" d="M750 483l-9 11-8-43 12-41" />
    <path fill="#000076" d="M974 49l-30 40-254-32 47-30" />
    <path fill="#fff" d="M381 131L309-3l245-14-2 178" />
    <path fill="#0f0" d="M583 178l-28-30-1 91 24 24" />
    <path d="M971 404v99l-9-74-1-25" />
    <path fill="#0a3400" d="M462 500l2 3 13-79 11 62" />
    <path fill="#00f" d="M584 289l-4 38-28 3 3-60" />
    <path fill="#262221" d="M413 263v26l45-5-3-23" />
    <path fill="#900" d="M759 154l145-4 95 28-265-7" />
    <path fill="#ff433b" d="M919 240l8-30-70 5 1 26" />
    <path d="M679 482l-4-43-15 42 29 17" />
    <path fill="#fff" d="M83 89L297-31H-31v158" />
    <path fill="#0000e9" d="M70 348L60 475l-4-103 5-20" />
    <path fill="#fff" d="M538 234L356 338l213 168 14-55" />
    <path fill="#2ade95" d="M128 126L116 21l-9 166 60-47" />
    <path fill="#3e3634" d="M330 122l11 26 40-2-4-26" />
    <path fill="#004a00" d="M264 496l35-2-18-22-5-29" />
    <path fill="#675da6" d="M188 275L85 218l51-14-29 105" />
    <path fill="#fff" d="M957-31L617 6l283 26 55 20" />
    <path fill="#241c1a" d="M301 45l-11 18 61 6 5 6" />
    <path fill="#fff" d="M1035 543l-7-195-92 142 5-68m-5-261l-54-25 17-50 94 4m62-42l-62-78 10 134 6 246" />
    <path fill="#ff0c00" d="M552 32l12 105 23-99-18-11" />
    <path fill="#fff" d="M572-28L695-4l1 383-52 127M-5 189l431 55-39 45-14-111" />
    <path fill="#055602" d="M504 493l19-37 27 40-54-39" />
    <path fill="#006e00" d="M159 383l11 99 3-97-9-6" />
    <path fill="#fff" d="M428 534l34-308 91-119v175" />
    <path fill="#fff" d="M380 490L105 349l489-19-158 146" />
    <path fill="#120014" d="M360 489l122 4-151 2 15-30" />
    <path fill="#00069e" d="M185 320l-6 13 58 7-3-51" />
    <path fill="#555853" d="M86 120l-5-20-51 1 15 29" />
    <path fill="#fff" d="M154 195l98 26L3 277l-34 236" />
    <path fill="#009400" d="M174 247l70-20 51 25-127 6" />
    <path fill="#007b00" d="M631 381l-12-17 1 61 10 8" />
    <path fill="#56e1a3" d="M355 169l-29 14-95-79 67 13" />
    <path fill="#00007d" d="M1005 342l-25-13-2 8 26-32" />
    <path fill="#fff" d="M499-31L417 76 313 261l112-56" />
    <path fill="#492600" d="M124 435l20 51h121l-146 8" />
    <path fill="#060391" d="M953 29h38l11 44-34-10" />
    <path fill="#fff" d="M210 494l-10-156 40 205 473-49" />
    <path d="M916 488l23 15-1-52-18 7" />
    <path fill="#a80000" d="M960 209l-217-57 223 19 35 17" />
    <path fill="#fff" d="M1055 261l-283 97 35 129 85-95" />
    <path fill="#fff" d="M744 218l136 18 116 60-104-27" />
    <path fill="#037100" d="M786 472l6-29 10 10-5 51" />
    <path fill="#fff" d="M243 291l14 252 19-286-111 11" />
    <path fill="#023c13" d="M222 493l20-43 5 37 114 7" />
    <path fill="#fffc00" d="M577 83l-23 24v69l31 7" />
    <path fill="#33b500" d="M414 259l4-6-27-36 39-13" />
    <path fill="#fff" d="M834 262l-56-26 14-66 39 9" />
    <path fill="#30c34b" d="M110 40l19 21 71 2-100 16" />
    <path fill="#fff" d="M140 284l-78 62 90 152 10-39" />
    <path fill="#007000" d="M200 432l-26 62-6-45 36 16" />
    <path fill="#fff" d="M336 504l-367 39L33 23l27 468" />
    <path fill="#fcffff" d="M849 71L737 174 660 64l79 3" />
    <path fill="#040c0e" d="M611 479l15-11 7 26 113-2" />
    <path fill="#fff" d="M867 543l-11-77-20 37-266-7" />
    <path fill="#fff" d="M712 437l302-41-334-107v223" />
    <path fill="#0befe5" d="M270 297l41 12 33-33-26-46" />
    <path fill="#fff" d="M1031 237l-43 13-116-59 38 4" />
    <path fill="#000070" d="M864 27l51 4-27 82-54-85" />
    <path fill="#fff" d="M276 142l-2 102 69-7-32-59" />
    <path fill="#0ff" d="M584 263l-4-22-28-19 5 78" />
    <path fill="#51543c" d="M94 500l-33-70-7 79 30-74" />
    <path fill="#00a0b8" d="M209 48l57 8 5 18-87 37" />
    <path fill="#8d0000" d="M856 136l28 2-34 72-19 5" />
    <path fill="#0000c2" d="M1001 257l-71-14-2 6 82 38" />
    <path d="M594 444l-1 22-10 26-1-89" />
    <path fill="#30d772" d="M524 129l-77 71-11 6-1-48" />
    <path fill="#130e00" d="M102 199l12 34-17-4-9 2" />
    <path fill="#fff" d="M267-31l9 113 95-22-53 103m687 182l2-376 48 498-211-148" />
    <path fill="#62a0c4" d="M786 214l-70-57-34 4 33-28" />
    <path fill="#fff" d="M185-31L-31 7l185 48 48-2" />
    <path fill="#fedcde" d="M355 291l-69 12 38-7 14 42" />
    <path fill="#fff" d="M753 84l169 73-60-65-63 62" />
    <path fill="#f31402" d="M128 463l-10-17 5-3 29 1" />
    <path fill="#fff" d="M778 290l-233 55 276 96-5-133" />
    <path fill="#7b777f" d="M163 417l-34 17 11-1-85-14" />
    <path fill="#182e1f" d="M789 497l50-25 19-55-13 71" />
    <path fill="#00269a" d="M178 174l61-37 22 1 17 24" />
    <path fill="#00008a" d="M729 27l-31 8 1 32 119-39" />
    <path fill="#6da9be" d="M71 147l200 74-46-32-150-54" />
    <path fill="#005486" d="M807 302l89 3-94 31 56 1" />
    <path fill="#fff" d="M998 58l-16 93-34-83 69-3m11 432l-53 46-443-48 406-1" />
    <path fill="#001b96" d="M223 339l44-26-93 5 18 24" />
    <path fill="#849ae0" d="M850 126l-69-99 54 6-43 44" />
    <path fill="#f02f2b" d="M168 443l37-2 151 3-243 2" />
    <path fill="#fff" d="M-30 88l109 58 56 57-166 11" />
    <path fill="#0000c9" d="M907 89L758 37l163 33 26 18" />
    <path fill="#00171c" d="M74 491l-9-18 28 9 28 13" />
    <path fill="#fff" d="M917 485l-24 4 1-194 27-11" />
    <path fill="#0302a3" d="M1005 158l-28-48 13 8 13-17" />
    <path fill="#91e287" d="M284 128l88 149 8 11 3-48" />
    <path fill="#1477ae" d="M722 285l167 29 46-73 2 48" />
    <path fill="#fff" d="M-31 11l235 7 283 55L663-31" />
  </g>
</svg>