<svg version="1.1" viewBox="0 0 1024 512" width="1024" height="512" xmlns="http://www.w3.org/2000/svg">
  <g fill-opacity=".5">
    <g class="SVG--0">
      <path d="M22.977 460.367l210.078-3.605 12.22 32.517-201.065-.466" />
      <path fill="#2b4548" d="M752.02 349.795l30.302-34.926 138.09 31.365 14.225 127.124" />
      <path fill="#235458" d="M782.845 45.005l-21.234 35.23L941.013 216.91 911.575 77.007" />
      <path fill="#090000" d="M149.216 351.228l-122.32.03 15.014 40.15 125.28-1.906" />
      <path fill="#2d0000" d="M157.558 147.11l2.864 38.66-134.31-1.312 14.624-40.287" />
      <path fill="#7e5755" d="M195.986 193.286l9.183-180.34 33.478 15.535 1.224 155.91" />
      <path fill="#fff" d="M1055 340.165L572.355-31l9.122 574 182.64-224.975" />
      <path fill="#fff" d="M1055-31l-40.334 574L914.97 71.24 488.465 5.166" />
      <path fill="#9a3801" d="M797.438 52.448l-132.34 148.93L757.805 68.18 856.23 57.99" />
      <path fill="#9f3500" d="M772.488 356.324l-19.786-22.91-30.133 44.988-33.063 56.07" />
      <path fill="#2b0000" d="M106.998 481.608l140.22-13.006-48.002-17.875-188.784 16.465" />
      <path fill="#3e775d" d="M928.312 80.747l-56.366-7.31-133.33 103.845 27.238 13.882" />
      <path fill="#34554b" d="M975.753 401.993l-170.98-67.133 42.82-55.07-27.778 121.31" />
      <path fill="#907b7d" d="M189.89 9.588L13.95 23.303l32.047 32.554 196.887-5.154" />
      <path fill="#fff" d="M937.04 480.213L1055 211.083 1022.13 543l-877.368-68.245" />
      <path fill="#fff" d="M237.345 526.258l512.2-23.46-448.457-56.39-54.514-113.393" />
      <path fill="#633f3e" d="M239.505 376.682l-5.027 56.3-36.555-.874 2.496-55.127" />
      <path fill="#fff" d="M770.957 355.254l94.583-5.423 33.42-67.3L632.237 543" />
      <path fill="#2f0000" d="M246.955 298.224l-4.678 21.947-63.934 7.13 59.664 9.293" />
      <path fill="#fff" d="M85.94 58.906l247.255 30.192 213.192-2.62-64.715-46.064" />
      <path fill="#488e5b" d="M757.99 422.253l-12.924 51.595 153.88-125.382 8.148 26.964" />
      <path fill="#f9ffff" d="M321.393 174.65l-217.95-5.185-82.984-9.467 166.398-3.652" />
      <path fill="#fff" d="M572.992 385.2l68.114-177.563L813.488-1.08l-218.156.2" />
      <path fill="#faf9f8" d="M371.857 91.637l5.7 397.655L224.818-6.96 259.052-31" />
      <path fill="#fff" d="M715.704 142.39l14.953.256L991.54 9.623 974.602-31" />
      <path fill="#523c72" d="M845.872 15.982l-22.843 120.69-13.463-54.852 18.153-58.584" />
      <path fill="#1f0000" d="M64.562 184.475l101.785-8.267-36.358-9.065-95.27 8.908" />
      <path fill="#2b0000" d="M186.478 185.083l57.742.735-11.745-11.994-27.862-.415" />
      <path fill="#96b99f" d="M827.635 203.926l114.292 22.388-10.577-100.498-8.653-12.024" />
      <path fill="#350000" d="M33.626 372.227l5.626-18.69L203.34 366.29l-150.72 6.176" />
      <path fill="#fff" d="M880.052 153.863l-26.145-15.466-8.72-11.167L506.798 543" />
      <path fill="#ffe0dd" d="M199.068 166.856L-31 233.976l129.747 124.65 97.56-1.586" />
      <path fill="#fff" d="M1020.143-31l20.98 431.843L631.8 226.408l297.666 1.77" />
      <path fill="#ffa49e" d="M14.655 296.12L19.23 543l22.876-190.83L30.55-30.77" />
      <path fill="#fff" d="M852.558 385.317L736.228 543l143.26-117.98-24.955-20.868" />
      <path fill="#b0b194" d="M946.8 506.52l-118.824-46.665 159.27-65.778-52.427 48.23" />
      <path fill="#225d4e" d="M914.756 91.807l-92.18-10.433 77.962 103.59-21.492-35.636" />
      <path fill="#f6ffff" d="M229.41 367.415l-240.566 7.242 181.706 4.275-43.7 29.364" />
      <path fill="#ffbfba" d="M306.144 414.36l4.182-289.914-56.26 4.11-42.605 161.16" />
      <path fill="#b6bdbe" d="M572.77 462.112l-192.15 3.322-1.517-377.57 198.453 8.63" />
      <path fill="#570000" d="M195.1 157.555l-165.17-3.17 11.888-6.845 86.08-2.302" />
      <path fill="#290000" d="M195.747 474.247l52.087-10.05-194.718-6.646-18.422 23.9" />
      <path fill="#fff7f6" d="M342.71 423.25l-193.465-.183 186.535-46.525-130.752 12.147" />
      <path fill="#552523" d="M246.03 130.065l-62.406-1.7 62.306-21.553-32.758-10.283" />
      <path d="M250.04 44.817l-42.326 4.263-18.95-5.503 27.29-6.778" />
      <path fill="#fff" d="M414.97 508.656L-31 543 3.62 190.82l22.787 305.835" />
      <path fill="#8a8c8d" d="M355.186 497.53l195.753 6.608 31.506-9.156-109.353.417" />
      <path fill="#ff3612" d="M975.883 401.618l-9.784-37.92-1.813 58.538-22.064 12.205" />
      <path fill="#7d8684" d="M364.075 39.468l272.028-1.512-254.163-8.752-68.24-7.3" />
      <path fill="#975a27" d="M718.834 116.79l-54.284 99.338 11.83-7.642 64.642-109.7" />
      <path fill="#290000" d="M149.6 389.567l-121.294-2.35 12.626-6.38 98.086-5.775" />
      <path fill="#9d716f" d="M198.374 482.65L-31 486.983l190.776 12.624 88.818 1.987" />
      <path fill="#fff" d="M13.84 339.547L16.405 19.3 275.25 6.03-31-31" />
      <path fill="#fffaf8" d="M335.693 140.588l-167.66-15.583-80.635 5.86 101.43 17.28" />
      <path fill="#ff3a2d" d="M902.474 419.378l8.118-63.303 57.44 5.24-72.513 11.41" />
      <path fill="#29754e" d="M864.775 347.952l51.174-4.033-30.86 63.837-89.23-27.84" />
      <path fill="#954847" d="M818.387 331.187l7.993-46.764 21.93 14.97-44.14 50.998" />
      <path fill="#9d4a12" d="M769.058 83.923l-52.513 55.314-6.246-22.144 104.64-42.45" />
      <path fill="#fff" d="M780.048 55.526L633.785 87.45 151.05 92.383 714.533 15.12M579.377 242.974l131.99 141.317-33.15 75.08L572.638 543" />
      <path fill="#abacad" d="M107.023 443.934l150.33 1.303-74.186 16.087-101.286-2.736" />
      <path fill="#e9e7e8" d="M765.1 76.59l31.523-12.557-1.47-.07 66.16 240.68" />
      <path fill="#f1908c" d="M32.087 77.238l221.375 5.004 29.674 7.853L3.368 88.927" />
      <path fill="#fd2700" d="M910.81 428.72l-17.874-35.992 39.198 42.717 35.548-15.425" />
      <path fill="#a1b99e" d="M775.946 231.833l11.802-96.167-33.61 16.6-18.325 56.264" />
      <path fill="#c1c3c5" d="M671.833 353.21l-79.506-138.22 23.85-25.035 44.54 79.33" />
      <path fill="#be4340" d="M35.02 445.073l-9.704-2.365 23.52 8.285 185.41-5.564" />
      <path fill="#a0a3a3" d="M308.58 55.845l1.15 63.67-4.52-73.96 197.318 9.738" />
      <path fill="#d5e7ea" d="M147.225 496.01l74.38-23.085-96.385 9.326 80.517 7.375" />
      <path fill="#760500" d="M234.815 145.815l13.275 12.527-70.905-4.746 23.634-2.712" />
      <path fill="#0e13e9" d="M881.87 445.995l11.555-22.42-8.754-14.03-13.22 25.22" />
      <path fill="#9c6133" d="M734.625 385.98l-53.797 74.964 31.61-70.147-18.387-25.154" />
      <path fill="#4f593f" d="M946.642 400.535l-4.006-3.547-56.443 40.687 55.467-67.51" />
      <path fill="#3cac3b" d="M825.792 96.702l-36.305 21.042 95.076-2.017 4.207-25.225" />
      <path fill="#fff" d="M826.965 338.42l8.75 12.6 206.064-69.136 6.052-157.304" />
      <path fill="#fff" d="M973.91-31l81.09 5.928-7.117 177.704-145.05-42.685M761.724 338.042l115.574-89.353-228.575-26.082 23.327 88.776" />
      <path fill="#540c07" d="M193.152 101.495l56.775 27.32-48.665-5.652 49.928-18.342" />
      <path fill="#3838e4" d="M897.718 92.605l-5.687 68.68-34.58 23.975 61.15-82.073" />
      <path fill="#fff" d="M716.148 539.805l50.494-177.66-51.327 46.71L645.873 543" />
      <path fill="#3d423f" d="M306.33 295.155l-1.28 121 2.436 34.59 1.717-89.88" />
      <path fill="#ffe6e4" d="M231.97 186.287l11.99 92.62-208.98-1.89 45.51-98.544" />
      <path fill="#576462" d="M305.82 93.835l-2.724 38.274 4.918 140.204-.16-191.552" />
      <path fill="#ffedeb" d="M157.84 390.554l47.657-209.108-11.057 261.92-140.606.295" />
      <path fill="#fff" d="M594.703 498.947l-353.732 2.77L987.577 543 1055 486.91M273.336 16.546L617.773 3.874 276.17-29.71 221.992 85.194" />
      <path fill="#570000" d="M249.853 384.973l-66.675-1.197 28.71-5.01 32.04 1.31" />
      <path fill="#2954c6" d="M838.35 399.226l-18.6 27.712 3-99.833 10.247 17.148" />
      <path fill="#dbecec" d="M203.1-6.684l34.354 40.15-180 15.774 140.757 1.33" />
      <path fill="#b13c36" d="M237.95 430.872l-.674-.71 2.954-4.422-192.495 1.43" />
      <path fill="#fffffe" d="M801.17 346.142l2.728-8.743-19.787-.51-22.948 12.56" />
      <path fill="#878a89" d="M691.89 428.99l-12.405 57.603-27.18-21.875L691 459.594" />
      <path fill="#707373" d="M71.502 494.962L33.576 479.25l15.14 21.483 217.01-5.475" />
      <path fill="#fff" d="M712.395 494.377l-164.723-33.78-301.574 4.498L510.08 497.29M785.996-31L1055-6.642v74.206l-157.52 9.538" />
      <path fill="#1829d3" d="M819.184 62.457l25.922 24.194-32.624 33.13 21.246 23.165" />
      <path fill="#350000" d="M229.95 396.588l-26.134-.392-18.715 4.146 58.652 3.578" />
      <path fill="#ca605e" d="M37.28 409.79l-24.565 2.232 43.392 3.622 169.173-5.754" />
      <path fill="#fff" d="M325.934 543L247.49 334.042l-7.562 94.963 1.89 103.296" />
      <path fill="#3d110c" d="M140.888 475.11l86.09-1.772 17.885-8.213-9.55-13.99" />
      <path fill="#6c6867" d="M303.446 488.127l3.235-76.134 1.956 85.29-1.927 8.114" />
      <path fill="#4d5355" d="M459.08 10.04l24 6.748 47.825-3.498-109 1.775" />
      <path fill="#fc4f49" d="M226.43 67.075L50.363 65.397l144.55-1.04 45.435-.545" />
      <path fill="#fe857f" d="M253.79 337.396l57.844 127.02-73.808-149.474 4.428-59.635" />
      <path fill="#4c4e4f" d="M412.504 496.72l24.807 1.92-115.606.9-19.99-1.817" />
      <path fill="#fff" d="M574.366 183.607l2.2-183.755 201.76-19.423L675.83 194.68" />
      <path fill="#e7f2f1" d="M157.668 166.68l106.988 8.062-80.07-21.735-200.41 11.896" />
      <path fill="#ffe8e5" d="M302.686 342.188l2.53-258.29L33.06 95.54l218.522 6.158" />
      <path fill="#ffb5b0" d="M36.976 481.653l-23.03-5.115 7.167-157.24 13.965-61.277" />
      <path fill="#ff0f00" d="M963.852 370.59l7.13 14.306-21.042-19.1-13.395-13.185" />
      <path fill="#2426c3" d="M816.255 370.68l10.27-21.86 76.445 8.653L885.355 334" />
      <path fill="#535556" d="M571.08 484.524L576.147 543l-3.22-187.477-1.833 67.094" />
      <path fill="#fff" d="M515.11 33.507l115.682-13.63-131.89-4.833-169.948 1.832" />
      <path fill="#8a8989" d="M302.925 50.352l3.87 104.953 3.557-142.55-6.39 1.135" />
      <path fill="#bec7b8" d="M822.27 237.094l10.86-54.058 115.696 18.923-20.994-54.92" />
      <path fill="#5f5f60" d="M576.103 278.83l-3.376-58.986-1.645 71.94 1.172 96.154" />
      <path fill="#6e4a44" d="M773.46 54.184l71.897 5.23-75.838 29.938 42.852-5.634" />
      <path fill="#5a0100" d="M191.11 139.93L32.936 156.845l127.153-2.935-1.868-11.075" />
      <path fill="#fff" d="M952.738-22.874L830.393 74.45l3.634 7.845 24.462 2.514" />
      <path fill="#ec918d" d="M6.792 114l53.14-16.907 171.386 14.217-113.74-.61" />
      <path fill="#1c0000" d="M187.71 38.278l40.672 1.115 15.285-1.345L225.885 50.8" />
      <path fill="#505152" d="M570.64 81.943L575.426-31l-.745 92.102-1.545 116.48" />
      <path fill="#fff" d="M15.036 215.588L12.814-31-31 431.468 18.14 543" />
      <path fill="#46b145" d="M895.616 357.354l-6.127 28.455-107.367-1.58 109.974-32.59" />
      <path fill="#b4b6b0" d="M786.174 428.57l-61.66 51.804 137.474-80.523-157.23 16.912" />
      <path fill="#686c69" d="M566.895 35.378l-129.922.827 103.402-5.28 27.708.214" />
      <path fill="#6ab979" d="M945.05 452.582l-18.166 28.216-37.662-2.587 7.53-15.715" />
      <path fill="#fff" d="M120.93 490.84L40.438 543l33.935-55.136L157.312 543M971.618 383.3L881.66 251.926 1055 180.884 979.256 543" />
      <path fill="#320d09" d="M238.103 329.003l-44.365 8.29 15.79-17.562 30.44 7.138" />
      <path fill="#f8b6b3" d="M243.873 314.707L64.09 280.097l146.833-1.936-116.448 38.764" />
      <path fill="#fff" d="M1055 439.342l-159.526 16.145 62.756-31.215L934.795 543" />
      <path fill="#edffff" d="M224.628 111.313l-157.61 2.724 152.425 5.93 27.885-4.588" />
    </g>
    <g class="SVG--1">
      <path fill="#8a312c" d="M776.327 324.072l31.207 20.8 5.94.89-1.18-25.1" />
      <path fill="#fff" d="M297.15 96.482L308.668-6.354 34.203 8.296l194.165 5M911.328 369.218l1.26 11.072 43.38-8.982-25.338-7.494" />
      <path fill="#0d00e4" d="M864.11 86.155l16.307-19.06 25.98 17.42-13.05-6.32" />
      <path fill="#230200" d="M147.97 177.587l-44.344-9.425-61.513 7.742-7.712 7.135" />
      <path fill="#fff" d="M751.512 379.1l55.302-28.276 5.957 18.138-99.91 40.942" />
      <path fill="#76c56d" d="M893.025 126.28l33.272 85.047-31.343 5.185 33.732-77.23" />
      <path fill="#fff" d="M-31 293.64l191.67 8.792-55.046-82.784 45.81 70.26" />
      <path fill="#4b2521" d="M223.41 495.168l-24.976-9.164 43.864-11.068-10.714 22.73" />
      <path fill="#575b5d" d="M305.143 13.927l27.79 1.666 194.945-1.23-116.495-1.936" />
      <path fill="#ffa09a" d="M19.318 11.09l10.338 31.312-9.24 150.955-5.95-12.51" />
      <path fill="#d1d3d3" d="M961.783 117.244l9.733 35.13 71.245 23.03-139.755-11.42" />
      <path fill="#f65c53" d="M178.72 215.465l-45.237 2.512-129.41-2.216 84.123-.802" />
      <path fill="#460600" d="M198.602 171.222l9.02 9.44 9.705 4.154 38.703-7.984" />
      <path fill="#fa7973" d="M85.477 340.91l117.406.307-146.446 4.864-30.544-4.728" />
      <path fill="#e38482" d="M14.263 288.18l-22.593 5.525 55.542-16.172 61.164 11.774" />
      <path fill="#ee664f" d="M843.476 16.77l5.46 15.124-11.46 10.18-15.334-16.337" />
      <path fill="#200" d="M239.705 422.236l-34.612.54 1.198 8.118 30.18-.846" />
      <path fill="#fff" d="M27.124 53.52L-31 52.585l76.435 11.62L389.86 56.29" />
      <path fill="#d0d4d7" d="M727.798 379.816l-83.4-84.592-13.85 38.905 127.88.023" />
      <path fill="#fff" d="M781.64 531.2l95.72-110.51-32.506-9.227-64.202 41.044" />
      <path fill="#f0f6f6" d="M308.685 404.72l52.406 84.973-4.715-174.6-47.553 20.092" />
      <path fill="#fff" d="M823.84 89.02l-.1-10.944-74.353 31.668 8.635 33.894M33.293 317.393l-63.066-1.413 98.373 11.5 165.148-6.754" />
      <path fill="#e16d69" d="M86.06 397.107l86.288 2.87-135.604 2.682-37.883-4.233" />
      <path fill="#fff" d="M577.105 12.764l229.686 43.28L854.006-31l-417.61 43.764" />
      <path fill="#b2c3bd" d="M885.6 480.148l58.112-46.906-109.13 14.205-9.023 42.854" />
      <path fill="#1d0000" d="M57.765 359.85l97.227 8.168-119.783 4.28 3.608-17.647" />
      <path fill="#ba4e02" d="M710.88 406.932l-1.1 4.394 59.022-55.44-25.53.92" />
      <path fill="#fbffff" d="M190.845 385.313l-146.728 9.69L158.99 396.4l89.517-4.597" />
      <path fill="#fff" d="M730.223 196.977l30.583-34.642-56.955-7.59L637.708 543" />
      <path fill="#95a0a7" d="M677.224 213.862l20.99-42.313-68.287 68.072 11.346-26.932" />
      <path fill="#fff9f8" d="M196.56 407.14l-81.647 18.592 68.617 2.296 105.75-21.816" />
      <path fill="#fff" d="M157.364 485.013l4.504 16.084 141.268-4.023L124.593 543" />
      <path fill="#444c47" d="M367.832 24.398l-50-2.564-2.566 4.106 15.624 3.93" />
      <path fill="#93c4c7" d="M155.617 195.967l7.373-7.428-120.807 1.834 92.85 7.344" />
      <path fill="#fff" d="M875.522 159.813l-4.645-13.377-72.807 11.107 72.154 28.228" />
      <path fill="#b8cbbc" d="M739.986 486.493l33.34 12.59 13.41-62.317-55.805 31.66" />
      <path fill="#fff" d="M41.234 300.383l191.587 1.878 54.987-7.332-106.366-6.36" />
      <path fill="#fa7e79" d="M247.41 139.192l-109.74 1.612 107.955 3.644-6.667 81.548" />
      <path fill="#fff" d="M717.53 396.287L588.928 281.904l-15.71 238.844 31.01-21.246" />
      <path fill="#350500" d="M152.618 383.22l-130.98 6.87 134.198-13.615 6.486 16.205" />
      <path fill="#fff" d="M21.448 76.37l-25.55-7.542 317.406-1.385L157.45 79.81" />
      <path fill="#f7ffff" d="M12.67 422.985l66.103 3.95 178.145-6.533-243.81-4.314" />
      <path fill="#be5c2a" d="M771.456 90.336L738.85 67.74l17.95-.93-36.788 62.223" />
      <path fill="#f92705" d="M970.792 404.855l-29.714 21.602 25.488-4.8 1.63-29.975" />
      <path fill="#0f0ae4" d="M832.625 135.618l-5.673 1.746-9.494-19.085 27.21 5.573" />
      <path fill="#fff" d="M276.036 129.066l-87.78.504-12.286 9.916 70.294-1.466" />
      <path fill="#8b8a88" d="M307.612 331.258l-7.38-86.408 8.15-51.53.73 85.963" />
      <path fill="#ae3735" d="M103.767 427.278l-52.454.005-25.12-.304 30.933 5.12" />
      <path fill="#ff2000" d="M965.585 369.513l-32.797-9.88-16.252 1.486 24.618-4.573" />
      <path fill="#555858" d="M783.278 363.556l11.516-18.586 34.19-31.03 10.005 13" />
      <path fill="#4d8a50" d="M854.858 128.63l-70.635-21.33 30.192.72 125.41-36.655" />
      <path fill="#370000" d="M136.15 155.327l22.874-8.54L87 145.35l-52.536 8.015" />
      <path fill="#f05049" d="M96.51 237.08l-95.903.388 85.504 2.018 22.636-1.553" />
      <path fill="#f0928d" d="M33.975 225.497l-23.004 2.46 13.657-15.244 110.344 12.96" />
      <path fill="#b7b7b8" d="M646.4 263.67l3.697 89.036-23.53-91.057 69.838 83.13" />
      <path fill="#ec6e68" d="M21.3 301.502l29.444 9.42 94.88.31-118.116 4.13" />
      <path fill="#9d5a5a" d="M257.835 83.89l-24.89-7.818-8.224 1.016-76.214 4.297" />
      <path fill="#fff" d="M902.432 223.998L909.22 349.4l-13.308-4.854-124.306-126.798" />
      <path fill="#ff8b87" d="M242.232 412.228l-64.978.255-92.186-2.35 151.28-1.507" />
      <path fill="#bcb5b8" d="M835.75 150.566l26.084-25.7-75.156 26.205 12.966 38.718" />
      <path fill="#fff" d="M669.666 325.102l-57.89-136.13 43.165 130.125-93.2-3.26" />
      <path fill="#fb918c" d="M233.538 202.14l-84.474-3.658-64.346 1.482 48.883 4" />
      <path fill="#fb938e" d="M267.01 324.29l15.3 47.713-51.164-96.952 11.15 5.746" />
      <path fill="#f8918c" d="M312.137 122.728l-80.932-37.056 10.258 1.943 46.764 18.597" />
      <path fill="#f8fefd" d="M226.658 154.957l30.334 22.35 88.657 108.636-103-111.645" />
      <path fill="#b3b4b5" d="M1004.006 422.06l-4.14 20.263-44.516-11.616 45.193-7.44" />
      <path d="M98.947 478.766L31.9 477.368l40.577-7.694L162.8 478.3" />
      <path fill="#fff" d="M32.233 433.755l215.092.082-25.098 10.224-234.406-.61" />
      <path fill="#fff" d="M246.326 543l-7.715-195.066.414-14.487 65.777 116.52" />
      <path fill="#ff8b86" d="M240.098 114.362l7.26 72.43-5.19-78.53 45.107 31.937" />
      <path fill="#51215f" d="M925.527 407.523l-29.362-66.562 5.663 47.812 45.585-6.498" />
      <path fill="#feffff" d="M63.975 347.616l171.942 4.9-254.13-18.408 145.78-3.81" />
      <path fill="#cbcece" d="M942.258 343.415l-17.343-21.833-11.634 30.27-4.12 14.396" />
      <path fill="#f8817a" d="M153.28 222.385l155.835 2.1-114.084.036-82.107.77" />
      <path fill="#ff1406" d="M59.66 470.16l28.492.712 119.405-.21 18.25-1.237" />
      <path fill="#7f0d06" d="M204.675 149.84l30.803-.866 2.874 6.16-87.236-6.344" />
      <path fill="#400" d="M191.85 105.008l-2.027-6.055 17.008 14.074 15.86-8.888" />
      <path fill="#1b0fc5" d="M874.58 133.52l2.808 4.856-.026 40.457 15.165-20.605" />
      <path fill="#989a9b" d="M528.082 52.312l38.603 2.037-89.184 2.528-55.035-4.214" />
      <path fill="#eb6b68" d="M164.196 351.905l-178.372 2.85-.292.162 265.25-.28" />
      <path fill="#fcfeff" d="M820.825 133.79l-9.04-16.95-88.605 14.185-8.63 16.983" />
      <path fill="#f8ffff" d="M-31 147.174l112.177 23.153-84.405-.763L20.562-31" />
      <path fill="#d76762" d="M819.75 296.245l7.71-10.842 20.645 5.665-3.503 15.82" />
      <path fill="#f6a8a4" d="M249.55 234.254l-175.193 3.428 54.098 5.12-21.833-.13" />
      <path fill="#feffff" d="M514.114 19.91L329.762 30.182l97.612 15.348-119.955-7.58" />
      <path fill="#eb7873" d="M12.57 162.638l34.2-17.57 33.54-2.772-57.492-4.477" />
      <path fill="#fff" d="M236.46 200.76L12.096 212.904l228.584.225 41.204 47.178" />
      <path fill="#f4edf1" d="M919.35 421.526l12.752-9.433 33.85-35.974-17.98 48.462" />
      <path fill="#fff" d="M813.228 386.533l2.68 14.714-100.798 6.146 40.756-28.507" />
      <path fill="#c56968" d="M55.813 23.735l205.342 2.267L175.3 21.1l-34.495 8.6" />
      <path fill="#fff" d="M155.943 543L15.45 487.897l.828-419.287L-31 509.593" />
      <path fill="#400200" d="M59.09 362.05l67.78 4.526 27.93 3.498 4.7-10.06" />
      <path fill="#f57873" d="M120.514 137.05l-89.38 5.032 133.87-.396-71.707-4.55" />
      <path fill="#fff" d="M911.33 87.812l143.67 112.6L984.53-31l-72.71 162.23" />
      <path fill="#909394" d="M553.804 8.084l25.108 8.8-87.16-2.71 78.492-5.55" />
      <path fill="#fff" d="M571.92 57.885l.22 31.17-267.314-2.46 85.856-31.28" />
      <path fill="#acb2b6" d="M712.765 328.146l-4.207 63.55-16.052-26.615 2.1-8.157" />
      <path fill="#84a784" d="M815.547 447.7l-44.465-5.177-32.92 4.146 42.405-24.71" />
      <path fill="#fff" d="M171.446 129.98l-129.714-2.76-48.612 3.885-4.41 6.487" />
      <path fill="#7d0000" d="M59.474 488.49l36.002-5.102 70.33 5.385-67.413.253" />
      <path fill="#675d5d" d="M901.164 417.878l-52.44-60.077 5.623 51.187-12.228 1.994" />
      <path fill="#6e6e6e" d="M573.08 176.223l3.653 43.79-4.1 39.635-1.59-51.82" />
      <path fill="#695650" d="M845.26 88.295l47.618 56.735-40.253-.533 3.417-14.51" />
      <path fill="#f47670" d="M289.594 211.076l-52.807-69.723 16.79.167-16.213 11.85" />
      <path fill="#ff2f2b" d="M921.584 355.194l-29.647 50.48L904 370.482l23.653-9.446" />
      <path fill="#d1e6e5" d="M209.107 50.627L55.84 50.84-31 41.883l179.172-1.216" />
      <path fill="#fff" d="M669.108 543l-47.94-300.16-46.648 4.483 1.5 145.667" />
      <path fill="#515151" d="M460.664 502.698l20.507-5.317 110.058.794-115.22 1.15" />
      <path fill="#505f58" d="M820.392 47.288L843.8 58.412l-9.747 1.87L779.71 98.02" />
      <path fill="#eaffff" d="M155.397 389.592l-109.696.593-76.7-8.98 76.273 16.405" />
      <path fill="#fff" d="M629.828 238.326l-54.674-41.065.14 63.123 79.035-102.487" />
      <path fill="#feffff" d="M802.417-28.042L767.7 85.325l34.04-13.505-184.935-7.015" />
      <path fill="#3225c8" d="M835.89 420.92l-24.838-41.192 32.924 17.424-20.224 11.046" />
      <path fill="#77130d" d="M153.76 174.86l4.146 7.147-102.92-11.01 179.767 2.94" />
      <path fill="#f6857f" d="M25.848 198.115l152.1 2.337-97.847 2.075-74.814.924" />
      <path fill="#cad0ce" d="M329.29 198.553l5.49 97.894-5.265 179.296-11.88-136.753" />
      <path fill="#931c15" d="M157.153 381.313l87.693-.14-18.935 6.85-1.516-2.203" />
      <path fill="#df8380" d="M187.564 281.37l-17.265-1.364-50.26-2.434L86.4 281.15" />
      <path fill="#f3918d" d="M259.552 248.22l74.882 115.488L233.86 215.813l8.628-3.305" />
      <path fill="#9ec1c6" d="M187.77 477.56l11.058 6.568-167.668.408 2.577-1.68" />
      <path fill="#fcffff" d="M312.163 461.98l9.013-133.453-10.004-100.084-3.98 151.577" />
      <path fill="#f98f8a" d="M258.082 235.127l-29.818-21.88-63.474 2.46 80.827 3.832" />
      <path fill="#959596" d="M649.668 315.36l-48.372-106.47-.134 17.75 20.138 10.595" />
      <path fill="#706167" d="M750.02 77.48l8.644-6.13 35.31-19.286L755.95 94.83" />
      <path fill="#fca9a5" d="M219.872 250.805l-104.543.792 70.75 16.21-106.644-2.746" />
      <path fill="#626262" d="M571.992 207.502l3.38-40.033-2.304-88.507-.728 79.414" />
      <path fill="#fff" d="M274.306 241.718l-34.876-48.943 23.045 22.736 53.83 67.622M86.595 259.99l65.753 4.183 102.048-6.788-129.705-2.748" />
      <path fill="#fe8e89" d="M277.502 385.67l-3.34-10.592-33.145-69.147 69.613 128.792" />
      <path fill="#a0a697" d="M853.57 137.675l42.848 1.677-147.34 13.956-55.08-3.767" />
      <path fill="#fff" d="M98.74 395.587l100.447 12.843-214.548-1.6 154.426-6" />
      <path fill="#a0c7ca" d="M34.356 10.93l134.587 3.1-78.298 22.975 124.03.02" />
      <path fill="#a62920" d="M46.295 485.008l77.69 1.406-118.86 4.63 36.99-6.69" />
      <path fill="#2a0400" d="M118.93 476.65l-80.068-20.426-1.368 19.355 13.168 5.467" />
      <path fill="#71c56f" d="M920.694 125.49l-25.528 3.084-10.695 34.396 50.584-31.78" />
      <path fill="#e5f7f8" d="M234.032 373.34l-48.582 3.703-114.988.572 142.194-12.1" />
      <path fill="#e0570b" d="M898.884 389.048l9.76 21.366 25.27 27.29-37.43-24.72" />
      <path fill="#27dc3e" d="M879.44 120.096l15.845-25.335-22.815-7.665-3.585 31.306" />
      <path fill="#f3736c" d="M76.29 330.834l147.05-.938-67.026-4.795-68.084 3.568" />
      <path fill="#df8580" d="M323.83 182.948l-47.928-28.836-54.063-44.163 60.97 45.235" />
      <path fill="#fcfafc" d="M836.605 450.28l43.108-28.74-48.786-16.315 25.47-12.54" />
      <path fill="#fff" d="M148.445 267.11l98.483 11.137-126.347-1.702-132.04-5.158" />
      <path fill="#fa847d" d="M133.282 305.838l-111.547-2.36 126.888-1.373-14.315 5.11" />
      <path fill="#818384" d="M657.188 210.112l4.935-28.366 2.628 19.957 14.362 7.767" />
      <path fill="#1f1edf" d="M906.802 100.404l-15.257 20.21-3.64 2.886 27.702-2.477" />
      <path fill="#430a03" d="M233.596 37.233l8.432 13.08-64.475-14.124 38.197 3.148" />
      <path fill="#fff" d="M366.65 154.345L376.72-31l.17 296.083-5.686 156.23" />
      <path fill="#b3b0b5" d="M871.106 160.992l33.304 62.473-71.838-48.247-3.26 54.326" />
      <path fill="#fff" d="M164.115 62.312l70.642 1.824L269.737-31l36.016 74.722" />
      <path fill="#8b918e" d="M310.3 49.605l40.492-5.447-35.86-2.177-4.907 5.265" />
      <path fill="#fff" d="M213.14 312.735l-115.037 10.11 61.104 5.407 66.87-8.32M739.377 114.024l-64.57-5.12-98.318 123.74L576.147-31" />
      <path fill="#dc6d68" d="M220.68 160.602l103.47 126.324-23.6-27.2-5.992-5.956" />
      <path fill="#e96862" d="M28.125 127.09l211.563-2.042-164.246-2.693-60.227.104" />
      <path fill="#d64f4c" d="M49.59 36.228l112.846 1.81-126.68.762-28.533-4.076" />
      <path fill="#fff" d="M74.177 100.993l165.29-11.218-207.263.324-46.988 7.803" />
      <path fill="#cc8481" d="M35.283 106.316l-13.75 1.847-.21-8.958 155.58 2.35" />
      <path fill="#86db81" d="M902.42 383.346l3.605 22.202 10.72 9.907 5.83-14.545" />
      <path fill="#fff" d="M691.368 342.097l159.007-60.345 164.415-53.513-371.266 10.187" />
    </g>
    <g class="SVG--2">
      <path fill="#c5dedf" d="M75.333 359.428l47.34-14.423-44.077 2.21 20.892 11.52" />
      <path fill="#b15d59" d="M268.94 345.34l38.497 66.746-1.39 78.286-.59-75.693" />
      <path fill="#717273" d="M572.517 65.335l.943 37.18 1.877-54.67-3.19-41.69" />
      <path fill="#fff" d="M73.906 321.434l169.254 19.54-133.975-1.092 41.745-26.337" />
      <path fill="#8b2121" d="M709.033 111.727L738.66 120l-22.676 9.066 9.113 3.91" />
      <path fill="#ff8982" d="M68.83 325.576l68.117 4.06-73.61 1.08-40.065-1.768" />
      <path fill="#fff" d="M979.947 386.59l-61.213-60.758 120.143-221.82L1042.305 543" />
      <path fill="#feffff" d="M571.628 462.242l-46.172.52-200.153 34.41 246.603-.58" />
      <path fill="#580100" d="M234.496 455.965l-12.212 5.647-130.355 2.48 149.514 8.355" />
      <path fill="#f4615b" d="M277.214 123.315l-34.25-19.364 64.99 30.293-1.822 1.6" />
      <path fill="#7a7c7d" d="M572.007 361.16l2.054 65.34 2.904-48.174-2.963-33.82" />
      <path fill="#fff" d="M33.514 204.93l-14.54 5.982 20.844 1.504 120.912-9.014" />
      <path fill="#b5b5b6" d="M690.374 314.314l-14.77 16.198-38.643-109.96 17.506 86.672" />
      <path fill="#445151" d="M86.276 493.525l20.628 8.303 1.312-7.273 2.658-2.166" />
      <path fill="#fc8b86" d="M259.733 222.134l45.323 61.705-13.65-14.965-53.418-67.917" />
      <path fill="#8ebfc3" d="M177.503 463.01l-70.026-13.91 136.467 4.6-43.766 4.758" />
      <path fill="#b3500a" d="M736.62 377.862l-52.702 70.95 34.758-61.177-7.106-4.236" />
      <path fill="#ff4137" d="M222.88 51.673l-112.716-.668 83.738 3.44-11.502-.067" />
      <path fill="#373737" d="M372.41 498.607l15.002.573 94.503-.7-113.632-1.566" />
      <path fill="#fff" d="M900.012 77.797L1055-31 389.745 7.057l449.15 14.938" />
      <path fill="#ff655f" d="M21.623 68.354l-4.675.133 65.195-2.194-54.35-3.693" />
      <path fill="#fc7770" d="M201.168 236.793l-38.53 1.768 70.347 1.172 17.703-.354" />
      <path fill="#f95a52" d="M233.638 342.405l-8.728-2.072-205.163 2.88 167.06-.555" />
      <path fill="#67332e" d="M185.716 399.286l1.24-.436 54.395-5.034 3.634 12.382" />
      <path fill="#f87c77" d="M24.443 255.59l120.032-1.774-95.585-2.732-44.994-.28" />
      <path fill="#f3908c" d="M254.113 288.337l-83.63.17 106.713-7.838-93.308-2.81" />
      <path fill="#fff" d="M110.456 505.78l-2.635-18.7L206.675 543l-217.722-48.16" />
      <path fill="#bdb5bd" d="M939.373 76.76l-7.23-13.43-28.726 10.227 19.116 14.586" />
      <path fill="#f36d68" d="M96.512 281.208l-63.292-3.105-1.357 17.955-17.367-15.746" />
      <path fill="#f57671" d="M188.74 267.104l-165.51-5.58-2.75 7.736 6.664-3.424" />
      <path fill="#fefdfc" d="M232.588 157.198l-66.78 10.57 16.688 6.496 66.3-5.172" />
      <path fill="#ff6b63" d="M38.41 471.56l-12.323 1.488-17.544-11.185 26.276-1.135" />
      <path fill="#fff" d="M115.525 307.046l20.954-2.196 114.605 1.035-28.46 6.255" />
      <path fill="#91bbbe" d="M141.354 170.395l-9.53-6.31-51.863-7.253-52.02 10.512" />
      <path fill="#030000" d="M248.62 179.9l-49.785 2.604 2.256-9.593 3.346 1.293" />
      <path fill="#fff" d="M303.828 461.822l-61.99-143.76-2.29 110.75L241.54 543" />
      <path fill="#f8726c" d="M277.766 315.463l-33.542-55.258-.802-4.867 63.61 102.784" />
      <path fill="#fffcfc" d="M794.525 325.415L753 268.15l84.37 38.34-48.337 20.81" />
      <path fill="#ff2b01" d="M963.433 365.713l-5.313 2.513 9.475 20.317 2.657-6.44" />
      <path fill="#69a363" d="M760.792 151.375l33.223 10.707-14.793 10.298-18.072 4.08" />
      <path fill="#fff" d="M870.942 339.963l-45.04-8.112 17.045 13.687 8.216 6.44" />
      <path fill="#1b0000" d="M43.27 388.246l27.16.258 78.29-3.648-115.69-3.265" />
      <path fill="#fff" d="M728.628 501.38l-423.767-.906-29.586-59.23L199.002 543" />
      <path fill="#fff" d="M819.017 499.008l-238.01 12.24L953.856 543l-65.84-65.737" />
      <path fill="#8c908f" d="M661.418 476.45l37.94-40.482-8.454 18.114-9.413 19.637" />
      <path fill="#5e4542" d="M772.292 305.3l7.952 27.887 66.406-3.678-56.38.003" />
      <path fill="#fff" d="M768 332.636l11.43-6.92-127.635-99.863-15.174-46.618M718.883 499.36l-33.21-34.532 21.898-45.647 45.41 5.51M580.06 11.638L125.925-31-31 11.6l266.742 1.407M175.374 225.786L-31 229.613l125.2 7.433 219.427-1.507" />
      <path fill="#f18d88" d="M281.99 185.34l35.038 36.673-78.66-71.827 2.76-.544" />
      <path fill="#fff" d="M793.04 171.752l-.647 73.925 40.868-33.805-73.95-27.478" />
      <path fill="#2129b2" d="M896.102 425.566l-19.318-23.622 1.483 27.56 12.208 8.615" />
      <path fill="#fbffff" d="M-7.79 365.224l72.136 12.702-46.233 2.006-19.535-148.06" />
      <path fill="#fff" d="M1003.938 543l-65.927-97.508-14.355-14.923L1055 450.36" />
      <path fill="#b96e0e" d="M707.272 139.55l-15.725 22.652 76.122-70.95 3.663-12.06" />
      <path fill="#fff" d="M829.19 218.196l-17.756-61.104 71.845-9.738-89.053 40.358M170.08 186.295l106.2 9.875-117.98 4.384 4.78-33.47" />
      <path fill="#585853" d="M935.67 343.393l-33.127 14.326-25.36-7.056 40.958-5.036" />
      <path fill="#f6f3f1" d="M256.613 218.59l-225.83-1.804 30.532 6.865 70.74-1.736" />
      <path fill="#f1736c" d="M14.71 51.46l57.02-.698-25.952 2.453-24.606 3.98" />
      <path fill="#7c7f7c" d="M501.464 32.79L383.09 30.373l10.17 7.305 162.562-.005" />
      <path fill="#ee615b" d="M305.452 152.41l-2.005 1.028-36.288-23.635 15.095 7.685" />
      <path fill="#f7948e" d="M243.906 219.384l67.017 88.838-73.207-83.408-73.888.217" />
      <path fill="#3232dc" d="M846.63 83.513l-15.188-4.38-5.615-17.716-7.208 38.875" />
      <path fill="#fbffff" d="M470.518 18.878l27.376 22.6 66.99 1.487-78.787 8.148" />
      <path fill="#34c840" d="M882.507 391.498l-54.888-29.576-2.48 20.17 68.288-20.114" />
      <path fill="#9b9596" d="M58.36 459.376l-25.212 5.414 65.178-14.282-87.892-8.443" />
      <path fill="#fff" d="M-25.148 202.677l87.657-11.173-52.21-6.235L19.27-31" />
      <path fill="#6f7376" d="M778.653 335.794l-36.72 2.747 23.983 14.975 24.154-48.917" />
      <path fill="#7a8080" d="M803.543 354.283l14.492-35.547 37.87 24.8-30.648-40.27" />
      <path fill="#fffeff" d="M784.713 424.143l66.97 15.312 24.305-15.905.767-7.398" />
      <path fill="#fffefa" d="M179.638 133.296l16.774-21.49-105.445-.85 109.527 15.6" />
      <path fill="#f6655f" d="M302.21 96.966l-7.514-2.897-32.915-6.322 31.566 9.5" />
      <path fill="#a15c5c" d="M813.67 63.82l-33.454-15.57-9.448-12.893 10.504 33.28" />
      <path fill="#faf6fb" d="M926.678 178.94l-27.752 7.674 66.284-10.686-27.978-47.154" />
      <path fill="#feffff" d="M717.95 125.435l-16.558 16.312-26.315 59.447-35.693-100.234" />
      <path fill="#4d0000" d="M153.66 390.098l-26.135-5.284-53.982-3.886 86.572-1.718" />
      <path fill="#312cef" d="M896.31 169.116l-11.523-25.477-1.745 4.76-12.025 18.172" />
      <path fill="#f1f6f6" d="M407.085 27.712L423.33 68.69l-5.34-42.026-108.452-12.32" />
      <path fill="#f1f9f7" d="M188.59 114.782L85.253 110.89-31 114.586l91.96 8.502" />
      <path fill="#c6cccb" d="M366.503 180.3L363.34 80.173l-6.122 99.906 8.12 71.936" />
      <path fill="#fdffff" d="M132.148 246.626l116.262 5.02 66.108 115.323-78.3-125.034" />
      <path fill="#fff" d="M781.902 497.67l6.42-66.698L849.414 543 494.78 501.76" />
      <path fill="#bf2419" d="M17.91 364.103l183.846-.84-181.77 4.6 3.65-30.51" />
      <path fill="#679399" d="M194.297 16.763l14.657-4.832-52.87.962 15.363 9.585" />
      <path fill="#b7b7b8" d="M998.58 177.08l-1.92-26.48-16.953 23.085-76.202-53.847" />
      <path fill="#fcffff" d="M78.063 250.593l192.618-11.218-255.046 4.55-21.293 4.25" />
      <path fill="#f35e58" d="M302.202 186.023l-42.18-30.323 11.546 10.98 10.705 6.796" />
      <path fill="#f97c77" d="M128.713 267.31l67.436-4.222.783-.512 40.64 3.692" />
      <path fill="#f8f7f5" d="M200.577 107.618l-85.675 1.678 113.22-17.18-133.35 2.264" />
      <path fill="#e4918e" d="M172.67 78.627l-97.43.85 61.706 9.985-54.5-1.18" />
      <path fill="#fff" d="M303.935 387.442l-38.425-66.22-42.932-77.96 79.12 131.282" />
      <path fill="#460000" d="M192.978 488.79l16.716-7.448 22.85-.486 7.4 8.075" />
      <path fill="#1a28ee" d="M873.172 356.21l4.058-8.028 10.81-7.087-13.5-8.92" />
      <path fill="#fff" d="M146.085-31L-31 21.606l78.722 9.682L-31 42.64" />
      <path fill="#5d6361" d="M306.733 319.493l1.838-75.82-3.6 25.836.656 61.588" />
      <path fill="#510803" d="M240.994 313.527l-5.333 20.995-42.227-6.427 52.414-6" />
      <path fill="#fff" d="M309.527 461.388l11.266-54.153-6.124 87.324 186.618-30.204" />
      <path fill="#f26a65" d="M127.35 186.15l-38.325-5.83 21.017 3.174 150.575-.502" />
      <path fill="#2c0603" d="M205.752 129.737l-.627-9.088 16.68-1.548 18.072 2.885" />
      <path fill="#70557a" d="M822.99 118.72l46.477 8.8-85.878-14.57 31.774-11.527" />
      <path fill="#6e6462" d="M53.04 492.19L92.744 468.3l-55.445 33.872 38.65-2.44" />
      <path fill="#f59f9a" d="M249.49 188.804l73.85 76.615-76.584-87.033 8.362 29.538" />
      <path fill="#efefed" d="M147.794 495.872l8.292-6.95 90.454.604-33.714 1.84" />
      <path fill="#271dfe" d="M823.127 363.14l1.465 1.83 12.706-11.736-13.07-19.855" />
      <path fill="#fdfdfd" d="M662.56 293.596l-87.677 50.513.29 198.89 70.878-254.347" />
      <path fill="#f39b96" d="M318.964 420.888l-47.225-90.014-45.98-65.29 50.528 79.692" />
      <path fill="#ffefed" d="M160.91 353.816l39.377 57.022-5.557-61.587-35.988 42.72" />
      <path fill="#e7d8d7" d="M37.805 86.368l195.52 1.205-38.77-6.565-74.21.768" />
      <path fill="#cecfd0" d="M650.99 459.332l65.08 34.27-25.907 8.978-24.377-57.518" />
      <path fill="#fff" d="M901.274 361.595l48.143-6.42 53.123 54.2 34.22-102.128" />
      <path fill="#9a9a9b" d="M601.908 221.37l20.99 21.714 11.414-9.33-34.36 1.744" />
      <path fill="#a93f3a" d="M212.518 403.637l5.958 1.38 18.31-6.426-105.974.755" />
      <path fill="#293fac" d="M896.65 395.297l.178-6.757 12.756-32.584-22.347 26.465" />
      <path fill="#fff" d="M182.09 535.806l102.95-76.84L226.482 543l-27.535-53.654" />
      <path fill="#fd827d" d="M296.23 324.44l-5.793-5.176-40.074-62.225-14.408-26.8" />
      <path fill="#ffbcb7" d="M166.573 161.073l28.632-16.887 6.1 15.356-44.816-9.305" />
      <path fill="#556969" d="M165.517 499.527l48.226-1 23.1-8.08-1.397 1.057" />
      <path fill="#443b68" d="M900.02 92.94l-19.335-15.523 34.69.36-27.825 60.956" />
      <path fill="#faf8f5" d="M304.112 248.464l13.515 29.204-68.665-85.628 12.77 8.123" />
      <path fill="#fcffff" d="M309.118 190.985l-75.054-61.912 70.71 38.93-58.103-54.244" />
      <path fill="#ff8781" d="M214.756 369.103l20.094-5.458-61.288-.24 46.95 6.16" />
      <path fill="#d17422" d="M746.76 99.045l-28.513 25.73-25.986 57.913-.41-26.153" />
      <path fill="#1cd34b" d="M826.17 108.924l2.45-12.37 20.317 2.103-16.877 22.476" />
      <path fill="#1f0000" d="M196.173 106.79l26.492.973 17.224 3.816-2.53-9.344" />
      <path fill="#fffffb" d="M304.17 295.364l-30.315-36.905-45.06-66.498 75.417 94.067" />
      <path fill="#fcffff" d="M192.864 311.326l29.916-5.54-103.695-.705L-31 307.954" />
      <path fill="#f0635d" d="M197.85 103.467l-62.878.937-32.9-2.31 79.87-.847" />
      <path fill="#a88080" d="M11.037 408.51l74.814 2.183-11.142 8.545-37.097-3.492" />
      <path fill="#ff2104" d="M928.954 427.685l-16.627-9.776 15.655 15.004 36.132-11.434" />
      <path fill="#f8fcfb" d="M450.146 29.636l16.864 24.208-38.303-30.753 145.61-.417" />
      <path fill="#211ecf" d="M925.077 387.544l-12.455 4.28-6.822-13.558 22.71 11.23" />
      <path fill="#a7a6a7" d="M598.947 207.44l-7.675 3.476 32.796-8.655-11.132-11.016" />
      <path fill="#687372" d="M137.23 499.69l14.817 2.234-6.523-11.588-25.405 12.18" />
      <path fill="#fff" d="M787.21 344.6l13.345-10.457-22.172 5.248-4.782 10.353" />
      <path fill="#8bbd8b" d="M913.2 452.013l-20.396 33.568 53.012-27.372-63.784-64.25" />
      <path fill="#a2af9f" d="M812.044 401.63l-30.864 4.812-1.65 16.116 93.433-13.35" />
      <path fill="#211a16" d="M306.5 264.068l-.998-22.317.306-92.25 1.018 43.953" />
      <path fill="#fff" d="M304.934 84.163l-61.564-7.83L237.804-31h66.686" />
      <path fill="#fcffff" d="M157.428 263.772l24.94-8.548-176.38.012 17.52 7.183" />
      <path fill="#fff" d="M60.478 279.3l-69.96-5.624 42.058-4.77 122.778-2.375M28.18 301.008l191.63-11.726-112.54-.32-132.91 3.598" />
      <path fill="#fffbf7" d="M29.306 186.808L-31 205.624l64.793-12.143-3.608-67.837" />
      <path fill="#f8f4f7" d="M904.582 175.235l-10.024-8.094 38.814-7.268 75.886-126.8" />
      <path fill="#ffa49e" d="M265.585 318.584l-99.594-5.807 85.276-12.246-76 3.82" />
      <path fill="#000401" d="M64.47 473.803l128.86-1.164-33.383-1.3-1.113 8.444" />
      <path fill="#727374" d="M415.245 53.34l-1.36 5.277-.545-7.346.206-82.27" />
      <path fill="#fff" d="M853.084 84.454l29.375-19.497 159.417-9.183L837.304-31" />
      <path fill="#cf807c" d="M127.882 281.153l-51.565-3.092-2.405 14.23 1.52-9.15" />
      <path fill="#f57973" d="M304.893 190.586l.156 2.487-66.126-53.203 39.863 28.923" />
      <path fill="#edeeeb" d="M843.537 67.806l-20.244-7.986L839.43 82.9l42.51-93.282" />
      <path fill="#ff5957" d="M802.276 331.403l4.918-7.04-12.215-3.63-15.607 1.48" />
      <path fill="#b9bbba" d="M915.592 425.677l-7.197 10.488-81.236 60.332 5.934-38.762" />
      <path fill="#fff" d="M271.5 285.968l-34.27-64.36 13.31 21.534 53.835 84.266" />
      <path fill="#f0fefe" d="M16.4 459.4l-1.414 51.443-36.04-61.362 121.962 8.05" />
      <path fill="#d25b58" d="M72.176 24.464l73.75-2.562 8.82.705 106.827 2.35" />
      <path fill="#c9cfce" d="M319.94 146.6l12.397-75.19.29 93.03-.167 72.482" />
      <path fill="#f8837f" d="M248.112 228.538l-5.114 19.878-1.727-34.537 60.185 83.512" />
      <path fill="#fff" d="M855.44 129.092l-8.483 1.035-40.314 118.086 6.66-78.03M725.406 219.44l23.88-63.577-42.66-4.91-26.014 62.928" />
      <path fill="#7cbf7b" d="M946.95 193.15l-6.77-4.723-24.9-2.22-17.597 27.225" />
      <path fill="#6b6d6d" d="M541.4 53.593l35.93-.597-17.398 2.21-73.384-1.64" />
      <path fill="#c2c4c5" d="M703.398 221.173l17.693 6.14-28.36 4.833-21.556-33.47" />
      <path fill="#b01b13" d="M24.55 379.268l-11.677 3.395 143.396.368-77.516-2.858" />
      <path fill="#45433c" d="M783.236 60.71L768.5 69.447l67.196-10.752-7.974 9.637" />
      <path fill="#929394" d="M345.457 320.2l-.86 62.95 2.277 27.068.022-198.543" />
      <path fill="#fb8782" d="M128.682 201.916l119.35 1.232.387-2.137-74.587-2.236" />
      <path fill="#fff" d="M9.17 538.327l20.177-47.125 63.165 38.56-6.9-41.287" />
      <path fill="#560b05" d="M236.022 106.197l-33.88 7.246-1.908-10.383 42.528-1.984" />
      <path fill="#accecf" d="M37.654 12.05L36.45 17.78l-4.562 4.707 224.272-.72" />
      <path fill="#d25550" d="M205.245 40.278l39.15-2.745-143.17-.71 15.756 2.2" />
      <path fill="#cfcbd0" d="M817.098 334.21l8.097 21.362-56.48 29.995 32.887-7.546" />
      <path fill="#a6a8a8" d="M446.518 25.694l1.586 42.065 2.265-55.522-.566 2.664" />
      <path fill="#6d6f6f" d="M327.1 14.705l96.167-.78-125.432-2.067 13.98 5.612" />
      <path fill="#656861" d="M849.867 70.88l-9.115-2.618-13.276-16.083 1.71-3.505" />
      <path fill="#f02422" d="M926.515 356.503l-19.808 23.74-4.93 10.882-1.4-15.294" />
      <path fill="#fe231c" d="M196.034 88.276l15.12.428-112.24.24 35.756-1.91" />
      <path fill="#5c4867" d="M840.155 350.15l28.838 3.49-39.723 49.55 39.885-14.288" />
      <path fill="#fff" d="M798.162 375.42l2.94-22-49.67 69.09 22.78-67.65" />
      <path fill="#aeb1b3" d="M347.864 146.57l-2.452-38.4-.467 96.84 4.002-24.067" />
      <path fill="#f8f7f9" d="M836.228 134.187l29.333 55.504-52.837-24.713 50.01-33.95" />
      <path fill="#fffffc" d="M243.54 299.394l-8.926-11.044 54.614 107.843 8.826 9.628" />
      <path fill="#fff" d="M41.486 408.008l149.546-6.717 78.02 11.783-39.243-3.99" />
      <path fill="#504e4d" d="M904.353 124.957l-26.14 14.656-37.815-19.646 14.764-4.634" />
      <path fill="#fa5852" d="M260.78 298.745l29.393 50.214-16.102-24.974-34.765-57.78" />
      <path fill="#fff" d="M926.87 260.22l-63.205 87.793-32.623-96.504 53.972-47.91" />
      <path fill="#aeb0b0" d="M752.444 342.444l-3.752-8.996-24.907-3.854-18.513 2.536" />
      <path fill="#fcfbfd" d="M751.765 151.372l51.3 8.557-83.867-25.767 93.39-52.874" />
      <path fill="#fffcfd" d="M915.43 380.834l18.596-.474 17.947-13.74-33.366.022" />
      <path fill="#feffff" d="M344.844 135.19l-.43 328.12-10.416-39.133.813-375.32" />
      <path fill="#f22d25" d="M147.083 305.018l-127.52-1.73 177.444-.132 46.546 1.402" />
      <path fill="#aeafae" d="M428.668 382.56l1.17-227.384 5.116 161.298-4.008 173.538" />
      <path fill="#acabac" d="M480.72 316.988l4.08 103.71 1.13-94.56-2.478-128.375" />
      <path fill="#f4f5f3" d="M112.475 317.497l181.42 4.302-100.66 1.365 54.217-8.767" />
      <path fill="#e37671" d="M24.534 85l-6.75 7.55-.868-13.146 52.824-.737" />
      <path fill="#fff" d="M44.498 488.41l-67.277 13.283 219.692 1.73L44.995 529.49" />
      <path fill="#a8a8a8" d="M633.622 229.484l26.375 56.082-20.102-33.352 7.393-52.96" />
      <path fill="#afb0ae" d="M512.96 332.79l-2.766 37.093-4.606 88.28-1.25-276.19" />
      <path fill="#2636cf" d="M865.464 84.288l3.582-12.027 11.614-6.618 11.072 20.126" />
      <path fill="#b9c8b9" d="M951.94 149.684l18.446 26.466-6.632-48.03-11.894.392" />
      <path fill="#a0a1a1" d="M481.376 64.628l.475-34.89 1.932-20.99 2.058 20.69" />
      <path fill="#eceae9" d="M203.737 495.253l-12.446-21.218L207.483 543l-16.554-15.316" />
      <path fill="#acaeaa" d="M464.86 215.06l4.264 122.026-.353 125.77-7.502-127.986" />
      <path fill="#606d44" d="M894.136 431.255l-9.102-22.148 28.124 12.045 15.57-10.46" />
      <path fill="#e5e7e7" d="M523.067-3.13l1.688 26.194L540.74 25l-14.838 25.314" />
      <path fill="#f6faf9" d="M66.765 125.708l143.788 3.646-101.82 10.514L-31 134.14" />
      <path fill="#b0b0ae" d="M548.023 350.978l2.205 123.26 5.424-78.994-2.55-237.334" />
      <path fill="#7e4e4a" d="M714.487 404.6l.902-16.92 31.795-2.315 8.128-12.926" />
      <path fill="#d98580" d="M307.678 283.81l-3.132-33.04 2.55 39.088-49.143-66.332" />
      <path fill="#5c0100" d="M85.705 147.623l-57.386-.03 26.278 9.247 18.608-.35" />
      <path fill="#f5ffff" d="M122.963 427.555l-49.5-14.91 47.81 2.033 152.568-2.294" />
      <path fill="#fff" d="M731.952-31L574.942 82.538l1.9 124.65 165.493-116.52" />
      <path fill="#f85852" d="M244.614 81.023l17.72 6.2-119.674.446 106.143 1.848" />
      <path fill="#ff6669" d="M790.948 63.588l-3.273-11.06-1.147-.733 26.854 8" />
      <path fill="#fafbf8" d="M305.606 204.968l-53.302-53.203 1.41 8.59 54.005 47.882" />
      <path fill="#ee8583" d="M30.93 194.097l-19.625-12.9 182.8 1.503-174.567 2.57" />
      <path fill="#f77e78" d="M21.5 314.724l12.066-3.043 5.96-7.56-27.097-6.594" />
    </g>
  </g>
</svg>