<svg version="1.1" viewBox="0 0 1024 512" width="1024" height="512" xmlns="http://www.w3.org/2000/svg">
  <g fill-opacity=".5">
    <path fill="#050606" d="M872 455l47 29-11-14v1" />
    <path fill="#fff" d="M17-31l-48 574 66-45-8-212" />
    <path d="M124 369l10 4 5-1-24-26" />
    <path fill="#060606" d="M96 380l1-32 4-14 8 20" />
    <path fill="#fff" d="M200 457l184 86H6l198-193" />
    <path fill="#3789c8" d="M818 429l-27 4 6 12 16-3" />
    <path fill="#fcfcfc" d="M128 341l-14 105 13-96-27-10" />
    <path fill="#7bcf9f" d="M923 218l27 2-28-26-19 22" />
    <path fill="#fff" d="M562 88l-70 18 195 91-77-9M367 415l4-89 202 31-214-85" />
    <path d="M452 419l-25-8 4 13 143-11" />
    <path fill="#a475b8" d="M927 384l-2-5-10 23 63-20" />
    <path fill="#ff4c0e" d="M303 222l-11 23-30 16 32-43" />
    <path fill="#fff" d="M1007 543l48-332-49-242v223m-675-6l-69 63-32-99-5 110" />
    <path fill="#ffaf57" d="M375 484l37-6-11 20-18-1" />
    <path fill="#292a2a" d="M763 51l30 11-32-19-29-21" />
    <path fill="#979094" d="M956 300l-136-6 133-3 61 2" />
    <path d="M694 455l8 7 39 26-40-37" />
    <path fill="#060606" d="M552 481l-32-21-6-4 27 25" />
    <path fill="#9763ac" d="M754 394l-6-16-11 8-5 23" />
    <path fill="#9866ad" d="M692 502l30 21-54-38 24-9" />
    <path d="M655 52l35 2 142 6-182 2m-80 135l-12 5 114-1-20-4" />
    <path fill="#fff" d="M313-31l742 33-28 43-570-26M21 99l331 55 98-131 11 29" />
    <path fill="#aa82bc" d="M858 480l-13 3 3 21 58-32" />
    <path fill="#fff" d="M711 278l94-1-79-17-181 14" />
    <path d="M744 422l-123 1 97-10-22-18" />
    <path fill="#f9f9f9" d="M262 346l-43 19 70-26 11 12" />
    <path fill="#6f6d6e" d="M1003 316v19l-124-12 96-6" />
    <path fill="#fff" d="M705 101l-10-29-15-6 268-6" />
    <path fill="#757374" d="M905 110l61 20-50 3-29-22" />
    <path fill="#fff" d="M630 415l85-117 8 110-88-64" />
    <path d="M42 319l4 64-14-39 1-33" />
    <path fill="#fff" d="M803 322l127 35-71-61-32 55" />
    <path d="M886 395l17 24-135-4 149 9" />
    <path fill="#fff" d="M584 303l-60 23-151 16 176 55" />
    <path fill="#0c0c0c" d="M201 351l7 29 5-59-31 42" />
    <path fill="#fff" d="M119 213L87 358l22-44 114 19" />
    <path fill="#3b88d1" d="M135 190l20-37 110-10-61-8" />
    <path fill="#a2aaba" d="M168 239l16-9-9-72-6 40" />
    <path fill="#fff" d="M667 500l25-40-160-1 67 83" />
    <path fill="#65a5d5" d="M922 448v-19l-51 3 78 25" />
    <path fill="#fff" d="M1055 277l-164-68-227-7 207 68" />
    <path fill="#010101" d="M271 334l38 2-45-5-2 63" />
    <path fill="#6f8fc1" d="M635 430l-38 1 36 15-24 97" />
    <path fill="#fff" d="M73 321l9 17-36 1-2-12" />
    <path fill="#64dc93" d="M591 277l-34 8 63 8 49-13" />
    <path fill="#b18cb0" d="M726 195l-55 77v-44l53-3" />
    <path fill="#fff" d="M209 186l6-49-45 108 34 17" />
    <path fill="#fffffe" d="M122 231l-16-47 44 69-7 124" />
    <path fill="#fff" d="M125 186l39-37L537-31-31 38m64 225l41-13-36-102 42 13" />
    <path fill="#969696" d="M976 423l-69-5 148-3-69 8" />
    <path fill="#fff" d="M636 453h60l-4-30-59 1M85 248H65l54-46-37-36m601-67h-92l81 63 291-65" />
    <path d="M365 334l-27-1 12 5-31 40" />
    <path fill="#1b1b1a" d="M521 404l40 15-46-29 9 15" />
    <path fill="#fff" d="M298 226l8 149 1 9 7-67" />
    <path fill="#87529e" d="M707 101l-10 33-1 8 6-4" />
    <path fill="#7d4694" d="M531 500l-15-8 23-21-6 23" />
    <path fill="#64dd99" d="M770 279v9h25l48-13" />
    <path fill="#fff" d="M112 251l76 105 19-37 16 23" />
    <path fill="#1ec092" d="M396 167l2 86 13-58-5-44" />
    <path fill="#676566" d="M997 137l8-22-120 5 100 6" />
    <path d="M161 344l1 24 7 5-3-44" />
    <path fill="#fff" d="M937 195l-113-17-144 6 52 14" />
    <path fill="#808181" d="M431 95l17 2 85-4-37-3" />
    <path fill="#050505" d="M304 329l-72 10-7-8 65 6" />
    <path fill="#98858c" d="M511 294l153 6 63-7-73 1" />
    <path fill="#fff" d="M872 337l-244 5 109-48 9 29" />
    <path fill="#ff5219" d="M387 133l-51 48-16 17 12-32" />
    <path fill="#fff" d="M796 155l38-22h163l24 46m-107-71l-3 10 97-6-21-16M409 405l1-215 4-221 27 150" />
    <path fill="#ffac5b" d="M278 471v-13l-1 40 64-3" />
    <path fill="#fff" d="M319 346l3 39-5 2 20-48m652 59l-19-93-8 146-48-2" />
    <path fill="#fff" d="M425 423l47-48-252-2 245 145m3-282l22-87-30 74 277-5m2 81l316-1-40 19-80-1" />
    <path fill="#fff" d="M378 518l141-94h-46l5 88" />
    <path fill="#020202" d="M579 89l151 4-135 4-20-7" />
    <path fill="#fff" d="M417 327H308l-182 3 199-95" />
    <path fill="#fff" d="M237 365l22-3 13-78 3 21M68 346l-25 3 40 194-114-98" />
    <path d="M267 353l-6 15-55-5 66 10M64 314l-31 17 4 51-1-68" />
    <path fill="#fff" d="M782 54l226-1 47-51-361-5m-28 368l4 10 48 40-121-2m311 2l-179-5 33-16 91-5" />
    <path fill="#030303" d="M147 329l-2 8 10 35-1-39" />
    <path fill="#fff" d="M724 459l91 1 71 71-125-7" />
    <path d="M319 371l-1-46-7 22 2 30" />
    <path fill="#fff" d="M368 246l27-1-4-73-9-25" />
    <path fill="#b997c8" d="M802 374l-11 2 55 8-50 13" />
    <path fill="#919191" d="M431 451h-11l28 8 67-7" />
    <path fill="#33d6ea" d="M374 164l-15 20 2 60 9-28" />
    <path fill="#a06faf" d="M624 506l-4-7-6 7 13-35" />
    <path fill="#fff" d="M478 180l204 12-211 5-71-8" />
    <path fill="#9d71b0" d="M799 497l8 6 9-41-18 44" />
    <path fill="#feffff" d="M201 345l-36 70h395l-354-16" />
    <path fill="#fff" d="M155 370l1-121 6 119-70 87" />
    <path fill="#7bdea0" d="M691 215l-104 5-31-13 56-3" />
    <path fill="#fff" d="M171 161l39 106 1-108 15-15" />
    <path fill="#4990d3" d="M388 259l33 12-45 1-41-26" />
    <path fill="#fff" d="M415 372l-206 56 7-150v131m341 20l50-19-2 35-47 7M747 50l-279 2 19-39-2 28" />
    <path fill="#ff490d" d="M316 181l3 7 75-53 17 3" />
    <path fill="#ff4408" d="M255 267l15-15-69 16 23 7" />
    <path fill="#fff" d="M585 111l127 45-316 4 65-64" />
    <path fill="#a0959c" d="M580 298l-157-2 18-6 79 5" />
    <path fill="#fff" d="M822 470l1-31 158 9-149 3M-31 315l98-82-73 38 207 30" />
    <path fill="#a48bad" d="M707 237l35-41 50 5-79 7" />
    <path fill="#488fd2" d="M230 135l26 6 20 13-100-12" />
    <path fill="#121313" d="M394 330l18 6-19 5 4 2" />
    <path fill="#fff" d="M914 400l44-101-26 46-172 19M522 84l11-71 242 44-226-88m445 570l61-39-191-16-12 59" />
    <path fill="#7d7b7c" d="M446 29l-14 19 9-32 88 19" />
    <path fill="#5ba9c1" d="M573 245l-1-39-3 71 6 16" />
    <path fill="#7db2dc" d="M570 355l15 21-18-35h108" />
    <path d="M91 337l-11-31v37l-50-2" />
    <path fill="#262627" d="M813 459l34-2 1 4 7-10" />
    <path fill="#fefefe" d="M542 199l-11-33-9 32 60-38" />
    <path fill="#949494" d="M858 61l121-8-3-1 41 7" />
    <path fill="#353334" d="M449 174l-14-2 7 13-5-24" />
    <path fill="#fff" d="M309 523L108 353l-5 88-18-78m136-103l18-114 125 143-98-130" />
    <path fill="#24c093" d="M216 237l-8-61 15-17 3 15" />
    <path fill="#5093da" d="M42 257l-20 10v10l41-9" />
    <path fill="#b48fc4" d="M922 543h21l-17-47 16-30" />
    <path fill="#a076b2" d="M664 40l-8 1 7-28 1-5" />
    <path d="M149 350l-30 3 24 21-38-21" />
    <path fill="#fff" d="M891 247l-206-28 33 54-33-42m-338-84l68-18L137-31l174 221" />
    <path d="M881 450l126 5-105 5-31-7" />
    <path fill="#080808" d="M894 397l-4-1 23 23-36-24" />
    <path fill="#9a898a" d="M250 171l-1 2h16l1 69" />
    <path fill="#fff" d="M381 478l-91-126 32 25-159-4m777-177l37-86-4 27 82 59M351 341l-23 16-39-100 37 86" />
    <path fill="#ff5822" d="M161 241l61 38-77-36-50-75" />
    <path fill="#fff" d="M606 314l-29-17 88 1 259 7" />
    <path fill="#a881b9" d="M615 397l-5 19 4-38 7 6" />
    <path fill="#ff827b" d="M756 262l-18-28-6 30-16-22" />
    <path d="M512 452l-16 3 123 1-66-4" />
    <path fill="#fffefe" d="M953 103l-40 78 17-64v59" />
    <path fill="#fff" d="M996 461l34-14-45 36-92-22" />
    <path fill="#ff5e5c" d="M769 323l-13 4-13-16 21-3" />
    <path fill="#1b100d" d="M692 208l-2-10-4-8-31-14" />
    <path fill="#fff" d="M307 497l212 1 259 10-726 35" />
    <path fill="#898a8a" d="M439 197l4 6 148-7-96 2" />
    <path fill="#010000" d="M742 460l-44-3-20-3 146-3" />
    <path fill="#fff" d="M879 90L648 65l400-5 7 29M488 317l105-20-38 83-180-18" />
    <path fill="#020202" d="M770 56l14 6-14-15-27-14" />
    <path fill="#a598a0" d="M852 295l-141 5 7 3-1-12" />
    <path fill="#010101" d="M191 359l20-31-30 35-21-36" />
    <path fill="#fff" d="M1039 331l-113 84 78-1 16 129" />
    <path fill="#4894d5" d="M96 251l22-21-2-16-38 48" />
    <path fill="#fffffd" d="M356 175l-46 29 65-51 81-11" />
    <path fill="#fff" d="M657 85l-4-26-99 6-3 25" />
    <path d="M631 203h67l-19-7-92 2" />
    <path fill="#fff" d="M247 463l-77-116-1 25 98 2m153-96l-81 86 27-2-2-86" />
    <path fill="#fbffff" d="M631 227l-3-19-5 17 3 132" />
    <path fill="#fff" d="M-31 442l129-56-3-44-35 15" />
    <path fill="#ff9122" d="M67 184l6-20 10 58-12 16" />
    <path fill="#9a9697" d="M690 200l131 4 80-5-115-2" />
    <path fill="#7e7c8d" d="M658 269l-1 19 4-111 1 96" />
    <path fill="#fff" d="M259 329l-4 117 23 55-3-20" />
    <path fill="#faffff" d="M616 202l-15 101-1-66 19 28" />
    <path fill="#1a1a1a" d="M289 353l-16 1 31 19h5" />
    <path fill="#fff" d="M706 293l64-6-81-31 1 27" />
    <path fill="#0d0d0d" d="M215 386l6-54h32l-24 7" />
    <path fill="#fff" d="M298 331l122-2-342-68 18 70" />
    <path fill="#1472c5" d="M610 271l-2-16 1-32 2 32" />
    <path fill="#605f5f" d="M897 309l24 26-16-29-13 28" />
    <path fill="#509ab7" d="M599 283l-2-17-3 9 3-93" />
  </g>
</svg>