<svg version="1.1" viewBox="0 0 1024 512" width="1024" height="512" xmlns="http://www.w3.org/2000/svg">
  <g fill-opacity=".5">
    <path fill="#7ea073" d="M131 235.4l64.4 1-20 6.5-46 7" />
    <path fill="#5d707a" d="M85.4 227.2l-36-1.8 64.2-20V151" />
    <path fill="#943d2c" d="M875.5 170.8l34.2 50.3-20.8 6-32-97" />
    <path fill="#fffae5" d="M835.6 297l-2.3 52.5 27.4-42-19-15.7" />
    <path fill="#d2c3d3" d="M942.2 119.4L917.4 91l4.8 60.7 132.8 40" />
    <path fill="#ffffeb" d="M641.2 300.5l56.5 2.8-29-.8 26.8-27" />
    <path fill="#c8e1f2" d="M759.6 327.5l-2.4 44.3-53.8 8.2 41-52" />
    <path fill="#dde5f0" d="M825.3 360.3l-36-37.3 21.6-26-7 46.2" />
    <path fill="#476d7b" d="M187 159.2l7 21-16-54.4-28.3 40" />
    <path fill="#00639f" d="M661 474.8l-44.4-7-6.4-46.8 1 55.5" />
    <path fill="#fff" d="M341 503.5l305.3 9.3L128 515l96.7-10.3" />
    <path fill="#bf282b" d="M634 140.7L616 39.5l1 78.5 14.5-26.6" />
    <path fill="#e1110f" d="M647.6 29.2l30.7 14.3 5.3 3.5 20 55.2" />
    <path fill="#e5b289" d="M269.3 341l-5.6-23.3-27.5-48 6 86.3" />
    <path fill="#675b0a" d="M644.8 298.7l40.4 14-67.3-3.2 33-25.6" />
    <path d="M289.4 304l-1 9.6 16.2-4 4.3-6.6" />
    <path fill="#fff" d="M1035 235.4l20 276-266.3 27 57-182.5" />
    <path fill="#ff8a05" d="M97.8 389.5l3.6 36.6 50.4-2-55.6 7" />
    <path fill="#bba711" d="M633.3 155.2l25.3-29.8-.5-26-10 117" />
    <path fill="#fbf9f2" d="M445.4 383.5l12.7 9.2 8 9.8-95-4.7" />
    <path fill="#fff" d="M85.3 429.7L-17 476.3l310.4 15.2 6-61.5" />
    <path fill="#0067a0" d="M553.2 394.7L574 365l.8 31.3 18 75.6" />
    <path fill="#103240" d="M358.5 389.6l49.3-18.5-13 19-21.8-19" />
    <path fill="#134f65" d="M752.7 194.7l8.6 188L737 396l44.2-60.6" />
    <path fill="#84a98a" d="M196 451l8-31.8 17.5-31.3-18.3 81" />
    <path fill="#fff" d="M798 161l-8.8 35L801-2.7 668.3 34" />
    <path fill="#bf3b39" d="M604.5 71l4-14.2L619 74.6l-39 23.6" />
    <path fill="#596164" d="M436.2 363.8l-37.6-19 32.5 70.5-26 4.7" />
    <path fill="#fff" d="M764.8 418.8l-92.8 3.5L740.7 543 1055 312.4" />
    <path fill="#291808" d="M104.3 170.7l7.8 2.2-13 55-2-8" />
    <path fill="#fff" d="M642.8 281L272.4-31l323.2 515.4-168 58.6" />
    <path fill="#f6ffff" d="M170.2 136.8l24.6-15.5-71.8-3-26.5 23.2" />
    <path fill="#6e4872" d="M892.8 117.3l-14 1.3 74.5-17L942 119" />
    <path fill="#5b8048" d="M677.3 221l-18.7-6.8 74.7 126L670 226.6" />
    <path fill="#0d561c" d="M705 92l40 41.3-9.5-25.7-14.7-20.2" />
    <path fill="#116b99" d="M602.8 420.5l-27.5-55 87.6 2.8-72 .2" />
    <path fill="#307232" d="M764.8 235l-47.2-42 39.8 11.4L702.6 352" />
    <path fill="#6e296e" d="M950 73.8l23.5-15.2-40.7 41.6 47.5 24.8" />
    <path fill="#66126c" d="M909.6 81.4l-29.2 40L887 88l-75 4" />
    <path fill="#a96f6c" d="M170.5 232.3l9.8 25L177 201l21 13.7" />
    <path fill="#685d1f" d="M597 241.7l34-9.7-16.3 1.2 25.2 29.2" />
    <path fill="#fcfef1" d="M720.6 219.6l-20.2-7.2-15.5 43.2 13-14.3" />
    <path fill="#01466b" d="M671.6 468.2L659 391l-22.5 8.2 40 22.3" />
    <path fill="#7f0e0f" d="M631.2 138l15-35.3-32.6 21.5-5 20" />
    <path fill="#ffeadc" d="M779.4 312.3l14-40-28.3-4 11-34.2" />
    <path fill="#fff" d="M108.3 420.8l78-239.5-75.2 120L200 425" />
    <path fill="#1a6c9d" d="M625.7 410.5l-14.5-50.2 45.5 5.5-34.7 8.6" />
    <path fill="#e05036" d="M106.3 27.8l3.4.4-13.4 9 2.8 64.3" />
    <path fill="#f6faf7" d="M303.2 338.3l144 36-144-21.7-92.5 9" />
    <path fill="#959595" d="M146.5 470l-1-33.4 13.7 10-.8 21" />
    <path fill="#7a701b" d="M736.4 340.8L715 362.5l13.4-51 9 15.2" />
    <path fill="#000002" d="M772.3 165.8l22.7-13.6 17.5-9-34.7 9" />
    <path fill="#5b7c4b" d="M335.5 371.2l-54-8.8 18.7-12 51 54" />
    <path fill="#d7dfc1" d="M653 146.3l70-7 8.4 37.6-66-21" />
    <path fill="#9b9a9b" d="M257.8 472.5l-11-11.8 9.5-24.5 7.3 12.3" />
    <path fill="#fff" d="M31.6 227.2l2 315.8 42-554.5L34.3-31" />
    <path fill="#772f00" d="M855.5 280.3L833 293.8l-22-24.2 51.8 4.7" />
    <path fill="#a1a8ac" d="M46.7 369.7l1.7-.4 11 17 51.2-11.6" />
    <path d="M295 428.5l-14.8-.8 35-15.8h-33.5" />
    <path fill="#ab231f" d="M582.7 43L619 65.5l-54.7 15L614.6 29" />
    <path fill="#f1f7e7" d="M668.2 361.5l29 15 36.3 3.3-51-40.5" />
    <path fill="#0f7225" d="M655 168l66 9-2 1.7-39.8-22.2" />
    <path fill="#aca4b0" d="M357.5 397.5l-7.4 79.8 14-8v-71" />
    <path fill="#fff" d="M249 372.7l-140.7 48.8L218 213.3l-8 34.5" />
    <path fill="#e7c908" d="M758 174.8l-42.8-43 22-6.6 12.5 24.5" />
    <path fill="#fffffe" d="M191.8 414l50.4-5 95.3-46-78 9.6" />
    <path fill="#fff" d="M97.6 214.2L92 142l15 17-86.4 51.4" />
    <path fill="#fbf8fd" d="M832.7 100.7L812.2 137l73.6-.5 5.3 37" />
    <path fill="#c6590b" d="M874.7 326.7L860 347l-26-13.6-29 29.6" />
    <path fill="#928992" d="M54.2 272.2l28.5-4.2 22.2 9-59 2" />
    <path fill="#ece7e6" d="M679.3 88l-44 14.2-3.2-59.5 46 22" />
    <path fill="#912112" d="M684 109l11 24.2 51.6-7.6-73 21.4" />
    <path fill="#757374" d="M32 135.6l1.4 4.5-13.2 80v-93" />
    <path fill="#96a3a1" d="M59.3 318l53.7 8-36.3 5-29 .5" />
    <path fill="#fff" d="M986.3-31L120.7 44 630 25.8l267.8 59.8" />
    <path fill="#073f78" d="M890.3 251.2l-8 20.2 4-44.2-43-61.4" />
    <path fill="#0e264d" d="M793.6 204.7l55.2-23.5-62.6 2.4-8.7 58.3" />
    <path fill="#7f9485" d="M116.4 124.2L66.7 122l-9.4-2.4 16.3-9.7" />
    <path fill="#cfb314" d="M733 200.8l-39 72-87.4-25 115 3" />
    <path fill="#00487a" d="M679 447l-60.5 30.5-29.6-17.8 65 16" />
    <path fill="#fff" d="M-31 543h220.6l9.3-52-230-144.8" />
    <path fill="#5c9dc6" d="M667.2 466.5l-30.8-5.5-2.3-54.8 12 54.3" />
    <path fill="#dae8ea" d="M727.2 254.6l19.4-40-12.4 43.5-8.2-12" />
    <path fill="#3f9122" d="M98.5 129.4h11.7l-13.5-49 5.8 102" />
    <path fill="#8c4415" d="M801 306.2l-11.7-11.4-22.7 17.4 14 10" />
    <path fill="#cfd3d9" d="M813 250l-16.6.8 15.4-35.7-24.2-4" />
    <path fill="#562b58" d="M834.4 90.5l-25 22.4 31-18 16 55" />
    <path fill="#d6cf6a" d="M590.8 180l37.3 11.6-33 4 30 28.4" />
    <path fill="#fffffe" d="M355.4 432l165-5.8 48.3-67-40 93.2" />
    <path fill="#feffff" d="M638.7 194.2l-8.5-54.3-62.6 11-20.2-63" />
    <path fill="#d6f1ff" d="M681.8 323.2l30.4 5.6-24.7-28.4 26.4 10.3" />
    <path fill="#fff" d="M628 370l26.6 86 2.6-46.5-30.4 11.5" />
    <path fill="#80a47d" d="M252 235.5l-4.7 16-34.6-5.5-2.6-5.3" />
    <path fill="#ebe1dc" d="M689.4 408.8L671 404l21-10 35.8 9.8" />
    <path fill="#d57628" d="M876 253l-34.7-24.6 11.2 13.4 24.4-16.4" />
    <path fill="#9c9b9d" d="M295.7 462.6L308 470l2.5-.3.7-35" />
    <path fill="#f9faea" d="M667 246l-8.7-75 17.6 15.3-57 59.7" />
    <path fill="#fff" d="M566.2 543l-64.4-136.4 165.3-142-125-13" />
    <path fill="#142e42" d="M320.7 289l16.3 11-11.3-57 2.6 41" />
    <path fill="#4b5217" d="M201.4 240l6.3-21.5 14-47.8-17.4 5.2" />
    <path fill="#fff" d="M259.5 338.5l-16-169.6L290 298l-28 7.4" />
    <path fill="#d98d47" d="M516 421.7L495.8 432l4-2.6-36-2" />
    <path fill="#000b0d" d="M458.3 378l-111-107.3-24.5-16.2L483.3 414" />
    <path fill="#7a797a" d="M421.5 504.3l6-12.3-20.3-1-105.6 3" />
    <path fill="#b6aaac" d="M62.2 58.8l-4 17.7 64.2-13-12.8 1.2" />
    <path fill="#081214" d="M231.4 150.2L119.7 48.5l107.6 111 57.2 54.2" />
    <path fill="#fff" d="M754 163.4l9.6 5 79.7-113-123-21.8" />
    <path fill="#fffeff" d="M849.4 111.2l32-8.2 7.8-10-31-2.5" />
    <path fill="#5e501a" d="M453 421l-3-15.4-41.5 16L414 408" />
    <path fill="#3fab4d" d="M208.8 407.4l8 21.5-51-3 34.5-5" />
    <path fill="#a4d38a" d="M247.2 378.6L214.4 394l7.7 16.5 20-51" />
    <path fill="#fff" d="M806.7 365.5l-45 10.3 53 125.6L1016 543" />
    <path fill="#9c514e" d="M646.8 38l-6.2 3-.4 15.3 2.2 20" />
    <path fill="#d1e3ea" d="M170.6 150.4l27.4-.2 19.3 5.7 4.4 18" />
    <path fill="#6c3371" d="M880.6 130.8l-5-18-11-41.8 12.6 32.8" />
    <path fill="#0578c1" d="M755.3 399l-4.4-14.6-107-14 41 17.8" />
    <path fill="#93b7c8" d="M439.4 370.4l-90.3 5 55-35.7-3 17" />
    <path fill="#4ea6d1" d="M96 287l2.8 125.2 5.3-84 1-26.7" />
    <path fill="#a25114" d="M805.7 356.3L779 366.7l52.4 5.6 25-5.7" />
    <path fill="#011c24" d="M410.4 367l14.6-11 1.3-11.6-22.6-19" />
    <path fill="#005994" d="M833.4 310.4l-50.2-84.8 13 55 31 56.6" />
    <path fill="#fbfefb" d="M231.5 375.7l1.3-142.7 89.5 23.6-95-73.3" />
    <path fill="#fff259" d="M265.3 399.8l.7 2-27.2 25.4 35 1.3" />
    <path fill="#e1ecf3" d="M791.7 224l74-12-3.8-17.3-51 4.6" />
    <path fill="#4a56b4" d="M342.6 430l-12.4-2.6-5.4-3.3 126.7 2" />
    <path fill="#fff" d="M100.7 268l47-58.4 73.8-19.7-100.8-31" />
    <path fill="#fefcfa" d="M657 384.8l-37 23.8 13 51.5-8.3-90" />
    <path fill="#f5f80f" d="M101.3 163.2L96.7 132l2 67.5 3-16.8" />
    <path fill="#005f95" d="M565.3 433.7l-3.5-22-18.5 4.6L580 421" />
    <path fill="#fefefc" d="M398.3 479l81.4 40.4L397.2 352l41 67" />
    <path fill="#734e35" d="M801.8 210l25.5.8-59.3-11 7-52.6" />
    <path fill="#efe275" d="M189 283.3l-1.4 18.4-22.7-9-1-5.2" />
    <path fill="#895c89" d="M873.7 210.8L811 118l-18.4-.6 30 7.5" />
    <path fill="#fff" d="M380 430l-26.8 9.7-19.4 65.8-22.6-76" />
    <path fill="#f9fdfe" d="M643 466.5l-29.6-40.8-26.8-47.2 24-6.6" />
    <path fill="#878688" d="M53 171.5l28.6-8.7 1.8 13.2-22.4-3.2" />
    <path fill="#9d9c9d" d="M31.8 320.3L10 326l21-63 1.5 89.7" />
    <path fill="#fbe7d9" d="M824.2 253l-15.3 2.7 35 20.7V264" />
    <path fill="#a09a26" d="M232.7 294.6l4-7.5 13.8-3 3.3 9" />
    <path fill="#631564" d="M938 75.5l40.7 21-16 15-99.7-26" />
    <path fill="#fff" d="M685.3 444.5l-13-25.7 382.7 40.7L607.8 543" />
    <path fill="#b6daf2" d="M741.6 308l4.7-29.4-5.7 3.4 11.4 6.6" />
    <path fill="#fbe9e4" d="M755.6 231.5l18.8-9.6-12.3-26 2 31" />
    <path fill="#822917" d="M655.3 78.8l5 23.6 8.3 4.8-17.8 8.4" />
    <path fill="#e4c9c9" d="M542.5 121L487 132.8l122 16-34.3 38" />
    <path fill="#343425" d="M181 133.4l-1 16.4-36.2 2.5 26.4-9.4" />
    <path fill="#fff" d="M19.3 257L13 191.8-1.8-31l.3 537.6" />
    <path fill="#7a7466" d="M766.6 399l-100 15 4.4-36.7 13.6 43.7" />
    <path fill="#fffef9" d="M389 323.4l18 17.7-143.2 15-4.4-11" />
    <path fill="#fff" d="M83 158L-27 97l121 31.4 5-130" />
    <path fill="#39702b" d="M704.3 165L676 257.6l-1.6 3 16-23.8" />
    <path fill="#ab4e0d" d="M851 283.4l15.2 36-12.6-60.8 12.8 13.8" />
    <path fill="#fff" d="M1029.6 273.7l-64 82L856.3 287l12-18" />
    <path fill="#faffff" d="M609.2 87.8l-2.7-17.6 9 25-31 2.2" />
    <path fill="#d1696f" d="M593 119l-16 2.8 21-11 47.3-14" />
    <path fill="#fff" d="M871.6 411.4L1021.4 543l24-416.8L879 286" />
    <path fill="#dd2220" d="M687.3 53.6L646 27.8l-21-1 78 48.5" />
  </g>
</svg>