<svg version="1.1" viewBox="0 0 1024 512" width="1024" height="512" xmlns="http://www.w3.org/2000/svg">
  <g fill-opacity=".5">
    <path fill="#00092d" d="M853 489L795.5-18.4 719.2-31l37 539" />
    <path fill="#00001a" d="M798.3 477l201.3-74 8.8 140-54.4-73.5" />
    <path fill="#540231" d="M543.2 325.3l231 193.3-50.3-172-46 151.6" />
    <path fill="#fff" d="M1055 333.4L899.3 452 800 366.8l40.6-277.2" />
    <path fill="#5a415c" d="M586 7.3l29 133.2 81-89.2 189.7-32.8" />
    <path fill="#34003e" d="M548 377.7l-.4 126.8 4.2-4.8L612 348.2" />
    <path fill="#00002f" d="M942.8-3.7l-.8 80.3-78.8-69.4 43.8 25" />
    <path fill="#2d2136" d="M717.8 59.3l96 269.4 2-210.6L782.5 9" />
    <path fill="#eaffff" d="M828.7 467.5l-4-44.6-26-36L784 502" />
    <path fill="#fff" d="M707 2.8l-356.6 375 403.3-27L740 158.2" />
    <path fill="#fff" d="M1.8-31L-31 403.4l678.5-393 386-.2" />
    <path fill="#253775" d="M696.4 324l201 172.8-36-71-96 .6" />
    <path fill="#b50000" d="M584.2 390.8l23.6-24 55.4 71.7 4.5 34" />
    <path fill="#22000d" d="M870.5 479l10.4 10.7L998 431l-16-35.7" />
    <path fill="#a20009" d="M834.6 459.3L819 405l7.5-36.8 23-36" />
    <path fill="#20456e" d="M620 160.2l28-55.6 9-96.4-47 89" />
    <path fill="#fff" d="M554.8 519.7l21-104 4-1.4 205 128.7" />
    <path d="M621.3 200.3l-11.4 10 37-23-6 35" />
    <path fill="#484845" d="M428 238.3l-79 147.3-60.4 117.7 32.2-91" />
    <path fill="#78b581" d="M390 85.3l73.4 12.5-124.3 132 82-41.8" />
    <path fill="#671844" d="M670.5 123.5l-21.4 18 42-61.2L725 62" />
    <path fill="#fff" d="M599.4-31l-66 574-250.8-28L365 356.6" />
    <path fill="#5d165b" d="M908 66.5L857.2 36 786.5 3l167.7 106.2" />
    <path fill="#fff" d="M1019.6 489L928 244l26.3-275H1055" />
    <path d="M908.3 161.6l24-1.2-1 32.2-27.8-38.2" />
    <path fill="#4587b4" d="M830 331l-69.5-13 18 171.4L653 465.8" />
    <path fill="#fff" d="M170.2 543l18-262.5L11.2-31-31 506.5m1001.3-7l-17-47.5-185.6 91 287.3-31.3" />
    <path fill="#bb6400" d="M363.4 74l34.2 28.4-33-56.5 43-31" />
    <path fill="#fff" d="M192 329l238-143.6L316.2 421 243 442" />
    <path fill="#003485" d="M969 395.4L967 512l44.3-35-.8-34.8" />
    <path fill="#817629" d="M196 229l36 17.4-54.2 107.8 42.4-57.3" />
    <path fill="#4d4e78" d="M722 101.7l-74 73.6 119.2-100 77.5 16.4" />
    <path fill="#aa7a36" d="M122.8 370.3l-45.5-114 48.8-51.5L75 284" />
    <path fill="#78255e" d="M821.4 59.3L950.8 137 838 56.4 704.3 21" />
    <path fill="#fff" d="M819 366.7l1-116 1.6-136.3L980 215" />
    <path fill="#970834" d="M717.6 513.4l9-70.3-7.6-137-9.6 193" />
    <path fill="#96bc92" d="M280.8 470.3l8-21.6-89.7 3-43-116.5" />
    <path fill="#3f121a" d="M720.8 21.4L755.4 261l-8.7-234-73.2 30.8" />
    <path fill="#951f34" d="M610 65.5l-19.3-30L601 12.2l40.7 2.5" />
    <path fill="#fff" d="M518.3 134l-73.7 55.6L695.4 463l35-185.4" />
    <path fill="#fd0019" d="M552.8 520l19.5-86-2.7 2.2-25-9.4" />
    <path fill="#214089" d="M571 357.6L548.8 425l73.6-37.6-31.5-45.7" />
    <path fill="#5de5ff" d="M717 475.7l22.3-127.2 5.7 95-59.4.7" />
    <path fill="#c0822c" d="M436.3 23.6l4.6 66 12-36-65-32.3" />
    <path fill="#849f67" d="M309 151l-56.4 81.5h49.8l-10.6-40" />
    <path fill="#ebffff" d="M660.4 43.4l66.6-64L734-2 598 143.4" />
    <path fill="#005473" d="M944.3 17l-33-7.5 22.3 63 14.6 16" />
    <path fill="#6c002a" d="M695 42.5L679 69l-64 69.7 61.2-81.5" />
    <path fill="#9ff" d="M682.7 539l141.8-62-8.2-127.8L783.7 543" />
    <path fill="#98b3d0" d="M765 223l18.5-102L794 292 743.3 67.8" />
    <path fill="#bfad9d" d="M231.4 149.4l-72.6 81.2 41.4-119 34.4 8" />
    <path fill="#a3a088" d="M386.3 312.2l76-135.6-39.6-91 11.8 77.7" />
    <path fill="#2d1523" d="M740 447.3l68 .3-78.3 59.6 64-17" />
    <path fill="#551318" d="M814.8 381.8l-76.7-6 74 49.4-67 5" />
    <path fill="#023ea0" d="M823.4 469.8l79.8 11.7-42-46.5-1.5-23.7" />
    <path fill="#fff" d="M704.4 438L552-31 409.3 255.4l22.4-100m578.5 319.2L967.8 543l87.2-64.7L935-31" />
    <path fill="#fff" d="M833 543l11-77 34.5 15.3 141.3 31.8" />
    <path fill="#271822" d="M710.3 37l99 66.2-19.5-79L809.3 11" />
    <path fill="#87306c" d="M900.6 140.5l-33.8-27.3-88.3-44.7 76.4 28" />
    <path fill="#540000" d="M993.4 432l-61.6 6.7-44.4 10.7-6.7 36.3" />
    <path fill="#fff" d="M617.7 447.5l-118 95.5 324.5-35.6-113-9.8M776 6.8l79.4 20.8 19-58.6L567 11.6m356 432.6l132-148.4L1013.4-31l-176 439.8" />
    <path fill="#97b087" d="M285.8 167.2l72-23.4-11 44 96-16" />
    <path fill="#fff" d="M636 155.8l107.5 60-17.3 144.8 45.5 19" />
    <path fill="#9b0038" d="M945.4 60L919 40.7 867.7 9.3 847 10" />
    <path fill="#4d1311" d="M825.3 503.4l8.5 3.3 8.3-29.2-8-51.5" />
    <path fill="#b9b8b3" d="M97.3 441.4l46.5-109.7-40.3 19.7-42 96" />
    <path fill="#fff" d="M574.3 286.8l-242.7 148L264 543l263.6-35" />
    <path fill="#1f50b9" d="M734 459.8l-4.6-24-68 10-.3 31.3" />
    <path fill="#072960" d="M823.5 389.3l13-48.2 15 8 2 9" />
    <path fill="#cbfffe" d="M732 451.3v-89.5l8 54 20 13" />
    <path fill="#b5b9b9" d="M694.7 77.2l73 16 22.7-2 12.2 28.5" />
    <path fill="#4999cf" d="M25 374.3l-1 9.7 55.5 2.5-9.7-18" />
    <path fill="#549fd1" d="M118.7 187l-12-18 52-1 6.5 11.7" />
    <path fill="#77adc6" d="M345 122.8l-25.4 2.6-1 18.3 114-9.4" />
    <path fill="#66011f" d="M685.6 10.7l-81.4 105 28-59.8-11 11" />
    <path fill="#67abd7" d="M488.4 117.2l32 24.7-37 4-23.8-5.5" />
    <path fill="#fff" d="M419-31L-31 13.6l244 99 86.6 53.7" />
    <path fill="#a91e40" d="M701 318.8l2.3-5 23 107.5L729 348" />
    <path fill="#fff" d="M624 27l-100 97 29 142.5 54.6-242" />
    <path fill="#35213e" d="M781 68.5l20 344.2 9.2-310-43.8 33" />
    <path fill="#4f9ed1" d="M236 386.6l-7.5-14 43-.3 22.7 16.6" />
    <path fill="#fff" d="M1055 293L842.7 111.6l-36.3 270L837 347" />
    <path fill="#5c4271" d="M652.5 131.8L633 153l-.4 13.8L734.2 45.4" />
    <path fill="#fff" d="M901 11l136.5-1L876-31 681.8 11" />
    <path fill="#5ba5d4" d="M281.6 299l35.2-3.6-6-17-54.4 4" />
    <path fill="#72b1d9" d="M424.4 406l-51-5.6 3.4-27.4 6.4-7.5" />
    <path fill="#fff" d="M516 353.4L744.7 331l2.6-28.2-12-188.8" />
    <path fill="#c70c16" d="M615 380.2l65.3 81.5-50.3-20-43.8-58.7" />
    <path fill="#95e1f3" d="M756.7 418.5l6-54.6-2.7-206 11 251" />
    <path fill="#6e070b" d="M749.7 402.5l-9 18 33.6 13 10.8-5" />
    <path fill="#bc4d0f" d="M219.5 152l12-39.4-27.4 2.8 31 18.8" />
    <path fill="#0c4680" d="M935 85l6 19.3L922 92l-33-34" />
    <path fill="#fff" d="M950.4 505.3L271.6 498l-162-122.4L255.4 543" />
    <path fill="#0b479a" d="M928 128.8l-18.5-25.5-24-10.5 44.8 43.7" />
    <path fill="#747577" d="M419.3 205.5l-59 158 69-132-46.8 61.2" />
    <path fill="#fff" d="M797.6 18.6l1.2-16-7 41L878.2 58" />
    <path fill="#0a579b" d="M828.3 240.5l-83.8-1-11 5.2 84.6 15" />
    <path fill="#fff" d="M808.4 281.7L961 399.3l94 27-26.2-333" />
    <path d="M651.7 219.3L622 204.8l25.4-13.5L644 215" />
    <path fill="#fb0021" d="M824.2 391l-.3 50.3 17-9v-66.8" />
    <path fill="#fff" d="M814 483.7l-41 25 62-57.8-23.5-37" />
    <path fill="#0b71c7" d="M823 294.6l-72-1.5-12.2-13 89.4 4" />
    <path fill="#35405f" d="M815.7 46l-92.3 8.3 32 16.8-84.6 79" />
    <path fill="#a48d46" d="M360.4 189.4l14.6 19-60.4 34.2 38.6-11.4" />
    <path fill="#0ed9fa" d="M807.5 409.6L801 517l15.7-108 6.4-48" />
    <path fill="#4f090e" d="M744.5 197.8l10.7 88 4.3-6.4-2.6-105.2" />
    <path fill="#6cb3e0" d="M165 483.8l46.4 4.8 8.2 14.3h-57.2" />
    <path fill="#411b2c" d="M702 416.3l49 84.7 57.7-27-41 30.4" />
    <path fill="#fff" d="M374 296.2l-132.8 191 127.5-281.6 53.3-3.4" />
    <path fill="#c74600" d="M208.2 300.7L221 281l-15 41.6-22.5 9.5" />
    <path fill="#b18b55" d="M150.4 208.4l-38.3 7L84 245l10-5.8" />
    <path fill="#fbfbfc" d="M826.3 5l-30-8L923 79.4l1.2-30" />
    <path fill="#370a20" d="M982.7 466.6l27-.5-16.7 34-27 4.8" />
    <path fill="#acebfe" d="M596.6 96.2l8 4L667-8l-47.7 56" />
    <path fill="#fff" d="M549-30.6L442.7 172.2l20.5 61.4L433 97" />
    <path fill="#fff" d="M594.8 68.6L416.6 264.3l82.7 278.4L626 159" />
    <path fill="#a5cabb" d="M194.3 243l35.4 21.7 62-38 1.7-32" />
    <path fill="#894b53" d="M762.5 357.6l-23-37.8 65.7 35.4 23-33.2" />
    <path fill="#87b18e" d="M382 196.6l67.5-49.4-73 27.5 79.4 32" />
    <path fill="#fff" d="M715 391.8L443-31l196 445.5 54.4 34.7" />
    <path fill="#80e5fe" d="M788.3 460l38.3 14-59.3 8.3L745 475" />
    <path fill="#9e8458" d="M26.6 409.2l7.7-.6L79 435.2l-50-16.8" />
    <path fill="#22befb" d="M750 317l-22.4-1.6 43 21 67-6" />
    <path fill="#fff" d="M-3-31l413.6 48.6-125 62.7L-6.4 212" />
    <path fill="#583156" d="M855.5 37.7l-80.7-23.2 37.7-3.5 56 29" />
    <path fill="#2cdbff" d="M804.2 401.6l-44 15 6-26-19.2 4.7" />
    <path fill="#fff" d="M-4.8 458.4L162 428.2l1.7 114.8L-31 530.6" />
    <path fill="#63a57f" d="M241.6 439.3l-31.4 9.5 22.3 13.6-38-95.7" />
  </g>
</svg>