<svg version="1.1" viewBox="0 0 1024 512" width="1024" height="512" xmlns="http://www.w3.org/2000/svg">
  <g fill-opacity=".5">
    <path fill="#595c4c" d="M621 96l322-17-83 263-203 109" />
    <path d="M439 384l89 67-295-303L41-31" />
    <path fill="#495e5c" d="M505 425l-85-86-174 85 127 8" />
    <path fill="#d6443b" d="M687 50l47 105-201-75 94-64" />
    <path fill="#fff" d="M632-31l138 188 46-61 239-84" />
    <path fill="#1e0026" d="M944 73l30 17 5 27-115-32" />
    <path fill="#165060" d="M740 245l-63 54 157 52-48-216" />
    <path fill="#002a7c" d="M602 490l-38-120 89-13-104 46" />
    <path fill="#3b4f41" d="M206 255l28-99L97 11l96 179" />
    <path fill="#fff" d="M522 435l178-240 14-10L52-31m736 210l96-3-4-71-28-18" />
    <path fill="#5c7149" d="M332 371l-97-51 134-52-111 96" />
    <path fill="#005ea0" d="M729 382l-107-27 55 108-67 26" />
    <path fill="#bdb319" d="M583 241l147 49 1-162 61 90" />
    <path fill="#1c4e00" d="M99 223l18-23L98 99v113" />
    <path fill="#fff" d="M765 183l22 168L721-1l158-30M663 49l-19 60-98-140-566 51" />
    <path fill="#4c293d" d="M920 180l-208 1 202 32-119 73" />
    <path fill="#fff" d="M558 531l298-169 178-393 4 574" />
    <path fill="#a77c26" d="M637 170l-36 95 73-98L567 58" />
    <path fill="#fff" d="M-31 506l190 37 138-153L60 182" />
    <path d="M157 96l119 100L122 45l8 56" />
    <path fill="#cc4b00" d="M834 387l-27-25 67-55 6 14" />
    <path fill="#003072" d="M582 439l-25-10 39 45 38 3" />
    <path fill="#f2ffff" d="M784 223l46-32 45 16-24 32" />
    <path fill="#fff" d="M397 543l60-136 150 68 393 28M145 111l493-7L166-31l35 251" />
    <path fill="#460038" d="M777 205l30-111 58-13-40 26" />
    <path fill="#900000" d="M586 35l-38 54 56-18 59 61" />
    <path fill="#bb0800" d="M679 82l-14-51 54 68-114 32" />
    <path fill="#fff" d="M-15 152L-31 4l131-18-10 178" />
    <path d="M318 249l9 29 54 23L171 94" />
    <path fill="#0c2213" d="M150 162l85-25-91 6 3 17" />
    <path d="M307 401l15 19-28 10-23-5" />
    <path fill="#025f8c" d="M767 255l-1 150-26-205 153 59" />
    <path fill="#fff" d="M39-31h270L633-8 368 251m451 292l83-325 23-122 130 402" />
    <path fill="#545155" d="M20 310l2-113 13 38-5 76" />
    <path fill="#6f6d70" d="M187 494l35 12 271-8-177-8" />
    <path fill="#d5f0f3" d="M804 396l-127-30-2-44 14-11" />
    <path fill="#004d98" d="M741 420l28-57-40 21-50-10" />
    <path fill="#fff" d="M757 258l20-13 27 45-21-3M622 182l22-49-320 104 202 209" />
    <path fill="#8f7845" d="M113 116L99 314 96 52l1-57" />
    <path fill="#2d0035" d="M915 187l-24-2-4-63 14 14" />
    <path d="M388 309l113 113-87-67-46-63" />
    <path fill="#665100" d="M614 313l52-45-18 34 9 10" />
    <path fill="#fff" d="M894 460l-215-68-7 129 377-10M473 392l-297 90 238 10-19-110" />
    <path fill="#706e71" d="M26 327L16 158l15-41-2 202" />
    <path fill="#004984" d="M657 442l-20 42 42-23-13-137" />
    <path fill="#fff" d="M244 275L133 159l-35 55 63 229" />
    <path fill="#848854" d="M185 211l20-7 45 38-82 11" />
    <path fill="#b5905a" d="M181 421l6-34 41 44-148-1" />
    <path fill="#3b3f4f" d="M891 254l-38-73 53 27-166 145" />
    <path fill="#fff" d="M407 337l-163 25 115-49-25-41" />
    <path fill="#f5f7b4" d="M626 144l128 3-45 51-48-93" />
    <path fill="#387015" d="M617 148l150 51-95 19 73-39" />
    <path fill="#2c3665" d="M100 285l-2-88-1 199 4 33" />
    <path fill="#fcefea" d="M803 330l-15-31 63 26 71-90" />
    <path fill="#005b9f" d="M584 379l-23 48-6-49 73-24" />
    <path fill="#510053" d="M916 76l7 36 58 5-27-41" />
    <path fill="#667952" d="M300 247l-3 59 5 126 13-155" />
    <path fill="#000918" d="M371 373h-12l-16 27 29-1" />
    <path fill="#fff" d="M828 83l-66 80-89-194 382 83M658 365l-240-34-193-185 426 177" />
    <path fill="#ce0000" d="M633 38l-42 4 46-20 59 48" />
    <path fill="#fff" d="M560 24l490 41-30-96L-31 7" />
    <path fill="#fff" d="M500 418l159-147-248-116L53-31" />
    <path fill="#63351b" d="M891 328l-73-66-59 68 90-59" />
    <path fill="#fff" d="M780 370L604 543l432-7-8-156" />
    <path fill="#e3fff3" d="M690 114l18-15 26 27-55 2" />
    <path fill="#fff" d="M1020 543l35-429-154 5 51 300" />
    <path fill="#005194" d="M816 360l22-46-59-117 43 153" />
    <path fill="#fef0ff" d="M854 87l42 78-43 4-38-52" />
    <path fill="#f4ffff" d="M639 40l-48 3 69 53 23-17" />
    <path fill="#f2fff1" d="M641 253l28-7 32-69-45-8" />
    <path fill="#820913" d="M668 88l-42 58 7 7-28-22" />
    <path fill="#3e5d73" d="M750 409l-18 9-50 4 91-58" />
    <path fill="#fff" d="M183 359l6-223-63 78 182 50" />
    <path fill="#fffca5" d="M704 247l-62 112 56-140 39-23" />
    <path fill="#175444" d="M787 219l-77 144 68-85-81-13" />
    <path fill="#3f8400" d="M706 81l13 9 21 17 8 48" />
    <path fill="#fff" d="M417 429l14 114 462-51-297-16" />
    <path fill="#631a07" d="M794 139l-16 106-6-95 50 3" />
    <path fill="#8a7800" d="M624 247l24-43-49 38 150 48" />
    <path fill="#fff" d="M-6 316l-13 226 184 1L51 328" />
    <path fill="#880605" d="M548 73l19-20 34 9-49 32" />
    <path fill="#b8ae15" d="M612 312l104-56 26-146 21 91" />
    <path fill="#fff" d="M195 138l-27-38-193 16-6-83m644 135L230-31l64 241L608 67" />
    <path fill="#ffe8cf" d="M884 305l-74-53 44 7-7 14" />
    <path fill="#2a124a" d="M803 199l-27 16 22-32 148 2" />
    <path fill="#f7fbfd" d="M752 193l-3-11 19 52 6-135" />
    <path fill="#f6fdff" d="M313 368l82 6-8-62-82-20" />
    <path fill="#fff" d="M10 219l27-6L19-31l78 303" />
    <path fill="#0f5411" d="M677 245l10-40 37-3 18-31" />
    <path fill="#c31108" d="M670 129l40 29-23-36 4-72" />
    <path fill="#004d8d" d="M672 293l121 45-9-15-84-42" />
    <path fill="#fff" d="M679 543l-296-7 165-141 26 55m100-348l-3 42-31-18 4-4" />
    <path fill="#ebe0d7" d="M861 328l-138 39 19-49 32 49" />
    <path fill="#001300" d="M269 319l2-17 10 23-13 17" />
    <path fill="#8e3c01" d="M777 335l16 33 65 3-116-35" />
    <path fill="#005d90" d="M621 484l-48-31-10-30-3-30" />
    <path fill="#0075c9" d="M897 254l-12 14 3 3-130-52" />
    <path fill="#fcfbe2" d="M176 369l19-218 18 5-16 65" />
    <path fill="#fff" d="M346 256L92-1l616-7-146 59" />
    <path fill="#e2f8ff" d="M635 471l10-97-37-5-21 14" />
    <path fill="#526122" d="M243 250l-28-37-1-52-15 68" />
    <path d="M232 157l51 61 123 117-104-112" />
    <path fill="#fff" d="M298 233l-2 68-89-112 20-11" />
    <path fill="#a18d73" d="M139 344l-16 1-29-28 20-5" />
    <path fill="#fffafc" d="M338 535l4-133-24-2 1 67" />
    <path fill="#faede5" d="M503 74l-31 69 161 77 6-64" />
    <path fill="#b88c29" d="M78 427l278 4-69-1 93-6" />
    <path fill="#004e8b" d="M694 280l-18 47-26 62 20-70" />
    <path fill="#82571f" d="M646 173l-6-30-65-72 107 99" />
    <path fill="#076eac" d="M664 361l-67 1 164 49-92-45" />
    <path fill="#540b58" d="M913 129l-13 12-17-41 8 89" />
    <path fill="#faffff" d="M388 366l-21 34 45 86-35-5" />
    <path fill="#fff" d="M886 232l169 5-194 35 51 121M15 359L1 543 0-10l24 5" />
    <path fill="#001609" d="M294 417l-37-5 57 13-5-43" />
    <path fill="#240031" d="M833 97l-47 70 25-67 32-16" />
    <path fill="#00020c" d="M198 129l-8 23 40 2 81 87" />
    <path fill="#e4c512" d="M751 221l-103 78 6-21 72-57" />
    <path fill="#fff" d="M1027-31L796 17l175 70 59 296" />
    <path fill="#eef4fb" d="M844 239l-6-28-31-14-20 17" />
    <path fill="#6e7958" d="M735 333l-86 81-20-25 54 15" />
    <path fill="#fff" d="M909 210l-95 333 241-377-164 24" />
    <path fill="#759fcc" d="M459 495l-7-64-115-6 135-1" />
    <path fill="#8a888a" d="M193 484l23 6 236 13-248 1" />
    <path fill="#000e11" d="M178 99l-47-15-2-19-33-48" />
    <path fill="#fff" d="M682-31l16 111 28 12 75 69" />
    <path fill="#10110e" d="M452 374l-50-42 99 104-5-20" />
    <path fill="#e6eae7" d="M318 245l6 28-106-112 2 25" />
    <path fill="#be5d16" d="M864 301l-31-55 49 68-42 52" />
  </g>
</svg>