<svg version="1.1" viewBox="0 0 1024 512" width="1024" height="512" xmlns="http://www.w3.org/2000/svg">
  <g fill-opacity=".5">
    <path fill="#171717" d="M377.5 368l3.2-19 18.6-3.2-30.5 16" />
    <path fill="#fff" d="M781.3 416.7l-70.6-63.2 126.3 20-7.5-39.8" />
    <path fill="#090908" d="M742 422l191.7.3 6.5 1.6-70-9" />
    <path fill="#fff" d="M147.4 223l-22.8-31.8H170l-6.3 48M86 167l28.6 28-28 51.3-8.8-86M566.4 212L417 203.8l-8.3 89 156-5.5" />
    <path d="M106 338.6l41-1.3-48.3-1.8 5 47.4" />
    <path fill="#fffffd" d="M179.4 252.7L249 247l41.5-23.7-37.4 32.2" />
    <path fill="#fff" d="M578.5 195.4L572 268l-77.3 23 88-16" />
    <path d="M612.6 415.2h35.8l21.6 7.2-59.6.4" />
    <path fill="#fffcfb" d="M785.4 328.2l5 126.5L771 373l3-6" />
    <path fill="#ffb4b0" d="M855.6 178.8L890 165l50.2 17 1 12.2" />
    <path fill="#468ed0" d="M310.8 215.2l43 46.3 16.3 5-96-105" />
    <path fill="#fff" d="M946.3 368.8l-100.3-62 63.4 89.4 20.5-77M471-31l254 41.7-283.4 12.7 8.8 3.6m300.3 287.5L646 416.3l72.5-34.4-51.5-67" />
    <path d="M296.6 332l3.8 2 4 14.5L294 359" />
    <path fill="#ff9b97" d="M726.2 159.7l-4.8 24.3-56.6-7 44.7 12.5" />
    <path fill="#fd978f" d="M771.3 279.3l-21.3-47 34.2 38.6-7.5-27" />
    <path fill="#fff" d="M-31 94L330.7-31 132.3 181.2 77.6 146" />
    <path d="M562 419.4l-1-4.6-80.2 4-36.3 4.4" />
    <path fill="#71aed9" d="M545.2 427.8l-21.8 4 4 11.2 33.6 1" />
    <path fill="#5395d3" d="M305.6 191.2l-73-50.6 43 10.4 28 29.7" />
    <path fill="#0b0b0b" d="M370.2 336.6l-.8-6 40 1.4-.4 7.3" />
    <path fill="#9c6eaf" d="M1008.7 486.2l-4.6 7.2-32-2.5 27-19" />
    <path fill="#fff" d="M531.8 296.2l-178.7-51-73-95 79 86.3m460-32.7l86 .8 41 75-116.2 14" />
    <path d="M698 89l-62 4.7 35 4.3 28.7-.4M167 368.3l-3.8 8-2-8.5 8.3-29.7" />
    <path fill="#fff" d="M91 351l1-3.7 36 1.6-3-11M774 53L578.8-25.2l36-4.8L701 52M500.5 183.4l96.5-4-94.5 15.7 14-72m300.7 316l156.4-16-99.3 3-56.3-3" />
    <path d="M625.5 449.7l13.3 5.6-18.6 4-98.6-2.7" />
    <path fill="#0a0a0a" d="M360.6 337.4l-19 23.6-14 10 11.7-22" />
    <path fill="#ff6f67" d="M715.3 252.2l4.5 8.7-8.5 2-13-35" />
    <path fill="#67a4b0" d="M632.4 194.8l4.2 84.4L659 222l-28 71.5" />
    <path fill="#fff" d="M472.5 187.6l1-85.5-22.2 64 15-1m-2.5 378l46.7-113-23.5-6 32.4 57" />
    <path fill="#b492c2" d="M967.4 396.5l-43-10.5-7.7 22.3 53.3-32.6" />
    <path fill="#fff" d="M550.4 35.2l5.8-66.2 115 81.4-129.5 4.4" />
    <path fill="#1c1c1c" d="M875 390.6l27.2 16 23.4 16.4-34.5-16.6" />
    <path d="M338.7 333.8l-5.5-2-5.8 5L351 339" />
    <path fill="#fff" d="M301 379l-27-24.3-10.4 58-.8 127" />
    <path fill="#ff8e87" d="M696 263.4l4.4-13-16-30.2-2.4 5" />
    <path fill="#ff635f" d="M874.6 343.2l-27.8-7.6-.5 12.6 18 5.8" />
    <path fill="#fff" d="M466.7-7.8l-61 122.8-95.4-146L449 45.3" />
    <path d="M78.4 320.4l-48-1 8.5-8.6 23 2m204 23.7l-4-7.5 4 39.8 9-13.5" />
    <path fill="#5a5859" d="M551.5 14.6L525.2 32l20-7.8v18.2" />
    <path fill="#fff" d="M30.5 343.4l-.5-36.8L1.8 145.4l-4.5 338m636.4-143.7l-263.3 6.8 275.8-21-12 68.4M920 298l-9.6 20.4 81-11-116 4.3M272 178l5.6-7.4 29.5 41-38 12.4m645 175.5l11 18.5-59-33.7 38-58.5" />
    <path fill="#75b1da" d="M657.8 67.5l.5 16.2 38.8-3.4 5-12.3" />
    <path fill="#fff" d="M496.7 90.7L669 86.4l-99-26-454.3 15m735.2 225l42 4-1 37-59-2.7" />
    <path fill="#fafafa" d="M127.3 355.2L150 358l-49.3 70.2 49.5-47.4" />
    <path fill="#959596" d="M552.8 61l-123.5-.3 14.8-5.5 47-.2" />
    <path fill="#f7fff7" d="M653.2 184l-4.7 74.6 5.8 40 2-39.5" />
    <path fill="#fef7f6" d="M668 292.7l14.5-3.7-80.3.8-47.7 1.2" />
    <path fill="#fff" d="M571.4 462.6l201.3 26.8-76 53.6-1.6-85.8" />
    <path fill="#fdffff" d="M708 207.6l105-4.2-125-.2-140 .2" />
    <path fill="#010101" d="M154 366.2l-7.6 11.6-.3-21 4-31" />
    <path fill="#fff" d="M242.5 521.3L-31 374.3l242-1.6 1.2-37m774 125.7l50.3 12.6-131.4-3.8-7-8.5m100-309.2L986 97l5.8 52.4-168.3 52m-320-159.6l2.2-72.8-2.3 1 21-1M735 420.6l58.8 11-13 16.3-39.6 1" />
    <path d="M902.6 468l-28-15.5 32 23.6 12.2 8" />
    <path fill="#4b484a" d="M903.3 111.3l-7.2 19-4-19.7 20 1.4" />
    <path fill="#648eb1" d="M648.3 296.7l-4.7-56.8 3-11 2 73" />
    <path d="M758.7 53.5l-46.3 5.2L777 62l9-9" />
    <path fill="#ffaca9" d="M683.3 172.5l52-8.6 116.7-5-109.3-4" />
    <path fill="#68a6d8" d="M626 326.4l-38 1-4.7-1.5 7.2-20" />
    <path fill="#fff" d="M304 383l252.2 2.5L884 354.2l-285.7-.6" />
    <path fill="#0d0e0d" d="M780.3 418.7l121-3-161 .3 22.3 6.5" />
    <path fill="#fff" d="M700.6 500.6L855 462.3 712.4 459l27 19M-31 297.3l130 17-4.3 38.5-10.2-90.3m177 79l-32 6-.8 6.3-2.5-13.7" />
    <path fill="#fffffe" d="M765 242.4l22 113.4L766.8 211l159-8.7" />
    <path fill="#1fbd8d" d="M26 250.8l13.3 3.2-7.8-98-7 85" />
    <path fill="#fff" d="M859 97.3l26 86.2 8.3-54.4.3-20" />
    <path fill="#60d090" d="M688.8 219.3l2.6-16-31 14 3.5-2.2" />
    <path fill="#fff" d="M-8.5 129.2l110.4 51-75-22.7L9 349.2" />
    <path fill="#1d1d1d" d="M241.3 347.8l5.5 4.7-13.5 3-13-5.8" />
    <path fill="#fff" d="M585.3 99l75.3 1 38 80.2 2-21.7" />
    <path fill="#4690d2" d="M196.4 141.3l-23.6 5.4-34.8 51.8-6.2-15.4" />
    <path fill="#2a88be" d="M583.7 220.2l-.3 5.3-.5 61.4 3-46" />
    <path fill="#8b8b8b" d="M434.8 91.2l65 .2-65.3 6.2.4-5.4" />
    <path fill="#9865ab" d="M847 482.8l8.6-4.7 8.7 4-6.6 23" />
    <path fill="#fff" d="M263.3 350.4l-3.8 9.3-8.6 4.7-29-3" />
    <path fill="#62b1df" d="M605.3 440.7l6.6-10.2 22 9.5-25 5.8" />
    <path fill="#ff6031" d="M124.8 189l-99.4-58.3 40.3 8.5 46.3 32.3" />
    <path fill="#ff4e17" d="M198 272l-38.2-20.7-13.6-16 78 37.7" />
    <path fill="#242425" d="M595.6 111l28.7 13.6-51.2-34-1 7" />
    <path d="M384.8 329.3L371.5 353l19.7-1-25-10" />
    <path fill="#fff" d="M354.6 264.8l-45-40.2-103 96.7L383 332.7M244.8 180.5l-36.5-32.3 50 8.4-11.6 77.5" />
    <path fill="#ff6432" d="M415 150.2L402.6 133l-66.4 46 37.2-36" />
    <path fill="#070707" d="M724.6 416.7l-60.4-3L606 420l11.3 3.2" />
    <path fill="#a1a1a1" d="M709 97.2l-10.2-7 271 2-91.2 3.4" />
    <path fill="#666465" d="M547.3 161l6.8-1.7-21 9.2 17 15" />
    <path fill="#5cacc1" d="M624 278.3l-3-60.2-3.6 62 9.6 14" />
    <path fill="#fdffff" d="M652.4 380.3l1-61.7 4 95.8 62.3-2.7" />
    <path d="M200 335.7l7.6-4.3L212 370l-2.7 2.2" />
    <path fill="#fff" d="M725.3 280l56-4.4L729 262l-33.4-57.6" />
    <path fill="#030302" d="M506.7 415.7l59.7 3.4-73.4 6-69.4-9" />
    <path fill="#fff" d="M471.5 43.7l174-10.4L464 57.5l11.4-59.7" />
    <path fill="#ff9f36" d="M365.2 477.3L343.7 501l2.5-15.3h23" />
    <path fill="#fff" d="M723 181.7l20.4 85.5-19.2-33.3L745 104" />
    <path fill="#fffcf8" d="M689 217.5l31-64.5-14 76.3-76.7-7.4" />
    <path d="M72.5 310.6L32 319.3l18.8.2 47.5 1" />
    <path fill="#fff" d="M616 467l-58.6-5-40.2 81H612" />
    <path fill="#a47cb4" d="M567.3 381.8l5.6-1.7 6 12-22 20" />
    <path fill="#fff" d="M46.3 119L595 142.5-3.5-31l-1 189.8" />
    <path d="M65.5 337.8l13.8 9.3-16 1-27.6-10" />
    <path fill="#fffefd" d="M369 426l-81-72.2 17 7 77.8 152" />
    <path fill="#fff" d="M522 34.8L532.4-31l-76 51.7 57-13.3m80.4 267.3L590 303l-4-75.4 8 2m235-122l-171.2 44.6 164.3 11-63 3.8M572 299l-111 39-80 1 120 73" />
    <path fill="#9097ab" d="M671.8 259.8l-1.6-51.2 16.2 71-2-54.2" />
    <path fill="#fcfcfc" d="M749.5 446l13.4-41.5 15 42.5-13-64.3" />
    <path fill="#63ce93" d="M946.7 203.2l-3.2 18.4-13.3-14.3-14.6 11.5" />
    <path fill="#33d2e6" d="M371.7 232.7L367 241l-8.4-44.6 8.4-26" />
    <path d="M369 373l39-5-4.2-2.8-18-.5" />
    <path fill="#feffff" d="M905.5 154.5l7-41.2 10.3 83.4-23.8-80" />
    <path fill="#fff" d="M748.4 306l188.8-4.4-235.2-2.3 48.8 41.8" />
    <path fill="#5b595a" d="M436.8 31.2l1.6 12.7 10-28-8.7-.7" />
    <path fill="#fefdfd" d="M978.6 449.8l55.6-2.7-10.2-31-133 34" />
    <path fill="#fffffe" d="M271.6 356.5l1 33.7 24.6 108.6 15.3-115.6" />
    <path fill="#fff" d="M65 230.8l.8-54-32 81.6 46-9.7" />
    <path fill="#939494" d="M530.5 96.6l-76.8-.8 67-5.7 61.3 3" />
    <path fill="#0a0a0a" d="M131.3 363.3l-25.3-11 33.4-5.3-20 22.2" />
    <path fill="#fcffff" d="M357.5 180.6l-96.2 41.2 50.5-22 47.2 44" />
    <path fill="#ff612e" d="M252.3 252.5l49.4-23.3-30 30.7-51 15" />
    <path fill="#fdfdfd" d="M204 344l-55 79.4 169 59.2L192 452" />
    <path fill="#fff" d="M516 425.4l-66-3-45.6 31.3 98-4m-111.7-298l73-17.7-103.4 34.3L395 191m412.4-75l-28 74 6-79 38.8 86" />
    <path fill="#579ad7" d="M12.8 263.7l44 4.7 43.5-40.5-15 29" />
    <path fill="#ff4f1a" d="M35.4 136.4l47.5 17-45-5.8-19-8.3" />
    <path fill="#fcfcfc" d="M270.7 338.5l11.6 134.2-10.8-124 19.6-1.3" />
    <path fill="#fff" d="M427 346l-10.7 66.6 119-.4-1.2-4" />
    <path fill="#322f30" d="M889 342.7l9.7-13-3-18-1.2 25" />
    <path fill="#fff" d="M884.5 196l-174.7-7L868 178.5l-44-94.3M371.6 171l23-17-4.2 96.6-15.2 6.2M667 192.2l-96.8-98-16.6 103 110.2-13" />
    <path d="M813.3 457.5l12.4-6.3H746l23 8.2" />
    <path fill="#fff" d="M703.8-.5l83.4 58.7L1055-16.4l-399 61" />
    <path fill="#52c484" d="M569.6 207.5h92.6l41.8 1-139.5 1.6" />
    <path fill="#fff" d="M251.8 202l2.8 51.3-29 2L224 144" />
    <path fill="#060605" d="M663.5 54.5l47.5-.2 34.2-.6-92.4 9" />
    <path fill="#fffefe" d="M203 276.6l6 47.2-23.7 32L115 234" />
    <path fill="#3a3a3a" d="M517 395l-2.8 3.5 25.5 10-23.5-19.6" />
    <path fill="#050505" d="M30.5 363l1.2-42.6L41 325l-2 48" />
    <path fill="#6e6e6e" d="M977 333.7l18.4-14.3 1.7-8.3 13 23" />
    <path fill="#feffff" d="M974.4 317L947 384.4l16-68.2 2 59.8" />
    <path fill="#fff" d="M851.4 309.8l-.6 50.6-11-56.3 185.4 9" />
    <path fill="#6f6e6f" d="M456.5 37.3l21.6-15-1 18.3-35-16.8" />
    <path fill="#9e999b" d="M996 198l-70.3.8 45.4 5 42-2.3" />
    <path fill="#fa5854" d="M756.8 341.5l5.6 22.5 3.6-20 114.6-1.8" />
    <path fill="#fff" d="M726.5 180.8L765.3 292l-95.8-7.7 99-4m238-147.2L833 146l207.3 65.7L1014-31" />
    <path fill="#fcfcfd" d="M947.7 304.2l-15 76-3.5-85.6 11.3 155.8" />
    <path d="M516 463.3l18 11.4 1-3.6-20.7-15" />
    <path fill="#fff" d="M861.3 433.5l-18.6 22.7-18.3-28.6 101.6-4" />
    <path fill="#fdfdfd" d="M470.7 143.2l69 209.6L470 129.6l-31.4 65.8" />
    <path fill="#030303" d="M248 338l18.6-2.6 22.6-4 16 7.4" />
    <path fill="#fff" d="M883.7 89.4L688.5 88l54.3-24 312.2.2" />
    <path fill="#fd602d" d="M182.4 268l36 6-76.4-38.6 35 31.3" />
  </g>
</svg>