<svg version="1.1" viewBox="0 0 1024 512" width="1024" height="512" xmlns="http://www.w3.org/2000/svg">
  <g fill-opacity=".5">
    <path fill="#8a312c" d="M776.3 324l31.2 21 6 .8-1.2-25" />
    <path fill="#fff" d="M297 96.5l11.7-103-274.5 15 194.2 5m683 356l1.2 11 43.4-9-25.4-7.6" />
    <path fill="#0d00e4" d="M864 86.2l16.4-19 26 17.3-13-6.3" />
    <path fill="#230200" d="M148 177.6l-44.4-9.4L42 176l-7.6 7" />
    <path fill="#fff" d="M751.5 379l55.3-28.2 6 18.2-100 41" />
    <path fill="#76c56d" d="M893 126.3l33.3 85-31.3 5.2 33.7-77.2" />
    <path fill="#fff" d="M-31 293.6l191.7 8.8-55-82.8 45.7 70.3" />
    <path fill="#4b2521" d="M223.4 495.2l-25-9.2 44-11-10.8 22.7" />
    <path fill="#575b5d" d="M305 14l28 1.6 195-1.2-116.6-2" />
    <path fill="#ffa09a" d="M19.3 11l10.4 31.4-9.3 151-6-12.6" />
    <path fill="#d1d3d3" d="M961.8 117.2l9.7 35.2 71.3 23L903 164" />
    <path fill="#f65c53" d="M178.7 215.5l-45.2 2.5L4 215.8l84.2-.8" />
    <path fill="#460600" d="M198.6 171.2l9 9.5 9.7 4 38.7-8" />
    <path fill="#fa7973" d="M85.5 341l117.4.2-147 5-31-4.8" />
    <path fill="#e38482" d="M14.3 288.2l-22.6 5.5 55.5-16.2 61.2 11.8" />
    <path fill="#ee664f" d="M843.5 16.8l5.4 15L837 42l-15-16" />
    <path fill="#200" d="M239.7 422.2l-34.6.6 2 8 30-.8" />
    <path fill="#fff" d="M27 53.5l-58-1 76.4 11.7 344.5-8" />
    <path fill="#d0d4d7" d="M727.8 379.8l-83.4-84.6-14 39h128" />
    <path fill="#fff" d="M781.6 531.2l95.8-110.5-32.5-9.2-65 41" />
    <path fill="#f0f6f6" d="M308.7 404.7l52.4 85-4-174.7-47.2 20.6" />
    <path fill="#fff" d="M823.8 89V78l-74.4 31.7 8.6 34M33.3 317.3l-63-1.4 98.3 11 165-7" />
    <path fill="#e16d69" d="M86 397l86.3 3-135.6 2.7-37.8-4.3" />
    <path fill="#fff" d="M577 12.8L807 56l47-87-417.6 43.8" />
    <path fill="#b2c3bd" d="M885.6 480l58-46.8-109 14.2-9 43" />
    <path fill="#1d0000" d="M57.8 360l97.2 8-119.8 4.3 3.6-17.6" />
    <path fill="#ba4e02" d="M711 407l-1.2 4.3 59-55.4h-25.5" />
    <path fill="#fbffff" d="M190.8 385.3L44 395l115 1.4 89.5-4.6" />
    <path fill="#fff" d="M730.2 197l30.6-34.7-57-7.6L638 543" />
    <path fill="#95a0a7" d="M677.2 214l21-42.5-68.3 68 11-26.8" />
    <path fill="#fff9f8" d="M196.6 407L115 425.8l68.5 2.3 105.8-21" />
    <path fill="#fff" d="M157.4 485l4.5 16 141-4-179 46" />
    <path fill="#444c47" d="M367.8 24.4l-50-2.6-2.5 4 15.6 4" />
    <path fill="#93c4c7" d="M155.6 196l7.4-7.5-120.8 2 92.8 7.2" />
    <path fill="#fff" d="M875.5 159.8l-4.6-13.4-73 11 72 28.4" />
    <path fill="#b8cbbc" d="M740 486.5l33.3 12.6 13.4-62-55.7 32" />
    <path fill="#fff" d="M41.2 300.4l191.6 2 55-7.5-106.4-7" />
    <path fill="#fa7e79" d="M247.4 139.2l-109.7 1.6 108 3.6L239 226" />
    <path fill="#fff" d="M717.5 396.3L589 282l-16 238.6 31-21.2" />
    <path fill="#350500" d="M152.6 383.2l-131 7 134.2-13.7 6.5 16.2" />
    <path fill="#fff" d="M21.4 76.4L-4 68.8l317.3-1.4-156 12.4" />
    <path fill="#f7ffff" d="M12.7 423l66 4 178.2-6.6L13 416" />
    <path fill="#be5c2a" d="M771.5 90.3L739 67.7l17.8-1L720 129" />
    <path fill="#f92705" d="M970.8 405L941 426.4l25.6-4.8 1.6-30" />
    <path fill="#0f0ae4" d="M832.6 135.6l-5.6 1.8-9.5-19 27.2 5.5" />
    <path fill="#fff" d="M276 129l-87.7.6-12.3 10 70.3-1.6" />
    <path fill="#8b8a88" d="M307.6 331.3l-7.4-86.5 8.2-51.5.7 86" />
    <path fill="#ae3735" d="M103.8 427.3H51.3l-25-.3 30.8 5" />
    <path fill="#ff2000" d="M965.6 369.5l-32.8-10-16.3 1.6 24.7-4" />
    <path fill="#555858" d="M783.3 363.6l11.5-18.6 34.2-31 10 13" />
    <path fill="#4d8a50" d="M855 128.6l-71-21.3 30.2.7 125.4-36.6" />
    <path fill="#370000" d="M136.2 155.3l22.8-8.5-72-1.5-52.5 8" />
    <path fill="#f05049" d="M96.5 237l-96 .5 85.6 2 23-1.5" />
    <path fill="#f0928d" d="M34 225.5L11 228l13.6-15.3 110.4 13" />
    <path fill="#b7b7b8" d="M646.4 263.7l3.7 89-23-91 70 83" />
    <path fill="#ec6e68" d="M21.3 301.5l29.4 9.4h95l-118.2 4" />
    <path fill="#9d5a5a" d="M257.8 84l-25-8-8 1-76.3 4.4" />
    <path fill="#fff" d="M902.4 224l6.8 125.4-13.3-5-125-126.7" />
    <path fill="#ff8b87" d="M242.2 412.2l-65 .3-92-2.4 151-1" />
    <path fill="#bcb5b8" d="M835.8 150.6l26-25.7-75 26 12.8 38" />
    <path fill="#fff" d="M669.7 325l-58-136L655 319l-93.3-3.2" />
    <path fill="#fb918c" d="M233.5 202l-84.4-3.5-64 1.5 49 4" />
    <path fill="#fb938e" d="M267 324.3l15.3 47.7-51.2-97 12 5.8" />
    <path fill="#f8918c" d="M312 122.7l-80.8-37 10.3 2 46.7 18.5" />
    <path fill="#f8fefd" d="M226.7 155l30.3 22.3L345.6 286l-103-111.7" />
    <path fill="#b3b4b5" d="M1004 422l-4 20.3-44.7-11.6 45.2-7.4" />
    <path d="M99 478.8l-67-1.4 40.5-7.7 90.3 8.6" />
    <path fill="#fff" d="M32.2 433.8h215l-25 10.3H-12.2" />
    <path fill="#fff" d="M246.3 543l-7.7-195 .4-14.6L304.8 450" />
    <path fill="#ff8b86" d="M240 114.4l7.4 72.4-5.2-78.5 45 32" />
    <path fill="#51215f" d="M925.5 407.5L896.2 341l5.6 47.8 45.6-6.5" />
    <path fill="#feffff" d="M64 347.6l172 5L-18.3 334l145.8-3.7" />
    <path fill="#cbcece" d="M942.3 343.4L925 321.6 913.2 352l-4 14.2" />
    <path fill="#f8817a" d="M153.3 222.4l155.8 2H195l-82 1" />
    <path fill="#ff1406" d="M59.7 470.2l28.5.7 119.4-1 18.2-1.5" />
    <path fill="#7f0d06" d="M204.7 149.8l30.8-.8 3 6-87.5-6" />
    <path fill="#400" d="M191.8 105l-2-6 17 14 16-9" />
    <path fill="#1b0fc5" d="M874.6 133.5l2.8 5v40.3l15-20.6" />
    <path fill="#989a9b" d="M528 52.3l38.7 2-89.2 2.6-55-5" />
    <path fill="#eb6b68" d="M164.2 352l-178.4 2.8h-.3l265.3-.2" />
    <path fill="#fcfeff" d="M820.8 133.8l-9-17-88.6 14.2-8.6 17" />
    <path fill="#f8ffff" d="M-31 147.2l112.2 23-84.4-.6L20.6-31" />
    <path fill="#d76762" d="M819.8 296.2l7.7-10.8L848 291l-3.4 16" />
    <path fill="#f6a8a4" d="M249.6 234.3l-175.2 3.4 54 5h-21.8" />
    <path fill="#feffff" d="M514 20L330 30l97.6 15.3-120-7.5" />
    <path fill="#eb7873" d="M12.6 162.6L46.8 145l33.5-2.7-57.5-4.5" />
    <path fill="#fff" d="M236.5 200.8L12 212.8l228.7.3 41.3 48" />
    <path fill="#f4edf1" d="M919.4 421.5L932 412l34-36-18 48.6" />
    <path fill="#fff" d="M813.2 386.5l2.7 14.7-101 6.2 41-28.5" />
    <path fill="#c56968" d="M55.8 23.7L261.2 26l-86-5-34.4 8.7" />
    <path fill="#fff" d="M156 543L15.3 488l1-419.4-47.4 441" />
    <path fill="#400200" d="M59 362l68 4.6 27.8 3.5 4.7-10" />
    <path fill="#f57873" d="M120.5 137L31 142l134-.3-71.7-4.6" />
    <path fill="#fff" d="M911.3 87.8L1055 200.4 984.5-31l-72.7 162.2" />
    <path fill="#909394" d="M553.8 8l25 9-87-2.8 78.4-5.6" />
    <path fill="#fff" d="M572 58v31l-267-2.3 86-31.3" />
    <path fill="#acb2b6" d="M712.8 328l-4.2 63.7-16-26.6 2-8" />
    <path fill="#84a784" d="M815.5 447.7l-44.4-5.2-32 4.2 42-24.7" />
    <path fill="#fff" d="M171.4 130l-129.7-2.8-48.6 4-4 6.4" />
    <path fill="#7d0000" d="M59.5 488.5l36-5 70.3 5.3-67.4.2" />
    <path fill="#675d5d" d="M901.2 418l-52.5-60.2 5.6 51.2-12.2 2" />
    <path fill="#6e6e6e" d="M573 176.2l3.7 43.8-4 39.6-1.7-51.8" />
    <path fill="#695650" d="M845.3 88.3L893 145l-40.4-.5L856 130" />
    <path fill="#f47670" d="M289.6 211l-52.8-69.6h16.8l-16.2 12" />
    <path fill="#ff2f2b" d="M921.6 355.2L892 405.7l12-35.2 23.7-9.5" />
    <path fill="#d1e6e5" d="M209 50.6l-153 .2-86.8-9 179.2-1" />
    <path fill="#fff" d="M669 543l-47.8-300.2-46.7 4.5L576 393" />
    <path fill="#515151" d="M460.7 502.7l20.5-5.3 110 .8-115.2 1" />
    <path fill="#505f58" d="M820.4 47.3l23.4 11-9.7 2L780 98" />
    <path fill="#eaffff" d="M155.4 389.6l-109.7.6-76.7-9 76.3 16.4" />
    <path fill="#fff" d="M629.8 238.3l-54.6-41v63l79-102.4" />
    <path fill="#feffff" d="M802.4-28L767.7 85.3l34-13.5-185-7" />
    <path fill="#3225c8" d="M836 421l-25-41.3 33 17.5-20.2 11" />
    <path fill="#77130d" d="M153.8 175l4 7L55 171l179.8 3" />
    <path fill="#f6857f" d="M25.8 198l152 2.5-97.7 2-74 1" />
    <path fill="#cad0ce" d="M329.3 198.6l5.5 97.8-5.3 179.3-12-136.7" />
    <path fill="#931c15" d="M157.2 381.3h87.6l-19 6.7-1.4-2.2" />
    <path fill="#df8380" d="M187.6 281.4l-17.3-1.4-50.3-2.4-33.6 3.5" />
    <path fill="#f3918d" d="M259.6 248.2l74.8 115.5-100.5-148 8-3.2" />
    <path fill="#9ec1c6" d="M187.8 477.6l11 6.5-167.6 1 2.5-1.2" />
    <path fill="#fcffff" d="M312.2 462l9-133.5-10-100-4 151.5" />
    <path fill="#f98f8a" d="M258 235l-29.7-21.8-63.5 2.5 80.8 3.8" />
    <path fill="#959596" d="M649.7 315.4L601.3 209v17.6l20 10.6" />
    <path fill="#706167" d="M750 77.5l8.7-6L794 52l-38 43" />
    <path fill="#fca9a5" d="M220 250.8l-104.7.8 70.8 16.2L80 265" />
    <path fill="#626262" d="M572 207.5l3.4-40L573 79l-.7 79.4" />
    <path fill="#fff" d="M274.3 241.7l-35-49 23.2 22.8 53.8 67.6M86.6 260l65.7 4.2 102-6.8-129.6-2.8" />
    <path fill="#fe8e89" d="M277.5 385.7l-3.3-10.6-33.2-69 69.6 129" />
    <path fill="#a0a697" d="M853.6 137.7l42.8 1.7-147.3 14-55-4" />
    <path fill="#fff" d="M98.7 395.6l100.5 12.8-214.6-1.6 154.5-6" />
    <path fill="#a0c7ca" d="M34.4 11L169 14 90.5 37h124" />
    <path fill="#a62920" d="M46.3 485l77.7 1.4L5 491l37-6.6" />
    <path fill="#2a0400" d="M119 476.6l-80-20.4-1.5 19.4 13.2 5.4" />
    <path fill="#71c56f" d="M920.7 125.5l-25.5 3-10.7 34.5 50.6-31.8" />
    <path fill="#e5f7f8" d="M234 373.3l-48.5 3.7-115 .6 142.2-12" />
    <path fill="#e0570b" d="M899 389l9.6 21.4 25.3 27.3-38-24.7" />
    <path fill="#27dc3e" d="M879.4 120l16-25.2-23-7.7-3.4 32" />
    <path fill="#f3736c" d="M76.3 330.8l147-1-67-4.7-68 4" />
    <path fill="#df8580" d="M323.8 183l-48-29-54-44 61 45.2" />
    <path fill="#fcfafc" d="M836.6 450.3l43-28.8-48.7-16.3 25-12.5" />
    <path fill="#fff" d="M148.4 267l98.5 11.2-127-1.7-132-5" />
    <path fill="#fa847d" d="M133.3 305.8l-111.6-2.3 127-1.4-14.4 6" />
    <path fill="#818384" d="M657.2 210l5-28.3 2.6 20 14.3 7.8" />
    <path fill="#1f1edf" d="M906.8 100.4l-15.3 20.2-3.6 3 27-2.6" />
    <path fill="#430a03" d="M233.6 37.2l8.4 13-64.4-14 38.2 3" />
    <path fill="#fff" d="M366.6 154.3l10-185.3.3 296-6 156.3" />
    <path fill="#b3b0b5" d="M871 161l33.4 62.5-71.8-48.3-3.3 54.3" />
    <path fill="#fff" d="M164 62.3l71 1.7 35-95 36 74.7" />
    <path fill="#8b918e" d="M310.3 49.6l40.5-5.4-36-2.2-4.8 5.2" />
    <path fill="#fff" d="M213 312.7l-115 10 61.2 5.6 67-8.4m513.2-206l-64.6-5-98.3 123-.5-263" />
    <path fill="#dc6d68" d="M220.7 160.6L324.2 287l-23.7-27.3-6-6" />
    <path fill="#e96862" d="M28 127l211.7-2-164.3-2.6H15.2" />
    <path fill="#d64f4c" d="M49.6 36.2L162.4 38l-126.6.8-28.6-4" />
    <path fill="#fff" d="M74.2 101l165.3-11.2-207.3.3-47 8" />
    <path fill="#cc8481" d="M35.3 106.3l-13.8 2-.2-9 155.6 2.3" />
    <path fill="#86db81" d="M902.4 383.3l3.6 22.2 10.7 10 6-14.6" />
    <path fill="#fff" d="M691.4 342l159-60.2 164.4-53.6-371.3 10.2" />
  </g>
</svg>