<svg version="1.1" viewBox="0 0 1024 512" width="1024" height="512" xmlns="http://www.w3.org/2000/svg">
  <g fill-opacity=".5">
    <path fill="#8a312c" d="M776 324l31 21 7 1-2-25" />
    <path fill="#fff" d="M297 97L309-6 34 9l194 5m683 356l2 11 43-9-25-8" />
    <path fill="#0d00e4" d="M864 86l16-19 26 18-13-7" />
    <path fill="#230200" d="M148 178l-44-10-62 8-8 7" />
    <path fill="#fff" d="M752 379l55-28 6 18-100 41" />
    <path fill="#76c56d" d="M893 126l33 85-31 6 34-78" />
    <path fill="#fff" d="M-31 294l192 8-55-82 45 70" />
    <path fill="#4b2521" d="M223 495l-25-9 44-11-10 23" />
    <path fill="#575b5d" d="M305 14l28 2 195-2-117-2" />
    <path fill="#ffa09a" d="M19 11l11 31-10 151-6-12" />
    <path fill="#d1d3d3" d="M962 117l9 35 72 23-140-11" />
    <path fill="#f65c53" d="M179 216l-46 2-129-2 84-1" />
    <path fill="#460600" d="M199 171l9 10 9 4 39-8" />
    <path fill="#fa7973" d="M86 341h117l-147 5-31-5" />
    <path fill="#e38482" d="M14 288l-22 6 55-17 61 12" />
    <path fill="#ee664f" d="M844 17l5 15-12 10-15-16" />
    <path fill="#200" d="M240 422l-35 1 2 8 30-1" />
    <path fill="#fff" d="M27 54l-58-1 76 11 345-8" />
    <path fill="#d0d4d7" d="M728 380l-84-85-14 39h128" />
    <path fill="#fff" d="M782 531l95-110-32-9-65 41" />
    <path fill="#f0f6f6" d="M309 405l52 85-4-175-47 21" />
    <path fill="#fff" d="M824 89V78l-75 32 9 34M33 317l-63-1 99 11 165-7" />
    <path fill="#e16d69" d="M86 397l86 3-135 3-38-5" />
    <path fill="#fff" d="M577 13l230 43 47-87-418 44" />
    <path fill="#b2c3bd" d="M886 480l58-47-109 14-9 43" />
    <path fill="#1d0000" d="M58 360l97 8-120 4 4-17" />
    <path fill="#ba4e02" d="M711 407l-1 4 59-55h-26" />
    <path fill="#fbffff" d="M191 385L44 395l115 1 90-4" />
    <path fill="#fff" d="M730 197l31-35-57-7-66 388" />
    <path fill="#95a0a7" d="M677 214l21-42-68 68 11-27" />
    <path fill="#fff9f8" d="M197 407l-82 19 69 2 105-21" />
    <path fill="#fff" d="M157 485l5 16 141-4-179 46" />
    <path fill="#444c47" d="M368 24l-50-2-3 4 16 4" />
    <path fill="#93c4c7" d="M156 196l7-7-121 2 93 7" />
    <path fill="#fff" d="M876 160l-5-14-73 11 72 29" />
    <path fill="#b8cbbc" d="M740 487l33 12 14-62-56 32" />
    <path fill="#fff" d="M41 300l192 2 55-7-107-7" />
    <path fill="#fa7e79" d="M247 139l-109 2 108 3-7 82" />
    <path fill="#fff" d="M718 396L589 282l-16 239 31-22" />
    <path fill="#350500" d="M153 383l-131 7 134-14 6 17" />
    <path fill="#fff" d="M21 76l-25-7 317-2-156 13" />
    <path fill="#f7ffff" d="M13 423l66 4 178-7-244-4" />
    <path fill="#be5c2a" d="M772 90l-33-22 18-1-37 62" />
    <path fill="#f92705" d="M971 405l-30 21 26-4 1-30" />
    <path fill="#0f0ae4" d="M833 136l-6 1-9-19 27 6" />
    <path fill="#fff" d="M276 129l-88 1-12 10 70-2" />
    <path fill="#8b8a88" d="M308 331l-8-86 8-52 1 86" />
    <path fill="#ae3735" d="M104 427H26l31 5" />
    <path fill="#ff2000" d="M966 370l-33-10-16 1 24-4" />
    <path fill="#555858" d="M783 364l12-19 34-31 10 13" />
    <path fill="#4d8a50" d="M855 129l-71-22 30 1 126-37" />
    <path fill="#370000" d="M136 155l23-8-72-2-52 8" />
    <path fill="#f05049" d="M97 237l-96 1 85 2 23-2" />
    <path fill="#f0928d" d="M34 226l-23 2 14-15 110 13" />
    <path fill="#b7b7b8" d="M646 264l4 89-23-91 70 83" />
    <path fill="#ec6e68" d="M21 302l30 9h95l-119 4" />
    <path fill="#9d5a5a" d="M258 84l-25-8-8 1-76 4" />
    <path fill="#fff" d="M902 224l7 125-13-5-125-126" />
    <path fill="#ff8b87" d="M242 412h-65l-92-2 151-1" />
    <path fill="#bcb5b8" d="M836 151l26-26-75 26 13 38" />
    <path fill="#fff" d="M670 325l-58-136 43 130-93-3" />
    <path fill="#fb918c" d="M234 202l-85-3-64 1 49 4" />
    <path fill="#fb938e" d="M267 324l15 48-51-97 12 6" />
    <path fill="#f8918c" d="M312 123l-81-37 10 2 47 18" />
    <path fill="#f8fefd" d="M227 155l30 22 89 109-103-112" />
    <path fill="#b3b4b5" d="M1004 422l-4 20-45-11 45-8" />
    <path d="M99 479l-67-2 41-7 90 8" />
    <path fill="#fff" d="M32 434h215l-25 10H-12" />
    <path fill="#fff" d="M246 543l-7-195v-15l66 117" />
    <path fill="#ff8b86" d="M240 114l7 73-5-79 45 32" />
    <path fill="#51215f" d="M926 408l-30-67 6 48 45-7" />
    <path fill="#feffff" d="M64 348l172 5-254-19 146-4" />
    <path fill="#cbcece" d="M942 343l-17-21-12 30-4 14" />
    <path fill="#f8817a" d="M153 222l156 2H195l-82 1" />
    <path fill="#ff1406" d="M60 470l28 1 120-1 18-2" />
    <path fill="#7f0d06" d="M205 150l30-1 4 6-88-6" />
    <path fill="#400" d="M192 105l-2-6 17 14 16-9" />
    <path fill="#1b0fc5" d="M875 134l2 5v40l15-21" />
    <path fill="#989a9b" d="M528 52l39 2-89 3-55-5" />
    <path fill="#eb6b68" d="M164 352l-178 3h-1 266" />
    <path fill="#fcfeff" d="M821 134l-9-17-89 14-8 17" />
    <path fill="#f8ffff" d="M-31 147l112 23H-3L21-31" />
    <path fill="#d76762" d="M820 296l7-11 21 6-3 16" />
    <path fill="#f6a8a4" d="M250 234l-176 4 54 5h-21" />
    <path fill="#feffff" d="M514 20L330 30l98 15-120-7" />
    <path fill="#eb7873" d="M13 163l34-18 33-3-57-4" />
    <path fill="#fff" d="M237 201L12 213h229l41 48" />
    <path fill="#f4edf1" d="M919 422l13-10 34-36-18 49" />
    <path fill="#fff" d="M813 387l3 14-101 6 41-28" />
    <path fill="#c56968" d="M56 24l205 2-86-5-34 9" />
    <path fill="#fff" d="M156 543L15 488l1-419-47 441" />
    <path fill="#400200" d="M59 362l68 5 28 3 5-10" />
    <path fill="#f57873" d="M121 137l-90 5h134l-72-5" />
    <path fill="#fff" d="M911 88l144 112-70-231-73 162" />
    <path fill="#909394" d="M554 8l25 9-87-3 78-5" />
    <path fill="#fff" d="M572 58v31l-267-2 86-32" />
    <path fill="#acb2b6" d="M713 328l-4 64-16-27 2-8" />
    <path fill="#84a784" d="M816 448l-45-6-32 5 42-25" />
    <path fill="#fff" d="M171 130l-129-3-49 4-4 7" />
    <path fill="#7d0000" d="M60 489l36-5 70 5H98" />
    <path fill="#675d5d" d="M901 418l-52-60 5 51-12 2" />
    <path fill="#6e6e6e" d="M573 176l4 44-4 40-2-52" />
    <path fill="#695650" d="M845 88l48 57h-40l3-15" />
    <path fill="#f47670" d="M290 211l-53-70h17l-17 12" />
    <path fill="#ff2f2b" d="M922 355l-30 51 12-36 24-9" />
    <path fill="#d1e6e5" d="M209 51H56l-87-9 179-1" />
    <path fill="#fff" d="M669 543l-48-300-46 4 1 146" />
    <path fill="#515151" d="M461 503l20-6 110 1-115 1" />
    <path fill="#505f58" d="M820 47l24 11-10 2-54 38" />
    <path fill="#eaffff" d="M155 390H46l-77-9 76 17" />
    <path fill="#fff" d="M630 238l-55-41v63l79-102" />
    <path fill="#feffff" d="M802-28L768 85l34-13-185-7" />
    <path fill="#3225c8" d="M836 421l-25-41 33 17-20 11" />
    <path fill="#77130d" d="M154 175l4 7-103-11 180 3" />
    <path fill="#f6857f" d="M26 198l152 3-98 2-74 1" />
    <path fill="#cad0ce" d="M329 199l6 97-5 180-12-137" />
    <path fill="#931c15" d="M157 381h88l-19 7-2-2" />
    <path fill="#df8380" d="M188 281l-18-1-50-2-34 3" />
    <path fill="#f3918d" d="M260 248l74 116-100-148 8-4" />
    <path fill="#9ec1c6" d="M188 478l11 6-168 1 3-1" />
    <path fill="#fcffff" d="M312 462l9-133-10-100-4 151" />
    <path fill="#f98f8a" d="M258 235l-30-22-63 3 81 3" />
    <path fill="#959596" d="M650 315l-49-106v18l20 10" />
    <path fill="#706167" d="M750 78l9-6 35-20-38 43" />
    <path fill="#fca9a5" d="M220 251l-105 1 71 16-106-3" />
    <path fill="#626262" d="M572 208l3-40-2-89-1 79" />
    <path fill="#fff" d="M274 242l-35-49 24 22 53 68M87 260l65 4 102-7-129-2" />
    <path fill="#fe8e89" d="M278 386l-4-11-33-69 70 129" />
    <path fill="#a0a697" d="M854 138l42 1-147 14-55-4" />
    <path fill="#fff" d="M99 396l100 12-214-1 154-6" />
    <path fill="#a0c7ca" d="M34 11l135 3-78 23h124" />
    <path fill="#a62920" d="M46 485l78 1-119 5 37-7" />
    <path fill="#2a0400" d="M119 477l-80-21-1 20 13 5" />
    <path fill="#71c56f" d="M921 126l-26 3-10 34 50-32" />
    <path fill="#e5f7f8" d="M234 373l-48 4-115 1 142-12" />
    <path fill="#e0570b" d="M899 389l10 21 25 28-38-25" />
    <path fill="#27dc3e" d="M879 120l16-25-23-8-3 32" />
    <path fill="#f3736c" d="M76 331l147-1-67-5-68 4" />
    <path fill="#df8580" d="M324 183l-48-29-54-44 61 45" />
    <path fill="#fcfafc" d="M837 450l43-28-49-17 25-12" />
    <path fill="#fff" d="M148 267l99 11-127-2-132-4" />
    <path fill="#fa847d" d="M133 306l-111-2 127-2-15 6" />
    <path fill="#818384" d="M657 210l5-28 3 20 14 7" />
    <path fill="#1f1edf" d="M907 100l-16 21-3 3 27-3" />
    <path fill="#430a03" d="M234 37l8 13-64-14 38 3" />
    <path fill="#fff" d="M367 154l10-185v296l-6 156" />
    <path fill="#b3b0b5" d="M871 161l33 63-71-49-4 54" />
    <path fill="#fff" d="M164 62l71 2 35-95 36 75" />
    <path fill="#8b918e" d="M310 50l41-6-36-2-5 5" />
    <path fill="#fff" d="M213 313L98 323l61 5 67-8m513-206l-64-5-98 123-1-263" />
    <path fill="#dc6d68" d="M221 161l103 126-24-27-5-6" />
    <path fill="#e96862" d="M28 127l212-2-165-3H15" />
    <path fill="#d64f4c" d="M50 36l112 2-126 1-29-4" />
    <path fill="#fff" d="M74 101l166-11H32l-47 8" />
    <path fill="#cc8481" d="M35 106l-14 2v-9l156 3" />
    <path fill="#86db81" d="M902 383l4 23 11 10 6-15" />
    <path fill="#fff" d="M691 342l159-60 165-54-372 10" />
  </g>
</svg>