<svg version="1.1" viewBox="0 0 1024 512" width="1024" height="512" xmlns="http://www.w3.org/2000/svg">
  <g fill-opacity=".5">
    <path fill="#c1d8a9" d="M306 127.3L513.7 268l-432 79.8L274 55.2" />
    <path fill="#8d3f6b" d="M194.7 67l-90 .5L121 213.3 58.5 161" />
    <path fill="#19435a" d="M339.8 212l64 .4 5.7-31L332 179" />
    <path fill="#b8e598" d="M373.4 249l-273-29L13 291.3 268 334" />
    <path fill="#ca4a3a" d="M581.3 301.8l-79.6 112 138.8-161 81-101.7" />
    <path fill="#836c3d" d="M294 207.4l-15.5-61-28.8-31.5 8.4 78" />
    <path fill="#fff" d="M1055 23L291.7-31 302 247l44.4-65.7" />
    <path fill="#904472" d="M212.2 50L118 95l104 19.5L167.5 87" />
    <path fill="#feffff" d="M353 230l273.7-33.4L631 244 413.5 516.8" />
    <path fill="#d21d89" d="M35.5 409.2l-66.5-10 204 5.8-42.7 2.2" />
    <path fill="#2b5b02" d="M365.8 407.2l-115-.7 49-3.5 139.3.8" />
    <path fill="#a62764" d="M195.5 52L221 74.5l-11.7 44.2 30-44.3" />
    <path fill="#81221f" d="M250.4 195.5l-15 5.5H104.6l19.4-4.8" />
    <path fill="#fff" d="M246 118.7l8.5 103.4-83.8-3-63-123" />
    <path fill="#9c4073" d="M28.6 192.5l84.4-12.3-65-43.4 68 15.4" />
    <path fill="#e83e67" d="M136 455l44.7 2.8L12 462.3l20.4-8" />
    <path fill="#9a9a9c" d="M511 117l73 2 20.4-13.5-62.8-6.2" />
    <path fill="#c8895a" d="M65 404.5l171-3.6-1-14 48.5 21" />
    <path fill="#fff" d="M603 296.3l-386 31L-31 311l276 94" />
    <path fill="#99999c" d="M543.8 172.4l66 5.6-6 9.7-91 6.3" />
    <path fill="#68686b" d="M765.5 463l22.4-.4 23-7.6-108-1.7" />
    <path fill="#9f2d70" d="M34 160.8l-2 27.5-7-36.4 31-26" />
    <path fill="#a45181" d="M107.7 38L120 69.6l-6 78.6-7 53.4" />
    <path fill="#36989e" d="M338.4 463.5l-11-10.3L443 463.5 385 453" />
    <path fill="#79797c" d="M149.2 371l-73.6 6.2-50.6-3.7 37-5.4" />
    <path fill="#7eb7da" d="M959.5 114.3l70-40.3-87.7 57.8-244.5 138" />
    <path fill="#59565c" d="M478 235.7l-9.5-2h19l-1.7 54.4" />
    <path fill="#b95952" d="M555 352.6L526 389l-12.2-6.6 108.7-115.2" />
    <path fill="#468ea6" d="M485.7 402l-196-.5 155.2 7.3 31-4.3" />
    <path fill="#9b9066" d="M238.3 208l34.7-13 6 3 12.3-89.5" />
    <path fill="#c6c6c9" d="M915 311.7l38-76.8 45 3-87.7-86" />
    <path fill="#5684cf" d="M457.8 172.7L480 196l-18.7 15.7-9.8-3.4" />
    <path fill="#70b1dd" d="M305 145.2l-1.4-13 98 5.6-47.6 9" />
    <path fill="#fff" d="M108-23L-31 12.5l113.3 140 27-14.7m-15.4 40l-125 44.7 134 11.2 6-48.4" />
    <path fill="#4287b2" d="M108.8 241l-4 30.8-17.3-1.2-2.7-32.4" />
    <path fill="#6bafdd" d="M125.5 39.8l-31.8-3.5 8.5-23.6 32.8 2" />
    <path fill="#fdc27a" d="M11.8 103.5l-1.3-7.7 119 11.8-121.7 4.2" />
    <path fill="#fff" d="M-31 378l226.2-32L44 297.3-5.4-31" />
    <path fill="#395f4d" d="M419 178.4L323.7 218l60.6-25.5-52.2-11.2" />
    <path fill="#fff" d="M285.8 195l68.3 13.8-60-81.2-8-1M48-10.4l403.6 163 269-150-747-2.7m743 224L827 529l186.6 14-30-242.7" />
    <path fill="#fffdff" d="M422.2 227.7l-130-25-146.7.5L480 266.5" />
    <path fill="#fff" d="M422.7 407.4L387.3 543l471.5-25.7L609 407" />
    <path fill="#5e9bb7" d="M344.2 230l-62.8 9.8 35.7 24.8 34-84" />
    <path fill="#9c6178" d="M422 223.7l-28.7 6.7v-8.7l15-20.3" />
    <path fill="#8c9d98" d="M383 458.4l-13-8.4-105.2 16.3-45-12.2" />
    <path fill="#a72a73" d="M13.7 141.5l35.7 51.8 31-17.4-44 13" />
    <path fill="#fff" d="M-31 511.8l622.5 10.6L-31 409l455.8.3" />
    <path fill="#8f8f91" d="M904 270.5l113 7.6-107 2 14.6-10" />
    <path fill="#8d893a" d="M291.4 190.3l-51.6 12.5-75.3-4 57.5-3" />
    <path fill="#d499a6" d="M709.5 98.8l50 16L594 292.6 752.8 99.2" />
    <path fill="#abc6d7" d="M718.7 304L697 279.8l-109.5 56.5 165-102.4" />
    <path fill="#b39c3d" d="M255.5 74.4L294 101l-17-22.3-36 30.3" />
    <path fill="#c7c8cc" d="M680.4 463.5l25.8-91.5-32.8-77-.7 98.5" />
    <path fill="#c0c0c3" d="M889.5 331l-14-48.8 1.6 158.6 10-17.4" />
    <path fill="#9c96a2" d="M455 273.5l2 6-74.4 4.4 6.2-16" />
    <path fill="#42bf69" d="M228.8 312l-2.7 8.7-70-1.4 31-8.6" />
    <path fill="#b4b5b8" d="M637 327.7l5.4 104.2-28 19 15.6-40" />
    <path fill="#fff" d="M247.7 136.4L251 196l-148.7-31.6 70.5-65.7m50.7-14l831.5-77L-13.5-31 261.8 73.6" />
    <path fill="#fff" d="M799 103.3l256-19.6L1017.8-31 247 78.3" />
    <path fill="#915d7b" d="M187.7 102.5l-17.2-3.7-61.4-29 55-3.4" />
    <path fill="#c32680" d="M50.2 387.4L41.6 408l160-4-147-.6" />
    <path fill="#fffa31" d="M194.5 444.5l-36.8 8 42 6.2-60.5.3" />
    <path fill="#990057" d="M227 96l-19 14-36.2-14 17 12.3" />
    <path fill="#fff" d="M266 141.8l26.3-34.7-19.5-15-24.6 6" />
    <path fill="#b09b2a" d="M283.6 195.8L290.3 88l13 31-25.3 6" />
    <path fill="#a7a7a9" d="M885.4 429.7L980 427l-142.7-.6-123 1.7" />
    <path fill="#f2353c" d="M370.6 174l-7.6-.2 19.5-.8-10.4-11" />
    <path fill="#c87139" d="M220 132.4l32.6-2L244 90l-1 32.3" />
    <path fill="#9ea8aa" d="M817 200l47-12-206 4.2 83.7-3.2" />
    <path fill="#a03071" d="M188.8 60.5L147 80.2l71-21.4-15.5-2.3" />
    <path fill="#fff" d="M929.8 139.5l-367-22-249.2 41L549.3 178" />
    <path fill="#9a135f" d="M27.3 147.6l31.3-13.3 6.5 7.4 11-2" />
    <path fill="#177caa" d="M409.5 215.4l-79.7-6 14.2-4 76 3" />
    <path fill="#a1a2a3" d="M803.6 116l-79.4-1.7-176.7 2 189.8 2.6" />
    <path fill="#b8e5cc" d="M121.8 92.2l48-.2 3.3-16.2-90-.4" />
    <path fill="#a35971" d="M107 215.5l-5.5-12L218 199l-98-4.6" />
    <path fill="#e23a41" d="M431.7 382.3l-9 3 2.5 14.3 3.8 3.5" />
    <path fill="#d31f1e" d="M337.6 385l-2-2.8 5.2 25.6 4.8-16.2" />
    <path fill="#bf2751" d="M239.4 82.8l-32-29.4 19 28L248.2 69" />
    <path fill="#c2c0c6" d="M995 227.7L817 245l4.3-16.5-48-4.3" />
    <path fill="#bed0bc" d="M976.2 117.2l-181.6.4 107.3-20-4 13.6" />
    <path fill="#d3edb2" d="M380 273.5L166.8 231l-122 74.2 273 14.8" />
    <path fill="#fff" d="M31 168.7l29.4 17.6 13.8-28-21.7-16.7" />
    <path fill="#6a6a6a" d="M549 185.8l34-2.3-14.6-4.3-43.2-.8" />
    <path fill="#b4b6ba" d="M741.3 363.5l.2-28.4 13.2-26-2.4 123" />
    <path fill="#beb9b9" d="M742.6 201.8L669 212l56.5-24.5-154.6 3.3" />
    <path fill="#a50561" d="M100.8 97.8l31-3 10.4-5.4 44 10.7" />
    <path fill="#185030" d="M415 187.5l-4.2-18.3-5 14.3-82 .8" />
    <path fill="#fff" d="M-4-1.7l76.3-6 45.3 99-148.6 12" />
    <path fill="#e0b35d" d="M288 196.7l5.5 47.8 7.2-33.8 2.3-19.5" />
    <path fill="#fff" d="M226.4 193.4l11-78.7-122.6-6.8.6 88" />
    <path fill="#fff" d="M19 459.4L-.2 131 1 543l889.6-74.4" />
    <path fill="#fff" d="M399.8 359.6l-53-146 49.5-.3-12 77.7" />
    <path fill="#a4a6ac" d="M429.6 230.6l-2.4-57-8-1.7 21 15" />
    <path fill="#ffff07" d="M223 404l57.3-2.2 4.6 2-61 5.3" />
    <path fill="#d527a0" d="M41 460l40-1.4-60.2-5.5-5.2 7" />
    <path fill="#cbcbcd" d="M482.3 422l37 26.8 20.8-17.5 72-3.5" />
    <path fill="#fff" d="M-18.4 264.4l157-42.7 66-1.7-206-40M818 434L694 283.4l11.6 124.3 175-205.6" />
    <path fill="#ae0568" d="M113.8 77.5l-4 68-43.4 4.6 45.4 6" />
    <path fill="#717172" d="M725.4 461l-2-8.5 98.6 9.3-64.5-2.3" />
    <path fill="#cbd1d6" d="M873.6 304.7l88.4-2.4-75.3-15.7-7.2-111.7" />
    <path fill="#bbbbbe" d="M1003.4 410.7L999 272l-3.3 105 1 34.6" />
    <path fill="#f0baa7" d="M766.3 101.5l-86 99.2 83-111.6 29-20" />
    <path fill="#81a8c9" d="M577.8 344.3L653 299l-137.4 76-6.8 13.4" />
    <path fill="#cdeaa9" d="M190 328L51.6 251l-21.3 25 52.3 39.5" />
    <path fill="#fff" d="M461.8 269.8l48-81.7-80.8 35-76 47" />
    <path fill="#6d6b6f" d="M488.5 256.4l-4.4-28-5 54.6 15-35.8" />
    <path fill="#e57053" d="M697 183.7l-21.8 9.4L555 351l-49 53.4" />
    <path fill="#c8cfd3" d="M587 355.3l31.6 19.6 5.4-100 51 57" />
    <path fill="#f9624a" d="M242.2 381l1.5 28.8-12.4-18.2 11.6-5.2" />
    <path fill="#949494" d="M596.4 106.6l-3.4-9-31.7 14.3-73-13" />
    <path fill="#fff" d="M447.3 513.6l285.2-53 164 2.5 158.5 48" />
    <path fill="#28718d" d="M339.4 207.2l-5 12.7 5.6 12 7.6-44" />
    <path fill="#a1a0a3" d="M997.3 130.6l-5.6 8.7 15 1.6-61.4-5" />
    <path fill="#5dacb6" d="M356 462.3l69.6-2.8-8.8-5-88 3.5" />
    <path fill="#c9b1b0" d="M410 186l-80.6 2.7 31.5 16 46-6.8" />
    <path fill="#fff" d="M-31 111.7l131 1.3-3.6-66.8 13.2 105.2M333-31l-46 181 70.4-56.5 697.6-19" />
    <path fill="#a0a5c8" d="M260 180l4.8-55.5 10.7 19.8 4.3 55" />
    <path fill="#fecd54" d="M192.7 454.3l-7.5-4.4 24.3 11h-133" />
    <path fill="#9d375d" d="M107 151.7l1.4-34 8-39L111 229" />
    <path fill="#acacae" d="M817.6 164l-52.5 2.7-5-8.3 31 1.3" />
    <path fill="#fff" d="M380.6 280l-120 73.8 125.8 51.5 182-82.4" />
    <path fill="#fffeff" d="M3.5 453.7l237.7.3L97 406l-128 3.4" />
    <path fill="#fff" d="M514.6 409.7l105 17.5 9-54L547 363" />
    <path fill="#b39063" d="M230.5 133l22.2-19.8 1 64.2 25-44.6" />
    <path fill="#fff" d="M255.5 103.2L255 126l-141.7 66.3 139.2 2" />
    <path fill="#1b95c4" d="M483.5 402l-62.8 2-15 2.5H486" />
    <path fill="#e01d9e" d="M124.3 453l-8.3 7.7-116.5-3 98.8-1.8" />
  </g>
</svg>