<svg version="1.1" viewBox="0 0 1024 512" width="1024" height="512" xmlns="http://www.w3.org/2000/svg">
  <g fill-opacity=".5">
    <path fill="#fff" d="M-31 365.8h156.5l-88-83.8-16.7-165.6" />
    <path fill="#a8a7ab" d="M937.5 159.2l70.7 10.4.7 6.4-15-16.6" />
    <path fill="#fff" d="M807.5 214l-177 100 89.8-43.7 157 156.6" />
    <path fill="#fff" d="M702 452l-296.3 4 311.5 87 33-301M115 160.4L223 192l-41.4-91.5h-66.3" />
    <path fill="#fffeff" d="M416 307.2l-7.8-35-7.2-66.6 11.7 15.3" />
    <path fill="#c8aeac" d="M874.5 243l45 7 38 2.7-10-11" />
    <path fill="#fff" d="M1025.6-28.4l.2 558.5-15-1-2.2-429" />
    <path fill="#c5c5c6" d="M520.5 115.3l-6 190.2L519 76.7l-25.4 28" />
    <path fill="#9b9699" d="M229.6 459l34-8.2 32 6.2-64.7 6.3" />
    <path fill="#b4babb" d="M838 149l41-2.5-.4 101-1.2-79.3" />
    <path fill="#9f9fa1" d="M921 279.2l59 .6 22.6-7.5-88 2.6" />
    <path fill="#fff614" d="M260.7 404.7l25 2.7h13l.7-6.2" />
    <path fill="#fff" d="M643.8 543l-3.6-262.3v30l40 48.4M-31 408l456.4 5.4-118.4 54-7.3-12.6" />
    <path fill="#d3ecb4" d="M310.3 231l-70-11.6-113.5 4.7 24 100" />
    <path fill="#ea8185" d="M41.3 376.5l-11-13.7L54 389l-5 22" />
    <path fill="#fbfdff" d="M763 194.3l195.7-1.6 53.4 77.8-20-54" />
    <path fill="#bbb8b6" d="M515.4 219l2.5 31.8 3 120-6 72" />
    <path fill="#b9b4c6" d="M133.3 487.2l-2.6 3.7 11.3 6-4.3-58" />
    <path fill="#fff" d="M94 378l-101.6-1 149.4 27 232.7-41" />
    <path fill="#939695" d="M921.8 191.5l30-1.8-272-.4 187.3 3.4" />
    <path fill="#bfbfc0" d="M618.5 431.5l-61.3-3.5 120-2.8 23.4 2.8" />
    <path fill="#e4cb81" d="M371.3 269l-9.6.2-22.3-24.2 1.6-19.8" />
    <path fill="#f3cf86" d="M114 253.2l-10.2-38-4-17 13.5.2" />
    <path fill="#b7c2bf" d="M705 294.5l42.3-89.4-68.5-3 55.2 6" />
    <path fill="#ad8cc0" d="M644.8 237.2l-6 8-16 4.4 64.7-63" />
    <path fill="#8b2c63" d="M111.8 72.7l-7-12.3 7.6-16.8 5.3 52.4" />
    <path fill="#c5c5c7" d="M1022.8 431l-45.8-9-26.8 31.3-4-27" />
    <path fill="#f8c380" d="M23.5 108l86-13-10.3 1-7.3 15" />
    <path fill="#cf0a7d" d="M186.4 73L140 67.4 115 70l-30 2" />
    <path fill="#fff" d="M502.4 170l-355-201L118 67l88-13m328.3 141l-25-101 33.4 223L624 191" />
    <path fill="#979798" d="M140 375.7l-1.4 5 4-12-109 6.8" />
    <path fill="#295c6b" d="M409 213.2l16 21.3-16.7-30-23.3 2" />
    <path fill="#82b9db" d="M847 180.8l-108.3 70.8-4.2-5 27.8-14" />
    <path fill="#a7a7a7" d="M948.7 222l34-5.2-41.7-4.4-20.2 1" />
    <path fill="#fff" d="M853 246l3-62.7-37.7 33.5 127.5 22.5" />
    <path fill="#fcffff" d="M288.4 150l46 111.3 2-88.3 149.2-34.4" />
    <path fill="#fff" d="M402.8 204.7L407 186l15.7-3.2 8.8 32.5" />
    <path fill="#aae494" d="M842.6 101l36.3-1.7 35 8-53-.8" />
    <path fill="#a1236c" d="M29.3 190.2l67.6-14-25-3.8-4 17" />
    <path fill="#fff" d="M890 410.8l93 17.8 15-116.4-104.4-11" />
    <path fill="#c0c0c2" d="M756.2 426l-30 23.8 7-20-84-4" />
    <path fill="#080400" d="M258 168.3l1.2-1 20.2 1.2L260 171" />
    <path fill="#fff" d="M308 402l201-132-242 54.4-235 14M917.2 233l121 31-150.8-8.3 128.2-18.7m-775-131.5l-25 89.6L112 173l-1.5-17.2" />
    <path fill="#9ac6e0" d="M985.7 120.5l-40-15-2.2-10.8 13 2.3" />
    <path fill="#fff" d="M749.5 291l120.3-51.7 3.6 187.3-112.6-4" />
    <path fill="#a8cedb" d="M342.7 130.8L329 171l-28 118 30.6-113" />
    <path fill="#fff" d="M103.8 182L77 179.5-31 265l136.7-45.7m170-21.5l20.6 22.2-161-.5 129-19.4" />
    <path fill="#bfb8be" d="M474.4 368.8l63.7-22 40-29.6-34 43.6" />
    <path fill="#fff" d="M174 79.7l19.6-15.5L223.3 80l-7.6 21.8" />
    <path fill="#fd7a7a" d="M724.8 111.6L712 102l28.3-1-3.7 2" />
    <path fill="#fff" d="M791.6 444.6l76 92L1055 509l-34-63.2" />
    <path fill="#c1eac3" d="M583.8 320.4l1.3-4.7 223-145.5-92 64.6" />
    <path fill="#fff" d="M253.7 146.2l270 40.6L208-31l176.2 177.8" />
    <path fill="#bdbcbd" d="M628 106.8l-1.3 33.2 1 132.8 3-107.3" />
    <path fill="#d1ba0c" d="M256 210.4l-2.6-97.6 4.5 18 1 44" />
    <path fill="#7ab2d9" d="M121 23.5l-4.2-4.2-24.4 1.5 4.3 26" />
    <path fill="#99999a" d="M29 367l8.4-.2 112.6 9L32 373" />
    <path fill="#9d8f20" d="M284.8 182.3l.2-52.6-8.6 23.5 3 51.2" />
    <path fill="#fff" d="M1055 88.5L154.5-31l74.8 106.5 75.4-16.3" />
    <path fill="#b7a8bb" d="M351.3 490l11.7 3.7-3.8-38.7-5.3 35" />
    <path fill="#fff" d="M250.2 121.6l31 4.7 10.5-12.4L265 88" />
    <path fill="#703658" d="M125.5 101L136 85.8l-16.8 18 7.5-33" />
    <path fill="#93165d" d="M49.4 190l16.6.2-34.4-13-2 3" />
    <path fill="#979b9a" d="M633.8 189l-87.2 1.3 80 2 174-2.5" />
    <path fill="#aeaeb0" d="M587 357l46-4.7 3.7 66.2 4.3-75" />
    <path fill="#fff" d="M453.3 386.4L71 311l26 85.5-3.3-30.4" />
    <path fill="#85bad9" d="M616.6 320l105.7-59 17-13-55.8 29.7" />
    <path fill="#9a075a" d="M82 153l-23.4-19.2-18 8 17.7 1" />
    <path fill="#fff" d="M751.8 160l-74.2 54.6 75-96 131.6 4" />
    <path fill="#72a8be" d="M305.5 264l16.3-5 11-20.6-43 12.5" />
    <path fill="#16512e" d="M394 182.4l-44.5 7.4-17.5-6.6 8-2.5" />
    <path fill="#aeadae" d="M905.6 184.5l37.5-1-7-6.2-39-2" />
    <path fill="#b7b6b8" d="M504.2 301.8l-1.4.4-19.6.6 32-15.8" />
    <path fill="#a09905" d="M256.4 135.7L243 111.3l10.6-29-6.6 28" />
    <path fill="#1d6b4e" d="M332.2 401.7l30.4 4h-53L348 397" />
    <path fill="#fff" d="M69.6 160.5l5.2 11L49.4 187l9.7-37.6" />
    <path fill="#d2daca" d="M116.4 453.6L222 405.2l-83.2 44.4 7 11" />
    <path fill="#bec2c3" d="M745.5 279l-2 49.7-2.7-37.2 1-170.8" />
    <path fill="#cfebb1" d="M202.2 332.6l104.6-16 51.6-18.2L376 259" />
    <path fill="#81a2d8" d="M475 197.5l-35.6-17.8 20-4 14 5.7" />
    <path fill="#e0e1e2" d="M264.6 185.8l-7 8.2 70.4-7-35.6 6.3" />
    <path fill="#65a5cf" d="M924.7 135l53-30.2-36.3 23L820 199.4" />
    <path fill="#afafb1" d="M492.6 167.2l13.8-6.7 10-5.7-10.8 18.5" />
    <path fill="#9f949e" d="M976.3 228l-107.7-.6 99.4 7 21.3-2.3" />
    <path fill="#fff" d="M797.2 104.3l113.6 6L823 116l-52.8-10.6" />
    <path fill="#b0afb1" d="M514.2 228.3l-3-2.6-22.6 5.2 13.2 7" />
    <path fill="#fff" d="M76.2 225l27.4-128H-31l141.8-55" />
    <path fill="#f435a7" d="M2 405.6l146.6-5.4-30.8 5-.3 3" />
    <path fill="#fff" d="M115 104.7l128.5 20-5.4-29.3-123 64" />
    <path fill="#baa416" d="M219.3 202l-13.4.3 17-7.3 42 3.3" />
    <path fill="#930052" d="M34.4 142.7L28.8 159l-1 5.8 2.3 16.8" />
    <path fill="#c0c0c1" d="M847 448.6l-8.4-13.5-1 14 22.5-35" />
    <path fill="#c4c6c6" d="M702.3 344l-20.7 51.6-4-75 27 89.6" />
    <path fill="#f56f33" d="M617.4 277.2L511.6 400.5l38-49.7 46.6-55" />
    <path fill="#cde8b0" d="M50.2 250.3L32.7 271l69.7 41-24.8-75.2" />
    <path fill="#fff" d="M539 92.8l516-38.5L502-31l24 160.4M23.6 173.8L36 56.6l-67 262.2L64 210" />
    <path fill="#f4f0ee" d="M98.7 174.7l-9-75 7 75.7 2.5-41" />
    <path fill="#fff" d="M961.4 189l-62-27.2 54.5 3.8 101 8.5" />
    <path fill="#bababc" d="M1009.2 445.5l-14.3-8 26-4.3 34-33.2" />
    <path fill="#7e2a5b" d="M147 72l6.8 38.2-3.7-34 21-7" />
    <path fill="#7db5d7" d="M331.8 155.5l49.8-21.3-36.3 5.4-2.5 13.5" />
    <path fill="#981c67" d="M204.4 56.2l-19.2 6 38.4 2-22.4-9" />
    <path fill="#a2a2a4" d="M462 285.7l-6.2-15-50 7.6 65.6 4.7" />
    <path fill="#fff" d="M474.8 252.4l-75.4 124.8L566 425.6 499 387" />
    <path fill="#baeeed" d="M570 283.4l54-88-39.5 75.5-38.2 62" />
    <path fill="#fff" d="M466.7 276.7l14-139.6 38.5 82-156 13" />
    <path fill="#e70078" d="M128.8 403.8l-72.6-.8-42 .4 35.5 2.6" />
    <path fill="#feffff" d="M553.7 124.5l22.7 84.4 7.3-106 55.6 97" />
    <path fill="#b32d83" d="M145.7 204l-19.4-3-28.2-1.2 78-4.6" />
    <path fill="#944c4b" d="M381.7 157l-15.2 50 2.3-24.3 3.8-12.5" />
    <path fill="#60c57d" d="M185.6 320.2l-10.2-13 56.5 8-40 6.8" />
    <path fill="#c4c4c5" d="M480.6 388v-11l-16 9.4L478 394" />
    <path fill="#a4a5a3" d="M855 230.2l-29-5 2.7 22.2-6-12.4" />
    <path fill="#910962" d="M222 106.4l6.8-22.8-12-18.3 6-.2" />
    <path fill="#9f9fa1" d="M563 443.4l2.4 1 7.7.4 9-16.3" />
    <path fill="#a8a8aa" d="M892.6 442.6l3 3.3 13.4-5-14.7-9" />
    <path fill="#ccb5a3" d="M905.6 262.3l33.7-6 12.5 8.4-103.3-2.7" />
    <path fill="#b5b7ba" d="M436.3 174.7l-6.4 58.8v-51.3l-34-12.8" />
    <path fill="#adadaf" d="M1014.7 192.4l-115-1 118-3.2-4.8-2" />
    <path fill="#b6bfc2" d="M50 505.7l6.6-28.2-2.2-41-4.7 23.2" />
    <path fill="#c2c2c4" d="M788 425.2l14 10.8-17.6 16.7v-10.4" />
    <path fill="#fffeff" d="M405.2 181l-135.8-26.5 89.7 27 91-41.5" />
    <path fill="#bce7bd" d="M921.2 94.2L890 120.4l-7 4-75.8 48" />
    <path fill="#585055" d="M180 73.4L172.4 97l2-16 5.5-8" />
    <path fill="#fff" d="M1004 270.8l-25.8 2.7-70.2-1.8 88.3-25.5" />
    <path fill="#8f0052" d="M208.2 108.8l10.4-5-4.7-1.2-26 8.4" />
    <path fill="#fff" d="M299.6-31l-72 140.5 55.8-50L153.6 52m804 167.4l22.6 5.8-97.6-.2 38.8-5.5" />
    <path fill="#b6a64a" d="M275.7 79.3l-19.4 8.5 45.5 1.8-9 20.5" />
    <path fill="#9fa09f" d="M815 243l33-6.2 10 7.4-18.5-2.3" />
    <path fill="#77abb9" d="M80.5 246.3l36 20.8-16.5 9-17.7-21" />
    <path fill="#fff" d="M598 173.3L273.6-31 285 79l24 44.4" />
    <path fill="#beb2bf" d="M385.5 434.2L384 501l-2-5.4-2.6-7.5" />
    <path fill="#ad9a14" d="M288 200.5l11 .5 2.6-6.4-24.8 2.6" />
    <path fill="#5b5b5b" d="M773 460.7h27.8L794 455l-59 4.4" />
    <path fill="#fff" d="M673.3 128L661 211.7l-13.4-68-9.4 72.5" />
    <path fill="#3f5d59" d="M366.6 178l11.5 11.6-6-8.8-1 36.7" />
    <path fill="#164c33" d="M384.3 183l-38.4-2.2-1 33-2-26.6" />
    <path fill="#6f94a2" d="M221.2 406.5h-39.5l-15-1.6 45.3-4" />
    <path fill="#fff" d="M949 500.8l-320-57.2-214.4 5-17.4 94.4" />
    <path fill="#c2c2c4" d="M1003.5 321.7l-.7-84.3 1.3-49.8 2 73.8" />
    <path fill="#bcbcbc" d="M889.4 361l-5.8 58-.4-58.8.6-68.5" />
    <path fill="#fff" d="M746 77.2l183.7 25.6L1055 77.5 1000-31" />
    <path fill="#7e7e7e" d="M595.8 107.6l-57.3 2.3-9.3-5 17.3-2" />
    <path fill="#b287bc" d="M549.2 343.8l15.6-10.3 43.6-52 23.5-34.7" />
    <path fill="#b5b9bc" d="M693.3 293.4l-2.3-173-.7 121.6-1 52.4" />
    <path fill="#1992bf" d="M343.7 207.4l15.8-4-36 9.4 100.7-3" />
    <path fill="#bfb6b2" d="M697.8 301l21.7-22.6-22.7 5 31.4 7.5" />
    <path fill="#eaf2f9" d="M659 187l-272.5 2.8 5.4 50-1-49.5" />
    <path fill="#fff" d="M263 327.4l-23.3 77L361.2 382l151.5-111.8M-6.6-30L-31 98l138.4-2.7 8.2-17.2" />
    <path fill="#aacde2" d="M774.5 215.3l2-17.4 40.5 12 9.2-16" />
    <path fill="#fff" d="M108.3 180l-.4 14.6-4 8.2-11-21.3m-12 220l79-.5 63.2 2.5 40.5-80.7" />
    <path fill="#acacac" d="M979.8 218l-74.3 2.3 8.5 2.5 2.3-12.4" />
    <path fill="#3e4c46" d="M414.7 174l8.7-1-11.8 7.7-14 6.6" />
    <path fill="#fff" d="M282.2 93.8l-16 40.2-18.6-22L259 89.6" />
    <path fill="#f9f8f1" d="M312.4 165l-98.2 17.4 120-16.8-179.7-27" />
    <path fill="#981862" d="M111.2 156L73 145.4l8.8 9.3 32.5-10.4" />
    <path fill="#abe4e3" d="M650.4 144l40-67.6-33.8 66-47.4 80" />
  </g>
</svg>