<svg version="1.1" viewBox="0 0 1024 512" width="1024" height="512" xmlns="http://www.w3.org/2000/svg">
  <g fill-opacity=".5">
    <path fill="#3d2432" d="M140 71l4 11-1 7-2 9" />
    <path fill="#fff" d="M0 124l109 23-3-33L3 154" />
    <path fill="#a1005c" d="M70 178h53l-8 2-8-7" />
    <path fill="#fcfbff" d="M327 189l-6 35 21-21 1-11" />
    <path fill="#579b6a" d="M301 491l34-27-3-10 14 2" />
    <path fill="#ff3b3e" d="M395 235l9-14-4-5-3 8" />
    <path fill="#a4a0a6" d="M855 117l71-1-102-2-55 3" />
    <path fill="#fff" d="M371 543l-269-42 201-41 43 1m82-295l139-99-121 79 5 86" />
    <path fill="#b0b0b2" d="M18 380l-16 2-25-22 38 32" />
    <path fill="#fff" d="M-23 361l83 100 12-42-103-14" />
    <path fill="#fbffff" d="M834 155l-12 49 4-124-26 126" />
    <path fill="#ccc6cc" d="M675 125h-3l4 80 4-64" />
    <path fill="#5f4c4b" d="M72 136l3 39 3-19-6-9" />
    <path fill="#b8b8b9" d="M516 89l-1 130 4-116-1-2" />
    <path fill="#b1e8ee" d="M666 101l11 1-46-3 5 15" />
    <path fill="#8eb7b3" d="M144 407l-18 1-12-8 99 7" />
    <path fill="#fdfdfe" d="M709 236l88-70-92 61 38-130" />
    <path fill="#fff" d="M843 324l64-29-27 33-12-158m-549 10l-21-53-13 6 3 62" />
    <path fill="#c1bfc0" d="M888 303l85-4 36 2-14 2" />
    <path fill="#ab9a18" d="M258 83l30 4h-41l-3 25" />
    <path fill="#54223e" d="M160 101l-1-34-2 31-11-12" />
    <path fill="#5c7362" d="M81 153l13 21 1-26-12 21" />
    <path fill="#fff" d="M806-31L68 48l701 28 88 43" />
    <path fill="#a2a1a7" d="M421 227l3 2-5 37 16-66" />
    <path fill="#fefeff" d="M787 221l-26 17 178 15-252 27" />
    <path fill="#fff" d="M204 107l19-16-3-14-35 18" />
    <path fill="#b7b7b8" d="M998 312l-1 77 10-46v9" />
    <path fill="#b1b3b8" d="M958 111l41 3-74 3h104" />
    <path fill="#d4d3c9" d="M243 431l51-20-17 8-93 46" />
    <path fill="#bb0670" d="M164 198l-26 2-8 5-21-7" />
    <path fill="#bcbbbc" d="M871 203h174l-173 4" />
    <path fill="#dae6dc" d="M106 168l-20-14 3 37 1-35" />
    <path fill="#317738" d="M338 401l-15 4-38 1 67 2" />
    <path fill="#bfbdbd" d="M672 312l-28 23 40-6-43-6" />
    <path fill="#fff" d="M400 181l116-69-146-34 9 103" />
    <path fill="#a4a1a1" d="M607 353h-16l30 17-19-1" />
    <path fill="#feffff" d="M74 162l-44 6 6-16 17-11" />
    <path fill="#cacdcd" d="M877 97l9 232-11-86 1-19" />
    <path fill="#fdfdff" d="M266 453l-3 9-14-32 174 22" />
    <path fill="#66a8d0" d="M378 143l-16-7-29-1-4 9" />
    <path fill="#666457" d="M283 163l16-1-48 1 22-7" />
    <path fill="#8c1d5e" d="M197 106l-23-9V83l21 27" />
    <path fill="#fff" d="M115 226l19-24-28 3 224-2m414 79l-40 137V289l-52 59" />
    <path fill="#9a2870" d="M118 60l-5 90-4-36 1-5" />
    <path fill="#edf9f8" d="M351 148l-4 61 4-2-1-36" />
    <path fill="#b00c6b" d="M118 92l41 7 17-4-71 6" />
    <path fill="#00340f" d="M378 186h28l7-3-43-2" />
    <path fill="#fff" d="M987 84l26 53-100 15 97 9" />
    <path fill="#848484" d="M594 184l-50-4-12 15 3-20" />
    <path fill="#b0b2b3" d="M748 382l1 43 5-4-3-74" />
    <path fill="#b3b3b5" d="M683 200l26 6 19 5 7-10" />
    <path fill="#fff" d="M421 377l-81-164h51l-44 189" />
    <path fill="#ff3b41" d="M252 125l-17 4 5 9v-5" />
    <path fill="#fdffff" d="M605 276l-52 64 64-130 10 28" />
    <path fill="#c8ecc7" d="M849 148l91-62-66 41-115 75" />
    <path fill="#feffff" d="M817 153l62-48-67 75 75-24" />
    <path fill="#f0ebe8" d="M78 219v-83l3 33-4 11" />
    <path fill="#c7c9cd" d="M856 146l55 6-53 1-52 51" />
    <path fill="#fff" d="M553 111l22 13-17-79 13 82" />
    <path fill="#7a7242" d="M258 182l2 14-4-7 30-2" />
    <path fill="#bd0872" d="M184 68l-52 6-36-5 90 4" />
    <path fill="#fff" d="M309-31l-80 137 34-26 263 16" />
    <path fill="#737175" d="M486 277l-10-2 7-33-2-8" />
    <path fill="#c6c8c9" d="M704 424l-4-98-5 96-20-4" />
    <path fill="#fff" d="M476 183l69 7-37-17-43 97M115 93l-146-5L144-31 92 30" />
    <path fill="#7bb3d9" d="M97 23l16-8 13 6-1 21" />
    <path fill="#f53433" d="M48 400l-2-14 9-1-4 10" />
    <path fill="#fff" d="M561 358l76-41-166 111 166-27m3-98l54-46-71 31 72-106" />
    <path fill="#ceced0" d="M625 451l12-14-6-25-2-56" />
    <path fill="#fefdfe" d="M707 201l-13-76 61-9-48 2" />
    <path fill="#f2b298" d="M723 151l38-55-9 13 33-34" />
    <path fill="#fff" d="M750 108l-1 24-1 55 24-5" />
    <path fill="#b4b4b5" d="M952 169l14-12 37 6-13 1" />
    <path fill="#2bb0e7" d="M409 461l3-7-36 9 22-8" />
    <path fill="#9db9ca" d="M867 294l61-6-5 6-13-1" />
    <path fill="#a89a3d" d="M277 143l15-30-3-32 9 34" />
    <path fill="#fff00d" d="M183 460l14-2-55-3 3 3" />
    <path fill="#79b7dd" d="M631 314l62-39-72 42-57 33" />
    <path fill="#9fa8a9" d="M944 243l-30-2 26 11 11-15" />
    <path fill="#a96593" d="M516 390l12-20 70-82-80 105" />
    <path fill="#fff" d="M674 406l-13-54-21-52 5 122" />
    <path fill="#ffe000" d="M242 406l49 1 14-3h-90" />
    <path fill="#feffff" d="M177 47l130 44 22 66V81" />
    <path fill="#fff" d="M684 300l3 39v96l2-76M294 182l-143-7 72-57 32 66" />
    <path fill="#d2af90" d="M918 267l-23-7-10 6 58-4" />
    <path fill="#4e5952" d="M135 73l-10 21-1-6 10 4" />
    <path fill="#fff" d="M1025 316l-123 15 116-47-126-5M146 68h-31l48-99 213 51" />
    <path fill="#aba7aa" d="M302 444l-1 17h-27l28-12" />
    <path fill="#fff" d="M1009 435l3-273-3-193 46 429M277 225l-67-7 67-21 12 26m380-28l-36 30-5-34 134 7" />
    <path fill="#d0eab4" d="M101 254l52-32 112 1-113 97" />
    <path fill="#fff" d="M472 341l62 23-79-132 17 181" />
    <path fill="#c5d1d6" d="M469 403l-51 50-14 11 48-50" />
    <path fill="#bcbcbc" d="M996 423l11-4-5-1-2-110" />
    <path fill="#2ab1e5" d="M466 407l15 1-70-5 53 1" />
    <path fill="#fdc691" d="M647 244l-7-2-14 30 17-15" />
    <path fill="#fff" d="M157 401l-88-28 9-11-28 39" />
    <path fill="#fef3fa" d="M115 160l16-90v19l-5 8" />
    <path fill="#494746" d="M417 225l8-2-19-18 11 21" />
    <path fill="#fff" d="M18 394l-46 9 75-1-26-54" />
    <path fill="#fbfbfd" d="M729 429l-275 3 184 4 172-4" />
    <path fill="#e4ecf0" d="M348 158l11 9-7 60 9-37" />
    <path fill="#fbfdfd" d="M910 150l26-18 15-9 39-2" />
    <path fill="#fdfcfd" d="M429 282l-40 105-17-218 2 112" />
    <path fill="#fffffe" d="M108 179l-8 49-131 53L76 180" />
    <path fill="#fdfeff" d="M402 210l24 86-11-52 1-21" />
    <path fill="#9e8e26" d="M279 206l8-60-3 9-4-15" />
    <path fill="#fff" d="M537 111l-60-4 50 8h82" />
    <path fill="#fbf9fc" d="M402 188l30-1-13 43 31 48" />
    <path fill="#fafeff" d="M1019 165l-141 1 34-17 3 28" />
    <path fill="#feffff" d="M-31 455l169-3-8 11-21-56" />
    <path fill="#76b0d4" d="M720 260l-3-1 88-52-45 29" />
    <path fill="#fff" d="M991 201l-108 2 65-10 82 3M749 440l19-6 49 21-80-8" />
    <path fill="#bdbbba" d="M675 201v112l-1 14 4-63" />
    <path fill="#fff" d="M690 213l-9-73 7 263V209" />
    <path fill="#fefefc" d="M118 157l32-29 120 40 20-4" />
    <path fill="#fff" d="M18 460l70 76-97 7L1 279" />
    <path fill="#e7dda9" d="M55 257l60-35-25-45 17 58" />
    <path fill="#fff" d="M918 133l-55 9 69-37-58-47M500 191l-45 24 59 32-39 103M254 148l-133 47-5-94h60m523-29l23 129-28-111 41 48" />
    <path fill="#a17ab2" d="M652 224l45-50-85 102-97 113" />
    <path fill="#fff" d="M520 292l108-117-17 30-85-13" />
    <path fill="#a5a3a5" d="M464 275l-32 11-4-2-2-14" />
    <path fill="#f9fcfc" d="M377 230l6-34-2-66 7-19" />
    <path fill="#feffff" d="M219 71l-26 33v-3l-17-10" />
    <path fill="#bebebf" d="M518 140l1 117-4-56 2-109" />
    <path fill="#a5a4a5" d="M803 168l-38-11 4 9 28-7" />
    <path fill="#26353f" d="M376 208l-2-32 7 35 8-4" />
    <path fill="#fff" d="M289 98l-24-9 8 45 18-28" />
    <path fill="#d1ecd0" d="M875 130l71-47-3 1-7-3" />
    <path fill="#aeadaf" d="M962 140l-11-5 37-4 3 7" />
    <path fill="#fff" d="M183 130l95 10-39 2-78 56" />
    <path fill="#c0bfc1" d="M584 195h5l-61-5 59-1" />
    <path fill="#cff7f0" d="M564 302l-66 101 34-38 9-13" />
    <path fill="#cdced0" d="M738 458l-10-36 17 16V212" />
    <path fill="#fff" d="M85 122l-99-12-17 179 63-147" />
    <path fill="#a69834" d="M254 183l1 22 6-68-7-21" />
    <path fill="#fff" d="M884 277l-5 81 10-72-3-36m-306 10l14-87-75 159 6-145M153 85l13 61-10-36V74" />
    <path fill="#a2a2a2" d="M264 457l-25-6-12 15 9-5" />
    <path fill="#ceecb2" d="M204 330l18-5-73-14-52 8" />
    <path fill="#fff" d="M301 459l335 16 77-49 31 84" />
    <path fill="#a4a4a4" d="M563 187l16-10 24-2 4 6" />
    <path fill="#c4c4c5" d="M943 426l82 2-110 3 25-5" />
    <path fill="#fff" d="M255 403l53-86 23-4 6 89" />
    <path fill="#ee5458" d="M378 183l-5-3-6-16 8 1" />
    <path fill="#fff" d="M761 413l63-176 31-3-76-1" />
    <path fill="#fff" d="M951 274l55-40H819l153 8" />
    <path fill="#fffdff" d="M332 175l42 7-19-39-19 25" />
    <path fill="#883d67" d="M104 157l-3 24-3-32-35-3" />
    <path fill="#fcfafb" d="M135 93l91 101-78-23-14-127" />
    <path fill="#fff" d="M460 95l-40 180 63-22-40-39m-152-82l8 67 1-39 23-129" />
    <path fill="#a20c56" d="M117 177l-8 27 2-26H79" />
    <path fill="#f4f5f9" d="M490 292l-92-104-20 112 24-111" />
    <path fill="#a8a8a8" d="M516 446l5-2-14-3 20-7" />
    <path fill="#bdbdbf" d="M695 329l-15-3v65l12-87" />
    <path fill="#9d9d9e" d="M935 279l76 1-30-5h-5" />
    <path fill="#127598" d="M378 204l-44 9 63-2 15-2" />
    <path fill="#0e442d" d="M396 181l-44 2v34l2-32" />
    <path fill="#1d87af" d="M339 231l-2 1-2-29 6 16" />
    <path fill="#87aa95" d="M52 460l9-12-9 5-5 5" />
    <path fill="#fff" d="M177 69l-31-6-43-82 104 60M46 297l172 69-249-1L9 233" />
    <path fill="#c3c3c3" d="M681 448l20-34-28 36 14-95" />
    <path fill="#818181" d="M792 454l-4 2-26 7-34-5" />
    <path fill="#7c7c7d" d="M731 462l-6-6 1-3 56 5" />
    <path fill="#fff" d="M53 424l12 99 81-62-85 2" />
    <path fill="#bababb" d="M858 428l-8 7-15-3 12 13" />
    <path fill="#215a3d" d="M332 187l62-4 11 9 7-12" />
    <path fill="#00bfff" d="M462 406l1-2-6-2-22 5" />
    <path fill="#fe7842" d="M586 309l41-41 23-33-33 40" />
    <path fill="#fdf8f9" d="M232 111l19 19v14L224 35" />
    <path fill="#fff" d="M628 347l-11-26 10 80-39 22" />
    <path fill="#bababa" d="M520 88l-16 20-13-5 23-10" />
    <path fill="#d3b500" d="M255 185l-1 14 5 3v-74" />
    <path fill="#c9c9ca" d="M521 403l-1 24-28-4 10 12" />
    <path fill="#fff9ff" d="M164 26l1 61-1 3-3-3" />
    <path fill="#fff" d="M704 420l39 4-11-145-25 68M632 95l423-89-471-37-31 136" />
    <path fill="#a9a9aa" d="M95 377l-1-12 50 10-18 2" />
    <path fill="#fff" d="M658 543l222-115 13 17 162 27" />
    <path fill="#fefeff" d="M757 88l-82 28 86-43 7 91" />
    <path fill="#7eb3d5" d="M693 274l-73 42 34-16 78-49" />
    <path fill="#590535" d="M164 97l5-23-1 24-10-1" />
    <path fill="#969695" d="M849 233l1-7-28 3 1 1" />
    <path fill="#fff" d="M380 494l196-88 16-56-205 193" />
    <path fill="#adaeae" d="M507 362v-4h-14l10 13" />
    <path fill="#fab1a9" d="M884 248l40-4-37-2-2 9" />
    <path fill="#c5dea6" d="M300 230l56 17-20 2-82-24" />
    <path fill="#fff" d="M759 113l62 1 36 1-41-74M536 175l36 5 54-53-103-4" />
    <path fill="#fffffb" d="M314 231l28-44-12 38 17 25" />
    <path fill="#fff" d="M517 410l-4-53-33 39-49-2" />
    <path fill="#8c8b8c" d="M666 320l6-3-21-2-2 5" />
    <path fill="#fdfafb" d="M106-31l41 109v101l-4-147" />
    <path fill="#7ca39c" d="M384 458l-23-5-10 3 37 6" />
    <path fill="#a7447d" d="M23 158l15 17-12 4 11-33" />
    <path fill="#fff" d="M563 187l-66-4-13 6h55" />
  </g>
</svg>