<svg version="1.1" viewBox="0 0 1024 512" width="1024" height="512" xmlns="http://www.w3.org/2000/svg">
  <g fill-opacity=".5">
    <path fill="#fff" d="M944.6 27.6L1033 383l22-382-483.5-32m-144 227.8l-41 66.5 13.8 91.3 34.5-13.3m92.5-107l-56.4 61L546 453l30.6-52.7m70.3 128l-3-324L674 442l-3.4 101" />
    <path fill="#636363" d="M331 304.8l-20-13 61.2-.6 12.5 13.7" />
    <path fill="#030105" d="M495.7 259.5L463.5 275l9 41.2-1.3-32.4" />
    <path fill="#95979c" d="M137.6 241l56.4-12.4-34 19.4-14.3-44.6" />
    <path fill="#6f6d6f" d="M737.7 385.7l1.5 18-38-21.5 12.3 30.7" />
    <path fill="#faffff" d="M450.2 134.5l95.2 57.8-95.4 94-3.7-5" />
    <path fill="#fffbfb" d="M647.5 281.4l77.8 134-17.5 101.2 6.8-178.6" />
    <path fill="#939499" d="M101.7 257.7L74.4 286l38.7-17 34-5" />
    <path fill="#252023" d="M700.7 72.6l50 2 3 1.5-9.3-8" />
    <path fill="#2c2c2c" d="M485.5 428l4.6 74.4-8-.6-7-67.5" />
    <path fill="#fcfefa" d="M809 289l11.6 219.4L848 543l-6.5-122.8" />
    <path fill="#151013" d="M570.5 67.3L567.3 48l-10.5-12-23.6-4.2" />
    <path fill="#fff" d="M347.4 234.2l58.2-75.4-38.4-64-36.8-12.5" />
    <path fill="#f1f1f3" d="M767.5 328.8l-32 200.7-5.3-68.2 44.2 63.5" />
    <path fill="#fff" d="M391.7 493.5l-137.2 21L406.7 543l-14.4-166" />
    <path fill="#040002" d="M428.6 360l20-44.7-29.2 49 20 30.5" />
    <path fill="#100c0d" d="M449 39.8l-16.5.2 40.3 33.4-6.8-21.7" />
    <path fill="#fff" d="M536.6 338.5l20.2 162 285.7 9.2-305.2 1.8" />
    <path fill="#676767" d="M303 332l74.8-14.3 26.8 7.2-37.6 9" />
    <path fill="#4a4a4a" d="M979 493.5l6-60.7-84-4.8 29.7 73.7" />
    <path fill="#78845c" d="M732 507.7l-30.5-73-3 63.2 35.3-72" />
    <path fill="#201c1e" d="M279.7 64l30.6 29.5-22-51.4 34.3-14" />
    <path fill="#fff" d="M-31 146.8L134 133 122.7 29.6l60.4 8.8" />
    <path fill="#c2d2d5" d="M466.2 254.7l-39.6-48 43.6 9.3 71.4-4" />
    <path fill="#dff6d1" d="M750.6 527.7l-46.4-3-19-215.3-6.8 191.7" />
    <path fill="#9fb677" d="M410 460.3L339 449l-26.7 8.3-6.7 4" />
    <path fill="#1e171e" d="M483.3 76.7l-29.8 49-21.4 29.6 41-38.3" />
    <path fill="#fff" d="M159.4 281.7L91.8 87l56.6 94-153-1.7M439.4 48l28.4 23.4-7.7 46.4-61-64.6" />
    <path fill="#59becb" d="M965 142l-28.6 3 19.2 15.8 13-10" />
    <path fill="#fff" d="M433.8 354.5l35.6-12 .4 39.6h-31" />
    <path fill="#fc8d62" d="M836 288.5l-16 5.5 90.5-.7-2-3" />
    <path fill="#e69477" d="M918.6 463.7L923 293l5 137.7-6-13" />
    <path fill="#87878f" d="M88 59.6l-69.3-3 4.3-6 43-1.8" />
    <path fill="#fff" d="M105.2 267.3l51 18.7-44.3 42-28-22.6" />
    <path fill="#6a636f" d="M853 444l-4 59.7-3.4-15.6 1.4-61" />
    <path fill="#221f20" d="M535.5 27.8L505.8 91l15-29.3L499 58" />
    <path fill="#fff" d="M52.5 170.2l-17.3 79 25-93.7 109.8 7.3" />
    <path fill="#020000" d="M314 77.5l11-6.6 26.2 7 26.6 15" />
    <path fill="#fff" d="M238.4-4.7L202 355.5 304 123l-24-72.5" />
    <path fill="#0c060a" d="M488 375.5l-20-52.3 2.4-55 6.4 118.6" />
    <path fill="#87898c" d="M238.5 89.2l-69.8-5.6 92.3-6.4-27 14.4" />
    <path fill="#a1ea7b" d="M258 262l-15.5-18.2 132.6 22 8-26.8" />
    <path fill="#818189" d="M147.8 7.5l-31 31.5L77 24.6l13.7 15.2" />
    <path fill="#fff" d="M321.2 409.2l-100.8-198 209 27.2-239 9.3" />
    <path fill="#08090c" d="M538 196.8l-3 14.2 24.5-4.3 54-7.2" />
    <path fill="#fff" d="M448.5 138.3L589.8 65l13.7 127L448 204" />
    <path fill="#60d307" d="M708.6 29.7l18.6-5.6 6.3-1 7 9" />
    <path fill="#ff7130" d="M513.5 248.6l6-13.5-8.2-5-14.8 1" />
    <path fill="#555455" d="M821.8 493.6L759.5 462l18.2 32.4-14 9.6" />
    <path fill="#73d42e" d="M831 128.4l23.3 4.4L839 153l-14.4-9.5" />
    <path fill="#ff7c51" d="M451 226l-4.3 22.3-14-4.5v-14.6" />
    <path fill="#fff" d="M455 419.2l-69-87.5-236.7 90.5-1 50M-31 253.2L95.4 335l25.8 121.7-111 86.6" />
    <path fill="#ad948d" d="M177 96.8l2 74-24.8-66-8 68.4" />
    <path fill="#fefdff" d="M429.6 129.5l-35-11.5-18.3-56 53 89" />
    <path fill="#fbfeff" d="M346.3 479.2l-120.6-.6 155.8 13 20.2-13.6" />
    <path fill="#acf77a" d="M900 26.4l-5.3 9 48 1.6-7.4-15" />
    <path fill="#91939a" d="M176.7 195.4l-28.7 22 5-51.3 31.7 70" />
    <path fill="#8a8a90" d="M30.3 22.2L13 46.2l36 10.6-26 7.6" />
    <path fill="#7b7d8f" d="M349.2 469.8l37 .2-40 31.5 35.2-11.3" />
    <path fill="#56d200" d="M277.6 214.7L337 217l5-36.5-64-4" />
    <path fill="#fff" d="M471.8 283.2l46 179 16.7-213.7 22-41.8m-118.5 86l-14.8-27.3-195.2-1.8 33.2 21.6" />
    <path fill="#fff" d="M667.5 503.6l11.2-290.3-144.8-6 55 47M67 251l-98 19L17.4-31 22 160.3" />
    <path fill="#fff" d="M342 34.4L6.2-2 463-5.3l-78 60" />
    <path fill="#256100" d="M438.4 126l-4.3 70 13 18.4 1-51.7" />
    <path fill="#ff946d" d="M953.6 56.2l-1.4-9-50.5-1-3.5 12" />
    <path fill="#85878e" d="M170.7 39.5l-33-28.3L180 28.7l60-4.8" />
    <path fill="#fff" d="M527 39L379.2-.7 467.7 51v7m119.8 380l25-175.4 2.2 231.6-27.2 47.2" />
    <path fill="#a1e56a" d="M845.3 426.3l-11-4.3v-21l8.7-249" />
    <path fill="#171316" d="M298 45.7l29.7-5 8-.4L316 29.8" />
    <path fill="#fbfffd" d="M852 169L870.6-8.7l66.6 217L854 8.5" />
    <path fill="#6c6c6d" d="M839 76.8L760 79l-1.7-13.6L861 74" />
    <path fill="#868a85" d="M128.7 398.7l-21.4-49-6.5 27.2 23-14" />
    <path fill="#fff" d="M329.8 42.3L745.8 7 756 138.2l8.8-155" />
    <path fill="#856c62" d="M856.6 444.3l-1.4 19.4-.4 19.5L878 449" />
    <path fill="#989799" d="M80 244.3l4.7-15.5L77 178l1.6 46.6" />
    <path fill="#eceded" d="M303.3 73.3l15-6L417 95 294.7 47.6" />
    <path fill="#1f191d" d="M436 238.5l11 93.4 5 2-16.7 20.2" />
    <path fill="#9de266" d="M838.7 141.3l-128.3-6.7-41 .3 34.6 10" />
    <path fill="#fff" d="M410.4 367l-6 138.2L202 490l216.4 53" />
    <path fill="#ff6735" d="M710 48.8l2.2 5 30.4.4 12.7-6.2" />
    <path fill="#f0f1f0" d="M426.7 297.3L416.4 59.8l88 15.2L438 95.4" />
    <path fill="#4e4e4e" d="M905.2 466l76 19.4-.5-56.4-75.6 1.8" />
    <path fill="#fff" d="M635.6 197l-64.6-7.6-50.4-107L751 164.8" />
    <path fill="#97989d" d="M87.6 299.3L31 255.7l71 24.8-86.4 8" />
    <path fill="#fffdff" d="M431.4 431.7L391 270l46.7 154.5-3 112.4" />
    <path fill="#fff" d="M107.5 33.5L-30-25.3l2 70.3 200.7-76" />
    <path fill="#fefefe" d="M520.5 502.4l-7-154.3-4.2 181 182-26" />
    <path fill="#fdfbfc" d="M404 459.5l-50 3.5 1.3-184.8-12.2 196" />
    <path fill="#fff" d="M355 322.3l-98.4-9 53.2-10 67.8.2" />
    <path fill="#4d4d4d" d="M561 502.5l24-4.4 2.4-66-30.4-3" />
    <path fill="#151113" d="M290.6 75.8l8.4 6.4 12.2 5.7 52.4-7" />
    <path fill="#89e348" d="M414 488.2l6 15-2-80.5.2-9" />
    <path fill="#3e3e3e" d="M908 500.7l-1.2-2.5 4.5-20.7 80.2 22.4" />
    <path fill="#62ded9" d="M930.6 278.6l-26.2 8.5 16 15 11-5" />
    <path fill="#c3c2c4" d="M979.4 273l9.4-304-4 296-1.8 240" />
    <path fill="#898b91" d="M146.2 461.6l1.7 48-33-10.4 41-5.4" />
    <path fill="#201e1e" d="M482 94.2l-11.7-5-8.8 32.5 9.2 1.6" />
    <path fill="#fff" d="M716.4 130.5l-5.2-155L523.6 4 575 52.5" />
    <path fill="#b7b5b7" d="M76 145l3 18-16.8 48.6 5.2 30.2" />
    <path fill="#f3f8f9" d="M452.7 283.5L449 287l-9-18 144.5-113.3" />
    <path fill="#151113" d="M482.4 57l-24 14.5L514 55.7 555.2 31" />
    <path fill="#fff" d="M812.2 144.4l23.4 8-3.8 80.2L724 147" />
    <path fill="#6f6e6f" d="M959.6 73.6l-63.8 6 3.5-18 31 14.5" />
    <path fill="#201c1e" d="M550.8 86.2l11.5-7 3.2-22.5-31.2 36" />
    <path fill="#777a7c" d="M760 470.3l-10.5-1-7.3-32.4-1.2 56" />
    <path fill="#fff" d="M776.8 421l58.4-9.2-1.2-98-147.8-22" />
    <path fill="#fdfcfc" d="M928.5 425.5l-81.4 24 7 19.8-11-182.8" />
    <path fill="#87928a" d="M204 51.6l-33-7-23 55.7 5-45" />
    <path fill="#7fe732" d="M692.7 517.5l-4.3-92.6 4.2 16-6 35" />
    <path fill="#767676" d="M301 303.3l-7.2-9.3 13.7-17-5.6 4.3" />
    <path fill="#8a8991" d="M95.8 27l-65.3-4-5.2 2 36 9.5" />
    <path fill="#b3b3b3" d="M788.2 264.6h-7.5l42.7-45 2.7 1.4" />
    <path fill="#b1b1b0" d="M689.2 293l-.6-276L686.8.5 685.3 58" />
    <path fill="#fff" d="M917.8 272.5l50 38.7-121-208.7-1.4 161.6" />
    <path fill="#87c75a" d="M711.8 434.6L699 469.8l5-48-18.6 5.8" />
    <path fill="#666" d="M88.4 169.5l-19 1.3 36.4 12.2 17.6-9.8" />
    <path fill="#1f1b1d" d="M387.5 64.6l47-28.5-24.5 1-9.7 13" />
    <path fill="#fff" d="M644.2 429l-173.7-93 99-95.5-31.2 66.3" />
    <path fill="#85828d" d="M78 298l-5.3-9.8L88 324l24.2 8.7" />
    <path fill="#fff" d="M30.6 63.4l131-11.4-115 99.7L-31-7.5" />
    <path fill="#fefffc" d="M190.2 53.3l-24.8 38.4-4.3 176.5-1-209.7" />
    <path fill="#929498" d="M205.7 291.8l-65.8 5.7 76-19.8-19-29.5" />
    <path fill="#a3ed71" d="M773 27.2l116-5.5-93.8 15.8-35.5-19.8" />
    <path fill="#fff" d="M317.8 92.3L331 80.7l54.7 128.7L218.7 49" />
    <path fill="#89eaf3" d="M888.2 102l14-14.7 77.5 5-40.2 4.4" />
    <path fill="#fff" d="M461.2 428.3l248-4.3-39.8-226.5-183 177" />
    <path fill="#f6f8fc" d="M698.5 135L898 107.2l-147.5-11 61 38.3" />
    <path fill="#8f4138" d="M723.6 447.2l-7.2 2.6 4.4 42.4 8.7-44.6" />
    <path fill="#fff" d="M1055 543l-71.5-120-.6 85-125-13" />
    <path fill="#3c3c3d" d="M782.4 428.3l-8.3 1.2 6 68.8-7 6.2" />
    <path fill="#070007" d="M395 130.7L381 117l-5.4-18 3-22.5" />
    <path fill="#210028" d="M407.2 190.7l4.4 22.8 8.2-11.8.8-18.4" />
    <path fill="#a49c9c" d="M187 372l95 5.8-73.8-10-81.6 79" />
    <path fill="#fff" d="M380.2 418l54.8-87v-27l-22.7-87.2" />
    <path fill="#fffffd" d="M427.8 484.3L401.4 543H418l3.4-135.2" />
    <path fill="#eff1f5" d="M739.7 379.5l-6.7 50.3 4.4 35.8 3.3 44.2" />
    <path fill="#fff" d="M127.5 471.8l54.7-184-66.7 59.7 19 5.5M999 55l-221 3.4L925 62l23 27m72 410.3L780.3 506l-31-34-8 70.8" />
    <path fill="#545257" d="M673.2 492.7l7 6.7-4.8-87-1 45" />
    <path fill="#b376d5" d="M570.5 239l-24-1.6 33.7 32 3.5-17.5" />
    <path fill="#fff" d="M180.4 168l194.3-26.3-63.8-53-136 .6" />
    <path fill="#69fd00" d="M405.5 163.6l39 20.5 3.4-18-38 20" />
    <path fill="#625374" d="M371.6 460l-24-5.7 36.4-2.7-7 5.6" />
    <path fill="#fff" d="M398.5 445.5l-60.2-4L347 454l81.3-13" />
    <path fill="#1e1a1c" d="M303.4 40.6l-6-3.2-14 17 5 22" />
    <path fill="#fff" d="M475 71.3L383 70l19.2 54 57-3.8M422 214l-74-25-15.2 47.4 104.3 15" />
    <path fill="#61d600" d="M326.2 149l10.7 57.3-34 15.4-2-16.6" />
    <path fill="#606779" d="M381.3 495.4l-40.5 1.5.2-10 40.8 9.2" />
    <path fill="#fff" d="M144 264.2l254.4-47-315 40.7 45-109" />
    <path fill="#8a8c90" d="M172.3 248.2l-28-10.6 27.4-2.3 10.3-10.5" />
    <path fill="#f8f2fd" d="M688 486.3l-13.6-72.7 23-55-25.4 178" />
    <path fill="#fcfefd" d="M55.8 274.3l47.2 17-75.3-10 4.2-17" />
    <path fill="#1d1b1d" d="M461.2 277l33.7-21.7-22 29.6-8 60" />
    <path fill="#fff" d="M151.2 198L137.6 24.6l-32 90 30.7 110.8" />
    <path fill="#9cfdff" d="M725 512.8L714 502l-.6-21 15 5.5" />
    <path fill="#c6c5c6" d="M453.3 503l22.7-2-1.8-54.3-28.6-6.8" />
    <path fill="#bebdbd" d="M930 114.5l-127.2.3-70-1.8 141.2-4.2" />
    <path fill="#fff" d="M280 60l56.5-91-112 57.2 90.6 91.5" />
  </g>
</svg>