<svg version="1.1" viewBox="0 0 1024 512" width="1024" height="512" xmlns="http://www.w3.org/2000/svg">
  <g fill-opacity=".5">
    <path fill="#626262" d="M428.5 429l626.5.6L951.6 502l-516-4.6" />
    <path fill="#4b523d" d="M415.6 386.3l76.7-92.8-206-296.7L453 152.6" />
    <path fill="#14d200" d="M282 157.3l-9 65.6 79-4-33-72" />
    <path fill="#363137" d="M297.6 90.8L558 32.4 449 144.2l14-124" />
    <path fill="#0b0a0c" d="M978.2 433.4l-69.4-9L903 503l79.4-1.3" />
    <path fill="#161115" d="M403 32.7l171 53.6L557.3 19l-8.7 76.7" />
    <path fill="#1b0507" d="M418 333l121.5-139 177 10.4L546 209" />
    <path fill="#433d44" d="M386.8 95l-14-36.2L303 21l-28 58.3" />
    <path d="M491 365.6l-70.8 38.6 62-12.8L448.6 285" />
    <path fill="#fff" d="M559.6 215.4L598 543l21-116.6 436-263.7" />
    <path fill="#fff" d="M880.3 6.2l53.5 200.4L897 517.8l-83.4-8.4" />
    <path fill="#fff" d="M1021.6 543L976 428.7 844 160.4 1042-31" />
    <path fill="#030204" d="M615 430.4l30.8-.3v59l-31 20" />
    <path fill="#fff" d="M639.8 543L783 276.4 766.8 541 660.5 315" />
    <path fill="#605e62" d="M418.8 333H270.6l121-37-115-5.8" />
    <path fill="#fff" d="M453 131l-10 256.4 26-125.2L809-31" />
    <path fill="#fff" d="M-31-31l43 49.6 468 20.8 575-34.7" />
    <path fill="#385f19" d="M503.6 79.7l-19.4.8-72.8 139.3-12-54.8" />
    <path fill="#fff" d="M335 176.4l72 181.3 1-317.5 83.3 41.4" />
    <path fill="#2f2e30" d="M817 501.8l2.3-75.5-49.6 7.5 9.7 65" />
    <path fill="#9ce85c" d="M837.2 432.4l10-103L847 114l-18.3 23.5" />
    <path fill="#1a131e" d="M469.6 361.2l9-98.8L418.3 392l25.2-112.2" />
    <path fill="#141315" d="M585.8 430l-23 .8-2.2 61.3 27 20" />
    <path fill="#302f31" d="M471.8 501l39.5 5.7-6.2-76-30 8" />
    <path fill="#fff" d="M468.6 283l22 88.3L558.8 543l.7-313.5" />
    <path fill="#5a585c" d="M31.3 146.7L126 174l-108 9 99-35.7" />
    <path fill="#47cf00" d="M340.6 213.8l-55 6.7-10.2-44 66-5.2" />
    <path fill="#211c20" d="M459.7 96.7L564 77.3 456 64.8l108-42.6" />
    <path fill="#fff" d="M426.7 404L408 334.6 130.3 339l44.2 204" />
    <path d="M440 395.5l-16-13.8 2-14.6 46 34" />
    <path fill="#5e5c5f" d="M966.3 75.5l-193.7-11-74 9.3 77.8 3.6" />
    <path fill="#fff" d="M302.5 44.8L222.3 543l-47-486.4L424.7 86" />
    <path fill="#fff" d="M438 350l-35.3-204.6-45.6-55-70 .5" />
    <path d="M520 202.5l145 6-12-14.2-32 .7" />
    <path fill="#fff" d="M118 430.4L104 543l-135-39L1.5-6" />
    <path fill="#090508" d="M312 30l72.5 43.4 46.2-36.8-95.3 23.6" />
    <path fill="#2c2000" d="M443.3 336.4l-11.7-53 14.2-182 1 151.7" />
    <path d="M389.8 132.5l32.7 11.7-10.2-5.5-52-72" />
    <path fill="#fff" d="M475.2 107l79-64-75.5 25 310 197.3M438 132.5L421.4 283 420 45.7l47.7 62" />
    <path fill="#9bee6e" d="M321 242l-73 5-10.8 14.8 208.4-2.6" />
    <path fill="#939599" d="M22 254l63.5 19.7-5.7 27-63-9" />
    <path fill="#053e00" d="M406.4 125l2.4 84 11.7-2.8-2.7-55.5" />
    <path fill="#fff" d="M156 144.6l-15.8-99L1.5 80.3-31 142.5" />
    <path d="M318 90.4L285.5 73 315 29.7 280 46" />
    <path fill="#fff" d="M478 145l73.4-53 88-123 212.2 291.3" />
    <path fill="#5c6065" d="M199 370.6l66.7-1.3L278 376l-102.6 2" />
    <path fill="#98ec58" d="M739.4 130.2l-84.2 16.4 180.5-2-.5-7.5" />
    <path fill="#918a88" d="M127.8 434.3l-4.2-134-5.3 179.8 82-116" />
    <path fill="#fff" d="M587.4 510.3L431.8 495l189.4 48-32.6-344.7" />
    <path fill="#b2b2b0" d="M153 21.7h91.2l-54.3 42-47 189" />
    <path fill="#aec69c" d="M453.5 504l-152-7 64.2-63.8 72.7-8" />
    <path fill="#a1f666" d="M683 42.3l45-21 243.3 9L700 34.6" />
    <path fill="#fff" d="M481.8 82l-50.2-35-53 23.4 19.6 48" />
    <path d="M565.2 43.8l4.7 15-46-21.4 16-7.8" />
    <path fill="#08000c" d="M482.3 93.7l-51.5 53 38.6-18.4 3.8-69" />
    <path fill="#010000" d="M483.6 381l3.6-30-28 47.2 37.2-21.3" />
    <path fill="#b671dc" d="M583.8 249.8l-27.3 58.8-18-64.7 39.2-9" />
    <path fill="#535154" d="M708.8 403.2l38.5-17.3-42-4-2.7 19" />
    <path fill="#581200" d="M864.6 446l9 34-14.6 2.6-2-32.3" />
    <path fill="#fff" d="M414.2 421L86.6 543 425 310l12.2-37.6" />
    <path fill="#e5f8db" d="M647.4 532.5l76.6-34-14.5-72.5-64 .6" />
    <path fill="#fff" d="M495.3 249.8L486 383.4 425.2 428l281.6-3.6M179-31l201 90.7 40-37.3 407.5 23.4" />
    <path fill="#b0b6b1" d="M154 54.7L16 64.4l181-57-194 21" />
    <path fill="#211e20" d="M282.6 81.4l115 10.3-58-21 8-2.8" />
    <path fill="#6bd800" d="M332.3 158.3l-36.2-9.8-21 65.7 66 6" />
    <path fill="#898a91" d="M218.2 288.6l-41-4.8-63.3-28.3 39 42.2" />
    <path fill="#fff" d="M686.6 168.5l-97.5 130 249 146-2-295.5" />
    <path fill="#fff" d="M-31 247.8l438.8 177L876 413.6l-431.4-17.2" />
    <path fill="#efedf0" d="M456 173.8l6.5 142.3-12.5 63-6-139" />
    <path fill="#fff" d="M868.2 543l4-574 33 527.6 134.7 12.2" />
    <path fill="#ff9973" d="M897.5 55.4l-159.3-1-49.8-9L981 46" />
    <path fill="#797378" d="M167 199.8l6-126 5.6 179 8-37" />
    <path fill="#968a7f" d="M748.7 421.8l-78 61.5 1.6-54.5 71.6 68" />
    <path fill="#fff" d="M324.7 151.8l114 174.2-66.3-229.3L123.8 141" />
    <path fill="#171417" d="M459 342l28.3-100.6-30 53.5 28.3 64" />
    <path d="M438.5 35.5l-44.6 14 47-1.3 36.3 27" />
    <path fill="#6d6f75" d="M148.4 87L206 76l48.5 9.6L217 87" />
    <path fill="#9da99a" d="M124.8 367L39.2 252.4l79 80.5 50.5-71" />
    <path fill="#fff" d="M631-31L504 49.4l-34 5.8-72.5-52.4m113.6 422l318-58.6-294-69.4L511 543" />
    <path fill="#646364" d="M281.2 315.6l118.2 17.6-109.5-.5-10 8" />
    <path fill="#fff" d="M371.6 319.5l-66.3 3.4-25.6-16 164.3-7" />
    <path fill="#cc8b3c" d="M951 141l-11 20h-36.2l5-14.4" />
    <path fill="#626164" d="M939.7 68.5L898 64.3l-10-1L922.4 84" />
    <path fill="#fff" d="M13 472.6l350.2-208.3-257-8L284 213.8" />
    <path fill="#272426" d="M553.5 71.4l16-44.8L564 84l-59.6 2" />
    <path fill="#fff" d="M982.7 472l2.6-117.8 69.7 130.6-68.3 58.2" />
    <path fill="#0b050a" d="M422.8 381.3l32 20.4-33.2-47.6 30.4-33" />
    <path fill="#fff" d="M417 132l59-37-80-40.4-7 55.7" />
    <path fill="#fd8762" d="M683.5 288.6l5.8 16.8-1.3-9.8 194-4.2" />
    <path fill="#626163" d="M130.8 177.2l-91 2.6-5 6.3-6-19" />
    <path fill="#fff" d="M47 506l39 37 901-36.5-454-6" />
    <path fill="#070009" d="M463 129.3h-28.6l1 21 56-77.2" />
    <path fill="#fff" d="M151.2 27.5l-37 150.3-48.8 93.6 76.8-24m35.2-70.4l17.6 79.3 93.7-89.7-6-197.6" />
    <path fill="#93d35d" d="M850.7 463.7l-17.5-74 4-180.4 3.7 120" />
    <path fill="#fff" d="M365 409.3l94.7 6.2 3.5 127.5 18.6-148" />
    <path fill="#0a0609" d="M461.8 89.4l65.4-20 .6 11.3-31 9.6" />
    <path fill="#fff" d="M667.3 208.7L721.3 5 478.5-22.8 563.7 42" />
    <path fill="#919297" d="M201 248.5l-70.3 37.8 87.6-27.5-13.7 36.4" />
    <path fill="#fffaff" d="M871.5 466.5l36.2-35.8 66.8-4.3L1055-31" />
    <path fill="#83f3ff" d="M704.2 93.2l109.4-5.8L1008 97l-222 3.8" />
    <path fill="#fff" d="M404.7 141l-2 102-76 1L384 125.7" />
    <path fill="#83ff18" d="M406.2 162.4l35.7-8.6 8 25.3-47 4" />
    <path fill="#585759" d="M299.8 308.4l-5.4-8.8 81.3 2.6 9-17.3" />
    <path fill="#fff" d="M111.4 353.2L257 367l38.8-82.2-129.4 10" />
    <path fill="#3f3348" d="M408 460.6l1-2-8-24.6-.2 109" />
    <path fill="#fff" d="M484.4 194.3L477 93.8l207.7-22.2-60 125.5" />
    <path fill="#686869" d="M129.7 156.5l-60.7-.8-34 1.6 2.5-15" />
    <path d="M355.8 60.7l39.8 11.8-23-17.8-35.8-7.6" />
    <path fill="#7b7a7c" d="M541.8 435l1.5.5-26-8.3 13.5 70.3" />
    <path fill="#fff" d="M78.2 298.7L121.8 543-31 519.7l3.3-235.7" />
    <path fill="#97b0d8" d="M899.4 316l35.7-24.6 79-16.4-94 2" />
    <path fill="#1b181a" d="M433.5 38.8l-34 .7L365.3 93l36.3-38.2" />
    <path fill="#151124" d="M429.5 269.8l9.3-25.8 2.6 24.5 5.7 83" />
    <path fill="#1a0d1d" d="M420 142.4l13-3.4-55-26.5 39.5 41" />
    <path fill="#fff" d="M311.8 41.7l-13.6 17.5 14 19 21-21.5" />
    <path fill="#4d4553" d="M437 432.3l3.2 77L451 448l-7-16.5" />
    <path fill="#fff" d="M180 391l-31.4 136 114 16L380 364.4" />
    <path fill="#171418" d="M658 198l-10 10.6-79-1.4 62.3-11" />
    <path fill="#797b82" d="M158 495.3l-22-31.8 13-47.5-7.4 14.5" />
    <path fill="#fff" d="M859.7 119.7l-142 6 181-36.2L889.3-31m-826 175.8L-31 53.2l247.5 29-33.2-31.6" />
    <path fill="#333" d="M615 500.2l8.2-72.8 25.2 74.2-59.6-2" />
    <path fill="#fff" d="M556.4 70.8l-37.7-10.2 18.2-17 21 2.4m216 91.3l122-23.5-153 9.4 8-104.4" />
    <path fill="#bb7adc" d="M1010 440.4l-5.8-21.6-.2-158 5.7 37.5" />
    <path fill="#8c8e95" d="M160 43.4l62 18.3 5.8-45.3 9 36" />
    <path fill="#a4a4a0" d="M166.6 494.5l-55.8 8.3 20.5-226.4-5 228.4" />
    <path fill="#fff" d="M360.4-13.4l-86.2 68.6-143-86.2 36.6 61" />
    <path fill="#fffffe" d="M297.6 160l77.3 28.8-40-20-34 5.2" />
    <path fill="#565462" d="M669.5 428.7l1.2 1.5 5.2 80.3 4-80" />
  </g>
</svg>