<svg version="1.1" viewBox="0 0 1024 512" width="1024" height="512" xmlns="http://www.w3.org/2000/svg">
  <g fill-opacity=".5">
    <path fill="#fff" d="M932.4 461.5l122.6 13-171.2.6-125.2-2" />
    <path fill="#313238" d="M711.5 410.2l-5.5 10.6 6.4-49-10.8-7.4" />
    <path fill="#42554d" d="M561.6 439.4l15.5-12-34-20.4 30 3" />
    <path fill="#fff" d="M330.8 132L361-31-31 25l293.6 39.8m-7 432.7L10 496l95 47 260.4-44.5" />
    <path fill="#f4f7fa" d="M840.4 120l17-10.5-15.6-5.8L561.6 225" />
    <path fill="#96bedc" d="M364.4-31l-.6 111-71.4-6 52-10.8" />
    <path fill="#b6b5aa" d="M676.7 244l-29.3 24 5-31.3L697 122.4" />
    <path fill="#02080a" d="M379.6 494.6l233.4.8 75.4-1.5-244-2" />
    <path fill="#666e55" d="M337.4 381l-.5 45.5 44-34-39 8.6" />
    <path fill="#3d391f" d="M339 395l-10.2-10.5-5.4 51-2.8-45.2" />
    <path fill="#feffff" d="M95 492l-52.6 7.2 24.2 36.3 18.8-65.8" />
    <path fill="#fbffff" d="M341.5 425.5l32-62.4-1.5-105-16.5-6" />
    <path fill="#fff" d="M688.6 399l.3-37-58 46.8 57 19M864 77.5L797.3-31h-346l15 163.8" />
    <path fill="#000703" d="M406.3 395l-14.8-2.5 3.3 5.8 24.6.6" />
    <path fill="#f7ffff" d="M516.2 390.5l-28.5 10-5.2-36.6 2.2-25" />
    <path fill="#fcfdfc" d="M184.8 19.8L80 422.2l289-80-236 85.6" />
    <path d="M904.3 480.7L892 475l-20.6 15.4 24 6" />
    <path fill="#bcbebf" d="M710.2 479.6l105 1-48 11.3-61 1" />
    <path fill="#fff" d="M588.2 29l-90.8 178-35-17.2L398 185m645.5-25.2L1031-4l-47.6 3-14 147.4" />
    <path fill="#e4f9ff" d="M569 487.8l29.2 4.8L605 516l-6.4-41.3" />
    <path fill="#ededee" d="M919.7 497v-18.7l135.3 20.4-129.8-8.4" />
    <path fill="#000408" d="M691.8 403.2l2.2-32.7-6.5 1.4 5.5 61" />
    <path fill="#282927" d="M111 427l9.2-23.7L134 418l-21.3-4.6" />
    <path fill="#fdfeff" d="M982 282.8l-63 140-37.7 1 106.2 2" />
    <path fill="#f39700" d="M468.3 441l12.3-8.5L467.8 317l13.7 7.5" />
    <path fill="#ef93c1" d="M458 130l-24-64 23.3 21.8 14.4 30.4" />
    <path fill="#dbbd90" d="M920 465.6l4-.2L800.3 453l178.4-3.3" />
    <path fill="#32342c" d="M513.5 384.5l-.6 4 6 52-5-82.5" />
    <path fill="#94ddea" d="M381.7 139l-12.3-11-83-13.8 12.5 24.3" />
    <path fill="#1d1f20" d="M123.5 438l-1 .3 54.7.7-46.4-12.2" />
    <path fill="#5d5d47" d="M361.2 442.8l-2.7-48.7-21 48 1.2-47" />
    <path fill="#262009" d="M86 405l-11.5 3.3-14 5-18.8-8" />
    <path fill="#f6f4f4" d="M55.5 462L190 488.6l-60.4 4.2 7.7-28" />
    <path fill="#ffa683" d="M615.2 448.2l-97.4 14.3-51.6-13 163.5 17" />
    <path fill="#fff" d="M792.3 508.7L1055 543l-63.7-421.2.6 372.4" />
    <path fill="#131919" d="M601.5 405.7l-1.3-5 6.7-2.8-5 44" />
    <path fill="#fff" d="M548 461.8L271.6 465l106.8 10h100.4" />
    <path fill="#382b00" d="M432.4 338.5l12 2.7 4.7 3.5-22 4" />
    <path fill="#b1b1b1" d="M846.6 96l40 33.7 44.5 26-39 4.5" />
    <path fill="#fff2b2" d="M329.3 434.5l16.4-22 21.2 60-43-86.7" />
    <path fill="#fff" d="M261.2 134L280 6.5l7.7 113.8L281 335" />
    <path fill="#f4eadd" d="M905.3 521.6l-3.6-57.8 15.8-45-14 2.4" />
    <path fill="#222" d="M45 476.4l-4.5 3.5 38.6-1 13-3" />
    <path fill="#ffaf73" d="M144.8 133.3l-11.3-72.5 25.5 73.7-15.4-1.5" />
    <path fill="#f95d00" d="M900 345l-11.8 96.2-3.7-153 11-35.7" />
    <path fill="#f87500" d="M394.4 332.7l-14 68-3.5-103.5 10-6" />
    <path fill="#211e1e" d="M292.5 425.2l19 2-47-.3 12.3-5" />
    <path fill="#95dfc6" d="M259 143.8L269 77l-55.8 6L262 50.7" />
    <path fill="#1d1d1d" d="M120.7 474.5l-8.6 1-25 2.5 119 .2" />
    <path fill="#faf9f7" d="M163.5 412.7l67.2 13.7-20 9.6-71-107" />
    <path fill="#fdffff" d="M708.5 440L927 452.3l41-13-104.3-.3" />
    <path fill="#f4ffff" d="M426.5 370.3l-6-75.4-15.5 92 18 33" />
    <path fill="#b9a98b" d="M957.4 41.5l-2.6 65.7 24-39-76.2-51.5" />
    <path fill="#fff" d="M614.7 136.4l-95.2 132 134-33.3 8.5-54M-31 458l30.6-19.2 75.8 1.2 184.8.3m-18.5-407L19 63l113.7-94 68 119.8" />
    <path fill="#404549" d="M651.4 422.3l52 16.8-21.4-14-8-1" />
    <path fill="#292929" d="M86.8 475.2l-30.2.3-3.8 3.2 107.6.3" />
    <path fill="#fff" d="M525.5 474.4l288.6.5 182-12H744" />
    <path fill="#888a8d" d="M717.7 173l-7.5-3-1-15.6-35-15" />
    <path fill="#1f393d" d="M773 427.3l56.3 1.2-85.5 8 46.5.3" />
    <path fill="#fdfdfd" d="M842.6 477.8L858 543l-26.6-64.8 1 .3" />
    <path fill="#535d60" d="M727.4 428.2l-4.4-15.6 67.7 29-58.3-34.2" />
    <path fill="#fff" d="M420.5 497l-254.5.5L424.5 543l2.2-69" />
    <path fill="#fed879" d="M881 430.5l-11.3-58-2.5 42.4 4.3 25" />
    <path fill="#9dbbd9" d="M395.5 13.8L391.8 84l19.6-48.7-2.8-23" />
    <path fill="#fefeff" d="M165.6 145.6L3.2 133l61 28.6 20 297.4" />
    <path fill="#cdd9d1" d="M774 434l27.5.2-53-6.3-40.8 6" />
    <path fill="#f7ffff" d="M880.2 370.8L759 424.6l44.8 2.3 80-116" />
    <path fill="#fff" d="M219.7 475l131.8-2.4-108.8-12.4L-31 471" />
    <path fill="#221c16" d="M466.8 434.4l-116.4 1 66.2 3.7 38.6-1" />
    <path d="M497.8 439.7l1.5-10 1-30.7-4 13" />
    <path fill="#594b28" d="M862.7 376.8L865 416l8.7-40.5 23.2 27" />
    <path fill="#fff" d="M729.7 446.7L522 439.5l-195.8-.5 33 12.6" />
    <path fill="#afada9" d="M659.8 186.7L657 279l12-87 175-68.7" />
    <path fill="#494e46" d="M840.5 418l-18.5-2-11.6 17 1.4-22" />
    <path fill="#f4f7f8" d="M568 425l4.2-9.7L612.7 176l-21 253.2" />
    <path fill="#677277" d="M655 481.8l39.4 18.7-59-26.4 54.6 3" />
    <path fill="#fff" d="M908.7 39.3l-52 26 9.3-23.6 32.2 118" />
    <path fill="#c31416" d="M639 255l9 11.4-9 11.7-14-17" />
    <path fill="#d31e00" d="M843.8 85l6 16 6.3 4.6 4-23.2" />
    <path fill="#26292b" d="M671 475.3l222 3.7H679l-9.8 17" />
    <path fill="#242830" d="M640.8 431.4l-50.4 7.2 65 .3 3-16" />
    <path fill="#04171a" d="M496 436.5l2.7-53.3-.3 56-94.7-3.4" />
    <path fill="#ac885c" d="M809.7 147.8l23.8-9-24.3-24 6.2 20" />
    <path fill="#848480" d="M828.5 108l12 18.6-2-21.5-25-2" />
    <path fill="#191a20" d="M264 435l-49.7-1-12.7 3 75 2" />
    <path fill="#2c2924" d="M512.5 368.3l23 3-17 1.3-1.3 23" />
    <path fill="#fefefc" d="M607.4 437.7l119.2-131.2-75 125.4-41-11" />
    <path fill="#302f2f" d="M957.4 493.3l-88.3 1.3-83 2.4 42-6" />
    <path fill="#97999a" d="M776.6 136.5H771l33.6 31-70-55.6" />
    <path fill="#f7f9fa" d="M586.8 306l-122.4 5.2L468 87.7l79.6 329.5" />
    <path fill="#12110f" d="M705.2 425.7l4.4-42.7.2 49.5-2.5 7.6" />
    <path fill="#fff" d="M440.8 118l4-36.7-32.8 5-2.5 32.7" />
    <path fill="#fff8b2" d="M481 422.5l4.6-20.6 11.2 13-5.3 20" />
    <path fill="#fff" d="M782.6 428l65-43.4-1.7 46-63-74" />
    <path fill="#3a1700" d="M881.3 350.4l.6 76-2 3 9 10" />
    <path fill="#da3c00" d="M880.7 36.8l43-14.7 1.4 16-32 1" />
    <path fill="#161616" d="M119 491l6.8.4-73.4 2.8 117 .4" />
    <path fill="#f9a603" d="M431 357.8l-1 42.5 14-45.4-13.8-15" />
    <path fill="#3b4038" d="M848.3 426.6l-4-27.4 7.5.5.2 11.6" />
    <path fill="#aeadac" d="M876.6 131.8l62.4 18.7 22.2-23-27.6 7.5" />
    <path fill="#fff" d="M230.3 318.4l-108.7 93 195-6.3-96.2 32m625-321l-15.6-24 86.8 48.6 25-88.6" />
    <path fill="#8bffb7" d="M320.8 450.5l-18.6-1.3-21.6 7.8 39.7 8" />
    <path fill="#b5b6b7" d="M639 123.8l23.8 54 13-30-110-11.3" />
    <path fill="#fff" d="M-31 124.7L40.5 543 39 210.2l2-52.2" />
    <path fill="#fdffff" d="M575.2 141l43.5 146.5L673 157.8l29.5 37.2" />
    <path fill="#21231b" d="M221.3 423l-3.6 17.2-1.7-7.8-1-21" />
    <path fill="#9c978c" d="M803.4 96.7L782 163l21-28.7-23-9.7" />
    <path fill="#fff" d="M938.4 16l106 154.4L1015.6-31l-559 134.5" />
    <path fill="#5e5e58" d="M606 403.4l15.2.8 3.5 25-15.2-43.2" />
    <path fill="#e4c6a6" d="M26.2 64.8l18.7 26-47-9.4L-9 97" />
    <path fill="#c6bfb3" d="M525.8 150l8.5 75-24-10.6-3-18" />
    <path fill="#4e4d4d" d="M258 493.8l14.2-9.5 3 13.6-76-5" />
    <path fill="#fcfefe" d="M679.5 207l-5.7 83.3 252.4-25-103-115" />
    <path fill="#242f2b" d="M905 416l11-3.2 1.3 17 15.5-2.3" />
    <path fill="#ffe29d" d="M48.3 437l-2-29L70 438l3.8-29.5" />
    <path fill="#95bbe2" d="M335.8 54.4l13.8 82.7 22-61-6.6 54" />
    <path fill="#050706" d="M398.7 478l28.2-3.4 15 18.4 63-17" />
    <path fill="#97b6d8" d="M410.2 87l38-19-31.3 3.6L406 27" />
    <path fill="#1d363f" d="M576.5 426l-4 9.4 15-5.7-16.2-5.4" />
    <path fill="#feffff" d="M349 389.3l3.3 23.4L370 361 79 394.4" />
    <path fill="#fff" d="M537.2 496.8l-371.4 15.6L1055 515l-357.8-17.3" />
    <path fill="#000510" d="M692.7 417.2l-2.8-20-2 14 3 26.5" />
    <path fill="#fdffff" d="M319 413.8l-74 8.5 11.7 10.3 65-42.2" />
    <path fill="#6c6d6f" d="M149 478.2l84-4.3-1.2 37 11-36" />
    <path fill="#89e2be" d="M847 451.5l58 .2-8 10.5-42.2 1.2" />
    <path fill="#081920" d="M932.6 438.6l-63.8-1.4L934 435l38 1.4" />
    <path fill="#532000" d="M884.2 290.6l16.7-24.3V310l-9-51" />
    <path fill="#fff" d="M961.2 442l33.6-3.5 5.2-261 55 365.5" />
    <path fill="red" d="M447.4 271.8l13.8 131-1.6-187.7-12.6-16" />
    <path fill="#fbfbfa" d="M817 434.6L801.5 259 734 343.7l95 83" />
    <path fill="#ff8974" d="M706.3 457l37-10.7L741 463l-27.7-.5" />
    <path fill="#fafcfc" d="M441.4 358.8l2.4-221.8-92.6 157.8 82-4.2" />
    <path fill="#737476" d="M254.6 474.4l35 9-40-7.2 4 31.8" />
    <path fill="#fff" d="M447 5.5L92.6-31 152 99.3l21-52" />
    <path fill="#8e8f91" d="M725 182.7l9.6-54.2 48.2 44.5-54.5-40.5" />
    <path fill="#ffffb5" d="M372.5 407l-11.8-5.4 6.3 51 1.3-22" />
    <path fill="#161c0b" d="M480.6 326l2.7 117.3-7-23.7 1.4 8" />
    <path fill="#e4e8e8" d="M737.7 468.2L618 490l70.4 2.5V462" />
    <path fill="#fff5b0" d="M617.7 436l-16-32.6-1 2 15.6 1.3" />
    <path fill="#f9fafa" d="M52 199.7l324.4 4.5-5.3 191-61-8.8" />
    <path fill="#fff" d="M566.4 121.2L415.6 63.4 410.4-31 876 39.2" />
    <path fill="#191f27" d="M273.7 437.4l34-3 36.6 4.4-107.7-5.7" />
    <path fill="#211905" d="M61.6 432l-.3 7.4-4.5-14 4.6-13.5" />
    <path fill="#f8ff9e" d="M174.4 79.7l21 20.4 8.2-10L171 45" />
    <path fill="#fff" d="M841.7 241l13.8-92.4-65 5.5 11.5-15" />
    <path fill="#0e1b13" d="M411.5 389.8l-3.8 11.7 5.4 34-1-27" />
    <path fill="#fbe195" d="M852 407l30.6-1-3-19.6-30.6 48" />
    <path fill="#fff" d="M394-31l3.2 246.7-370-80.2 338.4 2.8" />
    <path fill="#37393a" d="M656.3 477.8l2.5 17.5-129.5-1 121-1.8" />
    <path fill="#655e4e" d="M700.5 368l1.8-11.8-5-1.2 1.2 29" />
    <path fill="#fff" d="M80 44.6l285.4 23L-31-31 48 82.6" />
    <path fill="#7fcdff" d="M463.6 463l-16.2-.3-.5-15.8 15 8" />
    <path fill="#fafbfc" d="M903 290.3l2.7 93.5 79.8 53-.3-353" />
    <path fill="#77787a" d="M729.3 160.4l35 17.2-37.8-23.7 5.5-26" />
    <path fill="#ff6500" d="M900 396.6l-11.3-137-2.4 167.5 10.7 8" />
    <path fill="#312d22" d="M77.6 405.4l-40-.2 32.8 1.8 10.8 30" />
    <path fill="#8b8a87" d="M781 109l-14.2 23.3 11.7 16.5-19 28" />
  </g>
</svg>