<svg version="1.1" viewBox="0 0 1024 512" width="1024" height="512" xmlns="http://www.w3.org/2000/svg">
  <g fill-opacity=".5">
    <path fill="#a3e16d" d="M843.5 167.4l-9-43.3.8 169 9 19" />
    <path fill="#fff" d="M660 63.4L484.4 99.8l-21.2 31.7 56 85.4" />
    <path fill="#97999c" d="M115.2 345.7l75.2-86.4-38 14.7 3.3 12" />
    <path fill="#1c181a" d="M661 196.2l10.3-53.7L659 207l-89.2-5" />
    <path fill="#61d500" d="M275 178.6l5.3 42.8 56.8-2 4-42.8" />
    <path fill="#5b5b5b" d="M473.2 431l34.8 63.7 1.6-63.5-20.5-2.8" />
    <path fill="#919295" d="M17.6 281l29.7 9.6-18.3 5-4-43.7" />
    <path fill="#fff" d="M199.5 42.8l19 10.4 7-21.2-70 16.2" />
    <path fill="#161214" d="M303.7 33.5l53 28.7 40.6-1-49.2-12" />
    <path fill="#fff" d="M65 44.4L69.4-31 2 7.4 99.8 42m198.6 271.7l-24 193.4 131-159L288 332" />
    <path fill="#b6b6b7" d="M700.4 11l224.2-3-81.5 4.4-149 .6" />
    <path fill="#fff" d="M275.4-31h308.8L409.5 39l-69 8.7M122 432.5l-4 38L4.8 543-31 211M726.2 56l136 1.5-50 8.8-110.4 3.3" />
    <path fill="#c57dda" d="M959.4 264.8l6.3 10.7 49.6 4-71.3 2.3" />
    <path fill="#82eaf6" d="M779 86.7l-73.3 18-2 7 13-20.7" />
    <path fill="#fff" d="M325.7 45.4l-23.6 3-6 20.6 28-8M79 289l35-22.5 32.3 22-17.7 34.2" />
    <path fill="#9ea3a1" d="M56.3 28l23.2 3.2L123.3 63 107 26.7" />
    <path fill="#fff" d="M685.6-31l-80 36.2-51 86 130.2 77" />
    <path fill="#b6b5b7" d="M1001 111.3l-19.8 3.7-104.4-1 56.6-3" />
    <path fill="#0a0608" d="M535 86.8l34-25.2-10.4-9.5-3.8 33" />
    <path fill="#b1b0b1" d="M988.8 106.2l-.4-118-2.2 71.5v49" />
    <path fill="#fffeff" d="M709.3 449l16.7-5 5-33.3-18.7-8.4" />
    <path fill="#140f13" d="M458.7 386l-36.7-.8 44.2 11.3 17.3-16.8" />
    <path fill="#afafaf" d="M911.6 129l45-3.6-50.3.2-165-1" />
    <path fill="#77e524" d="M429.8 454.8l.4 70-2.7-39-.7-22.4" />
    <path fill="#fff" d="M178.8 88.4l9.5 164.5 87.7-26 4-141M165 388l-13 141 217 14-190-127.7" />
    <path fill="#656566" d="M394 320.8l-46.3 1-80 2 120 5" />
    <path fill="#767676" d="M68 177.3l-36.2-15-3 17.2 41-2.3" />
    <path fill="#fff" d="M224 218.6l176 7-69.4 20-127.7-2" />
    <path fill="#a3f46c" d="M356.3 471.5l-46.4 11 4-38.8-2 28.6" />
    <path fill="#a8aca7" d="M843.6 368l33-31.5.6 9 .4-1.2" />
    <path fill="#bfc0bc" d="M1004 421.5l-118.7 2-90-1 46-3.3" />
    <path fill="#fff" d="M437.5 376.2l24.5 12.5-6.3-53.2-19 16" />
    <path fill="#cc99e6" d="M1007.7 414.6l4 56.5-24.3-7 11.6-3" />
    <path fill="#fff" d="M325.8 83.4l72 169.3 10.6-108.2-31-27.4" />
    <path fill="#68d700" d="M310.2 149.4l17.5 6.3-34.2 11.7-8.6-10" />
    <path fill="#6d6672" d="M437.8 449v54l17-5.6-.7 11" />
    <path fill="#ffa586" d="M760.3 41l2.2 15.2 126.8-2-118-10.4" />
    <path fill="#404040" d="M788 428.2l12.4 59.2-9.8-14.7 24.7-42" />
    <path fill="#fff" d="M1014.3 363.6l-7.5 179.4 48.2-259.3L991.4-31M350.8 308.2l-2.8-32-46-13.6 62.5-1" />
    <path fill="#96ffff" d="M391.4 487l-21.2-1.8-.6 18 24.6-10.6" />
    <path fill="#fea282" d="M721.7 291.7l120 3.8-10.3-6.5h-68.6" />
    <path fill="#c1c0c2" d="M685.4 218.8l2 199.7 2.2-128.7 2.8 49" />
    <path fill="#676668" d="M115.4 172.6l-5 2.5 3.2-30-7.2 8" />
    <path fill="#b7d8da" d="M430.8 254.5l77.3-30-16 38-27-36" />
    <path fill="#fcfffa" d="M340.2 309.6l33 153.7-12-151.5-5.2 52" />
    <path fill="#fff" d="M93 199.8l71.7 71.6-47.5-91.8L-31 183" />
    <path fill="#ff8b73" d="M919.7 157.4L923 143h18.6l2 13.8" />
    <path fill="#fff" d="M343.7 460l57.2 6-23 2.2-218 5.8" />
    <path fill="#919091" d="M535.3 428.4l-19 73 21 1.6-1-89.7" />
    <path fill="#9bbf88" d="M97.7 332.3l8.4 23 9-12.5-9 40" />
    <path fill="#4d464f" d="M459.6 132L433 143.3l-18.8-4 37.8-1" />
    <path fill="#fff" d="M799.6 392.8l-53.3 73-2-163.3 90.5-3.6" />
    <path fill="#1b1719" d="M487.6 352.8l-8 11-19-26.6 9 1.2" />
    <path fill="#525054" d="M404.7 509.2l-4.2-19.8 3.4-55.6 2 53.4" />
    <path fill="#fff" d="M932 33.8l-97.4 6 150 7.5-17-34.8m-584.2 311l-1 23.8-4.6-81 56.4-55" />
    <path fill="#b5b5b5" d="M445.7 335.8l1-29.3L461 288l-2.5 50.6" />
    <path fill="#fffffe" d="M892.3 121.3L864-24.7l9.5 153.2 24-106.4" />
    <path fill="#fff" d="M163.3 52.5l-45.6 22.7L128 23l31.3 4" />
    <path fill="#f6f6f7" d="M526.2 45.2l24-1.5 7.8 15.6-8.4 1.8" />
    <path fill="#999" d="M791.3 482.8v-46.6L767.7 488l-25-29.7" />
    <path fill="#fff" d="M579.6 30.4l169.2 19-.5 85L762.8 33" />
    <path fill="#fcfbfc" d="M166.8 315.3l-49-158.4L32 167l87.4 2.4" />
    <path fill="#fff" d="M288.3 175.3l5.4-54.6L280.4 39 211 150.5" />
    <path fill="#6ed722" d="M698.4 509.4l-.7-.2 5.8-10.6-1.4-46.2" />
    <path fill="#424142" d="M615 427l1 68.8 31.8 8-3-62" />
    <path fill="#8c918f" d="M151.4 284.5l-26 60L121 325l22.6-7" />
    <path fill="#f5fce7" d="M307 163.5l7 4.5 9.7 10-23-5" />
    <path fill="#fff" d="M-11.7 127l121 19.3 47.4-7.8-99.4-86.8" />
    <path fill="#9ee96b" d="M850.8 33.6l-73-.2-8.2-14-14.4 2.5" />
    <path fill="#fff" d="M547.3 9.2l156.3 31L277.2 12l235.2 35.4" />
    <path fill="#84878c" d="M144.2 152.8l2 .8 11-9.2-.7 43.7" />
    <path fill="#88e047" d="M403.2 496.8l26.6 4.3.3-74-5 81" />
    <path fill="#fff" d="M441.8 381l6.7-52 28 32.3-12.7 21.2m311.2 131l-268.2-4.2-167-12-336 14.5" />
    <path fill="#1e1b1d" d="M514.4 75.4l-46 9 4 6.6 88.4-13.8" />
    <path fill="#fff" d="M151 479.3L23 543l90-14.3 10.8-58.3" />
    <path fill="#c4c3c4" d="M911.8 8.5l19.7 1 6.3 2.8-133.8 1" />
    <path fill="#efeff1" d="M173.2 274.8l17.4-13.4 7.5 22L85 295" />
    <path fill="#fff" d="M386.4 104.4L397 60l30.7-14.3 41 28.3M712 76l241.6 9.4-216 5-48 1M878.8 42l-18-8.8-112 3.3 74.4 8M191.8 495l210-10.3-99.6-6-7-133.8" />
    <path fill="#6b6b6b" d="M81.3 157l-42.5-11 66.8 2.2-70.6 7.5" />
    <path fill="#fff" d="M334 339l-188.6-14.5 195 65.2-1.4-74" />
    <path fill="#bdff92" d="M337 489.3l-31.2-2.6-9.2-5 4.2 20.7" />
    <path fill="#8f9197" d="M110 478l17 18.6 14.3 15-22.4-10.4" />
    <path fill="#7b8173" d="M401.5 203l41-22.3-29.3 4 25.5 12" />
    <path fill="#b9776f" d="M393.8 477.5l-14 .7h-29.3l36-14.3" />
    <path fill="#8ffe6e" d="M910.3 164.7l3.7-13-8.7-20.6 3.3 26" />
    <path fill="#fff" d="M157.7 237.7l-184.3 9L-16.8 91l95 180.3" />
    <path fill="#b8b8b9" d="M807 448.5l3.6 38.6 37-40h23" />
    <path fill="#fff" d="M1004.8 462.4l-18.5.6-3.2-28.4 21-162" />
    <path fill="#fffefe" d="M922 401.5L918.7 299l-61.4 60.6-16.4 69" />
    <path fill="#fe9e80" d="M922 303l2.2-12.3 2.5 66.3-5.4 53.7" />
    <path fill="#909194" d="M91 263.4l-11.8 29L106 258l53.5 18" />
    <path fill="#4d4253" d="M482.8 101.2L424 145.4l24.3 6-31 .4" />
    <path fill="#f4f6fe" d="M714.5 435l-5-35.2-.5 71.8 6.4 51.6" />
    <path fill="#fff" d="M466 139l17-42.7L521.3 83l82 29.4m-237.7 56.8l-39.5 6 49-79.5-40-9" />
    <path fill="#4f4e50" d="M292.8 323.3l-5.3 5.2-5.5 5-1.4-18.5" />
    <path fill="#73767a" d="M225.5 57.8l-13.2 2.7 1.3-3 21.4-19" />
    <path fill="#fff" d="M400.7 515l.2-86 30-116-46 74.4" />
    <path fill="#b8fc8b" d="M356 417.3l3 31 32.7-10-33-6" />
    <path fill="#242022" d="M314.6 82.3l12.4 5.2-30.5-2.7-1.8-16.8" />
    <path fill="#8d8f91" d="M254.2 86.5l-9.4-8-76.5 4.2 3.4 4" />
    <path fill="#54d200" d="M741.2 31l-1.8 2.6 9.3-6.4-42.3-1.7" />
    <path fill="#272425" d="M513 46.5l-56.8 16.8 93.2-25-25-5" />
    <path fill="#67e801" d="M425.7 166.2l-15.2-9.2-5 13.2 47.8-3" />
    <path fill="#feffff" d="M905.5 478.8L762 543l-128.3-35.3 271-8.2" />
    <path fill="#fcfcfc" d="M307.7 279.7l10.5 97.6-17.8-62 12 118" />
    <path fill="#140022" d="M435 128.5l3 22-4.3 3.8 13 5" />
    <path fill="#d0cfd1" d="M712.8 425l-45.3-9 140.8 6.2-8-1" />
    <path fill="#fffeff" d="M643.7 516.5l31.6-262.2-3.3 237L519.8 543" />
    <path fill="#5b5b5b" d="M908.5 432.8l74.5-4.3.6 66-24.6 6.8" />
    <path fill="#fff" d="M421 358l10-110 4.2-54-48.3 43.8" />
    <path fill="#f7f8fa" d="M168 241l-10.5-25.5L167 140l2.2 58" />
    <path fill="#95e8ef" d="M857.4 492.3l-4.8-12 20.4 26-25-2.4" />
    <path fill="#414141" d="M908.8 502l31.8-3.2-18.3-66.5-16-5.4" />
    <path fill="#fff" d="M442-31l-58.3 88.7-44.4-13.3L263-31" />
    <path fill="#171511" d="M409.2 179l4 22.4 5.7 7.3-12-1" />
    <path fill="#fdfffa" d="M768.2 25.2l-66-10.5 79.4-.8L683 25" />
    <path fill="#ba80d9" d="M550 274.6l21.5 28.7L548 297l36-42.2" />
    <path fill="#fff" d="M125.5 428l22.3-117.2 152.6-48-44.7 54" />
    <path fill="#3c393e" d="M460.2 290.7l-31.8-22.5 13.5 26-12-3" />
    <path fill="#373436" d="M343 62.6l7-12.8-3 11.8-5.6 15.3" />
    <path fill="#fff" d="M932.7 286l-9.2 129.3 57.4 5.4-1-140" />
    <path fill="#0f0a0c" d="M418.6 138.8L385 108.6l25.5 33.3 6.5 20" />
    <path fill="#fff" d="M47 32.5l-16.3-.3 4 22.4L50 44" />
    <path fill="#2e2b2d" d="M433.8 339l15.4-22.5-25.8 33.2L432 374" />
    <path fill="#fff" d="M97.4 261.5L246.7 223l-90 50.3-78-98.6M480 328.3l-7-14 3-21.6 101.3-47M465 246l1-62-20.5 105.6 41.8-39m426.7-101l7-25 8 122.8 54-16.3" />
    <path fill="#e1e1e1" d="M760.2 158.8l-26.6 6.2 98 104.2-93.2-84.8" />
    <path fill="#d1cdc7" d="M836 275.5l27.4 24.7 48 46 91.8 97" />
    <path fill="#999a9c" d="M209.2 285l-53.8 11.5 41.3-41.5-59.7 23.6" />
    <path fill="#fff" d="M515.2 59.8l30 13.3 4.5-28-6.2-2" />
    <path fill="#c4c3c5" d="M679.6 112.6l65.8-2.5 10.7 3-18 3" />
    <path fill="#3f3d3e" d="M337.2 62.8l-12 13 10 3.2 1-42.5" />
    <path fill="#2b2829" d="M352.8 44l1 30.6-56.7 9 54-.3" />
    <path fill="#515151" d="M805.6 476L773 501l62-.4-14.7.8" />
    <path fill="#9aab9a" d="M176.8 124.2l-27.5-66 10 52.3L178 79" />
    <path fill="#fff" d="M90.5 41.3l86-3-106.5-3 .2 16.3" />
    <path fill="#d5d4d4" d="M765.2 454.7l10.2-56.4-4.4 76-24 12.7" />
    <path fill="#8c8e91" d="M138.6 456.7l14.7 37.7-26 12L160 481" />
    <path fill="#575456" d="M707 66l44 4.6-20.2 5L719 75" />
    <path fill="#fff" d="M555.2 235l-78.5 53 69.3-78.8 170.5-.2" />
    <path fill="#5e5d5e" d="M720 406l-11.3-21.8 13.2 6.2 7-5.3" />
    <path fill="#9cb591" d="M122.6 46.8l-50.3 8.4-7.8 6.3 52.7-7" />
    <path fill="#fff" d="M391 403.8l-16.8-87.5.8 28.6 95.4 76" />
    <path fill="#7b7a7b" d="M358.3 291.5l-44.4 11 37-20.5-13 14" />
    <path fill="#8f9194" d="M43.7 253.2l-17 9.5L95.3 283l-39.6-15.5" />
    <path fill="#fff" d="M549 287h106.5l-219 143.5L626 239" />
    <path fill="#675246" d="M860.4 486l12.8-19.5-6.5-17.6-3.8 1" />
    <path fill="#fff" d="M397 39.3L222 21.8 170.4 28l-64.6-59m228 101.3L304 74l5.8-32.2 22.6 17.4" />
    <path fill="#5fd500" d="M305.3 210l-9.8 9.6 45.8 1-16.7-71.4" />
    <path fill="#272325" d="M465.7 56.6L399.5 38l60.4 7 19 40.4" />
    <path fill="#64d314" d="M690.5 513l-1.7-56 1.8-40.8.5 40" />
    <path fill="#1c191b" d="M637 204.5l-94.5-5.6-1.2 7-3.4 2" />
    <path fill="#69c724" d="M832 133.5l-2.2 13 12-22 9.6 17.3" />
    <path fill="#c2c7be" d="M787 125.5l-93.2 2L797 237.3 685 124.7" />
    <path fill="#fff" d="M717-31l-4.4 129 246 12.2-264.8 1.2m-517.5-47L158 80.2l103.4-2.8-5.4-20" />
    <path fill="#aaea88" d="M367.2 269.8l24-15.5-23.4-14.6-9.5 16.2" />
    <path fill="#998f8d" d="M120 362.8l3.6 98.7 4.7-67.4.7-40" />
    <path fill="#fff3ed" d="M120 404.6l34.8.3-44-13 5.7-100" />
    <path fill="#7c7b7d" d="M866.6 77.7l-1.5-7.2-10-1.6 16-7" />
    <path fill="#99999e" d="M178.8 52.2L137.2 5.5l39.4 29.3-26.8 27.8" />
    <path fill="#8d8e93" d="M42.6 28.6L69 27 38.7 64.2l27-14.2" />
    <path fill="#a39795" d="M209.5 365.3l-37.2 24-30.5 31-7.6 14.5" />
    <path fill="#fff" d="M447.4 138.8L694 199l-215.7-13-29.3 14.4" />
    <path fill="#ff6b3c" d="M517.3 244.4l-2.3-21-15.2 16.4 8.4 5.6" />
    <path fill="#f9f8f9" d="M556.7 423L543 529l-6-103.7 24.5 27.6" />
    <path fill="#59555c" d="M400.3 501.5l2-30-2.3-42 7 7" />
    <path fill="#bafe93" d="M324 462.4l-26.2-11 42.8 1.2 12.5 7.8" />
    <path fill="#bdbdbe" d="M987.4 13.4l-5.6-6-1.5 1.6-133 2.7" />
    <path fill="#fff" d="M146 433.4l4.6 24.3 387-49.6-379 5M340 202l6.4 33.7L397 135l-36.5-30" />
    <path fill="#f0f0f1" d="M379.7 302.5l-40.2-33-.7 35.8-8-33.6" />
    <path fill="#f3f7f1" d="M99.7 50.8l-76-13.4L107 55.7l-2.4 153.6" />
    <path fill="#9c9a9c" d="M72.4 227.4l-7.8 20.2 1.8-32.6 1-15" />
    <path fill="#201d1e" d="M547.7 32.2L526 35l27.5 10.7 4.3-11.3" />
    <path fill="#b274d3" d="M533.5 256.7l8.8-.4 9.2 4.5 1.6-24.6" />
    <path fill="#787879" d="M47 144.2l-6.8-1.6-.3 15-8-12.2" />
    <path fill="#fff" d="M929.5 66l8.7 27.3 55.6-35.7-155 2.8" />
    <path fill="#8e9298" d="M129 467.3l-20.4 26.5 18.7-52.4-8-21.4" />
    <path fill="#94c476" d="M125 362.6l-2.8-14-19-9 1-13.2" />
    <path fill="#64676a" d="M739.6 423.7l6.5 14-4 61.2 4-1" />
    <path fill="#fff" d="M165-31L-16 41l1-39 123.3 27.6" />
    <path fill="#5ad300" d="M284.4 187.3l9 16 10-50-8.4-2.3" />
    <path fill="#fff" d="M99.4 271.8l44.6 25-9.8 23.4-41.6-4.6" />
    <path fill="#918e91" d="M176.4 200.2l1.3-68.5-11.3 69.7 21.3 28.4" />
    <path fill="#dac0eb" d="M940.6 253l2.2-7.3 29.8-.7 11.5 15.5" />
    <path fill="#8eeb4b" d="M424.6 419.7l-12 17 18.2-13.6v33" />
    <path fill="#1c141a" d="M436.4 292l-1 29.4 3.4 3.5 5.6-85" />
    <path fill="#4b4b4b" d="M298.3 285l6.3 16.2-6.8 1.2-1.2-4.6" />
    <path fill="#343134" d="M495 246l-26.7 43.7-5.2 4v-18.2" />
    <path fill="#454343" d="M436.4 337.6l41.8-3.8-13.4 4.2 6.6-9" />
    <path fill="#464445" d="M518.2 50.8l23.5-12.4L512 55l10 16.4" />
    <path fill="#fbfafc" d="M415 440.2l.5-203.6-10.3 230 8 68.3" />
    <path fill="#282526" d="M430.3 308.6l34.2-2.3L474 353l-2-44" />
    <path fill="#a0bd95" d="M685.4 498l7.4 6.8 29.5-6-79.7 3.3" />
  </g>
</svg>