<svg version="1.1" viewBox="0 0 1024 512" width="1024" height="512" xmlns="http://www.w3.org/2000/svg">
  <g fill-opacity=".5">
    <path fill="#6a1100" d="M456 284l309 1-23-16-325 2" />
    <path fill="#7f3900" d="M583 44l176-13-375-4-28 14" />
    <path fill="#d54300" d="M376 436l48 2-7 37-43 2" />
    <path fill="#beb59e" d="M514 210l516-135-375 40-386 4" />
    <path fill="#5f448a" d="M514 404l35 17 80-14-105 61" />
    <path fill="#b4b29b" d="M95-31l39 43 12 195-62 179" />
    <path fill="#69726b" d="M789 389l-106-5 102 99-112-66" />
    <path fill="#957324" d="M140 373l102-72-73 104 86-63" />
    <path fill="#0060ae" d="M362 477l-22-41-28 3 3 35" />
    <path fill="#83631f" d="M899 90l-132-1 212 34-75 11" />
    <path fill="#9d6e2e" d="M512 118l-77-31 58 50 79-13" />
    <path fill="#5bbd96" d="M515 295l155 2-180-40 180 3" />
    <path fill="#88826f" d="M820 412l221 17-207-4-48 54" />
    <path fill="#a1924c" d="M95 493l-47-23 7-87-19 42" />
    <path fill="#8b8a8f" d="M317 392l90-34-106-7 118 46" />
    <path fill="#fff" d="M521 260l109-14-89-87L73 347" />
    <path fill="#fff" d="M541 68l78 87 436 101-460 3" />
    <path fill="#a95c29" d="M719 440l34 11 64 15-70 1" />
    <path fill="#9b9c74" d="M600 421l24-30-94-23 199 106" />
    <path fill="#87867c" d="M588 162l175-42-180-1 171 39" />
    <path fill="#a77421" d="M538 110l20 76h70l-60-16" />
    <path fill="#fff" d="M422 137l37-37 26 38-34 47" />
    <path fill="#7f700e" d="M587 39l48-11 121 17-123-6" />
    <path fill="#8f836a" d="M422 161l-178-7 183-10 15 54" />
    <path fill="#fff" d="M572 463l483 33-693 47 108-134" />
    <path fill="#9e9ea3" d="M894 372l100 28-65-3H791" />
    <path fill="#817460" d="M1027 99l-200 3-95-1 7-12" />
    <path fill="#fff" d="M857 387l-485-34 317-67 363-18" />
    <path fill="#fff" d="M591 12l374 81 38 233 52-357" />
    <path fill="#4b7795" d="M682 401l119-8-165-13 12-14" />
    <path fill="#858777" d="M116 363l12-97 7 96 59 25" />
    <path fill="#89733a" d="M122 161l11 18-4-178-9 119" />
    <path fill="#fff" d="M339 241l-29 186-180-283 89-175" />
    <path fill="#9c8f55" d="M359 128l70 5 10-42 47 10" />
    <path fill="#fff" d="M9 542l80-320 61-25L-31 72" />
    <path fill="#848675" d="M96 17l8 170-7 69-9-55" />
    <path fill="#aed75a" d="M61 331l19 22-65-15 8-16" />
    <path fill="#fff" d="M612 111l290-8 39 14-70 3m-535 14l361 15 254-16-310-3" />
    <path fill="#e37801" d="M389 467l40 12-12-50-35 15" />
    <path fill="#575b60" d="M788 125l70-7 3 13-67-1" />
    <path fill="#9c6c12" d="M194 335l43-17-71 52-22 4" />
    <path fill="#fff" d="M836 53L376 42l87 49 37 34" />
    <path fill="#934e08" d="M525 40h78l-64-13-164 16" />
    <path fill="#7a8280" d="M192 444l6-20-8-29-14 80" />
    <path fill="#73672b" d="M482 145l2 14 69-1-5-10" />
    <path fill="#475887" d="M553 452l-37-69 8 60 69-27" />
    <path fill="#b1da5d" d="M634 477l-53-6 5-23 45 11" />
    <path fill="#bbde75" d="M656 204l33 14 40-3-39-28" />
    <path fill="#8f998e" d="M107 351l-9 20-51 29 13-24" />
    <path fill="#935e11" d="M424 283l157 1-17-14-163 5" />
    <path fill="#fff" d="M466 284l88 26-98 233-56-253" />
    <path fill="#876000" d="M678 421l-18 27-11-3v-10" />
    <path fill="#fff" d="M-31 510l680 33-213-70-238 4" />
    <path fill="#ab8a12" d="M166 207l-46-35 3-19 15 15" />
    <path fill="#934904" d="M689 272l-29 9 67 4 67-10" />
    <path fill="#fff" d="M31 403l270 90 34-263-130 182" />
    <path fill="#b782bb" d="M543 452l-57 45 43-7-45-38" />
    <path fill="#7c663f" d="M605 131v-15l28 3 137 10" />
    <path fill="#939892" d="M177 476l27-64-33 48-50 36" />
    <path fill="#a9d74c" d="M22 114l45 9 6-18-52-6" />
    <path fill="#fff" d="M916 237l83 270 26 36 30-421M137-31h189l-71 325-98-50" />
    <path fill="#b5dd66" d="M550 202l4 20-54-10 4-19" />
    <path fill="#b27e02" d="M441 180l-13-2-16-29 20-3" />
    <path fill="#afafb3" d="M834 199l32-95-13 76-111-44" />
    <path fill="#30c199" d="M520 290h142l-119 9-57-10" />
    <path fill="#918873" d="M691 378l-34-2-35 25-54-9" />
    <path fill="#fff" d="M318 115l162-27-172-75L22-31" />
    <path fill="#fcfdff" d="M102 252l2 160 19-54-3-211" />
    <path fill="#fff" d="M84-31l4 163h51L-31 73m796 385l-69-33-71 37 145-27" />
    <path fill="#8c8d86" d="M746 66l-5 71-6-70-21-38" />
    <path fill="#877c24" d="M95 68L85 30l26-22-17 36" />
    <path fill="#9b7c00" d="M552 136l11-15-26-6-22 9" />
    <path fill="#bbdd73" d="M815 24l32 2 10 20-32 4" />
    <path fill="#c1e47c" d="M367 218l33-15-84-9 11 21" />
    <path fill="#659fbf" d="M368 439l-74-15 52-16-38 68" />
    <path fill="#bae16d" d="M834 467l48 5-13-23-43 2" />
    <path fill="#b6de65" d="M195 286l-36-17 36-9 10 31" />
    <path fill="#fff" d="M781 279l-441 79-219-139 793 179" />
    <path fill="#5e624a" d="M236 325l15 33-2-18-3-24" />
    <path fill="#9b7d0f" d="M671 43l-69-1 66-13 35 6" />
    <path fill="#feffff" d="M104 33l-1 315 20-322-33-4" />
    <path fill="#fff" d="M1019 192l36 164-227 16-125-180" />
    <path fill="#b3df5d" d="M730 463l-24-11h-34l38 25" />
    <path fill="#bee275" d="M977 174l-4 18h-50l6-22" />
    <path fill="#8c9387" d="M94 337l8 52-2-182-10 102" />
    <path fill="#868992" d="M319 160l39-3-64-15v16" />
    <path fill="#fff" d="M987 481l-178-22-337 84 583-33M432 30L684-4-2 2l326 24m32 133l-226 1 314 52-27-54" />
    <path fill="#a89f66" d="M128 346l43 36 27-7-12 34" />
    <path fill="#fff" d="M579-31l-18 186 18 25 28-37M181 365l31-27-24 189 132-146" />
    <path fill="#b4a45f" d="M36 437l62 45-37-4-15-69" />
    <path fill="#8b92a9" d="M609 404l-77-29-17 59 32-66" />
    <path fill="#9f7749" d="M880 104l106-14h-35l-121-3" />
    <path fill="#fff" d="M617 254l-89-1 99-95 78 2" />
    <path fill="#a1691f" d="M130 132l19-4-30-37 13 34" />
    <path fill="#8e8541" d="M601 187l-28 4 48-46-15 8" />
    <path fill="#8a8993" d="M422 445l-21-33 10 6 26-5" />
    <path fill="#fff" d="M167 114L13 124l120 9 3-89M88 370l75 173L41 424l132-51" />
    <path fill="#986539" d="M723 430l51 43 38-19-82 4" />
    <path fill="#94969f" d="M952 429l-91-3 17-11 96 1" />
    <path fill="#c2e57d" d="M953 474l15-11-49-15-22 11" />
    <path fill="#9a9986" d="M283 129l61-16 30-23-30 41" />
    <path fill="#fff" d="M762-31l18 243 8-120L678 3" />
    <path fill="#a4a2a4" d="M344 395l78-2-13-11-105-4" />
    <path fill="#36c28b" d="M647 255l16 40-29-2 36-16" />
    <path fill="#8b8a70" d="M972 129h12l-63 3 48-19" />
    <path fill="#fcfdfe" d="M940 414l-323-1-85-14 204 1" />
    <path fill="#fff" d="M363 129l-16-19-1 27 12 97" />
    <path fill="#96450a" d="M565 193l-1-5-17-39 31 32" />
    <path fill="#98989a" d="M854 400l-42-23 6 26 97-42" />
    <path fill="#fff" d="M487 164l-4 28 86 9-28-44M34 246l56-83 2 143-2 92M334 48l373-2 34 66-156 7" />
    <path fill="#b2ab7d" d="M461 181l59-44-65 63-27-27" />
    <path fill="#908142" d="M78 260l24-6v-59l-17 79" />
    <path fill="#9c9b9d" d="M411 369l1-12-16-4-109 11" />
    <path fill="#fff" d="M459 194l-30-75 39-2 18 25" />
    <path fill="#b64e2f" d="M488 138l-19-26-10-26 25 24" />
    <path fill="#2eb97d" d="M518 296l-8-40-7 35 8 1" />
    <path fill="#9a9d99" d="M124 407l-2-87 2-131 9 99" />
    <path fill="#b49a3c" d="M859 422l-20-7 2-21-17 36" />
    <path fill="#667a72" d="M142 20l-23 25 13 64-3-60" />
    <path fill="#fff" d="M344 267l-173 22-39-94 5 160m452-60l3 105-88-112-21 8" />
    <path fill="#837f5b" d="M773 75l15 10-5 3-22 15" />
    <path fill="#9f987c" d="M734 443l-27-20-85 18 105-33" />
    <path fill="#a78f30" d="M360 27l12 17 5-2 107-10" />
    <path fill="#fff" d="M-31 543L1 254l42 204 25 22m112-216l-89 10 4-15 303-37m657-128L897-31 817 96l33-10m18 57l-94 282 180-155-62-173m-222 8l-233 16 7 72 62-123" />
    <path fill="#fff" d="M784 127l119 96-150-90-96 198" />
    <path fill="#ffcb0e" d="M370 474l26-2 13-30-28-2" />
    <path fill="#eef2ed" d="M518 265l47 7 98-6-20-1" />
    <path fill="#fff" d="M910 385h-40l4 40 42-20" />
  </g>
</svg>