<svg version="1.1" viewBox="0 0 1024 512" width="1024" height="512" xmlns="http://www.w3.org/2000/svg">
  <g fill-opacity=".5">
    <path fill="#37789d" d="M666.3 400.5l37-15.2L759 399v-15.7" />
    <path fill="#00ae7e" d="M647 259.4l-95.3 2.7 85.6 3 30.5-3" />
    <path fill="#fff" d="M307 435.6l159.3 2.5L275 402l210.3-6.6" />
    <path fill="#fff" d="M412 406l32.3-150.3 3.8 121.5 116 90.3" />
    <path fill="#8f4d14" d="M761 284.3l-303.2-4.5 297-8.4-.2.8" />
    <path fill="#9d883d" d="M254.5 333l-28 33-3.7-17 18.2-8" />
    <path fill="#fff" d="M815.6 443l144.6 9.2-15 90.8L1055 421m-275.6 37.7l165 84.3L514 485.7 828 465" />
    <path fill="#2e7bab" d="M313 473l28-31.7 31-6.2-59 2" />
    <path fill="#99926b" d="M161.7 189l-45.3 44.5 37-53.2-38.3-13" />
    <path fill="#ad75b3" d="M528 495.7L488.2 469l5 18 34-3" />
    <path fill="#fffffb" d="M687.5 448.8l36.6 2.4-8-40.4 43-34" />
    <path fill="#91948b" d="M159.7 374l43 61.5-44.8-72-77-6" />
    <path fill="#fff" d="M357 382.6L261.4 346 205 374.4l370.3-13.7M539.5-31l-361 61 419-3.3 457.5-4" />
    <path fill="#9b802a" d="M423 143l-2.7 27.8 57.6 15-29 7.6" />
    <path fill="#9d8527" d="M125 233.2l-34 5.4-5-16.7 19.4 10" />
    <path fill="#999c9b" d="M669.4 122l174.4-4 8.5 41.2 7-25.8" />
    <path fill="#f8fcf7" d="M550 425l7.7-55.3 28.2 61 75-44.5" />
    <path fill="#9a9759" d="M142 22.2l-45 3 24.7-16.4 16.5 32" />
    <path fill="#fff" d="M175 462.8l-5.8-90.8-133 117 62-78" />
    <path fill="#fff" d="M159.4 478l197.8 65L213 318.3l92.6 86.6" />
    <path fill="#89887e" d="M620.7 421l18 13.2-15-42 16-1" />
    <path fill="#fff" d="M-31 386.5v-267l122 6-1 116.3" />
    <path fill="#7e6c47" d="M427.2 105.2l8.4 14.7 11-23 30.8 8" />
    <path fill="#9cc938" d="M227.7 284.2L224 277l-6.4 7.7-.4-24.2" />
    <path fill="#684e8f" d="M577.5 415.6l-2 23.4-15 14-.2-26.3" />
    <path fill="#fff" d="M1055 387.5l-133.4-250 78.7-4.4-269.8 216" />
    <path fill="#848485" d="M830.3 194L811 176.7l40 7-7-13" />
    <path fill="#7f7f80" d="M914.4 396l41.4 1-23-3-46-29.8" />
    <path fill="#a14c0e" d="M741.2 466.6l10.3-18.7-29.5 5 8.6-16" />
    <path fill="#fff" d="M373.5 93.6l3 65.2L545 234l-173.7 38.8" />
    <path fill="#9c9a8c" d="M48.8 386L40 421.3l61-79.7 10 1.2" />
    <path fill="#fff" d="M395 66.8l-3-57.6 10.3 55 1.8 118M120-14L.8-3.7l-22 125.5L39 91.6m153.4 324L50 384.6 43.6 334 75 474.5" />
    <path fill="#7a806f" d="M439.4 471.7l-86 2.7-43.6-.6 16.8-4.7" />
    <path fill="#fff" d="M260.4 474l352 2.6-188.6-18-5 84.4" />
    <path fill="#9c5000" d="M899.8 87.2l-2.8 15.3-42-10-17.3.3" />
    <path fill="#fff" d="M861 127.6l35 374-15.3-388L854.2 91m-766-19l361-32.2 9 125.7v-81" />
    <path fill="#9e9992" d="M724 36.8l19 26-16.6-13.4-70.2-26.8" />
    <path fill="#9b8768" d="M610.3 172.3L616 114l-20 70.4-10.8-11.3" />
    <path fill="#acacad" d="M776.3 143.5l39.4 34.5-71.3-29.3.7 10" />
    <path fill="#c8c8c9" d="M907.4 182.3L840 261.6l33.3-27.8 13-17.6" />
    <path fill="#9d947b" d="M669.5 427.2l22-55-18.5 67.3-38.3-2" />
    <path fill="#7f8895" d="M966.8 102.2l-67.6-1.6 68-11 2.5 11.6" />
    <path fill="#91978a" d="M181.2 441l17.3 12-22.8-68 18.7 21.2" />
    <path fill="#fff" d="M702.8-11.4l146.6 60L770 74l15.4 43.5M851.7 293L440 297.4 151.5 305 626 380" />
    <path fill="#9d410d" d="M458.3 30L588 34l-28-7.2 8.2 15.3" />
    <path fill="#fffeef" d="M584.3 291.2l52-4-51-5.6-13.3 123" />
    <path fill="#1cb88d" d="M530 265.3l-39-7.5 35 2 87-.5" />
    <path fill="#b4d66b" d="M721.8 205l-54.2-12.5-1.4 29.6 10-19" />
    <path fill="#fff" d="M617 158l160.5 6.4-49 35.8-127-13.4m108-57.6L682 15.2l31 68.4 33.8-26" />
    <path fill="#a35720" d="M146.5 128.7l-17-6.2 6.3-16-28.2 1.5" />
    <path fill="#fff" d="M289.2 81L133.7 59l-2.8 41 176 295.7" />
    <path fill="#9c6714" d="M179.5 355l29-18.4 27.8 24.5-29.6-37" />
    <path fill="#fff" d="M668 343l11.8 43.5 162-4.6L690 279" />
    <path fill="#9cca39" d="M390.6 216.4l.6-1.2 2.8-13-11-10" />
    <path fill="#939396" d="M969.2 412.7l-9-16.8-13.3-11 23 2" />
    <path fill="#fff" d="M278.6 384.7l-110 17.5 71-38.6-32-3M147 186.3l-4.7 17.2-34 5-8-36" />
    <path fill="#b0d95d" d="M671.7 480l6.4-30 9 19 4-14" />
    <path fill="#fff" d="M660.6 271L796 162l32.7 104-135.7 5.3m-184.2 13.5l-11.6-110.5-39.5 24 2-26" />
    <path fill="#716c95" d="M553.8 432.6l-38.3-35.4 25.5-21-22 42" />
    <path fill="#fffef6" d="M183.3 299.2l1.8 13.5 66 93-27-43.7" />
    <path fill="#848a85" d="M99.5 16.4l3.7 100.8-10.8-4.8 1.3-58.7" />
    <path fill="#fff" d="M684.6 488.4L526.8 450l62.3-2.5L465 543" />
    <path fill="#929385" d="M815.8 448l12-70-16.6 55.3-26.6 28.5" />
    <path fill="#fff" d="M763.2 465.3l10.6-37.4-22 31-14-128M457.5 121L446 188l-16.6-41.5-58.6-.8" />
    <path fill="#bc4628" d="M422.3 478.6l1-66.6 1.3 24.8-35.2 1" />
    <path fill="#fff" d="M183 227.6L37 224l114-5 340-74" />
    <path fill="#9c9053" d="M63.7 458.8l-31-38.2L48 457l.2 3.7" />
    <path fill="#fff" d="M589.5 177l18.7-20.7-48.3-66-3 64.5" />
    <path fill="#828586" d="M626.3 147.5L606 159l79-4.2 22.5-8" />
    <path fill="#53c3f9" d="M355 449.2L329 436l-13.8 34.7 43.5-.7" />
    <path fill="#fff" d="M802.3 472l-32.7-47 63.7 118-4.2-123M78 531.5L68 477l74.4-54-72-53.2m499.3 36l14.5-32.4-22.8 23.2-63 14" />
    <path fill="#b19d95" d="M309.6 425.5l28-16.8-4.6 26.8-22.6-30.5" />
    <path fill="#882400" d="M610.4 143.3l1.8-9-8-14 14.5-3" />
    <path fill="#aaaeab" d="M591 410.4l-18.3-26.7 7.3 42.6 41 .5" />
    <path fill="#c7c7c8" d="M294 154.4l5.2 51 60 64.7-44.3-34" />
    <path fill="#a59d70" d="M291.3 123l2.8-7 46 7.7-43 11.4" />
    <path fill="#fdfeff" d="M599.4 406l-50.6 22-27-39.8 37.2 4.5" />
    <path fill="#c3c3c5" d="M1004 135.7l1.8-58-3.6 3-11 58.8" />
    <path fill="#8f9691" d="M188.8 451.8l-55 30 8.6 6.3 35-17" />
    <path fill="#fffffd" d="M176.2 353.8l-136 10 10.7 31 21-41.5" />
    <path fill="#ad8811" d="M144.8 181.8l2.8-7.6-25.4-12-12 7" />
    <path fill="#a20a30" d="M480.3 102.3l-20 4h3.3l16.5 14" />
    <path fill="#fff" d="M816.6 424.6L792.4 452l-18.2-60.6L810 315" />
    <path fill="#737374" d="M944.4 427.8l-19.3-1 28-.6-1-36.6" />
    <path fill="#fff" d="M808.3 295.2l3.4-165.7 52 22.5-81.5 29.7m-708.8 245L-31 442.4l149 81.8L-11.6 408m154-269.8l-14.5 52 81-135.4 184 310.5" />
    <path fill="#fff" d="M191 459l-23.6-2.4 95 86.4L336 303.4m312-37.6l-204-1.3 176.6 6.3 34-6" />
    <path fill="#395876" d="M698 384l-5.5-2 .4 6.6 2 32.2" />
    <path fill="#869096" d="M863.8 396l-102.6-5-10 12.5 43-15.2" />
    <path fill="#fcfdff" d="M762.4 134.3l42-39-56.7 82.3L730 135" />
    <path fill="#47d5a6" d="M655.3 304.8l-.2-15.6 2-29.2 8 12" />
    <path fill="#8f9a9b" d="M90.4 362l2.4-89.4 10.6 8.3L97 384" />
    <path fill="#91969f" d="M360.5 133.7l10.5 12.7-18-33.5 37 10" />
    <path fill="#8e7f33" d="M553.4 117.6l3.4 12-20 3.8-55-14.3" />
    <path fill="#fff" d="M897 407.7l26 28.3 1.3-179.8 5.3 207.4" />
    <path fill="#fffffd" d="M718.2 422.8l10-130.4-19.8 169.3 11.8-9.5" />
    <path fill="#8d8d8f" d="M861 165.2l1.8-13.8-35.2 41.3 30.3-25.2" />
    <path fill="#fff" d="M58.7 268l47.4 22-137-13 70-173.2m679-83.3L808 97 797-31l-85.2 81.8" />
    <path fill="#a86bac" d="M486.6 461.7l7.8 5.4 34-9 8.6 11" />
    <path fill="#fff" d="M613.5 443.8L771.2 542 621 431l4.2-66.6" />
    <path fill="#7d723c" d="M950 108.3l14.5 23-12.8-.7-6-2" />
    <path fill="#fff" d="M965.2 512.5l23-325-76.6-52.8 143.4-5" />
    <path fill="#fff" d="M902 467.7l9.2-14 139.2-20.2-230.7-6" />
    <path fill="#9c9391" d="M649.2 372.5l-17.8 4.2 48 8.4-28.4-19" />
    <path fill="#fff" d="M750.8 269.3l-203.4-21.6 1.7-61.4 82 12.4" />
    <path fill="#556093" d="M535.5 449.2l-22.7-38 16 11.2 48 8.2" />
    <path fill="#fff" d="M49.6 523l494-57.8-303 77.8-136.8-74m-70-14l108.5-80.4-55-3.5L59 448m266.8-53.2l12.5 30.5 94.6 13.4-84-45M121 53L6 53.7l161.5 6L287 58.3" />
    <path fill="#626237" d="M388.8 441.7l-54.3-5 78.2 1.8-38.7.5" />
    <path fill="#d0cfca" d="M286.4 150L318 46.7 352 33l-48.5 38.6" />
    <path fill="#cacbcc" d="M1014.4 416.8l-31.8-32.3 27.4-7.3-22 56.2" />
    <path fill="#fff" d="M132.3 364.3L322 259l-203 81 15.5 1.4" />
    <path fill="#72650b" d="M903.3 129.2l27.6.4-18-6.8-3-5.7" />
    <path fill="#afd45f" d="M201 257.8l-10.8 23-18-21.7-5.7 26" />
    <path fill="#842407" d="M765.4 465.8l8.5 3.7 3-3.3-3-18" />
    <path fill="#fff" d="M151 378.4l59-390.6-67 260-9.3 66" />
    <path fill="#959596" d="M874 371l-.8 22.4 22-28.8L938 400" />
    <path fill="#b49928" d="M79.2 489.4l1.5 21-2.8-39.2 16 5.6" />
    <path fill="#fff" d="M503.8 275.5l5 181.2-91.2-76.5-8.8 58.2" />
    <path fill="#bedc7d" d="M826.8 36.2l37-8-45-4.4-1.7 26.4" />
    <path fill="#fff" d="M629.5 383l38.4 15-4-23.7-21 35.8" />
    <path fill="#a59242" d="M398.3 116.2l18 3.6-7.5 30.8-3.8-33.3" />
    <path fill="#b08507" d="M509.4 163.4L523 147l-24.2 3.8 9.4 8.2" />
    <path fill="#fff" d="M313 97.2l95 20.8 51-32.8L357.4 36M643 423l-58 16.2-1.8-38 17.5 50.5" />
    <path fill="#a65626" d="M574.5 271l-96 7.5 123.6-3.2-5-2.7" />
    <path fill="#935710" d="M458.6 281.5V270l98 11.8-99.7 2.5" />
    <path fill="#c5c5c6" d="M801.4 277.3l63.5-41-18 22-68 19.4" />
    <path fill="#edf4fa" d="M687.8 375l-2.7 5-2 57.3 7-9" />
    <path fill="#fff" d="M431 175.7l34.6-30 22.3 63 22-36.4m-24 48l49-23.3-74 73 182-59.6m268-93l22-60L1055 42 934.3-31" />
    <path fill="#fffffc" d="M695.3 411.7l15-14-14.6 33.2L795 534" />
    <path fill="#afd65c" d="M906.6 465l43.4-14-28.2 7-9.2 15" />
    <path fill="#fffefe" d="M609.8 366.6L592 543l13-175.5 72.4 24" />
    <path fill="#fff" d="M447.4-31L435 44.4l-9.4-38-185.8 68" />
    <path fill="#add25d" d="M17.2 325.7l34.6 11-27.6 3.4-5 11" />
    <path fill="#797b82" d="M730.5 146l-20 10-71.8-.5 103 3.8" />
    <path fill="#ae9b38" d="M703.7 29.5L635 41.8l-61-4.5L610 27" />
    <path fill="#f0f3ef" d="M498.5 128.3l58 4 50.6 11.2-148 4" />
    <path fill="#bebec1" d="M46.2 487v49.6l-3-20.7 27-26" />
    <path fill="#fff" d="M680.6 177l5 54-.4-89-.7-44.8M-31 287.8L101 338-2 404l98.4-84.7M263 323l-27.8 15 148 17.6 34-84.2m181 268.8l-87-7 54-95-11-8.7" />
    <path fill="#fdfeff" d="M335 33.7l-2.4 125 16 103-11.2-96.8" />
    <path fill="#929280" d="M495.6 155.2L470 192.6l2.8-17.4 12.4-33.5" />
    <path fill="#fff" d="M631.5 47.4l-116 67.7 221 4-22.7-76" />
    <path fill="#7a6615" d="M608.2 391.5l5.5 21.4 3.3-20 1.2-9" />
    <path fill="#fff" d="M424 286.3l70.4-131 92.2 77.6-65.7-78" />
    <path fill="#4f707e" d="M92.7 308.6v10.8l31.8-10.4 2.4 4.7" />
    <path fill="#a77c6a" d="M406.4 418.7l5 37-1.2-57.6 1.6 8" />
    <path fill="#fdfeff" d="M324.5 186.8l63.3-57-69.3 45.3 1-82" />
    <path fill="#b1d662" d="M883.7 462.5l-8.2 13-5.8-4-3-21.5" />
    <path fill="#64777a" d="M240.3 323.6l-5 .7 13.8 30.3-10-7.6" />
    <path fill="#9d450d" d="M496 40l-30 2-2.4-15.6L522 41.2" />
    <path fill="#7f7543" d="M49.5 409l-12.3 38.2 13.2-8L36 411" />
    <path fill="#758486" d="M436.3 279.5l-7.4.5-10 7-6-20" />
    <path fill="#a26117" d="M566.8 185.2l1-20-12.4-18.3-4 21" />
    <path fill="#fff" d="M827.5 200l114-91.7-140 150.3 24-96.3" />
    <path fill="#f9f8f4" d="M737.8 419.4l-8.2 14 34 32.7-45.8-116" />
    <path fill="#808185" d="M331 147.3l20.7 11-30-.3 5.8-17.6" />
    <path fill="#fff" d="M84.6 408.8l-45-8.4 85 107.4 18-41.5M187 348.6l6.4-57-71.7 10.7 84 53.6" />
    <path fill="#607d83" d="M541.8 372l16.6-5.5-7 13-9 3.4" />
    <path fill="#fff" d="M971 69.7l-4 108.5L1035.6-31 819 89.7" />
  </g>
</svg>