<svg width="1024" height="512" viewBox="0 0 1024 512" xmlns="http://www.w3.org/2000/svg">
  <path fill="#f0f1ee" d="M0 0h1024v512H0z" />
  <g fill-opacity=".502">
    <g class="UTIL__svg-thumb__low-res">
      <path fill="#605f62" d="M741.452 115.408l-115.69 1.925 14.098-84.255 210.924 31.68" />
      <path fill="#28282b" d="M952.453 116.7l56.87-1.77-.123-80.054-61.707 10.66" />
      <path fill="#2a0f34" d="M441.966 147.85l37.94 14.877 175.153 4.666 170.082-3.703" />
      <path fill="#bcb68a" d="M206.34 157.615L180.54 11.955 112.347 41.11l22.046 444.84" />
      <path fill="#3c3b3e" d="M653.115 482.266l119.87 5.336-33.63 7.567-200.098 2.625" />
      <path fill="#00a13d" d="M626.14 108.267l-1.895 145.082 1.988 216.766 5.422-226.218" />
      <path fill="#b4934a" d="M198.904 412.225l-46.493-73.46 19.512 135.02-75.496-89.777" />
      <path fill="#757578" d="M390.867 373.014l6.93-149.784 9.637-4.018 4.603 103.006" />
      <path fill="#aeab59" d="M154.698 454.52l122.855 40.105-132.674-66.63-111.197 59.79" />
      <path fill="#ffda0c" d="M725.343 161.297l-98.815-9.494 169.37-2.593 99.067 2.2" />
      <path fill="#373838" d="M642.03 61.182l18.618-17.237 98.08-1.595-21.693 21.05" />
      <path fill="#a1a0a3" d="M809.635 279.854l75.65 1.927-134.558 30.623-2.117-96.575" />
      <path fill="#fff" d="M156.073 496.577l-3-487.67-14.976 385.08-13.45-19.663M429.51 129.57L246.594 97.146 164.08 257.507 296.93 543" />
      <path fill="#85a598" d="M639.146 215.96l-2.904 136.417 12.43 15.88 23.238 77.806" />
      <path fill="#fff" d="M-31 192.24l232.73-11.12-60.068-48.45-41.776 325.82" />
      <path fill="#9e6800" d="M103.562 62.978l41.58 37.453-25.514-11.933L147.193 9.1" />
      <path fill="#fff" d="M510.592 382.51l55.88 150.27-359.46-6.082 38.14-316.725" />
      <path fill="#968400" d="M176.046 54.028l-36.63-39.566 60.498 42.622-26.62 52.786" />
      <path fill="#605f62" d="M555.367 476.265l36.51 8.817 48.44-2.04-88.582 14.895" />
      <path fill="#8558ab" d="M259.832 99.86l7.487-21.008-52.296 8.343-13.97 11.634" />
      <path fill="#3c8160" d="M682.666 343.48l-.878 85.073-20.077-52-.49 52.35" />
      <path fill="#998d00" d="M210.06 162.7l-27.905 48.05 10.39-44.867-10.744-36.66" />
      <path fill="#ac110d" d="M116.486 408.663l-14.848-12.642 42.315-29.755-22.23 38.623" />
      <path fill="#0d1010" d="M988.953 119.892l-.628-61.483 15.956-15.132 2.237 65.848" />
      <path fill="#7d7a51" d="M639.546 175.62l-144.52-24.06 153.414-2.983-7.41 202.122" />
      <path fill="#4c028f" d="M847.07 159.08l4.753-1.015-30.393 9.623-120.006-6.124" />
      <path fill="#b5b4b7" d="M430.26 3.502l-23.666 106.292 228.232 6.655-311.223-2.92" />
      <path fill="#7993b5" d="M75.948 114.915l119.67-5.828 32.722 12.998-147.046 5.257" />
      <path fill="#009e37" d="M686.474 383.393l-57.685-3.23.153-52.173-6.663 44.202" />
      <path fill="#636363" d="M636.98 78.064l-10.326-1.295 143.458 40.15-109.252-2.012" />
      <path fill="#fff" d="M1040.314 543L643.11 347.205l1.033-18.602 399.932-71.27M179.357 81.63L153.07 35.85l-29.026 26.898 11.948 31.457" />
      <path fill="#e0e0e1" d="M583.163 97.328l275.143-1.06-150.078-28.025-107.79 67.556" />
      <path fill="#737c60" d="M133.784 257.78l5.842 47.71 3.2 75.376-13.99 1.347" />
      <path fill="#787879" d="M1032.79 42.337l-334.223 5.127-45.746 36.338 10.206-43.048" />
      <path fill="#c1a40e" d="M113.897 167.282l-.102 17.38 22.475-3.794-10.538-48.742" />
      <path fill="#fff" d="M621.685 403.46l-322.597 18.876L517.62 236.48l99-78.69" />
      <path fill="#757789" d="M421.846 144.227l16.622 26.107-.956-6.494 155.164 2.242" />
      <path fill="#79797b" d="M481.61 370.65l-4.762-82.194-2.09 169.256 6.038-55.075" />
      <path fill="#fff" d="M484.538 132.676l-54.5 169.164L322.373-31 173.136 437.645" />
      <path fill="#b39600" d="M180.723 465.717l-6.57-20.49 42.75 18.216-4.385 11.49" />
      <path fill="#41cbfa" d="M87.154 99.88l2.684 12.35-3.235-37.95-61.855 24.193" />
      <path fill="#88888a" d="M829.465 232.752l-51.61 16.006-45.985-14.71 70.262-2.7" />
      <path fill="#fff" d="M1021.39 543l22.793-425.02-171.72-3.945-61.07 92.05" />
      <path fill="#9f9ea1" d="M607.785 67.022l-5.26 56L587.64 85.29 634.356-31" />
      <path fill="#a7a7aa" d="M477.7 165.948l6.715 138.42-56.487-14.39 46.54-28.112" />
      <path fill="#9c9c2b" d="M107.49 461.215l-52.8 33.098 23.268-35.666 40.828-6.073" />
      <path fill="#9b9b53" d="M174.115 390.313L157.33 289.935l-2.02 175.982 29.04-82.35" />
      <path fill="#fff" d="M621.31 164.845l223.286.49L1055 181.416l-334.154 57.596M218.732-19.385l-50.32 159.565 48.653-64.54 238.272-41.073" />
      <path fill="#9a8ea4" d="M793.982 315.595l-11.177-18.564-101.457 13.163 75.898 3.774" />
      <path fill="#fff" d="M611.41-31l25.41 98.448 39.106-30.507L1055 43.046M389.22 239.107L167.71 203.4l-.01 121.183 228.99 115.025M-31 79.085l29.657 456.66 138.87-254.112L71.08 104.07" />
      <path fill="#c3c2c4" d="M849.767 105.2l120.47 15.38-171.8-5.33L813.322-21.02" />
      <path fill="#92941f" d="M207.347 179.018l-76.666 21.684 3.215-12.978 48.27 19.333" />
      <path fill="#fff" d="M140.112 493.518l43.52-68.43-33.676-50.313L208.792 543M1055 238.89l-10.16 277.01-292.516-1.014L957.37 104.65" />
      <path fill="#4b4c51" d="M889.165 421.006l-310.775.44 69.067 2.72 154.147.53" />
      <path fill="#fff" d="M108.497 75.15L129.7-31-31-15.074v116.816" />
      <path fill="#08ad5b" d="M625.2 301.627l-1.523-125.288 5.658-30.852 3.397 27.625" />
      <path fill="#4c464d" d="M642.162 357.018l40.236 2.037-7.364-7.808-42.366 5.18" />
      <path fill="#b8b7b9" d="M938.51 118.88L917.4 12.86l48.405 37.163-4.382 63.084" />
      <path fill="#fff" d="M482.814 175.813l2.296 245.664 151.54-7.28-73.586-231.22" />
      <path fill="#988909" d="M190.085 67.81l5.398 5.402-18.017 29.77-24.14 1.884" />
      <path fill="#8a8a8d" d="M471.93 425.506l198.352-1.067-228.828-6.19 9.496 11.423" />
      <path fill="#a6a6a7" d="M837.498 469.247l34.408-23.438-36.877-11.868 2.867 37.723" />
      <path fill="#fff" d="M592.916 151.37l-58.85-34.906L1055 119.758l-420.772 31.104" />
      <path fill="#828498" d="M168.76 310.936l-1.78-125.303-12.88 39.016 6.15 104.744" />
      <path fill="#a08f1f" d="M106.314 67.09l66.54-45.633-50.666 10.788 7.534 54.278" />
      <path fill="#fff" d="M645.65 307.19l7.787-134.613 69.208 9.85-76.92 195.035M186.01 143.836l-67.764 18.225 38.798 27.26 38.54-11.05" />
      <path fill="#737480" d="M142.9 277.615l-9.812 60.727.083-141.034 7.207 22.746" />
      <path fill="#8ab19d" d="M716.775 290.157l93.59 1.943-31.97-14.068-102.824 9.098" />
      <path fill="#6a696c" d="M779.02 445.013l-.152 7.956-13.323 6.307 1.982-26.555" />
      <path fill="#7a797c" d="M398.708 42.686l121.947-2.205 38.206 2.053-83.27 2.17" />
      <path fill="#9d9d9d" d="M315.364 114.52l-7.303-16.93 89.036 4.462 6.936-1.067" />
      <path fill="#707070" d="M396.01 218.142l1.486 62.96 3.807 46.015L409.3 222.09" />
      <path fill="#78793a" d="M147.585 118.64l-4.708-25.727-3.106-6.653-12.83 74.504" />
      <path fill="#b2b2bc" d="M82.567 543l3.196-18.5-52.99-54.216 22.9-40.09" />
      <path fill="#6d6d6e" d="M737.147 16.474L722.08 34.71l.97 15.95-9.26-34.76" />
      <path fill="#9e9fa4" d="M143.647 535.736l93.813-75.124 19.423 25.512-11.253-23.94" />
      <path fill="#fff" d="M132.534 142.857l1.112-45.935-129.36 290.74L-31 167.18" />
      <path fill="#66367c" d="M195.07 124.586l25.134-14.77 16.45 13.733-51.006-12.38" />
      <path fill="#fff" d="M131.533 55.27l25.245-21.016L176.382 66.4l-23.385 66.928M257.832 79.907l11.14 36.96L487.914-31 123.884 1.927" />
      <path fill="#ffff32" d="M513.158 148.234l-39.175 3.577 10.154 3.556 92.635-2.865" />
      <path fill="#958940" d="M184.45 10.156l25.63-2.907-40.86 37.82 14.862 23.814" />
      <path fill="#ffe406" d="M681.947 152.893l146.913 5.258 17.4-7.08-29.435-.452" />
      <path fill="#08af5b" d="M629.338 307.722l3.8 94.21-9.336-74.53 1.594-157.778" />
      <path fill="#fff" d="M129.68 513.95l32.53-118.49-75.515-36.48 57.713 43.93" />
      <path fill="#fff" d="M54.77 543l181.61-31.915L-31 385.978l167.347 53.29" />
      <path fill="#818182" d="M757.556 506.38l6.376-23.47-113.16 4.89 126.97 14.673" />
      <path fill="#909091" d="M100.807 350.812l-12.952-10.047 20.197-10.49 4.344 22.785" />
      <path fill="#f8f8f9" d="M747.012 55.837l46.94-10.79 189.595 4.04-200.474 13.837" />
      <path fill="#00befd" d="M127.298 121.49l-52.767 1.603 20.237-.875 16.454-12.226" />
      <path fill="#fff" d="M751.138 318.597L741.06 254.29l-56.132 154.95L1055 440.225" />
      <path fill="#616161" d="M761.486 95.892l-52.526 3.75 42.093 9.95 6.677-62.434" />
      <path fill="#fff" d="M186.462 446.957L643.647 543l-436.28-217.604-38.09 131.3" />
      <path fill="#938f91" d="M869.568 292.834l-131.072-9.616 124.57-1.506 12.707 6.997" />
      <path fill="#5f5f69" d="M644.088 146.808l-1.08 129.648-4.984-83.087-.12-20.538" />
      <path fill="#8a8a8b" d="M503.336 44.93l122.05 1.076 121.82 1.35-126.084-7.848" />
      <path fill="#fff" d="M425.638 250.62l-78.22-155.45 127.193 106.572-.817 86.85M644.342 270.874l7.367 86.965 61.845-110.947 123.84.132" />
      <path fill="#888889" d="M484.444 456.49l-1.182 4.078-13.404-7 17.357-26.264" />
      <path fill="#af9718" d="M191.18 139.14l9.46-.105 8.113 29.592-49.043-39.003" />
      <path fill="#fff" d="M1007.43 86.365L1005.653-31 1055 53.717l-51.667 265.218" />
      <path fill="#ffe80a" d="M719.32 268.297l12.105-5.282-32.84-3.153 3.41 6.994" />
      <path fill="#ffe00d" d="M519.492 150.36l113.817 4.96-1.2 2.447 170.472-5.738" />
      <path fill="#8c8b8e" d="M506.2 18.907l3.376-2.77 20.307 2.52-12.658 19.714" />
      <path fill="#fff" d="M593.51 429.042l12.205 77.647 20.54-68.123 179.716-11.785" />
      <path fill="#626262" d="M390.56 338.004l20.7-4.276-5.822-15.98-9.575 8.606" />
      <path fill="#fff" d="M728.68 293.162l118.693-2.673-75.995 130.672 17.772-119.33" />
      <path fill="#9c9c9b" d="M85.346 159.093L83.19 125.74l32.282 22.793-28.443-1.363" />
      <path fill="#fff" d="M173.194 97.466l-8.645 93.067 16.314-85.43 346.868 27.61M251.71 306.055L187.837 476.04l102.132-119.337-134.716 37.432" />
      <path fill="#9b9b9d" d="M706.032 461.222l-14.603-71.3 5.415 24.88-5.78 44.81" />
      <path fill="#857416" d="M186.202 97.432l2.52-61.937-22.426 78.305-11.433-17.414" />
      <path fill="#bd9a00" d="M189.707 398.222l7.785-14.242-17.473 27.775-29.244-42.644" />
      <path fill="#423f7e" d="M681.112 162.49l-196.364 3.296-7.217 20.253-1.536-31.675" />
      <path fill="#eaeaea" d="M666.706 133.82L696.6 98.23l-16.536-62.343 1.934 104.077" />
      <path fill="#7f7f8a" d="M159.425 346.62l40.407-10.69-1.225 19.644-42.402-18.7" />
      <path fill="#989895" d="M232.876 204.996l.94-13.353-3.828-4.2-33.713 3.297" />
      <path fill="#8e8a8e" d="M634.99 454.896l-23.04 6.528 9.99-16.417 1.4-6.028" />
      <path fill="#fff" d="M756.71 282.624l293.008-191.57-9.8 189.86-302.21-5.365M139.35 22.834l66.022 3.3L10.166-31-31 139.978" />
      <path fill="#fff" d="M156.03 188.237L7.675 543-31 6.948l189.818 244.35" />
      <path fill="#7d7c7e" d="M848.582 115.274l-113.556-4.034 7.536 5.787 55.572-.812" />
      <path fill="#fff" d="M1055 543l-98.936-121.83-213.5 77.228-521.46 8.718M386.377-31l21.395 205.458-.848-128.907L411.98-31" />
      <path fill="#fdfcfd" d="M594.754-8.185L627.89 143.01l-146.46 7.647 165.482-38.795" />
      <path fill="#8c8c90" d="M740.233 238.276l-28.853 9.945 4.98-3.318-29.14-5.264" />
      <path fill="#fbfbfc" d="M752.572 108.955l143.15 4.578 21.5-13.65-166.614-3.852" />
      <path fill="#5e5663" d="M638.942 296.7l2.072-95.6 5.183 164.737-5.015-16.113" />
      <path fill="#9c0000" d="M109.5 397.85l8.08-11.813 12.21 14.142-21.022 5.698" />
      <path fill="#fff" d="M130.696 408.65L101.86 478.2l69.26 27.587L-6.67 372.092M516.088 168.857l104.96 255.174 2.814-258.02.81-1.048M705.375 41.404l-156.422-.52L472.623-31l255.385 8.297" />
      <path fill="#fff" d="M760.98 14.296l-543.166.466L911.284-31l143.123 45.77" />
      <path fill="#929293" d="M629.346 26.662l-10.076.794-14.502 2.772 13.128-20.86" />
      <path fill="#fff" d="M499.182 483.082l40.927-20.223 132.085-12.74 87.476 29.137" />
    </g>
    <g class="UTIL__svg-thumb__high-res">
      <path fill="#757477" d="M545.633 460.47l10.748-3.345 5.175-16.73-6.106 1.442" />
      <path fill="#b3b3b3" d="M845.562 60.65l-62.803 61.254 9.93-61.54 53.15 38.346" />
      <path fill="#a91108" d="M121.78 63.747l10.033-13.54-13.982-5.51-7.296 5.656" />
      <path fill="#565757" d="M665.284 100.236l23.15-4.254-32.967 27.426 1.23-69.028" />
      <path fill="#fff" d="M-31 19.403l162.685 379.54-1.628-27.388.88-172.87" />
      <path fill="#9e9d11" d="M77.14 465.87l-1.034 8.68 32.772-4.14-10.69-21.618" />
      <path fill="#00b550" d="M705.95 287.202l1.06 2.43 25.208-6.054-38.77-.11" />
      <path fill="#7e50b7" d="M774.383 156.53l73.522 6.904-99.838 3.184-48.95-6.492" />
      <path fill="#4ea87c" d="M683.224 371.922l-3.417-22.41-15.194 34.173-28.035-7.22" />
      <path fill="#fff" d="M528.81-31L206.94 27.57 184.436 64.4l39.71 23.758M831.338 118.194l-389.398-1.012-355.924 11.13 454.17 14.237" />
      <path fill="#a2a2a3" d="M911.353 32.88L922.19 8.273l14.652 12.96-.33 6.214" />
      <path fill="#fff" d="M683.51 456.435l-23.592-102.92 16.59 31.995-19.456 119.8" />
      <path fill="#fff" d="M477.003 420.76l180.825-.826 2.39-37.353-110.14-5.312" />
      <path fill="#6f766e" d="M126.49 429.624l12.287-22.376.407 52.26-6.83-19.52" />
      <path fill="#fff" d="M697.605 215.027l-52.1-25.66-1.287 163.067 55.49-22.414" />
      <path fill="#909487" d="M158.677 138.678l-2.338-6.694 31.885-4.38-22.302 24.335" />
      <path fill="#b0b1ae" d="M481.764 104.056l-2.966 41.13-37.646.272 22.79 24.47" />
      <path fill="#fff" d="M372.418 543l-160.69-427.098-31.107 24.1 219.108-31.254M136.377 129.06L75.347-5.604l-94.42 6.22L99.86 93.642" />
      <path fill="#fff" d="M401.356 289.32l-235.673 36.657 6.048-113.833 202.313-6.598M478.305 296.09l-157.92 28.525 91.114-5.766L416.543 543" />
      <path fill="#8a8a8b" d="M460.224 403.574l-14.648 13.148 18.21 4.153-6.276-12.046" />
      <path d="M993.042 106.153l-3.225-14.09 1.512-48.825 4.06-.98" />
      <path fill="#fff" d="M759.587 423.55L766.374 543l101.98-83.29-191.566 14.186M623.423 402.662l-4.518-235.367-136.202-1.716-3.15 228.2M182.54 187.688l1.09-27.323-40.04-32.605-13.262 58.717" />
      <path fill="#a8a525" d="M127.942 43.278l16.885-19.033 41.088 44.17-7.257-40.842" />
      <path fill="#888787" d="M464.447 282.068L437.284 276l3.465 20.756 25.418.197" />
      <path fill="#fff" d="M997.235 103.917L1005.745-31l-79.624 45.995 71.702 23.41M582.367 105.8l-73.77-.45 1.867-60.015 80.35 3.326M679.167 333.63l309.213-55.707L1055 395.465l-370.747 26.94" />
      <path fill="#979798" d="M888.026 115.856l135.896.546-117.865-5.67-119.585 5.65" />
      <path fill="#ab8906" d="M116.004 178.4l-11.145-3.733 27.652 7.7-7-37.375" />
      <path fill="#7a7a7a" d="M582.935 505.46l-28.756-22.28 124.732 8.182-73.062-7.164" />
      <path fill="#8a8a8b" d="M783.735 498.83l-116.903-3.562 96.39-11.237 3.622 12.975" />
      <path fill="#fffffb" d="M146.48 403.393l-11.114 47.152 33.177-63.843-93.057 38.212" />
      <path fill="#898989" d="M787.074 270.677l-45.627-7.72 49.655-10.8-18.29 7.26" />
      <path fill="#8957b0" d="M709.916 311.89l20.324-.41-13.746-9.61-20.85 6.235" />
      <path fill="#959691" d="M134.387 191.2l-3.51 20.607.423 117.29 13.038-146.863" />
      <path fill="#070909" d="M1008.55 36.934l-8.958 19.895 5.57 51.082.65-57.8" />
      <path fill="#565757" d="M779.744 43.243l-92.832 5.588-7.85 12.645-29.17-19.054" />
      <path fill="#979698" d="M543.224 116.99l-110.493-.432 58.44-5.166-22.087-3.35" />
      <path fill="#9b9ca0" d="M253.477 444.074L232.05 470.83l-29.515 23.288-6.492-1.018" />
      <path fill="#fff" d="M833.323 148.31L1055 228.53 932.217 116.6 519.39 151.5" />
      <path fill="#535353" d="M651.645 73.682l-3.697-33.778-2.008 46.213 1.89 12.294" />
      <path fill="#11c061" d="M666.03 379.773l2.336 37.348-6.252 4.004-4.22 3.197" />
      <path fill="#757a38" d="M168.88 419.388l-21.64-1.14-17.26 1.983 32.997-11.758" />
      <path fill="#a2a2a3" d="M430.216 18.952L407.39 51.064l3.194 74.985 2.49-110.982" />
      <path fill="#fff" d="M411.252 76.47l64.646 260.623-3.266-209.56-61.563 286.06M148.464 104.603L125.38 62.605l20.042-23.243 35.96 27.293" />
      <path fill="#b6b5b5" d="M387.21 55.006l-6.053-6.988-26.482 45.208 33.675 2.757" />
      <path fill="#00a651" d="M618.812 378.077l6.402 1.385 54.426 1.786-29.694-5.828" />
      <path fill="#fff" d="M113.672 485.923l-48.564-12.057 27.688 54.078 16.667-85.196M164.567 366.408l28.455-39.15-35.19 4.534L307.285 543" />
      <path fill="#8d8d8e" d="M823.1 230.017l-30.044 7.29 1.19 8.977 17.813 1.013" />
      <path fill="#868686" d="M692.746 477.39l22.838 21.907 19.393-20.587-53.227 13.172" />
      <path fill="#919091" d="M606.71 117.45l42.556-2.855-52.017-2.85-45.79 3.517" />
      <path fill="#6b6c28" d="M139.273 100.86l-3.28 22.313-5.22-30.326L117.02 65.82" />
      <path fill="#5acdf4" d="M91.834 99.243l-37.418-15.24-25.52 7.287 45.615 8.574" />
      <path fill="#fff" d="M609.277 426.126l-62.138 1.743 56.472 55.864L613.576 543M473.81 513.482l-3.22-321.908-10.61 248.615L70.303 522.6" />
      <path fill="#b8b8b9" d="M590.475 77.447l68.29-26.383-1.42 8.02-68.35 42.907" />
      <path fill="#fff" d="M720.874 169.665l28.2 179.03-.427-117.525 155.76-.17" />
      <path fill="#707070" d="M411.05 307.154l-4.844-30.888-1.802.25-12.97 27.21" />
      <path fill="#dedfdf" d="M989.15 111.984l-5.086 28.68.55-80.978L982.728-31" />
      <path fill="#fff" d="M156.348 245.596l1.63-176.095-16.66 190.84 15.09 60.734M975.228 40.867l-82.235-.746 149.177-50.19L1055 42.546" />
      <path fill="#e3e3e2" d="M745.8 91.258l-25.814 7.27 5.907-44.602 20.933 52.502" />
      <path fill="#a0a0a0" d="M830.06 11.393l-23.218 6.855 7.313-2.887L818.19 42.5" />
      <path fill="#fff" d="M631.59 372.098l-1.01-12.683 30.203-1.243 23.234 19.526" />
      <path fill="#d2caed" d="M765.43 159.736l-135.956.187-75.34 38.52 84.583-42.83" />
      <path fill="#7a7b7a" d="M800.955 75.827l-.86.186 8.762-26.23 2.15 54.198" />
      <path fill="#f0f0f1" d="M787.886 111.633l-34.24-7.624 24.31-10.286 7.032-87.7" />
      <path fill="#fff" d="M91.874 465.31L-31 379.75l142.124-30.834-6.24 64.664" />
      <path fill="#9f9fa3" d="M62.76 440.986l-22.284.678 32.368 40-13.76-.73" />
      <path fill="#fff" d="M447.17 288.706L162.682 439.783-31 434.865l235.82 13.308M430 41.27l59.203-3.982 32.105-30.346L422.746-31" />
      <path fill="#96989b" d="M86.423 510.41l41.04 24.433-69.552-41.505-27.608-34.342" />
      <path fill="#fff" d="M-17.307 359.045L-31 470.865 85.107 451.24 52.6 482.422" />
      <path fill="#fdfff5" d="M187.838 17.305L90.13 120.115l90.962 56.74-91.97-67.89" />
      <path fill="#81822f" d="M139.196 460.62l-10.223-2.207-.53-9.838 13.988.84" />
      <path fill="#767d4d" d="M163.06 465.56l2.95-38.93-15.645 3.553 11.075 15.76" />
      <path fill="#7c5901" d="M194.84 466.09l-11.448-21.602.93 14.955-12.01-4.113" />
      <path fill="#542e81" d="M597.856 164.978l145.913-.752-163.104-8.303 68.28-2.983" />
      <path fill="#939394" d="M477.696 233.23l-2.105 118.53 8.518-59.003-2.252 13.958" />
      <path fill="#a8ae17" d="M172.264 378.732l-14.017 11.92-5.005-13.154 1.89-23.745" />
      <path fill="#5e5e5e" d="M783.915 62.81l-70.752-.248 23.615-21.37 32.834 40.193" />
      <path fill="#fff" d="M818.992 296.026l-32.486-74.005-1.577 54.24 58.36-45.556M161.034 458.873l39.956 22.366L56.564 543l33.214-72.57" />
      <path fill="#d11623" d="M112.982 400.215l10.478-15.57-12.214.393-3.603 9.114" />
      <path fill="#6f3e93" d="M724.58 164.56l96.594-4.51-.537-1.554 40.757 6.676" />
      <path fill="#f7f7f7" d="M961.243 22.573L1003.1-31l-48.262 84.445 3.376 69.897" />
      <path fill="#6c5265" d="M682.46 410.662l-.7 6.715-4.915-44.31-1.99 54.585" />
      <path fill="#f1f1f1" d="M655.175 51.33l-2.74-6.29-1.445 39.36 3.33 61.546" />
      <path fill="#fff" d="M405.724 296.576l-114.258 10.822 71.29-54.32-249.216 5.052" />
      <path fill="#d8d8d8" d="M980.378 38.766l-16.49 139.816 16.18-80.413-10.973-51.86" />
      <path fill="#fff" d="M461.094 171.088L236.42 109.355l-36.778 49.27 274.806 81.644" />
      <path fill="#9c9d99" d="M480.716 142.283l.28 122.25-5.094-25.786-.635-106.788" />
      <path fill="#b1b1b1" d="M378.77 99.498l68.007 19.468-63.728-7.62-85.293-1.928" />
      <path fill="#fff" d="M837.067 36.247L704.264-31l60.753 100.4 3.13-43.302M216.127 187.826l-40.015 106.456-75.11-2.133 144.548 17.37M425.804 84.204l-120.786-16.75 57.96 50.198-10.97-35.28" />
      <path fill="#6a6000" d="M205.978 176.91l-9.883-33.796 6.66.8-8.818 27.276" />
      <path fill="#a0a0a0" d="M834.5 446.788l27.18 16.897-5.702-25.4-40.523 15.654" />
      <path fill="#89882f" d="M79.3 474.433l46.95-28.14-10.36 2.098-39.855 14.866" />
      <path fill="#502f00" d="M177.497 389.462l7.96 14.338-16.994-3.235 3.28 1.697" />
      <path fill="#fff" d="M683.824 439.992L710.35 422.6l-3.874 31.082 111.82-27.29" />
      <path fill="#fefeff" d="M829.12 60.4l-4.162 55.243-4.666-68.554 142.28 10.538" />
      <path fill="#d8d8d8" d="M713.42 113.658l.517-60.805 19.377 45.843-8.247-51.272" />
      <path fill="#626262" d="M961.67 60.53l-.603 37.742 21.18-5.63 2.362-6.178" />
      <path fill="#fff" d="M87.645 163.485l54.373 2.563L-31 114.53l50.302 415.823" />
      <path fill="#686368" d="M217.435 88.64l7.864 30.02-14.67 8.45 12.724-23.725" />
      <path fill="#fff" d="M133.052 66.386L344.172 52l73.47 11.084-47.42 2.538M723.073 503.2l.26-35.963 139.57 30.188-157.1-63.233" />
      <path fill="#fffffd" d="M129.13 400.943l24.597-32.29-17.175-5.71 18.388 50.964" />
      <path fill="#8d8d8a" d="M158.124 197.224l12.18-5.168-6.217 124.724 4.29-17.173" />
      <path fill="#fff" d="M178.58-22.862L136.842-4.474 200.28 54.27l25.288 143.355M813.94 288.135l239.38-171.912-174.998 1.018L853 119.97" />
      <path fill="#4e4e4e" d="M487.167 449.14l-1.958-8.742-1.715 13.644 2.734 4.105" />
      <path fill="#8c9188" d="M787.934 300.28l-45.69.038 11.22 7.85 35.808 7.568" />
      <path fill="#e0e0df" d="M695.644 41.973l.224 68.258-6.64-21.873 6.688-71.332" />
      <path fill="#916caf" d="M204.532 103.374l6.587-16.234 33.28 14.6-3.85-22.725" />
      <path fill="#d7d4d0" d="M656.4 181.57l3.998-41.676 3.51-154.455 1.48 113.395" />
      <path fill="#bcc22d" d="M132.59 140.564l-10.077.614-13.036 7.18 18.265 13.815" />
      <path fill="#fdfdff" d="M841.286 113.444l70.09-.78-3.042-67.557-42.18 8.537" />
      <path fill="#716e71" d="M629.313 433.285l.57 18.018.784 9.074-10.033-9.23" />
      <path fill="#7e7e7f" d="M476.672 348.39l4.248 72.842-4.817 34.568 3.086-117.812" />
      <path fill="#fff" d="M723.89 283.98l74.49-12.638-73.07-3.753-67.433 7.588" />
      <path fill="#fdfefe" d="M271.945 416.004l-11.03 18.782-195.334-15.283 86.73 1.804" />
      <path fill="#777778" d="M689.74 449.232l7.448-8.673 10.81 9.61-9.49 9.803" />
      <path fill="#ae9d21" d="M214.018 452.753l.182 27.35-23.393-31.624-14.15 20.218" />
      <path fill="#85817e" d="M80.253 121.28l1.867-15.724 5.176 43.538 7.163-5.348" />
      <path fill="#fff" d="M424.95 279.5L54.71 434.947l114.45-42.606 9.304-35.644M406.19 116.273l.173-45.803-23.828 91.383 121.073-39.216M717.066 429.364l-80.773-.533 21.06 91.153-6.794-68.44M457.753 431.513l65.175-6.175 39.366 5.807-36.574 26.126M163.978 121.644l60.837-23.988-18.87 44.63 1.08-67.012" />
      <path fill="#00a244" d="M628.003 330.305l-3.854-132.48-.838-44.472 5.787-2.308" />
      <path fill="#fff" d="M463.36 229.147l-27.066-79.385-2.842 26.14-251.49-1.05M139.108 199.908l-85.24 31.987 91.793 7.78-37.842 12.827M-31 442.19l136.275-90.873 8.71 170.982-10.93-80.368" />
      <path fill="#585758" d="M618.464 503.053l-3.446-23.734-4.248 23.408 12.2-13.773" />
      <path fill="#7a31a7" d="M193.553 125.1l5-7.344 2.118-9.363-22.75 7.78" />
      <path fill="#5c5a5e" d="M656.463 358.09l-12.652-4.662 9.788-1.364 27.307 2.353" />
      <path fill="#d3d2d2" d="M680.18-7.98l26.345 119.695.058-80.095-7.504 43.908" />
      <path fill="#827a30" d="M153.76 113.085l-15.605-18.508-22.91-25.782-6.35 1.992" />
      <path fill="#353535" d="M669.004 70.802l.932-22.1-5 19.495 3.746 37.07" />
      <path fill="#a7a6a8" d="M412.48 41.412l18.992 21.082-5.244-14.484 91.814-4.762" />
      <path fill="#00b452" d="M662.02 413.446l-.836-42.215 3.785 9.714 4.2 4.548" />
      <path fill="#8a8a8a" d="M598.61 118.057l6.837-4.33-2.22-72.598-1.73 35.24" />
      <path fill="#fff" d="M570.7 483.726l82.22 1.725-47.766-41.368-71.978 24.032" />
      <path fill="#f6f6fd" d="M144.37 333.5l53.87 5.49-79.765-12.212-50.502 8.956" />
      <path fill="#4e4e4e" d="M587.713 495.555l-3.54-5.89-27.28-9.853-5.732 1.814" />
      <path fill="#a3a3a3" d="M915.217 22.636l-2.234-5.352 15.82-3.564-1.8 30.245" />
      <path fill="#85857c" d="M158.173 81.568l2.098 63.63 29.316-3.656-20.183-4.37" />
      <path fill="#fff" d="M193.56 235.703l-56.564 13.247 95.808-33.346-70.665-13.626M842.735 491.767L1007.18 115.54l-.327-121.774L1055 172.16M587.716 502.485l-397.776-61.71 402.314 93.057 1.226-61.727" />
      <path fill="#676767" d="M648.053 493.61l99.727 3.386-57.928-.476 6.176-14.41" />
      <path fill="#9d9c9d" d="M615.27 47.715l-8.05-35.44 6.758 1.564 5.474 32.622" />
      <path fill="#9f9e9f" d="M845.32 290.918l-75.447 1.94 104.16-13.737-11.085 19.37" />
      <path fill="#989bb0" d="M185.866 23.742l22.36-6.137L181.5-31h43.27" />
      <path fill="#efeff0" d="M684.907 527.708l3.172-50.607 4.426 65.61 8.226-79.617" />
      <path fill="#fff" d="M684.5 131.584l-2.126-88.517-62.093-8.765 63.81-23.25" />
      <path fill="#ffec31" d="M163.412 403.643l20.566 1.27-14.09 4.937 1.75-37.02" />
      <path fill="#fff" d="M159.707 154.797L90.32 219.162l113.1 3.09-96.753 4.628M131.606 126.93l-20.054-24.194 47.07-17.693-26.894-33.567" />
      <path fill="#fffffd" d="M175.83 259.52l30.236-62.342-39.4 14.864 5.28-31.726" />
      <path fill="#fff" d="M811.585 151.233L750.2 121.886l-106.516-6.95-160.773 28.416" />
      <path fill="#fdfcfb" d="M104.882 278.66l72.36.793-62.955-6.732 21.096 89.15" />
      <path fill="#fff" d="M848.215 429.97l-2.722 38.038-165.85 57.643L818.382 543" />
      <path fill="#fbfcfc" d="M360.184 366.837L172.05 347.67l-184.378 4.46 155.79-.344" />
      <path fill="#fff" d="M99.958 543L-31 469.612 28.027 543l14.694-66.557" />
      <path fill="#28ccff" d="M129.1 114.827l-22.93-4.616-3.698 3.81 11.365 13.562" />
      <path fill="#dad9dc" d="M474.703 94.698l-7.98-28.525 39.522-23.45 1.33 60.178" />
      <path fill="#fdffff" d="M118.582 139.51l25.192-12.83-29.333-2.2-60.563 1.416" />
      <path fill="#908113" d="M164.756 99.848l24.848-44.905L159.808 20.1l28.854 58.628" />
      <path fill="#fff" d="M790.875 291.936l185 5.437L796.292 420.42l-10.22-119.335" />
      <path fill="#828382" d="M821.087 12.532l-4.033 31.433.128 54.78 3.227-11.547" />
      <path fill="#fff" d="M476.41 140.557l-1.32 93.836-67.634 86.418 5.406-62.815" />
      <path fill="#adadad" d="M122.64 340.433l-21.208-6.772-17.755 19.375 42.773-10.323" />
      <path fill="#fff" d="M257.317 125.67l103.37-71.642-4.19 67.535L274.737-31M-24.322 37.817l130.36 52.586L122.623-31l2.016 75.07" />
      <path fill="#6d7262" d="M151.128 364.014l7.197-28.143 7.016 8.1-.455 21.943" />
      <path fill="#fff" d="M152.306 96.73L129.34 49.102l21.272-13.556 22.578 13.726" />
      <path fill="#999" d="M455.9 41.668l-43.295-.437-39.567 18.123 13.437-11.218" />
      <path fill="#fff" d="M108.292 325.03l6.625-188.475-59.18 164.01 86.406 12.127" />
      <path fill="#a2a4a6" d="M26.234 464.467l14.147 1.54 67.123 73.446-67.217-64.118" />
      <path fill="#807e02" d="M79.107 460.584l11.34 12.12-2.8 2.918-10.68 2.548" />
      <path fill="#fff" d="M626.097 170.248L479.543 311.245l.028-98.607.67-47.24" />
      <path fill="#fafafa" d="M759.946 142.09l7.608-87.753L784.81 51.2l-22.603-1.166" />
      <path fill="#fff" d="M691.738 425.686l-28.537 65.55-18.204-49.21-206.848-8.767" />
      <path fill="#fffffe" d="M148.795 170.305l-19.75-27.652 58.308 49.266-14.093-54.76" />
      <path fill="#979798" d="M365.67 75.722l47.08-1.544-55.152-8.9 3.523 8.437" />
      <path fill="#fff" d="M170.316 114.302l233.2 133.51L94.19 259.74l250.916 4.948" />
      <path fill="#00a54c" d="M624.334 368.19l4.347-27.022-1.354-67.49-3.853 78.377" />
      <path fill="#f5f5f6" d="M434.592 260.368l-73.15-3.882 92.023-11.69L354.17 262.6" />
      <path fill="#434343" d="M742.695 115.47l-2.058-22.518 1.358-.394-14.025 14.29" />
      <path fill="#fffff5" d="M142.605 358.312l17.96 10.208-37.08 35.044 44.318 1.737" />
      <path fill="#4a4a4a" d="M979.17 109.82l.142-63.08 2.523-6.22 2.5 47.544" />
      <path fill="#fff" d="M953.225 8.473L801.18 31.165l143.315 2.253-171.833-44.55" />
      <path fill="#745b6c" d="M678.797 349.72L674.514 365l3 56.853 2.695-31.138" />
      <path fill="#454747" d="M666.492 95.797l-8.558-39.827.292 59.013 27.31-2.386" />
      <path fill="#fff" d="M198.403 455.11l4.752-177.984-13.92-87.357 336.38 319.706M700.055 237.734l342.188-76.674-388.982 11.517L694.83 426.17" />
      <path fill="#8a8c8f" d="M207.876 482.257L196.17 499.55l33.618-28.327 10.775-10.57" />
      <path fill="#fff" d="M854.952 426.548L728.57 529.47l53.593-51.66-8.514-51.475" />
      <path fill="#0e1010" d="M1000.577 124.592l4.734-78.454-18.713-3.916 16.61 13.23" />
      <path fill="#8e955b" d="M145.774 21.26l-3.217 2.147-3.73 7.495 31.947 11.022" />
      <path fill="#757574" d="M947.408 65.15l7.305 66.83-1.773-92.893-4.053 39.394" />
      <path fill="#fff" d="M484.13 111.59l-39.25 1.567 27.773-69.524-34.703 19.114" />
      <path fill="#0eb55d" d="M734.907 289.394l-21.82-5.194-10.577.178-2.84 2.29" />
      <path fill="#8d8d8e" d="M843.852 424.162l-3.89 36.693-2.086-35.084-42.307-3.156" />
      <path fill="#797979" d="M746.35 231.27l5.77 10.178 28.568-2.304-8.85-7.668" />
      <path fill="#f1f1f1" d="M641.597 148.06l.727-174.316 3.847 163.116-1.24-54.025" />
      <path fill="#9d9c21" d="M155.296 191.904l12.562-6.16 11.696 17.626 23.5-15.21" />
      <path fill="#fffffc" d="M216.176 31.467l-9.36 83.08-41.05-13.898 18.384-1.423" />
      <path fill="#a16608" d="M107.493 72.553l14.442 8.345.273-1.465 6.91-42.637" />
      <path fill="#fff" d="M403.31 240.583l77.376 37.592-79.703-4.135 52.442-49.493" />
      <path fill="#888788" d="M801.944 287.75l-23.56-7.04 31.557-4.395 4.832.983" />
      <path fill="#7c7e80" d="M504.38 421.21l87.143 4.3 92.855-2.23-130.27-2.04" />
      <path fill="#5a5f26" d="M137.283 385.15l-4.198-27.036-4.175-4.424 12.97 31.263" />
      <path fill="#9c9c9c" d="M741.9 45.016l105.153-.757-93.475-3.65-4.096 81.803" />
      <path fill="#fff" d="M864.108 142.434l12.39 247.713-48.528 54.178L1055 379.852" />
      <path fill="#4c4d1c" d="M140.67 307.06l-4.002-19.112-2.656 22.035 7.615-.43" />
      <path fill="#fffffd" d="M152.965 23.257l12.87 80.9L143.66-5.746 23.933 44.385" />
      <path fill="#fdfa40" d="M88.824 475.727l9.086-22.457-9.92 2.38-2.217-7.57" />
      <path fill="#797a89" d="M154.895 244.016l6.697 19.106-5.878 82.904 3.965-97.654" />
      <path fill="#272727" d="M741.55 63.967l1.796-15.128 7.318-2.938-21.793-2.213" />
      <path fill="#fff" d="M580.77 468.593l1.663 37.43-14.96-66.613 62.767-5.136" />
      <path fill="#6d6c68" d="M439.378 153.342l2.68 8.738-2.055-15.278 12.152-3.383" />
      <path fill="#e9e9e9" d="M999.84 83.802l-6.803 62.17-54.675 141.642 63.28-163.656" />
      <path fill="#b08000" d="M189.662 448.115l6.203 13.63-10.94 3.176-12-4.428" />
      <path fill="#a5a4a6" d="M562.646 468.21l-13.68-52.835.26 40.058 11.75 7.218" />
      <path fill="#fbfafb" d="M688.628 434.454L646.843 543l30.646-84.845 3.173 49.067" />
      <path fill="#fff" d="M63.524 80.988l-81.282 298.03 158.43-83.28-94.89-32.524" />
      <path fill="#fcdb0d" d="M671.344 149.797l107.782 3.237-46.744 1.485-129.906-.755" />
      <path fill="#f8f8f9" d="M400.514 268.066l42.966 34.13-60.352-8.09 69.048-3.095" />
      <path fill="#fff" d="M633.832 359.863l41.46-1.325-6.363 88.364-3.113-79.008" />
      <path fill="#7a7b7a" d="M410.71 220.908l-2.848 18.13-23.987-26.178 16.46 10.873" />
      <path fill="#fff" d="M771.562 369.68l-44.22-65.952 22.07-100.636-2.908 136.747M164.31 543l47.115-27.187-37.805-59.382-116.085 31.252" />
      <path fill="#aaaaac" d="M785.226 455.287l-16.936 5.057-.66-43.98-1.777 35.445" />
      <path fill="#fff" d="M13.16 424.48l47.102 63.597L-31 288.2l170.16 81.116M250.975 128.346l-3.71-69.826-9.598 146.16 259.966-87.467" />
      <path fill="#fffffe" d="M68.566 463.033L117.053 543l110.053-74.75-147.74 45.31" />
      <path fill="#292928" d="M701.872 59.084l-1.83 25.61-2.993-30.163 1.447-13.04" />
      <path fill="#6d6d6d" d="M406.872 284.22l-19.38 24.253 17.108 2.367 4.9-.02" />
      <path fill="#fff" d="M380.494 329.47l38.766-42.562L275.277 472.7l196.886-93.538" />
      <path fill="#ebebeb" d="M742.788 95.603l-42.184.124-10.02-16.07 52.755 5.612" />
      <path fill="#777f45" d="M144.035 107.47l6.148-7.39-34.423-7.07 9.224-7.232" />
      <path fill="#b0b0af" d="M166.082 348.468l21.466-16.692 16.282 7.233-25.39 6.838" />
      <path fill="#fff" d="M646.443 171.816l-1.77 7.202 1.41 112.084 120.79-124.064" />
      <path fill="#d9cb1b" d="M187.735 158.572l18.643 5.28-4.776-23.784-8.975 31.335" />
      <path fill="#59cbf1" d="M51.688 90.126L36.456 83.21l4.117 17.89L58.79 86.582" />
      <path fill="#fff" d="M162.96 248.59l231.1-76.416-2.615 112.595-231.307-32.634" />
      <path fill="#b0b0b1" d="M420.072 92.878l-6.55 23.563 37.78-1.36-46.407-8.444" />
      <path fill="#676767" d="M718.712 74.61l4.628-65.55-1.63 99.5-3.806-42.993" />
      <path fill="#999" d="M777.862 241.426l10.36-15.334-11.472 44.29 13.2 1.79" />
      <path fill="#797e75" d="M217.892 106.227l-2.984 16.41 17.082 1.85 4.72 10.76" />
      <path fill="#fdfdfe" d="M417.837 130.01l39.032 99.6-118.136-1.15 79.286-3.652" />
      <path fill="#f6f6f6" d="M791.426 106.793l8.02.817-5.467-59.902-1.064 45.554" />
      <path fill="#fff" d="M604.468 108.588L538.38 44.196l-32.26 68.532 148.737-.342" />
      <path fill="#727271" d="M595.81 94.198l-4.398 4.415.153-28.45 4.995 13.798" />
      <path fill="#908985" d="M93.443 122.476l-1.956-3.356-3.227 24.146 1.35-40.538" />
      <path fill="#0b0e0d" d="M678.655 41.784l.53 21.257-11.956-16.148.823 8.212" />
      <path fill="#fff" d="M824.886 260.064l-70.165-18.437-13.42 10.448-17.036-4.468M394.798 378.407l-253.97-28.01 285.54.7-25.427-22.9" />
      <path fill="#5e5e63" d="M639.264 274.655l1.113 83.672 3.816-11.952-4.65-191.43" />
      <path fill="#53542b" d="M134.057 215.3l5.436-26.656-8.72-.383 4.025.19" />
      <path fill="#561f92" d="M638.75 164.783L481.07 163.43l129.723-3.332 83.67 4.87" />
      <path fill="#fff" d="M566.892 543l2.587-64.33-9.437 32.392 227.573-13.268M682.832 415.69l14.888-153.844 68.283-4.22-88.403-17.03" />
      <path fill="#5c5c5d" d="M720.345 485.284l17.557-5.556-13.754 6.837-135.302.292" />
      <path fill="#5c4126" d="M121.137 389.63l13.43 38.82 3.732-14.62-23.5-16.78" />
      <path fill="#fff" d="M671.58 39.943l-80-11.367 150.58-.248 86.675-14.388" />
      <path fill="#fff" d="M825.68 15.297l55.88 26.214L986.305-31 531.34 14.824" />
      <path fill="#616161" d="M562.775 494.53l-11.725-13.88-.05 9.747 53.115-2.65" />
      <path fill="#cbcccc" d="M681.19 69.65l-11.163 49.133L673.4 71.5l13.22 71.403" />
      <path fill="#fff" d="M642.282-31l-139.49 71.466L398.56 2.06l181.47 38.935M408.813 188.212L389.533-31 180 43.207l225.57-5.77" />
      <path fill="#01aa57" d="M624.506 371.048l6.184 16.188-1.646-20.97-.955-42.695" />
      <path fill="#32a368" d="M506.823 167.107l-30.34-11.537 22.208-.063-4.19 7.57" />
      <path fill="#818262" d="M146.527 116.854l-11.173-26.798 9.317 54.548-8.556-.323" />
      <path fill="#fff" d="M791.075 275.19l92.524 7.605-89.155-29.102-17.765-85.448M140.713 192.74l48.078-29.265-2.853-16.604-39.228-2.404" />
      <path fill="#a09fa0" d="M787.274 45.05L734.85 43.99l57.668-3.304L787.91 138" />
      <path fill="#e3e0d9" d="M673.718 74.895l-1.597-8.065-.172 95.294-.94-125.346" />
      <path fill="#5e2484" d="M838.034 161.082l-69.67.232 73.648 4.53-4.342-9.34" />
      <path fill="#fff" d="M659.965 381.954l-116.45-2.105.857 40.006 108.808 1.4M253.93 166.75l-31.427-55.79-48.956-11.848 167.54 13.723M752.667 57.543l-1.346 4.844 33.398-17.61-3.13 14.948M369.433 304.42l60.87 10.515-276.948-3.088 316.62 148.327" />
      <path fill="#575940" d="M132.008 451.055l-2.312 7.604 4.123-17.54 10.507 15.48" />
      <path fill="#feffe1" d="M151.402 142.846L140.595 75.04l-26.985 73.623 36.494-83.36" />
      <path fill="#e6e5e6" d="M608.817 50.083l-4.03 59.138 33.575-12.838-5.72-33.872" />
      <path fill="#fff" d="M709.323 148.093l-218 2.002-9.688-32.204 254.88-.282" />
      <path fill="#afb76f" d="M131.763 417.575l20.89.93-12.41-10.96-6.175-2.144" />
      <path fill="#fff" d="M815.325 235.34l1.706 27.518 206.058-18.234-239.705 34.363" />
      <path fill="#feffec" d="M153.678 395.436l17.082-10.508-31.494 57.67 4.098-67.18" />
      <path fill="#f9f9fa" d="M554.876 486.107L629 430.973l-73.766 31.96 8.882 34.01" />
      <path fill="#8b8c8e" d="M690.997 241.886l22.855-4.025 17.8 8.682-.06-1.113" />
      <path fill="#9e9d9b" d="M468.352 165.85l-6.7-27.003-11.696 22.97-20.66-2.973" />
      <path fill="#fff" d="M498.067 506.094l-132.11-179.007L205.75 543l353.368-99.726M166.765-31l55.383 58.53.788-58.53-57.18 66.496" />
      <path fill="#f1f1f1" d="M715.828 15.737l2.07 109.753L552.6 148.567l160.47-17.247" />
      <path fill="#eeeaea" d="M704.936 156.268l103.588 1.488-53.025 2.478-83.82-2.374" />
      <path fill="#f6f7fb" d="M151.156 440.474l13 48.756-23.174-58.782-20.33-4.308" />
      <path fill="#767676" d="M142.15 268.68l-9.475 45.896 10.168-61.86-12.372-30.852" />
      <path fill="#fff" d="M144.664 54.122l-50.21 75.572L80.577-31l30.328 124.88" />
      <path fill="#9c9c9c" d="M626.467 15.25l-20.14 15.858 1.295-18.742 16.397 12.716" />
      <path fill="#9f8722" d="M123.85 151.574l-2.992 35.185 13.534-11.06-24.198-31.906" />
      <path fill="#fffeff" d="M773.137 300.954L782.513 543l-6.033-221.697.21-70.578" />
      <path fill="#fbf9fa" d="M675.158 353.62l-2.088 149.114 11.07-81.454-26.348 84.66" />
      <path fill="#cfcfcf" d="M724.37 62.262l-.456 53.77 21.625-68.28-.135 12.466" />
      <path fill="#fff" d="M702.48 462.557l7.524-31.37 29.315-6.804 62.947 76.525" />
      <path fill="#979798" d="M807.483 41.112l148.018.185 66.743-.058-109.345 4.454" />
      <path fill="#fff" d="M669.362 424.955l-36.5 1.41-4.053 22.208 39.82 43.65" />
      <path fill="#1c1f1e" d="M1005.9 97.823l.463 19.066-6.042-2.634-3.14-6.15" />
      <path fill="#788581" d="M672.676 420.8l146.017 1.513-154.73 1.87.34-9.843" />
      <path fill="#fcfcfd" d="M743.75 424.266l-16.268 67.322L747.24 543l-27.9-86.574" />
      <path fill="#fff" d="M172.8 464.593l-7.295-58.405 176.38 43.29L197.29 407.7M767.13 501.483l-10.95-36.472 71.762-24.557 60.408 90.77" />
      <path fill="#fffff9" d="M73.458 65.818l46.285-3.024-40.287-35.39-2.095 97.958" />
      <path fill="#fffffd" d="M188.15 543l11.278-90.84-40.552 70.69 94.06-57.422" />
      <path fill="#f7f7f8" d="M865.364 46.325l73.213-.792-.71 101.237-4.25-76.664" />
      <path fill="#959597" d="M215.692 189.96l20.975-.914-4.003 15.392-7.332-6.06" />
      <path fill="#878787" d="M986.877 115.414l7.875-3.848-123.262 4.494 121.49-.472" />
      <path fill="#f9faf9" d="M156.147 203.706l-40.744 26.88 31.14-25.176-43.56-3.973" />
      <path fill="#fff" d="M422.105 28.986L247.99-5.83l21.888 136.647 107.318-80.24" />
      <path fill="#91908e" d="M181.41 353.593l2.42-21.243 14.097 17.497-8.64-2.472" />
      <path fill="#5e716f" d="M637.968 176.06L644.9 154l-98.407 2.107 100.56 10.008" />
      <path fill="#8f8f90" d="M527.863 20.738l-5.934-9.865.748 1.218-15.624 14.454" />
      <path fill="#fff" d="M57.79 476.08l44.798-73.823 26.18 67.598-2.07-62.953" />
      <path fill="#626262" d="M699.492 97.873l2.605-56.208.193 70.69-6.32-1.208" />
      <path fill="#838284" d="M782.044 422.342l38.702.692 15.617-1.76 12.48 4.203" />
      <path fill="#fdfdff" d="M126.088 255.358l11.642 37.244.688-18.345-42.866 23.553" />
      <path fill="#a8a7a8" d="M352.894 101.063l-39.16-2.778-2.996 11.622 13.194.204" />
      <path fill="#fff" d="M220.297 147.954l-20.21 37.507 119.987-16.357L138.16 105.03M170.05 206.445l164.658 190.538-174.333-77.885 9.29 50.46" />
      <path fill="#606b48" d="M136.64 339.938l2.288 35.312-10.738 15.12 12.3-27.604" />
      <path fill="#7b7b7b" d="M543.755 113.154l129.578.145-122.785 3.656-34.968-.823" />
      <path fill="#fbfbfc" d="M449.907 239.46l11.8 53.677-21.87-41.556-46.84-12.642" />
      <path fill="#fefeff" d="M457.95 136.783l-.504 32.984 4.612-19.81-72.828-35.563" />
      <path fill="#fff" d="M775.34 417.973L691.94 415l-10.728-36.93 78.944-72.442" />
      <path fill="#e3e852" d="M124.42 34.32l42.37-12.09-20.578 5.69-18.35-1.215" />
      <path fill="#969888" d="M187.852 22.988l18.757-1.735L191 8.948l-21.76 44.51" />
      <path fill="#cececf" d="M977.732 17.7l-.63 86.72-93.02-25.248 88.052 27.823" />
      <path fill="#fff" d="M448.802 211.872l-56.465-129.62 40.198 136.675 3.405-80.718M386.377 316.675l85.214-21.296-.937 247.62-15.7-249.492" />
      <path fill="#595d34" d="M129.763 93.66l-7.62-28.103 23.208 60.695-3.02-33.06" />
      <path fill="#818181" d="M802.028 116.827l51.763-1.356-.634-1.082-121.814-1.02" />
      <path fill="#7a7c60" d="M138.09 286.8l3.856-15.622-2.27-16.22 2.233 62.34" />
      <path fill="#777b38" d="M143.068 354.455L128 351.245l10.867 24.684-10.26 9.91" />
      <path fill="#999" d="M435.003 21.52l-24.997-8.283 4.202 16.394 6.8-14.056" />
      <path fill="#e0e0e0" d="M727.643 60.628L724.69 17.71l-.183 58.373 3.392 69.587" />
      <path fill="#fefffd" d="M145.547 108.98l-82.755 2.288 69.192-34.806-42.977 12.614" />
      <path fill="#3f4323" d="M154.897 430.428l.778 20.43 2.47-23.82 7.81-8.035" />
      <path fill="#c0c0c1" d="M665.403 77.79l-2.878-38.795-2.45 100.84 4.992-43.606" />
      <path fill="#353435" d="M653.075 479.917l5.67 5.1-1.484 2.59 1.538 10.854" />
      <path fill="#fff" d="M669.733 301.543l21.072-8.826 81.483 1.015-46.355 11.463" />
      <path fill="#fefeff" d="M700.033 479.81l327.48-30.31-337.038 17.824L781.83 543" />
      <path fill="#585858" d="M757.362 84.276l-4.493-20.224 20.397 16.55-5.76-15.203" />
      <path fill="#403409" d="M178.05 462.19l10.617-5.318-2.204-10.55-8.735 15.067" />
      <path fill="#8659aa" d="M701.433 309.118l-7.594-2.36 46.342 2.33-29.005 1.963" />
      <path d="M733.354 51.86l5.733 4.218-10.018-12.223 1.756 15.58" />
      <path fill="#1d2321" d="M681.138 98.746l-6.09 17.79 4.827-8.15-9.734-11.904" />
      <path fill="#57564e" d="M138.298 301.3l-.025 26.44 2.13-82.592-.057 119.483" />
      <path fill="#703a9c" d="M492.93 159.75l-13.7 6.018 61.39-.706 79.43-.327" />
    </g>
  </g>
</svg>