<svg version="1.1" viewBox="0 0 1024 512" width="1024" height="512" xmlns="http://www.w3.org/2000/svg">
  <g fill-opacity=".5">
    <path fill="#757477" d="M545.6 460.5l10.8-3.4 5.2-16-6 2" />
    <path fill="#b3b3b3" d="M845.6 60.6L782.8 122l10-61.6 53 38.3" />
    <path fill="#a91108" d="M121.8 63.7l10-13.5-14-5.5-7.3 5.7" />
    <path fill="#565757" d="M665.3 100.2l23-4.2-32.8 27.4 1.2-69" />
    <path fill="#fff" d="M-31 19.4L131.7 399l-1.6-27.4 1-173" />
    <path fill="#9e9d11" d="M77 466l-1 8.6 33-4.2-11-21.6" />
    <path fill="#00b550" d="M706 287.2l1 2.4 25.2-6h-38.8" />
    <path fill="#7e50b7" d="M774.4 156.5l73.5 7-100 3-49-6.4" />
    <path fill="#4ea87c" d="M683.2 372l-3.4-22.5-15.2 34.2-28-7.2" />
    <path fill="#fff" d="M528.8-31l-322 58.6-22.4 36.8L224 88.2m607.3 30l-389.4-1-356 11 454 14.3" />
    <path fill="#a2a2a3" d="M911.4 33l10.8-24.7 14.6 13-.3 6" />
    <path fill="#fff" d="M683.5 456.4l-23.6-103 16 32-20 120" />
    <path fill="#fff" d="M477 420.8l180.8-1 2.4-37.2-110-5.3" />
    <path fill="#6f766e" d="M126.5 429.6l12.3-22.4.4 52.3-6.8-19.5" />
    <path fill="#fff" d="M697.6 215l-52-25.6-1.4 163 55.5-22.4" />
    <path fill="#909487" d="M158.7 138.7l-2.4-6.7 32-4.4L166 152" />
    <path fill="#b0b1ae" d="M481.8 104l-3 41.2-37.6.3L464 170" />
    <path fill="#fff" d="M372.4 543L211.7 116l-31 24 219-31.3M136.4 129L75.4-5.5l-94.6 6 119 93" />
    <path fill="#fff" d="M401.4 289.3L165.7 326l6-114 202.3-6.5M478.3 296l-158 28.6 91.2-5.8 5 224.2" />
    <path fill="#8a8a8b" d="M460.2 403.6l-14.6 13 18.2 4.3-6.3-13" />
    <path d="M993 106.2l-3.2-14 1.5-49 4-1" />
    <path fill="#fff" d="M759.6 423.6l6.8 119.4 102-83.3L676.8 474m-53.4-71.3L619 167.3l-136.3-1.7-3 228.2m-297.2-206l1-27.4-40-32.6-13.2 58.7" />
    <path fill="#a8a525" d="M128 43.3l16.8-19 41 44-7-40.7" />
    <path fill="#888787" d="M464.4 282l-27-6 3.3 20.8 25.5.2" />
    <path fill="#fff" d="M997.2 104l8.5-135L926 15l72 23.4m-415.4 67.4l-73.8-.5 2-60 80.2 3.4m88.4 285L988.6 278l66.6 117.4-370.7 27" />
    <path fill="#979798" d="M888 116l136 .4-118-5.7-119.5 5.7" />
    <path fill="#ab8906" d="M116 178.4l-11-3.7 27.5 7.7-7-37.4" />
    <path fill="#7a7a7a" d="M583 505.5l-29-22.3 124.7 8.2-73.2-7.2" />
    <path fill="#8a8a8b" d="M783.7 498.8l-117-3.5 96.5-11.3 3.6 13" />
    <path fill="#fffffb" d="M146.5 403.4l-11 47 33-63.7-93 38.2" />
    <path fill="#898989" d="M787 270.7l-45.6-7.7 49.7-10.8-18 7.2" />
    <path fill="#8957b0" d="M710 312l20.2-.5-13.7-9.6-21 6" />
    <path fill="#959691" d="M134.4 191.2l-3.5 20.6V329l13-146.6" />
    <path fill="#070909" d="M1008.5 37l-9 19.8 5.7 51 .6-57.7" />
    <path fill="#565757" d="M779.7 43.2L687 48.8l-8 12.7-29-19" />
    <path fill="#979698" d="M543.2 117l-110.5-.4 58.5-5.2-22-3.4" />
    <path fill="#9b9ca0" d="M253.5 444L232 471l-29.4 23-6.5-1" />
    <path fill="#fff" d="M833.3 148.3l221.7 80.2-122.8-112-412.8 35" />
    <path fill="#535353" d="M651.6 73.7L648 40l-2 46 1.8 12.4" />
    <path fill="#11c061" d="M666 379.8l2.4 37.3-6.3 4-4 4" />
    <path fill="#757a38" d="M169 419.4l-21.8-1.2-17.2 2 33-11.7" />
    <path fill="#a2a2a3" d="M430.2 19l-22.8 32 3.2 75L413 15" />
    <path fill="#fff" d="M411.3 76.5L476 337l-3.4-209.5-61.5 286m-262-309l-23-42 20-23 36 27.2" />
    <path fill="#b6b5b5" d="M387.2 55l-6-7-26.5 45.2 33.6 2.8" />
    <path fill="#00a651" d="M618.8 378l6.4 1.5 54.4 1.7-29.7-5.8" />
    <path fill="#fff" d="M113.7 486L65 474l28 54 16.7-85.3m55-76.3l28.5-39-35.2 4.4L307.3 543" />
    <path fill="#8d8d8e" d="M823 230l-30 7.3 1.2 9 18 1" />
    <path fill="#868686" d="M692.7 477.4l23 22 19.3-20.7-53.3 13.2" />
    <path fill="#919091" d="M606.7 117.5l42.6-3-52-2.8-45.8 3.6" />
    <path fill="#6b6c28" d="M139.3 101l-3.3 22-5.2-30.4-13.8-27" />
    <path fill="#5acdf4" d="M91.8 99.2L54.4 84 29 91.3l45.5 8.6" />
    <path fill="#fff" d="M609.3 426l-62.2 2 57 55.7 10 59.3m-140-29.5l-3-322-11 248.8-389 82.3" />
    <path fill="#b8b8b9" d="M590.5 77.4L658.8 51l-1.5 8-68.3 43" />
    <path fill="#fff" d="M721 169.7l28 179-.4-117.5 155.8-.2" />
    <path fill="#707070" d="M411 307.2l-4.8-31-1.8.3-13 27.2" />
    <path fill="#dedfdf" d="M989 112l-5 28.7.6-81-2-90.7" />
    <path fill="#fff" d="M156.3 245.6l1.7-176-16.7 190.7 15 60.8m819-280L893 40l149.2-50 12.8 52.5" />
    <path fill="#e3e3e2" d="M745.8 91.3L720 98.5l6-44.6 20.8 52" />
    <path fill="#a0a0a0" d="M830 11.4l-23 6.8 7.4-2.8 4 27" />
    <path fill="#fff" d="M631.6 372l-1-12.6 30.2-1.2 23.2 19.5" />
    <path fill="#d2caed" d="M765.4 159.7l-136 .2-75.4 38 85-43" />
    <path fill="#7a7b7a" d="M801 75.8l-1 .2 9-26.2 2 54.2" />
    <path fill="#f0f0f1" d="M788 111.6l-34.4-7.6L778 93.7 785 6" />
    <path fill="#fff" d="M92 465.3l-123-85.6L111 349l-6 64.6" />
    <path fill="#9f9fa3" d="M62.8 441l-22.3.7 32.3 40L59 481" />
    <path fill="#fff" d="M447.2 288.7l-284.5 151L-31 435l235.8 13M430 41.2l59.2-4 32-30.3-98.5-38" />
    <path fill="#96989b" d="M86.4 510.4l41 24.4L58 493.3 30.2 459" />
    <path fill="#fff" d="M-17.3 359L-31 471l116-20-32.4 31.2" />
    <path fill="#fdfff5" d="M187.8 17.3L90 120l91 57-92-68" />
    <path fill="#81822f" d="M139.2 460.6l-10.2-2.2-.6-9.8 14 .8" />
    <path fill="#767d4d" d="M163 465.6l3-39-15.6 3.6 11 15.7" />
    <path fill="#7c5901" d="M194.8 466l-11.4-21.5 1 15-12-4.2" />
    <path fill="#542e81" d="M598 165l145.8-.8-163-8.3 68-3" />
    <path fill="#939394" d="M477.7 233.2l-2 118.6 8.4-59-2 14" />
    <path fill="#a8ae17" d="M172.3 378.7l-14 12-5-13.2 1.8-23.7" />
    <path fill="#5e5e5e" d="M784 62.8l-70.8-.2 23.6-21.4 32.8 40.2" />
    <path fill="#fff" d="M819 296l-32.5-74-1.6 54.3 58-45.6M161 459l40 22.2L56.6 543l33.2-72.6" />
    <path fill="#d11623" d="M113 400.2l10.5-15.6-12.3.4-3.6 9.2" />
    <path fill="#6f3e93" d="M724.6 164.6l96.6-4.5-.6-1 40.8 7" />
    <path fill="#f7f7f7" d="M961.2 22.6l42-53.6-48.4 84.4 3.4 70" />
    <path fill="#6c5265" d="M682.5 410.7l-.7 6.7-5-44.3-2 55" />
    <path fill="#f1f1f1" d="M655.2 51.3l-2.8-6.3-1.4 39.4 3.3 61.5" />
    <path fill="#fff" d="M405.7 296.6l-114.2 10.8 71.3-54.3-249.3 5" />
    <path fill="#d8d8d8" d="M980.4 38.8L964 178.6l16-80.4-11-52" />
    <path fill="#fff" d="M461 171l-224.6-61.6-36.8 49.2 274.8 81.7" />
    <path fill="#9c9d99" d="M480.7 142.3l.3 122.2-5-25.8-.7-106.7" />
    <path fill="#b1b1b1" d="M378.8 99.5l68 19.5-63.8-7.7-85.2-2" />
    <path fill="#fff" d="M837 36.2L704.4-31 765 69.4l3-43.3M216 188l-40 106.5-75-2.2 144.6 17.5M425.8 84.2L305 67.5l58 50.2-11-35.3" />
    <path fill="#6a6000" d="M206 177l-10-34 6.8 1-9 27.2" />
    <path fill="#a0a0a0" d="M834.5 446.8l27.2 17-5.7-25.5-40.5 15.6" />
    <path fill="#89882f" d="M79.3 474.4l47-28-10.4 2-40 15" />
    <path fill="#502f00" d="M177.5 389.5l8 14.3-17-3.2 3.2 1.7" />
    <path fill="#fff" d="M683.8 440l26.6-17.4-4 31 112-27.2" />
    <path fill="#fefeff" d="M829 60.4l-4 55.2-4.7-68.5 142.3 11" />
    <path fill="#d8d8d8" d="M713.4 113.7L714 53l19.3 45.7-8.2-51.3" />
    <path fill="#626262" d="M961.7 60.5l-.6 37.8 22-5.7 3-6" />
    <path fill="#fff" d="M87.6 163.5L142 166l-173-51.5 50.3 416" />
    <path fill="#686368" d="M217.4 88.6l8 30-14.8 8.5 12.8-23" />
    <path fill="#fff" d="M133 66.4L344.3 52l73.4 11-47.4 2.6m353 437.6v-36L863 497.4l-157.2-63.2" />
    <path fill="#fffffd" d="M129 401l24.7-32.3-17-5.8 18.2 51" />
    <path fill="#8d8d8a" d="M158 197.2l12.3-5-6.2 124.6 5-17.2" />
    <path fill="#fff" d="M178.6-23L136.8-4.4l63.5 58.8 25.3 143.3M814 288l239.3-171.8-175 1L853 120" />
    <path fill="#4e4e4e" d="M487.2 449l-2-8.6-1.7 13.6 2.7 4" />
    <path fill="#8c9188" d="M788 300.3h-46l11.3 8 35.8 7.4" />
    <path fill="#e0e0df" d="M695.6 42l.3 68.2-7-21.8 7-71.4" />
    <path fill="#916caf" d="M204.5 103.4L211 87l33.4 14.7-4-22.7" />
    <path fill="#d7d4d0" d="M656.4 181.6l4-41.7L664-15l1.4 113.4" />
    <path fill="#bcc22d" d="M132.6 140.6l-10 .6-13 7.2 18 13.8" />
    <path fill="#fdfdff" d="M841.3 113.4l70-.7-3-67.6-42 9" />
    <path fill="#716e71" d="M629.3 433.3l.6 18v9l-10-9.2" />
    <path fill="#7e7e7f" d="M476.7 348.4l4.2 72.8-5 34.6 3-117.8" />
    <path fill="#fff" d="M724 284l74.4-12.7-73-3.7-67.5 7.6" />
    <path fill="#fdfefe" d="M272 416l-11 18.8-195.4-15.3 86.7 1.8" />
    <path fill="#777778" d="M689.7 449.2l7.5-8.6 10.8 9.6-9.5 9.8" />
    <path fill="#ae9d21" d="M214 452.8l.2 27.3-23.4-31-14 20" />
    <path fill="#85817e" d="M80.3 121.3l1.8-15.7 6 43.4 8-5" />
    <path fill="#fff" d="M425 279.5L54.6 435 169 392.3l9.4-35.6M406 116.3l.3-45.8-24 91.4 121.2-40M717 429l-80.7-.7 21 91.2-6.7-68.6m-192.8-20l65-6 39.5 5-36.6 26M164 121.2l60.8-24-19 45 1.2-67" />
    <path fill="#00a244" d="M628 330.3l-4-132.5-.7-44.4 5.8-2.4" />
    <path fill="#fff" d="M463.4 229l-27-79.2-3 26-251.4-1m-43 25l-85 32 91.7 8-38 12.7M-31 442.2l136.3-91 8.7 171-11-80.3" />
    <path fill="#585758" d="M618.5 503l-3.5-23.7-4.2 23.4L623 489" />
    <path fill="#7a31a7" d="M193.6 125l5-7.2 2-9.4-22.7 7.8" />
    <path fill="#5c5a5e" d="M656.5 358l-12.7-4.6 9.8-1.3 27.4 3" />
    <path fill="#d3d2d2" d="M680.2-8l26.3 119.7v-80L699 75.5" />
    <path fill="#827a30" d="M153.8 113l-15.6-18.4-23-25.8-6.3 2" />
    <path fill="#353535" d="M669 70.8l1-22-5 19.4 3.7 37" />
    <path fill="#a7a6a8" d="M412.5 41.4l19 21-5.3-14.4 91.8-4.8" />
    <path fill="#00b452" d="M662 413.4l-.8-42.2 3.8 9.7 4.2 4" />
    <path fill="#8a8a8a" d="M598.6 118l6.8-4.3-2.2-72.6-1.7 36" />
    <path fill="#fff" d="M570.7 483.7l82.2 1.8-48-41.5-72 24" />
    <path fill="#f6f6fd" d="M144.4 333.5l53.8 5.5-79.7-12.2-50.5 9" />
    <path fill="#4e4e4e" d="M587.7 495.6l-3.5-6L557 480l-5.8 1.8" />
    <path fill="#a3a3a3" d="M915.2 22.6l-2.2-5.3 15.8-3.6L927 44" />
    <path fill="#85857c" d="M158.2 81.6l2 63.6 29.4-3.7-20.2-4.3" />
    <path fill="#fff" d="M193.6 235.7L137 249l95.8-33.4L162 202m680.7 289.8l164.5-376.3-.3-121.7 48 178.4M587 502.5l-397-61.7 402.3 93 1.2-61.7" />
    <path fill="#676767" d="M648 493.6l100 3.4-58-.5 6-14.5" />
    <path fill="#9d9c9d" d="M615.3 47.7l-8-35.4 6.7 1.5 5.5 32.7" />
    <path fill="#9f9e9f" d="M845.3 291l-75.4 2 104-14-11 19.5" />
    <path fill="#989bb0" d="M186 23.7l22.2-6L181.5-31h43.3" />
    <path fill="#efeff0" d="M685 527.7l3-50.6 4.5 66 8.2-79" />
    <path fill="#fff" d="M684.5 131.6l-2-88.5-62.2-8L684 11" />
    <path fill="#ffec31" d="M163.4 403.6L184 405l-14 4.8 1.6-37" />
    <path fill="#fff" d="M159.7 154.8l-69.4 64.4 113 3-96.6 4.7m25-100l-20-25 47-18-27-34" />
    <path fill="#fffffd" d="M175.8 259.5l30.3-62.3-39 14.8 6-31.7" />
    <path fill="#fff" d="M811.6 151.2L750.2 122l-106.5-7L483 143.3" />
    <path fill="#fdfcfb" d="M105 278.7l72.2.8-63-6.8 21.2 89.2" />
    <path fill="#fff" d="M848.2 430l-2.7 38-166 57.7 139 17.3" />
    <path fill="#fbfcfc" d="M360.2 366.8l-188-19-184.5 4.3h155.8" />
    <path fill="#fff" d="M100 543l-131-73.4L28 543l14.7-66.6" />
    <path fill="#28ccff" d="M129 114.8l-22.8-4.6-3.7 3.8 11.3 13.6" />
    <path fill="#dad9dc" d="M474.7 94.7l-8-28.5 39.5-23.5 1.4 60.2" />
    <path fill="#fdffff" d="M118.6 139.5l25.2-12.8-29.4-2.2L54 126" />
    <path fill="#908113" d="M164.8 99.8l24.8-45L159.8 20l29 58.8" />
    <path fill="#fff" d="M791 292l185 5.4-179.7 123L786 301" />
    <path fill="#828382" d="M821 12.5L817 44l.2 54.7 3.2-11.5" />
    <path fill="#fff" d="M476.4 140.6l-1.3 93.8-67 86.4 5-62.8" />
    <path fill="#adadad" d="M122.6 340.4l-21.2-6.7L83.7 353l42.8-10.3" />
    <path fill="#fff" d="M257.3 125.7L360.7 54l-4.2 67.6L274.7-31m-299 68.8L106 90.4 122.6-31l2 75" />
  </g>
</svg>