<svg version="1.1" viewBox="0 0 1024 512" width="1024" height="512" xmlns="http://www.w3.org/2000/svg">
  <g fill-opacity=".5">
    <path fill="#757477" d="M546 461l10-4 6-16-6 2" />
    <path fill="#b3b3b3" d="M846 61l-63 61 10-62 53 39" />
    <path fill="#a91108" d="M122 64l10-14-14-5-7 5" />
    <path fill="#565757" d="M665 100l23-4-33 27 2-69" />
    <path fill="#fff" d="M-31 19l163 380-2-27 1-173" />
    <path fill="#9e9d11" d="M77 466l-1 9 33-5-11-21" />
    <path fill="#00b550" d="M706 287l1 3 25-6h-39" />
    <path fill="#7e50b7" d="M774 157l74 7-100 3-49-7" />
    <path fill="#4ea87c" d="M683 372l-3-22-15 34-28-8" />
    <path fill="#fff" d="M529-31L207 28l-23 36 40 24m607 30l-389-1-356 11 454 14" />
    <path fill="#a2a2a3" d="M911 33l11-25 15 13-1 6" />
    <path fill="#fff" d="M684 456l-24-103 16 32-20 120" />
    <path fill="#fff" d="M477 421l181-1 2-37-110-6" />
    <path fill="#6f766e" d="M127 430l12-23v53l-7-20" />
    <path fill="#fff" d="M698 215l-52-26-2 163 56-22" />
    <path fill="#909487" d="M159 139l-3-7 32-4-22 24" />
    <path fill="#b0b1ae" d="M482 104l-3 41h-38l23 25" />
    <path fill="#fff" d="M372 543L212 116l-31 24 219-31m-264 20L75-5l-94 6 119 93" />
    <path fill="#fff" d="M401 289l-235 37 6-114 202-6m104 90l-158 29 92-6 5 224" />
    <path fill="#8a8a8b" d="M460 404l-14 13 18 4-7-13" />
    <path d="M993 106l-3-14 1-49 4-1" />
    <path fill="#fff" d="M760 424l6 119 102-83-191 14m-54-71l-4-236-136-1-3 228M183 188l1-28-40-32-14 59" />
    <path fill="#a8a525" d="M128 43l17-19 41 44-7-40" />
    <path fill="#888787" d="M464 282l-27-6 4 21h25" />
    <path fill="#fff" d="M997 104l9-135-80 46 72 23m-415 68l-74-1 2-60 80 4m88 285l310-56 66 117-370 27" />
    <path fill="#979798" d="M888 116h136l-118-5-119 5" />
    <path fill="#ab8906" d="M116 178l-11-3 28 7-7-37" />
    <path fill="#7a7a7a" d="M583 506l-29-23 125 8-73-7" />
    <path fill="#8a8a8b" d="M784 499l-117-4 96-11 4 13" />
    <path fill="#fffffb" d="M147 403l-11 47 33-63-93 38" />
    <path fill="#898989" d="M787 271l-46-8 50-11-18 7" />
    <path fill="#8957b0" d="M710 312h20l-13-10-21 6" />
    <path fill="#959691" d="M134 191l-3 21v117l13-147" />
    <path fill="#070909" d="M1009 37l-9 20 5 51 1-58" />
    <path fill="#565757" d="M780 43l-93 6-8 12-29-18" />
    <path fill="#979698" d="M543 117H433l58-6-22-3" />
    <path fill="#9b9ca0" d="M254 444l-22 27-29 23-7-1" />
    <path fill="#fff" d="M833 148l222 81-123-112-413 35" />
    <path fill="#535353" d="M652 74l-4-34-2 46 2 12" />
    <path fill="#11c061" d="M666 380l2 37-6 4-4 4" />
    <path fill="#757a38" d="M169 419l-22-1-17 2 33-12" />
    <path fill="#a2a2a3" d="M430 19l-23 32 4 75 2-111" />
    <path fill="#fff" d="M411 77l65 260-3-209-62 286M149 105l-23-42 20-23 36 27" />
    <path fill="#b6b5b5" d="M387 55l-6-7-26 45 33 3" />
    <path fill="#00a651" d="M619 378l6 2 55 1-30-6" />
    <path fill="#fff" d="M114 486l-49-12 28 54 17-85m55-77l28-39-35 5 149 211" />
    <path fill="#8d8d8e" d="M823 230l-30 7 1 9 18 1" />
    <path fill="#868686" d="M693 477l23 22 19-20-53 13" />
    <path fill="#919091" d="M607 118l42-3-52-3-45 3" />
    <path fill="#6b6c28" d="M139 101l-3 22-5-30-14-27" />
    <path fill="#5acdf4" d="M92 99L54 84l-25 7 46 9" />
    <path fill="#fff" d="M609 426l-62 2 57 56 10 59m-140-29l-3-322-11 248-389 83" />
    <path fill="#b8b8b9" d="M591 77l68-26-2 8-68 43" />
    <path fill="#fff" d="M721 170l28 179V231h155" />
    <path fill="#707070" d="M411 307l-5-31h-2l-13 28" />
    <path fill="#dedfdf" d="M989 112l-5 29 1-81-2-91" />
    <path fill="#fff" d="M156 246l2-176-17 190 15 61M975 41l-82-1 149-50 13 53" />
    <path fill="#e3e3e2" d="M746 91l-26 8 6-45 21 52" />
    <path fill="#a0a0a0" d="M830 11l-23 7 7-3 4 27" />
    <path fill="#fff" d="M632 372l-1-13 30-1 23 20" />
    <path fill="#d2caed" d="M765 160H629l-75 38 85-43" />
    <path fill="#7a7b7a" d="M801 76h-1l9-26 2 54" />
    <path fill="#f0f0f1" d="M788 112l-34-8 24-10 7-88" />
    <path fill="#fff" d="M92 465l-123-85 142-31-6 65" />
    <path fill="#9f9fa3" d="M63 441l-23 1 33 40-14-1" />
    <path fill="#fff" d="M447 289L163 440l-194-5 236 13M430 41l59-4 32-30-98-38" />
    <path fill="#96989b" d="M86 510l41 25-69-42-28-34" />
    <path fill="#fff" d="M-17 359l-14 112 116-20-32 31" />
    <path fill="#fdfff5" d="M188 17L90 120l91 57-92-68" />
    <path fill="#81822f" d="M139 461l-10-3-1-9h14" />
    <path fill="#767d4d" d="M163 466l3-39-16 3 11 16" />
    <path fill="#7c5901" d="M195 466l-12-21 1 15-12-5" />
    <path fill="#542e81" d="M598 165l146-1-163-8 68-3" />
    <path fill="#939394" d="M478 233l-2 119 8-59-2 14" />
    <path fill="#a8ae17" d="M172 379l-14 12-5-14 2-23" />
    <path fill="#5e5e5e" d="M784 63h-71l24-22 33 40" />
    <path fill="#fff" d="M819 296l-32-74-2 54 58-45M161 459l40 22-144 62 33-73" />
    <path fill="#d11623" d="M113 400l11-15h-13l-3 9" />
    <path fill="#6f3e93" d="M725 165l96-5v-1l40 7" />
    <path fill="#f7f7f7" d="M961 23l42-54-48 84 3 70" />
    <path fill="#6c5265" d="M683 411l-1 6-5-44-2 55" />
    <path fill="#f1f1f1" d="M655 51l-3-6-1 39 3 62" />
    <path fill="#fff" d="M406 297l-115 10 72-54-249 5" />
    <path fill="#d8d8d8" d="M980 39l-16 140 16-81-11-52" />
    <path fill="#fff" d="M461 171l-225-62-36 50 274 81" />
    <path fill="#9c9d99" d="M481 142v123l-5-26-1-107" />
    <path fill="#b1b1b1" d="M379 100l68 19-64-8-85-2" />
    <path fill="#fff" d="M837 36L704-31l61 100 3-43M216 188l-40 107-75-3 145 18M426 84L305 68l58 50-11-36" />
    <path fill="#6a6000" d="M206 177l-10-34 7 1-9 27" />
    <path fill="#a0a0a0" d="M835 447l27 17-6-26-40 16" />
    <path fill="#89882f" d="M79 474l47-28-10 2-40 15" />
    <path fill="#502f00" d="M178 390l8 14-17-3 3 1" />
    <path fill="#fff" d="M684 440l26-17-4 31 112-28" />
    <path fill="#fefeff" d="M829 60l-4 56-5-69 143 11" />
    <path fill="#d8d8d8" d="M713 114l1-61 19 46-8-52" />
    <path fill="#626262" d="M962 61l-1 37 22-5 3-6" />
    <path fill="#fff" d="M88 164l54 2-173-51 50 416" />
    <path fill="#686368" d="M217 89l8 30-14 8 12-23" />
    <path fill="#fff" d="M133 66l211-14 74 11-48 3m353 437v-36l140 30-157-63" />
    <path fill="#fffffd" d="M129 401l25-32-17-6 18 51" />
    <path fill="#8d8d8a" d="M158 197l12-5-6 125 5-17" />
    <path fill="#fff" d="M179-23L137-4l63 58 26 144m588 90l239-172-175 1-25 3" />
    <path fill="#4e4e4e" d="M487 449l-2-9-2 14 3 4" />
    <path fill="#8c9188" d="M788 300h-46l11 8 36 8" />
    <path fill="#e0e0df" d="M696 42v68l-7-22 7-71" />
    <path fill="#916caf" d="M205 103l6-16 33 15-4-23" />
    <path fill="#d7d4d0" d="M656 182l4-42 4-155 1 113" />
    <path fill="#bcc22d" d="M133 141h-10l-13 7 18 14" />
    <path fill="#fdfdff" d="M841 113h70l-3-68-42 9" />
    <path fill="#716e71" d="M629 433l1 18v9l-10-9" />
    <path fill="#7e7e7f" d="M477 348l4 73-5 35 3-118" />
    <path fill="#fff" d="M724 284l74-13-73-3-67 7" />
    <path fill="#fdfefe" d="M272 416l-11 19-195-15 86 1" />
    <path fill="#777778" d="M690 449l7-8 11 9-9 10" />
    <path fill="#ae9d21" d="M214 453v27l-23-31-14 20" />
    <path fill="#85817e" d="M80 121l2-15 6 43 8-5" />
    <path fill="#fff" d="M425 280L55 435l114-43 9-35m228-241V71l-24 91 122-40m213 307l-81-1 21 92-6-69m-193-20l65-6 39 5-36 26M164 121l61-24-19 45 1-67" />
    <path fill="#00a244" d="M628 330l-4-132-1-45 6-2" />
    <path fill="#fff" d="M463 229l-27-79-3 26-251-1m-43 25l-85 32 92 8-38 13M-31 442l136-91 9 171-11-80" />
    <path fill="#585758" d="M619 503l-4-24-4 24 12-14" />
    <path fill="#7a31a7" d="M194 125l5-7 2-10-23 8" />
    <path fill="#5c5a5e" d="M657 358l-13-5 10-1 27 3" />
    <path fill="#d3d2d2" d="M680-8l27 120V32l-8 44" />
    <path fill="#827a30" d="M154 113l-16-18-23-26-6 2" />
    <path fill="#353535" d="M669 71l1-22-5 19 4 37" />
    <path fill="#a7a6a8" d="M413 41l19 21-6-14 92-5" />
    <path fill="#00b452" d="M662 413l-1-42 4 10 4 4" />
    <path fill="#8a8a8a" d="M599 118l6-4-2-73-2 36" />
    <path fill="#fff" d="M571 484l82 1-48-41-72 24" />
    <path fill="#f6f6fd" d="M144 334l54 5-80-12-50 9" />
    <path fill="#4e4e4e" d="M588 496l-4-6-27-10-6 2" />
    <path fill="#a3a3a3" d="M915 23l-2-6 16-3-2 30" />
    <path fill="#85857c" d="M158 82l2 63 30-4-21-4" />
    <path fill="#fff" d="M194 236l-57 13 96-33-71-14m681 290l164-376V-6l48 178M587 503l-397-62 402 93 1-62" />
    <path fill="#676767" d="M648 494l100 3h-58l6-15" />
    <path fill="#9d9c9d" d="M615 48l-8-36 7 2 6 33" />
    <path fill="#9f9e9f" d="M845 291l-75 2 104-14-11 20" />
    <path fill="#989bb0" d="M186 24l22-6-26-49h43" />
    <path fill="#efeff0" d="M685 528l3-51 5 66 8-79" />
    <path fill="#fff" d="M685 132l-2-89-63-8 64-24" />
    <path fill="#ffec31" d="M163 404l21 1-14 5 2-37" />
    <path fill="#fff" d="M160 155l-70 64 113 3-96 5m25-100l-20-25 47-18-27-34" />
    <path fill="#fffffd" d="M176 260l30-63-39 15 6-32" />
    <path fill="#fff" d="M812 151l-62-29-106-7-161 28" />
    <path fill="#fdfcfb" d="M105 279h72l-63-6 21 89" />
    <path fill="#fff" d="M848 430l-2 38-166 58 139 17" />
    <path fill="#fbfcfc" d="M360 367l-188-19-184 4h156" />
    <path fill="#fff" d="M100 543l-131-73 59 73 15-67" />
    <path fill="#28ccff" d="M129 115l-23-5-3 4 11 14" />
    <path fill="#dad9dc" d="M475 95l-8-29 39-23 2 60" />
    <path fill="#fdffff" d="M119 140l25-13-30-2-60 1" />
    <path fill="#908113" d="M165 100l25-45-30-35 29 59" />
    <path fill="#fff" d="M791 292l185 5-180 123-10-119" />
    <path fill="#828382" d="M821 13l-4 31v55l3-12" />
    <path fill="#fff" d="M476 141l-1 93-67 87 5-63" />
    <path fill="#adadad" d="M123 340l-22-6-17 19 43-10" />
    <path fill="#fff" d="M257 126l104-72-5 68-81-153M-24 38l130 52 17-121 2 75" />
  </g>
</svg>