<svg version="1.1" viewBox="0 0 1024 512" width="1024" height="512" xmlns="http://www.w3.org/2000/svg">
  <g fill-opacity=".5">
    <path fill="#64542f" d="M889 119H550l143 134 65 290z" />
    <path fill="#202942" d="M793 465l-18-285-51 278 42-73z" />
    <path d="M859 256l50-5-36-10-198 8z" />
    <path fill="#f2ffff" d="M805 261l250-27-42 309-237-139z" />
    <path d="M771 186l104-23-103-13 97-39z" />
    <path fill="#fff" d="M1055 506l-308-40-282-103-211 180z" />
    <path fill="#ffe090" d="M783 182L539 427l44-215 158-83z" />
    <path d="M603 105l50 57 103 125-92-144z" />
    <path fill="#ffffbc" d="M1055 138l-163 93-137 13 35-60z" />
    <path fill="#fff" d="M304-31l751 42-461 110-103 422z" />
    <path fill="#050800" d="M598 169l71 10 66-60-22 9z" />
    <path fill="#fff" d="M519 319l120 79 101 18-5-118z" />
    <path fill="#ffda37" d="M28 121l241-2-147-13L16 42z" />
    <path fill="#ff370e" d="M559 428l28-66-17-14-37 9z" />
    <path d="M782 470l-62-40 28 44 50-49z" />
    <path fill="#2c1e04" d="M749 387l-17-149 108-123-81 118z" />
    <path fill="#030400" d="M719 118l61 43 99-69-68 52z" />
    <path fill="#ff2300" d="M691 271l7-89 2 149-8 24z" />
    <path fill="#91723e" d="M288 476l-319 2 137 14-20-2z" />
    <path fill="#edf9ff" d="M772 227l-15 9-5 267 14-196z" />
    <path fill="#36dc00" d="M248 204l17-31 16 47-33-5z" />
    <path fill="#4f97dc" d="M338 264l-319 2-4-90 43 78z" />
    <path fill="#ffef92" d="M633 153l166-57-207-14 106 96z" />
    <path fill="#2eda00" d="M252 69V25l24 23 3 21z" />
    <path fill="#4f5c6c" d="M379 290l-117-1-76-9 209-1z" />
    <path fill="#43464d" d="M363 144l-148-3 14-7 120-2z" />
    <path fill="#a5c9f8" d="M920 247l-72 128-59 131 13-240z" />
    <path d="M618 109l-16 38 2 31-21-39z" />
    <path fill="#ffc" d="M785 167l-28-24-71 15 47 75z" />
    <path d="M882 163l-38-49 39 17-33 40z" />
    <path fill="#fff" d="M1055 129l-177 13-36-77 172-96z" />
    <path fill="#ff551b" d="M659 415l32-11-93-3-13 13z" />
    <path fill="#472700" d="M731 221l-8 94-15-46 2-57z" />
    <path fill="#fff" d="M91 264l-115 3-7 113 502-60zm813-78l151-16-33 373-114-165z" />
    <path fill="#fff79c" d="M809 135l-34 6-68-57 199 7z" />
    <path fill="#69a3d6" d="M388 266l-294-3 269-12 218 15z" />
    <path fill="#000711" d="M773 349l21 93-53-68-13 94z" />
    <path d="M651 147l-56-27 16-3 75 31z" />
    <path fill="#ff6a38" d="M693 344l-56 60 52-71 138 9z" />
    <path fill="#d7ffff" d="M754 366l21 86-37-13 32-50z" />
    <path fill="#feffff" d="M569 360L231 523l797 20-488-134z" />
    <path fill="#fff" d="M281 213L36 249l465 8L651-31z" />
    <path fill="#feffff" d="M-31 112V21l66 239 328-103z" />
    <path fill="#0c0c00" d="M689 170l1 18-116-42 27 28z" />
    <path fill="#fff" d="M-31-2l150 109 162-2L169-31z" />
    <path fill="#ffffbd" d="M695 303l-17-122-161 24 130-36z" />
    <path d="M680 164l26-39 79 24-44-33z" />
    <path fill="#989499" d="M825 424l30-10h90l39 14z" />
    <path fill="#70e423" d="M187 178l150-2 1 3-102 3z" />
    <path fill="#030917" d="M898 258l-134-17 146 2-29 2z" />
    <path d="M738 460l-13-39 37 49 39-23z" />
    <path fill="#ffe385" d="M272 120l170 2-16-47-380 45z" />
    <path fill="#0a0400" d="M798 164l-28 61 3-54 131 1z" />
    <path fill="#6798c2" d="M450 244l-9-15-73-6 23 19z" />
    <path fill="#ffca29" d="M911 161l112 1-82 19-33-4z" />
    <path fill="#7b7c7d" d="M335 491l5-6 88-2 57 3z" />
    <path fill="#7fec3a" d="M218 30l5 9 12-1 140-6z" />
    <path d="M739 299l13 65 1 56-19-78z" />
    <path fill="#ffb5e6" d="M48 348L18 460l181-97 203-25z" />
    <path fill="#fff1a2" d="M592 116l239 10-267-39 6 249z" />
    <path fill="#ff6532" d="M793 353l-2-118 9-59-1 138z" />
    <path fill="#a79aa9" d="M466 350l-202-7 248-1-147 91z" />
    <path fill="#fff0ab" d="M692 193l131-35 39 3-5-31z" />
    <path fill="#ffeab6" d="M903 168l-94 9-57 57 113 9z" />
    <path fill="#9eccf3" d="M108 478l199-88-225 66-93 24z" />
    <path fill="#ffeeb0" d="M629 139l-26-7 3 21 118 15z" />
    <path fill="#5f94c3" d="M40 199l73 1-6-11-65-6z" />
    <path fill="#ff4309" d="M800 219l-2 6-122-1 66-10z" />
    <path fill="#94b0b1" d="M17 41l147 1 19 20 1-1z" />
    <path d="M876 165l-29-52-39 26 66-16z" />
    <path fill="#000009" d="M789 238l-21 2 1 34v35z" />
    <path fill="#67a6e3" d="M926 439l-10 18-50-4 13-15z" />
    <path fill="#b2b7ba" d="M679 55l237-12-246-11-11 17z" />
    <path fill="#fff" d="M635 404L503 277l196 62-158 63z" />
    <path fill="#b8dbff" d="M742 412l-1-60-29-9-6 59z" />
    <path fill="#ffb036" d="M115 433l-60-2-35 59 15-45z" />
    <path fill="#b0d1f6" d="M828 252l87 92-135-3 2 72z" />
    <path fill="#bd9c17" d="M672 251l-28 31 3-42 28 41z" />
    <path fill="#fff" d="M-31 21l393 9 201 250 10-311z" />
    <path fill="#dbebff" d="M823 503l-83-9 51-40 134-281z" />
    <path fill="#9f9067" d="M177 481l-22-11L8 487l270 1z" />
    <path fill="#c9e8ff" d="M765 400l-21 52 28 5 11-20z" />
    <path fill="#7a7c83" d="M932 135l82 9-84 6-12-10z" />
    <path fill="#b5a25e" d="M311 119l195-4 75 6-73-2z" />
    <path fill="#fcbc00" d="M48 119l122-13-4 1 92 12z" />
    <path fill="#88bee8" d="M379 344h-12L242 448l171-112z" />
    <path fill="#fff" d="M402 489L46 543l-77-55h166z" />
    <path fill="#ffee9e" d="M903 148l-48 54 48-118-89 2z" />
    <path fill="#fff" d="M793-26l262 32-100 537 50-389z" />
    <path fill="#020000" d="M587 172l95-2 27 66-48-78z" />
    <path fill="#fff" d="M397 340l260 1-221-76-238 76z" />
    <path fill="#020000" d="M768 355l20-76-9 76-1 74z" />
    <path fill="#fff4bf" d="M741 99l-56 46-157-77 81 49z" />
    <path fill="#ff440c" d="M544 421l39-63-19-12 3 70z" />
    <path fill="#fff" d="M20 420l113-78 326-46-432-11zm46-168l73 7 142-6-121-135z" />
    <path fill="#f6e5b9" d="M735 359l2-124-8-20-3 41z" />
    <path d="M735 458l5 6 27 5 21-16z" />
    <path fill="#ebc74b" d="M158 186l-5 16-27-2-10-15z" />
    <path fill="#5b9fde" d="M23 192l52 72 82 1-106-17z" />
    <path d="M630 137l61 4 53-23-56 38z" />
    <path fill="#fffcbf" d="M703 140l-7 60 77 1-29-65z" />
    <path fill="#fff" d="M840 408l-7 129 222-212-101 218z" />
    <path fill="#61646b" d="M174 488l157-4 33 3h-45z" />
    <path d="M854 179l-22-21-48 24 94-29z" />
    <path fill="#e8c765" d="M97 46l-22-9-63 26 81-10z" />
    <path d="M730 456l17-54-29 28 8-12z" />
    <path fill="#fff" d="M237 121l-217 1L8-31l-25 236z" />
    <path fill="#ff6132" d="M753 336h54l-29 13-76-13z" />
    <path fill="#ffdb54" d="M241 389l32-22-102 32 76-9z" />
    <path fill="#fff" d="M186 108l140 6-121-73L39 79z" />
    <path fill="#b8d8fb" d="M714 492l152-19-130-7-30-88z" />
    <path fill="#323439" d="M16 334v141l3-115 2-2z" />
    <path fill="#bfcce2" d="M765 293l-5 160 8-63v-44z" />
    <path d="M768 412l1-135 17 179 12-28z" />
    <path fill="#ac8555" d="M795 388l3-10 28-4-2 23z" />
    <path fill="#6adc18" d="M271 219l-45-47-18 3 50 24z" />
    <path fill="#fffba5" d="M701 296l36 9-26 13-5-132z" />
    <path fill="#2c2c2d" d="M527 485l-14-9 17 11-102-1z" />
    <path fill="#b2885a" d="M243 477h87l7-18 5 11z" />
    <path fill="#fff" d="M15 493l-3-334-43 384 312-54z" />
    <path fill="#fffdd7" d="M754 230l13-3 1 45-11 21z" />
    <path fill="#ffe35a" d="M182 410l4-19-64 42-87 11z" />
    <path fill="#fff" d="M267 31l788-5-771-57-84 147z" />
    <path fill="#73abdb" d="M810 327l-13-28 58-10-6 51z" />
    <path fill="#67aff0" d="M319 68l-26-8-10-11 57 4z" />
    <path d="M586 143l13 22-1-43 40-7z" />
    <path fill="#00030b" d="M817 258l-39-2 112-2-23-16z" />
  </g>
</svg>