<svg version="1.1" viewBox="0 0 1024 512" width="1024" height="512" xmlns="http://www.w3.org/2000/svg">
  <g fill-opacity=".5">
    <g class="SVG--0">
      <path fill="#745e96" d="M934 65.5l-18.8 183-422-2.5 49-178.7" />
      <path fill="#237719" d="M954 422.7l-52 21.7-56-76 85.5-37" />
      <path fill="#917466" d="M616.7 355.3l-34-57.4-58.4-1 11 177" />
      <path fill="#72cf5c" d="M688.8 429.5l-72-6.6 24-54 62.5 5" />
      <path fill="#fff" d="M-31 262L.3 543l973-29.2L528 390.5" />
      <path fill="#ac98bb" d="M849.4 394.8l-30-63.6L832 301l187.8 13" />
      <path fill="#fff" d="M500.3 278.8L312 256.2 108 459.8 499.5-31" />
      <path fill="#c7cc6e" d="M597.4 451.8L533 516.5l-8.6-77 50.2-35.4" />
      <path fill="#fff" d="M1019-10l-70.3 442-409.4 70 515.7 41" />
      <path fill="#b6d7b9" d="M243 292.7L386.5 251l29.2 96.6L249 362" />
      <path fill="#fff" d="M645 339l182 100.6-5-193-352.6 5.3M-20.6 0L-31 92.8l5.6 281L224.8-20.6" />
      <path fill="#fff" d="M200.4-31L320 76.3l161.4-48L1055 11.7" />
      <path fill="#b7becc" d="M279.2 51.2l124.6 36.3-53.7 90.2L136 51" />
      <path fill="#e3c0ca" d="M533 198.3L463 67.6l146.6-1.3 70 16" />
      <path fill="#5b66a8" d="M911.2 249.8l-78-113 7.3 100.4 64.6-150" />
      <path d="M795.4 246.6l-140 1-168-4.6 252.4.4" />
      <path fill="#69a44a" d="M939 347.8l23.3 72.7-57-71L827 543" />
      <path fill="#fff" d="M502.8 543L528 248.7l-104.6 80.7-312.8 118.4" />
      <path fill="#898a88" d="M741.5 421.2l45.3 17.7-54-46 79.7 3" />
      <path fill="#b62f1f" d="M571 431.6L585 329l-61-16.2 78 8" />
      <path fill="#fff" d="M8 140l204-21.6 297.5 113.4L241.8 282" />
      <path fill="#616260" d="M989 141.7l4.7 62.7-10 8-6-57.8" />
      <path fill="#4d4c4a" d="M263.2 228l33.8-11.8-54.5 2.2-10 .3" />
      <path fill="#dddcae" d="M132.5 449.5L214 480l-154 2.6 75.8-188.2" />
      <path fill="#626fb0" d="M782.4 73.3l-1 84.4-43 84.2L734 70" />
      <path fill="#ffd5d3" d="M778.8 151.3l50 8.3L840.5 269 777 202.3" />
      <path fill="#fff" d="M988.2 208.7L826.6 302l228.4-20-50-313" />
      <path fill="#777876" d="M734 36l-83.2-2 8.7-11.3 53.8-2.2" />
      <path fill="#a20712" d="M550.8 314.6l14.8 44L521 319l8 20.3" />
      <path fill="#f0bebe" d="M43 121.8l77 12.4 155.4-34.6-156.7-43.4" />
      <path fill="#7a7973" d="M353.4 150l52 10-87.5 3-21-7.3" />
      <path fill="#fff" d="M978.7 178.4l-5.4-80 81.7-94L871-31" />
      <path fill="#b79687" d="M216.3 365l-6-178L219 80l3 178.2" />
      <path fill="#747d6f" d="M932 240.5l-179 3.7 102.4 6.2-1.3 24" />
      <path fill="#5bbfc5" d="M538 385.5l-31-53 74 25.4-57.3 62" />
      <path fill="#8196bc" d="M453.6 92.7L337.3 88l99.4-15.7 45.5 18" />
      <path fill="#fff" d="M736.2 397l-247 125.4L767 543l-20.3-138.7m124-160.3l-21 59-153.2 106 30-152" />
      <path fill="#6370c4" d="M964 352.7l-22-58.2 25.6 21.5 28-17" />
      <path fill="#dbc8a7" d="M839.6 434.2l9.3-117.6 39-33.5-9 215" />
      <path fill="#c1749f" d="M261.3 299.7l-25.8 3.8-87.7 3.7-10.8-15.5" />
      <path fill="#8e8e81" d="M69.6 385.3l1.3 1 46 9.7-120-.3" />
      <path fill="#6f6f6d" d="M39.2 182.8l-20.4-8 58.3.6L54 187" />
      <path fill="#92938b" d="M118.2 323.4l101.7-3v8.6l-95-3.7" />
      <path fill="#6c7ba8" d="M577.8 182.8l123 80.5-45 6.7L608 144" />
      <path fill="#fff" d="M-14 50.4v-62l274.3 8.3-39.2 59M836 429l37 114-111.8-62.8 17-87.6" />
      <path fill="#8f0205" d="M850.7 303l-.8-5 19 25.7-1 24.6" />
      <path fill="#fff" d="M562.5 358.5l-3.8-34 317.2 89L700 255" />
      <path fill="#36ac1d" d="M918.7 347.7l12 37.3 8 66.7 7.8-85" />
      <path fill="#ddbfba" d="M933.5 243.2l-103.4-.8 83-39 30-131" />
      <path fill="#8a8b89" d="M981 187l-3.8-108.3 17.3 22.5-3.6 39.3" />
      <path fill="#255a1c" d="M878.5 399l16-30.4 4.5 51.8-11 1" />
      <path fill="#fff" d="M935.5 383.5l-5.2 2L922 410l-8-33.3" />
      <path fill="#7381e3" d="M585 366.5l17-48.2 15 55.3-13.7 5.3" />
      <path fill="#2d45c8" d="M905 378.6L881 357l55.4-7-21.5-25.5" />
      <path fill="#7b7b79" d="M430.3 276l-.6 81.7-5.8-91.3-17 5.4" />
      <path fill="#788487" d="M68 265l-27.8 5-5 4 82.4 3.3" />
      <path fill="#5c5c5b" d="M172.6 229.3l3 .6 18.8-16 4.8 17" />
      <path fill="#9faba1" d="M319.5 392.2l-1-6-27.5-43 50.7 3.6" />
      <path fill="#fff" d="M888.7 221.2l-24-40L786 382.8l-99.6-92.3" />
      <path fill="#42bc1e" d="M689.2 429.7l-11.8-52-31.8-2 54 35.2" />
      <path fill="#d4daef" d="M779 115.8l57-17.3 2.6-25h-62" />
      <path fill="#000800" d="M641 244.5l-162.7-1.2 35 1.6 30.5 2" />
      <path fill="#c7a2b4" d="M497 127.2l53.8-95-45 175-4 40.2" />
      <path fill="#de2141" d="M547.4 295.2l39.8 27 1 19.8 13-27" />
      <path fill="#483c45" d="M321.5 289.7l7-27-12.3 8.8 7.4 25.3" />
      <path fill="#6e6f6d" d="M159.7 288.3l33.8-.6 4.7-11.3-35.8 3.6" />
      <path fill="#fe908c" d="M666.4 212l54.6 11-217.6-3 65.4-11" />
      <path fill="#fff" d="M935 440.8l-139.7 87L1055 543V258.4" />
      <path fill="#e33e42" d="M601 69.7l-36.4 3-54-6.8-3.6 8" />
      <path fill="#8e8e9d" d="M204.8 467l10.2 15.3-82.8-12 55-1" />
      <path fill="#a558a6" d="M574.3 394.2L597 403l30.4 3-6 20.3" />
      <path fill="#fff" d="M537 299.7L491.7 316 340 199l326 94m-314.7 0l-25 31.3-2-51 113 10" />
      <path fill="#d9db99" d="M131.3 407.6l-9-106-26.8 117.7-2.3-137" />
      <path fill="#4f65af" d="M695 203.4l23.3 10.2-3-50-30.3-6.2" />
      <path fill="#fff" d="M499.4 38.5l51.3-5.2L334.2 201l164.2 104.3" />
      <path fill="#fcfffb" d="M648 396.5l19.2 30.4 9.3-65 6.8 23" />
      <path fill="#fdfffd" d="M568.6 436.3l439.6 96.8-464.5-129 36.7-42" />
      <path fill="#aba5a4" d="M70 82.3L99 124l-52 .5 75-31.3" />
      <path fill="#fff" d="M201 114.4L-5.8 116l163.6-35-5 101.6" />
      <path fill="#8992a1" d="M234 17l83.7 56.6-69.3-19L262 17.8" />
      <path fill="#8a8cbc" d="M651.7 126.4L620 86l-72.5 42.2-57-11.2" />
      <path fill="#fff" d="M1002.4 196.3l-122.2 86.4 68.2 65.6-28.5-11" />
      <path fill="#cbeefa" d="M83.2 139.8l-3 53.7 19 141.5L154 144.5" />
      <path fill="#fff" d="M312.3 330l25 39L68 349.2l241 82.5" />
      <path fill="#d0c0d1" d="M744.7 106l-127-32.3 9 161.3 66-194.2" />
      <path fill="#5f6aac" d="M598 238.2l145.4-1.8-99-14.8L519 237.4" />
      <path fill="#feffff" d="M57.6 266l151-138.2L119 293.5l311-94.8" />
      <path fill="#828281" d="M816 396l-37-2-14.5 35.6-29-16" />
      <path fill="#fff" d="M515.3 531.6l5-263.2-291.4 185-90 89.6M196 3.2l238.8 62.5-13 66.5 65-138.4" />
      <path fill="#6e6f6d" d="M377.6 56.7l27.8-3 5.4 7.2-16.4 7" />
      <path fill="#fff" d="M741-31h-23.8l23.4 89 261.7 14.8" />
      <path fill="#56524a" d="M289.6 119.3l3.6 21 2.7-8-1-36.7" />
      <path fill="#4561ad" d="M645.5 101.4H743l-25.6 5 27.4 17" />
      <path fill="#676969" d="M99.3 227.5l-31-3L82 211l4.4 6.3" />
      <path fill="#fff" d="M380 121l-168.6 33.2 88 74L303 110" />
      <path fill="#d5c7d5" d="M838 115.7l108 5.5-12.6 28.8-76.7-10" />
      <path fill="#fff" d="M117 442l-148 52.3 26.8-128.7 206.4 170.7m643.3-100.5l209.5 3.6L954.8 543l-71.2-131.3" />
      <path fill="#314b37" d="M257.5 344.2l-10.2 2.6.3-35 5 29.5" />
      <path fill="#a1a757" d="M825 466.5l36.6-1.2 55.5-44.8-54 54.7" />
      <path fill="#d33d48" d="M558.3 344.5l-15.5-50.7-36 38.2 33-16" />
      <path fill="#41413b" d="M231.3 79.4v-28l-7.2 26 6 19.8" />
      <path fill="#767d8b" d="M382 127.6l9.3-38-23.8 42 4.2 2.3" />
      <path fill="#283337" d="M209 125.5l1.8-1.4 6 24 2.7-16" />
      <path fill="#c77369" d="M830.8 338.7L875 348l-18 22.7-36.3-70.6" />
      <path fill="#a5a758" d="M549.2 496.5l21-21-45.7-39 26 52.5" />
      <path fill="#9b9c9a" d="M921.2 33.8l-81-5.8 88.4-4.8 5.3 13.3" />
      <path fill="#5868ab" d="M875.2 170.8l50.8-36.4-25 87-20-1" />
      <path fill="#fff" d="M568.6 264.2l59.6 123-38.8 6 228-116" />
      <path fill="#67d24c" d="M664.6 425l-1 14.4-42.5-83.2 49 75.4" />
      <path fill="#e4c3cc" d="M717 140.8l-234.3-2.3L740.2 118l-21 108.8" />
      <path fill="#fff" d="M-31 395l120.2-20.6 5.5-98.2-125.5 2.5m261.5-198l-89.4-107 128.5 67-112.5 32" />
      <path fill="#4c9a3c" d="M704 372l-2 7.8-27.5-18.6 18 3.8" />
      <path fill="#a1a1a0" d="M497.3 34.5l-4.2-3 107-1-115-9" />
      <path fill="#fc6c6b" d="M908.7 103.7l12 9.4-141-1 104.3-5" />
      <path fill="#fff" d="M-8.3-1.2l189.7.3L58.8 101-8 248.8" />
      <path fill="#7e7f7d" d="M157.8 238.3l2.6 14.7-24.4-4.4 3-6.2" />
      <path fill="#fff" d="M11.7 515.3l-42.7-355 132.5 81.4L39.2 269" />
      <path fill="#1e771b" d="M934.6 349.5L881 383l21.3-10.5 17.6 7.2" />
      <path fill="#bebf43" d="M581.6 388.3L572 421l22 38.4-42-31" />
      <path fill="#fff" d="M684 427l-8.7-30.7-2.4 73.4 97-73.4" />
      <path fill="#1d47a1" d="M909.5 67l18 4.4L780.3 73l55.7-3" />
      <path fill="#81c68c" d="M410.7 276.7l-62.2.2-17-9 73-6" />
      <path fill="#524f48" d="M199 61.5l8-5.2-27-3-4.6 7" />
      <path fill="#fff" d="M386.8-.5L258.3-31 310 74l75 3" />
      <path fill="#fbcf46" d="M943.5 159.8l-36.8-.7 27.3 14 19.3-3" />
      <path fill="#f9bebd" d="M656.6 139l15.6 6.7L677 253l-19-51.4" />
      <path fill="#85ca90" d="M403.4 296.6l13.3-9.2 1.6 23.4-79.2-11.4" />
      <path fill="#4a4a55" d="M60.2 476l.8-13.5 14.4-1-2.2 8.5" />
    </g>
    <g class="SVG--1">
      <path fill="#fff" d="M791.2 250.4l258.6 69.6-85.6-136.6L882 321.8" />
      <path fill="#515c5f" d="M219.3 245.3l-5.5-.4 7.4 32h-12" />
      <path fill="#ece5ea" d="M559.6 74.6l-51 42.3 132.2-35-9 15.3" />
      <path fill="#99999a" d="M96.4 388l-74-3.2 10 10.8 47.6 3" />
      <path fill="#fbf7f4" d="M760.7 267.8l136.5 102.7-16.8 10-52.4-123" />
      <path fill="#53544d" d="M840 236.7l26.7 3.7-31.2 5.3 93.6 3" />
      <path fill="#837c83" d="M341.4 280.8l2 73.8L307 349h29.3" />
      <path fill="#fff" d="M260 337l90.8-9 72 6.6-129 11" />
      <path fill="#90d4cf" d="M816.6 373.5l6.4-24.7 31 24.2.8 27.7" />
      <path fill="#e6f2f8" d="M236 64.4l51-7L315 94l-81 13" />
      <path fill="#f1979a" d="M123.7 69l42.4 5.7-14 41.4 48-3" />
      <path fill="#e4636a" d="M88 119.8l22-57 7 17.3-4.2-4" />
      <path fill="#679440" d="M949.7 426.2l-30.5 17.4-48.7-87 22.8 81.8" />
      <path fill="#fff" d="M653.5 46.6l131-7.7-252-10 107 42m-246.8 32l50 220.2 64-227.8-193-5.8" />
      <path fill="#b38190" d="M626.5 74.4l-27.8 12 24-50 5.8 101.7" />
      <path fill="#5e6267" d="M294.2 102.7l-12.7 12.8-10 19-13.7-2.2" />
      <path fill="#fff" d="M131.8 400l13.8 78.2 105.8-146-118.7-3.4" />
      <path fill="#4c63b1" d="M589 165.3l8 41.3h22.6l2.3-45.3" />
      <path fill="#807daa" d="M893 46.3l-17.5 8.2 37 28-28 61.5" />
      <path fill="#f3e4eb" d="M552.4 210l39.8-7.2-64.2-8-6.3 10.5" />
      <path fill="#fadddd" d="M885.2 240.4l-107.3.4 18-168.3-11.7 160" />
      <path fill="#a05e75" d="M850.5 316.5l50.7 1.7L908 300l-35.2 27.4" />
      <path fill="#f15a59" d="M696.7 220.6l41.7-7.7-4-10-59.7 17" />
      <path fill="#fff" d="M1055 73.6L1018-31H913.4L946 86.3" />
      <path fill="#d74d57" d="M598.4 214.8l-13.8 25 4-29.6h-65" />
      <path fill="#4da2a8" d="M576.6 355l-14 32-47.2 20 16.6 6.7" />
      <path fill="#fff" d="M287 111.5L227.8 208l242.5-49.7-167 8.7" />
      <path fill="#7383b8" d="M550.6 221.6l-48.8 26.7 66-70.4-22.8-30" />
      <path fill="#7a91be" d="M347.3 145.6l-51-9 10.3-3.8 52.4-2.3" />
      <path fill="#465da9" d="M645.7 82.5L645 195v26.7l6.8-35.5" />
      <path fill="#fff" d="M542 493.4l326-93.6L525.4 543 56.8 490" />
      <path fill="#cc5f6c" d="M920.2 249.8l6.5-70-1-22.5L919 210" />
      <path fill="#fff" d="M267.6 292.3l208-101.5-246 46-13.2 57.3m83.8-150l-84-2L337 153l224-10.3" />
      <path fill="#7b79a7" d="M761.5 184.6l10.8 23L780 51l-10.4-8.8" />
      <path fill="#7080b8" d="M848 8l-11.4 205.8L736 220l110 .8" />
      <path fill="#5774b6" d="M732.7 113.5H858l118 .5-142.7 4.7" />
      <path fill="#fefffd" d="M886 453.4l-129.3-94.8 102 2.5-142-109" />
      <path fill="#fff" d="M-31 504.2l167.3-78L-31 409.4l179.6 125" />
      <path fill="#fff" d="M115.7 426L496 354l41.6 28.5-50 160.5m474-138L924 433l74-79.8 54.5 189.8" />
      <path fill="#edb9bc" d="M860 238.5l11.8-11.4V121l-11.3 37.2" />
      <path fill="#acacab" d="M478 286.2l-53.6-1 29-1 2 32.4" />
      <path fill="#ecf1f1" d="M908.2 98.8l37.5-47.4 27 28 12.4 32.4" />
      <path fill="#fb7069" d="M494.4 151.2l-1.2 5 104-2.5-84.2-2.4" />
      <path fill="#6e82b0" d="M958.2 327.3l-37.6 47 71.8-67 6.6 5.3" />
      <path fill="#dac3d1" d="M737.8 118.2l24.8 15.2.7 2 8.3-27" />
      <path fill="#6d9899" d="M572 367.7l8-1.7-112.2-8.2 54 8.7" />
      <path fill="#719077" d="M321.3 292l7 19-26-36.6-12.5 2.8" />
      <path fill="#ed7d81" d="M96 96.2l5-13.4 7.8 15.5-5.3 27.5" />
      <path fill="#42a323" d="M932.6 389.8l18.3 29.5 5-24-31-45.3" />
      <path fill="#f9fafe" d="M1004.6 258.6l-59.4 104.6 86.3-125L866 249" />
      <path fill="#6277b5" d="M626.7 68.8H773l169 3-254 2" />
      <path fill="#9aabcb" d="M328.5 99.4l-98 11 16.7 3.4 130.4 1.7" />
      <path fill="#454d40" d="M780.3 243.8l12.6 3.5 54-3.3-70-1.8" />
      <path fill="#fff" d="M456.6 5.7L1049.4 43 760 45l294-55" />
      <path fill="#121715" d="M852.7 245.4l13.4-2.8 43 5.7 26.8-5.7" />
      <path fill="#999a99" d="M668 34l10.2 1.5 5-13.7 136.3 9" />
      <path fill="#121e14" d="M186.4 297.7l-8.7.3 20.6-1-2 10.7" />
      <path fill="#7e7f7d" d="M421 261.3l12.8 21-7.5 41.8-3-51" />
      <path fill="#96252b" d="M551.6 315.4l-6.5 8.3 42-12-52 33.6" />
      <path fill="#e4f0fa" d="M702.2 209.5l21.6 28.4-135 1 152.5 1" />
      <path fill="#4560aa" d="M699.4 134.5l-1.2 49.4-1-88 20.8 13" />
      <path fill="#817fb1" d="M599 101.6L591.2 90l64.8 35.3-80.2-1" />
      <path fill="#a1afa4" d="M404.2 326.4l-53.8 23 45.4 4.2-16-38.5" />
      <path fill="#919090" d="M225.8 213.5l68.2 11.7h-60.4l-7-10.6" />
      <path fill="#898789" d="M903.8 256l-4.8 14.8-29.7-14 19.4-6" />
      <path fill="#bbc3d9" d="M803.7 37.6L830 161l10.8-4.8-20-96" />
      <path fill="#945770" d="M910.7 308.3l-41.8 30 14-2 6.4-29" />
      <path fill="#fff" d="M545.8 466.5L474 309 239.7 427 571 443M556.2 68L275.6 43.5l-6 13.4-27-88" />
      <path fill="#da707a" d="M730 182l57.7 2h16.5l-5.4-9" />
      <path fill="#445da8" d="M842 206.6l-9.6-27.8 25-15 4.2 42.7" />
      <path fill="#fff" d="M1040.2 350.4l-107 5.3 60.2 96.5 22 90.8M214.8 174.8L127 263.4l45-154 41.5 35.5" />
      <path fill="#f1f0fd" d="M858.6 285.7l19.5 79.7 33-57.4-39 44" />
      <path fill="#262f8f" d="M956 308.6l-2.8 7L943 309l2.3-7.8" />
      <path fill="#fff" d="M872 276.8L619.7 380.4 619 332l212.3-91.6" />
      <path fill="#a5aa2f" d="M542.6 428.7l-23.8 24.5 24.7-19.2 31-27.4" />
      <path fill="#7379c7" d="M602.8 387.8l1.8-68 4.5 35.6 11 15" />
      <path fill="#89bf93" d="M283.7 333.2l28.8 27-29 1-3.7-56.6" />
      <path fill="#edd9dd" d="M489.7 127l103.3-3-64.7 39 68.7 2" />
      <path fill="#fff" d="M168.4 94.6l-29-16.3-40 3 19.5 31.2m100-86l1 102 42-21L236 215" />
      <path fill="#b2e2f4" d="M118.2 309l11.8-2.7 4.3-93.2-17.3-7" />
      <path fill="#6c83c0" d="M497.6 108.7l39.8 9.2 6.6 7-42-1" />
      <path fill="#ffd7d2" d="M859.6 98.7l6-25 11.2 3 2 27" />
      <path fill="#5ec344" d="M699.2 410l-56-33.4 19.5-13.5-1 13" />
      <path fill="#a3a296" d="M213.2 473.5l-57.7 4.4-15.2-25-16.7 6" />
      <path fill="#4e4b46" d="M292 58l-4.5-6.7 24.4 28L301 58" />
      <path fill="#909795" d="M40 112.4l25.8 12.4 45.3-1-36-9" />
      <path fill="#b9b8a9" d="M790.5 418.3l57.3 4 21.4-31.8 11.5 19" />
      <path fill="#fff" d="M825.4 403.7l-122 106L868 525 765.3 398" />
      <path fill="#cee9ca" d="M673.6 382.8l-18-13.7 3-27 54 77" />
      <path fill="#fff" d="M846.3 543l-109-102.8-142.2-18-8 35.8" />
      <path fill="#546bb3" d="M923 359l-37-25.6 10 24 68.3-17" />
      <path fill="#d3d083" d="M93 463.3l17.4 24-31-25.5 25.3-44.4" />
      <path fill="#fff" d="M53.3 483.6l274.7 2L20.7 543l99.4-90.3" />
      <path fill="#f7716c" d="M659.3 167.5l5-41-13.8 8.7 24.2 15" />
      <path fill="#232d19" d="M809.7 244L670 246.6l-70 .3-55.2-5" />
      <path fill="#909090" d="M756.7 396l-39.7 3 91 3.7-60.2-13" />
      <path fill="#66c078" d="M287.3 332.3l22-5-12.2-33 5 21.7" />
      <path fill="#fff" d="M919 391.4l2 19 10.5-33-18.5 10.2" />
      <path fill="#96635c" d="M822 304.2l32.5-1.5 7.7 7.8-55-6.2" />
      <path fill="#747473" d="M669.2 25l-9 5.2-7-12 18 2.6" />
      <path fill="#fff" d="M316.2 126.4l-109 70 94.5 25.2L298 77.3" />
      <path fill="#929292" d="M982 155.5l11.7 7-7.4 48-11 .2" />
      <path fill="#f8f9fb" d="M706 87l-35-27-7.3 11.6-2.6-54" />
      <path fill="#ff847e" d="M635 88.8l5-21.7-89.7 3 70 5" />
      <path fill="#fff" d="M342.7 353.3l-81.2 17 104 5-15-74" />
      <path fill="#c33531" d="M592 343l8.8-22.8-15.6 15-8 42" />
      <path fill="#a7a8a4" d="M859.2 67.5l-10-4-8.4-14.2 14-1.8" />
      <path fill="#847f7c" d="M43 270.6l51.7-4.7L70 278l-7.2-4" />
      <path fill="#347d26" d="M919.5 351.8l-37.8 34.7 12 19.2-23.8 7" />
      <path fill="#fc7b75" d="M703.5 138.5l21.7-1-4 23.4-17.4-21" />
      <path fill="#fffffc" d="M781.6 62L535 67.2l256.3-.4 19.6-30" />
      <path fill="#787269" d="M297.5 129.5l-5.8-7.4 2-32 4.2 1" />
      <path fill="#8c8d8b" d="M24.5 173.2L41 173l43.5 12-56.7-1" />
      <path fill="#fff" d="M660.3 246.5l-44.8 80.3-44-25.2-183.7-53" />
      <path fill="#ffb28f" d="M207.6 216.5l16 23-2.3-49.7 5-25.5" />
      <path fill="#afb175" d="M522.3 476.7l8-35L560 470l-64-2.3" />
      <path fill="#818d83" d="M301.5 347.6l-10-3.6 39.8 38.7-15 2" />
      <path fill="#8d95a5" d="M391.5 40L367 141l17-20.2-6 2" />
      <path fill="#a8b7cf" d="M229 80l43.6 36.8-45-8 59.5-37" />
      <path fill="#787777" d="M318.6 161.3l67.2-2.5 4.2-6.8-85.5 4" />
      <path fill="#73a8d1" d="M944 118.6l5.7-27-3.2 12-62.5-8.3" />
      <path fill="#ea3839" d="M665.6 100.5l-2-24L660 86l-.3 10.8" />
      <path fill="#d19fa7" d="M582.3 34.2l-33 108.5L543 92l43.7-9.2" />
      <path fill="#fff" d="M972 422l-77.4 24 128.2 96.8 6-305.8" />
      <path fill="#f2dddd" d="M495.8 326.4l54.5 2.5-9.7-12-26.6 18" />
      <path fill="#fff" d="M251.5 91.5L422 93.7 217.2 98l-95.7-3.5M766.3 395l28-1 29.4-79.8L692.2 395" />
      <path fill="#f9feff" d="M886.4 264.7l64.3 55.8 3 19.6-95.2-61" />
      <path fill="#fff" d="M530.4 62l-79-71.6L491 115l23-101" />
      <path fill="#69c951" d="M632.3 364l32.8 67.6-4-3.7-22-21" />
      <path fill="#fff" d="M209.4 254L91.6 156.8 176 263l34.3 35" />
      <path fill="#a9d6ec" d="M76.3 188.3l48-44-46 17.4 35.5 56.7" />
      <path fill="#f86b6c" d="M809.3 226.5l23.5 6.7 83 4.2-74.8 1.4" />
      <path fill="#6d609a" d="M677.4 91.8l6.4 101.4-10-10.4 3-26.4" />
      <path fill="#fff" d="M390.7 338.4L539.3 469l-71.8-147-100.8 12.4M78.7 216l129.7-79.7.4 91.8L101 158" />
      <path fill="#41657e" d="M580.6 365.2l-18.7 7.4-9-10 70 1.4" />
      <path fill="#fffeff" d="M663.2 249l-31 100-45 63.8 85.6-68.5" />
      <path fill="#fff" d="M136.3 332.8l104-9.6 73 219.8L136 420.2m859.8-288.4L965 119l17.6 113.4-39.8-92.6" />
      <path fill="#55ac42" d="M681.8 398.2l2.5 10.8 12-38.2 7.7 17.4" />
      <path fill="#d79084" d="M888 384.4L817.8 329l5.5-13 57.5 70.7" />
      <path fill="#4d5152" d="M212.6 117.7l6 15-15.7 1 20 4.6" />
      <path fill="#545454" d="M733.7 395.4l77.6 1-68 3.4-27.3-2" />
      <path fill="#f09d9f" d="M116 124.2l70.2-23.2-45.3 32.3-14 .4" />
      <path fill="#e2444e" d="M528.3 309.2l-5.7-10.6 64 7.6-44-9" />
      <path fill="#a2c4a8" d="M304.8 325.4l99-6.4 33.6 7.4-62 3.2" />
      <path fill="#747db7" d="M503.7 175.6l8.5 63.8 6.2-59 86 2" />
      <path fill="#fff" d="M57-22.8l60.2-8.2-32.6 201 21.7-31.5" />
      <path fill="#cbc55a" d="M118 397.3l17-29-9.6-7 5 40.2" />
      <path fill="#2e9e97" d="M530.5 405l21.3-30-3.6-1.5-11 47.8" />
      <path fill="#fff" d="M-12.3 98l202.7-55L220 66.5 270.4-31M623 543l59.5-143 13 102.8L764.7 386" />
      <path fill="#131812" d="M818.2 242.8L706.8 246l65-3.3 30.2 5.5" />
      <path fill="#c2bddd" d="M583 366.7l32-30-15.5-15.4-6.6 28" />
      <path fill="#a5a5a4" d="M800.8 25.2l-43 6 26-1.2 113.4.8" />
      <path fill="#6fb6af" d="M848 401.8l11.5-35.3-48.5 6.3 32.6-13.3" />
      <path fill="#eaf6ec" d="M535.8 237l84.4 5-85.7-.3 28.5-9.5" />
      <path fill="#777f7f" d="M96 96.2L81 83l-10 4.6L83 97" />
      <path fill="#c8c97e" d="M856 404l.2 91.5 26.4-23.8-13.6 20.5" />
      <path fill="#f8ffff" d="M912.6 329.4l-4.2 21.7-18.2-26 17 9" />
    </g>
    <g class="SVG--2">
      <path fill="#969493" d="M83.3 273.3l-6-6.8-37 10-3-14.4" />
      <path fill="#7d7e7a" d="M925 297l-7.5-3.6 36.4 4 2 2.2" />
      <path fill="#951017" d="M563.6 375.2L559 349l-21.7-39 11 3.2" />
      <path fill="#7e8a84" d="M472.6 96.2l2-24.3h5.3l-1 14" />
      <path fill="#fff" d="M199.4 307l75 6.3 84 1.6-48.6-5" />
      <path fill="#6be04c" d="M926.4 441.7l-16.4-89 13.2 1-22 43.2" />
      <path fill="#fff" d="M1021.3 23.2L970.7 334l-25.4-92.5 109.7 109" />
      <path fill="#728ac6" d="M764.4 157.3l22.8-6 39-43-17.3 48.3" />
      <path fill="#85827d" d="M242.5 37.5L261 20.3l-24-2 12.5 13" />
      <path fill="#9c9c9c" d="M755 453.6l14.3 7-24.8-53 20.6 18.2" />
      <path fill="#fffefe" d="M522 282.6l-61.7-77L331.6 86l200.2 242" />
      <path fill="#fff" d="M407.8 308.4l-70 1.3 76.7 8.6 12.7-6.3" />
      <path fill="#94917e" d="M85 322.2l106 4.8 29.4-3-67.5-1.2" />
      <path fill="#ab96ac" d="M593.8 418.5l25-42.3-27 50.4L653 412" />
      <path fill="#fd99d1" d="M179 293.4l4.6 15.7-50 1 4.4-17" />
      <path fill="#808981" d="M244.2 349.4l14.2-9-18.3 3.2 45 18.4" />
      <path fill="#3c4dfb" d="M928.8 354.2l-.3-8-15.3-27.8-8-6.2" />
      <path fill="#fff" d="M345.7 162l-33 .8L369 274.4l66-103.7" />
      <path fill="#f6625e" d="M872 166l-21.3-6.4 9.3-2.4 23 4" />
      <path fill="#bee4de" d="M535.2 368l-18.7-48 45.6 59-45-11.4" />
      <path fill="#6d656b" d="M342.7 293.4v2l-4.8 11 2 45" />
      <path fill="#c4c4a4" d="M622.4 468.6L577 460l-40.3 35.5 41-26" />
      <path fill="#434d49" d="M520 248.5l-30.7-5 33.6 1 13-11.5" />
      <path fill="#e2dfea" d="M527.2 209.2L555 207l-46-45.3 38-7.8" />
      <path fill="#fbeefc" d="M587 348.2l-22.8 7.5-9-52-14.6-.6" />
      <path fill="#a3d3ea" d="M116.4 154.2l35.5 24-6-20L86 140" />
      <path fill="#fff" d="M139.2 118.7L-31 53.4l79.8 149.2-24-91.6" />
      <path fill="#5e67b5" d="M966 346.7l-17.4-39.2 24.7 34.8-33 37.4" />
      <path fill="#415fae" d="M883.3 100.8l2-18.8 44-1-28.3 7" />
      <path fill="#b0dbf0" d="M83.8 157l28 97-17 55.3-2.3-107" />
      <path fill="#6980bd" d="M745 131l27.8 96.2 4.5-7.8L775 132" />
      <path fill="#9f9baf" d="M530.8 60.4l22 10.8-4.3 67.3L544.2 32" />
      <path fill="#fff" d="M790.7-31L313.4-3.3l223 30 104-1" />
      <path fill="#d84c58" d="M831.6 109.4l65.4-2 30-5.7-18.8 11" />
      <path fill="#fff" d="M463.2 286l-83-38 154.8-7.6-70-6.7" />
      <path fill="#efe4e2" d="M800 218.3l-8.2-62 11.5 86.5-31-1" />
      <path fill="#98968a" d="M678.2 272l2-25.2 7.8-4.3 5 21.5" />
      <path fill="#e7e2eb" d="M862 120.2h-19.7l-9.5.8 68 28.3" />
      <path fill="#fff" d="M543.8 32l8.6 35 22.7 6.7-5-42.4" />
      <path fill="#ea595b" d="M761.7 107.8l1.8-11.4 4 2.8 25.6 2.6" />
      <path fill="#f9adac" d="M185.5 80l36.5-6-9.5 41-19.6-2.6" />
      <path fill="#fff" d="M663.2 405l150.4-2.7 13.5 132-34-135.5" />
      <path fill="#a89da5" d="M739.7 43.6L728 50l4.6 40.7L742 53" />
      <path fill="#6472af" d="M695.5 188l.2-133.4 9 122-3 61.2" />
      <path fill="#ebcbd0" d="M490 165.4l35.4-9 144.2 3.5-67.6-11" />
      <path fill="#fff" d="M104 453.7l-135-164 144.5 187 16.8-30.5m370.8-308l-2-62.4-282 216 279-65m-133 74l-35-18.3 59-6.5 41.5-2.4" />
      <path fill="#f6e7e6" d="M563.3 107.7l34.3-37.5 49.3-54-97 85.8" />
      <path fill="#deccd9" d="M737 180.5l-59.2-53.3 10.8-28.8 8.3 34" />
      <path fill="#fcf6f1" d="M853.5 231.2l5.3 11.7 166.7-14-136.3 13" />
      <path fill="#fff" d="M40 281l3 175 27.5-159 129-7.8" />
      <path fill="#e4e7eb" d="M892.4 215l63.6 1 15.8-85.5-61 101" />
      <path fill="#9a9a9a" d="M994.8 123.4l.7-22.3-17-25-1.3 18" />
      <path fill="#306e1e" d="M874.5 403.8l8 10.3 21.5 21 1.7-13" />
      <path fill="#1c3963" d="M885.6 363.6l31.7 7.6-29.5-14.5-8.2 3.7" />
      <path fill="#766974" d="M330.3 266l-31 21.2-1.2-12.4 28 6.4" />
      <path fill="#fff" d="M43 182.8l57 83.6-28.4.3L-31 252m927.2-5l-114.8.2 123.5 3h125M948-31l95.5 87.6-227.2 9.8 102 2.7" />
      <path fill="#d8d6e4" d="M663.7 219.2l28.5-17.2-31-24.7 8.5-47" />
      <path fill="#127870" d="M523.4 359.2l1 8.2 6.4-1.8 2.3-11.2" />
      <path fill="#66615c" d="M237.2 83.8l-8.8-33.3-1.7 19L235 78" />
      <path fill="#adb2b1" d="M508 400l-10.5 13 41.2-8-24-1.5" />
      <path fill="#fff" d="M709.7 407.4l83-101.6-125.8-44 8-11" />
      <path fill="#fff7f2" d="M871.3 391l-16.8-16.5 19.8 5.4-.3 25" />
      <path fill="#cecc88" d="M130 419.3l-6.6 18.4-29.2 11 38.3.2" />
      <path fill="#fff" d="M177.4 504l-1-85.7-93 124.7 82.7-97.2" />
      <path fill="#fbfaf6" d="M332 93.7l-30.5 8-8-42-63 5.3" />
      <path fill="#6a81b4" d="M330.8 114.6l-18-16.5-3 19 21.2-12" />
      <path fill="#796364" d="M528 326.6l-6-11.2 38 34.6-19 5" />
      <path fill="#e64d4b" d="M541.5 153l-28.5-2.5-1.5 6 22.2.6" />
      <path fill="#b4acc5" d="M827.8 108l-27-55 19-11.3L803.3 223" />
      <path fill="#fd7872" d="M504.3 176.4l-2.7-23.3-2.5 15 3 43" />
      <path fill="#abb6ca" d="M277.4 94.7l67-21.3L307 97l-33.7-36.5" />
      <path fill="#f5e7e9" d="M645 174l-.5 9.8-5 26L626 166" />
      <path fill="#37b911" d="M689.4 419.6L679 398.4l-26-26 33.7 22.5" />
      <path fill="#fff" d="M208.6 215.8l18.2 17.6-3.6-125.6 134 90.5" />
      <path fill="#e2282e" d="M553.5 301.7l4.5 6.4 27.5 3-8.7-5" />
      <path fill="#f0dcdf" d="M773.5 202.7l-36-4.8 58.5 14 10.6-31" />
      <path fill="#a1a4d2" d="M1001.5 316l11.4-15.4-32 6.3v6" />
      <path fill="#7588b6" d="M449.8 76.4l-12.4 23.4 19-19-8.7-7.8" />
      <path fill="#fff" d="M82.5 413.3L21.5 543-31 395.7l173.4 6.4" />
      <path fill="#484848" d="M430.8 274.3l-6.2 6.7 8.2 11-7-22.2" />
      <path fill="#f6fef6" d="M663 414.4l10.6-25.4-31.5-1.2 26 28.2" />
      <path fill="#4ca839" d="M957 393.4l-31-15.7-25.3-21.7 26.4-5.7" />
      <path fill="#5e6aa6" d="M889 137.5l-9.7-3L897 119l-5.3 128.7" />
      <path fill="#fff" d="M228.6 61L175 63.6 3.4-12l169.4 89m530.7-41l39.2-3.5 8.7.8-51 37.3" />
      <path fill="#fd615e" d="M668.5 184.4l21.4-3.6 7 .8-27-5.3" />
      <path fill="#fff" d="M741 68.6l3-99.6 5.2 93.5L864.8 64" />
      <path fill="#ecc8cd" d="M942 81.3L859.6 74l-101.2-.3 39.2 6" />
      <path fill="#ff8ad5" d="M260.7 292l-21 4.2 13 18 5-7.4" />
      <path fill="#fff" d="M978 442.6L823.6 543l114.7-120.5L909 428" />
      <path fill="#5965a5" d="M650.8 228.3l-67 1 76 8.4 20.4-20.8" />
      <path fill="#e2dea2" d="M110.7 308.6l-8 136L95 412l-1-88.4" />
      <path fill="#fff" d="M409.4 54l-182-17.4 246-57-52.2 115.7" />
      <path fill="#9c9e2e" d="M586 441.5l-8.3 30.3L588 450l-27-19" />
      <path fill="#cfc95a" d="M126.6 318l3.7 38.4-11-8 13.4-35" />
      <path fill="#e56263" d="M793.6 182.4l-1.8-24.3.6 52-8 9" />
      <path fill="#6476b4" d="M656.6 124l27.2-21.7-4.5 15.3 7.5 7" />
      <path fill="#fff" d="M311 82.3l-.6 29-23-42.5 18.8 4" />
      <path fill="#9e9d9a" d="M215.4 63.8l-10-7.6-51.5-7.5 2 7.3" />
      <path fill="#98983a" d="M551.6 491l.5-23-10 26-1-1.5" />
      <path fill="#fbc4bf" d="M645.5 101.4L591 117.8l34 1.8 13.8-47" />
      <path fill="#b6abb0" d="M649.3 49l13.2 39-7.2-1 12-42" />
      <path fill="#77666c" d="M255.3 352.4l1.7-63.7-2.8 46-9.3 6.6" />
      <path fill="#b87024" d="M575.7 352.3L581 399l8.8-49-14.7 11.7" />
      <path fill="#fff" d="M982.8 320.5l72.2-10.3L931.2 534 957 384" />
      <path fill="#4247ad" d="M616.8 368.8l2.7-3.4-16.7-5.8-16.8 1.7" />
      <path fill="#d0cd7b" d="M99.4 484.7l26-14.2 1.8 15.3L89 475" />
      <path fill="#8c5290" d="M608.5 414l-16-5.4 16-4 13.4 21.2" />
      <path fill="#925c51" d="M858 367.7l3-23 15.7 1-13 8.2" />
      <path fill="#7b89c3" d="M596.8 84.8l-11-10 44.5-2-29.5 14.5" />
      <path fill="#fff" d="M262 344l51-12.6-89.3-.7 22.7 2" />
      <path fill="#94a3cf" d="M815.7 205l35.6 9.2 36.3 2.5-88 12.8" />
      <path fill="#c291a7" d="M736.6 133l29 14.4-40.3-4.6 8.8 81" />
      <path fill="#f9ffff" d="M677 235.7l-13 3 131.3 1.3-151.4 1" />
      <path fill="#607dbc" d="M655.5 109.5l-9.8-36.7-.3 54-.2-3.8" />
      <path fill="#8a9dbe" d="M472 85l-41 9.6-29.5-16-13 12.7" />
      <path fill="#fff" d="M134.7 126l6.4-44.3 1 78.6 97 20.4m236-57.4l-93-8.3-58 13.6-20-15.6" />
      <path fill="#fefffe" d="M431.3 295L218 117l84.6-4-81 19.2" />
      <path fill="#edf2ef" d="M853.3 436l42.4-72-29 45 17 41" />
      <path fill="#7f7d80" d="M858.5 245.3L864 264l37.7-13.6-43 17" />
      <path fill="#fff" d="M534.6 283.2l-271-48L549.4 252l-12 74" />
      <path fill="#969c56" d="M527 448.2l14-27.6-8 28.2 22.6 37.6" />
      <path fill="#da2229" d="M509.8 81l.6-12 34.5.3-34 4.8" />
      <path fill="#9fafcd" d="M263.8 43.4l4.3 20L232 53l-1.2-7.5" />
      <path fill="#86b88e" d="M316.4 267l86.2 8.4-69 1 14-13" />
      <path fill="#ebedf5" d="M519.6 80.5L591 90.7l28.7-2-98.2-15" />
      <path fill="#f19c9a" d="M826.7 210l-41.4-1.6 42-18-16-14.6" />
      <path fill="#d5dbec" d="M636.2 204l-45.6 8-7-13.3 20 23.5" />
      <path fill="#595959" d="M805.4 394l1.3 9.8-8.3-3.6-20-3.4" />
      <path fill="#6879b5" d="M781.2 92l49 12.3-104.7-39 22.7 43" />
      <path fill="#308519" d="M941 427.7l-35 10 33-5-3.3 1.6" />
      <path fill="#fefffe" d="M378.7 275l6.8 31.4 20.5-46.6 20.8 38.3" />
      <path fill="#9c2222" d="M866 333.7L849.4 308l9-2.8.3-1.5" />
      <path fill="#fff" d="M822.6 226.7l-4.2 24.7 14.2 57.3L877 287M543 428l-139.5-87.3-291 202.3L452 514.6M53.4 266l97 1.6L97 305l110-55.8" />
      <path fill="#7b7b7b" d="M141.6 238.7l15.2 16.6-.4-.4 4.6-15" />
      <path fill="#f4c0bf" d="M852.5 119.7l82.2 16.7-33-18.6-85 11" />
      <path fill="#6c79bd" d="M917.2 223.3l2.6-13.6 9.2 14.6-31 10.8" />
      <path fill="#ed8d90" d="M152.5 60.3l9.6 35L140 60l5.3 25.4" />
      <path fill="#f6f5f8" d="M533.2 171.2l-156.7-2.8 154.4 9 41-57" />
      <path fill="#9c9c9c" d="M922.4 20l7 7-2.3 12.4-17-12.8" />
      <path fill="#848484" d="M158.2 289.2l32.8-6.8-25-6.2-8.7 2.3" />
      <path fill="#fefef8" d="M410 509.3l139.8-27-16.8-26.7-11.7 49.3" />
      <path fill="#151916" d="M751.3 246.7l121.5.2-97.5-3H670" />
      <path fill="#eff1dd" d="M589 452.5L546.3 430l38.3 47.2-43.3-17.6" />
      <path fill="#fff" d="M363.5 313.7l-60.3 202 43.4-188.3 27.8 2.6" />
      <path fill="#555b6a" d="M390.3 101.4l-15.6 23.4-5 12L388 111" />
      <path fill="#636873" d="M307.2 72.4l-5.5-1.7-29.4-27.3 36 23.7" />
      <path fill="#f9f3fa" d="M636.8 398.2l-43 39.6 43-51.3-23 6.8" />
      <path fill="#fff" d="M469 221L366.7 100.3l4 16L514 124" />
      <path fill="#6c7894" d="M395.3 52.5L408 93l-12.6-4.7L409.2 56" />
      <path fill="#fff" d="M729.3 391l-25.5-143 184.4 67-59-82.6" />
      <path fill="#f6fcf9" d="M232 91l-103 2.6 79.6 6.4L321 46" />
      <path fill="#fff" d="M1008.6 543L893 431l40.7 12.4L802.5 543" />
      <path fill="#fcfffb" d="M653.8 371.2l91.8 50.2 11 103-80.6-159" />
      <path fill="#de8b69" d="M225 237.2l-31.6-8.3 18.6 9 3.7-20" />
      <path fill="#fff" d="M108.5 224.8l8.3-134.6-.5 84.2 26.2-23.2m313.2-76.4l26.2-7.5L496 13 384 74m241-7.8l-53.6.5L641 32.4 552.6 31" />
      <path fill="#d7939f" d="M545.7 113l55 50.8-43.3-26.5-11.2 5.3" />
      <path fill="#fff" d="M118 329.6l-145 13 153.5-6.4L286 363.5" />
      <path fill="#fff" d="M78.2 385.6l68.3-1.7L-31 360l24.3-213M554 282l-156.4 44 22.7-23.2 27.4 60.3" />
      <path fill="#f2e2e4" d="M587.3 122l4 31-29-35.2-15.7 33.8" />
      <path fill="#fff" d="M292 266l5.7 81-13.2-55-73.2-16.3M899 25l-119 2.3 95-56 48.3 72" />
      <path fill="#949796" d="M181.3 234.6l26-2.3-24-12-5 1.6" />
      <path fill="#99bc93" d="M689.6 368.4l-28-16.2L665 372l22.8-3.8" />
      <path fill="#fefffe" d="M251.6 328.4L100 543l19-268-2 218" />
      <path fill="#fff" d="M537.3 318.7l-29 30.6L300.7 371l136.6 3.2" />
      <path fill="#fdfcf8" d="M446.3 256.8l205.2-6.5 26 2.4 6.6-6" />
      <path fill="#fff" d="M222.2 303.4L371.6 314l-127.2.3-32.8 57.5" />
      <path fill="#d3c7d7" d="M902 158.4l-109 .8 101.8-7 60 37.8" />
      <path fill="#fffffd" d="M223 62.3L255.3-5l-56 81.2-14.7 22.6" />
      <path fill="#fff" d="M729 468.3l105.6-46.7 16 64 5.3-22" />
      <path fill="#8680b2" d="M659 154l-16 1 16.8-20.3-68.3 13" />
      <path fill="#6071af" d="M776.8 171.4l-34.7-25-6-40V176" />
      <path fill="#9e9e9e" d="M579.6 29l5.2 2.4-71-5.8-35 6" />
      <path fill="#fff" d="M840.2 368l6.8 33.5 2.8 13.6-25 1" />
      <path fill="#6b82c1" d="M654.7 184.8l-17-22.4 29.7 13.8-16 14.2" />
      <path fill="#9ecba5" d="M369.7 310.4l73.3-13 20.6 7.4-87.2-14.3" />
      <path fill="#7d93c0" d="M382 84.5l-63.4 8L396 89l-14-18" />
      <path fill="#929392" d="M980 209.7h8l5-19-17.6-27.8" />
      <path fill="#f8faf9" d="M928.7 153L903 137.3l64.8 19L993.5-8" />
      <path fill="#cb6f80" d="M849 240.3L803.5 222l-1.6-.3 11 10.3" />
      <path fill="#d4d6e6" d="M779.6 161.3l-36 54.5 16.4-39 72.4-1.6" />
      <path fill="#edebf0" d="M789.2 71.5l12.4 26.7-24.7 2.5 3-.8" />
      <path fill="#a2d1aa" d="M293.7 285.8l-32.4 23 66.5-2-25.4-27" />
      <path fill="#986819" d="M579.5 371.7l12.5.5-21.7 37 5.7-12.5" />
      <path fill="#455152" d="M214.8 259l2-19.5 1.6 71.6-2.2-10" />
      <path fill="#e96c72" d="M143.5 127.4L155 118l-2.3 13.7-11.3-22.4" />
      <path fill="#8890ba" d="M956 297.4l-17.6 10-20 28.5 29.6-35" />
      <path fill="#b8c07f" d="M845.3 420.7l26.4 36-2-9.7-31.6-7" />
      <path fill="#fff" d="M432.7 274.2l-44.3 20.3-62.4-17-2.6 22.2" />
      <path fill="#fffaf9" d="M553.4 313l21.4-5.5-4.3 8.3-23.4-13" />
      <path fill="#b9f8aa" d="M701.6 390.2v34.4l-17.8-33L693 402" />
      <path fill="#afafae" d="M640.6 26l-2 1-134.8 3 146.8 1.6" />
      <path fill="#fbfdfb" d="M315.4 251.3l-92-24L308 271l3 78.7" />
      <path fill="#9eae8c" d="M875.8 413.2l21.5-38 12.5 3-65 52.6" />
      <path fill="#6f7cb7" d="M607.3 172.2l-61 8.7 34.3 1 19.4-46" />
      <path fill="#fff" d="M142 49.2L136.3 154l83 45-92.8-86.4" />
      <path fill="#34858b" d="M565.5 364.7l-28.2 3.6-5-3 42.7-5" />
      <path fill="#3a9d11" d="M914.7 382.2L936 371l-22.4-5.6-18.7 3.4" />
      <path fill="#fff" d="M697 287.5l-9.4-40.2-51.4.2 234.8 2.2" />
    </g>
  </g>
</svg>