<svg version="1.1" viewBox="0 0 1024 512" width="1024" height="512" xmlns="http://www.w3.org/2000/svg">
  <g fill-opacity=".5">
    <path fill="#969493" d="M83.3 273.3l-6-6.8-37 10-3-14.4" />
    <path fill="#7d7e7a" d="M925 297l-7.5-3.6 36.4 4 2 2.2" />
    <path fill="#951017" d="M563.6 375.2L559 349l-21.7-39 11 3.2" />
    <path fill="#7e8a84" d="M472.6 96.2l2-24.3h5.3l-1 14" />
    <path fill="#fff" d="M199.4 307l75 6.3 84 1.6-48.6-5" />
    <path fill="#6be04c" d="M926.4 441.7l-16.4-89 13.2 1-22 43.2" />
    <path fill="#fff" d="M1021.3 23.2L970.7 334l-25.4-92.5 109.7 109" />
    <path fill="#728ac6" d="M764.4 157.3l22.8-6 39-43-17.3 48.3" />
    <path fill="#85827d" d="M242.5 37.5L261 20.3l-24-2 12.5 13" />
    <path fill="#9c9c9c" d="M755 453.6l14.3 7-24.8-53 20.6 18.2" />
    <path fill="#fffefe" d="M522 282.6l-61.7-77L331.6 86l200.2 242" />
    <path fill="#fff" d="M407.8 308.4l-70 1.3 76.7 8.6 12.7-6.3" />
    <path fill="#94917e" d="M85 322.2l106 4.8 29.4-3-67.5-1.2" />
    <path fill="#ab96ac" d="M593.8 418.5l25-42.3-27 50.4L653 412" />
    <path fill="#fd99d1" d="M179 293.4l4.6 15.7-50 1 4.4-17" />
    <path fill="#808981" d="M244.2 349.4l14.2-9-18.3 3.2 45 18.4" />
    <path fill="#3c4dfb" d="M928.8 354.2l-.3-8-15.3-27.8-8-6.2" />
    <path fill="#fff" d="M345.7 162l-33 .8L369 274.4l66-103.7" />
    <path fill="#f6625e" d="M872 166l-21.3-6.4 9.3-2.4 23 4" />
    <path fill="#bee4de" d="M535.2 368l-18.7-48 45.6 59-45-11.4" />
    <path fill="#6d656b" d="M342.7 293.4v2l-4.8 11 2 45" />
    <path fill="#c4c4a4" d="M622.4 468.6L577 460l-40.3 35.5 41-26" />
    <path fill="#434d49" d="M520 248.5l-30.7-5 33.6 1 13-11.5" />
    <path fill="#e2dfea" d="M527.2 209.2L555 207l-46-45.3 38-7.8" />
    <path fill="#fbeefc" d="M587 348.2l-22.8 7.5-9-52-14.6-.6" />
    <path fill="#a3d3ea" d="M116.4 154.2l35.5 24-6-20L86 140" />
    <path fill="#fff" d="M139.2 118.7L-31 53.4l79.8 149.2-24-91.6" />
    <path fill="#5e67b5" d="M966 346.7l-17.4-39.2 24.7 34.8-33 37.4" />
    <path fill="#415fae" d="M883.3 100.8l2-18.8 44-1-28.3 7" />
    <path fill="#b0dbf0" d="M83.8 157l28 97-17 55.3-2.3-107" />
    <path fill="#6980bd" d="M745 131l27.8 96.2 4.5-7.8L775 132" />
    <path fill="#9f9baf" d="M530.8 60.4l22 10.8-4.3 67.3L544.2 32" />
    <path fill="#fff" d="M790.7-31L313.4-3.3l223 30 104-1" />
    <path fill="#d84c58" d="M831.6 109.4l65.4-2 30-5.7-18.8 11" />
    <path fill="#fff" d="M463.2 286l-83-38 154.8-7.6-70-6.7" />
    <path fill="#efe4e2" d="M800 218.3l-8.2-62 11.5 86.5-31-1" />
    <path fill="#98968a" d="M678.2 272l2-25.2 7.8-4.3 5 21.5" />
    <path fill="#e7e2eb" d="M862 120.2h-19.7l-9.5.8 68 28.3" />
    <path fill="#fff" d="M543.8 32l8.6 35 22.7 6.7-5-42.4" />
    <path fill="#ea595b" d="M761.7 107.8l1.8-11.4 4 2.8 25.6 2.6" />
    <path fill="#f9adac" d="M185.5 80l36.5-6-9.5 41-19.6-2.6" />
    <path fill="#fff" d="M663.2 405l150.4-2.7 13.5 132-34-135.5" />
    <path fill="#a89da5" d="M739.7 43.6L728 50l4.6 40.7L742 53" />
    <path fill="#6472af" d="M695.5 188l.2-133.4 9 122-3 61.2" />
    <path fill="#ebcbd0" d="M490 165.4l35.4-9 144.2 3.5-67.6-11" />
    <path fill="#fff" d="M104 453.7l-135-164 144.5 187 16.8-30.5m370.8-308l-2-62.4-282 216 279-65m-133 74l-35-18.3 59-6.5 41.5-2.4" />
    <path fill="#f6e7e6" d="M563.3 107.7l34.3-37.5 49.3-54-97 85.8" />
    <path fill="#deccd9" d="M737 180.5l-59.2-53.3 10.8-28.8 8.3 34" />
    <path fill="#fcf6f1" d="M853.5 231.2l5.3 11.7 166.7-14-136.3 13" />
    <path fill="#fff" d="M40 281l3 175 27.5-159 129-7.8" />
    <path fill="#e4e7eb" d="M892.4 215l63.6 1 15.8-85.5-61 101" />
    <path fill="#9a9a9a" d="M994.8 123.4l.7-22.3-17-25-1.3 18" />
    <path fill="#306e1e" d="M874.5 403.8l8 10.3 21.5 21 1.7-13" />
    <path fill="#1c3963" d="M885.6 363.6l31.7 7.6-29.5-14.5-8.2 3.7" />
    <path fill="#766974" d="M330.3 266l-31 21.2-1.2-12.4 28 6.4" />
    <path fill="#fff" d="M43 182.8l57 83.6-28.4.3L-31 252m927.2-5l-114.8.2 123.5 3h125M948-31l95.5 87.6-227.2 9.8 102 2.7" />
    <path fill="#d8d6e4" d="M663.7 219.2l28.5-17.2-31-24.7 8.5-47" />
    <path fill="#127870" d="M523.4 359.2l1 8.2 6.4-1.8 2.3-11.2" />
    <path fill="#66615c" d="M237.2 83.8l-8.8-33.3-1.7 19L235 78" />
    <path fill="#adb2b1" d="M508 400l-10.5 13 41.2-8-24-1.5" />
    <path fill="#fff" d="M709.7 407.4l83-101.6-125.8-44 8-11" />
    <path fill="#fff7f2" d="M871.3 391l-16.8-16.5 19.8 5.4-.3 25" />
    <path fill="#cecc88" d="M130 419.3l-6.6 18.4-29.2 11 38.3.2" />
    <path fill="#fff" d="M177.4 504l-1-85.7-93 124.7 82.7-97.2" />
    <path fill="#fbfaf6" d="M332 93.7l-30.5 8-8-42-63 5.3" />
    <path fill="#6a81b4" d="M330.8 114.6l-18-16.5-3 19 21.2-12" />
    <path fill="#796364" d="M528 326.6l-6-11.2 38 34.6-19 5" />
    <path fill="#e64d4b" d="M541.5 153l-28.5-2.5-1.5 6 22.2.6" />
    <path fill="#b4acc5" d="M827.8 108l-27-55 19-11.3L803.3 223" />
    <path fill="#fd7872" d="M504.3 176.4l-2.7-23.3-2.5 15 3 43" />
    <path fill="#abb6ca" d="M277.4 94.7l67-21.3L307 97l-33.7-36.5" />
    <path fill="#f5e7e9" d="M645 174l-.5 9.8-5 26L626 166" />
    <path fill="#37b911" d="M689.4 419.6L679 398.4l-26-26 33.7 22.5" />
    <path fill="#fff" d="M208.6 215.8l18.2 17.6-3.6-125.6 134 90.5" />
    <path fill="#e2282e" d="M553.5 301.7l4.5 6.4 27.5 3-8.7-5" />
    <path fill="#f0dcdf" d="M773.5 202.7l-36-4.8 58.5 14 10.6-31" />
    <path fill="#a1a4d2" d="M1001.5 316l11.4-15.4-32 6.3v6" />
    <path fill="#7588b6" d="M449.8 76.4l-12.4 23.4 19-19-8.7-7.8" />
    <path fill="#fff" d="M82.5 413.3L21.5 543-31 395.7l173.4 6.4" />
    <path fill="#484848" d="M430.8 274.3l-6.2 6.7 8.2 11-7-22.2" />
    <path fill="#f6fef6" d="M663 414.4l10.6-25.4-31.5-1.2 26 28.2" />
    <path fill="#4ca839" d="M957 393.4l-31-15.7-25.3-21.7 26.4-5.7" />
    <path fill="#5e6aa6" d="M889 137.5l-9.7-3L897 119l-5.3 128.7" />
    <path fill="#fff" d="M228.6 61L175 63.6 3.4-12l169.4 89m530.7-41l39.2-3.5 8.7.8-51 37.3" />
    <path fill="#fd615e" d="M668.5 184.4l21.4-3.6 7 .8-27-5.3" />
    <path fill="#fff" d="M741 68.6l3-99.6 5.2 93.5L864.8 64" />
    <path fill="#ecc8cd" d="M942 81.3L859.6 74l-101.2-.3 39.2 6" />
    <path fill="#ff8ad5" d="M260.7 292l-21 4.2 13 18 5-7.4" />
    <path fill="#fff" d="M978 442.6L823.6 543l114.7-120.5L909 428" />
    <path fill="#5965a5" d="M650.8 228.3l-67 1 76 8.4 20.4-20.8" />
    <path fill="#e2dea2" d="M110.7 308.6l-8 136L95 412l-1-88.4" />
    <path fill="#fff" d="M409.4 54l-182-17.4 246-57-52.2 115.7" />
    <path fill="#9c9e2e" d="M586 441.5l-8.3 30.3L588 450l-27-19" />
    <path fill="#cfc95a" d="M126.6 318l3.7 38.4-11-8 13.4-35" />
    <path fill="#e56263" d="M793.6 182.4l-1.8-24.3.6 52-8 9" />
    <path fill="#6476b4" d="M656.6 124l27.2-21.7-4.5 15.3 7.5 7" />
    <path fill="#fff" d="M311 82.3l-.6 29-23-42.5 18.8 4" />
    <path fill="#9e9d9a" d="M215.4 63.8l-10-7.6-51.5-7.5 2 7.3" />
    <path fill="#98983a" d="M551.6 491l.5-23-10 26-1-1.5" />
    <path fill="#fbc4bf" d="M645.5 101.4L591 117.8l34 1.8 13.8-47" />
    <path fill="#b6abb0" d="M649.3 49l13.2 39-7.2-1 12-42" />
    <path fill="#77666c" d="M255.3 352.4l1.7-63.7-2.8 46-9.3 6.6" />
    <path fill="#b87024" d="M575.7 352.3L581 399l8.8-49-14.7 11.7" />
    <path fill="#fff" d="M982.8 320.5l72.2-10.3L931.2 534 957 384" />
    <path fill="#4247ad" d="M616.8 368.8l2.7-3.4-16.7-5.8-16.8 1.7" />
    <path fill="#d0cd7b" d="M99.4 484.7l26-14.2 1.8 15.3L89 475" />
    <path fill="#8c5290" d="M608.5 414l-16-5.4 16-4 13.4 21.2" />
    <path fill="#925c51" d="M858 367.7l3-23 15.7 1-13 8.2" />
    <path fill="#7b89c3" d="M596.8 84.8l-11-10 44.5-2-29.5 14.5" />
    <path fill="#fff" d="M262 344l51-12.6-89.3-.7 22.7 2" />
    <path fill="#94a3cf" d="M815.7 205l35.6 9.2 36.3 2.5-88 12.8" />
    <path fill="#c291a7" d="M736.6 133l29 14.4-40.3-4.6 8.8 81" />
    <path fill="#f9ffff" d="M677 235.7l-13 3 131.3 1.3-151.4 1" />
    <path fill="#607dbc" d="M655.5 109.5l-9.8-36.7-.3 54-.2-3.8" />
    <path fill="#8a9dbe" d="M472 85l-41 9.6-29.5-16-13 12.7" />
    <path fill="#fff" d="M134.7 126l6.4-44.3 1 78.6 97 20.4m236-57.4l-93-8.3-58 13.6-20-15.6" />
    <path fill="#fefffe" d="M431.3 295L218 117l84.6-4-81 19.2" />
    <path fill="#edf2ef" d="M853.3 436l42.4-72-29 45 17 41" />
    <path fill="#7f7d80" d="M858.5 245.3L864 264l37.7-13.6-43 17" />
    <path fill="#fff" d="M534.6 283.2l-271-48L549.4 252l-12 74" />
    <path fill="#969c56" d="M527 448.2l14-27.6-8 28.2 22.6 37.6" />
    <path fill="#da2229" d="M509.8 81l.6-12 34.5.3-34 4.8" />
    <path fill="#9fafcd" d="M263.8 43.4l4.3 20L232 53l-1.2-7.5" />
    <path fill="#86b88e" d="M316.4 267l86.2 8.4-69 1 14-13" />
    <path fill="#ebedf5" d="M519.6 80.5L591 90.7l28.7-2-98.2-15" />
    <path fill="#f19c9a" d="M826.7 210l-41.4-1.6 42-18-16-14.6" />
    <path fill="#d5dbec" d="M636.2 204l-45.6 8-7-13.3 20 23.5" />
    <path fill="#595959" d="M805.4 394l1.3 9.8-8.3-3.6-20-3.4" />
    <path fill="#6879b5" d="M781.2 92l49 12.3-104.7-39 22.7 43" />
    <path fill="#308519" d="M941 427.7l-35 10 33-5-3.3 1.6" />
    <path fill="#fefffe" d="M378.7 275l6.8 31.4 20.5-46.6 20.8 38.3" />
    <path fill="#9c2222" d="M866 333.7L849.4 308l9-2.8.3-1.5" />
    <path fill="#fff" d="M822.6 226.7l-4.2 24.7 14.2 57.3L877 287M543 428l-139.5-87.3-291 202.3L452 514.6M53.4 266l97 1.6L97 305l110-55.8" />
    <path fill="#7b7b7b" d="M141.6 238.7l15.2 16.6-.4-.4 4.6-15" />
    <path fill="#f4c0bf" d="M852.5 119.7l82.2 16.7-33-18.6-85 11" />
    <path fill="#6c79bd" d="M917.2 223.3l2.6-13.6 9.2 14.6-31 10.8" />
    <path fill="#ed8d90" d="M152.5 60.3l9.6 35L140 60l5.3 25.4" />
    <path fill="#f6f5f8" d="M533.2 171.2l-156.7-2.8 154.4 9 41-57" />
    <path fill="#9c9c9c" d="M922.4 20l7 7-2.3 12.4-17-12.8" />
    <path fill="#848484" d="M158.2 289.2l32.8-6.8-25-6.2-8.7 2.3" />
    <path fill="#fefef8" d="M410 509.3l139.8-27-16.8-26.7-11.7 49.3" />
    <path fill="#151916" d="M751.3 246.7l121.5.2-97.5-3H670" />
    <path fill="#eff1dd" d="M589 452.5L546.3 430l38.3 47.2-43.3-17.6" />
    <path fill="#fff" d="M363.5 313.7l-60.3 202 43.4-188.3 27.8 2.6" />
    <path fill="#555b6a" d="M390.3 101.4l-15.6 23.4-5 12L388 111" />
    <path fill="#636873" d="M307.2 72.4l-5.5-1.7-29.4-27.3 36 23.7" />
    <path fill="#f9f3fa" d="M636.8 398.2l-43 39.6 43-51.3-23 6.8" />
    <path fill="#fff" d="M469 221L366.7 100.3l4 16L514 124" />
    <path fill="#6c7894" d="M395.3 52.5L408 93l-12.6-4.7L409.2 56" />
    <path fill="#fff" d="M729.3 391l-25.5-143 184.4 67-59-82.6" />
    <path fill="#f6fcf9" d="M232 91l-103 2.6 79.6 6.4L321 46" />
    <path fill="#fff" d="M1008.6 543L893 431l40.7 12.4L802.5 543" />
    <path fill="#fcfffb" d="M653.8 371.2l91.8 50.2 11 103-80.6-159" />
    <path fill="#de8b69" d="M225 237.2l-31.6-8.3 18.6 9 3.7-20" />
    <path fill="#fff" d="M108.5 224.8l8.3-134.6-.5 84.2 26.2-23.2m313.2-76.4l26.2-7.5L496 13 384 74m241-7.8l-53.6.5L641 32.4 552.6 31" />
    <path fill="#d7939f" d="M545.7 113l55 50.8-43.3-26.5-11.2 5.3" />
    <path fill="#fff" d="M118 329.6l-145 13 153.5-6.4L286 363.5" />
    <path fill="#fff" d="M78.2 385.6l68.3-1.7L-31 360l24.3-213M554 282l-156.4 44 22.7-23.2 27.4 60.3" />
    <path fill="#f2e2e4" d="M587.3 122l4 31-29-35.2-15.7 33.8" />
    <path fill="#fff" d="M292 266l5.7 81-13.2-55-73.2-16.3M899 25l-119 2.3 95-56 48.3 72" />
    <path fill="#949796" d="M181.3 234.6l26-2.3-24-12-5 1.6" />
    <path fill="#99bc93" d="M689.6 368.4l-28-16.2L665 372l22.8-3.8" />
    <path fill="#fefffe" d="M251.6 328.4L100 543l19-268-2 218" />
    <path fill="#fff" d="M537.3 318.7l-29 30.6L300.7 371l136.6 3.2" />
    <path fill="#fdfcf8" d="M446.3 256.8l205.2-6.5 26 2.4 6.6-6" />
    <path fill="#fff" d="M222.2 303.4L371.6 314l-127.2.3-32.8 57.5" />
    <path fill="#d3c7d7" d="M902 158.4l-109 .8 101.8-7 60 37.8" />
    <path fill="#fffffd" d="M223 62.3L255.3-5l-56 81.2-14.7 22.6" />
    <path fill="#fff" d="M729 468.3l105.6-46.7 16 64 5.3-22" />
    <path fill="#8680b2" d="M659 154l-16 1 16.8-20.3-68.3 13" />
    <path fill="#6071af" d="M776.8 171.4l-34.7-25-6-40V176" />
    <path fill="#9e9e9e" d="M579.6 29l5.2 2.4-71-5.8-35 6" />
    <path fill="#fff" d="M840.2 368l6.8 33.5 2.8 13.6-25 1" />
    <path fill="#6b82c1" d="M654.7 184.8l-17-22.4 29.7 13.8-16 14.2" />
    <path fill="#9ecba5" d="M369.7 310.4l73.3-13 20.6 7.4-87.2-14.3" />
    <path fill="#7d93c0" d="M382 84.5l-63.4 8L396 89l-14-18" />
    <path fill="#929392" d="M980 209.7h8l5-19-17.6-27.8" />
    <path fill="#f8faf9" d="M928.7 153L903 137.3l64.8 19L993.5-8" />
    <path fill="#cb6f80" d="M849 240.3L803.5 222l-1.6-.3 11 10.3" />
    <path fill="#d4d6e6" d="M779.6 161.3l-36 54.5 16.4-39 72.4-1.6" />
    <path fill="#edebf0" d="M789.2 71.5l12.4 26.7-24.7 2.5 3-.8" />
    <path fill="#a2d1aa" d="M293.7 285.8l-32.4 23 66.5-2-25.4-27" />
    <path fill="#986819" d="M579.5 371.7l12.5.5-21.7 37 5.7-12.5" />
    <path fill="#455152" d="M214.8 259l2-19.5 1.6 71.6-2.2-10" />
    <path fill="#e96c72" d="M143.5 127.4L155 118l-2.3 13.7-11.3-22.4" />
    <path fill="#8890ba" d="M956 297.4l-17.6 10-20 28.5 29.6-35" />
    <path fill="#b8c07f" d="M845.3 420.7l26.4 36-2-9.7-31.6-7" />
    <path fill="#fff" d="M432.7 274.2l-44.3 20.3-62.4-17-2.6 22.2" />
    <path fill="#fffaf9" d="M553.4 313l21.4-5.5-4.3 8.3-23.4-13" />
    <path fill="#b9f8aa" d="M701.6 390.2v34.4l-17.8-33L693 402" />
    <path fill="#afafae" d="M640.6 26l-2 1-134.8 3 146.8 1.6" />
    <path fill="#fbfdfb" d="M315.4 251.3l-92-24L308 271l3 78.7" />
    <path fill="#9eae8c" d="M875.8 413.2l21.5-38 12.5 3-65 52.6" />
    <path fill="#6f7cb7" d="M607.3 172.2l-61 8.7 34.3 1 19.4-46" />
    <path fill="#fff" d="M142 49.2L136.3 154l83 45-92.8-86.4" />
    <path fill="#34858b" d="M565.5 364.7l-28.2 3.6-5-3 42.7-5" />
    <path fill="#3a9d11" d="M914.7 382.2L936 371l-22.4-5.6-18.7 3.4" />
    <path fill="#fff" d="M697 287.5l-9.4-40.2-51.4.2 234.8 2.2" />
  </g>
</svg>