<svg version="1.1" viewBox="0 0 1024 512" width="1024" height="512" xmlns="http://www.w3.org/2000/svg">
  <g fill-opacity=".5">
    <path fill="#745e96" d="M934 65.5l-18.8 183-422-2.5 49-178.7" />
    <path fill="#237719" d="M954 422.7l-52 21.7-56-76 85.5-37" />
    <path fill="#917466" d="M616.7 355.3l-34-57.4-58.4-1 11 177" />
    <path fill="#72cf5c" d="M688.8 429.5l-72-6.6 24-54 62.5 5" />
    <path fill="#fff" d="M-31 262L.3 543l973-29.2L528 390.5" />
    <path fill="#ac98bb" d="M849.4 394.8l-30-63.6L832 301l187.8 13" />
    <path fill="#fff" d="M500.3 278.8L312 256.2 108 459.8 499.5-31" />
    <path fill="#c7cc6e" d="M597.4 451.8L533 516.5l-8.6-77 50.2-35.4" />
    <path fill="#fff" d="M1019-10l-70.3 442-409.4 70 515.7 41" />
    <path fill="#b6d7b9" d="M243 292.7L386.5 251l29.2 96.6L249 362" />
    <path fill="#fff" d="M645 339l182 100.6-5-193-352.6 5.3M-20.6 0L-31 92.8l5.6 281L224.8-20.6" />
    <path fill="#fff" d="M200.4-31L320 76.3l161.4-48L1055 11.7" />
    <path fill="#b7becc" d="M279.2 51.2l124.6 36.3-53.7 90.2L136 51" />
    <path fill="#e3c0ca" d="M533 198.3L463 67.6l146.6-1.3 70 16" />
    <path fill="#5b66a8" d="M911.2 249.8l-78-113 7.3 100.4 64.6-150" />
    <path d="M795.4 246.6l-140 1-168-4.6 252.4.4" />
    <path fill="#69a44a" d="M939 347.8l23.3 72.7-57-71L827 543" />
    <path fill="#fff" d="M502.8 543L528 248.7l-104.6 80.7-312.8 118.4" />
    <path fill="#898a88" d="M741.5 421.2l45.3 17.7-54-46 79.7 3" />
    <path fill="#b62f1f" d="M571 431.6L585 329l-61-16.2 78 8" />
    <path fill="#fff" d="M8 140l204-21.6 297.5 113.4L241.8 282" />
    <path fill="#616260" d="M989 141.7l4.7 62.7-10 8-6-57.8" />
    <path fill="#4d4c4a" d="M263.2 228l33.8-11.8-54.5 2.2-10 .3" />
    <path fill="#dddcae" d="M132.5 449.5L214 480l-154 2.6 75.8-188.2" />
    <path fill="#626fb0" d="M782.4 73.3l-1 84.4-43 84.2L734 70" />
    <path fill="#ffd5d3" d="M778.8 151.3l50 8.3L840.5 269 777 202.3" />
    <path fill="#fff" d="M988.2 208.7L826.6 302l228.4-20-50-313" />
    <path fill="#777876" d="M734 36l-83.2-2 8.7-11.3 53.8-2.2" />
    <path fill="#a20712" d="M550.8 314.6l14.8 44L521 319l8 20.3" />
    <path fill="#f0bebe" d="M43 121.8l77 12.4 155.4-34.6-156.7-43.4" />
    <path fill="#7a7973" d="M353.4 150l52 10-87.5 3-21-7.3" />
    <path fill="#fff" d="M978.7 178.4l-5.4-80 81.7-94L871-31" />
    <path fill="#b79687" d="M216.3 365l-6-178L219 80l3 178.2" />
    <path fill="#747d6f" d="M932 240.5l-179 3.7 102.4 6.2-1.3 24" />
    <path fill="#5bbfc5" d="M538 385.5l-31-53 74 25.4-57.3 62" />
    <path fill="#8196bc" d="M453.6 92.7L337.3 88l99.4-15.7 45.5 18" />
    <path fill="#fff" d="M736.2 397l-247 125.4L767 543l-20.3-138.7m124-160.3l-21 59-153.2 106 30-152" />
    <path fill="#6370c4" d="M964 352.7l-22-58.2 25.6 21.5 28-17" />
    <path fill="#dbc8a7" d="M839.6 434.2l9.3-117.6 39-33.5-9 215" />
    <path fill="#c1749f" d="M261.3 299.7l-25.8 3.8-87.7 3.7-10.8-15.5" />
    <path fill="#8e8e81" d="M69.6 385.3l1.3 1 46 9.7-120-.3" />
    <path fill="#6f6f6d" d="M39.2 182.8l-20.4-8 58.3.6L54 187" />
    <path fill="#92938b" d="M118.2 323.4l101.7-3v8.6l-95-3.7" />
    <path fill="#6c7ba8" d="M577.8 182.8l123 80.5-45 6.7L608 144" />
    <path fill="#fff" d="M-14 50.4v-62l274.3 8.3-39.2 59M836 429l37 114-111.8-62.8 17-87.6" />
    <path fill="#8f0205" d="M850.7 303l-.8-5 19 25.7-1 24.6" />
    <path fill="#fff" d="M562.5 358.5l-3.8-34 317.2 89L700 255" />
    <path fill="#36ac1d" d="M918.7 347.7l12 37.3 8 66.7 7.8-85" />
    <path fill="#ddbfba" d="M933.5 243.2l-103.4-.8 83-39 30-131" />
    <path fill="#8a8b89" d="M981 187l-3.8-108.3 17.3 22.5-3.6 39.3" />
    <path fill="#255a1c" d="M878.5 399l16-30.4 4.5 51.8-11 1" />
    <path fill="#fff" d="M935.5 383.5l-5.2 2L922 410l-8-33.3" />
    <path fill="#7381e3" d="M585 366.5l17-48.2 15 55.3-13.7 5.3" />
    <path fill="#2d45c8" d="M905 378.6L881 357l55.4-7-21.5-25.5" />
    <path fill="#7b7b79" d="M430.3 276l-.6 81.7-5.8-91.3-17 5.4" />
    <path fill="#788487" d="M68 265l-27.8 5-5 4 82.4 3.3" />
    <path fill="#5c5c5b" d="M172.6 229.3l3 .6 18.8-16 4.8 17" />
    <path fill="#9faba1" d="M319.5 392.2l-1-6-27.5-43 50.7 3.6" />
    <path fill="#fff" d="M888.7 221.2l-24-40L786 382.8l-99.6-92.3" />
    <path fill="#42bc1e" d="M689.2 429.7l-11.8-52-31.8-2 54 35.2" />
    <path fill="#d4daef" d="M779 115.8l57-17.3 2.6-25h-62" />
    <path fill="#000800" d="M641 244.5l-162.7-1.2 35 1.6 30.5 2" />
    <path fill="#c7a2b4" d="M497 127.2l53.8-95-45 175-4 40.2" />
    <path fill="#de2141" d="M547.4 295.2l39.8 27 1 19.8 13-27" />
    <path fill="#483c45" d="M321.5 289.7l7-27-12.3 8.8 7.4 25.3" />
    <path fill="#6e6f6d" d="M159.7 288.3l33.8-.6 4.7-11.3-35.8 3.6" />
    <path fill="#fe908c" d="M666.4 212l54.6 11-217.6-3 65.4-11" />
    <path fill="#fff" d="M935 440.8l-139.7 87L1055 543V258.4" />
    <path fill="#e33e42" d="M601 69.7l-36.4 3-54-6.8-3.6 8" />
    <path fill="#8e8e9d" d="M204.8 467l10.2 15.3-82.8-12 55-1" />
    <path fill="#a558a6" d="M574.3 394.2L597 403l30.4 3-6 20.3" />
    <path fill="#fff" d="M537 299.7L491.7 316 340 199l326 94m-314.7 0l-25 31.3-2-51 113 10" />
    <path fill="#d9db99" d="M131.3 407.6l-9-106-26.8 117.7-2.3-137" />
    <path fill="#4f65af" d="M695 203.4l23.3 10.2-3-50-30.3-6.2" />
    <path fill="#fff" d="M499.4 38.5l51.3-5.2L334.2 201l164.2 104.3" />
    <path fill="#fcfffb" d="M648 396.5l19.2 30.4 9.3-65 6.8 23" />
    <path fill="#fdfffd" d="M568.6 436.3l439.6 96.8-464.5-129 36.7-42" />
    <path fill="#aba5a4" d="M70 82.3L99 124l-52 .5 75-31.3" />
    <path fill="#fff" d="M201 114.4L-5.8 116l163.6-35-5 101.6" />
    <path fill="#8992a1" d="M234 17l83.7 56.6-69.3-19L262 17.8" />
    <path fill="#8a8cbc" d="M651.7 126.4L620 86l-72.5 42.2-57-11.2" />
    <path fill="#fff" d="M1002.4 196.3l-122.2 86.4 68.2 65.6-28.5-11" />
    <path fill="#cbeefa" d="M83.2 139.8l-3 53.7 19 141.5L154 144.5" />
    <path fill="#fff" d="M312.3 330l25 39L68 349.2l241 82.5" />
    <path fill="#d0c0d1" d="M744.7 106l-127-32.3 9 161.3 66-194.2" />
    <path fill="#5f6aac" d="M598 238.2l145.4-1.8-99-14.8L519 237.4" />
    <path fill="#feffff" d="M57.6 266l151-138.2L119 293.5l311-94.8" />
    <path fill="#828281" d="M816 396l-37-2-14.5 35.6-29-16" />
    <path fill="#fff" d="M515.3 531.6l5-263.2-291.4 185-90 89.6M196 3.2l238.8 62.5-13 66.5 65-138.4" />
    <path fill="#6e6f6d" d="M377.6 56.7l27.8-3 5.4 7.2-16.4 7" />
    <path fill="#fff" d="M741-31h-23.8l23.4 89 261.7 14.8" />
    <path fill="#56524a" d="M289.6 119.3l3.6 21 2.7-8-1-36.7" />
    <path fill="#4561ad" d="M645.5 101.4H743l-25.6 5 27.4 17" />
    <path fill="#676969" d="M99.3 227.5l-31-3L82 211l4.4 6.3" />
    <path fill="#fff" d="M380 121l-168.6 33.2 88 74L303 110" />
    <path fill="#d5c7d5" d="M838 115.7l108 5.5-12.6 28.8-76.7-10" />
    <path fill="#fff" d="M117 442l-148 52.3 26.8-128.7 206.4 170.7m643.3-100.5l209.5 3.6L954.8 543l-71.2-131.3" />
    <path fill="#314b37" d="M257.5 344.2l-10.2 2.6.3-35 5 29.5" />
    <path fill="#a1a757" d="M825 466.5l36.6-1.2 55.5-44.8-54 54.7" />
    <path fill="#d33d48" d="M558.3 344.5l-15.5-50.7-36 38.2 33-16" />
    <path fill="#41413b" d="M231.3 79.4v-28l-7.2 26 6 19.8" />
    <path fill="#767d8b" d="M382 127.6l9.3-38-23.8 42 4.2 2.3" />
    <path fill="#283337" d="M209 125.5l1.8-1.4 6 24 2.7-16" />
    <path fill="#c77369" d="M830.8 338.7L875 348l-18 22.7-36.3-70.6" />
    <path fill="#a5a758" d="M549.2 496.5l21-21-45.7-39 26 52.5" />
    <path fill="#9b9c9a" d="M921.2 33.8l-81-5.8 88.4-4.8 5.3 13.3" />
    <path fill="#5868ab" d="M875.2 170.8l50.8-36.4-25 87-20-1" />
    <path fill="#fff" d="M568.6 264.2l59.6 123-38.8 6 228-116" />
    <path fill="#67d24c" d="M664.6 425l-1 14.4-42.5-83.2 49 75.4" />
    <path fill="#e4c3cc" d="M717 140.8l-234.3-2.3L740.2 118l-21 108.8" />
    <path fill="#fff" d="M-31 395l120.2-20.6 5.5-98.2-125.5 2.5m261.5-198l-89.4-107 128.5 67-112.5 32" />
    <path fill="#4c9a3c" d="M704 372l-2 7.8-27.5-18.6 18 3.8" />
    <path fill="#a1a1a0" d="M497.3 34.5l-4.2-3 107-1-115-9" />
    <path fill="#fc6c6b" d="M908.7 103.7l12 9.4-141-1 104.3-5" />
    <path fill="#fff" d="M-8.3-1.2l189.7.3L58.8 101-8 248.8" />
    <path fill="#7e7f7d" d="M157.8 238.3l2.6 14.7-24.4-4.4 3-6.2" />
    <path fill="#fff" d="M11.7 515.3l-42.7-355 132.5 81.4L39.2 269" />
    <path fill="#1e771b" d="M934.6 349.5L881 383l21.3-10.5 17.6 7.2" />
    <path fill="#bebf43" d="M581.6 388.3L572 421l22 38.4-42-31" />
    <path fill="#fff" d="M684 427l-8.7-30.7-2.4 73.4 97-73.4" />
    <path fill="#1d47a1" d="M909.5 67l18 4.4L780.3 73l55.7-3" />
    <path fill="#81c68c" d="M410.7 276.7l-62.2.2-17-9 73-6" />
    <path fill="#524f48" d="M199 61.5l8-5.2-27-3-4.6 7" />
    <path fill="#fff" d="M386.8-.5L258.3-31 310 74l75 3" />
    <path fill="#fbcf46" d="M943.5 159.8l-36.8-.7 27.3 14 19.3-3" />
    <path fill="#f9bebd" d="M656.6 139l15.6 6.7L677 253l-19-51.4" />
    <path fill="#85ca90" d="M403.4 296.6l13.3-9.2 1.6 23.4-79.2-11.4" />
    <path fill="#4a4a55" d="M60.2 476l.8-13.5 14.4-1-2.2 8.5" />
  </g>
</svg>