<svg version="1.1" viewBox="0 0 1024 512" width="1024" height="512" xmlns="http://www.w3.org/2000/svg">
  <g fill-opacity=".5">
    <path fill="#6a1100" d="M456 284l308.7 1.2-23.2-16-324.2 1.7" />
    <path fill="#7f3900" d="M582.6 43.5L759 31l-374.6-4L356 41.3" />
    <path fill="#d54300" d="M376.4 435.6l48 2.6-7.4 37-43 2" />
    <path fill="#beb59e" d="M513.8 210l515.8-135-374.4 40-386.3 3.5" />
    <path fill="#5f448a" d="M513.5 404l35.2 16.8 80-13.6-105 60.5" />
    <path fill="#b4b29b" d="M95-31l39 42.7 12.3 195-62.3 179" />
    <path fill="#69726b" d="M788.8 388.6l-106-5 102.7 99-113-66" />
    <path fill="#957324" d="M139.7 372.7L242 301l-72.7 104 86-63" />
    <path fill="#0060ae" d="M362.3 477.2l-22.6-41-27.3 2.5 2.3 35.4" />
    <path fill="#83631f" d="M899.2 90.4L767 88.7l211.6 34-74.6 11.7" />
    <path fill="#9d6e2e" d="M511.8 117.5l-77.3-31 58 50.6 79.8-13" />
    <path fill="#5bbd96" d="M514.8 294.6l155.5 2L489.6 257l180.8 3" />
    <path fill="#88826f" d="M819.6 411.6l221.5 17.6-207-3.8-48 53.8" />
    <path fill="#a1924c" d="M95.3 493l-47.6-22.8 7.5-87-19 41.6" />
    <path fill="#8b8a8f" d="M317.3 392.3l90-34-106-7.2L419 397" />
    <path fill="#fff" d="M520.6 259.5l109-13.4-88.4-87L72.7 347" />
    <path fill="#fff" d="M541.2 67.8l78.2 86.8L1055 255.8l-459.6 3.4" />
    <path fill="#a95c29" d="M719 440l33.5 10.5 64 15.2-69.8 1.8" />
    <path fill="#9b9c74" d="M600.3 420.7l24-29.5-94.5-22.7 199.5 105.2" />
    <path fill="#87867c" d="M587.8 161.5l175.7-41.7-181-.7L754 158" />
    <path fill="#a77421" d="M538 110l20 75.6 69.8.4-60.2-15.6" />
    <path fill="#fff" d="M421.8 136.5l37.5-37 26 38-34 47.8" />
    <path fill="#7f700e" d="M587.2 39l48.2-10.8 121 16.4-123.8-5.3" />
    <path fill="#8f836a" d="M421.5 160.8l-178-7.3L427 144l14.6 53.5" />
    <path fill="#fff" d="M572 462.5l483 33.7L362.3 543l108.2-133.8" />
    <path fill="#9e9ea3" d="M893.5 372.3l100.4 28-65-3.7H791" />
    <path fill="#817460" d="M1026.5 99L827 102l-95.2-1.4 7-11.3" />
    <path fill="#fff" d="M857.4 387.2l-485.8-33.7L689 286l363.3-18.4" />
    <path fill="#fff" d="M591 12l373.5 80.6 38.8 233.8L1055-31" />
    <path fill="#4b7795" d="M682 401.3l118.7-8.7-165-12.2 12.6-14.7" />
    <path fill="#858777" d="M116.2 363l11.7-97.4 7 96 59 25" />
    <path fill="#89733a" d="M122.3 160.7l10.6 18-4-177.5-9 118.5" />
    <path fill="#fff" d="M339.4 240.5L310 427.2 129.6 144.4l89-175.4" />
    <path fill="#9c8f55" d="M359.3 128.3l69.3 5L439.3 91l46.3 9.6" />
    <path fill="#fff" d="M9 542.4L89 222l61-24.7-181-125" />
    <path fill="#848675" d="M95.8 16.8l8 170.6-7 68.5-8.4-55" />
    <path fill="#aed75a" d="M60.8 331.4l19 21.5-65.2-15 8.6-16" />
    <path fill="#fff" d="M612 111l290-8.4 39 14.2-69.8 3.4m-535.6 13.4l361.7 15 254-16L641 130" />
    <path fill="#e37801" d="M389 466.8l40 12.6-12-50.2-35 14.6" />
    <path fill="#575b60" d="M788 125.4l69.5-7.4 3 12.5-66.5-1" />
    <path fill="#9c6c12" d="M193.6 335.3l43.8-17.5-71 51.8-22.5 4" />
    <path fill="#fff" d="M836 53L376 42l86.5 49.2 37.6 33.3" />
    <path fill="#934e08" d="M525 40.3l77.7.2-64-13.4-164 16" />
    <path fill="#7a8280" d="M192.3 443.6l5.6-19.2-8-29.4-14 79.5" />
    <path fill="#73672b" d="M481.5 145.3l2.3 14 68.7-1.5-4.4-10" />
    <path fill="#475887" d="M553 451.8l-36.6-68.6 7.5 60 69-27.5" />
    <path fill="#b1da5d" d="M634 476.5l-53-5.6 5.2-23 45 11" />
    <path fill="#bbde75" d="M656 204.2l32.6 13.7 40.2-3-38.8-28" />
    <path fill="#8f998e" d="M107 350.7l-9.2 20-51.2 29L60.4 376" />
    <path fill="#935e11" d="M424.2 282.8l156.4 1.2-16.6-14.3-163.5 5" />
    <path fill="#fff" d="M466 284.4l87.7 25.7L456 543l-56.3-252.8" />
    <path fill="#876000" d="M677.6 421.4l-17.8 26.2-10.7-3V435" />
    <path fill="#fff" d="M-31 510.4L649.2 543l-213.7-70-237.6 4" />
    <path fill="#ab8a12" d="M165.5 206.5l-45.8-34.7 3-19 15.6 15" />
    <path fill="#934904" d="M689.2 272.3l-29.2 8.5 67 3.7 66.8-10" />
    <path fill="#fff" d="M30.6 402.5l270.8 90 33.3-262.2L205 411.6" />
    <path fill="#b782bb" d="M542.8 451.5L486 497l43.2-7-45.7-38.2" />
    <path fill="#7c663f" d="M605.4 131l-.7-15 28.5 2.5 136.4 10.2" />
    <path fill="#939892" d="M177 476l26.5-63.6-32.8 47.6-50 36.4" />
    <path fill="#a9d74c" d="M21.7 114.3l45.5 8.7 6-17.7-52-6.6" />
    <path fill="#fff" d="M916 237l82.6 269.8 26.2 36.2 30.2-420.8M137-31h189l-71 325-98.4-49.6" />
    <path fill="#b5dd66" d="M550 202l3.7 19.8-53.4-9.4 4-19" />
    <path fill="#b27e02" d="M441.3 180l-13.5-2.5-16.3-28.8 20.2-3" />
    <path fill="#afafb3" d="M833.5 198.7l32-94.8-13 76-110.3-44" />
    <path fill="#30c199" d="M519.6 290l142.8-.2-119.2 9-57.4-10" />
    <path fill="#918873" d="M691 377.8l-33.8-2-35 25.5-54.7-9.8" />
    <path fill="#fff" d="M318.2 114.7l162-26.7L308 12.7 21.5-31" />
    <path fill="#fcfdff" d="M101.8 252l2.6 159.7 19-54-3.6-210.4" />
    <path fill="#fff" d="M84-31l3.6 162.5H139L-31 73m795.8 384.8L696.3 425 625 462l145-27" />
    <path fill="#8c8d86" d="M746 66.4l-5 70.8-6.5-70.4L714 29" />
    <path fill="#877c24" d="M95 67.8L84.6 30.4 111 8 94.2 44" />
    <path fill="#9b7c00" d="M552.4 135.8l10.3-15.3-25.6-6-22 9" />
    <path fill="#bbdd73" d="M814.8 24.2l32.3 2.2L857 46l-32.4 4" />
    <path fill="#c1e47c" d="M367 218l33-15.2-84-8.8 11.3 20.8" />
    <path fill="#659fbf" d="M368.3 438.7l-74-14.4 51.3-16.5-37.5 68.6" />
    <path fill="#bae16d" d="M834.3 467l48 5-13-22.6-43 1.6" />
    <path fill="#b6de65" d="M195 285.6l-36.4-16.8 36.7-9 9.4 30.7" />
    <path fill="#fff" d="M780.8 278.5L340.4 358 120.6 219.2l793 178.3" />
    <path fill="#5e624a" d="M236.4 324.5L251 358l-2-18-3.3-23.6" />
    <path fill="#9b7d0f" d="M671.3 43l-69-1 66-13.5 34.3 6.4" />
    <path fill="#feffff" d="M104 33l-1.5 314.7 20.2-322-32.4-3.3" />
    <path fill="#fff" d="M1019 192l36 163.5-227 16-124.7-180" />
    <path fill="#b3df5d" d="M730.2 463.4L705.6 452l-33.8.4 38.2 25" />
    <path fill="#bee275" d="M977 174.4l-3.8 18-50.6-.5 6.4-22" />
    <path fill="#8c9387" d="M93.6 337l8.7 51.7L99.6 207 90 309" />
    <path fill="#868992" d="M319 160l39.2-3.4-64.5-14.7.8 16" />
    <path fill="#fff" d="M986.7 481l-178-21.8-337 83.8 583.3-33.3M431.6 30.3L683.8-4-2 2.4l325.6 24m32.4 133l-226.2 1 314 51.5-26.4-54" />
    <path fill="#a89f66" d="M127.8 346.3l43.4 36 26.6-7-11.8 34" />
    <path fill="#fff" d="M578.6-31L561 154.6l17.8 25.2 28.6-36.7M181.2 365l30.5-26.8-23.4 189 132-146.3" />
    <path fill="#b4a45f" d="M36 436.7L98 482l-37.5-4.3L45.7 409" />
    <path fill="#8b92a9" d="M609.4 404L532 375.3 514.6 434l32.8-66.5" />
    <path fill="#9f7749" d="M880 103.8L985.8 90l-34.7.4-121-3" />
    <path fill="#fff" d="M617 253.8l-89-.6 99.2-95 77.7 1.6" />
    <path fill="#a1691f" d="M130.2 131.6l18.6-3.4L119.2 91l13.2 34.2" />
    <path fill="#8e8541" d="M601.4 187.3l-28.2 3.5 47.4-45.8-15 7.7" />
    <path fill="#8a8993" d="M421.5 445l-21-33 10.8 5.7 25.3-5" />
    <path fill="#fff" d="M167 114L12.5 124.3l120.7 8.7 3-88.7M88 369.5L163 543 40.5 424.4l132.3-51" />
    <path fill="#986539" d="M723 429.7l50.8 43 38.4-18.6-82 4" />
    <path fill="#94969f" d="M951.7 429.2l-91-3 17.3-11 96 .7" />
    <path fill="#c2e57d" d="M953 474.4l15.3-11.2-49.6-15.5-21.8 11.8" />
    <path fill="#9a9986" d="M282.5 128.7l61.7-16L373.7 90l-30 41.4" />
    <path fill="#fff" d="M762-31l18.4 242.6L787.6 92 678 2.6" />
    <path fill="#a4a2a4" d="M344.4 395l77.4-2-12.6-11.2-105-4" />
    <path fill="#36c28b" d="M647 254.5l15.5 40.2-28.6-1.3 36-16.5" />
    <path fill="#8b8a70" d="M971.7 129.3l12-.8L921 132l48.2-18.6" />
    <path fill="#fcfdfe" d="M939.8 413.8l-322.7-.4-85-14.6 204 .7" />
    <path fill="#fff" d="M362.5 128.8l-15.3-19-.8 27.3 12 97" />
    <path fill="#96450a" d="M564.8 193l-1.2-4.7-16.7-39.6 31 32.3" />
    <path fill="#98989a" d="M854.4 399.7L812 377l6.3 25.7L915 361" />
    <path fill="#fff" d="M487 164.4l-3.7 27.8 85.5 8.5-27.6-44M34.2 246l55.5-83 2 143-1.7 92.3M334 47.7l373-2 34.2 66-156 7" />
    <path fill="#b2ab7d" d="M461 181l58.6-43.8-64.4 63-27.6-27.6" />
    <path fill="#908142" d="M77.8 260l24.3-6.3v-58.3l-17 78.2" />
    <path fill="#9c9b9d" d="M410.6 369l1.7-11.6-16.2-4L287 364" />
    <path fill="#fff" d="M458.6 193.5l-30-74.5 39.4-1.7 18.2 25" />
    <path fill="#b64e2f" d="M487.7 138.2L469 111.7l-10-25.4 24.7 24" />
    <path fill="#2eb97d" d="M518.2 296.4l-8-40.4-7.2 35.2 8 .4" />
    <path fill="#9a9d99" d="M124 406.8l-1.7-87.2L124 189l9.4 99" />
    <path fill="#b49a3c" d="M859 422l-20-6.7 1.8-21-16.4 36" />
    <path fill="#667a72" d="M142 20.4l-23 25 12.6 63.5-2.3-60" />
    <path fill="#fff" d="M344.2 267l-172.8 21.5-39.7-93.6 5 160M589 295l2.8 105-87.3-111.7-21.2 7.8" />
    <path fill="#837f5b" d="M773.4 75.3l14.4 9.7-5 3-22 14.5" />
    <path fill="#9f987c" d="M734 442.5l-27.5-19.7-85 18 105.6-33" />
    <path fill="#a78f30" d="M360.3 26.7L372 44.2l5.3-2 106.4-10.5" />
    <path fill="#fff" d="M-31 543L1 254.2l42 203.3 25.2 22m112.2-215.2l-89.6 9.3 4-14.2L397.6 222M1055 94.2L897.3-31 816.5 96l33.7-10.4m17.4 57.2l-93.2 281.7L954 270.2 891.5 96.6m-221.6 8l-233 16 7 72.2 62-122.5" />
    <path fill="#fff" d="M784.3 126.8L903 222.6l-150-90L657 331" />
    <path fill="#ffcb0e" d="M370 474l26-2.3 12.7-29.2-27.8-3" />
    <path fill="#eef2ed" d="M518 265l47.4 7.2 97.8-5.7-19.8-1.7" />
    <path fill="#fff" d="M910.3 385.4L870 385l3.7 39.5 41.8-19.2" />
  </g>
</svg>