<svg version="1.1" viewBox="0 0 1024 512" width="1024" height="512" xmlns="http://www.w3.org/2000/svg">
  <g fill-opacity=".5">
    <path fill="#ffeeb6" d="M776 145l47-20 70-28-147-12z" />
    <path d="M682 181l5 29 33 11-24-20z" />
    <path fill="#fff1aa" d="M576 142l56 64 62 16-114 89z" />
    <path fill="#fcffff" d="M297 69l239 48-141-6-16-6z" />
    <path fill="#fff" d="M723 534l-21-124-182 39 8 94z" />
    <path fill="#be9b0e" d="M626 195l1 13 29-4 10-13z" />
    <path fill="#ffffc3" d="M608 132l21-1 9 26-30 3z" />
    <path fill="#d0e9ff" d="M791 257l-3 98-6-108-2 30z" />
    <path fill="#5dd700" d="M258 30v15l24 25h-32z" />
    <path fill="#fffab8" d="M797 220l24-51 19 2-55 11z" />
    <path fill="#fff" d="M612 82l2-29 269 2 45 33zm430 330l-206 4 70-96 134-217z" />
    <path fill="#c6af64" d="M418 78l-32-5-15 15 50-1z" />
    <path fill="#d9f1ff" d="M289 428l8 33 185-117-105 3z" />
    <path d="M750 222l44-50-14-11-7 49z" />
    <path fill="#7c9bcf" d="M315 354l-51 22 49-31 158-4z" />
    <path fill="#738ba0" d="M359 283l-151 8 15 4-36-19z" />
    <path fill="#ffe596" d="M16 66l20-27 39 64-55 19z" />
    <path fill="#cae4ff" d="M829 243h45l9-15-88 4z" />
    <path d="M852 170l21-33 5-1 1 18zm-176-19l39-26 18-4 21 6z" />
    <path fill="#fff" d="M638 395l-85 9 57-53 81-9z" />
    <path d="M840 125l-12 23-77-9 23 9z" />
    <path fill="#d4e7ff" d="M787 377l-1-71-7 98 46 54z" />
    <path fill="#799ab4" d="M106 452l-90 40-3-63 7 45z" />
    <path fill="#dcedff" d="M845 254l-47 6 4 27 60 3z" />
    <path fill="#93d403" d="M251 217l-4-16 34-4h35z" />
    <path fill="#ffeba3" d="M864 187l36 57v-75l1-82z" />
    <path fill="#ff460e" d="M560 344l-30 23 52-5v24z" />
    <path fill="#fff" d="M1051 175l-57 368-80-237-17-123zm-831 90l162 15 153 82 39-96z" />
    <path fill="#838487" d="M224 131h56l55 15-115-3z" />
    <path fill="#ff4003" d="M796 342l3-11-7-126v122z" />
    <path fill="#cbe1ff" d="M764 403l-24 22 2 25 34-22z" />
    <path fill="#fff" d="M225 416l-138 1 124-53L88 469zm397-304L273 213l6-27 33 73z" />
    <path fill="#d0c55f" d="M292 401l-19 39-116 21 96-12z" />
    <path fill="#6eabdf" d="M277 362l-9 25-84 56 49-24z" />
    <path fill="#ff855c" d="M675 420l-2-1-89-17 104-1z" />
    <path fill="#ffe273" d="M184 137l38 3-23-23 114-36z" />
    <path fill="#c3c7c8" d="M887 52l-128 1 88-22 58 2z" />
    <path fill="#ad9b85" d="M330 453l-22 7-127 21-18-2z" />
    <path fill="#85bae8" d="M148 437l-48 10-45 22 151-34z" />
    <path fill="#fff" d="M403 543l652-54-520-1-566 1z" />
    <path fill="#8293a1" d="M17 280l11-73-5 9-5-60z" />
    <path fill="#fee5ac" d="M856 134l-90 26-13-26-62 55z" />
    <path fill="#333711" d="M721 304l-12-15v-42l18 10z" />
    <path fill="#f64706" d="M691 311l2-113 5 80 1 69z" />
    <path fill="#b6b4bf" d="M771 333l-9 94-13-95 13-14z" />
    <path fill="#d1bb9d" d="M421 431l-17-39-52 40 45-15z" />
    <path d="M777 255l-10-3 2 43 13 4z" />
    <path fill="#fff0c1" d="M17 114l17-61 20 36 68 27z" />
    <path fill="#fff" d="M154 296l69-31-254 2 116 96z" />
    <path fill="#ff5b25" d="M766 344l46-2-20-6-119 4z" />
    <path fill="#ffffbe" d="M831 145l13-19 23 13-16 25z" />
    <path fill="#fff7bd" d="M556 170l121 11 18 81-38-71z" />
    <path fill="#f1e6e4" d="M789 239l11 1-43 4-1-24z" />
    <path d="M832 118l32 2 12 15 1 8z" />
    <path fill="#f9ffff" d="M226 447l53-26-244 53 140-19z" />
    <path fill="#8ae94f" d="M237 46l-22-13 25-12 8 12z" />
    <path fill="#fff3b7" d="M829 168l22 69 40-65-87 7z" />
    <path fill="#aba480" d="M655 151l32 19-28-5-38-12z" />
    <path fill="#6cd921" d="M332 36l-8-3H192l174-2z" />
    <path fill="#ffeea4" d="M695 313l-145-3 142-43 1 40z" />
    <path fill="#fff" d="M265 132l15 15 240 10-258 17z" />
    <path fill="#dec43b" d="M320 352l-19 10-56 15 68-12z" />
    <path fill="#fff" d="M6-31l-27 95 87-25 311-29zm281 248l3 89-13-35 220-153z" />
    <path fill="#020500" d="M813 163l18-9 28 15-11 7z" />
    <path fill="#ffabd9" d="M201 342l-91 65 75-34 158-32z" />
    <path fill="#54d800" d="M241 177l70 1h35l-32 2z" />
    <path fill="#55d608" d="M255 183l19 11-4 25-21-5z" />
    <path fill="#7fb6ed" d="M100 57l43-17 30 20-36-5z" />
    <path fill="#fff0b8" d="M772 168l-83-1 12 42 61 1z" />
    <path fill="#b68851" d="M839 211l-36-11 10-8 24 3z" />
    <path fill="#f5faff" d="M784 371l271 33-254-69 43-92z" />
    <path fill="#727273" d="M362 146l-45-5-62-5 112-2z" />
    <path d="M743 131l72 46-15-4-39-43z" />
    <path fill="#c4daf3" d="M819 365l26-17 63-1-3-123z" />
    <path fill="#ffedb4" d="M687 144l63-62-194 12 41 12z" />
    <path fill="#ff4b17" d="M584 367l-32 15v43l-6-13z" />
    <path fill="#f5c116" d="M127 424l9-12 11 1 27-4z" />
    <path fill="#fff" d="M515 87h108l89-109-415 92z" />
    <path fill="#bb9870" d="M373 446l16-47-32 59-21 4z" />
    <path fill="#fff" d="M1026-31l1 169H904L892-31z" />
    <path d="M597 158l7 14 30-17 25 22z" />
    <path fill="#fff" d="M382 431l326 112 1-127-100 2z" />
    <path fill="#928f8f" d="M885 427l-36 1 18-11 96-1z" />
    <path fill="#ad7c3a" d="M436 392l16-19-20 16-45 16z" />
    <path fill="#ffedb5" d="M726 114l136-27-42 46-38 4z" />
    <path fill="#7c7774" d="M279 274l106 16-34-1-33 4z" />
    <path fill="#000911" d="M890 245l-86 13 17-6-17-13z" />
    <path fill="#ff4100" d="M540 354l14-7-6 25-14-1z" />
    <path fill="#d8f2ff" d="M781 274l3-24 7 34-1 27z" />
    <path fill="#fff" d="M503 452l59-82-91 11-83 27zM86 120l-117 50 217 19 82-34zM40 44l28 47 253-26-98 50z" />
    <path fill="#2b3c49" d="M744 290l-7-80 2 122 26-14z" />
    <path fill="#eaf8fa" d="M738 315l-8 20-26 1 32-59z" />
    <path fill="#050000" d="M723 433l31-45-15-104 3 140z" />
    <path fill="#fdfaf6" d="M101 409l-60 33 78-15 162-84z" />
    <path fill="#fc3" d="M945 179l14-22 3 27 37-15z" />
    <path fill="#c5d9f0" d="M799 251l6-12 43 54 70-18z" />
    <path fill="#ffe069" d="M299 83l102 33-79-33-102 33z" />
    <path fill="#fff" d="M-31 333l260-41 4-23 20 68z" />
    <path fill="#fff3b2" d="M611 165l17-34-27 6v6z" />
    <path fill="#fff" d="M351 133l107-11-183-2-230 2z" />
    <path fill="#76de31" d="M208 178l49 2-20-6v-4z" />
    <path fill="#fff" d="M325 52l39 51 32-63-153-7z" />
    <path d="M652 136l54 22-70-16-25-28z" />
    <path fill="#000004" d="M774 462l15-54 6 34-8 12z" />
    <path fill="#b8daf6" d="M348 245l30 18-173-6 151-7z" />
    <path fill="#ffd347" d="M35 40l42 61-51-46-9 31z" />
    <path fill="#e0bf47" d="M392 113l-49 9-64-6 183 4z" />
    <path fill="#fff" d="M672 401l-121-4 43 19-15-91z" />
    <path d="M730 436l4 21 49 2-22 5z" />
    <path fill="#d0e4ff" d="M762 404l21 38-34 11-10-24z" />
    <path fill="#060b0b" d="M686 154l-10 22 30 41-22-44z" />
    <path fill="#c3dbf5" d="M765 475l76 18-2-88-42 44z" />
    <path fill="#ffd84e" d="M204 130l-12 18-2-27 24 23z" />
    <path fill="#fff" d="M640 309l-124 40 170-3 8-19z" />
    <path fill="#81b3d2" d="M135 468l61-17-215 37 107-22z" />
    <path fill="#8890ac" d="M69 60L52 39l1 20 13-28z" />
    <path fill="#ffc50e" d="M284 212l5-14 23 7-6-7z" />
    <path fill="#ff8258" d="M681 418l-22-8 21-17 2 7z" />
    <path fill="#fff" d="M1032 440l8 103H796l56-82z" />
    <path fill="#d3bfa4" d="M361 448l-11 31 32-5-39-16z" />
    <path fill="#ffecb3" d="M773 199l-81-43 30-22 54 25z" />
    <path fill="#b0cfe8" d="M369 393l-137 56 66-38 13 33z" />
    <path fill="#fff" d="M762 37l-16 44-7-112 234 53zM37 464l185-49-155 27-22 5z" />
    <path fill="#010000" d="M768 225v-21l26-47-11 41z" />
    <path fill="#fff" d="M832-31l189 191H873l181-18z" />
    <path fill="#ffeaab" d="M565 85l6 139 20-100 93-34z" />
    <path fill="#fdffff" d="M693 341l-11 48v34l44 1z" />
    <path fill="#ff490c" d="M665 377l-16 8 50-50-42 46z" />
    <path fill="#b7a37a" d="M436 390l4-5 52-42 18-4z" />
    <path fill="#fff4ad" d="M698 284l13 46-2-59-7-56z" />
    <path fill="#ff9ece" d="M53 416l-41 83 18-79 22-30z" />
    <path d="M773 158l55-27-48 12-30-14z" />
    <path fill="#fff" d="M303 217L21 201l139 59 442-66z" />
    <path fill="#cce2fa" d="M741 402l1-39-25-17-17 114z" />
    <path fill="#fff" d="M475 526l-329-43 72-3-234 30z" />
    <path fill="#504a4f" d="M178 486H85l-28 2 16-4z" />
    <path fill="#020400" d="M621 112l-32 38 10-29 58 21z" />
    <path fill="#fff" d="M277 175l257 6-259-37 11-25zM17 286l4 24-52 225L17 9z" />
    <path fill="#ffefb6" d="M601 110l82 26-41-3-14-33z" />
    <path fill="#809aab" d="M770 374l-17-28v47l1 26z" />
    <path fill="#615b29" d="M749 268l-43-14 46 24-37-2z" />
    <path fill="#ffebb2" d="M869 118l32 84 2-113-332 9z" />
    <path d="M694 157l-58-16 29-5 33 17z" />
    <path fill="#fffffc" d="M321 455l-185 18 190-39 152-103z" />
    <path fill="#fffdff" d="M187 367l84 13-70 11 124-46z" />
    <path fill="#ffc81a" d="M996 179l-3 3-3-21 11 4z" />
    <path fill="#fff" d="M1049 194l-148 42V41l11 135z" />
    <path fill="#f4ffff" d="M208 447l28-8 98-88-66 32z" />
    <path fill="#ffc81c" d="M119 107l24 10-40-13-17-21z" />
    <path fill="#ff591f" d="M779 225h-42l-49-7h116z" />
    <path fill="#ffedb0" d="M699 224l-40-45-66 30 40-41z" />
    <path fill="#b9981c" d="M685 263l-40-12-2 18 30-8z" />
    <path fill="#ff673b" d="M800 338l-85-2-27 4 22 6z" />
    <path fill="#88b7e3" d="M210 399l32 5 39-25-75 38z" />
    <path fill="#a1a4a5" d="M737 44l-12 2 12-23 11 40z" />
    <path fill="#919bb8" d="M399 107l-17-27-9 20 8-32z" />
    <path fill="#97c4eb" d="M179 377l41-3 10 8 3 5z" />
  </g>
</svg>