<svg version="1.1" viewBox="0 0 1024 512" width="1024" height="512" xmlns="http://www.w3.org/2000/svg">
  <g fill-opacity=".5">
    <path fill="#fff" d="M791 250l259 70-86-137-82 139" />
    <path fill="#515c5f" d="M219 245h-5l7 32h-12" />
    <path fill="#ece5ea" d="M560 75l-51 42 132-35-9 15" />
    <path fill="#99999a" d="M96 388l-74-3 10 11 48 3" />
    <path fill="#fbf7f4" d="M761 268l136 103-17 10-52-123" />
    <path fill="#53544d" d="M840 237l27 3-31 6 93 3" />
    <path fill="#837c83" d="M341 281l2 74-36-6h29" />
    <path fill="#fff" d="M260 337l91-9 72 7-129 11" />
    <path fill="#90d4cf" d="M817 374l6-25 31 24 1 28" />
    <path fill="#e6f2f8" d="M236 64l51-7 28 37-81 13" />
    <path fill="#f1979a" d="M124 69l42 6-14 41 48-3" />
    <path fill="#e4636a" d="M88 120l22-57 7 17-4-4" />
    <path fill="#679440" d="M950 426l-31 18-48-87 22 81" />
    <path fill="#fff" d="M654 47l131-8-252-10 107 42m-247 32l50 220 64-228-193-5" />
    <path fill="#b38190" d="M627 74l-28 12 24-50 6 102" />
    <path fill="#5e6267" d="M294 103l-13 13-9 19-14-3" />
    <path fill="#fff" d="M132 400l14 78 105-146-118-3" />
    <path fill="#4c63b1" d="M589 165l8 42h23l2-46" />
    <path fill="#807daa" d="M893 46l-17 8 37 29-28 61" />
    <path fill="#f3e4eb" d="M552 210l40-7-64-8-6 10" />
    <path fill="#fadddd" d="M885 240l-107 1 18-168-12 160" />
    <path fill="#a05e75" d="M851 317l50 1 7-18-35 27" />
    <path fill="#f15a59" d="M697 221l41-8-4-10-59 17" />
    <path fill="#fff" d="M1055 74l-37-105H913l33 117" />
    <path fill="#d74d57" d="M598 215l-13 25 4-30h-65" />
    <path fill="#4da2a8" d="M577 355l-14 32-48 20 17 7" />
    <path fill="#fff" d="M287 112l-59 96 242-50-167 9" />
    <path fill="#7383b8" d="M551 222l-49 26 66-70-23-30" />
    <path fill="#7a91be" d="M347 146l-51-9 11-4 52-3" />
    <path fill="#465da9" d="M646 83l-1 112v27l7-36" />
    <path fill="#fff" d="M542 493l326-93-343 143-468-53" />
    <path fill="#cc5f6c" d="M920 250l7-70-1-23-7 53" />
    <path fill="#fff" d="M268 292l208-101-246 46-14 57m84-150l-84-2 121 11 224-10" />
    <path fill="#7b79a7" d="M762 185l10 23 8-157-10-9" />
    <path fill="#7080b8" d="M848 8l-11 206-101 6 110 1" />
    <path fill="#5774b6" d="M733 114h243l-143 5" />
    <path fill="#fefffd" d="M886 453l-129-94 102 2-142-109" />
    <path fill="#fff" d="M-31 504l167-78-167-17 180 125" />
    <path fill="#fff" d="M116 426l380-72 42 29-50 160m474-138l-38 28 74-80 55 190" />
    <path fill="#edb9bc" d="M860 239l12-12V121l-12 37" />
    <path fill="#acacab" d="M478 286l-54-1 29-1 2 33" />
    <path fill="#ecf1f1" d="M908 99l38-48 27 28 12 33" />
    <path fill="#fb7069" d="M494 151l-1 5 104-2-84-3" />
    <path fill="#6e82b0" d="M958 327l-37 47 71-67 7 6" />
    <path fill="#dac3d1" d="M738 118l25 15v2l9-27" />
    <path fill="#6d9899" d="M572 368l8-2-112-8 54 9" />
    <path fill="#719077" d="M321 292l7 19-26-37-12 3" />
    <path fill="#ed7d81" d="M96 96l5-13 8 15-6 28" />
    <path fill="#42a323" d="M933 390l18 29 5-24-31-45" />
    <path fill="#f9fafe" d="M1005 259l-60 104 87-125-166 11" />
    <path fill="#6277b5" d="M627 69h146l169 3-254 2" />
    <path fill="#9aabcb" d="M329 99l-98 11 16 4 131 2" />
    <path fill="#454d40" d="M780 244l13 3 54-3-70-2" />
    <path fill="#fff" d="M457 6l592 37-289 2 294-55" />
    <path fill="#121715" d="M853 245l13-2 43 5 27-5" />
    <path fill="#999a99" d="M668 34l10 2 5-14 137 9" />
    <path fill="#121e14" d="M186 298h-8l20-1-2 11" />
    <path fill="#7e7f7d" d="M421 261l13 21-8 42-3-51" />
    <path fill="#96252b" d="M552 315l-7 9 42-12-52 33" />
    <path fill="#e4f0fa" d="M702 210l22 28-135 1 152 1" />
    <path fill="#4560aa" d="M699 135l-1 49-1-88 21 13" />
    <path fill="#817fb1" d="M599 102l-8-12 65 35-80-1" />
    <path fill="#a1afa4" d="M404 326l-54 23 46 5-16-39" />
    <path fill="#919090" d="M226 214l68 11h-60l-7-10" />
    <path fill="#898789" d="M904 256l-5 15-30-14 20-6" />
    <path fill="#bbc3d9" d="M804 38l26 123 11-5-20-96" />
    <path fill="#945770" d="M911 308l-42 30 14-2 6-29" />
    <path fill="#fff" d="M546 467l-72-158-234 118 331 16M556 68L276 44l-6 13-27-88" />
    <path fill="#da707a" d="M730 182l58 2h16l-5-9" />
    <path fill="#445da8" d="M842 207l-10-28 25-15 5 42" />
    <path fill="#fff" d="M1040 350l-107 6 60 96 22 91M215 175l-88 88 45-154 42 36" />
    <path fill="#f1f0fd" d="M859 286l19 79 33-57-39 44" />
    <path fill="#262f8f" d="M956 309l-3 7-10-7 2-8" />
    <path fill="#fff" d="M872 277L620 380l-1-48 212-92" />
    <path fill="#a5aa2f" d="M543 429l-24 24 25-19 31-27" />
    <path fill="#7379c7" d="M603 388l2-68 4 35 11 15" />
    <path fill="#89bf93" d="M284 333l28 27-28 1-4-56" />
    <path fill="#edd9dd" d="M490 127l103-3-65 39 69 2" />
    <path fill="#fff" d="M168 95l-29-17-40 3 20 31m100-85l1 102 42-21-26 107" />
    <path fill="#b2e2f4" d="M118 309l12-3 4-93-17-7" />
    <path fill="#6c83c0" d="M498 109l39 9 7 7-42-1" />
    <path fill="#ffd7d2" d="M860 99l6-25 11 3 2 27" />
    <path fill="#5ec344" d="M699 410l-56-33 20-14-1 13" />
    <path fill="#a3a296" d="M213 474l-58 4-15-25-16 6" />
    <path fill="#4e4b46" d="M292 58l-4-7 24 28-11-21" />
    <path fill="#909795" d="M40 112l26 13 45-1-36-9" />
    <path fill="#b9b8a9" d="M791 418l57 4 21-31 12 19" />
    <path fill="#fff" d="M825 404L703 510l165 15-103-127" />
    <path fill="#cee9ca" d="M674 383l-18-14 3-27 54 77" />
    <path fill="#fff" d="M846 543L737 440l-142-18-8 36" />
    <path fill="#546bb3" d="M923 359l-37-26 10 24 68-17" />
    <path fill="#d3d083" d="M93 463l17 24-31-25 26-45" />
    <path fill="#fff" d="M53 484l275 2-307 57 99-90" />
    <path fill="#f7716c" d="M659 168l5-41-14 8 25 15" />
    <path fill="#232d19" d="M810 244l-140 3h-70l-55-5" />
    <path fill="#909090" d="M757 396l-40 3 91 4-60-13" />
    <path fill="#66c078" d="M287 332l22-5-12-33 5 22" />
    <path fill="#fff" d="M919 391l2 19 11-33-19 11" />
    <path fill="#96635c" d="M822 304l33-1 7 7-55-6" />
    <path fill="#747473" d="M669 25l-9 5-7-12 18 3" />
    <path fill="#fff" d="M316 126l-109 70 95 26-4-145" />
    <path fill="#929292" d="M982 156l12 7-8 48h-11" />
    <path fill="#f8f9fb" d="M706 87l-35-27-7 12-3-54" />
    <path fill="#ff847e" d="M635 89l5-22-90 3 70 5" />
    <path fill="#fff" d="M343 353l-82 17 105 5-15-74" />
    <path fill="#c33531" d="M592 343l9-23-16 15-8 42" />
    <path fill="#a7a8a4" d="M859 68l-10-4-8-15 14-2" />
    <path fill="#847f7c" d="M43 271l52-5-25 12-7-4" />
    <path fill="#347d26" d="M920 352l-38 35 12 19-24 7" />
    <path fill="#fc7b75" d="M704 139l21-1-4 23-17-21" />
    <path fill="#fffffc" d="M782 62l-247 5h256l20-30" />
    <path fill="#787269" d="M298 130l-6-8 2-32 4 1" />
    <path fill="#8c8d8b" d="M25 173h16l44 12-57-1" />
    <path fill="#fff" d="M660 247l-45 80-43-25-184-53" />
    <path fill="#ffb28f" d="M208 217l16 23-3-50 5-26" />
    <path fill="#afb175" d="M522 477l8-35 30 28-64-2" />
    <path fill="#818d83" d="M302 348l-10-4 39 39-15 2" />
    <path fill="#8d95a5" d="M392 40l-25 101 17-20-6 2" />
    <path fill="#a8b7cf" d="M229 80l44 37-45-8 59-37" />
    <path fill="#787777" d="M319 161l67-2 4-7-85 4" />
    <path fill="#73a8d1" d="M944 119l6-27-3 12-63-9" />
    <path fill="#ea3839" d="M666 101l-2-24-4 9v11" />
    <path fill="#d19fa7" d="M582 34l-33 109-6-51 44-9" />
    <path fill="#fff" d="M972 422l-77 24 128 97 6-306" />
    <path fill="#f2dddd" d="M496 326l54 3-9-12-27 18" />
    <path fill="#fff" d="M252 92l170 2-205 4-96-3m645 300l28-1 30-80-132 81" />
    <path fill="#f9feff" d="M886 265l65 55 3 20-96-61" />
    <path fill="#fff" d="M530 62l-79-72 40 125 23-101" />
    <path fill="#69c951" d="M632 364l33 68-4-4-22-21" />
    <path fill="#fff" d="M209 254L92 157l84 106 34 35" />
    <path fill="#a9d6ec" d="M76 188l48-44-46 18 36 56" />
    <path fill="#f86b6c" d="M809 227l24 6 83 4-75 2" />
    <path fill="#6d609a" d="M677 92l7 101-10-10 3-27" />
    <path fill="#fff" d="M391 338l148 131-72-147-100 12M79 216l129-80 1 92-108-70" />
    <path fill="#41657e" d="M581 365l-19 8-9-10 70 1" />
    <path fill="#fffeff" d="M663 249l-31 100-45 64 86-69" />
    <path fill="#fff" d="M136 333l104-10 73 220-177-123m860-288l-31-13 18 113-40-92" />
    <path fill="#55ac42" d="M682 398l2 11 12-38 8 17" />
    <path fill="#d79084" d="M888 384l-70-55 5-13 58 71" />
    <path fill="#4d5152" d="M213 118l6 15-16 1 20 4" />
    <path fill="#545454" d="M734 395l77 1-68 4-27-2" />
    <path fill="#f09d9f" d="M116 124l70-23-45 32-14 1" />
    <path fill="#e2444e" d="M528 309l-5-10 64 7-44-9" />
    <path fill="#a2c4a8" d="M305 325l99-6 33 7-62 4" />
    <path fill="#747db7" d="M504 176l8 63 6-59 86 2" />
    <path fill="#fff" d="M57-23l60-8-32 201 21-31" />
    <path fill="#cbc55a" d="M118 397l17-29-10-7 5 41" />
    <path fill="#2e9e97" d="M531 405l21-30-4-1-11 47" />
    <path fill="#fff" d="M-12 98l202-55 30 24 50-98m353 574l60-143 13 103 69-117" />
    <path fill="#131812" d="M818 243l-111 3 65-3 30 5" />
    <path fill="#c2bddd" d="M583 367l32-30-15-16-7 28" />
    <path fill="#a5a5a4" d="M801 25l-43 6 26-1 113 1" />
    <path fill="#6fb6af" d="M848 402l12-35-49 6 33-13" />
    <path fill="#eaf6ec" d="M536 237l84 5h-86l29-10" />
    <path fill="#777f7f" d="M96 96L81 83l-10 5 12 9" />
    <path fill="#c8c97e" d="M856 404v92l27-24-14 20" />
    <path fill="#f8ffff" d="M913 329l-5 22-18-26 17 9" />
  </g>
</svg>