<svg width="1024" height="512" viewBox="0 0 1024 512" xmlns="http://www.w3.org/2000/svg">
  <path fill="#e5e4e6" d="M0 0h1024v512H0z" />
  <g fill-opacity=".502">
    <g class="UTIL__svg-thumb__low-res">
      <path fill="#745e96" d="M933.87 65.457L915.153 248.59l-421.884-2.614 48.918-178.66" />
      <path fill="#237719" d="M954.072 422.696l-52.107 21.686-56.002-75.986 85.57-37.14" />
      <path fill="#917466" d="M616.684 355.317l-33.848-57.37-58.534-.34 10.906 176.91" />
      <path fill="#72cf5c" d="M688.847 429.504l-71.95-6.634 23.883-53.655 62.475 5.555" />
      <path fill="#fff" d="M-31 261.885L.253 543l973.15-29.2L528.12 390.5" />
      <path fill="#ac98bb" d="M849.42 394.84l-30.114-63.673 12.83-30.16 187.646 12.942" />
      <path fill="#fff" d="M500.307 278.8l-188.18-22.643-204.277 203.62L499.597-31" />
      <path fill="#c7cc6e" d="M597.404 451.76l-64.49 64.74-8.512-77.01 50.177-35.41" />
      <path fill="#fff" d="M1018.852-10.14L948.68 432.125 539.27 501.757 1055 543" />
      <path fill="#b6d7b9" d="M242.894 292.697l143.696-41.66 29.24 96.608-166.836 14.245" />
      <path fill="#fff" d="M645.143 339.125L826.9 439.585l-4.92-192.992-352.552 5.324M-20.525.32L-31 92.817l5.628 281.08L224.826-20.694" />
      <path fill="#fff" d="M200.444-31L319.966 76.286l161.436-48.082L1055 11.83" />
      <path fill="#b7becc" d="M279.17 51.233l124.633 36.293-53.66 90.14L135.87 50.973" />
      <path fill="#e3c0ca" d="M533.038 198.298l-70.126-130.66 146.667-1.303 70.122 16.1" />
      <path fill="#5b66a8" d="M911.222 249.774l-77.943-112.84 7.25 100.232L905.12 87.12" />
      <path d="M795.43 246.644l-140.03.9-167.974-4.512 252.407.324" />
      <path fill="#69a44a" d="M938.935 347.828l23.335 72.665-56.886-71.017L826.864 543" />
      <path fill="#fff" d="M502.75 543l25.26-294.256-104.628 80.633L110.616 447.84" />
      <path fill="#898a88" d="M741.514 421.176l45.318 17.72-54.088-45.612 79.74 3.487" />
      <path fill="#b62f1f" d="M571.106 431.557l13.922-102.66-60.892-16.125 77.946 7.923" />
      <path fill="#fff" d="M8 139.966l204.103-21.587 297.433 113.457-267.752 50.217" />
      <path fill="#616260" d="M988.85 141.7l4.86 62.747-10.106 8.09-5.85-57.976" />
      <path fill="#4d4c4a" d="M263.165 228.04l33.87-11.88-54.504 2.284-10.04.227" />
      <path fill="#dddcae" d="M132.513 449.462l81.513 30.473-154.037 2.703 75.794-188.23" />
      <path fill="#626fb0" d="M782.445 73.308l-.987 84.373-43.145 84.25-4.2-171.876" />
      <path fill="#ffd5d3" d="M778.785 151.3l50.1 8.28 11.484 109.445-63.574-66.72" />
      <path fill="#fff" d="M988.216 208.687l-161.657 93.37L1055 282.15 1005.038-31" />
      <path fill="#777876" d="M733.976 35.988l-83.197-1.94 8.677-11.376 53.823-2.16" />
      <path fill="#a20712" d="M550.766 314.608l14.808 43.917-44.492-39.593 8.025 20.44" />
      <path fill="#f0bebe" d="M43.045 121.753l77.07 12.463 155.28-34.568-156.65-43.45" />
      <path fill="#7a7973" d="M353.405 150.026l52.073 9.903-87.624 2.95-20.884-7.155" />
      <path fill="#fff" d="M978.66 178.37l-5.38-79.978L1055 4.347 870.97-31" />
      <path fill="#b79687" d="M216.252 364.956l-6.096-177.9L218.934 80.1l3.306 178.11" />
      <path fill="#747d6f" d="M931.93 240.516L753.154 244.2l102.407 6.234-1.212 24.02" />
      <path fill="#5bbfc5" d="M537.945 385.5l-30.964-52.967 74.158 25.392-57.398 62.12" />
      <path fill="#8196bc" d="M453.6 92.677l-116.304-4.75 99.357-15.62 45.57 18.083" />
      <path fill="#fff" d="M736.174 397.146L489.216 522.443 766.986 543 746.68 404.342M870.567 243.997l-20.754 59.06L696.423 408.8l30.056-152.027" />
      <path fill="#6370c4" d="M964.04 352.727l-22.036-58.197 25.55 21.456 28.008-17.11" />
      <path fill="#dbc8a7" d="M839.596 434.16l9.354-117.598 39.11-33.492-8.527 214.846" />
      <path fill="#c1749f" d="M261.343 299.732l-25.865 3.775-87.685 3.715-10.778-15.507" />
      <path fill="#8e8e81" d="M69.57 385.31l1.306 1.068 46.754 9.61-119.836-.25" />
      <path fill="#6f6f6d" d="M39.207 182.817l-20.36-8.147 58.24.772-23.817 11.675" />
      <path fill="#92938b" d="M118.18 323.445l101.73-3.064.37 8.585-95.147-3.686" />
      <path fill="#6c7ba8" d="M577.76 182.843l123.037 80.42-45.018 6.722-47.735-125.87" />
      <path fill="#fff" d="M-14.012 50.378l.135-61.94L260.3-3.34 221.055 55.56M835.51 428.945L872.96 543l-111.794-62.8 16.884-87.562" />
      <path fill="#8f0205" d="M850.712 302.873l-.85-4.972 19.19 25.8-.274 24.553" />
      <path fill="#fff" d="M562.515 358.524L558.74 324.6l317.134 89.012-175.29-158.775" />
      <path fill="#36ac1d" d="M918.72 347.714l12.122 37.3 7.96 66.708 7.723-84.902" />
      <path fill="#ddbfba" d="M933.515 243.23l-103.464-.872 82.4-38.822 30.065-131.172" />
      <path fill="#8a8b89" d="M980.995 187.06l-3.76-108.332 17.25 22.496-3.6 39.32" />
      <path fill="#255a1c" d="M878.47 399.003l15.892-30.36 4.603 51.776-11.113 1" />
      <path fill="#fff" d="M935.49 383.477l-5.188 2.098-8.212 24.514-8.29-33.535" />
      <path fill="#7381e3" d="M584.982 366.488l16.996-48.19 14.928 55.333-13.598 5.243" />
      <path fill="#2d45c8" d="M905.08 378.65l-24.297-21.746 55.443-6.915-21.567-25.463" />
      <path fill="#7b7b79" d="M430.27 275.98l-.57 81.715-5.783-91.332-16.992 5.405" />
      <path fill="#788487" d="M68.087 265.114l-27.854 4.738-4.914 4.174 82.253 3.303" />
      <path fill="#5c5c5b" d="M172.62 229.254l3.03.604 18.716-15.2 4.87 17.383" />
      <path fill="#9faba1" d="M319.468 392.228l-1.054-5.938-27.447-43.108 50.756 3.58" />
      <path fill="#fff" d="M888.682 221.22l-23.996-39.95-78.65 201.424-99.682-92.322" />
      <path fill="#42bc1e" d="M689.23 429.677l-11.783-51.943-31.846-2.047 53.884 35.22" />
      <path fill="#d4daef" d="M778.85 115.794l57.163-17.32 2.625-24.896-61.943-.143" />
      <path fill="#000800" d="M640.874 244.502l-162.546-1.232 34.84 1.66 30.672 2.64" />
      <path fill="#c7a2b4" d="M497.055 127.168l53.71-94.993-44.89 174.95-3.946 40.25" />
      <path fill="#de2141" d="M547.398 295.195l39.844 26.965 1.052 19.796 13.022-27.063" />
      <path fill="#483c45" d="M321.487 289.705l6.922-27.022-12.2 8.86 7.382 25.234" />
      <path fill="#6e6f6d" d="M159.71 288.278l33.76-.555 4.763-11.31-35.843 3.615" />
      <path fill="#fe908c" d="M666.377 212.104l54.527 10.665-217.43-2.732 65.387-11.172" />
      <path fill="#fff" d="M934.946 440.793l-139.672 86.994L1055 543V258.448" />
      <path fill="#e33e42" d="M601.15 69.714l-36.57 2.892-53.972-6.698-3.48 8.847" />
      <path fill="#8e8e9d" d="M204.777 467.003l10.198 15.338-82.78-11.965 55.072-.945" />
      <path fill="#a558a6" d="M574.317 394.237l22.612 8.678 30.437 3.12-6.092 20.27" />
      <path fill="#fff" d="M537.125 299.727l-45.527 16.398-151.625-117.22 325.966 93.952M351.252 292.85l-25.004 31.42-2.063-50.896 112.966 9.923" />
      <path fill="#d9db99" d="M131.277 407.56l-9.083-105.868-26.72 117.627-2.25-137.03" />
      <path fill="#4f65af" d="M695.13 203.392l23.208 10.18-3.09-49.845-30.216-6.336" />
      <path fill="#fff" d="M499.437 38.46l51.28-5.14-216.468 167.644 164.166 104.34" />
      <path fill="#fcfffb" d="M648.122 396.476l19.03 30.47 9.314-64.97 6.875 23.655" />
      <path fill="#fdfffd" d="M568.594 436.27l439.62 96.823-464.53-129.385 36.755-42.854" />
      <path fill="#aba5a4" d="M70.06 82.274l28.89 41.746-51.897.493L122.04 93.2" />
      <path fill="#fff" d="M201.033 114.43l-206.84 1.465 163.574-34.968-5.108 101.636" />
      <path fill="#8992a1" d="M234.135 16.873l83.61 56.756L248.41 54.5l13.56-36.558" />
      <path fill="#8a8cbc" d="M651.712 126.38l-31.78-40.364-72.472 42.143-57.1-11.17" />
      <path fill="#fff" d="M1002.393 196.282l-122.23 86.422 68.237 65.61-28.508-11.027" />
      <path fill="#cbeefa" d="M83.17 139.78l-3.03 53.702 19.297 141.543 54.467-190.563" />
      <path fill="#fff" d="M312.327 329.887l25.076 39.108L67.79 349.22l241.324 82.495" />
      <path fill="#d0c0d1" d="M744.74 105.882l-127.084-32.15 8.955 161.278 65.97-194.178" />
      <path fill="#5f6aac" d="M598.135 238.16l145.256-1.8-99.023-14.78L519.08 237.4" />
      <path fill="#feffff" d="M57.633 265.856l150.837-138.05-89.5 165.684 310.967-94.83" />
      <path fill="#828281" d="M816.134 395.973l-37.246-1.88-14.413 35.493-28.926-16.005" />
      <path fill="#fff" d="M515.268 531.63l4.913-263.19-291.318 184.828L139.702 543M195.905 3.234l238.85 62.51-12.938 66.44L486.93-6.23" />
      <path fill="#6e6f6d" d="M377.598 56.713l27.818-2.872 5.417 7.052-16.46 7.793" />
      <path fill="#fff" d="M741.13-31H717.17l23.406 89.01 261.742 14.817" />
      <path fill="#56524a" d="M289.648 119.25l3.504 20.994 2.76-7.858-.192-36.756" />
      <path fill="#4561ad" d="M645.535 101.43l97.454.03-25.627 5.02 27.416 16.88" />
      <path fill="#676969" d="M99.345 227.5l-30.9-3.06 13.54-13.443 4.404 6.263" />
      <path fill="#fff" d="M379.868 121.015l-168.455 33.17 88.065 73.986 3.445-118.2" />
      <path fill="#d5c7d5" d="M837.88 115.72l108.043 5.465-12.544 28.79-76.72-10.11" />
      <path fill="#fff" d="M117.074 442.137L-31 494.347-4.176 365.64 202.186 536.32M845.526 435.788l209.474 3.63L954.76 543l-71.127-131.307" />
      <path fill="#314b37" d="M257.475 344.236l-10.2 2.546.336-35.074 4.93 29.6" />
      <path fill="#a1a757" d="M824.93 466.546l36.672-1.264 55.49-44.762-54.74 54.723" />
      <path fill="#d33d48" d="M558.287 344.536l-15.508-50.724-36.03 38.22 33.007-16.034" />
      <path fill="#41413b" d="M231.28 79.39l.107-27.986-7.257 26.115 5.26 19.655" />
      <path fill="#767d8b" d="M382.01 127.58l9.303-37.938-23.78 41.845 4.12 2.42" />
      <path fill="#283337" d="M208.89 125.52l1.912-1.454 5.876 23.85 2.818-16.556" />
      <path fill="#c77369" d="M830.847 338.656l44.244 9.354-18.184 22.725-36.206-70.66" />
      <path fill="#a5a758" d="M549.173 496.474l21.165-20.867-45.857-39.04 26.038 52.467" />
      <path fill="#9b9c9a" d="M921.188 33.82L840.29 28l88.27-4.844 5.355 13.393" />
      <path fill="#5868ab" d="M875.247 170.78l50.747-36.37-25.034 86.982-19.85-1" />
      <path fill="#fff" d="M568.584 264.19l59.6 123.03-38.734 6.084L817.34 277.31" />
      <path fill="#67d24c" d="M664.618 424.94l-.907 14.472-42.66-83.182 48.965 75.376" />
      <path fill="#e4c3cc" d="M716.974 140.802L482.66 138.51l257.523-20.42-20.99 108.667" />
      <path fill="#fff" d="M-31 394.877l120.212-20.453 5.502-98.265-125.485 2.577M230.677 80.698L141.264-26.156 269.758 40.64 157.312 72.72" />
      <path fill="#4c9a3c" d="M703.927 371.997l-2.056 7.78-27.38-18.592 17.993 3.834" />
      <path fill="#a1a1a0" d="M497.278 34.484l-4.153-3.088 106.45-1.032-115.51-8.958" />
      <path fill="#fc6c6b" d="M908.737 103.698l11.986 9.357-141.073-1.204 104.49-5.41" />
      <path fill="#fff" d="M-8.33-1.2l189.695.31L58.8 100.763-7.952 248.93" />
      <path fill="#7e7f7d" d="M157.8 238.28l2.584 14.717-24.432-4.384 3.005-6.252" />
      <path fill="#fff" d="M11.664 515.345L-31 160.315l132.547 81.392-62.313 27.36" />
      <path fill="#1e771b" d="M934.642 349.452l-53.64 33.54 21.26-10.5 17.613 7.216" />
      <path fill="#bebf43" d="M581.64 388.334l-9.557 32.632 22.037 38.404-42.15-30.89" />
      <path fill="#fff" d="M683.976 427.1l-8.682-30.774-2.377 73.41 97.514-73.427" />
      <path fill="#1d47a1" d="M909.543 67.096L927.47 71.4l-147.174 1.662 55.712-3.28" />
      <path fill="#81c68c" d="M410.743 276.72l-62.243.142-17.09-8.764 72.95-6.093" />
      <path fill="#524f48" d="M199.05 61.464l8.067-5.166-27.072-3.006-4.663 6.938" />
      <path fill="#fff" d="M386.763-.536L258.32-31l51.603 104.975 75.025 3.14" />
      <path fill="#fbcf46" d="M943.463 159.753l-36.747-.638 27.32 13.977 19.292-2.944" />
      <path fill="#f9bebd" d="M656.617 139.147l15.547 6.54 4.7 107.308-18.64-51.356" />
      <path fill="#85ca90" d="M403.37 296.6l13.31-9.17 1.63 23.404-79.2-11.408" />
      <path fill="#4a4a55" d="M60.167 475.872l.788-13.368 14.4-1.066-2.117 8.518" />
    </g>
    <g class="UTIL__svg-thumb__high-res">
      <path fill="#fff" d="M791.207 250.396l258.616 69.622-85.665-136.57-82.24 138.318" />
      <path fill="#515c5f" d="M219.262 245.312l-5.457-.383 7.362 32.58-11.995.21" />
      <path fill="#ece5ea" d="M559.646 74.57l-51.164 42.334L640.842 82.8l-9.145 15.686" />
      <path fill="#99999a" d="M96.393 387.968l-74.012-3.215 10.093 10.884 47.49 2.95" />
      <path fill="#fbf7f4" d="M760.708 267.813l136.478 102.673-16.75 9.896-52.368-122.68" />
      <path fill="#53544d" d="M840.045 236.735l26.64 3.62-31.19 5.38 93.644 3.023" />
      <path fill="#837c83" d="M341.423 280.758l1.857 73.82-36.177-5.7h29.165" />
      <path fill="#fff" d="M260.133 336.947l90.698-8.815 71.844 6.5-128.738 10.905" />
      <path fill="#90d4cf" d="M816.62 373.53l6.34-24.695 31.15 24.142.732 27.686" />
      <path fill="#e6f2f8" d="M235.88 64.432l51.262-7.163 27.806 36.98-80.996 12.767" />
      <path fill="#f1979a" d="M123.664 69.122l42.42 5.625-13.958 41.396 47.806-3.743" />
      <path fill="#e4636a" d="M88.075 119.786l21.91-57.135 6.99 17.442-4.174-4.722" />
      <path fill="#679440" d="M949.675 426.18l-30.496 17.394-48.684-86.847 22.785 81.656" />
      <path fill="#fff" d="M653.54 46.636l130.89-7.757-251.942-9.418 107.04 42.61M392.67 103.387l50.083 220.207 64.08-227.84L313.69 89.97" />
      <path fill="#b38190" d="M626.5 74.424L598.706 86.4l24.004-49.99 5.785 101.7" />
      <path fill="#5e6267" d="M294.23 102.66l-12.688 12.797-9.963 19.037-13.812-2.236" />
      <path fill="#fff" d="M131.774 400.06l13.83 78.11L251.39 332.165l-118.733-3.32" />
      <path fill="#4c63b1" d="M588.974 165.3l8.153 41.345 22.48-.153 2.272-45.225" />
      <path fill="#807daa" d="M893.13 46.28l-17.642 8.19 37.14 28.058-28.227 61.45" />
      <path fill="#f3e4eb" d="M552.43 210.135l39.748-7.3-64.197-7.992-6.305 10.488" />
      <path fill="#fadddd" d="M885.174 240.37l-107.312.43 18.944-168.35-11.296 160.023" />
      <path fill="#a05e75" d="M850.48 316.455l50.713 1.73 6.684-18.17-35.037 27.41" />
      <path fill="#f15a59" d="M696.74 220.587l41.664-7.72-4.114-9.123-59.604 17.228" />
      <path fill="#fff" d="M1055 73.57L1017.856-31h-104.39l32.573 117.3" />
      <path fill="#d74d57" d="M598.403 214.805l-13.81 24.88 3.97-29.48-65.057-.13" />
      <path fill="#4da2a8" d="M576.553 354.864L562.51 387.11l-47.133 19.904 16.632 6.716" />
      <path fill="#fff" d="M287.046 111.512l-59.264 96.397 242.486-49.613-166.872 8.75" />
      <path fill="#7383b8" d="M550.572 221.553l-48.73 26.783 65.903-70.442-22.606-29.643" />
      <path fill="#7a91be" d="M347.307 145.62l-50.92-9.022 10.22-3.82 52.358-2.263" />
      <path fill="#465da9" d="M645.7 82.545l-.646 112.568.06 26.558 6.686-35.514" />
      <path fill="#fff" d="M542.04 493.382l326.064-93.612L525.344 543 56.756 490.036" />
      <path fill="#cc5f6c" d="M920.215 249.774l6.483-69.984-.86-22.527-6.875 52.596" />
      <path fill="#fff" d="M267.567 292.345l207.953-101.53-245.905 46.06-13.23 57.26M300.17 143.577l-83.863-2.11 120.54 11.708 224.14-10.478" />
      <path fill="#7b79a7" d="M761.49 184.573l10.76 22.898 7.797-156.28-10.424-8.742" />
      <path fill="#7080b8" d="M847.867 8.011l-11.264 205.833-100.687 6.135 110.203.787" />
      <path fill="#5774b6" d="M732.72 113.488l125.356-.068 117.917.587-142.712 4.68" />
      <path fill="#fefffd" d="M886.03 453.448l-129.32-94.825 102.048 2.514-142.15-109" />
      <path fill="#fff" d="M-31 504.22l167.258-78.116L-31 409.488 148.558 534.38" />
      <path fill="#fff" d="M115.713 426.015l380.432-71.98 41.464 28.483L487.73 543M961.673 405l-37.776 28.052 74.24-79.864L1052.482 543" />
      <path fill="#edb9bc" d="M859.872 238.534l11.896-11.473.03-105.913-11.31 37.047" />
      <path fill="#acacab" d="M478 286.163l-53.576-.91 28.832-1.016 2.007 32.402" />
      <path fill="#ecf1f1" d="M908.237 98.836l37.438-47.397 27.085 28.08 12.33 32.312" />
      <path fill="#fb7069" d="M494.43 151.205l-1.24 4.858 103.938-2.35-84.156-2.437" />
      <path fill="#6e82b0" d="M958.19 327.33l-37.558 47 71.814-66.905 6.537 5.19" />
      <path fill="#dac3d1" d="M737.834 118.21l24.735 15.203.775 1.945 8.287-26.853" />
      <path fill="#6d9899" d="M572.024 367.676l7.87-1.718-112.053-8.17 53.913 8.736" />
      <path fill="#719077" d="M321.29 292.063l6.924 18.845-26.053-36.502-12.347 2.78" />
      <path fill="#ed7d81" d="M95.99 96.216l4.885-13.458 7.955 15.505-5.362 27.586" />
      <path fill="#42a323" d="M932.625 389.79l18.23 29.5 5.874-24.11-31.213-45.233" />
      <path fill="#f9fafe" d="M1004.597 258.6L945.2 363.23l86.256-125.134-165.493 11.23" />
      <path fill="#6277b5" d="M626.694 68.76l146.442-.088 168.834 3.2-254.066 1.91" />
      <path fill="#9aabcb" d="M328.476 99.386l-98.012 10.956 16.765 3.452 130.33 1.66" />
      <path fill="#454d40" d="M780.316 243.778l12.576 3.52 54.294-3.275-69.568-1.844" />
      <path fill="#fff" d="M456.58 5.73l592.787 37.334-289.304 2.012 294.085-55.11" />
      <path fill="#121715" d="M852.655 245.356l13.406-2.757 42.19 5.708 26.474-5.678" />
      <path fill="#999a99" d="M667.86 33.94l10.343 1.566 5.015-13.74 136.326 8.91" />
      <path fill="#121e14" d="M186.396 297.71l-8.686.285 20.597-.985-2.03 10.667" />
      <path fill="#7e7f7d" d="M421.07 261.29l12.73 21.13-7.48 41.64-3.13-51.742" />
      <path fill="#96252b" d="M551.604 315.425l-6.518 8.228 41.21-12.04-52.396 33.672" />
      <path fill="#e4f0fa" d="M702.223 209.465l21.57 28.395-135.11 1.335 152.613 1.41" />
      <path fill="#4560aa" d="M699.42 134.49l-1.216 49.436-.942-87.907 20.692 13.13" />
      <path fill="#817fb1" d="M598.882 101.623l-7.612-11.58 64.836 35.264-80.29-.914" />
      <path fill="#a1afa4" d="M404.202 326.39l-53.828 22.992 45.393 4.24-15.846-38.508" />
      <path fill="#919090" d="M225.785 213.48l68.25 11.694-60.467-.116-6.984-10.43" />
      <path fill="#898789" d="M903.838 255.96l-4.886 14.88-29.67-13.94 19.442-6.026" />
      <path fill="#bbc3d9" d="M803.66 37.616l26.228 123.51 10.87-4.92-19.966-96.053" />
      <path fill="#945770" d="M910.742 308.292l-41.86 30.137 14.88-2.24 6.714-28.968" />
      <path fill="#fff" d="M545.767 466.5L474.02 308.985l-234.362 117.93 331.205 16.08M556.308 68.023L275.614 43.496l-5.984 13.397L242.738-31" />
      <path fill="#da707a" d="M729.87 182.085l57.83 1.99 16.538-.153-5.488-8.903" />
      <path fill="#445da8" d="M841.963 206.635l-9.528-27.876 24.974-14.884 4.146 42.655" />
      <path fill="#fff" d="M1040.224 350.43l-106.964 5.283 60.128 96.524L1015.523 543M214.743 174.808l-87.777 88.633 45.095-153.937 41.412 35.417" />
      <path fill="#f1f0fd" d="M858.603 285.735l19.52 79.693 32.503-57.375-38.87 43.965" />
      <path fill="#262f8f" d="M956.022 308.557l-2.81 7.146-10.19-6.868 2.282-7.812" />
      <path fill="#fff" d="M872.085 276.8l-252.47 103.62-.71-48.388 212.443-91.61" />
      <path fill="#a5aa2f" d="M542.622 428.743l-23.864 24.47 24.765-19.225 31.03-27.352" />
      <path fill="#7379c7" d="M602.79 387.78l1.847-68.054 4.44 35.688 10.72 15.063" />
      <path fill="#89bf93" d="M283.748 333.18l28.776 26.99-29.052 1.105-3.68-56.696" />
      <path fill="#edd9dd" d="M489.656 127.01l103.342-3.08-64.717 39.032 68.714 1.97" />
      <path fill="#fff" d="M168.378 94.57l-28.88-16.314-39.992 2.986 19.377 31.256M219.317 26.4l1.614 102.175 42.29-21.03-26.714 107.6" />
      <path fill="#b2e2f4" d="M118.213 308.97l11.813-2.667 4.324-93.22-17.31-7.316" />
      <path fill="#6c83c0" d="M497.623 108.746L537.4 117.9l6.622 7.215-42.103-.57" />
      <path fill="#ffd7d2" d="M859.582 98.68l6.07-24.944 11.098 2.86 2.042 27.157" />
      <path fill="#5ec344" d="M699.23 409.906l-55.957-33.286 19.393-13.544-.916 12.273" />
      <path fill="#a3a296" d="M213.203 473.496l-57.668 4.388-15.187-24.356-16.784 5.79" />
      <path fill="#4e4b46" d="M291.924 58.133L287.46 51.3l24.416 27.98-10.207-21.404" />
      <path fill="#909795" d="M39.876 112.375L65.83 124.77l45.31-.988-36.26-8.93" />
      <path fill="#b9b8a9" d="M790.45 418.348l57.357 4.087 21.42-31.905 11.467 18.927" />
      <path fill="#fff" d="M825.41 403.67L703.49 509.656l164.342 15.44-102.502-127.22" />
      <path fill="#cee9ca" d="M673.598 382.752l-17.885-13.686 2.964-27.688 53.82 76.627" />
      <path fill="#fff" d="M846.26 543L737.313 440.175 595.1 422.05l-8.703 35.904" />
      <path fill="#546bb3" d="M923.088 358.985l-36.955-25.55 10.015 23.96 68.133-17.127" />
      <path fill="#d3d083" d="M92.98 463.25l17.405 23.93-30.854-25.416 25.12-44.412" />
      <path fill="#fff" d="M53.29 483.555l274.67 1.95L20.703 543l99.424-90.25" />
      <path fill="#f7716c" d="M659.31 167.465l4.86-41.1-13.665 8.835 24.2 14.89" />
      <path fill="#232d19" d="M809.723 244.137l-139.62 2.37-70.165.297-55.118-4.992" />
      <path fill="#909090" d="M756.665 396.13l-39.714 2.682 91.07 3.664-60.202-12.963" />
      <path fill="#66c078" d="M287.264 332.297l22.1-4.954-12.264-33.068 4.62 21.762" />
      <path fill="#fff" d="M919.07 391.423l1.96 18.926 10.474-32.988-18.533 10.27" />
      <path fill="#96635c" d="M822.085 304.213l32.432-1.534 7.637 7.814-54.853-6.184" />
      <path fill="#747473" d="M669.162 25.108l-8.887 5.132-7.032-12.096 17.957 2.65" />
      <path fill="#fff" d="M316.19 126.386l-109.036 70.07 94.542 25.172L298.04 77.35" />
      <path fill="#929292" d="M982.12 155.456l11.59 7.07-7.38 48.1-10.91.08" />
      <path fill="#f8f9fb" d="M705.906 87.028l-34.928-27.154-7.3 11.753-2.542-53.904" />
      <path fill="#ff847e" d="M634.99 88.766l4.867-21.703-89.596 2.798 70.146 4.623" />
      <path fill="#fff" d="M342.665 353.31l-81.124 17.015 103.982 5.096-14.894-74.047" />
      <path fill="#c33531" d="M592.037 343.077l8.725-22.9-15.556 14.912-8.033 42.22" />
      <path fill="#a7a8a4" d="M859.187 67.45l-9.968-4.003-8.377-14.124 14.058-1.825" />
      <path fill="#847f7c" d="M43.015 270.632l51.71-4.768-24.582 12.654-7.338-4.148" />
      <path fill="#347d26" d="M919.55 351.817l-37.855 34.708 12.04 19.182-23.868 7.117" />
      <path fill="#fc7b75" d="M703.453 138.505l21.702-1.047-4.053 23.397-17.294-20.16" />
      <path fill="#fffffc" d="M781.64 62.002l-246.53 5.23 256.203-.41 19.617-30.143" />
      <path fill="#787269" d="M297.5 129.53l-5.84-7.39 1.924-32.734 4.338.653" />
      <path fill="#8c8d8b" d="M24.47 173.242l16.583-.33 43.43 12.186-56.683-1.172" />
      <path fill="#fff" d="M660.316 246.533l-44.782 80.235-44.066-25.122-183.68-52.994" />
      <path fill="#ffb28f" d="M207.568 216.536l15.94 23.048-2.175-49.764 5.076-25.475" />
      <path fill="#afb175" d="M522.262 476.742l8.147-35.027 29.623 28.21-64.05-2.205" />
      <path fill="#818d83" d="M301.48 347.618l-10.053-3.598 39.836 38.652-14.94 2.07" />
      <path fill="#8d95a5" d="M391.544 40.072l-24.413 100.91 16.768-20.158-5.994 2.11" />
      <path fill="#a8b7cf" d="M229.146 80.095l43.47 36.696-44.97-7.974 59.442-36.923" />
      <path fill="#787777" d="M318.59 161.285l67.198-2.504 4.233-6.74-85.56 3.902" />
      <path fill="#73a8d1" d="M943.994 118.638l5.718-26.982-3.21 11.963-62.475-8.363" />
      <path fill="#ea3839" d="M665.594 100.523l-2.118-23.984-3.416 9.467-.376 10.753" />
      <path fill="#d19fa7" d="M582.28 34.196L549.327 142.72l-6.423-50.736 43.77-9.213" />
      <path fill="#fff" d="M972.027 421.855l-77.38 24.33 128.2 96.815 5.996-305.82" />
      <path fill="#f2dddd" d="M495.768 326.446l54.556 2.42-9.732-11.357-26.596 17.352" />
      <path fill="#fff" d="M251.497 91.49l170.51 2.26-204.774 4.116-95.728-3.34M766.27 394.94l27.89-1.057 29.532-79.672L692.25 394.9" />
      <path fill="#f9feff" d="M886.388 264.698l64.268 55.772 3.035 19.595-95.186-61.6" />
      <path fill="#fff" d="M530.443 61.928L451.3-9.614l39.878 124.56 22.76-100.917" />
      <path fill="#69c951" d="M632.303 364.015l32.827 67.568-4.81-3.7-21.582-20.316" />
      <path fill="#fff" d="M209.4 254.08L91.58 156.675l84.28 106.418 34.41 35.01" />
      <path fill="#a9d6ec" d="M76.35 188.25l47.87-44.028-45.794 17.517 35.372 56.687" />
      <path fill="#f86b6c" d="M809.336 226.52l23.506 6.69 82.86 4.173-74.7 1.435" />
      <path fill="#6d609a" d="M677.436 91.814l6.406 101.425-9.917-10.45 3.008-26.413" />
      <path fill="#fff" d="M390.698 338.398l148.593 130.46-71.757-146.702-100.863 12.45M78.63 216.34l129.775-79.826.36 91.82-107.73-70.767" />
      <path fill="#41657e" d="M580.562 365.24l-18.628 7.405-8.846-10.146 70.513 1.535" />
      <path fill="#fffeff" d="M663.244 249.127l-31.168 99.91-44.738 63.795 85.484-68.5" />
      <path fill="#fff" d="M136.26 332.81l103.99-9.56L313.324 543l-177.43-122.772M995.77 131.767l-30.697-12.73 17.514 113.4-39.78-92.67" />
      <path fill="#55ac42" d="M681.836 398.178l2.508 10.787 12.054-38.208 7.626 17.455" />
      <path fill="#d79084" d="M888.054 384.36l-70.34-55.214 5.505-13.08 57.477 70.615" />
      <path fill="#4d5152" d="M212.633 117.747l6.004 15.022-15.726 1.007 20.62 4.556" />
      <path fill="#545454" d="M733.703 395.42l77.645.92-68.056 3.478-27.286-2.164" />
      <path fill="#f09d9f" d="M116.064 124.155l70.1-23.153-45.253 32.26-13.39.46" />
      <path fill="#e2444e" d="M528.34 309.236l-5.734-10.663 63.857 7.6-43.8-8.852" />
      <path fill="#a2c4a8" d="M304.82 325.394l99.102-6.358 33.526 7.386-61.957 3.193" />
      <path fill="#747db7" d="M503.69 175.554l8.537 63.798 6.15-58.823 85.926 1.806" />
      <path fill="#fff" d="M56.968-22.755L117.22-31 84.588 169.946l21.68-31.492" />
      <path fill="#cbc55a" d="M117.932 397.347l16.933-29.194-9.465-6.79 5.022 40.14" />
      <path fill="#2e9e97" d="M530.453 405.076l21.395-30.056-3.664-1.57-11.033 47.884" />
      <path fill="#fff" d="M-12.305 98.004l202.738-54.928 29.67 23.32L270.337-31M623.02 543l59.446-143.09 12.91 102.91 69.406-116.784" />
      <path fill="#131812" d="M818.154 242.835l-111.313 3.293 64.934-3.46 30.207 5.557" />
      <path fill="#c2bddd" d="M583.064 366.736l31.86-30.103-15.452-15.37-6.578 28.145" />
      <path fill="#a5a5a4" d="M800.82 25.216l-42.977 6.036 25.96-1.22 113.404.807" />
      <path fill="#6fb6af" d="M847.912 401.807l11.582-35.26-48.455 6.28 32.555-13.298" />
      <path fill="#eaf6ec" d="M535.758 236.928l84.472 5.06-85.753-.24 28.53-9.545" />
      <path fill="#777f7f" d="M95.882 96.152l-14.736-13.13-10.218 4.6 11.95 9.315" />
      <path fill="#c8c97e" d="M856.095 404.143l.096 91.323 26.377-23.787-13.582 20.54" />
      <path fill="#f8ffff" d="M912.625 329.375l-4.198 21.68-18.24-26.272 16.945 8.69" />
      <path fill="#969493" d="M83.282 273.295l-5.84-6.804-37.143 9.966-3.087-14.402" />
      <path fill="#7d7e7a" d="M924.968 297.125l-7.504-3.743 36.453 3.976 2.89 2.253" />
      <path fill="#951017" d="M563.634 375.194l-4.678-26.2-21.644-38.86 10.92 3.02" />
      <path fill="#7e8a84" d="M472.554 96.175l2.196-24.282 5.185.588-.728 14.433" />
      <path fill="#fff" d="M199.434 307.125l75.028 6.183 83.938 1.558-48.596-4.47" />
      <path fill="#6be04c" d="M926.43 441.696l-16.474-89.046 13.207.962-21.995 43.313" />
      <path fill="#fff" d="M1021.314 23.174l-50.6 310.796-25.42-92.454L1055 350.362" />
      <path fill="#728ac6" d="M764.383 157.28l22.84-5.88 39.01-43.19-17.296 48.425" />
      <path fill="#85827d" d="M242.46 37.452l18.57-17.172-24.096-1.92 12.55 12.795" />
      <path fill="#9c9c9c" d="M755.07 453.56l14.223 7.132-24.767-53.182 20.624 18.303" />
      <path fill="#fffefe" d="M521.92 282.633l-61.662-77.176L331.64 86.177l200.177 242.065" />
      <path fill="#fff" d="M407.836 308.428l-69.938 1.264 76.603 8.566 12.725-6.302" />
      <path fill="#94917e" d="M85.076 322.23l105.752 4.796 29.394-3.042-67.53-1.153" />
      <path fill="#ab96ac" d="M593.754 418.536l25.125-42.31-27.158 50.386 61.25-14.567" />
      <path fill="#fd99d1" d="M178.99 293.383l4.588 15.755-50.016.468 4.392-16.516" />
      <path fill="#808981" d="M244.174 349.43l14.224-9.083-18.29 3.29 44.507 18.46" />
      <path fill="#3c4dfb" d="M928.767 354.21l-.313-8.15-15.234-27.682-8.13-6.183" />
      <path fill="#fff" d="M345.653 162.02l-32.913.75 56.354 111.667 65.683-103.71" />
      <path fill="#f6625e" d="M871.87 165.95l-21.168-6.363 9.312-2.343 22.854 3.835" />
      <path fill="#bee4de" d="M535.166 367.98l-18.653-48.048 45.56 58.986-45.485-11.333" />
      <path fill="#6d656b" d="M342.673 293.388l-.122 1.983-4.694 11.025 2.003 44.918" />
      <path fill="#c4c4a4" d="M622.406 468.555l-45.323-8.604-40.38 35.545 40.897-25.97" />
      <path fill="#434d49" d="M519.85 248.488l-30.587-4.974 33.62.976 13.835-11.424" />
      <path fill="#e2dfea" d="M527.225 209.24l27.766-2.21-46.104-45.293 37.987-7.82" />
      <path fill="#fbeefc" d="M586.91 348.17l-22.756 7.535-8.927-52.02-14.66-.586" />
      <path fill="#a3d3ea" d="M116.442 154.22l35.5 24.106-5.647-20.022-60.5-18.46" />
      <path fill="#fff" d="M139.224 118.653L-31 53.365l79.76 149.192-23.828-91.564" />
      <path fill="#5e67b5" d="M966.016 346.674l-17.37-39.135 24.692 34.716-33.017 37.473" />
      <path fill="#415fae" d="M883.285 100.756l1.917-18.79 44.19-.916-28.402 6.912" />
      <path fill="#b0dbf0" d="M83.803 157.146l28 96.89-17.102 55.234-2.187-106.867" />
      <path fill="#6980bd" d="M745.032 131.074l27.732 96.126 4.564-7.78-2.44-87.556" />
      <path fill="#9f9baf" d="M530.838 60.44l21.99 10.758-4.322 67.278-4.352-106.565" />
      <path fill="#fff" d="M790.688-31L313.42-3.32 536.5 26.606l103.803-.864" />
      <path fill="#d84c58" d="M831.614 109.363l65.395-1.817 29.963-5.82-18.725 10.84" />
      <path fill="#fff" d="M463.205 286.13l-83.084-38.12 154.84-7.627-69.907-6.714" />
      <path fill="#efe4e2" d="M799.997 218.278l-8.204-61.975 11.485 86.472-31.035-1.033" />
      <path fill="#98968a" d="M678.2 272.146l2.06-25.327 7.715-4.295 4.888 21.454" />
      <path fill="#e7e2eb" d="M861.995 120.152l-19.74-.065-9.47.878 68.162 28.303" />
      <path fill="#fff" d="M543.805 31.92l8.617 35.124 22.676 6.682-5.363-42.443" />
      <path fill="#ea595b" d="M761.713 107.826l1.804-11.395 4.026 2.732 25.516 2.61" />
      <path fill="#f9adac" d="M185.516 79.875l36.5-5.86-9.53 40.87-19.54-2.44" />
      <path fill="#fff" d="M663.195 405.032l150.403-2.693 13.52 131.896-34.532-135.446" />
      <path fill="#a89da5" d="M739.67 43.646l-11.76 6.235 4.68 40.86 9.366-37.814" />
      <path fill="#6472af" d="M695.483 187.943l.19-133.345 9.14 121.987-3.077 61.216" />
      <path fill="#ebcbd0" d="M489.882 165.377l35.536-8.88 144.153 3.358-67.504-10.304" />
      <path fill="#fff" d="M104.143 453.693L-31 289.575 113.485 476.79l16.852-30.628M501.123 138.142l-2.388-62.32-281.78 215.892 278.512-64.89M362.03 300.9l-34.842-18.364 59.12-6.56 41.406-2.333" />
      <path fill="#f6e7e6" d="M563.337 107.743l34.304-37.506L646.885 16.3l-96.957 85.674" />
      <path fill="#deccd9" d="M736.875 180.488l-59.066-53.324L688.55 98.39l8.316 33.898" />
      <path fill="#fcf6f1" d="M853.457 231.188l5.335 11.745 166.748-13.31-136.385 13.02" />
      <path fill="#fff" d="M40.116 281.06l2.793 174.866 27.604-159.074 128.897-7.62" />
      <path fill="#e4e7eb" d="M892.36 215.12l63.635.743 15.832-85.367-61.172 101.09" />
      <path fill="#9a9a9a" d="M994.832 123.37l.624-22.272-17.103-25.056-1.183 17.494" />
      <path fill="#306e1e" d="M874.522 403.78l8.066 10.28 21.478 20.254 1.158-12.992" />
      <path fill="#1c3963" d="M885.606 363.645l31.69 7.55-29.498-14.513-8.157 3.754" />
      <path fill="#766974" d="M330.253 266.14l-30.936 21.063-1.24-12.368 27.563 6.33" />
      <path fill="#fff" d="M42.996 182.768l57.04 83.588-28.447.3L-31 252.125M896.228 247.104l-114.83.052 123.547 3.02 125.366-.052M948.373-31l95.36 87.61-227.237 9.75 101.868 2.748" />
      <path fill="#d8d6e4" d="M663.674 219.227l28.568-17.244-30.965-24.663 8.43-47.163" />
      <path fill="#127870" d="M523.408 359.228l.948 8.132 6.445-1.73 2.345-11.276" />
      <path fill="#66615c" d="M237.22 83.786l-8.775-33.252-1.75 18.826 8.347 8.51" />
      <path fill="#adb2b1" d="M508.117 400.06l-10.635 12.983 41.236-8.177-24.02-1.337" />
      <path fill="#fff" d="M709.748 407.37l82.943-101.58-125.763-43.977 8.273-10.9" />
      <path fill="#fff7f2" d="M871.25 390.997l-16.706-16.495 19.747 5.41-.277 25.32" />
      <path fill="#cecc88" d="M129.915 419.3l-6.48 18.38-29.256 10.88 38.342.327" />
      <path fill="#fff" d="M177.44 503.928l-.993-85.664L83.255 543l82.847-97.23" />
      <path fill="#fbfaf6" d="M331.918 93.667l-30.413 7.945-7.984-41.98-63.08 5.41" />
      <path fill="#6a81b4" d="M330.815 114.642l-18.148-16.53-2.848 18.288 21.277-11.46" />
      <path fill="#796364" d="M527.854 326.623l-5.975-11.268 38.33 34.656-19.016 5.025" />
      <path fill="#e64d4b" d="M541.495 153.014l-28.448-2.53-1.595 5.983 22.298.632" />
      <path fill="#b4acc5" d="M827.848 107.867l-27.09-54.956 19.157-11.234-16.688 181.445" />
      <path fill="#fd7872" d="M504.32 176.357l-2.69-23.287-2.545 14.996 2.647 42.95" />
      <path fill="#abb6ca" d="M277.372 94.734l66.932-21.295-37.16 23.448-33.81-36.393" />
      <path fill="#f5e7e9" d="M644.953 174.095l-.475 9.712-4.843 25.89-13.672-43.586" />
      <path fill="#37b911" d="M689.39 419.617l-10.27-21.227-26.174-25.86 33.77 22.324" />
      <path fill="#fff" d="M208.62 215.785l18.214 17.61-3.678-125.596 134.192 90.487" />
      <path fill="#e2282e" d="M553.494 301.674l4.502 6.465 27.497 2.104-8.65-5.315" />
      <path fill="#f0dcdf" d="M773.514 202.72l-35.98-4.82 58.425 14.313 10.67-30.7" />
      <path fill="#a1a4d2" d="M1001.497 316.017l11.45-15.384-32.035 6.258.554 6.908" />
      <path fill="#7588b6" d="M449.844 76.41l-12.452 23.35 18.88-18.98-8.585-7.82" />
      <path fill="#fff" d="M82.536 413.3L21.53 543-31 395.726l173.444 6.324" />
      <path fill="#484848" d="M430.796 274.345l-6.186 6.63 8.206 11.143-7.14-22.336" />
      <path fill="#f6fef6" d="M662.95 414.41l10.614-25.45-31.494-1.185 25.344 28.243" />
      <path fill="#4ca839" d="M956.948 393.417l-30.98-15.72-25.27-21.723 26.36-5.644" />
      <path fill="#5e6aa6" d="M889.144 137.524l-9.86-2.953 17.607-15.8-5.174 128.748" />
      <path fill="#fff" d="M228.627 61.147l-53.66 2.37L3.36-12.08 172.84 76.858M703.47 35.96l39.21-3.494 8.723.845-50.997 37.33" />
      <path fill="#fd615e" d="M668.46 184.445l21.482-3.67 7.522.842-26.883-5.34" />
      <path fill="#fff" d="M740.92 68.585L744.026-31l5.167 93.49 115.59 1.485" />
      <path fill="#ecc8cd" d="M941.94 81.255l-82.252-7.21-101.168-.33 39.17 6.046" />
      <path fill="#ff8ad5" d="M260.714 291.963l-20.91 4.27L252.69 314.3l5.014-7.536" />
      <path fill="#fff" d="M977.907 442.625L823.675 543l114.75-120.518-29.55 5.5" />
      <path fill="#5965a5" d="M650.796 228.323l-66.88 1.002 75.89 8.356 20.372-20.795" />
      <path fill="#e2dea2" d="M110.654 308.588l-7.813 136.06-7.695-32.727-1.366-88.25" />
      <path fill="#fff" d="M409.42 54.03L227.372 36.61l246.084-57.096L421.19 95.254" />
      <path fill="#9c9e2e" d="M586.094 441.458l-8.415 30.352 10.302-21.69-27.086-19.315" />
      <path fill="#cfc95a" d="M126.555 317.937l3.79 38.423-10.904-7.893 13.235-35.216" />
      <path fill="#e56263" d="M793.584 182.417l-1.763-24.353.577 51.785-8.076 8.56" />
      <path fill="#6476b4" d="M656.588 124.13l27.165-21.87-4.412 15.39 7.452 7" />
      <path fill="#fff" d="M311.057 82.268l-.66 29.01-23.055-42.48 18.812 4.12" />
      <path fill="#9e9d9a" d="M215.36 63.82l-10.062-7.608-51.43-7.562 2.105 7.36" />
      <path fill="#98983a" d="M551.63 491.046l.44-23.075-10.59 26.076-.92-1.557" />
      <path fill="#fbc4bf" d="M645.463 101.378l-54.404 16.407 34.072 1.814 13.715-46.88" />
      <path fill="#b6abb0" d="M649.258 48.91l13.195 39.194-7.155-1.177 11.918-42.05" />
      <path fill="#77666c" d="M255.255 352.407l1.75-63.692-2.807 45.914-9.317 6.67" />
      <path fill="#b87024" d="M575.73 352.338l5.236 46.785 8.865-49.093-14.728 11.66" />
      <path fill="#fff" d="M982.837 320.46L1055 310.18l-123.804 223.74 25.842-149.77" />
      <path fill="#4247ad" d="M616.765 368.755l2.713-3.327-16.724-5.837-16.713 1.677" />
      <path fill="#d0cd7b" d="M99.443 484.708l25.943-14.162 1.81 15.294-38.264-10.7" />
      <path fill="#8c5290" d="M608.494 413.973l-16.048-5.388 16.196-3.993 13.287 21.21" />
      <path fill="#925c51" d="M857.972 367.666l3.172-23.028 15.595 1.124-13.126 8.165" />
      <path fill="#7b89c3" d="M596.84 84.842l-11.056-9.958 44.56-2.142-29.58 14.522" />
      <path fill="#fff" d="M262.033 344.015l51.036-12.66-89.37-.62 22.665 2.005" />
      <path fill="#94a3cf" d="M815.722 205.128l35.536 9.037 36.358 2.516-88.068 12.854" />
      <path fill="#c291a7" d="M736.575 132.998l29.15 14.406-40.462-4.584 8.796 80.852" />
      <path fill="#f9ffff" d="M676.996 235.716l-12.918 2.935 131.196 1.31-151.403 1.102" />
      <path fill="#607dbc" d="M655.463 109.495l-9.745-36.73-.33 53.977-.153-3.695" />
      <path fill="#8a9dbe" d="M471.885 85.132l-40.86 9.47-29.51-16.024-13.083 12.75" />
      <path fill="#fff" d="M134.672 126.085l6.477-44.398.482 78.623 96.715 20.417M474.53 123.306l-93.2-8.34-57.953 13.627-20.124-15.544" />
      <path fill="#fefffe" d="M431.318 294.857l-213.326-177.88 84.563-4.074-80.967 19.323" />
      <path fill="#edf2ef" d="M853.325 435.96l42.343-71.837-28.99 44.737 17.076 41.278" />
      <path fill="#7f7d80" d="M858.51 245.328l5.38 18.62 37.83-13.55-42.93 17.13" />
      <path fill="#fff" d="M534.565 283.215L263.497 235.07l285.93 16.786-12.008 74.123" />
      <path fill="#969c56" d="M526.874 448.157l14.264-27.517-8.22 28.162 22.724 37.593" />
      <path fill="#da2229" d="M509.77 80.967l.67-12.035 34.493.376-33.838 4.833" />
      <path fill="#9fafcd" d="M263.822 43.44l4.324 19.976-36.248-10.41-1.088-7.528" />
      <path fill="#86b88e" d="M316.412 266.97l86.196 8.417-68.863 1.086 13.873-13.074" />
      <path fill="#ebedf5" d="M519.555 80.496l71.586 10.238 28.528-1.993-98.166-14.994" />
      <path fill="#f19c9a" d="M826.7 209.87l-41.443-1.518 42.16-17.865-16.254-14.663" />
      <path fill="#d5dbec" d="M636.197 204.01l-45.567 7.94-7-13.204 19.94 23.437" />
      <path fill="#595959" d="M805.353 394.05l1.38 9.753-8.284-3.65-20-3.36" />
      <path fill="#6879b5" d="M781.156 91.858l49.003 12.458-104.704-39.142 22.75 43.183" />
      <path fill="#308519" d="M941.052 427.716l-35.152 10.1 33.013-5.065-3.255 1.555" />
      <path fill="#fefffe" d="M378.67 274.99l6.827 31.393 20.47-46.628 20.862 38.362" />
      <path fill="#9c2222" d="M866.048 333.68l-16.625-25.715 8.948-2.788.34-1.428" />
      <path fill="#fff" d="M822.555 226.74l-4.127 24.644 14.18 57.352 44.337-21.784M542.995 427.866l-139.505-87.13L112.433 543l339.435-28.393M53.564 265.978l96.953 1.608-53.288 37.39 109.797-55.738" />
      <path fill="#7b7b7b" d="M141.632 238.73l15.135 16.6-.323-.422 4.554-14.21" />
      <path fill="#f4c0bf" d="M852.533 119.695l82.19 16.74-32.943-18.63-85.15 11.048" />
      <path fill="#6c79bd" d="M917.186 223.26l2.635-13.568 9.21 14.56-31.036 10.892" />
      <path fill="#ed8d90" d="M152.5 60.266l9.587 34.983-22.918-35.112 5.365 25.283" />
      <path fill="#f6f5f8" d="M533.226 171.185l-156.73-2.753 154.398 9.014 41.23-56.914" />
      <path fill="#9c9c9c" d="M922.373 20.1l6.917 7.044-2.15 12.28-17.705-12.868" />
      <path fill="#848484" d="M158.247 289.2l32.802-6.81-25.15-6.212-8.633 2.302" />
      <path fill="#fefef8" d="M410.043 509.31l139.78-26.937-16.852-26.74-11.706 49.248" />
      <path fill="#151916" d="M751.253 246.738l121.53.127-97.504-2.775-105.28.74" />
      <path fill="#eff1dd" d="M588.882 452.516l-42.456-22.428 38.298 47.08-43.294-17.52" />
      <path fill="#fff" d="M363.485 313.717l-60.27 202.05 43.346-188.38 27.85 2.595" />
      <path fill="#555b6a" d="M390.34 101.43l-15.59 23.368-4.978 12.004 18.214-25.8" />
      <path fill="#636873" d="M307.18 72.372l-5.517-1.634L272.29 43.43l36.08 23.633" />
      <path fill="#f9f3fa" d="M636.757 398.156l-43.038 39.672 43.036-51.328-22.94 6.773" />
      <path fill="#fff" d="M468.932 221.14L366.825 100.248l4.098 15.9 143.05 7.84" />
      <path fill="#6c7894" d="M395.287 52.453l12.658 40.438-12.58-4.56 13.8-32.235" />
      <path fill="#fff" d="M729.306 390.925l-25.498-142.683 184.39 66.892-59.035-82.532" />
      <path fill="#f6fcf9" d="M231.9 91.053L129.19 93.5l79.56 6.445 112.22-54.093" />
      <path fill="#fff" d="M1008.58 543L892.984 430.86l40.728 12.575L802.55 543" />
      <path fill="#fcfffb" d="M653.75 371.16l91.83 50.22 10.97 103.162-80.544-159.038" />
      <path fill="#de8b69" d="M224.908 237.23l-31.512-8.38 18.57 9.395 3.766-20.13" />
      <path fill="#fff" d="M108.544 224.75l8.234-134.53-.482 84.17 26.193-23.22M455.677 74.844l26.196-7.495 14.304-54.224L383.952 74.06M624.994 66.185l-53.56.524 69.59-34.33-88.394-1.32" />
      <path fill="#d7939f" d="M545.68 113l55 50.755-43.28-26.453-11.223 5.332" />
      <path fill="#fff" d="M118.015 329.626L-26.87 342.458l153.387-6.29 159.405 27.38" />
      <path fill="#fff" d="M78.188 385.588l68.316-1.73L-31 360.6l24.298-213.44M553.893 282.328l-156.16 43.442 22.695-23.15 27.404 60.322" />
      <path fill="#f2e2e4" d="M587.266 122.004l4.062 30.988-28.97-35.226-15.75 33.834" />
      <path fill="#fff" d="M292.052 266.104l5.685 80.935-13.232-54.89-73.158-16.447M898.865 25.053L780.03 27.29l94.848-56.07 48.45 71.973" />
      <path fill="#949796" d="M181.283 234.608l26.052-2.318-23.914-12.115-5.242 1.73" />
      <path fill="#99bc93" d="M689.626 368.383l-28.13-16.22 3.525 19.756 22.79-3.688" />
      <path fill="#fefffe" d="M251.608 328.367L100.038 543l18.825-267.912-1.957 218.028" />
      <path fill="#fff" d="M537.275 318.698l-29.02 30.65-207.544 21.703 136.593 3.164" />
      <path fill="#fdfcf8" d="M446.31 256.822l205.188-6.49 26.05 2.416 6.547-6.003" />
      <path fill="#fff" d="M222.193 303.358l149.413 10.5-127.216.416-32.797 57.574" />
      <path fill="#d3c7d7" d="M901.864 158.38l-108.99.792 101.89-6.858 60.172 37.71" />
      <path fill="#fffffd" d="M223.085 62.264L255.248-4.97l-56.09 81.21-14.704 22.532" />
      <path fill="#fff" d="M729.04 468.28l105.575-46.727 15.843 64.09 5.405-22.126" />
      <path fill="#8680b2" d="M659.062 153.93l-15.977 1.03 16.72-20.262-68.288 13.116" />
      <path fill="#6071af" d="M776.792 171.39l-34.736-24.85-6.406-40.226-.61 69.826" />
      <path fill="#9e9e9e" d="M579.6 29.04l5.173 2.318-70.91-5.792-34.935 6.026" />
      <path fill="#fff" d="M840.217 367.998l6.75 33.493 2.883 13.64-25.03.57" />
      <path fill="#6b82c1" d="M654.742 184.847L637.57 162.39l29.826 13.797-15.886 14.207" />
      <path fill="#9ecba5" d="M369.736 310.4l73.303-12.96 20.61 7.363-87.24-14.347" />
      <path fill="#7d93c0" d="M381.86 84.466l-63.215 7.937 77.265-3.155-13.764-18.02" />
      <path fill="#929392" d="M979.917 209.69l8.06.107 5.033-19.143-17.624-27.797" />
      <path fill="#f8faf9" d="M928.656 153.01l-25.68-15.737 64.864 18.984L993.534-8.047" />
      <path fill="#cb6f80" d="M849.075 240.255l-45.706-18.307-1.596-.232 11.352 10.287" />
      <path fill="#d4d6e6" d="M779.616 161.292L743.5 215.796l16.505-39.024 72.433-1.62" />
      <path fill="#edebf0" d="M789.16 71.48l12.443 26.727-24.73 2.527 3.34-.81" />
      <path fill="#a2d1aa" d="M293.72 285.84l-32.382 23.056 66.434-1.984-25.404-27.257" />
      <path fill="#986819" d="M579.456 371.667l12.532.558-21.667 36.91 5.658-12.47" />
      <path fill="#455152" d="M214.822 259.09l1.915-19.58 1.648 71.62-2.167-10.818" />
      <path fill="#e96c72" d="M143.455 127.39l11.396-9.253-2.196 13.526-11.305-22.39" />
      <path fill="#8890ba" d="M956.027 297.4l-17.652 9.955-20.04 28.514 29.575-34.188" />
      <path fill="#b8c07f" d="M845.347 420.697l26.357 36.065-1.905-9.787-31.724-6.953" />
      <path fill="#fff" d="M432.708 274.242l-44.345 20.23-62.316-17.045-2.673 22.226" />
      <path fill="#fffaf9" d="M553.39 312.967l21.446-5.467-4.358 8.258-23.37-12.936" />
      <path fill="#b9f8aa" d="M701.633 390.18l-.082 34.45-17.793-32.93 9.258 10.28" />
      <path fill="#afafae" d="M640.56 25.88l-2.04 1.11-134.748 2.89 146.802 1.716" />
      <path fill="#fbfdfb" d="M315.37 251.29l-91.9-23.896 84.507 43.418 2.923 78.66" />
      <path fill="#9eae8c" d="M875.847 413.215l21.492-37.883 12.495 2.86-65.175 52.635" />
      <path fill="#6f7cb7" d="M607.34 172.21l-60.984 8.65 34.26 1.973 19.26-46.52" />
      <path fill="#fff" d="M142.144 49.24l-5.952 104.79 82.9 45.067-92.678-86.472" />
      <path fill="#34858b" d="M565.47 364.725l-28.143 3.563-5.003-3.114 42.688-4.81" />
      <path fill="#3a9d11" d="M914.697 382.236l21.198-11.258-22.294-5.56-18.718 3.337" />
      <path fill="#fff" d="M696.924 287.5l-9.32-40.233-51.363.24 234.736 2.146" />
    </g>
  </g>
</svg>