<svg version="1.1" viewBox="0 0 165 225" width="165" height="225" xmlns="http://www.w3.org/2000/svg">
  <g fill-opacity=".5">
    <path d="M25 150l1-71 15-38-10 85m68 46l23-22-38 20-21-15m96-16l-27 49 19-46V48" />
    <path d="M94 41l-67 59 75-56 32 48m14-40l1 45 6-15-33-54m9 161l-29 14-65-24 38 22" />
    <path d="M29 152l-5-58 13 68 20 45m-1-84l8-54 1 60 1 25m52-76l5 66 6-38-11-37M90 209l57-61-39 50 2-4M81 17l28 3 23 12 7 9m-27 134l-28 35 79-116-34 55" />
    <path d="M34 169l-8-27 28 50 21 8m38-177l-26-5-48 29 27-22m85 136l-11 13 7-28 7-37" />
    <path d="M105 21H78l30 4-71 55" />
    <path d="M62 84l-5 2v21l25-63m37 17L84 47l19 3 23 32m-7 67l5-24 19-12-56 75m-27-11l11-22 7 2-35 26m73 15l-43 3 46-13 18-10" />
    <path d="M142 53l-39 38 41-45 10 37m-94 4l-25 21-10 28 1-16m77 46l3 2-19-4-5 11" />
    <path d="M26 124l10-56-8 84 15 30" />
    <path d="M111 21L71 50 26 89l33-27m60 44l15-14 23-27-13 21m-4 73h-1l18-33-49 68m47-86l-55 76 35-41 17-23" />
    <path d="M112 65l26-20-35-26 33 20M30 166l27-25 23 33-14-45M26 74l71-56-66 60 16-40m104 28l3 34 1 59-9-107M21 136l21-22 22-13-21 16" />
    <path d="M56 80l56-55-29 28-59 50m30-64l22-14-28 10-27 61m65 106l-52-25 43 28 16-29m59-111l3 52V93l-18-53m-6 57l-13-7 24-24-25 18m-51 68l-29 20 25-23-4-26m69 64l-2 10 19-27-5 1" />
    <path d="M121 134l9-49-2 50-18 28M86 31L60 52l33-35 2 6m-27 88l-13 7-22 15-8 11m36-5l16 33-11-40-22 19m17-94L34 85V62l-5 21m118-24l-25 34-5-32 1 28M50 191l-7-18 30 28 27-1" />
    <path d="M78 186l-19 11 6-1 23-29m31-141l-95 78 93-83H66m-3 107v-25l-3 22-37 25m28-38l15-11-12-10 16-17m87 9l-27 27-6-44 3 55m-20 61l-6 13-12 7 35-44" />
    <path d="M58 97l19-39-12 15-1 50m89-58l-26-33-29 31 28-25M83 191l39-43-23 21-23 36m-26-5l26-35-15-28 19 32" />
    <path d="M24 116l-3 3 50-41-42 39m105-10l-13-30-2-14-14-12M48 179l-5 5 37-34-29 31m74-41l-6 11-7 8-16 13m-4-6l-16-3 9 7-20 26" />
    <path d="M26 107V79l2 4 4 74M54 30l3 3 35-14-19 4m73 28l1 13-14-29-23-12" />
    <path d="M109 51l15 28-21-27m-74 69l-2 17 20 45-9-9" />
    <path d="M30 76l19-28-24 47 1 49m123-70l-21 25 11-8 10-14m-22 11l1 43-2-16-1-36m6 114l-8-4 20-20 10-30M31 149l27-24-7 9-16 8m90-113l-25 21-16 5 16-8" />
  </g>
</svg>