<svg version="1.1" viewBox="0 0 165 225" width="165" height="225" xmlns="http://www.w3.org/2000/svg">
  <g fill-opacity=".5">
    <path d="M113 197.3l-5.7 9.3-5-164.6L109 5M73.4 41l-.8 192.5-8-173.7L70 19" />
    <path d="M63.5 198.4l7.8-109 1 106.3 46.6 9.6" />
    <path d="M70.5 29l47.3-2-54.3-3 7.8 69.5M110.8 199l.3-129-3 108.4-5 23" />
    <path d="M112.4 109.7L107 16l-1.6 95.6-31.2 25.2m-7.4 69L69 123l10 85.3L90.4 193" />
    <path d="M113.4 92.2l-35 30 26.3-26L127.4 86M82.6 73l36-33L103 52l-6 2.4m2.7 77.6l5-6.6-.5-3-39 40.5M104 80l-.5.3-24.2 19-1.8 6.7m38 47.7l-6-4.6L65 192l29-33m6-110.7l6.7-8.7L94 45.3 70 77.8" />
    <path d="M109 60L71.6 97.8l37.6-31.3-7-25.7m.5 99.2l9.7 21.3-3 27.6-3.2 9m-40.4-62L85 113l24-22-46 51.5" />
    <path d="M73.5 203.2L70.3 96.7l1-76.6-7 69" />
    <path d="M109.2 160.5l-27 30.5-20.2 9.8L91 177M75 58.3L104.6 21l1.2 6.2-40.5 38.4" />
    <path d="M111.5 123.4l-7-106 1.5 81.4 7.2 59.4M76.4 169l-6.3-3 2 3.8 29-27.3" />
    <path d="M108.7 21.6L106.4 163V27L59 28" />
    <path d="M75.8 84.6L66.3 92l27-32.6L76.5 84M59.3 201.3l6-1.7 40.5 2.7-.2-6.4M69 102l3.2.3 19.4-21.6L87 85m21 58l-10 1-23.6 27.3 37.5-37" />
    <path d="M109.4 129l4 26L77 191.4l34.3-32.6m-27 43.7l-3.3-2.2 6-5.7 28-28.3m-5.7-46.3L65 165l10-11-4.2 1.4M73 48.6l6.6-20.8L58 56.4l42-35m-3.8 95.8L67.4 153l1.3-52.6 7.4 32.4" />
    <path d="M110.8 184l.7-32-7.4 15.4 2 31.4" />
    <path d="M106 196l1.8-108.6 1.4-46.8-4-12.8" />
    <path d="M62 125l22.2-26.5 24-19 1-7.3m-40.7-5.7L63 38.8l5.7 21 22-20" />
    <path d="M68.2 168.7l-1.3-75 3 22.8 2 36.5m-2 45.8l-1 2.2 43-48-2.6 9.6" />
    <path d="M103.8 199.6H59.6l32 1L117 187" />
  </g>
</svg>
