<svg version="1.1" viewBox="0 0 165 225" width="165" height="225" xmlns="http://www.w3.org/2000/svg">
  <g fill-opacity=".5">
    <path d="M131 203l-95-2 90-8 23-18m-126 5l60-59 71-87-76 105" />
    <path d="M131 162l21 36-1-29-80 1m49-150L46 87l76-54-57 29M46 41L28 67l1 17 6-7" />
    <path d="M81 18l49 10 25 45-31-41m-26 71l22-14-22-46 21 18m30 22l-34 64-17 16 46-77M34 82l-3-4 48 1-24 7m14 111l-46 4 82-37-85 45" />
    <path d="M97 18L45 41 27 79l28-47m104 163l-25 3-53 2 50 5m-101-9l4-1v-23l-2-18m80 14l43-5-48 3-62 43M155 80l-40 10 33-16-20-60" />
    <path d="M102 208l44-47 6 35-8-27m-63-38l-51 46 3 25 1-35" />
    <path d="M59 152l50-48 1-29 13-9m24 16l-9 27-11 16 21-55m-80 84l-26 8 17-9 38-11M93 25l12 1-27-5-39 23M27 89l53-32 32-7-29-2m5 157l36-44 8 7-46 31" />
    <path d="M105 54l34-18-57 17 28 2M83 166l18-7-5 4 68 7M52 86l4-3 9 1 16-30M28 202l6-6 17 2 113 3" />
    <path d="M117 165l-70 15-22 10 19-14m53-11l43-59-43 52-6 9m-22-24l56-23-72 34 41-44" />
    <path d="M137 97l-52 20 10-6 26-12M57 82l-29-5 80-61-83 70m112 17l12-4-75 31 52-17m-12-52l10 14 40-23-59 37m-37 77l5-9 49-8-89 20" />
    <path d="M120 29l-10-5-30-5-2 4m34 54l5-10 21-10-29 21m44 123l-55-1 49 2 2-18M129 37l3-5 16 33-4-20" />
    <path d="M139 59l3-24 3 56 4-29" />
    <path d="M112 148l42-72-46 76-50 13" />
    <path d="M125 122h-10l-19 11 16-6m-6 74l-5 5 41-38 1-5M133 37l-21 11 24-15-30-10M43 47l-6 25-10 8 6-24" />
    <path d="M144 43l-27 17 1 23-6-25m-2-36l-43 5 50-3-32 24M60 151l-19 19-5-3 48-40m41 37l-31 7-38 17 41-24" />
    <path d="M126 169l-3-2-12-2h37m-58 0l9 3-3-2-66 18m102-88l9 2-31 49 39-56M42 59l36-30-28 20 9-11" />
    <path d="M138 106l-23 8-13 5-24 11m-36 69l111-2-9 7h-4M122 90l3-2 24-12-39 11m21 80l18-4v26l-4-21m-9-130l9 28 7 14-7-24" />
    <path d="M119 68l-5-14-13-5-11-6m14 96l9-3-7 4-31 7m-38 55l-11-5 118 4-68 2M88 19l-2 3 45 11-8-4" />
    <path d="M67 63l34-17-32 12-21 17m-9 132l-7-20-2-3 2 12m35-50l66-28-60 22 13-23" />
    <path d="M53 159l41-53 28-32-56 71M43 46l36-24-4 1-28 16M26 77l26 8-21-1-6-10m30-17l11-6 14-11 22-20" />
  </g>
</svg>