<svg version="1.1" viewBox="0 0 165 225" width="165" height="225" xmlns="http://www.w3.org/2000/svg">
  <g fill-opacity=".5">
    <path d="M66 123l51-59-45 39 39 16m-17 91l-41-15-23-53 6 30m97 3l-30 31 34-15 15-35m-44 16l-31 6 52-24-43 39m51-158l3 42-22 25 10-3" />
    <path d="M121 25l20 36-21-28-49-13m74 99l2 73 3-58-29-34" />
    <path d="M154 145l-65 64 47-19-55 20m0-191L44 48l-1-1 10-14m49 53l-27 15 44-34-21-11m4 125l-26 21 40-41h1M17 150l44 3 31 27-28-40" />
    <path d="M125 156l-45 44 36-45-11-41m-33 8l5-13 64-29-51 27" />
    <path d="M131 199l-67 1h-2l35 6m-56-25l5 4 6 5-26-54m88-105L97 50l-18 8 35-28M76 95l44-16-41 19 2 42m60-81l-22 46 18 8-8-7M82 40l9-10 5 1-63 54" />
    <path d="M148 158l3-28-20-26 14 30M87 88v8l51-26-52 22M36 54l22-16 3-9-25 34m54 46l23 17 8 22-20-27M71 67l-30-3 69-64-66 66" />
    <path d="M114 103h6l-52 21 27-8m42-65l-22 17 32-12-29-29m19 132l-33 33 45-40 6-16M55 148l-27 4 5-9 39 1m42 23l37-29-16 9-32 25M76 43L53 67l56-47-20 14m-24-2l18-8-9-2-26 17m55 12l-8 3 12 19-9 22" />
    <path d="M110 125l-35-9 23-2 6 9m4 47l-22 4-25-21 30 16" />
    <path d="M28 136l14 50 29-25-28 22m94-135l4 5-29-27 18 8M62 195l28-22-20 21 1 12m56-10l24-24-9-46 12 24M56 70l13-4 3 4-39-11" />
    <path d="M93 20l-19 5 46 5 1 2M75 145l-36 30 36-23-36-10m68-6l5-8 31-14-6-1" />
    <path d="M116 95l29 28 2 17-10-31m3-53l-7-11-29 20 30-16M91 161l-13 9-28 18 20-10" />
    <path d="M58 197l-26-29 21 14 25 23m44-175L52 75l46-34 25-17m-44 90l21-12 34-18-47 21m28 47l7 1-20-36 14 19m32 14l-49 46-5 14 29-39" />
    <path d="M131 164l-30 34 31-30 9-13m-33-69l-8-3-15 11 59-29M53 200h40l24 3-17 2m38-90l-6 6-24 10 10-6M85 50l15 3-23-2-16 25m50 66l32-15-30 10 2-4m18 4l16-11-25 23-6 2m-55 14l-21 25 31-30-1 3M50 67l-16-9 37-36-35 39m68-7l28-15-9 1-25 17" />
    <path d="M130 94l-2-2 8-19 3-34M31 149l2-2 12 39-18-37m48-59l4 34 3-47-1 20m21-37L92 48l6 6 9 29" />
    <path d="M139 61l-4-1-6-27 5 8M35 163l15 28 12-11-8 6m69-86l17-33-7 21-22 17M69 35l-9 8-21 25 49-48" />
    <path d="M128 62l33-35-29 30-25 15m-49 73l24 26-19-27-18 19m35 39l40-41-47 46 9-12m68-60l-4 44-18 13 22-25" />
  </g>
</svg>