<svg version="1.1" viewBox="0 0 165 225" width="165" height="225" xmlns="http://www.w3.org/2000/svg">
  <g fill-opacity=".5">
    <path d="M37.6 62l-12 54L71 21.3l-.2 4.2M124 201.3l29.4-26.2-62.6 32 21-1m38.7-32l-.8-39-36.5-54 27.3 50m7.3-84L76 64.6l-22.3 51.3L92 53m1.2 70.8l30 8.8-31 50.3 31.2-35M77 24l35.8-2.5 21.8 3.3-6.4 6" />
    <path d="M138 30.8l-32 28.5-.3-2.2H130m-18.2 38l-74.6 69 82.4-63-55.2 45m23 63l-43.8-22 2.4-1 52.4 18" />
    <path d="M71 159.4l38 17.8-47-9.3 5.6-38M28 151l-.4-60 1.7 25.8L40 174m52.7 30l45.8-11.5 16.7-48L127 198M79 29.8l28.7-8.2-36.5 6-12 11.4m.5 62.8l-.5 12.2 6.7-2 16-59" />
    <path d="M26.2 122l97.2-94L34 109.6l1.6-43.3m2.8 79.5l40-34.6L40 150.4 28.6 159m113.2-1.3l-37.3 44 42.8-65.5-45.8 52.4m-25-16.4l38.4-10-7 7.6-9 7.5m60-57l-49-28L60 109l29-15" />
    <path d="M31 87.4l73.2-65.2-63.5 41.6 58-46M49.4 181.4l5.7 15.8-21-34-6-18.7m96 13.3l-27-38.6-34 11.4 43-6.6m31-108L88 68.5l.6-12.6-28 30" />
    <path d="M108 168l37.5-49-35.7 39L70 204.5m36.3-104.2l-47.5 43.2-26 25 26.6-21m-11.6-27l-13.7 18 20-17L72 103m-35.5 68L56 188l30.3-30-32 36m49-161.5L69 69.2l-46.5 35.6 8.2-6.7M20 167l77-75.7-.7 2.5-20.7 20.7L20 167M91 52.8L74 72l41.8-24 9.4 9" />
    <path d="M53.4 194l32.3 10.5 54.8-13.2-35.4 15m-34-52L50 167l18-18 2-1" />
    <path d="M100.6 174.8l-10.2-8.2-28.6 29.6 55-40.5M26.4 159l2-61.6L36 71.6l-1 21m79.4 110l12-17.7 22.6-22h.8" />
    <path d="M145.4 164.6l4.6-.6.4-19-8.4-18" />
    <path d="M146.4 139.7l-60 65.8-4.5-1 24-22m-71-63.8l-9 9.6 44-31.5 2-6.6m-2 38.6l43-35.3-46 46.2-.4 47.5" />
    <path d="M84.4 94.5l21.4 6-4.5 2.6 15.2-6m-74.2 84L25 141l3-37.8 4 67m80-2l-1-6.3 3-25 2.3 10" />
    <path d="M141.7 126.3l-26 25.5 31.4-26-22-28.4m-5 79.4L99 207l49.7-53.8-25 23.2M25 118.2l68-64.5 30-5.5-33.3 14" />
    <path d="M114.6 21l19.2 15-17.5 16L143 30.5M107.8 99l19.6 6.6 23 28-24-34" />
    <path d="M9.5 123l70-66.7 39-34.6-29 21-80 80.4" />
    <path d="M113.5 21.3l6.2 3.7-34.2 2.3-11.6.2M93 206l-39-14 23.4 13.5L130 196M96.6 97.6L37.2 150l53-52.7-43.7 11.3M78.3 121l28.2 12.3 16.7 29.7-19.6-41.3M67.8 33l-35 40-5.7 49 16-67m28 115l22-1.4 24-9-14 14.8" />
    <path d="M73 171.3l11.6 2 .3-2.6-20-19.2m68-38L98 140l27.8-23 7.3-6m2-81l-9-8.8-15.5 1 11.4 3m20.3 158l-1.6-31 1.3 12 8.2 2.7" />
    <path d="M138.8 18l-8.6 39.8-18-5 15.4-1.2M82 38l22.3-17.7-15 14L27 89.6m13 87.6l33 25.6L43.8 180l24.8-35" />
    <path d="M72.4 206.3L61 197.5 39.5 176l-5-11.3m29.8-82.4L63 100.8l23-36.4 25-23.6M36 84l18-33-16 34.8 21.4-26m92 99.7l-5.7 18.4-1-42 .5-12" />
    <path d="M46 184l-2 .7 22.3-23.2 7.3-3.4m47.6-12l-14 24.7-9.8-1.6-24.7 36M33 76l19-19.7 17.4-14L105 12" />
    <path d="M48.6 186.5l-19-31L28 84.2l-.3 57.3" />
  </g>
</svg>
