<svg version="1.1" viewBox="0 0 165 225" width="165" height="225" xmlns="http://www.w3.org/2000/svg">
  <g fill-opacity=".5">
    <path d="M51 196l60-134-67 114-4 17m84-97l22-11-70 124 6-15" />
    <path d="M138 92l11-20 6-16-7-38" />
    <path d="M34 76l6-42 128-9-137 5m124 5l-39 29-17-8 3 26M67 206l36-4-15 1-36-11" />
    <path d="M149 66l2-21-71 148 5 6" />
    <path d="M108 80l48-33-30 25-34 22m4-30H64l30-6 40-36" />
    <path d="M117 64l-82-7 23-23-33 31m35-39l87-2 4 8-60-4" />
    <path d="M99 73L49 187l44-88 32-55" />
    <path d="M62 174l-26 16 51-27 24-17" />
    <path d="M77 206l-32-32 50-29-59 40m31-42l38-30 29-9-23 13M35 66l-5-37 24-5-20 23" />
    <path d="M52 193l48-29-15 27-1-12m22-141l40-13-46 45 52-47m-9 55l-12-1-77 69 30-31m44 3l-71 45 18-13-21 9m46-118L75 67l18-23 18-17M38 64h1l37-33-15 9m72 62l-41 21-26 21 53-37" />
    <path d="M59 200l-18-14 5-2 32 20m2-75l-5 5 32-70-63 117M57 62l7-15 24-20-8 9m15 124h2l58-120-34 79" />
    <path d="M39 66l64-2 23-7-86 5m70 73l-18 45-40 23 40-17m61-120l-2-35-3 40-18 35" />
    <path d="M115 146v-8h1l-46 19m83-90l-73 49-22 37 17-28m80-98l-2 2-28 30 18-13M98 88l52-35-11 3-27 27m-10-1l2-20-70 1 80-6" />
    <path d="M42 182l35 22-36-12 41-83" />
    <path d="M115 135l4 3-43 19 35-20m-36-2l9-32 20-13-8-1M67 29l89-8-99 10-22 25" />
    <path d="M82 201v-9l54-97-28 54M33 23l-2 36 6 6-1-22" />
    <path d="M49 40L32 59l69 3-69 3m118-28l-8 36-14 20 25-43m-51 85l-40 19 10-1 61-44M22 29l105-6 30 6-30-1m-20 115l11-8-45 73 9-4m-2-73l39-24-11 10-36 21" />
    <path d="M88 39L66 64l18-25 32-3" />
    <path d="M114 37l-1 3 19-19-23 26m11-26L69 74l16-16 6-11" />
    <path d="M60 25h92l-16 2-104 1m16 158l24-51v8l-28 54" />
    <path d="M45 185l53-27-3-4-10 8m38-93l-23 21 39-27 13-11" />
    <path d="M149 60l4-13-47 101 2-2" />
  </g>
</svg>