<svg version="1.1" viewBox="0 0 165 225" width="165" height="225" xmlns="http://www.w3.org/2000/svg">
  <g fill-opacity=".5">
    <path d="M50.7 195.6L110.5 62 43.8 176l-4.2 17.3M124 95.6l22-11L76.2 209l5.4-15.5" />
    <path d="M137.6 91.8l11.7-20 6-16-7-38" />
    <path d="M34 76l6-42 128.3-9.3-137 5.4m124 5l-39.7 29-16.2-8 2.4 25.5m-35.3 124l36.6-4-15 1.4-36-10.6" />
    <path d="M149.3 66l2-21.4-71.7 148L85 199" />
    <path d="M107.8 79.7l48-32.4-29.4 24.4L92 94.4M95.7 64l-32.2-.4L94 58.3l40.3-36.5" />
    <path d="M117.4 63.8L35 57.4l22.5-23.2-32.2 30.3M60 26.2l87-2 3.8 7.8-59.6-4" />
    <path d="M99.4 73.2l-50.8 114L93 98.8l31.8-55.2" />
    <path d="M61.6 173.8L36 190.4l51-27 24-17.6" />
    <path d="M77.4 206.2l-32.6-32.5 49.7-28.3-59 39.6M67 143.4l38.2-30 28.5-9-23 12.2M34.5 66l-5-36.7 24.8-5-20 23" />
    <path d="M52 192.6l48-29L85 191l-.7-12.5m22-141l40-12.5L100 70.4l52-47m-8.7 55L130.6 77l-76.3 69 29.3-31.3m44.2 3.5L56.5 163l18.8-12.6-21.2 9M100 41L75.3 67.3l17.5-23L111.4 27M38 63.5l.7.4 36.8-33-14.8 9m72.3 62.3L92.4 123 66 144l53-37.2" />
    <path d="M59 199.8l-18.5-13.6 5-2 32 20m2.8-75l-5.3 5.2 31.6-70-63 116.2M57 62.3L64 47l23.6-20-7.5 8.5m15 124.8l2-.4 58-120-34.5 79" />
    <path d="M38.7 65.8l64-2 23.7-6.7-86 5m69.4 72.7l-17.4 45L51.7 203l40-17m61.6-120l-2.5-34.6-3 40-18.2 34.8" />
    <path d="M114.6 145.5v-7.3h1.8l-46 18.7M153 67l-72.6 49-22.8 37.3 17.4-28m79.5-98l-1.3 2L124.6 59 143 46M98.3 88.4L149.6 53l-10.3 3-27 27.3M102 81.6l2.3-19.8-70.8 1 80-5.7" />
    <path d="M42 182.3L77.3 204l-36.7-12.2 41-82.4" />
    <path d="M114.6 135.3l4 2.7-42.2 19.3 35-20.2m-36.6-2l9.6-32.4 19.4-13-8-1M67 29l89.3-8L57 31.3 35 55.6" />
    <path d="M82 201.3v-9.5l54-96.4-27.6 54M32.8 23l-1.3 35.6 6 6.5L36 43" />
    <path d="M49.2 40.3L31.8 58.8l69.5 3.7L32 65m117.8-28.4l-8 36.8-13.5 20L153 50m-51.2 85.3l-40 18.2 10-1 61-43.4M22.4 29L127 23l30.4 5.5L127 28m-20.5 114.7l11.4-7.2L73 208l8.6-4.4M80 131.2l38.7-24-10.7 10-35.7 20.4" />
    <path d="M88.3 39L65.8 63.5l18.5-24.3 32-3.3" />
    <path d="M114.2 37l-1.3 3.3L132 21l-23 26.2m11-26.5L69 74.2l16-16.6 6-10.4" />
    <path d="M60.2 25l91.4.4-15.4 1.3-104 1.2m16.2 158l24-51.4-.5 8-28 54" />
    <path d="M45 185l52.7-27-3-4.3-9.7 8m37.5-92.5l-22.8 21L139 63l13-11" />
    <path d="M149.3 59.6l3.7-12.4-46.7 100.3 2-2" />
  </g>
</svg>
