<svg version="1.1" viewBox="0 0 165 225" width="165" height="225" xmlns="http://www.w3.org/2000/svg">
  <g fill-opacity=".5">
    <path d="M51 39l-8 40 5 22-13-39m78 25l-30 18-18-24 17 13m12 76l54-46-58 58-34-31" />
    <path d="M51 36l41-20-52 41v19m78-49l22 64 4-37 1 2m2 80l6 30-24-51 8-4" />
    <path d="M149 171l-38 32 26-14 12-50m-87-5l41-14-33 4 82-80" />
    <path d="M98 176l20-29-14-34 14 45m-84 15l42 30-27-15-17-43" />
    <path d="M95 206l25-8-19-1H59m44-144l12 43-5-41-79 1m74-33l-37 1 49 6 32 33m-88 74l21 35 16-1-31-10" />
    <path d="M64 92l14-36 40 2-46-11M37 165l5 18-11-31 6-29m118 9l-65 73 53-68-40 70" />
    <path d="M153 42L94 97l-31-7 41 2M34 67l37 52-28-25 2 1m40 29l27 5-21-9 36-43m-86 53l3-16-10 15-5 24m105-57l7-36-4 45-22 12" />
    <path d="M145 130l4 19-18-39-1-10M94 23l-32 7 27-5-69 62m111-49l8 51 3-32-43-40M23 174l61-65-27 34 16-15" />
    <path d="M66 62l45-41-51 40-20 21m7 29l30-24-33 34-2 5m71-96v1L45 94v-5m93 83l-15 16-5 10 34-54m-72-23h11l-21 9-12 27m20 19l-12-18 23 11 22-2" />
    <path d="M87 22l25 3h-3l-55 7m51 134l-13 22 24-29 27-36m-33-57l2 4 23-24-9 15" />
    <path d="M108 121l-13 7 1-11 29 34m-87-18l48-41-22-6 18 4m25 8l5-44-6 7 8 16m38 62l-25 28-25 38 39-51" />
    <path d="M138 52l-12-21-30 27 24-19m3 158l-56 5 39 4 27-28M63 73l49-44 9-2 2-4m-23 92l48-41-51 49 17 11m-45 4l-30 30 22-19 4 6M93 22L71 43 52 59l14-15m6 118l-33 33 12-10 22-21" />
    <path d="M57 196l-24-29 43 35-7-2m66-141l3 36 2-9 2-14m-12-35L86 20l-15 8 26-6M28 157l33-34-26 20 5 17" />
    <path d="M36 122l-4 45-2-22 13-26m26 15l79-73-43 35 3 8M40 74l7-34-11 33 27-24m65-11l11 20-9-13-19 10m5 69l-3 30 19-17-16 19" />
    <path d="M40 58l8-16 32-18-21 5M37 161l-8 5 35-35-34 38M93 48l32 40-22-35-45 9m57 79l30-24-32 22-11-21M33 60l9 21h-6l22 28m17-19l15 7-25-14 5-8m29 97l-17-5-38 34 29-30" />
    <path d="M95 174l24-19-26 17-25 33m-35-56l65-60-10 4-32 35m60 18l-9-20 11 10 15-11m9-44l-10 22 21 51-24-46" />
    <path d="M46 184l27 20-24-21-11-10m84 4l-22 25 5 2 21-33m-28 2l-24-3-7-16 10 12m22 16l-10 12 11-19 26-32" />
    <path d="M109 160l13-14-34 51 5-9" />
  </g>
</svg>