<svg version="1.1" viewBox="0 0 165 225" width="165" height="225" xmlns="http://www.w3.org/2000/svg">
  <g fill-opacity=".5">
    <path d="M50.6 39.3L43 79l5 22.3L35 62m77.8 25l-29.5 18-18-24 17 13m11.5 75.7l53.8-46-57.4 58L56 151" />
    <path d="M51 36l41-20.3-52 41.5-.4 18.3m78.7-48.3l21.3 64 4.3-37.4 1 2.3m2.3 80L153 166l-24-51.4 7.5-4" />
    <path d="M149.2 170.6l-38.5 32.8 26-14 12-50.3M62 133.8l40.5-14.3-32.5 4 82-80" />
    <path d="M98.3 175.7l20-28.2-14.4-35 14 45.3m-84 15.5L76 203l-27-14.7-16.6-43.5" />
    <path d="M95 205.8l25-7.8-19.4-.8-42-.6m44-143.2L115 96l-5.5-41.4-78.3 1.6M104.8 23l-36.4.6 49 6.3 32 33m-88 74.5l21 35 16-1.3-31-9.8" />
    <path d="M63.5 92.4l14.7-36.2 40 1.8-46.5-11M37 165l5 18-11-30.6 6-29m118 9l-65 72.3 53.4-68-40.5 70.8" />
    <path d="M153 41.8l-59.5 55-30.2-6.5 40.7 2M34 67l37.2 52.3L43 93.5l1.6 1M85.3 124l26.6 4.7-21-8.2 36-43.7m-86 53l3-15.8-10 15.4-5 24M133.7 96l7.8-36.3-4.8 45-21.3 12" />
    <path d="M145 130.2l4 18.6-18.5-38.4-1-10.7m-35.8-77l-32 7.4L89 25 20 87.4M130.6 38l8.5 51 3-32.3L99 17M22.7 174l61.6-65.3L56.6 143l16.7-14.7" />
    <path d="M65.5 61.8l45.3-41-50.6 40-20.4 21m7.2 29.4l29.5-24-33 34-1.5 5m70.5-96.6l.5 1.2-68.4 63.6.6-5m93 82.6L123 187.6l-4.6 10.4 34-54.3m-72-22.7h10.3L70 130l-12.3 27M78 175.7l-12-18 22.7 11.7 22.5-2" />
    <path d="M86.8 22.3l25.6 2.7-3.7-.5-55 7m51.7 134.8l-13 21.8 23.7-29 27-36m-33-57l2 3.7L135 46l-9 14.7" />
    <path d="M107.7 121l-12.3 6.7.6-10.5 28.6 34m-86.2-18.4l47.2-41-22-6 18.4 4m25.4 8.2l4.3-44-6.2 6.7 8.6 16m37.5 62.3L127 167l-25 38.3 38.7-51.7" />
    <path d="M137.7 51.7l-11.5-21.2L96 58l23.7-18.6m3 157.8l-55.3 5 38.4 3.3 26.7-28m-70-104.8L112 29.3l9-2 2-4m-23.5 92l48-41.4-51 49 17.8 11m-45 4.5l-30.3 30 22-19 4 5.2M92.8 22.2l-22 20.4-18.3 16 13.5-15m6 118l-33 33 12-10L72.6 164" />
    <path d="M57 196.2l-24-28.8 42.6 34.8-7-2.4m66-140.3l3 35.7 2.7-9 1.3-14m-11.4-34.7l-44-17L71 28l26-6.5M28 156.7l33.3-33.4-26.6 19.4 5 17.5" />
    <path d="M35.8 122L32 166.7l-2.3-22L43.2 119M69 133.6l78.8-73-42.8 35 2.6 8.5M39.8 73.8L47.2 40l-11 33 26.5-24m65-11.2l11.7 20-9.5-13-19 10.6m5.2 68.8l-3.2 29.5 19.4-16.8-16 19" />
    <path d="M40 58.4l8.4-16.6 31.8-18L58.6 29M36.8 161l-8.2 5.2 35.4-35-34 37.4m63.4-121L124.7 88 103 52.8 58.4 62m56.6 79.3l30-24.2-32 22-10.6-21M33 60l9.3 20.7-6-.2 22 28m17-18.5l14.5 6.7-24.6-13.3L70 75m28.7 96.7L82.2 167 44 201l28.8-29.7" />
    <path d="M95.3 174l23.6-19-26 17-25 33.3m-35-56l65-60-9.5 3.4-32 35m59.2 18.6l-8.3-20L118 136l14.6-11m9.3-43.7L132 103l20.5 51.4-23.7-46.8" />
    <path d="M45.8 184l26.8 20.3L49 182.7 38.2 173m83.8 4l-22.5 25.3 5.7 1.7 21.2-33m-28 2.3l-24-3.3-7-15.7 10 11.8m22 16L89 194.3l10.6-19.7L126 143" />
    <path d="M108.7 160.3l13-14L88 196.6l5.2-8.7" />
  </g>
</svg>
