<svg version="1.1" viewBox="0 0 165 225" width="165" height="225" xmlns="http://www.w3.org/2000/svg">
  <g fill-opacity=".5">
    <path d="M150 202l-5.5 5.6-1.3-100.3 9-94.2m-37.6 184l-3.6-81-3 74-.5 11M31 49l-4 42 31.4-66.2 38.8-1.3" />
    <path d="M74.6 129l-39-13.4 38.8 19 59.8-6M90 105.2L108.5 91l-11-35.6 18 15.6m-90.2 6.4L96 46 64.5 71.8l-.7-12M152 101l.6-39.6-8.8-46.7 3 143.4" />
    <path d="M110 61.4l-17.6 49-31.2-14.8 37.8 2M30 83l26.7 47-25-25.8 2.2-49" />
    <path d="M69.4 58.5l-6.6 6L60 83l4.4 12.4M104 202.6l12.7 3.2 37.7 1-3-4.4M84 22.2L43 42l20.5-15.7 54.5 6m10.3 52L86.8 120l37.8-37.3 28.6-16.2" />
    <path d="M64.3 68.4l21.6-12 28-26-89 61M150 28l-31.2-5 25 12.8 9.5 93.4m-35-113.8L49.8 68.7 33.2 79.4l20-16" />
    <path d="M106.7 54.8l2 46.3-10-41L74 55m48.2 136l-13-61.8-.2 76 9.2-37" />
    <path d="M107.4 85.3l-52.8 54 53.7-47.8 39.3-35.8m2 47.3l-.7 86-9 9.5 3-44.3m4-63.5l-26 21.7 23.3-6.5-22.4 16m-83-15.6l-12-40L30.2 94l11.2 23.5M94 26L33.3 69l51-44L69 38" />
    <path d="M82.6 104.3l-18.2-19 3 18.5 36.2-8.6M45.4 47.5l1-11.5L84 23.3l-23.5 3m46.8 6.5l-36.6 31-8.4 4 65.3-44.6m26.6 68l-11.4-66 2.6 67.6 5.2 17m-33.3 21l-70.3-6 42.2 11L137 126m-35.7 79l32.7-18.3 16.6-12.7-42 23.6" />
    <path d="M142.3 50.6l6-13.2-12 23.3-24 13.3m-3.3 57.6l12.6-17.2-20.6 13-43.3 2M112 22.6l25.2 9.3-36.6 32L145 29m5.3 129.4l-57 30.2 57.5-35.6-5.2 28.8" />
    <path d="M89.7 130l6.3-1.3 1.5-11 55-40M92 38.2l15.8-11-5.4-.6L66 55m74.8 6l-41 37.2-23.4 7 19-9" />
    <path d="M102.6 91.6l3.4-1.4 4-28-6 2m5 137.5l3.6-83-.6 90-6.4-7M56.8 26.4L28.4 79.2 32.8 63l10-20.5m103 59.2l6.4-8.2 2 7-27.2 17" />
    <path d="M109.8 61.4l38-40.4L104 69.7l43.6-30.2m-31 147.5l34-21.4-31 17.3-6.7 3" />
    <path d="M149 166.5l-3.3-145.2.2 149.8-38 17" />
    <path d="M146.5 127.3l2-.7L109 154l6.2-6.4M76.5 99.4l-3.7 3.3L52.6 116l-6 .4m88.8 33.8l4-6.4-25.5 15.6 31-23.3" />
    <path d="M37.4 112.5L74.6 131l-27-8-21-38M83 136.5l38.7-38.3 14.2-8.6 19-16.2" />
    <path d="M145 155.8l6-126.6-9.8 26.3 10-5m-.4 139l-7.7 20.3L152 39l-5.2 165.5M27.8 70l4-16 13.5-6.4-17.5 40" />
    <path d="M144.4 187.3l-24.5 22 33-13.3-36 8M53.2 99.5L41 116.7 59 99l29.5-1m61.2 48l-32 22.5.7-1.3 6.7-6.8" />
    <path d="M87 100.8l-2.6 1.4-7.3-.7L65 94m-29.4 3.4l15.2 27-18.6-22-3-20.5m65.2-26l21.4-16 14.5-12.5-31.5 32.8m-2.3-36.7L112 32l-15.6-5H92m.7 103l20.6-1.8 29-24.5-28.8 27.6M109 90.6l-1.2-15 36-21.3-40 27m26 124.7l16-11 4 6.8-5-11.4m-53-74L78 123.6 99 109l58-51" />
    <path d="M72.6 28.2l28-1-30-5.2L50 33.5m59.3 126.3l2.4 4.4 49-38.5-39.2 27.7m-12.8-24.6l6.3 8 22-15.6-22.6 24m-2-88.2l30.2-29.8-16.3 17-14.5 8.4" />
    <path d="M108.8 181.6l4 32.2v-32.4l-.6-54.8" />
  </g>
</svg>
