<svg version="1.1" viewBox="0 0 1024 448" width="1024" height="448" xmlns="http://www.w3.org/2000/svg">
  <g fill-opacity=".5">
    <g class="SVG--1">
      <path d="M52.9 291l5.3 37.4 214.7 5.5-16.6-44.2zM519.6 130.1l17.5-9.4-6.8 86.2-19 5.5z" />
      <path fill="#3B4" d="M738.9 330.5l-3-48-60 77.3 22.6-2.6z" />
      <path d="M935.3 205.6l2-22.9-7.5-72.8-14 96.6z" />
      <path fill="#3B4" d="M641.8 276.3l-4.7 51.3 3.4-5.6 64.6-77.3z" />
      <path d="M584 180.6L570 114l-8.7 80.1 10.2 20.5zM830.3 170l77.9-45.7-9.5 21.8-66.2 41.6z" />
      <path fill="#888" d="M460.8 362l35-76.9-71.3 76.2-41-73z" />
      <path d="M592.8 181.8l30.6-9.3 50.1-30.5-7.3-18.4zM269.4 161.8l-51-41.7-163.5 3-1.1 39.6zM243.8 330.7l21.8-38.9-224.8-.9 80.3 41.1zM399 235.4L460 120.8l-8-10.5L392.4 224z" />
      <path fill="#B22" d="M821 351l-14-70.2 52.9 9.5-2.5 38.2z" />
      <path d="M319.5 182.7l57-61-73.1-.7 36.7 18.7zM363.1 207.5l10.7-16.6-48.5 2.5-39.1 12zM667.6 201.9l-30.5 9.3-31.2-16.3-10-20.7zM901.2 135.3l-70.3-3 35.8-17.1 20.8 7.2zM995 182.4l-5.4-43.1-12.7-15 1.2 99.7zM263.6 289.8l-213.2 2.5L52 333l186.5-1.1zM642.9 115l-29 8.3-.4 5.2 53.5 9.9z" />
      <path fill="#3B4" d="M735.8 291.8l-27.7-5.2-61.9 70.3 72.3-96.5z" />
      <path d="M424.4 194.6L408 174.8l-33.7-55.3 23.2-4zM631.2 205.7l13.2-11.7 24.2-15.1 7 17zM89.4 162.9l-44.8-41.3 215.4.6 5.6 34.4z" />
      <path fill="#2AE" d="M508.5 315.1l61.4-28.3-49.2-14.3 25.1 84.2z" />
      <path d="M901.2 201.8l-40.9 2.2 40.9-28.5 2.6 12.5z" />
      <path fill="#B22" d="M766 303.5l-7.8 3.9 17.4 35.8 32.6 13z" />
      <path d="M578.7 123.6l-14.9 4 3.2 69.6 13.6 15.5z" />
      <path fill="#B22" d="M789 254.6l-3.3 30.7 50-24.1-8.7-10.7z" />
      <path d="M697 140.8l10.8 61.7-18.1 4.7.6-57.6zM534.1 208.5l-4.9-51.4-16.1-38.9 6.2 77.3zM483.4 206.3l-2.3-59.7-10-20.3-3 77.9zM764 167.3l-16.6-45.5 13.7 64.4 54.3-21.5zM815.4 193.4l3.8 20.2-28 18.5 16.6-54.7z" />
      <path fill="#888" d="M392.7 336.8l98.1-5.8-75.6 27.7-3.5-110.5z" />
      <path d="M825.6 153.3l1.5 21.6 29.6-46.4-23.3 6.4z" />
      <path fill="#3B4" d="M664.2 341.2l-1.2-8-24.4-19.4L650 344z" />
      <path d="M302.8 134.9l19.5 2.2 31-11-50.7-3.4zM766.6 121.3l64.8-11.9-89.2 34 17.4-23.6zM116.3 266l-53 22.8 16.9-53 187.8-37zM757.8 207.7l11.7 26-8.8.7-19.8-22.4z" />
      <path fill="#B22" d="M842.5 273.2L812 254.8l43 9.7 7.2 20.5z" />
      <path d="M596.1 143l-.4 25.5 14.3 29.9 3.6-75.7zM550.7 117l-22.2 9.6 40.6 8.9 8.4-10z" />
      <path d="M672.6 135l-72 57.2 46 9-55-30zM303.5 193.4l75.2-81.6-64 85.4 71-6.3zM992.8 160.8l-36.3-42.9 20.7 2.3 13.7 11z" />
      <path fill="#2AE" d="M615.2 290.3l-10.6 51-34.8-86.2 29.7 11.4z" />
      <path d="M263.3 120l-3.2 42.6L56 160.5l45.6-37.2zM736.6 128.6l-6-15.5-34.5 56 6-24.6zM825.4 158.3l14.4 38.7 30.4 10.8-1.6-5z" />
      <path d="M866.9 164.9l-35 18.9 55-50.6 21.7 6.5zM99.2 228l150.4-60.2 9.6 34.3-100.9 47.8z" />
      <path fill="#2AE" d="M513.5 315l29.4-16 2-43.3-28.5 27.3z" />
      <path fill="#888" d="M406.9 262.2l-11 84.2 36-93.8 70.3 51.2z" />
      <path fill="#3B4" d="M636.2 302.2l2.1 23.6 51-66.3-24-2.3z" />
      <path d="M411.9 219.4l44.5-99.8-10.2-1.7-41.6 79.4z" />
      <path fill="#B22" d="M784.3 294.2l-1 51.1-21-39.8 7.5-19.3z" />
      <path d="M918.2 208l17.3-8 1-85.4-17.3 41.6zM741.5 156.5l6.5-25.8 13.3-12.3-6.7 57.8zM817.5 155.3l-32.9 30.6 11.7-28.6 4.5-39.2z" />
      <path d="M918.6 145.2l58.5-21-37.7 2.1-18.1-2.6zM677.2 144.5l-26-26-43.2 13.6 31 .6z" />
      <path fill="#3B4" d="M721 347.9l17-63.3-54.3 70.3h12.8z" />
      <path d="M193.8 232.5l69.4-26-14-34.8L166 200zM848.5 120.5l-26 47.6 25-27.5 38.9-20z" />
      <path fill="#2AE" d="M604.6 331.7l-6.7 13.9-37 8.8-25-10z" />
      <path fill="#B22" d="M826 347.6L796.5 331l62.4-40.7-4 42.9z" />
      <path d="M402.1 169.6l17.6 15.7 5.4-9.6-41.6-60.8zM517.5 135.3l-17-20.7-29 54-3.5-47.3z" />
      <path fill="#888" d="M496.8 289.5l-31.3 49.9 7.3-79.7-35.2 18.9z" />
      <path d="M994.1 205.3l-19.6 1.3 18.1-75.1 1.7 69.8zM294.4 205.7l24.7-1.7 11.9-48.4-20.1 26.8zM810.2 225.2l-53.8 11.4 51-27 9.8 5zM533.2 158.3l-18.6-36 1.7 88.6 10.5-7.6z" />
      <path fill="#B22" d="M785.8 302.3l40.3-25.7 28.5 16.4-26.4 3.5z" />
      <path d="M575.4 205.6l-12 2 9.1-84.5 10 22.1z" />
      <path fill="#B22" d="M761.1 323.2l35.2 28.3 6.3 1.3 14.5 2.7z" />
      <path fill="#3B4" d="M736.6 285.7l-23-23.8 14.6 43.8 10.5 5.5zM650 335.7l28.6-16.2-21.4 24.9-16-46z" />
      <path d="M392.2 228.6l.5-3.4 11.3-21.5 5.6 28.2zM903.2 178.4l-8 21.4-18.2 6.5-21.2-.7zM70.1 285.6l71.8-30.2 71-73.3-161.5 65.7zM706.4 137.9l-15.7-11-2.7 84.8 17-34zM658.6 202.8l13.6-16.6-4.6-8.2-38.1 31.7z" />
      <path fill="#2AE" d="M570.7 294.6l-25 16.9 7.7 1.6 28.4 1.7z" />
    </g>
    <g class="SVG--2">
      <path d="M264 331.3l-215.5 1.5 31.8-42 187.4-1.1zM50.3 160.3l2.7-40h210l-4.7 44.9zM52 249l17 38 186.2-80-4-39.5z" />
      <path d="M373.5 189l-5.2 16.7-6-.1-49.3-3.8z" />
      <path fill="#888" d="M462.5 354.3l11.3-35.5 26 8-84.6 13.2z" />
      <path d="M519 151.5l26-36.6 20.8 28.8.1-26.7z" />
      <path fill="#B22" d="M836.4 261.2l-44.5-4.3-22.2 15.6 20.5 11.2z" />
      <path d="M799.2 137.1l-43.4-13-2.3 16.5 66.5-32zM823 160.3l9.6 26.7 26.5 21.5-19.5-49.3zM811.4 215.3l-22.2-38.8 18.3 2 6.2 27.5zM483.4 120l-14.8 1.4 1.6 92.2 9.2-20.7zM697.8 154.5l42-38.4-17 3.2-25.5 21.8z" />
      <path d="M798.5 182l-36.3.2-19.3-27 22.8 9.4zM770.9 235.7l19.3-2.1-41.9-18.9 3.2-11z" />
      <path fill="#2AE" d="M520.2 335.4l-6.2-43.9 6 11.9 36.6 50.9zM564.3 273.4l-14.4-4.1 10.6 14.1 21.4-2.9z" />
      <path fill="#888" d="M401 263.5l35.6 16.3-52.9 14.4 33.5 37z" />
      <path d="M351.2 139l-33.5 56.7 54.1-74.7-68.3 5zM419 198l-38.7-75 12.2-5.7 23.8 47.7zM593.8 160.2l30.5 49.3-21.6-76.2 46.1-17.3zM934.6 163.4l-17.9-43.5 19.8-.9-17.8 26.2zM908.3 140.8l-15 6.6-27-24.6 19.3 1.7z" />
      <path fill="#2AE" d="M553.6 356.7l33.5-23.6-31-11.9 37.9-.3z" />
      <path d="M242.4 167.3l21 35.5-2 4.6-202.9 64.1zM509 131.5l55.9.2-27.3-10.4-9.3 41z" />
      <path fill="#2AE" d="M582.4 300.2l29.4 22-12.5-41-59.4 35.4z" />
      <path d="M667.1 130.3l-.9 16.4-43.1-29 28.8.7zM797.4 120.8l1.4 49.3-31.1 13 48.1-39.6z" />
      <path fill="#2AE" d="M572.3 252.8l30 17.2-86.5 45.4 65-41z" />
      <path fill="#B22" d="M838.9 256l13 12.6 12.9 17.4-39-22.7z" />
      <path d="M446.8 117.2l-4.7 1.7-21.7 71.6 39-68.6zM678.7 136.8l-55.3 36.8-28.8 1.8 56.4-35zM542.8 118.4L529.7 140l39.1-18.7-7.1-3.2z" />
      <path fill="#B22" d="M799.4 252.3l37.5 3.7-49.4 29.9-16.3-12.5z" />
      <path d="M705.8 207l-6.4-90-10.2 88.9 24.4.9z" />
      <path fill="#2AE" d="M548 260.6l23.1-6.3 42.7 40-5.6-18.8z" />
      <path d="M816.2 189.1l-5.4 33.5-56.7-2.4 23.2 17z" />
      <path fill="#3B4" d="M707.5 277.5l12.2 6.5 3.2-20-58.8 70.8z" />
      <path d="M922 135l58-4.9 8.3-2.6-23.1-11.4z" />
      <path fill="#B22" d="M774.1 340.9l9-47.7-20.3-8.4-2.7 23.5z" />
      <path d="M580.9 207.8l-14.3-15.3-4.3-73.6 20.3 72.5z" />
      <path fill="#3B4" d="M642.6 331.4L661 348l-22.4-54.4-.9 17.3z" />
      <path d="M850.6 202.7l-11.4-60.5-9-2.6-4.4 35.8zM302.6 120.4l39 15.2-41-1.2 3.7-14.2z" />
      <path fill="#B22" d="M804.7 337l24.9-60.4-40.1 20 67.8 10.6z" />
      <path d="M919.6 207.5l19-3.3-4.7-9.3-13-37.3z" />
      <path fill="#2AE" d="M616.8 289.5l-21.3 39.2-10.4 23 26.6-29.9z" />
      <path d="M811.3 223l7.3-18.5-6.4-22.1-21.2-13.6z" />
      <path fill="#888" d="M403.7 314.8l19.5-35.2-14.5 5-22.7 17.1z" />
      <path d="M993 201.8l1.7-61.8-19.8-9.3 10.2 74.4z" />
      <path fill="#888" d="M479.8 265.6l-7 23.3-62.9-27.3-11.4 14.2z" />
      <path d="M403.4 226.3l.4 9.4 40.8-94.7-55.4 87.3z" />
      <path fill="#2AE" d="M523.1 272.8l6 66 8-69 16.5-18z" />
      <path fill="#B22" d="M796.5 321.7l5.3-28.7 6.6-2.4-14.2 4z" />
      <path d="M512.5 117.5L467 132.7l59.2-2.7 9.7 6.7z" />
      <path fill="#888" d="M495 332.6l-63.5-84 66.8 51.6-46.8 32.3zM437.8 335.2l-22-10.5-17.3-16.6 32.1 56.4z" />
      <path d="M657.7 198.7l-10 8.7-28.6-3.7-22.8-21.3z" />
      <path fill="#3B4" d="M738.7 296l-1.5 24.3-14 20.4 9.6-43.4z" />
      <path d="M872.5 117.6l-38.4 23.5 31.4-7.8 32.6-5.3z" />
      <path fill="#3B4" d="M636.6 298.5l18.2-32.3 26.3-9.9 12.2 1.7z" />
      <path d="M876.2 208l26.2-11.1-38.6-3.4-33.2-15zM51.2 145.7l24.5 16.6h111.6L52.9 125.7zM715.4 121.1l12.2-4 7.3 17.5-24.8-2.3zM958.8 118.9l-22.7 27-17.5-7.5 25.2-14.7z" />
      <path fill="#2AE" d="M567 329.1l-13.4-1.3-12-7.3 45.8 3.5z" />
      <path d="M298.7 204.6l39.1-59.2 30.7-19.7-49.1 67z" />
      <path fill="#2AE" d="M615.5 310.9l-8.6-35-14.1-12.3-.3 31.7z" />
      <path d="M593.4 163.8l29.2-26.7 12.2-5.6-27.9-2z" />
      <path fill="#888" d="M469.3 354.4l-47.7-27.2-23.4 14-6.7-20.1z" />
      <path fill="#888" d="M495.2 286l-32.1 60.2-8.2 13.3-9-15.4z" />
      <path d="M813.4 139l-6-4.3-19.6 49 25.5-23.4z" />
      <path fill="#B22" d="M795.7 328l-1.2-23.5 6.4-5.2-.4 31.4z" />
      <path d="M863.5 207l29.6-3.6-65-23.9 15.3 21.3zM810.7 123.6l-48-4.3-10.5 54.3-3-35.5zM642.1 161.8l29.4-25.4-12.5-13-15.6 30.5zM693.8 206.2l-4.7-84 10.3-2.6 8.3 35.7z" />
      <path fill="#B22" d="M811.9 357L771 326l18.3 23.1 16-2.3z" />
      <path d="M63.8 290.9l-10.6 5-1.4 40.9 26.8-45.6zM793.4 165.2l-25 4-10.5 14 .3 4.2zM648.8 198.7l-24.6-10-32.2-24 16.6 33zM483 157.3l-4 45.8-11.3 4.7 13-96.6z" />
      <path fill="#B22" d="M860.3 330.5l-49.2-1.2.6-29.6 19.8-20z" />
      <path fill="#3B4" d="M714.4 260.9l17.5 28.8-21.5-9.2-4.3 2.6z" />
      <path d="M320.2 191.5l1 7 31.9 7.7 14.7-15.3z" />
      <path fill="#2AE" d="M570.8 356l-2.3-7.2-13.7-13.1 27.8 2.6z" />
      <path d="M579.8 135l-.9 30-26.7-49.6 20 7.7zM892.5 132.4l-45.3 29.7-10.8 12.8 8 7.2z" />
      <path fill="#2AE" d="M554.8 288.3l-35 35.5-5.5-32.4 21.3-23.5z" />
      <path d="M923.1 192l11.3 13.7 1-87.3-16.7 1.2zM758.9 165l39.3 24.1.3-30.5-14.5 10z" />
      <path fill="#888" d="M431 261l2.4-11.2 16 7.3-33.9 34.4z" />
      <path fill="#2AE" d="M614.7 301.3l-11.3-15.6-10.2 58.4 15.4-15.3z" />
      <path fill="#3B4" d="M640.2 324.9l17.5-21.7 31-42-36.8 9.6z" />
      <path d="M62.2 272.6L248 167.3 78.5 237.4l-21.8 8.7zM671 190.2l-1.6-7.6-49.8 19.5 54.7-6.7z" />
      <path fill="#888" d="M400 273.7l41.9 4.5 28-17.6 11.6 11.7z" />
      <path d="M565 143.2l-.3 59 17-70.7-2.5 51.8z" />
      <path fill="#B22" d="M815.5 326.1l42.7-.8-28.3 22.9-36.6-22.4z" />
      <path fill="#3B4" d="M728.7 294.1l11.3 12.3-13.9 35.8-45 13.8z" />
      <path d="M866.4 133.5l-14.7-11.9 25.7-4.3 21.3 12.7zM807.8 131.4l-36.1-12.7-22 7.6 16 5.7zM531.8 120.7l-1.8 72.8 3.8 13.1-19.7-2.9zM702.8 117.2l2.6 71.6-4.3 16-11.3-78.6zM979.7 204.8l-1.6-67.5-38-13.3 54.8 14zM744 160.2l-.8-17.3 16.1.3-2.6 29.8zM120.4 122.5l-68.1-1.7.7 27.6.8 11zM792.7 232l11.4-3 14.3-30.4-9-17.4z" />
      <path d="M690.9 156.3l21.8-32.4 6.2-3-29 76.4zM468.1 141l20.1-17.3 15.7-5.1 19.5 4.5z" />
      <path fill="#3B4" d="M662.9 329.4l-23.2-4.4 18.9 21 16.9-27.5z" />
    </g>
    <g class="SVG--3">
      <path fill="#3B4" d="M662.9 329.4l-23.2-4.4 18.9 21 16.9-27.5z" />
      <path d="M728.5 115l1.6 18.3 9.9-17.6-28.7 10.5zM620.2 174l8-20.9-32 24.3 3 7.7zM299.9 198.6l15.7 1.3 50.3-78.3-21 14.6z" />
      <path fill="#2AE" d="M536 261.8l-9.2 44.8 18.3 36.3-33.6-39.4z" />
      <path d="M347.1 123l-49.8 15.2 8-13.7 49.4 13.6zM577.7 155.7L565.9 179l-1.6 29.7 17.5-6.2zM649.9 124.8l19 20.9-71.1 28.2 67.5-44.2z" />
      <path fill="#B22" d="M785.2 346.8l-16.6-15.4-4.4-45.4 16.1 14.6zM808.8 337.2l9-55.6 42.7 12.8-37.3 53.2z" />
      <path d="M811 111.5l-18.6 24.9 21 19.3-22 15.7zM948.7 120l-27 21.9 45.2-13 1-11.9zM362.7 192.8l7.1 12-61.5-.3 6.7-12.3z" />
      <path fill="#888" d="M386.9 302.5l25.3 14.6-1-20.4-23-7.8z" />
      <path d="M896 177.4l9.3 14.3-28.8 16.1 21.3-28.4zM413 184.4l-15.4 45.8 28.6-40.5 18.9-71.5z" />
      <path fill="#2AE" d="M580.9 336.2l7.9-9.8-41.1 24.7 23.7 4.6z" />
      <path d="M761.9 215.2l1.5 18.6-10.5-22-1-7zM836.6 157l-10.2-10.6L842 126l13.8 5.7z" />
      <path fill="#3B4" d="M662.6 332.6l17.2-21.3 30.9-34-22.9 31.1z" />
      <path fill="#888" d="M484.6 321.4l-34.2 34.1 15.3-2.3-.8-28.2z" />
      <path fill="#2AE" d="M535 300l25.2-11.4-29-24-10.8 20.7z" />
      <path d="M483 134.9l-2.7 65.6-11.3-82 12.7-.6zM617.9 205.1l-3.7-17.2-5.1-32.8-15.3 9.3zM902.4 137.8l-2.3-6.1-28.8-10.6-28.3 7.2zM768.8 127l-7.2-7.2-17 14.4 2 32.2z" />
      <path fill="#B22" d="M787.8 281.8l-12.6-14.2 28.3-16.3 36.6 7.7z" />
      <path fill="#2AE" d="M596.6 343.3l-22.7 10 29.8-20.3-6.8-61.8z" />
      <path fill="#2AE" d="M587.4 331.1l-4-9.9H573l-22 2.5z" />
      <path d="M423 187.6l21.3-68.1.5 4.4 15.2-5.7zM761.1 228.6l22.3 8 20.1-11-63.4-9.8z" />
      <path fill="#B22" d="M833 254l16.8 12.5 7.2 13.3-52.9-26.2z" />
      <path d="M626.3 120.4l-16.8 8.7-12.6 30.6 44.6-42.7zM516.9 141.1l13.5-1.8 37.4-19.5-29.6-.2z" />
      <path fill="#3B4" d="M696.4 252.3L651 310.7 641 325.5l-.7-37.7z" />
      <path d="M497 118.9l19.6 18.9-12.4-6.3-31.7 7zM396.3 154.2L396 119l-17.7 1.5 7.3 8zM884.1 203.9l14.6-24 6.7 14.7 1.3-1.8z" />
      <path fill="#888" d="M424.5 261l61.9 44.5 8.4-12.3-48.6-16.5z" />
      <path fill="#2AE" d="M569.9 256.3l-16 4.4 8.7 3.8 14.6 1.7z" />
      <path d="M107.3 332.3l-54.9-29 1-12.4 83.3-.3z" />
      <path fill="#888" d="M473 310.7l-15.7 22 29.4 1.6-15.2-67.6z" />
      <path d="M868 166.2l36.5-26.5-60.8-12 44 4.7zM992.5 134.1l.9 14.2V201l-18-79z" />
      <path fill="#888" d="M414.3 299l-15-31.4 53 4.7-60.5 19.8z" />
      <path d="M831.5 136.5l2.5 55.3h-.6l16-69.6zM581.2 143.4l-35-27.7 18.4 24.8.7 57.9z" />
      <path fill="#B22" d="M761.1 300.5l4.8-19 18.6 33.3-19.9 1.8z" />
      <path d="M389.8 230l17.4-4.6 23.3-47.6 14.1-30.4z" />
      <path fill="#888" d="M402.1 309.5l-17-5.2 34.1-28.3-18 64z" />
      <path d="M516 124l11 4.6 5.4 71.3-16.3 6.9z" />
      <path fill="#2AE" d="M609.2 328.7l-4-45.4-5.1-10.4-20 26z" />
      <path d="M829.3 179l-4.6-25.1 20.3-29 13.5-6.2z" />
      <path fill="#2AE" d="M595.5 274.1l-36.9-13.8 10.5-7.5 26 10.7z" />
      <path d="M368.8 125.9L346 121l-44 3.4 2 12.2zM728 116.1l-11.4 4.7-28.8 34.5 48.7-37.7zM624.8 200.2l-24.7-58-7.2 19.6 16.6 36.8zM918.9 205.3h11.8l7.4-68-6-22.1z" />
      <path fill="#888" d="M390 326l10 11.7 25.3-5.5-13.3-18.3z" />
      <path d="M468.3 164.4l14.1 13.3-1.2-48 19-15z" />
      <path fill="#888" d="M469.5 336l-53.7-3.2-1.3-8.5 4.2 30.1z" />
      <path d="M898.3 144.2l-49 14.9-14.1 14.5 17.7.9zM640.2 208.8l-25-7-8.3-19.6 53.4 19z" />
      <path fill="#3B4" d="M732.2 279l1.4 10.7-3.2 10.5-18.3-33.4z" />
      <path d="M669.7 194.3l-13 9.9-11.7 1.4 24-28.7z" />
      <path fill="#2AE" d="M540.3 300.5l64-35.2-91 40 8.6 23.2z" />
      <path d="M476.8 206.3l3.4-3.8 1.5-13-15.3 14.5zM746.7 213.3l.3 7 23.9 16.2-16-26z" />
      <path fill="#B22" d="M780.3 343l32.5 12.7-38.4-25.6-10.5-9z" />
      <path fill="#2AE" d="M532.7 344l.3-47.2-17.8 21 42.8 30z" />
      <path d="M653.3 155l11.2-20.9-39.6 21.8-21.2 29.7z" />
      <path fill="#3B4" d="M735 329l-26.4 24-20.9 2.2 37.3-57.8z" />
      <path d="M353.7 146.9l-23.8 32-9.7-9.1 43.4-48.2zM786.1 171l26.7 45.2-13.3 4.8 4-42.7z" />
      <path fill="#2AE" d="M573.6 300.6l-7 8.7 15.5 6 1.4-5.5z" />
      <path d="M751.8 143.2l10.9 40.7 51.8-22-57.3 12.9zM817.2 200.7l-4.4 18.7-13.7 12.7-21.7 2zM404.1 152.4l2.8 24.5 15 13.6 4.3-16.6zM530.3 155.1l-6.3-31-14.6 1.3 21 66.6z" />
      <path fill="#888" d="M453.6 332.3l27 2.2-17.2-57.3 31.8 22.5z" />
      <path d="M796.3 123l21-14-4.5 14.9-14.2 5.2zM995 145l-16.6 63.3-1-27.7.7-50zM398.2 214.7l15.5-2 32.8-97.8-38.1 79.7zM848 202.7l29.4 5.3-2.6-6.2L826 167z" />
      <path d="M994 153.6l.1 34.7-20-55 15.8-4.7zM719.8 118l-7 12.1 18.6 2.6L739 117z" />
      <path fill="#B22" d="M784.2 328.7l-9-8.4-8.7-26.5 17.3 1z" />
      <path fill="#2AE" d="M538.4 261.3l13.2-5.3-34.4 31.8 13.7-21z" />
      <path d="M602.5 192.6l14-67.5 30.8 5.2-45.7 8.7zM579.5 133l-35.3-13.2 30.3 28.6 6.8 8.9zM763.9 137.1l-20.3 14.2 25.6 23.6-20.1-40.3z" />
      <path fill="#3B4" d="M671.8 257.4L639 291.5v17.4l56.4-52.1z" />
      <path fill="#2AE" d="M552.5 331.1L538 310.4l22.9 20-2.3-2.8z" />
      <path fill="#3B4" d="M639.5 314.2l13.5 29.3 8.5 3.2-24.2-48.8z" />
      <path d="M793.8 234.2L739 214l38.1 9.2 32.8-10z" />
      <path fill="#B22" d="M779.3 263.2l15-7.8-8.5 27.4-15.4-9z" />
      <path d="M643.8 117.5l9.8 27.3L658 124l-14.1-6zM811 136.7L795.6 119l1.7 25.3 17 2.3z" />
      <path fill="#3B4" d="M724.9 273l-21.7 9.2 29 3.8-7 56.1z" />
      <path fill="#2AE" d="M529.4 340l14.8 9.9 13.5.3-44.2-43.5z" />
      <path d="M471 184.7l-3.5-29 11-33 4 81zM962.4 118.2l-20.8 5.5 8 3 39 14.9z" />
      <path fill="#B22" d="M838.4 308l20.7-9.8-34-21.8-27.8 20.4z" />
      <path d="M580.6 139.9l-15.7 5.2-.2 62.4 15.9-17.6zM994.3 161.4l-3.4 44.6-13.2-5.5V131zM815.2 141.4l-4.5 19.4-33.3 14.1 36-29.8z" />
      <path fill="#B22" d="M813.7 283.1l-2.6 34.8 14 31 19.9-10.8z" />
      <path fill="#888" d="M485.2 324.3l-25.3-50.6 10.3 32.6 17.1 26z" />
      <path d="M669.6 195l.9-15.3-40.9 23.4 1.1 4.1z" />
      <path fill="#B22" d="M862.5 282.4L812 250.2l-25 10 54.6 1.3z" />
      <path d="M456 126l-36 41.6-12 29.4 23-19.2z" />
      <path fill="#888" d="M431.5 340.1l17.7-4.1-21.5 22.6-7-5.5zM444.6 346.2l9.2 10 7.5-1.2 7.9-3.3z" />
      <path d="M753.8 207l-6 6.5 43.5 17.8L760 216z" />
      <path fill="#3B4" d="M654.8 348.8l25.6-37L713 271l-15.4 23z" />
      <path d="M221 121.1l-26.1 2.6 70 40.1-11.8-40.5zM359.5 192l12.6 3.2-56.5 9.6 4.2-13.7zM706 147.7l-1.4 44.6-13-49.7 47.8-29zM799 130.6l-13.6-9.3 26.2-7.8 3.2 12zM833.5 188.2l40.3 6L861 203l-20.8-5.7z" />
      <path fill="#B22" d="M794.8 331l54.7-16.3 9.2 15.4-14.4 7.9z" />
      <path fill="#3B4" d="M640.3 294.6l4.1 37.6 5.5-21.6 41.8-53.2z" />
      <path d="M595.5 173.3l4 11.7 17.6 12.6-7.9-40z" />
      <path fill="#888" d="M472.5 289.8l18.3-.9-4.1 15.3 9.3-9.2z" />
      <path fill="#2AE" d="M590 307l15 27.2-23 19 25.5-39.4z" />
      <path d="M398.2 132.1l30 53-10 10.1-32.7-62.5zM467.8 119.3l11.6 60.5-10.7 30.8 1.2-34.3z" />
      <path fill="#2AE" d="M585.4 278.9l-8.2 3.6 4.3-7.3 9.3-9.9z" />
      <path d="M393 229.5l14.2-4.7 45-92.7-20.7 14.5z" />
      <path fill="#3B4" d="M659.7 347.7l7.6-17.5-14.7-1.2-10.8-4.9z" />
      <path d="M756.7 161.4l10 6.7-9.5 18.9 21.8-10.7zM670 144.8l-52.6-25.6 53.5 14.7-77 40.9z" />
      <path fill="#888" d="M468.6 300.5l23.3 26.4-24 7.6 2.8-50.3z" />
      <path d="M746.7 130.9l17.6 3.8L794 124l-29.4-4.2zM918.6 152.2l47.5-28.6-22.9-.3-21 81.7z" />
      <path fill="#888" d="M494.2 304.8l-63.4-49.6 15-3.8 10 29.9z" />
      <path fill="#B22" d="M801.7 348.6l-28-13.5 17.6 15 24.5 4.2z" />
      <path d="M809.8 159.7L781 118.2l-20.2 2.8 42.7-4.4z" />
      <path fill="#2AE" d="M584.7 259.2l10.5 21.8 18.7 11.7-17.8-27.3z" />
      <path d="M690.1 180.6l-.4 19.2 9.7 5.6 6.6-2zM625 136.4l22.3-16.8-35.5 5.7 1.4 12.5z" />
      <path fill="#2AE" d="M557 352.2l29.4-19.2-1.6-15.9-11.2 30.2z" />
      <path d="M614.9 131.8l33.6 1.7-22.2-13.6-20 43z" />
      <path fill="#888" d="M481.8 266.8L470 289.5 443.7 277l-39.4 7.9z" />
      <path d="M861.3 121.9l-29.3 32 28.8-22 19.8.8z" />
      <path fill="#2AE" d="M541.7 269.3l-4.6-5.8-11.4 7.6 26.7 18.3z" />
      <path fill="#B22" d="M764.2 323.7l-1.5-32.3 20.7 1.6-2 49z" />
      <path d="M524.8 179.5l7.8-27.9-2.6-13.2-21.8-20.8z" />
      <path fill="#2AE" d="M534.9 262.2l.1 42.1 54.4-27.1-64.3 16.7z" />
      <path d="M494.2 127.8l-25 2.8 9.4-5.3.6 22.8z" />
      <path fill="#2AE" d="M552.7 314.4l-10-1 17.3-11 17.8 6z" />
      <path d="M555.7 123.9l-26 18.4-1 22.6 6.5-41.6zM804.6 227.8l-40 1.5 53.2-19.6-10.6 16.1zM759 164.1l30.3 7.3 14.2 5.4 9.6 20.8z" />
      <path fill="#2AE" d="M580.3 351.2l20.4-21.4 8-33.3-19.6 50.3z" />
      <path d="M925.7 163.4l-6.4-29.5 54.3-15h-18.3zM322.1 170.5h7.5l39.2-43.9-15.6-1z" />
      <path fill="#B22" d="M787.5 258.3l-16.8 16.9 24.4 7.6 35-29z" />
      <path d="M896.6 141.4L827 170.8l7.7-37.3 10 41.1zM919.3 121.3l15.3-2.9.1 17.7-14.2 34.6z" />
      <path fill="#888" d="M420 342.6l43.8-14.5 3.1 24.5-22.9-6.5z" />
      <path d="M809.1 164.9l-25 12.2 31-25.3-1.8-6.7zM356 120.7l-17.7 42.7-43.4 40.2 2.2 2.4z" />
      <path fill="#888" d="M411.4 301.1l5.8 42-21-49.8 31-25.4z" />
      <path d="M931.8 204.8l3.4-12.8-2.6-69.5-13.4 85.5z" />
      <path fill="#B22" d="M853.3 322.1l-59 6.1 21 14.4 12.9 2.5z" />
      <path d="M66 279.2l-10.5-31.9 83.2 6.9-65.1 29.5zM523.1 123.7L519 129l-49.6 7 33.7-18.3zM532.7 122.2l6.6 10 31-9-14-5.3zM652.2 142.2l-53.3 44 32.1-17.8 43.6-32.5z" />
      <path fill="#3B4" d="M705 354l-24.3.3 45-54.3 2.5-5.8z" />
      <path d="M645.2 120.7l-1.5 12.5-28.7.3 4-11.9z" />
    </g>
  </g>
</svg>