<svg version="1.1" viewBox="0 0 1024 768" width="1024" height="768" xmlns="http://www.w3.org/2000/svg">
  <g fill-opacity=".5">
    <path fill="#0e0e0e" d="M97 134.8l-60-31.6 469.7-3.8 96.7 34.8" />
    <path fill="#131313" d="M573.2 359.6l1-29.8-517.7-14.6-16 43.4" />
    <path fill="#060606" d="M51 402.6l510.7-.5 36 33L62 434" />
    <path fill="#928f9d" d="M975 731.2l8-56.3-278.8 4L600 730" />
    <path fill="#b0d454" d="M407.4 510.6L75.6 508l-24.4 56.8 338-1" />
    <path fill="#926268" d="M40.6 628.8l378.6-2.5L460 648l-374 1.3" />
    <path d="M65 82l34.3 18.6-42 37L56 94.8m-1 304.8l53.7 4-4.7-17-32.5 1.6" />
    <path fill="#383838" d="M440.3 449l-69-62-39 53.8-6-53.3" />
    <path fill="#ae84c5" d="M600.7 281l-445.5 4-4.8-35 381.2 3" />
    <path fill="#fff" d="M287.4 181l-3.8-50-19-43.3-23 31" />
    <path fill="#d1b3e1" d="M580.3 105l215 104.6-283.3-.4L536 102" />
    <path fill="#809a99" d="M56 727.8l-9.5-39 77.6-1.6 11 35.2" />
    <path d="M230.7 313l3.7 8 53.7 1 10-6.5" />
    <path fill="#707877" d="M509.5 651l-2.5-24.7-80.7.5-58 10.7" />
    <path fill="#fff" d="M306.7 380.4l-2 200.8 24.7-165 1.8-87.6" />
    <path fill="#d9bee8" d="M57 254.6v-94.8l489.8 19L110.6 336" />
    <path d="M574.6 325l-6-24-6 31 6.5 31.7" />
    <path fill="#080808" d="M578.7 438l-51.3 19 13.8-7.7 4-38" />
    <path d="M299.8 443.8l-3.2-56.8 11.4 2.4-1.6 30.2" />
    <path fill="#fff" d="M108.7 282l92 52 16.6 116.7 20-164.4" />
    <path fill="#181818" d="M310.3 89.4l-8.2 21.8-14 28-23-50" />
    <path d="M348 150l-1.8-66.5 35.6 9.7-26.5 9" />
    <path fill="#fff" d="M67.2 423l29.4 3.2L98.4 326l-30.6 82" />
    <path d="M133.8 148.7l-2-64.8h8.7l.8 35" />
    <path fill="#e8f2de" d="M958.8 605.3l-362.7 9-29-207.8L950 98" />
    <path d="M405.4 130l2.4-45.6-11.4 4.5 4.2 59" />
    <path fill="#fff" d="M216.4 645l29.4-239 39.5 5.8-107.8 47" />
    <path d="M542.3 116l9.2 23.2.6-34.5-37-4.4" />
    <path fill="#8a8a8a" d="M497.4 737.4l7.8-37.4-83.3-6.7v15" />
    <path fill="#fff" d="M320.7 37.7L252 37l37.2 84.5 7-20.3" />
    <path d="M458.5 444.7l-4.8-1.3 7.3-48.2 4.5 55m-229-315.8l-7.7-33.6 12-12 4 46m-27.3 253.7l9.7-4.2-.2 43-6.4 12.7M53.4 308.6l20.7 36 32-38 3 48" />
    <path fill="#101010" d="M448.8 137l26.5-65 5.4 66.4-30.5-56" />
    <path fill="#7db800" d="M146.8 573.2l54-2.7-76.8-11.3 44-22.3" />
    <path fill="#5a5c56" d="M735 701l-7.8-17.7 89.8-2.5 96.6 19.3" />
    <path d="M76.7 437.4l-23-43.2 34.3-6.6L48.2 419" />
    <path fill="#fff" d="M384.7 443L402 316l-23.3 70 3.4 111" />
    <path d="M200 312.6l-10.4.6 6 49.5 5-14M151.2 312l9.6-.5-2 57.4-7.4-16" />
    <path fill="#ff6c55" d="M602 730l6.8-23 110 14.5-43 9.3" />
    <path fill="#fefffd" d="M6 210.5l-12-7L83.7 342l16.4-35" />
    <path d="M501.7 391.6l-8.4 46.2-1.8-47.3 4.5-5m-40.5-75l-11 2.6 1 61 6.5-27" />
    <path fill="#fff" d="M-15.5 157.7L57 79l.8 225.5L54.4 446" />
    <path d="M430.3 429.5l-10-38.5-1.4 58 32-27" />
    <path fill="#fff" d="M246.2 121.4l17.4 72.2 56.8-116.8-9 62.4" />
    <path d="M380 439.6l-.6-57-35.8 48 25-17.6m-136-118.7l16.8 75 24.4-29.8-40.2 23.5" />
    <path fill="#fff" d="M248.8 356.2l17-24.4L248 320l-7 19.6m98.6 83.8l30.8 4-19 139.3L321 498" />
    <path fill="#76b400" d="M356.6 519.4l8.8 17 48 42.4-56.6-73.3" />
    <path fill="#fff" d="M169.3 344.2l-8 165.7-2-180 1-57" />
    <path fill="#9fa59c" d="M604.5 270.2l-64 33.2 13.7-43 29.8-14" />
    <path d="M497.8 326l80.5 3.4-70 3-11.3 41.3" />
    <path fill="#fff" d="M473 327.2H351l-79-.2 56.6-27.7" />
    <path d="M60 106l29.3 33.3L101.8 99l6.2 36.5" />
    <path fill="#d3d5d6" d="M169 693.6l161.4.4 201 30L200 734.5" />
    <path d="M303.4 320.7L279.2 363l.7-42 23 43m61 72.7l-31-54.2-4 48 11-23.5" />
    <path fill="#fff" d="M408.5 281.6l2.8 100 3 99.3 8.8-91M548 61l7.5 113.5 224.7 3-208-56.8m-209.8 18l-8.6 28.5 3-173.6L362.6 99" />
    <path d="M108 386l-6.4 63.4-5.8-50.4-36-3.7" />
    <path fill="#676962" d="M920.7 701.8l59-8.2-6.5-15.2-59-3" />
    <path fill="#fff" d="M103.3 270.6l7 104.3 37.3-230L133 366" />
    <path d="M125.5 364.2L113 345.6l30 16.4 1.3-31m34-15.2l-.3 47.7-11.4-15L173 314m59.7 95l58-6.6-2.2 46-7-39.4" />
    <path fill="#fff" d="M64.8 96.3L95.5 110 131 77.4l-62.4 35.8" />
    <path fill="#79b600" d="M346.5 557.5l-30-64 19 71.3 21.4-2.2" />
    <path fill="#a559cd" d="M185.5 209.6l-90-45.4 33 43.4 38.5-46.3" />
    <path d="M332 356l5-27.3-54.6-2 84.2 15.4" />
    <path fill="#9aa494" d="M122 285.2l16-28.7-81.2 2.8-4 25" />
    <path fill="#c491de" d="M502 177l-142-1.4-192.4 7.8 244 28.5" />
    <path fill="#fff" d="M686 700.5L900.5 737l-153.5.8 269-37M470 104.4l1.5 29.5 15.5 54-31.6-78" />
    <path d="M114.6 397l34 51.7-12.4-42-16.3 25.6M68 309.7l-11.5 6.6 1.3 39.6 5 3m331-39l11.4 41 15.8-37 11.3 29M389 101l-7 30-22-47 5 35.8" />
    <path fill="#7db800" d="M178.2 562.5l14 5-1.4-62-9.7 13" />
    <path fill="#7eb800" d="M102 504.8l3.8 57 41.8-61.6-21 58" />
    <path fill="#fff" d="M307.4 417.2l-17.7 189.6L329 419.6 302 315" />
    <path fill="#fff" d="M287.4 324.8l7 196 1-187 9.7-139" />
    <path fill="#2f2526" d="M84.3 727.8L81.6 715l.7-43 7.6 14.4" />
    <path d="M516 328l2.5 34.6 23-25.8-2 26.6M92.7 98l-26-12.6-1.2 61.5-10.8-51" />
    <path fill="#a6a6a5" d="M694.7 682l13.6 12.2-92 3.6-4.3-20.6" />
    <path fill="#fff" d="M223.4 358.6l5.4 72 50.7-101 .7 32.7" />
    <path d="M386.8 317.7l-7 43-50.5-16 61.2 15.2" />
    <path fill="#fff" d="M338.4 313.4l8.7 100 24-8.8 1 23" />
    <path fill="#b07d85" d="M259.5 621l-30 40.3 32-1.3-37-51.5" />
    <path fill="#fff" d="M82.7 114.7l17 33.4-13.3-87 48.6-8" />
    <path d="M552 116l-28.7-14.8 1 41 14.4-50.5" />
    <path fill="#fff" d="M174.2 405.7L202 438l3.5-33.5-28.4 36M479 102h-22.5l48-93.6L481.8 145m55.5 142.6l-9 85.8-5.4-48.6 68-18.5" />
    <path d="M156.2 132.8l20.4-34.5-.4 38.4-24.8-37.4m63 317.6L177 399l14 38.3 7.8-40m350.2-74l-19 8.4 29.2 2.5-7.6 34" />
    <path fill="#85bc00" d="M74 519.6L89.5 560l-30.3-35.2L75.4 504" />
    <path d="M123 327.4l-9.5 6 5.2 28L124 347" />
    <path fill="#7bb700" d="M254 582l.3-72.7-27 7.6 15.2 7" />
    <path d="M273.2 330.6L257.4 314l5.6 21 3.4 21" />
    <path fill="#fff" d="M569.5 430.2l58 143.2 15-293.5-80 144" />
    <path d="M438.5 104.5l-27 23.4 3.3 5h21.6" />
    <path fill="#fff" d="M513.5 487.4l14.7-65.6-3-13.5-8 7" />
    <path fill="#6aae00" d="M291.5 557l-5 14.2-4-59.5 12.3-3.3" />
    <path fill="#fceec7" d="M934.2 28.5L910.8 295 841.2 92.8l-73.7-18.4" />
    <path fill="#2f352b" d="M610.4 96.5l-7 7-5.6 39.6 4.7-5" />
    <path d="M246.5 396.6l-14.8 19.7 6.8 15 1.8 6.2" />
    <path fill="#0e0e0e" d="M341.4 143l-37-57.2-8.3 14 41 3" />
    <path fill="#fff" d="M187.5 359.5L193 370l-3.4-37.8-14 5.3" />
    <path d="M195.4 416.3l-28-16-2 43 16.3-44.5" />
    <path fill="#fff" d="M334 520.8l5-113.7 13.8 26 20.5-17M59 325l31 67 3.2 56.6 6-65.6M503 445l-4-52.6 10.5-65 9.7 14.6" />
    <path d="M506.5 108.5l7 28.8.4-33.8-192 4.2" />
    <path fill="#fff" d="M448.4 118L398.7-15.5l39.6 124.3 5.7 75" />
    <path fill="#bd85dc" d="M689.3 210.7L677.8 178l91-2 3.4 17" />
    <path fill="#fff" d="M86 629.2l31.4-188L115 410l-7.5-.8" />
    <path d="M539 398.6l34 6.2-32.7 33.3 28.2-22M187 133l52.4-6.2-41 10-6.3-44" />
    <path fill="#fff" d="M195.8 163.2l-128.6 94 145-28.8L199 56.8" />
    <path d="M127 104l-34 9.7 20-16.4 11 37.4m415.6 270.5l-32.7-2 3 43 7-37.5" />
    <path fill="#fff" d="M-15.5 284.8l282 31.3 11.6 25 6-58M417 85l-10 8v27l3.8 32m-186-33l-14.4-9 22.2-2.5 4.4 66m296 290.7L638 526l-95-85.7-1.7-81m176.4 314.3l-76.2 38L700 716l38.4 1" />
    <path d="M312 327.6l2 37 10-9.2-3.7-24.3" />
    <path fill="#fff" d="M242.4 112L269 95.6l11.5 35.3-39.2-3m96.7-22l-14-9 27.7-58-9.7 123M62.3 343l70.3 34.6-2 111.3-6-84m26-80l.4 42-22-98 22.5-62.6" />
    <path fill="#ba80d9" d="M58.4 208.6l-2.7-50 50.4 16-1 34.7" />
    <path fill="#fff" d="M367.5 227.2l3.6-104.8 2-96.4 7 68.5" />
    <path d="M108 311.5l-27 31.2-27.5-33.5 29.7 47.5m380-24.5l13-8.3-12.4 32-5.3-12m19.8-20l11 10 2.5 10-6 14m1.4 60l-14.5-30 6.6 43.4-25.3 7" />
    <path fill="#050505" d="M479.7 95l-6.8 48.8-3-59.6 16 8.8" />
    <path fill="#fff" d="M491.6 439.6L366.4 520l103.4-25.6 22-107m-112.5 43l40.4-37.6L389 415l-15-116M177.3 70.7l11.8 26-2 29.8-10 1.8" />
    <path d="M411 440l-12.8-37-5.5-3 21 7.4m33.6-1.8l3 7.7-5 18-9.4-32m-79 36.3L327 389l13.5.2 14.6 37.3" />
    <path fill="#fff" d="M436 339l-14.2-2.8 20.6-7.2L458 468M188.6 612.7l97.6-102-5.6 59L192 505m317.5-361l27.3 23.7-23.8-66 28.3-43.4" />
    <path fill="#b5e1c2" d="M563.5 585.4l-33 4.3 2.2 25L709 592.5" />
    <path d="M74 437l-17.6-40.5 1.4 27.5 35.3 5.5" />
    <path fill="#fff" d="M139 198.5l-14.3-78.3 48.3 52-5.7-64.5" />
    <path d="M140.7 115.2l1.2-32.8-10 14.3 2 38.6m351-7l22 10.6-25-31 19-8m-217 35h7l-15-44-12-5m309 232l-11.5-7.7 10.2 51-1.5-59.5" />
    <path fill="#fff" d="M541 109.4l-9-.5 1.7 73 10.6-64" />
    <path d="M195.8 327.8l19 17.5 15.8-5-83.5-12.7" />
    <path fill="#fff" d="M72.3 394L97 423l-29 3.7-4.3-19.2m239.7-302.8l-9.2 34 35.2-33.7v13.4" />
    <path d="M526.5 412.3l8 34.5 2.4-37-15-11.8" />
    <path fill="#fff" d="M101.5 114.5l6.4 16.2 11-10-6-15" />
    <path d="M204.6 104.6l-2.7 7 22 17.6 2-7.2m134 8.6l7-54.3 4 58.6-8-1" />
    <path fill="#fff" d="M571 405.8l-30.6-61.3 17.4 20.3-1-94m-48.4-158l-3.3 18-16-20-78-42m70 312.8l-28-44.3 3 29.2 42-13.7" />
    <path fill="#cb9de4" d="M509.5 171.6l9.7-11.7L681 205l-150.8 5.8" />
    <path fill="#88be00" d="M326 516.3l-21 42.4-72.2 1.6 79.7 4" />
    <path fill="#f6acb7" d="M55.8 624l-5.6 14.5v12l231.4-9.2" />
    <path fill="#fff" d="M132.6 130.2V37.7L43.4 88l74 1.7m733.4 610.8l17.5-35.5 2.7 53-264-12" />
    <path fill="#21231d" d="M894 671l6.7 15.5-10.6 8-5-13" />
    <path fill="#fff" d="M424 245l-32 84 107-46.3-3.4 61.6m-261.6-1l-37 61 38-88.7-51.8 7" />
    <path fill="#fff" d="M473.6 329.7l10 13.4-4 9-11.6-4" />
    <path d="M213 421.8l-1.5 10-8.3 3.6 2.6-44.7" />
    <path fill="#fff" d="M396.8 109l-10 2-2 15.3 13 .7" />
    <path fill="#a356cb" d="M497.3 155l-16.8 39.3-15-17.6 10.8 52.2" />
    <path d="M417 330l28 21.2-30.6 5.4 22.2 2" />
    <path fill="#fff" d="M474 425.2l-12 7 3-23.5 9.7 1" />
    <path d="M360.2 409l10.8-20 8 5.7-22 30.4" />
    <path fill="#565753" d="M725.8 699l-3.6-21 14.5-5.8-4 31" />
    <path d="M490.6 431l8.8 7.8 2.2-56.8-4.3 9.6m-259-78.4l-1 6.6L271 326l-9-11.3" />
    <path fill="#fff" d="M259.7 408.3l24-124L263.2 431 240 417" />
    <path d="M315 134.2l21.2-2.5 4.3-18-28 6.3" />
    <path fill="#fff" d="M154.5 119l-8.4 14.7-4-13.7 6-14.7" />
    <path d="M361 362l-11.5-33.4 18.5-3.3-22.5 22.7m144.7 0l-9.4 12-5.6.2-15-6" />
    <path fill="#fff" d="M275 86.2l13 31.8 33-68.7 58.8 39.5M243.3 358.2l20.4-21.7L260 322l-19-1.2" />
    <path d="M125 110l-15.7 26 13-3 4.6-10.3" />
    <path fill="#fff" d="M439.5 409.4L431 411l-2 35.5 13-32.3" />
    <path d="M458 439.4l-3-38.2 12.3 29.5 17.3-4.3M407 137.7l-7-8.4-2.2-42 8 3.6" />
    <path fill="#020202" d="M542.2 405l31 33.4-34.7 2.6 31 6" />
    <path fill="#9b4ac7" d="M150 186.3l35.2 24-8-26.8-38.8 30.6" />
    <path d="M306.6 383.3l-10 12 2 27L306 434m155.3-298.3l-12-50v32.6l-1.6 11.7" />
    <path fill="#fff" d="M118 554.4L165.7 418l-52.2 107.8 1 30.4" />
    <path d="M549.7 129.3l-1-35.3-6.2 26.4 1 13.7m-484.8 9L67 98l18.2-6.6-28-3m426 26.3l12.8-12.4-3.4 28.2L474.3 99m-54 305.5l1.8 41.2 8-.6-2-43m-165 29l-22 7 30-19 6 19" />
    <path fill="#fff" d="M403 366l-18.2 43.8 7-75.5 8-2" />
    <path fill="#c390de" d="M358.4 208l-156.6-.3L207 154l8.8 27.7" />
    <path d="M154.7 135l-18.3-2.7-5-3L165 124" />
    <path fill="#b8e5ce" d="M646 616l61-28.2-27.8 79-29.6-131" />
    <path fill="#b8caae" d="M543.4 260.7l-101.5-6-8 28.7 125 1.2" />
    <path d="M282.4 322.3l3 44.5 3-52-13.7-3m1.7 41.3h-34L232 313l1.2 49" />
    <path fill="#637c79" d="M293.7 646.2l-26 4.4 1.8-21.5 51.8-2" />
    <path fill="#fff" d="M382 298v36.4l-63-27.8 25.4 31.7M195 404.8l44.7-27.6-10.8-34.5-27 2M472 215l-204 40.5 40.5-80.5-54.2 24.4M454 313.7l7.7 44.8-48.3 7 41.4 51.3" />
    <path d="M346.4 92.8l5.7 51.5 4-42.7-1-16.2M138 357.6l-3-29.4 11 .2-5 30.6" />
    <path fill="#80b900" d="M393.7 518l-11 36.7L396 569l-2.4-38.8" />
    <path d="M60 314.7l-2 47 7-3.4 1-24.7m317.6 6.6l20.8-15.5-39.8 19.4-.7-18m515 372l-2-25-1 2-8 7" />
    <path fill="#fff" d="M478.5 208.3l-268 .4-218.2.5 228 46.7M115.6 411l-49-100 38.3-14-22 47" />
    <path d="M384.2 121.7l-6-11.4 1.4 20.8 15.4 5" />
    <path fill="#79b600" d="M254.3 510.5H273l-2 24h.4" />
    <path d="M379 381.7l-7.8 26.7.5 28 8.2-12" />
    <path fill="#fff" d="M255.4 525.4l3.8 139 23.6-72.6-6.6-60.4" />
    <path d="M516.8 350.6l9 10.4-.4-26.7-10.6-12" />
    <path fill="#fff" d="M554.3 100.4l-66 2.8-10.2 52.2 9-171m-387 349l-2-2.6-13 25 9 77.2m-6-156.7l6 50 6-183.5-10-62m243 32l-12-2.8 14 17.8-16-.5M562 420l-9.4 5.3 52.6 10 33.5-38" />
    <path d="M168.5 415l-35.3-.4 11-15.4-4.7 21M97.7 313.5L100 360l6 4 2.3-49.4" />
    <path fill="#a2dcbd" d="M835.2 479.7l164.2 1.3-171 14.6 153.4 3.4" />
    <path fill="#fff" d="M233 422.6l-62.3 103.6L130 434l112.7 4m78.3 80.7l54.2-118.2-83 131.3 11 35" />
    <path fill="#2b1e1f" d="M58.8 716l20.7 10.5L53 718l.3-27.5" />
    <path fill="#92c5fc" d="M984.6 719L974 734.3l-205.3-19 205.5-.3" />
    <path d="M137.7 101.5L190 132l-14.2 3.8-20.5-34m344.4 32.7l14.6-21 4.8 8-8 12.2" />
    <path fill="#fff" d="M429.3 395.3l66.4-45.8-8.4 118.6-2-64m-325.5 25l-21.8-7 27-3 5.6-111" />
    <path d="M79.7 139.5l-4-30 16.4 23-15 2.8" />
    <path fill="#fff" d="M300.2 463.3l-6-106.3-26.8 17 26 41.5" />
    <path fill="#9436c7" d="M371.4 240.2l8.8-2.4 1.2 7-3.7 51.2" />
    <path fill="#fff" d="M356 344.7h25.2l-9 7.2-14 1m96.4 99l-89 189L449 427l8-55.2m27.4-251l-7 17.3-182.6-5L516 182M416 340.5l-8.5-27L411 353l24-2.6" />
    <path d="M285.5 140l6.3-8.8 20.6-42.6-14 2" />
    <path fill="#fff" d="M203.5 432l-.8-25-8.5 4.6L193 467" />
    <path fill="#8abf00" d="M75.7 515.3l45.5-6.3-8 17-31-20.4" />
    <path fill="#fff" d="M310.2 417l-8-52.5 4.3-31.4 8 2M-1.8 477l61.3-186.5-2.6 22.2 1 88.3" />
    <path d="M455.4 446.4l2-46.7 6.8 7-1 35.6" />
    <path fill="#fff" d="M155.6 548.6l.7-27.4-16-6-8.2 32" />
    <path fill="#bee4c4" d="M645.3 631l-5.6-185L629 571l-31.3-33" />
    <path fill="#fff" d="M77.7 352.3l59.6 64.7L64 355.4l3.2-25.6" />
    <path d="M340.2 330.2l1 31.3-8-3.2-2-14.8" />
    <path fill="#9a45c8" d="M188.5 245.3l-26.5.2-9 55.2-.5-65.5" />
    <path fill="#fff" d="M396.8 568.2L362.3 532 397 638.6l240.3-148" />
    <path fill="#484946" d="M859.8 682.8l-39.4-2 1 19 38.2-15.4" />
    <path fill="#342a2b" d="M74.6 687.3l-24.5 16 13-15L91 705" />
    <path fill="#9e4fc9" d="M398.8 226l-5-54.7-1-13.2 10 5" />
    <path fill="#9a45c8" d="M662.3 182.2l2.7-15.6 10.6 8-11.5 39.7" />
    <path fill="#fff" d="M345.3 489l45 59-3.8-63.7-49.3-78m186.3-60l38.2 47-19 15-.4 39.3" />
    <path fill="#fff" d="M522.3 335.3h26l-26.2 17 37-69" />
    <path d="M254.4 396.7L234 410.4l20.8 27.8-20.2-8.5m5.2-320.2L251 107l-15.3-14.6-1 45.4" />
    <path fill="#020202" d="M555 321.6l3.6 39-36-10.4 19 11" />
    <path d="M321.6 331l-27.2-2.6 2.5 33 6-26.4" />
    <path fill="#fff" d="M181.8 516l-23.5 45 58.7 5-38 14m-8.2-249L126 423.2l-2.3-64.3 38 52" />
    <path d="M148.3 436l-10-1.7-3.8-7 27 .5" />
    <path fill="#fff" d="M172.5 147.3l-11-85.5 1.7 99 5-46.3" />
    <path fill="#475e5b" d="M373 625.4l8 26.2-34.8-19.4 2.2 13.4" />
    <path fill="#fff" d="M92.3 704.5l14 18.6 17.7-13-17.3-18" />
    <path fill="#8fc201" d="M332.5 524.4l12.3 38-26.5-36.2 8.4-25.6" />
    <path fill="#72b200" d="M357.4 530.3l3.2 42 2-36-1-25.3" />
    <path fill="#92c312" d="M170.7 525.8L151 506l7.7 30.6 11.6 9" />
    <path d="M396 436.2l-2-20.2-7.8 6-1.2 7.5" />
    <path fill="#dcecce" d="M892 283.6l10.3 69 73.5 82.8L799.4 364" />
    <path fill="#f4f4f4" d="M420 128l10.7-20-26 2.7 34.7 16" />
    <path d="M83.8 388.4l-29.8 23 10-19 28.3 7.8" />
    <path fill="#737070" d="M423.8 627.6l60.2 7-19.4 12.6 59-19.8" />
    <path fill="#fff" d="M351.7 104l56-6.6-33.6 6.4-9-7.3m-21 271.2l38-13.7-26 64.8-34-60m-78 156l2 7-18 142.4-11-95.2M85 709.8L73.5 692l-18 11.8L64 721m955-11l-68.4-7 4.5-48-19 65M408 426l-22.2-14 18.3-4.3-10 20.7" />
    <path d="M167 404l6-5.4 1.6 33.4-8 3.2m-42.8 7.4l-8.2-40.3-26.4 4.8 37.8 4m419.3 20l9 16-16-6 2.8-3" />
    <path fill="#7db800" d="M53.5 505l41 48.5-18.5 15 14.5-26" />
    <path fill="#fff" d="M492.4 314.6l4.5 42L461 250l-7.6 85.4M521 174.2l32 28.4-23-68.8 337.6 21.5M274.4 327.8l43-22.7 29.2 36 7.4-16" />
    <path d="M439 106.4l-26.4-1.7 13-2.4 12.5 36.4" />
    <path fill="#fff" d="M333.7 359l-4.5-27.3-5.4 3.2-3.8 53" />
    <path d="M78.2 89.4l9 5.8 1.3 9.8-8 6.7m450.2 22L525 130l-3-29 9 3.2" />
    <path fill="#fff" d="M175.5 408.8l9-2.4v29.4l-12.6 133m125-433l33-29-16 6.3 9-69" />
    <path fill="#c6ece1" d="M850.2 462.8l-34 140.5L934 610l-74-41.6" />
    <path fill="#fff" d="M197.5 124.6L220 128l-22-14 16-34m284 1l-78-32-16.8 162.7 5.2-105.2" />
    <path fill="#737871" d="M125 308.6l6.5-62.3.2-6.2-7.3 17" />
    <path fill="#e0ebcb" d="M731.5 382.8L632 366.3l182-18-146.6 183" />
    <path d="M435.5 327.4l-16.8-.2-.5 6.7h19.3" />
    <path fill="#b4dcad" d="M650.3 500l106 12-68 .8-41.2-60" />
    <path d="M956.4 671.7l2.4 28.2-26.4-1 20.6 1" />
    <path fill="#fff" d="M70 115.4l-8.6 30.4 41.2-15 2 34.8" />
    <path fill="#dfe9f3" d="M420.7 694l-81.3-12 91.4-38.5-8-18" />
    <path d="M137 403.8l-5 25.8 14.7-32.3 22.5 20.5" />
    <path fill="#656865" d="M462.6 261l-4 11.8-6.2 29 5.7-66" />
    <path fill="#414041" d="M579.6 280.5l-3.7 5.3 5-39 4 16" />
    <path fill="#fff" d="M98.8 309.5l31 23 44-39-36.3-21" />
    <path d="M166 332.2l8.8-14.4 3.4 14.5-1.7 31m396-8.2l-7.8 7-.3-46 6.7-4" />
    <path fill="#88c0fc" d="M755.8 730.2l-22-2.6-.2-17.5 178 20" />
    <path d="M472 327.2l-7.5 28.4-5-22.5 35.7 2" />
    <path fill="#090909" d="M229 393.3l-3.4 51.7-5-29.7-1.4-30.7" />
    <path fill="#fff" d="M239.7 404.4L205.2 391l-93.7-36 54.3 45.8" />
    <path d="M200.3 115l29.2 12.8-28.7-24 21-.5M96.5 388l4.2 39 4.4 17 1-55.7M497 326l1.5 32 8.2-1.2-3-30.5" />
    <path fill="#828d7c" d="M596 105.7l-5.4 33L586 103l-21 23.5" />
    <path fill="#8cc000" d="M150.8 555.2l13.4 8.8 16.3 9-36.8-1" />
    <path fill="#fff" d="M302 449.4l31-117.2-5.2 87.3L348 559M148.5 300l-6.6 74.6 24 47-16-64m108 1.8l22-15.8-6 37.5-91-21" />
    <path fill="#88be00" d="M246 563.5l11-.8-8.4-49-6.2 51" />
    <path fill="#fff" d="M900.4 672l-3.3 16.6-9 13.5 38-16" />
    <path d="M411.7 435l38-3.5-.4-25-10.7 21" />
    <path fill="#fff" d="M228.2 129l-20.5 13.3 32.5 4-23-83.6" />
    <path fill="#7fb900" d="M175.8 511.4l28-2.4-17 9.6 2 32" />
    <path d="M150 352.7l6-45 3.3 24.7v23.8" />
    <path fill="#fff" d="M465.6 696l-33.2-88.6 25 33.2 13.6-15.8m-188-120l-96 18.6 154.2-88.6-214.8.6" />
    <path fill="#415755" d="M234.6 633.2L259 614l3.2 6.2-32 18.8" />
    <path fill="#fff" d="M564.6 340.6l-.8 5.2-40.6-65.8 41.2 24.6M511.6 385l-11.8 53.8 6-102 11-2.4" />
    <path fill="#baad80" d="M214.3 715.4l-30.5-.5-5.8-10 22.2-12" />
    <path fill="#fff" d="M117 410.8l-9.2-3L106 422l10.4 116.6" />
    <path fill="#80ba00" d="M111 508.3L100.7 563l15.3-1.3-.3 4.7" />
    <path fill="#a04bcd" d="M337 271.5l3.3 21.2 5-57.5-9.5.2" />
    <path d="M389 328l-7.3-.4-.3 24.3 9.5 3m-187-13l18-8 1-2v10" />
    <path fill="#fff" d="M65.3 421l.8-16.3 31-7V424m393 240l39-62 40 127.6L489 627M254 279.8L18 313.6l230-1 32.2 10.3" />
    <path d="M289 406l2 29-10.4-4 2-23.7" />
    <path fill="#fff" d="M469 167l-1-34.5-15-9.7 18.2-15.6" />
    <path fill="#332b2b" d="M88.8 723.4L84 710.8 71.2 726 52 716.7" />
    <path fill="#fff" d="M113.4 306.7l2.2 44.3 20.4 90.2-30.5-78M441.8 311l-5.2 24.6-20 .8 29.3 8.3" />
    <path fill="#282727" d="M598 257.5l-4.4.8-.2 25.8 3.6-8" />
    <path fill="#953ec4" d="M127 167.3l7 43.5 2.7-37.4-1.3-13.3" />
    <path fill="#ece9bb" d="M694 331.6l-37.6 24 103.7-86-2 78.8" />
    <path fill="#fff" d="M482.4 340.4l.3-5.5-16 4 7 18M183 283l11.2-77.4L390 235l-230.2 15.4" />
    <path fill="#9dd9b5" d="M803.6 514l-9.6-43-1.5 97.3 4 1.7" />
    <path d="M198.7 360.4l-7-4.3.8-39 9-6" />
    <path fill="#fff" d="M418.5 407.6l2.3 47-16.6-78.8 40.8-25" />
    <path fill="#97c60f" d="M283 497.7l.4 61.5 111.2-1.4-95.8 6.4" />
    <path fill="#fff" d="M942 677.5l34.3-9.4-16.4 27-4-38" />
    <path d="M414.4 129.7l13.2-14-38.5 19.7 13-17.7m53 242.6l-9-3.7 1-29h6" />
    <path fill="#fff" d="M83 101.8L67.6 95l-1 34.5 1-17m34.4 45.8l9-20.4 22-14-8 63m83.5 143l24 13-3-22-51.5 2m264-178l11.8 3.4-8.5-33.8-12-58.5" />
    <path fill="#616460" d="M444 242.4l-1.6 43-5.3-1.3 2-26" />
    <path fill="#3d3c3c" d="M460.2 645.4l-2 11.2-3.4-22.2 3-12.7" />
    <path d="M399 398l7.4-2.6-19.4 12.3 24.8 2.3" />
    <path fill="#fff" d="M523.5 118l-36-36-7.6 30 42-23.8" />
    <path fill="#1f3835" d="M316.5 629.7l.6 18.2 17-24-5 20" />
    <path fill="#fff" d="M87.6 663l96.4-33-81.3 50.4-16 29" />
    <path d="M769.2 689.8l-9.7 4.5-4.4-16 1 25" />
    <path fill="#fff" d="M271.6 412.5L256.4 435l28.2 18.2-40.2-42.2" />
    <path d="M474 400.7L456.7 411l26.6-2-1.5 27" />
    <path fill="#fff" d="M680.3 697.5l174-1.4-153 6 2.3 42" />
    <path fill="#ff442f" d="M668.4 726.4l-12.8 10.8 3.2-20.4 40-.3" />
    <path fill="#171716" d="M932.7 680l-25.4 28.8 20.5-29L937 696" />
    <path fill="#fff" d="M794.3 698.4l37.4.7 46.8-2-75.5-1" />
    <path d="M115.4 327.2l.7 25.8 8 5.5 1-33.3" />
    <path fill="#fefefe" d="M573.6 359.6l-150.6-.4 94.2 37.5-40.8 11.6" />
    <path d="M363 354.3l-12 3.7 19.4 2.4 4.4-10.8m-37 42.4l-8-.8-1.6 23 9 20" />
    <path fill="#fed77c" d="M889 81.8L880 28l-29.7 45.4 19-48.6" />
    <path fill="#fff" d="M31.2 90l115-2.2 84.3 16 79-119.3M190.5 332l-12 2-1.3 11 16.6 18.4" />
    <path fill="#86bd00" d="M55 518.6l28.6-3.8 8 19.6-2-27.8" />
    <path fill="#fff" d="M377.5 393.5l-3.4-44.8 4-29.4 6-26.2M86 679L58 547l27.4 16.3-101-139.4m562 66l-28-87-2.4 31-137.2 29" />
    <path fill="#93c40d" d="M238 520.8l-1.4 16.8-9.7-20.4 54-11" />
    <path fill="#fff" d="M581.3 183.4l16 4.6-32.6 126.8 16-120" />
  </g>
</svg>