<svg version="1.1" viewBox="0 0 1024 768" width="1024" height="768" xmlns="http://www.w3.org/2000/svg">
  <g fill-opacity=".5">
    <path fill="#f0b990" d="M806.7 383.5l-86 34.2-55-53.5 33 39.4" />
    <path fill="#3d5200" d="M523.6-16.4l95.7 5.4L578 95.8l-40.8-12.3" />
    <path fill="#415900" d="M475 75.7l27.6 89.3-42.3 27-9.7-104" />
    <path fill="#7f9d00" d="M877.3 70l-48-28.3.8 53.2 38 14" />
    <path fill="#f9c4ad" d="M625 525.5l64.4 9.2-20-25-39 4.8" />
    <path fill="#b36f4c" d="M476.2 338l6.6-9 12.5 12.7-8.8 77.4" />
    <path fill="#0d1412" d="M549 317.8l-3.4 51-6-29.8-2.8-4" />
    <path fill="#f2f3f9" d="M520 727l-4.2-1-117.3 30 204.8 33.3" />
    <path fill="#333736" d="M711.8 334.2L743 333l48 13-51.8-9.4" />
    <path fill="#8696bd" d="M520.5 536.7L493 562.5l18-30.5-1-.2" />
    <path fill="#445b00" d="M1055 261l-68.5 21.7 39 66.2 29.5 22" />
    <path fill="#a2afd6" d="M199.6 721.5l127.3-67L211 714l-11 73.3" />
    <path fill="#6e8400" d="M417.5-31L494 13.5l24-2.8L554-31" />
    <path fill="#74729d" d="M767.4 683.6L754 706.3l-117.3 22.2 83.5-10" />
    <path fill="#dd895b" d="M694 355.8l29-13-41 5 89.7 35.8" />
    <path fill="#fac09b" d="M722.6 187.6l23.2 111 28.6-74.8-78-28" />
    <path fill="#b96941" d="M633.6 388.4l20-29.5 2.4-15-38.6 61" />
    <path fill="#3f5600" d="M374.8 75.8l-29 52.3 94 23-70.5 16" />
    <path fill="#ebc3aa" d="M626.5 379.3l-45-2.4-17.7-6 79.2-18" />
    <path fill="#4b432f" d="M293.3 652.5l-31.4 9.2 32-57.7-43-53" />
    <path fill="#9e5d3b" d="M781.7 215l26 41.7-46.8-62-45-8.5" />
    <path fill="#393639" d="M661 103l-64 38-24-23 67.3 2.2" />
    <path fill="#d68058" d="M807 400l17 6.4 8.4-36.7-19.3 58" />
    <path fill="#0c0f10" d="M685.3 383l-16-46.3 16.6 1.5-9 5.3" />
    <path fill="#011f00" d="M302.8 281.6L277.6 439l-14.2-2.2L171 246" />
    <path fill="#295600" d="M278.2 266l19.8-29.4-44-22.3-2.5 43.2" />
    <path fill="#fed0b1" d="M808.4 423.2l-17 36.2 10 4.7 12.6-41" />
    <path fill="#dda385" d="M724.8 325l-26.6.7 58.3 11.2-6.4-10" />
    <path fill="#e6cbbc" d="M728 390.2l-30.3-5 .7-10.3 71 11" />
    <path fill="#d9a478" d="M761.7 406.5l10.5-68.8 6.6 29-11 1" />
    <path fill="#808487" d="M626.7 698.4l-2 1.6-17.4 27.5 17.6 3" />
    <path fill="#b48056" d="M502.4 437.3l77.3 54.3.4-55.2-55 78.3" />
    <path fill="#060807" d="M349 655.4l111.6-178.7-43.4 120.5-58 57.3" />
    <path fill="#f1f4fa" d="M379.6 638.3l-23.2 30.4 59-8.5 16 33.8" />
    <path fill="#29261d" d="M795.5 360.2l145.4 16-34-52.4-101 43.4" />
    <path fill="#739200" d="M114 57l2 51.3 43.8-20L139.2 55" />
    <path fill="#141a2b" d="M614.6 729L508 681.4l74.7 46.7 67 11" />
    <path fill="#cadcff" d="M907.4 686l15 19.5 57.2 24.3-77.4-40.6" />
    <path fill="#bc6841" d="M740.3 457.8l-48.2 19-66-6 158-7" />
    <path fill="#171e00" d="M130 363.2l74.3 54.8-71 131.4-5-128.2" />
    <path fill="#1e3900" d="M-11.2 132.2L14 158.8l55.3 51.7 52.4-24.5" />
    <path fill="#e8e9f4" d="M264 687.6L229.7 701l240 7.2-243.2 7.2" />
    <path fill="#8d3011" d="M804.6 400l12.5 1.7 8-2 5-25" />
    <path fill="#67696a" d="M730 90.8l-4.8 50-9-52-13.8 32.3" />
    <path fill="#a0966a" d="M262.7 447.6L219.3 427l-14.6 11 72 36.5" />
    <path fill="#cf9b70" d="M536.7 326.4l-14.8 16-9 19 21 37" />
    <path fill="#202018" d="M948 568.5l-148 13 164.6 90.2 12.3-241" />
    <path fill="#10100f" d="M834 622.5l98 81.5 2 3.7 53-20.2" />
    <path fill="#274d00" d="M243 131.3l-76.5-37.6-25.4 56 117-57.5" />
    <path fill="#f1f2f7" d="M203 730.7L318 675l155.8 39.2-3.6 53" />
    <path fill="#ffcaae" d="M582 407.3l25.8 16.7-9 23.3-37-32.8" />
    <path fill="#c5bb9d" d="M292.5 464l33.2 2.6 13.2-40.8-41 7.2" />
    <path fill="#6d261e" d="M636.6 474.6l6.6-4 85 7.4-85.7 2.3" />
    <path fill="#93a3cd" d="M426.3 623.8L404 654l53.8 51 6-84.5" />
    <path fill="#181a26" d="M649 735.5l38.6-23.5-26.7-28.6L608 799" />
    <path fill="#000a10" d="M998.3 742.5l56.7 38V758l-106.8-55" />
    <path fill="#965d43" d="M751.3 527.3l8 20.4-70.4 32.5 59 9.3" />
    <path fill="#edf0f7" d="M275.8 754.3l120-105.5-88 17.3 42.7-15" />
    <path d="M995.8 254l59.2-8.3v-71.2l-51 12.6" />
    <path fill="#070f22" d="M484.4 602.6L444 623.4l-55.3-8L405 623" />
  </g>
</svg>