<svg version="1.1" viewBox="0 0 1024 768" width="1024" height="768" xmlns="http://www.w3.org/2000/svg">
  <path fill="#4e5131" d="M0 0h1024v768H0z" />
  <g fill-opacity=".5">
    <path fill="#fff" d="M233 695l295-108 55 200-423 12" />
    <path fill="#ffc4b4" d="M469 432l99-253 226 24 47 596" />
    <path fill="#fff" d="M726 693l-131 88 460-9-328-169" />
    <path fill="#001400" d="M460 598L6 799-31 40l618-71" />
    <path fill="#000001" d="M1055 759L788 638l-55-126 303-198" />
    <path fill="#fadab0" d="M343 485l-120 25-32-60 163-54" />
    <path fill="#fff" d="M372 644l268 155H175l36-87" />
    <path fill="#fff" d="M791 656L591 799l464-19-130-87" />
    <path fill="#ffebc2" d="M751 191l60 111-255-12-31-94" />
    <path fill="#000a00" d="M629 167l426 137L604 27-31 531" />
    <path fill="#050000" d="M466 730l171-140 136-32-130 139" />
    <path fill="#699b00" d="M155 274l168-170L48-31l47 301" />
    <path fill="#baa88e" d="M876 401l84 98-27 80-50-31" />
    <path fill="#051800" d="M1055 244L848 405l-69-210 232-109" />
    <path fill="#538900" d="M274-15l781 17-197 250-55-128" />
    <path fill="#a6c8ff" d="M507 564l75 97-130 36 57-192" />
    <path fill="#994930" d="M700 416l-81 262-104-112 11-122" />
    <path fill="#fff" d="M1055 799L761 613l-67 24 147 162" />
    <path d="M238 640l-60 147-209 2 29-251" />
    <path fill="#001600" d="M250 433L-31 322l658-204-365 341" />
    <path fill="#4f200d" d="M675 353l-150-6 27-51 195 10" />
    <path fill="#ceae96" d="M226 592l47-10 15 64-65-3" />
    <path fill="#fff" d="M322 656l75-3 177 146-386-41" />
    <path fill="#2a5400" d="M259 257L157 0l572-16-244 190" />
    <path fill="#000018" d="M729 669l16 52-273-25 183-46" />
    <path fill="#000004" d="M468 617l57-137-191 9 42 149" />
    <path fill="#efffff" d="M761 555l-14 28-63 72 104 32" />
    <path fill="#f5ac80" d="M704 431l53 118 46-185-334 3" />
    <path fill="#04060a" d="M901 697l-104-59-27-122 285 127" />
    <path fill="#788bd7" d="M398 693l19-70 260 174-203-79" />
    <path fill="#ffc7a3" d="M767 197l-165-22-74 42 281 116" />
    <path fill="#f9f9ff" d="M665 725l251-34 106 108-382-38" />
    <path fill="#fdbe92" d="M706 551l15-62-202 66 9-49" />
    <path fill="#471f0e" d="M702 435l-82-16-79 133 114-95" />
    <path fill="#001600" d="M-31 32L69 799l25-640 12-62" />
    <path fill="#a47250" d="M617 554l-46 21-87-136-10-134" />
    <path fill="#7d9a01" d="M769 108l172 45-84-121-239 79" />
    <path fill="#739600" d="M160 255L342 54 136 170l-86 90" />
    <path fill="#0a1500" d="M1053 174l-31 122L878 28l104 50" />
    <path fill="#000500" d="M385 434L244 290l279-56-81 194" />
    <path fill="#2c0f0f" d="M691 643l57-52-145-12 28 220" />
    <path fill="#ffd4b7" d="M702 423l-164-16 53 50 68-106" />
    <path fill="#614635" d="M947 418l-101-64-86 66 187 54" />
    <path d="M980 356l-23 306 74 118 16-424M537 113l340 41-293 31-97-8" />
    <path fill="#6d8600" d="M503 91l-144 5 14 52 116 5" />
    <path fill="#58536f" d="M710 88l77 29-193 6-42-43" />
    <path fill="#bbaa87" d="M284 469l28-89 50 37-33 91" />
    <path fill="#131501" d="M810 325l14 38 231 78-284-326" />
    <path fill="#ffccae" d="M636 465l88 37-85-9 121-69" />
    <path fill="#4c0e00" d="M710 469l21 30-114-36-51 25" />
    <path fill="#031700" d="M211 580L-29 466l39-256 170 100" />
    <path fill="#beae84" d="M266 483l-68 2 1-55 39-17" />
    <path fill="#1b0000" d="M714 358l-19-10 34-2 44 19" />
    <path fill="#abc1f1" d="M477 705l89-53-50-80-18-31" />
    <path fill="#5d7700" d="M14-31l-45 55 183 87 65-86" />
    <path fill="#4c4344" d="M479 422l-68 20-257 84 366-58" />
    <path d="M181 799l28-111-217-89-12 200" />
    <path fill="#678800" d="M1004 356l51-89-95 26-24 39" />
    <path fill="#000104" d="M788 343l2 12-20 47 10-63" />
    <path fill="#ffd1b9" d="M605 194l178 19-93 88-23 42" />
    <path fill="#f3a774" d="M808 389l-82-206 67 48 13 37" />
    <path fill="#537400" d="M962 277L635-14l313-17-2 203" />
    <path fill="#052c00" d="M259-2L130 142l113-29 75-98" />
    <path fill="#000005" d="M203 721l237-152-76 86-279 8" />
    <path fill="#f3a784" d="M663 260l-115-64-14 147-36-21" />
    <path fill="#000014" d="M608 654l1-25-7 123-89-69" />
    <path fill="#2a1408" d="M623 290l-34 14 85 36 17 47" />
    <path fill="#739500" d="M1055 135V66L970-4l-93 4" />
    <path fill="#ecf0fb" d="M764 600l99 173-160-118-67 33" />
    <path fill="#edf1ff" d="M155 799h338l-90-165-136 47" />
    <path fill="#00000a" d="M740 682l-90-43 88-52-117 161" />
    <path fill="#60493c" d="M112 637l33-95-32-28-34 77" />
    <path fill="#000001" d="M502 131l249 60 96 81-27-129" />
    <path fill="#360c00" d="M696 429l-1 21-90-11 24-22" />
    <path fill="#e8e7e1" d="M829 350l-38-8 6 30-5-4" />
    <path fill="#7d79a4" d="M757 701l-26 27-63-11 96-32" />
    <path fill="#5d6177" d="M593 799l-16-36 42-62 37-2" />
    <path fill="#0a141c" d="M1055 772l-85-37 80 64-160-160" />
    <path fill="#bd7f50" d="M698 511l138-129-76 139-18 80" />
    <path fill="#302c1f" d="M818 439l-78 109 232 94 28 38" />
    <path fill="#a79a81" d="M895 551l2-73 36 6 21 64" />
    <path fill="#6c301a" d="M597 413l56 30-49-16 64-100" />
    <path fill="#8caae5" d="M386 639l35 33 159-9-105-51" />
    <path fill="#f8f9ff" d="M445 734l84-5 94 70-435-73" />
    <path fill="#f8b992" d="M805 461l-115-32 5 42 127-58" />
    <path fill="#35332d" d="M511 537l-62 88 26-185 32 4" />
    <path fill="#45322f" d="M202 474l21 103 133 81 23-33" />
    <path fill="#ffceb1" d="M648 345l-19 32-51 1 47-34" />
    <path fill="#63331c" d="M688 559l-65 121-64-48 80-99" />
    <path fill="#365700" d="M-31 186l210-99-45 204 98-65" />
    <path fill="#11130f" d="M808 641l200 99-189-216-45 106" />
    <path fill="#a2775b" d="M525 578l164 5-128-74-55-189" />
    <path fill="#1e0500" d="M753 322l-62-7 19-15 19 1" />
    <path fill="#1a3300" d="M298 112L720-31l70 93 47-93" />
    <path fill="#052d00" d="M123 335l147 109 9 29L392 18" />
    <path fill="#030004" d="M412 489l-51-36-11 207 135-117" />
    <path fill="#edb189" d="M543 335l80-19-46-3 45 21" />
    <path fill="#3f1a00" d="M801 414l22-58-56 69 16 4" />
    <path fill="#0b1320" d="M644 773l-51 26 30-43 33-105" />
    <path fill="#07191a" d="M541 356l-7-25 14-19v63" />
    <path fill="#7a9a00" d="M712 86l62-117h-81l-19 90" />
    <path fill="#7f9d00" d="M923 117l-7 17-192-36 114-47" />
    <path fill="#060202" d="M221 706l-38-262-35 127-41 228" />
    <path fill="#030b09" d="M204 733l63-66-252-39 228 77" />
    <path fill="#1e4100" d="M125 40l195 22 425 26L127-31" />
    <path fill="#eaa884" d="M500 309l112 145 97 20-126-11" />
    <path fill="#ffd1ab" d="M632 531l-12-15 85-7 7 34" />
    <path fill="#f2f1fb" d="M921 693l-275 75 349 31-98-118" />
    <path fill="#6672af" d="M484 735l-57-68 163 101-26-60" />
    <path fill="#3d1b13" d="M594 678l152-97-168 42-66-46" />
    <path fill="#ffdcc1" d="M680 350l88 61 19-17-97-15" />
    <path fill="#001400" d="M489 328l43-62-135-103-111 245" />
    <path fill="#3a4600" d="M690 10L574-31 462 123l207-64" />
    <path fill="#986556" d="M502 339l56-161-54 35 68 50" />
    <path fill="#b5caf3" d="M500 609l16-81-19 35-30 81" />
    <path fill="#cec2a1" d="M304 411l37 17-4 47-37 11" />
    <path fill="#325100" d="M892 28l-73-2 236 130-55-91" />
    <path fill="#f2f5ff" d="M765 562l-12 36 139 166-161-158" />
    <path fill="#7a3d21" d="M575 520l120-17-113-19 13-35" />
    <path fill="#020000" d="M-15 129l74 29L46 37l-77 45" />
    <path fill="#504d3b" d="M962 386l-69 92-14 97-33-186" />
    <path fill="#2e2217" d="M672 347l59-15-43 3-175 6" />
    <path fill="#98896f" d="M248 652l-31-50 69-5-17 58" />
    <path fill="#8aa100" d="M172 174l27 51 41-73-36-17" />
    <path fill="#fffeef" d="M484 681l8 15 59-33v6" />
    <path fill="#070900" d="M1055 93l-102 76 32 99 39-2" />
    <path fill="#d8dbec" d="M331 799l30-55-165 35 5-62" />
    <path fill="#bf8874" d="M639 267l-161 66 15 129 3-129" />
    <path fill="#758f00" d="M21 45l96-76L4-8l-5 62" />
    <path fill="#fcd9c5" d="M720 290l18-87-74-8-49 78" />
    <path fill="#3d5100" d="M516 114l-36 100-47-74L656-31" />
    <path d="M992 375l-22 267 64 55 21-320" />
    <path fill="#1f1c11" d="M845 575l-5-206-36 106 3 167" />
    <path fill="#4f5d96" d="M968 729l-82-46-22-8 118 68" />
    <path fill="#f7f7ff" d="M639 799l18-63 14-15 156 25" />
    <path fill="#001800" d="M-21 245l476 191-9-8 37-57" />
    <path fill="#5b2919" d="M591 385l90-25-37-5-12 25" />
    <path fill="#60561f" d="M317 398l57 26-53-56-64 99" />
    <path fill="#6e5f3b" d="M293 520l52-31-8 24-110-113" />
    <path fill="#ffd7c1" d="M673 395l-17 28-3-72 19-3" />
    <path fill="#e7ebfa" d="M1011 753l-83-55 91 74-328-119" />
    <path fill="#3e6000" d="M958 190l-1 30-113 13-49-139" />
    <path fill="#0b080e" d="M479 611l-6-10-182-91 91 126" />
    <path fill="#4d5252" d="M389 433l-4 30 19 20 103-40" />
    <path fill="#2f3013" d="M799 280l215 78-99 57-107-74" />
    <path fill="#234a00" d="M245 137l146 15 80-16-235 144" />
    <path fill="#ae5937" d="M679 369l37 57-10 8-42-77" />
    <path fill="#738e00" d="M191 29l-85 41 12 57 41-38" />
    <path fill="#a75c3b" d="M586 366l71-72 99 102-94-67" />
    <path fill="#729200" d="M118 255l54-18-95-28 1 58" />
    <path fill="#1b1504" d="M-30 395l84 48 154 6-223 197" />
    <path fill="#f5f7ff" d="M747 613l70 37 125 72-259-67" />
    <path fill="#dcebe7" d="M537 350l-37-30 27 5v-9" />
    <path fill="#602813" d="M638 468l88 10-16 16 104 34" />
    <path fill="#0d2f00" d="M523 82l-7-56-175 26-27 25" />
    <path fill="#050003" d="M433 201l203-66 45-35 12 66" />
    <path fill="#e7825f" d="M831 386l-18-3 8-14 10-9" />
    <path fill="#422d22" d="M476 392l35-17-36-63 49 24" />
    <path fill="#7e8bb4" d="M489 705l-86-4 47-17 17-85" />
    <path fill="#534f3e" d="M802 614l-28-127-21 56 23 78" />
    <path fill="#ffbeb4" d="M603 491l66-1 29-2-55-8" />
    <path fill="#6d6e77" d="M636 749l-38-43 45-6-52 80" />
    <path fill="#4f6cb4" d="M732 605l2 10-32 27-38 29" />
    <path fill="#91573e" d="M688 195l-48-21 104 11v13" />
    <path fill="#1b2a03" d="M890 199l112 81-145 64-21-103" />
    <path fill="#2e2632" d="M539 280l-59-56 62-43-10 79" />
    <path d="M732 676l-40 27-74-19 89-19" />
    <path fill="#502b0f" d="M766 369l-83-28 115 21-32-34" />
    <path fill="#ae7b58" d="M550 425l-4 142-65-180 90 6" />
    <path fill="#4b4637" d="M948 429l19 100-86 43 63 14" />
    <path fill="#996c4f" d="M758 491l-38 2-10 88 41-2" />
    <path fill="#cc744a" d="M586 179l62 4-102 20 48-32" />
    <path fill="#4e6800" d="M13 214l-32-1-12-118 50 63" />
    <path fill="#080b17" d="M575 734l-11-71 92 125-22-55" />
    <path fill="#555365" d="M597 134l-27-9 154-21-56-26" />
    <path fill="#131d02" d="M1053 768l-17-92-175-20 98 62" />
    <path fill="#e5baa0" d="M710 385l47-9 20-9-40 83" />
    <path fill="#2a2a2c" d="M766 389h-53l-23-2 62 8" />
    <path fill="#002" d="M535 604l-25-41 10-30-1 40" />
    <path fill="#3b3a2a" d="M503 448l23 61-38 60-22-170" />
    <path fill="#718900" d="M402 147l50-33-46-14-45 18" />
    <path fill="#cdc1a8" d="M241 489l-28-18 9-26 31 6" />
    <path fill="#414242" d="M679 377l-92 6-44-15 64 14" />
    <path fill="#487200" d="M349 37l-26-8-112 113 70 7" />
    <path fill="#4c443b" d="M369 587l-11 49-39-15-4-42" />
    <path fill="#e8a07a" d="M622 296l-81-94-2 57 209 44" />
    <path fill="#070a16" d="M593 746l1-88-12 127 1 14" />
    <path fill="#ffd1ae" d="M570 408l34 18v29l-51-33" />
    <path fill="#040a1d" d="M325 658l125-42-141 22-99 71" />
    <path fill="#001014" d="M651 338l-48-17 59 18-28 38" />
    <path fill="#a7bada" d="M576 659l-46-58-30-48 35 124" />
    <path fill="#2c1f12" d="M620 345l-68 8 7-15 46-2" />
    <path fill="#fec2a2" d="M689 451l-43 15 82 6-12-47" />
    <path fill="#0b0a14" d="M833 660l79 37-127-92 189 89" />
    <path fill="#ffd1a3" d="M768 404l-80-7 113-6 6-62" />
    <path fill="#bb6746" d="M558 407l123 10-25 20-56-41" />
    <path fill="#a43415" d="M648 362l24 7-2-10-9-1" />
    <path fill="#f6b487" d="M797 246l-28 74-51-127 57 12" />
    <path fill="#635d4b" d="M850 446l1-71 104 135-23-77" />
    <path fill="#fff" d="M1017 759l38 7-12 18-79-60" />
    <path fill="#312619" d="M1000 267l-81 87 1-117 52-21" />
    <path fill="#0a0311" d="M802 254l-33-134 75 148-34 83" />
    <path fill="#4d6200" d="M429 51l-41-63-10 14 248-33" />
    <path fill="#4a6100" d="M66-28l140 60L64 96 41 77" />
    <path fill="#a5b4e6" d="M256 686l89-36 26 14 1-6" />
    <path fill="#faa268" d="M704 341l37-4 25 7-1 11" />
    <path fill="#001200" d="M236 410l75-188 211 56-26 47" />
    <path fill="#072900" d="M5 452l155 23L47 160l-78 87" />
    <path fill="#ffd2b8" d="M691 383l-10-43 44 49 40-5" />
    <path fill="#f0f4f8" d="M771 618l-18 83-46-54 52-77" />
    <path fill="#ffd6be" d="M628 399l40-32 56 116-25-68" />
    <path fill="#1b2900" d="M934 66l100 78H915l86 119" />
    <path fill="#6a5c49" d="M262 562l14 96 21-38-74-32" />
    <path fill="#2e0f06" d="M683 423l-16 8-34 27 64-16" />
    <path fill="#380e04" d="M716 478l-125-5-2-3-16 9" />
    <path fill="#aa8167" d="M628 586L481 402l67 146 89 35" />
    <path fill="#1c1419" d="M830 366l14-153-40 225 2-73" />
    <path fill="#f5f6fa" d="M216 727l228 53-57-138-21 8" />
    <path fill="#0f3800" d="M480 389l-3-65h-14l-68 42" />
    <path fill="#edbb97" d="M809 454l-30 20 44-75 3-1" />
    <path fill="#f5f7ff" d="M587 759l-84-23 17-12-6 74" />
    <path fill="#959a1a" d="M1055 116l-4-89-48 19 6 41" />
    <path fill="#807452" d="M294 408l47-14 4 80 22-52" />
    <path fill="#072700" d="M323 226l150 65 19-84-57-62" />
    <path fill="#070600" d="M78 134l-109 6L5 65l89 38" />
    <path fill="#435800" d="M321 205l36-12-13-33-51-4" />
    <path fill="#000001" d="M186 767l19-58-236-81L89 799" />
    <path fill="#223b00" d="M674-31L657 89l-44-1 30-118" />
    <path fill="#f2f2f7" d="M954 799L834 655l-36-16-85 129" />
    <path fill="#7b7e98" d="M252 702l-89 8 73-7 59-29" />
    <path fill="#eac3ac" d="M544 361l27 15h28l39-7" />
    <path fill="#fbc39f" d="M653 184l37 111-80-3-16-104" />
    <path fill="#eef6f1" d="M792 345l32 7-23 9-2-5" />
    <path fill="#1e1610" d="M211 601l-84 36 18-174 84 52" />
    <path fill="#6c5e2a" d="M192 470l15 35 10-3-19-82" />
    <path fill="#000102" d="M582 711l109-31-141-10-34 18" />
    <path fill="#0c0b1e" d="M590 675l-77-106 106 121 94 4" />
    <path fill="#072500" d="M219 67l7 51 77-89-22-15" />
    <path fill="#cd8766" d="M643 334l60-34-61-13 44 49" />
    <path fill="#cf8c5a" d="M772 491l-51 9 4-61 64 24" />
    <path fill="#69351d" d="M637 592l-17 54-41 4-18-94" />
    <path fill="#6b6a7b" d="M706 106v28l-19-48 58 19" />
    <path fill="#638900" d="M1046 119L860-24 792 85 950-26" />
    <path fill="#f2f3f5" d="M749 605l-70 54h34l214 90" />
    <path fill="#be7454" d="M695 449l12-45 83 26-92-5" />
    <path fill="#566268" d="M678 672l-2 3-37 3 15-12" />
    <path fill="#4c402b" d="M211 642l44-89-49 48 52 57" />
    <path fill="#a88c7e" d="M759 516l-16 29-14 16-78 29" />
    <path fill="#344c0a" d="M840 331l5-131 23 113-31 69" />
    <path fill="#7e7b91" d="M753 711l-31 18-42-18 56-21" />
    <path fill="#040206" d="M629 117l110 73 26-80 74 109" />
    <path fill="#335300" d="M70 271l103 12-112-42 62-180" />
    <path fill="#494746" d="M733 391l-20 3-34-15 23 7" />
    <path fill="#1e4600" d="M742 56l24-54 69-33-58 86" />
    <path fill="#642414" d="M623 514l52-7-18-14-22 4" />
    <path fill="#0d152f" d="M785 634l163 56-98-21-78-55" />
    <path fill="#2a1305" d="M737 584l-73 14-34 79 46-14" />
    <path fill="#f6c3a6" d="M726 425l26 1 9 20-62-15" />
    <path fill="#231d16" d="M293 589l-29-37 126-98-45 109" />
    <path fill="#131817" d="M776 360l8-14 7 11-12 21" />
    <path fill="#3d5000" d="M923 340l132-3-113 38 16-84" />
    <path fill="#030005" d="M541 207l47-49-24-57-14 20" />
    <path fill="#7b9410" d="M1005 304l-22 2-17 37 49-12" />
    <path fill="#595d4c" d="M553 97l32 16-3-40 41 12" />
    <path fill="#ddc8b6" d="M522 290l-13 38 19 9 4-3" />
    <path fill="#aa6646" d="M544 353l42 15 40-29 31 3" />
    <path fill="#99421a" d="M743 377l-7 2-24-13h26" />
    <path fill="#020204" d="M364 475l27 163 55-21V488" />
    <path fill="#051800" d="M856 236l14 58 65 5-8-42" />
    <path fill="#1d0c01" d="M714 343l-12 13 32 3 11-3" />
    <path fill="#1d1613" d="M-29 461l121 70v84l-123 34" />
    <path fill="#f1bba0" d="M745 452l-120 12 27 3 9-15" />
    <path fill="#9d5e46" d="M626 474l-30-4 18-63-4-11" />
    <path fill="#8f604d" d="M716 293l67 42h-43l41 20" />
    <path fill="#f8e4d2" d="M625 205l117 4-24 43-10-12" />
    <path fill="#020101" d="M681 679l-23 44 78-37-19-20" />
    <path fill="#494409" d="M196 423l-6 65 24-89 48 27" />
    <path fill="#181d1b" d="M728 335l-18-4-62 14 49-7" />
    <path fill="#a8c1e7" d="M524 591l-32-28-13 61-58 10" />
    <path fill="#f6b597" d="M727 491l-103-6 57-5-5 50" />
    <path fill="#2a3c00" d="M980 679l75 24-33 22-42-13" />
    <path fill="#e7a676" d="M794 243l-37 22 36 86 16-13" />
    <path fill="#845c43" d="M697 559l-51-25-51 10 47 47" />
    <path fill="#eebd96" d="M569 382l-42 8-5-41 10 13" />
    <path fill="#6878a2" d="M577 725l3 23-39-4-72-59" />
    <path fill="#001001" d="M384 243l49-79-7 256-71 11" />
    <path fill="#362311" d="M698 393l-17-28-4-25-6 23" />
    <path fill="#1a1a1d" d="M641 97l-62-5 55 83-35-69" />
    <path fill="#061d00" d="M366 375L8 457l190-214-47-12" />
    <path fill="#0b0a0b" d="M901 684l84 3-152-32 73 41" />
    <path fill="#f7af89" d="M622 421l-73 6 29 23 73-80" />
    <path fill="#473e2e" d="M141 563l-41-50-24 95 54 10" />
    <path fill="#dce1fa" d="M234 705l-26 15 24-19 98 98" />
    <path fill="#ce9e7e" d="M528 197l73 127-48 3 55 9" />
    <path fill="#698300" d="M762 112l162 45 11-51-117-19" />
    <path fill="#875028" d="M745 508l-41-30-1-17 24 73" />
    <path fill="#efeff4" d="M895 671l94 128-284-66 223-28" />
    <path fill="#5b5543" d="M875 553l4-53 34 62 8 23" />
    <path fill="#f1b997" d="M637 350v15l-8 4-38-22" />
    <path fill="#080704" d="M327 656L71 764l264-133-45-13" />
    <path fill="#360700" d="M665 469l17 12 35 7-24-11" />
    <path fill="#4f6f00" d="M143 235L97 120l107 120 46-56" />
    <path fill="#d28e5f" d="M706 559l-104-53-5 32 22-7" />
    <path fill="#8da9df" d="M421 712l-38-74 134-34-117 49" />
    <path fill="#2b2932" d="M824 150l-13 9-92-23-19-38" />
    <path fill="#5b2a10" d="M754 313l-61 18-19-24 49 2" />
    <path fill="#222024" d="M799 231l51 85-59 96 29-64" />
    <path fill="#456300" d="M1055 28V-9l-91-22 25 63" />
    <path fill="#0d2229" d="M669 344l-72-22 78 17 19-6" />
    <path fill="#3d3d38" d="M453 622l48-143-4 79-24 49" />
    <path fill="#2b5200" d="M289 180l15-82L294-2l81-29" />
    <path fill="#f0ba95" d="M770 349l-57-22 27-2-20 19" />
    <path fill="#7989b9" d="M473 700v36l23-4-35-122" />
    <path fill="#0c0e12" d="M903 692l-45-19-74-52 124 36" />
    <path fill="#592308" d="M639 586l105-1-115 33h-42" />
    <path fill="#e7ecf9" d="M215 727l90-61-25 9-83 123" />
    <path fill="#433628" d="M288 533l80-41-123 15-34 51" />
    <path fill="#524630" d="M724 598l61-129 36 15-15 31" />
    <path fill="#364f00" d="M918 103l-8-18 145 39L821 5" />
    <path fill="#0d030f" d="M504 189l7 132-64-17 25 13" />
    <path fill="#925f3d" d="M628 490l-51 51-36-140 3 81" />
    <path fill="#0e3e00" d="M299 139L163 272l115-1 43-18" />
    <path fill="#121509" d="M446 311l46-5 9 80 5-49" />
    <path fill="#998d60" d="M341 493l-52-2 29-105-42 64" />
    <path fill="#f1f3f4" d="M735 709l28-116-76 68 118-15" />
    <path fill="#a06c49" d="M570 332l-16 15-16-90-24 43" />
    <path fill="#3f3a36" d="M603 384l-50-11-10-8 47 17" />
    <path fill="#272522" d="M569 300l-35 44 12 10 4-23" />
    <path fill="#181b1d" d="M757 333l33 25-16 27 11-37" />
    <path fill="#697baa" d="M703 629l40-38-16 30-24 20" />
    <path fill="#b58b5d" d="M760 418l41 14-15 38-23-63" />
    <path fill="#cde0e5" d="M538 332l-24 1-11-12 36 4" />
    <path fill="#060302" d="M630 111l-10 30-105 26 311 23" />
    <path fill="#2b2a1e" d="M524 499l-4 35-12-79-60 33" />
    <path fill="#2c2819" d="M818 412l-22 152 100-137-28 98" />
    <path fill="#111937" d="M1000 756l24 25-71 18 68-31" />
    <path fill="#9b9177" d="M913 556l22-2-10-85-26 40" />
    <path fill="#392213" d="M554 312l79-16 16 51v-39" />
    <path fill="#587c00" d="M300 132l-120-18-3 46 132-86" />
    <path fill="#4c7200" d="M851 226l-19-42 39-61 19 26" />
    <path fill="#417400" d="M874 29L720 55l75 21 25-84" />
    <path fill="#e9a880" d="M608 262l1-74-64 15 3 92" />
    <path fill="#8c7368" d="M594 319l-27 1 59-34-76 14" />
    <path fill="#301307" d="M687 452l-53-17 44-8 18 12" />
    <path fill="#041104" d="M532 341l-180-62 17-40 147 103" />
    <path fill="#313222" d="M350 482l15-77-43-44 75 116" />
    <path fill="#a09279" d="M243 600l40 18-19 22-32-22" />
    <path fill="#090e13" d="M611 384l26-10 17-36-24 43" />
    <path fill="#9e7454" d="M497 434l10-110 15 54 31 35" />
    <path fill="#658700" d="M707-31h-23l-16 95 72 32" />
  </g>
</svg>