<svg version="1.1" viewBox="0 0 1024 768" width="1024" height="768" xmlns="http://www.w3.org/2000/svg">
  <g fill-opacity=".5">
    <path fill="#08080c" d="M732.8 682.2l-226 5.2 70.2-27.2.5 48.5" />
    <path fill="#686662" d="M783 590.3l-17.5-47-5 20L775 627" />
    <path fill="#021923" d="M575 322.2l-8.3-2-16.7 3.5-9.5 5.5" />
    <path fill="#0f0e0c" d="M780 118.2l20.3 53.3-73-39.6-54 58" />
    <path fill="#213000" d="M.3 45.8l63.4-9.5L30 86.8l80.8 25.2" />
    <path fill="#cc8863" d="M647 345l-6-11.2 1.3 3.3-67.8 37" />
    <path fill="#54503f" d="M957 514.4l-22.6 40.2-30.2 28 46.4-20.3" />
    <path fill="#030701" d="M257.7 675l-72 60.7-84.5-50.6 76-54" />
    <path fill="#424442" d="M849.3 318.5L838.5 338l.6-54.2 7 6.3" />
    <path fill="#193e00" d="M129.2-1.6L304.8-31 203.4 111.7l-.3-90.5" />
    <path fill="#284400" d="M680.8 85.5L470.8 10l-65 53 155-39" />
    <path fill="#f8f8f0" d="M494.3 687.6l-13.8-9.3 56-2.3-11 3" />
    <path fill="#261101" d="M698.6 489.5l-2-10.2 15.8-3.4 5.7 7" />
    <path fill="#ffeabc" d="M658.7 348.6l-11.4 9.7 24-4-5.8-4.8" />
    <path fill="#7b9a00" d="M713.4 23l-38 14 30.2 39L723 43.8" />
    <path fill="#b47c5a" d="M639.8 178.2l15.7 2.7 3-13 28 31" />
    <path fill="#333c00" d="M943.8 223.6l21.7-118.8-57 64 84 53" />
    <path fill="#6e6b6b" d="M591.7 796.7l38.6-58.6-36.8-1-2.5 30" />
    <path fill="#a2a5c4" d="M431 708.2l53.4-55-74 49.5-10.7-37.4" />
    <path fill="#4c4845" d="M579.3 184.3L540 192l-57.2 40 39-16.4" />
    <path fill="#c7704e" d="M644.6 408.7L705 429l-93.4-15.8 1.3 19.2" />
    <path fill="#696150" d="M897 420.6l-17-25.8-40.5 15 18.2 28.6" />
    <path fill="#a0b5d8" d="M580.3 663.6l-53.6-72-20.4-25.7-29.5 72" />
    <path fill="#f1f1f6" d="M869 732.7l-200.4-6-26 31.3 41.6 41" />
    <path fill="#262016" d="M588 350l26.3-9-45.2-10 25 15.5" />
    <path fill="#9a694d" d="M524 539.3l12.6-17 51 48.4-70-8" />
    <path fill="#333b58" d="M207.2 730l39.5-35.3-66.4-32 71.8 36" />
    <path fill="#db9773" d="M629.6 383.8l-45.7-1-60 6.2 75 17.6" />
    <path fill="#040201" d="M834.7 293.2l-64.2-100.6 53.2 25L839 237" />
    <path fill="#d7a272" d="M769.5 425.8l27.3 45-83.6-1 22 28.6" />
    <path fill="#1f2c00" d="M1055 331.5l-61.6 20.8-43 16.2-3 43.8" />
    <path fill="#e1a56a" d="M725.7 532.2l-34.2 22.2 16.3-56 3.7 16.3" />
    <path fill="#395bc0" d="M1039.5 772l-36.8-28-84.4-49.4 57.7 31" />
    <path fill="#eef1fa" d="M974.7 743l-81-52L745 625.8 1042 799" />
    <path fill="#344572" d="M567.5 710l22.7 34-62.8-48.2 33 16.3" />
    <path fill="#0b0c04" d="M117 650.8l-89.5-14.3 82.7-218.2-41.4 190" />
    <path fill="#5d5239" d="M291.8 484.7L222 512.2l113-9.6-80.4-24" />
    <path fill="#c99b7b" d="M804.3 262.7L740 195.2l48.8 50.6 14.6 3" />
    <path fill="#d19f85" d="M672.5 331.4l-34.6-2 29 9.3 94-115" />
    <path fill="#526300" d="M912.8 170.7L951 183l-11.3 41.4-36-19.2" />
    <path fill="#000002" d="M990.3 472.2l56.6-20-8 222.4-56-3.4" />
    <path fill="#b29788" d="M715 556l-25.5 18 35.5-10.7 35.3-56.3" />
    <path fill="#673b1c" d="M573.7 479l15.2 34 13-45.6-5-13.7" />
    <path fill="#be7236" d="M749.2 356.2l-11.6-14 31.4 11 4.7 18" />
    <path fill="#688100" d="M81.5 69.2L104 47.6-10 14l42-45" />
    <path fill="#cb8d6a" d="M545 318.2l-28.8-13.7 76-40L534 230" />
    <path fill="#deac84" d="M574.5 327.8l.3-4.5 42 4-12.6 9" />
    <path fill="#426300" d="M719.5 97l-63.2-35 72-93L652 36" />
    <path fill="#021400" d="M174.8 276.6l55 29-83.3 83-51.7-71" />
    <path fill="#12296f" d="M326.8 655l-99.4 43.6 59.3-25 70.3-27" />
    <path fill="#998c72" d="M253 497l-33.7-24.4-19.6-26 6.6 43.3" />
    <path fill="#6c7366" d="M745.5 101.3l-70-1.4-27-14 52.2 2" />
    <path fill="#1d3e91" d="M333 656.2l74.5-26.7 62.4-17-131 41.2" />
    <path fill="#b0c5e2" d="M470.6 644.8l12.3 22.8 25-130.2-6 7" />
    <path fill="#0f3700" d="M373.6-14l-66 131 120.6-58-86.6-53.8" />
    <path fill="#58565f" d="M762 134.2L745.7 106l-.3 34.8 10.7-30.4" />
    <path fill="#f8cbad" d="M600.7 208.6l69-26.6-30 110.6 62-21.2" />
    <path fill="#191a14" d="M709.4 316.4l-5-9 26.3-1.5 15.3 8" />
    <path fill="#574d3c" d="M98.2 572.7l14.8-28 17.3 3.3-17.8 62.2" />
    <path fill="#3c4900" d="M81 141.8L91 65l33.7 65-57.4 51.4" />
    <path fill="#3f3929" d="M772.4 554l-21.2-7.3 16.3-48L806.2 605" />
    <path fill="#1c2a02" d="M476.3 221l-18-18.5 113.5-98L522 87" />
    <path fill="#040503" d="M732.8 680.5l-10-10.2-50.7 14.5 64 7.2" />
    <path fill="#e9edf3" d="M723 632l-56.5 42 41.7-42L795 736.8" />
    <path fill="#1e1d14" d="M341 517.4l-51.8 62.3-7-89.2 100 129.7" />
    <path fill="#6563a2" d="M655.5 730.8l27.3-15.4-31.7 24 1 18.3" />
    <path fill="#150300" d="M641 425l-14.6 10.6-5-10.4 2-3.7" />
    <path fill="#2f2715" d="M844.3 447.6l-62.7 32.8 24.2-19.7 22.7-25.4" />
    <path fill="#12130f" d="M1015.4 733L864 664.4l56 42.4-58-56.6" />
    <path fill="#899acc" d="M925.6 715.2l-33-26 91 56.6-27.3-21.2" />
    <path fill="#2f2a29" d="M766.3 391.6l9-6-8.3 3-19.3 1.2" />
    <path fill="#221a12" d="M615.8 297.4l21.5 11.4-75.5-2.7 19.5 2" />
    <path fill="#244f00" d="M901 231.5l.4-66.3-52.5 67.6 12 11.6" />
    <path fill="#f3f4f9" d="M337.5 662.6L214 744.8l-3.6-7 24.5-29" />
    <path fill="#7a9900" d="M155.2 252.8l-30.5-40.4-18.3 11.7-12.8 17" />
    <path fill="#70716d" d="M607.3 77.6L581.7 81l16.7 12-4.5-1" />
    <path fill="#4a6700" d="M883 21.7l172 113v42L994.3 56" />
    <path fill="#dbe5fa" d="M976.4 730.8l-38-20.2 39.3 16-24 72.4" />
    <path fill="#3c3a27" d="M971 487l-43.4-53.4 16.7 55 14.2 35.7" />
    <path fill="#343021" d="M979 410.3l-139.5-27.5-14.6-23.5 126 21.3" />
    <path fill="#4d524b" d="M395.3 437.2l5 41.5 86.3-59-1.4 31.5" />
    <path fill="#b68d74" d="M543.4 528l-26-43-.8-16.4 65 85.3" />
    <path fill="#09060a" d="M585.6 112.3l-2.6-8.7L477.2 202l77.8-10.7" />
    <path fill="#c18558" d="M716.8 439l40 59 17.2.2 4.3-29.4" />
    <path fill="#5d2c14" d="M601.5 171l43.7 11-75-4.2 26.6-4.4" />
    <path fill="#7b9800" d="M192.8 138.8l-25 64.3 29 7 37.6-76" />
    <path fill="#100e1e" d="M509.2 565l11.8-33.4-.3 13-1.2 35.5" />
    <path fill="#e9eef6" d="M730.2 619l27.2-50.6 33.3 100-39.2-20.3" />
    <path fill="#113100" d="M54.2 324.4l4-68.7 113 31.7-64.3 4.4" />
    <path fill="#0b102b" d="M151.6 727l37 1 35-9-3.7 5" />
    <path fill="#050405" d="M204.5 730.4l-28 47.6-206-118.2L107.8 799" />
    <path fill="#f4fdff" d="M813.7 358.5l-21-7.4 29-2-9 6" />
    <path fill="#4a4331" d="M842.5 465.5l89.3-73.8-48 84L828 386" />
    <path fill="#14161e" d="M631.8 799l-2-70.4-50 4.2L650 734" />
    <path fill="#2f5600" d="M159.7 229.2l16 45.2L112 284l116.3-62.2" />
    <path fill="#ffd5b3" d="M699 393.5l73-.5 12.8 7-36.3-.3" />
    <path fill="#050407" d="M831 346.3l-21-8 1-28.8 18.6 17" />
    <path fill="#4f7100" d="M749 66.4l-40.7 25L737 14.8l27.8-37.4" />
    <path fill="#6e9a00" d="M779.8 70v52.5l19.4 4.8L723.4 86" />
    <path fill="#7b3d1d" d="M632 305.4l16.6.3 6.7 27.8-41.8-15.8" />
    <path fill="#d18d64" d="M547.6 422.6l95.4 53-83.8-32.4-2.2-27.7" />
    <path fill="#22130e" d="M671.7 609.3l70.3-17.6-9.8 11.8-75 57.4" />
    <path fill="#3e4144" d="M624 735.7l48.7-49-34.7 15.8-13.8 27.7" />
    <path fill="#7b7460" d="M925.2 561.2l-30-3.5 56.8-52-9.5 44" />
    <path fill="#c07245" d="M681.8 341.4l-3.5 4.3 24 7 13.5-17.3" />
    <path fill="#343552" d="M575.7 758.3l61.4 35.5-100 5.2 59-43" />
    <path fill="#517300" d="M170 241.6l-42 38.7 55-142-77.4 46" />
    <path fill="#ffe2cd" d="M646.4 381l18.3 32 13-24-17-21.5" />
    <path fill="#efbe9a" d="M530.7 377.8l74 14.2-71.8-25.8 3-2.4" />
    <path fill="#161c00" d="M254.4 517l-271-109-9.5 99 78-43.4" />
    <path fill="#e9fbff" d="M1014.6 756l17.8 43 17-4.8 5.6-13.2" />
    <path fill="#f1b586" d="M772.4 379.6l-59.7-22.3L685 363l66.3 1.8" />
    <path fill="#61635f" d="M567.2 88l5 25.2 14.8-8.5 17.2 28.4" />
    <path fill="#625d38" d="M356 404l9 49-33.2-60-20.8-12.7" />
    <path fill="#383526" d="M489.2 573.6l33.8-70.8-14.3-36.4-48.4 87.8" />
    <path fill="#ab5c3b" d="M676.7 381.7l42.4 43.5-8 6-12-18" />
    <path fill="#8f705b" d="M549.4 329h16l-18.7 26 .8-20.2" />
    <path fill="#668e00" d="M793.7-21l57 36 128.8 9.5L997-31" />
    <path fill="#aa836f" d="M612.4 316.7l-11.4-9.5 20.4 17.4-88-10" />
    <path fill="#4e3020" d="M551.7 154l-21.2 116.3-20.3 35.3 35.6-112.8" />
    <path fill="#bfb297" d="M227.2 491.7l23.5-.4 1-36.4-25.3-13" />
    <path fill="#3c5500" d="M359.5 100l-2.5 59.4 25.4-76.8 133.4 9.2" />
    <path fill="#131f00" d="M957.2 142l2.3 75 95.5-61-117.6-62.8" />
    <path fill="#cfcbd5" d="M354 765l-4.3 29.6-20 4.4-28.8-44.2" />
    <path fill="#393321" d="M960 210.5L934 261l72.3 26-26-4.7" />
    <path fill="#121111" d="M649.4 336.2l34.5 7.2-27 .6-18 14" />
    <path fill="#b1765a" d="M615.5 421.6L514.2 389l8.5 39.2L593 395" />
    <path fill="#001b00" d="M64.4 191L53 285 6 299.6 24.4 225" />
    <path fill="#7f5336" d="M617.8 563.3l-12.2-22 17.6-7.3 61.4 17.7" />
    <path fill="#f2be8d" d="M782 371.5l-16.5 46 22.7-21.8 17-42.8" />
    <path fill="#052f00" d="M281 160.4L303 269l77-60.3L231 220" />
    <path fill="#44410d" d="M277.6 458l36-84-47.7 76-35-54" />
    <path fill="#936c57" d="M666.4 585.4l77.8-56.6-39.6 23.8L611 582" />
    <path fill="#597d00" d="M185.8 232.6l71.5-122 33.5-27.3 14.4 25.5" />
    <path fill="#713e1b" d="M802.3 388l6.6 34.6-9-9.4-45 16.4" />
    <path fill="#304f02" d="M825.4 112.7l-27 11.7 42.8 78-1.6-14" />
    <path fill="#262419" d="M85.3 628.7L68 566.4l50.2 74 38.2-41.7" />
    <path fill="#f8b89a" d="M614.3 408.3l43-33-29.6 45.5-14-8" />
    <path fill="#f2b5aa" d="M714.5 494.8L656 480.5l-28.8.7 2.3 4.6" />
    <path fill="#9c5e40" d="M713.6 324.4l65.2-2-70.4-3-10 20.8" />
    <path fill="#f4c8ae" d="M664.7 450.8l-6.8 19.8 75-46.6-23 31.6" />
    <path fill="#416000" d="M176.7 4.7l-.4 85.2 23.7 8 .5-59" />
    <path fill="#080706" d="M673.2 706l59.4-20-28.7-26-23 1" />
    <path fill="#f7bb94" d="M561.5 207.5l77.2-25-37.6 100 24 7" />
    <path fill="#262518" d="M285 566.5l55.2 85 43.2-45-89.5 39.7" />
    <path fill="#cc805e" d="M688 306.5l-110.6-23 74.8 20.2 13.5 27" />
    <path fill="#f0f4fa" d="M394.5 648l-8-10L262 712.5l3.6-19.8" />
    <path fill="#5a5e5d" d="M681.3 111.7l26.7 9.8 9-34-38 41.2" />
    <path fill="#123400" d="M783 31l-27-56 77.6 26.4L835-31" />
    <path fill="#1a171b" d="M758 193.8l-35.4-91.4 35.5 40.4-24-41" />
  </g>
</svg>