<svg version="1.1" viewBox="0 0 1024 768" width="1024" height="768" xmlns="http://www.w3.org/2000/svg">
  <g fill-opacity=".5">
    <path fill="#f0b990" d="M807 384l-86 34-55-54 33 40" />
    <path fill="#3d5200" d="M524-16l95 5-41 107-41-13" />
    <path fill="#415900" d="M475 76l28 89-43 27-9-104" />
    <path fill="#7f9d00" d="M877 70l-48-28 1 53 38 14" />
    <path fill="#f9c4ad" d="M625 526l64 9-20-25-39 5" />
    <path fill="#b36f4c" d="M476 338l7-9 12 13-8 77" />
    <path fill="#0d1412" d="M549 318l-3 51-6-30-3-4" />
    <path fill="#f2f3f9" d="M520 727l-4-1-118 30 205 33" />
    <path fill="#333736" d="M712 334l31-1 48 13-52-9" />
    <path fill="#8696bd" d="M521 537l-28 26 18-31h-1" />
    <path fill="#445b00" d="M1055 261l-68 22 39 66 29 22" />
    <path fill="#a2afd6" d="M200 722l127-67-116 59-11 73" />
    <path fill="#6e8400" d="M418-31l76 45 24-3 36-42" />
    <path fill="#74729d" d="M767 684l-13 22-117 22 83-9" />
    <path fill="#dd895b" d="M694 356l29-13-41 5 90 36" />
    <path fill="#fac09b" d="M723 188l23 111 28-75-78-28" />
    <path fill="#b96941" d="M634 388l20-29 2-15-39 61" />
    <path fill="#3f5600" d="M375 76l-29 52 94 23-71 16" />
    <path fill="#ebc3aa" d="M627 379l-45-2-18-6 79-18" />
    <path fill="#4b432f" d="M293 653l-31 9 32-58-43-53" />
    <path fill="#9e5d3b" d="M782 215l26 42-47-62-45-9" />
    <path fill="#393639" d="M661 103l-64 38-24-23 67 2" />
    <path fill="#d68058" d="M807 400l17 6 8-36-19 58" />
    <path fill="#0c0f10" d="M685 383l-16-46 17 1-9 5" />
    <path fill="#011f00" d="M303 282l-25 157-15-2-92-191" />
    <path fill="#295600" d="M278 266l20-29-44-23-2 43" />
    <path fill="#fed0b1" d="M808 423l-17 36 10 5 13-41" />
    <path fill="#dda385" d="M725 325l-27 1 58 11-6-10" />
    <path fill="#e6cbbc" d="M728 390l-30-5v-10l71 11" />
    <path fill="#d9a478" d="M762 407l10-69 7 29-11 1" />
    <path fill="#808487" d="M627 698l-2 2-18 28 18 3" />
    <path fill="#b48056" d="M502 437l78 55v-56l-55 79" />
    <path fill="#060807" d="M349 655l112-178-44 120-58 58" />
    <path fill="#f1f4fa" d="M380 638l-24 31 59-9 16 34" />
    <path fill="#29261d" d="M796 360l145 16-34-52-101 43" />
    <path fill="#739200" d="M114 57l2 51 44-20-21-33" />
    <path fill="#141a2b" d="M615 729l-107-48 75 47 67 11" />
    <path fill="#cadcff" d="M907 686l15 20 58 24-78-41" />
    <path fill="#bc6841" d="M740 458l-48 19-66-6 158-7" />
    <path fill="#171e00" d="M130 363l74 55-71 131-5-128" />
    <path fill="#1e3900" d="M-11 132l25 27 55 52 53-25" />
    <path fill="#e8e9f4" d="M264 688l-34 13 240 7-243 7" />
    <path fill="#8d3011" d="M805 400l12 2 8-2 5-25" />
    <path fill="#67696a" d="M730 91l-5 50-9-52-14 32" />
    <path fill="#a0966a" d="M263 448l-44-21-14 11 72 37" />
    <path fill="#cf9b70" d="M537 326l-15 16-9 19 21 37" />
    <path fill="#202018" d="M948 569l-148 13 165 90 12-241" />
    <path fill="#10100f" d="M834 623l98 81 2 4 53-20" />
    <path fill="#274d00" d="M243 131l-76-37-26 56 117-58" />
    <path fill="#f1f2f7" d="M203 731l115-56 156 39-4 53" />
    <path fill="#ffcaae" d="M582 407l26 17-9 23-37-32" />
    <path fill="#c5bb9d" d="M293 464l33 3 13-41-41 7" />
    <path fill="#6d261e" d="M637 475l6-4 85 7-85 2" />
    <path fill="#93a3cd" d="M426 624l-22 30 54 51 6-84" />
    <path fill="#181a26" d="M649 736l39-24-27-29-53 116" />
    <path fill="#000a10" d="M998 743l57 38v-23l-107-55" />
    <path fill="#965d43" d="M751 527l8 21-70 32 59 9" />
    <path fill="#edf0f7" d="M276 754l120-105-88 17 43-15" />
    <path d="M996 254l59-8v-72l-51 13" />
    <path fill="#070f22" d="M484 603l-40 20-55-8 16 8" />
  </g>
</svg>