<svg version="1.1" viewBox="0 0 1024 768" width="1024" height="768" xmlns="http://www.w3.org/2000/svg">
  <path fill="#4e5131" d="M0 0h1024v768H0z" />
  <g fill-opacity=".5">
    <path fill="#fff" d="M233 695.2l294.5-108.6 55 200.7L159.8 799" />
    <path fill="#ffc4b4" d="M469 432l99-253.5 226.2 24.3 47 596.2" />
    <path fill="#fff" d="M725.8 693L595 781l460-8.7-327.6-169.6" />
    <path fill="#001400" d="M460.3 598.2L5.7 799-31 40l617.5-71" />
    <path fill="#000001" d="M1055 759L788.4 637.8l-55-125.8 302.3-197.7" />
    <path fill="#fadab0" d="M343.3 485.3L222.6 510l-32-60L354 395.8" />
    <path fill="#fff" d="M372.4 644l268 155H174.6l36.6-87.4" />
    <path fill="#fff" d="M791.4 656l-200 143 463.6-19.4-130.5-86.3" />
    <path fill="#ffebc2" d="M751.2 191L811 302.4l-255-12-31-94.5" />
    <path fill="#000a00" d="M629.2 167.4l425.8 137L604 26.6l-635 504" />
    <path fill="#050000" d="M465.5 730.4l171.7-140.7 135.7-32-130 138.8" />
    <path fill="#699b00" d="M154.8 274.2L323.3 104 47.6-31l47.2 300.6" />
    <path fill="#baa88e" d="M876.4 400.6l84 98.5-27 80-50.2-31" />
    <path fill="#051800" d="M1055 244L847.7 405.2l-69-210.5 232.5-108.2" />
    <path fill="#538900" d="M274-15.4l781 17.8-196.6 249.4L803.2 124" />
    <path fill="#a6c8ff" d="M506.8 563.5L582 661l-129.8 35.5 57-192" />
    <path fill="#994930" d="M699.8 416.3l-80.4 261.2-104.6-111.7 11.3-122" />
    <path fill="#fff" d="M1055 799L761.2 612.8 694 637.3 841.2 799" />
    <path d="M237.7 639.8l-59.4 147-209.3 2.7 28.8-251.7" />
    <path fill="#001600" d="M249.5 433.2L-31 322l658-204-364.6 341" />
    <path fill="#4f200d" d="M675.4 352.8L525 347.3l26.6-51.5 195.7 10.5" />
    <path fill="#ceae96" d="M225.6 591.6l47-10 15 64.2-64.5-2.4" />
    <path fill="#fff" d="M322.2 655.5l75-2.8L574 799l-386.2-40.7" />
    <path fill="#2a5400" d="M259 257.2L156.5-.5 729-16 484.5 173.6" />
    <path fill="#000018" d="M729 669.2l15.6 52L472 696l183.2-45.7" />
    <path fill="#000004" d="M468 617.3L524.5 480 334 489.3l41.5 148.2" />
    <path fill="#efffff" d="M760.8 555L747 583l-63.3 72.3 104.5 32" />
    <path fill="#f5ac80" d="M704.2 431L757 548.6 803 364l-334 3.4" />
    <path fill="#04060a" d="M901.3 696.8L797 637.6l-26.6-121.2 284.6 127" />
    <path fill="#788bd7" d="M398 693l19-69.7L676.6 797l-203-78.7" />
    <path fill="#ffc7a3" d="M767 196.5l-165-21.2-74 42L809 333" />
    <path fill="#f9f9ff" d="M665.2 725l251-34.4L1022 799l-381.8-38" />
    <path fill="#fdbe92" d="M706.3 551.4l15-62-202 65.4 8.3-49.2" />
    <path fill="#471f0e" d="M701.7 435l-82-15.7-79.2 133 114-94.8" />
    <path fill="#001600" d="M-31 31.7L68.8 799 94 159.2l12-62" />
    <path fill="#a47250" d="M616.8 554l-46 21-87.2-136-9.8-133.7" />
    <path fill="#7d9a01" d="M768.6 108.2l172.2 45.2-84-121.3-239 79" />
    <path fill="#739600" d="M160 255.3L342.3 53.8l-206 116.5L50 260" />
    <path fill="#0a1500" d="M1053.2 174l-31 121.7-144-268 103.4 50.8" />
    <path fill="#000500" d="M385 433.5L244 290l278.5-56-80.7 193.8" />
    <path fill="#2c0f0f" d="M691 642.7l56.5-51.4L603 579l28.2 220" />
    <path fill="#ffd4b7" d="M702 422.6L537.7 407l53.6 50 68-106" />
    <path fill="#614635" d="M947.2 417.6L845.6 354l-86 65.7 187.3 54" />
    <path d="M980 355.7l-23 305.8 74.2 118.4 16-424m-510-243l340 41-293.4 31-96.5-8" />
    <path fill="#6d8600" d="M502.5 90.6L359 96.2l14.4 51.4 116 5.4" />
    <path fill="#58536f" d="M710.3 87.8l77.2 29.6-194 5.2L552.3 80" />
    <path fill="#bbaa87" d="M283.6 468.8L312 380l50 37.4-33 90.7" />
    <path fill="#131501" d="M810.3 325.3l13.4 38L1055 441 771.4 115.2" />
    <path fill="#ffccae" d="M636.2 464.8L724 502l-85-9 121-69" />
    <path fill="#4c0e00" d="M710.4 468.6l20.5 30.8L617 463l-51 25.4" />
    <path fill="#031700" d="M210.8 579.7l-240-114 39-256 170 100.7" />
    <path fill="#beae84" d="M266 483.3l-68.4 1.8 1.7-55 38.4-17" />
    <path fill="#1b0000" d="M714.2 358l-19.4-10 34-2.3 44 19.4" />
    <path fill="#abc1f1" d="M476.5 705l89.6-53.3-50-80-18-30.6" />
    <path fill="#5d7700" d="M14-31l-45 55.3 182.5 86.2L217 24.8" />
    <path fill="#4c4344" d="M478.8 422l-68 20-257 84 366.5-58" />
    <path d="M180.7 799l28-110.7-216.4-89-12 199.7" />
    <path fill="#678800" d="M1003.7 356l51.3-88.7-95.4 26-23.2 39" />
    <path fill="#000104" d="M787.6 343.3L790 355l-19.6 46.7 9.6-62.5" />
    <path fill="#ffd1b9" d="M604.5 194.4l178.3 18.4-92.8 87.7-23 42.8" />
    <path fill="#f3a774" d="M808 389l-82.2-206 67.7 48.4 12.6 37" />
    <path fill="#537400" d="M962 277L635.2-14.4 947.7-31 946 172.2" />
    <path fill="#052c00" d="M259-1.6L130.3 141.7 242.7 113l75-98.5" />
    <path fill="#000005" d="M202.5 720.7l237-151.4-76 85.6L85 663" />
    <path fill="#f3a784" d="M662.8 260.2l-115-63.8L534 343.2l-36-21" />
    <path fill="#000014" d="M607.7 653.5L609 629l-7 123-88.8-69" />
    <path fill="#2a1408" d="M623.4 289.8l-34.6 14 85.6 36.6 17 46.2" />
    <path fill="#739500" d="M1055 134.7V65.5L969.6-3.7 877 0" />
    <path fill="#ecf0fb" d="M764 600l98.6 172.6L703 655l-66.8 32.5" />
    <path fill="#edf1ff" d="M155.4 799h337.8l-90.7-165.4L267.3 681" />
    <path fill="#00000a" d="M739.6 682.2l-89.8-43.4 88-52.2L621.3 748" />
    <path fill="#60493c" d="M112.3 636.8l32.7-94.3-32.2-28.2L79.2 591" />
    <path fill="#000001" d="M502.4 131l249 59.8 95.2 80.7-26.3-129" />
    <path fill="#360c00" d="M695.6 429l-1 20.5-89.5-10.8 24-22" />
    <path fill="#e8e7e1" d="M829 350.3l-38.5-8 6.8 29.7-5.6-4" />
    <path fill="#7d79a4" d="M757.4 701L731 728l-63-11.2 96-31.7" />
    <path fill="#5d6177" d="M593.4 799l-16-36 42-62.2 36.6-1.3" />
    <path fill="#0a141c" d="M1055 771.6L970.3 735l79.5 64L890 639.4" />
    <path fill="#bd7f50" d="M698 511l137.5-128.6L760.3 521 742 601.3" />
    <path fill="#302c1f" d="M817.8 439.3L740.3 548l232 94.3 28.2 37.5" />
    <path fill="#a79a81" d="M894.6 550.8l2-72.4 36 6 21 63.3" />
    <path fill="#6c301a" d="M597 413.2l56.3 29.4-49-15.6 64-100" />
    <path fill="#8caae5" d="M386.4 639l34.8 32.7 158.3-9.2-105-50.5" />
    <path fill="#f8f9ff" d="M444.6 733.5L529 729l94.4 70-435-73.4" />
    <path fill="#f8b992" d="M805 461.3l-114.6-32 4.8 41.6L822 413" />
    <path fill="#35332d" d="M511 537l-62 88 26.4-185.4 32 4.2" />
    <path fill="#45322f" d="M201.6 474l21.6 103.4 133 80.2 22.5-32.7" />
    <path fill="#ffceb1" d="M647.6 344.6l-19 32.4-50.8.5 47.2-33.2" />
    <path fill="#63331c" d="M688 558.6l-65 121.7-64-48.6 79.7-99" />
    <path fill="#365700" d="M-31 186.3l209.6-99.6-44.4 204 97.7-65" />
    <path fill="#11130f" d="M807.7 641l200.2 99-189-216.3L774 630" />
    <path fill="#a2775b" d="M525 577.8l164.2 5.3-127.8-74-55-189" />
    <path fill="#1e0500" d="M752.8 322.2l-62-7.3 19.7-15 18.6 1" />
    <path fill="#1a3300" d="M298 112.4L719.6-31l70 93 47-93" />
    <path fill="#052d00" d="M122.8 335L270 444l9.3 28.5L392 18.2" />
    <path fill="#030004" d="M412.2 489.4l-51.5-36-10.6 207 135-117" />
    <path fill="#edb189" d="M543.3 334.6l80.2-18.2-46.4-3.6 45 21.2" />
    <path fill="#3f1a00" d="M801.2 414.3l22-58-56.6 68.8 16.2 4" />
    <path fill="#0b1320" d="M643.5 772.8L593.2 799l30-43 32.3-104.7" />
    <path fill="#07191a" d="M540.7 356l-6.8-25 14-18.7v63" />
    <path fill="#7a9a00" d="M711.8 86.2L773.6-31H693l-18.7 90.4" />
    <path fill="#7f9d00" d="M922.6 116.5l-6.7 17-192-35.7 114-46.4" />
    <path fill="#060202" d="M220.6 706l-37.4-262.5-35.2 127L107 799" />
    <path fill="#030b09" d="M203.7 732.5l63.5-66-251.8-38.8 227.4 77.7" />
    <path fill="#1e4100" d="M125 39.7l194.7 22 425 26.7L127.2-31" />
    <path fill="#eaa884" d="M500.3 308.5l111.3 145.2 97 20.8L583 462.7" />
    <path fill="#ffd1ab" d="M632 531.3L619.6 516l85.3-7.2 7 34.2" />
    <path fill="#f2f1fb" d="M921 692.5l-275 75L994.5 799 897 680.8" />
    <path fill="#6672af" d="M484.3 734.8l-57-67.6L589.6 768l-25.8-60" />
    <path fill="#3d1b13" d="M594.4 677.8L745.6 581 578 622.6l-65.8-46" />
    <path fill="#ffdcc1" d="M679.6 350l88.5 61.4 19-17.3-97-15" />
    <path fill="#001400" d="M489 327.7l42.6-61.6-135-103-111 245" />
    <path fill="#3a4600" d="M690.3 9.6L573.5-31 461.7 122.6l207.5-63.2" />
    <path fill="#986556" d="M501.7 339l56.6-161-54.7 35.2 68.7 49.6" />
    <path fill="#b5caf3" d="M500 609l15.7-81.3-19 35.2-29.5 81" />
    <path fill="#cec2a1" d="M304.3 410.7l36.6 17.8-4 46.5-37 11" />
    <path fill="#325100" d="M892 28.3l-73.5-2.8L1055 155.8l-55-90.5" />
    <path fill="#f2f5ff" d="M765.2 562L753 597.8l138.7 166.5-161.2-157.8" />
    <path fill="#7a3d21" d="M574.5 520.3l120.5-17L582.4 484l12.4-35.5" />
    <path fill="#020000" d="M-14.7 129l74 28.7L45.5 37.4l-76.6 45" />
    <path fill="#504d3b" d="M962.4 385.6l-69.8 92-13.4 97-32.8-185.4" />
    <path fill="#2e2217" d="M672.3 346.7l59-14.2-43.7 2.4-174.8 6" />
    <path fill="#98896f" d="M248 651.7l-31-49.3 69.3-5.4-17.6 58" />
    <path fill="#8aa100" d="M172 174.4l27 50.6 40.6-73.5-36-17" />
    <path fill="#fffeef" d="M483.8 681l8 14.7 59.5-32.3-.2 5.5" />
    <path fill="#070900" d="M1055 92.7L953.4 169l31.7 99 39-1.8" />
    <path fill="#d8dbec" d="M331.3 799l29.8-55.4-165 35.6 5-62" />
    <path fill="#bf8874" d="M639 267l-161 66 14.7 129.4 3-129.4" />
    <path fill="#758f00" d="M20.5 45L117-31 4.4-8.2-1.4 54" />
    <path fill="#fcd9c5" d="M719.5 290.3l18-87-74-8.2-48.7 78" />
    <path fill="#3d5100" d="M516.2 113.6l-36.5 100.7-46.7-74.8L655.5-31" />
    <path d="M991.8 375.4l-22 267L1034 697l21-320" />
    <path fill="#1f1c11" d="M845 575.3L839.7 369l-36 106 3.4 166.8" />
    <path fill="#4f5d96" d="M967.5 729.2L886 682.5l-21.6-8 117.3 68" />
    <path fill="#f7f7ff" d="M638.8 799l18.2-62.6 14.3-15.5L827 746" />
    <path fill="#001800" d="M-21.2 244.8L455 436l-8.7-8 36.8-57.2" />
    <path fill="#5b2919" d="M591 384.6l89.5-24.3-37-5.7-11.3 25.4" />
    <path fill="#60561f" d="M317.4 398l56.6 25.7-52.7-55.8-64 99" />
    <path fill="#6e5f3b" d="M293 519.6l51.5-30.2-7.7 23.8L227 400" />
    <path fill="#ffd7c1" d="M673.2 394.8l-17.5 27.7L653 351l18.8-3.3" />
    <path fill="#e7ebfa" d="M1011.3 752.5l-83.7-54.2 91 74-327.2-119.7" />
    <path fill="#3e6000" d="M958 190.2l-1.3 30.2-113 12.6L795 93.7" />
    <path fill="#0b080e" d="M479 611l-6-9.7-182-91 91 125.3" />
    <path fill="#4d5252" d="M389 432.6l-4 30.2 18.7 20 103-40" />
    <path fill="#2f3013" d="M799 280.4l215 77.6-99 56.6-107.3-73.4" />
    <path fill="#234a00" d="M245 137l146.2 15.2 80-16.6L236.4 280" />
    <path fill="#ae5937" d="M679.2 369.3l37 57-10.2 7.2-42.4-77" />
    <path fill="#738e00" d="M190.6 29.3l-85 40.3 12.3 57 41-38" />
    <path fill="#a75c3b" d="M586 366l70.6-72 99.2 101.6-94-66.8" />
    <path fill="#729200" d="M117.7 254.8l53.8-18.2L77 209.4l1 57.4" />
    <path fill="#1b1504" d="M-30.2 394.6l84.5 48.7 153.2 5.3-223 197.8" />
    <path fill="#f5f7ff" d="M746.8 613l70.7 37.4 124 71.5L683 655" />
    <path fill="#dcebe7" d="M537 350.4l-36.8-30 26.5 4.4.7-9" />
    <path fill="#602813" d="M637.7 468.4l88.2 9.3-16 16.5L814 528" />
    <path fill="#0d2f00" d="M523.3 82l-7.5-56L341 51.7 314 77" />
    <path fill="#050003" d="M432.8 201l203-66 45.5-35.4 12 66.6" />
    <path fill="#e7825f" d="M831 385.8l-18-2.5 7.5-14.5L831 360" />
    <path fill="#422d22" d="M476.4 392.3l34.7-17-36-63.3 49 24.3" />
    <path fill="#7e8bb4" d="M489.4 704.7L403 701l47-17 16.6-84.6" />
    <path fill="#534f3e" d="M801.5 613.6l-28-127-20.5 56 23 78.7" />
    <path fill="#ffbeb4" d="M603.4 490.5l65.8-.3L698 488l-55-8.4" />
    <path fill="#6d6e77" d="M635.8 749l-38-43 45-5.8-51.8 79.6" />
    <path fill="#4f6cb4" d="M732 605l2 9.5-32.2 27.2-37.8 28.8" />
    <path fill="#91573e" d="M687.8 194.7l-48-21 104 11.4v13" />
    <path fill="#1b2a03" d="M890 199l112 80.5-144.6 64-21.8-103" />
    <path fill="#2e2632" d="M538.8 279.5l-58.4-56 61.5-43-10 79.8" />
    <path d="M732 676.2l-39.8 27-74-19.5 88.6-19.2" />
    <path fill="#502b0f" d="M765.6 369l-83-28.4L798.3 362 766 328" />
    <path fill="#ae7b58" d="M550.2 425L546 567l-64.8-180.4 89.8 6" />
    <path fill="#4b4637" d="M947.7 428.5l18.8 100.8L881 572l63 14" />
    <path fill="#996c4f" d="M758 491l-38 1.7-10.3 88.7 41.3-2.2" />
    <path fill="#cc744a" d="M586.4 179.4l61.6 4-101.6 19.2 47.6-31.2" />
    <path fill="#4e6800" d="M12.6 214.4l-31.7-1-12-118.7 50 63" />
    <path fill="#080b17" d="M575 734l-11.5-71L656 788.3l-22.4-55" />
    <path fill="#555365" d="M597.4 133.5l-27.2-8.3 153.6-21-55.5-26.5" />
    <path fill="#131d02" d="M1052.8 767.6l-17-91.2L860.5 656l98 62" />
    <path fill="#e5baa0" d="M709.5 385l47.5-9 20-9.3-40 83" />
    <path fill="#2a2a2c" d="M766 389l-53 .3-23.2-2 62.3 8" />
    <path fill="#002" d="M534.7 604.4L510 563l10-30-1.3 40.3" />
    <path fill="#3b3a2a" d="M503.4 448l22.6 60.5-38 60L466.3 399" />
    <path fill="#718900" d="M402 146.8l50-32.4-46.3-14-44.4 17.7" />
    <path fill="#cdc1a8" d="M240.8 489.4l-28-18.2L222 445l30.8 5.6" />
    <path fill="#414242" d="M679 377l-91.6 6-44-15.3 63.6 14" />
    <path fill="#487200" d="M349 37l-25.6-8.3-112 113.3 69.2 7" />
    <path fill="#4c443b" d="M368.7 586.6L358 636l-38.6-15-4.2-41.8" />
    <path fill="#e8a07a" d="M622 296.4l-81.3-94.6-2 57.6L748 302.7" />
    <path fill="#070a16" d="M592.6 746l1.3-87.6L582 785l1 14" />
    <path fill="#ffd1ae" d="M570 408.3l34.3 17.2-.3 29.5-51.2-33" />
    <path fill="#040a1d" d="M325.3 657.6l124.5-41.4-141 21.5-98.5 71" />
    <path fill="#001014" d="M651.3 337.7l-48-17L662 339l-28 37.7" />
    <path fill="#a7bada" d="M576 658.5l-45.8-58-30-47.6 35 124" />
    <path fill="#2c1f12" d="M619.7 345.4l-68 8 7.4-15.7 46-1.3" />
    <path fill="#fec2a2" d="M689.2 450.6l-42.8 15 81.8 6-12.2-46.8" />
    <path fill="#0b0a14" d="M832.5 659.7l79.8 37.6L784.8 605l189.5 89.2" />
    <path fill="#ffd1a3" d="M768.3 404l-80.6-7 113.6-6.2 6-61.4" />
    <path fill="#bb6746" d="M558 407l123.2 9.8-25.5 20-55.8-40.5" />
    <path fill="#a43415" d="M648 362l23.5 7.3-1.3-10.6-9-1" />
    <path fill="#f6b487" d="M797.3 246.4l-28.7 73.3L718 193l57.3 11.5" />
    <path fill="#635d4b" d="M850 446.3l1.4-71.2L955 510l-23-77.4" />
    <path fill="#fff" d="M1016.6 759l38.4 7.4-12.2 17.4-78.8-59.5" />
    <path fill="#312619" d="M1000 267l-80.6 87 1-117.5 51.3-20.4" />
    <path fill="#0a0311" d="M802.3 253.5l-32.8-134 74 148.3L810 351" />
    <path fill="#4d6200" d="M429.4 51.2L387.8-12l-10 13.5L626-31" />
    <path fill="#4a6100" d="M65.7-28.2l140 60-142 64.6-23-19.2" />
    <path fill="#a5b4e6" d="M256 686l89.4-35.6 26 13.3.6-5.3" />
    <path fill="#faa268" d="M703.7 341.2l37-4.6 25.6 7-1.3 11.7" />
    <path fill="#001200" d="M236.2 410.2l74.8-188 211 56-26.5 47.2" />
    <path fill="#072900" d="M5.2 452.2l154.4 23L47.2 160-31 247" />
    <path fill="#ffd2b8" d="M690.5 382.6l-10-42.7 44.7 49 40.2-5" />
    <path fill="#f0f4f8" d="M771.3 617.7l-18.4 83-46-53.7 52-77.3" />
    <path fill="#ffd6be" d="M627.7 399l40.5-32.2 56 116.3-25.5-68" />
    <path fill="#1b2900" d="M934.2 66l99.5 77.5-118.7.7 85.5 118.7" />
    <path fill="#6a5c49" d="M262 561.5l13.7 96.8 21-38.5-73.4-32.2" />
    <path fill="#2e0f06" d="M683.4 422.6l-16.7 8.5-33.3 27 63.8-16" />
    <path fill="#380e04" d="M715.7 477.5l-125-4.4-1.7-3-16.2 9" />
    <path fill="#aa8167" d="M628 586.2L481 401.8l67 145.7 88.7 35.3" />
    <path fill="#1c1419" d="M830.4 366l13.8-153-40.6 225.2 2-73.3" />
    <path fill="#f5f6fa" d="M216.2 726.6l227.5 53.8-56.6-138-21 7.2" />
    <path fill="#0f3800" d="M480 388.5l-3.4-64.7h-14L395 366.4" />
    <path fill="#edbb97" d="M808.7 454L779 474.2l43.8-75.4 3.2-.6" />
    <path fill="#f5f7ff" d="M587 758.6l-84-22.4 16.6-12.2-5.6 74" />
    <path fill="#959a1a" d="M1055 116.3l-4-89.2-48.4 19 6.7 41" />
    <path fill="#807452" d="M293.5 407.6l47.8-13.7 3.3 80 22-52" />
    <path fill="#072700" d="M323 226l150.3 65.3 18.7-84.5-56.6-61.6" />
    <path fill="#070600" d="M77.8 133.8L-31 139.5 5.3 64.8l88.2 38" />
    <path fill="#435800" d="M320.8 205l35.7-11.7-12.7-33-51.3-4" />
    <path fill="#000001" d="M185.7 767l19.7-58.5-236.4-81L89 799" />
    <path fill="#223b00" d="M674.2-31l-17 120.2-44.5-1.2 30-118" />
    <path fill="#f2f2f7" d="M953.5 799L834 654.8 797.5 639l-85 129.2" />
    <path fill="#7b7e98" d="M251.5 702l-88.7 8 73.4-6.7 59-29.5" />
    <path fill="#eac3ac" d="M544.2 360.8l26.6 15.6h28.4l39-7" />
    <path fill="#fbc39f" d="M652.6 183.8l37.7 111-80-3.3-16.5-103.7" />
    <path fill="#eef6f1" d="M791.5 345.2l32.6 6.5-23 9.3-2-5.5" />
    <path fill="#1e1610" d="M211.4 601l-84 36.4L145 463.2l84 51.5" />
    <path fill="#6c5e2a" d="M192 469.6l15 35.8 10-3.5-19.2-82" />
    <path fill="#000102" d="M582.4 710.7L691 680.4l-141-10.2-34.2 18" />
    <path fill="#0c0b1e" d="M589.6 674.7l-77-106 106 121 94.2 4.7" />
    <path fill="#072500" d="M218.7 66.8l7 51.2 77.8-89-22.3-15" />
    <path fill="#cd8766" d="M642.6 334.3L703 300l-60.7-13 44 49.2" />
    <path fill="#cf8c5a" d="M772 490.5l-50.8 9 3.7-60.3 64 23.8" />
    <path fill="#69351d" d="M637 592l-16.6 53.5L579 650l-18.5-93.8" />
    <path fill="#6b6a7b" d="M705.5 105.6l.3 28-19-47.6 58 19.4" />
    <path fill="#638900" d="M1045.8 119l-186-143L792 85.4l157.7-111" />
    <path fill="#f2f3f5" d="M748.8 605l-70 54.2 34.3.2L927 749" />
    <path fill="#be7454" d="M694.6 448.7l12.7-44.5 82.2 26-92-5.6" />
    <path fill="#566268" d="M677.8 672.4l-1.4 2.6-37.3 2.8 15-12" />
    <path fill="#4c402b" d="M210.6 641.8l44-89L206 601l51.6 57.3" />
    <path fill="#a88c7e" d="M758.6 516.3l-16 29-13.6 15.4-78 29.2" />
    <path fill="#344c0a" d="M840.4 331.3l4.2-131L868.3 313 837 382" />
    <path fill="#7e7b91" d="M753 711.3l-31 17.4-41.6-18 56-20.8" />
    <path fill="#040206" d="M628.6 117l110.7 72.7 25.8-79.3L839 219" />
    <path fill="#335300" d="M70 271l103.2 12.2-112-42L123 61" />
    <path fill="#494746" d="M733.2 391l-20.4 3-33.7-15 23 7.2" />
    <path fill="#1e4600" d="M742.3 56.2l23.3-54L835-31l-58 86.3" />
    <path fill="#642414" d="M623 514.3l51.7-6.8L657 493l-21.8 4.3" />
    <path fill="#0d152f" d="M785.2 634.4L948 690l-98-20.6-77.7-55.8" />
    <path fill="#2a1305" d="M736.6 584.4l-73 14L630 677l46.2-14.3" />
    <path fill="#f6c3a6" d="M725.5 424.7l26.6 1 9 20.8-62-15.2" />
    <path fill="#231d16" d="M293.3 588.8l-29-36.6 126-97.8-45.8 109" />
    <path fill="#131817" d="M776 360.4l8-14.4 7 11.2-11.6 20.4" />
    <path fill="#3d5000" d="M923 339.6l132-2.8L941.5 375l16.2-84" />
    <path fill="#030005" d="M541 206.7l47-48.6-24.4-57-13.8 20" />
    <path fill="#7b9410" d="M1005.4 304l-22.4 2-17 36.5 49.4-11.6" />
    <path fill="#595d4c" d="M552.7 97l32.7 15.6-3-39.8 41 11.8" />
    <path fill="#ddc8b6" d="M521.7 289.5l-13 38.3 18.8 9 4.2-3" />
    <path fill="#aa6646" d="M544 353l42 14.5 40.4-28.8 31 3" />
    <path fill="#99421a" d="M742.6 376.5L736 379l-24-13.3 26 .4" />
    <path fill="#020204" d="M364 475l27.3 162.5 55-21-.8-129" />
    <path fill="#051800" d="M855.6 236l14.7 57.7 64.2 5.5-7.6-42.5" />
    <path fill="#1d0c01" d="M714 342.6l-12 13.2 32.3 3.5 11.2-3.6" />
    <path fill="#1d1613" d="M-29.2 460.5l121.6 70.7L92 615l-123 33.8" />
    <path fill="#f1bba0" d="M745.3 452l-120.7 12.3 27.6 2.2 8.5-15" />
    <path fill="#9d5e46" d="M625.8 474l-29.5-3.6 17.5-63.8-4-10.3" />
    <path fill="#8f604d" d="M716.3 293.4l67 41.3-43.7.6 41.3 19.5" />
    <path fill="#f8e4d2" d="M624.5 205.3l117.6 4-24 42.6-10-12" />
    <path fill="#020101" d="M681.3 679.3l-23.4 44 78-37-19-20" />
    <path fill="#494409" d="M195.8 423l-6.2 65.3 24-89.2 48.4 27" />
    <path fill="#181d1b" d="M728 335l-18.4-3.6-61.8 13.4 48.8-6.5" />
    <path fill="#a8c1e7" d="M524.2 591l-32.5-27.7-13 61-57.7 10" />
    <path fill="#f6b597" d="M726.8 490.6l-103-5.4 57.4-5-5.5 50" />
    <path fill="#2a3c00" d="M980.4 679.2l74.6 24-33.5 22.2L980 712" />
    <path fill="#e7a676" d="M793.6 243.3l-37 21.8 36.7 86 15.3-13" />
    <path fill="#845c43" d="M697 558.8l-50.7-24.4L595 544l47 47.2" />
    <path fill="#eebd96" d="M568.7 381.6l-42 8.6-4.4-41.3 9.3 13" />
    <path fill="#6878a2" d="M577 725.4l3 22.8-39.4-4.3-71.6-59" />
    <path fill="#001001" d="M384 243l48.6-78.8-6.8 256.2-71 10.7" />
    <path fill="#362311" d="M698 392.7l-16.7-27.2-4-25.8-6 23.5" />
    <path fill="#1a1a1d" d="M641.3 97.2l-62-5.2 55 82.8L599 106" />
    <path fill="#061d00" d="M366 375L8.4 457 198 243l-47-11.8" />
    <path fill="#0b0a0b" d="M901.3 684l83.8 2.8-152-32 73 41.2" />
    <path fill="#f7af89" d="M622.4 421l-73.5 6 29 22.5 73-79.4" />
    <path fill="#473e2e" d="M140.6 562.5l-41-49.7-24 95.3 54.8 10" />
    <path fill="#dce1fa" d="M234.3 704.7L207.5 720l24-19.3 98 98.3" />
    <path fill="#ce9e7e" d="M528 197l73 126.8-48.5 3 55.2 9" />
    <path fill="#698300" d="M762 111.6L924.2 157l10.8-51-116.6-19.5" />
    <path fill="#875028" d="M745.3 508.4l-41-30-1.7-17.4 24.7 72.6" />
    <path fill="#efeff4" d="M895.2 671.3L988.6 799 705 732.5 928.2 705" />
    <path fill="#5b5543" d="M875.4 553.2l4-53.6 33.4 62.7L921 585" />
    <path fill="#f1b997" d="M637.3 350.3v15l-8.5 4-37.3-22" />
    <path fill="#080704" d="M326.5 656L71.2 764 335 631l-45.4-13.3" />
    <path fill="#360700" d="M664.6 469.2l17 12.3 35.2 6.3-23.4-11.3" />
    <path fill="#4f6f00" d="M143 235L97 119.5 204 240l45.6-56" />
    <path fill="#d28e5f" d="M706 558.6l-104-52.4-5 32 21.8-7.3" />
    <path fill="#8da9df" d="M421.4 712l-38.2-74 134-34-117.5 49" />
    <path fill="#2b2932" d="M824 150l-13 8.7-91.6-23L700.2 98" />
    <path fill="#5b2a10" d="M753.6 312.6l-60.8 18-19.3-23.4 49.6 1.6" />
    <path fill="#222024" d="M799.4 230.6l50.7 85.8-59 95.4 29-63.6" />
    <path fill="#456300" d="M1055 27.7V-9l-91-22 25 63.4" />
    <path fill="#0d2229" d="M669 344l-72-22 78 17 18.6-6" />
    <path fill="#3d3d38" d="M453.2 622l47.5-142.6-4 79-24 48.8" />
    <path fill="#2b5200" d="M289 179.8l14.8-82.3-10-99.7L375-31" />
    <path fill="#f0ba95" d="M770 349.4l-57.3-22L740 325l-20.5 19" />
    <path fill="#7989b9" d="M473.3 700l-.5 35.7 22.7-4.2-34.8-122" />
    <path fill="#0c0e12" d="M902.7 692.4l-44.3-19.6-74-52 124 36" />
    <path fill="#592308" d="M639 586.2l104.6-1.2-114.8 33.3-42.3-.5" />
    <path fill="#e7ecf9" d="M215 727.3l89.8-61-24.5 9.2-83 122.3" />
    <path fill="#433628" d="M288.2 533.4l79.8-41.7-122.8 15.8-33.7 50.5" />
    <path fill="#524630" d="M723.8 598.2l60.8-129 36.4 14.4-14.5 31.3" />
    <path fill="#364f00" d="M918 103.2l-8.5-17.8L1055 124 821.4 4.8" />
    <path fill="#0d030f" d="M504 188.7l7.4 132.5-64-17.5 24.4 13" />
    <path fill="#925f3d" d="M627.7 489.5L577 541l-36.5-140 3.2 80.6" />
    <path fill="#0e3e00" d="M298.6 139L163.2 271.5l114.4-.8 43-17.7" />
    <path fill="#121509" d="M445.5 311.2l46.7-5.5 8.7 80.8 5-50" />
    <path fill="#998d60" d="M341 492.5l-52-2 29-104.3-42.4 63.7" />
    <path fill="#f1f3f4" d="M735.2 709L763 593.2l-76 68 118.4-15.6" />
    <path fill="#a06c49" d="M570 332l-16 14.7-16-89.6-23.7 43" />
    <path fill="#3f3a36" d="M602.6 383.6L553 373.4l-10.5-8.4 47 17" />
    <path fill="#272522" d="M568.7 300L534 344l11.6 9.6 4.2-22.2" />
    <path fill="#181b1d" d="M757.3 333.2l33 24.8-16 27.4 10.6-37.2" />
    <path fill="#697baa" d="M703 628.8l40-37.4-16.3 29.5-23.7 20" />
    <path fill="#b58b5d" d="M760.4 418l40.8 13.7L786 470l-23.4-63" />
    <path fill="#cde0e5" d="M537.5 331.8L514 333l-11-12 36.3 4" />
    <path fill="#060302" d="M629.5 110.8l-10 30-104.8 26.4 311 22.3" />
    <path fill="#2b2a1e" d="M523.7 498.7L520 534l-12.5-79.2-59.4 33.4" />
    <path fill="#2c2819" d="M818.3 412.2l-22.3 152 100.3-137-28 97.4" />
    <path fill="#111937" d="M1000.3 755.5l23.7 25.8-71.5 17.7 68.6-31.2" />
    <path fill="#9b9177" d="M913.2 556.4l21.4-2.8-9.8-84.5-25.8 40" />
    <path fill="#392213" d="M553.8 311.5l79.5-15.3 15.3 51 .6-38.7" />
    <path fill="#587c00" d="M300 132.4l-120.3-18.8-2.8 46.8 132-86" />
    <path fill="#4c7200" d="M851 226l-19-42.4 39.2-60.7 19 26" />
    <path fill="#417400" d="M874 28.8L720 55l74.6 21L820-8.4" />
    <path fill="#e9a880" d="M607.6 262l1.6-73.6-64.2 14.3 2.7 92.7" />
    <path fill="#8c7368" d="M594 319l-27 .6 59.4-33.7-76 14" />
    <path fill="#301307" d="M687.3 451.5l-53-16.2 44.2-8 17.6 11.2" />
    <path fill="#041104" d="M532.3 341L352 278.8l16.8-40 147.4 103.5" />
    <path fill="#313222" d="M349.8 481.6l15.4-76.3-43.3-44 75 115.3" />
    <path fill="#a09279" d="M242.7 600.3l40.3 17.3-18.8 22.4-32.5-21.5" />
    <path fill="#090e13" d="M610.8 384l26.2-10.5 16.7-35.4-23.7 43" />
    <path fill="#9e7454" d="M496.5 434.2L507.3 324l14.6 54 31 35" />
    <path fill="#658700" d="M707.3-31h-22.8l-17 94.6L739.8 96" />
  </g>
</svg>