<svg version="1.1" viewBox="0 0 1024 768" width="1024" height="768" xmlns="http://www.w3.org/2000/svg">
  <g fill-opacity=".5">
    <path fill="#2a2d00" d="M-31 26v66.6l82.2-59L9 52" />
    <path fill="#a4765c" d="M474 339.8l19.8.7-4 43-4-57.7" />
    <path fill="#2a4f00" d="M195 9.8l-.4 115 16-58.2-.2-34" />
    <path fill="#021800" d="M893.4 291.4L903 248l-25.4 7.2-7.2 11.2" />
    <path fill="#ba643f" d="M667.7 420l27.3 14 5 1-.6-8.4" />
    <path fill="#e0a882" d="M636 362.6l9-14.6.4-4.7-31 11" />
    <path fill="#432a16" d="M616.8 335.2l-52 1.8 15.7 9-14.6-5.5" />
    <path fill="#36333d" d="M689.3 118l21-14.3-24.3 29.6 28-9" />
    <path fill="#213300" d="M99 105.8L83.3 67.5 89 79.8 45.3 99.4" />
    <path fill="#c97d58" d="M626.3 469l21-2.4L625 458h-15.7" />
    <path fill="#cda085" d="M568.7 314.8l48 8.8-22.8-7.8-15 1.4" />
    <path fill="#020b11" d="M996.4 742.6l58.6 3-29 18-41-45.2" />
    <path fill="#f7d5c0" d="M647.2 193.6l50 66.3 10.4 29 31-29" />
    <path fill="#203300" d="M1055 111.2l-106.7 4.3 1-30 60 49.6" />
    <path fill="#967a6a" d="M692.5 563.7l-36-.6 16.2 18 11.6-5" />
    <path fill="#274e00" d="M297.2 61.7l-73 67.3 75.2-96.6L311 66.6" />
    <path fill="#6d6d73" d="M690.8 105.7l6.8-17.3L702 131l5-18.2" />
    <path fill="#647f00" d="M731.7 43l19.6-46L632-31l62.3 41.5" />
    <path fill="#264500" d="M-25 263.5l43.8-96 78 2L31 184.2" />
    <path fill="#435c00" d="M942 70.3l-24-28.8-28-25.3 28.2 57.3" />
    <path fill="#536b00" d="M910 210l17.7 10.3-2-37.7-21.7 5" />
    <path fill="#9fb5dc" d="M551 622l16.4 35-23 12.8-61.6 2.4" />
    <path fill="#ca8869" d="M689.4 303l66.5-5.2-139 .2 57 8" />
    <path fill="#5b7a00" d="M133.7 195.4l20.2 29.4-67-12L75 238" />
    <path fill="#ab826d" d="M498 404.2l-3.5 36.7-12.7-44 .8-6" />
    <path fill="#021100" d="M357.6 399.3L432 432h-4.2l44.3-46.5" />
    <path fill="#f1f3f7" d="M533.5 736.3l56.7 43.3-84.8 19.4-2.8-73" />
    <path fill="#244200" d="M351 93l148.3-10L363 76.6 352.6 222" />
    <path fill="#a49078" d="M537.2 205.7l2.4 12.3 10.2-.5-4.6-11" />
    <path fill="#142000" d="M34.6 163.6L85.8 133l-72.5 7.8-44.3-37.2" />
    <path fill="#462b13" d="M754.4 358l-30-4.4-1-.6 44.6 14.8" />
    <path fill="#f0f2ef" d="M483.4 675.5l3.5 1.4 20 4-21 12" />
    <path fill="#030804" d="M220.4 710l-36.6 15 99.6-54.3-301.6-31.5" />
    <path fill="#eab286" d="M807.3 345L785 334.5l7.3-23.6-2 2" />
    <path fill="#555584" d="M672.6 719.6l-66.3 6.8L717 715.7 658.8 727" />
    <path fill="#f2f4f6" d="M726.3 630.3L700.8 641l61.4 39.8-20-90" />
    <path fill="#e2a77c" d="M782.6 221.6l-44-26h-14L801 247" />
    <path fill="#a55a3b" d="M629.2 378.6l1 3.6-7 17 10.4-11.4" />
    <path fill="#a47656" d="M522.5 458.8l61 89L517 389.4l40 21" />
    <path fill="#8a8068" d="M924.8 463.5l-8.7 24-24 40.2 1-35.7" />
    <path fill="#092900" d="M270 64.8l-8.3 16.8 39.7-72.8L225.8 70" />
    <path fill="#f1f1f3" d="M719.4 633.5l-53.3 40 82-54.5 86 108" />
    <path fill="#736b5e" d="M781.5 574.5l3 14.2-18.8-16.3 3 33.5" />
    <path fill="#82785d" d="M353.3 450.7l-2.6-11.6-20.2 47 3 1" />
    <path fill="#f1ad88" d="M671.7 404.6l31.8 26-54-25 15.3 16.4" />
    <path fill="#0c0c0d" d="M748.8 139l46 19-21.5-34-86 45.7" />
    <path fill="#ae6141" d="M630.5 388L592 410l-7.7-1.6 19.8 11" />
    <path fill="#9aabd4" d="M995.7 757l-63.5-46 66 44.2 30.8 32.2" />
    <path fill="#1a150e" d="M819 368.5l16.3-35.2-36.8 75.5 18-51.7" />
    <path fill="#2f3131" d="M479.8 480.4L452.5 450l-9 25-107.3 5.5" />
    <path fill="#0f110c" d="M533 108l75.7 31-25 19-11.8-48" />
    <path fill="#e9b897" d="M803.3 459.2l13-55.2 3.6 14.3-24 19" />
    <path fill="#010100" d="M616 123.4l-1.8-4.8 1.6 56.6 31.3-10.5" />
    <path fill="#1a120f" d="M767 206l16.2-10-14-22.2 36.7 33.4" />
    <path fill="#edf0f3" d="M225.4 758.3l-27-32.3L333 743l-108.6-6.7" />
    <path fill="#f2f3f7" d="M406.4 678.4L388 640l-97.7 51.6L396 799" />
    <path fill="#3f4737" d="M669 78.3l-27.2 17L673 101l-32.8-14" />
    <path fill="#4e6600" d="M509.2 18.2L415.5-31l7.8 41 122-1.5" />
    <path fill="#a4b1d9" d="M869.2 711.7l62.4-8.4-29.8-23 24 23.4" />
    <path fill="#653e27" d="M699.8 579.2l37.7 19.5-5.7-22.8-39.5 12" />
    <path fill="#fac093" d="M761.3 384.8l-26.8 1.6 36-19.7 1.8 14" />
    <path fill="#829b00" d="M175 199.3l65.4-46.5-12 7.8-31-3" />
    <path fill="#514a35" d="M769.8 505.8l16-32.7 17.6 36-17 8" />
    <path fill="#683925" d="M619.4 348.2l-4.2-3.3 2.4 5 8 4" />
    <path fill="#d8c6ba" d="M596 374l7.8-1-24.7 2.5-26-7" />
    <path fill="#0c0b0e" d="M600 107l-.4 19 32.8 39.7-42-57.8" />
    <path fill="#9396c4" d="M433 691.8l29.5 21 3-12.5-46.6-9" />
    <path fill="#151713" d="M547 368.2l-.4-40.4-10.3-8 7 38.4" />
    <path fill="#737669" d="M607.5 85.5l-5 .8-3.3-11.3-11.6 7.7" />
    <path fill="#5d7700" d="M902.8 99l-80.3 36.5 63 14.3-8-76.8" />
    <path fill="#626f53" d="M566.6 102.5l13.4 3-16-22.7 4 13.7" />
    <path fill="#e2ac86" d="M624 333l-20-7.5-40 2 56.6 4.7" />
    <path fill="#3b3520" d="M830 397l-16.4 36 29.8-36-.4-58" />
    <path fill="#545455" d="M601.8 109.2l42.6 4.6-33.2-10.8 1 31.4" />
    <path fill="#edf5fa" d="M979.7 738l26.8 16 24.5 15-64.4-46" />
    <path fill="#dbaf7e" d="M791.2 393.5l-2.5-31.7 11.2-6.6 8 22" />
    <path fill="#3e5800" d="M396.4 96.6l-26 5.4 10.4-18.7L480.2 99" />
    <path fill="#070908" d="M659.6 346l-10.2-1-9.7-12 22.7 7" />
    <path fill="#fdc2a1" d="M658 379.4l-15.6 31.2-9-24.2 17-16.6" />
    <path fill="#36415b" d="M529 721.7L516.6 685l28 20.6-24.2-6.7" />
    <path fill="#374900" d="M943.5 230l-40.3-7 64-5-35.4-69" />
    <path fill="#857e4f" d="M247.6 432.4l-34.3-8.7 63.4 40.2-16-17" />
    <path fill="#060607" d="M700.5 697.8l-8.2-17.2 19.2-18.5 14.4 32" />
    <path fill="#262214" d="M853.7 504.5l-4-56.6-42.2 4 29.2 42" />
    <path fill="#366400" d="M856.5 52.5l-9.6-8.7 62-25.3 4 23.4" />
    <path fill="#a6bee1" d="M447.5 626l85.8-17.2-46.5-29-.3 27" />
    <path fill="#4c5148" d="M638.8 117l12.5 8 22-20L737 83" />
    <path fill="#2c2d28" d="M479.7 528l-14.5 52.6 28.2-29.3-1.3 19" />
    <path fill="#dda887" d="M621.2 376.7l-78-19.2 16.8-.7 9.5 13.7" />
    <path fill="#708e17" d="M743.3 106.2l5-2.5 41 7.5L722 89.5" />
    <path fill="#040404" d="M489.5 305.3l12-55.5 23.3-14.7-37.7 44" />
    <path fill="#799200" d="M116 100.8l9.6-21.7 16-10 12.7 19" />
    <path fill="#764927" d="M768 365l-26.3-23.3 16 20.8L719 348" />
    <path fill="#614530" d="M657 177.5l-8.6-5.8 75 16.6-44-.7" />
    <path fill="#758c00" d="M33.7-9.3l6 32.2-52.7 8 71.2-45" />
    <path fill="#c1957c" d="M579 287.3l-32 13.5 73.4-12-41-.4" />
    <path fill="#252427" d="M751.5 147l-18.3-44-4.8-4.6L741 150" />
    <path fill="#efc0a0" d="M640 357.3l-10.6 13-18-24L601 351" />
    <path fill="#803316" d="M661 361l-13.8 1.2 32.6 3.8.5-3.8" />
    <path fill="#052100" d="M87 294.8L25 404.6l108.3 61.8L122 277.8" />
    <path fill="#784933" d="M557.2 198.7l-23.5 8.6 14.7-9 37-21.5" />
    <path fill="#7d7b93" d="M709.3 710.3l2.3-7.7 19.4 18.7-12.8 3.4" />
    <path fill="#3a3e2e" d="M839.6 295.2l5.4 48-4.8-89.7 8.6 43.2" />
    <path d="M491 184.5l7 26 28-14.7-28-7.5" />
    <path fill="#365400" d="M113.8 166l-36 48.5 54.2-23-79.3-24.3" />
    <path fill="#401d11" d="M672.5 474.6l25.3 10 10.4-15.3 1.5 24.6" />
    <path fill="#e0e5f0" d="M765 586l-8.5-27.5-6.2 51.5-33 45" />
    <path fill="#2b2c2a" d="M815.5 293.3l33 41.6-31-22 5.8-2" />
    <path fill="#d28f5b" d="M690.8 552.5l-29.6-11 8.5-4.5 35.6 15.2" />
    <path fill="#97b5e0" d="M392.4 660.8L453 624l-28.2 1-21.3 31" />
    <path fill="#363120" d="M148.8 551.7l-6.2 5-42 62 21.7 8.3" />
    <path fill="#1b213e" d="M148.7 739.4l46-9.6 21.5-11 5.3 3" />
    <path fill="#a4a8d0" d="M623 754.3l79.8-35.3-41.4 7 28.5-1.3" />
    <path fill="#302c1a" d="M518.4 531.3l-11-22.8-6.5-45.3 19 31.6" />
    <path fill="#74721d" d="M1036 61.6l-25.6-11.2 4.8-20.6 25 5.6" />
    <path fill="#495a00" d="M543 85.6l-1.7-28.2 14-14L566.6 77" />
    <path fill="#a47852" d="M511.3 343l9.6 9.3-16 26 4-41" />
    <path fill="#25251e" d="M831.3 521.8L952 621l10-45.7-72.7 17" />
    <path fill="#173700" d="M320.4 113l-83.7 109.3 22.5-65.5 106-6.3" />
    <path fill="#764a32" d="M606.4 635l-86.8-60.6 40.5-2.6 12 49.2" />
    <path fill="#193500" d="M887.7 246.4l-51.3-.6 53.3-28.2 47.6 19.6" />
    <path fill="#1a1a11" d="M288.8 559.8l76.7-10.8-48.2-38.2-12.3 12.7" />
    <path fill="#2f3607" d="M190.7 436.6l20-40.6 72.5 55-52-51.3" />
    <path fill="#ecedf5" d="M825.3 650L656.6 799l-8.5-55v55" />
    <path fill="#3d6100" d="M247.5 181.8L193 246.6l64.6-107-17 19" />
    <path fill="#eaecf4" d="M981.7 745.7l62.8 53.3-147.3-53.7 54.2 53.7" />
    <path fill="#828ec4" d="M548 710.3l-2 18-39.2-6 47 23.3" />
    <path fill="#4c4847" d="M618.3 799H665l-25-46.7 4 14" />
    <path fill="#7593dc" d="M873.4 687l-21-15 57.6 24.6-54.7-22" />
    <path fill="#b86d43" d="M724.5 342l-47 2.5 31.2-8.4-16 21" />
    <path fill="#486900" d="M128.6 184.2l57.2 45-63.7 39.5 44 1.3" />
    <path fill="#f0b78c" d="M775.5 223.5L732.3 195l-9 3.3 77.4 60.5" />
    <path fill="#12100a" d="M719 354l-2.3-6 26.2 13.2-14-1.5" />
    <path fill="#577100" d="M1055 148l-35.4-45.3-23.3-4 2.5-37.2" />
    <path fill="#9b5839" d="M582.7 357.2l-31-10 34.5 16.2 26.8-11.7" />
    <path fill="#dbdfdf" d="M498.2 320l40 7.3-10.6 6.4 5.7 3" />
    <path fill="#6f7b91" d="M495.6 693.5l10-8L512 710l-16.5-8.4" />
    <path fill="#7a9700" d="M95.6 248.5l35.5-3.3-1-21.8-31 1.3" />
    <path fill="#749901" d="M802.3 89.4L784 112.6l-63.6-26.8 78.7-2.3" />
    <path fill="#c87f58" d="M608.6 463L568 447.6l-6.8-4.3-16.8-16.2" />
    <path fill="#8a5749" d="M622.7 440l-18.5-4.6L607 461l12.6-11" />
    <path fill="#321709" d="M623 671l109.6-81.4-43.3 4.6-23 15.4" />
    <path fill="#454548" d="M732.3 133.4l-5-23.8 9.3-12L714 133" />
    <path fill="#6f3a1d" d="M643 313.6l-28.4-1.8-17.6-4 48.4 22.6" />
    <path fill="#554d3e" d="M774.6 623l6-3.4 11-37.8-19-36.2" />
    <path fill="#f7decb" d="M645.6 210l2.2 17.4 9.4-5.7 74-11.6" />
    <path fill="#fdfdf9" d="M727 667l-2.6-30.8-27 7.5-2.8 11.2" />
    <path fill="#5a5343" d="M250.7 575l37.7 47.7-10.5-36.2-64 11.2" />
    <path fill="#2d3800" d="M869 289.8l-37 71 54.4-48-10.8-1.7" />
    <path fill="#5e679e" d="M578.3 799l-1-21.3L581 746l6-2.5" />
    <path fill="#170d0b" d="M733.3 599L718 613l-40 42-.2-35.2" />
    <path fill="#be8262" d="M494.6 360.5L483 373.7l9.5-34-3 10" />
    <path fill="#597200" d="M-29.4 18.6l144-38.6-56 57.2L38.3-31" />
    <path fill="#22201a" d="M579.4 349.7l12.8-11.2 6.7-3.4 8 9" />
    <path fill="#162100" d="M40.8 485.5L-31 359l66.6 65.7 67.7 1.7" />
    <path fill="#66655f" d="M659.3 681.5l38-26-39.3 21.8 5.8 2.8" />
    <path fill="#da9a6d" d="M655.2 184.7l21.2 7-40.3-3 17-9.4" />
    <path fill="#ae9892" d="M738.6 545.4l-17.4 13.3-34 16.6 9-12.3" />
    <path fill="#b09686" d="M598 320.2l-58 .3 44-2.7 22.3-.8" />
    <path fill="#f2f3f4" d="M737.3 686.2L788 642l-36.4 52-3-121.3" />
    <path fill="#6c6b76" d="M663 111.5l-4-8 5.3-.5 8.5-12.2" />
    <path fill="#8d5e4c" d="M510.5 438.4l-13.2 8.2 1.8-76 4 66.6" />
    <path fill="#eeb78e" d="M721 488l-57.4 48.5 52.5.6-40-33" />
    <path fill="#e7a97c" d="M774 327l-2-41 8.4-76.3 16.8 68.4" />
    <path fill="#202d0d" d="M830.3 161L797 182.5l28-11.8 5.4 21.3" />
    <path fill="#605d59" d="M623 296.4l-49 9.8 36.5-15-.2 2.5" />
    <path fill="#070b08" d="M444.5 613.4l-151 54 12.3-27 32.5 7" />
    <path fill="#753b21" d="M790 226l-39-45 25.7 32.2 11.7 4.5" />
    <path fill="#100f0e" d="M844.7 291.8l-40 3.5 13.6 30.3 4.4-60.5" />
    <path fill="#7487aa" d="M506.3 670L487 624l-25.8-45.8 39 70.5" />
    <path fill="#172200" d="M195.6 498.8l6-2.4-90.2-92.7 72 10.3" />
    <path fill="#1f4000" d="M250.2 33l-95-32L138 14.6l139.2-31" />
    <path fill="#9e7150" d="M703.3 180.4l7.7 17 27.6-9.6-25.5-.2" />
    <path fill="#2a4100" d="M54.5 39l-15 32-4.3.6 22 1.5" />
    <path fill="#3b5e01" d="M709.5 93.4l-72.6-42 12 10.2 8-18.8" />
    <path fill="#6c3a1e" d="M704 313.4l-19.3 13-7.6-.2 79-7" />
    <path fill="#9d6b46" d="M514 316l6.6-34.8 24-4L540 266" />
    <path fill="#ececf2" d="M656 735l42.6 55.6L702 713l1.2 7" />
    <path fill="#be8463" d="M836 365l-3.5.8-1 15-14.6-10.3" />
    <path fill="#99afd1" d="M506 539l12.6-8.5-31.5 58 13-25.5" />
    <path fill="#2c2819" d="M778.3 526.6l25.5 94 4.4-55-19-27" />
    <path fill="#85614f" d="M644.3 586l18.7-29.5-63.8 16.2 41 7.5" />
    <path fill="#f4bf90" d="M797.5 393l-5.8-34.7-2.4 10-13.7 25" />
    <path fill="#aba1c1" d="M405 674l-9-20 14.4 22.3.3 16.8" />
    <path fill="#6e584b" d="M515 245.7L588 349l-70-99 13-7.5" />
    <path fill="#060505" d="M756 158.7l-63 22 53-49.6-30 7" />
    <path fill="#2a4800" d="M80.8 258.5l-4 5.8 72.7 19 16-6" />
    <path fill="#19191b" d="M608 120l-13.3-11.5 4.3-12 2.3 36.2" />
    <path fill="#1f1c2a" d="M647 717l34.8 3 .3-11.3-36 14" />
    <path fill="#546300" d="M879.7 55.2l4.5 25.4-18.4-8.7 50.5 27" />
    <path fill="#efc29e" d="M542.8 384.4l31-4.3-41.6-12 9.2 10" />
    <path fill="#554d3e" d="M928 576.5l-53.2-43 6-54.7 6.3 79.5" />
    <path fill="#fabe94" d="M699.2 362l-8-10.3-9-.5 1 14" />
    <path fill="#190400" d="M710.4 488l1.2-9.2L686 482l14.6 3.5" />
    <path fill="#504a3d" d="M320.7 596l8.5 26.3 19-22.3-25.8-7" />
    <path fill="#4e7400" d="M971.7 12l27.6-27.6 15 49.2 2.3-1.3" />
    <path fill="#9a6751" d="M751.3 325.4l-17-24.2 10 16.6-16.3 5.7" />
    <path fill="#562611" d="M656.3 595.6l92-6-119.7-4-7.6 72.2" />
    <path fill="#998f6d" d="M200.6 466l5.4-24.5 16.4-6-6.3 12.3" />
    <path fill="#613623" d="M508.3 346l-19 43.8 15.5-15-3.7-38.6" />
    <path fill="#010201" d="M826 192l16.3 69.8-68.3-71 55.2 35.7" />
    <path fill="#3c5500" d="M1009 8.7l5-28.3 41 72.2L1002.6 7" />
    <path fill="#f4be9d" d="M778.7 313l-53.2-41.6L743 255l-5.6 47" />
    <path fill="#060707" d="M448.7 622.3l-78.4-31-1.2-54 86 83" />
    <path fill="#713b20" d="M585.4 575.4l-9.4 33.4 61.2-26.2-16.2.7" />
    <path fill="#23130b" d="M715.8 179l-7.7 9 42-9.3-69-4.5" />
    <path fill="#b38763" d="M558.4 515.7l-47.4-71 3 37.7 19.5 30.3" />
    <path fill="#c7ba9c" d="M320 415.4l15.5 39.3-22.2 5.7-6.2-9" />
    <path fill="#a06048" d="M709.7 429.4l-24.2-31 21.8 17 1.3 7.6" />
    <path fill="#062500" d="M39.8 187L-31 290.5 82 199l-44.4-9.4" />
    <path fill="#e3a881" d="M626.6 532l57.2 8.5-63-21.6 2.5 11" />
    <path fill="#1e0b03" d="M767.5 187L708 173.8l61 23.4 28.6 31.4" />
    <path fill="#df9761" d="M737.6 369l12 14.6 9-12.7-18.3-5" />
    <path fill="#355000" d="M263.8-31l87.5 75.7L329.8-31 421 27.2" />
    <path fill="#0f110a" d="M979.6 723.2l4-348.4-17 293.4L996 745" />
    <path fill="#3d6200" d="M332.8 54.4l-6 17.4-23-27.5 5.5-6.4" />
    <path fill="#252829" d="M614.6 154.7l21.6-70 6.5 22.8-12.6-7.8" />
    <path fill="#e19f84" d="M689.4 492.5l-18.8-15.3 16.8 36.2-22-2" />
    <path fill="#616f99" d="M540 747.8l-1.8-34.8 31.3 11.3-24.7-19.4" />
    <path fill="#080705" d="M193.3 692.7l.2 69.5-8-30 80.2-69.8" />
    <path fill="#8e845a" d="M345.3 405.7l12.4 24.7-47-30.6 33.7 6.4" />
    <path fill="#9ba1c6" d="M290.8 672l-39.6 27.6 34-20.4-.8-2.3" />
    <path fill="#acc1df" d="M475 639.2l2.4 31.4 5.3-7 15-112.5" />
    <path fill="#53321c" d="M743 190.8l39.4 15.5-40.2-19.5-29.6-1.6" />
    <path fill="#3b3620" d="M944.2 255.7l25.5 6.2-11-42-18.5 15" />
    <path fill="#122400" d="M509.5 140.8l56.5-32.2-42.4-.6-16.2 41" />
    <path fill="#6d7e93" d="M556.5 651.7l38.3 18.7-61.2-39 74 46.4" />
    <path fill="#2d3d00" d="M514.5 54.5l-8-39 29.7 29.8-35.8 127.3" />
    <path fill="#ffe6c6" d="M672 349.3l-1.2 8.4-17.7-5 15-2.7" />
    <path fill="#f9cfb1" d="M742 213.3l-29.7-20.6 2.3 6.2 20.2 42" />
    <path fill="#a18474" d="M680.2 336.5l36.4-6.6-49.6 4-3 1" />
    <path fill="#282b09" d="M961 420.6l-25-59 48.5 30.3-13.8 15" />
    <path fill="#c6cedf" d="M198.4 740l52.4 48.7-40.6-37-32.7 47.3" />
    <path fill="#ecedf5" d="M242 695.7L346.7 711l-109-15.3 97.7 43.6" />
    <path fill="#050402" d="M24.8 720.4l42.6-120 117.8 172 24.7-94" />
    <path fill="#222225" d="M709.3 105.2l76 47.2-80.6-47.8L683 136" />
    <path fill="#688a00" d="M827.7 65.7L852 45l-33-8.7-42.6 88.3" />
    <path fill="#092501" d="M472.3 192l-41.6-17 18 91 35.4-19" />
    <path fill="#f9c19a" d="M629.6 208l27-19.2 18.8 11-104.5-9.3" />
    <path fill="#040303" d="M596.4 670.6l-30 28-53-13 67.2-19.5" />
    <path fill="#f3ba9d" d="M619 405l-29 51 13.2-36.5 66.5-16" />
    <path fill="#eff2f5" d="M414.2 692.2l20.5-4-38.4-39.4 22.5 34.3" />
    <path fill="#28251a" d="M924.2 284l53.6-41.8 2 5 20.3 33.2" />
    <path fill="#27271b" d="M898.5 384l-39-13.8 58.3-57.6 12.8 62.4" />
    <path fill="#564945" d="M808.2 274l-9-4.5 1.8 1.4-1-36" />
    <path fill="#664e41" d="M709.6 391.5l-15.3-2.6-7.6-1 39 1" />
    <path fill="#504f54" d="M603 89.2l-10.5-4.7-3.8 43L599 81.8" />
    <path fill="#6c8800" d="M171.2 214.6l22-70.5-30.5 45 54 16" />
    <path fill="#082200" d="M200.2 333.7l39.6 60.3 40 6.5-120 7.6" />
    <path fill="#d3926d" d="M710 414l-35.6-46.5-4.5 4.5 70 56.6" />
    <path fill="#2c271f" d="M189.7 522.5l38.4 47.3-12 34 13-93" />
    <path fill="#3f3724" d="M886 472l-62.3-62.3 13.4 39 20 15.3" />
    <path fill="#354491" d="M546.8 616l21 28.7-41.4-52-2.5-4" />
    <path fill="#33180b" d="M626 476.7l-39 6.8-2-12 45.6 5.3" />
    <path fill="#d0b8a9" d="M626.7 377.2l-9.8 1-33 .8 50-10" />
    <path fill="#74777e" d="M619 736.8L608.7 750l-4.5-9.2 7-7.2" />
    <path fill="#666050" d="M935.8 537l-4.2 10.3 25.2-37.3-14 54" />
    <path fill="#093300" d="M330.6 139.8l-8.8-52 72.7-31.2-25-26" />
    <path fill="#011900" d="M27.3 209.8l9.2 64.7L66 263l-16.5-50" />
    <path fill="#486d00" d="M833 180.3l19.7 37.4L865 122l-9.2 8" />
    <path fill="#b5c6dd" d="M488.8 582.3l11.8-30.2 19.4 82-21-58" />
    <path fill="#8a4c2b" d="M640 331.4L626 343l-19.8-9.5 23.2 3.5" />
    <path fill="#030302" d="M596 175.3l66-33.3 30.4-22-12.2 38.8" />
    <path fill="#43412e" d="M942 576.2l16-82.5-3 64.2-61.6 18" />
    <path fill="#6e6f73" d="M696.8 90.5l-8-2 19.6 28.6-6.2 10" />
    <path fill="#363b3f" d="M503.7 208.7L533 205l-16.5 30.3 8.7-12.2" />
    <path fill="#344c00" d="M384.4 148L372 159.3l-15-30.6-.3-10" />
    <path fill="#c2b899" d="M219 469l16.6-26.4L247 456l-6.6 24.4" />
    <path fill="#628700" d="M274.6 125L263 95.4l8.7 2.5 32.3 10" />
    <path fill="#030403" d="M629.6 126.5l160.2 55.2L642.6 159l-18.4-57.5" />
    <path fill="#e3e6f0" d="M280 799l-24-50.2 58.5 1.3-36.5 46" />
    <path fill="#cb9577" d="M545 317.6l-32.2 1 15.4-20.2 5.3 27.8" />
    <path fill="#664621" d="M785.3 418.6l19.5-36.8.8 8-19 48" />
    <path fill="#b37c59" d="M809.8 405.5l10.8-30.4-8.4 14 2.8 47" />
    <path fill="#8494b7" d="M459 689.8l36.2 8-31.6-34.7 11.4 28" />
    <path fill="#997f71" d="M568.2 303.7l-6-7.3 37.2-3.2-12.5 5" />
    <path fill="#242812" d="M820.3 352.8l-11 10.3h2l40-29" />
    <path fill="#864a2f" d="M800.8 431.6l9.8-42.7 4.5-8-5 35" />
    <path fill="#fbcbaf" d="M701.2 432.3l21 32-10-22.2-19.8 18" />
    <path fill="#353737" d="M494.2 235l36.8-16 2.3-29 .3 38.7" />
    <path fill="#ebd2d4" d="M676 481.7l-11 2.7-.7-2-29.8-1" />
    <path fill="#224602" d="M623 90.4l56.4-15.8-25.6-20-36.2 24" />
    <path fill="#fcc8ad" d="M700.3 419.7l-62.7-16.4 47.7 1.4 15.4 12" />
    <path fill="#edf2fb" d="M1018.4 758.3L1055 799l-93.6-62.8 66 62.8" />
    <path fill="#728618" d="M1003.7 294.5l3 20.3-37.8 22-1-16.6" />
    <path fill="#2e3c00" d="M999.4 358L940 346.7l4.2 20.3 83.8-19.4" />
    <path fill="#587a00" d="M719.3 95l-56.6-43 63-82.3-51 80" />
    <path fill="#92a0c7" d="M526 597.4l22 43.8-9-31.4-27.8-38" />
    <path fill="#0d1129" d="M675 658.6L593 692l84-30 18.8-24.3" />
    <path fill="#a46f52" d="M536 299l.6-73.7 5-10.7L544 193" />
    <path fill="#496700" d="M143.8 128l-41.2 85.5 27.6-13-38-44" />
    <path fill="#7183b2" d="M475 680l-1 44-4-84.5 5.5 24.4" />
    <path fill="#6f3217" d="M832.8 385.2l.3-4-24 16.7 14-18" />
    <path fill="#383a3e" d="M842.8 324.8l2.6-29.6-23.8 6.4 19 5.7" />
    <path fill="#041853" d="M591.4 669.2l.7-4.7-15-9.3-24-32" />
    <path fill="#7d573b" d="M760.4 508.8l-26.6 89 19-33.7-2.2 5" />
    <path fill="#7b6f5c" d="M227.5 605l15.3-18.8 36 15.5-48.2 6.5" />
    <path fill="#3a4a00" d="M476.8 137.8l12.5-15.6 15-20.3-.6 59" />
    <path fill="#ad7245" d="M729.5 502.8l-10 21.7-5-29L773 500" />
    <path fill="#344e00" d="M161 154.2l-6-28.2 18.5-41-41 46" />
    <path fill="#52506a" d="M547.5 624.2l31 61.4-31.7-60.8-32-63.2" />
    <path fill="#8da6cd" d="M458.4 625.5l-15 8.2 39.4 34.2-9 13" />
    <path fill="#565b92" d="M516 540l-6.2 22.7 1-9.4-9.6 10.4" />
    <path fill="#1f4bac" d="M349.7 656.7l-4.5-9.2 8.7 6.6 4-1" />
    <path fill="#07070c" d="M556.5 696l43.4 38.6-34-65.4-7-5.3" />
    <path fill="#070a08" d="M1042.3 383.3l-50-21.5-10 91.8 48 8.4" />
    <path fill="#4f5a47" d="M594.2 94.7l80.5-12-8 5-12.2 1.8" />
    <path fill="#b1a584" d="M345 430.8l-32.7-12.3 21.2-5.4 5.7 47" />
    <path fill="#f3b78c" d="M773 280.8L760.5 204l18.8 16.8-43.7 61.5" />
    <path fill="#6c4035" d="M606 433.4l49 24.5h-27.7v-16" />
    <path fill="#a4bada" d="M563.3 660L513 592.6l19.5 86.4 21-41.5" />
    <path fill="#af6439" d="M794 396.6l-1.5 3.3 9.7-16-37.7 33" />
    <path fill="#6c9400" d="M883.5 15.2L842.5.5l78-31.5L884 12" />
    <path fill="#1b3c00" d="M412 39l66.3 45.3-45-5.2-98.6-76" />
    <path fill="#fdc8a7" d="M614.6 377l14-6 12-9.3-34.8 1" />
    <path fill="#4d2d1b" d="M674.3 182.5l-3.3 14.3 1-34.8 3 25.8" />
    <path fill="#ebaf84" d="M735.2 342.6l-22.7-5.5 22.3 11 34.4-6" />
    <path fill="#132200" d="M52 93.7L39.3 45.2l-7.5 61 68-8.7" />
    <path fill="#182300" d="M969.5 188l25.5.7-6 52.2-49.5-80" />
    <path fill="#ad714b" d="M624.6 184.6l31.7 4L625 186l-28.3-10.7" />
    <path fill="#544d3b" d="M923.5 421.5l27.3 93.6-22.6-64-72.2-4" />
    <path fill="#fdcba4" d="M748.6 345.3l2.4-6-26-.5-3.7-.4" />
    <path fill="#665248" d="M679 384.3l44.8 5.5 37 2.6-55.7-2.6" />
    <path fill="#2c4f01" d="M849.2 222l-13 17 75.4-27-25.3-19.4" />
    <path fill="#414032" d="M518.6 524.7L485 508.2l3.3 56.4 32.5-43.2" />
    <path fill="#f2f3f8" d="M923.6 714.6l47 23 11 61.4-95-97.7" />
    <path fill="#e6ae88" d="M555 197l15.4 61.8 44.7-28.5-72-4" />
    <path fill="#a8a8c7" d="M421.7 700.5l36.4-4-52-7 2 10" />
    <path fill="#706443" d="M215.6 501.8l-14-20.8-7.2-24.3 21.8 36" />
    <path fill="#7b5239" d="M622.3 558.8l58.8-3.6-56-19.7-13 16.7" />
    <path fill="#567400" d="M101.3 68.4l22-16-7.8 32-1.6 32" />
    <path fill="#4b301a" d="M806.5 417.5l.2-22-9.3 7 5.7 16" />
    <path fill="#1a1b1d" d="M693.6 104.2l-70 45.8 39.4-21.8 8.8-22" />
    <path fill="#202306" d="M280.6 666.3l-37.7-4-22-26.3-23 1" />
    <path fill="#cfcad2" d="M744.8 706.7l16.4-20.4 2.4.5 21.7-34" />
    <path fill="#0d1408" d="M367.4 408.2l1 30.8 53.3-29 43.6 17.6" />
    <path fill="#61261e" d="M651.7 482.3l-32-9.8L638 468l11 8.3" />
    <path fill="#714b31" d="M694 198.8l3.3-5.5 29.8-10.5-30 3.5" />
    <path fill="#59572b" d="M352.7 409L320 386l21.3 2.4L360 413" />
    <path fill="#9fa6ce" d="M479 683.2l-5 56.6 4-3.8-.4-.7" />
    <path fill="#212423" d="M540.7 320l63.3 2.2-64.7-.5 7.3 35.2" />
    <path fill="#265300" d="M292.7 251l-25.4-2.2-1.6-28.3 20 2.7" />
    <path fill="#020201" d="M757 153.8l34-18.8-52 50.8 56.2-15" />
    <path fill="#fae0d0" d="M663 378.7l9.7 24.8L650 405l17.2-36" />
    <path fill="#111b15" d="M541.4 349.6l9.4-25.5-18.7 9 8 1" />
    <path fill="#edf0e4" d="M798 351.7l-6.3-3.2 30.5 1.2-21 12.3" />
    <path fill="#a14720" d="M482.4 338v16l6.8-1.7-1.6-3.7" />
    <path fill="#032a00" d="M253.4 301.8l-70.6-30.4 110.3-.7 29-29.5" />
    <path fill="#904725" d="M743.5 378.2l-18.3-11 .5.4-9 2.7" />
    <path fill="#0c2000" d="M304.3 350.5l-12 46.7 40.6-35.6 36 48.2" />
    <path fill="#6b8700" d="M892.2 124.5l-14-61.3-17.4-6.5 33.8 102.5" />
    <path fill="#f4f4f7" d="M573 755l1.6 44-165.4-43 126.5-11.4" />
    <path fill="#616366" d="M662 696.4l-31.2 6.5-21.3 27-2.5-11" />
    <path fill="#f8fafa" d="M703.6 655.3l11-25.7 64 41.3-7.3 5" />
    <path fill="#894e2a" d="M717.7 477l-37 .2 31.2-8-7-10.6" />
    <path fill="#6e3727" d="M630.4 509l34 2-20.2-11.4-26.3 3" />
    <path fill="#a65a34" d="M773.8 411l-9.3 17 9.4-24 2 8" />
    <path fill="#403829" d="M279.7 530.8l-29-18.8 46.2-14.8-79 58.5" />
    <path fill="#afb8cf" d="M210.3 713.8L200 742l9 11.6-6-34.6" />
    <path fill="#3d3827" d="M886.5 391.4l-59-33.8L948 409.2l-45.5 13" />
    <path fill="#dda174" d="M748.7 481.6L727 497l-9.2-37 7.3 14.5" />
    <path fill="#567700" d="M147 207.6l32.4-34.8-28.3-15.4-46 62.4" />
    <path fill="#685e41" d="M348.2 500l-62-5-19-53.3 25.5 47" />
    <path fill="#d08c6b" d="M666.7 320.2l8-6.7L647 291l-.8 2" />
    <path fill="#313431" d="M649.4 104.2l7.4-26.6-11.4 22.6 14.3 23" />
    <path fill="#4d6400" d="M988.4 296.3l4-7L1055 369v-93" />
    <path fill="#838387" d="M616.3 724.6l-2-11.4 17-11.2-1.4 10.2" />
    <path fill="#554d3d" d="M103.4 581.2l19.3 4.5 6.6-26.7-24.6 11.5" />
    <path fill="#2b2e48" d="M580.3 770l1-31.2 2.4 42.4-5.8-105.5" />
    <path fill="#2f3017" d="M864.3 367.5l-49.2-14 95-31.3-64 23.8" />
    <path fill="#382214" d="M527.5 588.7l98.2 89-18.7-1.2-81.6-88.4" />
    <path fill="#00072d" d="M400 625.4l22.2-25-32.5 36.7-17.2 4" />
    <path fill="#525857" d="M516 206.4l9.8-8.6 14.5 4 6-8" />
    <path fill="#040403" d="M687 704.3l-15-28.5 14.5-13.4 5.4-2.7" />
    <path fill="#292a25" d="M480 549.8L467.7 610l-20.2-15 39.2-62.4" />
    <path fill="#6d6b6c" d="M596 734.7L584.3 799l26-40.2 7.5 37.3" />
    <path fill="#f4f7f9" d="M840.5 698l28-9.6-60-44.4-35.8-11.3" />
    <path fill="#594e35" d="M225 508.6l79.3-9.2-80.5 2.6-15.7-2.6" />
    <path fill="#161803" d="M93.6 449.8l-124.6.8 62.2 59 29-34.3" />
    <path fill="#f1f2f7" d="M271.8 680l14.8-7-40.3 68.5 154.8-43" />
    <path fill="#040403" d="M246.4 679.6l-58 55.2-5.5 43.8-108-57.2" />
    <path fill="#616362" d="M717 132l-54-47 3.3-4-29-29" />
    <path fill="#f7faf9" d="M488 677.8l1.6 15.7h.5l25-14.5" />
    <path fill="#0c0b0e" d="M699.8 125l15 5 1.7-23-8 61.8" />
    <path fill="#191a1f" d="M635.6 755l-10.3 18.5 40 12.5-4.3 7.4" />
    <path fill="#f2f4ee" d="M955.5 717.8l-17-7 45 28 14 9.3" />
    <path fill="#050e1c" d="M1009.6 763l24 36-2-47.7L1055 793" />
    <path fill="#232339" d="M663.6 727.7l12.4-20-30.5 37.8 5.6-20.3" />
    <path fill="#a97554" d="M578 369.6l10.5-22-21.5.2 8 6" />
    <path fill="#5a595c" d="M643.6 116.7l.8-5-30.6-5 1 2.5" />
    <path fill="#0c0d15" d="M564.5 702L545 664l23.2 31.7 25.5 36.4" />
    <path fill="#242226" d="M706 138l-8.4 6.7-3.4-40.6-3.2 36" />
    <path fill="#92867c" d="M594.7 319.6l23 2 37.3 12.8-60.8-16" />
    <path fill="#050503" d="M580.8 124.2l-53.8 2.5 136.4 44.7-60.4-2.7" />
    <path fill="#202224" d="M732.6 332l-80.2 6.3-20.7 40.4 22.7-37" />
    <path fill="#779700" d="M690.3 27.6L685.6 49l3 18.3 29-22" />
    <path fill="#17160e" d="M126.7 518.6l39.6-22.3 48 163.6-77-123" />
    <path fill="#efd7c6" d="M755.8 388.6l-33 .4-11.7-3 64-3.8" />
    <path fill="#827d8f" d="M737 685.3l-17.7 40L765 686l-35.4 38.2" />
    <path fill="#472313" d="M515 564.5l50.8 65.7-4.7-3.3-34-42" />
    <path fill="#6d3016" d="M821.8 400l5.6-25.2-24.8 30 6.2-11.4" />
    <path fill="#395100" d="M638 38.7l-23.3 40.6 6-78-139.5 19" />
    <path fill="#9d5838" d="M631 390l-4 2.3-15.3 8-8 18.2" />
    <path fill="#171c01" d="M1002.2 671.2l-51.8 12.4 81.6 58.8-72.7-25.6" />
    <path fill="#dfbda8" d="M575 373.8l-24.5-5.6-2.4-8.4 17 .2" />
    <path fill="#f7f9fa" d="M249 704l12-8 20.5-8.5-2.4 52.7" />
    <path fill="#360f05" d="M698 616.3l-18.7 5.2-56-1.6 42.7-12" />
    <path fill="#ecb9a3" d="M656.2 471.2l-10-9 56.3-13.8H690" />
    <path fill="#674535" d="M552.2 309.3l-7 10.7 37.7-10.5-21-1.5" />
    <path fill="#302c1f" d="M349.6 632.8l-9.3 9.8-20-10.4-1.6-18.7" />
    <path fill="#23130c" d="M706.6 598l-55.2 49.6 6.4 22.8 16-11" />
    <path fill="#a19278" d="M271 623l-12.2-10.3-16.7 2 10 17.2" />
    <path fill="#666b5e" d="M580 78.3L601.3 91l-4-11-11 8" />
    <path fill="#474a51" d="M757.4 567.6l5.2-49L750 583l16-44.6" />
    <path fill="#b58161" d="M528 288.6l-20.3 32.7 40.5-45.8 25.5-11.2" />
    <path fill="#1c1c16" d="M819.6 547l-29.8 2.3 13.3 30.2 151 52" />
    <path fill="#264199" d="M782 632.6l3.3-.5 39 17-34.3-13" />
    <path fill="#be7b5c" d="M728.8 323.6H701l55.3 5-10.8-5.6" />
    <path fill="#f4bf9b" d="M696.7 493l13.3-1.4-32.5 35.2 11 14.4" />
    <path fill="#25262b" d="M627.3 761.2l-2 37.8 14.5-75.3 19-37.2" />
    <path fill="#455600" d="M91.4 68.6l-38.7 3.8 11.4 17L86 87" />
    <path fill="#578200" d="M871.8 28.2l77.4-25.7-111 20.2-14.4-38.3" />
    <path fill="#0d0a08" d="M679.7 162l36.4-52.6-35 80.2-7-55.3" />
    <path fill="#131515" d="M644 333l32.7 9.7 2 10.6-25.7-15" />
    <path fill="#2a261f" d="M877.2 480.5L797 599.8l10.8 20.4-30 9.8" />
    <path fill="#be845c" d="M761.7 201l-35 4.2 18-6-55-14.7" />
    <path fill="#394800" d="M904 185.5l-12.2-22 41.3 11 23-66.8" />
    <path fill="#000f01" d="M446 284.7l35.3 27.4-66.8 21-102-78" />
    <path fill="#809fd7" d="M413 628.7l-6 32-17.6-23 25.8-7" />
    <path fill="#e0af8b" d="M689.8 390.8l-6.5-8.7 45.5 30-12.3-20" />
    <path fill="#1d121b" d="M533 597.2L514.2 566l4.6 13 76.7 92.2" />
    <path fill="#dde3f1" d="M325.7 673l20-22.6 2 75.7-4.5-74" />
    <path fill="#20251e" d="M478 236.7l16.2 5.5-9-22 36.4-14.7" />
    <path fill="#060402" d="M697.2 183.7l-5.2-42-7 34 72-42.6" />
    <path fill="#0c0f12" d="M609 728.5l26.5 8.2 4.3 4.5-49.8-15" />
    <path fill="#040405" d="M685.4 667.5l49 16.4-4.2 6-19.5 8" />
    <path fill="#dca37c" d="M594.4 381.8l-6.2 8.3h-51l26.2-10" />
    <path fill="#908469" d="M254.8 476.5l15.6-14 1 15.7-32 23.4" />
    <path fill="#a7704c" d="M483.6 337.8l-5-11.7 1.4 42 8.8 54" />
    <path fill="#f9c099" d="M733.5 196l5.7-.2-6 99.5 28-74" />
    <path fill="#edeff5" d="M490.7 736.7L289.2 730l181.6-9.3 9.2 33.6" />
    <path fill="#131709" d="M128.8 657.2l54.5-46.2-60 19-58-13.8" />
    <path fill="#f2c2aa" d="M707.3 299.2L728 291l4.2-.6-75.3-21" />
    <path fill="#bc8f79" d="M758.8 327.7l26.4-1-2-5L760 309" />
    <path fill="#1e2c1e" d="M519.4 345.7l-60.7-66L495 318l25 21.5" />
    <path fill="#fbfaf6" d="M743 603l19-30.3-2.5-2.6-26 44" />
    <path fill="#d7dfec" d="M183.4 799H194l11.5-80.4-4 22.3" />
    <path fill="#c38864" d="M613.2 340l33.7 5.4-92 31.3 72-24.7" />
    <path fill="#708b00" d="M716.5 9l-21.2-1.6.6-31 167-5.8" />
    <path fill="#e4b58d" d="M755 440.7l18-17.7-6 21.2-61.7-15.4" />
    <path fill="#d8e2f6" d="M432.6 685.5l-27-22-13-17.8 23.2 20" />
    <path fill="#322f29" d="M773.5 344l1.5 1.5 17.7 12-1.2-11.2" />
    <path fill="#202600" d="M954.4 111.2L952 170l24.8-9.5 6-2.3" />
    <path fill="#79735c" d="M938.4 491.8L924.7 461l-12-2.5 36.8 70" />
    <path fill="#3c3525" d="M497 530.2h-4.3l29.6.7-5-36" />
    <path fill="#34353a" d="M605.2 115.3l-11-28.7 24 10.2-19.4 14" />
    <path fill="#685e4a" d="M873.4 408l10.8 28.5h-30.6l-8-42.6" />
    <path fill="#3d382b" d="M290.4 614.2L238 526.8l-18.3 24.4 69.6 31.5" />
    <path fill="#050504" d="M1000.3 448.7l15.8 180.5 39 60-84-30.8" />
    <path fill="#a5825a" d="M732.6 562L788 458.4l-8-14.8 10.3 21" />
    <path fill="#782514" d="M643.7 478l29.4-8.6 15 6-18 2" />
    <path fill="#976040" d="M575.5 458.3l-35.3 8.2 10.8 6.7-2-33.4" />
    <path fill="#1d2237" d="M1004.5 759.4l-11-8.2 1.3-1.5L1055 799" />
    <path fill="#363c32" d="M489.5 472.8l-41-31.8h14.8l-54.8-11.5" />
    <path fill="#382216" d="M625.8 382.5l15-8 6.8-39.6 1 24" />
    <path fill="#e8ecf3" d="M799 663.8l-36.2-62.4 31.2 74L757.6 799" />
    <path fill="#2a2b2b" d="M547 181.6l-42.8 2.5 39.7 1-36 61" />
    <path fill="#364900" d="M536.8 79.2l24-110.2L510 106.4l-55-19.7" />
    <path fill="#234b00" d="M345 63.3L356.4 32l3.3 3-73-34.6" />
    <path fill="#1f1307" d="M593.3 336.3l1 8.5 21.5-8-1 3.5" />
    <path fill="#7e7ca4" d="M670.8 718.3L645.6 750l-2.3 49 1.6-40.4" />
    <path fill="#85a7e8" d="M1022 758.7l33 27.2-38.6-30-26.8-18" />
    <path fill="#e3a97d" d="M654.5 396l22.6-28 19 33.5-21-29" />
    <path fill="#566700" d="M363.6 110l5 30.7 2-11 16.7-26.5" />
    <path fill="#f0f0f4" d="M703 722.7l-52 45.6-8.4-17L684 799" />
    <path fill="#cf9576" d="M823.5 372.7l-5.2 14 2-18 8.6 1.7" />
    <path fill="#57443d" d="M746.5 391.6l-28.8-2 5.7 4 49-4.8" />
    <path fill="#5e7600" d="M78.2 65.6l-16.2.8L79 35l30.7-8.3" />
    <path fill="#241407" d="M710 312l-7.8-7.3L740 316h-26" />
    <path fill="#65605b" d="M516.6 219.7l38.3-15.2-48 13.5 4 4.8" />
    <path fill="#101710" d="M527.5 226.5l-6.7-16L453.6 335 522 214.3" />
    <path fill="#1f212b" d="M827.8 345l-12.5-14 28.7-20.5-35.5 38.5" />
    <path fill="#a27958" d="M525.5 501.5l-3.3 44.3.2 15.8 34.4-16" />
    <path fill="#48494f" d="M602 88.6l17.8.3 18 10 .8 2" />
    <path fill="#ad9f81" d="M203 464.2l36.2 27L206 450l39.7-10.5" />
    <path fill="#2d5400" d="M190.2 102.8l51.6 14-20.5 9.3-20-11" />
    <path fill="#d3d2db" d="M213.3 795L320 763.5l23.8-6.6 10.4 14" />
    <path fill="#9e7756" d="M501.4 407.5L552 434l-10.5 28.7L508 351" />
    <path fill="#0a0d18" d="M590.4 722.5L552.6 689l40 43-9.8 67" />
    <path fill="#13130c" d="M32.4 568.3l60.4-8.5-74.5 71 41.3 11" />
    <path fill="#93aada" d="M491 594.2l22.7 56 3.3 8-16.6-29.4" />
    <path fill="#283400" d="M24.7 167.2l-43.4-43.5L2 132l38.3 36" />
    <path fill="#6d676f" d="M746.7 710.3l-10.7-7.5-10.6-6-28.3 6.6" />
    <path fill="#332c1c" d="M820.4 464.7l-21.8 3.5 15-18.8 9 95.4" />
    <path fill="#0a0a0a" d="M766.7 139.8l-30.4 46.8-.4-22 36-45.6" />
    <path fill="#d09671" d="M689.8 197.5l-27-13 14 11.5 23-7.3" />
    <path fill="#eef0f6" d="M392.8 657.5l-126.3 98.2 83.6-102-34 7.5" />
    <path fill="#ddd6b9" d="M790 347.8l5.5-2.6 2.7 13 11.7 2" />
    <path fill="#10100f" d="M961.7 686L931 698l-16.8-7-18-38" />
    <path fill="#b1c0e3" d="M945.7 721l-25.3-11 16 9 59.6 35" />
    <path fill="#b4896b" d="M506.8 390l1.2-20.6 32.4 37.5-21.4-51" />
    <path fill="#0d1500" d="M1033.6 172.4l-40.2 45.3-7.3-80-23 48.3" />
    <path fill="#163600" d="M213 118.4L303 42l-64.4 37L218 29" />
    <path fill="#5d7100" d="M5.8 45.2L70.2 20l-93.5 16.8 30-30.4" />
    <path fill="#e5a479" d="M747.5 396.7L768 421l4-21.7-1.5 14" />
    <path fill="#ba744d" d="M742.4 197.4l26 4.5 6.7 5 8 8" />
    <path fill="#f4c6a8" d="M616 238.4l57-4.7 9.5 14-66.8 12.3" />
    <path fill="#516e00" d="M898 161.7l-38-35.4-39.4 15 101 9" />
    <path fill="#13160a" d="M345.3 646l-93 25.2 123.5-45-22.6 29.2" />
    <path fill="#837378" d="M523.7 591.8v-64L494 569l27-38.2" />
    <path fill="#2c4400" d="M571.4 32l49.8 31-96 40.7 61-35.5" />
    <path fill="#622e19" d="M673.2 501.2l-11.5 7-37-10.5 25.5.7" />
    <path fill="#713416" d="M685.4 319l36-5.7L691 333l-3.7-3.4" />
    <path fill="#f1f9fa" d="M980.7 734.6l40.8 29L968 724l-12.4-2.2" />
    <path fill="#a57d68" d="M592.5 566.4L546.3 515l31.2 19 24.7 28" />
    <path fill="#141410" d="M458.6 577.6l-8-73.2 21.5-15.6-2 37.2" />
    <path fill="#ba7d62" d="M611.6 403.8l-80.7 2 79-8.2 6-.6" />
    <path fill="#5b675b" d="M509.2 335.8l2 8-15.3-22.4 7 1.5" />
    <path fill="#0e0e0d" d="M961 718.6l-7.2-38.3-71.4 3L865 650" />
    <path fill="#b76b4c" d="M641.6 417.6l-35.8 9.8 16.6-42-13 33" />
    <path fill="#354c0c" d="M842.2 286l7.2-12.4 1.4-.6 2.7 28.5" />
    <path fill="#838dba" d="M449.4 672.8l-11.8-39.2 5.7 19.7 5.2 48" />
    <path fill="#1f230f" d="M482.3 380.8l-10 24-26.6 11.2 33.5-35" />
    <path fill="#355600" d="M808.8 123l16 23.6 18.8-6.3-3 67.5" />
    <path fill="#322e25" d="M494.4 367.8l1-38.3-55.7-3.4 58.7 4" />
    <path fill="#242b19" d="M616 89.7L600 74l7 7.6 18.5-3.8" />
    <path fill="#112b00" d="M367 73l28.8-32.5-12.7-5.7 32 50.7" />
    <path fill="#1c3e00" d="M811 14.6l-49 18.7 19.4-43 21 22.5" />
    <path fill="#daac8a" d="M532.8 377.4l-11.7-56 15 79.3 13-14.7" />
    <path fill="#233500" d="M664 8.5l7 17.5-126-57h60" />
    <path fill="#95644c" d="M578.7 563.3l-41.2 3 5.4-27.6 97 48" />
    <path fill="#243200" d="M59.4 156l28.8-14.6 5.3-30 2.4-15" />
    <path fill="#2d2119" d="M509 266.3l-5.5-2.8 30 .7.3-11" />
    <path fill="#a77358" d="M804.5 323.3l-1-24-4.8-60.3-1.8 22.4" />
    <path fill="#eec3a1" d="M672.2 352.7l-16.5-6-6 7.4-1.2 2" />
    <path fill="#eff0f5" d="M355.2 724.2L320 696.8l46.3-8.8-171 43" />
    <path fill="#685342" d="M671 367.5l35.2 24.3-12.2-5.6-21-17.2" />
    <path fill="#272517" d="M816.7 333l18.7 46.6 163.2-153.8-160.2 150" />
    <path fill="#020300" d="M629.6 117l2.4 45 206 27-184.3-38.2" />
    <path fill="#0d3d00" d="M287.4 273l9.6-99.8 6.2 85.5-84.4-11.4" />
    <path fill="#040403" d="M97 799l103.7-61-19.8-40.4 23-28.2" />
    <path fill="#88522d" d="M576 502.7l10.8 26.5 9.7-19-30.7-23.6" />
    <path fill="#a66043" d="M561 495.7h130.6l-97.2-4.4h67.8" />
    <path fill="#f9d6ba" d="M689 374.2l-4.7-6.6 19.8 4.2 4 8.5" />
    <path fill="#676a67" d="M688 104.5l-4.2-9-19.8-9-15.8 1.5" />
    <path fill="#f5c8aa" d="M807.2 429l.2 22.8 4-2.2-14.5-12.4" />
    <path fill="#324891" d="M874.2 677.6l-29.8-11 81.3 39.3-82.6-43" />
    <path fill="#4a4229" d="M116 525l8 5.6 5.4 26.2-32.4-18" />
    <path fill="#182e6c" d="M428.7 621.5l-17.4 6.4-59 20 78.4-24" />
    <path fill="#825739" d="M733.2 509.8l-11.7 5.5 4.3 11.2-.7 14" />
    <path fill="#d89976" d="M678.3 345.8l7.4-5 30 35 20 7.3" />
    <path fill="#0d0d13" d="M517.2 534.7l1.4 26.6-2.6 15-2.8-25.7" />
    <path fill="#92885a" d="M288.3 445.7l-3 3.4.8 23 15 21" />
    <path fill="#151b00" d="M881.2 298.5l12.3 10.2 5 2.7 23.3-78.4" />
    <path fill="#53291d" d="M646.2 445l.4 14.6 26.5-16.3-68-13" />
    <path fill="#2b2919" d="M963 394l-2.7 56-12 27-3-71" />
    <path fill="#b6bedc" d="M313 669.8L284 684l20.5-18 5.6-1.5" />
    <path fill="#614438" d="M558 320.5l5 .8.3-20.6-10.8 12.6" />
    <path fill="#2f4c00" d="M454 165.6l-5.8-33.2 10.6 4.3 26.3 63.7" />
    <path fill="#38393c" d="M781.8 139.4l-5.4-15.4 26 10.6-17.7-2.2" />
    <path fill="#f2f1f5" d="M708.7 735l1-24.8-17.5 88.8 190-36.7" />
    <path fill="#474a1c" d="M220.8 413.6l57 36-36-31.3-8.6-6.4" />
    <path fill="#9d6147" d="M686.5 304.4l47-7.5-90.8 29 71.5-24" />
    <path fill="#374900" d="M995.7 360.7l14.5-22L1055 266l-7.6 50" />
    <path fill="#060f00" d="M986.4 730.6l-4.2-3 72.8 20-21.5 16" />
    <path fill="#3d6b00" d="M785.8 43.8L821.2 9l49 49.2-15.5-34" />
    <path fill="#ebbe9c" d="M807.8 453.5l6.7-14-22 16.2-6.8 17" />
    <path fill="#e2be95" d="M792.2 375.4l7.8-26.6-12.2 27 3-23" />
    <path fill="#9bb2e1" d="M552.5 664.4l-59.2 12.8-11.6-56 16.6 45" />
    <path fill="#696a73" d="M671.5 110.5l-29.7-14 22.5 6-3 5" />
    <path fill="#393026" d="M215.6 630.5l2.7-3.4 12.7-66-23 32" />
    <path fill="#d0a68c" d="M611.6 321.7l-27.3-6.7 8 5.7-4-.5" />
    <path fill="#3e4556" d="M560.4 739.7l-5.4-43 91.2 98-84-89" />
    <path fill="#b27155" d="M548.6 201l37.2-18 .4 1.5-26 18.2" />
    <path fill="#da9a7c" d="M680.6 334l-11.2-5.2L725 311l-72 23" />
    <path fill="#c28660" d="M608 512.7l-7 26 26.4-9H618" />
    <path fill="#738d00" d="M928.7 117.6L819.2 101l55.3-8.2 32 53.6" />
    <path fill="#46530b" d="M929.4 342.7l68.6-59.3 57 1.7-93 9" />
    <path fill="#603d29" d="M596.2 611.3l5 22.2-9.7 16-33.5-39.7" />
    <path fill="#2c2d2b" d="M782.7 363.6l-7.5 9.8 3.7-16 17-8" />
    <path fill="#f3b49b" d="M625.8 483.2l17.4 5 64.7 8-12-7" />
    <path fill="#3f0c0b" d="M688.3 481.6l-6.6-5-18-1.6 29.8 10" />
    <path fill="#362518" d="M674.2 360l19.4 30.6-5-9.6-13-34.3" />
    <path fill="#0e0c10" d="M564.3 635.3l-15-19 34.7 45 33.8 23.5" />
    <path fill="#9d573b" d="M704.5 424.3l-17.8-30-3.7.3 31.4 32.2" />
    <path fill="#faccab" d="M704.8 197.6l-61.2-1-14.8-3-12.2 26.3" />
    <path fill="#b39380" d="M747 532.2l-32.8 37.5-3.8-7 40.5-43.4" />
    <path fill="#948a72" d="M922.2 496.7l3.6 41.5 15.7-11-16-41.5" />
    <path fill="#416000" d="M201.6 62.2l-21 33.3 19.8-67.8-82-13" />
    <path fill="#eef0f6" d="M515 771.4l65.3-8-21.4 31-37-68" />
    <path fill="#9e5e43" d="M648.8 429.6l16.4-7.6 34.8 8-66-16.3" />
    <path fill="#05060e" d="M611.4 674.7l-81 19.7 75.2 10 47.8-10" />
    <path fill="#4a2a17" d="M654 177l7.7.7-10 2-73.8-3" />
    <path fill="#1e4300" d="M296.3 193.2l43.3-139.6-15 29-35 89" />
    <path fill="#7584ad" d="M571.6 728.7l-8-3-31 12.5 27.6-18.8" />
    <path fill="#282a2a" d="M398.5 482.8L360 463.6l27.8-33.8-6 28.7" />
    <path fill="#42352c" d="M621.4 203.8l-47-93.7.8 19 6-5" />
    <path fill="#d19e71" d="M766.5 464.6l6 9L791 432l-25 4" />
    <path fill="#193100" d="M419.2 189l-50.5 10.5-16.6-78.3-38 17.8" />
    <path fill="#783d21" d="M621.5 323.5l26.2 6 7.4-14.2-33-.5" />
    <path fill="#cc8f65" d="M814.3 425.4l12.7-24-15.2 4.8-.3.5" />
    <path fill="#ebebf1" d="M647.4 760.2l53-23 49 19.4-80.6-33" />
    <path fill="#eabca2" d="M714.3 451.4l7.5 8-56.3-9.4-13.5 15.6" />
    <path fill="#f1f3f7" d="M262.7 704.4l69-46.5-20.2 6 50 27" />
    <path fill="#ca7c55" d="M736.4 466l9.7 4.6 2-18.5-27-2" />
    <path fill="#796f57" d="M884.4 511.7l24.8-45.8-22 17 8 52" />
    <path fill="#1e1e1c" d="M625.6 672.3l8.8 5.3.5 1.4 46 .3" />
    <path fill="#dba283" d="M743.4 295.4l-124.2-3.2 25.3 7.3h82" />
    <path fill="#4a5e00" d="M496.5 160.6l-27.2 5.3 20-55L458 88" />
    <path fill="#3d3a52" d="M699.6 697L671 724.5l27.5-16.3-8 .7" />
    <path fill="#5e4e42" d="M562.5 375.6l-23-9 24 7 14.3 6.2" />
    <path fill="#edf1f8" d="M374 643.3l-68.8 57.4 40.6-19.4 48.2-41.5" />
    <path fill="#919bbc" d="M555.6 704.4l3.3 32.2-8 33.4 4-32.5" />
    <path fill="#2c5400" d="M757.6 28.2l49.6-3.6-3.5-55.6-5.5 80.5" />
    <path fill="#5a5341" d="M348 469l10-18.6 1-11-2.8-22.6" />
    <path fill="#152473" d="M272 679l34.4-15.6-77.2 38.3 18-10.5" />
    <path fill="#2b321a" d="M808.7 145l19 27.4-23.7-45V167" />
    <path fill="#4f4733" d="M780.6 480.3L769.2 504l21 25.4 6.2-60.5" />
    <path fill="#1a1f31" d="M568 680.4l4.4 55-1.7-58.3 3.7 77" />
    <path fill="#ebc0a7" d="M748.5 381.2l-35 7.5-15-6.5 8.8-5.6" />
    <path fill="#6d755c" d="M699.3 105l13.4-20.8h4.4l-18 28" />
    <path fill="#040403" d="M267.7 681.5l11.8-18.2-239.5 82L248.4 691" />
    <path fill="#536200" d="M921.6 95.8l19.4 20.8-31 33.3 28.3-6" />
    <path fill="#2b2a1b" d="M871 509.4l-1.3-34.6 6.6-5-55-32" />
    <path fill="#e9ba97" d="M770.4 406.7L750 398l-56.2-9 51.2 20" />
    <path fill="#293f00" d="M376 164.5l-45.6-17 30.8 51.7 26.7-41" />
    <path fill="#1f4200" d="M479.5 20.2l14 11.5L480 46.4l-60 18.2" />
    <path fill="#344600" d="M890 40l33 50.5-24-15.7-20-39" />
    <path fill="#423831" d="M616 384l1.4-3.8-51.6-1.7-8.4-5.2" />
    <path fill="#ddae85" d="M791.3 352.3l3.5-4 3.5-20.4-10 23" />
    <path fill="#dfc099" d="M789.4 359.3l1.6 20-8-10 33-13.6" />
    <path fill="#a2957d" d="M910.8 498.3l-2 37.5 20-21.5-7-12.7" />
    <path fill="#b96946" d="M657.8 332l30-15.5-37.7 9.3 6 7" />
    <path fill="#576910" d="M959.5 328.3l6.6-24 24-12.5 7 .5" />
    <path fill="#41392b" d="M789.6 522.7l-35.3 31.7 7-42 26.3 57.7" />
    <path fill="#d3d9e5" d="M759 671l-12.7 9.3-10.7 15.8 2 7" />
    <path fill="#232110" d="M128.8 513l-47.6-12.2 6.3 84.6L93 532" />
    <path fill="#4e514e" d="M440 475l2-20.4-45.4 11 8.2-21.2" />
    <path fill="#375400" d="M374.4-23L393 28.6l69.8-8.2-21 28.5" />
    <path fill="#b68c71" d="M538 498l13.2 32.7-25.8-26-6-20.8" />
    <path fill="#283036" d="M789 349l-39-13.3 24.7 3.8 12 8.3" />
    <path fill="#b3714f" d="M757.6 436.6l20-28.4-16.4 22.6-11.4-19" />
    <path fill="#2e2c1a" d="M357.5 509l-.5-57-22.2 66-60.2-.2" />
    <path fill="#c59470" d="M801.5 445.4l17-5-61 10.2 34.5-5" />
    <path fill="#627094" d="M511.3 688l-17.5 36.4-2.3-28.7 26.8-4.3" />
    <path fill="#603018" d="M595.2 621.3l52.8-33-66.4 10.7 30.6 54.3" />
    <path fill="#e4b696" d="M716.3 325l20.8 6.5h23l-1 .7" />
    <path fill="#8b5148" d="M490 384.6l-3 8.3 13.7 13-2.3-11" />
    <path fill="#5f8500" d="M148.4 223.7l6.3 20-43 14.4 23 5" />
    <path fill="#272d02" d="M257.4 440l17 2.6 38.6-73-13 35.8" />
    <path fill="#0e276f" d="M259.8 682.3l48.7-17.2-3.3-1 55.2-19" />
    <path fill="#243c00" d="M937.5 100.2L952 72.8l66 62 14.4-16" />
    <path fill="#473527" d="M811.3 272l-6.2-20 5 39.4-7 11" />
    <path fill="#8b6a5a" d="M550 294l-4.2 8.8-3 20 19-22.6" />
    <path fill="#8285be" d="M663.8 727l47-13.8 5 9.8-24.3-2.3" />
    <path fill="#6a78a8" d="M525.6 723.2l-33.8-27-4 40-1-18.5" />
    <path fill="#0f0e0c" d="M670.7 340.3l-23 11v-11L674 346" />
    <path fill="#6c851a" d="M988.8 303.2l14.2 34 12-18.3-17.5-10" />
    <path fill="#623f2a" d="M533.7 241.5l-15 52 27.4-64.8-40 96.3" />
    <path fill="#322812" d="M205 512.4l-17.2-40.6 32.6 39 8.8-3.8" />
    <path fill="#fccaae" d="M683.7 417.3l-16.3-14 1-29.6L698 419" />
    <path fill="#567400" d="M963.4 35.4l30.8 35.8-1.5 2-59-25.7" />
    <path fill="#965c40" d="M604.5 473l.6-33.2 4 16.5 10 13.8" />
    <path fill="#f1f3f6" d="M508.7 725l28.3 16.7 37.2 20-59.5 37.3" />
    <path fill="#ddbda5" d="M740.4 331l12 4.3-40.4-7.8 31.7 2" />
    <path fill="#8ba9da" d="M469.8 616.5l-19.3 24-31.2-14-15.3 9" />
    <path fill="#193a00" d="M847 256.4l25.3 25.5-1.3 20-12 6" />
    <path fill="#6d8d00" d="M938.5 33.4l7.3-36.6 58 46.7-57-13.6" />
    <path fill="#4c7000" d="M309.5 101l-42.3-14.3 27.7-7.3-6 59.4" />
    <path fill="#0e1639" d="M864.8 673.4L835.4 654l14.7 15.6 38 13" />
    <path fill="#dfa582" d="M546.3 211.7l.5 42 40.6 10.4-45.7-64" />
    <path fill="#0f3200" d="M425.6 374.7l48.5-5.5 5-19.7-38-18.5" />
    <path fill="#74767e" d="M689.8 94.3l6.4-2 3-1 .4 20.7" />
    <path fill="#062700" d="M5.8 332.5l.4-62.5L100 400.3 60.2 249.7" />
    <path fill="#191a20" d="M508.8 320.8l-12-5 15.6-9.7-1.3-5" />
    <path fill="#031200" d="M133 334.2L107.2 287l61.2 10.5-2.2 26.8" />
    <path fill="#477401" d="M848.2 188.8l-2.3-24.5-5 54 32-36.6" />
    <path fill="#627b00" d="M1017 36.7L970.6 1.2l63 118.8-53-76.7" />
    <path fill="#492913" d="M620.7 307.6l-9.3 4L645 310l-17-9.7" />
    <path fill="#0a2600" d="M512.8 55l-18-10.8-16 7 11.2 22" />
    <path fill="#eaeff6" d="M223 734l2.6 55 20-7-45.2-57.7" />
    <path fill="#8d5441" d="M618.2 511.8l-18.7-32.2 23.7 9.4-26.8 18.2" />
    <path fill="#2e4004" d="M566.8 111.6l.4 2.8-5.4-37.8-13.5 22.8" />
    <path fill="#a1b6da" d="M435.2 627.8l-1.7 26.7-3.2-16-8-12.5" />
    <path fill="#867d46" d="M281 451l41.3-59-33.4 37.8-1 26.4" />
    <path fill="#ebf2f4" d="M984.2 737l27.6 17.2 43.2 34.5v5.7" />
    <path fill="#afc5e3" d="M485.4 588l13.3-26.7 11.7-24-22.7 75.7" />
    <path fill="#040405" d="M434 583l-59.2 48.5 19.3 4 51-28.7" />
    <path fill="#606163" d="M588.8 104.4l-20.5-5.7 25.2 13-4.2-8" />
    <path fill="#6c8fe1" d="M905.3 696.7l-12.3-5-21-10.3-34.5-19" />
    <path fill="#1f1d13" d="M17 489.4L12.3 585-31 700.3l9-174" />
    <path fill="#1c4400" d="M299 211l78-18.2-34.4 31.4-48-51.3" />
    <path fill="#f1f2f8" d="M294.5 678.3l-10 20.8-74 43 22.7-30" />
    <path fill="#5f331c" d="M604 478l-18.4 5.4-1.3 9 16-3.5" />
    <path fill="#8b9ece" d="M391.7 647.8l46.2-29.2-43 31.8 18 49" />
    <path fill="#618100" d="M785 117.5l29.7-31.3 9 15.2L790 128" />
    <path fill="#9c6542" d="M564 483.8l10.4 44.5-2.8-55.6 18 1.6" />
    <path fill="#e4e3eb" d="M668.4 744l-15.6 21 4.3 17v-46.2" />
    <path fill="#f0f1f6" d="M958.5 729.6L863 744.8l32-53.5L752 638" />
    <path fill="#423a2d" d="M484.4 210l-9 4-2.8-10 82 44" />
    <path fill="#5a657f" d="M534.6 718.8L516 687.6l11 38 3.4-25.5" />
    <path fill="#564d39" d="M220.6 607.2L251 569l-37 33.7 17 35" />
    <path fill="#1b171b" d="M656 665l-104.2 25.3-.4 40.8 3-41" />
    <path fill="#230b01" d="M690.5 439.8l-4.4-1.5-14-12-11 11.3" />
    <path fill="#35390a" d="M959.4 222l-46.3 7 50 3.4 25-10" />
    <path fill="#8f624b" d="M603 315.3l-36-8.5 18-2.2-18.2 12.6" />
    <path fill="#7186b5" d="M476.4 710L462 632l2.8 26.7 6.8 18" />
    <path fill="#323719" d="M768.6 134.3L766.2 94l3.6 54-6.7 3.6" />
    <path fill="#1f1d14" d="M98.2 633.5l12.2-3L67.8 598l-1.3-30.7" />
    <path fill="#87614b" d="M647.7 551.6l-28 1.5 77.3 6-57.8 24" />
    <path fill="#17161a" d="M533 162.2l-9 4.8-1.5-17-1-10.5" />
    <path fill="#dda47e" d="M641 382.8l-86.6 2.6 50 1.5-42.4 6" />
    <path fill="#e7a786" d="M656.7 411.8l-1.7-6.2-25.2 12.6 4.4-16.4" />
    <path fill="#749000" d="M805.3 54l34.6.8-8 30.2 3 21.8" />
    <path fill="#335400" d="M933.5 99l1.3-31 4-10.8 5.6 48" />
    <path fill="#446b00" d="M195 118.8l72 29.8-50.3-35L138 168" />
    <path fill="#182038" d="M551.4 705l-20.7-7.5 33.4 17.2 36 19.4" />
    <path fill="#f3f3f6" d="M709.4 791.7l-43-64.3L699 723l-58 51.3" />
    <path fill="#d79d72" d="M802.3 349.8l-10-10 16.2 5-12.4-74" />
    <path fill="#030002" d="M1003 241.8l47.3 3.8-4.7-55.4-31 10.2" />
    <path fill="#0e0e0d" d="M697 668.2l35 3.4-29 2.4-51.7 44.4" />
    <path fill="#97492d" d="M672.5 368.4l-20-8.7L665 361l17.8 6" />
    <path fill="#242219" d="M266 548.8l66.7 5 50.3 71-38.6-46.8" />
    <path fill="#151510" d="M948.4 685.7l15.5-9.5 6-77.4-3-59.8" />
    <path fill="#f6c6a6" d="M636.4 367.8L640 348l-5.3 6.3-19.2 13" />
    <path fill="#557900" d="M904.8 21l17 19 9.2-6.2 6.5-27" />
    <path fill="#5c6273" d="M967.6 733l-15.4-11.5 24 13.8 78.8 23.2" />
    <path fill="#dea97c" d="M761.5 387l-11-25.6-20.6 5.3 18 5" />
    <path fill="#050506" d="M680.2 684.3l-39-5.8 97 8-61.7 23" />
    <path fill="#091f01" d="M483.4 292.8l-10.2-82.6 30.5 5.7-75.6 15" />
    <path fill="#617700" d="M501.6 9.4l-81.3-31 155-9.4-53 38.3" />
    <path fill="#de9561" d="M674.3 365.7l.7 1.5-9.3-21.2 13.6 36.7" />
    <path fill="#191d28" d="M188.8 738.4l28.2-19-81 50.5 44.6-28" />
    <path fill="#a56355" d="M671 505.2l-47 7.2 45.4 1-26.8-2.6" />
    <path fill="#2a2b13" d="M854 352.6L842.5 365l44-.3h-85.7" />
    <path fill="#040503" d="M834.3 213l-57-27.6 49-30-94.8 3" />
    <path fill="#0a2c00" d="M281.7 43.8l-39 37-9 31L230 49" />
    <path fill="#416400" d="M463.5 130.6l21.3-30.2-89.7 54.2 33-11.6" />
    <path fill="#0a0d17" d="M621.6 732.4l-29.2 1.4-35-37 39.3 31" />
    <path fill="#c48053" d="M835 370l-1-1-6.3 23.6 1-22.3" />
    <path fill="#a66b51" d="M611 289l18.4 9.7 13 7 5.8-1.6" />
    <path fill="#0c1700" d="M129 446.5L96.4 495 63 478l46-39.6" />
    <path fill="#050706" d="M817 252l15 43.7-8.6-.8 21-49" />
    <path fill="#3a4515" d="M854 316l-5.7-10.5h2l-16.3 51" />
    <path fill="#496400" d="M73.3 235.2l4 8.4-2 11.8 28.2 8" />
    <path fill="#956c4a" d="M703.4 196l3-17.3-102 10 99.5-9.5" />
    <path fill="#3f5700" d="M989 109.3l13-40-26 9.7 58.2 34.8" />
    <path fill="#a1aad0" d="M488.2 729.8l-4.8.6-1.8-24.6 7 42.2" />
    <path fill="#586256" d="M641.4 80.7l.4 16 3.8 7-2.3-16" />
    <path fill="#e0e5e8" d="M914.5 695.8l-4.2-6.7 26.3 24-11.3-8" />
    <path fill="#191a00" d="M996.4 150.3L979 168.5l76 14v-12" />
    <path fill="#b4714e" d="M691.6 330.6l56.8-9.3-55.2 11.6 21.2-9" />
    <path fill="#052c00" d="M325.7 237.6l59.5-17.3-76.4-6.2-20 56" />
    <path fill="#375800" d="M171.3 233l-4.6-3.6-13 27 41.4-26" />
    <path fill="#214004" d="M682 90l-34.8-30.4-1.7 24.7 30-8" />
    <path fill="#4b6700" d="M105.7-31l2.3 94.4 42.6-11L136.8 39" />
    <path fill="#3e3928" d="M90.4 612l.5-23.8 29 6.6v25" />
    <path fill="#5d4937" d="M738.6 333.8l-15.4 1.2-15 2 30.8-2" />
    <path fill="#0a0906" d="M807.2 289.4l26.5 63-5.3-26.4-16.2-9" />
    <path fill="#516e00" d="M463.2 109l-75-1.5 13-13.8 21.3.7" />
    <path fill="#040404" d="M565 665.4l28 3.7-22.2 23-46.4 5" />
    <path fill="#2b3700" d="M941.5 107l18.7 19.3-18 34.2 18 58.7" />
    <path fill="#e2e0e5" d="M421.6 685.5l18 2.3-28 6.4 14.4-22.4" />
    <path fill="#8a573f" d="M707.7 572.5L693.3 584l54.2-16-7 12.2" />
    <path fill="#73776e" d="M709.5 101.7l-8.8-8 39.7 4.4H736" />
    <path fill="#ad7147" d="M661.8 540.6l-23.4-1 65.3 15.8-10.3 3.7" />
    <path fill="#787037" d="M207 444l-6.3-1.7-4.7 8-.8 26.3" />
    <path fill="#8090b9" d="M704 641.3l-3.7-7.6 25-5.7-24.8 3" />
    <path fill="#e6b393" d="M594.7 378.2l17-14.3 31-13-58.8 14" />
    <path fill="#836957" d="M585.6 335.8l-1.7 7 4 6-13-58.3" />
    <path fill="#2c4200" d="M102 99.7L71.5 174l35 6.2H52" />
    <path fill="#f2f7fb" d="M367 648.4l21 19.6-1 131 2.8-160.3" />
    <path fill="#275200" d="M313.3 64.8l5.4 4L338 66l-23 36.4" />
    <path fill="#040401" d="M628.2 177l32-45.8-110.4 60 .3-26.7" />
    <path fill="#0f0e13" d="M581.5 106.2l7.3 15-16-3.6L560 137" />
    <path fill="#c19987" d="M654.8 333.7l12 3 19.2-5-32.7 3" />
    <path fill="#475e00" d="M19.3 181L-31 120.8V224" />
    <path fill="#3f1c09" d="M669.7 448.3l24.7-19.8-3.4 7.6-55.3-7" />
    <path fill="#5c74be" d="M575 653.4l-17.5-21.6 11 21.4L545 651" />
    <path fill="#0f0f09" d="M968.4 578.5l16-133.2-4-54.8 17 31.7" />
    <path fill="#9392b4" d="M725 729.8l27-26.6-29.2-19.2 32.5 21.3" />
    <path fill="#171815" d="M834.7 188.5l-2 3-36 8.4 2.7 8" />
    <path fill="#be6f48" d="M643.8 367.3l-27.5 33.5 28.8-29.2 6-.4" />
    <path fill="#ddaa84" d="M725.8 414.5l14.7-13.4 34.3 50-19-30" />
    <path fill="#2c2b1c" d="M510.7 469.5l10 48.3-20-35.3L453 490" />
    <path fill="#95b2e4" d="M471.8 611.7L453.4 627l26-14.5 12.4 4" />
    <path fill="#3b4040" d="M429 441l-5 25 14.2 9.7-26.3 6.5" />
    <path fill="#ecbc97" d="M552.8 373.8l40 11.4-55.6-9.8 11 14" />
    <path fill="#7880b4" d="M575.8 741.5l12 44-25-53.8 14 25" />
    <path fill="#232310" d="M924.5 347.4L858.7 331l98-37.2-31-66.4" />
    <path fill="#4c4e54" d="M593.2 729.5l19.5 19.3 34 10.8-47.8-16" />
    <path fill="#a8603b" d="M679.3 340.3l14.7 10 28.3-4-25.2-6.7" />
    <path fill="#b98d6e" d="M690 188l.3-6.6-19.4 20.3 13-15.7" />
    <path fill="#818bb5" d="M434 688.6l-5-49.3 9.6 49.3L538 711" />
    <path fill="#eac1a7" d="M607 359.5l21-6-37 23 31 2" />
    <path fill="#e0aa79" d="M715.6 533.7l-42.3 5.4 28 15 6-45" />
    <path fill="#c38f6e" d="M695 198l-13.3-7.4 6.2-2.3 5 .3" />
    <path fill="#b86d43" d="M729 465v-12.8l3.6 4.7 14 11" />
    <path fill="#344700" d="M25 170l-4-14-21-13 20 41" />
    <path fill="#090809" d="M662.8 105L634 151.8l-21-35.6 9.5 62.5" />
    <path fill="#6a624d" d="M925.3 560.8l22.2-13.2-52 10.7 13.7 5.3" />
    <path fill="#1c3800" d="M154.3-31L103-28.5 209 18l13.4-9" />
    <path fill="#a67147" d="M777 346.2l-11 17-5.2-2.4 2.7-19" />
    <path fill="#f7ceb3" d="M668 283.6l-44.6-66 60 8L629 259" />
    <path fill="#d1a27c" d="M525.5 339.2L542 365l-23.2 15.8 6.2-48.4" />
    <path fill="#b1b4cb" d="M311.5 667.4l34-7-68 21.4-6 6.3" />
    <path fill="#1d4300" d="M850.7 240.2l52-31.6 6.8 22.5-47.7-8" />
    <path fill="#7f869a" d="M940.3 713.2l-25-34.7L943 717l-37-15.8" />
    <path fill="#aabbd6" d="M511 573.7l48 91.2-50.4-72-.8-39" />
    <path fill="#0c1945" d="M898.2 688l14.3-15.2-17.3 17.4-16-7.6" />
    <path fill="#42493f" d="M703.5 102l16.5 40.5-20.4-65.8 3.7 31.4" />
    <path fill="#787691" d="M723.3 696.6l7 30 4.4-14.5-12.7 13" />
    <path fill="#bc886a" d="M531 319.8l21.2-26.2-5.6-22-9.5 55" />
    <path fill="#f0f5fc" d="M207 735.5l14.2 11 .4-3.5-10-19" />
    <path fill="#557800" d="M885 74.8l-55.4-41 18.2 6.6L880.6 57" />
    <path fill="#020201" d="M604 129l6 10 105.8 2-96.2 34" />
    <path fill="#5a6800" d="M987 24.6l45 14.6-8.6-3L1055 20" />
    <path fill="#120f0f" d="M713.2 129l-71.5 44.7 4 .4 80.3-59" />
    <path fill="#a26d4b" d="M540.5 437.5l-3.5 31.7 47.6 27.6-28.8-25.8" />
    <path fill="#424838" d="M672 102.3l39.2-27.6-36.4 28-21.5 25.7" />
    <path fill="#10110d" d="M537.7 128L495 171.3l58 23-58-11.3" />
    <path fill="#e2a981" d="M602.2 250.8l-49 48 6.6-27.4 32 4.6" />
    <path fill="#f7c6a9" d="M702.8 530.2l-57.7 2 1-8 6-9.3" />
    <path fill="#010100" d="M793.7 194.4l-22.6 2.4 25 13-8-19" />
    <path fill="#805843" d="M555 356.4l-4.8-23.2-.8 19.4 24.4-4" />
    <path fill="#3d4139" d="M844.2 303.5l-9.6-18.7 11.4 45 1.4-7.5" />
    <path fill="#f0b486" d="M794 250.2l-22-35.5-9 84.4-4.4-10" />
    <path fill="#17180f" d="M931.2 674.5l-5.5 29-.4-55.4-121.7-63" />
    <path fill="#976d57" d="M684 568l-43.6 16.4 30.3.2-16.3-26.5" />
    <path fill="#d4866a" d="M681.2 491l-84.7-.7 35 1-12.6 2" />
    <path fill="#3a5300" d="M356.2 183.4l-32 12.8-14.6-28.2 38.8 6.4" />
    <path fill="#c9cfe7" d="M233.4 799l.6-65 9.3 41-9.5 24" />
    <path fill="#c6815c" d="M694 476.6l5-3.5 15-11-27 7" />
    <path fill="#334393" d="M282.7 674.2l13-2.8-9.5-.3-28.2 17" />
    <path fill="#656a5b" d="M684.4 78.7l-9.8 16-9.4-9 16.6 15.7" />
    <path fill="#e8c7ae" d="M663 347.2l12.4 6.3-2.3 3.4-12-2" />
    <path fill="#eab488" d="M803.8 349.8l-12.6-10.5L800 327l.7-25.4" />
    <path fill="#eff6f9" d="M534.2 673l-40.4 16 1-6.7 8-5" />
    <path fill="#edeff2" d="M722.3 657.4l31.8-50.8 5-8.4 2-34.5" />
    <path fill="#4c5434" d="M716 88l32 48.7 44-42-45.7 39.3" />
    <path fill="#f4f5f5" d="M754.7 687.2l24.4-32-62 13 35-23" />
    <path fill="#121314" d="M842.6 313.7l-9.3 5.3-.2-42.6-19 8" />
    <path fill="#8d9fcd" d="M504.5 557.3l9.5 25.2-4.8-23.5-4.2-12" />
    <path fill="#778ecd" d="M923.3 699.7l5 5.7-15-1.7 34 5.4" />
    <path fill="#100f0e" d="M797.5 613.8L957 680.4l-68 2.7-42.6-18" />
    <path fill="#444f69" d="M710.4 635l11-22-38 32.8 44-38" />
    <path fill="#e79c77" d="M691 472.2l-39-7 32.4 2.8 12.8-6" />
    <path fill="#0e0e08" d="M173.4 505l7.7 164.2L193 488l-1.8-14" />
    <path fill="#050f00" d="M289 672.3l-71.7-2.2-31.3-11 29.2-6" />
    <path fill="#e9ecf5" d="M400.2 700l11.7 24 34-20.7 10 6.8" />
    <path fill="#011b01" d="M418.5 274.8l54 31.4L383 187.7l65.4 45" />
    <path fill="#665f4b" d="M942.5 471.3l-47.7-26-5 44.5 19.3-32.5" />
    <path fill="#0c0d05" d="M348 564l20.8 15.6 14-50.3-34 24.4" />
    <path fill="#a97f5c" d="M505.6 442.4L494 405l33.4 24.2-1.7 46.7" />
    <path fill="#3c5d00" d="M289 131l20.4-9.6-14 18-56 21.3" />
    <path fill="#0d3200" d="M238 241l58-103.5-21 55-134.2 99.8" />
    <path fill="#8e5032" d="M625 389.3l12-7-31.5 35 38.6-55.8" />
    <path fill="#798cac" d="M482.7 641.7l8.6 28-107-70.5L494 671.6" />
    <path fill="#060607" d="M640.6 125l53 34.6 69-39.6-54.6 36" />
    <path fill="#0c3d00" d="M346 216l-82-21.4 15.8 26 57-2.5" />
    <path fill="#636972" d="M620.7 735l-37.8.4 16 1.8 22 6.3" />
    <path fill="#81765a" d="M232 495.2l-31.5-26.4 6.4 13 29 25" />
    <path fill="#885633" d="M580.4 593.5l-32.8-16-3-6 25.6 2.2" />
    <path fill="#f8c8a0" d="M791.2 378l-39.6 24.7 27.6-3.5 9.3-5.7" />
    <path fill="#f7f9f9" d="M767.5 643.6L756.3 691l29.6-57.4 46 31.4" />
    <path fill="#a6aace" d="M435.7 674.7l-1 38.7 7.2-28.6-6-25" />
    <path fill="#2c2b1c" d="M952.7 493.2l18 13.6-17.6-84.3 15 95.5" />
    <path fill="#465400" d="M956.8 222.5l-43.2 1.6 28.7-16-8.3-29" />
    <path fill="#628100" d="M203.8 124.8l-36.8 36 10 53-16.8-14.7" />
    <path fill="#456700" d="M843.7 161.6l-26.3-29 72 25.6-55 39" />
    <path fill="#4a4e44" d="M425 471.5l13.6-29.7 66.6 5-45.3-16" />
    <path fill="#272713" d="M100 513.5l26.8 14L155 583l-23.6-74" />
    <path fill="#2c3229" d="M409 428l-59.2 42.4 38.4-36.3 57.8 3" />
    <path fill="#282b1d" d="M812.4 367l-1-7.5 36-26.2-40 30.8" />
    <path fill="#060900" d="M-4.7 85.2l76.3 27.5-52.2 34.7 22.2-98" />
    <path fill="#485e00" d="M118.4 116.6L191 83.2l-15-8.6-53 76.7" />
    <path fill="#1d170c" d="M800.8 396.4l20.6-35.2 23-15.3-26 22" />
    <path fill="#20201f" d="M621 326l-6.8.7 63.8 15-39.3-7.2" />
    <path fill="#eeb48e" d="M551.7 418l52 23-23.6 18.6 9-20" />
    <path fill="#24170a" d="M606.8 298.4l15.8 5 10.4 1-23.5 7.4" />
    <path fill="#0f2b00" d="M136 279.8l-46.5 6-28.7 42L63 265" />
    <path fill="#ecf1f5" d="M967 722.6l67.2 52.3-71.6-51-4-3" />
    <path fill="#1b1d21" d="M645.4 720l18-26 .5-11 10 8.5" />
    <path fill="#476100" d="M33.6-24.2L-31 46.5-9.4 6.2 5.2-14.4" />
    <path fill="#558300" d="M771 81.2l48-38.4-24 34.6L718.3 60" />
    <path fill="#354514" d="M807.6 143.8l31.2-25L787 163l12-12.7" />
    <path fill="#44424a" d="M674.3 95L640 96.5l23.6 4L665 91" />
    <path fill="#060606" d="M663.3 685.5l24.3-24.6 22.4 38 24.3-22" />
    <path fill="#5b6357" d="M704.3 125l16.5-30.6-5.5-6.2-3 12.8" />
    <path fill="#4e3122" d="M606.5 645l-31-16.2 11 24 48 3.6" />
    <path fill="#3f3e35" d="M463.3 602.8l10.8 9 8-17 32-93.8" />
    <path fill="#7b9500" d="M230.7 157.4l-20 40.3-32.7 4v-29.4" />
    <path fill="#4e4e4f" d="M792.7 135l5-7.8-.8 15-9 6.7" />
    <path fill="#415500" d="M597.3-31l-.5 71.7-26-20.5L638.3-20" />
    <path fill="#29292f" d="M594.5 113.4l31.4-15-31 6.2-9-22.3" />
    <path fill="#658100" d="M184 197.7l23.7 14.8L247 146l-60.6 82.6" />
    <path fill="#abbed8" d="M538.7 613.2l-3.4 25.8-26.4-62.8 53 82" />
    <path fill="#262121" d="M772.4 386l13-45.2L776 388l-14 3" />
    <path fill="#587900" d="M725.4 59.4L748.2 42l10.8 4.4-35.7-38.6" />
    <path fill="#06060c" d="M548.4 687.6L640 675l-10 13.6-53 27" />
    <path fill="#526704" d="M953.4 338l56.2-.8-25.2 13.6-30-11.6" />
    <path fill="#213c04" d="M1023.6 262.3L1055 279l-47-2 5.7-7.2" />
    <path fill="#0d0f0d" d="M10.2 708.6l44 55.7-23 34.7-62.2-55.6" />
    <path fill="#595c57" d="M742.3 97l-46.8 15.2 4.6 2.8-28 7" />
    <path fill="#e2a47a" d="M731.4 339.3l20.4 10.7-3.6-13.4 9 4.6" />
    <path fill="#5e301a" d="M640.6 177.8l-54.2-1-8.6 3 19.6 3" />
    <path fill="#91a7d7" d="M491.3 589l-3.7-8.7 34.4 94.5-27.2-68" />
    <path fill="#b08068" d="M778.7 342.3l-50-18.7 57 19-7.2-27.4" />
    <path fill="#153b00" d="M421.3 158.3l20.8-4 19 42.7-13-53.2" />
    <path fill="#504f51" d="M607 107.3l2.2 24.4 5-31.6 16.8 28" />
    <path fill="#f5bf92" d="M765.3 401.8l34.2-34L783 369l-3.4 22.6" />
    <path fill="#3c3f10" d="M953 334.6L938.4 318l-12 26.6 19.4 21" />
    <path fill="#1d3e8f" d="M1007 746.8l-3.5-3-10.3-1.2-3.7-6.3" />
    <path fill="#384d00" d="M625.3 76.7l59-63.6L663-4l5.7 21" />
    <path fill="#cfa07e" d="M674.2 202.7l-16-26.6 23.8 24-1.3-4" />
    <path fill="#d9a484" d="M612.6 322.6l-30.8-7.2 9.6 1.8 25.4 3.5" />
    <path fill="#504e53" d="M633.8 790.3l7.7-28 7 36.7-4-47.8" />
    <path fill="#945934" d="M715.2 491l2.3-4.7 16.3 29.6v-10" />
    <path fill="#222e1d" d="M472.7 407.6L444 443.4l10.6-34.4 4.6-5" />
    <path fill="#e7a97b" d="M777.2 218l6.8 26.7-26.3-45.2-5.4-1.5" />
    <path fill="#1a2500" d="M995.2 361.8l26 18.5-52.8-27-.8 45" />
    <path fill="#9896a7" d="M736.3 726l-1.8-29.8 3-9.6.7 29.6" />
    <path fill="#5f6b8e" d="M513 727l-2.5-12.5 10.6-18.7 2-3.2" />
    <path fill="#011b00" d="M477 330l1.8-30.7-98.3 75.8 91.5-52" />
    <path fill="#efc19f" d="M575.8 380.6l3 .7-34.6-10.2 1 10" />
    <path fill="#262627" d="M723 148.2l12 .8-23-9-20.7-28.2" />
    <path fill="#f2ba96" d="M615.6 246L585 291.7l35.3-10.4 12-46.4" />
    <path fill="#381f11" d="M627.2 683.2l9-42.3 36-7-18.8-10" />
    <path fill="#f3bd9f" d="M636.4 393.5L612.6 411l17.3 2 22-38" />
    <path fill="#8f5d45" d="M744.5 310l6 10.4-54.3 1.8 46.6 1.7" />
    <path fill="#ad7151" d="M623 471l2.5-17.4-8.3 5.6-14.7-.3" />
    <path fill="#8d5635" d="M793.3 431.5L776.8 416l4-5.6-12.3-3.3" />
    <path fill="#505356" d="M622.7 732.7l22.4-28-22 16.5v7.2" />
    <path fill="#496500" d="M463.5 16.3l-6-47.3-22 67.8-5.2-12.7" />
    <path fill="#d4dff1" d="M754.7 603.2l10.4-14.4 10 40-15-47.8" />
    <path fill="#8998c0" d="M453.3 661.5L453 710l9-32.5-11-43" />
    <path fill="#e1e4f1" d="M282.5 685l-.5 41.8 3.6 34-5.8 15" />
    <path fill="#433d2e" d="M289.8 625.7L269 571.5l25.2 42.5.3 31.5" />
    <path fill="#ce9e77" d="M797 384.3l18-21.3-74.7 70.7 64-60.5" />
    <path fill="#103100" d="M-31 271.4L27.2 182 .2 284l3.5 63" />
    <path fill="#202115" d="M285.4 598l62.5 52 25-24.8-48 16" />
    <path fill="#f6cbc2" d="M651 484.3l21 4.5 5.4-7.8-27.3.5" />
    <path fill="#751b00" d="M826.2 380.5l-4 3L819 394l1 4.7" />
    <path fill="#4a6200" d="M55 42.3L132.7-31 53.2 66l25.3 20.7" />
    <path fill="#062300" d="M32.2 429.6l79.2 16.2-.5-100.3-99 .3" />
    <path fill="#deb199" d="M712.3 385L689 372.7l5.6 11.2h-2.4" />
    <path fill="#ba7e54" d="M591 540l6.2-25.8 24.2 15-23-.4" />
    <path fill="#23293b" d="M585 727l-51-36.5 6.2 34.7-3.3-32" />
    <path fill="#061304" d="M144.2 664.5l12-8 15.2-25.8-64.5 25.5" />
    <path fill="#454935" d="M745.2 132.5L734.7 143l9-4.2L760.4 98" />
    <path fill="#efbb9a" d="M555.5 411.3l1 6-9 4.4 55 18.8" />
    <path fill="#493f37" d="M796 273l24.6 4.8-10.7 6-3-9" />
    <path fill="#f5bb94" d="M764.8 197.8l-.7 49.5-39 3.8 36-30" />
    <path fill="#040504" d="M817 269.6l29 7-38-48.5 26.2-17" />
    <path fill="#7a9a03" d="M739.5 98l24-9.7 17.2 30.8-35.5-30" />
    <path fill="#403a26" d="M339.4 512.8L289.8 502l-27 25.3-12.4-18" />
    <path fill="#5c5c5d" d="M604.2 115l8.6 4-5.5-34 2.7 16.7" />
    <path fill="#3d5100" d="M111 94.3l.8 31.2L94 181.2l-15.3-21.5" />
    <path fill="#191a1d" d="M743.8 162.2l-11.6-29.5 13 10.8-22-42.8" />
    <path fill="#556b00" d="M108.4 155.2l15.4-35.7-23-53.3 22 86.7" />
    <path fill="#cfa483" d="M564.5 323.8l29 8.2-14.8-9 46.8 8" />
    <path fill="#2e150e" d="M599.4 468.3l15 13.5 18-7.5-37 1.7" />
    <path fill="#556792" d="M751.3 563.4l4.2-7.8.5 13 7.8-4.8" />
    <path fill="#bf7a53" d="M752 205.3l-6-3.5.3-9.5L759 203" />
    <path fill="#3a2c23" d="M814.8 251.5L803.4 351l9.6-101 18 50.5" />
    <path fill="#042700" d="M417.7 179.5l60.5 19.7-27.4 21.4-8-61.8" />
    <path fill="#0c1e00" d="M480 375.6l-52.8 16 48.8-2 4.8 1.5" />
    <path fill="#f3f7f8" d="M764.7 602.7l-39.5 46.8 4.6 9.3L765 583" />
    <path fill="#ebecf4" d="M267.2 799h-25l2-87 39 53.4" />
    <path fill="#d7dbe9" d="M435.6 719l-6-35.2 9 73.5-4-60.7" />
    <path fill="#6d624d" d="M284.2 482.6l33.6 13.2 27.8-2.7-32.5 8" />
    <path fill="#a3bae3" d="M522.6 671.7l35.3-7.4-6-13-35 4" />
    <path fill="#898e27" d="M1055 137.3l-49.2-89 46.6-.8 2.6-7" />
    <path fill="#b17e4f" d="M771 502.3L750.2 481l-5.3 17.5-9-4.2" />
    <path fill="#212534" d="M1000 799h51.6l-56-47.4 25.4 17.7" />
    <path fill="#456f00" d="M230.3 134l80-5-70 7.4L275.8 80" />
    <path fill="#787042" d="M318.2 397.7l14.8-4.5 18.8 13.4-15.2 1" />
    <path fill="#464033" d="M773.2 513l16.8 1.5-28.6 53-5-16.8" />
    <path fill="#618200" d="M79.5 240.8l11 6.3 6.8-29-6.7-1" />
    <path fill="#6a7398" d="M477.2 694l55.2-3.7-61.7 3 4 23" />
    <path fill="#1b3600" d="M29.8 171.6l17.8 22.8 34.6 13.8-39.7-60.5" />
    <path fill="#958d6a" d="M208.4 473.7l-6.5-26 9-11.3-2 44.2" />
    <path fill="#eeb092" d="M656.7 420l-11-30.3 16 33.2-26.7-32" />
    <path fill="#4a0e11" d="M653 475.4l5.2 4.3-17.3-2.5-19-1.2" />
    <path fill="#6e697a" d="M716.5 726.3l1.8-27.8-21.7 7.6 30-9" />
    <path fill="#fbd3b3" d="M752.4 397h38.3l-51.4-3.4 41.2 7.8" />
    <path fill="#f2f3e1" d="M798.4 357.6l-6.4-11 15.7 9.4-1.6-4.2" />
    <path fill="#020f02" d="M355.8 268l60.4 162.6-46.8-23-40.6-134.3" />
    <path fill="#1c4500" d="M268 12l28-2-22-41-79.4 97.6" />
    <path fill="#1d1f1f" d="M634.2 330l-30-6.6 62 16.4.6 4.3" />
    <path fill="#fac8a9" d="M581.6 417.6l-17-.6 34 25.5 10-19.6" />
    <path fill="#2d2d3b" d="M676.2 704.5l-13.4 15-25.2 46.4 12.7-27" />
    <path fill="#b69178" d="M490.5 410.6l.4 18 3-26h-9" />
    <path fill="#7981b5" d="M457.3 702l3.7-31-.3 39-6-27.2" />
    <path fill="#ebeff5" d="M216.4 759.3L210 799l-2.6-50.5L245 799" />
    <path fill="#476900" d="M136.5 197.8l-57.7 21.7 25.5-20.7 57-19" />
    <path fill="#ae724f" d="M478 372.2l9 12-2-1 6.2-22" />
    <path fill="#5d8303" d="M728.6 96.2l-19.8-8.7 74.6-25.7L728.2 90" />
    <path fill="#8895b3" d="M495.8 525.2l36 98.5-16-38-.3-5.2" />
    <path fill="#ebedf6" d="M409 698l-4.7 9.4L364 686l35-23.4" />
    <path fill="#05174b" d="M1035.4 767.7l-64.8-46 84.4 55.5-48.4-31.2" />
    <path fill="#a1583a" d="M733.2 377.3l-20.7-15.5 13.8 3-5.8 3.3" />
    <path fill="#916442" d="M744.2 574.6l-9.5-13.8 1.2.2 25-45.2" />
    <path fill="#60729f" d="M470 652.7l.7-22.6-3 15-6.2-44" />
    <path fill="#385900" d="M127.7 274.6l-12.4-13.4-33.2 3.4 74 2.4" />
    <path fill="#25211b" d="M578.3 143.5l-28.7-6 25.8 10.7L510 273" />
    <path fill="#020202" d="M590.5 134l-45 56.2 28-78.2-45.6 54" />
    <path fill="#2f2d22" d="M521 513.5l-38-31-58.2-4.5 97.8 19.5" />
  </g>
</svg>