<svg version="1.1" viewBox="0 0 1024 768" width="1024" height="768" xmlns="http://www.w3.org/2000/svg">
  <g fill-opacity=".5">
    <path fill="#a55bcd" d="M211.4 161.8l-11.4 20 12.3-7.3 23.5-10.3" />
    <path fill="#5e5e5e" d="M423 692l13.3 22 7.8-21-20 22" />
    <path fill="#f3fffe" d="M226 653.7l-24 5.7 49-32.6 3.3 15.6" />
    <path fill="#fff" d="M67.8 517.5L89.3 540l13.4 20 .3-40" />
    <path fill="#309493" d="M124.8 691.7l-1 47-2-39-25.6-10" />
    <path fill="#fff" d="M537.2 280l7.6-28-85 8.8 40.2-97.4M128 525.7l69.2-77.6-29-13h-80" />
    <path fill="#9d666e" d="M258.6 633.5l.5 33-29-38.2 10 25" />
    <path fill="#81ba00" d="M407 514l-18 11 4 5-9.3-16.8" />
    <path fill="#fffffb" d="M703 129l11.8 77.5 25.6-28 10.4 113" />
    <path fill="#fff" d="M292 408l-35-22.7 40.5-1-1.6 80.3m202-199.4L495 388l-8.6-120.3 64-51m-249-42.4l-59-58 24.2-29.5 1 8.8" />
    <path d="M265.2 355.3l10.2-16.3-14-23.3.4 7.5" />
    <path fill="#a255cc" d="M636.8 173.3l1.5 34.7-24.7-35.3 4.5 36" />
    <path fill="#fff" d="M-8.6 270.7l126-21L71 193l-3 11M275 88.6l14.4 31 26.7-68 140 35" />
    <path d="M382.4 389.6H376l-7 1.3-22.3 44" />
    <path fill="#131212" d="M486.8 633.6l-10-6.4-6 22.8.3-22" />
    <path d="M184.7 128.4l12 10-.2-18.4-.5-20.2" />
    <path fill="#fff" d="M573.3 62.3l-3.7 172.2-17.2-80.2.3-112.4" />
    <path fill="#ebe4ab" d="M766.3 272.4l53.6-.3 51-15-24-15" />
    <path fill="#fff" d="M504.8 106l4.8 22-14-2.8-2-10.3" />
    <path d="M339 330.2l-9-3.8 1 7.3 2.3 30.8m196.4 72.7l-4.3-31 8.4-.7 2.7 13.5" />
    <path fill="#fff" d="M459.7 158.6l230.7 14 6 36.8L722 123" />
    <path d="M353.8 355.8l-7.6-4 .7-18.2 9-5M413 429l-23.7 1.4 8 10 15.6-34.2m357 282.2l4-15v22.3l-2 1.3M93 118.3l27.7 16.4-20.5-4.3 7.5-30.8" />
    <path fill="#3f433d" d="M547 262.6l-3.3 22-3.2-6.6 4.6-23.7" />
    <path d="M978.5 683.7l-13.6 5 6-12 7 16.8" />
    <path fill="#d8d8da" d="M157.8 736l-9-49.6-23 5-1.2 47" />
    <path fill="#fff" d="M178 129l-3-41 9.4-43 4.3 79.7m183.8 382l47-71-65 .6L371 410m280.6 131l5.4 59.3-90 3.6 255.3-31" />
    <path fill="#ff2f1c" d="M602 714.7l9.7 17.6-.6-22.8-13 6.7" />
    <path fill="#151513" d="M851.4 702l7-20.8-8 .5 1.7 1.3" />
    <path fill="#060606" d="M51.7 410.8l14-20.4-2.2 41.7 27 8" />
    <path fill="#fff" d="M439.8 429l-11-3 .8-17 9.6 1.4" />
    <path d="M455.6 88l2 47.3-6.7-.8-5-29m-17 247.7l10-.8-12 8.3-18-5.7m-176 6.6l10-35.2-10-14.3-.6 14" />
    <path fill="#fff" d="M165.5 324.3l31.4-25.8-37 12.7V362" />
    <path d="M192 405.4l1.5 34-9.4-8.6 1-14.5" />
    <path fill="#fff" d="M132 349.2l2.4 4-16-114.6 6 113m276.4-190.4L376 124.5l1-102L367 185" />
    <path d="M242.3 134.5V82l-9.2 49 22-3.2" />
    <path fill="#fff" d="M354.6 139l1.6-131 7.4 139.6-70.8-17.8M261 350l1-13.8-14.3-8.8-5.6 24.3M610 726l41 12.2-18 45.3-13-100.2" />
    <path d="M317 102.6l-2.8 5.2 27 5-8.4-10.6m217.4 316l1.3-19.6-9.2 13.3 4.3 9M375 122l12-21 18.3 15.6 1.2-25.8" />
    <path fill="#fff" d="M341.6 396l-1.8-110.7 7.3 63 19 35" />
    <path d="M442.4 400l8.7 17.4-17-10-16 2.4" />
    <path fill="#fff" d="M884.5 369l-15 15.7-4 97 99.3-9.8m-398.4-29L449 467l182.3 86L620 370.4" />
    <path d="M559 407.8l17-6.8-14.5 19.7-2.4-23" />
    <path fill="#a156cb" d="M551 205l7.3-.5 1.2-36.2-11-1.3" />
    <path fill="#a9dfc4" d="M988 497.7l-53.5 2.6 57-20.6-8.2 39.8" />
    <path d="M502.8 101.2l-6.2 2 20.4 14.4-1-9" />
    <path fill="#fff" d="M986.2 700.3L851 701.6l64.6 13.2 78.6 2.2" />
    <path fill="#101813" d="M710 715.7l16 5.3-9-6.3-6.2 8.3" />
    <path fill="#f7faeb" d="M64 522.7L90.4 548l-18-9.2-24-47.2" />
    <path fill="#fff" d="M220.4 398.3l-5.6 51-5-49.7 44.8 2M416 326.8l-43 .5-79.2-11.5 249 11.2" />
    <path fill="#89bf00" d="M133.4 570l-1-23 4.4-29.4-15.4 22.2" />
    <path fill="#fff" d="M840.4 717l-9.5-59.4 2 30.8-17 93.2" />
    <path fill="#89be00" d="M81.4 564l12.4-7.2-33.7 3.7 14 6.2" />
    <path fill="#181817" d="M823.7 695l1 8-5-24.8 5-7.4" />
    <path fill="#40514f" d="M426.5 645l21.7-1.4-14.6 7.3-18.8-9" />
    <path fill="#fff" d="M522.6 140.3l.6-26.6-42.6 71.3-81.3-48.8" />
    <path fill="#51524e" d="M964.4 698l-41.6 3 50-.5 6-12" />
    <path fill="#bdbec1" d="M330.6 694.3l15.2 1-9.4 24.2-76.6-24.4" />
    <path fill="#fff" d="M434.2 205.6l33 121.7-14 21 11.4 31.7" />
    <path fill="#9cdecb" d="M953.2 582l-81.6 1.2 82 12.5-51.2 18.7" />
    <path fill="#fff" d="M420.3 427.2l-11.8-156 5.7 185 2.3 128.3M345.7 134l-2.3-36.8-40.5 11.2L326 57" />
    <path d="M471.6 362.4l18.2-9.4-30 .3 2.5-23.4M208.5 136l-1.4-3.8 20-8.2-3 9.2" />
    <path fill="#fff" d="M200.7 328.8l1 68 85-35-52.3 25M76 325l41-25.4L75.7 202l48.2 37.6" />
    <path d="M323.5 363l-13.8-34.4 14-.4-2.3 23" />
    <path fill="#53615f" d="M414.6 654l-.4-27.3-24.4 23.3 1.8-22.5" />
    <path fill="#9540c4" d="M283.8 210.5l-9-31.2L270 192l2.3 10" />
    <path fill="#fff" d="M318 332.3l-8.6-59.2 83 58-3-54M274 399l-37.2 3.3-9.8 45.4 2-55.8" />
    <path d="M283.5 361.2l6.2-3-9.4-29-1.6 26.7" />
    <path fill="#fff" d="M565 436.5l-8.8-5.3-10.6 5.7 14.4 2M225 151l-47 35 53.3-65.5L247.8 290" />
    <path fill="#88d1a6" d="M785.3 570.2l12-8L777 564l7.6-84.2" />
    <path d="M64.4 312.4l1 51-10.2-44.2 34.3 37.4" />
    <path fill="#4a4c4a" d="M71 287.3l6-29.8-20 8.3L70.6 255" />
    <path fill="#585958" d="M457.5 267l17-10-1.2 32.6-4.7-34.4" />
    <path d="M480 128.8l-7 5-2.2-14 8.3-19.6" />
    <path fill="#fff" d="M362 583l6.7 72 9.5-76.5 9.2 27.8" />
    <path fill="#9a48c6" d="M537.5 185.8l5.4 11-29-13.4-4-11" />
    <path fill="#020202" d="M68.8 138.2l-15.3-9.6 28-20.3-19.2 4" />
    <path fill="#030303" d="M488.4 393.7l9.6-9.6.4 7-2 10" />
    <path fill="#fff" d="M230.6 648l4-20.3-17.3-219.3-25.5 136.2" />
    <path d="M410.2 334.2l-1.4 25.3-7.8-1.2.4-30" />
    <path fill="#fff" d="M208 52.7L72.4 35 94 119.4l3.5-13" />
    <path d="M368 345.8l-.4-5.2 41-9.4-10.5-7" />
    <path fill="#fff" d="M87.2 434L99 422.7l-58.4 156-47-135.4" />
    <path d="M102.2 311.8l-25.2 38-18.7-41.5 29 42" />
    <path fill="#fff" d="M689.3 625.6l92.2 55.7 39.4.7-68-238.6m-478 179L250 489l60 155.2 10.4-8M363 331.8l6 6.7-16 2 28-24.5" />
    <path d="M941 674.6l2.6 28.2 2-17.5-.4-1.7" />
    <path fill="#fff" d="M337.8 412.4L357.2 513l.8 46-19.5-14" />
    <path d="M122.2 397.8l-5 32.5-1.4 2.5 10 2.6" />
    <path fill="#7ab600" d="M139.2 514l20.4 3.3L161 548l-10-39" />
    <path fill="#ba394a" d="M89 631.3l9.8-2.5-22-2.2-24.2 2.7" />
    <path d="M517.8 436.3l-3.5-17-1.8-18.2-6 27M228 110l-9.3-9.7-13.5 5.7 1.5 1M173 131l5-27.8-8.8-1.2-2 22.6" />
    <path fill="#d7db96" d="M705 357.7l80 5-92.3 1-35-51.2" />
    <path d="M212 438.2l-1-2.2-6.5-2-1.2-42" />
    <path fill="#f4e19f" d="M838.5 260.2l18-68.2 11-115-.3 130.6" />
    <path d="M183.5 353.3L168 349l10.6 13.3 8-5" />
    <path fill="#fff" d="M155 112.2l-5.3 15.8-9.3-6.3 2-12.7" />
    <path fill="#f5da8a" d="M906 160.3L949.5 96 876 166.2l82.7-54" />
    <path fill="#fff" d="M390.5 335l10.6-1 1 63.3-12-44.3" />
    <path fill="#91d2a1" d="M967.4 443.4l3.6-16.2-13.5 16.4-38.8-43.8" />
    <path d="M292.2 421.4L272 398.7l22.2 13-29 9.5M51.7 92.2L75 89l10 25.2L90.3 98m364.5 217l-10 15 7.6 7-9.7-24" />
    <path fill="#92cf94" d="M648.7 578.6l3 17 3-88.8-5.5-17.3" />
    <path fill="#afcc71" d="M947.2 309.4l1.4-3.8-78 1.5 54.4 4" />
    <path fill="#fff" d="M290.2 307.4l8.5-18.5-9 109-2.7-54m-12 79l-7 4 11.4 1 4.4-6" />
    <path fill="#585656" d="M513.5 624l-13.2 24.4-1.5-11 20.5-21.3" />
    <path fill="#fff" d="M550 408l4.6-.2 7.3 3-10 6.6m-140 298v13.2l131-13-102-.6m24-198l-51 121-20-100.6 4-19.8" />
    <path fill="#d6dea2" d="M858.5 281.7l20.5-27.3 9.3 45.3 66-2.7" />
    <path fill="#96d3a3" d="M678 503.6l4 42 20-27-9.7 32.4" />
    <path fill="#2f74c8" d="M844.3 715.3l-6.7 18.8 8-30 10.3 27" />
    <path fill="#fff" d="M357.7 196l-22-117L348 200.5l30 107" />
    <path d="M523 132.7l2-30.3 7.7 4-1.4 29.4" />
    <path fill="#b23747" d="M70.6 649.4l-21-1.4L67 638l-15-2" />
    <path fill="#fff" d="M445.5 430.7l-82 82.3 92-.4-.4-97" />
    <path fill="#767575" d="M475.3 696.5l-8 34 4.6.8 8-.3" />
    <path fill="#8fc204" d="M172.4 562.2l15.2-11.3 15.7 12-13-1" />
    <path fill="#fff" d="M58 79.5l-1 25.2-.6 38.7-72-70" />
    <path d="M158.6 323l-2.3-5.8-5.2-7.6 1 53.4" />
    <path fill="#fff" d="M480.8 136.7l-88.6 191.7 60.5-32.6-43.5 44m124.6 94.4l-44 .5-64 135 217-38.2" />
    <path fill="#feffff" d="M362 532.8l27 131 2.5-34 56.2-5.3" />
    <path fill="#fff" d="M212.6 435l-88 91.5 2.2-103.7 17 14" />
    <path fill="#feda85" d="M837 85.2l-53.3-3.4L826.4 65l-47 1.6" />
    <path d="M123.3 354.3l17.8-2.5 5 3.7-21 4.5" />
    <path fill="#9742c5" d="M441.5 203l2.2-29 7.3 6-3.8 32.4" />
    <path d="M547.7 136l-4-5.3 2.5-32 5.7 33.6" />
    <path fill="#a153ca" d="M759.2 174.4l-17 26.7 21.5 12-21.5-27" />
    <path fill="#fff" d="M333.5 552l-48 62.4 3.3 28 32.7-90.7m145.4-142l9 2.8 1 13.2-10 1.7M155 135l33.3 72.2 28-13-53.2-68.6" />
    <path fill="#f4d57c" d="M873.7 137.8l2.2 19.6 5 13.4-5-101" />
    <path d="M414.3 134.5l10.3-.6 14.4-24 .7 20m-291 272l14 14-35.4-2 29.3 6" />
    <path fill="#514f4f" d="M455 627l-30.5.8 3.2 5 34.2-3" />
    <path fill="#fff" d="M938 128.8l-10.2 121.6L862 276l177.5 39.4M512 258.7l-11.8 19.7 24.4-2L533 384" />
    <path d="M133.7 91l7.6-3.2-.2 42.3-8 11m225-5l-10-3-1 4 1-55" />
    <path fill="#cae5c0" d="M818.6 435.4l-38-25.5-14.8 67-25-53" />
    <path fill="#3e3f3e" d="M528 260.5l2 3 .5 18.8-6.3-3" />
    <path fill="#31382d" d="M577 135.2l-2-20.3-4.2 7 1.6 6" />
    <path fill="#fff" d="M140.3 420l-.7 6.4 6.7 2.3 23.7-6" />
    <path d="M484.5 404.6l.5 19.3-9 12 1.4-27" />
    <path fill="#fff" d="M341.7 690.8L320.5 640l75 57-57.8 67.3" />
    <path fill="#9d4dc8" d="M326.2 208.8l-2.5-35.5 10.2 21.3-26 13.6" />
    <path fill="#060606" d="M316 135.5l-2.2-2.5-3.5-14.4L329 133" />
    <path fill="#fffffe" d="M537.7 349.2l118.8 77-112-29.8 4.3-51.2" />
    <path fill="#fff" d="M104.2 613L33 711.3l19.3-13 26-25m771-45.2l-25 51 50.7 5-8.7 28" />
    <path d="M507.6 136.8l-22.7-21 12-13.8-7 27.7" />
    <path fill="#ac60d5" d="M307.7 282l-13.3-31 42.3 13.2-23.6-15.5" />
    <path fill="#010101" d="M284.4 399.2l-15 11.7-26-11 10.2 9" />
    <path fill="#fff" d="M439.3 110.2l-9.6-82.7L408.2 139l-2.6-76.5m0 353l-13.5 2.8-15-3.3 28-5.4" />
    <path d="M88.5 422.5l5.7 7H97l-18 .3M369.5 132l1.3-28.2-8 8.7-.4 24" />
    <path fill="#fcffff" d="M394.6 637l8.2 8 6.4-10.7-1 128.2" />
    <path d="M532.2 347.7l15.5-1.5 9.5 12.6-3.8-21.8" />
    <path fill="#3f4e4c" d="M312.3 648.6l9.5-17.7-5 14-29-8" />
    <path fill="#fff" d="M740.2 766.2l-17.6-74 12-2.5-29-10.5M926 693.7l14 7.6-9.7-10.3 12-87.6M314 358.2l15 8 .3 64.3-22.8 16.2" />
    <path d="M537 437.7l33 3.3-2.7-18-7.3 24" />
    <path fill="#fff" d="M891.5 152.4L971.2 78l-82.7 9-8 23.4" />
    <path fill="#268f8d" d="M129.3 715l-27.5 10.2L90 702.7l4.5 20.2" />
    <path fill="#595a59" d="M509.7 257.7L496.2 277l11 9.3-10.4-22" />
    <path fill="#91c300" d="M393.2 570l2.4-70.8-3.8 49.7-38.3-44" />
    <path fill="#757674" d="M80 292.2l10.8-30 13.8-3.5-22.6.4" />
    <path fill="#adddb7" d="M741.6 522l-52.6 6 50-23.3 3.7 20.7" />
    <path fill="#363635" d="M900.6 700l-7.5-1.2-79 .6 82 2.2" />
    <path d="M125.4 113.4l-15.8-5.3-14.8 6 21.6-13" />
    <path fill="#a052cb" d="M719 189.8l6.4-18.5 4.3 37.8H721" />
    <path fill="#8bc000" d="M61.7 529.7L79 508.4l-19.6 12.3 40 50" />
    <path fill="#fff" d="M490 516.4l1.7-100-14.3 20L464 433M202 89.5l-.4 93.7-5.6-83.5-42 3" />
    <path fill="#313131" d="M498.5 698.7h4.8l.2-9-.3 27" />
    <path fill="#fff" d="M97.3 165.6l58.3-29.3-99-2.2 2 28" />
    <path fill="#bd3748" d="M100.3 626.4l6.4 15.6 7-2-23.8 8" />
    <path d="M439.6 346l-25.3-14.5 22 24.4-1.3 3" />
    <path fill="#656665" d="M481.6 262.6l-1 28L486 278l-.6-18" />
    <path d="M485 360l-4.5-30.5-18.6 1.2 29 3.3" />
    <path fill="#ff3c25" d="M649 712.7l5 15.6 1-18.3-13.6.4" />
    <path fill="#fff" d="M127 407.6L285.5 361l-112.2-1.8-80.3 2m337.4-245l-27.7 2.7 14.2-7 11-5" />
    <path fill="#7bb700" d="M91.5 504.5l-1 23.2-3.8 9.6.3-18.3" />
    <path fill="#fff" d="M86 604l21.8-32.5 44-14.5-41 86.6" />
    <path fill="#abaaa9" d="M220 726.7l-10 4.5 133.5-.5-4-4.3" />
    <path fill="#192927" d="M370.8 630.8l14-4.7 2.7 6-11.6-1" />
    <path d="M198.6 400.7l11.4 30.7 1.5-23-23.3 2.2" />
    <path fill="#a65dce" d="M538.5 203.8l-36-6.2 24.3 13.4 15-31.2" />
    <path fill="#fff" d="M490.4 349.7l5.3 38.3 69.8 5.5-29 17m-201.2 128l16.3 87.6-24.3 15 20.2 4" />
    <path d="M392.7 435l-9-12 27.5-10.5-17.5 11.2" />
    <path fill="#fff" d="M133 99l-11.5 41-39-2.3 44 52.2" />
    <path fill="#d0e4b8" d="M728 391.8L676 460l3.3-45.5 63.6 8.3" />
    <path d="M386.3 136.6l25.2-11.7-6.6 3-28-1" />
    <path fill="#fff" d="M222.7 269.4l-39 57 16.6-70 33 102m322-116.2L530 145l5-33 6-4.7m-284.7 286l16 24.5-34.7-8.7 27 23" />
    <path fill="#515251" d="M516.2 265l1.7-4 2 12.5-9 11" />
    <path fill="#fff" d="M838.8 699l49.2-1-21.8-78.6 16.8 78.3M308.7 199l26.5 3.3 2.4 108.3L320.2 177" />
    <path fill="#b069d7" d="M245.8 277.5l-46.3-30 67.2 38.4-13.4-34" />
    <path d="M516.4 326.2l2 33.2 6.8-27.3-34.6 4m-411-201L75 112l19.6 23-15.6-2" />
    <path fill="#8ad1a0" d="M579.8 607.4l60.8-1-11.2-5-95 5.3" />
    <path fill="#fff" d="M54 408l9.4 77.4L11 264l47 47.4" />
    <path d="M266.3 421.6l13.4 11.2-5 3-11.4-7" />
    <path fill="#abddbc" d="M845.8 459.8l-5.2 143.7-3.7-149-63 42.5" />
    <path fill="#a554d1" d="M196.3 254.5l-.8 31-8.5-6 .7-30" />
    <path d="M98 368.6l.4 35.3 8 28-8.6 3" />
    <path fill="#df7281" d="M178.7 639l-17.4 12 62.8-23-63-.4" />
    <path d="M149.4 103.8h8.5l-20 8.2 1-7" />
    <path fill="#818181" d="M596.6 110.8l18-15.3-2.5 17-34-1.2" />
    <path fill="#fff" d="M61 376.2L97 397l1.8-58.4-62 92" />
    <path fill="#1b312e" d="M341 649.3l-13.8-4-2.3-2.4 17 1" />
    <path d="M228.5 322.6l27.3-9.8 14.2 19.4-18.3-12.6" />
    <path fill="#1e3330" d="M327 630.6l14-2.8 6.8 6.8-2-2.4" />
    <path fill="#a256ca" d="M59 167.2l23.3 37 5-30.3L59 200" />
    <path d="M498.7 133l-13.8-9.6 24 8.8 7-15" />
    <path fill="#696869" d="M570 292.4l-20-.3 23.2-7-11.4-7" />
    <path fill="#c4d485" d="M764 360.7l34.8-9.3 3.2-50 5.4 50.8" />
    <path fill="#9739ca" d="M329.7 260l-1 22.8-7-1.4v-29.7" />
    <path fill="#afd8a0" d="M745 444.3L699.5 477l44.7-40 34 5.5" />
    <path fill="#525252" d="M466.8 703.8l-5.6 10.7-2.7-15 15.8-1" />
    <path fill="#fff" d="M606.7 103.3l-179.4-3 114.2-1.7 14.7 13.6m-157-8.2l-2.7-19.7-21.7 29.7-6.6-16.8" />
    <path fill="#a45acc" d="M378.6 180.7l-20.4 31 1-35 26 37" />
    <path fill="#9f50c9" d="M343.6 213.5l5.3-34-10-4.2-2 12.7" />
    <path fill="#ba2c3f" d="M132 646.3l-19-16.5 30 15.3-.3-14" />
    <path fill="#fff" d="M242.2 272.5l61 55-24.6-65-.8 76.4" />
    <path fill="#292928" d="M733.5 699l7.8-17.8 1.8 15.3-18-18.5" />
    <path d="M304.7 391.7l2 25.6L299 437l-1-49.4" />
    <path fill="#a861ce" d="M474.7 199.8l22.4-27-21 46.2-7 3" />
    <path fill="#9fd396" d="M862 374l4.4 60.8L852 439l20-26.4" />
    <path fill="#b070d3" d="M529 181l75-4-1.2 39.5L591 182" />
    <path fill="#fdffff" d="M272.6 736l18.7-120 2.7 63 10.2-67.7" />
    <path fill="#fff" d="M516 410.6l1.5 53.7 11 6.7-1.5-61.4" />
    <path fill="#aed69c" d="M634.4 437.5l7.8 21.7-4.2 146-1.7-130" />
    <path fill="#9f50c9" d="M98.2 169.8l2-9.5L112 171l-12.4 33.3" />
    <path d="M274 89l17 39.3-11.6-8L267 90" />
    <path fill="#3e3940" d="M56.2 283.4l5.5-26-7.7 15 8.5 11.3" />
    <path fill="#fff" d="M133.3 343l-43.8-63L200 328l-58.5-58" />
    <path fill="#030303" d="M562 409.5l-19 37.2 4-28.8 17.3 3" />
    <path fill="#af68d6" d="M225.2 248.7L211 283.2l-7.5-31.8 41.2 27.7" />
    <path fill="#fff" d="M453.6 713l-9-93 18.3 49.7-4 50.5" />
    <path fill="#e9e8e9" d="M823.4 693.6l3-12.4 5.2 14 2.5-1.3" />
    <path fill="#fff" d="M136.2 526.6l17-12.8 2 38.2-20.2-7.7" />
    <path fill="#616260" d="M109.7 279.3l4-18-16 20.6-.3-26" />
    <path d="M161.2 130l-27.7-1.5 18 8.4 4.7-41" />
    <path fill="#fff" d="M304.6 111L258 202.7l57.7-83 17-9m524 397l72.3-13.2 110.5 76.5-179.2 12.5" />
    <path d="M414 107.4l2.8 2.6 20.3-3.3-13-6.4" />
    <path fill="#fffffe" d="M673 735.2l1.5-38.8-19.6 26.4 3-51" />
    <path fill="#acdcb5" d="M591 543l12.3 54.5 7.7-6.5-18.7-59" />
    <path fill="#9b4bc7" d="M529.8 161.2l10.7 7.4-27.6 4-2-1" />
    <path fill="#fff" d="M571.5 521.4l-71.8-89 5-70.8 3.4 73.7M365 623l-48 8.3 5-81 35.4 89M215.8 115l19.3 1.8-18-9.2-7 4M315 387l65 2.6 40 20.4-72.4-57.3m89-16.4l8.8 45.7-1.4-85-7.8 49" />
    <path d="M223 342l-17 2.3 3.4-7.8 16 .2" />
    <path fill="#b06ed4" d="M676 183.2l-49-1.2 18.7-7 34.7 2" />
    <path fill="#fcd474" d="M877.4 82.5l15.2-5.4 48.2 2-60 7" />
    <path fill="#fff" d="M65.2 362l-80.7-36 114 62.8L66 330m123 445.5L34.2 728.8l62.7-8.5-4-1.8" />
    <path fill="#c74658" d="M260.4 640.4l-38.2-29 39 23.3-33.7 29.3" />
    <path fill="#0a0a0a" d="M925.4 687.2l-2-11.5 10.6 14.5 2.5-15.4" />
    <path fill="#fff" d="M595.2 268.6l-12-8.2 8.3-22.4-13 56.7M766 680l4.2 19.8L783.4 579l68.5-55.7" />
    <path d="M354.6 432.3l19.2-34.5-17.5 21.2-28.7-34M295 357.8l8.5 2.5-3-35-6.2 4m-118 79.5l-10 22.7 1-30.2 22 7" />
    <path fill="#ff4a38" d="M629 731l-1-19.3 18.5-1.2-29.6 7.3" />
    <path fill="#fff" d="M255.3 564.6l-55-3.4L246 627l55.5-63.5" />
    <path d="M233 413.3l16.6-12.4-15 25 18 10" />
    <path fill="#fff" d="M91.3 215.8L73 276.2 84.6 349 72 323" />
    <path fill="#b1daa6" d="M850.4 415l8.5-43.5-18 42.7 17 24.2" />
    <path fill="#fff" d="M854.5 112L714 266.3l120-20.7 24.8-37" />
    <path fill="#233432" d="M703 704.3l1 28.2 3-14.4-4.2-12" />
    <path fill="#8bbf00" d="M342.3 565.5L328.8 552l-31.3-2 33.2-2.7" />
    <path fill="#fff" d="M551.2 327.8L480 302.6l79.7-24-13.3-19m-341.8 68.2l-26.3-.7-4-40 15 33m463.5 111l45.6-18 65.6-38-95 5" />
    <path d="M286.3 130l22.2-44.2-15.3 49-29.8-21" />
    <path fill="#fff" d="M630 437l-85.2-12.6 47.2-8.6-50 52.8M98.7 179.2L95 213l-26.3-51.2-2.8 24" />
    <path fill="#777776" d="M583 258.8l2-16.8-22 39.5 4-23.3" />
    <path fill="#f0f3f6" d="M943.2 689.6l-4.7-15.8-5 22-42.6 17" />
    <path fill="#a654d2" d="M397.7 247l-2.6 40.5 22-8-29-2.7" />
    <path fill="#fff" d="M107.8 110l7 1.7 3.2 13-16.2 3.4" />
    <path fill="#9f51c9" d="M581.3 210l-10-3 .8-26.8 5-4.5" />
    <path fill="#fff" d="M644.6 111.6L631.8 21l-30.3 140 3.7 46.4" />
    <path fill="#424241" d="M814.7 683l-34 9-3.8-7.4-45-2.3" />
    <path fill="#e0e0e0" d="M331.5 120l-.4 9-10 1.4-1-5.6" />
    <path d="M373 328.7l-6 10.7-16.5.4 26.2 5.3" />
    <path fill="#e1d98b" d="M922.7 185l13.5 41.3-13-25.3-26.5 17" />
    <path fill="#393a39" d="M720 701.3l61.4-1.2-60-1 28-13" />
    <path fill="#fff" d="M446.8 226.7l-218.7-22-9 86.7-6-41.2" />
    <path fill="#020202" d="M481.4 97.3L468 98l2.7-8.2 8.6-1" />
    <path fill="#c8d892" d="M824.2 355L803 368l88.4-86-48 53.6" />
    <path fill="#d5dc9c" d="M661.2 370.5L612 324.8l51 54 111-7" />
    <path fill="#fed372" d="M914.5 62.7L933 71l-38.6.2-12.8-2.3" />
    <path fill="#fff" d="M151 414.4l5.3-2.8L142 409l-1.8 3.8M778 693.6l-7.7-51.2 75 47L798 651" />
    <path d="M278.5 314l11-2-2.6 9.8-8 1.4" />
    <path fill="#fff" d="M768 717.5l196-15.2-210-1 15 31.8" />
    <path fill="#a048d0" d="M367.5 260.3l-8.8 27 .5-.6-3-35.3" />
    <path fill="#fff" d="M529 603.6l-28.4 31-26-34.7L582 681M452.6 333l38.6-100.7L447.5 381l40.8 29.5" />
    <path fill="#ced481" d="M879.8 301.3l-12.7-12v-45.8l-7 49.3" />
    <path fill="#a24fcf" d="M282 256.6l25.5.4-14.4-4.5-2 36.2" />
    <path fill="#fff" d="M364.5 145L333 188.6l-82.3-90.3 3.2 31.5" />
    <path fill="#86bd00" d="M149.6 559.5l20.2-17.7-40.2 19.6 29.6-.8" />
    <path fill="#fafbf9" d="M948.6 713.3l39.6-17.6-55.8 1.4 58.6 4" />
    <path fill="#80cfa5" d="M855 590.5l-3.8-18.8.6-74.5 3.7 5" />
    <path fill="#fff" d="M337.3 402l36.5 71-3.5-64.6-30.4 58.4M130 497l-9.7 63.3-3-6-4.6-33.4m56.7-420l94-12L81.7-5l83 119m301.5 60l-20.7-24.3-7.7 69.8-8.4-90.5M475 634.4l5 108.6 48.2-12.7-42 .4m-13.8-629L446.2-15.5 406.4 111 443 86M293.7 516.6L334 492l-38.5 67-2.8-38" />
    <path d="M263.3 356.7l6.7-8.8-1-25-12.8 35" />
    <path fill="#7ab700" d="M370.3 559.5l-11-3-35 5.2 40 .7" />
    <path fill="#fefefe" d="M108.3 359.7l112.2-.3L141 387l-36 18.6" />
    <path d="M116.3 400.4l2.6 35 5-3.5 2-23m425-83h-15l21 13-4 15" />
    <path fill="#8dc101" d="M146 508l24.4 12.7-26.7-4.7-18.6 10.8" />
    <path fill="#7fb900" d="M283.7 517.4l-7.2-5 22.4-3 3 3" />
    <path fill="#fbfcf5" d="M181 524.4l-7-17-11.4 34-3.5-19.8" />
    <path fill="#c7dfab" d="M689.5 439.8l-46.2-1.2 37.6-13.4-11 44" />
    <path fill="#fff" d="M295.6 425.7l17 124.7 12.2-46.8-99 11.2" />
    <path d="M91.5 392.4L75.8 387l-10 7 24.5 3.5" />
    <path fill="#0e817f" d="M89.7 706.8l2.5-8.8 1.4-3.5 13.5-6.7" />
    <path d="M375.5 119.3l6 14.3 7-28.5-7.4 1" />
    <path fill="#cbe1b2" d="M918.8 339l-20-22 46.5 19-87.7 35.7" />
    <path fill="#fff" d="M550.5 209.3l-24 112.5 8.2-109.3 11.3-23.3m-451.4 378l-3.4-65.5 11.4 17.2 2 29m389 165l-42 16-3-55-7.4 43" />
    <path fill="#9e4fc9" d="M426.3 179.8l9.2 6.6L434 212l-7.3-9" />
    <path fill="#83bb00" d="M236 530.5l2.8-12-9.5-6.5 2 26" />
    <path fill="#fff" d="M81 116.5l24.4-27.2-14 33.4 33.8 53m261.2-49l12.7-1.3-3-19.4-11 10M143 334l3-36.5 5.4 29.2-3.3 53m53 195l1 109 7-73 36-92.7" />
    <path d="M464.3 417.2l-28.7-9.2-14.7 8-1-13" />
    <path fill="#fff" d="M852 657.5l48.4-60.7-65.4 12 16 92.5" />
    <path fill="#f3f6f9" d="M792.7 719l12.5-42.2-3 80-8-94" />
    <path d="M548.4 354l-18.8-3 12.8 8.7 16-8.7" />
    <path fill="#030303" d="M446.8 431.2l-14 5.2-2-2.6 20.8-21" />
    <path fill="#6c7269" d="M596.8 125.5l-21 8.4 10.7 1 4.7-26" />
    <path fill="#fff" d="M771 681.4l-41.4-1.2 10.7 17-9.7-49.5" />
    <path fill="#4e4e4d" d="M501.3 714.7l-51.6-1.6 59.3-1-10.8 2" />
    <path d="M200.4 132l20.7.5-16-6-1 2.8m519 599v-12l-2 9" />
    <path fill="#addcb0" d="M823.3 442.3l-18.7-13.6 27.5 61.7-12-12.7" />
    <path fill="#a358cb" d="M181 204.4l-21.2-42-11 23.3 21.3-16.2" />
    <path fill="#fdffff" d="M268.6 645.3l-63 45.2 1.3-7 63-50" />
    <path fill="#a862cf" d="M245 172.2l2.8 38 16.8-4.2-30.6-8.5" />
    <path d="M340 110l-11.5 18.2-15.8 2.5 25.3 1" />
    <path fill="#fff" d="M506.2 209.6l74.3 48.7-54.8-1.2-2.3 25" />
    <path d="M135 354.5l9 7.2-.5-35-7 1.8" />
    <path fill="#9d4dc8" d="M302 192l-1-4 10.2-13-3 35.6" />
    <path fill="#fff" d="M174.2 519.7l-44-16.2 34-83.7 13 62.6" />
    <path fill="#bbdca7" d="M834.5 361.8L821 408.4 759 439l56.5-32.7" />
    <path fill="#fefefe" d="M296 448.7l-8.5-52-147.3 4.5 158.6 1.6" />
    <path d="M197.5 335l2.7-8.7-28 1.8-1.4 3" />
    <path fill="#312c2c" d="M52.5 697.6l6.5-5.3 7.2-4 9.2 3.3" />
    <path fill="#fff" d="M88 351l12.3-23.8-15.7 61-66 6" />
    <path fill="#fffffe" d="M474.5 201l-34.7 102.5 10-109.6 5-14" />
    <path fill="#8ed7bb" d="M886 596.2l-52.7 9.7-22.3-17 23.7 8" />
    <path fill="#fff" d="M677 278.5L655 202l-18.3-1 21.7-28.8M85.2 425.8l13-22.3-24.3-7 1 31.5m38-323.6l-32-29 50 37 2-78.7" />
    <path d="M379.5 429l-.8-38.2-8.8-2.4 2 49.4" />
    <path fill="#4f4d4d" d="M488.5 652.6l-8-9 5.6-12 1-4.7" />
    <path fill="#1c2625" d="M349.2 651.7l2.8-14-3.2-10.7-1.8 3.2" />
    <path d="M218.6 438.2l8.2-19.5.6-16.8-8.4 4m-23.3-271l-2.4-3-7-27 5.7-6" />
    <path fill="#fff" d="M387.7 379l56 25 73-8-13.7 8M125.8 263.2L112 286l12.4-85.7-108.7 44" />
    <path d="M93.7 121l6.8-7.7 9.6 22-7-7.5" />
    <path fill="#a150cd" d="M180.5 265.6l-24.8-3 16.2-7 7 9.2" />
    <path fill="#646464" d="M479.8 700.5l30.2-1.2-23.4-1 1.6 20.7" />
    <path fill="#fff" d="M324.6 179.2l48.6-12.8-.6 68.4-15.8-106.3" />
    <path fill="#41423f" d="M700.8 692.6l6.8-8.4-7 15-2 5.2" />
    <path d="M95.3 335l4-24L77 354h3.6" />
    <path fill="#080807" d="M805.3 684.5L762 683h46.5l-.8 22" />
    <path fill="#fff" d="M549.4 341.3l-24-5.6 23.7-2 1 37.4" />
    <path d="M410.4 126.6L440 117l-13.6 1-6.5-1.4" />
    <path fill="#fff" d="M775.2 366.4l75.4 35.3-.3-57.4-63.5 86.6" />
    <path fill="#ab67d0" d="M292.7 207l-12.5 3.5-23.6-36.8-10 4.4" />
    <path fill="#95d7b3" d="M951 470.6l7.3 15.3 39.4-3-64.3-8" />
    <path fill="#fff" d="M100.2 296.3l10-32.4 43-41-45.7-23" />
    <path fill="#494d4d" d="M270.6 643.3l-3.8-19 26 7.2-17.5-1.5" />
    <path fill="#fff" d="M864.8 260L797 283.8l16.2 72.8 41.6-41.8M884.2 50L990 97.4 1025.3 5l-161-15.4" />
    <path d="M470 401l10.6 19.4 4.4 11-3.2-27.5" />
    <path fill="#fff" d="M156 640.7l-36 20-2-25.2 70.5 63M74.8 330l13-64.7 16.3 32.3-21 42" />
    <path fill="#a0d18d" d="M725.7 443.8l3.8-11-40.8 41.3-2 7" />
    <path fill="#fff" d="M208.2 333l58.8-42.4-66.3 10.8.4 99.8" />
    <path fill="#ff2108" d="M649.7 707.4L634 729l.8-17.8 7.7 13.8" />
    <path d="M131.7 414v8.8l11.6 13-5.8-26" />
    <path fill="#fffffb" d="M653 41l-31.2 156.3L682 455l-53.5-263.5" />
    <path fill="#fff" d="M196.6 83l.2 217 5.2-190 48-60.2" />
    <path d="M512.4 433.5l-4.4-1 .4-31.5 9.8 6.8" />
    <path fill="#fff" d="M424.6 159L407 116l-5 100 9.2-26.7" />
    <path fill="#050505" d="M228.6 390.5l-11.8-2.8 4.4 11.5h5.8" />
    <path fill="#fff" d="M458 127.6l-1-2.6v-19l15.4 17.8" />
    <path fill="#fcfdfb" d="M882.6 691.6l15-10.8-8.6-1.6 1.3 14.2" />
    <path fill="#383838" d="M422.5 707v7l4 5.4-1.3-25.7" />
    <path fill="#bb293c" d="M161 648.6l-5-11.3 9.4-9.7-4 9.5" />
    <path fill="#d4dbdd" d="M416.8 733.2h-46.6l51-101.6-32 86.8" />
    <path fill="#ad69d3" d="M188.6 239.5l-25.8-.8L160 295l-9-46" />
    <path d="M485 121l19-17 1.8-2.4-15.7 1.8" />
    <path fill="#c14556" d="M114.3 643.3l20-11.4-3 10-16.7-17" />
    <path fill="#020202" d="M395 101.8l14.6 10-23.4-5.4-4.7-3.3" />
    <path fill="#fff" d="M446.6 362.8l-124-4 31.6 59.3 15-27" />
    <path d="M315.6 358.4l6 1.4.7-28-11-4.5" />
    <path fill="#fff" d="M258.4 431l14-89.2 5.7-50.4 1 66.3" />
    <path fill="#fff" d="M240.3 421l44-12.3-27.4 17.6-9 3m140-28.7l-8 76.7-1-94 38 19m-247-210l-6-17.8v-5l-9 20.7m615 240.5l-91.7 71 95 6.3-17.6-69.4M524 135.3l-5.7-52.5-1.4 78.7 63-27" />
    <path fill="#171716" d="M896.7 673l-4.6 20-4 5 11-9.6" />
    <path fill="#a9dcb4" d="M781.7 491.3l-1 81 8.6-86.6L758 460" />
    <path fill="#0d0e0b" d="M911.3 696.5l16.5-12.2-5 1.6-2 10" />
    <path fill="#fff" d="M647.7 705.6l-17 30.8 12.6-.4-7.7-34" />
    <path fill="#323232" d="M680 673l-1.4 21.8-3-2.3.2 3.2" />
    <path fill="#fed983" d="M850.6 75.5L879 88l-31.5-5.7-36 9.3" />
    <path fill="#fff" d="M564.7 361l47.8-8-55.8 16.3 6-94.7" />
    <path fill="#2b2b2a" d="M965.6 695.6l18.2-.6-20.7-4.5 15-19.5" />
    <path fill="#fff" d="M598.5 117.2l-13.2 21.3L602 284.8l-7.2-94.4" />
    <path fill="#aed8a0" d="M914.6 394.4L863.2 341l22.4 28.5 35 45.4" />
    <path fill="#fff" d="M643.8 563.3l9.5 33.2 31.6-1-54 12.7M67 149.4l-1-31.2 3.6-.6 21.3 30" />
    <path fill="#252626" d="M83 688.2l1 36.6 3.7-48-3.3-1" />
    <path fill="#7d7c7b" d="M282.5 693.3l31.8 4-27-1-3.8 25" />
    <path fill="#fff" d="M902.4 643.5l-18 11.2L910 700l10.4-10.8" />
    <path fill="#c73145" d="M252 642.6l-19.6 12 .3 2.5 2 6" />
    <path fill="#fff" d="M347.2 654.7l1-80-11.8 208.8 26.8-144.7" />
    <path fill="#d5d277" d="M730.2 321.5l-49.3-1 41-4.3 5-24.4" />
    <path fill="#fff" d="M456.3 40l16.2 62.5-15-2.8 42-29.3m326 205.8l-58.6-6.6-6 2.2-8 109.8m-583-280l38-59 37-2.6-12 62.5m111 46V117l-1-45-6 36M230 256l37.4 21.3 14.7-5-50-8M318 547l10.8-3.3-2.4-2.7-1.8-14.8" />
    <path d="M331 432.7l7.8 3.6L333 412l-2.2-26m-21.4-254l3.2-3.2 5-9.8 21.6-7" />
    <path fill="#fff" d="M838.6 566l-3.6-77-30.4-9.6-9 130.4M182 526.4l-26 29.8 16.5 11.5 1.2-2.2" />
    <path fill="#fff" d="M826.2 589.2l213.3-52.3-174.7-41-13.5 109" />
    <path fill="#6f6f6e" d="M107 279.8l8.6 7.5 12.3-25.8 1 21.4" />
    <path fill="#868686" d="M615.6 696.5l19.8-20.6-1 16-17.4-17" />
    <path d="M415.3 341l16.2 8 7 5-18.7-23.2M268.3 351l-27 8.2-7-5.7 12.3-2" />
    <path fill="#9f4bcc" d="M182.4 279.3l-8.3 5-23-2.2 7-6" />
    <path fill="#fefefe" d="M364 354.2l13-10h-12.4l-12.2 1.5" />
    <path fill="#fff" d="M93.6 708.5l20.7 8L121 704l-10.3-12.2m410.8-241l25.2-30-10-7.6 7 40.5M258 158l-13.6-49.6 97.8 64.8-133.8 5.6" />
    <path fill="#454545" d="M425.4 696.2l18 4.3-6 10.3 5.6-17" />
    <path fill="#fff" d="M481.7 335.8l-2.5 18.8-9.6-6.8 5-12.6m-82-135.2l-14.5.3 9-19.3 8 1.8" />
    <path d="M99.6 361l-1.5-6.6 8-31 2 30.6" />
    <path fill="#fff" d="M438.4 640.2l-16.5-2 6 33.2-46-4.8M206 392.3l46.4-32 22.5-11 1 25.7m-52 350l156-2-164-10-77 70" />
    <path fill="#a65dce" d="M711.6 172l1.4 31.6-10 2.2 2-28" />
    <path fill="#a45acc" d="M69.7 171l20-1.3L79 163l-20.6 1.5" />
    <path fill="#d9dc97" d="M751 390l1-167.6 3.6 68 2 9" />
    <path fill="#a45acc" d="M220.2 212.8l14.3-23.7-14 14-21-2" />
    <path fill="#1f2121" d="M297 635l-3 15.2-1.4 2.5v-25.5" />
    <path fill="#fff" d="M618.6 680.8l5.3 82.4 1-62.2 6 9" />
    <path fill="#80807e" d="M340.4 709.6l.2 6.8-5-3 5.6-26" />
    <path fill="#fff" d="M814 285.7L915.3 382l47.5 50.5-42-31.4" />
    <path fill="#323232" d="M269.8 632.8L269 643l14.6-8.3 6 10" />
    <path d="M541 410.6l20-3.5h9.8l-18-5" />
    <path fill="#fff" d="M514 324l-8 6.8-30-34.3 17.3-34.6M256 322l6.5 22.8-22 7.8 4.3-29.7" />
    <path fill="#bb3648" d="M86.3 645l-4.7 5-.3-7.8 1.6-20" />
    <path d="M466 132l-15.3 3.4 5-48-7.8 32m92 316l27-5.4-16-2.6-6 16.5" />
    <path fill="#fff" d="M170.2 113.6l-20 72.7-14.3 13.3 11-51.6m117 390.3l19-23-10 107.4-15 22.3m550 47l1-6.7 2-1 11 51m-385-79.8l58-8.3-8 64.4 15-1.6" />
    <path fill="#b0d9a4" d="M913.3 381.4l27 17-5-10.6L885 351" />
    <path fill="#373934" d="M902.5 692.3l-2.8-1.2 6 13-1-10" />
    <path fill="#293231" d="M366.5 655.4l-.3-21.5.3-8-5.7 11" />
    <path fill="#fff" d="M963.7 697.5l-5-8.2-8.4-195L973 623.5M162 266.2l13.2-3.2 13-48.2-1.3 73m-80 275.6l8 94.2-30-65.4 45 50.2" />
    <path d="M407.8 424.5l4.3 10-7-2.3-15 3.3" />
    <path fill="#fff" d="M193.4 411l1 37 10-18.6-6-21.7m533 315.8l4.3-32 8 7-41.7 5" />
    <path fill="#040404" d="M370 360.4l5-9.4-26.3 3.5 8.4 4.2" />
    <path fill="#fefefe" d="M434.3 482l-21-39 64.5 11.6-50.2-22.4" />
    <path d="M127.7 115.6l-7.6 16.7-6 2 9-29" />
    <path fill="#fff" d="M978.4 686.3l2.3 93.5 20.2-119.3-31 21.5M342 325l42-50 28 67.3 5-15m447.2 152L827 459.5l-22-50L927 478" />
    <path d="M232.5 355.7l10.5 2-2.5-44.3-6 9.8m257.3 103.5l.4-21.7 9-3.6-2 35M955 680.8l-7.7.6 8.7-6.3 2.2 10" />
    <path fill="#fff" d="M915.7 208.3l-96.5 52L712.4 271l115-5.7M140 635l15.7 4.3 6.8-17.6h10.8" />
    <path fill="#181818" d="M911.7 694l27.7-1-1.8 1.5-19.7 1.8" />
    <path d="M233 121.6l1.6 9.5 12 6 3.7-5" />
    <path fill="#8dd5b0" d="M679 649l-4.4-42.5-2.2-3-1.3 40" />
    <path fill="#e7d47a" d="M873 204.4l26.5-38.7-20.3 17.5.2 33.5" />
    <path fill="#fff" d="M417 587.8l-3.6 51 2.6 36.8 1.6-39.3" />
    <path d="M223 118.2l1.3 9.2-18.5-9-.6-9.4" />
    <path fill="#fff" d="M312.6 261.3l8.6-4v60.4l-12-7.3m107.3-102.2l-88.7.6 56.5 25.5-4.2 40.3" />
    <path fill="#87bd00" d="M118 509.2L90.4 513H104l1 20.8" />
    <path d="M173 439.3l-6.7-14 8.8-18v1.3" />
    <path fill="#fff" d="M515.2 405.6l10.5-5-13.6-60.3-6-5m-131-1.5l-25-34.2 30 17.4 3 43m58-252.4L381 61l99 41-24-18.6M816 677l3.5 30.7 3.7-77.5-26 50M648 713l-5.2 43 14-67.5L703 718" />
    <path fill="#010101" d="M67 355.4l-8.3 3.7-2 1 1.3-48" />
    <path d="M456.2 407.6l24-5.2-14 6.2-10.8 18.3M403 408l-17.2-1 21.8-5.2 6.4 23.7" />
    <path fill="#93d29f" d="M941 410l26 15.3-3 8-34.8-48" />
    <path fill="#80837e" d="M450.4 262l13.8-1.5-28 3 7.4-15" />
    <path fill="#9f51ca" d="M684.4 196.7l3.4 11.5 6.7-1.4L690 175" />
    <path fill="#fff" d="M488.4 366.5l9.8-32.7-33.2 73.5-12.6-56.5m266.7 90l-18-66 1 53.4-44 77.8" />
    <path fill="#020202" d="M355 98.3l-8.4-12.5.2 24.4 7.8 29" />
    <path fill="#fff" d="M65 554l-15-32.8 33 31.6-6.8 8.8m201.3-476l10 38.5 11-29 23.8-78" />
    <path d="M298 434l-.4-20 6-28.5 3.4 49.8M515.7 359l8.8-1.7 1.6-12.6-4-15.5" />
    <path fill="#100c0d" d="M52 709.3l.7-7.2 5.3-8-2.2 15" />
    <path fill="#fff" d="M268.6 186.8l-28.7 82 18-18 29 2m-56 43V344l-1 32-11-53m36 140l151-30 16.3 15-69.8-18" />
    <path d="M574 307.8l-3.2 51-6.2-4.4.5-27.2m-379 108v-27l23-.5-14-3.2" />
    <path fill="#cd5868" d="M156.4 627.7l-18-.6 8 45-8-38" />
    <path fill="#92c30a" d="M244.5 555.8l9-45.5-.4 54.6 13-5" />
    <path fill="#fff" d="M63.5 718.7l12 .4 2.7-23H61" />
    <path d="M474.8 108.5l-5-5.7-28.3.6 10.7 4.6" />
    <path fill="#fff" d="M322.3 231.7l12.8 65 5-109.4-3-10M170 355.5l-.3 21.2-8.3 70-2-142.3" />
    <path fill="#fff" d="M223.2 89.7l132.8-3-3 131 10-136.5m-74 252.3l4-73.5 9.4-2.7 1 63.6" />
    <path fill="#b7d99d" d="M778.8 412.4L788 432l-7.3-29-34.6 13.8" />
    <path fill="#fff" d="M234.2 110.7l-38-23.2L211-4.7l18.4 153.4M428.6 123l1.5 4.6 3 .6h-16" />
    <path fill="#7c7a7d" d="M535.3 278.4l9.3-5.8-1.6 9.7-24 2.7" />
    <path fill="#fefefd" d="M738.3 721.4l10.7-4.2 3-47.4 3.5 20.3" />
    <path fill="#81d3b6" d="M907.6 592.7L850 599l37-.6 24.3 2" />
    <path fill="#ff361d" d="M693.6 731l-6-.5 6.8-13.5-8.4-2.3" />
    <path fill="#d5d173" d="M895.2 226.7l36.8-13-4.5 9L903 225" />
    <path fill="#0a1514" d="M370 645.5l15.4-.5 2 1-2.8 3.5" />
    <path fill="#fff" d="M528.2 135l-56.5 58 11-70 11 11.5M692 293.2l53.7-128.4-22.6 150-41 2.7m-120-2.7l91-22.2-74 5-1.2-38M31 394.8L66.6 435l61 .3L53 530" />
    <path fill="#c3d793" d="M883.4 309l-23 17.7-46 49.8 26.3-22" />
    <path fill="#fff" d="M121.8 359.7l-15.3-13.2 6.6 54.3 23 6.7" />
    <path fill="#8bbf00" d="M157 533l-4 36.3-4.7-9 19.6-16" />
    <path d="M117.7 405l-17.2 10 2.2-7.3 13-7m-48.4-268l-1.3-10-9-39 1.4 51.4" />
    <path fill="#fff" d="M359.7 267.4l-9.3-13-5.7 18.5 7.3 4M162.6 584l21.4 52-27-19-40-66.2" />
    <path fill="#fff" d="M246 558l-65.6 8v67.3L242.7 515" />
    <path fill="#a65fcd" d="M340.7 180.8l20.3 2.8 7.2 6.7-5.8-15.3" />
    <path d="M374.5 330l-24.4 6v-3.7l8-5.5m62 81.5l12 21.3-11 19 1-13.4" />
    <path fill="#f8db8e" d="M869 79.4l-1.7 93-5.8-41-3-16.4" />
    <path fill="#fff" d="M216.2 122.5l2.6 4.4-17.5 1-3.6-12" />
    <path fill="#a45bcc" d="M203 182l33.6 17-30.8-28-.7-4" />
    <path fill="#484848" d="M724.2 675l6 1.8-8.4 21.2 4.5-2.4" />
    <path fill="#6ea2de" d="M888.2 708.3l6.8 2-37.4 24.3 10.8-11" />
    <path fill="#1e2623" d="M713 733.6l-3.7-7.4 4.7-8.6-1.6 7" />
    <path fill="#a357cc" d="M666.4 207l4.5-41.5-6-1.2 9 44" />
    <path fill="#fff" d="M464 412.2l9.7-4.4 2.5 12.2-6.8 8.6" />
    <path fill="#767574" d="M298.8 697l-1.7-1.7-1 19h5" />
    <path fill="#fff" d="M63.3 264l9-4.4-1.4 11.2-14 10.4" />
    <path fill="#2a2b2a" d="M747 680.4l-3.7 2-12 11 21.5-6" />
    <path fill="#010101" d="M162 430.2l-5.5 4-10.8 1.4-13.3-9" />
    <path d="M290 411l-4.4 12.7-15.2 12.4 20.6-6m230.7-28l-15.5 13 19.8-8 8-1" />
    <path fill="#fffffe" d="M774 685.6l16.8 34.8-17.4-51.4 53.3.2" />
    <path fill="#fff" d="M387.8 135.3l-91.6.2 162.2 22-60.2-24.7M535.6 341l-9.4 13-.6-36.4-40.4-19" />
    <path fill="#e4e4b1" d="M676.5 368l-33.8 32.3 27.4-17.7-19-77.3" />
    <path fill="#020201" d="M814 699.5l-.2-18.4 1.8 5 3.7 2" />
    <path d="M363 85.3l.4 11.7 9 .6-1.2-6" />
    <path fill="#fff" d="M131.2 261.6l-6.5 59.6 23 8.6 7-114" />
    <path fill="#5c5b5c" d="M556.6 259l-3.6 7.5 15.4-7.4-9.3-1" />
    <path fill="#fff" d="M293.4 360.2l7.6 27.6 42.6 2 34-31" />
    <path fill="#8ecc87" d="M657.4 496.2l3 7.6h-3l25.8 13.2" />
    <path d="M341 349.5l-15-22.3 5.4-.7 6.4 3" />
    <path fill="#8fd1a0" d="M836.4 464.8L853 480l99 4.4H851" />
    <path d="M252.7 108.4l-14.8-7.8 4-8-15 16.2" />
    <path fill="#fff" d="M506.4 201.2l28.3-5-18.7-11.4-55.7-65m483.4 550.4L946 688l-5 13.7 13.8-13" />
    <path fill="#010101" d="M527 429.4l10.4 9-3-25.2-4.4-11.8" />
    <path fill="#80b900" d="M97.6 560.6L108 556l18.5 5.4-13 1.3" />
    <path fill="#fff" d="M227 491.7l-37 25.8 1.5 35.3 42.3 33.8m234.8-249.8L471 353l7.8-17.5-1-3.8" />
  </g>
</svg>