<svg version="1.1" viewBox="0 0 1024 768" width="1024" height="768" xmlns="http://www.w3.org/2000/svg">
  <g fill-opacity=".5">
    <path fill="#08080c" d="M733 682l-226 5 70-27 1 49" />
    <path fill="#686662" d="M783 590l-17-47-5 20 14 64" />
    <path fill="#021923" d="M575 322l-8-2-17 4-9 5" />
    <path fill="#0f0e0c" d="M780 118l20 54-73-40-54 58" />
    <path fill="#213000" d="M0 46l64-10-34 51 81 25" />
    <path fill="#cc8863" d="M647 345l-6-11 1 3-68 37" />
    <path fill="#54503f" d="M957 514l-23 41-30 28 47-21" />
    <path fill="#030701" d="M258 675l-72 61-85-51 76-54" />
    <path fill="#424442" d="M849 319l-10 19v-54l7 6" />
    <path fill="#193e00" d="M129-2l176-29-102 143V21" />
    <path fill="#284400" d="M681 86L471 10l-65 53 155-39" />
    <path fill="#f8f8f0" d="M494 688l-13-10 56-2-11 3" />
    <path fill="#261101" d="M699 490l-2-11 15-3 6 7" />
    <path fill="#ffeabc" d="M659 349l-12 9 24-4-5-4" />
    <path fill="#7b9a00" d="M713 23l-38 14 31 39 17-32" />
    <path fill="#b47c5a" d="M640 178l15 3 4-13 28 31" />
    <path fill="#333c00" d="M944 224l21-119-56 64 84 53" />
    <path fill="#6e6b6b" d="M592 797l38-59-36-1-3 30" />
    <path fill="#a2a5c4" d="M431 708l53-55-74 50-10-38" />
    <path fill="#4c4845" d="M579 184l-39 8-57 40 39-16" />
    <path fill="#c7704e" d="M645 409l60 20-93-16 1 19" />
    <path fill="#696150" d="M897 421l-17-26-40 15 18 28" />
    <path fill="#a0b5d8" d="M580 664l-53-72-21-26-29 72" />
    <path fill="#f1f1f6" d="M869 733l-200-6-26 31 41 41" />
    <path fill="#262016" d="M588 350l26-9-45-10 25 16" />
    <path fill="#9a694d" d="M524 539l13-17 51 49-70-8" />
    <path fill="#333b58" d="M207 730l40-35-67-32 72 36" />
    <path fill="#db9773" d="M630 384l-46-1-60 6 75 18" />
    <path fill="#040201" d="M835 293l-64-100 53 25 15 19" />
    <path fill="#d7a272" d="M770 426l27 45-84-1 22 28" />
    <path fill="#1f2c00" d="M1055 332l-62 20-43 17-3 43" />
    <path fill="#e1a56a" d="M726 532l-34 22 16-56 3 17" />
    <path fill="#395bc0" d="M1040 772l-37-28-85-49 58 31" />
    <path fill="#eef1fa" d="M975 743l-81-52-149-65 297 173" />
    <path fill="#344572" d="M568 710l22 34-63-48 33 16" />
    <path fill="#0b0c04" d="M117 651l-89-15 82-218-41 190" />
    <path fill="#5d5239" d="M292 485l-70 27 113-9-80-24" />
    <path fill="#c99b7b" d="M804 263l-64-68 49 51 14 3" />
    <path fill="#d19f85" d="M673 331l-35-2 29 10 94-115" />
    <path fill="#526300" d="M913 171l38 12-11 41-36-19" />
    <path fill="#000002" d="M990 472l57-20-8 223-56-4" />
    <path fill="#b29788" d="M715 556l-25 18 35-11 35-56" />
    <path fill="#673b1c" d="M574 479l15 34 13-46-5-13" />
    <path fill="#be7236" d="M749 356l-11-14 31 11 5 18" />
    <path fill="#688100" d="M82 69l22-21-114-34 42-45" />
    <path fill="#cb8d6a" d="M545 318l-29-14 76-39-58-35" />
    <path fill="#deac84" d="M575 328v-5l42 4-13 9" />
    <path fill="#426300" d="M720 97l-64-35 72-93-76 67" />
    <path fill="#021400" d="M175 277l55 29-83 83-52-71" />
    <path fill="#12296f" d="M327 655l-100 44 60-25 70-27" />
    <path fill="#998c72" d="M253 497l-34-24-19-26 6 43" />
    <path fill="#6c7366" d="M746 101l-70-1-27-14 52 2" />
    <path fill="#1d3e91" d="M333 656l75-26 62-17-131 41" />
    <path fill="#b0c5e2" d="M471 645l12 23 25-131-6 7" />
    <path fill="#0f3700" d="M374-14l-66 131 120-58-86-54" />
    <path fill="#58565f" d="M762 134l-16-28-1 35 11-31" />
    <path fill="#f8cbad" d="M601 209l69-27-30 111 62-22" />
    <path fill="#191a14" d="M709 316l-5-9 27-1 15 8" />
    <path fill="#574d3c" d="M98 573l15-28 17 3-17 62" />
    <path fill="#3c4900" d="M81 142l10-77 34 65-58 51" />
    <path fill="#3f3929" d="M772 554l-21-7 16-48 39 106" />
    <path fill="#1c2a02" d="M476 221l-18-18 114-98-50-18" />
    <path fill="#040503" d="M733 681l-10-11-51 15 64 7" />
    <path fill="#e9edf3" d="M723 632l-56 42 41-42 87 105" />
    <path fill="#1e1d14" d="M341 517l-52 63-7-90 100 130" />
    <path fill="#6563a2" d="M656 731l27-16-32 24 1 19" />
    <path fill="#150300" d="M641 425l-15 11-5-11 2-3" />
    <path fill="#2f2715" d="M844 448l-62 32 24-19 22-26" />
    <path fill="#12130f" d="M1015 733l-151-69 56 43-58-57" />
    <path fill="#899acc" d="M926 715l-33-26 91 57-28-21" />
    <path fill="#2f2a29" d="M766 392l9-6-8 3-19 1" />
    <path fill="#221a12" d="M616 297l21 12-75-3 19 2" />
    <path fill="#244f00" d="M901 232v-67l-52 68 12 11" />
    <path fill="#f3f4f9" d="M338 663l-124 82-4-7 25-29" />
    <path fill="#7a9900" d="M155 253l-30-41-19 12-12 17" />
    <path fill="#70716d" d="M607 78l-25 3 16 12-4-1" />
    <path fill="#4a6700" d="M883 22l172 113v42L994 56" />
    <path fill="#dbe5fa" d="M976 731l-38-20 40 16-24 72" />
    <path fill="#3c3a27" d="M971 487l-43-53 16 55 15 35" />
    <path fill="#343021" d="M979 410l-139-27-15-24 126 22" />
    <path fill="#4d524b" d="M395 437l5 42 87-59-2 31" />
    <path fill="#b68d74" d="M543 528l-26-43v-16l65 85" />
    <path fill="#09060a" d="M586 112l-3-8-106 98 78-11" />
    <path fill="#c18558" d="M717 439l40 59h17l4-29" />
    <path fill="#5d2c14" d="M602 171l43 11-75-4 27-5" />
    <path fill="#7b9800" d="M193 139l-25 64 29 7 37-76" />
    <path fill="#100e1e" d="M509 565l12-33v13l-1 35" />
    <path fill="#e9eef6" d="M730 619l27-51 34 100-39-20" />
    <path fill="#113100" d="M54 324l4-68 113 31-64 5" />
    <path fill="#0b102b" d="M152 727l37 1 35-9-4 5" />
    <path fill="#050405" d="M205 730l-28 48-206-118 137 139" />
    <path fill="#f4fdff" d="M814 359l-21-8 29-2-9 6" />
    <path fill="#4a4331" d="M843 466l89-74-48 84-56-90" />
    <path fill="#14161e" d="M632 799l-2-70-50 4 70 1" />
    <path fill="#2f5600" d="M160 229l16 45-64 10 116-62" />
    <path fill="#ffd5b3" d="M699 394l73-1 13 7h-37" />
    <path fill="#050407" d="M831 346l-21-8 1-28 19 17" />
    <path fill="#4f7100" d="M749 66l-41 25 29-76 28-38" />
    <path fill="#6e9a00" d="M780 70v53l19 4-76-41" />
    <path fill="#7b3d1d" d="M632 305l17 1 6 27-41-15" />
    <path fill="#d18d64" d="M548 423l95 53-84-33-2-27" />
    <path fill="#22130e" d="M672 609l70-17-10 11-75 58" />
    <path fill="#3e4144" d="M624 736l49-49-35 16-14 27" />
    <path fill="#7b7460" d="M925 561l-30-3 57-52-9 44" />
    <path fill="#c07245" d="M682 341l-4 5 24 7 14-18" />
    <path fill="#343552" d="M576 758l61 36-100 5 59-43" />
    <path fill="#517300" d="M170 242l-42 38 55-142-77 46" />
    <path fill="#ffe2cd" d="M646 381l19 32 13-24-17-21" />
    <path fill="#efbe9a" d="M531 378l74 14-72-26 3-2" />
    <path fill="#161c00" d="M254 517L-17 408l-9 99 78-43" />
    <path fill="#e9fbff" d="M1015 756l17 43 17-5 6-13" />
    <path fill="#f1b586" d="M772 380l-59-23-28 6 66 2" />
    <path fill="#61635f" d="M567 88l5 25 15-8 17 28" />
    <path fill="#625d38" d="M356 404l9 49-33-60-21-13" />
    <path fill="#383526" d="M489 574l34-71-14-37-49 88" />
    <path fill="#ab5c3b" d="M677 382l42 43-8 6-12-18" />
    <path fill="#8f705b" d="M549 329h16l-18 26v-20" />
    <path fill="#668e00" d="M794-21l57 36 129 10 17-56" />
    <path fill="#aa836f" d="M612 317l-11-10 20 18-88-10" />
    <path fill="#4e3020" d="M552 154l-21 116-21 36 36-113" />
    <path fill="#bfb297" d="M227 492l24-1 1-36-26-13" />
    <path fill="#3c5500" d="M360 100l-3 59 25-76 134 9" />
    <path fill="#131f00" d="M957 142l3 75 95-61-118-63" />
    <path fill="#cfcbd5" d="M354 765l-4 30-20 4-29-44" />
    <path fill="#393321" d="M960 211l-26 50 72 26-26-5" />
    <path fill="#121111" d="M649 336l35 7-27 1-18 14" />
    <path fill="#b1765a" d="M616 422l-102-33 9 39 70-33" />
    <path fill="#001b00" d="M64 191l-11 94-47 15 18-75" />
    <path fill="#7f5336" d="M618 563l-12-22 17-7 62 18" />
    <path fill="#f2be8d" d="M782 372l-16 46 22-22 17-43" />
    <path fill="#052f00" d="M281 160l22 109 77-60-149 11" />
    <path fill="#44410d" d="M278 458l36-84-48 76-35-54" />
    <path fill="#936c57" d="M666 585l78-56-39 24-94 29" />
    <path fill="#597d00" d="M186 233l71-122 34-28 14 26" />
    <path fill="#713e1b" d="M802 388l7 35-9-10-45 17" />
    <path fill="#304f02" d="M825 113l-27 11 43 78-1-14" />
    <path fill="#262419" d="M85 629l-17-63 50 74 38-41" />
    <path fill="#f8b89a" d="M614 408l43-33-29 46-14-8" />
    <path fill="#f2b5aa" d="M715 495l-59-14h-29l3 5" />
    <path fill="#9c5e40" d="M714 324l65-2-71-3-10 21" />
    <path fill="#f4c8ae" d="M665 451l-7 20 75-47-23 32" />
    <path fill="#416000" d="M177 5l-1 85 24 8V39" />
    <path fill="#080706" d="M673 706l60-20-29-26-23 1" />
    <path fill="#f7bb94" d="M562 208l77-25-38 100 24 7" />
    <path fill="#262518" d="M285 567l55 85 43-45-89 39" />
    <path fill="#cc805e" d="M688 307l-111-23 75 20 14 27" />
    <path fill="#f0f4fa" d="M395 648l-8-10-125 75 4-20" />
    <path fill="#5a5e5d" d="M681 112l27 10 9-34-38 41" />
    <path fill="#123400" d="M783 31l-27-56 78 26 1-32" />
    <path fill="#1a171b" d="M758 194l-35-92 35 41-24-41" />
  </g>
</svg>