<svg version="1.1" viewBox="0 0 1024 768" width="1024" height="768" xmlns="http://www.w3.org/2000/svg">
  <g fill-opacity=".5">
    <path fill="#203900" d="M381 165l87-24-115 72-16-127" />
    <path fill="#6e6839" d="M215 412l84 72-61-67-43 29" />
    <path fill="#030404" d="M254 690l17-9-31-27-137 90" />
    <path fill="#0c2900" d="M464 83l14-43 32-9 3 37" />
    <path fill="#ecf2f7" d="M220 745l18-7-37-17 31 78" />
    <path fill="#485050" d="M531 223l-12-20 16-12 14 8" />
    <path fill="#1e180c" d="M954 283l-47 70-19-59 29-40" />
    <path fill="#f0f1f5" d="M455 730l120 24 14 42-394-63" />
    <path fill="#271408" d="M624 477l-14-1-17-11-3 20" />
    <path fill="#80775f" d="M885 504l20-60 46 77-30-32" />
    <path fill="#fdc1a1" d="M725 291l-22 8 28-41 43 53" />
    <path fill="#3a64d6" d="M821 649l9 7-14-8-40-22" />
    <path fill="#06060b" d="M674 103l-18 44 59-24-12 50" />
    <path fill="#b48d7c" d="M481 411l13-12 4 23-1 4" />
    <path fill="#282216" d="M203 642l-5-190 13 154 26 52" />
    <path fill="#0d0e16" d="M589 716l-39-23 124-28 55-64" />
    <path fill="#57565f" d="M607 117l-7-36 18 24 91-10" />
    <path fill="#7b7e82" d="M625 730l7-27-24 2 19 25" />
    <path fill="#1d3b94" d="M873 675l-11-4 21 13-41-18" />
    <path fill="#1a3400" d="M38 153l-40 69-19 60L99 112" />
    <path fill="#301d12" d="M630 163l165 34-143-22 28 11" />
    <path fill="#bd8d71" d="M520 325l54-53-61 41 46 6" />
    <path fill="#0f2101" d="M420 430l57-35-1-114-29 162" />
    <path fill="#a9bedb" d="M528 607l-73 13 27-14 11-44" />
    <path fill="#3251a8" d="M843 664l-35-23 30 17 24 20" />
    <path fill="#101211" d="M854 668l56 31-95-129-17 65" />
    <path fill="#203a00" d="M852 317l-9-94 43 77-40 64" />
    <path fill="#8e97c8" d="M475 716l-10-16 14 40 22-23" />
    <path fill="#d8966a" d="M801 279l-60 25 35-16 31 38" />
    <path fill="#ffc09d" d="M684 383l-10-23 15 61-23-11" />
    <path fill="#467500" d="M922 9l10 10-9 12-137 14" />
    <path fill="#353527" d="M888 579l56 21 20-99-17 63" />
    <path fill="#2f251c" d="M651 667l-13 15-74-20 107-8" />
    <path fill="#904432" d="M497 402l1-41-13 22 20 29" />
    <path fill="#526070" d="M556 716l-47-8-10-15 12-9" />
    <path fill="#8c5436" d="M566 554l-38 22 59 15-8-34" />
    <path fill="#978a6f" d="M286 473l50 13 18-73-37 85" />
    <path fill="#4b4334" d="M772 609l9 13 28-32-29-17" />
    <path fill="#eaedf2" d="M763 583l-28 15 48 104-30-150" />
    <path fill="#c88158" d="M694 461h25l-15 9-12 5" />
    <path fill="#e9a77f" d="M652 349l-29 70 20-53 28-13" />
    <path fill="#6b361b" d="M732 586l5 13-26-22-112 18" />
    <path fill="#f3f3f7" d="M966 737l-163-94 6-1-81 92" />
    <path fill="#49352a" d="M613 382l52 3-87-5h70" />
    <path fill="#244a00" d="M270 168l54-45-72 30-60 110" />
    <path fill="#18190c" d="M258 675l105-31 37-10-97-3" />
    <path fill="#5e392a" d="M533 580l-16-5 72 75 16-24" />
    <path fill="#665b42" d="M213 617l54 42-43-26 17-51" />
    <path fill="#f0b185" d="M767 248l24-23-10 87-43-30" />
    <path fill="#314e00" d="M442 50L402-1 141-16l252 40" />
    <path fill="#020303" d="M603 131l87-4-52 48-47-69" />
    <path fill="#634a3c" d="M594 300v10l-44 8-4-13" />
    <path fill="#f8c8c0" d="M629 481h45l6 8-33-2" />
    <path fill="#130d12" d="M473 234l42 68 2-62 20-8" />
    <path fill="#9b4a2b" d="M641 365l3 7 13-5 25-13" />
    <path fill="#121604" d="M983 700l-13-146-19 156 104 66" />
    <path fill="#273f00" d="M942 131l4-6 57-39-68-18" />
    <path fill="#9d5a3d" d="M565 350l17 18 30-13-67-2" />
    <path fill="#b05a3a" d="M678 494l8 7-24-3-77-9" />
    <path fill="#eaf4fa" d="M1005 751l-33-23 31 27 6 3" />
    <path fill="#231b0a" d="M819 355l-20 41h6l-5 26" />
    <path fill="#eaba9b" d="M616 371l-58-13-9 5 22 12" />
    <path fill="#c7805f" d="M777 400l-16 32-39-13 39 5" />
    <path fill="#fbffff" d="M516 322v10l20-3" />
    <path fill="#062500" d="M404 206l72 73-7-92-37-25" />
    <path fill="#505b3f" d="M790 129l24 5-24 11 1-57" />
    <path fill="#030505" d="M372 545l84 74-61 9-16 11" />
    <path fill="#8b95bc" d="M463 713l21-40-56-23 7 32" />
    <path fill="#040603" d="M68 786l111-1 15-35-2-157" />
    <path fill="#7c848f" d="M658 668l23-4-10 10-17-1" />
    <path fill="#fdfdf3" d="M412 679l-8-19 33 30-20-5" />
    <path fill="#2e2a28" d="M533 188l24 11-15-17-29-2" />
    <path fill="#133100" d="M424 382l-2-35 54-12 6 64" />
    <path fill="#966b48" d="M724 520l27-33-8 107 14-61" />
    <path fill="#738818" d="M979 297l-10 28 37 3 12-19" />
    <path fill="#604137" d="M647 441l20 3-66 17 24-24" />
    <path fill="#3c4037" d="M500 458l-33 32-28-41 37-53" />
    <path fill="#554d39" d="M306 516l64-69-27 7 3 52" />
    <path fill="#445100" d="M-31 61v9L92 25H45" />
    <path fill="#4c4338" d="M318 607l18 14 18-21-16-34" />
    <path fill="#1b1816" d="M541 338l2 24 8 10-9-39" />
    <path fill="#031f00" d="M128 493l-49-13 13-207 44 222" />
    <path fill="#262214" d="M827 397l13-31-28 102 41 59" />
    <path fill="#121316" d="M31 731l9 25 10 43-81-42" />
    <path fill="#060402" d="M679 143l60 26 11 27 85-30" />
    <path fill="#3e6200" d="M69 263l4-57 3 8 39-25" />
    <path fill="#2c4600" d="M687 98l-33-34-30 26-6-121" />
    <path fill="#e8ac81" d="M778 339l16-21-19-105 25 136" />
    <path fill="#839ed3" d="M426 678l-11-27 10-27-31 14" />
    <path fill="#3b3b38" d="M737 335l23 3 16 3 23 8" />
    <path fill="#9e7758" d="M518 567l7-32-3-45 18 81" />
    <path fill="#424342" d="M623 324l-8 1-90-3 59-3" />
    <path fill="#e7b289" d="M772 417l-3 15-43 8 47 20" />
    <path fill="#262621" d="M319 551l56-88 31-33-34-4" />
    <path fill="#6c8300" d="M89 8L7 37l-18-12 79-56" />
    <path fill="#a2957c" d="M899 529l26 15 6-51-21 15" />
    <path fill="#3d1505" d="M660 438l36-4 2 6-23-19" />
    <path fill="#919a29" d="M1008 62l7 19 17 15 23-48" />
    <path fill="#b07f6b" d="M793 333l-68-28 29-2 16 29" />
    <path fill="#cb8a65" d="M816 370l16 12 3-7 1-4" />
    <path fill="#030304" d="M559 670l-50 20 31 6 138-12" />
    <path fill="#072b00" d="M852 235l1-2 17 65 44-68" />
    <path fill="#192400" d="M238 390l-101 82 51-92 90 64" />
    <path fill="#36312e" d="M824 282l-7-24-16 22 2 2" />
    <path fill="#445203" d="M959 336l41 19-72-7 39-55" />
    <path fill="#f4b98b" d="M656 355l4-7 20 24-10-22" />
    <path fill="#cd8c59" d="M709 496l9 46-21 18 29-67" />
    <path fill="#1d1e1d" d="M439 615l28-124 24-14-36 145" />
    <path fill="#8297b8" d="M499 616l61 33 17 12 28 13" />
    <path fill="#afc1dc" d="M504 542l-20 57 39 15-13-48" />
    <path fill="#f8c8b2" d="M675 516l7 3-34 15-10-20" />
    <path fill="#171613" d="M694 338l-17-2 5 34-14-28" />
    <path fill="#23221a" d="M831 566l27 33 10-141-89 105" />
    <path fill="#94b4e2" d="M422 630l95-25-56 10-61 44" />
    <path fill="#f8d4bd" d="M727 389h26l-70-20v-11" />
    <path fill="#9e7d59" d="M802 424l-3-11-9 32-18 58" />
    <path fill="#f9fbf9" d="M777 652l-96 6 42-28 15 54" />
    <path fill="#edbc98" d="M784 474l13-7 5-38 15-7" />
    <path fill="#deb999" d="M569 328l20 1 15-3-36-1" />
    <path fill="#668100" d="M920 42L905-1l120 35-38 29" />
    <path fill="#4b2516" d="M650 425l5 32-50-29h46" />
    <path fill="#cbd4e3" d="M209 717l-7 6 23 54-24-36" />
    <path fill="#7088b9" d="M470 597v19l-14 15 19 29" />
    <path fill="#dd9f7c" d="M697 349l31 39-29-21-18-28" />
    <path fill="#2d4300" d="M508 72l-83 11 139 18 4-18" />
    <path fill="#4f452a" d="M250 656l47-29-4 13-35 23" />
    <path fill="#dce0e7" d="M758 683l-15 23-27-79 15 40" />
    <path fill="#415501" d="M527 73l58 24-30-90-12 64" />
    <path fill="#756a44" d="M263 494l28-74-5 54-28 43" />
    <path fill="#f8c8ad" d="M713 437l34-9-48 4-2 19" />
    <path fill="#f7caac" d="M629 376l7-23-17 7-25 19" />
    <path fill="#252b45" d="M1016 764l-30-18 69 49-58 4" />
    <path fill="#e7b48b" d="M721 342l42 7-21-13-35 1" />
    <path fill="#302d0e" d="M886 303l-50 89-7-42 55-22" />
    <path fill="#232900" d="M296 385l-17 55-10-18 76-52" />
    <path fill="#6e7ba3" d="M566 707l-63 16-24-53-1 47" />
    <path fill="#7f8bb1" d="M730 620l-35 28 33-47-38 48" />
    <path fill="#f29978" d="M623 483l5 7 69 8-25-7" />
    <path fill="#607b00" d="M379 111l9 33 78-34-80-18" />
    <path fill="#ac603d" d="M709 358l19 12 25 4-33 6" />
    <path fill="#dea482" d="M563 188l10 110-32-54-1 7" />
    <path fill="#132b00" d="M28 456l12-5-52-257 6 209" />
    <path fill="#150f09" d="M728 347l20 12-41-3-5-3" />
    <path fill="#4a7000" d="M849 228l11-118-23 81 5 30" />
    <path fill="#6475a5" d="M968 735l40 29-37-25-92-80" />
    <path fill="#4d6200" d="M13 161l-44 172 24-127v-60" />
    <path fill="#396600" d="M838 28l-65 12 31 26 3-97" />
    <path fill="#bf8e74" d="M593 323l-21-7 35-2 15 9" />
    <path fill="#2c2c10" d="M159 596l-29-57-31-21 20-31" />
    <path fill="#608600" d="M297 135l-25-47-11 29 3 16" />
    <path fill="#6c6a68" d="M589 113l-4-16 12 25v7" />
    <path fill="#4b1c0b" d="M661 609l-63 3-15-17 79 51" />
    <path fill="#526e00" d="M152 94l-42 15 75 124-84-72" />
    <path fill="#0f1215" d="M781 344l10-1-10 27-4-34" />
    <path fill="#b06448" d="M719 414l-19 4 41 2-55 15" />
    <path fill="#5e2b19" d="M650 512l-18-10 31-6 8 5" />
    <path fill="#618600" d="M743 65l77 45-11-68 85 20" />
    <path fill="#191812" d="M989 397l-45 311 22-234-7-69" />
    <path fill="#090a10" d="M609 734l-40-36-38-20 66 56" />
    <path fill="#596800" d="M944 129l-20 33-1-66-63-21" />
    <path fill="#746952" d="M269 469l37 32 44-13h-82" />
    <path fill="#475900" d="M458 102l47-5-12 71-22 4" />
    <path fill="#3d3524" d="M221 500l57 22-7 68-39-20" />
    <path fill="#46464c" d="M623 799h-17l16-63 11 6" />
    <path fill="#7b553f" d="M559 358l-13-13 33 1h11" />
    <path fill="#13171d" d="M774 384l-6 8 13-27 4-19" />
    <path fill="#e2ab7d" d="M710 356l65 16-1 10-23-6" />
    <path fill="#22090a" d="M717 483h-37l-1-5h15" />
    <path fill="#232325" d="M413 488l-29-6 88-9-22 11" />
    <path fill="#786f58" d="M256 597l-13-16 44 29-2 22" />
    <path fill="#5c1a19" d="M635 466l-11 9 43 2-18 5" />
    <path fill="#789100" d="M923 109l-22 40-18-18 10-20" />
    <path fill="#090709" d="M533 250l-5 4-38 78-16-74" />
    <path fill="#0d0908" d="M490 178l-7 43 40-19 30-87" />
    <path fill="#ebb589" d="M702 486l-2 68-12-4 2-61" />
    <path fill="#1c0a00" d="M647 429l-22 1 6-9 13 6" />
    <path fill="#f0c39e" d="M772 379l-32 18-7 20 43-58" />
    <path fill="#a6c8fe" d="M975 728l32 21 5 5-34-21" />
    <path fill="#2b271d" d="M65 591l31-33v44l18 35" />
    <path fill="#6f6847" d="M224 626l21 24 41-22-13 25" />
    <path fill="#3a392c" d="M871 567l-10-59 55 80 11-12" />
    <path fill="#202320" d="M345 641l5 18 28-64-6-11" />
    <path fill="#355200" d="M355 172l-17 34-47-19 11-25" />
    <path fill="#321c1d" d="M547 618l-18-24-11-20 97 107" />
    <path fill="#715d43" d="M801 377l22-18 12 40-13-44" />
    <path fill="#414446" d="M483 601l-14 15 1-39 18-18" />
    <path fill="#3c6200" d="M330 51l-50 14 16 35-7 58" />
    <path fill="#c98459" d="M563 488l-1-22 24-15-12 25" />
    <path fill="#9eb4dc" d="M467 658l67 15 44-17-40-32" />
    <path fill="#99776a" d="M598 550l-50-19 43 38 39 3" />
    <path fill="#7f4e31" d="M573 504l46-14-15-13-19 56" />
    <path fill="#2d2b1d" d="M521 499l-15-30v-21l-44 49" />
    <path fill="#65421f" d="M861 332l-60 80-31-3 19 20" />
    <path fill="#1e1d11" d="M62 495l-93 45v79l58 1" />
    <path fill="#ae6845" d="M686 322l-45-13 19 17 28-31" />
    <path fill="#7a4827" d="M543 266l-18 15 10-39-4-8" />
    <path fill="#f2c7a8" d="M758 443l10-4-37-16-11 6" />
    <path fill="#f1bc9f" d="M551 286l32 1 176 10-137-26" />
    <path fill="#e8b28d" d="M609 459l-28-3 10-25-38-16" />
    <path fill="#1b2600" d="M996 744l-36-39 18-33 77 19" />
    <path fill="#91a1c0" d="M495 557l30-35-35 55 27-41" />
    <path fill="#507302" d="M840 110l-89 7h21l68 26" />
    <path fill="#0d0d02" d="M61 478l-8 18 32 79-1-102" />
    <path fill="#d38a69" d="M817 377l13 1h2l-13-12" />
    <path fill="#5c5c62" d="M703 122l-21-38 43 52 8-12" />
    <path fill="#1c2024" d="M521 200l-38 37 55-23-52 34" />
    <path fill="#87563e" d="M686 549l-50-11 19 48-49-4" />
    <path fill="#95a9d7" d="M723 618l-43 40 28-21 22-11" />
    <path fill="#171618" d="M734 162l-85-55 71 37 29-42" />
    <path fill="#232a42" d="M546 695l14 5 33 41-44-35" />
    <path fill="#2d2421" d="M625 385l22-33v11l-15 14" />
    <path fill="#0e1105" d="M188 407l-22 223 98 48-73-58" />
    <path fill="#0f3100" d="M416 73l-39-41-125 178L367 88" />
    <path fill="#496300" d="M970-31l85 43-38 24-17-3" />
    <path fill="#1e4700" d="M350 2l-41 110 61-79 86 27" />
    <path fill="#3b4a00" d="M891 24l-9 30 29 47 15-23" />
    <path fill="#584742" d="M733 392l-20 1 26-4 34 1" />
    <path fill="#1c3903" d="M483 235l8-66-10 11-44-40" />
    <path fill="#a2785a" d="M754 532l-8 57 7-11-18-65" />
    <path fill="#020203" d="M763 181l46-42-11 2-22 21" />
    <path fill="#9e715e" d="M732 557l-31 15-41 13 76-15" />
    <path fill="#bbbed0" d="M322 667l-95 40 93-43 44-9" />
    <path fill="#142670" d="M903 680l-5-2 26 19 56 32" />
    <path fill="#a2633e" d="M543 428l13 39 24-12 15 14" />
    <path fill="#14150a" d="M351 478l7 77 13 68 9-151" />
    <path fill="#f3bf98" d="M766 410l-95-29 66 29 64-34" />
    <path fill="#233c00" d="M620 88l70-119h-96l76 109" />
    <path fill="#050403" d="M144 799l70-93-169-79 6 137" />
    <path fill="#98928e" d="M682 338h-4l2-4-31-1" />
    <path fill="#2e3d0e" d="M1033 282l-8 8 7-31-75 37" />
    <path fill="#e7edff" d="M716 726l-50-1-1 11 38-16" />
    <path fill="#384c00" d="M640 71L508 30l81-51 44 36" />
    <path fill="#e7ac87" d="M691 455l-44 18 75-18 16 29" />
    <path fill="#ca9c6c" d="M787 455l-18 31-5-34 20-30" />
    <path fill="#aa7758" d="M550 301l-12-51-4 46 4 26" />
    <path fill="#0c1400" d="M-31 70l80-23-14 121 56-65" />
    <path fill="#ac8664" d="M532 368l-31-42 34 78-22-55" />
    <path fill="#764829" d="M774 434l-2-21 9-3 29-34" />
    <path fill="#516a00" d="M1008 327l-45 18 57-7 35-145" />
    <path fill="#0d0f19" d="M590 794l-1-28 2-24-14 44" />
    <path fill="#080908" d="M836 197l2 17-4 136-23-204" />
    <path fill="#996b54" d="M490 343l-11 28 8 12 15-68" />
    <path fill="#403c30" d="M507 505l-7-5-20 56 40-27" />
    <path fill="#eef0f6" d="M452 706l24 27-109 17 31-46" />
    <path fill="#212012" d="M116 609l-6 31 46-2 11-101" />
    <path fill="#c37248" d="M689 405l17-8v25l-34-54" />
    <path fill="#0c0e07" d="M1006 746h49l-129-47-49-68" />
    <path fill="#5e3a22" d="M715 193l63 1-54-7 22-1" />
    <path fill="#daa887" d="M668 204l-1-13 28-5-47 32" />
    <path fill="#484952" d="M604 731l-9-31 15 25 11-25" />
    <path fill="#5a7400" d="M86 22L63 85l-6-20 65 16" />
    <path fill="#2f352a" d="M605 82l78 39-22-5-58-49" />
    <path fill="#f3f5f9" d="M847 665l-2-2-37 53-15-78" />
    <path fill="#d3a07a" d="M533 330v72l11-9-28-31" />
    <path fill="#645e4b" d="M939 451l-96-24 5-30 81 78" />
    <path fill="#240a00" d="M688 436l6 1-48-1 35-10" />
    <path fill="#45413b" d="M582 381l-22-9 56 12 3-4" />
    <path fill="#728707" d="M417 110l-29 10-5 9 30 8" />
    <path fill="#515345" d="M466 452h24v-26l-23 6" />
    <path fill="#e2e6f0" d="M909 706l43 47-32-55 37 21" />
    <path fill="#405a00" d="M62 167l77-60 25 47 53-45" />
    <path fill="#9d4828" d="M806 428l-4-14 26-24-13 15" />
    <path fill="#fcc9ad" d="M711 435l12 37-36-70-41-3" />
    <path fill="#344e00" d="M131 50l5-2 47-38-43-12" />
    <path fill="#cb8157" d="M601 407l10-14 7-10 25-4" />
    <path fill="#353222" d="M933 422l25 65-6-85-100-40" />
    <path fill="#c98a5b" d="M527 340l-7 7 24 14-11-26" />
    <path fill="#656768" d="M641 88l2 9-4 19 11-5" />
    <path fill="#50524f" d="M754 111l14 3 8 1-36 15" />
    <path fill="#211c1a" d="M196 564l6 85 25-90-35-57" />
    <path fill="#af7053" d="M771 340l20-6-54-14 6 6" />
    <path fill="#8994d4" d="M552 750l-24-23 53 34-10-12" />
    <path fill="#857f82" d="M736 716l3-37-19 39 36-21" />
    <path fill="#f8e2d1" d="M666 210l44 27 31-6-13-16" />
    <path fill="#9d5b31" d="M711 474l5-6 5 11 14 45" />
    <path fill="#2e231a" d="M621 350l-2-8-81 2 70 2" />
    <path fill="#161515" d="M686 379l-13-31-31-2 26-6" />
    <path fill="#1d2c2c" d="M551 325l-24 12 28-17 14 2" />
    <path fill="#3d6400" d="M202 114l68 39 68-94-53 81" />
    <path fill="#5676cc" d="M811 643l-46-18 17 5 46 24" />
    <path fill="#4c6400" d="M51 43l67-12 29-41-41-11" />
    <path fill="#000100" d="M531 132l1 23 20 33 54-26" />
    <path fill="#4e4838" d="M873 494l16-75 16 6-33 103" />
    <path fill="#2e2d20" d="M358 577l3 9-82-1 37-25" />
    <path fill="#e2a37b" d="M600 446l-34-9-20-5-1-12" />
    <path fill="#0e0e11" d="M650 721l-28 14 17 15 61-84" />
    <path fill="#aa846d" d="M548 326l37 98-32-86-5 23" />
    <path fill="#cdd6f2" d="M258 688l-48 33 29 65-31-68" />
    <path fill="#3f4312" d="M344 378l21 41-42-44-39 43" />
    <path fill="#496b00" d="M402 158l-19-7 103-38-34-17" />
    <path fill="#655348" d="M779 383l-35 9-47-1 72 1" />
    <path fill="#709000" d="M1001 55l-36-45 32-16-79 4" />
    <path fill="#a56340" d="M551 190l69-2-45-6-9 10" />
    <path fill="#050404" d="M418 496l27-20 16 38-41 113" />
    <path fill="#f2f1f6" d="M902 695l-61-25-252 129h440" />
    <path fill="#141415" d="M787 346l-17 43 9-12 6-15" />
    <path fill="#293600" d="M975 705l18-15 61 27 1 13" />
    <path fill="#ced3e8" d="M244 799l-3-70-11 18 8 45" />
    <path fill="#f5cbb1" d="M636 282l68 5-39-82-38 70" />
    <path fill="#0f0f0d" d="M916 681l-24 6-46-22-40-68" />
    <path fill="#3f5e00" d="M822 166l103-13-29 64 40 7" />
    <path fill="#161810" d="M1027 271l-29-33-16-13 8 49" />
    <path fill="#111514" d="M695 334l-49 12 29 1-3 2" />
    <path fill="#557900" d="M89 252l2 10 38 2 34-11" />
    <path fill="#162000" d="M1024 334l31 49-77-25-10 60" />
    <path fill="#5e5c5a" d="M603 133l-2 2-10-13-5-16" />
    <path fill="#6e6e74" d="M628 799l-14-64-7-3 1 60" />
    <path fill="#c77b51" d="M632 349h8l-19-19-22-1" />
    <path fill="#091600" d="M1055 100v87l-82-74 7 59" />
    <path fill="#292930" d="M592 103l25-9 19 13-36-1" />
    <path fill="#2d4502" d="M651 97l-49-53-54 42 85-15" />
    <path fill="#507800" d="M722 86l-40-4 135-40 1 5" />
    <path fill="#8e5335" d="M639 178l27 1-57 5-54 4" />
    <path fill="#010625" d="M583 663l3-7-8-7-35-40" />
    <path fill="#010e02" d="M377 212l-32 157 27 59 53-128" />
    <path fill="#cca68a" d="M604 347l10 2-16 2-23 5" />
    <path fill="#63412b" d="M700 403l-24-37-3-10 14 23" />
    <path fill="#000003" d="M515 569l-5-14 7-13 2 4" />
    <path fill="#161414" d="M1004 755l21 26-34 12 50-4" />
    <path fill="#f1f2f6" d="M277 675l-40 101 2 20 55-87" />
    <path fill="#f1b99b" d="M690 475l-35-19 51-4-16 2" />
    <path fill="#4a577e" d="M577 739l-12-33 4 46-7-38" />
    <path fill="#95896e" d="M281 632l-48 3 17-41 17 7" />
    <path fill="#4f331c" d="M635 635l-61-4 26 29 59-21" />
    <path fill="#4e6200" d="M709 17l3 1-92-49 70 56" />
    <path fill="#807e88" d="M964 732l-22-17 27 15-2 2" />
    <path fill="#6b666b" d="M703 708l33 2-8-10-24 1" />
    <path fill="#72482b" d="M578 336l11 10-4-18-43 21" />
    <path fill="#244c00" d="M286 242l-47 14-3 1 30-62" />
    <path fill="#fbcea9" d="M790 387l-50 9 41 10-3-9" />
    <path fill="#4d4835" d="M905 426l38-1-9 54 25 10" />
    <path fill="#a79c73" d="M341 416l8 20-34-33-14 23" />
    <path fill="#3c5d00" d="M757 10l-19 40 21 12 32-21" />
    <path fill="#e5ae8e" d="M670 282l20 1-110 3 116 15" />
    <path fill="#e6bca0" d="M711 324l44 8-35-1 8-7" />
    <path fill="#f4f6f5" d="M758 636l-26 39-20-30 52-76" />
    <path fill="#050504" d="M670 714l63-37-6-5-37-10" />
    <path fill="#f1c39f" d="M733 342l-12-2 1-5 40 10" />
    <path fill="#4a4c4e" d="M681 128l13-19-17-22 17-3" />
    <path fill="#030302" d="M-27 133l109-25-39 32-13-81" />
    <path fill="#24242a" d="M707 135l-36-37 11 44-15-44" />
    <path fill="#383100" d="M186 473l11-60-3 50 12 37" />
    <path fill="#040201" d="M725 183l14-39-61 42 26-60" />
    <path fill="#bfcbce" d="M523 327l-2 10-5-3-18-16" />
    <path fill="#626662" d="M654 96l40-6-39-5 17 35" />
    <path fill="#4a535b" d="M517 212l-12 11 11-2 4-14" />
    <path fill="#082f00" d="M160 297l21-54 73 75-18-104" />
    <path fill="#1f160e" d="M609 309l-25-3 40-9 9 8" />
    <path fill="#505051" d="M624 104l-1 23-21-50 7 54" />
    <path fill="#887b61" d="M210 484l58 13 16-34-54 38" />
    <path fill="#3b5500" d="M980 91l37 38-21-49-76-35" />
    <path fill="#ba8052" d="M600 517l21 14-11 13-24-16" />
    <path fill="#343612" d="M948 429l-25-92 21-41 6 80" />
    <path fill="#3c170a" d="M688 485l37 2-21 4-1-17" />
    <path fill="#002000" d="M436 396l-18 9-32-49 40-18" />
    <path fill="#1d150a" d="M800 402l11-33 1-11 5 17" />
    <path fill="#453e2f" d="M811 590l-53-70 11-15-20 49" />
    <path fill="#c17f65" d="M582 402l-29-19-14 14 53 14" />
    <path fill="#67612d" d="M320 392l-38 45-9 33 30-72" />
    <path fill="#6371ac" d="M948 721l-79-45 46 25 13 13" />
    <path fill="#eff0f5" d="M869 799l-98-41 143-69-7-4" />
    <path fill="#f0f0f5" d="M951 715l-195 20 195 64-12-92" />
    <path fill="#2d5000" d="M458 137l1-12-84 40 39 4" />
    <path fill="#daa27e" d="M579 395l15 5 14-17-55-2" />
    <path fill="#1c3f00" d="M76 278l-17-50 52-34-55-27" />
    <path fill="#d8e1f2" d="M777 625v1l-12-24-9 60" />
    <path fill="#3f3926" d="M810 460l13 42-4-4-46 72" />
    <path fill="#35352e" d="M387 438l10 48-35-71-9 51" />
    <path fill="#4c536b" d="M759 550l-9 14 20-12-21 24" />
    <path fill="#daa77f" d="M763 389l12-44 4 19-5-2" />
    <path fill="#5d7600" d="M116 110l28-3 33-63 14 28" />
    <path fill="#cde2ff" d="M985 736l70 46-38-23-25-15" />
    <path fill="#313533" d="M630 330l-76-13 79 11 26 20" />
    <path fill="#c67750" d="M742 465l-5 13-11-16-2-15" />
    <path fill="#99a4c7" d="M397 646l77 3-56 56 34-6" />
    <path fill="#2a4795" d="M990 736l48 34-85-58 9 4" />
    <path fill="#999ed6" d="M765 694l-38 36-32-13 40 8" />
    <path fill="#956d4e" d="M568 530l19 15 43 26-65-70" />
    <path fill="#1e1d22" d="M716 100l-5 67 11-30 1 6" />
    <path fill="#26160b" d="M700 304l28 2 9 10h-28" />
    <path fill="#b0a284" d="M293 441l13 12 22 32-37-11" />
    <path fill="#13130d" d="M794 635l171 47-139-77-46 24" />
    <path fill="#f9ccb0" d="M583 411l26 16-15 5-41-17" />
    <path fill="#4d432c" d="M298 485l-31 36-60-17h52" />
    <path fill="#242d09" d="M534 159l-52-27 49-1-3 38" />
    <path fill="#051803" d="M377 234l125 109 5 30-34-100" />
    <path fill="#494c4a" d="M415 437l-29 2 35 38 30-5" />
    <path fill="#254a00" d="M202 240l20 4-34-16-38 58" />
    <path fill="#dfa27e" d="M724 455l-12-27 49 29-23-18" />
    <path fill="#1b1b1c" d="M537 252l-49 20 39-66-37 42" />
    <path fill="#2f1b0f" d="M600 172l-16 10-62 17 66-26" />
    <path fill="#794d3a" d="M647 441l-59 27 29 5-7-33" />
    <path fill="#060406" d="M513 303l-24 29 2-89 18 39" />
    <path fill="#04050b" d="M573 707l-8-45 32 12 52 22" />
    <path fill="#677255" d="M761 119l-6-22 1 32 8-11" />
    <path fill="#323a30" d="M511 337l-17-35 23 43 7-5" />
    <path fill="#a15d38" d="M488 346l3-25-6 52-7-37" />
    <path fill="#041b00" d="M344 316l-27-11-62 107 15 24" />
    <path fill="#6f5947" d="M715 394l-35-16 17 10-19-7" />
    <path fill="#c59468" d="M786 447l13-38-9 62-30-68" />
    <path fill="#4b4a1d" d="M201 435l-7 5 10-19 44-12" />
    <path fill="#b3694c" d="M622 423l-7 1 27-16 12 13" />
    <path fill="#1c1d15" d="M580 101v35l-17-44-10 39" />
    <path fill="#141506" d="M218 516l-77 14 45-68 16 36" />
    <path fill="#a1805a" d="M780 480l-52 55 27-7 39-79" />
    <path fill="#4d4737" d="M864 374l35 24-61-6-2 40" />
    <path fill="#ecb79f" d="M628 462l29-1-6 10 45-15" />
    <path fill="#e3a47c" d="M714 408l-44-25 9 8 42 1" />
    <path fill="#707274" d="M676 102l62-4-20 11-8-17" />
    <path fill="#1f231b" d="M776 144l-44 3 62-10-14-20" />
    <path fill="#1b2200" d="M75 494l85-22 64-80L99 527" />
    <path fill="#fac7a0" d="M765 226l-34 17 8-50-4 7" />
    <path fill="#829d00" d="M875 112l-15-47-4 1-23 16" />
    <path fill="#002000" d="M302 251l-50 55 186-107 16-23" />
    <path fill="#f8dfd1" d="M677 404l-19 5 8-44-9 7" />
    <path fill="#648300" d="M239 168l-33 48 35-87-51 2" />
    <path fill="#3d3b38" d="M570 319l27 7 5-6-61 5" />
    <path fill="#793619" d="M691 337l-8-32 22 22-19-1" />
    <path fill="#322d1d" d="M352 505l-82 45-55-39 93-1" />
    <path fill="#4a4524" d="M224 644l48 9-34-4-25-38" />
    <path fill="#916743" d="M725 511l-3 37 40-67-39 35" />
    <path fill="#101b73" d="M231 700l-7 5 46-24-30 13" />
    <path fill="#1c4300" d="M191 119l-34 6 15-37 12 18" />
    <path fill="#817948" d="M203 460l-8 27 6-42 16-15" />
    <path fill="#a14e22" d="M743 370l5 5-9 3-20-9" />
    <path fill="#573328" d="M691 446l-15 2-47 9 3-21" />
    <path fill="#d6dad7" d="M827 349l-16 5-2-1-9-2" />
    <path fill="#ae7a54" d="M768 354h11l-27-16 15 21" />
    <path fill="#34311d" d="M318 593l-48 67 22 3 13-54" />
    <path fill="#343534" d="M772 160l39-29-39 25-2 4" />
    <path fill="#666962" d="M798 133l7 1-14 10 10-23" />
  </g>
</svg>