<svg version="1.1" viewBox="0 0 1024 768" width="1024" height="768" xmlns="http://www.w3.org/2000/svg">
  <g fill-opacity=".5">
    <path fill="#fefefe" d="M162.7 123l-2.5 12.4-48-2 81.8 23.2" />
    <path fill="#444443" d="M843 699.4l-44.8-1 1.5-26.4-4.7 29.3" />
    <path d="M81 435l-28.5-21L66 397.2l-7.5 32" />
    <path fill="#a55dcc" d="M760.2 171l3.2 16.8-19.7 5 31.5.3" />
    <path fill="#a5d9ac" d="M518.5 594l65.6-6.3 40 8-53-.4" />
    <path fill="#9d4aca" d="M763 201l9.4 4.6-18.2 3-2-3.7" />
    <path fill="#80d2b1" d="M860.7 580.4l2.4-2.2-10 8 61 .5" />
    <path fill="#fff" d="M916 606l-29 177.4 12-107-222.5-80" />
    <path fill="#94c507" d="M355.7 514l39.2 53-32-38.6-1 42" />
    <path fill="#fff" d="M184.4 409.8l-6.2-.7-4 24 11 31" />
    <path fill="#2670c9" d="M757.4 709.4l.5 1-13 16.5 5-15" />
    <path fill="#080808" d="M415 138.3l17-13.5 2.2-24.7 4 29" />
    <path fill="#fff" d="M819.5 652.7l-25.5 34-56.4-92.6 5.7-112" />
    <path fill="#b471d7" d="M236.6 286.2l11.4-13-39 10.6-5-8.4" />
    <path fill="#fff" d="M55 636l25.8-5.6v17.8l-21-18" />
    <path d="M465.3 331.3L472 360l-11.8-7.8.4-19" />
    <path fill="#fff" d="M138.3 620.6L134 623l1 46.4 3.2-28" />
    <path fill="#bd4454" d="M45 633.4l25.6 9-7 8.5 5-14" />
    <path fill="#fff" d="M141.7 105.3l2-84.5 39.7 102.5 12-46.8m137.2 263.2l-8.5-5h-1l1 70.3m556-57.2l112 75.4L962 284l-31 72.8" />
    <path d="M149 102l13.4 23-.6-16.2-29 .5" />
    <path fill="#96d8b4" d="M693 610.4l8-20.6-54.5 3 62.4 4.6" />
    <path fill="#fff" d="M377.4 101.4l-16.8 1.4 80-51-69.8 61.4M105 410.6l8.2-2.8 4.2 5.8-.3 90m312-22.2l118-52-10 13.2 42 8.2M77 95.8l-5 1.5-5.8 10 11.5 3.7m111 526.7L153.3 780l43-147-11-2.8" />
    <path fill="#bc3648" d="M201 633.8l-3.4 13.4-10.4-7 23-10.8" />
    <path fill="#99d9b6" d="M652.2 602l-1.4 14.6-20-4.8 78-8.3" />
    <path fill="#fff" d="M745 353.3l-3.2-51 5.5-33.5 6.3 41.3" />
    <path fill="#444646" d="M393.3 636.5l-50.2 3 65-.3-18-10" />
    <path d="M349 408.4l6 12.8-18.6-19.5.7-15.6" />
    <path fill="#fff" d="M621.4 493l36.7 1.7 42 33-40-42.7m-453-91.8l-85 12 13-48.8 86 55.6" />
    <path fill="#dadb96" d="M709 333.7l39.7-3-51.3-3L654 330" />
    <path fill="#4d4d4d" d="M448.8 709l3.5 8.2L454 706l-1.6-9" />
    <path fill="#575f5f" d="M260 653.5l-12-4.2-2.8-5.8 12 19" />
    <path d="M242 433.5l20 .2-28.7-10.6 9.4-19" />
    <path fill="#e1d989" d="M765 259l52-6.2 37.7-13.8-36.7 20.4" />
    <path fill="#fff" d="M255 447.3L233 468l-6.7-75.5 8.6 35.2M699 671l40.5-15.6-24.5 36.4 22 .2" />
    <path d="M237.2 404.5l-.7 6.3 26-5.5-10-2.4" />
    <path fill="#656665" d="M474.6 277.5l-.3-21.6-3 9-2.3 20" />
    <path fill="#fff" d="M710 749.5l-25.8-73.3 16.6 86.3 9.8-61.6" />
    <path fill="#4b494c" d="M554 279.7l15 1-19.4 2 2.2 11" />
    <path fill="#fff" d="M286 150l42.3-98.6-19.8 72.7 31 45m74.8 167l1.4-72-15.5-51 55.8-6m534.6 279l-78 6-66.6-1 21.3-5" />
    <path d="M512 104l-6.4 32 11.3-12.3v-7" />
    <path fill="#374240" d="M299.8 631.4l3 15.3 21.7-3.6-16.6 7" />
    <path fill="#fff" d="M453.3 434.7l-26.2 40 24-53 7-144" />
    <path fill="#575856" d="M106.5 272l9.6-9.7 8-1.6-7-4.2" />
    <path fill="#fff" d="M8.5 359.3l115.7 31.5-17-72.5 3 41.3M278.8 408l-25.6 7.8-13 3.5 43.7-3.7" />
    <path fill="#cb4356" d="M226.4 636l-19 15.6 18-9.5-14.6-19" />
    <path fill="#fff" d="M88.4 511.6L39 442l16 173.8L63.3 505" />
    <path fill="#3e9896" d="M103.7 724l13.6-6.7 6-16 2.2 22.8" />
    <path fill="#fff" d="M560.4 259.5l-3 10.6 14.4 3 14.2 45" />
    <path fill="#bd2438" d="M204.7 635l2 9 2.5 6 .5-23.7" />
    <path fill="#fff" d="M277.6 307.7l-.2-75.4-11.5-31.7 24 16.6" />
    <path fill="#ad64d5" d="M359 286l-13.7-11.4-1-46.6-4 53" />
    <path fill="#fff" d="M333 612.4l-13.5 36 81.6 135-80-153" />
    <path fill="#3d3e3c" d="M878 699l61 2.4 19.7-1.4-19.7-1.2" />
    <path fill="#020201" d="M780.5 688l1.2 7.3 17.8-2.5-10.8 3.4" />
    <path fill="#7db800" d="M162.2 519.7l9.2 14.7-.5-11.5-11-9" />
    <path fill="#fff" d="M314.2 334l-9.4.7-2.5 39L313 357m269.4-249.5l215-95-340 90.5 79.7-2" />
    <path fill="#fafafa" d="M285.4 634l-9 2.8-2.4-.5 1.4-7.2" />
    <path d="M551 132l.5-21.3-5-7.8-9.5-4" />
    <path fill="#3e393a" d="M57.4 721l14.8 4.2 9.3-6.3-21.2 1" />
    <path fill="#8bc004" d="M59 551.4l6.7 12.8 12.4 1L57 550" />
    <path fill="#cddfa9" d="M686.8 430.6l-33 3.3-2.8-48-4 57" />
    <path fill="#fff" d="M170.8 673l12-49.2-2 72.2-37.6 9m227-508.6L368 261l-27.7 91 32.2-74" />
    <path fill="#b7d695" d="M853.2 412.4l-2.5-63.5 2-29 3.7 65" />
    <path d="M123.7 354.6l-.3-24.6-9.8-5 7.2 27" />
    <path fill="#fff" d="M332.4 695.6l-35.2 31.2 3.8-28.3 30.3 14.3" />
    <path fill="#beddaa" d="M652.8 468.7l19.7-2-24.6-12.3v84" />
    <path fill="#b070d3" d="M271 185.8l12.4-11.7 44.8 13-2-11" />
    <path fill="#fff" d="M474.4 601.5l107.2-7L722 601l-100 1M144 131l10-6.6-.7-13-6.3-3m294.6 37.8l25 2.8-19-20-12.4-68" />
    <path d="M168 103.8l1.7 27.4 8.3-3-7.3-28.2" />
    <path fill="#fdffff" d="M301.5 672.2l-4.6-90.8-1 82.4-110 43" />
    <path fill="#fff" d="M471.4 247.4l8 38.6 18.3-134.6 26 110.4" />
    <path fill="#060606" d="M141 401.2l18.6 5L149 408l-18.6 3.8" />
    <path fill="#fff" d="M51.8 616.3l-.4 102.5-62-197 74 36.3m603 167l-4.4 4v-24l6-38" />
    <path d="M800.7 697.3l-2.5-15.5-2 6.7.2 4" />
    <path fill="#7d7e7c" d="M593.7 258l-1 32.3L599 278l-8.8-19.8" />
    <path fill="#555654" d="M126.4 278.7l6-32.6-2.4-1-4.2 17" />
    <path fill="#fff" d="M508.3 114.4l-2.2 11.2-8 2.6-3-14.8" />
    <path fill="#615e63" d="M74.2 277.5l-17 7 18.7-14-14 53.2" />
    <path fill="#fff" d="M125 351.3l9 1 2.8-56.3-13.4 45" />
    <path d="M506 359.6l-9.8-2 4.4-29.5 3-2" />
    <path fill="#91908f" d="M312.6 712.7l17-23.2-10.7 20-12-19" />
    <path d="M474 98.5l5.3 19-.6 16-7.8.7" />
    <path fill="#fff" d="M111.7 143.8l18.6-23-3 72L80 110.5" />
    <path fill="#ad6cd1" d="M469.2 174.4L483 210l-18.2-25-24.2-4.4" />
    <path d="M384.3 326.4l7.8 5.3-9 26.3-2-27m-228 29.3l-2-3.3 9-44.6-3 46.6" />
    <path fill="#525352" d="M492.2 257.8l6 2.3-14 4-3.3 18" />
    <path fill="#fff" d="M817.6 448.4l-27-23.4-20.5 23.7 19 42" />
    <path d="M169 327.7l6.8-13.2-2.5 45.8-4-9" />
    <path fill="#f8dd93" d="M925.8 123.3l18.4-23 5.5 32.3 4.6-30" />
    <path fill="#8cc001" d="M333 558l3.8 1-7.2-47.7-5.4 17" />
    <path fill="#d6d98e" d="M874.7 252.7l2 36 8.8-41 36.8 7.7" />
    <path fill="#fed16b" d="M861 66l-43-3 13.6-3.4 10.8 12.7" />
    <path fill="#191918" d="M937.5 673.3l-4.8 12.7-.5-7.8 13.3 3.6" />
    <path fill="#fff" d="M494.3 309.8l4.2 79.7-6.2-49-13.6-30" />
    <path fill="#ac69d0" d="M138.2 207.3l-10.6 1.3-29.2-48 18.6 19.2" />
    <path fill="#fff" d="M443.5 761.8L456 632.2l-33.3-.2 22 6.6M851.2 698l23.5-16.3-1 10.4-15 7" />
    <path fill="#8c8c8d" d="M659.6 679.2l-6.4 19 1-19.2 17 12.2" />
    <path fill="#fff" d="M839 340.7l80.8-78.4-61.4 70 130 5.6M475 637l-.4-6.2 3 .4 13 3" />
    <path fill="#fefefe" d="M120.2 369.4l55.8 37 16-81-2.2 59" />
    <path fill="#a759d2" d="M399.7 248l-9 25.5-4-16 25.8-1.4" />
    <path d="M481.2 330l-22 9.6 8.6-10.3 11-2.4M415 418l-13 14.3 11-21.2-29.5 15" />
    <path fill="#666665" d="M461.8 245l-5.8 46.3 1-54.4.8 11" />
    <path fill="#fff" d="M911.4 584.6l77.3 8-163 2L925 585m-531.7-61l-52.6-39.7 48.6 60.8-3-23M191.7 335l-13.7-2-1 17.8 8.4 1.3M306 317l-11-39.6 72 48.4-97.2.4" />
    <path fill="#e2d887" d="M901.2 206.2l-22.8-7.8 40.4-6 8.2-14" />
    <path fill="#ad62d6" d="M407.7 263.8l-.5-14.8 11.2 19.7-48-1.6" />
    <path fill="#feffff" d="M926.4 758L823 719l112.5 60-5.4-127.6" />
    <path fill="#363d3b" d="M441.4 638.4l4.7 4.8-1 .4-20-10.3" />
    <path d="M274.5 415l-17.3 16h-10.8l33.8-10.8" />
    <path fill="#377bcc" d="M737 718.3l11 9-12.4-17.3-1.8 34.2" />
    <path fill="#fff" d="M736.2 74.7l123.5-6L871 47.4 890.8 80m-489 557.3l-33-97.3 56.2 94.4 14.5-27M437 695l10 29.8 3-19.7h-23.3m91.3-36l-43-27 2.6 80 28.4-84" />
    <path fill="#242424" d="M285.8 645.5l-10-.7-5-8-1.2 12" />
    <path fill="#a75fce" d="M657.3 201l-11 10.3-16.8-11 13.8 2.3" />
    <path fill="#89be00" d="M283 514l11.3-4.7-11.2 58.4 2-41.8" />
    <path d="M93.3 394.3l-16.8-5.6.5 4.3 8.8 6.4m411-263.3L486 125l-1-4.7 4.8-15" />
    <path fill="#fff" d="M364.5 340.3l-7.8-3.3.5-4.7 11 2.3" />
    <path fill="#4b4c4a" d="M974.7 699.3l-35.4-.3 37.5 2.2 6-3.7" />
    <path fill="#414040" d="M472.6 633l-1.8-13v28.6l4.6 1.2" />
    <path fill="#fff" d="M431.6 350l-7.4 4.8-10.2-9.6-3.6-2.7" />
    <path d="M202 357.4l-9.4 2 1-25.4 2-3m-43.8-18.3l1 39 7 9.7-.3-46" />
    <path fill="#fff" d="M444 302l.7 86.6-16.7 19.2 11-56.3" />
    <path fill="#95d7b3" d="M837.8 555l-2.2 7 7.7-60-.7 71" />
    <path fill="#fff" d="M361.8 637.7l10.8-88.6 10.4 13-51.4 2" />
    <path fill="#424242" d="M484 628.2l21.5 10L492 628l-8 19.3" />
    <path fill="#fff" d="M402 185l26-1-20.5 12.7-2.2 34.8m8.2-130.8l68.3-15-16-101.2-18.2 118" />
    <path fill="#010101" d="M563.8 313.5l2.4 44.7 7.5 1.2-3-47.7" />
    <path fill="#fff" d="M214 201.6l8.2-2.3.6-6.4-51.6-22m39.6 173l-26 55 5.6 7 49.6-44m9.3 47l31.5 43 64-18-81.6-1M894 169l-56.2 47.4 72.5-74.4 65-57.8" />
    <path d="M479.2 429.4l-16-2-3 18-4.8-10" />
    <path fill="#fff" d="M213.5 645.3l9-8.5-24-7.8 2-11.3m-112.7 78l-1.4-27 32.4 24.8 81.5-49.6" />
    <path fill="#c2db9e" d="M771.5 377.7l14 61.5-10.6-67.6-44-2.3" />
    <path fill="#feffff" d="M458 646.3l-87.4 8.8-15.4-15-21 44" />
    <path fill="#fff" d="M124.5 450.7l3.7-48 25.8-.7-5.8-69.3" />
    <path fill="#8bbf00" d="M263.4 510l-13 12-22.7-9.6 10.6 2.4" />
    <path fill="#c4dca3" d="M882 331l27.5-11-34.7 24.6 32 28.4" />
    <path d="M135.5 414l30.4 4-11 1.6-24-.3" />
    <path fill="#fff" d="M358.6 556.7l-1.8-48.6-26 7 9.5 34" />
    <path fill="#fcfbf3" d="M573 310.7l80.7 48L582 268l-8 85.6" />
    <path fill="#fff" d="M96.6 436.4l.7-13.2L35 492.8l193-58" />
    <path d="M213 422.3l-17.5-20.5 9.5.2 7 9.7" />
    <path fill="#b73143" d="M231.7 620l4.2-6.6 8 20-3-8" />
    <path fill="#fff" d="M747.2 432l-29.7-24 12.3 34 62-4" />
    <path fill="#97d6ae" d="M860 491.5l-11 19 15.3-12.5 59-3" />
    <path fill="#fff" d="M62.6 724l93.7 1.4-138.3 32 19.2-56" />
    <path d="M232.8 320.4l-.7-7.2 19 .7 17 8" />
    <path fill="#ac61d4" d="M278.3 263l-9-13.4-11 3.5 20 16" />
    <path fill="#fff" d="M572 121.3L553 84l-.8 91.2-20.2 7.3" />
    <path fill="#060606" d="M930.2 678l-9.7-2.8-5.8 5.8 2.8-1" />
    <path fill="#0a0a0a" d="M939.8 698.7l5-18v.2l1 10" />
    <path fill="#9cbaed" d="M262.5 716.8l2-20.8-18.4 7.4 3-17" />
    <path fill="#8ec102" d="M93 547.5l-14.8-19-2.8 2.7 17.8 24" />
    <path fill="#40413f" d="M690 691l2.7 6 .4-15.5v1.3" />
    <path fill="#e7e2aa" d="M746 267.8l-.6 3-7.8 76 .6-95.3" />
    <path fill="#090909" d="M287.8 632l-16.8-2 13.6-1v16" />
    <path fill="#555d5c" d="M418.2 621.8l6.5 25.6-3.6 2.5-3-5" />
    <path fill="#90c200" d="M189.7 511.7l-9 12.2 1 37 9.2-20" />
    <path fill="#ac6ad1" d="M155.8 164l8.7 11.2 14.5 36.4-11-50.2" />
    <path fill="#fff" d="M578.3 73L479 108.7l19-122.3 33 120M149.2 323l-42-16.7 1 65.4 7.2-44.8" />
    <path fill="#72cb9f" d="M688 644.3l-1.7 1-2.8-15.4 3-30" />
    <path fill="#fff" d="M81.8 531.4l-13-10.6 13-7.5 6.8 24.5" />
    <path fill="#acd9a3" d="M739.8 438.8l-15 23.4-34.8 30.3 17.4-20.4" />
    <path fill="#fff" d="M910 172.2l19.3 15.2 14.2 109.3 44.6-223" />
    <path d="M283.7 135.8l-10-50 19.2 48.7 15-46" />
    <path fill="#9dd7aa" d="M815 469.6l37 22.6-22.4-5.8-16.4-16.7" />
    <path fill="#ff2f19" d="M651.3 711.2l.7-2 3.8 10-4.7 12.2" />
    <path d="M533.4 338.4l14-10 11.8 14-22-15.2" />
    <path fill="#fff" d="M271 728l-3-130.6-12 31 14.8 29.5" />
    <path fill="#8bc000" d="M273.5 513l-2.4 20-5-5.6-2-19.4" />
    <path fill="#fff" d="M293 436.3l-6.4-68 7.6-63 .5 42" />
    <path fill="#cddcec" d="M431 670.2l-76 1.6 4.2 12.5 64.4-.6" />
    <path fill="#ac69d0" d="M56.2 201.6l1.6-40.6 7.6 4.5-1 45" />
    <path fill="#a962cf" d="M613.3 209.2l2.5-33 7.4.6-1.5 30" />
    <path fill="#fff" d="M691.8 197l10-105.4 2.4 86.8-.7 24.8M497 637.2L468.6 616l21 4.8-.4 52.7" />
    <path fill="#edc495" d="M194.5 727.8l-20.2-30.5 32.7 10.5 2-5.8" />
    <path fill="#fff" d="M161.5 640.8l11.4 1.7-1-12.7-12 4.5m329-265l-10 25 9 28.6 2-6" />
    <path d="M85.6 432.8l-1.7 2.5-13-3 18-9.3" />
    <path fill="#fff" d="M529.4 342.2l13-.3 5.7-8-20 2M154 559L50 600l42-43 12.2 9.5M166 527l-2.8-1.6-3.5 20.6 6.2-10.5m104 143.2l-27-3 6-48-12 10" />
    <path d="M414.4 119l17.6-3.8-20.5 15 14.7 6.3" />
    <path fill="#010101" d="M178.5 333.8l-17.6-1 12-7.8 7 4.8" />
    <path fill="#fff" d="M458.5 701.6l-37-48.8 3-58.7 1.8 95" />
    <path fill="#a45acc" d="M617 205l-22.7-7.7 5.7-24.6 1.7 35.6" />
    <path fill="#2a2b2a" d="M429.4 638l2.6-11 15.6 1.7-22.5 3.6" />
    <path fill="#627372" d="M236 648l-3.6-15.3 32-18.7-25.8 22.5" />
    <path d="M475.4 332.5L463 331l17-5.3 12.3 16.4m-58.7-238l-17.2 9v-9H432" />
    <path fill="#fff" d="M395 563l53 68.6 37.8-205L395 526.8" />
    <path fill="#6b696b" d="M446.8 281H437l4-36.5.5 44.4" />
    <path fill="#b21c30" d="M184 649l3.3-21.6-5.7 5" />
    <path fill="#af70d2" d="M315 210.7l17.8-25.7-2.6 19.8-32.6-7.7" />
    <path fill="#fff" d="M580 195.5l-10.7 84 21.4-56 3.6-46.5m368.3 541l-6.7 46 17-43.2 14 61" />
    <path fill="#feffff" d="M108.4 744.2L90 710.7l-3.7-63 1.3 77.2" />
    <path d="M111.5 134.3l7-2.2-22-10 5.3 11" />
    <path fill="#272727" d="M835.4 683.3l-6.5 18v-18l14 16" />
    <path fill="#fff" d="M452.7 285.4l9-108.4 13.5 28-32 72" />
    <path fill="#d9db94" d="M893 240l.3-24-16-4.8 42.5 41" />
    <path fill="#ae6cd2" d="M427 188.3l-18.5 20 26.7-1.5-31-9" />
    <path fill="#fff" d="M170.7 312.6l-3 19.5-1.2-47-125.3-2m711.3 437l.5 41-16-46 .2 24" />
    <path fill="#b0d490" d="M822.8 403.8l2-36.2 1.3-5.7 4 29" />
    <path fill="#6c6b6e" d="M507 283.6l4 .8 7.6-10.7-17.7 11.8" />
    <path fill="#3d3f3f" d="M322 645.5l-8.6-18.2-22 10.3 27-10" />
    <path fill="#fff" d="M671 199.3l16.3-38.5-8 59.2 21.4-8m-358-51L275 194l26.7 9.4-6.5-33.4" />
    <path fill="#f1f1f1" d="M404.7 422l-8.3 8 .2-30-.2 22" />
    <path fill="#141513" d="M879.2 694.6l-4.7-23 .2 21.3-9.2 8" />
    <path fill="#73a5df" d="M936.2 734.6l-2-17.7-26 16 33.6-28" />
    <path d="M219.5 431.5l1.2-28.8-1.4-7.5 10 41" />
    <path fill="#fff" d="M410 649.5l-1-10.5-41 26 132.3-15.7" />
    <path d="M330 104.2l-23 2.2 32 1-4.5 31.4" />
    <path fill="#fff" d="M763 502.2l-24.7 191.3-32.3-170-23 48.2" />
    <path fill="#eee" d="M873.8 695.4l-55.3 3.8 44.6-1 29 .8" />
    <path fill="#91c306" d="M200 509l-16.7 11.4-5.8-3.8-3.7-5" />
    <path fill="#272726" d="M889.2 684l-1.8-9.2-3 11.4 12.2 4" />
    <path fill="#323636" d="M374.2 625.6l-3.2 23.2 3.6-.7 2-18" />
    <path fill="#fff" d="M895.5 232l113.4 86.6L922 144l11 75m-684.8 52.8l25.7 47-104-23 49 29.8" />
    <path fill="#6c9bd3" d="M822 726.5l6.7-10.6-54 1 18.3 1" />
    <path fill="#fff" d="M477.8 740.8L458.3 715l-75 68.5 46.2-76.8m-280.8 8l-22.5-15.4-1.7 29 9-13.5" />
    <path fill="#8fd8bf" d="M956.3 591.8L946 581.6l-60 7 31.8-10.2" />
    <path fill="#fff" d="M946.3 493l-51-115.3-29.5 66.5 106.4 46.5" />
    <path fill="#a454cf" d="M270 285l8-6.2-3.8-1.4-21.8 3" />
    <path fill="#fefefe" d="M187.3 131.2L155 164.7l104.3-26-69-4.7" />
    <path fill="#fff" d="M388 270.4l8.4.2 3.8 8.8 22.3-10" />
    <path fill="#a760ce" d="M435.8 179.5l-20.6-4.5-4.7 4-1.5 5.4" />
    <path fill="#c55060" d="M174.5 647.2l-34.4-6.8h-1l10-3.4" />
    <path fill="#a862ce" d="M231.2 168l-1.5-3-20.7.6 23.6 9.6" />
    <path d="M279 355.2l1.7-28.6 6 .8 1.4 21" />
    <path fill="#fff" d="M757.2 715.8l-.4 24.4 4.5-38.8L896 701" />
    <path d="M450.2 89.8l-2.3 37.8 7-1.8 1-30.3m-98 260.7l-7-23.6-6 9.3 8 13M55 401l15.5-13-4.7 14.2-9 21" />
    <path fill="#fff" d="M310.4 199.5l8.3 5.2 3-24.3-13 6.3m494 274.7l60.7 34-75-58.7-2.6 61.7" />
    <path fill="#504f4f" d="M430.7 704.6l4.4 2.2 13 11-12-6.3" />
    <path fill="#fff" d="M497.5 282.6L381 286.3l.4-26.2 30.2 74" />
    <path d="M329.3 433l1 2 7-1 1-47.7" />
    <path fill="#fff" d="M141.4 555.4l-8-6.6-2 7.5 8.2.5M274 302.5l45.8 26.8-.6-73.7-15.8 73.5" />
    <path fill="#82bb00" d="M136.3 550.3l7.8-2.6 23 20-8-3" />
    <path fill="#fff" d="M634 684l-4 19.7-3-36-3.6 20.8m248.6 0l-33.7-23.2-4 35.6-3.3-75" />
    <path fill="#fafdfb" d="M390 640l-16.7-7.5 25-4.2-10.8-78.4" />
    <path fill="#fff" d="M71 397l9 29.8-10.3-.4-6-12" />
    <path fill="#bed58d" d="M784 371l-1.3.2 41.4-14-49 8.2" />
    <path fill="#8cd5b6" d="M826.8 582.8l30-4-40.8 10.8.2-6.5" />
    <path d="M397.4 102.3l9.3 3.6.5-17-7-1" />
    <path fill="#fff" d="M949.3 696.2l6.3-18.7L942 698l-75.2-.5" />
    <path fill="#e5d887" d="M913.3 180l10.6.3-25 10.3-20-3.4" />
    <path fill="#171617" d="M727.8 679.6l13-5-16.5 3.2-.2 6.5" />
    <path fill="#efda8c" d="M880.2 171.5l42.5-42.4-61.8 44 4-10" />
    <path fill="#fff" d="M302.2 640.3l3.6-6.4 7.6-3 3 14M858.6 83l-1 26 6.6 54.3L736 102M367.6 640l.5-22 5 38.5-10 14m242-563L619 96l-16 84 159-34m-31 538l41.6-5.5L749 675l-22.6 6m-499-270l18.7-9.6-24-1.2 14-9.2" />
    <path fill="#050505" d="M428 325.8l20.3 8.5-25-2.7-6.8 2.8" />
    <path d="M485.3 329.7L492 341l-1 7-9.7 10.6" />
    <path fill="#fff" d="M157 526.6l-18.8-6-7 30.3 3 4" />
    <path fill="#fff8f6" d="M627.2 719l24.3-22.2-13.3 6.6-7.6 24.8" />
    <path fill="#fff" d="M440 323.6l-21-3.3 25.6 12-7.5 60" />
    <path fill="#84bc00" d="M306.4 566.2l22.5-51-4-8.6-4 15" />
    <path d="M930.2 689.7l7.2 6.3-2.3-5.7V684" />
    <path fill="#fff" d="M96.4 644.2l25.3 8.7 48.8-5-104.7 34m828.6-457L871 269l-21-35.8 13.3-19.7" />
    <path d="M417.5 352.6l6.7 7.8 14-16.7-1.6 12m-244-40l11.7 2-10.2 4.8-3-2.7" />
    <path fill="#2a2a28" d="M766.3 691l8.2-13.3-1.3-.4-12.3 18" />
    <path fill="#fff" d="M575 459.6l-6.6-47.8 42-90L636 583.5M136.2 214l-22-22.3L75.6 259 190 230.5" />
    <path fill="#494949" d="M662 693.7l3-15.4-1 13.2-1.5 4.5" />
    <path d="M546.4 340l-8 8.2-.4 8-10.8-8.4m14 78.8l13.6 6 18 2.3-8-8" />
    <path fill="#fff" d="M311.7 252l16.7-.6-28.4-46.6L182 251m-28.6 163.2h-14l7.5-5.8 1-1.8" />
    <path d="M410 355.3l-1.6-26-28.2 7.3 16.3-10.3" />
    <path fill="#fff" d="M714.4 241l-77.8-32.5 84.2 2.7-14.7-226" />
    <path fill="#727670" d="M516.2 255.4l-.8 21.2 4-12.7-19-4" />
    <path fill="#fff" d="M540.6 416.8l4 15.3-8.4 5 1.5-60m-328 12l-14-128h11.6v74M777 372l19.8 44 27-53 3.6-3.3m-94.5-205l108 79 33-79.6 4 40" />
    <path fill="#040404" d="M443.6 341.6l6.6 16.6 3.7-3-1-33" />
    <path fill="#fff" d="M557 197.4l14 10.6 2-69.8 18.5-6.4" />
    <path fill="#343434" d="M459.3 641.6l-.7 10-3.5-4.5 4-20" />
    <path d="M113.5 100.3l11 12.2-23-7.8-9.2 12.5" />
    <path fill="#fff" d="M60.6 255.7l8-64.7 4.7 2.8 40.6 64.4m561 107.2l-34 22.4 35-14 93-10.2" />
    <path d="M275.6 400.8l10 2.5-3.2 5.8-15-2" />
    <path fill="#8cc004" d="M275.8 561.4l8.2-6.3 24 7 39 1" />
    <path fill="#fdf9fa" d="M252.3 647l32.2-4.3-8.4-3.7-10 8" />
    <path d="M168.8 124.8l11.7 11 8.7-7.4-20.3-.5" />
    <path fill="#000200" d="M552 108l-11.3-1-19 5.6L538 101" />
    <path d="M339 106.7l-27-1.7 3 5.5 12-2.8M66 113l22-6.4-9.8 10.6 17 22.4m48.4-7l3.6 3.2 9-5-23.6-6.2" />
    <path fill="#dedc96" d="M858.8 250l-37.3 17.6-70-1 66.5 6.8" />
    <path fill="#fff" d="M261.8 106.3l-19.2 3 .4 12.2-1.2 7.6" />
    <path fill="#e9e0a2" d="M730.3 286.4l.4 5.2-5.8 5.6 2-51.5" />
    <path d="M99 349.5l1.8-37 7 45.7-2.6 3" />
    <path fill="#b06bd5" d="M308.5 285.7L314 274l-11-20 .2 29.4" />
    <path fill="#649bdb" d="M887.8 723l13-10.8 2.2 23.4-11-27.3" />
    <path fill="#fff" d="M103 116.4l2 8.3 11.5 2.6 1-15.4M912 700l20.5-103-35.3 92 29.2-9.2m-252.2 54l7-17.3L677 770l70.7-42M96.5 392.8L64.7 354l19.4 1.6L99 333" />
    <path fill="#fff" d="M732.6 783.2l-13.5-86-18 19.2 33-5.6" />
    <path fill="#afd593" d="M749.3 433l44-6-44.4 1-30-24" />
    <path fill="#4b4a4a" d="M501.4 654l-2.4-11.7-5.5-15 10.2 7.6" />
    <path fill="#fff" d="M307.5 679.5l18-48.6-.5 28-7.6 57" />
    <path d="M279.2 327.3l.6 29 7.4 2 .7-25.4" />
    <path fill="#f4f4f3" d="M767.8 692.5L767 676l6.6 22.3-11.7 1.4" />
    <path fill="#fff" d="M82.4 693.7l-64-37.2L70 647l.3-56m442-328l-9.5 1 4 17.5 10-14.2" />
    <path fill="#fcfbfb" d="M934.4 680l1 14.7 6.3-4.8.5-10" />
    <path fill="#fff" d="M470.8 115.3L456.3 131l2.4-21.8 8.3-1" />
    <path fill="#f4f1d5" d="M639.8 310.7l11.4-18 34.5 30.4-17 22" />
    <path fill="#fff" d="M245 194.8l7.6 9.8 19-14.7-8 3m-253 33L60.3 6 56 128.8l9.6 25.8" />
    <path fill="#95d8b8" d="M804.4 564.6l-27.8-2 16.4 8.2 6.2-18.8" />
    <path fill="#fff" d="M532 114.8l3.3 38 9.4-39.5-11-3.8m-229 407.7l3.4 43.2-14-7.5v-32" />
    <path fill="#636860" d="M570.4 120.8l7.7-12 16 1-13 2.4" />
    <path fill="#e9d57a" d="M859.5 187.3l7.7-23-12.8 25 17.5 22.2" />
    <path d="M131.2 87.3l9 42.8 1-24 .4-16" />
    <path fill="#fff" d="M271.8 526.8l-17 31.7 28.6-9.8-8.3-64m86-393l-45-32.2-7 49.3 87-46M167 439l-1.7-36-5 19-2 3" />
    <path d="M236 133.8l-1.4-35 5.4-7.2 1.5 31" />
    <path fill="#fff" d="M-2.8 514l64.5-132.4L52 420l87 84m316-188.3l17.6-50.2-4.7-4-21 39.3" />
    <path fill="#32908e" d="M92 715.3l4 .2-1.6-18.7-5 5" />
    <path fill="#4a4d4d" d="M303.8 627.2l23 12-14.3-11.5-13.2 13.5" />
    <path fill="#fff" d="M426 114.7l-8.5 4-11.6 7 10-15.7" />
    <path d="M459.5 425.6l10.7 9 14-25.2-8.4 23.3M79 354.2l8.3-5.2-4.3-5-16-18.3" />
    <path fill="#fff" d="M174.7 75l3.6 51.4 8.8 1 2-54m664 525.2L845 497l-1.7 64.6 2.3 30.2" />
    <path fill="#040404" d="M446 311.7l-3 5.4 8 7 3.4-9" />
    <path d="M370.7 401l-13.5 28.3-8.5-3.8 23-29.3m67.6 12l8.5 22.6-7.5-30-21 10" />
    <path fill="#fff" d="M329 113.5l1-3.2-4.8-2.5-28.8 17.4" />
    <path fill="#fede92" d="M878.8 56.8l-.8-39.2L853.6 73 870 21.2" />
    <path fill="#636363" d="M458 703.3l18.2 3.7-15 2.5-1.7-6" />
    <path fill="#676568" d="M52.7 271.3l8.2-9.5-5 20.8-5-12.2" />
    <path fill="#fdfdfd" d="M372 402l-23.8 46.4 44-15.4-25.3 6.6" />
    <path fill="#feffff" d="M611 716.5l8-33.6 5.5 10-10.8 43" />
    <path fill="#565657" d="M473.5 714l2.5-23 2 20.3-9.7 3" />
    <path fill="#ad6bd1" d="M150.6 209.2l-9-.3 3.8-12 19.4-33" />
    <path fill="#fcffff" d="M791 731l3.2-14.3-16 20.2 3-20" />
    <path fill="#aed490" d="M910.5 343l29.4-3-7-16.8 2 23" />
    <path fill="#fff" d="M411.7 157.3L372 125l-.4 12.6 50-2" />
    <path fill="#9dd5a3" d="M535 606l1.5-15-10.5 11.7 63 1" />
    <path d="M340.5 115L312 127l13 10.6-7.8-17.3" />
    <path fill="#af6dd2" d="M403 160.6l-3.2 27.7-22-14.2.3 19" />
    <path d="M825.8 682.3l8.2 7.5-4.2 6.2 1-13.2" />
    <path fill="#c5da9a" d="M953 301l-5-6-35-6.3 6.5 7.2" />
    <path d="M151 418.8l10 .3-2-12-5.7 7" />
    <path fill="#fff" d="M958.7 700.8H888l28.7 17.7 122.8-18" />
    <path fill="#c3d790" d="M860.8 326.6l26.2-21.3-23.6 28.8 37.5-1" />
    <path d="M545.2 400.7l5.5 17.3-.8 11.4-8-17" />
    <path fill="#236ac0" d="M975.6 715.5l2.2 6.3.2 13.2-2.7-8.7" />
    <path fill="#fff" d="M297 624.2l31.4 7-1.7-28.6-28.4 33.4" />
    <path d="M317.5 327l2 35-8.5-36.2-18.4 15" />
    <path fill="#fff" d="M162 330.4l.2 146.6 6.8-142.2 16 10.5M675.5 648l-38.8 33.5 33.4-.3 26-34.5m-146-40.4l-20 3.8-26 30 13 117m22-349l19-6-92-27.2 69 32" />
    <path fill="#f1d989" d="M891.7 178.3l53-55 10.4-13-24 21.7" />
    <path fill="#f8fbee" d="M107.5 576.5l-40.2 49.8 43-69.7-1.4-27.4" />
    <path fill="#fff" d="M112.3 783.5l-30.6-64.3-66 64.3 105-65" />
    <path fill="#fffefd" d="M760.8 676.6l-7.4 76.7 9.5-65.5-38-66" />
    <path fill="#fd2f1b" d="M605 731l6.7-22.3-9.7 7 10.2 5.8" />
    <path fill="#070707" d="M562.5 412.3l10.3-11-12 22.4-6.6-3" />
    <path fill="#fff" d="M214.7 170.2l29.6-1-16.8 42.3 22 1m537.7 469l32-1 2.6 27-16.5-69.8" />
    <path fill="#090909" d="M753.7 701.6l11.2-7.3-5-.3-5-4.6" />
    <path fill="#fff" d="M65.5 364.6v-29.2L84.2 359l134.3 2" />
    <path fill="#b2b1b7" d="M130.8 694.7l1 9.3 10.3 3.8 19 11.8" />
    <path d="M543.8 110l-.2 28.3 8-18-.8-8.3" />
    <path fill="#a1d8d9" d="M196.5 709.6l-5.4-13.3 12-7.7-1 32.8" />
    <path fill="#a85cd1" d="M244.6 258.8l-2.6-7.4-16 .3 3 5" />
    <path fill="#222221" d="M763 683l6.5 5.4-16.2-7 73.6 2.8" />
    <path fill="#fff" d="M341.4 349.8l34.6 21.4 1.3-25-23 75.5m402.3 7L732 413.2l82.2-17.8-68.4 3" />
    <path fill="#a75ad2" d="M354.5 249.6l8.4 6-28 5.2 10-5" />
    <path fill="#fff" d="M865.6 134.4l3.3-43.7 19 62L1009 9M135.3 50.6l-4.6 65-11-11.8L90.4 94" />
    <path fill="#93d19c" d="M690 548.3l-6 3 .4-34.4-6 12" />
    <path fill="#fff" d="M599.3 120.4L585 104.6l-80.4-4.6 91-32.2" />
    <path fill="#88be00" d="M62.6 527.7l19.6-17.4-11-.4-9 9" />
    <path fill="#a5d7a7" d="M607.6 551l21.7 26.6L592 542l11-4.2" />
    <path fill="#bed3f8" d="M215 701.6l22.7-12.3 4.5 23-14.8 5" />
    <path fill="#fff" d="M682 374.6l92 4-6 7-125.7 26M254.3 533l10 31 9.3-4-12.4-46.8M522 137l56-4.7-68.3 39 15-98" />
    <path fill="#ff1900" d="M682.2 715l2.2 6 1 7.4-4.8 3.5" />
    <path fill="#ff412c" d="M643.8 732.5l-.3-8 9 4.5-1.6.6" />
    <path fill="#fff" d="M608.4 280.2l-76.8 51.4-6.3 71.3.5-88" />
    <path fill="#c1db9f" d="M765.2 386.3l-35.8 8.4 32.5 20.7-31-8" />
    <path fill="#fff" d="M228 398l37.5-38.4h39l-36 43.4m-71 87l85.2-59 54.7 76.3-130 4" />
    <path fill="#ae69d3" d="M303.2 252.2l-19.3-.8V290l7-30" />
    <path d="M362.7 123.3l.4-23.7 8 24v10.7m-313 193l14-1-2-7.5-6-5" />
    <path fill="#fff" d="M141.5 424.5l9.3-5 15.4-.5-18 10.4m18 84l-143.5-111 158 115.4-.5 38.5" />
    <path fill="#ececec" d="M823.2 688.2l4.7-5 4 7-6 1.4" />
    <path fill="#838281" d="M324.2 697.4l16.6 2-11.6-7-11.6 10.4" />
    <path fill="#fff" d="M221.7 265.7l-8-54.6 2.8 71 17.2-9" />
    <path fill="#424443" d="M440 633.5l6.4 11-26.7.4 22 5" />
    <path fill="#fff" d="M440.7 327.5l45.2-2.2 15-72.5-36 61M374 529l55.3-81.8-37.6-9.7-12-12.5" />
    <path fill="#216dc8" d="M964.8 714l4.7 7.4-.8 8.3-4.8-16" />
    <path d="M463.8 129.5l2 2.6-12.2 2-5.6-9" />
    <path fill="#fff" d="M232.8 668.4L191 511.2l46.2 118.5-39.5 41" />
    <path d="M223.8 106.3l9.5 1.4-23.6-6-2.3 7.7" />
    <path fill="#181918" d="M956.2 701.8l19.6-25-3.5-1-4 9.8" />
    <path fill="#fff" d="M548.7 439l2.5-7.7 11 3.6-2 5" />
    <path fill="#b7c9d4" d="M370 678.7l24.6 6.4.4 23-15.7-31" />
    <path fill="#a85fcf" d="M194.5 258.5l8.8-9.5 13.4 36-3-29.7" />
    <path d="M350 343.8l14.8.3 9-5-26.6 3" />
    <path fill="#fff" d="M718 654.3l22.7 25.4-19.4-10.2-35.8 80.6" />
    <path d="M268.4 321.3l3.7 9.3 1 12.6-14 15.6" />
    <path fill="#fff" d="M168.6 467L150 478.8 119.8 546l6.7-125.6" />
    <path fill="#010101" d="M168.5 343l17 16H176l-4-45" />
    <path d="M501.4 432.8l-4.8-26-6 29.2-1.4-2" />
    <path fill="#0b0b0b" d="M893 692l-6-8.6 5.7 3-5.2 11" />
    <path fill="#fff" d="M354.4 686.4l-3-47.3 10.8 2 .7 19" />
    <path fill="#3f4544" d="M353.6 635.6l-8.4 9h-5.5l25-7.3" />
    <path fill="#fff" d="M232.5 73.5l-5.8 46.8-15-8.3 12.2 1.3" />
    <path fill="#b4d695" d="M715.2 410.6l15.3 26.5-6.2 1-13.6-29" />
    <path fill="#fff" d="M243 89l.3 15.6L264.8 82l19.8 84.6" />
    <path fill="#87d3ab" d="M993.3 490.7l-55.5 6 51-.6-6.3-15" />
    <path fill="#fff" d="M346.6 247.6l.7-63 10.5 1.2 3 65m-27.5 383.5l14.5-1-10.3 11.2-9-7.5M255 353.2l-13.8-27 9-5.5 13.5 19" />
    <path fill="#f6da8b" d="M882.6 122.6v-5.4l-8-40 1.5 98.4" />
    <path fill="#a861ce" d="M80.6 193.4l14 15.5-12-2-12-18" />
    <path fill="#fff" d="M900.8 718l12.7 38.3L923 717l2.5 30.7" />
    <path fill="#cee4b9" d="M872.4 348.8l-11.8-5 2 41.3 17.4-9" />
    <path fill="#666" d="M469.2 723l-1-1.8 13.4-2-13.2 12.7" />
    <path fill="#fff" d="M523.8 408l-8.6 4 3.4 13.8 18.3 72m-274-24l-30-50.2-15 25.4 44-17.8" />
    <path fill="#8f8f8f" d="M649 693.3l-11.6 3.5 1.5-16 4 17" />
    <path d="M943 690.7l2.3-11.3-3 17-7-.5" />
    <path fill="#fff" d="M456.8 721.3l4-89.7 8-3 .7 17.3" />
    <path fill="#af6ad4" d="M270 246l-19.5 16.3 33 5-34 3.4" />
    <path fill="#fff" d="M332.4 277l36.8 43-54 6.6 5 7.2" />
    <path fill="#040404" d="M439 436.2l-19.6-5.8 5.6-1.8h10" />
    <path fill="#1163c4" d="M886.7 729.2l-1.4-19-2.6.2 1 19.4" />
    <path fill="#fff" d="M683 505.5l53.6-59 29-2.2-12.7 64.5M821 717l-5.4 41.6 1.3-55.4-109-2.2" />
    <path fill="#ff9479" d="M405 726l-9.3 3.3.5-7.4 5.5-3" />
    <path fill="#fff" d="M690.3 420l1 1.6 4.3 7.7-36.4 25m-217.8-36.5l-2.5 11.5-12-14.3 10-8" />
    <path fill="#fefefe" d="M762.6 697.7l-46.6 1.6 42.7-106.7L711 695" />
    <path fill="#fff" d="M400.3 409l6.5 5.7-29 5.3 19.5-11M84.6 644.3l.3-13h12l-16 30" />
    <path fill="#d2d890" d="M675 360.2l-21.5 13.3-.2 7 20.8-15.7" />
    <path fill="#fff" d="M834 673l-37.5 3.2v25l-7-33.4M480 120.8l42.6-61.4-.8 53.3-40.2-31.4" />
    <path d="M127.4 115l-.3 8-11 10.7 6-29M193 360l7.6-2 .6-25-8.5-5" />
    <path fill="#fff" d="M685 573l71.7 92 73.6-173 9 89.8" />
    <path fill="#212020" d="M470.4 638l2.7 2 9 2.4 7-4.7" />
    <path fill="#fff" d="M224.3 292l32 13 29.6 21-9 1.2" />
    <path fill="#84bc00" d="M391 558.8l3-28 2-18.7-6.4 5" />
    <path fill="#b42a3c" d="M179 636.6l-11.6-9.6 12.2 15-10.8 5.7" />
    <path d="M382.7 359.5l7.6-29.2-2 28.5 7.7-.8" />
    <path fill="#fff" d="M579.4 307l-67 19.6h-34.7l-68-34" />
    <path fill="#a964ce" d="M722 188l4.6-9.7L768 183l-13-6.7" />
    <path fill="#101010" d="M821 697l1.4-1.5 1.4-25-4.5 19" />
    <path fill="#fcfdf7" d="M92.7 556.3l-21.4-23-.7-4.3 11 10.6" />
    <path fill="#fff" d="M401.5 3.3L554 104.6l-81.2-18.8-65.2 21.3" />
    <path fill="#8cc000" d="M143.4 511.2l-8.8 4.5-9.2 19-2 21" />
    <path fill="#fff" d="M186.3 254l58.8-48.5-118 14.8 45-24.7m61 360.8l26 2h-66L217 404m346.5-104.3L536 283l-6.5 29.6L565 337m405 348l5.4 5-6.4 2.7-.8-1m-231.4-355l-4.6-57.3-6.2 81.8-46-30.2m51 376.8l-22 57.6 6-47.2 25.6 55.7M717 445l-1.4-23.6-31.4 21.4-17.5 48M885.2 741L870 723l24 44-6.2-60.5m-116-518l93.5 13.4-49.5 57-50-31M504.3 743l-97 40.5 83-53.5-1.2-12.7m28-576l-10 103v-108l14-10.4M83 341l12-24 2-58.8-29.6 56" />
    <path d="M346 99.5v-11l8.6 3.8-5.8 44" />
    <path fill="#ab68d0" d="M390.4 201.5l11.5-8.3-1 12.8-28 2" />
    <path fill="#fff" d="M366 277l11.3-168-4.7-84.8-.5 85.7m9 498l-15-73 81 92 83-2m-150 23l70 104-67-77 87.6-28" />
    <path fill="#f6f6f6" d="M431.5 331.7l-10 5.8 19.6 4.3-7-7.6" />
    <path fill="#696a68" d="M729.6 692.7l-29 4-4.3-18.4 6.8 18.3" />
    <path fill="#fff" d="M868.3 282.6l5-177 2 119.5v65" />
    <path fill="#5d5d5d" d="M624.8 692l17-21.5-16.6 18.3L617 674" />
    <path fill="#030303" d="M559 355.8l-16-31.6 12.7 6.8 2.5 22.8" />
    <path fill="#fff" d="M262 407.5l-26.6-20.8 62 12.6-.6-8.4" />
    <path d="M101.4 435l5-5-1.2-35.3L97 388" />
    <path fill="#fff" d="M72.2 351.3l59.6 57.7 20.8-15 85.7 9.7m-98.4-297l7-12 20 18.3-1-24.4m-52 192l-4-8.6 9-13.6 5 12m856 80.3L890 309l-24 19 114-25M370.5 187.7l-41-49-.3-6.6 68.6 26" />
    <path fill="#373535" d="M88 716.6l-4.8-23-.4 21.6-14.8 7.2" />
    <path fill="#5e96d8" d="M914 713l5.6 17 6.3-18.6 1 19.3" />
    <path fill="#4c5352" d="M717.8 714.7l-15.4 17.6 3.7-29.6 1 23" />
    <path fill="#fff" d="M79.3 718l-24-11.7L66 692.6l16.4 7.4" />
    <path fill="#9ed49e" d="M661.3 484.5l22.5 24.7 59 3.2-53-6.6" />
    <path d="M263.6 356.2l4-11.5-24 11.7 6 3.5" />
    <path fill="#676767" d="M685.5 683.6l-2.4 16.6v-13l13-6.3" />
    <path fill="#bb3a4c" d="M52.8 637.7l6-7 26 1-27-4.4" />
    <path fill="#fff" d="M523.6 260.4l1.7 19.8 30.6 48.5-53-11.7" />
    <path fill="#fdd36f" d="M783.8 75l5-7.6 3.6 12L795 85" />
    <path fill="#cc6471" d="M108.7 651.2l11.3-14.7-2.8 16-20-28" />
    <path fill="#fff" d="M663.4 343l-2.2 31.8-63.8-89 2.2-28.7M328.3 365l2.8 155-24-99.4 1-22.6" />
    <path fill="#fefefe" d="M410 343.7l21 4.5-2.6 6.7-19.2-8" />
    <path fill="#93d9bc" d="M813.4 598.2l43.7 3-10 5.8-21-13" />
    <path fill="#fffcfb" d="M656.7 738l1-21.7-28.4 67.2 44-58.4" />
    <path fill="#fffffe" d="M73.7 118l24.5 63.5-19.4 6.5 20 24" />
    <path fill="#fff" d="M251.6 410l-10 5 3.7 14 34.8-15.4" />
    <path d="M378.5 124.2l3.7 5.7 5.7 4-5-26" />
    <path fill="#93d19d" d="M736.5 524.6l1.7-15.5 3.4 11-47.4 2" />
    <path fill="#fff" d="M269 169.3l3 21.7-47.2-56.4 2.5-13m-63.6-2.7l-30.2 118 8.6-106 69 69m539 76l71 1-59 92-1-68.6" />
    <path fill="#a257cb" d="M549 198.8l16.2 3 .6 6-12.6-1.4" />
    <path fill="#9cd7af" d="M627.7 574.6l9.5 26.2-1.3-21.5-22 16.3" />
    <path fill="#c5d58a" d="M687.8 362.5l63.8-4.3 3.5-26 1 32.2" />
    <path fill="#8bbf00" d="M174.6 572l-27.8 1.3 17.4-6 18.2 1.2" />
    <path fill="#fff" d="M801.3 570.8l-28.3-5.5L834 687l25-24.5" />
    <path fill="#fafafa" d="M504.7 671.8l-33.6-83 33 65-21-16" />
    <path fill="#a9d699" d="M761.3 463.4l15.7-23.8-33.3.5 22.5 7" />
    <path fill="#93c40d" d="M87 528.5v-26.3l5.7 5.3-2.3 10.3" />
    <path fill="#3e3d3d" d="M473.3 631.6l-19.3-2 5.5 7.3-1.8-11" />
    <path fill="#1a1c1c" d="M418.5 635.8l1.7-9.5 1.6 13-2 10.8" />
    <path fill="#3f82d0" d="M955.2 726.4l-1.4-4.8-1.6-12.5-.7 19" />
    <path fill="#ad6ad1" d="M99.8 207.5h6l-.7-23.2-8-28.3" />
    <path fill="#fff" d="M577.4 256L443 207.5l24.2 50 64 .3m7 305L466 597l35 36.8 26.4-22.5m-409-487.6l-4.3-14-7-1-1 17.8" />
    <path fill="#c4d68a" d="M669.8 375.2l13.8-4.7 87.6 3.2-93 2.6" />
    <path d="M741 696l7.3-.7-28-14.5 21.2 10" />
    <path fill="#ff210b" d="M632.5 710l1-1.2 3.6 2.2 1 11.6" />
    <path fill="#fff" d="M860.8 470l-6-93 2.5-56 5.3 33.4M879.2 675l-32.3 8.5-66-99.7 228 92.2m-349-69.7l-14 10.5-52-7.3 31 83" />
    <path fill="#fff" d="M879 693.3l-.2-30.2 33.5 27-13.3-40" />
    <path d="M187.8 110l2.8 23 5.4-9 .3-21.5" />
    <path fill="#fff" d="M685 551.3l-24.7-49-7 77 140.7 39" />
    <path fill="#fed881" d="M788 70.3l49.5-8-4.3-7.4-12 16" />
    <path fill="#595959" d="M483.2 699l17.8-1.2-14.2 5.3-1.5 15" />
    <path d="M549 442.8l22.5-7.3-3.8 7.3-10 1.5" />
    <path fill="#fff" d="M346.5 137L333 90.4l-31.3 26L344 47" />
    <path fill="#568ed1" d="M836.3 736l8.6-20.4 7 1.7-10-10" />
    <path fill="#e0d783" d="M869.6 198.7l-25 41.3 6.7-23.7 16-2.3" />
    <path fill="#fff" d="M77 564.5l66.6-2-58 88.4 10-27" />
    <path fill="#747372" d="M324.4 716l9.5-1.7-11-3-7-9.7" />
    <path fill="#676767" d="M473 720.3L460 710l9 2.2 1.3 21.6" />
    <path fill="#fcfff4" d="M286.5 596l2.3-65.7 3.4 115.5-2.5 15.7" />
    <path fill="#fff" d="M682.8 631.6l-6.4 37.8-.6-58L681 593m-180.3-74l-.2-120.6 7 7.7-.5 72m373.8 3l102.6-12L876 376l-15.6 102M614 201l.7-3-8-84.2L604 203m62.5 131.3L689 347l-.6 20.2L678 369" />
    <path fill="#403f3f" d="M502.2 720.5l-2.8 3.5-2.5 10.6v-11" />
    <path fill="#b273d4" d="M233.8 199.2l10.3-.5 21 6.8-16 3.5" />
    <path fill="#fff" d="M830 366.3l-6 64.3 25.3-35L852 343" />
    <path d="M406 114l-7.6-30 1 50 7 1" />
    <path fill="#fff" d="M230.5 724l196.4-4-183-7 3-16.3" />
    <path fill="#fbfcfc" d="M436.6 637.6l69 63.7L452 644h-20.7" />
    <path fill="#89bf00" d="M288.7 518.7l2.4-8.4 4 52.4-11-41.7" />
    <path fill="#2a73ca" d="M790.2 730.6l4.3-.3 3.2-7 5.2-9" />
    <path fill="#fff" d="M272.7 430l-1.3 1.4 3.3-8.4 9.4-2.4" />
    <path d="M61 430.6l9.5 3.5 7.2-3-23.5-15" />
    <path fill="#b16ed6" d="M381.5 284.6l-2-39.4-9.7 38 10.7 1.4" />
    <path fill="#464948" d="M393.4 629.6l-2.2-3-.4 30 3.4-8.7" />
    <path fill="#fff" d="M861 712.6l1 15.8 13.8-26.6 7.7 13.6" />
    <path d="M203 127.7l19 5.6 2.2-9.3-18.2 11.2m-148.5 6l1.5-54 10 9.2-4.8-.2" />
    <path fill="#e6d16e" d="M917 165.3l-6.7-12.3-.8 18.5-11-.8" />
    <path fill="#fff" d="M106.3 721l-9.8-22.3 16-6.7 8 19.4" />
    <path d="M463.6 444l-7.6-2.6v-37.6l9.5 4.6m-39.2 41l3-42.5-7-5-1.6 16" />
    <path fill="#39918f" d="M120.3 690.3l4.7 7.4V722l-4 1.7" />
    <path fill="#fff" d="M449.2 310.5l-6.7 7.7-15.3-116.5-20.7 45.2m96.8 151l3.6-61 9-3 1 41" />
    <path d="M402 358l7.6 1.3.2-5.7-4.7-26.3" />
    <path fill="#dfdfde" d="M554.2 406l-11.5-15.5 18.3 25.3-13.6-1" />
    <path fill="#fffff9" d="M411 649.3l-23.4.4 3.8 53.3 3.5-65" />
    <path fill="#626263" d="M619.2 678l-1.2-5-2.4 17.3.2 10.8" />
    <path fill="#fff" d="M616.5 696.6l79.2 1.3-16.7 59 7.6-39" />
    <path fill="#232323" d="M965.6 694l11-19.5-4.4 2-7.8 10.8" />
    <path fill="#fff" d="M824 751.3l-19.3 16 28-57 16.6-10m25-686.6l8 34.4 9.7 17 100-16M733.7 445L698 481l-6.7-3.8 51.3-48.2M176 317l-14.2-5-164 3.2 202.7-32.7" />
    <path fill="#81857f" d="M573.4 125l6-19-5.2 28.5 11 1.3" />
    <path fill="#fff" d="M962 261.6l-83.4-5.3 1.8 18 25 19" />
    <path d="M193.5 421.3l-7.8-20.5-21.2 8h18" />
    <path fill="#c34657" d="M129.7 626l1.5 14 2.8 13.3-.6-26" />
    <path d="M491.6 132l5.6 3.3 6.3-.2 13.2-11" />
    <path fill="#fefefe" d="M258 359.3L207 400l-17 4.4-88-44.7" />
    <path d="M157.7 127l5.8-7.4-3.7-15-9 2.4" />
    <path fill="#6d9ed9" d="M865.2 713.7l4 16.7-40.5-10 52.5 9.7" />
    <path fill="#eaeaea" d="M742 683.7l-60-18 67 20.3-3 2.6" />
    <path fill="#fff" d="M180.8 549.8l-12 18.7-12.8-11 22.6-29.2" />
    <path fill="#070706" d="M755.6 699.6l-1.3-7.6 5.2 8.4 10.7-1.2" />
    <path fill="#fff" d="M935.5 745.6l-6.3-60-8.3 7.7 11-.8" />
    <path fill="#aa64d0" d="M643.2 181.2L628 198.4l8.6-22L666 181" />
    <path fill="#fff" d="M157 637.2L117.3 675l3-33.5 35.2 18.4" />
    <path fill="#337ace" d="M906 724.8l2.3-4.6h1.2l2.2 11.8" />
    <path fill="#feffff" d="M624.8 716l12-30.2 3.2 11-55.3.6" />
    <path fill="#7cd2b8" d="M388 723.2l-7.3 8.7-2-13-3.7-2" />
    <path fill="#b4b3b9" d="M133.7 692l19.7 4.2-3-8L134 691" />
    <path fill="#fff" d="M898.3 358.2l33 38-29-6 53.4-57" />
    <path fill="#666" d="M676.8 701.7l2-18 .3-12.7 3 3" />
    <path d="M303.6 359.5l-.6-30.2 10.8-2-18 11" />
    <path fill="#ac62d3" d="M333.6 282.3l12.5.2 9 1.8 13-10.3" />
    <path fill="#a6d8a9" d="M831 469l-10.7-6.2-5.6-5.8 31.2 11.3" />
    <path fill="#fff" d="M599.8 590.8l-1-28-79 29.6 51.6-4.4M410.2 693l170-21.6L481 700l-9-1.7" />
    <path fill="#737373" d="M96 256.4l4.2 35.5 1.4-36L80 270" />
    <path fill="#a2d8ab" d="M791.6 489.3l6.7 48.7-2.2-58.3 27-15.7" />
    <path fill="#a155ca" d="M81 164.6l9 13-8 11.4-1.4-2.8" />
    <path fill="#b375d4" d="M543 180.2l47-.6-7.7 8.5-23-14" />
    <path fill="#fefefe" d="M481.6 431.2l10.2-13.7-.2 29.3-37 6.5" />
    <path fill="#fff" d="M95 486.7l-5 54L71.4 504l31.7 49.4" />
    <path fill="#030203" d="M734 690l-10.2-6.5 11 2.5 3.2 7" />
    <path d="M435.7 341.4l-15-3.4-5 4 22.6 9.6" />
    <path fill="#000100" d="M523.4 135.5l8.6-.8-1-29.4-6.4 8.2" />
    <path fill="#fff" d="M147 585.7l-33-36.2.6-18 2 12.2" />
    <path fill="#f2f2f2" d="M354.8 337.5l6-6 5.2 3.7 3.7 4.7" />
    <path fill="#212120" d="M837.3 681.7l12.2 5.6-8.7-8-5.4 15.2" />
    <path d="M106.2 316.6l-20.6 19.6L98.2 316l8.6 44" />
    <path fill="#397ccd" d="M751.6 705l2 25.3 3.6-3v1.4" />
    <path fill="#fff" d="M312.8 554.2l79 61.8-94.4-12.5 34.8-52.3" />
    <path d="M300 115.6l10-26.4-11 8.8-5 9.7M193.3 311l.4 11h.2l8-4" />
    <path fill="#fff" d="M971 683.3l25 1.8-21 15 22-48M652.7 461l38.5 47.6-4.8-52.4L653 481" />
    <path fill="#010101" d="M891.7 695.3l-2.4-.2 9-20-.4 9" />
    <path fill="#71756e" d="M553 272.4l2.3-16.4 1.3 14 14.8 4.3" />
    <path fill="#fff" d="M817 357.5l-12.3-86 62.7 30.8-75.7 58.3" />
    <path d="M395.8 416.7l-12 9.8 14.8-4.7 9.5-4.5" />
    <path fill="#aad391" d="M637.8 479.5l3.6-6.6-10.6 19 4.5 8" />
    <path fill="#fff" d="M890.5 700.4l-16.8 15.4-1 22.4-4-31.6m-117-23.2l1.7 19.8L755 675l-47.2-9" />
    <path d="M204 408.2l6.8-3 1 16-7.7 15.3" />
    <path fill="#fff" d="M578.7 131l-2.2-13 4.3-6.5 10.6 7.5" />
    <path d="M557.5 356.7l-26.6-4 3 7.8 19-10.2" />
    <path fill="#fff" d="M165 314.7l19.5-34.4-7.2 46.2 39 1.7" />
    <path fill="#fcfcfc" d="M103.2 132.7l-4.2 27-29-45-6.3 34" />
    <path fill="#fff" d="M164.6 159.6l38 57.5-1.6-85 92.8 34" />
    <path fill="#abc1d2" d="M387.4 689.2l35.8-20.2-21.8 7-12 27.7" />
    <path d="M471.2 109l7.4-5.5-29.2-2-4.7 5" />
    <path fill="#b071d3" d="M233 187.7L202 173l20 17.4 4 19.5" />
    <path fill="#747474" d="M633 696.5l-1.5 5 3.7-31-.2 25.8" />
    <path fill="#424242" d="M444.2 702.4l-12 2.7h-11l17.7 3" />
    <path fill="#fff" d="M208.6 649.3l29.5-3.6-35 52 21 28m62 2l1-27.3 10-9.2-2 26.7" />
    <path d="M240.4 133l-4.8-41 8.6 3-1.6-1.4" />
    <path fill="#fff" d="M104.6 134l18.5 16-34 20-37-34" />
    <path fill="#696968" d="M112.6 278l2 2.7-7.8 1.4 3-19" />
    <path fill="#fff" d="M961.3 705L936 780.2l3.2-68.6L950 758M447 103.7l-9 35.4-26 40 37.6-24m174 418l-16-9-5.7 23 22-4" />
    <path fill="#d9d88c" d="M820 268.8l35.7-20.2-7.3 8.4-33 21" />
    <path fill="#ccd27c" d="M744.6 320.7l-11 4.3 8.8 16.6-7.5-42.4" />
    <path fill="#080808" d="M958 678l-.2 14.2-5-11.5-3.6-1.5" />
    <path d="M520.4 327l-24.4 4.4 29.7 3.4-1 25.4" />
    <path fill="#fff" d="M332.5 372L296 385.8l68.2 5.4 17-37m-.4 52.8l44.8-15.3-25.3-21.2 1-34.7M725.7 520l-64.4 49.6 75.2-57.8-54.4 4.6m-483-82.2l-55 5 21-10.2-52 109" />
    <path fill="#1f1f1e" d="M837.3 696.5l18.3-4.6-14.2 5-5-11" />
    <path fill="#fff" d="M925.8 83l-27.4 41.3-19 43.6 8.3-86" />
    <path d="M313 345.5l19-18.2-3.2-.7-10.2 4.8" />
    <path fill="#fff" d="M248.3 252L237 314.6l-111.7-6 123.6-27" />
    <path fill="#eeeeed" d="M795.5 690l-11.7-.8 14.5 10.6-9.4-29.4" />
    <path fill="#222" d="M422.4 697.6l7.3-2.2 15.8 1.7-8.3 1" />
    <path d="M141.3 344.8l-18.5 16 14.2-5-2.2-25.7" />
    <path fill="#d4d582" d="M858.7 276.4l7.7-22.5-17-5 19.6 12" />
    <path fill="#508cd3" d="M944.4 729.8l1.7-14-4 1-2-2" />
    <path fill="#fff" d="M579.4 427l-9.5-27 18 8.2-36 17.6m71-186l-40 21 1-12.4-5-65.8" />
    <path fill="#a55ccd" d="M512.4 199l27 4-7.7 3.7-3 2.3" />
    <path fill="#84d4ba" d="M951.6 584.7l3.5 9-28 2.5 20 4.7" />
    <path fill="#bed99b" d="M753 388.6l20.3 1.3h8.8l-6 9" />
    <path fill="#6b6a6c" d="M558.6 294.2l10-5.7 1.2-2-1-6.2" />
    <path fill="#8dc100" d="M103.7 548.7l.3 14.2 11.6-55-9.8 6" />
    <path fill="#454444" d="M396 642.4l9.7-4.8 8.7 7L412 630" />
    <path fill="#747772" d="M603 115l-3.7 21.5-.4 8.8 6-11.8" />
    <path fill="#fff" d="M544.5 207.3l-4-78.7L553 276.4l-5.7 10" />
    <path fill="#b6d694" d="M912 350.5l-6 1-14.5-5.3-6-7.2" />
    <path fill="#a359cb" d="M515.4 168.7l-2.4 12.8 8.3-5 2-13.7" />
    <path fill="#fff" d="M630.4 399l-62.8 10 19.7 130.5 39.3 1.2m-238-432.5l-3 10L390 129l9.7-5.4" />
    <path d="M422.4 340l-5.4-2 .3-7.6 10-5" />
    <path fill="#fff" d="M843.8 507.7l11-26.8-5.2 36 .4 76M492.4 720l50.6-5-60.4.7-49.7-1.3" />
    <path fill="#030303" d="M122.5 129.2l-12.3 7-16.2-14 14.6 6" />
    <path d="M410.3 406.4l3 27-6.2 1.4-3-28" />
    <path fill="#050504" d="M575 402.8l-32.5 2.2 4.3 1 19.3 3.2" />
    <path fill="#010101" d="M402.5 84.3L398 123l-1.6 7 10.8 3.8" />
    <path fill="#b2d89f" d="M822 407.6l-14.8 9.7-3.4 2-12-2.3" />
    <path fill="#070707" d="M236 133.6l-2-11.5 10 5 10 6" />
    <path fill="#ff2f1a" d="M663 718.5l-4.5-3.8-2 12 1.7 6.8" />
    <path fill="#689bd9" d="M767.3 717l7 14.3-10.4-2 21-13.7" />
    <path fill="#010101" d="M356.4 414.7l23.4-21.8-1.2 43-4.6-46" />
    <path fill="#fdfffd" d="M443 205l-16.4-71 6.6-3.8-12 28.2" />
    <path fill="#fff" d="M362.3 551.5l23.4 22.2 4.6-13-26.6-24.5M176.4 277l6.7-5-20-9-1 13" />
    <path fill="#8cc003" d="M60.7 521.7l5 13.7 28 23L71 534.7" />
    <path d="M438.8 138.4l-3-19.2-10-16.3H436" />
    <path fill="#fff" d="M458.4 102.5l22.6-23-89.2 9 45.7-86" />
    <path d="M464 431.5l10.6 4 4.7-3 5-9.5" />
    <path fill="#fefefe" d="M444.2 177l91-42.7-31.8.4-88 .6" />
    <path fill="#fff" d="M549.5 197L537 238.8l7.2-64-22.7-4.2M770 706l4 31.4 2.4-28.5-14.2 17" />
    <path d="M271.2 429.2l14 .2-14 6.2-4-1.2" />
    <path fill="#ad6ad1" d="M684.7 204.8l8.2 3 22 .7-11-7.3" />
    <path fill="#ff2109" d="M635.6 728l-8.3 2.7 2-19-6.5 13.7" />
    <path fill="#fff" d="M83.7 247.6l-8.3 67.2.5-70-43 33.6m660 37.4l-28 .4 38-110 23 111.2" />
    <path fill="#fffffd" d="M732.7 146L722 170.5l64 91.2-57.8-58.5" />
    <path fill="#fff" d="M124.6 85.4l6.3 81.4 1-46-1-57" />
    <path fill="#a0d7a8" d="M960.8 446.3l-17.5-26.6-30.6-9.7 18.8-2" />
    <path fill="#f5f4e0" d="M604.5 371.3L613 402l-5.4-99 30.8 47" />
    <path fill="#c4d68e" d="M863.3 310.5l-55.7 56 46.6-42 28-28.2" />
    <path fill="#fff" d="M485.7 358.2l-137 23.2 75.8 21.3 49.2-2m-134.8-91l5 87.7 3-99-19-27.7M82 85.3L93 108l185-95L53 89.5m916.6 395.2l19.3 3-65 21 52 146" />
    <path fill="#86bd00" d="M309.4 552.3l30.4-3-19-1.5-13.5-1.2" />
    <path fill="#3b3939" d="M63 723.5l-10-9.2V711l-1-10.8" />
    <path fill="#fff" d="M131.5 253.8L167 328l4-7-41-50.2" />
    <path fill="#ff4835" d="M691 715l-35.2 3.8 29.5-.7 7.7 10" />
    <path fill="#090909" d="M415 353l7.7-3-8.6 7.2 24-2.5" />
    <path fill="#fff" d="M746.7 363.4L775 371l-66.5-.5-35.3-2.5M34.7 658.3l6-116.3 30 25.8 28-8.5m-34-167.6l-14-68L55 432.4 16 439m86-61l-19 32.7L97 435l-1-60.4" />
    <path fill="#cbdb9d" d="M931 306.6l-41.7 4-31 22 25-27.7" />
    <path fill="#fff" d="M789 642l15.5 50.4-4.7 2.2 17.5-118.4" />
    <path fill="#6c6c6c" d="M472.6 260.4l-3.4 19.8 4 7.7 2-25" />
    <path d="M332.7 331l8.3 23-5 5.8-3-17.8" />
    <path fill="#1e1d1d" d="M801.5 694.7l-17 1.2-2.3-3h3.4" />
    <path fill="#fff" d="M857.8 732.8l-4.3-8-5.7-19.6 9 3.7" />
    <path d="M502.4 394l-3-3.7-7.8-1.5 1.6 10.3m-89.4 35l-14.6 2-3.7-8h5.6M116 325l-1 27 7.8 6 2-4.4" />
    <path fill="#515353" d="M437 636.3l-10.6-2.7.5 6.3h19" />
    <path fill="#fff" d="M634.5 699.3l36.5-92.6-11 .7-20.6 30.8m268-444l-89-.7 80.2-4.7 19.8-4" />
    <path fill="#8dc104" d="M235.8 530.4l-2.2 9-3.2-22 7.4 2" />
    <path fill="#fff" d="M500 128.8l-5.8-4 5.7-17.2 8 16.7m-45 305l11-9-2-7.7-9 .5" />
    <path fill="#b172d3" d="M239.4 180.4l10.5-7 15 21.5v-13" />
    <path d="M447.8 428.5l-24.3 1 17 4.2 2.8-34.3" />
    <path fill="#fff" d="M250.8 695l17.2-45.5 48.8-1.3 99.7 1M68.3 171.8l10-3-.5 15-12-2.3" />
    <path d="M298 390.6l8-2V427l-1.6 10.5" />
    <path fill="#fff" d="M393 306.2l24.3-6-4.8 98-2.5-63.6" />
    <path fill="#676568" d="M590.3 257l4.6 3.3-1 .3-12 2.3" />
    <path fill="#3b7dcc" d="M733.8 707.5l.8 23.7 3.7-15.3 4.5 2" />
    <path fill="#fff" d="M321 410.8l11.5-62.5-2-15.2-7.6 3m532 350l8 6 10 6-19 1" />
    <path fill="#ff4d3a" d="M679.2 717.6l-8.6 10-2.6-16 5 19.8" />
    <path fill="#5e5f5e" d="M496.4 270.4l4 9.8 3.3-21-5.4 9.8" />
    <path fill="#bdbdbf" d="M144.4 738.2l8.8-25.6-12.8 9.7 16.4 14" />
    <path d="M481.3 91.3l-6 7.7-3.7-4.2-.7-7" />
    <path fill="#93c40f" d="M379 533.7L358 508l8.6 27.4 31.3 33" />
    <path fill="#fff" d="M663.4 186.8l-60.2-49.4 81.7-153-38 275.8m-43 467.2l-13-57.6-31 70 46-23.8M443 309.3l-5.6 26.2-9 4.3 16 4.2m-.4 55.3l11 23.7 1.5-37.5 5.8-34" />
    <path fill="#292929" d="M820 685l2.7-.2-31.5-.5 21.7-2.8" />
    <path fill="#b476d5" d="M451.7 205l-6.2-22.8 10.5-5.8-16.8 34.6" />
    <path fill="#b172d3" d="M395.5 207l6.2-3.3 1.3-39.2-10-2.5" />
    <path fill="#d6d78a" d="M894 237.8l14.3-17.6-19 10L916 251" />
    <path fill="#af6fd2" d="M311.6 175.4l11 .7 2.4 8-21-2" />
    <path fill="#fff" d="M851.4 327.5l48-36.8-75.3 72.6-72 68.3" />
    <path fill="#868687" d="M649 681.3l-2.3 15.8 5.2-9-2-3" />
    <path fill="#fff" d="M109 648.6l-81.3.4L33 756.5l20.7-59.7" />
    <path fill="#f9f9f8" d="M829.4 698.2l20.7-8.7V704l-1-16" />
    <path fill="#4c4d4c" d="M588.8 133.2l3.7-16.6-6.7 15.6-6.2 1.5" />
    <path fill="#818082" d="M546.2 283.6l2 3 8 9 5-3.3" />
    <path fill="#c62e43" d="M259.5 635.8l-23.2 19 21.2-10-4.6-15.2" />
    <path fill="#fff" d="M636.4 199l5.3-17.2 21.2 3.8-11 15.3" />
    <path fill="#343a3a" d="M325.8 642l-.4-6.7 3.6-5 7-3" />
    <path fill="#d1d685" d="M683.6 330.5l46.7-2-.4 15.4-6-10" />
    <path d="M158.4 417l-15-15.4 13.8 4-.6 11" />
    <path fill="#fff" d="M351.8 635.6l54.8-38.5-2.5 40-52-36M217 709l-22-64-104.7 49 64.7-54.3" />
    <path fill="#91d5ae" d="M936.3 491.4l-49.3 3.4 11.4 3 41.2-3" />
    <path fill="#fff" d="M262.5 607.7L248.7 624l-68-53.7 115-7.4m664 90l9 19-6 22-4.3-3" />
    <path fill="#fff" d="M220.5 562.2l-45.3 1 53 76 16.4-121.6m251.7-173l-19.5 48.8 115-34-108.3 1" />
    <path d="M65 115.3l20 5.4-8.8-9.7-19-.8" />
    <path fill="#4885ce" d="M858.4 728l-1.5-5.8 4-10.8v19.8" />
    <path fill="#fff" d="M338.2 154.3l-1 50.3-9-34 17-56.7" />
    <path fill="#8dc107" d="M122.7 511.2l-23.3-.5-.3 4 9 4" />
    <path fill="#010101" d="M516.6 433l-10 2.6 2.5-30 7 3" />
    <path fill="#8cc000" d="M139.5 561.4L122 546.6l6.8 16.3 33-14" />
    <path fill="#fff" d="M253.5 150l51.2 35.4L254 61l-4.8 103.3M951.4 690l3-9v12l-14.8 5.2m-200-374L690 321l.7 7.3 27.8.3m-545 82l12 3.4-2.6 45.8-5-31m655 253.5l39-3.3 36-81.6L744 618" />
    <path d="M89.2 104v-3l-5.7-5-9 27" />
    <path fill="#c8e1b3" d="M660.5 468l53-49.6-29.6 18.2-5 25.4" />
    <path fill="#d0dc9d" d="M892.7 299l-20.2-26.6 38 26.5 1.6-8" />
    <path d="M954.5 680l-9.4 5.5 13-9.5v7M351 354.4l-3-1 18 6.6 11.6-7.5" />
    <path fill="#feffff" d="M851 706.5l.8-49.4-4.3 41 31.7 19" />
    <path fill="#fff" d="M430.2 432.2L524 637.7l-128.4-122 .7 113.2" />
    <path d="M241 429.4l.5 4.8 10 .2 5.7-6" />
    <path fill="#fff" d="M106 296.4l-5.2-23 51 51.7-43.3 3M501 672l-29 50 14.3-5.7-12.2-21M465 389l34 10 19 3.8-81-2.8M299 551l12-153 10 123.6-8 25.4" />
    <path fill="#5c5c5c" d="M85.6 269l-1.4 19.2-2.6-15.5L84 257" />
    <path fill="#fff" d="M413.2 406.5V452l13-89.6L395 396" />
    <path d="M282.2 312l-4.4 8.2 8.8 2.7 3-5" />
    <path fill="#282929" d="M287.7 645.2l-5 3.5-15.2-2.5 4.5-1" />
    <path fill="#0c0c0c" d="M974 682.4l7.3 8-12.5 4.6 7.7-.8" />
    <path fill="#8fc20c" d="M177 557.4l-2.4 6.4 28.4-3-9-1.7" />
    <path fill="#fff" d="M779.2 522l-72.3 3-25 42.7 85 117" />
    <path fill="#5d5d5e" d="M457.2 282.4l2-33.7-.4-8-5.3 42.7" />
    <path fill="#b071d2" d="M157 192.8l6.5-2.7 18.7 7-32 2" />
    <path d="M266.3 421l-2 2.5 2.7 2.6 20.8-12" />
    <path fill="#8fd6b5" d="M837.8 514.2l3.7 72-28.7 1.3 30.8-7.2" />
    <path fill="#f2f2f2" d="M420 123l12.8-1.4-8.5 14 32.3 38.3" />
    <path d="M347.8 334l21.3-2.3-9-5-11 20.8" />
    <path fill="#fff" d="M872.5 170l5.7-56.7-233-6.8 215-22.5" />
    <path d="M104.7 102l17 2-13 3.2-13.7 11m330.7 16.6l-7.3-1.3L434 125l3.7 2.7" />
    <path fill="#fff" d="M591 260.8l-6.7 5.3-15 119L594 265" />
    <path fill="#f8ffff" d="M372.4 639.3l-2.2-3.4 7.2 8 15-2" />
    <path fill="#8dc100" d="M359.4 551.5l7 7.6-42.8 1 31.7 4" />
    <path fill="#fff" d="M341.8 335l-3.5-50.6L480 284l-123.4 43" />
    <path d="M97 420.3v9.2l1.8 4.5 11.6-32.4" />
    <path fill="#9ed6a6" d="M597.6 584.8l1.6-27.2 5.4 11-3.6 17" />
    <path fill="#fff" d="M207.3 337l25.4-1.2-1.4-10.2-35.4-61" />
    <path fill="#b6cbe1" d="M352.8 692.8L393 669l17.7 13-19-17.6" />
    <path fill="#fff" d="M643.6 693l-13.2 70.8 63.5-8.2-54-28" />
    <path d="M755.6 699l1.8-15.5h15.3l-18.2 2" />
    <path fill="#fff" d="M427.3 697.6L440 701l-14 4 .6-3" />
    <path d="M553 430.4l-4-7.6-2.6.7-6 15.4" />
    <path fill="#fff" d="M378.5 108.5l9.2-9.3-29 2.8v-8.8" />
    <path fill="#93c40e" d="M392.6 518.2l-7.8.2 1.6-5.6 22.2 3.6" />
    <path fill="#fff" d="M345 278v-14.5l7.6-7 4.7 19" />
    <path d="M406.8 403l-18.3 2-2.6 4 8 1" />
    <path fill="#020202" d="M329 432.2l9-6-1.8-37.5-5.6 4.7" />
    <path fill="#fafdf4" d="M187 550.3l-8.7 103.2 8.2-52L185 541" />
    <path fill="#fff" d="M617.7 548.4L537.3 435h-40.7l-61.8 18.7" />
    <path fill="#87be00" d="M268 527l-8-16 15.3-1.4-3.7 7" />
    <path fill="#fff" d="M128.3 639l-46-44.8L185.8 569l-55.5 57" />
    <path fill="#c6d382" d="M800 308.6l5.5-3.7-1.4 29v22" />
    <path fill="#fff" d="M945.8 725.7l.7-17L951 723l.8 8.8" />
    <path fill="#af6dd2" d="M344.4 239.8l-8-5 .5 48 9-1.3" />
    <path fill="#93c411" d="M172 529.4l-4.4-8.5-4 28 6.2-9" />
    <path fill="#fff" d="M794.5 685.6l12.6-31.3-30 35.5 10-26" />
    <path fill="#ac66d2" d="M387.4 263.8l19.4 21 12-7.6-27.8 2" />
    <path d="M184.7 399.8l7 10.6 2.5 16.4-8.4 6.3m37-301l-.2-15-19.3 2 .5-12" />
    <path fill="#af6ed2" d="M136.5 208.8l-1.5-46.5-5.3 6.6-2.7 38" />
    <path fill="#c0d895" d="M642 465.8l-5.2-12.4 6.4-23.2-11 18.2" />
    <path d="M276 90.5l-8.7.6 11.4 31 8.3 16" />
    <path fill="#2c73c9" d="M779.3 712.5l-.5 17.6-2.8-1-.4-2" />
    <path d="M137.6 326.6l-2.2 25.6 8.5-23.4-2-1.8" />
    <path fill="#fefefe" d="M548.4 422.8l-12.5-6 17-22-57-32.8" />
    <path fill="#606061" d="M612.2 98.5l-11.3 11 3 17 4-30" />
    <path d="M487.3 357l-15.5 2.3-12.3-19.2 1 10" />
    <path fill="#a0d8ac" d="M967.3 435.8l-32-34.6 28.7 23 5.2 2.6" />
    <path fill="#fff" d="M471.3 332.4l10.8 8.2 1 7.2h-15m312 177l3-41.8-32-5.3-64.2 11m137-43l36 39.3-24-94.3-28.4 31.8m-609-320l1.8 26 14-5.5-2.7 6" />
    <path fill="#020201" d="M771.8 694h19.4l-17.3 1.6-1-25.5" />
    <path fill="#fff" d="M305.3 732.3l-85.3-.5-1.5-17-52 21.7" />
    <path fill="#fdf8ff" d="M270 258.8l-10.8-4 13 21-12.8 1" />
    <path fill="#fff" d="M905.4 215l14.3-15.8-1.2 18.3-56.5 16.8" />
    <path fill="#8dc105" d="M64.4 563.2l-6.2-20 12 22.3 26-11.6" />
    <path fill="#b4dba8" d="M751.4 432l-56.2 56.3-9.3-9 12-.7" />
    <path fill="#d5d88d" d="M911.5 261L893 251l-23.7 14.3L892 245" />
    <path fill="#525350" d="M718 714.7l4 22.3.8-26.6-2 11.4" />
    <path fill="#2f2e2e" d="M78.3 693.7l-19.8-2.3-5.7 13.2L67 689" />
    <path fill="#c9da9a" d="M768.6 364.2l14-12.4-17 2.7 20.8 19" />
    <path d="M808 693.6l-1-6.2-3.6-7.8 2.7 17.6" />
    <path fill="#a65fcd" d="M339 209l3.3-3 5 2.3-9.3-18.6" />
    <path fill="#080808" d="M243.6 402.6l10 .4 8 8.3-12.4-3" />
    <path fill="#fff" d="M376.2 342.4l-1.5 10.6 2.6 35 12.3-167.5" />
    <path fill="#ad6ad2" d="M261.3 280.2l-7.2-7.6-27-2.8-7-13.8" />
    <path fill="#8b8b89" d="M691 697.2l-11.7-1.6-16 .8 31.4-4.6" />
    <path fill="#fff" d="M197.3 581.7l7.3 94.7L207 558l26.6 81.7M804 482l35 13.3-2 87.2-39.6-82.3m67-226l-8.2-23.8-51.3 80 45-13.4m-32 270l86 7.3 44 1-6-7.5" />
    <path fill="#1e6bc7" d="M961 728.3l-3-2.2 7.5-9-6.3 2" />
    <path fill="#fff" d="M747.6 654.3l-94 29.2-2.5 34.2V667" />
    <path fill="#fad169" d="M907.2 80l22.4-3-6-13 1.3 18" />
    <path d="M170.6 133l4.5-1.4 2-31.2-7 4.2" />
    <path fill="#686868" d="M577.7 269.6L580 286l.6-24 15.8-5.3" />
    <path fill="#98d7b0" d="M940.8 484l-70.8-1.8 61.7-1.7 14.8-8.4" />
    <path fill="#fff" d="M259 473.6L93.2 433.2l59.3 79 38-3.2" />
    <path d="M86.4 92l-11.2 22 14-12.3-25.7-10.2" />
    <path fill="#fff" d="M362.4 307.4l6-60.2 13.6 96.6-29.4-41" />
    <path d="M385 114l-7-5.2-1.7 16.3 10.2 8" />
    <path fill="#fff" d="M201.2 345.8l-2 31.7 39.7 3-11-36.4" />
    <path fill="#060605" d="M718.6 694l14 1.6.4-9 .2 6.5" />
    <path fill="#8ad3ab" d="M779 565.6l-.4-11 1.5-6.2 5 14.8" />
    <path fill="#4a4d4d" d="M272 632.2l-2.3-3.7L281 627l7 3.7" />
    <path fill="#fff" d="M345 242.7l28 16-5.6-69 11.2 19.6M86 556.5l1.4-1.8L67 561l-6.7-30.5" />
    <path fill="#abd9a6" d="M635.4 547.6l4.4-55 1.7 33-14.2 17.2" />
    <path fill="#fff" d="M713 753.2L690.8 725l16 7-1.3-41.6m-636-291.6l24 1-18.8 26.7-9-22.4m387.5-269H277.4l-34 41 120.8 1M86 391l-50.3-10L48 360l195 8" />
    <path d="M767.4 683l-18.8 3.5L763 682l3 11" />
    <path fill="#fff" d="M155.4 405.3L142 383l23.7-31 41.4 41.4" />
    <path fill="#fed77d" d="M846.8 77.4l-18.6 6-17.7-7.3L832 90" />
    <path fill="#ff2e18" d="M641.6 717l.2 7.4 1.2 6.8 4.8-22.8" />
    <path d="M439.3 110.3l-9.7 7.2 3 12.4 4.5 3M173 322l5-6-6.2 44.3L178 339" />
    <path fill="#fff" d="M734.6 699.6l10 24.2L750 709l43.2 8" />
    <path fill="#86d4b8" d="M923.7 607.3l-11.6.7-10-15.8 6 6" />
    <path fill="#fff" d="M132 83.7l38.4 19 23.8-.7L177.8-8" />
    <path fill="#fcfdfb" d="M873.8 375.6L850 370l30-6.3-15.2-13" />
    <path fill="#fff" d="M635.3 382.7l-32.2-71 52 69.8-10 23M96 137l3 .6-7.8-35.2-7.8 16" />
    <path fill="#fdfffc" d="M86 264.8l49.7-53-10.5 50.3-24.8-51" />
    <path fill="#fff" d="M822.6 268.4l61-45.3-63.6 38-78.4 1M860 54l15.3-2.8 8.2 6-12 44" />
    <path fill="#a6d9ac" d="M635.6 562l4 22.5 2-65.8-3-19.6" />
    <path fill="#a8d8a6" d="M765 461l1 17.4 18.3.6 2 12.8" />
    <path fill="#4a87d0" d="M788.6 727l-5.5-19.6 4 23.4v2.2" />
    <path fill="#a6d6a1" d="M681.8 522l2-4.7-28-23.6-2.2 2" />
    <path fill="#fffffe" d="M893 689.4l-13.7-4.5v11-2" />
    <path d="M240.3 317l32.8 11.5-10-10.4-29-4m324 88l-10 2v45l4-37" />
    <path fill="#fff" d="M326.2 698l10.8 1.6.7 10.8-14.3 3.5M929 679l106-47.3L878.7 600l-22.6.6M379 237.4l53.6 1.2L414 196l15 1" />
    <path fill="#ad6cd0" d="M183.6 237.8l-34 2.5 28.8 6 3-5.2" />
    <path fill="#fbfdff" d="M256.7 716.4L238 657.2l7.7-7.5 16 16.6" />
    <path fill="#fff" d="M739.4 677.7l65.6-.8-72.8-23 5.5 43" />
    <path fill="#fefefe" d="M515 476l12.6-45.2V410l-10.4 1" />
    <path fill="#636463" d="M439.8 258l12.8 2.3-14.6 1.5-4.4-4" />
    <path fill="#fff" d="M297.3 654l.7-13.4 45 53.3-91.3-50M554 202l-88.6 22.5-16.3 34.7-6-5" />
    <path fill="#10110f" d="M719 726l3.5 6.5-1.8-12-.2 6" />
    <path fill="#ab67d0" d="M283.4 182l-14 19 7.8-24.5 17.8 2.2" />
    <path fill="#101010" d="M941.7 673l2.5 19.7 2-5-1.2-7" />
  </g>
</svg>